<?xml version="1.0" standalone="no"?>
<!DOCTYPE svg PUBLIC "-//W3C//DTD SVG 20010904//EN"
 "http://www.w3.org/TR/2001/REC-SVG-20010904/DTD/svg10.dtd">
<svg version="1.0" xmlns="http://www.w3.org/2000/svg"
 width="1024.000000pt" height="1024.000000pt" viewBox="0 0 1024.000000 1024.000000"
 preserveAspectRatio="xMidYMid meet">
<metadata>
Created by potrace 1.16, written by Peter Selinger 2001-2019
</metadata>
<g transform="translate(0.000000,1024.000000) scale(0.100000,-0.100000)"
fill="#000000" stroke="none">
<path d="M3227 8128 c-8 -24 -25 -76 -38 -117 -12 -41 -42 -114 -65 -163 -62
-126 -165 -277 -186 -270 -5 1 -7 -1 -4 -6 8 -13 -93 -112 -159 -158 -55 -38
-70 -69 -39 -81 8 -3 13 -12 10 -19 -5 -14 10 -20 16 -6 2 4 73 5 159 2 l157
-5 -46 -70 c-83 -127 -256 -281 -397 -353 -22 -11 -48 -29 -58 -40 -18 -20
-17 -21 45 -51 73 -35 195 -55 293 -49 69 4 70 4 55 -15 -87 -108 -115 -139
-161 -178 -122 -104 -372 -248 -407 -234 -9 3 -13 3 -9 -1 4 -4 -2 -13 -13
-21 -36 -26 -25 -52 34 -79 60 -27 171 -54 229 -54 20 0 37 -3 37 -7 0 -5 46
-7 102 -5 l103 2 -55 -52 c-161 -151 -340 -269 -597 -394 -79 -38 -143 -75
-143 -82 0 -60 264 -147 485 -159 83 -4 131 -2 195 11 110 22 237 67 286 100
l39 26 3 -356 c1 -197 1 -359 -2 -361 -2 -2 -20 6 -41 18 -31 19 -51 22 -129
21 -50 0 -99 2 -109 5 -10 2 -29 28 -43 56 -35 74 -60 98 -134 132 -75 34
-190 45 -274 26 -102 -23 -194 -108 -232 -212 l-17 -47 -62 -4 c-167 -14 -276
-137 -275 -311 1 -40 7 -90 15 -112 8 -22 15 -43 15 -46 0 -4 -24 -9 -52 -11
-29 -3 -66 -11 -83 -18 -16 -7 -34 -12 -38 -11 -5 1 -6 -3 -3 -8 3 -5 -1 -11
-9 -15 -20 -7 -55 -66 -55 -93 0 -12 8 -27 18 -32 15 -8 25 -2 56 35 54 65 84
77 173 71 40 -3 80 -10 88 -17 8 -7 15 -10 15 -6 0 9 116 -51 167 -85 47 -32
65 -36 83 -15 24 30 -33 80 -169 150 -76 39 -93 53 -115 91 -49 88 -43 195 15
275 45 62 92 81 196 78 l88 -3 6 45 c22 148 124 235 274 235 86 -1 136 -12
114 -26 -10 -7 -7 -8 12 -4 36 9 80 -31 121 -107 40 -75 67 -88 177 -88 56 0
101 -7 146 -22 64 -20 66 -22 63 -52 -3 -31 -8 -33 -40 -21 -12 5 -18 2 -18
-8 0 -8 -5 -17 -11 -19 -18 -6 1 -36 32 -48 45 -19 90 -2 111 40 16 32 18 78
18 516 0 499 -1 518 -40 494 -8 -5 -18 -6 -24 -3 -5 3 -6 1 -3 -4 9 -14 -102
-86 -179 -117 -121 -49 -314 -71 -459 -51 -94 12 -205 38 -205 47 0 5 -4 6
-10 3 -5 -3 -17 -2 -25 2 -11 7 -1 16 42 37 128 62 284 153 392 230 181 129
364 318 347 361 -5 13 -19 15 -75 13 -38 -2 -67 -6 -64 -10 11 -19 -353 5
-372 24 -2 2 28 21 68 43 134 71 261 162 337 241 108 111 129 134 124 134 -2
0 9 24 26 53 51 92 37 108 -83 95 -40 -4 -78 -5 -86 -3 -8 3 -49 6 -93 6 -43
0 -78 4 -78 7 1 4 37 32 81 62 141 97 261 234 356 406 47 86 43 89 -130 88
l-136 -1 26 31 c14 17 30 30 35 28 5 -1 7 2 4 6 -3 5 4 18 15 28 45 40 179
232 179 255 0 6 4 8 8 5 5 -3 9 0 9 7 0 7 16 46 35 87 20 41 41 92 48 113 14
46 21 41 50 -33 12 -30 41 -92 66 -138 25 -46 42 -87 39 -93 -4 -5 -2 -8 4 -7
5 2 30 -26 56 -62 25 -36 79 -102 121 -147 l75 -82 -128 -3 c-149 -3 -152 -5
-109 -101 13 -30 21 -59 18 -63 -4 -4 -1 -3 7 1 11 6 13 4 7 -11 -4 -10 -4
-15 0 -12 4 4 29 -25 57 -65 63 -91 143 -174 231 -240 l69 -52 -39 -7 c-21 -4
-96 -7 -166 -7 -70 1 -131 -2 -137 -6 -20 -12 -11 -50 23 -108 19 -31 33 -57
31 -57 -2 0 6 -10 18 -23 12 -13 45 -47 72 -77 28 -29 76 -75 107 -101 58 -48
216 -145 276 -168 70 -28 27 -33 -173 -19 -71 4 -144 10 -161 13 -18 2 -40 -2
-50 -10 -18 -13 -18 -15 6 -62 57 -108 193 -263 325 -369 33 -26 58 -52 57
-58 -2 -6 -1 -8 3 -4 4 3 37 -13 73 -36 37 -24 102 -62 145 -86 69 -38 101
-61 62 -46 -8 3 -15 2 -15 -3 0 -4 -36 -15 -81 -25 -228 -49 -463 -22 -617 71
-66 40 -172 138 -200 186 -21 36 -59 37 -72 1 -14 -37 -12 -136 4 -156 18 -24
33 -22 42 5 7 21 7 21 15 2 4 -11 8 -233 8 -493 1 -310 5 -488 12 -517 25 -97
152 -187 282 -199 216 -20 252 -18 263 16 12 39 -54 57 -234 60 -46 0 -78 8
-120 28 -64 31 -108 72 -97 91 5 8 4 10 -3 5 -9 -5 -12 10 -12 52 0 52 3 62
25 76 40 26 65 58 96 121 16 33 42 70 57 82 32 27 89 30 132 8 28 -15 32 -14
87 17 107 61 222 41 332 -58 27 -24 53 -44 59 -44 5 0 42 14 80 30 87 37 121
38 160 5 46 -38 50 -75 12 -115 -16 -17 -30 -40 -29 -49 0 -12 2 -12 9 4 7 18
9 18 15 3 3 -9 13 -19 21 -22 9 -3 12 -1 9 4 -3 6 1 10 10 10 8 0 39 12 68 27
99 50 177 32 222 -51 15 -27 25 -36 39 -32 33 8 75 -6 104 -34 15 -16 39 -31
53 -35 26 -7 27 -6 19 37 -5 23 -6 47 -3 52 4 5 2 6 -4 3 -5 -3 -26 5 -46 18
-20 14 -43 25 -52 25 -9 0 -37 20 -64 45 -63 59 -109 77 -185 74 -34 -2 -67
-7 -73 -12 -9 -7 -13 -4 -13 10 0 11 -13 38 -29 60 -54 75 -157 92 -266 44
l-45 -20 -64 48 c-83 63 -147 85 -234 79 -37 -3 -85 -13 -107 -23 -30 -14 -65
-19 -135 -19 -88 -1 -98 -3 -131 -28 -19 -15 -55 -61 -78 -103 -24 -41 -46
-77 -50 -79 -3 -2 -6 164 -6 369 0 331 2 372 15 360 40 -35 163 -89 265 -116
178 -48 458 -26 630 50 107 47 112 77 18 115 -103 42 -251 128 -350 204 -140
109 -352 343 -287 318 11 -4 75 -10 144 -13 134 -6 259 8 297 33 32 20 29 50
-6 70 -17 10 -27 22 -24 27 3 5 0 7 -8 5 -20 -7 -230 100 -317 162 -87 61
-186 157 -231 223 l-32 47 108 0 c108 0 183 14 256 46 31 14 37 22 35 44 -1
20 -6 26 -17 22 -10 -4 -12 -1 -6 8 5 9 4 11 -3 6 -14 -9 -127 65 -208 136
-92 81 -221 248 -208 270 3 4 0 8 -5 8 -6 0 -11 4 -11 9 0 5 67 11 150 13 143
3 151 4 172 27 13 13 17 20 9 16 -11 -6 -13 -4 -8 8 3 10 2 17 -4 17 -18 0
-113 76 -169 136 -128 136 -252 334 -303 484 -49 143 -62 165 -94 168 -28 3
-32 0 -46 -40z"/>
<path d="M7152 7538 c-6 -7 -20 -42 -32 -78 -33 -97 -92 -220 -141 -291 -53
-80 -158 -191 -172 -182 -6 3 -7 1 -4 -4 4 -6 -33 -38 -83 -72 -50 -34 -90
-68 -90 -76 0 -33 87 -54 233 -56 l107 -1 -22 -32 c-48 -67 -196 -203 -273
-250 -44 -27 -104 -64 -133 -83 l-53 -34 17 -29 c10 -16 20 -27 23 -25 3 1 38
-3 76 -11 39 -7 112 -13 163 -14 50 0 92 -4 92 -8 0 -5 -39 -47 -87 -94 -95
-92 -192 -160 -328 -229 -84 -44 -107 -68 -86 -93 6 -7 9 -15 6 -17 -2 -3 4
-5 13 -6 9 -1 49 -11 87 -23 78 -23 262 -50 313 -46 27 3 31 1 21 -11 -7 -7
-18 -12 -26 -9 -8 3 -12 2 -9 -3 8 -12 -86 -97 -159 -145 -88 -59 -211 -121
-325 -166 -171 -66 -172 -66 -168 -97 8 -72 277 -151 521 -154 125 -2 208 11
305 46 36 13 69 22 74 19 4 -3 8 -1 8 5 0 6 8 15 18 20 17 9 18 -36 12 -816 0
-52 -1 -53 -42 -74 -24 -12 -57 -34 -74 -50 -22 -22 -46 -32 -89 -39 -122 -20
-199 -80 -265 -208 -18 -34 -20 -45 -10 -57 24 -29 45 -15 92 59 52 83 109
125 181 133 42 5 44 4 72 -41 27 -43 116 -116 141 -116 6 0 19 9 30 21 21 23
30 12 -76 98 -34 28 -41 38 -38 64 3 32 16 42 85 68 19 6 42 27 55 48 23 36
23 39 26 466 2 367 5 435 18 464 25 53 29 107 10 136 -9 14 -22 25 -29 25 -7
0 -33 -21 -57 -46 -82 -83 -185 -129 -324 -141 -44 -4 -85 -6 -90 -4 -6 1 -51
4 -100 5 -50 2 -113 9 -141 15 -143 35 -175 45 -163 52 6 4 16 5 20 3 4 -3 8
-2 8 3 0 4 15 14 33 22 85 36 259 128 322 169 39 26 119 95 178 154 99 98 108
110 105 140 l-3 33 -111 -3 c-103 -4 -240 10 -288 27 -19 8 -18 9 12 25 17 9
34 16 37 16 3 0 13 7 23 16 9 8 46 34 82 57 35 23 105 83 155 132 92 91 142
162 155 220 l7 31 -56 -7 c-93 -12 -293 -11 -286 2 4 6 14 8 23 4 9 -3 13 -3
9 1 -3 4 25 28 63 55 110 75 167 128 231 213 50 66 109 163 109 180 0 2 -6 11
-14 18 -10 11 -30 12 -87 7 -41 -4 -101 -8 -134 -8 l-60 -1 35 27 c60 45 164
155 207 218 41 61 113 194 124 230 l6 20 7 -20 c26 -71 81 -184 118 -242 23
-37 41 -72 40 -77 -2 -6 -1 -8 3 -4 4 4 19 -7 33 -24 14 -17 53 -51 87 -75
l60 -45 -125 4 -125 3 2 -29 c1 -15 11 -47 22 -69 16 -32 18 -43 8 -50 -9 -6
-8 -7 3 -5 8 3 28 -16 48 -46 59 -87 200 -219 277 -259 l30 -15 -55 -7 c-30
-3 -103 -5 -162 -3 l-106 3 3 -32 c2 -18 25 -64 55 -107 86 -124 200 -221 365
-308 69 -36 69 -37 40 -45 -17 -4 -96 -8 -177 -8 -82 0 -148 -3 -148 -7 0 -4
-9 -10 -20 -13 -20 -6 -20 -8 7 -58 42 -76 191 -227 294 -297 100 -67 231
-136 327 -170 61 -22 63 -24 40 -35 -45 -24 -214 -56 -323 -62 -180 -10 -305
22 -391 99 -22 19 -46 37 -54 40 -15 5 -70 -17 -70 -28 0 -3 5 -2 10 1 7 4 10
-134 10 -407 0 -239 4 -427 10 -447 12 -44 47 -81 76 -81 12 0 45 16 74 35 68
46 135 65 202 58 51 -5 55 -4 109 41 67 55 111 74 187 82 115 12 266 -46 311
-120 11 -18 27 -58 35 -90 21 -80 51 -107 127 -111 60 -3 156 -46 144 -65 -3
-5 4 -14 15 -20 54 -29 74 -174 32 -242 -36 -57 -69 -82 -110 -82 -20 1 -28
-1 -18 -4 15 -3 8 -10 -30 -31 -60 -32 -67 -54 -22 -70 22 -8 34 -8 36 -1 2 5
10 10 18 10 20 0 118 42 122 52 2 4 13 8 25 8 18 0 19 -2 7 -11 -11 -8 -8 -9
15 -4 22 4 49 -4 103 -30 41 -19 75 -35 77 -35 3 0 9 9 14 19 15 27 -19 66
-80 92 -27 12 -49 25 -49 30 0 5 -11 9 -25 9 l-25 0 19 38 c18 37 34 162 20
162 -4 0 -6 8 -4 18 1 9 0 22 -4 27 -3 6 -6 13 -6 17 0 3 -14 27 -32 52 -33
46 -105 106 -129 106 -8 0 -11 7 -8 18 5 13 4 14 -4 3 -7 -10 -14 -10 -30 -2
-11 6 -31 11 -44 11 -45 0 -71 23 -84 72 -42 168 -197 258 -420 246 -100 -6
-163 -29 -222 -82 -33 -29 -46 -34 -113 -39 -73 -6 -179 -42 -194 -66 -3 -6
-13 -11 -20 -11 -12 0 -15 58 -17 365 -2 201 1 365 5 365 4 0 18 -6 30 -14 36
-24 166 -56 252 -62 154 -12 392 27 565 93 71 27 75 31 76 61 1 17 -2 29 -6
27 -13 -8 -131 41 -123 50 5 4 2 5 -5 1 -35 -21 -348 138 -451 228 -65 57
-136 128 -121 121 8 -4 0 7 -19 24 l-34 33 87 -4 c47 -2 86 0 86 5 0 4 14 7
31 7 34 0 136 24 184 43 17 6 37 20 46 31 16 19 16 22 -3 38 -11 9 -36 22 -57
29 -94 31 -298 148 -284 164 5 4 3 5 -4 2 -16 -10 -166 132 -159 150 3 8 2 12
-3 9 -5 -3 -11 1 -15 9 -4 12 7 15 69 15 98 0 220 18 264 38 61 29 49 50 -57
103 -95 48 -179 106 -243 170 -34 34 -119 151 -119 163 0 4 9 6 21 6 14 0 19
-5 16 -13 -3 -8 1 -14 9 -14 7 0 11 4 8 9 -3 4 -2 8 3 9 4 0 42 2 84 4 95 5
156 20 168 43 13 25 1 40 -55 66 -72 34 -187 128 -239 196 -25 33 -64 95 -85
137 -37 75 -90 235 -90 273 0 38 -46 63 -68 38z"/>
<path d="M6585 4841 c-74 -18 -161 -86 -201 -156 -10 -18 -12 -18 -56 3 -72
33 -231 70 -363 83 -155 15 -830 7 -863 -10 -24 -13 -31 -60 -9 -62 6 -1 152
-2 324 -3 171 -1 314 -4 317 -7 11 -11 -4 -35 -32 -51 -28 -16 -161 -51 -357
-93 -60 -12 -130 -28 -155 -34 -25 -6 -187 -47 -360 -91 -540 -135 -742 -209
-878 -319 -53 -43 -72 -77 -72 -133 0 -47 24 -95 68 -134 28 -25 201 -114 221
-114 7 0 9 -4 6 -10 -3 -5 0 -7 9 -4 23 9 302 -105 342 -140 74 -64 35 -147
-105 -220 -64 -33 -267 -106 -295 -106 -8 0 -24 -8 -37 -19 -19 -15 -21 -21
-11 -33 6 -8 9 -17 7 -20 -3 -3 11 -2 32 2 21 5 61 13 89 18 27 6 70 18 94 26
32 11 48 12 57 4 10 -8 12 -7 8 4 -4 10 16 24 71 48 142 62 227 165 210 255
-6 32 -69 115 -87 115 -5 0 -26 10 -47 23 -42 26 -117 58 -275 116 -186 69
-277 129 -277 183 0 76 115 152 353 234 155 53 556 164 722 199 39 8 98 22
132 31 51 14 65 15 78 4 13 -11 15 -10 10 2 -5 11 13 18 77 32 46 10 157 36
248 58 151 36 168 42 198 74 24 25 32 43 32 69 0 33 2 35 33 35 63 -1 223 -21
287 -36 82 -20 190 -56 190 -63 -1 -8 -86 -72 -131 -97 -61 -36 -183 -79 -384
-138 -344 -100 -459 -147 -542 -219 -84 -74 -84 -162 -1 -232 48 -40 133 -79
282 -126 419 -132 520 -168 621 -219 61 -30 109 -61 108 -67 -2 -7 3 -10 10
-7 20 7 141 -99 173 -152 24 -41 29 -60 28 -114 0 -54 -6 -76 -34 -128 -96
-180 -423 -391 -904 -584 -127 -50 -375 -132 -446 -147 -149 -32 -164 -41
-130 -83 l18 -23 94 24 c508 129 1087 402 1323 625 36 34 68 61 70 59 3 -2 3
0 1 3 -2 3 11 29 30 57 45 68 59 116 58 202 -1 215 -221 381 -709 538 -77 24
-201 64 -275 87 -74 23 -158 53 -187 67 -67 32 -116 86 -107 116 22 76 156
142 444 222 377 104 488 150 605 249 l46 39 40 -22 c22 -13 46 -20 54 -17 23
9 17 43 -12 70 l-27 25 19 42 c24 51 109 112 160 113 18 1 31 5 27 10 -8 14
81 -1 175 -31 89 -27 114 -25 121 10 4 20 -74 61 -155 82 -60 16 -147 18 -198
6z"/>
<path d="M2380 4615 c-14 -17 -32 -87 -20 -80 4 2 10 -28 14 -67 3 -39 16
-108 27 -152 11 -45 21 -85 22 -90 1 -6 15 -22 30 -38 19 -20 38 -28 61 -28
30 0 38 7 85 75 45 65 55 74 71 65 13 -7 21 -7 26 2 4 6 3 8 -4 4 -25 -15 -21
16 8 55 21 29 27 46 20 54 -5 6 -6 16 -2 20 4 5 1 5 -5 1 -7 -4 -13 -2 -13 4
0 19 -56 -27 -95 -79 -21 -28 -43 -47 -48 -44 -6 3 -7 2 -4 -4 9 -14 -22 -55
-35 -47 -6 4 -8 2 -4 -4 3 -6 2 -13 -3 -16 -11 -7 -35 65 -49 144 -6 30 -16
88 -23 128 -8 49 -18 78 -31 86 -10 7 -15 16 -11 19 3 4 4 7 1 7 -3 0 -11 -7
-18 -15z"/>
<path d="M3190 4495 c-18 -21 -8 -48 20 -56 52 -14 144 -10 172 9 26 17 27 19
12 40 -14 20 -24 22 -103 22 -65 0 -92 -4 -101 -15z"/>
<path d="M2175 4485 c-3 -8 -7 -21 -9 -29 -3 -8 -1 -16 3 -18 4 -2 30 -57 56
-123 26 -66 53 -126 61 -134 21 -23 44 -6 44 32 0 35 -54 182 -93 250 -21 38
-54 50 -62 22z"/>
<path d="M2785 4314 c-86 -30 -119 -56 -110 -84 9 -28 35 -25 140 18 90 37
116 63 83 83 -19 13 -35 10 -113 -17z"/>
<path d="M8070 4158 c-10 -17 -33 -75 -50 -127 -17 -53 -34 -102 -38 -108 -5
-8 -23 25 -47 88 -43 108 -57 128 -78 110 -8 -6 -16 -9 -18 -7 -2 2 -5 -21 -7
-52 -1 -32 -9 -84 -16 -117 l-13 -60 -34 54 c-19 30 -32 59 -31 65 2 6 1 8 -3
5 -7 -8 -72 53 -67 63 2 4 -4 5 -13 2 -9 -4 -14 -9 -11 -12 3 -2 1 -13 -5 -24
-9 -17 1 -37 63 -129 100 -150 130 -156 163 -32 16 58 19 64 27 43 6 -16 5
-26 -4 -33 -9 -6 -8 -7 4 -3 13 4 22 -3 33 -24 8 -15 11 -30 7 -33 -4 -2 -2
-3 4 -1 7 1 22 -4 34 -13 20 -14 23 -14 40 3 10 11 43 92 73 182 48 143 53
165 40 177 -21 22 -31 19 -53 -17z"/>
<path d="M7440 3905 c-85 -16 -100 -23 -100 -46 0 -31 35 -42 90 -29 26 6 68
12 94 13 25 1 46 6 46 11 0 5 6 4 13 -2 9 -8 12 -3 11 19 -1 16 -2 33 -3 37
-2 13 -79 11 -151 -3z"/>
<path d="M2671 3661 c-12 -8 -13 -18 -2 -66 7 -32 24 -89 37 -127 13 -39 21
-74 18 -79 -3 -5 -1 -9 4 -9 5 0 14 -17 20 -38 7 -21 23 -48 36 -61 38 -36 65
-25 104 44 19 33 41 70 48 82 8 13 14 24 13 25 -1 2 8 22 20 46 24 48 21 62
-14 62 -28 0 -51 -27 -84 -98 -13 -28 -29 -48 -34 -45 -6 3 -7 1 -4 -5 4 -5 4
-18 0 -28 -5 -13 -11 -3 -25 37 -33 96 -38 112 -32 120 3 5 1 9 -4 9 -5 0 -15
21 -22 48 -22 81 -44 105 -79 83z"/>
<path d="M2488 3455 c-16 -20 -16 -24 -1 -46 23 -33 135 -162 150 -172 7 -4
11 -13 9 -20 -1 -6 -1 -9 1 -5 3 4 5 11 6 15 2 13 21 31 29 27 14 -9 -5 36
-23 52 -10 9 -19 23 -19 30 0 7 -3 14 -8 16 -4 2 -27 27 -52 56 -58 69 -70 76
-92 47z"/>
<path d="M3219 3371 c-67 -21 -143 -79 -169 -132 -22 -42 -27 -128 -9 -146 15
-15 1 -36 -18 -29 -8 3 -12 2 -9 -2 8 -14 -409 -100 -422 -88 -3 3 -11 1 -18
-5 -7 -6 -36 -12 -64 -15 -28 -2 -96 -11 -151 -20 -54 -8 -103 -13 -109 -9 -5
3 -10 2 -10 -3 0 -5 -23 -12 -52 -14 -34 -4 -56 -12 -65 -24 -20 -27 -16 -49
10 -52 59 -6 672 92 862 137 108 26 124 28 160 16 61 -20 104 -25 186 -24 112
1 139 3 139 10 0 3 18 11 40 18 64 19 140 97 131 135 -1 5 6 6 15 2 13 -5 14
-3 6 6 -16 20 -20 84 -4 80 6 -1 12 2 12 8 0 5 12 10 28 10 45 0 102 -12 97
-20 -3 -5 4 -6 15 -3 12 3 20 0 20 -8 0 -7 3 -10 6 -6 10 10 81 -30 98 -55 41
-58 -3 -94 -133 -109 -70 -8 -90 -18 -91 -46 0 -30 173 -28 231 3 39 20 77 63
84 95 8 37 -20 98 -61 133 -78 65 -228 101 -329 79 -36 -8 -45 -6 -91 24 -29
19 -73 41 -99 49 -51 15 -192 18 -236 5z m263 -99 c71 -35 101 -69 101 -116 0
-40 -56 -90 -124 -110 -146 -44 -322 -2 -350 81 -14 44 12 98 66 135 56 39 89
48 170 45 57 -2 84 -9 137 -35z"/>
<path d="M7660 3072 c-30 -5 -47 -16 -107 -73 -26 -24 -52 -42 -58 -41 -5 2
-7 1 -3 -3 3 -4 -9 -27 -27 -51 -56 -73 -85 -150 -85 -225 0 -60 7 -79 30 -79
28 0 31 8 44 105 13 95 71 175 214 298 30 25 42 61 25 69 -5 2 -19 2 -33 0z"/>
<path d="M7285 3026 c-36 -27 -61 -250 -29 -263 8 -3 13 -12 10 -19 -3 -8 -1
-14 3 -14 21 0 63 175 65 268 1 22 5 31 14 27 7 -3 11 -1 8 4 -8 12 -53 11
-71 -3z"/>
<path d="M6628 2771 c-152 -49 -238 -148 -238 -274 0 -40 6 -63 23 -88 22 -33
124 -103 156 -107 116 -13 246 -12 326 2 109 20 191 57 191 85 0 11 -3 18 -7
15 -4 -2 -9 1 -11 7 -3 9 -13 9 -41 0 -20 -7 -41 -10 -47 -6 -5 3 -10 2 -10
-4 0 -31 -293 -48 -382 -22 -26 7 -46 17 -43 21 3 4 -3 7 -12 6 -46 -3 -84
131 -47 168 8 9 12 16 8 16 -16 0 61 70 95 86 106 51 261 47 376 -10 40 -20
88 -53 108 -75 39 -43 81 -144 74 -178 -2 -12 -1 -20 3 -18 4 3 11 -6 14 -20
5 -18 11 -23 24 -18 25 8 42 33 42 61 0 20 4 22 23 17 58 -17 87 -30 87 -38 0
-5 6 -5 13 1 7 6 28 12 45 14 17 1 34 8 37 16 2 7 0 10 -5 7 -6 -4 -14 4 -18
16 -7 17 -25 27 -73 40 -35 10 -79 18 -96 19 -29 0 -36 6 -57 48 -52 103 -185
199 -306 222 -80 15 -188 11 -252 -9z"/>
<path d="M7675 2765 c-60 -22 -113 -70 -124 -113 -9 -31 -8 -39 10 -58 61 -65
241 -14 305 88 l24 38 -24 27 c-22 23 -35 27 -88 30 -38 1 -79 -4 -103 -12z"/>
<path d="M6060 2400 c0 -5 -24 -10 -53 -10 -64 0 -93 -17 -83 -48 4 -12 11
-20 16 -17 5 3 10 1 12 -5 2 -7 28 -7 78 -1 41 5 78 7 82 5 4 -3 8 0 8 5 0 6
10 11 23 11 12 0 17 4 11 8 -14 9 -25 40 -16 45 4 2 2 2 -5 1 -7 -2 -15 1 -18
6 -8 13 -55 13 -55 0z"/>
</g>
</svg>
