<?xml version="1.0" standalone="no"?>
<!DOCTYPE svg PUBLIC "-//W3C//DTD SVG 20010904//EN"
 "http://www.w3.org/TR/2001/REC-SVG-20010904/DTD/svg10.dtd">
<svg version="1.0" xmlns="http://www.w3.org/2000/svg"
 width="1024.000000pt" height="1024.000000pt" viewBox="0 0 1024.000000 1024.000000"
 preserveAspectRatio="xMidYMid meet">
<metadata>
Created by potrace 1.16, written by Peter Selinger 2001-2019
</metadata>
<g transform="translate(0.000000,1024.000000) scale(0.100000,-0.100000)"
fill="#000000" stroke="none">
<path d="M7365 8201 c7 -13 -45 -37 -188 -85 -91 -31 -142 -44 -242 -60 -16
-3 -39 -7 -50 -10 -11 -3 -40 -7 -65 -9 -25 -3 -79 -10 -120 -17 -41 -7 -98
-9 -127 -6 -31 4 -54 2 -58 -4 -4 -6 -21 -8 -38 -5 -58 10 -217 14 -222 5 -3
-4 -33 -8 -67 -8 -35 0 -85 -5 -113 -12 -27 -6 -57 -12 -65 -14 -46 -10 -176
-66 -235 -101 -30 -19 -55 -31 -55 -27 0 3 -7 -3 -15 -14 -8 -10 -15 -16 -15
-13 0 4 -12 -4 -27 -17 -16 -13 -80 -64 -143 -114 -108 -86 -210 -174 -323
-282 -28 -27 -56 -48 -64 -48 -7 0 -13 -6 -13 -12 0 -7 -51 -65 -114 -128
-223 -225 -328 -353 -390 -477 -40 -80 -62 -183 -39 -183 7 0 12 -3 11 -7 -7
-38 62 -100 120 -109 26 -4 55 -8 64 -10 9 -1 35 6 57 17 22 10 44 19 50 19 5
0 11 3 13 8 2 4 16 18 31 32 l28 24 -5 -37 c-3 -21 -1 -50 4 -65 5 -15 11 -38
13 -52 7 -50 39 -106 84 -147 26 -24 50 -43 55 -43 5 0 6 -6 2 -12 -5 -10 -4
-10 6 -1 9 8 20 9 37 2 14 -5 29 -7 34 -4 5 3 21 8 37 9 15 2 49 18 75 36 26
17 51 29 56 26 5 -3 7 3 4 14 -10 36 21 22 75 -36 52 -55 67 -62 146 -68 54
-4 149 45 182 93 13 20 24 30 24 23 0 -7 5 -10 10 -7 6 3 10 -1 10 -9 0 -10
15 -17 48 -22 80 -13 143 -7 183 19 13 9 54 18 91 21 37 3 78 10 91 15 14 6
28 7 31 4 3 -4 6 -1 6 5 0 6 15 14 33 17 17 4 40 14 50 23 9 8 17 11 17 6 0
-5 4 -4 8 1 4 6 32 27 62 47 73 48 190 164 238 234 7 11 20 31 31 46 10 16 20
25 24 22 3 -3 27 -6 53 -6 27 0 52 -2 56 -4 5 -3 70 -5 146 -5 132 0 155 4
307 45 17 5 49 17 72 28 11 6 27 7 34 3 8 -5 10 -4 5 4 -5 7 5 17 26 26 43 20
55 27 175 113 57 39 107 72 112 72 5 0 11 4 13 9 4 11 151 113 248 172 74 45
133 73 146 69 4 -1 10 3 14 10 4 6 17 12 28 13 12 1 22 4 22 8 0 7 73 21 108
20 12 -1 22 4 22 10 0 6 6 9 14 6 25 -10 25 46 0 72 -20 21 -28 23 -86 18 -95
-8 -95 -8 -208 -64 -117 -57 -191 -103 -340 -211 -56 -41 -108 -71 -115 -68
-9 3 -12 0 -8 -10 3 -7 1 -14 -4 -14 -6 0 -21 -10 -34 -21 -23 -20 -177 -114
-188 -114 -4 -1 -15 -6 -27 -12 -16 -9 -24 -9 -33 0 -10 9 -11 8 -6 -4 5 -13
-5 -19 -42 -29 -26 -7 -68 -19 -93 -27 -64 -21 -176 -21 -345 1 -16 3 -57 7
-90 11 -33 4 -64 11 -70 14 -29 21 -387 -4 -437 -30 -10 -5 -26 -9 -36 -9 -10
0 -22 -3 -26 -7 -4 -5 -11 -8 -14 -8 -4 -1 -16 -6 -27 -12 -11 -6 -23 -11 -28
-12 -4 0 -17 -7 -30 -15 -12 -8 -31 -16 -42 -18 -11 -2 -26 -11 -33 -21 -15
-20 -230 -127 -264 -131 -13 -1 -30 -5 -38 -8 -38 -16 -79 -15 -130 0 -30 9
-58 21 -62 27 -5 6 -8 6 -8 0 0 -5 -5 -2 -11 8 -5 9 -7 22 -3 29 4 6 3 8 -4 4
-13 -8 -35 61 -24 78 3 6 8 19 9 30 4 26 60 94 83 101 11 4 20 10 20 15 0 9
71 45 83 42 4 -1 7 3 7 10 0 6 3 8 7 5 3 -4 16 -1 28 7 19 13 86 35 122 40 7
1 16 5 19 9 4 4 17 7 29 7 13 0 39 7 59 15 20 8 36 12 36 9 0 -4 6 -2 13 3 11
9 103 41 137 48 8 2 29 10 45 19 17 9 34 16 38 16 5 0 15 7 24 15 8 8 19 13
24 10 5 -4 9 -1 9 5 0 6 5 8 10 5 6 -3 10 -2 10 3 0 8 28 20 47 20 3 0 9 4 12
9 8 12 109 73 120 73 5 0 11 4 13 8 2 5 24 23 51 41 64 44 126 111 127 138 0
12 -7 28 -15 36 -8 8 -11 17 -8 21 4 3 -1 6 -10 6 -17 0 -32 -10 -98 -68 -21
-19 -43 -31 -49 -27 -5 3 -10 -1 -10 -10 0 -19 -130 -105 -230 -151 -41 -20
-83 -40 -93 -45 -15 -8 -17 -6 -12 13 11 47 6 140 -8 154 -4 4 -7 16 -7 26 0
10 -4 18 -10 18 -5 0 -10 7 -10 15 0 8 -4 16 -10 16 -5 1 -16 2 -22 3 -7 1
-35 -11 -61 -26 -26 -15 -52 -28 -56 -28 -5 0 -14 -7 -21 -15 -7 -8 -16 -13
-20 -10 -5 3 -10 1 -12 -3 -1 -5 -41 -28 -86 -51 -276 -138 -377 -199 -469
-283 -24 -21 -49 -38 -58 -38 -8 0 -15 -5 -15 -12 0 -7 -10 -22 -23 -33 -12
-11 -34 -36 -49 -55 -70 -93 -264 -274 -285 -266 -7 3 -13 -1 -13 -9 0 -8 -16
-18 -37 -23 -60 -15 -82 -12 -94 9 -27 52 27 163 155 318 118 142 544 561 670
658 27 21 65 53 85 71 83 76 308 213 373 226 12 3 37 8 53 11 17 3 44 10 60
15 46 15 118 20 395 29 140 5 289 14 330 21 41 6 95 14 119 16 25 3 65 11 90
19 25 7 102 30 171 50 190 55 250 91 250 149 0 7 -12 18 -27 25 -16 8 -36 18
-47 23 -12 7 -16 6 -11 -1z m-1400 -942 c4 -12 4 -45 0 -74 -6 -54 -27 -80
-72 -89 -10 -1 -25 -6 -33 -9 -8 -4 -26 -8 -40 -11 -14 -2 -41 -11 -60 -19
-19 -8 -48 -16 -65 -18 -16 -2 -36 -7 -42 -12 -7 -5 -13 -7 -13 -3 0 4 -17 -2
-39 -13 -21 -11 -41 -17 -45 -14 -3 4 -6 2 -6 -4 0 -14 -56 -37 -69 -28 -6 3
-9 0 -6 -7 3 -8 -8 -21 -25 -31 -54 -32 -96 -87 -125 -164 -22 -57 -31 -71
-36 -56 -6 15 -8 15 -8 2 -1 -9 6 -33 14 -54 13 -30 14 -40 3 -53 -7 -9 -8
-13 -2 -9 7 4 18 -6 27 -26 9 -18 25 -41 35 -51 19 -17 19 -18 0 -59 -26 -54
-85 -127 -104 -127 -8 0 -14 -4 -14 -9 0 -14 -54 -29 -83 -24 -15 3 -24 9 -21
14 3 5 -1 6 -9 4 -23 -10 -69 89 -69 149 0 44 5 84 12 94 2 1 3 5 4 10 3 19
52 112 58 112 5 0 8 6 8 14 0 16 202 224 264 271 82 63 115 86 123 85 4 0 28
13 53 28 25 16 95 53 155 82 61 30 116 60 123 67 7 7 19 13 26 13 7 0 21 9 31
20 23 26 42 25 50 -1z m573 -542 c6 -5 12 -6 12 -1 0 5 5 2 10 -6 16 -26 0
-51 -84 -133 -88 -86 -179 -152 -226 -162 -17 -4 -30 -11 -30 -16 0 -5 -5 -9
-12 -9 -6 0 0 12 14 28 24 25 38 49 108 177 15 28 30 67 34 87 6 34 10 37 44
40 66 7 117 5 130 -5z m-308 -96 c-23 -45 -46 -81 -51 -81 -5 0 -9 -5 -9 -11
0 -10 -64 -83 -102 -118 -67 -60 -80 -67 -135 -76 -34 -5 -46 -2 -62 14 -20
20 -20 21 -1 66 11 25 28 55 40 67 11 12 20 26 20 31 0 9 39 49 85 86 37 30
172 91 202 91 17 0 35 5 38 11 4 6 9 8 12 5 3 -2 -14 -41 -37 -85z m-425 -119
c-13 -8 -52 -64 -54 -74 -1 -5 -1 -12 -1 -17 0 -15 -116 -132 -123 -124 -4 3
-7 1 -7 -6 0 -7 -4 -9 -10 -6 -5 3 -10 1 -10 -4 0 -6 -11 -11 -24 -11 -27 0
-80 42 -68 54 4 4 1 6 -7 4 -8 -2 -24 14 -36 35 -19 33 -21 44 -12 73 7 24 15
33 26 30 29 -9 180 -6 209 3 1 1 5 1 10 2 4 0 13 5 20 11 6 6 12 7 12 2 0 -5
4 -4 8 1 4 6 18 16 32 22 29 13 51 17 35 5z"/>
<path d="M4727 6109 c-7 -4 -68 -10 -137 -14 -217 -14 -239 -17 -340 -35 -75
-13 -168 -37 -232 -59 -29 -10 -56 -19 -61 -19 -4 -1 -21 -9 -37 -17 -17 -9
-30 -13 -30 -10 0 8 -27 -14 -58 -48 -29 -30 -54 -117 -45 -154 4 -16 1 -23
-10 -23 -11 0 -13 -6 -9 -22 5 -21 6 -21 13 -2 5 13 8 3 8 -31 1 -27 6 -138
11 -245 6 -107 13 -241 15 -298 2 -56 6 -106 9 -110 3 -5 7 -57 10 -116 l6
-107 -22 6 c-13 4 -35 13 -49 20 -35 16 -174 50 -264 64 -38 6 -126 11 -195
12 -141 0 -238 -16 -370 -63 -47 -16 -91 -30 -97 -31 -7 0 -13 -4 -13 -8 0 -7
-49 -24 -62 -21 -5 1 -8 -2 -8 -7 0 -5 -12 -12 -27 -17 -16 -4 -30 -8 -33 -9
-3 -1 -27 -12 -55 -25 -92 -42 -225 -92 -225 -83 0 3 -6 1 -13 -5 -7 -6 -24
-13 -37 -15 -14 -3 -38 -10 -55 -17 -33 -13 -109 -29 -235 -49 -69 -12 -263
-14 -256 -3 3 4 -9 7 -27 6 -17 -1 -39 2 -48 7 -24 12 -76 -8 -82 -32 -11 -41
4 -59 61 -75 35 -10 50 -19 42 -24 -9 -6 -6 -10 9 -15 13 -4 25 -4 28 -1 4 3
0 6 -8 6 -11 0 -12 2 -1 9 8 4 32 5 55 1 82 -14 250 0 377 30 41 10 92 21 114
24 21 4 42 8 46 11 26 16 237 84 248 80 7 -3 10 0 7 5 -3 6 2 13 12 16 10 3
32 12 48 19 17 7 41 17 55 23 14 5 39 15 55 23 17 7 32 13 35 14 3 1 14 5 25
9 39 15 50 19 55 21 6 2 40 15 65 25 46 17 102 33 128 36 16 2 33 7 39 10 12
8 98 17 158 17 79 0 271 -26 294 -40 6 -4 20 -9 31 -10 35 -6 219 -64 240 -77
11 -7 39 -18 62 -24 24 -7 48 -22 54 -33 7 -14 14 -18 21 -11 7 7 19 6 36 -3
82 -39 101 -47 104 -44 2 2 30 -11 63 -28 90 -46 135 -67 148 -69 15 -2 100
-41 237 -107 58 -28 111 -52 118 -53 7 -1 34 -15 60 -30 26 -16 63 -37 82 -46
44 -22 63 -34 123 -79 23 -17 26 -24 16 -36 -10 -11 -10 -14 2 -11 8 2 15 -6
17 -19 7 -50 -113 -141 -237 -179 -162 -50 -286 -36 -471 54 -41 20 -77 36
-80 37 -13 1 -96 40 -101 48 -3 5 -9 8 -13 7 -11 -2 -76 24 -76 30 0 4 -6 7
-13 7 -6 0 -50 18 -97 40 -47 23 -114 51 -150 64 -36 13 -67 25 -70 28 -12 14
-46 4 -63 -17 -13 -16 -17 -31 -12 -52 4 -16 10 -29 13 -28 4 1 30 -8 57 -21
28 -13 56 -25 63 -27 7 -1 43 -17 80 -35 37 -17 73 -33 81 -35 8 -1 42 -16 76
-33 34 -17 68 -31 74 -31 6 0 11 -4 11 -8 0 -5 6 -9 13 -9 20 -1 208 -94 203
-101 -2 -4 9 -7 25 -8 16 -1 57 -15 92 -31 130 -63 157 -74 268 -108 129 -41
143 -44 219 -51 30 -3 66 -7 80 -10 65 -15 361 6 420 29 8 3 29 8 47 11 17 2
36 7 41 9 6 5 120 37 177 51 6 2 24 9 40 15 17 7 66 25 110 39 44 14 82 29 85
32 6 7 142 60 153 60 5 0 34 12 65 26 31 15 62 27 67 28 6 1 15 4 20 7 13 8
87 33 100 35 6 0 17 4 25 7 8 4 26 9 40 11 14 3 25 5 25 7 0 11 259 23 285 12
8 -3 26 -7 40 -9 14 -2 26 -8 28 -14 2 -5 7 -8 12 -5 4 3 13 -2 20 -10 10 -12
1 -27 -56 -85 -37 -39 -74 -68 -81 -66 -7 3 -12 0 -10 -6 2 -13 -214 -178
-225 -172 -5 3 -8 1 -8 -4 0 -5 -17 -17 -37 -28 -21 -10 -40 -22 -43 -25 -10
-12 -186 -109 -198 -109 -7 0 -12 -4 -12 -8 0 -4 -15 -15 -32 -24 -18 -8 -61
-29 -96 -47 -34 -17 -65 -31 -68 -30 -4 0 -10 -4 -13 -9 -7 -11 -180 -94 -198
-95 -7 0 -13 -4 -13 -8 0 -8 -91 -45 -102 -41 -5 1 -8 -2 -8 -7 0 -9 -110 -57
-122 -53 -5 1 -8 -2 -8 -6 0 -7 -93 -46 -112 -47 -3 0 -10 -3 -14 -7 -4 -5
-14 -8 -22 -8 -8 0 -28 -6 -45 -14 -61 -27 -193 -75 -247 -90 -55 -15 -78 -21
-135 -31 -16 -4 -61 -14 -100 -22 -74 -18 -323 -23 -420 -10 -27 4 -57 8 -65
8 -33 3 -251 49 -262 55 -7 4 -21 9 -33 10 -11 1 -33 8 -50 15 -16 7 -33 13
-37 14 -5 2 -9 3 -10 5 -2 1 -11 3 -20 5 -28 5 -157 55 -228 88 -36 17 -68 30
-72 29 -5 -1 -8 2 -8 6 0 5 -6 9 -13 9 -7 0 -70 27 -140 61 -70 34 -132 62
-137 62 -6 0 -10 4 -10 8 0 5 -6 9 -12 9 -7 0 -44 15 -83 33 -38 19 -72 34
-75 34 -30 6 -209 80 -205 85 2 4 -6 7 -18 6 -12 -1 -49 7 -82 17 -33 10 -72
21 -87 23 -15 2 -46 9 -70 16 -24 7 -55 11 -70 10 -16 -1 -28 2 -28 7 0 5 -17
10 -37 12 -71 7 -748 3 -778 -4 -53 -13 -75 -28 -75 -52 0 -50 3 -51 357 -48
183 2 366 -1 413 -7 47 -6 94 -11 105 -11 11 -1 25 -5 32 -10 6 -5 23 -6 37
-2 15 3 26 2 26 -4 0 -6 23 -13 52 -17 29 -4 75 -15 102 -25 28 -9 53 -17 56
-17 26 1 254 -88 291 -114 14 -10 29 -16 33 -12 3 3 6 2 6 -4 0 -5 6 -10 13
-10 24 0 168 -73 163 -82 -3 -5 2 -7 13 -4 11 3 53 -13 98 -36 44 -23 84 -41
90 -41 6 0 13 -4 15 -8 2 -4 44 -23 93 -42 50 -18 110 -42 135 -53 25 -11 48
-21 53 -22 4 -2 9 -4 12 -5 3 -1 10 -4 15 -5 6 -1 11 -3 13 -5 1 -1 9 -3 17
-5 34 -8 186 -48 200 -53 8 -3 26 -7 40 -9 14 -1 41 -6 60 -10 168 -31 443
-40 580 -19 14 2 57 11 95 20 39 10 84 19 100 21 17 2 50 11 73 19 23 8 46 15
50 16 19 1 121 34 160 51 23 11 86 37 140 58 131 53 238 99 355 156 54 26 105
44 113 41 8 -3 13 -2 10 3 -3 5 1 14 9 21 8 7 15 10 15 6 0 -4 35 12 78 36 42
23 91 48 107 56 17 9 42 23 56 33 14 10 29 16 33 12 3 -3 6 -1 6 6 0 7 5 9 10
6 6 -3 10 -2 10 4 0 5 9 13 20 16 12 4 84 45 160 91 77 46 142 84 145 84 3 0
13 7 23 16 9 9 53 42 97 75 94 69 206 177 242 233 31 48 34 107 7 138 -11 12
-13 18 -5 13 9 -5 12 -4 8 2 -4 6 -20 16 -37 23 -32 13 -38 25 -17 33 9 4 9 6
0 6 -6 1 -14 -3 -17 -8 -3 -5 -34 0 -68 11 -81 25 -318 28 -356 4 -7 -4 -16
-5 -19 -2 -3 3 -18 -1 -34 -9 -16 -9 -32 -14 -36 -14 -4 1 -15 0 -23 -4 -54
-20 -157 -57 -169 -59 -7 -2 -34 -13 -60 -24 -33 -16 -50 -19 -59 -12 -9 8
-11 6 -6 -8 4 -10 4 -16 -1 -12 -4 4 -13 3 -20 -2 -6 -5 -21 -11 -33 -13 -12
-2 -25 -6 -28 -10 -4 -4 -14 -7 -21 -7 -8 0 -33 -9 -56 -21 -41 -20 -138 -59
-147 -59 -2 0 16 20 40 45 24 24 46 42 50 40 3 -2 6 4 7 14 1 10 13 35 27 56
14 21 26 44 26 51 0 7 8 20 18 30 9 10 15 18 13 18 -3 1 8 41 23 89 21 64 32
87 42 83 8 -3 14 -2 14 3 0 5 12 11 28 14 51 10 61 13 68 20 4 4 14 1 22 -6
11 -8 14 -8 9 0 -9 14 0 20 43 28 19 3 39 10 45 14 5 5 28 14 50 21 145 47
366 182 441 270 65 76 124 187 151 285 18 65 28 285 15 355 -14 76 -41 145
-83 210 -31 48 -104 130 -115 130 -2 0 -22 13 -45 29 -22 17 -70 39 -107 51
-37 12 -74 24 -82 27 -14 4 -209 5 -253 0 -16 -2 -19 7 -22 65 -2 36 -10 79
-19 95 -8 15 -18 35 -22 44 -3 9 -21 25 -40 35 -19 10 -34 22 -34 27 0 4 -4 6
-8 3 -5 -3 -19 1 -33 7 -50 26 -143 50 -234 61 -91 10 -145 20 -145 25 0 6
-22 8 -150 12 -30 0 -59 4 -65 7 -5 4 -26 7 -45 8 -19 1 -75 4 -125 8 -135 8
-465 12 -478 5z m427 -113 c149 -6 309 -20 365 -32 20 -4 22 -7 10 -16 -11 -8
-10 -9 4 -4 50 16 67 18 67 6 0 -8 9 -11 28 -7 15 3 56 -1 92 -9 36 -8 74 -16
85 -18 41 -7 90 -19 100 -24 6 -4 15 -7 20 -8 6 -1 24 -7 40 -14 l30 -12 -25
-11 c-14 -5 -27 -11 -30 -12 -3 -1 -17 -7 -31 -13 -23 -9 -89 -25 -111 -27 -3
0 -10 -3 -14 -7 -4 -5 -23 -8 -41 -8 -19 0 -42 -4 -52 -9 -19 -11 -202 -35
-346 -47 -112 -9 -657 -10 -745 -2 -36 4 -96 10 -135 14 -38 3 -71 10 -73 14
-2 5 -17 6 -33 3 -17 -2 -37 1 -44 7 -8 6 -23 9 -34 5 -10 -3 -22 -2 -25 4 -3
5 -15 7 -26 4 -11 -3 -20 -1 -20 5 0 5 -10 10 -22 10 -32 0 -146 31 -180 48
-15 8 -37 14 -50 14 -65 0 82 56 212 81 75 14 73 14 87 22 6 4 24 7 40 6 15
-1 53 4 83 10 31 6 67 11 80 11 14 -1 63 4 110 9 47 6 157 10 244 10 87 1 161
3 164 6 3 2 8 3 11 1 3 -2 78 -7 165 -10z m-1151 -277 c18 -8 26 -18 22 -28
-4 -13 -2 -12 8 1 8 10 16 16 18 14 2 -2 20 -7 39 -11 19 -3 53 -10 75 -14
104 -21 228 -41 305 -51 47 -6 105 -13 130 -16 121 -16 718 -7 865 12 22 3 56
7 75 9 19 2 67 10 105 18 39 8 77 15 85 16 34 2 56 7 68 15 7 4 16 5 19 2 3
-3 11 -1 18 4 7 5 25 12 41 14 16 2 37 7 46 10 9 4 23 9 32 10 8 1 18 5 22 8
3 4 12 4 20 1 8 -3 14 0 14 6 0 6 3 11 8 11 4 0 4 -37 -1 -82 -4 -46 -10 -130
-13 -188 -3 -57 -10 -108 -16 -111 -6 -4 -8 -11 -5 -16 3 -4 -1 -60 -9 -123
-8 -63 -15 -126 -16 -140 -1 -14 -4 -29 -7 -35 -5 -10 -6 -18 -9 -93 -1 -24
-5 -41 -9 -39 -5 3 -9 -32 -11 -76 -2 -45 -7 -86 -13 -93 -5 -6 -7 -13 -4 -16
5 -4 -38 -263 -65 -391 -13 -66 -47 -173 -64 -205 -8 -15 -22 -46 -31 -69 -10
-24 -22 -43 -27 -43 -4 0 -8 -5 -8 -11 0 -23 -73 -100 -132 -140 -106 -73
-220 -116 -363 -138 -119 -19 -445 1 -445 27 0 4 35 18 78 30 42 13 102 40
132 60 69 45 150 127 150 152 0 10 4 21 8 24 5 3 5 32 1 64 -7 49 -15 68 -46
102 -21 23 -55 53 -76 67 -21 13 -36 27 -33 31 2 4 -7 8 -20 8 -13 1 -46 16
-74 33 -27 17 -50 27 -50 23 0 -4 -4 -1 -8 6 -5 7 -18 14 -29 16 -28 6 -86 36
-95 50 -4 6 -8 7 -8 3 0 -5 -12 -2 -27 6 -16 8 -84 40 -153 70 -69 30 -196 87
-283 127 -88 39 -183 80 -212 91 -29 11 -57 25 -63 32 -8 11 -15 73 -29 282
-2 33 -8 119 -12 190 -5 72 -12 219 -15 327 l-6 197 37 -13 c21 -8 51 -20 66
-27z m2300 -105 c4 -4 29 -8 57 -9 27 -2 57 -8 65 -15 8 -7 15 -10 15 -6 0 20
106 -52 161 -109 76 -78 114 -142 97 -162 -8 -10 -7 -12 5 -8 15 6 20 -9 32
-108 3 -28 1 -36 -8 -30 -9 5 -9 3 -1 -8 6 -8 12 -30 12 -49 1 -25 -2 -30 -9
-20 -7 10 -7 6 -2 -15 8 -34 8 -49 -1 -85 -3 -14 -8 -37 -11 -53 -7 -37 -35
-108 -50 -127 -7 -8 -19 -28 -28 -45 -14 -27 -106 -127 -153 -165 -61 -50
-217 -134 -228 -123 -3 4 -6 1 -6 -6 0 -9 -10 -12 -29 -9 -17 2 -29 0 -28 -6
2 -8 -62 -35 -131 -56 -4 -1 -17 -6 -30 -11 -13 -5 -37 -11 -54 -14 -26 -5
-29 -3 -23 12 4 10 10 29 13 43 6 29 23 55 37 56 13 0 65 14 85 21 8 4 17 7
20 8 3 1 23 10 45 20 22 10 46 18 53 18 6 0 12 4 12 9 0 4 6 8 14 8 13 0 75
29 86 40 3 3 32 23 64 45 113 76 213 199 242 300 22 74 29 228 12 251 -4 6 -9
19 -11 30 -6 29 -18 56 -41 88 -27 38 -74 86 -85 86 -5 0 -12 7 -15 16 -3 8
-10 12 -16 9 -5 -3 -10 -1 -10 4 0 6 -3 10 -7 9 -14 -3 -73 13 -73 20 0 9
-176 6 -190 -3 -6 -4 -14 -4 -17 -1 -3 3 -12 1 -20 -5 -7 -6 -13 -8 -13 -3 0
5 -4 2 -10 -6 -17 -27 -22 -2 -15 69 8 76 9 77 95 88 19 2 36 6 39 8 7 7 47 6
54 -1z m85 -261 c20 -9 40 -22 44 -27 4 -6 8 -7 8 -2 0 19 51 -39 69 -79 36
-78 43 -114 36 -178 -8 -68 -41 -167 -56 -167 -5 0 -9 -6 -9 -13 0 -14 -81
-107 -92 -107 -4 0 -24 -15 -44 -34 -21 -19 -42 -33 -46 -30 -4 3 -8 0 -8 -5
0 -6 -6 -11 -14 -11 -7 0 -19 -7 -26 -15 -7 -8 -16 -12 -21 -9 -5 3 -9 1 -9
-4 0 -11 -22 -21 -58 -28 -12 -2 -39 -13 -60 -24 -20 -11 -46 -21 -57 -22 -11
-2 -26 -7 -33 -12 -20 -12 -23 -3 -12 34 5 18 8 36 5 40 -2 3 3 44 11 91 9 46
17 98 19 114 2 17 5 41 8 55 18 104 27 168 32 241 2 25 8 72 14 104 6 32 11
59 11 60 0 1 17 10 38 19 85 38 181 41 250 9z"/>
</g>
</svg>
