<?xml version="1.0" standalone="no"?>
<!DOCTYPE svg PUBLIC "-//W3C//DTD SVG 20010904//EN"
 "http://www.w3.org/TR/2001/REC-SVG-20010904/DTD/svg10.dtd">
<svg version="1.0" xmlns="http://www.w3.org/2000/svg"
 width="1024.000000pt" height="1024.000000pt" viewBox="0 0 1024.000000 1024.000000"
 preserveAspectRatio="xMidYMid meet">
<metadata>
Created by potrace 1.16, written by Peter Selinger 2001-2019
</metadata>
<g transform="translate(0.000000,1024.000000) scale(0.100000,-0.100000)"
fill="#000000" stroke="none">
<path d="M7420 8716 c-41 -25 -78 -42 -82 -40 -4 3 -8 1 -8 -5 0 -10 -38 -27
-52 -23 -5 1 -8 -2 -8 -7 0 -11 -170 -73 -208 -76 -16 -1 -34 -5 -40 -9 -38
-23 -227 -39 -517 -43 -583 -8 -780 -41 -1037 -175 -42 -22 -80 -39 -83 -39
-3 1 -13 -6 -22 -14 -10 -9 -74 -56 -143 -105 -69 -49 -146 -108 -172 -130
-26 -22 -52 -40 -57 -40 -6 0 -11 -4 -11 -9 0 -10 -166 -151 -178 -151 -4 0
-13 -9 -20 -20 -7 -11 -17 -20 -23 -20 -6 0 -20 -11 -31 -25 -11 -14 -23 -23
-28 -20 -4 3 -13 -2 -20 -10 -7 -8 -16 -12 -21 -9 -5 3 -6 -1 -3 -9 3 -9 -14
-30 -48 -56 -29 -22 -69 -56 -88 -75 -78 -74 -268 -245 -271 -243 -2 1 -31
-26 -65 -60 -33 -35 -59 -63 -56 -63 2 0 -12 -18 -31 -40 -65 -71 -82 -114
-82 -210 0 -75 3 -90 26 -125 23 -35 109 -121 109 -109 0 2 16 -3 36 -11 42
-17 151 -24 209 -12 l40 8 3 -40 c1 -25 -3 -45 -13 -54 -8 -9 -15 -19 -15 -23
0 -5 5 -3 12 4 7 7 15 12 19 12 9 0 23 -50 20 -70 -2 -8 0 -12 3 -9 3 3 30
-17 59 -45 29 -28 54 -51 57 -52 27 -6 50 -17 50 -25 0 -5 6 -8 13 -6 6 1 11
-3 10 -10 -2 -8 6 -9 30 -2 56 16 145 11 157 -8 9 -15 10 -14 4 6 -4 15 -2 21
4 17 5 -3 26 1 46 9 20 8 38 15 41 15 3 0 28 11 55 25 28 14 55 23 60 20 5 -3
12 0 17 8 10 15 94 77 105 77 4 0 8 -7 8 -15 0 -8 13 -27 30 -41 16 -15 27
-31 24 -36 -3 -5 -2 -8 3 -6 4 1 26 -9 48 -23 22 -13 43 -24 47 -24 3 0 9 -3
13 -7 4 -4 14 -4 23 -1 14 5 15 3 5 -8 -7 -7 -13 -18 -13 -23 0 -6 4 -5 9 3 8
12 12 13 25 1 14 -11 16 -11 11 2 -5 13 8 16 73 20 61 3 94 12 146 36 78 36
208 116 227 138 8 10 15 11 24 4 9 -8 12 -7 11 3 0 8 41 49 92 91 50 42 92 74
92 70 0 -4 10 5 21 20 12 15 23 25 25 23 4 -4 40 28 137 120 43 42 97 65 97
42 0 -5 -10 -10 -22 -10 -18 -1 -19 -2 -5 -6 10 -3 24 0 31 6 12 10 86 -5 86
-19 0 -3 8 -6 19 -7 10 -1 36 -9 57 -19 21 -9 50 -18 63 -20 13 -2 27 -7 30
-11 3 -4 11 -8 16 -8 10 0 139 -33 165 -42 23 -9 53 -14 79 -13 16 0 21 -4 17
-15 -3 -8 -1 -15 4 -15 6 0 10 5 10 11 0 7 10 9 28 5 55 -14 341 -23 372 -13
36 12 139 14 150 3 9 -8 11 -8 8 2 -2 9 25 22 82 39 47 14 91 26 98 26 6 0 12
4 12 8 0 7 49 24 63 21 4 -1 7 2 7 6 0 17 47 31 59 19 9 -9 11 -8 6 4 -4 10 5
20 27 31 18 8 36 15 40 14 4 0 14 8 22 19 9 11 16 16 16 10 0 -6 3 -6 8 1 14
20 79 64 85 57 4 -3 7 -2 7 4 0 16 189 145 205 139 9 -3 12 0 9 9 -7 16 192
149 322 215 104 53 134 81 134 129 0 25 -9 42 -35 68 -47 47 -69 43 -222 -38
-65 -35 -119 -62 -121 -61 -1 2 -10 -4 -19 -13 -8 -9 -55 -42 -104 -75 -48
-32 -139 -96 -201 -141 -163 -119 -304 -202 -405 -239 -99 -36 -219 -64 -245
-57 -10 3 -21 1 -24 -4 -8 -13 -181 -11 -189 2 -4 6 -19 7 -36 4 -16 -4 -34
-3 -41 1 -7 5 -27 7 -45 5 -18 -1 -33 2 -33 7 0 5 -11 7 -25 4 -14 -2 -25 0
-25 4 0 5 -17 10 -38 12 -20 1 -39 7 -40 12 -2 6 -8 8 -13 4 -5 -3 -15 -2 -21
2 -7 5 -19 9 -28 9 -33 3 -160 38 -160 44 0 4 -11 8 -26 9 -14 1 -35 7 -47 14
-12 7 -26 13 -32 14 -5 1 -55 14 -110 28 -199 50 -442 58 -639 22 -72 -14 -91
-14 -98 -4 -6 10 -8 8 -8 -4 0 -17 -18 -22 -82 -21 -10 0 -18 -3 -18 -7 0 -3
-12 -5 -27 -4 -16 1 -38 2 -50 3 -12 0 -28 8 -37 16 -8 8 -20 15 -26 15 -17 0
-27 40 -25 99 2 49 6 57 45 95 64 61 123 98 132 83 5 -9 8 -7 8 4 0 15 74 56
115 64 11 2 22 4 25 5 3 1 8 2 13 1 4 0 7 4 7 10 0 6 9 9 20 6 11 -3 23 -1 26
5 3 5 15 8 25 5 11 -3 19 -1 19 5 0 6 11 8 24 4 14 -3 27 -2 31 3 10 17 354
19 450 2 33 -6 80 -13 104 -16 23 -3 50 -9 60 -14 9 -4 34 -7 55 -6 76 4 113
96 64 161 -14 18 -34 30 -52 32 -17 2 -41 8 -55 14 -14 5 -48 11 -75 14 -28 2
-59 7 -70 11 -25 8 -46 9 -271 11 -114 2 -196 -3 -249 -12 -44 -8 -83 -13 -88
-10 -4 3 -8 1 -8 -3 0 -5 -30 -17 -67 -27 -38 -10 -101 -33 -140 -51 -40 -19
-73 -32 -73 -29 0 3 -6 0 -12 -6 -25 -21 -179 -120 -188 -120 -4 0 -10 -4 -12
-9 -4 -12 -198 -163 -198 -154 0 4 -6 0 -12 -9 -20 -24 -195 -158 -207 -158
-6 0 -11 -4 -11 -10 0 -11 -133 -118 -136 -110 -1 3 -11 -6 -23 -20 -11 -14
-20 -22 -21 -18 0 4 -11 -3 -25 -16 -25 -23 -145 -90 -145 -81 0 3 -11 -2 -25
-11 -38 -25 -133 -29 -174 -7 -65 34 -59 88 20 176 28 31 55 55 60 51 5 -3 9
2 9 10 0 9 3 15 8 14 4 -1 54 44 111 100 58 56 106 100 108 98 2 -2 29 22 59
53 31 31 52 49 48 41 -5 -8 10 3 32 25 72 73 166 150 177 147 7 -2 9 -1 5 3
-7 8 125 125 141 125 6 0 11 4 11 8 0 12 230 197 241 194 5 -1 9 2 9 7 0 8 77
63 82 59 2 -1 16 10 32 25 16 15 32 24 37 21 5 -3 9 -1 9 3 0 14 59 45 72 37
6 -4 8 -3 5 4 -4 6 15 21 45 36 39 20 54 23 60 13 5 -8 8 -7 8 6 0 10 5 15 10
12 6 -3 10 -1 10 4 0 6 10 11 23 11 13 0 27 3 31 7 3 4 16 8 28 10 12 2 25 7
28 12 3 4 19 11 35 15 17 4 39 10 49 13 14 4 17 1 14 -9 -4 -9 1 -14 13 -14
11 0 19 4 19 8 0 4 -5 8 -11 8 -5 0 -7 5 -3 11 3 6 15 9 25 6 10 -3 21 -1 24
4 4 5 16 9 28 9 12 1 45 3 72 6 28 3 113 7 190 9 77 3 239 7 360 10 277 8 277
8 415 34 63 12 124 24 135 26 11 1 57 17 103 33 45 17 82 28 82 24 0 -4 4 -2
8 4 10 15 119 64 126 56 3 -3 6 0 6 7 0 7 5 9 10 6 6 -3 10 -2 10 2 0 5 12 16
28 25 15 9 44 33 65 53 47 46 51 92 9 139 -41 47 -73 45 -162 -8z m-2243
-1518 c-2 -11 5 -39 15 -60 10 -21 16 -44 12 -51 -4 -7 -4 -9 1 -5 4 4 30 -13
57 -37 28 -25 54 -45 59 -45 25 0 -1 -28 -103 -109 -61 -50 -115 -88 -120 -85
-4 3 -8 1 -8 -4 0 -16 -104 -89 -122 -86 -9 1 -15 -3 -12 -9 4 -13 -76 -60
-102 -60 -7 0 -14 -5 -14 -10 0 -5 -7 -7 -15 -3 -8 3 -15 1 -15 -5 0 -7 -10
-9 -25 -5 -14 4 -25 2 -25 -4 0 -5 -7 -10 -16 -10 -8 0 -12 5 -9 10 4 7 -2 9
-17 5 -26 -7 -83 29 -73 46 4 5 2 9 -2 9 -5 0 -9 16 -9 35 0 19 4 35 9 35 4 0
5 5 2 10 -8 13 139 160 160 160 8 0 15 4 15 10 0 5 35 37 78 71 42 34 100 81
128 105 28 24 56 44 63 44 6 0 11 4 11 10 0 7 67 60 77 60 2 0 1 -10 0 -22z
m828 -208 c-16 -14 -41 -38 -54 -53 -13 -15 -26 -26 -29 -23 -2 3 -13 -6 -24
-19 -11 -14 -26 -25 -34 -25 -8 0 -14 -4 -14 -9 0 -12 -187 -151 -194 -144 -3
4 -6 1 -6 -5 0 -7 -7 -12 -15 -12 -8 0 -15 -4 -15 -8 0 -12 -76 -53 -84 -45
-3 3 -6 2 -6 -4 0 -5 -6 -10 -12 -11 -7 -1 -29 -5 -49 -8 -26 -4 -45 -1 -63
11 -14 10 -26 14 -26 10 0 -4 -7 -2 -16 6 -10 8 -13 21 -9 38 4 20 3 22 -5 11
-8 -12 -10 -8 -8 17 1 18 4 31 5 29 2 -2 18 11 36 28 58 55 152 133 159 132 4
-1 15 9 23 22 9 12 21 20 26 17 5 -4 9 -1 9 5 0 6 4 9 9 6 5 -4 11 -2 13 2 1
5 16 12 31 16 22 5 27 4 21 -6 -4 -7 2 -4 14 6 12 11 25 16 29 13 3 -4 11 -3
18 3 6 5 40 12 74 14 35 3 65 6 67 8 1 2 38 3 81 3 l79 0 -31 -25z"/>
<path d="M4555 6340 c-440 -10 -658 -62 -807 -190 -39 -33 -109 -133 -114
-162 -1 -5 -2 -9 -3 -10 -2 -2 -5 -32 -7 -68 -3 -36 -9 -76 -13 -90 -5 -14 -6
-40 -4 -57 3 -18 2 -41 -3 -50 -4 -10 -9 -43 -10 -73 -1 -30 -4 -84 -7 -120
-3 -36 -6 -83 -6 -105 0 -22 -5 -74 -11 -115 -5 -41 -12 -106 -14 -145 -15
-243 -15 -239 -29 -262 -5 -8 -4 -13 2 -13 15 0 14 -55 -2 -118 -10 -36 -11
-53 -3 -56 6 -2 1 -5 -11 -5 -12 -1 -24 3 -27 8 -3 5 -15 7 -26 4 -11 -3 -20
-1 -20 4 0 11 4 11 -210 16 -85 2 -163 0 -172 -4 -9 -5 -34 -11 -55 -13 -21
-2 -45 -7 -54 -10 -9 -4 -27 -8 -40 -10 -13 -2 -31 -6 -39 -9 -33 -13 -151
-56 -155 -57 -3 0 -62 -28 -132 -61 -213 -101 -328 -147 -436 -176 -136 -35
-338 -37 -494 -4 -55 11 -114 21 -130 21 -34 0 -73 -36 -73 -68 0 -11 -4 -23
-9 -27 -18 -11 24 -65 65 -84 22 -11 70 -25 105 -32 35 -8 66 -16 69 -19 6 -6
25 -7 205 -9 152 -1 205 5 335 39 47 12 90 23 95 24 11 3 31 11 152 67 61 28
84 34 93 25 8 -8 10 -7 5 4 -4 11 9 22 42 37 27 12 55 24 63 25 8 2 18 7 21
11 3 5 12 10 20 11 8 2 28 9 44 16 17 7 32 14 35 15 3 1 22 9 42 18 21 10 41
16 45 15 5 0 22 5 38 12 17 7 42 13 57 14 16 0 28 4 28 7 0 3 6 6 13 7 6 0 32
3 57 7 76 11 253 13 300 3 25 -4 54 -10 65 -12 71 -12 95 -19 95 -27 0 -5 7
-6 15 -3 8 4 15 2 15 -3 0 -5 12 -10 27 -11 15 -1 29 -5 32 -10 3 -4 15 -9 26
-10 38 -7 216 -105 211 -118 -3 -7 2 -10 12 -7 17 4 274 -149 280 -168 2 -5 8
-9 12 -9 12 0 243 -142 252 -155 4 -5 8 -6 8 -2 0 8 67 -28 80 -42 3 -4 38
-22 78 -40 58 -28 71 -38 66 -53 -6 -19 20 -26 31 -8 4 6 12 4 21 -5 9 -8 22
-15 29 -15 8 0 23 -10 35 -22 11 -12 20 -18 20 -13 0 5 16 -6 35 -25 19 -18
32 -37 29 -42 -3 -4 0 -8 6 -8 6 0 8 -5 5 -10 -3 -6 -1 -10 4 -10 19 0 12 -66
-12 -101 -24 -36 -84 -82 -97 -74 -5 3 -10 0 -12 -5 -2 -6 -15 -12 -29 -14
-13 -1 -30 -6 -37 -10 -27 -16 -302 7 -302 26 0 5 -4 7 -10 3 -9 -5 -170 51
-180 64 -3 3 -12 7 -20 9 -8 2 -17 8 -18 13 -2 5 -8 7 -13 3 -5 -3 -9 -1 -9 4
0 5 -6 9 -13 9 -19 0 -247 114 -247 124 0 5 -3 8 -7 7 -5 0 -47 18 -96 40 -95
46 -133 51 -166 25 -31 -26 -45 -93 -26 -130 8 -15 15 -24 15 -20 0 5 12 0 28
-11 15 -10 55 -34 89 -53 37 -20 62 -39 60 -48 -1 -8 4 -15 11 -17 7 -1 8 0 2
3 -5 2 -8 9 -5 13 7 11 55 -9 55 -22 0 -4 6 -8 14 -8 7 0 37 -13 67 -28 223
-118 634 -326 706 -358 30 -13 41 -24 37 -34 -4 -11 -2 -12 6 -4 9 9 31 6 88
-13 43 -13 87 -29 99 -35 12 -6 29 -8 37 -5 8 3 18 3 20 -2 10 -15 268 -3 356
17 145 34 184 44 202 53 22 11 199 77 218 81 8 2 17 5 20 8 10 11 120 49 120
42 0 -4 4 -2 8 5 4 6 16 13 27 15 11 1 22 6 25 9 9 12 148 67 154 62 3 -4 6
-1 6 6 0 7 4 10 9 7 5 -4 11 -2 13 2 4 11 145 79 173 84 11 1 26 9 33 16 12
10 27 14 48 11 4 0 10 4 13 10 9 13 121 42 134 34 6 -3 7 -1 3 5 -5 9 15 12
73 12 50 0 81 -4 81 -11 0 -5 5 -7 11 -3 11 6 88 -24 90 -35 0 -3 2 -15 4 -26
5 -23 -54 -102 -107 -145 -21 -17 -40 -29 -43 -28 -2 2 -12 -7 -20 -20 -9 -12
-21 -20 -26 -17 -5 4 -9 2 -9 -2 0 -5 -20 -23 -44 -40 -33 -24 -47 -28 -56
-20 -8 9 -10 8 -5 -4 4 -12 -11 -27 -61 -58 -36 -23 -72 -43 -78 -44 -6 -1
-13 -5 -16 -9 -9 -12 -205 -121 -217 -121 -7 0 -13 -5 -13 -10 0 -6 -3 -8 -6
-4 -3 3 -15 -3 -26 -13 -11 -10 -31 -21 -45 -25 -14 -3 -32 -13 -40 -21 -8 -8
-18 -12 -23 -9 -5 3 -10 1 -12 -4 -1 -5 -10 -11 -18 -13 -8 -2 -21 -9 -28 -16
-8 -7 -17 -10 -22 -7 -5 3 -10 1 -12 -4 -4 -11 -208 -114 -225 -114 -7 0 -13
-4 -13 -9 0 -5 -4 -6 -10 -3 -5 3 -10 2 -10 -3 0 -9 -86 -46 -93 -40 -2 2 -11
-5 -21 -15 -10 -9 -22 -15 -27 -12 -5 4 -9 2 -9 -2 0 -5 -12 -14 -27 -20 -16
-6 -71 -30 -123 -53 -213 -95 -467 -176 -605 -194 -22 -3 -74 -10 -115 -17
-69 -10 -205 -8 -290 5 -19 3 -55 8 -80 11 -72 9 -95 13 -100 15 -3 1 -9 3
-15 5 -5 1 -12 3 -15 4 -3 1 -21 4 -40 6 -19 1 -36 8 -38 14 -2 6 -7 9 -12 6
-9 -5 -99 23 -117 38 -7 5 -13 7 -13 3 0 -8 -114 35 -121 46 -3 5 -10 9 -15 8
-5 0 -28 7 -52 16 -33 12 -42 20 -37 33 5 12 4 13 -6 4 -9 -9 -21 -7 -53 9
-23 11 -44 26 -48 32 -4 6 -8 7 -8 3 0 -11 -85 36 -356 199 -122 73 -261 153
-310 178 -49 26 -94 50 -99 54 -6 4 -15 8 -20 9 -11 2 -192 61 -215 70 -26 10
-44 14 -95 19 -27 3 -54 8 -60 13 -5 4 -109 8 -230 10 -121 1 -293 6 -382 12
-178 12 -192 9 -218 -41 -21 -41 -19 -64 10 -98 32 -39 108 -50 370 -56 263
-6 449 -22 505 -43 8 -4 19 -5 23 -4 10 2 120 -31 127 -39 3 -3 16 -6 30 -8
13 -1 27 -6 30 -10 3 -4 14 -9 25 -10 11 -2 23 -9 27 -15 4 -7 8 -8 8 -4 0 11
233 -110 259 -134 12 -11 21 -17 21 -14 0 6 82 -46 91 -58 3 -5 9 -7 12 -5 4
1 15 -5 27 -14 11 -10 20 -14 20 -10 0 4 4 2 8 -4 4 -7 48 -33 97 -59 50 -26
96 -54 103 -63 6 -9 12 -12 12 -8 0 4 22 -5 50 -21 27 -15 50 -32 50 -36 0 -5
4 -6 9 -2 5 3 16 -1 24 -9 8 -8 17 -12 21 -9 3 4 6 0 6 -7 0 -7 3 -10 6 -7 4
4 23 -2 43 -12 20 -10 56 -27 81 -37 25 -10 48 -23 52 -29 4 -5 8 -7 8 -3 0 4
37 -7 83 -24 45 -16 111 -39 147 -49 36 -11 75 -25 87 -31 12 -6 36 -11 53
-10 16 0 30 -3 30 -8 0 -4 9 -6 20 -3 11 3 26 0 33 -6 8 -6 16 -9 19 -6 3 3
34 1 69 -5 132 -20 404 -10 549 20 25 5 56 12 70 15 45 8 169 45 222 65 28 10
55 17 60 14 4 -3 8 -1 8 4 0 5 19 14 42 21 56 17 227 90 366 157 63 30 117 52
122 49 5 -3 10 -1 12 4 1 5 35 25 74 44 55 28 74 33 83 24 9 -9 11 -8 6 4 -4
11 8 22 47 40 28 13 56 23 60 22 4 -2 8 2 8 8 0 5 5 7 10 4 6 -3 10 -1 10 5 0
6 5 8 10 5 6 -3 10 -1 10 5 0 6 5 8 10 5 6 -3 10 -2 10 3 0 4 42 30 93 57 50
27 134 72 185 101 50 29 92 49 92 46 0 -4 4 -2 8 3 4 6 57 42 117 80 61 38
138 91 173 118 34 26 62 45 62 43 0 -3 40 32 88 79 110 105 147 171 146 260
-1 74 -18 108 -81 164 -65 57 -70 61 -77 54 -3 -4 -6 -2 -6 4 0 5 -6 10 -12
10 -7 1 -47 9 -88 18 -144 33 -292 8 -502 -84 -27 -11 -48 -17 -48 -13 0 4 -4
2 -8 -5 -4 -6 -61 -35 -127 -62 -66 -28 -128 -56 -137 -61 -26 -15 -22 5 5 24
12 9 16 14 10 11 -14 -7 36 96 52 107 5 4 7 8 3 8 -6 0 19 84 39 130 3 8 7 20
7 25 11 76 31 135 45 135 13 0 13 2 3 9 -8 4 -12 19 -10 32 3 22 7 24 73 26
39 1 86 5 105 8 19 4 35 5 36 3 0 -1 8 3 16 9 8 7 31 14 50 15 20 2 34 6 32 9
-2 4 10 9 26 13 50 9 191 82 255 131 75 56 167 147 208 203 17 23 34 42 39 42
4 0 7 3 6 8 -1 4 14 36 34 72 20 36 40 77 43 93 4 15 11 27 17 27 5 0 7 4 3 9
-3 5 -1 12 5 16 6 4 8 10 5 15 -3 5 0 21 6 37 18 44 20 61 22 183 1 73 -4 135
-13 170 -8 30 -14 57 -15 60 -4 33 -65 120 -126 181 -118 118 -248 173 -441
186 -92 6 -107 10 -92 26 11 11 18 79 18 172 0 70 -5 101 -22 138 -11 26 -22
51 -24 55 -7 19 -140 128 -198 162 -58 35 -266 130 -290 132 -3 1 -36 12 -75
25 -38 13 -86 26 -105 29 -19 3 -37 8 -40 12 -3 4 -13 7 -22 8 -49 2 -59 5
-53 14 4 7 -2 9 -19 4 -16 -4 -26 -2 -26 5 0 6 -7 8 -15 5 -8 -3 -19 -3 -26 1
-6 4 -31 9 -56 11 -25 2 -51 8 -58 14 -7 6 -19 8 -28 4 -8 -3 -18 -1 -21 4 -3
6 -15 8 -26 5 -11 -3 -28 -2 -37 2 -19 8 -85 15 -145 14 -21 0 -38 4 -38 9 0
4 -24 6 -54 4 -32 -2 -56 0 -60 7 -4 6 -10 10 -14 9 -4 -1 -133 -5 -287 -8z
m350 -204 c91 -7 118 -14 110 -26 -3 -5 -13 -6 -22 -3 -10 4 -14 2 -9 -5 8
-14 45 -12 43 3 -1 5 11 11 27 13 23 3 27 0 23 -12 -3 -8 -2 -18 3 -21 6 -4
10 0 10 8 0 15 22 19 60 10 25 -6 25 -6 -5 -14 l-30 -8 30 4 c17 1 41 7 54 11
18 5 22 4 16 -5 -5 -10 -2 -11 11 -7 11 3 48 -1 84 -9 36 -9 74 -17 85 -19 11
-2 22 -5 25 -6 3 -1 14 -3 25 -4 13 -1 19 -7 17 -18 -2 -12 3 -18 15 -18 14 0
15 2 4 9 -9 6 -10 10 -2 16 7 4 18 2 25 -4 7 -6 16 -8 19 -4 4 3 13 1 20 -5 8
-7 16 -9 20 -6 3 3 16 0 29 -7 12 -7 30 -13 38 -14 33 -3 180 -57 180 -66 0
-6 4 -8 8 -5 13 8 132 -53 132 -67 0 -7 -3 -8 -8 -2 -11 16 -32 16 -26 1 6
-15 21 -16 42 -3 7 5 12 4 12 -2 0 -6 7 -11 15 -11 8 0 15 -4 15 -9 0 -5 10
-12 23 -15 21 -7 21 -7 2 -16 -11 -5 -15 -10 -10 -11 6 -1 15 -3 20 -4 39 -8
74 -49 70 -85 -1 -8 -3 -20 -3 -27 -2 -16 -73 -64 -84 -57 -4 3 -8 0 -8 -6 0
-6 -4 -8 -10 -5 -5 3 -10 2 -10 -3 0 -13 -122 -46 -255 -67 -65 -11 -232 -19
-350 -17 -218 3 -450 18 -469 30 -6 3 -27 8 -46 9 -19 1 -46 4 -60 6 -14 2
-53 7 -87 11 -35 5 -63 12 -63 16 0 5 -8 6 -19 3 -10 -3 -22 0 -25 6 -4 5 -12
8 -20 5 -7 -3 -26 1 -42 7 -16 7 -33 11 -37 10 -17 -3 -207 52 -207 61 0 5 -4
7 -8 4 -5 -3 -25 0 -46 6 -26 8 -35 16 -31 26 4 12 2 12 -8 3 -11 -8 -24 -8
-56 3 -66 24 -242 117 -248 132 -3 8 -8 12 -13 9 -4 -2 -20 9 -35 25 -16 17
-25 30 -21 30 5 0 2 8 -5 17 -12 14 -12 16 0 8 11 -6 13 -3 8 14 -4 16 1 26
21 39 15 9 33 22 40 29 14 14 100 53 110 51 4 -1 20 4 35 10 16 7 33 10 38 6
5 -3 9 0 9 6 0 5 12 10 28 10 26 -1 40 1 107 15 103 22 454 28 670 11z m-1075
-456 c11 -11 25 -20 30 -20 6 0 10 -4 10 -10 0 -5 3 -9 8 -8 12 3 82 -35 82
-44 0 -5 5 -6 10 -3 6 3 10 2 10 -2 0 -5 8 -9 18 -10 9 -1 42 -13 72 -26 30
-13 100 -39 155 -56 55 -18 107 -35 115 -38 8 -3 24 -8 35 -10 11 -2 27 -6 35
-9 8 -4 28 -8 44 -10 16 -2 34 -9 41 -14 7 -5 14 -8 17 -5 2 3 20 0 39 -5 19
-6 50 -13 69 -16 19 -3 44 -8 55 -11 11 -4 32 -5 48 -4 15 1 27 -2 27 -7 0 -5
11 -7 25 -4 14 2 25 0 25 -4 0 -5 12 -10 26 -10 33 -2 328 -33 422 -44 73 -8
151 -7 312 6 47 4 99 8 115 9 17 1 46 5 65 9 44 8 109 17 135 19 11 1 22 5 26
9 3 4 18 9 35 11 16 2 34 6 39 9 6 3 26 9 45 13 19 4 38 12 42 18 16 25 17 -4
3 -59 -8 -32 -15 -66 -15 -76 0 -10 -3 -18 -7 -18 -5 0 -9 -12 -10 -28 -1 -15
-9 -65 -17 -112 -9 -47 -18 -96 -20 -110 -21 -118 -38 -208 -43 -220 -3 -8 -5
-25 -4 -37 1 -13 -2 -23 -8 -23 -7 0 -9 -10 -5 -24 3 -13 1 -27 -5 -31 -6 -3
-9 -10 -6 -15 5 -8 -20 -151 -32 -180 -3 -8 -5 -18 -5 -22 2 -10 -17 -108 -25
-128 -3 -8 -5 -26 -4 -39 2 -16 -1 -21 -10 -16 -9 6 -10 1 -5 -18 3 -14 2 -28
-4 -32 -5 -3 -7 -12 -4 -19 3 -8 -1 -39 -9 -69 -8 -31 -12 -58 -9 -61 3 -3 1
-6 -5 -6 -6 0 -9 -8 -6 -19 3 -10 0 -22 -6 -25 -5 -4 -8 -13 -5 -20 3 -8 0
-17 -5 -21 -6 -3 -9 -11 -5 -16 3 -5 0 -16 -6 -24 -6 -8 -9 -19 -6 -24 13 -21
-95 -321 -116 -321 -5 0 -7 -4 -4 -9 3 -5 -7 -23 -23 -40 -15 -16 -27 -32 -24
-34 2 -2 -29 -35 -69 -73 -64 -61 -184 -139 -213 -139 -5 0 -12 -3 -15 -6 -10
-13 -101 -39 -173 -50 -112 -18 -357 5 -357 33 0 5 -4 7 -9 4 -5 -4 -16 -3
-25 0 -23 9 -1 34 30 34 61 0 262 160 270 215 1 9 6 24 10 33 3 9 8 26 10 37
1 11 6 32 9 48 4 15 3 27 -2 27 -5 0 -10 16 -11 36 -4 49 -30 98 -91 167 -28
32 -51 56 -51 54 0 -4 -116 68 -145 90 -6 4 -17 9 -25 11 -8 2 -17 8 -18 13
-2 5 -8 7 -13 3 -5 -3 -9 0 -9 5 0 6 -4 10 -8 9 -4 -2 -25 6 -45 17 -25 13
-35 25 -32 35 5 12 4 12 -6 3 -10 -10 -20 -8 -48 9 -20 12 -38 26 -39 30 -2 5
-8 6 -12 3 -5 -3 -18 3 -30 15 -11 11 -23 20 -27 20 -5 0 -15 5 -24 12 -8 7
-22 14 -30 16 -8 2 -20 10 -26 19 -7 9 -13 14 -13 10 0 -4 -26 9 -57 30 -32
20 -97 61 -145 91 -49 30 -88 58 -88 64 0 5 -4 7 -9 3 -6 -3 -14 3 -20 12 -6
10 -11 15 -11 11 0 -4 -22 6 -49 22 -28 18 -48 37 -47 47 0 9 -6 18 -14 20
-13 4 -13 3 0 -6 8 -5 12 -12 9 -15 -8 -8 -204 95 -202 105 2 5 -4 6 -13 2
-13 -5 -15 -2 -10 14 3 11 8 62 11 114 2 52 6 112 8 134 2 22 4 78 5 125 1 52
6 80 11 71 5 -8 8 11 8 50 0 169 4 201 20 195 13 -5 14 -4 4 8 -11 13 -11 46
3 226 1 19 3 54 4 78 2 47 12 52 42 22z m2555 -400 c14 -5 24 -6 21 -1 -3 4 6
6 19 3 14 -2 28 -8 31 -13 3 -5 14 -9 25 -9 14 0 18 -4 13 -12 -6 -10 -4 -10
8 0 16 13 48 7 48 -9 0 -5 3 -8 8 -8 18 3 32 -2 32 -12 0 -6 -9 -8 -22 -4 -20
5 -21 5 -5 -5 13 -8 22 -9 31 -1 24 20 151 -111 129 -133 -4 -3 -2 -6 4 -6 30
0 54 -239 29 -295 -5 -11 -10 -33 -12 -49 -5 -35 -71 -176 -83 -176 -5 0 -11
-10 -15 -23 -5 -20 -74 -97 -137 -153 -64 -56 -232 -150 -249 -139 -6 4 -10 2
-10 -3 0 -5 -21 -15 -46 -21 -56 -14 -174 -23 -174 -13 1 4 12 54 26 112 13
58 27 123 30 144 3 22 9 47 14 57 5 9 7 19 4 22 -3 3 1 32 10 65 8 33 18 83
22 111 4 28 11 54 15 57 5 3 7 10 3 15 -3 6 -3 18 1 27 4 9 9 35 11 57 2 22 7
47 10 55 4 8 8 29 10 45 2 17 7 41 11 55 3 14 5 29 4 34 -1 5 1 16 5 25 4 9 8
23 9 31 7 50 28 166 32 173 6 10 107 9 138 -3z"/>
</g>
</svg>
