<?xml version="1.0" standalone="no"?>
<!DOCTYPE svg PUBLIC "-//W3C//DTD SVG 20010904//EN" "http://www.w3.org/TR/2001/REC-SVG-20010904/DTD/svg10.dtd">
<svg xmlns="http://www.w3.org/2000/svg" version="1.0" width="1024.000000pt" height="1024.000000pt" viewBox="0 0 1024.000000 1024.000000" preserveAspectRatio="xMidYMid meet">
<metadata>
Created by potrace 1.16, written by Peter Selinger 2001-2019
<meta name="Producer" content="Online-Convert"/></metadata>
<g transform="translate(0.000000,1024.000000) scale(0.100000,-0.100000)" fill="#000000" stroke="none">
<path d="M5095 9026 c-16 -7 -45 -32 -63 -55 -19 -23 -38 -38 -44 -35 -6 4 -8 3 -5 -3 8 -12 -311 -359 -327 -355 -6 2 -8 1 -4 -3 6 -7 -12 -32 -66 -89 -15 -17 -46 -52 -69 -78 -22 -26 -44 -45 -49 -42 -5 3 -7 0 -6 -8 2 -7 -3 -12 -9 -11 -7 2 -12 -1 -10 -6 3 -11 -78 -102 -443 -496 -45 -49 -88 -88 -94 -87 -6 2 -8 0 -4 -4 9 -8 -91 -120 -104 -116 -5 1 -7 -2 -4 -7 4 -5 -2 -16 -11 -23 -10 -7 -31 -30 -46 -50 -15 -21 -33 -37 -39 -35 -7 1 -12 -3 -13 -10 0 -20 -136 -164 -147 -157 -7 4 -8 2 -4 -4 4 -6 -23 -43 -62 -84 -38 -40 -72 -82 -75 -93 -3 -11 -7 -336 -9 -722 -2 -385 -6 -699 -10 -696 -5 2 -4 -6 1 -19 5 -14 8 -542 7 -1235 -1 -1165 0 -1212 17 -1231 11 -12 16 -26 11 -33 -4 -8 -3 -10 5 -5 15 10 43 -13 34 -28 -3 -6 -3 -8 2 -4 4 4 43 -24 87 -63 65 -60 76 -74 66 -86 -10 -12 -9 -14 8 -12 23 4 89 -62 76 -76 -4 -5 -2 -5 4 -2 14 8 167 -146 157 -158 -4 -4 -3 -5 3 -2 11 6 89 -77 89 -94 0 -5 4 -9 8 -8 15 2 67 -54 60 -64 -3 -6 -2 -7 4 -4 14 9 111 -92 97 -101 -6 -4 -4 -13 8 -24 20 -20 25 -10 6 11 -7 8 2 3 20 -9 17 -13 32 -27 32 -31 0 -5 37 -45 82 -90 46 -44 77 -78 69 -73 -9 5 -12 3 -7 -5 4 -6 11 -9 15 -6 11 6 161 -154 161 -172 0 -8 4 -12 8 -9 5 3 19 -6 33 -20 13 -13 34 -34 46 -46 12 -11 20 -26 16 -31 -3 -6 -1 -7 4 -4 10 6 51 -30 46 -39 -2 -2 -1 -3 2 -1 2 1 22 -15 44 -37 25 -24 37 -45 34 -55 -4 -14 -3 -14 6 -1 10 14 16 7 12 -13 -1 -5 3 -6 8 -3 11 7 33 -19 23 -28 -4 -4 -2 -6 4 -4 12 3 193 -177 195 -195 1 -7 1 -16 0 -20 -1 -5 3 -6 9 -2 6 3 7 12 3 18 -3 7 2 5 13 -4 10 -9 39 -19 63 -22 25 -3 40 -2 33 2 -8 4 14 32 62 80 48 47 78 71 86 66 8 -5 11 -3 8 6 -5 15 138 156 153 151 5 -1 9 5 9 14 0 9 5 12 12 8 6 -4 8 -3 5 3 -9 14 636 640 654 636 5 -2 8 3 6 10 -1 6 5 11 13 9 8 -2 12 0 7 4 -10 10 53 75 66 67 6 -3 7 -2 4 4 -8 13 98 117 112 109 7 -5 8 -1 4 10 -5 14 -3 16 11 11 12 -5 16 -3 14 5 -3 7 61 75 141 152 80 78 188 182 240 232 l93 91 -1 1968 c-2 1511 -5 1973 -14 1991 -7 12 -37 49 -67 81 -30 32 -100 107 -155 168 -55 60 -105 114 -111 120 -6 5 -51 55 -99 110 -49 55 -116 130 -149 166 -34 36 -79 85 -101 110 -22 24 -91 99 -153 167 -62 68 -109 128 -106 134 4 6 2 8 -4 5 -11 -7 -239 230 -235 244 2 4 -6 10 -16 14 -20 6 -57 54 -53 68 1 5 -2 6 -7 3 -12 -8 -153 149 -143 159 4 5 2 5 -5 2 -14 -9 -75 62 -66 76 3 6 2 7 -4 4 -6 -4 -47 32 -91 78 -44 47 -84 85 -89 85 -4 -1 -21 -7 -38 -14z m155 -292 c0 -8 5 -12 11 -9 13 8 40 -26 32 -40 -4 -5 -2 -7 2 -2 11 10 46 -23 38 -36 -3 -5 -2 -7 4 -4 6 4 48 -35 94 -85 46 -50 90 -98 98 -106 12 -12 12 -15 0 -23 -11 -7 -9 -9 7 -9 26 0 177 -157 167 -174 -3 -6 -3 -8 2 -4 11 10 37 -11 29 -23 -3 -5 -1 -8 4 -7 10 4 292 -290 292 -305 0 -3 27 -33 61 -66 34 -33 58 -64 54 -70 -3 -7 -1 -10 6 -9 7 2 13 -2 14 -9 0 -6 4 -15 9 -20 5 -5 6 -2 2 7 -5 8 15 -9 43 -39 42 -46 49 -57 38 -70 -10 -14 -10 -14 4 -3 13 10 18 10 28 -1 6 -8 9 -17 6 -20 -3 -4 -2 -5 2 -2 8 6 43 -24 43 -37 0 -5 -5 -6 -12 -2 -7 4 -8 3 -4 -5 4 -6 11 -9 16 -6 13 8 92 -84 84 -98 -4 -6 -3 -9 1 -4 11 10 46 -23 38 -36 -3 -5 -1 -7 4 -4 13 8 109 -99 105 -116 -2 -7 0 -9 4 -5 9 10 34 -10 34 -26 0 -17 -147 -99 -161 -90 -7 4 -9 3 -6 -3 9 -14 -73 -57 -105 -55 -16 1 -28 -2 -28 -8 0 -5 8 -7 18 -3 13 4 13 2 -3 -9 -47 -35 -116 -67 -132 -62 -12 4 -14 3 -6 -3 16 -11 -121 -88 -138 -77 -7 4 -9 3 -6 -3 6 -9 -246 -153 -267 -153 -4 0 -15 -8 -24 -17 -14 -14 -17 -14 -20 -2 -1 8 -16 20 -33 28 -19 8 -28 18 -25 28 3 8 0 13 -7 11 -16 -4 -108 73 -101 84 3 5 1 7 -4 6 -16 -5 -93 62 -86 74 4 7 2 8 -5 4 -13 -8 -73 43 -65 56 3 5 0 7 -8 6 -7 -2 -12 3 -10 10 1 8 -2 11 -7 7 -14 -8 -202 156 -194 168 3 6 2 7 -4 4 -11 -7 -99 64 -199 161 -8 7 -11 24 -8 40 7 40 44 311 44 323 0 5 6 7 13 3 9 -5 9 -4 1 5 -7 8 -8 30 -2 69 16 108 63 441 103 737 36 260 29 243 76 189 21 -25 39 -52 39 -60z m-205 14 c-7 -40 -23 -153 -36 -250 -19 -144 -26 -178 -39 -178 -12 0 -12 -2 -1 -9 11 -7 9 -38 -12 -187 -32 -218 -62 -436 -78 -568 -14 -109 -9 -101 -120 -200 -29 -27 -82 -75 -117 -108 -35 -32 -68 -55 -74 -52 -6 4 -8 3 -5 -3 3 -5 -14 -29 -38 -53 -25 -24 -45 -41 -45 -37 0 4 -14 -8 -31 -28 -17 -19 -36 -32 -42 -28 -5 3 -7 2 -4 -3 6 -11 -77 -89 -96 -89 -7 -1 -11 -6 -10 -12 3 -14 -81 -83 -101 -83 -26 0 -165 73 -159 83 3 6 1 7 -5 3 -15 -9 -93 24 -85 37 3 5 1 7 -5 3 -16 -10 -105 36 -89 47 8 5 5 7 -8 3 -13 -3 -73 22 -162 67 l-142 72 77 81 c42 44 99 105 126 135 28 30 75 81 105 114 65 70 209 229 271 297 23 26 47 45 53 41 5 -3 7 -2 4 4 -8 13 110 139 126 135 7 -2 9 0 5 4 -11 10 12 35 25 27 6 -4 7 -1 2 6 -8 14 43 73 57 65 5 -3 7 0 6 8 -2 7 3 12 10 10 8 -1 11 2 7 7 -3 6 29 47 72 93 43 46 114 124 158 172 44 49 89 99 100 110 32 34 218 237 265 289 24 26 44 47 45 47 1 0 -3 -33 -10 -72z m-92 -1446 c15 -16 24 -32 20 -37 -5 -4 -3 -5 3 -2 14 8 156 -112 147 -126 -3 -5 -2 -7 4 -4 13 8 294 -233 286 -246 -3 -6 -1 -7 6 -3 7 5 26 -7 48 -29 20 -20 44 -40 55 -46 10 -5 15 -15 12 -21 -4 -6 -3 -8 3 -5 6 4 39 -21 74 -55 50 -47 60 -62 47 -65 -10 -3 -18 -9 -18 -14 0 -6 5 -7 12 -3 14 9 12 1 -55 -249 -29 -108 -55 -195 -58 -193 -2 2 -4 -8 -5 -22 -1 -24 -240 -917 -299 -1117 -13 -44 -51 -180 -86 -303 -49 -178 -65 -222 -77 -217 -12 4 -12 3 -3 -9 10 -11 10 -23 0 -55 -7 -22 -16 -38 -20 -35 -5 3 -6 -1 -3 -9 3 -8 -6 -55 -20 -103 -13 -49 -50 -178 -80 -286 -31 -108 -56 -205 -57 -215 -1 -48 -25 53 -108 472 -50 248 -108 538 -131 645 -22 107 -59 281 -80 385 -22 105 -58 278 -80 385 -60 287 -136 651 -178 854 l-36 178 70 67 c187 177 559 511 569 511 6 0 23 -13 38 -28z m1737 -588 c0 -361 -3 -454 -12 -448 -10 6 -10 4 -2 -7 14 -17 25 -300 14 -340 -5 -17 -4 -31 3 -39 9 -10 9 -14 0 -17 -7 -3 -13 -9 -13 -14 0 -6 4 -8 8 -5 14 8 7 -31 -8 -49 -11 -14 -11 -16 1 -13 12 3 14 -119 16 -851 1 -587 -2 -850 -9 -840 -8 11 -8 9 -3 -6 4 -11 9 -26 12 -32 3 -8 -3 -13 -13 -14 -17 0 -17 -1 -2 -7 16 -7 17 -33 13 -352 l-4 -345 -48 -41 c-26 -23 -52 -40 -57 -36 -5 3 -6 0 -3 -5 9 -14 -71 -86 -84 -77 -8 4 -7 9 2 15 11 7 10 9 -3 9 -21 0 -110 109 -101 123 3 6 1 7 -5 3 -6 -3 -21 8 -33 26 -13 18 -119 154 -237 301 -120 151 -210 273 -206 279 4 7 3 8 -4 4 -13 -8 -83 84 -75 98 4 5 1 6 -4 3 -6 -4 -30 19 -54 51 -24 31 -72 92 -106 135 -35 44 -60 83 -57 88 3 5 1 8 -4 7 -16 -5 -191 223 -185 241 3 11 2 12 -4 4 -11 -16 -97 92 -87 109 4 6 3 8 -4 4 -12 -7 -62 53 -62 76 0 9 32 131 70 272 39 141 70 259 70 262 0 3 4 2 10 -1 5 -3 7 0 4 9 -3 8 22 115 55 238 33 123 68 253 77 290 10 37 21 65 25 62 4 -2 11 1 15 7 4 8 3 9 -4 5 -7 -4 -12 -4 -12 -1 0 17 112 438 182 688 14 48 27 77 35 77 8 0 12 4 8 9 -3 5 30 29 72 52 43 23 102 55 132 72 43 23 55 26 63 16 8 -11 9 -11 5 2 -4 11 14 26 64 53 38 21 74 34 80 30 7 -4 9 -3 6 3 -3 5 88 62 203 126 196 109 239 130 226 108 -3 -5 0 -11 7 -14 8 -3 13 3 13 14 0 11 -5 19 -11 19 -8 0 13 19 23 20 1 0 2 -205 2 -456z m-2880 194 c0 -12 -23 -5 -38 12 -11 13 -11 12 -3 -7 11 -21 25 -24 49 -10 7 5 12 4 12 -2 0 -6 4 -10 8 -8 18 5 152 -67 152 -82 0 -11 3 -12 8 -4 5 8 17 7 45 -6 20 -10 35 -20 31 -23 -3 -3 3 -5 13 -4 9 0 18 -4 18 -11 0 -6 4 -15 9 -20 5 -5 6 -3 2 5 -10 17 19 16 37 -2 20 -20 41 -134 28 -150 -7 -8 -6 -16 1 -26 8 -12 9 -12 4 3 -3 9 -1 17 4 17 9 0 11 -12 14 -77 1 -10 4 -20 7 -23 13 -11 69 -305 59 -308 -7 -3 -5 -8 3 -16 16 -12 62 -230 52 -246 -3 -6 -2 -10 3 -10 5 0 12 -15 15 -32 3 -18 9 -49 12 -68 5 -26 4 -31 -4 -20 -8 11 -11 11 -11 2 0 -7 6 -15 14 -18 8 -3 17 -22 21 -42 3 -20 22 -113 41 -205 20 -92 33 -175 30 -183 -3 -8 -2 -13 2 -10 11 7 66 -269 57 -284 -5 -8 -4 -11 2 -7 12 8 88 -357 79 -379 -3 -8 -2 -13 3 -10 4 3 18 -43 29 -102 12 -59 34 -164 48 -234 14 -70 23 -132 20 -137 -4 -5 -2 -11 2 -13 7 -2 82 -354 82 -382 0 -4 -4 -4 -10 -1 -16 10 -12 -6 5 -19 16 -12 49 -159 42 -188 -3 -10 -1 -16 4 -12 5 3 9 -72 9 -180 0 -117 -4 -186 -10 -186 -5 0 -10 -12 -9 -27 l1 -28 8 25 c5 15 8 -48 9 -153 1 -140 -2 -177 -11 -171 -10 6 -10 4 0 -8 8 -11 15 -67 19 -167 6 -141 5 -151 -11 -145 -14 5 -15 9 -4 16 9 7 8 8 -5 4 -24 -8 -160 71 -150 88 3 6 3 8 -2 4 -13 -12 -211 102 -199 114 3 3 -3 5 -13 5 -10 -1 -17 4 -15 11 1 8 -2 11 -7 8 -5 -3 -17 -3 -26 0 -13 6 -14 9 -3 16 9 7 8 8 -6 4 -10 -4 -26 0 -35 7 -9 8 -64 42 -123 77 -59 34 -106 66 -103 70 3 4 -1 7 -8 6 -19 -2 -266 148 -260 158 4 5 2 6 -4 3 -5 -3 -34 9 -64 28 -30 18 -82 50 -116 71 -34 20 -60 40 -58 44 2 4 -2 7 -9 7 -12 0 -66 35 -94 60 -10 10 -14 345 -17 1855 -2 1014 -1 1852 1 1863 5 19 17 14 159 -54 85 -41 155 -78 155 -83z m1447 -2340 c13 -12 23 -27 23 -35 0 -7 4 -13 9 -13 16 0 112 -130 105 -142 -4 -6 -3 -8 3 -5 14 9 76 -70 67 -85 -4 -6 -3 -8 4 -4 5 3 25 -12 43 -35 26 -33 30 -43 18 -50 -11 -8 -10 -9 5 -7 22 3 99 -89 89 -105 -3 -6 -1 -7 5 -3 11 6 38 -31 34 -47 -1 -4 2 -6 7 -5 13 4 141 -164 134 -176 -3 -5 -1 -6 5 -2 6 3 21 -8 33 -26 13 -17 18 -28 11 -24 -8 5 -10 2 -6 -8 3 -9 10 -14 15 -11 11 8 99 -106 92 -118 -3 -6 -1 -7 4 -4 13 8 67 -59 58 -72 -3 -5 0 -13 6 -17 8 -5 9 -3 4 7 -8 12 -6 12 8 0 9 -7 14 -18 10 -24 -3 -5 -2 -7 4 -4 12 8 56 -50 48 -63 -4 -6 -1 -9 7 -8 7 2 12 -3 11 -9 -2 -7 0 -12 5 -12 19 3 25 -2 12 -11 -13 -8 -13 -10 2 -10 17 0 121 -125 121 -146 0 -7 4 -11 8 -8 4 2 18 -10 30 -28 13 -18 27 -36 32 -39 5 -4 6 -12 2 -19 -5 -8 -4 -11 2 -7 6 4 30 -18 53 -49 40 -53 41 -56 25 -75 -10 -10 -23 -16 -29 -12 -6 3 -8 2 -3 -2 10 -12 -23 -46 -37 -38 -6 3 -8 2 -3 -2 9 -11 -43 -66 -55 -59 -5 3 -7 0 -6 -7 2 -7 -4 -13 -12 -14 -8 -1 -14 -6 -13 -12 3 -14 -346 -349 -359 -345 -5 1 -7 -2 -4 -7 7 -11 -341 -347 -355 -343 -6 1 -8 -2 -5 -6 8 -13 -344 -353 -357 -345 -5 3 -7 2 -4 -4 6 -10 -79 -101 -87 -92 -2 2 -16 60 -30 129 -15 69 -46 206 -68 305 l-41 180 -4 585 c-5 677 -22 542 133 1090 135 478 148 520 158 520 6 0 20 -10 33 -22z m-1294 -1671 c-3 -6 -1 -7 5 -3 15 9 55 -18 44 -29 -4 -5 -2 -5 5 -1 14 8 85 -33 77 -45 -3 -5 2 -6 10 -3 10 4 16 1 16 -7 0 -7 3 -10 6 -6 4 3 26 -7 50 -23 23 -17 45 -30 48 -30 16 0 104 -64 99 -73 -3 -6 -1 -7 5 -3 16 10 54 -12 46 -26 -4 -7 -2 -8 5 -4 7 5 50 -16 104 -50 51 -31 115 -71 142 -87 28 -17 58 -40 68 -51 10 -12 16 -15 12 -8 -6 11 -3 12 14 2 12 -6 19 -15 16 -19 -2 -5 8 -11 23 -15 65 -14 70 -25 123 -276 27 -129 47 -240 45 -246 -3 -6 -1 -16 2 -21 4 -5 -10 9 -30 30 -21 22 -35 44 -31 51 3 6 2 7 -2 3 -11 -9 -156 133 -149 145 3 5 1 7 -3 6 -13 -4 -359 353 -355 366 2 6 0 8 -4 3 -9 -9 -114 92 -114 110 0 7 -4 12 -8 11 -5 -2 -42 33 -83 76 -41 44 -88 93 -106 109 -20 18 -30 35 -26 45 3 11 2 13 -4 5 -5 -7 -29 11 -74 57 l-65 69 48 -26 c26 -14 45 -30 41 -36z"/>
</g>
</svg>
