<?xml version="1.0" standalone="no"?>
<!DOCTYPE svg PUBLIC "-//W3C//DTD SVG 20010904//EN"
 "http://www.w3.org/TR/2001/REC-SVG-20010904/DTD/svg10.dtd">
<svg version="1.0" xmlns="http://www.w3.org/2000/svg"
 width="1024.000000pt" height="1024.000000pt" viewBox="0 0 1024.000000 1024.000000"
 preserveAspectRatio="xMidYMid meet">
<metadata>
Created by potrace 1.16, written by Peter Selinger 2001-2019
</metadata>
<g transform="translate(0.000000,1024.000000) scale(0.100000,-0.100000)"
fill="#000000" stroke="none">
<path d="M6546 8399 c-191 -20 -358 -81 -533 -194 -45 -30 -84 -50 -88 -47 -4
4 -6 3 -4 -3 1 -5 -41 -53 -93 -107 -53 -53 -119 -131 -148 -175 -29 -43 -56
-77 -61 -76 -5 2 -6 -4 -3 -12 4 -8 1 -15 -5 -15 -6 0 -10 -3 -9 -7 1 -5 -12
-42 -29 -84 -119 -284 -135 -606 -43 -879 11 -34 17 -66 14 -72 -4 -6 -3 -8 3
-5 11 7 59 -100 55 -122 -5 -22 8 -48 17 -33 5 8 24 -12 57 -60 27 -40 93
-117 146 -171 54 -54 98 -99 98 -101 0 -2 -28 -9 -62 -16 -35 -6 -103 -27
-153 -46 -413 -159 -664 -487 -772 -1008 -23 -108 -28 -124 -35 -100 -4 16 -6
35 -3 42 3 7 1 11 -4 8 -5 -3 -24 31 -42 76 -19 45 -58 118 -86 161 -29 44
-50 84 -46 90 3 6 2 7 -4 4 -13 -8 -67 48 -59 62 5 7 1 8 -10 4 -14 -5 -16 -3
-11 11 4 10 3 15 -3 11 -13 -8 -71 45 -63 58 3 6 1 7 -4 4 -6 -4 -35 9 -65 29
-61 43 -178 99 -225 109 -18 3 -33 10 -33 14 0 4 28 31 63 59 175 142 296 329
353 547 22 85 27 122 27 240 0 220 -41 370 -152 546 -110 175 -252 305 -434
398 -53 27 -91 52 -84 55 6 3 3 4 -8 1 -11 -3 -36 0 -55 6 -272 84 -557 59
-797 -71 -41 -22 -80 -37 -85 -34 -6 4 -8 3 -5 -3 6 -10 -82 -80 -95 -75 -5 1
-7 -2 -5 -6 1 -5 -23 -33 -53 -64 -31 -30 -77 -82 -102 -116 -25 -33 -48 -59
-51 -56 -3 3 -5 -1 -4 -8 1 -7 -20 -56 -46 -109 -107 -220 -133 -472 -72 -711
14 -54 22 -105 19 -115 -5 -15 -4 -16 6 -3 10 12 11 11 7 -8 -3 -13 -3 -21 0
-18 9 9 103 -165 96 -178 -3 -6 -3 -8 2 -4 4 4 35 -28 69 -70 40 -49 59 -80
52 -85 -7 -5 -3 -7 9 -5 13 2 19 -2 17 -12 -2 -8 -1 -12 3 -8 4 4 44 -22 89
-58 124 -98 278 -173 391 -190 l46 -6 -43 -31 c-54 -39 -138 -116 -199 -184
-26 -28 -50 -48 -54 -45 -4 4 -5 2 -4 -3 2 -6 -27 -57 -65 -114 -139 -210
-261 -510 -355 -871 -22 -85 -72 -297 -111 -470 -77 -341 -102 -412 -156 -443
-19 -10 -116 -32 -235 -52 -112 -19 -244 -46 -294 -61 -108 -32 -268 -106
-349 -162 -33 -23 -63 -39 -68 -36 -5 3 -7 1 -6 -4 4 -13 -124 -138 -137 -134
-5 2 -7 0 -3 -3 4 -4 -6 -26 -21 -49 -77 -112 -137 -278 -156 -427 -6 -46 -3
-65 13 -102 38 -86 -9 -81 787 -81 614 1 711 3 792 18 534 98 818 381 1013
1008 19 60 38 104 43 101 6 -3 7 -1 3 6 -7 10 5 60 64 271 44 155 120 468 120
493 0 58 -54 117 -107 117 -28 0 -81 -37 -96 -67 -8 -15 -22 -62 -31 -103
-119 -529 -287 -1036 -401 -1206 -63 -94 -128 -165 -145 -159 -8 4 -11 3 -7
-1 10 -10 -13 -35 -26 -27 -5 3 -7 1 -3 -5 8 -13 -50 -56 -64 -47 -6 4 -9 1
-8 -7 4 -19 -172 -103 -265 -127 -149 -38 -221 -42 -849 -39 l-607 3 27 80
c15 45 43 107 62 138 41 68 138 170 152 160 7 -3 8 -1 4 5 -8 13 89 81 165
116 82 36 219 78 265 80 23 0 40 4 37 9 -2 4 0 7 5 7 6 0 83 11 173 25 187 29
263 58 335 131 77 77 105 149 169 446 54 250 148 617 200 778 67 212 163 440
185 440 6 0 9 4 5 9 -8 14 73 142 149 237 74 92 180 189 196 179 6 -4 9 -1 8
7 -2 7 5 12 14 12 10 -1 16 3 15 9 -3 15 153 92 228 113 88 24 274 30 355 11
72 -17 165 -55 156 -64 -8 -8 13 -33 27 -33 6 0 2 7 -9 15 -10 8 -14 15 -7 15
20 0 133 -91 127 -102 -4 -6 -2 -8 3 -5 24 15 198 -229 189 -266 -2 -10 0 -14
6 -11 6 4 8 -2 3 -15 -4 -14 -3 -21 6 -19 15 4 82 -178 76 -204 -3 -9 -1 -18
4 -20 11 -4 54 -221 68 -343 31 -270 49 -1031 32 -1390 -21 -447 -71 -688
-192 -913 -55 -103 -59 -145 -19 -179 10 -9 16 -21 13 -26 -3 -6 -2 -7 4 -4 6
4 25 2 43 -3 23 -7 42 -5 65 5 19 7 36 10 40 7 4 -4 5 -2 4 3 -2 6 14 40 34
77 107 189 171 406 212 713 20 157 25 329 29 1110 5 773 18 960 87 1282 83
384 265 634 565 774 117 56 217 79 364 86 194 9 339 -21 518 -108 34 -17 60
-35 57 -39 -3 -5 0 -12 6 -16 8 -4 9 -3 5 4 -12 21 5 13 58 -25 105 -75 273
-253 259 -275 -3 -6 -1 -8 5 -4 13 8 56 -60 47 -74 -4 -6 -1 -9 5 -8 15 4 101
-152 96 -174 -2 -10 0 -16 6 -15 13 3 60 -111 52 -125 -4 -6 -3 -8 3 -5 13 8
116 -299 110 -325 -3 -10 -2 -16 2 -13 5 2 31 -98 60 -223 50 -224 63 -285
142 -712 85 -455 103 -515 186 -598 24 -24 72 -57 106 -72 62 -29 98 -37 327
-65 155 -20 297 -54 278 -67 -9 -7 -7 -8 8 -3 59 16 363 -186 339 -226 -5 -8
-4 -10 3 -5 15 9 66 -69 56 -85 -5 -8 -3 -9 6 -4 10 6 12 4 7 -8 -4 -10 -2
-16 5 -14 12 2 52 -102 63 -166 l7 -38 -748 4 c-810 4 -773 2 -959 61 -208 66
-395 233 -500 446 -20 39 -34 79 -31 87 3 8 2 12 -2 9 -12 -7 -45 101 -36 116
4 7 3 8 -4 4 -7 -4 -12 -5 -12 -2 0 2 -15 67 -34 143 -19 76 -55 235 -80 353
-26 118 -51 234 -56 258 -10 42 -33 151 -74 358 -25 126 -42 159 -93 181 -45
18 -77 10 -115 -28 -27 -27 -29 -34 -26 -87 3 -31 23 -145 47 -252 76 -351
101 -485 96 -498 -2 -7 -1 -11 3 -8 12 7 55 -210 47 -237 -4 -13 -3 -17 2 -10
6 8 22 -40 46 -133 20 -80 55 -191 78 -247 23 -56 42 -113 43 -127 0 -14 7
-25 14 -25 16 0 64 -84 55 -98 -3 -6 -1 -7 5 -3 6 3 24 -12 41 -36 67 -96 197
-212 308 -276 34 -19 59 -40 56 -45 -3 -6 -1 -7 5 -3 6 3 48 -9 95 -28 46 -18
98 -37 116 -41 18 -4 28 -11 25 -17 -4 -7 -2 -8 5 -4 14 9 93 -3 87 -12 -2 -4
10 -8 27 -8 18 -1 100 -6 182 -11 83 -5 460 -9 838 -8 664 2 689 2 714 21 35
27 63 81 63 125 0 58 -28 208 -51 274 -72 204 -205 368 -388 476 -33 20 -59
38 -56 40 2 3 -4 5 -13 6 -29 2 -151 56 -146 65 3 4 -1 5 -9 2 -8 -3 -41 2
-73 10 -71 18 -281 52 -384 61 -113 10 -155 33 -185 97 -26 57 -90 369 -82
399 3 11 2 17 -2 15 -4 -3 -18 50 -30 117 -141 744 -218 1048 -330 1307 -22
51 -38 97 -34 103 3 5 2 7 -4 4 -5 -3 -17 10 -27 30 -14 29 -15 38 -4 45 10 8
9 9 -3 5 -11 -4 -28 17 -60 71 -24 41 -43 79 -41 84 1 5 -2 7 -7 4 -4 -3 -21
12 -35 35 -37 56 -147 173 -211 227 -30 24 -53 48 -50 52 2 4 23 10 47 14 118
19 354 139 473 241 64 54 157 150 190 195 14 19 31 35 38 35 7 0 12 7 12 15 0
8 21 52 48 96 299 509 169 1178 -303 1556 -96 77 -279 175 -379 203 -19 6 -21
9 -10 17 11 8 10 9 -3 4 -20 -6 -128 13 -128 23 0 3 -19 6 -42 6 -24 1 -86 3
-138 7 -52 3 -130 2 -174 -3z m359 -244 c32 -9 65 -24 73 -33 7 -10 10 -11 6
-3 -9 17 20 9 101 -30 79 -37 161 -92 235 -157 53 -47 59 -56 48 -70 -11 -15
-11 -15 4 -4 14 11 21 7 53 -32 22 -27 34 -50 29 -57 -4 -7 -3 -9 4 -5 6 3 19
-6 30 -21 28 -41 65 -116 53 -108 -6 3 -11 2 -11 -3 0 -5 8 -12 18 -14 23 -7
66 -118 57 -149 -4 -16 -3 -19 3 -11 6 9 12 2 20 -25 42 -144 42 -369 -1 -513
-106 -355 -389 -625 -743 -706 -110 -26 -311 -26 -419 0 -103 24 -207 65 -198
79 3 6 1 7 -5 3 -14 -9 -80 24 -157 79 -114 81 -284 281 -270 317 4 9 2 19 -4
23 -7 3 -8 0 -5 -9 3 -9 3 -16 0 -16 -13 0 -69 133 -69 161 0 16 -4 26 -8 23
-4 -2 -10 4 -13 13 -47 161 -52 381 -12 538 33 129 116 296 200 401 71 88 183
187 204 179 7 -3 10 -1 7 5 -16 27 234 136 366 159 82 15 333 6 404 -14z
m-3076 -755 c46 -11 122 -40 170 -65 94 -49 208 -135 203 -154 -1 -7 1 -10 6
-7 14 8 85 -70 77 -85 -5 -8 -4 -10 3 -5 15 9 87 -99 76 -115 -4 -7 -3 -10 3
-6 12 7 41 -55 69 -148 14 -47 19 -93 19 -210 0 -130 -3 -160 -23 -225 -60
-190 -179 -351 -338 -457 -31 -20 -58 -32 -65 -27 -7 4 -10 3 -6 -3 9 -14 -86
-58 -181 -85 -102 -28 -265 -30 -377 -4 -91 21 -250 90 -240 106 3 5 0 7 -7 5
-18 -7 -100 54 -91 67 3 6 1 8 -4 5 -19 -12 -160 144 -148 163 4 6 1 9 -6 8
-17 -4 -93 147 -114 229 -23 87 -31 280 -16 369 17 95 63 210 121 298 58 89
165 201 181 190 7 -4 9 -3 6 3 -7 12 95 82 158 109 152 65 362 83 524 44z"/>
</g>
</svg>
