<?xml version="1.0" standalone="no"?>
<!DOCTYPE svg PUBLIC "-//W3C//DTD SVG 20010904//EN"
 "http://www.w3.org/TR/2001/REC-SVG-20010904/DTD/svg10.dtd">
<svg version="1.0" xmlns="http://www.w3.org/2000/svg"
 width="1024.000000pt" height="1024.000000pt" viewBox="0 0 1024.000000 1024.000000"
 preserveAspectRatio="xMidYMid meet">
<metadata>
Created by potrace 1.16, written by Peter Selinger 2001-2019
</metadata>
<g transform="translate(0.000000,1024.000000) scale(0.100000,-0.100000)"
fill="#000000" stroke="none">
<path d="M5026 8609 c3 -5 -1 -9 -8 -9 -19 -1 -50 -29 -86 -78 -17 -24 -34
-42 -37 -42 -4 1 -10 -2 -13 -6 -4 -4 -1 -4 6 0 17 10 15 2 -12 -52 -13 -26
-29 -67 -35 -90 -7 -23 -16 -40 -20 -38 -4 3 -6 -7 -4 -22 3 -22 2 -24 -5 -7
-6 12 -9 -48 -9 -155 0 -96 3 -177 7 -180 4 -3 11 -21 14 -40 5 -26 4 -31 -3
-20 -6 8 -11 24 -11 34 0 11 -3 17 -6 13 -10 -9 7 -67 19 -67 12 0 58 -101 60
-132 1 -9 4 -15 7 -13 9 5 75 -118 72 -132 -4 -20 19 -58 27 -45 4 7 19 -12
34 -44 15 -30 24 -60 21 -66 -4 -6 -3 -8 3 -5 13 8 48 -107 38 -123 -5 -8 -4
-11 2 -7 26 16 31 -172 8 -270 -19 -80 -71 -196 -85 -188 -5 3 -7 0 -4 -8 3
-8 -2 -20 -11 -27 -10 -8 -15 -9 -15 -1 0 6 -4 11 -10 11 -5 0 -10 -7 -10 -15
0 -8 5 -15 11 -15 8 0 8 -4 1 -12 -5 -7 -10 -33 -9 -56 0 -24 3 -39 7 -33 4 8
13 5 25 -9 12 -13 31 -20 56 -20 34 0 43 6 79 51 49 63 103 173 127 259 13 48
18 103 18 210 0 125 -3 156 -23 220 -29 90 -78 194 -149 313 -98 165 -139 306
-129 437 7 87 42 204 58 194 7 -4 8 -2 4 4 -8 13 12 54 62 129 31 48 33 54 22
87 -6 19 -21 41 -33 49 -27 17 -69 28 -61 16z"/>
<path d="M5946 8268 c3 -4 -2 -8 -10 -8 -35 0 -124 -158 -148 -261 -6 -27 -14
-45 -17 -40 -3 5 -7 -28 -9 -73 -2 -87 12 -197 35 -260 11 -32 11 -41 1 -48
-10 -6 -9 -8 3 -8 19 0 33 -26 22 -42 -3 -7 -1 -8 5 -4 12 7 14 2 14 -46 1
-16 5 -28 10 -28 5 0 6 10 3 23 -4 12 11 -7 33 -43 22 -35 37 -71 34 -79 -3
-9 -1 -12 6 -7 15 9 74 -113 76 -154 1 -16 4 -26 9 -23 6 4 11 -92 8 -162 -3
-45 -30 -133 -57 -187 -23 -44 -44 -67 -30 -33 3 8 1 15 -3 15 -5 0 -8 -35 -8
-79 2 -72 3 -79 22 -78 11 1 31 -2 45 -6 47 -12 83 22 133 124 25 52 50 117
56 144 14 62 29 225 20 220 -3 -3 -9 20 -13 50 -3 30 -15 79 -27 110 -11 30
-17 60 -13 66 4 7 3 9 -3 6 -6 -4 -22 16 -37 44 -16 27 -48 82 -72 122 -66
106 -86 167 -91 278 -6 98 16 217 37 204 5 -3 7 0 4 8 -3 8 11 47 31 87 24 49
34 78 29 93 -9 32 -44 67 -66 67 -11 0 -17 4 -14 8 3 5 -1 9 -9 9 -8 0 -12 -4
-9 -9z"/>
<path d="M4065 8209 c-16 -15 -37 -42 -46 -61 -9 -18 -22 -45 -29 -60 -7 -15
-18 -25 -23 -21 -6 3 -7 1 -3 -5 3 -6 -3 -46 -15 -89 -26 -94 -27 -222 -3
-303 8 -30 17 -65 17 -77 1 -11 6 -19 11 -15 5 3 7 -5 4 -16 -4 -12 -2 -20 3
-16 10 6 32 -43 25 -55 -3 -4 0 -13 6 -21 8 -12 8 -11 3 5 -16 52 36 -33 110
-176 36 -70 43 -94 40 -125 -4 -30 -3 -33 3 -14 8 23 9 22 15 -15 14 -83 3
-219 -15 -193 -7 9 -8 4 -4 -14 6 -28 -26 -114 -58 -153 l-16 -20 7 20 c3 11
3 17 -1 13 -13 -11 -18 -96 -7 -116 6 -12 7 -23 1 -30 -7 -9 -7 -9 1 -3 8 7
22 5 41 -5 22 -12 37 -13 58 -6 16 6 31 8 34 6 3 -2 4 -1 2 2 -3 3 8 24 24 46
37 51 86 170 95 230 4 26 10 46 14 44 3 -2 3 48 0 112 -10 163 -33 228 -153
432 -71 119 -95 183 -102 273 -8 91 11 173 66 282 22 44 40 87 40 96 0 9 -11
28 -24 42 -13 14 -20 27 -14 29 5 2 -10 3 -34 3 -32 0 -50 -6 -73 -26z"/>
<path d="M2995 6150 c-236 -3 -436 -9 -443 -13 -6 -5 -20 -23 -29 -40 -14 -28
-16 -70 -14 -317 2 -320 13 -501 42 -702 10 -75 19 -141 18 -145 -1 -4 0 -15
4 -23 8 -21 37 -160 36 -174 0 -6 -4 -2 -9 9 -7 16 -9 17 -9 3 -1 -9 5 -21 12
-25 7 -4 24 -48 36 -97 18 -69 21 -90 11 -96 -7 -4 -9 -13 -5 -20 5 -9 9 -9
14 -1 4 6 22 -34 40 -88 18 -55 30 -105 26 -112 -5 -8 -4 -10 4 -5 9 6 10 0 6
-21 -4 -17 -3 -23 2 -16 8 11 34 -42 102 -210 2 -6 -2 -6 -9 -2 -8 5 -11 3 -9
-4 3 -7 9 -12 14 -11 14 3 64 -103 59 -125 -4 -14 -3 -16 4 -7 7 11 10 9 15
-7 3 -12 1 -19 -3 -16 -4 3 -6 -4 -3 -16 4 -13 8 -17 13 -9 4 7 22 -14 44 -55
20 -36 33 -71 30 -77 -4 -6 -3 -8 3 -5 11 7 49 -52 45 -72 -2 -7 0 -11 5 -8
12 8 105 -132 97 -146 -4 -7 -4 -9 1 -5 9 9 35 -9 35 -24 0 -5 -6 -6 -12 -2
-9 6 -9 3 0 -9 8 -9 17 -15 21 -14 4 1 41 -38 82 -88 42 -49 83 -96 92 -104 9
-7 14 -18 10 -24 -3 -5 -1 -7 4 -4 10 6 68 -58 68 -75 0 -3 4 -10 9 -15 5 -5
6 -3 2 5 -15 25 11 11 47 -26 21 -21 34 -42 30 -47 -5 -4 -2 -5 5 -1 8 5 34
-11 70 -41 77 -65 125 -101 197 -145 33 -21 60 -44 60 -50 0 -7 8 -12 18 -12
9 1 44 -13 78 -31 l60 -32 -46 -1 c-25 0 -45 3 -45 8 0 4 -15 5 -32 1 -18 -4
-296 -6 -618 -6 -622 2 -625 2 -650 -45 -6 -11 -15 -18 -19 -16 -19 12 8 -84
33 -117 16 -21 25 -41 20 -48 -4 -7 -3 -9 3 -6 6 4 25 -12 43 -35 19 -23 27
-38 20 -33 -8 5 23 -27 68 -70 45 -43 82 -85 82 -92 0 -8 4 -12 9 -9 5 3 20
-3 32 -14 21 -17 21 -19 4 -13 -11 3 -17 3 -13 -1 3 -4 12 -9 20 -10 27 -4 58
-27 52 -38 -4 -7 -3 -8 4 -4 7 4 23 -4 37 -18 14 -14 28 -25 30 -25 15 0 65
-37 65 -49 0 -7 4 -11 8 -8 14 9 143 -64 136 -76 -5 -7 -2 -8 5 -4 16 10 72
-12 94 -38 10 -12 15 -15 11 -7 -5 10 -3 13 8 8 9 -3 35 -11 57 -18 30 -9 38
-15 29 -22 -9 -6 -8 -7 5 -3 24 8 73 -4 57 -14 -6 -4 4 -7 22 -7 18 0 87 -10
154 -21 67 -12 138 -22 158 -22 21 0 35 -4 31 -9 -3 -5 0 -13 6 -17 7 -4 9 -3
6 3 -4 6 0 14 8 17 9 3 502 5 1098 5 1124 0 1173 1 1352 43 50 12 102 21 117
22 14 1 24 4 22 8 -2 3 13 12 33 19 21 6 73 27 116 46 42 19 82 31 89 27 6 -4
8 -3 5 2 -3 5 31 32 76 58 120 72 210 142 322 252 55 55 104 98 108 96 5 -1 6
2 2 8 -3 6 4 14 17 19 13 6 17 10 10 10 -9 1 -3 15 16 39 60 76 88 151 62 167
-6 4 -8 10 -5 15 3 4 -14 17 -37 28 -42 20 -59 20 -711 18 l-669 -4 72 39 c39
22 76 36 82 33 6 -4 8 -2 5 3 -4 6 22 27 58 48 36 21 73 46 83 55 10 10 28 22
40 29 11 6 41 28 65 49 24 20 53 44 63 52 11 9 55 48 98 87 44 40 84 69 89 66
6 -3 7 -2 4 4 -3 5 10 27 29 49 66 72 128 145 141 164 8 11 19 18 26 16 6 -1
9 -1 5 1 -4 3 30 59 76 126 46 67 91 137 100 155 9 17 23 32 31 32 8 0 15 6
15 14 0 9 22 18 63 25 34 7 73 15 86 18 19 5 22 3 16 -8 -6 -10 -2 -9 11 2 23
20 173 61 188 52 6 -3 8 -3 4 2 -4 4 34 22 85 40 51 18 127 49 170 69 43 20
84 33 90 30 7 -4 9 -4 5 1 -5 5 31 32 80 62 48 30 102 65 121 78 18 14 38 22
44 18 5 -3 7 -1 4 4 -4 6 13 27 38 48 25 20 45 33 45 28 0 -4 5 0 11 10 6 9
16 14 22 11 7 -4 9 -3 4 1 -4 5 9 26 30 47 30 31 39 35 52 26 13 -10 14 -10 4
1 -15 17 11 61 35 61 8 0 12 3 9 7 -4 3 8 25 27 47 93 114 189 294 224 423 49
175 50 334 3 481 -11 34 -19 68 -17 75 1 6 1 8 -2 4 -2 -4 -19 18 -39 50 -48
80 -97 138 -157 185 -28 23 -50 44 -49 48 1 4 -5 7 -15 6 -9 0 -16 5 -14 12 1
8 -2 11 -8 7 -6 -4 -16 -2 -23 3 -16 13 -193 72 -220 73 -21 1 -21 1 2 8 25 7
-77 11 -344 14 l-150 2 3 106 c3 82 0 114 -12 137 -8 16 -12 33 -8 37 4 3 3 5
-3 4 -5 -2 -20 2 -32 9 -18 10 -449 13 -2000 15 -1088 1 -2171 0 -2408 -3z
m1065 -546 c0 -336 -2 -374 -16 -366 -28 15 -145 -7 -202 -39 -29 -16 -58 -27
-64 -23 -6 4 -8 3 -5 -3 6 -9 -66 -88 -81 -88 -4 0 -7 -5 -8 -11 -1 -6 -19
-35 -40 -64 -40 -56 -84 -142 -84 -166 0 -8 -7 -14 -15 -14 -16 0 -21 -16 -7
-22 4 -1 5 -46 2 -98 l-5 -95 -6 70 c-3 39 -6 -29 -6 -150 0 -123 3 -196 7
-165 4 32 8 -48 9 -190 2 -271 5 -290 70 -359 19 -20 24 -31 14 -26 -15 5 -16
4 -5 -7 7 -7 25 -15 40 -17 58 -7 982 -10 978 -2 -3 4 10 15 30 24 20 10 47
36 64 64 l30 47 0 443 c0 427 -1 446 -21 501 -12 31 -22 65 -22 74 -1 9 -3 15
-6 12 -8 -7 -61 80 -56 93 2 7 1 12 -4 10 -5 -1 -42 32 -82 75 -41 42 -69 74
-64 70 6 -3 6 -1 2 3 -4 5 -13 10 -20 11 -7 2 -38 12 -69 23 -36 13 -82 21
-122 21 l-65 0 0 364 -1 364 23 5 c12 3 701 6 1530 6 l1508 0 -6 -192 c-8
-292 -18 -448 -41 -632 -21 -172 -25 -195 -36 -195 -5 0 -6 -9 -3 -20 15 -48
-126 -606 -157 -618 -4 -2 -6 -8 -3 -12 6 -9 -55 -169 -107 -283 -22 -49 -34
-64 -41 -55 -6 9 -7 7 -3 -6 9 -27 -63 -153 -76 -135 -7 11 -8 9 -4 -5 7 -22
-73 -158 -87 -149 -6 3 -7 2 -4 -4 8 -12 -41 -79 -54 -75 -6 1 -8 -2 -4 -8 10
-17 -6 -34 -17 -19 -8 11 -9 10 -4 -4 4 -12 -13 -39 -53 -85 -105 -121 -170
-184 -182 -176 -7 4 -9 3 -5 -4 8 -13 -118 -127 -142 -127 -9 0 -17 -5 -17
-11 0 -13 -37 -45 -111 -97 -35 -24 -60 -34 -75 -31 -19 3 -20 3 -6 -4 15 -6
6 -15 -49 -45 -36 -20 -71 -34 -77 -30 -5 3 -7 1 -4 -4 4 -6 -33 -27 -86 -50
-272 -119 -508 -163 -867 -163 -113 0 -216 2 -230 4 -14 2 -54 6 -90 10 -170
20 -510 117 -510 147 0 5 -3 8 -7 8 -20 -3 -34 2 -28 11 3 5 0 7 -9 4 -27 -10
-220 106 -356 214 -155 124 -367 342 -354 364 4 6 3 8 -4 4 -10 -6 -107 114
-103 129 1 3 -7 14 -18 23 -31 27 -112 155 -107 169 3 7 1 12 -5 10 -24 -5
-226 420 -214 451 3 9 3 13 -1 9 -15 -15 -75 158 -133 388 -46 180 -73 326
-85 462 -4 34 -8 67 -11 75 -8 24 -24 311 -30 535 l-6 222 695 0 696 1 0 -376z
m3870 45 c77 -16 204 -75 194 -90 -4 -7 -3 -9 3 -6 12 7 63 -29 99 -69 41 -47
91 -137 108 -197 18 -60 21 -215 6 -282 l-9 -40 2 37 c2 20 -1 34 -6 31 -5 -3
-7 -26 -4 -51 7 -62 -52 -230 -76 -215 -6 3 -7 1 -3 -5 18 -29 -102 -201 -225
-325 -49 -49 -83 -76 -90 -71 -7 4 -9 3 -6 -3 6 -9 -69 -71 -170 -141 -60 -42
-172 -94 -184 -86 -7 4 -9 3 -6 -3 11 -17 -159 -81 -334 -127 -89 -23 -125
-28 -122 -19 3 7 9 10 14 7 5 -3 7 1 4 8 -6 17 60 170 69 161 4 -4 5 -1 1 7
-7 19 70 242 80 232 5 -4 5 -2 2 5 -6 9 50 255 69 303 3 8 8 31 10 50 1 19 6
46 9 60 5 23 18 104 45 295 15 104 28 263 36 419 l7 139 211 -6 c116 -3 236
-11 266 -18z m-3552 -603 c15 -8 41 -29 57 -47 24 -27 25 -30 5 -14 -14 11
-28 25 -32 30 -5 7 -8 7 -8 0 0 -14 36 -44 66 -55 21 -8 23 -14 19 -47 -3 -21
-2 -33 2 -28 17 22 37 8 67 -49 l31 -60 3 -385 c2 -212 0 -396 -3 -409 -13
-50 -44 -54 -451 -50 -329 3 -375 5 -390 19 -12 13 -13 18 -3 24 8 6 10 4 4
-5 -5 -9 -4 -11 4 -6 15 10 3 29 -15 22 -9 -3 -16 3 -20 17 -3 13 -4 192 -2
398 l3 374 32 68 c22 45 37 66 44 61 8 -5 9 -3 4 5 -5 8 10 31 41 63 87 89 81
88 312 88 155 0 209 -3 230 -14z m262 -2478 c0 -9 4 -8 10 2 8 12 12 13 19 2
11 -18 15 -19 32 -6 8 5 25 9 39 8 22 -3 667 -6 680 -4 40 6 178 6 155 0 -23
-6 -11 -8 48 -9 50 -1 76 3 72 9 -4 7 235 10 709 10 l716 0 -22 -25 c-11 -13
-26 -22 -31 -18 -6 3 -7 2 -4 -4 9 -15 -150 -166 -164 -157 -7 4 -9 3 -6 -3 9
-14 -89 -86 -104 -77 -8 4 -9 3 -5 -4 10 -16 -129 -94 -254 -144 -96 -38 -142
-52 -210 -64 -14 -3 -44 -9 -67 -15 -117 -26 -371 -30 -1383 -26 -972 5 -1136
9 -1126 26 2 3 -15 6 -37 7 -54 0 -258 64 -250 77 3 6 1 7 -5 3 -23 -14 -288
126 -275 146 3 6 2 8 -4 5 -13 -8 -79 41 -75 56 2 7 0 9 -3 5 -11 -11 -47 11
-39 24 4 6 3 8 -3 5 -14 -9 -168 137 -159 151 3 6 1 14 -5 18 -8 5 -9 3 -4 -7
8 -12 6 -12 -8 0 -9 7 -17 15 -17 17 0 2 400 4 890 4 705 0 890 -3 890 -12z"/>
</g>
</svg>
