<?xml version="1.0" standalone="no"?>
<!DOCTYPE svg PUBLIC "-//W3C//DTD SVG 20010904//EN" "http://www.w3.org/TR/2001/REC-SVG-20010904/DTD/svg10.dtd">
<svg xmlns="http://www.w3.org/2000/svg" version="1.0" width="1024.000000pt" height="1024.000000pt" viewBox="0 0 1024.000000 1024.000000" preserveAspectRatio="xMidYMid meet">
<metadata>
Created by potrace 1.16, written by Peter Selinger 2001-2019
<meta name="Producer" content="Online-Convert"/></metadata>
<g transform="translate(0.000000,1024.000000) scale(0.100000,-0.100000)" fill="#000000" stroke="none">
<path d="M4850 8429 c-41 -5 -111 -16 -155 -24 -44 -8 -91 -12 -105 -10 -18 4 -20 3 -7 -2 13 -6 4 -12 -37 -21 -29 -7 -100 -28 -157 -48 -57 -20 -114 -37 -126 -37 -12 -1 -19 -4 -17 -7 9 -8 -98 -50 -110 -43 -6 3 -8 2 -3 -2 4 -5 -39 -33 -95 -62 -55 -30 -120 -67 -144 -84 -45 -31 -60 -36 -48 -17 4 7 3 8 -5 4 -6 -4 -9 -11 -7 -15 3 -4 -25 -29 -62 -56 -37 -27 -79 -59 -94 -73 -14 -13 -31 -21 -37 -17 -7 3 -10 3 -9 -2 4 -11 -254 -269 -265 -265 -5 1 -6 -1 -3 -6 7 -12 -142 -208 -155 -204 -6 1 -8 -2 -4 -8 3 -5 -9 -33 -28 -62 -18 -29 -48 -81 -66 -115 -19 -35 -38 -60 -44 -56 -5 3 -7 1 -3 -5 8 -14 -58 -164 -69 -155 -4 5 -5 3 -2 -3 8 -15 -12 -74 -25 -74 -5 0 -7 -4 -4 -8 7 -12 -16 -82 -25 -76 -4 2 -11 -1 -15 -7 -4 -8 -3 -9 4 -5 7 4 12 4 12 -1 0 -18 -47 -153 -52 -148 -2 3 -4 -10 -4 -28 0 -17 -7 -75 -17 -127 -9 -52 -21 -138 -27 -190 -6 -59 -10 -903 -10 -2255 0 -1209 -4 -2154 -9 -2146 -5 8 -11 9 -15 3 -3 -6 -72 -10 -168 -11 -151 -1 -163 -3 -185 -23 -13 -12 -23 -26 -23 -32 0 -6 -7 -23 -14 -38 -9 -16 -11 -30 -5 -33 5 -4 9 -1 9 5 0 6 14 -2 31 -19 l31 -31 1256 -1 c711 0 1248 -4 1237 -9 -18 -8 -17 -9 8 -9 16 -1 26 3 22 9 -4 7 116 10 352 9 209 0 350 -4 338 -9 -18 -8 -17 -9 8 -9 16 -1 26 3 22 9 -4 7 335 10 1009 10 l1014 0 31 26 c24 20 31 34 31 60 0 43 -37 84 -77 85 -15 0 -89 0 -163 0 -74 0 -143 2 -152 5 -17 5 -18 124 -18 2193 0 1397 -4 2217 -10 2267 -20 157 -58 326 -100 448 -11 33 -18 69 -14 80 4 15 3 17 -4 7 -7 -10 -13 -4 -22 25 -21 64 -115 259 -166 342 -61 97 -164 238 -237 321 -31 36 -54 67 -52 71 2 3 -1 12 -7 20 -8 12 -8 11 -3 -5 4 -14 -6 -8 -34 19 -22 22 -38 43 -35 47 2 4 -1 11 -7 15 -8 5 -9 3 -4 -7 8 -12 6 -12 -8 0 -9 7 -14 17 -11 22 3 5 -2 9 -10 9 -8 0 -43 25 -78 55 -35 31 -115 92 -178 136 -63 45 -114 85 -113 90 2 4 -5 5 -14 2 -11 -4 -14 -3 -9 5 5 8 1 10 -10 5 -13 -5 -15 -3 -9 7 5 8 4 11 -2 7 -13 -8 -175 77 -166 88 5 4 3 5 -3 2 -16 -9 -115 33 -107 46 3 6 1 7 -6 3 -14 -9 -82 14 -75 26 3 4 -1 5 -9 2 -8 -3 -41 4 -73 16 -84 29 -202 59 -329 82 -127 22 -518 33 -645 17z m200 -169 c-8 -5 -10 -10 -5 -11 6 0 20 -2 33 -5 26 -5 30 12 5 19 -11 3 -7 5 10 6 15 0 26 -3 25 -8 -2 -5 2 -9 7 -9 6 0 9 4 8 9 -4 14 51 11 66 -3 11 -10 13 -10 7 0 -5 8 0 12 13 12 12 0 21 -3 21 -7 0 -5 28 -6 61 -5 34 2 59 0 56 -5 -3 -4 23 -9 56 -9 68 -1 235 -39 367 -83 124 -41 241 -92 235 -101 -3 -5 0 -12 6 -16 8 -4 9 -3 5 4 -11 19 1 15 85 -29 43 -23 77 -45 74 -49 -3 -5 0 -12 6 -16 8 -4 9 -3 5 4 -13 22 5 13 89 -45 46 -31 81 -61 78 -67 -3 -5 -2 -6 4 -3 5 3 20 -1 32 -10 19 -12 20 -17 10 -25 -11 -8 -10 -9 3 -4 9 3 27 -4 40 -15 13 -11 16 -17 8 -13 -9 4 -12 3 -7 -2 5 -5 14 -9 20 -9 7 -1 11 -7 9 -14 -1 -7 2 -9 9 -6 17 11 172 -147 156 -158 -8 -6 -7 -7 4 -4 10 3 31 -9 55 -34 21 -21 36 -39 33 -39 -3 0 14 -21 38 -46 24 -26 42 -54 41 -63 -2 -9 2 -15 9 -14 15 3 116 -154 108 -167 -4 -6 -12 -7 -18 -4 -8 4 -7 2 1 -7 11 -12 14 -12 21 0 12 19 30 -14 24 -43 -3 -14 -2 -17 4 -9 12 17 85 -130 76 -153 -4 -11 -2 -15 4 -11 18 12 129 -300 119 -335 -2 -10 -1 -16 4 -13 11 7 42 -168 34 -190 -5 -11 -4 -16 3 -12 6 4 14 -39 22 -121 15 -166 16 -2752 1 -2752 -5 0 -10 -5 -10 -11 0 -5 4 -7 10 -4 7 4 10 -261 10 -788 l0 -794 -31 -7 c-17 -3 -961 -6 -2099 -6 -1548 0 -2069 3 -2072 11 -3 9 -10 9 -26 0 l-22 -12 0 216 0 215 1577 0 1577 0 23 23 24 23 -1 1693 c0 1044 -4 1718 -10 1759 -5 37 -19 96 -30 132 -24 77 -23 73 -7 65 6 -4 5 0 -4 7 -9 7 -31 42 -49 78 -18 36 -41 77 -52 92 -11 16 -16 33 -12 39 4 7 3 9 -4 5 -13 -8 -75 78 -64 89 4 5 2 5 -4 2 -6 -3 -37 21 -70 54 -32 33 -80 76 -107 96 -26 19 -44 40 -40 45 3 7 1 8 -5 4 -6 -4 -30 5 -53 20 -24 14 -73 41 -111 59 -38 18 -63 35 -56 38 7 2 0 4 -17 4 -16 0 -61 10 -100 22 -51 16 -107 23 -205 27 -203 9 -354 -20 -520 -100 -36 -17 -74 -31 -85 -31 -11 0 -20 -5 -20 -12 0 -18 -83 -76 -96 -67 -7 4 -9 3 -6 -3 7 -11 -79 -88 -98 -88 -5 0 -10 -7 -10 -15 -1 -8 -7 -13 -15 -12 -8 2 -12 1 -8 -3 4 -4 -23 -46 -59 -93 -64 -83 -142 -228 -165 -304 -6 -21 -15 -38 -20 -38 -5 0 -6 -4 -3 -10 3 -5 -1 -46 -10 -91 -13 -71 -15 -284 -15 -1710 l0 -1628 -535 -1 -535 0 3 1872 c2 1030 6 1891 10 1913 4 22 14 81 23 130 13 76 44 211 70 303 3 12 11 22 16 22 5 0 7 4 4 9 -20 32 197 492 224 476 6 -3 8 0 5 7 -6 16 69 124 84 121 5 -2 8 3 6 10 -7 16 132 177 152 177 9 0 13 3 9 7 -11 11 65 82 83 76 12 -4 13 -3 3 5 -10 7 -2 19 34 50 25 23 51 39 57 35 5 -3 7 -1 4 4 -9 14 29 47 44 37 7 -4 10 -3 6 3 -14 23 277 205 438 275 118 50 206 80 221 74 8 -3 13 -2 10 3 -7 11 123 47 237 66 111 19 140 21 156 11 9 -6 12 -5 7 2 -6 10 8 12 139 20 23 1 26 -1 15 -8z m960 -2710 c-10 -6 -9 -50 1 -50 4 0 10 10 12 23 2 12 5 -650 6 -1470 l1 -1493 -67 0 c-211 -2 -945 -2 -1378 -1 -498 1 -500 2 -475 21 14 11 28 20 32 20 4 0 34 16 67 35 51 30 65 34 83 25 19 -9 20 -8 6 2 -15 11 -11 15 34 40 28 15 56 25 62 21 6 -3 8 -2 3 2 -11 13 128 86 150 79 12 -4 14 -3 5 3 -15 12 62 58 80 47 7 -4 8 -3 4 4 -4 6 6 18 23 26 23 12 31 13 34 3 4 -8 6 -7 6 3 1 9 31 33 69 55 99 57 236 152 291 201 27 24 51 41 55 39 3 -3 4 -2 2 1 -3 3 9 30 25 60 59 104 59 97 59 834 0 415 4 700 10 740 15 89 41 181 50 175 5 -3 6 3 4 12 -6 24 74 179 129 250 78 100 217 219 243 209 8 -3 13 0 11 6 -1 6 4 13 12 16 10 3 12 0 7 -13 -5 -15 -4 -16 9 -5 8 7 13 16 10 20 -9 14 79 42 172 55 90 12 170 15 153 5z"/>
</g>
</svg>
