<?xml version="1.0" standalone="no"?>
<!DOCTYPE svg PUBLIC "-//W3C//DTD SVG 20010904//EN"
 "http://www.w3.org/TR/2001/REC-SVG-20010904/DTD/svg10.dtd">
<svg version="1.0" xmlns="http://www.w3.org/2000/svg"
 width="1024.000000pt" height="1024.000000pt" viewBox="0 0 1024.000000 1024.000000"
 preserveAspectRatio="xMidYMid meet">
<metadata>
Created by potrace 1.16, written by Peter Selinger 2001-2019
</metadata>
<g transform="translate(0.000000,1024.000000) scale(0.100000,-0.100000)"
fill="#000000" stroke="none">
<path d="M2200 8025 c-73 -24 -132 -75 -170 -146 -32 -60 -35 -70 -34 -154 0
-74 6 -112 37 -215 42 -141 55 -207 57 -271 3 -132 -11 -301 -43 -524 -39
-268 -63 -496 -73 -711 -4 -73 -10 -131 -15 -129 -4 3 -5 14 -2 25 3 11 1 20
-4 20 -6 0 -8 -12 -5 -27 17 -93 11 -334 -7 -304 -6 10 -10 9 -14 -3 -7 -19 1
-46 14 -46 5 0 9 -12 8 -27 0 -16 -3 -22 -6 -15 -2 6 -9 10 -13 7 -5 -3 -7
-12 -4 -20 4 -8 10 -12 15 -9 5 3 9 -10 9 -28 0 -22 -3 -28 -9 -20 -12 19 -22
-9 -14 -39 6 -21 7 -22 13 -3 4 10 10 -66 14 -171 14 -384 18 -453 31 -615 8
-91 28 -277 45 -415 52 -423 51 -496 -11 -747 -24 -101 -37 -181 -52 -320 -2
-15 0 -25 5 -22 4 3 8 -7 8 -23 0 -15 9 -48 21 -72 15 -35 17 -46 7 -53 -10
-7 -9 -9 2 -5 16 4 57 -41 52 -58 -2 -5 0 -7 3 -3 4 4 22 -4 39 -17 88 -67
249 -73 411 -15 309 110 346 120 525 140 117 13 148 11 540 -30 476 -51 774
-68 1316 -76 363 -5 366 -5 403 -28 62 -40 233 -123 399 -195 305 -132 344
-152 330 -170 -12 -14 -11 -14 4 -3 15 12 30 6 115 -44 147 -86 214 -134 207
-146 -4 -6 -3 -8 3 -5 6 4 43 -18 81 -48 54 -42 79 -55 104 -55 44 0 76 23 86
63 12 44 -3 71 -80 142 -35 32 -62 63 -60 68 1 5 -2 6 -7 2 -13 -7 -132 80
-123 90 4 5 2 6 -3 2 -10 -5 -210 105 -242 133 -7 6 -15 10 -19 9 -11 -4 -123
54 -119 62 3 4 -5 5 -17 2 -19 -4 -21 -3 -8 7 13 10 12 11 -3 6 -46 -15 -658
277 -641 306 3 4 -1 6 -8 3 -18 -7 -151 93 -142 107 4 7 3 8 -5 4 -7 -5 -30
10 -58 38 -25 25 -49 46 -53 46 -14 0 -250 257 -385 420 -76 91 -156 186 -179
211 -144 159 -241 274 -238 283 2 6 0 8 -4 3 -10 -10 -204 184 -197 197 3 5 2
6 -4 3 -10 -6 -77 58 -107 103 -37 55 -3 115 69 121 55 4 106 -1 101 -10 -3
-5 1 -12 10 -15 9 -4 13 -2 8 5 -11 19 36 0 109 -42 37 -22 67 -44 67 -50 0
-6 4 -8 8 -5 5 3 51 -29 103 -70 108 -87 122 -100 96 -91 -11 4 -16 3 -12 -4
4 -6 13 -8 20 -5 7 2 43 -23 81 -56 38 -33 71 -62 73 -64 2 -2 -2 -12 -10 -21
-13 -16 -12 -17 3 -4 16 12 25 6 85 -50 38 -35 67 -68 65 -74 -2 -5 0 -7 4 -3
10 11 35 -12 27 -25 -3 -5 -2 -7 4 -4 6 4 28 -8 49 -26 132 -110 232 -170 268
-161 33 8 76 58 76 89 0 67 -91 360 -201 643 -43 112 -76 210 -73 220 4 11 3
13 -3 5 -6 -9 -26 27 -63 110 -29 67 -78 171 -107 231 -30 61 -51 116 -48 123
2 8 0 11 -5 8 -13 -8 -53 81 -44 97 4 6 3 8 -3 5 -13 -8 -37 38 -28 54 5 7 4
10 -3 5 -13 -8 -296 551 -331 652 -30 89 -28 136 8 173 23 23 38 29 71 29 23
0 39 -4 36 -9 -4 -5 3 -7 14 -4 16 4 20 0 21 -18 0 -20 1 -21 8 -6 6 16 13 12
52 -30 65 -71 109 -145 111 -187 1 -22 6 -36 14 -36 8 0 11 6 8 15 -13 33 6
12 43 -47 57 -90 57 -92 46 -85 -6 4 -8 -4 -5 -21 4 -23 6 -24 12 -8 5 16 11
11 33 -29 22 -38 25 -51 15 -58 -9 -6 -8 -7 4 -3 13 4 28 -14 63 -74 26 -44
44 -84 40 -90 -4 -6 -2 -9 4 -8 6 2 30 -31 53 -72 22 -41 35 -69 27 -62 -7 6
-18 12 -23 12 -6 0 2 -9 18 -19 28 -18 112 -161 96 -161 -5 0 -11 6 -13 13 -4
9 -6 9 -6 -1 -1 -8 7 -16 17 -18 9 -3 34 -36 55 -73 39 -73 44 -86 25 -75 -7
5 -8 3 -4 -5 5 -7 11 -10 14 -7 5 5 52 -76 52 -89 0 -3 -8 -2 -17 1 -15 5 -15
4 -3 -4 8 -6 17 -9 22 -6 4 3 19 -18 33 -46 14 -27 22 -50 18 -50 -5 0 -3 -4
2 -8 6 -4 23 -28 38 -54 33 -57 80 -78 128 -58 38 16 62 60 53 97 -9 36 -115
248 -242 483 -70 128 -97 187 -89 192 11 7 3 12 -15 9 -12 -2 -48 76 -40 84 4
5 3 6 -3 3 -5 -3 -29 27 -52 68 -23 41 -37 72 -32 69 5 -4 9 1 9 10 0 10 -6
15 -13 12 -15 -6 -51 48 -42 62 3 5 0 13 -6 17 -8 5 -10 2 -5 -7 11 -24 -15
17 -102 153 -45 71 -79 135 -75 141 3 7 2 9 -2 4 -11 -9 -126 163 -118 176 3
6 2 7 -4 4 -13 -8 -46 50 -37 65 4 6 3 8 -3 5 -12 -7 -29 27 -38 75 -10 50 23
88 76 88 43 0 83 -16 74 -29 -2 -5 3 -8 13 -7 9 0 16 -5 14 -12 -1 -8 2 -11 7
-8 13 8 113 -103 105 -116 -4 -6 -3 -8 3 -5 11 7 73 -74 77 -98 1 -8 6 -18 11
-22 4 -4 5 -1 1 7 -4 8 2 4 13 -10 20 -24 25 -36 22 -53 -1 -5 3 -6 8 -3 5 3
23 -17 41 -45 17 -28 25 -47 18 -43 -19 12 -39 14 -32 3 3 -5 10 -7 15 -4 5 4
9 1 9 -4 0 -6 7 -11 15 -11 20 0 55 -58 48 -79 -4 -12 -2 -13 4 -3 7 9 19 -2
46 -42 40 -59 44 -71 25 -60 -8 4 -10 3 -5 -2 5 -5 14 -9 20 -9 7 0 11 -12 9
-25 -1 -17 1 -21 6 -12 6 9 16 2 36 -28 15 -22 24 -45 21 -51 -4 -5 -1 -8 7
-7 7 2 12 -5 12 -14 -1 -10 2 -16 6 -13 10 6 53 -62 46 -73 -3 -5 4 -21 15
-38 10 -16 19 -25 19 -21 0 4 -7 19 -16 32 -9 14 -14 25 -11 25 7 0 105 -152
109 -169 2 -7 13 -25 26 -39 12 -14 20 -32 17 -39 -2 -8 -1 -12 4 -9 5 3 45
-55 90 -129 70 -118 80 -139 71 -158 -10 -20 -10 -20 3 -4 13 16 15 16 21 1 3
-9 3 -20 0 -25 -3 -5 0 -8 8 -7 8 2 12 -6 10 -22 -1 -16 1 -20 6 -12 6 8 15 0
30 -27 12 -21 22 -43 22 -47 -1 -5 -7 2 -15 16 -8 14 -14 21 -14 15 -1 -15 17
-40 28 -40 5 0 19 -12 31 -27 17 -23 30 -28 64 -28 28 0 49 7 63 19 12 11 22
18 24 16 2 -2 5 12 7 31 1 23 -9 57 -33 105 -20 38 -33 75 -29 81 4 6 3 8 -4
4 -6 -4 -26 21 -48 61 -21 38 -62 108 -91 156 -29 49 -50 94 -47 100 4 7 4 9
-1 5 -11 -11 -58 60 -49 74 4 6 3 8 -3 5 -5 -3 -18 8 -28 26 -10 18 -47 76
-82 129 -35 53 -63 100 -63 105 0 4 5 1 11 -7 9 -13 10 -13 6 0 -2 8 -9 15
-15 15 -17 0 -164 224 -156 237 4 6 3 8 -3 5 -14 -9 -116 140 -107 155 4 6 3
8 -3 5 -13 -8 -76 79 -68 93 4 6 2 9 -4 8 -6 -2 -26 19 -46 46 l-35 50 22 23
c28 30 82 45 115 32 40 -15 82 -48 79 -62 -1 -7 -1 -9 1 -5 6 10 70 -41 90
-72 9 -14 10 -20 2 -12 -16 15 -29 16 -29 1 0 -5 4 -8 9 -4 5 3 12 1 16 -5 4
-6 10 -8 15 -5 13 8 49 -43 45 -64 -2 -10 3 -18 11 -18 10 0 11 4 3 14 -6 7
-9 13 -6 13 13 0 156 -193 151 -202 -4 -6 -2 -8 4 -4 6 3 21 -8 33 -26 16 -23
18 -29 6 -19 -15 12 -17 12 -11 -3 3 -9 12 -16 19 -16 14 0 55 -51 55 -67 0
-4 -4 -2 -9 5 -7 11 -9 11 -14 -1 -4 -10 1 -14 16 -13 15 1 22 -4 21 -16 -1
-10 2 -16 6 -13 5 3 18 -8 30 -25 12 -16 18 -30 13 -30 -5 0 -9 -9 -9 -19 0
-11 4 -17 8 -15 8 5 30 -31 23 -38 -3 -3 2 -5 9 -5 11 0 13 5 5 19 -5 10 -8
18 -5 18 6 0 131 -193 132 -205 1 -5 2 -16 3 -23 0 -7 6 -10 13 -6 8 5 9 2 5
-9 -3 -9 -2 -16 4 -14 6 1 20 -15 32 -35 105 -176 170 -296 169 -311 0 -9 3
-15 7 -13 7 5 91 -133 91 -148 0 -4 -6 -4 -12 0 -8 4 -10 3 -5 -2 5 -5 12 -9
15 -9 4 0 18 -8 32 -17 51 -33 111 -24 135 22 21 40 20 44 -20 122 -20 38 -33
74 -29 80 4 7 3 8 -4 4 -11 -7 -17 6 -13 27 1 5 -3 6 -8 3 -9 -6 -34 45 -36
76 -1 10 -5 21 -10 25 -4 5 -5 -1 -1 -12 12 -34 -3 -11 -69 105 -35 62 -62
117 -58 123 3 6 2 7 -3 4 -11 -6 -161 228 -156 244 1 6 -1 8 -6 5 -10 -6 -43
48 -40 66 2 7 -2 12 -9 11 -7 -2 -18 7 -24 19 -6 12 -34 52 -60 90 -27 37 -49
70 -49 73 0 3 12 3 28 -1 44 -9 82 -26 82 -35 0 -5 9 -9 19 -9 11 0 41 -16 68
-37 51 -39 64 -53 57 -64 -2 -4 3 -12 11 -19 8 -7 15 -9 15 -4 0 4 16 -7 35
-26 19 -18 32 -37 29 -41 -2 -4 1 -11 7 -15 8 -5 9 -3 4 7 -8 12 -6 12 9 0 9
-8 15 -20 12 -28 -3 -8 -2 -12 3 -9 12 8 40 -26 130 -159 45 -65 79 -125 76
-133 -2 -7 -1 -11 4 -8 16 10 176 -277 165 -295 -4 -7 -3 -9 2 -6 12 7 67 -89
59 -103 -3 -6 -1 -10 5 -10 7 0 9 -7 6 -16 -3 -8 -2 -12 4 -9 5 3 36 -50 68
-118 68 -140 77 -164 73 -192 -1 -15 0 -16 7 -7 6 10 22 -19 53 -94 50 -124
54 -134 41 -116 -7 11 -10 11 -15 -3 -4 -9 -3 -13 3 -10 6 3 10 1 10 -5 0 -6
4 -9 8 -6 9 5 29 -39 82 -184 17 -47 41 -108 52 -137 11 -29 21 -64 22 -78 0
-14 4 -25 8 -25 3 0 19 -37 33 -82 15 -46 49 -141 76 -213 70 -190 64 -173 47
-151 -11 14 -17 16 -22 7 -5 -7 -5 -15 -2 -18 3 -4 6 -1 6 5 0 20 33 -21 63
-76 18 -34 23 -52 15 -52 -8 0 -6 -5 4 -11 11 -6 15 -16 11 -26 -4 -10 -2 -14
4 -10 6 4 14 0 17 -9 4 -10 2 -13 -7 -9 -6 4 -5 1 4 -7 26 -22 71 -107 63
-119 -5 -8 -3 -9 6 -4 10 6 12 4 7 -8 -3 -9 -2 -16 2 -14 5 1 41 -47 81 -108
93 -141 182 -255 295 -379 119 -131 175 -198 170 -206 -2 -4 1 -7 8 -7 7 -1
26 -7 43 -14 82 -33 159 76 107 151 -16 22 -16 24 3 34 10 6 43 34 71 62 29
28 56 48 60 45 3 -3 3 -1 -1 6 -4 7 1 27 11 45 14 26 18 57 18 146 0 63 -1
108 -4 101 -5 -15 -38 107 -72 261 -32 148 -33 330 -1 580 14 113 29 206 33
208 4 2 6 9 3 16 -3 7 4 100 15 207 31 299 44 679 37 1064 -4 187 -8 354 -10
370 -2 17 -7 80 -11 140 -11 187 -33 387 -75 674 -22 152 -42 308 -43 346 -6
111 11 226 54 373 51 177 59 267 30 343 -28 75 -80 132 -149 166 -49 24 -69
28 -142 28 -95 -1 -112 -6 -294 -82 -284 -121 -523 -146 -940 -98 -67 7 -157
16 -201 19 -44 4 -161 13 -260 21 -674 55 -1305 69 -1815 41 -203 -11 -722
-55 -895 -76 -328 -39 -495 -35 -691 16 -116 30 -258 87 -247 99 4 4 3 5 -3 2
-6 -3 -50 8 -99 25 -107 36 -217 46 -285 23z m180 -201 c17 -3 28 -9 25 -14
-3 -5 0 -12 6 -16 8 -4 9 -3 5 4 -4 7 -1 12 9 12 10 0 13 -5 9 -12 -4 -7 -3
-8 4 -4 6 4 53 -11 104 -33 51 -22 106 -43 121 -46 15 -4 25 -10 23 -14 -3 -4
3 -7 12 -7 9 0 64 -11 121 -23 230 -49 332 -49 840 0 173 17 331 29 352 27 20
-2 36 -1 33 3 -3 6 91 14 271 24 44 2 128 7 186 10 257 15 1115 3 1419 -20 36
-2 103 -7 150 -10 192 -12 374 -26 525 -40 501 -46 729 -38 952 36 35 11 68
17 74 13 8 -5 9 -3 4 6 -6 10 -4 12 9 7 9 -4 15 -3 12 1 -7 12 121 65 135 56
7 -4 9 -3 5 4 -6 10 47 31 118 47 45 10 92 -11 110 -49 17 -37 19 -57 10 -106
-4 -17 -10 -27 -14 -21 -3 7 -6 -3 -6 -21 0 -18 -15 -87 -34 -153 -33 -117
-34 -125 -34 -305 1 -161 5 -217 37 -430 76 -506 104 -962 94 -1515 -8 -401
-27 -647 -88 -1155 -29 -237 -23 -473 15 -635 27 -115 30 -133 16 -100 l-9 20
0 -20 c0 -11 4 -29 9 -40 l9 -20 1 20 1 20 8 -20 c17 -40 24 -88 12 -81 -7 5
-9 1 -5 -8 3 -9 10 -14 14 -11 14 9 16 -76 3 -114 -15 -43 -58 -81 -94 -81
-28 0 -54 21 -41 35 4 5 2 5 -4 2 -15 -9 -68 48 -59 64 5 7 4 10 -3 5 -19 -12
-208 236 -196 257 4 7 3 9 -1 4 -11 -9 -46 43 -38 56 3 6 2 7 -3 4 -13 -8
-112 171 -172 313 -27 63 -77 194 -110 290 -33 96 -79 227 -101 290 -22 63
-39 124 -36 135 3 11 2 14 -1 6 -5 -9 -173 385 -174 407 0 2 5 0 12 -4 7 -4 8
-3 4 5 -4 6 -11 9 -15 7 -4 -3 -36 57 -70 132 -35 75 -106 220 -159 321 -54
102 -96 188 -95 193 2 4 -1 8 -6 8 -5 0 -25 28 -44 63 -20 34 -58 97 -86 140
-28 43 -49 83 -45 88 3 5 1 8 -4 7 -5 -2 -45 44 -87 101 -135 180 -282 316
-407 376 -37 18 -65 34 -63 37 3 2 -52 5 -121 5 -70 0 -120 -4 -112 -8 10 -7
9 -9 -4 -9 -20 0 -50 39 -41 53 3 6 1 7 -4 4 -6 -4 -36 23 -66 61 -31 37 -78
89 -106 116 -28 27 -48 53 -45 58 3 5 0 7 -8 6 -7 -2 -12 4 -10 12 2 8 0 12
-4 8 -10 -11 -35 12 -27 25 4 6 1 7 -6 3 -7 -5 -20 -1 -29 7 -9 9 -42 27 -72
41 -79 37 -161 36 -239 -4 -32 -16 -61 -27 -63 -24 -3 2 -11 -4 -19 -13 -13
-17 -13 -17 6 -4 17 13 17 11 -2 -9 l-22 -23 -40 36 c-50 45 -116 87 -136 87
-9 0 -14 3 -12 8 3 4 -5 8 -16 8 -12 1 -47 5 -77 9 -44 6 -67 3 -115 -14 -33
-12 -65 -23 -72 -23 -7 -1 -10 -4 -8 -8 2 -4 -6 -17 -20 -30 -41 -39 -67 -114
-63 -185 2 -51 0 -63 -12 -63 -38 0 -134 -32 -173 -58 -23 -16 -46 -27 -50
-26 -5 1 -6 -1 -3 -6 3 -5 -6 -25 -20 -45 -13 -20 -27 -50 -30 -67 -4 -16 -9
-30 -13 -30 -3 0 -6 -32 -6 -70 0 -39 2 -65 4 -59 3 10 63 -155 64 -178 0 -7
3 -13 7 -13 6 0 40 -64 40 -76 0 -3 -4 -2 -10 1 -5 3 -10 1 -10 -4 0 -6 7 -11
15 -11 20 0 67 -94 58 -116 -4 -11 -2 -15 4 -11 6 4 14 0 17 -9 3 -8 2 -12 -4
-9 -6 3 -10 1 -10 -4 0 -6 6 -11 14 -11 20 0 61 -81 45 -91 -16 -10 -2 -42 15
-36 8 3 17 -1 20 -9 4 -10 2 -13 -7 -8 -6 4 -2 -3 10 -15 30 -29 57 -82 46
-90 -21 -14 -11 -47 19 -60 33 -15 81 -102 71 -129 -4 -9 -2 -13 4 -9 6 4 14
0 17 -9 3 -8 2 -13 -2 -11 -4 3 -16 1 -27 -4 l-20 -9 20 1 c11 1 25 1 31 0 15
-1 67 -99 59 -111 -3 -5 -1 -10 5 -10 7 0 10 -7 6 -15 -3 -8 1 -18 8 -22 20
-12 78 -133 72 -150 -3 -8 -2 -12 3 -9 5 3 36 -56 69 -132 82 -185 84 -192 68
-192 -7 0 -13 -7 -13 -15 0 -11 4 -12 13 -4 8 7 14 6 20 -2 4 -7 3 -9 -3 -6
-6 4 -13 -2 -16 -13 -5 -19 12 -24 24 -7 8 11 128 -303 129 -337 0 -4 -51 40
-112 100 -62 59 -112 112 -110 117 1 4 -2 6 -7 3 -8 -5 -36 20 -36 33 0 3 -3
5 -7 4 -4 -2 -17 10 -28 25 -12 15 -25 27 -28 26 -13 -2 -61 39 -56 48 3 5 2
8 -3 7 -20 -4 -27 2 -13 12 13 9 13 10 -2 6 -20 -7 -71 30 -62 45 4 6 2 8 -4
4 -13 -8 -164 99 -154 109 4 5 2 5 -4 2 -6 -4 -36 7 -65 23 -171 95 -360 92
-469 -7 -22 -19 -40 -29 -43 -23 -3 6 -4 5 -3 -2 2 -7 -5 -29 -15 -49 -10 -20
-21 -60 -25 -88 -4 -35 -10 -48 -15 -39 -10 15 -12 6 -3 -16 3 -9 10 -14 14
-11 4 3 11 -7 15 -23 3 -15 20 -49 36 -75 16 -26 26 -53 23 -59 -4 -6 -3 -8 3
-5 13 8 66 -47 56 -58 -5 -4 -3 -5 4 -2 13 8 275 -261 267 -274 -3 -5 0 -8 7
-7 7 2 18 -7 24 -19 7 -13 15 -20 19 -15 5 4 6 -2 4 -13 -2 -11 2 -19 9 -18
14 3 296 -324 296 -343 0 -7 4 -11 8 -8 11 6 50 -47 42 -59 -3 -5 -1 -7 4 -4
13 8 47 -28 39 -41 -3 -5 4 -18 17 -28 l22 -19 -20 25 c-12 15 -5 12 18 -9 20
-19 36 -42 34 -50 -1 -9 4 -16 10 -16 18 0 74 -65 67 -76 -3 -5 -2 -8 3 -7 5
2 65 -49 132 -113 l124 -117 -44 5 c-24 3 -48 9 -53 14 -6 5 -15 9 -20 9 -6 0
-4 -5 4 -10 20 -13 8 -13 -335 1 -174 7 -285 16 -294 23 -12 9 -13 8 -7 -3 6
-10 4 -12 -10 -7 -11 3 -71 8 -134 10 -151 7 -370 28 -366 35 2 3 -16 4 -40 2
-24 -1 -52 0 -62 5 -9 4 -21 6 -26 5 -22 -5 -225 23 -220 31 3 4 0 8 -5 8 -6
0 -11 -6 -11 -12 0 -8 -3 -9 -8 -3 -4 6 -87 10 -214 10 -113 0 -201 -3 -195
-7 7 -5 0 -8 -15 -8 -51 0 -193 -39 -351 -95 -174 -62 -230 -75 -285 -68 -125
17 -142 95 -78 353 49 197 70 368 61 495 -3 55 -20 204 -36 330 -63 499 -85
907 -75 1390 3 171 8 321 10 335 2 14 7 75 11 135 3 61 13 180 21 265 15 153
23 221 65 515 26 190 32 402 14 515 -8 47 -30 141 -50 209 -37 133 -42 181
-22 221 16 33 74 62 110 55 15 -3 41 -8 57 -11z"/>
</g>
</svg>
