<?xml version="1.0" standalone="no"?>
<!DOCTYPE svg PUBLIC "-//W3C//DTD SVG 20010904//EN" "http://www.w3.org/TR/2001/REC-SVG-20010904/DTD/svg10.dtd">
<svg xmlns="http://www.w3.org/2000/svg" version="1.0" width="1024.000000pt" height="1024.000000pt" viewBox="0 0 1024.000000 1024.000000" preserveAspectRatio="xMidYMid meet">
<metadata>
Created by potrace 1.16, written by Peter Selinger 2001-2019
<meta name="Producer" content="Online-Convert"/></metadata>
<g transform="translate(0.000000,1024.000000) scale(0.100000,-0.100000)" fill="#000000" stroke="none">
<path d="M4930 8039 c-283 -17 -558 -86 -770 -194 -28 -14 -55 -23 -61 -20 -5 4 -8 2 -7 -3 3 -8 -126 -102 -140 -102 -2 0 2 8 9 18 13 15 12 16 -3 3 -10 -7 -16 -17 -13 -21 3 -4 -20 -27 -51 -51 -31 -24 -81 -73 -112 -109 -31 -36 -60 -64 -66 -62 -6 2 -8 0 -4 -3 4 -4 2 -17 -3 -28 -9 -16 -13 -17 -21 -6 -7 11 -8 9 -6 -6 1 -11 -16 -56 -39 -101 -46 -91 -69 -179 -79 -304 -4 -47 -12 -89 -18 -93 -7 -6 -4 -7 7 -3 16 5 18 1 16 -27 -1 -17 1 -39 4 -47 19 -50 37 -132 31 -143 -4 -7 -4 -9 1 -5 11 10 47 -71 38 -86 -3 -6 -2 -8 2 -3 5 4 21 -13 37 -38 30 -48 34 -60 18 -50 -5 3 -10 1 -10 -5 0 -7 7 -10 15 -6 8 3 18 -1 22 -9 5 -8 33 -42 63 -76 30 -34 53 -67 52 -73 -2 -6 0 -8 3 -4 12 11 46 -11 39 -25 -4 -7 -4 -9 1 -5 4 4 32 -13 63 -38 30 -25 74 -56 98 -70 31 -19 42 -30 39 -45 -2 -11 0 -17 6 -14 5 4 7 11 4 16 -9 13 -1 11 39 -8 19 -9 32 -21 29 -26 -3 -6 -1 -7 4 -4 6 4 39 -6 74 -22 35 -16 110 -43 167 -61 59 -19 102 -38 102 -45 0 -7 7 -16 16 -19 15 -6 15 -4 3 11 -12 14 -9 14 20 -3 35 -20 74 -71 65 -86 -3 -4 -1 -8 5 -8 19 0 23 -78 7 -127 -15 -45 -78 -137 -88 -128 -2 2 -5 -11 -6 -30 -6 -80 41 -105 150 -81 97 22 222 63 280 92 26 13 57 24 68 24 12 0 19 4 16 9 -9 14 26 23 37 9 6 -10 7 -8 4 4 -4 12 5 23 31 39 20 12 43 22 50 22 6 0 10 2 8 5 -4 3 79 72 87 72 2 0 32 29 68 64 63 61 68 64 155 85 49 11 100 19 112 16 12 -2 20 0 17 4 -6 11 62 24 78 15 6 -4 9 -3 4 1 -9 10 146 59 186 58 21 0 25 2 15 9 -9 7 -7 8 10 5 12 -3 20 -2 17 3 -6 10 135 71 148 63 6 -3 7 -1 3 5 -7 11 7 17 29 12 5 -1 7 2 3 6 -5 4 16 22 45 39 34 21 54 28 59 21 5 -7 8 -5 8 5 0 19 84 81 95 71 5 -4 5 -2 2 4 -7 12 92 101 106 96 5 -1 6 2 3 7 -3 5 8 21 25 35 17 14 28 26 25 26 -3 0 14 28 39 62 61 82 111 188 137 289 17 70 20 102 15 204 -8 173 -47 286 -151 437 -24 37 -42 69 -38 74 4 4 2 4 -4 1 -14 -8 -86 71 -78 85 4 7 2 8 -5 4 -15 -10 -43 13 -34 27 3 5 2 7 -4 4 -6 -4 -30 12 -54 35 -24 23 -47 41 -51 40 -4 -1 -31 13 -60 32 -114 72 -248 130 -399 172 -54 15 -96 30 -94 33 2 3 -13 6 -33 7 -21 0 -86 8 -147 17 -179 27 -399 37 -585 26z m115 -159 c-14 -6 -15 -9 -4 -9 8 -1 20 4 26 10 23 23 482 -9 467 -32 -3 -5 2 -6 11 -3 28 11 135 -17 136 -35 0 -10 2 -12 6 -3 6 16 13 16 94 -9 43 -13 66 -25 62 -32 -4 -6 0 -8 10 -4 9 3 36 -2 59 -13 24 -10 36 -19 28 -19 -13 -1 -13 -2 0 -11 20 -13 33 -13 25 1 -4 5 25 -6 64 -25 39 -20 69 -41 67 -48 -1 -7 -1 -10 1 -5 8 13 21 7 54 -25 18 -18 29 -27 24 -19 -5 8 8 2 28 -13 20 -15 35 -31 34 -34 -1 -4 1 -7 4 -7 15 0 48 -39 42 -49 -3 -6 -2 -8 2 -3 10 9 47 -22 40 -34 -3 -4 0 -11 6 -15 8 -5 9 -3 4 7 -5 8 1 5 14 -5 12 -11 19 -26 16 -33 -2 -8 0 -11 5 -8 10 6 85 -103 76 -112 -3 -3 1 -12 9 -19 19 -19 48 -121 49 -171 1 -24 5 -43 10 -43 9 0 2 -106 -10 -169 -5 -23 -9 -29 -15 -19 -6 8 -7 1 -3 -17 4 -23 -4 -50 -35 -110 -47 -94 -127 -198 -144 -188 -7 3 -9 2 -4 -2 10 -11 -33 -56 -46 -48 -6 3 -7 1 -3 -5 16 -27 -286 -224 -316 -206 -6 4 -8 3 -5 -3 10 -16 -118 -64 -151 -58 -21 4 -22 3 -8 -3 19 -8 18 -9 -5 -16 -131 -37 -264 -66 -281 -60 -12 3 -18 2 -15 -3 8 -12 -86 -35 -110 -27 -13 4 -14 3 -5 -3 9 -7 1 -15 -30 -29 -23 -10 -60 -38 -81 -61 -22 -24 -44 -40 -50 -36 -5 3 -7 1 -3 -5 8 -13 -102 -94 -117 -85 -5 3 -7 1 -4 -5 9 -13 -90 -75 -105 -66 -6 4 -8 3 -5 -3 4 -7 -36 -30 -98 -57 -58 -25 -108 -46 -111 -46 -3 0 3 11 14 25 43 54 33 195 -19 281 -10 17 -15 34 -11 38 4 4 0 6 -8 4 -9 -2 -14 4 -13 15 0 10 -1 16 -4 13 -10 -9 -64 35 -57 46 4 6 3 8 -3 5 -6 -4 -33 4 -61 18 -28 13 -71 30 -96 36 -25 6 -44 15 -41 19 3 5 -3 6 -13 3 -11 -2 -25 2 -33 10 -8 7 -19 12 -25 10 -13 -4 -203 88 -269 132 -184 123 -320 288 -371 454 -21 68 -29 225 -15 294 7 31 16 55 21 52 4 -3 6 3 3 14 -5 22 50 140 74 159 9 6 13 12 9 12 -11 0 51 77 112 137 91 91 241 191 263 177 7 -4 9 -3 6 3 -8 13 20 26 35 16 7 -3 8 -1 4 5 -8 14 40 36 56 26 6 -4 8 -2 4 4 -4 6 15 18 46 30 143 52 240 76 413 102 126 19 306 25 270 10z"/>
<path d="M2430 6814 c-251 -29 -396 -72 -562 -166 -72 -41 -83 -45 -72 -26 4 7 3 8 -5 4 -6 -4 -9 -11 -6 -16 7 -11 -43 -42 -57 -34 -7 4 -8 3 -4 -4 8 -13 -28 -35 -39 -24 -3 4 -5 2 -3 -4 4 -16 -72 -75 -85 -67 -5 3 -7 2 -4 -4 8 -13 -57 -76 -67 -66 -4 5 -6 1 -4 -7 2 -10 -4 -14 -17 -13 -11 1 -14 0 -7 -3 20 -9 -25 -54 -47 -47 -12 3 -13 2 -3 -4 10 -8 8 -15 -9 -36 -11 -15 -24 -25 -29 -22 -5 3 -12 0 -16 -6 -4 -8 -3 -9 4 -5 7 4 12 3 12 -3 0 -5 -5 -13 -10 -16 -6 -4 -30 -35 -54 -71 -23 -35 -45 -61 -48 -58 -3 3 -5 -1 -5 -8 1 -7 -17 -49 -39 -93 -119 -230 -169 -496 -143 -756 7 -68 13 -136 13 -151 1 -16 4 -28 9 -28 4 0 7 -10 7 -22 0 -13 20 -81 44 -152 24 -71 41 -138 39 -150 -4 -18 -3 -19 7 -6 10 12 11 11 7 -8 -3 -12 -2 -20 3 -17 12 7 51 -91 44 -112 -4 -12 -3 -14 3 -6 6 8 16 -8 32 -49 20 -50 21 -62 10 -70 -11 -8 -10 -9 3 -5 14 5 24 -18 62 -131 53 -163 91 -321 67 -284 -7 11 -9 11 -14 -2 -4 -11 -1 -16 12 -16 16 0 20 -13 30 -88 6 -49 11 -157 11 -242 0 -133 -2 -155 -17 -167 -10 -8 -12 -11 -4 -7 12 6 13 -5 7 -67 -9 -101 -27 -189 -38 -189 -5 0 -7 -8 -3 -19 13 -41 -132 -551 -156 -551 -6 0 -8 -4 -5 -9 8 -13 -24 -102 -35 -95 -5 3 -6 -2 -3 -10 3 -8 -2 -31 -11 -50 -19 -41 -14 -77 14 -105 11 -11 17 -22 14 -25 -9 -9 51 4 75 16 31 16 60 82 131 300 189 582 232 984 147 1388 -27 129 -86 319 -145 464 -22 53 -39 102 -37 109 1 7 1 8 -2 3 -7 -15 -100 224 -128 332 -14 53 -27 125 -27 158 -1 34 -5 60 -9 57 -5 -2 -8 57 -8 131 0 81 4 136 10 136 5 0 7 7 4 15 -13 34 55 305 77 305 6 0 8 4 4 9 -8 14 67 161 78 154 6 -3 7 -1 3 5 -19 31 249 349 299 356 11 2 20 8 20 15 0 17 75 72 88 64 6 -3 7 -2 4 4 -8 13 50 46 65 37 7 -4 8 -3 4 4 -9 14 130 86 151 78 8 -3 12 -2 9 2 -7 12 91 45 105 36 7 -4 9 -3 6 3 -8 12 82 33 159 38 31 2 58 6 62 9 3 3 60 5 126 4 115 -2 117 -2 46 -8 -63 -6 -54 -7 55 -6 139 0 245 -17 245 -41 0 -7 7 -13 16 -13 8 0 13 -4 9 -9 -3 -5 -1 -12 4 -15 15 -10 6 25 -10 36 -12 8 -12 9 1 6 74 -22 148 -53 143 -61 -3 -6 -1 -7 5 -3 14 9 123 -45 115 -57 -3 -6 -1 -7 5 -3 15 9 104 -52 96 -65 -3 -6 -13 -8 -23 -4 -13 5 -14 4 -3 -7 10 -10 17 -10 31 -1 16 10 26 7 63 -22 23 -19 43 -40 43 -47 0 -7 5 -13 10 -13 6 0 23 -9 37 -21 20 -15 26 -28 22 -45 -3 -18 -2 -19 4 -6 6 15 10 15 23 5 36 -30 110 -128 104 -138 -4 -6 -1 -9 5 -8 16 4 122 -173 116 -195 -6 -23 15 -77 30 -77 12 0 47 -110 64 -199 6 -30 14 -131 20 -225 8 -152 17 -209 45 -295 5 -17 4 -22 -5 -16 -8 5 -11 3 -8 -6 3 -8 11 -13 17 -11 7 1 9 -7 5 -25 -3 -17 -2 -23 3 -16 6 9 20 -11 45 -61 28 -57 34 -76 25 -86 -9 -9 -8 -11 5 -8 23 4 101 -117 95 -149 -2 -12 0 -23 4 -23 5 0 9 8 10 18 0 13 2 14 6 2 4 -8 12 -21 20 -28 7 -8 11 -18 8 -23 -4 -5 -2 -9 4 -9 14 0 39 -52 33 -69 -2 -8 0 -11 6 -7 12 7 25 -22 15 -36 -3 -7 -1 -8 5 -4 11 7 14 3 16 -26 1 -7 5 -16 10 -20 16 -11 12 -96 -6 -114 -9 -9 -51 -23 -94 -30 -42 -7 -98 -25 -124 -38 -26 -14 -51 -22 -55 -18 -4 4 -5 2 -4 -3 5 -16 -34 -75 -44 -68 -6 3 -7 1 -3 -5 4 -6 1 -22 -5 -34 -8 -15 -16 -97 -21 -228 -7 -214 -21 -295 -59 -357 -11 -18 -25 -31 -29 -28 -5 3 -12 0 -16 -6 -4 -8 -3 -9 4 -5 7 4 12 3 12 -3 0 -14 -82 -71 -93 -64 -6 3 -7 1 -4 -4 11 -17 -146 -84 -185 -78 -26 4 -28 3 -8 -3 21 -7 14 -10 -45 -26 -103 -26 -297 -82 -319 -91 -12 -5 -17 -5 -13 2 3 5 0 10 -8 10 -11 0 -12 -4 -4 -13 8 -9 4 -16 -13 -25 -13 -7 -27 -12 -31 -11 -5 1 -6 -1 -3 -6 3 -5 -6 -20 -20 -33 -46 -43 -81 -130 -85 -216 -2 -23 -5 -40 -9 -38 -3 2 -5 -25 -5 -61 0 -35 3 -64 6 -64 3 0 9 -71 13 -157 8 -188 9 -192 16 -188 3 2 14 -4 25 -12 16 -13 17 -15 3 -10 -10 4 -18 2 -18 -3 0 -27 99 6 124 41 7 10 16 16 19 13 4 -4 2 9 -4 27 -5 19 -10 135 -11 259 -2 192 0 231 15 263 11 25 21 36 28 31 7 -4 9 -3 6 3 -16 25 106 89 151 79 15 -3 20 -2 12 1 -8 3 42 21 111 39 70 18 161 46 204 63 42 17 82 28 87 25 6 -4 8 -2 5 4 -4 6 16 23 45 40 29 16 61 39 72 51 10 11 23 18 27 15 5 -3 9 0 9 6 0 6 13 28 29 48 81 103 108 213 114 462 4 168 12 207 50 238 12 10 150 41 199 45 9 1 14 5 12 9 -3 4 -1 8 5 8 16 0 71 60 85 94 38 90 27 167 -43 313 -27 56 -46 105 -43 109 4 4 1 3 -7 -1 -11 -6 -13 -4 -8 9 4 9 3 15 -2 12 -9 -6 -130 173 -166 243 -28 56 -66 161 -76 215 -6 28 -14 128 -19 221 -6 106 -17 200 -29 251 -11 44 -18 92 -15 105 4 15 2 19 -3 12 -6 -8 -17 9 -32 50 -29 75 -86 192 -113 229 -11 16 -16 33 -13 38 4 6 2 9 -2 8 -13 -4 -143 168 -135 178 4 4 2 4 -4 1 -12 -7 -107 85 -99 96 3 4 2 5 -2 2 -3 -3 -29 15 -57 38 -28 24 -63 52 -78 61 -15 10 -25 23 -21 29 3 5 1 7 -4 4 -6 -4 -41 11 -77 33 -37 23 -82 48 -101 57 -19 9 -31 21 -28 26 3 6 1 7 -6 3 -6 -4 -21 -4 -32 -1 -17 6 -19 9 -8 17 11 8 11 9 -2 5 -10 -3 -64 9 -120 28 -57 18 -147 40 -199 49 -99 16 -289 27 -350 20z"/>
<path d="M7560 6807 c-58 -6 -127 -10 -155 -10 -33 0 -42 -2 -26 -6 19 -5 7 -11 -55 -25 -43 -10 -101 -27 -127 -37 -27 -10 -54 -16 -60 -15 -7 1 -9 1 -4 -2 11 -6 -148 -80 -169 -79 -11 1 -18 -3 -17 -10 2 -6 -21 -26 -50 -44 -126 -77 -275 -217 -368 -344 -28 -38 -60 -73 -72 -77 -14 -4 -16 -6 -6 -7 13 -1 7 -19 -28 -86 -93 -178 -137 -349 -147 -570 -9 -181 -17 -254 -26 -230 -5 13 -7 3 -7 -30 0 -57 -57 -210 -75 -198 -7 3 -8 1 -4 -5 10 -17 -52 -112 -70 -105 -7 3 -14 0 -14 -7 0 -6 5 -8 10 -5 18 11 11 -5 -33 -70 -24 -36 -47 -63 -50 -60 -4 3 -5 2 -2 -1 6 -10 -64 -144 -76 -144 -5 0 -8 -4 -4 -10 3 -5 -1 -26 -10 -46 -8 -20 -15 -46 -16 -58 0 -20 -1 -20 -9 -1 -4 12 -6 -7 -2 -44 4 -47 2 -62 -6 -57 -8 5 -10 2 -6 -8 3 -9 10 -13 15 -10 5 3 9 -3 9 -13 0 -11 14 -41 32 -69 18 -27 31 -53 30 -57 -1 -5 2 -6 7 -3 5 3 28 -3 52 -13 24 -11 67 -22 94 -26 141 -19 146 -27 156 -289 11 -260 24 -316 99 -427 21 -32 36 -60 32 -65 -4 -4 -2 -5 3 -1 14 7 97 -58 87 -67 -4 -4 -2 -6 3 -4 6 1 24 -3 42 -11 22 -9 30 -18 26 -29 -4 -13 -3 -14 5 -4 8 12 15 11 42 -3 48 -25 132 -53 230 -76 175 -42 277 -80 265 -100 -4 -5 -1 -8 7 -7 7 2 12 -3 10 -10 -1 -8 2 -11 8 -7 6 4 18 -10 27 -32 21 -49 28 -216 15 -388 -7 -102 -7 -137 4 -163 23 -56 91 -65 126 -17 14 18 19 62 29 226 12 226 7 323 -22 388 -10 24 -16 48 -12 54 3 6 1 7 -5 3 -11 -7 -17 6 -13 27 1 5 -2 6 -7 3 -5 -3 -22 8 -38 25 -47 50 -134 87 -316 135 -183 48 -325 105 -312 125 5 8 3 9 -5 4 -15 -9 -63 33 -54 48 3 6 2 7 -4 4 -13 -8 -45 28 -71 79 -30 58 -41 137 -47 334 -4 96 -10 190 -15 209 -14 52 -69 126 -102 139 -17 6 -28 15 -25 19 3 4 -5 9 -16 9 -63 5 -181 34 -199 50 -28 26 -19 96 25 188 39 82 114 201 127 201 4 0 12 4 17 9 5 5 3 6 -4 2 -20 -11 -16 -2 22 55 19 30 35 58 35 64 0 5 5 3 11 -5 9 -13 10 -12 5 2 -3 9 6 37 20 61 30 55 72 172 85 241 5 28 14 134 19 236 11 227 36 334 115 495 62 128 151 258 168 249 7 -4 9 -4 5 1 -26 28 319 311 353 289 7 -4 9 -3 6 3 -4 6 22 23 61 40 107 48 138 56 164 43 21 -10 21 -10 5 3 -16 13 -10 17 65 38 66 18 107 23 203 23 96 -1 107 1 55 6 -54 5 -44 7 63 8 70 1 127 -1 127 -5 0 -5 31 -9 68 -10 104 -3 372 -91 430 -142 10 -9 24 -17 31 -19 25 -5 101 -63 96 -73 -3 -5 0 -6 8 -3 14 5 32 -11 32 -30 0 -5 9 -10 19 -12 23 -3 116 -92 113 -108 -1 -6 3 -10 10 -9 19 4 75 -69 60 -79 -8 -5 -6 -8 6 -8 11 0 27 -10 38 -22 21 -26 25 -43 7 -32 -7 4 -8 3 -4 -5 4 -6 11 -9 15 -6 16 9 116 -169 105 -187 -4 -6 -3 -8 4 -4 22 14 118 -287 110 -345 -3 -15 -1 -26 2 -24 12 8 20 -127 13 -215 -6 -66 -9 -78 -14 -55 -5 18 -6 8 -2 -25 5 -55 -17 -173 -53 -280 -34 -103 -98 -249 -107 -243 -6 3 -7 1 -4 -5 10 -14 -84 -242 -96 -235 -6 3 -7 1 -3 -5 4 -7 -8 -60 -27 -119 -19 -60 -41 -134 -47 -165 -7 -32 -17 -55 -21 -52 -5 3 -6 -1 -4 -9 3 -7 -1 -56 -10 -108 -8 -52 -15 -120 -15 -151 0 -32 -3 -58 -8 -58 -7 0 -1 -150 13 -314 5 -55 3 -76 -4 -71 -6 3 -11 -1 -11 -10 0 -11 5 -15 14 -12 10 4 16 -8 21 -49 3 -29 3 -59 -1 -66 -4 -7 -3 -9 2 -5 12 12 44 -140 39 -188 -4 -33 -3 -35 3 -10 l8 30 7 -38 c5 -20 5 -42 1 -49 -4 -7 -3 -8 4 -4 7 4 12 1 12 -8 0 -8 20 -80 45 -161 25 -80 43 -151 39 -157 -5 -7 -3 -8 6 -3 10 6 12 3 8 -13 -4 -12 -2 -20 2 -17 11 7 33 -62 24 -76 -4 -7 -3 -9 3 -6 15 10 33 -45 22 -66 -6 -10 -5 -18 1 -22 5 -3 10 0 10 7 0 7 10 -3 22 -22 12 -19 21 -42 20 -50 -2 -12 -1 -12 6 -2 6 8 18 11 35 7 21 -6 33 -1 57 23 16 17 30 37 30 45 0 9 -16 57 -35 107 -19 51 -33 96 -29 101 3 5 1 9 -4 9 -9 0 -71 174 -77 214 -1 12 -7 34 -14 49 -16 42 -67 249 -85 347 -31 176 -39 280 -33 458 6 178 34 363 57 370 5 2 7 8 4 14 -10 16 38 170 49 156 6 -9 7 -7 3 5 -3 10 5 49 18 86 41 119 160 390 168 385 4 -3 5 1 2 9 -3 8 4 37 15 65 31 78 68 236 82 346 14 119 6 318 -17 426 -9 41 -17 87 -18 102 -1 14 -3 24 -5 22 -3 -2 -17 29 -32 71 -32 87 -93 218 -121 257 -11 16 -16 33 -13 38 4 6 2 9 -3 8 -13 -4 -64 71 -56 83 3 5 1 8 -4 7 -5 -2 -40 32 -76 74 -36 42 -105 112 -153 154 -49 42 -87 81 -85 86 1 5 -2 7 -8 3 -5 -3 -36 12 -67 33 -32 22 -92 56 -133 77 -41 21 -77 40 -80 44 -3 3 -9 6 -15 6 -5 1 -53 15 -106 32 -176 58 -375 79 -579 60z"/>
</g>
</svg>
