<?xml version="1.0" standalone="no"?>
<!DOCTYPE svg PUBLIC "-//W3C//DTD SVG 20010904//EN"
 "http://www.w3.org/TR/2001/REC-SVG-20010904/DTD/svg10.dtd">
<svg version="1.0" xmlns="http://www.w3.org/2000/svg"
 width="1024.000000pt" height="1024.000000pt" viewBox="0 0 1024.000000 1024.000000"
 preserveAspectRatio="xMidYMid meet">
<metadata>
Created by potrace 1.16, written by Peter Selinger 2001-2019
</metadata>
<g transform="translate(0.000000,1024.000000) scale(0.100000,-0.100000)"
fill="#000000" stroke="none">
<path d="M2287 7906 c-25 -38 -21 -51 30 -93 26 -21 55 -45 64 -53 9 -8 29
-23 44 -33 23 -17 25 -20 10 -31 -15 -10 -14 -12 4 -12 11 0 17 4 15 8 -3 4
-1 8 4 8 15 0 33 -26 24 -35 -4 -5 -1 -5 6 -1 15 9 154 -96 164 -125 4 -11 12
-17 18 -14 14 9 92 -54 84 -67 -4 -6 -3 -8 3 -5 5 4 29 -8 53 -25 24 -18 38
-34 32 -36 -7 -2 -12 -8 -12 -14 0 -6 6 -6 15 2 12 10 40 -8 161 -102 81 -62
148 -122 150 -132 1 -10 6 -21 10 -24 4 -4 4 1 1 11 -4 9 -2 17 3 17 6 0 10
-4 10 -10 0 -5 5 -10 11 -10 6 0 50 -30 97 -67 47 -38 111 -87 141 -110 31
-23 56 -48 56 -55 1 -7 7 -12 14 -10 18 4 42 -18 34 -31 -3 -6 -1 -7 5 -3 16
9 255 -172 246 -186 -4 -7 -3 -8 5 -4 10 7 67 -26 84 -49 4 -5 6 -36 5 -67 -2
-53 -4 -57 -23 -52 -11 4 -33 16 -49 27 -17 12 -44 28 -60 37 -44 23 -315 182
-416 244 -47 29 -143 87 -215 130 -71 42 -137 81 -145 86 -8 5 -78 46 -155 91
-77 45 -189 111 -250 148 -213 130 -233 141 -254 141 -12 0 -21 -2 -21 -4 0
-2 -7 -20 -16 -41 -8 -20 -10 -34 -5 -30 11 6 14 -4 12 -35 0 -9 2 -10 5 -3 4
9 13 9 30 2 43 -16 184 -111 178 -120 -3 -5 2 -6 10 -3 13 5 63 -23 196 -106
49 -31 171 -102 298 -175 46 -27 79 -51 73 -54 -6 -4 -1 -12 12 -20 20 -13 21
-13 8 2 -7 10 -10 17 -6 17 9 0 128 -71 135 -80 3 -4 21 -15 40 -25 34 -17
239 -137 485 -284 105 -62 121 -75 127 -104 5 -17 7 -430 7 -915 l-2 -884
-116 -92 c-64 -51 -165 -130 -226 -176 -60 -46 -122 -95 -137 -109 -20 -17
-28 -20 -28 -10 0 8 -6 5 -13 -8 -6 -13 -115 -102 -242 -198 -126 -96 -234
-179 -240 -183 -128 -101 -433 -335 -452 -347 -9 -5 -30 -21 -46 -35 -18 -16
-38 -24 -55 -22 -22 2 -24 1 -12 -8 13 -9 11 -14 -12 -31 -32 -24 -36 -54 -10
-82 9 -11 11 -17 5 -13 -7 4 -13 3 -13 -3 0 -11 39 -25 47 -17 4 3 0 6 -8 6
-8 0 0 8 18 18 31 16 93 63 448 337 83 64 201 155 264 203 62 48 141 110 175
137 34 28 113 89 176 137 63 48 147 112 185 142 107 84 255 200 274 213 14 11
16 6 13 -52 l-4 -64 -111 -103 c-205 -189 -442 -412 -448 -421 -4 -5 -12 -6
-19 -2 -8 5 -11 4 -6 -3 7 -12 -200 -209 -215 -204 -6 1 -8 -2 -5 -7 3 -5 -9
-21 -26 -36 -18 -15 -69 -61 -113 -102 -44 -42 -109 -103 -145 -136 -36 -33
-92 -87 -126 -119 -33 -33 -67 -58 -75 -56 -8 2 -13 -2 -12 -9 2 -6 -59 -67
-135 -134 -75 -68 -140 -129 -145 -136 -4 -6 -14 -19 -23 -28 -9 -8 -13 -21
-11 -28 4 -9 6 -9 6 1 1 10 4 10 15 0 8 -7 12 -16 10 -19 -2 -4 8 -10 23 -13
21 -6 33 -1 62 27 39 36 110 101 236 217 101 92 195 179 265 245 30 28 127
119 215 201 88 82 221 206 295 275 74 69 162 150 195 180 33 30 107 100 165
155 58 55 132 126 166 157 l61 57 1155 0 1155 -1 22 -23 c11 -12 18 -26 14
-30 -5 -4 -3 -6 4 -4 16 4 194 -162 186 -175 -3 -6 -1 -7 5 -3 14 8 164 -132
156 -146 -3 -5 -1 -7 4 -6 14 4 153 -122 147 -133 -6 -8 12 -22 32 -25 20 -3
83 -66 76 -77 -3 -6 -1 -7 5 -4 5 4 48 -29 94 -74 45 -44 101 -97 123 -116 22
-20 81 -75 130 -122 50 -47 153 -144 230 -216 77 -71 164 -154 193 -182 29
-29 56 -53 61 -53 4 0 24 -17 44 -37 88 -89 113 -103 145 -75 34 31 33 48 -6
88 -20 21 -36 42 -34 47 1 5 -1 6 -6 3 -16 -10 -357 298 -347 314 3 4 -2 7 -9
6 -8 0 -90 71 -182 159 -92 88 -200 190 -238 226 -220 205 -395 369 -518 482
-77 72 -135 133 -132 139 5 7 2 8 -5 3 -8 -4 -27 7 -52 31 -37 37 -39 41 -39
103 l0 64 25 -23 c13 -12 22 -27 18 -33 -3 -6 -1 -7 5 -3 10 6 368 -259 423
-313 9 -9 27 -23 39 -31 53 -35 235 -180 230 -184 -10 -8 34 -47 46 -42 7 3
46 -20 86 -52 40 -31 78 -60 83 -64 6 -4 52 -41 104 -80 52 -40 111 -85 131
-100 36 -25 128 -96 252 -194 32 -25 56 -49 54 -53 -3 -4 9 -8 25 -9 35 -3 80
38 72 66 -3 9 -83 75 -179 147 -96 71 -184 139 -196 150 -13 11 -52 42 -88 68
-36 26 -96 72 -135 102 -38 30 -128 100 -200 154 -71 54 -170 131 -220 170
-49 39 -108 85 -130 101 -181 136 -364 284 -359 291 3 5 -2 6 -10 3 -9 -3 -16
-2 -16 3 0 5 -13 16 -28 25 l-29 17 0 930 -1 930 106 62 c59 34 123 72 142 84
57 36 123 75 335 200 110 65 278 165 374 221 95 57 178 101 184 97 5 -3 7 -2
4 3 -4 8 183 124 365 226 47 26 78 59 78 83 0 26 -18 45 -43 45 -10 0 -97 -47
-194 -105 -129 -78 -181 -104 -196 -100 -17 5 -18 4 -8 -4 12 -7 5 -15 -30
-36 -24 -14 -143 -85 -264 -157 -121 -72 -228 -133 -237 -136 -10 -2 -18 -9
-18 -14 0 -5 -4 -7 -9 -4 -5 4 -11 3 -13 -2 -3 -8 -39 -30 -375 -230 l-203
-120 0 48 c0 29 5 50 13 53 9 4 8 8 -3 16 -8 5 -12 12 -10 14 6 4 112 85 400
306 118 90 232 177 252 194 22 17 41 26 49 22 7 -5 10 -4 5 3 -3 6 124 112
306 253 172 133 325 254 341 267 15 14 27 22 27 18 0 -5 14 5 31 22 17 17 62
52 100 79 69 48 86 74 74 112 -12 38 -44 36 -100 -5 -59 -43 -309 -235 -340
-262 -11 -9 -38 -30 -60 -47 -22 -17 -133 -104 -247 -193 -114 -89 -210 -162
-213 -162 -3 0 -3 5 1 12 4 7 3 8 -5 4 -6 -4 -9 -11 -6 -16 3 -5 -32 -37 -78
-72 -46 -35 -144 -109 -218 -166 -74 -56 -139 -105 -144 -110 -6 -4 -42 -32
-80 -63 -39 -31 -90 -70 -114 -88 l-44 -31 -1194 0 -1194 0 -135 103 c-129 97
-190 143 -575 437 -90 68 -279 214 -420 325 -363 283 -461 357 -480 362 -9 3
-23 -6 -32 -21z m3993 -2331 l0 -1025 -270 0 -270 0 0 803 0 804 -25 11 c-19
9 -185 12 -596 12 -529 0 -572 -1 -592 -17 l-22 -18 2 -797 2 -796 -270 -2
-269 -1 0 1025 0 1024 1155 1 1155 1 0 -1025z m-640 -358 c0 -553 -4 -857 -10
-847 -5 8 -10 10 -10 4 0 -5 5 -15 12 -22 9 -9 2 -12 -35 -12 l-47 0 0 811 c0
761 -1 813 -17 825 -14 11 -100 13 -410 14 -343 0 -394 -2 -407 -16 -14 -14
-16 -102 -16 -825 l0 -809 -50 0 -50 0 0 870 0 870 520 0 520 0 0 -863z m-180
-102 l0 -775 -334 0 -333 0 1 743 c2 699 3 744 20 770 10 15 14 27 8 27 -6 0
-13 -8 -15 -17 -4 -14 -5 -12 -6 5 l-1 22 330 0 330 0 0 -775z m-952 -720 l-2
-55 -268 0 -268 0 0 55 0 55 270 0 270 0 -2 -55z m1771 0 l0 -55 -269 0 -270
0 0 54 0 55 269 1 269 1 1 -56z"/>
</g>
</svg>
