<?xml version="1.0" standalone="no"?>
<!DOCTYPE svg PUBLIC "-//W3C//DTD SVG 20010904//EN"
 "http://www.w3.org/TR/2001/REC-SVG-20010904/DTD/svg10.dtd">
<svg version="1.0" xmlns="http://www.w3.org/2000/svg"
 width="1024.000000pt" height="1024.000000pt" viewBox="0 0 1024.000000 1024.000000"
 preserveAspectRatio="xMidYMid meet">
<metadata>
Created by potrace 1.16, written by Peter Selinger 2001-2019
</metadata>
<g transform="translate(0.000000,1024.000000) scale(0.100000,-0.100000)"
fill="#000000" stroke="none">
<path d="M4924 8330 c-30 -12 -50 -64 -36 -95 6 -14 9 -33 6 -42 -4 -13 -3
-14 3 -5 7 9 13 5 22 -15 29 -62 51 -138 45 -157 -4 -15 -3 -17 4 -8 12 17 26
-46 16 -74 -4 -14 -3 -15 4 -5 12 17 26 -68 17 -102 -4 -15 -4 -18 3 -8 7 9
12 -22 17 -95 11 -181 -21 -391 -90 -583 -37 -101 -112 -261 -123 -261 -5 0
-9 -6 -9 -13 0 -20 -54 -108 -63 -102 -5 3 -12 0 -16 -6 -4 -8 -3 -9 4 -5 7 4
12 4 12 -1 0 -14 -84 -132 -90 -128 -4 2 -7 -2 -7 -9 0 -18 -114 -167 -123
-161 -5 3 -12 0 -16 -6 -4 -8 -3 -9 4 -5 21 13 12 -6 -20 -43 -18 -20 -36 -35
-41 -33 -5 1 -6 -1 -3 -6 8 -13 -24 -53 -36 -46 -7 5 -8 2 -4 -5 10 -15 -23
-53 -37 -44 -6 3 -7 1 -3 -6 10 -15 -13 -43 -27 -34 -5 3 -7 2 -4 -4 8 -12
-101 -159 -115 -155 -5 1 -7 -2 -3 -7 7 -13 -85 -152 -96 -145 -5 3 -7 -1 -4
-8 5 -13 -87 -180 -99 -179 -17 2 -20 0 -8 -7 9 -6 5 -22 -17 -68 -15 -32 -34
-76 -42 -96 -7 -21 -17 -38 -22 -38 -4 0 -6 -4 -3 -9 3 -5 -5 -39 -18 -77 -12
-38 -29 -97 -36 -131 -8 -34 -16 -60 -20 -58 -3 2 -6 -15 -6 -38 -1 -23 -5
-105 -10 -182 -11 -171 -2 -319 30 -477 14 -66 23 -125 22 -132 -2 -6 -1 -7 2
-2 7 13 43 -106 37 -122 -3 -7 -1 -11 4 -7 5 3 15 -12 21 -32 22 -67 105 -235
169 -341 34 -56 59 -107 56 -113 -4 -5 -1 -8 6 -7 6 2 14 -3 17 -11 3 -8 0
-11 -7 -7 -6 4 -11 2 -11 -4 0 -7 6 -10 14 -7 8 3 27 -12 47 -41 19 -26 53
-71 76 -99 24 -29 42 -58 41 -65 -2 -7 2 -12 9 -11 16 3 65 -56 57 -69 -4 -6
-2 -8 3 -5 6 4 16 0 23 -8 7 -8 9 -15 4 -16 -5 0 1 -4 14 -10 15 -5 21 -13 16
-21 -4 -7 -4 -10 1 -6 4 4 25 -8 47 -27 44 -40 78 -45 109 -14 24 24 22 55
-10 156 -27 86 -60 240 -77 363 -14 111 -19 332 -7 344 4 4 6 22 5 40 -6 65
57 357 78 364 5 2 8 7 5 12 -17 27 197 478 224 472 7 -1 10 2 6 8 -8 13 71
150 86 150 6 0 8 4 5 8 -7 12 69 123 79 115 4 -5 5 -3 1 4 -9 16 63 125 77
116 6 -3 7 -1 3 5 -10 17 136 244 147 229 6 -8 7 -6 3 5 -6 20 70 158 87 158
5 0 8 3 4 6 -7 8 61 146 77 156 6 4 8 8 4 8 -4 0 8 33 27 73 43 93 98 251 120
349 11 44 23 74 28 71 6 -3 7 -1 3 5 -4 6 1 64 10 129 12 87 15 164 12 295 -3
97 -1 175 4 172 4 -3 8 0 8 5 0 6 -7 11 -15 11 -9 0 -15 9 -15 24 0 45 -52
230 -96 340 -48 117 -126 263 -193 359 -23 32 -38 63 -35 69 4 6 2 8 -3 5 -14
-9 -66 60 -57 75 4 6 3 8 -3 5 -14 -9 -129 133 -125 153 2 10 0 11 -5 4 -5 -8
-21 4 -48 34 -22 25 -34 43 -27 39 7 -5 12 -3 12 3 0 7 -8 9 -19 5 -10 -3 -24
1 -31 10 -14 17 -34 18 -66 5z m239 -434 c-4 -5 -1 -6 4 -3 21 13 213 -299
196 -317 -4 -4 -2 -11 5 -15 16 -10 55 -111 43 -111 -5 0 -11 9 -14 20 -3 11
-11 20 -19 20 -8 0 -9 -3 -2 -8 6 -4 13 -15 17 -24 3 -10 12 -18 19 -18 22 0
86 -258 75 -300 -3 -11 -1 -20 4 -22 10 -3 13 -286 4 -346 -20 -127 -39 -211
-46 -206 -5 3 -6 -1 -3 -9 8 -22 -15 -99 -34 -115 -10 -7 -11 -10 -3 -6 10 5
13 3 9 -7 -3 -8 -13 -38 -22 -67 -10 -28 -22 -50 -27 -47 -5 4 -6 0 -3 -8 3
-8 -12 -54 -32 -102 -30 -68 -40 -83 -46 -68 -6 14 -7 12 -4 -7 5 -28 -105
-237 -123 -233 -6 2 -8 -4 -5 -11 3 -8 -4 -24 -15 -35 -12 -12 -20 -24 -20
-27 4 -15 -143 -234 -153 -228 -7 4 -8 2 -4 -4 7 -12 -87 -166 -96 -157 -3 4
-5 -2 -4 -12 0 -10 -5 -17 -12 -15 -8 1 -11 -2 -8 -7 8 -12 -179 -322 -189
-313 -5 4 -5 2 -1 -5 8 -15 -65 -164 -77 -156 -6 3 -7 1 -4 -4 4 -6 -11 -56
-33 -111 -22 -56 -40 -107 -40 -114 0 -9 -3 -9 -11 2 -9 13 -10 13 -5 -2 2 -9
-7 -66 -23 -126 -20 -82 -31 -107 -41 -104 -12 3 -12 2 -2 -6 11 -7 11 -23 3
-78 -18 -112 -16 -433 3 -553 9 -57 14 -106 11 -110 -12 -11 -41 18 -92 90
-76 107 -155 247 -148 259 4 6 1 9 -5 8 -6 -2 -34 46 -61 105 -201 436 -220
898 -54 1318 67 170 216 436 237 422 6 -3 8 -1 5 4 -8 13 57 109 72 106 5 -2
8 3 6 10 -6 15 142 203 156 199 6 -1 8 2 5 7 -3 5 13 33 37 63 24 29 76 97
116 151 40 53 76 97 81 97 6 0 9 3 8 8 -5 14 44 82 54 76 7 -4 8 -2 4 4 -9 15
55 123 68 115 5 -3 6 -1 2 5 -3 5 11 43 33 84 142 265 221 598 207 870 -4 69
-3 128 1 130 4 3 2 3 -4 2 -8 -2 -13 7 -13 25 0 16 -3 38 -6 48 -6 16 -5 16 9
-2 8 -11 13 -24 10 -29z"/>
<path d="M6226 6547 c-18 -18 -25 -40 -30 -85 -18 -180 -19 -187 -26 -167 -5
13 -7 5 -7 -25 1 -53 -20 -133 -33 -125 -4 3 -6 -3 -4 -12 2 -10 -5 -36 -16
-58 -11 -22 -18 -30 -16 -17 2 13 0 19 -6 16 -5 -3 -7 -17 -4 -30 7 -27 -15
-69 -29 -56 -5 4 -5 2 -1 -5 13 -23 -90 -188 -168 -268 -23 -25 -40 -45 -37
-45 3 0 -12 -18 -34 -40 -21 -21 -43 -36 -49 -33 -6 3 -8 2 -3 -2 9 -11 -52
-75 -71 -75 -7 0 -11 -4 -8 -8 7 -12 -69 -84 -79 -75 -4 5 -5 3 -2 -4 8 -12
-138 -140 -154 -136 -5 2 -8 -3 -6 -10 1 -6 -4 -11 -10 -10 -7 2 -12 0 -11 -5
3 -10 -285 -297 -295 -294 -5 1 -6 -2 -2 -8 3 -5 -11 -30 -31 -55 -28 -32 -40
-41 -47 -32 -6 8 -7 6 -3 -6 3 -11 -12 -44 -44 -90 -27 -39 -68 -109 -93 -155
-24 -45 -47 -79 -52 -75 -4 5 -5 2 0 -5 6 -12 -19 -87 -35 -102 -3 -3 -6 -12
-7 -20 -1 -8 -16 -60 -33 -115 -75 -242 -98 -540 -66 -829 10 -80 14 -151 10
-158 -4 -6 -3 -8 3 -5 12 8 25 -68 17 -104 -4 -17 -3 -20 4 -11 7 10 11 5 16
-18 8 -45 8 -52 -5 -44 -7 4 -10 1 -7 -7 3 -8 10 -13 15 -12 12 2 79 -234 75
-267 -2 -16 0 -20 6 -13 10 16 76 -162 66 -179 -4 -6 -3 -8 3 -5 9 6 30 -38
58 -118 6 -16 5 -17 -4 -5 -11 15 -11 12 -2 -40 1 -3 5 1 9 8 6 8 18 -12 38
-60 16 -40 27 -74 26 -77 -2 -2 1 -7 6 -10 15 -10 52 -88 49 -103 -2 -7 -2
-10 1 -5 2 4 13 -4 24 -18 31 -39 55 -49 89 -35 45 19 47 50 10 156 -18 51
-30 98 -25 105 4 7 3 10 -3 6 -11 -7 -32 74 -54 203 -15 86 -14 341 1 465 6
55 22 141 35 190 29 114 84 257 96 250 5 -4 6 0 3 8 -9 25 129 272 147 261 5
-3 6 1 4 8 -7 17 167 234 184 230 7 -1 10 2 6 8 -8 13 76 101 89 93 5 -3 6 -2
3 4 -8 12 352 359 367 355 6 -2 8 0 4 4 -10 9 51 86 63 78 5 -3 8 -2 7 3 -5
13 75 103 85 96 6 -3 7 -2 4 4 -7 11 40 79 52 76 4 -1 8 3 8 10 0 19 84 147
96 147 6 0 8 3 4 6 -3 4 11 41 32 83 49 97 93 222 117 331 29 130 27 469 -4
600 -26 110 -25 103 -10 94 7 -4 8 -3 4 5 -4 6 -11 9 -15 7 -5 -4 -41 109 -46
144 0 3 -3 10 -6 15 -4 6 -22 46 -40 90 -87 213 -144 271 -203 212z m128 -404
c65 -197 93 -384 81 -550 -4 -60 -10 -102 -12 -95 -3 6 -9 12 -14 12 -6 0 -6
-8 1 -19 5 -11 10 -30 10 -43 0 -19 -2 -20 -10 -8 -7 11 -8 7 -4 -15 11 -64
-119 -407 -148 -389 -7 4 -8 3 -4 -5 10 -16 -33 -83 -47 -74 -7 3 -9 3 -5 -2
10 -10 -5 -35 -60 -106 -24 -32 -49 -56 -55 -52 -6 3 -7 1 -3 -5 8 -13 -61
-92 -77 -89 -7 1 -11 -3 -10 -9 2 -11 -48 -65 -63 -67 -5 -1 -10 -9 -11 -17
-3 -20 -64 -71 -76 -63 -6 3 -7 1 -4 -5 9 -13 -222 -234 -236 -225 -6 3 -7 1
-3 -5 9 -15 -63 -94 -78 -85 -6 3 -8 3 -4 -2 4 -4 -23 -44 -60 -89 -37 -44
-90 -111 -117 -148 -27 -38 -53 -68 -59 -68 -5 0 -7 -3 -4 -6 3 -3 -17 -44
-46 -92 -28 -48 -60 -107 -70 -130 -12 -27 -24 -41 -33 -38 -7 3 -13 -1 -13
-10 0 -8 4 -13 9 -10 4 3 -9 -39 -29 -94 -21 -55 -46 -134 -56 -177 -10 -43
-25 -84 -34 -91 -10 -9 -10 -11 -1 -6 11 6 12 -2 6 -42 -4 -27 -13 -101 -20
-164 -7 -66 -14 -98 -15 -75 l-3 40 -6 -35 -7 -35 -12 35 c-68 200 -131 650
-117 835 12 160 27 265 38 258 6 -3 7 -1 3 5 -10 16 4 103 15 96 5 -3 6 2 3
10 -12 32 115 366 139 366 6 0 7 3 4 7 -14 14 139 247 156 236 5 -3 7 -1 4 4
-8 13 121 165 134 158 5 -4 9 0 9 7 0 19 144 160 154 151 4 -4 6 -2 4 4 -4 16
161 165 175 156 5 -3 7 -1 4 4 -7 12 131 140 145 135 5 -1 7 2 4 6 -3 5 4 18
16 28 11 11 62 66 112 124 49 58 93 104 96 103 4 -1 7 4 7 11 0 11 77 133 92
146 3 3 25 43 48 90 40 81 78 184 103 278 6 23 12 42 15 42 2 0 19 -48 39
-107z"/>
</g>
</svg>
