<?xml version="1.0" standalone="no"?>
<!DOCTYPE svg PUBLIC "-//W3C//DTD SVG 20010904//EN" "http://www.w3.org/TR/2001/REC-SVG-20010904/DTD/svg10.dtd">
<svg xmlns="http://www.w3.org/2000/svg" version="1.0" width="1024.000000pt" height="1024.000000pt" viewBox="0 0 1024.000000 1024.000000" preserveAspectRatio="xMidYMid meet">
<metadata>
Created by potrace 1.16, written by Peter Selinger 2001-2019
<meta name="Producer" content="Online-Convert"/></metadata>
<g transform="translate(0.000000,1024.000000) scale(0.100000,-0.100000)" fill="#000000" stroke="none">
<path d="M0 5120 l0 -5120 5120 0 5120 0 0 5120 0 5120 -5120 0 -5120 0 0 -5120z m10225 0 l0 -5105 -5107 -2 -5108 -1 0 5109 0 5108 5108 -2 5107 -2 0 -5105z"/>
<path d="M3000 8159 c-89 -6 -129 -19 -197 -62 -22 -14 -44 -23 -49 -19 -4 4 -4 1 0 -6 5 -8 -1 -16 -16 -21 -13 -6 -20 -10 -16 -10 5 -1 -8 -22 -27 -47 -19 -25 -35 -50 -35 -55 0 -6 -5 -7 -12 -3 -6 4 -8 3 -5 -3 3 -5 0 -31 -8 -58 -13 -41 -15 -214 -15 -1145 0 -863 -3 -1099 -12 -1109 -10 -11 -10 -13 0 -7 9 6 12 -316 12 -1593 l0 -1601 25 -65 c14 -38 20 -65 13 -65 -7 0 -7 -4 1 -13 6 -8 7 -18 3 -23 -4 -4 0 -3 10 4 10 8 19 9 22 3 3 -5 0 -12 -6 -14 -7 -3 -3 -6 10 -6 20 -1 27 -11 23 -33 0 -5 4 -7 11 -5 6 1 17 -8 23 -20 7 -13 15 -20 19 -15 4 4 14 -2 22 -12 8 -11 14 -16 14 -12 0 6 18 -1 85 -38 35 -18 350 -21 2385 -20 1630 1 1993 3 2030 14 53 16 57 17 69 19 5 0 36 21 69 45 33 25 63 42 67 38 4 -4 5 -2 4 3 -2 6 11 32 29 59 18 28 32 54 32 59 0 4 5 5 12 1 6 -4 8 -3 4 4 -3 6 0 23 6 39 10 22 14 594 18 2746 3 1494 2 2717 -2 2717 -5 0 -8 8 -8 18 0 23 -46 120 -75 158 -13 17 -21 35 -17 39 4 5 1 5 -6 1 -7 -4 -15 0 -20 11 -4 10 -13 19 -20 21 -26 5 -62 34 -56 44 4 6 1 8 -7 6 -8 -3 -39 4 -69 14 -54 19 -105 20 -2155 21 -1155 1 -2138 -1 -2185 -4z m1138 -112 c8 -6 12 -6 12 0 0 7 53 10 139 9 83 0 137 -4 134 -10 -4 -5 -1 -6 8 0 18 11 408 13 415 2 3 -4 12 -8 20 -8 8 0 13 3 11 8 -6 9 376 8 391 -2 7 -4 12 -4 12 1 0 11 542 9 559 -2 9 -5 12 -4 8 2 -8 12 552 11 572 -2 10 -5 12 -4 7 3 -5 8 5 11 33 10 26 -1 38 -5 34 -12 -4 -7 -1 -7 8 1 16 13 276 13 297 0 6 -5 12 -4 12 1 0 12 466 9 492 -3 10 -4 16 -10 14 -14 -3 -4 7 -8 21 -9 31 -2 55 -20 46 -35 -3 -5 -1 -7 4 -4 19 12 61 -32 92 -96 l31 -64 0 -2696 c0 -2453 -1 -2700 -16 -2737 -9 -23 -21 -37 -27 -33 -6 3 -7 1 -3 -6 13 -20 -82 -109 -139 -130 -48 -18 -84 -20 -481 -21 -236 0 -433 -1 -439 -1 -5 0 -27 2 -47 4 -21 3 -36 2 -34 -2 8 -12 -69 1 -76 13 -6 8 -8 7 -8 -1 0 -17 -298 -15 -319 1 -11 8 -13 8 -7 -1 5 -10 -3 -13 -31 -13 -21 -1 -140 -2 -265 -3 -126 -1 -228 2 -228 7 0 5 -6 3 -13 -3 -8 -6 -16 -8 -19 -5 -4 3 -218 5 -477 5 -363 0 -471 2 -471 12 0 9 -2 9 -8 0 -9 -14 -549 -16 -558 -2 -3 5 -11 9 -17 9 -7 0 -6 -4 3 -10 10 -6 -141 -9 -435 -7 -450 2 -450 2 -495 25 -63 33 -125 96 -152 156 l-23 51 0 2700 c0 2557 1 2702 18 2737 9 21 23 37 30 35 6 -1 11 4 9 12 -3 15 37 61 79 92 62 44 102 47 699 46 352 0 570 -4 578 -10z"/>
<path d="M4497 7418 c-13 -18 -27 -41 -30 -51 -4 -11 -12 -15 -18 -11 -8 4 -9 3 -5 -5 4 -6 -39 -99 -100 -214 -121 -229 -128 -240 -139 -229 -5 4 -5 2 -1 -5 7 -13 -9 -49 -72 -161 -26 -48 -37 -60 -44 -50 -7 9 -8 8 -4 -6 7 -21 -45 -133 -72 -153 -9 -7 -13 -13 -9 -13 4 0 3 -9 -3 -20 -6 -11 -14 -20 -18 -20 -13 0 -137 130 -134 141 1 6 -2 8 -8 4 -12 -8 -121 105 -113 118 3 6 1 7 -4 4 -6 -4 -24 8 -41 27 -16 19 -39 37 -50 40 -21 7 -70 -12 -71 -26 -1 -5 -1 -16 -1 -25 0 -15 -2 -16 -10 -3 -7 10 -10 11 -10 2 0 -7 7 -15 15 -18 8 -4 12 -11 8 -18 -3 -6 -2 -8 2 -3 5 4 19 -3 32 -15 24 -22 32 -45 11 -32 -7 4 -8 3 -4 -5 4 -6 11 -9 16 -6 12 7 91 -76 83 -89 -3 -6 -2 -8 2 -3 8 7 68 -46 138 -122 18 -19 41 -41 52 -50 11 -9 35 -32 54 -51 19 -19 32 -29 27 -22 -4 6 -3 12 3 12 5 0 13 -4 16 -10 3 -5 12 -10 18 -9 8 0 7 2 -1 6 -10 4 -7 9 10 17 22 11 43 46 142 231 24 44 61 114 83 155 276 512 353 658 353 668 0 19 -38 52 -59 52 -11 0 -31 -15 -44 -32z"/>
<path d="M3291 7294 c-56 -24 -53 24 -48 -816 1 -255 -1 -384 -8 -381 -7 4 -7 2 0 -5 6 -5 28 -19 50 -31 39 -21 50 -21 607 -21 336 0 577 4 592 10 39 14 55 49 57 120 1 36 7 71 13 79 8 11 8 13 -1 7 -8 -4 -13 -1 -13 8 0 9 5 16 11 16 8 0 7 6 -2 17 -12 15 -12 16 1 8 12 -7 13 -6 3 6 -12 15 -11 181 2 212 4 9 3 17 -3 17 -12 0 -13 138 -1 161 4 9 5 20 1 24 -4 3 -8 31 -9 61 0 30 -6 60 -12 68 -6 7 -8 15 -6 18 3 3 -8 4 -25 2 -66 -8 -65 -1 -65 -379 l0 -341 -540 0 -540 1 0 520 0 520 419 2 c281 2 423 6 430 13 20 20 15 67 -8 79 -30 15 -870 20 -905 5z"/>
<path d="M6342 6751 c-13 -3 -337 -5 -720 -4 -626 2 -698 0 -714 -14 -23 -21 -23 -55 0 -76 17 -16 104 -17 1046 -17 689 0 1034 3 1047 10 11 6 19 21 19 36 0 16 4 23 11 18 8 -4 8 0 0 15 -7 11 -14 21 -17 21 -3 0 -2 -5 2 -11 3 -6 -4 -4 -17 4 -20 13 -71 15 -324 13 -165 -1 -302 1 -305 4 -3 4 -15 4 -28 1z"/>
<path d="M4491 5909 c-10 -11 -47 -74 -81 -140 -34 -66 -65 -117 -70 -114 -5 3 -12 0 -16 -6 -4 -8 -3 -9 4 -5 19 12 15 0 -39 -105 -29 -56 -56 -96 -62 -92 -6 3 -7 1 -3 -5 4 -6 -33 -85 -81 -176 -74 -139 -90 -162 -103 -153 -13 10 -13 10 -2 -5 11 -13 10 -21 -6 -47 -10 -17 -22 -28 -27 -23 -5 4 -5 1 -1 -5 4 -7 2 -22 -5 -34 -11 -21 -15 -18 -95 62 -45 45 -80 87 -77 92 3 6 2 7 -4 4 -5 -3 -50 34 -99 84 -94 95 -124 108 -157 71 -23 -26 -21 -36 13 -75 16 -19 27 -37 25 -41 -3 -3 -2 -4 1 -1 12 8 96 -84 88 -97 -4 -7 -3 -8 5 -4 14 9 155 -130 146 -144 -3 -5 0 -7 7 -5 8 3 35 -17 62 -45 50 -52 88 -70 115 -53 19 12 57 78 148 255 38 75 70 125 76 121 5 -3 7 -1 3 5 -9 15 103 224 116 215 7 -3 8 -1 4 5 -10 16 123 264 136 256 7 -4 8 -2 4 4 -4 6 10 43 29 83 41 80 40 109 0 127 -33 15 -31 16 -54 -9z"/>
<path d="M3298 5849 c-16 -6 -28 -15 -28 -20 0 -5 -5 -9 -11 -9 -5 0 -7 5 -3 12 4 6 3 8 -3 5 -6 -4 -8 -18 -5 -32 2 -14 0 -25 -4 -25 -5 0 -8 -122 -7 -272 2 -185 -1 -276 -8 -285 -8 -9 -8 -13 0 -13 8 0 11 -78 11 -275 0 -191 4 -282 12 -300 25 -56 17 -55 653 -55 439 0 585 -3 585 -12 0 -16 11 -3 14 16 1 8 10 24 21 36 17 19 18 41 17 325 -1 198 2 305 8 305 5 0 10 5 10 11 0 5 -4 7 -10 4 -6 -4 -10 20 -10 64 0 61 -3 72 -21 81 -30 17 -62 8 -76 -20 -9 -18 -12 -115 -12 -359 l0 -334 -540 -1 -541 -1 3 525 2 525 409 3 c445 2 438 2 449 58 2 14 2 23 -1 20 -2 -3 -11 1 -19 9 -12 13 -78 15 -412 15 -219 0 -411 2 -427 5 -16 2 -41 -1 -56 -6z"/>
<path d="M4924 5280 c-16 -3 -29 -10 -29 -15 0 -6 -3 -9 -7 -8 -7 3 6 -49 16 -66 10 -16 66 -21 241 -21 661 -3 1814 1 1833 6 12 4 29 18 36 33 12 23 11 28 -10 50 l-23 24 -1013 1 c-558 1 -1027 -1 -1044 -4z"/>
<path d="M6720 4750 c-11 -11 -20 -27 -20 -36 0 -9 27 -51 61 -94 33 -44 58 -84 54 -90 -4 -6 -1 -9 7 -8 7 2 12 -5 12 -14 -1 -10 3 -15 9 -11 6 4 8 0 4 -11 -4 -10 -3 -15 3 -11 12 8 53 -72 44 -87 -4 -6 -3 -8 3 -5 13 8 36 -41 27 -55 -4 -6 -2 -8 3 -5 11 7 45 -62 59 -117 5 -23 4 -27 -7 -22 -8 4 -6 1 4 -7 25 -21 56 -125 61 -204 3 -36 7 -67 10 -71 3 -3 5 -19 5 -36 l-2 -31 -7 35 c-7 31 -7 29 -8 -20 0 -39 2 -49 8 -35 6 13 9 -6 9 -60 0 -44 -3 -75 -7 -68 -4 7 -8 -23 -9 -65 -1 -85 -44 -251 -69 -265 -8 -4 -14 -13 -14 -20 0 -8 4 -6 11 3 9 12 10 11 4 -5 -4 -11 -11 -31 -15 -45 -4 -14 -17 -45 -29 -69 -18 -35 -25 -40 -37 -31 -11 10 -14 9 -14 -3 0 -8 4 -17 10 -19 5 -1 -8 -33 -31 -71 -24 -40 -45 -65 -51 -61 -6 4 -8 3 -5 -3 10 -15 -62 -105 -76 -97 -7 4 -9 3 -4 -1 4 -5 0 -19 -9 -33 -17 -26 -13 -55 11 -86 14 -19 15 -18 48 4 32 22 96 101 166 205 79 118 159 308 197 470 23 99 27 444 6 537 -7 32 -14 61 -14 65 0 5 -6 28 -14 52 -7 25 -11 48 -8 52 2 4 1 9 -4 11 -13 5 -66 151 -65 178 1 14 -1 19 -4 12 -3 -8 -20 12 -40 50 -81 148 -210 318 -241 318 -7 0 -21 -9 -32 -20z"/>
<path d="M6422 4523 c-7 -2 -17 -13 -22 -24 -13 -23 -3 -44 57 -117 23 -30 40 -59 36 -64 -3 -7 -1 -8 5 -4 13 8 36 -30 26 -45 -3 -6 3 -13 15 -16 18 -4 28 -24 19 -36 -2 -2 4 -11 13 -20 24 -23 77 -174 89 -254 20 -121 12 -351 -11 -337 -6 3 -7 -4 -4 -18 8 -32 -44 -174 -99 -271 -48 -84 -144 -210 -155 -203 -4 3 -5 -11 -3 -30 9 -73 74 -76 122 -7 12 18 27 30 33 26 5 -3 7 -1 4 4 -4 6 9 31 28 56 43 57 116 201 144 285 74 219 74 444 0 671 -41 127 -128 277 -212 365 -43 44 -57 51 -85 39z"/>
<path d="M3302 4398 c-16 -4 -34 -19 -42 -32 -7 -14 -16 -24 -19 -22 -3 2 -5 -49 -3 -115 3 -111 2 -118 -15 -113 -16 5 -16 5 1 -6 15 -10 16 -14 5 -21 -10 -6 -11 -9 -1 -9 18 0 18 -526 0 -533 -9 -4 -10 -6 -1 -6 8 -1 12 -45 12 -157 1 -86 4 -168 8 -182 4 -19 3 -23 -7 -17 -9 6 -11 4 -6 -4 5 -7 11 -10 14 -7 3 4 15 -3 27 -14 20 -19 36 -20 613 -20 396 0 599 3 612 10 37 20 41 44 41 275 0 129 4 227 10 230 5 4 9 12 9 18 0 7 -4 6 -10 -3 -7 -10 -10 7 -10 58 0 41 4 72 10 72 6 0 10 5 10 11 0 5 -5 7 -11 4 -10 -7 -8 78 4 182 2 18 0 30 -4 28 -4 -3 -6 6 -5 20 0 14 5 25 10 25 5 0 4 6 -1 13 -6 6 -11 70 -12 142 -2 134 -9 157 -50 170 -26 8 -1158 11 -1189 3z m1108 -108 c17 -9 19 -27 20 -211 0 -160 -2 -199 -12 -193 -11 6 -11 5 0 -8 9 -12 12 -88 12 -314 1 -165 0 -305 0 -311 0 -10 -119 -13 -539 -13 l-540 0 0 511 c-1 323 3 518 9 529 10 18 32 19 521 19 314 0 518 -3 529 -9z"/>
<path d="M6161 4278 c-30 -28 -26 -49 23 -115 57 -78 67 -98 60 -120 -4 -13 -3 -14 4 -5 7 10 12 6 21 -17 7 -16 10 -35 5 -42 -4 -7 -3 -10 3 -6 20 12 38 -85 38 -198 0 -89 -5 -121 -23 -169 -12 -33 -27 -63 -34 -68 -7 -4 -10 -8 -5 -8 11 0 -19 -55 -75 -137 -55 -79 -57 -108 -10 -119 15 -3 33 -7 40 -10 6 -2 12 4 12 12 0 9 5 12 13 8 6 -4 9 -4 5 0 -4 5 11 31 33 59 169 213 200 505 81 744 -23 44 -39 83 -37 87 3 3 2 4 -1 2 -4 -3 -26 21 -50 53 -50 66 -73 78 -103 49z"/>
<path d="M5896 4179 c3 -5 0 -9 -6 -9 -6 0 -8 -4 -5 -10 3 -5 2 -10 -3 -10 -24 0 -17 -31 20 -85 22 -33 35 -61 29 -63 -6 -2 -11 -8 -11 -13 0 -4 6 -6 14 -3 20 8 57 -96 62 -176 3 -36 1 -60 -3 -53 -4 6 -8 -12 -8 -41 0 -56 -44 -159 -92 -216 -28 -34 -26 -59 8 -100 11 -14 18 -19 14 -12 -4 7 1 12 14 12 10 0 31 14 46 32 36 43 102 177 115 233 16 70 14 183 -4 253 -9 34 -14 67 -11 73 4 5 2 8 -3 7 -14 -4 -64 91 -56 105 4 7 4 9 -1 5 -11 -10 -56 52 -48 66 3 6 3 8 -1 5 -4 -4 -22 -3 -41 1 -20 5 -33 4 -29 -1z"/>
<path d="M4916 3829 c2 -4 -3 -12 -11 -19 -23 -19 -18 -56 10 -74 22 -15 70 -16 410 -16 371 1 386 2 404 21 20 21 18 61 -4 79 -14 12 -816 20 -809 9z"/>
</g>
</svg>
