<?xml version="1.0" standalone="no"?>
<!DOCTYPE svg PUBLIC "-//W3C//DTD SVG 20010904//EN"
 "http://www.w3.org/TR/2001/REC-SVG-20010904/DTD/svg10.dtd">
<svg version="1.0" xmlns="http://www.w3.org/2000/svg"
 width="2040.000000pt" height="2040.000000pt" viewBox="0 0 2040.000000 2040.000000"
 preserveAspectRatio="xMidYMid meet">
<metadata>
Created by potrace 1.16, written by Peter Selinger 2001-2019
</metadata>
<g transform="translate(0.000000,2040.000000) scale(0.100000,-0.100000)"
fill="#000000" stroke="none">
<path d="M8596 16301 c-3 -4 -614 -9 -1357 -9 -881 -1 -1356 -5 -1362 -11 -7
-7 -17 -7 -30 0 -14 8 -18 8 -13 0 5 -7 -5 -11 -27 -11 -18 0 -37 -3 -41 -7
-9 -9 -78 -33 -96 -33 -9 0 -22 -9 -30 -20 -8 -11 -22 -20 -32 -20 -10 0 -18
-4 -18 -10 0 -5 -9 -10 -20 -10 -11 0 -20 -4 -20 -8 0 -12 -45 -34 -72 -36
-16 -1 -23 -7 -24 -23 -1 -27 -25 -51 -43 -45 -8 3 -12 -1 -9 -9 2 -7 -13 -31
-34 -53 -21 -23 -38 -47 -38 -53 0 -7 -4 -13 -10 -13 -5 0 -10 -8 -10 -18 0
-10 -9 -24 -20 -32 -11 -8 -20 -24 -20 -35 0 -11 -9 -31 -20 -45 -11 -14 -20
-40 -20 -57 0 -18 -4 -33 -10 -33 -5 0 -10 -16 -10 -36 0 -19 -5 -44 -10 -54
-7 -12 -10 -764 -10 -2207 l-1 -2188 -21 -16 c-21 -16 -18 -39 5 -39 7 0 6 4
-3 10 -8 5 -11 12 -7 17 11 10 28 -18 25 -41 -2 -11 -10 -21 -18 -23 -13 -4
-13 -3 0 6 8 5 11 13 7 18 -11 10 -28 -18 -25 -42 2 -12 10 -19 20 -19 17 2
18 -83 17 -1626 0 -1516 -2 -1627 -17 -1626 -9 0 -17 -6 -17 -14 0 -8 8 -14
17 -14 17 2 18 -79 18 -1493 0 -1074 3 -1500 11 -1515 9 -16 8 -19 -3 -12 -10
6 -11 5 -1 -7 7 -9 13 -29 15 -46 1 -18 6 -29 10 -27 7 5 13 -36 9 -59 -1 -5
3 -6 9 -2 6 4 10 -4 10 -19 0 -14 5 -26 10 -26 6 0 10 -9 10 -20 0 -11 5 -20
10 -20 19 0 10 -18 -11 -23 -28 -7 -18 -33 11 -29 14 1 20 -2 17 -10 -20 -49
-20 -51 -6 -46 8 3 13 12 11 20 -1 8 5 15 13 15 12 0 15 -9 13 -31 -3 -27 0
-31 25 -33 36 -3 60 -27 52 -54 -5 -14 -3 -19 7 -18 25 6 58 -21 58 -46 0 -19
4 -23 20 -20 14 3 31 -7 50 -26 16 -17 34 -28 39 -24 6 3 11 1 11 -4 0 -6 7
-11 15 -11 17 0 56 -20 66 -34 4 -5 18 -8 33 -8 14 0 26 -5 26 -10 0 -5 -5 -6
-12 -2 -7 4 -8 3 -4 -4 4 -7 3 -12 -3 -12 -5 0 -12 6 -14 13 -4 9 -6 9 -6 0
-1 -18 19 -27 32 -14 13 13 57 15 57 2 0 -16 101 -23 414 -27 197 -3 314 -8
322 -15 7 -6 19 -7 26 -3 22 14 397 17 413 4 8 -7 20 -8 27 -4 20 13 159 15
174 3 9 -7 19 -7 33 0 11 6 37 11 58 10 30 0 34 -2 18 -9 -18 -8 -17 -9 7 -9
15 -1 30 4 33 9 4 6 113 10 300 9 163 -1 292 -6 289 -10 -6 -11 20 -12 30 -2
3 4 28 8 54 10 33 2 41 0 27 -6 -16 -7 -12 -8 17 -8 23 1 33 4 25 9 -18 12 1
10 24 -3 14 -7 24 -7 32 0 15 12 299 12 291 0 -3 -5 2 -9 10 -9 8 0 17 4 20 9
7 10 83 7 93 -3 10 -10 43 -7 43 4 0 12 308 12 315 -1 4 -5 13 -9 21 -9 8 0
12 5 9 10 -4 6 11 10 39 10 25 0 48 -4 51 -10 3 -5 12 -10 18 -10 7 0 6 4 -3
10 -21 13 -3 13 22 -1 14 -8 23 -8 31 0 13 13 63 15 71 3 6 -10 77 -9 93 1 6
4 33 5 60 2 26 -3 56 -6 66 -5 33 1 72 0 137 -5 44 -3 58 -2 45 4 -15 7 -1 10
48 10 38 1 77 -4 88 -10 15 -7 24 -7 33 0 9 7 69 11 166 9 85 -1 145 -5 134
-9 -16 -6 -16 -8 -2 -8 9 -1 20 4 23 10 7 11 107 7 136 -5 10 -4 20 -2 24 3 8
14 475 13 492 -1 7 -6 19 -5 32 4 17 10 25 10 42 0 15 -10 24 -10 34 -2 16 13
342 11 368 -2 12 -6 23 -6 30 1 7 5 72 9 147 9 83 0 127 -3 115 -8 -16 -7 -17
-9 -3 -9 9 -1 19 3 22 8 8 12 278 11 293 -1 7 -6 19 -4 32 4 17 10 25 10 42 0
13 -8 25 -10 32 -4 15 11 157 10 175 -1 7 -5 18 -4 25 1 15 13 318 13 334 0 7
-5 17 -7 24 -3 18 12 88 14 95 4 3 -5 13 -9 22 -8 14 0 13 2 -3 9 -12 4 26 8
95 8 71 0 107 -3 95 -8 -16 -7 -17 -9 -3 -9 9 -1 19 3 23 9 7 12 148 9 156 -4
4 -5 13 -5 20 0 21 13 461 15 477 2 9 -8 16 -8 24 0 7 7 21 12 33 12 16 0 17
-2 5 -10 -13 -8 -12 -10 3 -10 9 0 17 5 17 10 0 6 7 10 16 10 8 0 13 -4 10 -8
-6 -9 64 -10 79 -1 8 5 284 4 380 0 11 -1 37 1 59 5 27 5 37 3 32 -5 -4 -6 0
-11 9 -11 9 0 14 4 11 8 -3 5 93 9 212 10 124 2 221 7 226 12 6 6 15 10 21 10
5 0 3 -5 -5 -10 -13 -8 -12 -10 3 -10 9 0 17 5 17 10 0 6 15 10 34 10 19 0 38
5 41 10 3 6 15 10 26 10 10 0 19 5 19 12 0 9 3 9 12 0 8 -8 18 -6 39 9 16 11
38 21 48 22 11 1 18 3 16 6 -7 6 28 30 43 31 8 0 27 13 42 30 15 16 32 30 37
30 14 0 72 68 64 75 -3 4 -1 6 4 5 24 -5 35 1 35 20 0 12 7 20 16 20 9 0 18 9
21 20 3 11 9 20 14 20 5 0 9 7 9 16 0 9 5 12 12 8 6 -4 8 -3 4 4 -3 6 1 17 9
25 8 9 15 20 15 25 0 21 26 58 38 54 9 -3 11 3 7 21 -4 14 -2 28 4 31 6 4 11
23 11 42 0 19 5 34 10 34 6 0 10 18 10 39 0 22 4 43 10 46 7 4 15 1656 12
2560 0 11 0 1159 0 2550 0 1392 -1 2580 -3 2640 -1 61 -2 117 -2 125 5 175 1
2845 -3 2867 -3 18 -1 33 5 37 14 9 14 26 0 26 -5 0 -7 -4 -4 -10 3 -5 1 -10
-4 -10 -6 0 -11 13 -11 29 0 16 -4 41 -10 56 -5 14 -11 39 -12 55 -1 16 -6 26
-10 24 -4 -3 -8 6 -8 20 0 13 -3 26 -7 28 -11 4 -59 100 -55 111 1 5 -2 6 -8
2 -5 -3 -10 1 -10 9 0 9 -4 16 -10 16 -5 0 -10 7 -10 15 0 9 -7 18 -15 21 -8
4 -12 11 -8 18 3 6 3 8 -2 4 -14 -13 -37 13 -24 28 12 15 4 35 -14 33 -30 -4
-43 3 -62 31 -11 16 -26 30 -33 30 -7 0 -22 9 -34 20 -12 11 -28 20 -35 20 -7
0 -14 6 -14 13 -1 6 -2 19 -3 27 0 8 -9 16 -20 18 -11 3 -16 0 -12 -7 4 -7 -1
-11 -13 -11 -11 0 -23 5 -26 10 -3 6 -15 10 -26 10 -10 0 -20 6 -20 13 -1 6
-2 19 -3 27 0 9 -11 15 -26 15 -18 0 -25 -5 -23 -19 1 -13 -2 -15 -10 -7 -6 6
-27 11 -47 11 -20 0 -40 4 -46 10 -6 6 -149 10 -374 11 -201 1 -351 5 -335 9
l30 8 -27 1 c-15 0 -29 -3 -32 -8 -9 -13 -878 -12 -893 1 -9 7 -17 7 -25 0
-18 -14 -1038 -15 -1055 -1 -6 6 -18 7 -24 3 -22 -14 -159 -17 -174 -4 -11 9
-18 10 -29 1 -16 -14 -235 -12 -254 2 -9 7 -17 6 -24 -1 -7 -7 -37 -12 -68
-12 -31 0 -61 5 -68 12 -7 7 -15 8 -24 1 -19 -14 -598 -16 -615 -1 -9 7 -17 7
-26 -1 -19 -15 -1396 -13 -1415 2 -9 7 -16 7 -24 -1 -15 -15 -444 -17 -453 -2
-8 12 -22 13 -29 1z m-2658 -249 c8 -1 11 2 7 8 -4 7 55 10 179 10 112 0 187
-4 191 -10 8 -12 62 -13 69 -1 9 14 256 14 274 -1 12 -10 14 -10 8 0 -10 16
155 17 172 0 8 -8 15 -8 26 1 9 7 41 11 85 9 39 -1 65 -6 58 -10 -9 -6 -9 -8
0 -8 6 0 15 5 18 10 8 13 101 13 126 -1 14 -7 24 -7 33 0 17 14 288 12 279 -2
-4 -6 5 -7 23 -2 49 13 615 18 627 6 13 -13 51 -15 43 -3 -3 5 14 8 36 7 23
-1 44 -7 46 -13 6 -18 22 -14 22 4 0 14 3 14 15 4 12 -10 19 -10 27 -2 15 15
120 16 135 1 8 -8 17 -8 31 0 24 13 194 12 186 -1 -3 -4 4 -8 16 -8 12 0 18 5
15 10 -9 14 58 13 73 -2 7 -7 15 -8 24 -1 7 5 42 10 78 11 45 1 59 -2 45 -8
-16 -7 -17 -9 -3 -9 9 -1 20 4 23 9 9 14 88 12 104 -2 10 -9 12 -9 7 -1 -5 9
21 12 104 11 60 0 107 -4 104 -9 -3 -5 7 -9 21 -9 17 0 24 4 19 11 -5 8 8 9
42 5 60 -7 63 -7 148 -1 45 4 73 1 83 -6 10 -9 17 -9 25 -1 15 15 55 16 63 2
4 -7 13 -6 26 1 12 6 23 8 27 5 3 -3 0 -6 -6 -6 -7 0 -12 -4 -12 -9 0 -19 31
-19 70 0 43 21 130 23 174 4 11 -5 26 -3 37 3 23 15 83 16 74 2 -3 -5 1 -10
10 -10 9 0 14 3 12 8 -6 8 166 7 231 -2 27 -3 41 -2 37 4 -3 6 3 10 15 10 13
0 19 -4 14 -12 -7 -11 4 -10 51 7 16 5 17 5 5 -4 -9 -7 -10 -11 -3 -11 6 0 15
5 18 10 9 15 52 12 69 -5 18 -19 26 -19 26 0 0 12 15 14 74 12 41 -1 72 -5 69
-9 -2 -5 0 -8 6 -8 5 0 13 5 16 10 9 14 63 12 67 -2 4 -10 10 -10 32 0 15 7
24 8 21 2 -4 -6 13 -10 44 -10 27 0 53 5 56 10 8 13 78 13 92 -1 8 -8 17 -7
32 3 17 10 25 10 42 0 16 -10 24 -10 35 -1 11 9 18 8 31 -2 13 -11 17 -11 20
-1 3 6 11 12 19 12 9 0 12 -5 8 -12 -4 -6 -3 -8 3 -5 19 12 135 18 128 7 -7
-11 18 -14 29 -3 3 4 28 8 54 10 34 2 42 0 27 -7 -15 -6 -16 -9 -4 -9 9 -1 19
2 23 7 12 11 195 11 193 -1 -1 -5 4 -12 12 -15 9 -3 12 0 9 10 -5 13 28 15
250 16 163 1 260 -2 268 -9 9 -7 19 -7 32 0 13 7 22 7 30 -1 9 -9 15 -9 24 0
17 17 62 16 52 0 -5 -9 -2 -9 9 1 14 11 20 11 32 1 12 -10 18 -10 30 0 12 10
21 10 41 1 14 -6 31 -8 37 -4 16 10 106 10 100 1 -2 -5 3 -8 12 -8 9 0 13 4
10 10 -7 11 183 8 202 -3 6 -4 14 -3 18 3 3 5 37 10 75 10 60 0 69 -2 63 -16
-4 -12 -2 -15 8 -12 8 3 13 11 11 17 -3 13 365 15 373 1 5 -9 55 -8 70 1 6 4
44 7 85 7 50 0 68 -2 55 -8 -11 -5 -15 -9 -8 -9 6 -1 19 -4 29 -8 13 -5 16 -3
12 9 -5 12 3 14 40 14 52 -1 77 -13 77 -36 0 -8 7 -15 15 -15 8 0 15 7 15 15
0 8 7 20 15 27 19 16 122 17 138 1 8 -8 15 -8 26 1 10 9 51 11 143 7 70 -2
135 -5 143 -5 8 0 46 2 83 5 46 4 73 2 82 -6 12 -10 18 -10 30 0 12 10 18 10
31 -1 13 -10 19 -10 36 0 15 9 23 10 31 2 6 -6 24 -11 39 -11 16 0 40 -8 55
-17 14 -10 33 -18 42 -20 45 -6 112 -59 104 -80 -5 -12 -1 -14 14 -9 14 5 31
-5 64 -36 24 -24 50 -55 58 -70 8 -16 18 -28 23 -28 4 0 8 -6 8 -12 0 -7 9
-24 20 -38 11 -14 20 -35 20 -47 0 -13 5 -23 10 -23 6 0 10 -8 10 -18 0 -10 4
-22 10 -28 15 -15 16 -10807 1 -10812 -6 -2 -11 -15 -11 -28 0 -13 -5 -34 -12
-47 -24 -46 -28 -57 -28 -71 0 -8 -4 -16 -9 -18 -5 -1 -20 -21 -35 -42 -14
-21 -26 -33 -27 -25 0 9 -3 8 -7 -3 -4 -9 -27 -38 -51 -63 -31 -33 -49 -44
-62 -40 -11 4 -19 2 -19 -5 0 -6 6 -8 13 -4 8 5 9 4 2 -4 -18 -19 -85 -52
-105 -52 -11 0 -20 -4 -20 -10 0 -5 -10 -10 -23 -10 -13 0 -29 -6 -36 -12 -11
-11 -12 -10 -6 2 8 13 6 13 -8 2 -9 -8 -42 -14 -76 -14 -33 -1 -58 -5 -55 -9
3 -5 -2 -9 -11 -9 -9 0 -13 5 -10 10 3 6 -1 10 -10 10 -9 0 -13 -5 -9 -11 4
-7 -1 -7 -16 1 -12 7 -20 8 -17 3 4 -6 -12 -10 -33 -11 -25 -1 -40 3 -40 10 0
9 -3 9 -12 0 -14 -14 -118 -16 -118 -2 0 6 -9 10 -20 10 -11 0 -20 -4 -20 -10
0 -5 -8 -10 -17 -10 -15 0 -16 2 -3 10 12 7 10 9 -7 7 -12 0 -19 -5 -16 -10 8
-13 -60 -4 -75 10 -18 17 -27 16 -46 -2 -17 -17 -106 -17 -106 0 0 5 -5 4 -12
-3 -7 -7 -17 -12 -23 -12 -5 0 -3 5 5 10 9 6 10 10 3 10 -6 0 -15 -5 -19 -11
-4 -8 -9 -7 -15 2 -8 12 -11 11 -19 -1 -9 -13 -11 -13 -20 0 -8 12 -12 12 -18
2 -10 -14 -64 -13 -74 3 -5 6 -11 7 -15 0 -9 -11 -185 -17 -178 -6 2 4 -2 8
-10 8 -8 0 -12 -3 -10 -7 2 -3 -12 -7 -31 -7 -19 -1 -36 3 -39 8 -3 4 -12 6
-21 2 -8 -3 -24 3 -35 13 -15 14 -22 15 -32 5 -9 -10 -9 -11 4 -6 10 4 19 3
22 -2 3 -5 -2 -10 -11 -11 -9 -1 -28 -3 -42 -5 -14 -2 -28 1 -32 7 -6 7 -10 8
-15 1 -9 -12 -127 -14 -139 -2 -4 4 -12 7 -18 7 -6 0 -4 -5 4 -10 11 -8 8 -10
-15 -8 -16 2 -36 9 -43 16 -17 16 -33 16 -26 -1 4 -10 -23 -13 -123 -13 -70 0
-130 3 -133 6 -3 4 -15 11 -28 14 -16 5 -22 4 -20 -6 2 -8 -5 -12 -17 -10 -29
4 -35 4 -87 -2 -45 -5 -48 -4 -54 19 -3 14 -11 25 -16 25 -6 0 -8 -9 -5 -20 3
-11 0 -21 -6 -21 -7 -1 -23 -3 -37 -4 -14 -2 -31 2 -38 8 -9 7 -16 7 -20 1 -9
-13 -122 -12 -141 0 -10 7 -12 6 -6 -4 6 -10 4 -11 -6 -4 -8 5 -42 9 -76 9
-33 0 -56 -3 -50 -7 7 -4 0 -8 -16 -8 -16 0 -26 4 -22 9 9 15 -13 23 -32 12
-13 -7 -14 -10 -4 -11 8 0 12 -3 9 -6 -4 -3 -16 -1 -27 6 -12 6 -21 7 -21 2 0
-10 -177 -8 -187 2 -4 3 -25 6 -49 6 -24 0 -45 5 -48 13 -3 6 -3 2 0 -11 5
-21 3 -22 -33 -19 -21 1 -43 6 -50 10 -6 4 -14 3 -17 -2 -7 -11 -106 -9 -123
2 -7 4 -21 3 -31 -2 -13 -7 -23 -6 -32 2 -10 9 -11 9 -5 -2 6 -10 4 -12 -4 -7
-16 11 -62 15 -56 6 6 -10 -56 -6 -73 4 -6 4 -12 2 -12 -3 0 -15 -47 -14 -53
2 -4 8 -8 9 -14 2 -10 -13 -223 -17 -223 -4 0 12 -77 12 -85 -1 -3 -6 -15 -10
-26 -10 -11 0 -17 4 -14 10 3 6 1 10 -4 10 -6 0 -11 -4 -11 -9 0 -5 -15 -8
-34 -8 -23 1 -32 5 -29 14 6 15 -6 17 -27 3 -12 -8 -12 -10 -1 -10 8 0 11 -3
8 -6 -4 -4 -14 -1 -24 7 -9 8 -14 9 -10 3 5 -8 -18 -12 -76 -12 -55 -1 -75 2
-62 8 19 8 19 9 -2 9 -13 1 -23 -2 -23 -6 0 -5 -29 -8 -65 -9 -36 0 -65 2 -65
6 0 4 -7 7 -15 7 -8 0 -12 -4 -10 -7 5 -8 -87 -8 -95 0 -3 3 -18 11 -34 18
-21 10 -32 10 -40 2 -8 -8 -7 -9 5 -5 10 4 20 1 25 -6 4 -7 3 -10 -4 -5 -6 3
-21 1 -35 -5 -17 -8 -35 -8 -62 0 -21 6 -43 7 -49 3 -6 -3 -103 -7 -216 -8
-113 -1 -194 2 -180 6 23 7 23 8 -8 9 -18 1 -31 -3 -28 -8 3 -5 -5 -8 -19 -7
-14 0 -25 4 -25 7 0 11 -29 19 -45 13 -8 -4 -13 -9 -11 -13 2 -3 -13 -7 -35
-8 -21 0 -39 3 -39 8 0 6 -7 6 -18 0 -22 -12 -103 -11 -96 1 6 10 -20 11 -29
1 -10 -9 -67 -9 -67 1 0 4 -8 5 -17 1 -22 -10 -86 -12 -93 -4 -12 14 -71 18
-76 5 -3 -7 -21 -13 -42 -14 -29 0 -33 1 -17 8 15 7 11 8 -15 5 -19 -2 -35 -4
-35 -5 0 -1 -28 -3 -62 -4 -35 -2 -63 1 -63 6 0 4 -9 8 -20 8 -11 0 -20 -4
-20 -10 0 -5 -4 -10 -10 -10 -5 0 -10 7 -10 15 0 16 -16 21 -22 6 -4 -14 -61
-20 -75 -9 -7 5 -18 6 -25 2 -18 -12 -72 -11 -80 1 -5 6 -8 5 -8 -2 0 -7 -9
-13 -20 -13 -11 0 -20 4 -20 8 0 12 -58 14 -65 2 -3 -5 -16 -10 -28 -10 -18 0
-20 2 -7 11 12 9 11 9 -5 3 -28 -11 -176 -14 -169 -3 3 5 -7 9 -21 9 -14 0
-24 -3 -21 -8 2 -4 -60 -7 -139 -7 -79 0 -141 3 -139 7 3 5 -7 8 -23 7 -25 0
-26 -1 -8 -9 16 -7 14 -8 -12 -7 -22 1 -32 7 -30 16 2 17 -59 25 -69 10 -3 -5
3 -6 13 -2 10 3 15 3 11 -1 -3 -4 -14 -9 -25 -11 -10 -2 -18 -4 -18 -5 0 -1
-15 -3 -32 -4 -18 -2 -33 0 -33 5 0 5 -11 9 -24 9 -14 0 -27 4 -30 9 -3 4 -17
6 -31 3 -25 -4 -36 13 -12 21 6 2 5 3 -3 3 -8 -1 -14 -9 -14 -19 1 -9 -4 -17
-12 -17 -8 0 -14 -5 -14 -11 0 -6 -6 -9 -12 -6 -7 2 -13 9 -13 15 0 16 -12 25
-25 17 -7 -4 -8 -11 -1 -18 7 -9 -8 -12 -60 -12 -38 0 -69 3 -69 8 0 4 -11 7
-25 7 -14 0 -25 -3 -25 -7 0 -10 -262 -10 -277 0 -6 4 -14 3 -17 -2 -7 -11
-25 -9 -45 3 -7 5 -16 5 -20 0 -7 -11 -106 -12 -117 -1 -4 4 -12 7 -18 7 -6 0
-4 -5 4 -10 12 -8 9 -10 -12 -7 -15 1 -30 6 -34 10 -4 4 -12 7 -18 7 -6 0 -4
-5 4 -10 12 -8 9 -10 -13 -10 -16 0 -26 4 -23 8 2 4 -5 9 -17 9 -12 1 -25 -3
-29 -10 -5 -8 -8 -8 -8 -1 0 15 -51 15 -69 0 -12 -9 -13 -8 -6 4 6 12 5 13 -6
3 -14 -14 -43 -18 -36 -5 3 4 -8 8 -24 9 -17 1 -29 -3 -29 -9 0 -9 -3 -9 -12
0 -8 8 -17 8 -31 1 -14 -8 -18 -8 -13 0 4 7 -1 11 -13 11 -11 0 -23 -4 -26
-10 -8 -13 -65 -13 -65 0 0 6 -12 10 -27 10 -22 0 -25 -2 -13 -10 12 -8 10
-10 -10 -7 -14 1 -31 7 -39 12 -9 5 -16 5 -18 -1 -3 -10 -110 -10 -120 0 -3 3
-11 2 -17 -1 -20 -13 -35 -11 -29 3 5 14 -12 20 -20 6 -3 -4 -23 -7 -46 -6
-22 0 -38 -3 -35 -8 3 -4 -2 -8 -10 -8 -9 0 -16 5 -16 10 0 6 -18 10 -40 10
-25 0 -40 5 -41 13 0 8 -2 9 -5 0 -4 -8 -12 -8 -31 2 -15 8 -31 11 -36 8 -6
-3 -7 -1 -3 5 5 8 -2 12 -18 12 -14 0 -26 5 -26 10 0 6 -9 10 -20 10 -11 0
-20 5 -20 10 0 6 -7 10 -16 10 -9 0 -24 8 -33 18 -9 10 -24 21 -33 25 -10 3
-18 12 -18 20 0 7 -14 21 -30 30 -17 10 -30 22 -30 27 0 6 -13 22 -29 37 -31
30 -71 96 -71 116 0 7 -9 23 -20 35 -12 13 -16 23 -9 27 7 5 7 11 0 19 -6 7
-12 29 -13 48 -2 20 -6 34 -10 31 -5 -2 -8 2399 -8 5337 0 2938 4 5339 8 5337
4 -3 8 16 10 42 1 25 7 48 12 49 6 2 10 16 10 31 0 15 9 33 20 41 11 8 20 24
20 35 1 26 26 59 39 50 16 -10 13 -28 -4 -22 -8 4 -16 3 -19 -1 -3 -4 4 -8 14
-9 26 -2 35 14 18 34 -10 13 -10 17 0 20 6 3 12 11 12 19 0 18 65 84 82 84 8
0 20 9 28 20 8 11 22 20 32 20 10 0 18 5 18 10 0 6 9 10 20 10 11 0 20 3 20 8
0 4 15 13 33 20 17 7 40 18 49 23 10 5 31 9 48 9 17 0 30 5 30 13 0 7 3 8 8 2
4 -5 13 -11 20 -13z"/>
<path d="M8995 14857 c-24 -14 -65 -59 -65 -70 0 -4 -9 -17 -20 -29 -11 -12
-20 -30 -20 -40 0 -10 -9 -28 -20 -40 -11 -12 -20 -32 -20 -44 0 -12 -3 -24
-7 -26 -5 -1 -19 -24 -32 -50 -13 -27 -28 -48 -33 -48 -4 0 -8 -9 -8 -20 0
-11 -4 -20 -10 -20 -5 0 -10 -7 -10 -15 0 -14 -18 -53 -30 -65 -16 -16 -38
-68 -32 -75 4 -5 1 -5 -5 -1 -8 4 -13 1 -13 -8 0 -9 -4 -16 -10 -16 -5 0 -10
-11 -10 -24 0 -14 -4 -28 -10 -31 -5 -3 -10 -15 -10 -26 0 -10 -4 -19 -10 -19
-5 0 -10 -7 -10 -16 0 -9 -5 -12 -12 -8 -6 4 -8 3 -4 -4 3 -6 -1 -17 -9 -25
-8 -9 -15 -23 -15 -31 0 -9 -4 -16 -10 -16 -5 0 -10 -9 -10 -20 0 -11 -4 -20
-10 -20 -5 0 -10 -7 -10 -16 0 -9 -5 -12 -12 -8 -6 4 -8 3 -4 -4 3 -6 -1 -17
-9 -25 -8 -9 -15 -23 -15 -32 0 -9 -8 -29 -18 -43 -11 -15 -25 -42 -33 -59 -8
-18 -17 -33 -20 -33 -3 0 -35 -57 -70 -127 -35 -71 -67 -129 -71 -131 -5 -2
-8 -10 -8 -18 0 -8 -9 -24 -20 -36 -11 -12 -20 -29 -20 -38 0 -24 -11 -32 -27
-18 -10 8 -17 8 -25 0 -13 -13 0 -35 18 -28 8 3 14 -1 14 -9 0 -8 -4 -15 -8
-15 -5 0 -15 -12 -23 -27 -8 -16 -20 -34 -27 -41 -7 -8 -9 -19 -5 -25 3 -7 3
-9 -2 -5 -10 9 -35 -37 -35 -63 0 -13 -5 -17 -17 -12 -12 5 -15 2 -10 -10 3
-9 2 -17 -3 -17 -6 0 -10 -10 -10 -23 0 -13 -9 -33 -20 -45 -11 -12 -20 -28
-20 -37 0 -8 -4 -15 -10 -15 -5 0 -10 -9 -10 -20 0 -11 -4 -20 -10 -20 -5 0
-10 -10 -10 -22 0 -19 -2 -20 -10 -8 -8 12 -10 10 -10 -8 0 -30 -36 -82 -57
-82 -8 0 -17 9 -20 20 -3 10 -17 25 -32 31 -14 7 -42 34 -61 60 -19 27 -43 49
-52 49 -11 0 -18 8 -18 20 0 11 -6 20 -12 20 -7 0 -26 11 -41 24 -21 19 -27
30 -22 46 6 18 3 20 -19 16 -15 -3 -24 -1 -21 5 4 5 1 9 -5 9 -14 0 -80 66
-80 81 0 15 -51 59 -67 59 -12 0 -17 13 -14 33 0 4 -2 6 -6 6 -27 -4 -35 3
-29 26 6 23 4 25 -19 19 -19 -5 -25 -2 -25 11 0 19 -15 35 -52 54 -16 8 -28
20 -28 26 0 6 -7 20 -16 31 -8 10 -13 13 -9 7 9 -19 -5 -16 -24 5 -15 18 -79
27 -91 13 -3 -3 -18 -14 -35 -23 -20 -12 -29 -24 -28 -38 2 -12 -4 -33 -12
-48 -10 -20 -14 -22 -15 -9 0 9 -5 17 -11 17 -6 0 -9 -10 -7 -22 2 -13 10 -23
18 -23 10 0 15 -10 15 -30 0 -23 5 -30 21 -31 20 -1 314 -284 314 -303 0 -5
11 -16 25 -25 14 -9 23 -22 19 -28 -4 -6 -3 -8 3 -5 14 9 53 -26 53 -47 0 -9
4 -16 8 -16 5 0 28 -18 52 -40 24 -22 47 -40 52 -40 4 0 8 -8 8 -18 0 -9 13
-23 30 -30 17 -8 30 -20 30 -29 0 -8 9 -17 20 -20 11 -3 20 -10 20 -15 0 -5
-6 -6 -12 -3 -7 3 -5 0 6 -7 62 -43 81 -64 78 -85 -2 -13 1 -23 7 -23 6 0 11
8 11 18 0 14 2 14 9 3 5 -8 7 -20 4 -27 -7 -18 16 -28 32 -14 8 7 15 11 16 9
0 -2 2 -12 4 -23 2 -10 8 -23 13 -28 13 -13 35 0 29 16 -3 7 5 13 16 14 15 1
18 -1 9 -7 -11 -6 -10 -10 3 -15 24 -9 45 -7 45 3 0 5 -7 11 -15 13 -10 2 -7
7 10 15 19 8 23 8 18 0 -3 -7 6 -1 20 12 15 13 24 28 21 33 -3 5 -2 8 3 7 23
-4 33 3 33 24 0 12 9 33 20 47 11 14 20 32 20 40 0 8 9 26 20 40 11 14 20 30
20 35 0 6 9 17 20 25 11 8 20 23 20 33 0 10 8 31 18 45 11 15 25 42 33 60 8
17 17 32 20 32 3 0 12 18 19 40 7 22 17 40 22 40 4 0 8 9 8 19 0 11 3 21 8 23
6 3 36 55 66 115 6 13 14 23 19 23 4 0 7 7 7 15 0 19 20 55 43 76 9 9 17 23
17 32 0 9 5 19 10 22 6 3 10 15 10 26 0 11 4 18 8 15 4 -2 9 4 9 15 1 10 11
32 22 48 12 16 21 34 21 41 0 7 8 24 18 38 10 15 24 41 32 57 8 17 23 39 33
49 9 11 17 27 17 36 0 9 9 26 20 38 11 12 20 28 20 37 0 8 5 15 10 15 6 0 10
6 10 13 0 18 24 67 33 67 4 0 7 6 7 13 0 18 24 67 33 67 4 0 7 7 7 16 0 8 4
13 8 10 5 -3 9 1 9 9 0 20 44 105 55 105 4 0 8 7 8 15 0 9 9 25 20 37 11 12
20 32 20 45 0 13 5 23 10 23 6 0 10 7 10 15 0 9 9 25 20 37 11 12 20 28 20 35
0 7 5 13 10 13 6 0 10 9 10 20 0 11 5 20 10 20 6 0 10 7 10 15 0 9 9 25 20 37
18 20 25 39 21 61 -1 5 3 6 9 2 5 -3 10 1 10 9 0 9 5 16 10 16 6 0 10 9 10 20
0 11 5 20 10 20 6 0 10 9 10 20 0 11 3 20 8 20 4 0 12 21 18 46 9 40 8 52 -10
90 -17 35 -26 44 -48 44 -15 0 -30 5 -33 10 -8 13 -45 12 -70 -3z"/>
<path d="M7162 14603 c2 -11 -3 -18 -12 -18 -8 0 -18 -4 -22 -10 -5 -6 -11 -5
-17 4 -6 9 -11 10 -15 2 -11 -16 -179 -15 -170 2 6 10 4 10 -7 0 -16 -15 -65
-17 -74 -3 -3 6 -14 10 -23 9 -14 0 -13 -2 3 -9 15 -7 10 -9 -23 -9 -32 -1
-41 2 -36 12 6 10 4 10 -7 0 -16 -15 -43 -17 -34 -3 3 6 -3 10 -15 10 -12 0
-18 -4 -15 -10 3 -5 -1 -10 -9 -10 -8 0 -18 5 -21 10 -3 6 -19 10 -35 10 -16
0 -32 -4 -35 -10 -3 -5 -18 -10 -32 -10 -14 0 -33 -8 -42 -18 -9 -10 -24 -21
-33 -25 -10 -3 -18 -13 -18 -22 0 -8 -4 -15 -10 -15 -5 0 -10 -12 -10 -26 0
-17 -4 -23 -12 -18 -10 6 -10 4 0 -8 7 -9 9 -19 5 -21 -12 -7 -15 -67 -4 -67
12 0 9 -33 -4 -42 -7 -5 -6 -13 1 -25 6 -11 8 -29 3 -47 -5 -17 -5 -35 -1 -40
9 -12 8 -73 -1 -96 -3 -8 -8 -34 -10 -57 -4 -33 -2 -43 9 -43 17 0 18 -12 2
-28 -9 -9 -10 -17 -2 -30 6 -9 8 -26 4 -37 -4 -11 -3 -26 3 -33 8 -10 8 -16 0
-20 -13 -9 -12 -142 2 -142 6 0 3 -5 -5 -10 -11 -7 -12 -12 -3 -21 7 -7 8 -21
2 -42 -11 -40 -10 -58 2 -32 9 20 3 -103 -7 -136 -2 -9 0 -29 6 -45 8 -20 8
-30 1 -32 -8 -3 -8 -10 0 -24 8 -15 8 -19 0 -14 -6 4 -11 2 -11 -3 0 -6 3 -11
8 -11 4 0 8 -22 9 -50 1 -27 -3 -50 -8 -50 -14 0 -11 -54 4 -69 10 -11 9 -12
-3 -6 -12 7 -13 6 -3 -6 9 -12 10 -18 1 -27 -8 -8 -8 -18 -1 -34 5 -13 7 -34
4 -48 -8 -35 -7 -180 3 -210 6 -19 5 -22 -3 -10 -9 11 -10 5 -6 -25 12 -93 13
-125 3 -125 -6 0 -7 -7 -4 -15 3 -8 9 -23 12 -32 5 -15 4 -16 -5 -3 -10 14 -8
-21 4 -82 1 -9 -2 -19 -9 -21 -8 -3 -8 -10 2 -26 10 -17 10 -21 0 -21 -10 0
-10 -2 1 -9 8 -5 9 -11 3 -15 -6 -3 -7 -19 -2 -40 4 -18 3 -40 -1 -49 -9 -16
-8 -97 2 -97 3 0 6 -7 6 -15 0 -8 -5 -15 -10 -15 -5 0 -4 -6 2 -14 9 -11 9
-15 -1 -20 -10 -5 -10 -7 0 -12 19 -9 15 -45 -4 -37 -12 4 -15 2 -12 -8 3 -8
10 -15 16 -15 7 -1 18 -2 25 -3 8 -1 7 -4 -3 -11 -13 -8 -12 -10 3 -10 11 0
32 -13 47 -30 16 -17 38 -30 52 -30 13 0 30 -6 37 -12 10 -9 12 -9 7 -1 -4 8
7 11 39 10 25 -1 45 -5 45 -10 0 -4 5 -5 12 -1 15 9 142 9 157 -1 6 -3 11 -2
11 3 0 13 71 12 87 0 7 -6 20 -5 32 1 14 8 22 8 26 1 5 -8 11 -8 19 -1 9 7 16
7 25 -2 7 -7 14 -8 19 -2 10 14 49 18 57 5 3 -6 12 -7 18 -3 18 11 91 10 100
-2 5 -7 9 -6 15 1 7 12 51 11 111 -2 24 -5 32 -3 27 5 -4 6 -1 11 8 11 8 0 17
-6 19 -12 4 -10 8 -10 15 1 7 10 11 10 17 1 6 -9 9 -9 15 0 5 8 13 9 21 4 18
-11 40 -12 62 -1 12 5 24 4 33 -4 11 -9 18 -9 26 -1 16 16 48 15 48 0 0 -9 2
-10 8 -2 8 13 239 14 259 1 6 -4 23 -2 38 5 16 7 29 8 33 2 8 -10 42 -15 42
-5 0 3 14 7 30 8 17 1 30 -2 30 -8 0 -6 6 -7 12 -3 18 11 48 12 54 2 7 -12 74
-10 74 2 0 6 9 10 20 10 11 0 20 -4 20 -10 0 -5 9 -10 20 -10 11 0 20 4 20 10
0 12 42 9 52 -4 4 -6 14 -4 24 5 11 9 15 9 10 2 -4 -8 -1 -13 8 -13 9 0 16 4
16 9 0 6 10 7 23 5 12 -3 32 -8 45 -11 12 -3 22 -1 22 5 0 5 11 9 25 8 14 0
25 -5 25 -9 0 -5 6 -5 13 0 15 10 137 10 130 1 -2 -5 5 -8 16 -8 12 0 21 4 21
8 0 13 63 13 72 0 8 -10 11 -10 15 -1 3 10 10 10 25 2 15 -8 19 -8 14 0 -5 7
6 11 32 11 29 0 46 7 66 26 14 15 26 31 26 36 0 5 9 18 20 30 21 23 23 41 22
330 0 117 2 126 17 111 11 -12 13 -17 3 -21 -15 -5 -16 -42 -1 -42 6 0 9 6 6
14 -3 7 0 19 6 25 8 8 5 17 -11 34 -23 24 -31 90 -12 102 6 3 10 24 10 45 0
21 -4 42 -10 45 -5 3 -10 35 -10 71 0 41 4 63 10 59 11 -7 14 18 3 28 -11 11
-12 57 -2 57 6 0 7 -6 3 -12 -4 -7 1 -6 10 3 17 16 13 49 -7 49 -7 0 -7 -4 1
-12 7 -7 12 -16 12 -21 0 -5 -7 -1 -15 7 -13 12 -14 20 -5 37 9 15 9 24 1 32
-12 12 -15 199 -4 211 4 4 8 21 9 38 1 17 -1 25 -5 19 -4 -7 -8 2 -8 19 0 19
3 26 8 18 14 -23 21 0 7 24 -7 12 -13 37 -14 53 -4 206 -1 187 -41 220 -48 38
-101 38 -139 0 -14 -14 -30 -23 -35 -19 -5 3 -9 2 -8 -3 4 -23 -2 -64 -9 -59
-4 2 -9 -7 -10 -20 -1 -15 2 -22 8 -19 6 3 10 1 10 -4 0 -6 -4 -11 -10 -11 -5
0 -10 -18 -10 -40 0 -22 3 -40 8 -40 4 0 7 -13 7 -30 0 -16 -3 -30 -7 -30 -5
0 -8 -27 -8 -60 0 -33 4 -60 8 -60 5 0 9 -13 9 -30 0 -16 -4 -30 -9 -30 -4 0
-8 -12 -8 -27 0 -22 2 -25 10 -13 8 12 10 10 7 -10 -1 -14 -6 -31 -10 -37 -5
-7 -5 -19 0 -25 14 -23 14 -50 1 -42 -10 6 -9 4 0 -8 10 -13 11 -22 2 -37 -6
-12 -7 -21 -1 -21 11 0 8 -90 -3 -108 -4 -7 -3 -19 4 -27 7 -9 8 -15 0 -20 -7
-4 -7 -12 0 -26 7 -13 7 -19 0 -19 -14 0 -13 -47 3 -53 10 -4 10 -7 0 -18 -14
-15 -17 -49 -5 -49 10 0 8 -112 -3 -158 -4 -20 -3 -32 4 -32 7 0 7 -8 -1 -25
-9 -19 -9 -28 0 -37 15 -15 16 -68 2 -68 -5 0 -10 -8 -10 -17 0 -15 2 -16 10
-3 6 9 10 10 10 3 0 -6 -4 -15 -10 -18 -5 -3 -10 -15 -10 -26 0 -10 5 -19 10
-19 6 0 10 -4 10 -9 0 -5 -61 -10 -136 -10 -95 -1 -133 3 -128 10 4 8 0 8 -14
0 -28 -15 -88 -14 -112 1 -16 10 -24 10 -40 0 -24 -15 -102 -16 -117 -1 -8 8
-17 8 -30 0 -23 -12 -122 -11 -129 1 -3 4 -13 8 -22 7 -14 0 -13 -2 3 -9 13
-6 -6 -8 -58 -8 -43 1 -80 5 -83 10 -7 11 -62 10 -69 -2 -3 -5 -23 -10 -43 -9
-29 0 -33 2 -17 8 14 6 7 8 -25 8 -31 0 -39 -2 -25 -7 11 -5 -20 -8 -73 -8
-54 0 -90 3 -87 9 4 5 -1 9 -9 9 -8 0 -18 -4 -21 -10 -8 -13 -98 -13 -111 0
-6 6 -22 6 -44 0 -46 -13 -267 -13 -275 0 -3 6 -14 10 -23 9 -14 0 -13 -2 3
-8 12 -5 -18 -9 -78 -9 -75 -1 -96 1 -91 11 6 9 4 9 -7 1 -8 -6 -68 -12 -142
-13 -100 -1 -131 2 -143 13 -12 13 -14 158 -14 1040 l0 1026 828 1 c936 1 871
0 869 14 -1 5 4 9 11 7 8 -1 11 2 8 7 -4 5 -1 13 5 16 5 4 8 13 5 21 -3 8 -1
14 4 14 6 0 10 7 10 15 0 8 6 12 14 9 17 -7 32 14 19 27 -11 11 -45 1 -38 -11
3 -5 0 -12 -6 -15 -7 -5 -9 4 -5 27 5 29 1 37 -29 61 -28 22 -44 27 -90 27
-35 0 -54 4 -50 10 3 6 1 10 -4 10 -6 0 -11 -4 -11 -9 0 -5 -32 -9 -71 -10
-44 -1 -68 3 -64 9 3 6 2 10 -4 10 -5 0 -13 -4 -16 -10 -3 -5 -19 -10 -35 -10
-16 0 -32 5 -35 10 -3 6 -12 10 -18 10 -7 0 -6 -4 3 -10 10 -7 -33 -10 -130
-10 -97 0 -140 3 -130 10 12 8 11 10 -7 10 -12 0 -25 -4 -28 -10 -9 -14 -58
-12 -74 3 -11 10 -13 10 -7 0 6 -10 -31 -13 -168 -13 -111 0 -176 4 -176 10 0
6 -5 10 -11 10 -5 0 -7 -4 -4 -10 4 -6 -8 -10 -29 -10 -35 0 -47 12 -26 25 12
7 4 25 -11 25 -5 0 -9 -8 -7 -17z"/>
<path d="M11715 13501 c-8 -15 3 -31 29 -41 18 -7 18 -9 3 -9 -10 -1 -27 4
-38 9 -14 8 -19 7 -19 -1 0 -11 -19 -10 -80 5 -22 6 -22 5 -5 -3 15 -8 0 -10
-57 -8 -42 1 -74 5 -71 10 6 11 -52 4 -81 -8 -14 -6 -17 -5 -12 3 8 13 -16 17
-28 5 -10 -11 -36 -12 -36 -2 0 5 -7 9 -16 9 -8 0 -13 -4 -10 -9 3 -5 -10 -9
-29 -8 -19 1 -35 5 -35 10 0 5 -10 6 -22 2 -34 -10 -99 -12 -104 -3 -3 5 -14
8 -25 8 -11 0 -18 -3 -16 -7 7 -12 -87 -10 -95 1 -4 6 -13 4 -24 -5 -11 -9
-15 -9 -10 -1 5 9 -3 12 -32 12 -21 0 -42 -3 -45 -6 -9 -10 -87 -11 -87 -1 0
11 -48 9 -55 -3 -7 -11 -134 -8 -152 3 -7 4 -14 3 -18 -3 -6 -9 -18 -8 -94 6
-20 4 -31 3 -28 -3 3 -5 -12 -10 -34 -10 -21 -1 -39 2 -39 6 0 5 -11 8 -24 7
-13 0 -22 -4 -19 -8 2 -5 -5 -8 -16 -8 -12 0 -21 5 -21 10 0 6 -5 10 -11 10
-5 0 -8 -4 -5 -8 2 -4 -6 -8 -20 -8 -13 0 -24 4 -24 8 0 4 -12 8 -27 8 -20 0
-24 -3 -14 -9 8 -5 -14 -9 -58 -9 -51 0 -69 3 -64 11 5 9 3 9 -8 1 -18 -14
-82 -14 -91 0 -6 8 -10 8 -15 0 -5 -6 -17 -9 -28 -7 -45 10 -75 9 -75 -1 0 -6
-4 -5 -9 2 -6 10 -10 10 -21 -2 -7 -9 -17 -13 -23 -9 -5 3 -7 2 -4 -4 3 -5 -5
-21 -19 -36 -20 -22 -24 -36 -22 -71 2 -24 6 -42 11 -39 4 2 7 -1 7 -7 0 -13
17 -30 48 -47 17 -10 452 -13 2083 -13 1824 0 2062 2 2076 15 8 8 19 13 24 9
5 -3 9 -2 8 3 -1 4 3 21 9 36 7 16 12 37 12 47 0 10 7 17 16 16 28 -2 26 18
-4 52 -21 23 -34 30 -50 25 -12 -3 -22 -1 -22 3 0 5 -9 15 -21 22 -15 10 -19
10 -14 1 6 -8 4 -10 -6 -3 -17 10 -69 13 -63 2 2 -4 -5 -6 -16 -5 -11 1 -20 4
-20 8 0 6 -47 4 -89 -5 -14 -3 -31 0 -40 7 -12 9 -13 9 -7 0 4 -7 2 -13 -3
-13 -6 0 -11 5 -11 10 0 6 -9 10 -21 10 -11 0 -18 -4 -15 -8 3 -5 -8 -9 -25
-10 -16 0 -27 4 -23 9 3 6 -5 7 -23 3 -46 -11 -103 -13 -97 -3 3 5 1 9 -5 9
-5 0 -11 -3 -14 -7 -2 -5 -2 -2 -1 5 2 6 -5 12 -16 12 -11 0 -20 5 -20 10 0 6
9 10 20 10 11 0 20 -4 20 -10 0 -5 5 -10 10 -10 21 0 9 20 -16 26 -35 9 -56
-12 -31 -31 18 -13 18 -13 0 -19 -28 -9 -293 -5 -293 4 0 4 -15 8 -34 7 -19 0
-33 -5 -30 -9 3 -4 -13 -7 -35 -6 -24 1 -38 5 -34 11 4 6 1 7 -8 1 -19 -12
-129 -15 -129 -3 0 5 -5 9 -11 9 -5 0 -8 -4 -5 -9 3 -5 -41 -8 -99 -8 -61 0
-105 4 -105 10 0 5 -6 4 -14 -2 -10 -8 -16 -9 -21 -1 -3 5 -11 10 -16 10 -6 0
-7 -4 -4 -10 4 -6 -8 -10 -29 -10 -20 0 -36 5 -36 10 0 6 -11 10 -25 10 -14 0
-25 -4 -25 -10 0 -5 -14 -10 -31 -10 -23 0 -30 4 -26 14 3 8 -1 22 -8 33 -11
15 -16 16 -27 5 -11 -11 -10 -16 5 -27 10 -7 15 -15 10 -18 -16 -9 -253 -6
-253 4 0 5 -7 9 -15 9 -8 0 -15 -4 -15 -10 0 -6 -28 -10 -65 -10 -45 0 -65 4
-65 13 0 8 -3 9 -8 1 -9 -15 -172 -15 -192 0 -8 6 -15 17 -15 25 0 18 -21 26
-30 12z"/>
<path d="M8975 11820 c-3 -5 -15 -10 -26 -10 -12 0 -19 -7 -19 -20 0 -11 -4
-20 -8 -20 -5 0 -20 -21 -33 -47 -13 -27 -27 -49 -31 -51 -5 -2 -8 -10 -8 -18
0 -9 -5 -12 -10 -9 -6 4 -10 3 -9 -2 4 -23 -2 -43 -11 -38 -6 4 -10 3 -9 -2 4
-24 -2 -43 -13 -37 -6 4 -8 3 -5 -3 3 -5 -14 -50 -40 -99 -25 -49 -50 -99 -57
-111 -6 -13 -14 -23 -18 -23 -5 0 -8 -9 -8 -20 0 -11 -4 -20 -10 -20 -5 0 -10
-9 -10 -20 0 -11 -4 -20 -10 -20 -5 0 -7 7 -4 15 4 8 1 15 -4 15 -16 0 -24
-18 -12 -25 16 -10 12 -29 -10 -53 -11 -12 -20 -29 -20 -39 0 -10 -9 -29 -20
-43 -11 -14 -20 -31 -20 -37 0 -7 -4 -13 -10 -13 -5 0 -10 -9 -10 -20 0 -11
-4 -20 -10 -20 -5 0 -10 -7 -10 -16 0 -8 -7 -22 -15 -31 -8 -8 -12 -19 -9 -25
4 -7 2 -8 -4 -4 -7 4 -12 1 -12 -8 0 -9 -4 -16 -10 -16 -5 0 -10 -9 -10 -19 0
-11 -15 -48 -34 -84 -19 -36 -32 -68 -28 -73 4 -4 2 -4 -4 -1 -6 3 -17 -9 -24
-28 -8 -19 -17 -35 -22 -35 -4 0 -8 -9 -8 -20 0 -11 -4 -20 -10 -20 -5 0 -10
-7 -10 -16 0 -9 -5 -12 -12 -8 -6 4 -8 3 -5 -3 4 -6 0 -19 -8 -29 -8 -10 -15
-27 -15 -37 0 -10 -4 -16 -8 -13 -4 2 -9 -4 -9 -15 -1 -10 -11 -32 -22 -48
-12 -16 -21 -34 -21 -40 0 -6 -4 -11 -10 -11 -5 0 -10 -9 -10 -20 0 -11 -4
-20 -10 -20 -5 0 -10 -9 -10 -20 0 -11 -3 -20 -7 -20 -9 0 -33 -49 -33 -67 0
-7 -4 -13 -9 -13 -5 0 -20 -23 -33 -51 -24 -47 -27 -49 -42 -33 -9 9 -20 14
-23 11 -3 -3 2 -13 11 -22 17 -17 22 -45 8 -45 -4 0 -15 -18 -25 -40 -9 -22
-22 -40 -28 -40 -5 0 -7 -5 -3 -11 4 -8 1 -8 -13 -1 -15 9 -19 7 -19 -8 0 -10
4 -16 8 -14 14 9 9 -15 -11 -47 -11 -18 -22 -26 -25 -20 -4 6 -2 11 5 11 7 0
9 3 6 6 -4 4 -13 2 -20 -4 -11 -9 -23 -1 -58 39 -64 73 -67 77 -107 107 -51
37 -62 49 -62 62 0 13 -24 40 -36 40 -4 0 -76 69 -160 154 -84 85 -156 151
-160 148 -4 -4 -4 -2 -1 4 7 12 -67 94 -84 94 -6 0 -8 4 -5 8 3 5 -23 10 -57
11 -52 1 -66 -2 -88 -21 -34 -31 -61 -98 -39 -98 6 0 10 -12 10 -26 0 -17 11
-36 30 -53 22 -19 27 -30 20 -41 -5 -8 -12 -11 -17 -7 -4 5 -1 12 7 17 9 6 10
10 3 10 -18 0 -27 -20 -15 -32 8 -8 15 -8 25 0 11 9 33 -8 110 -83 53 -52 97
-100 97 -106 0 -5 5 -7 11 -3 7 4 7 -1 -1 -16 -15 -28 1 -50 24 -31 17 14 36
2 49 -31 3 -10 11 -18 17 -18 14 0 120 -106 120 -120 0 -6 7 -13 15 -16 8 -4
12 -11 8 -17 -3 -5 -1 -7 4 -4 6 4 25 -6 43 -23 24 -22 30 -35 25 -51 -6 -18
-4 -20 13 -14 17 5 41 -14 122 -95 56 -55 109 -100 119 -100 9 0 21 -4 26 -9
14 -12 75 -22 75 -11 0 15 40 22 56 9 22 -18 42 4 24 26 -11 13 -11 20 0 40 7
14 17 25 22 25 4 0 8 9 8 20 0 11 5 20 10 20 6 0 10 10 10 23 0 13 8 32 18 43
24 28 42 61 42 79 0 8 5 15 10 15 6 0 10 6 10 14 0 8 5 18 12 22 6 4 8 3 5 -3
-4 -6 3 -10 15 -9 27 1 33 19 13 36 -10 8 -15 9 -15 1 0 -6 5 -11 10 -11 6 0
10 -4 10 -10 0 -16 -17 -12 -24 6 -3 9 3 28 14 44 11 15 20 38 20 49 0 12 5
21 10 21 6 0 10 7 10 15 0 9 9 25 20 37 11 12 20 29 20 38 0 9 9 26 20 38 11
12 20 27 20 34 0 8 9 20 20 28 11 8 20 25 20 38 0 13 4 21 8 18 4 -2 9 7 10
22 1 14 6 28 10 31 4 3 18 27 31 54 13 26 28 47 33 47 4 0 8 9 8 20 0 11 5 20
10 20 6 0 10 9 10 20 0 11 5 20 10 20 6 0 10 9 10 20 0 11 5 20 10 20 6 0 10
7 10 15 0 9 9 25 20 37 11 12 20 28 20 35 0 7 5 13 10 13 6 0 10 6 10 13 0 18
24 67 33 67 4 0 7 9 7 20 0 11 5 20 10 20 6 0 10 6 10 13 0 6 9 23 20 37 11
14 20 35 20 48 0 12 4 22 8 22 5 0 20 21 33 48 13 26 27 49 32 50 4 2 7 11 7
21 0 9 9 23 20 31 11 8 20 22 20 32 0 10 11 37 25 60 14 24 33 60 42 81 10 20
21 37 25 37 5 0 8 8 8 18 0 24 19 42 36 35 11 -4 12 2 7 27 -4 24 -3 31 6 26
6 -4 11 -4 10 1 -4 22 3 41 21 61 11 12 20 28 20 37 0 8 5 15 10 15 6 0 10 9
10 20 0 11 5 20 10 20 6 0 10 8 10 18 0 10 4 22 8 28 20 23 35 94 25 117 -6
12 -14 30 -17 40 -3 9 -12 17 -21 17 -8 0 -15 5 -15 10 0 6 -9 10 -19 10 -11
0 -23 5 -26 10 -3 6 -15 10 -25 10 -10 0 -22 -4 -25 -10z"/>
<path d="M6740 11692 c0 -6 6 -13 13 -15 6 -3 -5 -6 -25 -6 -20 -1 -40 4 -44
10 -4 8 -9 7 -15 -2 -6 -11 -11 -11 -21 -1 -6 6 -19 12 -27 12 -14 0 -14 -1
-1 -10 11 -7 5 -10 -23 -10 -40 0 -71 -14 -99 -44 -14 -15 -21 -16 -32 -7 -11
9 -14 9 -13 -1 2 -60 -5 -118 -13 -113 -6 4 -7 12 -4 18 4 7 1 7 -7 -1 -12
-11 -12 -15 1 -25 18 -14 23 -90 6 -80 -6 4 -4 -2 4 -12 8 -10 10 -16 3 -12
-8 5 -11 -93 -9 -391 0 -218 -2 -419 -5 -447 -4 -27 -3 -54 1 -60 14 -18 -3
-95 -21 -95 -5 0 -9 -4 -9 -10 0 -5 8 -10 18 -10 16 0 17 -30 17 -482 1 -266
4 -498 7 -516 4 -18 2 -30 -3 -26 -5 3 -9 0 -9 -5 0 -6 4 -11 9 -11 5 0 7 -9
4 -20 -5 -19 -6 -19 -19 -3 -10 14 -15 15 -24 6 -14 -13 -5 -34 13 -32 22 3
37 -1 36 -8 -1 -5 -1 -20 0 -35 1 -36 80 -118 113 -118 14 0 28 -3 32 -7 4 -5
29 -8 54 -9 26 0 72 -1 102 -2 30 -2 135 -1 232 0 141 2 179 0 183 -10 8 -22
5 -28 -6 -12 -9 13 -10 13 -6 0 2 -8 14 -15 27 -15 13 0 25 7 27 15 4 13 3 13
-6 0 -5 -8 -13 -11 -18 -7 -15 16 20 24 110 27 51 1 112 4 137 6 25 1 52 3 60
2 98 -1 846 -8 910 -7 47 0 177 0 290 1 113 0 215 4 227 9 13 5 22 5 22 1 -4
-22 2 -42 12 -42 7 0 9 11 5 30 -4 24 -2 32 11 37 10 4 32 22 50 40 29 28 33
39 33 86 0 29 5 58 12 65 8 8 8 15 -1 26 -14 17 -14 343 0 352 5 3 9 13 8 22
0 14 -2 13 -9 -3 -8 -19 -9 -19 -9 3 -1 12 5 31 11 42 10 16 10 24 0 40 -9 15
-12 100 -12 330 0 269 2 310 15 310 8 0 15 9 15 20 0 22 -15 27 -23 8 -5 -11
-12 252 -8 275 1 5 -3 6 -9 2 -5 -3 -10 1 -10 9 0 9 -8 16 -19 16 -11 0 -23 5
-26 10 -9 14 -78 12 -94 -2 -11 -11 -12 -10 -6 1 5 9 4 12 -3 7 -7 -4 -12 -14
-12 -22 0 -8 -9 -14 -20 -14 -15 0 -20 -7 -20 -28 0 -15 -5 -33 -11 -39 -8 -8
-7 -17 2 -32 11 -16 11 -23 1 -33 -15 -15 -16 -88 -2 -88 7 0 7 -7 -1 -21 -7
-14 -7 -19 0 -15 7 4 10 -6 9 -29 -1 -20 -4 -32 -7 -28 -10 15 -46 9 -46 -7 0
-10 8 -14 26 -12 17 1 26 -3 26 -13 0 -8 -4 -15 -8 -15 -13 0 -17 -65 -4 -85
9 -15 13 -100 5 -100 -1 0 -3 -10 -6 -22 -2 -13 0 -23 5 -23 10 0 9 -19 -2
-37 -4 -6 -4 -14 0 -16 5 -3 9 -33 11 -67 2 -41 0 -60 -7 -55 -6 3 -11 -1 -11
-10 0 -9 4 -14 8 -11 5 3 9 -1 9 -9 0 -8 -4 -12 -9 -9 -4 3 -4 -5 0 -18 9 -29
9 -49 -2 -67 -7 -10 -6 -12 4 -6 10 6 11 4 5 -11 -15 -36 -17 -64 -6 -64 8 0
9 -5 2 -19 -6 -10 -8 -21 -5 -24 10 -9 11 -117 2 -117 -12 0 -10 -68 3 -76 8
-5 7 -9 -1 -14 -8 -5 -10 -15 -5 -26 11 -26 13 -74 3 -68 -12 8 -10 -34 4 -55
9 -15 9 -23 -1 -35 -15 -18 -47 -21 -56 -6 -3 6 -30 10 -58 10 -37 0 -48 -3
-37 -10 12 -8 9 -10 -12 -10 -14 0 -28 6 -31 13 -3 9 -9 9 -28 -2 -16 -10 -24
-10 -27 -2 -5 15 -69 14 -76 -1 -5 -10 -7 -10 -12 0 -3 6 -15 12 -27 11 -21 0
-21 -1 -2 -9 17 -7 15 -9 -12 -9 -17 -1 -34 5 -36 12 -4 8 -8 9 -14 1 -4 -6
-37 -11 -73 -11 l-65 -1 55 8 55 7 -50 1 c-29 1 -56 -3 -63 -10 -9 -9 -15 -9
-24 0 -7 7 -19 12 -28 11 -10 0 -9 -3 5 -9 16 -7 13 -9 -15 -9 -20 -1 -42 5
-49 12 -11 9 -13 9 -7 0 9 -16 -35 -13 -46 2 -5 7 -10 7 -15 0 -11 -14 -83
-19 -83 -6 0 6 -20 11 -46 11 -30 0 -43 -4 -38 -11 4 -7 -1 -7 -16 1 -15 8
-20 8 -16 1 5 -8 -15 -11 -64 -11 -45 0 -69 4 -65 10 3 6 1 10 -4 10 -6 0 -11
-3 -11 -7 0 -11 -52 -10 -69 1 -10 6 -12 5 -7 -2 5 -8 -4 -12 -29 -12 -22 0
-34 4 -30 10 3 6 1 10 -4 10 -6 0 -11 -4 -11 -9 0 -5 -67 -8 -150 -7 -82 0
-150 4 -150 8 0 5 -7 8 -15 8 -8 0 -15 -4 -15 -9 0 -8 -44 -7 -160 3 -19 1
-39 0 -45 -4 -20 -12 -67 -11 -82 2 -13 10 -17 10 -20 1 -3 -7 -11 -13 -19
-13 -9 0 -13 4 -10 8 3 5 -8 9 -25 9 -20 0 -26 -3 -17 -9 8 -5 4 -7 -14 -5
-15 1 -30 6 -34 10 -10 10 -44 9 -44 -1 0 -5 -25 -10 -55 -11 l-55 -2 1 1028
c0 579 4 1019 9 1008 6 -14 9 -15 9 -4 1 8 -4 20 -10 26 -7 7 -9 19 -6 27 6
14 90 16 817 16 630 0 815 3 832 13 31 17 48 34 48 47 0 6 4 9 8 6 4 -2 9 12
10 32 2 20 5 45 8 55 3 9 0 17 -6 17 -6 0 -8 -5 -4 -12 4 -7 3 -8 -4 -4 -7 4
-12 13 -12 21 0 17 -54 45 -87 45 -13 0 -32 6 -43 12 -16 10 -24 10 -40 0 -15
-9 -103 -12 -352 -11 -183 1 -315 5 -293 9 39 7 39 7 7 9 -18 0 -41 -5 -52
-11 -16 -10 -24 -10 -41 0 -15 10 -24 11 -32 3 -16 -16 -319 -15 -335 1 -9 9
-15 9 -24 0 -17 -17 -28 -15 -21 5 5 13 2 15 -11 10 -10 -4 -22 -7 -27 -7 -6
0 -7 -4 -4 -10 4 -6 -37 -10 -117 -9 -78 0 -116 4 -103 9 19 8 19 9 -2 9 -12
1 -28 4 -37 7 -9 3 -16 2 -16 -4z"/>
<path d="M12076 10541 c-4 -5 -485 -9 -1137 -10 -622 -1 -1142 -4 -1155 -7
-14 -4 -23 -12 -21 -18 6 -15 -15 -34 -32 -28 -8 3 -12 -1 -8 -9 2 -8 11 -13
18 -11 11 3 12 1 2 -9 -38 -38 26 -139 87 -139 17 0 29 -4 26 -9 -6 -10 1 -9
47 4 17 4 38 3 52 -3 15 -7 27 -8 30 -2 3 6 16 5 31 0 17 -7 23 -7 19 0 -3 6
3 10 15 10 14 0 19 -4 14 -12 -6 -10 -4 -10 7 0 16 14 33 16 24 2 -9 -14 28
-13 43 2 8 8 15 8 28 -3 12 -9 15 -10 10 -1 -5 8 0 12 14 12 13 0 19 -4 14
-12 -5 -8 -3 -8 7 -2 18 11 59 13 59 2 0 -12 38 -10 42 3 2 6 12 7 28 1 15 -6
35 -5 53 2 23 8 31 8 34 -1 5 -14 43 -18 43 -5 0 4 30 8 68 9 37 1 61 -1 55
-5 -8 -5 2 -8 22 -9 19 -1 35 3 35 8 0 5 10 9 23 9 18 0 19 -2 7 -10 -12 -8
-9 -10 12 -10 15 0 29 4 32 8 6 10 42 9 52 -1 10 -10 86 -9 80 1 -2 4 6 8 20
8 13 0 24 -4 24 -9 0 -5 8 -6 18 -2 26 11 72 13 78 3 8 -12 58 -10 71 3 7 7
17 8 25 3 18 -11 39 -14 33 -4 -2 4 6 8 20 8 14 0 22 -4 19 -9 -3 -5 4 -9 16
-9 12 0 19 4 15 9 -6 10 111 5 127 -5 4 -3 8 -1 8 4 0 10 196 9 207 -1 3 -4
13 -7 22 -6 12 0 11 3 -4 9 -18 8 -18 9 -2 9 10 1 27 -4 38 -9 12 -7 19 -7 19
-1 0 13 60 9 61 -4 1 -5 1 -15 0 -22 -2 -17 19 -27 32 -14 7 7 6 16 -6 29 -17
18 -16 19 7 18 14 -1 28 -5 32 -9 4 -4 14 -7 23 -6 12 0 11 3 -4 9 -12 4 16 7
72 7 54 -1 89 -5 86 -11 -4 -5 -1 -6 8 0 17 11 179 12 172 2 -2 -5 5 -8 17 -8
12 0 19 4 16 8 -2 4 4 9 15 9 10 1 19 -4 19 -10 0 -8 3 -8 8 -2 10 14 55 18
46 4 -4 -7 1 -7 16 1 15 8 20 8 16 1 -5 -7 2 -11 18 -11 14 0 26 5 26 10 0 6
9 10 21 10 11 0 18 -4 15 -8 -2 -4 4 -9 15 -9 10 -1 19 1 19 5 0 9 121 8 136
-1 6 -3 14 -3 18 1 11 10 375 9 369 -2 -6 -9 49 -4 82 8 16 6 17 6 5 -3 -9 -7
-10 -11 -3 -11 6 0 14 4 18 10 6 11 170 9 181 -2 4 -5 14 -8 23 -8 14 0 14 2
1 10 -11 7 -6 9 18 7 17 -2 35 -7 39 -10 3 -4 11 -7 17 -7 6 0 4 5 -4 10 -11
7 -1 9 32 8 29 -2 43 -6 35 -11 -12 -8 3 -6 54 9 14 4 19 2 15 -5 -4 -6 0 -11
9 -11 9 0 14 3 12 8 -3 4 8 7 24 8 16 1 29 -3 29 -7 0 -5 13 -7 30 -6 16 1 30
4 30 7 0 9 154 5 169 -4 10 -6 12 -5 7 2 -5 8 1 12 18 12 13 0 26 -6 29 -12 3
-10 7 -10 18 -2 8 6 37 11 64 12 138 1 130 -1 145 37 7 19 18 31 24 28 6 -3 8
-3 4 1 -4 5 -2 20 3 34 8 20 7 29 -3 37 -7 5 -19 22 -27 36 -24 48 -61 52
-480 50 -277 -1 -387 2 -397 10 -10 8 -18 8 -26 1 -18 -14 -438 -15 -455 0 -9
7 -17 7 -25 1 -16 -13 -486 -14 -494 -2 -7 12 -21 11 -28 0z"/>
<path d="M13436 9501 c-4 -6 -15 -11 -25 -11 -10 0 -26 -17 -39 -40 -20 -39
-22 -55 -6 -94 6 -15 4 -17 -7 -11 -8 5 -3 -5 11 -21 14 -16 28 -30 33 -32 4
-2 7 -9 7 -15 0 -7 23 -37 50 -66 28 -30 50 -59 50 -63 0 -5 14 -22 30 -40 17
-17 30 -37 30 -44 0 -8 3 -14 8 -14 4 0 13 -10 21 -22 13 -21 13 -22 -2 -10
-10 9 -17 10 -22 2 -9 -15 5 -32 21 -26 15 6 54 -30 54 -51 0 -7 5 -13 10 -13
6 0 10 -9 10 -20 0 -11 5 -20 10 -20 6 0 10 -6 10 -13 0 -7 9 -23 20 -35 11
-12 20 -28 20 -36 0 -8 5 -18 11 -22 6 -4 9 -19 5 -36 -5 -24 -3 -29 9 -24 17
6 21 -9 5 -19 -5 -3 -9 -14 -9 -23 1 -15 2 -15 6 1 2 9 8 17 13 17 12 0 20
-39 9 -46 -13 -8 1 -26 15 -21 18 7 40 -9 32 -22 -11 -18 -29 -13 -21 7 5 13
3 14 -6 5 -14 -14 -3 -34 18 -31 16 3 19 -1 53 -77 12 -27 26 -58 31 -67 15
-29 11 -58 -6 -52 -24 9 -17 -10 7 -21 12 -6 23 -14 25 -20 4 -15 -15 -40 -24
-31 -4 5 -2 11 5 13 16 6 15 23 -2 23 -19 0 -15 -45 4 -45 19 -1 40 -13 40
-24 0 -5 -8 -8 -17 -7 -10 0 -18 -6 -18 -14 0 -8 7 -16 15 -16 8 -1 21 -2 28
-3 6 0 12 -14 12 -31 0 -16 9 -45 20 -65 11 -20 20 -49 20 -65 0 -16 5 -32 10
-35 6 -3 10 -35 10 -70 0 -35 5 -67 10 -70 11 -7 14 -98 3 -109 -4 -4 -8 -24
-9 -44 -1 -20 1 -29 3 -19 3 9 9 17 15 17 6 0 5 6 -2 15 -7 9 -10 18 -6 22 3
3 6 1 6 -6 0 -7 3 -10 8 -8 4 3 7 -23 7 -56 0 -51 -3 -62 -16 -61 -15 1 -16
-15 -15 -144 1 -120 4 -146 16 -149 13 -4 13 -3 1 5 -12 9 -12 12 0 25 13 13
15 7 17 -44 2 -54 -9 -78 -21 -46 -3 6 -6 2 -6 -10 -1 -13 4 -23 11 -23 6 0 8
-3 5 -7 -4 -3 -2 -12 4 -19 7 -8 7 -14 -1 -19 -5 -3 -10 -24 -10 -45 0 -21 -5
-42 -11 -46 -8 -4 -7 -9 2 -16 11 -7 11 -11 2 -15 -8 -3 -13 -24 -13 -54 0
-27 -4 -58 -10 -69 -5 -11 -14 -29 -20 -40 -5 -11 -10 -32 -10 -47 0 -27 -15
-84 -31 -115 -5 -10 -9 -27 -9 -38 0 -11 -4 -20 -10 -20 -5 0 -10 -12 -10 -26
0 -15 -4 -23 -11 -19 -14 9 -49 -24 -48 -44 0 -13 2 -14 6 -1 4 8 12 20 18 27
10 9 12 6 10 -18 -1 -16 -5 -32 -9 -36 -3 -3 -6 -17 -6 -30 0 -12 -4 -23 -10
-23 -5 0 -10 -7 -10 -15 0 -8 -4 -15 -10 -15 -5 0 -10 -11 -10 -24 0 -24 -39
-108 -52 -114 -5 -2 -8 -12 -8 -23 0 -10 -4 -19 -9 -19 -5 0 -11 -9 -14 -21
-4 -14 -10 -18 -18 -13 -9 5 -10 2 -6 -9 4 -11 2 -14 -9 -10 -7 3 -14 12 -14
21 0 8 -3 12 -7 9 -3 -4 0 -18 7 -31 11 -21 10 -30 -4 -60 -9 -19 -21 -38 -26
-41 -5 -3 -17 -23 -27 -43 -9 -20 -25 -46 -35 -56 -10 -11 -18 -24 -18 -29 0
-15 -25 -34 -39 -29 -10 3 -12 0 -8 -12 4 -9 2 -16 -3 -16 -6 0 -10 -8 -10
-18 0 -10 -9 -24 -20 -32 -11 -8 -20 -20 -20 -28 0 -7 -22 -35 -50 -62 -27
-27 -50 -53 -50 -57 0 -5 -8 -18 -17 -29 -41 -46 -57 -104 -33 -119 6 -3 10
-17 10 -31 0 -17 5 -24 20 -24 13 0 22 -9 26 -25 4 -16 13 -25 26 -25 17 0 18
3 8 15 -11 13 -8 13 18 4 30 -10 33 -8 106 65 42 42 76 81 76 87 0 6 18 28 40
50 22 22 40 46 40 54 0 8 4 15 8 15 5 0 15 12 23 28 8 15 22 34 31 43 10 9 18
23 18 30 0 8 9 21 20 29 11 8 20 21 20 30 0 9 9 22 20 30 11 8 20 22 20 32 0
10 4 18 8 18 5 0 20 21 33 48 13 26 26 49 29 52 12 12 30 51 30 65 0 8 5 15
10 15 6 0 10 9 10 19 0 11 4 21 10 23 5 2 11 15 12 30 1 15 6 24 10 22 4 -3 8
2 8 10 0 9 5 16 10 16 6 0 10 11 10 25 0 14 4 33 9 43 8 16 15 31 43 100 7 17
16 32 20 32 5 0 8 16 8 36 0 19 4 33 8 30 4 -2 9 10 10 27 2 17 7 36 12 41 6
6 10 19 10 31 0 12 6 27 13 34 10 11 10 13 0 7 -7 -4 -13 -2 -13 3 0 6 5 11
10 11 6 0 10 9 10 19 0 11 4 22 8 25 5 3 9 24 10 48 1 23 7 47 12 52 6 6 10
27 10 47 0 21 5 41 10 44 15 9 12 27 -2 19 -10 -6 -10 -4 0 7 6 7 12 36 12 64
0 28 6 57 13 64 10 11 10 13 0 7 -8 -5 -13 -1 -13 9 0 10 5 13 13 9 9 -6 9 -4
-1 8 -9 11 -10 18 -2 23 12 8 14 545 1 545 -5 0 -9 35 -10 78 -1 42 -6 81 -12
87 -5 5 -9 24 -9 43 0 18 -4 41 -10 51 -5 10 -10 37 -11 59 -2 23 -7 42 -11
42 -4 0 -8 5 -8 11 0 5 6 7 13 3 9 -6 9 -5 0 7 -7 9 -14 30 -15 48 -1 18 -6
35 -10 37 -4 3 -8 14 -8 25 0 10 -4 19 -10 19 -5 0 -10 14 -10 30 0 17 -4 30
-8 30 -4 0 -9 17 -10 37 -2 21 -7 40 -12 43 -6 3 -11 18 -12 32 -1 15 -6 24
-10 22 -4 -3 -8 6 -8 20 0 14 -4 26 -10 26 -5 0 -10 14 -10 30 0 17 -3 30 -7
30 -9 0 -33 49 -33 67 0 7 -5 13 -11 13 -7 0 -9 10 -5 25 5 18 2 27 -9 31 -8
4 -15 12 -15 18 0 7 -9 22 -20 34 -11 12 -20 33 -20 47 0 14 -4 25 -10 25 -5
0 -10 8 -10 18 0 10 -9 24 -20 32 -11 8 -20 22 -20 32 0 10 -4 18 -10 18 -5 0
-10 7 -10 16 0 8 -7 22 -15 31 -8 8 -12 19 -9 25 4 7 2 8 -4 4 -7 -4 -12 -1
-12 6 0 8 -9 20 -20 28 -11 8 -20 22 -20 32 0 10 -4 18 -10 18 -5 0 -10 6 -10
13 0 7 -9 23 -20 35 -11 12 -20 26 -20 33 0 6 -13 24 -30 39 -16 15 -30 32
-30 38 0 5 -18 28 -40 51 -22 22 -40 44 -40 49 -1 13 -68 82 -80 82 -6 0 -8 5
-5 10 4 6 3 10 -2 9 -26 -4 -44 2 -37 14 5 7 1 7 -10 -2 -14 -12 -19 -12 -26
-2 -5 9 -10 10 -14 2z"/>
<path d="M12810 9020 c0 -3 -13 -11 -30 -18 -17 -8 -30 -21 -30 -31 0 -9 -5
-22 -12 -29 -9 -9 -9 -15 0 -24 7 -7 12 -25 12 -40 0 -15 4 -28 9 -28 5 0 11
-8 15 -17 3 -10 8 -23 11 -29 3 -6 -3 -14 -15 -17 -21 -5 -25 -14 -12 -34 5
-9 17 -10 37 -4 17 5 24 10 18 10 -7 1 -13 6 -13 11 0 15 49 -22 50 -37 0 -7
9 -17 20 -23 11 -6 20 -15 20 -20 0 -6 14 -24 30 -42 21 -22 28 -37 24 -51 -4
-14 -2 -18 7 -15 8 3 18 0 24 -6 20 -21 37 -64 31 -75 -8 -13 11 -51 25 -51
19 0 55 -51 51 -72 -1 -4 9 -19 23 -34 26 -29 32 -63 14 -81 -14 -14 -1 -36
17 -29 17 6 17 1 4 -24 -7 -14 -6 -29 7 -54 9 -20 20 -36 25 -36 13 0 9 18 -4
23 -10 4 -10 8 1 15 11 8 9 11 -8 17 -24 7 -27 20 -7 28 10 4 13 1 9 -9 -3 -9
0 -14 8 -12 8 2 14 -6 15 -17 2 -39 4 -46 12 -41 4 2 9 -12 10 -32 2 -20 7
-38 12 -40 6 -2 10 -12 10 -22 0 -10 5 -22 10 -25 6 -3 10 -22 10 -41 0 -19 5
-34 10 -34 6 0 10 -24 10 -54 0 -30 5 -58 10 -61 8 -5 8 -11 0 -20 -8 -9 -8
-15 0 -20 5 -3 10 -40 10 -81 0 -58 3 -73 13 -68 7 5 6 0 -3 -11 -9 -11 -10
-16 -2 -11 8 5 12 -1 12 -19 0 -14 -4 -24 -8 -21 -5 3 -9 -1 -9 -9 0 -8 3 -12
7 -10 15 9 -7 -253 -22 -272 -7 -9 -6 -13 3 -13 12 0 12 -2 1 -9 -8 -4 -12
-12 -10 -17 1 -5 -6 -9 -17 -9 -21 0 -23 -16 -9 -111 4 -26 2 -44 -5 -48 -6
-4 -11 -20 -11 -35 0 -31 -16 -52 -35 -45 -18 7 -30 -15 -16 -29 14 -14 14
-64 1 -72 -5 -3 -10 -17 -10 -31 0 -13 -4 -24 -10 -24 -5 0 -10 -7 -10 -15 0
-8 -9 -30 -20 -50 -11 -20 -20 -43 -20 -52 0 -8 -9 -23 -20 -33 -11 -10 -21
-29 -22 -43 -1 -14 -6 -23 -10 -21 -4 3 -8 -2 -8 -10 0 -9 -4 -16 -10 -16 -5
0 -10 -8 -10 -18 0 -10 -9 -24 -20 -32 -11 -8 -20 -22 -20 -32 0 -10 -4 -18
-10 -18 -5 0 -10 -9 -10 -20 0 -23 -10 -26 -28 -8 -18 18 -40 -6 -23 -26 10
-12 9 -19 -8 -37 -12 -13 -21 -29 -21 -36 0 -7 -4 -13 -9 -13 -5 0 -12 -10
-15 -22 l-7 -23 -12 25 c-6 14 -12 26 -13 28 -7 10 -44 -22 -44 -37 0 -22 23
-44 36 -33 15 13 -20 -32 -46 -58 -38 -38 -50 -65 -50 -110 0 -30 -3 -38 -14
-34 -18 7 -31 -15 -18 -28 8 -8 15 -8 25 1 11 9 17 8 26 -2 6 -8 7 -17 3 -21
-4 -4 0 -6 8 -4 9 2 14 -3 12 -12 -2 -8 0 -12 4 -7 4 4 17 1 30 -7 18 -12 28
-13 53 -3 17 6 31 15 31 19 0 4 6 8 13 8 14 0 107 94 107 108 0 4 9 14 20 22
11 8 20 20 20 27 0 7 14 27 30 45 17 17 30 35 30 40 0 4 13 22 29 39 16 16 37
46 46 65 9 19 18 34 21 34 3 0 3 -4 0 -8 -2 -4 4 -8 14 -9 24 -2 36 15 21 30
-14 14 -15 47 -1 47 6 0 10 9 10 20 0 11 5 20 10 20 6 0 10 7 10 15 0 15 19
55 31 65 3 3 12 22 20 43 7 20 18 38 24 38 5 1 17 2 25 3 18 1 20 28 2 32 -7
1 -8 0 -2 -3 12 -6 13 -23 1 -23 -14 0 -23 32 -11 44 5 5 10 18 10 28 0 10 5
18 10 18 6 0 10 11 10 24 0 14 5 28 10 31 6 3 10 17 10 31 0 14 4 23 9 20 5
-3 9 0 8 7 -1 41 4 77 11 73 4 -2 9 12 10 32 2 20 7 41 12 46 6 6 10 29 10 53
0 24 5 43 10 43 6 0 10 21 10 46 0 25 4 43 9 40 4 -3 9 57 10 134 1 77 6 153
11 170 5 18 5 30 -1 30 -14 0 -11 58 4 63 9 3 8 8 -3 22 -8 10 -10 16 -4 12 6
-3 11 0 11 8 0 8 -4 12 -9 9 -4 -3 -8 26 -8 65 0 38 -4 73 -10 76 -5 3 -10 30
-10 60 0 30 -4 57 -10 60 -5 3 -10 24 -10 45 0 21 -4 42 -10 45 -5 3 -10 26
-10 51 0 24 -4 44 -10 44 -5 0 -10 11 -10 24 0 14 -4 28 -10 31 -5 3 -10 16
-10 29 0 12 -6 28 -12 35 -11 11 -10 12 1 6 9 -5 6 4 -7 22 -12 17 -23 44 -24
61 -1 17 -5 29 -8 27 -3 -2 -12 11 -19 28 -23 57 -35 82 -54 109 -10 15 -19
37 -20 47 0 11 -5 17 -9 15 -4 -3 -8 4 -8 16 0 12 -7 28 -15 37 -8 8 -12 19
-9 25 4 7 2 8 -4 4 -7 -4 -12 -1 -12 8 0 9 -4 16 -10 16 -5 0 -10 6 -10 13 0
7 -9 23 -20 35 -11 12 -20 24 -20 28 0 3 -11 20 -25 36 -14 16 -23 34 -19 39
3 5 0 8 -8 7 -7 -2 -12 3 -10 9 1 7 -3 12 -9 10 -6 -1 -16 7 -22 18 -7 11 -14
22 -17 25 -3 3 -11 16 -18 31 -7 14 -31 36 -53 49 -21 14 -39 33 -39 42 0 11
-8 18 -20 18 -11 0 -20 3 -20 8 0 4 -18 7 -40 7 -22 0 -40 -2 -40 -5z"/>
<path d="M6601 8772 c-48 -4 -131 -52 -131 -77 0 -4 -8 -19 -19 -33 -12 -18
-19 -44 -19 -77 0 -39 2 -44 8 -25 7 21 8 20 7 -12 -1 -20 -5 -34 -8 -32 -4 2
-6 -73 -5 -166 1 -94 -1 -170 -6 -170 -4 0 -8 5 -8 10 0 6 -9 10 -20 10 -11 0
-20 -4 -20 -10 0 -5 7 -10 16 -10 15 0 44 -23 44 -34 0 -3 -9 -6 -20 -6 -11 0
-20 -4 -20 -10 0 -5 9 -10 19 -10 16 0 19 -6 15 -34 -2 -19 1 -38 6 -41 6 -4
7 -12 3 -18 -11 -16 -12 -247 -1 -241 4 3 3 -7 -2 -21 -7 -19 -7 -24 2 -19 8
5 9 2 3 -12 -4 -10 -9 -122 -10 -247 -2 -126 -5 -230 -8 -233 -9 -9 6 -129 17
-137 8 -6 7 -10 -1 -14 -7 -2 -13 -9 -13 -14 0 -6 4 -7 10 -4 6 3 7 -1 4 -9
-3 -9 -10 -16 -16 -16 -5 0 -6 -10 -2 -22 11 -35 11 -121 0 -136 -6 -9 -6 -16
0 -20 6 -4 10 -102 10 -254 -1 -137 3 -248 8 -248 5 0 6 -18 3 -41 -3 -27 -2
-39 6 -36 6 2 24 -9 40 -25 17 -15 34 -28 39 -28 5 0 7 -4 3 -9 -7 -12 204
-13 1730 -12 l670 1 29 25 c16 13 33 22 39 18 5 -3 7 -1 4 4 -4 6 0 13 8 17 8
3 15 14 15 25 0 11 5 23 10 26 6 3 10 53 10 114 0 68 4 111 12 119 8 8 8 15 0
25 -16 19 -16 678 0 674 6 -1 13 4 16 12 3 10 0 12 -12 8 -14 -6 -16 8 -16
128 0 113 2 135 15 135 19 0 19 16 0 24 -13 5 -15 30 -13 161 1 86 5 158 10
161 5 3 4 12 -3 20 -9 11 -8 18 2 31 8 9 9 14 3 10 -13 -8 -15 53 -2 70 6 7 5
19 -1 32 -11 20 -5 51 10 51 13 0 11 -18 -3 -23 -10 -4 -10 -6 -1 -6 23 -2 26
22 4 38 -18 14 -22 26 -20 62 2 24 2 143 1 264 l-2 220 -34 38 c-19 20 -40 37
-48 37 -8 0 -19 5 -24 10 -9 9 -2223 20 -2343 12z m397 -234 c9 -9 15 -9 24 0
17 17 879 17 896 0 9 -9 15 -9 24 0 17 17 619 17 636 0 9 -9 15 -9 24 0 7 7
44 12 94 12 76 0 84 -2 102 -25 11 -13 21 -23 23 -21 2 3 5 -12 7 -31 1 -23
-3 -40 -13 -47 -16 -11 -12 -46 5 -46 8 0 4 -191 -5 -228 -3 -13 0 -31 7 -40
10 -12 10 -16 1 -19 -7 -3 -13 -20 -13 -39 0 -22 4 -33 10 -29 7 4 8 -3 4 -22
-4 -15 -8 -29 -9 -31 -2 -2 0 -16 5 -32 4 -15 4 -32 -1 -37 -5 -5 -5 -22 0
-41 6 -20 6 -30 0 -27 -5 4 -9 1 -9 -4 0 -6 4 -11 8 -11 5 0 9 -7 9 -15 0 -8
-5 -15 -10 -15 -9 0 -7 -17 8 -53 5 -12 3 -17 -6 -15 -10 2 -13 -6 -11 -32 2
-19 7 -39 12 -45 8 -10 6 -69 -4 -117 -4 -15 -2 -30 4 -33 5 -3 10 -16 10 -28
0 -18 -2 -19 -10 -7 -8 13 -10 13 -10 -2 0 -9 6 -19 13 -21 9 -4 8 -8 -3 -17
-11 -9 -12 -13 -2 -17 14 -6 16 -33 2 -33 -5 0 -10 -22 -10 -50 0 -27 5 -50
10 -50 6 0 10 -7 10 -15 0 -8 -4 -15 -10 -15 -5 0 -10 -7 -10 -16 0 -8 5 -12
10 -9 6 3 10 -1 10 -9 0 -8 -5 -18 -10 -21 -7 -5 -8 -11 -1 -19 13 -16 11
-147 -3 -165 -9 -12 -8 -13 4 -6 13 8 13 7 1 -8 -7 -9 -10 -17 -5 -17 5 0 9
-59 10 -130 1 -72 -3 -130 -8 -130 -4 0 -8 -22 -8 -50 0 -27 4 -50 9 -50 11 0
9 -49 -2 -68 -5 -6 -4 -12 2 -12 15 0 13 -41 -3 -62 -10 -14 -28 -18 -85 -18
-39 0 -80 6 -91 12 -16 10 -24 10 -40 0 -25 -16 -1405 -18 -1395 -2 3 6 -1 10
-10 10 -9 0 -13 -4 -10 -10 4 -7 -56 -10 -174 -10 -109 0 -182 4 -186 10 -3 6
-12 10 -18 10 -7 0 -6 -4 3 -10 11 -8 2 -10 -32 -8 -26 1 -45 5 -42 10 3 4 -7
8 -23 7 -25 0 -26 -1 -8 -9 18 -8 17 -9 -6 -9 -22 -1 -26 3 -26 25 0 18 2 22
8 13 6 -10 9 -10 9 -2 0 6 -4 15 -10 18 -13 8 -13 1982 0 1990 6 3 10 14 9 23
0 14 -2 13 -9 -3 -6 -14 -9 -15 -9 -4 -2 34 20 39 169 39 100 0 150 -4 158
-12z"/>
<path d="M12316 8558 c3 -4 -2 -8 -10 -8 -9 0 -16 -4 -16 -9 0 -5 -9 -11 -20
-14 -12 -3 -20 -14 -20 -25 0 -12 -4 -24 -10 -27 -5 -3 -10 -19 -10 -35 0 -16
5 -32 10 -35 6 -3 10 -17 10 -29 0 -15 7 -26 20 -29 11 -3 20 -12 20 -21 0 -9
5 -16 10 -16 6 0 10 -6 10 -14 0 -8 -7 -13 -16 -12 -21 1 -27 -14 -14 -34 8
-13 11 -12 24 5 15 20 15 20 41 -7 14 -15 25 -32 25 -39 0 -6 8 -19 18 -28 9
-9 24 -29 32 -46 8 -16 23 -42 33 -57 10 -16 15 -28 12 -28 -4 0 0 -11 8 -24
9 -13 13 -33 10 -45 -3 -13 -1 -21 6 -21 7 0 9 5 5 12 -4 7 -3 8 4 4 7 -4 12
-16 12 -26 0 -10 5 -22 10 -25 14 -8 13 -68 -1 -82 -14 -14 -2 -36 16 -29 13
5 35 -12 35 -27 0 -4 -6 -5 -12 -1 -10 6 -10 4 0 -7 6 -7 12 -23 12 -34 0 -12
3 -25 7 -29 12 -12 12 -37 0 -29 -8 4 -7 1 1 -9 15 -18 18 -293 4 -312 -5 -6
-9 -33 -10 -61 -1 -27 -6 -51 -12 -53 -5 -2 -10 -17 -10 -33 0 -16 -4 -29 -10
-29 -5 0 -10 -9 -10 -20 0 -12 -9 -40 -20 -62 -11 -23 -20 -50 -20 -60 0 -11
-4 -16 -10 -13 -5 3 -10 -1 -10 -9 0 -9 -4 -16 -10 -16 -5 0 -10 -13 -10 -30
0 -16 -4 -30 -10 -30 -5 0 -10 -6 -10 -13 0 -7 -9 -23 -20 -35 -11 -12 -20
-27 -20 -34 0 -8 -9 -20 -20 -28 -11 -8 -20 -22 -20 -32 0 -21 -11 -23 -28 -6
-20 20 -39 -6 -21 -28 11 -13 11 -18 2 -21 -7 -3 -13 -11 -13 -19 0 -8 -13
-28 -30 -46 -16 -17 -30 -38 -30 -47 0 -10 -6 -23 -12 -29 -10 -10 -10 -17 0
-33 11 -17 11 -20 0 -14 -7 3 -6 1 2 -7 9 -7 14 -21 12 -30 -2 -13 3 -18 16
-18 11 0 22 -4 24 -9 4 -12 129 -20 125 -7 -2 5 23 36 55 69 32 32 58 63 58
68 0 5 14 23 30 41 17 17 30 37 30 44 0 8 4 14 8 14 5 0 14 16 22 35 7 19 17
32 22 29 5 -3 7 -2 6 3 -4 10 64 147 74 151 5 2 8 17 8 32 0 16 5 32 10 35 6
3 10 15 10 26 0 11 4 18 8 15 4 -2 9 7 10 22 1 15 7 29 12 30 6 2 10 19 10 37
0 19 5 37 10 40 6 3 10 30 10 60 0 30 5 57 10 60 6 3 10 32 10 64 0 31 5 62
12 69 7 7 8 12 2 12 -14 0 -14 31 -1 48 7 9 7 16 -1 24 -15 15 -16 42 -2 33 6
-3 10 -1 10 4 0 6 -4 11 -10 11 -5 0 -10 9 -10 20 0 11 4 20 9 20 9 0 9 13 -2
40 -8 21 -17 75 -23 145 -4 33 -10 64 -15 70 -5 5 -9 21 -9 36 0 15 -4 31 -10
34 -5 3 -10 14 -10 25 0 16 -12 45 -51 122 -5 10 -9 24 -9 32 0 8 -3 16 -8 18
-4 2 -22 33 -41 71 -19 37 -38 67 -42 67 -5 0 -9 9 -9 20 0 11 -4 20 -10 20
-5 0 -10 6 -10 13 0 6 -11 25 -25 41 -13 16 -22 33 -18 39 3 6 1 7 -5 3 -7 -4
-12 -3 -12 2 0 6 -22 32 -48 59 -27 27 -51 57 -55 66 -4 11 -18 17 -37 17 -17
0 -29 4 -26 8 2 4 -4 8 -14 8 -10 0 -16 -4 -14 -8z"/>
<path d="M11744 8325 c3 -8 1 -15 -4 -15 -6 0 -10 -8 -10 -19 0 -10 -9 -21
-20 -24 -16 -4 -20 -14 -20 -51 0 -25 5 -46 10 -46 6 0 10 -7 10 -15 0 -8 14
-28 30 -43 17 -16 30 -37 30 -46 0 -9 3 -16 8 -16 8 0 32 -49 32 -67 0 -7 5
-13 11 -13 5 0 7 -4 4 -10 -3 -5 -3 -15 1 -21 4 -8 9 -7 15 2 7 11 9 9 9 -7 0
-11 5 -25 12 -32 9 -9 9 -12 0 -12 -7 0 -12 4 -12 8 0 4 -12 8 -27 7 -30 0
-43 -22 -19 -31 9 -3 16 -12 16 -20 0 -8 5 -14 10 -14 6 0 10 6 10 14 0 8 6
16 14 19 16 7 47 -49 39 -70 -3 -7 0 -13 6 -13 6 0 11 -9 11 -20 0 -11 5 -20
10 -20 6 0 10 -11 10 -24 0 -17 -5 -23 -17 -22 -10 0 -18 -6 -18 -14 0 -9 10
-15 22 -16 12 -1 20 3 17 7 -3 5 0 9 5 9 14 0 14 -13 -1 -28 -9 -9 -9 -12 0
-12 15 0 17 -176 2 -185 -5 -3 -10 -11 -10 -16 0 -6 4 -8 9 -5 4 3 6 -7 4 -22
-3 -15 -7 -46 -10 -69 -3 -24 -9 -43 -14 -43 -5 0 -9 -11 -9 -24 0 -14 -4 -28
-10 -31 -5 -3 -10 -15 -10 -26 0 -10 -4 -19 -10 -19 -5 0 -10 -6 -10 -14 0
-15 -15 -46 -45 -90 -17 -26 -20 -27 -26 -10 -4 12 -7 0 -7 -30 -1 -35 -7 -53
-22 -66 -11 -9 -20 -22 -20 -27 0 -14 -40 -54 -49 -49 -4 3 -9 -20 -10 -50 -2
-51 0 -58 31 -84 18 -16 36 -26 40 -24 4 3 5 -2 2 -10 -5 -12 1 -14 33 -9 68
10 118 46 145 103 9 20 28 49 42 65 14 17 26 36 26 43 0 6 5 12 10 12 6 0 10
9 10 20 0 11 5 20 10 20 6 0 10 9 10 20 0 11 5 20 10 20 6 0 10 9 10 20 0 11
5 20 10 20 6 0 10 7 10 15 0 8 9 31 20 50 11 20 16 34 10 30 -5 -3 -10 -1 -10
4 0 6 5 11 10 11 6 0 10 9 10 19 0 11 4 22 8 25 5 3 9 22 10 42 1 21 6 42 12
48 5 5 10 15 10 21 0 5 -5 3 -10 -5 -6 -9 -10 -10 -10 -3 0 6 5 15 10 18 6 3
10 46 10 94 0 54 4 91 12 99 9 9 9 15 0 24 -7 7 -12 33 -12 59 0 26 -4 51 -10
54 -15 9 -12 27 3 19 10 -6 10 -4 0 7 -7 7 -13 27 -13 44 0 17 -4 35 -10 41
-5 5 -11 26 -12 46 -2 20 -5 34 -7 32 -7 -6 -31 47 -31 67 0 11 -4 19 -10 19
-5 0 -10 9 -10 19 0 11 -4 21 -10 23 -5 2 -11 15 -12 30 -1 15 -6 24 -10 22
-4 -3 -8 2 -8 10 0 9 -4 16 -10 16 -5 0 -10 9 -10 20 0 11 -5 20 -11 20 -7 0
-9 10 -5 25 4 15 2 25 -4 25 -6 0 -8 -4 -5 -10 3 -5 4 -10 2 -10 -2 0 -16 17
-30 39 -14 21 -20 38 -14 37 7 0 12 4 12 9 0 6 -10 9 -22 7 -17 -2 -23 2 -23
18 0 11 -5 20 -12 20 -6 0 -20 8 -30 17 -11 10 -37 18 -59 19 -22 1 -42 4 -46
8 -12 12 -25 6 -19 -9z"/>
<path d="M9775 7640 c-3 -5 -3 -14 0 -20 3 -5 -4 -25 -17 -42 -23 -33 -27 -66
-12 -102 5 -14 4 -17 -5 -12 -10 6 -10 4 0 -12 7 -11 30 -30 51 -41 21 -11 36
-16 33 -11 -3 6 -2 10 4 10 5 0 12 -4 16 -9 3 -6 113 -10 263 -10 1141 -2
1192 -2 1213 9 15 8 19 9 15 1 -4 -6 -2 -11 3 -11 6 0 11 5 11 10 0 6 11 10
25 10 14 0 37 11 50 25 21 20 25 34 25 85 0 52 -4 65 -25 86 l-25 25 -794 -1
c-527 0 -797 3 -801 10 -8 13 -22 13 -30 0z"/>
</g>
</svg>
