<?xml version="1.0" standalone="no"?>
<!DOCTYPE svg PUBLIC "-//W3C//DTD SVG 20010904//EN"
 "http://www.w3.org/TR/2001/REC-SVG-20010904/DTD/svg10.dtd">
<svg version="1.0" xmlns="http://www.w3.org/2000/svg"
 width="1024.000000pt" height="1024.000000pt" viewBox="0 0 1024.000000 1024.000000"
 preserveAspectRatio="xMidYMid meet">
<metadata>
Created by potrace 1.16, written by Peter Selinger 2001-2019
</metadata>
<g transform="translate(0.000000,1024.000000) scale(0.100000,-0.100000)"
fill="#000000" stroke="none">
<path d="M5114 8849 c-20 -6 -38 -22 -55 -51 -22 -40 -24 -53 -24 -183 0 -152
9 -327 17 -341 3 -5 9 -36 12 -69 4 -33 18 -125 32 -205 14 -80 27 -156 29
-170 1 -14 5 -32 8 -40 3 -8 15 -60 27 -115 12 -55 38 -162 57 -238 19 -76 33
-140 30 -143 -3 -3 -10 19 -17 48 -17 73 -28 89 -25 39 1 -23 7 -47 13 -53 7
-7 12 -20 12 -30 0 -10 6 -18 13 -18 19 0 45 -105 41 -167 -2 -42 1 -53 13
-53 11 0 13 5 8 18 -4 9 -9 28 -11 42 -2 14 7 -8 21 -49 13 -41 22 -78 20 -82
-3 -4 -1 -9 4 -11 20 -7 71 -213 70 -279 -2 -82 -12 -131 -21 -106 -4 9 -13
17 -20 17 -10 0 -9 -3 1 -9 8 -5 11 -16 8 -26 -5 -10 -3 -14 4 -9 9 5 10 -4 4
-32 -7 -42 -12 -51 -21 -42 -3 4 -1 16 5 27 10 18 9 20 -6 14 -12 -5 -15 -2
-10 10 3 8 3 17 -1 19 -4 2 -25 50 -46 108 -22 58 -43 109 -48 114 -4 6 -8 15
-8 20 0 6 5 4 10 -4 6 -9 10 -10 10 -3 0 7 -6 16 -14 20 -18 10 -107 188 -103
205 2 7 2 9 -1 5 -2 -5 -13 5 -23 23 -11 17 -16 36 -13 42 5 7 2 8 -6 3 -10
-6 -12 -4 -7 9 4 9 3 15 -2 11 -12 -7 -54 62 -46 75 4 6 2 9 -4 8 -16 -5 -111
140 -105 160 4 12 3 13 -3 4 -12 -15 -57 43 -47 60 4 6 3 8 -4 4 -13 -8 -44
33 -35 47 3 6 1 7 -5 3 -13 -8 -35 28 -24 39 4 3 2 5 -5 3 -10 -3 -186 186
-191 205 -1 4 -5 7 -8 6 -9 -1 -109 95 -106 103 1 5 -1 7 -6 6 -4 -1 -28 10
-53 25 -77 45 -147 38 -173 -17 -20 -43 -20 -92 0 -169 13 -49 13 -62 2 -69
-10 -8 -9 -9 3 -5 12 4 22 -10 42 -58 17 -44 21 -66 13 -69 -6 -2 -4 -5 4 -5
19 -1 114 -187 104 -203 -4 -7 -2 -8 4 -4 14 8 36 -30 26 -46 -4 -6 -3 -8 3
-5 6 4 31 -29 57 -73 49 -85 53 -95 34 -84 -8 4 -10 3 -5 -2 5 -5 14 -9 20 -9
7 0 11 -8 11 -18 -1 -9 2 -15 6 -12 12 8 40 -42 34 -59 -3 -9 -1 -16 6 -16 6
0 8 5 5 10 -3 6 -4 10 -1 10 3 0 10 -10 17 -21 9 -17 8 -20 -3 -13 -7 4 2 -6
20 -23 17 -17 32 -36 32 -41 0 -6 11 -23 25 -38 14 -15 23 -34 20 -41 -2 -8
-1 -12 4 -8 11 6 72 -75 65 -87 -3 -4 -1 -8 4 -8 5 0 28 -25 51 -55 23 -30 38
-55 34 -55 -5 0 -16 12 -24 26 l-16 27 0 -26 c0 -14 2 -26 6 -25 17 3 59 -23
79 -51 20 -28 22 -35 10 -49 -11 -15 -11 -16 4 -4 14 11 22 6 60 -44 23 -31
56 -72 72 -90 15 -19 23 -34 17 -34 -6 0 -8 -7 -4 -16 4 -11 8 -12 13 -4 6 9
10 9 16 -1 5 -8 9 -18 9 -24 0 -5 5 -10 11 -10 6 0 37 -30 68 -66 43 -51 56
-74 56 -98 0 -22 -4 -30 -12 -25 -8 5 -9 2 -4 -11 9 -25 -65 -396 -78 -388 -6
4 -6 -1 -2 -13 7 -19 -53 -368 -62 -359 -3 2 -6 17 -8 32 -1 15 -7 36 -13 47
-5 12 -23 67 -40 123 -17 55 -45 131 -61 169 -19 40 -28 75 -25 88 4 14 3 17
-2 8 -7 -9 -14 -2 -26 23 -9 19 -15 40 -13 47 1 7 1 9 -2 4 -2 -4 -26 33 -53
84 -27 51 -46 97 -42 103 4 6 1 7 -7 2 -10 -6 -12 -4 -7 8 4 10 2 16 -5 14 -7
-1 -12 5 -13 13 0 8 -12 28 -28 44 -21 22 -24 32 -15 38 10 6 10 8 -2 8 -8 0
-31 23 -50 51 -19 28 -45 64 -58 80 -13 16 -21 33 -17 39 4 6 2 9 -4 8 -15 -4
-123 131 -115 144 4 7 3 8 -5 4 -12 -8 -58 41 -53 57 1 5 -2 6 -7 3 -5 -4 -16
2 -23 11 -26 36 -129 115 -160 124 -84 24 -123 -18 -123 -133 0 -42 3 -74 6
-72 10 6 40 -103 33 -122 -4 -14 -3 -15 4 -6 7 10 16 -5 35 -55 14 -37 29 -77
33 -87 6 -15 4 -17 -6 -11 -9 5 -11 4 -6 -4 4 -6 11 -9 15 -6 5 2 22 -28 40
-68 17 -39 24 -63 15 -52 -15 20 -16 19 -12 -5 2 -14 8 -28 13 -32 6 -5 5 -8
-2 -8 -7 0 -13 -5 -13 -11 0 -8 5 -8 15 1 8 7 12 16 9 21 -3 5 -2 9 3 9 12 0
58 -112 55 -132 -2 -9 2 -19 7 -23 7 -4 9 1 5 12 -5 17 -5 17 6 0 6 -9 8 -22
4 -29 -4 -6 -3 -8 3 -5 13 8 36 -41 27 -55 -4 -7 -2 -8 4 -4 13 8 76 -109 67
-125 -4 -5 -2 -8 4 -7 6 2 27 -25 46 -60 20 -35 31 -61 25 -57 -5 3 -10 1 -10
-4 0 -6 6 -11 14 -11 18 0 82 -108 78 -132 -2 -9 3 -20 9 -24 9 -5 10 -2 6 12
-5 14 -2 12 13 -6 11 -14 18 -31 15 -38 -3 -8 0 -10 7 -6 8 5 9 2 5 -10 -4 -9
-3 -15 2 -12 12 8 43 -42 35 -56 -4 -6 -3 -8 4 -4 13 8 138 -172 134 -192 -2
-8 1 -11 6 -8 5 3 36 -29 68 -71 l57 -77 -11 -55 c-7 -31 -17 -58 -22 -59 -6
-2 -8 -8 -5 -13 3 -5 1 -26 -6 -48 -9 -29 -16 -38 -28 -34 -13 4 -13 3 -2 -5
15 -11 15 -14 -86 -337 -36 -115 -68 -220 -71 -233 -6 -32 -22 -38 -22 -9 0
34 -46 255 -76 365 -13 51 -22 98 -18 105 4 7 3 9 -1 4 -12 -11 -67 161 -60
187 5 15 4 17 -3 7 -8 -11 -11 -9 -17 10 -4 13 -29 79 -56 147 -54 135 -54
136 -37 126 7 -4 8 -3 4 5 -4 6 -11 9 -15 7 -9 -6 -97 182 -95 201 1 7 -2 10
-7 8 -12 -8 -41 53 -33 68 4 7 3 9 -1 4 -11 -9 -66 83 -58 98 4 5 2 7 -2 2
-11 -9 -86 103 -78 116 4 6 1 7 -7 2 -9 -6 -10 -1 -5 16 4 14 3 19 -2 12 -6
-8 -30 13 -78 70 -38 45 -68 87 -67 92 2 6 0 7 -3 3 -4 -4 -24 4 -44 17 -75
52 -150 23 -171 -65 -10 -42 -9 -67 5 -153 10 -56 18 -111 19 -122 1 -11 4
-22 7 -25 11 -10 40 -129 36 -152 -2 -13 -2 -16 1 -8 6 20 91 -227 87 -251 -2
-11 0 -17 4 -14 13 8 73 -148 65 -171 -4 -12 -3 -15 3 -7 6 8 25 -26 57 -100
27 -62 80 -174 118 -249 38 -76 66 -143 62 -149 -5 -8 -3 -9 6 -4 9 6 10 1 5
-16 -4 -17 -3 -20 3 -10 7 10 18 -3 43 -50 19 -35 32 -68 30 -74 -2 -5 -6 -21
-9 -34 -4 -22 -3 -23 10 -10 9 7 13 21 11 29 -3 8 22 -30 56 -84 52 -83 59
-101 49 -115 -11 -14 -11 -14 3 -4 13 11 23 3 65 -55 27 -37 56 -80 65 -96 16
-29 15 -71 -2 -60 -5 3 -6 -1 -3 -9 5 -15 -51 -171 -151 -419 -79 -194 -84
-204 -85 -160 0 18 4 31 9 28 5 -3 11 2 13 12 3 11 0 19 -8 19 -7 0 -10 -5 -7
-10 3 -6 2 -7 -4 -4 -14 9 -35 120 -27 142 5 12 4 16 -3 12 -7 -5 -14 8 -18
34 -17 98 -123 364 -201 500 -47 84 -51 94 -31 83 7 -4 9 -3 4 2 -5 5 -14 9
-20 9 -7 0 -11 8 -11 18 1 9 -2 14 -7 12 -4 -3 -13 5 -20 17 -7 13 -32 49 -55
82 -24 32 -41 63 -38 68 3 5 2 7 -3 6 -5 -2 -41 33 -80 78 -39 44 -86 93 -105
109 -18 16 -32 33 -30 39 2 6 1 8 -3 4 -4 -3 -26 3 -50 13 -39 17 -126 24
-122 9 1 -3 -7 -17 -17 -33 -30 -44 -18 -155 32 -301 23 -66 38 -124 35 -130
-3 -6 -2 -8 2 -3 10 8 36 -47 31 -66 -1 -6 -1 -8 2 -4 2 5 13 -10 23 -33 10
-23 16 -47 12 -53 -3 -6 -1 -7 5 -3 7 4 12 2 12 -3 0 -6 -6 -11 -12 -11 -7 0
-3 -8 9 -18 24 -19 85 -140 77 -154 -3 -4 -1 -8 4 -8 5 0 26 -31 46 -69 37
-71 46 -101 21 -67 -8 11 -15 15 -15 8 0 -6 10 -18 21 -26 30 -21 69 -93 62
-113 -4 -10 -2 -14 5 -9 6 3 13 2 17 -3 3 -5 -2 -14 -11 -19 -15 -8 -15 -10 0
-15 9 -4 16 -1 16 6 0 7 6 3 12 -8 7 -11 11 -35 9 -52 -1 -18 2 -33 8 -33 15
0 23 18 11 25 -5 3 -10 12 -10 18 0 7 9 -1 20 -18 11 -16 18 -36 15 -43 -3 -7
-1 -10 5 -7 11 7 43 -52 35 -65 -3 -5 0 -12 6 -16 8 -5 9 -3 4 6 -5 9 -4 11 4
6 6 -4 9 -12 6 -17 -4 -5 -2 -9 3 -9 4 0 44 -52 87 -116 72 -107 77 -118 61
-130 -17 -12 -16 -13 2 -16 20 -3 20 -3 0 -56 -11 -29 -23 -50 -28 -47 -5 3
-12 0 -16 -6 -4 -8 -3 -9 4 -5 21 13 14 -4 -69 -163 -132 -252 -211 -391 -222
-384 -6 3 -7 1 -3 -6 8 -13 7 -15 -176 -324 -71 -119 -133 -215 -137 -213 -10
7 -16 -63 -10 -111 2 -12 6 -20 10 -17 4 2 12 -3 19 -11 11 -13 10 -14 -3 -10
-17 7 -33 -10 -17 -20 5 -3 10 -2 10 2 0 5 19 10 42 12 59 3 72 13 119 92 31
52 45 67 51 57 7 -9 8 -8 4 6 -7 20 62 148 75 140 4 -2 7 4 6 14 0 10 22 56
50 102 27 47 83 143 124 214 83 146 62 131 284 207 83 28 187 66 233 85 46 18
91 30 100 28 12 -4 13 -3 5 3 -14 10 147 85 170 79 6 -1 8 -1 3 2 -5 2 24 22
64 43 40 21 77 36 81 34 4 -3 9 1 12 8 2 7 29 26 58 41 75 41 193 124 263 188
33 29 64 52 70 50 6 -2 8 0 4 3 -4 4 4 27 17 50 39 65 33 116 -17 154 -20 15
-138 31 -138 19 0 -4 -12 -8 -26 -8 -15 0 -58 -9 -96 -20 -37 -12 -74 -18 -81
-14 -6 4 -9 3 -4 -1 8 -10 -192 -87 -205 -79 -4 3 -8 0 -8 -5 0 -6 -5 -11 -11
-11 -5 0 -7 5 -3 12 4 7 3 8 -5 4 -6 -4 -9 -11 -7 -15 8 -12 -159 -90 -188
-87 -14 2 -26 -1 -26 -7 0 -5 9 -7 20 -4 11 3 20 3 20 1 0 -7 -85 -48 -95 -45
-5 1 -7 -1 -3 -5 4 -4 -28 -31 -73 -61 -109 -73 -120 -65 -65 52 23 50 66 146
96 214 36 81 62 126 75 131 118 47 216 78 232 74 12 -3 24 -1 27 5 5 7 1 8
-11 4 -46 -16 1 9 74 41 49 21 91 33 105 29 16 -3 19 -2 10 5 -9 6 9 19 65 43
43 19 84 33 91 31 6 -2 20 2 30 8 14 9 13 10 -8 5 -14 -4 17 17 68 45 51 28
98 47 104 44 6 -4 8 -3 5 3 -3 5 13 20 36 33 23 13 73 43 110 67 38 24 74 40
80 37 7 -4 9 -3 4 1 -9 11 103 86 116 78 6 -4 7 -1 3 6 -6 8 -2 11 10 9 10 -2
19 3 19 10 0 7 18 25 40 40 22 15 62 44 87 65 28 23 52 36 59 31 7 -4 9 -3 5
4 -7 12 71 79 88 74 6 -2 8 0 4 3 -4 4 15 33 43 64 104 115 130 201 75 248
-40 34 -70 38 -160 18 -44 -10 -94 -18 -109 -18 -20 0 -24 -2 -15 -8 9 -6 10
-9 1 -9 -25 0 -251 -103 -364 -165 -77 -43 -123 -63 -135 -59 -14 4 -16 3 -5
-4 16 -12 -3 -27 -21 -16 -7 4 -10 3 -5 -1 9 -11 -200 -148 -213 -140 -6 4 -9
2 -8 -4 4 -13 -212 -172 -224 -165 -5 3 -7 0 -6 -8 2 -8 -6 -12 -22 -10 -16 1
-21 -1 -12 -6 9 -6 -5 -23 -48 -61 -33 -29 -60 -46 -60 -39 0 7 15 54 34 103
56 146 126 344 126 355 0 6 4 9 8 6 5 -3 9 7 10 22 2 41 38 134 59 150 10 7
48 29 86 48 37 19 97 53 133 75 55 33 69 38 82 27 14 -10 15 -10 5 2 -10 11
-4 20 37 47 30 20 56 31 67 27 13 -4 14 -3 5 3 -9 7 3 20 45 49 55 37 95 59
63 34 -13 -10 -13 -11 0 -7 8 2 15 9 15 15 0 16 84 74 97 66 6 -4 8 -3 4 4 -8
13 33 44 47 35 6 -3 7 -1 4 4 -9 14 29 47 44 37 7 -4 10 -3 5 4 -6 11 31 38
46 34 5 -1 7 2 5 6 -1 5 45 50 103 102 58 51 130 117 161 147 30 29 59 50 64
46 4 -5 5 -3 1 4 -7 13 138 178 158 178 6 1 10 6 8 13 -1 7 11 30 27 52 15 21
34 53 41 69 7 17 15 29 19 27 3 -2 7 20 9 49 3 47 -1 58 -26 87 -28 30 -34 32
-86 30 -86 -4 -105 -6 -99 -14 2 -5 -1 -8 -6 -8 -6 0 -34 -11 -63 -25 -30 -15
-61 -23 -72 -19 -16 4 -17 3 -7 -4 11 -8 10 -12 -7 -21 -27 -14 -35 -14 -26 1
5 7 3 8 -5 4 -7 -5 -10 -10 -7 -13 3 -3 -52 -44 -122 -90 -70 -46 -136 -93
-148 -104 -23 -22 -39 -25 -28 -6 4 7 3 9 -2 4 -5 -5 -9 -12 -9 -16 0 -13 -62
-61 -78 -61 -9 0 -19 -5 -23 -12 -5 -7 -2 -9 7 -4 8 4 -6 -11 -30 -33 -25 -22
-49 -37 -54 -34 -6 3 -7 1 -4 -4 10 -17 -104 -114 -119 -102 -8 7 -15 6 -20
-2 -4 -7 -3 -9 4 -5 6 3 13 2 16 -2 8 -14 -36 -50 -57 -47 -9 2 -15 -1 -11 -6
3 -5 11 -6 17 -2 15 9 -16 -29 -79 -97 -28 -30 -66 -71 -83 -90 -18 -19 -30
-29 -26 -23 14 28 100 342 150 552 30 123 56 225 57 226 2 2 48 29 103 60 55
32 119 71 143 87 23 16 47 26 54 22 6 -4 8 -3 5 3 -4 6 21 29 54 52 51 34 65
39 83 30 20 -9 20 -9 3 5 -18 14 -18 15 1 25 11 6 23 7 27 3 5 -4 5 -2 1 5 -7
12 32 45 45 37 4 -2 11 1 15 7 5 8 2 10 -7 5 -8 -4 -3 2 11 13 52 44 78 60 85
53 5 -4 5 -2 1 5 -7 12 31 40 47 35 5 -1 6 2 3 6 -8 14 31 45 45 36 7 -4 10
-3 6 3 -3 5 12 27 33 48 22 22 40 36 40 32 0 -4 14 8 31 28 17 19 36 32 43 28
6 -3 8 -3 4 2 -8 9 152 182 165 177 4 -1 6 1 5 5 -5 13 54 83 63 77 5 -3 8 -1
7 4 -5 16 73 113 85 105 5 -3 7 -1 3 5 -3 6 14 39 39 75 102 147 131 256 81
314 -22 25 -30 28 -88 27 -48 -1 -78 -8 -128 -31 -78 -37 -218 -129 -320 -211
-41 -33 -78 -59 -81 -56 -4 2 -11 -1 -15 -7 -5 -8 -3 -9 7 -4 12 8 12 6 0 -9
-8 -9 -21 -14 -30 -11 -8 3 -12 3 -8 -1 8 -9 -62 -84 -78 -84 -5 0 -3 5 5 11
12 8 12 10 1 7 -8 -2 -15 -11 -17 -19 -2 -21 -114 -125 -128 -121 -6 2 -8 0
-4 -4 10 -9 -11 -36 -23 -28 -5 3 -6 -1 -4 -9 6 -13 -31 -54 -44 -49 -3 1 -6
-2 -6 -7 0 -5 -20 -33 -44 -61 -33 -38 -46 -48 -53 -38 -7 10 -9 10 -7 -2 3
-31 -2 -40 -21 -40 -11 0 -20 -5 -20 -10 0 -6 -5 -9 -11 -8 -6 2 -14 -4 -16
-12 -4 -13 -3 -13 6 0 6 8 11 11 11 6 0 -5 8 -2 17 5 9 8 4 -3 -11 -23 -16
-21 -35 -38 -42 -38 -8 0 -14 -4 -14 -10 0 -5 -7 -10 -15 -10 -8 0 -16 -8 -16
-17 -2 -33 -4 -38 -23 -66 -10 -15 -21 -25 -24 -23 -3 3 0 11 5 18 5 7 11 31
12 53 1 22 13 103 27 180 21 117 30 145 52 172 190 225 231 273 255 305 15 21
33 37 39 35 6 -1 13 5 15 13 4 13 3 13 -6 0 -6 -8 -11 -12 -11 -8 0 3 34 55
76 115 42 59 78 114 81 120 3 7 8 11 12 8 4 -2 8 1 8 8 0 7 25 53 55 102 30
50 79 136 109 192 29 56 57 99 61 97 4 -3 5 1 3 8 -3 8 8 45 26 83 77 169 136
372 125 429 -3 17 -16 44 -29 60 -19 23 -31 29 -65 29 -56 0 -106 -36 -195
-138 -38 -44 -74 -79 -79 -77 -5 1 -7 -2 -3 -8 7 -11 -62 -106 -74 -103 -4 1
-8 -3 -8 -10 0 -23 -65 -117 -76 -110 -6 4 -8 0 -5 -9 3 -8 -8 -38 -26 -66
-26 -43 -34 -50 -46 -40 -12 11 -12 10 -1 -4 10 -14 10 -21 -2 -38 -7 -11 -17
-17 -22 -12 -5 4 -5 2 -1 -5 6 -11 -18 -67 -44 -103 -9 -12 -10 -11 -5 8 4 14
2 22 -5 22 -8 0 -10 -11 -6 -34 5 -28 3 -37 -11 -44 -48 -23 -48 -20 -45 193
4 257 -19 529 -64 745 -5 20 -3 22 6 10 9 -13 11 -12 7 5 -2 11 -9 19 -16 17
-10 -2 -12 6 -9 27 2 17 2 28 -2 26 -3 -2 -14 29 -24 68 -25 99 -91 277 -136
367 -20 41 -35 81 -32 89 2 8 0 11 -6 7 -5 -3 -21 13 -35 36 -33 56 -94 117
-134 134 -18 8 -34 14 -35 13 -2 0 -17 -5 -34 -10z m100 -321 c-4 -6 -3 -8 3
-5 13 8 34 -38 27 -60 -4 -13 -3 -15 4 -5 13 18 43 -57 36 -89 -4 -17 -3 -20
4 -10 7 10 15 -4 32 -53 12 -36 18 -71 14 -77 -4 -7 -3 -9 3 -6 12 8 38 -76
28 -92 -3 -6 -2 -11 3 -11 19 0 89 -382 77 -421 -4 -11 -1 -27 6 -35 9 -11 13
-86 16 -267 l3 -252 -30 100 c-16 55 -27 108 -24 119 4 10 2 16 -3 13 -5 -3
-15 15 -21 41 -64 260 -134 604 -161 797 -26 176 -37 368 -21 342 6 -9 8 -22
4 -29z m-700 -949 c-3 -5 1 -9 9 -9 16 0 36 -17 96 -84 35 -38 41 -50 30 -58
-11 -8 -11 -9 2 -5 9 3 22 0 28 -6 15 -15 14 -30 -1 -21 -8 4 -10 3 -5 -2 5
-5 14 -9 20 -9 7 -1 11 -6 10 -13 -2 -7 3 -11 10 -9 6 1 12 -6 12 -15 0 -9 4
-20 9 -25 5 -5 6 -2 1 7 -15 28 11 -3 64 -76 49 -70 61 -91 42 -79 -5 3 -12 1
-16 -4 -3 -6 3 -8 14 -6 22 4 56 -39 45 -57 -4 -6 -3 -8 2 -5 6 3 15 -3 22
-14 7 -10 8 -19 3 -19 -5 0 -12 6 -15 13 -3 6 -3 1 0 -13 8 -33 13 -37 23 -22
9 15 22 -3 77 -100 19 -34 26 -54 18 -51 -8 3 -14 0 -14 -7 0 -6 4 -9 8 -6 14
9 29 -8 61 -71 33 -67 37 -78 21 -68 -5 3 -10 -1 -10 -10 0 -11 5 -15 14 -12
10 4 20 -7 30 -34 20 -50 20 -58 0 -33 -14 18 -15 18 -4 -3 6 -13 14 -23 19
-23 8 0 51 -115 51 -135 0 -5 -18 17 -40 49 -22 31 -39 60 -39 64 3 21 -2 42
-11 42 -7 0 -7 -8 1 -22 15 -30 -1 -13 -40 41 -17 24 -28 48 -25 52 3 5 0 8
-8 7 -7 -2 -12 5 -12 14 1 10 -2 16 -6 13 -4 -2 -22 17 -40 42 -19 26 -28 43
-22 39 18 -11 14 10 -5 25 -11 10 -14 10 -9 2 4 -7 5 -13 3 -13 -13 0 -77 102
-71 113 4 7 4 9 -1 5 -10 -9 -29 16 -99 126 -30 49 -53 93 -49 99 3 6 2 7 -4
4 -8 -5 -32 31 -101 153 -13 23 -13 24 2 6 9 -11 16 -16 16 -10 0 5 -14 22
-31 38 -17 16 -28 35 -25 43 3 8 2 12 -3 9 -9 -6 -74 128 -74 151 0 7 -4 13
-8 13 -4 0 -10 8 -13 17 -5 13 0 11 18 -6 14 -13 23 -28 20 -32z m1625 -56
c-13 -26 -23 -50 -24 -53 -6 -29 -18 -49 -27 -44 -7 4 -8 2 -4 -5 9 -14 -6
-48 -86 -198 -33 -62 -65 -110 -69 -107 -5 3 -9 -2 -9 -11 0 -9 -12 -36 -26
-61 -21 -36 -29 -42 -40 -33 -11 9 -14 8 -14 -4 0 -8 4 -17 9 -19 12 -4 -97
-164 -110 -160 -6 1 -8 -1 -5 -6 8 -13 -24 -53 -35 -46 -6 3 -9 0 -7 -7 2 -12
-59 -109 -68 -109 -6 0 50 115 58 118 4 2 8 10 8 18 0 28 70 155 82 148 6 -4
8 -3 4 4 -9 14 25 83 37 75 6 -3 7 -1 4 4 -8 13 79 173 94 173 5 0 9 7 9 16 0
25 60 125 71 118 5 -3 7 -9 4 -13 -2 -5 2 -17 11 -27 14 -18 15 -18 4 4 -6 12
-8 22 -4 22 3 0 0 7 -7 16 -11 14 -9 19 11 36 14 11 19 17 11 13 -9 -5 -8 1 4
19 20 30 27 33 19 9 -5 -15 -4 -15 4 -3 6 8 8 18 6 22 -8 13 36 68 54 68 15 0
15 2 2 10 -14 9 -7 14 13 11 5 -1 6 3 2 9 -3 5 2 21 12 34 27 36 27 14 2 -41z
m299 -921 c10 -7 2 -24 -32 -70 -35 -48 -50 -60 -67 -57 -18 4 -19 2 -8 -11
10 -13 6 -21 -26 -52 -21 -20 -34 -31 -30 -24 5 10 2 13 -10 10 -24 -4 -31
-28 -9 -28 15 0 13 -5 -11 -30 -15 -16 -33 -27 -38 -23 -6 3 -7 2 -4 -4 9 -14
-65 -81 -86 -78 -9 2 -15 -1 -11 -6 3 -5 11 -7 17 -4 7 4 -32 -37 -87 -89 -54
-53 -103 -93 -108 -90 -4 3 -7 1 -6 -3 5 -18 -129 -123 -156 -123 -14 0 -26
-5 -26 -11 0 -6 7 -9 15 -5 24 9 18 2 -35 -38 -28 -22 -54 -35 -61 -30 -7 4
-9 3 -6 -3 6 -9 -101 -93 -118 -93 -8 0 9 24 59 84 29 34 42 43 49 34 6 -9 7
-7 3 6 -8 25 12 50 29 36 10 -8 15 -8 21 1 4 7 3 9 -4 5 -6 -3 -13 -3 -16 2
-7 12 54 83 65 76 5 -3 8 0 7 8 -2 7 3 12 10 10 8 -1 11 1 8 6 -6 10 38 67 53
67 6 0 11 4 10 8 -2 14 53 67 63 61 5 -3 7 0 6 8 -2 7 3 12 10 10 6 -1 11 1
11 5 -3 21 2 26 12 13 9 -13 10 -13 6 2 -6 18 25 52 37 41 4 -5 6 -1 4 7 -2 8
3 14 10 12 8 -1 11 1 8 6 -7 12 68 84 79 75 4 -5 5 -3 2 3 -4 7 10 26 31 43
20 18 48 42 62 54 64 60 102 87 111 81 5 -3 8 0 7 8 -2 7 5 12 14 12 10 -1 16
3 15 8 -1 6 4 13 12 16 9 3 11 0 6 -8 -5 -9 -4 -11 4 -6 6 4 9 11 6 16 -3 5
11 20 32 34 42 29 43 29 61 18z m-2023 -280 c-2 -7 -1 -11 4 -8 12 8 44 -31
36 -44 -3 -6 -1 -9 7 -8 7 2 12 -3 11 -9 -2 -7 0 -12 5 -10 4 1 8 -1 10 -5 1
-4 14 -19 27 -34 14 -15 22 -31 18 -37 -3 -5 -1 -7 4 -4 6 4 40 -37 77 -94 72
-108 88 -138 66 -124 -9 5 -11 4 -6 -4 4 -6 11 -9 15 -7 13 8 52 -70 45 -90
-4 -14 -3 -15 4 -6 6 10 18 -5 44 -55 49 -92 69 -143 57 -143 -5 0 -9 7 -9 16
0 8 -4 13 -9 10 -5 -4 -7 2 -4 13 3 10 1 21 -5 25 -5 3 -9 -8 -10 -24 0 -17 4
-30 9 -30 6 0 7 -5 3 -12 -4 -6 -3 -8 4 -4 6 3 13 -3 17 -14 3 -11 12 -20 19
-20 15 0 39 -47 31 -61 -4 -5 -2 -9 3 -9 5 0 14 -18 21 -41 7 -23 15 -47 18
-55 3 -8 0 -14 -7 -14 -6 0 -9 4 -6 8 2 4 -3 25 -12 46 l-17 38 -11 -30 c-7
-19 -8 -35 -2 -43 7 -11 9 -11 7 1 -4 35 1 46 12 27 8 -13 8 -22 1 -29 -15
-15 19 -48 36 -35 11 8 12 5 7 -16 -4 -15 -3 -27 2 -27 10 0 37 -69 30 -76 -8
-9 -38 47 -31 59 4 7 4 9 -1 5 -7 -7 -41 41 -140 197 -73 115 -116 196 -109
208 4 6 3 9 -1 5 -9 -9 -56 63 -49 74 3 5 1 8 -4 8 -10 0 -38 60 -34 73 1 4
-2 7 -8 7 -5 0 -19 18 -30 40 -23 45 -25 54 -8 44 7 -4 8 -3 4 5 -4 6 -11 9
-15 7 -4 -3 -22 25 -40 61 -27 55 -30 68 -19 81 11 15 11 15 -3 5 -13 -11 -21
2 -60 94 -24 59 -46 112 -48 118 -2 5 8 -1 23 -15 15 -13 24 -30 21 -38z
m-317 -864 c54 -82 102 -163 78 -134 -14 18 -15 18 -13 -2 0 -11 4 -20 7 -20
22 2 32 -7 52 -44 13 -24 23 -56 23 -72 0 -17 6 -31 15 -34 13 -5 13 -3 1 12
-8 9 -11 19 -8 22 3 3 17 -16 30 -43 37 -72 57 -124 47 -118 -6 3 -10 -1 -10
-9 0 -8 5 -18 10 -21 6 -3 10 -1 10 6 0 7 3 9 6 6 4 -4 1 -13 -5 -21 -7 -9 -8
-17 -2 -20 5 -3 11 -1 13 6 4 10 48 -80 52 -107 1 -5 7 -20 14 -32 14 -26 15
-36 3 -29 -5 3 -12 -1 -15 -10 -3 -8 -2 -12 4 -9 6 3 10 0 10 -7 0 -10 2 -10
8 -1 5 8 18 -13 35 -57 31 -81 109 -334 106 -346 -1 -5 3 -22 9 -37 7 -16 12
-38 12 -50 0 -20 0 -20 -15 -1 -14 18 -14 17 -4 -9 13 -29 8 -44 -11 -32 -6 4
-9 14 -6 22 3 8 2 11 -3 8 -13 -7 -164 292 -155 308 4 6 4 9 -1 5 -13 -12
-118 222 -117 261 0 20 -3 29 -8 22 -10 -18 -40 60 -34 90 3 19 3 20 -4 6 -11
-25 -86 170 -76 199 5 15 4 16 -5 4 -11 -16 -11 -16 -15 33 -1 6 -4 14 -8 17
-7 6 -74 224 -84 274 -3 20 -4 36 0 36 3 0 27 -33 54 -72z m2042 -208 c-35
-45 -50 -56 -50 -40 0 6 -4 9 -10 5 -5 -3 -7 -12 -4 -19 7 -17 -43 -76 -64
-76 -8 0 -12 -3 -8 -7 9 -9 -54 -73 -73 -73 -8 0 -12 -3 -8 -6 7 -7 -54 -60
-65 -56 -4 1 -7 -4 -6 -10 2 -7 -3 -12 -10 -10 -6 1 -11 -3 -10 -9 2 -6 -6
-16 -17 -22 -11 -7 -24 -18 -28 -25 -5 -7 -13 -9 -19 -6 -6 4 -8 3 -4 -4 7
-12 -42 -54 -54 -47 -5 3 -12 0 -16 -6 -4 -8 -3 -9 4 -5 7 4 12 5 12 2 0 -11
-84 -65 -93 -59 -6 3 -7 1 -4 -4 6 -10 -131 -118 -256 -202 -41 -28 -50 -31
-65 -19 -15 11 -16 11 -4 -3 10 -14 6 -20 -29 -43 -22 -15 -43 -25 -47 -22 -3
3 0 6 7 6 7 0 10 4 7 9 -3 5 61 77 142 161 109 112 152 151 163 145 8 -5 11
-4 6 0 -10 11 23 46 36 38 5 -3 7 -1 4 4 -9 14 211 205 225 197 6 -4 8 -3 5 3
-8 12 40 48 63 48 8 0 15 5 15 12 0 6 26 30 58 53 31 23 57 37 57 33 0 -4 12
-9 28 -9 15 -1 21 1 14 3 -6 3 -10 9 -7 14 4 5 -2 6 -12 3 -14 -5 -13 -3 4 10
23 17 72 39 88 40 6 1 19 9 29 19 31 28 30 20 -4 -23z m-2263 -1230 c-1 -8 4
-15 11 -15 18 0 91 -115 84 -133 -3 -10 -1 -13 6 -8 7 4 18 -6 27 -24 8 -16
11 -30 5 -30 -6 0 -5 -9 2 -25 7 -16 14 -21 18 -14 6 8 9 8 14 0 4 -6 4 -16 0
-23 -4 -6 -3 -8 3 -5 12 8 64 -98 57 -117 -3 -8 -1 -23 6 -33 10 -16 10 -15 6
7 -4 19 -2 16 9 -8 9 -18 12 -38 9 -44 -4 -6 -3 -8 3 -5 13 8 66 -136 67 -180
0 -17 3 -30 7 -27 8 5 44 -144 37 -151 -2 -3 -21 23 -41 58 -25 42 -36 71 -33
88 3 21 0 26 -13 24 -21 -3 -93 122 -85 150 4 14 3 16 -4 7 -11 -16 -84 121
-76 143 3 7 1 16 -5 20 -7 4 -9 -1 -5 -12 3 -10 -13 16 -35 57 -24 45 -38 83
-35 95 4 13 2 16 -3 8 -6 -9 -26 28 -61 110 -61 143 -63 152 -39 151 14 -2 16
1 6 15 -6 9 5 -2 25 -24 19 -22 35 -47 33 -55z m1958 -57 c-27 -23 -52 -43
-56 -43 -4 0 -21 -13 -39 -30 -33 -31 -62 -42 -40 -15 7 8 10 15 6 15 -3 0 -9
0 -13 0 -5 0 -8 -9 -8 -20 0 -20 -83 -82 -231 -171 -79 -48 -100 -57 -90 -41
3 5 -1 9 -9 9 -10 0 -12 -4 -5 -13 8 -9 -4 -20 -45 -43 -31 -18 -61 -29 -68
-25 -7 4 -9 3 -4 -1 10 -11 -110 -78 -125 -69 -7 5 -8 3 -3 -6 6 -10 4 -12 -9
-7 -9 4 -15 3 -12 -2 3 -4 -20 -20 -51 -34 -43 -19 -59 -23 -65 -14 -5 8 -8 7
-8 -4 0 -9 -17 -23 -42 -33 l-43 -16 45 40 c25 22 51 37 60 34 8 -3 11 -2 7 2
-9 9 22 44 40 44 7 0 13 4 13 9 0 12 110 94 126 94 7 0 11 4 9 7 -8 13 73 60
92 54 14 -4 15 -4 4 4 -16 12 3 27 21 16 6 -4 8 -3 5 3 -9 14 70 66 85 57 7
-4 8 -3 4 4 -10 16 6 15 24 0 12 -11 12 -10 2 4 -11 14 -5 21 47 53 34 20 65
33 71 30 6 -4 9 -1 8 6 -2 7 62 46 150 91 133 68 156 77 175 67 21 -12 20 -13
-28 -56z m-656 -1106 c-127 -97 -414 -247 -649 -341 -98 -39 -111 -42 -85 -21
17 14 36 23 42 20 7 -2 12 1 10 8 -1 7 7 11 21 10 15 -2 22 2 20 11 -2 8 2 15
7 16 6 1 14 8 18 16 5 8 13 11 19 8 6 -4 8 -3 4 4 -6 11 57 55 80 55 7 0 11 4
9 8 -3 4 25 22 63 40 37 19 69 37 72 40 11 14 133 70 144 66 6 -2 20 0 31 5
18 7 17 8 -4 4 -43 -9 -8 11 69 38 41 14 90 27 108 28 17 1 32 6 32 10 0 4 7
8 16 8 10 0 -1 -14 -27 -33z"/>
</g>
</svg>
