<?xml version="1.0" standalone="no"?>
<!DOCTYPE svg PUBLIC "-//W3C//DTD SVG 20010904//EN" "http://www.w3.org/TR/2001/REC-SVG-20010904/DTD/svg10.dtd">
<svg xmlns="http://www.w3.org/2000/svg" version="1.0" width="1024.000000pt" height="1024.000000pt" viewBox="0 0 1024.000000 1024.000000" preserveAspectRatio="xMidYMid meet">
<metadata>
Created by potrace 1.16, written by Peter Selinger 2001-2019
<meta name="Producer" content="Online-Convert"/></metadata>
<g transform="translate(0.000000,1024.000000) scale(0.100000,-0.100000)" fill="#000000" stroke="none">
<path d="M6989 7869 c-57 -9 -98 -30 -151 -77 -221 -200 -356 -795 -282 -1252 47 -295 192 -501 377 -535 l37 -7 0 -353 0 -353 -72 -7 c-129 -12 -348 -54 -386 -74 -26 -14 -35 -43 -27 -82 12 -52 40 -56 163 -26 273 67 447 64 757 -14 76 -20 117 -23 265 -24 149 0 180 3 207 18 52 28 58 96 13 128 -23 16 -31 16 -105 3 -56 -11 -110 -13 -180 -9 -116 8 -369 57 -358 70 4 4 2 5 -5 1 -7 -4 -42 -4 -77 -1 l-65 7 0 354 c0 275 3 355 13 358 142 43 186 70 252 153 74 95 125 219 162 393 27 129 24 425 -5 585 -55 297 -165 561 -277 663 -74 69 -158 95 -256 81z m110 -144 c73 -37 163 -186 221 -365 121 -373 118 -801 -7 -1045 -44 -85 -123 -160 -190 -180 l-23 -6 0 290 c0 278 -1 292 -20 311 -11 11 -31 20 -45 20 -14 0 -34 -9 -45 -20 -19 -19 -20 -33 -20 -310 l0 -289 -28 12 c-116 49 -197 173 -247 377 -25 100 -31 378 -11 525 60 453 251 765 415 680z"/>
<path d="M5735 6294 c-16 -2 -129 -8 -250 -14 -501 -25 -815 -71 -999 -146 -146 -59 -279 -160 -321 -244 -53 -105 -42 -180 41 -269 67 -73 139 -111 349 -186 263 -94 416 -186 451 -272 37 -88 0 -179 -105 -257 -63 -46 -213 -126 -321 -171 -36 -15 -83 -35 -105 -45 -22 -10 -114 -47 -205 -83 -342 -134 -605 -255 -755 -346 -338 -205 -495 -423 -495 -687 0 -154 61 -291 204 -454 170 -195 184 -216 212 -322 15 -57 16 -73 5 -122 -17 -76 -81 -170 -154 -225 -32 -24 -63 -55 -68 -69 -18 -47 36 -93 94 -79 12 4 49 30 81 59 251 223 250 502 -3 771 -143 153 -207 255 -231 371 -41 198 93 427 350 598 133 88 500 260 850 399 184 73 375 153 425 177 174 85 304 193 348 290 17 36 22 65 21 127 0 83 -15 127 -68 198 -58 79 -258 191 -476 266 -205 71 -294 120 -326 182 -59 116 156 265 481 333 174 36 652 92 635 73 -3 -3 -54 -19 -114 -36 -410 -119 -562 -281 -401 -430 62 -57 131 -89 380 -174 397 -136 524 -199 659 -326 128 -122 162 -283 93 -435 -57 -124 -206 -239 -518 -401 -296 -154 -428 -255 -494 -375 -26 -49 -29 -65 -30 -140 0 -72 4 -94 27 -143 34 -72 123 -167 208 -222 128 -84 211 -120 700 -311 288 -111 536 -248 678 -374 114 -100 203 -235 238 -358 25 -93 34 -110 65 -123 26 -10 34 -9 57 8 39 29 39 74 4 178 -63 183 -194 346 -393 488 -158 113 -462 258 -834 397 -285 107 -448 194 -535 286 -59 63 -80 106 -80 167 0 63 24 112 83 171 63 63 132 108 297 194 313 163 446 249 549 357 107 113 151 216 151 355 0 232 -153 420 -472 578 -57 28 -216 89 -355 136 -247 84 -357 129 -382 160 -55 65 91 141 494 255 217 61 380 106 428 117 40 9 70 52 63 88 -12 56 -30 66 -120 64 -45 0 -94 -2 -111 -4z"/>
<path d="M2900 5446 c-25 -6 -86 -39 -135 -73 -151 -104 -194 -105 -334 -10 -90 61 -157 86 -227 87 -64 0 -95 -21 -96 -68 -1 -46 26 -72 76 -72 23 0 55 -4 72 -9 43 -12 122 -63 106 -69 -7 -2 -20 2 -30 10 -15 12 -16 11 -3 -5 10 -12 22 -16 37 -13 13 4 26 1 30 -5 12 -20 112 -59 167 -65 85 -10 154 18 298 120 52 37 103 49 149 36 16 -5 70 -36 120 -69 187 -125 286 -122 473 16 64 47 123 68 166 58 15 -3 72 -35 127 -71 112 -73 183 -99 257 -91 57 5 87 31 87 76 0 49 -20 63 -102 71 -77 7 -127 28 -204 86 -97 74 -217 88 -319 39 -33 -16 -66 -29 -72 -28 -7 0 -10 -3 -8 -8 10 -15 -89 -78 -141 -90 -68 -15 -104 -3 -220 76 -62 43 -108 66 -143 74 -63 13 -73 13 -131 -3z"/>
<path d="M6088 4026 c-26 -7 -71 -28 -100 -46 -100 -63 -130 -74 -202 -77 -83 -2 -108 -20 -104 -71 9 -102 169 -103 323 -2 139 90 176 90 319 -5 53 -36 120 -71 148 -80 108 -32 212 -13 308 56 74 52 139 86 181 94 45 8 89 -9 190 -76 182 -119 302 -119 464 2 85 63 140 84 189 75 17 -4 68 -31 113 -61 92 -61 175 -90 240 -82 58 6 83 30 83 77 0 51 -19 64 -104 71 -64 5 -80 11 -144 52 -101 65 -134 77 -214 77 -80 0 -117 -14 -202 -74 -148 -105 -213 -108 -356 -15 -120 77 -151 89 -241 89 -91 0 -127 -14 -234 -89 -70 -49 -151 -76 -203 -66 -44 8 -97 35 -172 86 -32 21 -72 45 -91 53 -52 21 -138 27 -191 12z"/>
</g>
</svg>
