<?xml version="1.0" standalone="no"?>
<!DOCTYPE svg PUBLIC "-//W3C//DTD SVG 20010904//EN" "http://www.w3.org/TR/2001/REC-SVG-20010904/DTD/svg10.dtd">
<svg xmlns="http://www.w3.org/2000/svg" version="1.0" width="1024.000000pt" height="1024.000000pt" viewBox="0 0 1024.000000 1024.000000" preserveAspectRatio="xMidYMid meet">
<metadata>
Created by potrace 1.16, written by Peter Selinger 2001-2019
<meta name="Producer" content="Online-Convert"/></metadata>
<g transform="translate(0.000000,1024.000000) scale(0.100000,-0.100000)" fill="#000000" stroke="none">
<path d="M3071 7501 c-11 -11 -21 -17 -24 -15 -3 3 -4 -22 -2 -55 1 -52 -1 -62 -17 -67 -10 -3 -31 -24 -46 -47 l-27 -41 -2 -263 c-1 -164 1 -263 7 -263 6 0 10 -6 10 -14 0 -7 9 -25 21 -40 11 -14 17 -26 12 -27 -4 0 2 -4 15 -9 18 -8 22 -17 23 -57 0 -36 3 -43 9 -28 5 12 9 -171 9 -432 1 -249 -1 -453 -3 -453 -2 0 -25 10 -51 21 -65 29 -154 23 -220 -15 -26 -14 -52 -23 -58 -19 -5 3 -7 1 -3 -5 3 -5 -9 -20 -28 -31 -36 -23 -51 -27 -41 -12 3 5 1 13 -5 16 -6 4 -10 3 -9 -2 1 -4 0 -15 -2 -23 -2 -8 -6 104 -9 250 -3 171 -1 268 5 272 6 5 6 8 0 8 -5 0 7 17 27 38 20 20 41 49 47 64 15 40 16 481 1 509 -10 17 -9 24 1 31 11 8 10 9 -3 4 -10 -3 -18 -1 -18 5 0 6 -11 20 -25 31 -20 15 -25 28 -25 63 0 61 -38 106 -86 102 -31 -2 -36 -7 -52 -47 -9 -25 -15 -49 -14 -54 2 -5 -2 -12 -8 -16 -6 -4 -12 -14 -14 -23 -1 -9 -10 -24 -19 -34 -41 -47 -47 -83 -47 -312 0 -121 4 -231 10 -245 6 -16 6 -27 0 -31 -13 -8 -13 -45 -1 -45 6 0 13 5 16 10 3 6 1 10 -4 10 -6 0 -11 5 -11 10 0 19 15 10 35 -20 11 -17 28 -33 38 -36 16 -5 17 -28 17 -290 0 -193 -3 -284 -11 -284 -5 0 -8 3 -6 8 3 4 -5 8 -17 8 -12 1 -63 25 -113 53 -102 57 -197 86 -251 76 -40 -7 -107 -39 -194 -92 -57 -34 -158 -60 -158 -40 0 5 -9 7 -20 4 -11 -3 -34 1 -50 10 -29 14 -31 13 -55 -14 -26 -30 -25 -41 7 -88 24 -36 35 -39 143 -39 78 -1 83 1 155 43 126 75 169 93 204 88 62 -10 91 -18 98 -30 4 -7 8 -9 8 -4 0 8 102 -41 110 -53 3 -4 38 -19 79 -34 56 -20 90 -26 133 -24 32 2 58 6 58 9 0 4 12 9 28 12 15 3 55 24 89 46 34 21 64 37 67 34 3 -4 6 -2 6 4 0 32 133 42 190 13 19 -9 69 -35 110 -58 101 -55 195 -70 263 -43 16 6 31 11 34 11 3 0 42 24 87 53 78 50 84 52 151 52 66 0 75 -3 157 -50 48 -27 88 -55 88 -62 0 -6 4 -15 10 -18 5 -3 7 0 4 9 -5 12 1 13 33 5 65 -15 118 -11 147 12 28 22 32 44 14 84 -12 28 -11 27 -88 25 -50 -1 -65 5 -165 62 -100 57 -116 63 -177 66 -76 5 -123 -10 -195 -59 -88 -61 -184 -92 -208 -67 -6 6 38 142 71 215 37 85 151 250 201 290 25 21 57 47 71 59 46 38 23 103 -37 104 -13 0 -39 -9 -57 -21 -19 -11 -39 -17 -45 -13 -8 5 -9 3 -4 -5 8 -14 -61 -91 -81 -91 -7 0 -16 -5 -20 -12 -4 -7 -3 -8 4 -4 7 4 12 5 12 2 0 -8 -93 -140 -105 -148 -5 -4 -7 -8 -3 -8 3 0 -9 -30 -28 -66 -19 -36 -34 -72 -34 -80 0 -8 -4 -14 -9 -14 -6 0 -12 -15 -14 -32 -2 -18 -5 170 -5 418 -2 391 0 453 13 464 8 7 15 9 15 4 2 -22 49 85 55 121 8 58 13 433 5 442 -4 4 -12 27 -18 50 -7 22 -25 54 -40 70 -22 24 -27 39 -27 79 0 34 -6 56 -19 72 -24 27 -69 29 -95 3z m70 -262 c5 -8 9 -110 9 -228 0 -194 -2 -213 -16 -207 -14 5 -15 4 -5 -8 9 -11 8 -15 -5 -20 -25 -10 -28 -8 -42 23 -18 41 -13 421 6 444 15 18 40 16 53 -4z m-571 -516 c0 -14 2 -15 9 -5 6 11 10 10 15 -4 5 -12 1 -23 -11 -33 -15 -11 -15 -13 -1 -8 24 8 28 -12 27 -141 -1 -149 -11 -228 -31 -248 -14 -15 -18 -14 -37 5 -20 20 -21 31 -21 211 0 159 3 195 16 215 19 29 34 32 34 8z"/>
<path d="M7408 7226 c-13 -9 -18 -27 -18 -60 0 -55 -17 -62 -23 -8 l-4 37 -1 -40 c-1 -23 -8 -48 -14 -55 -11 -13 -11 -13 2 -2 7 6 18 12 23 12 5 0 -3 -10 -18 -22 -57 -45 -65 -81 -65 -318 0 -236 6 -264 66 -323 31 -31 40 -62 22 -73 -8 -5 -9 -2 -5 10 4 10 3 15 -3 11 -13 -8 -13 -42 -1 -49 5 -4 12 0 14 6 3 7 6 -18 6 -57 0 -38 -3 -77 -9 -85 -5 -8 -5 -19 -1 -25 14 -17 8 -130 -6 -128 -7 2 -10 -4 -7 -12 4 -8 10 -15 15 -15 5 0 9 -7 9 -15 0 -8 -3 -15 -7 -15 -5 0 -9 -15 -10 -33 -2 -25 0 -29 8 -17 8 11 9 6 5 -20 -4 -18 -12 -38 -19 -42 -9 -6 -7 -12 6 -22 13 -10 17 -21 12 -35 -3 -12 -11 -19 -16 -16 -5 4 -9 -1 -9 -9 0 -19 17 -30 23 -14 2 7 4 -34 4 -92 0 -58 -2 -94 -5 -80 -12 77 -152 318 -228 394 -22 22 -39 43 -39 48 0 4 -4 9 -10 9 -5 1 -21 10 -34 20 -29 23 -74 25 -95 3 -18 -17 -22 -69 -6 -79 6 -4 8 -11 5 -16 -4 -5 1 -9 9 -9 8 0 19 -6 23 -14 4 -7 18 -18 30 -25 21 -11 120 -131 109 -131 -3 0 4 -10 15 -21 17 -17 19 -23 8 -30 -11 -7 -11 -9 2 -9 23 0 120 -215 124 -275 0 -5 4 -16 9 -23 14 -24 0 -23 -55 3 -64 29 -150 33 -207 10 -20 -9 -72 -39 -114 -67 -87 -56 -155 -71 -209 -43 -61 32 -99 12 -99 -54 0 -36 31 -63 94 -81 91 -25 176 1 316 95 51 35 58 37 116 32 53 -3 78 -13 171 -66 61 -33 117 -61 125 -61 9 0 21 -7 28 -15 7 -8 18 -15 24 -15 6 0 4 5 -4 10 -11 7 1 10 40 10 59 0 144 25 173 51 10 9 50 33 89 53 57 29 81 36 129 36 38 0 59 -4 59 -12 0 -6 3 -9 6 -5 11 10 105 -43 98 -55 -4 -7 -3 -8 4 -4 6 4 40 -8 75 -26 83 -44 192 -52 254 -19 59 32 72 45 75 78 3 46 -18 66 -62 59 -55 -8 -69 -12 -74 -17 -3 -3 -31 -4 -62 -2 -41 2 -71 11 -113 34 -31 17 -58 35 -61 39 -3 3 -13 9 -22 13 -17 6 -18 28 -18 270 l0 263 31 23 c62 46 69 79 69 339 0 253 -4 279 -56 327 -15 14 -29 33 -30 43 -1 9 -5 35 -8 57 -2 22 -6 42 -7 45 -1 3 -1 8 0 13 0 4 -5 7 -11 8 -7 0 -23 2 -36 5 -45 8 -82 -53 -73 -123 1 -6 -13 -21 -30 -33 -60 -43 -69 -85 -69 -326 0 -141 -3 -213 -10 -209 -5 3 -10 -1 -10 -10 0 -9 4 -14 10 -10 5 3 14 -12 20 -34 6 -22 15 -43 20 -46 7 -4 6 -13 0 -26 -7 -11 -7 -19 -1 -19 5 0 11 5 13 12 3 8 14 3 30 -13 l26 -26 1 -241 1 -241 -56 2 c-30 2 -57 0 -60 -4 -2 -4 -16 -10 -31 -14 -16 -3 -69 -31 -119 -61 -73 -43 -99 -54 -135 -54 -34 0 -41 -3 -29 -11 13 -9 13 -10 0 -6 -13 3 -15 73 -18 538 l-2 533 40 37 c22 20 40 44 40 53 0 9 4 16 9 16 5 0 8 106 6 243 -3 262 -3 282 -11 274 -10 -10 -74 70 -74 92 0 12 -5 41 -11 65 -10 40 -13 42 -47 44 -20 1 -45 -4 -54 -12z m72 -272 c11 -29 11 -364 -1 -385 -12 -23 -56 -13 -63 14 -3 12 -6 99 -6 194 0 134 3 175 14 186 21 20 47 17 56 -9z m574 -426 c-3 -10 -1 -18 5 -18 14 0 15 -322 0 -372 -13 -51 -44 -52 -65 -3 -17 43 -21 415 -3 415 5 0 8 4 4 9 -3 5 5 11 17 13 28 5 50 -19 42 -44z"/>
<path d="M6283 6899 c-234 -17 -476 -49 -703 -95 -74 -14 -146 -28 -160 -30 -102 -14 -501 -150 -656 -224 -156 -74 -244 -131 -338 -220 -137 -130 -178 -221 -180 -397 -1 -61 1 -109 3 -107 3 2 17 -30 32 -72 29 -78 106 -228 165 -322 52 -81 120 -222 140 -288 25 -82 25 -240 0 -314 -23 -68 -61 -144 -94 -190 -43 -59 -155 -169 -165 -163 -6 3 -7 2 -4 -4 6 -10 -38 -51 -145 -135 -28 -22 -50 -33 -53 -27 -5 7 -11 7 -19 0 -7 -6 -16 -8 -19 -4 -4 3 -7 1 -7 -5 0 -15 13 -15 28 0 7 7 12 8 12 2 0 -17 -80 -76 -95 -70 -8 3 -12 0 -9 -7 4 -13 -300 -230 -322 -230 -7 0 -11 -4 -9 -7 3 -4 -46 -42 -108 -85 -61 -43 -132 -95 -157 -115 -25 -20 -51 -35 -59 -32 -8 2 -11 0 -7 -6 3 -5 -38 -46 -92 -90 -105 -86 -330 -310 -409 -407 -112 -136 -199 -288 -228 -400 -20 -74 -29 -87 -53 -77 -10 3 -13 1 -8 -6 4 -7 13 -12 20 -12 13 0 62 -60 59 -72 -2 -4 11 -2 28 4 36 13 59 45 63 90 4 40 53 158 90 217 l26 41 1414 0 1414 -1 -14 -52 c-8 -29 -14 -91 -14 -139 0 -48 -4 -90 -10 -93 -5 -3 -10 -12 -9 -18 0 -9 2 -9 6 1 7 19 23 14 23 -7 0 -11 12 -23 31 -31 27 -11 33 -11 57 7 25 19 27 25 28 104 0 108 9 170 38 267 53 176 138 324 340 592 151 201 280 415 301 503 4 15 11 27 17 27 5 0 7 4 4 8 -3 5 2 31 10 58 8 27 22 94 30 149 20 131 13 238 -31 425 -6 26 -61 153 -83 192 -95 168 -232 322 -422 478 -41 33 -74 65 -72 71 1 6 -2 8 -8 4 -14 -9 -206 142 -306 240 -92 91 -136 159 -137 213 -2 53 23 134 38 128 8 -3 11 2 8 15 -3 11 0 19 6 19 7 0 10 4 7 9 -7 11 143 163 154 156 4 -3 10 1 13 9 14 36 477 306 477 279 0 -4 4 -3 8 4 4 7 84 43 177 80 l170 69 3 36 c2 28 -2 40 -20 52 -24 17 -41 18 -215 5z m-183 -138 c-50 -16 -355 -179 -397 -212 -7 -7 -13 -5 -16 3 -4 9 -6 9 -6 -2 -1 -9 -23 -33 -51 -53 l-50 -37 -375 -3 c-206 -1 -361 2 -343 6 18 4 60 21 93 37 64 30 252 93 400 134 159 44 523 110 653 119 29 3 55 7 59 11 3 3 18 6 32 5 l26 -1 -25 -7z m-684 -481 c-24 -33 -51 -79 -59 -102 -31 -92 -36 -114 -31 -135 l6 -23 -481 0 c-453 0 -480 1 -474 18 3 9 10 23 16 30 5 6 6 12 2 12 -9 0 31 66 72 117 18 22 60 61 93 86 l60 45 411 1 c227 0 414 3 417 6 19 18 6 -3 -32 -55z m-36 -392 c10 -21 10 -22 -4 -4 -14 17 -15 16 -14 -13 1 -20 6 -31 15 -31 8 0 11 5 8 10 -3 6 -2 10 2 10 5 0 28 -25 52 -56 24 -31 84 -90 134 -132 l90 -77 -99 -6 c-102 -6 -761 -5 -942 2 -56 2 -102 0 -102 -5 0 -15 -31 17 -48 50 -9 17 -27 50 -40 72 -12 23 -24 49 -26 59 -3 18 -10 39 -27 81 -5 13 -9 31 -9 42 0 18 16 19 500 20 l499 1 11 -23z m523 -479 c164 -136 356 -346 340 -372 -3 -5 -1 -7 5 -3 6 3 13 2 17 -4 4 -7 -228 -10 -712 -10 -395 0 -742 -3 -770 -6 l-53 -7 0 35 c0 63 -39 191 -95 305 l-54 113 630 0 630 0 62 -51z m435 -544 c14 -31 15 -35 3 -35 -5 0 -12 8 -14 18 -4 14 -5 14 -6 -3 0 -11 4 -27 9 -35 6 -10 10 -11 10 -2 0 6 4 12 8 12 19 0 45 -130 50 -252 l5 -128 -26 0 c-14 0 -29 5 -32 10 -4 7 -11 7 -18 2 -7 -6 -375 -10 -909 -10 -493 0 -907 -3 -920 -7 l-23 -7 24 25 c13 14 29 23 37 20 8 -3 14 0 14 7 0 6 -4 8 -10 5 -21 -13 -8 9 35 58 60 69 135 218 141 281 2 27 7 53 10 57 3 5 364 9 803 9 l798 0 11 -25z m32 -554 c0 -18 -53 -156 -81 -214 -37 -73 -92 -160 -136 -215 l-35 -42 -1209 1 -1210 0 38 28 c21 15 124 87 228 160 105 73 235 168 290 211 l100 79 1008 0 c622 1 1007 -3 1007 -8z m-383 -653 c-78 -113 -121 -173 -132 -180 -5 -4 -7 -8 -3 -8 4 0 -10 -29 -31 -65 -34 -57 -89 -177 -104 -227 -5 -15 -104 -16 -1368 -17 -1065 0 -1365 2 -1371 12 -6 9 -8 9 -8 0 0 -7 -7 -13 -17 -13 -13 0 -11 4 7 20 13 11 20 20 16 20 -7 0 77 92 159 175 80 81 231 215 242 215 6 0 13 6 16 14 3 7 36 36 74 64 l68 52 1247 0 1248 0 -43 -62z"/>
<path d="M6351 3329 c-43 -13 -99 -49 -139 -88 -30 -31 -31 -32 -14 -61 9 -16 27 -34 40 -40 21 -9 32 -5 84 29 51 35 65 40 107 37 45 -2 72 -14 206 -92 45 -26 59 -29 140 -29 l90 0 100 59 c90 54 106 60 164 62 49 3 73 -2 105 -18 22 -11 44 -25 47 -30 3 -5 9 -9 13 -9 3 1 32 -12 64 -28 80 -40 156 -55 218 -41 27 6 89 34 138 62 49 28 95 51 103 51 7 0 13 4 13 9 0 12 115 10 145 -4 14 -6 25 -18 26 -27 0 -11 2 -12 6 -3 3 9 18 5 54 -14 27 -15 49 -32 49 -37 0 -6 3 -8 6 -5 3 4 24 -2 47 -13 98 -44 259 -10 264 56 2 18 -5 39 -17 54 l-20 23 -70 -18 -70 -18 -137 68 c-118 60 -145 70 -204 74 l-67 5 -128 -68 c-184 -96 -191 -96 -369 -5 l-140 72 -71 -4 c-61 -4 -83 -11 -150 -48 -148 -81 -157 -85 -209 -84 -41 0 -67 9 -130 44 -138 75 -159 83 -210 86 -27 2 -65 -1 -84 -7z"/>
</g>
</svg>
