<?xml version="1.0" standalone="no"?>
<!DOCTYPE svg PUBLIC "-//W3C//DTD SVG 20010904//EN"
 "http://www.w3.org/TR/2001/REC-SVG-20010904/DTD/svg10.dtd">
<svg version="1.0" xmlns="http://www.w3.org/2000/svg"
 width="1024.000000pt" height="1024.000000pt" viewBox="0 0 1024.000000 1024.000000"
 preserveAspectRatio="xMidYMid meet">
<metadata>
Created by potrace 1.16, written by Peter Selinger 2001-2019
</metadata>
<g transform="translate(0.000000,1024.000000) scale(0.100000,-0.100000)"
fill="#000000" stroke="none">
<path d="M5345 9352 c2 -3 -5 -16 -15 -30 -19 -23 -20 -41 -20 -323 0 -175 -4
-299 -9 -299 -5 0 -11 6 -14 13 -2 6 -5 -40 -5 -103 -1 -78 1 -110 8 -100 7
11 10 6 9 -20 0 -29 -2 -31 -9 -15 -7 16 -9 12 -9 -18 -1 -23 3 -36 9 -32 12
7 14 -198 3 -321 l-6 -79 -19 65 c-10 36 -16 72 -12 80 3 8 2 11 -3 7 -9 -10
-64 193 -57 213 3 8 2 11 -3 7 -4 -5 -15 20 -24 55 -56 216 -171 675 -184 740
-21 95 -47 128 -103 128 -29 0 -45 -7 -67 -30 -27 -28 -27 -32 -20 -87 5 -32
8 -76 8 -98 0 -24 2 -33 6 -22 5 13 10 6 19 -29 7 -26 10 -49 7 -52 -3 -3 -5
2 -5 11 0 9 -4 18 -9 21 -5 3 -8 -5 -7 -19 0 -14 4 -25 9 -25 4 0 7 -8 8 -17
0 -15 2 -15 8 2 7 16 9 13 15 -18 4 -20 4 -42 0 -49 -4 -6 -3 -8 3 -5 17 11
43 -124 32 -172 -5 -23 -7 -46 -4 -52 8 -12 25 -12 25 2 0 5 -4 7 -10 4 -5 -3
-10 -1 -10 4 0 6 4 11 9 11 4 0 7 12 5 28 -4 27 -4 27 4 2 22 -64 22 -78 5
-83 -15 -4 -14 -5 3 -6 20 -1 31 -31 59 -161 5 -22 4 -22 -4 -5 -9 19 -10 19
-10 -2 -1 -31 17 -75 28 -68 5 3 16 -18 25 -47 40 -141 54 -197 48 -197 -4 1
-9 0 -12 -1 -28 -10 -42 -4 -60 26 -12 18 -19 38 -15 44 4 6 1 9 -5 8 -10 -3
-60 70 -125 181 -13 24 -22 48 -18 55 3 6 2 8 -2 3 -5 -4 -17 5 -27 20 -20 31
-23 48 -8 38 6 -3 10 -1 10 5 0 7 -7 10 -15 7 -17 -7 -80 97 -69 114 4 7 3 9
-4 5 -6 -3 -24 18 -43 51 -18 32 -41 70 -52 85 -11 15 -16 31 -12 39 5 8 4 10
-3 5 -7 -4 -12 -3 -12 3 0 5 6 12 13 15 6 3 4 4 -5 3 -12 -1 -42 34 -95 113
-76 112 -79 115 -119 118 -84 6 -124 -66 -79 -142 14 -24 22 -46 17 -51 -4 -4
-2 -5 5 -2 17 10 57 -62 43 -78 -8 -10 -8 -15 1 -21 7 -4 9 -3 5 4 -15 24 13
20 29 -4 9 -15 13 -24 7 -20 -6 3 -9 -4 -8 -18 0 -13 3 -22 5 -20 2 2 11 -2
20 -9 14 -11 14 -10 2 6 -8 9 -12 20 -9 23 3 3 14 -10 25 -29 11 -19 29 -47
39 -62 11 -16 14 -26 7 -22 -8 5 -11 1 -10 -12 1 -14 5 -17 13 -10 15 12 29
-5 18 -23 -5 -7 -3 -8 6 -3 10 6 12 4 7 -9 -4 -10 -3 -15 3 -11 13 8 37 -45
34 -77 -2 -17 2 -28 9 -28 7 0 6 -4 -3 -10 -9 -6 -10 -10 -3 -10 19 0 25 18
12 42 -26 51 13 -3 59 -82 35 -59 47 -87 39 -92 -8 -5 -6 -8 5 -8 20 0 62 -65
52 -81 -4 -8 -3 -9 4 -5 15 9 32 -26 27 -53 -2 -12 0 -19 6 -16 5 4 7 11 4 16
-4 5 -4 9 -1 9 2 0 26 -35 51 -77 26 -43 41 -72 34 -65 -7 6 -17 12 -22 12 -5
0 -5 -6 1 -12 6 -7 10 -17 10 -23 0 -5 6 -11 13 -14 7 -2 9 1 5 8 -17 26 15 8
37 -21 32 -44 43 -68 20 -43 -10 11 -30 26 -43 34 -61 35 -286 227 -282 241 1
6 -2 9 -7 6 -6 -4 -41 23 -78 59 -37 35 -71 65 -75 65 -5 0 -8 6 -8 14 0 8 -5
18 -12 22 -7 5 -8 2 -3 -7 4 -8 -8 1 -28 20 -20 19 -39 43 -43 53 -3 10 -11
17 -17 15 -7 -1 -11 4 -9 11 1 8 -1 11 -6 8 -12 -7 -64 48 -55 59 5 4 3 5 -3
2 -6 -4 -47 27 -90 68 -64 61 -85 75 -111 75 -45 0 -62 -9 -79 -41 -15 -30
-16 -99 -1 -99 4 0 5 -5 1 -12 -4 -6 -3 -8 3 -5 5 3 41 -26 79 -65 38 -40 60
-65 50 -57 -13 9 -17 10 -12 1 4 -7 22 -18 39 -26 18 -8 61 -44 97 -81 36 -37
59 -65 53 -61 -7 4 -13 2 -13 -4 0 -6 8 -9 18 -6 22 7 114 -82 119 -116 2 -12
6 -24 10 -27 3 -3 3 4 0 16 -5 21 -3 21 14 10 10 -7 44 -38 76 -68 32 -30 77
-69 100 -88 23 -19 40 -38 37 -43 -3 -5 0 -8 7 -6 19 4 80 -43 72 -55 -3 -6
-1 -7 5 -3 8 4 12 0 12 -11 0 -11 3 -14 8 -7 4 7 27 -3 64 -31 32 -23 54 -46
50 -50 -4 -5 -2 -5 5 -2 6 4 44 -11 85 -34 40 -22 62 -37 48 -33 -14 3 -21 3
-17 -2 4 -4 18 -8 30 -9 37 -1 177 -59 177 -72 0 -7 10 -13 23 -12 21 0 21 1
2 9 -13 6 -15 9 -5 9 27 1 50 -25 50 -57 0 -41 -10 -63 -24 -55 -6 4 -6 0 2
-9 11 -13 10 -48 -5 -195 -9 -98 -20 -180 -23 -183 -3 -3 -5 -16 -4 -30 3 -41
-20 -349 -25 -345 -4 2 -6 -36 -6 -83 0 -118 -16 -475 -22 -485 -3 -4 -4 -86
-3 -183 1 -148 -2 -175 -15 -180 -8 -3 -15 -14 -15 -23 0 -14 2 -14 10 -1 7
11 10 -4 10 -48 0 -40 -4 -61 -10 -57 -16 10 -14 -837 3 -853 8 -9 13 -63 15
-175 2 -89 7 -265 10 -392 7 -221 4 -254 -22 -238 -5 4 -6 1 -2 -6 5 -7 14
-10 21 -7 10 3 14 -57 20 -287 4 -161 11 -384 15 -497 14 -397 4 -1557 -16
-1872 -6 -91 -8 -98 -28 -97 -21 0 -21 1 -1 9 19 8 19 9 -1 9 -12 1 -24 -6
-28 -14 -3 -8 -11 -15 -18 -15 -9 0 -8 3 2 10 8 5 12 10 8 11 -26 5 -34 3 -40
-11 -4 -10 -7 -4 -8 15 0 17 -7 129 -15 249 -7 121 -13 222 -13 225 1 3 -1 31
-5 61 -4 30 -14 127 -22 215 -24 241 -52 470 -95 772 -21 149 -37 289 -35 310
3 27 2 31 -3 14 -5 -17 -15 20 -36 135 -15 87 -43 229 -62 314 -19 85 -33 163
-30 173 2 9 1 15 -3 13 -4 -3 -15 30 -25 72 -27 117 -72 279 -132 475 -30 98
-52 183 -48 189 4 6 3 9 -2 5 -12 -7 -107 270 -98 285 4 6 3 8 -4 4 -11 -7
-36 56 -34 88 0 10 -2 15 -5 12 -9 -9 -94 206 -88 222 3 7 1 11 -3 8 -5 -3
-26 36 -47 87 -21 51 -79 173 -129 272 -50 99 -90 186 -89 192 0 7 -3 11 -6 8
-11 -6 -42 64 -35 77 4 6 3 8 -3 5 -6 -4 -19 10 -29 31 -10 20 -27 48 -37 61
-10 14 -15 33 -12 45 5 15 4 17 -3 7 -6 -7 -12 -9 -15 -4 -4 6 28 41 71 78 42
37 103 96 136 131 32 35 62 61 67 58 5 -3 8 -2 7 3 -5 15 34 63 46 56 6 -3 8
-3 4 2 -9 9 58 90 75 90 7 1 11 7 9 14 -2 8 8 26 21 40 13 14 40 50 61 79 21
29 43 49 48 45 7 -3 8 -1 4 5 -9 15 84 153 97 145 6 -3 7 -1 3 5 -8 13 43 94
54 87 4 -3 7 3 6 13 0 9 5 16 12 14 8 -1 11 2 7 7 -8 14 80 163 90 153 5 -4 5
-2 2 5 -4 6 9 40 29 75 20 34 54 98 74 141 45 91 43 119 -11 155 -39 27 -84
24 -110 -8 -9 -10 -20 -16 -24 -12 -5 4 -5 1 -1 -5 9 -15 -53 -135 -65 -127
-5 3 -6 -1 -4 -8 3 -8 -26 -68 -64 -134 -96 -169 -120 -206 -131 -199 -5 3 -8
-3 -7 -13 1 -23 -90 -162 -105 -159 -6 1 -13 -5 -15 -13 -4 -13 -3 -13 6 0 22
31 10 -2 -12 -35 -13 -19 -27 -32 -31 -27 -4 4 -6 2 -4 -4 1 -7 -28 -53 -65
-103 -66 -87 -89 -112 -68 -73 5 9 9 19 8 22 0 3 16 57 36 120 44 140 107 367
107 389 0 14 2 14 10 1 8 -11 9 -9 5 10 -3 14 3 61 13 105 12 49 21 72 24 60
3 -11 4 -7 2 8 -2 16 12 112 31 213 19 102 35 190 36 197 0 6 4 3 9 -8 7 -14
8 -6 4 25 -11 84 -52 125 -117 113 -46 -9 -66 -43 -83 -139 -8 -49 -17 -96
-20 -104 -3 -8 -8 -35 -10 -60 -6 -70 -64 -345 -74 -348 -5 -2 -7 -9 -4 -16 5
-14 -48 -235 -66 -277 -10 -22 -10 -21 -5 9 3 19 1 31 -5 27 -5 -3 -8 -29 -7
-58 1 -37 -10 -87 -38 -172 l-39 -120 -8 185 c-5 102 -7 217 -6 257 2 39 0 69
-4 66 -5 -2 -8 25 -8 60 0 65 -42 510 -60 639 -11 79 -21 100 -52 122 -45 32
-118 6 -131 -46 -4 -13 2 -86 12 -163 10 -77 17 -167 15 -200 -3 -42 -1 -55 6
-45 7 11 9 3 9 -30 -1 -37 -2 -41 -9 -20 -7 21 -8 17 -9 -20 0 -25 4 -52 10
-60 9 -13 10 -13 6 1 -3 9 -2 21 3 28 8 14 16 -55 30 -284 13 -206 13 -305 -1
-305 -8 0 -7 -6 2 -17 12 -15 12 -16 -1 -8 -12 6 -13 5 -2 -6 16 -17 16 -61 0
-78 -9 -10 -9 -12 -1 -7 6 3 15 1 19 -5 4 -8 3 -9 -4 -5 -15 9 -16 -16 -1 -31
6 -6 9 -19 7 -29 -4 -21 -5 -18 -97 241 -37 104 -58 180 -55 195 3 18 2 20 -4
7 -5 -13 -17 11 -46 92 -21 60 -35 115 -30 122 4 7 3 10 -3 6 -13 -8 -88 198
-77 214 4 7 3 9 -3 6 -7 -4 -33 56 -69 154 -63 176 -80 204 -123 214 -33 7
-83 -14 -101 -42 -11 -17 -11 -17 -6 0 3 9 1 17 -4 17 -10 0 -10 -81 0 -90 14
-13 49 -122 44 -138 -5 -13 -4 -14 4 -3 7 10 12 5 21 -21 6 -19 9 -44 5 -54
-4 -13 -3 -15 3 -7 12 16 48 -81 37 -98 -4 -7 -3 -9 4 -5 13 8 36 -58 34 -99
-2 -20 1 -26 7 -17 6 10 11 5 20 -19 14 -42 14 -47 -2 -25 -13 17 -14 18 -20
2 -5 -11 -3 -15 5 -10 8 5 9 2 5 -10 -4 -9 -3 -14 2 -11 5 3 12 -4 16 -15 4
-11 10 -18 14 -15 5 2 18 -20 30 -51 23 -61 26 -77 11 -54 -8 11 -10 7 -8 -19
2 -19 8 -36 15 -38 7 -3 10 4 7 19 -3 13 11 -15 30 -62 20 -47 33 -92 30 -100
-3 -8 -2 -11 2 -7 9 9 46 -94 39 -111 -3 -8 0 -10 7 -6 7 5 9 0 6 -14 -4 -12
-2 -20 2 -17 4 3 15 -16 24 -42 17 -49 21 -82 6 -48 -7 16 -9 14 -7 -12 1 -18
5 -33 10 -33 4 0 5 -5 2 -11 -4 -6 3 -13 15 -16 15 -4 18 -8 9 -14 -15 -9 -56
38 -51 59 2 8 -1 11 -6 8 -14 -8 -45 31 -36 45 4 7 3 10 -3 6 -12 -8 -36 17
-26 26 3 4 1 7 -6 7 -7 0 -9 5 -5 12 4 6 3 8 -3 5 -13 -8 -37 18 -29 31 3 6
-2 16 -12 23 -16 13 -16 13 -2 -5 9 -12 10 -17 3 -12 -21 12 -73 93 -65 101 4
3 2 5 -5 3 -14 -4 -125 141 -117 154 3 5 1 7 -5 6 -13 -4 -62 62 -55 74 3 5 1
7 -5 6 -14 -4 -222 292 -214 305 3 5 2 7 -3 4 -6 -3 -30 24 -54 59 -25 36 -54
71 -65 77 -46 25 -115 -5 -131 -57 -7 -21 -7 -21 -15 -1 -6 15 -8 12 -8 -17
-1 -20 4 -40 11 -44 8 -5 9 0 6 14 -8 31 -2 27 16 -10 18 -36 21 -50 5 -28 -9
13 -10 13 -6 0 2 -8 9 -14 15 -13 14 3 66 -75 67 -100 0 -11 7 -22 15 -24 13
-4 13 -3 0 6 -8 5 -12 13 -8 16 11 12 43 -47 40 -75 -2 -19 2 -27 12 -27 17 0
20 8 9 23 -5 5 2 -2 14 -16 13 -14 23 -29 23 -35 0 -5 -5 -3 -11 5 -9 13 -10
13 -6 0 2 -8 9 -15 14 -15 15 0 57 -54 49 -62 -3 -4 -6 -1 -6 5 0 7 -4 12 -8
12 -5 0 -9 -7 -9 -15 0 -9 10 -15 26 -15 18 0 22 -3 13 -9 -10 -6 -9 -11 4
-22 16 -12 17 -12 10 1 -4 8 4 2 17 -14 16 -18 23 -36 19 -49 -4 -16 -2 -19
11 -14 11 4 30 -14 67 -65 28 -38 49 -73 46 -76 -3 -3 -6 0 -6 6 0 7 -5 12
-11 12 -8 0 -8 -5 1 -15 7 -8 16 -13 20 -10 4 2 15 -4 25 -15 10 -12 13 -20 7
-20 -7 0 -12 -5 -12 -10 0 -6 7 -10 16 -8 9 2 23 -8 32 -22 16 -25 16 -25 -4
-7 -25 21 -35 22 -28 2 4 -8 10 -13 14 -10 5 3 11 1 15 -5 4 -6 10 -8 14 -5
12 7 73 -73 66 -85 -4 -6 -1 -9 5 -8 7 2 17 -5 23 -16 7 -10 26 -33 43 -50 16
-17 41 -47 54 -66 14 -19 34 -43 45 -53 19 -17 19 -17 -13 -2 -18 9 -30 20
-27 24 3 5 -2 12 -11 15 -9 4 -13 2 -8 -5 4 -7 1 -10 -7 -7 -8 3 -12 13 -11
23 3 16 1 17 -12 6 -15 -12 -20 -8 -17 12 1 5 -2 6 -6 4 -15 -9 -55 12 -47 24
4 8 3 9 -4 5 -14 -8 -105 51 -97 64 3 4 -2 11 -11 14 -9 4 -12 2 -8 -5 3 -6
-12 1 -35 16 -22 15 -38 32 -35 36 3 5 2 9 -3 8 -13 -3 -43 13 -38 20 2 4 -2
8 -9 8 -7 0 -48 26 -90 57 -67 51 -75 60 -64 75 12 14 11 14 -4 3 -18 -14 -43
-7 -32 9 3 5 1 8 -4 7 -15 -5 -113 73 -106 84 3 5 0 8 -8 6 -19 -4 -100 61
-92 74 4 7 2 8 -4 4 -15 -9 -103 64 -95 77 3 6 1 7 -6 3 -6 -4 -23 2 -37 13
-46 36 -102 24 -128 -28 -16 -31 -17 -100 -1 -98 6 1 9 -4 7 -11 -1 -8 2 -10
8 -7 14 9 52 -24 43 -38 -3 -6 -1 -7 6 -3 13 8 44 -12 36 -23 -2 -4 1 -8 8 -8
21 0 207 -154 200 -166 -3 -5 -1 -7 4 -4 9 6 103 -57 103 -68 0 -2 -9 -2 -20
0 -11 2 -20 0 -20 -6 0 -5 10 -9 23 -10 21 -1 21 -1 -3 -9 -22 -7 -20 -8 12
-7 30 2 34 4 25 16 -7 8 18 -7 54 -35 36 -27 64 -52 62 -57 -3 -4 -1 -6 4 -5
5 2 25 -8 45 -22 30 -20 35 -28 27 -42 -8 -15 -6 -18 16 -18 18 0 24 4 19 12
-4 6 13 -3 39 -22 25 -18 44 -37 40 -43 -3 -6 -1 -7 6 -3 6 4 38 -10 71 -31
32 -21 74 -46 92 -57 30 -17 31 -19 13 -27 -19 -7 -19 -8 -1 -8 11 -1 17 -4
13 -7 -3 -3 -30 -3 -59 1 -42 6 -49 10 -33 16 14 7 11 7 -12 3 -19 -3 -78 7
-155 27 -68 17 -134 34 -148 37 -23 5 -23 6 -5 14 15 6 13 7 -10 4 -20 -3 -74
10 -145 34 -63 21 -108 39 -100 39 8 0 35 -6 59 -15 38 -13 63 -13 50 0 -6 6
-70 18 -114 21 -22 2 -95 21 -162 44 -68 22 -132 41 -142 41 -11 0 -32 -11
-48 -24 -38 -33 -40 -98 -3 -126 21 -16 144 -66 208 -85 12 -3 22 -10 22 -15
0 -4 6 -7 12 -6 23 2 158 -44 158 -55 0 -6 4 -8 10 -4 15 9 60 -6 60 -20 0 -7
7 -16 16 -19 26 -10 29 -7 8 10 -13 11 -14 14 -4 11 9 -3 52 -15 95 -27 44
-12 82 -25 85 -29 3 -3 16 -7 30 -8 55 -4 250 -50 243 -57 -4 -4 0 -4 10 -1 9
4 56 2 104 -5 49 -7 164 -13 257 -14 l168 -2 35 -65 c21 -39 27 -54 14 -39
l-21 25 2 -42 c1 -24 6 -43 10 -43 4 0 8 4 8 9 0 5 7 11 15 15 18 6 71 -89 55
-99 -16 -10 -11 -34 10 -45 16 -9 18 -8 14 5 -3 8 -10 12 -15 9 -5 -3 -6 2 -3
11 6 14 9 13 21 -5 8 -12 12 -27 9 -35 -3 -9 0 -15 8 -15 7 0 37 -50 67 -112
65 -134 65 -133 50 -124 -9 6 -11 -4 -10 -33 2 -32 6 -38 16 -29 10 8 13 7 13
-5 0 -9 5 -19 11 -23 8 -4 9 0 4 15 -3 11 -4 21 -2 21 12 0 126 -290 121 -307
-4 -13 -3 -14 4 -5 7 11 10 10 14 -5 3 -10 9 -25 13 -35 4 -11 1 -16 -11 -15
-9 1 -19 -4 -21 -10 -3 -7 0 -13 7 -13 6 0 8 5 5 10 -10 16 12 12 29 -6 20
-20 20 -34 0 -34 -8 0 -12 -5 -9 -10 4 -6 10 -8 15 -5 11 7 24 -13 48 -78 25
-68 26 -71 11 -61 -7 4 -10 1 -7 -7 3 -8 10 -13 15 -12 10 2 89 -215 81 -223
-3 -2 -12 17 -21 43 -14 43 -16 45 -16 18 -1 -17 4 -36 11 -43 7 -7 8 -12 4
-12 -5 0 -3 -7 4 -15 7 -8 16 -12 21 -10 4 3 22 -39 38 -93 32 -104 37 -127
21 -102 -6 9 -10 10 -10 3 0 -7 6 -16 14 -20 17 -10 70 -188 62 -209 -3 -9 -1
-12 4 -9 6 3 10 0 10 -9 0 -8 3 -22 7 -32 4 -11 2 -15 -4 -11 -6 4 -8 -4 -5
-21 4 -22 6 -23 12 -8 9 25 33 -84 24 -110 -4 -14 -3 -15 4 -6 7 11 10 8 14
-10 3 -12 26 -117 51 -233 37 -176 44 -225 42 -302 -1 -71 1 -93 12 -97 8 -3
12 -2 10 2 -3 4 -1 16 2 26 5 13 11 -4 20 -55 32 -187 51 -316 50 -339 0 -23
-1 -23 -9 -5 -6 16 -8 14 -7 -13 0 -18 5 -36 10 -39 6 -4 8 0 4 10 -3 10 -2
17 3 17 6 0 10 -5 10 -10 0 -6 14 -117 30 -247 17 -131 28 -244 24 -253 -13
-28 -12 -39 2 -33 10 3 14 -2 14 -18 0 -19 -2 -21 -10 -9 -9 13 -10 13 -10 0
-1 -8 -29 66 -64 165 -34 99 -81 222 -104 274 -23 51 -39 98 -35 104 3 5 2 7
-4 4 -11 -7 -44 56 -39 75 1 7 1 9 -2 5 -2 -5 -31 41 -63 102 -33 62 -57 117
-53 124 4 7 3 9 -1 5 -5 -5 -46 49 -93 120 -46 70 -94 138 -106 151 -11 13
-16 21 -10 18 13 -8 -49 62 -169 188 -42 45 -75 85 -72 88 3 4 2 5 -1 2 -9 -6
-79 55 -79 69 -1 6 -6 10 -11 9 -6 -1 -33 17 -60 39 -27 23 -70 57 -97 75 -27
21 -44 40 -40 46 3 7 3 9 -2 5 -8 -8 -27 0 -90 40 -35 23 -37 26 -20 33 18 7
17 8 -6 8 -18 1 -28 -5 -32 -19 -3 -11 0 -18 7 -17 6 1 10 -7 8 -18 -2 -14 0
-16 6 -7 7 10 17 4 40 -23 18 -20 32 -42 32 -50 0 -7 5 -17 12 -21 7 -5 8 -2
3 7 -4 8 8 -2 29 -20 26 -26 35 -41 30 -55 -3 -14 -2 -17 4 -8 6 9 14 6 31
-12 12 -13 21 -30 19 -37 -2 -8 2 -13 8 -12 18 3 157 -175 150 -192 -4 -11 0
-15 11 -13 9 2 18 -3 21 -11 3 -9 0 -11 -8 -6 -9 5 -11 4 -6 -4 4 -6 11 -9 16
-6 4 3 20 -12 36 -32 15 -20 23 -34 17 -30 -6 4 -10 -6 -10 -24 0 -27 3 -30
24 -26 19 3 29 -4 52 -37 41 -60 46 -70 33 -62 -8 5 -10 2 -6 -9 4 -9 9 -13
12 -11 7 7 32 -14 32 -26 0 -6 -8 -4 -17 3 -16 13 -17 12 -4 -3 7 -10 16 -16
20 -13 11 6 43 -54 35 -67 -4 -6 -3 -8 4 -4 6 3 26 -20 48 -56 50 -84 50 -85
32 -70 -13 10 -15 9 -11 -12 3 -14 11 -27 19 -30 9 -3 11 1 8 12 -9 26 12 -3
41 -60 17 -33 21 -46 11 -42 -18 7 -15 -24 3 -36 8 -4 11 -13 7 -19 -4 -6 3
-13 17 -16 29 -8 78 -102 70 -136 -3 -17 -2 -20 5 -11 7 10 15 -1 31 -42 13
-30 20 -60 16 -65 -3 -6 -1 -19 5 -28 9 -15 10 -14 6 7 -14 64 53 -105 110
-278 97 -294 214 -784 199 -833 -5 -15 -4 -19 4 -15 7 5 11 -2 11 -19 0 -14
-4 -24 -8 -21 -4 2 -8 -4 -9 -14 -1 -10 6 -21 15 -23 9 -2 -21 -7 -68 -11 -47
-4 -146 -16 -220 -26 -74 -11 -146 -17 -160 -15 -14 3 -18 2 -10 -2 8 -3 -53
-21 -140 -39 -247 -53 -408 -99 -436 -125 -21 -19 -24 -31 -23 -71 2 -26 5
-46 7 -43 3 2 16 -5 30 -15 34 -27 51 -26 194 15 190 55 609 135 705 135 16 1
55 3 88 6 43 3 56 2 45 -5 -12 -9 -11 -11 9 -11 16 0 21 4 18 14 -5 12 12 15
91 19 197 8 627 -7 618 -22 -2 -3 24 -6 58 -7 79 0 286 -34 286 -46 0 -5 4 -6
10 -3 5 3 38 0 72 -6 54 -11 59 -14 38 -21 -20 -6 -19 -7 8 -3 46 7 132 -13
132 -31 0 -8 5 -14 11 -14 5 0 7 5 3 12 -5 8 0 9 17 5 13 -4 28 -7 32 -7 5 0
6 -4 3 -9 -4 -5 3 -7 14 -4 15 4 19 2 15 -10 -4 -8 1 -17 9 -20 11 -4 13 -1 9
10 -5 13 -2 15 18 9 88 -27 102 -29 120 -18 10 7 26 12 34 12 13 0 16 11 17
60 1 3 -2 20 -6 38 -4 25 -3 31 7 26 7 -4 8 -3 4 2 -5 5 -12 9 -15 9 -4 1 -21
8 -37 17 -17 9 -60 24 -95 33 -75 19 -93 30 -35 22 31 -5 36 -4 22 4 -11 6
-33 9 -50 6 -17 -2 -96 11 -176 29 -80 19 -156 34 -169 34 -15 0 -21 4 -16 12
5 8 2 9 -10 5 -15 -6 -182 11 -194 19 -5 3 21 84 27 84 3 0 7 12 8 27 0 15 6
29 12 31 6 2 9 8 6 12 -8 12 67 240 77 234 4 -3 5 1 2 9 -5 13 62 216 75 227
3 3 7 13 9 23 4 25 63 175 117 297 25 58 53 122 62 142 8 22 20 35 26 31 5 -3
7 -1 4 4 -4 6 9 46 29 88 27 56 39 73 46 63 7 -10 8 -8 4 5 -6 20 12 67 27 67
6 0 8 3 4 6 -6 6 58 143 72 154 3 3 18 31 34 63 17 37 31 55 39 51 6 -4 8 -3
4 4 -9 15 63 144 76 135 7 -3 8 -1 4 5 -4 6 -2 22 5 34 24 48 303 513 312 523
7 7 8 6 3 -2 -4 -7 -3 -13 2 -13 6 0 10 10 9 23 0 12 2 28 4 36 2 7 -4 15 -14
16 -12 2 -17 -1 -13 -10 6 -17 -53 -77 -68 -68 -6 3 -8 2 -3 -2 10 -11 -43
-66 -56 -58 -6 3 -7 2 -4 -4 8 -13 -87 -106 -98 -96 -4 5 -6 3 -2 -3 3 -5 -10
-27 -29 -48 -19 -21 -42 -49 -51 -62 -8 -13 -20 -21 -26 -17 -5 3 -8 2 -4 -3
6 -11 -142 -210 -154 -207 -5 2 -6 -3 -3 -10 2 -7 -5 -22 -16 -34 -11 -12 -20
-25 -20 -29 0 -4 -19 -37 -42 -73 -23 -36 -71 -121 -108 -188 -37 -68 -70
-120 -75 -115 -5 4 -5 2 -1 -5 4 -7 -5 -35 -18 -62 -70 -137 -233 -544 -286
-714 -6 -20 -16 -35 -21 -32 -5 4 -6 -1 -3 -9 6 -16 -45 -186 -56 -186 -4 0
-6 10 -4 23 1 12 8 75 15 139 6 65 15 115 20 112 5 -3 6 2 3 10 -10 27 89 624
176 1058 33 164 60 300 60 304 0 3 5 2 12 -2 7 -5 8 -3 3 5 -9 16 65 322 77
315 4 -3 5 2 2 10 -13 35 222 787 239 764 6 -9 7 -8 3 4 -3 10 5 48 18 85 33
94 126 327 134 333 4 3 8 12 10 22 9 54 208 474 223 470 6 -1 8 2 5 7 -4 5 15
53 41 105 l48 96 42 0 c40 0 49 -6 44 -33 -1 -5 3 -6 9 -2 6 3 8 11 4 16 -3 6
11 10 38 9 49 -2 218 21 328 45 216 45 554 174 825 314 83 43 156 76 163 74 7
-3 12 -1 10 4 -1 4 17 27 40 49 49 49 54 84 18 128 -19 25 -30 30 -60 28 -62
-4 -75 -6 -70 -14 8 -12 -59 -42 -91 -40 -24 1 -26 -1 -10 -7 18 -7 15 -11
-23 -30 -23 -12 -48 -19 -54 -15 -6 4 -8 3 -5 -3 7 -11 -36 -34 -55 -29 -7 1
-9 1 -5 -2 5 -2 -5 -13 -23 -23 -17 -11 -35 -17 -41 -14 -5 4 -9 2 -9 -3 0
-15 -67 -41 -91 -35 -16 3 -20 2 -11 -4 9 -7 -7 -19 -57 -42 -100 -46 -322
-123 -338 -117 -7 3 -13 2 -13 -3 0 -8 -15 -12 -87 -27 -7 -1 -13 2 -13 7 0 6
-10 3 -22 -5 -12 -9 -27 -16 -33 -16 -5 0 5 9 23 20 18 11 38 17 44 14 7 -4 8
-2 4 4 -8 13 47 45 60 34 5 -4 6 -3 2 2 -8 9 209 169 229 169 7 0 10 4 7 8 -6
11 52 50 62 41 5 -4 6 -3 2 2 -9 11 82 87 95 79 6 -3 7 -1 3 5 -8 13 33 43 48
35 6 -3 8 -2 3 2 -9 11 21 45 36 41 7 -2 8 -1 4 2 -10 5 74 78 86 74 5 -1 6 2
3 7 -3 5 13 24 37 42 23 19 75 69 116 112 76 81 79 89 55 151 -6 15 -4 17 6
11 9 -6 11 -4 6 4 -5 7 -10 10 -13 7 -3 -3 -15 1 -27 9 -32 23 -68 18 -113
-15 -22 -16 -44 -26 -48 -22 -5 4 -5 2 -2 -4 9 -16 -159 -178 -174 -168 -7 4
-9 3 -5 -4 8 -13 -134 -143 -147 -135 -6 3 -7 1 -4 -4 7 -11 -62 -70 -75 -65
-5 1 -8 -5 -8 -13 0 -8 -5 -15 -11 -15 -5 0 -7 4 -4 10 3 6 -1 7 -10 3 -12 -4
-13 -8 -5 -13 8 -5 -3 -19 -32 -42 -96 -77 -141 -107 -151 -101 -5 3 -7 2 -4
-4 7 -10 -73 -73 -92 -73 -6 0 -11 -4 -11 -10 0 -5 -7 -6 -17 -3 -10 4 -14 2
-10 -4 7 -11 -38 -46 -53 -41 -5 2 1 14 12 28 14 17 19 19 15 7 -4 -11 -3 -16
3 -12 6 3 10 12 10 20 0 19 100 151 111 148 5 -2 8 0 7 5 -4 15 23 52 34 46 7
-4 8 -3 4 4 -8 13 22 64 33 57 4 -2 8 1 8 8 0 12 126 212 146 232 7 7 7 5 2
-4 -6 -10 -4 -12 4 -7 6 4 11 13 9 19 -2 16 34 87 42 82 4 -2 7 1 7 8 0 23
156 286 166 280 6 -3 7 -1 3 5 -4 6 0 25 9 42 34 66 -21 134 -104 128 -21 -2
-38 -5 -36 -8 7 -11 -61 -110 -70 -103 -4 5 -5 2 -1 -5 10 -17 -62 -145 -76
-136 -7 4 -8 2 -4 -4 10 -16 -22 -74 -36 -66 -7 4 -8 3 -4 -5 14 -21 -238
-416 -257 -404 -6 3 -7 1 -3 -6 12 -18 -31 -70 -55 -66 -11 2 -17 0 -14 -6 4
-5 11 -7 16 -4 18 12 9 -7 -32 -66 -23 -32 -46 -56 -52 -52 -5 3 -7 1 -4 -4 5
-9 -58 -103 -69 -103 -8 0 11 36 25 47 10 8 11 12 4 13 -8 0 -9 8 -3 28 4 15
31 99 58 187 27 88 53 175 57 194 5 25 10 30 17 20 7 -10 8 -8 4 7 -6 20 149
614 162 624 4 3 7 25 7 49 -1 36 -7 49 -31 69 -16 14 -28 30 -26 35 1 4 -8 5
-20 1 -50 -15 -80 -37 -90 -65 -5 -16 -15 -26 -21 -22 -6 4 -7 1 -2 -6 10 -18
-15 -106 -26 -89 -6 8 -6 0 -3 -19 4 -21 3 -33 -4 -33 -6 0 -9 -6 -6 -14 3 -7
-17 -94 -45 -192 -27 -99 -74 -271 -105 -384 -30 -113 -70 -250 -88 -305 l-33
-100 -7 100 c-4 55 -9 324 -13 598 -7 543 -7 536 -15 535 -3 -1 -18 4 -33 10
-56 24 -97 10 -123 -39 -13 -26 -15 -73 -14 -302 0 -150 2 -283 4 -297 8 -59
17 -444 11 -438 -4 4 -7 25 -7 48 0 22 -3 38 -7 35 -5 -2 -7 -18 -5 -35 2 -17
0 -29 -5 -25 -5 3 -4 -6 2 -19 7 -13 15 -22 18 -20 10 6 19 -35 18 -81 0 -36
-1 -38 -10 -16 -5 14 -8 30 -5 37 3 7 1 14 -4 16 -14 4 -162 430 -155 446 2 7
1 11 -4 8 -11 -7 -33 68 -25 90 4 13 3 15 -3 7 -12 -17 -98 230 -87 249 4 7 3
10 -1 5 -5 -4 -24 34 -42 85 -18 50 -39 98 -46 105 -24 24 -79 26 -114 4 -28
-18 -33 -27 -33 -59 0 -21 11 -72 25 -112 27 -80 31 -102 10 -55 l-14 30 -1
-28 c0 -20 6 -30 20 -34 13 -4 26 -25 41 -72 33 -100 33 -99 20 -81 -10 14
-11 -2 -2 -63 0 -5 5 -6 10 -3 5 3 7 16 5 29 l-5 22 10 -23 c6 -12 7 -30 4
-39 -4 -10 -2 -14 4 -10 12 8 56 -110 47 -124 -3 -5 -1 -9 3 -9 17 0 35 -68
24 -89 -9 -16 -7 -21 8 -26 13 -4 30 -36 54 -103 19 -53 38 -105 42 -114 5
-13 2 -16 -17 -12 -20 3 -20 2 4 -8 20 -9 33 -30 57 -90 17 -44 28 -84 25 -90
-4 -6 -3 -8 3 -5 5 4 22 -21 36 -54 15 -34 21 -56 14 -51 -9 8 -12 4 -13 -14
-1 -15 4 -24 12 -24 8 0 14 6 14 13 0 6 19 -22 41 -63 22 -41 49 -86 59 -100
15 -21 17 -30 7 -40 -9 -10 -9 -11 2 -5 7 4 12 4 10 -1 -3 -5 -54 -110 -115
-234 -61 -124 -121 -249 -134 -278 -17 -37 -26 -49 -32 -40 -6 9 -7 6 -3 -8 7
-27 -4 -56 -18 -47 -5 3 -7 1 -4 -5 10 -15 -33 -123 -46 -115 -5 3 -7 1 -4 -4
10 -16 -13 -74 -26 -66 -6 3 -7 1 -3 -5 4 -7 -10 -57 -30 -112 -24 -65 -40
-96 -45 -88 -5 8 -8 2 -7 -17 2 -32 -140 -458 -154 -463 -4 -2 -6 -7 -3 -11 7
-12 -61 -236 -71 -234 -5 1 -11 -1 -14 -4 -3 -4 1 -3 8 1 16 9 15 3 -6 -72
-10 -35 -22 -59 -26 -55 -5 4 -6 2 -2 -5 11 -18 -35 -205 -47 -189 -5 8 -6 5
-3 -8 3 -12 -10 -90 -29 -175 -35 -153 -49 -201 -41 -148 2 16 -1 25 -7 21 -5
-3 -6 -22 -3 -43 4 -23 -4 -81 -20 -156 -14 -65 -31 -148 -38 -184 -8 -40 -15
-57 -18 -45 -3 11 -4 7 -3 -10 2 -16 -9 -102 -23 -190 -19 -118 -28 -153 -34
-135 -5 17 -6 12 -3 -16 3 -23 2 -64 -2 -90 -6 -40 -8 -45 -13 -24 -4 14 -6
-3 -6 -40 0 -36 -14 -175 -32 -310 -32 -249 -72 -590 -72 -616 0 -9 -11 -14
-30 -14 -17 0 -29 3 -28 8 0 4 -3 16 -7 26 -5 10 -3 152 4 315 16 373 20 1033
10 1481 -4 190 -9 478 -11 640 -2 181 -7 298 -13 302 -6 5 -5 8 3 8 6 0 12 10
11 23 0 21 -1 21 -8 2 -29 -73 -36 1764 -10 2392 1 29 5 51 8 49 3 -2 5 15 3
37 -8 101 67 917 79 862 5 -23 6 -21 3 10 -2 22 2 80 8 128 9 72 14 87 26 82
12 -4 13 -3 2 10 -7 8 -8 15 -3 15 6 0 30 13 54 29 24 16 47 27 53 24 5 -3 6
-2 3 4 -3 5 8 20 26 34 18 13 51 41 74 62 23 21 46 36 51 33 6 -3 16 2 23 12
13 15 12 16 -3 3 -10 -7 -18 -10 -18 -6 0 11 93 90 102 88 4 -2 7 1 5 6 -1 5
23 37 54 72 30 35 82 96 114 134 33 39 63 69 67 68 4 -2 7 0 6 5 -4 14 23 53
33 47 5 -4 8 -2 7 3 -5 16 42 73 54 66 7 -4 8 -3 4 5 -9 13 30 72 46 68 6 -1
13 5 15 13 4 13 3 13 -6 0 -6 -8 -11 -12 -11 -7 0 13 57 87 64 82 3 -3 4 -2 1
1 -8 12 16 45 27 38 7 -4 8 -3 4 4 -11 18 63 122 82 115 13 -4 14 -3 4 5 -11
7 2 33 57 118 68 104 76 124 71 169 -3 32 -47 65 -86 65 -40 0 -72 -28 -113
-98 -14 -23 -29 -38 -34 -35 -6 3 -7 1 -3 -5 9 -15 -84 -153 -97 -145 -6 3 -7
1 -3 -5 4 -7 -14 -42 -40 -79 -49 -70 -74 -101 -59 -73 5 8 4 11 0 7 -5 -4
-10 -14 -11 -22 -4 -24 -66 -105 -77 -98 -6 3 -7 2 -4 -4 8 -12 -27 -65 -37
-56 -4 5 -6 3 -4 -3 4 -16 -41 -76 -52 -69 -5 3 -12 0 -16 -6 -5 -8 -3 -9 6
-4 8 5 11 3 8 -6 -3 -8 -12 -13 -19 -11 -8 2 -11 0 -7 -3 11 -11 -10 -45 -28
-45 -8 0 -13 -4 -10 -8 8 -13 -24 -53 -36 -46 -7 4 -8 2 -4 -4 4 -6 -33 -55
-84 -112 -49 -55 -90 -96 -90 -91 0 4 6 14 14 20 7 6 16 25 20 41 3 17 11 30
17 30 6 0 9 -8 5 -17 -5 -15 -3 -14 9 2 10 12 12 21 5 23 -5 2 -10 10 -10 18
0 9 4 12 10 9 6 -3 7 1 4 10 -5 11 0 18 14 22 11 3 23 11 26 18 3 9 0 12 -10
8 -12 -4 -10 6 7 48 53 133 106 278 118 321 8 26 17 45 22 43 4 -3 11 0 15 6
4 8 3 9 -4 5 -17 -10 -17 -10 34 158 56 186 68 228 84 288 7 26 15 46 19 44 3
-2 7 27 9 64 3 65 2 69 -28 94 -19 15 -44 26 -61 26 -20 0 -28 4 -23 12 4 7 3
8 -5 4 -6 -4 -9 -11 -6 -16 3 -4 -2 -11 -10 -14 -9 -3 -24 -24 -34 -47 -11
-24 -21 -36 -24 -28 -2 8 -3 1 -1 -15 4 -31 1 -46 -88 -350 -46 -155 -64 -204
-70 -190 -7 15 -7 14 -3 -6 4 -23 -60 -240 -72 -240 -3 0 -3 7 1 15 3 8 1 15
-5 15 -7 0 -9 -10 -5 -24 6 -24 -30 -136 -43 -136 -4 0 -7 -8 -8 -17 -1 -10
-20 -61 -43 -113 l-41 -95 6 200 c3 110 8 406 11 658 5 372 3 457 -7 455 -7
-2 -13 4 -14 12 0 11 -15 14 -62 15 -34 0 -60 -1 -58 -3z"/>
</g>
</svg>
