<?xml version="1.0" standalone="no"?>
<!DOCTYPE svg PUBLIC "-//W3C//DTD SVG 20010904//EN" "http://www.w3.org/TR/2001/REC-SVG-20010904/DTD/svg10.dtd">
<svg xmlns="http://www.w3.org/2000/svg" version="1.0" width="1024.000000pt" height="1024.000000pt" viewBox="0 0 1024.000000 1024.000000" preserveAspectRatio="xMidYMid meet">
<metadata>
Created by potrace 1.16, written by Peter Selinger 2001-2019
<meta name="Producer" content="Online-Convert"/></metadata>
<g transform="translate(0.000000,1024.000000) scale(0.100000,-0.100000)" fill="#000000" stroke="none">
<path d="M7717 8402 c-10 -11 -38 -82 -63 -158 -25 -76 -48 -146 -51 -154 -3 -8 -7 -24 -8 -35 -2 -11 -9 -33 -16 -50 -6 -16 -14 -39 -16 -50 -2 -11 -6 -27 -10 -35 -3 -8 -7 -19 -8 -25 0 -5 -7 -9 -15 -7 -10 2 -11 0 -2 -10 8 -11 8 -21 -2 -40 -8 -15 -12 -29 -10 -31 3 -2 -1 -17 -7 -33 -7 -16 -13 -36 -15 -44 -10 -48 -77 -267 -86 -277 -5 -6 -10 -25 -10 -42 -1 -17 -5 -31 -10 -31 -5 0 -6 -5 -3 -10 4 -6 2 -16 -4 -23 -5 -7 -13 -28 -16 -47 -7 -39 -56 -192 -65 -200 -3 -3 -6 -14 -6 -25 -2 -19 -10 -63 -14 -75 -1 -3 -3 -9 -5 -15 -1 -5 -3 -12 -4 -15 -3 -7 -30 -119 -34 -145 -7 -39 -19 -65 -26 -60 -5 2 -6 -8 -4 -23 4 -23 3 -24 -7 -9 -6 9 -13 26 -15 37 -2 10 -8 27 -14 38 -6 11 -8 21 -6 24 2 2 -5 33 -16 69 -11 35 -23 78 -26 94 -2 17 -9 35 -15 42 -6 8 -5 19 2 33 6 12 9 29 7 38 -3 11 -5 8 -6 -8 -2 -21 -4 -19 -16 14 -8 22 -14 42 -13 45 0 3 -1 8 -2 11 -1 3 -3 13 -5 22 -2 9 -7 38 -13 65 -5 26 -10 55 -11 63 -1 8 -3 31 -6 50 -10 91 -25 285 -29 378 -4 89 -2 101 10 91 12 -10 13 -9 8 5 -3 9 -10 16 -15 16 -5 0 -9 9 -9 21 0 11 -14 35 -32 52 -18 18 -28 26 -24 18 7 -11 2 -13 -21 -9 -49 7 -56 -12 -63 -151 -3 -69 -9 -132 -14 -140 -6 -9 -5 -12 2 -7 13 8 27 -54 19 -84 -3 -11 -2 -35 3 -53 5 -17 11 -69 14 -114 3 -45 10 -93 16 -107 6 -18 6 -26 -1 -26 -6 0 -3 -7 5 -16 9 -8 17 -27 18 -42 2 -32 5 -55 8 -62 1 -3 4 -14 6 -25 2 -11 10 -46 18 -77 8 -32 10 -58 5 -58 -5 0 -9 -8 -9 -17 0 -14 2 -15 9 -4 6 9 11 10 15 2 9 -14 -2 -33 -15 -26 -5 3 -6 -1 -2 -10 3 -10 8 -13 12 -6 4 5 14 -10 23 -35 15 -42 15 -45 0 -40 -12 4 -11 2 3 -10 11 -8 19 -22 17 -30 -2 -8 2 -14 9 -14 6 0 9 -6 6 -14 -3 -8 -3 -17 1 -20 3 -4 7 -12 8 -19 1 -7 7 -32 13 -57 5 -26 8 -57 5 -70 -4 -22 -3 -23 5 -5 10 21 11 21 16 -10 3 -11 7 -33 10 -50 22 -114 30 -215 17 -215 -5 0 -10 -17 -10 -37 0 -58 -9 -114 -26 -154 -8 -20 -12 -39 -9 -42 3 -4 1 -12 -4 -19 -11 -13 -18 -43 -29 -113 -3 -22 -10 -45 -16 -52 -5 -7 -7 -17 -4 -22 4 -5 2 -12 -4 -16 -6 -4 -8 -10 -5 -15 3 -5 -1 -26 -10 -47 -9 -21 -16 -39 -16 -40 1 -2 1 -4 0 -5 0 -2 -2 -10 -4 -18 -2 -8 -13 -42 -23 -75 l-19 -60 -1 42 c0 23 -6 51 -12 62 -6 12 -8 21 -4 21 3 0 2 6 -4 13 -5 6 -15 38 -22 69 -6 32 -16 60 -21 64 -6 4 -6 11 1 19 8 10 7 16 -3 22 -16 9 -52 73 -49 86 1 4 -3 7 -10 7 -6 0 -8 3 -5 6 4 4 -3 19 -13 35 -11 15 -16 30 -11 33 5 4 12 0 14 -6 3 -8 6 -5 6 5 1 14 -4 17 -20 12 -15 -5 -19 -4 -15 4 4 6 3 11 -2 11 -10 0 -45 73 -45 95 0 8 -3 12 -7 10 -11 -7 -42 55 -36 71 3 8 2 13 -2 11 -7 -5 -27 12 -30 26 -4 18 -36 73 -46 79 -6 4 -8 8 -3 8 4 0 -3 17 -16 38 -12 20 -34 62 -47 92 -14 30 -28 57 -33 58 -4 2 -5 8 -1 13 3 5 0 9 -5 9 -6 0 -10 3 -9 8 1 4 -3 17 -10 30 -7 12 -10 22 -7 22 3 0 0 10 -7 23 -7 12 -13 24 -13 27 0 3 -6 15 -13 26 -6 12 -8 24 -5 28 3 3 1 6 -6 6 -8 0 -11 7 -7 15 3 8 2 15 -2 15 -4 0 -9 12 -10 26 -1 15 -7 33 -12 40 -8 8 -8 14 0 19 5 3 10 14 9 23 0 14 -2 13 -9 -3 -10 -22 -11 -21 -15 15 -2 14 -7 36 -11 49 -5 16 -4 22 3 18 6 -4 16 -1 22 7 9 11 7 12 -12 9 -19 -4 -25 1 -35 33 -6 20 -9 41 -6 46 3 4 0 8 -7 8 -7 0 -9 8 -6 21 7 25 -11 69 -29 69 -7 0 -14 4 -16 10 -2 6 -19 5 -45 -1 -49 -13 -60 -39 -45 -107 5 -22 7 -43 4 -46 -2 -3 1 -12 8 -21 7 -8 10 -21 7 -29 -3 -8 -2 -16 3 -18 5 -2 11 -16 14 -33 2 -16 7 -38 11 -48 4 -10 8 -33 8 -52 1 -19 4 -35 8 -35 4 0 10 -10 14 -22 4 -13 8 -25 9 -28 2 -3 6 -18 11 -33 4 -16 22 -58 40 -95 19 -37 31 -70 29 -74 -3 -5 0 -8 5 -8 6 0 10 -3 9 -7 -4 -10 64 -147 75 -151 4 -2 7 -12 7 -23 0 -10 5 -19 12 -19 6 0 8 -3 5 -7 -4 -3 0 -14 9 -24 9 -10 14 -25 11 -34 -4 -8 -1 -14 5 -12 6 1 13 -4 16 -12 3 -10 0 -12 -12 -8 -11 4 -15 3 -11 -4 4 -6 13 -8 21 -5 9 3 20 -7 30 -27 8 -18 24 -47 34 -66 12 -21 16 -39 11 -45 -5 -7 -3 -16 5 -24 8 -7 14 -10 14 -7 0 15 30 -26 50 -68 18 -37 19 -50 10 -69 -10 -20 -9 -21 2 -6 12 14 17 11 38 -35 13 -29 23 -55 22 -59 -1 -5 2 -8 6 -8 5 0 9 -6 9 -13 0 -7 3 -25 7 -40 4 -16 2 -27 -4 -27 -5 0 -10 -4 -10 -9 0 -5 9 -7 20 -4 20 5 25 -6 22 -49 -1 -10 2 -18 7 -18 7 0 24 -88 32 -165 9 -87 -7 -308 -22 -313 -5 -2 -7 -8 -4 -12 3 -5 -4 -35 -15 -67 -11 -32 -22 -65 -25 -73 -2 -8 -4 -16 -5 -17 -2 -2 -3 -6 -4 -10 -1 -5 -7 -17 -13 -28 -6 -11 -12 -23 -12 -27 -6 -35 -52 -138 -60 -134 -3 2 -7 -9 -8 -26 -1 -16 -11 -44 -23 -62 -11 -18 -17 -36 -13 -39 3 -4 1 -7 -6 -7 -7 0 -9 -5 -5 -12 5 -8 2 -9 -9 -5 -9 3 -19 1 -23 -5 -4 -7 -3 -8 4 -4 8 5 12 -1 12 -14 0 -13 -4 -19 -12 -14 -7 4 -8 3 -4 -5 8 -12 -39 -101 -52 -101 -4 0 -8 39 -9 88 -1 48 -5 110 -9 137 -3 28 -6 62 -7 78 0 15 -4 27 -8 27 -5 0 -9 15 -9 34 0 18 -6 49 -14 67 -8 19 -13 49 -11 68 2 22 0 29 -6 20 -5 -8 -9 -12 -10 -9 0 3 -2 12 -4 20 -1 8 -23 59 -48 112 -25 53 -42 99 -39 102 3 3 0 6 -7 6 -7 0 -10 4 -7 9 4 5 2 11 -3 13 -16 5 -92 159 -85 170 5 7 2 8 -6 3 -9 -5 -10 -2 -6 13 4 11 2 23 -3 27 -7 3 -8 0 -5 -9 3 -9 2 -16 -2 -16 -11 0 -70 120 -68 137 1 7 -3 11 -9 10 -14 -3 -148 253 -142 271 3 7 1 11 -3 8 -8 -5 -26 26 -56 94 -41 96 -49 116 -51 123 -2 4 -4 9 -5 12 -1 3 -3 8 -4 13 -1 4 -5 13 -9 20 -5 6 -6 12 -3 12 3 0 -2 16 -10 35 -8 19 -15 38 -15 42 -1 5 -4 14 -6 21 -3 7 -3 25 -1 40 2 16 -2 34 -10 41 -7 7 -11 19 -8 27 3 8 1 14 -4 14 -6 0 -9 5 -8 12 4 16 -55 45 -60 30 -2 -7 -12 -12 -22 -12 -31 0 -41 -24 -38 -98 2 -38 6 -68 11 -65 4 2 7 -3 7 -11 0 -23 -4 -31 -13 -28 -5 1 -6 -2 -2 -8 3 -5 13 -10 21 -10 8 0 14 -4 14 -9 0 -5 3 -18 6 -28 4 -10 -25 16 -64 57 -38 41 -68 79 -64 85 3 5 2 7 -2 4 -4 -4 -24 11 -44 33 -20 22 -45 47 -54 56 -10 9 -18 22 -18 28 0 7 -7 14 -15 18 -8 3 -15 12 -15 19 0 8 -7 20 -15 27 -18 15 -20 34 -2 24 8 -5 7 -2 -2 10 -9 11 -17 13 -21 6 -4 -6 -19 12 -34 40 -15 27 -25 50 -22 50 3 0 -2 9 -11 19 -35 38 -42 49 -36 55 4 3 2 6 -4 6 -10 0 -34 42 -39 68 -1 7 -9 23 -17 35 -8 12 -19 39 -26 60 -7 20 -16 37 -20 37 -6 0 -28 50 -32 75 -4 23 -63 144 -91 188 -16 26 -28 54 -25 62 4 9 1 12 -9 8 -8 -3 -14 1 -14 9 0 8 -20 42 -45 75 -25 33 -44 67 -42 74 2 8 2 10 -1 6 -4 -8 -42 28 -77 74 -21 27 -35 40 -187 160 -92 72 -233 146 -313 164 -16 4 -37 9 -45 12 -8 3 -21 7 -29 9 -8 1 -26 6 -40 10 -14 4 -30 6 -35 5 -5 -1 -16 1 -25 5 -22 9 -71 17 -106 16 -16 -1 -37 1 -45 4 -13 4 -13 6 0 14 13 8 12 10 -2 10 -10 0 -18 -5 -18 -11 0 -5 -5 -7 -10 -4 -6 4 -31 8 -56 9 -26 2 -39 -1 -32 -6 8 -5 0 -8 -22 -9 -19 -1 -44 -3 -55 -5 -11 -1 -38 -5 -60 -8 -22 -3 -68 -12 -102 -20 -35 -7 -63 -11 -63 -9 0 3 -6 1 -13 -5 -7 -6 -26 -12 -42 -14 -17 -2 -32 -6 -35 -10 -3 -4 -21 -10 -40 -13 -19 -3 -39 -10 -45 -15 -5 -4 -19 -10 -30 -12 -11 -1 -22 -5 -25 -8 -3 -3 -39 -22 -81 -42 -72 -34 -77 -35 -95 -20 -15 15 -16 15 -6 1 10 -13 9 -19 -1 -28 -8 -6 -17 -8 -20 -4 -4 3 -7 2 -7 -3 0 -5 -17 -18 -37 -29 -21 -11 -49 -30 -62 -42 -14 -12 -28 -20 -33 -17 -4 3 -8 1 -8 -4 0 -5 -26 -26 -57 -48 -32 -21 -63 -46 -70 -54 -6 -8 -15 -15 -20 -15 -4 0 -26 -17 -48 -38 -22 -20 -46 -35 -53 -32 -8 3 -10 0 -6 -6 3 -6 -16 -32 -42 -58 -27 -26 -75 -78 -107 -114 -33 -38 -63 -64 -69 -61 -7 4 -8 2 -4 -4 6 -10 -123 -197 -147 -213 -5 -3 -8 -10 -8 -15 1 -5 -6 -17 -14 -27 -8 -9 -15 -19 -15 -21 0 -2 -21 -41 -46 -87 -73 -132 -93 -169 -88 -169 2 0 -6 -19 -18 -42 -12 -24 -22 -45 -23 -48 0 -4 -17 -52 -42 -120 -3 -8 -7 -22 -8 -30 -6 -40 -30 -103 -43 -107 -11 -5 -11 -7 0 -14 10 -6 10 -11 1 -20 -6 -6 -9 -17 -7 -24 3 -7 1 -16 -5 -20 -7 -3 -11 3 -12 17 -1 16 -3 18 -6 6 -2 -9 1 -26 6 -37 7 -11 7 -22 2 -25 -8 -5 -19 -74 -26 -161 -2 -16 -6 -59 -9 -95 -6 -60 -11 -308 -6 -320 1 -3 3 -25 5 -50 8 -98 17 -149 28 -167 4 -6 4 -19 1 -28 -4 -10 -1 -21 7 -26 10 -6 10 -9 2 -9 -7 0 -13 -4 -13 -10 0 -5 7 -10 15 -10 21 0 19 -20 -2 -21 -14 0 -13 -2 5 -9 12 -5 22 -15 22 -21 0 -8 -5 -7 -17 2 -15 11 -16 11 -6 0 6 -7 9 -21 6 -30 -4 -14 -3 -14 6 -1 13 18 14 17 36 -55 10 -33 21 -69 26 -80 4 -11 11 -31 15 -45 4 -14 14 -36 24 -50 10 -14 21 -35 24 -48 4 -12 11 -22 16 -22 13 0 20 -43 8 -57 -7 -9 -7 -13 0 -13 6 0 13 6 16 13 5 9 7 9 12 0 3 -7 5 -15 5 -17 0 -3 13 -20 29 -38 17 -18 30 -36 30 -40 0 -5 8 -16 18 -27 43 -46 117 -134 120 -142 2 -5 9 -9 16 -9 6 0 34 -23 61 -50 27 -28 46 -50 42 -50 -4 0 9 -21 28 -46 19 -25 33 -50 29 -55 -3 -5 -1 -9 5 -9 10 0 27 -38 23 -52 -1 -5 2 -8 7 -8 5 0 15 -16 21 -35 6 -19 16 -35 21 -35 5 0 8 -3 7 -7 -1 -5 3 -18 10 -31 7 -12 10 -27 7 -32 -4 -6 1 -7 12 -3 15 6 16 4 5 -9 -10 -13 -10 -18 -1 -24 8 -4 9 -3 5 4 -4 7 -3 12 3 12 6 0 13 -11 17 -25 3 -14 10 -25 15 -25 5 0 9 -6 9 -14 0 -8 6 -21 13 -28 7 -7 22 -29 33 -48 10 -19 27 -43 36 -54 10 -11 24 -32 30 -48 7 -15 16 -28 19 -28 4 0 14 -12 24 -26 14 -22 15 -28 4 -35 -10 -6 -8 -9 9 -9 12 0 26 -8 29 -17 4 -10 15 -24 25 -31 10 -7 18 -17 18 -22 0 -9 13 -24 81 -96 16 -16 29 -34 29 -39 0 -5 18 -26 41 -47 26 -24 38 -42 33 -50 -4 -7 -4 -10 1 -6 4 4 22 -5 40 -20 18 -15 48 -39 68 -54 19 -15 34 -35 33 -44 0 -9 6 -19 14 -21 12 -4 12 -3 1 5 -7 5 -9 12 -4 15 12 8 54 -38 45 -49 -4 -4 -2 -4 5 0 6 3 14 2 18 -4 3 -5 20 -16 38 -25 18 -8 46 -27 62 -43 16 -15 32 -27 35 -27 3 0 4 -9 2 -20 -1 -14 0 -16 7 -7 10 16 21 18 30 5 3 -5 44 -28 91 -52 96 -49 112 -60 105 -71 -3 -5 4 -6 14 -3 11 3 32 -2 48 -10 25 -14 55 -27 76 -32 4 -2 9 -4 12 -5 3 -1 8 -3 13 -5 4 -1 23 -9 41 -17 19 -9 41 -14 48 -11 7 3 13 0 13 -7 0 -6 4 -9 10 -5 5 3 26 -1 46 -10 20 -8 47 -15 60 -15 12 0 25 -4 29 -10 3 -5 12 -7 20 -4 8 3 20 2 27 -2 7 -5 20 -9 28 -9 8 0 14 -6 12 -14 -2 -11 0 -12 11 -3 9 8 29 9 68 1 62 -11 88 -13 254 -24 66 -4 126 -13 134 -19 11 -8 13 -8 8 1 -8 13 64 24 130 20 23 -2 40 0 38 4 -3 3 32 10 78 15 45 4 89 8 98 9 9 1 21 5 27 9 6 4 26 9 44 11 18 3 40 7 48 9 19 4 70 16 93 23 9 2 17 -1 17 -7 0 -6 -4 -8 -10 -5 -5 3 -10 -2 -10 -13 0 -10 -39 -59 -87 -110 -49 -50 -122 -127 -163 -171 l-75 -79 8 -42 c7 -34 15 -44 40 -55 18 -7 35 -11 39 -9 5 3 8 0 8 -5 0 -6 5 -11 11 -11 5 0 7 5 4 10 -6 9 20 40 130 154 17 17 38 44 48 59 10 15 22 25 27 22 6 -4 10 -1 10 5 0 6 6 18 13 26 6 7 32 37 57 65 25 29 57 64 73 79 15 16 27 32 27 37 0 5 10 19 23 30 12 11 38 39 57 63 19 23 47 56 63 72 15 16 27 33 27 37 0 3 8 14 18 22 9 9 24 26 32 39 8 13 23 32 33 42 9 10 17 22 17 28 0 5 8 14 18 19 9 6 13 11 9 11 -5 0 -2 6 5 14 40 42 128 160 128 172 0 7 7 15 16 18 8 3 12 10 9 16 -5 9 7 14 27 11 3 0 5 7 3 17 -2 15 37 78 58 93 5 3 8 9 7 13 -1 4 10 22 24 39 14 18 35 44 47 60 11 15 25 25 30 22 5 -4 9 2 9 13 0 22 56 76 70 67 5 -3 7 0 5 7 -3 8 20 37 56 68 33 30 71 65 84 78 12 12 27 22 34 22 6 0 11 3 11 8 0 4 24 23 53 42 28 19 54 38 57 41 3 3 21 14 40 25 19 10 38 24 42 29 5 7 8 7 8 0 0 -5 5 -3 10 5 5 8 13 15 17 15 4 0 29 13 56 29 26 15 58 29 71 30 13 0 22 5 18 10 -3 5 2 7 11 3 12 -4 14 -2 10 11 -6 15 -5 16 12 2 10 -8 16 -10 12 -3 -9 14 38 42 119 72 32 13 74 32 92 43 17 11 32 16 32 13 0 -4 7 -2 15 5 8 7 22 10 30 6 9 -3 13 -2 10 4 -5 8 20 28 35 28 3 0 41 17 85 37 105 49 164 74 173 76 4 0 13 5 19 11 7 6 20 8 28 4 9 -3 14 -2 11 3 -7 11 18 33 27 24 4 -3 7 0 7 7 0 7 3 10 6 7 4 -3 18 3 32 14 16 12 33 17 46 14 14 -4 17 -3 8 3 -10 6 3 19 48 45 34 21 64 37 66 37 3 0 11 6 19 13 7 6 25 21 41 32 40 28 88 71 156 138 33 33 64 55 70 51 7 -4 8 -3 4 5 -5 7 7 34 27 64 20 29 37 59 38 67 4 33 -2 51 -20 67 -11 9 -17 21 -14 27 3 6 0 5 -8 -1 -7 -7 -23 -13 -36 -13 -14 0 -29 -11 -40 -27 -10 -16 -23 -32 -30 -36 -7 -4 -13 -14 -13 -21 0 -21 -140 -148 -157 -142 -8 3 -12 2 -9 -3 3 -5 -2 -15 -11 -22 -14 -12 -16 -12 -8 1 5 9 5 12 -1 7 -5 -5 -9 -14 -9 -20 0 -6 -20 -25 -44 -41 -42 -28 -44 -28 -57 -11 -8 10 -14 14 -14 9 0 -6 5 -15 11 -21 7 -7 2 -16 -18 -29 -36 -24 -99 -60 -143 -82 -19 -9 -38 -21 -41 -26 -4 -5 -14 -6 -24 -3 -9 4 -14 3 -11 -2 6 -9 -15 -21 -44 -27 -8 -2 -16 -8 -18 -14 -3 -7 -9 -7 -20 2 -11 9 -14 9 -9 1 5 -8 -15 -23 -60 -45 -37 -17 -70 -32 -73 -33 -3 0 -20 -9 -37 -18 -18 -10 -35 -17 -38 -16 -8 1 -89 -36 -177 -82 -43 -22 -78 -37 -78 -34 0 4 -7 -1 -16 -9 -8 -9 -20 -14 -25 -11 -5 4 -9 1 -9 -5 0 -6 -4 -9 -9 -6 -5 3 -14 -1 -21 -9 -7 -8 -16 -12 -21 -9 -5 3 -9 1 -9 -4 0 -8 -29 -25 -55 -32 -5 -2 -27 -14 -48 -27 -22 -14 -45 -22 -53 -19 -8 3 -13 2 -10 -3 3 -4 -3 -16 -14 -26 -11 -10 -20 -15 -20 -12 0 3 -15 -7 -32 -24 -18 -16 -34 -25 -36 -20 -3 9 72 127 89 141 3 3 18 25 34 50 30 50 75 97 88 92 5 -1 5 2 2 8 -4 6 35 53 89 106 53 53 96 92 96 88 0 -5 17 11 38 34 21 23 41 42 45 42 4 0 17 9 30 20 42 40 52 47 70 53 9 4 17 11 17 17 0 5 6 10 14 10 8 0 16 6 19 13 2 6 34 30 71 51 36 21 66 43 66 48 0 5 4 7 9 3 6 -3 13 1 18 8 9 15 108 77 123 77 6 0 10 4 10 9 0 5 12 14 28 20 28 11 34 15 116 69 27 18 55 31 62 28 8 -3 16 0 20 6 4 7 3 8 -4 4 -7 -4 -12 -3 -12 2 0 16 13 22 26 12 8 -8 11 -6 10 5 0 9 12 23 29 33 16 9 37 26 47 37 9 11 17 16 18 10 0 -5 7 1 16 13 8 12 20 20 25 17 5 -4 9 -1 9 5 0 14 61 50 73 43 6 -3 7 -1 3 6 -5 7 27 46 81 101 98 99 126 129 133 145 11 22 106 160 115 167 6 4 6 8 2 8 -4 0 -4 8 2 17 17 31 -12 70 -56 75 -41 6 -57 -5 -83 -55 -8 -16 -25 -39 -38 -53 -14 -13 -21 -24 -17 -24 6 0 -33 -49 -100 -125 -15 -16 -31 -29 -37 -27 -5 1 -7 -2 -4 -6 8 -14 -31 -45 -45 -36 -8 5 -10 3 -5 -5 8 -12 -19 -51 -35 -51 -5 0 -25 -16 -45 -35 -41 -40 -49 -42 -63 -17 -9 15 -10 15 -11 0 0 -9 5 -18 12 -20 7 -3 -2 -17 -22 -35 -21 -19 -37 -27 -41 -21 -4 6 -9 2 -13 -9 -6 -20 -70 -58 -93 -56 -7 0 -11 -3 -8 -7 6 -9 -47 -50 -64 -50 -6 0 -11 -4 -11 -10 0 -5 -6 -10 -12 -10 -7 0 -29 -13 -47 -30 -19 -16 -51 -37 -70 -47 -39 -20 -100 -57 -118 -73 -7 -5 -15 -10 -18 -10 -3 0 -15 -8 -26 -18 -10 -11 -32 -25 -47 -33 -15 -8 -29 -17 -32 -21 -3 -4 -39 -32 -80 -62 -41 -31 -87 -67 -102 -81 -42 -40 -68 -30 -43 18 7 14 16 39 20 56 4 17 11 31 17 31 6 0 8 3 5 7 -4 3 -3 11 2 17 5 6 19 36 31 66 32 81 71 145 80 130 5 -7 8 -2 8 14 0 26 45 95 105 158 9 10 17 22 17 26 0 15 36 43 44 35 4 -5 6 -3 4 3 -3 11 150 166 268 272 32 30 87 81 121 114 39 38 66 57 74 53 8 -6 10 -4 5 4 -5 7 0 21 10 32 18 20 40 27 29 9 -4 -6 1 -7 11 -3 12 5 14 8 5 11 -9 3 -4 13 15 33 15 15 32 26 37 22 6 -3 7 -2 4 4 -9 15 23 55 40 49 8 -3 12 -2 9 3 -6 9 59 95 132 176 6 7 12 18 12 24 0 6 5 11 10 11 6 0 15 11 20 25 5 14 14 25 20 25 5 0 10 7 10 15 0 8 5 15 10 15 6 0 10 6 10 13 0 7 9 23 20 35 11 12 20 25 20 30 0 4 8 17 18 28 10 10 19 22 20 27 3 13 35 72 41 77 16 12 38 106 29 123 -5 9 -7 21 -4 26 5 8 2 9 -49 15 -38 4 -49 -4 -82 -70 -15 -30 -31 -54 -36 -54 -4 0 -6 -4 -3 -9 3 -4 -3 -16 -14 -26 -11 -10 -20 -24 -20 -32 0 -7 -4 -13 -10 -13 -5 0 -10 -7 -10 -15 0 -8 -4 -15 -10 -15 -5 0 -10 -6 -10 -12 0 -7 -13 -27 -28 -45 -36 -43 -67 -86 -67 -95 0 -4 -8 -15 -17 -25 -63 -65 -78 -82 -78 -87 0 -3 -7 -14 -15 -23 -9 -10 -36 -42 -61 -70 -26 -30 -51 -50 -58 -46 -6 3 -8 3 -4 -2 8 -8 -228 -245 -244 -245 -5 0 -38 -31 -75 -70 -37 -38 -70 -70 -75 -70 -8 0 -75 -68 -138 -140 l-22 -25 20 30 c11 17 23 47 27 68 4 20 11 35 15 32 5 -3 12 0 16 6 4 7 3 9 -4 5 -6 -3 -13 -2 -16 3 -4 5 -2 12 4 16 6 4 8 11 4 16 -3 5 0 16 6 24 7 8 10 15 6 15 -3 0 0 16 8 35 8 19 12 35 9 35 -3 0 0 6 6 14 6 7 9 20 5 29 -3 8 0 18 5 22 6 3 9 10 6 15 -12 19 68 171 103 193 7 5 10 12 8 16 -3 5 6 19 19 31 14 13 25 30 25 37 0 8 7 16 15 19 8 4 15 12 15 18 0 7 11 23 25 36 14 13 25 29 25 37 0 7 9 18 20 25 11 7 20 18 20 25 0 6 4 13 9 15 5 2 34 39 64 83 31 45 61 79 69 77 7 -2 10 0 6 4 -7 6 17 60 33 74 8 8 69 100 69 106 0 3 9 14 20 26 11 12 26 34 32 50 7 15 17 28 21 28 5 0 6 4 3 8 -3 5 4 16 15 25 10 9 19 23 19 30 0 7 9 23 20 35 11 11 30 40 42 64 12 24 26 46 31 49 5 3 8 8 7 10 -4 9 24 59 32 59 5 0 7 4 4 9 -3 5 1 14 9 21 8 7 15 19 15 26 0 8 4 14 9 14 4 0 26 40 47 90 24 55 45 90 54 90 9 0 11 3 5 8 -6 4 -12 18 -12 31 -3 34 -44 72 -66 59 -10 -5 -22 -6 -27 -3 -5 3 -15 -5 -21 -19 -7 -14 -16 -23 -20 -20 -5 3 -7 -1 -4 -8 2 -7 -11 -38 -30 -68 -20 -30 -43 -72 -52 -92 -9 -21 -20 -38 -25 -38 -4 0 -8 -6 -8 -14 0 -8 -9 -24 -21 -37 l-20 -24 4 27 c2 15 1 25 -4 22 -4 -2 -7 -22 -6 -44 1 -24 -5 -46 -16 -58 -9 -10 -17 -24 -17 -30 0 -7 -7 -12 -15 -12 -9 0 -12 -6 -9 -15 4 -8 1 -15 -5 -15 -6 0 -11 -5 -11 -11 0 -7 -27 -52 -60 -101 -33 -49 -60 -93 -60 -99 0 -6 -7 -9 -15 -6 -8 4 -17 1 -21 -5 -4 -7 -3 -8 4 -4 24 15 11 -16 -33 -77 -24 -34 -48 -67 -52 -72 -38 -49 -63 -85 -63 -94 0 -5 -8 -14 -17 -20 -10 -5 -18 -13 -17 -18 0 -4 -21 -37 -48 -73 -49 -65 -55 -61 -28 15 4 11 5 26 2 34 -2 8 0 11 5 8 6 -4 9 5 7 20 -1 15 0 32 4 38 7 10 11 25 16 60 2 11 5 21 6 23 1 1 3 5 5 10 1 4 5 19 9 33 8 29 11 39 21 97 4 23 12 45 16 48 5 3 9 14 9 25 0 11 3 18 8 16 4 -3 8 9 9 26 2 40 7 64 16 73 4 4 7 16 7 26 0 13 4 17 13 12 9 -6 9 -5 0 7 -8 9 -9 19 -3 25 5 5 10 20 12 34 2 14 7 31 11 38 5 6 6 12 3 12 -3 0 2 16 10 35 8 19 12 35 10 35 -3 0 1 15 9 34 16 38 27 83 27 109 -1 9 4 17 9 17 5 0 9 6 8 13 -3 14 17 91 31 122 5 11 12 36 16 55 3 19 11 41 17 48 5 7 7 15 4 18 -5 5 11 60 30 104 3 8 7 18 8 23 2 4 4 10 5 15 1 4 2 10 1 14 0 4 4 20 11 35 6 15 11 31 10 36 -1 4 3 7 9 7 6 0 9 7 5 15 -3 8 0 28 6 43 14 33 15 36 28 92 6 24 15 49 20 55 5 6 12 26 15 45 6 37 50 173 66 203 5 10 12 37 15 60 4 23 7 44 8 47 0 3 -8 17 -19 30 -26 32 -75 38 -98 12z m-3621 -659 c16 -6 16 -7 -2 -14 -18 -7 -17 -8 3 -8 12 -1 25 4 28 10 4 6 14 7 24 4 9 -4 36 -9 60 -11 24 -3 49 -8 55 -12 6 -3 16 -7 21 -7 6 -1 9 -7 7 -15 -2 -10 0 -11 10 -2 11 8 21 8 40 -2 15 -8 29 -12 32 -8 3 3 6 1 6 -5 0 -6 11 -14 25 -17 14 -4 23 -10 21 -15 -3 -5 0 -9 7 -8 41 1 57 -4 57 -20 0 -13 3 -14 8 -6 6 10 20 5 53 -19 24 -18 46 -35 49 -38 3 -3 17 -13 32 -23 17 -11 25 -23 22 -32 -5 -11 -2 -13 10 -9 32 12 148 -117 151 -166 0 -8 7 -14 15 -13 15 3 80 -85 80 -106 0 -6 5 -11 11 -11 5 0 8 -4 4 -9 -3 -5 -1 -13 5 -16 6 -4 8 -16 5 -28 -4 -15 -3 -18 3 -9 7 10 18 -5 42 -55 18 -37 33 -74 33 -80 0 -7 4 -13 9 -13 4 0 7 -3 7 -7 -1 -5 0 -11 1 -15 1 -5 3 -11 5 -15 1 -5 5 -15 8 -23 10 -22 26 -100 21 -100 -3 0 -9 10 -14 23 l-9 22 0 -22 c-1 -13 7 -24 20 -28 12 -4 18 -12 15 -21 -3 -7 -1 -16 3 -18 16 -10 35 -201 36 -348 0 -136 -2 -148 -20 -163 -16 -12 -17 -14 -2 -9 21 8 22 -13 1 -116 -8 -41 -17 -90 -19 -109 -2 -19 -9 -48 -15 -66 -6 -18 -13 -43 -16 -56 -3 -13 -6 -28 -8 -34 -1 -5 -6 -25 -10 -44 -14 -61 -55 -137 -47 -88 0 4 -3 7 -9 7 -15 0 -12 -16 4 -30 13 -10 12 -17 -5 -49 -11 -21 -21 -47 -24 -59 -2 -11 -8 -28 -13 -38 -6 -11 -24 -48 -41 -84 -17 -36 -35 -72 -40 -80 -5 -8 -26 -44 -47 -80 -21 -36 -41 -66 -46 -68 -4 -2 -8 -10 -8 -18 0 -8 -5 -14 -11 -14 -5 0 -8 4 -4 9 3 5 0 13 -6 17 -8 4 -9 -3 -4 -25 4 -20 3 -31 -4 -31 -6 0 -11 -6 -11 -14 0 -8 -13 -27 -28 -44 -15 -16 -41 -47 -57 -68 -42 -57 -286 -294 -301 -294 -7 0 -18 -9 -24 -21 -7 -12 -18 -18 -26 -15 -8 3 -14 -1 -14 -9 0 -8 -7 -15 -15 -15 -8 0 -15 -4 -15 -10 0 -5 -7 -10 -15 -10 -8 0 -15 -4 -15 -8 0 -5 -12 -15 -27 -23 -16 -8 -34 -20 -42 -27 -8 -8 -22 -11 -32 -9 -10 3 -17 0 -16 -6 2 -13 -134 -87 -171 -93 -13 -3 -47 -16 -75 -30 -67 -33 -95 -42 -192 -60 -135 -24 -155 -26 -298 -28 -113 -1 -139 2 -147 14 -7 10 -10 11 -10 3 0 -16 -36 -17 -45 -3 -4 6 -15 8 -25 5 -10 -3 -21 -1 -25 5 -3 6 -10 8 -15 5 -7 -4 -45 5 -90 23 -8 3 -18 6 -22 7 -5 2 -9 3 -10 5 -2 1 -11 3 -22 5 -10 2 -23 8 -29 14 -6 6 -18 11 -28 11 -9 0 -32 11 -52 24 -19 13 -38 22 -41 18 -3 -3 -6 -1 -6 5 0 5 -20 20 -45 32 -25 12 -45 27 -45 32 0 6 -4 8 -9 4 -5 -3 -18 6 -29 20 -11 14 -24 25 -29 25 -29 0 -218 243 -208 267 2 7 -1 12 -8 10 -7 -1 -11 8 -9 23 1 19 0 21 -7 10 -8 -12 -12 -9 -20 12 -5 14 -15 29 -21 33 -9 6 -9 10 1 16 11 7 10 9 -4 9 -10 0 -15 5 -12 10 3 6 2 10 -2 10 -5 0 -9 10 -10 22 -1 11 -6 24 -11 27 -8 5 -21 36 -28 64 -1 4 -3 9 -4 12 -1 3 -3 8 -5 13 -1 4 -5 15 -9 24 -4 9 -9 25 -11 35 -2 10 -4 18 -6 18 -1 0 -3 9 -4 20 -1 11 -12 58 -23 105 -12 47 -22 94 -23 105 -6 79 -2 464 5 480 5 11 10 29 11 40 4 27 12 62 24 109 5 22 8 43 5 48 -3 4 0 15 5 25 5 10 17 46 27 80 9 34 20 61 23 58 4 -2 8 5 9 16 1 10 3 28 4 39 1 11 5 20 8 20 4 0 7 6 7 13 0 18 74 189 89 208 8 8 14 20 14 26 0 6 9 22 21 36 11 15 22 35 24 46 6 33 179 281 196 281 4 0 10 8 13 18 11 32 233 257 239 241 4 -11 6 -10 6 3 1 19 59 71 71 63 5 -3 12 0 16 6 5 8 3 9 -7 4 -23 -15 43 48 84 78 20 15 37 25 37 22 0 -3 9 2 19 12 11 10 37 27 58 38 21 11 40 22 43 25 3 4 38 23 77 43 66 33 74 34 83 19 8 -12 10 -13 7 -2 -5 19 15 38 46 44 14 2 35 9 46 16 12 6 21 8 21 4 0 -3 6 -2 13 4 10 8 62 23 84 24 5 0 16 4 26 10 13 6 23 6 33 -3 12 -10 15 -10 12 1 -2 7 8 14 22 16 14 1 43 7 65 12 47 11 285 15 311 5z m1195 -1257 c10 -10 16 -22 14 -26 -3 -5 2 -11 11 -14 10 -4 13 -13 9 -26 -5 -15 -3 -19 10 -14 11 5 18 0 22 -15 3 -11 10 -21 15 -21 6 0 7 -7 4 -16 -3 -8 -2 -12 4 -9 6 3 10 2 10 -4 0 -5 -6 -12 -12 -15 -7 -3 -3 -3 9 -1 16 4 27 -2 43 -25 12 -17 23 -38 24 -48 2 -9 10 -17 18 -17 9 0 51 -36 95 -81 43 -44 88 -87 101 -95 13 -8 25 -23 26 -34 2 -11 9 -19 15 -17 6 1 34 -13 62 -32 45 -30 47 -33 24 -33 -28 0 -42 -9 -32 -19 4 -4 13 -1 22 6 11 9 15 9 15 1 0 -7 4 -10 10 -6 12 8 42 -38 44 -69 0 -13 5 -22 10 -18 5 3 7 -5 4 -16 -4 -12 -3 -20 2 -17 4 3 11 -2 14 -11 3 -8 2 -12 -4 -9 -6 3 -10 2 -10 -3 0 -5 9 -12 20 -15 23 -6 41 -46 33 -76 -3 -12 -1 -21 6 -21 6 0 8 8 4 18 -6 15 -5 15 10 3 9 -7 17 -19 17 -26 0 -6 9 -22 20 -35 11 -13 20 -29 20 -36 0 -7 6 -19 13 -26 6 -7 21 -31 32 -53 10 -22 28 -48 38 -59 13 -13 16 -21 8 -29 -15 -15 -14 -27 2 -27 15 0 48 -36 40 -44 -4 -3 -1 -6 5 -6 7 0 12 -7 12 -15 0 -8 4 -15 9 -15 10 0 32 -56 25 -63 -2 -2 2 -10 11 -17 8 -7 15 -18 15 -24 0 -7 6 -18 13 -24 6 -7 12 -16 13 -20 0 -4 10 -27 22 -52 l21 -45 -22 -7 c-12 -3 -16 -6 -9 -7 8 -1 10 -6 6 -13 -6 -10 -4 -10 8 0 14 11 18 10 28 -7 9 -18 8 -20 -7 -14 -15 6 -16 4 -6 -9 7 -8 9 -19 5 -23 -4 -5 -1 -5 6 -1 15 9 36 -38 47 -104 4 -25 9 -53 11 -62 3 -20 -12 -24 -19 -5 -3 6 -6 0 -6 -15 -1 -16 4 -28 9 -28 6 0 10 5 10 12 0 9 3 9 11 1 13 -13 3 -36 -12 -28 -5 4 -9 -1 -9 -10 0 -9 4 -14 9 -11 15 10 31 -53 31 -123 0 -82 -26 -270 -40 -286 -5 -6 -8 -14 -5 -16 7 -8 -50 -140 -79 -183 -14 -21 -26 -45 -26 -52 0 -8 -4 -14 -10 -14 -5 0 -10 -6 -10 -14 0 -7 -7 -19 -15 -26 -8 -7 -12 -16 -9 -21 3 -5 0 -9 -5 -9 -6 0 -11 -5 -11 -11 0 -6 -12 -26 -27 -45 -20 -26 -28 -32 -35 -22 -7 10 -8 10 -7 -2 3 -30 -2 -45 -21 -70 l-20 -25 10 28 c5 15 10 42 9 60 0 18 0 100 1 182 0 83 -2 166 -4 185 -12 78 -16 102 -21 110 -3 5 -1 11 5 15 6 4 4 12 -5 22 -9 9 -14 22 -11 29 3 7 1 16 -4 19 -6 4 -10 21 -10 39 0 17 -4 36 -10 42 -5 5 -11 28 -12 49 -2 22 -10 45 -18 52 -13 11 -13 12 0 13 13 0 13 1 0 10 -8 5 -15 13 -16 17 0 4 -6 22 -13 38 -7 17 -14 35 -15 40 -11 43 -22 76 -37 113 -13 29 -15 42 -6 42 6 0 1 7 -11 16 -12 8 -22 21 -22 29 0 7 -5 26 -12 42 -6 15 -12 30 -12 33 -1 3 -5 10 -9 17 -4 6 -3 14 3 18 5 3 10 12 10 18 0 8 -3 8 -9 -1 -7 -12 -17 3 -25 40 0 3 -4 9 -8 13 -4 4 -4 13 -2 20 3 7 1 16 -5 20 -6 3 -11 17 -11 30 0 13 -5 27 -10 30 -6 4 -8 10 -5 15 3 5 0 12 -6 15 -5 4 -8 13 -5 21 3 8 1 14 -5 14 -6 0 -9 7 -6 15 4 8 2 17 -2 20 -9 5 -27 93 -36 169 -2 21 -13 46 -24 56 -12 9 -19 19 -16 21 2 3 -6 6 -18 7 -62 6 -85 -22 -81 -98 1 -25 3 -45 4 -45 3 0 10 -37 16 -80 3 -22 10 -45 16 -52 6 -8 8 -16 5 -19 -3 -3 1 -21 9 -40 8 -19 11 -34 8 -34 -4 0 -2 -6 4 -13 6 -7 12 -24 14 -37 2 -14 7 -31 11 -37 5 -8 4 -13 -3 -13 -6 0 -13 7 -16 15 -4 8 -10 15 -15 15 -17 0 3 -28 28 -39 14 -6 23 -14 20 -18 -4 -3 0 -18 7 -32 13 -23 40 -99 51 -141 2 -8 4 -16 5 -17 2 -2 3 -6 4 -10 1 -5 7 -17 13 -28 6 -11 12 -24 13 -30 2 -5 4 -14 6 -20 14 -37 31 -121 27 -129 -4 -5 0 -6 7 -1 10 6 12 3 8 -13 -4 -12 -2 -20 3 -16 5 3 9 -4 9 -15 0 -12 5 -21 10 -21 6 0 10 -8 10 -19 0 -10 7 -35 15 -55 8 -20 12 -36 9 -36 -4 0 -2 -6 3 -12 13 -16 23 -55 34 -133 5 -33 12 -76 15 -95 3 -19 7 -60 8 -92 0 -31 4 -54 9 -51 4 2 7 -11 7 -30 0 -18 -3 -37 -7 -41 -5 -4 -8 -51 -9 -104 0 -92 -5 -135 -19 -192 -4 -14 -8 -34 -10 -45 -2 -11 -4 -22 -5 -25 -1 -3 -3 -9 -4 -15 -7 -39 -28 -95 -36 -95 -6 0 -10 -7 -10 -16 0 -19 -52 -114 -62 -114 -5 0 -8 -4 -8 -10 0 -15 -70 -110 -81 -110 -5 0 -9 -6 -9 -14 0 -8 -8 -21 -18 -28 -10 -7 -28 -28 -41 -46 -12 -18 -27 -30 -32 -27 -5 4 -9 2 -9 -3 0 -6 -19 -19 -42 -30 -33 -15 -46 -17 -57 -9 -11 9 -13 9 -8 1 7 -13 -107 -64 -141 -64 -10 0 -22 -3 -26 -7 -8 -9 -95 -32 -136 -37 -14 -2 -44 -8 -67 -15 -23 -6 -45 -11 -50 -10 -4 1 -10 0 -13 -1 -14 -7 -113 -12 -270 -12 -157 -1 -221 3 -300 17 -14 2 -45 7 -70 10 -55 8 -238 54 -260 66 -8 5 -31 13 -50 17 -19 5 -34 14 -33 20 2 6 -4 9 -11 6 -8 -3 -28 2 -45 11 -17 8 -31 13 -31 10 0 -4 -13 3 -30 15 -16 12 -30 18 -30 14 0 -3 -6 -1 -13 5 -8 6 -17 8 -20 4 -4 -3 -7 -1 -7 6 0 7 -4 9 -10 6 -5 -3 -10 -2 -10 2 0 5 -16 15 -35 22 -19 7 -35 17 -35 22 0 5 -6 9 -14 9 -7 0 -19 7 -26 15 -7 8 -16 12 -21 9 -5 -3 -12 2 -15 10 -3 9 -10 14 -14 11 -5 -3 -13 3 -19 12 -6 10 -11 14 -11 10 0 -16 -60 35 -60 51 0 14 -2 15 -10 2 -8 -12 -10 -12 -16 3 -3 9 -11 17 -16 17 -38 0 -378 340 -400 400 -4 11 -12 20 -18 20 -5 0 -10 5 -10 10 0 10 -8 22 -37 55 -7 7 -13 18 -13 23 0 6 -4 12 -8 14 -12 4 -72 95 -72 107 0 6 -4 11 -10 11 -5 0 -10 7 -10 15 0 8 -4 15 -10 15 -5 0 -12 11 -16 25 -3 14 -11 25 -17 25 -6 0 -7 3 -4 7 4 3 -4 20 -17 37 -34 45 -66 112 -58 121 4 5 2 5 -5 1 -8 -4 -19 6 -29 26 l-17 32 27 -17 c14 -10 26 -15 26 -11 0 3 11 -1 25 -10 13 -9 31 -16 40 -16 9 0 14 -3 12 -7 -3 -5 9 -9 26 -10 51 -3 97 -14 104 -26 4 -6 -2 -8 -17 -4 -17 4 -20 3 -12 -5 9 -9 18 -8 36 1 14 8 30 10 38 5 7 -5 26 -7 42 -5 15 1 26 -1 23 -6 -3 -5 11 -9 31 -10 88 -4 196 -14 205 -20 6 -3 7 -1 3 5 -5 8 5 12 33 12 23 0 83 7 133 16 51 9 98 17 103 18 6 1 15 4 20 8 6 3 31 9 55 13 25 4 48 12 52 18 4 7 11 7 23 -3 13 -11 16 -11 13 0 -2 8 21 22 57 37 33 13 61 23 63 23 1 0 16 7 32 15 17 9 36 13 42 9 7 -4 8 -3 4 4 -6 11 6 16 27 13 4 0 7 4 7 10 0 5 5 7 10 4 6 -3 10 -2 10 3 0 12 49 34 61 27 5 -4 9 -1 9 4 0 6 5 11 11 11 5 0 7 -5 3 -12 -4 -7 -3 -8 4 -4 6 4 9 12 6 20 -3 7 11 20 33 32 21 10 40 22 41 27 2 4 10 7 17 7 7 0 16 7 19 16 3 8 10 13 14 10 5 -3 20 6 32 19 13 14 30 25 37 25 8 0 16 7 20 15 3 9 19 23 35 31 16 8 63 50 105 92 41 42 79 76 84 74 5 -1 8 2 7 6 -2 5 22 34 52 66 30 32 59 65 64 74 5 9 16 23 23 30 7 7 13 18 13 24 0 5 6 8 14 5 10 -4 12 0 9 14 -3 11 1 21 11 25 9 3 16 10 16 15 0 10 99 168 117 187 7 8 11 17 8 22 -3 5 -2 10 3 12 8 4 92 174 92 189 0 5 5 9 11 9 5 0 8 4 4 9 -3 5 -1 12 5 16 6 4 8 11 5 16 -4 5 -1 9 6 9 7 0 10 3 6 6 -5 5 6 41 38 119 4 11 10 31 12 44 2 13 10 36 18 51 8 15 12 29 10 32 -2 2 3 26 11 53 8 28 17 66 20 85 3 19 10 53 15 75 6 22 13 51 14 65 15 116 19 183 18 300 -2 105 0 131 9 115 7 -11 20 -28 29 -39z"/>
<path d="M3839 7406 c-2 -2 -40 -7 -84 -10 -44 -3 -92 -9 -107 -12 -18 -4 -28 -2 -28 5 0 6 -4 11 -10 11 -5 0 -9 -5 -7 -11 1 -6 -5 -13 -13 -15 -8 -2 -44 -11 -79 -19 -52 -13 -66 -14 -74 -3 -6 9 -7 8 -3 -4 5 -17 -5 -22 -42 -21 -7 1 -11 -2 -8 -5 7 -6 -88 -62 -106 -62 -9 0 -9 3 2 10 13 8 12 10 -3 10 -14 0 -17 -5 -12 -20 4 -11 2 -20 -4 -20 -22 0 -26 -2 -34 -16 -4 -8 -15 -14 -22 -14 -8 0 -15 -3 -15 -7 0 -12 -52 -33 -63 -26 -6 3 -8 2 -4 -3 3 -5 -11 -23 -31 -39 -58 -47 -231 -226 -265 -272 -17 -24 -34 -43 -39 -43 -4 0 -8 -7 -8 -15 0 -8 -4 -15 -8 -15 -4 0 -21 -25 -37 -55 -17 -30 -33 -55 -37 -55 -5 0 -8 -6 -8 -13 0 -8 -13 -33 -30 -55 -16 -23 -30 -45 -30 -48 0 -13 -54 -129 -63 -135 -5 -3 -8 -9 -8 -13 1 -3 1 -7 0 -8 0 -2 -2 -10 -4 -19 -1 -9 -10 -32 -20 -52 -9 -19 -18 -44 -20 -54 -2 -10 -4 -20 -5 -23 -1 -3 -3 -9 -4 -15 -10 -62 -19 -96 -27 -101 -5 -3 -7 -9 -4 -14 3 -5 1 -28 -4 -52 -18 -78 -21 -102 -27 -178 -5 -51 -12 -79 -23 -88 -9 -7 -10 -11 -3 -7 17 9 21 -8 25 -95 1 -41 5 -79 9 -85 3 -5 9 -37 13 -70 9 -74 9 -74 24 -108 6 -16 9 -32 6 -37 -3 -5 0 -12 6 -16 9 -5 7 -11 -5 -20 -11 -8 -13 -14 -7 -19 6 -3 11 -1 11 5 0 6 5 8 10 5 8 -5 7 -11 -1 -21 -10 -12 -10 -14 0 -12 16 4 23 -29 9 -39 -6 -3 -8 -1 -4 5 3 6 2 13 -3 16 -5 4 -8 -2 -6 -11 1 -10 10 -17 20 -16 19 1 71 -99 60 -117 -4 -6 1 -7 12 -3 17 6 17 5 0 -14 -14 -16 -14 -20 -2 -20 8 0 12 4 9 9 -3 4 -2 8 3 8 4 0 14 -12 20 -27 18 -40 162 -183 230 -229 32 -21 60 -42 61 -47 2 -4 8 -5 13 -1 5 3 9 1 9 -4 0 -5 15 -15 33 -22 17 -7 46 -18 62 -25 99 -42 170 -56 307 -59 42 0 79 -4 83 -7 3 -4 23 -2 43 3 20 5 48 9 62 9 13 -1 45 6 70 14 25 8 56 17 70 19 14 3 25 5 25 6 0 1 13 4 28 6 16 1 40 10 54 20 18 11 23 12 18 3 -5 -8 1 -6 12 4 11 9 23 14 26 10 4 -3 7 0 7 7 0 9 7 7 22 -6 20 -17 21 -17 8 -1 -12 16 -12 20 0 27 17 11 30 4 30 -16 0 -8 5 -12 11 -8 8 4 8 9 0 17 -6 6 -11 15 -11 21 0 5 3 7 6 3 7 -7 78 29 95 49 6 8 17 14 23 14 11 0 52 31 88 66 9 9 22 13 29 8 7 -4 10 -3 5 4 -3 6 8 21 26 33 33 24 141 133 193 195 17 20 40 46 51 58 12 11 47 64 77 116 31 52 64 104 72 115 8 10 15 27 15 36 0 9 7 22 15 29 8 7 15 18 15 24 0 6 9 27 19 47 11 20 23 53 26 73 4 20 11 36 16 36 5 0 8 3 8 8 -1 4 0 10 1 15 1 4 3 11 4 17 0 5 10 16 21 25 11 9 15 14 9 11 -7 -3 -11 7 -12 26 -1 25 2 29 9 18 8 -11 9 -10 4 7 -3 13 -3 28 2 35 7 13 9 19 18 63 2 11 6 31 10 45 3 14 8 70 11 124 3 55 7 102 9 106 5 8 -20 325 -26 325 -1 0 -3 9 -4 20 -7 45 -37 140 -61 193 -55 121 -87 182 -97 182 -5 0 -7 9 -4 19 3 13 0 18 -8 15 -14 -6 -28 22 -19 37 3 5 2 9 -3 8 -22 -4 -34 5 -73 56 -23 30 -49 55 -56 55 -8 0 -14 4 -14 8 0 4 -14 16 -31 26 -18 11 -28 24 -25 32 3 7 0 16 -6 20 -7 4 -8 3 -4 -4 4 -7 1 -12 -8 -12 -9 0 -16 4 -16 9 0 5 -10 11 -23 15 -13 3 -34 15 -47 26 -13 11 -29 20 -37 20 -8 0 -11 5 -7 12 4 6 3 8 -4 5 -12 -8 -44 2 -38 12 2 3 -6 6 -17 7 -30 1 -88 14 -100 21 -11 7 -37 11 -112 17 -27 2 -57 7 -66 10 -8 4 -17 5 -20 2z m8 -168 c9 -7 13 -7 13 1 0 17 110 7 121 -11 6 -8 9 -9 9 -1 0 8 7 8 30 0 21 -8 26 -14 17 -20 -8 -6 -6 -7 6 -3 23 7 128 -25 120 -37 -3 -6 -1 -7 6 -3 18 11 43 -18 28 -34 -8 -8 -5 -8 12 1 19 11 25 11 28 1 3 -6 8 -10 13 -7 5 3 17 -6 28 -20 11 -14 23 -25 27 -25 4 0 32 -25 61 -56 45 -48 52 -61 49 -88 -4 -24 -3 -26 3 -8 l7 24 20 -24 c11 -13 29 -41 39 -63 10 -22 21 -43 23 -47 2 -4 -4 -5 -13 -1 -12 4 -15 3 -10 -5 4 -7 13 -12 20 -12 14 0 36 -41 36 -66 0 -8 4 -13 8 -10 8 5 13 -17 16 -66 0 -14 4 -24 9 -21 4 2 7 -3 7 -12 0 -9 -4 -13 -10 -10 -6 3 -7 -1 -4 -9 3 -9 11 -14 17 -13 6 1 12 -7 14 -18 1 -11 5 -31 8 -45 17 -79 17 -90 4 -90 -11 0 -11 -2 1 -10 12 -7 15 -30 14 -107 -1 -54 -5 -123 -9 -153 -4 -30 -8 -66 -8 -80 -1 -15 -7 -24 -15 -22 -10 2 -10 -2 -1 -19 6 -12 7 -24 3 -28 -5 -3 -10 -10 -11 -16 0 -5 -4 -27 -7 -49 -4 -21 -9 -43 -13 -50 -4 -6 -9 -20 -10 -30 -5 -32 -30 -98 -56 -151 -14 -27 -37 -78 -53 -112 -15 -34 -31 -60 -35 -58 -4 3 -10 -8 -14 -25 -4 -16 -14 -34 -23 -40 -9 -5 -13 -10 -8 -10 18 0 -87 -125 -106 -125 -6 0 -12 -10 -13 -23 -2 -26 -131 -156 -145 -147 -6 3 -7 0 -4 -8 7 -20 -131 -122 -243 -180 -86 -44 -124 -58 -170 -61 -11 0 -19 -4 -16 -8 2 -5 1 -8 -4 -9 -4 0 -17 -3 -28 -5 -11 -3 -40 -8 -65 -11 -25 -3 -53 -9 -63 -15 -9 -5 -22 -6 -28 -3 -5 4 -15 2 -22 -4 -16 -12 -174 -3 -237 14 -14 4 -33 8 -42 9 -10 1 -21 5 -24 9 -4 4 -16 7 -26 7 -11 0 -17 4 -14 8 3 5 -5 8 -17 7 -25 -2 -108 38 -157 75 -68 51 -151 134 -146 146 3 8 0 11 -8 8 -7 -3 -26 21 -47 61 -18 36 -38 65 -43 65 -4 0 -2 8 5 18 7 9 9 14 5 10 -9 -8 -46 44 -51 72 -2 8 -4 16 -4 18 -1 1 -1 4 -1 7 0 3 -6 18 -15 34 -8 16 -17 44 -20 63 -3 18 -10 57 -15 85 -8 37 -8 59 0 72 7 14 7 22 -1 27 -8 4 -9 51 -5 153 3 80 6 157 6 170 0 12 3 28 7 34 4 7 8 18 9 27 9 56 17 89 29 115 8 17 19 53 25 79 14 63 28 88 43 79 8 -4 8 -2 -1 9 -9 11 -10 18 -2 23 6 3 8 11 5 16 -4 5 -1 9 5 9 6 0 9 4 6 9 -4 5 -3 11 1 13 5 1 20 28 35 58 38 76 90 166 110 189 9 11 15 21 12 23 -2 2 10 19 26 37 17 18 30 36 30 41 0 5 6 13 13 17 6 4 25 25 40 46 16 20 32 35 37 32 5 -3 12 0 16 6 5 8 3 9 -7 4 -8 -5 2 7 21 27 32 32 76 62 92 63 3 0 9 3 13 7 4 4 14 4 23 1 14 -4 15 -3 2 5 -10 8 -18 8 -27 0 -8 -6 -13 -6 -13 -1 0 10 89 78 103 78 4 0 11 5 15 12 11 17 142 84 152 78 4 -3 10 2 13 9 3 8 25 20 49 27 24 7 49 17 56 23 10 7 16 5 23 -5 6 -10 9 -10 9 -1 0 6 9 12 19 12 11 0 23 5 26 10 4 6 15 8 26 5 10 -4 19 -2 19 4 0 20 163 19 187 -1z"/>
<path d="M3590 6860 c-6 -11 -15 -18 -21 -15 -5 4 -15 3 -21 -2 -7 -4 -20 -8 -28 -10 -22 -3 -159 -75 -180 -95 -11 -10 -23 -18 -29 -18 -5 0 -12 -7 -15 -16 -3 -9 -13 -14 -21 -11 -9 4 -12 1 -8 -9 3 -7 1 -14 -5 -14 -11 0 -125 -115 -131 -133 -2 -7 -7 -14 -10 -17 -4 -3 -24 -33 -46 -67 -22 -34 -44 -59 -49 -56 -5 4 -6 1 -3 -4 4 -6 -9 -44 -28 -85 -20 -41 -38 -85 -40 -99 -3 -13 -9 -35 -14 -49 -25 -68 -38 -143 -40 -233 -1 -29 -5 -46 -11 -42 -6 4 -10 -6 -9 -22 0 -15 3 -22 6 -15 10 25 20 1 16 -37 -3 -22 1 -49 7 -61 9 -16 9 -25 1 -33 -13 -13 -15 -30 -2 -23 15 10 30 -48 19 -69 -7 -12 -7 -16 0 -11 9 6 27 -21 24 -36 -1 -5 3 -8 10 -8 6 0 9 -3 5 -6 -3 -4 1 -20 9 -36 8 -16 12 -34 8 -40 -4 -7 -3 -8 4 -4 7 4 13 2 13 -3 1 -6 2 -15 3 -20 0 -5 5 -13 10 -18 5 -5 6 -3 2 5 -4 6 -3 12 3 12 13 0 32 -35 24 -43 -3 -4 0 -13 7 -22 8 -10 9 -15 1 -15 -6 0 -11 -5 -11 -12 0 -6 8 -4 19 6 17 16 19 16 25 0 3 -9 13 -14 21 -10 8 3 18 0 22 -7 12 -18 75 -60 90 -60 7 0 13 -5 13 -10 0 -6 3 -7 6 -4 4 3 16 1 28 -5 11 -7 32 -14 46 -15 14 -2 30 -11 36 -19 9 -11 13 -12 16 -3 3 8 10 9 23 2 11 -5 33 -9 48 -8 18 1 26 -2 23 -10 -2 -6 2 -12 10 -12 7 0 11 4 8 8 -5 8 58 27 86 26 8 0 30 3 49 8 26 5 32 4 26 -5 -5 -9 -4 -11 4 -6 6 4 9 11 7 15 -7 11 62 34 75 25 8 -4 9 -3 5 5 -5 7 5 17 27 26 18 7 39 21 47 29 7 9 18 16 24 16 7 0 56 45 110 99 126 129 136 139 136 149 0 5 9 17 20 27 11 10 20 24 20 31 0 7 4 14 8 16 10 4 65 118 88 186 10 28 22 52 26 52 5 0 8 12 8 26 0 14 7 54 16 88 19 70 21 352 4 374 -2 1 -4 7 -5 12 -1 6 -4 12 -5 15 -1 3 -3 8 -5 13 -1 4 -5 15 -9 24 -4 9 -9 23 -10 31 -1 8 -7 21 -14 29 -6 8 -9 18 -5 21 3 4 2 7 -3 7 -5 0 -18 17 -29 38 -11 20 -27 42 -35 49 -8 7 -12 13 -7 13 17 0 -88 99 -124 115 -21 10 -39 23 -39 28 0 6 -3 7 -7 4 -3 -4 -13 -1 -22 7 -37 31 -143 46 -331 46 -6 0 -8 5 -5 10 3 6 4 10 1 10 -3 0 -10 -9 -16 -20z m255 -164 c17 -9 35 -16 41 -16 20 0 64 -41 57 -53 -3 -7 -3 -9 2 -5 11 11 36 -12 28 -25 -3 -6 -1 -7 5 -3 11 6 32 -12 70 -59 11 -13 11 -19 0 -33 -12 -15 -11 -16 4 -4 19 15 22 11 42 -46 11 -30 12 -43 3 -51 -9 -9 -7 -10 7 -5 15 6 18 4 13 -9 -3 -9 -2 -19 3 -22 5 -3 10 -16 10 -28 0 -12 3 -46 6 -75 7 -58 -11 -208 -26 -227 -5 -6 -7 -15 -3 -18 3 -4 0 -13 -6 -21 -7 -8 -14 -25 -15 -38 -2 -13 -7 -32 -10 -43 -14 -38 -71 -150 -78 -153 -5 -2 -8 -10 -8 -18 0 -8 -4 -14 -10 -14 -5 0 -10 -5 -10 -11 0 -16 -93 -130 -138 -170 -58 -51 -101 -82 -132 -96 -8 -4 -18 -10 -21 -15 -3 -5 -14 -10 -25 -12 -10 -3 -27 -7 -37 -11 -14 -6 -16 -3 -11 11 3 11 -2 7 -11 -8 -12 -22 -24 -28 -53 -30 -102 -5 -149 -4 -172 4 -14 6 -36 12 -49 14 -13 3 -30 11 -38 19 -8 8 -20 15 -27 15 -17 0 -130 112 -131 130 0 3 -9 17 -19 32 -9 15 -19 35 -21 45 -2 10 -4 19 -5 21 -2 1 -3 5 -5 10 -1 4 -4 14 -8 22 -18 47 -27 273 -12 320 2 8 7 32 9 54 3 21 10 44 16 51 5 6 7 14 4 17 -3 4 4 24 15 46 11 22 17 42 14 46 -4 3 -1 6 5 6 7 0 12 7 12 15 0 8 16 39 35 69 19 30 35 60 35 66 0 5 4 10 9 10 5 0 12 9 16 19 3 11 41 55 85 98 91 91 101 99 135 115 14 6 25 15 25 20 0 5 5 6 10 3 6 -3 10 -1 10 4 0 6 3 10 8 9 4 -1 29 8 55 20 27 12 53 20 57 17 5 -3 11 -1 14 4 10 16 187 6 221 -13z"/>
<path d="M3552 6359 c-16 -3 -43 -16 -60 -28 -17 -11 -33 -21 -36 -21 -12 0 -82 -83 -101 -122 -12 -21 -23 -36 -26 -33 -3 3 -6 -1 -7 -7 0 -7 -4 -29 -7 -48 -17 -82 1 -240 26 -240 6 0 8 -4 4 -9 -3 -6 3 -15 14 -20 11 -6 22 -20 26 -31 4 -13 25 -25 63 -37 31 -10 58 -21 60 -24 1 -3 22 -3 45 2 23 4 45 5 49 3 3 -2 8 1 10 6 2 6 13 12 26 13 12 0 22 5 22 9 0 4 7 8 15 8 8 0 15 4 15 10 0 5 14 16 30 25 17 9 30 21 30 29 0 7 8 21 19 30 23 21 73 129 79 171 6 39 5 50 -2 110 -8 63 -15 85 -27 85 -6 0 -8 4 -5 9 3 5 -1 11 -9 15 -8 3 -15 12 -15 21 0 8 -5 15 -12 15 -6 0 -8 3 -4 7 6 6 -62 43 -94 50 -30 7 -98 8 -128 2z m101 -143 c28 -3 50 -43 43 -79 -4 -23 -3 -28 4 -17 8 13 10 13 10 -1 0 -9 -3 -31 -6 -49 -5 -22 -9 -28 -15 -18 -6 8 -6 0 -3 -19 4 -22 3 -33 -5 -33 -6 0 -11 -6 -11 -14 0 -20 -78 -99 -90 -91 -5 3 -10 1 -10 -4 0 -17 -31 -13 -54 7 -20 16 -20 16 -7 0 22 -28 5 -21 -28 13 -17 17 -29 34 -26 39 3 5 1 11 -5 15 -13 8 -13 57 1 92 24 59 32 72 42 66 6 -3 7 -1 3 6 -19 31 85 110 124 95 8 -4 23 -7 33 -8z"/>
<path d="M4105 4065 c-30 -29 -30 -37 -5 -93 10 -23 19 -44 20 -47 0 -5 13 -20 73 -86 17 -20 53 -52 78 -72 26 -19 59 -46 73 -58 15 -13 45 -34 67 -46 24 -12 35 -23 27 -26 -7 -3 0 -6 15 -6 15 -1 49 -12 75 -26 26 -14 55 -25 65 -25 14 0 17 -5 13 -16 -5 -13 -4 -14 7 -6 8 7 17 8 21 4 4 -4 12 -8 17 -8 5 -1 10 -3 12 -4 6 -7 95 -5 91 2 -3 4 -1 8 5 8 6 0 17 14 26 30 10 19 12 30 4 30 -6 0 -9 5 -7 12 5 13 -31 53 -39 44 -3 -3 -15 0 -27 6 -11 7 -24 11 -28 10 -14 -3 -108 49 -108 61 0 8 -3 8 -11 0 -9 -9 -15 -8 -26 3 -8 8 -23 14 -34 14 -11 0 -22 6 -25 14 -3 8 -19 20 -35 26 -16 7 -29 16 -29 21 0 5 -7 9 -15 9 -8 0 -19 9 -25 20 -6 11 -17 20 -24 20 -16 0 -101 89 -144 151 -45 66 -68 73 -107 34z"/>
</g>
</svg>
