<?xml version="1.0" standalone="no"?>
<!DOCTYPE svg PUBLIC "-//W3C//DTD SVG 20010904//EN" "http://www.w3.org/TR/2001/REC-SVG-20010904/DTD/svg10.dtd">
<svg xmlns="http://www.w3.org/2000/svg" version="1.0" width="1024.000000pt" height="1024.000000pt" viewBox="0 0 1024.000000 1024.000000" preserveAspectRatio="xMidYMid meet">
<metadata>
Created by potrace 1.16, written by Peter Selinger 2001-2019
<meta name="Producer" content="Online-Convert"/></metadata>
<g transform="translate(0.000000,1024.000000) scale(0.100000,-0.100000)" fill="#000000" stroke="none">
<path d="M5076 8575 c-9 -11 -21 -27 -26 -35 -6 -9 -10 -286 -10 -683 0 -717 1 -726 50 -742 27 -9 81 -13 75 -6 -3 2 3 13 12 24 17 18 18 66 18 717 0 660 -1 699 -18 718 -26 29 -79 33 -101 7z"/>
<path d="M2890 7933 c-19 -3 -44 -13 -56 -24 -11 -10 -23 -17 -25 -14 -12 11 5 -61 18 -82 8 -11 10 -23 6 -25 -4 -3 -3 -3 4 -2 13 3 46 -43 46 -63 0 -7 3 -11 5 -8 9 9 93 -115 86 -127 -4 -6 -3 -8 3 -5 13 8 96 -110 87 -125 -4 -6 -3 -8 4 -5 14 9 86 -89 76 -104 -4 -7 -3 -9 4 -6 6 4 31 -22 58 -60 26 -38 65 -91 86 -120 24 -31 37 -57 32 -64 -4 -7 -3 -9 3 -6 11 7 83 -83 87 -107 1 -9 6 -19 11 -23 4 -4 5 -1 0 7 -12 23 7 0 39 -45 27 -39 27 -39 2 -12 -14 15 -26 24 -26 18 0 -15 27 -39 66 -57 45 -22 81 -11 106 32 18 30 18 32 -6 77 -14 25 -21 49 -18 53 4 4 2 4 -4 1 -14 -8 -247 310 -239 324 4 5 1 8 -7 7 -7 -2 -12 5 -12 14 1 10 -2 16 -6 13 -12 -8 -33 23 -24 36 4 7 3 9 -4 5 -12 -7 -44 33 -36 46 3 5 1 7 -4 6 -15 -4 -74 81 -66 94 4 6 3 8 -3 5 -13 -8 -106 121 -97 135 4 6 3 8 -4 4 -11 -6 -125 149 -125 171 0 7 -4 10 -8 8 -9 -6 -30 20 -22 28 3 4 4 6 2 5 -2 0 -20 -3 -39 -5z"/>
<path d="M7264 7818 c-16 -12 -68 -75 -114 -141 -46 -65 -86 -114 -88 -108 -2 6 -8 11 -14 11 -7 0 -6 -5 1 -14 9 -11 3 -26 -29 -72 -23 -33 -46 -58 -52 -56 -5 1 -7 -1 -4 -6 7 -12 -62 -108 -75 -104 -6 1 -8 -2 -5 -7 4 -5 -48 -85 -114 -178 -123 -172 -138 -200 -124 -230 4 -10 6 -22 5 -28 -2 -5 1 -7 5 -3 4 4 12 4 18 -1 6 -4 23 -11 38 -15 35 -8 69 22 140 126 118 171 199 285 218 306 12 12 18 22 14 22 -3 0 -1 7 6 15 7 8 17 12 23 8 6 -3 7 -1 3 5 -4 7 46 88 119 192 107 153 126 185 123 212 -2 23 -12 38 -35 54 -18 12 -29 24 -26 28 12 12 -2 5 -33 -16z"/>
<path d="M5030 6783 c-246 -13 -436 -48 -707 -129 -46 -14 -89 -22 -95 -18 -7 4 -10 3 -5 -1 4 -5 -59 -36 -140 -70 -82 -33 -163 -68 -181 -77 -18 -10 -38 -16 -45 -14 -7 1 -8 1 -3 -2 14 -7 -135 -81 -153 -75 -11 3 -12 2 -3 -4 9 -7 2 -15 -25 -30 -21 -12 -83 -51 -137 -87 -54 -36 -103 -63 -109 -59 -6 3 -7 1 -3 -5 8 -13 -28 -35 -39 -24 -3 4 -5 2 -3 -4 4 -14 -162 -145 -174 -138 -5 3 -7 1 -6 -4 4 -13 -223 -213 -234 -206 -4 3 -7 0 -6 -8 2 -7 -3 -12 -10 -10 -6 1 -11 -2 -10 -7 5 -16 -123 -152 -135 -145 -7 4 -9 4 -5 0 4 -5 -9 -31 -28 -58 -19 -28 -34 -55 -34 -60 0 -5 9 -23 21 -39 11 -16 17 -34 13 -40 -4 -8 -3 -9 4 -5 8 4 43 -26 92 -77 44 -46 113 -117 155 -157 41 -40 72 -77 69 -82 -3 -5 -1 -7 4 -6 16 5 73 -42 66 -54 -4 -6 -3 -8 3 -5 12 8 85 -52 78 -64 -4 -5 0 -6 8 -4 12 5 52 -28 52 -44 0 -3 4 -5 8 -3 10 3 61 -38 66 -53 1 -5 5 -12 8 -15 4 -3 3 1 -1 8 -12 21 4 13 62 -31 31 -23 76 -55 100 -70 25 -16 40 -32 36 -39 -4 -6 -3 -8 4 -5 15 10 43 -3 35 -16 -3 -5 -1 -7 4 -4 6 4 48 -16 94 -44 46 -27 103 -60 126 -71 23 -12 40 -25 37 -29 -2 -4 1 -11 7 -15 8 -4 9 -3 5 4 -10 17 -10 17 120 -42 259 -117 597 -200 914 -224 145 -11 494 -4 540 11 37 13 172 28 192 22 17 -5 19 -4 9 3 -10 7 2 13 45 22 32 6 83 18 112 26 29 8 63 12 75 9 18 -5 19 -4 7 5 -12 10 -11 11 8 7 13 -3 21 -3 18 1 -8 7 199 84 231 86 11 0 19 5 15 10 -3 5 3 6 14 2 10 -4 15 -4 12 0 -9 8 271 146 282 139 5 -3 12 0 16 6 5 8 2 10 -7 5 -21 -10 12 12 113 76 50 32 95 55 101 51 6 -3 7 -1 3 5 -7 11 6 17 27 13 5 -1 6 3 2 9 -3 5 2 13 12 17 10 4 20 9 23 13 3 3 46 37 95 75 50 38 107 84 128 102 21 19 42 31 48 28 5 -4 8 -3 7 2 -4 12 183 183 194 177 5 -3 7 -2 6 3 -5 14 174 203 185 196 6 -3 7 -1 3 5 -4 7 6 29 23 49 43 54 39 65 -64 187 -31 36 -53 66 -48 67 4 0 -2 4 -15 10 -14 5 -20 13 -16 20 4 7 3 9 -3 6 -11 -7 -56 36 -48 46 3 4 2 5 -1 3 -9 -7 -240 204 -236 216 1 5 -2 7 -8 3 -6 -3 -34 13 -63 38 -28 24 -105 81 -169 126 -65 46 -115 88 -112 93 4 6 1 8 -7 6 -18 -7 -71 20 -64 31 2 5 -1 8 -8 7 -21 -2 -207 106 -200 117 3 6 1 7 -4 4 -15 -9 -174 64 -166 76 3 6 1 7 -5 3 -12 -7 -106 27 -97 36 4 3 1 9 -6 14 -8 5 -10 3 -4 -6 6 -9 4 -12 -6 -8 -8 3 -32 11 -54 19 -22 8 -43 18 -46 22 -3 5 -9 8 -13 7 -14 -4 -165 44 -160 51 2 4 -1 11 -7 15 -8 4 -9 3 -5 -4 5 -8 -1 -12 -14 -12 -12 0 -19 4 -16 9 3 4 -6 6 -19 3 -15 -2 -25 0 -25 7 0 7 -4 10 -9 6 -5 -3 -65 6 -133 19 -182 37 -434 58 -588 49z m223 -163 c12 0 16 -5 11 -12 -6 -10 -4 -10 7 0 16 15 33 16 24 2 -4 -7 2 -9 18 -5 58 15 319 -85 373 -142 15 -15 24 -22 20 -15 -10 17 87 -52 105 -75 12 -14 12 -16 0 -8 -10 5 -12 4 -7 -4 4 -6 12 -8 18 -5 5 3 32 -18 59 -47 36 -39 46 -55 36 -62 -8 -6 -7 -7 5 -4 20 7 43 -17 32 -34 -4 -7 -3 -9 4 -6 28 18 166 -241 201 -375 33 -128 45 -265 32 -372 -6 -52 -11 -100 -11 -108 0 -9 -2 -10 -8 -1 -4 6 -7 -8 -8 -31 -1 -53 -32 -146 -47 -142 -7 1 -9 1 -4 -1 12 -7 8 -31 -9 -47 -8 -9 -13 -16 -10 -16 13 0 -57 -126 -82 -149 -15 -13 -21 -20 -13 -16 8 5 0 -12 -17 -36 -44 -63 -203 -217 -209 -201 -3 6 -9 9 -15 6 -6 -4 -6 -9 2 -14 9 -5 -11 -24 -58 -55 -39 -26 -76 -44 -82 -40 -6 3 -9 1 -8 -5 4 -16 -170 -86 -262 -105 -113 -24 -275 -30 -380 -15 -49 7 -90 17 -90 22 0 5 -5 6 -11 3 -14 -9 -149 35 -149 48 0 6 -3 8 -6 4 -7 -6 -118 48 -167 81 -15 10 -24 22 -20 27 5 4 3 5 -3 2 -18 -10 -138 88 -128 104 2 4 -1 11 -7 15 -8 4 -9 3 -5 -4 15 -25 -5 -10 -44 32 -65 71 -112 135 -105 146 4 6 1 9 -7 8 -7 -2 -12 5 -12 14 1 10 -2 15 -7 13 -10 -7 -69 107 -93 178 -104 307 -78 637 71 907 64 116 183 257 206 244 7 -4 9 -3 4 1 -7 9 50 75 64 75 4 0 23 14 41 30 18 17 39 28 46 25 7 -3 10 0 7 5 -8 12 92 63 107 54 6 -4 8 -3 5 3 -4 6 23 21 61 36 142 54 290 79 427 71 44 -2 88 -4 98 -4z m-877 -103 c-35 -22 -182 -172 -224 -228 -23 -30 -64 -92 -90 -137 -27 -45 -51 -80 -53 -78 -2 3 -5 -5 -6 -17 -1 -12 -15 -60 -31 -107 -50 -141 -64 -228 -65 -400 0 -134 4 -171 27 -274 15 -66 39 -144 52 -174 13 -30 21 -58 18 -63 -3 -5 -1 -9 4 -9 5 0 14 -12 21 -27 7 -16 43 -73 79 -128 36 -55 66 -104 67 -110 0 -5 5 -10 10 -10 15 -1 160 -147 157 -157 -1 -5 2 -7 7 -3 11 6 51 -15 51 -26 0 -10 -124 30 -128 41 -2 5 -10 6 -19 3 -12 -5 -14 -3 -8 6 6 10 2 11 -15 6 -12 -4 -20 -3 -17 1 3 5 -7 10 -21 10 -53 2 -456 209 -507 260 -8 9 -15 13 -15 10 0 -6 -191 121 -200 133 -3 4 -22 20 -42 35 -21 16 -35 33 -31 40 3 6 3 8 -2 4 -11 -11 -47 11 -39 24 4 7 3 8 -4 4 -13 -8 -105 72 -97 84 3 4 -2 7 -10 6 -8 0 -53 37 -100 83 -62 62 -82 87 -73 94 9 6 7 7 -5 3 -13 -4 -33 10 -73 52 -30 31 -57 65 -60 74 -8 28 42 84 249 277 60 56 69 62 85 50 15 -12 16 -12 4 2 -11 15 -1 26 80 92 229 185 492 346 738 453 77 33 288 112 300 113 3 0 -3 -6 -14 -12z m1555 -8 c21 -7 36 -16 32 -22 -3 -6 -1 -7 5 -3 27 16 490 -198 484 -224 -1 -6 2 -9 8 -5 14 9 70 -26 63 -39 -3 -6 -3 -8 2 -4 12 11 85 -33 78 -46 -3 -6 -3 -8 2 -4 12 11 47 -11 39 -25 -4 -7 -4 -9 1 -5 4 4 17 2 29 -4 20 -11 144 -100 187 -135 24 -20 70 -62 55 -50 -6 4 -15 7 -21 7 -12 -1 25 -23 43 -26 21 -4 42 -25 35 -37 -3 -5 -1 -7 5 -3 6 3 48 -30 94 -75 46 -45 74 -75 63 -68 -18 13 -19 13 -6 -3 7 -10 17 -16 21 -13 12 7 70 -56 63 -68 -3 -6 -1 -7 5 -3 13 8 84 -73 75 -87 -3 -6 -1 -7 5 -3 21 13 25 -17 4 -34 -12 -10 -19 -20 -16 -22 5 -6 -220 -226 -334 -326 -46 -41 -88 -70 -94 -66 -6 4 -8 3 -5 -2 6 -10 -190 -160 -293 -225 -30 -20 -74 -48 -98 -63 -23 -15 -48 -24 -54 -20 -6 4 -8 3 -5 -2 7 -13 -201 -117 -215 -108 -7 5 -8 2 -3 -6 6 -10 4 -12 -9 -7 -9 4 -15 3 -12 -2 3 -5 -55 -32 -130 -60 -102 -39 -139 -49 -149 -41 -10 8 -15 8 -21 -1 -4 -8 -3 -9 4 -5 7 4 12 2 12 -3 0 -6 -7 -11 -15 -11 -26 0 -17 17 28 51 23 19 45 38 48 43 4 4 13 5 20 1 8 -5 11 -5 7 -1 -4 5 22 41 57 81 34 40 71 84 80 99 9 14 20 24 24 21 4 -2 8 2 8 9 0 23 44 86 55 80 7 -4 8 -2 4 4 -4 6 6 37 22 69 143 284 164 637 55 931 -19 54 -36 105 -36 114 -1 9 -3 15 -6 13 -7 -8 -91 147 -84 158 3 5 1 7 -5 3 -14 -8 -55 50 -46 65 4 7 3 9 -4 5 -5 -3 -25 13 -43 36 -19 24 -39 47 -46 51 -8 5 -11 13 -7 18 3 5 2 8 -3 7 -10 -3 -113 85 -113 96 0 8 7 8 51 -5z"/>
<path d="M5000 6259 c0 -6 -95 -30 -132 -32 -14 -1 -24 -5 -22 -8 2 -3 -15 -15 -39 -25 -59 -27 -150 -96 -210 -160 -120 -128 -176 -265 -186 -462 -3 -67 -4 -122 -1 -122 4 0 11 -26 18 -57 7 -32 24 -85 38 -118 15 -33 27 -68 27 -77 1 -9 5 -16 10 -15 5 1 12 -4 15 -12 3 -9 0 -11 -9 -6 -8 4 3 -7 24 -25 21 -17 36 -39 35 -48 -2 -10 2 -16 9 -15 6 1 17 -5 25 -14 11 -14 11 -16 -2 -8 -9 5 -12 5 -7 -1 5 -5 12 -9 17 -9 4 0 27 -15 51 -34 38 -31 40 -35 23 -42 -15 -7 -12 -8 11 -6 17 1 30 -3 30 -10 0 -6 4 -15 9 -20 5 -5 6 -3 2 5 -4 6 -5 12 -3 12 11 0 87 -47 82 -51 -2 -3 4 -5 13 -6 9 0 62 -13 117 -28 90 -24 111 -26 215 -21 90 4 130 11 185 32 39 14 80 27 92 28 11 0 19 4 17 8 -7 11 35 30 48 22 6 -4 8 -3 5 2 -3 5 25 34 62 64 37 29 82 73 101 96 19 24 38 40 44 37 5 -3 6 -1 2 5 -4 6 5 29 19 50 38 57 82 189 95 280 14 105 1 211 -40 322 -18 47 -32 93 -33 102 -1 9 -3 15 -5 13 -2 -2 -26 26 -54 63 -28 37 -69 84 -92 105 -22 21 -40 43 -38 48 1 6 -2 8 -8 4 -5 -3 -25 5 -43 19 -48 36 -156 84 -235 102 -63 15 -282 26 -282 13z m283 -170 c43 -13 67 -25 67 -34 0 -8 6 -12 13 -9 7 2 26 -2 42 -10 43 -23 136 -106 129 -117 -3 -5 0 -8 6 -7 21 5 88 -104 115 -185 20 -62 25 -97 26 -179 0 -65 -3 -104 -10 -106 -6 -2 -9 -8 -6 -13 7 -11 -15 -89 -25 -89 -4 0 -7 -8 -6 -17 0 -10 -5 -17 -12 -15 -8 1 -11 -2 -7 -8 10 -17 -51 -105 -116 -165 -102 -93 -241 -145 -392 -145 -31 0 -57 4 -57 10 0 5 -7 7 -15 3 -20 -7 -106 17 -99 28 3 5 -2 6 -10 3 -16 -6 -93 32 -136 67 -14 12 -19 17 -11 13 9 -5 12 -3 7 5 -4 6 -11 9 -16 6 -15 -9 -112 96 -105 114 3 8 3 12 -1 8 -18 -17 -92 139 -80 169 3 8 2 13 -3 10 -25 -16 -27 182 -3 274 19 73 88 204 103 194 5 -3 8 0 7 8 -2 7 3 12 10 10 8 -1 11 1 8 6 -7 12 68 83 123 117 58 36 111 54 201 70 89 15 160 11 253 -16z"/>
<path d="M7458 4022 c-14 -2 -47 -21 -71 -42 -24 -22 -48 -36 -52 -32 -5 4 -6 3 -3 -3 7 -12 -97 -98 -117 -98 -8 0 -12 -3 -10 -6 6 -11 -125 -92 -137 -85 -7 5 -8 3 -3 -6 6 -10 4 -12 -9 -7 -9 4 -15 3 -12 -2 7 -11 -125 -80 -142 -74 -7 3 -11 -1 -10 -8 4 -15 -189 -100 -215 -95 -9 2 -15 1 -13 -3 9 -14 -215 -77 -356 -101 -133 -22 -310 -30 -447 -20 -141 10 -411 54 -420 68 -3 5 -15 8 -26 9 -32 0 -215 63 -215 74 0 6 -4 8 -9 4 -6 -3 -72 23 -148 59 -182 85 -194 92 -185 101 4 5 2 5 -5 1 -15 -9 -84 24 -76 37 3 6 1 7 -6 3 -17 -11 -106 25 -89 36 9 6 7 7 -7 6 -31 -4 -155 33 -148 45 3 6 1 7 -5 3 -13 -8 -102 15 -102 27 0 4 -4 6 -9 3 -5 -3 -51 3 -102 13 -175 36 -281 44 -478 37 -264 -10 -265 -10 -271 -17 -7 -8 -191 -39 -200 -34 -5 3 -10 2 -12 -3 -1 -4 -48 -20 -103 -36 -55 -16 -153 -50 -218 -77 -66 -26 -126 -45 -135 -42 -13 4 -14 2 -4 -4 9 -7 -7 -19 -60 -42 -120 -53 -148 -75 -148 -117 0 -39 36 -84 68 -84 10 0 54 19 97 41 111 59 283 131 400 168 271 87 615 121 879 87 178 -23 381 -71 371 -87 -3 -4 0 -11 6 -15 8 -4 9 -3 5 4 -4 7 -3 12 3 12 33 0 334 -127 327 -139 -2 -3 8 -7 22 -8 14 0 32 -9 39 -19 8 -11 19 -19 26 -19 7 0 29 -6 51 -14 29 -10 35 -16 25 -23 -11 -8 -10 -9 3 -5 9 3 52 -9 95 -27 43 -18 110 -43 148 -56 39 -13 76 -30 83 -39 8 -9 11 -10 7 -3 -8 16 -5 16 105 -13 132 -35 255 -53 422 -63 237 -15 435 4 646 60 64 17 129 31 144 32 14 1 24 4 22 7 -2 4 20 14 48 24 29 9 101 39 162 66 60 27 113 46 119 42 5 -3 7 -2 4 4 -4 6 5 15 19 22 31 14 37 14 28 -1 -4 -7 -3 -8 5 -4 6 4 9 11 6 16 -3 5 9 17 27 26 50 25 248 157 293 195 115 97 145 131 145 165 0 42 -9 64 -25 64 -7 0 -15 3 -17 8 -1 4 -15 6 -30 4z"/>
<path d="M3765 3234 c-253 -37 -347 -60 -384 -95 -28 -26 -27 -64 4 -94 28 -29 43 -30 125 -9 34 8 68 13 75 10 8 -3 15 -1 17 5 5 16 227 36 348 32 63 -2 162 -13 220 -24 118 -24 349 -104 357 -125 3 -8 9 -11 14 -8 13 8 229 -108 222 -119 -3 -6 -1 -7 5 -3 6 3 58 -13 115 -38 57 -24 122 -50 145 -56 30 -10 39 -17 35 -29 -4 -13 -3 -13 5 -2 8 11 17 11 58 -2 355 -111 774 -136 1110 -67 30 6 62 9 70 6 8 -3 13 -2 10 3 -3 4 20 14 52 21 74 16 221 66 239 82 25 20 33 55 22 88 -6 16 -17 30 -25 30 -8 0 -14 4 -14 10 0 5 -7 6 -17 3 -11 -4 -14 -3 -9 5 4 7 -8 3 -26 -7 -47 -27 -172 -62 -194 -54 -11 4 -15 3 -11 -4 8 -13 -115 -38 -138 -29 -9 3 -14 2 -11 -3 23 -36 -496 -49 -689 -17 -131 21 -205 38 -205 45 0 3 -11 7 -24 7 -34 2 -226 63 -226 72 0 4 -12 9 -26 10 -39 3 -245 103 -237 115 3 6 1 7 -5 4 -15 -10 -43 3 -35 16 3 5 1 7 -5 4 -15 -10 -43 3 -35 16 3 5 1 7 -5 4 -13 -9 -137 49 -137 65 0 6 -7 13 -15 15 -13 4 -13 3 0 -7 13 -10 12 -11 -5 -6 -78 22 -244 85 -233 89 7 2 0 4 -17 4 -16 0 -70 7 -120 17 -87 16 -338 29 -400 20z"/>
</g>
</svg>
