<?xml version="1.0" standalone="no"?>
<!DOCTYPE svg PUBLIC "-//W3C//DTD SVG 20010904//EN"
 "http://www.w3.org/TR/2001/REC-SVG-20010904/DTD/svg10.dtd">
<svg version="1.0" xmlns="http://www.w3.org/2000/svg"
 width="1024.000000pt" height="1024.000000pt" viewBox="0 0 1024.000000 1024.000000"
 preserveAspectRatio="xMidYMid meet">
<metadata>
Created by potrace 1.16, written by Peter Selinger 2001-2019
</metadata>
<g transform="translate(0.000000,1024.000000) scale(0.100000,-0.100000)"
fill="#000000" stroke="none">
<path d="M7295 7470 c-3 -5 -32 -26 -63 -47 -31 -21 -128 -86 -215 -145 -87
-60 -163 -105 -169 -102 -6 4 -8 3 -4 -4 8 -13 -181 -145 -196 -136 -7 4 -8 3
-4 -4 4 -6 -44 -46 -119 -99 -133 -93 -432 -302 -578 -403 -49 -35 -92 -58
-99 -54 -7 4 -8 3 -4 -4 7 -12 -198 -158 -220 -156 -7 1 -12 -3 -11 -9 3 -13
-143 -118 -154 -111 -5 3 -8 1 -7 -4 3 -11 -24 -32 -206 -157 -71 -49 -135
-88 -142 -88 -7 0 -11 -4 -9 -8 3 -4 -6 -14 -20 -23 -27 -18 -39 -21 -31 -8 3
5 -1 9 -9 9 -10 0 -12 -4 -5 -12 10 -12 -36 -49 -237 -193 l-73 -52 -254 0
-254 0 -99 108 c-181 196 -195 212 -204 237 -2 6 -7 9 -10 8 -7 -2 -69 62
-224 232 -55 60 -134 146 -176 190 -41 44 -108 116 -149 160 -157 172 -214
226 -235 223 -44 -6 -28 -42 71 -153 54 -61 126 -140 161 -177 58 -61 87 -103
45 -65 -10 10 -22 14 -25 10 -10 -10 -8 -33 3 -33 5 0 7 8 3 18 -6 16 -5 16
14 -1 11 -9 22 -15 25 -12 2 3 33 -25 67 -61 55 -57 61 -67 49 -82 -11 -15
-11 -15 3 -5 13 11 19 10 33 -6 15 -17 16 -77 16 -719 l-1 -701 -72 -29 c-40
-17 -146 -58 -237 -92 -202 -76 -222 -86 -218 -108 4 -24 43 -27 93 -8 23 9
51 14 61 10 13 -4 15 -3 6 3 -8 7 28 24 117 57 72 27 132 47 134 45 2 -2 11 2
19 8 26 22 98 44 98 30 0 -7 -73 -50 -162 -95 -359 -184 -359 -184 -356 -206
2 -13 12 -22 24 -24 13 -2 115 43 235 104 118 58 224 110 237 115 l23 9 -2
-183 -1 -183 -106 -114 c-86 -94 -399 -425 -427 -452 -14 -13 5 -58 24 -58 12
0 87 71 193 182 95 100 205 216 245 257 l72 76 1 -54 c0 -56 -34 -136 -53
-124 -6 3 -7 1 -3 -5 8 -13 -143 -244 -155 -236 -5 3 -6 -1 -4 -8 3 -8 -31
-67 -75 -131 -80 -117 -91 -147 -56 -160 20 -8 47 15 87 74 61 91 286 434 465
710 27 42 119 183 204 312 l155 236 266 1 265 0 55 -33 c162 -98 289 -180 284
-185 -2 -3 -11 1 -20 8 -8 7 -15 9 -15 5 0 -5 -10 0 -21 11 -22 19 -22 19 -8
-4 15 -24 51 -38 69 -27 14 9 82 -34 74 -47 -4 -6 -2 -8 4 -4 6 3 52 -21 104
-53 97 -63 121 -77 333 -208 72 -44 254 -158 405 -253 151 -95 397 -247 545
-338 149 -91 317 -195 375 -230 290 -180 325 -194 325 -131 0 20 -29 41 -190
138 -235 141 -568 344 -870 531 -126 79 -270 168 -320 198 -94 58 -337 213
-367 234 -15 11 -18 29 -18 124 0 81 4 114 13 117 9 4 9 6 -1 6 -10 1 -12 143
-12 712 1 604 3 710 15 705 10 -3 12 0 8 12 -3 9 -3 14 1 11 4 -4 19 5 33 19
22 22 26 23 34 9 5 -9 16 -14 24 -11 8 4 12 10 9 15 -3 5 -10 7 -15 4 -5 -4
-9 -1 -9 5 0 12 28 25 37 17 3 -3 2 -32 -2 -64 -5 -42 -10 -53 -15 -38 -4 11
-3 28 2 38 5 11 5 17 -2 17 -5 0 -10 -5 -10 -12 0 -6 -7 -4 -18 5 -10 10 -22
14 -25 10 -13 -12 -7 -23 13 -23 14 0 21 -9 26 -35 3 -19 10 -32 15 -29 5 3 9
4 10 2 1 -2 3 -312 5 -690 4 -603 2 -688 -11 -701 -16 -17 -21 -42 -6 -33 5 3
11 -1 15 -9 7 -19 2 -19 -33 0 -27 13 -29 13 -39 -9 -5 -13 -7 -28 -3 -34 8
-13 226 -122 474 -236 104 -48 216 -100 250 -116 34 -15 130 -60 212 -98 83
-38 318 -149 524 -246 205 -97 381 -176 391 -176 22 0 43 24 38 46 -2 10 -80
51 -220 116 -120 55 -216 104 -213 108 3 5 0 12 -6 16 -8 4 -9 3 -5 -4 13 -21
-10 -13 -129 43 -65 30 -118 55 -120 55 -3 0 -61 27 -260 120 -49 23 -157 73
-240 110 -233 104 -242 110 -251 141 -8 23 -11 25 -22 13 -11 -12 -10 -14 3
-14 8 0 15 -4 15 -10 0 -6 -9 -6 -24 0 -40 15 -191 92 -196 100 -3 4 -14 10
-25 13 -14 3 -11 5 10 6 17 0 37 -5 44 -11 11 -10 13 -10 7 0 -9 16 -6 16 60
-9 44 -17 55 -25 51 -39 -3 -13 0 -17 9 -13 8 3 11 9 8 14 -8 13 -3 12 77 -22
41 -17 88 -37 104 -44 17 -6 68 -28 115 -48 47 -19 85 -40 85 -45 0 -6 4 -14
9 -19 5 -5 6 -3 2 5 -4 6 -4 12 1 12 13 0 86 -27 149 -55 32 -14 121 -51 197
-81 77 -30 153 -62 170 -69 18 -8 111 -46 207 -85 96 -39 212 -87 258 -107
109 -45 135 -53 155 -41 24 13 21 45 -5 60 -13 7 -86 37 -163 68 l-140 56 -3
1020 -2 1021 62 19 c35 10 88 28 118 41 47 19 55 26 58 51 3 25 -1 30 -22 34
-14 3 -27 2 -28 -2 -3 -8 -163 -60 -181 -59 -7 0 -2 4 11 9 25 10 29 35 8 43
-10 4 -16 -2 -20 -16 -4 -19 -4 -19 -3 2 2 22 15 29 127 68 129 45 167 69 157
97 -12 30 -33 27 -156 -17 l-121 -44 0 339 c0 344 0 345 35 338 6 -1 7 2 2 6
-12 12 80 65 100 58 12 -4 14 -3 6 3 -8 6 9 21 55 48 47 28 68 47 70 63 4 25
-13 52 -32 52 -14 0 -199 -109 -393 -232 -83 -52 -147 -87 -154 -82 -7 4 -9 3
-6 -4 9 -14 -166 -124 -186 -116 -8 3 -18 1 -22 -5 -4 -7 1 -8 12 -4 34 12 -1
-15 -112 -85 -60 -38 -136 -86 -169 -107 -32 -20 -55 -32 -52 -26 4 6 2 11 -3
11 -6 0 -11 -7 -11 -15 0 -17 -36 -39 -50 -30 -6 4 -9 1 -8 -5 3 -13 -158
-120 -179 -120 -7 0 -13 -4 -13 -9 0 -5 -17 -19 -37 -32 -21 -12 -62 -38 -92
-57 -82 -53 -180 -102 -204 -102 -22 1 -22 1 -2 12 11 6 23 16 27 22 5 8 8 7
8 -1 0 -7 5 -13 11 -13 6 0 9 7 6 15 -7 18 287 230 304 219 8 -4 9 -3 5 4 -11
19 32 36 52 20 15 -11 15 -11 5 3 -20 26 5 44 30 21 19 -16 20 -16 8 5 -6 12
-7 24 -2 27 5 3 12 -5 15 -19 5 -21 10 -24 24 -16 10 5 18 19 19 31 2 17 -2
20 -20 15 -21 -6 -21 -5 -3 9 10 9 23 13 28 10 5 -3 7 -1 6 4 -3 9 263 206
314 233 11 6 65 43 121 83 56 39 129 89 162 110 33 21 88 57 123 81 35 25 69
42 77 39 8 -4 15 -1 15 6 0 6 -5 8 -12 4 -7 -5 -8 -3 -4 5 5 7 15 10 23 7 8
-3 12 -2 9 3 -3 5 77 63 178 130 101 66 186 128 190 137 14 36 -49 86 -69 54z
m-275 -844 l0 -324 -40 -16 c-22 -9 -45 -16 -50 -16 -6 0 -10 114 -10 310 l0
310 47 30 c26 17 48 30 50 30 2 0 3 -146 3 -324z m-180 -94 l0 -299 -24 -11
c-89 -40 -238 -92 -247 -86 -7 4 -9 3 -5 -4 3 -6 -9 -15 -31 -23 -21 -6 -81
-29 -135 -50 -53 -22 -102 -39 -110 -39 -12 0 -15 37 -15 230 0 198 2 232 16
244 39 34 284 176 293 170 6 -4 8 -2 5 4 -4 6 14 23 42 41 34 20 51 26 55 18
2 -7 5 -5 5 4 1 9 15 22 31 29 17 7 47 26 67 41 20 16 40 29 44 29 5 0 9 -134
9 -298z m-650 -547 c-6 -7 -20 -15 -30 -18 -19 -5 -20 1 -20 219 0 184 2 224
14 224 7 0 20 7 27 17 12 14 14 -16 17 -207 1 -145 -1 -227 -8 -235z m-121
158 l2 -208 -28 -14 c-71 -34 -256 -100 -266 -94 -6 3 -7 1 -3 -5 4 -7 2 -12
-4 -12 -7 0 -10 58 -10 179 1 155 3 180 17 186 9 3 19 1 22 -4 4 -6 12 -6 21
-1 13 8 12 10 -3 10 -10 0 -15 5 -12 11 4 6 14 8 22 5 8 -3 12 -2 9 3 -6 10
80 64 101 64 7 0 11 3 8 5 -7 8 87 62 97 56 4 -3 8 2 8 10 0 9 4 16 9 16 5 0
9 -93 10 -207z m-379 -178 l0 -194 -29 -15 c-22 -12 -30 -13 -33 -3 -1 6 -2
96 0 198 l3 186 27 10 c15 6 28 11 30 12 1 1 2 -87 2 -194z m-2016 142 c4 -16
11 -25 17 -21 8 4 7 10 0 17 -6 6 -11 15 -11 19 0 5 15 -8 32 -29 18 -21 59
-67 90 -102 l58 -64 0 -497 c0 -465 -1 -498 -17 -503 -10 -2 -55 -19 -100 -36
l-83 -30 1 647 c0 356 2 643 4 637 2 -5 6 -23 9 -38z m3166 18 c0 -17 -8 -29
-22 -35 -38 -16 -422 -152 -443 -157 -11 -2 -29 -8 -40 -13 -40 -17 -56 -20
-50 -10 3 6 12 10 18 10 7 0 23 10 37 21 l25 21 -27 -16 c-31 -18 -38 -20 -38
-7 0 5 20 16 45 24 38 13 45 14 45 2 0 -9 6 -12 15 -9 11 5 12 10 6 18 -8 9 0
16 27 25 54 19 194 72 217 82 50 21 171 68 178 68 4 1 7 -10 7 -24z m180
-1050 c0 -547 -2 -995 -5 -995 -4 0 -26 9 -51 20 l-44 20 0 960 0 960 27 11
c18 7 30 6 37 -1 7 -7 5 -10 -7 -10 -9 0 -17 -7 -17 -16 0 -14 3 -14 15 -4 8
7 15 9 15 4 0 -5 4 -2 10 6 5 9 5 19 -2 27 -8 10 -6 13 6 13 14 0 16 -89 16
-995z m-182 2 c2 -882 1 -927 -15 -918 -10 5 -54 24 -98 41 -44 17 -98 39
-120 49 -22 10 -101 42 -175 71 -74 30 -141 58 -147 63 -10 7 -13 164 -13 722
l0 712 68 26 c176 68 305 107 319 96 10 -9 12 -9 8 2 -4 10 16 21 72 40 43 14
83 25 88 24 7 -1 11 -321 13 -928z m-2820 680 l61 -68 1 -438 0 -439 -71 -108
c-39 -60 -74 -112 -78 -116 -3 -4 -5 58 -3 137 2 113 6 145 16 145 8 0 17 7
20 16 3 8 10 13 14 10 12 -7 9 41 -2 51 -5 4 -6 2 -2 -4 5 -9 -1 -12 -18 -11
l-26 2 0 459 c0 377 2 456 13 445 7 -7 41 -44 75 -81z m2184 -652 c2 -377 0
-685 -4 -685 -17 0 -37 13 -32 21 3 5 -2 6 -10 3 -14 -6 -16 62 -16 664 l0
671 23 4 c12 2 25 5 29 6 4 0 9 -307 10 -684z m-135 -632 c-9 -8 -66 20 -60
30 3 5 1 7 -4 4 -6 -4 -63 14 -127 39 l-116 47 0 509 c0 312 4 507 9 503 5 -3
13 0 17 6 4 7 3 9 -3 6 -6 -4 -14 0 -17 8 -6 17 -4 19 124 60 47 15 99 33 115
40 17 7 37 15 45 17 13 4 15 -71 18 -630 1 -349 1 -637 -1 -639z m-377 668 l0
-539 -30 -4 c-17 -3 -34 0 -37 5 -3 6 -2 8 3 5 13 -8 54 9 54 22 0 7 -12 10
-27 8 l-28 -3 -2 517 c-2 468 -1 517 14 522 9 4 19 3 22 0 3 -4 0 -9 -6 -11
-19 -7 -16 -19 5 -19 14 0 17 6 14 25 -3 16 -1 22 7 17 8 -5 11 -152 11 -545z
m-1514 399 c4 0 4 11 2 25 -3 14 -1 28 3 31 8 5 10 -40 11 -331 1 -361 -1
-402 -22 -408 -20 -5 -20 -1 -20 240 1 204 3 242 14 227 11 -15 13 1 13 97 0
63 -3 103 -7 89 -4 -14 -5 -53 -4 -87 2 -34 -1 -65 -6 -68 -6 -4 -10 42 -9
122 1 97 3 120 10 96 5 -18 12 -33 15 -33z m442 53 c30 -4 42 -10 41 -22 0
-10 -2 -12 -6 -3 -2 6 -12 12 -21 11 -11 0 -12 -2 -4 -6 6 -2 12 -13 12 -24 0
-10 5 -19 10 -19 6 0 10 -7 10 -16 0 -8 -4 -12 -10 -9 -6 4 -10 -7 -10 -25 0
-18 4 -29 10 -25 6 3 10 1 10 -4 0 -6 -4 -11 -10 -11 -5 0 -10 -19 -9 -42 0
-33 2 -38 9 -23 5 12 9 -89 9 -247 l1 -268 -37 -1 c-21 -1 -111 -3 -200 -4
l-163 -3 0 373 0 373 158 0 c86 0 176 -2 200 -5z m700 -85 c1 -33 -1 -39 -9
-28 -7 10 -9 11 -7 2 6 -22 23 -15 26 10 7 47 18 37 12 -11 -3 -27 -2 -60 3
-73 11 -29 6 -718 -5 -718 -9 0 -11 10 -8 63 1 20 -2 37 -7 37 -5 0 -7 -16 -5
-35 3 -27 1 -35 -12 -35 -15 0 -16 37 -16 409 1 310 4 411 13 415 7 2 12 5 13
5 0 1 1 -18 2 -41z m-91 -371 l2 -387 -29 15 -30 16 0 319 c0 278 2 320 15
320 8 0 15 5 15 10 0 6 -4 10 -9 10 -6 0 -11 15 -13 33 -3 32 16 60 37 53 6
-2 11 -142 12 -389z m-455 -250 c7 -8 26 -17 41 -21 15 -3 27 -11 27 -16 0 -6
-10 -6 -27 1 -15 6 -24 7 -20 3 4 -4 2 -13 -5 -21 -9 -11 -8 -13 3 -11 8 2 13
-3 11 -12 -3 -12 -1 -13 10 -2 11 11 10 14 -2 22 -13 8 -13 10 1 10 9 0 19 -9
22 -20 4 -15 14 -20 36 -20 17 0 31 4 31 9 0 5 9 7 21 4 11 -3 18 -11 15 -18
-3 -8 2 -11 15 -8 11 3 36 -6 59 -21 22 -14 42 -26 45 -26 3 0 34 -14 70 -31
49 -23 65 -36 66 -52 1 -16 2 -18 6 -5 2 10 10 15 19 11 7 -3 11 -10 7 -16 -3
-5 -1 -7 5 -3 6 3 29 -3 51 -15 36 -18 39 -23 31 -45 -7 -19 -6 -24 5 -24 14
0 19 12 16 33 0 4 3 7 7 7 4 0 8 -31 9 -70 0 -38 -2 -68 -6 -66 -63 32 -179
111 -174 119 3 6 1 7 -5 3 -13 -8 -298 168 -295 183 2 6 -3 8 -10 5 -20 -7
-127 67 -127 88 0 10 6 18 13 18 8 0 7 4 -3 10 -13 8 -13 10 2 10 9 0 23 -6
30 -13z m-953 -463 c-23 -35 -46 -61 -52 -57 -6 3 -7 1 -3 -5 4 -6 -15 -44
-42 -84 -27 -40 -52 -80 -55 -88 -3 -8 -6 102 -6 246 l-1 261 98 46 97 46 3
-151 3 -151 -42 -63z"/>
</g>
</svg>
