<?xml version="1.0" standalone="no"?>
<!DOCTYPE svg PUBLIC "-//W3C//DTD SVG 20010904//EN"
 "http://www.w3.org/TR/2001/REC-SVG-20010904/DTD/svg10.dtd">
<svg version="1.0" xmlns="http://www.w3.org/2000/svg"
 width="1024.000000pt" height="1024.000000pt" viewBox="0 0 1024.000000 1024.000000"
 preserveAspectRatio="xMidYMid meet">
<metadata>
Created by potrace 1.16, written by Peter Selinger 2001-2019
</metadata>
<g transform="translate(0.000000,1024.000000) scale(0.100000,-0.100000)"
fill="#000000" stroke="none">
<path d="M5225 7720 c-69 -12 -91 -26 -298 -188 -111 -87 -240 -187 -287 -222
-47 -36 -177 -137 -290 -225 -113 -88 -217 -169 -231 -180 -27 -20 -131 -100
-415 -317 -293 -225 -342 -266 -367 -310 -45 -78 -45 -81 -82 -528 -8 -96 -17
-195 -20 -220 -2 -25 -7 -76 -10 -115 -7 -100 -23 -284 -40 -475 -38 -425 -30
-590 35 -721 68 -135 87 -150 536 -452 487 -326 674 -433 894 -507 206 -70
400 -64 560 18 41 21 178 109 304 196 126 88 363 247 525 354 163 107 346 228
407 268 195 128 261 222 314 444 57 237 89 375 120 510 17 74 41 180 54 235
14 55 43 179 65 275 22 96 59 252 80 345 72 308 73 358 8 458 -33 49 -189 184
-437 380 -74 58 -205 161 -290 228 -85 68 -191 151 -235 185 -44 35 -161 127
-260 204 -312 245 -412 317 -467 338 -64 23 -120 30 -173 22z m23 -152 c6 -35
13 -92 17 -128 4 -36 17 -159 30 -275 13 -115 36 -322 51 -459 l26 -250 -89
-85 c-49 -47 -199 -189 -333 -316 -134 -126 -285 -269 -335 -317 l-91 -87
-200 144 c-109 79 -323 233 -475 342 -152 109 -276 203 -276 211 0 15 64 70
197 170 52 40 120 91 150 114 56 44 490 380 789 611 485 375 473 366 489 367
7 0 11 4 8 9 -6 10 14 21 25 15 4 -2 12 -32 17 -66z m147 31 c21 -12 75 -49
119 -83 343 -265 435 -337 641 -501 89 -71 220 -175 290 -230 232 -182 515
-415 515 -425 0 -5 -26 -17 -57 -25 -32 -9 -139 -43 -238 -75 -99 -32 -288
-93 -420 -136 l-239 -77 -33 19 c-30 17 -440 312 -490 352 -23 18 -21 6 -53
322 -5 58 -15 150 -20 205 -5 55 -17 161 -25 235 -24 208 -45 403 -45 423 0
22 7 22 55 -4z m355 -1494 c30 -22 88 -62 128 -88 56 -37 72 -53 72 -72 0 -13
-23 -108 -51 -212 -28 -103 -63 -235 -79 -293 -61 -228 -173 -632 -210 -760
-21 -74 -60 -211 -85 -305 -85 -312 -195 -699 -236 -827 -35 -109 -46 -132
-76 -159 -74 -64 -198 -95 -342 -84 -240 18 -465 135 -1130 582 -276 185 -311
210 -311 223 0 6 118 158 163 210 42 48 384 480 634 801 373 478 335 437 773
849 96 90 226 214 289 276 l114 111 146 -105 c80 -58 171 -124 201 -147z
m-2251 171 c9 -8 99 -74 201 -147 434 -311 724 -524 739 -543 14 -16 -5 -43
-220 -316 -54 -69 -181 -231 -282 -360 -177 -228 -359 -455 -440 -552 -22 -26
-44 -45 -50 -41 -6 3 -7 1 -3 -5 8 -13 -72 -122 -89 -122 -19 0 -64 85 -84
160 -34 122 -30 258 29 905 11 121 27 310 35 420 35 451 45 507 101 580 29 38
40 42 63 21z m3537 -21 c-3 -8 0 -16 7 -18 13 -4 -8 -124 -69 -377 -59 -249
-235 -1003 -244 -1045 -35 -170 -94 -374 -122 -427 -50 -93 -139 -165 -513
-411 -187 -122 -425 -280 -529 -350 -104 -70 -191 -126 -193 -123 -3 2 0 13 6
23 9 18 132 444 211 733 17 63 56 201 85 305 29 105 68 242 85 305 38 139 55
201 121 435 28 99 59 212 69 250 10 39 36 138 58 220 22 83 43 162 46 178 4
15 11 27 18 27 11 0 56 14 518 160 476 151 459 147 446 115z"/>
</g>
</svg>
