<?xml version="1.0" standalone="no"?>
<!DOCTYPE svg PUBLIC "-//W3C//DTD SVG 20010904//EN"
 "http://www.w3.org/TR/2001/REC-SVG-20010904/DTD/svg10.dtd">
<svg version="1.0" xmlns="http://www.w3.org/2000/svg"
 width="1024.000000pt" height="1024.000000pt" viewBox="0 0 1024.000000 1024.000000"
 preserveAspectRatio="xMidYMid meet">
<metadata>
Created by potrace 1.16, written by Peter Selinger 2001-2019
</metadata>
<g transform="translate(0.000000,1024.000000) scale(0.100000,-0.100000)"
fill="#000000" stroke="none">
<path d="M5063 8470 c-23 -5 -51 -14 -63 -20 -11 -6 -26 -8 -33 -4 -6 4 -9 4
-5 -1 8 -8 -102 -102 -115 -97 -5 1 -6 -1 -3 -6 8 -13 -424 -453 -437 -445 -5
3 -7 2 -4 -4 6 -9 -59 -81 -69 -75 -2 1 -4 -1 -4 -5 -1 -16 -154 -162 -163
-156 -6 3 -7 2 -4 -4 6 -9 -59 -81 -69 -75 -2 1 -4 -1 -4 -5 -1 -16 -64 -72
-73 -66 -6 3 -7 2 -4 -4 6 -10 -149 -170 -160 -165 -4 1 -8 -3 -9 -11 -2 -17
-134 -143 -146 -139 -5 1 -7 -1 -4 -6 5 -8 -150 -169 -159 -164 -3 1 -4 0 -2
-3 5 -9 -77 -84 -86 -78 -6 3 -7 2 -4 -4 8 -13 -67 -86 -78 -76 -4 5 -6 3 -2
-2 3 -6 -37 -58 -90 -115 -96 -106 -188 -233 -199 -277 -3 -12 -9 -21 -13 -19
-3 2 -7 -6 -7 -17 -1 -12 -7 -53 -14 -91 -9 -53 -9 -122 0 -306 6 -130 11
-272 10 -316 0 -43 2 -108 4 -144 4 -52 25 -601 25 -660 1 -8 7 -150 15 -315
8 -165 19 -424 26 -575 12 -313 28 -663 34 -730 2 -25 1 -37 -1 -27 -7 27 -21
20 -15 -8 2 -14 11 -25 18 -25 8 0 14 -4 14 -10 0 -5 -4 -10 -10 -10 -5 0 -7
-7 -3 -16 4 -10 8 -12 12 -5 4 6 21 -18 38 -53 35 -71 124 -181 296 -365 64
-69 113 -129 110 -135 -3 -5 -1 -6 4 -3 6 4 32 -17 59 -46 26 -28 81 -87 121
-130 41 -42 71 -82 68 -87 -4 -6 -1 -9 7 -8 7 2 12 -3 10 -10 -1 -8 2 -11 7
-8 14 9 130 -120 127 -141 -2 -10 -1 -12 1 -5 4 11 9 10 24 -4 10 -9 16 -21
12 -27 -3 -5 -1 -7 4 -4 13 8 46 -27 36 -38 -5 -4 -3 -5 3 -2 13 7 151 -142
146 -158 -2 -5 0 -7 3 -3 11 10 96 -62 88 -75 -4 -6 -1 -7 6 -3 7 5 20 1 29
-7 45 -40 185 -94 272 -105 30 -4 159 -7 285 -7 259 0 307 8 431 70 100 51
153 102 309 295 77 96 141 167 147 163 7 -3 8 -1 4 5 -9 15 313 414 327 405 5
-3 7 -1 4 4 -8 13 150 209 164 205 6 -1 8 2 5 6 -8 14 65 103 78 95 6 -3 8 -3
4 2 -9 10 52 96 64 89 5 -3 7 -1 6 4 -5 16 222 293 234 286 6 -4 8 -2 4 4 -3
6 12 36 34 68 79 113 81 121 235 1184 52 352 214 1477 224 1541 10 74 -2 180
-28 250 -54 143 -182 289 -796 908 -258 260 -469 477 -468 482 2 5 -1 8 -6 6
-5 -1 -142 129 -304 290 -162 160 -310 299 -328 309 -37 19 -125 44 -149 43
-8 -1 -34 -5 -57 -9z m148 -286 c49 -48 86 -92 82 -97 -3 -6 -1 -7 4 -4 13 8
109 -90 105 -106 -2 -7 0 -9 4 -4 10 10 85 -63 77 -76 -3 -6 -2 -7 4 -4 10 7
300 -273 295 -285 -1 -5 4 -7 11 -5 6 1 11 -6 11 -15 -1 -10 2 -16 6 -13 11 7
131 -115 124 -126 -3 -5 1 -6 8 -4 18 7 270 -253 261 -268 -3 -7 -2 -9 2 -4
12 10 86 -63 78 -77 -3 -6 -2 -8 2 -3 10 9 56 -32 49 -44 -3 -5 2 -6 10 -3 15
6 21 -6 16 -31 -1 -5 2 -6 6 -2 10 10 165 -144 157 -156 -3 -6 -2 -7 4 -4 5 3
31 -15 56 -41 l47 -48 -30 -29 c-16 -16 -30 -25 -30 -19 0 5 -5 1 -11 -9 -9
-15 -13 -16 -27 -5 -15 11 -15 11 -4 -3 11 -15 7 -21 -28 -49 -22 -17 -48 -33
-58 -34 -9 -2 -17 -8 -17 -15 0 -17 -85 -82 -98 -74 -5 3 -7 2 -4 -4 4 -6 -33
-41 -81 -79 -48 -37 -113 -90 -144 -116 -31 -27 -62 -47 -69 -46 -7 2 -13 -2
-14 -9 0 -6 -72 -68 -160 -137 -88 -69 -167 -133 -176 -141 -19 -18 -33 -20
-23 -3 4 7 3 8 -5 4 -6 -4 -9 -11 -6 -16 3 -5 -18 -26 -46 -48 -36 -27 -58
-38 -75 -34 -13 2 -21 8 -18 13 3 5 -1 6 -9 3 -7 -2 -114 23 -238 57 -123 34
-233 64 -244 67 -11 3 -24 11 -28 19 -4 7 -13 13 -20 13 -8 0 -6 -4 3 -11 11
-8 5 -9 -25 -4 -53 9 -78 23 -71 41 3 8 2 13 -2 10 -5 -3 -40 82 -80 187 -39
106 -110 295 -157 420 -47 126 -82 233 -79 239 4 6 3 8 -2 5 -13 -8 -67 139
-58 155 4 7 3 9 -1 5 -5 -4 -22 25 -37 65 -65 168 -109 298 -106 312 3 14 755
776 766 776 3 0 44 -39 93 -86z m-1027 -926 c10 -29 21 -59 24 -67 4 -10 1
-12 -9 -7 -8 4 -6 1 4 -7 26 -22 128 -293 122 -326 -4 -17 -3 -20 2 -9 6 13
26 -30 71 -152 35 -93 60 -175 56 -181 -4 -7 -3 -9 3 -6 6 4 22 -26 38 -71 16
-42 30 -83 33 -91 4 -10 1 -12 -9 -7 -8 4 -6 1 4 -7 20 -16 130 -294 122 -307
-3 -5 0 -10 7 -12 8 -3 0 -31 -26 -91 -22 -47 -42 -84 -47 -82 -4 3 -11 0 -15
-6 -4 -8 -3 -9 4 -5 19 12 14 -4 -29 -96 -23 -48 -46 -85 -52 -81 -6 3 -7 1
-3 -6 9 -14 -3 -53 -14 -46 -5 3 -12 0 -16 -6 -4 -8 -3 -9 4 -5 17 10 15 3
-10 -49 -12 -25 -29 -45 -37 -45 -12 0 -13 -2 -3 -8 9 -6 -20 -77 -116 -283
-71 -151 -162 -345 -202 -431 -41 -87 -78 -158 -82 -158 -5 0 -7 -4 -3 -9 7
-13 -66 -161 -77 -155 -4 3 -5 -1 -2 -9 5 -13 -49 -134 -65 -147 -3 -3 -6 -10
-6 -16 0 -21 -128 -283 -136 -278 -5 3 -6 -3 -2 -12 4 -12 3 -15 -5 -10 -7 4
-10 2 -6 -7 6 -17 -91 -218 -102 -209 -4 4 -4 2 0 -5 4 -7 -5 -34 -19 -60 -14
-26 -24 -40 -21 -30 4 11 2 16 -5 12 -6 -4 -8 -14 -4 -23 7 -19 -154 -364
-166 -356 -5 3 -9 10 -9 15 0 6 4 8 9 5 5 -3 11 3 14 13 3 13 1 18 -8 14 -17
-6 -23 37 -30 242 -3 88 -8 196 -10 240 -6 111 -13 271 -30 695 -24 584 -35
848 -40 960 -12 254 -20 528 -20 690 l0 175 34 63 c37 67 197 246 212 236 5
-3 8 -1 7 5 -3 9 629 658 642 660 3 1 14 -23 24 -51z m2675 -746 c126 -151
131 -178 86 -484 -19 -128 -71 -489 -116 -803 -55 -383 -86 -574 -95 -581 -8
-6 -14 -20 -13 -30 0 -18 1 -18 9 1 7 16 9 17 9 3 1 -9 -3 -19 -9 -23 -5 -3
-7 -12 -4 -20 7 -18 -66 -519 -76 -523 -4 -2 -6 -11 -3 -21 3 -10 -7 -94 -22
-187 -27 -173 -55 -262 -76 -248 -7 4 -9 3 -6 -3 9 -14 -121 -176 -133 -168
-6 3 -8 0 -5 -7 2 -7 -14 -33 -36 -58 -22 -25 -37 -36 -33 -25 4 11 4 17 0 14
-4 -4 -9 -16 -11 -28 -5 -26 -54 -87 -67 -83 -5 1 -7 -1 -4 -6 6 -10 -212
-282 -226 -282 -7 0 -8 14 -5 35 3 20 2 33 -2 31 -4 -3 -13 41 -19 97 -19 172
-89 777 -147 1275 -30 260 -55 480 -55 488 0 9 5 13 13 9 6 -4 5 -1 -3 7 -12
10 -26 100 -58 383 -23 204 -42 388 -42 410 0 33 6 44 34 67 22 18 42 26 53
22 13 -4 14 -3 5 4 -10 6 38 50 182 165 108 87 198 157 201 157 4 0 3 -5 -1
-12 -4 -7 -3 -8 5 -4 6 4 9 11 6 16 -6 10 70 72 79 63 3 -3 6 -1 6 6 0 7 5 9
12 5 6 -4 8 -3 4 4 -7 12 63 74 76 66 5 -3 7 -1 6 4 -4 14 122 113 135 105 5
-3 7 -1 4 4 -8 12 107 105 118 95 3 -4 5 -2 3 4 -3 11 142 136 154 131 3 -1
34 -35 67 -75z m-1756 -737 c128 -36 261 -73 296 -83 43 -12 67 -25 72 -38 5
-10 19 -116 33 -234 14 -118 44 -366 66 -550 23 -184 39 -345 37 -357 -2 -13
-1 -23 3 -23 4 0 12 -51 19 -112 7 -62 15 -133 18 -158 5 -43 5 -44 -12 -25
-13 16 -12 11 4 -20 14 -30 25 -93 41 -243 12 -111 19 -209 16 -218 -3 -8 -2
-13 2 -10 10 6 36 -229 28 -243 -4 -5 -2 -11 2 -13 12 -4 65 -490 56 -512 -5
-12 -4 -17 3 -13 6 4 14 -39 21 -110 12 -107 11 -117 -6 -147 -11 -17 -24 -30
-31 -28 -6 1 -10 -2 -9 -8 4 -14 -242 -321 -253 -315 -5 4 -7 0 -4 -7 6 -18
-177 -233 -198 -232 -9 1 -15 -3 -14 -10 1 -6 -6 -10 -15 -10 -10 1 -16 -3
-15 -10 1 -6 -27 -21 -63 -33 -59 -20 -85 -22 -284 -22 -246 0 -324 11 -398
58 -64 41 -119 92 -111 104 3 5 1 7 -4 4 -12 -7 -569 588 -565 603 1 6 -3 9
-8 8 -12 -4 -268 270 -276 294 -8 26 418 935 436 931 5 -2 7 3 4 10 -7 19 196
448 209 440 6 -3 7 -1 3 6 -10 15 257 582 267 567 4 -6 6 -3 5 9 -3 24 112
276 122 270 4 -3 8 1 7 8 -1 34 4 48 15 41 6 -4 8 -3 4 4 -3 6 34 97 83 204
122 267 133 288 149 288 7 0 118 -29 245 -65z"/>
</g>
</svg>
