<?xml version="1.0" standalone="no"?>
<!DOCTYPE svg PUBLIC "-//W3C//DTD SVG 20010904//EN" "http://www.w3.org/TR/2001/REC-SVG-20010904/DTD/svg10.dtd">
<svg xmlns="http://www.w3.org/2000/svg" version="1.0" width="1024.000000pt" height="1024.000000pt" viewBox="0 0 1024.000000 1024.000000" preserveAspectRatio="xMidYMid meet">
<metadata>
Created by potrace 1.16, written by Peter Selinger 2001-2019
<meta name="Producer" content="Online-Convert"/></metadata>
<g transform="translate(0.000000,1024.000000) scale(0.100000,-0.100000)" fill="#000000" stroke="none">
<path d="M2218 7956 c-15 -8 -29 -12 -32 -9 -3 4 -6 -175 -5 -397 0 -221 3 -400 6 -396 4 3 14 -1 22 -9 11 -9 44 -15 96 -17 l80 -3 3 -1485 c1 -912 6 -1488 11 -1493 6 -6 7 -23 4 -38 -3 -18 -1 -29 5 -29 6 0 9 9 7 19 -2 14 1 18 11 14 7 -3 12 -9 9 -13 -3 -5 0 -12 6 -16 8 -4 9 -3 5 4 -5 9 648 12 2667 12 2644 0 2675 0 2699 20 14 10 28 17 31 14 3 -3 5 1 4 8 0 7 1 683 1 1501 l2 1488 94 -3 c52 -2 93 -1 90 1 -2 2 4 13 13 24 16 17 18 55 23 397 3 208 3 378 0 377 -3 -1 -16 8 -30 21 l-24 22 -2885 0 c-2452 0 -2890 -2 -2913 -14z m5672 -406 l0 -250 -2770 0 -2770 0 0 250 0 250 2770 0 2770 0 0 -250z m-4493 -437 c-3 -10 -11 -48 -17 -85 -7 -37 -16 -66 -20 -63 -5 3 -6 -3 -3 -13 11 -42 -103 -412 -122 -395 -4 5 -5 3 -2 -3 10 -17 -13 -75 -26 -67 -5 3 -7 1 -4 -4 13 -21 -108 -257 -126 -246 -6 3 -7 1 -3 -5 9 -15 -63 -123 -77 -115 -5 3 -7 2 -4 -4 9 -14 -22 -55 -35 -47 -6 4 -8 2 -4 -4 9 -14 -43 -74 -57 -65 -7 3 -9 2 -4 -2 9 -10 -52 -77 -64 -69 -4 2 -11 -1 -15 -7 -5 -8 -2 -10 7 -5 36 20 -73 -68 -125 -101 -52 -32 -61 -35 -80 -23 -19 12 -20 12 -7 -3 7 -10 10 -17 5 -17 -5 0 -19 -3 -31 -6 l-23 -6 0 686 0 686 421 0 c395 0 420 -1 416 -17z m953 10 c0 -24 -75 -201 -83 -196 -6 3 -7 1 -3 -6 9 -15 -74 -190 -147 -307 -102 -164 -241 -339 -261 -327 -6 3 -8 2 -3 -2 10 -11 -93 -116 -106 -108 -6 3 -7 1 -3 -5 16 -26 -337 -274 -366 -256 -6 4 -8 3 -5 -3 15 -25 -354 -169 -403 -158 -20 4 -22 3 -10 -5 12 -9 8 -11 -17 -8 -18 3 -30 1 -27 -4 3 -4 -7 -8 -22 -8 -31 0 -31 0 40 59 27 22 54 37 59 34 6 -3 7 -1 4 4 -7 12 16 36 26 28 4 -3 5 -2 2 1 -2 4 23 38 56 78 34 39 91 117 129 173 38 56 72 98 76 95 4 -4 4 -2 1 4 -9 16 87 207 98 197 4 -5 5 -2 1 5 -4 7 -4 22 -1 33 6 17 9 19 16 8 6 -9 7 -4 3 15 -5 22 -4 27 6 21 8 -5 11 -4 7 2 -9 14 57 205 68 196 4 -4 5 -2 1 5 -11 18 13 114 27 105 6 -3 7 -1 3 6 -6 9 15 139 50 309 l4 22 390 0 c215 0 390 -3 390 -7z m1361 -20 c6 -16 12 -40 13 -55 0 -14 4 -24 7 -23 9 6 31 -64 23 -76 -4 -8 -3 -9 4 -5 7 4 12 2 12 -4 0 -6 21 -56 46 -110 25 -55 42 -105 38 -111 -4 -7 -3 -9 2 -6 6 3 21 -15 34 -41 13 -26 46 -82 73 -124 27 -43 46 -82 42 -88 -4 -6 -2 -9 3 -8 14 4 113 -138 104 -147 -4 -5 -2 -5 4 -2 7 4 20 -5 30 -21 9 -15 70 -81 133 -146 64 -66 111 -116 104 -112 -6 3 -14 2 -17 -3 -4 -5 2 -8 11 -6 21 3 74 -32 70 -47 -1 -6 6 -12 15 -13 23 -4 109 -66 103 -75 -2 -4 1 -7 8 -7 7 0 59 -29 117 -64 58 -35 151 -84 207 -108 56 -25 99 -49 96 -55 -3 -5 -1 -6 5 -2 12 7 193 -44 187 -54 -2 -3 11 -5 29 -6 18 0 40 -3 50 -7 17 -7 16 -9 -8 -28 -14 -11 -31 -17 -38 -13 -8 5 -6 9 7 14 18 6 18 7 -2 12 -21 6 -25 -5 -11 -28 4 -6 -9 -26 -28 -45 -47 -45 -145 -175 -179 -238 -15 -28 -32 -48 -38 -44 -6 3 -7 1 -4 -4 11 -18 -56 -150 -73 -146 -12 4 -13 3 -1 -5 11 -8 9 -22 -13 -83 -57 -160 -95 -356 -121 -631 l-7 -68 -1629 0 -1629 0 0 30 c0 61 -41 347 -65 449 -13 58 -38 148 -55 199 -17 52 -27 99 -24 105 4 7 4 9 -1 5 -10 -9 -116 202 -108 216 3 5 1 6 -5 3 -5 -4 -22 14 -38 40 -15 27 -73 94 -129 151 l-102 102 71 20 c39 12 116 36 170 55 55 19 104 31 109 28 6 -3 7 -2 4 4 -3 5 28 25 70 43 158 70 371 212 504 337 36 35 69 59 73 55 4 -4 6 -2 4 4 -2 6 31 50 72 98 149 174 270 363 356 557 27 59 51 106 54 104 3 -2 6 4 6 13 0 9 18 68 39 130 l39 112 583 0 583 0 11 -27z m963 0 c3 -16 8 -48 11 -73 4 -25 18 -96 31 -158 21 -95 23 -116 12 -130 -11 -15 -11 -16 4 -4 14 11 17 9 23 -17 3 -17 3 -36 -1 -42 -4 -7 -3 -9 3 -6 5 3 17 -19 27 -51 53 -172 192 -449 296 -587 49 -66 57 -82 47 -94 -10 -13 -10 -14 3 -5 12 9 30 -3 94 -69 43 -44 74 -77 68 -73 -5 3 -16 -2 -23 -12 -12 -15 -12 -16 1 -6 22 17 50 9 78 -22 l25 -27 -39 7 c-75 13 -254 69 -248 77 3 5 -1 6 -9 4 -18 -7 -99 29 -89 40 4 5 1 5 -6 1 -31 -18 -318 156 -457 277 -94 82 -185 180 -178 191 4 5 1 6 -5 2 -19 -11 -191 224 -285 391 -58 101 -177 378 -177 410 0 1 177 3 394 3 l394 0 6 -27z m1006 -658 c0 -475 -3 -685 -11 -685 -5 0 -8 4 -5 9 4 5 -2 7 -12 5 -37 -10 -301 173 -286 198 4 6 2 8 -4 4 -25 -15 -183 202 -280 384 -62 116 -135 297 -128 317 3 8 2 12 -3 9 -11 -7 -64 181 -58 205 3 10 2 17 -3 14 -11 -7 -22 61 -15 88 4 15 3 18 -3 8 -7 -9 -11 1 -16 35 -4 27 -10 59 -13 72 l-5 22 421 0 421 0 0 -685z m-5082 -901 c27 9 74 -3 65 -17 -3 -5 -1 -7 4 -4 23 14 188 -76 176 -95 -3 -6 -2 -8 4 -5 14 9 117 -86 173 -160 60 -79 154 -259 146 -279 -3 -8 -2 -12 4 -9 25 16 122 -375 135 -545 3 -47 8 -102 11 -122 l6 -38 -381 0 -381 0 0 648 c0 365 4 641 9 633 5 -8 16 -11 29 -7z m5082 -629 l0 -645 -381 0 -382 0 7 88 c14 172 73 461 91 445 4 -5 5 -2 1 5 -10 17 34 153 47 145 6 -3 7 -1 3 6 -10 16 3 53 16 45 6 -4 8 -2 4 4 -12 19 80 195 97 185 6 -3 7 -2 4 4 -9 14 42 85 55 77 7 -4 8 -2 4 5 -19 31 227 231 289 235 13 0 21 4 19 8 -3 4 8 10 23 14 15 3 42 10 58 14 17 5 33 9 38 9 4 1 7 -289 7 -644z"/>
<path d="M3284 3772 c-198 -70 -321 -273 -284 -469 7 -37 13 -78 14 -90 0 -12 3 -19 5 -17 3 2 17 -19 33 -48 21 -39 25 -54 16 -59 -8 -5 -16 -2 -20 9 -5 14 -7 13 -7 -5 -1 -25 2 -27 27 -14 13 7 24 3 44 -14 l26 -23 -40 -16 c-23 -8 -46 -13 -52 -9 -6 3 -8 3 -4 -1 4 -5 -26 -30 -65 -56 -40 -27 -98 -75 -129 -108 -32 -33 -60 -57 -64 -53 -4 3 -4 1 -1 -5 4 -7 -2 -23 -12 -36 -31 -39 -77 -137 -101 -213 -30 -97 -39 -264 -16 -300 9 -14 23 -25 31 -25 8 0 15 -4 15 -10 0 -5 5 -10 11 -10 5 0 7 5 3 12 -4 6 -3 8 4 4 6 -3 23 -1 39 6 15 6 32 10 36 9 5 -1 6 2 4 6 -7 12 20 228 33 268 6 19 15 33 20 30 4 -3 6 5 2 17 -4 16 -2 19 8 13 8 -5 11 -4 7 3 -10 15 3 43 16 35 6 -3 7 -1 3 5 -9 15 12 54 24 47 6 -3 7 0 5 7 -7 18 99 133 114 123 7 -3 10 -1 9 6 -5 20 118 86 201 108 56 15 107 21 184 21 111 0 211 -15 202 -31 -4 -5 1 -6 9 -3 26 10 145 -57 214 -121 68 -63 146 -179 137 -203 -3 -7 -1 -10 5 -7 15 9 48 -115 55 -213 4 -51 12 -95 16 -98 5 -3 7 -9 5 -13 -3 -4 7 -8 21 -9 14 -1 33 -8 41 -15 13 -9 14 -9 8 1 -5 8 -1 12 12 12 39 0 60 40 64 122 2 42 0 75 -3 73 -9 -6 -31 124 -23 137 4 6 3 8 -3 5 -12 -7 -35 61 -26 77 3 6 2 8 -2 3 -5 -4 -23 20 -41 53 -47 88 -110 166 -182 225 -55 46 -151 101 -206 119 -16 6 -13 12 24 52 46 50 87 129 96 187 4 23 10 34 14 26 4 -6 6 10 4 37 -19 213 -95 339 -249 415 -64 31 -78 34 -175 37 -81 2 -116 -2 -156 -16z m277 -183 c55 -38 113 -114 105 -142 -2 -9 -1 -15 4 -12 4 3 10 -5 14 -18 23 -86 -25 -207 -108 -269 -54 -40 -82 -48 -165 -48 -188 1 -304 206 -217 383 30 63 107 130 139 123 9 -2 15 0 12 4 -8 14 25 19 98 16 58 -3 75 -8 118 -37z"/>
<path d="M4976 3770 c-113 -40 -196 -116 -250 -229 -29 -62 -31 -73 -31 -176 0 -104 2 -114 33 -180 18 -38 49 -86 68 -106 l35 -36 -76 -36 c-42 -20 -103 -57 -135 -83 -66 -52 -160 -164 -194 -233 -59 -118 -91 -265 -82 -379 6 -86 7 -88 23 -90 50 -6 95 -3 106 7 8 6 17 7 21 3 4 -4 7 -2 5 3 -6 23 14 194 22 189 5 -3 6 9 2 27 -5 25 -3 30 7 24 9 -5 11 -4 6 4 -4 6 -2 28 4 49 18 55 82 162 93 155 6 -3 7 -1 3 5 -4 6 19 37 53 71 63 63 197 139 226 127 9 -3 14 -2 11 3 -3 5 18 13 47 19 38 7 54 7 59 -1 6 -9 8 -9 8 1 0 17 158 16 239 -3 168 -40 318 -159 391 -309 25 -50 40 -95 37 -106 -3 -11 -2 -18 3 -15 10 6 20 -43 27 -143 5 -73 9 -85 31 -103 15 -11 33 -17 44 -14 11 4 18 1 18 -7 0 -8 3 -9 8 -3 4 6 19 18 35 28 19 13 27 26 27 47 0 16 5 32 10 35 6 3 10 17 10 31 0 14 -4 22 -10 19 -6 -4 -10 8 -10 28 0 19 -10 69 -21 113 -12 43 -22 89 -23 101 -1 12 -3 19 -5 17 -2 -2 -22 28 -43 68 -22 39 -48 82 -58 96 -11 13 -17 29 -13 35 3 5 2 7 -4 4 -12 -8 -106 87 -96 97 5 4 3 6 -3 4 -6 -2 -34 12 -62 30 -28 18 -76 44 -107 58 l-57 25 42 45 c23 25 54 71 68 102 23 51 26 69 27 172 0 107 -2 119 -30 175 -16 33 -29 65 -28 72 0 7 -3 11 -7 10 -4 -1 -20 14 -36 33 -16 19 -21 29 -12 22 11 -9 18 -10 23 -2 4 6 3 10 -2 9 -4 -1 -11 0 -15 1 -5 1 -11 3 -15 4 -5 1 -30 16 -57 34 -28 18 -54 32 -59 32 -4 0 -5 4 -2 10 4 6 -1 7 -11 3 -10 -3 -15 -2 -12 3 7 11 -3 12 -142 19 -90 5 -113 2 -164 -15z m268 -174 c53 -31 109 -93 102 -113 -3 -8 -2 -12 3 -9 14 9 31 -52 31 -113 -1 -91 -50 -176 -134 -229 -55 -35 -174 -43 -230 -17 -51 24 -110 81 -100 96 4 8 3 9 -4 5 -42 -26 -66 193 -29 263 31 57 101 119 154 135 67 22 152 15 207 -18z"/>
<path d="M6703 3781 c-18 -5 -58 -21 -90 -37 -32 -16 -61 -27 -65 -26 -5 1 -7 -1 -6 -5 2 -5 -16 -28 -39 -52 -149 -152 -155 -421 -14 -573 l40 -44 -87 -45 c-101 -51 -212 -150 -277 -246 -23 -35 -45 -60 -50 -55 -5 4 -5 2 -2 -5 10 -16 -3 -44 -16 -36 -6 3 -7 1 -3 -5 4 -6 0 -26 -8 -45 -26 -63 -47 -181 -48 -265 -1 -70 3 -87 19 -103 24 -24 83 -28 116 -6 21 14 25 25 31 102 9 120 21 167 66 260 41 86 115 179 132 168 6 -3 8 -1 4 5 -15 25 143 113 246 137 74 17 288 21 288 4 0 -5 5 -7 11 -4 14 9 100 -15 93 -26 -3 -5 2 -6 10 -3 39 15 269 -156 251 -186 -4 -6 -1 -9 6 -8 17 4 102 -160 96 -184 -3 -10 -2 -16 3 -13 10 6 30 -106 30 -168 0 -65 32 -101 86 -98 62 4 63 4 62 10 -2 18 3 32 10 28 4 -3 4 43 0 101 -12 198 -76 355 -198 486 -33 35 -56 66 -52 70 4 4 2 6 -3 5 -16 -5 -56 21 -50 32 4 5 3 9 -2 8 -21 -4 -34 2 -27 13 4 6 3 8 -3 5 -6 -4 -26 2 -46 12 -20 10 -55 26 -77 35 l-41 16 35 35 c40 39 81 107 91 147 4 16 10 26 14 24 3 -2 7 36 9 85 4 100 -13 176 -56 249 -15 25 -27 52 -27 60 0 8 -5 15 -10 15 -19 0 -35 16 -29 28 4 7 4 9 -1 5 -5 -5 -23 4 -42 18 -74 56 -141 78 -248 81 -55 1 -114 -2 -132 -6z m190 -162 c21 -5 35 -14 32 -19 -3 -6 0 -7 8 -4 17 6 90 -54 81 -67 -3 -5 0 -8 6 -7 24 6 55 -74 59 -151 2 -58 1 -72 -9 -66 -9 5 -11 4 -6 -4 23 -36 -62 -147 -139 -182 -49 -23 -136 -24 -196 -4 -56 19 -122 72 -115 92 3 8 1 11 -4 8 -6 -4 -20 15 -31 41 -27 61 -23 168 9 230 56 110 186 167 305 133z"/>
</g>
</svg>
