<?xml version="1.0" standalone="no"?>
<!DOCTYPE svg PUBLIC "-//W3C//DTD SVG 20010904//EN"
 "http://www.w3.org/TR/2001/REC-SVG-20010904/DTD/svg10.dtd">
<svg version="1.0" xmlns="http://www.w3.org/2000/svg"
 width="1024.000000pt" height="1024.000000pt" viewBox="0 0 1024.000000 1024.000000"
 preserveAspectRatio="xMidYMid meet">
<metadata>
Created by potrace 1.16, written by Peter Selinger 2001-2019
</metadata>
<g transform="translate(0.000000,1024.000000) scale(0.100000,-0.100000)"
fill="#000000" stroke="none">
<path d="M2535 7476 c-16 -12 -18 -18 -9 -33 11 -17 57 -18 973 -21 l961 -2 0
-478 c0 -291 4 -483 10 -492 5 -8 10 -10 10 -4 0 6 11 10 24 9 l25 -3 0 501
c1 306 -3 508 -9 517 -14 22 -1955 28 -1985 6z"/>
<path d="M6170 7396 c-30 -7 -82 -26 -115 -43 -58 -30 -155 -111 -155 -130 0
-6 -9 -18 -19 -27 -28 -26 -61 -138 -68 -232 -5 -68 -2 -92 17 -150 13 -38 30
-79 38 -91 8 -13 11 -23 7 -23 -4 0 3 -10 16 -23 13 -13 40 -41 59 -63 19 -22
60 -53 90 -70 30 -16 57 -31 60 -34 3 -3 14 -6 25 -8 11 -2 40 -7 65 -12 144
-28 285 10 391 105 75 67 149 193 149 252 0 12 6 24 13 26 6 3 7 6 1 6 -6 1
-9 14 -6 33 6 38 -18 198 -30 198 -4 0 -8 6 -8 13 0 6 -13 32 -30 56 -119 181
-304 261 -500 217z m77 -73 c-15 -56 -17 -78 -7 -109 7 -19 15 -34 20 -34 29
0 35 13 35 80 l0 70 45 -3 c25 -3 72 -19 105 -36 62 -33 180 -145 170 -161 -4
-6 -2 -10 3 -10 12 0 41 -64 48 -109 6 -38 6 -38 -32 -44 -22 -4 -54 -7 -71
-7 -31 0 -32 -1 -21 -25 6 -13 14 -22 19 -20 4 3 10 1 13 -4 3 -5 27 -6 52 -3
l47 5 -5 -41 c-6 -44 -46 -132 -60 -132 -5 0 -7 -4 -4 -9 3 -5 -18 -33 -48
-63 -55 -55 -130 -99 -172 -102 -13 0 -24 -4 -24 -8 0 -17 -40 -7 -40 10 -1
16 -1 16 -11 0 -11 -20 -31 -24 -24 -5 2 6 6 33 9 60 3 39 1 49 -15 57 -26 15
-48 -31 -39 -83 4 -21 4 -40 0 -42 -14 -9 -99 18 -155 50 -68 38 -135 111
-168 182 -11 27 -22 51 -23 56 -1 4 -3 8 -4 10 -1 1 -4 22 -5 47 -3 44 -3 44
15 22 13 -15 29 -22 52 -21 36 0 122 16 99 18 -10 1 -11 4 -2 15 10 12 8 16
-11 22 -13 4 -39 9 -58 10 -19 1 -37 3 -40 4 -3 1 -17 1 -31 0 -22 -1 -26 3
-26 29 0 17 4 28 9 25 4 -3 8 6 8 20 0 35 59 142 100 182 44 43 120 84 185
100 67 17 67 17 62 -3z"/>
<path d="M6063 7154 c-15 -14 -23 -23 -17 -20 6 3 21 -8 33 -24 18 -25 20 -34
11 -53 -10 -19 -9 -20 3 -5 12 15 15 15 32 -8 10 -14 29 -37 42 -52 13 -15 37
-43 53 -63 l30 -37 -35 -23 c-19 -13 -35 -27 -35 -31 0 -13 10 -9 45 17 35 28
53 33 137 40 71 6 83 9 101 24 14 11 14 14 -1 32 -14 16 -30 19 -98 19 l-81 0
-39 43 c-21 24 -48 56 -59 71 -36 50 -77 96 -86 96 -4 0 -21 -12 -36 -26z"/>
<path d="M2673 7307 c-4 -12 -6 -113 -4 -224 2 -129 -1 -203 -7 -203 -6 0 -7
-15 0 -42 5 -24 8 -99 5 -168 -2 -69 -2 -133 1 -142 4 -17 53 -18 844 -18 609
0 842 3 851 11 16 16 12 776 -5 796 -9 11 -159 13 -844 13 l-833 -1 -8 -22z
m837 -387 l0 -340 -390 0 -390 0 0 340 0 340 390 0 390 0 0 -340z m792 148 c2
-106 2 -259 0 -340 l-3 -148 -354 0 -355 0 0 340 0 340 355 0 354 0 3 -192z"/>
<path d="M6984 7152 c-7 -11 -10 -96 -8 -227 1 -115 2 -370 3 -566 l1 -355
128 -3 c139 -2 151 2 148 49 -1 25 -1 25 -88 22 -47 -2 -94 -1 -105 2 -20 6
-19 -15 -14 834 l1 192 319 0 c297 0 318 -1 318 -17 0 -10 1 -132 2 -271 1
-252 1 -253 24 -261 45 -17 47 -7 47 284 0 150 -3 287 -6 304 l-7 31 -376 0
c-344 -1 -378 -2 -387 -18z"/>
<path d="M7320 7039 c0 -10 -49 -27 -97 -34 -23 -4 -47 -13 -54 -21 -17 -21
-24 -380 -8 -411 11 -21 17 -21 206 -23 175 -1 197 1 208 17 9 12 13 71 14
208 1 223 -4 242 -61 237 -20 -2 -38 0 -41 5 -3 4 -28 8 -56 7 -49 -1 -69 10
-33 19 9 2 -4 4 -30 3 -27 0 -48 -3 -48 -7z m198 -257 l3 -163 -150 2 c-147 1
-151 1 -150 22 0 12 0 74 0 137 -1 135 1 152 14 163 6 4 71 6 145 5 l135 -3 3
-163z"/>
<path d="M7640 6436 c-13 -13 -26 -14 -207 -16 -149 -2 -151 -2 -157 -25 -3
-13 -6 -146 -6 -297 -1 -247 1 -274 17 -285 13 -10 99 -13 347 -14 361 -1 357
-2 371 12 11 11 24 594 13 611 -3 7 -60 13 -135 15 -70 2 -151 5 -180 7 -29 1
-57 -2 -63 -8z m318 -323 l2 -242 -45 -7 c-38 -5 -521 1 -562 7 -8 2 -11 67
-10 237 l2 235 133 2 c116 3 132 1 133 -14 1 -13 2 -13 6 2 4 14 8 15 18 7 7
-6 35 -13 61 -16 39 -5 53 -2 68 13 16 15 35 18 105 18 l86 0 3 -242z"/>
<path d="M2538 6359 c-24 -13 -23 -36 1 -49 27 -14 1955 -14 1981 0 20 11 17
38 -4 52 -18 12 -1958 9 -1978 -3z"/>
<path d="M5923 6102 l-172 -2 -5 -33 c-15 -102 -15 -125 2 -144 9 -11 24 -18
32 -15 9 3 7 -2 -5 -13 -11 -9 -15 -14 -8 -11 6 4 14 2 18 -3 10 -18 -35 -32
-98 -31 -62 2 -187 -5 -302 -14 -57 -5 -139 -9 -485 -21 -85 -4 -166 -8 -180
-10 -49 -9 -689 -36 -720 -31 -36 5 -53 16 -26 16 9 0 14 5 11 10 -3 6 -2 10
2 10 5 0 7 33 5 72 -3 52 -9 76 -21 85 -18 14 -347 19 -368 5 -43 -27 -44
-174 -2 -187 16 -5 19 -16 19 -74 l0 -68 -52 -36 c-29 -20 -79 -54 -110 -77
-32 -22 -62 -40 -68 -40 -5 0 -10 -4 -10 -8 0 -9 -133 -103 -162 -114 -10 -4
-18 -11 -18 -16 0 -11 -105 -82 -120 -82 -5 0 -10 -4 -10 -10 0 -5 -7 -10 -15
-10 -8 0 -15 -4 -15 -8 0 -5 -48 -42 -106 -83 -58 -41 -143 -102 -190 -136
-46 -35 -84 -61 -84 -58 0 2 -12 -7 -26 -20 -15 -14 -33 -25 -40 -25 -8 0 -14
-4 -14 -10 0 -5 -15 -17 -32 -26 -18 -10 -37 -22 -43 -29 -24 -27 -87 -66
-100 -61 -8 3 -12 0 -10 -7 3 -7 -33 -38 -78 -70 -95 -65 -144 -112 -128 -121
5 -4 8 -13 4 -21 -7 -20 14 -19 34 0 12 12 18 13 29 4 11 -9 13 -9 9 2 -3 9
14 27 47 49 29 19 63 43 75 53 12 11 26 16 32 13 6 -4 9 -1 6 6 -7 20 85 78
115 72 20 -4 21 -3 6 4 -17 7 -2 22 100 94 131 93 164 113 165 101 0 -4 4 2 9
13 5 12 22 28 39 35 17 8 31 17 31 20 0 10 52 42 67 42 7 0 11 2 8 5 -6 6 77
72 91 72 7 0 15 7 18 16 4 10 14 14 26 11 11 -3 18 -1 15 3 -9 15 87 82 109
76 14 -4 16 -2 8 6 -9 9 1 20 38 45 27 18 54 33 60 33 5 0 10 3 10 8 0 4 10
13 21 21 18 11 23 11 31 -1 8 -10 9 -9 5 4 -4 12 10 27 51 55 31 21 65 46 76
56 19 16 32 21 49 18 5 -1 6 3 3 8 -3 5 5 16 19 25 25 16 25 16 25 -16 -1 -35
-29 -59 -183 -160 -32 -21 -68 -47 -79 -58 -12 -11 -26 -20 -30 -20 -5 0 -18
-9 -30 -20 -12 -11 -39 -28 -60 -39 -22 -10 -39 -22 -38 -25 2 -14 -105 -86
-120 -81 -8 4 -11 3 -8 -1 7 -7 -70 -74 -85 -74 -4 0 -20 -13 -36 -28 -17 -15
-42 -34 -58 -42 -33 -18 -33 -17 -103 -73 -30 -24 -82 -62 -115 -85 -33 -22
-71 -50 -85 -61 -14 -11 -30 -21 -37 -21 -6 0 -14 -6 -16 -12 -4 -10 -8 -9
-17 2 -10 13 -11 13 -7 -2 3 -9 -3 -24 -14 -34 -10 -9 -19 -13 -19 -9 0 5 -6
2 -13 -6 -17 -22 -135 -109 -147 -109 -6 0 -10 -4 -10 -10 0 -5 -5 -10 -11
-10 -6 0 -27 -16 -47 -35 -20 -19 -43 -35 -50 -35 -7 0 -11 -4 -8 -9 4 -5 1
-11 -5 -13 -9 -3 -8 -9 1 -24 9 -15 20 -19 41 -16 16 2 29 8 29 12 0 13 97 69
107 62 4 -4 5 -3 1 2 -7 8 39 56 54 56 3 0 26 18 50 39 23 22 45 35 47 29 2
-6 -7 -19 -20 -30 -15 -11 -18 -16 -6 -12 19 7 18 21 18 -351 l1 -170 -39 -8
c-21 -5 -51 -12 -68 -17 -16 -4 -51 -11 -78 -15 -26 -3 -45 -10 -42 -15 3 -4
-2 -11 -11 -14 -13 -5 -15 -19 -12 -71 l3 -65 -30 -2 c-16 0 -41 0 -53 1 -13
1 -22 -2 -19 -6 3 -5 -9 -9 -26 -10 -89 -6 -127 -24 -127 -60 0 -37 29 -60
102 -83 40 -13 78 -27 84 -31 6 -5 19 -10 30 -12 10 -1 40 -17 65 -34 30 -21
67 -35 103 -41 49 -8 62 -6 101 14 25 12 60 34 78 49 47 38 55 45 127 100 36
27 93 72 127 100 93 76 130 105 207 164 110 84 199 154 221 174 20 19 121 101
185 150 122 95 156 122 163 134 4 7 13 13 18 13 6 0 39 25 72 55 34 30 67 55
73 55 5 0 23 14 39 30 16 17 33 30 37 30 5 0 24 16 42 36 26 28 41 36 69 37
21 0 37 5 37 9 0 4 15 8 33 8 17 0 113 12 212 25 99 14 234 32 300 40 66 8
187 23 269 34 82 11 152 19 155 19 3 -1 13 1 21 5 27 10 197 27 213 21 8 -3
18 -1 22 5 3 6 22 11 41 11 19 0 77 7 130 15 53 9 99 14 102 11 3 -3 10 -2 16
3 6 5 43 12 81 16 39 3 88 9 110 12 22 3 56 7 75 9 19 2 69 8 110 14 41 6 89
12 106 14 l32 4 1 -93 c2 -105 3 -103 -82 -110 -23 -2 -73 -8 -112 -14 -38 -5
-90 -13 -115 -16 -25 -3 -67 -9 -95 -15 -27 -5 -72 -12 -100 -14 -27 -3 -50
-5 -50 -6 0 -3 -42 -9 -170 -25 -71 -8 -143 -17 -160 -20 -193 -27 -401 -55
-445 -60 -30 -4 -124 -17 -209 -31 -85 -13 -158 -21 -163 -18 -5 3 -15 1 -22
-5 -7 -6 -24 -11 -37 -11 -60 2 -330 -47 -344 -61 -14 -13 -16 -75 -16 -475
l0 -460 -82 -15 c-45 -9 -199 -44 -341 -78 -143 -34 -273 -63 -290 -66 -17 -2
-76 -16 -131 -29 -55 -14 -138 -35 -185 -46 -96 -24 -212 -56 -252 -72 -24 -9
-26 -12 -16 -34 6 -13 19 -24 29 -24 9 0 131 -29 270 -64 140 -36 407 -103
594 -150 187 -48 347 -89 355 -93 8 -3 18 -6 22 -5 4 1 20 -3 35 -9 15 -6 37
-12 48 -14 41 -6 120 -28 129 -36 6 -5 23 -9 39 -9 16 0 92 -17 170 -39 78
-21 162 -41 187 -45 42 -6 46 -5 62 24 9 16 14 29 10 28 -4 -1 -14 1 -22 4 -8
3 -41 12 -73 19 -32 7 -60 16 -63 21 -3 5 -8 6 -12 4 -12 -7 -222 51 -214 59
4 5 2 5 -5 1 -10 -5 -549 122 -593 141 -8 3 -18 7 -22 7 -3 1 -9 4 -13 8 -4 4
-12 5 -19 2 -6 -2 -58 9 -116 25 -58 16 -172 45 -255 65 -82 20 -177 45 -210
56 -33 10 -79 22 -103 25 -50 8 -50 12 -3 20 19 3 42 10 52 15 10 6 31 10 48
10 41 0 131 -22 126 -30 -2 -4 6 -5 18 -3 12 2 101 -17 197 -42 96 -25 204
-52 240 -60 94 -20 433 -102 515 -124 39 -11 107 -28 153 -38 45 -10 82 -21
82 -26 0 -4 4 -6 9 -3 13 8 478 -109 498 -126 9 -7 14 -8 10 -2 -4 7 6 10 28
10 19 -1 35 -4 35 -8 0 -5 4 -8 10 -8 5 0 7 7 4 15 -4 9 0 16 7 16 35 4 68 13
263 79 115 38 219 71 230 72 12 2 23 6 26 9 3 4 16 9 30 10 14 2 27 7 30 10 5
5 196 67 229 74 9 2 48 13 86 25 39 13 77 24 85 25 8 2 16 4 18 5 1 2 5 3 10
4 4 1 99 32 212 69 113 37 214 68 225 70 11 2 31 9 45 14 14 6 70 23 125 38
55 15 107 30 115 33 8 3 17 6 20 7 3 1 45 14 94 29 49 16 94 29 100 31 6 1 24
7 41 14 16 7 40 10 53 8 12 -2 20 -2 17 1 -2 3 7 11 21 19 28 14 106 17 138 4
15 -6 9 -10 -30 -21 -27 -8 -51 -13 -53 -11 -2 1 -7 -1 -10 -6 -3 -4 -42 -20
-86 -35 -44 -15 -164 -56 -267 -91 -164 -57 -188 -63 -201 -50 -10 10 -17 12
-21 4 -4 -6 0 -11 9 -11 34 0 1 -21 -65 -41 -38 -11 -75 -22 -82 -23 -7 -2
-26 -9 -43 -15 -56 -24 -470 -162 -500 -167 -16 -3 -34 -9 -40 -13 -11 -10
-269 -98 -300 -103 -11 -2 -22 -5 -25 -8 -4 -4 -115 -43 -130 -46 -3 0 -18 -6
-35 -13 -16 -7 -84 -31 -150 -53 -66 -22 -130 -46 -143 -54 -22 -14 -24 -31
-13 -84 1 -3 5 0 9 5 7 10 95 46 122 50 8 1 31 8 50 17 19 8 94 34 165 58 72
24 144 49 160 56 17 6 73 26 125 43 52 16 139 46 192 65 54 20 108 38 120 41
13 2 115 37 228 76 113 39 255 87 315 106 61 20 124 42 140 49 17 7 42 15 57
18 14 2 35 9 45 14 15 8 308 109 338 116 48 12 72 20 81 28 19 14 156 58 165
52 5 -3 9 0 9 5 0 7 23 9 68 4 96 -9 189 -6 202 7 3 3 30 13 60 23 106 36 121
48 125 99 3 35 22 58 46 58 11 0 19 5 19 10 0 6 3 9 8 8 7 -2 20 4 130 54 34
16 67 26 72 23 6 -4 9 -2 8 4 -2 6 20 22 48 35 39 18 55 21 64 13 9 -9 11 -9
8 0 -2 6 32 30 75 53 103 53 114 63 94 93 -8 12 -25 24 -38 25 -38 5 -53 8
-70 16 -10 4 -23 7 -30 5 -8 -1 -26 -1 -42 0 l-28 1 2 86 c1 52 -3 90 -10 97
-6 6 -11 7 -11 2 0 -6 -4 -5 -8 1 -6 11 -84 22 -202 29 -32 2 -46 8 -48 19 -2
9 2 16 8 16 14 0 6 88 -10 104 -6 6 -30 9 -53 8 -23 -1 -58 -3 -77 -4 -19 -1
-37 -5 -40 -10 -3 -4 -16 -5 -28 -1 l-22 5 0 299 c0 287 1 299 20 309 11 6 23
23 26 38 4 15 12 30 18 34 7 5 6 14 -2 30 -7 13 -13 33 -15 46 -2 12 -8 27
-14 33 -7 7 -78 10 -197 10 -164 0 -190 -2 -209 -18 -13 -10 -21 -26 -19 -35
2 -9 -2 -27 -8 -39 -8 -14 -9 -24 -2 -28 6 -3 13 -18 17 -33 4 -15 16 -30 26
-33 11 -4 19 -15 19 -28 l0 -22 -18 21 c-9 11 -42 38 -72 60 -30 21 -68 51
-85 66 -16 15 -36 28 -42 28 -7 0 -13 4 -13 9 0 5 -17 20 -37 32 -21 13 -44
31 -51 41 -7 10 -25 25 -40 32 -15 8 -39 25 -54 38 -14 13 -39 32 -54 43 -16
11 -35 27 -44 35 -8 8 -31 26 -50 39 -19 14 -37 26 -40 28 -2 2 2 8 9 12 9 6
4 9 -14 9 -14 0 -35 9 -46 21 -11 11 -24 21 -30 21 -5 0 -9 8 -7 18 2 12 -3
16 -15 14 -20 -4 -99 62 -89 74 4 4 2 4 -4 1 -13 -7 -60 30 -56 44 1 5 -2 8
-6 7 -13 -5 -82 46 -82 60 0 6 -4 12 -10 12 -5 0 -8 6 -6 13 1 6 1 9 -1 5 -8
-14 -25 -8 -56 21 -18 16 -42 38 -55 48 -12 10 -24 29 -27 42 l-4 24 27 -26
c16 -15 32 -27 38 -27 9 0 45 -29 106 -85 15 -14 33 -25 40 -25 16 0 38 -19
38 -33 0 -5 -7 -6 -16 -3 -9 3 -12 2 -9 -5 4 -5 15 -7 26 -4 18 6 29 0 72 -41
12 -11 38 -32 57 -45 37 -25 85 -68 61 -54 -10 5 -12 4 -7 -4 4 -6 12 -9 17
-6 18 12 143 -91 132 -108 -3 -6 -1 -7 5 -3 15 9 52 -11 52 -29 0 -7 5 -17 12
-21 7 -5 8 -3 3 6 -4 7 7 2 26 -11 62 -43 98 -77 91 -85 -4 -4 -2 -4 4 -1 6 4
21 -1 32 -11 55 -46 63 -52 73 -52 6 0 8 -7 5 -16 -3 -9 -2 -12 5 -9 6 4 18 0
28 -9 24 -22 65 -15 69 12 3 20 -26 64 -38 57 -3 -2 -31 17 -61 43 -31 26 -69
57 -85 69 -86 63 -152 114 -176 135 -14 13 -39 32 -54 43 -22 16 -90 68 -159
123 -5 4 -26 18 -45 32 -19 13 -52 37 -72 54 -20 17 -49 40 -63 51 -15 11 -33
26 -40 33 -8 6 -17 12 -22 12 -16 1 -132 108 -125 116 4 4 1 4 -5 0 -19 -10
-39 4 -22 15 11 7 10 9 -5 9 -16 0 -16 2 5 18 21 18 25 26 34 82 5 28 -23 102
-36 95 -4 -3 -9 -2 -11 2 -1 5 -80 7 -175 5z m-1998 -217 l0 -30 -105 -7 c-58
-4 -123 -5 -145 -2 -41 5 -45 12 -36 67 0 4 65 6 143 5 l143 -3 0 -30z m2100
-329 l0 -360 -30 -3 -30 -3 -1 332 c0 247 -4 333 -12 336 -7 2 -19 10 -27 19
-8 8 -15 10 -15 5 0 -5 -12 -12 -26 -15 -21 -4 -25 -1 -21 14 3 11 1 19 -5 19
-5 0 -6 4 -3 10 3 5 43 9 88 8 l82 -2 0 -360z m-147 208 l3 -29 -20 25 c-19
23 -20 24 -15 3 5 -18 3 -21 -15 -16 -12 3 -28 0 -36 -7 -11 -9 -36 -11 -84
-7 -37 3 -85 2 -107 -3 -21 -4 -113 -11 -204 -14 -189 -8 -502 -24 -605 -31
-64 -5 -279 -15 -698 -32 l-157 -6 2 24 c2 21 7 25 33 24 16 0 32 3 35 6 5 6
489 29 597 29 46 0 51 -2 46 -20 -4 -14 0 -20 11 -20 10 0 14 5 11 10 -3 6 0
10 7 10 10 0 10 3 -1 9 -19 12 46 25 91 19 18 -3 45 -2 61 3 25 7 245 19 467
25 41 1 134 6 205 9 223 13 290 12 287 -3 -1 -8 2 -11 8 -7 6 3 8 10 5 15 -5
8 38 19 60 15 6 -1 11 -15 13 -31z m-2080 1 c17 0 32 3 32 8 0 4 5 5 11 2 6
-4 8 -13 5 -21 -3 -7 -1 -16 4 -19 4 -3 7 6 5 20 -1 14 3 25 9 25 8 0 11 -141
11 -505 0 -500 0 -505 -20 -506 -11 -1 -24 0 -30 1 -5 2 -33 2 -61 1 -86 -3
-82 -34 -80 514 l1 480 35 5 c19 3 37 3 40 0 3 -3 20 -5 38 -5z m2101 -323 c1
-130 -3 -243 -8 -251 -5 -8 -17 -16 -25 -17 -15 -2 -16 23 -14 250 3 251 3
252 25 254 l22 2 0 -238z m-114 -26 l0 -251 -37 -3 -36 -3 -1 253 -1 254 38 1
38 1 -1 -252z m358 191 c-3 -6 -2 -7 3 -4 6 3 16 2 24 -3 23 -14 28 -410 6
-410 -8 0 -18 5 -22 11 -3 6 -19 9 -35 5 l-29 -5 0 236 0 237 30 -29 c16 -15
27 -33 23 -38z m-493 -202 l0 -252 -71 -7 c-70 -6 -94 -2 -73 12 11 8 12 27 2
38 -14 13 -9 124 5 125 10 0 10 2 0 6 -8 3 -13 22 -12 46 0 33 2 38 9 22 7
-16 9 -17 9 -3 1 9 -4 20 -9 23 -8 5 -7 12 2 23 10 12 10 14 1 8 -8 -4 -13 -1
-13 8 0 9 5 16 12 16 9 0 9 3 0 12 -15 15 -16 74 -2 83 7 4 7 12 0 25 -13 25
-13 51 0 30 8 -13 10 -12 10 3 0 9 -4 17 -10 17 -5 0 -10 3 -10 8 0 4 34 7 75
8 l75 1 0 -252z m-212 -18 l4 -259 -24 3 c-12 1 -30 -1 -38 -4 -8 -3 -41 -8
-73 -11 l-58 -6 1 264 1 265 27 4 c15 2 56 4 92 3 l65 -1 3 -258z m-249 -17
c0 -148 -3 -269 -7 -268 -9 2 -140 -12 -170 -18 l-23 -5 1 273 1 273 71 3 c48
2 68 0 63 -7 -3 -6 -1 -11 4 -11 6 0 11 4 11 9 0 5 10 12 23 14 12 2 23 5 24
6 0 0 2 -120 2 -269z m-260 -20 c0 -298 4 -281 -65 -280 -16 0 -49 -3 -74 -6
l-45 -6 2 159 c0 87 1 214 2 282 l1 124 48 -6 c26 -3 63 -2 82 2 19 4 38 6 42
4 4 -2 7 -125 7 -273z m-278 238 l2 -23 4 23 c2 12 8 22 13 22 4 0 7 -127 6
-281 l-1 -282 -25 -3 c-14 -2 -55 -7 -93 -12 l-67 -8 0 287 c1 158 4 289 7
293 4 3 39 6 80 6 69 0 73 -1 74 -22z m-221 -272 c0 -261 -1 -278 -17 -271
-15 5 -16 4 -5 -6 13 -14 16 -30 5 -27 -8 2 -111 -8 -183 -18 l-40 -6 2 299 3
298 45 6 c25 4 78 6 117 5 l73 -1 0 -279z m-313 248 c-2 -13 -1 -21 3 -19 7 4
2 -556 -5 -563 -1 -2 -26 -5 -55 -7 -28 -2 -54 -6 -57 -9 -4 -3 -16 -6 -28 -6
l-22 0 -2 310 c-1 275 0 310 14 310 9 0 18 -7 22 -16 4 -12 8 -13 14 -3 4 7
27 15 51 19 68 9 70 9 65 -16z m2221 -107 c22 -21 22 -26 20 -229 l-1 -207
-36 35 c-19 18 -39 34 -44 34 -5 0 -7 7 -3 15 3 8 0 14 -7 12 -9 -1 -13 49
-14 206 l-2 208 32 -25 c18 -15 42 -36 55 -49z m-2718 -325 l0 -268 -46 -3
c-30 -1 -44 2 -39 8 11 18 -7 12 -21 -6 -13 -17 -13 -17 -14 0 0 10 -5 15 -10
12 -6 -4 -8 -11 -5 -16 4 -5 2 -9 -4 -9 -6 0 -10 78 -10 215 l-1 215 26 0 c18
0 25 4 21 14 -3 7 0 20 6 27 10 11 9 11 -5 0 -10 -7 -15 -17 -12 -22 3 -5 -2
-9 -11 -9 -28 0 -13 18 55 64 36 25 66 45 68 45 1 1 2 -120 2 -267z m2901 182
l60 -46 -2 -222 -2 -222 -38 40 c-20 23 -55 55 -78 71 l-41 30 0 70 c0 39 3
134 7 212 5 121 8 139 20 127 8 -7 41 -34 74 -60z m-3121 -263 l-1 -209 -57
-25 c-31 -13 -61 -23 -65 -20 -4 3 -7 87 -7 189 l2 184 42 25 c24 14 51 34 61
45 10 11 20 20 22 20 2 0 3 -94 3 -209z m3290 139 c5 0 12 -9 15 -21 4 -11 9
-18 12 -15 9 9 34 -15 27 -25 -3 -5 2 -6 10 -3 18 7 19 -5 15 -186 -1 -58 -2
-145 -1 -195 l1 -90 -24 28 c-13 15 -27 27 -30 27 -3 0 -19 14 -37 30 l-32 31
-1 229 c-1 225 -1 229 17 210 10 -11 23 -20 28 -20z m-694 -69 c-3 -4 12 -5
34 -1 53 10 104 6 121 -8 20 -17 116 -102 154 -137 18 -16 54 -49 81 -72 70
-59 131 -117 115 -108 -9 5 -12 4 -7 -3 4 -6 13 -9 21 -5 8 3 15 1 15 -4 0 -5
24 -27 53 -48 60 -46 68 -55 60 -70 -4 -5 -3 -7 2 -3 9 8 31 -8 127 -94 128
-115 143 -131 141 -139 -2 -5 0 -8 5 -7 11 2 62 -24 62 -33 0 -4 19 -21 43
-38 23 -16 52 -39 65 -50 12 -12 22 -19 22 -15 0 20 68 -66 73 -93 l6 -32 -42
29 c-23 16 -49 37 -58 47 -9 10 -28 27 -43 37 -15 11 -37 29 -50 40 -13 12
-42 36 -64 54 -23 19 -39 40 -37 50 1 9 0 11 -2 5 -3 -7 -8 -13 -13 -13 -13 0
-30 26 -22 35 4 5 2 5 -4 2 -7 -4 -27 7 -45 23 -19 17 -55 47 -81 67 -26 21
-45 44 -43 51 3 7 1 11 -4 8 -4 -3 -26 10 -49 29 -22 19 -45 35 -51 35 -6 0
-11 6 -11 13 0 8 -11 19 -24 25 -13 6 -41 26 -62 45 -22 19 -61 53 -89 76 -55
45 -65 53 -116 96 -49 41 -67 55 -114 90 -22 17 -45 36 -51 44 -10 12 -26 13
-115 1 -57 -8 -122 -14 -144 -15 -22 -1 -49 -5 -60 -8 -30 -9 -245 -36 -325
-41 -19 -1 -40 -5 -47 -9 -6 -4 -40 -8 -76 -9 -36 -2 -60 -6 -53 -10 6 -4 -16
-9 -49 -10 -73 -2 -82 -3 -120 -11 -28 -7 -102 -15 -190 -22 -22 -2 -47 -5
-55 -8 -8 -3 -58 -10 -110 -16 -182 -21 -498 -62 -660 -87 -52 -7 -110 -14
-128 -14 l-33 0 2 50 c2 35 6 49 15 46 6 -2 15 -1 20 4 5 5 41 11 79 14 39 2
77 7 85 10 32 12 510 67 606 69 34 1 60 5 57 10 -2 4 21 8 51 9 70 2 97 5 166
18 30 5 89 12 130 14 41 3 82 7 90 9 17 5 288 33 412 41 25 2 50 6 55 9 5 3
45 7 91 9 45 2 82 6 82 10 0 4 21 9 48 11 26 2 51 4 55 5 5 1 6 -2 3 -7z
m-2797 -245 l-1 -235 -57 -21 c-31 -12 -63 -25 -71 -30 -14 -7 -16 16 -17 203
-1 186 0 212 15 223 9 7 20 10 25 7 4 -2 6 1 5 9 -2 7 5 12 14 12 11 -1 14 4
11 14 -4 9 -2 13 4 9 6 -4 13 0 17 8 3 8 12 15 21 15 8 0 15 5 15 10 0 6 5 10
10 10 7 0 10 -79 9 -234z m3657 175 c-3 -4 4 -8 16 -8 11 -1 30 -13 43 -27 13
-14 28 -26 32 -26 4 0 8 -111 8 -248 l0 -247 -20 20 c-11 11 -38 35 -60 54
l-40 35 -2 224 c-2 123 0 228 3 233 3 5 10 7 15 3 5 -3 7 -9 5 -13z m658 -16
c4 -14 4 -30 1 -36 -6 -9 -267 -11 -291 -2 -6 2 -10 14 -9 26 2 21 7 22 116
28 63 3 128 6 145 7 27 2 33 -2 38 -23z m-4531 -157 c-1 -46 -2 -162 -3 -259
l0 -176 -37 -16 c-48 -20 -113 -37 -113 -29 0 3 -1 106 -2 229 -2 123 -2 223
-1 223 1 0 9 3 19 7 13 5 15 3 9 -7 -5 -8 -4 -11 3 -6 6 4 9 13 5 21 -5 14 14
21 42 15 6 -1 7 2 3 6 -7 6 59 74 72 74 3 0 4 -37 3 -82z m4087 18 c7 -9 16
-16 21 -16 12 0 64 -50 64 -63 1 -7 6 -11 13 -9 9 1 12 -45 13 -183 1 -102 2
-216 3 -253 l1 -68 -23 26 c-13 13 -47 41 -75 60 -60 42 -55 19 -59 322 -3
194 -1 215 13 208 9 -5 21 -16 29 -24z m259 -512 c-1 -390 -5 -542 -12 -535
-6 6 -24 11 -39 11 l-28 0 0 535 1 535 39 0 40 0 -1 -546z m138 241 c-1 -168
-6 -305 -10 -305 -5 0 -5 -6 0 -12 4 -7 8 -116 8 -243 l0 -230 -37 -2 -38 -1
0 549 0 549 39 0 39 0 -1 -305z m-1118 133 l63 -52 -33 -12 c-19 -6 -38 -9
-42 -7 -4 3 -14 -1 -22 -7 -8 -7 -21 -10 -29 -7 -7 3 -18 1 -23 -4 -5 -5 -26
-10 -46 -11 -20 -1 -37 -6 -37 -12 0 -6 -5 -4 -10 4 -5 8 -10 11 -10 5 0 -5
-14 -10 -31 -9 -33 1 -63 29 -52 47 3 6 2 7 -3 4 -6 -3 -16 -2 -24 4 -13 7
-12 9 3 9 9 0 17 7 17 15 0 8 5 15 11 15 6 0 9 7 5 15 -3 8 -2 15 2 16 27 3
61 11 84 20 15 6 31 8 36 5 6 -3 21 -2 34 3 36 15 39 14 107 -41z m-3595 8
c-3 -14 -9 -24 -13 -21 -4 2 -8 -2 -8 -10 0 -8 4 -12 9 -9 4 3 8 -79 8 -183 0
-103 3 -211 6 -239 l6 -51 -40 -7 c-23 -3 -53 -11 -69 -18 -15 -6 -32 -10 -37
-9 -4 1 -14 -3 -22 -10 -11 -9 -13 26 -13 225 l0 235 52 38 c29 20 67 50 86
66 38 32 45 31 35 -7z m651 -53 c131 -10 134 -12 82 -50 -27 -20 -40 -22 -113
-19 -45 2 -87 7 -93 11 -6 3 -11 1 -11 -6 0 -7 -3 -10 -6 -6 -3 3 2 21 11 41
17 35 38 48 65 38 8 -3 38 -7 65 -9z m2569 -46 c3 3 8 -2 12 -11 3 -9 11 -16
16 -16 5 0 32 -21 58 -47 27 -27 74 -70 106 -98 31 -27 69 -61 84 -75 15 -14
48 -43 72 -65 24 -22 77 -69 116 -104 62 -55 71 -66 60 -80 -11 -14 -11 -14 3
-4 12 10 21 8 47 -10 17 -12 30 -27 27 -34 -2 -7 1 -15 7 -19 7 -5 8 -2 3 6
-5 9 -4 11 3 6 7 -4 12 -13 12 -19 0 -7 10 -13 22 -14 23 -2 40 -22 31 -37 -4
-5 -1 -6 7 -1 8 5 31 -13 69 -52 31 -33 76 -75 101 -94 24 -19 52 -41 61 -49
8 -8 41 -39 72 -68 33 -31 58 -63 58 -75 8 -134 7 -143 -13 -144 -10 -1 -22 5
-25 13 -3 9 -9 11 -17 5 -7 -6 -37 -3 -81 6 -38 8 -99 19 -134 24 -36 6 -73
15 -82 20 -10 5 -24 6 -32 3 -8 -3 -18 0 -22 5 -3 6 -10 9 -14 6 -5 -2 -39 2
-77 11 -38 8 -87 17 -109 19 -22 3 -90 14 -150 26 -61 11 -131 23 -157 26
l-47 5 2 112 c2 61 6 118 10 127 6 11 -3 27 -29 53 -20 20 -34 39 -31 42 3 3
31 6 63 8 48 2 61 7 81 30 28 33 29 50 3 76 -16 16 -28 19 -55 14 -19 -3 -35
-4 -35 -1 0 14 13 36 19 33 3 -2 7 13 9 34 1 21 -3 42 -8 45 -17 10 -91 15
-85 5 3 -4 -12 -10 -33 -12 -20 -3 -45 -8 -54 -12 -12 -5 -18 -4 -18 4 0 6 5
8 10 5 6 -3 10 -2 10 4 0 5 -10 13 -22 17 l-22 7 26 21 c14 11 35 28 47 36 25
17 29 71 6 90 -20 17 -73 3 -80 -21 -9 -26 -22 -24 -42 9 -34 55 -78 77 -101
49 -13 -16 -1 -69 30 -136 16 -33 18 -45 8 -51 -8 -5 -11 -23 -8 -49 2 -22 0
-41 -4 -41 -5 0 -8 4 -8 8 0 4 -13 16 -30 25 -36 21 -154 22 -171 1 -12 -14 4
-54 22 -54 6 0 7 -4 4 -10 -3 -5 -4 -10 -1 -10 2 0 12 -3 22 -7 13 -5 15 -3 9
8 -6 11 -5 11 5 2 7 -7 25 -9 41 -6 16 3 29 1 29 -4 0 -5 -8 -10 -17 -10 -52
1 -73 -5 -97 -28 -15 -14 -32 -25 -39 -25 -7 0 -2 -6 10 -13 68 -38 82 -44 91
-35 11 11 94 -1 86 -14 -3 -4 -11 -8 -17 -7 -11 2 -34 -3 -89 -17 -24 -7 -48
-73 -37 -102 5 -13 9 -45 8 -71 l-2 -48 -36 4 c-20 2 -43 6 -51 10 -14 5 -62
14 -87 16 -7 0 -13 4 -13 9 0 5 -4 7 -8 4 -4 -3 -26 0 -48 5 -21 5 -48 11 -59
13 -57 9 -201 41 -290 63 -55 14 -108 25 -118 25 -16 -1 -17 18 -15 301 l3
301 45 8 c29 5 53 4 67 -3 11 -6 27 -9 35 -6 7 3 3 6 -10 6 -13 1 -20 5 -17
11 4 6 25 10 48 10 23 0 76 6 117 14 41 7 102 17 135 20 33 3 78 9 100 12 152
22 155 22 160 0 3 -12 6 -84 8 -160 2 -124 4 -139 20 -142 35 -5 45 41 42 192
l-3 141 24 -5 c13 -2 24 0 24 5 0 5 16 10 35 11 20 2 59 7 86 12 28 6 54 8 59
5 4 -2 27 -1 51 4 39 7 46 6 65 -15 12 -12 25 -20 28 -17z m-2243 -22 c-39
-30 -97 -75 -128 -101 -64 -50 -91 -71 -173 -135 -30 -24 -86 -69 -125 -102
-38 -32 -81 -67 -93 -78 -13 -10 -27 -19 -32 -19 -4 0 -10 -7 -14 -15 -3 -8
-12 -15 -20 -15 -8 0 -19 -6 -23 -13 -4 -7 -28 -28 -53 -47 -24 -19 -52 -42
-61 -50 -8 -8 -26 -22 -39 -30 -12 -8 -28 -20 -34 -26 -6 -5 -36 -30 -67 -55
-31 -24 -87 -69 -125 -100 -149 -120 -294 -226 -294 -214 0 3 -8 1 -18 -4 -11
-6 -27 -5 -47 4 -17 7 -23 14 -15 14 13 1 13 2 0 11 -13 9 -11 14 11 33 98 83
189 148 199 142 4 -2 13 7 20 20 7 14 16 25 19 25 4 0 24 16 46 35 22 19 43
35 46 35 4 0 45 30 91 68 47 37 97 76 113 87 16 11 39 30 52 43 13 12 27 22
30 22 5 0 43 30 157 123 21 18 45 36 53 40 7 4 25 19 40 33 14 13 30 24 34 24
5 0 25 16 45 35 19 19 39 35 42 35 4 0 21 12 37 28 17 15 60 52 95 82 36 30
67 58 68 62 2 5 8 8 14 8 6 0 19 11 30 25 18 23 26 25 105 25 l85 0 -71 -55z
m2788 -15 c2 0 0 -8 -3 -17 -4 -10 -4 -14 0 -10 4 4 13 2 21 -4 7 -6 13 -8 13
-3 0 5 7 -2 16 -14 9 -13 14 -24 13 -26 -8 -5 -95 -28 -111 -29 -10 -1 -18 -5
-18 -10 0 -5 -7 -7 -15 -4 -8 4 -17 2 -19 -2 -3 -5 -22 -11 -43 -14 -21 -3
-48 -9 -60 -13 -18 -5 -23 -2 -23 10 0 10 -5 14 -10 11 -6 -4 -30 14 -54 38
l-45 44 57 11 c56 12 63 14 92 25 8 3 22 5 30 5 19 0 83 12 88 17 2 2 18 -1
35 -6 18 -5 34 -9 36 -9z m-1745 -86 c11 -29 7 -564 -5 -564 -5 0 -8 3 -6 8 3
4 -13 8 -34 9 -51 3 -152 32 -161 47 -5 7 -8 6 -8 -4 0 -12 -2 -13 -9 -1 -11
17 -13 434 -2 464 7 19 22 24 102 38 122 22 116 21 123 3z m-306 -126 c0 -57
-4 -98 -11 -107 -8 -10 -8 -13 -1 -8 8 5 12 -25 13 -106 1 -61 3 -121 4 -132
2 -17 -7 -21 -58 -28 -33 -4 -105 -16 -160 -27 -55 -10 -129 -21 -165 -25 -36
-4 -77 -9 -93 -11 l-27 -4 2 237 3 237 120 17 c66 10 147 20 180 24 33 3 80
10 105 14 93 17 87 23 88 -81z m2215 62 c15 -7 27 -17 27 -22 0 -5 12 -13 28
-19 25 -10 26 -11 8 -21 -11 -6 -35 -15 -55 -20 -20 -5 -45 -11 -56 -14 -11
-3 -27 -7 -35 -9 -8 -2 -16 -4 -17 -5 -4 -3 -13 -6 -58 -15 -22 -4 -45 -11
-50 -16 -6 -4 -24 4 -42 19 -17 15 -43 36 -58 46 l-26 20 55 17 c31 10 75 21
98 24 24 4 49 11 56 17 6 6 12 7 12 4 0 -4 7 -3 16 2 21 11 62 8 97 -8z m173
-145 c23 -17 31 -31 28 -43 -5 -14 -4 -14 4 -2 9 12 14 12 31 -4 20 -18 20
-20 3 -32 -11 -8 -21 -9 -28 -3 -8 6 -13 6 -16 -1 -1 -5 -12 -12 -23 -15 -54
-13 -125 -34 -142 -43 -54 -28 -68 -24 -133 37 -35 31 -57 58 -49 58 14 0 147
38 186 54 16 6 25 4 30 -6 6 -10 13 -11 23 -5 12 8 11 10 -5 11 l-20 0 20 9
c34 15 57 11 91 -15z m832 -114 c3 -37 0 -42 -25 -52 -15 -6 -38 -12 -50 -13
-12 -1 -29 -8 -37 -16 -9 -7 -16 -9 -16 -5 0 4 -7 2 -15 -5 -13 -11 -15 -6
-15 38 0 71 6 82 45 82 19 0 36 4 39 9 3 5 20 8 38 6 31 -2 33 -5 36 -44z
m-656 -29 c1 -4 24 -24 50 -45 46 -38 55 -67 19 -67 -9 0 -28 -6 -42 -14 -40
-20 -150 -58 -183 -62 -34 -5 -76 19 -130 75 -28 29 -35 42 -25 45 92 31 171
55 202 61 20 4 37 12 37 17 0 6 7 8 15 4 8 -3 15 -1 15 5 0 11 36 -5 42 -19z
m744 -87 c4 -8 13 -15 21 -15 13 0 13 2 2 16 -12 15 -11 16 11 9 14 -4 26 -11
28 -14 1 -4 19 -6 40 -5 22 2 27 1 12 -3 -14 -3 -29 -8 -35 -13 -5 -4 -45 -19
-89 -34 -43 -15 -92 -34 -109 -42 -16 -9 -40 -14 -53 -11 -13 2 -21 0 -18 -4
3 -5 0 -9 -5 -9 -21 0 -26 -2 -38 -12 -10 -8 -13 -6 -13 6 0 9 6 16 13 17 10
0 10 2 0 6 -19 7 -17 69 2 71 8 1 22 3 30 4 8 1 15 4 15 8 0 3 13 7 29 8 15 1
46 9 67 16 52 19 83 19 90 1z m189 -92 c-1 -24 -7 -37 -17 -39 -9 -1 -50 -18
-91 -38 -117 -55 -187 -85 -187 -80 0 2 -10 -2 -23 -11 -14 -9 -41 -14 -68
-12 -41 2 -44 4 -47 33 -3 28 0 32 25 37 35 6 198 64 235 83 15 8 30 14 33 14
15 -1 64 15 95 32 19 10 37 18 40 18 4 0 5 -17 5 -37z m-783 -59 c2 -42 0 -78
-4 -81 -5 -2 -8 1 -8 7 0 6 -4 9 -9 5 -6 -3 -27 -7 -48 -10 -21 -2 -55 -7 -75
-11 -34 -6 -43 -3 -84 31 l-45 37 30 19 c25 15 89 37 126 43 6 1 15 5 21 9 7
4 28 8 47 9 19 2 33 6 30 11 -2 4 0 7 6 7 5 0 11 -34 13 -76z m-2617 5 c44
-11 94 -22 110 -25 17 -3 37 -8 45 -11 8 -3 33 -7 55 -9 21 -3 41 -8 45 -12 3
-4 14 -8 25 -9 29 -2 85 -13 129 -25 22 -5 60 -13 85 -18 103 -18 207 -43 219
-53 7 -5 15 -7 18 -5 3 3 22 1 42 -4 51 -13 94 -20 115 -20 9 1 17 -3 17 -9 0
-5 3 -8 8 -7 4 1 27 -2 52 -7 25 -5 48 -8 53 -7 4 1 7 -9 7 -22 0 -35 34 -106
67 -141 15 -16 27 -32 26 -35 -2 -7 25 -10 85 -10 24 0 40 -5 37 -10 -3 -5 8
-8 24 -8 17 1 28 4 26 9 -3 4 19 10 48 13 72 7 77 8 72 16 -3 4 9 19 26 34 16
15 32 39 35 55 5 26 9 28 47 24 23 -2 49 -6 57 -9 8 -3 33 -8 55 -11 22 -3 81
-14 130 -25 50 -10 104 -21 120 -23 17 -3 44 -8 60 -11 17 -3 48 -8 70 -10 22
-3 69 -12 105 -20 36 -8 83 -17 105 -20 58 -8 64 -21 13 -30 -50 -9 -48 -9
-68 -17 -33 -15 -150 -45 -150 -39 0 4 -4 2 -8 -4 -4 -6 -56 -26 -117 -44 -60
-17 -166 -50 -234 -71 -68 -22 -131 -41 -140 -42 -9 -1 -20 -5 -26 -8 -5 -4
-32 -13 -60 -22 -168 -53 -286 -88 -306 -93 -31 -7 -41 -10 -59 -17 -45 -20
-325 -105 -331 -101 -4 2 -9 0 -11 -5 -1 -6 -14 -11 -28 -13 -14 -2 -29 -6
-35 -10 -5 -3 -102 -35 -215 -71 l-206 -65 -164 39 c-91 22 -232 55 -315 75
-248 59 -469 114 -485 121 -8 3 -22 7 -30 8 -51 7 -130 28 -135 35 -3 5 -11 7
-18 5 -7 -3 -115 22 -242 55 -268 70 -260 68 -305 78 -35 8 -34 8 20 15 30 4
91 16 135 28 44 11 91 23 105 25 14 2 50 10 80 18 30 9 56 13 59 11 2 -3 9 0
16 5 6 5 27 10 46 11 19 2 39 6 44 10 6 4 44 14 85 23 179 38 253 56 265 66 6
5 15 7 19 3 4 -4 2 5 -3 20 -12 32 -15 367 -3 368 4 0 111 17 237 38 127 21
239 39 250 39 11 1 56 -8 100 -19z m1433 -79 c2 -25 -2 -40 -9 -40 -7 0 -9
-10 -5 -30 3 -16 2 -30 -2 -30 -4 0 -8 -10 -9 -22 -2 -22 -21 -40 -35 -32 -4
3 -5 -2 -2 -10 3 -9 10 -14 14 -11 4 3 10 -1 13 -9 11 -28 -58 -108 -77 -89
-3 3 -6 1 -6 -5 0 -28 -143 -3 -176 30 -10 10 -18 39 -21 75 -2 32 -8 69 -13
83 -5 14 -11 45 -13 70 -4 52 -18 49 121 32 40 -4 75 -5 78 0 3 4 24 8 47 9
23 0 51 4 62 9 31 13 31 13 33 -30z m2107 19 c27 1 26 -1 -20 -23 -31 -14 -54
-20 -60 -14 -6 6 -5 12 5 19 13 9 13 10 0 6 -8 -2 -14 -13 -13 -25 2 -14 -5
-22 -23 -26 -13 -4 -48 -17 -77 -31 -127 -58 -198 -85 -207 -80 -6 4 -9 1 -8
-6 2 -6 -9 -15 -24 -19 -27 -8 -28 -7 -26 30 1 37 4 39 62 66 34 15 63 28 66
28 3 1 32 14 65 30 116 56 118 56 175 51 30 -4 69 -6 85 -6z m-915 -99 c11 -5
29 -15 41 -21 15 -7 19 -7 14 0 -9 16 8 14 65 -8 27 -11 47 -15 44 -10 -3 6
11 7 34 3 21 -3 66 -7 100 -8 66 -1 68 -8 7 -25 -33 -9 -42 -8 -51 4 -10 13
-13 13 -23 1 -9 -11 -9 -15 1 -20 13 -5 -93 2 -142 10 -14 2 -56 7 -94 11 -58
5 -74 11 -100 35 -17 17 -26 28 -21 25 6 -2 19 -1 30 4 28 11 72 11 95 -1z
m395 -122 c2 -7 5 -37 8 -66 4 -50 3 -53 -22 -58 -14 -3 -43 -12 -64 -20 -21
-8 -54 -17 -73 -20 l-35 -5 3 63 3 63 70 18 c39 10 74 22 80 28 13 13 25 11
30 -3z m-323 -19 c15 -1 25 -5 22 -10 -3 -5 6 -9 20 -9 25 0 26 -2 26 -65 l0
-65 -27 5 c-16 3 -53 8 -83 11 -30 4 -57 9 -60 13 -3 3 -18 8 -35 10 -16 1
-31 4 -31 4 -1 1 1 28 4 60 l5 58 66 -6 c36 -3 78 -6 93 -6z"/>
</g>
</svg>
