<?xml version="1.0" standalone="no"?>
<!DOCTYPE svg PUBLIC "-//W3C//DTD SVG 20010904//EN"
 "http://www.w3.org/TR/2001/REC-SVG-20010904/DTD/svg10.dtd">
<svg version="1.0" xmlns="http://www.w3.org/2000/svg"
 width="1024.000000pt" height="1024.000000pt" viewBox="0 0 1024.000000 1024.000000"
 preserveAspectRatio="xMidYMid meet">
<metadata>
Created by potrace 1.16, written by Peter Selinger 2001-2019
</metadata>
<g transform="translate(0.000000,1024.000000) scale(0.100000,-0.100000)"
fill="#000000" stroke="none">
<path d="M6570 8309 c-153 -12 -296 -44 -460 -100 -80 -28 -153 -51 -162 -52
-9 -1 -15 -3 -13 -6 3 -2 -37 -27 -88 -54 -330 -177 -659 -508 -789 -794 -15
-35 -32 -63 -36 -63 -5 0 -53 18 -108 41 -54 22 -112 45 -127 51 -22 8 -26 13
-15 20 9 7 8 8 -6 4 -20 -7 -119 42 -111 55 3 4 0 11 -6 15 -8 4 -9 3 -5 -4
13 -22 -10 -12 -103 43 -197 116 -396 268 -615 468 -115 105 -120 109 -155
103 -20 -4 -44 -7 -53 -8 -9 -1 -16 -7 -15 -13 1 -5 -3 -9 -8 -8 -11 2 -15
-16 -16 -69 -1 -46 5 -87 12 -85 12 3 159 -145 153 -154 -3 -5 3 -6 12 -2 12
4 15 3 10 -6 -4 -6 -3 -10 2 -9 5 2 45 -26 90 -62 68 -54 79 -67 69 -80 -10
-13 -10 -13 4 -3 12 10 20 9 37 -3 12 -8 19 -20 16 -26 -4 -7 -2 -8 5 -4 15
10 43 -13 34 -27 -3 -5 -1 -7 5 -3 6 3 52 -22 103 -56 84 -57 90 -63 65 -66
-15 -2 -35 3 -44 10 -11 9 -14 10 -8 1 5 -10 -6 -13 -43 -13 -88 0 -253 -21
-371 -48 -63 -14 -130 -26 -148 -26 -18 0 -28 -2 -23 -6 6 -3 -22 -16 -62 -28
-40 -13 -137 -56 -217 -95 -80 -39 -151 -71 -157 -70 -7 0 -10 -3 -8 -8 5 -7
-47 -41 -56 -36 -2 1 -3 0 -2 -2 5 -8 -131 -100 -140 -94 -6 3 -7 1 -3 -5 7
-12 -50 -59 -66 -54 -5 1 -7 -2 -4 -7 10 -16 -15 -25 -26 -10 -8 12 -9 11 -5
-1 5 -20 -191 -226 -212 -222 -11 2 -12 0 -4 -5 8 -6 1 -20 -24 -48 -19 -22
-29 -31 -22 -20 13 18 13 19 -3 6 -10 -7 -15 -17 -12 -22 3 -5 -12 -32 -33
-61 -90 -124 -190 -295 -233 -400 -21 -52 -22 -60 -9 -94 8 -20 27 -46 42 -58
65 -48 394 -27 683 43 388 95 776 305 1057 570 46 44 87 78 91 76 3 -3 4 -2 1
1 -2 4 25 41 61 83 101 117 243 336 276 426 5 12 5 9 2 -10 -3 -16 -5 -48 -5
-70 1 -39 -25 -212 -50 -325 -10 -44 -13 -51 -20 -35 -6 14 -7 9 -3 -15 10
-65 -93 -369 -194 -570 l-57 -115 -60 2 c-68 1 -376 1 -447 -1 -27 0 -48 -4
-48 -8 0 -4 -21 -10 -47 -14 -65 -9 -256 -67 -360 -109 -46 -19 -92 -31 -101
-29 -13 5 -14 4 -4 -4 11 -7 10 -10 -3 -16 -9 -3 -22 -3 -28 1 -7 3 -9 2 -4
-2 9 -11 -80 -68 -93 -60 -6 4 -10 2 -10 -3 0 -5 -28 -29 -62 -52 -35 -24 -82
-59 -105 -77 -24 -19 -48 -31 -53 -28 -6 4 -9 3 -8 -2 2 -5 -26 -36 -61 -69
-36 -32 -97 -98 -137 -147 -259 -309 -392 -648 -420 -1062 -3 -55 -6 -102 -7
-105 -1 -3 2 -52 7 -110 9 -130 28 -247 61 -369 14 -52 23 -101 20 -108 -2 -8
-1 -12 4 -9 5 3 18 -18 29 -47 11 -28 24 -61 28 -71 5 -12 4 -17 -3 -13 -5 3
-10 0 -10 -8 0 -8 6 -15 13 -15 17 0 47 -57 38 -72 -4 -6 -3 -8 3 -5 13 8 36
-40 27 -56 -4 -7 -4 -9 1 -5 10 10 108 -139 100 -152 -4 -6 -2 -9 3 -8 13 4
73 -72 66 -83 -3 -5 -2 -8 3 -7 4 2 48 -39 97 -90 49 -51 120 -117 157 -148
38 -31 66 -61 62 -67 -3 -5 -1 -7 5 -4 5 4 48 -18 94 -48 110 -73 300 -166
418 -205 189 -61 323 -82 567 -89 121 -3 219 -3 217 0 -2 4 22 10 54 14 83 10
282 62 374 97 104 40 250 115 346 179 42 28 82 52 89 52 7 0 11 3 10 7 -1 3
30 32 68 65 288 242 504 591 595 963 l11 42 92 -82 c51 -46 91 -87 89 -93 -2
-5 -1 -7 3 -3 9 9 151 -91 147 -104 -1 -5 1 -7 6 -4 5 3 40 -13 78 -35 130
-77 227 -121 430 -199 82 -31 134 -62 274 -164 171 -126 329 -147 500 -68 67
31 159 121 193 189 14 28 42 106 62 173 39 134 56 171 149 329 170 285 240
476 297 806 19 109 23 166 23 350 0 235 -13 339 -68 544 -14 51 -24 98 -22
104 1 7 1 8 -2 3 -3 -5 -17 24 -32 65 -71 194 -191 396 -334 560 -41 48 -72
90 -68 94 4 5 2 5 -4 2 -6 -4 -32 16 -58 43 -25 27 -46 47 -46 44 0 -2 -25 17
-57 42 -31 25 -87 66 -125 91 -37 25 -68 51 -68 56 0 6 -3 7 -6 4 -9 -9 -46
12 -39 23 3 5 -3 8 -12 8 -25 -1 -203 88 -195 97 4 5 2 5 -4 2 -19 -11 -121
36 -117 53 4 11 2 12 -4 2 -8 -10 -36 -5 -134 23 -68 20 -165 42 -216 48 -98
13 -132 25 -58 21 25 -1 45 1 45 4 0 4 -23 8 -50 9 -28 0 -50 -2 -50 -6 0 -5
-42 -11 -92 -14 -51 -4 -118 -13 -148 -21 -54 -14 -55 -14 -90 12 -19 15 -60
43 -92 63 -32 20 -55 39 -50 44 4 5 2 5 -4 2 -6 -4 -28 1 -48 11 l-36 18 107
17 c410 65 786 206 1073 400 41 28 80 50 87 50 6 0 11 3 10 7 -1 4 36 38 83
76 158 128 318 302 395 429 88 147 20 212 -310 294 -180 45 -472 66 -675 50z
m528 -238 c63 -11 121 -22 130 -25 9 -3 36 -10 60 -16 l42 -11 -16 -30 c-20
-40 -206 -224 -302 -301 -154 -122 -427 -286 -458 -274 -8 3 -13 2 -10 -3 7
-11 -143 -74 -161 -67 -8 3 -12 2 -9 -3 6 -9 -187 -70 -319 -100 -128 -29
-313 -54 -346 -47 -16 3 -29 1 -29 -4 0 -11 -318 -14 -393 -4 l-46 7 33 66
c45 87 145 223 158 215 7 -4 8 -2 4 5 -16 24 253 288 290 285 7 -1 11 2 9 7
-12 19 220 156 358 211 56 23 116 41 134 42 17 1 29 4 27 8 -6 10 171 47 296
62 19 2 125 3 235 1 147 -2 230 -9 313 -24z m-2768 -938 c0 -18 -75 -131 -83
-126 -6 3 -7 1 -3 -5 15 -25 -319 -392 -344 -377 -6 3 -9 1 -8 -5 4 -16 -183
-151 -200 -145 -7 3 -11 1 -7 -4 11 -19 -226 -145 -382 -205 -204 -77 -504
-146 -638 -146 -45 0 -44 2 23 113 84 140 246 342 265 330 5 -3 7 -1 4 4 -7
11 79 96 183 184 229 192 582 342 894 378 88 10 296 13 296 4z m563 -63 c96
-39 312 -111 375 -125 19 -4 30 -11 26 -17 -4 -7 -2 -8 5 -4 15 9 112 -15 105
-26 -3 -4 2 -5 11 -2 19 8 215 -56 212 -69 -1 -5 4 -12 12 -15 8 -3 11 0 7 7
-11 17 -1 14 80 -24 50 -23 73 -38 68 -46 -4 -7 -3 -9 2 -6 6 3 16 1 24 -4 12
-8 9 -13 -15 -31 -127 -90 -324 -354 -445 -596 -66 -133 -140 -344 -160 -457
-6 -38 -14 -81 -16 -94 l-5 -24 -24 23 c-14 13 -22 28 -18 34 3 6 3 8 -1 4 -9
-8 -202 131 -199 143 2 4 -5 5 -14 2 -12 -5 -14 -3 -8 7 5 8 4 11 -3 6 -14 -8
-154 68 -145 79 5 4 3 5 -4 1 -7 -4 -34 4 -60 17 -26 13 -65 30 -87 37 -29 9
-35 15 -25 22 10 7 6 8 -12 4 -15 -3 -47 1 -72 10 l-45 15 38 82 c132 289 239
658 271 939 11 91 16 108 33 118 15 7 16 9 3 5 -10 -2 -16 -1 -12 4 3 5 -1 12
-7 14 -7 3 -8 6 -3 6 6 1 54 -17 108 -39z m1637 -449 c139 -32 353 -107 345
-122 -4 -5 1 -6 9 -3 32 12 374 -196 359 -219 -3 -5 -1 -7 4 -4 27 17 313
-279 296 -306 -3 -5 -1 -7 4 -4 15 10 67 -73 65 -103 -1 -18 1 -21 7 -11 7 11
13 6 26 -19 10 -19 26 -49 37 -68 10 -19 17 -41 14 -49 -4 -9 -2 -11 6 -7 8 5
9 2 5 -10 -4 -9 -3 -15 2 -12 25 16 159 -409 137 -431 -3 -4 -2 -11 4 -18 5
-6 12 -49 16 -95 6 -70 5 -82 -7 -75 -9 6 -9 2 2 -11 13 -14 17 -43 18 -117 1
-55 -1 -97 -6 -94 -4 3 -9 -34 -9 -82 -2 -124 -38 -312 -89 -469 -50 -150 -97
-254 -175 -382 -29 -47 -71 -124 -95 -171 -42 -83 -57 -124 -105 -287 -16 -55
-31 -85 -61 -117 -52 -57 -93 -75 -167 -75 -84 0 -150 28 -262 111 -115 85
-175 116 -345 181 -71 27 -166 66 -211 88 -173 83 -375 239 -521 401 l-60 66
-7 152 c-16 368 -143 736 -348 1016 -35 47 -45 70 -46 105 -5 88 47 331 99
463 44 111 112 246 122 240 6 -3 7 -1 3 5 -7 12 41 97 123 217 83 121 117 160
199 226 60 49 77 57 88 48 8 -7 13 -18 10 -26 -3 -8 -2 -12 3 -9 10 6 25 -22
22 -41 -1 -6 4 -15 10 -19 8 -4 9 -3 5 4 -4 7 -5 12 -3 12 8 0 44 -65 56 -103
7 -20 26 -48 43 -63 27 -22 38 -25 77 -20 68 8 71 9 66 14 -2 2 2 17 10 33 8
15 15 36 15 47 0 25 -45 135 -76 183 -16 26 -20 39 -12 40 7 0 4 5 -7 10 -36
17 215 1 305 -20z m-2226 -860 c157 -32 382 -113 371 -132 -3 -4 0 -11 6 -15
8 -4 9 -3 5 4 -13 21 8 13 87 -33 47 -28 75 -50 71 -57 -4 -7 -3 -8 5 -4 29
18 370 -297 357 -330 -3 -8 0 -13 7 -11 7 1 11 -4 9 -11 -1 -8 2 -11 7 -8 11
7 57 -64 53 -83 -2 -7 1 -10 7 -7 13 9 94 -131 87 -150 -3 -8 -2 -13 3 -10 11
7 63 -101 63 -131 0 -13 4 -21 8 -18 4 2 13 -14 19 -36 7 -23 15 -48 17 -58 3
-9 -2 -5 -10 9 -8 14 -15 21 -15 15 0 -14 28 -62 30 -50 2 16 28 -82 45 -170
19 -96 32 -445 16 -445 -5 0 -8 -9 -5 -20 8 -29 -24 -187 -58 -290 -56 -167
-169 -388 -191 -374 -7 4 -8 2 -4 -4 15 -24 -215 -298 -241 -288 -8 3 -12 2
-9 -3 13 -20 -199 -184 -226 -175 -10 3 -18 0 -18 -6 0 -6 4 -8 10 -5 6 3 10
4 10 1 0 -10 -58 -35 -65 -28 -5 4 -5 2 -2 -4 7 -12 -98 -65 -215 -108 -315
-118 -683 -129 -1027 -30 -107 31 -284 115 -399 190 -109 71 -244 183 -235
197 3 6 2 7 -4 4 -17 -11 -122 111 -212 246 -86 128 -200 380 -187 414 3 8 2
12 -3 8 -5 -3 -19 34 -30 82 -57 245 -49 579 19 818 34 117 82 235 93 228 6
-3 7 -1 3 6 -4 6 11 46 35 88 78 142 171 264 286 373 239 228 516 366 853 426
114 20 446 11 574 -15z"/>
</g>
</svg>
