<?xml version="1.0" standalone="no"?>
<!DOCTYPE svg PUBLIC "-//W3C//DTD SVG 20010904//EN"
 "http://www.w3.org/TR/2001/REC-SVG-20010904/DTD/svg10.dtd">
<svg version="1.0" xmlns="http://www.w3.org/2000/svg"
 width="1024.000000pt" height="1024.000000pt" viewBox="0 0 1024.000000 1024.000000"
 preserveAspectRatio="xMidYMid meet">
<metadata>
Created by potrace 1.16, written by Peter Selinger 2001-2019
</metadata>
<g transform="translate(0.000000,1024.000000) scale(0.100000,-0.100000)"
fill="#000000" stroke="none">
<path d="M6767 8488 c-7 -5 -41 -8 -77 -8 -36 0 -90 -4 -120 -9 -30 -6 -73
-12 -95 -14 -22 -1 -45 -6 -50 -9 -6 -3 -27 -8 -47 -12 -189 -34 -580 -214
-648 -299 -24 -30 -8 -95 27 -103 37 -10 81 3 121 34 49 38 152 96 152 85 0
-4 4 -3 8 3 7 12 120 63 195 90 132 47 330 89 409 86 20 -1 39 2 42 7 8 12
318 12 396 1 36 -6 72 -11 80 -11 138 -12 491 -132 473 -162 -3 -6 -1 -7 5 -3
17 10 52 -12 46 -28 -3 -8 -1 -17 5 -21 7 -3 8 0 5 9 -9 23 6 20 51 -12 85
-58 164 -125 158 -135 -3 -6 -2 -7 4 -4 19 12 209 -235 197 -255 -3 -4 -1 -8
3 -8 5 0 17 -17 26 -37 26 -59 47 -123 40 -123 -3 0 -1 -6 4 -12 15 -20 22
-57 12 -64 -5 -3 -9 -11 -9 -17 0 -8 3 -7 9 2 26 40 41 -211 20 -339 -47 -297
-232 -571 -509 -755 -96 -64 -215 -128 -237 -128 -7 0 -13 -3 -13 -7 0 -18
-279 -111 -385 -129 -38 -6 -101 -18 -140 -26 -38 -8 -113 -19 -165 -24 -128
-11 -446 -13 -492 -2 -32 8 -40 6 -59 -15 -29 -31 -33 -77 -8 -100 29 -26 89
-33 294 -33 207 0 309 4 324 13 5 4 22 6 38 6 33 0 130 14 190 28 23 5 44 7
47 4 3 -2 12 0 20 7 8 6 29 13 47 15 19 2 47 9 62 15 15 6 31 10 35 9 8 -1 6
-2 147 52 111 42 126 47 139 48 5 0 12 4 15 9 3 5 42 28 86 52 287 153 479
346 605 606 134 277 153 615 49 890 -16 44 -34 87 -40 95 -5 8 -19 35 -32 60
-12 25 -24 47 -27 50 -3 3 -31 40 -62 82 -32 42 -81 98 -110 125 -29 26 -65
60 -81 76 -16 15 -30 27 -31 27 -2 0 -41 25 -87 57 -89 59 -236 132 -316 157
-26 7 -61 20 -78 27 -16 6 -34 13 -40 13 -33 5 -101 19 -109 24 -5 3 -23 6
-40 8 -17 2 -42 6 -56 9 -14 3 -65 8 -115 11 -49 3 -136 9 -193 13 -57 3 -108
3 -115 -1z"/>
<path d="M5360 8066 c-19 -7 -39 -14 -45 -16 -54 -14 -172 -68 -239 -109 -38
-22 -69 -41 -71 -41 -11 0 -215 -195 -215 -206 0 -1 -20 -31 -44 -66 -58 -83
-91 -151 -123 -250 -28 -89 -29 -91 -38 -188 -10 -100 -5 -223 9 -237 3 -3 6
-15 6 -26 0 -10 14 -59 30 -109 17 -49 27 -95 23 -101 -3 -7 -3 -9 2 -5 4 4
29 -28 54 -71 83 -138 181 -240 331 -346 150 -106 157 -113 165 -180 7 -48
-69 -176 -160 -272 -75 -79 -90 -107 -75 -144 30 -71 79 -86 183 -54 26 8 47
11 47 8 0 -3 6 0 13 6 8 6 22 12 33 14 22 5 22 5 163 65 101 42 200 91 306
149 111 62 171 97 190 112 39 31 25 104 -24 130 -21 12 -75 -11 -186 -79 -36
-22 -71 -41 -78 -43 -7 -1 -14 -4 -17 -8 -18 -19 -285 -148 -318 -153 -7 -1
-18 -8 -24 -14 -31 -31 -23 -5 19 55 25 36 46 71 47 77 1 6 10 35 20 64 26 75
19 163 -17 224 -21 36 -53 64 -147 127 -66 45 -120 86 -120 92 0 6 -4 8 -9 5
-13 -9 -143 134 -137 151 3 8 2 12 -3 8 -5 -3 -21 9 -36 26 -27 33 -80 129
-70 129 3 0 -1 10 -9 23 -54 85 -71 337 -31 487 3 14 8 36 11 50 7 32 68 152
107 210 69 102 213 228 324 284 68 34 151 67 183 72 14 2 32 5 41 7 17 3 88
47 77 47 -4 0 -3 11 2 25 8 20 5 30 -16 55 -29 34 -71 39 -134 16z"/>
<path d="M7322 7680 c-18 -4 -35 -9 -37 -11 -2 -2 -145 -144 -317 -314 -172
-171 -336 -331 -365 -357 -28 -26 -58 -57 -66 -69 -17 -24 12 -47 -287 237
-94 90 -147 125 -158 108 -4 -6 -17 -14 -29 -18 -13 -4 -23 -15 -23 -25 0 -10
-10 -26 -22 -35 -13 -9 -17 -14 -9 -10 10 5 13 3 8 -9 -4 -12 -2 -14 11 -10 9
3 14 3 11 0 -3 -4 72 -84 167 -179 95 -95 170 -177 167 -182 -4 -5 -1 -6 7 -1
7 4 15 4 19 -1 26 -37 104 -94 127 -94 23 0 104 76 456 428 404 403 428 429
428 463 0 51 -42 89 -88 79z"/>
<path d="M4010 5707 c-3 -3 -23 -7 -45 -9 -22 -2 -46 -7 -53 -12 -6 -4 -16 -5
-21 -1 -5 3 -12 1 -15 -4 -3 -5 -18 -12 -32 -15 -15 -4 -56 -20 -91 -36 -35
-16 -67 -30 -71 -31 -4 -2 -16 -11 -26 -21 -11 -10 -23 -18 -28 -18 -23 0
-160 -132 -218 -210 -26 -36 -68 -106 -92 -156 -47 -99 -45 -94 -60 -174 -5
-30 -12 -62 -15 -70 -23 -73 -4 -292 35 -412 14 -42 16 -60 8 -69 -8 -9 -8
-10 1 -5 9 5 22 -12 40 -51 16 -32 30 -60 33 -63 3 -3 13 -17 23 -32 9 -15 37
-51 61 -81 25 -30 43 -58 40 -61 -2 -3 -1 -4 2 -1 4 2 33 -20 66 -49 66 -60
197 -144 273 -175 36 -14 43 -20 25 -20 -25 0 -42 -3 -70 -14 -35 -14 -160
-45 -160 -40 0 3 -6 1 -12 -4 -15 -12 -150 -58 -160 -55 -5 1 -8 -2 -8 -8 0
-5 -5 -10 -10 -10 -36 0 -249 -123 -340 -195 -173 -139 -331 -350 -412 -550
-11 -27 -25 -61 -31 -75 -6 -14 -11 -27 -11 -30 -11 -49 -43 -140 -49 -140 -4
0 -6 -3 -3 -8 2 -4 -4 -43 -15 -87 -27 -116 -48 -240 -54 -318 -3 -38 -10 -80
-16 -95 -6 -14 -12 -93 -15 -174 -5 -130 -3 -148 10 -148 9 0 16 -4 16 -8 0
-4 15 -9 34 -10 50 -4 75 22 87 93 11 62 13 82 23 200 14 160 46 371 63 415 3
8 8 26 10 40 15 103 126 365 209 495 73 115 241 296 267 287 4 -1 7 2 7 7 0
14 129 96 220 140 136 65 342 136 425 147 11 1 20 3 20 4 0 2 9 4 20 6 11 2
56 11 100 20 44 8 109 19 145 23 109 14 143 36 143 93 0 34 -45 80 -69 71 -19
-7 -158 16 -227 39 -76 24 -187 78 -187 89 0 5 -4 8 -9 6 -17 -4 -131 85 -190
149 -82 87 -166 233 -175 304 -1 9 -6 21 -10 28 -15 24 -21 95 -20 227 0 119
3 138 31 218 17 48 46 113 64 143 40 66 165 204 185 204 8 0 14 4 14 9 0 15
111 78 185 106 56 21 70 23 83 13 10 -9 13 -9 9 -1 -16 26 146 43 283 28 116
-12 297 -75 283 -99 -3 -6 -3 -8 2 -4 4 4 20 -1 35 -12 16 -11 33 -20 39 -20
15 0 127 -112 123 -123 -1 -5 2 -6 7 -3 8 5 81 -85 81 -99 0 -3 11 -22 23 -43
55 -86 97 -256 97 -387 0 -75 -23 -202 -40 -219 -5 -5 -10 -19 -10 -31 0 -45
-115 -205 -147 -205 -7 0 -13 -4 -13 -10 0 -12 -77 -33 -96 -26 -7 3 -16 1
-20 -5 -3 -5 -13 -9 -22 -8 -10 2 -35 -5 -57 -15 -22 -9 -42 -18 -45 -18 -3
-1 -24 -22 -48 -47 -57 -62 -75 -120 -70 -224 4 -93 27 -152 102 -265 40 -60
48 -81 70 -192 13 -69 27 -147 31 -174 3 -27 8 -53 11 -57 4 -7 18 -72 29
-139 3 -14 12 -54 20 -89 9 -36 14 -73 12 -83 -3 -10 -1 -16 4 -12 7 4 12 -12
8 -28 0 -2 7 -20 16 -41 13 -31 13 -42 4 -53 -10 -12 -10 -14 0 -12 8 2 15 -6
17 -17 1 -10 7 -28 13 -40 23 -47 60 -165 51 -165 -5 0 -12 5 -15 10 -3 6 -10
10 -15 10 -6 0 -2 -9 7 -19 9 -11 21 -17 27 -15 9 3 51 -83 59 -122 2 -7 7
-18 13 -25 5 -8 16 -27 24 -44 8 -16 25 -45 38 -63 14 -17 20 -32 16 -32 -5 0
-1 -5 9 -11 14 -8 15 -14 7 -24 -8 -10 -8 -15 1 -21 8 -4 9 -3 5 4 -14 24 12
11 28 -13 19 -29 20 -39 4 -29 -7 4 -4 -2 6 -14 20 -23 32 -30 21 -12 -15 23
12 7 45 -27 46 -49 110 -103 121 -103 5 0 9 -5 9 -11 0 -5 4 -8 9 -5 5 3 14
-1 21 -8 6 -8 25 -18 41 -21 16 -4 29 -11 29 -16 0 -5 7 -9 16 -9 9 0 12 -5 8
-13 -5 -9 -4 -9 5 -1 9 8 26 7 64 -3 149 -40 312 -1 415 100 44 42 102 134
102 160 0 3 5 18 11 34 7 15 13 43 14 61 2 18 6 44 10 59 8 33 -9 167 -47 358
-33 165 -32 164 -41 185 -3 8 -15 42 -26 75 -11 33 -27 77 -35 98 -9 20 -13
37 -9 37 5 0 3 4 -2 8 -6 4 -21 32 -35 62 -54 120 -167 295 -251 386 -100 110
-238 214 -377 283 -34 17 -60 36 -57 42 4 5 1 8 -5 7 -7 -2 -24 29 -39 67 -15
39 -39 90 -52 114 -13 24 -28 52 -34 62 -5 11 -15 19 -21 19 -21 0 -25 32 -7
46 10 7 21 14 25 14 4 0 9 8 12 18 3 9 16 28 28 42 82 90 148 308 148 485 0
69 -4 107 -25 230 -2 11 -7 31 -11 45 -4 14 -7 26 -6 27 6 10 -109 216 -149
266 -69 88 -99 117 -185 181 -21 17 -42 34 -45 39 -3 5 -9 9 -12 8 -4 0 -44
17 -89 38 -131 61 -229 83 -403 88 -82 3 -152 3 -155 0z m717 -1587 c51 -31
115 -129 128 -195 2 -11 4 -21 4 -22 1 -2 0 -5 -1 -6 -2 -2 2 -10 9 -18 6 -8
14 -26 16 -39 3 -14 10 -38 16 -54 7 -16 9 -31 6 -34 -2 -3 0 -11 6 -19 6 -7
8 -13 4 -13 -4 0 -3 -6 3 -12 5 -7 24 -51 40 -98 17 -47 44 -116 60 -155 16
-38 30 -73 31 -77 6 -23 35 -89 57 -131 16 -30 23 -55 19 -70 -4 -14 -3 -17 3
-9 6 8 25 -24 62 -103 38 -81 65 -125 92 -149 21 -19 38 -31 38 -26 0 5 12 15
28 22 29 14 61 86 43 97 -11 7 -185 364 -196 401 -4 14 -20 52 -36 85 -16 33
-30 71 -31 85 -2 14 -9 31 -15 38 -7 7 -13 20 -13 28 0 8 -7 28 -15 44 -9 17
-11 30 -5 30 5 0 10 -4 10 -10 0 -5 6 -10 13 -10 7 0 28 -13 47 -30 19 -16 40
-29 45 -30 17 0 186 -161 179 -171 -3 -5 0 -9 5 -9 14 0 111 -132 105 -142 -3
-4 0 -8 5 -8 6 0 11 -6 11 -14 0 -8 4 -16 9 -18 9 -3 70 -119 94 -179 11 -28
12 -40 4 -49 -9 -9 -9 -11 2 -8 10 2 23 -23 42 -81 16 -46 26 -87 23 -92 -3
-5 -1 -9 3 -9 5 0 13 -20 19 -44 7 -33 7 -48 -4 -64 -9 -14 -10 -22 -3 -27 6
-3 11 -1 11 4 0 15 17 14 17 -1 1 -7 9 -49 18 -93 19 -85 25 -267 11 -325 -11
-49 -39 -101 -72 -134 -31 -30 -84 -61 -84 -49 0 5 -5 1 -10 -7 -7 -12 -30
-15 -102 -15 -77 0 -103 5 -150 26 -77 33 -151 86 -142 101 4 6 3 8 -3 5 -16
-10 -124 113 -158 180 -16 32 -35 65 -42 73 -13 16 -82 185 -86 210 -2 8 -9
26 -16 38 -7 13 -10 26 -7 29 3 4 2 11 -3 17 -14 17 -61 187 -55 197 3 5 0 9
-6 9 -7 0 -9 7 -6 16 4 9 2 22 -2 28 -16 20 -21 60 -10 74 9 10 8 12 -2 10
-14 -3 -32 56 -23 79 3 7 0 13 -7 13 -6 0 -10 8 -9 18 1 9 -1 24 -4 32 -3 8
-21 98 -41 200 -30 155 -42 199 -77 270 -23 47 -46 87 -50 90 -20 14 -51 111
-54 170 -3 51 1 70 16 92 12 16 26 25 34 21 9 -3 15 1 15 10 0 31 91 35 137 7z"/>
<path d="M6084 5596 c-24 -11 -35 -11 -44 -3 -8 9 -10 8 -5 -4 4 -11 -6 -27
-30 -48 -20 -17 -33 -31 -31 -31 3 0 -3 -19 -12 -42 -13 -30 -16 -56 -12 -85
4 -25 2 -47 -4 -53 -8 -8 -5 -9 8 -4 13 5 17 4 13 -3 -11 -18 82 -102 127
-115 58 -16 103 -12 151 14 97 53 134 143 104 253 -11 40 -94 129 -111 119 -4
-3 -8 -1 -8 3 0 14 -113 13 -146 -1z m101 -105 c3 -6 -3 -14 -12 -20 -16 -9
-16 -10 4 -8 12 0 20 4 17 8 -9 15 14 18 25 5 10 -11 8 -17 -6 -26 -16 -10
-16 -10 3 -5 49 13 30 -103 -20 -126 -35 -17 -91 -3 -116 28 -30 38 -26 88 9
124 29 29 83 40 96 20z"/>
<path d="M5606 5219 c-16 -4 -42 -20 -57 -35 -77 -73 -49 -201 50 -234 75 -24
159 21 180 97 11 38 -5 112 -28 131 -53 43 -96 55 -145 41z"/>
</g>
</svg>
