<?xml version="1.0" standalone="no"?>
<!DOCTYPE svg PUBLIC "-//W3C//DTD SVG 20010904//EN"
 "http://www.w3.org/TR/2001/REC-SVG-20010904/DTD/svg10.dtd">
<svg version="1.0" xmlns="http://www.w3.org/2000/svg"
 width="1024.000000pt" height="1024.000000pt" viewBox="0 0 1024.000000 1024.000000"
 preserveAspectRatio="xMidYMid meet">
<metadata>
Created by potrace 1.16, written by Peter Selinger 2001-2019
</metadata>
<g transform="translate(0.000000,1024.000000) scale(0.100000,-0.100000)"
fill="#000000" stroke="none">
<path d="M6200 7779 c-138 -30 -262 -73 -374 -132 -125 -66 -147 -86 -144
-130 2 -30 5 -33 36 -35 26 -2 50 7 96 37 322 210 796 239 1131 70 273 -139
435 -377 435 -639 -1 -168 -99 -371 -251 -515 -257 -244 -644 -366 -1083 -343
-149 8 -166 4 -166 -37 0 -53 66 -66 320 -61 233 4 322 19 525 87 482 162 779
528 752 925 -11 160 -57 280 -154 409 -129 170 -319 289 -562 352 -81 21 -126
25 -281 29 -159 3 -198 1 -280 -17z"/>
<path d="M5390 7490 c-119 -34 -244 -106 -336 -193 -46 -43 -91 -93 -100 -110
-62 -120 -77 -156 -90 -215 -57 -274 51 -550 277 -702 51 -34 82 -62 85 -77
11 -41 -23 -106 -101 -193 -45 -51 -75 -93 -75 -106 0 -12 -3 -29 -6 -38 -4
-11 0 -16 12 -16 16 0 17 2 4 10 -8 5 -10 10 -5 10 6 0 15 -4 20 -9 12 -11 54
-16 75 -9 8 3 42 14 75 24 94 27 188 68 283 122 48 27 111 58 140 68 41 15 52
23 52 41 0 56 -30 79 -82 61 -18 -6 -80 -38 -138 -71 -106 -61 -185 -99 -230
-112 l-25 -7 23 21 c45 44 76 121 76 191 1 84 -19 117 -92 155 -105 55 -211
182 -253 303 -26 75 -35 204 -20 284 22 110 74 203 165 293 90 90 173 139 296
175 89 27 97 32 102 70 3 22 -1 31 -19 39 -30 14 -34 13 -113 -9z"/>
<path d="M6476 6950 l-271 -269 -116 114 c-122 121 -148 135 -182 97 -33 -36
-20 -56 127 -200 116 -114 151 -142 173 -142 22 0 78 51 325 297 203 203 298
304 298 319 0 27 -30 54 -60 54 -17 0 -96 -73 -294 -270z"/>
<path d="M4270 5922 c-106 -38 -164 -75 -239 -151 -154 -154 -216 -390 -161
-606 11 -42 17 -82 13 -88 -3 -5 -2 -7 3 -4 5 3 25 -24 43 -59 57 -110 147
-196 275 -264 43 -22 52 -30 35 -30 -73 -1 -310 -81 -407 -139 -29 -17 -58
-29 -63 -25 -5 3 -8 1 -7 -5 4 -14 -63 -62 -76 -54 -6 3 -8 3 -4 -2 4 -4 -17
-34 -47 -67 -148 -159 -239 -356 -301 -648 -8 -36 -14 -75 -14 -87 0 -13 -5
-23 -11 -23 -5 0 -7 -4 -4 -10 3 -5 1 -45 -6 -87 -19 -130 -18 -149 11 -166
32 -19 67 -7 75 25 3 13 14 88 25 167 53 385 150 614 332 787 120 114 281 188
542 249 59 14 133 28 165 31 63 7 96 24 104 53 9 34 -30 58 -108 65 -38 4 -72
10 -75 14 -3 4 -16 8 -30 10 -50 5 -153 65 -220 128 -145 137 -200 325 -150
518 41 161 128 269 276 343 88 43 102 47 186 51 112 6 179 -8 284 -59 138 -65
248 -199 283 -342 15 -64 16 -201 1 -262 -30 -118 -111 -227 -184 -245 -97
-24 -114 -32 -148 -66 -70 -69 -75 -195 -13 -298 18 -30 30 -58 26 -62 -3 -4
-1 -4 5 -1 6 3 17 -6 25 -21 8 -15 17 -30 21 -33 5 -3 15 -54 23 -115 9 -60
24 -147 35 -194 59 -264 72 -317 99 -393 35 -101 61 -154 114 -230 174 -248
547 -244 634 8 28 79 24 269 -10 416 -77 343 -224 550 -482 679 -53 27 -90 51
-90 60 0 8 -2 17 -6 20 -3 3 -13 27 -23 54 -11 27 -34 66 -52 86 l-34 37 21
19 c36 32 100 134 120 188 44 126 49 277 13 396 -86 288 -327 461 -639 459
-94 0 -121 -4 -185 -27z m622 -1133 c21 -22 36 -44 33 -49 -3 -4 -1 -10 4 -12
5 -1 26 -58 45 -126 43 -146 85 -249 176 -434 37 -76 62 -138 56 -139 -6 0 -1
-4 12 -10 13 -5 21 -13 18 -17 -10 -16 64 -6 81 11 17 17 13 26 -69 190 -69
135 -158 329 -158 343 0 7 92 -50 114 -71 15 -13 30 -25 34 -26 4 0 6 -5 4
-11 -1 -5 2 -7 7 -4 10 7 84 -71 128 -134 105 -154 173 -378 176 -580 1 -90
-2 -112 -21 -155 -25 -55 -60 -97 -73 -89 -5 3 -9 1 -9 -5 0 -17 -70 -34 -120
-29 -122 12 -234 104 -304 251 -55 114 -129 379 -140 498 -2 20 -6 40 -9 45
-3 5 -13 63 -22 129 -15 108 -21 125 -53 174 -67 98 -81 127 -88 180 -5 38 -3
52 5 47 6 -4 9 -2 5 7 -9 24 43 57 89 57 34 0 46 -6 79 -41z"/>
<path d="M5798 5766 c-15 -8 -30 -11 -33 -8 -4 4 -6 3 -4 -3 1 -5 -5 -27 -14
-47 -22 -48 -21 -85 2 -128 38 -72 115 -98 188 -63 54 25 75 66 70 137 -3 53
-7 62 -40 92 -32 30 -44 34 -89 34 -29 0 -65 -6 -80 -14z m116 -67 c34 -27 35
-71 1 -104 -30 -30 -54 -31 -89 -4 -34 27 -35 71 -1 104 30 30 54 31 89 4z"/>
<path d="M5456 5505 c-21 -20 -26 -33 -26 -74 0 -43 4 -53 31 -75 57 -48 135
-25 159 48 31 95 -90 170 -164 101z"/>
</g>
</svg>
