<?xml version="1.0" standalone="no"?>
<!DOCTYPE svg PUBLIC "-//W3C//DTD SVG 20010904//EN" "http://www.w3.org/TR/2001/REC-SVG-20010904/DTD/svg10.dtd">
<svg xmlns="http://www.w3.org/2000/svg" version="1.0" width="1024.000000pt" height="1024.000000pt" viewBox="0 0 1024.000000 1024.000000" preserveAspectRatio="xMidYMid meet">
<metadata>
Created by potrace 1.16, written by Peter Selinger 2001-2019
<meta name="Producer" content="Online-Convert"/></metadata>
<g transform="translate(0.000000,1024.000000) scale(0.100000,-0.100000)" fill="#000000" stroke="none">
<path d="M7166 8389 c-72 -8 -96 -40 -96 -125 0 -41 -4 -63 -10 -59 -6 4 -9 -15 -8 -52 l1 -58 7 50 7 50 1 -58 c2 -50 6 -63 31 -88 36 -36 86 -39 125 -8 39 31 48 62 47 164 -2 115 -3 120 -28 148 -11 13 -22 28 -24 33 -2 5 -26 7 -53 3z"/>
<path d="M6523 8121 c-43 -27 -62 -101 -33 -136 8 -10 8 -14 -2 -18 -9 -4 -7 -6 4 -6 9 -1 20 -6 24 -13 5 -7 3 -8 -6 -3 -9 5 -11 4 -6 -3 4 -7 12 -12 19 -12 6 0 32 -20 57 -45 58 -57 96 -69 142 -47 45 23 72 79 58 118 -13 34 -123 149 -162 170 -36 19 -57 18 -95 -5z"/>
<path d="M7715 8122 c-45 -29 -153 -146 -160 -173 -3 -14 -1 -37 4 -53 14 -35 14 -39 -1 -30 -8 4 -10 3 -5 -2 5 -5 12 -9 15 -10 4 0 23 -8 42 -16 57 -26 87 -14 171 74 43 43 80 90 83 103 4 14 -1 41 -10 62 -10 21 -17 41 -16 44 0 3 -4 6 -11 6 -7 0 -28 3 -47 7 -26 5 -43 2 -65 -12z"/>
<path d="M7032 7906 c-41 -13 -91 -36 -113 -51 -22 -14 -45 -23 -52 -19 -7 4 -9 3 -4 -1 9 -11 -43 -66 -55 -59 -5 3 -7 2 -6 -3 2 -4 -12 -29 -30 -55 -50 -72 -83 -169 -86 -252 -1 -39 -6 -78 -11 -85 -5 -9 -4 -12 2 -8 6 4 13 -10 17 -34 4 -23 20 -68 36 -100 16 -33 27 -59 24 -59 -3 0 9 -12 26 -26 18 -16 29 -33 26 -41 -3 -8 -2 -12 3 -9 5 4 28 -10 52 -30 87 -72 179 -105 298 -105 94 0 171 19 237 57 22 13 44 22 47 19 4 -3 5 -2 2 1 -2 4 5 16 18 26 92 79 140 152 169 260 24 89 20 177 -12 263 -12 33 -23 68 -23 77 -1 9 -4 16 -8 15 -10 -3 -78 91 -71 99 4 4 2 4 -5 1 -6 -4 -23 6 -37 23 -14 17 -29 31 -33 31 -19 2 -61 34 -56 42 3 6 1 7 -6 3 -11 -7 -81 13 -81 24 0 3 -8 6 -17 7 -10 0 -54 4 -98 7 -69 6 -90 3 -153 -18z m230 -196 c67 -25 108 -62 101 -90 -3 -11 0 -20 6 -20 6 0 11 5 11 11 0 20 21 -3 45 -51 36 -71 35 -166 -2 -241 -16 -30 -35 -54 -43 -54 -8 -1 -14 -6 -13 -12 4 -17 -57 -65 -74 -59 -8 3 -12 2 -9 -3 10 -16 -83 -34 -147 -29 -74 6 -128 32 -179 85 -83 86 -105 213 -54 318 29 58 101 129 124 120 7 -2 10 0 7 5 -6 9 8 14 28 11 4 0 7 3 7 8 0 26 124 27 192 1z"/>
<path d="M6356 7551 c-3 -5 -23 -9 -43 -9 -29 0 -43 -7 -65 -31 -38 -43 -38 -90 1 -133 l29 -33 116 0 c112 0 116 1 143 27 20 21 27 37 26 65 0 59 -6 83 -19 83 -7 0 -14 5 -16 10 -2 6 -38 11 -80 12 -43 0 -75 5 -72 10 3 4 1 8 -5 8 -5 0 -12 -4 -15 -9z"/>
<path d="M7872 7541 c-63 -5 -76 -10 -92 -31 -20 -25 -27 -99 -12 -114 4 -4 7 -12 7 -17 0 -5 5 -9 10 -10 6 0 16 -6 24 -12 20 -17 189 -21 236 -5 54 18 82 71 65 123 -21 65 -71 78 -238 66z"/>
<path d="M6627 7026 c-19 -13 -38 -22 -41 -20 -3 2 -4 1 -1 -3 8 -11 -66 -82 -80 -77 -7 3 -16 1 -20 -5 -4 -7 1 -8 12 -4 17 6 17 5 -1 -15 -10 -12 -18 -34 -18 -49 2 -60 9 -86 23 -89 8 -1 28 -8 45 -15 46 -18 77 -5 148 62 93 87 120 162 73 197 -9 7 -15 18 -12 23 3 5 0 6 -8 3 -8 -3 -18 -1 -22 5 -11 19 -61 12 -98 -13z"/>
<path d="M7615 7039 c-33 -17 -55 -56 -60 -104 -3 -33 -1 -45 8 -45 23 0 56 -54 46 -73 -8 -13 -6 -15 6 -11 18 7 98 -42 90 -55 -2 -5 3 -15 12 -22 9 -8 14 -9 10 -3 -9 15 73 25 90 12 8 -6 11 -4 9 9 -2 10 5 31 16 48 31 52 24 80 -37 144 -30 32 -53 61 -50 64 3 4 2 5 -2 2 -3 -3 -16 4 -28 15 -26 24 -82 34 -110 19z"/>
<path d="M5965 6920 c-70 -4 -115 -13 -149 -28 -26 -12 -53 -19 -59 -15 -5 3 -7 1 -4 -4 7 -11 -38 -47 -58 -48 -5 0 -10 -7 -10 -15 -1 -8 -7 -13 -15 -12 -8 2 -12 0 -8 -3 4 -4 -6 -26 -22 -49 -55 -76 -72 -138 -80 -284 -5 -110 -10 -136 -25 -150 -10 -10 -15 -11 -10 -3 6 10 4 12 -4 7 -7 -5 -10 -10 -7 -13 3 -3 -7 -22 -23 -42 -40 -51 -89 -152 -106 -220 -16 -60 -26 -273 -12 -264 4 2 7 -2 7 -11 0 -8 3 -23 6 -33 6 -16 5 -16 -9 2 -15 19 -15 19 -10 -8 6 -29 23 -47 23 -25 1 7 11 -12 24 -42 71 -171 208 -294 386 -347 41 -12 71 -22 65 -22 -14 -1 -19 -150 -6 -184 6 -16 7 -26 2 -23 -5 4 -7 -11 -4 -34 4 -28 2 -40 -7 -40 -10 0 -10 -3 0 -15 7 -8 10 -22 6 -30 -3 -10 -2 -13 4 -10 7 4 10 -13 8 -48 -2 -50 -3 -53 -26 -49 -18 3 -20 7 -10 13 10 7 9 9 -4 9 -9 0 -20 -5 -23 -10 -4 -6 -10 -8 -15 -5 -22 14 -366 71 -600 99 -25 3 -58 8 -75 11 -50 8 -194 25 -295 35 -52 6 -106 12 -120 14 -14 3 -59 8 -100 11 -41 3 -91 8 -110 10 -19 3 -60 7 -90 10 -30 3 -66 7 -80 10 -77 15 -910 83 -1315 107 -114 7 -193 16 -197 22 -5 8 -8 7 -8 -1 0 -7 -5 -13 -11 -13 -5 0 -8 3 -6 8 3 4 -43 7 -101 7 -59 0 -202 4 -318 9 -230 10 -242 8 -269 -45 -20 -39 -11 -93 21 -118 27 -21 89 -27 399 -36 264 -8 389 -17 397 -29 5 -7 8 -7 8 -1 0 9 146 5 275 -9 203 -21 274 -30 271 -35 -2 -3 26 -7 63 -8 36 -2 102 -10 146 -18 44 -8 94 -17 110 -19 62 -7 255 -58 250 -66 -3 -4 4 -6 14 -3 24 6 203 -56 195 -68 -3 -5 2 -6 10 -3 9 3 16 1 16 -6 0 -6 5 -8 10 -5 11 7 120 -34 120 -45 0 -4 6 -7 13 -7 7 0 45 -18 84 -41 61 -36 70 -45 66 -63 -4 -15 -3 -20 6 -15 6 4 9 12 6 17 -16 24 17 4 66 -42 30 -28 48 -48 42 -44 -7 3 -13 2 -13 -3 0 -5 9 -12 20 -15 11 -3 27 -21 35 -41 18 -43 21 -161 3 -150 -7 5 -8 3 -4 -5 15 -23 -55 -148 -75 -135 -5 3 -6 -1 -3 -9 6 -16 -59 -70 -71 -59 -5 4 -5 2 -2 -5 8 -13 -63 -73 -87 -73 -9 0 -15 -4 -14 -10 4 -12 -92 -81 -104 -74 -5 3 -7 1 -6 -4 2 -5 -26 -31 -62 -58 -36 -26 -96 -79 -135 -118 -38 -39 -74 -70 -78 -68 -5 1 -6 -2 -3 -7 3 -5 -8 -25 -24 -46 -46 -58 -134 -240 -171 -352 -22 -68 -36 -98 -42 -90 -6 8 -7 5 -3 -7 15 -43 -59 -220 -134 -321 -73 -99 -207 -204 -355 -278 -119 -59 -245 -110 -275 -111 -15 -1 -26 -3 -24 -5 10 -11 -153 -62 -181 -57 -16 2 -23 2 -15 -1 35 -15 -330 -93 -594 -128 -82 -11 -114 -19 -131 -35 -12 -11 -25 -17 -29 -13 -4 4 -4 -1 0 -11 5 -14 4 -17 -5 -11 -10 5 -11 2 -7 -13 4 -11 2 -23 -4 -27 -5 -3 -10 -17 -10 -30 0 -18 4 -23 15 -19 9 4 15 0 15 -8 0 -21 83 -42 138 -34 108 15 159 21 194 21 20 0 35 3 33 6 -2 3 30 11 72 18 42 7 129 26 195 42 66 16 129 27 141 25 12 -1 16 -1 8 1 -7 3 65 31 160 63 96 32 221 79 278 104 117 52 293 154 352 204 23 20 44 30 51 26 7 -4 10 -4 6 1 -4 4 22 40 59 79 118 127 176 237 263 501 54 164 113 294 156 340 13 14 24 29 24 33 0 15 76 82 84 75 4 -5 6 -1 4 7 -2 8 3 14 10 12 8 -1 11 1 8 6 -7 12 29 43 159 136 219 156 317 253 374 366 55 111 69 194 47 292 -18 83 -65 170 -124 231 -39 41 -201 154 -214 149 -5 -1 -8 2 -8 7 0 4 -26 19 -57 33 -118 51 -112 47 -75 45 19 -1 36 -5 38 -9 3 -5 9 -6 13 -4 7 5 187 -18 381 -49 58 -9 119 -18 135 -20 57 -7 270 -55 358 -80 48 -14 90 -25 93 -25 3 0 2 -4 -1 -10 -3 -5 0 -7 8 -4 8 3 30 -2 48 -11 19 -8 25 -13 12 -11 -15 2 -20 0 -16 -10 3 -10 10 -10 27 -3 19 9 36 4 94 -25 40 -20 71 -41 69 -47 -1 -6 5 -14 13 -16 13 -4 13 -3 0 6 -8 6 -11 11 -6 11 15 0 76 -50 76 -62 0 -7 -7 -3 -16 8 -14 18 -15 18 -4 -3 6 -13 18 -23 26 -23 9 0 12 5 8 13 -5 8 -3 8 9 -2 9 -7 14 -18 10 -24 -3 -5 -2 -7 4 -4 13 8 76 -57 66 -68 -5 -4 -3 -5 3 -2 14 8 68 -68 59 -83 -3 -6 -1 -9 5 -8 15 4 37 -57 46 -120 10 -84 -19 -182 -110 -372 -84 -173 -116 -259 -116 -310 0 -15 -3 -29 -6 -33 -8 -7 -9 -111 -2 -123 3 -5 8 -31 11 -59 3 -27 3 -42 1 -32 -8 26 -24 21 -22 -7 1 -14 5 -23 9 -20 4 2 10 -4 12 -13 4 -15 5 -15 6 2 1 11 15 -13 31 -53 16 -41 26 -81 23 -90 -4 -10 -2 -13 5 -8 7 4 12 1 12 -8 0 -8 -3 -16 -7 -19 -5 -2 -3 -2 4 -1 15 4 76 -125 68 -145 -3 -8 -3 -12 1 -8 4 4 14 -7 21 -24 7 -18 11 -34 8 -37 -2 -3 -8 5 -13 18 -7 18 -10 20 -15 8 -3 -10 3 -20 18 -28 42 -22 46 -170 9 -284 -12 -36 -19 -45 -26 -35 -7 10 -8 8 -4 -6 12 -42 -100 -182 -216 -271 -31 -24 -59 -44 -63 -44 -3 0 -16 -9 -28 -20 -12 -11 -45 -34 -73 -50 -28 -16 -61 -41 -73 -56 -11 -15 -21 -21 -21 -14 0 7 -3 11 -6 7 -3 -3 -1 -29 6 -57 10 -40 19 -56 44 -71 62 -38 98 -26 244 82 50 38 92 67 92 65 0 -15 191 192 227 248 144 215 155 465 31 709 -11 23 -16 47 -13 60 4 14 3 17 -2 9 -11 -15 -47 54 -37 70 4 6 3 8 -3 5 -11 -7 -58 126 -67 188 -6 45 8 149 29 210 7 22 49 114 94 203 47 98 86 192 95 232 31 137 16 274 -44 391 -16 31 -26 60 -22 65 4 4 2 4 -5 0 -7 -4 -24 11 -43 39 -17 25 -59 68 -93 97 -34 28 -53 49 -42 47 11 -3 84 -21 162 -39 81 -19 139 -38 136 -43 -4 -6 -1 -7 6 -2 15 9 173 -34 166 -45 -3 -5 3 -6 12 -4 10 3 74 -15 143 -40 166 -59 161 -57 153 -69 -3 -5 -1 -7 4 -4 14 9 104 -23 97 -34 -3 -5 2 -6 10 -3 18 7 148 -60 138 -71 -4 -5 -1 -5 5 -1 16 9 174 -84 166 -98 -3 -5 -1 -6 4 -3 13 8 119 -70 115 -84 -1 -6 2 -8 8 -4 13 8 101 -75 93 -88 -3 -5 -2 -7 4 -4 13 8 96 -77 86 -88 -5 -4 -3 -5 3 -2 14 8 88 -79 79 -93 -4 -6 -1 -9 7 -8 7 2 14 -4 14 -12 1 -8 3 -19 4 -25 1 -5 2 -13 2 -17 -1 -3 6 -9 15 -12 14 -6 14 -4 -1 19 -9 14 -14 25 -11 25 12 0 96 -140 90 -150 -3 -6 -1 -9 6 -8 15 4 60 -72 52 -86 -3 -5 -1 -6 5 -2 12 7 16 -5 13 -33 -2 -7 2 -10 7 -7 5 3 24 -21 41 -53 17 -33 27 -61 22 -63 -5 -1 -3 -14 5 -28 l15 -25 -6 25 c-3 14 6 4 20 -23 14 -26 23 -53 19 -60 -4 -7 -3 -8 1 -4 11 9 88 -180 80 -194 -4 -5 -1 -9 4 -9 6 0 11 -9 11 -19 0 -11 4 -22 9 -25 12 -8 21 -46 11 -46 -5 0 -12 9 -15 20 -3 11 -11 20 -16 20 -6 0 -2 -13 7 -29 10 -17 21 -28 26 -25 10 7 22 -42 15 -66 -3 -11 -1 -18 3 -15 12 7 24 -57 25 -130 0 -42 4 -59 13 -58 7 2 12 -7 11 -20 0 -12 -3 -16 -6 -9 -2 6 -9 12 -14 12 -6 0 -6 -7 0 -19 6 -10 7 -21 3 -25 -3 -4 1 -4 10 -1 13 5 17 -11 28 -112 16 -141 16 -141 18 -366 l2 -179 34 -34 c18 -18 32 -35 30 -37 -2 -1 13 -1 34 1 89 8 116 48 108 155 -3 40 -8 137 -11 217 -4 80 -13 201 -21 269 -8 68 -13 130 -10 138 3 7 2 13 -3 13 -5 0 -12 26 -16 58 -11 91 -73 321 -103 382 l-27 55 -3 1189 c-2 757 -6 1196 -13 1207 -14 28 -63 50 -96 43 -53 -10 -83 -48 -83 -103 0 -30 -2 -31 -42 -32 -24 0 -54 -2 -68 -5 -21 -3 -295 -24 -808 -61 -91 -7 -107 1 -95 44 3 14 1 23 -7 23 -6 0 -8 -6 -4 -12 4 -7 -5 -2 -20 12 -33 30 -94 34 -124 7 -10 -9 -21 -15 -23 -12 -9 9 -11 -39 -15 -408 -3 -304 -7 -383 -18 -399 -13 -19 -14 -19 -24 -1 -9 15 -13 16 -24 4 -7 -8 -8 -11 -2 -8 7 4 18 0 25 -9 12 -14 14 -14 25 0 10 14 12 13 16 -12 l4 -28 -161 47 c-88 25 -195 55 -238 65 -58 13 -74 20 -60 26 12 5 8 6 -12 3 -16 -2 -57 1 -90 8 l-60 13 -3 243 c-2 240 -2 243 18 238 11 -3 20 -2 20 2 0 8 106 36 127 34 7 0 11 3 8 6 -2 4 11 15 30 24 53 25 172 144 212 211 135 229 118 484 -45 699 -51 67 -52 69 -52 140 -1 193 -38 296 -146 405 -36 37 -68 66 -70 64 -9 -6 -102 33 -98 40 3 4 4 7 2 6 -2 0 -48 -4 -103 -8z m116 -225 c43 -31 49 -40 19 -30 -11 3 -20 3 -20 -2 0 -5 10 -9 23 -10 53 -4 77 -74 77 -228 0 -128 8 -162 49 -214 17 -21 27 -42 23 -46 -4 -5 -2 -5 5 -1 18 10 76 -79 68 -107 -4 -15 -4 -18 3 -8 11 15 20 -10 42 -106 18 -80 -6 -207 -38 -197 -14 5 -15 4 -2 -5 13 -9 12 -16 -10 -56 -25 -47 -30 -52 -88 -106 -33 -30 -92 -60 -144 -73 l-28 -6 0 217 c0 198 -2 221 -20 250 -24 40 -73 52 -118 29 -46 -24 -56 -50 -58 -166 -2 -58 -4 -107 -5 -110 0 -3 0 -21 0 -40 1 -27 -1 -31 -8 -20 -14 20 -14 4 0 -22 6 -11 12 -32 14 -46 2 -15 2 -21 -1 -14 -11 25 -24 11 -24 -25 0 -28 3 -34 10 -23 5 8 10 12 10 8 0 -3 2 -13 6 -21 4 -12 -1 -12 -38 -3 -101 27 -181 98 -232 206 -29 60 -31 73 -31 175 0 96 3 116 24 160 34 70 70 117 84 109 7 -4 9 -4 5 0 -4 5 9 30 27 58 39 57 43 72 48 228 3 92 8 123 25 157 12 23 27 45 33 49 8 5 9 3 4 -6 -5 -9 -4 -11 4 -6 6 4 9 11 6 15 -7 13 29 41 72 57 57 21 136 12 184 -21z m1784 -1383 c-16 -11 -16 -32 0 -32 9 0 15 9 15 25 0 14 3 25 8 25 4 0 5 -111 2 -247 -3 -137 -3 -345 0 -464 l5 -215 -55 29 c-57 30 -78 45 -47 34 11 -4 16 -3 12 3 -3 6 -15 10 -26 10 -18 0 -19 11 -19 419 l0 420 53 3 c56 3 67 1 52 -10z m-290 -377 c0 -279 -3 -375 -12 -375 -26 0 -100 39 -100 53 0 9 7 13 19 9 10 -2 18 1 18 7 0 6 -9 11 -20 11 -20 0 -20 7 -20 330 l0 330 38 -1 37 -2 -35 -7 -35 -7 32 -2 c17 0 35 4 38 9 4 6 11 8 16 5 5 -4 9 -1 9 4 0 6 3 11 8 11 4 0 7 -169 7 -375z m-295 41 l0 -315 -54 19 c-30 10 -57 16 -60 13 -3 -3 -5 128 -6 290 l-1 296 43 4 c24 2 51 4 61 5 16 2 17 -19 17 -312z m-300 39 c0 -197 -3 -255 -12 -255 -23 0 -88 21 -89 28 0 12 -1 416 0 444 1 23 6 27 39 31 20 2 43 4 50 5 9 2 12 -55 12 -253z m-16 -450 c114 -29 315 -98 310 -106 -3 -5 1 -6 9 -3 26 10 380 -141 399 -170 4 -6 8 -8 8 -3 0 4 14 0 30 -8 18 -9 28 -21 24 -27 -4 -6 -3 -8 4 -4 6 3 33 -8 61 -25 43 -27 49 -34 38 -47 -10 -13 -8 -14 16 -8 l27 6 1 -172 c1 -95 3 -186 4 -203 1 -16 -1 -36 -5 -43 -4 -8 -4 -33 0 -58 4 -24 4 -44 0 -44 -11 0 -41 71 -34 81 3 5 0 8 -8 7 -7 -2 -12 5 -12 14 1 10 -2 16 -6 13 -15 -10 -22 16 -9 33 11 14 11 15 0 5 -11 -9 -26 6 -79 80 -35 51 -84 114 -108 141 -24 26 -41 53 -37 60 3 6 2 8 -2 3 -11 -9 -86 63 -79 75 3 5 2 7 -3 6 -14 -5 -133 105 -126 115 3 6 1 7 -5 3 -13 -8 -148 91 -144 106 1 5 -2 7 -8 3 -6 -3 -37 10 -69 29 -32 20 -103 58 -157 86 -152 76 -158 84 -40 55z"/>
<path d="M7107 6863 c3 -7 1 -13 -4 -13 -23 0 -33 -57 -33 -179 0 -123 1 -128 25 -151 15 -14 43 -26 68 -30 37 -5 45 -2 70 23 15 16 27 36 27 44 0 8 5 11 12 7 8 -5 9 -2 3 12 -12 28 -13 224 -2 224 6 0 -8 18 -31 40 -37 37 -44 40 -90 38 -36 -2 -48 -6 -45 -15z"/>
<path d="M2142 4652 c-40 -37 -46 -84 -16 -126 11 -16 11 -23 1 -35 -11 -14 -10 -14 6 -2 11 9 21 10 30 3 6 -5 39 -13 72 -17 63 -7 119 -30 110 -44 -2 -5 3 -8 13 -7 9 0 16 -4 15 -10 -1 -6 3 -11 10 -11 7 0 36 -17 66 -37 115 -78 260 -88 387 -26 38 19 75 34 81 33 7 0 11 3 8 7 -3 4 10 19 28 32 92 71 190 92 273 60 70 -26 147 -80 140 -98 -3 -8 -1 -14 4 -14 6 0 10 5 10 11 0 5 13 2 29 -7 17 -10 30 -20 29 -23 -2 -18 3 -25 10 -14 5 8 19 8 57 -2 66 -17 160 -13 183 8 10 10 21 15 23 12 5 -5 10 23 12 78 2 59 -34 88 -114 94 -86 5 -111 11 -103 25 4 6 3 8 -4 4 -6 -3 -51 20 -100 52 -111 73 -154 86 -274 80 -106 -5 -174 -30 -265 -99 -30 -22 -58 -37 -65 -33 -6 4 -8 3 -5 -3 10 -16 -42 -35 -109 -40 -48 -4 -71 -1 -108 16 -26 11 -45 25 -41 31 3 5 0 7 -8 5 -16 -7 -63 33 -59 49 2 6 1 8 -3 4 -4 -4 -36 10 -72 29 -55 31 -78 37 -142 41 -74 4 -77 3 -109 -26z"/>
<path d="M2205 4128 c-17 -4 -37 -5 -45 -2 -8 3 -11 2 -7 -2 4 -4 -5 -20 -20 -36 -67 -70 -2 -168 111 -168 43 0 89 -17 81 -29 -3 -5 0 -13 6 -17 8 -5 9 -3 4 6 -5 8 -3 11 6 8 8 -3 13 -11 11 -17 -1 -7 1 -10 6 -7 13 8 53 -24 46 -36 -4 -7 -2 -8 4 -4 14 8 74 -28 64 -39 -4 -5 -2 -5 5 -2 13 8 45 -2 39 -12 -9 -14 269 -16 284 -1 11 11 146 75 153 72 5 -1 6 2 3 7 -4 5 18 25 48 44 51 31 61 34 133 32 82 -1 161 -29 155 -55 -1 -6 1 -9 6 -6 5 3 33 -12 64 -32 40 -27 54 -42 52 -57 -2 -17 -1 -18 8 -4 10 14 16 15 56 3 52 -16 159 -18 196 -4 37 14 58 60 48 107 -11 55 -57 83 -134 83 -61 0 -129 26 -145 54 -7 13 -12 16 -29 16 -4 0 0 8 7 18 13 15 12 16 -3 4 -14 -11 -24 -8 -65 17 -109 67 -266 80 -368 31 -27 -13 -56 -24 -62 -23 -7 0 -11 -3 -8 -7 7 -11 -125 -98 -165 -110 -19 -6 -53 -10 -76 -10 -43 0 -133 23 -143 37 -9 13 -104 79 -142 99 -57 29 -151 51 -184 42z"/>
<path d="M3070 3573 c-56 -12 -128 -47 -209 -104 -59 -41 -93 -59 -108 -56 -12 2 -20 1 -18 -4 8 -12 -53 -15 -115 -6 -41 6 -72 19 -122 54 -37 25 -65 50 -61 56 3 6 2 7 -4 4 -5 -3 -33 5 -61 19 -132 63 -262 33 -262 -61 0 -66 38 -96 140 -111 61 -9 123 -43 109 -60 -8 -9 -5 -11 9 -7 11 2 37 -6 58 -19 95 -59 142 -72 262 -74 62 0 110 1 107 4 -2 3 17 15 43 27 27 12 71 39 100 59 28 21 56 35 62 31 6 -4 9 -1 8 6 -4 18 79 48 132 48 25 0 64 -8 88 -19 50 -23 157 -97 157 -110 0 -4 4 -12 9 -17 6 -5 6 -2 1 6 -6 11 -4 13 9 8 10 -4 20 -7 22 -7 2 0 4 -4 4 -10 0 -5 -8 -10 -17 -10 -12 0 -14 -3 -7 -10 16 -16 44 -1 37 18 -5 14 -3 15 8 5 7 -7 25 -13 39 -13 14 0 32 -6 39 -12 11 -10 13 -10 7 0 -5 8 1 12 19 12 40 0 85 50 85 95 0 41 -43 94 -79 96 -12 1 -25 3 -31 4 -5 1 -15 3 -21 4 -5 0 -8 4 -6 9 3 4 -6 8 -20 8 -13 1 -34 11 -46 21 -29 26 -117 78 -164 99 -39 16 -159 27 -203 17z"/>
</g>
</svg>
