<?xml version="1.0" standalone="no"?>
<!DOCTYPE svg PUBLIC "-//W3C//DTD SVG 20010904//EN" "http://www.w3.org/TR/2001/REC-SVG-20010904/DTD/svg10.dtd">
<svg xmlns="http://www.w3.org/2000/svg" version="1.0" width="1024.000000pt" height="1024.000000pt" viewBox="0 0 1024.000000 1024.000000" preserveAspectRatio="xMidYMid meet">
<metadata>
Created by potrace 1.16, written by Peter Selinger 2001-2019
<meta name="Producer" content="Online-Convert"/></metadata>
<g transform="translate(0.000000,1024.000000) scale(0.100000,-0.100000)" fill="#000000" stroke="none">
<path d="M5697 8358 c-41 -18 -50 -19 -59 -7 -8 11 -9 10 -4 -5 5 -14 2 -17 -9 -12 -9 3 -14 2 -11 -2 3 -5 -24 -21 -60 -36 -49 -22 -68 -26 -77 -17 -6 6 -16 11 -21 11 -6 0 -3 -6 8 -12 17 -9 14 -13 -25 -32 -49 -25 -89 -76 -89 -113 0 -13 7 -40 15 -60 11 -26 12 -39 4 -49 -8 -10 -6 -12 12 -9 23 5 86 -40 81 -57 -1 -5 2 -7 8 -3 11 7 146 -94 142 -107 -1 -5 2 -7 8 -3 11 7 71 -35 65 -45 -2 -4 2 -7 9 -7 18 0 137 -84 131 -93 -3 -4 3 -7 13 -6 10 0 16 -5 14 -14 -2 -8 0 -12 3 -8 11 10 47 -11 40 -23 -4 -5 -3 -9 2 -8 21 4 34 -2 27 -13 -4 -7 -3 -8 4 -4 14 9 143 -84 135 -97 -3 -6 -1 -7 5 -3 13 8 74 -33 67 -44 -3 -4 3 -7 13 -6 10 0 16 -5 14 -14 -2 -8 0 -12 3 -8 11 11 47 -11 39 -24 -4 -7 -2 -8 5 -4 13 9 44 -12 36 -24 -3 -4 3 -7 13 -6 9 0 16 -5 14 -12 -1 -8 2 -11 8 -7 12 7 102 -54 95 -65 -3 -4 3 -7 13 -6 9 0 16 -4 15 -11 -2 -8 4 -10 15 -6 15 6 15 5 3 -11 -8 -9 -20 -15 -28 -12 -8 3 -12 2 -9 -2 6 -10 -273 -178 -291 -176 -7 1 -10 -2 -8 -7 8 -11 -33 -31 -47 -23 -6 4 -8 3 -5 -3 9 -14 -61 -56 -75 -47 -6 4 -9 3 -5 -2 3 -5 -26 -29 -64 -53 -61 -37 -72 -41 -87 -29 -15 12 -16 11 -3 -4 16 -22 8 -23 -54 -7 -25 6 -42 15 -39 20 3 5 -1 6 -8 4 -8 -3 -117 20 -243 50 -193 47 -358 74 -340 56 9 -8 -77 -51 -88 -44 -7 3 -9 3 -5 -2 9 -10 -8 -22 -104 -77 -40 -23 -78 -48 -85 -57 -7 -9 -13 -37 -13 -63 0 -40 5 -51 35 -79 18 -18 31 -37 28 -42 -3 -6 -1 -7 4 -4 13 8 98 -58 98 -75 0 -7 9 -13 20 -13 11 0 19 -6 17 -13 -1 -8 2 -11 6 -8 13 8 103 -64 95 -77 -3 -5 -1 -7 4 -4 13 8 89 -51 85 -65 -1 -5 1 -7 6 -4 13 8 53 -24 46 -36 -4 -6 -2 -8 4 -4 6 3 37 -12 69 -34 65 -44 132 -64 268 -80 190 -21 320 -10 464 40 46 16 88 27 94 23 6 -3 7 -1 4 4 -4 6 9 17 31 26 20 8 67 29 105 47 37 17 72 28 79 24 7 -5 8 -3 3 6 -6 10 -4 12 9 7 9 -4 15 -3 12 2 -7 11 392 203 406 195 7 -4 8 -3 4 4 -4 7 7 18 25 28 l32 16 -5 -26 c-3 -14 -1 -23 3 -20 5 3 9 -2 9 -10 0 -9 9 -96 20 -194 30 -260 97 -899 103 -984 1 -14 4 -25 6 -22 2 2 15 -6 29 -16 31 -25 65 -25 121 0 23 11 48 17 54 13 5 -3 7 -1 4 4 -8 13 151 105 166 96 5 -3 7 -2 4 4 -8 12 69 57 83 48 6 -4 9 -1 8 7 -2 7 5 12 14 12 10 -1 16 1 15 5 0 3 4 16 11 28 11 19 58 266 92 485 7 43 16 76 20 73 4 -2 5 6 3 18 -2 12 23 189 56 392 34 204 64 387 67 408 3 20 9 35 13 33 4 -3 6 7 4 22 -6 36 20 108 36 104 7 -1 10 1 8 5 -8 13 21 46 33 38 6 -3 9 -2 8 5 -4 14 200 132 214 124 6 -4 8 -3 5 2 -8 13 100 77 115 68 6 -4 8 -3 5 3 -8 13 50 46 65 37 6 -4 8 -3 5 3 -8 13 50 46 65 37 6 -4 8 -3 4 4 -3 5 10 20 29 32 28 17 39 19 49 11 10 -9 16 -9 21 -1 4 6 3 10 -2 9 -23 -4 -25 3 -5 17 19 13 26 14 40 2 15 -12 16 -11 4 4 -11 14 -10 18 8 28 11 6 26 8 32 4 6 -4 8 -3 5 3 -7 11 98 80 115 75 5 -1 7 2 4 7 -6 10 41 44 61 44 7 0 10 4 7 8 -5 9 52 54 69 54 7 0 12 5 12 10 0 16 16 36 24 31 4 -3 8 0 8 7 0 14 69 118 74 112 5 -4 7 16 15 106 4 48 1 76 -10 104 -9 20 -13 41 -10 46 3 5 2 8 -3 7 -4 -1 -26 15 -47 35 -37 35 -166 97 -201 97 -9 0 -14 3 -12 8 10 15 -207 14 -276 -2 -38 -9 -74 -13 -79 -10 -6 4 -8 2 -5 -3 4 -6 -6 -16 -24 -22 -17 -6 -85 -40 -150 -76 -67 -37 -125 -63 -132 -59 -6 4 -9 4 -5 -1 11 -11 -29 -38 -44 -29 -7 5 -8 3 -3 -6 6 -10 4 -12 -9 -7 -10 4 -15 3 -11 -3 8 -12 -52 -43 -67 -34 -6 4 -9 3 -5 -2 7 -13 -260 -167 -275 -158 -7 4 -8 3 -4 -4 8 -14 -50 -46 -66 -36 -7 4 -8 3 -4 -4 8 -14 -30 -35 -47 -26 -6 4 -9 4 -5 -1 11 -11 -29 -38 -44 -29 -7 4 -8 3 -4 -4 4 -7 -6 -18 -25 -27 -30 -16 -34 -15 -110 16 -43 18 -75 37 -72 42 3 6 1 7 -6 3 -14 -9 -122 34 -115 46 3 4 -3 5 -12 1 -13 -5 -15 -3 -9 7 5 9 4 11 -4 6 -16 -10 -53 3 -45 16 4 7 2 8 -5 4 -16 -10 -123 33 -114 47 3 6 1 7 -6 3 -6 -4 -36 3 -66 15 -47 19 -53 25 -42 38 10 14 10 14 -5 3 -14 -11 -36 -6 -147 38 -72 29 -129 56 -126 60 3 5 -5 6 -17 2 -14 -3 -19 -1 -14 6 5 8 1 10 -10 5 -13 -5 -15 -3 -9 7 5 9 4 11 -4 6 -16 -10 -152 44 -144 57 3 6 1 7 -5 4 -13 -9 -123 33 -116 44 3 5 -1 6 -9 3 -8 -3 -32 2 -53 11 -202 87 -290 101 -377 63z m203 -199 c46 -18 77 -36 73 -42 -3 -6 -1 -7 6 -3 15 9 53 -3 46 -15 -3 -5 2 -6 11 -2 13 5 15 3 9 -7 -5 -9 -4 -11 4 -6 16 10 53 -3 45 -16 -4 -7 -2 -8 5 -4 6 4 20 4 32 1 17 -6 18 -9 7 -23 -12 -15 -11 -16 5 -3 15 12 43 3 242 -80 123 -51 221 -97 218 -103 -3 -5 -1 -6 6 -2 16 10 102 -24 94 -37 -3 -6 -1 -7 6 -3 15 10 122 -34 114 -47 -3 -6 -1 -7 6 -3 16 10 53 -3 45 -16 -4 -6 -2 -8 4 -4 13 8 144 -43 137 -54 -3 -5 5 -6 17 -2 16 4 19 2 13 -8 -5 -9 -4 -11 4 -6 7 4 20 5 29 1 13 -5 2 -16 -46 -46 -34 -22 -68 -37 -74 -33 -6 4 -8 3 -5 -3 8 -12 -120 -86 -135 -77 -6 4 -8 3 -5 -3 8 -13 -70 -56 -85 -47 -6 4 -9 3 -5 -2 3 -5 -21 -26 -53 -45 l-58 -37 -31 20 c-17 11 -28 25 -24 31 3 6 1 7 -5 3 -13 -8 -178 111 -174 126 1 5 -2 7 -8 3 -12 -7 -106 63 -102 77 1 5 -2 7 -7 3 -14 -8 -97 54 -93 68 2 7 0 9 -3 5 -11 -11 -47 11 -39 24 4 6 3 8 -3 5 -11 -7 -79 40 -76 53 1 4 -5 7 -15 6 -10 0 -16 5 -14 14 2 8 0 12 -3 8 -11 -11 -47 11 -39 24 4 7 3 8 -4 4 -14 -9 -143 84 -135 97 3 6 1 7 -5 3 -15 -9 -104 53 -95 67 3 6 1 7 -5 3 -7 -4 -38 13 -73 40 l-61 47 88 37 c49 21 99 38 112 39 13 1 59 -13 102 -30z m2738 -19 c34 -15 58 -33 67 -51 16 -29 10 -63 -8 -52 -6 3 -7 1 -3 -5 10 -16 -12 -54 -26 -46 -7 4 -8 3 -4 -4 9 -15 -42 -64 -57 -55 -5 3 -7 1 -3 -5 8 -13 -43 -54 -57 -45 -6 3 -7 1 -3 -5 8 -13 -28 -35 -39 -24 -3 4 -5 1 -3 -6 4 -16 -181 -133 -200 -127 -7 3 -10 1 -7 -5 8 -12 -32 -33 -48 -24 -6 4 -9 4 -5 -1 11 -12 -29 -38 -45 -29 -6 4 -9 4 -5 -1 5 -5 -1 -15 -12 -22 -18 -12 -24 -13 -38 -1 -16 12 -16 11 -2 -6 14 -18 13 -19 -3 -13 -10 4 -16 3 -12 -2 6 -10 -333 -207 -352 -205 -7 1 -11 -3 -10 -10 1 -6 -6 -10 -15 -10 -10 1 -15 -2 -13 -7 5 -7 -35 -36 -42 -31 -2 1 -3 -1 -4 -5 -2 -16 -22 -33 -32 -26 -6 4 -7 1 -3 -6 5 -7 1 -20 -8 -29 -32 -37 -56 -113 -79 -257 -14 -83 -39 -243 -58 -357 -18 -114 -36 -205 -39 -203 -4 2 -5 -8 -3 -23 2 -15 -14 -135 -35 -267 -22 -132 -46 -282 -53 -334 l-12 -93 -46 -29 c-25 -16 -52 -27 -60 -24 -9 3 -12 3 -8 -1 7 -7 -54 -54 -71 -54 -5 0 -12 30 -15 68 -4 56 -62 580 -108 977 -21 183 -33 205 -124 215 -30 3 -53 4 -50 2 3 -3 -115 -64 -249 -127 -39 -19 -39 -19 -57 4 -11 13 -19 19 -19 13 0 -5 7 -15 16 -23 14 -11 13 -14 -11 -26 -14 -8 -31 -11 -37 -7 -7 5 -8 3 -3 -6 6 -10 4 -12 -9 -7 -11 5 -15 3 -10 -5 5 -8 2 -9 -10 -5 -9 4 -15 3 -12 -2 7 -11 -22 -23 -36 -14 -6 3 -8 2 -5 -3 8 -14 -248 -138 -264 -129 -7 5 -10 4 -6 -2 3 -5 -20 -22 -53 -38 -52 -25 -61 -27 -77 -14 -16 13 -17 12 -5 -2 13 -18 9 -20 -83 -51 -53 -17 -302 -17 -373 1 l-52 13 25 20 c14 10 30 16 36 12 7 -4 10 -3 7 2 -6 10 167 137 188 137 7 0 11 3 9 7 -7 11 123 93 136 85 7 -5 10 -4 6 2 -9 14 61 56 75 47 6 -4 8 -3 5 3 -9 14 239 167 254 157 7 -4 9 -3 6 4 -9 13 100 75 115 66 6 -4 8 -3 5 3 -9 14 61 56 76 47 7 -4 9 -3 4 1 -10 12 81 68 95 59 7 -4 8 -3 4 4 -8 14 30 36 46 26 7 -5 8 -3 3 6 -6 10 -4 12 9 7 9 -4 15 -3 12 2 -3 5 10 19 30 30 30 18 39 19 53 9 14 -11 14 -11 4 3 -10 13 -7 18 17 33 17 9 36 14 43 10 6 -4 9 -4 5 1 -11 11 29 38 44 29 6 -4 8 -3 5 3 -8 13 50 46 65 37 6 -4 8 -3 5 3 -8 13 119 87 134 77 7 -4 9 -3 5 4 -8 14 119 86 135 76 7 -4 9 -3 6 4 -9 13 79 65 95 56 6 -4 8 -3 5 3 -6 10 280 179 300 177 7 -1 11 2 8 6 -7 12 123 82 137 74 7 -4 8 -3 4 4 -8 14 30 36 46 26 6 -4 8 -3 5 3 -8 13 120 86 136 77 7 -4 9 -4 5 1 -11 11 29 38 44 29 6 -4 8 -3 5 3 -8 13 50 46 65 37 6 -4 8 -3 5 3 -14 22 297 178 338 170 15 -2 22 0 18 6 -12 20 169 2 225 -23z m-3383 -1310 c-3 -4 7 -5 22 -2 19 4 24 2 18 -8 -5 -9 -4 -11 4 -6 17 11 112 -14 104 -27 -4 -6 -1 -7 6 -3 7 5 52 -2 101 -14 69 -17 87 -25 77 -34 -39 -38 -240 -165 -250 -159 -58 37 -116 87 -110 95 3 6 2 8 -4 5 -14 -9 -95 52 -86 65 3 7 1 8 -5 4 -7 -4 -28 6 -47 21 l-35 28 67 31 c59 26 72 29 105 20 20 -5 35 -13 33 -16z"/>
<path d="M4076 8009 c6 -10 -45 -21 -58 -13 -6 4 -8 3 -4 -4 3 -6 -9 -15 -31 -22 -21 -7 -84 -32 -141 -57 -56 -24 -108 -41 -114 -37 -6 4 -8 3 -5 -3 8 -12 -121 -76 -135 -67 -6 4 -8 3 -5 -4 9 -13 -100 -75 -115 -66 -6 4 -8 3 -5 -3 9 -14 -61 -56 -76 -47 -7 4 -9 4 -5 -1 8 -8 -129 -108 -149 -108 -7 0 -10 -4 -8 -8 3 -4 -12 -19 -33 -35 -20 -15 -72 -57 -116 -93 -43 -36 -82 -66 -87 -66 -5 0 -8 -3 -6 -7 3 -12 -216 -228 -225 -222 -5 3 -7 1 -6 -4 5 -16 -42 -73 -54 -66 -6 4 -8 3 -5 -2 6 -10 -131 -190 -143 -187 -4 1 -7 -4 -7 -10 0 -7 -8 -25 -18 -40 -15 -23 -20 -25 -34 -15 -14 12 -14 11 -2 -5 12 -15 12 -20 -1 -35 -27 -30 -124 -203 -188 -332 -48 -98 -60 -132 -56 -155 8 -39 49 -75 86 -75 60 0 80 19 132 127 28 57 54 100 59 97 5 -3 6 3 2 12 -5 13 -3 15 7 9 9 -5 11 -4 6 3 -10 16 32 94 46 86 7 -4 8 -3 4 4 -9 15 18 55 29 44 5 -4 5 -1 1 5 -9 16 17 56 29 45 5 -4 5 -1 1 5 -9 16 103 175 117 166 6 -3 7 -1 3 6 -9 14 12 43 25 35 5 -3 8 -2 7 3 -4 14 23 54 33 48 5 -4 8 -2 7 3 -5 16 42 73 54 66 7 -4 8 -3 4 4 -10 16 219 246 235 236 7 -4 9 -3 5 4 -8 13 64 73 77 65 6 -3 7 -1 3 5 -8 13 43 54 57 45 6 -3 7 -1 3 5 -10 17 28 34 44 19 12 -10 12 -9 1 5 -10 14 -9 18 7 27 11 6 23 7 27 3 5 -4 5 -2 1 5 -8 14 27 36 39 25 5 -4 5 -2 2 4 -7 12 68 67 90 67 6 0 11 5 10 11 -1 6 6 10 15 10 10 -1 16 2 13 6 -7 11 64 52 77 44 6 -4 8 -3 5 3 -3 5 8 17 24 27 25 15 33 16 47 4 15 -12 16 -11 4 4 -12 15 -2 22 95 70 150 74 191 90 204 82 8 -5 9 -3 4 6 -6 10 -3 12 13 8 12 -4 20 -3 17 2 -7 11 133 53 153 45 9 -3 13 -3 10 1 -4 3 7 16 25 28 62 42 72 95 26 144 -19 21 -29 23 -89 20 -37 -2 -66 -6 -64 -9z"/>
<path d="M2241 5984 c-78 -21 -163 -69 -223 -128 -29 -28 -56 -50 -59 -49 -4 1 -6 -5 -5 -15 0 -9 -4 -16 -10 -15 -6 1 -11 -3 -11 -10 -1 -7 -15 -44 -31 -84 -39 -91 -40 -105 -52 -428 -22 -614 -25 -802 -25 -1470 l0 -700 31 -66 c18 -37 48 -84 68 -106 19 -22 33 -43 31 -47 -3 -3 -2 -4 1 -1 12 8 45 -16 38 -27 -4 -6 -3 -8 3 -5 14 9 74 -13 67 -24 -3 -5 1 -6 9 -3 11 4 14 -14 13 -98 0 -61 5 -119 13 -143 17 -50 60 -110 100 -139 17 -13 29 -25 26 -27 -2 -3 4 -5 13 -6 9 -1 35 -6 57 -12 22 -6 84 -11 137 -12 77 0 106 3 143 20 26 12 52 18 58 14 6 -3 7 -1 3 5 -7 11 32 38 47 34 5 -1 6 1 3 6 -5 8 49 94 55 87 5 -5 8 21 15 158 l6 117 529 0 529 0 0 -102 c1 -62 6 -119 15 -142 8 -22 11 -44 8 -49 -3 -6 -2 -7 4 -4 5 3 17 -7 27 -24 9 -16 14 -29 10 -29 -4 0 0 -8 9 -17 8 -10 15 -21 14 -25 -1 -3 1 -10 6 -14 15 -16 6 20 -10 40 -13 13 -7 12 17 -7 74 -55 116 -67 235 -66 68 0 125 5 149 14 22 8 44 11 49 8 6 -3 7 -1 3 5 -3 6 7 19 24 29 17 10 48 42 68 72 37 53 37 53 43 185 5 108 6 116 7 47 2 -107 10 -102 13 8 2 75 4 82 20 78 12 -3 17 -1 12 6 -4 7 0 8 11 4 9 -4 15 -3 12 1 -2 4 15 20 38 35 24 15 56 45 71 67 15 22 32 37 38 33 5 -3 7 -2 4 4 -3 5 3 34 14 63 19 50 20 84 26 639 4 457 2 703 -12 1116 -10 292 -19 591 -19 666 -1 78 -5 135 -10 131 -5 -3 -7 7 -4 21 3 15 2 24 -2 22 -11 -7 -22 43 -14 58 4 7 3 9 -1 4 -10 -9 -57 71 -49 84 3 5 2 8 -3 7 -4 -1 -34 25 -66 59 -65 68 -159 123 -253 148 -85 22 -2000 22 -2083 -1z m2094 -196 c28 -14 49 -32 47 -38 -1 -6 3 -8 9 -5 14 9 81 -56 74 -73 -2 -7 0 -10 5 -7 13 8 53 -81 46 -101 -3 -9 -1 -12 4 -9 6 3 10 5 11 3 3 -18 30 -844 35 -1075 7 -274 6 -304 -10 -328 -9 -14 -22 -23 -28 -19 -7 4 -8 3 -4 -4 4 -7 -6 -20 -26 -32 -33 -20 -48 -20 -1201 -20 -1008 0 -1172 2 -1203 15 -23 9 -33 19 -28 26 4 7 3 9 -4 5 -6 -3 -20 6 -31 20 -19 24 -21 40 -21 163 0 154 16 712 30 1026 8 203 22 291 43 278 6 -3 7 -1 4 5 -10 15 3 43 16 35 6 -4 7 -1 3 6 -9 14 22 53 36 45 4 -3 7 0 6 7 -4 16 82 81 99 75 9 -4 11 -1 7 6 -5 7 0 9 14 6 12 -4 20 -2 17 2 -3 5 5 11 17 13 13 2 464 4 1003 3 l980 -1 50 -27z m-1054 -1898 c983 0 1163 2 1204 15 27 8 53 11 58 8 6 -3 7 -1 4 4 -7 11 17 26 25 17 9 -8 -5 -829 -13 -852 -5 -13 -13 -20 -19 -17 -5 3 -7 0 -4 -8 3 -9 -8 -24 -28 -38 l-33 -24 -1185 0 c-1129 0 -1186 1 -1212 18 -65 44 -63 29 -66 499 l-3 426 58 -24 58 -24 1156 0z m-701 -1173 c0 -134 -32 -167 -160 -167 -126 0 -160 37 -160 175 l0 85 160 0 160 0 0 -93z m1730 3 c0 -108 -10 -134 -62 -154 -61 -25 -207 -16 -201 12 2 7 -4 9 -14 5 -13 -5 -15 -2 -10 11 4 9 3 15 -2 12 -15 -10 -21 22 -21 115 l0 89 155 0 155 0 0 -90z"/>
<path d="M2803 5595 c-29 -20 -48 -78 -33 -104 5 -11 9 -26 8 -33 -2 -7 4 -12 14 -10 9 1 19 -2 23 -8 4 -7 167 -10 480 -10 l473 0 26 31 c15 17 26 43 26 59 0 16 -11 42 -26 59 l-26 31 -472 0 c-403 0 -475 -2 -493 -15z"/>
<path d="M2254 5243 c17 -20 16 -27 -4 -25 -6 1 -10 -25 -12 -76 -1 -24 6 -41 25 -60 l27 -27 994 -5 c547 -3 993 -4 992 -2 -2 1 12 18 32 38 30 30 34 39 29 71 -4 19 -13 43 -22 53 -8 9 -12 20 -8 24 4 4 -1 4 -11 0 -11 -4 -17 -3 -14 2 4 5 -389 7 -1000 4 -885 -4 -1009 -3 -1027 10 -20 15 -20 15 -1 -7z"/>
<path d="M2388 3696 c3 -5 -5 -7 -16 -4 -12 4 -20 3 -18 -1 6 -9 -86 -67 -99 -63 -5 2 -7 0 -3 -3 11 -11 -11 -47 -24 -39 -6 4 -8 3 -5 -3 7 -11 -16 -77 -24 -69 -10 10 9 -162 20 -182 12 -23 8 -42 -10 -42 -6 0 -8 4 -5 9 3 5 -2 15 -11 22 -12 10 -14 10 -9 2 4 -8 2 -13 -6 -13 -8 0 -7 -6 5 -17 14 -15 21 -15 37 -6 21 14 36 1 24 -19 -4 -6 -3 -8 3 -5 5 4 23 -7 38 -23 44 -46 125 -72 211 -68 40 2 70 6 68 9 -2 4 10 12 26 19 42 18 114 100 128 148 18 59 14 141 -8 191 -11 23 -17 47 -14 52 3 5 2 8 -3 7 -11 -3 -78 64 -75 75 1 5 -1 6 -6 3 -5 -3 -28 2 -52 10 -48 17 -181 24 -172 10z m127 -182 c51 -33 53 -113 3 -148 -43 -30 -138 -7 -124 31 3 8 1 11 -4 8 -6 -4 -10 10 -10 33 0 74 74 116 135 76z"/>
<path d="M4030 3690 c-30 -10 -58 -16 -64 -13 -5 3 -6 1 -2 -5 3 -6 -3 -16 -14 -22 -11 -6 -20 -7 -20 -3 0 11 -24 -15 -26 -29 -3 -19 -50 -99 -55 -94 -2 3 -4 -30 -3 -73 0 -58 6 -89 22 -121 12 -24 18 -48 15 -54 -3 -6 -3 -8 2 -4 4 4 28 -10 51 -32 24 -22 48 -40 54 -40 6 0 9 -3 7 -7 -7 -11 43 -17 128 -17 52 0 81 6 111 22 23 11 45 18 49 14 3 -4 5 -2 3 4 -4 14 58 84 68 76 4 -4 4 -2 1 4 -4 7 0 29 9 49 11 26 14 61 12 115 -2 43 -6 76 -9 74 -10 -6 -30 46 -23 58 4 7 2 8 -4 4 -6 -3 -15 2 -21 12 -5 10 -26 29 -45 43 -19 13 -32 28 -29 33 3 5 2 6 -4 3 -5 -3 -31 0 -58 8 -61 19 -87 18 -155 -5z m125 -170 c16 -6 23 -14 19 -22 -4 -7 -3 -8 4 -4 16 10 35 -42 27 -74 -18 -73 -102 -95 -156 -41 -20 20 -29 39 -29 61 0 22 9 41 29 61 31 31 61 36 106 19z"/>
<path d="M8318 5794 c-15 -8 -31 -26 -34 -40 -4 -15 1 -88 10 -163 37 -286 31 -581 -15 -866 -25 -152 -70 -336 -81 -329 -4 3 -5 -2 -2 -10 7 -19 -26 -137 -37 -130 -5 3 -6 -1 -3 -9 6 -18 -55 -189 -66 -182 -4 3 -6 -5 -2 -17 4 -16 2 -19 -8 -13 -9 5 -11 4 -6 -3 9 -16 -34 -113 -47 -105 -6 3 -7 1 -3 -6 24 -38 -370 -647 -405 -626 -6 4 -5 13 1 24 9 18 4 31 -12 31 -10 0 -6 -39 5 -57 15 -23 -253 -301 -276 -286 -6 3 -7 1 -3 -5 8 -13 -159 -158 -180 -156 -8 1 -12 -2 -9 -6 8 -12 -134 -112 -147 -104 -6 4 -8 3 -5 -3 12 -18 -264 -190 -284 -177 -8 4 -9 3 -5 -4 9 -14 -260 -146 -281 -138 -8 3 -12 2 -9 -3 7 -11 -238 -105 -358 -136 -107 -29 -280 -65 -308 -65 -16 0 -9 10 31 48 45 42 51 53 51 88 0 54 -31 84 -88 84 -22 0 -44 -5 -47 -11 -4 -6 -14 -8 -22 -5 -8 3 -12 2 -9 -3 8 -12 -112 -124 -124 -116 -6 4 -9 1 -8 -7 2 -7 -3 -12 -10 -10 -8 1 -11 -1 -8 -6 3 -5 -22 -35 -54 -67 -63 -60 -77 -88 -66 -133 4 -15 8 -36 10 -47 1 -11 9 -20 17 -20 18 0 149 -114 146 -128 -1 -5 6 -11 17 -12 19 -4 67 -43 63 -54 -1 -3 3 -7 8 -9 6 -2 24 -12 41 -23 22 -13 46 -19 77 -17 25 2 45 5 45 8 -1 3 6 20 14 39 25 55 11 88 -62 150 -36 30 -67 59 -69 65 -2 6 2 5 10 -2 14 -13 33 -17 25 -4 -3 4 37 13 89 20 51 6 164 30 250 52 87 22 162 37 168 33 5 -3 7 -1 3 5 -8 13 89 47 105 36 7 -4 9 -3 5 4 -3 6 8 15 29 22 34 11 60 6 50 -10 -3 -4 2 -11 11 -14 15 -6 15 -4 0 18 -15 23 -14 25 4 31 11 3 25 3 31 -1 7 -4 9 -3 6 3 -3 5 10 17 29 26 41 20 58 22 48 5 -4 -7 -3 -8 5 -4 6 4 9 11 7 15 -7 11 163 92 177 85 7 -4 9 -3 4 1 -10 11 70 58 85 49 7 -5 8 -3 3 6 -6 10 -4 12 9 7 9 -4 15 -3 12 2 -8 12 113 83 127 74 7 -3 8 -2 4 2 -4 5 16 24 44 42 43 27 55 30 68 20 14 -10 14 -10 4 4 -11 13 -3 22 49 59 34 24 67 43 74 43 7 0 11 4 9 8 -8 11 23 31 36 23 7 -4 9 -3 5 4 -7 12 33 44 46 36 5 -3 7 -1 6 5 -4 14 103 101 115 94 6 -3 7 -1 3 5 -7 12 130 139 146 134 5 -1 7 1 4 6 -8 13 94 123 106 116 6 -4 8 -3 5 3 -7 12 37 68 54 68 6 0 13 8 15 18 3 25 24 48 37 40 5 -3 7 -1 4 4 -4 6 18 43 48 82 30 39 66 89 81 111 15 22 30 38 34 35 4 -3 7 3 6 13 0 9 5 16 12 14 8 -1 11 2 8 7 -3 5 26 62 64 127 39 65 70 122 70 126 0 5 4 6 10 3 6 -4 7 1 3 11 -5 13 -3 15 7 9 9 -5 11 -4 6 3 -4 6 3 31 15 54 12 24 43 94 69 156 25 62 50 109 55 105 4 -5 5 -2 1 5 -4 7 8 61 28 120 82 252 133 504 157 782 19 219 -5 601 -47 747 -22 78 -72 102 -136 67z"/>
</g>
</svg>
