<?xml version="1.0" standalone="no"?>
<!DOCTYPE svg PUBLIC "-//W3C//DTD SVG 20010904//EN"
 "http://www.w3.org/TR/2001/REC-SVG-20010904/DTD/svg10.dtd">
<svg version="1.0" xmlns="http://www.w3.org/2000/svg"
 width="1024.000000pt" height="1024.000000pt" viewBox="0 0 1024.000000 1024.000000"
 preserveAspectRatio="xMidYMid meet">
<metadata>
Created by potrace 1.16, written by Peter Selinger 2001-2019
</metadata>
<g transform="translate(0.000000,1024.000000) scale(0.100000,-0.100000)"
fill="#000000" stroke="none">
<path d="M5103 8503 l-23 -15 0 -464 0 -463 -37 -6 c-21 -3 -50 -8 -65 -10
-15 -2 -62 -21 -105 -41 -62 -30 -96 -55 -166 -125 -105 -105 -158 -203 -163
-298 l-3 -56 267 0 267 0 3 -422 2 -423 -515 0 -515 0 0 113 c0 211 44 359
153 522 49 73 142 171 213 226 43 33 74 77 74 105 0 2 -15 4 -33 4 -25 0 -49
-13 -102 -57 -183 -150 -295 -321 -362 -549 -15 -53 -17 -134 -21 -810 -2
-575 -6 -751 -15 -751 -9 0 -12 28 -11 96 1 53 -1 78 -3 56 -2 -22 -10 -43
-16 -47 -9 -6 -9 -8 1 -8 6 0 12 -9 12 -20 0 -11 -5 -20 -11 -20 -6 0 -9 -14
-7 -32 l3 -33 610 -2 c336 -2 863 -4 1173 -5 l563 -3 -3 740 -4 740 -27 90
c-35 113 -72 193 -133 287 -56 86 -177 210 -251 258 -29 18 -53 36 -53 40 0 4
-11 5 -25 2 -25 -4 -43 -40 -31 -61 3 -5 3 -11 -1 -14 -5 -2 -3 -2 4 -1 18 4
119 -74 190 -147 165 -172 243 -351 258 -601 l7 -118 -526 0 -526 0 2 423 3
422 268 3 267 2 0 23 c0 13 -4 27 -9 32 -4 6 -16 35 -26 65 -22 71 -89 171
-162 243 -71 70 -218 148 -294 155 l-49 5 0 472 c0 506 0 509 -47 478z m137
-1053 c121 -36 253 -154 320 -286 l29 -59 -476 -3 c-262 -1 -479 0 -481 3 -9
9 36 94 84 161 76 107 199 183 327 202 68 10 118 6 197 -18z m-160 -1875 l0
-535 -515 0 -515 0 0 535 0 535 515 0 515 0 0 -535z m1120 0 l0 -535 -525 0
-525 0 0 535 0 535 525 0 525 0 0 -535z"/>
<path d="M2427 8467 c-5 -13 -1 -17 14 -17 19 0 19 -1 5 -16 -9 -8 -16 -21
-16 -27 0 -12 81 -127 269 -384 232 -315 321 -431 336 -437 27 -10 341 -7 369
4 16 6 26 17 26 30 0 24 -53 133 -160 325 -42 77 -119 219 -169 315 -51 96
-101 184 -111 194 -23 24 -81 31 -73 10 3 -8 10 -14 17 -14 6 0 5 -4 -3 -9
-11 -7 -2 -31 46 -117 86 -155 123 -231 116 -238 -4 -3 -2 -6 4 -6 6 0 28 -33
48 -72 21 -40 71 -133 112 -206 40 -73 73 -135 73 -137 0 -3 -58 -5 -130 -5
l-129 0 -224 298 c-266 355 -367 495 -367 511 0 8 -5 9 -19 1 -14 -7 -21 -6
-23 2 -3 7 -7 6 -11 -5z"/>
<path d="M7263 8431 c-30 -45 -135 -228 -265 -466 -37 -66 -94 -169 -127 -229
-50 -91 -57 -111 -46 -122 27 -28 70 -34 226 -34 141 0 161 2 177 18 26 28
154 188 311 387 78 99 176 224 219 278 81 103 109 152 92 162 -6 4 -8 10 -5
15 3 4 -2 13 -9 19 -18 15 -37 -4 -143 -144 -141 -185 -457 -581 -497 -623
l-31 -33 -117 2 c-81 1 -118 5 -118 13 0 6 10 27 22 46 11 19 56 98 98 175 42
77 125 226 183 331 101 180 120 224 98 224 -5 0 -16 6 -23 14 -12 12 -19 7
-45 -33z"/>
<path d="M1443 8408 c-16 -17 -9 -63 8 -53 5 4 9 3 9 -2 0 -13 791 -5 807 9 8
6 13 21 11 32 -3 21 -7 21 -411 26 -374 5 -410 4 -424 -12z"/>
<path d="M4045 8420 c-506 -3 -921 -6 -922 -8 -6 -7 8 -47 19 -54 7 -4 423 -7
923 -5 l910 2 3 22 c7 50 50 48 -933 43z"/>
<path d="M8331 8420 c-353 -4 -395 -7 -404 -22 -8 -12 -7 -21 2 -32 11 -14 64
-16 407 -18 258 -2 394 0 394 7 0 6 5 3 10 -5 9 -13 10 -13 10 0 0 8 3 25 6
37 4 15 0 24 -13 30 -10 4 -195 6 -412 3z"/>
<path d="M5271 8406 c-9 -11 -10 -20 -1 -35 11 -21 12 -21 888 -21 749 0 881
2 898 14 15 12 17 18 8 33 -11 17 -55 18 -896 21 -761 2 -887 0 -897 -12z"/>
<path d="M8881 8113 c-1 -10 -129 -13 -605 -13 -428 0 -607 -3 -612 -11 -3 -6
-1 -22 7 -35 l12 -24 599 0 c379 0 598 -4 598 -10 0 -17 28 1 33 22 4 14 11
19 23 14 14 -5 15 -4 5 8 -9 11 -9 15 1 18 8 3 6 7 -6 11 -10 4 -15 3 -11 -3
3 -6 1 -10 -4 -10 -6 0 -11 5 -11 11 0 5 -4 8 -9 4 -5 -3 -12 3 -14 12 -3 10
-5 12 -6 6z"/>
<path d="M1270 8093 c0 -7 -4 -13 -9 -13 -5 0 -6 -11 -2 -25 l6 -26 582 -2
c320 -1 581 0 581 3 -2 22 5 52 9 43 2 -7 10 -13 16 -13 6 0 3 8 -6 18 -16 16
-63 17 -597 22 -460 4 -580 2 -580 -7z"/>
<path d="M3291 8086 c-22 -26 3 -54 52 -58 23 -2 399 -1 836 2 752 5 794 6
805 23 9 15 7 21 -8 33 -30 21 -1668 21 -1685 0z"/>
<path d="M5274 8086 c-3 -8 -4 -23 -2 -33 3 -17 41 -18 821 -20 l817 -2 0 22
c0 13 -5 28 -12 35 -9 9 -204 12 -815 12 -691 0 -804 -2 -809 -14z"/>
<path d="M6095 8010 l-750 -5 768 -3 c422 -1 767 0 767 2 0 10 -86 11 -785 6z"/>
<path d="M3452 7764 c0 -16 5 -35 10 -41 8 -10 171 -13 753 -13 665 0 744 2
756 16 9 11 10 20 2 32 -9 16 -71 17 -759 17 -412 0 -752 4 -755 9 -4 4 -7 -5
-7 -20z"/>
<path d="M1439 7773 c-4 -20 -6 -77 -3 -68 3 7 225 9 646 7 l643 -2 18 21 c39
48 34 48 -660 49 -354 0 -644 -3 -644 -7z"/>
<path d="M5274 7765 c-4 -8 -11 -12 -18 -8 -6 4 -4 -4 5 -17 l16 -25 749 0
c713 0 749 1 752 18 9 48 30 47 -760 47 -646 0 -739 -2 -744 -15z"/>
<path d="M7506 7767 c-17 -12 -17 -14 1 -35 l18 -22 607 -3 c568 -2 607 -1
617 16 6 9 18 17 26 17 9 0 12 6 8 16 -4 10 -9 12 -16 5 -6 -6 -14 -5 -24 5
-20 20 -1209 21 -1237 1z"/>
<path d="M1436 7315 c-10 -8 -11 -16 -5 -28 6 -9 8 -21 4 -26 -3 -5 0 -13 6
-17 8 -4 9 -3 5 4 -5 9 13 12 63 12 l71 0 -1 -1932 c0 -1063 -3 -1927 -6
-1919 -4 10 -7 10 -13 2 -4 -7 -16 -13 -28 -14 -19 -1 -21 -5 -15 -42 6 -41
13 -59 13 -34 0 12 88 14 603 11 331 -1 739 -2 907 -2 l305 0 -30 -26 c-16
-14 -69 -61 -116 -105 -123 -111 -460 -402 -500 -430 l-34 -24 -359 5 -359 5
49 27 c136 76 752 479 759 498 7 18 -32 53 -52 46 -7 -3 -104 -65 -215 -139
-112 -73 -231 -151 -266 -173 -73 -46 -213 -136 -402 -259 -74 -48 -153 -99
-175 -113 -22 -13 -50 -33 -62 -44 l-21 -20 20 -23 c11 -13 25 -22 31 -20 22
4 52 19 65 31 7 7 49 35 95 62 l82 49 363 2 c199 1 362 -1 362 -6 0 -4 -9 -14
-19 -20 -46 -29 -397 -306 -410 -324 -10 -15 -11 -22 -2 -33 27 -32 57 -14
421 268 115 89 165 129 284 231 64 55 144 121 178 147 l61 48 273 0 c151 0
274 -2 274 -5 0 -2 -8 -12 -18 -22 -11 -10 -41 -48 -69 -84 -70 -93 -175 -226
-407 -516 -76 -95 -142 -173 -147 -173 -6 0 -8 -4 -4 -9 3 -6 -1 -13 -8 -18
-8 -4 -17 -21 -21 -36 -4 -19 -3 -26 4 -22 5 3 10 2 10 -4 0 -5 -6 -11 -12
-14 -7 -3 3 -4 23 -3 40 1 28 -13 313 353 87 112 162 200 167 197 5 -3 8 -1 7
4 -4 13 8 28 510 677 42 55 90 119 105 142 l29 43 209 0 209 0 -20 -40 c-19
-37 -93 -200 -222 -485 -27 -60 -63 -144 -80 -185 -37 -88 -56 -114 -73 -100
-7 6 -133 10 -310 10 -277 1 -300 0 -313 -17 -7 -10 -11 -24 -10 -33 3 -13 46
-15 320 -18 l316 -2 -70 -153 c-39 -83 -73 -154 -77 -157 -3 -3 -7 -12 -9 -20
-5 -30 -96 -220 -105 -220 -4 0 -5 -4 -2 -10 3 -5 2 -10 -2 -10 -12 0 -15 -50
-3 -51 20 -3 25 -4 36 -11 6 -4 18 0 27 10 13 14 167 349 277 602 18 41 52
118 75 170 23 52 89 199 145 325 56 127 119 267 141 313 l38 82 221 0 c121 0
223 1 228 3 4 1 8 -39 10 -89 l3 -92 -53 -12 c-195 -46 -378 -117 -446 -175
-38 -32 -72 -100 -72 -145 0 -45 34 -113 73 -146 18 -15 31 -31 29 -36 -1 -5
1 -7 5 -5 5 3 53 -17 108 -44 55 -27 93 -49 84 -49 -15 0 -42 -112 -68 -290
-21 -138 -72 -436 -78 -450 -4 -11 -8 -8 -13 10 -7 21 -8 19 -7 -12 1 -23 7
-38 15 -38 7 0 15 -7 18 -15 4 -8 13 -15 21 -15 8 0 11 -4 8 -10 -3 -5 -2 -10
3 -10 6 0 13 11 16 25 4 14 10 25 14 25 5 0 6 14 4 31 -3 21 -1 30 6 25 6 -3
8 1 5 12 -4 17 4 67 61 392 13 74 29 174 36 222 15 100 11 97 106 70 44 -12
60 -21 57 -32 -3 -11 -2 -12 4 -2 7 9 21 10 64 1 30 -6 108 -21 174 -33 l120
-21 7 -65 c4 -36 14 -119 23 -185 33 -255 45 -369 40 -386 -3 -9 -1 -20 5 -24
6 -3 8 -11 5 -16 -4 -5 1 -9 9 -9 9 0 16 -4 16 -10 0 -16 38 -11 48 6 5 9 5
37 0 67 -19 114 -75 583 -71 595 6 15 31 15 195 -2 73 -8 185 -18 248 -22
l115 -7 32 -66 c37 -76 101 -194 196 -367 37 -66 67 -125 67 -132 0 -7 5 -12
11 -12 6 0 8 -7 5 -15 -8 -21 19 -30 49 -17 18 8 25 8 28 -1 3 -7 2 8 -1 33
-3 25 -11 50 -17 55 -15 12 -291 515 -283 515 2 0 224 2 493 4 485 3 572 8
918 47 355 40 660 107 812 178 47 22 85 38 85 35 0 -2 29 24 65 58 45 42 74
81 92 120 31 66 25 65 168 24 44 -13 124 -36 177 -52 88 -25 97 -30 92 -49 -6
-20 -6 -20 11 0 11 14 18 16 21 7 3 -6 10 -9 15 -6 6 3 21 -2 36 -11 17 -12
23 -13 17 -4 -6 12 -5 12 9 0 9 -7 17 -9 17 -3 0 14 43 23 51 11 4 -6 9 -4 13
7 3 9 4 19 1 22 -3 3 -5 0 -5 -7 0 -7 -5 -9 -11 -6 -6 4 -8 13 -5 21 3 8 1 14
-4 14 -6 0 -9 6 -8 12 2 7 -3 12 -11 10 -7 -1 -20 3 -28 10 -8 6 -22 13 -31
13 -10 1 -82 20 -162 42 -80 23 -171 47 -203 54 -32 7 -54 15 -48 18 5 3 79 6
165 6 l156 0 2 515 3 515 47 0 c25 0 44 3 42 7 -2 3 0 8 5 10 11 4 17 170 7
187 -5 7 -55 11 -151 11 -118 0 -146 3 -159 16 -9 8 -13 20 -10 26 4 7 2 8 -4
4 -7 -4 -12 -3 -12 2 0 5 -21 24 -47 43 -27 18 -64 48 -84 66 l-37 33 0 155 0
155 122 1 c66 0 130 4 141 9 11 5 15 9 10 9 -12 1 -39 166 -30 181 4 6 2 10
-2 10 -5 0 -15 33 -22 73 -7 39 -22 117 -32 172 -11 55 -19 109 -17 120 1 11
-2 26 -6 34 -6 10 -5 12 2 7 8 -5 10 -2 6 8 -3 9 -10 14 -14 11 -5 -3 -10 -1
-12 4 -4 12 -32 13 -284 12 l-212 -1 -15 -32 c-20 -45 -157 -558 -157 -591 0
-15 5 -27 11 -27 5 0 8 -4 5 -9 -4 -5 0 -12 6 -14 10 -4 9 -8 -2 -16 -12 -9
-11 -11 8 -11 19 0 22 4 17 20 -5 15 -2 20 12 20 11 0 25 -6 32 -12 10 -11 11
-10 6 5 -7 16 2 17 104 17 l111 0 -1 -142 c0 -79 -3 -150 -7 -159 -4 -9 -53
-58 -108 -108 l-102 -91 -113 0 c-72 0 -136 -6 -174 -16 -33 -9 -74 -17 -92
-17 -17 -1 -34 -5 -38 -9 -4 -4 4 -4 17 -1 l23 5 -23 -17 c-16 -12 -22 -25
-20 -43 3 -27 3 -27 91 -27 l87 1 0 -314 c0 -227 -3 -311 -11 -306 -6 3 -14 2
-18 -4 -4 -6 -74 -20 -156 -32 -83 -11 -197 -27 -255 -36 -58 -8 -121 -16
-141 -17 -20 -1 -36 -6 -37 -12 0 -5 -4 -52 -8 -102 -4 -51 -10 -93 -14 -93
-4 0 -5 -10 -3 -22 6 -34 -11 -133 -22 -131 -14 3 -32 79 -49 217 -26 200 -18
635 15 793 22 108 74 139 268 158 128 12 201 29 262 61 15 7 30 10 34 6 3 -4
6 -2 4 3 -1 6 20 34 48 62 88 91 130 215 121 356 -6 91 -35 141 -104 179 -59
32 -221 74 -324 83 -41 4 -79 10 -84 12 -4 3 -127 8 -271 11 -446 8 -534 -19
-579 -178 -19 -67 -56 -285 -56 -329 0 -23 -6 -34 -22 -40 -21 -9 -135 -31
-338 -66 -181 -30 -257 -47 -302 -67 -49 -21 -120 -89 -127 -123 -3 -11 -6
-182 -8 -380 -3 -282 -1 -364 9 -377 9 -12 37 -21 82 -27 37 -5 70 -11 72 -14
2 -2 6 -62 8 -134 5 -132 17 -185 49 -212 9 -7 15 -16 13 -20 -2 -3 19 -7 47
-9 51 -3 52 -2 80 40 15 23 27 53 27 66 0 15 4 21 12 16 6 -4 8 -3 5 2 -6 10
17 178 28 215 6 18 13 19 63 14 192 -20 398 -37 612 -50 135 -9 250 -18 255
-19 6 -2 19 -55 29 -117 21 -135 54 -229 84 -245 12 -6 19 -13 16 -16 -3 -3 3
-5 13 -5 10 1 20 4 23 7 3 3 14 10 25 16 26 14 44 69 58 176 12 95 23 109 63
83 21 -13 207 -47 347 -62 74 -8 82 6 82 144 0 61 3 114 6 118 4 3 19 7 35 8
l29 2 2 -192 c1 -106 5 -197 8 -203 8 -13 232 -13 240 0 4 6 14 9 22 8 9 -2
18 4 20 12 4 13 3 13 -6 1 -17 -25 -22 22 -19 169 l3 135 275 3 c151 1 279 1
285 -2 6 -2 9 -52 7 -135 -3 -123 -4 -131 -23 -131 -11 0 -18 3 -16 8 3 4 -15
7 -38 7 -48 0 -48 -11 0 -18 57 -9 -190 3 -260 13 -95 13 -112 12 -118 -4 -13
-33 4 -54 54 -65 165 -36 151 -31 144 -60 -15 -61 -69 -134 -137 -184 -73 -54
-366 -144 -484 -150 -23 -1 -40 -5 -38 -8 4 -7 -175 -33 -238 -33 -25 -1 -44
-4 -41 -8 2 -5 -2 -8 -9 -8 -7 0 -78 -7 -158 -15 -713 -76 -1628 -51 -2220 61
-258 49 -485 127 -473 163 4 13 3 13 -5 2 -8 -11 -17 -8 -46 15 -20 16 -43 44
-52 61 -14 30 -13 36 2 69 55 115 400 218 939 279 127 14 234 30 239 35 6 6 5
20 -3 36 l-12 27 -122 -7 c-104 -5 -289 -27 -455 -52 l-43 -7 3 84 3 84 234 2
c170 1 236 5 241 14 4 6 13 8 19 5 6 -4 11 0 11 9 0 9 -4 14 -8 11 -5 -3 -16
4 -25 15 -17 19 -36 19 -1019 19 l-1003 0 1 47 c1 27 2 854 3 1840 l1 1792 71
3 c55 2 74 7 83 20 7 12 7 21 0 28 -14 14 -2308 19 -2328 5z m2102 -152 l3
-93 -946 0 -945 0 0 95 0 95 943 -2 942 -3 3 -92z m-14 -159 c14 -5 16 -49 16
-383 0 -208 -2 -380 -4 -382 -2 -2 -36 -3 -75 -1 l-71 4 -2 246 -3 247 -147 3
c-143 2 -148 3 -166 27 -18 23 -27 25 -101 25 -78 0 -82 -1 -119 -35 -22 -19
-42 -31 -46 -28 -4 4 -4 0 -1 -8 10 -25 -15 -36 -100 -43 -116 -10 -112 -2
-105 -234 3 -107 3 -196 1 -198 -2 -2 -62 -4 -133 -4 l-128 0 0 139 0 139 -65
63 c-58 56 -65 67 -65 101 0 26 4 38 13 37 20 -4 67 20 67 33 0 9 3 8 10 -2 7
-11 10 -8 9 15 0 17 -3 24 -6 18 -2 -7 -9 -13 -14 -13 -5 0 -9 6 -9 13 0 9
-36 12 -148 12 l-148 0 0 -37 c-1 -21 4 -39 10 -39 6 -1 37 -1 69 -1 l57 1 0
-37 c0 -32 -9 -45 -67 -104 l-68 -68 -3 -135 -4 -135 -164 0 -164 0 0 385 0
385 929 0 c511 0 936 -3 945 -6z m-511 -295 c15 -9 17 -31 17 -239 l0 -230
-75 0 -76 0 1 218 c1 203 3 218 21 239 22 23 79 29 112 12z m307 -254 l0 -215
-105 0 -105 0 0 186 c0 116 4 193 11 206 8 15 8 19 0 14 -12 -8 -15 6 -4 17 3
4 51 7 105 7 l98 0 0 -215z m-520 -35 l0 -180 -60 0 -60 0 0 180 0 180 60 0
60 0 0 -180z m-588 103 l48 -47 0 -118 0 -118 -105 0 -105 0 0 111 0 110 51
55 c29 30 54 54 58 54 3 0 27 -21 53 -47z m1326 -390 c3 -26 -1 -33 -15 -34
-10 0 -434 -1 -943 -1 l-925 0 -3 22 c-8 53 -67 50 945 48 l938 -3 3 -32z m0
-570 l2 -453 -66 0 -65 0 2 331 c2 308 0 332 -16 342 -12 6 -30 6 -54 -1 -62
-19 -122 -18 -132 1 -6 9 -22 17 -36 17 -18 0 -24 4 -20 14 4 10 1 13 -9 9 -8
-3 -13 -11 -11 -17 7 -19 -59 -59 -88 -54 -13 3 -22 2 -20 -2 3 -4 -4 -10 -15
-13 -12 -3 -20 -14 -20 -26 0 -19 -6 -21 -57 -21 -32 0 -82 -3 -112 -7 -48 -5
-54 -9 -63 -36 l-11 -30 -12 29 c-10 26 -12 21 -12 -47 l-1 -76 37 -10 c32 -9
27 -11 -49 -12 -52 0 -91 -6 -98 -13 -8 -8 -12 -66 -12 -196 0 -165 -2 -183
-17 -180 -20 4 -66 131 -60 170 3 27 -13 43 -40 39 -17 -2 -46 57 -38 77 5 13
8 14 14 3 12 -19 20 8 11 34 -7 19 -7 19 -14 -2 -10 -32 -20 -29 -34 10 l-11
32 -250 -3 c-181 -2 -252 -6 -259 -15 -10 -13 -25 -65 -68 -239 l-27 -108 -78
0 -79 0 0 455 0 455 943 -2 942 -3 3 -452z m-203 -440 c-2 -8 -22 -13 -50 -13
l-45 0 0 268 c0 147 3 277 6 289 5 17 15 23 48 25 l41 3 3 -280 c1 -154 0
-285 -3 -292z m-167 263 l-3 -271 -47 -3 -48 -3 0 278 c0 183 4 273 10 263 6
-9 10 -10 10 -3 0 12 45 22 68 15 10 -3 12 -64 10 -276z m-208 200 c0 -14 4
-27 9 -30 5 -4 7 2 4 13 -3 10 0 22 5 25 16 10 25 -146 18 -325 -3 -89 -8
-164 -11 -167 -3 -3 -5 -1 -5 4 0 5 -24 9 -52 9 l-53 0 1 140 c1 336 2 343 27
348 50 10 57 8 57 -17z m-170 -321 l0 -155 -55 0 -55 0 0 155 0 155 55 0 55 0
0 -155z m5905 95 c7 -30 17 -86 24 -125 28 -157 42 -232 50 -267 l9 -38 -299
0 c-206 0 -299 3 -299 11 0 13 120 461 127 471 2 5 88 7 190 6 l186 -3 12 -55z
m-6330 -12 l15 -38 -122 -2 c-347 -4 -318 -9 -297 50 l11 32 181 2 c100 2 185
1 189 -2 4 -3 14 -22 23 -42z m68 -138 c-2 -12 1 -19 6 -16 5 3 14 -8 20 -26
21 -60 24 -59 -126 -56 -137 3 -138 3 -141 27 -6 40 7 89 25 93 9 2 62 2 117
1 96 -2 101 -3 99 -23z m-318 -31 c-1 -28 -8 -56 -14 -62 -8 -8 -11 -8 -11 1
0 7 -13 12 -32 11 l-33 -1 30 -8 c20 -5 -1 -8 -68 -9 -98 -1 -98 -1 -91 22 3
12 11 24 15 25 5 2 7 7 4 12 -3 5 -1 20 5 34 9 25 12 26 104 26 l94 0 -3 -51z
m1415 -165 c6 -6 10 -33 8 -60 l-3 -49 -942 -3 -943 -2 0 59 c0 49 3 60 18 63
9 2 430 3 934 3 658 0 920 -3 928 -11z m3715 6 c270 -19 491 -53 557 -86 39
-20 79 -77 85 -121 13 -97 -40 -238 -115 -303 -80 -71 -151 -94 -343 -110
-188 -16 -245 -60 -280 -213 -7 -32 -16 -60 -19 -62 -4 -3 -38 2 -76 9 -38 8
-120 20 -182 26 -108 12 -113 14 -108 34 4 12 11 44 16 71 6 28 15 51 20 53 5
2 7 9 4 16 -3 7 8 67 24 132 17 66 35 145 42 177 6 31 14 57 18 57 32 -2 614
-90 619 -94 1 -1 -4 -32 -12 -70 -18 -83 -8 -106 39 -97 25 5 32 12 34 34 3
25 5 27 20 15 15 -12 16 -11 4 4 -15 19 -7 98 9 98 6 0 8 4 5 9 -3 4 1 35 10
67 18 70 14 84 -26 84 -25 0 -33 -5 -41 -28 -8 -24 -15 -29 -39 -27 -17 1 -44
2 -61 3 -16 1 -28 6 -25 11 3 4 -6 6 -19 3 -14 -2 -32 1 -40 8 -8 6 -18 9 -24
6 -5 -3 -112 10 -238 30 -231 37 -270 41 -280 30 -7 -6 -84 -322 -113 -466
-32 -152 -29 -143 -45 -130 -26 21 -40 112 -39 251 1 75 5 143 10 150 4 8 7
26 6 40 -4 31 23 194 43 266 9 31 25 60 41 72 30 24 107 41 224 51 127 11 133
11 295 0z m1275 -348 l0 -179 63 -59 c34 -32 71 -64 82 -71 16 -9 -18 -12
-165 -11 -102 0 -177 2 -167 5 9 2 17 9 17 14 0 6 -6 7 -12 3 -7 -4 20 23 60
60 l72 68 0 167 c0 92 3 171 7 174 3 4 15 7 25 7 17 0 18 -12 18 -178z m-5922
-469 l-3 -638 -472 -3 -473 -2 0 640 0 640 475 0 475 0 -2 -637z m940 17 c1
-338 0 -625 -3 -637 l-5 -23 -430 0 -430 0 0 640 0 640 433 -2 432 -3 3 -615z
m3005 138 c7 -117 28 -196 57 -223 23 -21 73 -32 200 -46 52 -5 144 -20 203
-32 l109 -22 1 -272 2 -272 -65 6 c-36 3 -69 11 -73 17 -6 7 -10 7 -13 1 -6
-15 -372 10 -764 51 -74 7 -141 14 -149 14 -11 0 -13 17 -8 93 8 112 20 157
53 196 34 41 94 67 201 89 118 25 231 26 418 7 242 -24 265 -27 259 -36 -9
-15 4 -10 26 8 11 10 20 25 20 34 0 29 56 42 71 17 4 -6 7 2 7 16 0 15 -3 25
-6 22 -2 -3 -13 -1 -23 4 -14 8 -19 6 -24 -10 -7 -21 -34 -27 -50 -11 -9 7
-149 29 -300 46 -67 8 -266 8 -330 1 -138 -16 -254 -54 -311 -103 -58 -50 -87
-129 -99 -276 l-7 -88 -57 3 -56 3 -3 255 c-2 140 0 292 3 338 9 107 29 134
123 161 106 31 280 63 305 56 15 -4 18 -4 8 3 -10 7 4 12 45 17 33 3 86 13
119 20 108 24 101 29 108 -87z m2490 -100 c10 -32 -5 -45 -56 -52 -29 -3 -235
-6 -459 -6 l-408 0 0 -510 0 -510 -50 0 -50 0 0 545 0 545 509 0 c399 0 510
-3 514 -12z m-273 -358 l0 -230 -285 0 -285 0 0 230 0 230 285 0 285 0 0 -230z
m100 218 c0 7 14 12 34 12 l34 0 1 -458 c1 -252 -1 -466 -5 -475 -4 -13 -18
-17 -51 -17 -37 0 -44 3 -39 16 3 9 6 223 6 477 0 302 4 457 10 447 6 -10 10
-11 10 -2z m-98 -550 c3 -24 3 -46 1 -50 -4 -8 -256 -9 -435 -1 l-138 6 0 37
c0 20 3 40 7 43 3 4 131 7 284 7 l277 0 4 -42z m-4732 -74 c0 -17 -75 -92 -87
-87 -8 3 -12 12 -9 20 3 8 2 11 -3 8 -15 -9 -9 -44 6 -38 7 3 13 2 13 -1 0 -8
-202 -273 -237 -311 l-28 -30 -259 3 -260 3 140 134 139 135 61 -1 c95 -2 100
2 96 63 -2 37 0 49 7 39 7 -11 8 -2 4 27 l-6 42 212 0 c116 0 211 -3 211 -6z
m2025 -3 c3 -5 -1 -16 -9 -24 -8 -8 -12 -17 -9 -21 11 -11 31 -6 37 10 4 9 2
13 -5 8 -7 -4 -10 -1 -7 6 2 7 12 14 22 16 16 2 17 -3 11 -54 -6 -53 -28 -162
-41 -206 -5 -16 -8 -17 -21 -3 -10 9 -18 47 -23 108 -10 120 -4 169 21 169 10
0 20 -4 24 -9z m-2527 -10 c8 -5 12 -22 10 -42 l-3 -34 -942 -3 -943 -2 0 38
c0 21 3 42 7 45 9 10 1856 8 1871 -2z m4245 2 c9 -16 -8 -158 -19 -156 -10 2
-202 28 -277 38 -25 4 -36 2 -32 -5 3 -5 -1 -10 -9 -10 -9 0 -16 -7 -16 -16 0
-12 -5 -11 -20 7 -10 13 -19 18 -20 12 0 -7 5 -13 12 -13 9 0 9 -3 0 -12 -19
-19 -25 -2 -18 55 l7 55 102 12 c56 7 136 18 177 25 95 16 108 17 113 8z"/>
<path d="M8368 4252 c-186 -1 -338 -6 -338 -10 0 -4 29 -5 65 -4 48 3 65 0 65
-9 0 -10 3 -10 12 -1 7 7 17 12 22 12 6 0 4 -5 -4 -10 -13 -8 -13 -10 2 -10 9
0 19 6 21 13 4 10 6 10 6 0 1 -9 22 -13 72 -13 53 0 68 3 63 13 -6 10 -4 10 7
0 16 -15 95 -17 104 -3 3 6 21 9 38 9 l32 -2 -35 -7 c-32 -7 -31 -7 18 -9 33
-1 51 3 47 9 -3 6 -1 10 4 10 6 0 11 -4 11 -10 0 -5 16 -9 35 -8 21 1 32 5 28
12 -3 6 0 5 8 -1 16 -16 49 -17 49 -2 0 8 6 7 17 -2 11 -10 14 -10 9 -1 -5 8
1 12 21 11 25 0 26 -1 8 -9 -19 -8 -19 -9 2 -9 12 -1 24 5 27 12 5 10 7 10 12
0 3 -8 24 -13 52 -12 26 1 39 3 29 6 -9 2 -15 9 -12 14 4 5 -23 9 -64 9 -38 0
-75 1 -83 3 -7 1 -165 1 -350 -1z"/>
<path d="M6274 7246 c-3 -8 -4 -23 -2 -33 3 -17 55 -18 1218 -21 668 -1 1225
0 1238 3 13 3 20 10 17 15 -3 6 -1 10 6 10 7 0 5 8 -6 20 -18 20 -31 20 -1242
20 -1056 0 -1224 -2 -1229 -14z"/>
<path d="M6345 6905 c-15 -48 -102 -45 1195 -42 664 1 1212 6 1216 10 5 4 3
16 -2 25 -10 16 -94 17 -1208 20 -1058 2 -1197 0 -1201 -13z"/>
<path d="M8757 6574 c-2 -2 -497 -4 -1099 -4 -1180 0 -1130 2 -1113 -49 6 -21
9 -21 1096 -23 599 -2 1089 1 1089 5 0 5 5 5 10 2 6 -3 11 1 11 9 1 9 3 21 4
26 1 6 3 14 4 20 0 5 8 7 16 4 8 -4 15 -4 15 -1 0 7 -27 16 -33 11z"/>
<path d="M6634 6205 c-4 -8 -4 -22 0 -30 5 -13 130 -15 1038 -16 568 0 1040
-2 1048 -4 23 -4 38 18 29 43 l-8 22 -1051 0 c-925 0 -1051 -2 -1056 -15z"/>
<path d="M6640 5895 c-6 -8 -10 -22 -8 -32 3 -17 47 -18 913 -21 501 -1 920 0
933 3 24 6 27 30 5 53 -9 9 -206 12 -921 12 -783 0 -911 -2 -922 -15z"/>
<path d="M6641 5547 c-17 -17 -13 -45 8 -57 13 -6 229 -10 631 -10 532 0 611
2 616 15 4 8 10 13 14 10 5 -3 6 4 3 15 -3 11 -10 23 -17 27 -20 13 -1242 13
-1255 0z"/>
<path d="M3781 4881 c-8 -14 -7 -22 3 -30 9 -8 357 -10 1256 -9 l1244 3 7 27
7 28 -1254 0 c-1222 0 -1253 0 -1263 -19z"/>
<path d="M4080 4819 c-66 -4 -74 -6 -35 -8 117 -7 1465 -5 1465 2 0 4 -10 7
-22 7 -464 4 -1345 4 -1408 -1z"/>
<path d="M3770 4494 c-6 -14 -10 -27 -10 -29 0 -3 422 -3 938 -2 l937 2 0 25
0 25 -928 3 -927 2 -10 -26z"/>
<path d="M3747 4173 c-4 -3 -7 -17 -7 -30 l0 -23 915 0 c808 0 916 2 921 15 4
8 1 22 -6 30 -11 13 -128 15 -915 15 -496 0 -905 -3 -908 -7z"/>
<path d="M5545 3848 c-22 -4 -447 -7 -945 -7 -498 0 -913 0 -922 -1 -21 0 -24
-33 -4 -49 10 -8 273 -11 975 -11 l961 0 0 26 c0 39 -19 51 -65 42z"/>
<path d="M6293 3440 c-16 -6 -23 -18 -23 -35 0 -17 7 -28 23 -34 38 -14 612
-73 691 -71 39 1 66 17 66 40 0 28 -24 37 -130 44 -208 15 -525 49 -528 57 -5
11 -70 10 -99 -1z"/>
<path d="M1940 3291 c-136 -59 -600 -290 -600 -298 0 -20 28 -45 51 -46 28 -1
52 5 59 15 6 7 404 203 533 261 72 33 77 38 77 66 0 27 -3 31 -27 31 -16 -1
-57 -13 -93 -29z"/>
<path d="M8393 2707 c1 -7 -6 -11 -16 -11 -14 2 -15 -1 -6 -12 8 -10 8 -14 0
-14 -6 0 -11 -8 -11 -17 0 -15 2 -15 9 -4 8 12 11 12 24 -1 9 -8 45 -28 81
-43 37 -16 63 -32 59 -38 -3 -6 -2 -7 4 -4 11 7 143 -41 142 -51 -3 -18 2 -32
11 -32 5 0 7 7 4 15 -4 8 -1 15 4 15 6 0 17 -7 26 -15 8 -8 22 -15 31 -15 8 0
18 -7 22 -16 6 -15 7 -15 19 0 7 10 16 16 20 14 11 -5 10 63 -1 70 -5 4 -12 7
-15 7 -3 1 -27 11 -55 24 -87 40 -285 120 -320 130 -25 7 -34 6 -32 -2z"/>
<path d="M7712 2528 c-32 -32 -23 -42 228 -243 74 -60 137 -111 140 -114 14
-16 30 -7 45 26 13 27 19 32 26 22 7 -11 9 -10 9 5 0 13 -5 16 -17 12 -9 -4
-19 -3 -22 2 -12 19 -373 302 -385 302 -7 0 -17 -5 -24 -12z"/>
<path d="M6763 2473 c-16 -33 -18 -31 157 -193 80 -74 144 -139 142 -143 -1
-5 2 -6 6 -3 5 3 18 -4 28 -17 19 -21 19 -21 -1 -7 -19 14 -19 14 -6 -3 8 -9
16 -15 19 -12 3 3 20 -9 38 -26 32 -31 34 -31 58 -15 24 15 25 15 19 -1 -3
-10 -3 -15 2 -11 4 4 8 18 9 30 1 13 7 22 15 20 7 -1 10 2 6 7 -3 6 -12 8 -19
5 -8 -3 -16 4 -19 16 -3 12 -10 19 -16 15 -6 -3 -11 1 -11 9 0 8 -6 16 -14 18
-7 2 -93 75 -190 163 -97 88 -184 163 -194 166 -13 5 -21 0 -29 -18z"/>
<path d="M5350 2296 c0 -11 -8 -12 -37 -5 -41 9 -444 12 -480 3 -15 -4 -22
-15 -25 -39 l-4 -34 261 0 c143 -1 265 2 271 6 12 8 29 83 19 83 -3 0 -5 -6
-5 -14z"/>
</g>
</svg>
