<?xml version="1.0" standalone="no"?>
<!DOCTYPE svg PUBLIC "-//W3C//DTD SVG 20010904//EN"
 "http://www.w3.org/TR/2001/REC-SVG-20010904/DTD/svg10.dtd">
<svg version="1.0" xmlns="http://www.w3.org/2000/svg"
 width="1024.000000pt" height="1024.000000pt" viewBox="0 0 1024.000000 1024.000000"
 preserveAspectRatio="xMidYMid meet">
<metadata>
Created by potrace 1.16, written by Peter Selinger 2001-2019
</metadata>
<g transform="translate(0.000000,1024.000000) scale(0.100000,-0.100000)"
fill="#000000" stroke="none">
<path d="M6086 8063 c-4 -5 -25 -8 -45 -9 -26 0 -47 -9 -65 -26 -27 -24 -27
-28 -33 -174 -3 -82 -5 -160 -5 -174 0 -14 -4 -52 -9 -85 -6 -33 -12 -73 -14
-90 -2 -16 -8 -45 -14 -63 -5 -18 -10 -35 -10 -37 -5 -46 -68 -178 -82 -169
-5 3 -6 -2 -3 -10 10 -26 -202 -226 -241 -226 -2 0 -16 -11 -29 -23 -22 -21
-182 -107 -199 -107 -3 0 -30 -11 -59 -24 -75 -34 -233 -91 -298 -107 -30 -7
-57 -16 -60 -20 -3 -3 -18 -9 -35 -12 -42 -7 -66 -13 -97 -26 -16 -6 -28 -9
-28 -6 0 2 -18 -2 -40 -10 -22 -8 -40 -12 -40 -10 0 3 -17 -2 -37 -10 -21 -8
-47 -16 -58 -18 -11 -2 -38 -9 -60 -15 -22 -6 -56 -14 -75 -17 -19 -3 -63 -14
-97 -25 -33 -10 -79 -21 -102 -25 -22 -3 -56 -12 -76 -20 -19 -8 -45 -15 -57
-15 -13 -1 -41 -8 -63 -16 -22 -9 -49 -17 -60 -19 -11 -2 -38 -11 -60 -19 -22
-8 -47 -15 -55 -16 -8 0 -33 -9 -55 -20 -22 -10 -43 -16 -47 -14 -5 3 -8 0 -8
-5 0 -6 -7 -11 -15 -11 -9 0 -54 -18 -101 -40 -47 -22 -91 -37 -97 -33 -6 4
-7 1 -2 -7 6 -10 4 -12 -9 -7 -9 4 -15 3 -12 -2 7 -11 -69 -62 -94 -64 -10 -1
-17 -4 -14 -8 5 -9 -84 -72 -102 -72 -7 0 -11 -3 -9 -7 2 -4 -26 -33 -62 -66
-37 -32 -73 -65 -80 -73 -22 -21 -147 -174 -158 -192 -5 -10 -25 -39 -43 -65
-46 -66 -137 -238 -157 -299 -9 -27 -20 -54 -25 -60 -4 -5 -9 -14 -9 -20 -2
-17 -22 -75 -36 -102 -9 -16 -15 -20 -18 -11 -4 9 -6 9 -6 1 -1 -6 3 -15 9
-18 6 -4 6 -12 0 -23 -6 -9 -25 -77 -44 -150 -19 -74 -37 -128 -40 -120 -3 7
-4 -1 -2 -18 3 -16 1 -48 -4 -70 -5 -21 -14 -79 -21 -129 -6 -49 -13 -101 -15
-115 -2 -14 -6 -54 -10 -90 -3 -36 -13 -73 -21 -82 -8 -9 -13 -23 -10 -30 3
-8 6 -5 7 7 0 16 2 17 9 5 5 -8 6 -31 3 -50 l-6 -35 -7 30 -7 30 -1 -32 c0
-18 3 -33 8 -33 5 0 7 -24 5 -53 -3 -44 -8 -165 -18 -397 -1 -25 4 -58 10 -75
6 -16 10 -36 8 -43 -1 -7 0 -8 2 -3 3 6 19 4 39 -6 28 -13 41 -14 72 -5 21 6
44 21 51 32 8 13 14 69 17 143 2 67 7 154 9 192 3 39 8 120 11 180 7 123 13
188 20 225 3 14 7 48 9 75 3 28 9 73 15 100 5 28 12 79 16 115 4 36 9 68 12
72 2 5 6 16 8 25 73 319 160 539 293 743 20 30 39 57 43 60 3 3 8 10 10 17 12
34 147 176 234 246 33 26 68 55 78 63 9 7 22 14 27 14 6 0 10 5 10 10 0 6 6
10 14 10 8 0 21 6 28 13 7 7 27 20 43 29 17 9 56 30 88 48 32 17 63 33 70 34
7 1 22 7 34 14 12 7 30 13 40 15 10 2 25 6 33 9 64 23 203 70 213 72 7 1 21 5
32 9 11 3 32 9 48 12 57 11 76 15 173 41 54 14 117 29 139 34 22 4 52 12 68
18 15 7 42 14 60 16 38 5 70 12 100 22 28 10 54 14 94 17 17 1 29 5 26 10 -2
4 2 7 9 7 7 0 62 16 122 35 61 20 116 33 123 30 8 -2 12 -1 9 4 -6 9 218 87
242 84 7 0 11 2 7 5 -7 8 133 74 161 76 12 0 20 6 18 11 -2 6 17 20 43 32 112
51 305 212 364 304 18 26 36 46 41 43 5 -3 7 -1 6 4 -6 17 65 151 76 145 6 -4
5 0 -1 8 -8 10 -9 19 -3 25 5 5 11 21 14 36 2 15 7 31 10 36 3 5 8 33 11 62 4
30 11 62 16 71 14 27 33 355 25 431 -6 49 -14 73 -31 92 -12 13 -20 27 -17 30
3 3 3 6 0 6 -2 0 -8 -3 -12 -7z"/>
<path d="M5477 6110 c-40 -12 -126 -58 -163 -86 -17 -13 -34 -24 -38 -24 -5 0
-28 -13 -53 -30 -24 -16 -46 -30 -49 -30 -2 0 -23 -14 -46 -30 -23 -17 -48
-28 -55 -26 -7 3 -12 0 -10 -6 1 -6 -20 -24 -47 -40 -39 -23 -51 -26 -58 -16
-8 10 -9 9 -5 -3 6 -18 -61 -79 -85 -79 -10 0 -9 3 2 11 12 9 12 10 -3 5 -10
-3 -22 -6 -25 -6 -4 0 0 -4 8 -10 8 -5 12 -11 10 -13 -3 -2 -39 -29 -81 -60
-42 -31 -96 -75 -120 -97 -61 -57 -95 -81 -103 -72 -4 4 -6 1 -4 -5 5 -20
-144 -165 -154 -150 -6 9 -8 8 -6 -3 3 -14 -37 -65 -140 -178 -28 -31 -32 -33
-24 -12 22 58 33 246 19 310 -3 14 -8 36 -11 50 -10 46 -56 126 -93 164 -68
68 -137 86 -218 57 -31 -12 -71 -68 -121 -169 -15 -30 -30 -49 -36 -45 -7 3
-8 1 -4 -6 4 -6 -4 -31 -17 -54 -14 -23 -46 -82 -73 -132 -263 -494 -400 -777
-438 -910 -17 -60 -26 -94 -30 -115 -3 -14 -10 -46 -15 -72 -25 -111 -32 -148
-47 -246 -8 -56 -17 -117 -19 -135 -7 -59 -26 -142 -40 -179 -8 -21 -12 -38
-9 -38 4 0 2 -6 -3 -12 -6 -7 -13 -24 -16 -38 -7 -30 -72 -133 -108 -171 -13
-15 -49 -55 -79 -90 -30 -35 -123 -131 -206 -214 -162 -162 -169 -174 -133
-232 32 -52 96 -61 152 -21 46 32 329 321 398 405 15 18 29 30 33 28 3 -3 4
-2 2 1 -2 3 17 40 43 82 69 112 120 233 135 322 3 19 8 46 11 60 3 14 7 43 10
65 4 34 12 82 30 180 15 83 53 239 82 334 41 137 117 326 131 326 6 0 14 4 19
9 5 5 3 6 -4 2 -7 -4 -13 -4 -13 1 0 15 101 208 113 215 7 4 9 8 4 8 -6 0 17
47 155 305 27 50 76 144 109 210 33 66 64 124 69 129 8 8 31 -32 32 -54 0 -3
6 -19 13 -37 24 -56 7 -249 -28 -335 -10 -23 -13 -25 -18 -10 -3 9 -6 -1 -5
-23 1 -50 -77 -221 -95 -209 -8 4 -9 3 -5 -4 4 -6 -37 -64 -93 -132 -56 -67
-119 -148 -142 -180 -23 -33 -45 -58 -49 -55 -4 2 -5 -7 -2 -22 3 -14 1 -23
-4 -20 -5 3 -10 -8 -11 -23 -2 -22 2 -28 12 -23 8 3 15 0 15 -6 0 -21 52 -61
78 -61 36 0 79 37 147 126 33 43 67 88 75 98 42 56 134 145 143 139 6 -3 7 -1
4 4 -7 12 24 46 213 230 69 67 159 157 202 200 114 117 259 248 270 245 5 -1
7 2 4 7 -3 5 9 20 27 34 17 14 50 42 71 61 37 34 49 40 69 37 5 -1 6 2 3 7 -5
8 132 112 219 167 370 235 393 245 436 212 22 -17 31 -72 17 -103 -15 -32
-147 -137 -164 -130 -7 3 -11 0 -8 -7 4 -12 -111 -90 -133 -90 -7 0 -11 -4
-10 -8 1 -4 -12 -18 -29 -31 -88 -64 -142 -108 -171 -138 -19 -20 -36 -29 -44
-25 -8 5 -10 4 -5 -3 7 -11 -6 -17 -27 -13 -5 1 -6 -2 -3 -7 9 -15 -252 -267
-274 -266 -11 1 -17 -3 -14 -7 3 -5 11 -6 17 -3 7 4 1 -5 -12 -19 -13 -15 -28
-24 -33 -21 -5 3 -7 0 -6 -6 2 -7 -8 -14 -21 -16 -14 -3 -27 -7 -30 -11 -3 -3
4 -3 17 0 12 3 22 2 22 -2 0 -14 -137 -141 -145 -134 -4 4 -5 3 -2 -4 4 -6 -3
-24 -16 -40 -38 -47 -49 -76 -42 -113 4 -19 8 -42 9 -50 2 -8 7 -15 12 -16 32
-3 63 -18 57 -28 -5 -8 -3 -8 8 0 8 6 26 14 41 18 15 3 43 26 63 51 21 25 41
42 46 39 5 -3 8 -1 7 4 -10 33 556 593 583 577 5 -4 8 -2 7 3 -2 5 17 26 42
45 31 26 47 33 52 24 5 -8 8 -7 8 4 0 21 43 60 68 62 11 0 20 5 19 9 -2 7 111
88 273 196 47 32 87 60 88 65 2 4 8 7 13 7 5 0 39 18 75 41 37 22 73 38 81 35
8 -3 11 -1 8 4 -12 20 35 9 55 -12 21 -23 26 -70 11 -110 -10 -26 -95 -91
-106 -80 -3 4 -6 2 -5 -3 5 -22 -1 -35 -14 -35 -8 0 -16 -4 -18 -8 -1 -5 -31
-28 -66 -53 -35 -24 -75 -53 -90 -64 -108 -79 -163 -115 -174 -113 -7 2 -12
-3 -11 -9 2 -7 -15 -25 -37 -39 -22 -15 -40 -30 -40 -35 0 -4 -8 -10 -17 -13
-10 -4 -35 -21 -55 -39 -20 -17 -56 -48 -79 -67 -23 -19 -71 -62 -107 -95 -36
-33 -69 -59 -74 -58 -4 2 -7 -3 -5 -10 1 -7 -7 -11 -23 -10 -21 2 -22 1 -6 -5
18 -8 15 -13 -26 -58 -25 -27 -62 -67 -83 -89 -54 -59 -249 -296 -269 -327
-27 -42 -23 -94 9 -128 55 -57 119 -46 169 30 15 22 31 38 37 35 5 -4 8 -2 7
4 -6 20 326 406 408 474 17 15 35 23 39 19 5 -4 5 -2 1 5 -8 14 144 148 284
249 36 26 81 59 100 73 41 32 136 93 167 110 35 18 60 14 67 -12 3 -13 12 -24
20 -24 8 0 12 6 9 14 -3 7 -9 10 -14 7 -5 -3 -9 0 -9 5 0 14 17 14 26 0 13
-22 22 -79 13 -85 -5 -3 -7 -10 -4 -15 4 -5 1 -9 -4 -9 -6 0 -11 -5 -11 -10 0
-11 -112 -124 -159 -161 -13 -10 -28 -16 -34 -12 -6 4 -7 1 -2 -7 5 -8 1 -18
-10 -26 -9 -7 -32 -26 -49 -41 -17 -15 -58 -50 -91 -78 -33 -27 -127 -117
-210 -200 -82 -82 -154 -148 -158 -147 -5 1 -6 -1 -3 -6 4 -7 -63 -94 -257
-332 -38 -47 -85 -118 -91 -137 -8 -27 15 -75 46 -97 30 -22 80 -20 110 3 13
11 51 54 83 98 33 43 67 87 77 98 61 70 83 96 121 145 54 70 196 230 222 250
11 8 24 14 28 12 5 -1 6 1 4 5 -8 12 38 64 59 67 10 2 18 8 17 14 -4 15 107
112 136 119 29 7 57 -8 55 -31 -1 -9 3 -13 9 -9 6 4 7 -7 3 -32 -8 -40 -26
-75 -38 -75 -5 0 -8 -6 -8 -13 0 -7 -13 -27 -30 -45 -16 -18 -30 -37 -30 -41
0 -13 -58 -60 -66 -53 -4 4 -4 1 1 -7 4 -7 3 -16 -2 -20 -10 -7 -86 -100 -118
-145 -11 -16 -25 -34 -32 -41 -6 -7 -22 -28 -35 -46 -13 -19 -48 -68 -78 -109
-30 -42 -61 -84 -68 -95 -7 -11 -25 -39 -40 -62 -15 -23 -32 -41 -38 -39 -6 2
-17 0 -25 -6 -11 -8 -10 -9 4 -4 9 3 17 3 17 0 0 -16 -104 -152 -113 -147 -6
3 -7 1 -3 -6 5 -7 -4 -28 -21 -49 -15 -20 -43 -59 -62 -87 -19 -27 -39 -55
-45 -62 -6 -7 -17 -19 -24 -28 -7 -8 -18 -12 -24 -9 -7 4 -8 2 -4 -5 19 -30
-328 -386 -483 -496 -23 -16 -54 -40 -69 -53 -15 -12 -56 -40 -92 -62 -36 -22
-74 -46 -85 -53 -11 -6 -35 -22 -53 -35 -18 -13 -39 -21 -47 -18 -8 3 -12 0
-9 -7 2 -7 -16 -23 -43 -37 -26 -14 -56 -33 -67 -42 -11 -10 -23 -18 -27 -18
-4 0 -14 -6 -21 -12 -7 -7 -31 -26 -52 -42 -22 -16 -61 -49 -88 -72 -32 -29
-54 -41 -65 -38 -12 4 -14 3 -6 -3 8 -6 -5 -26 -43 -67 -30 -33 -54 -69 -55
-80 0 -12 -2 -29 -4 -39 -2 -10 10 -34 27 -53 24 -27 37 -34 67 -34 32 0 48
12 150 110 63 61 118 110 122 110 4 0 9 3 11 8 4 10 115 92 125 92 9 0 87 53
91 63 2 4 10 7 18 7 8 0 14 5 14 10 0 6 4 10 9 10 10 0 190 110 214 130 6 6
41 32 77 58 36 25 67 49 70 52 3 3 28 23 55 45 28 21 64 53 81 69 16 17 46 45
65 62 31 28 114 116 195 205 23 27 124 152 172 214 30 38 122 174 122 179 0 3
7 14 15 23 19 24 189 264 237 336 23 34 44 55 50 51 6 -4 8 -3 4 4 -3 5 10 31
29 56 19 26 35 50 35 54 0 14 74 87 84 84 6 -2 8 0 4 3 -8 8 5 37 28 63 8 9
33 37 54 62 22 25 40 48 40 52 0 4 10 18 23 31 46 51 90 149 93 209 3 61 -21
145 -50 173 -17 17 -22 40 -7 31 5 -4 7 3 4 14 -6 23 -23 37 -23 19 0 -7 -2
-10 -5 -7 -3 3 28 40 69 81 66 68 121 153 134 207 7 27 2 113 -8 148 -5 19 -7
39 -4 44 3 5 1 7 -3 6 -11 -3 -82 69 -76 76 3 3 -4 2 -16 -1 -28 -7 -27 0 10
39 53 58 84 136 82 208 -1 28 -4 41 -21 83 -7 16 -12 31 -12 35 -1 24 -108
119 -149 131 -34 10 -161 5 -173 -7 -6 -6 -19 -12 -28 -12 -9 0 -31 -11 -50
-25 -18 -13 -37 -22 -41 -19 -5 3 -9 1 -9 -3 0 -5 -10 -14 -21 -22 -19 -11
-21 -11 -16 3 4 9 3 16 -1 16 -4 0 -13 20 -20 44 -7 29 -27 60 -54 88 -23 24
-41 45 -41 48 2 7 -10 8 -102 15 -38 2 -83 0 -98 -5z"/>
</g>
</svg>
