<?xml version="1.0" standalone="no"?>
<!DOCTYPE svg PUBLIC "-//W3C//DTD SVG 20010904//EN"
 "http://www.w3.org/TR/2001/REC-SVG-20010904/DTD/svg10.dtd">
<svg version="1.0" xmlns="http://www.w3.org/2000/svg"
 width="1024.000000pt" height="1024.000000pt" viewBox="0 0 1024.000000 1024.000000"
 preserveAspectRatio="xMidYMid meet">
<metadata>
Created by potrace 1.16, written by Peter Selinger 2001-2019
</metadata>
<g transform="translate(0.000000,1024.000000) scale(0.100000,-0.100000)"
fill="#000000" stroke="none">
<path d="M4110 8551 c31 -6 33 -8 13 -15 -12 -4 -46 -7 -75 -7 -63 0 -140 -6
-188 -15 -19 -3 -48 -7 -65 -8 -16 0 -33 -4 -36 -9 -3 -4 -23 -9 -45 -10 -21
-2 -46 -7 -55 -11 -9 -4 -27 -8 -41 -10 -13 -1 -29 -6 -36 -10 -7 -4 -16 -4
-22 -1 -5 3 -10 1 -10 -4 0 -6 -8 -11 -17 -11 -19 0 -142 -36 -188 -55 -25
-11 -65 -25 -85 -30 -3 -1 -21 -9 -40 -17 -19 -9 -38 -14 -42 -12 -5 3 -8 1
-8 -4 0 -5 -17 -16 -39 -24 -21 -8 -84 -41 -139 -72 -56 -31 -104 -56 -108
-56 -4 1 -10 -2 -13 -7 -3 -4 -33 -26 -66 -48 -33 -22 -95 -67 -139 -100 -43
-33 -88 -67 -100 -75 -11 -8 -80 -76 -153 -150 -152 -156 -173 -178 -173 -188
0 -4 -17 -26 -39 -50 -21 -23 -37 -42 -34 -42 3 0 -8 -17 -24 -37 -16 -21 -47
-67 -68 -103 -21 -36 -43 -68 -48 -71 -5 -3 -8 -9 -8 -13 2 -10 -30 -68 -45
-84 -12 -12 -17 -26 -13 -34 1 -2 -9 -23 -21 -48 -13 -25 -25 -49 -26 -55 -1
-5 -10 -28 -19 -50 -23 -53 -38 -89 -40 -95 -1 -3 -4 -12 -7 -20 -3 -8 -21
-62 -39 -118 -24 -75 -35 -99 -40 -85 -7 16 -8 16 -8 -4 -1 -12 4 -25 9 -28 7
-4 7 -12 0 -25 -5 -10 -10 -31 -10 -46 0 -15 -4 -43 -9 -63 -12 -43 -34 -190
-37 -246 -10 -146 -9 -447 2 -523 6 -48 15 -114 18 -147 6 -61 13 -100 17
-100 2 0 6 -23 14 -78 3 -21 15 -61 26 -88 11 -28 21 -68 22 -89 1 -21 5 -36
10 -33 8 5 33 -48 39 -82 1 -11 5 -22 8 -25 15 -13 75 -168 73 -187 -1 -15 2
-20 11 -17 12 5 30 -28 27 -48 -1 -5 3 -8 7 -8 5 0 14 -12 21 -27 10 -21 9
-28 -1 -34 -9 -6 -6 -9 10 -9 13 0 21 -4 18 -9 -4 -5 0 -12 6 -14 10 -4 10 -6
1 -6 -7 -1 -13 -11 -12 -23 0 -21 1 -21 8 -4 5 14 10 16 15 8 4 -7 5 -12 2
-12 -2 0 8 -12 23 -27 15 -16 40 -50 56 -78 15 -27 39 -62 53 -77 15 -16 21
-31 16 -40 -4 -7 -4 -10 0 -6 11 9 57 -34 52 -48 -3 -7 2 -15 11 -18 13 -5 13
-9 2 -24 -13 -15 -12 -16 4 -3 15 12 20 10 37 -12 27 -35 222 -227 256 -254
25 -19 27 -24 14 -33 -13 -10 -12 -11 3 -6 9 3 17 1 17 -5 0 -6 3 -8 8 -5 12
7 45 -22 37 -33 -3 -7 0 -8 9 -5 8 3 23 -3 33 -13 10 -10 31 -25 47 -33 16 -8
38 -25 50 -37 11 -13 27 -23 34 -23 6 0 12 -4 12 -10 0 -5 7 -10 15 -10 8 0
15 -3 15 -8 0 -4 17 -16 38 -27 20 -11 39 -22 42 -25 4 -4 203 -107 248 -129
10 -4 32 -15 50 -24 19 -9 42 -17 53 -17 10 0 19 -4 19 -8 0 -5 7 -9 15 -9 8
0 31 -7 52 -15 21 -9 46 -19 55 -22 11 -3 15 -12 12 -28 l-5 -23 10 22 c9 19
14 21 33 14 33 -13 285 -69 342 -76 l48 -7 -6 -45 c-3 -25 -6 -70 -6 -100 0
-30 -3 -52 -8 -49 -4 2 -8 -33 -9 -77 -1 -45 -5 -118 -8 -162 -4 -44 -8 -102
-9 -130 -8 -119 -19 -211 -27 -228 -6 -9 -7 -22 -4 -27 8 -13 -41 -130 -67
-157 -13 -14 -28 -21 -37 -18 -9 3 -12 3 -9 -1 4 -3 1 -12 -5 -19 -13 -13 -72
-46 -82 -45 -3 0 -8 -1 -12 -1 -5 -1 -66 -2 -138 -4 -153 -3 -192 -8 -254 -36
-25 -11 -47 -20 -49 -19 -1 0 -12 -9 -24 -20 -12 -11 -25 -20 -29 -20 -4 0
-28 -21 -53 -47 -44 -47 -130 -196 -119 -207 3 -3 1 -12 -6 -19 -6 -8 -11 -25
-10 -38 1 -13 -3 -44 -7 -69 -12 -59 -2 -236 13 -251 6 -6 40 -14 75 -18 56
-5 2487 -6 2530 0 36 5 49 60 42 181 -8 164 -14 211 -27 224 -4 4 -7 13 -7 20
0 18 -66 129 -93 157 -36 37 -113 97 -126 97 -6 0 -11 5 -11 12 0 6 -3 9 -6 5
-8 -7 -64 20 -64 31 0 9 -42 12 -221 16 -137 2 -165 8 -153 29 5 9 4 9 -6 0
-10 -9 -21 -8 -51 8 -22 11 -39 25 -39 31 0 6 -3 8 -6 5 -4 -4 -22 13 -40 36
-36 45 -53 107 -60 210 -2 33 -8 73 -12 91 -5 17 -6 40 -2 51 4 11 4 25 -1 31
-5 6 -11 49 -15 95 -3 46 -8 104 -11 129 -2 25 -6 77 -8 115 -2 39 -7 106 -10
151 l-7 81 43 7 c24 4 53 9 64 11 11 2 38 6 60 10 22 3 60 13 85 20 25 8 56
17 70 19 14 3 27 6 30 7 3 1 10 3 15 4 6 1 17 5 25 8 8 3 78 29 154 57 117 43
369 160 386 180 13 14 88 60 98 60 7 0 12 4 12 8 0 5 12 15 28 23 15 8 29 16
32 19 3 3 34 28 70 55 100 76 152 122 259 230 149 152 191 197 207 228 8 15
19 27 24 27 6 0 10 5 10 10 0 6 17 34 38 63 21 29 56 81 78 117 21 36 43 68
49 72 5 4 7 8 3 8 -4 0 8 25 28 56 19 30 37 65 40 77 2 12 8 23 14 25 6 2 8 8
4 13 -3 5 0 9 5 9 6 0 10 3 9 8 -5 14 24 72 33 66 5 -3 6 2 3 11 -4 8 -1 22 6
30 7 8 10 15 7 15 -3 0 10 39 29 87 19 47 34 94 34 103 0 9 3 20 7 24 4 3 8
14 9 24 2 9 13 55 24 102 23 93 24 97 35 185 4 33 11 65 16 70 17 22 28 475
14 565 -4 25 -8 61 -10 80 -2 19 -4 36 -5 38 -1 1 -4 14 -5 30 -2 15 -5 41 -9
57 -3 17 -9 46 -13 65 -7 38 -7 38 -16 60 -6 16 -34 135 -43 185 -3 17 -9 32
-13 35 -5 4 -43 109 -47 130 0 3 -9 23 -19 45 -9 22 -18 45 -19 50 -3 15 -104
218 -116 232 -6 7 -16 25 -22 40 -7 15 -30 51 -50 78 -21 28 -38 55 -38 61 0
6 -9 19 -20 29 -11 10 -20 24 -20 31 0 7 -3 14 -8 16 -6 3 -63 69 -167 196
-49 60 -183 182 -298 272 -31 25 -57 48 -57 52 0 5 -7 8 -15 8 -7 0 -18 7 -23
16 -5 9 -13 16 -18 17 -20 2 -103 60 -98 68 3 5 -2 6 -10 3 -10 -4 -16 -1 -16
7 0 7 -3 10 -6 7 -3 -3 -33 11 -67 32 -71 44 -218 117 -253 126 -13 3 -24 11
-24 17 0 6 -3 8 -6 4 -3 -3 -43 8 -88 25 -94 35 -131 47 -165 54 -14 3 -29 8
-35 12 -6 3 -17 7 -26 8 -8 1 -69 14 -135 29 -176 39 -168 37 -265 46 -47 4
-308 21 -322 20 -10 0 -18 4 -18 10 0 5 -17 8 -37 8 l-38 -2 35 -6z m385 -184
c22 -3 58 -9 80 -12 22 -3 51 -8 64 -10 13 -2 45 -7 70 -11 25 -4 51 -9 56
-12 10 -7 26 -11 60 -17 11 -2 21 -4 23 -5 1 -2 7 -4 12 -5 6 -1 13 -4 18 -5
4 -1 12 -3 17 -4 27 -4 81 -19 90 -24 6 -4 18 -8 28 -9 10 -2 34 -10 55 -19
20 -10 42 -18 48 -19 6 -2 38 -17 72 -33 34 -17 62 -28 62 -25 0 3 8 -1 19
-11 10 -9 29 -19 41 -21 13 -3 26 -8 29 -13 3 -4 26 -16 50 -27 24 -11 61 -32
82 -47 22 -16 43 -28 49 -28 5 0 10 -4 10 -10 0 -5 5 -10 11 -10 12 0 179
-118 179 -127 0 -3 -7 -2 -16 1 -8 3 -12 2 -9 -4 3 -6 15 -10 26 -10 22 0 86
-58 81 -73 -1 -4 3 -5 9 -2 14 9 91 -73 82 -87 -3 -6 -1 -8 4 -5 15 10 103
-73 106 -100 2 -12 7 -26 12 -30 4 -5 5 -2 1 5 -10 17 9 15 24 -3 6 -8 8 -20
4 -26 -4 -7 -3 -9 4 -5 6 3 20 -6 31 -20 23 -30 28 -49 9 -38 -9 5 -9 2 1 -9
15 -18 26 -23 16 -7 -3 6 -2 10 2 10 15 0 74 -91 67 -102 -4 -7 -2 -8 4 -4 7
4 12 3 12 -3 0 -5 7 -17 16 -26 13 -13 14 -18 3 -32 -12 -14 -11 -15 7 -9 16
5 24 -2 42 -40 12 -25 19 -51 16 -57 -4 -7 -4 -9 1 -5 9 8 30 -19 63 -80 l23
-42 -22 -8 -23 -9 22 -5 c14 -4 20 -2 15 4 -4 7 -1 8 6 3 7 -4 11 -16 8 -26
-3 -11 -1 -16 4 -13 11 6 61 -99 79 -166 6 -25 15 -52 20 -60 4 -9 11 -31 16
-50 4 -19 9 -38 10 -42 1 -5 2 -9 3 -10 2 -2 5 -14 7 -28 2 -14 13 -57 24 -95
11 -39 22 -91 25 -115 7 -69 14 -110 21 -132 4 -14 2 -18 -5 -14 -15 9 -14 5
4 -31 10 -20 14 -48 11 -79 -5 -62 -6 -64 -16 -34 -8 24 -8 24 -9 -7 -1 -17 4
-35 11 -39 7 -4 8 -3 4 4 -4 7 -2 12 3 12 14 0 15 -125 1 -150 -6 -10 -6 -21
-2 -24 7 -4 9 -71 2 -126 -2 -24 -3 -24 -10 5 -7 26 -8 24 -9 -20 0 -37 2 -46
10 -35 8 11 9 6 4 -18 -8 -37 -10 -51 -19 -132 -6 -50 -17 -93 -47 -200 -6
-19 -15 -59 -21 -87 -5 -29 -14 -53 -20 -53 -5 0 -7 -4 -3 -9 3 -5 1 -12 -5
-16 -6 -4 -8 -10 -5 -15 3 -5 -7 -36 -24 -69 -16 -32 -32 -73 -36 -90 -4 -17
-10 -31 -14 -31 -4 0 -14 -18 -21 -41 -8 -23 -19 -43 -26 -46 -6 -2 -14 -16
-17 -31 -3 -15 -15 -38 -26 -51 -12 -13 -21 -29 -21 -36 0 -17 -139 -225 -150
-225 -6 0 -10 -7 -10 -15 0 -7 -6 -18 -14 -22 -7 -4 -19 -18 -25 -31 -7 -14
-18 -21 -26 -18 -9 3 -12 0 -8 -10 3 -9 -5 -27 -20 -42 -15 -15 -57 -58 -94
-97 -109 -112 -289 -265 -311 -265 -6 0 -12 -6 -15 -12 -3 -7 -22 -22 -43 -33
-22 -11 -41 -23 -44 -27 -13 -16 -102 -58 -112 -52 -7 4 -8 2 -4 -4 4 -7 3
-12 -3 -12 -5 0 -16 -6 -23 -14 -17 -17 -118 -69 -118 -61 0 3 -19 -5 -42 -18
-38 -22 -110 -50 -130 -52 -3 0 -10 -3 -14 -7 -4 -4 -13 -3 -21 4 -11 9 -13 8
-11 -1 3 -14 -119 -61 -157 -61 -12 0 -25 -4 -31 -9 -8 -9 -177 -45 -324 -70
-128 -22 -568 -16 -658 8 -41 11 -57 15 -142 27 -45 6 -109 22 -135 34 -19 8
-72 21 -77 19 -7 -2 -154 54 -165 63 -7 6 -13 8 -13 4 0 -4 -13 0 -30 9 -16 8
-33 16 -37 17 -25 4 -251 123 -263 137 -3 4 -22 15 -43 26 -21 11 -68 43 -105
72 -37 28 -89 68 -117 87 -57 40 -251 227 -310 299 -22 27 -47 56 -56 65 -8
10 -23 31 -34 47 -10 17 -24 34 -32 38 -7 4 -13 14 -13 22 0 7 -4 15 -8 17
-11 4 -122 173 -122 186 0 6 -6 17 -14 25 -8 8 -31 50 -51 93 -20 43 -48 103
-62 133 -14 30 -26 59 -28 65 -1 6 -7 24 -13 39 -7 16 -12 34 -12 41 0 6 -5
17 -11 23 -5 5 -12 23 -14 39 -2 16 -4 30 -6 32 -1 1 -2 5 -3 10 -1 4 -5 13
-10 20 -4 7 -5 16 -2 19 3 3 1 14 -5 25 -6 10 -12 38 -15 60 -3 23 -9 49 -14
59 -5 9 -12 38 -14 63 -3 25 -7 49 -10 54 -9 16 -18 177 -19 352 0 182 8 323
24 400 5 25 11 54 13 65 3 11 7 31 11 45 4 14 9 41 11 60 7 49 64 242 76 258
6 6 7 12 4 12 -4 0 -4 6 1 13 4 6 8 17 9 22 1 6 9 27 17 48 9 20 17 41 18 45
6 22 118 235 149 281 19 29 40 61 45 70 14 23 58 85 65 91 3 3 18 24 34 48 17
24 35 41 42 38 8 -3 11 0 8 8 -10 26 252 300 314 329 12 5 22 14 22 20 0 5 7
6 16 3 8 -3 12 -2 9 3 -8 14 62 64 79 58 9 -4 13 -1 10 7 -3 7 34 37 95 75 55
34 104 62 108 63 4 0 20 9 35 19 14 10 31 19 38 19 6 0 18 7 27 15 8 8 19 13
24 10 5 -4 9 -1 9 4 0 6 3 10 8 9 4 -1 25 7 47 19 22 11 76 32 120 47 44 15
87 31 96 36 11 5 21 4 28 -3 10 -9 12 -9 9 3 -2 8 3 15 10 16 6 1 13 2 15 4 3
2 111 28 182 43 6 2 15 6 21 9 6 4 31 6 56 5 25 -1 44 1 42 5 -2 4 15 9 38 13
24 3 68 9 98 14 63 9 494 8 555 -2z m-59 -4862 c-4 -14 -10 -24 -15 -21 -4 3
-8 -1 -8 -9 0 -8 6 -15 14 -15 9 0 13 -18 14 -62 2 -71 3 -92 13 -197 4 -41 9
-102 12 -135 2 -34 7 -88 10 -121 3 -33 7 -94 8 -137 0 -42 5 -74 10 -71 5 4
6 -13 2 -38 -4 -26 -3 -39 2 -31 8 11 10 11 15 -2 7 -18 -8 -30 -25 -20 -7 4
-8 3 -4 -5 4 -6 15 -10 23 -9 9 2 18 -3 20 -9 3 -7 -3 -13 -12 -13 -9 0 -14
-4 -10 -10 3 -5 13 -6 23 -3 9 3 14 3 10 -2 -4 -4 2 -21 13 -36 11 -16 18 -29
15 -29 -6 0 2 -10 57 -69 15 -17 26 -36 25 -43 -2 -7 4 -12 13 -10 9 1 45 -12
79 -29 34 -17 74 -33 89 -35 14 -3 31 -6 38 -9 7 -2 72 -5 144 -6 134 -1 182
-10 209 -37 13 -13 13 -14 -5 -8 l-20 7 20 -18 c11 -11 29 -22 40 -26 20 -7
20 -7 1 8 -11 8 -17 18 -13 21 9 9 77 -43 84 -65 4 -9 10 -18 13 -21 13 -9 51
-91 46 -98 -3 -5 -1 -14 4 -22 4 -7 4 -24 -1 -37 -6 -15 -5 -22 1 -18 9 6 17
-33 18 -93 l1 -32 -1179 0 -1179 0 4 104 c4 99 25 186 46 186 5 0 9 5 9 12 0
15 74 84 111 104 16 8 29 12 29 8 0 -4 7 0 17 7 12 11 46 13 135 11 66 -1 147
2 181 9 91 16 193 74 269 154 15 16 66 110 73 138 2 4 3 8 5 10 7 8 20 83 24
142 2 28 6 66 9 85 3 19 8 76 11 125 4 50 9 113 13 140 3 28 7 75 8 105 1 30
6 98 10 150 4 52 7 106 7 120 l-1 25 206 0 c112 0 207 4 210 8 10 16 15 -2 9
-28z"/>
<path d="M4179 8115 c-3 -2 -22 -5 -44 -8 -22 -2 -47 -7 -55 -10 -8 -3 -44
-12 -80 -21 -86 -20 -207 -76 -275 -126 -30 -22 -57 -40 -59 -40 -13 0 -97
-91 -147 -160 -60 -82 -111 -187 -130 -265 -6 -27 -14 -57 -17 -65 -17 -53
-19 -271 -4 -359 9 -48 9 -68 0 -78 -6 -8 -7 -13 -2 -12 20 3 23 -2 14 -27 -6
-14 -6 -23 -1 -20 9 6 24 -30 22 -51 -1 -7 3 -13 9 -13 5 0 10 -10 10 -22 0
-11 11 -44 23 -72 13 -28 41 -89 63 -136 21 -47 44 -91 51 -98 7 -7 13 -18 13
-23 0 -5 8 -19 18 -30 11 -10 25 -31 33 -46 8 -15 29 -43 46 -62 35 -39 38
-46 23 -56 -5 -3 -10 -11 -10 -18 0 -6 6 -3 13 7 11 15 15 15 23 4 20 -25 22
-45 9 -72 -8 -14 -11 -26 -7 -26 3 0 1 -5 -6 -12 -7 -7 -12 -20 -12 -31 0 -10
-4 -16 -8 -13 -4 2 -8 -30 -7 -72 0 -70 -2 -77 -20 -77 -11 -1 -27 -5 -35 -10
-22 -15 -264 -20 -256 -6 4 6 2 11 -3 11 -6 0 -11 -4 -11 -10 0 -5 -7 -10 -16
-10 -8 0 -12 5 -9 10 3 6 2 10 -4 10 -5 0 -13 -4 -16 -10 -3 -5 -11 -10 -16
-10 -6 0 -8 4 -5 9 3 4 -8 7 -25 5 -17 -2 -49 1 -72 6 -55 14 -83 19 -137 25
-25 3 -56 8 -70 11 -14 4 -42 8 -62 9 -24 1 -44 8 -54 21 -8 10 -13 13 -9 7 4
-9 -3 -13 -22 -14 -60 -1 -174 -16 -248 -32 -23 -6 -153 -67 -174 -82 -41 -31
-103 -104 -126 -149 -15 -28 -34 -57 -43 -65 -16 -13 -16 -13 0 -8 14 5 15 2
6 -26 -13 -41 -17 -256 -6 -280 6 -12 5 -24 -4 -35 -9 -11 -10 -14 0 -8 6 4
13 2 13 -3 3 -21 4 -26 13 -39 4 -7 5 -16 2 -19 -3 -3 1 -18 9 -34 8 -15 16
-36 18 -46 3 -17 21 -58 84 -190 15 -32 29 -62 31 -67 3 -5 0 -6 -7 -2 -6 4
-11 2 -11 -4 0 -7 6 -10 14 -7 13 5 46 -25 46 -42 0 -5 5 -11 10 -13 6 -2 12
-13 12 -25 1 -12 7 -19 14 -16 15 5 47 -51 36 -62 -4 -5 -2 -5 4 -2 14 8 37
-17 26 -27 -4 -4 -2 -6 3 -4 15 5 86 -53 78 -65 -3 -6 -1 -7 6 -3 6 4 18 1 26
-6 33 -30 45 -38 55 -38 5 0 10 -4 10 -10 0 -5 6 -10 14 -10 8 0 16 -3 18 -7
2 -5 32 -21 68 -38 36 -16 68 -34 71 -38 3 -5 8 -8 10 -6 4 2 101 -23 154 -41
17 -5 61 -10 98 -11 42 -1 67 -6 67 -13 0 -6 4 -5 9 3 10 15 113 20 146 7 19
-7 19 -7 1 5 -17 10 -9 15 60 36 43 14 84 29 90 34 7 6 21 12 33 14 11 2 36
15 54 29 19 14 38 26 44 26 6 0 26 13 44 30 19 16 37 30 40 30 4 0 25 18 48
40 22 22 44 40 49 40 4 0 36 37 72 82 36 45 75 92 87 105 12 12 20 23 18 23
-2 0 23 44 56 97 32 54 59 103 59 110 0 7 5 13 12 13 6 0 9 3 5 6 -3 4 1 21
10 38 10 17 18 34 19 39 1 4 2 8 4 10 1 1 3 11 5 22 2 11 11 25 20 31 12 9 13
13 3 17 -10 4 -11 7 0 18 6 7 12 25 12 39 0 24 4 26 43 28 61 3 88 10 162 41
l66 28 45 -42 c24 -23 44 -46 44 -51 0 -4 9 -17 19 -28 23 -26 93 -156 83
-156 -4 0 -2 -4 4 -8 9 -6 72 -166 72 -182 0 -3 7 -22 15 -43 9 -21 13 -45 10
-54 -5 -12 -3 -14 8 -8 12 8 12 6 1 -8 -10 -12 -11 -20 -2 -34 9 -15 10 -14 4
7 -6 24 -6 24 10 5 8 -11 16 -23 16 -28 0 -4 11 -25 25 -47 14 -22 26 -51 27
-64 1 -14 7 -22 12 -19 5 4 7 -1 3 -10 -4 -12 -2 -14 11 -10 15 6 15 5 3 -11
-8 -9 -10 -16 -5 -15 23 4 34 -3 47 -31 10 -20 11 -30 4 -33 -6 -2 -3 -6 7
-10 10 -4 15 -3 11 3 -13 21 8 9 38 -22 18 -17 31 -36 29 -41 -1 -4 3 -5 9 -1
6 3 14 3 18 -2 3 -5 29 -21 56 -36 33 -18 50 -33 49 -46 0 -12 8 -19 23 -20
17 -1 21 2 16 16 -6 15 -5 15 11 3 9 -8 37 -15 61 -17 24 -1 52 -5 63 -8 10
-4 51 0 90 7 40 8 72 10 72 5 0 -4 5 -8 12 -8 6 0 8 3 5 7 -4 3 19 18 51 32
31 14 62 29 67 33 53 42 105 78 113 78 14 0 102 99 162 184 30 42 63 87 74 99
20 24 98 189 121 257 1 3 5 19 9 35 4 17 10 37 13 45 4 8 7 20 8 25 1 6 3 12
4 15 3 6 9 42 15 95 3 22 7 56 10 76 6 40 -10 191 -23 217 -5 9 -23 55 -41
102 -18 47 -36 87 -40 90 -14 10 -19 40 -7 41 7 0 2 4 -9 9 -12 5 -35 26 -50
47 -42 55 -81 93 -149 143 -33 25 -61 48 -63 53 -2 4 -10 7 -18 7 -8 0 -14 4
-14 8 0 5 -6 9 -13 9 -22 0 -67 35 -60 47 5 8 3 8 -8 0 -11 -9 -27 -5 -71 16
-32 16 -58 27 -58 25 0 -9 -94 25 -101 37 -7 11 -9 10 -9 -1 0 -8 -6 -11 -17
-6 -23 9 -51 13 -133 20 -36 3 -81 8 -100 11 -106 13 -141 14 -224 4 -50 -6
-125 -14 -166 -17 -41 -3 -83 -9 -92 -14 -13 -7 -24 0 -50 34 -43 55 -120 126
-136 127 -17 0 -12 57 8 78 9 10 15 23 13 29 -5 13 45 115 61 125 6 4 8 8 3 8
-10 0 44 80 54 80 5 0 9 5 9 11 0 11 78 118 113 154 27 29 151 207 171 246 9
19 20 41 25 49 20 36 54 117 58 140 2 14 8 41 13 61 14 50 15 217 2 257 -6 17
-9 32 -6 32 11 0 -61 116 -94 152 -36 40 -133 108 -152 108 -6 0 -10 5 -10 11
0 5 -4 7 -10 4 -5 -3 -10 -1 -10 6 0 7 -3 9 -6 6 -4 -3 -16 -1 -27 4 -16 9
-17 13 -6 21 10 7 9 8 -6 4 -12 -3 -45 1 -75 9 -30 9 -66 18 -80 21 -14 2 -39
9 -55 14 -29 10 -339 23 -346 15z m281 -164 c19 -5 55 -12 80 -16 47 -7 151
-38 173 -52 6 -4 18 -8 25 -9 24 -4 142 -106 142 -123 0 -5 4 -11 10 -13 5 -1
11 -12 13 -23 2 -11 9 -33 16 -50 8 -19 10 -55 7 -95 -3 -36 -5 -75 -6 -87 0
-13 -4 -23 -8 -23 -4 0 -8 -8 -9 -17 -1 -10 -7 -31 -13 -48 -6 -16 -12 -32
-12 -35 0 -3 -9 -21 -19 -40 -47 -86 -77 -133 -100 -159 -13 -15 -30 -39 -37
-53 -8 -14 -31 -43 -51 -66 -45 -49 -48 -52 -127 -168 -33 -49 -73 -112 -89
-141 -15 -29 -31 -51 -34 -48 -4 2 -7 -4 -8 -13 -1 -9 -7 -38 -13 -63 l-11
-47 -122 -1 c-67 -1 -137 -5 -154 -10 -18 -5 -33 -7 -33 -5 0 3 -6 2 -12 -3
-7 -4 -15 -8 -18 -8 -11 0 -105 -50 -108 -57 -2 -5 -8 -8 -12 -8 -5 0 -26 -16
-47 -35 -21 -19 -41 -35 -45 -35 -16 0 -158 195 -158 219 0 4 -9 18 -20 31
-11 12 -17 26 -15 30 3 4 -2 13 -10 20 -8 7 -12 16 -9 21 3 5 0 9 -7 9 -7 0
-10 3 -6 6 3 3 -5 27 -18 52 -31 61 -64 182 -72 257 -3 33 -9 70 -14 83 -11
29 -12 55 -1 48 10 -6 7 72 -3 97 -4 9 -4 30 -1 45 3 15 8 41 10 58 2 17 9 40
15 51 5 11 8 23 5 26 -9 9 95 207 132 253 92 111 250 203 399 230 17 3 56 11
89 18 64 13 251 11 306 -3z m-105 -1553 c36 -10 95 -41 95 -50 0 -5 -4 -7 -9
-4 -5 3 -11 -1 -15 -9 -5 -15 14 -17 25 -2 9 12 38 -3 44 -23 3 -11 15 -22 26
-25 10 -4 19 -11 19 -16 0 -6 -5 -7 -12 -3 -6 4 -8 3 -4 -4 3 -5 0 -13 -6 -16
-7 -4 -3 -4 9 -2 24 4 67 -34 46 -41 -7 -2 -9 -11 -6 -19 4 -11 8 -12 13 -4 9
15 36 -44 43 -95 3 -22 9 -47 12 -56 14 -38 -33 -202 -70 -246 -5 -6 -21 -26
-35 -44 -26 -34 -116 -98 -146 -104 -11 -2 -19 -4 -19 -5 0 -2 -36 -11 -57
-14 -10 -1 -21 -5 -24 -9 -11 -11 -65 -8 -109 5 -22 6 -43 13 -47 14 -5 1 -10
2 -13 3 -3 0 -7 1 -10 0 -7 -1 -98 52 -105 61 -3 3 -20 16 -37 29 -18 12 -33
28 -33 36 0 7 -4 15 -8 17 -20 8 -73 124 -80 171 -11 93 -4 176 20 219 7 13
11 26 10 31 -1 4 2 7 7 7 5 0 14 14 20 30 5 17 15 30 20 30 6 0 11 5 11 11 0
20 103 103 114 92 3 -3 6 -1 6 6 0 7 4 10 9 7 5 -4 11 -2 13 4 1 5 13 11 25
13 12 2 25 6 29 9 7 8 200 4 229 -4z m830 -213 c109 -7 146 -11 193 -21 21 -4
42 -8 47 -8 22 -3 132 -39 155 -51 14 -8 45 -23 70 -33 25 -11 54 -27 65 -36
11 -9 39 -30 63 -47 29 -20 42 -35 38 -45 -3 -9 -1 -12 4 -9 12 7 75 -55 107
-105 40 -63 64 -110 56 -110 -5 0 -2 -4 5 -9 7 -4 15 -21 17 -37 2 -16 5 -29
6 -29 3 0 8 -38 13 -109 5 -56 4 -66 -7 -57 -10 8 -14 7 -14 -4 0 -8 6 -15 12
-15 16 0 10 -91 -7 -101 -11 -7 -11 -9 0 -9 7 0 10 -5 6 -12 -4 -6 -8 -21 -10
-32 -11 -82 -57 -201 -74 -191 -6 3 -7 0 -4 -8 3 -8 -4 -30 -15 -48 -11 -19
-27 -49 -35 -66 -8 -18 -20 -33 -27 -33 -7 0 -9 -3 -6 -6 19 -19 -191 -234
-270 -277 -28 -14 -59 -28 -69 -30 -10 -2 -26 -7 -35 -11 -32 -14 -166 -10
-175 5 -3 5 -14 9 -24 9 -36 0 -105 44 -162 104 -32 32 -58 65 -58 72 0 8 -5
14 -11 14 -6 0 -9 9 -6 20 3 11 0 18 -6 17 -14 -3 -67 98 -70 133 -1 15 -5 26
-9 24 -6 -4 -22 33 -20 46 0 3 -4 11 -10 18 -6 6 -7 12 -3 12 4 0 3 6 -2 13
-6 6 -14 26 -18 42 -5 17 -9 32 -10 35 -1 3 -5 19 -10 35 -4 17 -15 41 -24 55
-9 13 -14 24 -12 25 10 1 -101 197 -126 223 -7 8 -11 18 -8 23 4 5 3 9 -2 9
-4 1 -23 14 -42 30 l-34 29 35 40 c31 36 89 137 95 166 1 5 5 21 8 35 20 77
19 203 -1 269 -6 21 -4 23 14 19 12 -3 22 -2 24 3 2 5 30 12 63 15 33 4 80 10
105 14 25 4 63 6 85 4 22 -2 81 -6 130 -9z m-2195 -299 c8 -3 28 -8 44 -10 17
-3 34 -12 38 -21 5 -8 17 -15 26 -15 13 0 14 2 3 9 -9 6 -10 11 -2 15 12 8 34
-2 27 -12 -2 -4 21 -8 52 -8 32 -1 80 -4 107 -8 28 -3 55 -7 60 -7 49 -5 304
5 317 12 14 8 18 6 18 -8 1 -17 2 -16 15 1 18 23 18 21 6 -22 -6 -20 -6 -30 0
-27 5 4 12 0 15 -9 3 -8 11 -13 17 -10 7 2 26 -21 42 -52 35 -65 90 -117 192
-180 68 -43 84 -50 123 -54 10 -1 11 -3 3 -7 -7 -2 -13 -17 -13 -33 0 -15 -7
-45 -16 -66 -9 -22 -16 -40 -15 -41 2 -5 -82 -168 -89 -173 -3 -3 -10 -12 -13
-20 -32 -69 -165 -232 -227 -279 -19 -14 -39 -32 -43 -38 -4 -7 -15 -13 -22
-13 -8 0 -15 -4 -15 -9 0 -19 -185 -111 -227 -114 -7 0 -13 -5 -13 -10 0 -5
-7 -7 -15 -4 -8 4 -17 2 -20 -2 -10 -18 -155 -28 -237 -17 -15 2 -34 9 -42 15
-10 8 -15 9 -18 1 -2 -8 -12 -8 -33 1 -17 7 -38 14 -48 16 -10 1 -29 10 -42
19 -13 8 -26 14 -28 12 -2 -2 -28 13 -57 32 -30 19 -63 40 -74 47 -45 27 -169
158 -206 218 -13 22 -28 42 -32 43 -4 2 -8 10 -8 17 0 7 -3 15 -7 17 -10 4
-83 151 -83 167 0 6 -4 19 -9 29 -10 19 -31 95 -37 132 -6 38 -4 211 2 244 6
36 35 87 45 81 4 -3 13 3 20 13 13 15 12 16 -3 3 -32 -24 -19 0 20 39 46 46
95 72 110 59 7 -5 10 -6 7 -3 -6 9 44 36 54 30 4 -3 13 0 21 5 15 9 283 5 310
-5z"/>
<path d="M8632 5826 c-114 -107 -224 -170 -322 -183 -105 -14 -297 -5 -385 20
-22 6 -43 10 -48 9 -9 -2 -96 16 -117 25 -29 12 -46 13 -175 16 -109 3 -144 0
-221 -20 -114 -28 -189 -59 -235 -95 -20 -15 -39 -28 -42 -28 -3 0 -19 -12
-34 -26 -36 -33 -38 -85 -6 -120 31 -34 58 -30 118 16 76 59 225 123 225 97 0
-8 3 -8 8 0 5 7 45 18 91 24 74 10 160 4 254 -17 4 -1 14 -2 23 -3 9 0 12 -6
8 -13 -5 -7 -3 -8 7 -3 15 10 66 8 83 -3 6 -4 47 -13 91 -20 129 -21 380 -14
460 12 30 9 53 19 76 32 14 7 29 11 33 7 3 -3 6 -2 6 4 0 6 15 17 33 24 17 7
43 23 57 34 44 36 145 130 148 138 2 4 10 13 17 20 25 26 33 70 18 107 -4 8
-7 18 -7 22 -1 3 -5 10 -10 15 -6 5 -6 2 -1 -6 6 -11 4 -13 -8 -8 -10 4 -23
10 -31 13 -9 3 -52 -31 -114 -90z"/>
<path d="M7160 5141 c-82 -21 -221 -87 -281 -133 -98 -75 -100 -80 -77 -135 6
-15 11 -35 10 -43 -1 -10 0 -11 4 -2 3 6 10 12 15 12 6 0 8 -4 5 -8 -12 -19
65 2 85 24 12 13 28 24 36 24 7 0 13 3 13 8 0 4 9 12 19 17 95 49 125 62 159
72 6 1 18 5 25 6 6 2 19 7 27 10 21 8 104 18 177 21 44 2 64 -1 67 -11 3 -7
11 -13 18 -13 9 0 9 3 -2 10 -8 5 -12 11 -10 13 7 6 153 -17 167 -26 7 -4 28
-8 48 -9 20 -1 38 -5 41 -10 3 -4 18 -8 33 -8 15 0 32 -5 39 -12 7 -7 12 -8
12 -4 0 5 7 3 15 -4 8 -7 15 -9 15 -5 0 4 7 2 15 -5 8 -7 15 -9 15 -6 0 4 8 2
18 -3 11 -6 30 -12 43 -15 13 -3 69 -17 124 -31 55 -14 110 -28 123 -30 12 -3
34 -7 50 -10 94 -19 366 -22 378 -4 2 5 11 6 19 2 9 -3 21 -1 28 4 6 6 35 16
62 23 28 8 63 22 79 31 16 10 33 16 38 13 4 -3 8 -1 8 4 0 5 14 15 31 22 17 8
40 23 50 34 11 11 19 17 19 13 0 -13 78 71 84 91 4 13 0 36 -10 57 -14 30 -21
35 -49 35 -21 0 -45 -9 -63 -25 -17 -14 -34 -25 -40 -25 -5 0 -13 -7 -16 -16
-3 -8 -10 -12 -16 -9 -5 3 -10 2 -10 -3 0 -12 -85 -57 -135 -72 -98 -28 -177
-40 -268 -40 -92 0 -98 1 -107 23 -5 12 -9 16 -9 8 -1 -10 -14 -12 -61 -8 -34
4 -64 8 -68 11 -4 2 -27 7 -52 11 -25 4 -48 9 -52 12 -5 2 -21 7 -36 9 -15 3
-40 12 -56 19 -16 8 -32 12 -37 9 -5 -3 -9 0 -9 6 0 6 -4 9 -9 6 -5 -3 -31 2
-57 11 -27 9 -56 18 -64 21 -8 3 -19 6 -25 7 -5 1 -12 3 -15 4 -3 1 -22 4 -43
6 -20 2 -43 7 -50 12 -20 12 -47 14 -237 17 -147 3 -198 0 -250 -13z"/>
<path d="M6995 4593 c-11 -3 -40 -12 -65 -20 -25 -9 -52 -17 -60 -18 -22 -3
-68 -23 -131 -55 -34 -17 -66 -27 -80 -24 -21 4 -22 3 -4 -5 19 -9 19 -9 1
-16 -10 -5 -37 -25 -59 -45 -36 -33 -39 -41 -33 -70 3 -18 16 -41 28 -51 21
-19 78 -26 78 -11 0 5 16 17 35 28 19 10 35 23 35 27 0 5 9 7 20 4 13 -3 18
-1 13 6 -4 6 0 8 10 4 11 -4 14 -2 11 7 -6 16 55 42 169 72 4 1 8 3 10 4 1 1
11 4 22 6 120 20 171 22 240 12 22 -4 48 -7 58 -7 10 -1 16 -5 12 -11 -3 -5
-13 -6 -23 -3 -9 3 -14 3 -10 -1 3 -4 21 -10 40 -12 25 -4 29 -2 18 6 -41 29
166 -22 270 -67 8 -3 20 -7 25 -8 6 -2 32 -12 57 -24 26 -11 52 -21 58 -21 5
0 18 -4 28 -9 28 -15 51 -23 100 -35 17 -4 32 -12 32 -17 0 -5 3 -8 8 -7 4 1
27 -5 52 -12 61 -18 61 -18 95 -25 17 -3 44 -10 60 -15 69 -21 238 -28 365
-14 36 4 76 7 90 8 13 1 32 9 42 19 10 9 25 17 33 17 17 0 139 61 167 83 33
26 23 117 -13 117 -10 0 -19 5 -19 10 0 15 -17 9 -96 -32 -78 -40 -178 -73
-193 -64 -5 4 -12 2 -15 -3 -15 -24 -416 7 -416 31 0 5 -4 7 -9 4 -8 -5 -142
33 -151 43 -3 4 -14 7 -24 9 -11 2 -29 10 -40 17 -12 8 -25 14 -31 15 -19 1
-80 23 -102 37 -12 8 -30 16 -40 18 -10 2 -18 4 -18 5 0 1 -10 3 -23 6 -12 2
-39 12 -60 21 -20 9 -41 17 -47 18 -5 0 -16 4 -22 8 -7 5 -13 6 -13 2 0 -3 -9
-1 -20 5 -41 22 -130 33 -285 35 -88 1 -169 0 -180 -2z"/>
</g>
</svg>
