<?xml version="1.0" standalone="no"?>
<!DOCTYPE svg PUBLIC "-//W3C//DTD SVG 20010904//EN"
 "http://www.w3.org/TR/2001/REC-SVG-20010904/DTD/svg10.dtd">
<svg version="1.0" xmlns="http://www.w3.org/2000/svg"
 width="1024.000000pt" height="1024.000000pt" viewBox="0 0 1024.000000 1024.000000"
 preserveAspectRatio="xMidYMid meet">
<metadata>
Created by potrace 1.16, written by Peter Selinger 2001-2019
</metadata>
<g transform="translate(0.000000,1024.000000) scale(0.100000,-0.100000)"
fill="#000000" stroke="none">
<path d="M6835 8406 c-13 -14 -39 -56 -56 -95 -18 -40 -36 -68 -42 -64 -5 3
-7 2 -4 -4 9 -15 -42 -115 -55 -107 -7 5 -8 2 -3 -5 9 -16 -15 -62 -28 -54 -6
3 -7 1 -3 -5 3 -5 -19 -55 -51 -109 -75 -132 -98 -164 -108 -155 -5 4 -5 2 -1
-5 17 -30 -259 -383 -287 -366 -5 3 -7 1 -4 -5 8 -12 -106 -120 -199 -190 -35
-26 -109 -76 -165 -111 -80 -50 -104 -60 -111 -50 -8 11 -9 11 -5 -1 2 -10
-31 -37 -106 -82 -60 -38 -111 -68 -114 -68 -3 0 -54 -34 -114 -75 -111 -76
-126 -84 -113 -63 4 7 3 8 -5 4 -6 -4 -9 -11 -6 -15 2 -5 -7 -19 -20 -31 -18
-17 -25 -19 -26 -9 0 8 -4 5 -9 -7 -13 -32 -82 -104 -93 -97 -6 3 -7 1 -4 -4
4 -6 -10 -30 -31 -54 -21 -24 -63 -76 -94 -116 -31 -40 -59 -69 -63 -65 -4 4
-5 2 -3 -4 2 -9 -79 -133 -102 -154 -3 -3 -36 -51 -74 -107 -38 -57 -73 -100
-79 -96 -6 3 -7 1 -3 -5 4 -6 -33 -71 -82 -144 -49 -73 -104 -159 -122 -190
-19 -31 -38 -54 -42 -52 -5 3 -7 1 -6 -4 5 -16 -65 -131 -75 -125 -6 3 -7 1
-3 -5 10 -16 -46 -102 -66 -102 -10 0 -17 3 -17 8 4 21 -3 24 -17 6 -8 -10
-13 -13 -9 -6 3 6 1 12 -4 12 -6 0 -11 -7 -11 -15 0 -11 -12 -15 -42 -16 -68
-1 -135 -8 -266 -30 -67 -11 -127 -17 -134 -13 -6 4 -8 3 -5 -3 4 -6 -18 -15
-51 -22 -31 -7 -112 -31 -180 -53 -67 -21 -127 -36 -134 -32 -6 4 -8 3 -5 -3
3 -5 -31 -24 -76 -43 -108 -43 -295 -136 -380 -189 -38 -23 -73 -38 -79 -35
-6 4 -8 3 -5 -3 6 -10 -95 -83 -113 -83 -5 0 -10 -3 -12 -7 -1 -5 -30 -28 -63
-52 -33 -25 -83 -64 -112 -89 -33 -27 -57 -41 -65 -36 -7 4 -10 3 -5 -1 10
-12 -43 -65 -65 -65 -10 0 -17 -4 -15 -8 3 -13 -141 -163 -146 -152 -3 6 -4 5
-3 -2 1 -7 -33 -57 -76 -111 -42 -53 -82 -106 -88 -118 -6 -11 -16 -16 -22
-13 -7 4 -8 2 -4 -5 4 -7 -3 -26 -17 -44 -13 -18 -32 -47 -41 -65 -10 -19 -21
-30 -28 -26 -7 4 -8 3 -4 -5 4 -6 3 -17 -2 -24 -6 -7 -30 -51 -55 -99 -24 -48
-48 -84 -52 -80 -5 4 -5 2 -1 -5 6 -11 -36 -110 -53 -123 -3 -3 -6 -9 -7 -15
-1 -22 -17 -65 -23 -65 -4 0 -8 -6 -8 -12 0 -7 -14 -57 -31 -110 -81 -251
-107 -531 -62 -662 41 -120 113 -203 238 -277 34 -20 58 -40 54 -44 -4 -5 -2
-5 5 -1 13 7 113 -33 113 -46 0 -5 4 -7 9 -4 9 6 102 -22 111 -33 3 -3 16 -7
30 -7 30 -2 67 -10 135 -28 77 -21 359 -69 475 -81 25 -3 153 -18 285 -35 132
-16 272 -32 310 -36 76 -7 88 -10 79 -25 -3 -5 -10 -6 -16 -3 -7 5 -8 2 -3 -5
5 -9 11 -9 17 -3 6 6 18 8 27 5 14 -4 14 -3 1 6 -19 14 20 11 300 -24 267 -33
247 -31 530 -60 509 -53 522 -55 791 -145 132 -44 249 -80 258 -80 30 0 94
-22 84 -28 -6 -4 15 -8 46 -9 32 -1 75 -6 97 -12 107 -27 326 -49 469 -45 181
4 312 34 432 100 49 26 711 461 758 497 5 4 170 111 365 239 195 127 398 258
450 292 52 34 137 89 189 122 52 32 108 72 124 87 27 25 29 32 24 80 -2 29
-19 88 -36 131 -17 43 -28 83 -24 89 3 7 3 9 -2 5 -10 -10 -168 310 -159 324
4 6 3 8 -4 4 -11 -6 -75 96 -75 121 0 7 -3 11 -5 8 -9 -9 -62 79 -57 93 3 7 1
11 -4 8 -4 -3 -37 36 -73 87 -36 51 -88 121 -116 156 -28 35 -49 68 -45 74 3
5 2 7 -4 4 -6 -4 -33 22 -61 56 -28 34 -75 86 -106 116 -30 30 -52 59 -49 64
3 6 1 7 -4 4 -6 -4 -35 19 -65 51 -30 31 -58 58 -62 59 -20 6 -134 117 -129
126 3 6 1 7 -6 3 -12 -8 -73 37 -65 48 2 3 1 4 -2 2 -9 -7 -149 94 -146 106 1
5 -2 7 -7 3 -6 -3 -38 12 -72 33 -34 22 -58 42 -53 44 5 3 3 3 -4 1 -19 -4
-94 36 -87 47 4 6 -1 7 -11 3 -12 -4 -15 -3 -10 5 7 12 -4 16 -38 12 -12 -1
-16 2 -11 11 5 7 4 10 -2 6 -6 -4 -24 -1 -41 6 l-30 12 106 74 c358 249 572
442 716 646 94 132 200 346 254 510 22 66 52 157 67 201 14 45 27 88 28 95 2
8 5 19 9 24 3 6 13 37 22 70 52 183 179 493 312 760 57 116 104 220 104 232 0
29 -57 76 -84 69 -12 -3 -24 -6 -28 -6 -9 0 -41 -56 -126 -220 -42 -80 -78
-147 -81 -150 -3 -3 -7 -14 -9 -24 -2 -10 -17 -47 -32 -82 -43 -93 -60 -134
-54 -134 2 0 -4 -16 -14 -35 -11 -19 -34 -79 -52 -134 -19 -57 -38 -97 -43
-94 -6 3 -7 1 -3 -6 8 -13 -14 -81 -27 -81 -4 0 -6 -4 -2 -9 3 -5 -1 -29 -9
-53 -7 -24 -24 -75 -36 -115 -13 -40 -27 -70 -31 -68 -4 3 -5 -3 -3 -12 7 -27
-91 -305 -148 -418 -85 -171 -151 -267 -177 -258 -12 4 -13 2 -3 -4 10 -7 2
-22 -30 -62 -36 -45 -44 -49 -50 -34 -7 15 -8 14 -4 -4 3 -17 -15 -41 -83
-107 -108 -106 -220 -198 -232 -190 -5 3 -8 1 -7 -4 4 -13 -60 -64 -72 -57 -6
4 -9 1 -8 -5 4 -16 -363 -271 -380 -265 -7 3 -10 1 -7 -4 3 -6 -15 -24 -40
-41 -25 -17 -45 -27 -45 -23 0 4 -5 0 -11 -10 -6 -9 -15 -14 -21 -11 -6 4 -8
3 -5 -3 4 -6 -8 -22 -26 -36 -17 -13 -63 -54 -101 -90 -39 -36 -74 -63 -79
-60 -6 3 -7 2 -4 -4 7 -11 -41 -67 -87 -100 -65 -49 -106 -13 -106 94 0 46 6
69 30 109 50 87 344 409 363 397 6 -3 7 -1 4 4 -9 15 290 306 305 297 6 -4 8
-3 5 3 -4 6 31 46 78 90 92 87 109 121 79 155 -43 47 -72 44 -149 -16 -21 -17
-40 -30 -42 -28 -2 1 -2 0 0 -2 4 -9 -66 -75 -75 -70 -4 3 -8 -1 -8 -9 0 -8
-15 -26 -32 -40 -18 -14 -87 -77 -152 -141 -66 -63 -124 -112 -129 -109 -6 3
-7 1 -3 -5 4 -7 -27 -47 -77 -99 -138 -144 -306 -335 -436 -496 -35 -44 -67
-74 -73 -71 -7 4 -8 2 -4 -4 15 -24 -329 -393 -426 -457 -63 -41 -129 -56
-151 -33 -32 31 -11 84 89 229 113 164 169 237 179 232 5 -4 7 -3 3 2 -6 6 69
125 91 145 3 3 37 46 75 97 38 51 74 89 79 86 6 -3 7 -1 3 5 -9 15 132 194
146 186 7 -4 8 -2 4 5 -7 10 54 91 164 217 19 22 73 84 119 137 46 53 88 94
93 91 5 -3 7 -2 6 3 -4 11 86 113 99 113 5 0 9 16 8 36 -1 39 -40 84 -74 84
-22 0 -69 -35 -110 -82 -18 -21 -40 -38 -49 -38 -8 0 -12 -3 -9 -6 9 -10 -53
-85 -64 -78 -5 3 -8 1 -7 -4 2 -5 -64 -88 -147 -185 -126 -149 -152 -174 -165
-164 -13 10 -13 10 -3 -3 13 -18 2 -45 -19 -45 -7 -1 -12 -7 -10 -14 4 -18
-28 -52 -41 -44 -6 3 -7 1 -3 -5 8 -14 -117 -178 -134 -174 -6 1 -9 -2 -5 -7
6 -11 -92 -151 -106 -151 -5 0 -8 -4 -6 -8 3 -10 -168 -243 -175 -237 -2 3 -5
-1 -5 -9 0 -18 -84 -137 -93 -131 -4 2 -7 -1 -7 -8 0 -23 -53 -98 -65 -91 -7
4 -8 3 -4 -4 9 -15 -23 -64 -37 -55 -6 3 -7 1 -3 -5 4 -7 2 -12 -4 -12 -6 0
-9 -4 -6 -8 8 -14 -76 -89 -124 -111 -25 -11 -56 -21 -70 -21 -62 0 -100 52
-79 108 15 39 71 122 79 117 4 -3 7 3 6 13 0 9 5 16 12 14 8 -1 11 2 7 7 -7
12 63 121 78 121 6 0 8 3 4 6 -9 9 295 458 532 786 110 152 283 372 301 383 7
4 18 21 25 38 33 78 -52 139 -116 84 -41 -34 -276 -335 -368 -470 -18 -26 -36
-45 -40 -43 -4 3 -8 -1 -8 -7 0 -22 -135 -207 -146 -200 -6 3 -7 1 -3 -5 8
-13 -71 -128 -86 -124 -5 1 -7 -2 -4 -7 6 -9 -339 -541 -380 -587 -11 -12 -20
-28 -22 -35 -12 -49 -66 -62 -120 -29 -60 37 -66 103 -17 186 23 40 29 44 43
32 15 -12 16 -11 4 4 -11 14 -3 32 64 132 55 83 80 113 86 104 6 -9 7 -6 4 7
-6 21 14 53 208 334 165 239 258 366 268 363 5 -1 7 2 4 7 -6 9 91 142 178
246 121 144 136 166 136 200 0 46 -36 75 -82 66 -26 -5 -51 -28 -113 -101 -43
-52 -83 -94 -88 -92 -5 1 -6 -1 -4 -5 7 -12 -49 -84 -57 -75 -4 4 -6 2 -4 -4
1 -7 -27 -52 -63 -100 -37 -49 -112 -154 -169 -234 -56 -80 -106 -144 -110
-143 -4 1 -7 -3 -6 -10 2 -20 -298 -467 -311 -462 -7 2 -10 -2 -7 -9 6 -17
-22 -47 -39 -40 -7 2 -23 20 -36 39 -33 48 -25 92 39 220 89 181 370 633 389
628 5 -1 8 5 7 15 0 9 5 16 12 14 8 -1 11 2 8 7 -10 15 322 471 433 596 20 22
39 39 44 37 5 -1 6 2 3 7 -8 12 83 93 95 85 5 -3 8 0 7 7 -5 21 215 165 235
152 5 -3 7 -1 4 4 -4 6 45 40 111 78 361 210 578 386 747 605 75 98 183 261
226 340 13 25 27 47 30 50 3 3 37 65 76 138 38 72 73 129 78 125 4 -5 5 -3 2
3 -4 6 14 52 38 102 25 50 45 100 45 111 0 23 -54 71 -81 71 -11 0 -31 -11
-44 -24z m-2652 -3163 c-7 -2 -13 -9 -13 -14 0 -6 5 -7 12 -3 8 5 9 2 4 -12
-29 -73 -26 -189 7 -249 17 -32 71 -90 89 -98 15 -5 14 -13 -8 -74 -57 -163
-9 -285 138 -354 24 -11 35 -17 26 -15 -10 3 -18 1 -18 -4 0 -6 7 -10 15 -10
25 0 30 2 28 8 -1 4 18 7 42 7 44 0 56 -10 59 -55 1 -8 6 -15 11 -15 6 -1 32
-15 59 -33 108 -70 259 -52 366 43 l25 23 25 -31 c14 -17 19 -28 13 -24 -8 5
-13 3 -13 -3 0 -7 7 -10 15 -6 8 3 36 -4 61 -16 55 -24 141 -20 197 8 104 53
272 209 433 401 43 52 82 90 88 86 6 -3 8 -3 4 2 -4 4 7 28 25 53 29 41 32 43
35 21 2 -13 8 -29 13 -35 5 -6 6 -19 3 -28 -4 -9 -3 -16 2 -15 5 2 30 -18 57
-44 26 -26 55 -47 64 -47 8 0 22 -8 30 -17 8 -10 12 -13 9 -7 -4 7 10 14 35
18 63 10 118 43 195 117 39 38 74 66 79 62 4 -5 5 -3 2 3 -8 14 109 127 123
119 6 -4 9 -1 8 6 -4 18 121 112 136 101 6 -5 27 -15 46 -22 91 -35 200 -92
194 -102 -4 -7 -2 -8 4 -4 14 8 74 -28 64 -39 -4 -5 -2 -5 4 -2 15 9 76 -31
68 -45 -4 -7 -3 -8 5 -4 11 7 91 -37 91 -50 0 -3 -6 -2 -12 2 -7 4 -4 -2 6
-14 11 -12 24 -22 29 -22 6 0 2 7 -9 15 -10 8 -15 15 -11 15 33 1 402 -333
390 -353 -3 -6 -2 -7 4 -4 10 7 72 -51 73 -68 0 -5 5 -10 10 -10 15 0 120
-126 114 -137 -3 -5 -1 -7 5 -6 15 4 213 -263 206 -279 -2 -8 -1 -11 5 -8 12
8 65 -85 62 -110 -2 -14 0 -16 6 -7 6 9 32 -30 85 -126 76 -138 84 -156 70
-165 -5 -2 -3 -2 4 -1 12 3 43 -57 94 -185 33 -83 33 -85 -36 -126 -48 -28
-60 -31 -49 -13 4 7 3 8 -5 4 -6 -4 -9 -11 -6 -16 7 -11 -43 -42 -57 -34 -7 5
-8 3 -3 -6 6 -10 4 -12 -8 -7 -9 3 -16 2 -14 -3 2 -9 -56 -50 -264 -185 -51
-33 -104 -68 -118 -77 -14 -10 -35 -22 -46 -28 -11 -5 -55 -35 -99 -66 -43
-30 -85 -53 -93 -50 -8 3 -12 2 -9 -3 3 -5 -31 -33 -77 -64 -309 -206 -500
-327 -508 -321 -5 3 -8 1 -7 -4 4 -15 -221 -164 -234 -156 -7 4 -8 3 -4 -4 11
-19 -208 -151 -264 -159 -8 -1 -46 -9 -85 -18 -73 -17 -289 -22 -395 -10 -30
4 -68 8 -85 10 -54 6 -120 16 -133 21 -8 2 -64 16 -125 30 -62 14 -116 27
-122 28 -54 13 -95 27 -260 83 -192 66 -420 163 -730 313 -248 120 -431 207
-497 237 -32 14 -55 30 -51 36 3 6 1 7 -5 3 -15 -9 -344 128 -334 139 4 5 1 5
-6 1 -7 -4 -55 8 -108 29 -52 20 -100 38 -107 39 -45 10 -66 20 -60 29 3 6 1
7 -5 3 -7 -4 -45 2 -84 13 -130 36 -257 61 -328 63 -19 0 -43 5 -52 9 -20 11
-335 14 -361 4 -25 -10 -49 -60 -41 -89 12 -49 27 -53 219 -59 99 -4 223 -13
275 -21 137 -21 404 -91 396 -104 -2 -4 10 -8 28 -9 54 -3 590 -228 580 -244
-3 -5 3 -6 12 -2 13 5 15 3 9 -7 -6 -9 -4 -11 4 -5 16 9 92 -25 84 -38 -3 -6
-1 -7 5 -3 10 6 213 -83 441 -192 l35 -17 -30 -3 c-17 -2 -43 2 -60 8 -16 6
-63 13 -104 15 -41 2 -93 6 -115 9 -86 12 -125 16 -185 21 -34 3 -65 7 -69 9
-4 3 -27 6 -52 6 -65 2 -120 11 -115 18 2 4 -15 7 -37 7 -49 1 -124 8 -297 30
-69 9 -144 18 -167 20 -72 8 -127 15 -153 20 -14 3 -110 16 -215 30 -104 13
-215 29 -245 35 -30 5 -106 19 -168 31 -176 32 -402 101 -402 122 0 6 -3 8 -6
4 -14 -14 -156 73 -149 90 2 7 -1 12 -7 10 -7 -1 -12 5 -13 13 0 8 -7 15 -15
15 -8 0 -28 25 -45 55 -29 54 -30 58 -30 195 1 119 5 157 29 255 47 188 138
436 157 424 5 -3 6 2 3 10 -12 32 163 324 292 486 139 175 504 503 538 483 6
-3 8 -2 3 2 -12 14 177 132 358 223 269 136 621 241 890 265 63 6 121 6 108 0z"/>
<path d="M2725 3910 c6 -9 -31 -15 -80 -13 -87 5 -295 -51 -407 -108 -67 -34
-153 -108 -174 -149 -15 -30 -28 -117 -15 -105 2 2 13 -2 25 -10 39 -28 65
-18 129 48 83 84 174 127 337 158 80 16 385 16 472 0 35 -6 77 -13 93 -15 48
-6 83 -15 243 -62 7 -2 14 -4 17 -4 5 -1 221 -75 247 -85 11 -4 14 -13 10 -23
-5 -14 -3 -15 10 -5 12 11 26 8 76 -14 34 -14 59 -31 55 -36 -4 -6 -1 -7 6 -2
14 8 38 -2 233 -94 64 -30 114 -59 111 -64 -3 -6 -1 -7 5 -4 15 10 43 -3 35
-16 -4 -6 -1 -7 7 -2 16 10 171 -65 163 -78 -3 -6 -1 -7 6 -3 15 10 168 -62
176 -81 3 -9 12 -13 21 -9 18 7 146 -53 138 -65 -2 -4 4 -7 13 -7 10 1 54 -15
98 -36 249 -119 450 -212 525 -243 47 -19 87 -38 90 -41 3 -4 10 -7 15 -7 6 0
69 -19 140 -42 225 -73 438 -113 606 -113 68 0 81 3 99 22 27 30 26 79 -3 106
-19 18 -40 23 -103 27 -69 5 -209 17 -239 20 -51 7 -85 19 -85 31 0 8 -5 14
-11 14 -5 0 -7 -4 -4 -10 3 -6 -4 -10 -17 -10 -19 0 -20 2 -8 10 11 8 9 9 -10
5 -38 -9 -349 95 -530 177 -25 11 -58 26 -75 33 -153 69 -311 149 -322 163 -8
9 -12 11 -8 5 4 -9 1 -11 -9 -7 -9 3 -13 11 -9 17 3 5 1 7 -4 4 -15 -10 -154
54 -146 66 3 6 1 7 -6 3 -13 -9 -142 54 -135 66 3 4 -1 5 -9 2 -18 -6 -343
154 -339 168 1 5 -3 6 -9 2 -15 -9 -130 46 -122 59 3 6 1 7 -5 3 -7 -4 -49 9
-94 30 -46 20 -103 46 -127 56 -97 43 -387 152 -416 157 -5 0 -10 5 -10 10 0
5 -4 13 -9 18 -5 5 -6 3 -2 -4 10 -18 -1 -17 -116 13 -125 31 -174 41 -263 49
-38 4 -73 9 -76 11 -3 2 -38 4 -77 5 -49 1 -70 5 -65 13 3 6 0 5 -8 -1 -7 -7
-18 -13 -23 -13 -6 0 -4 5 4 10 12 8 9 10 -13 10 -16 0 -26 -4 -22 -10z"/>
</g>
</svg>
