<?xml version="1.0" standalone="no"?>
<!DOCTYPE svg PUBLIC "-//W3C//DTD SVG 20010904//EN" "http://www.w3.org/TR/2001/REC-SVG-20010904/DTD/svg10.dtd">
<svg xmlns="http://www.w3.org/2000/svg" version="1.0" width="1024.000000pt" height="1024.000000pt" viewBox="0 0 1024.000000 1024.000000" preserveAspectRatio="xMidYMid meet">
<metadata>
Created by potrace 1.16, written by Peter Selinger 2001-2019
<meta name="Producer" content="Online-Convert"/></metadata>
<g transform="translate(0.000000,1024.000000) scale(0.100000,-0.100000)" fill="#000000" stroke="none">
<path d="M2923 8389 c24 -14 21 -22 -14 -38 -17 -7 -61 -44 -97 -82 -47 -48 -69 -65 -74 -56 -6 9 -8 8 -6 -3 4 -20 -101 -142 -115 -133 -6 3 -7 1 -3 -5 12 -19 -54 -92 -82 -92 -22 0 -24 3 -17 33 28 130 18 228 -28 275 -21 21 -35 26 -74 25 -27 -1 -53 -2 -58 -3 -6 -1 -12 -1 -15 0 -3 1 -14 3 -25 5 -18 3 -19 3 -3 -9 16 -12 16 -14 -6 -34 -40 -34 -74 -54 -78 -45 -3 4 -3 2 -1 -5 1 -7 -28 -45 -66 -85 -38 -40 -88 -93 -111 -119 -23 -26 -46 -45 -51 -42 -5 3 -6 -1 -4 -9 3 -7 -7 -25 -22 -39 -15 -15 -44 -48 -63 -74 -19 -26 -49 -63 -65 -83 -17 -20 -39 -49 -50 -66 -10 -16 -24 -34 -32 -38 -7 -4 -13 -13 -13 -18 0 -15 -40 -69 -51 -69 -5 0 -9 8 -10 18 0 11 -2 12 -6 4 -3 -7 0 -18 6 -25 7 -9 1 -25 -25 -56 -18 -24 -34 -47 -34 -51 0 -3 -9 -16 -20 -28 -12 -12 -18 -22 -15 -22 7 0 -45 -83 -57 -91 -5 -3 -9 -9 -8 -13 1 -4 -13 -38 -32 -76 -23 -49 -37 -68 -48 -64 -12 4 -12 3 -3 -7 10 -10 9 -18 -1 -38 -29 -54 -66 -150 -101 -261 -20 -63 -40 -125 -46 -138 -5 -13 -9 -33 -9 -46 0 -12 -3 -26 -7 -30 -4 -4 -9 -26 -10 -48 -2 -23 -7 -44 -11 -47 -5 -3 -8 -15 -9 -26 0 -29 -9 -91 -28 -192 -31 -174 -35 -210 -45 -368 -10 -176 -14 -471 -7 -495 3 -8 8 -43 12 -78 10 -99 42 -232 81 -339 20 -54 37 -106 37 -115 1 -9 3 -15 5 -13 3 2 20 -26 39 -63 20 -36 87 -144 150 -239 64 -98 111 -178 107 -185 -4 -6 -3 -8 3 -5 6 4 14 0 17 -9 9 -22 8 -24 -9 -18 -8 4 -15 1 -15 -4 0 -6 9 -9 20 -7 16 3 26 -7 44 -43 43 -85 94 -215 127 -320 27 -87 30 -105 18 -113 -13 -8 -6 -13 14 -10 4 0 7 -7 8 -17 0 -9 2 -26 4 -37 52 -268 11 -581 -113 -870 -47 -111 -48 -115 -17 -115 16 0 28 7 31 18 3 9 10 26 15 37 28 64 69 180 87 245 47 171 53 201 64 324 24 262 -33 531 -173 825 -32 68 -56 128 -52 134 3 5 2 7 -3 4 -6 -3 -23 15 -39 41 -16 26 -59 93 -97 150 -37 57 -68 105 -68 108 0 2 -17 30 -39 62 -117 173 -183 392 -211 697 -11 123 -3 361 21 580 13 121 16 135 29 115 6 -9 10 -10 10 -3 0 6 -5 15 -10 18 -6 3 -10 17 -10 31 0 14 4 23 8 20 5 -3 8 9 8 27 -1 44 36 261 52 307 3 8 4 19 3 24 -1 4 4 25 11 45 6 20 13 41 14 46 22 84 70 231 89 270 23 47 47 104 49 115 4 20 59 120 67 120 5 0 8 3 7 8 -6 28 158 286 176 275 6 -3 8 -3 4 2 -4 4 2 24 14 44 26 44 155 212 174 227 8 6 14 15 14 20 0 5 21 32 46 59 25 28 62 69 81 92 19 24 39 40 44 37 5 -3 9 2 9 10 0 23 52 77 76 78 11 1 21 8 21 15 0 6 -5 9 -11 6 -6 -3 2 8 18 25 16 18 32 30 34 27 3 -3 16 10 29 27 12 18 23 28 23 23 0 -5 10 1 23 13 12 12 39 24 59 27 29 5 40 2 57 -16 23 -25 24 -31 21 -104 -2 -56 -3 -65 -14 -118 -6 -25 -13 -37 -21 -33 -8 3 -19 -3 -27 -12 -12 -15 -11 -16 4 -4 26 21 31 -3 10 -50 -11 -24 -23 -54 -27 -68 -15 -50 -87 -194 -144 -288 -32 -53 -82 -141 -110 -195 -31 -57 -57 -94 -63 -90 -7 3 -8 1 -4 -6 4 -6 -11 -53 -34 -104 -23 -50 -45 -101 -50 -112 -16 -39 -72 -200 -76 -220 -2 -11 -6 -31 -9 -45 -3 -14 -15 -83 -27 -155 -14 -82 -28 -135 -38 -143 -8 -8 -9 -11 -2 -7 9 5 12 -10 12 -59 0 -46 -4 -66 -12 -66 -10 0 -10 -2 -1 -8 8 -5 13 -39 14 -92 2 -163 67 -419 144 -571 14 -27 23 -55 19 -61 -4 -6 -3 -8 3 -5 6 4 25 -17 43 -46 19 -29 58 -85 87 -125 30 -40 51 -77 48 -83 -4 -5 -2 -8 3 -7 13 4 68 -55 107 -114 17 -23 35 -47 41 -53 17 -15 89 -124 113 -173 12 -23 19 -48 15 -54 -4 -6 -3 -8 4 -5 12 8 74 -135 76 -175 1 -14 3 -24 5 -22 7 7 40 -103 62 -206 12 -59 22 -155 26 -252 6 -158 6 -158 29 -158 24 0 24 2 24 98 -1 197 -53 464 -125 637 -6 17 -18 46 -26 65 -20 53 -114 216 -150 261 -26 33 -29 43 -18 50 11 7 10 9 -6 9 -20 0 -82 74 -77 92 1 5 -2 7 -7 3 -14 -8 -154 182 -145 197 4 6 3 8 -4 4 -19 -11 -102 127 -153 255 -30 79 -70 237 -76 309 -9 99 -9 336 0 415 15 135 52 309 76 355 5 9 12 30 16 48 3 18 11 32 16 32 6 0 8 4 5 9 -3 5 3 31 15 57 11 27 27 65 35 84 16 38 18 42 100 198 31 58 60 110 65 116 22 27 58 87 49 81 -22 -14 129 198 159 223 8 6 11 12 7 12 -4 0 7 20 24 45 17 25 36 43 41 39 5 -3 9 -2 8 3 -3 20 2 27 12 13 8 -12 9 -11 5 6 -4 12 1 28 11 40 10 10 38 45 62 77 24 31 48 57 54 57 6 0 8 3 4 6 -3 4 15 29 41 57 26 28 72 78 102 111 62 67 133 116 167 116 30 0 68 -57 51 -77 -6 -8 -8 -16 -4 -20 3 -3 6 0 7 8 0 8 4 6 9 -6 20 -46 -22 -217 -94 -385 -57 -129 -138 -280 -149 -273 -6 3 -7 1 -3 -5 7 -12 -72 -152 -87 -152 -4 0 -6 -4 -2 -9 3 -6 -4 -27 -16 -48 -51 -90 -131 -259 -169 -355 -22 -56 -44 -110 -49 -119 -18 -31 -76 -276 -85 -354 -2 -16 -8 -61 -14 -100 -6 -38 -14 -114 -17 -167 -5 -68 -11 -96 -19 -91 -6 3 -6 0 2 -8 6 -7 12 -26 12 -42 0 -23 -3 -28 -17 -23 -11 4 -8 -2 7 -14 49 -39 57 -24 64 122 10 219 17 270 34 263 11 -4 12 -2 4 8 -12 14 -7 83 9 135 6 18 12 39 13 45 2 7 6 30 11 52 4 22 10 45 14 50 3 6 7 21 9 35 7 57 101 292 113 284 5 -3 6 1 3 9 -3 8 0 18 5 22 6 3 9 9 7 13 -2 4 13 39 34 77 21 39 53 98 71 132 18 35 37 59 43 56 6 -3 8 -3 4 2 -22 24 185 307 319 436 64 63 158 119 197 119 35 0 59 -39 54 -89 -2 -22 0 -37 5 -34 7 4 3 -27 -11 -72 -3 -11 -6 -22 -7 -25 -19 -92 -59 -187 -160 -390 -104 -208 -134 -272 -183 -396 -37 -91 -99 -269 -107 -304 -2 -8 -13 -51 -24 -95 -11 -44 -21 -89 -21 -100 0 -11 -7 -30 -15 -42 -11 -15 -12 -22 -3 -25 7 -3 8 -9 3 -18 -4 -7 -9 -25 -10 -39 -2 -14 -5 -51 -8 -81 -16 -156 -19 -193 -21 -288 -2 -78 0 -105 10 -109 24 -9 43 23 49 83 4 33 11 79 17 104 5 25 12 56 14 69 7 36 82 256 111 326 48 116 136 285 149 285 7 0 16 4 19 10 4 6 -1 7 -12 3 -15 -6 -14 -2 5 28 13 19 30 49 38 67 36 81 202 315 216 305 7 -4 8 -1 3 7 -10 16 105 126 140 132 29 6 39 -14 40 -77 0 -22 4 -51 9 -64 6 -16 5 -21 -3 -17 -7 5 -9 1 -5 -9 9 -23 -4 -67 -18 -59 -7 4 -8 3 -4 -4 8 -14 -10 -86 -27 -104 -6 -8 -14 -20 -16 -28 -7 -30 -8 -35 -21 -67 -6 -18 -16 -33 -21 -33 -5 0 -9 -11 -9 -25 0 -14 -5 -25 -10 -25 -6 0 -9 -3 -8 -7 1 -9 -11 -39 -48 -121 -14 -31 -30 -67 -35 -79 -5 -13 -13 -23 -19 -23 -6 0 -8 -4 -5 -10 7 -12 -13 -90 -28 -109 -6 -7 -12 -21 -12 -30 0 -9 -4 -33 -9 -54 -6 -28 -12 -37 -24 -32 -12 4 -12 3 -3 -8 8 -11 7 -25 -4 -58 -9 -24 -18 -66 -21 -93 -2 -27 -7 -53 -11 -59 -24 -39 -25 -577 0 -577 4 0 7 -9 7 -20 0 -28 27 -90 39 -90 19 0 21 38 5 106 -31 132 -19 615 17 660 5 6 7 13 4 15 -6 6 46 193 78 284 31 84 50 129 112 260 26 55 65 145 86 200 22 55 44 111 50 123 5 13 12 56 16 96 6 79 -6 137 -39 172 -16 18 -25 20 -70 13 -29 -5 -61 -17 -74 -30 -13 -12 -28 -18 -35 -14 -7 5 -10 4 -5 -3 3 -6 -8 -27 -25 -47 -21 -23 -35 -32 -39 -25 -5 8 -9 6 -13 -5 -4 -9 -3 -13 3 -10 19 12 10 -7 -23 -48 -18 -23 -41 -53 -50 -67 -58 -84 -74 -109 -94 -145 -12 -22 -27 -39 -33 -37 -6 1 -9 -2 -5 -8 4 -6 -3 -25 -14 -43 -38 -62 -178 -352 -196 -406 -12 -37 -20 -49 -26 -40 -7 12 -10 12 -21 0 -7 -8 -8 -11 -2 -8 7 4 14 0 18 -8 6 -18 -2 -45 -15 -45 -5 0 -8 -3 -8 -7 3 -18 -2 -33 -10 -33 -20 0 45 329 70 354 5 6 9 21 9 35 1 39 38 136 50 133 7 -1 9 5 5 17 -3 11 0 31 7 43 7 13 11 26 10 30 -2 8 35 93 94 215 24 50 44 96 44 102 0 6 4 11 8 11 5 0 9 6 9 13 1 16 68 138 74 133 2 -2 5 7 6 21 0 14 10 37 20 52 11 14 23 39 27 54 3 15 10 26 14 23 4 -2 8 6 8 19 1 12 8 37 17 56 21 49 34 87 48 147 10 40 15 49 20 35 7 -16 8 -15 8 5 1 12 -4 22 -10 22 -5 0 -7 5 -3 12 12 18 5 98 -11 128 -8 15 -11 31 -7 35 4 5 1 5 -5 1 -7 -4 -13 -2 -13 4 0 19 -61 39 -87 29 -13 -5 -37 -10 -53 -11 -16 -1 -27 -4 -25 -6 2 -3 -21 -23 -52 -45 -31 -22 -71 -56 -89 -75 -18 -19 -37 -31 -43 -28 -7 4 -9 1 -5 -8 3 -8 -3 -19 -14 -25 -20 -11 -20 -10 -5 29 9 23 23 40 32 40 12 0 13 2 4 8 -10 6 -5 32 20 107 17 55 34 101 37 102 4 3 4 70 -2 189 -2 27 -7 40 -14 37 -7 -2 -15 5 -19 16 -8 28 -67 55 -97 45 -23 -7 -35 -4 -31 6 1 3 -8 7 -20 7 -20 2 -20 1 -4 -8z"/>
<path d="M7634 7370 c-38 -18 -53 -37 -69 -92 -1 -5 -3 -9 -5 -10 -2 -4 -10 -38 -14 -63 -2 -11 -4 -20 -5 -20 -2 0 -4 -8 -6 -18 -2 -10 1 -14 7 -11 7 4 9 -6 6 -30 -2 -20 -1 -36 3 -36 4 0 12 -33 19 -72 10 -62 47 -223 79 -345 6 -20 5 -36 -3 -44 -7 -8 -7 -10 0 -6 11 6 23 -26 43 -115 11 -47 14 -107 4 -78 -2 8 -12 30 -20 49 -8 19 -16 44 -17 56 0 13 -4 21 -7 19 -7 -4 -24 45 -20 60 1 5 -2 12 -6 15 -4 3 -24 37 -43 76 -19 38 -45 85 -59 104 -13 20 -24 40 -25 46 -1 5 -21 28 -44 51 -23 22 -39 44 -34 48 4 4 3 6 -3 5 -5 -2 -27 3 -48 10 -48 16 -97 8 -122 -22 -44 -51 -60 -181 -35 -285 8 -34 8 -48 -2 -60 -10 -12 -10 -14 0 -8 6 4 12 4 13 -1 0 -4 2 -16 4 -25 2 -10 -1 -20 -6 -24 -14 -8 -11 -24 5 -24 12 0 27 -35 32 -75 0 -5 4 -17 7 -25 8 -21 27 -96 32 -128 3 -15 13 -58 24 -97 11 -38 25 -95 31 -125 5 -30 12 -66 15 -80 13 -62 24 -163 28 -250 l5 -95 -13 68 c-8 38 -19 75 -26 83 -6 7 -9 21 -5 29 3 9 2 14 -2 11 -5 -3 -17 18 -27 47 -32 92 -136 296 -181 358 -25 33 -42 65 -38 71 4 7 3 8 -5 4 -6 -4 -25 4 -42 18 -45 38 -108 36 -142 -3 -14 -17 -28 -28 -31 -26 -3 3 -2 0 2 -6 9 -10 -8 -105 -23 -128 -3 -6 -2 -11 4 -11 5 0 9 -31 10 -68 0 -37 12 -126 27 -198 14 -71 27 -140 28 -154 1 -14 4 -29 8 -35 9 -16 31 -224 24 -241 -3 -8 -2 -12 4 -9 6 4 10 -22 10 -70 0 -42 -4 -74 -8 -71 -5 3 -9 -1 -9 -9 0 -8 4 -15 9 -15 25 0 -18 -288 -63 -424 -33 -96 -94 -221 -147 -300 -60 -88 -176 -228 -180 -216 -3 7 2 16 9 21 11 7 10 9 -5 9 -14 0 -17 -5 -13 -26 4 -21 -6 -38 -56 -93 -33 -36 -64 -65 -69 -63 -5 1 -7 -2 -3 -7 3 -6 -25 -52 -63 -103 -148 -199 -228 -364 -278 -568 -26 -106 -27 -399 -1 -520 24 -111 81 -285 123 -377 25 -56 38 -73 53 -73 12 0 21 4 21 8 0 4 -25 68 -55 141 -152 367 -162 685 -33 1011 40 101 87 182 100 174 7 -5 8 -2 4 5 -14 21 105 187 284 396 56 66 106 119 112 117 5 -1 7 1 4 6 -2 4 20 40 50 80 30 40 54 77 54 82 0 5 5 12 12 16 7 5 8 3 3 -6 -5 -9 -4 -11 4 -6 6 4 9 12 5 17 -3 5 1 21 10 34 63 97 134 315 160 495 16 108 26 311 15 304 -3 -2 -9 38 -13 89 -4 51 -13 124 -20 162 -69 357 -88 542 -58 552 6 3 10 9 6 14 -9 15 6 48 28 60 15 8 27 8 47 -2 36 -19 53 -42 38 -51 -8 -5 -7 -8 3 -8 25 0 69 -58 115 -150 32 -63 41 -88 33 -98 -8 -9 -7 -11 4 -7 15 6 56 -77 77 -160 13 -50 14 -58 1 -50 -5 3 -10 1 -10 -5 0 -7 7 -9 15 -6 11 4 19 -3 26 -21 17 -47 50 -206 45 -220 -3 -8 -2 -11 3 -8 18 10 24 -108 12 -224 -11 -106 -25 -182 -64 -348 -15 -61 -15 -62 7 -65 18 -3 23 5 38 62 50 183 69 315 77 525 5 116 6 246 3 290 -3 44 -6 101 -6 127 -1 25 -5 44 -10 41 -4 -3 -7 15 -5 40 2 25 1 43 -2 41 -6 -3 -16 39 -34 136 -1 8 -5 22 -8 30 -14 33 -27 112 -21 122 4 7 2 8 -4 4 -8 -5 -12 4 -12 26 0 19 -4 38 -8 43 -8 9 -21 61 -36 141 -2 11 -11 45 -20 74 -20 66 -21 124 -3 114 6 -4 4 1 -5 12 -13 15 -16 35 -14 87 1 38 6 71 12 75 5 4 9 13 10 20 2 27 5 31 33 37 32 7 86 -19 75 -36 -3 -5 2 -9 10 -9 20 0 70 -66 60 -81 -4 -7 -3 -9 3 -6 10 7 43 -33 47 -57 4 -20 41 -91 51 -98 6 -4 6 -8 1 -8 -5 0 -2 -8 5 -17 12 -15 12 -16 -1 -8 -12 6 -11 4 2 -11 9 -10 28 -48 41 -84 14 -36 37 -94 50 -130 26 -67 59 -174 62 -200 1 -8 12 -46 24 -84 11 -38 19 -71 16 -74 -3 -3 0 -11 5 -17 19 -23 40 -210 39 -345 -2 -195 -29 -344 -97 -527 -25 -69 -28 -83 -15 -83 13 0 13 -3 3 -15 -11 -13 -10 -14 10 -7 17 6 29 29 51 98 42 126 77 269 86 350 13 117 5 576 -9 567 -5 -2 -8 13 -8 34 0 21 -4 53 -10 72 -5 19 -12 57 -15 85 -3 28 -13 83 -21 121 -35 156 -36 167 -22 177 10 8 10 9 -2 5 -20 -5 -42 81 -26 102 8 11 8 13 0 8 -10 -6 -29 42 -40 98 -1 6 -3 12 -4 15 -1 3 -4 14 -5 25 -2 11 -10 45 -18 75 -51 193 -65 354 -34 423 14 33 20 37 52 37 30 0 44 -8 80 -45 44 -44 97 -125 94 -141 -3 -20 2 -34 12 -34 8 0 7 6 -2 17 -11 13 -11 15 -1 9 20 -12 84 -154 76 -167 -4 -7 -3 -9 3 -6 6 4 17 -10 26 -31 100 -239 139 -342 131 -342 -4 0 -2 -6 4 -12 19 -24 106 -317 134 -456 31 -150 31 -388 0 -552 -36 -192 -123 -467 -143 -455 -5 4 -6 0 -3 -8 6 -17 -82 -197 -136 -277 -78 -115 -196 -222 -347 -314 -27 -16 -78 -49 -115 -72 -43 -28 -74 -42 -85 -38 -12 4 -14 3 -6 -3 8 -6 -16 -30 -78 -77 -50 -38 -139 -116 -198 -172 -60 -57 -111 -100 -115 -96 -4 4 -6 2 -4 -5 2 -6 -24 -46 -57 -88 -130 -166 -244 -358 -232 -390 12 -29 32 -14 60 43 32 68 145 242 155 241 19 -3 32 2 32 12 0 8 -5 8 -15 -1 -29 -24 -14 4 31 59 26 31 51 55 56 53 5 -1 7 1 4 6 -7 12 131 153 218 224 42 36 74 55 85 51 11 -3 12 -2 3 4 -9 7 6 22 53 56 67 48 82 56 69 35 -4 -7 -3 -8 5 -4 6 4 9 11 6 16 -8 12 60 51 78 44 8 -3 18 -1 22 5 4 7 -1 8 -12 4 -29 -10 -14 1 85 66 51 34 98 58 104 55 6 -4 8 -3 5 3 -4 6 17 29 46 51 65 51 115 109 194 223 34 50 65 90 70 90 4 1 10 3 13 6 3 4 -1 3 -7 -1 -18 -10 -18 -9 26 85 118 254 190 528 214 814 7 94 -37 356 -92 550 -17 58 -28 111 -25 117 4 6 2 8 -3 5 -6 -4 -13 7 -17 24 -9 44 -8 51 7 44 6 -4 4 0 -5 8 -10 8 -18 22 -18 31 0 9 -4 16 -10 16 -5 0 -10 8 -10 18 0 10 -4 22 -9 28 -5 5 -23 52 -41 104 -48 138 -47 269 1 298 17 11 20 11 13 0 -6 -11 -5 -11 8 0 14 11 23 7 62 -33 26 -25 44 -50 41 -56 -4 -5 -2 -9 4 -9 12 0 54 -68 54 -86 0 -8 4 -14 8 -14 14 0 19 -34 7 -43 -9 -6 -8 -7 4 -3 14 4 25 -11 53 -72 20 -42 40 -84 45 -92 14 -23 118 -234 162 -329 21 -47 36 -91 33 -98 -2 -8 -1 -12 4 -8 10 6 50 -92 53 -130 1 -13 4 -22 7 -19 3 2 15 -24 28 -58 55 -149 93 -345 93 -483 0 -93 -19 -245 -31 -245 -5 0 -6 -6 -3 -14 6 -14 -22 -154 -51 -256 -8 -30 -18 -70 -21 -87 -4 -18 -9 -31 -13 -29 -3 2 -7 -10 -8 -28 -1 -34 -136 -445 -203 -621 -92 -243 -225 -489 -258 -478 -14 4 -14 3 -3 -5 12 -8 9 -17 -17 -50 -49 -61 -212 -213 -223 -207 -5 4 -9 2 -9 -3 0 -5 -35 -38 -77 -72 -159 -129 -219 -200 -267 -318 -36 -91 -49 -163 -49 -292 0 -111 10 -186 37 -280 36 -123 39 -130 57 -130 27 0 29 12 13 66 -56 184 -79 357 -54 404 8 14 8 20 1 16 -6 -4 -11 0 -11 9 0 9 4 14 9 11 5 -4 7 2 4 13 -7 28 23 138 59 211 37 76 198 247 220 234 7 -4 10 -4 6 0 -3 4 30 38 75 74 45 36 88 72 95 79 7 7 18 11 25 9 7 -1 8 -1 4 2 -5 2 20 34 55 71 151 157 277 401 428 831 142 402 235 772 256 1020 12 144 -23 364 -85 544 -11 32 -18 62 -15 67 3 5 1 9 -4 9 -14 0 -83 185 -76 206 4 13 3 15 -3 6 -13 -18 -74 115 -78 171 -1 15 -7 33 -14 40 -11 10 -11 8 -2 -10 6 -13 8 -23 3 -23 -13 0 -73 140 -66 152 5 7 2 8 -6 3 -10 -6 -12 -4 -7 9 4 9 3 15 -2 12 -9 -6 -107 182 -105 201 1 7 -1 11 -5 9 -4 -3 -18 16 -32 42 -14 26 -40 70 -57 99 -17 28 -27 55 -24 59 4 4 2 4 -5 1 -6 -4 -22 6 -36 22 -14 17 -28 27 -32 23 -5 -4 -6 0 -3 8 4 12 -4 15 -41 15 -38 0 -50 -5 -76 -32 -19 -20 -32 -45 -33 -65 -3 -39 -10 -47 -22 -28 -13 20 -13 33 0 25 6 -3 7 1 4 10 -4 9 -9 13 -12 10 -7 -7 -72 108 -66 117 3 5 1 8 -3 8 -5 0 -22 22 -38 50 -17 27 -34 50 -39 50 -4 0 -5 8 -2 17 4 10 4 14 0 11 -3 -4 -26 11 -50 34 -40 37 -87 69 -103 68 -3 -1 -25 -9 -47 -20z"/>
<path d="M4972 6065 c-127 -28 -256 -105 -397 -235 -49 -46 -96 -92 -103 -102 -7 -10 -18 -15 -24 -12 -6 4 -8 3 -5 -3 5 -7 -74 -93 -86 -93 -1 0 -31 -27 -67 -61 -126 -118 -310 -218 -486 -265 -133 -35 -419 -45 -590 -20 -150 22 -395 94 -453 133 -15 10 -28 17 -31 16 -3 -1 -37 20 -75 46 -69 46 -199 187 -189 203 3 4 -2 8 -10 8 -9 0 -16 -1 -16 -3 0 -1 -4 -17 -9 -34 -5 -18 -6 -31 -2 -30 4 1 30 -25 58 -58 27 -33 60 -68 71 -79 12 -10 19 -23 15 -29 -3 -5 -1 -7 5 -3 13 8 88 -42 84 -56 -1 -5 2 -7 7 -4 5 3 37 -8 70 -24 63 -31 231 -90 257 -90 9 0 13 -4 9 -9 -3 -5 0 -13 6 -17 8 -4 9 -3 5 4 -4 7 -1 12 8 12 9 0 16 -3 16 -7 0 -5 12 -8 28 -9 15 0 75 -9 133 -19 l106 -19 12 -47 c7 -27 9 -54 5 -60 -4 -7 -3 -9 4 -5 7 4 15 -15 22 -51 7 -32 16 -68 21 -81 12 -32 11 -45 -3 -36 -10 6 -10 5 -1 -7 44 -55 77 -426 53 -604 -5 -38 -12 -90 -15 -115 -22 -157 -122 -500 -213 -725 -25 -62 -158 -376 -182 -430 -60 -132 -122 -280 -125 -296 -2 -10 1 -22 7 -25 6 -4 8 -2 4 4 -3 6 3 12 14 14 17 2 43 53 131 258 250 578 352 868 400 1143 19 107 43 373 34 386 -2 4 -5 52 -6 106 -1 55 -11 140 -21 189 -10 48 -16 92 -13 96 3 5 2 10 -3 12 -7 2 -47 161 -57 223 -1 11 -6 28 -10 37 -6 15 5 17 117 17 154 1 248 13 363 46 198 57 388 176 581 365 57 56 108 99 114 95 5 -3 7 0 4 8 -3 9 16 33 53 63 32 27 63 54 68 60 17 19 118 91 153 108 18 9 38 14 44 10 7 -4 8 -3 4 4 -4 7 18 19 64 33 58 17 73 19 86 8 12 -10 15 -10 12 2 -4 20 89 22 178 3 78 -16 241 -95 236 -114 -1 -6 2 -9 8 -5 9 6 114 -67 179 -124 41 -36 91 -20 57 18 -9 10 -14 20 -11 23 3 3 -3 11 -12 19 -16 13 -17 12 -4 -3 23 -30 -2 -19 -43 18 -22 20 -75 59 -118 87 -53 35 -74 54 -65 60 8 6 6 7 -6 3 -11 -3 -49 7 -87 24 -38 17 -83 33 -99 36 -17 4 -29 9 -27 13 8 12 -181 10 -242 -4z"/>
<path d="M5525 5589 c-17 -4 -58 -12 -92 -18 -72 -11 -203 -70 -293 -131 -65 -44 -151 -116 -260 -217 -44 -41 -68 -57 -73 -49 -5 7 -7 5 -5 -6 2 -11 -28 -42 -89 -90 -157 -125 -253 -167 -408 -175 -94 -5 -105 -3 -184 26 -47 17 -86 31 -87 31 -1 0 0 -9 3 -20 3 -11 -1 -28 -8 -38 -8 -10 -8 -13 -1 -6 9 7 32 3 85 -15 102 -35 241 -36 347 -1 41 13 80 24 85 25 6 0 17 6 25 13 8 7 44 32 80 55 36 23 79 54 95 69 17 16 36 26 43 23 7 -3 11 -1 7 4 -11 19 332 313 440 377 90 52 279 105 289 80 3 -7 5 -7 5 2 1 14 126 17 135 3 3 -5 14 -7 25 -4 10 2 38 -2 62 -10 24 -8 64 -20 88 -27 34 -9 41 -14 30 -22 -11 -7 -9 -8 6 -4 22 6 166 -57 164 -71 -4 -21 2 -34 12 -27 8 4 7 9 -2 16 -10 7 -5 8 14 4 41 -9 247 -135 244 -149 -1 -7 4 -11 11 -9 16 3 61 -24 153 -90 68 -49 92 -57 105 -36 9 14 -20 39 -171 140 -66 44 -119 85 -117 90 1 5 -2 7 -7 4 -5 -3 -42 13 -83 36 -135 77 -312 157 -403 183 -102 28 -226 44 -270 34z"/>
</g>
</svg>
