<svg id="svg" version="1.1" xmlns="http://www.w3.org/2000/svg" xmlns:xlink="http://www.w3.org/1999/xlink" width="400" height="400" viewBox="0, 0, 400,400"><g id="svgg"><path id="path0" d="M201.825 65.884 C 201.682 66.026,200.698 66.184,199.637 66.235 C 197.466 66.340,196.875 66.590,196.875 67.406 C 196.875 67.715,196.696 67.969,196.478 67.969 C 196.212 67.969,196.088 83.159,196.100 114.213 L 196.119 160.457 197.322 161.717 C 198.712 163.170,200.896 163.166,202.356 161.707 C 203.420 160.642,203.600 67.970,202.540 66.798 C 202.216 66.440,202.069 66.030,202.213 65.886 C 202.356 65.743,202.386 65.625,202.279 65.625 C 202.171 65.625,201.967 65.741,201.825 65.884 M156.838 97.269 C 156.948 97.446,156.426 97.543,155.678 97.484 C 154.931 97.425,154.412 97.526,154.525 97.710 C 154.829 98.201,152.712 100.031,152.197 99.722 C 151.955 99.578,151.999 99.757,152.294 100.120 C 152.672 100.587,152.694 100.781,152.369 100.781 C 152.115 100.781,152.016 100.957,152.148 101.172 C 152.281 101.387,152.200 101.563,151.969 101.563 C 151.732 101.563,151.625 101.992,151.724 102.539 C 151.822 103.076,151.737 103.516,151.537 103.516 C 151.061 103.516,151.063 104.964,151.538 105.259 C 151.740 105.383,151.837 105.838,151.754 106.269 C 151.671 106.700,151.770 106.949,151.974 106.823 C 152.308 106.617,152.511 107.146,152.390 107.910 C 152.365 108.071,152.530 108.203,152.757 108.203 C 152.985 108.203,153.075 108.359,152.957 108.549 C 152.839 108.740,153.003 109.111,153.320 109.375 C 153.638 109.639,153.778 110.054,153.632 110.298 C 153.485 110.542,153.663 110.501,154.027 110.206 C 154.684 109.673,154.916 109.958,154.724 111.064 C 154.693 111.241,154.851 111.273,155.075 111.135 C 155.298 110.997,155.390 110.736,155.279 110.556 C 155.168 110.376,155.427 110.321,155.854 110.432 C 156.282 110.544,156.546 110.775,156.441 110.945 C 156.336 111.115,156.980 111.156,157.872 111.036 C 159.196 110.859,159.434 110.919,159.165 111.366 C 158.886 111.828,158.935 111.832,159.478 111.392 C 159.832 111.105,160.306 110.984,160.530 111.122 C 160.754 111.261,160.938 111.169,160.938 110.919 C 160.938 110.668,161.209 110.568,161.544 110.696 C 161.877 110.824,162.064 110.790,161.960 110.621 C 161.855 110.451,162.128 110.089,162.566 109.815 C 163.004 109.541,163.254 109.494,163.120 109.710 C 162.987 109.926,163.084 110.229,163.335 110.385 C 163.603 110.550,163.688 110.499,163.541 110.261 C 163.228 109.755,164.212 108.885,164.649 109.281 C 164.825 109.440,164.841 109.348,164.684 109.076 C 164.527 108.804,164.192 108.685,163.938 108.812 C 163.684 108.939,163.781 108.792,164.154 108.486 C 164.527 108.181,164.717 107.816,164.577 107.676 C 164.437 107.536,164.538 107.422,164.802 107.422 C 165.065 107.422,165.172 107.246,165.039 107.031 C 164.906 106.816,164.986 106.641,165.216 106.641 C 165.480 106.641,165.558 106.029,165.428 104.980 C 165.266 103.679,165.309 103.489,165.626 104.102 C 165.958 104.742,165.994 104.646,165.828 103.564 C 165.716 102.839,165.625 102.082,165.625 101.881 C 165.625 101.681,165.419 101.643,165.168 101.799 C 164.866 101.986,164.791 101.872,164.948 101.464 C 165.088 101.098,164.940 100.752,164.583 100.615 C 164.252 100.488,164.077 100.135,164.194 99.830 C 164.311 99.525,164.153 99.066,163.844 98.809 C 163.534 98.552,163.281 98.457,163.281 98.599 C 163.281 98.740,162.916 98.660,162.470 98.421 C 161.961 98.149,161.746 97.759,161.893 97.376 C 162.092 96.856,162.034 96.842,161.503 97.283 C 161.087 97.627,160.790 97.665,160.615 97.396 C 160.305 96.919,156.544 96.793,156.838 97.269 M105.033 107.702 C 104.778 108.178,104.444 108.489,104.289 108.394 C 104.135 108.299,104.030 108.815,104.055 109.541 C 104.081 110.267,104.263 110.762,104.461 110.640 C 104.659 110.518,104.714 110.697,104.583 111.036 C 104.441 111.406,104.594 111.749,104.963 111.891 C 105.303 112.021,105.465 112.243,105.324 112.384 C 105.183 112.526,105.542 113.137,106.122 113.742 C 106.703 114.348,107.035 114.844,106.861 114.844 C 106.687 114.844,106.754 115.095,107.009 115.402 C 107.264 115.710,107.836 115.891,108.281 115.805 C 108.726 115.720,108.978 115.762,108.841 115.899 C 108.704 116.035,108.900 116.488,109.276 116.904 C 109.653 117.320,109.917 117.730,109.863 117.814 C 109.559 118.296,109.848 118.387,110.352 117.969 C 110.674 117.701,110.959 117.592,110.986 117.726 C 111.013 117.859,111.065 118.188,111.102 118.457 C 111.138 118.726,111.393 118.897,111.668 118.838 C 111.943 118.779,112.075 118.881,111.961 119.064 C 111.848 119.248,112.705 120.337,113.867 121.484 C 115.029 122.632,115.872 123.760,115.740 123.992 C 115.608 124.224,115.647 124.281,115.826 124.118 C 116.006 123.954,116.576 124.218,117.092 124.703 C 117.609 125.189,118.149 125.542,118.293 125.488 C 118.437 125.435,118.577 125.566,118.604 125.781 C 118.630 125.996,118.696 126.260,118.750 126.367 C 118.804 126.475,118.870 126.738,118.896 126.953 C 118.923 127.168,119.059 127.300,119.197 127.246 C 119.336 127.192,119.775 127.444,120.174 127.804 C 120.572 128.165,121.074 128.472,121.289 128.488 C 121.504 128.503,121.702 128.691,121.729 128.906 C 121.755 129.121,121.821 129.385,121.875 129.492 C 121.929 129.600,121.997 129.819,122.027 129.980 C 122.150 130.637,122.731 131.250,123.047 131.055 C 123.232 130.940,123.496 131.028,123.633 131.250 C 123.770 131.472,124.073 131.535,124.306 131.391 C 124.543 131.245,124.619 131.309,124.479 131.536 C 124.340 131.760,124.487 132.158,124.805 132.422 C 125.122 132.685,125.283 133.061,125.162 133.257 C 125.041 133.453,125.175 133.565,125.459 133.506 C 125.744 133.447,125.928 133.631,125.869 133.916 C 125.810 134.200,125.930 134.329,126.135 134.202 C 126.341 134.075,126.621 134.153,126.758 134.375 C 126.895 134.597,127.198 134.660,127.431 134.516 C 127.668 134.370,127.744 134.434,127.604 134.661 C 127.465 134.885,127.612 135.283,127.930 135.547 C 128.247 135.810,128.408 136.186,128.287 136.382 C 128.166 136.578,128.292 136.690,128.566 136.631 C 128.841 136.572,129.074 136.787,129.084 137.109 C 129.094 137.451,129.468 137.695,129.980 137.695 C 130.464 137.695,130.815 137.817,130.762 137.967 C 130.604 138.404,133.294 141.006,133.665 140.776 C 133.851 140.661,133.955 140.800,133.896 141.084 C 133.837 141.369,133.998 141.561,134.253 141.512 C 134.516 141.461,134.656 141.741,134.576 142.156 C 134.395 143.098,136.113 144.805,136.543 144.110 C 136.746 143.781,136.678 143.729,136.328 143.945 C 135.968 144.168,135.910 144.110,136.133 143.750 C 136.355 143.390,136.297 143.332,135.938 143.555 C 135.578 143.777,135.520 143.719,135.742 143.359 C 135.965 142.999,135.907 142.942,135.547 143.164 C 135.197 143.380,135.129 143.328,135.332 143.000 C 135.551 142.646,135.873 142.748,136.553 143.387 C 137.060 143.864,137.400 144.377,137.308 144.526 C 137.215 144.676,137.748 145.388,138.492 146.108 C 139.235 146.829,139.844 147.275,139.844 147.099 C 139.844 146.923,140.105 146.997,140.425 147.262 C 140.745 147.528,140.927 147.874,140.830 148.031 C 140.645 148.330,142.721 150.496,143.128 150.429 C 143.255 150.408,143.342 150.495,143.321 150.622 C 143.250 151.058,145.458 153.125,145.995 153.125 C 146.289 153.125,146.434 153.281,146.316 153.471 C 146.199 153.662,146.362 154.033,146.680 154.297 C 146.997 154.560,147.144 154.959,147.006 155.183 C 146.867 155.406,146.934 155.479,147.153 155.343 C 147.372 155.207,147.862 155.440,148.242 155.859 C 148.622 156.279,149.129 156.510,149.369 156.373 C 149.608 156.237,149.672 156.270,149.511 156.449 C 149.349 156.627,149.508 157.094,149.864 157.488 C 150.220 157.881,150.369 158.203,150.195 158.203 C 150.021 158.203,150.185 158.542,150.560 158.955 C 150.934 159.369,151.564 159.645,151.960 159.569 C 152.484 159.468,152.641 159.627,152.539 160.156 C 152.435 160.698,152.593 160.845,153.163 160.735 C 153.583 160.654,153.840 160.729,153.733 160.901 C 153.536 161.220,155.032 162.824,155.566 162.867 C 155.728 162.880,155.842 162.995,155.821 163.122 C 155.747 163.577,157.969 165.625,158.537 165.625 C 158.855 165.625,158.997 165.743,158.853 165.886 C 158.710 166.030,158.844 166.425,159.151 166.765 C 159.458 167.105,159.722 167.515,159.738 167.676 C 159.753 167.837,159.835 167.925,159.920 167.871 C 160.005 167.817,160.415 168.081,160.831 168.458 C 161.247 168.834,161.733 169.010,161.911 168.849 C 162.089 168.687,162.126 168.746,161.993 168.979 C 161.765 169.379,164.565 172.461,165.156 172.461 C 165.306 172.461,165.389 172.582,165.340 172.730 C 165.180 173.210,168.508 175.808,169.028 175.608 C 169.305 175.502,169.531 175.548,169.531 175.710 C 169.531 175.873,169.883 176.032,170.313 176.064 C 170.742 176.097,171.094 175.948,171.094 175.734 C 171.094 175.520,171.246 175.439,171.432 175.554 C 171.862 175.819,173.138 174.440,172.787 174.089 C 172.644 173.946,172.731 173.828,172.982 173.828 C 173.243 173.828,173.438 173.238,173.438 172.445 C 173.438 171.004,164.841 161.433,164.009 161.947 C 163.823 162.062,163.672 161.956,163.672 161.711 C 163.672 161.025,157.321 154.704,156.896 154.967 C 156.689 155.094,156.626 155.027,156.756 154.816 C 156.887 154.606,155.771 153.221,154.278 151.739 C 152.784 150.257,151.563 149.193,151.563 149.375 C 151.563 149.556,151.301 149.488,150.981 149.222 C 150.661 148.957,150.476 148.615,150.571 148.462 C 150.847 148.015,145.111 142.524,144.719 142.859 C 144.522 143.027,144.575 142.883,144.836 142.540 C 145.502 141.663,144.177 140.374,143.375 141.119 C 143.060 141.411,142.952 141.426,143.102 141.158 C 143.239 140.913,143.091 140.498,142.773 140.234 C 142.456 139.971,142.278 139.623,142.378 139.461 C 142.478 139.299,142.168 138.836,141.690 138.431 L 140.820 137.695 141.599 138.672 L 142.377 139.648 141.374 138.766 C 140.823 138.281,140.215 138.017,140.023 138.180 C 139.831 138.343,139.883 138.201,140.139 137.864 C 140.524 137.355,140.306 136.959,138.856 135.536 C 137.896 134.593,137.109 133.977,137.109 134.166 C 137.109 134.356,136.626 134.085,136.035 133.564 L 134.961 132.617 135.897 133.679 C 136.411 134.264,137.010 134.632,137.227 134.498 C 137.467 134.349,137.498 134.454,137.305 134.766 C 137.082 135.126,137.140 135.183,137.500 134.961 C 137.860 134.739,137.918 134.796,137.695 135.156 C 137.473 135.516,137.531 135.574,137.891 135.352 C 138.242 135.134,138.308 135.187,138.101 135.522 C 137.887 135.869,137.370 135.588,136.293 134.536 C 135.044 133.316,134.867 132.963,135.264 132.473 C 135.530 132.144,135.553 131.994,135.316 132.136 C 135.081 132.277,134.300 131.783,133.579 131.039 C 132.858 130.296,132.418 129.688,132.601 129.688 C 132.784 129.688,132.616 129.337,132.228 128.908 C 131.649 128.268,131.414 128.215,130.920 128.615 C 130.503 128.953,130.403 128.960,130.595 128.640 C 130.748 128.387,130.691 128.067,130.469 127.930 C 130.247 127.793,130.148 127.547,130.249 127.384 C 130.349 127.221,129.407 126.073,128.154 124.833 C 126.550 123.246,125.786 122.723,125.573 123.068 C 125.364 123.406,125.428 123.460,125.781 123.242 C 126.141 123.020,126.199 123.078,125.977 123.438 C 125.754 123.797,125.812 123.855,126.172 123.633 C 126.532 123.410,126.590 123.468,126.367 123.828 C 126.145 124.188,126.203 124.246,126.563 124.023 C 126.922 123.801,126.980 123.859,126.758 124.219 C 126.535 124.579,126.593 124.636,126.953 124.414 C 127.313 124.192,127.371 124.249,127.148 124.609 C 126.926 124.969,126.984 125.027,127.344 124.805 C 127.704 124.582,127.761 124.640,127.539 125.000 C 127.317 125.360,127.374 125.418,127.734 125.195 C 128.085 124.978,128.152 125.031,127.946 125.364 C 127.730 125.713,127.279 125.494,126.338 124.581 C 125.619 123.884,125.105 123.193,125.197 123.045 C 125.288 122.897,124.848 122.283,124.219 121.680 C 123.589 121.077,123.148 120.464,123.239 120.318 C 123.329 120.173,122.552 119.216,121.513 118.192 C 120.175 116.874,119.536 116.474,119.322 116.820 C 119.114 117.156,119.179 117.210,119.531 116.992 C 119.891 116.770,119.949 116.828,119.727 117.188 C 119.504 117.547,119.562 117.605,119.922 117.383 C 120.282 117.160,120.340 117.218,120.117 117.578 C 119.895 117.938,119.953 117.996,120.313 117.773 C 120.661 117.558,120.730 117.610,120.529 117.934 C 120.308 118.292,120.053 118.246,119.502 117.747 C 119.098 117.382,118.855 116.943,118.961 116.772 C 119.067 116.600,118.972 116.348,118.750 116.211 C 118.528 116.074,118.432 115.824,118.536 115.655 C 118.641 115.486,118.310 114.958,117.803 114.481 C 117.123 113.842,116.801 113.740,116.582 114.093 C 116.379 114.422,116.447 114.474,116.797 114.258 C 117.157 114.035,117.215 114.093,116.992 114.453 C 116.770 114.813,116.828 114.871,117.188 114.648 C 117.547 114.426,117.605 114.484,117.383 114.844 C 117.160 115.204,117.218 115.261,117.578 115.039 C 117.928 114.823,117.996 114.875,117.793 115.203 C 117.574 115.557,117.250 115.453,116.565 114.810 C 115.800 114.090,115.720 113.830,116.118 113.338 C 116.421 112.964,116.436 112.840,116.158 113.007 C 115.913 113.153,115.498 113.013,115.234 112.695 C 114.971 112.378,114.625 112.199,114.466 112.297 C 114.306 112.395,113.786 112.060,113.309 111.553 C 112.670 110.873,112.568 110.551,112.922 110.332 C 113.250 110.129,113.302 110.197,113.086 110.547 C 112.864 110.907,112.921 110.965,113.281 110.742 C 113.641 110.520,113.699 110.578,113.477 110.938 C 113.263 111.283,113.313 111.355,113.630 111.158 C 114.319 110.733,113.422 109.783,112.500 109.961 C 112.098 110.038,111.538 109.806,111.256 109.445 C 110.785 108.844,110.808 108.838,111.523 109.368 C 112.295 109.940,112.296 109.937,111.569 109.085 C 111.164 108.610,110.701 108.303,110.539 108.403 C 110.377 108.503,110.041 108.339,109.791 108.038 C 109.445 107.622,109.449 107.422,109.807 107.201 C 110.125 107.005,110.175 107.076,109.961 107.422 C 109.739 107.782,109.796 107.840,110.156 107.617 C 110.516 107.395,110.574 107.453,110.352 107.813 C 110.135 108.164,110.187 108.230,110.521 108.024 C 111.460 107.443,110.219 106.910,107.843 106.873 C 105.800 106.841,105.436 106.948,105.033 107.702 M244.423 114.985 C 244.556 115.200,244.297 115.264,243.811 115.137 C 243.348 115.016,242.969 115.098,242.969 115.319 C 242.969 115.541,242.674 115.481,242.308 115.185 C 241.919 114.869,241.762 114.840,241.926 115.114 C 242.185 115.545,239.954 118.251,239.466 118.099 C 239.351 118.063,239.219 119.338,239.172 120.931 C 239.124 122.538,239.249 123.828,239.452 123.828 C 239.654 123.828,239.718 124.092,239.594 124.414 C 239.470 124.739,239.583 125.000,239.850 125.000 C 240.208 125.000,240.193 125.168,239.794 125.661 C 239.499 126.024,239.462 126.199,239.711 126.050 C 239.967 125.897,240.649 126.290,241.274 126.953 C 243.324 129.126,250.781 129.489,250.781 127.417 C 250.781 127.258,251.332 126.524,252.006 125.786 C 253.227 124.449,254.040 119.531,253.039 119.531 C 252.846 119.531,252.797 119.355,252.930 119.141 C 253.062 118.926,252.975 118.750,252.734 118.750 C 252.494 118.750,252.406 118.574,252.539 118.359 C 252.672 118.145,252.573 117.969,252.319 117.969 C 251.993 117.969,252.015 117.774,252.394 117.308 C 252.688 116.944,252.733 116.764,252.494 116.908 C 252.254 117.052,251.743 116.822,251.359 116.397 C 250.975 115.972,250.424 115.625,250.135 115.625 C 249.846 115.625,249.609 115.455,249.609 115.247 C 249.609 115.039,249.346 114.969,249.023 115.093 C 248.701 115.217,248.437 115.167,248.437 114.983 C 248.437 114.799,247.482 114.640,246.315 114.631 C 245.065 114.620,244.288 114.766,244.423 114.985 M122.880 120.219 C 122.675 120.424,122.235 120.364,122.363 120.149 C 122.417 120.059,122.022 119.487,121.486 118.879 L 120.511 117.773 121.775 118.917 C 122.470 119.546,122.967 120.132,122.880 120.219 M139.426 136.495 C 140.220 137.339,140.238 137.431,139.592 137.337 C 139.193 137.278,138.864 137.071,138.861 136.877 C 138.858 136.682,138.716 136.304,138.545 136.035 C 138.049 135.253,138.463 135.469,139.426 136.495 M247.656 153.894 C 247.656 154.102,247.372 154.163,247.024 154.030 C 246.565 153.853,244.231 155.973,238.528 161.747 C 234.203 166.125,230.488 169.653,230.273 169.586 C 230.059 169.520,230.017 169.600,230.180 169.764 C 230.344 169.927,229.680 170.783,228.704 171.666 C 225.193 174.844,226.511 178.707,230.987 178.358 C 232.098 178.271,232.920 178.099,232.813 177.976 C 232.486 177.602,238.780 171.506,239.229 171.762 C 239.460 171.893,239.511 171.850,239.344 171.665 C 238.952 171.235,244.934 165.196,245.442 165.510 C 245.652 165.639,245.716 165.571,245.585 165.359 C 245.254 164.824,249.941 160.073,250.474 160.403 C 250.731 160.562,250.791 160.487,250.623 160.217 C 250.470 159.969,250.480 159.547,250.645 159.279 C 251.170 158.430,251.068 155.859,250.510 155.859 C 250.229 155.859,250.000 155.497,250.000 155.055 C 250.000 154.613,249.824 154.359,249.609 154.492 C 249.395 154.625,249.219 154.537,249.219 154.297 C 249.219 154.057,249.043 153.969,248.828 154.102 C 248.613 154.234,248.438 154.157,248.438 153.929 C 248.438 153.702,248.262 153.516,248.047 153.516 C 247.832 153.516,247.656 153.686,247.656 153.894 M108.068 161.426 C 108.229 161.687,107.323 161.888,106.543 161.765 C 106.382 161.740,106.250 161.916,106.250 162.157 C 106.250 162.443,106.020 162.409,105.589 162.060 C 105.213 161.754,105.047 161.722,105.205 161.985 C 105.357 162.238,105.300 162.558,105.078 162.695 C 104.856 162.832,104.799 163.152,104.951 163.406 C 105.140 163.720,105.034 163.710,104.620 163.375 C 104.098 162.952,104.028 163.023,104.123 163.885 C 104.202 164.610,104.107 164.783,103.777 164.511 C 103.445 164.237,103.279 164.578,103.169 165.759 C 102.849 169.197,102.960 170.101,103.812 171.018 C 104.083 171.309,104.187 171.736,104.045 171.967 C 103.902 172.198,103.950 172.285,104.152 172.160 C 104.353 172.036,104.928 172.533,105.430 173.266 C 105.932 173.999,106.528 174.484,106.753 174.344 C 106.994 174.196,107.076 174.320,106.952 174.643 C 106.779 175.093,107.374 175.196,110.157 175.198 C 112.585 175.201,113.525 175.071,113.401 174.750 C 113.306 174.501,113.443 174.165,113.706 174.003 C 114.000 173.821,114.083 173.870,113.921 174.131 C 113.777 174.365,113.865 174.683,114.116 174.838 C 114.400 175.013,114.469 174.951,114.299 174.676 C 114.145 174.427,114.538 173.728,115.189 173.092 C 115.829 172.465,116.248 171.847,116.120 171.719 C 115.991 171.590,116.074 171.484,116.305 171.484 C 116.542 171.484,116.628 171.118,116.503 170.642 C 116.370 170.131,116.437 169.895,116.675 170.042 C 116.919 170.193,117.052 169.484,117.029 168.150 C 117.009 166.976,116.842 166.016,116.657 166.016 C 116.473 166.016,116.424 165.752,116.548 165.430 C 116.671 165.107,116.573 164.844,116.329 164.844 C 116.085 164.844,115.997 164.732,116.133 164.596 C 116.270 164.459,115.777 163.868,115.039 163.281 C 114.301 162.695,113.778 162.133,113.878 162.034 C 113.978 161.934,113.664 161.866,113.182 161.883 C 112.699 161.900,112.334 161.738,112.370 161.523 C 112.407 161.300,111.460 161.133,110.161 161.133 C 108.910 161.133,107.969 161.265,108.068 161.426 M115.078 162.437 C 114.954 162.638,115.098 163.006,115.399 163.256 C 115.723 163.524,116.038 163.561,116.172 163.344 C 116.296 163.144,116.152 162.775,115.851 162.525 C 115.527 162.257,115.212 162.221,115.078 162.437 M195.605 178.604 C 194.585 178.817,193.750 179.142,193.750 179.327 C 193.750 179.512,193.486 179.562,193.164 179.438 C 192.842 179.314,192.578 179.418,192.578 179.669 C 192.578 179.919,192.402 180.016,192.188 179.883 C 191.973 179.750,191.797 179.838,191.797 180.078 C 191.797 180.318,191.621 180.406,191.406 180.273 C 191.191 180.141,191.016 180.229,191.016 180.469 C 191.016 180.709,190.840 180.797,190.625 180.664 C 190.410 180.531,190.234 180.593,190.234 180.802 C 190.234 181.011,189.803 181.134,189.276 181.076 C 188.740 181.017,188.353 181.161,188.397 181.403 C 188.441 181.641,188.171 181.812,187.797 181.782 C 187.424 181.753,187.193 181.851,187.286 182.000 C 187.378 182.150,187.012 182.789,186.472 183.421 C 185.932 184.053,185.594 184.363,185.720 184.109 C 186.098 183.352,185.288 183.159,184.712 183.868 C 184.346 184.320,184.332 184.433,184.668 184.232 C 184.937 184.070,185.156 184.124,185.156 184.352 C 185.156 184.739,184.601 184.931,183.858 184.802 C 183.681 184.771,183.654 184.937,183.798 185.171 C 184.101 185.662,182.863 187.187,182.397 186.898 C 182.225 186.793,181.958 186.912,181.803 187.163 C 181.626 187.449,181.689 187.516,181.971 187.342 C 182.669 186.911,182.520 187.319,181.242 189.333 C 180.593 190.356,180.148 191.417,180.253 191.690 C 180.358 191.964,180.264 192.188,180.043 192.188 C 179.822 192.188,179.750 192.363,179.883 192.578 C 180.016 192.793,179.959 192.969,179.757 192.969 C 179.412 192.969,178.433 196.112,178.574 196.768 C 178.610 196.934,178.500 197.391,178.329 197.784 C 177.903 198.762,178.342 205.216,178.846 205.384 C 179.070 205.458,179.156 205.772,179.038 206.080 C 178.919 206.388,179.012 206.641,179.243 206.641 C 179.474 206.641,179.562 206.904,179.438 207.227 C 179.314 207.549,179.402 207.813,179.633 207.813 C 179.865 207.813,179.961 208.054,179.848 208.348 C 179.735 208.643,179.908 209.149,180.232 209.473 C 180.557 209.798,180.713 210.172,180.580 210.305 C 180.447 210.438,180.544 210.547,180.794 210.547 C 181.045 210.547,181.250 210.811,181.250 211.133 C 181.250 211.455,181.447 211.719,181.688 211.719 C 181.984 211.719,181.963 211.916,181.622 212.327 C 181.345 212.661,181.279 212.904,181.477 212.866 C 182.604 212.652,182.911 212.887,182.372 213.552 C 182.077 213.915,182.024 214.100,182.253 213.963 C 182.483 213.826,183.098 214.100,183.620 214.572 C 184.143 215.044,185.241 215.931,186.062 216.544 C 187.048 217.281,187.475 217.862,187.322 218.259 C 187.131 218.758,187.193 218.776,187.686 218.367 C 188.279 217.875,188.511 218.226,188.305 219.304 C 188.268 219.502,188.491 219.453,188.801 219.195 C 189.676 218.470,191.593 219.420,190.915 220.242 C 190.492 220.756,190.542 220.771,191.309 220.363 C 191.873 220.062,192.188 220.039,192.188 220.299 C 192.188 220.521,192.319 220.666,192.480 220.620 C 192.642 220.574,193.183 220.764,193.683 221.041 C 194.183 221.318,194.821 221.457,195.100 221.350 C 195.379 221.242,195.783 221.330,195.997 221.544 C 196.457 222.004,204.022 222.091,204.744 221.645 C 205.017 221.476,205.621 221.297,206.087 221.248 C 207.330 221.115,210.938 219.495,210.938 219.069 C 210.938 218.868,211.107 218.809,211.314 218.937 C 211.521 219.064,212.034 218.826,212.453 218.406 C 212.873 217.987,213.304 217.732,213.412 217.839 C 213.520 217.947,213.811 217.658,214.058 217.196 C 214.441 216.480,214.601 216.432,215.141 216.869 C 215.490 217.152,215.657 217.187,215.514 216.947 C 215.274 216.545,216.551 215.039,217.131 215.039 C 217.269 215.039,217.336 214.899,217.279 214.728 C 217.222 214.557,217.597 213.854,218.112 213.165 C 219.220 211.685,220.431 209.375,220.099 209.375 C 219.971 209.375,220.142 209.099,220.480 208.761 C 220.818 208.424,221.121 207.852,221.153 207.492 C 221.242 206.512,221.335 206.122,221.654 205.390 C 221.814 205.024,221.830 204.541,221.691 204.316 C 221.552 204.090,221.593 203.906,221.783 203.906 C 222.263 203.906,222.049 195.330,221.556 194.837 C 221.335 194.617,221.259 194.165,221.386 193.834 C 221.551 193.403,221.468 193.323,221.094 193.555 C 220.718 193.787,220.636 193.706,220.804 193.268 C 221.047 192.635,219.763 189.864,218.994 189.361 C 218.745 189.199,218.724 189.066,218.945 189.056 C 219.160 189.046,218.995 188.780,218.578 188.464 C 218.161 188.149,217.960 187.891,218.133 187.891 C 218.305 187.891,218.031 187.526,217.524 187.080 C 217.017 186.634,216.809 186.373,217.063 186.500 C 217.317 186.627,217.651 186.526,217.807 186.274 C 217.966 186.016,217.921 185.921,217.703 186.056 C 217.196 186.369,213.955 183.060,214.347 182.628 C 214.513 182.446,214.421 182.428,214.143 182.588 C 213.504 182.957,212.419 182.092,212.775 181.499 C 212.921 181.254,212.743 181.296,212.380 181.591 C 211.729 182.118,211.506 181.862,211.668 180.776 C 211.691 180.622,211.419 180.608,211.064 180.745 C 210.679 180.892,210.517 180.833,210.662 180.599 C 210.807 180.365,210.445 180.233,209.766 180.273 C 209.087 180.314,208.725 180.182,208.870 179.948 C 209.015 179.713,208.851 179.655,208.463 179.804 C 208.105 179.941,207.813 179.911,207.813 179.737 C 207.813 179.319,204.773 178.417,204.316 178.699 C 204.120 178.820,203.850 178.740,203.715 178.522 C 203.410 178.028,198.110 178.082,195.605 178.604 M161.077 196.750 C 161.222 197.004,161.162 197.322,160.944 197.457 C 160.726 197.592,160.547 197.560,160.547 197.386 C 160.547 197.213,140.771 197.070,116.601 197.070 C 92.432 197.070,72.656 197.213,72.656 197.386 C 72.656 197.560,72.500 197.606,72.310 197.488 C 71.047 196.708,70.243 201.303,71.407 202.646 L 72.148 203.500 116.310 203.605 C 143.119 203.669,160.385 203.570,160.250 203.352 C 160.128 203.154,160.308 203.100,160.650 203.231 C 160.999 203.365,161.497 203.190,161.788 202.831 C 162.226 202.290,162.216 202.239,161.719 202.493 C 161.380 202.666,161.421 202.556,161.816 202.232 C 162.583 201.604,162.783 198.828,162.062 198.828 C 161.766 198.828,161.787 198.630,162.128 198.220 C 162.543 197.719,162.538 197.633,162.096 197.732 C 161.800 197.798,161.551 197.646,161.541 197.396 C 161.531 197.145,161.363 196.794,161.168 196.615 C 160.963 196.427,160.925 196.485,161.077 196.750 M238.376 196.710 C 238.527 196.860,238.198 197.521,237.646 198.177 C 236.488 199.553,236.556 201.573,237.802 202.819 C 238.512 203.529,325.391 204.189,325.391 203.484 C 325.391 203.359,325.803 203.036,326.307 202.767 C 327.002 202.395,327.183 202.026,327.057 201.236 C 326.927 200.418,326.981 200.321,327.307 200.781 C 327.650 201.265,327.723 201.210,327.728 200.465 C 327.732 199.969,327.561 199.671,327.348 199.802 C 327.131 199.936,327.059 199.788,327.183 199.465 C 327.414 198.863,326.016 197.161,325.618 197.559 C 325.493 197.684,325.391 197.625,325.391 197.428 C 325.391 197.213,308.381 197.096,282.752 197.135 C 255.714 197.177,239.746 197.061,239.108 196.818 C 238.555 196.608,238.226 196.559,238.376 196.710 M225.581 225.740 C 225.466 226.039,225.261 226.172,225.124 226.036 C 223.534 224.445,223.450 229.292,225.033 231.291 C 225.695 232.128,226.102 232.813,225.936 232.813 C 225.771 232.813,226.127 233.326,226.728 233.954 C 227.407 234.662,228.115 235.038,228.594 234.946 C 229.198 234.829,229.273 234.910,228.936 235.315 C 228.616 235.701,228.657 235.959,229.097 236.324 C 229.422 236.594,229.688 236.664,229.688 236.479 C 229.688 236.295,231.874 238.326,234.547 240.993 C 237.220 243.659,239.374 245.942,239.333 246.065 C 239.291 246.188,239.406 246.316,239.587 246.349 C 240.289 246.475,242.147 248.580,241.916 248.986 C 241.781 249.221,241.823 249.276,242.008 249.107 C 242.373 248.776,253.578 259.739,253.313 260.168 C 253.225 260.311,253.674 260.927,254.311 261.537 C 254.948 262.147,255.469 262.484,255.469 262.286 C 255.469 262.087,257.832 264.284,260.721 267.167 C 263.610 270.049,265.897 272.532,265.804 272.683 C 265.710 272.835,265.895 273.176,266.215 273.441 C 266.535 273.707,266.797 273.773,266.797 273.590 C 266.797 273.406,268.721 275.174,271.073 277.519 C 273.425 279.863,275.277 281.899,275.189 282.042 C 275.100 282.185,275.593 282.813,276.283 283.436 L 277.539 284.570 276.368 283.203 L 275.197 281.836 276.646 283.167 C 277.443 283.900,277.986 284.674,277.854 284.888 C 277.722 285.102,277.785 285.171,277.995 285.041 C 278.205 284.912,279.946 286.412,281.864 288.375 C 283.782 290.338,285.000 291.697,284.570 291.394 C 283.964 290.967,283.999 291.079,284.725 291.894 C 285.523 292.790,286.328 293.012,286.328 292.337 C 286.328 292.229,286.125 292.267,285.877 292.420 C 285.579 292.605,285.533 292.526,285.742 292.188 C 285.965 291.828,285.907 291.770,285.547 291.992 C 285.186 292.215,285.129 292.157,285.354 291.792 C 285.597 291.399,285.867 291.516,286.489 292.285 C 287.312 293.301,290.234 293.787,290.234 292.907 C 290.234 292.701,290.412 292.642,290.630 292.776 C 290.849 292.912,291.131 292.491,291.263 291.829 C 291.394 291.174,291.656 290.733,291.844 290.850 C 292.033 290.966,292.188 290.602,292.188 290.039 C 292.188 289.358,292.035 289.111,291.730 289.299 C 291.423 289.489,291.355 289.368,291.523 288.931 C 291.660 288.574,291.602 288.281,291.394 288.281 C 291.186 288.281,291.016 288.059,291.016 287.787 C 291.016 287.516,288.741 285.024,285.961 282.250 C 283.180 279.475,280.939 277.105,280.980 276.982 C 281.021 276.859,280.931 276.758,280.781 276.758 C 280.309 276.758,277.367 273.716,277.551 273.418 C 277.647 273.263,277.464 272.918,277.144 272.653 C 276.824 272.387,276.563 272.307,276.563 272.474 C 276.563 272.641,276.218 272.465,275.797 272.084 C 275.376 271.703,275.068 271.280,275.113 271.145 C 275.158 271.009,275.020 270.852,274.805 270.795 C 274.086 270.604,265.273 261.582,265.479 261.248 C 265.591 261.066,265.530 260.966,265.343 261.025 C 264.833 261.186,262.416 259.045,262.661 258.650 C 262.777 258.462,262.525 257.993,262.100 257.609 C 261.676 257.225,261.328 257.062,261.328 257.247 C 261.328 257.433,260.545 256.816,259.587 255.876 C 258.630 254.936,257.954 253.994,258.085 253.781 C 258.216 253.569,258.151 253.502,257.940 253.632 C 257.432 253.946,253.015 249.467,253.407 249.036 C 253.574 248.853,253.517 248.814,253.279 248.949 C 252.740 249.256,251.056 247.522,251.461 247.076 C 251.624 246.897,251.558 246.864,251.314 247.003 C 250.786 247.305,249.878 246.346,250.296 245.928 C 250.456 245.768,250.410 245.692,250.195 245.757 C 249.548 245.955,247.603 244.453,247.809 243.914 C 247.937 243.582,247.734 243.465,247.208 243.566 C 246.515 243.699,246.481 243.637,246.938 243.073 C 247.275 242.658,247.293 242.529,246.989 242.711 C 246.506 243.001,243.555 240.203,243.555 239.455 C 243.555 239.239,243.428 239.106,243.272 239.160 C 242.829 239.313,237.514 233.887,237.743 233.516 C 237.856 233.333,237.724 233.232,237.449 233.291 C 237.174 233.350,236.942 233.179,236.932 232.910 C 236.922 232.642,236.796 232.466,236.653 232.520 C 236.186 232.694,234.392 230.758,234.643 230.352 C 234.777 230.135,234.707 230.068,234.488 230.204 C 234.268 230.339,233.758 230.062,233.353 229.587 C 232.626 228.735,232.627 228.732,233.398 229.304 C 234.121 229.839,234.140 229.832,233.647 229.204 C 233.354 228.830,232.988 228.603,232.833 228.698 C 232.504 228.901,229.192 225.625,229.458 225.360 C 229.556 225.262,228.771 225.185,227.713 225.188 C 226.435 225.193,225.720 225.378,225.581 225.740 M169.346 226.970 C 169.428 227.102,168.583 228.164,167.467 229.328 C 166.352 230.493,165.496 231.621,165.565 231.836 C 165.634 232.051,165.559 232.096,165.399 231.936 C 165.239 231.776,163.902 232.830,162.427 234.279 C 160.952 235.728,159.574 236.914,159.365 236.914 C 159.156 236.914,159.028 237.027,159.082 237.166 C 159.230 237.547,157.750 239.070,157.426 238.870 C 157.272 238.774,156.737 239.130,156.239 239.660 C 155.740 240.191,155.490 240.625,155.683 240.625 C 155.876 240.625,154.821 241.847,153.339 243.340 C 151.857 244.834,150.473 245.949,150.262 245.819 C 150.052 245.689,149.997 245.773,150.141 246.006 C 150.285 246.240,150.222 246.543,150.000 246.680 C 149.778 246.817,149.690 247.080,149.805 247.266 C 149.919 247.451,149.846 247.705,149.643 247.831 C 149.439 247.957,149.146 247.854,148.990 247.602 C 148.802 247.297,148.878 247.250,149.219 247.461 C 149.569 247.678,149.636 247.625,149.432 247.294 C 149.215 246.943,148.828 247.103,148.018 247.879 C 147.405 248.467,146.978 249.069,147.069 249.217 C 147.246 249.503,144.608 252.216,144.314 252.051 C 144.219 251.997,144.158 252.057,144.179 252.185 C 144.246 252.591,142.080 254.667,141.781 254.483 C 141.624 254.385,141.278 254.567,141.012 254.887 C 140.747 255.207,140.660 255.469,140.820 255.469 C 140.980 255.469,140.916 255.705,140.676 255.993 C 140.437 256.281,140.371 256.661,140.531 256.837 C 140.690 257.013,140.624 257.045,140.384 256.908 C 140.144 256.771,139.638 257.002,139.258 257.422 C 138.878 257.841,138.446 258.110,138.298 258.018 C 137.968 257.814,131.407 264.357,131.543 264.755 C 131.597 264.911,131.421 265.039,131.152 265.039 C 130.884 265.039,130.664 265.244,130.664 265.495 C 130.664 266.072,130.148 266.596,129.557 266.619 C 129.307 266.629,129.143 266.841,129.194 267.091 C 129.244 267.341,128.298 268.613,127.090 269.917 C 125.594 271.533,124.849 272.683,124.751 273.527 C 124.592 274.893,124.907 276.273,125.321 276.023 C 125.699 275.795,126.567 276.818,126.258 277.127 C 126.116 277.269,126.331 277.258,126.736 277.103 C 127.248 276.906,127.386 276.959,127.189 277.277 C 127.008 277.571,127.202 277.734,127.734 277.734 C 128.189 277.734,128.465 277.579,128.348 277.388 C 128.230 277.198,128.484 276.950,128.911 276.839 C 129.339 276.727,129.598 276.783,129.486 276.963 C 129.375 277.143,129.507 277.418,129.779 277.575 C 130.051 277.731,130.148 277.720,129.994 277.550 C 129.584 277.096,130.399 275.781,131.091 275.781 C 131.452 275.781,131.580 275.974,131.416 276.270 C 131.267 276.538,132.927 275.003,135.104 272.859 C 138.874 269.146,139.553 268.401,138.672 268.945 C 138.457 269.078,138.281 269.078,138.281 268.944 C 138.281 268.250,165.918 240.777,166.465 240.928 C 166.679 240.987,166.762 240.884,166.648 240.699 C 166.441 240.365,169.628 236.989,170.077 237.068 C 170.206 237.091,170.295 237.005,170.274 236.878 C 170.208 236.471,172.373 234.395,172.672 234.580 C 172.829 234.677,173.198 234.451,173.491 234.078 C 173.983 233.450,173.965 233.442,173.242 233.978 C 172.471 234.550,172.470 234.546,173.197 233.694 C 173.601 233.219,174.065 232.913,174.227 233.013 C 174.389 233.113,174.497 232.889,174.468 232.515 C 174.438 232.142,174.629 231.878,174.891 231.930 C 175.240 231.998,175.271 231.767,175.007 231.073 C 174.650 230.135,174.730 228.878,175.193 228.128 C 175.324 227.916,175.196 227.834,174.909 227.944 C 174.622 228.054,174.041 227.826,173.619 227.437 C 172.903 226.777,168.961 226.346,169.346 226.970 M283.594 232.039 C 283.594 232.268,283.180 232.333,282.617 232.192 C 282.002 232.037,281.641 232.112,281.641 232.393 C 281.641 232.722,281.409 232.716,280.762 232.372 C 279.965 231.947,279.933 231.964,280.419 232.553 C 280.767 232.976,280.802 233.203,280.517 233.203 C 279.493 233.203,277.630 234.672,277.966 235.215 C 278.079 235.398,278.006 235.547,277.805 235.547 C 277.076 235.547,276.570 237.732,276.766 240.039 C 277.063 243.548,277.094 243.709,277.438 243.496 C 277.613 243.388,278.310 243.885,278.987 244.599 C 279.665 245.314,280.086 245.635,279.924 245.313 C 279.695 244.857,279.745 244.865,280.147 245.347 C 280.431 245.688,280.928 245.879,281.250 245.772 C 281.757 245.603,281.762 245.666,281.289 246.238 C 280.789 246.844,280.833 246.866,281.811 246.494 C 282.398 246.271,283.083 246.221,283.334 246.384 C 284.086 246.873,286.641 246.740,286.443 246.223 C 286.332 245.931,286.634 245.806,287.278 245.876 C 287.961 245.951,288.187 245.846,287.976 245.552 C 287.636 245.080,289.637 242.892,290.040 243.295 C 290.170 243.425,290.149 243.200,289.993 242.795 C 289.798 242.287,289.851 242.146,290.164 242.339 C 290.459 242.522,290.535 242.409,290.383 242.012 C 290.255 241.679,290.301 241.406,290.486 241.406 C 290.670 241.406,290.820 240.440,290.820 239.259 C 290.820 238.078,290.694 237.111,290.540 237.111 C 290.385 237.110,290.371 236.817,290.508 236.459 C 290.655 236.078,290.599 235.908,290.372 236.047 C 290.160 236.178,289.681 235.768,289.307 235.135 C 288.934 234.502,288.374 233.984,288.064 233.984 C 287.396 233.984,287.334 233.526,287.921 232.938 C 288.222 232.637,287.994 232.558,287.120 232.660 C 286.353 232.749,285.990 232.652,286.146 232.401 C 286.305 232.144,286.031 232.091,285.384 232.253 C 284.754 232.412,284.375 232.344,284.375 232.074 C 284.375 231.835,284.199 231.641,283.984 231.641 C 283.770 231.641,283.594 231.820,283.594 232.039 M228.113 234.473 C 228.133 234.954,227.919 234.819,226.924 233.723 L 225.977 232.680 227.039 233.430 C 227.623 233.842,228.106 234.312,228.113 234.473 M201.909 237.674 C 201.813 237.770,200.949 237.883,199.988 237.926 C 198.165 238.006,196.308 238.852,196.670 239.437 C 196.785 239.624,196.686 239.842,196.449 239.921 C 196.153 240.019,196.024 242.397,196.039 247.474 C 196.051 251.549,196.068 272.584,196.077 294.218 L 196.094 333.553 197.012 334.544 C 197.516 335.089,198.044 335.420,198.183 335.280 C 198.323 335.140,198.438 335.187,198.438 335.384 C 198.438 335.581,199.053 335.742,199.805 335.742 C 200.557 335.742,201.172 335.600,201.172 335.426 C 201.172 335.252,201.324 335.204,201.510 335.319 C 201.696 335.434,202.139 335.207,202.495 334.815 C 203.440 333.770,203.486 239.718,202.541 238.675 C 202.217 238.316,202.069 237.905,202.213 237.761 C 202.356 237.618,202.386 237.500,202.279 237.500 C 202.171 237.500,202.005 237.578,201.909 237.674 M136.597 260.082 C 135.579 261.115,134.883 262.110,135.049 262.293 C 135.215 262.476,135.159 262.515,134.923 262.381 C 134.383 262.074,132.305 264.195,132.709 264.640 C 132.874 264.821,132.770 264.831,132.479 264.663 C 132.017 264.396,137.556 258.203,138.257 258.203 C 138.362 258.203,137.615 259.048,136.597 260.082 M138.281 269.247 C 138.281 269.305,136.745 270.843,134.868 272.665 C 132.991 274.486,132.148 275.229,132.994 274.316 C 133.841 273.403,134.366 272.649,134.161 272.641 C 133.957 272.632,134.278 272.360,134.875 272.036 C 135.493 271.701,135.846 271.261,135.693 271.015 C 135.546 270.776,135.602 270.691,135.820 270.826 C 136.037 270.960,136.622 270.636,137.121 270.105 C 137.956 269.216,138.281 268.975,138.281 269.247 M235.629 286.561 C 235.352 286.863,234.799 287.109,234.400 287.109 C 234.001 287.109,233.146 287.712,232.499 288.448 C 231.853 289.185,231.263 289.727,231.189 289.653 C 231.115 289.580,231.059 290.867,231.063 292.514 C 231.072 295.463,231.443 297.384,231.962 297.165 C 232.107 297.103,232.842 297.660,233.594 298.403 C 234.346 299.146,234.714 299.606,234.412 299.426 C 234.029 299.197,233.953 299.242,234.159 299.576 C 234.321 299.838,234.694 299.961,234.988 299.848 C 235.282 299.736,235.613 299.791,235.724 299.970 C 236.287 300.881,240.734 300.565,242.073 299.519 C 242.332 299.317,242.715 299.257,242.925 299.387 C 243.134 299.516,243.408 299.456,243.534 299.252 C 243.660 299.049,243.557 298.755,243.305 298.599 C 243.000 298.411,242.953 298.487,243.164 298.828 C 243.375 299.169,243.328 299.245,243.023 299.057 C 242.336 298.632,242.871 298.073,243.793 298.250 C 244.427 298.373,244.508 298.295,244.171 297.888 C 243.850 297.501,243.893 297.243,244.340 296.872 C 244.707 296.567,244.844 296.073,244.694 295.599 C 244.558 295.173,244.604 294.921,244.795 295.039 C 246.161 295.883,244.671 289.331,243.271 288.338 C 242.838 288.031,242.622 287.558,242.756 287.209 C 242.947 286.711,242.885 286.693,242.392 287.102 C 241.952 287.467,241.797 287.475,241.797 287.134 C 241.797 286.880,241.621 286.781,241.406 286.914 C 241.191 287.047,241.016 286.975,241.016 286.754 C 241.016 286.533,240.723 286.465,240.366 286.602 C 239.966 286.755,239.812 286.695,239.966 286.446 C 240.366 285.799,236.228 285.909,235.629 286.561 M278.906 286.060 C 278.906 286.127,279.478 286.698,280.176 287.329 L 281.445 288.477 280.298 287.207 C 279.229 286.024,278.906 285.758,278.906 286.060 " stroke="none" fill="#2c2c2b" fill-rule="evenodd"></path><path id="path1" d="M197.383 65.999 C 195.194 67.334,195.243 66.215,195.238 114.638 C 195.232 163.955,195.093 161.273,197.730 162.881 C 200.249 164.416,203.066 163.204,203.893 160.229 C 204.446 158.236,204.444 70.272,203.890 68.279 C 203.122 65.513,199.983 64.414,197.383 65.999 M202.576 66.838 C 203.298 67.635,203.323 69.058,203.423 114.129 L 203.525 160.598 202.379 161.744 C 200.798 163.325,198.813 163.327,197.236 161.749 L 196.094 160.607 196.094 114.270 L 196.094 67.933 197.053 66.974 C 198.347 65.680,201.459 65.603,202.576 66.838 M155.273 97.099 C 152.332 98.628,150.637 101.567,150.837 104.787 C 150.907 105.914,150.826 107.054,150.657 107.320 C 150.457 107.635,150.530 107.734,150.867 107.605 C 151.162 107.492,151.684 107.912,152.079 108.581 C 152.980 110.107,155.531 111.568,158.094 112.025 C 159.216 112.225,160.053 112.258,159.953 112.097 C 159.854 111.936,160.342 111.691,161.039 111.552 C 163.549 111.052,165.531 108.602,166.221 105.143 C 167.371 99.387,160.533 94.363,155.273 97.099 M162.146 97.781 C 167.707 100.709,166.637 109.641,160.535 111.222 C 155.843 112.438,151.430 109.081,151.434 104.299 C 151.440 98.524,157.060 95.104,162.146 97.781 M104.764 106.832 C 103.368 108.006,103.012 109.521,103.729 111.237 C 104.023 111.940,104.261 112.611,104.259 112.729 C 104.257 112.846,104.836 113.418,105.546 113.998 C 106.255 114.578,120.371 128.626,136.914 145.217 C 165.984 174.369,168.328 176.562,170.417 176.562 C 172.663 176.562,174.623 173.428,173.794 171.158 C 173.453 170.224,113.018 109.571,109.810 106.943 C 108.113 105.553,106.330 105.514,104.764 106.832 M141.306 138.772 C 172.673 170.139,173.438 170.939,173.438 172.396 C 173.438 175.041,171.255 176.650,168.873 175.762 C 167.629 175.298,105.338 113.283,104.466 111.640 C 103.049 108.970,104.411 106.641,107.390 106.641 L 109.174 106.641 141.306 138.772 M244.727 113.990 C 240.339 115.215,237.007 120.375,238.574 123.516 C 238.869 124.106,239.136 124.938,239.168 125.364 C 239.200 125.790,239.294 126.071,239.376 125.988 C 239.459 125.905,240.037 126.419,240.660 127.129 C 242.615 129.356,245.836 130.248,248.460 129.289 C 249.992 128.729,254.109 125.781,253.360 125.781 C 253.273 125.781,253.456 124.946,253.767 123.926 C 255.479 118.313,250.165 112.472,244.727 113.990 M250.543 115.761 C 256.233 120.101,253.358 128.906,246.251 128.906 C 238.653 128.906,236.238 118.672,242.997 115.116 C 245.044 114.038,248.694 114.350,250.543 115.761 M247.086 153.150 C 247.210 153.351,247.006 153.516,246.633 153.516 C 246.259 153.516,243.206 156.244,239.847 159.579 C 236.489 162.914,233.592 165.506,233.410 165.341 C 233.227 165.175,233.188 165.232,233.322 165.468 C 233.457 165.705,231.939 167.494,229.950 169.445 C 226.533 172.796,226.326 173.092,226.223 174.778 C 226.066 177.325,227.632 178.906,230.310 178.906 L 232.165 178.906 241.818 169.238 C 249.073 161.971,251.536 159.265,251.734 158.341 C 252.064 156.802,251.167 154.531,249.979 153.895 C 248.679 153.199,246.820 152.721,247.086 153.150 M249.227 154.106 C 250.652 154.843,251.172 155.791,251.172 157.656 C 251.172 159.727,233.278 177.912,230.834 178.325 C 228.255 178.760,226.264 176.908,226.717 174.496 C 227.108 172.411,245.936 153.839,247.969 153.533 C 248.033 153.524,248.599 153.781,249.227 154.106 M108.808 159.863 C 108.993 160.350,108.875 160.547,108.396 160.547 C 104.800 160.547,101.384 166.415,102.684 170.356 C 102.925 171.084,103.166 171.852,103.221 172.062 C 103.377 172.663,106.095 175.000,106.638 175.000 C 107.015 175.000,107.022 175.127,106.669 175.551 C 106.349 175.938,106.337 176.180,106.631 176.361 C 106.862 176.504,107.002 176.395,106.943 176.119 C 106.862 175.741,107.476 175.646,109.423 175.732 C 115.865 176.019,119.846 170.045,116.966 164.413 C 115.853 162.237,112.530 160.167,110.137 160.158 C 109.804 160.157,109.310 159.937,109.039 159.668 C 108.645 159.276,108.599 159.315,108.808 159.863 M113.966 161.952 C 119.138 164.983,117.727 174.131,111.920 175.220 C 105.161 176.488,100.384 169.167,104.343 163.607 C 106.292 160.870,110.799 160.095,113.966 161.952 M193.944 178.522 C 175.694 184.311,171.996 208.937,187.891 218.836 C 193.487 222.321,198.965 223.352,204.883 222.033 C 206.387 221.698,207.881 221.394,208.203 221.357 C 208.525 221.319,208.877 221.187,208.984 221.061 C 209.092 220.936,210.296 220.243,211.659 219.521 C 218.133 216.097,223.015 207.706,223.131 199.805 C 223.332 186.103,207.178 174.324,193.944 178.522 M205.289 178.719 C 221.839 182.945,227.886 203.752,216.014 215.624 C 205.597 226.042,187.108 223.181,180.572 210.140 C 172.330 193.697,187.655 174.217,205.289 178.719 M145.540 195.387 C 145.754 196.004,143.407 196.049,109.840 196.065 C 88.082 196.075,73.526 196.228,72.934 196.453 C 72.396 196.658,71.869 196.739,71.765 196.634 C 71.499 196.369,69.922 199.705,69.922 200.533 C 69.922 201.727,71.072 203.484,72.253 204.095 C 74.239 205.122,159.486 204.974,161.182 203.940 C 162.298 203.259,164.128 199.609,163.353 199.609 C 163.204 199.609,162.855 199.099,162.579 198.474 C 161.654 196.384,159.993 195.964,152.748 195.987 C 147.231 196.005,146.241 195.917,145.812 195.367 C 145.350 194.777,145.329 194.779,145.540 195.387 M260.202 195.413 C 260.160 196.048,259.429 196.097,250.264 196.080 C 237.947 196.056,236.597 196.443,236.382 200.061 C 236.290 201.611,236.446 202.073,237.441 203.186 L 238.608 204.492 281.511 204.596 C 313.176 204.672,324.699 204.582,325.502 204.250 C 327.902 203.258,328.913 200.126,327.488 198.093 C 326.079 196.081,326.634 196.113,292.438 196.073 C 263.003 196.038,260.580 195.985,260.420 195.381 C 260.265 194.796,260.242 194.799,260.202 195.413 M161.541 197.834 C 162.874 199.166,162.874 201.615,161.541 202.947 L 160.582 203.906 116.637 203.906 L 72.692 203.906 71.697 202.912 C 70.334 201.548,70.317 199.179,71.662 197.834 L 72.621 196.875 116.602 196.875 L 160.582 196.875 161.541 197.834 M326.434 197.810 C 327.303 198.558,327.521 199.075,327.521 200.391 C 327.521 201.706,327.303 202.224,326.434 202.971 L 325.347 203.906 282.078 203.906 L 238.808 203.906 237.943 202.986 C 236.541 201.493,236.444 199.606,237.691 198.123 L 238.741 196.875 282.044 196.875 L 325.347 196.875 326.434 197.810 M178.650 210.368 C 178.330 211.203,178.817 211.582,179.401 210.952 C 179.788 210.534,179.774 210.494,179.328 210.749 C 178.916 210.984,178.838 210.898,179.023 210.416 C 179.160 210.058,179.184 209.766,179.077 209.766 C 178.970 209.766,178.778 210.037,178.650 210.368 M225.733 224.704 C 223.689 225.460,222.600 227.665,223.254 229.726 C 223.463 230.384,260.192 267.818,264.537 271.802 C 264.906 272.140,270.068 277.198,276.009 283.043 C 283.578 290.490,287.142 293.737,287.918 293.892 C 291.439 294.596,293.790 290.883,291.811 287.741 C 291.389 287.072,283.587 279.097,274.473 270.020 C 265.359 260.942,257.957 253.516,258.024 253.516 C 258.091 253.516,257.121 252.539,255.869 251.345 C 254.617 250.151,248.080 243.673,241.342 236.949 C 228.512 224.148,228.103 223.827,225.733 224.704 M259.835 256.129 C 276.961 273.250,291.272 287.814,291.637 288.492 C 292.938 290.908,291.396 293.359,288.575 293.359 L 286.916 293.359 255.372 261.802 L 223.828 230.245 223.828 228.432 C 223.828 226.223,225.063 225.000,227.292 225.000 C 228.634 225.000,230.119 226.421,259.835 256.129 M169.524 226.727 C 168.776 227.247,162.773 233.121,156.184 239.779 C 149.594 246.438,144.073 251.769,143.914 251.626 C 143.755 251.484,143.707 251.543,143.807 251.758 C 144.032 252.240,138.021 258.191,137.645 257.858 C 137.496 257.725,137.484 257.808,137.617 258.042 C 137.924 258.582,135.025 261.447,134.581 261.043 C 134.399 260.878,134.360 260.935,134.494 261.171 C 134.801 261.710,132.680 263.789,132.235 263.384 C 132.054 263.220,132.013 263.274,132.144 263.504 C 132.275 263.734,130.702 265.580,128.650 267.606 C 123.479 272.709,122.753 274.869,125.449 277.138 C 127.698 279.030,129.282 278.409,133.760 273.876 C 135.463 272.153,137.006 270.834,137.188 270.947 C 137.370 271.060,137.471 270.980,137.412 270.770 C 137.353 270.560,145.752 261.890,156.076 251.503 C 175.709 231.750,176.334 231.015,175.422 228.760 C 175.150 228.089,174.915 227.329,174.899 227.072 C 174.883 226.816,174.767 226.625,174.642 226.647 C 174.517 226.670,173.919 226.484,173.314 226.235 C 171.724 225.579,171.050 225.666,169.524 226.727 M173.971 227.372 C 174.817 228.038,175.000 228.502,175.000 229.987 L 175.000 231.792 156.935 249.978 C 130.146 276.947,130.146 276.946,129.070 277.356 C 126.840 278.204,124.609 276.547,124.609 274.042 C 124.609 272.171,127.047 269.551,151.244 245.410 C 172.077 224.626,171.282 225.257,173.971 227.372 M282.813 231.439 C 277.543 232.835,274.698 237.238,276.208 241.659 C 276.491 242.487,276.682 243.309,276.633 243.486 C 276.584 243.663,276.723 243.697,276.943 243.561 C 277.164 243.425,277.366 243.499,277.393 243.727 C 277.419 243.954,277.463 244.360,277.490 244.629 C 277.517 244.897,277.715 245.122,277.930 245.127 C 278.145 245.133,278.760 245.429,279.297 245.785 C 285.378 249.820,293.325 244.158,291.372 237.183 C 290.785 235.084,288.152 232.203,286.449 231.795 C 285.846 231.651,285.176 231.407,284.961 231.253 C 284.746 231.099,283.779 231.183,282.813 231.439 M287.109 232.638 C 293.919 236.092,290.662 248.166,283.325 246.669 C 282.828 246.567,281.986 246.394,281.452 246.283 C 280.919 246.173,279.856 245.532,279.089 244.858 C 272.687 239.237,279.539 228.798,287.109 232.638 M197.404 237.862 C 195.320 239.132,195.312 239.233,195.285 265.829 C 195.260 289.913,195.199 292.014,194.544 291.609 C 194.367 291.500,194.129 291.654,194.015 291.950 C 193.878 292.309,194.028 292.432,194.466 292.318 C 195.075 292.158,195.132 293.614,195.236 311.991 C 195.297 322.906,195.515 332.467,195.719 333.239 C 196.863 337.559,203.017 337.488,204.047 333.143 C 204.725 330.286,204.342 240.672,203.647 239.367 C 203.271 238.663,202.998 237.960,203.040 237.807 C 203.082 237.654,202.872 237.622,202.574 237.736 C 202.276 237.850,201.916 237.756,201.774 237.527 C 201.356 236.850,198.732 237.052,197.404 237.862 M202.706 238.920 C 203.515 239.948,203.516 239.992,203.516 286.932 L 203.516 333.915 202.314 334.926 C 200.632 336.341,198.732 336.292,197.236 334.796 L 196.094 333.654 196.084 294.268 C 196.079 272.606,196.065 252.158,196.053 248.828 C 196.021 239.574,195.987 239.915,197.053 238.849 C 198.471 237.431,201.565 237.470,202.706 238.920 M236.523 285.523 C 233.679 286.213,231.817 287.794,230.881 290.316 C 230.618 291.023,230.248 291.898,230.057 292.261 C 229.013 294.251,232.659 299.948,235.418 300.635 C 236.026 300.787,236.756 301.189,237.041 301.530 C 237.325 301.870,237.447 301.929,237.311 301.660 C 237.138 301.319,237.452 301.169,238.356 301.163 C 240.313 301.150,243.123 299.684,244.456 297.980 C 248.684 292.574,243.167 283.911,236.523 285.523 M241.324 286.677 C 244.913 288.509,246.320 292.862,244.568 296.718 C 242.173 301.993,233.741 301.663,231.399 296.204 C 228.715 289.950,235.319 283.612,241.324 286.677 " stroke="none" fill="#060605" fill-rule="evenodd"></path><path id="path2" d="M203.224 74.414 C 203.228 75.273,203.308 75.579,203.401 75.093 C 203.495 74.607,203.491 73.904,203.393 73.531 C 203.296 73.157,203.219 73.555,203.224 74.414 M203.286 84.766 C 203.286 88.525,203.344 90.063,203.416 88.184 C 203.487 86.304,203.487 83.228,203.416 81.348 C 203.344 79.468,203.286 81.006,203.286 84.766 M203.264 96.680 C 203.262 98.613,203.329 99.454,203.410 98.547 C 203.492 97.640,203.493 96.058,203.413 95.031 C 203.332 94.004,203.265 94.746,203.264 96.680 M162.457 98.357 C 162.971 98.771,163.733 99.529,164.151 100.043 C 164.569 100.556,164.782 100.713,164.623 100.391 C 164.152 99.435,163.149 98.391,162.309 97.984 C 161.712 97.695,161.748 97.785,162.457 98.357 M203.242 108.203 C 203.242 109.385,203.315 109.868,203.405 109.277 C 203.494 108.687,203.494 107.720,203.405 107.129 C 203.315 106.538,203.242 107.021,203.242 108.203 M106.738 106.910 C 107.114 107.008,107.729 107.008,108.105 106.910 C 108.481 106.812,108.174 106.731,107.422 106.731 C 106.670 106.731,106.362 106.812,106.738 106.910 M161.914 110.183 C 161.270 110.596,160.942 110.934,161.187 110.935 C 161.432 110.937,162.047 110.592,162.554 110.169 C 163.716 109.202,163.436 109.208,161.914 110.183 M203.253 113.086 C 203.255 114.590,203.326 115.157,203.410 114.347 C 203.495 113.536,203.493 112.306,203.407 111.612 C 203.321 110.919,203.251 111.582,203.253 113.086 M157.520 111.207 C 157.896 111.305,158.511 111.305,158.887 111.207 C 159.263 111.109,158.955 111.028,158.203 111.028 C 157.451 111.028,157.144 111.109,157.520 111.207 M126.172 124.414 C 126.901 125.166,127.585 125.781,127.692 125.781 C 127.800 125.781,127.291 125.166,126.563 124.414 C 125.834 123.662,125.149 123.047,125.042 123.047 C 124.935 123.047,125.443 123.662,126.172 124.414 M251.561 126.270 C 250.986 127.055,250.892 127.328,251.314 126.985 C 251.954 126.465,252.923 125.000,252.626 125.000 C 252.552 125.000,252.072 125.571,251.561 126.270 M203.278 132.813 C 203.278 135.713,203.340 136.899,203.415 135.449 C 203.490 133.999,203.490 131.626,203.415 130.176 C 203.340 128.726,203.278 129.912,203.278 132.813 M136.133 134.375 C 136.972 135.234,137.746 135.938,137.854 135.938 C 137.961 135.938,137.363 135.234,136.523 134.375 C 135.684 133.516,134.910 132.813,134.802 132.813 C 134.695 132.813,135.294 133.516,136.133 134.375 M203.291 151.563 C 203.291 156.182,203.347 158.071,203.416 155.762 C 203.486 153.452,203.486 149.673,203.416 147.363 C 203.347 145.054,203.291 146.943,203.291 151.563 M109.277 161.213 C 109.761 161.306,110.552 161.306,111.035 161.213 C 111.519 161.120,111.123 161.044,110.156 161.044 C 109.189 161.044,108.794 161.120,109.277 161.213 M112.305 161.719 C 112.437 161.934,112.786 162.109,113.079 162.109 C 113.372 162.109,114.197 162.587,114.911 163.170 C 115.990 164.050,116.078 164.076,115.431 163.325 C 114.353 162.075,111.674 160.699,112.305 161.719 M103.516 170.946 C 103.516 171.151,104.056 171.927,104.716 172.671 L 105.916 174.023 104.829 172.461 C 104.232 171.602,103.691 170.825,103.629 170.736 C 103.567 170.646,103.516 170.741,103.516 170.946 M78.813 197.151 C 79.299 197.245,80.002 197.241,80.376 197.143 C 80.749 197.046,80.352 196.969,79.492 196.974 C 78.633 196.978,78.327 197.058,78.813 197.151 M85.079 197.167 C 87.293 197.236,90.809 197.236,92.892 197.166 C 94.975 197.096,93.164 197.039,88.867 197.039 C 84.570 197.039,82.866 197.097,85.079 197.167 M100.488 197.166 C 102.583 197.236,106.011 197.236,108.105 197.166 C 110.200 197.096,108.486 197.039,104.297 197.039 C 100.107 197.039,98.394 197.096,100.488 197.166 M114.756 197.162 C 115.675 197.244,117.081 197.243,117.881 197.159 C 118.681 197.075,117.930 197.007,116.211 197.009 C 114.492 197.010,113.838 197.079,114.756 197.162 M124.684 197.167 C 127.411 197.234,131.981 197.234,134.840 197.167 C 137.700 197.100,135.469 197.045,129.883 197.045 C 124.297 197.045,121.957 197.100,124.684 197.167 M141.313 197.151 C 141.799 197.245,142.502 197.241,142.876 197.143 C 143.249 197.046,142.852 196.969,141.992 196.974 C 141.133 196.978,140.827 197.058,141.313 197.151 M147.579 197.167 C 149.793 197.236,153.309 197.236,155.392 197.166 C 157.475 197.096,155.664 197.039,151.367 197.039 C 147.070 197.039,145.366 197.097,147.579 197.167 M246.387 197.166 C 248.159 197.238,251.060 197.238,252.832 197.166 C 254.604 197.093,253.154 197.034,249.609 197.034 C 246.064 197.034,244.614 197.093,246.387 197.166 M257.324 197.158 C 258.022 197.244,259.165 197.244,259.863 197.158 C 260.562 197.071,259.990 197.000,258.594 197.000 C 257.197 197.000,256.626 197.071,257.324 197.158 M262.016 197.151 C 262.502 197.245,263.205 197.241,263.579 197.143 C 263.952 197.046,263.555 196.969,262.695 196.974 C 261.836 196.978,261.530 197.058,262.016 197.151 M267.301 197.165 C 268.761 197.240,271.046 197.240,272.380 197.164 C 273.713 197.088,272.520 197.026,269.727 197.027 C 266.934 197.027,265.842 197.090,267.301 197.165 M286.845 197.168 C 293.466 197.228,304.189 197.228,310.673 197.168 C 317.156 197.108,311.738 197.058,298.633 197.059 C 285.527 197.059,280.223 197.108,286.845 197.168 M221.966 201.172 C 221.966 201.924,222.046 202.231,222.144 201.855 C 222.243 201.479,222.243 200.864,222.144 200.488 C 222.046 200.112,221.966 200.420,221.966 201.172 M94.268 203.809 C 106.262 203.866,125.774 203.866,137.628 203.809 C 149.481 203.751,139.668 203.704,115.820 203.704 C 91.973 203.704,82.274 203.751,94.268 203.809 M261.260 203.809 C 272.717 203.866,291.350 203.866,302.667 203.809 C 313.983 203.751,304.609 203.704,281.836 203.704 C 259.063 203.704,249.803 203.751,261.260 203.809 M184.766 215.747 C 184.766 215.844,185.411 216.415,186.200 217.017 C 186.988 217.618,187.510 217.911,187.360 217.667 C 187.051 217.167,184.766 215.476,184.766 215.747 M189.844 219.336 C 190.381 219.643,190.996 219.894,191.211 219.894 C 191.426 219.894,191.162 219.643,190.625 219.336 C 190.088 219.029,189.473 218.778,189.258 218.778 C 189.043 218.778,189.307 219.029,189.844 219.336 M287.500 233.594 C 287.500 233.809,287.746 233.984,288.048 233.984 C 288.349 233.984,288.961 234.556,289.408 235.254 C 289.855 235.952,290.224 236.364,290.228 236.170 C 290.231 235.975,289.786 235.228,289.238 234.510 C 288.258 233.225,287.500 232.825,287.500 233.594 M290.731 239.063 C 290.731 240.029,290.808 240.425,290.901 239.941 C 290.994 239.458,290.994 238.667,290.901 238.184 C 290.808 237.700,290.731 238.096,290.731 239.063 M203.314 286.719 C 203.314 312.178,203.361 322.593,203.418 309.863 C 203.475 297.134,203.475 276.304,203.418 263.574 C 203.361 250.845,203.314 261.260,203.314 286.719 M289.843 242.579 C 289.571 243.238,288.908 244.122,288.371 244.544 C 287.834 244.967,287.563 245.313,287.770 245.313 C 288.538 245.313,290.958 242.000,290.514 241.556 C 290.418 241.460,290.116 241.920,289.843 242.579 M125.391 276.130 C 125.391 276.625,126.931 277.496,127.247 277.180 C 127.372 277.055,127.281 276.953,127.046 276.953 C 126.811 276.953,126.342 276.677,126.004 276.339 C 125.667 276.002,125.391 275.908,125.391 276.130 M245.013 293.359 C 245.013 294.111,245.093 294.419,245.191 294.043 C 245.289 293.667,245.289 293.052,245.191 292.676 C 245.093 292.300,245.013 292.607,245.013 293.359 M232.031 297.123 C 232.031 297.561,233.456 298.939,234.375 299.390 C 234.697 299.548,234.533 299.329,234.009 298.903 C 233.486 298.477,232.826 297.813,232.544 297.427 C 232.262 297.041,232.031 296.904,232.031 297.123 " stroke="none" fill="#3c3b3a" fill-rule="evenodd"></path><path id="path3" d="M203.224 101.367 C 203.228 102.227,203.308 102.532,203.401 102.046 C 203.495 101.560,203.491 100.857,203.393 100.484 C 203.296 100.110,203.219 100.508,203.224 101.367 M203.231 104.688 C 203.231 105.654,203.308 106.050,203.401 105.566 C 203.494 105.083,203.494 104.292,203.401 103.809 C 203.308 103.325,203.231 103.721,203.231 104.688 M203.231 117.188 C 203.231 118.154,203.308 118.550,203.401 118.066 C 203.494 117.583,203.494 116.792,203.401 116.309 C 203.308 115.825,203.231 116.221,203.231 117.188 " stroke="none" fill="#434441" fill-rule="evenodd"></path><path id="path4" d="M199.316 65.113 C 199.692 65.211,200.308 65.211,200.684 65.113 C 201.060 65.015,200.752 64.934,200.000 64.934 C 199.248 64.934,198.940 65.015,199.316 65.113 M201.595 65.332 C 201.685 65.386,202.280 65.869,202.918 66.406 C 203.782 67.133,203.931 67.183,203.504 66.602 C 202.826 65.679,202.284 65.249,201.790 65.240 C 201.593 65.237,201.506 65.278,201.595 65.332 M195.020 95.508 C 195.025 96.367,195.105 96.673,195.198 96.187 C 195.292 95.701,195.288 94.998,195.190 94.624 C 195.092 94.251,195.016 94.648,195.020 95.508 M153.324 97.595 C 153.433 97.704,153.126 98.246,152.642 98.799 C 151.926 99.616,151.999 99.589,153.029 98.657 C 154.502 97.324,154.464 97.396,153.711 97.396 C 153.389 97.396,153.214 97.485,153.324 97.595 M195.013 101.953 C 195.013 102.705,195.093 103.013,195.191 102.637 C 195.289 102.261,195.289 101.646,195.191 101.270 C 195.093 100.894,195.013 101.201,195.013 101.953 M150.456 103.972 C 150.420 104.760,150.289 105.727,150.166 106.120 C 149.954 106.794,149.967 106.796,150.384 106.146 C 150.628 105.766,150.759 104.799,150.675 103.997 L 150.522 102.539 150.456 103.972 M166.505 104.492 C 166.509 105.352,166.589 105.657,166.683 105.171 C 166.776 104.685,166.772 103.982,166.675 103.609 C 166.577 103.235,166.500 103.633,166.505 104.492 M195.050 106.836 C 195.052 108.340,195.122 108.907,195.207 108.097 C 195.292 107.286,195.290 106.056,195.204 105.362 C 195.118 104.669,195.048 105.332,195.050 106.836 M106.548 105.745 C 107.033 105.838,107.737 105.835,108.110 105.737 C 108.483 105.639,108.086 105.563,107.227 105.567 C 106.367 105.572,106.062 105.652,106.548 105.745 M110.156 106.646 C 110.156 106.754,114.941 111.586,120.790 117.386 C 126.638 123.185,130.942 127.390,130.354 126.731 C 129.767 126.071,129.376 125.412,129.487 125.266 C 129.597 125.120,129.564 125.095,129.412 125.210 C 129.261 125.326,124.866 121.152,119.647 115.936 C 114.427 110.719,110.156 106.539,110.156 106.646 M195.020 111.133 C 195.025 111.992,195.105 112.298,195.198 111.812 C 195.292 111.326,195.288 110.623,195.190 110.249 C 195.092 109.876,195.016 110.273,195.020 111.133 M195.020 114.258 C 195.025 115.117,195.105 115.423,195.198 114.937 C 195.292 114.451,195.288 113.748,195.190 113.374 C 195.092 113.001,195.016 113.398,195.020 114.258 M106.758 115.461 C 107.124 115.909,107.291 116.420,107.130 116.598 C 106.968 116.776,107.027 116.814,107.260 116.681 C 107.492 116.549,108.452 117.224,109.392 118.181 C 110.331 119.138,110.858 119.922,110.563 119.922 C 109.863 119.922,110.289 120.344,111.111 120.464 C 111.996 120.594,116.812 125.440,116.522 125.909 C 116.392 126.120,116.459 126.185,116.672 126.054 C 117.116 125.779,120.435 129.011,120.126 129.418 C 120.014 129.566,120.046 129.593,120.197 129.477 C 120.604 129.167,141.403 150.080,141.129 150.524 C 141.000 150.732,141.078 150.789,141.302 150.651 C 141.749 150.374,142.687 151.284,142.379 151.696 C 142.274 151.837,142.311 151.859,142.462 151.743 C 142.869 151.433,157.028 165.705,156.754 166.148 C 156.625 166.356,156.703 166.414,156.927 166.276 C 157.433 165.963,158.303 166.946,157.907 167.384 C 157.747 167.560,157.814 167.591,158.054 167.454 C 158.295 167.317,159.463 168.212,160.651 169.442 C 163.758 172.661,167.188 175.980,167.188 175.767 C 167.188 175.666,153.441 161.874,136.640 145.116 C 119.839 128.359,106.392 115.014,106.758 115.461 M240.405 116.113 L 239.258 117.383 240.527 116.236 C 241.226 115.604,241.797 115.033,241.797 114.966 C 241.797 114.664,241.475 114.930,240.405 116.113 M195.056 125.195 C 195.057 126.914,195.126 127.569,195.208 126.650 C 195.291 125.731,195.290 124.325,195.206 123.525 C 195.122 122.725,195.054 123.477,195.056 125.195 M241.254 128.195 C 241.540 128.658,243.745 129.759,244.095 129.614 C 244.256 129.547,243.637 129.127,242.720 128.680 C 241.803 128.233,241.143 128.015,241.254 128.195 M152.538 149.122 C 171.309 167.981,175.056 171.676,173.489 169.788 C 173.249 169.500,173.184 169.120,173.343 168.944 C 173.503 168.769,173.437 168.737,173.197 168.873 C 172.720 169.146,171.362 167.871,171.679 167.449 C 171.787 167.305,171.752 167.282,171.601 167.397 C 171.194 167.707,160.549 156.953,160.824 156.509 C 160.953 156.300,160.883 156.238,160.669 156.370 C 160.162 156.683,157.706 154.152,158.099 153.720 C 158.264 153.539,158.210 153.498,157.979 153.629 C 157.505 153.898,151.035 147.568,151.355 147.148 C 151.469 146.998,151.439 146.970,151.287 147.085 C 151.136 147.201,146.609 142.938,141.229 137.613 C 135.848 132.288,140.937 137.467,152.538 149.122 M195.013 139.063 C 195.013 139.814,195.093 140.122,195.191 139.746 C 195.289 139.370,195.289 138.755,195.191 138.379 C 195.093 138.003,195.013 138.311,195.013 139.063 M195.013 145.703 C 195.013 146.455,195.093 146.763,195.191 146.387 C 195.289 146.011,195.289 145.396,195.191 145.020 C 195.093 144.644,195.013 144.951,195.013 145.703 M249.272 153.244 C 249.350 153.286,249.940 153.760,250.583 154.297 C 251.446 155.017,251.574 155.060,251.071 154.460 C 250.696 154.013,250.470 153.567,250.568 153.468 C 250.667 153.369,250.384 153.261,249.939 153.228 C 249.494 153.194,249.194 153.201,249.272 153.244 M241.314 157.715 C 239.012 160.024,236.998 162.090,236.839 162.305 C 236.680 162.520,238.609 160.677,241.126 158.209 C 243.644 155.742,245.703 153.677,245.703 153.620 C 245.703 153.346,245.217 153.799,241.314 157.715 M241.598 169.603 C 236.659 174.583,232.897 178.452,233.239 178.200 C 233.581 177.948,234.005 177.871,234.181 178.031 C 234.356 178.190,234.394 178.132,234.263 177.903 C 233.956 177.362,243.095 168.235,243.539 168.639 C 243.724 168.807,243.766 168.754,243.633 168.521 C 243.326 167.981,246.225 165.115,246.669 165.519 C 246.851 165.685,246.891 165.629,246.758 165.396 C 246.533 164.999,249.260 161.968,249.634 162.199 C 249.728 162.257,249.760 162.231,249.706 162.141 C 249.652 162.051,249.899 161.656,250.255 161.262 C 250.611 160.869,250.830 160.547,250.741 160.547 C 250.652 160.547,246.538 164.622,241.598 169.603 M101.934 168.252 C 101.827 169.159,101.888 169.753,102.070 169.571 C 102.252 169.389,102.340 168.646,102.265 167.921 C 102.132 166.634,102.124 166.642,101.934 168.252 M115.405 173.926 L 114.258 175.195 115.527 174.048 C 116.711 172.979,116.976 172.656,116.675 172.656 C 116.607 172.656,116.036 173.228,115.405 173.926 M225.880 175.195 C 225.884 176.055,225.964 176.360,226.058 175.874 C 226.151 175.388,226.147 174.685,226.050 174.312 C 225.952 173.938,225.875 174.336,225.880 175.195 M167.760 176.584 C 167.637 176.784,167.836 176.830,168.208 176.687 C 168.596 176.538,168.780 176.588,168.646 176.805 C 168.508 177.028,168.966 177.116,169.774 177.022 C 171.405 176.831,171.353 176.743,169.441 176.448 C 168.639 176.325,167.883 176.386,167.760 176.584 M196.973 177.613 C 197.349 177.711,197.964 177.711,198.340 177.613 C 198.716 177.515,198.408 177.434,197.656 177.434 C 196.904 177.434,196.597 177.515,196.973 177.613 M215.999 184.082 C 217.618 185.807,217.969 186.117,217.969 185.824 C 217.969 185.761,217.134 184.926,216.113 183.968 L 214.258 182.227 215.999 184.082 M177.442 198.242 C 177.447 199.102,177.527 199.407,177.620 198.921 C 177.713 198.435,177.710 197.732,177.612 197.359 C 177.514 196.985,177.438 197.383,177.442 198.242 M328.125 200.416 C 328.125 201.075,327.940 201.998,327.713 202.467 C 327.315 203.291,327.321 203.295,327.908 202.562 C 328.460 201.873,328.787 199.219,328.320 199.219 C 328.213 199.219,328.125 199.758,328.125 200.416 M177.434 202.734 C 177.434 203.486,177.515 203.794,177.613 203.418 C 177.711 203.042,177.711 202.427,177.613 202.051 C 177.515 201.675,177.434 201.982,177.434 202.734 M70.804 203.352 C 71.179 203.799,71.405 204.246,71.307 204.344 C 71.208 204.443,71.491 204.551,71.936 204.585 C 72.381 204.618,72.681 204.611,72.603 204.569 C 72.525 204.527,71.935 204.053,71.292 203.516 C 70.429 202.795,70.301 202.752,70.804 203.352 M95.215 204.980 C 107.085 205.038,126.509 205.038,138.379 204.980 C 150.249 204.923,140.537 204.876,116.797 204.876 C 93.057 204.876,83.345 204.923,95.215 204.980 M261.621 204.980 C 273.276 205.038,292.349 205.038,304.004 204.980 C 315.659 204.923,306.123 204.876,282.813 204.876 C 259.502 204.876,249.966 204.923,261.621 204.980 M263.184 205.744 C 263.667 205.838,264.458 205.838,264.941 205.744 C 265.425 205.651,265.029 205.575,264.063 205.575 C 263.096 205.575,262.700 205.651,263.184 205.744 M178.383 209.939 C 178.231 210.335,178.199 210.751,178.311 210.863 C 178.424 210.976,178.521 210.819,178.528 210.514 C 178.536 210.121,178.656 210.161,178.942 210.653 C 179.164 211.033,179.540 211.224,179.778 211.077 C 180.061 210.902,180.122 211.042,179.954 211.480 C 179.801 211.878,179.853 212.053,180.083 211.911 C 180.295 211.780,180.469 211.888,180.469 212.151 C 180.469 212.415,180.571 212.528,180.696 212.403 C 181.086 212.013,180.064 210.510,179.602 210.795 C 179.314 210.973,179.252 210.836,179.421 210.395 C 179.563 210.027,179.520 209.823,179.326 209.943 C 179.132 210.063,178.902 209.949,178.816 209.690 C 178.721 209.406,178.549 209.505,178.383 209.939 M181.738 214.321 C 181.470 214.430,181.250 214.715,181.250 214.954 C 181.250 215.260,181.388 215.252,181.713 214.927 C 182.071 214.570,182.361 214.619,182.983 215.142 C 183.787 215.819,183.787 215.818,183.045 214.941 C 182.636 214.458,182.284 214.076,182.264 214.093 C 182.243 214.110,182.007 214.213,181.738 214.321 M185.103 217.363 C 185.583 217.996,186.255 218.555,186.594 218.605 C 186.934 218.655,187.057 218.574,186.867 218.424 C 186.678 218.275,186.007 217.716,185.376 217.182 L 184.228 216.211 185.103 217.363 M199.121 222.939 C 199.819 223.025,200.962 223.025,201.660 222.939 C 202.358 222.852,201.787 222.781,200.391 222.781 C 198.994 222.781,198.423 222.852,199.121 222.939 M239.450 234.890 C 245.142 240.622,249.886 245.313,249.993 245.313 C 250.100 245.313,247.150 242.272,243.439 238.556 C 239.727 234.840,236.829 231.648,236.997 231.462 C 237.166 231.277,237.114 231.234,236.880 231.367 C 236.340 231.674,233.475 228.775,233.879 228.331 C 234.044 228.149,233.989 228.109,233.755 228.242 C 233.201 228.557,230.360 225.650,230.754 225.171 C 230.919 224.969,230.895 224.935,230.700 225.094 C 230.505 225.254,230.065 225.178,229.723 224.925 C 229.381 224.673,233.759 229.157,239.450 234.890 M166.230 229.278 C 164.748 230.771,163.346 231.886,163.115 231.754 C 162.884 231.623,162.833 231.667,163.001 231.852 C 163.170 232.037,161.325 234.218,158.901 236.699 C 156.477 239.181,157.790 237.961,161.818 233.988 C 165.845 230.016,169.141 226.720,169.141 226.664 C 169.141 226.390,168.725 226.763,166.230 229.278 M224.929 232.542 C 225.615 233.272,225.683 233.547,225.290 233.988 C 224.885 234.443,224.907 234.456,225.427 234.067 C 225.769 233.810,226.208 233.730,226.403 233.888 C 226.598 234.046,226.242 233.605,225.611 232.908 C 224.979 232.211,224.378 231.641,224.273 231.641 C 224.168 231.641,224.464 232.046,224.929 232.542 M277.905 233.691 L 276.758 234.961 278.027 233.814 C 278.726 233.183,279.297 232.611,279.297 232.544 C 279.297 232.242,278.975 232.508,277.905 233.691 M288.281 232.544 C 288.281 232.611,288.853 233.183,289.551 233.814 L 290.820 234.961 289.673 233.691 C 288.604 232.508,288.281 232.242,288.281 232.544 M161.326 246.385 C 154.130 253.635,150.551 257.306,153.372 254.542 C 156.193 251.778,158.610 249.538,158.743 249.563 C 158.876 249.589,158.940 249.526,158.887 249.423 C 158.686 249.040,164.998 243.018,165.364 243.244 C 165.574 243.374,165.639 243.308,165.509 243.098 C 165.283 242.732,170.916 236.810,171.299 237.012 C 171.401 237.065,171.466 237.003,171.443 236.873 C 171.420 236.744,172.160 235.865,173.087 234.920 C 174.014 233.976,174.691 233.203,174.591 233.203 C 174.491 233.203,168.522 239.135,161.326 246.385 M229.613 237.230 C 230.739 238.370,231.524 239.439,231.358 239.606 C 231.191 239.772,231.318 239.850,231.641 239.779 C 231.965 239.707,232.179 239.879,232.119 240.166 C 232.060 240.450,232.161 240.591,232.344 240.478 C 232.676 240.273,238.563 245.950,238.379 246.299 C 238.325 246.401,238.413 246.492,238.574 246.500 C 239.175 246.533,241.755 249.361,241.525 249.733 C 241.393 249.946,241.462 250.012,241.677 249.879 C 242.184 249.566,244.246 251.708,243.853 252.140 C 243.689 252.321,243.745 252.361,243.977 252.229 C 244.517 251.921,248.167 255.598,247.763 256.043 C 247.597 256.226,247.654 256.265,247.889 256.131 C 248.346 255.871,250.546 257.917,250.191 258.272 C 250.076 258.388,250.249 258.705,250.576 258.977 C 250.904 259.248,251.172 259.322,251.172 259.140 C 251.172 258.958,252.482 260.110,254.082 261.700 C 255.683 263.290,256.886 264.762,256.756 264.973 C 256.626 265.183,256.692 265.249,256.902 265.119 C 257.346 264.844,263.016 270.415,262.707 270.822 C 262.593 270.971,262.616 271.007,262.757 270.902 C 262.898 270.796,263.294 270.916,263.636 271.168 C 263.978 271.420,256.085 263.420,246.095 253.391 C 236.106 243.362,227.850 235.156,227.749 235.156 C 227.648 235.156,228.487 236.089,229.613 237.230 M291.888 239.453 C 291.888 240.205,291.968 240.513,292.066 240.137 C 292.164 239.761,292.164 239.146,292.066 238.770 C 291.968 238.394,291.888 238.701,291.888 239.453 M195.071 245.508 C 195.072 248.086,195.135 249.090,195.211 247.739 C 195.288 246.387,195.287 244.278,195.210 243.051 C 195.133 241.824,195.070 242.930,195.071 245.508 M149.435 246.073 C 146.875 248.640,144.666 250.669,144.525 250.582 C 144.385 250.496,144.271 250.693,144.271 251.021 C 144.271 251.349,146.527 249.366,149.284 246.615 C 152.041 243.864,154.297 241.566,154.297 241.510 C 154.297 241.232,153.764 241.732,149.435 246.073 M204.388 243.359 C 204.388 244.111,204.468 244.419,204.566 244.043 C 204.664 243.667,204.664 243.052,204.566 242.676 C 204.468 242.300,204.388 242.607,204.388 243.359 M253.899 249.318 C 255.935 251.412,257.684 253.125,257.784 253.125 C 257.884 253.125,257.401 252.542,256.710 251.830 C 256.020 251.117,255.502 250.458,255.560 250.365 C 255.617 250.272,255.586 250.244,255.490 250.304 C 255.395 250.364,254.164 249.310,252.756 247.962 C 251.348 246.614,251.862 247.224,253.899 249.318 M195.077 257.031 C 195.077 260.146,195.138 261.421,195.212 259.863 C 195.286 258.306,195.286 255.757,195.212 254.199 C 195.138 252.642,195.077 253.916,195.077 257.031 M140.625 254.883 C 139.024 256.494,137.803 257.813,137.910 257.813 C 138.018 257.813,139.415 256.494,141.016 254.883 C 142.616 253.271,143.838 251.953,143.730 251.953 C 143.623 251.953,142.226 253.271,140.625 254.883 M258.439 253.450 C 258.329 253.629,259.153 254.639,260.271 255.696 L 262.305 257.617 260.440 255.641 C 259.414 254.554,258.696 253.543,258.845 253.395 C 258.993 253.246,259.008 253.125,258.877 253.125 C 258.747 253.125,258.549 253.271,258.439 253.450 M276.951 272.368 C 285.007 280.476,291.682 287.109,291.784 287.109 C 291.887 287.109,290.784 285.913,289.334 284.451 C 287.883 282.990,286.833 281.643,287.000 281.459 C 287.168 281.275,287.114 281.234,286.880 281.367 C 286.404 281.637,283.462 278.814,283.781 278.393 C 283.893 278.246,283.861 278.219,283.710 278.334 C 283.303 278.644,271.097 266.327,271.371 265.883 C 271.500 265.675,271.431 265.612,271.218 265.744 C 270.773 266.019,267.848 263.175,268.156 262.768 C 268.268 262.621,268.237 262.593,268.088 262.707 C 267.938 262.820,266.576 261.724,265.060 260.270 C 263.545 258.815,268.896 264.260,276.951 272.368 M135.916 259.668 L 134.570 261.133 136.035 259.787 C 137.399 258.534,137.680 258.203,137.381 258.203 C 137.316 258.203,136.657 258.862,135.916 259.668 M265.356 272.970 C 266.211 273.862,266.314 274.165,265.917 274.611 C 265.510 275.067,265.531 275.082,266.044 274.698 C 266.626 274.262,269.464 276.505,269.515 277.441 C 269.524 277.603,269.636 277.717,269.763 277.696 C 270.213 277.622,272.235 279.812,272.027 280.148 C 271.912 280.335,272.050 280.440,272.334 280.381 C 272.619 280.322,272.803 280.506,272.744 280.791 C 272.685 281.075,272.790 281.213,272.977 281.098 C 273.313 280.890,275.411 282.827,275.526 283.451 C 275.559 283.628,275.836 283.809,276.143 283.854 C 276.449 283.899,273.990 281.222,270.679 277.905 C 267.367 274.589,264.579 271.875,264.482 271.875 C 264.386 271.875,264.779 272.368,265.356 272.970 M279.809 287.425 C 280.827 288.459,281.524 289.454,281.357 289.636 C 281.191 289.819,281.291 289.832,281.580 289.665 C 282.047 289.395,278.846 285.547,278.154 285.547 C 278.047 285.547,278.792 286.392,279.809 287.425 M292.209 288.321 C 292.412 288.700,292.578 289.560,292.578 290.232 C 292.578 290.903,292.736 291.355,292.928 291.236 C 293.128 291.112,293.138 290.401,292.952 289.574 C 292.773 288.779,292.695 288.017,292.780 287.880 C 292.865 287.742,292.688 287.630,292.387 287.630 C 291.984 287.630,291.937 287.813,292.209 288.321 M231.334 297.949 C 231.661 298.325,231.878 298.857,231.814 299.131 C 231.750 299.408,231.792 299.438,231.907 299.200 C 232.037 298.932,232.502 299.109,233.148 299.673 C 233.715 300.169,233.485 299.831,232.636 298.920 C 231.143 297.320,230.124 296.561,231.334 297.949 M237.598 301.441 C 237.974 301.539,238.589 301.539,238.965 301.441 C 239.341 301.343,239.033 301.263,238.281 301.263 C 237.529 301.263,237.222 301.343,237.598 301.441 " stroke="none" fill="#4f4f50" fill-rule="evenodd"></path></g></svg>