<?xml version="1.0" standalone="no"?>
<!DOCTYPE svg PUBLIC "-//W3C//DTD SVG 20010904//EN"
 "http://www.w3.org/TR/2001/REC-SVG-20010904/DTD/svg10.dtd">
<svg version="1.0" xmlns="http://www.w3.org/2000/svg"
 width="1024.000000pt" height="1024.000000pt" viewBox="0 0 1024.000000 1024.000000"
 preserveAspectRatio="xMidYMid meet">
<metadata>
Created by potrace 1.16, written by Peter Selinger 2001-2019
</metadata>
<g transform="translate(0.000000,1024.000000) scale(0.100000,-0.100000)"
fill="#000000" stroke="none">
<path d="M6906 7818 c-17 -15 -28 -37 -31 -63 -3 -22 -10 -69 -15 -105 -17
-107 -38 -271 -45 -342 -7 -66 -6 -68 23 -98 70 -70 167 -9 164 104 0 16 2 34
5 40 4 5 8 37 10 70 2 33 6 62 11 65 4 3 8 35 10 71 1 36 7 81 12 100 11 40
13 110 4 135 -9 22 -56 45 -93 45 -17 0 -41 -10 -55 -22z"/>
<path d="M7771 7612 c-39 -40 -392 -483 -427 -535 -16 -24 -19 -38 -13 -54 5
-13 6 -23 2 -23 -14 0 32 -40 64 -55 48 -23 79 -8 135 63 25 31 97 124 162
205 246 312 255 327 220 385 -36 62 -92 67 -143 14z"/>
<path d="M3430 7265 c-14 -7 -66 -15 -116 -19 -405 -25 -812 -246 -1083 -586
-112 -140 -202 -305 -256 -465 -15 -44 -29 -87 -32 -95 -3 -8 -7 -28 -9 -45
-2 -16 -7 -37 -10 -45 -4 -8 -8 -24 -9 -35 -1 -11 -8 -74 -15 -140 -16 -147
-6 -568 15 -617 4 -9 7 -42 8 -71 1 -30 6 -52 11 -49 5 3 7 -5 4 -16 -4 -12
-2 -22 3 -22 5 0 9 -10 9 -21 0 -18 -2 -19 -15 -9 -19 16 -19 -1 1 -50 l14
-35 -5 33 c-2 17 -1 32 3 32 10 0 81 -260 72 -265 -15 -9 -18 -45 -5 -45 8 0
11 8 8 20 -11 41 9 18 36 -42 15 -35 37 -83 49 -108 16 -35 18 -48 9 -59 -10
-12 -9 -14 4 -9 11 5 20 -2 29 -20 6 -15 11 -29 10 -31 -1 -2 2 -7 8 -10 5 -3
26 -33 47 -66 59 -93 122 -172 213 -267 55 -57 81 -91 76 -100 -6 -10 -4 -11
7 0 11 10 17 8 34 -8 63 -64 271 -193 380 -237 39 -15 73 -32 76 -36 3 -5 9
-8 13 -8 27 4 37 -1 33 -14 -4 -8 -2 -17 3 -20 6 -4 10 1 10 9 0 9 5 16 11 16
5 0 7 -4 4 -10 -3 -5 0 -7 8 -4 8 3 41 -2 73 -10 137 -35 423 -56 509 -37 27
6 71 13 96 15 26 2 51 6 55 9 5 2 41 12 81 21 145 33 394 146 490 224 15 12
31 22 35 22 10 0 46 32 151 136 51 50 103 95 116 99 16 5 21 4 17 -4 -4 -6 -3
-11 3 -11 5 0 19 -29 30 -65 12 -36 32 -89 45 -119 13 -30 22 -57 18 -60 -3
-3 0 -6 6 -6 7 0 12 -5 12 -10 0 -6 25 -51 55 -101 30 -50 55 -92 55 -95 0 -3
13 -19 29 -36 16 -17 39 -47 52 -67 30 -47 206 -210 289 -267 36 -25 66 -48
68 -52 1 -4 58 -34 126 -67 69 -33 123 -65 121 -71 -2 -6 6 -9 18 -7 12 2 51
-7 87 -20 36 -14 115 -35 175 -48 95 -21 138 -24 310 -24 153 0 221 5 290 18
243 49 468 150 664 297 106 80 264 248 339 360 78 117 199 363 242 490 34 102
98 363 104 420 1 19 9 89 16 155 14 137 8 417 -13 530 -6 39 -12 79 -12 90 0
11 -2 22 -5 25 -7 6 -65 214 -61 219 1 2 -1 7 -6 10 -4 3 -32 56 -61 116 -79
162 -162 281 -299 428 -24 26 -46 47 -49 47 -4 0 -29 20 -56 45 -104 93 -300
210 -446 266 -43 17 -61 28 -57 38 4 10 2 11 -7 3 -10 -7 -31 -6 -76 7 -35 9
-60 20 -56 23 3 4 -8 4 -25 2 -19 -3 -31 -1 -31 6 0 6 -4 9 -8 6 -4 -2 -50 2
-102 10 -65 10 -155 14 -285 12 -181 -2 -197 -4 -331 -39 -80 -20 -185 -56
-245 -83 -57 -26 -108 -48 -114 -49 -5 -1 -12 -4 -15 -7 -22 -22 -93 -59 -103
-54 -7 4 -9 4 -5 -1 4 -4 -36 -41 -89 -81 -104 -79 -210 -178 -252 -234 -14
-19 -35 -36 -46 -38 l-20 -4 20 17 c11 9 15 14 10 11 -20 -9 -32 8 -55 78 -33
100 -99 238 -164 340 -31 48 -56 89 -56 91 0 4 -81 95 -145 163 -175 188 -430
342 -690 417 -91 26 -233 49 -379 61 -52 4 -74 9 -65 15 21 13 -2 9 -31 -6z
m280 -215 c25 -6 53 -11 62 -11 10 0 20 -5 23 -10 4 -5 10 -7 15 -4 15 9 206
-62 297 -110 99 -52 249 -160 245 -176 -1 -6 2 -8 7 -5 13 9 54 -51 45 -66 -5
-8 -2 -9 11 -4 14 5 16 4 7 -7 -9 -10 -8 -14 3 -14 8 0 15 4 15 8 0 5 20 -11
45 -34 25 -24 45 -47 45 -53 0 -5 9 -15 20 -22 11 -7 20 -19 20 -27 0 -8 4
-15 9 -15 15 0 80 -107 70 -117 -6 -6 -3 -17 7 -29 15 -18 15 -18 4 4 -6 12
-7 22 -2 22 12 0 93 -160 86 -171 -3 -5 -10 -6 -16 -3 -6 4 -6 0 1 -13 6 -11
7 -23 4 -27 -3 -3 -1 -6 6 -6 8 0 10 7 6 20 -3 11 -2 20 2 20 8 0 84 -213 83
-234 0 -4 -6 -6 -13 -3 -10 4 -13 -7 -14 -37 -1 -43 12 -80 26 -72 10 7 1 66
-10 66 -5 0 -6 7 -3 15 4 8 11 15 16 15 6 0 8 -7 5 -15 -4 -8 -2 -17 2 -20 20
-12 6 -83 -35 -179 -62 -145 -110 -311 -121 -421 -2 -27 -11 -56 -18 -64 -12
-12 -13 -11 -8 7 3 13 1 22 -6 22 -6 0 -11 -13 -11 -30 0 -21 4 -28 14 -24 12
5 14 -8 9 -73 -2 -43 -7 -84 -9 -92 -8 -25 -8 -504 0 -538 6 -28 0 -42 -54
-123 -34 -50 -68 -94 -76 -97 -8 -3 -14 -10 -14 -17 0 -7 -34 -45 -76 -86 -70
-69 -77 -73 -97 -61 -18 11 -20 11 -9 0 6 -7 12 -16 12 -20 0 -17 -236 -163
-265 -164 -5 0 -16 -5 -23 -12 -23 -22 -225 -81 -334 -98 -106 -16 -275 -17
-405 -2 -177 21 -399 111 -558 225 -84 61 -185 154 -178 165 3 5 1 7 -4 4 -6
-4 -25 10 -43 31 -17 20 -44 51 -59 67 -33 37 -114 155 -106 155 3 0 -3 9 -13
20 -19 20 -98 173 -104 200 -2 8 -5 17 -9 20 -20 19 -114 340 -124 425 -3 28
-8 61 -10 75 -35 205 -40 478 -11 655 2 17 7 50 11 75 7 50 33 139 46 156 5 6
6 13 4 16 -17 16 109 261 188 368 66 88 77 101 167 190 195 194 453 322 735
365 93 14 397 11 465 -5z m2810 -585 c46 -9 89 -20 95 -23 5 -4 19 -8 30 -9
11 -2 27 -6 35 -10 8 -3 24 -8 35 -9 23 -4 148 -55 155 -63 3 -3 12 -7 20 -9
51 -12 330 -208 330 -233 0 -5 -4 -8 -8 -5 -5 3 -9 -1 -9 -9 0 -11 4 -12 14
-3 11 9 20 5 43 -17 17 -16 30 -38 31 -49 0 -12 3 -16 6 -9 6 17 40 -16 108
-107 42 -57 54 -81 51 -100 -3 -14 -3 -19 0 -12 11 25 23 10 67 -80 59 -120
79 -175 117 -328 30 -115 33 -141 36 -319 3 -107 0 -240 -6 -295 -13 -129 -51
-326 -62 -326 -5 0 -7 -9 -3 -19 3 -11 1 -22 -5 -26 -6 -3 -8 -10 -5 -14 6
-10 -61 -210 -101 -301 -107 -246 -315 -501 -518 -634 -88 -58 -252 -141 -291
-148 -11 -2 -22 -6 -25 -9 -3 -4 -63 -21 -135 -39 -124 -32 -138 -33 -320 -33
-143 0 -210 4 -270 17 -44 10 -84 21 -90 24 -5 4 -20 8 -33 10 -63 8 -249 98
-369 178 -82 54 -303 261 -303 282 0 6 -13 24 -30 42 -16 18 -30 37 -30 42 0
6 -12 24 -26 41 -44 52 -145 278 -149 332 0 6 -4 15 -8 22 -4 7 -10 31 -13 55
-7 59 -9 71 -18 89 -4 10 -6 23 -5 30 1 8 -1 21 -4 29 -10 25 -24 235 -26 395
-1 137 14 330 38 478 16 93 53 231 65 239 6 4 8 8 4 8 -10 0 32 113 46 122 6
4 8 8 3 8 -11 0 39 95 96 180 115 172 237 296 395 404 90 61 182 111 182 99 0
-5 4 -3 8 3 8 11 92 47 92 39 0 -3 10 1 23 9 34 22 233 68 299 70 32 0 58 4
58 8 0 14 293 1 380 -17z"/>
<path d="M4223 5743 c-40 -42 -76 -73 -80 -70 -3 4 -11 3 -17 -2 -18 -14 -103
-23 -110 -12 -4 6 13 11 41 14 47 3 47 3 -10 5 -37 1 -56 -2 -52 -8 14 -22
-38 -8 -110 30 -104 55 -139 54 -175 -5 -19 -31 -20 -37 -7 -67 23 -55 108
-114 209 -147 20 -7 39 -18 42 -26 3 -8 11 -15 17 -15 8 0 7 5 -2 17 -13 15
-11 16 21 8 40 -9 60 -9 110 -2 120 17 277 131 315 230 16 42 16 47 0 80 -17
36 -38 47 -90 47 -24 0 -44 -15 -102 -77z"/>
<path d="M3168 5650 c-9 -6 -32 -32 -51 -59 -25 -34 -52 -57 -92 -76 -51 -25
-63 -27 -136 -22 -69 4 -88 10 -142 43 -49 29 -73 37 -114 38 -28 1 -49 -2
-47 -5 2 -4 -4 -21 -12 -39 -15 -28 -15 -37 -2 -76 11 -36 23 -49 58 -70 78
-44 132 -66 172 -72 28 -3 38 -9 34 -18 -3 -8 -1 -14 4 -14 6 0 10 5 10 10 0
6 22 9 49 8 27 -1 48 -5 46 -8 -2 -3 6 -6 18 -7 12 0 16 1 8 4 -8 3 23 18 67
33 100 34 181 92 228 166 47 73 48 78 29 117 -23 49 -84 72 -127 47z"/>
<path d="M4165 4993 c-31 -8 -44 -23 -72 -77 -106 -211 -316 -325 -546 -296
-44 5 -86 15 -93 21 -8 6 -14 9 -14 6 0 -10 -74 24 -128 60 -29 20 -73 62 -98
94 -25 33 -52 59 -60 59 -8 0 -14 4 -14 9 0 5 -15 3 -34 -3 -92 -32 -102 -88
-34 -190 14 -21 77 -86 82 -86 2 0 28 -16 57 -36 75 -50 140 -82 202 -98 28
-8 51 -19 50 -24 -1 -6 5 -16 15 -24 15 -12 16 -11 4 4 -17 22 1 33 29 17 14
-7 50 -9 105 -5 71 6 85 4 90 -9 3 -8 11 -15 16 -15 7 0 6 5 -1 14 -15 18 15
31 35 15 7 -6 19 -9 26 -6 8 3 4 6 -7 7 -19 1 148 72 172 73 7 0 15 7 17 14 3
8 10 11 16 8 5 -3 10 -2 10 2 0 5 14 17 30 26 17 10 51 36 76 58 25 21 50 36
56 33 6 -4 8 -3 5 3 -5 8 29 61 81 128 25 32 52 118 47 148 -10 49 -68 83
-120 70z"/>
<path d="M5485 5357 c-64 -22 -105 -46 -158 -95 -94 -89 -110 -166 -43 -217
18 -14 41 -25 50 -25 10 0 14 -5 10 -12 -4 -7 -3 -8 5 -4 6 4 9 11 6 16 -3 4
6 11 19 14 14 3 37 26 56 56 38 59 81 88 142 96 67 9 169 -30 152 -58 -3 -4 0
-7 6 -6 11 3 32 -30 71 -113 21 -46 21 -46 70 -45 35 1 55 8 72 24 21 20 23
28 16 76 -23 170 -170 296 -354 303 -48 2 -96 -2 -120 -10z"/>
<path d="M6671 5268 c-29 -5 -81 -19 -114 -33 -33 -13 -65 -21 -71 -18 -6 3
-8 3 -4 -1 3 -4 -14 -26 -39 -49 -87 -80 -108 -164 -52 -211 33 -28 83 -34
110 -13 8 7 29 33 47 59 40 58 98 88 173 88 59 0 124 -29 143 -65 6 -11 14
-22 17 -25 4 -3 17 -30 30 -60 l24 -55 50 -1 c43 0 54 4 79 29 24 25 28 35 23
67 -12 88 -90 197 -176 243 -66 36 -169 55 -240 45z"/>
<path d="M5450 4558 c0 -5 -4 -7 -9 -4 -5 3 -19 -14 -32 -38 -14 -27 -28 -42
-36 -39 -10 4 -13 -9 -11 -53 l1 -59 6 50 c5 36 8 44 13 30 12 -35 6 -84 -11
-88 -14 -4 -14 -5 1 -6 12 -1 19 -13 23 -38 4 -21 11 -54 16 -73 12 -48 12
-50 -8 -44 -14 5 -15 4 -4 -4 11 -8 11 -10 0 -14 -10 -3 -10 -6 -1 -12 7 -4
12 -2 12 3 0 6 4 11 9 11 9 0 47 -100 42 -109 -2 -2 3 -8 11 -13 9 -7 8 -9 -7
-5 -15 3 -21 -1 -21 -14 0 -11 4 -19 8 -19 4 0 8 5 8 10 0 26 28 4 60 -47 49
-77 170 -188 251 -228 103 -53 207 -77 319 -75 124 2 136 4 197 23 243 75 432
277 489 522 9 39 18 77 21 85 13 39 7 86 -14 110 -13 14 -23 28 -23 32 0 11
-127 3 -260 -16 -171 -24 -468 -18 -615 14 -55 12 -105 26 -111 31 -6 5 -13 7
-16 4 -3 -3 -52 11 -109 30 -113 39 -199 58 -199 43z m212 -237 c47 -17 115
-35 151 -42 66 -12 83 -23 50 -32 -14 -4 -12 -5 5 -6 12 0 22 4 22 10 0 11 60
7 172 -12 76 -13 348 -10 388 4 8 3 37 8 63 11 37 4 46 3 41 -7 -5 -8 -2 -7 9
2 27 22 29 8 8 -48 -62 -164 -222 -302 -385 -332 -79 -14 -246 0 -254 22 -2 5
-8 7 -13 3 -8 -4 -66 22 -79 37 -3 3 -21 15 -40 26 -36 22 -110 93 -97 93 4 0
-3 12 -16 26 -30 32 -90 151 -82 163 3 5 0 11 -5 13 -6 2 -12 20 -13 41 -1 20
-5 37 -9 37 -5 0 -8 5 -8 10 0 13 -6 14 92 -19z"/>
<path d="M8026 6811 c-126 -59 -235 -116 -242 -126 -39 -54 6 -145 72 -145 42
0 471 202 502 236 26 29 28 54 7 94 -18 35 -44 50 -82 49 -15 0 -131 -49 -257
-108z"/>
</g>
</svg>
