<?xml version="1.0" standalone="no"?>
<!DOCTYPE svg PUBLIC "-//W3C//DTD SVG 20010904//EN" "http://www.w3.org/TR/2001/REC-SVG-20010904/DTD/svg10.dtd">
<svg xmlns="http://www.w3.org/2000/svg" version="1.0" width="1024.000000pt" height="1024.000000pt" viewBox="0 0 1024.000000 1024.000000" preserveAspectRatio="xMidYMid meet">
<metadata>
Created by potrace 1.16, written by Peter Selinger 2001-2019
<meta name="Producer" content="Online-Convert"/></metadata>
<g transform="translate(0.000000,1024.000000) scale(0.100000,-0.100000)" fill="#000000" stroke="none">
<path d="M3315 8549 c-16 -5 -44 -11 -61 -13 -47 -6 -208 -63 -299 -105 -121 -56 -245 -141 -338 -231 -46 -44 -88 -76 -92 -72 -5 4 -6 2 -2 -4 3 -5 -16 -33 -42 -62 -26 -29 -46 -52 -44 -52 2 0 -14 -24 -35 -52 -48 -66 -107 -166 -117 -195 -3 -13 -11 -23 -16 -23 -6 0 -7 -4 -4 -10 3 -5 2 -10 -4 -10 -5 0 -12 6 -14 13 -4 9 -6 9 -6 0 -1 -6 3 -14 8 -18 6 -3 3 -21 -6 -43 -8 -20 -20 -48 -26 -62 -6 -14 -11 -28 -12 -32 -2 -5 -4 -11 -5 -15 -1 -5 -2 -11 -1 -15 0 -4 -8 -12 -19 -18 -20 -11 -28 -50 -10 -50 10 0 2 -61 -9 -70 -14 -12 -16 -203 -16 -1342 l0 -1198 25 -25 c25 -24 97 -54 85 -34 -4 5 0 9 8 9 8 0 22 9 33 21 18 20 19 60 24 1258 l5 1236 33 112 c37 128 126 314 200 416 72 99 182 218 194 211 6 -4 9 -3 5 2 -7 12 141 123 227 169 134 71 245 105 406 124 92 11 968 11 1033 -1 15 -2 36 -5 48 -6 15 -1 19 -7 15 -18 -4 -10 -2 -13 7 -7 20 12 34 12 79 -2 107 -33 298 -127 298 -146 0 -5 7 -9 15 -9 8 0 15 -4 15 -10 0 -5 6 -10 14 -10 8 0 28 -13 46 -30 18 -16 35 -30 39 -30 14 0 75 -70 67 -77 -4 -4 8 -14 26 -23 29 -14 137 -134 138 -153 0 -4 9 -18 20 -29 38 -41 122 -217 115 -241 -5 -16 -4 -18 3 -8 16 22 21 -20 6 -44 -10 -16 -10 -22 2 -33 13 -12 14 -10 8 12 -3 14 -2 26 3 26 9 0 50 -135 52 -170 0 -8 5 -37 10 -65 12 -63 13 -2388 1 -2360 -6 15 -9 9 -8 -25 0 -37 1 -41 8 -20 7 22 8 23 9 4 1 -12 10 -32 21 -46 15 -20 16 -28 7 -38 -10 -10 -9 -11 3 -4 21 12 39 14 45 4 9 -15 58 6 79 34 21 27 21 30 21 1249 0 1150 -1 1227 -19 1312 -10 50 -19 95 -20 100 -1 6 -5 16 -10 23 -5 8 -4 18 3 25 6 6 11 16 11 22 0 5 -4 3 -10 -5 -5 -8 -12 -11 -16 -7 -4 3 -1 13 6 22 11 13 10 15 -1 10 -19 -7 -41 59 -25 75 8 8 7 10 -4 6 -11 -3 -28 22 -62 93 -71 147 -167 279 -284 391 -108 104 -124 118 -124 113 0 -3 -7 0 -15 7 -9 7 -13 20 -10 29 5 12 3 13 -5 5 -8 -8 -29 0 -78 33 -103 68 -254 135 -401 179 -9 3 -10 8 -3 17 9 10 4 13 -20 15 -17 2 -35 -3 -39 -10 -7 -10 -12 -10 -28 -1 -24 15 -1117 16 -1166 2z"/>
<path d="M7313 8356 c-85 -78 -577 -579 -587 -597 -34 -66 66 -157 126 -115 34 24 307 295 356 354 24 29 48 49 53 46 5 -3 8 -2 7 3 -2 4 2 10 7 13 7 3 10 -232 10 -695 l0 -700 25 -20 c14 -11 26 -22 28 -26 6 -14 83 10 101 32 20 23 20 41 22 664 1 352 2 666 2 698 l0 57 24 -22 c27 -25 29 -30 8 -22 -9 4 -15 0 -15 -9 0 -10 7 -13 18 -10 12 3 28 -9 50 -36 17 -22 28 -41 24 -44 -4 -2 -1 -2 7 0 17 4 232 -207 224 -220 -3 -6 -1 -7 4 -4 6 4 24 -8 40 -26 16 -18 37 -36 47 -40 9 -4 15 -11 11 -16 -3 -5 -1 -13 5 -16 6 -4 10 -3 9 2 -3 20 2 27 11 13 9 -13 10 -13 10 0 1 8 15 24 33 35 24 15 33 30 38 60 4 24 2 43 -5 51 -6 6 -120 122 -254 258 -133 136 -240 252 -236 257 3 5 1 8 -4 7 -5 -2 -29 15 -53 38 -38 35 -50 41 -90 40 -24 0 -50 -5 -56 -10z"/>
<path d="M3315 7871 c-2 -5 -16 -12 -30 -15 -14 -4 -51 -18 -83 -32 -31 -14 -58 -25 -59 -25 -1 0 -17 -13 -35 -29 -18 -17 -37 -30 -43 -30 -5 0 -18 -12 -27 -28 -10 -15 -36 -49 -58 -77 -22 -27 -50 -76 -63 -108 -21 -55 -22 -56 -29 -30 -3 16 -5 5 -3 -26 2 -30 2 -58 -1 -63 -3 -4 -7 -45 -9 -90 -2 -46 -6 -121 -9 -168 -3 -52 -1 -77 4 -65 6 15 9 16 9 4 1 -9 -2 -19 -5 -22 -10 -10 -13 -277 -3 -271 14 8 11 -40 -3 -55 -10 -11 -10 -14 0 -18 8 -3 12 -30 12 -86 0 -57 -3 -77 -10 -67 -5 8 -10 10 -10 5 0 -6 6 -17 12 -23 10 -10 10 -15 -1 -21 -9 -6 -10 -11 -2 -15 6 -4 11 -14 11 -22 0 -8 -4 -13 -9 -9 -6 3 -6 -6 -1 -24 5 -17 9 -167 9 -335 0 -167 3 -310 5 -317 2 -8 7 -29 10 -48 8 -45 57 -154 74 -164 8 -6 11 -18 8 -32 -4 -16 -1 -25 10 -29 14 -5 15 -4 4 9 -7 8 -8 15 -3 15 5 0 28 -20 51 -45 23 -25 46 -45 51 -45 5 0 13 -5 17 -11 4 -8 0 -9 -15 -4 -13 4 -21 2 -21 -6 0 -7 10 -10 29 -6 20 4 31 2 35 -8 3 -8 2 -15 -3 -15 -5 0 -11 -8 -14 -17 -3 -10 -79 -117 -171 -238 -152 -203 -165 -223 -166 -262 0 -47 25 -80 70 -89 14 -3 29 -7 35 -8 14 -4 42 23 87 84 22 30 48 61 56 68 13 10 197 12 868 12 l853 0 26 -33 c82 -102 98 -117 132 -123 29 -5 39 -2 63 21 15 14 30 40 34 56 6 31 -10 79 -31 92 -7 4 -13 15 -13 22 0 8 -4 15 -9 15 -6 0 -45 48 -88 108 -43 59 -107 145 -144 192 -36 47 -69 93 -72 102 -6 17 17 33 34 22 5 -3 9 2 9 10 0 8 15 25 33 37 39 28 48 38 97 114 22 33 43 65 48 70 4 6 9 14 9 18 1 9 12 45 21 67 8 21 19 1625 11 1642 -17 35 -39 130 -33 141 4 6 4 9 -1 5 -4 -4 -25 22 -47 57 -65 109 -177 200 -302 247 -61 23 -63 23 -633 25 -315 1 -575 -2 -578 -6z m1185 -203 c69 -34 153 -106 146 -124 -3 -8 0 -13 6 -11 12 2 59 -73 52 -84 -2 -4 0 -9 6 -11 26 -9 30 -137 28 -869 l-3 -754 -27 -58 c-29 -61 -131 -172 -149 -162 -5 4 -9 2 -9 -3 0 -5 -26 -20 -57 -33 l-58 -24 -550 0 -550 0 -55 26 c-75 35 -164 124 -198 196 l-27 58 -3 770 c-2 541 0 783 8 815 13 53 50 130 62 130 4 0 8 6 8 13 0 32 158 146 182 131 4 -3 8 -1 8 5 0 16 53 18 600 17 l525 -1 55 -27z m34 -2401 c45 -58 60 -86 53 -95 -7 -9 -6 -11 5 -7 8 3 20 -1 27 -9 12 -14 -63 -16 -702 -16 -494 0 -718 3 -722 10 -5 8 -12 7 -23 -2 -14 -12 -14 -10 -3 10 7 13 19 26 27 29 8 3 14 11 14 17 0 7 14 28 30 46 17 18 30 37 30 40 0 4 11 19 24 33 l25 27 576 0 577 0 62 -83z"/>
<path d="M4166 7575 c-5 -13 -45 -15 -278 -15 -150 0 -278 -4 -284 -8 -60 -42 -56 -156 6 -170 7 -2 134 -3 282 -2 207 0 268 -2 268 -12 0 -7 7 -2 16 10 8 12 20 19 26 16 6 -4 8 -2 4 4 -3 6 2 15 11 21 10 6 15 11 12 11 -4 0 -3 16 1 34 4 19 5 38 1 41 -3 4 -6 11 -6 16 0 5 -11 15 -25 22 -15 8 -24 20 -22 30 4 21 -4 22 -12 2z"/>
<path d="M3334 7227 c-9 -5 -21 -6 -29 -3 -10 3 -12 0 -8 -12 3 -9 3 -14 -2 -10 -13 12 -92 -91 -104 -136 -13 -54 -16 -517 -3 -525 6 -3 12 -15 14 -26 1 -11 8 -23 13 -27 6 -5 5 -8 -2 -8 -20 0 -15 -38 8 -61 11 -11 27 -18 36 -15 8 4 31 -6 51 -23 83 -65 89 -66 600 -68 313 -1 462 1 462 8 0 6 6 9 13 6 6 -2 29 7 49 20 21 12 40 23 44 23 13 0 86 85 106 124 25 48 25 49 34 191 4 61 12 116 18 124 8 11 8 13 -1 7 -10 -5 -13 13 -15 81 -2 139 -3 146 -21 181 -10 17 -15 32 -12 32 3 0 -4 9 -15 20 -12 12 -19 24 -16 28 2 4 -26 22 -63 40 l-67 32 -538 3 c-295 1 -544 -2 -552 -6z m1072 -204 l29 -21 3 -179 c4 -202 -1 -248 -25 -239 -12 5 -13 4 -5 -7 9 -11 7 -19 -11 -35 -54 -51 -67 -52 -504 -52 -395 0 -408 1 -451 21 -41 20 -87 74 -76 90 2 4 0 10 -6 14 -6 4 -10 76 -10 190 0 184 0 185 26 212 l25 28 488 -1 c480 0 489 -1 517 -21z"/>
<path d="M3372 6133 c-24 -5 -144 -73 -128 -73 5 0 2 -8 -7 -18 -37 -41 -48 -118 -27 -192 5 -17 5 -30 0 -30 -5 0 -8 -13 -8 -30 1 -23 4 -28 14 -19 7 6 10 18 7 27 -6 15 -5 15 10 3 9 -7 15 -17 12 -21 -11 -18 90 -65 155 -71 36 -4 76 -9 90 -13 20 -5 21 -5 5 2 -18 8 -16 11 20 30 58 31 81 53 96 95 7 20 16 37 19 37 10 0 3 106 -10 145 -13 41 -58 86 -105 108 -33 16 -107 26 -143 20z"/>
<path d="M4308 6128 c-44 -12 -112 -68 -135 -112 -18 -33 -25 -166 -9 -166 4 0 6 -12 2 -27 -3 -16 -3 -22 0 -16 4 8 15 1 32 -20 15 -17 32 -36 40 -40 7 -5 10 -12 7 -16 -2 -5 1 -9 8 -8 33 1 45 -5 50 -23 3 -12 13 -20 24 -19 16 1 16 2 1 6 -40 10 -15 24 40 22 32 -1 64 1 70 5 7 4 12 5 12 1 0 -11 69 41 90 68 56 71 68 170 28 238 -29 50 -82 101 -94 91 -4 -4 -4 2 0 13 5 15 4 17 -4 8 -8 -7 -22 -8 -43 -2 -38 11 -70 10 -119 -3z"/>
<path d="M6936 6053 c-3 -4 -39 -9 -79 -11 -73 -4 -127 -25 -127 -49 0 -7 -3 -13 -7 -13 -5 0 -7 -319 -5 -710 l2 -710 -364 0 -364 0 -26 -31 -26 -31 0 -253 0 -254 -320 -3 c-317 -3 -320 -3 -342 -26 -22 -22 -23 -29 -28 -283 l-5 -260 -301 1 c-297 1 -301 0 -334 -22 -18 -13 -37 -34 -40 -48 -4 -14 -6 -134 -5 -267 l3 -243 -94 0 -94 0 0 115 c0 69 4 115 10 115 5 0 9 11 8 24 -1 13 -7 22 -13 20 -5 -2 -26 31 -45 73 -27 61 -50 93 -106 149 -39 38 -85 76 -102 83 -18 8 -32 18 -32 23 0 5 -4 7 -8 4 -5 -3 -21 4 -38 16 -16 11 -21 18 -11 14 10 -3 17 0 17 7 0 7 12 24 28 38 32 30 76 81 79 95 2 5 12 34 23 64 24 67 26 176 5 248 -9 29 -16 54 -15 57 0 7 -21 32 -87 101 -74 77 -137 106 -249 112 -84 5 -172 -13 -220 -45 -15 -10 -24 -11 -24 -4 0 6 -5 11 -11 11 -5 0 -7 -5 -4 -11 4 -6 -11 -26 -33 -45 -57 -48 -99 -117 -113 -182 -7 -32 -18 -64 -24 -72 -31 -39 45 -243 119 -322 16 -17 24 -34 20 -45 -5 -17 -5 -17 6 0 9 14 15 16 26 6 12 -10 11 -14 -6 -26 -12 -8 -30 -13 -40 -10 -12 3 -21 -1 -25 -12 -3 -9 -22 -26 -43 -39 -35 -22 -122 -98 -122 -107 0 -2 -13 -24 -29 -48 -26 -37 -46 -91 -79 -207 -4 -14 -13 -25 -20 -25 -6 0 -11 -4 -10 -10 2 -5 7 -9 11 -7 5 1 7 -15 5 -35 -2 -25 -8 -37 -16 -35 -8 1 -11 -2 -7 -8 3 -6 11 -8 16 -4 6 3 9 -59 9 -168 0 -173 13 -273 37 -273 6 0 15 -3 19 -8 16 -16 79 -7 107 16 l27 22 3 275 2 275 28 60 c46 98 126 168 233 203 64 21 198 29 208 13 4 -6 13 -8 21 -4 8 3 15 1 15 -5 0 -6 -6 -12 -12 -14 -7 -3 2 -10 20 -16 19 -6 32 -7 32 -1 0 5 -9 9 -21 9 -11 0 -17 4 -14 10 4 6 20 4 43 -5 46 -20 50 -24 32 -36 -11 -7 -8 -8 11 -4 22 5 35 -2 75 -42 53 -51 107 -140 80 -130 -11 4 -14 -1 -13 -20 1 -15 8 -28 16 -31 10 -3 11 2 6 19 -5 16 -4 21 3 14 18 -17 19 -81 2 -70 -6 4 -8 10 -6 14 3 4 -1 8 -9 8 -8 0 -15 -7 -15 -14 0 -8 5 -11 10 -8 9 6 15 -8 11 -29 -1 -5 5 -6 14 -3 13 5 15 -5 15 -63 l0 -70 -137 -1 c-76 -1 -141 -1 -145 0 -10 1 -48 -50 -48 -65 0 -7 -10 -20 -22 -30 -16 -11 -17 -15 -5 -11 16 6 17 -9 17 -222 l0 -229 -25 -6 c-14 -4 -136 -6 -271 -6 -216 1 -251 -1 -290 -17 -24 -10 -44 -22 -44 -26 0 -5 6 -5 13 -1 9 6 9 5 0 -7 -12 -14 -20 -45 -22 -77 -1 -7 -5 -11 -10 -7 -5 3 -12 1 -15 -4 -3 -5 2 -12 11 -15 15 -6 15 -8 3 -16 -10 -7 -11 -10 -2 -10 8 0 12 -19 12 -60 0 -33 -4 -60 -8 -60 -5 0 -9 -7 -9 -15 0 -8 4 -12 9 -9 12 8 10 -21 -4 -51 -9 -21 -9 -31 0 -46 7 -10 12 -26 12 -35 0 -14 -2 -15 -17 -3 -17 13 -17 13 -1 -7 19 -22 23 -40 11 -47 -5 -2 -3 -2 4 -1 6 2 14 -10 18 -25 8 -37 68 -66 114 -56 54 12 61 40 61 245 l0 181 283 -1 c155 0 287 0 292 1 6 1 14 1 18 0 5 -1 6 3 2 9 -3 5 -2 10 3 10 26 0 32 59 32 300 l0 249 310 0 c337 0 335 0 365 57 13 24 15 70 14 264 l0 235 243 2 c260 2 341 -3 317 -18 -10 -6 -7 -9 13 -9 15 0 30 4 33 10 4 6 -1 7 -11 3 -12 -4 -15 -3 -10 5 4 7 12 12 18 12 7 0 27 10 45 22 l33 23 0 268 0 267 317 0 317 0 28 27 28 27 0 263 0 263 305 0 305 -1 -2 -624 -3 -625 35 -30 35 -31 779 0 c772 1 779 1 812 22 l34 21 0 1429 c0 1350 -1 1431 -18 1449 -35 37 -65 40 -396 39 -338 -1 -516 -1 -554 0 -16 1 -21 5 -16 14 6 9 5 9 -7 0 -9 -7 -25 -11 -37 -8 -12 2 -22 -1 -22 -7 0 -7 -32 -9 -97 -5 -109 7 -122 9 -142 21 -9 6 -12 5 -8 -1 11 -17 -42 -22 -59 -6 -8 8 -14 10 -14 4 0 -6 -21 -11 -51 -11 -31 0 -48 4 -44 10 7 11 2 13 -9 3z m1304 -1488 c0 -1025 -2 -1285 -12 -1285 -9 0 -8 -3 2 -10 10 -6 -222 -10 -665 -10 -402 0 -674 4 -666 9 8 5 19 8 25 7 6 -2 8 -1 4 1 -5 3 -8 14 -9 26 -1 20 -2 20 -9 -3 -4 -14 -9 -20 -10 -15 -1 6 -2 585 -3 1287 l-2 1278 672 0 673 0 0 -1285z m-4306 -575 c131 -80 132 -284 3 -364 -108 -66 -254 -27 -311 83 -9 17 -13 31 -9 31 4 0 2 5 -5 12 -7 7 -12 31 -12 55 0 83 48 158 125 195 55 26 158 20 209 -12z"/>
<path d="M2452 4190 c-69 -19 -133 -55 -184 -105 -38 -36 -97 -146 -104 -194 -2 -14 -7 -45 -10 -69 -3 -23 -3 -50 2 -60 4 -9 8 -24 9 -32 1 -8 4 -22 8 -30 15 -39 17 -69 5 -66 -7 1 -10 1 -5 -1 4 -3 7 -12 7 -21 0 -15 2 -15 10 -2 9 13 12 12 22 -4 6 -11 29 -39 51 -63 32 -35 36 -43 21 -44 -11 0 -1 -6 21 -13 35 -10 37 -13 20 -20 -11 -5 -23 -8 -27 -8 -5 1 -8 -3 -8 -9 0 -5 -4 -7 -10 -4 -5 3 -10 1 -10 -5 0 -7 -7 -9 -16 -6 -8 3 -13 2 -9 -3 3 -5 -10 -19 -29 -30 -96 -60 -208 -229 -223 -336 -16 -115 -19 -258 -18 -685 1 -289 -2 -490 -8 -497 -5 -7 -6 -13 -1 -13 5 0 10 -12 11 -27 5 -100 15 -134 43 -155 16 -12 27 -24 25 -28 -6 -10 26 -8 40 2 6 4 25 20 43 35 l32 28 3 660 c2 607 4 664 20 706 20 52 108 165 126 162 6 -2 11 1 11 7 0 5 23 21 51 36 46 23 51 24 45 7 -4 -13 -1 -11 12 6 17 21 26 23 118 24 91 1 104 -1 164 -29 63 -30 160 -106 160 -125 0 -6 9 -19 20 -31 15 -16 17 -25 8 -35 -8 -10 -8 -12 4 -8 10 4 19 -6 28 -32 11 -30 15 -169 20 -693 5 -636 6 -656 25 -681 14 -18 31 -25 60 -27 35 -2 43 1 62 31 l23 33 0 652 c0 359 -2 657 -5 662 -4 6 -4 14 0 19 3 5 1 12 -5 16 -5 3 -10 14 -10 24 0 49 -119 236 -169 265 -10 6 -51 29 -90 52 l-71 41 52 50 c29 27 62 66 73 86 11 20 23 37 28 37 4 0 6 4 3 9 -4 5 -1 22 5 38 7 15 13 37 15 48 2 11 6 36 10 56 3 22 2 39 -5 43 -15 10 -14 49 2 65 7 8 7 11 1 8 -7 -4 -20 14 -33 45 -29 70 -95 153 -142 180 -22 12 -39 26 -39 32 0 5 -3 7 -6 4 -3 -4 -22 1 -42 9 -61 25 -173 31 -240 13z m73 -180 c3 -5 14 -10 23 -9 14 0 13 2 -3 9 -14 6 -5 8 30 6 55 -3 91 -17 118 -50 10 -11 16 -14 12 -6 -12 27 26 -24 45 -60 29 -58 33 -95 15 -155 -9 -31 -22 -58 -30 -62 -8 -3 -15 -10 -15 -17 0 -13 -53 -50 -90 -64 -37 -14 -141 -7 -176 11 -17 9 -45 32 -61 51 -90 101 -61 271 56 333 48 25 67 28 76 13z"/>
</g>
</svg>
