<?xml version="1.0" standalone="no"?>
<!DOCTYPE svg PUBLIC "-//W3C//DTD SVG 20010904//EN"
 "http://www.w3.org/TR/2001/REC-SVG-20010904/DTD/svg10.dtd">
<svg version="1.0" xmlns="http://www.w3.org/2000/svg"
 width="1024.000000pt" height="1024.000000pt" viewBox="0 0 1024.000000 1024.000000"
 preserveAspectRatio="xMidYMid meet">
<metadata>
Created by potrace 1.16, written by Peter Selinger 2001-2019
</metadata>
<g transform="translate(0.000000,1024.000000) scale(0.100000,-0.100000)"
fill="#000000" stroke="none">
<path d="M6541 6662 c-18 -33 -14 -42 58 -149 l69 -103 -9 -156 c-9 -141 -8
-159 7 -175 10 -11 22 -19 29 -19 6 0 44 23 84 50 40 28 78 50 85 50 6 0 44
-34 84 -75 40 -41 81 -75 91 -75 9 0 91 59 182 132 90 72 260 203 377 290 193
144 212 161 212 188 0 18 -7 33 -17 38 -10 5 -293 13 -630 17 -608 7 -611 7
-622 -13z m834 -79 c66 -7 67 -8 30 -14 -22 -3 -96 -18 -165 -32 -69 -14 -204
-40 -300 -58 l-174 -31 -37 43 c-21 24 -45 56 -54 72 l-16 27 323 0 c178 0
355 -3 393 -7z m147 -93 c-39 -24 -163 -119 -327 -250 -66 -53 -126 -100 -134
-104 -9 -6 -36 14 -87 65 -41 40 -74 77 -74 81 0 10 181 78 365 137 88 28 185
60 215 70 71 25 83 26 42 1z"/>
<path d="M6266 6421 c-48 -5 -63 -11 -78 -31 -22 -30 -17 -52 16 -69 18 -10
44 -10 122 -1 114 14 134 22 134 55 0 53 -35 62 -194 46z"/>
<path d="M5844 6366 c-100 -23 -124 -37 -124 -70 0 -50 38 -56 166 -30 106 22
134 37 134 72 0 58 -29 63 -176 28z"/>
<path d="M5426 6245 c-92 -35 -106 -45 -106 -80 0 -54 42 -57 159 -13 104 38
111 43 111 77 0 61 -38 64 -164 16z"/>
<path d="M2802 6150 c-101 -27 -167 -64 -237 -135 -124 -123 -171 -302 -130
-496 23 -106 91 -227 153 -270 22 -16 22 -16 -44 -55 -317 -185 -502 -621
-544 -1280 -15 -246 7 -451 60 -541 l19 -33 -182 0 c-149 0 -187 -3 -205 -16
-30 -20 -28 -48 5 -74 26 -20 36 -21 254 -19 213 2 228 1 255 -18 47 -33 120
-61 199 -78 129 -26 175 -17 175 35 0 37 -13 44 -125 65 -49 9 -113 27 -142
40 -58 26 -134 99 -162 154 -94 188 -59 749 73 1153 29 87 103 239 149 308 75
110 169 188 314 264 97 51 106 84 35 124 -147 82 -232 293 -189 468 68 277
373 401 612 249 151 -96 243 -294 218 -470 -6 -40 -21 -95 -34 -122 -44 -91
-133 -166 -224 -187 -47 -11 -75 -34 -75 -61 0 -112 264 -5 370 150 53 78 73
150 73 265 1 117 -20 198 -75 302 -64 121 -200 237 -318 272 -89 27 -195 29
-278 6z"/>
<path d="M5105 6094 c-72 -38 -155 -98 -156 -113 -3 -41 16 -71 45 -71 20 0
208 116 218 134 5 8 3 26 -4 40 -13 31 -55 34 -103 10z"/>
<path d="M4775 5881 c-56 -36 -145 -127 -145 -148 0 -27 25 -53 50 -53 26 0
169 129 177 159 4 18 0 29 -17 43 -27 22 -28 22 -65 -1z"/>
<path d="M4505 5619 c-23 -12 -104 -121 -119 -162 -10 -25 -8 -31 13 -48 13
-11 31 -19 40 -17 18 4 141 164 141 184 0 15 -35 54 -47 53 -5 0 -17 -5 -28
-10z"/>
<path d="M5886 5485 c-45 -24 -145 -108 -152 -128 -7 -23 21 -67 44 -67 10 0
31 10 48 23 148 108 156 119 122 162 -23 29 -24 29 -62 10z"/>
<path d="M5500 5253 c-50 -25 -96 -55 -101 -65 -15 -27 -7 -58 17 -75 19 -12
29 -10 100 28 104 55 134 77 134 97 0 24 -28 62 -45 62 -8 0 -55 -21 -105 -47z"/>
<path d="M4332 5258 c-32 -32 3 -131 74 -203 49 -51 95 -61 114 -26 17 33 12
52 -24 85 -19 17 -50 58 -68 91 -35 62 -68 81 -96 53z"/>
<path d="M5135 5085 c-80 -30 -125 -61 -125 -85 0 -4 8 -18 18 -30 18 -22 20
-22 71 -9 87 22 175 70 179 97 4 24 -23 62 -42 62 -6 -1 -51 -16 -101 -35z"/>
<path d="M3006 5024 c-23 -22 -21 -29 22 -77 63 -70 87 -107 145 -222 89 -179
143 -339 202 -595 14 -63 32 -124 39 -135 12 -19 25 -20 172 -21 220 -1 312
-29 421 -128 90 -82 125 -176 103 -280 -34 -164 -209 -269 -536 -322 -118 -20
-158 -42 -148 -82 10 -35 42 -41 144 -25 112 16 175 32 294 73 l89 31 213 -7
c190 -6 216 -5 238 10 33 21 34 59 4 80 -18 13 -52 16 -161 16 l-138 0 30 38
c126 157 100 398 -59 545 -112 104 -261 155 -464 159 l-120 3 -41 161 c-86
333 -188 568 -322 739 -37 47 -48 55 -77 55 -19 0 -42 -7 -50 -16z"/>
<path d="M4651 5013 c-22 -15 -27 -48 -12 -72 17 -26 216 -42 239 -19 14 14
16 57 3 76 -15 24 -201 36 -230 15z"/>
<path d="M2888 4059 c-44 -25 3 -185 74 -249 29 -27 30 -30 12 -36 -121 -44
-320 -145 -373 -190 -66 -55 -12 -127 57 -78 13 9 77 42 143 75 163 81 389
164 554 204 89 22 114 37 111 68 -2 13 -6 29 -10 35 -12 20 -75 13 -196 -18
-182 -48 -162 -49 -219 9 -35 35 -54 65 -61 94 -21 85 -49 112 -92 86z"/>
</g>
</svg>
