<?xml version="1.0" standalone="no"?>
<!DOCTYPE svg PUBLIC "-//W3C//DTD SVG 20010904//EN"
 "http://www.w3.org/TR/2001/REC-SVG-20010904/DTD/svg10.dtd">
<svg version="1.0" xmlns="http://www.w3.org/2000/svg"
 width="1024.000000pt" height="1024.000000pt" viewBox="0 0 1024.000000 1024.000000"
 preserveAspectRatio="xMidYMid meet">
<metadata>
Created by potrace 1.16, written by Peter Selinger 2001-2019
</metadata>
<g transform="translate(0.000000,1024.000000) scale(0.100000,-0.100000)"
fill="#000000" stroke="none">
<path d="M3581 8199 c-118 -16 -297 -66 -411 -115 -290 -124 -527 -318 -702
-574 -30 -44 -58 -77 -61 -74 -3 3 -5 -1 -4 -8 1 -16 -103 -232 -115 -236 -4
-2 -6 -7 -3 -12 3 -4 -4 -34 -16 -66 -31 -90 -59 -236 -69 -367 -6 -66 -12
-123 -15 -127 -3 -5 0 -10 6 -12 6 -2 -13 -23 -44 -45 -30 -23 -56 -41 -58
-40 -2 1 -3 0 -2 -2 2 -2 -19 -28 -46 -56 -129 -136 -240 -382 -241 -532 0
-31 -7 -38 -35 -34 -5 1 -2 -5 8 -12 20 -16 24 -77 5 -77 -10 0 -9 -3 1 -9 8
-5 17 -41 22 -93 5 -47 20 -121 34 -166 14 -44 24 -86 22 -93 -2 -8 -2 -10 1
-6 8 17 69 -104 67 -134 -1 -19 3 -29 12 -29 11 0 11 5 3 23 -7 12 1 6 16 -13
44 -56 254 -259 254 -245 0 2 29 -12 65 -31 36 -18 104 -45 150 -59 69 -21 85
-30 85 -46 0 -11 -7 -19 -17 -19 -13 0 -15 -3 -5 -8 10 -7 10 -32 2 -123 -12
-137 -13 -2502 -1 -2495 10 7 33 -42 25 -55 -3 -5 -1 -8 4 -7 5 2 20 -11 35
-27 14 -17 49 -44 79 -60 l53 -30 560 -3 c385 -2 572 0 597 8 48 14 71 54 58
99 -5 18 -35 58 -67 89 -73 71 -103 131 -103 203 0 63 18 102 75 160 67 69
254 185 282 175 8 -3 12 -2 9 3 -3 5 54 39 127 76 236 121 385 233 444 333 14
23 28 40 31 38 4 -2 8 6 8 17 1 12 6 47 13 77 19 92 -9 196 -74 275 -19 24
-31 46 -27 50 4 5 2 5 -4 2 -10 -6 -41 12 -78 45 -9 7 132 5 344 -7 264 -15
474 -61 619 -134 23 -12 39 -26 36 -31 -4 -6 1 -7 11 -3 13 5 15 3 9 -7 -6 -9
-4 -11 4 -5 15 9 93 -63 84 -78 -3 -6 -1 -7 5 -3 13 8 46 -51 56 -100 4 -17 2
-52 -4 -79 -12 -55 -83 -179 -95 -167 -4 4 -5 2 -2 -4 4 -7 -2 -33 -14 -59
-74 -168 -31 -354 123 -521 40 -43 78 -81 83 -84 6 -3 9 -9 7 -13 -1 -5 2 -6
7 -3 5 3 26 -8 46 -24 21 -17 53 -40 72 -51 18 -11 30 -26 27 -31 -4 -7 -2 -8
4 -4 16 10 74 -22 66 -36 -4 -7 -3 -8 4 -4 6 4 62 -18 124 -47 117 -56 287
-123 338 -134 16 -3 28 -8 26 -12 -6 -8 11 -9 426 -10 343 -1 369 0 412 18 63
28 129 92 157 154 l24 52 -1 1215 c-2 1193 -2 1217 -23 1350 -44 274 -126 533
-240 755 -30 61 -55 116 -54 122 0 7 -2 11 -6 9 -4 -3 -25 25 -46 61 -189 315
-516 630 -852 820 -56 32 -99 61 -97 65 2 3 -1 10 -7 14 -8 4 -9 3 -5 -4 11
-17 8 -16 -105 36 -57 27 -134 60 -171 73 -36 13 -64 28 -61 33 3 5 1 6 -6 2
-6 -4 -39 2 -74 13 -93 30 -209 58 -335 79 -62 11 -115 22 -117 24 -10 9 -58
185 -58 207 1 18 -1 20 -8 10 -7 -12 -9 -12 -9 1 0 8 -25 64 -55 124 -30 60
-52 113 -48 119 3 6 1 7 -4 4 -14 -9 -46 40 -37 55 5 7 3 8 -6 3 -10 -6 -12
-4 -7 9 4 9 3 15 -2 12 -10 -6 -127 143 -123 157 1 5 -1 6 -6 3 -12 -7 -164
148 -155 159 4 4 2 5 -5 1 -7 -4 -30 7 -55 27 -180 144 -471 276 -707 322
-104 20 -368 28 -469 14z m420 -195 c186 -32 381 -108 531 -207 75 -50 163
-119 129 -101 -9 5 -12 3 -7 -5 4 -6 12 -9 17 -5 15 9 196 -178 258 -266 78
-111 143 -234 134 -255 -4 -12 -3 -16 4 -12 12 8 14 3 49 -98 143 -413 62
-892 -214 -1258 -24 -31 -48 -55 -53 -51 -5 3 -8 0 -7 -8 2 -7 -3 -12 -10 -10
-8 1 -11 -2 -7 -7 3 -6 -2 -20 -12 -31 -33 -40 -135 -120 -144 -114 -5 3 -8 1
-7 -4 2 -6 -19 -27 -46 -47 -39 -30 -50 -35 -58 -24 -8 12 -9 11 -5 -1 5 -17
-23 -38 -108 -82 -82 -42 -246 -100 -267 -95 -10 3 -16 2 -13 -3 5 -8 -122
-33 -227 -45 l-56 -6 -7 53 c-10 83 -2 213 13 210 6 -1 11 2 10 6 -4 12 274
302 289 302 7 0 13 5 13 12 0 7 81 93 179 193 102 102 182 191 186 205 14 59
-49 121 -108 106 -14 -3 -78 -58 -143 -121 -64 -63 -121 -112 -127 -108 -6 3
-7 1 -3 -6 9 -14 -52 -74 -67 -64 -6 3 -7 1 -3 -6 5 -7 -36 -56 -111 -132
l-118 -120 -5 465 -5 464 -24 26 c-30 32 -87 35 -122 7 -32 -26 -44 -105 -36
-241 2 -36 1 -69 -2 -75 -8 -15 -10 -35 -3 -35 4 0 8 -20 8 -45 1 -27 -2 -42
-8 -39 -12 8 -7 -46 6 -64 7 -9 5 -16 -5 -23 -12 -7 -12 -9 1 -9 12 0 12 -2 2
-8 -9 -7 -10 -15 -3 -35 6 -15 7 -27 2 -27 -10 0 -7 -66 5 -94 5 -12 4 -17 -3
-13 -9 6 -9 -67 1 -153 2 -19 -1 -38 -8 -42 -8 -6 -8 -8 0 -8 11 0 11 -41 0
-93 -2 -9 0 -15 5 -11 5 3 9 0 9 -5 0 -6 -5 -11 -10 -11 -7 0 -7 -6 -1 -17 5
-10 7 -34 4 -53 -2 -19 -6 -60 -7 -90 -2 -30 -4 -56 -5 -57 -3 -4 -136 140
-136 148 0 5 -3 8 -7 7 -12 -5 -87 75 -81 85 3 6 2 7 -4 4 -10 -6 -69 48 -75
68 -2 6 -6 9 -9 8 -3 -1 -74 67 -158 152 -86 86 -163 155 -176 157 -55 11
-109 -36 -107 -94 0 -18 -3 -26 -10 -22 -7 4 -8 2 -4 -5 4 -6 10 -10 14 -8 4
2 25 -17 47 -42 22 -24 35 -41 28 -38 -6 4 -14 3 -17 -2 -4 -5 2 -8 11 -6 20
3 55 -23 48 -36 -3 -4 0 -11 6 -15 8 -5 9 -3 4 7 -4 8 13 -6 39 -31 45 -43 57
-58 36 -45 -5 3 -10 1 -10 -4 0 -6 5 -11 11 -11 6 0 9 -7 6 -14 -4 -10 -1 -13
8 -9 8 3 12 10 9 17 -4 6 25 -20 64 -59 39 -38 69 -71 67 -73 -2 -2 22 -28 53
-58 32 -30 48 -51 37 -48 -11 4 -17 4 -13 0 3 -4 13 -9 22 -10 23 -3 96 -77
89 -89 -3 -6 -2 -7 4 -4 5 3 27 -11 47 -32 21 -21 34 -41 29 -43 -4 -3 -3 -4
3 -2 12 2 67 -49 65 -60 -1 -3 2 -6 5 -5 15 3 65 -57 60 -73 -2 -10 -1 -16 2
-14 4 2 7 -60 7 -139 0 -83 -4 -141 -9 -137 -5 3 -6 0 -2 -7 4 -6 7 -96 6
-199 -1 -211 -1 -240 4 -299 2 -24 -1 -43 -5 -43 -5 0 -9 -5 -9 -11 0 -5 3 -8
8 -6 4 3 7 -36 8 -86 1 -54 -2 -84 -7 -72 -6 16 -8 17 -8 3 -1 -9 4 -20 9 -23
6 -4 8 -26 3 -58 -7 -57 -9 -94 -4 -117 2 -8 3 -34 2 -57 -1 -32 -5 -43 -17
-43 -8 0 -12 -5 -9 -10 4 -6 -26 -10 -82 -10 -48 0 -119 -5 -158 -10 -71 -10
-71 -10 -126 -77 -7 -9 -6 -13 1 -13 5 0 10 -9 10 -19 0 -65 40 -83 167 -76
54 3 127 8 163 10 88 5 393 -12 477 -26 37 -6 100 -20 138 -31 114 -32 108
-30 93 -40 -9 -6 -6 -7 9 -3 15 4 28 -1 44 -17 12 -13 19 -17 14 -10 -16 30
63 -34 95 -75 82 -108 18 -232 -186 -359 -47 -29 -78 -42 -90 -38 -14 4 -15 3
-6 -4 16 -11 -122 -87 -140 -76 -6 4 -8 3 -5 -3 8 -13 -41 -36 -55 -27 -6 4
-8 3 -5 -3 8 -12 -81 -56 -95 -47 -7 5 -8 2 -3 -6 6 -10 4 -12 -8 -7 -9 3 -16
2 -14 -3 3 -13 -133 -91 -146 -83 -6 3 -7 1 -3 -5 7 -11 -50 -59 -65 -55 -5 2
-8 -1 -6 -5 4 -14 -70 -102 -79 -94 -5 4 -6 3 -2 -2 4 -5 -2 -26 -13 -47 -11
-22 -26 -65 -33 -97 -9 -35 -15 -47 -15 -30 -1 15 -5 29 -9 32 -5 3 -8 -23 -8
-57 1 -48 5 -65 19 -76 12 -9 17 -22 14 -37 -2 -13 -1 -21 3 -19 3 2 15 -15
25 -38 10 -23 24 -49 31 -57 11 -13 -37 -15 -425 -14 -431 2 -493 6 -476 34 3
6 -1 7 -9 4 -10 -4 -21 6 -33 28 -17 31 -18 92 -21 1118 -3 1063 0 1234 29
1408 l12 69 66 7 c100 10 178 33 265 79 109 56 146 93 146 145 0 32 -6 45 -26
61 -39 31 -77 26 -152 -19 -100 -59 -171 -80 -287 -86 -69 -3 -94 -1 -80 5 15
8 10 9 -20 5 -101 -14 -375 104 -359 154 4 11 3 13 -3 5 -11 -16 -44 12 -113
97 -105 128 -154 277 -153 460 2 274 108 474 334 628 26 17 49 29 52 26 10
-10 16 54 21 211 5 155 20 248 61 371 44 133 140 318 158 307 6 -3 7 -1 4 4
-4 6 14 40 40 74 57 79 213 240 225 233 5 -3 7 -1 6 4 -7 21 145 125 281 192
130 65 296 116 426 133 85 11 329 6 416 -9z m1471 -1245 c63 -9 76 -14 71 -28
-4 -13 -3 -13 5 -2 8 11 18 12 58 2 105 -26 244 -73 244 -82 0 -6 4 -8 9 -4
15 8 92 -26 84 -38 -3 -6 -1 -7 6 -3 16 10 53 -3 45 -16 -5 -7 -2 -8 5 -3 16
9 92 -25 84 -38 -3 -6 -1 -7 5 -3 24 14 368 -196 356 -216 -4 -7 -2 -8 4 -4
25 15 391 -331 376 -356 -4 -6 -3 -8 3 -5 6 4 16 0 23 -8 7 -8 9 -15 4 -15 -5
0 2 -7 14 -16 12 -8 22 -21 21 -27 -3 -26 2 -37 16 -37 19 0 77 -80 70 -97 -2
-8 -1 -12 4 -8 12 7 73 -93 65 -107 -4 -6 -3 -8 3 -5 10 7 103 -179 151 -303
41 -104 85 -249 86 -281 1 -15 4 -25 7 -23 3 2 15 -50 27 -114 20 -110 24
-143 37 -285 l6 -58 -31 22 c-27 20 -43 38 -22 25 4 -2 14 -1 22 4 11 7 6 9
-15 7 -25 -1 -155 53 -175 73 -3 3 -9 5 -15 5 -5 0 -41 6 -80 13 -75 14 -152
10 -248 -14 -32 -8 -63 -12 -69 -8 -6 4 -8 3 -4 -4 3 -6 -2 -13 -12 -16 -10
-4 -45 -22 -77 -41 -63 -39 -70 -41 -59 -22 4 7 3 9 -2 4 -5 -5 -9 -12 -9 -15
-1 -4 -29 -36 -63 -71 -45 -46 -76 -90 -107 -155 -25 -50 -45 -85 -45 -78 0 6
-5 12 -11 12 -5 0 -7 -5 -3 -11 3 -6 0 -15 -7 -20 -11 -7 -9 -9 6 -10 11 0
-18 -9 -65 -19 -93 -20 -160 -46 -217 -84 -20 -14 -41 -22 -46 -19 -6 3 -7 2
-4 -4 7 -11 -66 -86 -76 -78 -4 3 -5 2 -2 -1 8 -12 -26 -65 -37 -58 -6 4 -8 3
-5 -4 4 -5 -1 -30 -11 -54 -18 -42 -37 -115 -34 -130 2 -10 0 -10 -73 2 -77
12 -430 47 -560 55 -55 4 -120 8 -145 11 -25 2 -299 7 -610 10 -311 4 -567 8
-569 10 -2 1 -4 262 -5 579 -1 464 1 574 11 571 7 -3 13 -1 13 3 0 5 -6 11
-12 14 -7 2 23 7 67 11 44 3 115 14 158 22 43 9 86 13 95 9 9 -3 13 -3 9 1 -4
5 41 24 100 44 557 188 964 680 1034 1250 6 52 12 155 13 227 1 113 3 132 16
129 8 -3 50 -10 92 -17z m1659 -2245 c32 -15 66 -36 76 -47 10 -11 12 -17 6
-13 -7 4 -13 2 -13 -4 0 -7 8 -9 19 -5 14 4 31 -8 65 -46 27 -30 45 -58 42
-66 -3 -8 -2 -12 3 -9 26 17 31 -73 31 -577 l0 -520 -23 24 c-12 13 -40 40
-62 58 -22 19 -39 39 -37 44 1 5 -1 6 -6 3 -5 -3 -27 7 -48 23 -21 16 -78 51
-126 78 -48 28 -84 54 -80 58 4 5 2 5 -4 2 -6 -4 -38 6 -70 22 -62 30 -221 91
-291 112 -24 6 -40 16 -36 22 4 6 1 7 -7 2 -15 -9 -131 25 -124 36 3 5 -1 6
-9 3 -8 -3 -88 11 -177 31 -89 20 -182 38 -206 42 -24 3 -44 10 -44 15 0 5 4
6 10 3 5 -3 7 0 4 8 -9 24 14 91 46 135 36 50 132 117 155 108 9 -3 14 -2 10
3 -9 15 72 24 150 16 65 -6 76 -4 93 13 11 11 26 46 32 79 24 116 95 253 122
236 6 -3 8 -1 4 5 -3 6 13 26 37 46 126 103 308 127 458 60z m-1301 -869 c66
-7 408 -73 492 -96 26 -7 45 -16 42 -21 -3 -4 2 -5 10 -2 22 8 237 -56 229
-69 -4 -6 -1 -7 6 -3 16 10 222 -74 214 -87 -3 -6 -1 -7 6 -3 14 9 152 -64
144 -77 -3 -6 -1 -7 5 -3 6 4 29 -5 52 -20 44 -29 50 -36 23 -28 -14 5 -15 4
-4 -4 8 -6 19 -8 25 -6 13 5 95 -63 161 -133 54 -58 101 -148 115 -222 5 -29
10 -159 10 -289 0 -349 20 -333 -401 -332 -292 1 -354 7 -473 42 -32 10 -35
13 -20 20 14 6 12 7 -8 3 -31 -6 -85 14 -238 86 -123 59 -202 107 -194 120 3
5 -1 6 -8 4 -18 -7 -110 64 -101 78 3 6 1 7 -6 3 -18 -11 -109 90 -142 158
-23 47 -30 75 -30 121 -1 71 7 92 71 205 100 173 103 315 8 458 -15 24 -26 48
-22 53 3 5 2 8 -3 7 -5 -2 -24 10 -42 25 -31 25 -32 28 -10 23 13 -3 53 -8 89
-11z"/>
</g>
</svg>
