<?xml version="1.0" standalone="no"?>
<!DOCTYPE svg PUBLIC "-//W3C//DTD SVG 20010904//EN" "http://www.w3.org/TR/2001/REC-SVG-20010904/DTD/svg10.dtd">
<svg xmlns="http://www.w3.org/2000/svg" version="1.0" width="1024.000000pt" height="1024.000000pt" viewBox="0 0 1024.000000 1024.000000" preserveAspectRatio="xMidYMid meet">
<metadata>
Created by potrace 1.16, written by Peter Selinger 2001-2019
<meta name="Producer" content="Online-Convert"/></metadata>
<g transform="translate(0.000000,1024.000000) scale(0.100000,-0.100000)" fill="#000000" stroke="none">
<path d="M3238 7224 c-3 -3 -28 -7 -55 -9 -87 -8 -128 -14 -160 -24 -22 -6 -33 -6 -33 0 0 6 -7 3 -17 -6 -10 -11 -28 -15 -49 -13 -18 2 -31 0 -28 -4 3 -4 -15 -12 -38 -18 -83 -22 -80 -21 -217 -81 -66 -29 -115 -67 -119 -93 -4 -22 16 -65 38 -83 8 -7 11 -13 5 -13 -5 0 1 -6 15 -13 14 -7 24 -21 24 -31 -1 -9 3 -15 9 -13 14 4 129 -122 121 -134 -3 -5 1 -9 9 -9 16 0 69 -54 62 -63 -3 -4 -2 -5 1 -2 6 4 34 -19 35 -29 0 -3 33 -37 72 -76 40 -40 66 -69 60 -66 -8 5 -11 2 -7 -8 3 -8 11 -13 18 -10 13 5 73 -65 68 -79 -1 -5 2 -6 6 -3 5 3 32 -18 60 -48 27 -29 80 -76 116 -105 39 -32 63 -57 59 -64 -3 -7 -3 -9 1 -5 5 4 45 -16 90 -44 88 -56 227 -118 264 -118 13 0 20 -4 17 -10 -3 -5 -1 -10 4 -10 6 0 11 -8 11 -17 -1 -11 -28 -36 -66 -62 -36 -24 -87 -63 -113 -87 -27 -24 -51 -41 -55 -39 -3 3 -4 2 -1 -2 7 -10 -46 -63 -57 -57 -5 3 -7 2 -6 -3 4 -12 -139 -183 -146 -175 -4 3 -4 0 -1 -9 3 -8 -4 -24 -15 -36 -11 -12 -20 -25 -20 -29 0 -18 -63 -103 -73 -97 -6 3 -7 1 -3 -6 4 -7 -13 -57 -38 -114 -25 -56 -53 -129 -62 -162 -9 -33 -23 -82 -30 -110 -8 -27 -17 -77 -20 -110 -2 -33 -7 -68 -10 -78 -9 -29 15 -74 47 -87 46 -19 163 -4 281 36 104 35 274 115 306 144 30 26 79 50 87 42 5 -4 5 -1 1 6 -4 7 -2 12 5 12 6 0 19 8 28 18 31 35 98 81 106 74 5 -4 5 -2 2 4 -4 6 3 20 15 30 l21 19 -6 -34 c-4 -18 -7 -38 -7 -43 0 -5 -4 -6 -10 -3 -6 3 -7 -1 -4 -9 3 -9 1 -53 -5 -98 -20 -156 -14 -439 11 -543 5 -22 9 -47 10 -55 0 -8 7 -46 15 -84 8 -37 16 -73 17 -80 3 -11 18 -52 35 -91 36 -86 51 -134 45 -150 -5 -12 -4 -16 4 -11 7 4 19 -9 32 -34 11 -22 17 -40 13 -40 -5 0 -3 -4 3 -8 7 -4 21 -23 32 -43 42 -76 47 -84 64 -108 10 -13 15 -28 11 -35 -3 -6 -3 -8 2 -4 12 11 64 -63 60 -84 -2 -10 0 -16 6 -13 10 7 66 -54 62 -67 -2 -4 0 -7 5 -6 10 4 102 -96 102 -111 0 -7 4 -10 8 -7 13 8 74 -52 66 -66 -4 -6 -3 -8 3 -5 5 4 33 -13 60 -36 28 -23 60 -49 72 -57 13 -8 36 -26 53 -40 16 -14 46 -35 66 -46 21 -12 36 -28 36 -36 -1 -8 5 -15 12 -15 7 0 11 4 8 9 -3 5 45 -18 108 -51 62 -32 115 -59 118 -58 7 2 134 -46 140 -53 3 -3 14 -6 25 -6 11 0 19 -4 18 -10 -1 -6 13 -8 33 -6 19 2 40 0 47 -6 6 -5 33 -13 60 -16 26 -4 45 -10 43 -14 -2 -4 17 -7 42 -6 26 0 63 -3 82 -8 19 -4 109 -10 200 -13 214 -7 366 -24 380 -43 3 -4 34 -18 70 -31 36 -13 94 -35 130 -48 48 -19 82 -25 130 -24 89 2 119 5 115 12 -2 3 5 12 17 20 54 37 76 61 98 111 14 29 28 55 33 56 4 2 5 8 2 13 -6 9 34 180 54 232 6 15 15 27 21 27 6 0 8 5 5 10 -7 11 71 170 133 274 40 65 91 168 97 196 2 8 19 56 38 105 19 50 38 104 40 120 3 17 9 41 12 55 30 125 43 340 30 525 -7 100 -35 247 -69 360 -2 6 -4 13 -5 18 0 4 -8 21 -16 37 -9 17 -13 30 -9 30 4 0 2 6 -4 13 -5 6 -8 28 -6 47 3 24 1 31 -5 21 -8 -12 -12 -9 -22 15 -6 16 -24 57 -40 91 -16 35 -29 67 -29 72 0 5 -3 11 -7 13 -11 4 -69 120 -65 131 1 5 -2 6 -8 2 -5 -3 -10 -2 -10 3 0 16 -131 204 -189 272 -31 36 -96 105 -146 154 -49 49 -89 93 -87 98 1 5 -1 7 -6 4 -13 -8 -83 54 -76 66 4 7 2 8 -4 4 -15 -9 -133 74 -125 87 3 6 2 7 -4 4 -5 -3 -38 12 -74 34 -35 21 -79 44 -96 50 -18 6 -33 15 -33 20 0 6 -4 8 -9 5 -5 -4 -11 -3 -13 2 -1 4 -32 20 -68 36 -36 15 -78 34 -95 41 -29 12 -67 26 -92 32 -7 2 -19 4 -25 6 -7 2 -39 11 -72 21 -32 9 -70 19 -85 21 -14 2 -42 6 -61 10 -74 14 -110 16 -286 18 -136 2 -185 5 -197 16 -9 7 -14 18 -10 25 3 6 3 8 -2 4 -11 -10 -65 23 -65 40 0 7 -5 10 -10 7 -15 -9 -41 14 -33 29 3 6 3 8 -2 4 -4 -4 -24 2 -45 12 -86 44 -207 40 -300 -10 -28 -15 -36 -4 -45 65 -8 54 -56 189 -99 274 -15 28 -24 57 -20 63 4 6 3 8 -3 5 -6 -4 -28 20 -49 53 -21 33 -42 60 -47 60 -4 0 -5 5 -2 10 3 6 1 10 -5 10 -6 0 -8 5 -5 10 4 6 3 9 -2 8 -4 -2 -29 17 -54 42 -25 25 -55 53 -68 63 -12 10 -19 22 -16 28 4 5 3 9 -2 8 -21 -4 -34 2 -27 13 4 7 3 8 -4 4 -7 -4 -31 6 -54 22 -24 16 -51 32 -61 35 -11 4 -15 12 -11 18 4 7 3 9 -4 5 -12 -7 -132 41 -148 61 -7 9 -13 10 -15 4 -3 -7 -15 -8 -39 -1 -43 11 -87 20 -120 25 -14 2 -52 8 -85 14 -63 11 -228 15 -237 5z m315 -148 c150 -33 198 -49 224 -75 15 -14 23 -20 18 -12 -6 11 -4 13 11 7 66 -25 209 -130 199 -147 -4 -5 1 -6 9 -3 16 6 40 -28 28 -41 -4 -4 0 -6 8 -3 18 6 54 -37 46 -57 -3 -9 0 -12 8 -9 15 6 42 -28 74 -92 19 -37 19 -41 4 -51 -15 -9 -13 -10 8 -9 23 1 28 -7 55 -84 17 -47 33 -90 37 -95 3 -6 5 -29 5 -52 -1 -22 1 -39 6 -36 4 2 7 -5 7 -15 0 -11 3 -35 7 -53 6 -33 6 -34 -14 -16 -11 9 -24 17 -30 17 -16 0 -41 34 -38 53 2 9 -1 17 -7 17 -6 0 -7 -7 -4 -16 4 -10 2 -14 -6 -11 -7 2 -12 9 -11 14 1 5 -6 9 -15 9 -9 1 -91 51 -182 113 -91 62 -178 120 -195 129 -16 10 -36 23 -43 30 -8 6 -22 17 -33 23 -11 5 -16 15 -13 21 4 7 2 8 -5 4 -16 -10 -64 22 -55 36 4 7 3 8 -5 4 -7 -5 -29 3 -51 18 -22 14 -44 26 -50 26 -5 0 -10 4 -10 8 0 9 -45 37 -84 52 -15 5 -25 6 -22 1 3 -5 -3 -11 -14 -14 -11 -3 -26 -20 -34 -37 -12 -30 -11 -34 11 -56 13 -13 25 -24 27 -24 2 0 44 -25 94 -55 86 -54 90 -57 86 -88 l-3 -32 10 28 c9 23 13 26 26 15 8 -7 25 -17 37 -23 11 -7 20 -17 18 -24 -1 -7 2 -10 7 -6 12 7 212 -124 206 -135 -3 -4 3 -7 13 -6 10 0 16 -5 14 -14 -2 -8 0 -12 3 -8 10 10 47 -11 40 -22 -3 -6 0 -7 8 -4 8 3 18 0 23 -7 5 -8 3 -10 -6 -4 -9 5 -11 4 -6 -4 4 -6 11 -9 16 -6 5 3 28 -6 50 -20 32 -20 40 -30 35 -45 -4 -12 -2 -20 4 -20 6 0 10 3 8 8 -5 15 19 10 56 -13 l38 -22 -44 -21 c-25 -12 -58 -24 -73 -28 -16 -4 -35 -12 -43 -18 -9 -7 -68 -11 -160 -11 -128 0 -155 3 -219 24 -84 29 -248 113 -245 127 1 6 -7 10 -17 11 -11 1 -35 18 -55 37 -20 20 -39 36 -44 36 -14 0 -51 46 -44 55 5 4 3 5 -3 2 -7 -4 -30 13 -53 38 -23 25 -46 45 -51 45 -9 0 -14 15 -11 33 1 5 -3 6 -8 3 -5 -3 -35 24 -67 61 -33 37 -71 78 -87 91 -15 13 -24 28 -21 33 3 5 2 8 -3 7 -4 -2 -67 60 -140 138 l-132 140 94 37 c246 97 578 137 778 93z m1127 -857 c0 -5 3 -8 8 -8 19 3 33 -2 27 -11 -3 -5 0 -7 9 -4 9 3 20 -3 28 -15 7 -12 19 -21 26 -21 7 0 17 -10 22 -22 5 -13 9 -17 9 -9 1 12 4 11 19 -1 9 -9 39 -28 65 -43 47 -26 52 -26 213 -26 91 1 168 2 172 3 4 1 23 -2 42 -7 19 -5 43 -7 54 -6 10 2 23 -3 27 -11 6 -9 9 -10 9 -1 0 9 7 10 23 4 12 -5 47 -14 77 -21 30 -6 91 -23 134 -38 66 -22 75 -28 55 -33 -16 -5 -18 -7 -6 -8 9 -1 17 -7 17 -13 0 -9 3 -8 10 2 9 15 31 20 40 10 3 -3 52 -28 110 -57 139 -69 263 -150 254 -166 -4 -7 -4 -9 1 -5 16 15 69 -27 221 -176 107 -104 154 -158 149 -166 -5 -8 -4 -11 3 -6 6 3 21 -8 33 -26 13 -18 26 -35 30 -38 7 -5 39 -66 40 -75 0 -2 14 -18 30 -35 19 -18 29 -36 25 -46 -3 -8 -2 -12 4 -9 17 10 32 -33 20 -57 -10 -20 -9 -21 2 -7 11 13 16 14 25 4 9 -10 9 -16 0 -25 -9 -10 -9 -11 1 -6 14 8 85 -131 77 -151 -2 -7 1 -12 8 -10 7 1 12 -7 12 -18 0 -11 3 -22 7 -25 3 -3 16 -33 27 -68 12 -35 26 -71 31 -80 9 -18 58 -240 67 -307 14 -97 6 -437 -11 -463 -3 -5 -8 -24 -10 -43 -6 -41 -11 -59 -19 -79 -4 -8 -9 -26 -11 -40 -3 -14 -5 -26 -7 -27 -1 -2 -3 -7 -4 -13 -1 -5 -4 -12 -5 -15 -1 -3 -3 -8 -5 -12 -7 -28 -72 -175 -100 -228 -12 -22 -27 -39 -34 -37 -7 1 -10 -2 -6 -8 8 -13 -64 -142 -75 -135 -5 3 -8 -3 -8 -12 1 -10 -12 -47 -28 -83 -17 -36 -38 -92 -48 -125 -10 -33 -20 -67 -23 -75 -4 -8 -5 -18 -5 -22 1 -5 -3 -8 -8 -8 -6 0 -10 -10 -10 -22 0 -41 -12 -68 -29 -68 -10 0 -12 -3 -5 -8 7 -4 9 -21 7 -39 -5 -30 -13 -38 -37 -34 -5 1 -6 -5 -3 -13 12 -31 -19 -44 -95 -43 -59 2 -72 5 -70 17 3 11 0 12 -8 4 -9 -9 -24 -5 -61 12 -27 13 -53 24 -59 24 -6 0 -18 4 -28 9 -42 21 -94 41 -108 41 -9 0 -12 5 -8 13 6 9 4 9 -7 1 -19 -15 -83 2 -72 19 4 8 1 7 -10 -1 -9 -8 -22 -10 -29 -6 -7 4 -85 9 -173 10 -162 3 -345 19 -415 37 -8 3 -30 8 -48 12 -24 6 -30 10 -20 16 9 6 9 9 1 9 -6 0 -14 -4 -17 -9 -6 -9 -37 -1 -101 24 -16 7 -57 22 -90 33 -68 23 -170 74 -202 102 -12 10 -24 16 -26 13 -7 -7 -92 57 -90 68 2 4 -3 6 -10 4 -14 -6 -73 43 -69 57 1 5 -2 7 -8 3 -6 -4 -28 11 -50 33 -22 21 -41 37 -43 35 -9 -8 -157 158 -151 169 4 6 3 8 -4 4 -18 -11 -157 167 -145 187 3 6 1 7 -4 4 -10 -7 -28 20 -25 36 1 4 -2 7 -7 7 -14 0 -53 71 -47 87 3 8 2 11 -4 8 -5 -3 -14 4 -20 15 -6 11 -7 20 -3 20 4 0 3 4 -3 8 -20 12 -80 167 -125 318 -46 155 -67 411 -50 599 17 181 90 455 122 455 6 0 7 4 4 10 -5 9 53 95 98 144 9 11 17 24 17 28 0 5 5 6 10 3 6 -4 10 -3 9 2 -4 21 2 34 13 27 6 -4 8 -3 5 3 -4 5 5 25 19 44 46 62 114 196 144 283 16 47 27 86 24 86 -3 0 0 8 5 18 11 21 18 73 27 200 l7 93 51 26 c71 37 176 50 176 22z m-367 -216 c-17 -120 -70 -286 -99 -309 -8 -6 -11 -13 -9 -16 15 -15 -251 -372 -268 -361 -5 3 -7 1 -3 -5 10 -17 -209 -230 -304 -295 -135 -92 -197 -129 -270 -159 -87 -36 -123 -50 -150 -54 -8 -1 -35 -8 -59 -15 -51 -14 -63 -4 -51 45 10 37 31 127 34 141 20 94 115 302 131 288 4 -5 5 -3 1 4 -9 17 17 63 101 173 85 114 247 275 264 264 7 -4 9 -3 6 4 -8 12 73 72 171 125 63 34 75 37 90 26 15 -12 16 -12 4 2 -11 14 -6 19 35 34 27 10 57 24 68 31 11 7 76 31 145 54 69 23 132 46 140 51 25 15 29 10 23 -28z"/>
</g>
</svg>
