<?xml version="1.0" standalone="no"?>
<!DOCTYPE svg PUBLIC "-//W3C//DTD SVG 20010904//EN"
 "http://www.w3.org/TR/2001/REC-SVG-20010904/DTD/svg10.dtd">
<svg version="1.0" xmlns="http://www.w3.org/2000/svg"
 width="1024.000000pt" height="1024.000000pt" viewBox="0 0 1024.000000 1024.000000"
 preserveAspectRatio="xMidYMid meet">
<metadata>
Created by potrace 1.16, written by Peter Selinger 2001-2019
</metadata>
<g transform="translate(0.000000,1024.000000) scale(0.100000,-0.100000)"
fill="#000000" stroke="none">
<path d="M5608 6566 c-46 -16 -121 -60 -137 -80 -7 -9 -18 -13 -24 -9 -5 3 -7
1 -3 -5 3 -6 -5 -27 -18 -47 -45 -65 -48 -108 -44 -610 l3 -470 37 -67 c20
-36 34 -69 30 -74 -4 -4 -2 -4 4 -1 12 7 57 -21 50 -32 -3 -3 3 -7 12 -8 23
-1 93 -28 88 -34 -2 -2 10 -4 27 -4 18 -1 71 -2 120 -3 l87 -2 0 -69 c0 -87
16 -170 37 -193 9 -10 29 -18 45 -18 31 0 37 6 236 195 l84 80 626 5 c713 6
679 2 777 92 39 35 60 64 74 104 20 52 21 75 21 529 0 442 -1 478 -19 525 -23
61 -70 122 -116 150 -20 12 -32 27 -29 32 4 6 3 8 -3 5 -5 -3 -34 0 -64 8 -76
21 -1844 21 -1901 1z m1862 -106 c19 -6 46 -20 60 -31 14 -11 19 -17 11 -13
-9 4 -12 3 -7 -4 4 -6 13 -9 20 -6 9 4 25 -12 43 -43 l28 -48 3 -447 c2 -281
-1 -462 -7 -485 -13 -48 -68 -116 -88 -109 -8 3 -12 2 -9 -3 3 -4 -7 -14 -22
-22 -22 -11 -145 -14 -655 -16 -571 -3 -630 -4 -660 -20 -17 -9 -36 -16 -42
-14 -5 1 -7 -1 -2 -5 10 -10 -43 -65 -56 -57 -6 3 -7 2 -4 -4 3 -5 -24 -39
-61 -76 l-68 -66 -2 96 c-3 95 -13 126 -42 140 -8 4 -76 10 -151 13 -127 5
-138 7 -177 33 -23 15 -52 46 -64 70 -23 42 -23 42 -22 507 0 453 1 466 21
506 21 39 73 83 123 103 34 13 1783 14 1830 1z"/>
<path d="M6059 5921 c-38 -39 -39 -87 -3 -130 22 -27 33 -31 73 -31 55 0 84
24 96 77 19 92 -98 152 -166 84z"/>
<path d="M6510 5932 c-27 -19 -34 -34 -33 -72 1 -56 11 -84 29 -88 29 -7 136
-11 130 -4 -3 3 1 13 10 23 9 10 18 36 21 58 5 35 2 44 -25 71 -36 35 -91 41
-132 12z"/>
<path d="M6952 5930 c-39 -32 -47 -74 -24 -121 19 -39 19 -40 1 -23 -10 9 -19
23 -19 30 0 7 -4 16 -10 19 -15 9 0 -27 21 -50 13 -15 33 -21 77 -23 56 -3 61
-1 86 28 36 44 35 92 -3 131 -36 35 -93 39 -129 9z"/>
<path d="M4050 6550 c-59 -11 -137 -37 -178 -61 -19 -11 -38 -16 -44 -13 -6 4
-8 3 -5 -3 4 -6 -14 -24 -38 -42 -52 -38 -104 -98 -146 -172 -17 -30 -28 -46
-25 -36 3 9 0 17 -5 17 -7 0 -9 -9 -6 -22 3 -11 -3 -58 -13 -102 -39 -162 -19
-333 57 -486 21 -41 37 -81 37 -87 -1 -7 2 -11 6 -8 9 6 43 -75 35 -83 -3 -3
-5 -1 -5 4 0 5 -10 20 -21 34 -22 26 -22 22 1 -22 7 -16 19 -28 26 -28 7 0 17
-27 25 -69 27 -154 -41 -313 -165 -386 -23 -13 -95 -45 -161 -71 -66 -25 -137
-55 -158 -66 -21 -10 -43 -16 -49 -12 -7 4 -8 3 -4 -4 4 -6 -4 -16 -16 -23
-13 -6 -51 -34 -85 -60 -40 -31 -63 -44 -67 -36 -3 7 -4 5 -3 -3 1 -9 -13 -35
-32 -59 -31 -39 -36 -42 -43 -25 -7 15 -7 14 -4 -5 3 -15 -5 -41 -19 -65 -34
-58 -61 -138 -79 -231 -20 -102 -38 -399 -26 -430 5 -13 6 -25 2 -28 -4 -2 -2
-2 5 -1 7 2 19 -4 28 -12 13 -14 18 -13 44 5 32 23 41 66 41 214 0 107 23 269
50 343 63 179 186 289 433 384 67 26 141 56 164 68 23 12 50 19 60 16 12 -4
14 -3 6 3 -9 6 2 19 35 43 103 76 162 214 162 376 0 108 -27 200 -93 324 -73
138 -89 197 -88 322 0 98 5 126 38 217 11 32 18 40 25 30 7 -10 8 -8 3 7 -8
30 58 111 130 158 85 57 155 79 255 80 91 1 204 -19 195 -35 -3 -5 0 -6 7 -4
18 7 124 -58 120 -74 -1 -7 2 -9 8 -6 16 10 60 -41 55 -65 -2 -12 0 -18 6 -15
5 4 6 11 3 17 -4 7 -2 8 4 4 17 -10 59 -85 77 -135 8 -24 24 -101 35 -170 20
-137 30 -168 60 -212 11 -15 19 -31 18 -36 -2 -4 0 -8 4 -8 10 0 58 -47 58
-57 0 -5 -20 -18 -45 -29 -24 -11 -47 -24 -50 -29 -9 -15 -27 -12 -19 3 4 6 3
9 -1 4 -11 -9 -13 -25 -25 -164 -14 -168 -36 -189 -209 -195 -134 -5 -141 -11
-141 -140 0 -60 5 -99 15 -118 8 -16 15 -33 14 -37 -1 -4 -1 -15 0 -23 1 -13
3 -13 10 -1 7 11 13 12 23 4 7 -6 56 -23 108 -38 240 -66 351 -111 462 -187
80 -54 178 -188 164 -224 -3 -8 -2 -13 3 -10 21 14 57 -209 67 -417 8 -150 14
-173 48 -189 20 -9 30 -8 51 6 23 15 25 22 25 97 0 113 -27 359 -51 459 -11
47 -31 109 -44 138 -13 29 -22 60 -19 70 5 13 4 14 -4 4 -7 -11 -14 -6 -31 21
-11 19 -44 56 -73 83 -29 27 -52 53 -50 57 1 5 -1 6 -6 3 -5 -3 -26 7 -47 21
-61 41 -187 93 -365 148 -162 51 -165 53 -177 86 -26 74 -24 76 80 81 78 3
100 8 145 33 90 49 110 91 121 250 l6 90 35 10 c47 14 98 67 106 111 5 28 1
48 -17 85 -13 27 -29 49 -35 49 -19 0 -61 54 -77 100 -9 25 -21 86 -27 135
-19 157 -58 257 -136 349 -18 21 -31 43 -28 48 3 5 2 7 -3 6 -14 -5 -103 64
-96 75 3 6 1 7 -5 3 -6 -4 -22 0 -34 8 -32 20 -123 52 -186 65 -59 12 -154 13
-222 1z"/>
</g>
</svg>
