<?xml version="1.0" standalone="no"?>
<!DOCTYPE svg PUBLIC "-//W3C//DTD SVG 20010904//EN" "http://www.w3.org/TR/2001/REC-SVG-20010904/DTD/svg10.dtd">
<svg xmlns="http://www.w3.org/2000/svg" version="1.0" width="1024.000000pt" height="1024.000000pt" viewBox="0 0 1024.000000 1024.000000" preserveAspectRatio="xMidYMid meet">
<metadata>
Created by potrace 1.16, written by Peter Selinger 2001-2019
<meta name="Producer" content="Online-Convert"/></metadata>
<g transform="translate(0.000000,1024.000000) scale(0.100000,-0.100000)" fill="#000000" stroke="none">
<path d="M4890 7799 c-487 -42 -1006 -249 -1410 -562 -127 -99 -353 -322 -439 -434 -35 -45 -68 -80 -74 -76 -6 3 -7 1 -3 -5 3 -6 -16 -43 -42 -84 -27 -40 -61 -94 -76 -121 -16 -26 -33 -44 -38 -40 -7 3 -8 1 -4 -5 4 -6 -16 -56 -44 -111 -170 -340 -255 -657 -281 -1056 -19 -277 11 -569 86 -846 38 -142 99 -314 150 -423 24 -51 30 -75 23 -84 -8 -9 -7 -11 3 -7 10 3 34 -31 76 -108 35 -61 76 -132 92 -156 17 -25 27 -49 24 -55 -3 -6 -3 -8 2 -4 4 4 37 -33 74 -82 400 -538 985 -899 1661 -1025 175 -32 477 -53 595 -40 28 3 97 10 155 16 472 49 925 232 1339 542 109 82 336 303 431 421 314 389 522 892 586 1421 19 154 14 466 -10 635 -66 470 -258 914 -556 1290 -366 461 -885 792 -1465 934 -269 66 -575 89 -855 65z m348 -119 c23 1 89 -4 145 -10 457 -50 893 -222 1260 -499 138 -103 201 -162 185 -172 -11 -7 -11 -9 0 -9 7 0 11 -4 8 -8 -3 -5 1 -9 9 -9 11 0 12 4 4 14 -8 8 -8 13 -1 13 17 0 207 -207 281 -305 150 -198 276 -421 360 -632 359 -906 141 -1973 -551 -2695 -379 -396 -883 -656 -1443 -744 -141 -22 -435 -29 -591 -15 -246 23 -504 89 -742 188 -45 19 -61 30 -57 41 4 12 2 12 -8 3 -11 -9 -37 1 -118 42 -384 195 -729 510 -975 889 -72 111 -98 158 -87 158 5 0 3 4 -4 8 -27 17 -129 247 -183 411 -153 468 -167 976 -39 1467 85 327 264 675 493 954 95 117 284 303 298 294 6 -4 8 -3 5 3 -8 13 163 144 298 228 275 171 639 307 970 360 118 20 331 35 395 29 25 -3 64 -4 88 -4z"/>
<path d="M5097 7447 c-33 -14 -118 -111 -233 -263 -161 -216 -265 -411 -335 -629 -23 -71 -44 -137 -46 -145 -3 -8 -6 -26 -7 -40 -2 -14 -8 -72 -16 -130 -24 -196 6 -452 74 -622 14 -36 26 -70 26 -76 0 -7 5 -12 10 -12 6 0 10 -5 10 -10 0 -6 -19 2 -42 18 -88 59 -228 112 -367 139 -115 22 -336 21 -456 -1 -315 -60 -635 -227 -881 -459 -62 -58 -77 -79 -79 -104 -1 -18 1 -31 4 -31 10 3 96 -85 96 -96 0 -6 5 -11 10 -11 6 0 48 -30 95 -66 191 -148 330 -221 570 -302 25 -9 37 -16 28 -16 -24 -1 -23 -17 2 -24 14 -3 20 0 20 10 0 11 6 14 23 9 134 -37 430 -52 562 -27 107 19 225 59 320 106 80 40 103 42 71 6 -19 -22 -72 -191 -88 -281 -21 -123 -15 -385 12 -505 78 -349 274 -698 567 -1012 72 -78 92 -80 150 -20 283 292 515 702 580 1022 25 128 25 445 -1 565 -20 92 -72 247 -87 256 -5 3 -9 10 -9 15 0 9 59 -27 71 -44 3 -5 10 -8 15 -8 5 0 50 -15 99 -34 394 -151 844 -91 1264 170 159 98 364 279 373 329 3 15 3 25 1 22 -3 -2 -32 22 -66 53 -122 114 -184 163 -302 238 -370 235 -779 313 -1148 219 -101 -26 -232 -82 -284 -122 -34 -25 -46 -18 -17 10 8 9 13 16 11 16 -3 0 8 34 25 76 71 185 97 450 64 673 -43 290 -204 627 -445 929 -97 122 -190 222 -205 222 -6 -1 -23 -6 -39 -13z m38 -165 c19 -13 102 -117 167 -207 287 -400 412 -787 364 -1129 -43 -298 -182 -560 -430 -805 l-105 -104 -38 33 c-21 19 -37 38 -35 43 1 5 -2 6 -7 3 -15 -10 -197 191 -262 288 -223 332 -269 741 -128 1142 73 210 224 465 398 676 59 71 60 72 76 60z m-973 -1732 c236 -48 442 -170 645 -382 l43 -44 -93 -95 c-186 -193 -374 -299 -610 -344 -145 -27 -466 -13 -453 21 4 11 1 11 -13 2 -38 -23 -329 90 -481 187 -87 55 -224 161 -260 199 l-24 27 29 25 c88 72 103 83 110 76 5 -4 5 -2 2 4 -8 13 125 108 233 167 279 152 605 211 872 157z m2398 -4 c253 -58 523 -202 719 -382 l54 -50 -69 -60 c-205 -176 -403 -281 -664 -350 -97 -26 -119 -28 -290 -29 -172 0 -192 2 -284 28 -122 34 -262 99 -353 164 -77 54 -189 157 -235 215 l-30 39 78 80 c100 102 225 197 334 253 184 94 293 118 515 111 89 -2 189 -11 225 -19z m-1599 -533 c33 -39 151 -133 168 -133 11 0 55 34 99 75 l80 75 63 -68 c225 -238 341 -616 294 -957 -9 -66 -20 -121 -25 -123 -5 -2 -7 -9 -4 -16 13 -35 -92 -297 -182 -452 -74 -129 -301 -434 -323 -434 -10 0 -121 132 -195 233 -175 238 -291 488 -338 732 -16 88 -16 356 1 445 18 91 68 244 103 315 63 125 209 325 238 325 4 0 14 -7 21 -17z"/>
</g>
</svg>
