<?xml version="1.0" standalone="no"?>
<!DOCTYPE svg PUBLIC "-//W3C//DTD SVG 20010904//EN"
 "http://www.w3.org/TR/2001/REC-SVG-20010904/DTD/svg10.dtd">
<svg version="1.0" xmlns="http://www.w3.org/2000/svg"
 width="1024.000000pt" height="1024.000000pt" viewBox="0 0 1024.000000 1024.000000"
 preserveAspectRatio="xMidYMid meet">
<metadata>
Created by potrace 1.16, written by Peter Selinger 2001-2019
</metadata>
<g transform="translate(0.000000,1024.000000) scale(0.100000,-0.100000)"
fill="#000000" stroke="none">
<path d="M2439 7284 c-9 -11 -10 -20 -2 -32 9 -16 69 -17 734 -17 708 0 724 0
727 19 9 46 11 46 -739 46 -632 0 -708 -2 -720 -16z"/>
<path d="M7570 7241 c-36 -26 -173 -120 -305 -208 -227 -152 -393 -261 -1150
-761 -474 -312 -545 -362 -545 -378 0 -30 31 -25 95 15 l65 41 0 -100 0 -100
-65 -32 c-50 -25 -65 -37 -65 -54 0 -32 31 -35 84 -8 l46 23 0 -505 0 -505 48
-20 c26 -11 70 -29 97 -39 28 -10 106 -39 175 -64 69 -26 177 -65 240 -88 63
-23 129 -47 145 -54 17 -7 125 -47 240 -89 116 -42 246 -90 290 -107 44 -17
121 -45 170 -64 50 -18 216 -81 370 -140 154 -58 292 -109 306 -111 50 -9 50
46 1 65 -15 6 -72 27 -127 47 -55 21 -127 48 -160 61 l-60 24 1 908 c1 499 2
1059 3 1244 l1 337 68 37 c278 153 337 191 337 215 0 51 -41 38 -245 -81 -77
-45 -145 -80 -155 -80 -3 0 -5 92 -5 204 l0 205 110 76 c109 75 125 96 98 123
-20 20 -40 13 -108 -37z m-168 -464 l-5 -149 -31 -19 c-17 -10 -34 -19 -38
-19 -5 0 -8 87 -8 193 l0 192 37 32 38 31 5 -56 c3 -32 4 -124 2 -205z m-142
-31 l0 -195 -27 -18 c-16 -11 -57 -34 -93 -53 -36 -18 -117 -62 -180 -97 -63
-35 -121 -63 -127 -63 -10 0 -13 41 -13 170 l0 171 82 52 c45 29 141 91 213
139 71 48 133 88 138 88 4 0 7 -87 7 -194z m-504 -463 c-3 -7 -23 -21 -46 -33
l-40 -20 1 162 0 163 42 34 42 33 3 -163 c1 -90 0 -169 -2 -176z m652 -1015
c1 -631 -2 -1149 -6 -1152 -5 -3 -27 4 -50 14 l-42 19 1 1138 c0 626 3 1155 7
1175 5 28 16 44 42 62 l35 24 6 -67 c4 -36 7 -582 7 -1213z m-798 1093 l0
-159 -107 -60 c-60 -33 -141 -75 -180 -95 l-73 -35 0 138 0 138 92 59 c50 32
130 84 177 115 47 31 87 57 89 57 1 1 2 -71 2 -158z m650 -1040 c0 -654 -4
-1142 -9 -1145 -5 -3 -104 29 -220 71 l-211 76 0 953 0 953 48 26 c137 76 378
204 385 204 4 1 7 -512 7 -1138z m-1095 652 c-47 -41 -50 -33 -49 99 l2 122
33 27 34 28 3 -127 c3 -126 3 -127 -23 -149z m591 -1621 c-3 -2 -23 4 -45 14
l-41 19 3 885 2 884 40 23 40 22 3 -921 c1 -507 0 -923 -2 -926z m-694 1696
c-2 -62 -5 -118 -7 -124 -2 -6 -62 -41 -134 -77 l-131 -66 0 103 0 103 92 59
c50 32 110 71 132 86 23 15 43 28 46 28 3 0 4 -51 2 -112z m544 -1636 c-10 -9
-359 118 -357 131 1 4 1 321 1 705 l0 697 178 86 177 86 3 -850 c1 -468 0
-852 -2 -855z m-416 819 l0 -679 -40 15 -40 16 0 644 0 643 24 10 c13 5 27 14
31 19 3 6 10 11 16 11 5 0 9 -261 9 -679z m-141 -619 c-8 -2 -69 17 -135 41
l-119 45 -5 98 c-3 55 -3 283 0 507 l5 409 130 66 130 67 5 -615 c5 -554 3
-615 -11 -618z"/>
<path d="M7019 7133 c-79 -58 -382 -285 -674 -503 -291 -218 -584 -436 -650
-484 -89 -65 -120 -94 -120 -109 0 -43 8 -38 340 198 70 50 202 146 293 214
92 68 259 191 372 274 112 83 209 154 215 159 9 8 74 56 328 241 46 35 77 64
77 75 0 18 -18 42 -31 42 -4 0 -72 -48 -150 -107z"/>
<path d="M4875 7099 c-12 -38 17 -49 129 -49 56 0 107 4 114 9 8 4 12 19 10
32 -3 24 -5 24 -125 27 -118 3 -122 2 -128 -19z"/>
<path d="M2439 7064 c-9 -11 -10 -20 -2 -32 9 -15 35 -17 192 -20 l181 -2 0
-43 c0 -23 3 -72 6 -108 l7 -67 -111 -3 c-82 -3 -116 -8 -127 -19 -12 -13 -15
-73 -15 -405 -1 -388 -1 -390 21 -407 20 -17 60 -18 520 -18 473 0 500 1 518
19 26 26 32 133 27 496 -5 361 6 335 -147 335 l-99 0 0 110 0 110 204 0 c112
0 211 3 220 6 21 8 21 50 0 58 -9 3 -323 6 -699 6 -611 0 -684 -2 -696 -16z
m911 -164 l0 -110 -235 0 -235 0 0 110 0 110 235 0 235 0 0 -110z m240 -535
c0 -331 -1 -355 -17 -356 -17 0 -115 0 -730 1 l-213 0 0 355 0 355 480 0 480
0 0 -355z"/>
<path d="M3037 6681 c-2 -10 -3 -30 0 -43 4 -22 9 -24 44 -22 21 1 39 -2 39
-7 0 -5 -37 -9 -82 -9 -86 0 -152 -13 -164 -31 -9 -15 -44 -246 -44 -295 0
-30 6 -46 23 -62 13 -12 27 -19 30 -15 20 20 3 -12 -20 -38 -16 -17 -31 -41
-34 -53 -9 -33 40 -34 71 -1 l23 25 196 0 c176 0 197 -2 215 -19 30 -26 75
-36 82 -16 4 8 3 23 -2 33 -4 9 -6 21 -5 27 2 5 -1 7 -5 2 -8 -8 -44 20 -44
35 0 5 9 22 21 37 21 28 21 29 4 166 -9 76 -21 145 -27 155 -21 33 -53 45
-132 50 -74 5 -79 6 -63 22 9 9 22 18 28 20 8 3 10 14 5 31 -6 26 -8 27 -80
27 -64 0 -74 -3 -79 -19z m261 -163 c5 -7 13 -40 17 -72 4 -33 9 -64 11 -70 3
-8 -57 -10 -207 -8 l-212 3 7 67 c4 45 12 71 23 80 12 8 66 12 184 12 121 0
169 -3 177 -12z"/>
<path d="M4007 6649 c-102 -16 -196 -90 -248 -196 -20 -41 -24 -63 -24 -148 0
-87 3 -106 25 -149 37 -73 103 -141 168 -173 50 -24 69 -28 147 -28 82 0 96 3
151 32 132 69 203 198 191 346 -17 205 -203 348 -410 316z m191 -100 c78 -38
126 -97 148 -183 5 -20 2 -22 -28 -18 -23 2 -39 -2 -48 -13 -21 -26 0 -50 44
-50 30 0 36 -3 36 -22 0 -37 -40 -116 -78 -157 -85 -89 -205 -110 -317 -57
-56 26 -115 79 -115 102 0 6 -7 17 -15 25 -20 21 -38 90 -29 117 4 12 6 36 5
54 -6 83 82 190 184 223 75 25 129 19 213 -21z"/>
<path d="M4047 6563 c-11 -11 -8 -253 4 -275 13 -25 74 -51 100 -43 27 9 24
20 -16 52 l-35 28 0 105 c-1 71 -5 111 -14 123 -14 18 -28 22 -39 10z"/>
<path d="M2611 5876 c-8 -10 -10 -127 -7 -437 3 -233 5 -432 5 -442 1 -14 8
-18 29 -15 l27 3 3 440 c2 405 1 441 -15 453 -21 15 -28 15 -42 -2z"/>
<path d="M3385 5878 c-3 -7 -4 -215 -3 -463 l3 -450 23 -3 22 -3 -2 463 c-3
432 -4 463 -21 466 -9 2 -19 -2 -22 -10z"/>
<path d="M3592 5882 c-10 -7 -12 -138 -10 -623 3 -592 4 -614 22 -617 10 -2
22 2 27 10 5 7 9 283 9 614 0 638 -1 646 -48 616z"/>
<path d="M3092 5433 l3 -448 25 0 25 0 3 434 c2 451 1 461 -39 461 -19 0 -19
-15 -17 -447z"/>
<path d="M4685 5789 c-121 -30 -217 -90 -266 -167 -16 -26 -39 -76 -50 -112
-19 -61 -20 -91 -19 -464 2 -388 1 -400 -18 -415 -11 -9 -36 -41 -55 -71 -44
-71 -395 -677 -460 -795 -27 -49 -75 -135 -107 -190 -62 -108 -300 -529 -344
-609 -30 -53 -24 -76 20 -76 19 0 32 16 70 88 86 160 381 689 539 967 56 99
155 275 220 390 111 199 135 238 135 222 0 -12 -81 -217 -192 -487 -60 -146
-132 -321 -161 -390 -28 -69 -93 -224 -145 -345 -51 -121 -113 -265 -136 -320
-24 -55 -41 -106 -39 -112 3 -7 17 -13 33 -13 27 0 31 8 148 283 66 155 155
368 197 472 219 540 355 881 355 893 0 6 4 12 9 12 15 0 28 -24 36 -65 3 -21
13 -52 21 -67 15 -30 83 -78 109 -78 16 0 18 -21 7 -84 l-7 -39 -60 -1 c-54
-1 -60 -3 -63 -23 -3 -22 0 -23 59 -23 l62 0 -6 -37 c-4 -21 -15 -121 -27
-223 -11 -102 -22 -203 -25 -225 -3 -22 -12 -95 -21 -163 -8 -68 -19 -144 -23
-170 -5 -26 -15 -105 -22 -176 -12 -121 -12 -129 6 -142 12 -9 23 -10 35 -4
14 7 20 33 29 127 7 65 21 190 32 278 28 232 49 413 54 470 4 43 9 86 30 250
2 17 6 58 10 93 3 35 9 70 12 78 4 12 49 14 272 14 l266 0 24 -43 c33 -58 186
-289 241 -363 25 -33 88 -119 140 -190 133 -183 508 -674 538 -706 28 -30 53
-36 70 -15 14 18 8 29 -123 197 -155 199 -259 334 -376 490 -51 69 -97 127
-100 130 -12 9 -179 243 -255 358 -42 63 -72 117 -68 124 4 7 3 8 -4 4 -7 -4
-12 -2 -12 3 0 6 9 11 20 11 31 0 109 40 121 62 6 11 12 30 14 42 6 41 23 83
50 126 15 24 32 57 37 74 6 19 9 190 8 435 -2 373 -3 409 -21 456 -44 118
-121 192 -244 236 -54 19 -85 22 -300 25 -136 2 -257 -1 -280 -7z m470 -64
c180 -34 269 -112 311 -270 10 -37 14 -138 14 -391 0 -372 -5 -417 -56 -465
l-26 -24 -441 -3 c-503 -3 -484 -6 -526 82 -22 44 -22 51 -19 423 3 360 4 381
25 436 62 165 192 225 490 226 95 1 180 -4 228 -14z m215 -1260 c-22 -66 -15
-65 -423 -65 l-368 0 -24 25 c-16 15 -25 36 -25 54 l0 31 423 2 c232 2 423 0
425 -4 2 -4 -2 -24 -8 -43z"/>
<path d="M4625 5586 c-37 -17 -80 -62 -94 -99 -6 -16 -11 -86 -11 -157 0 -157
12 -195 73 -237 l42 -28 295 -3 c192 -2 308 0 332 7 44 14 93 67 107 118 6 21
11 90 11 153 0 157 -30 219 -119 249 -51 17 -596 14 -636 -3z m295 -146 c0
-86 2 -101 18 -109 33 -18 42 6 42 112 l0 99 124 -3 c139 -4 165 -15 199 -80
25 -48 21 -229 -7 -275 -37 -63 -46 -64 -349 -64 -269 0 -275 0 -308 23 -51
35 -59 58 -59 190 0 105 2 122 21 148 33 47 70 57 202 58 l117 1 0 -100z"/>
<path d="M4582 4903 c-32 -16 -62 -57 -62 -87 0 -38 33 -84 70 -96 72 -24 135
23 135 101 0 34 -6 46 -33 70 -37 33 -62 36 -110 12z"/>
<path d="M5254 4906 c-41 -18 -64 -52 -64 -96 0 -66 56 -109 125 -96 92 18
101 164 13 195 -38 13 -36 13 -74 -3z"/>
<path d="M4824 4796 c-16 -41 -1 -46 140 -46 127 0 136 1 146 21 7 11 9 23 7
26 -3 2 -69 7 -146 9 -122 5 -142 3 -147 -10z"/>
<path d="M3185 4840 c-22 -4 -157 -24 -300 -44 -143 -20 -268 -39 -278 -42
-19 -6 -51 -60 -43 -72 3 -5 16 -73 30 -153 36 -207 46 -255 69 -334 16 -55
21 -113 26 -273 6 -211 10 -227 51 -219 12 2 15 28 18 152 l2 150 223 0 222 0
5 -150 5 -150 25 0 25 0 3 147 3 148 27 6 c15 3 37 9 50 15 25 10 268 185 322
232 l35 31 3 -96 c3 -99 14 -127 47 -114 12 4 15 28 15 133 l0 128 31 26 c25
20 30 30 24 48 -14 46 -48 56 -211 60 l-152 3 -6 27 c-39 184 -78 328 -93 339
-18 13 -112 14 -178 2z m148 -95 c4 -22 20 -89 34 -149 27 -111 25 -125 -15
-126 -11 0 -152 -54 -382 -145 -140 -56 -123 -66 -160 92 -17 76 -40 172 -50
213 -10 41 -17 76 -16 78 2 1 113 18 247 38 134 19 246 38 248 40 3 3 23 4 45
2 38 -3 41 -5 49 -43z m-634 -122 c11 -43 30 -121 41 -173 11 -52 27 -117 35
-144 16 -54 7 -74 -36 -78 -20 -3 -24 5 -44 107 -13 61 -32 162 -44 225 -19
107 -20 116 -4 128 9 6 20 12 24 12 4 0 16 -35 28 -77z m1013 -228 c4 -5 -45
-37 -110 -71 -64 -34 -151 -80 -192 -103 l-75 -40 -260 0 -260 0 40 21 c22 12
130 57 239 100 110 44 211 85 225 93 20 11 69 13 206 12 102 -1 183 -6 187
-12z m-427 -275 c4 -6 1 -18 -7 -27 -7 -9 -11 -19 -8 -22 3 -3 -111 -7 -253
-9 -276 -3 -283 -1 -257 47 10 20 18 21 265 21 165 0 256 -4 260 -10z"/>
<path d="M3774 4705 c-4 -8 -1 -22 6 -30 10 -12 50 -15 235 -15 185 0 225 3
235 15 7 8 10 22 6 30 -5 13 -40 15 -241 15 -201 0 -236 -2 -241 -15z"/>
<path d="M5582 4618 c-9 -9 -8 -16 5 -30 9 -10 21 -18 27 -18 6 0 83 -30 171
-66 88 -36 257 -104 375 -151 118 -47 344 -139 503 -204 158 -66 289 -119 292
-119 2 0 28 -11 57 -24 29 -13 105 -45 168 -71 102 -42 299 -126 547 -232 68
-30 85 -34 98 -23 27 22 18 49 -22 66 -70 30 -227 95 -408 169 -99 41 -263
108 -365 150 -102 42 -390 159 -640 260 -250 100 -466 188 -480 194 -42 18
-299 111 -308 111 -4 0 -13 -5 -20 -12z"/>
<path d="M5498 4439 c-10 -6 -18 -13 -18 -18 0 -8 238 -200 385 -311 33 -25
96 -74 140 -111 65 -53 370 -291 715 -558 112 -86 522 -397 544 -411 12 -8 41
-30 63 -47 23 -18 48 -33 57 -33 20 0 37 31 26 50 -5 8 -90 76 -190 150 -316
236 -547 410 -712 539 -256 201 -930 718 -967 743 -19 12 -31 14 -43 7z"/>
<path d="M4688 4195 l-5 -25 268 0 c270 0 295 3 269 35 -10 12 -57 15 -270 15
l-258 0 -4 -25z"/>
<path d="M4693 4050 c-26 -10 -29 -25 -10 -37 6 -4 160 -8 340 -8 l328 0 -3
25 -3 25 -315 2 c-173 1 -325 -2 -337 -7z"/>
<path d="M2408 3873 c-22 -6 -24 -39 -2 -47 21 -8 183 -8 223 0 34 7 43 37 15
48 -18 7 -210 6 -236 -1z"/>
<path d="M4661 3857 c-6 -8 -8 -17 -4 -20 3 -4 186 -7 405 -7 375 0 399 1 396
18 -3 16 -31 17 -394 20 -319 2 -393 0 -403 -11z"/>
<path d="M4650 3661 c0 -42 -12 -41 476 -41 l464 0 0 25 0 25 -470 0 c-279 0
-470 -4 -470 -9z"/>
<path d="M4616 3373 c-16 -42 0 -43 597 -43 372 0 575 4 588 10 23 13 25 36 3
44 -9 3 -278 6 -599 6 -542 0 -583 -1 -589 -17z"/>
<path d="M2577 3152 c-8 -10 -8 -19 0 -30 9 -15 45 -17 334 -20 178 -1 334 0
345 3 24 5 40 33 27 46 -5 5 -163 10 -351 11 -280 3 -345 1 -355 -10z"/>
</g>
</svg>
