<?xml version="1.0" standalone="no"?>
<!DOCTYPE svg PUBLIC "-//W3C//DTD SVG 20010904//EN"
 "http://www.w3.org/TR/2001/REC-SVG-20010904/DTD/svg10.dtd">
<svg version="1.0" xmlns="http://www.w3.org/2000/svg"
 width="1024.000000pt" height="1024.000000pt" viewBox="0 0 1024.000000 1024.000000"
 preserveAspectRatio="xMidYMid meet">
<metadata>
Created by potrace 1.16, written by Peter Selinger 2001-2019
</metadata>
<g transform="translate(0.000000,1024.000000) scale(0.100000,-0.100000)"
fill="#000000" stroke="none">
<path d="M3905 7533 c-11 -1 -94 -4 -185 -7 -91 -2 -183 -7 -205 -11 -122 -19
-209 -40 -270 -66 -16 -6 -36 -13 -44 -15 -38 -7 -264 -130 -326 -176 -39 -29
-84 -62 -100 -72 -35 -23 -190 -178 -230 -230 -15 -20 -32 -33 -38 -29 -6 4
-7 1 -3 -6 10 -15 -23 -53 -37 -44 -6 3 -7 1 -3 -5 4 -6 -18 -52 -48 -102 -51
-85 -117 -236 -147 -337 -6 -24 -16 -40 -22 -36 -6 3 -7 1 -3 -6 4 -6 0 -46
-8 -89 -8 -42 -18 -95 -22 -117 -10 -51 -12 -695 -3 -690 3 3 9 -14 12 -38 3
-23 9 -53 13 -67 4 -14 8 -42 8 -62 1 -21 4 -38 7 -38 4 0 12 -20 18 -44 6
-25 16 -57 22 -73 11 -29 10 -40 -4 -35 -5 1 -6 -2 -2 -8 3 -6 10 -8 14 -6 4
3 18 -21 31 -52 12 -31 36 -80 51 -108 18 -31 27 -59 23 -70 -4 -15 -4 -16 4
-5 8 11 14 5 31 -26 11 -22 17 -44 13 -48 -4 -5 -2 -5 4 -2 12 7 58 -49 50
-61 -3 -4 0 -14 6 -22 8 -12 8 -11 3 5 -4 12 8 3 28 -20 60 -70 100 -111 164
-168 33 -31 58 -59 55 -63 -4 -4 -2 -4 4 -1 14 8 56 -21 48 -34 -3 -5 -2 -9 3
-8 18 3 30 -2 49 -19 10 -9 40 -28 66 -42 26 -13 44 -28 42 -32 -3 -5 -2 -8 3
-7 21 4 34 -2 27 -13 -5 -7 -3 -8 5 -3 8 4 24 -4 42 -21 22 -21 29 -37 29 -65
0 -43 -23 -103 -35 -92 -4 5 -5 3 -2 -4 10 -16 -53 -184 -66 -176 -5 3 -7 1
-3 -5 3 -6 0 -38 -8 -71 -21 -89 10 -192 65 -222 11 -5 16 -15 13 -21 -4 -6
-3 -8 3 -5 5 3 31 0 58 -8 28 -9 63 -12 87 -9 24 4 129 58 266 137 125 71 247
141 272 155 25 14 103 58 175 99 71 40 136 71 143 68 7 -3 11 -1 7 4 -10 17
93 38 161 32 14 -1 66 -119 58 -132 -3 -5 -1 -8 6 -7 6 2 26 -26 46 -62 20
-35 55 -93 80 -128 24 -35 41 -68 38 -74 -4 -6 -2 -8 4 -5 11 7 95 -86 87 -97
-3 -3 -2 -4 2 -1 10 8 33 -16 26 -28 -3 -5 -2 -7 3 -4 6 3 41 -22 80 -56 38
-34 93 -77 122 -96 29 -18 49 -38 45 -44 -4 -6 -1 -7 6 -3 7 5 29 -3 50 -17
100 -66 264 -134 401 -166 178 -41 205 -43 486 -45 l241 -1 87 -44 c49 -25 83
-48 79 -54 -3 -6 -1 -7 5 -3 15 9 323 -174 315 -187 -3 -5 0 -7 8 -5 20 7 51
-11 43 -24 -4 -7 -2 -8 5 -4 7 5 42 -10 83 -34 54 -32 67 -45 57 -52 -11 -8
-10 -9 4 -4 15 5 152 -57 182 -82 13 -11 115 6 142 23 35 23 83 78 89 102 4
13 9 21 13 19 11 -7 3 114 -10 148 -7 17 -25 57 -41 90 -15 32 -25 64 -21 70
3 6 3 8 -2 4 -11 -10 -57 92 -52 114 3 9 0 19 -6 21 -28 9 15 56 97 106 187
114 327 241 456 413 32 42 61 74 66 70 4 -4 4 -2 0 5 -7 14 31 83 47 83 6 0 8
3 4 6 -3 4 4 27 17 53 12 25 33 74 46 108 16 42 27 58 33 50 6 -8 7 -6 3 6 -3
10 3 50 14 90 44 164 53 252 54 522 1 258 -3 309 -40 475 -8 36 -17 77 -20 93
-10 53 -94 251 -139 329 -25 43 -43 84 -39 90 4 6 3 8 -3 5 -6 -4 -19 6 -28
21 -10 15 -36 48 -57 74 -23 28 -36 52 -32 59 4 7 3 9 -3 6 -13 -8 -116 97
-106 108 5 4 3 5 -3 2 -7 -4 -25 6 -40 21 -16 16 -46 41 -66 56 -21 16 -35 33
-31 39 3 6 1 7 -5 3 -14 -8 -94 48 -84 59 4 5 1 5 -5 1 -7 -4 -18 -4 -25 0 -8
5 -6 10 8 16 16 7 15 8 -5 4 -30 -6 -164 61 -154 77 3 6 1 7 -6 3 -7 -5 -37 2
-67 14 -30 13 -90 33 -132 47 -42 13 -62 21 -43 18 19 -3 31 -2 27 2 -4 5 -35
9 -69 9 -34 1 -104 8 -156 16 -74 10 -95 17 -97 30 -1 9 -7 33 -14 52 -6 20
-8 41 -4 47 4 7 3 9 -3 6 -5 -3 -22 24 -37 61 -57 140 -177 319 -297 443 -69
71 -195 181 -229 199 -11 6 -17 16 -14 22 5 7 2 8 -5 4 -7 -5 -28 3 -49 17
-105 70 -292 153 -416 184 -36 9 -66 20 -66 25 0 5 5 6 12 2 7 -4 8 -3 4 4 -5
9 -12 9 -26 0 -14 -9 -25 -9 -44 0 -17 8 -26 8 -26 1 0 -6 -5 -7 -10 -4 -20
12 -85 17 -300 21 -259 5 -937 10 -965 7z m1290 -221 c173 -40 414 -139 399
-164 -4 -7 -3 -8 4 -4 12 7 97 -37 109 -57 4 -7 -1 -6 -10 2 -11 9 -17 10 -17
2 0 -6 6 -12 13 -13 6 0 17 -2 22 -2 18 -3 35 -17 30 -26 -3 -4 3 -7 13 -6 9
0 16 -5 14 -12 -1 -8 2 -11 8 -7 17 10 199 -182 262 -275 67 -102 132 -235
122 -251 -4 -7 -3 -9 3 -6 6 4 17 -11 26 -33 l15 -39 -362 -1 c-198 0 -374 -2
-391 -5 -16 -2 -52 -7 -80 -10 -65 -6 -223 -49 -281 -76 -25 -11 -52 -18 -60
-15 -8 3 -13 2 -10 -3 3 -5 -9 -15 -27 -22 -17 -7 -49 -23 -70 -37 -22 -13
-45 -21 -53 -18 -7 3 -13 1 -11 -5 1 -6 -7 -16 -18 -22 -37 -22 -120 -81 -159
-114 -21 -18 -44 -30 -50 -26 -6 3 -8 2 -3 -2 9 -10 -41 -65 -60 -65 -7 0 -13
-6 -13 -13 0 -19 -65 -79 -75 -70 -4 5 -5 3 -1 -4 3 -6 -5 -23 -18 -38 -13
-14 -46 -58 -72 -96 -34 -50 -50 -66 -56 -57 -6 9 -7 7 -6 -7 1 -11 -21 -67
-48 -125 -72 -148 -115 -285 -129 -406 -4 -26 -9 -52 -11 -56 -6 -10 -6 -621
0 -658 2 -14 7 -50 11 -80 3 -30 12 -61 18 -69 10 -12 9 -14 -6 -8 -30 11
-141 -20 -224 -62 -102 -53 -157 -84 -164 -95 -4 -5 -12 -5 -19 -1 -8 5 -11 4
-7 -2 4 -6 -6 -16 -21 -22 -15 -7 -143 -78 -285 -157 -141 -80 -266 -147 -276
-149 -16 -3 -19 1 -15 23 3 15 10 42 16 61 8 25 13 30 20 20 7 -10 8 -8 3 8
-5 19 59 210 75 223 8 6 5 127 -3 158 -8 32 -41 83 -71 111 -21 20 -24 27 -13
40 10 14 10 14 -5 3 -14 -11 -24 -8 -67 18 -29 18 -48 36 -44 42 3 6 1 8 -5 5
-14 -9 -43 3 -36 14 3 5 2 9 -3 8 -19 -3 -32 3 -69 32 -22 17 -38 36 -36 41 1
5 -1 7 -6 4 -12 -7 -83 54 -76 65 3 5 2 9 -3 8 -23 -4 -37 7 -103 84 -113 130
-209 284 -193 310 3 5 1 7 -5 4 -12 -8 -74 154 -76 200 0 17 -3 29 -6 26 -3
-2 -14 37 -26 87 -21 92 -26 187 -28 550 -2 230 58 474 160 658 123 220 235
340 489 520 6 4 45 24 88 46 64 32 79 36 92 26 13 -11 14 -10 10 2 -5 11 9 21
52 36 73 27 217 61 308 71 39 5 394 8 790 7 691 -3 724 -4 810 -24z m1000
-1080 l60 -7 12 -75 c17 -106 17 -400 1 -400 -10 0 -9 -3 1 -9 21 -14 4 -292
-19 -299 -5 -2 -7 -9 -4 -17 5 -13 -36 -185 -57 -237 -6 -15 -15 -25 -20 -22
-5 3 -6 -1 -3 -9 7 -19 -54 -140 -66 -132 -6 4 -7 -1 -3 -11 4 -12 3 -15 -5
-10 -8 4 -10 2 -6 -7 6 -16 -63 -114 -77 -110 -5 2 -6 -4 -3 -12 8 -20 -232
-260 -311 -311 -33 -22 -62 -41 -65 -44 -10 -11 -67 -42 -110 -61 -25 -11 -61
-28 -80 -38 -44 -23 -189 -65 -300 -87 -70 -14 -146 -18 -431 -18 l-347 -1 -6
45 c-3 25 -10 74 -15 110 -16 109 -22 421 -11 557 9 106 25 193 64 333 2 8 12
34 21 58 13 32 20 40 27 30 6 -8 7 -4 3 12 -4 16 0 33 10 45 9 11 13 13 9 5
-7 -13 -6 -13 9 -1 11 9 14 18 8 25 -17 20 130 242 152 230 7 -4 9 -4 5 1 -26
28 289 300 324 279 6 -4 8 -3 4 4 -8 14 150 91 259 127 44 14 123 32 175 41
52 8 96 16 97 17 5 6 646 4 698 -1z m375 -24 c30 -5 87 -19 125 -30 79 -23
265 -107 265 -120 0 -4 3 -7 8 -6 13 4 53 -23 47 -32 -3 -6 0 -7 8 -5 15 6 93
-52 89 -67 -1 -5 2 -7 7 -4 12 8 173 -143 165 -155 -3 -5 -1 -8 4 -7 5 2 28
-19 50 -46 35 -42 39 -52 30 -70 -10 -19 -9 -20 5 -8 14 12 19 8 40 -25 48
-75 79 -142 71 -154 -4 -7 -3 -9 4 -6 20 13 102 -239 125 -383 14 -86 16 -594
3 -625 -4 -11 -9 -37 -11 -57 -3 -30 -15 -78 -40 -158 -2 -6 -10 -26 -47 -117
-38 -93 -120 -229 -137 -225 -7 1 -10 -2 -6 -8 8 -13 -36 -71 -48 -63 -6 3 -7
2 -4 -4 9 -14 -52 -85 -66 -76 -7 3 -9 2 -4 -2 4 -5 0 -17 -9 -27 -14 -15 -20
-16 -33 -5 -14 10 -14 10 -4 -4 11 -14 6 -22 -37 -59 -74 -64 -119 -92 -133
-84 -6 4 -9 3 -4 -1 8 -9 -20 -45 -37 -45 -6 -1 -42 -22 -81 -48 -126 -87
-165 -195 -115 -323 12 -29 19 -58 16 -66 -3 -7 0 -13 7 -13 12 -1 82 -144 93
-192 5 -23 3 -28 -12 -27 -11 0 -14 3 -6 6 6 2 12 9 12 14 0 6 -6 7 -17 1 -15
-9 -72 19 -183 87 -8 6 -63 37 -123 71 -63 37 -104 66 -101 72 4 7 2 8 -5 4
-6 -4 -59 21 -119 56 -59 35 -119 69 -134 77 -15 8 -25 19 -21 24 3 6 1 7 -5
3 -6 -3 -26 3 -45 14 -19 11 -57 27 -85 35 -29 9 -52 20 -52 25 0 6 -5 10 -11
10 -5 0 -7 -5 -3 -12 5 -8 0 -9 -17 -3 -13 4 -126 7 -251 6 -124 -1 -257 3
-295 9 -100 16 -236 51 -248 64 -5 6 -21 12 -35 14 -33 4 -185 80 -270 137
-85 57 -182 144 -174 156 3 5 2 8 -3 7 -14 -5 -56 34 -108 102 -78 100 -106
148 -92 153 8 4 6 6 -3 6 -9 1 -29 29 -47 64 l-30 62 281 -2 c371 -3 553 21
755 101 35 14 69 23 75 19 6 -3 8 -2 4 2 -5 5 35 31 87 59 52 28 140 85 197
126 56 41 106 74 111 72 4 -1 6 1 3 6 -8 13 53 64 66 56 7 -4 8 -3 4 5 -5 7
17 38 56 79 71 76 156 194 210 292 71 128 148 351 163 475 3 20 7 40 9 44 10
16 21 208 21 356 -1 148 -5 229 -21 362 l-6 53 33 -6 c19 -3 59 -10 89 -16z"/>
<path d="M3645 6010 c-56 -9 -116 -42 -155 -87 -19 -21 -37 -37 -40 -36 -3 1
-6 -6 -7 -15 0 -9 -4 -35 -8 -57 -13 -65 -9 -138 9 -173 9 -18 14 -38 10 -44
-4 -6 -3 -8 3 -5 5 3 19 -7 31 -22 35 -47 120 -83 201 -85 38 -1 67 2 65 5 -2
3 15 14 37 24 46 21 105 82 125 132 34 81 22 192 -30 262 -24 32 -86 80 -109
86 -7 1 -19 5 -27 8 -28 10 -65 13 -105 7z m91 -204 c23 -21 27 -37 25 -87 -1
-29 -40 -53 -68 -42 -11 4 -14 3 -9 -5 18 -29 -56 3 -76 32 -13 19 -9 81 8
104 20 29 87 28 120 -2z"/>
</g>
</svg>
