<?xml version="1.0" standalone="no"?>
<!DOCTYPE svg PUBLIC "-//W3C//DTD SVG 20010904//EN" "http://www.w3.org/TR/2001/REC-SVG-20010904/DTD/svg10.dtd">
<svg xmlns="http://www.w3.org/2000/svg" version="1.0" width="1024.000000pt" height="1024.000000pt" viewBox="0 0 1024.000000 1024.000000" preserveAspectRatio="xMidYMid meet">
<metadata>
Created by potrace 1.16, written by Peter Selinger 2001-2019
<meta name="Producer" content="Online-Convert"/></metadata>
<g transform="translate(0.000000,1024.000000) scale(0.100000,-0.100000)" fill="#000000" stroke="none">
<path d="M8099 7303 c-14 -16 -81 -102 -149 -193 -329 -439 -831 -1099 -1044 -1374 l-131 -169 -160 -77 c-221 -108 -356 -199 -485 -329 -271 -272 -411 -624 -414 -1042 -1 -172 5 -191 62 -202 37 -7 175 43 312 114 359 186 598 456 724 819 54 153 77 296 82 494 4 162 5 171 28 195 34 37 440 568 800 1046 170 226 324 428 341 450 83 102 145 199 145 224 0 32 -37 71 -66 71 -11 0 -32 -12 -45 -27z m-1341 -2025 c-15 -325 -117 -580 -327 -827 -99 -115 -324 -274 -505 -356 l-79 -36 6 128 c21 464 249 857 627 1079 60 35 268 142 280 143 3 1 2 -59 -2 -131z"/>
<path d="M3980 6843 c-192 -11 -439 -53 -635 -108 -456 -129 -751 -322 -870 -569 -24 -50 -49 -118 -55 -151 -8 -42 -10 -289 -8 -835 4 -709 6 -780 22 -835 40 -135 136 -277 261 -387 194 -172 491 -310 818 -383 264 -58 376 -69 722 -69 350 -1 452 8 734 65 173 35 193 45 189 97 l-3 37 -177 90 c-97 50 -228 121 -290 158 -129 78 -321 212 -327 229 -2 6 1 8 8 4 6 -4 9 -2 6 6 -2 7 27 37 67 68 39 30 113 95 165 143 54 51 98 85 105 81 6 -4 8 -3 4 4 -3 6 44 63 106 129 134 140 262 298 360 443 l70 104 77 27 c283 98 522 266 641 450 116 180 114 420 -6 601 -246 370 -953 614 -1754 606 -96 -1 -200 -3 -230 -5z m465 -133 c272 -18 424 -41 635 -97 374 -99 649 -258 772 -448 94 -144 93 -311 -1 -455 -230 -353 -956 -592 -1721 -566 -714 23 -1396 292 -1550 611 -50 103 -43 257 17 367 35 66 127 164 210 227 36 27 120 76 187 109 405 201 902 288 1451 252z m-1691 -1324 c100 -66 296 -162 399 -196 65 -21 71 -26 115 -88 256 -359 491 -615 771 -840 l101 -81 -143 -99 c-237 -165 -539 -342 -584 -342 -42 0 -240 73 -351 129 -226 116 -399 272 -464 419 -52 117 -52 110 -55 716 l-4 568 63 -63 c35 -35 103 -91 152 -123z m771 -300 c246 -54 463 -76 745 -76 263 0 462 23 704 81 44 10 81 17 83 15 5 -4 -170 -220 -252 -311 -173 -192 -536 -529 -562 -523 -7 2 -63 43 -125 93 -128 102 -377 346 -489 480 -137 165 -213 268 -193 262 10 -4 51 -13 89 -21z m1085 -1238 c58 -36 145 -86 193 -111 49 -26 87 -47 85 -47 -3 0 -81 -12 -174 -26 -315 -48 -753 -44 -1044 9 l-65 12 89 48 c135 74 357 219 510 335 l39 29 131 -92 c72 -51 178 -122 236 -157z"/>
<path d="M6707 3565 c-222 -36 -385 -97 -722 -269 -578 -294 -832 -383 -1265 -442 -168 -23 -542 -23 -729 0 -428 52 -891 203 -1243 402 -119 68 -156 61 -149 -26 1 -20 101 -81 266 -163 226 -112 443 -192 705 -257 314 -79 553 -105 884 -97 319 8 525 43 821 142 212 70 317 115 580 248 481 243 563 279 740 323 134 34 324 43 450 21 111 -20 235 -55 376 -108 115 -43 140 -43 154 1 13 40 -19 66 -130 109 -286 111 -534 149 -738 116z"/>
</g>
</svg>
