<?xml version="1.0" standalone="no"?>
<!DOCTYPE svg PUBLIC "-//W3C//DTD SVG 20010904//EN"
 "http://www.w3.org/TR/2001/REC-SVG-20010904/DTD/svg10.dtd">
<svg version="1.0" xmlns="http://www.w3.org/2000/svg"
 width="1024.000000pt" height="1024.000000pt" viewBox="0 0 1024.000000 1024.000000"
 preserveAspectRatio="xMidYMid meet">
<metadata>
Created by potrace 1.16, written by Peter Selinger 2001-2019
</metadata>
<g transform="translate(0.000000,1024.000000) scale(0.100000,-0.100000)"
fill="#000000" stroke="none">
<path d="M8535 9241 c-106 -18 -193 -87 -277 -218 -33 -51 -64 -91 -69 -87 -5
3 -6 -3 -2 -12 5 -13 3 -15 -8 -9 -8 4 -11 5 -7 0 11 -11 -11 -47 -24 -39 -7
4 -8 3 -4 -4 9 -14 -142 -244 -155 -236 -5 3 -7 -1 -4 -8 5 -14 -88 -162 -97
-153 -2 3 -5 -1 -5 -7 0 -23 -265 -418 -276 -411 -5 3 -7 1 -3 -5 8 -13 -193
-324 -205 -316 -5 3 -6 -2 -3 -10 3 -8 -4 -24 -15 -35 -12 -12 -21 -23 -21
-26 0 -15 -224 -344 -231 -339 -5 3 -7 -1 -4 -8 6 -15 -68 -131 -78 -123 -4 3
-5 2 -3 -1 8 -11 -56 -104 -66 -97 -7 3 -8 1 -4 -5 8 -13 -69 -132 -85 -132
-6 0 -8 -4 -5 -9 7 -11 -92 -163 -102 -157 -4 2 -8 -3 -8 -12 0 -9 -96 -162
-214 -340 -171 -259 -216 -320 -226 -311 -9 8 -14 8 -14 1 0 -6 5 -12 12 -14
7 -3 -89 -156 -228 -366 -132 -200 -244 -359 -249 -355 -4 5 -5 3 -2 -3 7 -12
-33 -83 -47 -83 -5 1 -12 -4 -15 -9 -4 -6 -33 -6 -78 0 -154 20 -251 -26 -395
-188 -53 -60 -102 -108 -108 -106 -6 1 -9 -2 -6 -6 3 -5 -18 -32 -47 -59 -44
-41 -66 -54 -142 -77 -216 -67 -255 -81 -339 -117 -49 -21 -94 -35 -100 -32
-6 3 -8 3 -4 -2 4 -4 -27 -29 -70 -54 -42 -25 -99 -61 -125 -79 -26 -18 -52
-30 -59 -26 -6 4 -8 3 -5 -4 4 -5 -28 -39 -70 -75 -43 -36 -102 -90 -132 -121
-30 -30 -59 -52 -64 -49 -6 3 -7 1 -4 -4 8 -13 -27 -46 -38 -36 -4 5 -5 3 -2
-3 3 -6 -8 -27 -24 -48 -27 -32 -33 -35 -48 -24 -14 11 -14 11 -4 -3 11 -13
10 -19 -5 -33 -10 -9 -22 -13 -27 -9 -4 5 -5 2 -1 -5 10 -17 -42 -74 -58 -65
-6 3 -8 3 -4 -2 9 -10 -52 -81 -66 -77 -6 2 -8 0 -3 -4 4 -4 -3 -18 -15 -31
-17 -19 -24 -21 -37 -10 -14 10 -14 10 -4 -4 11 -13 10 -19 -6 -33 -10 -10
-21 -14 -23 -9 -3 4 -4 3 -2 -3 2 -11 -138 -157 -147 -152 -2 2 -3 1 -1 -1 7
-12 -72 -79 -87 -74 -12 4 -13 3 -3 -5 11 -7 8 -14 -13 -30 -15 -12 -32 -19
-38 -15 -5 3 -7 1 -3 -5 7 -12 -72 -84 -85 -77 -4 3 -11 0 -15 -6 -5 -8 -3 -9
7 -4 12 8 12 6 0 -9 -8 -9 -20 -15 -28 -12 -8 3 -12 2 -9 -3 9 -14 -183 -164
-205 -159 -7 2 -13 -2 -14 -9 0 -18 -83 -76 -96 -67 -7 4 -9 3 -6 -3 11 -17
-222 -162 -409 -256 -133 -67 -146 -124 -52 -232 13 -15 23 -32 23 -38 0 -7 5
-12 10 -12 16 -1 170 -158 167 -169 -2 -6 0 -8 4 -4 8 8 135 -100 131 -112 -1
-4 0 -8 3 -7 15 2 50 -26 44 -35 -4 -6 -3 -8 3 -5 6 4 20 -5 33 -18 12 -13 40
-36 61 -51 21 -14 36 -31 33 -35 -3 -5 -1 -8 4 -7 9 3 147 -96 158 -114 4 -6
3 -8 -4 -4 -6 3 -13 2 -17 -3 -3 -6 4 -8 16 -6 24 5 151 -84 142 -99 -4 -5 -2
-6 3 -3 6 3 64 -32 129 -78 66 -46 161 -110 212 -141 51 -31 90 -62 86 -67 -3
-6 -1 -7 5 -3 16 10 54 -12 46 -26 -4 -7 -3 -8 5 -4 6 4 37 -8 69 -27 31 -19
76 -44 100 -56 26 -13 40 -26 36 -33 -4 -6 -3 -8 4 -4 14 9 202 -85 195 -97
-3 -6 -1 -7 5 -3 17 10 85 -26 70 -37 -9 -6 -7 -7 5 -3 12 4 70 -17 150 -53
73 -32 163 -71 200 -87 37 -16 63 -30 57 -32 -14 -5 -2 -22 16 -22 8 0 12 4 9
10 -3 5 25 -2 62 -16 161 -62 208 -75 243 -69 19 3 43 6 52 7 9 1 15 5 13 8
-2 4 6 15 18 25 255 214 525 494 686 710 29 38 58 70 64 70 7 0 12 7 12 15 0
24 66 121 78 113 5 -3 7 -1 3 5 -3 5 16 46 42 89 121 196 200 363 272 582 26
79 50 139 52 135 3 -5 3 -3 1 5 -2 8 10 82 26 165 17 83 35 195 41 248 15 148
13 405 -7 558 l-16 135 25 41 c41 64 137 258 160 322 11 33 22 94 25 147 6
103 -12 163 -72 245 l-34 46 40 60 c22 32 44 58 50 56 6 -1 8 2 4 7 -3 6 15
42 41 81 40 60 49 68 63 58 13 -10 14 -10 4 2 -15 16 -17 34 -5 26 5 -3 9 0 9
7 0 19 54 97 64 92 4 -3 11 0 15 6 4 8 3 9 -4 5 -7 -4 -12 -4 -12 1 1 14 216
334 221 328 3 -3 6 1 6 8 0 22 485 747 496 740 6 -3 7 -1 3 5 -4 7 62 117 157
260 90 136 341 515 558 842 217 327 428 646 468 707 42 64 78 110 84 106 5 -3
7 -1 3 5 -8 13 151 258 165 254 6 -1 8 2 4 8 -3 5 -1 10 6 10 7 0 10 2 7 5 -3
3 14 41 38 83 47 82 65 132 69 199 7 101 -38 217 -111 285 -24 22 -41 45 -38
49 3 5 -3 6 -12 2 -13 -5 -15 -3 -9 7 5 8 3 11 -6 8 -8 -3 -36 5 -64 18 -55
25 -148 36 -210 25z m110 -191 c4 -6 10 -8 15 -5 18 11 105 -49 95 -65 -3 -5
2 -10 10 -13 25 -10 38 -82 25 -142 -12 -60 -95 -199 -112 -188 -7 3 -8 1 -4
-5 9 -16 -42 -95 -56 -86 -7 4 -8 3 -4 -5 9 -14 -92 -171 -108 -168 -6 1 -14
6 -18 12 -4 5 -6 0 -5 -12 1 -17 4 -19 14 -11 7 6 13 8 13 4 0 -3 -107 -167
-238 -363 -131 -197 -271 -408 -311 -470 -55 -85 -76 -111 -89 -106 -13 3 -14
2 -4 -4 10 -7 -46 -98 -229 -374 -133 -200 -246 -368 -252 -374 -7 -7 -7 -6
-2 4 5 10 4 12 -4 7 -6 -4 -9 -11 -6 -16 8 -12 -125 -211 -136 -204 -5 3 -7
-1 -4 -8 6 -17 -99 -170 -110 -160 -5 4 -5 2 -1 -5 8 -15 -198 -326 -209 -315
-4 4 -5 2 -1 -5 4 -7 -2 -21 -14 -33 -11 -11 -18 -20 -15 -20 2 0 -63 -102
-146 -227 -83 -126 -156 -227 -161 -225 -5 1 -7 -2 -4 -7 8 -12 -143 -237
-156 -233 -5 1 -7 -2 -4 -7 5 -8 -97 -173 -126 -206 -6 -6 -14 -3 -24 9 -8 11
-14 17 -14 13 0 -4 -24 9 -52 29 -29 20 -52 41 -50 46 1 5 -2 7 -8 3 -12 -7
-112 59 -103 69 4 4 1 5 -7 2 -8 -3 -25 2 -37 12 l-22 17 238 358 c131 196
240 355 243 352 2 -3 5 1 5 7 0 18 144 234 153 231 4 -1 7 5 6 15 0 9 5 16 12
14 8 -1 11 2 7 7 -6 11 63 121 76 121 5 0 8 4 7 8 -5 15 103 172 114 166 7 -4
8 -2 4 5 -8 12 186 315 196 306 2 -3 5 1 5 8 0 21 66 116 76 110 6 -3 7 -1 3
5 -7 13 62 124 74 117 3 -2 7 2 7 9 0 23 64 116 76 109 6 -3 7 -1 3 5 -9 15
134 233 147 225 6 -3 7 -1 3 5 -4 6 2 24 13 39 10 16 72 109 136 208 257 394
298 455 305 450 5 -3 12 0 16 6 5 8 3 9 -6 4 -8 -5 -11 -3 -8 6 3 8 10 13 15
12 5 -1 9 6 9 15 0 15 371 582 397 607 7 7 8 6 3 -2 -3 -6 -2 -14 3 -18 6 -3
8 4 6 17 -3 15 18 55 70 133 79 118 103 145 150 169 34 18 101 21 110 6z
m-2875 -3945 c59 -21 261 -145 255 -156 -3 -5 0 -7 7 -4 7 3 27 -6 43 -20 25
-21 28 -26 15 -35 -9 -6 -10 -10 -3 -10 6 0 15 5 18 10 6 10 87 -39 101 -62 4
-7 3 -8 -4 -4 -7 4 -12 1 -12 -7 0 -7 7 -14 15 -14 8 0 15 5 15 10 0 5 6 4 14
-3 8 -6 12 -19 9 -28 -4 -14 -3 -14 5 -3 8 12 16 8 41 -19 17 -19 37 -48 46
-66 22 -48 19 -184 -5 -169 -4 2 -5 -6 -3 -18 4 -27 -80 -193 -97 -189 -6 1
-9 -2 -5 -7 4 -8 -16 -63 -30 -79 -2 -2 -24 10 -49 25 -26 16 -43 33 -39 38 5
4 3 5 -3 2 -11 -6 -157 86 -149 95 3 2 -1 5 -7 5 -22 0 -168 99 -160 108 4 5
1 5 -5 1 -8 -4 -24 4 -40 21 -16 15 -32 27 -36 25 -9 -3 -86 49 -111 74 -9 8
-16 13 -16 10 0 -3 -54 30 -120 74 -177 117 -166 108 -151 122 11 11 12 10 6
-1 -5 -9 -4 -12 3 -7 7 4 12 12 12 17 0 22 204 239 244 259 49 24 135 27 196
5z m-644 -414 c-3 -5 1 -11 9 -14 9 -4 12 -1 8 10 -3 8 53 -24 125 -72 72 -48
129 -92 125 -98 -3 -6 -1 -7 5 -3 16 10 174 -96 159 -107 -8 -5 -5 -6 8 -3 13
3 31 -4 50 -21 17 -14 24 -22 16 -18 -9 6 -12 4 -7 -4 4 -6 12 -9 17 -6 13 8
151 -83 144 -95 -3 -5 0 -7 7 -5 17 7 80 -39 70 -50 -4 -5 -2 -5 5 -2 12 7
247 -147 249 -163 1 -6 2 -18 3 -27 2 -16 3 -15 11 2 5 11 9 17 9 14 1 -3 8
-55 16 -115 17 -120 19 -341 3 -499 -26 -278 -119 -596 -248 -855 -93 -188
-253 -436 -272 -424 -7 5 -8 3 -4 -5 17 -27 -322 -420 -347 -404 -6 3 -7 2 -4
-4 8 -13 -57 -76 -68 -66 -4 5 -5 3 -2 -3 11 -20 -226 -229 -246 -217 -5 3 -7
1 -3 -5 10 -16 -11 -24 -44 -17 -18 4 -27 11 -24 17 4 7 2 8 -4 4 -17 -10
-206 65 -190 76 9 6 6 7 -8 3 -24 -6 -96 23 -88 37 3 4 -1 5 -9 3 -14 -6 -74
19 -259 107 -59 28 -105 54 -103 59 3 4 -3 5 -14 2 -10 -3 -22 1 -26 8 -6 8
-4 10 6 4 12 -8 12 -6 0 8 -15 18 -26 23 -16 7 3 -5 4 -10 0 -10 -12 0 -95 43
-95 49 1 10 81 64 96 64 7 0 11 4 8 8 -6 11 31 30 41 21 3 -4 5 -2 3 4 -1 6
42 47 97 91 109 89 108 88 276 244 64 60 120 105 123 101 4 -4 6 -2 4 3 -5 15
204 245 215 238 6 -3 7 -2 4 4 -3 5 11 30 32 55 20 25 68 88 106 139 39 52 77
100 85 107 8 8 9 11 3 7 -13 -6 -18 22 -15 70 2 16 0 17 -8 5 -5 -8 -10 -10
-10 -4 0 14 -44 34 -76 34 -41 0 -60 -16 -120 -100 -31 -44 -62 -77 -67 -73
-6 3 -7 2 -4 -4 3 -5 -5 -22 -19 -39 -14 -16 -22 -23 -18 -15 5 9 3 12 -5 7
-6 -4 -9 -12 -5 -17 3 -5 -34 -53 -82 -105 -65 -71 -89 -92 -96 -82 -7 9 -8 7
-4 -6 6 -16 -18 -44 -110 -133 -147 -143 -285 -261 -301 -256 -6 2 -15 -1 -19
-8 -5 -8 -3 -10 7 -5 8 4 -6 -11 -30 -34 -25 -22 -50 -39 -58 -36 -7 3 -12 0
-10 -7 1 -7 -4 -11 -11 -9 -8 1 -11 -2 -8 -7 4 -5 -41 -44 -99 -86 l-106 -76
-64 37 c-36 20 -63 40 -60 45 4 5 -1 6 -9 3 -9 -4 -18 1 -22 10 -3 9 -9 14
-13 11 -9 -5 -123 70 -116 77 3 2 -1 5 -8 5 -18 0 -107 61 -107 74 0 6 -3 8
-7 6 -11 -7 -114 69 -105 77 4 4 2 6 -5 4 -12 -3 -153 99 -153 111 0 4 26 22
58 41 166 100 417 274 561 389 35 28 68 48 74 44 6 -3 7 -1 3 5 -7 11 50 59
65 54 5 -1 8 3 7 8 -2 6 19 30 47 55 35 32 52 41 58 32 6 -8 7 -7 4 5 -6 18
78 96 97 90 6 -2 8 0 4 4 -4 3 51 67 122 141 200 208 220 251 150 316 -56 50
-88 37 -193 -83 -76 -87 -116 -127 -123 -122 -2 1 -4 -1 -4 -5 -1 -35 -509
-481 -531 -467 -5 3 -8 1 -7 -4 8 -29 -516 -373 -543 -356 -8 4 -9 3 -5 -4 15
-25 -21 -10 -59 24 -22 20 -34 33 -26 28 9 -5 12 -3 7 5 -4 6 -11 9 -15 7 -12
-8 -82 55 -75 66 4 7 2 8 -4 4 -7 -4 -12 -2 -12 5 0 7 -3 9 -6 6 -10 -9 -83
66 -76 78 3 6 1 7 -3 2 -11 -10 -86 63 -78 76 3 6 2 7 -4 4 -5 -3 -27 11 -47
32 l-38 39 23 15 c113 69 221 127 231 121 6 -4 8 -3 5 3 -7 11 58 56 80 56 7
0 11 2 8 5 -7 7 157 117 171 114 6 -1 18 6 25 15 12 16 12 17 -1 8 -9 -5 -5 0
9 12 14 12 29 19 33 17 5 -3 7 -1 6 4 -2 5 24 30 57 55 33 25 89 70 124 101
35 30 68 53 74 49 6 -3 7 -1 3 5 -3 6 2 17 12 24 11 7 50 41 87 75 37 35 71
60 76 57 5 -3 8 0 7 8 -2 7 4 12 12 10 8 -2 12 0 8 4 -9 8 201 230 214 227 4
-2 7 1 5 6 -3 12 289 336 367 408 209 191 385 294 646 378 63 20 126 41 140
45 34 11 62 12 56 1z"/>
<path d="M1440 4467 c0 -8 -18 -19 -39 -25 -75 -23 -86 -79 -51 -250 28 -140
53 -210 128 -362 36 -74 66 -141 65 -147 0 -7 3 -11 7 -8 9 6 85 -104 85 -124
1 -9 6 -15 12 -14 16 3 75 -66 67 -79 -4 -6 -3 -8 3 -5 9 6 78 -57 78 -71 0
-4 4 -6 9 -4 14 5 46 -30 39 -42 -3 -6 -3 -8 2 -4 9 9 67 -30 61 -41 -3 -4 0
-8 7 -8 22 0 97 -55 98 -72 0 -9 3 -11 5 -4 7 16 64 -17 65 -37 0 -10 2 -11 6
-3 3 9 19 5 56 -14 29 -14 75 -34 102 -43 30 -11 49 -23 47 -31 -3 -10 0 -10
12 1 9 7 16 9 16 6 0 -4 12 4 26 18 15 13 32 23 38 22 6 -2 8 -1 4 1 -5 3 -3
14 3 25 16 29 2 84 -27 107 -14 11 -42 25 -62 32 -43 14 -174 79 -215 107 -15
10 -24 22 -20 27 5 4 3 5 -3 2 -14 -8 -80 41 -76 56 2 7 0 9 -4 5 -10 -11 -35
12 -27 26 3 6 3 8 -2 4 -12 -11 -87 52 -81 69 3 8 2 12 -3 9 -21 -13 -178 194
-165 216 5 7 3 8 -6 3 -10 -6 -12 -4 -7 9 4 10 3 15 -3 11 -13 -8 -61 91 -104
213 -34 99 -62 225 -68 307 -2 29 -10 46 -29 63 -15 12 -31 22 -37 22 -6 0 -8
9 -5 20 3 11 3 20 -1 20 -3 0 -6 -6 -6 -13z"/>
<path d="M2084 4066 c-23 -10 -35 -25 -44 -53 -7 -21 -18 -42 -24 -46 -7 -6
-4 -7 7 -3 10 3 17 0 17 -7 0 -7 11 -29 25 -48 13 -20 21 -40 17 -44 -4 -5 -2
-5 5 -1 14 8 45 -33 36 -47 -3 -6 -2 -7 4 -4 11 7 56 -36 48 -46 -3 -4 -2 -5
1 -3 3 3 38 -23 77 -56 141 -118 294 -185 482 -213 58 -8 106 19 122 68 11 32
10 43 -2 68 -22 41 -51 56 -120 62 -75 6 -198 45 -189 59 4 7 2 8 -4 4 -15 -9
-95 32 -87 44 3 5 0 7 -8 4 -9 -3 -26 8 -42 28 -15 18 -23 26 -19 18 23 -44
-134 117 -174 179 -14 21 -68 52 -89 51 -4 -1 -22 -7 -39 -14z"/>
<path d="M1068 3392 c-15 -2 -39 -17 -54 -34 -26 -32 -26 -34 -9 -114 5 -23 4
-26 -5 -14 -10 13 -11 12 -6 -3 3 -10 6 -21 6 -23 0 -3 4 -3 9 0 10 7 45 -79
45 -114 1 -14 7 -25 15 -25 8 0 17 -7 20 -15 10 -24 80 -128 91 -135 5 -3 10
-11 10 -16 0 -6 -5 -7 -12 -3 -7 4 -8 3 -4 -5 4 -6 11 -9 16 -6 13 8 31 -31
24 -52 -5 -15 -4 -15 5 -3 10 15 26 7 26 -12 0 -6 9 -12 20 -14 10 -2 26 -11
35 -22 23 -29 166 -125 245 -165 88 -44 272 -103 363 -117 60 -10 75 -9 102 5
17 9 34 23 37 30 3 8 9 13 13 10 11 -7 2 63 -12 92 -14 29 -66 53 -113 53 -31
0 -36 3 -30 18 5 14 4 15 -6 5 -7 -7 -22 -13 -34 -12 -20 0 -20 0 0 10 15 7
13 8 -12 3 -39 -7 -161 34 -261 87 -84 45 -174 117 -165 132 3 6 2 7 -4 4 -19
-12 -137 130 -180 218 -11 22 -33 76 -48 120 -16 44 -32 85 -37 92 -13 16 -58
29 -90 25z"/>
</g>
</svg>
