<?xml version="1.0" standalone="no"?>
<!DOCTYPE svg PUBLIC "-//W3C//DTD SVG 20010904//EN"
 "http://www.w3.org/TR/2001/REC-SVG-20010904/DTD/svg10.dtd">
<svg version="1.0" xmlns="http://www.w3.org/2000/svg"
 width="1024.000000pt" height="1024.000000pt" viewBox="0 0 1024.000000 1024.000000"
 preserveAspectRatio="xMidYMid meet">
<metadata>
Created by potrace 1.16, written by Peter Selinger 2001-2019
</metadata>
<g transform="translate(0.000000,1024.000000) scale(0.100000,-0.100000)"
fill="#000000" stroke="none">
<path d="M4070 7370 c-450 -41 -810 -107 -1115 -206 -497 -162 -721 -328 -766
-569 -15 -77 -5 -525 16 -758 75 -835 333 -1602 714 -2115 100 -135 335 -363
471 -457 211 -147 482 -268 723 -324 371 -87 791 -68 1136 51 287 98 528 252
736 469 100 105 146 166 251 332 l70 112 75 13 c316 54 622 158 864 294 153
86 269 173 386 288 214 210 338 420 412 690 30 110 31 123 31 315 1 200 1 200
-32 295 -50 147 -102 232 -206 335 -104 103 -192 158 -339 210 -150 53 -236
67 -487 74 l-225 6 -2 55 c-5 159 -38 244 -132 340 -245 250 -903 460 -1681
536 -189 18 -753 27 -900 14z m615 -110 c442 -24 751 -70 1131 -170 453 -119
753 -281 827 -448 29 -66 42 -160 32 -234 -6 -43 -15 -60 -46 -91 l-38 -38
-58 39 c-268 182 -828 336 -1468 404 -282 30 -829 32 -1090 5 -568 -60 -1040
-180 -1391 -354 -149 -73 -144 -73 -213 2 -60 65 -85 125 -78 188 25 209 286
379 807 526 331 93 663 146 1075 170 205 12 298 12 510 1z m160 -640 c471 -29
882 -103 1247 -224 129 -43 321 -126 369 -159 21 -15 19 -17 -47 -50 -100 -50
-343 -141 -486 -183 -670 -194 -1401 -255 -2093 -173 -344 40 -702 129 -1000
248 -89 36 -295 142 -295 152 0 15 289 135 440 181 387 120 747 183 1205 211
125 8 515 6 660 -3z m2377 -326 c270 -37 484 -147 608 -313 105 -139 146 -295
137 -516 -10 -238 -73 -430 -206 -632 -204 -308 -504 -531 -916 -681 -168 -60
-483 -137 -474 -115 2 5 29 68 59 141 53 130 55 132 90 138 563 97 1016 467
1137 929 36 139 39 316 5 422 -39 124 -127 214 -266 272 -121 50 -215 65 -428
65 l-188 1 0 147 c0 108 3 148 13 151 29 12 324 6 429 -9z m-4730 -161 c159
-104 386 -202 668 -287 195 -59 502 -114 785 -142 216 -21 769 -25 965 -6 542
52 1049 171 1445 339 71 30 146 63 167 74 21 11 44 17 50 13 6 -4 8 -3 5 3 -4
6 16 24 43 41 l50 31 0 -77 c-1 -216 -37 -665 -76 -927 -102 -700 -361 -1318
-697 -1664 -280 -289 -613 -454 -1047 -517 -134 -19 -449 -14 -585 10 -355 62
-663 205 -950 441 -276 227 -503 564 -678 1005 -203 512 -303 1014 -332 1655
-4 72 -8 141 -11 155 -4 21 3 17 48 -29 29 -30 97 -83 150 -118z m4724 -257
c195 -41 303 -118 340 -243 18 -60 18 -222 0 -315 -79 -402 -433 -731 -934
-869 -45 -12 -84 -20 -87 -17 -3 2 3 29 14 59 29 86 87 320 120 484 41 205 68
415 87 679 9 121 18 227 20 235 4 12 35 13 187 8 100 -3 214 -13 253 -21z"/>
</g>
</svg>
