<?xml version="1.0" standalone="no"?>
<!DOCTYPE svg PUBLIC "-//W3C//DTD SVG 20010904//EN"
 "http://www.w3.org/TR/2001/REC-SVG-20010904/DTD/svg10.dtd">
<svg version="1.0" xmlns="http://www.w3.org/2000/svg"
 width="1024.000000pt" height="1024.000000pt" viewBox="0 0 1024.000000 1024.000000"
 preserveAspectRatio="xMidYMid meet">
<metadata>
Created by potrace 1.16, written by Peter Selinger 2001-2019
</metadata>
<g transform="translate(0.000000,1024.000000) scale(0.100000,-0.100000)"
fill="#000000" stroke="none">
<path d="M4100 7767 c-74 -5 -200 -10 -280 -11 -80 0 -127 -3 -105 -6 l40 -6
-45 -7 c-25 -4 -81 -10 -125 -13 -44 -3 -99 -10 -122 -15 -23 -5 -63 -11 -90
-14 -26 -3 -56 -8 -65 -11 -53 -16 -198 -42 -198 -36 0 2 -6 0 -12 -5 -7 -6
-20 -11 -28 -11 -8 0 -26 -3 -40 -7 -14 -3 -36 -8 -50 -10 -14 -2 -40 -9 -59
-14 -19 -6 -46 -8 -60 -6 -22 5 -23 4 -6 -4 11 -5 16 -10 10 -11 -39 -6 -141
-35 -183 -52 -15 -6 -31 -12 -37 -14 -5 -1 -57 -22 -115 -45 -58 -23 -115 -42
-127 -43 -12 0 -21 -5 -20 -10 2 -8 -47 -38 -73 -44 -7 -2 -27 -13 -44 -25
-41 -30 -68 -45 -88 -53 -10 -3 -18 -10 -18 -15 0 -5 -5 -9 -11 -9 -15 0 -134
-93 -190 -149 -106 -107 -179 -228 -196 -327 -4 -27 -7 -125 -5 -219 1 -93 3
-261 5 -372 1 -110 5 -199 8 -197 9 5 22 -254 13 -267 -4 -8 -3 -9 4 -5 9 5
12 -6 12 -36 0 -24 4 -58 10 -77 6 -22 6 -40 -1 -52 -5 -11 -6 -19 -1 -19 9 0
33 -154 35 -232 1 -27 5 -48 8 -48 4 0 9 -17 12 -37 7 -47 16 -93 22 -113 3
-8 7 -35 10 -60 3 -25 12 -73 20 -106 8 -34 12 -72 10 -83 -2 -12 0 -19 4 -16
7 4 13 -10 27 -74 17 -77 28 -118 35 -127 5 -6 6 -14 3 -17 -3 -3 -2 -12 2
-19 5 -7 9 -17 10 -23 7 -41 63 -225 74 -240 3 -5 12 -30 19 -55 7 -25 30 -89
52 -143 21 -54 35 -105 32 -114 -4 -10 -2 -14 4 -10 5 3 24 -28 43 -71 18 -42
51 -112 72 -155 21 -43 36 -83 32 -89 -5 -7 -2 -8 6 -3 10 6 12 4 7 -8 -4 -10
-2 -16 6 -14 7 1 11 -6 11 -16 -1 -10 1 -16 4 -13 3 4 18 -15 33 -41 20 -35
25 -50 16 -55 -8 -5 -7 -8 4 -8 9 0 33 -27 54 -61 20 -33 70 -105 111 -160 41
-54 73 -105 71 -112 -1 -6 4 -11 10 -10 14 3 56 -49 59 -73 1 -9 6 -19 10 -22
4 -4 4 2 0 13 -5 15 3 10 30 -15 21 -19 47 -46 58 -59 59 -71 331 -271 432
-318 22 -10 42 -22 46 -28 4 -5 8 -7 8 -3 0 4 18 -2 41 -14 25 -13 36 -24 29
-28 -8 -5 -7 -9 5 -13 9 -4 13 -3 10 3 -3 6 -4 10 -1 10 8 0 84 -29 132 -51
23 -10 55 -21 70 -24 16 -4 45 -13 64 -20 37 -15 256 -65 284 -65 9 0 16 -5
16 -12 0 -9 3 -9 11 -1 7 7 21 8 40 3 92 -27 511 -29 719 -4 172 20 451 84
528 120 18 8 40 17 50 19 9 2 30 8 45 14 16 6 34 8 40 4 7 -3 9 -3 5 2 -4 4
34 29 85 54 119 60 161 84 165 94 2 4 8 7 13 7 16 0 130 81 220 157 117 99
269 261 324 345 9 15 22 25 28 21 5 -3 7 -1 3 5 -5 8 78 145 109 180 1 2 15 5
31 8 16 3 37 7 46 10 10 3 29 7 43 10 14 2 76 20 138 39 61 20 119 37 127 39
29 8 212 76 258 97 78 34 83 36 195 88 148 70 363 200 481 292 82 63 170 141
254 223 56 56 107 100 113 98 6 -1 7 2 4 9 -4 6 4 23 17 37 80 87 275 393 263
413 -3 4 -1 9 3 11 14 5 78 185 100 283 19 81 36 234 36 325 1 126 -23 288
-56 368 -6 15 -14 36 -18 47 -14 39 -72 153 -88 175 -94 122 -189 221 -256
266 -14 9 -23 21 -19 27 3 6 1 7 -5 3 -13 -8 -134 68 -124 78 3 4 -1 4 -11 0
-9 -3 -17 -2 -17 3 0 5 -8 9 -17 10 -10 1 -40 11 -68 23 -60 26 -211 65 -315
81 -82 13 -380 18 -420 7 l-25 -7 3 70 c5 89 -12 189 -43 256 -13 28 -21 54
-17 57 3 3 1 6 -5 6 -5 0 -27 25 -48 56 -48 69 -157 171 -254 237 -73 49 -321
182 -321 172 0 -3 -10 1 -22 9 -13 7 -52 24 -88 36 -36 12 -79 28 -96 36 -17
7 -57 21 -90 29 -32 9 -63 18 -69 19 -5 2 -28 6 -50 11 -22 4 -44 10 -50 14
-5 3 -14 6 -20 8 -5 1 -19 4 -30 7 -106 26 -342 74 -402 81 -11 2 -29 6 -40 9
-10 3 -43 8 -73 11 -30 3 -65 7 -78 10 -13 2 -53 7 -90 11 -37 3 -70 8 -73 9
-3 2 -29 5 -57 6 -29 2 -52 5 -52 8 0 3 -46 7 -103 7 -56 1 -160 5 -232 8
-244 12 -380 13 -515 3z m525 -228 c259 -14 290 -16 450 -33 193 -21 212 -23
325 -45 30 -6 69 -12 85 -14 17 -2 37 -6 45 -10 8 -3 33 -8 54 -12 26 -4 35
-9 27 -15 -9 -5 -10 -10 -3 -14 6 -3 14 -1 17 5 10 15 56 7 227 -41 80 -22
149 -40 152 -40 3 0 3 -8 0 -17 -5 -14 -4 -15 4 -4 8 11 23 9 86 -14 44 -16
73 -32 69 -38 -4 -6 -1 -7 6 -2 12 7 134 -37 155 -57 6 -4 18 -8 28 -8 10 0
18 -4 18 -8 0 -4 21 -18 48 -31 113 -55 290 -204 327 -275 58 -111 58 -227 0
-311 -19 -28 -48 -64 -65 -80 -26 -25 -33 -27 -41 -15 -9 13 -10 13 -8 0 4
-39 -2 -40 -44 -12 -52 36 -247 134 -247 124 0 -4 -4 -2 -8 4 -4 6 -53 28
-109 49 -56 21 -100 42 -97 46 3 5 -1 6 -9 3 -8 -3 -57 8 -108 25 -93 29 -221
65 -269 75 -14 3 -52 12 -85 20 -33 8 -76 16 -96 19 -20 2 -41 7 -45 10 -5 3
-34 8 -64 12 -30 3 -66 8 -80 10 -14 3 -44 7 -67 11 -24 4 -40 10 -37 15 3 5
1 9 -5 9 -5 0 -13 -5 -16 -10 -4 -6 -15 -8 -26 -5 -31 10 -60 14 -139 19 -41
2 -82 7 -90 10 -56 20 -799 32 -895 15 -40 -7 -74 -7 -102 -1 -24 6 -41 6 -38
2 4 -6 -30 -11 -180 -25 -68 -7 -128 -14 -165 -20 -19 -3 -57 -8 -85 -11 -27
-3 -106 -16 -175 -30 -69 -13 -138 -26 -155 -30 -16 -3 -51 -11 -76 -19 -41
-12 -49 -11 -65 3 -16 15 -17 15 -6 1 14 -19 3 -26 -55 -35 -19 -3 -49 -12
-68 -20 -19 -8 -43 -14 -55 -14 -11 0 -80 -20 -154 -45 -150 -50 -150 -50
-140 -32 4 7 3 9 -2 4 -5 -5 -9 -14 -9 -20 0 -7 -4 -12 -10 -13 -14 -1 -71
-23 -119 -45 -13 -6 -34 -8 -47 -5 -13 3 -19 3 -12 0 7 -3 -43 -33 -110 -67
l-122 -62 -38 38 c-20 21 -34 44 -31 49 4 6 2 8 -4 4 -15 -9 -77 67 -90 113
-17 56 -15 135 5 178 36 77 142 190 245 260 52 36 183 114 218 130 142 66 430
165 487 167 22 0 36 4 30 8 -8 5 -6 8 6 8 9 0 17 -5 17 -11 0 -5 5 -7 10 -4 6
4 8 10 6 14 -5 7 202 60 294 76 14 2 25 5 25 6 0 1 11 3 25 5 14 2 39 6 55 8
17 3 53 8 80 11 28 3 75 10 105 15 30 5 82 12 115 15 33 4 78 8 100 10 22 3
128 7 235 11 107 3 197 8 199 10 8 7 191 4 386 -7z m35 -849 c190 -10 425 -32
585 -55 136 -19 155 -22 180 -28 46 -12 71 -17 95 -21 14 -2 43 -9 65 -15 22
-5 56 -12 75 -15 19 -3 106 -25 193 -50 86 -25 160 -46 163 -46 3 0 3 -4 0 -8
-2 -4 8 -7 22 -6 15 0 34 -3 42 -7 8 -5 60 -26 115 -48 55 -21 131 -53 170
-71 l69 -31 -52 -29 c-31 -17 -61 -26 -74 -23 -16 3 -19 2 -10 -4 16 -12 -120
-77 -288 -138 -61 -23 -291 -92 -335 -101 -240 -50 -480 -86 -525 -80 -26 4
-30 3 -15 -4 19 -8 18 -9 -5 -11 -14 -1 -36 -3 -50 -4 -14 -2 -65 -6 -115 -9
-49 -4 -146 -11 -215 -16 -118 -10 -674 -15 -688 -6 -4 2 -61 7 -127 10 -66 4
-140 9 -165 12 -39 5 -85 9 -140 13 -11 1 -12 3 -3 9 7 4 -14 7 -46 7 -34 -1
-140 14 -252 37 -107 21 -203 40 -214 42 -11 1 -27 5 -35 9 -15 6 -143 40
-193 51 -18 4 -25 11 -21 19 5 9 4 9 -6 0 -8 -7 -18 -9 -24 -4 -6 4 -53 22
-103 40 -143 50 -258 99 -258 110 0 5 -4 13 -9 18 -5 5 -6 3 -2 -4 4 -7 4 -13
0 -13 -11 0 -114 54 -114 60 0 4 26 17 195 92 28 12 55 23 60 24 6 1 24 8 40
15 17 6 35 13 42 15 14 3 111 33 133 41 8 3 22 7 30 9 8 2 58 14 110 28 143
38 212 56 240 61 14 3 36 8 50 12 14 3 32 7 40 9 8 1 29 5 45 8 120 25 211 40
310 50 22 3 83 10 135 16 310 36 592 46 880 30z m2755 -325 c17 -3 44 -8 60
-10 17 -2 54 -11 83 -19 28 -8 52 -12 52 -9 0 3 7 -1 17 -8 9 -8 17 -13 17
-11 1 2 14 -1 29 -7 16 -6 33 -11 38 -11 6 0 7 -5 3 -12 -4 -6 -3 -8 4 -4 14
9 63 -14 55 -27 -3 -6 -1 -7 5 -3 13 8 105 -38 125 -63 9 -12 9 -13 0 -7 -8 4
-13 2 -13 -4 0 -7 7 -9 16 -6 20 8 98 -59 158 -137 36 -46 129 -210 124 -220
0 -1 7 -36 17 -77 44 -191 34 -398 -30 -605 -46 -149 -74 -212 -87 -194 -7 10
-8 8 -3 -7 11 -41 -153 -297 -184 -287 -12 4 -13 3 -3 -5 16 -11 9 -19 -119
-154 -58 -61 -91 -88 -99 -83 -8 5 -11 4 -6 -3 4 -6 -20 -33 -56 -63 -35 -28
-75 -61 -89 -74 -14 -12 -30 -24 -35 -26 -5 -2 -32 -19 -61 -38 -28 -18 -54
-33 -58 -32 -3 1 -16 -10 -29 -24 -27 -29 -57 -36 -35 -7 13 15 12 16 -3 3
-10 -7 -16 -17 -13 -21 3 -5 -4 -11 -15 -15 -11 -3 -20 -10 -20 -15 0 -5 -20
-16 -45 -26 -25 -9 -45 -20 -45 -24 0 -13 -78 -42 -91 -35 -7 5 -10 4 -5 -3 3
-6 -3 -13 -14 -17 -11 -4 -50 -20 -85 -36 -36 -16 -67 -29 -70 -28 -4 0 -16
-6 -28 -14 -12 -7 -34 -17 -49 -20 -15 -4 -40 -12 -55 -19 -15 -6 -33 -12 -40
-14 -14 -2 -140 -42 -163 -51 -35 -14 -117 -29 -92 -17 6 3 12 10 12 16 0 6
14 41 31 77 17 36 32 71 34 76 1 6 10 28 20 50 10 22 32 78 50 125 30 78 35
86 66 94 89 22 204 63 303 107 60 27 113 46 119 42 5 -3 7 -2 4 4 -8 12 61 46
75 37 6 -4 8 -2 5 3 -4 6 27 30 68 54 41 24 75 47 75 52 0 4 6 7 13 7 7 0 23
10 37 23 14 13 32 27 41 33 79 45 234 205 315 326 98 146 146 269 158 403 2
17 6 46 10 66 5 23 3 45 -4 59 -8 16 -9 25 -1 33 6 6 7 15 1 22 -5 6 -11 22
-14 35 -11 56 -15 68 -30 104 -9 21 -13 43 -9 50 3 6 3 8 -2 4 -5 -5 -17 7
-28 25 -37 60 -92 120 -149 163 -31 23 -54 45 -50 49 4 5 2 5 -5 1 -15 -9
-104 35 -96 47 3 6 1 7 -5 3 -6 -4 -36 1 -67 9 -31 9 -71 19 -88 21 -18 2 -68
9 -112 15 -44 6 -105 7 -135 4 -30 -4 -71 -8 -92 -9 l-36 -1 5 85 c9 149 10
174 11 232 l2 56 188 -3 c103 -2 201 -7 217 -10z m-620 -84 c-3 -6 -7 -50 -10
-98 -5 -115 -32 -435 -46 -543 -6 -47 -12 -103 -14 -125 -4 -44 -38 -266 -55
-357 -6 -31 -13 -70 -15 -85 -2 -15 -13 -67 -23 -115 -11 -48 -17 -90 -14 -93
3 -2 0 -10 -5 -17 -6 -7 -18 -47 -28 -88 -21 -92 -57 -223 -97 -354 -16 -54
-31 -106 -33 -115 -2 -9 -22 -68 -45 -131 -53 -148 -58 -161 -109 -273 -17
-37 -31 -71 -31 -75 0 -4 -36 -68 -80 -142 -44 -74 -80 -138 -80 -142 0 -4 -5
-8 -11 -8 -5 0 -7 5 -3 12 4 7 3 8 -4 4 -6 -4 -9 -12 -6 -19 4 -11 -32 -64
-113 -166 -64 -80 -146 -164 -217 -222 -15 -13 -45 -38 -65 -55 -53 -46 -351
-223 -351 -208 0 2 -10 -1 -22 -8 -43 -23 -183 -68 -196 -63 -7 3 -10 0 -7 -5
3 -6 3 -10 -2 -11 -11 -1 -27 -4 -123 -29 -47 -11 -98 -23 -114 -25 -15 -2
-37 -7 -48 -11 -10 -3 -34 -7 -51 -9 -18 -1 -88 -8 -157 -15 -137 -14 -485 -8
-580 9 -30 5 -71 12 -90 14 -49 7 -311 75 -324 85 -6 5 -33 17 -61 27 -50 18
-256 115 -265 125 -3 3 -32 22 -65 44 -128 83 -248 183 -238 199 3 6 2 7 -4 4
-38 -24 -442 514 -417 554 4 7 3 9 -3 6 -22 -14 -179 329 -267 582 -42 120
-161 538 -172 601 -3 14 -13 70 -24 125 -38 200 -52 295 -47 315 3 11 2 18 -3
15 -7 -5 -17 46 -26 140 -2 28 -9 91 -15 140 -6 50 -13 122 -15 160 -2 39 -9
126 -14 194 -6 68 -10 153 -10 188 l0 65 49 -44 c68 -61 180 -137 288 -195 51
-27 90 -53 86 -57 -4 -4 0 -4 10 0 9 3 23 2 30 -3 14 -12 260 -109 299 -118
16 -4 26 -11 23 -15 -3 -5 4 -6 14 -3 11 3 39 -2 63 -11 24 -9 54 -18 68 -21
50 -10 151 -41 146 -45 -2 -3 10 -4 27 -4 18 1 43 -3 55 -8 30 -10 336 -66
411 -74 31 -4 67 -8 81 -9 77 -10 197 -23 210 -24 8 0 42 -3 75 -6 147 -13
303 -20 470 -20 185 0 513 13 525 20 4 3 49 7 101 10 51 4 96 8 100 11 4 2 36
7 71 10 54 4 107 12 273 40 17 3 73 15 125 26 52 12 109 22 127 22 17 1 30 3
28 7 -2 3 58 22 133 43 75 22 143 41 151 44 8 3 12 1 8 -4 -3 -5 3 -10 13 -10
13 0 16 4 9 12 -6 8 13 19 68 39 43 16 106 41 140 57 34 16 65 29 68 28 5 0
67 33 180 95 74 41 183 118 240 169 51 46 60 53 50 37z m540 -498 c91 -19 83
-16 140 -44 88 -43 145 -100 188 -189 30 -61 32 -72 31 -170 -1 -137 -10 -173
-74 -301 -55 -108 -140 -216 -161 -203 -5 3 -8 0 -7 -8 2 -7 -3 -12 -10 -10
-8 1 -11 -1 -8 -6 6 -10 -51 -67 -126 -127 -118 -94 -338 -211 -498 -266 -36
-12 -70 -26 -77 -31 -8 -7 -10 -3 -6 11 3 12 9 18 14 15 5 -3 6 1 3 9 -2 7 5
49 17 93 12 43 22 83 23 89 1 5 5 19 9 30 3 11 8 31 11 45 3 14 12 50 20 80 8
30 22 91 30 135 9 44 22 114 31 155 15 73 38 218 49 310 8 61 15 113 25 185 5
33 13 94 17 135 4 41 9 67 12 58 4 -20 22 -24 22 -5 0 9 2 9 9 -1 7 -11 9 -10
14 3 4 9 3 13 -2 10 -5 -3 -12 -1 -16 4 -13 23 205 19 320 -6z"/>
</g>
</svg>
