<?xml version="1.0" standalone="no"?>
<!DOCTYPE svg PUBLIC "-//W3C//DTD SVG 20010904//EN"
 "http://www.w3.org/TR/2001/REC-SVG-20010904/DTD/svg10.dtd">
<svg version="1.0" xmlns="http://www.w3.org/2000/svg"
 width="1024.000000pt" height="1024.000000pt" viewBox="0 0 1024.000000 1024.000000"
 preserveAspectRatio="xMidYMid meet">
<metadata>
Created by potrace 1.16, written by Peter Selinger 2001-2019
</metadata>
<g transform="translate(0.000000,1024.000000) scale(0.100000,-0.100000)"
fill="#000000" stroke="none">
<path d="M3175 6470 c-33 -4 -111 -13 -174 -19 -62 -7 -152 -19 -200 -28 -47
-8 -93 -16 -101 -18 -8 -1 -22 -5 -30 -8 -43 -17 -124 -36 -131 -31 -5 3 -9 1
-9 -4 0 -6 -58 -26 -110 -37 -3 -1 -23 -9 -45 -19 -21 -9 -46 -18 -55 -20 -17
-3 -69 -26 -182 -80 -42 -20 -79 -36 -82 -36 -4 0 -12 -5 -19 -10 -20 -17
-198 -120 -208 -120 -5 0 -9 -4 -9 -10 0 -5 -7 -10 -15 -10 -8 0 -15 -3 -15
-8 0 -4 -25 -27 -55 -50 -30 -24 -55 -49 -55 -57 0 -27 23 -63 47 -74 28 -13
70 -15 75 -3 4 11 113 92 122 92 5 0 28 14 53 30 24 17 48 30 54 30 5 0 9 4 9
9 0 5 16 15 35 21 19 6 35 16 35 21 0 6 4 8 9 5 5 -4 11 -2 13 3 4 12 98 52
108 46 4 -3 10 2 14 10 3 8 13 15 23 15 9 0 35 9 57 19 54 26 261 94 321 106
17 3 44 10 60 15 17 6 46 12 65 15 19 3 45 8 58 10 40 9 76 15 112 20 19 2 53
7 75 10 76 11 350 13 455 4 58 -5 112 -9 120 -10 8 0 78 -14 154 -31 77 -17
144 -31 150 -32 6 -1 16 -4 21 -7 10 -6 52 -18 94 -25 14 -3 29 -8 35 -12 6
-3 20 -8 30 -9 11 -2 25 -8 33 -14 7 -6 13 -9 13 -6 0 3 24 -5 53 -18 28 -14
60 -25 70 -25 9 0 17 -4 17 -10 0 -5 4 -10 9 -10 5 0 22 -5 38 -11 15 -6 29
-10 31 -9 1 0 28 -12 60 -28 31 -16 113 -57 182 -91 221 -109 325 -167 322
-180 -1 -7 2 -10 7 -7 9 6 140 -48 151 -62 3 -4 41 -25 85 -48 44 -23 128 -67
188 -98 59 -31 107 -54 107 -51 0 4 7 -1 16 -9 8 -9 20 -14 25 -11 5 4 9 1 9
-6 0 -7 3 -10 6 -6 3 3 26 -6 50 -19 24 -14 44 -22 44 -19 0 3 13 -1 30 -10
16 -8 31 -15 32 -14 8 6 48 -23 43 -31 -3 -5 0 -12 6 -16 7 -4 9 -3 5 4 -3 6
-2 13 3 16 5 4 12 2 16 -4 3 -5 15 -10 26 -10 11 0 18 -4 15 -9 -4 -5 2 -8 11
-6 10 1 23 -1 28 -5 6 -4 34 -13 63 -20 28 -6 52 -15 52 -19 0 -6 50 -22 118
-36 12 -3 30 -7 40 -10 57 -15 92 -22 92 -19 0 3 8 0 18 -5 9 -5 42 -12 72
-16 30 -4 69 -9 85 -12 66 -9 128 -12 305 -13 197 -1 291 4 380 21 30 6 64 12
75 14 17 3 56 11 90 18 6 2 16 6 23 10 6 5 16 6 21 2 5 -3 12 -1 16 5 3 5 19
10 34 10 15 0 31 3 35 7 3 4 15 8 25 10 10 1 39 11 64 22 26 11 66 25 89 32
56 15 246 101 293 134 21 13 41 22 46 19 5 -3 9 -1 9 4 0 6 13 15 30 20 16 6
39 20 51 31 12 11 26 18 31 15 4 -3 8 0 8 5 0 6 6 11 14 11 8 0 21 6 28 13 10
10 158 112 235 162 25 17 72 57 143 123 36 34 71 62 76 62 12 0 64 83 64 102
0 8 -7 29 -15 46 -14 27 -19 30 -53 26 -39 -5 -60 -20 -136 -101 -26 -29 -54
-53 -60 -53 -7 0 -22 -14 -35 -30 -12 -17 -26 -28 -30 -25 -5 3 -11 -2 -15
-10 -3 -8 -12 -15 -21 -15 -8 0 -15 -4 -15 -9 0 -5 -40 -37 -90 -70 -49 -34
-90 -59 -90 -56 0 3 -10 -3 -22 -14 -11 -11 -60 -40 -107 -63 -47 -23 -88 -46
-89 -50 -2 -5 -8 -6 -13 -2 -5 3 -9 0 -9 -6 0 -6 -4 -8 -10 -5 -5 3 -10 1 -10
-5 0 -6 -4 -9 -9 -6 -5 4 -11 2 -13 -2 -4 -10 -177 -85 -195 -85 -7 0 -13 -4
-13 -9 0 -4 -3 -7 -7 -6 -5 1 -25 -6 -47 -15 -50 -22 -136 -47 -136 -40 0 3
-7 -1 -17 -8 -9 -8 -18 -13 -19 -12 -2 1 -9 1 -16 -1 -7 -3 -26 -7 -43 -11
-16 -3 -39 -8 -50 -10 -32 -8 -89 -17 -105 -17 -8 -1 -20 -5 -26 -9 -6 -5 -22
-9 -35 -9 -13 1 -51 -4 -84 -9 -33 -5 -145 -8 -250 -6 -178 3 -217 5 -305 19
-19 3 -51 8 -70 10 -19 3 -46 8 -60 11 -14 3 -34 8 -45 9 -62 10 -218 56 -315
93 -8 3 -24 8 -35 10 -10 2 -22 7 -25 11 -3 4 -12 8 -20 10 -8 2 -35 13 -60
24 -25 12 -52 22 -60 24 -18 4 -173 75 -180 83 -5 6 -121 65 -130 66 -12 2
-77 39 -94 54 -10 9 -20 15 -22 13 -7 -4 -129 60 -132 69 -2 5 -8 7 -13 3 -5
-3 -9 -1 -9 4 0 4 -25 19 -55 31 -30 13 -55 27 -55 33 0 5 -4 6 -10 3 -5 -3
-10 -1 -10 5 0 6 -4 8 -10 5 -5 -3 -10 -1 -10 5 0 6 -3 9 -7 7 -11 -7 -33 19
-25 29 4 4 1 4 -6 -1 -15 -8 -92 23 -92 37 0 5 -4 7 -9 3 -5 -3 -16 1 -24 9
-8 8 -18 12 -22 8 -5 -4 -6 0 -2 9 4 13 1 16 -15 11 -11 -2 -23 -1 -27 4 -8
13 -103 60 -113 57 -4 -2 -8 5 -9 15 0 10 -3 12 -6 5 -3 -9 -19 -5 -56 14 -29
15 -54 27 -57 28 -25 5 -80 31 -80 39 0 5 -3 6 -6 3 -4 -4 -19 0 -33 8 -25 13
-155 65 -164 65 -2 0 -22 8 -43 17 -22 9 -42 17 -46 17 -3 1 -9 4 -13 8 -4 4
-13 4 -21 1 -8 -3 -14 0 -14 7 0 6 -4 9 -9 6 -8 -5 -39 2 -91 21 -8 3 -25 7
-37 9 -13 1 -33 6 -45 10 -13 4 -29 7 -35 6 -7 -2 -13 2 -13 9 0 6 -6 9 -13 6
-6 -2 -53 1 -102 9 -246 36 -422 48 -520 34z"/>
<path d="M3236 5351 c-3 -5 -47 -12 -98 -15 -255 -19 -300 -23 -393 -41 -16
-3 -41 -7 -55 -9 -14 -2 -25 -5 -25 -6 0 -1 -9 -4 -20 -6 -23 -3 -33 -6 -135
-35 -41 -12 -84 -25 -95 -30 -11 -5 -65 -25 -120 -45 -55 -20 -122 -47 -149
-60 -28 -13 -55 -24 -62 -24 -7 0 -14 -4 -16 -8 -4 -9 -167 -102 -179 -102 -5
0 -9 -4 -9 -10 0 -5 -4 -10 -9 -10 -6 0 -22 -11 -37 -25 -15 -14 -33 -25 -40
-25 -8 0 -14 -4 -14 -8 0 -4 -23 -25 -51 -47 -46 -35 -50 -41 -45 -69 4 -17 7
-37 8 -43 1 -7 4 -11 6 -8 3 3 10 1 16 -4 19 -15 76 -24 76 -12 0 6 7 11 15
11 8 0 15 4 15 9 0 5 33 31 73 57 39 27 78 54 84 60 22 21 114 71 213 114 125
55 143 63 158 66 8 1 21 6 30 10 9 4 22 8 27 9 32 8 218 65 224 70 5 2 28 7
52 10 24 3 51 8 60 11 20 6 66 13 129 19 25 3 63 8 85 12 128 21 575 12 675
-14 14 -4 32 -8 40 -9 8 -2 32 -7 52 -12 20 -5 39 -7 42 -4 3 2 12 -1 20 -7 8
-7 20 -10 25 -7 5 4 12 2 16 -3 3 -5 13 -10 23 -10 22 1 188 -49 227 -67 17
-8 44 -18 60 -22 17 -5 30 -13 30 -19 0 -6 4 -15 8 -20 5 -4 8 -3 7 2 -5 23 3
23 60 -1 68 -27 127 -61 122 -70 -2 -3 0 -9 4 -12 4 -4 4 -1 0 6 -5 8 -1 11
11 9 24 -3 356 -169 365 -182 5 -7 8 -7 8 0 0 6 3 6 8 -1 4 -5 49 -30 100 -54
50 -24 92 -46 92 -50 0 -5 84 -51 100 -55 27 -6 50 -18 50 -26 0 -6 4 -8 9 -5
5 3 19 -3 32 -13 13 -10 87 -49 164 -86 77 -37 151 -73 165 -80 14 -7 43 -18
65 -25 22 -7 51 -18 65 -25 42 -21 74 -33 102 -39 15 -4 40 -11 55 -17 15 -6
30 -11 33 -11 18 -2 111 -32 138 -44 18 -8 37 -12 43 -9 5 4 15 2 22 -3 7 -6
30 -13 52 -16 22 -4 54 -9 70 -11 96 -16 156 -23 255 -32 203 -18 513 2 650
42 8 3 33 7 55 11 22 3 47 10 55 14 8 4 29 10 45 13 52 9 90 19 103 30 6 5 12
7 12 4 0 -3 16 1 35 9 19 8 35 12 35 9 0 -2 26 7 58 21 31 14 68 28 81 30 14
3 36 11 50 19 14 7 94 46 176 85 83 40 152 76 153 81 2 5 9 9 16 9 7 0 26 11
41 24 16 14 32 23 37 20 4 -3 8 -1 8 3 0 5 8 13 19 18 10 6 60 38 111 73 130
89 153 106 165 118 17 17 69 49 78 46 5 -1 6 2 3 7 -4 5 24 36 62 68 75 64
112 117 112 160 -1 37 -32 75 -57 67 -55 -18 -73 -28 -73 -40 0 -8 -6 -14 -14
-14 -7 0 -34 -25 -61 -55 -26 -30 -52 -55 -59 -55 -6 0 -17 -9 -24 -20 -7 -11
-19 -20 -27 -20 -8 0 -19 -9 -25 -20 -6 -11 -15 -20 -20 -20 -5 0 -24 -13 -42
-30 -18 -16 -38 -30 -45 -30 -7 0 -13 -4 -13 -8 0 -8 -123 -92 -134 -92 -4 0
-15 -8 -26 -17 -10 -10 -58 -38 -107 -63 -48 -25 -90 -48 -91 -53 -2 -4 -8 -5
-13 -1 -5 3 -9 0 -9 -6 0 -6 -4 -8 -10 -5 -5 3 -10 3 -10 -2 0 -8 -87 -47 -93
-41 -2 1 -11 -5 -21 -14 -10 -10 -24 -19 -32 -19 -20 -2 -23 -3 -87 -33 -32
-14 -66 -28 -75 -29 -9 -1 -23 -6 -29 -10 -7 -5 -13 -5 -13 -1 0 3 -6 2 -12
-4 -7 -5 -29 -13 -49 -16 -20 -3 -49 -11 -65 -18 -16 -6 -33 -12 -39 -13 -5 0
-14 -3 -20 -7 -9 -5 -55 -17 -100 -24 -11 -2 -33 -6 -50 -9 -59 -11 -71 -13
-124 -20 -30 -3 -58 -8 -61 -10 -4 -2 -103 -5 -221 -6 -199 -2 -271 1 -359 15
-19 3 -42 6 -50 7 -8 0 -22 3 -30 6 -8 3 -24 7 -35 8 -73 11 -136 25 -220 52
-70 22 -80 25 -81 21 0 -2 -8 3 -17 11 -10 7 -17 10 -17 6 0 -4 -7 -2 -15 5
-8 7 -15 9 -15 5 0 -4 -7 -2 -15 5 -8 7 -15 9 -15 5 0 -4 -11 0 -25 9 -14 9
-25 14 -25 10 0 -4 -7 -1 -15 6 -8 7 -15 9 -15 6 0 -4 -12 -1 -27 7 -62 31
-102 49 -107 48 -11 -2 -251 121 -258 133 -4 6 -8 7 -8 2 0 -5 -8 -2 -17 6
-10 8 -51 30 -90 48 -40 18 -73 36 -73 39 0 3 -28 20 -63 36 -34 17 -66 34
-72 38 -11 10 -41 25 -252 132 -76 38 -144 70 -152 72 -8 1 -18 8 -22 15 -5 7
-9 10 -9 5 0 -4 -19 3 -42 15 -24 12 -49 23 -57 24 -8 2 -18 9 -22 16 -5 7 -9
9 -9 5 0 -4 -10 -2 -22 5 -13 6 -28 13 -35 14 -6 1 -40 13 -75 27 -35 14 -75
29 -90 32 -16 4 -28 11 -28 17 0 5 -4 6 -10 3 -5 -3 -20 0 -32 7 -13 7 -29 11
-35 10 -7 -2 -13 1 -13 5 0 5 -11 10 -24 11 -13 1 -58 13 -100 26 -41 14 -95
27 -118 31 -55 7 -82 12 -85 15 -2 1 -15 4 -30 6 -16 1 -46 5 -68 9 -50 8
-134 13 -203 14 -74 0 -143 11 -136 22 3 5 3 9 0 9 -3 0 -7 -4 -10 -9z"/>
<path d="M3170 4357 c-3 -3 -57 -7 -120 -11 -63 -3 -131 -9 -150 -11 -19 -3
-48 -7 -65 -9 -16 -2 -39 -6 -50 -9 -11 -4 -36 -9 -55 -11 -19 -3 -50 -10 -69
-15 -19 -6 -37 -9 -39 -6 -3 3 -11 0 -19 -7 -7 -6 -16 -8 -20 -5 -3 4 -12 2
-20 -4 -7 -6 -13 -9 -13 -5 0 3 -12 1 -27 -5 -16 -6 -39 -13 -53 -16 -13 -2
-29 -8 -35 -13 -6 -5 -46 -20 -89 -35 -44 -15 -89 -33 -101 -41 -12 -8 -25
-11 -28 -7 -4 3 -7 1 -7 -6 0 -7 -4 -10 -9 -7 -5 4 -11 3 -13 -1 -2 -7 -72
-44 -88 -48 -3 0 -21 -11 -40 -23 -19 -12 -41 -22 -47 -22 -7 0 -13 -4 -13 -9
0 -5 -13 -13 -28 -19 -16 -5 -35 -16 -43 -24 -8 -7 -39 -29 -69 -48 -30 -19
-66 -45 -80 -57 -14 -13 -33 -26 -42 -29 -22 -7 -60 -68 -56 -91 6 -38 79 -86
94 -62 3 5 10 7 15 4 5 -4 12 0 15 8 6 16 109 97 124 97 4 0 10 4 12 9 3 10
41 33 143 87 39 20 73 41 76 46 3 4 14 10 25 12 11 2 53 20 93 40 41 20 79 36
85 36 6 0 28 9 49 20 20 11 39 20 42 20 3 0 10 2 17 4 7 2 42 12 78 21 77 20
113 29 161 44 19 6 57 14 85 17 27 3 63 8 79 10 88 15 261 26 385 25 176 -2
427 -26 456 -44 6 -3 28 -8 49 -11 22 -3 50 -7 63 -10 83 -21 81 -20 112 -33
14 -6 41 -14 60 -19 19 -4 37 -9 40 -10 3 -1 15 -5 27 -9 13 -4 20 -11 17 -16
-3 -5 2 -6 10 -3 9 3 24 3 34 -1 9 -5 22 -9 27 -11 14 -3 146 -61 225 -97 121
-55 149 -71 143 -81 -3 -5 -1 -6 6 -2 6 4 29 -1 50 -13 22 -11 42 -17 45 -14
3 4 6 1 6 -5 0 -7 9 -12 19 -12 11 0 26 -7 34 -15 8 -8 18 -11 22 -7 5 4 5 -1
2 -11 -4 -11 -3 -16 4 -12 11 7 154 -58 164 -75 4 -6 11 -8 16 -5 5 4 9 1 9
-6 0 -7 3 -10 6 -7 3 4 31 -8 62 -26 32 -18 81 -43 110 -56 28 -13 52 -28 52
-32 0 -5 4 -7 9 -4 5 4 11 3 13 -1 1 -5 30 -21 63 -36 33 -16 67 -32 75 -38
16 -9 82 -41 138 -65 18 -8 31 -18 29 -22 -3 -4 7 -7 21 -8 23 -1 56 -13 147
-55 11 -5 31 -11 45 -14 13 -3 38 -11 56 -20 17 -8 42 -17 55 -19 13 -3 24 -5
24 -6 0 -1 11 -3 25 -6 14 -2 32 -7 40 -11 8 -3 22 -7 30 -9 8 -1 24 -5 35 -8
11 -2 22 -5 25 -5 3 -1 -2 -6 -10 -11 -9 -6 -10 -10 -3 -10 6 0 15 5 18 11 4
6 14 7 24 4 21 -9 62 -17 81 -17 8 0 22 -2 30 -5 15 -6 56 -13 100 -17 14 -2
31 -4 38 -4 8 -1 10 -7 6 -14 -6 -9 -3 -9 9 1 10 7 27 11 40 7 64 -16 307 -23
442 -13 50 4 119 9 155 12 36 3 81 8 100 12 19 3 39 6 43 5 4 -1 16 2 26 8 10
5 45 14 77 20 58 10 86 16 92 20 1 2 7 4 12 5 6 1 13 4 18 5 4 2 12 4 17 5 6
2 13 4 18 5 4 1 12 4 17 5 6 1 12 4 15 5 3 1 10 4 15 5 6 1 11 3 13 5 1 1 9 3
17 5 8 2 32 10 53 19 20 9 37 13 37 9 0 -5 4 -2 8 4 4 7 17 14 27 16 11 2 30
8 41 15 12 6 24 8 28 5 3 -3 6 -1 6 5 0 7 5 12 12 12 13 0 194 92 251 127 20
13 37 20 37 16 0 -5 4 -3 8 2 11 16 87 65 100 65 7 0 12 4 12 8 0 5 12 15 27
23 15 8 38 24 51 37 14 12 30 22 36 22 6 0 23 11 38 25 14 13 53 45 85 71 119
97 275 244 295 279 13 23 12 85 -1 98 -13 13 -61 18 -79 8 -8 -4 -47 -39 -86
-77 -40 -38 -91 -85 -113 -104 -23 -19 -64 -55 -92 -80 -28 -25 -53 -44 -56
-43 -2 1 -19 -11 -37 -27 -18 -17 -38 -30 -45 -30 -7 0 -13 -4 -13 -9 0 -4
-32 -29 -70 -55 -39 -25 -70 -44 -70 -40 0 3 -7 -2 -16 -10 -8 -9 -22 -16 -30
-16 -8 0 -14 -4 -14 -10 0 -5 -6 -10 -13 -10 -8 0 -24 -9 -37 -20 -13 -11 -34
-23 -47 -26 -13 -4 -23 -10 -23 -14 0 -8 -41 -25 -49 -21 -2 2 -7 -2 -11 -9
-4 -6 -13 -13 -21 -14 -8 -1 -39 -14 -69 -29 -30 -14 -62 -27 -70 -29 -8 -2
-17 -6 -20 -10 -3 -4 -17 -10 -30 -12 -14 -2 -26 -5 -27 -7 -2 -1 -6 -2 -10
-4 -5 -1 -21 -7 -37 -14 -16 -6 -38 -13 -50 -16 -11 -2 -21 -4 -21 -5 0 -1 -7
-3 -15 -5 -39 -10 -57 -15 -88 -24 -18 -5 -35 -10 -37 -10 -3 -1 -6 -1 -7 -2
-2 -1 -41 -7 -88 -15 -47 -8 -96 -17 -110 -20 -73 -14 -145 -18 -345 -17 -210
0 -259 2 -350 17 -22 4 -51 8 -65 10 -80 10 -120 19 -120 28 0 5 -9 7 -19 3
-11 -3 -22 -1 -25 4 -4 6 -13 8 -20 5 -8 -3 -17 0 -21 5 -3 6 -10 9 -14 6 -7
-4 -132 32 -181 52 -8 3 -18 5 -22 5 -5 -1 -8 6 -8 15 0 13 -3 14 -8 6 -6 -10
-13 -10 -32 0 -26 14 -35 17 -47 17 -5 0 -1 5 7 11 12 8 10 9 -7 4 -16 -4 -23
-2 -23 7 0 9 -2 10 -8 1 -5 -8 -20 -5 -54 11 -26 13 -50 21 -53 18 -3 -3 -5 1
-5 8 0 7 -3 11 -6 7 -4 -3 -21 1 -38 10 -17 9 -37 18 -45 19 -8 2 -17 8 -21
14 -4 7 -10 11 -14 11 -22 -3 -27 1 -22 15 5 14 4 15 -9 4 -11 -9 -15 -9 -15
-1 0 7 -4 9 -10 6 -5 -3 -10 -1 -10 5 0 6 -4 8 -10 5 -5 -3 -10 -1 -10 4 0 6
-3 10 -7 9 -15 -4 -53 13 -53 23 0 6 -4 8 -9 5 -5 -4 -11 -3 -13 1 -1 5 -43
28 -93 52 -49 24 -92 47 -95 50 -3 3 -45 26 -95 51 -49 25 -92 48 -93 52 -2 5
-8 6 -13 2 -5 -3 -9 0 -9 6 0 6 -4 8 -10 5 -5 -3 -10 -1 -10 4 0 6 -7 11 -16
11 -9 0 -39 14 -67 31 -28 17 -59 33 -70 35 -11 2 -23 7 -26 11 -3 5 -13 9
-21 11 -8 2 -17 8 -18 13 -2 5 -8 7 -13 3 -5 -3 -9 0 -9 6 0 6 -4 8 -10 5 -5
-3 -10 -1 -10 4 0 6 -3 10 -7 9 -17 -3 -63 15 -63 25 0 6 -3 8 -6 4 -9 -9 -86
32 -80 42 3 4 -5 7 -18 6 -12 -2 -43 7 -69 20 -26 12 -49 20 -52 17 -3 -3 -5
0 -5 6 0 7 -3 11 -7 11 -5 -1 -10 0 -13 1 -3 1 -12 3 -20 5 -8 2 -28 9 -45 16
-16 6 -37 13 -46 15 -9 2 -29 8 -45 14 -16 6 -29 11 -29 10 0 -1 -109 31 -125
37 -8 3 -22 7 -30 8 -8 2 -26 6 -40 10 -14 3 -43 8 -65 11 -21 3 -60 10 -85
15 -92 19 -143 24 -355 34 -82 4 -152 5 -155 2z"/>
</g>
</svg>
