<?xml version="1.0" standalone="no"?>
<!DOCTYPE svg PUBLIC "-//W3C//DTD SVG 20010904//EN"
 "http://www.w3.org/TR/2001/REC-SVG-20010904/DTD/svg10.dtd">
<svg version="1.0" xmlns="http://www.w3.org/2000/svg"
 width="1024.000000pt" height="1024.000000pt" viewBox="0 0 1024.000000 1024.000000"
 preserveAspectRatio="xMidYMid meet">
<metadata>
Created by potrace 1.16, written by Peter Selinger 2001-2019
</metadata>
<g transform="translate(0.000000,1024.000000) scale(0.100000,-0.100000)"
fill="#000000" stroke="none">
<path d="M3330 6724 c-423 -29 -864 -182 -1220 -424 -80 -55 -96 -75 -84 -108
5 -14 21 -31 35 -36 22 -7 38 0 120 56 315 215 679 353 1049 398 189 23 506 7
680 -34 297 -70 534 -173 1080 -471 565 -308 860 -422 1250 -481 162 -25 503
-26 660 -1 430 67 841 237 1210 500 199 142 330 264 330 305 0 36 -17 52 -53
52 -22 0 -48 -18 -110 -76 -324 -303 -810 -557 -1247 -649 -232 -50 -545 -60
-777 -25 -382 56 -687 176 -1293 510 -560 308 -878 429 -1235 469 -106 12
-317 20 -395 15z"/>
<path d="M3170 5676 c-333 -44 -672 -167 -962 -351 -182 -116 -217 -156 -170
-198 30 -27 53 -20 137 41 395 289 928 449 1382 413 421 -33 713 -138 1358
-487 431 -234 745 -358 1064 -424 586 -120 1093 -62 1632 188 253 116 590 343
767 515 51 50 62 67 62 94 0 34 -21 53 -57 53 -10 0 -52 -32 -93 -70 -275
-258 -654 -487 -997 -604 -510 -173 -1001 -174 -1558 -3 -228 70 -409 152
-840 381 -533 284 -784 382 -1134 442 -121 21 -459 27 -591 10z"/>
<path d="M3210 4723 c-227 -24 -534 -116 -775 -233 -128 -62 -342 -199 -386
-246 -24 -26 -47 -100 -28 -88 4 2 10 0 14 -6 13 -21 62 -10 102 25 122 104
378 247 563 313 302 109 596 154 869 133 389 -31 707 -144 1306 -466 552 -296
840 -403 1275 -471 179 -28 561 -26 735 5 497 87 926 275 1307 571 152 119
248 215 248 248 0 36 -17 52 -52 52 -22 0 -48 -18 -108 -74 -333 -312 -785
-552 -1221 -650 -252 -56 -290 -60 -554 -61 -323 0 -516 28 -792 116 -167 54
-435 168 -426 181 3 7 1 8 -5 4 -11 -7 -219 93 -385 186 -157 87 -436 223
-577 281 -222 92 -442 150 -660 177 -79 9 -371 11 -450 3z"/>
</g>
</svg>
