<?xml version="1.0" standalone="no"?>
<!DOCTYPE svg PUBLIC "-//W3C//DTD SVG 20010904//EN"
 "http://www.w3.org/TR/2001/REC-SVG-20010904/DTD/svg10.dtd">
<svg version="1.0" xmlns="http://www.w3.org/2000/svg"
 width="1024.000000pt" height="1024.000000pt" viewBox="0 0 1024.000000 1024.000000"
 preserveAspectRatio="xMidYMid meet">
<metadata>
Created by potrace 1.16, written by Peter Selinger 2001-2019
</metadata>
<g transform="translate(0.000000,1024.000000) scale(0.100000,-0.100000)"
fill="#000000" stroke="none">
<path d="M2956 8419 l-26 -20 0 -2522 0 -2522 -56 -100 c-32 -55 -91 -161
-133 -235 l-76 -135 -2 -168 c-7 -434 -8 -505 -2 -496 3 5 14 0 24 -11 18 -20
21 -20 2430 -20 l2412 0 27 21 26 20 0 318 0 317 -83 149 c-46 83 -106 193
-135 246 l-52 96 0 2515 0 2515 -26 24 -26 24 -2138 2 -2137 3 -27 -21z m4204
-2576 l0 -2453 -230 0 -230 0 0 2189 0 2190 -26 20 -27 21 -1529 0 -1529 0
-24 -25 -25 -24 0 -2186 0 -2185 -235 0 -235 0 0 2450 0 2450 433 2 c237 2
1158 3 2045 3 l1612 0 0 -2452z m-604 1818 c-3 -5 -6 -968 -6 -2140 l-1 -2131
-1247 0 -1247 1 70 25 c39 14 212 75 385 134 815 281 753 258 770 290 7 12 10
559 10 1657 0 1442 -2 1641 -15 1660 -16 23 -119 64 -935 380 -80 31 -188 73
-240 94 l-95 38 1278 1 c743 0 1276 -4 1273 -9z m-2663 -100 c111 -44 396
-154 632 -246 237 -91 473 -183 525 -204 l95 -37 0 -1579 0 -1578 -140 -48
c-77 -26 -246 -84 -375 -129 -231 -80 -280 -97 -686 -238 -111 -38 -216 -73
-233 -77 l-31 -7 0 2111 c0 1161 3 2111 5 2111 3 0 96 -36 208 -79z m3413
-4501 c57 -102 104 -188 104 -192 0 -5 -1033 -8 -2297 -8 -2186 0 -2295 1
-2281 18 8 9 58 97 112 195 l97 177 2080 -2 2080 -3 105 -185z m124 -535 l0
-195 -2312 0 -2313 0 -1 195 0 195 2313 0 2313 0 0 -195z"/>
<path d="M5120 5488 c0 -864 3 -1568 7 -1564 9 9 10 3136 1 3136 -5 0 -8 -707
-8 -1572z"/>
<path d="M5064 2168 c-3 -4 222 -7 498 -8 276 0 498 3 494 7 -10 10 -986 11
-992 1z"/>
<path d="M4435 1787 c-15 -8 -22 -24 -24 -53 -2 -35 2 -45 25 -63 27 -21 29
-21 689 -21 655 0 663 0 689 21 20 16 26 29 26 59 0 73 35 70 -717 70 -506 -1
-673 -4 -688 -13z"/>
</g>
</svg>
