<?xml version="1.0" standalone="no"?>
<!DOCTYPE svg PUBLIC "-//W3C//DTD SVG 20010904//EN"
 "http://www.w3.org/TR/2001/REC-SVG-20010904/DTD/svg10.dtd">
<svg version="1.0" xmlns="http://www.w3.org/2000/svg"
 width="1024.000000pt" height="1024.000000pt" viewBox="0 0 1024.000000 1024.000000"
 preserveAspectRatio="xMidYMid meet">
<metadata>
Created by potrace 1.16, written by Peter Selinger 2001-2019
</metadata>
<g transform="translate(0.000000,1024.000000) scale(0.100000,-0.100000)"
fill="#000000" stroke="none">
<path d="M4982 6949 c-398 -26 -720 -203 -847 -464 -92 -189 -56 -419 92 -580
31 -34 49 -59 36 -52 -6 4 -14 3 -18 -2 -3 -6 5 -8 17 -6 15 3 35 -6 57 -24
31 -26 32 -28 16 -44 -9 -9 -12 -17 -6 -17 5 0 14 7 19 17 9 15 12 14 38 -6
56 -44 62 -85 24 -161 -19 -37 -47 -65 -92 -93 -15 -10 -31 -29 -34 -43 -25
-98 226 -57 439 73 48 29 61 33 69 22 8 -11 9 -10 4 4 -4 13 0 17 22 17 70 1
95 72 40 113 l-27 20 -58 -30 c-32 -17 -106 -56 -165 -87 -60 -31 -108 -55
-108 -52 0 3 9 20 20 38 25 41 27 142 4 190 -8 19 -40 51 -70 72 -104 72 -172
143 -209 220 -35 73 -59 179 -49 225 15 72 27 110 35 105 5 -3 6 2 3 10 -3 9
5 35 19 58 90 153 289 281 530 338 95 23 131 26 107 9 -13 -9 -13 -10 1 -6 9
3 21 1 27 -5 6 -6 12 -6 16 1 4 6 0 11 -8 11 -9 0 -16 4 -16 9 0 23 246 27
400 6 194 -26 344 -79 474 -166 64 -43 176 -147 176 -163 0 -5 -8 -2 -18 7
-15 14 -19 14 -19 3 0 -8 3 -15 6 -14 3 0 9 -1 14 -2 4 -1 12 -3 18 -4 18 -2
57 -85 76 -160 14 -59 15 -79 5 -139 -38 -221 -224 -393 -512 -473 -112 -31
-258 -54 -345 -54 -76 -1 -105 -14 -105 -48 0 -40 25 -52 113 -52 318 1 665
133 817 311 105 122 140 206 148 350 4 81 1 107 -18 165 -30 94 -68 158 -141
238 -127 138 -311 235 -543 285 -84 19 -302 43 -346 39 -8 0 -66 -4 -128 -9z"/>
<path d="M4736 6345 c-14 -13 -27 -32 -27 -42 -2 -32 3 -58 13 -70 5 -7 7 -17
3 -22 -3 -6 0 -8 8 -5 8 3 18 1 22 -5 3 -6 22 -11 41 -11 49 0 94 45 94 93 0
78 -95 117 -154 62z"/>
<path d="M5049 6341 c-31 -32 -35 -54 -17 -98 6 -15 11 -31 10 -35 -1 -4 4 -5
12 -2 8 3 17 1 21 -5 3 -6 17 -11 31 -11 13 0 24 -4 24 -9 0 -6 16 5 35 22 49
45 56 92 20 135 -37 44 -93 45 -136 3z"/>
<path d="M5369 6344 c-25 -27 -32 -91 -12 -116 6 -7 9 -21 8 -30 -2 -10 2 -16
8 -15 7 1 11 -4 10 -10 -2 -7 2 -13 7 -13 15 0 12 11 -7 33 -17 19 -17 20 4 8
93 -49 192 71 118 144 -35 36 -102 35 -136 -1z"/>
<path d="M3230 5943 c-14 -2 -63 -23 -110 -45 -274 -131 -380 -460 -239 -739
40 -79 155 -197 210 -215 20 -6 13 -10 -46 -29 -172 -53 -327 -161 -421 -292
-29 -40 -54 -70 -58 -67 -3 2 -4 1 -1 -2 2 -4 -9 -32 -24 -63 -16 -31 -40 -88
-54 -128 -43 -118 -86 -194 -148 -258 -66 -69 -73 -100 -27 -110 96 -22 192
95 292 358 84 219 236 375 439 452 115 43 260 68 362 62 210 -13 403 -90 535
-214 98 -92 147 -168 210 -323 99 -245 216 -375 298 -331 40 21 33 47 -23 96
-72 61 -118 134 -180 286 -29 71 -68 155 -86 186 -48 80 -181 212 -264 261
-84 49 -213 102 -250 102 -24 0 -20 5 34 41 110 74 182 178 217 319 21 82 14
211 -14 292 -61 171 -207 307 -382 353 -51 14 -210 18 -270 8z m259 -114 c22
-7 38 -16 34 -22 -3 -6 -1 -7 6 -3 14 9 74 -26 125 -73 75 -70 126 -171 141
-282 8 -61 -19 -190 -53 -252 -107 -199 -381 -284 -576 -179 -257 137 -312
494 -108 700 34 35 58 52 68 48 8 -3 12 -1 9 4 -7 12 66 50 130 67 56 14 162
11 224 -8z"/>
<path d="M6720 5931 c-30 -10 -70 -25 -88 -35 -18 -9 -38 -14 -44 -10 -6 4 -8
3 -5 -3 7 -11 -39 -46 -60 -46 -7 0 -11 -2 -9 -5 3 -2 -17 -31 -45 -64 -76
-91 -129 -213 -129 -295 0 -19 -4 -32 -8 -29 -8 5 -6 -12 18 -153 15 -84 71
-188 137 -256 32 -33 57 -63 55 -68 -1 -5 2 -6 7 -2 6 3 27 -3 47 -13 l37 -19
-54 -13 c-222 -52 -423 -213 -525 -422 -20 -40 -32 -55 -43 -51 -12 4 -13 3
-3 -4 22 -16 -57 -221 -80 -207 -7 4 -8 3 -4 -4 16 -26 -112 -169 -141 -158
-7 3 -15 0 -19 -6 -4 -7 -3 -8 4 -4 15 9 15 1 2 -24 -16 -29 -3 -45 40 -48 53
-3 87 15 149 84 57 63 87 117 151 274 68 166 139 267 244 347 176 133 448 198
661 159 102 -19 156 -36 149 -47 -2 -4 4 -5 15 -2 22 6 144 -54 136 -67 -3 -5
0 -12 6 -16 8 -4 9 -3 5 4 -10 17 6 15 33 -4 18 -13 20 -19 10 -26 -11 -7 -9
-8 4 -4 22 7 120 -71 113 -89 -2 -7 0 -18 6 -26 8 -11 8 -9 4 5 -7 19 -6 20
14 1 11 -10 18 -25 16 -32 -3 -7 0 -12 6 -10 23 4 147 -240 151 -300 1 -11 5
-19 8 -17 4 2 9 -5 12 -16 3 -11 1 -18 -4 -14 -5 3 -9 -2 -9 -10 0 -8 5 -18
12 -22 7 -4 8 -3 4 4 -4 7 -3 12 2 12 6 0 22 -20 37 -45 74 -127 170 -182 210
-121 19 28 7 56 -31 76 -34 19 -90 100 -134 193 -22 47 -40 91 -40 97 0 7 -20
54 -45 104 -97 195 -282 359 -475 421 -100 32 -99 31 -68 44 15 6 61 44 103
84 110 109 155 220 155 385 0 147 -50 268 -154 375 -68 69 -151 117 -242 141
-84 22 -233 20 -304 -3z m310 -110 c104 -40 228 -157 215 -205 -5 -15 -4 -17
3 -7 13 18 26 -7 47 -85 51 -197 -42 -411 -218 -500 -177 -90 -374 -60 -502
77 -140 152 -165 366 -61 542 30 52 113 130 168 158 103 53 241 61 348 20z"/>
</g>
</svg>
