<?xml version="1.0" standalone="no"?>
<!DOCTYPE svg PUBLIC "-//W3C//DTD SVG 20010904//EN"
 "http://www.w3.org/TR/2001/REC-SVG-20010904/DTD/svg10.dtd">
<svg version="1.0" xmlns="http://www.w3.org/2000/svg"
 width="1024.000000pt" height="1024.000000pt" viewBox="0 0 1024.000000 1024.000000"
 preserveAspectRatio="xMidYMid meet">
<metadata>
Created by potrace 1.16, written by Peter Selinger 2001-2019
</metadata>
<g transform="translate(0.000000,1024.000000) scale(0.100000,-0.100000)"
fill="#000000" stroke="none">
<path d="M3895 6501 c-186 -46 -327 -189 -370 -376 -14 -59 -16 -133 -13 -499
4 -461 6 -473 59 -579 66 -128 198 -223 347 -249 l71 -12 3 -182 c3 -162 5
-184 22 -203 12 -13 31 -21 52 -21 39 0 69 24 319 254 l170 156 461 0 c495 0
500 0 492 50 -6 48 -22 50 -483 49 -236 0 -451 -4 -478 -8 -60 -10 -83 -27
-271 -199 -85 -78 -157 -142 -160 -142 -3 0 -6 74 -6 164 0 119 -3 166 -12
173 -7 6 -49 13 -93 16 -158 10 -272 83 -337 215 l-33 67 -3 456 c-3 443 -2
459 18 520 37 109 111 188 225 241 l50 23 864 3 c556 2 883 -1 919 -8 112 -20
221 -92 279 -183 50 -79 55 -130 51 -508 -2 -256 0 -349 8 -349 22 0 80 76 93
121 9 33 11 126 9 349 -3 288 -5 308 -26 361 -44 109 -139 212 -245 264 -112
54 -119 55 -1052 54 -779 0 -867 -2 -930 -18z"/>
<path d="M3996 5884 c-21 -21 -20 -47 2 -67 17 -16 88 -17 821 -17 534 0 809
3 822 10 22 12 26 59 7 78 -9 9 -206 12 -824 12 -725 0 -814 -2 -828 -16z"/>
<path d="M3998 5529 c-25 -14 -24 -65 1 -79 30 -15 1213 -14 1229 2 14 14 15
47 2 68 -8 13 -89 15 -612 17 -401 2 -609 -1 -620 -8z"/>
<path d="M5690 4878 c-20 -22 -26 -63 -12 -84 10 -15 47 -34 67 -34 23 0 65
45 65 70 0 29 -44 70 -74 70 -14 0 -34 -10 -46 -22z"/>
</g>
</svg>
