<?xml version="1.0" standalone="no"?>
<!DOCTYPE svg PUBLIC "-//W3C//DTD SVG 20010904//EN"
 "http://www.w3.org/TR/2001/REC-SVG-20010904/DTD/svg10.dtd">
<svg version="1.0" xmlns="http://www.w3.org/2000/svg"
 width="1024.000000pt" height="1024.000000pt" viewBox="0 0 1024.000000 1024.000000"
 preserveAspectRatio="xMidYMid meet">
<metadata>
Created by potrace 1.16, written by Peter Selinger 2001-2019
</metadata>
<g transform="translate(0.000000,1024.000000) scale(0.100000,-0.100000)"
fill="#000000" stroke="none">
<path d="M4975 8129 c-186 -24 -377 -100 -521 -207 -114 -85 -230 -211 -288
-316 -46 -82 -51 -87 -75 -81 -52 13 -259 17 -332 6 -163 -26 -334 -99 -472
-204 -40 -31 -77 -51 -90 -50 -16 1 -17 0 -4 -3 14 -5 7 -18 -41 -77 -82 -101
-118 -156 -162 -251 -51 -107 -86 -247 -95 -371 -7 -90 -9 -101 -27 -102 -65
-5 -203 -69 -293 -135 -248 -183 -397 -475 -398 -783 -1 -191 34 -338 125
-519 32 -63 37 -81 26 -88 -10 -8 -9 -9 4 -5 12 4 27 -11 57 -59 44 -70 50
-84 26 -64 -12 10 -15 10 -15 -3 0 -10 7 -15 20 -12 23 4 93 -86 84 -109 -3
-8 -1 -17 5 -21 7 -4 9 1 5 12 -3 10 25 -16 62 -57 38 -41 124 -132 191 -201
68 -69 120 -129 116 -134 -5 -4 -2 -5 5 -1 15 9 134 -102 125 -117 -3 -6 -1
-7 6 -3 13 9 144 -102 135 -115 -3 -5 1 -7 8 -4 7 3 36 -16 65 -43 28 -26 79
-69 112 -96 33 -27 58 -52 56 -57 -3 -4 0 -11 6 -15 8 -4 9 -3 5 4 -12 20 9
13 38 -11 31 -27 31 -22 -28 -150 -20 -42 -36 -82 -36 -88 0 -5 -4 -8 -8 -5
-4 2 -8 -3 -9 -12 0 -9 -26 -84 -57 -165 -31 -81 -66 -182 -76 -224 -26 -98
-26 -210 0 -283 10 -30 16 -58 13 -62 -2 -5 -1 -7 4 -6 5 2 25 -15 46 -38 50
-56 103 -91 184 -123 l68 -26 1544 -3 c1680 -3 1592 -5 1716 52 71 32 159 116
189 180 32 66 42 161 26 246 -12 66 -77 263 -125 379 -14 35 -24 70 -21 78 3
8 2 12 -3 9 -5 -3 -19 20 -32 52 -12 31 -35 84 -51 116 -33 69 -32 66 -14 66
8 0 16 4 18 8 7 17 110 92 119 86 5 -3 8 -1 7 4 -2 5 22 29 52 53 116 91 320
272 451 397 75 72 140 128 144 124 5 -4 6 -2 2 4 -3 5 29 51 71 100 81 94 169
209 217 281 15 24 32 40 38 36 5 -3 7 -1 4 5 -10 15 3 43 16 35 6 -3 7 -1 3 6
-4 6 0 23 9 37 29 45 85 184 104 262 87 345 13 669 -214 934 -35 42 -61 79
-57 83 4 5 1 5 -6 1 -8 -5 -22 0 -35 12 -48 44 -203 133 -271 154 -39 12 -77
26 -83 31 -8 6 -13 32 -13 64 0 71 -33 233 -66 324 -103 286 -364 537 -643
620 -41 12 -43 14 -20 21 18 6 15 6 -11 3 -19 -3 -67 2 -105 10 -73 15 -270
19 -340 7 l-40 -8 -43 76 c-59 102 -82 132 -176 225 -45 44 -80 84 -78 88 1 5
-2 6 -7 2 -6 -3 -36 12 -68 34 -218 147 -507 214 -778 180z m339 -155 c103
-20 217 -62 304 -113 64 -37 70 -43 66 -69 -4 -25 -2 -28 28 -30 31 -2 32 -1
14 13 -10 8 -22 12 -26 10 -4 -2 -7 2 -7 10 0 8 4 15 8 15 14 0 175 -165 207
-212 53 -77 103 -190 97 -216 -4 -14 -2 -21 4 -18 13 8 45 -96 59 -189 28
-178 23 -344 -18 -620 -28 -184 -32 -205 -39 -201 -3 2 -6 -12 -6 -32 -1 -56
-56 -302 -72 -317 -15 -15 -18 -29 -4 -21 10 6 8 0 -38 -184 -80 -313 -334
-1176 -352 -1195 -6 -5 -9 -4 -9 5 0 7 -3 10 -6 7 -4 -4 -2 -13 4 -20 9 -10
-6 -69 -59 -243 -135 -443 -172 -550 -180 -529 -7 19 -8 19 -8 -2 -1 -12 3
-23 8 -25 5 -1 -8 -55 -30 -118 -21 -63 -54 -167 -73 -230 -19 -64 -40 -129
-47 -145 -7 -17 -11 -36 -10 -42 1 -7 -3 -13 -9 -13 -5 0 -10 6 -10 13 0 6
-29 104 -65 217 -36 113 -67 212 -69 221 -6 23 -74 236 -92 285 -8 23 -12 55
-9 70 3 19 3 23 -3 11 -9 -21 -11 -16 -67 168 -20 66 -65 212 -100 325 -55
177 -182 606 -198 665 -3 11 -16 58 -30 105 -205 692 -318 1256 -318 1584 0
192 6 255 36 371 23 93 86 245 101 245 3 0 3 -7 0 -16 -3 -9 -2 -12 5 -9 5 4
7 14 4 24 -14 44 148 225 273 305 218 141 475 190 736 140z m-1262 -577 c11
-1 16 -7 14 -17 -34 -114 -60 -378 -51 -510 27 -411 95 -755 281 -1430 36
-129 76 -272 90 -318 14 -47 23 -92 19 -105 -4 -14 -3 -18 3 -9 6 8 23 -35 51
-130 23 -79 58 -195 77 -258 19 -63 40 -133 46 -155 6 -22 24 -79 40 -126 21
-65 27 -96 22 -130 -5 -34 -2 -48 10 -58 14 -12 15 -10 5 18 -6 17 -9 36 -7
43 2 6 12 -14 22 -45 10 -32 16 -64 13 -71 -3 -8 0 -17 7 -19 17 -7 41 -92 31
-108 -5 -7 -4 -10 2 -6 8 5 63 -147 64 -178 1 -5 5 -16 11 -22 6 -7 8 -30 4
-50 -4 -27 -3 -32 4 -18 5 11 9 16 9 10 1 -5 4 -20 7 -33 4 -14 2 -22 -4 -20
-5 2 -9 -1 -9 -7 1 -5 7 -9 13 -9 7 1 9 -7 6 -19 -3 -12 -1 -18 5 -14 10 7 25
-26 58 -132 15 -45 16 -58 5 -75 -12 -20 -12 -20 5 -6 17 14 18 13 13 -8 -4
-14 -2 -20 5 -15 6 4 8 -2 5 -15 -4 -12 -3 -20 2 -17 4 3 10 -3 13 -13 41
-132 45 -153 32 -142 -8 7 -12 17 -8 23 3 5 2 7 -4 4 -13 -8 -74 58 -65 69 4
4 2 4 -4 1 -12 -7 -71 61 -66 76 1 4 -4 7 -11 8 -16 0 -103 105 -99 119 1 7
-2 9 -7 6 -11 -7 -87 82 -85 100 1 8 -2 12 -6 9 -12 -8 -71 58 -65 72 2 7 1
12 -3 10 -19 -6 -127 127 -116 144 4 7 3 9 -4 5 -13 -8 -56 50 -47 64 3 5 0 8
-7 5 -16 -6 -81 82 -72 97 4 6 3 8 -4 4 -6 -3 -43 37 -86 96 -73 99 -89 127
-64 112 7 -4 8 -3 4 5 -4 6 -11 9 -16 6 -13 -8 -189 244 -396 567 -24 37 -44
71 -44 74 0 2 -5 10 -10 17 -16 19 -80 116 -80 121 0 3 -25 44 -55 92 -38 61
-53 94 -49 109 4 14 3 16 -4 7 -7 -10 -22 10 -58 75 -27 48 -47 91 -46 96 1 4
-2 7 -6 7 -4 0 -39 64 -76 143 -38 78 -77 158 -86 177 -28 56 -98 248 -125
342 -82 283 -91 531 -28 732 30 96 80 199 93 191 5 -3 12 0 16 6 4 8 3 9 -4 5
-46 -28 51 107 129 180 109 101 229 170 366 209 148 42 193 46 375 32z m2420
-9 c32 -6 55 -14 53 -18 -3 -5 3 -6 14 -3 27 7 161 -49 242 -102 64 -41 95
-69 50 -45 -11 5 -22 6 -25 2 -5 -8 1 -10 42 -13 30 -3 41 -19 36 -57 -3 -27
-1 -33 6 -22 9 13 10 13 10 0 0 -13 1 -13 10 0 6 10 10 11 10 3 0 -7 5 -13 11
-13 8 0 8 5 -1 15 -7 8 -16 13 -20 10 -4 -3 -10 4 -13 15 -8 31 7 24 54 -27
67 -72 101 -121 94 -133 -4 -6 -1 -9 5 -8 16 4 81 -112 76 -135 -2 -9 -1 -15
4 -12 4 3 10 -2 14 -10 3 -8 1 -17 -4 -20 -4 -3 -11 1 -13 7 -3 7 -6 8 -6 2
-1 -5 6 -19 14 -30 15 -19 15 -19 9 1 -5 15 -4 17 4 10 7 -6 22 -47 33 -90 29
-105 32 -345 6 -477 -17 -84 -25 -115 -69 -258 -50 -160 -193 -467 -334 -717
-103 -183 -278 -462 -289 -463 -6 0 -11 -8 -11 -18 0 -25 -304 -473 -317 -465
-6 3 -7 1 -3 -5 8 -13 -111 -185 -123 -177 -5 2 -15 -3 -22 -13 -13 -15 -12
-16 4 -3 36 29 13 -9 -96 -156 -153 -204 -218 -283 -233 -283 -8 0 -11 -6 -9
-12 3 -7 -16 -35 -41 -63 -25 -27 -52 -58 -59 -68 -7 -10 -46 -54 -86 -99 -41
-44 -78 -87 -82 -95 -5 -7 -14 -10 -20 -7 -7 4 -9 3 -4 -1 10 -11 -63 -86 -76
-78 -6 4 -7 1 -3 -6 10 -15 -23 -53 -37 -44 -5 3 -7 1 -4 -4 4 -6 0 -16 -8
-23 -8 -7 -15 -11 -15 -9 0 2 23 71 50 154 28 82 50 157 50 165 0 9 3 20 7 24
4 3 8 12 9 19 1 7 14 47 28 89 15 43 29 86 31 95 4 19 49 164 91 293 14 41 31
98 38 125 40 152 100 332 114 343 10 8 11 12 3 12 -7 0 -10 3 -8 8 5 6 33 103
147 492 118 402 171 591 232 830 38 151 72 289 75 305 2 17 17 95 33 175 25
127 38 222 80 576 13 102 13 151 0 159 -5 3 -10 29 -9 58 0 29 -5 79 -11 112
-20 109 -28 150 -35 173 -5 14 -3 22 4 22 6 0 11 -4 11 -9 0 -6 12 -3 28 5 30
17 145 13 254 -8z m-3566 -1115 c24 -205 127 -499 287 -823 51 -102 91 -191
90 -198 0 -7 2 -11 5 -8 3 3 40 -54 82 -127 42 -72 104 -178 138 -235 34 -57
59 -108 56 -114 -4 -6 -3 -8 3 -5 10 6 193 -263 193 -283 0 -5 4 -10 8 -12 17
-6 93 -129 87 -138 -4 -6 -2 -9 3 -8 15 4 74 -81 66 -94 -4 -6 -3 -8 3 -5 6 4
18 -4 27 -18 18 -28 21 -39 6 -30 -5 3 -10 1 -10 -5 0 -6 7 -10 16 -8 24 4
155 -180 149 -209 -3 -18 1 -23 18 -24 23 0 70 -51 70 -75 0 -8 6 -14 14 -14
7 0 13 -4 13 -9 0 -5 6 -16 13 -23 7 -7 41 -49 76 -92 58 -74 62 -81 45 -93
-10 -7 -13 -13 -8 -13 6 0 15 5 20 10 8 8 15 6 24 -5 7 -8 9 -15 5 -15 -4 0 4
-11 19 -25 15 -14 24 -30 20 -37 -4 -7 -3 -8 4 -4 6 4 19 -3 29 -15 10 -12 35
-41 55 -64 21 -23 35 -45 31 -48 -3 -4 -2 -7 4 -7 17 0 178 -183 165 -188 -6
-2 -12 -8 -12 -14 0 -7 5 -6 14 1 10 8 16 8 25 -2 6 -8 7 -17 3 -21 -4 -4 -2
-6 4 -4 5 2 31 -16 57 -39 l48 -41 -73 30 c-75 30 -110 52 -67 41 13 -3 21 -3
18 1 -4 4 -20 9 -35 10 -16 2 -33 4 -39 5 -5 1 -3 6 5 12 13 9 12 10 -3 5 -23
-7 -160 62 -151 76 4 7 2 8 -4 4 -16 -10 -113 46 -108 61 3 7 -1 10 -10 6 -14
-5 -184 100 -192 119 -2 5 -8 8 -14 8 -16 0 -58 37 -50 45 4 3 3 6 -3 5 -21
-5 -34 1 -64 26 -17 14 -29 30 -26 35 4 5 -2 6 -11 2 -10 -3 -22 0 -28 8 -6 8
-31 27 -55 43 -90 58 -261 189 -256 196 2 3 -2 7 -9 7 -7 0 -56 33 -109 73
-69 52 -93 77 -84 83 8 6 8 7 -4 4 -16 -5 -79 39 -161 116 -16 15 -32 27 -35
27 -5 0 -125 103 -221 191 -34 31 -59 59 -55 61 4 3 3 4 -3 2 -16 -3 -166 150
-157 161 4 4 3 5 -4 2 -10 -7 -171 157 -211 215 -9 13 -25 32 -35 43 -29 32
-131 184 -170 255 -111 201 -152 438 -111 638 28 139 115 331 136 301 7 -10 8
-8 3 7 -4 15 5 33 36 65 22 24 37 38 33 30 -5 -9 -3 -12 5 -7 6 4 9 11 6 15
-8 13 19 41 44 46 13 2 26 7 30 11 3 4 -2 4 -11 1 -31 -11 -19 2 44 48 35 25
69 43 76 40 7 -2 11 -1 8 4 -9 13 92 58 136 60 13 1 18 -12 24 -56z m4482 45
c7 -7 12 -9 12 -4 0 11 155 -72 185 -100 14 -13 30 -24 34 -24 12 0 117 -115
147 -160 14 -22 22 -44 18 -53 -3 -9 -9 -15 -13 -12 -4 2 -8 -2 -8 -10 0 -10
4 -12 12 -5 7 5 15 7 19 3 4 -4 4 1 0 11 -16 42 15 3 41 -51 71 -148 102 -358
76 -509 -16 -90 -56 -214 -94 -289 -65 -132 -254 -395 -283 -395 -9 0 -12 -5
-8 -11 10 -17 -148 -172 -159 -156 -6 8 -7 7 -4 -5 7 -21 -217 -243 -234 -232
-7 4 -9 3 -5 -4 6 -10 -68 -77 -249 -224 -123 -101 -369 -288 -378 -288 -4 0
-3 9 3 20 8 16 8 20 -3 20 -9 0 -13 -9 -12 -25 3 -20 -11 -35 -78 -85 -58 -43
-87 -59 -101 -54 -15 4 -17 3 -8 -4 10 -7 -4 -22 -57 -61 -39 -28 -71 -49 -71
-47 0 3 -14 -8 -31 -24 -19 -17 -38 -26 -47 -22 -9 3 -13 1 -9 -5 10 -15 -98
-84 -120 -77 -14 4 -15 4 -4 -4 10 -7 10 -11 1 -17 -6 -4 -18 1 -26 11 -14 18
-15 18 -5 -2 9 -19 5 -25 -28 -48 -21 -15 -45 -24 -53 -21 -9 4 -19 1 -24 -6
-4 -8 -3 -10 4 -5 7 4 12 3 12 -1 0 -9 -52 -43 -65 -43 -3 0 -4 4 0 9 3 5 1
12 -4 16 -6 3 -8 -3 -6 -14 3 -15 -8 -26 -48 -47 -29 -14 -54 -29 -57 -33 -13
-17 -201 -102 -211 -95 -7 4 -9 3 -6 -3 3 -5 -10 -17 -29 -26 -45 -22 -51 -21
-29 3 10 11 23 17 29 13 6 -3 8 -2 3 2 -10 11 23 46 36 38 6 -4 7 -1 3 6 -9
13 23 43 37 34 4 -2 6 1 5 9 -2 7 3 12 10 10 8 -1 11 2 7 8 -3 5 20 38 52 74
168 185 255 286 308 357 89 118 202 266 212 277 7 7 17 11 23 7 5 -3 7 0 5 8
-3 7 22 51 55 98 86 118 84 116 142 199 29 41 56 80 60 85 42 53 318 484 420
655 293 492 489 943 535 1232 14 85 21 108 33 108 9 0 21 -5 28 -12z m-702
-2683 c24 -52 44 -100 44 -108 0 -7 4 -17 9 -22 12 -14 85 -212 116 -314 49
-165 23 -272 -82 -339 -102 -65 -3 -61 -1683 -59 l-1525 2 -50 23 c-138 64
-181 154 -152 317 7 44 58 199 75 231 6 10 23 51 38 91 16 39 32 69 36 67 4
-3 5 1 3 9 -3 7 14 52 38 99 39 77 45 85 63 76 33 -18 64 -51 64 -69 0 -9 7
-19 15 -23 8 -3 15 -1 15 4 0 6 -4 10 -10 10 -5 0 -10 5 -10 11 0 6 18 -2 40
-18 28 -20 38 -33 34 -45 -3 -10 0 -18 6 -18 6 0 8 5 5 10 -12 20 9 9 72 -37
79 -58 125 -90 240 -167 97 -66 118 -82 90 -73 -11 4 -16 3 -12 -4 4 -6 13 -8
21 -5 8 3 34 -8 59 -25 37 -25 44 -34 34 -45 -9 -11 -7 -14 10 -14 12 0 20 4
16 10 -3 5 55 -25 129 -68 85 -49 132 -81 129 -89 -3 -7 2 -13 12 -13 9 0 13
4 10 10 -6 10 42 -9 125 -49 30 -15 81 -36 113 -46 31 -11 57 -22 57 -26 0 -4
9 -5 19 -2 11 3 28 -4 40 -16 12 -12 27 -21 34 -20 10 0 10 2 0 6 -7 2 -13 9
-13 14 0 6 8 6 19 -1 11 -5 34 -10 51 -10 17 0 29 -3 26 -8 -7 -11 188 4 213
17 11 7 21 9 21 6 0 -3 16 1 35 9 19 8 35 12 35 9 0 -3 6 -1 13 4 6 6 25 13
41 17 16 4 71 27 122 52 56 26 100 42 111 38 14 -5 15 -4 4 4 -12 8 -5 15 31
34 63 32 158 85 189 106 15 9 53 32 85 51 33 19 61 38 64 41 3 4 19 15 35 24
17 9 48 30 70 47 69 51 154 109 160 109 3 0 3 -4 0 -10 -3 -6 1 -7 10 -3 11 4
13 8 6 13 -6 3 54 55 137 118 129 97 152 111 180 107 18 -2 32 0 32 5 0 4 -11
7 -25 5 -24 -2 -25 -1 -9 16 9 11 19 19 21 19 2 0 24 -43 49 -95z"/>
</g>
</svg>
