<?xml version="1.0" standalone="no"?>
<!DOCTYPE svg PUBLIC "-//W3C//DTD SVG 20010904//EN"
 "http://www.w3.org/TR/2001/REC-SVG-20010904/DTD/svg10.dtd">
<svg version="1.0" xmlns="http://www.w3.org/2000/svg"
 width="1024.000000pt" height="1024.000000pt" viewBox="0 0 1024.000000 1024.000000"
 preserveAspectRatio="xMidYMid meet">
<metadata>
Created by potrace 1.16, written by Peter Selinger 2001-2019
</metadata>
<g transform="translate(0.000000,1024.000000) scale(0.100000,-0.100000)"
fill="#000000" stroke="none">
<path d="M5467 8313 c-3 -3 -46 -9 -94 -14 -48 -5 -133 -21 -188 -36 -55 -14
-108 -26 -117 -27 -9 0 -15 -3 -12 -7 2 -4 -8 -10 -22 -13 -15 -4 -69 -27
-121 -51 -53 -25 -100 -42 -106 -38 -5 3 -7 2 -4 -4 5 -8 -61 -52 -70 -45 -2
1 -12 -7 -24 -19 -11 -11 -27 -18 -35 -15 -8 3 -13 2 -10 -3 4 -5 -13 -20 -36
-34 -24 -14 -94 -64 -156 -111 -63 -47 -118 -84 -123 -80 -5 3 -8 1 -7 -4 4
-15 -162 -163 -175 -155 -5 3 -7 2 -4 -4 6 -10 -59 -80 -71 -75 -4 1 -7 -2 -7
-7 0 -14 -73 -90 -81 -83 -4 4 -4 2 -1 -4 8 -14 -36 -57 -47 -47 -4 5 -6 3 -4
-3 1 -7 -42 -65 -98 -130 -55 -66 -113 -136 -128 -156 -16 -21 -33 -35 -39
-31 -5 3 -7 1 -4 -4 4 -6 -10 -31 -30 -57 -38 -49 -46 -56 -36 -29 4 11 3 14
-6 9 -6 -4 -11 -15 -9 -24 3 -19 -51 -104 -62 -97 -3 2 -7 -2 -7 -9 0 -7 -31
-57 -70 -112 -38 -54 -91 -134 -118 -177 -35 -58 -50 -75 -57 -65 -7 10 -8 9
-4 -4 4 -15 -53 -133 -72 -148 -4 -3 -20 -33 -36 -67 -16 -34 -34 -59 -39 -56
-6 3 -7 1 -3 -6 4 -6 4 -17 -1 -24 -5 -7 -24 -47 -43 -89 -18 -43 -36 -78 -40
-78 -4 0 -7 -7 -7 -15 0 -28 -56 -153 -67 -151 -6 2 -8 1 -3 -1 4 -3 7 -11 7
-19 0 -9 -5 -12 -12 -8 -7 4 -8 3 -4 -5 9 -14 -55 -212 -66 -205 -4 3 -5 -1
-2 -9 3 -8 -6 -59 -20 -113 -102 -405 -115 -856 -41 -1356 18 -118 18 -111 3
-103 -7 4 -6 1 3 -7 19 -16 74 -289 60 -298 -6 -3 -6 -11 -1 -20 9 -13 10 -13
10 0 1 8 6 4 11 -9 5 -14 8 -30 5 -37 -3 -7 -2 -14 3 -16 4 -2 17 -41 30 -88
33 -118 35 -128 23 -111 -7 9 -12 10 -16 2 -4 -6 -2 -11 3 -11 6 0 11 -8 12
-17 0 -14 2 -14 6 -4 8 20 135 -346 136 -389 0 -19 2 -27 4 -17 4 16 7 15 19
-9 8 -15 12 -34 9 -41 -3 -9 0 -11 7 -7 8 5 9 1 4 -12 -4 -10 -4 -15 1 -11 4
4 33 -45 63 -110 97 -202 246 -434 354 -551 17 -18 30 -38 28 -43 -1 -6 1 -8
6 -5 4 2 29 -15 54 -38 26 -23 63 -55 83 -70 19 -15 32 -32 29 -38 -4 -7 -2
-8 4 -4 15 9 64 -23 55 -37 -3 -6 -1 -7 5 -3 7 4 12 2 12 -3 0 -6 3 -10 8 -9
10 4 232 -109 226 -115 -3 -2 2 -7 11 -11 10 -4 14 -2 9 5 -4 8 1 9 17 4 50
-16 79 -32 72 -39 -4 -4 0 -4 8 -1 9 3 51 -3 94 -14 115 -31 281 -51 458 -56
87 -2 163 -8 169 -11 7 -4 8 -3 4 4 -5 9 10 12 51 12 258 0 770 112 1088 237
129 50 338 152 424 206 41 25 79 43 84 40 6 -3 7 -2 4 3 -3 5 22 28 56 51 54
37 63 40 69 25 6 -14 7 -13 5 4 -1 14 19 38 68 81 39 33 104 96 145 139 41 43
80 77 85 75 6 -1 7 1 3 5 -11 10 73 125 85 117 6 -3 7 -1 3 5 -4 6 4 29 18 50
121 193 213 463 253 747 25 177 24 614 -2 830 -11 88 -20 181 -20 207 0 25 -3
45 -6 43 -3 -2 -20 87 -37 198 -18 111 -53 297 -77 412 -25 116 -43 224 -41
240 2 17 1 21 -2 10 -7 -28 -83 272 -77 304 4 19 3 21 -3 8 -6 -14 -11 -7 -21
35 -78 311 -306 971 -426 1234 -22 48 -33 85 -30 98 4 14 3 17 -3 8 -6 -9 -12
-6 -20 13 -7 15 -9 32 -6 38 4 7 3 9 -1 4 -11 -9 -137 232 -128 246 4 6 1 7
-7 2 -9 -6 -10 -1 -5 16 4 16 3 20 -3 11 -7 -11 -15 -5 -31 22 -12 20 -19 41
-15 47 4 7 3 9 -3 6 -6 -4 -30 23 -54 61 -88 134 -290 345 -377 391 -13 7 -20
17 -16 24 4 7 4 9 -1 5 -10 -10 -86 32 -79 43 3 5 -3 6 -12 2 -13 -5 -15 -3
-9 7 5 9 4 11 -3 6 -6 -4 -25 0 -41 8 -55 29 -182 66 -249 72 -37 4 -74 10
-83 15 -9 5 -19 6 -22 2z m128 -170 c32 -5 36 -8 20 -15 -15 -6 -13 -7 8 -3
55 11 238 -74 320 -148 26 -24 44 -47 40 -52 -5 -4 -2 -5 5 -1 17 10 107 -78
96 -95 -4 -8 -3 -9 4 -5 7 4 12 1 12 -9 0 -9 4 -14 9 -11 5 4 24 -13 43 -36
18 -23 28 -39 23 -36 -6 4 -11 -2 -11 -12 0 -13 4 -16 12 -9 8 6 16 4 25 -8 9
-11 10 -14 2 -9 -7 4 -13 2 -13 -3 0 -6 6 -11 14 -11 8 0 25 -14 37 -31 18
-26 19 -33 8 -41 -11 -8 -11 -9 3 -5 11 4 24 -6 40 -31 37 -55 52 -86 39 -78
-13 8 -14 4 -5 -19 6 -13 9 -14 16 -3 7 9 8 6 5 -10 -4 -17 -2 -22 7 -19 16 6
60 -78 50 -94 -5 -8 -3 -9 6 -4 9 5 10 2 6 -11 -3 -11 -1 -26 5 -34 9 -12 10
-11 4 5 -11 35 12 3 44 -61 32 -64 37 -79 22 -70 -5 4 -7 -3 -4 -15 4 -12 8
-16 13 -10 3 7 16 -10 29 -38 14 -28 20 -54 16 -62 -5 -8 -4 -10 3 -5 11 7 14
3 16 -26 1 -7 7 -19 14 -26 22 -24 13 -50 -29 -83 -31 -24 -50 -32 -75 -31
-18 2 -35 -1 -38 -6 -3 -5 7 -7 22 -4 24 5 26 3 13 -11 -7 -9 -18 -14 -24 -10
-5 3 -7 1 -3 -5 8 -13 -43 -54 -57 -45 -5 3 -7 2 -4 -4 3 -5 -9 -26 -27 -46
-19 -21 -41 -48 -50 -62 -9 -14 -22 -23 -28 -19 -7 4 -8 3 -4 -4 4 -6 -5 -29
-19 -51 -49 -74 -84 -179 -110 -329 -34 -202 -85 -379 -105 -367 -5 3 -6 -3
-4 -12 14 -55 -229 -361 -267 -337 -7 4 -9 3 -5 -4 9 -15 -48 -53 -71 -46 -13
4 -14 3 -5 -3 16 -12 -79 -56 -254 -118 -92 -33 -132 -42 -165 -39 -27 2 -39
0 -30 -5 7 -5 23 -7 35 -5 24 5 21 3 -102 -53 -40 -19 -101 -54 -137 -78 -44
-30 -63 -39 -59 -27 2 9 -1 6 -8 -8 -7 -14 -32 -49 -56 -79 -23 -30 -54 -73
-68 -97 -14 -24 -30 -42 -34 -39 -5 3 -9 -3 -8 -12 0 -21 -147 -350 -192 -429
-18 -30 -36 -52 -41 -49 -5 4 -6 0 -3 -8 2 -7 -14 -33 -36 -58 -23 -24 -39
-39 -36 -32 4 6 2 14 -3 17 -5 4 -8 -2 -6 -11 4 -25 -42 -72 -65 -66 -10 3
-21 -1 -26 -8 -5 -9 -2 -11 12 -6 11 4 4 -6 -16 -24 -37 -32 -258 -144 -352
-178 l-56 -20 -7 72 c-20 196 -73 344 -174 481 -27 38 -47 74 -44 79 3 6 1 7
-4 4 -6 -4 -59 48 -118 116 -184 209 -432 463 -531 543 -52 42 -94 82 -94 90
0 41 71 271 136 436 67 173 193 430 207 421 5 -3 7 -1 4 4 -8 12 62 137 159
285 138 209 379 522 395 513 5 -4 7 0 4 7 -4 11 172 213 295 339 150 153 382
345 401 333 7 -4 9 -3 5 4 -4 7 27 33 76 65 117 76 148 91 132 65 -4 -7 -3 -8
5 -4 6 4 9 11 6 16 -8 12 133 83 147 74 6 -4 8 -3 5 4 -11 17 214 95 333 115
42 7 233 7 275 0z m1055 -1363 c-12 -8 -12 -10 4 -10 12 0 16 -5 13 -14 -3 -8
-2 -16 3 -18 14 -4 102 -259 95 -275 -2 -8 -1 -12 3 -9 12 7 135 -391 127
-412 -3 -9 -3 -13 1 -9 18 18 158 -519 150 -573 -4 -26 -3 -30 4 -15 5 11 9
15 9 9 1 -6 4 -26 8 -44 4 -24 3 -31 -5 -26 -8 5 -10 2 -6 -8 3 -9 9 -14 14
-11 6 4 51 -192 66 -294 6 -36 4 -43 -7 -37 -8 4 -6 1 5 -8 13 -11 17 -22 12
-41 -5 -19 -3 -25 5 -19 8 5 10 -4 7 -29 -2 -20 -1 -34 3 -32 8 6 42 -216 43
-282 1 -29 4 -53 7 -53 3 0 12 -60 20 -132 28 -261 12 -902 -21 -848 -4 6 -7
-15 -7 -47 0 -63 -27 -176 -42 -181 -5 -2 -8 -9 -5 -16 5 -14 -48 -170 -78
-229 -10 -21 -23 -35 -28 -32 -5 3 -7 0 -4 -8 9 -25 -110 -212 -128 -201 -7 4
-8 2 -4 -5 21 -33 -294 -339 -336 -325 -10 3 -18 0 -18 -6 0 -6 5 -8 10 -5 6
3 10 4 10 1 0 -12 -86 -63 -99 -58 -8 3 -11 0 -7 -6 17 -28 -488 -274 -531
-258 -8 3 -12 2 -9 -2 5 -8 -117 -52 -145 -52 -22 0 -162 138 -153 151 4 8 3
9 -4 5 -12 -7 -38 32 -33 49 1 5 -1 7 -5 2 -12 -11 -73 91 -176 291 -140 273
-233 413 -332 499 -19 17 -32 35 -28 40 4 4 3 5 -2 1 -5 -4 -35 11 -67 33 -32
21 -93 58 -136 80 -70 36 -78 43 -26 22 15 -6 15 -5 3 8 -7 8 -30 15 -49 16
-41 0 -322 103 -426 156 -91 46 -158 95 -149 109 4 6 3 8 -3 5 -13 -8 -66 47
-56 58 5 4 2 5 -4 1 -8 -5 -27 14 -53 55 -40 63 -50 86 -28 73 7 -4 8 -3 4 5
-4 6 -11 9 -16 6 -10 -6 -47 102 -38 110 12 13 164 68 185 67 13 0 21 3 18 8
-2 4 7 12 21 19 31 14 37 14 28 -1 -4 -7 -3 -8 5 -4 6 4 9 11 7 15 -3 4 26 22
64 40 38 19 110 64 159 101 49 37 92 66 95 64 3 -2 4 -1 1 2 -2 4 11 25 31 46
60 66 127 178 183 304 113 251 134 293 144 287 6 -3 7 -1 3 5 -10 16 61 125
76 116 6 -4 8 -3 4 4 -10 17 72 87 153 130 42 22 135 60 206 86 194 68 260 93
315 121 28 14 55 23 60 20 6 -3 18 -1 27 5 15 9 14 10 -7 5 -15 -4 3 12 42 39
230 157 391 441 447 791 32 195 86 355 114 338 6 -3 7 -1 4 4 -9 14 32 65 45
57 7 -4 8 -2 4 4 -4 6 11 29 32 50 51 51 174 144 181 137 3 -4 -1 -10 -9 -15z
m-3665 -1510 c-3 -5 0 -8 7 -5 7 2 29 -9 48 -26 19 -17 28 -27 20 -23 -8 4
-12 4 -8 0 3 -4 9 -6 12 -4 9 6 75 -65 69 -75 -3 -6 -2 -7 4 -4 13 8 86 -67
76 -78 -5 -4 -3 -5 3 -2 12 7 161 -151 156 -166 -1 -5 2 -6 7 -3 13 9 183
-182 175 -196 -4 -6 -3 -8 4 -4 14 8 70 -65 65 -84 -4 -12 -2 -12 5 -2 7 10
11 10 21 -2 7 -8 10 -20 6 -26 -4 -6 -1 -9 6 -8 26 6 108 -140 134 -238 20
-78 57 -372 50 -398 -5 -15 -4 -17 3 -8 7 10 11 5 15 -18 11 -54 65 -178 103
-238 21 -31 37 -63 37 -70 0 -6 3 -10 6 -7 8 9 81 -68 74 -79 -3 -6 -3 -8 1
-4 4 3 41 -18 83 -48 41 -30 80 -54 87 -54 6 0 4 -5 -4 -11 -13 -9 -12 -10 2
-5 25 8 175 -67 173 -85 -2 -9 6 -16 19 -17 16 -1 17 1 6 8 -8 5 -12 11 -9 15
11 10 381 -133 404 -156 7 -7 5 -8 -6 -4 -10 4 -16 0 -16 -8 0 -15 14 -17 33
-4 22 14 210 -145 197 -166 -3 -6 -2 -7 4 -4 14 9 76 -80 67 -95 -4 -6 -3 -8
4 -4 14 9 31 -22 25 -45 -3 -11 0 -19 6 -19 7 0 9 5 5 12 -5 7 -3 8 5 4 7 -5
10 -15 7 -23 -3 -8 -1 -11 4 -8 5 3 21 -17 34 -44 19 -36 22 -51 13 -54 -8 -4
-7 -6 3 -6 9 -1 32 -33 53 -76 40 -80 43 -90 27 -80 -6 4 -5 -5 2 -19 6 -14
16 -26 23 -26 15 0 47 -68 39 -82 -4 -7 -2 -8 4 -4 12 7 35 -27 25 -38 -3 -3
-1 -6 5 -6 5 0 21 -17 33 -37 13 -21 46 -65 74 -98 28 -33 59 -72 69 -87 l17
-26 -88 -21 c-48 -11 -169 -32 -268 -47 -151 -22 -217 -26 -410 -27 -232 -1
-435 19 -443 43 -2 6 -8 7 -14 4 -12 -8 -80 5 -74 14 2 4 -8 7 -23 8 -45 2
-204 66 -189 76 9 7 7 8 -7 4 -14 -4 -46 9 -95 38 -92 54 -246 178 -242 195 1
7 -2 10 -7 7 -10 -6 -88 80 -158 174 -62 84 -75 108 -67 121 4 7 3 9 -4 6 -13
-9 -65 79 -56 95 4 6 3 8 -3 5 -19 -12 -189 343 -178 371 2 7 1 11 -4 8 -11
-7 -43 82 -35 95 3 5 1 9 -5 9 -13 0 -64 157 -55 171 4 7 3 9 -3 6 -18 -11
-119 363 -162 598 -57 307 -70 468 -67 810 2 261 16 415 38 415 5 0 6 -4 3
-10z"/>
</g>
</svg>
