<?xml version="1.0" standalone="no"?>
<!DOCTYPE svg PUBLIC "-//W3C//DTD SVG 20010904//EN"
 "http://www.w3.org/TR/2001/REC-SVG-20010904/DTD/svg10.dtd">
<svg version="1.0" xmlns="http://www.w3.org/2000/svg"
 width="1024.000000pt" height="1024.000000pt" viewBox="0 0 1024.000000 1024.000000"
 preserveAspectRatio="xMidYMid meet">
<metadata>
Created by potrace 1.16, written by Peter Selinger 2001-2019
</metadata>
<g transform="translate(0.000000,1024.000000) scale(0.100000,-0.100000)"
fill="#000000" stroke="none">
<path d="M5599 7936 c-2 -2 -42 -7 -89 -9 -156 -10 -349 -59 -525 -132 -63
-26 -259 -119 -265 -125 -3 -3 -17 -13 -31 -22 -20 -13 -29 -14 -38 -5 -9 9
-11 8 -6 -4 5 -15 -12 -30 -31 -28 -4 0 -10 -3 -13 -8 -13 -20 -102 -74 -111
-68 -6 4 -9 2 -8 -3 2 -5 -33 -36 -77 -69 -162 -120 -311 -255 -481 -436 -38
-40 -69 -65 -76 -61 -6 4 -8 3 -4 -4 3 -6 -38 -66 -92 -134 -98 -122 -226
-304 -272 -385 -13 -23 -28 -39 -33 -36 -6 3 -7 1 -3 -5 3 -6 -7 -32 -23 -59
-56 -94 -85 -148 -87 -162 -2 -8 -6 -17 -11 -20 -4 -3 -9 -10 -10 -16 -1 -5
-20 -49 -42 -98 -23 -48 -41 -90 -42 -95 0 -4 -6 -16 -12 -27 -6 -11 -12 -23
-13 -27 -1 -5 -2 -9 -4 -10 -1 -2 -3 -10 -5 -18 -2 -8 -15 -50 -29 -93 -29
-87 -60 -217 -83 -347 -19 -110 -20 -118 -23 -160 -2 -33 -3 -33 -10 -10 -7
21 -8 22 -9 4 -1 -11 4 -25 10 -31 7 -7 7 -43 0 -119 -7 -82 -6 -157 4 -304
14 -185 22 -241 64 -422 12 -55 14 -81 7 -89 -8 -9 -8 -10 2 -5 8 5 12 0 12
-13 0 -11 4 -22 9 -25 11 -7 21 -56 11 -56 -4 0 -11 12 -14 26 -5 19 -10 24
-17 17 -8 -8 -6 -18 5 -35 9 -14 13 -28 9 -31 -3 -4 -1 -7 5 -7 7 0 12 5 12
11 0 5 5 7 11 4 6 -4 8 -10 5 -13 -3 -3 -1 -11 5 -19 6 -7 8 -13 4 -13 -4 0
-3 -6 2 -12 9 -11 35 -79 38 -98 0 -3 9 -20 19 -39 15 -28 15 -33 3 -28 -11 4
-13 0 -10 -14 3 -11 9 -22 14 -25 5 -3 6 3 2 13 -17 48 21 -16 96 -161 62
-122 79 -162 69 -168 -8 -6 -4 -7 11 -3 21 6 23 4 19 -13 -4 -15 -2 -19 8 -15
9 3 14 -1 14 -12 0 -10 -4 -13 -12 -9 -10 6 -10 5 -1 -8 7 -8 10 -18 6 -21 -3
-4 5 -7 18 -7 18 0 34 -15 64 -57 22 -31 45 -61 50 -67 6 -6 25 -29 44 -51 43
-51 210 -221 253 -258 68 -57 226 -170 293 -210 39 -23 72 -45 73 -49 2 -5 11
-8 21 -8 9 0 26 -6 37 -14 17 -12 81 -39 239 -101 25 -10 19 -8 145 -38 182
-43 195 -44 415 -46 170 -2 273 6 375 28 25 5 59 12 75 14 17 3 51 12 77 20
35 11 50 12 59 3 9 -8 10 -8 5 1 -8 14 1 20 36 27 15 2 36 9 47 16 12 6 21 8
21 4 0 -3 7 -1 16 7 12 10 17 10 23 0 7 -10 9 -10 14 2 5 14 73 50 95 50 6 0
12 3 12 6 0 4 23 15 50 26 28 11 50 24 50 29 0 5 3 7 6 4 3 -3 29 9 57 28 28
19 55 34 59 34 4 0 16 6 25 14 19 15 176 134 200 151 8 6 49 44 91 85 151 147
234 246 303 362 19 31 42 59 52 61 10 3 15 11 11 20 -6 16 19 71 42 95 8 7 12
18 9 23 -4 5 -1 9 6 9 7 0 10 3 6 6 -3 4 5 28 19 55 13 27 24 51 24 54 0 3 7
22 16 43 42 99 111 364 125 477 9 76 12 111 24 250 9 104 4 433 -8 500 -4 22
-10 72 -13 110 -3 39 -8 84 -9 100 -5 49 -42 243 -69 361 -19 84 -22 112 -13
123 7 9 8 12 1 8 -10 -6 -40 63 -47 113 -2 14 -6 32 -10 40 -8 21 -38 122 -41
140 -2 8 -6 22 -9 30 -14 33 -36 102 -35 108 1 4 -2 14 -5 22 -21 49 -34 101
-27 105 5 3 11 0 13 -5 3 -6 4 -5 3 2 -2 7 -9 13 -16 13 -8 0 -31 54 -60 140
-26 77 -78 219 -115 315 -36 96 -68 180 -69 185 -3 11 -12 32 -45 108 -11 26
-21 51 -22 55 -3 20 -134 267 -155 291 -13 16 -24 32 -24 35 0 4 -9 17 -20 29
-11 12 -18 27 -16 34 3 7 -1 10 -8 7 -13 -5 -73 64 -68 79 1 5 -2 6 -6 3 -8
-5 -47 23 -152 107 -8 7 -18 13 -23 15 -4 1 -29 13 -56 27 -81 40 -194 74
-303 91 -56 8 -105 17 -108 19 -4 3 -9 3 -11 1z m131 -179 c14 -3 39 -8 55
-12 53 -10 98 -27 160 -58 72 -36 107 -62 97 -72 -4 -5 -2 -5 5 -2 15 9 98
-56 97 -76 -1 -10 4 -13 14 -9 11 4 14 1 9 -12 -4 -10 -3 -15 4 -11 15 10 41
-16 34 -34 -3 -8 -3 -12 1 -9 6 7 13 2 49 -42 17 -20 18 -23 3 -17 -12 4 -18
1 -18 -8 0 -9 8 -14 21 -12 15 1 26 -8 40 -32 10 -19 23 -39 29 -45 12 -12 14
-40 2 -32 -4 2 -9 -5 -9 -16 -2 -16 1 -18 10 -9 14 14 27 14 27 0 0 -5 -3 -8
-7 -6 -5 3 -14 -2 -22 -10 -12 -13 -12 -15 -1 -11 19 6 67 -48 81 -92 7 -19
22 -57 35 -84 13 -27 26 -63 29 -80 6 -29 3 -33 -42 -56 -69 -36 -161 -101
-211 -149 -23 -22 -48 -40 -55 -38 -7 1 -11 -4 -9 -11 1 -8 -11 -30 -27 -50
-23 -29 -89 -146 -97 -172 -1 -3 -5 -16 -10 -29 -7 -23 -8 -24 -15 -5 -6 16
-8 16 -8 2 -1 -9 3 -19 8 -23 12 -7 -64 -191 -78 -188 -6 2 -8 -3 -6 -10 3 -6
-8 -30 -23 -53 -15 -23 -40 -61 -56 -85 -93 -139 -303 -284 -466 -321 -25 -6
-49 -14 -55 -17 -5 -4 -37 -13 -70 -20 -33 -7 -72 -18 -87 -23 -15 -6 -30 -9
-34 -8 -4 1 -10 -2 -13 -7 -3 -6 -33 -24 -66 -42 -50 -26 -165 -122 -165 -137
0 -3 -18 -27 -40 -55 -22 -28 -40 -57 -40 -64 0 -7 -3 -15 -7 -17 -5 -1 -19
-27 -32 -55 -14 -29 -29 -53 -34 -53 -6 0 -8 -3 -4 -6 6 -6 -52 -107 -65 -112
-4 -2 -8 -10 -8 -18 0 -8 -4 -14 -10 -14 -5 0 -10 -6 -10 -13 0 -20 -57 -77
-77 -77 -15 0 -16 -2 -3 -10 33 -23 -170 -183 -302 -239 -45 -19 -53 -19 -49
2 1 5 -3 6 -9 2 -6 -3 -8 -10 -5 -15 5 -8 -31 -24 -75 -34 -21 -4 -28 0 -38
24 -7 16 -15 41 -18 56 -13 73 -113 335 -181 474 -41 85 -78 157 -82 160 -4 3
-23 27 -42 54 -18 27 -56 70 -82 94 -29 28 -46 51 -42 60 4 10 0 12 -12 8 -9
-4 -19 -3 -22 2 -13 20 -142 80 -200 93 -61 13 -62 13 -55 44 9 42 63 168 78
180 7 6 11 15 9 21 -8 24 215 426 267 482 11 12 20 24 20 28 0 9 107 153 134
180 11 12 30 34 41 50 104 145 392 424 580 563 39 28 75 56 82 61 17 14 26 13
17 -2 -4 -7 -3 -8 5 -4 6 4 9 11 6 16 -3 5 23 25 57 46 35 21 77 47 93 59 17
12 45 28 63 35 17 7 32 16 32 19 0 4 26 19 58 34 31 14 86 39 122 56 36 16 79
32 95 36 17 4 37 9 45 12 8 4 18 7 23 8 4 2 9 4 12 5 3 1 8 3 13 5 4 1 20 7
36 14 16 6 43 13 60 16 17 2 31 5 31 6 0 2 31 7 78 12 21 2 40 7 43 10 7 7
249 2 284 -6z m823 -994 c-3 -7 0 -13 7 -13 8 0 10 -10 6 -34 -4 -19 -2 -37 3
-40 5 -3 7 4 5 16 -4 21 -3 21 7 -2 35 -75 37 -84 27 -103 -5 -10 -7 -21 -4
-25 3 -3 6 0 6 6 0 7 5 12 10 12 6 0 9 -3 8 -7 0 -5 2 -15 5 -23 25 -61 33
-100 23 -110 -8 -8 -7 -11 4 -8 8 2 15 -1 15 -7 1 -5 7 -23 14 -39 6 -16 13
-36 15 -45 2 -9 8 -29 15 -45 6 -16 13 -36 15 -45 2 -9 5 -23 8 -31 3 -8 12
-36 21 -62 9 -28 12 -50 6 -53 -5 -4 -9 -12 -9 -18 0 -8 3 -8 9 2 5 7 11 9 13
5 5 -8 20 -73 22 -96 1 -3 4 -10 9 -14 4 -4 7 -17 7 -29 0 -11 4 -25 9 -30 13
-14 17 -57 7 -73 -4 -8 -3 -11 5 -10 12 3 23 -25 33 -85 5 -31 22 -109 52
-234 8 -34 14 -77 14 -96 0 -20 4 -47 10 -62 5 -14 12 -54 16 -88 3 -34 8 -80
10 -102 19 -179 25 -382 14 -510 -16 -198 -19 -235 -27 -275 -3 -19 -7 -44 -9
-55 -12 -93 -57 -274 -83 -330 -13 -28 -36 -89 -36 -95 0 -3 -8 -22 -18 -43
-9 -20 -25 -54 -34 -75 -26 -56 -103 -187 -114 -190 -5 -2 -9 -10 -9 -18 0 -8
-4 -14 -10 -14 -5 0 -10 -6 -10 -13 0 -7 -14 -28 -32 -47 -17 -19 -31 -37 -30
-40 1 -3 -35 -45 -80 -93 -60 -65 -84 -85 -91 -75 -6 9 -7 8 -3 -4 6 -21 -116
-133 -144 -132 -10 0 -16 -5 -14 -11 5 -11 -124 -105 -144 -105 -7 0 -12 -4
-12 -9 0 -5 -17 -16 -37 -26 -21 -9 -60 -29 -87 -45 -47 -27 -51 -27 -88 -14
-67 23 -169 112 -228 200 -19 27 -36 51 -39 54 -7 6 -90 174 -104 210 -5 14
-18 42 -29 62 -10 21 -21 46 -23 56 -5 30 -87 142 -144 196 -79 76 -90 86 -97
86 -3 0 -24 13 -47 29 -23 15 -52 31 -64 35 -13 4 -23 12 -23 18 0 6 -3 9 -6
6 -3 -3 -38 9 -77 27 -40 18 -117 49 -172 70 -55 20 -116 44 -135 52 -19 9
-44 18 -55 20 -10 2 -30 10 -42 18 -13 9 -23 13 -23 11 0 -8 -153 70 -177 91
-13 10 -43 33 -67 51 -25 19 -48 42 -51 53 -4 10 -11 19 -16 19 -11 0 -35 59
-30 75 1 5 -1 7 -5 3 -8 -9 -44 45 -49 73 -2 9 -8 25 -13 35 -22 44 -31 85
-19 89 7 2 48 16 92 31 44 15 84 30 89 35 5 5 16 3 25 -4 10 -8 13 -8 8 0 -5
7 14 23 50 44 63 35 141 89 187 129 16 14 33 24 38 22 5 -1 7 1 4 6 -3 5 10
25 28 46 49 53 145 196 206 306 72 130 144 236 159 232 7 -1 10 2 7 7 -4 5 0
15 8 23 34 33 67 58 76 58 6 0 10 3 10 8 0 17 191 78 215 68 9 -3 14 -2 10 3
-5 9 7 13 70 25 25 5 185 70 217 88 55 31 178 128 232 183 54 55 176 225 176
246 0 5 7 9 16 9 8 0 12 5 9 10 -4 6 7 39 24 75 17 36 31 67 31 69 0 3 4 15 9
28 5 13 8 26 7 29 0 3 4 12 11 20 6 8 14 27 17 42 2 15 8 32 13 39 4 7 8 15 8
18 2 19 42 76 85 123 61 67 137 119 161 112 10 -3 21 0 25 6 5 9 2 10 -12 5
-30 -12 -7 7 44 35 46 24 66 22 55 -8z m-3120 -1162 c62 -24 147 -86 173 -126
13 -20 14 -28 4 -40 -9 -10 -9 -15 -1 -15 6 0 11 6 11 12 0 7 15 -5 34 -27 19
-22 33 -43 30 -46 -2 -4 0 -9 5 -11 4 -1 29 -45 54 -96 26 -52 40 -92 33 -89
-9 4 -11 -2 -8 -21 4 -22 6 -23 12 -8 6 17 10 9 61 -109 12 -27 47 -137 66
-205 8 -30 16 -80 18 -111 1 -30 6 -66 10 -79 5 -15 4 -20 -4 -16 -6 4 -11 2
-11 -3 0 -6 2 -11 4 -11 2 0 11 -3 20 -6 13 -5 14 -1 6 28 -16 53 -11 57 9 8
14 -33 16 -49 8 -58 -6 -7 -6 -12 -1 -10 5 2 11 -2 12 -7 2 -6 8 -16 14 -22 6
-7 8 -13 5 -13 -3 0 3 -17 13 -37 16 -33 17 -40 4 -49 -16 -12 -19 -34 -5 -34
5 0 12 8 16 17 5 14 13 2 34 -44 14 -33 46 -87 69 -117 23 -31 42 -59 42 -62
0 -10 182 -154 194 -154 3 0 42 -18 86 -39 44 -22 80 -37 80 -35 0 3 12 -1 28
-9 28 -15 163 -67 173 -67 4 0 27 -9 53 -20 25 -12 47 -20 48 -19 2 1 14 -4
28 -11 14 -8 27 -15 30 -15 22 -4 80 -31 80 -38 0 -4 5 -5 12 -1 7 5 9 2 6 -7
-4 -11 1 -15 20 -15 18 1 30 -7 38 -22 7 -15 13 -19 16 -11 6 19 92 -42 160
-112 51 -54 101 -135 101 -166 0 -7 4 -13 8 -13 5 0 18 -21 30 -47 12 -27 24
-52 27 -57 3 -5 -2 -7 -11 -3 -21 8 -21 0 -1 -33 14 -23 14 -23 9 -2 -4 12 -2
22 3 22 12 0 36 -75 28 -89 -4 -6 -2 -9 7 -5 9 3 20 -10 32 -37 11 -23 36 -66
57 -96 21 -30 38 -56 38 -59 0 -6 71 -85 114 -126 24 -24 25 -28 10 -29 -17 0
-17 -1 1 -9 18 -7 18 -9 -10 -20 -16 -6 -39 -13 -50 -14 -12 -1 -25 -5 -30 -8
-26 -15 -170 -40 -288 -49 -184 -14 -474 -1 -505 24 -7 5 -15 7 -18 4 -6 -6
-150 33 -199 53 -16 7 -39 15 -50 17 -10 2 -22 8 -26 14 -3 6 -8 9 -11 7 -3
-1 -28 8 -56 21 -38 18 -49 27 -40 34 9 6 8 7 -5 3 -19 -6 -76 18 -89 38 -4 6
-8 7 -8 3 0 -12 -106 59 -215 144 -93 73 -295 267 -295 283 0 4 -15 22 -32 40
-64 63 -185 232 -234 327 -104 197 -180 376 -199 469 -2 8 -4 16 -5 18 -2 1
-3 5 -4 10 -1 4 -5 13 -9 20 -5 6 -6 16 -2 21 3 5 1 12 -4 16 -5 3 -10 13 -9
23 0 23 -10 71 -22 102 -5 14 -12 42 -14 62 -2 21 -7 41 -9 45 -3 5 -8 58 -12
118 -4 61 -9 114 -12 118 -18 29 5 535 28 620 6 21 11 51 13 66 1 16 8 25 16
23 11 -3 11 0 1 12 -9 11 -9 22 3 50 8 20 13 36 10 36 -3 0 -3 4 0 8 7 12 81
-1 149 -27z"/>
</g>
</svg>
