<?xml version="1.0" standalone="no"?>
<!DOCTYPE svg PUBLIC "-//W3C//DTD SVG 20010904//EN"
 "http://www.w3.org/TR/2001/REC-SVG-20010904/DTD/svg10.dtd">
<svg version="1.0" xmlns="http://www.w3.org/2000/svg"
 width="1024.000000pt" height="1024.000000pt" viewBox="0 0 1024.000000 1024.000000"
 preserveAspectRatio="xMidYMid meet">
<metadata>
Created by potrace 1.16, written by Peter Selinger 2001-2019
</metadata>
<g transform="translate(0.000000,1024.000000) scale(0.100000,-0.100000)"
fill="#000000" stroke="none">
<path d="M2295 6796 c-88 -19 -148 -50 -215 -112 -36 -34 -64 -53 -71 -48 -8
4 -9 3 -5 -5 4 -6 -11 -39 -34 -74 -61 -92 -75 -149 -75 -297 0 -141 2 -155
33 -224 25 -55 26 -60 12 -51 -5 3 -7 0 -4 -9 3 -8 12 -12 20 -9 8 3 14 0 14
-6 0 -5 14 -26 31 -45 17 -20 28 -40 24 -46 -4 -6 -3 -10 2 -9 29 5 36 -2 15
-17 -13 -9 -31 -13 -42 -9 -12 4 -20 2 -20 -5 0 -6 6 -8 13 -5 6 4 -1 -5 -18
-20 -145 -128 -221 -225 -301 -385 -24 -49 -44 -91 -44 -93 0 -3 -7 -21 -15
-41 -8 -20 -15 -37 -15 -38 0 -2 -11 -37 -25 -78 -15 -41 -28 -82 -30 -90 -2
-8 -9 -35 -15 -60 -11 -45 -27 -122 -35 -170 -2 -14 -11 -68 -19 -120 -9 -52
-16 -99 -16 -103 0 -5 -4 -6 -8 -3 -5 3 -9 -1 -9 -9 0 -8 4 -12 9 -9 4 3 4
-10 0 -28 -3 -18 -7 -141 -7 -273 0 -236 7 -302 38 -342 7 -10 -31 -13 -185
-13 -205 0 -218 -3 -218 -47 0 -47 28 -53 268 -53 l221 -1 58 -37 c79 -52 219
-97 287 -93 71 4 91 56 34 91 -17 10 -35 17 -39 14 -13 -8 -128 25 -179 51
-71 36 -108 72 -141 136 -45 90 -54 175 -41 370 13 187 17 222 32 311 6 35 13
81 16 103 3 22 10 58 15 80 13 54 18 76 23 103 41 204 168 487 276 615 56 66
165 154 233 187 67 33 83 63 54 102 -11 15 -26 28 -33 28 -16 0 -101 95 -123
139 -62 120 -58 279 9 424 28 59 127 159 190 192 67 34 263 54 245 24 -3 -4 0
-11 6 -15 8 -4 9 -3 5 4 -13 22 37 13 102 -18 42 -20 61 -34 56 -42 -5 -7 -2
-9 8 -5 19 7 73 -46 64 -62 -5 -7 -1 -8 10 -4 13 5 16 3 11 -10 -4 -10 -2 -16
6 -14 7 1 11 -6 11 -15 -1 -10 2 -16 6 -13 12 7 44 -53 68 -128 31 -93 29
-192 -3 -287 -14 -40 -32 -84 -40 -96 -26 -40 -65 -73 -79 -68 -8 3 -17 1 -21
-5 -4 -7 1 -8 12 -4 17 6 17 5 -1 -15 -19 -21 -103 -58 -148 -64 -34 -5 -48
-17 -63 -51 -13 -31 -12 -32 17 -44 46 -19 92 -16 159 12 33 14 65 23 71 19 6
-4 8 -3 4 4 -3 5 10 20 29 32 67 41 124 121 170 234 21 54 31 226 16 307 -11
65 -17 80 -70 188 -53 107 -192 220 -326 263 -54 18 -196 20 -270 4z"/>
<path d="M7680 6797 c-31 -8 -86 -30 -124 -50 -37 -20 -72 -34 -77 -31 -5 3
-8 0 -7 -8 2 -7 -3 -12 -9 -10 -7 1 -12 -1 -10 -6 1 -4 -19 -32 -45 -62 -132
-153 -181 -385 -123 -577 9 -29 15 -56 15 -59 -1 -4 4 -10 10 -14 7 -4 13 -19
13 -33 1 -14 4 -24 6 -21 7 6 50 -57 47 -69 -2 -7 -1 -9 1 -4 3 4 23 -8 44
-27 68 -57 151 -96 222 -103 59 -5 65 -4 81 18 22 32 20 52 -9 77 -26 23 -40
29 -30 13 3 -5 -24 -1 -60 9 -61 17 -130 60 -119 74 2 3 1 4 -3 1 -8 -6 -53
34 -53 47 0 5 -9 22 -21 37 -28 39 -59 153 -59 221 0 128 60 278 141 357 98
95 183 127 319 121 109 -4 196 -42 273 -120 67 -68 90 -115 127 -256 18 -71
-17 -261 -47 -255 -7 2 -10 -4 -7 -12 4 -8 -2 -27 -12 -43 -23 -36 -113 -122
-128 -122 -6 0 -17 -9 -24 -20 -19 -31 0 -56 76 -94 98 -51 258 -195 247 -224
-3 -7 -1 -10 4 -7 28 17 193 -298 173 -330 -3 -5 -9 1 -12 15 l-6 25 -6 -28
c-5 -24 -3 -28 13 -24 10 3 22 0 28 -7 21 -25 103 -323 116 -421 3 -22 12 -83
20 -135 27 -176 39 -404 26 -489 -12 -79 -46 -165 -62 -156 -5 4 -6 0 -4 -8 8
-19 -60 -78 -82 -71 -13 4 -14 3 -5 -3 11 -8 10 -12 -1 -21 -23 -19 -139 -60
-192 -67 -71 -9 -95 -23 -95 -55 0 -18 8 -31 24 -40 49 -26 221 12 309 67 21
13 43 21 50 17 7 -4 9 -4 5 1 -4 4 0 14 10 21 13 10 70 13 235 14 203 0 218 1
237 20 25 25 25 42 2 63 -16 15 -45 17 -201 17 l-183 0 14 23 c46 71 51 104
49 317 0 113 -5 230 -10 260 -6 39 -6 59 3 69 8 11 8 13 0 8 -13 -8 -19 10
-29 88 -4 28 -9 61 -12 75 -2 14 -6 35 -8 47 -2 11 -6 30 -9 41 -4 11 -9 33
-11 48 -14 101 -95 336 -162 472 -26 52 -46 100 -46 107 0 8 -4 12 -8 10 -10
-7 -51 64 -43 76 3 5 1 8 -5 7 -5 -2 -31 24 -58 56 -26 33 -76 83 -110 112
-36 31 -57 55 -50 58 7 3 3 4 -8 1 -12 -3 -30 2 -41 12 -21 16 -21 16 9 47
105 108 158 276 138 434 -15 113 -17 120 -57 200 -41 84 -123 173 -199 217
-27 15 -53 33 -57 39 -4 6 -8 8 -8 3 0 -4 -17 0 -37 9 -51 21 -231 27 -303 11z"/>
<path d="M4580 6704 c-45 -26 -108 -84 -127 -117 -9 -17 -15 -15 -78 27 -97
65 -211 86 -229 41 -10 -28 5 -44 62 -65 78 -29 138 -66 190 -115 58 -56 82
-52 118 22 25 50 104 133 129 134 22 2 63 40 67 64 3 13 1 22 -3 19 -5 -3 -9
0 -9 5 0 21 -74 11 -120 -15z"/>
<path d="M5153 6344 c-37 -20 -79 -49 -92 -64 l-25 -28 -39 29 c-21 16 -64 37
-93 49 -94 35 -141 23 -148 -37 -2 -18 0 -30 4 -28 12 7 114 -17 122 -29 4 -6
4 -14 1 -20 -3 -5 -1 -6 6 -2 6 4 8 12 5 18 -9 14 9 4 54 -29 18 -13 29 -29
26 -35 -4 -6 -3 -8 3 -5 6 4 22 -2 36 -13 14 -11 30 -20 36 -20 7 0 43 32 80
71 48 50 74 70 85 66 9 -4 15 -2 13 5 -1 6 17 17 41 25 34 12 42 19 42 38 0
27 -26 45 -64 45 -13 0 -55 -16 -93 -36z"/>
<path d="M5024 5699 c-34 -4 -85 -14 -113 -23 -38 -11 -51 -12 -51 -3 0 9 -3
8 -9 -1 -4 -7 -35 -26 -69 -42 -122 -58 -247 -159 -331 -270 -43 -57 -116
-213 -141 -302 l-24 -88 -406 0 c-223 0 -415 -3 -427 -6 -31 -8 -33 -68 -3
-84 13 -7 168 -10 473 -10 248 1 988 1 1643 1 655 -1 1200 2 1210 6 11 3 22
11 26 17 7 10 11 63 6 68 -2 1 -185 5 -407 8 l-403 5 -33 101 c-36 110 -62
166 -107 232 -16 23 -26 47 -22 54 4 6 3 8 -4 4 -6 -3 -27 15 -48 41 -21 27
-50 59 -64 72 -14 13 -24 27 -22 33 1 5 -2 7 -8 3 -5 -3 -19 2 -30 13 -36 34
-174 107 -245 130 -80 26 -231 52 -290 51 -22 -1 -68 -5 -101 -10z m241 -108
c23 -5 29 -12 28 -27 -2 -18 2 -20 25 -16 19 4 22 7 10 10 -10 2 -18 8 -18 13
0 11 3 11 37 -2 22 -8 24 -12 13 -19 -13 -8 -12 -10 3 -10 9 0 17 4 17 9 0 12
94 -29 150 -64 23 -14 38 -30 35 -35 -3 -5 0 -7 7 -5 14 5 76 -51 78 -70 1 -5
7 -9 13 -8 7 1 23 -12 36 -29 20 -25 22 -32 10 -40 -11 -7 -9 -8 6 -4 15 4 26
-3 42 -27 33 -49 68 -123 102 -214 l30 -83 -745 0 -745 0 3 23 c2 12 8 21 13
20 6 -1 10 15 11 35 1 75 105 253 205 351 51 50 188 134 207 126 7 -2 11 -1 8
4 -6 9 52 36 96 45 13 3 37 9 53 15 34 11 224 12 270 2z"/>
<path d="M2457 5642 c-27 -29 -21 -46 37 -102 38 -36 70 -84 111 -163 32 -61
61 -125 66 -141 4 -17 23 -75 42 -128 26 -72 32 -100 23 -109 -8 -9 -8 -10 2
-5 8 5 12 1 12 -11 0 -11 5 -24 12 -31 7 -7 8 -12 4 -12 -5 0 -3 -7 4 -15 7
-9 10 -18 7 -22 -4 -3 -2 -12 3 -19 6 -6 15 -38 21 -70 6 -33 13 -72 15 -88 4
-18 1 -32 -8 -37 -10 -7 -9 -9 5 -9 9 0 17 -8 17 -17 0 -10 9 -29 20 -43 11
-14 20 -31 20 -37 0 -7 10 -12 23 -12 16 1 18 2 5 6 -44 11 -11 18 74 15 71
-3 95 -7 105 -20 10 -13 12 -13 8 -2 -4 12 3 15 40 12 25 -2 43 -7 41 -11 -2
-3 21 -6 51 -7 30 0 58 -5 61 -10 4 -5 15 -10 25 -12 19 -3 87 -41 87 -49 0
-2 -4 -1 -10 2 -5 3 -10 1 -10 -5 0 -7 8 -9 21 -5 26 9 59 -20 54 -46 -2 -11
0 -17 6 -14 5 4 6 11 3 17 -4 6 -1 9 7 6 8 -3 14 -13 14 -24 1 -10 6 -18 13
-17 20 5 61 -61 77 -124 17 -66 10 -124 -21 -187 -22 -43 -74 -96 -96 -96 -10
0 -15 -5 -12 -13 9 -24 -189 -113 -291 -131 -16 -2 -41 -8 -55 -11 -14 -4 -60
-12 -102 -19 -84 -14 -109 -28 -104 -58 4 -30 34 -48 80 -48 84 0 308 55 422
103 61 26 65 26 310 27 227 0 251 2 274 19 31 23 36 44 15 65 -14 13 -45 16
-203 17 -103 1 -191 1 -196 0 -9 -2 11 28 26 39 4 3 21 37 39 75 26 59 31 81
31 150 1 44 -4 98 -10 120 -14 48 -56 118 -106 173 -20 21 -32 43 -28 47 4 5
1 5 -7 0 -7 -4 -16 -3 -20 2 -3 5 -27 22 -54 37 -26 15 -45 32 -41 37 3 5 -1
6 -9 3 -7 -2 -45 6 -83 20 -91 32 -168 43 -286 40 -83 -2 -98 0 -98 13 0 9 -9
46 -20 82 -10 36 -22 82 -25 101 -3 19 -12 54 -20 77 -8 24 -17 55 -20 70 -2
16 -16 60 -31 98 -14 39 -36 99 -49 135 -14 36 -42 101 -64 144 -22 44 -37 84
-34 90 3 6 2 8 -2 3 -10 -9 -46 43 -39 55 3 5 2 7 -3 6 -4 -2 -30 19 -57 45
-54 51 -91 60 -119 29z"/>
<path d="M7647 5607 c-29 -29 -57 -62 -64 -72 -6 -11 -15 -19 -20 -18 -5 1
-10 -4 -10 -12 0 -8 -16 -47 -35 -87 -51 -106 -66 -142 -94 -227 -14 -42 -29
-85 -34 -96 -11 -23 -80 -304 -87 -355 -3 -19 -10 -38 -15 -41 -5 -3 -60 -7
-121 -7 -140 -2 -165 -6 -255 -36 -154 -53 -256 -132 -310 -241 -40 -80 -55
-158 -46 -238 3 -34 7 -72 8 -84 0 -11 4 -19 7 -17 8 5 29 -43 25 -58 -1 -7
-1 -9 2 -5 4 9 42 -41 42 -55 0 -5 -80 -8 -178 -8 -161 0 -181 -2 -195 -18
-22 -24 -21 -45 1 -65 15 -13 58 -16 282 -20 155 -2 274 -8 285 -14 90 -47
357 -113 457 -113 42 0 68 21 68 55 0 28 -46 51 -105 54 -76 3 -230 40 -308
75 -109 47 -127 57 -122 66 3 5 0 7 -8 4 -19 -7 -107 81 -133 132 -27 56 -25
173 4 237 70 155 267 246 543 251 83 1 133 7 142 15 9 6 25 56 37 109 12 53
29 124 37 157 8 33 19 78 23 100 41 200 220 575 263 548 5 -3 7 -1 3 5 -3 5
-3 12 2 14 4 1 18 18 31 36 22 31 22 34 7 57 -28 43 -68 34 -129 -28z"/>
<path d="M4155 4770 c4 -6 -28 -10 -90 -10 -53 0 -105 -5 -116 -10 -26 -15
-27 -76 0 -85 10 -3 105 -6 211 -7 106 -1 184 -5 174 -9 -16 -7 -17 -8 -2 -8
9 -1 20 4 24 10 7 12 62 8 98 -7 14 -5 17 -4 12 4 -4 7 -2 12 3 12 6 0 11 -4
11 -10 0 -14 47 -12 54 3 5 9 7 9 12 -1 4 -9 9 -10 19 -2 9 8 15 8 20 0 9 -14
42 -13 48 3 4 10 6 10 6 0 1 -15 71 -18 71 -3 0 6 9 10 19 10 11 0 23 -4 26
-10 3 -5 14 -10 23 -10 15 0 15 2 2 10 -11 7 -7 10 18 10 20 0 31 -4 27 -10
-4 -6 5 -10 19 -10 14 0 26 4 26 10 0 5 20 8 45 7 25 -1 45 -5 45 -9 0 -13 59
-9 80 4 16 10 24 10 42 -1 16 -10 23 -10 26 -2 5 14 32 15 32 1 0 -5 9 -10 20
-10 11 0 20 4 20 8 0 4 9 8 20 9 11 1 20 -2 20 -6 0 -5 11 -8 25 -8 14 0 25 4
25 9 0 10 26 7 65 -7 16 -5 17 -5 5 4 -18 13 -7 13 45 1 27 -6 44 -5 53 2 8 8
16 8 20 2 8 -12 72 -13 72 -2 0 4 5 8 11 8 5 0 8 -4 4 -9 -6 -10 115 -8 132 2
14 9 73 5 79 -5 7 -11 71 -10 79 2 3 6 16 10 28 10 18 0 19 -2 7 -10 -12 -7
-10 -9 7 -7 12 0 19 5 17 9 -3 4 28 8 68 8 51 0 68 -3 58 -10 -11 -7 -6 -10
20 -10 26 0 31 3 20 10 -10 7 27 10 113 10 98 0 132 3 143 14 18 18 17 36 -2
61 -12 17 -29 20 -119 23 -58 3 -102 8 -99 13 3 5 -7 9 -23 8 -25 0 -26 -1 -8
-9 12 -5 -41 -9 -140 -9 -107 -1 -155 3 -145 9 13 8 12 10 -2 10 -10 0 -18 -4
-18 -10 0 -6 -283 -10 -795 -10 -515 0 -795 4 -795 10 0 6 -5 10 -11 10 -5 0
-7 -4 -4 -10z"/>
<path d="M2344 4681 c4 -6 3 -11 -3 -11 -19 0 -41 -32 -41 -59 0 -34 39 -109
85 -166 28 -33 32 -44 22 -54 -10 -11 -8 -11 12 -1 18 9 22 9 19 -1 -2 -6 -48
-29 -101 -50 -126 -49 -299 -132 -313 -150 -15 -20 -25 -49 -15 -46 5 1 23
-10 40 -26 22 -19 31 -23 31 -12 0 8 3 14 8 13 9 -1 74 26 122 52 37 19 92 42
225 92 198 75 234 85 246 74 9 -8 10 -8 6 0 -7 13 9 20 116 54 37 12 74 28 82
36 18 18 15 46 -7 68 -15 15 -22 15 -75 2 -85 -21 -206 -57 -224 -67 -13 -6
-28 2 -63 34 -25 24 -46 49 -46 55 0 7 -4 12 -9 12 -6 0 -24 29 -40 64 -17 35
-43 71 -57 81 -15 9 -23 12 -20 6z"/>
<path d="M7881 4666 c-19 -6 -39 -20 -45 -31 -35 -67 -85 -135 -123 -171 l-45
-41 -91 28 c-51 16 -105 34 -122 40 -70 25 -135 6 -135 -41 0 -34 10 -44 45
-49 34 -3 173 -48 195 -63 11 -7 9 -8 -8 -4 -13 2 -21 2 -17 -2 3 -4 27 -7 53
-8 42 -2 255 -75 385 -133 23 -10 69 -31 103 -45 72 -32 120 -32 141 1 14 21
13 25 -15 52 -16 17 -27 33 -23 37 3 4 0 4 -6 0 -7 -4 -39 4 -70 17 -87 37
-276 113 -296 120 -16 6 -13 14 27 59 55 63 123 187 108 197 -6 4 -15 16 -19
28 -7 19 -11 20 -42 9z"/>
<path d="M4810 4550 c10 -6 -45 -9 -160 -9 -166 0 -176 -1 -192 -21 -24 -29
-6 -70 31 -70 14 0 289 0 611 -1 322 0 608 0 636 0 43 1 53 5 63 25 10 18 10
29 2 45 -12 21 -16 21 -306 21 -190 0 -295 4 -295 10 0 6 -8 10 -17 10 -15 0
-16 -2 -3 -10 10 -6 -37 -10 -142 -10 -94 0 -159 4 -163 10 -3 6 -23 10 -43
10 -27 0 -33 -3 -22 -10z"/>
</g>
</svg>
