<?xml version="1.0" standalone="no"?>
<!DOCTYPE svg PUBLIC "-//W3C//DTD SVG 20010904//EN"
 "http://www.w3.org/TR/2001/REC-SVG-20010904/DTD/svg10.dtd">
<svg version="1.0" xmlns="http://www.w3.org/2000/svg"
 width="1024.000000pt" height="1024.000000pt" viewBox="0 0 1024.000000 1024.000000"
 preserveAspectRatio="xMidYMid meet">
<metadata>
Created by potrace 1.16, written by Peter Selinger 2001-2019
</metadata>
<g transform="translate(0.000000,1024.000000) scale(0.100000,-0.100000)"
fill="#000000" stroke="none">
<path d="M2675 8526 c-4 -17 -5 -129 -3 -249 3 -197 1 -217 -14 -217 -9 0 -18
3 -21 8 -2 4 -3 2 -1 -4 1 -6 -6 -16 -17 -22 -16 -10 -19 -27 -21 -129 l-3
-118 -47 -6 c-114 -17 -229 -67 -322 -140 -26 -21 -53 -36 -59 -32 -5 3 -8 2
-4 -3 3 -5 -15 -34 -39 -64 -62 -73 -137 -229 -128 -264 l6 -26 249 0 249 0 0
-25 c0 -39 35 -99 77 -134 64 -53 146 -65 218 -32 54 24 112 91 127 146 l12
45 242 0 c133 0 249 3 257 6 13 5 12 15 -8 75 -13 38 -37 93 -52 122 -35 66
-161 192 -235 235 -71 42 -185 82 -255 89 l-53 6 0 113 c0 101 -2 116 -20 134
-11 11 -30 20 -42 20 l-23 0 3 236 c2 137 -1 241 -6 246 -5 5 -21 11 -36 12
-22 3 -26 -1 -31 -28z m110 -643 l0 -93 -67 0 -68 0 0 95 0 96 68 -3 67 -3 0
-92z m110 -168 c62 -11 111 -27 165 -56 88 -45 163 -105 154 -121 -4 -6 -2 -8
4 -4 15 9 79 -69 118 -146 l34 -68 -650 0 c-357 0 -650 3 -650 6 0 3 15 35 33
72 56 114 180 230 304 283 112 48 323 62 488 34z m-30 -482 c-18 -75 -102
-130 -176 -118 -49 8 -104 54 -124 103 -8 19 -15 36 -15 38 0 2 72 4 161 4
l161 0 -7 -27z"/>
<path d="M7505 8542 c-3 -7 -5 -119 -5 -248 0 -229 0 -234 -20 -234 -12 0 -32
-11 -45 -25 -24 -23 -25 -31 -25 -135 l0 -110 -40 0 c-51 0 -164 -39 -249 -87
-90 -50 -196 -160 -245 -252 -39 -74 -69 -167 -60 -183 3 -4 115 -8 250 -8
187 0 246 -3 248 -12 3 -7 7 -25 10 -40 9 -40 66 -109 109 -131 50 -26 115
-32 162 -17 70 23 155 122 155 180 0 20 5 20 239 20 132 0 246 3 255 6 24 9
17 35 -44 167 -39 84 -165 215 -260 270 -74 43 -204 87 -256 87 l-34 0 0 113
c0 106 -2 115 -23 135 -13 12 -31 22 -40 22 -16 0 -17 21 -17 237 1 149 -3
240 -9 246 -16 16 -49 15 -56 -1z m95 -657 l0 -95 -65 0 -65 0 0 95 0 95 65 0
65 0 0 -95z m113 -170 c92 -16 212 -68 201 -87 -4 -7 -4 -10 1 -6 26 24 183
-132 232 -232 l32 -65 -641 -3 c-353 -1 -643 0 -646 2 -9 9 46 113 91 171 91
119 244 208 392 228 72 10 266 5 338 -8z m-28 -482 c-27 -108 -163 -155 -247
-85 -28 24 -58 76 -58 102 0 6 55 10 156 10 l156 0 -7 -27z"/>
<path d="M4485 7832 c-46 -8 -45 7 -45 -808 l0 -773 22 -15 c20 -14 118 -16
858 -16 740 0 838 2 858 16 l22 15 0 738 c0 607 -2 740 -14 756 -12 17 -41 20
-317 31 -243 11 -987 43 -1304 57 -33 1 -69 1 -80 -1z m860 -92 c391 -17 729
-33 753 -36 l42 -5 -2 -712 -3 -712 -815 0 -815 0 -3 740 c-1 407 0 745 2 752
4 9 24 11 68 8 35 -3 383 -19 773 -35z"/>
<path d="M4721 7607 c-8 -8 -11 -166 -11 -579 0 -530 1 -568 18 -577 10 -5
259 -8 598 -7 476 1 584 3 597 15 15 12 17 64 17 557 0 507 -1 544 -17 552
-10 5 -119 12 -243 16 -124 3 -335 11 -470 16 -135 5 -297 12 -361 14 -80 3
-120 1 -128 -7z m674 -67 c270 -11 490 -20 490 -20 0 0 -1 -229 -3 -510 l-2
-510 -555 0 -555 0 0 530 0 530 68 0 c37 0 288 -9 557 -20z"/>
<path d="M5646 7359 c-82 -64 -71 -180 22 -221 42 -19 46 -19 88 -3 127 48 94
245 -40 245 -29 0 -52 -7 -70 -21z m126 -52 c26 -33 23 -83 -7 -112 -30 -30
-64 -32 -99 -4 -21 16 -26 29 -26 64 0 36 5 48 27 65 34 26 79 21 105 -13z"/>
<path d="M5614 6920 c-97 -19 -157 -45 -188 -79 -24 -27 -46 -27 -81 0 -22 18
-29 20 -36 8 -5 -8 -9 -19 -9 -25 0 -31 -81 -26 -97 6 -6 13 -22 29 -35 36
-70 39 -366 -12 -322 -56 7 -7 36 -4 89 10 104 27 196 27 220 0 14 -16 16 -29
10 -76 -6 -51 -5 -55 12 -52 10 2 24 16 31 31 13 28 47 37 55 15 3 -9 10 -8
25 6 25 22 80 20 282 -10 121 -18 182 -11 188 19 3 15 -6 17 -78 17 -85 0
-219 17 -234 31 -18 16 70 59 154 75 150 28 155 29 158 47 4 22 -23 21 -144
-3z"/>
<path d="M1912 5737 c-9 -26 -12 -418 -12 -1653 0 -1535 -1 -1620 -17 -1621
-10 -1 -90 -17 -178 -36 -88 -20 -186 -41 -217 -47 -65 -13 -74 -21 -58 -51
10 -17 18 -20 53 -16 23 3 62 10 87 17 25 6 119 27 209 45 148 31 166 33 200
20 20 -7 128 -40 241 -74 292 -86 729 -216 840 -251 52 -16 146 -44 208 -61
l114 -33 136 34 c137 33 346 88 517 135 50 14 149 41 220 59 72 19 202 53 290
76 155 41 228 59 270 65 12 1 41 10 65 18 54 18 127 38 155 43 11 2 106 26
210 54 105 27 276 73 380 100 105 27 224 59 265 70 41 11 104 28 140 36 l65
17 365 -66 c201 -37 436 -79 522 -94 l158 -28 5 -133 c3 -88 10 -143 20 -161
8 -16 13 -30 10 -32 -2 -2 26 -4 61 -4 100 1 104 7 104 162 0 136 9 172 34
140 8 -10 29 -21 48 -23 109 -17 631 -102 908 -149 179 -31 336 -57 350 -59
40 -5 41 -5 35 -16 -3 -6 9 -1 29 10 36 22 52 45 35 55 -5 4 -7 9 -5 13 2 4
-16 7 -41 6 -24 0 -63 3 -86 7 -199 34 -243 43 -251 50 -12 11 -15 718 -4 725
4 3 8 10 8 15 0 6 -4 8 -8 5 -10 -6 -8 297 2 312 3 6 2 13 -4 17 -5 3 -10 30
-10 58 0 63 -27 126 -66 155 -16 12 -34 26 -40 31 -7 6 -15 7 -19 3 -4 -4 3
11 16 32 13 22 24 47 24 57 1 10 14 28 28 40 15 11 33 30 40 42 9 17 13 221
17 872 3 468 9 865 13 884 8 41 45 84 67 78 11 -3 21 7 30 26 26 60 100 57
-1315 57 l-1291 0 -42 -35 -41 -36 -25 22 c-14 12 -24 25 -21 28 2 4 -4 8 -13
10 -9 2 -872 5 -1918 7 l-1900 4 -12 -33z m141 -41 c21 -5 27 -12 27 -33 0
-14 3 -23 7 -20 3 4 12 -1 20 -11 10 -12 9 -7 -2 18 l-16 35 20 -23 c11 -13
25 -40 31 -60 6 -24 10 -386 10 -1029 l0 -993 23 -14 c12 -9 54 -22 92 -31 39
-8 210 -51 380 -95 171 -45 321 -83 335 -86 14 -3 114 -27 223 -55 109 -27
200 -49 201 -49 1 0 2 -69 2 -152 l-1 -153 -40 1 c-22 0 -92 14 -155 31 -301
81 -850 229 -985 264 -82 22 -174 47 -203 55 l-52 15 0 1185 c1 1035 2 1184
15 1184 8 0 15 7 15 15 0 8 6 13 13 11 6 -3 24 -7 40 -10z m858 -14 c10 -13
23 -41 29 -62 13 -46 9 -540 -4 -539 -5 0 -16 -11 -26 -25 -9 -15 -18 -25 -21
-24 -2 2 4 -5 13 -14 9 -10 22 -18 27 -18 16 0 22 -38 19 -120 -3 -72 -4 -75
-28 -76 -59 -3 -425 -46 -433 -51 -11 -7 -3 -81 23 -218 10 -55 30 -163 45
-240 14 -77 41 -225 60 -330 19 -104 37 -202 40 -217 5 -30 -4 -35 -76 -44
-63 -7 -89 -11 -233 -34 -71 -11 -130 -20 -132 -20 -2 0 -4 442 -4 983 0 963
0 984 -20 1022 -11 22 -20 42 -20 45 0 3 162 6 361 6 l361 -1 19 -23z m774 14
c60 -26 65 -50 65 -336 l0 -251 -27 -24 -28 -24 28 -23 c28 -23 29 -26 22 -81
-8 -62 -20 -78 -56 -76 -13 0 -109 -9 -214 -20 -104 -12 -233 -26 -285 -31
-52 -6 -113 -13 -135 -16 l-40 -6 -2 96 c-1 76 1 96 12 96 8 0 18 8 23 17 13
21 -6 66 -25 59 -11 -4 -13 46 -13 272 -1 215 -4 286 -15 317 -8 22 -15 41
-15 41 0 1 151 2 335 3 276 1 340 -1 370 -13z m764 -1 c56 -28 60 -48 61 -303
0 -182 -2 -232 -12 -233 -10 0 -10 -2 0 -6 17 -7 15 -23 -2 -23 -8 0 -18 -10
-22 -22 -5 -16 -1 -26 15 -36 21 -14 21 -19 21 -313 0 -165 -4 -299 -8 -299
-5 0 -19 -8 -30 -19 -21 -17 -21 -19 -4 -35 10 -9 24 -16 30 -16 9 0 12 -53
12 -195 0 -149 -3 -195 -12 -195 -9 0 -9 -3 -2 -8 14 -10 25 -40 16 -46 -4 -2
-77 -14 -162 -26 -85 -12 -197 -28 -249 -35 -95 -14 -115 -13 -108 8 2 7 0 23
-5 37 -5 14 -13 45 -18 70 -4 25 -29 144 -54 265 -25 121 -55 267 -67 325 -11
58 -29 141 -39 185 -14 61 -17 90 -10 120 5 22 10 56 10 76 0 23 7 42 20 54
11 10 20 29 20 42 0 16 -7 27 -20 30 -19 5 -20 14 -20 272 0 216 -3 271 -15
295 -8 15 -15 31 -15 35 0 3 144 8 319 9 275 3 324 1 350 -13z m684 9 l57 -7
0 -287 0 -287 -23 -21 c-13 -12 -27 -19 -30 -15 -4 3 -6 -7 -6 -23 1 -17 3
-22 6 -11 6 21 8 21 33 0 19 -17 20 -29 20 -299 0 -270 -1 -282 -20 -299 -23
-21 -23 -60 0 -60 13 0 15 -28 18 -181 l2 -181 -37 -6 c-21 -4 -146 -20 -278
-37 -132 -16 -254 -32 -270 -35 l-30 -5 0 213 0 212 29 29 c28 27 29 29 11 42
-10 7 -23 15 -29 17 -8 3 -11 88 -10 290 1 248 3 289 18 311 16 26 22 77 9 75
-28 -4 -29 10 -29 254 1 170 -3 259 -10 268 -6 8 -14 22 -17 31 -5 15 15 17
262 18 147 0 293 -2 324 -6z m580 -18 c58 -39 56 -7 54 -825 0 -414 -4 -754
-8 -757 -5 -2 -63 -11 -131 -19 -68 -8 -154 -19 -193 -25 -38 -5 -96 -13 -127
-16 l-58 -7 0 174 c0 163 1 175 20 187 11 7 20 21 20 32 0 10 -9 24 -20 30
-19 10 -20 21 -20 285 0 150 3 280 6 289 3 9 12 16 20 16 22 0 17 48 -6 60
-19 10 -20 21 -20 300 0 266 1 289 18 294 9 2 107 4 217 3 176 -2 203 -5 228
-21z m926 -31 c-18 -52 -19 -89 -19 -724 0 -411 4 -680 10 -695 10 -27 34 -34
45 -15 4 6 6 306 6 667 -1 446 2 673 9 708 7 35 21 61 41 80 l30 29 347 3
c190 2 356 1 368 -2 21 -6 22 -6 3 -43 -16 -34 -19 -63 -29 -238 0 -5 2 -56 4
-113 3 -56 2 -100 -2 -98 -4 3 -8 -4 -8 -15 0 -10 4 -19 8 -19 4 0 3 -12 -2
-26 -6 -14 -7 -23 -2 -21 7 5 8 -91 0 -99 -3 -2 -2 -23 1 -47 3 -23 4 -60 1
-82 -3 -22 -2 -58 2 -80 4 -22 7 -62 8 -88 0 -39 -5 -52 -26 -72 -15 -14 -38
-25 -50 -25 -14 0 -23 -5 -22 -12 2 -7 -2 -12 -9 -11 -7 2 -10 -4 -7 -12 5
-12 -12 -14 -108 -14 -62 0 -125 -2 -140 -6 -55 -14 -22 32 69 99 33 24 63 43
65 41 2 -2 17 21 33 50 l29 55 -22 42 c-12 24 -39 63 -59 88 -33 41 -34 45
-15 48 11 2 27 11 36 21 15 17 15 20 -5 44 -11 15 -17 27 -13 27 4 0 5 2 2 5
-8 9 -82 -44 -90 -63 -18 -45 -8 -80 37 -133 25 -29 45 -61 45 -71 0 -31 -28
-64 -99 -116 -55 -40 -74 -61 -95 -106 -25 -52 -35 -60 -73 -59 -7 0 -11 -2
-10 -6 1 -3 -7 -19 -18 -36 -18 -26 -21 -52 -25 -235 l-5 -205 -40 -2 c-201
-13 -369 -43 -478 -85 l-77 -31 -78 18 c-42 9 -120 28 -172 40 -52 13 -121 29
-152 35 l-58 11 0 767 c0 738 1 769 20 810 32 71 34 71 447 72 l361 0 -19 -55z
m1689 49 l30 -6 -20 -46 c-21 -46 -21 -61 -19 -891 1 -759 -1 -847 -15 -869
l-16 -24 -36 35 c-21 20 -57 45 -82 56 -74 32 -231 68 -405 93 -160 22 -162
23 -149 43 20 31 44 115 44 157 0 63 -38 145 -91 192 -26 23 -62 47 -80 52
-25 7 -36 17 -43 42 -8 29 -5 36 33 77 l41 45 0 462 c0 285 4 477 10 500 6 20
24 48 41 62 l31 26 348 0 c191 0 361 -3 378 -6z m-4588 -886 c0 -7 54 -275 89
-443 100 -474 124 -606 115 -614 -5 -4 -137 -27 -294 -50 -323 -47 -406 -60
-642 -96 -184 -28 -218 -30 -218 -14 0 5 -5 7 -10 4 -15 -9 -40 14 -40 36 0
19 49 32 165 44 33 4 83 11 110 16 84 16 379 58 400 58 11 0 54 5 95 11 109
17 133 34 88 64 -20 13 -37 13 -135 1 -61 -8 -138 -18 -170 -24 -32 -6 -123
-20 -203 -31 -80 -11 -155 -22 -167 -25 -23 -5 -22 -7 -37 85 -3 14 -5 25 -6
25 -1 0 -14 76 -30 168 -16 92 -34 175 -41 183 -11 14 -15 13 -31 -8 -9 -13
-18 -31 -18 -40 0 -17 39 -236 64 -356 7 -34 10 -65 5 -67 -16 -10 -100 -22
-104 -15 -2 4 -7 22 -9 41 -3 19 -16 90 -29 159 -13 69 -32 168 -41 220 -21
114 -38 207 -65 355 -11 61 -22 128 -23 149 -3 38 -2 40 32 47 38 8 158 21
410 44 91 9 219 22 285 30 189 23 364 38 391 32 13 -2 24 0 24 4 0 8 40 14 40
7z m3435 -373 c83 0 170 2 195 5 l45 5 3 -240 c2 -148 -1 -254 -8 -276 -15
-55 -47 -64 -225 -64 -164 0 -205 9 -224 51 -11 26 -17 535 -5 546 3 3 20 -1
37 -10 25 -13 63 -17 182 -17z m362 -57 c32 -34 63 -107 63 -150 0 -45 -16
-91 -30 -83 -5 3 -7 0 -4 -8 3 -8 -8 -25 -26 -41 -58 -49 -60 -45 -60 149 0
164 1 175 18 166 9 -5 27 -20 39 -33z m-1757 -371 c0 -7 8 -13 18 -13 33 0
251 -57 247 -64 -2 -4 6 -5 18 -3 21 4 173 -29 184 -40 2 -3 0 -14 -6 -25 -6
-12 -11 -41 -11 -66 0 -122 71 -181 283 -236 135 -35 549 -90 624 -83 18 1 17
-875 0 -896 -9 -12 -9 -13 1 -7 7 4 12 1 12 -9 0 -11 -6 -14 -22 -10 -13 3
-117 21 -233 41 -115 19 -307 52 -425 74 -118 21 -235 42 -260 45 -86 14 -80
-12 -80 325 0 279 1 300 18 300 9 0 168 -27 352 -59 184 -32 368 -64 408 -71
82 -13 127 -7 118 15 -3 8 -1 15 4 15 6 0 10 6 10 14 0 8 -8 12 -23 9 -13 -3
-99 9 -193 26 -93 17 -234 42 -314 55 -80 14 -183 32 -230 41 -47 9 -100 19
-118 22 l-33 6 1 141 c1 77 -1 148 -5 158 -5 12 -16 15 -43 12 -68 -8 -667
-103 -1307 -209 -701 -115 -998 -164 -1110 -180 -60 -9 -123 -18 -138 -21 -15
-2 -47 -5 -70 -6 -52 -2 -1109 262 -1104 276 2 6 57 18 123 28 65 10 138 21
162 24 41 7 42 6 42 -21 0 -34 36 -85 60 -85 10 0 21 -4 24 -9 8 -12 120 -4
221 14 44 8 143 24 220 35 77 11 156 22 175 25 68 10 585 85 605 88 28 3 35
16 35 68 l0 46 73 11 c39 7 144 21 232 32 88 12 221 30 296 41 76 11 159 22
185 25 27 3 254 31 504 63 250 32 458 56 463 54 4 -2 7 -10 7 -16z m1114 -56
c8 -61 34 -95 91 -116 37 -15 72 -17 217 -13 186 4 215 11 251 59 10 15 22 48
25 74 l5 48 101 -7 c284 -18 611 -97 611 -147 0 -9 -8 -13 -22 -11 -13 2 -23
-1 -23 -6 0 -22 -254 -64 -490 -82 -189 -14 -644 -14 -807 0 -170 15 -436 59
-468 79 -5 3 -14 6 -20 7 -24 3 -31 5 -44 13 -12 8 -12 12 2 25 8 9 20 16 26
16 6 0 11 4 11 10 0 5 29 18 64 29 127 39 230 55 442 70 18 1 22 -6 28 -48z
m-458 -206 c413 -93 1190 -98 1619 -11 66 13 134 27 150 30 17 3 24 3 17 0 -6
-3 -9 -10 -6 -15 19 -31 -85 -100 -196 -132 -199 -57 -479 -82 -800 -74 -331
9 -668 58 -808 118 -56 24 -112 70 -112 92 0 22 6 22 136 -8z m-368 -211 l3
-119 -198 -38 c-833 -159 -1228 -234 -1723 -326 -463 -87 -590 -111 -635 -120
l-40 -8 0 156 0 156 100 17 c55 10 132 22 170 27 67 9 904 147 1275 211 96 17
288 48 425 70 138 22 329 53 425 69 96 16 180 28 185 27 6 -2 11 -53 13 -122z
m2189 66 c17 -10 36 -28 42 -39 7 -13 12 -221 13 -613 l3 -594 -45 8 c-25 5
-198 33 -385 63 -187 30 -364 59 -394 65 -68 13 -108 13 -113 0 -2 -6 -9 -6
-18 0 -13 8 -15 57 -18 323 -2 250 0 315 10 319 13 5 130 -13 375 -57 78 -14
153 -23 167 -19 22 5 23 9 14 29 -6 13 -20 26 -32 28 -34 8 -189 35 -366 65
l-165 27 -3 133 -3 132 33 2 c409 20 629 53 768 116 32 15 48 18 57 10 10 -8
13 -6 13 6 0 21 8 20 47 -4z m-1016 -170 c4 0 10 7 13 16 3 8 2 12 -4 9 -6 -3
-10 -1 -10 4 0 6 9 11 19 11 19 0 19 -14 20 -470 1 -375 -1 -470 -11 -470 -7
0 -23 3 -35 6 l-23 6 1 472 c1 350 4 464 12 444 6 -16 14 -28 18 -28z m-1171
-388 l0 -308 -67 -18 c-38 -10 -142 -38 -233 -61 -91 -24 -237 -62 -325 -85
-88 -23 -227 -59 -310 -80 -328 -85 -829 -216 -1239 -324 -388 -103 -477 -126
-493 -126 -9 0 -12 94 -13 406 0 382 1 406 17 393 11 -9 14 -10 9 -1 -4 6 -4
12 1 12 17 0 560 99 823 150 439 85 781 150 812 155 38 6 1007 191 1016 194 1
1 2 -138 2 -307z m-3910 139 c85 -23 169 -46 185 -51 17 -5 91 -25 165 -45 74
-19 234 -62 355 -94 121 -33 271 -74 334 -90 63 -16 118 -34 123 -39 4 -4 7
-189 6 -409 l-3 -401 -165 48 c-276 80 -674 201 -684 208 -6 3 -17 7 -26 8
-13 1 -83 21 -410 119 l-75 22 -1 334 c-2 393 2 452 25 440 9 -5 86 -27 171
-50z m5086 -724 c4 -4 0 -7 -9 -7 -9 0 -17 -4 -17 -10 0 -11 32 -1 42 14 4 6
8 2 8 -9 1 -11 4 -66 6 -122 l5 -103 -35 0 -36 0 0 124 c0 104 2 124 15 122 8
-1 18 -5 21 -9z"/>
<path d="M7018 2405 c-2 -3 -30 -7 -61 -9 -31 -2 -59 -6 -64 -9 -4 -2 -30 -8
-56 -11 -104 -15 -233 -75 -263 -121 -25 -38 -11 -86 36 -129 49 -44 75 -58
176 -89 143 -45 283 -60 504 -54 107 3 206 8 220 11 96 18 228 61 300 97 14 7
38 28 53 47 82 106 -24 175 -345 227 -25 4 -35 10 -32 19 4 10 -2 12 -21 9
-14 -3 -28 -10 -31 -15 -4 -5 -11 -5 -18 1 -8 7 -12 4 -13 -10 -1 -10 4 -19
10 -19 175 -6 387 -67 420 -121 29 -47 -84 -116 -245 -150 -358 -75 -855 -20
-960 105 -20 24 -23 46 -7 46 6 0 9 -7 5 -15 -3 -8 -1 -15 4 -15 13 0 13 23
-1 37 -16 16 47 55 145 89 68 24 81 26 100 14 18 -12 20 -11 8 2 -11 13 -1 17
73 29 47 8 86 18 86 24 1 11 -15 18 -23 10z"/>
</g>
</svg>
