<?xml version="1.0" standalone="no"?>
<!DOCTYPE svg PUBLIC "-//W3C//DTD SVG 20010904//EN"
 "http://www.w3.org/TR/2001/REC-SVG-20010904/DTD/svg10.dtd">
<svg version="1.0" xmlns="http://www.w3.org/2000/svg"
 width="1024.000000pt" height="1024.000000pt" viewBox="0 0 1024.000000 1024.000000"
 preserveAspectRatio="xMidYMid meet">
<metadata>
Created by potrace 1.16, written by Peter Selinger 2001-2019
</metadata>
<g transform="translate(0.000000,1024.000000) scale(0.100000,-0.100000)"
fill="#000000" stroke="none">
<path d="M2790 7990 c9 -5 -61 -9 -190 -10 -192 0 -205 -2 -226 -21 -12 -12
-25 -32 -28 -45 -4 -13 -12 -24 -18 -24 -7 0 -3 -7 8 -15 16 -13 17 -16 4 -26
-13 -9 -13 -10 0 -6 8 2 25 -5 38 -17 23 -21 32 -21 495 -26 l472 -6 86 -27
c115 -35 184 -66 269 -121 44 -29 68 -51 64 -58 -4 -7 -3 -8 5 -4 15 10 43
-13 34 -27 -3 -6 -1 -7 5 -3 22 13 189 -164 176 -186 -4 -6 -2 -8 4 -4 13 8
56 -60 46 -75 -4 -7 -3 -9 4 -6 26 17 117 -210 129 -321 4 -32 7 -160 8 -287
1 -184 0 -202 -5 -90 -3 83 -6 -23 -6 -260 0 -361 1 -374 6 -140 4 177 6 73 6
-325 0 -322 -2 -560 -6 -530 -4 35 -7 -4 -6 -105 0 -148 0 -152 6 -55 3 58 7
-225 8 -627 1 -468 -2 -733 -8 -733 -5 0 -7 -7 -4 -14 8 -22 -23 -122 -59
-190 -30 -57 -147 -186 -168 -186 -6 0 -7 5 -3 12 4 7 3 8 -5 4 -6 -4 -9 -11
-6 -16 3 -5 -8 -16 -24 -25 -38 -19 -45 -19 -37 1 3 9 2 12 -4 9 -6 -4 -9 -14
-8 -22 3 -18 -43 -35 -70 -26 -14 4 -14 3 -3 -5 21 -15 -113 -42 -212 -42 -46
0 -109 -5 -138 -11 -30 -6 -65 -12 -79 -15 -33 -6 -144 -58 -181 -84 -16 -12
-34 -18 -40 -14 -7 4 -9 3 -6 -3 8 -13 -67 -86 -78 -76 -4 5 -5 3 -2 -3 4 -7
-9 -38 -28 -70 -20 -32 -40 -77 -46 -99 -23 -83 -35 -156 -27 -161 4 -3 8 -18
8 -33 0 -41 29 -120 65 -176 119 -186 335 -290 631 -302 156 -7 242 4 456 58
187 48 269 58 400 53 108 -5 144 -12 400 -78 212 -55 380 -72 551 -57 129 11
157 28 157 92 0 21 -5 41 -10 44 -6 4 -7 11 -4 17 4 7 2 8 -4 4 -7 -4 -12 -3
-12 2 0 18 -48 22 -146 12 -147 -15 -364 10 -549 65 -149 43 -197 55 -246 61
-30 3 -57 8 -61 10 -10 6 -245 7 -255 1 -4 -2 -35 -8 -68 -12 -33 -4 -98 -18
-145 -32 -167 -49 -268 -65 -405 -65 -128 0 -259 17 -250 32 3 5 -3 6 -12 4
-10 -3 -55 13 -99 35 -137 66 -213 165 -216 279 -3 141 72 246 224 310 51 21
80 27 153 28 174 2 303 28 420 84 232 111 387 310 425 545 6 39 10 646 10
1616 1 1365 -1 1565 -15 1644 -18 106 -36 164 -81 263 -18 40 -31 80 -28 90 5
13 4 14 -4 3 -12 -16 -27 3 -16 21 5 7 3 8 -6 3 -10 -6 -12 -4 -7 9 4 9 3 14
-2 11 -5 -3 -13 0 -16 6 -5 7 57 9 216 7 l224 -3 65 -31 c83 -40 153 -91 144
-106 -4 -6 -3 -8 4 -5 17 11 92 -82 129 -160 83 -173 82 -280 -2 -479 -24 -55
-49 -120 -56 -143 -7 -23 -15 -37 -18 -32 -3 5 -7 -48 -9 -118 -4 -144 10
-221 58 -327 16 -36 27 -71 23 -77 -3 -5 -2 -7 4 -4 13 8 46 -50 37 -65 -4 -6
-3 -8 3 -5 10 6 64 -76 112 -170 24 -49 26 -57 9 -48 -7 4 -5 0 4 -8 30 -24
51 -131 46 -232 -4 -73 -12 -107 -41 -180 -50 -125 -122 -267 -131 -258 -4 4
-4 -1 0 -11 6 -15 4 -17 -6 -11 -9 5 -11 4 -6 -4 10 -15 -15 -82 -27 -74 -6 3
-7 1 -3 -5 3 -6 -3 -44 -14 -84 -14 -53 -21 -111 -23 -206 -1 -73 0 -133 3
-135 10 -5 39 -138 34 -154 -4 -13 -3 -14 3 -5 7 10 15 0 28 -35 10 -26 22
-53 27 -59 14 -19 56 -146 68 -212 7 -34 10 -87 7 -116 -6 -60 -27 -137 -36
-132 -3 2 -7 -18 -8 -46 -1 -28 -5 -59 -8 -69 -4 -11 -2 -19 5 -19 6 0 8 5 4
13 -5 6 7 0 25 -15 68 -58 123 -23 161 100 59 191 46 341 -50 557 -65 146 -81
210 -81 321 0 122 38 268 80 302 9 7 10 11 4 7 -7 -3 -13 -4 -13 -1 0 3 29 68
64 144 97 210 110 260 112 427 1 77 -1 142 -5 145 -7 6 -72 188 -75 212 -1 10
-6 21 -11 25 -4 5 -5 2 -1 -4 4 -7 5 -13 3 -13 -7 0 -140 227 -162 275 -68
150 -61 277 29 483 53 124 69 193 69 307 0 102 -13 170 -53 278 -26 69 -110
196 -157 237 l-33 30 555 0 c368 0 554 -4 550 -10 -4 -6 -10 -8 -15 -5 -4 3
-7 -1 -6 -8 0 -6 -20 -55 -46 -107 -26 -52 -57 -131 -70 -175 -12 -44 -27 -83
-32 -86 -5 -4 -6 -11 -2 -17 3 -5 1 -45 -4 -88 -6 -48 -10 -648 -10 -1573 0
-1612 -1 -1589 52 -1731 13 -36 22 -73 20 -82 -2 -11 2 -18 11 -18 7 0 31 -25
52 -55 43 -64 146 -166 204 -205 23 -14 38 -30 34 -35 -5 -4 -3 -5 4 -1 7 4
40 -7 74 -24 99 -51 196 -71 361 -77 l146 -6 26 26 c32 32 40 65 25 102 -7 17
-12 32 -11 35 0 3 -7 7 -16 8 -9 1 -45 4 -79 8 -42 4 -61 10 -56 18 3 6 0 6
-8 -1 -7 -7 -37 -13 -67 -13 -70 0 -194 28 -186 42 5 7 2 8 -5 4 -7 -5 -41 6
-79 25 -89 43 -205 159 -250 249 -65 132 -70 196 -62 730 0 8 0 48 0 88 -1 41
2 82 5 93 4 10 2 19 -2 19 -7 0 -9 1159 -3 1430 0 30 1 159 1 285 -1 570 3
684 27 774 57 207 191 409 358 537 66 50 76 55 91 43 16 -13 17 -12 5 2 -11
15 -7 20 30 42 152 88 315 128 531 128 111 0 153 -4 159 -13 6 -10 8 -10 8 0
0 9 63 12 281 12 235 0 286 3 314 16 38 18 60 61 51 99 -7 28 -43 65 -63 65
-9 0 -11 5 -7 13 6 9 5 9 -7 0 -18 -14 -469 -14 -469 0 0 4 -6 5 -12 0 -15 -9
-158 -11 -152 -2 2 4 -8 7 -21 7 -14 0 -25 -4 -25 -8 0 -5 -50 -9 -110 -9
-186 -2 -332 -37 -493 -117 -38 -19 -74 -31 -80 -28 -7 4 -9 4 -5 -1 5 -5 -22
-29 -60 -53 -37 -25 -91 -66 -121 -91 -30 -25 -51 -39 -46 -31 4 8 5 12 0 8
-4 -4 -13 -18 -19 -30 l-12 -23 -1084 -3 c-860 -2 -1085 0 -1092 10 -6 10 -8
10 -8 -1 0 -8 -18 3 -42 25 -24 22 -60 52 -80 68 -21 15 -35 33 -31 39 3 5 1
7 -5 3 -6 -3 -30 7 -54 23 -24 16 -76 47 -116 68 -39 22 -69 43 -65 47 4 4 1
4 -7 1 -9 -3 -52 8 -98 25 -86 31 -226 60 -294 60 -24 0 -37 4 -33 10 3 6 1
10 -4 10 -6 0 -11 -4 -11 -8 0 -7 -183 -7 -255 0 -5 0 -19 -3 -29 -8 -15 -5
-17 -4 -11 6 8 13 -16 10 -61 -7 -13 -5 -15 -3 -9 8 7 12 6 12 -7 1 -11 -9
-18 -10 -23 -2 -3 5 -12 10 -18 10 -7 0 -6 -4 3 -10z"/>
<path d="M4248 2980 c-79 -23 -168 -62 -207 -89 -16 -11 -31 -18 -35 -16 -3 3
-4 2 -2 -1 2 -3 0 -18 -6 -34 -7 -22 -6 -36 7 -60 22 -43 55 -54 108 -34 23 9
50 16 59 17 9 1 15 4 12 8 -4 7 15 15 86 39 50 17 254 24 322 11 93 -17 232
-62 219 -71 -9 -5 -6 -9 8 -13 12 -3 21 -2 21 3 0 4 40 -5 88 -20 49 -16 112
-32 140 -36 28 -3 49 -10 47 -15 -3 -4 0 -11 6 -15 8 -4 9 -3 5 4 -5 8 24 10
106 6 123 -7 257 10 381 47 37 11 72 17 79 13 6 -4 8 -3 4 4 -7 12 141 64 249
87 81 17 252 19 345 5 91 -15 181 -41 174 -51 -3 -5 1 -6 9 -4 7 3 33 -3 58
-14 61 -28 85 -26 121 9 25 26 29 36 24 62 -8 38 -28 62 -67 78 -16 7 -26 17
-22 23 3 6 1 7 -6 3 -13 -8 -53 2 -47 12 2 4 -6 8 -17 8 -12 1 -58 11 -102 23
-60 17 -121 23 -245 27 -145 5 -178 3 -270 -16 -58 -12 -113 -23 -122 -23 -10
-1 -18 -5 -18 -10 0 -5 -9 -7 -20 -4 -11 3 -18 1 -15 -3 7 -11 -205 -77 -285
-89 -96 -15 -264 -13 -344 4 -88 18 -306 86 -302 94 2 3 -6 6 -17 7 -12 0 -49
9 -82 19 -43 12 -105 18 -220 21 -137 3 -170 1 -227 -16z"/>
</g>
</svg>
