<?xml version="1.0" standalone="no"?>
<!DOCTYPE svg PUBLIC "-//W3C//DTD SVG 20010904//EN"
 "http://www.w3.org/TR/2001/REC-SVG-20010904/DTD/svg10.dtd">
<svg version="1.0" xmlns="http://www.w3.org/2000/svg"
 width="1024.000000pt" height="1024.000000pt" viewBox="0 0 1024.000000 1024.000000"
 preserveAspectRatio="xMidYMid meet">
<metadata>
Created by potrace 1.16, written by Peter Selinger 2001-2019
</metadata>
<g transform="translate(0.000000,1024.000000) scale(0.100000,-0.100000)"
fill="#000000" stroke="none">
<path d="M3885 6261 c-44 -11 -70 -27 -99 -61 -50 -60 -57 -160 -14 -215 16
-20 17 -25 4 -25 -37 0 -46 -39 -46 -191 0 -154 3 -165 53 -182 14 -5 17 -19
17 -87 l0 -80 -131 -153 c-72 -83 -135 -151 -140 -150 -5 2 -8 -1 -6 -6 3 -15
-132 -171 -149 -171 -8 0 -13 -4 -9 -9 7 -13 -113 -153 -125 -146 -5 3 -12 0
-16 -6 -4 -8 -3 -9 4 -5 25 15 9 -7 -65 -94 -71 -83 -78 -89 -98 -76 -18 11
-54 24 -92 32 -7 1 -13 -1 -13 -5 0 -4 -16 -15 -35 -24 -20 -9 -40 -28 -47
-42 -6 -13 -14 -22 -19 -20 -4 3 -11 0 -15 -6 -5 -8 -3 -9 6 -4 10 6 11 0 6
-29 -9 -46 24 -122 60 -138 l24 -11 0 -213 c0 -160 -3 -214 -12 -217 -7 -3 -4
-6 7 -6 12 -1 26 -6 32 -12 14 -14 59 -4 66 15 3 8 7 109 8 224 l2 210 31 24
c17 12 35 22 39 20 5 -1 6 1 3 6 -10 16 18 76 58 127 83 104 169 194 179 188
6 -4 7 -1 2 6 -9 15 53 83 68 74 6 -3 7 -1 3 6 -9 14 73 108 89 103 6 -2 7 0
3 4 -11 10 32 65 44 58 6 -4 8 -2 5 3 -7 11 16 37 25 28 2 -3 5 1 5 8 0 20
135 177 146 170 6 -3 7 -1 4 4 -7 12 17 36 38 39 11 2 14 -40 16 -209 1 -117
3 -230 4 -252 1 -22 -1 -48 -4 -57 -11 -30 -123 -158 -134 -151 -6 3 -7 1 -3
-5 4 -6 -7 -26 -25 -44 -17 -18 -27 -27 -23 -19 5 10 3 12 -5 7 -7 -5 -10 -14
-7 -21 6 -16 -37 -58 -49 -48 -4 5 -5 2 -1 -4 9 -16 -163 -215 -177 -206 -6 3
-7 2 -4 -4 8 -13 -52 -85 -65 -77 -7 4 -8 2 -4 -5 4 -6 -20 -42 -58 -86 -36
-42 -66 -81 -66 -88 0 -24 31 -57 54 -57 17 0 46 26 105 95 46 52 88 92 93 88
7 -3 8 -1 4 5 -10 17 125 176 136 160 6 -9 8 -8 6 4 -4 24 324 410 335 395 5
-8 7 -7 5 4 -4 20 112 160 125 152 6 -3 7 -1 3 5 -3 6 -2 14 4 17 7 4 10 -37
8 -132 l-3 -138 -40 -5 c-54 -7 -65 -31 -65 -152 l0 -98 -61 0 c-54 0 -64 -3
-90 -29 -29 -29 -29 -31 -29 -140 0 -104 -1 -111 -20 -111 -11 0 -20 6 -20 13
0 8 -3 8 -8 1 -4 -5 -16 -10 -27 -11 -11 0 -36 -2 -56 -4 l-36 -3 1 -48 c0
-26 4 -48 9 -48 4 0 5 5 1 12 -5 8 -2 9 12 2 11 -5 619 -9 1500 -9 1589 0
1514 -2 1514 49 0 41 -14 48 -92 48 l-75 1 -1 108 c-1 60 -6 118 -12 129 -15
28 -50 40 -116 40 l-54 0 0 103 c0 126 -13 152 -75 152 l-40 0 0 132 c0 72 4
135 8 140 11 10 98 -87 90 -100 -3 -6 -1 -7 5 -3 13 8 54 -43 45 -57 -3 -5 -1
-7 5 -3 13 8 44 -33 35 -47 -3 -6 -1 -7 4 -4 6 4 33 -19 59 -51 27 -31 60 -70
74 -85 14 -16 25 -35 25 -43 0 -8 5 -14 10 -15 22 -1 45 -33 39 -53 -3 -14 -2
-17 3 -8 7 9 16 5 37 -17 15 -16 29 -37 30 -47 2 -11 8 -19 14 -19 6 0 17 -6
24 -12 6 -7 9 -13 6 -13 -3 0 10 -16 28 -36 19 -20 31 -40 28 -46 -4 -6 -2 -8
4 -4 12 7 182 -190 179 -208 -1 -5 3 -10 10 -11 6 0 21 -10 33 -22 26 -28 44
-29 70 -3 36 36 28 51 -112 209 -31 35 -55 68 -52 73 3 5 1 7 -4 6 -15 -5
-284 321 -276 334 4 6 3 8 -4 5 -14 -10 -126 119 -116 134 4 8 3 9 -4 5 -23
-14 -40 37 -37 104 2 36 5 157 6 270 1 118 5 190 9 170 6 -26 8 -29 9 -11 1
23 2 24 21 6 22 -20 27 -41 8 -29 -9 5 -9 3 1 -9 7 -9 17 -15 21 -12 10 6 45
-33 37 -42 -4 -3 -7 -1 -7 5 0 7 -5 12 -12 12 -16 0 8 -25 25 -25 7 -1 11 -7
9 -14 -1 -7 2 -10 7 -7 10 7 53 -47 46 -58 -3 -3 -2 -4 2 -1 8 6 43 -24 43
-37 0 -5 -6 -6 -12 -2 -10 5 -10 3 0 -7 7 -8 18 -14 25 -14 7 -1 11 -7 9 -14
-1 -7 1 -10 6 -7 10 6 147 -157 147 -176 1 -7 6 -12 12 -11 14 3 164 -173 167
-195 2 -10 7 -17 12 -17 19 0 35 -17 30 -31 -3 -8 0 -13 7 -11 7 1 11 -4 9
-11 -1 -8 2 -11 7 -8 12 8 27 -13 35 -50 4 -17 22 -46 41 -64 l35 -34 0 -197
c0 -128 4 -208 12 -226 6 -15 12 -31 12 -35 1 -3 5 -10 10 -15 5 -5 6 -3 2 5
-5 8 0 12 17 12 53 0 57 18 57 251 0 118 4 210 8 204 4 -5 13 -11 21 -13 12
-3 12 0 1 12 -7 9 -9 16 -4 16 5 0 20 17 34 37 19 28 25 50 26 95 0 31 -1 56
-3 54 -5 -5 -68 58 -66 65 1 4 -8 5 -20 2 -18 -4 -19 -3 -7 7 18 14 7 12 -84
-16 l-59 -18 -21 26 c-62 74 -190 224 -534 625 -77 90 -121 148 -116 156 4 6
4 9 -1 5 -4 -4 -14 -3 -22 3 -9 8 -13 37 -13 94 l0 83 29 5 c41 9 50 46 47
205 -3 119 -5 134 -23 152 -12 10 -24 16 -29 12 -4 -4 3 10 15 31 71 117 -22
272 -160 270 -81 -1 -157 -66 -174 -150 -7 -37 10 -110 32 -135 15 -17 -41
-18 -1050 -18 l-1065 0 20 38 c29 55 21 138 -18 189 -16 21 -27 43 -26 48 2 6
0 7 -3 3 -4 -4 -19 -1 -34 6 -37 19 -81 25 -116 17z m74 -106 c32 -16 41 -33
41 -75 0 -42 -9 -59 -40 -75 -21 -11 -36 -12 -64 -4 -41 11 -56 33 -56 81 0
52 14 66 88 87 2 1 16 -6 31 -14z m2395 5 c32 -12 49 -45 48 -89 -2 -47 -30
-73 -78 -73 -87 0 -118 124 -40 158 38 16 39 16 70 4z m-2364 -390 l0 -90 -75
0 -75 0 -1 40 c-1 22 -1 49 -1 60 0 11 0 34 1 50 l1 30 75 0 75 0 0 -90z
m2160 0 l0 -90 -1030 0 -1030 0 0 90 0 90 1030 0 1030 0 0 -90z m254 74 c3 -9
6 -49 6 -90 l0 -75 -80 2 -80 2 0 88 0 89 74 0 c58 0 75 -3 80 -16z m-2461
-288 c4 4 7 -4 7 -17 0 -13 0 -170 0 -348 0 -308 -1 -325 -20 -349 l-20 -25 0
389 c1 316 4 385 14 366 6 -12 15 -19 19 -16z m2247 20 c0 -4 -6 -6 -13 -3
-10 4 -12 -3 -8 -27 4 -30 5 -30 12 -6 4 14 7 -116 8 -287 l1 -313 -37 -2
c-21 0 -44 -1 -51 -1 -7 1 -11 -2 -8 -5 3 -3 2 -10 -3 -16 -5 -6 -12 -86 -15
-176 -3 -91 -5 -169 -5 -175 -1 -7 -320 -10 -939 -9 -515 1 -945 2 -954 3 -16
1 -17 17 -16 177 2 164 1 177 -18 191 -10 8 -33 13 -51 11 l-32 -4 -3 324 c-2
178 -2 325 -1 326 7 7 2133 -1 2133 -8z m148 -186 c0 -116 -4 -177 -8 -150 -7
43 -7 42 -8 -20 0 -45 2 -59 8 -45 6 12 9 -50 8 -162 -1 -151 -4 -181 -14
-172 -8 6 -12 15 -9 19 3 4 -2 10 -10 14 -13 5 -15 55 -15 361 l0 355 25 -2
25 -2 -2 -196z m-154 -946 c3 -9 6 -45 6 -80 l0 -64 -1057 0 c-687 0 -1053 4
-1043 10 12 8 11 10 -7 10 -22 0 -23 4 -23 68 0 47 3 63 10 52 8 -13 10 -12
10 3 0 16 57 17 1049 17 947 0 1049 -2 1055 -16z m-1114 -264 c0 -5 5 -10 11
-10 5 0 7 5 4 10 -4 7 205 10 620 10 383 0 624 -4 620 -9 -3 -5 5 -11 17 -13
24 -3 26 -19 17 -115 l-3 -33 -576 3 c-471 2 -575 4 -572 15 1 8 -2 11 -8 7
-6 -3 -8 -11 -5 -16 4 -6 -120 -9 -324 -8 -244 0 -331 3 -335 12 -5 9 -7 9
-12 0 -4 -8 -27 -13 -65 -13 -40 0 -59 4 -59 13 0 8 -2 9 -8 1 -10 -17 -422
-18 -422 -1 0 9 -2 9 -8 0 -4 -7 -21 -10 -37 -8 -17 2 -36 4 -42 4 -16 1 -11
123 5 129 7 2 12 10 12 18 0 12 87 14 585 14 383 0 585 -3 585 -10z"/>
</g>
</svg>
