<?xml version="1.0" standalone="no"?>
<!DOCTYPE svg PUBLIC "-//W3C//DTD SVG 20010904//EN" "http://www.w3.org/TR/2001/REC-SVG-20010904/DTD/svg10.dtd">
<svg xmlns="http://www.w3.org/2000/svg" version="1.0" width="1024.000000pt" height="1024.000000pt" viewBox="0 0 1024.000000 1024.000000" preserveAspectRatio="xMidYMid meet">
<metadata>
Created by potrace 1.16, written by Peter Selinger 2001-2019
<meta name="Producer" content="Online-Convert"/></metadata>
<g transform="translate(0.000000,1024.000000) scale(0.100000,-0.100000)" fill="#000000" stroke="none">
<path d="M7049 8384 c-22 -23 -24 -35 -27 -141 -4 -135 5 -169 55 -190 39 -16 68 -10 101 20 21 19 22 28 22 154 0 129 -1 135 -25 158 -34 35 -93 34 -126 -1z"/>
<path d="M6440 8129 c-36 -14 -60 -49 -60 -88 0 -31 11 -46 93 -128 80 -79 98 -93 126 -93 47 0 91 46 91 96 0 33 -9 46 -87 125 -90 90 -119 106 -163 88z"/>
<path d="M7725 8133 c-11 -3 -62 -46 -112 -96 -84 -83 -93 -95 -93 -128 0 -29 7 -43 31 -63 48 -40 79 -35 146 26 123 111 148 145 139 192 -10 52 -58 82 -111 69z"/>
<path d="M7022 7899 c-222 -37 -402 -254 -402 -484 0 -164 112 -350 257 -428 58 -31 163 -57 233 -57 176 0 358 119 437 287 34 71 38 87 41 180 4 84 1 112 -18 167 -56 170 -196 295 -369 332 -73 15 -102 16 -179 3z m211 -198 c68 -33 123 -86 154 -149 37 -75 39 -182 6 -255 -32 -70 -117 -150 -182 -172 -71 -23 -179 -17 -240 14 -187 96 -228 342 -82 494 87 93 233 121 344 68z"/>
<path d="M6155 7484 c-31 -33 -34 -91 -6 -125 19 -23 24 -24 161 -24 l142 0 24 28 c31 37 31 78 -2 116 l-26 31 -134 0 c-133 0 -135 0 -159 -26z"/>
<path d="M7755 7485 c-36 -35 -35 -105 1 -134 24 -19 40 -21 146 -21 134 0 169 11 186 59 13 36 6 69 -21 99 -19 21 -28 22 -154 22 -129 0 -135 -1 -158 -25z"/>
<path d="M6565 7001 c-11 -5 -57 -47 -102 -95 -72 -74 -83 -90 -83 -120 0 -49 41 -86 94 -86 37 0 47 7 128 88 82 82 88 91 88 129 0 67 -63 109 -125 84z"/>
<path d="M7549 6982 c-25 -22 -32 -36 -31 -63 1 -29 14 -47 95 -126 87 -87 97 -93 135 -93 33 0 45 6 66 31 45 53 37 73 -73 181 -113 112 -136 120 -192 70z"/>
<path d="M2853 6975 c-145 -32 -280 -140 -346 -275 -42 -85 -61 -167 -75 -320 -12 -126 -35 -192 -104 -297 -113 -173 -159 -325 -159 -528 0 -213 54 -378 175 -533 128 -166 269 -253 514 -318 10 -3 12 -66 10 -290 l-3 -287 -120 -42 c-137 -47 -300 -124 -395 -185 -95 -62 -192 -165 -231 -246 -31 -63 -34 -77 -34 -164 0 -89 2 -100 35 -165 82 -164 285 -313 584 -430 755 -295 2039 -423 3201 -319 1120 99 1902 360 2109 703 172 283 -2 559 -475 755 -253 104 -710 222 -1036 267 l-91 13 -7 40 c-14 91 -105 186 -236 245 -191 87 -507 150 -836 167 l-123 7 0 181 c0 283 27 438 106 606 47 99 90 150 162 188 52 28 70 32 133 32 91 0 157 -28 211 -88 39 -43 68 -120 68 -179 0 -47 16 -72 56 -89 29 -12 39 -12 68 0 43 18 56 42 56 103 0 109 -45 210 -131 295 -104 105 -255 153 -401 129 -192 -32 -322 -152 -410 -381 -9 -23 -11 -20 -38 44 -33 77 -115 191 -172 236 -56 46 -157 90 -234 102 -221 37 -460 -118 -510 -331 -32 -136 -6 -200 83 -201 52 0 83 33 83 90 0 102 62 200 157 246 71 35 165 37 237 6 108 -48 201 -191 262 -402 25 -89 27 -111 31 -341 l5 -246 -129 -7 c-365 -19 -690 -88 -861 -182 -120 -65 -195 -143 -209 -216 -9 -48 -20 -58 -67 -58 -86 0 -382 -54 -629 -114 l-97 -23 2 266 3 266 95 31 c120 39 159 59 258 134 283 213 409 562 322 894 -26 99 -64 182 -134 295 -71 115 -92 181 -106 322 -26 266 -106 422 -272 530 -104 67 -238 91 -355 64z m228 -192 c138 -62 201 -187 229 -462 13 -129 43 -216 107 -311 106 -158 142 -258 150 -415 5 -92 2 -125 -15 -193 -39 -154 -126 -290 -246 -386 -64 -52 -179 -111 -233 -122 l-33 -6 0 394 0 395 -25 23 c-35 33 -87 32 -120 -1 l-25 -24 0 -398 -1 -398 -32 6 c-42 9 -123 43 -168 71 -283 175 -399 526 -284 858 13 38 56 121 94 185 83 137 105 195 120 322 22 181 32 233 52 279 44 99 96 151 195 191 63 25 169 21 235 -8z m1950 -2312 c4 -121 6 -131 28 -155 33 -35 92 -36 126 -1 24 23 25 29 25 155 l0 130 39 0 c22 0 98 -5 168 -10 428 -35 803 -156 803 -259 0 -132 -454 -252 -1015 -268 -471 -13 -933 60 -1117 176 -124 79 -94 149 96 222 184 71 521 129 797 138 l47 1 3 -129z m-1209 -605 l3 -283 35 -69 c40 -77 126 -158 227 -212 135 -71 355 -130 633 -168 152 -22 591 -24 745 -5 402 49 683 144 821 278 114 109 124 148 124 482 l0 254 63 -7 c101 -11 440 -82 601 -126 741 -204 997 -455 729 -717 -252 -246 -843 -429 -1710 -528 -1047 -120 -2325 -33 -3113 212 -303 94 -507 198 -626 319 -66 67 -94 125 -94 192 0 72 19 112 87 183 100 106 254 186 518 272 286 93 523 144 947 206 4 1 8 -127 10 -283z m278 186 c213 -104 607 -172 998 -172 416 0 897 83 1081 186 24 13 47 22 50 18 3 -3 6 -103 6 -222 0 -207 -1 -219 -23 -264 -93 -188 -512 -310 -1072 -311 -295 -1 -529 23 -715 73 -223 60 -339 126 -395 224 l-30 51 0 233 c0 129 3 232 8 230 4 -2 45 -23 92 -46z"/>
<path d="M7053 6786 l-28 -24 0 -142 0 -142 28 -24 c38 -32 90 -32 122 1 24 23 25 29 25 165 0 136 -1 142 -25 165 -32 33 -84 33 -122 1z"/>
<path d="M6805 5365 c-25 -24 -25 -25 -25 -220 l0 -195 -81 0 c-79 0 -82 -1 -115 -34 l-34 -34 0 -217 0 -217 29 -29 c39 -38 88 -40 122 -3 23 25 24 32 27 190 l3 164 55 0 54 0 0 -126 c0 -125 0 -126 29 -155 41 -41 90 -40 125 2 25 29 26 36 26 155 l0 124 330 0 330 0 0 -161 0 -161 29 -29 c20 -19 40 -29 59 -29 81 0 92 27 92 225 l0 155 60 0 60 0 0 -104 c0 -123 6 -158 32 -185 25 -27 87 -28 119 -2 l24 19 0 420 0 420 -24 26 -24 26 -639 0 -639 0 -24 -25z m681 -145 l494 0 0 -135 0 -135 -510 0 -510 0 0 141 c0 125 2 140 16 135 9 -3 238 -6 510 -6z"/>
</g>
</svg>
