<?xml version="1.0" standalone="no"?>
<!DOCTYPE svg PUBLIC "-//W3C//DTD SVG 20010904//EN"
 "http://www.w3.org/TR/2001/REC-SVG-20010904/DTD/svg10.dtd">
<svg version="1.0" xmlns="http://www.w3.org/2000/svg"
 width="1024.000000pt" height="1024.000000pt" viewBox="0 0 1024.000000 1024.000000"
 preserveAspectRatio="xMidYMid meet">
<metadata>
Created by potrace 1.16, written by Peter Selinger 2001-2019
</metadata>
<g transform="translate(0.000000,1024.000000) scale(0.100000,-0.100000)"
fill="#000000" stroke="none">
<path d="M2855 6604 c-51 -26 -75 -56 -116 -139 -65 -135 -115 -387 -118 -595
-1 -63 -6 -119 -12 -125 -15 -15 -10 -34 12 -46 12 -6 19 -7 15 -1 -3 5 1 13
10 16 11 4 15 2 11 -7 -3 -8 1 -14 8 -14 7 0 11 5 9 12 -3 6 6 20 19 32 14 11
33 35 43 52 10 17 25 31 32 31 15 0 11 -8 -31 -54 -9 -11 -33 -52 -53 -90 -20
-39 -40 -73 -43 -76 -3 -3 -7 -9 -8 -15 -1 -5 -14 -37 -29 -70 -15 -33 -27
-63 -26 -67 1 -5 -4 -8 -12 -8 -12 0 -14 19 -9 118 12 240 2 355 -36 435 -25
52 -35 64 -65 73 -20 6 -36 7 -36 3 0 -5 -6 -9 -14 -9 -28 0 -80 -56 -106
-115 -51 -113 -63 -314 -27 -436 8 -24 12 -50 9 -57 -2 -6 0 -12 5 -12 5 0 20
-23 32 -51 17 -37 20 -54 12 -62 -6 -6 -11 -18 -10 -27 0 -9 4 -6 10 8 5 13
13 20 19 17 6 -4 7 -11 4 -17 -5 -8 -1 -9 10 -5 13 5 17 3 13 -7 -4 -10 -1
-13 9 -9 7 3 14 0 14 -6 0 -21 59 -12 71 10 7 14 7 19 0 15 -10 -6 -31 22 -31
42 0 5 11 12 24 14 20 4 26 0 31 -19 8 -34 -3 -63 -34 -92 -14 -14 -24 -25
-21 -25 3 -1 -6 -19 -20 -41 -13 -22 -29 -51 -36 -65 l-11 -25 -8 35 c-11 45
-9 39 -29 85 -9 22 -21 47 -26 55 -29 45 -48 88 -42 95 4 5 1 5 -5 1 -11 -6
-19 7 -10 17 1 2 -5 10 -13 19 -25 24 -95 119 -93 124 2 2 -43 49 -98 104
-165 164 -287 222 -353 167 -25 -20 -30 -32 -34 -84 -3 -50 0 -68 22 -111 15
-29 23 -52 19 -52 -5 0 0 -5 10 -11 9 -5 17 -15 17 -20 0 -6 12 -26 27 -45 22
-30 24 -37 12 -46 -11 -8 -10 -9 4 -4 13 4 30 -6 58 -34 22 -22 37 -40 34 -40
-4 0 7 -14 24 -31 17 -17 31 -40 32 -52 0 -21 1 -21 8 -2 8 19 8 19 15 -2 4
-13 15 -23 23 -23 9 0 14 -2 11 -5 -3 -3 13 -25 36 -48 61 -65 80 -88 110
-132 15 -22 43 -56 62 -77 19 -20 34 -40 34 -44 0 -7 -41 31 -150 137 -20 20
-46 39 -56 43 -10 3 -35 21 -55 40 -21 18 -54 44 -75 57 -22 13 -43 27 -49 31
-30 24 -92 61 -149 88 -80 39 -129 39 -134 0 -2 -21 5 -30 40 -50 24 -13 47
-30 51 -37 5 -7 12 -11 17 -8 6 3 15 1 22 -5 7 -6 48 -34 91 -62 42 -27 77
-54 77 -59 0 -5 6 -9 13 -9 8 0 24 -11 37 -25 13 -14 28 -25 33 -25 5 0 20
-10 32 -22 12 -13 38 -34 58 -48 19 -14 33 -28 31 -31 -2 -4 5 -9 16 -12 16
-4 20 -11 16 -34 -5 -25 -4 -26 8 -11 11 16 17 13 57 -29 24 -25 39 -43 33
-40 -7 4 -14 0 -18 -8 -4 -11 1 -13 23 -9 28 6 42 -4 54 -39 4 -10 3 -16 -2
-13 -5 3 -23 -7 -40 -23 -60 -56 -208 -110 -225 -82 -4 6 -12 9 -17 5 -28 -17
-148 106 -136 139 2 7 -9 19 -26 28 -29 16 -31 15 -59 -9 -25 -23 -40 -51 -19
-38 4 3 13 -12 19 -32 7 -21 28 -57 48 -81 l37 -42 -26 -27 c-68 -72 -162
-286 -182 -414 -5 -34 -9 -38 -35 -38 -16 0 -53 -5 -82 -11 -43 -9 -62 -20
-100 -60 -45 -46 -48 -52 -48 -104 0 -44 5 -60 23 -77 12 -13 21 -26 20 -29
-3 -9 80 6 107 20 14 8 47 29 74 48 l49 35 41 -20 c23 -11 53 -24 68 -27 16
-4 26 -10 24 -14 -7 -10 144 6 184 20 45 15 123 72 144 104 19 29 20 44 2 67
-12 16 -14 16 -37 -5 -118 -110 -271 -133 -334 -51 -15 20 -23 39 -19 46 5 7
8 22 9 33 2 52 18 124 27 119 5 -4 9 2 8 12 -4 34 0 45 12 38 7 -4 8 -3 4 4
-4 7 -4 18 1 25 4 6 9 20 10 30 4 23 51 117 70 138 7 9 16 29 19 45 3 16 10
34 16 39 8 7 8 6 3 -5 -8 -13 -7 -13 8 -1 9 7 17 10 17 5 0 -5 17 -10 37 -11
22 -1 43 -9 52 -20 11 -15 13 -15 8 -2 -4 13 2 17 32 17 42 1 117 32 203 84
53 33 64 35 170 42 62 4 124 9 138 11 55 8 246 36 265 39 33 4 75 37 75 59 0
40 -23 44 -158 25 -69 -9 -129 -15 -134 -12 -4 3 -25 1 -45 -5 -21 -5 -74 -12
-118 -15 -73 -6 -78 -5 -55 8 14 8 24 17 23 20 -7 14 -2 27 7 21 6 -3 10 0 10
7 0 8 9 21 20 31 11 9 20 15 20 13 0 -2 16 12 35 30 20 19 59 49 88 67 234
153 243 158 251 149 3 -3 6 0 6 6 0 7 5 12 11 12 6 0 17 7 26 15 8 8 18 13 23
10 4 -3 11 2 14 11 4 9 9 14 13 10 4 -3 18 4 31 16 14 13 22 17 18 11 -12 -21
1 -15 35 17 18 16 37 26 42 23 6 -3 7 -2 4 4 -3 5 8 17 26 26 41 22 66 38 91
59 11 10 28 20 38 24 10 3 18 9 18 13 0 10 96 57 135 66 6 2 33 9 60 18 28 8
53 15 58 16 4 0 30 12 57 26 28 14 56 23 63 19 7 -4 9 -4 5 0 -6 7 7 28 40 62
8 8 18 11 24 8 6 -4 8 -2 4 4 -3 6 11 28 32 49 93 91 119 113 125 107 4 -4 7
-3 7 3 0 28 197 126 279 138 23 3 55 11 69 16 60 23 282 3 265 -24 -3 -6 -1
-7 5 -3 13 8 113 -54 107 -65 -3 -3 12 -1 33 7 50 18 115 17 160 -1 53 -22
132 -78 132 -93 0 -7 4 -11 8 -8 10 6 87 -102 86 -120 -1 -8 3 -14 8 -14 6 0
5 -7 -2 -15 -11 -13 -10 -14 4 -9 11 4 19 -1 25 -17 5 -13 7 -27 4 -31 -2 -5
0 -8 5 -8 10 0 35 -86 49 -169 9 -50 33 -72 61 -55 13 9 17 24 15 74 -3 116
-40 222 -113 331 l-40 58 22 13 c13 7 26 11 31 10 4 -1 7 2 7 7 0 5 24 19 53
32 40 17 71 23 134 23 76 1 84 -1 127 -31 53 -37 68 -40 87 -17 43 52 178 107
267 108 84 1 122 -7 197 -44 101 -49 229 -179 209 -211 -4 -8 -3 -9 4 -5 7 4
17 -13 27 -46 20 -69 20 -71 -17 -93 -18 -10 -51 -33 -74 -52 -23 -18 -47 -33
-53 -33 -14 0 28 -59 42 -59 5 -1 23 10 40 23 104 77 223 86 310 23 20 -16 24
-23 15 -30 -9 -5 -6 -6 7 -3 24 7 81 -48 139 -133 28 -41 34 -56 24 -63 -10
-6 -8 -8 5 -8 15 0 19 -6 16 -26 0 -4 3 -10 8 -13 5 -3 16 -24 25 -46 14 -34
20 -54 33 -115 12 -56 37 -64 81 -24 16 15 23 23 15 19 -9 -5 -12 -3 -9 6 8
23 -41 170 -84 249 -50 95 -133 197 -195 243 -43 31 -66 42 -148 72 -11 4 -33
8 -50 9 -17 0 -29 6 -28 13 3 17 -31 113 -53 148 -44 70 -107 144 -149 174
-25 18 -42 37 -39 43 4 6 2 8 -3 5 -6 -4 -40 6 -74 23 -152 70 -335 58 -468
-31 l-54 -36 -46 23 c-36 19 -64 24 -127 25 -93 2 -143 -13 -241 -72 -41 -24
-65 -33 -71 -27 -6 6 -19 15 -29 22 -64 38 -83 52 -83 61 0 12 -24 15 -151 18
-84 3 -102 6 -135 28 -90 59 -265 75 -410 36 -125 -33 -282 -113 -384 -196
-24 -20 -49 -35 -55 -33 -5 2 -7 1 -3 -3 15 -15 -20 -35 -44 -26 -16 6 -27 4
-36 -5 -7 -8 -10 -14 -6 -14 4 0 -6 -13 -22 -28 -16 -16 -34 -38 -40 -48 -6
-10 -28 -28 -50 -39 -21 -11 -41 -22 -44 -25 -11 -12 -91 -31 -102 -24 -6 4
-8 3 -5 -3 6 -10 -32 -27 -40 -19 -2 2 18 25 44 51 80 80 84 89 60 136 l-19
40 -47 -27 c-25 -15 -57 -40 -70 -55 -13 -16 -27 -26 -32 -23 -5 3 -9 1 -9 -5
0 -12 -215 -201 -230 -201 -5 0 -10 -4 -10 -9 0 -5 -39 -42 -87 -82 -49 -41
-91 -78 -94 -83 -4 -5 -12 -5 -18 -2 -10 7 -16 -7 -11 -29 1 -5 -1 -7 -5 -3
-4 4 -30 -15 -57 -42 -28 -28 -54 -47 -59 -44 -5 3 -9 1 -9 -5 0 -11 -92 -78
-99 -72 -2 1 -8 -4 -13 -13 -5 -9 -16 -16 -23 -16 -8 0 -15 -4 -15 -8 0 -4
-15 -16 -32 -27 -18 -10 -36 -23 -40 -29 -5 -8 -8 -7 -8 1 0 6 5 15 11 19 6 3
19 27 30 52 11 25 31 57 44 70 14 13 23 28 20 31 -2 4 16 29 41 55 24 26 44
50 44 52 0 9 90 94 99 94 6 0 11 6 11 13 0 7 10 22 23 33 12 11 56 58 97 103
41 46 84 93 95 105 11 11 36 48 54 81 19 33 36 62 40 65 6 5 8 10 24 78 9 37
8 46 -10 70 -11 14 -31 29 -44 33 -33 8 -120 -19 -141 -44 -10 -11 -18 -16
-18 -11 -1 5 -6 0 -13 -11 -7 -11 -19 -21 -27 -23 -14 -3 -7 7 35 54 6 6 35
49 65 95 30 46 59 87 65 91 6 5 7 8 0 8 -5 0 -1 7 9 15 11 8 17 15 13 15 -4 0
9 28 27 63 75 136 96 270 56 352 -36 74 -133 107 -205 69z m125 -135 c11 -25
11 -43 2 -88 -7 -31 -16 -57 -22 -59 -5 -2 -10 -10 -10 -18 0 -28 -123 -265
-141 -272 -5 -2 -7 -8 -3 -13 3 -5 1 -9 -4 -9 -6 0 -12 -10 -16 -22 -3 -13
-17 -35 -31 -50 -14 -15 -25 -30 -25 -33 0 -4 -7 -13 -15 -21 -12 -13 -13 -8
-9 38 4 29 12 81 20 116 8 34 13 66 12 70 -3 16 15 108 24 120 6 6 8 12 5 12
-3 0 -1 15 4 33 6 17 12 43 15 56 8 38 60 134 85 158 46 41 88 35 109 -18z
m-545 -529 c-3 -5 0 -12 6 -15 5 -4 8 -13 5 -21 -3 -7 -1 -16 4 -19 4 -3 11
-39 15 -80 9 -93 -3 -334 -16 -314 -6 9 -9 10 -9 2 0 -6 5 -15 10 -18 18 -11
11 -35 -10 -35 -11 0 -20 -5 -20 -11 0 -8 -4 -8 -14 0 -42 35 -67 269 -42 392
15 70 52 143 68 133 5 -3 6 -9 3 -14z m509 -116 c-3 -31 -53 -106 -65 -98 -5
3 -6 -2 -3 -10 3 -9 1 -16 -5 -16 -6 0 -16 -11 -23 -24 -16 -29 -62 -88 -105
-136 -18 -19 -44 -48 -58 -65 l-26 -30 29 61 c15 33 37 76 48 95 11 19 22 39
24 44 6 22 80 121 106 146 22 19 67 53 80 58 1 1 0 -11 -2 -25z m-1107 -147
c7 0 27 -16 45 -35 18 -19 27 -32 21 -28 -7 4 -13 2 -13 -4 0 -7 8 -9 20 -5
15 5 20 2 20 -12 0 -13 3 -14 8 -6 6 9 20 1 48 -30 86 -92 147 -172 115 -153
-5 3 -12 -1 -15 -10 -11 -29 -6 -38 10 -18 14 17 15 17 10 1 -4 -12 -2 -17 6
-14 7 2 12 11 10 18 -2 8 -1 11 3 7 4 -3 5 -8 3 -10 -1 -2 4 -11 12 -21 42
-50 51 -64 96 -157 22 -47 37 -96 41 -130 3 -39 2 -51 -6 -40 -5 8 -7 18 -5
22 3 4 0 8 -5 8 -6 0 -11 7 -11 15 0 8 -6 14 -12 13 -7 -2 -13 5 -13 14 0 9
-4 20 -9 25 -5 5 -6 2 -1 -6 5 -9 3 -12 -5 -9 -8 2 -18 13 -24 23 -6 11 -17
25 -23 33 -7 7 -13 20 -13 28 0 8 -7 14 -16 14 -16 0 -53 37 -54 55 0 5 -19
27 -42 50 -58 54 -110 115 -101 116 5 0 -2 4 -14 9 -42 17 -148 170 -163 235
l-8 34 37 -15 c20 -9 41 -17 48 -17z"/>
<path d="M8070 5772 c-19 -9 -50 -39 -68 -65 -29 -41 -36 -59 -40 -117 -3 -52
-9 -70 -21 -73 -14 -4 -13 -5 2 -6 20 -1 23 -21 3 -21 -15 0 -14 -35 0 -49 3
-3 4 2 2 11 -1 9 1 17 7 18 16 2 27 -70 13 -87 -9 -11 -9 -13 1 -11 15 3 44
-69 36 -90 -3 -8 0 -10 7 -6 7 5 9 -2 5 -22 -3 -16 -4 -23 -1 -16 10 22 21 13
39 -35 10 -25 29 -62 42 -82 13 -19 21 -41 18 -49 -5 -12 -3 -13 10 -2 13 11
16 11 13 -1 -2 -8 5 -14 17 -14 13 0 20 7 20 18 0 10 5 21 11 25 6 4 10 15 8
26 -1 10 1 28 6 40 19 47 23 61 21 70 -4 19 11 46 27 46 13 0 14 2 4 9 -11 6
-10 20 7 70 11 34 24 67 28 74 8 13 10 19 12 44 1 21 10 13 18 -18 7 -27 8
-126 1 -149 -3 -8 -8 -36 -12 -62 -5 -26 -12 -46 -16 -43 -4 3 -11 -17 -15
-43 -4 -26 -11 -52 -15 -57 -5 -6 -12 -26 -15 -45 -3 -19 -11 -53 -17 -75 -5
-22 -11 -44 -12 -50 -1 -5 -5 -16 -9 -22 -5 -7 -5 -17 -2 -23 3 -5 4 -10 2
-10 -2 0 -17 19 -32 42 -15 23 -41 53 -57 66 -16 14 -27 31 -24 38 3 8 0 11
-10 7 -7 -3 -14 0 -14 6 0 21 -184 193 -229 213 -53 24 -94 19 -133 -19 -26
-24 -28 -33 -28 -99 0 -62 5 -81 37 -145 20 -41 53 -89 72 -107 20 -19 35 -38
34 -43 -2 -5 1 -9 6 -9 5 0 29 -18 53 -40 23 -22 47 -40 52 -40 5 0 15 -8 22
-17 7 -10 16 -18 21 -18 18 -1 70 -36 109 -73 8 -7 14 -11 14 -7 0 7 62 -35
71 -48 4 -6 16 -8 27 -5 15 4 18 1 15 -13 -3 -10 -10 -16 -16 -12 -6 3 -7 1
-3 -5 4 -6 -1 -26 -11 -44 -9 -18 -16 -38 -15 -45 1 -6 -2 -14 -8 -18 -5 -3
-7 0 -4 8 3 8 1 18 -5 22 -8 4 -9 -5 -5 -29 3 -20 2 -36 -2 -36 -3 0 -50 44
-103 97 -53 53 -98 97 -101 97 -3 1 -32 27 -65 58 -33 32 -64 58 -68 58 -5 0
-29 18 -54 40 -25 22 -52 40 -59 40 -8 0 -14 3 -14 8 0 19 -81 -1 -106 -26
-24 -25 -26 -31 -22 -112 3 -84 28 -161 65 -198 7 -7 13 -17 13 -22 0 -5 12
-22 28 -38 15 -15 38 -41 52 -57 14 -17 41 -41 60 -54 19 -14 39 -30 43 -38 4
-7 15 -13 22 -13 8 0 15 -4 15 -10 0 -5 7 -10 15 -10 8 0 15 -3 15 -8 0 -4 13
-13 28 -20 16 -6 39 -22 52 -35 14 -12 26 -21 27 -20 2 1 10 0 18 -3 11 -4 14
-13 9 -28 -6 -20 -5 -20 8 -3 13 17 15 17 41 -5 15 -13 27 -29 27 -36 0 -7 4
-10 10 -7 14 8 57 -22 63 -45 3 -11 11 -20 19 -20 10 0 9 3 -2 10 -13 8 -13
10 2 10 11 0 28 23 47 65 17 36 31 70 31 76 0 5 4 8 9 5 5 -3 12 1 15 10 3 9
2 12 -4 9 -6 -4 -3 10 7 29 9 20 21 36 25 36 5 0 6 5 3 10 -3 6 -1 10 6 10 7
0 9 3 6 6 -8 8 33 84 45 84 4 0 8 5 8 11 0 15 146 219 198 276 55 62 97 114
97 121 1 4 14 27 30 52 16 25 28 49 27 54 -2 4 2 14 8 21 17 20 40 122 40 176
0 40 -5 55 -26 76 -22 22 -32 25 -74 21 -55 -6 -122 -49 -160 -105 -12 -18
-27 -30 -33 -26 -6 3 -7 1 -3 -6 4 -6 0 -14 -8 -17 -9 -3 -16 -13 -16 -20 0
-8 -7 -17 -15 -20 -8 -4 -15 -11 -15 -18 0 -6 -13 -27 -29 -46 -15 -19 -36
-50 -45 -68 -9 -18 -28 -38 -41 -44 -13 -6 -22 -15 -19 -19 3 -5 1 -9 -5 -9
-16 0 20 185 54 273 8 20 13 37 10 37 -3 0 1 12 8 28 24 47 52 213 52 307 0
105 -18 165 -74 252 -70 109 -180 151 -271 105z m90 -93 c0 -6 9 -9 19 -6 21
5 38 -10 61 -56 11 -23 12 -30 1 -36 -7 -5 -13 -12 -13 -17 -2 -31 -43 -124
-53 -120 -5 2 -11 -15 -12 -37 -1 -25 -7 -44 -17 -49 -9 -5 -16 -14 -16 -19 0
-6 5 -7 10 -4 16 10 12 -12 -5 -29 -9 -9 -11 -17 -5 -21 5 -3 10 -14 10 -23 0
-32 -39 57 -66 148 -35 124 -28 183 34 251 26 29 52 38 52 18z m-302 -574 c17
-20 32 -34 32 -30 0 4 35 -30 78 -75 42 -45 77 -85 77 -89 0 -3 17 -23 38 -44
21 -20 35 -42 32 -47 -4 -6 -2 -9 3 -8 5 2 21 -9 34 -23 14 -15 35 -32 47 -38
12 -7 19 -16 16 -21 -3 -6 1 -7 9 -4 9 4 16 1 16 -6 0 -10 4 -9 18 1 14 11 15
11 5 -1 -7 -8 -13 -22 -13 -32 0 -10 -4 -18 -8 -18 -16 0 -67 29 -92 52 -13
13 -27 23 -30 23 -16 1 -108 70 -103 78 3 6 2 7 -4 4 -6 -4 -24 6 -42 21 -17
15 -45 38 -61 52 -17 13 -30 30 -30 37 0 8 -6 16 -14 19 -16 6 -65 74 -84 118
-7 16 -11 44 -10 62 2 31 3 32 27 19 15 -7 41 -30 59 -50z m827 -62 c-2 -10
-4 -18 -5 -18 -1 0 -3 -11 -5 -25 -6 -41 -48 -113 -132 -226 -59 -81 -165
-209 -174 -212 -5 -2 -7 -8 -3 -13 3 -5 -2 -12 -10 -15 -9 -3 -16 -12 -16 -19
0 -7 -8 -23 -18 -35 -13 -17 -23 -20 -34 -14 -13 8 -10 21 24 94 22 47 44 87
49 88 5 2 9 9 9 15 0 7 16 36 35 64 19 29 35 56 35 60 0 5 11 20 25 35 14 15
25 30 25 33 0 13 105 138 143 170 48 39 57 42 52 18z m-1012 -355 c12 -7 24
-16 27 -19 3 -3 12 -10 21 -15 9 -5 51 -40 93 -78 53 -48 75 -75 71 -85 -5
-12 -3 -13 6 -4 9 9 20 1 50 -30 21 -23 39 -46 39 -50 0 -5 4 -6 9 -3 4 3 37
-21 71 -54 35 -33 69 -60 75 -60 7 0 16 -7 19 -17 8 -21 54 49 83 126 11 29
24 52 29 51 5 -1 8 -7 6 -13 -2 -6 5 -4 14 4 16 13 16 12 5 -8 -6 -13 -16 -23
-21 -23 -6 0 -9 -3 -8 -7 2 -14 -15 -47 -38 -72 -13 -14 -20 -29 -17 -34 4 -6
1 -7 -7 -2 -10 6 -12 4 -7 -9 4 -10 -1 -23 -13 -33 -15 -13 -16 -19 -7 -25 9
-6 9 -8 0 -8 -7 0 -10 -6 -7 -14 3 -7 -2 -16 -11 -20 -9 -3 -13 -10 -10 -16 3
-5 1 -10 -4 -10 -6 0 -11 4 -11 9 0 5 -15 18 -32 29 -58 35 -153 105 -156 113
-2 5 -10 9 -17 9 -8 0 -18 6 -22 13 -4 7 -26 24 -48 39 -54 36 -95 73 -95 86
0 6 -13 21 -30 33 -35 27 -78 110 -85 167 -6 46 -5 48 28 30z"/>
<path d="M4015 5383 c-88 -9 -297 -95 -345 -142 -8 -8 -33 -22 -56 -32 -23
-11 -47 -26 -55 -35 -7 -9 -22 -20 -34 -25 -81 -35 -275 -167 -275 -186 0 -7
-4 -13 -8 -13 -5 0 -9 -7 -9 -15 0 -8 4 -12 8 -9 5 3 11 -7 15 -21 3 -14 10
-25 15 -25 11 0 7 23 -6 32 -5 4 0 8 12 8 32 0 122 46 242 124 58 37 112 71
120 74 9 3 21 11 26 18 21 26 243 134 282 138 22 2 46 6 52 10 14 9 121 9 166
1 49 -10 115 -45 116 -63 0 -10 3 -12 5 -6 3 7 14 10 24 7 11 -3 17 -9 14 -14
-3 -5 1 -9 8 -9 16 0 88 -58 88 -71 0 -13 37 -48 44 -42 3 4 6 -1 6 -10 0 -30
54 -78 135 -122 44 -23 79 -48 77 -55 -1 -6 2 -9 8 -5 5 3 13 -1 16 -9 3 -9
10 -14 14 -11 10 6 116 -109 137 -149 8 -16 19 -34 24 -40 5 -6 17 -21 27 -33
13 -18 31 -24 77 -28 131 -11 250 -39 240 -55 -3 -6 1 -7 10 -4 9 4 25 -2 36
-12 12 -11 24 -18 28 -17 13 6 161 -99 154 -110 -3 -5 -1 -7 4 -4 19 12 182
-181 166 -197 -4 -3 -1 -6 6 -6 11 0 52 -82 49 -98 -1 -4 4 -20 11 -37 20 -48
25 -85 12 -85 -7 0 -9 5 -5 13 4 6 -2 4 -14 -6 -30 -27 -90 -46 -144 -47 -41
0 -51 5 -81 35 -36 37 -55 43 -75 23 -23 -23 -14 -66 23 -102 19 -20 35 -33
35 -31 0 2 16 -3 35 -11 51 -21 107 -17 172 12 32 14 81 34 109 44 70 25 177
17 200 -15 6 -8 14 -12 17 -8 4 3 7 1 7 -6 0 -7 4 -10 9 -6 5 3 26 -15 47 -40
52 -64 69 -59 121 35 23 41 50 91 61 110 25 43 212 262 212 247 0 -3 15 9 33
26 116 109 245 166 387 172 122 5 275 -38 263 -74 -4 -13 -3 -14 5 -2 9 12 15
13 34 3 76 -41 113 -67 172 -124 27 -27 51 -48 54 -48 2 0 20 -14 39 -30 29
-26 37 -29 56 -18 12 6 24 9 27 7 3 -2 6 5 8 16 2 11 11 25 19 32 10 8 17 35
21 81 10 152 -59 316 -203 479 -62 71 -181 148 -267 174 -97 30 -206 23 -288
-18 -32 -16 -56 -24 -52 -18 3 5 -9 -2 -27 -17 -39 -33 -43 -34 -65 -9 -10 11
-47 34 -84 52 -60 30 -73 33 -156 32 -83 -1 -129 -8 -180 -29 -16 -6 -18 -4
-13 9 3 9 2 17 -3 17 -6 0 -10 -9 -10 -19 0 -12 -9 -23 -22 -27 -77 -24 -260
-174 -321 -264 -17 -25 -32 -47 -33 -49 -2 -2 -15 6 -30 18 -32 25 -118 53
-140 44 -14 -5 -39 -42 -32 -48 2 -1 20 -10 41 -20 20 -9 37 -22 37 -29 0 -7
4 -6 9 2 6 11 17 6 45 -19 31 -27 35 -34 22 -41 -9 -5 -16 -14 -16 -20 0 -9 3
-9 12 0 14 14 32 16 23 3 -5 -9 20 -21 53 -27 7 -1 19 11 28 28 11 21 12 28 3
22 -11 -6 19 49 43 81 105 138 280 253 419 276 95 16 153 5 214 -41 22 -16 30
-70 12 -70 -7 0 5 -9 26 -20 20 -11 43 -20 51 -20 8 0 41 23 72 50 53 46 66
54 87 51 4 0 7 3 7 8 0 12 57 34 69 26 6 -3 11 -1 11 6 0 9 21 10 81 6 63 -5
92 -13 137 -37 71 -39 84 -49 100 -80 7 -15 10 -17 7 -5 -4 14 8 6 39 -24 25
-24 42 -49 39 -54 -3 -6 -1 -7 4 -4 18 12 112 -126 116 -170 0 -4 7 -14 14
-22 8 -7 12 -20 9 -28 -3 -8 -2 -12 3 -9 18 11 28 -127 11 -154 -8 -12 -15
-10 -42 16 -67 62 -84 76 -153 122 -141 95 -229 123 -378 123 -54 0 -117 -6
-140 -12 -49 -13 -161 -64 -198 -90 -14 -10 -31 -19 -38 -21 -21 -5 -70 -48
-183 -160 -93 -92 -166 -186 -233 -302 -9 -17 -12 -16 -36 2 -42 34 -120 72
-146 72 -14 0 -33 10 -44 23 -10 12 -18 16 -19 10 0 -7 6 -13 13 -14 17 -1
-24 -17 -45 -18 -13 -1 -18 7 -18 23 0 47 -53 172 -107 253 -92 138 -255 278
-398 343 -65 29 -135 46 -214 54 -35 3 -66 8 -69 11 -3 3 -1 5 5 5 10 0 65 81
76 113 4 9 2 17 -3 17 -5 0 -16 8 -26 17 -13 13 -16 14 -12 3 3 -9 -11 -24
-36 -41 -23 -14 -48 -33 -57 -42 -15 -14 -19 -12 -50 30 -19 25 -33 51 -31 57
2 6 0 8 -4 3 -4 -4 -28 12 -53 36 -57 55 -192 157 -207 157 -14 0 -72 64 -86
95 -5 12 -32 39 -59 60 -27 20 -46 42 -42 48 4 6 1 7 -6 2 -7 -4 -22 1 -34 13
-72 66 -233 108 -362 95z"/>
<path d="M3719 4770 c-87 -15 -160 -61 -327 -205 -52 -45 -215 -246 -253 -314
-13 -22 -29 -39 -36 -37 -7 3 -10 -1 -7 -8 5 -13 -40 -115 -56 -126 -3 -3 -12
-27 -20 -53 -14 -53 -19 -54 -26 -8 -4 21 -1 31 8 31 10 0 10 2 -1 9 -8 5 -15
22 -17 38 -2 15 -6 44 -10 63 -3 19 -6 41 -7 48 0 6 -3 12 -7 12 -4 0 -7 6 -7
13 -1 11 -6 43 -15 77 -1 8 -9 21 -15 28 -7 7 -13 20 -13 28 0 26 -71 94 -98
94 -40 0 -91 -22 -98 -42 -3 -10 -10 -16 -15 -13 -5 4 -9 -3 -9 -15 0 -12 -3
-19 -7 -17 -14 9 -6 -155 10 -228 19 -88 55 -212 68 -238 9 -15 7 -23 -6 -36
-15 -15 -16 -15 -10 0 4 10 0 19 -9 22 -19 7 -20 3 -6 -24 9 -16 14 -17 32 -8
18 9 20 9 15 -4 -3 -9 -3 -17 1 -19 4 -2 15 -19 24 -39 12 -26 13 -40 6 -47
-14 -14 -2 -43 14 -37 9 4 20 -11 31 -41 l17 -46 -126 4 c-97 2 -127 6 -134
18 -8 12 -10 12 -10 1 0 -11 -20 -12 -107 -7 -60 4 -153 14 -208 22 -55 8
-107 15 -115 16 -8 0 -17 5 -20 9 -3 4 -19 1 -36 -7 -25 -12 -30 -20 -30 -50
0 -23 4 -33 12 -30 7 3 43 -2 81 -10 154 -32 339 -53 508 -56 39 -1 73 -3 76
-4 4 -2 128 -6 276 -8 148 -3 276 -7 283 -10 8 -3 64 -7 123 -10 60 -3 112 -8
117 -11 5 -3 46 -7 92 -10 90 -5 209 -25 203 -34 -1 -3 16 -4 40 -3 24 2 53
-2 66 -9 13 -8 33 -14 44 -15 58 -3 95 -29 79 -55 -3 -5 0 -9 7 -9 6 0 9 8 7
18 -4 15 5 17 101 18 141 1 170 7 255 52 16 8 66 18 111 23 96 8 157 35 185
82 33 53 40 91 26 149 -34 142 -103 189 -230 154 -55 -16 -237 -105 -327 -162
-20 -13 -40 -20 -45 -16 -4 4 -4 2 -1 -4 8 -13 -77 -76 -88 -66 -5 4 -5 1 0
-7 4 -7 4 -16 -1 -20 -5 -3 -14 -15 -20 -26 -10 -17 -21 -20 -79 -18 -62 1
-179 17 -215 30 -8 2 -44 6 -80 9 -74 4 -216 22 -244 31 -12 3 -16 1 -12 -6 5
-7 -2 -11 -16 -11 -14 0 -18 3 -11 8 6 4 -23 8 -65 8 -186 2 -302 8 -302 16 0
11 47 21 61 12 8 -4 9 -3 5 4 -4 7 0 12 11 13 52 3 69 6 83 12 8 3 26 6 40 6
90 -1 401 46 446 67 35 17 40 41 11 50 -22 7 -226 6 -272 -1 -16 -2 -52 -7
-80 -10 -92 -10 -140 -17 -162 -26 -17 -6 -21 -5 -16 6 3 8 14 15 24 15 11 0
22 7 26 16 5 13 7 13 14 2 7 -10 9 -10 9 2 0 22 71 54 83 37 6 -8 7 -6 3 6 -3
9 -1 17 4 17 4 0 57 23 117 51 59 28 124 58 143 67 19 9 40 21 45 28 12 14
112 84 121 84 3 0 21 12 39 26 20 15 39 23 46 18 8 -4 9 -3 5 4 -9 15 63 34
108 28 50 -6 86 -31 123 -84 24 -34 29 -49 20 -55 -8 -6 -6 -7 5 -3 10 3 21
-2 27 -12 8 -14 13 -14 33 -4 46 23 78 32 78 21 0 -6 7 -3 16 5 8 9 21 16 27
17 7 0 22 2 35 3 12 2 38 -8 57 -21 42 -29 89 -48 80 -32 -4 6 2 13 14 16 25
6 25 6 7 41 -45 86 -146 112 -263 69 -44 -17 -55 -14 -46 11 4 9 2 13 -4 9
-10 -6 -46 24 -41 34 2 2 1 3 0 2 -2 -1 -26 16 -54 37 -102 77 -181 64 -370
-57 -216 -139 -223 -143 -233 -144 -5 -1 -21 -9 -35 -18 -14 -10 -41 -24 -60
-31 -19 -7 -44 -20 -55 -29 -11 -9 16 21 60 66 44 44 112 121 152 169 39 49
94 114 122 144 28 30 51 57 51 62 0 4 8 12 18 17 9 6 13 11 8 11 -5 0 3 10 18
21 15 12 25 24 22 26 -3 3 6 20 19 37 31 41 75 142 75 172 0 34 -31 102 -50
107 -8 3 -22 7 -30 10 -8 2 -36 1 -61 -3z m41 -123 c0 -37 -215 -337 -241
-337 -5 0 -8 -4 -6 -9 1 -5 -28 -42 -64 -82 -36 -41 -78 -90 -95 -109 -47 -55
-115 -130 -169 -185 -42 -43 -113 -124 -134 -152 -3 -5 -14 -14 -24 -22 -17
-13 -18 -12 -11 15 4 16 12 32 18 36 6 4 7 8 2 8 -6 0 -5 5 2 12 7 7 12 19 12
28 0 28 181 377 212 409 17 17 27 31 24 31 -27 0 164 205 259 279 67 52 159
100 193 101 16 0 22 -6 22 -23z m-906 -412 c2 -11 6 -27 9 -35 27 -79 36 -146
43 -304 2 -50 6 -96 9 -103 2 -8 0 -11 -5 -8 -6 3 -10 14 -10 23 0 10 -6 26
-13 37 -21 30 -48 116 -40 128 3 5 2 7 -4 4 -6 -4 -16 18 -23 51 -8 31 -15 62
-16 67 -2 6 -5 19 -8 30 -3 11 -9 34 -14 50 -11 39 -3 158 12 167 11 8 55 -68
60 -107z m1800 -490 c26 -26 51 -97 42 -120 -12 -32 -75 -66 -131 -71 -43 -4
-55 -2 -49 7 4 8 3 10 -5 5 -6 -4 -55 -2 -109 4 -53 7 -119 12 -145 11 -31 0
-46 3 -42 10 7 11 45 28 57 25 4 0 13 6 20 15 14 18 209 123 243 132 53 13 94
7 119 -18z"/>
<path d="M8736 4522 c-4 -10 -21 -26 -39 -35 -63 -32 -91 -53 -151 -115 -33
-34 -66 -60 -73 -58 -7 3 -10 -1 -7 -9 3 -8 -19 -45 -50 -84 -31 -38 -84 -114
-117 -168 -34 -54 -65 -100 -69 -103 -4 -3 -13 -19 -20 -37 -11 -24 -17 -29
-27 -21 -7 6 -10 15 -6 22 4 8 2 8 -7 -1 -9 -9 -23 -7 -59 8 -25 11 -50 26
-56 33 -5 7 -14 14 -20 16 -31 8 -44 14 -80 33 -22 12 -55 29 -74 38 -23 11
-29 18 -20 22 8 3 2 6 -13 6 -29 1 -78 20 -78 30 0 4 -11 8 -26 9 -14 1 -33 6
-43 11 -22 13 -132 7 -160 -8 -11 -7 -28 -23 -37 -36 -20 -30 -35 -93 -24
-100 9 -6 8 -24 -3 -42 -10 -16 5 -17 20 -2 7 7 18 1 37 -21 14 -17 26 -28 26
-24 0 16 92 -82 120 -127 l28 -46 -28 1 c-16 1 -27 2 -26 4 2 1 -13 20 -33 41
-67 72 -177 81 -271 23 -29 -18 -56 -29 -62 -26 -6 4 -8 2 -4 -4 3 -6 -5 -27
-19 -48 -28 -41 -40 -78 -31 -92 3 -5 19 -12 35 -14 24 -4 32 1 52 34 24 39
77 78 105 78 8 0 14 5 14 10 0 6 16 10 35 10 28 0 44 -8 75 -40 22 -22 44 -40
49 -40 6 0 8 -7 5 -15 -4 -10 0 -15 12 -15 14 0 16 -2 6 -9 -7 -4 18 -7 60 -6
50 2 101 12 163 33 50 17 126 40 170 52 44 12 92 27 107 32 15 5 31 7 37 4 5
-4 12 -2 15 3 4 5 39 12 79 15 39 3 104 8 142 11 39 4 88 8 110 10 22 1 69 8
104 15 34 6 65 9 67 7 5 -5 161 44 182 56 16 11 15 42 -2 57 -12 9 -36 8 -113
-5 -54 -9 -122 -18 -150 -18 -29 -1 -53 -5 -53 -9 0 -7 -51 -4 -94 7 -21 6
-27 5 -22 -4 4 -6 12 -9 17 -6 5 4 9 1 9 -5 0 -5 -12 -10 -27 -9 -16 1 -44 -2
-63 -6 -28 -5 -31 -4 -18 5 10 6 21 11 25 12 5 1 16 12 26 25 10 13 22 23 27
23 5 0 27 17 48 38 21 20 70 66 108 102 71 67 178 181 179 190 0 3 16 32 36
65 39 64 52 101 53 152 1 36 -23 53 -74 53 -22 0 -28 4 -24 15 4 8 4 15 1 15
-3 0 -8 -8 -11 -18z m-1034 -516 c42 -10 99 -46 91 -59 -4 -7 1 -6 10 2 11 9
17 10 17 2 0 -6 3 -10 8 -9 10 3 75 -32 84 -46 4 -6 8 -7 8 -3 0 4 9 3 20 -3
11 -6 17 -16 14 -22 -4 -7 -3 -8 4 -4 12 7 48 -8 70 -31 7 -7 28 -13 45 -14
31 -1 12 -7 -98 -33 -11 -3 -36 -10 -55 -16 -19 -7 -48 -15 -65 -20 -16 -4
-38 -11 -47 -15 -13 -5 -18 -2 -18 10 0 31 -49 101 -130 183 -45 45 -79 86
-76 90 5 8 46 4 118 -12z"/>
</g>
</svg>
