<?xml version="1.0" standalone="no"?>
<!DOCTYPE svg PUBLIC "-//W3C//DTD SVG 20010904//EN" "http://www.w3.org/TR/2001/REC-SVG-20010904/DTD/svg10.dtd">
<svg xmlns="http://www.w3.org/2000/svg" version="1.0" width="1024.000000pt" height="1024.000000pt" viewBox="0 0 1024.000000 1024.000000" preserveAspectRatio="xMidYMid meet">
<metadata>
Created by potrace 1.16, written by Peter Selinger 2001-2019
<meta name="Producer" content="Online-Convert"/></metadata>
<g transform="translate(0.000000,1024.000000) scale(0.100000,-0.100000)" fill="#000000" stroke="none">
<path d="M5038 8254 c-3 -2 -29 -6 -59 -9 -76 -7 -117 -13 -158 -26 -20 -5 -60 -17 -89 -24 -29 -8 -75 -26 -103 -41 -28 -14 -58 -23 -67 -19 -9 3 -13 3 -10 -1 10 -9 -9 -25 -72 -58 -30 -16 -64 -37 -76 -47 -11 -11 -25 -19 -30 -19 -6 0 -27 -17 -48 -37 l-37 -38 -32 19 c-118 71 -174 94 -252 103 -22 3 -45 9 -52 15 -7 5 -13 5 -17 0 -3 -6 -23 -13 -43 -17 -21 -4 -59 -19 -85 -35 -25 -16 -49 -26 -54 -22 -4 4 -4 2 0 -5 3 -6 -7 -35 -24 -63 -16 -28 -30 -58 -30 -66 0 -8 -3 -13 -7 -11 -11 7 -7 -107 6 -223 19 -168 19 -171 -31 -420 -12 -62 -27 -110 -37 -118 -9 -8 -10 -10 -2 -6 11 5 13 2 8 -17 -4 -13 -16 -67 -27 -119 -26 -127 -64 -252 -74 -243 -4 4 -4 0 0 -10 3 -9 -8 -72 -24 -139 -38 -153 -67 -289 -82 -393 -16 -101 -15 -312 1 -331 6 -7 9 -19 6 -26 -2 -7 -1 -20 3 -28 5 -8 10 -31 14 -50 8 -53 33 -117 72 -187 19 -35 32 -68 28 -75 -4 -6 -3 -8 4 -4 12 7 62 -54 66 -81 2 -10 7 -18 13 -18 5 0 24 -12 42 -28 18 -15 29 -27 25 -27 -4 0 8 -12 27 -26 19 -14 33 -30 31 -35 -1 -5 4 -8 10 -7 7 2 12 -3 10 -10 -1 -8 2 -11 8 -7 5 3 33 -10 62 -30 29 -19 58 -35 65 -35 6 0 13 -3 15 -8 2 -4 32 -23 68 -41 36 -19 68 -39 72 -45 5 -7 8 -6 8 3 0 10 3 11 14 2 14 -12 59 -28 103 -37 12 -2 35 -10 50 -16 16 -6 38 -13 51 -14 13 -2 29 -7 35 -12 13 -10 175 -52 201 -52 10 0 13 -6 10 -17 -4 -14 -3 -15 4 -5 6 9 20 12 43 7 19 -3 53 -9 76 -12 24 -3 41 -9 39 -12 -3 -4 10 -5 29 -3 l33 4 -19 -58 c-28 -83 -61 -267 -82 -452 -7 -57 -14 -101 -17 -99 -3 3 -4 -117 -2 -266 1 -150 2 -282 2 -294 0 -12 0 -26 -1 -30 -1 -4 0 -15 3 -23 3 -8 16 -85 27 -170 12 -85 24 -169 26 -186 10 -64 44 -220 54 -247 6 -16 9 -32 6 -37 -3 -5 0 -12 6 -15 5 -4 8 -13 5 -20 -2 -7 2 -25 10 -39 7 -15 15 -43 16 -62 1 -20 6 -38 10 -40 4 -3 8 -13 8 -22 0 -15 -2 -15 -10 -2 -7 12 -9 10 -8 -7 1 -12 7 -19 14 -16 7 3 15 -9 19 -29 4 -18 18 -55 31 -82 13 -26 23 -53 22 -60 -1 -6 5 -25 15 -42 9 -17 13 -35 9 -38 -3 -4 -1 -10 6 -14 6 -5 37 -57 68 -117 53 -103 153 -265 164 -265 16 0 70 42 70 55 0 8 5 15 10 15 6 0 10 8 10 17 0 9 -3 13 -7 10 -8 -8 -34 28 -70 98 -14 28 -29 52 -33 55 -13 8 -88 168 -82 174 3 3 0 6 -6 6 -7 0 -11 3 -10 7 3 8 -12 50 -38 110 -8 17 -14 37 -14 45 0 7 -9 31 -19 54 -14 30 -16 46 -9 59 7 12 7 16 0 11 -16 -10 -30 35 -36 119 -5 61 48 325 65 325 3 0 54 9 114 20 60 10 112 17 117 14 4 -3 8 -1 8 4 0 5 15 12 33 16 74 14 105 22 142 36 25 10 145 45 181 53 6 2 23 11 38 21 15 9 35 19 44 21 9 2 65 28 125 59 59 31 107 54 107 51 0 -3 12 6 27 20 15 14 32 25 36 25 9 0 41 24 174 127 36 29 71 49 76 46 6 -3 7 -1 3 5 -3 6 17 30 45 54 45 38 102 101 218 242 18 23 38 40 43 38 5 -1 7 2 3 8 -3 5 12 36 34 68 53 79 154 274 176 343 22 68 15 106 -23 120 -26 10 -139 7 -227 -5 -71 -11 -280 -58 -290 -66 -5 -4 -23 -9 -40 -11 -16 -2 -36 -7 -42 -12 -8 -6 -19 -5 -28 3 -13 11 -14 10 -9 -3 4 -12 -2 -18 -23 -23 -15 -4 -44 -14 -63 -23 -19 -8 -37 -15 -40 -16 -20 -3 -140 -61 -140 -68 0 -4 -4 -5 -10 -2 -5 3 -10 2 -10 -3 0 -5 -6 -9 -12 -9 -15 0 -135 -69 -163 -93 -38 -33 -130 -93 -142 -93 -7 0 -10 -4 -7 -8 2 -4 -13 -21 -33 -38 -28 -23 -39 -27 -46 -18 -6 8 -7 7 -4 -4 7 -21 -52 -78 -73 -72 -11 3 -12 2 -3 -4 9 -6 -10 -33 -66 -92 -43 -46 -79 -85 -80 -87 0 -2 -1 -7 -1 -10 0 -4 -8 0 -17 7 -16 12 -17 12 -5 -2 11 -14 4 -29 -44 -100 -31 -46 -61 -83 -66 -81 -5 1 -7 -2 -3 -7 3 -6 -1 -24 -10 -40 -11 -22 -20 -29 -33 -25 -12 4 -13 3 -4 -3 10 -8 9 -17 -4 -49 -27 -66 -45 -108 -54 -124 -13 -27 -59 -183 -66 -230 l-8 -45 -13 70 c-7 39 -15 97 -18 130 -3 33 -11 105 -18 160 -13 108 -17 623 -5 715 4 30 10 73 12 95 14 109 54 313 76 385 l20 65 147 0 c235 0 390 21 508 71 22 9 48 18 59 20 31 6 246 116 246 126 0 4 5 8 11 8 17 0 122 85 189 153 34 34 67 60 74 59 6 -2 8 0 3 4 -4 4 -1 14 7 23 70 82 188 293 202 362 2 9 13 37 24 63 22 52 60 191 67 246 2 19 6 49 9 65 3 17 7 46 10 65 3 19 7 49 10 65 13 75 31 304 37 471 2 62 7 117 11 123 4 6 9 44 10 84 4 82 15 147 26 147 4 0 5 11 2 25 -2 14 0 25 4 25 5 0 10 11 10 24 2 36 35 116 45 110 5 -3 6 2 3 10 -3 8 15 53 40 99 67 123 89 189 93 287 6 129 -31 214 -122 277 -42 29 -137 47 -205 38 -30 -4 -70 -8 -88 -10 -18 -2 -40 -9 -48 -15 -7 -7 -14 -10 -14 -6 0 3 -18 -4 -40 -15 -21 -11 -45 -22 -52 -23 -31 -5 -58 -18 -58 -27 0 -6 -24 12 -52 39 -87 83 -275 211 -300 204 -5 -1 -8 2 -8 7 0 5 -16 15 -35 21 -19 6 -33 16 -29 21 3 5 2 8 -3 7 -9 -3 -127 37 -154 52 -14 7 -42 14 -99 25 -3 1 -15 4 -27 8 -31 11 -83 17 -218 23 -66 3 -125 7 -132 9 -6 2 -13 2 -15 -1z m247 -135 c17 -5 47 -11 68 -14 21 -3 35 -9 33 -14 -3 -4 12 -6 32 -5 20 1 49 -5 65 -13 15 -7 27 -11 27 -8 0 3 19 -4 43 -16 23 -12 44 -22 47 -21 3 0 4 -4 2 -10 -1 -5 2 -7 8 -3 23 15 286 -147 273 -167 -4 -7 -1 -8 6 -3 8 4 27 -7 52 -31 l39 -38 -22 -13 c-30 -16 -41 -16 -32 0 4 7 3 9 -2 4 -5 -5 -9 -12 -9 -17 0 -8 -70 -60 -81 -60 -2 0 -50 -29 -105 -65 -55 -36 -105 -62 -111 -59 -6 4 -8 3 -5 -3 3 -5 -3 -16 -15 -24 -11 -8 -46 -33 -76 -57 -31 -23 -62 -40 -70 -37 -7 2 -11 1 -8 -3 3 -5 -34 -40 -82 -78 -48 -38 -122 -100 -165 -138 -66 -57 -81 -66 -91 -55 -96 104 -126 141 -120 152 4 7 3 8 -1 4 -11 -9 -136 113 -129 125 3 5 2 7 -3 6 -4 -1 -56 45 -114 103 -59 58 -147 140 -197 184 -50 43 -88 83 -85 88 4 6 1 7 -6 3 -15 -9 -51 21 -51 42 0 9 6 12 17 8 10 -4 14 -4 10 0 -10 10 44 44 57 37 6 -3 8 -3 4 2 -8 8 15 35 30 35 5 0 21 9 36 21 15 12 38 22 50 23 13 0 22 5 18 10 -3 5 2 6 12 3 9 -4 14 -3 11 2 -3 5 5 13 17 16 13 4 43 17 68 28 25 11 64 21 86 21 23 1 40 4 37 9 -2 4 2 7 9 8 7 0 22 3 33 5 11 3 43 7 70 10 28 3 52 8 55 11 8 7 232 0 265 -8z m-1177 -224 c47 -22 70 -39 66 -47 -4 -7 -3 -8 5 -4 6 4 27 -3 47 -15 23 -14 32 -24 24 -29 -8 -5 -7 -9 5 -13 9 -4 13 -3 10 3 -12 19 6 10 58 -29 79 -59 172 -143 169 -154 -1 -4 2 -6 7 -3 11 7 187 -171 183 -185 -1 -6 2 -8 7 -5 9 6 288 -276 318 -321 15 -22 11 -27 -101 -144 -187 -196 -399 -469 -496 -642 -18 -32 -36 -54 -42 -50 -6 3 -8 1 -4 -5 3 -6 -18 -59 -48 -119 -30 -59 -63 -135 -74 -168 -21 -62 -42 -136 -41 -145 0 -3 -5 -18 -11 -35 -6 -16 -14 -43 -18 -60 -8 -41 -10 -367 -1 -354 9 16 22 -47 13 -63 -4 -7 -4 -10 0 -6 7 6 97 -152 91 -160 -4 -5 -65 20 -61 26 2 4 -8 7 -24 8 -15 1 -59 16 -96 34 -38 19 -79 37 -90 41 -21 6 -138 83 -160 103 -6 6 -25 22 -43 35 -18 14 -30 30 -26 38 2 8 1 12 -4 8 -10 -5 -19 3 -58 49 -13 14 -20 26 -15 26 4 0 2 4 -4 8 -40 27 -129 214 -139 292 -2 14 -6 43 -10 65 -7 50 -7 189 0 235 3 19 10 64 15 100 12 79 12 78 45 215 14 61 28 121 29 135 2 14 5 25 6 25 1 0 3 11 6 25 2 14 11 45 19 70 16 47 43 163 51 214 2 16 9 47 16 70 6 22 13 50 15 61 2 11 10 43 18 70 8 28 17 61 20 75 2 14 14 68 25 120 26 116 29 294 7 390 -19 83 -14 144 17 190 53 80 144 89 274 25z m2366 -85 c44 0 105 -31 114 -59 3 -8 0 -11 -6 -7 -5 3 -12 -1 -15 -8 -4 -10 0 -14 13 -11 32 6 50 -68 36 -150 -7 -44 -115 -257 -126 -250 -6 3 -7 -1 -4 -9 3 -9 -8 -48 -24 -88 -17 -40 -33 -90 -37 -110 -4 -21 -10 -36 -14 -34 -3 2 -6 -10 -7 -27 0 -18 -4 -61 -7 -97 -3 -36 -9 -100 -13 -142 -4 -43 -10 -78 -15 -78 -5 0 -4 -11 1 -25 7 -18 5 -78 -4 -183 -8 -86 -17 -191 -21 -232 -7 -95 -13 -146 -22 -190 -3 -19 -7 -39 -8 -45 -1 -12 -8 -36 -47 -180 -28 -103 -94 -266 -111 -273 -4 -2 -5 -7 -2 -12 8 -14 -113 -170 -194 -250 -42 -41 -101 -94 -132 -117 -64 -49 -206 -126 -219 -118 -4 3 -10 -1 -13 -8 -5 -13 -66 -35 -122 -44 -16 -3 -37 -9 -45 -13 -9 -5 -36 -11 -60 -15 -25 -3 -74 -10 -109 -16 -89 -14 -399 -10 -500 7 -46 7 -87 11 -92 9 -4 -3 -10 -2 -13 3 -3 5 -37 15 -76 22 -67 13 -75 17 -131 73 -68 67 -106 135 -143 259 -24 77 -26 98 -22 190 3 57 8 114 10 128 9 49 57 206 77 248 11 24 27 62 36 85 9 23 22 49 29 57 7 9 23 38 35 65 12 27 26 53 31 59 5 6 33 49 63 96 30 47 60 84 66 82 6 -1 8 2 4 8 -7 11 28 61 148 212 38 48 74 85 79 82 4 -3 7 -1 6 5 -5 16 222 252 234 245 6 -4 8 -2 4 4 -7 11 139 149 155 145 5 -2 8 1 6 6 -2 10 63 68 178 159 39 31 72 59 75 62 17 22 132 90 141 84 8 -4 9 -3 5 4 -3 6 2 16 13 21 11 6 25 17 33 23 31 30 100 68 110 62 6 -4 8 -3 5 3 -9 14 15 34 42 36 11 1 18 3 16 6 -7 6 13 19 167 104 157 88 211 110 228 93 8 -8 11 -7 8 3 -2 11 15 20 57 32 33 10 66 16 73 13 8 -2 33 -4 56 -4z m122 -3219 c-4 -6 -14 -8 -24 -5 -14 5 -14 4 -2 -4 12 -9 7 -24 -29 -94 -24 -46 -52 -95 -62 -110 -11 -14 -19 -31 -19 -37 0 -6 -4 -11 -10 -11 -5 0 -10 -7 -10 -16 0 -10 -5 -14 -16 -10 -8 3 -12 2 -9 -4 13 -21 -157 -236 -177 -223 -7 4 -8 1 -3 -7 9 -15 -63 -83 -78 -73 -6 3 -7 1 -4 -5 6 -9 -20 -33 -138 -130 -72 -59 -279 -185 -288 -175 -4 3 -7 2 -7 -4 0 -5 -24 -20 -52 -32 -29 -13 -65 -30 -80 -38 -15 -7 -31 -14 -35 -15 -10 -1 -11 -1 -115 -37 -49 -17 -88 -28 -88 -25 0 3 -6 2 -12 -3 -19 -11 -39 -15 -86 -16 -24 0 -38 -3 -33 -7 6 -3 -21 -14 -61 -23 -123 -27 -138 -29 -138 -18 0 18 80 193 120 260 55 94 164 236 179 233 7 -1 10 1 8 6 -16 25 262 276 376 341 23 12 49 29 57 35 51 41 378 176 457 189 10 1 23 5 28 9 15 9 74 21 160 33 22 3 74 11 115 18 80 14 86 14 76 -2z"/>
</g>
</svg>
