<?xml version="1.0" standalone="no"?>
<!DOCTYPE svg PUBLIC "-//W3C//DTD SVG 20010904//EN"
 "http://www.w3.org/TR/2001/REC-SVG-20010904/DTD/svg10.dtd">
<svg version="1.0" xmlns="http://www.w3.org/2000/svg"
 width="1024.000000pt" height="1024.000000pt" viewBox="0 0 1024.000000 1024.000000"
 preserveAspectRatio="xMidYMid meet">
<metadata>
Created by potrace 1.16, written by Peter Selinger 2001-2019
</metadata>
<g transform="translate(0.000000,1024.000000) scale(0.100000,-0.100000)"
fill="#000000" stroke="none">
<path d="M5310 8820 c-25 -4 -72 -18 -105 -30 -33 -12 -68 -23 -77 -23 -9 -1
-14 -5 -12 -9 4 -6 -50 -40 -58 -38 -2 1 -25 -19 -51 -45 -26 -25 -51 -44 -55
-42 -4 3 -16 0 -27 -4 -18 -9 -18 -9 3 -5 l22 4 -21 -29 c-11 -16 -28 -33 -37
-39 -9 -5 -14 -10 -9 -10 4 0 -4 -18 -18 -40 -67 -106 -105 -242 -105 -375 0
-44 -4 -75 -10 -75 -14 0 0 -53 17 -63 7 -4 13 -16 13 -25 0 -9 11 -43 24 -74
13 -32 20 -58 15 -58 -5 0 -9 -4 -9 -10 0 -5 8 -6 17 -3 12 5 15 2 10 -10 -3
-9 -3 -16 1 -14 4 1 7 -2 7 -8 0 -5 -4 -9 -8 -7 -5 1 -6 -2 -2 -8 3 -6 10 -8
15 -5 5 3 48 -35 97 -83 74 -75 103 -97 183 -136 53 -26 115 -50 138 -53 23
-3 40 -8 38 -12 -2 -3 40 -5 93 -5 110 2 197 21 288 63 34 16 65 26 69 23 4
-4 4 -2 0 5 -3 7 2 14 14 18 11 3 55 41 98 83 184 183 245 445 160 683 -16 46
-30 92 -31 101 -1 9 -4 15 -7 13 -4 -2 -15 10 -25 28 -31 54 -87 117 -142 162
-28 24 -49 46 -45 50 4 4 3 5 -3 4 -5 -2 -48 16 -95 39 -121 61 -251 82 -370
62z m251 -209 c70 -27 162 -89 153 -103 -4 -6 -3 -8 4 -4 6 3 26 -13 46 -36
28 -32 33 -44 24 -55 -8 -11 -7 -12 5 -7 19 7 62 -69 53 -93 -11 -27 5 -92 20
-86 11 4 14 -11 14 -74 0 -132 -44 -246 -130 -335 -27 -28 -53 -47 -59 -43 -7
3 -10 1 -9 -5 4 -18 -89 -67 -162 -86 -46 -12 -85 -15 -135 -10 -84 7 -148 24
-140 36 3 6 -1 7 -9 4 -17 -7 -79 23 -71 35 2 5 -2 8 -9 7 -21 -2 -128 105
-122 121 3 8 1 11 -4 8 -22 -14 -89 171 -77 215 3 10 0 21 -7 23 -8 3 -7 11 2
27 8 12 9 19 3 16 -21 -14 16 149 50 216 26 51 79 109 92 101 6 -3 7 -1 3 6
-13 21 103 109 125 95 7 -4 9 -3 5 4 -6 10 55 34 114 46 48 9 169 -4 221 -23z"/>
<path d="M4910 7437 c-25 -5 -61 -10 -80 -10 -19 0 -29 -2 -21 -5 15 -5 -134
-72 -152 -68 -7 1 -8 1 -4 -2 4 -2 -26 -24 -69 -49 -61 -36 -78 -42 -86 -32
-7 11 -8 10 -6 -3 2 -11 -21 -34 -69 -67 -75 -53 -89 -60 -77 -38 4 7 3 9 -2
4 -5 -5 -9 -13 -9 -17 0 -15 -166 -131 -177 -124 -6 4 -8 3 -5 -3 8 -13 -263
-234 -276 -226 -6 3 -7 1 -3 -5 3 -6 -2 -17 -12 -24 -10 -7 -49 -40 -86 -73
-37 -33 -72 -60 -78 -60 -6 0 -12 -8 -14 -17 -1 -10 -19 -37 -39 -60 -20 -24
-55 -79 -77 -123 -22 -44 -38 -70 -35 -57 3 12 0 22 -5 22 -6 0 -8 -12 -4 -31
5 -28 -53 -391 -71 -439 -3 -8 -7 -33 -9 -55 -2 -22 -20 -121 -38 -220 -51
-265 -59 -334 -52 -432 7 -107 9 -123 15 -118 2 3 14 -9 26 -25 24 -33 92 -90
107 -90 5 0 7 -4 4 -8 -5 -9 2 -10 100 -13 60 -3 79 1 127 25 93 45 165 140
222 293 18 46 35 80 40 75 4 -4 5 -1 1 6 -10 17 52 213 72 230 10 7 11 10 3 6
-16 -8 -17 -13 46 181 64 201 109 281 216 388 49 49 90 87 93 85 2 -2 1 -28
-3 -57 -3 -29 -9 -48 -12 -43 -3 6 -7 -18 -7 -52 -1 -33 -16 -146 -33 -251
-67 -406 -83 -537 -84 -675 0 -149 7 -189 60 -328 23 -62 31 -98 24 -100 -6
-2 -11 -8 -11 -13 0 -6 5 -7 10 -4 15 9 13 -3 -12 -74 -20 -56 -24 -61 -30
-40 -6 18 -6 14 -3 -11 5 -38 -66 -306 -77 -294 -4 3 -4 -2 -2 -13 15 -56
-201 -583 -235 -575 -7 1 -10 -2 -6 -8 9 -15 -64 -132 -77 -124 -7 4 -8 2 -4
-5 9 -14 -41 -84 -54 -76 -5 3 -12 0 -16 -6 -5 -8 -3 -9 6 -4 8 5 11 3 8 -6
-3 -8 -10 -13 -16 -12 -5 1 -9 -4 -8 -11 2 -21 -93 -138 -106 -130 -7 4 -8 3
-4 -4 10 -17 -25 -61 -49 -62 -13 0 -16 -3 -8 -8 8 -5 -3 -26 -38 -67 -184
-217 -234 -273 -241 -269 -5 3 -7 0 -6 -8 2 -7 -3 -12 -10 -10 -8 1 -11 -2 -8
-7 4 -7 -48 -76 -84 -111 -3 -3 -22 -24 -42 -47 -20 -23 -38 -39 -41 -37 -2 2
-4 -2 -4 -9 -1 -22 -49 -97 -58 -90 -4 5 -5 3 -2 -4 4 -6 0 -46 -9 -88 -9 -42
-13 -79 -10 -82 3 -4 6 0 7 8 0 8 6 -6 13 -31 6 -25 8 -48 4 -51 -5 -3 -1 -14
7 -25 15 -19 15 -19 9 1 -4 11 7 -1 24 -26 30 -46 119 -150 271 -317 42 -46
75 -88 73 -94 -1 -5 1 -7 6 -4 4 2 14 1 22 -5 12 -7 9 -9 -10 -9 -47 0 -365
-29 -445 -40 -152 -21 -343 -57 -457 -86 -31 -8 -64 -11 -74 -7 -11 4 -15 3
-11 -4 8 -13 -39 -27 -55 -17 -7 4 -8 3 -4 -4 4 -7 2 -12 -3 -12 -6 0 -23 -18
-37 -40 -24 -36 -25 -43 -14 -70 7 -17 22 -36 33 -41 15 -9 17 -13 6 -19 -21
-14 71 0 136 20 105 32 244 62 260 56 9 -3 14 -2 11 3 -3 5 13 12 37 15 572
94 927 98 1251 15 67 -17 131 -34 143 -36 16 -4 31 4 53 25 36 37 41 87 10
120 -18 19 -104 52 -137 52 -7 0 -13 4 -13 8 0 4 -15 8 -32 8 -18 1 -58 6 -90
13 l-56 12 24 44 c38 66 40 126 11 218 -14 42 -23 87 -21 100 4 19 3 19 -4 3
-6 -15 -14 -5 -39 50 -28 61 -38 101 -34 141 2 21 62 83 74 76 5 -3 7 -1 4 5
-4 5 8 25 25 44 18 18 89 94 157 168 68 74 129 134 135 132 6 -2 8 0 4 4 -4 4
12 30 35 58 23 28 49 60 58 71 10 11 41 49 71 85 30 36 83 103 118 150 34 47
66 84 70 83 4 -1 7 4 7 11 0 7 18 39 40 72 62 92 170 278 225 386 27 54 52 98
56 97 12 -1 137 -177 134 -189 -1 -6 1 -9 5 -7 5 3 17 -7 27 -21 11 -14 14
-22 8 -18 -8 5 -10 2 -6 -8 3 -9 10 -14 14 -11 12 8 31 -21 24 -38 -3 -8 0
-18 7 -23 9 -5 10 -2 6 12 -13 36 30 -28 72 -107 23 -42 38 -79 34 -82 -3 -4
-2 -7 4 -7 12 0 115 -253 117 -287 0 -11 4 -19 7 -17 10 6 21 -45 13 -58 -4
-6 -3 -8 3 -5 12 8 37 -69 27 -85 -4 -7 -3 -8 4 -4 7 4 15 -6 21 -26 5 -18 46
-138 90 -267 45 -128 78 -237 75 -242 -3 -5 -1 -9 4 -9 6 0 13 -11 16 -24 3
-13 9 -32 13 -42 5 -13 3 -15 -8 -10 -8 4 -6 1 4 -7 20 -16 23 -31 5 -22 -7 4
-5 0 4 -8 21 -17 51 -96 43 -115 -3 -8 0 -10 6 -6 8 4 9 -4 5 -27 -4 -23 -3
-27 2 -14 7 16 12 10 27 -35 10 -30 31 -84 47 -119 16 -35 27 -66 25 -68 -9
-8 -163 -34 -179 -29 -10 2 -18 1 -18 -4 0 -4 -24 -10 -52 -14 -63 -8 -325
-69 -420 -97 -109 -32 -136 -88 -74 -154 32 -34 37 -36 73 -28 21 4 50 8 65 8
14 0 24 3 22 6 -9 15 334 88 536 115 170 22 484 15 659 -15 228 -39 448 -103
420 -123 -10 -7 -8 -8 7 -3 12 3 33 1 47 -4 36 -14 79 3 100 38 45 76 -3 128
-156 171 -35 9 -45 16 -35 22 9 7 7 8 -8 5 -28 -6 -207 37 -197 47 5 4 1 7 -7
6 -50 -7 -34 4 28 20 84 22 182 72 222 112 72 71 93 190 50 281 -12 26 -33 56
-46 66 -13 10 -21 21 -19 25 3 3 2 4 -1 2 -3 -3 -26 6 -50 19 -25 13 -69 29
-100 36 -30 7 -51 15 -45 18 5 3 -16 6 -48 6 -59 1 -138 32 -134 54 2 6 -3 10
-10 8 -13 -2 -38 72 -136 403 -33 113 -79 266 -101 339 -22 74 -38 141 -35
148 2 8 1 12 -3 9 -5 -3 -30 64 -57 147 -70 219 -156 443 -225 586 -34 69 -58
131 -55 138 2 8 1 12 -3 9 -5 -3 -37 50 -72 117 -35 67 -83 157 -106 200 -23
42 -40 77 -38 77 3 0 -1 7 -10 15 -8 9 -47 72 -86 141 -52 91 -69 131 -65 147
4 15 3 18 -3 9 -12 -18 -19 -1 -27 75 -5 40 -1 94 13 173 12 63 33 192 48 285
14 94 28 172 30 174 1 1 12 -3 23 -11 12 -8 19 -17 16 -20 -3 -2 1 -5 9 -5 13
0 256 -142 256 -150 0 -2 -5 -1 -12 3 -7 4 -8 3 -4 -5 4 -6 12 -9 17 -5 15 9
151 -79 136 -89 -8 -6 -6 -7 5 -3 21 6 151 -67 140 -79 -4 -5 -2 -6 3 -2 13 7
108 -46 99 -55 -3 -3 3 -5 13 -5 10 1 17 -4 15 -11 -1 -8 2 -11 7 -8 14 9 42
-5 34 -17 -3 -6 -1 -7 5 -3 15 9 55 -18 44 -29 -4 -5 -2 -5 5 -1 14 8 104 -34
97 -46 -3 -4 3 -5 12 -1 10 3 15 2 12 -3 -4 -5 4 -10 15 -10 12 -1 49 -9 82
-19 245 -70 498 158 430 390 -36 124 -98 188 -277 288 -52 28 -94 55 -94 59 1
3 -3 10 -8 15 -6 5 -6 2 -1 -6 11 -20 2 -15 -140 62 -66 37 -119 71 -118 76 2
6 -3 8 -10 6 -21 -9 -139 76 -217 155 -71 72 -183 235 -183 265 0 8 -5 11 -10
8 -6 -4 -8 1 -4 11 4 9 3 15 -2 12 -12 -8 -124 201 -115 215 4 8 3 9 -4 5 -14
-8 -46 50 -36 66 4 6 3 8 -2 5 -5 -3 -38 52 -73 121 -81 160 -143 269 -181
317 -16 21 -27 42 -23 48 3 5 2 7 -4 4 -13 -8 -86 67 -76 77 5 4 3 6 -2 4 -15
-5 -105 64 -98 75 3 5 0 7 -8 5 -8 -3 -36 6 -64 20 -27 13 -65 30 -85 38 -19
7 -27 13 -18 13 9 1 19 5 23 11 3 5 -6 5 -24 -1 -20 -7 -41 -7 -68 0 -47 14
-223 12 -283 -2z m259 -183 c101 -25 239 -102 225 -125 -3 -5 3 -9 14 -9 23 0
56 -35 47 -50 -3 -6 -1 -9 7 -8 7 2 12 -3 10 -10 -1 -6 2 -11 7 -10 14 4 61
-63 54 -76 -3 -6 -2 -7 2 -3 16 14 141 -215 129 -235 -4 -6 -3 -8 3 -5 6 4 15
-5 22 -19 6 -15 7 -23 1 -19 -14 9 -12 -6 6 -35 l15 -25 -6 25 c-4 14 12 -6
34 -45 39 -69 48 -91 34 -82 -5 3 -9 -5 -9 -17 -1 -13 4 -23 11 -23 7 0 11 6
8 14 -3 7 -3 13 0 13 4 0 23 -30 43 -67 20 -38 63 -112 96 -166 32 -54 55
-103 52 -109 -4 -6 -2 -8 4 -4 13 8 23 -7 27 -40 1 -14 8 -31 15 -37 10 -9 10
-6 0 13 -12 22 -11 23 1 13 23 -19 79 -100 74 -107 -3 -3 -2 -4 1 -1 10 7 90
-68 86 -80 -2 -5 0 -7 4 -3 9 10 66 -31 59 -43 -4 -5 2 -6 11 -2 13 5 15 3 9
-7 -5 -8 -4 -11 2 -7 14 9 53 -21 53 -41 0 -12 3 -13 8 -5 6 9 19 6 50 -13 23
-14 42 -30 42 -36 0 -6 3 -9 6 -5 6 6 259 -121 369 -186 63 -36 96 -67 88 -80
-3 -6 -1 -7 5 -3 12 7 44 -33 36 -46 -3 -4 0 -8 5 -8 15 0 14 -65 -3 -103 -17
-40 -51 -71 -67 -61 -7 4 -10 3 -6 -3 8 -13 -44 -33 -84 -33 -50 0 -150 44
-312 135 -87 50 -166 97 -175 105 -10 8 -23 16 -30 17 -19 4 -152 90 -147 95
3 2 -1 5 -9 5 -20 0 -87 44 -81 53 3 5 0 12 -6 16 -8 4 -9 3 -5 -4 4 -7 3 -12
-1 -12 -9 0 -270 164 -282 176 -3 4 0 4 7 0 6 -4 12 -2 12 4 0 7 -8 9 -19 5
-36 -11 -42 15 -26 116 30 188 30 217 6 243 -11 12 -18 25 -15 29 3 3 -3 3
-15 0 -12 -3 -21 -1 -21 6 0 6 -15 11 -32 11 -21 0 -28 -3 -20 -8 9 -6 6 -12
-13 -20 -27 -13 -45 -48 -45 -88 0 -14 -4 -23 -9 -20 -4 3 -7 -7 -5 -22 5 -38
-67 -506 -79 -513 -5 -4 -6 -12 -3 -18 4 -6 -9 -117 -30 -247 -36 -221 -37
-239 -26 -316 7 -48 24 -108 42 -146 34 -72 35 -76 18 -66 -7 4 -8 3 -4 -5 4
-6 11 -9 15 -7 4 3 28 -31 54 -75 26 -44 43 -78 38 -75 -5 3 -12 -2 -15 -11
-4 -10 -4 -14 0 -11 3 4 15 -3 26 -15 11 -12 17 -16 13 -9 -3 6 -4 12 -2 12
12 0 116 -200 111 -213 -3 -8 -1 -18 5 -22 7 -4 9 1 5 12 -5 17 -5 17 6 0 6
-9 8 -22 4 -29 -4 -6 -3 -8 4 -4 13 8 116 -190 108 -210 -3 -8 -2 -12 3 -9 12
7 26 -32 22 -62 -1 -11 3 -24 9 -28 9 -5 10 0 6 16 -10 39 53 -97 106 -230 27
-68 46 -131 43 -140 -3 -8 -3 -12 2 -8 11 12 82 -208 76 -235 -3 -15 -2 -19 4
-10 7 8 15 -5 27 -44 15 -46 15 -58 4 -71 -11 -14 -11 -16 3 -11 13 5 21 -10
43 -81 28 -96 30 -102 19 -100 -20 3 -24 -2 -13 -16 11 -13 15 -13 22 -3 5 8
6 1 2 -17 -4 -20 -3 -26 4 -17 12 18 50 -121 46 -168 -3 -27 -2 -30 4 -11 6
19 15 -3 45 -107 20 -72 34 -139 30 -148 -4 -12 -3 -15 5 -10 7 4 12 3 12 -3
0 -5 3 -16 6 -25 4 -11 1 -16 -10 -16 -13 0 -14 -4 -4 -25 6 -14 16 -25 22
-25 13 0 49 -95 48 -129 0 -16 3 -20 8 -11 6 10 10 8 19 -7 5 -11 7 -24 3 -29
-4 -5 -3 -6 2 -2 13 11 81 -53 80 -74 -1 -10 3 -15 7 -12 5 3 7 10 4 15 -8 13
-3 12 47 -11 24 -10 83 -26 131 -34 95 -17 145 -35 165 -59 17 -20 12 -83 -6
-79 -8 1 -11 -2 -7 -7 11 -18 -73 -61 -157 -80 -130 -30 -446 -82 -500 -83
-41 0 -53 4 -66 23 -26 36 -63 129 -57 139 4 6 2 10 -3 10 -13 0 -53 120 -45
134 3 6 2 8 -2 3 -11 -10 -36 63 -30 88 3 11 2 13 -2 6 -9 -22 -83 198 -77
229 4 16 3 21 -3 12 -12 -17 -86 197 -77 224 4 12 3 15 -3 7 -5 -8 -16 11 -32
55 -64 187 -163 455 -190 520 -16 40 -26 70 -21 67 6 -4 10 -1 10 4 0 6 -6 11
-12 11 -16 0 -73 104 -73 133 0 12 -5 22 -12 22 -17 0 -115 144 -107 157 4 6
3 8 -3 5 -13 -8 -125 141 -116 155 3 6 1 8 -4 5 -14 -9 -66 60 -57 75 4 6 3 8
-4 4 -13 -8 -263 304 -255 318 3 5 2 6 -4 3 -19 -12 -358 425 -349 449 3 7 0
16 -6 20 -7 4 -8 3 -4 -4 4 -7 5 -12 3 -12 -11 0 -40 56 -41 79 -1 15 -6 25
-12 24 -14 -3 -50 77 -66 149 -18 78 -14 264 10 423 12 77 33 219 47 315 48
337 88 569 97 564 4 -3 5 2 2 11 -4 8 4 42 16 74 21 57 21 60 4 92 -10 19 -18
39 -19 44 0 6 -21 10 -47 9 -39 -1 -59 -8 -108 -43 -33 -23 -64 -40 -69 -36
-5 3 -13 0 -17 -6 -4 -8 -3 -9 4 -5 7 4 12 5 12 3 0 -8 -104 -72 -113 -69 -5
1 -6 -1 -3 -6 7 -11 -75 -78 -89 -74 -5 2 -7 0 -3 -4 9 -8 -73 -100 -85 -96
-5 1 -6 -1 -3 -6 2 -4 -9 -28 -25 -52 -71 -106 -105 -191 -215 -550 -87 -280
-135 -386 -197 -431 -61 -45 -112 -36 -143 22 -19 39 -15 86 32 329 18 96 56
303 83 460 62 349 79 403 154 488 16 17 23 19 30 10 6 -9 7 -8 4 3 -7 20 56
84 72 74 6 -3 10 -1 9 5 -2 7 47 54 107 106 104 89 135 110 119 82 -4 -8 -3
-10 2 -5 5 5 9 13 9 18 0 16 189 159 203 154 7 -3 11 -1 8 4 -16 26 333 243
474 295 62 23 166 44 219 45 25 1 74 -6 110 -15z m-605 -2746 c22 -28 35 -52
30 -59 -4 -7 -3 -9 4 -5 12 7 54 -42 46 -55 -3 -5 -1 -8 4 -7 15 4 113 -122
106 -134 -4 -6 -3 -8 3 -5 13 8 166 -180 158 -193 -4 -6 -1 -9 5 -8 7 2 17 -4
22 -13 9 -12 0 -37 -35 -110 -50 -102 -165 -311 -176 -319 -3 -3 -15 -22 -26
-42 -36 -69 -192 -283 -205 -280 -6 1 -9 -2 -5 -8 9 -14 -74 -112 -87 -103 -7
4 -8 1 -3 -6 8 -14 -33 -64 -46 -56 -4 3 -11 0 -15 -6 -5 -8 -3 -9 6 -4 8 5
11 3 8 -6 -3 -8 -12 -13 -19 -11 -8 2 -11 0 -6 -4 10 -10 -23 -45 -36 -37 -6
3 -7 1 -3 -5 10 -17 -62 -92 -82 -85 -12 3 -13 2 -4 -4 10 -8 8 -15 -9 -36
-11 -15 -25 -25 -30 -21 -5 3 -8 1 -7 -4 5 -16 -112 -143 -125 -136 -7 4 -9 4
-5 -1 8 -8 -162 -191 -174 -188 -3 2 -16 -29 -28 -68 -26 -81 -23 -133 11
-207 11 -26 21 -57 21 -69 0 -13 4 -21 8 -18 11 7 63 -114 56 -131 -3 -8 -1
-14 4 -14 15 0 12 -37 -5 -70 -17 -33 -61 -60 -98 -60 -13 0 -42 13 -63 28
-62 46 -256 251 -248 264 4 6 3 8 -4 4 -12 -7 -89 80 -84 96 1 5 -2 7 -7 4
-13 -8 -93 105 -86 122 2 7 0 10 -5 7 -17 -11 -15 87 3 120 22 42 80 110 91
107 6 -2 8 -1 4 3 -8 9 221 277 232 270 3 -2 7 2 7 9 0 17 133 177 143 171 4
-2 7 2 7 9 0 7 45 69 100 137 55 68 131 171 170 229 73 109 188 320 218 402
10 26 21 45 26 42 5 -3 6 1 4 8 -3 8 8 52 24 98 16 47 46 144 67 215 20 72 39
132 43 135 3 3 6 10 6 16 0 25 40 153 45 146 4 -4 23 -28 44 -54z"/>
</g>
</svg>
