<?xml version="1.0" standalone="no"?>
<!DOCTYPE svg PUBLIC "-//W3C//DTD SVG 20010904//EN" "http://www.w3.org/TR/2001/REC-SVG-20010904/DTD/svg10.dtd">
<svg xmlns="http://www.w3.org/2000/svg" version="1.0" width="1024.000000pt" height="1024.000000pt" viewBox="0 0 1024.000000 1024.000000" preserveAspectRatio="xMidYMid meet">
<metadata>
Created by potrace 1.16, written by Peter Selinger 2001-2019
<meta name="Producer" content="Online-Convert"/></metadata>
<g transform="translate(0.000000,1024.000000) scale(0.100000,-0.100000)" fill="#000000" stroke="none">
<path d="M2935 8880 c-33 -4 -82 -6 -110 -4 -41 2 -44 2 -15 -4 l35 -8 -49 -8 c-27 -4 -92 -21 -145 -37 -52 -16 -101 -27 -109 -24 -7 2 -11 1 -8 -3 3 -5 -30 -23 -72 -41 -42 -18 -112 -53 -155 -77 -43 -25 -82 -42 -88 -39 -5 4 -8 2 -7 -3 2 -6 -28 -33 -67 -60 -101 -72 -204 -163 -256 -224 -17 -21 -36 -35 -43 -31 -6 3 -8 3 -4 -2 10 -11 -51 -87 -64 -79 -7 4 -8 2 -4 -4 8 -13 -42 -84 -54 -77 -4 3 -7 -3 -6 -12 0 -10 -4 -18 -11 -18 -6 0 -15 -4 -20 -9 -5 -5 -3 -6 5 -2 19 11 15 2 -35 -87 -27 -45 -61 -115 -77 -154 -16 -40 -32 -71 -35 -69 -3 2 -6 -6 -7 -17 0 -12 -13 -61 -27 -109 -14 -48 -32 -123 -39 -167 -7 -44 -15 -78 -19 -75 -7 4 -5 -5931 1 -6005 1 -18 4 -21 11 -10 6 10 9 10 9 2 0 -7 17 -24 39 -38 l38 -26 3424 1 c1883 0 3495 0 3582 0 l158 0 47 44 47 45 3 2868 c2 1798 -1 2922 -7 3013 -5 80 -19 184 -30 232 -11 48 -18 95 -14 105 3 10 3 15 -2 11 -4 -4 -21 29 -36 74 -16 45 -42 110 -59 145 -16 35 -28 69 -26 76 1 6 1 8 -2 3 -2 -4 -17 13 -33 40 -15 26 -25 52 -22 58 3 5 1 6 -5 2 -11 -6 -28 30 -23 49 1 6 -1 7 -5 3 -8 -9 -80 92 -76 105 1 5 -1 6 -6 3 -5 -3 -23 14 -41 37 -17 23 -66 77 -110 119 -43 43 -76 80 -74 83 1 3 0 3 -3 0 -11 -8 -84 55 -85 73 0 11 -3 12 -6 5 -3 -9 -15 -5 -39 13 -18 15 -31 31 -27 37 3 6 1 7 -5 3 -11 -6 -98 43 -98 56 1 3 -3 10 -8 15 -5 5 -6 2 -1 -6 5 -9 3 -12 -6 -9 -8 3 -13 11 -11 17 1 7 -2 10 -7 7 -14 -9 -161 66 -154 77 3 6 1 7 -6 3 -14 -9 -53 2 -46 14 3 4 -5 6 -17 3 -19 -4 -21 -3 -8 7 13 10 13 11 -1 7 -8 -3 -60 8 -115 24 -54 16 -119 32 -144 35 -34 5 -40 9 -25 14 12 4 -1 8 -35 9 -176 6 -4406 7 -4455 1z m695 -220 c0 -5 5 -10 11 -10 5 0 7 5 4 10 -4 7 59 10 182 9 114 0 180 -4 168 -9 -19 -8 -19 -9 3 -9 12 -1 22 5 23 12 0 10 2 10 6 0 2 -7 9 -13 14 -13 6 0 7 5 4 10 -4 6 22 10 69 10 44 0 76 -4 76 -10 0 -5 5 -10 11 -10 5 0 7 5 4 10 -4 6 18 10 60 10 42 0 64 -4 60 -10 -4 -6 5 -10 20 -10 15 0 24 4 20 10 -4 7 72 10 220 10 148 0 224 -3 220 -10 -4 -6 5 -10 20 -10 15 0 24 4 20 10 -4 6 6 10 22 9 25 0 26 -1 8 -9 -16 -7 -11 -9 20 -9 29 -1 36 2 25 9 -10 7 7 10 58 10 46 0 71 -4 67 -10 -4 -6 19 -9 62 -8 l68 1 -50 7 c-34 5 -3 7 98 8 97 1 146 -1 142 -8 -4 -6 5 -10 20 -10 15 0 24 4 20 10 -4 6 9 10 32 9 30 0 34 -2 18 -9 -18 -8 -17 -9 8 -9 16 -1 26 3 22 9 -4 6 8 10 29 10 20 0 36 -4 36 -10 0 -5 5 -10 11 -10 5 0 7 5 4 10 -4 6 9 10 32 9 30 0 34 -2 18 -9 -17 -7 -15 -9 13 -9 17 -1 32 4 32 9 0 15 47 12 53 -2 4 -10 7 -10 18 0 16 14 59 16 59 2 0 -5 5 -10 11 -10 5 0 7 5 4 10 -4 6 18 10 60 10 42 0 64 -4 60 -10 -4 -6 9 -10 32 -10 28 0 34 3 23 10 -10 7 33 10 132 10 87 0 149 -4 153 -10 3 -5 11 -10 16 -10 6 0 7 5 4 10 -4 6 6 10 22 9 25 0 26 -1 8 -9 -16 -7 -11 -9 20 -9 31 0 36 2 20 9 -13 6 9 9 68 9 52 1 87 -3 87 -9 0 -5 5 -10 11 -10 5 0 7 5 4 10 -4 7 59 10 182 10 125 0 183 -4 173 -10 -13 -8 -12 -10 3 -10 9 0 17 6 17 13 0 8 4 7 11 -3 8 -11 12 -12 16 -2 3 8 35 12 111 12 73 0 102 -3 92 -10 -12 -7 -8 -10 15 -10 24 0 27 2 15 11 -11 7 13 9 85 4 55 -3 104 -10 109 -15 5 -5 14 -6 21 -4 26 10 280 -67 365 -111 18 -9 28 -21 24 -27 -4 -7 -3 -8 4 -4 15 9 95 -32 87 -44 -3 -5 0 -7 7 -5 19 8 160 -93 152 -107 -4 -6 -3 -8 3 -5 11 7 114 -69 110 -81 -1 -4 1 -7 4 -7 4 0 16 -9 28 -19 17 -15 19 -22 9 -29 -9 -6 -8 -7 4 -4 18 6 82 -59 72 -75 -3 -4 0 -7 6 -6 7 2 41 -39 77 -91 51 -74 62 -96 51 -103 -10 -8 -9 -9 4 -5 18 6 32 -18 21 -35 -3 -6 -2 -8 4 -5 10 6 76 -121 76 -147 0 -9 3 -16 7 -16 12 0 41 -110 35 -133 -5 -16 -4 -18 3 -8 12 17 47 -128 39 -159 -3 -10 0 -21 7 -23 8 -3 12 -596 14 -2332 l2 -2329 -24 23 c-14 13 -23 28 -20 33 3 5 1 7 -4 6 -5 -2 -88 69 -183 157 -258 236 -329 307 -322 318 3 6 1 7 -6 3 -15 -10 -43 13 -34 27 3 5 1 7 -4 4 -6 -4 -25 9 -42 28 l-31 35 0 1483 c0 1252 -2 1497 -15 1580 -17 117 -35 188 -76 302 -16 47 -27 91 -23 97 4 6 3 8 -3 5 -5 -3 -25 26 -43 66 -19 40 -49 96 -67 125 -18 29 -31 57 -27 63 3 5 0 8 -7 7 -6 -2 -25 22 -41 52 -16 30 -32 54 -34 52 -3 -2 -38 34 -78 80 -77 87 -145 149 -261 238 -38 29 -70 58 -70 63 0 6 -6 12 -14 15 -8 3 -11 0 -7 -7 4 -6 -20 5 -53 25 -34 20 -61 43 -61 50 0 8 -10 13 -22 13 -13 -1 -57 15 -98 35 -41 20 -64 33 -51 30 16 -4 21 -3 16 5 -4 7 -19 11 -33 9 -24 -2 -170 39 -182 52 -3 3 -13 5 -22 6 -59 3 -63 4 -48 15 12 7 8 9 -15 7 -16 -1 -84 4 -149 11 -178 20 -409 11 -561 -24 -65 -15 -149 -38 -186 -51 -37 -13 -74 -22 -82 -18 -8 3 -18 1 -22 -5 -4 -7 1 -9 12 -6 10 3 7 0 -7 -6 -137 -66 -227 -113 -251 -130 -16 -11 -34 -17 -40 -13 -7 4 -9 3 -5 -4 10 -17 -13 -25 -32 -10 -15 11 -15 11 -5 -2 10 -13 3 -23 -43 -58 -30 -23 -60 -40 -66 -36 -6 4 -8 3 -5 -3 4 -6 -23 -36 -58 -67 -36 -31 -97 -95 -136 -141 -40 -46 -77 -82 -82 -78 -6 3 -7 1 -3 -5 3 -6 -14 -40 -40 -76 -25 -37 -72 -119 -105 -184 -33 -64 -63 -121 -67 -127 -4 -5 -8 -17 -9 -25 -1 -8 -15 -58 -31 -111 -68 -219 -65 -134 -66 -1794 -1 -825 -5 -1505 -8 -1511 -4 -6 -61 -35 -125 -64 -65 -29 -160 -73 -212 -97 -52 -24 -101 -41 -108 -38 -8 2 -12 1 -9 -4 8 -13 -128 -72 -150 -65 -13 4 -15 3 -6 -3 17 -13 -279 -145 -305 -137 -13 4 -14 3 -5 -4 17 -12 -150 -88 -169 -77 -7 5 -10 4 -6 -2 8 -13 -20 -26 -35 -16 -6 3 -8 2 -5 -4 8 -13 -109 -64 -131 -57 -13 5 -14 4 -3 -4 11 -8 9 -11 -9 -17 -13 -4 -66 -28 -119 -52 -288 -135 -562 -252 -578 -247 -12 4 -14 3 -6 -3 15 -11 -332 -167 -349 -157 -6 4 -8 3 -5 -3 9 -14 -157 -84 -180 -77 -12 4 -14 3 -6 -3 15 -11 -153 -87 -169 -76 -6 3 -8 1 -5 -4 4 -6 -9 -18 -31 -26 -20 -8 -63 -27 -95 -41 l-57 -26 0 2613 c1 1595 5 2645 10 2697 12 99 40 240 49 240 3 0 7 12 7 28 2 45 66 195 77 180 6 -9 7 -7 3 6 -8 23 82 188 97 179 6 -3 7 -1 4 4 -10 15 72 125 86 117 7 -4 9 -4 5 1 -11 12 31 66 45 59 7 -4 9 -4 5 1 -10 11 11 37 23 29 5 -3 8 -2 7 3 -8 24 201 201 222 188 6 -3 9 -1 8 7 -2 7 5 12 14 12 10 -1 16 2 13 6 -10 17 237 145 261 136 8 -3 13 -2 10 2 -7 12 91 45 110 38 8 -3 13 -2 10 3 -7 11 125 41 224 51 119 12 680 12 680 0z m2874 -1041 c145 -30 146 -30 139 -42 -3 -6 -1 -7 6 -3 15 10 143 -33 136 -45 -4 -5 0 -7 7 -4 7 3 47 -11 88 -30 58 -29 71 -38 60 -47 -12 -8 -11 -9 4 -4 29 10 106 -39 101 -64 -2 -12 0 -18 6 -15 5 4 7 11 4 16 -12 18 6 9 60 -31 59 -43 73 -61 28 -34 l-28 16 24 -20 c14 -11 30 -18 36 -16 6 3 28 -14 50 -37 22 -23 34 -38 26 -34 -9 5 -12 4 -7 -3 4 -6 13 -9 21 -5 14 5 20 -7 16 -30 -1 -5 2 -6 7 -3 12 7 96 -80 88 -92 -3 -6 10 -24 31 -41 46 -38 135 -179 128 -202 -3 -10 -1 -20 4 -24 7 -3 9 1 6 12 -3 10 10 -13 30 -52 24 -48 34 -78 30 -95 -4 -18 -3 -21 4 -11 7 10 15 -4 30 -55 33 -113 53 -207 49 -236 -3 -15 -1 -25 2 -23 17 10 20 -262 20 -1571 l0 -1393 -1442 0 c-794 0 -1458 2 -1476 5 l-33 6 4 1492 c3 1490 3 1491 24 1583 34 140 68 237 128 358 62 124 179 290 197 279 6 -4 8 -3 5 3 -10 16 51 83 71 77 13 -5 14 -4 3 4 -10 7 -4 17 29 43 24 19 47 33 52 31 5 -1 7 2 4 6 -8 13 30 45 44 37 6 -3 9 -2 8 3 -5 18 153 128 165 115 4 -3 7 -1 7 5 0 19 138 84 163 77 15 -4 18 -3 9 3 -16 11 72 47 89 36 7 -4 9 -3 6 3 -7 11 127 48 142 38 6 -3 11 -2 11 3 0 12 139 34 190 31 21 -2 43 1 47 5 13 13 237 -3 347 -25z m1281 -4438 c19 -5 29 -12 27 -22 -2 -8 0 -11 3 -7 10 10 116 -82 109 -93 -3 -5 -2 -8 3 -7 13 4 173 -142 170 -155 -1 -6 4 -11 10 -12 21 0 164 -136 157 -147 -4 -7 -2 -8 4 -4 7 4 12 3 12 -1 0 -5 10 -13 23 -18 12 -6 22 -17 22 -25 0 -8 7 -15 15 -15 8 -1 14 -6 13 -13 -2 -7 1 -11 6 -9 14 3 212 -183 205 -194 -3 -5 -2 -9 3 -8 20 4 24 -2 12 -18 -10 -11 -10 -14 -1 -9 9 6 12 -81 12 -418 0 -293 -3 -426 -11 -426 -5 0 -7 5 -4 10 3 5 1 10 -4 10 -6 0 -11 -4 -11 -10 0 -5 -5 -10 -11 -10 -5 0 -7 5 -3 12 5 7 3 8 -6 3 -25 -15 -132 -18 -141 -3 -6 8 -12 9 -16 3 -9 -12 -144 -14 -137 -3 3 5 -2 8 -11 8 -9 0 -13 -4 -10 -10 4 -6 -8 -10 -29 -10 -19 0 -37 6 -40 13 -5 9 -7 9 -12 0 -4 -9 -29 -13 -74 -13 -46 0 -70 4 -73 13 -3 9 -10 9 -31 -2 -20 -11 -29 -12 -38 -3 -15 15 -32 16 -23 2 3 -5 1 -10 -4 -10 -6 0 -11 5 -11 10 0 6 -5 10 -11 10 -5 0 -7 -4 -4 -10 4 -6 -17 -10 -54 -10 -34 0 -61 4 -61 10 0 6 -5 10 -11 10 -5 0 -7 -4 -4 -10 4 -6 -21 -10 -69 -10 -50 0 -76 4 -80 13 -5 10 -7 10 -12 0 -7 -15 -64 -18 -64 -3 0 6 -5 10 -11 10 -5 0 -7 -4 -4 -10 3 -5 -9 -9 -30 -8 -19 1 -35 5 -35 9 0 4 -11 6 -25 5 -14 0 -25 -5 -25 -9 0 -4 -9 -3 -19 3 -25 13 -34 13 -26 0 4 -6 -8 -10 -29 -10 -20 0 -36 5 -36 10 0 6 -5 10 -11 10 -5 0 -7 -4 -4 -10 4 -6 -23 -10 -75 -10 -52 0 -79 4 -75 10 3 5 -1 10 -10 10 -9 0 -13 -4 -10 -10 4 -6 -7 -10 -24 -10 -17 0 -31 5 -31 10 0 6 -5 10 -11 10 -5 0 -7 -4 -4 -10 4 -6 -14 -10 -47 -9 -39 0 -48 3 -33 9 17 7 14 9 -13 9 -20 1 -31 -3 -27 -9 3 -5 2 -10 -4 -10 -5 0 -12 6 -15 13 -5 9 -7 10 -12 0 -8 -18 -150 -18 -158 0 -5 9 -7 9 -12 0 -7 -17 -46 -17 -63 0 -11 9 -13 9 -7 0 6 -10 -12 -13 -73 -13 -51 0 -81 4 -83 11 -3 9 -9 9 -25 0 -27 -14 -217 -15 -208 -1 3 6 -1 10 -10 10 -9 0 -13 -4 -10 -10 9 -15 -376 -12 -394 3 -12 9 -13 9 -7 0 5 -10 -2 -13 -26 -13 -19 0 -40 6 -47 13 -11 10 -13 10 -7 0 6 -10 -51 -13 -268 -13 -177 0 -276 4 -276 10 0 6 -5 10 -11 10 -5 0 -7 -4 -4 -10 4 -6 -13 -10 -44 -10 -30 0 -52 5 -55 13 -5 10 -7 10 -12 0 -3 -7 -13 -13 -22 -13 -15 0 -15 2 -2 10 9 6 10 10 3 10 -6 0 -15 -5 -18 -10 -9 -14 -945 -12 -962 2 -8 6 -13 7 -13 1 0 -16 -321 -17 -331 -1 -7 10 -9 10 -9 1 0 -7 -7 -13 -16 -13 -8 0 -12 5 -9 10 3 6 -4 10 -17 10 -18 0 -20 -2 -8 -10 11 -7 4 -10 -27 -10 -24 0 -43 5 -46 13 -4 9 -7 9 -14 0 -10 -14 -463 -17 -463 -2 0 5 -5 9 -11 9 -5 0 -7 -4 -4 -10 9 -15 -138 -13 -154 3 -8 7 -11 7 -8 1 5 -8 -36 -12 -149 -12 -97 -1 -153 2 -149 8 4 6 -6 10 -22 9 -25 0 -26 -1 -8 -9 13 -6 -6 -9 -57 -8 -43 0 -78 4 -78 9 0 5 -5 9 -11 9 -5 0 -7 -4 -4 -10 4 -6 -8 -10 -29 -10 -20 0 -36 5 -36 10 0 6 -5 10 -11 10 -5 0 -7 -4 -4 -10 4 -6 -8 -10 -30 -10 -22 0 -34 4 -30 10 3 6 -1 10 -10 10 -9 0 -13 -4 -10 -10 4 -6 -37 -10 -115 -10 -78 0 -119 4 -115 10 3 6 1 10 -4 10 -6 0 -11 -4 -11 -10 0 -14 -53 -12 -69 3 -11 10 -13 9 -7 -1 6 -9 -9 -12 -66 -11 -40 1 -79 6 -85 11 -9 7 -13 7 -13 -1 0 -17 -128 -14 -146 3 -18 18 -20 201 -3 212 8 5 8 9 -1 14 -17 10 213 112 236 104 13 -4 15 -3 6 3 -16 12 151 89 169 77 7 -4 10 -3 6 3 -8 13 41 36 55 27 6 -4 8 -3 5 2 -3 6 33 27 81 48 48 21 192 85 320 143 128 57 237 101 244 97 6 -4 8 -3 5 3 -9 14 48 37 64 27 8 -5 9 -3 4 6 -6 10 -4 12 9 7 9 -4 15 -3 12 1 -7 12 430 205 445 196 7 -4 10 -3 6 3 -8 13 20 26 35 16 6 -3 8 -2 5 4 -6 9 265 136 291 136 6 0 12 4 12 8 0 4 17 14 38 22 38 15 62 27 312 142 80 37 155 68 167 69 11 0 19 4 17 8 -4 7 86 44 99 40 4 -1 7 2 7 6 0 12 46 32 62 28 7 -1 9 -1 5 2 -5 2 26 20 70 39 43 19 110 50 148 68 l70 34 1540 -1 c847 0 1554 -3 1570 -7z"/>
<path d="M6193 6048 c-17 -4 -41 -21 -52 -37 -21 -29 -21 -38 -21 -774 l0 -745 25 -30 c13 -16 22 -31 20 -34 -3 -3 21 -3 52 -2 74 4 92 7 88 15 -3 3 2 15 10 25 12 16 14 132 15 763 0 736 0 744 -21 777 -11 19 -21 34 -22 34 -1 0 -16 4 -32 8 -17 5 -44 5 -62 0z"/>
<path d="M5364 5410 c-38 -15 -66 -61 -61 -100 2 -19 8 -44 12 -54 6 -14 5 -17 -3 -12 -8 5 -10 2 -6 -8 3 -9 9 -14 13 -11 7 4 152 -349 151 -368 0 -5 -5 -5 -12 -1 -7 4 -8 3 -4 -5 4 -6 11 -9 16 -6 4 3 11 -2 14 -11 9 -24 7 -31 -4 -14 -7 10 -10 11 -10 2 0 -7 6 -15 14 -18 8 -3 47 -87 87 -187 112 -283 122 -297 190 -299 82 -3 120 69 84 157 -9 20 -13 46 -10 58 4 15 3 18 -3 9 -11 -16 -47 72 -36 89 4 7 3 9 -3 6 -10 -6 -30 30 -37 64 -2 8 -13 37 -25 64 -40 89 -62 155 -56 165 3 5 1 18 -5 27 -9 15 -10 14 -4 -7 14 -54 -7 -8 -61 130 -94 240 -105 271 -95 265 6 -3 10 -1 10 4 0 6 -6 11 -14 11 -8 0 -17 7 -20 15 -6 16 -65 46 -88 44 -7 0 -23 -4 -34 -9z"/>
<path d="M7003 5396 c-23 -19 -44 -65 -93 -195 -35 -93 -68 -167 -73 -164 -6 3 -7 1 -3 -6 10 -15 -15 -82 -27 -74 -6 3 -7 1 -3 -5 9 -14 -128 -374 -139 -365 -4 5 -5 3 -2 -3 3 -6 -5 -44 -19 -84 -22 -64 -24 -79 -15 -111 18 -60 82 -89 138 -62 41 19 42 21 110 202 30 80 60 160 68 176 7 17 45 119 86 227 40 108 76 195 81 192 4 -3 5 1 3 8 -3 7 8 51 25 97 27 73 29 88 19 118 -13 39 -60 73 -101 73 -14 0 -40 -11 -55 -24z"/>
</g>
</svg>
