<?xml version="1.0" standalone="no"?>
<!DOCTYPE svg PUBLIC "-//W3C//DTD SVG 20010904//EN"
 "http://www.w3.org/TR/2001/REC-SVG-20010904/DTD/svg10.dtd">
<svg version="1.0" xmlns="http://www.w3.org/2000/svg"
 width="1024.000000pt" height="1024.000000pt" viewBox="0 0 1024.000000 1024.000000"
 preserveAspectRatio="xMidYMid meet">
<metadata>
Created by potrace 1.16, written by Peter Selinger 2001-2019
</metadata>
<g transform="translate(0.000000,1024.000000) scale(0.100000,-0.100000)"
fill="#000000" stroke="none">
<path d="M6245 6688 c-119 -16 -239 -98 -290 -198 -71 -140 -65 -274 17 -398
15 -24 28 -46 28 -50 0 -4 -44 -7 -98 -7 -90 0 -103 -2 -164 -33 -160 -79
-277 -243 -366 -512 -94 -282 -111 -554 -51 -778 27 -101 59 -160 125 -231
100 -108 230 -155 424 -154 93 1 132 6 205 28 166 49 333 151 557 341 l88 74
67 -87 c38 -48 75 -94 83 -103 8 -8 31 -36 50 -60 90 -115 115 -140 144 -140
31 0 58 26 54 52 -3 21 -254 332 -334 415 -28 29 -56 53 -62 53 -6 0 -62 -44
-124 -97 -177 -155 -294 -239 -413 -298 -138 -69 -203 -86 -330 -86 -190 0
-315 73 -393 228 -101 199 -81 564 48 896 78 200 166 323 268 373 51 26 67 29
152 29 78 0 102 -4 136 -22 62 -33 114 -100 161 -204 23 -52 69 -157 102 -234
34 -76 69 -147 78 -157 33 -37 101 -19 390 98 l162 66 51 -17 c58 -19 80 -50
80 -113 0 -49 -10 -58 -140 -122 -291 -143 -480 -208 -570 -195 -138 20 -206
87 -294 290 -87 199 -84 195 -117 195 -21 0 -32 -7 -40 -24 -10 -20 -3 -43 44
-154 31 -72 59 -142 62 -155 9 -33 -17 -123 -62 -216 -37 -77 -37 -92 0 -115
23 -15 91 5 199 60 l90 45 60 -12 c122 -24 270 9 482 110 l103 48 123 -186
c210 -316 364 -533 387 -544 27 -12 73 14 73 41 0 10 -48 86 -107 169 -60 84
-142 200 -183 260 -41 59 -80 114 -87 121 -16 17 -46 73 -41 77 2 2 34 17 71
34 l67 30 57 -76 c32 -42 65 -87 73 -99 58 -87 141 -203 252 -351 121 -163
130 -173 161 -173 69 0 74 38 14 112 -131 163 -457 610 -457 626 0 5 15 15 33
22 17 6 56 22 85 36 48 22 52 27 52 57 0 44 -25 128 -42 138 -24 15 -62 9
-163 -26 -55 -19 -100 -35 -101 -35 -1 0 -5 19 -8 43 -4 23 -15 57 -26 74 -24
40 -96 89 -143 98 -26 5 -66 31 -132 86 -109 92 -133 104 -164 83 -28 -20 -27
-49 5 -71 37 -26 139 -113 142 -122 2 -7 -248 -108 -328 -132 -50 -15 -40 -28
-121 156 -77 175 -135 291 -165 330 l-23 30 112 0 c101 0 118 3 170 27 76 36
159 115 188 181 20 44 24 69 24 157 0 97 -2 110 -31 170 -80 166 -244 253
-429 228z m145 -104 c140 -42 220 -146 220 -288 0 -110 -61 -206 -164 -258
-151 -78 -329 -19 -405 134 -26 51 -31 73 -31 132 0 93 29 155 100 219 81 73
173 93 280 61z m1007 -1288 c-2 -6 -59 -34 -128 -62 -68 -28 -155 -65 -193
-83 -53 -24 -71 -28 -78 -19 -14 23 -9 27 65 64 39 20 79 42 87 49 8 7 62 31
120 54 96 36 106 38 118 23 7 -9 11 -21 9 -26z"/>
<path d="M3833 6665 c-195 -60 -310 -266 -259 -463 50 -196 227 -317 432 -295
l49 6 -25 -29 c-14 -16 -28 -31 -31 -34 -8 -7 -214 -300 -269 -382 -46 -69
-66 -80 -95 -52 -8 9 -68 105 -132 213 -143 242 -157 261 -189 261 -34 0 -159
-59 -242 -113 l-67 -44 -115 4 c-124 5 -192 -8 -198 -38 -2 -10 54 -131 123
-270 139 -276 149 -299 135 -299 -4 0 -28 39 -53 88 -162 321 -229 442 -247
442 -53 0 -62 -24 -30 -77 22 -36 49 -86 175 -323 96 -180 118 -210 150 -210
12 0 60 16 108 35 84 34 127 43 127 28 -1 -10 -110 -164 -260 -368 -235 -319
-242 -332 -201 -355 56 -29 79 -11 191 154 25 37 79 115 120 174 57 80 228
330 246 360 1 2 44 -10 96 -26 202 -65 390 -81 513 -43 l60 18 76 -38 c112
-55 259 -112 298 -113 23 -1 37 5 47 20 13 19 11 25 -16 65 -17 25 -50 107
-76 186 l-46 142 66 81 c36 44 66 85 66 90 0 17 -39 50 -59 50 -12 0 -38 -22
-63 -51 -128 -152 -254 -286 -295 -316 -72 -51 -138 -67 -258 -60 -157 8 -449
90 -482 134 -21 27 -16 97 8 128 22 26 23 27 113 22 50 -3 123 -12 161 -20
169 -35 215 -41 242 -31 19 6 47 38 86 94 118 173 258 367 302 417 66 75 138
108 236 108 96 0 150 -26 234 -110 134 -136 249 -427 290 -735 24 -176 8 -304
-52 -442 -29 -64 -116 -149 -193 -186 -261 -127 -615 3 -1006 370 -63 59 -82
71 -107 64 -25 -8 -387 -413 -401 -450 -10 -27 4 -48 42 -60 30 -10 39 -3 122
94 40 47 104 119 141 160 37 41 78 88 91 104 l25 29 103 -91 c334 -296 674
-415 959 -335 179 49 299 164 361 343 28 82 38 291 21 425 -46 349 -202 703
-360 820 -88 64 -155 89 -257 93 l-92 4 29 43 c47 70 62 121 62 215 0 64 -5
98 -21 140 -46 114 -131 195 -245 234 -58 20 -204 20 -264 1z m242 -96 c65
-24 133 -88 167 -156 31 -64 32 -167 1 -234 -50 -111 -165 -189 -277 -189
-109 0 -220 73 -278 182 -33 63 -33 184 1 251 74 144 231 204 386 146z m-716
-864 c26 -49 73 -132 104 -184 l57 -93 -58 8 c-58 9 -222 11 -255 3 -14 -3
-31 21 -83 117 l-64 122 57 38 c62 41 160 85 181 81 7 -1 35 -42 61 -92z
m-436 -38 l58 -12 50 -95 c28 -52 61 -114 74 -137 13 -23 19 -43 13 -45 -6 -2
-12 -42 -13 -88 -4 -83 -5 -85 -36 -104 -31 -19 -32 -19 -46 0 -14 19 -243
469 -243 478 0 4 36 12 70 14 8 1 41 -4 73 -11z m1251 -524 c10 -37 26 -85 36
-106 12 -24 14 -37 7 -34 -74 30 -137 61 -137 68 0 5 -7 9 -16 9 -9 0 -14 5
-12 11 5 14 91 118 98 118 3 1 14 -29 24 -66z"/>
</g>
</svg>
