<?xml version="1.0" standalone="no"?>
<!DOCTYPE svg PUBLIC "-//W3C//DTD SVG 20010904//EN"
 "http://www.w3.org/TR/2001/REC-SVG-20010904/DTD/svg10.dtd">
<svg version="1.0" xmlns="http://www.w3.org/2000/svg"
 width="1024.000000pt" height="1024.000000pt" viewBox="0 0 1024.000000 1024.000000"
 preserveAspectRatio="xMidYMid meet">
<metadata>
Created by potrace 1.16, written by Peter Selinger 2001-2019
</metadata>
<g transform="translate(0.000000,1024.000000) scale(0.100000,-0.100000)"
fill="#000000" stroke="none">
<path d="M8736 8412 c-5 -4 -455 -65 -651 -87 -124 -14 -299 -36 -360 -45
-134 -19 -655 -85 -910 -115 -66 -8 -154 -19 -195 -24 -41 -6 -118 -15 -170
-21 -52 -6 -117 -15 -145 -20 -27 -5 -77 -12 -110 -15 -33 -3 -136 -16 -230
-29 -93 -13 -177 -23 -185 -23 -8 -1 -64 -8 -123 -17 -59 -9 -113 -14 -118
-10 -5 3 -15 1 -22 -4 -7 -6 -75 -17 -152 -27 -77 -9 -156 -19 -175 -21 l-35
-6 0 207 c0 164 -3 209 -13 213 -11 4 -11 6 0 13 9 6 6 8 -9 6 -12 0 -21 -6
-20 -12 1 -5 -4 -9 -10 -8 -7 2 -12 0 -12 -5 1 -4 1 -101 0 -216 l-1 -209 -37
8 c-21 3 -60 8 -88 10 -81 5 -307 34 -347 44 -20 5 -39 6 -42 4 -5 -6 -248 18
-436 43 -63 9 -140 18 -170 20 -30 3 -120 13 -200 24 -80 10 -167 22 -195 25
-265 33 -379 46 -430 50 -33 3 -109 12 -170 20 -60 8 -137 17 -170 19 -33 3
-170 18 -305 35 -135 16 -310 37 -390 46 -80 9 -152 19 -160 22 -8 4 -19 5
-24 4 -11 -2 -289 28 -326 36 -14 2 -42 6 -62 8 -20 1 -64 6 -97 10 -59 7 -61
6 -71 -20 -6 -15 -8 -30 -5 -35 6 -9 69 -20 150 -26 133 -9 736 -82 744 -90 2
-2 -1 -4 -7 -4 -7 0 -12 -4 -12 -8 0 -4 8 -8 19 -8 12 0 17 5 13 15 -4 11 2
13 29 8 19 -4 111 -16 204 -26 94 -11 231 -27 305 -36 74 -9 198 -23 275 -31
77 -8 246 -28 375 -44 358 -45 659 -80 990 -115 85 -9 182 -20 215 -25 33 -6
77 -10 98 -10 28 0 37 -4 37 -17 0 -13 3 -14 8 -5 7 10 35 10 143 -1 l134 -12
3 -463 c2 -410 4 -463 18 -469 13 -5 13 -7 2 -14 -9 -6 -6 -9 11 -9 13 0 21 3
18 7 -4 3 -3 11 2 17 5 6 11 214 12 473 2 410 4 463 18 467 9 2 43 7 76 11 33
3 105 12 160 20 176 26 558 74 630 80 39 3 84 10 100 15 17 5 59 11 94 14 35
4 73 8 85 11 11 3 102 14 201 25 99 11 194 22 210 25 17 2 107 14 200 25 232
28 384 48 550 70 289 40 942 121 952 118 5 -1 19 2 33 5 14 4 50 9 80 11 30 2
102 11 160 20 58 9 108 16 111 16 10 0 19 42 11 54 -6 9 -79 16 -86 8z"/>
<path d="M8189 7918 c-13 -5 -32 -7 -42 -4 -11 2 -17 2 -14 0 6 -6 -122 -76
-140 -77 -7 0 -10 -3 -8 -7 3 -4 -13 -24 -35 -44 -108 -100 -151 -287 -101
-438 7 -21 10 -46 6 -57 -3 -11 -1 -22 4 -26 7 -4 8 1 4 11 -4 12 -3 15 5 10
7 -4 12 -14 12 -22 0 -8 4 -14 8 -14 13 0 40 -54 35 -70 -4 -13 -3 -13 6 0 10
14 16 7 12 -13 -1 -5 2 -6 7 -3 5 3 31 -12 59 -33 83 -62 161 -86 273 -84 117
3 152 6 165 16 6 4 21 16 34 27 13 11 28 20 33 20 9 0 71 54 113 98 93 98 122
315 60 445 -27 59 -157 207 -181 207 -8 0 -14 3 -14 8 0 7 -57 29 -100 37 -14
3 -36 8 -50 12 -40 10 -125 10 -151 1z m48 -100 c-2 -16 -1 -28 3 -28 3 0 4
-27 2 -60 -3 -40 -1 -60 7 -60 6 0 11 -10 12 -22 0 -23 1 -22 12 2 6 14 14 27
17 30 3 3 6 41 6 85 l0 80 32 3 c18 2 32 -1 32 -7 0 -6 9 -11 20 -11 19 0 25
-15 21 -49 -2 -7 2 -10 9 -6 7 4 10 16 7 26 -3 11 -2 19 2 19 16 0 70 -47 63
-55 -4 -5 -1 -5 6 -1 9 5 30 -10 62 -44 51 -54 80 -104 80 -138 0 -12 5 -24
10 -27 13 -8 13 -152 0 -160 -6 -4 -10 -12 -9 -18 1 -7 -1 -20 -6 -30 -6 -15
-10 -16 -17 -5 -7 9 -8 8 -4 -6 12 -35 -89 -156 -117 -140 -7 4 -9 4 -5 -1 10
-11 -29 -44 -61 -52 -14 -3 -30 -9 -36 -13 -5 -4 -17 -7 -25 -7 -8 0 -19 -2
-25 -3 -35 -9 -40 0 -40 69 0 74 -2 80 -31 85 -17 3 -19 -4 -22 -67 -2 -40 -5
-73 -7 -75 -14 -15 -71 -7 -122 18 -85 40 -166 126 -187 200 -32 113 -36 137
-30 177 4 26 10 40 17 36 6 -3 7 -1 3 5 -4 6 0 27 8 47 8 19 16 39 18 43 13
36 112 127 164 151 27 12 56 26 64 31 8 4 28 7 43 7 25 -2 28 -5 24 -29z"/>
<path d="M8063 7687 c-28 -13 -28 -17 -1 -53 13 -15 22 -36 20 -45 -2 -10 3
-21 9 -25 9 -5 10 -2 5 11 -5 15 -4 16 9 5 8 -7 12 -17 8 -23 -3 -5 -2 -7 3
-4 6 3 16 1 24 -4 13 -8 13 -10 0 -20 -13 -9 -13 -10 2 -6 18 6 81 -56 70 -69
-4 -4 -1 -4 6 0 7 4 15 1 18 -8 5 -13 23 -16 90 -16 45 0 107 5 136 11 45 10
50 13 30 20 -14 5 -22 17 -22 31 0 22 -4 23 -77 24 -97 1 -123 7 -148 37 -11
14 -30 30 -43 36 -13 7 -20 17 -16 24 4 7 4 9 0 5 -13 -11 -49 29 -42 47 3 9
2 13 -4 10 -5 -3 -20 1 -32 9 -17 10 -29 11 -45 3z"/>
<path d="M1503 7754 c4 -4 -3 -15 -14 -25 -18 -15 -20 -30 -22 -131 -2 -88 -5
-112 -15 -110 -8 1 -11 -2 -7 -8 3 -6 10 -8 15 -5 5 3 8 -4 7 -15 -1 -11 -7
-20 -14 -20 -7 0 -13 -7 -13 -16 0 -8 4 -12 10 -9 6 4 7 -1 3 -10 -3 -10 -1
-20 5 -24 5 -3 8 -18 5 -33 -3 -15 -9 -25 -14 -22 -5 3 -4 -7 1 -22 6 -15 10
-77 10 -138 -1 -61 2 -122 5 -136 3 -14 7 -29 8 -35 5 -21 19 -35 35 -34 15 1
15 2 0 6 -10 2 -18 8 -18 13 0 5 110 9 253 8 138 -1 270 2 292 5 22 4 46 3 54
-2 18 -12 72 4 89 26 6 9 12 39 12 66 l0 49 325 -4 c264 -3 325 -1 321 9 -3 7
-2 13 2 13 4 0 7 122 7 270 0 212 -3 269 -12 265 -7 -2 -13 3 -13 13 0 11 -3
13 -8 5 -5 -9 -74 -9 -282 -2 -151 5 -286 10 -300 10 -57 4 -70 0 -70 -23 0
-18 -2 -20 -9 -8 -6 8 -7 18 -5 22 3 4 -5 9 -18 10 -13 0 -34 2 -48 3 -14 2
-142 6 -285 10 -143 4 -264 10 -269 13 -5 3 -1 9 10 13 15 6 14 8 -10 8 -16 1
-26 -2 -23 -5z m79 -104 c-2 -11 2 -10 12 4 14 17 25 18 143 11 70 -4 139 -9
153 -10 14 -2 62 -4 107 -4 l83 -1 -6 -30 c-4 -19 -2 -30 5 -30 7 0 9 -11 6
-31 -5 -25 -2 -32 15 -36 19 -5 20 -12 19 -232 -1 -124 -4 -214 -6 -198 -3 15
-11 27 -19 27 -12 0 -12 -4 -4 -20 12 -23 14 -22 -25 -25 -85 -7 -163 -7 -173
-1 -7 4 -12 2 -12 -5 0 -9 -3 -9 -14 0 -8 7 -16 8 -18 2 -3 -8 -171 -15 -279
-12 l-37 1 0 306 0 305 27 -3 c17 -2 25 -8 23 -18z m818 -11 c47 -1 89 -5 94
-7 5 -3 31 -5 58 -5 41 1 48 -2 44 -16 -6 -15 -5 -15 7 0 18 24 175 25 176 1
0 -10 0 -60 0 -112 -1 -52 -2 -143 -2 -201 l1 -107 -293 0 -293 -1 2 191 c1
169 3 191 19 199 9 6 17 22 17 37 0 25 3 27 42 26 24 -1 81 -3 128 -5z"/>
<path d="M1641 7540 c-14 -10 -5 -35 17 -46 12 -6 82 -12 157 -13 111 -2 138
1 151 14 9 8 20 12 26 9 6 -4 5 2 -1 15 -7 11 -17 21 -24 21 -113 4 -321 4
-326 0z"/>
<path d="M1640 7415 c-23 -43 -5 -48 152 -50 147 -1 161 2 166 40 2 19 -3 20
-142 20 -79 0 -142 3 -139 8 2 4 -2 7 -10 7 -7 0 -20 -11 -27 -25z"/>
<path d="M1685 7272 c-3 -3 -5 -21 -5 -41 0 -25 3 -32 9 -22 7 11 21 12 58 7
53 -8 196 -8 218 0 7 3 16 12 19 21 5 11 2 14 -10 9 -14 -5 -15 -4 -5 8 10 11
-4 14 -91 16 -57 1 -122 3 -145 5 -23 1 -45 0 -48 -3z"/>
<path d="M2332 7490 c-12 -9 -34 -52 -24 -46 6 3 12 2 14 -3 5 -16 340 -19
346 -3 2 6 8 10 13 6 15 -9 10 6 -9 26 -16 17 -35 19 -176 22 -87 2 -161 1
-164 -2z"/>
<path d="M2335 7369 c-27 -3 -44 -7 -37 -7 6 -1 12 -13 12 -27 0 -19 5 -25 23
-26 21 0 21 -1 2 -8 -17 -7 -16 -9 11 -13 18 -2 36 1 43 9 8 9 28 11 59 8 26
-2 66 -5 90 -7 23 -1 42 -6 42 -10 0 -4 12 -8 28 -7 23 0 24 1 7 8 -16 7 -12
10 21 15 35 6 41 11 37 27 -3 12 0 19 8 20 8 1 3 4 -11 8 -14 4 -72 6 -128 4
-57 -3 -116 -1 -130 4 -15 5 -49 6 -77 2z"/>
<path d="M7435 6909 c-345 -9 -775 -20 -990 -24 -99 -2 -216 -6 -260 -9 -154
-11 -517 -14 -548 -5 -17 5 -33 5 -36 1 -4 -5 -48 -9 -100 -10 -51 0 -95 -3
-97 -5 -2 -2 -4 -523 -4 -1158 0 -1029 1 -1154 15 -1157 8 -2 13 -8 10 -13 -4
-5 0 -9 8 -9 8 0 18 7 21 16 4 9 6 520 6 1135 l0 1119 72 0 c40 -1 125 1 188
4 63 2 219 7 345 10 127 4 318 8 425 11 350 9 542 14 704 20 120 4 162 3 174
-7 9 -7 13 -8 9 -2 -8 14 65 24 173 24 57 0 71 -3 62 -12 -17 -17 -15 -35 3
-35 9 0 15 10 15 24 0 13 5 23 10 23 7 0 10 -587 10 -1742 0 -959 -4 -1738 -8
-1733 -4 6 -20 11 -37 12 -69 3 -238 18 -305 27 -19 2 -91 7 -160 10 -69 4
-154 9 -190 13 -36 4 -69 6 -74 4 -8 -2 -80 5 -261 24 -16 1 -50 6 -75 9 -25
4 -91 8 -147 11 -104 4 -128 9 -118 26 4 5 -4 9 -17 8 -13 0 -17 -3 -10 -6 25
-10 11 -23 -20 -18 -32 5 -149 14 -258 19 -59 3 -207 17 -317 29 -23 2 -23 4
-23 140 l0 138 58 -6 c31 -3 99 -8 150 -10 51 -3 128 -8 170 -11 105 -6 217
-12 277 -14 28 -1 115 -6 195 -11 80 -4 195 -11 255 -14 61 -3 147 -10 193
-15 96 -11 122 -2 122 42 0 20 -4 26 -15 22 -8 -4 -15 -1 -15 4 0 7 -33 10
-87 10 -112 0 -124 1 -98 12 18 8 17 9 -7 9 -16 1 -28 -3 -28 -9 0 -5 -25 -10
-55 -10 -30 0 -55 3 -55 8 0 4 -39 8 -87 8 -143 3 -343 12 -418 20 -38 4 -101
8 -140 9 -190 4 -206 5 -199 16 4 8 0 8 -15 0 -12 -7 -25 -9 -30 -6 -14 8
-220 9 -229 1 -4 -4 -8 -77 -10 -161 -3 -128 -6 -153 -18 -148 -8 3 -14 0 -14
-6 0 -6 7 -11 15 -11 9 0 15 -9 15 -24 0 -33 10 -57 21 -50 5 3 9 1 9 -5 0 -5
-6 -11 -12 -14 -7 -2 -10 -7 -7 -11 9 -9 40 4 33 15 -10 16 9 9 23 -9 10 -13
13 -13 11 -2 -3 13 11 15 87 12 50 -2 108 -4 130 -6 22 -2 85 -6 140 -10 55
-3 143 -10 195 -16 52 -5 124 -12 160 -15 36 -3 85 -7 110 -9 75 -6 187 -15
345 -26 83 -6 164 -13 180 -16 17 -2 84 -7 150 -10 66 -3 134 -9 150 -14 27
-8 146 -14 220 -12 23 1 26 -1 15 -8 -8 -5 -25 -10 -37 -10 -12 0 -49 -7 -82
-16 -34 -8 -66 -12 -72 -8 -6 3 -14 2 -18 -4 -3 -6 -24 -13 -46 -15 -22 -3
-67 -12 -100 -20 -152 -38 -319 -69 -345 -65 -17 3 -28 0 -27 -6 1 -6 -7 -11
-18 -12 -11 0 -38 -6 -60 -12 -78 -21 -128 -30 -141 -25 -8 3 -14 0 -14 -7 0
-6 -4 -9 -8 -6 -5 3 -29 -1 -54 -9 -40 -12 -49 -11 -67 1 -12 9 -21 11 -21 5
0 -6 5 -11 11 -11 27 0 -6 -19 -44 -25 -23 -4 -76 -15 -117 -25 -41 -10 -93
-21 -115 -24 -47 -6 -107 -19 -192 -40 -33 -9 -74 -18 -90 -20 -15 -2 -35 -6
-43 -9 -8 -3 -166 -38 -350 -78 -322 -69 -418 -81 -446 -58 -6 5 -14 6 -17 3
-3 -4 -14 -3 -24 1 -10 4 -27 9 -38 11 -51 10 -60 12 -60 13 0 2 -18 5 -40 7
-21 3 -44 9 -50 14 -7 6 -15 7 -18 4 -3 -4 -14 -3 -24 1 -10 5 -29 10 -43 12
-54 8 -316 65 -324 71 -6 3 -19 6 -30 7 -27 3 -66 10 -196 39 -58 13 -124 27
-147 31 -24 4 -43 11 -43 16 0 4 -7 6 -15 3 -8 -3 -20 -2 -27 2 -6 4 -21 8
-32 9 -52 3 -205 39 -200 46 3 5 -1 6 -9 3 -13 -5 -85 10 -607 126 -102 23
-203 43 -225 46 -22 3 -44 10 -49 15 -6 5 -33 10 -60 10 -30 1 -39 4 -21 6 17
2 84 10 150 18 66 8 156 17 200 20 44 3 98 7 120 10 39 4 265 20 412 29 40 3
75 1 78 -5 4 -5 11 -9 16 -9 6 0 7 5 4 10 -3 6 4 10 17 11 13 0 43 2 68 4 24
2 51 -1 58 -8 9 -7 16 -7 20 0 10 15 84 25 75 10 -5 -9 -3 -9 8 -1 15 12 95
23 214 30 123 7 219 14 262 19 23 4 89 8 147 10 149 6 145 3 142 130 -2 57 0
122 4 145 5 25 4 40 -3 40 -6 0 -7 16 -4 40 3 22 1 42 -4 45 -4 3 -6 13 -3 23
4 11 3 13 -3 5 -10 -14 -205 -34 -298 -30 -33 1 -96 -2 -140 -6 -82 -8 -111
-9 -415 -24 -216 -10 -245 -10 -293 -1 -20 4 -35 3 -32 -1 6 -10 -106 -20
-285 -26 -235 -9 -365 -16 -382 -21 -9 -3 -21 -17 -27 -32 -6 -17 -10 -21 -10
-9 -1 9 -6 17 -11 17 -6 0 -9 -13 -8 -30 2 -31 13 -39 21 -17 3 6 6 -19 6 -58
0 -49 -2 -65 -9 -55 -9 13 -10 13 -10 0 0 -8 14 -21 30 -28 17 -8 28 -18 24
-23 -3 -5 0 -9 5 -9 6 0 11 4 11 8 0 5 111 14 248 20 136 7 258 14 272 16 14
3 93 7 175 11 83 4 164 8 180 10 56 8 240 8 265 1 19 -6 21 -5 10 3 -11 8 -4
11 30 12 134 3 222 7 280 13 36 3 99 8 140 12 106 8 111 9 118 21 4 5 14 13
22 16 12 4 12 6 -2 6 -12 1 -15 6 -11 18 4 11 3 14 -5 9 -7 -4 -17 -4 -24 0
-13 8 -43 8 -163 -1 -44 -4 -116 -8 -160 -10 -44 -2 -120 -7 -170 -11 -49 -5
-129 -9 -177 -9 -47 0 -84 -4 -81 -8 3 -5 -45 -7 -106 -5 -61 2 -111 0 -111
-4 0 -13 -38 -9 -43 5 -4 9 -8 8 -16 -3 -9 -13 -14 -13 -32 -2 -11 8 -19 9
-15 4 3 -5 -36 -12 -92 -15 -78 -5 -98 -3 -105 9 -4 8 -13 14 -20 14 -7 0 -6
-4 3 -10 8 -5 13 -10 10 -11 -3 0 -14 -2 -25 -5 -28 -5 -152 -14 -267 -18
l-96 -4 -4 44 -3 44 95 2 c98 1 118 2 280 13 52 3 156 8 230 10 74 3 171 10
215 15 44 6 100 10 125 9 25 0 108 2 185 5 77 4 205 9 285 11 80 3 181 10 225
15 44 6 85 10 92 10 10 0 13 -30 13 -122 0 -68 -4 -129 -8 -136 -6 -8 -49 -14
-138 -18 -71 -3 -142 -10 -159 -14 -16 -5 -88 -12 -160 -15 -150 -7 -231 -12
-295 -20 -72 -9 -172 -16 -415 -30 -33 -2 -85 -6 -115 -9 -70 -7 -420 -34
-440 -35 -34 0 -158 -10 -200 -15 -25 -4 -66 -8 -93 -9 l-47 -4 0 1726 0 1726
148 -3 c114 -3 149 -7 155 -18 10 -17 28 -19 24 -1 -1 9 33 12 148 11 165 -1
849 -12 1295 -20 157 -3 328 -5 380 -4 52 1 137 -1 188 -5 l92 -7 0 -1052 0
-1053 22 -19 c12 -10 18 -13 14 -6 -5 8 0 12 14 12 16 0 20 4 16 16 -3 9 -6
496 -6 1082 0 587 -4 1073 -9 1080 -6 10 -93 14 -402 18 -217 2 -450 7 -519 9
-69 3 -350 7 -625 10 -275 4 -516 8 -535 10 -69 7 -488 7 -645 0 -88 -4 -227
-9 -310 -11 -296 -6 -285 -5 -286 -23 -1 -9 -1 -19 0 -23 0 -4 1 -556 1 -1227
l0 -1219 25 -4 c14 -3 29 0 35 7 7 8 10 415 10 1212 l0 1201 92 4 c51 3 178 6
281 7 104 1 215 3 247 5 47 2 60 0 63 -13 4 -13 5 -13 6 2 0 9 5 17 11 17 13
0 14 -3429 1 -3449 -8 -12 -13 -12 -24 -3 -8 7 -31 13 -51 14 -23 1 -36 6 -36
15 0 7 -5 13 -11 13 -5 0 -8 -3 -6 -7 3 -5 -8 -8 -25 -8 l-30 0 7 80 c4 44 9
94 11 110 3 17 7 80 9 140 3 61 8 124 11 140 3 17 7 78 10 137 5 103 4 107
-18 121 -13 8 -45 18 -73 22 -27 4 -59 9 -70 11 -11 2 -44 6 -72 10 l-53 7 20
32 20 33 -34 45 c-19 25 -31 49 -28 53 4 4 2 4 -4 1 -12 -7 -66 26 -64 39 1 5
-4 10 -11 13 -7 2 -9 -1 -5 -8 4 -6 2 -11 -3 -11 -6 0 -11 5 -11 10 0 16 -50
12 -56 -5 -4 -8 -10 -12 -15 -9 -5 3 -9 -2 -9 -10 0 -8 -9 -20 -19 -26 -11 -5
-28 -23 -37 -39 l-17 -29 -31 17 c-17 10 -39 17 -49 15 -9 -1 -17 2 -17 7 0 5
-12 9 -26 9 -14 0 -23 -4 -19 -10 3 -6 -2 -13 -12 -17 -31 -12 -82 -50 -76
-57 4 -3 1 -6 -5 -6 -6 0 -14 -16 -18 -35 -7 -40 -7 -40 -60 -22 -78 26 -97 0
-87 -118 4 -57 3 -75 -7 -75 -9 0 -10 -3 -2 -13 6 -7 14 -67 17 -133 11 -249
17 -349 20 -353 3 -2 0 -12 -5 -21 -7 -14 -27 -19 -87 -24 -43 -3 -109 -9
-148 -12 -38 -3 -83 -7 -100 -9 -72 -6 -96 -33 -59 -69 10 -11 11 -16 3 -16
-7 0 -10 -2 -7 -5 2 -3 18 1 34 9 29 15 171 33 299 38 56 2 70 0 71 -12 1 -8
3 -19 4 -25 1 -5 2 -14 1 -18 -1 -5 3 -6 9 -2 15 9 52 -4 44 -16 -3 -6 -12 -5
-22 3 -15 12 -16 11 -3 -5 10 -13 17 -15 27 -6 7 6 17 8 22 5 5 -3 27 -8 48
-12 21 -3 72 -19 113 -36 72 -28 80 -29 186 -24 103 6 163 10 260 20 22 2 68
4 102 5 68 1 93 16 93 57 0 19 4 23 23 20 12 -3 29 -5 37 -6 10 -1 9 -4 -5 -9
-17 -7 -17 -8 7 -13 17 -3 25 -1 21 5 -4 6 0 8 10 4 9 -3 39 -9 67 -13 27 -4
50 -10 50 -15 0 -4 13 -7 28 -7 15 1 50 -4 77 -11 28 -6 113 -24 190 -40 77
-17 192 -42 255 -56 63 -14 122 -26 130 -27 15 0 112 -20 180 -37 19 -5 54
-12 77 -16 24 -4 45 -11 49 -16 3 -5 10 -6 16 -3 6 4 17 -1 25 -11 8 -12 13
-14 13 -6 0 10 10 11 38 6 20 -4 42 -11 48 -16 6 -5 13 -6 16 -3 3 3 43 -5 89
-16 46 -12 92 -22 102 -21 10 0 31 -5 45 -11 15 -6 41 -12 57 -14 38 -5 255
-53 275 -61 8 -3 24 -7 35 -9 122 -20 227 -44 241 -55 6 -5 13 -7 15 -4 3 2
70 -9 149 -26 80 -17 180 -37 223 -46 42 -9 77 -20 77 -25 0 -5 -4 -7 -9 -3
-5 3 -12 1 -15 -4 -7 -11 13 -9 32 2 15 10 52 0 52 -14 0 -6 4 -7 10 -4 6 4
10 -11 11 -37 0 -24 2 -51 4 -61 2 -13 -2 -16 -13 -13 -9 2 -36 8 -59 11 -24
4 -45 11 -48 15 -3 5 -12 7 -20 3 -8 -3 -15 -1 -15 4 0 5 -8 9 -17 9 -23 1
-355 84 -368 92 -5 4 -21 8 -35 9 -27 3 -105 21 -130 30 -8 3 -24 7 -35 9 -11
1 -38 7 -60 12 -130 32 -212 54 -225 59 -8 3 -21 5 -27 4 -7 -1 -13 3 -13 9 0
6 -4 9 -9 6 -10 -6 -273 51 -371 81 -30 9 -62 15 -72 14 -9 -1 -19 3 -22 8 -4
6 -14 7 -23 4 -13 -5 -15 -2 -10 12 6 14 4 15 -5 8 -17 -14 -238 35 -256 56
-8 9 -11 10 -7 4 3 -7 3 -13 0 -13 -3 0 -133 29 -288 66 -397 92 -394 91 -474
110 -40 9 -73 20 -73 25 0 5 -11 -1 -24 -12 -20 -18 -23 -25 -14 -43 5 -13 15
-23 21 -24 26 -2 85 -14 137 -29 30 -8 69 -16 85 -19 37 -6 230 -49 306 -69
30 -8 65 -15 77 -15 12 0 22 -5 22 -11 0 -5 4 -8 10 -4 8 5 155 -27 190 -42 8
-4 22 -7 30 -8 40 -2 107 -18 119 -29 8 -6 16 -9 18 -8 5 5 86 -9 98 -16 6 -4
15 -7 20 -7 20 -1 199 -43 243 -56 18 -6 30 -14 28 -18 -3 -4 0 -13 6 -21 8
-12 9 -12 4 2 -3 10 -2 19 2 22 6 3 117 -23 152 -37 8 -3 33 -8 55 -10 22 -3
75 -15 117 -27 59 -17 76 -26 73 -38 -2 -12 5 -17 21 -18 28 -2 32 12 7 20
-10 2 2 2 27 0 75 -8 254 -56 266 -71 7 -8 13 -10 15 -4 3 7 21 6 54 -4 28 -7
76 -19 108 -26 32 -7 60 -16 63 -20 2 -5 12 -5 21 -2 12 5 15 2 10 -10 -3 -9
-2 -17 2 -17 5 0 11 5 13 12 3 8 9 8 24 0 10 -6 13 -12 7 -12 -24 0 -13 -16
13 -18 22 -2 24 0 14 13 -10 12 -7 13 22 4 30 -10 61 -17 153 -37 36 -7 150
-6 185 2 14 3 68 17 120 31 52 14 104 27 115 29 11 2 49 11 84 21 36 9 73 14
83 12 10 -3 16 -2 13 3 -3 4 8 10 23 13 15 2 61 14 103 25 41 11 88 23 105 25
16 3 44 10 62 16 40 12 44 12 60 -1 9 -8 11 -7 7 5 -5 11 4 17 37 23 24 4 47
7 52 6 4 -2 14 2 20 8 7 5 15 8 18 5 3 -3 24 1 47 9 23 9 42 15 44 15 1 0 9 2
17 5 21 6 252 58 270 60 9 1 20 5 25 8 10 6 142 37 185 43 14 2 40 9 59 14 19
6 38 8 42 5 5 -3 9 -1 9 4 0 7 213 58 280 67 8 1 22 5 30 8 8 3 56 15 105 26
50 11 167 38 260 60 191 44 233 54 255 56 9 0 20 4 25 7 6 3 28 9 50 13 22 4
51 9 65 12 30 5 40 13 17 13 -9 0 -19 11 -23 26 -4 15 -12 23 -20 20 -12 -5
-123 -27 -154 -31 -8 -1 -24 -4 -35 -8 -11 -4 -36 -8 -55 -11 -19 -2 -62 -11
-95 -20 -148 -39 -228 -56 -233 -51 -3 2 -10 1 -16 -4 -6 -5 -56 -19 -111 -31
-55 -12 -145 -32 -200 -45 -347 -83 -716 -170 -810 -192 -60 -14 -130 -30
-155 -37 -25 -7 -52 -12 -60 -11 -8 0 -17 -2 -20 -5 -3 -3 -27 -11 -55 -17
-41 -9 -51 -9 -58 3 -9 16 -27 19 -27 3 0 -5 5 -7 10 -4 6 3 10 2 10 -4 0 -10
-27 -21 -65 -28 -11 -1 -87 -21 -169 -42 -83 -22 -153 -38 -157 -35 -4 2 -10
0 -13 -5 -5 -7 -54 -19 -101 -25 -5 -1 -26 -6 -45 -13 -19 -6 -47 -14 -61 -17
-26 -6 -27 -4 -25 32 5 68 6 72 24 73 14 0 14 2 -3 8 -17 7 -14 10 20 19 47
13 79 20 120 26 17 3 54 12 83 20 29 8 56 15 60 15 4 1 21 4 37 7 17 3 44 7
60 9 17 2 30 4 30 5 0 2 21 7 85 19 67 13 67 14 209 46 119 27 151 34 214 42
20 3 37 9 37 13 0 4 10 8 23 8 12 0 39 4 59 10 26 7 40 6 49 -2 9 -8 10 -8 6
0 -4 7 4 14 21 17 15 3 77 17 137 31 61 15 124 29 140 31 17 3 39 7 50 10 69
16 104 24 130 29 17 3 62 12 100 21 173 40 190 43 203 33 7 -6 15 -8 19 -4 3
3 0 6 -8 6 -28 1 17 19 61 25 23 3 46 7 50 10 8 5 76 19 140 30 14 3 74 15
135 29 60 13 113 22 117 20 5 -3 8 0 8 6 0 6 8 10 18 9 9 -1 24 1 33 5 9 4 34
8 55 9 22 1 41 5 44 9 3 3 19 8 35 11 17 2 37 7 45 10 21 8 142 39 158 40 6 0
12 3 12 7 0 3 8 6 18 7 9 1 62 15 117 32 55 16 111 32 125 35 14 2 40 8 58 12
30 6 32 5 32 -19 0 -22 -6 -27 -32 -31 -41 -7 -98 -3 -98 6 0 3 -11 1 -24 -5
-13 -7 -22 -16 -19 -22 3 -5 0 -4 -8 3 -18 17 -30 15 -23 -3 5 -12 -2 -15 -32
-15 -59 0 -74 -3 -74 -12 0 -4 17 -8 39 -8 55 0 102 -11 95 -22 -4 -6 1 -6 13
0 28 16 58 8 58 -14 0 -12 7 -19 20 -19 14 0 19 6 17 19 -3 17 -2 18 12 7 9
-8 16 -10 16 -5 0 5 14 9 30 10 26 1 28 0 13 -12 -10 -7 -21 -10 -25 -8 -5 3
-8 0 -8 -5 0 -6 7 -11 15 -11 8 0 15 5 15 11 0 7 15 9 43 6 23 -3 36 -3 30 0
-28 11 -11 21 19 12 18 -5 45 -9 60 -9 14 0 28 -5 30 -12 3 -7 11 -9 24 -3 10
4 22 8 26 7 17 -4 70 -2 155 3 60 4 93 3 98 -4 9 -16 42 -13 49 4 4 13 2 13
-14 5 -24 -13 -30 -13 -30 0 0 6 9 10 19 10 11 0 23 5 26 11 4 6 13 8 21 5 8
-3 14 -1 14 4 0 4 28 9 63 9 84 1 97 3 97 13 0 9 -8 10 -55 10 -16 0 -38 4
-47 10 -12 5 -18 5 -18 -2 0 -5 -11 -9 -24 -8 -17 2 -22 7 -18 21 3 10 8 15
11 10 3 -4 20 -9 36 -9 68 -3 179 -16 202 -25 34 -13 133 -12 133 2 0 5 3 8 8
6 4 -3 8 6 9 20 1 17 -5 27 -18 30 -10 3 -16 9 -13 14 3 5 0 9 -5 9 -6 0 -11
-5 -11 -11 0 -8 -13 -9 -42 -5 -56 9 -96 14 -187 20 -40 3 -79 10 -86 16 -6 5
-14 8 -17 5 -2 -3 -1 19 4 48 4 28 9 59 9 67 1 8 8 45 15 82 8 38 16 94 20
125 3 32 9 59 14 61 4 2 6 11 3 21 -3 10 0 22 5 25 6 3 8 15 5 26 -3 11 1 28
8 37 8 10 9 14 2 10 -7 -5 -13 1 -15 15 -5 36 -48 49 -175 55 -64 3 -126 9
-137 13 -12 5 -15 9 -7 9 11 1 11 4 0 17 -12 15 -11 16 10 9 16 -5 26 -3 32 6
6 10 9 11 9 2 0 -7 5 -13 11 -13 5 0 7 6 3 13 -5 7 0 6 11 -3 11 -9 16 -10 11
-2 -4 7 -1 12 9 12 9 0 13 -4 10 -10 -9 -14 19 -12 33 2 9 9 12 9 12 0 0 -7 4
-12 10 -12 5 0 7 6 5 13 -3 6 9 20 27 30 20 11 28 13 22 4 -5 -7 0 -3 11 10
12 13 28 23 38 23 9 0 17 5 17 11 0 5 -6 7 -12 3 -7 -4 -4 2 6 14 11 12 25 22
32 22 8 0 19 9 26 20 7 11 19 20 28 20 8 0 -5 16 -28 37 -35 30 -40 39 -30 52
9 11 6 10 -9 -2 -20 -17 -22 -17 -31 -1 -6 11 -11 13 -16 5 -4 -6 -16 -11 -27
-11 -12 0 -17 4 -14 11 4 6 9 8 12 5 3 -3 17 6 31 19 14 13 29 22 33 19 5 -2
13 5 19 16 6 11 16 17 22 14 7 -4 8 -3 4 4 -4 6 -1 21 6 32 11 19 10 24 -12
41 -13 11 -25 26 -26 32 -1 7 -5 20 -9 29 -5 12 -1 20 11 24 11 4 29 19 42 33
13 14 27 25 30 23 18 -9 9 18 -17 48 -26 32 -34 35 -85 36 -35 1 -53 -3 -49
-9 3 -6 1 -7 -5 -3 -7 4 -12 3 -12 -2 0 -13 -42 -29 -63 -24 -18 4 -18 5 -1
24 17 18 19 18 26 1 6 -13 7 -10 3 8 -5 28 16 56 34 45 5 -4 13 -1 17 5 4 7 3
9 -4 5 -6 -3 -13 -2 -17 4 -3 6 0 12 7 15 17 7 21 72 7 108 -7 15 -22 30 -34
33 -25 6 -107 -25 -120 -45 -4 -7 -18 -16 -32 -22 -13 -5 -22 -12 -20 -16 3
-5 -1 -13 -8 -20 -9 -8 -16 -7 -29 8 -9 11 -16 23 -16 28 0 4 -11 20 -24 34
-13 14 -21 29 -17 32 3 4 2 6 -4 5 -21 -5 -36 0 -30 10 3 6 -1 7 -9 4 -9 -3
-16 -2 -16 2 0 5 -17 9 -38 10 -20 0 -32 -1 -25 -3 16 -6 -5 -42 -21 -39 -6 2
-8 1 -3 -1 4 -3 7 -11 7 -19 0 -9 -4 -13 -8 -10 -18 11 9 -95 31 -121 6 -9 6
-13 -2 -13 -16 0 7 -23 32 -33 10 -4 17 -12 15 -19 -2 -6 6 -21 19 -34 13 -13
23 -29 22 -36 0 -10 -2 -10 -6 0 -2 6 -10 9 -15 6 -6 -4 -8 -3 -5 2 3 6 2 16
-4 24 -6 10 -9 11 -9 3 0 -7 -8 -13 -17 -13 -15 0 -14 -2 3 -15 10 -8 14 -15
8 -15 -6 0 -24 11 -40 25 -16 14 -45 32 -64 41 -19 10 -37 20 -40 24 -9 13
-141 -5 -151 -21 -8 -12 -10 -12 -19 1 -8 12 -10 11 -10 -6 0 -11 6 -26 13
-33 10 -11 9 -12 -2 -6 -9 5 -12 3 -10 -4 3 -7 8 -11 13 -9 9 3 42 -52 38 -65
-1 -5 2 -6 8 -2 6 3 7 12 3 18 -4 7 0 6 10 -2 9 -7 14 -17 11 -22 -3 -5 2 -9
11 -9 9 0 14 4 10 9 -3 5 8 3 25 -5 16 -9 30 -20 30 -25 0 -6 5 -7 12 -3 7 4
8 3 4 -4 -4 -7 -14 -12 -22 -12 -8 0 -13 4 -9 9 3 5 1 13 -5 16 -6 4 -9 1 -8
-7 2 -7 -3 -12 -9 -10 -7 1 -13 -2 -13 -8 0 -5 -7 -10 -15 -10 -8 0 -24 -9
-36 -21 -11 -11 -27 -18 -37 -15 -13 5 -18 0 -20 -19 -1 -14 3 -25 9 -25 5 0
7 5 4 10 -10 15 25 12 41 -4 11 -11 11 -16 1 -19 -6 -3 2 -6 20 -6 18 -1 36
-8 41 -17 5 -8 16 -16 25 -18 22 -3 30 -12 22 -26 -5 -8 -10 -8 -20 0 -9 8
-14 5 -18 -11 -4 -16 -11 -20 -26 -16 -16 4 -23 -1 -27 -19 -3 -13 -10 -22
-14 -19 -22 13 7 -44 34 -68 27 -24 28 -27 9 -22 -16 4 -23 2 -23 -7 0 -8 15
-14 38 -16 20 -1 39 -7 40 -12 2 -6 10 -10 18 -10 8 0 14 -6 14 -14 0 -9 7
-12 19 -9 11 3 21 -2 24 -11 4 -10 13 -13 23 -9 12 4 15 3 10 -5 -10 -16 26
-16 42 0 9 9 12 9 12 -1 0 -8 12 -12 33 -11 47 3 51 1 38 -14 -9 -11 -9 -15 1
-19 7 -3 -5 -5 -27 -6 -34 0 -36 2 -17 9 12 5 22 11 22 12 0 6 -122 0 -127 -6
-4 -3 13 -6 37 -6 65 0 45 -7 -40 -14 -91 -7 -112 -11 -147 -28 -25 -12 -28
-18 -26 -58 2 -52 6 -81 15 -95 3 -6 9 -37 13 -70 4 -33 10 -69 12 -80 18 -76
20 -160 3 -150 -5 3 -10 1 -10 -4 0 -14 13 -14 28 1 9 9 12 7 12 -10 0 -17 -6
-22 -24 -22 -14 0 -27 -4 -30 -9 -3 -5 -20 -11 -38 -14 -18 -3 -67 -15 -108
-27 -41 -12 -84 -23 -95 -25 -11 -2 -47 -12 -80 -21 -33 -9 -67 -18 -75 -20
-8 -2 -40 -10 -70 -18 -30 -9 -58 -16 -63 -16 -4 0 -7 783 -7 1741 l1 1740 37
-5 c20 -3 52 -5 71 -6 23 0 32 -4 28 -13 -3 -8 0 -14 6 -14 7 0 17 -2 22 -3
26 -6 36 3 10 10 -42 11 202 1 364 -15 88 -9 137 -18 142 -27 7 -10 9 -10 9 0
0 6 9 12 21 12 l21 0 -3 -896 c-2 -766 0 -897 12 -905 21 -13 36 -11 43 6 3 8
6 430 6 938 l1 922 -27 3 c-22 3 -24 6 -13 14 10 7 9 8 -6 2 -26 -11 -279 -6
-283 5 -2 5 -12 7 -22 4 -15 -4 -283 15 -435 30 -16 2 -142 0 -280 -4z m-5427
-2635 c12 -8 20 -20 17 -25 -4 -5 -1 -9 6 -9 8 0 8 -4 -1 -15 -7 -8 -16 -13
-20 -10 -5 3 -6 -3 -4 -12 6 -25 -9 -44 -34 -46 -16 -1 -18 -4 -10 -14 8 -11
7 -12 -8 -6 -10 3 -22 11 -26 17 -3 5 -14 11 -24 12 -24 4 -48 30 -39 43 3 6
10 9 15 6 4 -3 6 3 3 13 -11 44 80 78 125 46z m-458 -193 c3 -4 25 -13 50 -20
25 -7 52 -16 60 -19 8 -3 21 -4 28 -3 6 1 12 -6 13 -16 2 -53 -1 -121 -6 -143
-5 -22 -4 -22 4 -5 8 17 10 14 10 -17 1 -20 -3 -40 -9 -43 -5 -3 -9 -18 -9
-33 1 -27 1 -27 8 3 6 25 8 27 12 10 5 -17 5 -72 0 -113 0 -8 -6 -10 -13 -6
-7 4 -4 -2 6 -14 16 -18 19 -41 22 -149 2 -71 5 -145 8 -165 3 -32 1 -38 -15
-38 -10 0 -19 5 -19 10 0 6 -9 10 -19 10 -11 0 -27 7 -35 16 -12 12 -16 12
-16 2 0 -10 -2 -10 -9 1 -5 7 -14 10 -20 7 -6 -4 -11 -3 -11 2 0 5 -18 14 -40
21 -33 10 -40 16 -41 39 -1 15 -3 52 -5 82 -1 30 -5 91 -8 135 -3 44 -9 151
-12 237 -3 87 -7 170 -8 185 -2 16 -2 31 1 35 4 8 65 -2 73 -11z m760 -43 c0
-10 -7 -18 -15 -18 -8 0 -15 -4 -15 -10 0 -5 7 -7 15 -4 12 5 15 -2 15 -32 -1
-70 -28 -369 -36 -388 -7 -18 -8 -18 -20 -1 -12 16 -13 16 -11 -3 0 -11 4 -19
8 -16 18 11 31 -28 24 -73 -4 -27 -9 -74 -11 -107 -2 -32 -4 -60 -6 -61 -2 -2
-25 -6 -52 -10 -39 -6 -47 -5 -41 5 6 9 4 11 -5 5 -13 -8 -17 -9 -165 -20
-185 -14 -185 -14 -195 6 -13 24 -9 230 4 248 8 11 8 13 -1 7 -9 -5 -13 -1
-14 11 -4 129 -3 180 6 175 6 -3 4 1 -3 10 -9 11 -14 57 -16 142 l-3 126 86 1
c47 1 163 6 256 13 94 6 176 12 183 12 6 0 12 -8 12 -18z m6560 -135 c1 -16 2
-16 16 2 14 18 14 18 10 -10 -3 -17 -8 -52 -12 -80 -4 -27 -8 -57 -10 -65 -2
-8 -6 -35 -9 -60 -3 -25 -9 -56 -12 -70 -10 -41 -12 -52 -18 -105 -9 -71 -35
-135 -54 -136 -9 0 -25 -3 -36 -5 -58 -14 -315 -3 -342 15 -9 6 -48 192 -59
280 -3 24 -10 64 -15 90 -6 25 -12 57 -15 71 -2 14 -7 38 -10 54 l-7 29 104
-7 c79 -6 107 -11 118 -24 13 -16 13 -16 8 1 -5 12 -1 17 14 17 11 0 18 -4 15
-8 -2 -4 34 -4 82 0 62 5 90 4 101 -5 12 -9 13 -9 8 0 -11 18 39 29 58 13 9
-8 15 -8 15 -2 0 9 15 17 43 21 4 0 7 -7 7 -16z"/>
<path d="M2083 3908 c1 -9 -16 -14 -58 -15 -33 -2 -75 -5 -93 -9 -29 -4 -33
-9 -30 -32 3 -27 4 -27 78 -26 222 4 262 13 239 56 -8 14 -22 18 -64 18 -30 0
-55 5 -55 10 0 6 -4 10 -10 10 -5 0 -9 -6 -7 -12z"/>
<path d="M2142 3559 c-12 -5 -25 -15 -28 -24 -8 -20 -26 -19 -57 5 -14 11 -32
20 -41 20 -8 0 -20 -9 -26 -20 -13 -25 -60 -28 -60 -4 0 10 -6 14 -14 11 -7
-3 -19 0 -26 6 -9 8 -11 9 -7 1 4 -7 0 -17 -9 -25 -17 -14 -41 -54 -26 -46 5
4 18 0 28 -7 17 -13 17 -14 -9 -9 -16 3 -27 1 -27 -6 0 -6 8 -8 18 -4 14 6 15
4 4 -9 -7 -8 -9 -23 -6 -33 4 -10 1 -20 -6 -25 -17 -10 -4 -31 15 -23 8 3 15
0 15 -6 0 -16 40 -13 46 3 7 19 61 18 68 -1 4 -11 10 -11 26 -3 11 6 20 7 21
3 0 -4 5 3 10 17 9 23 12 23 23 8 11 -15 13 -15 23 0 11 16 12 16 12 1 1 -21
47 -31 62 -13 6 8 14 12 18 10 3 -2 6 9 6 24 0 15 -3 26 -7 24 -4 -2 -9 0 -13
6 -9 14 -55 13 -55 -2 0 -25 -13 4 -15 32 -1 23 2 30 12 25 8 -3 17 -5 21 -5
3 0 -3 -6 -14 -14 -18 -14 -17 -15 13 -14 18 1 34 7 37 15 3 8 11 11 17 7 7
-4 9 -3 5 4 -3 6 -2 13 4 17 5 3 10 11 10 16 0 6 -4 8 -10 4 -5 -3 -15 5 -22
19 -11 19 -17 22 -36 15z"/>
<path d="M2700 6728 c-19 -7 -20 -17 -21 -270 0 -209 -5 -803 -8 -1022 -1 -32
-4 -37 -18 -32 -17 6 -17 5 -1 -7 15 -12 17 -46 20 -304 2 -212 6 -294 15
-305 7 -8 10 -18 6 -21 -3 -4 -1 -7 5 -7 7 0 12 -5 12 -11 0 -5 -6 -7 -12 -3
-9 5 -9 3 1 -9 15 -19 33 -14 25 7 -8 21 66 19 83 -2 8 -9 11 -11 8 -4 -4 8
-2 12 6 11 8 -1 22 1 32 6 11 4 23 3 30 -4 6 -6 27 -10 47 -10 l35 2 -35 7
c-21 5 56 9 185 10 121 2 314 5 428 7 130 3 213 1 220 -5 8 -7 18 -6 30 3 19
14 86 17 377 20 296 3 296 3 300 23 6 25 8 1800 3 1844 -4 33 -8 38 -39 44
-18 3 -32 9 -30 13 2 3 -15 5 -37 4 -68 -4 -107 -4 -432 1 -170 3 -470 8 -665
11 -195 4 -399 7 -453 8 -53 1 -106 -1 -117 -5z m138 -78 c2 -6 10 -10 18 -10
8 0 11 6 8 15 -5 13 12 14 127 10 74 -2 177 -5 230 -6 53 -1 103 -5 110 -9 7
-5 23 -4 35 0 14 6 26 5 29 -1 4 -5 11 -7 16 -3 22 13 967 -7 990 -22 10 -6
12 -1646 3 -1717 l-7 -46 -93 -3 c-52 -2 -95 1 -97 6 -2 5 -13 4 -24 -3 -25
-13 -57 -15 -49 -3 2 4 -11 12 -29 18 -24 8 -33 8 -32 0 1 -6 13 -14 27 -17
14 -4 -33 -7 -105 -8 -303 -3 -778 -12 -877 -16 -82 -4 -108 -2 -108 8 0 9 -2
9 -8 1 -4 -8 -52 -13 -129 -15 l-123 -4 1 348 c1 320 2 348 17 342 10 -4 61
-6 115 -5 62 0 97 -3 97 -10 0 -5 -2 -10 -4 -10 -2 0 -13 -3 -23 -6 -15 -5
-15 -4 -3 5 11 8 -1 11 -50 11 -46 0 -61 -3 -50 -10 12 -8 9 -10 -12 -10 -35
0 -72 -34 -55 -48 14 -12 16 -12 58 -12 17 0 28 -4 24 -10 -3 -5 -2 -10 4 -10
5 0 11 5 13 12 3 9 106 13 400 15 342 3 397 1 408 -12 9 -10 17 -12 30 -5 10
6 26 7 36 3 13 -5 15 -3 9 7 -6 10 41 12 263 7 148 -3 279 -3 291 0 15 4 21
13 21 35 0 25 -3 28 -21 23 -16 -6 -20 -4 -14 6 6 11 5 12 -6 2 -15 -15 -33
-17 -25 -4 3 5 -27 9 -66 10 -111 2 -94 11 21 11 110 0 119 5 107 54 -5 21
-11 24 -56 23 -28 0 -52 2 -54 4 -3 2 -6 71 -8 152 -2 118 -6 150 -18 157 -16
11 -152 13 -186 4 -34 -9 -42 -42 -39 -157 2 -63 -1 -105 -6 -101 -5 3 -6 10
-3 16 5 7 2 8 -5 4 -9 -6 -8 -13 6 -28 12 -15 14 -22 6 -25 -7 -2 -9 -11 -6
-19 3 -9 -1 -14 -13 -14 -18 0 -19 8 -14 122 5 114 -2 182 -19 201 -12 12
-200 16 -208 4 -3 -5 -2 -7 4 -4 6 4 3 -9 -6 -28 -9 -19 -22 -34 -28 -35 -9 0
-13 -23 -13 -81 0 -44 4 -78 9 -75 5 3 8 22 6 41 -1 20 1 38 5 40 3 2 7 -34 8
-81 2 -52 -1 -84 -8 -84 -5 0 -11 17 -11 38 l-2 37 -7 -40 c-5 -25 -7 12 -6
95 1 129 0 136 -22 158 -18 17 -34 22 -78 22 -35 0 -53 4 -51 11 1 6 -4 14
-12 17 -8 3 -11 0 -7 -6 4 -6 -7 -18 -24 -27 -16 -8 -31 -13 -31 -10 -1 3 -2
9 -3 14 0 5 -5 13 -10 18 -6 5 -6 2 -1 -6 6 -11 4 -13 -11 -8 -16 6 -17 5 -4
-5 12 -11 15 -41 13 -168 -1 -85 -4 -156 -7 -157 -3 -2 -13 -3 -21 -3 -13 0
-15 21 -14 151 1 117 -1 154 -12 164 -16 16 -136 22 -182 10 -30 -8 -47 -37
-48 -83 0 -26 -1 -26 -9 -4 -14 33 -20 27 -20 -19 0 -25 4 -38 10 -34 6 4 8
11 5 16 -4 5 -2 9 4 9 7 0 10 -40 10 -106 0 -59 -3 -104 -6 -100 -3 3 -13 1
-23 -4 -16 -8 -17 1 -14 136 2 80 6 149 9 153 2 5 -7 14 -20 21 -13 7 -22 16
-20 20 2 3 -9 5 -24 2 -16 -2 -38 1 -48 7 -11 5 -24 6 -29 2 -18 -17 -82 -20
-88 -5 -3 8 -10 14 -16 14 -6 0 -4 -7 5 -16 11 -12 13 -20 6 -27 -7 -7 -11
-68 -11 -160 0 -92 -4 -146 -10 -142 -5 3 -7 13 -4 23 5 14 4 14 -4 2 -6 -8
-9 -17 -6 -21 2 -4 -10 -12 -28 -18 -38 -13 -41 -14 -33 -2 3 5 0 13 -6 17 -7
4 -9 3 -5 -4 3 -6 2 -13 -4 -17 -6 -4 -9 181 -9 550 l1 556 42 -5 c22 -4 43
-11 44 -16z m124 -884 c5 -7 8 -7 8 2 0 7 14 12 38 12 l37 0 0 -100 0 -100
-45 1 c-34 0 -40 2 -25 9 17 7 15 9 -12 9 -17 1 -34 -5 -36 -11 -3 -7 -6 29
-6 80 -1 80 1 92 16 92 15 0 14 2 -3 15 -19 15 -19 15 1 8 11 -3 23 -11 27
-17z m356 -88 l3 -98 -56 0 c-37 0 -55 4 -56 13 -1 6 -2 52 -3 100 l-1 88 55
-3 55 -3 3 -97z m282 95 c-1 -5 -5 -27 -9 -50 -5 -24 -6 -43 -2 -43 3 0 7 -19
9 -41 2 -33 0 -40 -12 -36 -9 4 -18 2 -21 -3 -3 -5 5 -11 17 -13 13 -2 -2 -4
-32 -4 -45 -1 -49 1 -25 7 28 7 29 8 5 9 -15 0 -31 -4 -38 -11 -9 -9 -12 8
-12 80 0 77 3 92 16 92 8 0 12 5 9 10 -4 6 13 10 44 10 28 0 51 -3 51 -7z
m195 -3 c3 -5 11 -10 16 -10 6 0 8 4 5 8 -3 5 1 9 8 9 7 0 13 -5 14 -11 3 -35
11 -51 23 -51 13 0 14 -9 10 -46 0 -6 -7 -9 -14 -6 -8 3 -14 -1 -14 -9 0 -8 6
-13 13 -10 7 3 14 -8 18 -26 6 -31 -3 -54 -11 -30 -3 6 -17 12 -31 11 l-27 -1
25 -8 c21 -7 17 -8 -22 -9 l-46 -1 3 93 c1 50 3 95 4 100 2 10 19 9 26 -3z
m361 -90 c0 -55 -2 -97 -5 -92 -3 4 -28 9 -56 9 -50 1 -50 1 -10 -6 l40 -7
-45 -4 -45 -5 3 93 c3 78 6 92 20 92 15 0 15 2 2 10 -11 7 1 10 40 10 l55 0 1
-100z"/>
<path d="M3835 6613 c5 -17 2 -23 -9 -23 -8 0 -22 -12 -30 -27 -12 -23 -15
-24 -16 -9 0 24 -9 16 -15 -13 -2 -11 0 -21 6 -21 15 0 10 -38 -7 -48 -10 -5
-18 -27 -21 -53 -3 -24 -8 -57 -13 -74 -7 -24 -8 -26 -9 -7 -1 12 -5 22 -11
22 -5 0 -10 5 -10 11 0 6 7 9 14 6 10 -4 13 -1 10 8 -3 7 -12 16 -20 19 -8 3
-14 14 -14 24 0 10 -7 27 -15 38 -8 10 -15 38 -15 61 0 50 -25 73 -80 73 -32
0 -64 -12 -60 -21 3 -7 -24 -64 -37 -77 -15 -15 -17 -23 -5 -21 19 3 21 -3 8
-23 -22 -34 -27 -70 -33 -210 -4 -100 -8 -128 -19 -128 -8 0 -14 10 -13 23 0
21 1 21 9 2 6 -14 9 4 9 55 1 52 -2 70 -9 60 -7 -11 -10 6 -10 55 -1 88 -14
156 -33 169 -9 7 -11 18 -7 31 15 41 -27 85 -80 85 -45 0 -80 -29 -80 -67 0
-14 -4 -21 -10 -18 -5 3 -10 2 -10 -4 0 -5 6 -11 13 -14 8 -3 5 -14 -12 -38
-19 -26 -25 -46 -25 -96 -1 -38 -5 -61 -11 -59 -5 2 -9 10 -7 17 3 10 0 11 -8
3 -11 -11 -3 -47 9 -40 4 3 8 -11 9 -31 3 -32 1 -35 -13 -23 -9 7 -14 19 -11
26 3 7 1 16 -4 19 -4 3 -8 33 -7 68 0 34 2 50 4 35 3 -16 8 -28 13 -28 5 0 7
14 5 30 -2 17 0 30 4 30 5 0 11 11 13 24 4 21 2 23 -12 14 -25 -16 -68 27 -52
53 9 13 8 19 -4 23 -9 3 -14 14 -12 23 4 21 -49 53 -88 53 -27 0 -74 -36 -74
-57 0 -7 -5 -13 -12 -13 -9 0 -9 -3 0 -12 17 -17 15 -23 -13 -36 -14 -7 -24
-19 -24 -29 1 -16 2 -16 6 -1 2 9 11 19 20 22 11 5 13 2 8 -11 -12 -30 -34
-250 -29 -293 4 -34 2 -39 -12 -33 -11 4 -15 2 -11 -4 5 -7 -8 -14 -33 -18
-22 -4 -40 -11 -40 -16 0 -6 -4 -7 -10 -4 -6 4 -10 -8 -10 -29 0 -26 4 -34 14
-30 8 3 13 -2 13 -13 0 -39 5 -67 10 -55 2 6 9 10 14 6 5 -3 61 -5 125 -5 63
1 113 -3 110 -7 -3 -5 1 -9 9 -9 8 0 12 4 9 9 -3 4 6 8 20 8 14 0 28 -4 31
-10 3 -5 12 -10 18 -10 7 0 6 4 -3 10 -10 7 22 10 101 10 78 0 119 -4 128 -12
10 -9 12 -9 7 -1 -5 9 25 12 119 12 81 1 124 -3 120 -9 -3 -6 -1 -10 4 -10 6
0 11 5 11 10 0 6 16 10 36 10 21 0 33 -4 29 -10 -3 -5 -1 -10 4 -10 6 0 11 5
11 10 0 6 9 10 21 10 11 0 18 -4 15 -8 -2 -4 5 -9 17 -9 17 -2 19 0 7 7 -10 7
16 10 78 10 60 0 91 -4 87 -10 -3 -5 -1 -10 4 -10 6 0 11 5 11 11 0 6 29 10
78 9 207 -4 291 0 304 14 8 8 23 16 34 19 16 4 16 5 -3 6 -13 1 -23 7 -23 16
0 12 -13 15 -57 15 -70 0 -66 8 5 11 46 2 53 6 58 26 4 13 11 20 18 16 7 -4 7
-2 -1 7 -9 10 -61 14 -194 16 -100 2 -184 5 -186 8 -2 2 -5 78 -6 169 -1 91
-5 163 -9 161 -4 -2 -14 6 -22 18 -12 17 -13 25 -3 37 9 12 9 13 0 7 -7 -4
-13 -3 -13 3 0 5 5 13 10 16 12 7 14 26 2 23 -4 -2 -18 7 -32 20 -13 12 -32
22 -41 22 -10 0 -23 8 -29 18 -9 15 -10 14 -5 -5z m-851 -325 c-6 -10 -4 -10
7 -2 11 9 21 7 44 -7 17 -11 24 -19 17 -19 -7 0 -10 -5 -7 -11 4 -6 12 -8 19
-6 7 3 12 -11 14 -39 2 -39 0 -44 -20 -45 l-23 -2 23 -4 c12 -2 22 -11 22 -19
0 -11 -15 -14 -65 -14 l-64 0 2 60 c1 33 6 60 11 60 5 0 3 7 -4 15 -10 12 -10
18 0 30 15 18 34 20 24 3z m365 3 c5 -3 10 -43 12 -88 l4 -82 -67 -3 -68 -3 0
93 0 93 55 -2 c30 -1 58 -5 64 -8z m257 -20 c8 -11 11 -21 6 -21 -15 0 -8 -63
7 -68 10 -3 12 2 7 21 -3 14 -2 28 3 31 5 4 11 -22 13 -56 l3 -63 -62 5 c-39
3 -65 1 -67 -5 -7 -16 -7 151 0 169 9 23 72 14 90 -13z m232 21 c-13 -5 -15
-11 -8 -22 7 -10 10 -11 10 -2 0 6 7 12 16 12 8 0 12 5 9 10 -3 6 5 10 19 10
23 0 25 -3 25 -54 0 -29 3 -70 6 -90 7 -35 6 -36 -21 -36 -23 0 -26 2 -14 10
9 6 10 10 3 10 -6 0 -15 -4 -18 -10 -3 -5 -14 -10 -25 -10 -13 0 -17 5 -13 18
3 13 -1 19 -12 19 -11 0 -15 -6 -12 -19 3 -10 0 -18 -6 -18 -9 0 -11 27 -9 90
l3 90 32 -1 c22 0 27 -3 15 -7z"/>
<path d="M3253 5363 c6 -9 -2 -12 -25 -12 -18 0 -42 -2 -53 -5 -11 -2 -23 -5
-27 -5 -4 -1 -5 -45 -3 -98 4 -105 -2 -173 -16 -173 -5 0 -6 6 -3 13 2 7 0 24
-5 38 -9 21 -10 19 -10 -18 -1 -24 -5 -43 -10 -43 -5 0 -8 59 -7 131 1 93 -3
134 -11 141 -7 6 -11 13 -9 17 5 8 -131 6 -171 -3 -17 -4 -34 -13 -37 -21 -2
-7 -4 -69 -3 -138 l2 -124 -48 1 c-26 2 -50 -1 -53 -5 -10 -17 9 -59 27 -59
10 0 19 -4 19 -10 0 -5 -7 -10 -15 -10 -9 0 -20 -12 -25 -26 -13 -34 -13 -53
1 -34 9 12 10 11 6 -7 -4 -20 -2 -21 48 -17 31 3 56 0 60 -6 3 -5 25 -10 48
-9 36 1 38 2 17 9 -14 5 206 8 488 9 328 0 511 -3 507 -9 -4 -6 10 -10 32 -10
28 0 34 -3 23 -10 -11 -7 -6 -10 20 -9 29 0 31 2 15 9 -11 5 -15 10 -10 11 6
1 -6 5 -25 9 -28 6 -20 8 38 9 40 0 71 -3 68 -7 -2 -4 4 -9 15 -9 11 -1 17 2
14 8 -4 5 10 9 29 9 20 0 36 -4 36 -10 0 -5 5 -10 11 -10 5 0 7 5 4 10 -7 11
45 8 83 -4 24 -8 54 33 48 66 -2 17 -9 22 -25 21 -15 -2 -20 1 -15 10 6 9 4 9
-7 0 -10 -10 -122 -13 -487 -13 -421 0 -472 2 -458 15 17 17 30 20 21 5 -4 -6
8 -10 29 -10 20 0 36 5 36 10 0 6 10 10 23 9 21 0 21 -1 2 -9 -16 -7 -13 -9
18 -9 20 -1 37 3 37 7 0 4 9 8 19 8 11 0 17 -4 15 -8 -3 -4 -1 -8 5 -8 5 0 13
5 16 10 3 6 16 10 28 10 18 0 19 -2 7 -10 -11 -7 4 -10 48 -10 48 0 61 3 56
13 -6 9 -4 9 7 2 8 -6 37 -12 66 -13 42 -2 52 0 56 15 4 17 5 17 6 1 1 -16 12
-18 76 -18 41 0 75 3 75 8 0 10 112 8 128 -2 7 -4 20 -2 29 6 12 9 15 9 9 1
-5 -9 1 -13 19 -13 14 0 35 6 46 13 17 10 23 10 26 0 3 -7 9 -13 14 -13 6 0 7
5 4 10 -4 6 -3 10 2 9 4 -1 21 -1 36 0 26 1 28 4 25 34 -2 20 -9 32 -18 33 -8
1 -34 2 -57 2 -38 2 -43 5 -42 25 1 16 2 18 6 5 8 -30 20 -20 15 13 -3 22 -7
27 -13 18 -5 -9 -9 26 -9 84 0 89 -2 100 -23 121 -21 21 -32 23 -86 20 -100
-5 -121 -12 -121 -40 0 -13 -5 -24 -11 -24 -5 0 -7 6 -3 13 4 6 4 9 -1 5 -4
-4 -14 -3 -22 3 -7 6 -13 8 -14 3 -1 -5 -4 2 -8 16 -6 22 -12 25 -51 23 -25 0
-48 4 -52 10 -6 9 -8 9 -8 -1 0 -8 -11 -11 -35 -8 -19 3 -35 0 -35 -5 0 -5 -7
-9 -16 -9 -8 0 -20 -13 -25 -30 -6 -16 -16 -30 -23 -30 -6 0 -13 -11 -14 -25
-2 -31 15 -33 20 -2 2 12 6 18 9 12 9 -15 -11 -96 -22 -90 -5 4 -9 1 -9 -4 0
-6 5 -11 10 -11 6 0 10 -18 10 -41 0 -24 4 -38 10 -34 6 3 10 2 10 -3 0 -5
-12 -12 -27 -14 l-28 -4 2 125 c2 117 1 125 -20 145 -19 18 -33 21 -92 18 -39
-1 -76 -4 -84 -7 -7 -3 -19 -1 -26 5 -9 8 -12 3 -13 -17 0 -16 -1 -46 -2 -68
-2 -38 -2 -39 -10 -12 -5 16 -6 35 -4 42 3 7 1 16 -5 19 -6 4 -9 -13 -7 -48 2
-31 -1 -53 -6 -50 -5 3 -8 11 -7 17 1 7 1 33 0 59 -1 46 -2 47 -36 54 -19 3
-35 11 -35 16 0 6 -6 5 -15 -2 -12 -10 -18 -10 -32 1 -11 9 -14 10 -10 2z
m-267 -161 c10 2 22 7 25 12 15 20 29 -9 29 -62 0 -41 -3 -53 -10 -42 -8 13
-10 12 -10 -2 0 -10 -5 -18 -11 -18 -5 0 -7 -5 -3 -11 5 -8 9 -8 14 1 5 8 9 7
13 -4 5 -13 -1 -16 -34 -16 -26 0 -39 4 -38 13 1 6 1 19 0 27 -1 13 -2 13 -11
0 -8 -13 -10 -12 -11 5 -1 14 -4 10 -9 -10 -6 -24 -8 -17 -9 34 -1 50 3 67 16
77 11 8 20 9 24 2 3 -5 15 -8 25 -6z m321 9 c7 -1 13 -27 15 -74 l3 -73 -60 1
-60 0 3 75 3 76 42 -2 c23 -2 47 -3 54 -3z m193 2 c0 -5 23 -6 50 -5 l50 4 -1
-76 -1 -76 -59 1 -59 2 0 78 c0 46 4 79 10 79 6 0 10 -3 10 -7z m300 -3 c-9
-6 -10 -10 -3 -10 6 0 14 4 17 8 2 4 18 9 35 10 l31 2 0 -75 c0 -66 -2 -75
-18 -75 -10 0 -24 6 -31 13 -9 7 -11 7 -8 1 4 -7 0 -15 -8 -18 -10 -4 -19 2
-25 17 l-9 22 0 -22 c-2 -48 -16 -20 -19 35 -3 79 3 102 31 102 18 0 19 -2 7
-10z m315 -2 c6 0 16 1 23 3 10 3 14 -15 15 -74 l2 -78 -56 3 -56 3 -2 78 -2
78 33 -6 c18 -3 38 -7 43 -7z"/>
<path d="M6914 6731 c-4 -4 -303 -11 -751 -16 -139 -2 -257 -6 -263 -10 -5 -3
-10 -1 -10 5 0 8 -6 8 -20 0 -14 -8 -25 -7 -40 2 -15 10 -22 10 -32 0 -6 -6
-19 -12 -28 -12 -10 0 -11 3 -3 8 6 4 -9 8 -33 9 -24 1 -42 -2 -40 -6 3 -4
-11 -8 -30 -9 -19 -1 -39 -4 -44 -7 -5 -3 -19 -1 -31 6 -15 8 -19 8 -15 0 4
-6 3 -11 -1 -11 -5 0 -11 -17 -13 -37 -3 -28 -3 -1216 0 -1824 l0 -27 93 -2
c50 -1 184 -4 297 -5 113 -1 412 -6 666 -10 413 -6 461 -5 473 9 7 9 18 13 24
9 7 -4 8 0 2 13 -5 10 -11 444 -13 964 -2 520 -6 947 -8 949 -6 6 -174 7 -180
2z m71 -81 c-3 -5 1 -10 9 -10 9 0 16 5 16 10 0 6 5 10 10 10 6 0 10 -21 10
-47 l0 -48 -174 1 c-203 2 -196 6 -185 -111 8 -87 -7 -195 -27 -195 -8 0 -14
-4 -14 -10 0 -5 5 -10 10 -10 6 0 10 -10 9 -22 0 -22 -1 -22 -9 -3 -6 15 -9 8
-9 -27 -1 -26 -4 -49 -8 -51 -5 -3 -7 30 -5 74 2 43 7 79 12 79 5 0 7 18 5 39
-3 29 0 41 11 45 8 3 12 10 9 16 -4 6 -12 7 -18 3 -7 -4 -6 1 2 10 12 15 12
17 -2 11 -12 -4 -14 -1 -10 15 4 16 9 19 18 11 11 -9 12 -7 8 9 -3 12 -9 21
-12 21 -14 0 2 65 18 76 12 10 2 13 -51 19 -37 4 -72 4 -78 0 -14 -9 -554 -8
-632 1 -43 5 -58 3 -58 -6 0 -7 -7 -10 -15 -6 -8 3 -14 2 -14 -2 6 -40 -9 -52
-34 -28 -11 12 -13 7 -13 -36 1 -40 3 -46 12 -33 9 12 13 13 17 3 4 -8 6 -7 6
5 1 9 -6 17 -15 17 -8 0 -12 5 -9 10 3 6 13 10 21 10 20 0 19 -76 -1 -84 -8
-3 -15 -11 -15 -18 0 -9 3 -8 10 2 7 11 10 6 10 -20 0 -62 -22 -215 -32 -221
-5 -3 -10 -10 -11 -15 -1 -5 -15 -8 -32 -8 -16 1 -24 -1 -17 -3 9 -3 4 -10
-13 -19 -39 -20 -45 -18 -46 19 l-1 32 -8 -30 c-6 -25 -8 -20 -9 28 0 32 3 57
9 57 6 0 10 5 10 11 0 5 -4 7 -10 4 -11 -7 -12 10 -14 245 l-1 156 300 4 c165
3 449 5 630 4 182 0 290 2 240 6 -86 6 -83 6 53 8 93 1 141 -1 137 -8z m46
-152 c8 -65 3 -368 -5 -368 -6 0 -5 -5 2 -12 7 -7 12 -16 12 -21 0 -12 -25 14
-33 35 -4 12 -15 16 -36 13 -24 -3 -29 0 -24 13 4 9 2 14 -2 9 -8 -6 -30 33
-33 56 -1 8 -13 20 -59 57 -10 8 -27 17 -38 18 -11 2 -22 7 -25 11 -8 11 -42
22 -35 12 3 -5 1 -12 -4 -15 -14 -9 -19 15 -13 72 4 48 6 52 31 52 15 0 32 -5
39 -12 9 -9 12 -9 12 0 0 8 19 12 53 12 55 1 87 16 87 44 0 9 -8 17 -17 17
-10 1 0 5 22 9 61 11 65 11 66 -2z m-473 -222 l-3 -139 -42 -1 c-24 -1 -38 3
-33 8 5 5 5 19 -1 33 -5 14 -7 29 -3 34 3 5 0 9 -6 9 -7 0 -10 7 -6 15 3 9 0
15 -10 15 -8 0 -17 6 -20 14 -8 22 -60 39 -97 33 -22 -3 -34 -1 -35 6 0 7 -4
31 -7 54 -4 27 -2 44 6 49 24 14 169 16 187 2 12 -10 14 -10 8 0 -4 7 -1 12 8
12 9 0 16 5 16 10 0 6 8 5 20 -2 19 -12 20 -22 18 -152z m-528 133 l-25 -7 28
-1 c15 -1 27 4 27 9 0 6 18 10 40 10 l40 0 0 -115 c0 -70 -4 -115 -10 -115 -5
0 -10 -5 -10 -11 0 -5 5 -7 10 -4 6 3 10 0 10 -9 0 -8 -8 -13 -17 -12 -19 3
-55 65 -45 80 3 5 1 6 -5 3 -10 -6 -57 36 -49 44 3 2 -25 4 -60 4 -58 0 -67
-3 -84 -25 -11 -14 -21 -34 -23 -45 -2 -11 -5 -3 -6 18 0 20 2 37 7 37 4 0 6
31 5 68 l-1 68 31 -3 c26 -3 28 -1 12 6 -14 7 5 9 65 9 54 -1 76 -4 60 -9z
m-380 -369 c5 0 12 5 16 12 4 7 3 8 -4 4 -7 -4 -12 -3 -12 3 0 19 19 22 43 7
12 -9 32 -14 43 -12 12 2 26 1 33 -3 6 -4 -9 -9 -36 -10 -26 -1 -50 -6 -53
-11 -4 -6 -14 -8 -23 -4 -12 4 -17 1 -17 -10 0 -14 12 -20 33 -17 4 0 7 -9 7
-21 0 -13 3 -18 8 -12 10 16 74 16 66 1 -5 -8 -3 -8 7 1 14 13 164 18 155 4
-2 -4 4 -8 14 -8 10 0 16 4 14 8 -3 4 9 8 25 8 18 0 31 -5 32 -12 0 -10 2 -10
6 0 2 6 9 12 14 12 6 0 8 -4 5 -9 -4 -5 6 -7 21 -5 16 3 55 8 87 11 48 5 57 3
50 -8 -6 -12 -5 -12 8 -1 22 17 161 12 146 -6 -8 -10 -7 -11 8 -5 10 3 22 11
27 17 5 8 10 7 16 -3 6 -9 11 -10 15 -2 4 6 23 11 42 11 19 0 33 -3 31 -7 -3
-5 20 -6 50 -5 39 3 53 1 49 -7 -4 -6 -3 -11 3 -11 5 0 11 5 13 11 3 10 47 13
188 9 41 -1 88 1 104 5 23 6 27 5 21 -6 -7 -12 -6 -12 7 -1 22 17 67 12 61 -8
-4 -13 -3 -13 9 1 7 8 21 18 32 22 16 6 18 3 14 -28 -2 -19 0 -35 4 -35 6 0 4
-784 -2 -937 0 -10 -6 -10 -25 -1 l-25 11 20 22 c11 12 20 29 20 37 0 18 -33
33 -49 23 -5 -3 -12 -1 -16 5 -4 6 -11 7 -17 4 -8 -5 -9 9 -5 47 4 30 7 68 8
84 1 29 1 30 9 5 7 -21 8 -17 8 20 1 32 -2 39 -7 25 -6 -15 -9 -6 -12 33 -4
58 -3 63 11 30 l9 -23 0 22 c1 12 -5 25 -11 30 -13 8 -350 22 -342 14 2 -2 -1
-10 -7 -17 -12 -14 -13 -24 -30 -166 -11 -103 -13 -108 -35 -108 -30 0 -31 4
-20 158 8 110 0 124 -75 132 -30 3 -94 3 -142 0 -69 -4 -91 -9 -101 -22 -15
-21 -28 -24 -20 -5 3 8 -3 13 -16 13 -12 0 -16 -4 -10 -10 6 -6 6 -14 0 -21
-8 -9 -4 -11 13 -8 l23 5 -13 -99 c-8 -54 -14 -108 -15 -120 0 -15 -7 -23 -19
-23 -16 0 -17 11 -16 135 2 110 -1 137 -13 145 -8 5 -78 9 -157 9 -111 0 -144
-3 -154 -15 -9 -11 -15 -12 -28 -2 -13 10 -14 10 -3 -2 13 -15 18 -145 5 -137
-5 3 -8 -25 -8 -61 l0 -67 -31 -1 c-17 0 -40 -10 -52 -22 -22 -22 -30 -38 -13
-27 5 3 12 -3 16 -14 4 -13 12 -17 27 -13 15 3 19 2 14 -7 -4 -6 -11 -9 -15
-6 -5 2 -19 -4 -31 -15 -18 -16 -25 -18 -32 -8 -5 9 -8 4 -8 -14 0 -23 4 -27
28 -27 15 1 36 -1 47 -4 11 -3 90 -6 175 -7 94 -1 145 -5 130 -10 -24 -8 -23
-8 8 -9 20 -1 31 3 27 9 -9 14 58 13 73 -2 9 -9 12 -9 12 0 0 7 13 12 33 11
l32 -1 -30 -8 c-39 -10 -34 -11 47 -14 73 -2 79 3 21 14 -22 5 54 8 174 9 204
1 248 -2 238 -19 -3 -4 12 -2 33 6 21 7 47 11 58 9 10 -2 30 -4 43 -4 33 -1
22 -10 -17 -15 -18 -2 -32 1 -32 6 0 5 -5 6 -11 2 -19 -12 7 -20 61 -18 28 0
54 5 58 9 4 5 2 5 -5 1 -6 -3 -15 -2 -18 4 -9 15 145 11 164 -4 11 -8 13 -8 7
2 -4 7 -1 15 8 18 9 3 14 9 12 13 -3 4 -1 13 5 21 6 10 9 -4 9 -42 l0 -58
-130 0 c-97 0 -132 3 -136 13 -2 7 -14 13 -25 14 -14 1 -19 -3 -15 -13 5 -12
-23 -13 -197 -8 -111 3 -211 5 -222 5 -16 0 -17 2 -5 9 11 7 5 10 -21 10 -20
0 -39 -3 -43 -7 -4 -4 -27 -9 -52 -10 -33 -3 -46 1 -51 13 -4 11 -8 12 -13 4
-5 -7 -11 -6 -21 6 -8 10 -9 15 -2 11 6 -4 14 -3 18 3 4 6 -4 10 -18 10 -20 0
-24 -4 -20 -20 5 -19 0 -20 -61 -20 -66 0 -77 5 -54 28 9 9 5 12 -21 12 -29 0
-32 -2 -21 -15 10 -12 9 -16 -3 -21 -28 -10 -158 1 -167 15 -6 10 -9 10 -12 1
-2 -7 -26 -13 -56 -15 l-52 -3 2 337 c1 185 4 311 8 281 4 -33 7 -43 8 -24 1
16 8 36 15 43 10 11 10 14 0 18 -7 3 -13 20 -13 39 0 20 -4 33 -9 29 -6 -3
-10 29 -11 77 0 46 -1 90 -2 98 -3 36 6 332 9 303 2 -18 8 -33 13 -33z m1222
-752 c3 -7 3 -57 0 -110 l-4 -98 -32 0 c-17 -1 -73 -2 -125 -3 l-93 -2 7 45
c4 25 7 54 6 66 0 17 4 20 27 18 l27 -4 -30 15 c-22 11 -25 15 -10 14 11 -1
22 0 25 1 19 8 105 8 115 0 11 -9 24 -3 75 38 3 2 -4 10 -14 18 -19 14 -19 14
1 14 11 0 23 -6 25 -12z m-805 -59 c-1 -12 -5 -15 -12 -9 -8 7 -19 2 -33 -13
l-21 -22 26 -2 c16 0 21 2 13 7 -9 5 -9 9 -1 14 12 8 32 -33 24 -47 -3 -5 -5
-24 -5 -43 l0 -34 -120 0 c-111 0 -120 1 -113 18 4 9 7 28 6 42 -1 14 7 42 16
62 14 29 24 38 43 38 14 0 20 -3 14 -8 -9 -5 -8 -10 2 -19 8 -9 15 -9 19 -2 4
5 16 7 28 5 13 -4 9 0 -8 9 l-30 14 39 1 c34 0 38 -2 33 -20 -3 -11 -1 -20 4
-20 5 0 9 8 9 17 0 9 3 14 6 10 4 -3 12 0 19 7 19 19 44 16 42 -5z m186 4 c4
-3 2 -11 -3 -18 -7 -8 6 -12 50 -13 48 -1 58 2 53 13 -3 8 -9 15 -15 15 -5 0
-7 -4 -3 -9 3 -6 -6 -6 -24 -1 -16 4 -32 6 -35 2 -3 -3 -6 -1 -6 5 0 6 30 11
78 11 42 0 67 -2 54 -5 -19 -4 -20 -6 -8 -19 19 -19 47 -18 40 1 -4 8 -1 15 5
15 12 0 15 -128 3 -146 -4 -7 -41 -9 -105 -6 -90 4 -98 6 -94 23 3 11 1 22 -4
25 -10 6 -8 114 2 114 3 0 9 -3 12 -7z"/>
<path d="M6216 5920 c5 -5 20 -10 34 -13 14 -2 1 -5 -28 -6 -38 -1 -51 2 -46
11 5 7 3 8 -5 4 -7 -5 -10 -10 -7 -14 3 -3 -1 -10 -10 -16 -9 -7 -17 -34 -20
-66 -3 -30 -8 -62 -11 -70 -3 -8 -5 -22 -4 -32 1 -9 -2 -19 -8 -22 -12 -8 -12
65 0 81 11 13 7 58 -6 70 -4 4 -5 3 -1 -4 3 -6 1 -15 -6 -19 -7 -4 -10 -4 -6
1 4 4 1 22 -6 39 -7 17 -11 37 -9 44 3 6 -3 12 -12 12 -11 0 -15 -5 -11 -15 3
-8 1 -15 -4 -15 -6 0 -10 7 -10 15 0 9 -9 15 -22 14 -22 0 -22 -1 -3 -10 15
-7 10 -8 -20 -5 -22 2 -50 6 -63 9 -13 4 -20 2 -17 -4 4 -5 -3 -9 -15 -9 -12
0 -19 4 -15 9 3 6 -3 9 -14 8 -11 0 -17 -5 -15 -9 5 -7 -27 -13 -49 -9 -5 1
-6 -3 -3 -8 4 -5 2 -12 -4 -16 -5 -3 -10 -15 -10 -26 0 -11 -4 -17 -10 -14 -5
3 -10 2 -10 -4 0 -5 -3 -18 -6 -28 -5 -15 -4 -15 5 -3 8 11 10 -1 10 -50 -1
-50 -3 -58 -9 -35 -4 19 -6 3 -4 -42 3 -64 1 -73 -14 -73 -15 0 -15 -2 -2 -10
12 -7 8 -10 -15 -10 -42 0 -55 -12 -53 -43 2 -26 5 -27 58 -28 l55 -1 -50 -12
c-32 -8 -51 -18 -53 -28 -2 -10 -9 -15 -18 -11 -8 3 -14 1 -14 -4 0 -24 74
-33 278 -33 135 0 212 -4 212 -10 0 -5 15 -9 33 -9 l32 1 -30 8 c-22 5 -6 8
53 9 53 1 81 -3 77 -9 -4 -6 6 -10 22 -9 25 0 26 1 8 9 -12 5 62 8 185 8 115
0 192 -4 175 -8 -22 -6 -25 -8 -10 -10 11 -1 24 -2 29 -1 4 1 15 -4 24 -11 13
-12 14 -10 3 10 l-12 22 88 -2 c77 -1 82 -2 38 -8 -28 -4 -38 -8 -22 -8 15 -1
27 -8 27 -14 0 -10 2 -10 9 0 4 7 17 14 29 15 11 0 18 5 16 9 -3 4 2 8 11 8 9
0 13 -4 10 -10 -4 -6 6 -10 22 -9 25 0 26 1 8 9 l-20 9 20 2 c11 1 25 2 31 2
6 0 10 13 10 28 0 21 -4 29 -18 29 -10 0 -18 4 -18 8 0 4 -12 9 -27 10 -33 3
-44 12 -14 12 38 0 41 33 19 210 -2 14 -9 29 -15 33 -7 4 -13 15 -13 24 0 9
-3 13 -7 10 -3 -4 -12 -2 -19 4 -7 6 -28 12 -46 14 -46 5 -114 31 -145 55 -27
21 -59 28 -48 10 3 -5 2 -10 -3 -10 -6 0 -27 -17 -48 -37 -20 -21 -41 -37 -46
-35 -4 1 -7 -2 -5 -7 1 -4 -28 -40 -65 -80 -40 -42 -68 -82 -71 -99 -2 -15 -5
38 -6 118 -1 112 -5 150 -17 165 -8 11 -17 19 -19 18 -3 -2 -29 -3 -57 -3 -49
1 -51 2 -34 15 11 8 15 15 9 15 -7 0 -14 -4 -17 -9 -3 -5 -22 -5 -42 -1 -20 5
-33 5 -28 0z"/>
<path d="M7292 6313 c-6 -3 -9 -9 -6 -15 4 -7 -8 -9 -34 -6 -22 2 -40 1 -40
-2 0 -3 -1 -7 -2 -10 -10 -27 -19 -179 -12 -215 3 -20 12 -25 48 -31 24 -3 44
-9 44 -13 0 -4 9 -7 19 -7 11 0 17 4 15 8 -3 4 0 8 5 8 6 0 11 -6 11 -12 0 -9
3 -9 9 1 5 8 16 11 26 8 9 -4 13 -11 10 -17 -3 -5 -1 -10 5 -10 7 0 10 7 6 15
-4 12 3 15 29 15 21 0 35 -5 35 -12 0 -10 2 -10 8 -1 4 6 24 14 44 18 49 9 52
31 38 237 0 4 -10 10 -22 14 -13 4 -26 11 -29 16 -11 17 -53 18 -73 0 -16 -13
-18 -13 -9 -1 11 13 9 15 -10 14 -12 -2 -21 -8 -19 -14 1 -7 -15 -11 -45 -10
-37 1 -42 3 -23 8 23 6 23 8 5 12 -11 3 -26 4 -33 2z m179 -117 l6 -31 2 33
c2 62 19 31 17 -33 -1 -50 -4 -65 -16 -66 -12 -1 -185 0 -212 1 -5 0 -8 30 -8
66 l0 66 103 -3 102 -3 6 -30z"/>
<path d="M4568 6294 c6 -3 9 -10 6 -16 -3 -5 -7 -61 -8 -123 l-1 -114 29 -5
c16 -3 88 -6 162 -6 170 0 166 -3 160 132 -2 55 -8 104 -13 109 -5 5 -76 11
-157 14 -82 2 -158 7 -170 10 -12 3 -15 2 -8 -1z m279 -76 c-9 -6 -9 -8 0 -8
9 0 13 -17 12 -55 l-2 -55 -118 1 c-85 0 -117 4 -113 11 4 6 6 34 5 62 l-2 51
115 0 c63 0 109 -3 103 -7z"/>
<path d="M4713 5943 c3 -5 0 -12 -7 -18 -13 -12 -76 -16 -76 -5 0 4 -9 10 -20
13 -14 4 -25 -2 -36 -19 -15 -22 -14 -25 4 -49 22 -28 20 -55 -4 -55 -25 0
-17 -49 10 -60 25 -9 44 -30 27 -30 -5 0 -12 6 -14 13 -3 6 -6 2 -6 -10 -1
-14 -6 -20 -13 -18 -10 4 -13 -18 -14 -89 l-1 -94 48 2 c26 0 45 4 42 9 -6 10
5 9 28 -3 12 -7 25 -7 37 -1 11 6 24 6 36 -1 16 -9 18 -8 13 6 -4 9 -1 16 6
16 8 0 6 4 -3 10 -9 6 -10 10 -3 10 6 0 15 -5 18 -10 4 -6 10 -8 15 -5 4 3 7
-3 6 -12 -1 -13 8 -17 42 -19 23 -1 42 3 42 8 0 5 -4 6 -10 3 -5 -3 -10 -1
-10 4 0 6 8 11 19 11 12 0 20 9 23 25 5 21 2 25 -13 20 -11 -4 -19 -3 -20 2 0
4 -2 18 -5 31 -2 12 0 22 5 22 12 0 8 32 -6 47 -9 10 -8 20 3 43 9 16 20 30
25 30 5 0 9 5 9 11 0 5 -4 7 -10 4 -5 -3 -10 -1 -10 5 0 14 -25 40 -39 40 -5
0 -16 -7 -24 -15 -13 -12 -15 -12 -20 5 -5 20 -2 22 45 22 18 1 25 5 21 14 -3
8 -1 14 3 14 5 0 15 4 23 9 10 7 8 14 -10 35 -24 28 -48 33 -67 14 -13 -13
-62 -18 -62 -6 0 4 -7 8 -16 8 -8 0 -12 5 -9 10 3 6 -1 10 -10 10 -9 0 -14 -3
-12 -7z"/>
<path d="M7231 5933 c-6 -7 -8 -13 -4 -13 4 0 0 -5 -9 -11 -11 -6 -18 -22 -18
-42 0 -23 3 -28 9 -17 6 8 7 19 5 25 -3 5 2 1 10 -9 19 -23 20 -42 4 -52 -7
-5 -8 -2 -3 7 6 11 5 12 -5 2 -20 -18 -23 -76 -4 -69 8 3 14 -1 14 -9 0 -8 7
-15 16 -15 8 0 13 -4 9 -10 -3 -5 -12 -7 -21 -3 -9 3 -14 0 -12 -8 2 -8 -2
-13 -9 -12 -6 2 -11 -6 -10 -17 1 -11 5 -20 9 -20 4 0 8 -6 8 -14 0 -8 6 -17
13 -19 7 -4 3 -8 -10 -12 -20 -6 -23 -14 -22 -54 1 -25 3 -38 6 -28 4 15 7 16
20 5 20 -16 43 -19 43 -5 0 7 5 5 10 -3 8 -12 10 -10 11 10 0 14 3 19 6 12 2
-6 9 -10 14 -6 5 3 8 1 7 -4 -2 -6 2 -10 7 -10 6 0 9 5 7 12 -1 6 4 3 12 -7 8
-10 17 -18 20 -18 16 1 64 36 60 43 -3 4 2 5 10 2 9 -3 13 -10 10 -15 -3 -5 0
-9 5 -9 6 0 11 6 11 13 0 7 5 5 11 -5 6 -12 21 -16 48 -15 36 1 39 3 39 29 -1
15 -5 28 -10 28 -5 0 -13 12 -18 26 -8 21 -6 29 9 42 19 17 19 18 1 50 -11 20
-20 28 -23 20 -2 -7 -7 -10 -11 -7 -10 10 46 59 58 52 6 -3 1 5 -12 19 -12 13
-20 27 -17 30 8 7 -50 2 -63 -6 -7 -4 -12 -2 -12 3 0 6 -7 11 -15 11 -8 0 -15
-5 -15 -11 0 -5 5 -7 12 -3 7 4 8 3 4 -4 -4 -7 -14 -12 -23 -12 -9 0 -13 3 -9
7 3 4 -4 13 -16 21 -16 9 -17 12 -4 8 13 -5 17 -2 12 9 -3 8 -1 15 5 15 5 0
14 10 19 23 10 22 10 22 7 -3 -2 -23 1 -25 38 -23 22 1 51 4 65 6 14 3 28 6
32 6 4 1 2 12 -4 26 -6 14 -13 23 -16 20 -3 -2 -13 0 -24 6 -24 13 -81 2 -71
-14 4 -7 -1 -6 -10 2 -9 7 -17 11 -17 7 0 -4 -11 1 -24 9 -21 14 -28 15 -53 2
-29 -14 -80 -8 -76 9 2 14 -32 12 -46 -3z"/>
<path d="M4700 5441 c0 -5 6 -12 13 -14 6 -3 2 -6 -11 -6 -13 -1 -20 3 -17 9
3 6 1 10 -4 10 -6 0 -11 -4 -11 -10 0 -5 -5 -10 -11 -10 -5 0 -7 5 -4 10 3 6
1 10 -4 10 -6 0 -11 -4 -11 -10 0 -5 -11 -10 -24 -10 -19 0 -27 -9 -40 -40
-18 -45 -19 -53 -8 -46 4 2 6 -12 4 -32 -2 -21 -3 -46 -2 -57 0 -11 1 -61 3
-111 3 -132 4 -132 172 -136 73 -2 133 -1 132 2 -1 3 5 16 13 30 19 34 22 353
4 378 -10 13 -29 17 -88 17 -42 0 -76 3 -76 6 0 4 -7 9 -15 13 -8 3 -15 1 -15
-3z m145 -143 c-1 -27 -2 -88 -3 -138 l-2 -90 -95 0 -95 0 0 28 0 27 75 -3
c48 -1 75 2 75 9 0 5 -5 7 -12 3 -7 -5 -8 -3 -3 6 8 14 8 123 -1 155 -4 16 -3
17 5 5 9 -13 11 -13 11 3 0 23 -4 32 -12 30 -5 -2 -8 1 -8 6 0 5 15 9 33 8 31
-2 32 -3 32 -49z"/>
<path d="M7236 5429 c2 -4 0 -10 -6 -14 -5 -3 -10 -30 -10 -58 0 -29 -4 -67
-9 -84 -5 -18 -6 -35 -1 -38 10 -6 7 -186 -3 -203 -6 -8 -4 -12 5 -10 7 2 12
-3 11 -9 -2 -10 30 -13 135 -13 75 0 147 3 159 6 29 8 32 27 36 227 4 170 1
181 -46 192 -35 8 -276 11 -271 4z m241 -68 c15 -1 13 -211 -2 -211 -6 0 -5
-4 1 -8 6 -4 11 -22 10 -39 l-1 -33 -96 0 c-79 0 -98 3 -103 16 -12 31 -5 34
63 34 82 0 82 0 83 120 0 53 4 80 12 80 8 0 8 3 0 8 -6 4 -13 14 -16 23 -5 11
0 15 15 13 12 -1 27 -3 34 -3z"/>
<path d="M4590 4869 c0 -6 -6 -17 -14 -24 -19 -19 -15 -163 5 -176 8 -5 34 -9
59 -10 34 0 40 -2 25 -9 -16 -7 -11 -9 20 -9 31 0 36 2 20 9 -16 7 -13 9 18 9
20 1 37 -3 37 -9 0 -5 10 -10 23 -9 21 0 21 1 2 8 -14 6 1 10 47 13 37 2 70 7
74 10 3 4 9 41 11 81 4 67 3 76 -16 89 -12 8 -18 17 -16 20 3 3 -5 3 -18 1
-14 -3 -28 0 -31 6 -4 6 -13 11 -19 11 -7 0 -6 -4 3 -10 10 -7 -21 -9 -95 -9
-70 1 -101 4 -85 9 22 7 21 8 -12 9 -21 1 -38 -4 -38 -10z"/>
<path d="M7270 4870 c0 -5 -10 -10 -22 -10 -13 0 -28 -4 -33 -8 -17 -11 -19
-157 -2 -173 10 -11 49 -14 164 -14 83 0 149 -3 147 -7 -2 -4 1 -10 8 -14 7
-4 10 -4 6 1 -4 4 -3 14 4 22 13 16 11 148 -3 175 -5 10 -17 18 -25 18 -8 0
-12 5 -9 11 4 6 -3 5 -15 -3 -18 -10 -24 -10 -27 0 -3 6 -9 12 -14 12 -6 0 -7
-4 -4 -10 4 -6 -25 -10 -82 -9 -59 1 -80 4 -63 9 l25 8 -27 1 c-16 1 -28 -3
-28 -9z"/>
<path d="M3934 4671 c5 -8 -28 -11 -121 -12 -70 -1 -189 -3 -263 -5 -305 -9
-426 -12 -440 -13 -13 -1 -15 -34 -14 -234 0 -127 4 -240 8 -249 5 -10 19 -18
32 -18 13 0 24 -6 24 -12 0 -10 2 -10 9 0 6 11 56 15 212 18 112 2 283 7 379
10 96 4 228 7 293 7 64 -1 117 2 117 6 4 162 1 483 -4 488 -4 4 -44 8 -89 9
-45 1 -97 5 -116 9 -24 6 -32 4 -27 -4z m-13 -98 c0 -10 2 -85 3 -166 1 -111
5 -150 15 -156 7 -5 9 -11 5 -14 -5 -2 -119 -8 -254 -12 -247 -7 -400 -13
-455 -16 -16 -1 -41 -1 -55 0 -20 1 -22 3 -10 11 8 5 10 10 4 10 -7 0 -11 57
-11 169 l-2 169 62 5 c34 2 198 4 365 3 166 -1 302 2 302 7 0 16 30 6 31 -10z
m174 9 c-5 -4 -9 -32 -9 -62 2 -92 7 -99 14 -20 5 58 7 36 8 -95 l2 -170 -51
-3 -50 -3 2 181 2 180 46 0 c25 0 42 -4 36 -8z"/>
<path d="M3475 4562 c11 -4 20 -15 20 -24 0 -15 -6 -21 -17 -17 -26 8 -36 5
-31 -8 4 -10 8 -11 13 -3 5 8 9 7 13 -4 7 -17 -8 -30 -23 -21 -5 3 -10 0 -10
-8 0 -16 -64 -77 -80 -77 -6 0 -9 -4 -6 -9 3 -4 -9 -21 -26 -36 -20 -18 -27
-30 -19 -33 7 -2 23 6 36 18 15 14 25 18 30 11 10 -18 25 -13 19 7 -5 14 -4
15 5 2 11 -15 14 -10 13 25 -1 16 0 16 4 3 6 -19 34 -13 34 7 0 8 5 17 11 21
8 4 9 -1 4 -16 l-7 -23 23 22 c39 36 45 7 8 -38 -30 -38 -49 -55 -34 -31 7 12
-7 13 -21 3 -5 -5 -1 -1 8 9 22 20 23 28 4 28 -8 0 -23 -11 -34 -25 -11 -13
-21 -22 -23 -20 -3 2 -4 -7 -4 -20 2 -35 12 -41 35 -20 11 10 20 13 20 7 0 -7
11 -11 25 -10 17 2 24 7 20 16 -7 18 14 44 28 35 5 -3 7 -2 4 4 -9 14 62 95
75 87 7 -4 8 -2 4 4 -4 7 -2 12 4 12 7 0 9 7 6 16 -4 9 -1 23 5 30 9 11 9 14
0 14 -6 0 -14 -8 -18 -17 -6 -18 -38 -53 -48 -53 -11 0 -4 28 9 33 17 7 26 41
15 58 -7 11 -9 9 -9 -5 0 -15 -3 -17 -11 -9 -19 19 -6 47 26 54 29 6 28 7 -8
8 -31 1 -40 -3 -44 -19 -3 -11 -9 -17 -14 -15 -4 3 -6 12 -2 20 4 11 -2 15
-23 14 -24 -1 -25 -2 -9 -7z"/>
<path d="M5185 4666 c-11 -6 -23 -16 -28 -23 -4 -7 -14 -10 -23 -6 -11 4 -14
0 -11 -18 2 -13 2 -18 0 -11 -8 22 -19 13 -19 -15 1 -14 -5 -28 -13 -31 -8 -3
-11 0 -8 5 12 19 -32 53 -67 53 -55 0 -80 -45 -57 -102 23 -56 25 -75 9 -70
-5 1 -7 -2 -3 -8 5 -7 11 -8 19 -1 8 6 19 3 36 -10 14 -11 18 -18 10 -17 -8 2
-14 -2 -13 -9 3 -12 -1 -11 -88 18 -30 10 -40 9 -61 -5 -30 -20 -40 -58 -22
-84 15 -21 5 -45 -15 -33 -7 5 -12 11 -12 15 2 16 0 18 -13 7 -10 -8 -16 -9
-21 -1 -7 11 -86 14 -122 4 -13 -4 -23 -13 -23 -20 0 -8 -4 -14 -8 -14 -12 0
-8 -40 5 -48 6 -4 13 -13 15 -21 6 -24 44 -60 82 -76 20 -8 35 -19 35 -23 -3
-19 2 -25 11 -12 8 12 12 13 19 2 4 -8 11 -13 15 -13 18 3 20 0 6 -9 -8 -5
-23 -7 -32 -4 -11 3 -21 -3 -28 -16 -7 -13 -18 -19 -26 -16 -11 4 -14 -2 -12
-24 3 -35 18 -41 19 -7 0 21 1 21 8 2 5 -11 7 -23 4 -27 -2 -5 3 -8 11 -8 9 0
16 -4 16 -9 0 -5 11 -12 25 -15 15 -4 23 -11 19 -18 -4 -6 -1 -9 7 -6 7 2 31
-1 53 -7 27 -8 53 -9 79 -3 33 7 42 6 52 -9 12 -16 11 -19 -8 -25 -14 -4 -2
-6 32 -7 93 -2 50 -11 -58 -12 -78 -1 -105 2 -112 12 -5 9 -9 10 -9 2 0 -6
-15 -17 -34 -23 -19 -6 -40 -18 -48 -27 -7 -10 -8 -14 -1 -10 7 5 13 -8 16
-41 3 -26 10 -83 16 -127 5 -44 15 -125 21 -179 6 -55 14 -104 17 -109 3 -5
-1 -13 -8 -18 -11 -7 -9 -9 6 -10 l20 0 -20 -9 c-17 -7 -17 -9 -2 -9 9 -1 17
-6 17 -11 0 -27 114 -44 307 -44 92 0 139 4 157 13 21 12 28 12 43 0 11 -9 14
-10 9 -1 -4 7 -1 12 8 12 9 0 16 -5 16 -11 0 -6 9 -9 20 -6 16 4 20 0 20 -19
0 -15 6 -24 15 -24 18 0 20 21 3 38 -10 10 -5 11 21 6 23 -5 32 -4 28 3 -10
17 58 45 89 37 19 -5 25 -4 20 5 -4 6 -2 11 4 11 6 0 9 4 5 9 -3 6 3 14 12 20
16 9 14 10 -9 11 -16 0 -28 -4 -28 -10 0 -13 -63 -13 -76 0 -5 5 -29 11 -52
13 -36 4 -47 9 -41 20 1 1 3 22 4 47 2 25 4 45 5 45 2 0 6 32 14 115 6 60 14
107 22 134 22 67 -10 126 -68 126 -20 0 -27 4 -22 12 4 7 3 8 -5 4 -11 -7 -61
-10 -160 -7 -41 1 -43 2 -29 19 9 9 13 23 11 30 -3 6 0 12 6 12 6 0 11 -4 11
-9 0 -24 198 10 237 41 17 13 -12 72 -30 62 -7 -4 -2 3 11 15 24 24 91 56 107
52 6 -1 7 1 2 5 -4 4 0 16 10 26 26 29 25 64 -4 92 -26 26 -81 43 -107 33 -8
-3 -17 -1 -20 6 -3 9 -6 9 -13 0 -5 -6 -20 -13 -33 -15 -14 -2 -40 -12 -57
-21 -18 -10 -33 -15 -33 -11 0 4 -7 0 -17 -7 -15 -13 -15 -12 -2 9 8 12 20 20
27 17 8 -3 10 0 6 6 -4 8 1 9 15 4 11 -3 21 -2 21 3 0 5 15 17 34 27 18 10 47
40 64 68 27 43 29 53 19 81 -6 17 -16 37 -23 44 -17 17 -69 15 -84 -3 -17 -21
-41 -19 -34 3 5 14 4 14 -4 2 -6 -8 -9 -17 -6 -21 2 -4 -3 -10 -12 -13 -22 -8
-24 -8 -21 5 1 6 -4 14 -12 17 -9 3 -11 0 -6 -8 6 -9 4 -11 -5 -5 -10 6 -12 4
-7 -9 8 -19 -18 -52 -28 -37 -3 5 -1 12 5 16 6 4 8 10 5 15 -8 13 6 41 17 34
6 -4 8 -1 6 7 -3 8 0 25 7 39 7 14 15 45 18 69 5 39 2 47 -24 73 -16 17 -29
24 -29 16 0 -9 -3 -10 -8 -2 -5 9 -12 9 -27 0z m-277 -922 c13 8 43 -4 37 -15
-3 -4 5 -6 17 -3 13 3 107 6 211 8 l187 4 0 -24 c0 -17 4 -22 16 -17 14 5 15
-3 10 -73 -7 -81 -9 -99 -21 -169 -4 -22 -8 -49 -9 -60 -2 -37 -45 -48 -201
-49 -169 -1 -202 3 -209 28 -5 17 -8 18 -15 7 -11 -18 -19 5 -25 74 -2 28 -6
57 -9 65 -3 8 -5 22 -5 30 0 8 -5 51 -11 95 -11 79 -7 130 9 105 4 -7 12 -10
18 -6z"/>
<path d="M5900 4673 c-24 -10 -30 -25 -30 -75 0 -27 -4 -48 -10 -48 -5 0 -10
-5 -10 -11 0 -5 4 -8 9 -4 11 6 20 -151 9 -168 -3 -5 -8 1 -11 14 -4 23 -4 22
-6 -3 0 -16 3 -28 8 -28 15 0 25 -60 12 -73 -8 -8 -11 -4 -11 14 0 19 -2 21
-10 9 -7 -11 -4 -19 10 -32 14 -11 16 -18 8 -21 -10 -4 -10 -6 0 -6 10 -1 10
-6 2 -21 -6 -11 -16 -17 -22 -14 -7 4 -8 2 -4 -5 6 -9 11 -9 21 -1 9 8 14 6
19 -5 4 -11 2 -14 -7 -9 -8 5 -7 2 2 -9 15 -18 36 -24 26 -6 -5 7 27 9 106 5
63 -3 236 -9 384 -12 149 -4 299 -8 335 -10 36 -2 73 -4 83 -5 10 0 30 11 43
24 21 21 23 29 14 51 -5 15 -10 112 -10 215 0 139 -3 191 -12 199 -8 6 -122
13 -280 18 -148 4 -268 10 -268 14 0 5 -19 4 -42 -2 -24 -5 -68 -7 -98 -4
-103 10 -245 15 -260 9z m446 -99 c6 -8 22 -13 35 -13 24 2 24 2 2 6 -13 2
-23 8 -23 13 0 6 84 7 143 1 5 -1 5 -5 2 -11 -4 -6 6 -10 22 -10 22 0 25 2 13
10 -11 7 0 10 38 10 34 0 52 -4 53 -12 1 -7 2 -87 3 -177 l1 -163 -220 7
c-217 7 -462 20 -437 23 10 2 10 5 0 16 -9 10 -15 11 -20 2 -5 -7 -8 -7 -8 3
0 8 8 20 18 27 16 12 16 12 -3 11 -12 -1 -19 3 -17 12 1 7 3 71 3 142 l0 130
192 -7 c147 -4 195 -9 203 -20z m387 -12 c9 -2 17 2 17 8 0 5 10 10 23 10 22
0 22 -1 25 -167 2 -91 5 -170 7 -174 3 -4 -19 -9 -49 -11 l-55 -3 0 180 c-1
99 2 176 7 170 4 -5 15 -11 25 -13z"/>
<path d="M6234 4543 c4 -8 2 -13 -6 -13 -9 0 -9 -3 2 -10 12 -8 11 -10 -5 -10
-11 0 -28 -9 -38 -20 -10 -12 -23 -18 -29 -14 -6 4 -8 3 -5 -3 8 -13 -72 -85
-85 -77 -7 5 -8 2 -3 -6 5 -8 2 -18 -9 -26 -10 -7 -13 -15 -7 -18 5 -3 15 0
23 7 24 23 67 47 85 47 15 0 16 2 3 10 -13 8 -13 10 2 10 9 0 22 8 27 18 6 9
11 14 11 9 0 -4 18 12 40 34 34 36 40 38 40 20 0 -12 6 -21 15 -21 14 0 13 -3
-2 -24 -10 -13 -26 -29 -36 -36 -16 -10 -17 -9 -7 9 5 11 17 24 26 29 14 8 14
10 0 21 -9 8 -16 10 -16 5 0 -5 -14 -25 -30 -44 -28 -33 -29 -35 -10 -38 12
-2 20 -11 20 -23 0 -10 5 -19 10 -19 6 0 9 6 8 13 -2 6 3 11 10 9 8 -1 11 2 8
7 -7 10 18 34 26 25 3 -3 5 3 5 13 -1 10 4 17 11 15 8 -1 11 2 8 7 -4 5 -1 13
6 18 7 4 22 19 33 32 l20 24 -22 -7 c-15 -5 -23 -3 -23 4 0 6 -4 8 -10 5 -5
-3 -10 -1 -10 6 0 7 -6 4 -14 -6 -13 -18 -14 -18 -21 4 -5 16 -10 19 -19 12
-9 -7 -17 -7 -26 2 -10 9 -11 9 -6 0z"/>
<path d="M4518 4035 c-3 -3 -79 -8 -169 -11 -90 -3 -204 -8 -254 -10 -212 -10
-525 -22 -750 -29 -123 -3 -240 -10 -379 -21 -60 -4 -81 -2 -87 8 -7 10 -9 9
-9 -5 0 -10 -5 -15 -10 -12 -7 4 -10 -7 -8 -31 l2 -37 161 7 c226 10 311 14
555 27 118 6 269 13 335 15 316 10 362 13 393 19 21 5 32 4 32 -4 0 -7 8 -8
26 -1 14 6 54 10 89 10 48 0 64 4 69 16 3 9 11 12 18 8 7 -4 10 -4 6 1 -4 4
-3 14 2 20 7 9 6 16 -3 24 -8 6 -16 9 -19 6z"/>
<path d="M5680 4007 c0 -20 7 -40 17 -48 11 -9 14 -10 10 -2 -9 14 52 12 368
-7 94 -6 186 -10 205 -10 19 1 85 -1 145 -4 61 -4 171 -8 245 -11 74 -2 197
-7 274 -11 140 -7 156 -4 156 31 0 33 -19 38 -147 42 -126 4 -220 7 -438 17
-60 3 -171 8 -245 11 -74 3 -175 7 -225 10 -49 3 -152 7 -227 11 l-138 6 0
-35z"/>
<path d="M7143 3827 c-4 -6 -1 -7 8 -2 12 7 12 6 1 -7 -24 -29 -30 -102 -16
-192 4 -27 3 -36 -5 -32 -6 4 -11 1 -11 -7 0 -8 8 -14 18 -13 9 0 16 -4 15
-10 -1 -8 6 -10 19 -6 14 3 19 1 14 -6 -4 -7 -2 -12 3 -12 6 0 11 5 11 10 0 6
34 10 81 10 44 0 78 -4 75 -8 -11 -18 41 -6 64 16 24 21 25 28 25 132 0 81 -3
110 -12 110 -7 0 -13 6 -13 14 0 9 -9 14 -20 13 -11 -1 -20 -4 -20 -8 0 -4
-21 -5 -47 -3 -136 11 -184 11 -190 1z m215 -63 c21 -6 23 -11 20 -68 -3 -71
-7 -73 -114 -61 l-61 6 0 65 1 64 65 0 c36 0 76 -3 89 -6z"/>
<path d="M5640 3725 c0 -56 16 -74 62 -68 26 4 38 2 38 -6 0 -7 -5 -9 -12 -5
-7 4 -8 3 -4 -4 5 -9 13 -8 29 1 23 14 32 15 167 4 47 -4 143 -9 215 -12 71
-3 134 -10 139 -15 4 -4 18 -5 30 -1 11 5 30 7 40 5 11 -1 69 -5 130 -8 61 -3
138 -8 171 -11 33 -3 110 -7 170 -9 61 -2 129 -7 151 -11 53 -9 84 6 84 42 0
14 -3 23 -7 19 -4 -3 -13 4 -20 16 -7 14 -12 17 -13 9 0 -11 -4 -9 -15 5 -9
11 -13 13 -10 4 5 -13 -7 -15 -67 -15 -187 1 -279 6 -274 14 4 5 -32 9 -82 9
-48 0 -125 2 -172 5 -47 2 -148 7 -225 11 -77 3 -168 8 -201 11 -129 11 -231
18 -270 19 -29 0 -40 5 -37 13 3 7 0 13 -6 13 -6 0 -11 -16 -11 -35z"/>
</g>
</svg>
