<?xml version="1.0" standalone="no"?>
<!DOCTYPE svg PUBLIC "-//W3C//DTD SVG 20010904//EN"
 "http://www.w3.org/TR/2001/REC-SVG-20010904/DTD/svg10.dtd">
<svg version="1.0" xmlns="http://www.w3.org/2000/svg"
 width="1024.000000pt" height="1024.000000pt" viewBox="0 0 1024.000000 1024.000000"
 preserveAspectRatio="xMidYMid meet">
<metadata>
Created by potrace 1.16, written by Peter Selinger 2001-2019
</metadata>
<g transform="translate(0.000000,1024.000000) scale(0.100000,-0.100000)"
fill="#000000" stroke="none">
<path d="M7800 8429 c-36 -18 -81 -50 -101 -71 -20 -21 -44 -38 -55 -38 -16 0
-17 -2 -4 -11 11 -8 12 -12 3 -16 -7 -2 -13 -11 -13 -19 0 -8 -3 -14 -7 -14
-16 1 -54 40 -49 49 3 5 -7 9 -22 9 -15 0 -52 3 -82 7 -110 14 -218 -52 -300
-182 -40 -62 -91 -177 -106 -236 -5 -24 -10 -27 -28 -22 -11 4 -49 9 -83 12
-181 15 -340 -164 -556 -622 -41 -88 -87 -189 -102 -225 -51 -123 -182 -387
-250 -506 -97 -169 -192 -313 -337 -510 -147 -199 -194 -270 -275 -416 -33
-60 -62 -105 -65 -102 -3 3 -5 -1 -4 -8 0 -7 -23 -72 -53 -144 l-54 -131 -30
15 c-28 14 -29 16 -11 23 16 7 15 8 -7 6 -23 -2 -275 116 -290 136 -3 5 -9 8
-13 6 -15 -5 -165 75 -159 84 3 6 1 7 -6 3 -7 -4 -85 25 -179 67 -92 41 -186
81 -209 88 -24 6 -43 15 -43 19 0 4 -6 7 -12 7 -7 -1 -47 5 -88 12 -92 17
-219 10 -311 -17 -97 -29 -248 -86 -584 -222 -497 -202 -609 -234 -805 -234
-90 0 -141 6 -233 28 -119 27 -515 157 -721 236 -97 36 -112 40 -138 29 -49
-20 -65 -82 -30 -117 20 -20 128 -64 352 -142 80 -28 150 -52 155 -54 6 -2 15
-5 20 -6 6 -2 35 -11 65 -22 382 -133 634 -142 947 -34 107 37 359 135 438
170 28 13 75 32 105 44 403 158 485 186 595 198 81 9 286 -41 270 -65 -3 -5 4
-7 14 -4 17 4 107 -34 414 -175 156 -72 322 -160 320 -170 -2 -6 3 -9 10 -6 7
2 30 -7 51 -21 20 -14 40 -25 45 -25 4 0 18 -10 31 -22 14 -13 26 -22 27 -20
8 7 83 -53 83 -67 0 -12 2 -13 8 -3 6 9 20 1 52 -28 24 -22 47 -40 51 -40 4 0
50 -43 104 -95 62 -61 94 -99 89 -107 -4 -7 -4 -10 1 -6 9 9 65 -49 113 -115
20 -28 28 -48 22 -52 -15 -9 -42 15 -36 32 4 8 0 13 -8 11 -8 -2 -23 5 -33 15
-10 9 -49 41 -87 70 -38 28 -80 62 -93 75 -13 12 -29 22 -35 22 -6 0 -8 9 -5
21 4 16 3 18 -8 9 -11 -9 -28 -2 -77 31 -35 23 -66 47 -69 52 -3 5 -8 7 -10 6
-9 -7 -67 35 -62 44 3 6 1 7 -5 3 -16 -10 -224 96 -209 107 7 5 3 6 -10 2 -12
-3 -35 0 -50 8 -91 47 -481 173 -575 186 -56 7 -60 6 -79 -17 -23 -29 -25 -84
-4 -102 8 -6 14 -15 13 -18 -2 -21 4 -32 19 -32 15 0 14 2 -3 15 -26 20 -21
19 108 -14 273 -71 610 -209 768 -316 29 -19 54 -35 57 -35 17 0 237 -164 303
-226 19 -18 62 -57 95 -86 90 -80 250 -237 301 -295 38 -44 43 -56 34 -72 -7
-14 -7 -22 0 -26 6 -4 10 -3 9 2 -1 4 -1 15 0 23 2 20 51 -39 51 -62 0 -9 4
-19 8 -22 22 -13 -2 -85 -29 -89 -8 -2 -18 -5 -24 -9 -5 -3 -23 -6 -38 -6 -27
0 -108 68 -244 204 -21 22 -61 58 -88 81 -28 23 -66 56 -85 73 -19 17 -53 44
-75 59 -22 15 -88 61 -146 102 -58 41 -149 98 -202 128 -53 30 -94 58 -91 63
3 4 -1 5 -8 3 -8 -3 -42 9 -78 26 -196 95 -377 157 -667 229 -115 28 -133 27
-161 -13 -49 -73 -17 -109 119 -137 232 -47 479 -134 699 -246 99 -50 110 -57
98 -72 -11 -15 -11 -15 3 -5 13 11 22 10 48 -3 17 -8 29 -20 26 -25 -4 -5 0
-6 8 -3 8 3 21 -2 30 -10 9 -9 18 -16 22 -16 12 0 145 -95 145 -103 0 -5 -13
1 -28 12 -22 16 -29 17 -29 5 0 -7 2 -12 5 -9 3 2 14 -1 26 -7 11 -7 28 -12
37 -13 18 -2 50 -25 122 -90 12 -11 48 -42 80 -68 33 -28 57 -57 57 -68 0 -10
5 -19 11 -19 5 0 7 5 4 10 -3 5 -3 10 1 10 13 0 284 -274 284 -287 0 -7 4 -13
10 -13 12 0 32 -73 25 -92 -10 -24 -61 -48 -106 -48 -62 0 -170 57 -249 130
-36 34 -106 91 -157 127 -51 37 -89 71 -86 76 3 6 1 7 -5 3 -6 -4 -51 20 -99
52 -107 72 -424 231 -588 295 -66 26 -124 47 -128 47 -4 0 -24 7 -45 16 -20
10 -41 18 -47 18 -51 8 -175 41 -175 47 0 5 -6 6 -14 3 -8 -3 -17 0 -21 5 -3
6 -10 9 -15 6 -5 -3 -53 3 -107 14 -149 31 -245 40 -268 28 -11 -6 -23 -10
-27 -9 -5 1 -7 -1 -6 -6 4 -14 -13 -52 -23 -52 -6 0 -7 5 -4 10 3 6 1 10 -5
10 -7 0 -9 -7 -6 -16 3 -9 6 -18 6 -20 0 -3 4 -3 9 1 5 3 12 -4 16 -15 10 -32
41 -42 215 -72 180 -30 329 -65 344 -79 9 -8 -6 -14 -27 -10 -5 1 -5 -3 -2 -9
5 -8 14 -6 30 4 22 15 32 13 141 -25 208 -71 558 -240 585 -281 3 -5 8 -8 11
-6 2 1 42 -22 88 -52 46 -30 91 -59 99 -65 92 -58 201 -154 201 -176 0 -6 -11
-21 -25 -34 -21 -22 -33 -25 -97 -25 -50 0 -103 9 -163 26 -96 27 -325 122
-337 139 -4 5 -8 6 -8 2 0 -4 -10 -2 -22 5 -13 6 -27 13 -33 14 -5 1 -59 20
-118 43 -124 47 -307 102 -417 127 -41 9 -79 19 -84 22 -5 2 -23 6 -40 7 -17
2 -71 8 -121 14 -181 22 -330 11 -600 -46 -115 -24 -152 -27 -325 -27 -181 -1
-203 1 -307 28 -62 15 -115 32 -119 37 -3 5 -15 9 -27 9 -12 0 -83 31 -157 69
-349 176 -468 240 -462 246 3 3 0 3 -9 0 -8 -3 -35 1 -59 10 -82 29 -449 105
-507 105 -66 0 -97 -92 -43 -131 14 -10 75 -27 145 -39 318 -56 468 -107 693
-237 455 -261 753 -312 1252 -212 118 24 193 32 313 36 156 6 331 -9 343 -29
3 -4 9 -6 13 -3 11 6 213 -44 229 -57 7 -6 15 -8 18 -5 5 5 176 -52 251 -84
l32 -14 -102 -152 c-56 -84 -107 -151 -113 -149 -7 3 -10 -3 -8 -12 5 -20
-519 -788 -535 -785 -5 2 -8 -3 -5 -10 6 -17 -150 -239 -161 -229 -5 4 -5 2
-2 -4 3 -6 -34 -69 -83 -140 -101 -146 -107 -168 -58 -209 36 -30 69 -28 104
8 24 24 170 236 515 742 124 182 261 384 306 450 45 66 119 175 165 243 45 67
88 120 94 118 7 -3 10 3 7 15 -3 11 1 21 11 25 9 3 14 10 11 14 -3 5 0 12 6
16 7 4 9 3 5 -4 -4 -6 1 -10 11 -10 10 1 44 -11 75 -25 31 -15 62 -27 67 -27
6 0 11 -5 11 -12 0 -6 3 -9 6 -6 3 4 40 -7 82 -22 145 -53 328 -58 419 -12 23
12 54 38 71 57 l29 36 35 -21 c20 -11 68 -27 107 -36 62 -12 91 -13 171 -1 38
6 113 62 141 105 24 38 29 57 29 106 0 35 -7 73 -15 90 -19 36 -20 33 16 41
42 9 117 83 125 123 4 17 9 30 13 28 4 -3 6 21 5 52 -2 96 -63 210 -174 327
-39 40 -49 59 -55 98 -9 64 -47 174 -87 249 -76 147 -254 349 -421 481 -45 35
-62 54 -54 60 8 6 6 7 -5 3 -9 -3 -26 3 -37 12 -20 17 -20 18 18 117 88 231
215 443 473 788 200 267 328 495 538 957 187 411 256 537 358 658 53 63 76 80
122 87 49 8 67 -20 46 -70 -8 -19 -13 -35 -11 -35 17 0 -293 -819 -404 -1065
-38 -85 -39 -90 -23 -108 27 -30 65 -46 95 -40 23 5 35 19 66 82 42 84 132
302 211 511 28 74 58 151 67 170 9 19 16 39 15 43 -1 4 5 10 14 14 9 3 11 9 6
12 -7 5 68 229 115 341 3 8 7 22 9 30 2 8 31 89 64 180 87 235 137 320 208
358 50 25 112 8 112 -32 0 -8 5 -18 11 -22 17 -10 5 -92 -36 -244 -43 -158
-169 -561 -185 -590 -6 -11 -8 -20 -4 -20 3 0 1 -7 -6 -15 -7 -8 -10 -15 -6
-15 5 0 -32 -107 -65 -185 -6 -16 -13 -37 -15 -46 -2 -9 -12 -37 -23 -63 -11
-25 -21 -48 -21 -51 -2 -19 -98 -211 -144 -288 -63 -104 -66 -130 -19 -167 68
-53 107 -16 216 202 115 231 184 417 348 938 17 52 33 102 36 110 3 8 7 22 8
30 1 8 27 101 57 205 74 255 115 332 199 375 73 38 123 20 155 -56 13 -30 15
-56 10 -119 -23 -269 -192 -872 -348 -1240 -63 -148 -98 -215 -185 -357 -68
-110 -83 -147 -73 -174 20 -53 94 -71 130 -32 34 37 135 215 214 378 117 243
234 575 322 915 19 77 41 143 47 147 7 4 9 8 4 8 -4 0 0 17 8 38 42 99 114
163 188 164 34 0 46 -5 70 -32 23 -26 26 -34 16 -46 -10 -12 -10 -15 2 -12 34
7 10 -183 -66 -522 -41 -187 -73 -318 -82 -340 -3 -8 -7 -23 -8 -33 -1 -9 -17
-74 -36 -143 -28 -107 -36 -124 -51 -121 -10 3 -18 1 -18 -4 0 -5 7 -9 15 -9
8 0 15 -1 15 -3 0 -19 -134 -386 -169 -462 -10 -22 -22 -51 -26 -65 -15 -50
-129 -288 -181 -377 -65 -111 -173 -225 -263 -277 -35 -20 -158 -77 -275 -127
-237 -101 -299 -133 -438 -226 -95 -63 -227 -182 -262 -235 -22 -34 -14 -77
19 -108 31 -29 89 -23 113 12 42 61 157 167 243 224 106 70 174 104 402 196
84 33 181 75 217 93 100 51 220 146 322 255 50 54 96 96 101 93 6 -3 7 -1 3 5
-11 17 207 276 226 269 3 -1 10 2 15 7 5 5 3 6 -4 2 -31 -17 -6 14 99 126 169
181 251 239 332 234 97 -5 99 -59 6 -184 -79 -106 -168 -242 -214 -325 -22
-39 -42 -64 -48 -60 -7 3 -8 1 -4 -5 8 -14 -227 -486 -237 -475 -5 4 -5 0 -2
-8 8 -21 -71 -171 -160 -304 -167 -250 -345 -399 -780 -655 -49 -29 -125 -77
-168 -106 -43 -30 -83 -51 -88 -48 -5 3 -8 1 -7 -5 2 -6 -20 -29 -49 -53 -93
-78 -189 -200 -291 -370 -50 -82 -203 -382 -273 -534 -80 -174 -179 -395 -179
-399 0 -2 -18 -41 -39 -87 -56 -119 -275 -616 -346 -787 -31 -74 -27 -104 15
-126 38 -20 73 -19 92 3 9 9 43 80 76 157 33 77 84 192 112 255 29 63 73 162
97 220 139 324 426 935 523 1111 145 266 234 380 382 493 89 68 345 217 362
210 12 -5 15 -2 9 12 -5 14 -3 16 11 11 9 -4 15 -3 12 2 -3 4 29 30 72 56 249
157 451 346 588 552 47 71 143 246 240 438 220 437 231 456 439 768 61 90 79
146 73 221 -6 74 -44 128 -114 162 -110 54 -253 15 -386 -103 -32 -29 -64 -50
-70 -47 -6 4 -8 3 -5 -3 4 -6 -10 -26 -31 -45 -20 -18 -45 -46 -55 -61 -11
-16 -23 -25 -30 -21 -7 4 -9 4 -5 -1 6 -7 -49 -95 -59 -95 -3 0 4 17 15 38 21
41 146 365 169 440 39 126 84 290 112 407 18 72 35 137 38 145 3 8 6 18 5 22
-1 4 14 71 32 150 19 79 38 164 41 191 4 26 12 47 17 47 5 0 7 4 4 9 -3 4 1
44 10 87 8 44 16 124 16 179 2 116 -14 168 -69 226 -18 19 -30 39 -26 43 4 4
0 4 -10 0 -9 -3 -17 -2 -17 4 0 18 -118 36 -173 25 -76 -15 -80 -16 -99 -37
-17 -18 -18 -14 -17 80 0 54 -4 111 -10 127 -6 15 -8 27 -6 27 8 0 -26 52 -54
83 -41 46 -98 70 -176 74 -63 4 -76 2 -135 -28z"/>
</g>
</svg>
