<?xml version="1.0" standalone="no"?>
<!DOCTYPE svg PUBLIC "-//W3C//DTD SVG 20010904//EN"
 "http://www.w3.org/TR/2001/REC-SVG-20010904/DTD/svg10.dtd">
<svg version="1.0" xmlns="http://www.w3.org/2000/svg"
 width="1024.000000pt" height="1024.000000pt" viewBox="0 0 1024.000000 1024.000000"
 preserveAspectRatio="xMidYMid meet">
<metadata>
Created by potrace 1.16, written by Peter Selinger 2001-2019
</metadata>
<g transform="translate(0.000000,1024.000000) scale(0.100000,-0.100000)"
fill="#000000" stroke="none">
<path d="M6402 8168 c-8 -8 -12 -53 -12 -149 0 -112 3 -141 16 -153 8 -9 21
-16 28 -16 31 0 37 27 34 176 l-3 149 -25 3 c-14 2 -31 -3 -38 -10z"/>
<path d="M5826 7904 c-9 -8 -16 -23 -16 -31 0 -9 47 -64 104 -121 l104 -106
26 17 c14 10 26 25 26 35 0 19 -198 222 -217 222 -6 0 -19 -7 -27 -16z"/>
<path d="M6897 7822 c-53 -53 -97 -102 -97 -108 0 -15 33 -44 50 -44 17 0 210
190 210 206 0 18 -29 44 -48 44 -10 0 -61 -44 -115 -98z"/>
<path d="M6315 7727 c-121 -41 -224 -129 -272 -234 -57 -123 -37 -281 50 -399
49 -66 86 -98 167 -140 51 -27 63 -29 166 -29 107 0 112 1 185 37 93 46 158
112 202 206 29 60 32 76 31 157 0 68 -6 103 -22 145 -45 113 -131 198 -242
241 -69 27 -207 35 -265 16z m177 -88 c210 -45 320 -258 228 -445 -36 -73 -91
-127 -167 -161 -48 -22 -65 -25 -137 -21 -91 5 -141 26 -207 85 -160 145 -126
412 63 509 83 42 138 50 220 33z"/>
<path d="M6954 7335 c-12 -50 -4 -54 128 -57 163 -4 192 0 196 30 7 47 -9 52
-169 52 l-149 0 -6 -25z"/>
<path d="M5601 7331 c-14 -26 -5 -48 22 -55 12 -3 77 -6 143 -6 131 0 149 6
142 52 -3 23 -5 23 -150 26 -137 2 -148 1 -157 -17z"/>
<path d="M5914 6878 c-100 -97 -111 -116 -94 -148 21 -40 51 -24 153 80 95 98
109 124 85 148 -25 25 -53 10 -144 -80z"/>
<path d="M6808 6945 c-13 -28 -16 -23 107 -153 72 -76 88 -86 115 -72 38 20
23 52 -74 153 -100 104 -127 117 -148 72z"/>
<path d="M6402 6798 c-8 -8 -12 -59 -12 -165 l0 -153 25 -6 c53 -13 55 -8 55
165 0 136 -2 160 -16 165 -24 9 -39 7 -52 -6z"/>
<path d="M3711 6722 c-8 -15 -4 -43 15 -112 14 -51 24 -93 22 -94 -2 -1 -41
-13 -88 -25 -190 -51 -384 -144 -553 -263 -121 -86 -304 -265 -387 -378 -119
-164 -219 -410 -223 -548 -2 -56 1 -66 22 -83 33 -27 55 -24 130 19 88 50 231
115 310 141 154 50 342 65 454 36 84 -22 97 -19 158 26 80 60 171 109 283 151
55 21 100 37 101 35 1 -1 15 -60 33 -132 94 -388 370 -1487 379 -1511 2 -7
-18 -14 -54 -18 -372 -43 -845 -231 -1048 -417 -38 -35 -44 -37 -135 -43 -228
-17 -421 -65 -585 -146 -139 -70 -197 -114 -193 -147 2 -14 12 -32 23 -39 19
-12 28 -9 90 33 205 137 446 204 741 204 305 0 562 -64 837 -209 94 -49 118
-50 125 -3 5 31 -10 46 -102 96 -176 96 -380 162 -596 193 l-124 17 84 54
c189 121 468 233 715 285 183 38 282 47 502 47 191 0 203 1 213 19 13 24 0 54
-27 65 -10 4 -97 9 -193 12 l-175 4 -207 822 c-114 452 -207 825 -207 828 -2
18 124 32 312 36 l208 4 52 40 c84 64 239 135 361 165 89 21 143 28 290 33
l181 6 3 32 c7 74 -162 264 -328 367 -201 126 -450 208 -715 237 -134 14 -415
6 -500 -15 -45 -11 -61 -12 -65 -3 -2 7 -18 53 -35 102 -29 86 -31 90 -62 93
-23 2 -34 -2 -42 -16z m819 -272 c302 -53 556 -177 736 -359 l75 -76 -138 -6
c-219 -10 -426 -70 -567 -164 -31 -20 -58 -36 -60 -34 -1 2 -10 24 -20 49 -46
121 -187 324 -288 415 -65 59 -181 136 -242 161 -25 11 -46 22 -46 26 0 25
387 17 550 -12z m-649 -49 c172 -59 357 -205 468 -368 43 -64 131 -234 131
-253 0 -6 -47 -10 -129 -10 -154 0 -248 -12 -398 -50 -131 -34 -270 -94 -370
-160 l-72 -47 -12 70 c-17 102 -6 302 21 402 53 197 209 435 284 435 13 0 47
-8 77 -19z m-330 -106 c-59 -90 -104 -195 -133 -312 -18 -72 -22 -118 -23
-248 0 -88 3 -174 7 -191 l7 -31 -127 5 c-196 7 -358 -35 -585 -150 -54 -28
-100 -48 -102 -46 -7 7 33 141 65 217 141 342 498 673 880 816 60 23 61 17 11
-60z"/>
<path d="M5265 5049 c-55 -5 -174 -15 -265 -24 -426 -39 -423 -38 -468 -88
-53 -57 -37 -129 69 -312 84 -147 283 -452 381 -586 19 -25 19 -26 -11 -85
-45 -89 -143 -325 -195 -468 -50 -138 -52 -172 -10 -182 35 -9 49 8 80 93 24
67 32 77 63 90 72 29 178 86 259 139 l83 54 79 -83 c124 -132 65 -114 955
-283 159 -31 291 -56 292 -57 1 -2 33 -57 72 -122 66 -116 70 -120 103 -120
50 0 50 37 -3 125 -23 39 -45 73 -50 76 -5 3 -9 11 -9 17 0 9 36 11 137 9 169
-4 311 10 557 54 105 18 190 33 191 31 1 -1 30 -55 65 -120 62 -114 65 -118
94 -115 49 5 46 40 -15 152 -28 53 -50 98 -48 99 2 2 21 10 42 20 59 27 79 68
74 153 -6 112 -47 162 -153 184 -38 8 -860 140 -871 140 -2 0 -3 6 -3 13 0 31
-23 89 -47 117 -40 48 -91 69 -200 80 -54 6 -142 18 -197 26 l-99 14 -62 68
c-138 149 -327 384 -382 477 -17 28 -63 113 -102 190 -83 162 -115 200 -185
220 -54 16 -70 16 -221 4z m217 -96 c22 -14 49 -57 109 -176 44 -88 79 -161
76 -163 -3 -4 -205 -29 -505 -64 -57 -7 -104 -11 -106 -9 -24 26 -230 368
-225 373 2 2 105 13 229 25 124 11 239 23 255 24 81 10 138 6 167 -10z m-667
-200 c142 -247 373 -586 544 -801 170 -212 231 -264 356 -296 120 -30 833
-169 960 -186 115 -15 372 -13 511 5 141 18 475 75 488 82 28 18 36 -85 8
-110 -11 -11 -89 -28 -222 -51 -344 -59 -435 -70 -600 -70 -164 1 -169 1 -575
79 -126 25 -340 65 -474 89 -288 53 -320 66 -413 164 -177 188 -648 866 -772
1110 -28 55 -34 106 -13 119 10 6 63 17 102 22 6 0 51 -70 100 -156z m940
-250 c26 -40 236 -300 284 -352 23 -24 41 -44 41 -45 0 -2 -24 1 -52 5 -29 4
-91 8 -138 8 -101 1 -161 -23 -198 -78 -38 -57 -40 -99 -8 -171 4 -11 -2 -19
-24 -27 -39 -15 -31 -40 19 -52 49 -13 299 -61 392 -77 138 -23 339 -34 456
-26 106 8 115 10 152 40 l39 32 294 -45 c161 -25 356 -56 433 -69 136 -22 138
-23 90 -30 -27 -5 -115 -19 -194 -32 -368 -61 -533 -56 -951 25 -140 27 -307
59 -370 71 -163 30 -319 69 -360 90 -42 22 -118 100 -226 235 -118 147 -330
443 -322 450 2 2 89 13 193 25 105 12 233 27 285 34 142 20 145 20 165 -11z
m266 -478 c162 -17 378 -44 396 -50 9 -3 8 -12 -3 -35 -18 -35 -21 -109 -5
-138 6 -12 11 -24 11 -28 0 -8 -180 2 -290 17 -160 21 -302 52 -333 73 -45 30
-58 86 -30 124 23 31 58 52 89 52 12 0 86 -7 165 -15z m609 -92 c44 -41 49
-83 13 -121 -15 -17 -43 -33 -60 -37 -28 -6 -38 -2 -63 23 -23 24 -30 39 -30
70 0 86 77 122 140 65z m-1491 -100 l60 -82 -42 -29 c-67 -46 -227 -135 -232
-130 -3 2 27 80 67 172 39 92 75 163 79 159 4 -4 34 -45 68 -90z"/>
</g>
</svg>
