<?xml version="1.0" standalone="no"?>
<!DOCTYPE svg PUBLIC "-//W3C//DTD SVG 20010904//EN" "http://www.w3.org/TR/2001/REC-SVG-20010904/DTD/svg10.dtd">
<svg xmlns="http://www.w3.org/2000/svg" version="1.0" width="1024.000000pt" height="1024.000000pt" viewBox="0 0 1024.000000 1024.000000" preserveAspectRatio="xMidYMid meet">
<metadata>
Created by potrace 1.16, written by Peter Selinger 2001-2019
<meta name="Producer" content="Online-Convert"/></metadata>
<g transform="translate(0.000000,1024.000000) scale(0.100000,-0.100000)" fill="#000000" stroke="none">
<path d="M7343 8390 c-44 -18 -56 -62 -55 -210 0 -156 6 -195 35 -230 12 -14 15 -19 7 -12 -8 6 -21 12 -29 12 -9 0 -5 -6 10 -14 29 -15 84 -10 116 11 38 25 45 69 39 244 -5 124 -10 166 -21 179 -8 9 -13 19 -10 22 9 9 -69 7 -92 -2z"/>
<path d="M6429 8001 c-46 -47 -40 -72 41 -155 39 -40 67 -76 63 -81 -5 -4 -3 -5 3 -2 14 8 37 -17 26 -28 -4 -5 -2 -5 4 -2 12 7 57 -35 49 -46 -3 -4 -2 -5 1 -2 4 2 20 -7 36 -20 39 -33 73 -32 109 4 38 38 40 88 4 121 -13 12 -22 28 -18 34 3 6 2 8 -2 3 -5 -4 -57 40 -115 98 -91 90 -112 105 -139 105 -23 0 -42 -9 -62 -29z"/>
<path d="M8217 8005 c-16 -14 -33 -22 -39 -19 -6 4 -8 3 -5 -3 3 -5 -35 -50 -85 -99 -49 -49 -96 -104 -104 -122 -13 -29 -12 -36 3 -65 9 -17 17 -36 18 -41 0 -15 65 -17 93 -2 15 8 67 55 115 105 52 54 93 88 100 84 7 -3 9 -2 4 2 -4 5 5 21 20 37 81 85 -32 200 -120 123z"/>
<path d="M7358 7755 c-2 -2 -45 -10 -97 -19 -262 -45 -471 -235 -552 -501 -17 -55 -22 -100 -23 -207 -1 -76 1 -138 4 -138 3 0 12 -23 20 -52 7 -29 28 -81 46 -116 38 -72 39 -76 22 -66 -7 4 -8 3 -4 -5 4 -6 11 -9 16 -6 9 6 52 -49 44 -57 -2 -3 2 -11 11 -18 8 -7 15 -9 15 -5 0 5 9 0 20 -10 11 -10 20 -23 20 -29 0 -6 -5 -4 -10 4 -5 8 -10 11 -10 5 0 -5 5 -17 10 -25 7 -11 10 -12 10 -2 0 8 6 12 13 9 6 -2 11 -10 9 -16 -1 -7 1 -10 6 -7 12 7 78 -42 74 -55 -1 -6 2 -8 7 -4 6 3 38 -8 72 -25 138 -70 320 -89 473 -50 197 50 372 191 459 370 60 123 82 229 73 353 -16 212 -122 400 -298 532 -31 23 -54 46 -50 50 4 5 2 5 -4 2 -7 -4 -41 6 -76 22 -35 16 -81 32 -101 36 -20 4 -37 10 -37 14 0 4 -17 6 -37 4 -33 -2 -34 -1 -13 6 23 8 24 9 3 10 -12 1 -24 -3 -27 -8 -3 -4 -24 -5 -46 -1 -21 4 -41 6 -42 5z m105 -183 c-6 -4 8 -8 30 -8 49 -2 161 -49 152 -64 -3 -5 0 -7 8 -4 9 3 21 -4 29 -15 8 -12 17 -18 20 -16 8 9 97 -84 134 -140 58 -89 78 -164 78 -295 0 -96 -4 -125 -24 -175 -29 -75 -97 -178 -112 -169 -7 4 -8 3 -4 -4 9 -15 -86 -89 -161 -124 -73 -35 -204 -60 -271 -52 -78 8 -165 36 -150 46 9 7 8 8 -5 4 -25 -8 -110 37 -163 86 -59 55 -117 135 -108 149 4 7 3 9 -3 6 -6 -4 -21 19 -34 56 -32 82 -34 271 -6 357 36 105 159 272 188 254 7 -4 10 -3 6 3 -10 16 63 60 145 88 57 19 93 25 168 25 52 0 90 -4 83 -8z"/>
<path d="M6060 7106 c-21 -23 -47 -112 -30 -101 7 5 24 -23 22 -36 -1 -9 14 -10 179 -16 191 -5 230 2 253 52 19 40 14 68 -17 103 -20 21 -27 22 -202 22 -180 0 -182 0 -205 -24z"/>
<path d="M8296 7099 c-21 -24 -26 -40 -24 -74 2 -24 8 -43 13 -42 6 1 9 -3 8 -8 -2 -15 11 -16 196 -21 114 -4 173 -1 193 7 63 26 78 96 30 142 l-28 27 -181 0 -181 0 -26 -31z"/>
<path d="M8060 6455 c-7 -8 -18 -15 -24 -15 -17 0 -52 -40 -61 -68 -4 -15 1 -34 17 -59 12 -21 23 -44 25 -51 1 -8 5 -17 9 -20 4 -4 4 2 0 13 -4 11 29 -16 73 -59 44 -44 77 -84 74 -89 -3 -6 -1 -7 4 -4 6 4 17 -1 24 -10 8 -9 29 -22 47 -30 28 -12 36 -11 62 2 42 22 63 58 55 93 -4 20 -49 71 -138 158 -72 71 -131 132 -129 136 1 4 -6 4 -15 1 -11 -4 -14 -3 -9 5 10 17 1 15 -14 -3z"/>
<path d="M6665 6432 c-16 -10 -36 -26 -44 -35 -7 -9 -18 -14 -24 -10 -5 3 -7 2 -4 -4 4 -6 -32 -48 -79 -94 -101 -98 -114 -115 -114 -149 0 -38 51 -83 91 -82 27 1 53 21 168 136 129 128 136 137 136 175 0 21 -2 37 -4 35 -3 -2 -14 5 -25 15 -32 30 -67 34 -101 13z"/>
<path d="M2725 6392 c-77 -6 -156 -27 -224 -58 -58 -27 -77 -31 -84 -22 -6 10 -8 9 -4 -2 4 -16 -69 -80 -87 -76 -6 2 -8 1 -3 -2 4 -2 -14 -27 -40 -56 -114 -126 -171 -274 -173 -451 -1 -48 -4 -72 -9 -61 -7 19 -8 19 -13 0 -3 -14 1 -25 13 -33 12 -7 19 -22 18 -39 0 -24 -1 -25 -9 -7 -5 13 -9 14 -9 5 0 -18 17 -59 19 -45 0 6 14 -23 30 -63 16 -41 26 -81 23 -90 -3 -12 -2 -13 4 -4 7 9 15 1 31 -27 34 -59 129 -153 209 -205 39 -25 77 -46 83 -46 6 0 9 -4 5 -9 -3 -5 0 -13 6 -17 8 -5 9 -3 4 6 -6 10 -4 12 9 7 10 -4 29 -10 42 -13 13 -3 22 -10 19 -14 -3 -4 2 -11 11 -14 9 -4 13 -2 8 5 -5 8 3 9 27 3 19 -5 86 -9 149 -9 136 0 225 23 332 86 228 134 352 366 333 623 -4 56 -8 113 -8 128 -1 14 -4 24 -6 22 -2 -2 -16 24 -31 59 -31 74 -94 169 -144 216 -19 19 -32 39 -29 44 3 6 1 7 -4 4 -6 -4 -28 7 -49 24 -64 51 -206 117 -259 120 -17 1 -16 2 5 8 23 6 -129 9 -195 3z m150 -177 c28 -7 40 -13 27 -14 -13 0 -21 -5 -17 -11 4 -6 15 -6 30 0 47 18 164 -50 244 -142 39 -44 71 -95 53 -84 -6 4 -8 -2 -5 -15 4 -13 8 -17 13 -9 15 25 52 -94 57 -186 6 -105 -6 -171 -48 -259 -32 -68 -102 -150 -119 -140 -6 3 -9 1 -8 -6 4 -17 -80 -73 -150 -99 -74 -28 -165 -43 -217 -35 -77 12 -95 17 -90 25 3 4 -4 6 -15 3 -11 -3 -45 7 -75 22 -63 30 -168 122 -158 138 3 5 1 7 -4 4 -6 -4 -25 15 -43 43 -96 150 -99 368 -7 530 50 87 189 209 223 196 8 -3 13 -2 10 3 -7 11 35 28 94 40 65 13 147 11 205 -4z"/>
<path d="M7345 6161 c-11 -5 -24 -6 -30 -3 -5 3 -7 2 -3 -2 3 -4 -1 -27 -10 -49 -27 -67 -20 -365 9 -383 5 -3 6 -10 3 -16 -4 -7 -2 -8 4 -4 7 4 12 1 12 -8 0 -9 5 -16 11 -16 5 0 7 5 4 10 -4 7 2 9 18 5 35 -9 83 18 95 53 13 39 16 331 3 365 -10 25 -57 58 -83 56 -7 0 -22 -4 -33 -8z"/>
<path d="M1406 5639 c2 -4 -9 -12 -25 -19 -16 -6 -39 -22 -51 -35 -13 -14 -27 -22 -32 -19 -5 3 -8 2 -7 -3 1 -4 -6 -26 -16 -48 -20 -44 -37 -187 -21 -178 5 4 7 -1 3 -10 -3 -10 -2 -17 3 -17 9 0 26 -39 22 -52 -1 -5 1 -7 6 -5 9 2 79 -73 81 -88 1 -5 5 -10 9 -10 12 0 91 -77 89 -86 -1 -4 3 -8 8 -8 18 -3 84 -74 78 -84 -3 -6 -2 -7 4 -4 9 6 161 -138 156 -148 -2 -3 0 -5 5 -6 15 -1 51 -42 45 -52 -3 -6 -2 -7 4 -4 5 3 32 -17 59 -45 27 -28 44 -48 37 -44 -6 3 -14 2 -17 -3 -4 -5 2 -8 11 -6 20 3 175 -143 167 -157 -3 -5 0 -7 8 -6 7 2 12 -3 10 -10 -1 -8 1 -11 6 -8 5 3 26 -13 48 -36 21 -22 34 -38 27 -34 -6 3 -14 2 -18 -3 -3 -6 3 -8 13 -6 13 2 38 -16 75 -53 31 -32 57 -61 57 -67 0 -5 3 -10 8 -10 16 0 32 -17 26 -27 -4 -6 -3 -8 3 -5 5 4 23 -8 39 -25 16 -18 20 -26 9 -18 -18 14 -19 14 -6 -2 7 -10 20 -18 28 -18 8 0 11 -5 7 -12 -4 -6 -3 -8 3 -5 6 4 21 -5 34 -20 13 -14 18 -23 10 -18 -9 5 -12 4 -7 -3 4 -7 13 -12 19 -12 18 0 79 -68 72 -80 -3 -5 -1 -10 5 -10 6 0 9 -4 6 -8 -3 -5 1 -9 9 -9 8 0 12 5 8 11 -3 6 10 -7 28 -29 19 -22 33 -43 31 -47 -1 -4 1 -7 5 -6 14 5 83 -54 76 -65 -3 -5 -2 -7 4 -4 12 7 80 -73 75 -88 -2 -5 0 -6 4 -2 10 10 245 -224 237 -236 -3 -6 -1 -7 4 -4 6 4 17 0 24 -9 10 -13 10 -17 -2 -25 -8 -5 -11 -9 -7 -9 3 0 -25 -57 -63 -127 -38 -69 -69 -127 -69 -129 0 -2 -15 -29 -34 -61 -38 -66 -428 -790 -501 -930 -51 -98 -53 -120 -15 -161 27 -29 72 -28 104 1 14 12 136 231 272 487 356 672 366 690 377 683 6 -3 7 -1 3 5 -7 11 53 142 65 142 12 0 159 -162 159 -176 0 -7 4 -16 10 -19 6 -4 7 1 3 12 -3 10 26 -13 65 -51 39 -38 68 -74 65 -79 -3 -6 -2 -7 4 -4 5 3 27 -12 48 -33 22 -22 35 -40 31 -40 -5 0 -3 -6 3 -13 6 -8 8 -16 6 -19 -3 -3 6 -4 21 -2 15 1 43 -7 63 -20 63 -40 137 -75 215 -101 170 -57 115 -55 1597 -55 1353 0 1508 -3 1467 -32 -9 -6 -7 -8 8 -4 25 8 102 -41 137 -87 51 -67 185 -312 175 -318 -6 -4 -1 -13 14 -23 30 -20 82 -111 72 -128 -5 -7 -3 -8 6 -3 10 6 12 4 7 -8 -3 -9 -1 -19 5 -23 7 -4 8 -3 4 4 -4 7 -5 12 -3 12 2 0 21 -25 41 -55 21 -31 49 -60 64 -66 15 -6 97 -9 198 -7 167 3 173 4 198 27 33 31 33 67 1 132 -14 27 -23 55 -19 61 4 6 3 8 -2 5 -5 -3 -48 63 -96 146 -47 84 -141 249 -208 367 -67 118 -135 238 -151 265 l-28 50 372 0 c364 0 373 0 413 22 44 24 98 79 109 112 3 12 9 19 13 17 12 -7 13 95 1 138 -15 60 -54 113 -104 145 -25 16 -43 30 -41 32 3 2 -106 3 -241 1 -167 -2 -243 1 -238 8 3 5 -1 10 -10 10 -9 0 -13 -4 -10 -10 4 -7 -73 -10 -223 -10 l-228 0 35 71 c30 61 35 81 34 138 -1 74 -26 158 -66 216 -14 21 -24 42 -23 49 2 6 1 8 -1 5 -5 -7 -1057 1044 -1055 1054 2 5 -2 6 -7 3 -5 -3 -14 1 -21 9 -20 24 -114 73 -175 90 -93 27 -222 18 -308 -23 -88 -41 -81 -35 -344 -289 -124 -120 -230 -217 -237 -215 -6 2 -7 0 -3 -4 9 -10 -111 -133 -127 -130 -6 2 -7 1 -3 -2 4 -2 2 -10 -4 -18 -10 -12 -14 -12 -22 -2 -7 10 -8 9 -4 -3 6 -19 -65 -94 -78 -82 -4 5 -5 3 -2 -3 8 -14 -36 -57 -48 -47 -4 5 -5 3 -2 -3 3 -6 -7 -24 -23 -39 -28 -27 -30 -27 -55 -11 -14 9 -23 22 -19 28 4 6 3 8 -4 4 -6 -3 -68 41 -139 99 -70 59 -173 143 -228 189 -287 237 -467 376 -525 404 -67 33 -179 62 -240 62 -100 0 -238 -49 -322 -113 -25 -19 -49 -32 -53 -29 -4 4 -5 2 -4 -3 2 -6 -16 -38 -38 -73 -73 -112 -94 -213 -68 -332 10 -41 18 -83 18 -92 1 -9 4 -15 8 -12 7 4 12 -6 21 -40 2 -6 24 -30 50 -54 26 -25 45 -49 41 -55 -3 -5 -2 -7 4 -4 13 8 66 -47 56 -58 -5 -4 -3 -5 3 -2 12 7 68 -46 59 -55 -3 -3 3 -11 12 -19 17 -13 17 -13 4 6 -8 11 31 -25 87 -79 55 -55 98 -104 95 -109 -3 -6 -1 -7 4 -4 13 8 46 -27 36 -38 -5 -4 -3 -5 3 -2 14 8 167 -146 157 -158 -4 -4 -3 -5 3 -2 6 3 17 -2 25 -11 8 -9 59 -57 112 -106 53 -49 93 -94 90 -100 -3 -6 -3 -8 2 -4 4 4 42 -17 84 -46 94 -66 182 -101 286 -116 57 -7 630 -10 1953 -9 1804 1 1874 0 1893 -17 24 -21 20 -65 -8 -96 -15 -17 -94 -18 -1947 -18 -1187 0 -1957 4 -1998 10 -83 12 -181 48 -172 62 4 7 2 8 -4 4 -23 -14 -189 115 -175 137 3 5 2 7 -4 4 -12 -8 -166 147 -156 157 4 4 1 6 -7 4 -8 -1 -14 3 -12 10 1 6 -2 11 -7 10 -14 -4 -702 673 -695 683 3 5 2 8 -3 7 -4 -2 -285 275 -623 614 -679 682 -655 661 -782 662 -36 1 -64 -2 -62 -5z m133 -172 c6 -8 7 -18 3 -22 -4 -5 -2 -5 4 -2 6 3 77 -61 160 -144 82 -82 145 -149 140 -149 -5 0 -3 -7 4 -15 7 -8 16 -13 20 -10 10 6 60 -52 60 -70 0 -8 6 -12 13 -9 7 2 41 -27 77 -67 36 -39 75 -80 87 -92 12 -11 20 -25 16 -30 -3 -6 -1 -7 5 -3 14 8 53 -33 45 -48 -3 -6 -2 -8 2 -3 11 10 116 -93 108 -106 -3 -6 -2 -7 4 -4 9 6 283 -260 283 -275 0 -5 2 -7 5 -5 9 5 84 -77 78 -87 -3 -6 -3 -8 2 -4 11 11 36 -12 28 -26 -3 -6 -2 -7 2 -3 12 10 166 -143 158 -157 -3 -6 -2 -8 2 -3 12 10 56 -33 48 -47 -3 -6 -2 -7 2 -3 12 10 166 -143 158 -157 -3 -6 -2 -8 2 -3 12 10 116 -93 108 -107 -3 -6 -2 -7 2 -3 11 10 246 -223 238 -236 -3 -6 -2 -7 4 -4 15 9 217 -188 208 -203 -5 -8 -4 -11 3 -6 17 10 71 -42 67 -65 -2 -11 0 -17 6 -14 5 4 7 10 4 15 -3 5 29 -15 72 -44 88 -60 171 -98 271 -123 61 -15 197 -17 1482 -19 1698 -2 1633 -1 1625 -22 -3 -9 -3 -13 1 -9 11 10 96 -141 88 -155 -4 -6 -3 -8 3 -5 9 6 27 -20 23 -31 0 -1 6 -10 15 -18 8 -9 13 -20 10 -25 -4 -5 -2 -9 3 -9 14 0 54 -79 46 -92 -4 -6 -3 -8 4 -4 13 8 74 -102 65 -117 -3 -5 -2 -7 4 -4 5 3 27 -26 48 -65 21 -39 55 -100 76 -137 39 -66 47 -87 29 -76 -16 10 -11 -1 7 -16 11 -10 14 -10 9 -1 -4 6 -5 12 -3 12 5 0 67 -106 67 -115 0 -3 -30 -5 -66 -5 -47 0 -63 3 -58 12 5 8 2 9 -9 5 -12 -5 -25 9 -52 54 -19 33 -32 66 -29 72 4 7 4 9 -1 5 -7 -7 -47 56 -147 235 -53 94 -100 163 -145 210 -23 25 -40 47 -37 51 2 3 1 4 -2 2 -3 -3 -39 13 -80 35 -41 21 -82 39 -90 39 -8 0 -13 3 -10 8 6 11 -188 13 -1609 15 l-1260 3 -95 24 c-100 26 -257 99 -253 118 2 6 -3 9 -10 6 -17 -6 -99 65 -91 78 4 6 3 8 -3 5 -10 -6 -2156 2133 -2175 2168 -15 25 -6 81 12 77 8 -2 12 0 8 4 -15 14 15 34 52 34 21 0 43 -6 49 -13z m4313 -424 c21 -9 35 -20 32 -24 -3 -5 1 -6 8 -4 8 3 25 -7 38 -22 18 -20 19 -23 5 -13 -19 14 -19 14 -6 -3 8 -9 16 -15 19 -12 8 8 152 -137 146 -147 -3 -5 -1 -7 5 -6 15 4 92 -73 84 -85 -3 -5 -2 -7 4 -4 11 7 146 -126 138 -136 -3 -4 -2 -5 2 -2 10 8 93 -77 86 -88 -3 -6 -2 -7 4 -4 11 7 406 -386 398 -396 -3 -4 -2 -5 2 -2 9 7 153 -136 147 -146 -2 -4 1 -11 7 -15 8 -5 10 -2 5 7 -4 8 4 1 17 -15 29 -34 47 -88 47 -145 0 -52 -25 -115 -41 -105 -7 4 -9 3 -6 -3 4 -6 -5 -23 -18 -37 -47 -50 -135 -72 -244 -61 l-66 7 -445 444 -446 444 -43 0 c-40 0 -49 -5 -120 -75 -43 -41 -81 -72 -86 -68 -4 5 -5 3 -2 -3 8 -13 -66 -87 -77 -77 -4 5 -6 1 -4 -7 2 -9 -3 -14 -12 -12 -8 2 -12 0 -7 -4 9 -10 -53 -75 -65 -68 -4 3 -8 -3 -8 -12 0 -22 -38 -64 -58 -64 -9 0 -12 -3 -8 -7 9 -10 -145 -163 -157 -156 -6 3 -7 2 -4 -4 7 -11 -66 -86 -76 -78 -4 3 -5 2 -2 -2 8 -10 -67 -83 -78 -76 -6 3 -7 2 -4 -4 3 -5 -31 -46 -76 -91 l-82 -81 -278 -1 c-164 0 -276 3 -273 8 3 5 -8 8 -25 6 -47 -6 -132 23 -193 64 -30 20 -215 194 -410 385 -257 253 -353 353 -349 365 3 12 2 13 -4 5 -7 -9 -24 3 -65 45 -70 71 -89 110 -96 189 -6 73 12 130 59 190 37 46 108 96 126 88 8 -2 12 -1 9 4 -10 16 94 34 168 29 76 -5 172 -41 160 -59 -4 -8 -9 -7 -15 2 -5 8 -9 9 -9 3 0 -18 12 -24 26 -13 17 14 58 -7 48 -24 -4 -7 -4 -9 1 -5 11 10 96 -53 88 -66 -3 -6 -3 -8 2 -4 9 9 87 -50 80 -61 -2 -4 2 -8 9 -8 18 0 237 -183 231 -193 -3 -4 3 -7 13 -6 9 0 16 -5 14 -12 -1 -8 2 -11 7 -8 5 4 15 0 23 -7 14 -14 105 -89 206 -169 34 -27 59 -55 55 -60 -3 -6 -1 -8 4 -5 6 4 34 -12 62 -34 48 -38 67 -59 39 -43 -7 4 -9 3 -5 -1 4 -5 14 -10 21 -11 21 -3 66 -35 61 -44 -6 -9 39 -5 59 7 8 5 126 116 261 248 135 132 250 239 256 237 6 -1 8 1 5 6 -7 12 372 386 411 406 71 36 192 40 265 9z m146 -1029 c144 -146 260 -270 256 -275 -3 -5 -1 -8 5 -7 6 2 45 -31 86 -72 l75 -75 -47 -3 c-28 -2 -49 1 -51 7 -2 6 -8 11 -13 11 -6 0 -7 -4 -4 -10 3 -5 2 -10 -4 -10 -5 0 -13 5 -16 10 -3 6 -16 10 -28 9 -20 -1 -20 -2 3 -9 18 -6 7 -8 -40 -8 -45 -1 -59 2 -45 8 18 8 17 9 -8 9 -16 1 -26 -3 -22 -9 4 -6 -22 -10 -69 -10 -44 0 -76 4 -76 10 0 6 -5 10 -11 10 -5 0 -7 -4 -4 -10 10 -16 -377 -13 -394 3 -11 10 -13 10 -7 0 5 -10 -3 -13 -31 -12 -38 1 -38 1 -8 9 30 8 30 8 -8 9 -23 1 -36 -3 -32 -9 3 -5 1 -10 -4 -10 -6 0 -11 5 -11 10 0 6 -5 10 -11 10 -5 0 -7 -4 -4 -10 3 -6 -4 -10 -17 -10 -18 0 -20 2 -8 10 12 8 10 10 -8 10 -13 0 -20 -4 -17 -10 4 -6 -9 -10 -32 -10 -28 0 -34 3 -23 10 12 8 9 10 -12 10 -15 0 -30 -4 -33 -10 -3 -5 -22 -10 -41 -10 -19 0 -34 5 -34 10 0 6 -12 10 -27 9 -25 0 -26 -1 -8 -9 13 -6 -15 -9 -80 -9 l-100 -1 109 109 c61 61 114 107 120 104 6 -3 8 -2 3 2 -9 11 73 96 85 89 5 -3 7 -1 6 5 -4 14 342 372 353 365 5 -3 9 2 9 10 0 9 4 16 8 16 5 0 126 -120 270 -266z"/>
</g>
</svg>
