<?xml version="1.0" standalone="no"?>
<!DOCTYPE svg PUBLIC "-//W3C//DTD SVG 20010904//EN"
 "http://www.w3.org/TR/2001/REC-SVG-20010904/DTD/svg10.dtd">
<svg version="1.0" xmlns="http://www.w3.org/2000/svg"
 width="1024.000000pt" height="1024.000000pt" viewBox="0 0 1024.000000 1024.000000"
 preserveAspectRatio="xMidYMid meet">
<metadata>
Created by potrace 1.16, written by Peter Selinger 2001-2019
</metadata>
<g transform="translate(0.000000,1024.000000) scale(0.100000,-0.100000)"
fill="#000000" stroke="none">
<path d="M3653 9323 c-17 -2 -43 -15 -57 -28 l-26 -24 -1 -938 c-1 -1327 -3
-1443 -20 -1454 -8 -5 -9 -9 -2 -9 16 0 17 -141 0 -152 -8 -5 -9 -8 0 -8 8 0
12 -45 12 -155 l2 -155 -61 -65 c-167 -179 -319 -503 -449 -955 -82 -286 -140
-574 -161 -800 -12 -123 -10 -511 3 -503 4 2 7 -6 7 -19 0 -16 -3 -19 -9 -10
-5 9 -8 2 -8 -20 -1 -26 1 -29 7 -13 6 16 10 12 19 -25 7 -25 20 -67 29 -95 9
-27 17 -52 17 -55 4 -22 86 -166 127 -221 50 -69 56 -99 21 -99 -15 0 -16 -2
-3 -10 8 -5 10 -10 4 -10 -5 0 -16 6 -23 13 -11 10 -13 10 -7 0 6 -10 -49 -13
-259 -13 -276 0 -294 -2 -327 -44 -29 -36 -18 -99 22 -124 14 -8 361 -12 1369
-12 1462 -2 1411 0 1492 -56 22 -15 38 -29 35 -31 -2 -2 12 -21 30 -41 49 -53
174 -240 170 -254 -1 -7 -1 -9 2 -5 6 11 32 -13 32 -29 0 -8 3 -14 8 -14 4 0
13 -9 20 -20 10 -17 8 -29 -19 -83 -17 -34 -37 -65 -43 -69 -6 -4 -8 -8 -4 -8
5 0 -21 -57 -56 -128 -36 -70 -69 -139 -75 -154 -6 -16 -14 -28 -19 -28 -5 0
-9 -6 -9 -14 0 -26 -25 -76 -36 -69 -6 3 -7 1 -3 -5 3 -6 -28 -84 -70 -174
-101 -216 -122 -281 -119 -366 4 -88 -1 -75 83 -241 41 -80 75 -161 77 -180 2
-18 9 -39 16 -45 9 -8 11 -7 6 4 -18 49 -18 53 1 26 11 -16 18 -35 15 -42 -3
-8 -1 -14 4 -14 4 0 8 -18 8 -40 0 -22 -4 -40 -9 -40 -5 0 -6 -3 -3 -7 4 -3 2
-12 -4 -20 -9 -10 -15 -11 -26 -2 -11 10 -12 9 -7 -5 8 -22 -26 -22 -69 0 -29
15 -150 110 -202 159 -12 11 -37 32 -57 47 -20 15 -53 43 -73 62 -20 19 -47
42 -61 51 -14 9 -22 21 -18 27 4 6 3 8 -3 5 -15 -10 -163 120 -178 156 -9 22
-10 37 -3 51 7 13 7 16 -1 12 -16 -10 -13 70 3 114 13 35 218 542 238 590 6
14 12 30 13 36 2 6 10 27 18 45 8 19 59 144 112 279 53 135 101 250 107 257 6
7 8 13 4 13 -4 0 0 12 7 27 8 16 17 46 20 68 3 22 3 35 0 28 -3 -8 -13 -4 -29
12 -14 14 -28 25 -32 26 -46 5 -67 2 -84 -12 -24 -21 -53 -77 -61 -117 -3 -17
-20 -59 -37 -95 -16 -35 -30 -67 -30 -70 0 -9 -298 -756 -307 -771 -4 -6 -8
-17 -9 -24 -1 -7 -16 -46 -33 -86 -47 -113 -54 -131 -56 -136 -34 -117 -31
-231 7 -308 17 -33 22 -52 14 -49 -10 4 -12 -1 -8 -15 3 -14 7 -16 13 -7 5 9
19 1 51 -30 24 -24 58 -55 76 -69 18 -14 29 -28 23 -31 -6 -4 -7 -12 -1 -21 7
-10 10 -11 10 -2 0 22 28 13 53 -18 14 -16 30 -30 34 -30 5 0 23 -15 41 -33
26 -27 30 -36 20 -47 -11 -12 -10 -12 5 -1 15 12 21 10 45 -12 15 -14 65 -58
112 -97 47 -40 90 -77 95 -83 15 -17 42 -34 102 -63 124 -60 264 -11 325 114
43 90 35 180 -28 306 -19 38 -33 75 -30 83 3 8 2 11 -4 8 -12 -7 -33 32 -24
47 4 7 3 8 -4 4 -7 -4 -26 24 -50 73 -36 72 -39 86 -38 153 1 56 8 84 26 118
13 25 25 50 26 55 2 11 69 151 83 175 5 8 34 69 65 135 89 192 190 388 202
392 12 4 137 -173 137 -194 0 -7 6 -13 14 -13 12 0 17 -17 14 -50 -2 -12 0
-12 7 -2 7 10 18 0 42 -39 17 -29 37 -58 44 -64 7 -7 32 -43 56 -81 25 -38 49
-72 54 -75 5 -4 5 -13 1 -20 -5 -8 -5 -11 0 -7 11 10 98 -119 90 -133 -4 -5
-1 -8 6 -7 7 2 18 -8 25 -22 12 -22 11 -26 -4 -33 -13 -6 -12 -6 5 -3 19 3 32
-11 83 -85 61 -92 69 -106 48 -93 -7 5 -8 3 -4 -5 5 -7 11 -10 14 -7 3 3 11 1
19 -5 9 -8 10 -15 3 -24 -8 -9 -8 -15 0 -20 5 -3 10 0 10 7 0 7 9 2 20 -12 12
-15 17 -35 14 -50 -3 -19 -2 -21 4 -6 7 16 12 12 37 -25 17 -24 30 -51 30 -59
0 -8 6 -15 13 -15 7 0 23 -9 35 -20 106 -97 251 -135 408 -105 60 12 220 86
414 192 256 141 318 193 351 291 37 112 -18 244 -133 317 -23 15 -41 29 -38
31 2 3 -4 5 -13 6 -9 0 -41 4 -70 8 -33 5 -86 3 -136 -5 -97 -15 -189 -7 -215
19 -10 10 -26 21 -35 24 -11 4 -16 13 -12 22 3 8 0 14 -6 12 -20 -4 -183 277
-172 295 4 6 3 8 -3 5 -9 -5 -44 53 -42 69 0 4 -3 10 -8 13 -14 9 -120 203
-127 231 -3 14 -3 19 0 13 3 -7 10 -13 16 -13 7 0 6 5 -2 14 -6 8 -17 13 -23
11 -11 -4 -227 371 -227 394 0 6 -4 11 -9 11 -5 0 -14 15 -22 33 -7 17 -16 34
-20 37 -4 3 -39 64 -79 135 -40 72 -77 136 -82 143 -6 6 -7 12 -3 12 4 0 2 7
-5 15 -6 8 -9 19 -5 25 4 6 1 9 -6 8 -7 -2 -30 28 -52 66 -32 55 -37 70 -26
77 11 7 9 9 -6 9 -14 0 -29 17 -49 53 -16 28 -61 84 -100 123 -66 66 -109 93
-231 145 -27 11 -180 39 -218 39 -27 0 -29 2 -16 18 33 41 38 62 36 154 -3
103 -16 140 -82 218 -58 69 -124 105 -360 195 -11 4 -27 9 -35 10 -8 1 -73 18
-145 38 -134 37 -225 78 -225 103 0 8 -4 14 -9 14 -25 0 -30 78 -31 466 0 405
-8 523 -37 596 -8 21 -12 45 -9 53 3 9 2 14 -3 10 -5 -3 -25 24 -45 59 -45 80
-118 161 -191 211 -55 38 -69 52 -39 41 9 -3 12 -2 9 5 -4 6 -13 8 -21 5 -7
-3 -51 12 -96 33 -46 21 -112 44 -148 52 -95 19 -232 17 -310 -5 -36 -10 -69
-19 -75 -20 -5 -1 -20 -8 -32 -14 l-23 -13 0 1376 0 1377 -29 28 c-16 16 -26
32 -23 35 3 3 3 4 1 3 -2 0 -18 -3 -36 -5z m522 -2940 c133 -34 264 -128 332
-238 51 -81 86 -186 65 -193 -15 -5 -16 -23 -1 -20 15 4 16 -13 18 -495 l2
-418 31 -52 c17 -29 31 -57 31 -64 0 -7 3 -11 6 -10 12 3 90 -61 83 -68 -4 -4
0 -5 8 -3 8 3 32 -3 52 -13 20 -11 68 -27 105 -37 45 -12 68 -22 68 -32 0 -9
10 -16 25 -17 22 -1 23 -1 2 4 -12 2 -20 8 -17 13 4 7 48 -3 188 -42 39 -11
53 -33 15 -24 -13 3 -7 -2 12 -11 47 -22 85 -28 47 -7 -54 30 -19 25 53 -7 62
-28 71 -35 67 -55 -2 -15 0 -21 9 -17 6 2 15 0 19 -6 3 -6 11 -11 17 -11 5 0
0 9 -13 19 -13 11 -22 22 -19 24 8 8 47 -27 74 -68 62 -91 9 -217 -91 -214
-62 2 -494 43 -563 53 -8 1 -48 6 -88 10 -40 5 -75 13 -78 17 -3 5 -9 7 -14 4
-10 -6 -117 12 -149 26 -20 8 -22 12 -10 20 7 5 9 9 4 9 -6 0 -16 -5 -23 -12
-9 -9 -29 -2 -87 26 -42 21 -79 44 -82 52 -3 8 -8 12 -13 9 -11 -7 -56 46 -88
105 -47 88 -49 94 -78 330 -8 69 -17 134 -20 145 -10 46 -57 407 -58 446 -1
19 -5 25 -15 21 -10 -4 -12 -1 -6 8 5 8 4 11 -3 6 -6 -3 -14 -1 -17 5 -4 5
-26 9 -49 8 -31 -3 -46 -10 -62 -31 -18 -24 -20 -35 -13 -85 4 -32 10 -87 14
-123 8 -78 10 -95 18 -140 12 -64 47 -330 45 -338 -1 -4 2 -18 6 -31 5 -14 4
-27 -3 -34 -18 -18 -13 -71 9 -90 11 -9 20 -22 20 -29 0 -8 -7 -4 -17 7 -15
20 -15 20 -10 -2 3 -14 0 -23 -6 -23 -7 0 -6 -4 3 -10 9 -6 17 -5 22 3 5 8 9
5 13 -8 3 -11 15 -38 26 -60 10 -22 19 -45 19 -51 0 -6 9 -21 20 -34 12 -13
18 -31 15 -39 -3 -9 -3 -12 1 -9 10 11 42 -9 55 -35 11 -19 10 -20 -3 -10 -12
10 -15 10 -15 -2 0 -8 3 -13 5 -10 3 3 12 -1 20 -8 13 -9 14 -9 8 1 -12 21 9
13 30 -11 11 -13 19 -29 16 -37 -3 -12 -1 -12 6 -2 6 10 22 4 68 -23 32 -20
93 -47 134 -60 49 -15 74 -28 72 -37 -3 -9 0 -10 7 -2 8 7 51 4 149 -12 76
-12 177 -25 224 -29 88 -7 140 -24 83 -26 -20 -1 -23 -3 -11 -6 10 -3 29 0 41
7 17 9 44 9 116 0 82 -10 300 -36 382 -45 15 -1 47 -3 71 -4 26 0 51 -8 60
-17 9 -8 16 -11 16 -5 0 6 11 11 25 11 14 0 25 -4 25 -10 0 -5 -7 -10 -16 -10
-8 0 -13 -4 -10 -9 8 -13 36 -7 46 9 5 8 15 10 26 6 11 -5 37 -10 59 -13 22
-2 42 -7 45 -11 3 -4 16 -8 29 -10 30 -3 32 -4 34 -31 1 -13 6 -20 14 -17 7 3
13 1 13 -4 0 -6 6 -10 13 -10 6 1 1 10 -12 21 -36 30 -21 31 27 3 27 -16 42
-32 40 -42 -2 -11 3 -16 15 -16 10 1 29 -14 44 -32 23 -30 24 -38 14 -61 -6
-14 -10 -28 -7 -30 2 -2 7 5 11 16 5 18 25 31 25 17 0 -2 3 -12 6 -20 5 -12 2
-15 -10 -10 -9 3 -16 1 -16 -5 0 -6 3 -10 8 -10 25 4 40 -4 51 -27 6 -14 8
-30 5 -36 -4 -7 -2 -8 4 -4 7 4 19 -7 29 -31 10 -21 23 -41 28 -45 6 -4 6 -8
1 -8 -5 0 -2 -8 7 -18 10 -10 14 -22 10 -25 -3 -4 -1 -7 5 -7 7 0 12 -7 12
-16 0 -8 -4 -13 -9 -10 -4 3 -6 -5 -4 -18 3 -12 11 -23 19 -23 10 0 11 4 4 11
-12 12 -13 29 -1 22 8 -6 29 -41 104 -176 10 -19 43 -76 73 -127 52 -88 65
-121 44 -108 -5 3 -10 1 -10 -5 0 -7 7 -10 15 -6 8 3 19 -3 25 -14 14 -26 12
-38 -3 -18 -12 15 -14 15 -25 -3 -7 -11 -8 -19 -2 -19 5 0 10 5 10 11 0 8 4 8
13 1 6 -6 17 -11 22 -13 16 -3 56 -80 48 -92 -3 -7 -2 -9 2 -5 11 11 68 -90
59 -104 -4 -7 -3 -8 4 -4 14 8 56 -70 46 -86 -4 -6 -3 -8 3 -5 9 6 143 -217
143 -238 0 -4 -8 -13 -17 -20 -15 -11 -14 -12 10 -10 24 3 31 -4 63 -61 20
-36 34 -68 30 -71 -3 -4 -6 -1 -6 5 0 7 -7 12 -15 12 -8 0 -15 -5 -15 -11 0
-5 5 -7 10 -4 6 3 10 1 10 -4 0 -6 9 -11 21 -11 11 0 18 -4 15 -9 -4 -5 -2
-11 3 -13 9 -3 101 -155 101 -167 0 -4 22 -30 50 -57 44 -43 48 -50 34 -61
-15 -11 -14 -12 4 -10 11 0 18 5 16 9 -7 11 7 10 25 -1 8 -5 10 -14 6 -21 -5
-9 -4 -11 3 -6 6 4 35 0 64 -9 59 -17 165 -19 256 -5 70 12 139 0 149 -26 3
-7 11 -14 18 -14 8 0 19 -17 26 -37 26 -81 -36 -132 -375 -304 -279 -141 -351
-155 -468 -92 -44 24 -138 127 -138 152 0 6 -3 11 -7 11 -14 0 -85 119 -78
129 3 6 0 9 -7 6 -7 -3 -19 4 -26 16 -36 58 -52 91 -47 100 3 5 0 7 -7 4 -17
-6 -81 92 -74 111 4 9 1 12 -5 8 -11 -6 -26 11 -64 71 -11 18 -44 67 -72 110
-29 43 -53 81 -53 86 0 4 -4 9 -8 11 -5 2 -48 62 -97 133 -48 72 -103 151
-122 176 -18 26 -33 51 -33 57 0 6 -3 12 -8 14 -11 4 -82 106 -82 117 0 5 -4
11 -8 13 -5 2 -74 95 -154 208 -147 206 -158 220 -213 264 -29 23 -130 78
-150 82 -111 22 -189 24 -857 24 l-728 0 0 1410 c0 1383 0 1409 19 1420 26 13
34 13 25 -2 -4 -7 -3 -8 5 -4 6 4 9 11 6 15 -2 5 8 14 23 21 103 47 231 56
357 23z m-612 -254 c-6 -6 -9 -18 -6 -27 5 -11 2 -13 -8 -7 -11 6 -12 5 -1 -6
15 -16 17 -185 2 -194 -5 -3 -10 -12 -10 -18 0 -7 4 -6 10 3 7 11 10 -3 10
-45 0 -35 -5 -67 -12 -74 -11 -11 -10 -13 0 -7 9 6 12 -4 10 -38 -1 -30 -5
-43 -12 -39 -6 4 -5 0 2 -9 17 -21 16 -366 -1 -387 -9 -12 -9 -13 1 -7 6 4 12
2 12 -4 0 -6 -10 -15 -22 -21 -22 -9 -22 -9 -2 -6 20 4 22 0 24 -72 1 -42 2
-85 2 -96 -1 -157 -3 -805 -2 -827 0 -7 2 -44 3 -81 2 -37 0 -70 -5 -73 -5 -3
-5 -10 -1 -17 3 -6 6 -61 5 -121 -2 -61 -2 -131 -1 -156 0 -25 2 -102 2 -172
2 -127 2 -128 -20 -128 -13 0 -23 5 -23 10 0 6 -3 9 -7 8 -9 -1 -33 7 -83 29
-34 15 -34 16 -12 24 23 9 22 29 -1 29 -8 0 -8 -3 1 -9 10 -6 8 -10 -9 -14
-15 -4 -35 3 -63 23 -74 51 -186 185 -178 213 1 4 -3 7 -9 7 -5 0 -7 5 -4 10
3 6 2 10 -2 10 -8 0 -42 82 -44 105 0 6 -5 16 -11 23 -6 6 -7 12 -4 12 4 0 2
9 -3 19 -23 42 -44 280 -37 421 9 199 31 385 47 406 5 6 6 13 4 16 -3 3 -1 16
4 30 5 14 12 49 16 79 4 30 9 58 12 62 3 5 7 23 10 40 11 75 100 393 125 447
6 14 13 33 15 43 5 31 89 250 123 323 18 38 34 75 36 83 1 8 8 17 14 21 7 4
11 9 9 11 -2 4 34 72 56 108 6 9 16 27 24 39 7 13 15 21 19 18 3 -4 1 -11 -5
-17z"/>
<path d="M5975 9312 c2 -2 -5 -12 -16 -23 -18 -18 -19 -47 -19 -1009 0 -785
-3 -990 -12 -990 -8 0 -9 -3 -3 -8 14 -10 19 -46 6 -37 -6 3 -11 0 -11 -9 0
-8 6 -16 13 -19 9 -3 9 -7 0 -18 -8 -10 -11 -93 -11 -300 1 -157 -2 -291 -6
-297 -4 -7 -3 -12 3 -12 5 0 12 12 14 28 2 15 4 -11 4 -58 0 -77 -1 -80 -7
-30 -5 40 -7 21 -7 -70 0 -95 2 -111 7 -65 4 33 7 -385 8 -928 1 -544 -2 -986
-6 -983 -4 2 -9 -5 -9 -17 -2 -18 0 -19 8 -7 7 11 9 -1 7 -42 -2 -31 -1 -55 1
-52 2 2 10 -5 18 -16 8 -11 23 -20 34 -20 10 0 19 -4 19 -9 0 -4 8 -7 18 -6
38 5 60 18 71 41 8 18 11 702 12 2471 l1 2447 -27 23 c-21 18 -37 23 -70 21
-24 -2 -42 -4 -40 -6z"/>
<path d="M4588 8069 c-7 -5 -29 -9 -49 -9 -62 0 -186 -38 -272 -82 -96 -49
-226 -172 -296 -278 -41 -62 -111 -244 -111 -288 0 -11 -6 -23 -12 -26 -10 -5
-10 -7 0 -12 13 -6 18 -244 5 -244 -5 0 -9 -12 -9 -28 -1 -15 1 -21 4 -13 3
10 9 7 19 -10 13 -23 14 -23 8 -1 -4 13 -2 22 4 22 6 0 12 -9 12 -20 2 -28 2
-27 42 -109 20 -41 34 -79 30 -84 -3 -6 -1 -7 5 -3 14 9 46 -39 36 -55 -4 -8
-3 -9 4 -5 7 4 36 -17 69 -49 31 -31 76 -70 100 -86 39 -27 61 -50 31 -33 -8
4 -9 3 -5 -2 5 -5 14 -9 20 -9 25 0 127 -49 127 -61 0 -7 5 -16 12 -20 7 -5 9
-2 5 9 -5 14 -2 14 31 3 55 -20 176 -38 240 -37 70 1 85 4 141 20 23 7 49 10
57 7 8 -3 14 -1 14 4 0 5 10 12 22 16 12 3 36 13 55 20 18 8 34 14 35 13 2 -1
35 21 75 48 108 73 211 175 248 246 11 20 24 37 29 37 5 0 6 3 3 6 -4 4 0 19
8 33 8 14 24 53 36 86 37 106 37 361 0 450 -67 160 -150 280 -251 363 -114 93
-303 171 -412 172 -21 0 -38 3 -38 8 0 10 -56 11 -72 1z m137 -190 c94 -17
215 -80 291 -152 59 -56 90 -99 86 -120 -1 -4 3 -6 10 -5 17 4 83 -130 95
-192 6 -27 6 -50 2 -50 -12 0 -11 -37 1 -45 6 -3 9 -18 9 -33 l-1 -27 -8 30
c-8 30 -8 30 -9 -8 -1 -25 3 -36 10 -32 10 7 5 -51 -8 -85 -3 -8 -8 -24 -10
-34 -2 -11 -15 -40 -30 -65 -14 -26 -32 -58 -39 -72 -26 -50 -96 -121 -114
-116 -11 3 -17 -1 -16 -10 1 -18 -105 -84 -183 -115 -43 -16 -82 -22 -162 -24
-124 -3 -188 9 -281 55 -64 32 -198 133 -198 149 0 5 -13 23 -30 42 -16 18
-27 37 -24 41 3 5 1 9 -5 9 -11 0 -59 122 -67 171 -15 98 -15 123 1 205 10 49
26 105 36 124 11 19 19 38 19 43 0 4 17 34 39 65 44 65 118 137 181 177 48 30
167 78 179 71 4 -3 12 -1 19 2 19 12 143 13 207 1z"/>
</g>
</svg>
