<?xml version="1.0" standalone="no"?>
<!DOCTYPE svg PUBLIC "-//W3C//DTD SVG 20010904//EN"
 "http://www.w3.org/TR/2001/REC-SVG-20010904/DTD/svg10.dtd">
<svg version="1.0" xmlns="http://www.w3.org/2000/svg"
 width="1024.000000pt" height="1024.000000pt" viewBox="0 0 1024.000000 1024.000000"
 preserveAspectRatio="xMidYMid meet">
<metadata>
Created by potrace 1.16, written by Peter Selinger 2001-2019
</metadata>
<g transform="translate(0.000000,1024.000000) scale(0.100000,-0.100000)"
fill="#000000" stroke="none">
<path d="M5095 8739 c-339 -4 -397 -7 -440 -23 -27 -10 -54 -19 -60 -20 -15
-3 -95 -55 -145 -95 -55 -43 -70 -57 -50 -46 8 5 2 -7 -15 -27 -54 -64 -69
-83 -67 -86 6 -6 -11 -52 -19 -52 -5 0 -8 -3 -7 -7 4 -21 -16 -90 -30 -100 -9
-7 -11 -13 -5 -13 6 0 11 -15 11 -34 0 -27 -3 -33 -16 -29 -10 4 -13 2 -8 -6
6 -9 -131 -12 -606 -12 -653 0 -648 0 -692 -18 -16 -6 -31 -9 -34 -6 -3 2 -11
0 -19 -6 -7 -6 -13 -9 -13 -5 0 3 -27 -7 -60 -24 -33 -17 -63 -30 -66 -29 -4
0 -10 -3 -13 -8 -3 -5 -25 -23 -49 -40 -51 -36 -172 -151 -172 -162 0 -5 -12
-21 -27 -37 -15 -16 -26 -30 -25 -31 1 -2 -8 -23 -20 -48 -14 -28 -27 -44 -35
-41 -17 7 -17 -11 0 -17 9 -4 9 -8 -1 -15 -8 -5 -13 -12 -13 -16 1 -3 1 -7 0
-8 -3 -12 -9 -44 -19 -108 -7 -41 -15 -82 -18 -90 -8 -24 -8 -120 1 -120 5 0
7 -37 7 -82 -1 -46 0 -90 3 -98 3 -8 9 -69 13 -135 4 -66 9 -149 11 -185 3
-36 6 -87 8 -115 1 -27 6 -67 10 -88 5 -24 3 -48 -4 -64 -9 -20 -9 -29 2 -42
14 -15 24 -114 32 -302 2 -31 5 -64 9 -75 3 -10 8 -68 11 -129 10 -187 32
-387 50 -445 9 -30 30 -81 46 -112 16 -32 27 -63 25 -70 -1 -7 -1 -10 1 -5 3
4 9 4 14 1 6 -3 5 -11 -2 -20 -9 -12 -9 -13 3 -9 8 3 21 -1 28 -10 7 -8 10
-15 7 -15 -3 0 21 -25 54 -57 32 -31 59 -61 59 -67 0 -6 -7 -3 -15 8 -13 18
-14 18 -12 -2 0 -12 3 -19 6 -17 2 3 11 -1 19 -8 11 -8 14 -8 9 0 -15 24 10
20 43 -8 27 -22 32 -31 22 -37 -11 -7 -10 -10 3 -15 9 -4 13 -3 10 3 -3 6 3
10 14 10 12 0 21 -5 21 -11 0 -5 -4 -8 -9 -5 -5 3 -12 -1 -15 -10 -3 -8 -10
-12 -16 -9 -5 3 -10 0 -10 -7 0 -9 -3 -9 -10 2 -8 13 -10 13 -10 -2 0 -9 -15
-26 -34 -37 -63 -39 -179 -173 -223 -257 -24 -45 -43 -89 -43 -98 0 -9 -4 -16
-8 -16 -4 0 -9 -12 -10 -26 -2 -28 -31 -133 -40 -149 -4 -5 -5 -18 -4 -27 2
-10 0 -18 -5 -18 -4 0 -9 -15 -10 -32 -2 -18 -7 -34 -13 -36 -6 -2 -8 -7 -5
-11 4 -8 -50 -224 -61 -243 -4 -6 -8 -18 -9 -27 -3 -37 -29 -141 -35 -141 -3
0 -6 -8 -6 -17 -1 -30 -48 -198 -56 -201 -5 -2 -6 -7 -3 -12 2 -4 -25 -110
-60 -235 -36 -126 -65 -237 -65 -248 0 -14 -5 -17 -17 -12 -15 5 -16 4 -6 -6
14 -14 18 -59 6 -59 -10 0 -7 -1001 3 -1043 4 -20 3 -27 -5 -23 -6 4 -11 0
-11 -9 0 -9 4 -14 8 -11 10 6 34 -63 26 -76 -3 -4 0 -8 6 -8 7 0 6 -5 -2 -14
-7 -8 -16 -12 -20 -9 -5 2 -8 -3 -8 -11 0 -9 3 -15 8 -15 24 4 52 -2 47 -11
-3 -6 -1 -10 5 -10 6 0 8 -5 5 -10 -3 -5 -2 -10 2 -10 5 0 17 -17 28 -37 11
-21 25 -42 32 -46 7 -4 13 -15 13 -22 0 -8 5 -15 11 -15 5 0 7 -5 3 -12 -4 -6
-3 -8 3 -5 6 4 24 -8 40 -26 15 -17 41 -40 56 -50 15 -10 25 -22 21 -28 -3 -6
0 -9 7 -7 8 1 35 -10 62 -26 53 -31 171 -75 203 -76 11 0 23 -2 26 -5 7 -7
4908 -11 4908 -5 0 4 26 11 58 18 59 12 182 67 233 103 16 11 29 18 29 14 0
-9 123 125 143 156 11 16 26 29 35 29 15 0 15 2 2 10 -11 7 -11 10 -2 10 7 0
10 5 7 10 -3 6 -1 10 6 10 7 0 10 3 7 6 -4 3 2 24 12 47 25 59 32 79 38 102 9
38 17 1096 8 1112 -5 9 -4 19 3 26 6 6 11 20 10 32 -1 17 -2 16 -8 -5 -7 -23
-9 -20 -24 28 -9 30 -16 57 -15 60 1 4 -4 20 -11 36 -6 16 -13 40 -14 55 -2
15 -6 31 -9 36 -3 6 -17 57 -33 115 -15 58 -33 126 -40 152 -8 25 -11 49 -7
53 4 3 1 10 -6 14 -7 4 -14 22 -15 39 -1 18 -5 32 -9 32 -5 0 -18 51 -24 95 0
6 -4 17 -7 25 -4 8 -8 26 -9 40 -2 14 -6 27 -9 30 -5 5 -70 239 -74 270 -1 8
-5 22 -8 30 -4 8 -24 83 -46 167 -42 159 -76 249 -117 314 -13 21 -24 41 -24
45 0 3 -40 46 -90 95 -49 49 -90 86 -90 83 0 -4 -8 0 -17 8 -10 9 -35 24 -56
35 l-37 19 57 29 c31 15 73 43 94 62 20 18 39 33 42 33 10 0 55 49 50 54 -3 2
4 11 16 18 12 7 21 16 21 19 0 4 16 33 35 65 20 32 43 82 52 111 9 29 20 53
24 53 4 0 5 9 2 20 -3 11 -1 20 3 20 5 0 10 15 11 33 1 17 11 151 22 297 11
146 20 295 20 332 0 41 5 69 12 74 7 4 9 3 5 -4 -3 -6 -2 -13 4 -17 6 -4 10 5
10 20 0 15 -4 24 -10 20 -6 -4 -10 16 -10 54 0 33 5 63 11 66 6 4 8 22 5 44
-4 20 -2 90 4 156 5 66 12 165 15 220 3 55 10 163 15 240 18 260 11 370 -29
487 -10 29 -20 60 -22 68 -2 8 -7 17 -10 20 -3 3 -19 30 -34 60 -34 64 -36 67
-117 145 -104 101 -109 105 -118 105 -6 0 -10 5 -10 11 0 5 -4 8 -8 5 -5 -3
-19 4 -31 15 -12 12 -28 22 -34 23 -26 4 -77 29 -77 38 0 6 -6 8 -14 5 -7 -3
-24 0 -37 6 -13 7 -40 14 -59 16 -19 1 -38 5 -42 7 -4 3 -286 4 -628 4 -492 0
-621 2 -624 12 -3 13 -25 138 -29 168 -1 8 -5 17 -8 20 -6 5 -39 78 -37 83 4
11 -148 167 -162 167 -6 0 -10 5 -10 10 0 6 -6 10 -13 10 -7 0 -24 8 -37 17
-14 10 -33 19 -43 20 -10 2 -28 8 -40 15 -12 6 -38 13 -57 15 -19 2 -39 7 -45
11 -5 4 -185 5 -400 1z m433 -174 c4 -5 16 -11 27 -13 48 -8 181 -105 169
-123 -3 -5 0 -9 6 -9 17 0 68 -119 75 -177 l7 -53 -691 0 -691 0 0 33 c0 19 3
37 7 41 4 4 8 13 9 19 0 7 2 20 2 29 2 12 8 16 20 12 13 -5 14 -4 4 4 -28 19
40 119 119 178 100 73 106 74 542 71 245 -1 390 -6 395 -12z m1662 -534 c30
-5 69 -15 85 -22 17 -7 36 -13 43 -15 34 -7 130 -62 161 -94 19 -19 32 -28 27
-20 -4 8 12 -5 35 -30 52 -55 121 -159 113 -171 -3 -5 -1 -9 5 -9 9 0 48 -108
50 -140 4 -51 3 -278 -1 -345 -3 -44 -6 -88 -7 -98 0 -10 -5 -15 -11 -12 -5 3
-10 -1 -10 -10 0 -9 5 -13 10 -10 6 3 10 2 10 -4 0 -5 -5 -11 -11 -13 -9 -3
-9 -10 1 -27 7 -14 10 -40 6 -65 -6 -42 -14 -162 -20 -276 -1 -36 -5 -90 -9
-120 -3 -30 -9 -118 -12 -195 -3 -77 -11 -187 -17 -245 -12 -115 -18 -207 -18
-286 0 -91 -27 -201 -67 -276 -42 -79 -98 -143 -115 -132 -6 4 -8 3 -4 -4 11
-17 -55 -77 -123 -111 -35 -18 -97 -41 -139 -52 -73 -18 -131 -19 -2033 -19
-1785 0 -1965 1 -2034 17 -41 9 -75 20 -75 25 0 5 -4 7 -8 4 -24 -15 -171 83
-235 156 -110 125 -135 211 -153 523 -8 122 -16 222 -34 400 -5 55 -10 114 -9
130 0 17 -4 75 -10 130 -12 111 -23 289 -24 378 -1 31 -4 57 -7 57 -9 0 -34
406 -25 419 3 6 8 31 10 56 2 24 7 50 11 57 5 7 9 19 10 28 3 29 36 100 47
100 6 0 7 3 4 6 -12 12 78 127 138 177 63 53 187 118 233 122 15 1 35 6 45 10
9 4 24 5 32 2 8 -4 17 -2 20 3 8 13 4039 13 4115 1z m-2297 -2972 c65 -10 73
-17 68 -51 0 -4 6 -5 15 -1 12 5 13 7 3 14 -8 4 -11 10 -9 13 6 6 98 -39 129
-62 14 -12 24 -29 24 -45 0 -15 3 -27 8 -27 4 0 6 9 4 20 -3 17 -1 19 16 9 11
-5 24 -21 29 -33 5 -13 16 -26 25 -30 9 -3 13 -10 10 -16 -3 -5 -2 -10 4 -10
13 0 52 -75 44 -84 -4 -3 -2 -6 3 -6 17 0 37 -69 25 -84 -9 -10 -8 -15 4 -20
17 -6 21 -81 5 -106 -7 -11 -10 2 -12 45 l-2 60 -3 -53 c-2 -30 1 -59 7 -67
10 -12 1 -82 -17 -125 -3 -8 -7 -22 -8 -30 -6 -49 -38 -171 -46 -175 -5 -4 -7
-11 -4 -16 4 -5 1 -9 -6 -9 -7 0 -10 -3 -6 -6 19 -19 -89 -147 -150 -178 -41
-20 -47 -20 -38 2 5 13 4 14 -6 5 -10 -10 -18 -9 -38 2 -42 23 -153 62 -196
70 -22 4 -44 10 -50 13 -5 4 -467 5 -1025 2 -925 -5 -1019 -7 -1057 -22 -24
-9 -43 -13 -43 -8 0 6 -4 10 -10 10 -5 0 -7 -6 -5 -12 3 -8 -19 -24 -54 -41
-33 -16 -62 -35 -65 -43 -3 -8 -10 -14 -15 -14 -5 0 1 27 14 60 13 33 24 63
24 65 -1 12 14 71 19 80 4 6 7 15 7 20 1 20 28 120 37 139 6 10 11 28 13 40 5
38 28 121 36 132 5 6 6 14 3 17 -3 3 -2 12 2 19 5 7 10 22 11 33 2 11 6 27 10
35 3 8 7 20 8 25 1 6 3 13 5 18 1 4 3 10 4 15 7 33 32 102 37 102 3 0 6 6 6
13 0 20 58 101 112 155 26 26 75 62 109 80 68 36 157 66 172 57 5 -3 11 -1 14
3 8 14 1716 14 1799 1z m2340 -20 c31 -14 54 -29 50 -34 -5 -4 -2 -5 4 -1 13
7 73 -22 73 -36 0 -4 6 -8 14 -8 8 0 21 -9 29 -20 8 -11 16 -18 19 -15 3 3 26
-19 52 -50 26 -30 45 -55 41 -55 -4 0 0 -7 8 -15 33 -33 57 -86 86 -189 24
-83 28 -112 20 -123 -7 -7 -9 -16 -5 -20 3 -3 6 0 6 7 0 35 20 -13 45 -105 14
-55 28 -108 31 -117 3 -10 1 -18 -5 -18 -5 0 -12 8 -14 18 -3 11 -5 7 -6 -10
0 -15 4 -30 11 -34 7 -5 8 -3 3 6 -5 8 -3 11 5 8 20 -6 24 -28 6 -28 -18 0
-20 -8 -6 -30 8 -13 10 -12 10 3 0 49 36 -40 45 -113 1 -8 8 -28 14 -45 8 -20
9 -31 2 -33 -6 -2 -11 -8 -11 -13 0 -6 5 -7 10 -4 9 5 14 -9 8 -18 -2 -2 2
-10 9 -18 11 -14 34 -88 37 -119 1 -9 5 -21 10 -28 4 -6 5 -16 2 -21 -4 -5 -1
-11 4 -13 6 -2 12 -19 13 -38 1 -19 6 -41 11 -48 5 -8 1 -21 -9 -32 -16 -17
-16 -21 -2 -34 12 -12 17 -13 20 -3 2 6 6 10 9 7 6 -7 79 -275 82 -303 1 -13
6 -29 10 -36 14 -23 15 -143 2 -175 -29 -68 -139 -133 -238 -141 -29 -3 -47
-3 -40 1 6 3 12 12 12 19 0 8 7 21 16 29 8 9 13 16 9 16 -3 0 -3 6 1 12 19 30
30 158 14 158 -7 0 -10 7 -6 16 4 9 2 22 -3 28 -7 9 -95 364 -104 421 -1 11
-6 26 -11 33 -4 7 -6 16 -3 18 3 3 -1 21 -9 40 -8 18 -13 37 -12 41 0 5 -1 15
-4 23 -10 26 -59 224 -62 250 -2 14 -6 32 -10 41 -4 9 -8 29 -10 45 -2 16 -5
29 -6 29 -1 0 -4 9 -6 20 -1 11 -5 29 -8 40 -4 11 -28 106 -55 210 -54 211
-63 237 -95 280 -12 16 -26 39 -29 49 -4 10 -10 16 -14 13 -3 -4 -19 5 -35 18
-16 14 -34 25 -40 25 -6 0 -7 7 -4 16 5 13 4 14 -7 6 -8 -7 -16 -9 -20 -6 -25
25 -151 29 -837 23 -393 -3 -722 -7 -730 -10 -35 -12 -119 -60 -149 -85 -18
-14 -33 -25 -35 -23 -7 8 -40 114 -38 122 1 4 -2 7 -6 7 -13 0 -54 79 -47 90
3 5 0 7 -8 4 -18 -7 -60 44 -52 64 3 9 0 12 -9 9 -8 -3 -25 2 -37 12 -22 18 8
18 952 17 l974 -1 58 -26z m-97 -354 c10 -8 14 -15 7 -15 -7 0 -10 -7 -6 -17
5 -14 8 -12 15 7 l9 23 28 -29 c34 -35 56 -77 65 -123 5 -27 3 -32 -9 -27 -8
3 -17 1 -20 -4 -6 -9 7 -14 31 -11 12 1 37 -96 28 -110 -3 -5 -1 -9 4 -9 13 0
22 -63 11 -74 -5 -6 -9 -17 -9 -25 0 -14 2 -14 10 -1 12 19 15 14 29 -44 13
-51 8 -75 -7 -35 -5 13 -12 31 -15 39 -3 9 -6 3 -6 -13 -1 -18 8 -37 25 -52
15 -14 24 -25 21 -25 -3 0 1 -16 9 -35 8 -20 12 -40 9 -45 -3 -5 0 -12 6 -15
5 -4 8 -13 5 -21 -3 -7 -1 -16 4 -19 16 -10 12 -38 -5 -31 -17 6 -18 4 -9 -19
5 -13 9 -14 15 -4 4 8 11 10 16 6 4 -4 2 -17 -5 -27 -10 -16 -9 -18 3 -14 9 4
15 0 15 -7 0 -8 3 -25 7 -38 4 -17 3 -22 -5 -17 -7 4 -12 2 -12 -3 0 -6 5 -11
10 -11 19 0 10 -22 -22 -51 -17 -17 -37 -28 -45 -25 -7 3 -13 2 -13 -2 0 -4
-428 -8 -950 -9 -616 -1 -950 2 -950 8 0 6 -4 7 -10 4 -5 -3 -10 -1 -10 5 0 6
-4 9 -9 5 -11 -6 -44 33 -61 74 -15 36 -5 165 12 155 6 -4 8 1 3 15 -3 11 -3
26 2 33 4 7 8 18 8 23 2 33 18 96 26 101 5 3 7 9 4 14 -5 8 27 159 42 200 3 8
7 22 8 30 1 9 10 40 21 69 19 54 107 161 132 161 6 0 12 5 12 11 0 5 5 7 10 4
6 -3 10 -2 10 4 0 24 120 29 786 30 601 1 703 -1 720 -14z m-2506 -764 c3 -2
32 -4 65 -5 33 -1 76 -10 95 -19 19 -9 54 -23 78 -31 56 -20 134 -74 126 -88
-4 -7 -2 -8 4 -4 7 4 12 2 12 -4 0 -6 4 -9 9 -6 8 5 48 -31 44 -41 -1 -3 -7
-10 -15 -15 -9 -7 -7 -8 8 -4 13 4 27 -1 39 -14 10 -11 15 -20 11 -20 -4 0 2
-10 13 -21 11 -12 32 -51 47 -88 49 -117 41 -309 -16 -421 -38 -74 -136 -165
-185 -172 -11 -2 -26 -7 -32 -11 -7 -4 -57 -8 -110 -8 -1317 2 -2121 6 -2117
12 2 4 -1 9 -6 11 -13 4 -29 70 -30 119 0 55 28 131 69 185 20 27 40 48 44 47
3 -2 18 9 31 22 14 14 36 25 50 25 13 0 26 5 28 12 3 7 10 8 17 4 11 -7 11
-10 0 -17 -11 -7 -10 -9 4 -9 12 0 17 6 15 18 -3 16 24 17 447 17 248 0 458
-3 467 -8 9 -4 19 -3 22 1 2 4 23 9 45 10 22 2 66 10 98 18 32 9 63 17 68 18
12 3 103 51 128 69 26 18 108 97 101 97 -4 0 -2 6 4 13 13 16 32 87 24 87 -4
0 -16 13 -27 29 -12 18 -23 27 -30 21 -5 -4 -23 -10 -40 -12 -19 -2 -46 -20
-80 -54 -55 -57 -140 -106 -189 -110 -17 -1 -38 -5 -46 -8 -9 -4 -237 -5 -508
-4 -270 2 -492 0 -492 -4 0 -5 -11 -8 -25 -8 -14 0 -41 -7 -60 -14 -19 -8 -35
-12 -35 -8 0 4 -4 2 -8 -3 -8 -11 -93 -69 -102 -70 -9 0 -44 -38 -63 -65 -9
-14 -30 -45 -48 -69 -17 -24 -32 -51 -34 -60 -8 -41 -30 -117 -35 -121 -3 -3
-5 -32 -5 -65 0 -42 -4 -59 -12 -58 -7 2 -10 -4 -6 -13 5 -12 7 -13 14 -3 10
16 14 12 22 -22 7 -26 6 -26 -46 -24 -59 2 -157 46 -157 70 0 8 -7 15 -15 15
-8 0 -22 11 -31 25 -18 28 -36 104 -27 119 3 4 7 25 8 45 2 20 9 50 15 66 7
17 14 43 16 59 3 17 8 32 12 35 4 4 7 11 7 16 1 29 18 95 24 95 4 0 8 14 9 32
3 38 51 148 64 148 5 0 7 4 3 9 -3 6 3 14 12 20 10 6 14 11 8 11 -14 0 87 100
102 100 7 0 13 5 13 10 0 6 6 10 14 10 8 0 21 7 29 15 9 8 49 26 90 39 63 21
95 24 212 25 77 1 140 3 141 4 3 3 1598 1 1604 -2z m2846 -287 c0 -5 6 -28 12
-51 13 -45 14 -133 0 -133 -4 0 -7 -5 -5 -11 1 -6 -7 -16 -18 -22 -11 -7 -23
-16 -27 -22 -9 -12 -463 -16 -495 -4 -13 5 -23 5 -23 1 0 -13 -102 -13 -118 0
-11 9 -14 9 -9 1 5 -8 -14 -11 -73 -11 -54 0 -80 3 -80 11 0 9 -2 9 -8 1 -5
-9 -165 -11 -600 -10 -575 2 -593 3 -620 22 -15 11 -35 36 -44 55 -17 33 -50
169 -41 169 2 0 18 -8 36 -17 18 -9 37 -17 44 -17 7 -1 19 -10 28 -21 12 -16
14 -17 9 -2 -6 16 41 17 934 17 516 0 947 2 956 6 9 4 20 4 23 0 4 -3 17 1 30
9 17 12 23 12 24 3 0 -7 5 -2 10 11 8 19 12 21 24 11 13 -11 14 -10 9 5 -5 13
-3 16 7 13 8 -3 14 -9 15 -14z m91 -357 c0 -7 3 -25 7 -40 8 -34 -7 -35 -22
-1 -7 14 -17 22 -23 18 -8 -5 -6 -10 5 -16 9 -5 14 -13 11 -18 -3 -5 6 -12 20
-16 24 -6 25 -10 24 -68 -1 -45 -8 -72 -26 -104 -13 -23 -28 -40 -34 -37 -5 4
-9 1 -9 -5 0 -17 -62 -39 -116 -41 -27 -1 -85 0 -129 3 -44 2 -133 2 -198 -1
-64 -3 -117 -3 -117 0 0 5 -684 5 -705 0 -5 -2 -26 -2 -46 -1 -152 7 -509 4
-532 -5 -19 -7 -33 -6 -46 2 -10 6 -28 9 -39 7 -11 -3 -35 2 -53 12 -19 10
-40 19 -48 20 -19 4 -87 60 -83 69 2 5 -3 12 -12 17 -21 12 -47 74 -39 93 3 9
0 21 -6 29 -8 9 -8 21 -2 40 13 32 39 25 35 -10 -1 -13 2 -24 7 -24 5 0 9 5 9
11 0 8 6 7 18 -2 15 -13 16 -12 3 3 -7 10 -18 15 -25 11 -7 -4 -8 -2 -1 5 7 8
23 8 50 2 22 -5 57 -10 78 -10 23 0 36 -4 32 -10 -3 -6 4 -10 17 -10 18 0 20
2 8 10 -10 7 9 10 63 10 50 0 76 -4 72 -10 -3 -5 3 -10 15 -10 12 0 18 5 15
10 -4 6 6 10 22 9 25 0 26 -1 8 -9 -16 -7 -12 -9 18 -9 23 -1 36 3 32 9 -4 6
19 10 62 9 47 0 62 -3 48 -9 -13 -5 24 -9 100 -9 76 0 113 4 100 9 -12 5 36 9
128 9 96 1 146 -2 142 -9 -4 -6 8 -10 29 -10 19 0 38 5 41 10 3 6 26 10 51 10
28 0 43 -4 39 -10 -4 -6 8 -10 29 -10 20 0 36 5 36 10 0 6 94 10 263 9 155 0
254 -4 242 -9 -16 -7 -12 -9 18 -9 23 -1 36 3 32 9 -3 6 1 10 10 10 9 0 14 -4
11 -9 -6 -9 80 -8 90 2 3 3 17 2 31 -4 13 -5 22 -5 19 0 -3 5 5 9 17 9 36 0
129 29 162 52 35 23 42 24 42 7z m423 -734 c-1 -321 -9 -443 -32 -443 -4 0 -8
5 -8 12 0 6 -3 8 -6 5 -4 -4 -2 -12 4 -19 8 -10 2 -29 -21 -73 -29 -54 -35
-60 -62 -58 -30 2 -30 2 -5 -8 25 -10 25 -10 -33 -63 -66 -61 -153 -107 -248
-130 -59 -14 -294 -16 -2452 -16 -1467 0 -2388 4 -2392 9 -3 5 -21 7 -40 4
-19 -3 -35 -2 -35 3 0 5 -11 10 -25 10 -33 2 -155 60 -155 74 0 6 -4 9 -9 5
-5 -3 -19 7 -30 21 -12 15 -21 23 -21 18 0 -30 -117 137 -125 177 -2 12 -8 26
-13 33 -25 31 -31 118 -30 436 0 184 2 327 5 317 2 -10 12 -17 21 -16 17 2 53
-10 106 -37 25 -12 408 -14 2740 -14 l2711 0 70 36 c39 19 72 39 73 45 2 5 6
9 8 9 3 0 4 -152 4 -337z"/>
<path d="M3215 4711 c-67 -19 -158 -65 -148 -74 3 -4 -1 -9 -9 -12 -12 -5 -14
-14 -8 -38 13 -53 20 -65 50 -77 26 -11 37 -8 97 21 l68 33 665 2 c458 1 671
-2 685 -9 23 -12 37 -17 80 -24 23 -3 37 2 59 22 24 23 27 31 21 62 -7 39 -23
68 -40 73 -5 2 -18 5 -27 8 -10 2 -18 8 -18 13 0 5 -6 6 -14 3 -8 -3 -17 -1
-20 5 -5 7 -228 10 -694 10 -624 0 -693 -2 -747 -18z"/>
</g>
</svg>
