<?xml version="1.0" standalone="no"?>
<!DOCTYPE svg PUBLIC "-//W3C//DTD SVG 20010904//EN"
 "http://www.w3.org/TR/2001/REC-SVG-20010904/DTD/svg10.dtd">
<svg version="1.0" xmlns="http://www.w3.org/2000/svg"
 width="1024.000000pt" height="1024.000000pt" viewBox="0 0 1024.000000 1024.000000"
 preserveAspectRatio="xMidYMid meet">
<metadata>
Created by potrace 1.16, written by Peter Selinger 2001-2019
</metadata>
<g transform="translate(0.000000,1024.000000) scale(0.100000,-0.100000)"
fill="#000000" stroke="none">
<path d="M5055 8409 c-28 -8 -68 -37 -235 -173 -153 -124 -400 -266 -645 -371
-422 -181 -962 -290 -1597 -324 -145 -7 -160 -10 -196 -34 -69 -45 -84 -82
-93 -226 -11 -180 -11 -932 1 -1151 21 -404 72 -830 122 -1028 8 -32 7 -46 -2
-57 -11 -13 -10 -15 1 -10 11 4 23 -33 53 -158 21 -89 60 -229 87 -312 30 -92
45 -153 39 -159 -6 -6 -13 0 -19 15 l-10 24 2 -26 c1 -21 6 -26 22 -23 17 3
25 -11 59 -99 21 -56 65 -163 98 -237 33 -74 60 -139 61 -145 1 -5 5 -12 8
-15 3 -3 30 -50 59 -105 157 -292 334 -552 537 -787 51 -60 93 -110 93 -112 0
-2 31 -34 70 -71 38 -37 67 -72 63 -78 -3 -6 -2 -7 4 -4 5 3 27 -12 49 -35 53
-55 272 -250 364 -324 197 -159 493 -354 678 -449 40 -20 72 -40 72 -44 0 -4
6 -8 13 -8 6 0 62 -22 122 -48 121 -53 196 -66 261 -45 65 20 392 184 514 257
539 324 1076 834 1415 1346 32 48 61 87 65 87 4 0 7 6 7 13 0 6 32 64 70 127
340 564 540 1180 637 1960 27 211 46 459 46 593 0 70 3 127 8 127 9 0 -3 991
-13 1058 -12 81 -65 144 -144 171 -19 6 -129 16 -244 21 -589 28 -1053 128
-1522 327 -281 120 -446 219 -696 420 -152 122 -195 139 -284 112z m109 -193
c20 -19 40 -35 42 -34 3 0 33 -22 67 -49 483 -384 1166 -639 1937 -723 74 -8
494 -39 533 -40 4 0 7 -6 7 -14 0 -8 5 -16 11 -18 7 -2 14 -38 18 -83 8 -110
8 -1081 -1 -1235 -22 -401 -93 -856 -189 -1205 -45 -167 -129 -415 -140 -415
-6 0 -8 -4 -4 -9 6 -10 -70 -209 -85 -225 -10 -10 -31 3 -315 184 -139 89
-162 107 -152 120 10 13 10 13 -4 2 -14 -11 -34 -1 -135 66 -66 43 -198 130
-294 192 -96 62 -213 138 -260 168 -236 154 -690 448 -728 471 -120 72 -207
133 -204 142 1 6 -2 8 -7 5 -5 -3 -32 5 -59 19 -65 32 -108 32 -173 -3 -58
-31 -321 -200 -899 -577 -738 -482 -1238 -800 -1245 -793 -27 27 -201 510
-190 528 3 6 2 10 -3 10 -11 0 -65 198 -57 210 4 6 1 10 -6 10 -6 0 -9 8 -6
20 3 10 1 20 -3 22 -10 3 -57 231 -89 423 -29 179 -54 416 -55 535 -1 58 -5
108 -11 112 -16 12 -14 1300 3 1306 6 2 10 8 6 13 -10 16 45 29 124 29 136 0
526 38 719 70 392 65 773 184 1100 342 207 100 366 200 572 360 70 54 128 98
132 98 3 0 22 -15 43 -34z m-21 -2838 c93 -50 1057 -673 1074 -695 6 -8 14
-13 18 -12 15 4 335 -213 328 -224 -3 -6 -1 -7 6 -3 7 5 68 -29 149 -82 75
-49 167 -108 205 -131 37 -24 67 -46 67 -50 0 -4 6 -8 13 -8 8 0 33 -13 58
-30 24 -17 86 -56 137 -87 l92 -57 -24 -42 c-13 -23 -50 -89 -81 -147 -130
-236 -326 -516 -502 -721 -164 -189 -462 -477 -477 -461 -4 4 -6 2 -4 -5 7
-26 -395 -325 -612 -453 -187 -112 -420 -220 -472 -220 -70 0 -380 157 -628
319 -148 96 -271 191 -264 203 4 7 3 8 -5 4 -20 -13 -370 284 -363 308 2 6 0
7 -4 3 -10 -10 -155 134 -147 146 3 6 2 7 -4 4 -5 -4 -58 49 -116 116 -117
135 -151 177 -143 177 2 0 -8 12 -23 28 -44 44 -213 287 -293 422 -91 153
-168 293 -168 308 0 13 88 75 107 75 7 0 13 4 13 8 0 4 17 18 38 30 137 84
979 630 1252 812 58 39 111 70 117 70 7 0 11 2 8 5 -7 8 602 401 623 402 2 0
13 -5 25 -12z"/>
</g>
</svg>
