<?xml version="1.0" standalone="no"?>
<!DOCTYPE svg PUBLIC "-//W3C//DTD SVG 20010904//EN"
 "http://www.w3.org/TR/2001/REC-SVG-20010904/DTD/svg10.dtd">
<svg version="1.0" xmlns="http://www.w3.org/2000/svg"
 width="1024.000000pt" height="1024.000000pt" viewBox="0 0 1024.000000 1024.000000"
 preserveAspectRatio="xMidYMid meet">
<metadata>
Created by potrace 1.16, written by Peter Selinger 2001-2019
</metadata>
<g transform="translate(0.000000,1024.000000) scale(0.100000,-0.100000)"
fill="#000000" stroke="none">
<path d="M4385 8240 c-3 -5 -11 -8 -18 -6 -7 1 -8 1 -4 -2 5 -2 -4 -18 -21
-36 -16 -17 -59 -74 -96 -126 -38 -52 -72 -94 -78 -92 -5 1 -7 -2 -4 -7 8 -13
-64 -132 -76 -125 -5 3 -8 -1 -6 -9 4 -18 -63 -158 -73 -151 -4 2 -7 -4 -7
-13 1 -27 -83 -226 -101 -241 -9 -8 -10 -10 -2 -6 10 5 13 2 9 -12 -3 -10 -14
-47 -23 -81 -10 -34 -21 -61 -24 -59 -3 2 -6 -10 -7 -27 0 -18 -11 -86 -23
-152 -15 -83 -24 -176 -27 -300 -3 -99 -7 -188 -9 -198 -2 -9 1 -15 6 -11 5 3
9 -19 9 -48 0 -29 9 -102 20 -163 10 -60 17 -112 14 -116 -2 -4 -1 -9 3 -11 9
-4 45 -132 47 -165 1 -12 3 -19 6 -17 8 8 40 -98 33 -109 -3 -5 -2 -7 4 -4 12
8 45 -71 36 -86 -4 -6 -1 -7 7 -2 10 6 12 4 7 -9 -4 -9 -3 -15 2 -12 4 3 14
-7 22 -22 7 -15 15 -31 18 -36 2 -5 -26 8 -64 29 -38 21 -90 50 -117 64 -39
21 -45 27 -31 34 13 5 10 6 -8 2 -26 -5 -224 67 -213 77 3 3 -5 6 -18 5 -13 0
-68 11 -123 26 -55 14 -121 29 -147 32 -26 4 -45 11 -42 16 3 5 -1 6 -9 3 -8
-3 -50 -1 -93 5 -44 5 -125 13 -181 17 -57 3 -103 10 -103 16 0 5 5 6 12 2 7
-4 8 -3 4 4 -10 17 -26 15 -26 -2 0 -8 -15 -19 -33 -25 -37 -12 -39 -19 -36
-101 1 -30 3 -74 3 -97 1 -22 4 -39 9 -36 4 2 7 -5 7 -17 0 -12 9 -67 21 -122
17 -83 18 -102 7 -110 -10 -8 -9 -9 3 -5 13 4 19 -4 27 -36 6 -22 8 -45 6 -49
-9 -14 7 -89 16 -83 5 3 7 13 4 23 -2 9 2 4 10 -13 7 -16 17 -41 20 -55 7 -25
7 -25 -10 -5 -15 18 -16 18 -10 2 3 -10 6 -21 6 -23 0 -2 6 -4 14 -4 7 0 19
-15 26 -32 28 -70 119 -247 162 -313 56 -88 158 -216 216 -272 26 -25 41 -47
36 -54 -5 -8 -3 -9 5 -4 15 9 83 -53 74 -68 -3 -6 -1 -7 5 -3 5 3 49 -23 97
-60 48 -36 112 -79 141 -96 30 -16 52 -34 48 -39 -3 -5 1 -7 8 -4 7 3 40 -11
73 -31 33 -19 52 -33 43 -30 -10 3 -18 0 -18 -5 0 -7 11 -9 27 -6 31 6 341
-123 355 -148 5 -8 14 -15 21 -15 7 0 6 4 -3 10 -25 16 -6 11 38 -10 24 -12
40 -25 37 -30 -3 -5 0 -12 6 -16 8 -4 9 -3 5 4 -11 17 2 15 45 -10 21 -11 36
-25 33 -29 -3 -5 2 -6 10 -3 9 3 16 1 16 -5 0 -6 3 -10 8 -9 4 2 23 -7 44 -20
29 -18 35 -27 30 -45 -5 -19 -3 -20 11 -9 14 12 25 6 87 -43 43 -34 68 -61 64
-68 -4 -7 -3 -9 1 -4 11 10 86 -63 78 -76 -3 -6 -1 -7 5 -3 13 8 95 -91 86
-105 -3 -5 -1 -8 5 -7 6 2 24 -17 40 -42 22 -32 27 -46 18 -52 -8 -5 -6 -8 6
-8 13 0 29 -24 57 -82 74 -159 104 -278 69 -278 -5 0 -9 -5 -9 -11 0 -5 5 -7
10 -4 7 4 10 -49 10 -152 0 -187 20 -378 57 -552 15 -69 26 -144 26 -165 -1
-22 2 -34 7 -27 5 9 9 5 13 -11 10 -34 8 -40 -5 -33 -7 4 -6 1 2 -7 17 -15 52
-119 47 -139 -2 -8 -2 -10 1 -5 3 5 13 -13 23 -40 30 -77 32 -87 20 -80 -6 4
-11 2 -11 -3 0 -6 5 -11 10 -11 19 0 37 -24 33 -45 -2 -11 -1 -14 3 -8 3 8 15
11 29 7 18 -4 31 1 49 20 31 30 32 41 6 107 -12 29 -19 58 -16 66 3 8 2 12 -2
9 -18 -11 -105 309 -139 511 -22 134 -26 583 -5 673 26 116 45 179 53 175 4
-3 11 0 15 6 4 8 3 9 -4 5 -15 -9 -15 -6 4 40 25 63 47 103 55 98 4 -2 11 1
15 7 4 8 3 9 -4 5 -20 -12 -14 5 30 81 24 42 46 70 52 66 6 -3 8 -3 4 2 -8 9
11 39 85 133 37 47 52 60 59 50 6 -9 8 -8 6 7 -2 12 2 19 10 17 8 -1 11 1 8 6
-7 12 48 64 58 55 4 -5 7 -3 6 2 -5 22 1 29 11 15 9 -13 10 -13 6 1 -6 19 35
63 48 52 4 -5 5 -3 2 4 -4 6 14 29 44 54 41 34 53 40 61 28 8 -11 9 -11 4 3
-3 12 7 27 33 47 21 17 41 28 45 24 3 -3 6 -1 6 5 0 6 25 29 57 51 55 40 81
51 68 31 -3 -6 1 -7 10 -3 11 4 13 8 5 13 -12 7 65 63 87 63 7 0 13 4 13 9 0
13 182 128 193 121 6 -3 7 -1 3 5 -8 13 28 35 39 24 3 -4 5 0 3 8 -2 9 4 14
14 14 10 -1 16 2 13 6 -7 12 36 41 48 33 6 -3 7 -2 4 4 -7 10 101 100 115 95
5 -1 7 2 4 7 -10 15 71 81 94 76 11 -2 18 0 15 6 -4 5 -12 6 -18 2 -7 -4 3 12
21 35 19 23 38 40 42 37 5 -3 12 0 16 6 5 8 3 9 -7 4 -8 -5 -6 1 5 13 10 12
23 19 29 15 5 -3 7 -1 3 5 -3 6 11 31 33 56 21 24 53 65 71 90 18 25 36 43 41
41 4 -3 11 0 15 6 4 8 3 9 -4 5 -19 -12 -14 0 28 65 90 140 191 378 236 559
73 292 74 655 3 927 -11 43 -27 85 -35 94 -12 13 -12 18 -2 21 7 3 -20 3 -59
2 -40 -1 -76 -4 -80 -7 -4 -3 -31 -8 -59 -12 -28 -3 -103 -20 -165 -37 -63
-17 -129 -31 -147 -31 -20 0 -28 -3 -20 -9 13 -7 -4 -12 -39 -11 -7 1 -13 -3
-13 -7 0 -4 -21 -15 -47 -25 -27 -10 -86 -37 -133 -60 -47 -23 -92 -40 -102
-38 -9 2 -19 -1 -23 -6 -4 -7 1 -8 12 -5 13 5 12 2 -5 -10 -12 -10 -28 -14
-35 -10 -6 4 -9 4 -5 -1 11 -11 -60 -58 -74 -49 -6 4 -8 3 -5 -3 6 -9 -83 -82
-92 -75 -2 2 -8 -3 -13 -12 -5 -9 -14 -13 -20 -10 -6 4 -8 2 -4 -4 7 -12 -33
-44 -46 -36 -5 3 -7 0 -6 -8 2 -7 -3 -12 -10 -10 -8 1 -11 -1 -8 -6 7 -12 -68
-84 -78 -75 -4 5 -6 3 -4 -3 4 -15 -60 -86 -72 -79 -5 3 -12 0 -16 -6 -4 -8
-3 -9 4 -5 17 10 15 -9 -1 -23 -8 -6 -18 -7 -22 -3 -5 4 -5 1 -1 -6 9 -16 -12
-44 -27 -35 -6 3 -7 1 -3 -5 4 -7 2 -20 -3 -29 -9 -16 -10 -16 -11 -2 0 33 13
79 21 73 5 -3 9 -1 9 5 0 5 -6 12 -12 14 -10 4 -9 8 2 16 8 6 10 11 4 11 -7 0
-13 43 -17 118 -12 224 -64 458 -148 672 -23 58 -41 116 -41 129 0 16 -3 20
-8 11 -6 -9 -9 -8 -14 6 -3 11 -31 64 -61 118 -30 54 -52 103 -48 109 3 6 1 7
-4 4 -13 -8 -85 101 -76 116 3 5 1 7 -4 4 -16 -10 -44 27 -37 49 4 13 3 15 -3
6 -7 -10 -19 -1 -46 34 -20 26 -34 51 -30 57 3 5 2 7 -4 4 -13 -8 -86 67 -76
78 5 4 3 5 -3 2 -12 -7 -87 65 -79 76 3 4 2 5 -1 2 -11 -7 -74 47 -67 58 3 5
2 7 -3 4 -12 -7 -100 61 -96 75 1 5 -1 7 -6 4 -5 -3 -40 18 -78 45 -38 28 -88
62 -111 76 -24 14 -43 31 -43 38 0 7 -7 16 -16 19 -15 6 -15 4 -3 -10 12 -14
-120 50 -188 92 -26 16 -69 18 -78 4z m56 -160 c6 0 7 5 4 10 -8 13 -2 13 29
-1 14 -7 23 -16 19 -22 -3 -6 -1 -7 5 -3 15 9 75 -22 67 -34 -3 -6 0 -7 8 -4
19 7 200 -113 191 -128 -4 -7 -3 -8 5 -4 20 13 327 -246 315 -265 -3 -5 0 -9
6 -9 6 0 8 -5 4 -12 -5 -7 -2 -9 9 -5 16 6 31 -16 29 -43 -1 -11 0 -11 4 -2 5
10 9 10 20 1 8 -6 11 -15 8 -20 -3 -5 2 -12 11 -15 24 -9 86 -95 78 -108 -3
-6 -3 -8 2 -4 11 11 48 -40 39 -54 -4 -7 -4 -10 1 -6 9 9 33 -25 85 -116 27
-48 30 -60 19 -68 -11 -8 -10 -8 5 -4 14 5 17 2 12 -9 -3 -9 -2 -14 3 -11 11
7 33 -43 25 -56 -4 -6 -2 -8 3 -5 6 4 20 -17 32 -49 26 -69 26 -71 -1 -48 -14
12 -18 13 -10 3 6 -9 9 -19 5 -22 -3 -4 3 -7 15 -7 16 0 24 -11 38 -52 9 -29
19 -59 22 -67 3 -9 1 -12 -6 -7 -7 4 -12 3 -12 -2 0 -6 6 -12 13 -15 28 -11
71 -223 86 -430 10 -129 6 -201 -10 -191 -5 3 -6 10 -3 16 4 6 3 8 -2 5 -5 -3
-9 -18 -8 -34 7 -91 7 -90 15 -43 5 31 6 14 4 -53 -3 -54 -7 -103 -11 -109 -4
-5 -8 -28 -9 -49 -5 -58 -66 -324 -75 -327 -5 -2 -6 -10 -4 -17 3 -8 -24 -126
-61 -262 -37 -136 -72 -266 -78 -287 -9 -34 -12 -37 -19 -20 -7 15 -7 14 -3
-6 7 -33 -35 -191 -48 -183 -6 3 -7 1 -4 -5 10 -15 -14 -112 -26 -105 -6 3 -7
1 -3 -6 4 -6 -5 -56 -20 -111 -16 -55 -31 -95 -35 -89 -3 6 -11 -4 -18 -22
-16 -45 -13 -60 5 -24 12 26 14 27 9 5 -2 -14 -5 -31 -5 -38 0 -7 -5 -10 -12
-6 -6 4 -8 3 -4 -4 3 -6 -5 -57 -19 -114 -15 -57 -26 -111 -26 -120 0 -35 -16
-17 -27 31 -6 27 -32 106 -57 175 -25 70 -43 132 -39 138 5 7 3 8 -6 3 -10 -6
-12 -4 -7 9 5 11 3 15 -5 10 -8 -5 -9 -1 -4 12 4 10 4 15 0 11 -11 -11 -74
120 -68 140 4 14 3 15 -4 5 -7 -11 -10 -10 -16 3 -3 9 -3 22 1 27 3 7 1 8 -5
4 -7 -4 -18 7 -28 25 -9 18 -36 63 -60 101 -24 37 -42 68 -40 68 3 0 -4 10
-14 23 -65 75 -159 211 -153 220 3 5 2 7 -4 4 -11 -7 -200 212 -195 226 1 5
-1 6 -6 3 -12 -7 -73 79 -64 89 4 5 2 5 -5 1 -13 -7 -40 31 -34 49 1 5 -1 7
-4 3 -7 -7 -35 28 -79 96 -10 16 -13 25 -7 22 6 -4 11 -2 11 3 0 6 -7 11 -15
11 -17 0 -34 30 -27 49 3 9 0 11 -7 7 -26 -16 -210 419 -198 466 3 10 2 16 -3
13 -8 -5 -31 96 -52 225 -19 116 -16 465 5 580 31 168 58 271 69 264 7 -4 8
-2 4 4 -10 16 14 103 27 95 6 -3 7 -1 3 6 -10 15 20 91 95 243 54 111 127 238
136 238 2 0 1 -5 -3 -12 -4 -7 -3 -8 5 -4 6 4 9 12 6 17 -9 13 95 160 108 152
5 -3 7 -2 4 4 -3 5 1 20 10 33 10 14 18 19 21 12 2 -7 8 -12 13 -12z m2674
-1416 c9 -42 15 -85 12 -95 -3 -10 -2 -17 3 -14 4 2 10 -19 14 -48 13 -112 2
-488 -13 -444 -4 9 -6 -9 -7 -40 0 -68 -43 -245 -57 -236 -6 3 -7 1 -3 -6 18
-29 -108 -322 -199 -461 -36 -57 -49 -70 -57 -59 -8 11 -8 10 -4 -5 5 -13 -9
-40 -48 -90 -54 -71 -121 -141 -134 -141 -4 0 -7 -6 -9 -14 -3 -20 -37 -52
-59 -55 -10 -2 -18 -7 -17 -12 2 -14 -14 -30 -94 -95 -41 -32 -79 -56 -85 -53
-6 4 -8 2 -4 -4 7 -11 -78 -75 -100 -75 -7 0 -11 -4 -8 -8 6 -11 -31 -30 -41
-21 -5 4 -6 2 -2 -3 9 -16 -181 -130 -212 -128 -21 2 -22 1 -8 -5 16 -7 -1
-22 -88 -82 -59 -41 -112 -74 -116 -72 -5 1 -8 -2 -7 -6 5 -14 -69 -72 -91
-72 -11 0 -21 -5 -21 -11 0 -5 6 -7 13 -4 6 4 -8 -12 -31 -34 -24 -22 -47 -39
-50 -38 -4 1 -8 -2 -10 -8 -5 -17 -64 -74 -75 -72 -5 1 -11 -7 -13 -18 -1 -11
-13 -29 -26 -40 -13 -11 -31 -33 -41 -48 -11 -16 -23 -25 -30 -21 -7 4 -9 4
-5 -1 4 -4 2 -17 -3 -28 -9 -16 -13 -17 -21 -6 -8 11 -9 11 -5 -3 3 -9 -6 -31
-19 -50 -14 -18 -39 -57 -55 -86 -18 -30 -35 -49 -41 -46 -7 4 -8 2 -4 -4 4
-6 -4 -33 -18 -59 -24 -47 -24 -48 -24 -16 1 18 4 31 7 29 3 -2 7 28 8 68 2
108 136 692 156 679 6 -3 7 -1 3 5 -8 14 44 212 56 212 5 0 7 4 3 9 -7 12 64
265 76 269 5 2 7 8 4 12 -8 13 6 61 15 55 5 -3 6 3 4 12 -6 24 50 215 60 206
4 -4 5 -1 2 7 -8 21 69 322 79 313 4 -5 5 -3 1 4 -13 22 41 231 75 290 24 41
34 52 41 41 7 -9 7 -7 3 9 -3 12 -1 25 6 29 8 5 10 3 4 -7 -5 -8 -4 -11 1 -6
5 5 9 16 9 25 0 9 6 16 13 14 7 -1 12 3 10 10 -4 19 42 79 54 72 6 -4 8 -2 5
3 -9 14 82 125 96 116 5 -3 7 -2 4 4 -14 22 202 206 231 197 13 -5 14 -4 3 4
-15 11 2 27 18 17 5 -3 13 0 17 6 4 8 3 9 -4 5 -7 -4 -12 -5 -12 -2 0 2 28 22
63 44 136 86 342 175 386 167 20 -4 22 -4 6 3 -18 8 -17 9 8 16 16 3 32 4 37
1 4 -3 10 -1 12 5 5 16 229 66 309 69 26 1 28 -3 44 -75z m-3995 -705 c206
-25 431 -83 588 -151 50 -22 68 -34 60 -41 -9 -6 -7 -7 6 -3 20 7 146 -58 146
-75 0 -6 4 -8 9 -5 9 6 76 -41 76 -54 0 -4 4 -12 9 -17 5 -5 6 -2 1 6 -5 9 -3
12 6 9 8 -3 13 -11 11 -17 -1 -7 1 -10 6 -7 16 9 51 -23 47 -44 -2 -11 1 -22
6 -26 5 -3 9 -2 8 3 -4 20 2 34 11 28 6 -4 8 -16 5 -28 -2 -12 -2 -16 1 -9 3
6 10 12 15 12 6 0 7 -4 4 -10 -3 -5 0 -10 7 -10 13 0 66 -52 168 -164 25 -28
37 -44 27 -37 -15 12 -17 12 -11 -3 3 -9 13 -16 21 -16 8 0 11 -4 8 -10 -3 -5
0 -10 8 -10 19 0 50 -36 42 -49 -4 -7 0 -8 11 -4 14 5 16 3 11 -11 -4 -9 -3
-15 2 -12 11 7 52 -37 55 -60 2 -11 8 -19 15 -19 15 0 31 -26 24 -39 -3 -5 -1
-6 5 -2 14 8 118 -132 114 -152 -2 -8 1 -11 6 -8 11 6 45 -40 45 -61 0 -7 3
-10 7 -8 12 7 128 -198 191 -335 66 -143 134 -343 125 -366 -3 -8 -2 -13 3
-10 9 6 37 -104 47 -186 6 -50 4 -57 -12 -61 -16 -4 -15 -5 4 -6 21 -1 22 -5
21 -83 -1 -89 -14 -216 -19 -183 -1 11 -2 23 -1 28 0 4 -3 7 -9 7 -5 0 -17 15
-26 33 -24 47 -146 206 -193 251 -22 22 -38 43 -35 48 3 5 1 7 -4 6 -16 -5
-93 62 -86 74 4 7 2 8 -4 4 -13 -8 -108 62 -104 76 1 5 -2 7 -7 4 -13 -8 -132
69 -123 79 4 5 2 5 -4 2 -14 -8 -157 67 -147 77 5 4 1 6 -7 5 -22 -5 -130 43
-123 54 3 6 1 7 -5 3 -15 -9 -143 45 -135 57 4 6 1 7 -6 3 -15 -10 -73 13 -65
25 5 9 -11 13 -31 9 -16 -3 -135 63 -129 72 3 4 -3 5 -12 1 -13 -5 -15 -3 -9
7 5 9 4 11 -3 6 -15 -9 -64 23 -55 37 3 6 1 7 -5 3 -15 -9 -64 23 -55 37 4 6
0 8 -9 5 -18 -8 -81 40 -72 54 4 7 2 8 -5 4 -15 -10 -124 82 -115 96 4 6 3 8
-3 5 -23 -14 -260 270 -249 299 3 7 0 16 -6 20 -7 5 -8 2 -4 -7 4 -8 0 -5 -10
6 -22 27 -137 266 -158 331 -9 28 -14 59 -10 70 4 13 3 15 -4 6 -12 -17 -54
132 -82 290 -23 131 -24 150 -11 130 7 -11 9 -11 14 2 4 10 -1 16 -16 19 -48
9 104 6 183 -4z"/>
</g>
</svg>
