<?xml version="1.0" standalone="no"?>
<!DOCTYPE svg PUBLIC "-//W3C//DTD SVG 20010904//EN"
 "http://www.w3.org/TR/2001/REC-SVG-20010904/DTD/svg10.dtd">
<svg version="1.0" xmlns="http://www.w3.org/2000/svg"
 width="1024.000000pt" height="1024.000000pt" viewBox="0 0 1024.000000 1024.000000"
 preserveAspectRatio="xMidYMid meet">
<metadata>
Created by potrace 1.16, written by Peter Selinger 2001-2019
</metadata>
<g transform="translate(0.000000,1024.000000) scale(0.100000,-0.100000)"
fill="#000000" stroke="none">
<path d="M4225 8261 c-39 -10 -80 -36 -98 -64 -21 -33 -33 -97 -72 -377 -74
-541 -89 -736 -90 -1195 0 -323 3 -413 18 -525 63 -467 189 -795 419 -1088 28
-36 46 -68 42 -75 -4 -7 -3 -9 1 -4 9 8 95 -70 95 -86 0 -4 -5 -5 -11 -1 -8 4
-8 0 0 -15 14 -25 23 -28 14 -3 -9 25 56 -38 140 -137 40 -46 71 -90 71 -97
-1 -8 2 -12 6 -9 17 11 102 -141 135 -240 51 -152 49 -116 52 -970 3 -559 1
-819 -7 -865 -24 -138 -109 -267 -223 -341 -109 -70 -213 -101 -427 -124 -183
-20 -204 -27 -241 -77 -34 -48 -40 -118 -13 -156 9 -13 14 -25 11 -28 -6 -6
-33 36 -40 61 -3 11 -4 3 -2 -18 2 -32 15 -67 15 -42 0 4 7 2 16 -6 9 -7 23
-14 32 -15 10 -1 35 -9 57 -18 35 -13 160 -15 995 -16 619 0 968 4 992 10 45
13 95 68 104 116 4 21 1 53 -7 77 -7 23 -12 45 -11 49 1 5 -1 7 -6 6 -4 0 -27
8 -52 20 -31 14 -84 24 -170 32 -196 18 -293 42 -412 101 -134 67 -242 215
-267 366 -9 49 -11 293 -8 863 3 712 5 802 21 860 56 215 150 369 350 577 43
46 83 80 89 76 5 -3 7 -2 4 4 -3 5 24 45 60 89 275 329 422 749 464 1329 23
322 -3 901 -61 1335 -61 459 -76 528 -118 577 -47 53 -41 53 -975 52 -474 -1
-876 -4 -892 -8z m1776 -141 c22 -29 38 -114 79 -420 32 -244 55 -456 66 -617
7 -113 -1 -138 -40 -128 -14 4 -17 3 -8 -3 19 -13 -105 -66 -202 -88 -63 -13
-108 -16 -220 -11 -163 6 -257 28 -473 108 -270 100 -409 135 -567 146 -154
10 -345 -25 -485 -88 -68 -31 -75 -33 -68 -21 3 4 10 72 16 152 15 179 53 510
86 730 32 217 34 225 57 249 19 21 20 21 880 19 l861 -3 18 -25z m-1202 -1156
c41 -7 133 -34 205 -60 450 -158 518 -175 720 -175 144 0 276 26 374 73 50 24
51 24 56 4 10 -35 7 -386 -4 -522 -41 -502 -170 -886 -399 -1181 -38 -49 -117
-140 -177 -203 -231 -244 -335 -417 -387 -643 -20 -89 -21 -120 -24 -898 -4
-865 -4 -867 47 -1002 12 -31 37 -80 55 -107 19 -28 32 -57 29 -64 -3 -8 0
-17 7 -22 9 -5 10 -2 5 12 -4 11 13 -1 41 -27 142 -135 290 -192 578 -224 77
-9 146 -18 153 -20 7 -3 12 -15 10 -27 l-3 -23 -945 -3 c-520 -1 -955 0 -966
3 -24 5 -39 34 -26 47 4 4 71 15 147 24 77 9 183 27 235 40 117 29 261 99 326
157 27 25 53 45 58 45 6 1 11 8 12 17 1 8 13 28 26 43 12 15 34 51 47 80 13
28 28 49 32 46 5 -3 6 1 4 8 -3 8 2 36 12 63 16 46 18 122 21 855 2 688 0 820
-13 911 -29 199 -104 367 -239 532 -26 32 -44 63 -40 69 4 6 3 8 -4 4 -13 -8
-154 143 -145 157 3 6 1 7 -5 3 -15 -9 -128 125 -208 246 -132 199 -218 419
-273 695 -46 228 -55 332 -55 658 l-1 300 50 27 c69 38 217 85 306 97 89 12
256 5 358 -15z"/>
<path d="M4987 6456 c-121 -33 -179 -178 -114 -288 14 -25 23 -49 19 -54 -4
-5 -3 -6 2 -2 10 9 49 -10 42 -20 -2 -4 3 -8 12 -9 9 0 40 -4 68 -8 63 -9 113
6 161 48 45 40 63 82 63 149 0 38 -7 64 -23 92 -25 39 -98 96 -126 96 -9 0
-25 2 -36 5 -11 2 -42 -2 -68 -9z m38 -127 c-26 -6 -24 -7 15 -8 32 0 41 2 30
9 -8 5 -10 10 -5 10 22 -1 46 -30 52 -63 4 -29 1 -40 -20 -61 -67 -67 -162 10
-116 95 12 22 49 40 64 31 6 -4 -3 -10 -20 -13z"/>
<path d="M5246 5725 c-43 -15 -91 -57 -112 -97 -17 -33 -20 -123 -5 -161 6
-16 8 -33 5 -39 -4 -6 -3 -8 3 -5 5 4 23 -7 39 -24 16 -17 50 -36 80 -45 130
-37 254 53 254 183 -1 98 -59 173 -150 192 -63 14 -66 13 -114 -4z m119 -130
c53 -52 8 -148 -61 -131 -65 17 -87 96 -38 135 35 28 69 26 99 -4z"/>
</g>
</svg>
