<?xml version="1.0" standalone="no"?>
<!DOCTYPE svg PUBLIC "-//W3C//DTD SVG 20010904//EN"
 "http://www.w3.org/TR/2001/REC-SVG-20010904/DTD/svg10.dtd">
<svg version="1.0" xmlns="http://www.w3.org/2000/svg"
 width="1024.000000pt" height="1024.000000pt" viewBox="0 0 1024.000000 1024.000000"
 preserveAspectRatio="xMidYMid meet">
<metadata>
Created by potrace 1.16, written by Peter Selinger 2001-2019
</metadata>
<g transform="translate(0.000000,1024.000000) scale(0.100000,-0.100000)"
fill="#000000" stroke="none">
<path d="M5529 7916 c-2 -2 -67 -9 -144 -16 -85 -7 -184 -23 -252 -41 -62 -16
-121 -26 -130 -23 -13 4 -14 3 -5 -3 15 -11 -150 -79 -183 -76 -11 2 -14 0 -6
-3 8 -4 -21 -25 -73 -55 -48 -26 -134 -80 -192 -118 -66 -45 -111 -68 -122
-65 -13 5 -14 4 -3 -4 16 -12 -3 -27 -21 -16 -7 4 -8 3 -4 -5 9 -13 -39 -56
-64 -56 -8 -1 -14 -6 -13 -12 3 -15 -62 -64 -72 -55 -5 4 -5 2 -1 -5 8 -14
-38 -48 -52 -39 -6 3 -9 -2 -8 -12 0 -9 -5 -16 -11 -15 -7 2 -12 -3 -10 -10 1
-7 -6 -11 -18 -10 -13 2 -15 0 -6 -4 11 -4 -3 -22 -49 -64 -53 -48 -67 -56
-80 -46 -13 10 -13 10 -3 -4 11 -13 8 -20 -15 -42 -16 -15 -31 -25 -34 -22 -3
3 -11 -3 -19 -12 -13 -17 -13 -17 6 -3 28 20 -92 -115 -206 -232 -31 -32 -55
-59 -53 -60 1 -2 -18 -25 -42 -53 -24 -27 -41 -41 -38 -30 4 11 4 17 0 13 -4
-3 -9 -13 -10 -22 -1 -9 -13 -30 -25 -47 -19 -25 -25 -29 -33 -18 -8 11 -9 10
-4 -3 6 -19 -40 -81 -54 -73 -4 3 -7 -3 -6 -13 0 -9 -5 -16 -12 -14 -8 1 -11
-2 -8 -7 3 -5 -8 -26 -25 -47 -51 -64 -66 -85 -143 -191 -41 -55 -91 -126
-112 -157 -20 -31 -40 -54 -44 -51 -3 2 -7 -2 -7 -10 0 -23 -105 -175 -116
-168 -6 3 -7 1 -3 -5 9 -14 -108 -215 -119 -205 -4 5 -5 3 -2 -4 9 -14 -37
-96 -48 -86 -4 5 -5 3 -2 -4 10 -16 -3 -44 -16 -36 -6 3 -7 1 -3 -5 9 -14 -45
-123 -57 -115 -6 4 -7 1 -3 -6 8 -13 -11 -71 -24 -71 -3 0 -7 -6 -7 -12 0 -7
-21 -70 -46 -140 -26 -69 -59 -170 -74 -225 -15 -54 -30 -100 -33 -103 -3 -3
-5 -16 -6 -30 -1 -14 -9 -83 -19 -155 -20 -145 -16 -395 7 -515 6 -36 11 -85
11 -110 -1 -33 1 -40 7 -25 7 16 9 17 9 3 1 -9 4 -25 7 -35 5 -15 4 -15 -5 -3
-9 13 -11 13 -11 -2 0 -10 7 -18 15 -18 8 0 15 -5 15 -11 0 -5 -5 -7 -11 -3
-13 8 -2 -35 13 -51 6 -6 7 -3 3 10 -3 11 5 -3 19 -32 32 -68 41 -97 27 -89
-7 5 -7 -2 0 -24 13 -35 24 -41 13 -7 -10 32 -2 21 44 -65 30 -57 36 -75 24
-72 -9 3 -7 -1 5 -8 12 -7 50 -54 84 -103 34 -50 109 -137 165 -195 85 -87
101 -107 91 -120 -10 -13 -10 -13 4 -3 13 11 21 9 45 -12 16 -14 29 -30 29
-37 0 -6 8 -12 17 -14 9 -1 43 -22 75 -46 32 -25 84 -62 116 -83 60 -40 68
-48 40 -39 -15 5 -15 4 -3 -4 8 -6 18 -8 22 -6 13 9 109 -57 101 -69 -4 -6 0
-8 9 -5 20 8 80 -21 71 -35 -3 -5 -1 -7 4 -4 6 4 63 -18 127 -48 64 -30 121
-55 127 -55 5 0 7 -5 3 -12 -4 -6 -3 -8 3 -5 6 4 59 -11 117 -33 175 -64 475
-144 629 -166 26 -3 47 -11 47 -16 0 -5 5 -6 11 -3 13 8 130 -5 125 -13 -2 -4
24 -7 57 -7 34 0 145 -6 247 -14 148 -11 220 -11 360 -2 201 14 414 42 536 71
99 23 118 25 108 8 -4 -7 -3 -8 5 -4 6 4 9 11 6 15 -2 5 26 16 63 26 37 10
115 35 175 57 59 21 112 36 119 32 6 -4 8 -3 5 3 -8 13 87 58 104 48 8 -5 10
-4 5 3 -4 7 15 23 51 41 83 42 229 140 305 204 36 31 69 53 72 50 3 -4 6 -1 6
7 0 7 27 40 59 74 268 276 417 637 452 1098 10 127 10 195 -1 360 -8 112 -14
222 -14 245 -1 22 -4 39 -8 36 -5 -2 -8 6 -8 19 0 53 -54 347 -100 549 -28
119 -48 225 -44 235 4 13 3 15 -3 6 -7 -9 -15 7 -28 55 -31 118 -112 373 -164
517 -28 76 -48 142 -46 147 3 4 1 9 -4 11 -4 1 -32 59 -60 126 -29 68 -63 147
-76 175 -14 28 -23 60 -20 71 3 12 2 15 -1 8 -4 -8 -35 40 -75 113 -39 69 -67
131 -63 137 4 6 3 8 -3 5 -13 -8 -56 60 -47 74 3 5 1 8 -4 7 -5 -2 -40 40 -78
92 -37 52 -82 113 -100 134 -19 21 -31 43 -27 49 3 6 2 7 -4 4 -5 -3 -43 28
-84 70 -78 80 -224 197 -289 234 -22 12 -36 27 -33 32 3 6 1 7 -6 3 -6 -4 -24
0 -39 10 -14 10 -60 33 -102 51 -41 19 -64 32 -52 29 13 -2 21 -2 17 2 -4 4
-21 8 -38 8 -18 1 -77 13 -132 28 -55 15 -138 30 -185 33 -55 4 -77 9 -65 14
15 6 16 8 4 8 -9 1 -18 -1 -20 -3z m191 -215 c109 -26 162 -45 153 -56 -5 -4
-3 -5 3 -2 7 4 25 2 42 -4 22 -8 29 -15 25 -27 -4 -14 -3 -14 5 -3 8 11 22 7
76 -23 66 -37 88 -56 61 -52 -8 1 -17 5 -21 9 -9 9 -24 -1 -24 -16 0 -7 4 -6
10 3 6 10 10 11 10 3 0 -8 11 -11 31 -9 23 3 44 -6 91 -41 83 -61 149 -124
142 -134 -3 -5 0 -8 8 -7 7 2 12 -3 10 -10 -1 -8 2 -11 7 -8 11 7 144 -140
137 -152 -2 -4 0 -14 6 -22 8 -12 9 -11 4 4 -6 16 -4 17 9 6 9 -7 14 -19 11
-27 -3 -8 -2 -11 3 -8 8 5 46 -43 76 -95 8 -13 7 -13 -11 0 -10 8 -16 10 -12
6 4 -5 2 -16 -4 -25 -10 -13 -10 -14 2 -4 9 9 18 9 33 1 20 -10 20 -11 1 -25
-18 -15 -18 -15 3 -9 16 5 25 1 33 -14 6 -11 8 -26 4 -32 -4 -6 -3 -8 3 -5 12
8 108 -160 106 -185 -1 -10 2 -16 6 -14 12 8 65 -110 56 -124 -5 -8 -4 -11 2
-7 11 7 21 -14 104 -216 36 -90 47 -128 45 -162 -1 -24 1 -42 6 -39 4 3 8 -2
8 -10 0 -8 4 -18 10 -21 6 -3 7 1 4 9 -3 9 -4 16 -1 16 10 0 69 -182 63 -196
-3 -8 -2 -13 3 -10 8 5 27 -49 76 -219 31 -109 38 -144 25 -125 -6 9 -10 10
-10 3 0 -7 7 -16 15 -20 15 -9 48 -130 39 -145 -3 -4 0 -8 5 -8 6 0 11 -9 11
-21 0 -11 -4 -17 -10 -14 -5 3 -10 1 -10 -4 0 -6 6 -11 14 -11 15 0 41 -113
30 -132 -5 -7 -3 -8 6 -3 10 6 12 1 8 -18 -3 -15 -2 -24 2 -22 8 5 33 -123 25
-135 -3 -5 -1 -11 5 -15 5 -3 10 -21 9 -38 0 -27 -2 -29 -9 -12 -6 15 -8 9 -8
-22 0 -24 4 -43 9 -43 5 0 9 10 9 22 0 54 13 -2 31 -138 25 -192 35 -521 20
-677 -15 -150 -37 -259 -57 -273 -10 -9 -11 -13 -3 -16 8 -3 0 -37 -26 -113
-21 -61 -42 -114 -47 -120 -6 -6 -6 -3 -2 9 5 14 4 17 -5 12 -6 -4 -9 -16 -6
-26 7 -21 -28 -94 -82 -176 -31 -47 -37 -52 -59 -44 -18 7 -22 6 -18 -5 3 -7
12 -11 20 -8 8 3 14 1 13 -3 -1 -18 -97 -129 -109 -126 -6 1 -9 -1 -7 -6 3 -4
-10 -25 -29 -47 -29 -34 -36 -38 -45 -25 -9 13 -10 13 -6 -1 6 -20 -53 -82
-74 -77 -7 2 -13 -4 -14 -12 0 -20 -172 -132 -300 -194 -132 -65 -302 -129
-321 -122 -8 3 -14 2 -14 -2 0 -19 -254 -80 -428 -103 -80 -10 -95 -10 -103 2
-7 12 -9 11 -9 -2 0 -13 -16 -17 -82 -22 -123 -10 -429 -8 -543 3 -55 6 -127
13 -160 16 -73 7 -318 50 -400 70 -153 38 -274 77 -268 87 3 6 1 7 -5 3 -16
-10 -93 15 -85 27 3 6 1 7 -5 3 -15 -9 -161 48 -310 123 -141 70 -165 85 -154
96 4 5 2 5 -5 2 -13 -8 -45 2 -38 12 2 4 -2 8 -9 8 -20 0 -87 44 -81 53 3 4
-3 7 -13 6 -9 0 -16 5 -14 12 1 8 -2 11 -8 7 -17 -10 -208 140 -202 159 2 6 0
8 -4 3 -11 -10 -125 104 -117 117 3 6 2 8 -2 3 -11 -10 -46 23 -38 36 3 6 1 7
-5 3 -18 -11 -157 184 -217 304 -81 162 -149 409 -144 525 1 22 -2 48 -6 58
-4 9 -5 48 -2 85 3 37 8 99 10 137 10 131 59 334 128 522 12 34 27 59 32 56 6
-4 7 -1 2 6 -9 15 24 93 36 85 5 -3 6 2 3 10 -3 8 29 82 71 165 61 120 79 149
93 145 13 -5 14 -4 3 4 -11 8 -10 15 5 40 10 17 22 28 27 25 6 -3 7 -1 3 5
-13 22 297 487 317 475 6 -3 7 -1 3 5 -11 18 42 82 62 75 14 -4 14 -3 3 5 -11
8 -5 22 34 71 26 33 52 58 58 54 6 -4 7 -1 3 6 -9 13 22 54 34 46 4 -3 7 1 6
9 -2 21 243 308 256 300 7 -4 8 -3 4 4 -9 15 153 184 167 175 5 -3 7 -1 4 4
-12 19 276 298 295 287 6 -4 8 -3 5 3 -9 14 29 47 44 37 8 -4 10 -3 5 4 -8 13
141 135 154 127 5 -3 12 0 16 6 4 8 3 9 -4 5 -7 -4 -12 -5 -12 -3 0 7 153 107
237 156 142 82 320 148 458 170 39 6 81 13 95 15 57 10 279 -4 360 -23z"/>
<path d="M5240 7065 c-36 -8 -77 -19 -93 -24 -15 -6 -33 -9 -40 -7 -7 1 -9 1
-5 -1 3 -2 -37 -26 -89 -53 -53 -27 -100 -47 -105 -44 -5 3 -7 1 -6 -4 4 -14
-93 -82 -106 -75 -6 3 -8 3 -4 -2 6 -6 -44 -56 -56 -56 -3 0 -18 -12 -34 -27
-15 -15 -75 -70 -131 -122 -57 -52 -124 -116 -149 -142 -24 -26 -49 -46 -55
-45 -6 1 -11 -5 -12 -13 0 -8 -7 -15 -15 -15 -8 0 -15 -5 -15 -11 0 -20 -86
-115 -97 -108 -6 4 -9 3 -5 -2 3 -5 -8 -25 -25 -44 -16 -19 -27 -29 -23 -22 3
6 1 12 -4 12 -6 0 -12 -4 -12 -10 -1 -5 -2 -14 -3 -19 -2 -18 -47 -71 -56 -66
-5 3 -12 0 -16 -6 -4 -8 -3 -9 4 -5 7 4 12 4 12 1 0 -12 -82 -110 -90 -108 -3
1 -7 -3 -7 -10 0 -7 -32 -57 -71 -112 -38 -55 -88 -133 -109 -173 -22 -39 -43
-69 -48 -65 -4 5 -5 3 -2 -3 8 -15 -23 -95 -34 -88 -5 3 -6 -1 -3 -9 2 -7 -2
-34 -10 -58 -8 -24 -18 -64 -22 -89 -7 -38 -9 -41 -14 -20 -4 14 -6 -27 -6
-90 1 -63 3 -117 6 -120 11 -11 40 -143 33 -153 -3 -7 -3 -9 2 -5 4 4 21 -14
37 -40 17 -26 53 -73 80 -105 107 -124 148 -229 148 -382 0 -42 5 -119 12
-173 7 -53 12 -114 12 -134 0 -21 3 -33 7 -26 4 6 10 -4 14 -22 4 -19 20 -63
35 -99 16 -36 24 -68 19 -72 -5 -3 -2 -14 6 -25 15 -19 15 -19 9 1 -4 15 -3
16 4 6 5 -7 7 -22 5 -32 -4 -13 2 -21 21 -29 14 -5 26 -16 26 -24 0 -7 7 -17
16 -20 9 -4 14 -13 10 -21 -3 -8 -2 -14 2 -12 4 1 42 -33 85 -75 42 -43 95
-90 117 -104 22 -15 37 -31 33 -37 -3 -6 -1 -7 5 -3 15 9 64 -23 55 -37 -3 -5
-1 -7 4 -4 12 7 235 -96 233 -107 -1 -3 0 -10 3 -14 2 -4 2 -1 1 6 -5 17 4 16
116 -17 201 -60 313 -75 555 -76 178 0 236 4 304 19 316 69 551 209 700 419
32 43 52 64 35 35 -4 -8 -3 -9 2 -5 5 5 9 14 9 20 1 14 90 197 104 213 5 7 8
14 5 17 -3 3 2 29 11 59 21 72 43 212 50 333 12 191 -26 482 -104 785 -22 85
-38 157 -35 161 2 4 1 9 -4 11 -12 5 -43 128 -36 141 4 7 3 9 -1 5 -5 -5 -21
34 -37 85 -16 50 -61 190 -99 310 -45 140 -68 225 -64 240 4 14 3 18 -3 9 -6
-8 -19 19 -42 85 -18 54 -44 123 -57 152 -13 30 -21 62 -18 70 3 9 3 12 -1 8
-4 -4 -28 31 -53 78 -55 102 -117 188 -185 257 -28 29 -50 59 -48 67 2 11 0
12 -5 4 -7 -9 -20 -5 -53 17 -24 16 -57 35 -73 41 -21 9 -25 14 -15 21 10 8 9
9 -3 5 -9 -3 -45 3 -80 15 -86 26 -269 33 -359 13z m271 -175 c98 -18 271
-123 253 -152 -4 -6 -2 -8 3 -5 6 4 16 0 23 -8 10 -12 10 -19 -1 -32 -12 -16
-12 -17 2 -5 14 10 20 7 44 -23 38 -50 119 -205 107 -205 -6 0 -13 6 -15 13
-3 6 -4 -3 -4 -20 2 -34 10 -42 23 -22 4 8 9 7 15 -2 5 -8 3 -17 -4 -21 -8 -5
-7 -8 4 -8 20 0 84 -179 74 -208 -3 -11 -1 -23 4 -27 7 -3 8 0 5 9 -3 9 -4 16
-1 16 6 0 77 -220 77 -236 0 -5 -5 -2 -10 6 -8 13 -10 12 -10 -2 0 -10 6 -18
14 -18 8 0 19 -15 25 -32 60 -189 121 -394 121 -405 0 -8 -4 -11 -10 -8 -12 7
-12 3 -4 -20 6 -13 9 -14 16 -3 7 9 8 7 5 -10 -3 -12 -1 -20 3 -17 5 3 14 -14
20 -37 6 -24 18 -67 26 -95 9 -29 13 -57 10 -62 -4 -5 0 -11 6 -14 10 -3 10
-9 1 -24 -7 -12 -8 -25 -2 -34 7 -11 9 -10 9 5 0 11 2 17 5 15 10 -10 66 -286
62 -306 -2 -12 -1 -20 3 -18 11 7 23 -97 12 -104 -5 -3 -12 -15 -15 -26 -7
-19 -6 -19 7 -2 12 16 14 16 20 1 21 -55 -4 -498 -26 -449 -6 15 -7 14 -3 -8
15 -75 -120 -393 -157 -371 -7 5 -8 2 -4 -5 10 -15 -23 -53 -38 -44 -6 3 -8 3
-4 -2 11 -11 -12 -36 -25 -28 -5 3 -7 1 -4 -4 8 -13 -70 -86 -84 -78 -5 4 -8
1 -7 -5 9 -37 -321 -177 -432 -185 -27 -1 -52 -5 -57 -8 -52 -32 -607 3 -562
35 10 7 7 8 -11 4 -26 -6 -192 32 -186 43 2 3 -9 6 -25 7 -36 1 -206 83 -274
131 -77 56 -145 117 -145 131 0 6 -4 11 -9 10 -23 -7 -142 171 -145 217 0 13
-4 21 -7 19 -8 -4 -35 86 -48 160 -6 33 -11 96 -11 140 0 126 -18 249 -46 323
-14 38 -26 76 -27 85 -1 9 -3 15 -6 13 -8 -9 -52 65 -45 77 4 6 3 8 -4 4 -12
-7 -54 42 -46 55 3 5 0 8 -7 7 -19 -5 -88 100 -105 160 -9 30 -16 84 -16 122
-1 73 29 213 43 204 5 -3 6 1 3 9 -7 19 66 168 79 160 6 -3 7 -1 3 6 -11 18
135 233 254 375 122 145 165 193 243 273 77 78 93 90 106 80 14 -10 14 -10 3
4 -11 14 -1 27 69 93 122 115 267 229 280 220 7 -4 9 -3 6 3 -15 23 185 133
288 159 62 15 194 17 266 4z"/>
<path d="M5511 5187 c-6 -8 -8 -17 -4 -20 3 -4 2 -7 -4 -7 -6 0 -33 -15 -60
-33 -28 -19 -58 -32 -67 -31 -14 2 -15 0 -5 -12 9 -11 8 -18 -5 -33 -9 -10
-26 -41 -36 -67 -11 -27 -19 -42 -20 -34 0 11 -4 10 -12 -4 -17 -30 -13 -117
6 -128 9 -5 16 -16 16 -24 0 -8 10 -35 22 -61 12 -26 22 -56 23 -67 0 -11 6
-21 14 -24 10 -3 12 0 8 12 -4 10 10 3 35 -18 64 -55 136 -78 234 -74 45 2 80
6 78 9 -2 4 10 12 27 19 42 18 113 89 140 141 16 32 24 67 27 125 4 73 1 88
-22 140 -15 33 -37 70 -49 83 -37 39 -103 80 -150 93 -25 6 -44 14 -42 17 5 9
-49 10 -60 1 -5 -4 -30 -10 -54 -14 -39 -6 -43 -5 -31 9 7 8 10 15 7 15 -2 0
-10 -6 -16 -13z m149 -176 c14 -4 24 -13 23 -19 -2 -6 3 -9 11 -6 7 3 23 -7
35 -22 77 -97 16 -234 -105 -234 -44 0 -111 37 -106 59 1 7 -2 10 -7 6 -16 -9
-31 29 -31 77 0 66 58 143 92 122 6 -4 8 -3 4 4 -12 19 36 27 84 13z"/>
<path d="M4915 4491 c-43 -11 -96 -40 -117 -65 -74 -85 -88 -210 -32 -291 13
-20 24 -39 24 -43 0 -4 -4 -1 -9 7 -6 9 -11 10 -15 2 -4 -6 -2 -12 3 -12 6 -1
17 -2 24 -3 6 0 12 -8 12 -16 0 -8 7 -15 15 -16 8 0 28 -5 43 -12 16 -7 33
-12 39 -12 5 0 8 -7 4 -15 -4 -11 1 -15 17 -15 18 0 19 2 7 10 -11 7 0 10 38
10 93 0 182 61 219 148 19 46 18 130 -1 177 -9 20 -13 42 -9 48 3 5 2 7 -4 4
-5 -4 -23 7 -39 24 -54 57 -148 87 -219 70z m108 -193 c55 -64 -39 -153 -99
-93 -13 13 -24 34 -24 45 0 70 77 100 123 48z"/>
<path d="M3230 2412 c-14 -2 -32 -6 -40 -9 -8 -3 -20 -5 -25 -5 -11 2 -15 -18
-18 -86 -1 -24 -3 -39 -5 -33 -2 6 -9 11 -15 11 -15 0 10 -25 26 -25 7 -1 11
-6 10 -11 -1 -6 3 -12 10 -13 21 -5 3880 -8 3944 -4 34 3 62 8 61 11 -1 4 4
20 11 36 15 37 6 77 -23 105 l-22 21 -1944 2 c-1070 2 -1956 2 -1970 0z"/>
</g>
</svg>
