<?xml version="1.0" standalone="no"?>
<!DOCTYPE svg PUBLIC "-//W3C//DTD SVG 20010904//EN" "http://www.w3.org/TR/2001/REC-SVG-20010904/DTD/svg10.dtd">
<svg xmlns="http://www.w3.org/2000/svg" version="1.0" width="1024.000000pt" height="1024.000000pt" viewBox="0 0 1024.000000 1024.000000" preserveAspectRatio="xMidYMid meet">
<metadata>
Created by potrace 1.16, written by Peter Selinger 2001-2019
<meta name="Producer" content="Online-Convert"/></metadata>
<g transform="translate(0.000000,1024.000000) scale(0.100000,-0.100000)" fill="#000000" stroke="none">
<path d="M5054 8516 c-18 -8 -40 -28 -50 -45 -15 -25 -20 -28 -33 -18 -14 11 -14 10 -2 -5 11 -15 8 -27 -27 -90 -23 -40 -46 -72 -52 -70 -6 1 -9 -2 -5 -7 6 -10 -30 -91 -41 -91 -3 0 -2 5 2 12 4 7 3 8 -5 4 -6 -4 -9 -11 -6 -16 8 -14 -17 -60 -29 -53 -6 3 -8 3 -4 -2 10 -11 -33 -86 -45 -78 -6 3 -7 1 -3 -5 9 -15 -12 -54 -25 -46 -6 3 -9 0 -7 -7 5 -21 -53 -114 -62 -99 -5 9 -9 8 -13 -4 -3 -8 -1 -16 4 -18 6 -2 -44 -86 -111 -186 -67 -100 -126 -180 -131 -176 -6 3 -9 0 -7 -8 4 -16 -92 -159 -102 -153 -4 2 -7 -1 -7 -8 0 -15 -32 -67 -42 -67 -3 0 -12 -12 -19 -27 -15 -34 -67 -95 -58 -70 4 11 2 16 -5 12 -6 -4 -8 -13 -5 -20 6 -18 -43 -87 -56 -79 -7 4 -8 3 -4 -4 8 -13 -82 -138 -96 -134 -5 1 -7 -1 -4 -6 8 -13 -24 -53 -36 -46 -7 4 -8 2 -4 -5 9 -14 -28 -63 -39 -53 -5 4 -6 2 -2 -3 3 -6 -43 -77 -102 -158 -114 -156 -128 -173 -118 -144 9 24 0 21 -14 -4 -8 -15 -8 -19 0 -15 18 12 13 -3 -15 -40 -14 -18 -31 -31 -37 -27 -6 3 -7 1 -3 -6 8 -13 -78 -136 -96 -136 -6 0 -12 -10 -13 -21 -1 -12 -15 -39 -32 -60 -16 -22 -49 -67 -72 -102 -25 -37 -47 -60 -53 -56 -7 4 -8 3 -4 -4 7 -12 -57 -116 -66 -107 -2 3 -5 -1 -5 -8 0 -18 -74 -127 -83 -122 -4 3 -7 -1 -6 -8 0 -6 -30 -65 -67 -129 -48 -82 -73 -115 -83 -111 -9 3 -14 -1 -14 -12 0 -9 4 -13 10 -10 5 3 7 0 4 -8 -10 -26 -86 -162 -80 -144 4 11 2 16 -5 12 -5 -4 -7 -15 -4 -25 3 -10 -6 -44 -21 -76 -36 -81 -99 -258 -114 -321 -6 -29 -16 -50 -21 -47 -5 3 -6 -1 -3 -9 2 -7 -4 -65 -16 -127 -11 -62 -20 -141 -20 -174 -1 -56 -2 -59 -15 -42 -12 16 -15 17 -15 4 0 -9 6 -18 13 -21 9 -3 12 -16 9 -36 -2 -17 -8 -28 -13 -25 -5 3 -9 1 -9 -5 0 -5 4 -11 10 -13 5 -1 12 -51 15 -109 2 -58 7 -114 11 -123 4 -9 4 -34 1 -54 -4 -21 -3 -31 2 -24 5 9 11 -5 15 -40 4 -29 14 -82 23 -117 13 -50 13 -65 3 -71 -8 -5 -9 -9 -1 -14 6 -4 11 -4 12 1 0 4 14 -32 30 -82 16 -49 27 -96 24 -103 -3 -7 -1 -11 4 -8 10 6 25 -24 16 -32 -3 -3 -5 0 -5 6 0 7 -5 12 -10 12 -7 0 -7 -7 0 -20 6 -11 15 -18 21 -15 9 6 13 -14 11 -50 -2 -14 0 -16 6 -7 6 9 14 0 25 -29 9 -23 14 -46 11 -50 -3 -5 0 -17 6 -26 9 -15 10 -14 5 7 -4 20 -1 17 14 -10 11 -19 18 -44 16 -55 -3 -11 -2 -14 1 -6 4 8 19 -9 41 -48 19 -34 31 -66 27 -73 -4 -6 -3 -8 3 -5 14 9 66 -70 57 -85 -4 -6 -3 -8 4 -4 17 10 25 -13 10 -32 -12 -15 -11 -16 4 -4 11 9 18 10 23 2 3 -5 2 -10 -3 -10 -5 0 -9 -6 -9 -13 0 -8 6 -14 13 -14 7 0 11 5 7 11 -3 6 6 -2 21 -19 14 -16 25 -34 26 -39 0 -6 -7 -1 -16 10 -14 18 -15 18 -4 -4 6 -12 15 -20 20 -17 4 3 23 -14 42 -37 18 -23 56 -69 85 -102 29 -33 49 -64 46 -69 -3 -6 -2 -7 4 -4 13 8 56 -37 46 -47 -5 -4 -3 -6 2 -4 13 4 185 -140 185 -155 0 -6 3 -8 6 -4 4 3 32 -13 63 -37 31 -24 92 -67 136 -96 44 -28 79 -56 77 -62 -1 -5 2 -7 8 -3 11 7 70 -24 70 -37 0 -4 3 -7 8 -6 4 2 22 -3 40 -11 28 -12 36 -21 34 -41 0 -3 9 -7 20 -7 20 -2 20 -1 2 12 -13 10 -7 9 23 -3 22 -9 39 -21 36 -26 -4 -5 -2 -6 4 -3 5 3 63 -14 129 -39 65 -24 134 -47 151 -50 18 -3 31 -10 28 -14 -3 -5 0 -12 6 -16 8 -4 9 -3 5 4 -4 7 -1 12 9 12 9 0 14 -4 11 -9 -3 -4 6 -6 21 -3 20 4 24 2 18 -8 -6 -10 -4 -12 8 -7 24 9 128 -13 120 -26 -3 -6 -1 -7 5 -3 6 4 64 -1 129 -10 148 -21 469 -24 603 -5 52 8 106 15 120 16 14 1 32 5 40 8 8 3 71 20 139 37 68 17 176 51 239 75 63 24 120 41 126 38 6 -3 7 -2 3 2 -10 12 141 87 156 78 7 -3 9 -3 5 2 -10 11 121 87 136 78 6 -3 8 -3 4 2 -4 4 32 35 80 68 48 33 97 68 109 79 12 12 27 17 34 13 7 -5 10 -4 6 2 -8 13 77 85 88 75 3 -4 6 -2 4 3 -3 12 222 240 234 237 4 -1 7 3 7 8 0 12 79 120 87 120 3 0 -1 -8 -8 -18 -13 -15 -12 -16 3 -3 10 7 15 17 13 22 -7 10 54 95 66 92 4 -2 5 5 2 14 -4 10 -2 14 4 10 5 -3 10 -1 10 6 0 7 23 51 51 97 49 83 136 267 161 343 8 22 17 34 23 31 7 -4 8 -2 4 5 -4 6 4 52 19 102 119 416 121 838 4 1218 -16 51 -26 98 -22 105 3 6 2 8 -2 3 -10 -8 -56 104 -59 140 0 11 -4 19 -7 17 -11 -6 -31 54 -23 68 4 7 3 10 -1 5 -11 -9 -137 232 -128 246 3 6 2 8 -3 4 -8 -4 -103 144 -96 151 1 1 -7 11 -18 22 -21 21 -28 46 -8 34 7 -4 8 -3 4 5 -4 6 -11 9 -15 7 -4 -3 -61 74 -127 170 -65 97 -136 199 -156 226 -21 28 -35 55 -32 60 3 5 1 7 -4 6 -14 -4 -133 162 -125 175 3 5 2 7 -4 4 -10 -6 -80 82 -75 96 1 4 -2 7 -8 7 -13 0 -96 120 -92 134 2 6 0 8 -4 4 -8 -9 -63 60 -64 80 0 6 -4 12 -9 12 -14 0 -237 309 -233 323 2 7 0 9 -3 5 -11 -11 -48 40 -39 53 4 7 3 9 -4 5 -19 -12 -619 845 -606 866 5 7 2 8 -6 3 -10 -6 -12 -4 -7 9 4 9 3 15 -2 12 -10 -6 -44 41 -44 61 0 7 -4 13 -9 13 -8 0 -58 74 -58 85 0 4 4 4 9 0 5 -3 12 -1 15 4 4 5 -2 8 -11 7 -25 -4 -121 142 -105 159 4 5 2 5 -5 1 -7 -4 -16 2 -22 13 -6 10 -25 24 -42 30 -39 13 -37 13 -75 -3z m70 -308 c-4 -6 -3 -8 3 -5 13 8 97 -120 95 -145 0 -10 5 -17 11 -15 7 1 12 -7 12 -18 0 -11 6 -20 13 -20 15 0 33 -26 26 -37 -3 -4 -1 -8 4 -8 5 0 26 -25 46 -55 20 -30 33 -55 29 -55 -4 0 1 -6 12 -13 11 -9 15 -19 10 -27 -5 -8 -4 -11 3 -6 10 6 59 -62 54 -76 -1 -5 2 -8 7 -8 14 0 122 -156 119 -171 -2 -7 3 -13 9 -14 7 0 20 -11 30 -24 12 -18 13 -22 2 -17 -8 5 -2 -2 12 -15 14 -13 38 -41 54 -63 23 -31 25 -40 14 -48 -11 -8 -10 -9 3 -4 13 4 26 -8 50 -42 17 -26 42 -60 55 -75 13 -16 21 -33 17 -38 -3 -5 -1 -8 4 -7 5 2 55 -59 111 -135 96 -130 112 -155 93 -143 -5 3 -9 -1 -9 -9 0 -10 4 -12 12 -5 9 7 20 1 38 -24 14 -18 23 -36 20 -40 -4 -3 -1 -6 6 -6 7 0 9 -5 6 -10 -4 -6 -2 -9 3 -8 5 2 26 -19 46 -45 27 -36 34 -52 27 -61 -8 -9 -7 -13 4 -13 8 0 11 5 8 10 -4 6 -1 7 6 3 7 -5 10 -15 7 -23 -3 -8 -2 -11 3 -8 8 5 121 -133 121 -148 0 -3 14 -21 30 -39 17 -18 30 -37 30 -43 0 -5 -5 -3 -11 5 -9 13 -10 13 -6 0 2 -8 9 -15 14 -15 6 0 21 -12 32 -27 22 -28 27 -43 11 -33 -16 10 -11 -1 7 -16 15 -12 16 -12 8 1 -8 13 -7 13 8 1 11 -8 15 -21 12 -32 -4 -11 -2 -19 5 -19 6 0 8 5 4 13 -5 8 -2 7 10 -2 9 -8 15 -20 12 -27 -3 -7 0 -16 6 -20 7 -5 8 -2 3 7 -5 9 -5 11 2 4 15 -15 143 -194 143 -200 0 -3 9 -16 20 -28 11 -12 18 -27 15 -35 -2 -7 -1 -11 4 -7 5 3 19 -8 31 -25 12 -16 19 -30 15 -30 -3 0 6 -12 20 -27 14 -16 23 -34 20 -41 -3 -7 -1 -11 4 -8 12 8 44 -42 36 -55 -4 -5 -1 -8 6 -7 8 2 14 -7 15 -20 1 -12 5 -26 9 -30 5 -4 5 1 2 11 -11 30 0 19 28 -28 14 -25 23 -50 19 -57 -4 -6 -3 -8 4 -4 12 7 96 -125 84 -134 -14 -10 -13 -32 1 -27 8 3 20 0 26 -6 14 -14 14 -30 -1 -21 -7 4 -8 3 -4 -5 4 -6 11 -9 15 -7 10 6 52 -80 43 -88 -10 -11 -11 -36 -1 -36 5 0 9 6 9 13 1 6 8 0 16 -16 8 -15 12 -33 8 -39 -4 -6 -3 -8 3 -5 14 9 38 -49 35 -82 -1 -20 0 -23 8 -11 8 13 10 12 11 -5 1 -11 2 -26 2 -32 -1 -7 3 -11 7 -8 12 7 60 -148 54 -175 -5 -20 -4 -22 6 -10 10 13 11 11 7 -7 -3 -12 -1 -23 3 -25 5 -2 11 -16 14 -33 4 -16 3 -24 0 -17 -3 6 -12 12 -21 12 -13 0 -13 -2 1 -15 8 -8 19 -15 24 -15 22 0 46 -223 46 -425 1 -229 -15 -348 -70 -537 -50 -172 -74 -233 -86 -217 -7 10 -8 8 -3 -8 8 -27 -53 -153 -75 -153 -11 0 -12 -3 -3 -8 9 -5 1 -28 -28 -80 -36 -65 -60 -96 -45 -57 3 8 0 15 -5 15 -7 0 -9 -9 -6 -21 4 -15 -5 -37 -25 -68 -62 -91 -121 -160 -131 -154 -5 3 -7 2 -4 -4 8 -13 -52 -85 -65 -77 -6 4 -8 3 -5 -3 3 -5 -13 -29 -37 -52 -31 -30 -45 -39 -50 -29 -3 7 -4 5 -3 -6 1 -13 -25 -43 -83 -93 -80 -69 -110 -89 -94 -60 4 7 3 9 -2 4 -5 -5 -9 -14 -9 -20 0 -14 -196 -148 -206 -141 -4 2 -9 -2 -12 -8 -3 -10 -8 -10 -23 2 -17 14 -18 14 -6 -2 12 -15 7 -20 -47 -47 -34 -18 -68 -28 -78 -25 -12 4 -14 3 -6 -3 18 -13 -119 -78 -157 -75 -16 1 -31 -2 -34 -7 -3 -5 4 -7 16 -5 13 2 -22 -12 -77 -31 -484 -173 -1007 -160 -1513 37 -56 22 -100 44 -97 49 4 5 -1 6 -9 3 -9 -3 -16 -1 -16 6 0 6 -4 9 -9 6 -5 -4 -17 -3 -26 0 -13 6 -14 9 -3 16 10 7 8 8 -5 4 -22 -7 -80 21 -72 34 4 6 -1 7 -11 3 -12 -4 -15 -3 -10 5 4 8 2 10 -7 6 -19 -7 -263 159 -259 175 1 7 -2 10 -7 7 -13 -8 -112 74 -104 86 3 6 2 8 -4 5 -14 -9 -95 62 -87 75 4 6 3 8 -3 5 -5 -3 -27 11 -47 32 -21 21 -34 41 -29 43 4 3 3 4 -3 2 -13 -3 -110 112 -187 222 -57 81 -67 102 -45 88 7 -4 8 -3 4 5 -4 6 -11 9 -16 6 -11 -7 -52 64 -44 77 4 6 3 8 -3 5 -12 -8 -86 141 -77 155 4 6 3 8 -4 4 -17 -10 -129 291 -118 320 3 8 2 12 -4 9 -6 -3 -10 0 -10 7 0 7 -3 24 -6 38 -4 20 -3 22 5 10 9 -13 11 -13 11 3 0 9 -6 17 -14 17 -43 0 -69 484 -37 680 19 119 52 251 61 245 4 -3 6 4 3 15 -3 12 0 20 6 20 7 0 10 4 7 9 -17 26 153 399 261 576 101 164 165 255 175 248 7 -3 8 -1 4 5 -9 15 23 64 37 55 6 -3 7 -1 3 5 -8 14 111 188 126 184 5 -1 7 2 3 8 -9 14 14 42 28 33 6 -3 7 -1 3 5 -9 15 43 84 57 75 6 -3 7 -1 3 5 -9 14 282 414 295 406 5 -3 6 1 3 9 -3 8 3 21 14 28 11 8 19 17 18 20 0 3 48 72 107 152 82 111 112 145 125 141 13 -5 14 -4 3 4 -10 7 14 48 114 187 69 97 162 229 206 293 44 64 85 116 90 114 6 -1 8 2 4 8 -3 5 25 58 64 118 86 134 112 178 220 368 52 92 91 149 99 147 8 -3 10 2 6 14 -3 10 2 6 11 -10 9 -15 13 -33 9 -39z"/>
<path d="M5115 6789 c-17 -5 -44 -22 -60 -39 -30 -31 -30 -32 -36 -183 -5 -140 -32 -317 -48 -317 -4 0 -7 -9 -8 -19 -1 -10 -16 -54 -34 -96 -23 -56 -34 -73 -41 -63 -7 10 -8 9 -4 -5 8 -25 -122 -232 -146 -232 -6 0 -12 -8 -14 -17 -3 -25 -64 -99 -75 -92 -5 3 -8 2 -7 -3 4 -15 -23 -54 -34 -47 -6 4 -8 3 -5 -3 5 -8 -31 -52 -219 -258 -35 -38 -95 -110 -134 -160 -39 -49 -75 -89 -80 -88 -5 2 -7 -3 -4 -10 2 -7 -6 -25 -20 -40 -14 -15 -23 -27 -20 -27 3 0 -3 -13 -12 -29 -10 -17 -22 -27 -27 -24 -6 3 -7 1 -4 -5 9 -14 -24 -72 -41 -72 -7 0 -12 -8 -11 -17 2 -10 0 -31 -5 -47 -6 -24 -9 -27 -17 -15 -8 11 -9 10 -7 -6 4 -33 -13 -100 -21 -86 -5 8 -8 2 -8 -16 0 -15 -7 -68 -15 -118 -24 -140 -8 -321 39 -433 8 -19 12 -41 9 -49 -3 -8 -2 -12 3 -9 12 8 22 -20 15 -41 -4 -13 -3 -14 3 -5 7 9 13 6 21 -13 7 -15 9 -31 6 -37 -4 -6 -2 -8 3 -5 6 4 25 -15 43 -42 17 -27 38 -55 46 -61 7 -7 14 -22 15 -34 0 -11 3 -15 6 -9 3 8 20 -6 44 -33 21 -25 39 -42 39 -37 0 4 4 3 8 -3 4 -6 39 -36 79 -66 40 -31 69 -59 65 -62 -3 -4 1 -4 10 -1 9 4 19 1 24 -6 5 -8 3 -10 -6 -4 -9 5 -11 4 -6 -4 4 -6 11 -9 16 -6 4 2 46 -13 93 -35 47 -22 90 -40 96 -40 6 0 11 -12 12 -27 0 -16 3 -22 6 -15 2 6 9 10 14 7 5 -4 6 2 2 12 -3 10 -2 15 2 11 16 -15 64 -141 58 -151 -3 -6 -2 -7 4 -4 5 3 25 -24 44 -61 19 -36 40 -72 47 -80 7 -8 20 -28 29 -45 9 -18 29 -51 45 -75 16 -23 27 -46 23 -51 -3 -5 0 -13 6 -17 8 -5 9 -3 4 6 -6 9 -4 11 4 6 7 -5 10 -15 7 -23 -3 -8 -2 -11 4 -8 11 7 32 -29 22 -40 -4 -5 -2 -5 5 -1 12 7 40 -31 35 -47 -1 -5 1 -6 6 -3 10 6 88 -93 85 -106 -2 -4 0 -7 5 -6 4 1 21 -2 39 -6 35 -8 86 12 97 39 3 9 9 14 14 11 21 -13 -5 73 -34 114 -19 26 -30 51 -26 55 4 5 2 5 -4 2 -15 -8 -145 175 -149 208 -1 14 -6 29 -10 33 -5 4 -5 -1 -2 -10 4 -10 5 -18 3 -18 -6 0 -59 87 -101 164 l-37 68 76 -4 c41 -2 70 -1 65 3 -6 3 23 9 63 12 90 8 238 45 337 86 41 17 79 27 84 24 6 -3 7 -2 4 4 -5 8 54 47 68 44 3 -1 15 8 27 19 12 11 28 18 36 15 7 -2 10 -1 7 4 -6 10 84 78 98 73 4 -1 6 3 5 9 -2 6 3 14 11 17 9 3 11 0 6 -8 -6 -9 -4 -11 4 -6 7 5 10 10 7 13 -3 3 30 44 74 90 44 46 106 125 139 176 33 51 65 98 71 105 6 6 9 12 6 12 -2 0 11 36 30 81 148 351 120 761 -82 1211 -24 54 -41 104 -38 110 5 7 2 8 -6 3 -10 -6 -12 -4 -7 9 4 9 3 15 -1 12 -4 -2 -25 28 -46 67 -21 40 -61 109 -88 154 -27 46 -46 88 -42 94 4 7 3 9 -3 6 -12 -7 -47 39 -39 51 3 4 0 14 -6 22 -8 12 -8 11 -3 -5 9 -28 2 -19 -60 75 -41 63 -52 86 -43 93 9 6 8 7 -4 3 -18 -5 -43 25 -43 54 0 8 -5 15 -12 15 -17 0 -85 94 -77 107 4 6 3 8 -3 5 -6 -4 -42 33 -81 81 -85 106 -218 253 -252 279 -19 15 -32 18 -55 12z m165 -412 c0 -10 4 -16 9 -12 5 3 12 1 16 -5 3 -5 1 -10 -5 -10 -6 0 -8 -5 -5 -10 4 -6 10 -8 15 -5 12 7 68 -67 62 -84 -3 -8 0 -11 6 -7 13 8 96 -99 88 -113 -4 -5 -1 -13 5 -17 8 -5 10 -2 5 7 -4 8 -1 5 8 -5 8 -10 13 -23 9 -29 -3 -6 -1 -7 5 -3 13 8 35 -28 24 -39 -4 -5 -2 -5 4 -2 9 5 84 -102 76 -110 -1 -2 7 -13 18 -25 13 -14 18 -29 14 -42 -4 -15 -3 -17 4 -8 7 10 15 3 34 -30 49 -83 50 -88 31 -81 -15 6 -16 5 -3 -9 8 -9 18 -14 22 -12 9 6 38 -49 38 -71 0 -8 4 -15 9 -15 11 0 74 -126 74 -147 0 -7 4 -13 8 -13 12 0 91 -210 85 -225 -3 -8 -1 -15 5 -17 21 -7 62 -202 62 -298 1 -55 4 -84 8 -70 4 15 7 -10 8 -62 1 -49 -2 -88 -6 -88 -5 0 -9 -30 -10 -68 -1 -79 -57 -267 -75 -256 -7 5 -9 2 -6 -8 8 -20 -29 -101 -42 -93 -5 3 -7 0 -5 -7 10 -27 -155 -235 -176 -222 -5 3 -13 -5 -18 -18 -11 -30 -45 -60 -62 -56 -8 2 -13 -2 -12 -9 4 -17 -84 -76 -99 -67 -7 5 -8 3 -3 -6 6 -10 4 -12 -9 -7 -10 4 -15 3 -11 -3 9 -14 -140 -83 -250 -115 -66 -20 -115 -27 -182 -28 -51 -1 -93 -5 -93 -9 0 -5 -5 -8 -11 -8 -5 0 -8 4 -4 9 3 6 -20 9 -59 7 l-64 -3 -11 56 c-26 139 -33 243 -21 345 13 113 40 234 66 292 9 22 18 44 19 50 7 31 67 144 77 144 6 0 9 3 5 6 -8 8 52 103 119 186 29 36 110 122 179 190 142 142 149 156 91 214 -38 38 -51 40 -101 20 -18 -8 -36 -11 -40 -8 -4 4 -5 2 -3 -3 3 -12 -223 -240 -235 -237 -5 1 -6 -1 -3 -6 8 -13 -24 -53 -36 -46 -6 4 -8 2 -5 -3 4 -6 -9 -31 -28 -56 -43 -56 -127 -193 -144 -236 -8 -17 -18 -28 -23 -24 -6 3 -9 0 -6 -8 3 -8 -6 -41 -20 -74 -69 -169 -95 -303 -95 -485 0 -80 3 -169 6 -197 l5 -52 -59 30 c-33 16 -57 34 -54 38 2 5 -3 8 -13 7 -10 0 -16 5 -14 13 2 8 -3 11 -12 8 -18 -7 -159 120 -149 135 3 6 1 8 -5 5 -14 -9 -86 89 -76 104 4 7 3 9 -3 6 -10 -6 -61 96 -82 163 -25 84 -31 185 -16 283 16 110 72 266 88 245 6 -9 7 -8 3 6 -10 30 145 273 166 260 6 -4 8 -2 4 4 -9 15 142 195 156 186 6 -4 8 -3 5 3 -9 14 22 55 36 47 7 -4 9 -4 5 1 -4 4 15 34 43 67 44 50 54 57 68 46 13 -10 14 -10 4 2 -10 10 -6 21 18 51 16 21 35 37 42 35 7 -1 9 -1 4 1 -4 3 14 31 39 64 26 32 51 56 57 52 5 -3 7 -2 4 4 -7 11 40 79 52 76 4 -1 8 4 8 11 0 13 80 137 96 147 5 3 8 9 8 13 -1 3 15 40 35 82 62 131 98 255 119 417 l6 48 39 -43 c22 -24 39 -51 40 -61z"/>
</g>
</svg>
