<?xml version="1.0" standalone="no"?>
<!DOCTYPE svg PUBLIC "-//W3C//DTD SVG 20010904//EN"
 "http://www.w3.org/TR/2001/REC-SVG-20010904/DTD/svg10.dtd">
<svg version="1.0" xmlns="http://www.w3.org/2000/svg"
 width="1024.000000pt" height="1024.000000pt" viewBox="0 0 1024.000000 1024.000000"
 preserveAspectRatio="xMidYMid meet">
<metadata>
Created by potrace 1.16, written by Peter Selinger 2001-2019
</metadata>
<g transform="translate(0.000000,1024.000000) scale(0.100000,-0.100000)"
fill="#000000" stroke="none">
<path d="M5048 8472 c-20 -15 -60 -53 -88 -84 -29 -32 -56 -55 -61 -52 -5 3
-8 0 -7 -8 2 -7 -3 -12 -9 -10 -7 1 -12 -2 -10 -6 3 -12 -135 -162 -145 -156
-5 3 -7 1 -6 -4 3 -8 -341 -371 -783 -827 -80 -82 -194 -201 -254 -262 -60
-63 -113 -110 -119 -106 -6 3 -8 3 -4 -2 4 -4 -12 -30 -37 -56 -57 -61 -65
-82 -65 -180 0 -46 -4 -79 -10 -79 -5 0 -10 -18 -10 -39 0 -22 5 -43 10 -46 6
-3 10 -12 10 -18 0 -7 -4 -6 -10 3 -6 10 -9 -10 -8 -60 0 -41 6 -81 12 -89 8
-11 8 -15 -1 -18 -7 -3 -13 -16 -13 -29 0 -17 4 -23 13 -18 10 6 10 4 0 -7
-15 -16 -17 -79 -3 -79 6 0 10 -9 10 -21 0 -11 -4 -17 -10 -14 -5 3 -10 1 -10
-4 0 -6 4 -11 10 -11 5 0 9 -11 8 -24 -1 -14 -5 -23 -9 -21 -11 8 -8 -59 4
-74 9 -12 9 -13 0 -7 -9 5 -13 -1 -13 -18 0 -14 5 -26 10 -26 6 0 10 -16 10
-35 0 -19 -4 -35 -10 -35 -5 0 -10 -12 -9 -27 l1 -28 8 25 c6 19 8 12 8 -30 0
-46 -2 -50 -8 -25 -6 22 -8 9 -8 -47 1 -43 5 -75 9 -72 5 3 9 0 9 -5 0 -6 -4
-11 -10 -11 -5 0 -9 -15 -9 -32 l1 -33 8 30 c8 30 8 30 9 -8 0 -21 -3 -36 -8
-33 -5 3 -9 -43 -9 -107 -1 -72 2 -105 8 -92 6 14 8 -6 8 -60 0 -55 -3 -72 -8
-55 -7 21 -8 19 -9 -17 -1 -24 4 -43 9 -43 6 0 10 -67 9 -182 -1 -107 -5 -168
-9 -148 -5 24 -7 5 -7 -60 0 -73 2 -85 7 -50 l7 45 1 -58 c1 -37 -2 -56 -8
-52 -6 4 -10 -15 -10 -49 0 -31 5 -56 10 -56 6 0 10 -8 10 -17 0 -15 -2 -16
-10 -3 -5 8 -10 10 -10 5 0 -6 5 -16 11 -22 8 -8 8 -13 0 -17 -8 -5 -11 -92
-10 -274 0 -158 4 -259 9 -247 5 12 9 -49 9 -157 1 -147 4 -184 19 -215 9 -21
19 -40 23 -43 16 -14 49 -80 41 -80 -6 0 -13 6 -15 13 -3 6 -4 -1 -2 -18 4
-41 3 -41 18 -22 10 15 18 6 64 -75 29 -51 66 -116 82 -144 20 -34 25 -51 16
-51 -7 0 -11 6 -8 13 2 6 -1 15 -7 19 -7 4 -10 -4 -8 -23 2 -25 6 -30 25 -29
19 2 30 -10 55 -53 19 -32 25 -49 15 -41 -15 12 -17 11 -17 -2 0 -9 5 -19 10
-22 8 -5 8 -11 0 -20 -8 -10 -8 -15 1 -21 8 -4 9 -3 5 4 -9 16 7 15 22 0 7 -7
12 -8 12 -2 0 5 -5 15 -12 22 -6 6 -10 14 -7 16 3 3 36 -47 74 -112 83 -141
80 -136 69 -129 -5 3 -10 -3 -10 -13 0 -11 6 -22 13 -24 7 -3 13 0 13 7 0 7
18 -17 39 -53 38 -62 39 -66 24 -90 -9 -14 -12 -22 -8 -18 4 4 17 3 28 -3 14
-8 18 -8 13 0 -4 6 -5 11 -3 11 12 0 57 -92 51 -103 -4 -6 -3 -9 1 -4 10 9 76
-93 69 -105 -3 -4 -1 -8 4 -8 5 0 28 -32 51 -72 32 -55 39 -74 29 -81 -10 -7
-9 -8 3 -4 11 4 35 -28 90 -121 41 -70 73 -135 72 -144 -2 -10 2 -18 8 -18 5
0 7 5 4 10 -3 5 -4 10 -2 10 2 0 16 -17 29 -37 58 -87 122 -133 213 -153 113
-25 270 45 458 205 36 30 67 52 71 50 3 -3 4 -2 1 2 -8 10 56 73 74 73 8 0 11
3 7 7 -10 10 65 83 78 76 6 -3 8 -3 4 2 -9 10 15 38 210 242 85 90 159 160
165 156 6 -3 7 -1 3 5 -9 15 83 114 97 105 5 -3 7 -1 3 5 -9 14 213 254 227
245 7 -3 9 -3 5 2 -9 9 15 37 171 204 64 68 122 132 129 143 7 10 19 15 25 12
7 -4 9 -4 5 1 -7 8 18 39 122 150 64 69 76 97 84 195 3 47 9 119 12 160 3 41
11 78 17 82 9 6 8 8 -1 8 -7 0 -11 4 -8 8 2 4 7 55 10 112 4 58 8 128 11 155
8 81 15 171 25 325 5 80 13 177 16 215 4 39 8 88 9 110 4 107 5 116 15 110 11
-7 9 23 -3 43 -5 6 -6 16 -3 21 3 4 8 41 11 82 2 41 9 137 15 214 5 77 12 172
15 210 9 130 16 220 20 265 2 25 7 88 11 140 3 52 11 98 18 102 8 5 7 8 -2 8
-8 0 -11 7 -8 18 10 35 39 470 32 496 -3 14 -33 57 -66 95 -32 38 -56 72 -52
76 4 4 0 5 -8 3 -8 -2 -14 3 -12 10 1 8 -1 11 -6 8 -5 -3 -22 9 -37 27 -52 58
-318 350 -443 485 -74 79 -120 137 -116 144 4 6 3 8 -4 4 -14 -8 -284 282
-275 297 3 5 1 7 -5 3 -13 -8 -84 73 -75 87 3 6 1 7 -5 3 -13 -8 -143 134
-135 147 3 6 2 7 -4 4 -10 -7 -230 231 -225 244 1 5 -2 8 -6 7 -9 -3 -142 137
-142 150 0 11 -61 32 -91 32 -13 -1 -41 -13 -61 -28z m300 -443 c17 -20 28
-40 24 -44 -4 -5 -2 -5 5 -2 13 8 116 -107 105 -118 -4 -5 -2 -5 5 -1 14 7 90
-80 85 -97 -2 -7 0 -9 4 -4 9 8 74 -51 74 -68 0 -5 9 -16 20 -23 12 -7 18 -17
15 -22 -3 -5 0 -12 6 -16 8 -4 9 -3 5 4 -12 19 -1 14 20 -10 10 -12 13 -18 5
-13 -10 5 -12 4 -7 -4 4 -6 11 -9 15 -6 12 7 54 -42 46 -54 -3 -6 0 -11 8 -11
7 0 64 -54 125 -119 103 -110 130 -143 100 -125 -7 4 -8 3 -4 -5 4 -6 11 -9
15 -7 12 8 83 -69 74 -79 -5 -4 -3 -5 3 -2 14 8 107 -97 96 -108 -4 -5 -2 -5
4 -2 6 3 44 -31 85 -75 41 -45 68 -79 62 -75 -9 6 -11 3 -7 -7 3 -9 10 -13 16
-10 11 7 39 -27 31 -39 -2 -4 1 -6 9 -5 7 2 12 -3 10 -10 -1 -8 2 -11 7 -8 15
10 81 -71 75 -91 -4 -13 -3 -15 4 -5 7 11 16 5 41 -24 17 -21 31 -41 31 -44 0
-11 -450 -151 -461 -144 -7 4 -9 3 -6 -3 7 -11 -181 -75 -225 -77 -14 -1 -24
-3 -22 -6 5 -4 -138 -55 -326 -115 -58 -18 -118 -38 -135 -44 -97 -36 -253
-80 -270 -77 -11 2 -13 1 -5 -2 8 -3 -43 -24 -115 -48 l-130 -42 -40 41 c-23
23 -39 45 -37 50 2 4 -1 7 -6 7 -16 0 -177 170 -180 189 -4 27 140 441 152
434 5 -3 6 -1 2 5 -10 16 4 63 17 55 5 -3 7 -1 3 5 -9 15 158 505 174 510 6 2
8 8 5 12 -3 5 45 152 106 327 61 175 117 340 125 366 l15 49 58 -64 c32 -35
72 -79 89 -99z m-375 44 c-20 -54 -42 -119 -51 -145 -13 -40 -18 -46 -30 -35
-13 10 -14 9 -3 -8 11 -17 9 -30 -7 -75 -11 -30 -48 -135 -83 -233 -42 -120
-66 -173 -72 -165 -6 9 -7 7 -3 -6 9 -28 -64 -242 -76 -225 -7 10 -8 8 -3 -7
3 -13 -20 -93 -59 -205 -35 -101 -83 -242 -107 -314 -24 -71 -44 -131 -45
-133 -1 -2 -97 38 -213 89 -121 53 -208 97 -204 102 4 6 0 8 -10 4 -22 -8 -49
2 -40 16 4 6 1 7 -6 3 -7 -5 -61 13 -124 40 -73 32 -105 50 -92 53 20 4 20 4
0 11 -17 6 -3 24 109 139 93 94 132 128 138 119 7 -10 8 -9 6 2 -4 23 33 72
49 66 8 -3 11 -1 8 4 -9 14 175 201 189 193 6 -3 8 -2 3 2 -10 11 73 96 86 88
6 -3 7 -1 3 5 -9 14 43 74 57 65 7 -3 9 -2 4 2 -10 12 63 86 77 78 6 -3 8 -2
3 2 -9 11 63 86 75 79 5 -3 7 -1 6 4 -4 14 143 173 154 166 5 -3 7 -1 6 4 -2
7 279 310 289 312 0 0 -15 -44 -34 -97z m-1156 -1480 c83 -37 149 -72 146 -77
-4 -5 -1 -6 6 -2 6 4 115 -38 244 -94 l232 -102 67 -70 c37 -39 65 -76 61 -82
-3 -6 -2 -8 2 -3 11 9 86 -63 79 -75 -3 -5 -2 -7 3 -6 4 1 29 -20 56 -46 l47
-49 0 -968 c0 -639 -3 -969 -10 -969 -5 0 -9 -15 -9 -32 l1 -33 8 30 c8 30 8
30 9 -8 1 -23 -3 -36 -9 -32 -6 4 -10 -9 -9 -32 1 -38 1 -38 9 -8 4 17 8 -179
9 -433 l1 -464 -29 19 c-97 60 -279 198 -274 206 3 6 2 7 -3 4 -6 -3 -32 10
-59 29 -28 19 -61 42 -75 51 -55 38 -85 67 -82 82 2 12 1 13 -6 3 -7 -10 -19
-7 -56 18 -26 18 -43 36 -40 42 4 6 2 8 -4 4 -13 -8 -154 88 -144 98 4 4 2 6
-3 4 -13 -4 -86 42 -81 51 3 4 0 13 -6 21 -8 12 -9 11 -4 -3 4 -12 2 -17 -6
-14 -7 2 -12 9 -11 14 1 5 -4 10 -11 10 -18 0 -193 121 -214 148 -16 20 -17
107 -17 1421 0 1393 0 1399 20 1396 l20 -3 -20 17 c-25 21 -22 20 162 -63z
m2803 -78 c-7 -8 -15 -13 -19 -11 -4 3 -13 1 -21 -4 -12 -7 -12 -10 3 -16 9
-3 25 0 33 7 15 12 16 9 11 -36 -4 -28 -9 -99 -12 -160 -4 -60 -8 -128 -10
-150 -2 -22 -9 -105 -15 -185 -22 -290 -40 -537 -45 -610 -6 -78 -28 -368 -46
-595 -5 -71 -12 -161 -14 -200 -5 -94 -27 -400 -40 -580 -15 -185 -20 -220
-34 -217 -7 1 -10 -2 -7 -7 8 -12 -302 -347 -317 -343 -7 2 -9 0 -5 -4 10 -10
-122 -155 -135 -147 -5 3 -7 2 -4 -4 10 -15 -49 -67 -65 -57 -10 6 -11 5 -1
-7 10 -13 2 -25 -47 -74 -45 -44 -59 -54 -55 -37 2 12 0 22 -6 22 -5 0 -7 -12
-5 -26 4 -21 -14 -45 -116 -155 -109 -117 -140 -147 -123 -119 3 6 -1 7 -10 3
-13 -5 -14 -7 -3 -14 10 -6 2 -19 -31 -53 -24 -25 -48 -43 -53 -40 -5 3 -7 1
-6 -4 2 -6 -28 -45 -67 -87 -38 -42 -91 -99 -118 -128 -26 -29 -44 -43 -40
-32 3 11 11 23 17 27 6 4 1 6 -11 6 -14 -2 -19 -7 -15 -18 16 -45 -33 37 -162
273 l-86 157 0 1544 0 1544 52 16 c28 8 56 12 61 9 6 -3 7 -2 4 4 -8 13 293
106 318 98 13 -5 16 -4 7 2 -15 11 356 136 405 137 18 0 28 3 23 6 -9 5 320
120 344 120 4 0 4 -6 0 -12 -4 -8 -3 -10 2 -5 5 5 7 11 4 14 -3 4 406 145 469
162 2 1 -2 -6 -9 -14z m-2690 -3105 c26 -19 103 -75 171 -125 67 -49 127 -93
131 -96 5 -3 10 -16 11 -27 1 -12 8 -22 15 -22 12 0 12 3 2 15 -19 23 -2 18
36 -11 18 -14 31 -31 27 -37 -3 -6 -1 -7 5 -3 13 8 94 -42 87 -54 -2 -3 1 -7
8 -7 21 0 67 -35 60 -46 -3 -5 -1 -7 4 -4 13 8 96 -50 88 -62 -2 -5 3 -8 12
-7 9 0 18 -5 20 -12 3 -8 -2 -10 -14 -6 -15 5 -15 4 -3 -5 9 -6 19 -6 24 -1
11 11 127 -70 119 -83 -3 -6 -1 -7 5 -3 6 3 25 -7 42 -24 23 -23 30 -36 25
-53 -4 -14 -3 -18 3 -9 6 9 12 6 21 -14 11 -25 10 -26 -4 -14 -25 21 -31 2 -7
-21 13 -11 19 -25 16 -31 -4 -7 -2 -8 4 -4 6 4 9 14 5 24 -10 29 19 -15 76
-116 28 -51 49 -98 45 -104 -4 -6 -3 -8 2 -5 6 3 28 -28 51 -69 l42 -74 -70
-60 c-91 -79 -145 -114 -160 -104 -8 4 -9 3 -5 -5 10 -16 -54 -41 -107 -41
-49 0 -102 32 -93 56 3 8 0 13 -6 11 -17 -3 -148 214 -142 235 3 9 0 19 -5 23
-7 3 -8 0 -5 -9 18 -46 -15 2 -109 162 -203 344 -218 372 -211 384 4 6 3 8 -3
5 -14 -9 -56 61 -47 75 4 6 3 9 -2 5 -12 -7 -208 329 -200 342 4 5 1 13 -5 17
-8 4 -9 3 -5 -4 4 -7 5 -12 2 -12 -2 0 -11 12 -18 28 -8 15 -23 40 -34 57
l-19 30 34 -25 c18 -14 55 -41 81 -60z"/>
<path d="M3899 2326 c-2 -2 -49 -6 -104 -9 -55 -3 -107 -8 -115 -11 -23 -8
-128 -18 -197 -20 -33 0 -59 -4 -57 -7 2 -4 -15 -9 -39 -13 -38 -6 -187 -40
-294 -67 -23 -6 -47 -8 -54 -4 -7 5 -10 4 -6 -2 8 -12 -99 -47 -115 -37 -6 4
-8 3 -5 -3 3 -5 -20 -20 -51 -33 -31 -12 -90 -38 -129 -58 -59 -29 -74 -41
-83 -67 -12 -36 -2 -72 24 -94 9 -7 14 -17 11 -21 -3 -5 0 -12 6 -16 8 -5 9
-3 4 6 -6 10 -2 11 18 6 19 -4 41 1 74 18 162 83 579 205 652 191 12 -2 21 -1
21 4 0 10 139 29 346 46 98 8 198 16 221 19 53 4 82 36 83 88 0 20 -5 40 -11
43 -6 4 -8 13 -5 21 3 8 0 11 -8 8 -8 -3 -17 -1 -21 5 -6 10 -156 16 -166 7z"/>
<path d="M5422 2151 c-8 -4 -14 -12 -14 -17 -1 -5 -11 -23 -24 -40 -25 -33
-31 -54 -14 -54 6 0 10 -6 10 -13 0 -8 10 -23 23 -34 24 -23 133 -37 357 -47
58 -3 130 -7 160 -10 112 -10 209 -16 360 -22 85 -3 161 -7 168 -9 9 -3 897
-8 959 -6 24 2 73 53 73 78 0 33 -29 81 -54 89 -11 4 -245 8 -521 10 -275 2
-513 5 -530 8 -16 2 -104 7 -194 11 -90 4 -171 8 -180 10 -9 1 -83 6 -166 11
-82 4 -152 8 -155 9 -3 1 -61 5 -130 10 -81 5 -116 11 -100 16 20 6 21 7 5 8
-11 0 -26 -3 -33 -8z"/>
</g>
</svg>
