<?xml version="1.0" standalone="no"?>
<!DOCTYPE svg PUBLIC "-//W3C//DTD SVG 20010904//EN"
 "http://www.w3.org/TR/2001/REC-SVG-20010904/DTD/svg10.dtd">
<svg version="1.0" xmlns="http://www.w3.org/2000/svg"
 width="1024.000000pt" height="1024.000000pt" viewBox="0 0 1024.000000 1024.000000"
 preserveAspectRatio="xMidYMid meet">
<metadata>
Created by potrace 1.16, written by Peter Selinger 2001-2019
</metadata>
<g transform="translate(0.000000,1024.000000) scale(0.100000,-0.100000)"
fill="#000000" stroke="none">
<path d="M5068 9340 c-23 -9 -64 -28 -89 -43 -25 -15 -49 -24 -54 -19 -4 4 -5
2 -2 -4 4 -7 -4 -19 -18 -28 -66 -43 -198 -175 -317 -316 -44 -52 -84 -94 -90
-92 -5 1 -7 -1 -4 -6 7 -12 -72 -118 -86 -114 -5 1 -7 -2 -3 -8 3 -5 -7 -29
-23 -52 -16 -24 -37 -59 -47 -78 -10 -19 -21 -37 -24 -40 -12 -9 -71 -106 -71
-116 0 -6 -8 -19 -18 -30 -10 -10 -20 -23 -22 -29 -19 -55 -58 -125 -69 -125
-8 0 -11 6 -7 16 3 8 2 13 -2 10 -10 -6 -128 133 -124 146 1 5 -1 7 -6 4 -5
-3 -22 9 -38 26 -16 17 -24 28 -17 24 6 -3 14 -2 17 3 4 5 -2 8 -11 6 -21 -3
-95 64 -86 78 3 6 2 7 -4 4 -5 -3 -38 19 -73 50 -35 30 -82 66 -104 80 -23 15
-43 30 -46 34 -3 4 -34 22 -68 39 -88 44 -191 51 -244 18 -47 -30 -87 -81
-135 -173 -21 -42 -45 -75 -53 -75 -11 0 -12 -2 -3 -8 9 -6 6 -24 -11 -72 -13
-36 -32 -98 -42 -137 -10 -40 -23 -73 -29 -73 -5 0 -4 -4 3 -8 9 -6 10 -16 3
-34 -34 -90 -47 -625 -16 -692 6 -14 5 -17 -6 -14 -8 3 -13 11 -11 17 1 7 -2
10 -8 6 -14 -9 -90 26 -83 38 4 6 0 8 -10 4 -17 -6 -97 21 -97 34 0 4 -8 7
-17 7 -10 -1 -56 11 -103 25 -47 14 -98 28 -115 31 -16 3 -43 8 -60 11 -70 13
-159 25 -183 24 -15 0 -77 0 -139 1 -61 1 -129 -3 -150 -9 -21 -5 -45 -9 -53
-8 -8 1 -16 -2 -17 -6 -1 -4 -11 -19 -23 -34 -13 -16 -20 -41 -20 -67 0 -23
-6 -48 -12 -54 -10 -10 -10 -17 0 -32 16 -25 15 -43 0 -34 -10 6 -10 4 -2 -7
6 -8 14 -45 18 -82 8 -87 38 -228 70 -337 30 -99 31 -105 12 -88 -7 7 -11 20
-9 28 2 8 -1 6 -8 -4 -9 -15 -9 -21 -1 -24 7 -2 12 -10 12 -19 0 -8 6 -13 13
-10 17 5 54 -89 52 -135 -1 -20 2 -35 7 -32 5 4 7 13 4 21 -4 8 -1 11 5 7 6
-3 9 -15 6 -25 -3 -11 -2 -17 2 -14 8 4 72 -123 70 -140 0 -6 -5 -1 -10 10
l-9 20 3 -20 c2 -11 8 -19 15 -18 6 2 24 -21 38 -49 15 -29 51 -92 81 -140 30
-48 51 -93 48 -98 -4 -6 -1 -9 6 -8 6 2 14 -3 17 -11 3 -10 0 -11 -9 -5 -12 7
-12 5 0 -9 7 -9 17 -15 21 -12 15 9 29 -21 24 -53 -3 -21 -1 -32 7 -32 7 0 9
10 6 26 -2 14 -1 22 2 17 4 -4 27 -33 51 -63 25 -30 69 -84 100 -119 30 -35
54 -67 53 -72 -2 -4 4 -6 12 -3 14 6 20 -7 15 -31 -1 -5 2 -7 6 -3 7 8 32 -11
124 -95 30 -27 48 -46 40 -42 -9 5 -12 4 -7 -1 5 -5 12 -9 17 -9 5 0 53 -32
107 -71 164 -118 319 -207 475 -274 42 -18 74 -38 71 -43 -3 -6 -1 -7 5 -3 18
11 155 -46 140 -57 -9 -6 -7 -7 6 -2 23 7 228 -73 220 -87 -5 -8 9 -12 40 -8
11 1 15 -3 12 -9 -4 -6 -1 -9 6 -6 20 8 400 -183 392 -197 -4 -7 -3 -8 4 -4
13 8 77 -22 68 -31 -3 -3 -12 -1 -19 6 -11 9 -17 7 -28 -6 -13 -16 -12 -17 3
-5 12 9 18 10 23 2 4 -6 14 -9 22 -6 17 7 86 -32 78 -44 -3 -4 3 -7 13 -6 9 0
16 -5 15 -11 -2 -7 0 -12 5 -12 22 4 40 -4 67 -27 17 -14 24 -22 16 -18 -10 5
-12 3 -7 -5 5 -7 14 -10 22 -7 7 3 16 0 20 -6 4 -7 3 -8 -4 -4 -7 4 -12 5 -12
2 0 -3 10 -10 21 -17 16 -8 20 -8 14 1 -6 9 -2 9 14 0 12 -6 19 -15 16 -21 -4
-5 -2 -8 3 -7 5 2 43 -25 85 -60 l77 -62 -2 -93 c-1 -78 -2 -85 -9 -47 -6 38
-7 35 -4 -24 2 -42 8 -72 16 -76 7 -5 19 -32 26 -62 8 -29 25 -77 38 -105 14
-32 20 -55 14 -59 -6 -4 -6 -11 2 -20 6 -7 15 -12 19 -9 4 2 24 -20 45 -50 29
-42 35 -58 26 -68 -8 -10 -7 -14 4 -14 8 0 11 5 8 10 -4 6 -1 7 6 2 10 -6 12
-52 7 -205 -3 -109 -8 -215 -10 -237 -3 -21 -8 -85 -10 -143 -13 -249 -56
-705 -66 -693 -21 24 -109 244 -104 260 4 13 3 14 -3 5 -14 -18 -35 32 -27 64
4 14 2 24 -5 24 -6 0 -8 -8 -5 -18 3 -9 -33 61 -80 157 -47 95 -83 178 -79
184 3 5 2 7 -4 4 -5 -3 -31 31 -57 77 -25 46 -75 127 -111 181 -35 54 -62 102
-58 108 3 6 2 7 -4 4 -6 -4 -42 33 -81 81 -119 147 -349 357 -499 457 -24 15
-40 32 -36 38 3 5 1 7 -5 3 -12 -7 -134 63 -127 74 3 4 -1 7 -8 7 -6 -1 -77
31 -156 71 -79 39 -149 72 -155 72 -7 0 -31 9 -55 21 -124 60 -432 140 -655
171 -193 26 -537 31 -576 8 -14 -8 -28 -13 -32 -12 -5 1 -7 -1 -6 -6 1 -4 -2
-20 -7 -36 -10 -36 14 -115 62 -208 20 -37 33 -75 29 -83 -3 -9 -2 -14 2 -11
5 3 16 -9 26 -27 10 -18 11 -24 4 -15 -10 11 -19 14 -29 7 -11 -7 -11 -9 4 -9
11 0 15 -4 11 -12 -4 -6 -3 -8 2 -5 17 10 32 -7 74 -83 34 -63 37 -70 14 -47
-14 16 -29 26 -32 23 -3 -3 8 -16 23 -28 16 -13 34 -27 40 -33 32 -27 124
-176 119 -190 -5 -11 -2 -14 10 -9 12 5 15 2 9 -12 -4 -11 -3 -15 4 -11 5 4
21 -5 33 -18 14 -15 18 -25 11 -25 -10 0 -11 -3 -2 -13 8 -10 7 -17 -1 -25 -9
-9 -9 -12 0 -12 11 0 16 14 13 34 -1 5 5 4 13 -3 9 -7 13 -17 10 -22 -3 -5 -1
-8 3 -7 13 4 134 -138 125 -146 -4 -4 -2 -6 4 -4 6 2 45 -28 85 -67 41 -38 95
-88 121 -109 25 -22 45 -45 44 -50 -2 -6 -1 -8 1 -3 3 4 18 -2 34 -14 16 -11
27 -24 24 -29 -3 -4 3 -14 13 -21 16 -13 16 -13 2 5 -8 11 20 -4 62 -34 43
-29 75 -56 73 -60 -3 -4 3 -14 12 -21 12 -10 14 -10 9 -1 -12 21 8 13 58 -20
55 -38 55 -38 164 -102 45 -26 82 -52 82 -57 0 -6 4 -8 9 -4 6 3 35 -7 65 -22
35 -17 51 -30 44 -34 -7 -5 1 -7 18 -7 34 1 106 -30 99 -42 -3 -5 0 -12 6 -16
8 -4 9 -3 5 4 -4 7 -1 12 9 12 9 0 14 -3 12 -7 -3 -5 9 -9 25 -10 17 -1 35 -7
42 -12 6 -5 30 -15 53 -21 23 -7 41 -16 39 -19 -2 -3 6 -6 17 -7 12 -1 81 -18
152 -38 186 -53 333 -77 604 -98 l143 -12 20 -45 c15 -36 17 -50 8 -70 -10
-21 -9 -23 4 -12 13 11 17 11 21 0 2 -8 18 -51 35 -97 32 -89 36 -107 20 -97
-6 4 -10 -6 -8 -25 2 -23 6 -30 19 -27 30 8 40 -29 38 -148 -1 -65 -5 -112
-10 -109 -12 7 -12 -9 0 -22 13 -14 -10 -182 -53 -374 -23 -104 -51 -180 -65
-180 -11 0 -13 -3 -4 -8 9 -6 4 -35 -23 -120 -19 -62 -39 -112 -45 -112 -6 0
-7 -5 -4 -10 4 -6 -23 -101 -60 -211 -41 -122 -64 -210 -61 -223 10 -39 54
-79 82 -73 13 2 24 0 24 -4 0 -5 5 -9 11 -9 5 0 8 4 5 9 -3 4 3 16 14 26 10 9
40 80 65 156 26 77 51 137 56 134 5 -4 6 0 4 7 -7 18 135 437 185 543 21 47
44 85 50 85 6 0 9 4 6 9 -3 5 10 38 31 73 20 34 49 87 65 116 16 29 34 50 39
47 5 -4 7 0 4 7 -6 16 168 361 178 353 4 -3 5 -2 2 1 -2 4 2 18 10 33 11 21
29 31 97 50 124 35 286 89 348 115 30 13 100 43 155 66 55 23 163 75 240 114
77 39 146 70 152 70 7 -1 11 2 8 6 -2 4 19 20 48 35 29 16 91 53 139 82 48 29
92 52 99 51 7 -2 13 3 14 9 0 18 73 65 87 57 6 -4 8 -3 4 4 -8 14 80 75 96 66
6 -4 8 -3 5 3 -8 13 82 85 96 76 5 -3 7 -1 4 4 -8 13 82 85 95 77 4 -3 7 -1 6
4 -4 15 72 83 84 76 6 -4 8 -2 5 4 -8 11 110 119 125 114 5 -1 7 1 5 5 -3 5
31 46 75 93 44 47 77 80 74 73 -3 -6 -2 -14 3 -17 4 -3 8 3 7 13 -1 24 82 123
96 115 7 -4 8 -2 4 4 -9 15 41 82 57 78 7 -1 9 -1 5 1 -6 4 63 112 100 158 66
83 220 351 282 490 42 96 48 137 28 191 -10 27 -17 33 -55 38 -24 3 -89 1
-145 -5 -55 -5 -107 -8 -114 -5 -7 3 -14 0 -16 -6 -2 -6 -22 -12 -43 -14 -90
-9 -403 -92 -488 -128 -17 -8 -72 -30 -122 -49 -100 -39 -182 -74 -265 -115
-68 -34 -263 -143 -270 -152 -3 -4 -12 -9 -20 -12 -20 -7 -192 -131 -255 -184
-123 -102 -209 -183 -290 -276 -27 -31 -54 -54 -60 -51 -5 4 -7 3 -3 -2 8 -8
-2 -24 -97 -155 -34 -47 -71 -101 -81 -120 -10 -19 -22 -37 -25 -40 -3 -3 -33
-53 -66 -112 -33 -59 -64 -104 -68 -100 -5 4 -5 2 -1 -5 4 -7 2 -20 -3 -30
-35 -67 -98 -200 -157 -331 -52 -118 -70 -150 -76 -135 -5 12 -6 8 -3 -12 4
-24 -21 -82 -119 -280 -116 -234 -124 -247 -121 -200 2 28 4 58 4 68 1 10 4
16 9 14 4 -3 8 34 9 82 2 47 8 111 14 141 6 30 13 62 14 70 2 8 4 28 4 43 1
19 5 26 13 21 8 -5 9 -2 5 9 -3 9 2 101 13 204 20 204 26 276 36 456 4 64 10
117 13 117 3 0 6 55 5 123 -1 67 4 187 10 267 l12 145 41 61 c58 85 119 210
138 280 9 32 20 110 25 172 6 63 12 117 15 122 14 22 198 137 287 179 188 87
206 94 193 69 -4 -7 -1 -6 7 3 7 8 22 18 33 21 109 31 215 60 235 64 14 3 43
10 65 15 76 19 139 28 164 24 22 -5 23 -4 6 4 -23 10 -30 7 90 31 33 7 95 23
138 37 42 13 82 21 89 17 6 -4 8 -3 5 3 -5 8 123 60 163 66 8 1 17 5 20 8 12
16 182 89 192 83 6 -4 8 -3 5 3 -3 5 23 26 59 47 55 31 68 35 82 25 14 -11 15
-11 5 1 -10 11 9 28 105 93 64 44 122 80 129 80 7 0 10 3 8 7 -2 4 26 31 62
61 166 134 364 362 476 545 96 158 149 271 203 432 31 94 31 132 -1 170 -22
26 -85 60 -85 46 0 -3 -8 0 -18 5 -19 10 -219 40 -284 43 -21 1 -35 4 -33 8 5
7 -132 5 -204 -4 -25 -3 -77 -8 -116 -12 -38 -3 -90 -10 -115 -15 -25 -5 -58
-12 -75 -15 -48 -9 -176 -51 -254 -84 -71 -29 -72 -29 -65 -7 3 12 13 34 21
50 31 62 107 280 135 387 63 248 93 605 68 815 -17 145 -24 224 -24 277 -1 25
-4 42 -7 36 -9 -13 -20 61 -14 92 3 14 2 19 -1 11 -6 -14 -56 134 -58 171 0 9
-3 15 -7 13 -3 -3 -12 6 -18 19 -28 51 -107 72 -206 56 -33 -6 -73 -12 -88
-15 -15 -3 -36 -9 -47 -15 -12 -7 -21 -7 -25 0 -3 5 -12 10 -18 10 -7 0 -6 -4
3 -10 12 -7 11 -10 -5 -16 -62 -20 -164 -70 -236 -115 -29 -19 -53 -27 -65
-23 -14 4 -16 3 -5 -4 11 -8 10 -12 -8 -21 -26 -14 -47 -5 -32 13 8 9 7 13 -3
13 -14 0 -16 -14 -3 -33 7 -12 -37 -47 -60 -47 -6 0 -11 -3 -10 -7 4 -12 -114
-101 -125 -94 -6 4 -8 3 -5 -3 7 -10 -54 -77 -85 -94 -13 -7 -18 -2 -27 22 -6
17 -8 36 -4 42 3 5 2 7 -3 4 -6 -3 -36 47 -68 111 -75 153 -165 311 -239 424
-21 32 -35 63 -31 70 4 6 3 8 -3 5 -6 -4 -39 32 -74 81 -136 187 -327 358
-422 377 -9 2 -23 7 -30 12 -20 13 -53 11 -99 -7z m114 -184 c10 -7 16 -16 13
-19 -3 -4 -2 -5 2 -2 14 11 88 -53 88 -77 0 -5 5 -8 10 -8 15 -1 80 -67 146
-149 51 -63 58 -75 47 -90 -11 -14 -11 -14 3 -3 14 10 20 6 43 -28 15 -23 24
-46 20 -52 -4 -6 -3 -8 4 -5 14 9 93 -118 86 -138 -4 -9 -1 -15 9 -15 14 0
103 -148 109 -182 2 -7 6 -15 9 -18 16 -13 59 -112 53 -122 -4 -6 -3 -8 3 -5
12 8 26 -20 17 -34 -3 -5 -1 -9 4 -9 5 0 19 -21 30 -47 19 -44 19 -49 4 -55
-15 -6 -14 -8 5 -13 40 -13 35 -35 -29 -124 -35 -47 -67 -93 -73 -102 -62
-101 -88 -133 -97 -119 -58 98 -96 175 -91 184 3 6 2 8 -2 3 -11 -10 -88 110
-80 124 4 5 2 8 -3 7 -6 -2 -33 28 -62 65 -82 108 -171 194 -229 221 -96 44
-166 19 -318 -113 -49 -43 -94 -76 -101 -75 -7 1 -8 0 -2 -3 5 -2 -21 -41 -58
-86 -38 -45 -94 -117 -126 -159 -32 -43 -63 -75 -69 -71 -6 3 -7 1 -3 -5 9
-15 -34 -73 -47 -65 -6 3 -7 1 -3 -5 9 -15 -43 -94 -57 -85 -6 3 -7 1 -3 -5 4
-6 -18 -52 -48 -102 -29 -50 -56 -88 -58 -83 -3 4 -3 2 -1 -6 2 -7 -11 -45
-28 -83 -23 -50 -36 -67 -47 -63 -12 4 -12 2 -3 -8 8 -11 3 -37 -24 -114 -32
-91 -50 -179 -73 -348 l-8 -60 -8 85 c-4 47 -12 127 -18 179 -7 59 -8 142 -3
220 4 69 7 135 7 146 1 21 26 206 33 240 3 11 7 37 10 58 11 77 27 129 37 115
6 -8 7 -4 3 12 -10 45 54 229 135 390 22 44 43 80 46 80 3 0 3 -7 0 -16 -3 -9
-2 -12 5 -9 6 4 8 14 4 22 -5 14 39 103 51 103 3 0 2 -6 -2 -12 -4 -7 -3 -10
1 -5 5 4 9 15 10 25 2 27 136 223 148 215 5 -3 7 -1 4 4 -8 13 51 89 65 85 5
-1 7 2 4 7 -9 13 105 142 118 134 6 -3 8 -2 3 2 -12 13 63 84 82 78 12 -4 13
-3 3 5 -28 19 206 202 258 202 14 0 33 -7 42 -14z m-1684 -556 c28 -13 41 -24
36 -31 -4 -8 -3 -9 5 -5 20 13 268 -195 256 -215 -3 -4 3 -13 13 -20 16 -13
16 -12 2 6 -11 15 -8 14 12 -4 15 -13 25 -28 21 -34 -3 -6 -1 -7 5 -3 13 8 35
-28 24 -39 -4 -5 -2 -5 4 -2 14 8 54 -34 58 -59 2 -11 8 -19 13 -19 14 0 113
-123 113 -140 0 -7 -7 -15 -15 -19 -8 -3 -15 -11 -15 -18 0 -9 3 -9 11 2 8 12
10 10 5 -10 -3 -14 -11 -49 -17 -77 -7 -29 -16 -53 -21 -53 -5 0 -7 -4 -4 -9
3 -4 -4 -60 -14 -124 -11 -64 -20 -120 -19 -124 4 -22 -2 -54 -8 -50 -16 10
-15 -493 1 -642 9 -80 14 -147 11 -149 -3 -3 -1 -10 4 -16 5 -6 11 -29 15 -51
l7 -40 -27 40 c-32 47 -111 143 -167 202 -25 26 -36 46 -32 54 5 7 4 10 -2 6
-5 -3 -32 15 -60 41 -75 70 -123 113 -170 153 -23 20 -39 40 -35 44 4 4 2 5
-4 3 -14 -4 -144 89 -144 103 0 5 -6 9 -12 9 -7 0 -24 10 -38 21 -14 11 -19
17 -11 13 9 -5 12 -3 7 5 -4 6 -11 9 -16 6 -5 -3 -25 4 -44 17 -34 23 -38 34
-52 148 -8 62 -11 439 -4 435 5 -3 6 4 3 15 -6 24 21 194 48 301 23 94 88 251
100 243 5 -3 6 1 4 9 -3 7 8 32 25 55 35 49 60 53 128 22z m3457 -118 c-2 -2
3 -19 11 -37 17 -42 17 -48 2 -40 -7 4 -5 0 4 -7 9 -8 19 -32 23 -53 5 -30 4
-36 -4 -25 -7 9 -11 11 -11 3 0 -7 7 -16 16 -21 12 -6 15 -18 12 -35 -3 -15
-1 -24 3 -21 5 3 9 -9 9 -26 0 -21 -4 -29 -12 -24 -7 4 -8 3 -4 -5 4 -6 11 -9
16 -6 4 2 11 -30 15 -73 4 -42 9 -90 11 -107 2 -16 7 -85 10 -152 5 -92 4
-126 -6 -138 -7 -8 -8 -15 -3 -15 12 0 7 -76 -13 -230 -25 -182 -32 -209 -55
-205 -21 4 -25 -11 -9 -35 8 -12 10 -12 11 5 0 13 2 15 6 6 3 -8 -2 -20 -13
-28 -10 -7 -12 -13 -6 -13 7 0 12 -7 12 -15 0 -8 -3 -15 -7 -15 -5 0 -8 -10
-9 -22 -2 -39 -14 -89 -30 -119 -8 -16 -14 -30 -14 -31 4 -15 -98 -227 -152
-316 -60 -102 -156 -228 -169 -224 -5 1 -8 -1 -7 -5 7 -20 -178 -226 -194
-217 -5 3 -7 2 -6 -3 3 -10 -94 -107 -192 -191 -36 -31 -84 -74 -107 -95 -27
-26 -46 -37 -55 -32 -7 5 -10 4 -5 0 10 -12 -83 -106 -97 -98 -6 3 -8 2 -3 -2
4 -5 -28 -45 -70 -89 -137 -142 -203 -216 -203 -225 0 -10 -30 -25 -43 -22 -5
1 -6 -2 -3 -7 5 -8 -39 -82 -49 -82 -6 0 26 82 37 94 4 6 8 16 8 23 0 7 24 74
54 150 70 179 69 176 72 188 2 6 19 52 38 102 39 101 101 331 109 403 12 103
20 149 27 145 9 -5 10 538 1 545 -3 3 -17 59 -30 125 -13 66 -34 156 -48 200
-13 44 -21 86 -18 93 2 7 0 10 -5 7 -15 -9 -24 44 -11 72 10 22 14 23 29 12
15 -13 16 -12 3 3 -12 16 -8 27 29 93 24 41 47 72 51 69 5 -3 6 1 3 9 -3 8 1
21 8 28 8 8 28 34 45 59 42 60 93 116 104 113 5 -2 8 1 6 6 -7 24 208 240 233
233 7 -1 9 2 6 6 -11 18 197 167 216 156 7 -4 8 -3 4 4 -8 14 30 36 46 26 6
-4 8 -3 5 3 -8 13 78 54 100 47 14 -5 15 -4 4 4 -25 18 173 80 251 78 9 0 15
-2 13 -4z m-1786 -316 c38 -20 93 -84 85 -99 -4 -7 -3 -9 1 -4 10 9 47 -22 39
-34 -3 -5 0 -9 6 -9 6 0 8 -5 5 -10 -4 -6 -1 -9 7 -8 7 2 12 -5 12 -14 -1 -10
2 -16 6 -13 5 3 17 -7 28 -22 30 -44 36 -57 24 -49 -6 3 -14 1 -18 -5 -4 -8
-3 -9 4 -5 7 4 12 2 12 -4 0 -6 4 -9 9 -5 5 3 12 1 16 -5 3 -6 -4 -10 -16 -10
-19 0 -20 -15 -1 -15 4 0 13 -4 21 -9 10 -7 12 -5 7 5 -4 8 0 5 9 -6 28 -34
56 -95 49 -107 -4 -7 -3 -8 4 -4 16 10 65 -89 57 -117 -4 -15 -3 -18 3 -9 6 9
19 -10 44 -65 48 -106 54 -124 34 -117 -10 4 -16 1 -16 -9 0 -20 20 -33 29
-19 4 6 17 -21 30 -61 13 -40 26 -79 28 -87 3 -8 7 -31 9 -50 3 -27 2 -31 -5
-15 -9 19 -10 19 -10 -2 -1 -15 5 -23 17 -24 12 0 13 -2 3 -6 -9 -4 -10 -8 -2
-12 11 -7 26 -65 39 -151 3 -25 6 -130 6 -235 0 -173 -4 -244 -19 -315 -3 -14
-12 -59 -20 -100 -22 -110 -77 -300 -86 -295 -4 3 -5 -4 -2 -15 3 -12 0 -20
-6 -20 -7 0 -10 -4 -6 -9 5 -9 -62 -191 -106 -286 -10 -22 -42 -102 -72 -178
-29 -75 -55 -136 -58 -133 -2 2 -5 -11 -6 -31 -1 -19 -6 -40 -11 -46 -5 -7
-24 -58 -43 -114 -18 -56 -37 -99 -42 -96 -6 3 -7 1 -3 -5 6 -10 -37 -183 -52
-206 -3 -6 -6 -19 -7 -30 -1 -12 -5 -37 -9 -57 l-8 -36 -96 -1 c-64 0 -89 2
-72 8 24 8 24 8 -6 9 -28 1 -33 5 -39 39 -4 20 -11 42 -15 47 -5 6 -11 24 -14
40 -7 36 -70 201 -120 309 -20 44 -34 86 -31 95 2 9 0 23 -6 31 -8 12 -9 9 -5
-10 4 -14 -21 29 -54 94 -33 66 -58 126 -55 133 2 8 1 12 -4 9 -11 -7 -84 133
-134 254 -52 126 -120 338 -113 355 3 8 0 14 -5 12 -6 -1 -13 9 -15 23 -2 14
-9 36 -14 50 -5 14 -12 39 -15 55 -3 17 -14 80 -25 140 -27 142 -35 318 -21
420 15 108 43 225 52 219 4 -2 11 1 15 7 4 8 3 9 -4 5 -17 -10 -15 1 9 69 27
79 99 231 146 308 73 122 215 317 225 310 6 -3 8 -1 5 4 -6 9 176 226 215 258
68 56 134 105 141 105 4 0 21 -7 36 -14z m-3037 -664 c7 18 238 14 358 -7 136
-24 386 -108 374 -126 -3 -5 2 -6 10 -3 15 6 148 -60 261 -129 53 -34 70 -49
69 -65 -1 -12 3 -22 8 -22 6 0 8 7 4 15 -3 8 -2 15 2 15 13 0 137 -98 138
-109 1 -6 2 -16 3 -22 0 -5 6 -7 12 -3 8 4 7 9 -2 15 -8 5 -9 9 -3 9 5 0 19
-8 30 -17 10 -10 47 -42 82 -71 34 -30 59 -58 56 -63 -3 -5 0 -8 8 -7 7 2 12
-3 10 -10 -1 -8 2 -11 6 -8 11 7 45 -29 48 -50 1 -9 6 -19 10 -22 4 -4 4 2 0
13 -4 11 17 -4 48 -35 60 -59 67 -71 36 -65 -11 2 -18 0 -15 -5 3 -5 14 -7 25
-5 23 5 106 -88 94 -106 -4 -8 -3 -9 4 -5 13 8 135 -152 126 -165 -3 -5 0 -9
5 -9 20 0 112 -152 105 -175 -4 -14 -2 -16 4 -7 7 10 13 7 26 -13 9 -14 14
-31 10 -38 -4 -7 -4 -9 1 -5 11 10 87 -121 78 -135 -3 -5 -1 -7 4 -4 12 8 26
-20 18 -33 -3 -5 4 -15 16 -24 35 -24 79 -100 47 -80 -7 4 -8 3 -4 -5 4 -6 12
-8 18 -5 8 5 9 1 5 -10 -4 -10 -3 -15 3 -11 11 7 33 -32 25 -45 -3 -6 1 -10 9
-10 9 0 16 -4 16 -8 0 -5 22 -47 50 -93 36 -60 46 -85 37 -91 -8 -5 -7 -8 5
-8 16 0 73 -89 68 -106 -1 -4 2 -10 7 -13 9 -6 14 -17 55 -96 65 -126 110
-234 103 -246 -5 -7 -4 -10 2 -6 5 3 20 -17 33 -46 13 -29 41 -89 61 -135 l38
-82 -34 26 c-19 14 -32 30 -29 35 3 5 -1 7 -8 4 -7 -3 -24 5 -38 17 -14 13
-21 19 -14 15 7 -5 15 -3 20 4 4 7 3 9 -4 5 -6 -3 -13 -2 -17 4 -4 6 -11 8
-16 4 -10 -6 -152 80 -144 88 3 3 -1 5 -8 5 -7 0 -58 25 -113 56 -54 30 -134
72 -176 93 -42 21 -74 42 -71 47 3 6 1 7 -5 3 -11 -7 -273 104 -267 114 2 3
-7 6 -18 7 -33 3 -49 8 -87 26 -19 9 -92 39 -162 68 -75 30 -125 55 -122 61 4
6 1 8 -7 6 -20 -8 -191 81 -182 95 3 5 1 7 -5 3 -17 -10 -226 119 -216 135 3
5 -1 7 -8 4 -14 -5 -143 98 -248 198 -94 90 -251 279 -245 295 2 7 0 10 -5 7
-21 -13 -202 293 -275 466 -19 46 -39 92 -45 101 -6 11 -6 19 0 23 6 3 10 12
10 18 0 8 -3 8 -9 -1 -22 -36 -105 296 -117 468 -3 47 -7 92 -10 100 -3 10 0
9 10 -3 10 -13 15 -15 18 -5z m5806 -818 c44 -5 97 -22 74 -23 -26 -2 0 -21
26 -20 24 0 25 1 7 9 -17 7 -15 9 11 9 31 1 32 0 24 -32 -7 -31 -86 -209 -121
-272 -9 -16 -22 -29 -27 -28 -6 2 -9 -3 -6 -10 11 -29 -215 -328 -336 -446
-97 -94 -231 -202 -242 -195 -6 4 -8 3 -5 -3 9 -14 -130 -106 -145 -97 -6 4
-8 3 -5 -3 4 -6 1 -15 -6 -21 -22 -18 -227 -124 -227 -117 0 3 -7 0 -15 -8
-30 -30 -341 -147 -400 -150 -18 -1 -31 -5 -29 -8 3 -5 -102 -33 -205 -55 -24
-5 -298 -73 -316 -78 -5 -2 -17 -6 -25 -9 -8 -3 -42 -13 -75 -21 -33 -8 -73
-20 -90 -27 -16 -7 -32 -13 -35 -13 -20 -4 -138 -56 -197 -88 -40 -20 -73 -34
-73 -30 0 14 37 62 42 56 4 -3 12 5 19 18 12 22 11 22 -6 8 -21 -17 -8 8 73
135 88 138 150 215 169 209 13 -4 14 -3 5 3 -10 8 -1 24 38 71 29 34 56 59 61
56 5 -3 8 -1 7 4 -9 28 455 462 485 454 7 -2 9 0 4 4 -9 10 33 55 45 48 5 -3
8 -2 7 3 -3 12 292 308 303 305 5 -1 7 1 4 6 -11 18 177 168 195 156 5 -3 9 1
9 8 0 16 167 101 180 93 6 -3 10 -2 10 4 0 5 24 17 53 26 28 9 59 19 67 22 8
3 20 7 27 9 6 1 35 7 65 14 155 36 400 46 576 24z m-5698 -2024 c-11 -7 -6
-10 20 -9 29 0 31 2 15 9 -13 6 7 7 55 5 41 -2 94 -4 118 -4 24 -1 41 -5 38
-10 -3 -4 5 -6 18 -4 61 12 484 -77 604 -126 26 -11 75 -30 110 -42 62 -22 66
-26 62 -64 -2 -16 0 -17 14 -6 13 11 16 11 16 1 0 -8 3 -10 7 -7 3 4 -2 16
-12 27 -10 11 -15 20 -12 20 17 0 155 -75 151 -81 -2 -4 1 -11 7 -15 8 -4 9
-3 5 4 -9 15 -3 15 29 0 14 -6 25 -16 25 -21 0 -6 3 -8 6 -4 12 12 227 -129
218 -144 -3 -5 -2 -9 3 -8 4 1 13 1 19 0 17 -2 89 -62 86 -72 -1 -5 2 -8 7 -7
5 2 28 -12 51 -31 32 -26 38 -36 28 -43 -10 -7 -9 -8 4 -4 10 3 21 -1 25 -8 5
-7 18 -18 31 -25 13 -7 20 -17 16 -24 -4 -7 -3 -9 1 -4 13 11 95 -73 88 -90
-4 -9 0 -13 9 -11 8 2 37 -24 66 -59 51 -61 63 -81 40 -67 -7 4 -8 3 -4 -5 4
-6 11 -9 16 -6 12 7 53 -52 45 -65 -4 -6 -1 -9 7 -8 7 2 12 -5 12 -14 -1 -10
3 -16 9 -15 5 1 19 -13 30 -32 12 -19 16 -31 9 -27 -8 5 -12 -2 -12 -21 0 -22
2 -25 10 -13 9 13 10 13 10 0 0 -12 2 -13 9 -1 11 18 86 -113 75 -131 -4 -7
-3 -9 1 -5 13 12 76 -104 69 -128 -4 -14 -3 -16 4 -7 7 11 10 11 15 -2 4 -9 2
-16 -4 -16 -6 0 -1 -9 12 -21 13 -11 3 -6 -24 11 -26 17 -47 33 -47 36 0 3 6
2 13 -2 6 -4 8 -3 4 1 -4 5 -14 10 -22 11 -8 1 -35 17 -60 35 -33 24 -42 35
-33 42 9 6 8 7 -4 4 -13 -5 -79 38 -173 111 -5 4 -36 27 -68 51 -41 30 -57 47
-53 58 5 13 4 14 -9 3 -14 -12 -19 -7 -16 13 1 5 -4 7 -11 4 -18 -6 -100 52
-92 65 4 7 2 8 -4 4 -12 -7 -225 132 -250 163 -7 9 -16 15 -20 15 -23 -4 -145
79 -134 91 4 5 2 5 -5 2 -6 -4 -67 26 -135 67 -68 40 -199 112 -292 160 -182
93 -200 97 -243 49 -27 -28 -29 -60 -7 -91 8 -12 85 -56 170 -98 85 -42 152
-80 149 -84 -3 -5 0 -12 6 -16 8 -4 9 -3 5 4 -10 16 5 15 26 -2 10 -7 14 -17
10 -21 -4 -5 -1 -5 6 -1 19 11 176 -85 159 -97 -8 -5 -5 -6 8 -3 23 6 189 -96
177 -109 -4 -4 -2 -5 5 -1 7 4 21 -2 33 -14 11 -11 23 -21 28 -22 4 -2 6 -7 4
-11 -1 -5 2 -6 7 -2 12 7 153 -84 146 -94 -2 -4 1 -13 7 -21 8 -12 9 -11 4 3
-4 12 -2 17 6 14 7 -2 12 -10 10 -16 -1 -7 2 -10 6 -7 9 5 135 -77 180 -117
12 -12 20 -27 18 -34 -3 -7 1 -13 10 -13 8 0 12 5 8 11 -10 16 34 -9 78 -44
21 -16 35 -33 33 -37 -3 -4 3 -7 13 -6 12 1 17 -6 16 -21 -1 -13 3 -20 7 -17
5 3 7 10 4 15 -11 16 11 9 28 -9 10 -10 14 -22 10 -27 -5 -4 -3 -5 4 -2 6 4
38 -14 72 -39 55 -41 80 -66 49 -48 -8 4 -10 3 -5 -2 5 -5 12 -9 17 -9 8 0
100 -64 100 -70 0 -1 -15 -1 -32 1 -239 26 -223 23 -410 70 -59 15 -106 30
-104 33 2 3 -12 7 -31 8 -19 1 -43 5 -52 8 -14 6 -13 8 4 15 19 8 19 9 -2 9
-13 1 -23 -4 -23 -10 0 -6 -5 -7 -12 -2 -7 4 -17 8 -23 8 -5 1 -9 7 -7 14 1 7
-2 10 -7 7 -5 -4 -33 3 -62 14 -66 26 -287 137 -354 177 -179 109 -227 142
-219 154 3 5 -1 6 -9 3 -8 -3 -21 1 -28 8 -8 8 -32 27 -54 43 -78 58 -140 118
-137 134 2 13 1 14 -7 2 -7 -11 -38 13 -140 115 -72 71 -131 135 -131 142 0 6
-4 12 -9 12 -11 0 -154 189 -213 280 -70 108 -138 235 -133 248 2 7 1 11 -4 8
-8 -5 -17 11 -47 82 l-14 32 32 0 c25 0 29 -3 18 -10z m5533 -127 c-30 -60
-62 -115 -71 -123 -9 -9 -18 -22 -20 -30 -2 -8 -15 -34 -30 -57 -22 -35 -29
-40 -42 -30 -13 11 -13 10 -1 -5 11 -15 11 -21 0 -37 -8 -10 -36 -51 -62 -90
-28 -41 -53 -68 -59 -65 -6 4 -8 2 -5 -4 13 -19 -257 -336 -277 -325 -6 3 -8
2 -3 -2 9 -11 -33 -56 -45 -49 -5 3 -7 2 -6 -3 5 -16 -51 -75 -63 -67 -7 4 -9
3 -6 -3 10 -15 -31 -48 -62 -49 -14 -1 -34 -2 -43 -3 -10 0 -18 -9 -18 -18 0
-14 2 -15 9 -5 4 7 21 15 37 17 27 3 26 1 -23 -44 -64 -57 -105 -90 -211 -170
-66 -52 -85 -61 -96 -51 -8 6 -12 19 -8 28 5 16 5 16 -11 0 -18 -17 -23 -33
-8 -24 5 3 14 -1 20 -8 10 -12 3 -20 -35 -46 -37 -26 -48 -30 -56 -19 -8 11
-9 11 -5 -2 4 -13 -23 -49 -37 -49 -3 0 -41 -23 -85 -51 -47 -30 -85 -48 -92
-43 -7 4 -10 3 -6 -3 3 -5 -36 -33 -87 -61 -98 -55 -112 -60 -100 -39 4 7 3 9
-2 4 -5 -5 -8 -11 -6 -14 5 -8 -85 -56 -181 -99 -86 -38 -91 -39 -81 -22 4 7
3 8 -5 4 -6 -4 -9 -11 -6 -15 5 -8 -25 -21 -199 -86 l-88 -34 118 112 c65 62
122 111 127 109 4 -1 6 2 3 7 -8 13 203 203 216 194 6 -3 8 -1 5 4 -5 9 108
114 193 180 8 6 40 32 72 56 31 25 59 43 62 40 3 -4 6 -1 6 6 0 20 361 282
606 440 50 32 94 66 98 76 9 25 7 73 -4 80 -5 3 -10 12 -10 18 0 8 3 8 9 -2 6
-9 11 -10 15 -2 9 13 10 13 -83 16 -40 2 -68 -1 -61 -5 16 -10 -5 -24 -22 -14
-7 4 -10 3 -5 -1 9 -11 -74 -66 -91 -60 -7 3 -10 1 -7 -5 6 -10 -171 -133
-192 -133 -7 0 -11 -2 -8 -5 8 -8 -44 -44 -55 -37 -6 4 -9 2 -8 -3 4 -13 -169
-143 -185 -139 -7 1 -11 -3 -10 -10 3 -14 -58 -63 -84 -68 -10 -1 -17 -7 -16
-12 2 -10 -2 -14 -139 -122 -48 -38 -97 -79 -109 -90 -12 -11 -27 -18 -32 -14
-6 3 -7 1 -4 -4 9 -14 -19 -37 -34 -27 -7 4 -9 3 -5 -4 3 -5 -10 -25 -30 -44
-20 -18 -46 -43 -59 -56 -12 -13 -29 -24 -39 -26 -9 -1 -17 -6 -17 -12 0 -5
-10 -19 -21 -32 -17 -17 -24 -19 -30 -10 -7 10 -8 9 -6 -2 4 -19 -136 -153
-147 -142 -5 4 -5 2 -2 -4 3 -6 -7 -24 -24 -40 l-31 -29 15 35 c31 74 51 109
59 104 4 -3 5 1 2 9 -11 29 186 367 318 545 86 118 341 378 359 366 7 -4 10
-3 5 4 -7 11 120 109 136 104 5 -1 7 1 5 5 -7 12 160 121 293 191 314 166 706
297 985 328 33 4 67 10 75 15 8 5 16 9 16 9 1 0 -23 -48 -53 -107z m-2536 19
c-7 -75 -37 -173 -73 -242 -27 -51 -69 -106 -60 -77 3 11 2 16 -4 12 -14 -9
-71 120 -63 141 4 11 2 15 -4 11 -15 -10 -33 70 -33 146 l0 65 106 1 c67 1
104 -2 100 -8 -4 -5 -2 -12 4 -16 6 -4 8 -11 5 -16 -4 -5 -1 -9 4 -9 6 0 11
14 11 30 0 17 3 30 6 30 4 0 4 -31 1 -68z"/>
</g>
</svg>
