<?xml version="1.0" standalone="no"?>
<!DOCTYPE svg PUBLIC "-//W3C//DTD SVG 20010904//EN"
 "http://www.w3.org/TR/2001/REC-SVG-20010904/DTD/svg10.dtd">
<svg version="1.0" xmlns="http://www.w3.org/2000/svg"
 width="1024.000000pt" height="1024.000000pt" viewBox="0 0 1024.000000 1024.000000"
 preserveAspectRatio="xMidYMid meet">
<metadata>
Created by potrace 1.16, written by Peter Selinger 2001-2019
</metadata>
<g transform="translate(0.000000,1024.000000) scale(0.100000,-0.100000)"
fill="#000000" stroke="none">
<path d="M4680 6830 c-671 -62 -1209 -363 -1330 -745 -12 -38 -24 -77 -27 -85
-16 -46 -13 -181 6 -273 32 -158 104 -288 225 -406 30 -30 52 -59 49 -64 -3
-6 -2 -7 4 -4 6 4 34 -12 64 -34 30 -22 67 -47 82 -55 16 -9 25 -20 21 -26 -4
-7 -3 -8 4 -4 14 8 115 -48 105 -58 -4 -4 -1 -5 7 -2 17 7 80 -28 80 -44 0 -6
4 -8 10 -5 6 4 8 -11 6 -38 -4 -62 -49 -138 -132 -226 -60 -64 -70 -80 -63
-98 13 -35 40 -44 101 -33 189 36 355 112 535 244 32 23 32 23 110 8 60 -12
153 -15 398 -16 291 0 329 2 418 21 111 25 127 34 127 72 0 57 -25 61 -175 31
-74 -16 -155 -22 -310 -26 -215 -6 -340 3 -491 32 l-82 16 -58 -48 c-100 -81
-195 -135 -358 -203 -29 -12 -29 -12 8 30 46 50 84 129 92 192 5 35 2 55 -15
89 -19 40 -31 49 -136 102 -240 122 -381 248 -465 416 -58 116 -77 290 -45
414 33 127 140 283 256 374 77 60 223 145 316 184 63 27 75 29 90 17 16 -12
17 -12 5 2 -11 14 -2 19 70 42 96 31 212 58 353 84 142 26 603 25 750 -1 392
-69 640 -178 828 -363 124 -122 193 -237 218 -362 12 -64 8 -228 -7 -252 -11
-18 -15 -59 -9 -86 6 -24 57 -57 70 -45 3 4 12 7 18 7 20 0 48 152 49 265 1
89 -3 119 -26 195 -102 329 -427 583 -896 699 -244 60 -607 88 -850 66z"/>
<path d="M4364 5946 c-19 -19 -35 -43 -35 -55 -4 -65 -3 -79 6 -78 6 1 9 -6 9
-16 -1 -10 0 -16 3 -13 3 3 18 -1 34 -9 15 -8 47 -15 70 -15 34 0 47 6 76 35
33 33 35 39 30 82 -7 65 -49 103 -113 103 -39 0 -51 -5 -80 -34z"/>
<path d="M4834 5958 c-41 -31 -44 -37 -44 -87 0 -37 6 -49 38 -81 38 -38 43
-39 114 -27 47 8 85 85 70 142 -18 67 -121 97 -178 53z"/>
<path d="M5287 5964 c-41 -22 -68 -87 -53 -126 29 -79 135 -107 190 -49 92 96
-20 239 -137 175z"/>
<path d="M6215 5465 c-133 -25 -233 -69 -355 -157 -41 -29 -79 -54 -84 -55 -6
-2 -11 -10 -12 -19 -1 -9 -14 -28 -27 -43 -33 -35 -81 -115 -102 -173 -10 -27
-20 -48 -24 -48 -9 0 -16 -93 -15 -200 1 -146 45 -268 139 -389 56 -73 86
-100 170 -154 146 -94 279 -130 460 -125 88 2 113 0 123 -12 8 -8 11 -9 7 -2
-11 21 10 14 56 -20 59 -43 190 -103 269 -123 73 -19 132 -26 125 -15 -3 4 2
13 10 20 23 19 18 35 -25 85 -46 53 -90 134 -90 165 0 20 21 50 35 50 15 0
139 128 173 179 20 31 49 87 65 126 26 62 30 85 34 200 3 82 1 147 -7 175 -6
25 -12 52 -14 61 -1 9 -24 55 -51 103 -86 153 -238 278 -411 337 -148 50 -301
62 -449 34z m394 -130 c274 -93 449 -335 427 -592 -12 -136 -62 -240 -166
-343 -41 -41 -92 -88 -112 -103 -46 -34 -47 -53 -14 -152 14 -38 23 -71 22
-72 -5 -5 -105 53 -171 99 l-70 48 -54 -10 c-30 -5 -78 -10 -108 -10 -69 0
-194 20 -188 30 3 5 -4 6 -15 3 -27 -7 -172 66 -242 122 -80 63 -153 173 -188
284 -23 71 -26 180 -9 263 32 158 159 312 327 397 23 12 42 17 42 11 0 -5 4
-10 10 -10 5 0 7 6 4 14 -5 13 20 22 121 45 22 5 99 8 170 7 111 -3 142 -7
214 -31z"/>
<path d="M6350 5191 c-16 -14 -19 -34 -22 -168 -2 -84 -6 -153 -10 -153 -3 0
-5 -12 -3 -27 3 -28 -22 -63 -45 -63 -5 0 -10 -4 -10 -9 0 -5 -54 -45 -120
-88 -108 -70 -119 -81 -120 -108 0 -24 -2 -27 -11 -15 -9 13 -10 13 -6 0 2 -8
11 -14 19 -12 9 1 21 -5 28 -13 7 -8 20 -15 29 -15 20 0 250 154 311 208 l44
39 4 202 c3 142 1 205 -7 215 -18 22 -60 25 -81 7z"/>
</g>
</svg>
