<?xml version="1.0" standalone="no"?>
<!DOCTYPE svg PUBLIC "-//W3C//DTD SVG 20010904//EN"
 "http://www.w3.org/TR/2001/REC-SVG-20010904/DTD/svg10.dtd">
<svg version="1.0" xmlns="http://www.w3.org/2000/svg"
 width="1024.000000pt" height="1024.000000pt" viewBox="0 0 1024.000000 1024.000000"
 preserveAspectRatio="xMidYMid meet">
<metadata>
Created by potrace 1.16, written by Peter Selinger 2001-2019
</metadata>
<g transform="translate(0.000000,1024.000000) scale(0.100000,-0.100000)"
fill="#000000" stroke="none">
<path d="M4880 7753 c0 -9 -20 -13 -67 -13 -138 0 -435 -45 -583 -87 -30 -8
-88 -29 -128 -44 -40 -16 -79 -26 -85 -23 -7 4 -9 3 -4 -1 9 -10 -112 -77
-125 -69 -5 3 -7 0 -6 -8 2 -7 -6 -13 -17 -13 -11 0 -20 -5 -21 -10 0 -15
-148 -159 -159 -156 -5 1 -7 0 -3 -4 4 -4 -6 -34 -23 -66 -45 -91 -60 -161
-57 -271 2 -53 6 -94 11 -91 4 2 7 -2 7 -11 0 -8 -5 -17 -10 -19 -6 -3 -5 -4
2 -3 7 1 22 -19 34 -45 49 -105 138 -200 250 -265 31 -18 41 -30 38 -42 -5
-13 -4 -14 4 -4 7 11 16 10 48 -3 21 -10 86 -34 144 -56 58 -21 95 -38 83 -38
-68 -2 -329 -96 -451 -162 -40 -22 -78 -37 -84 -33 -6 4 -8 3 -5 -3 4 -6 -24
-34 -62 -62 -149 -110 -269 -280 -302 -426 -6 -27 -14 -56 -18 -63 -3 -8 -3
-59 0 -115 5 -77 14 -124 38 -192 18 -49 32 -96 33 -102 1 -7 5 -13 10 -13 5
0 6 -10 3 -22 -4 -14 -3 -18 2 -11 10 14 87 -83 77 -98 -3 -5 0 -8 8 -7 7 2
12 -3 10 -10 -1 -8 1 -11 6 -8 12 7 94 -78 85 -89 -5 -4 -3 -5 3 -2 6 4 26 -5
45 -19 73 -55 168 -111 241 -144 42 -19 74 -38 72 -42 -3 -4 3 -5 12 -1 13 5
16 3 11 -10 -3 -9 -2 -19 4 -22 5 -4 8 -3 7 2 -5 13 10 15 55 8 39 -7 33 -9
-93 -35 -141 -28 -267 -63 -385 -107 -71 -26 -280 -126 -302 -145 -7 -5 -18
-6 -24 -2 -7 4 -9 3 -6 -3 9 -14 -40 -46 -55 -37 -6 4 -8 3 -5 -3 8 -12 -40
-48 -63 -48 -8 -1 -14 -6 -13 -13 3 -13 -75 -78 -88 -75 -5 2 -8 -1 -6 -5 4
-14 -105 -142 -116 -135 -6 3 -7 1 -3 -5 7 -12 -37 -86 -45 -77 -3 2 -5 -4 -6
-13 -1 -21 -68 -173 -74 -168 -2 3 -5 -8 -5 -22 -1 -15 -7 -56 -13 -92 -14
-87 -13 -228 3 -320 7 -41 11 -82 9 -90 -4 -12 -3 -12 5 -2 7 11 11 8 15 -9 4
-13 4 -25 2 -28 -3 -2 -5 1 -5 8 0 7 -4 10 -9 7 -5 -4 -3 -19 6 -36 17 -36 23
-38 16 -7 -3 12 11 -9 30 -48 46 -94 120 -196 198 -274 35 -36 63 -69 61 -73
-1 -5 2 -7 7 -4 5 4 27 -10 48 -31 21 -20 45 -37 53 -37 8 -1 14 -7 12 -14 -1
-8 2 -11 7 -8 6 4 36 -10 67 -30 81 -52 230 -119 354 -160 115 -38 285 -84
313 -84 9 0 17 -5 17 -11 0 -5 4 -7 10 -4 5 3 60 -3 122 -14 247 -44 475 -61
873 -65 627 -7 1070 31 1488 129 37 9 73 13 80 9 7 -4 9 -4 5 1 -4 4 50 27
121 50 158 52 327 132 441 210 47 31 90 58 97 58 7 0 10 4 8 8 -7 11 91 90
100 81 5 -4 5 -1 0 7 -4 7 -3 16 2 20 22 14 104 124 137 184 50 88 83 188 102
304 13 82 14 112 4 183 -26 182 -105 355 -222 484 -10 10 -15 24 -11 29 3 6 2
7 -4 4 -13 -8 -106 87 -96 98 5 4 2 5 -4 1 -15 -8 -120 72 -115 88 2 6 0 8 -4
3 -4 -4 -19 1 -33 10 -14 10 -68 41 -118 69 -51 28 -89 55 -85 59 4 5 1 5 -6
1 -7 -4 -22 -4 -33 -1 -17 6 -19 9 -8 17 11 8 10 9 -4 4 -10 -3 -44 5 -75 17
-31 13 -79 29 -105 37 -35 9 -45 16 -35 22 10 8 9 9 -4 4 -9 -2 -69 8 -132 24
-63 16 -138 32 -165 36 -28 4 -51 10 -51 13 0 4 51 24 114 45 125 41 297 121
391 181 134 85 263 222 326 347 32 63 69 187 69 230 0 16 4 28 8 28 21 0 -13
207 -48 299 -16 41 -26 79 -23 84 3 6 1 7 -5 3 -6 -4 -18 6 -27 24 -49 96
-193 225 -349 314 -48 27 -73 46 -64 50 7 3 3 3 -9 0 -12 -3 -35 2 -52 10 -68
36 -271 94 -423 122 -53 10 -95 21 -93 24 2 4 -2 7 -10 7 -8 0 -12 -3 -10 -6
2 -4 -15 -5 -36 -3 l-40 4 75 33 c89 38 158 78 205 116 19 16 39 25 44 22 6
-3 7 -1 4 4 -4 6 3 19 15 29 32 28 97 132 110 175 6 21 14 37 17 35 3 -2 7 31
9 73 6 156 -46 285 -163 405 -32 33 -58 65 -57 69 1 5 -2 6 -7 3 -5 -3 -21 4
-36 15 -14 12 -64 43 -111 69 -46 26 -80 51 -76 55 4 5 1 5 -5 1 -7 -4 -57 9
-111 28 -53 19 -121 41 -149 47 -30 7 -50 17 -46 22 3 6 1 7 -5 3 -7 -4 -63 2
-125 14 -135 24 -367 50 -455 50 -45 0 -61 3 -56 12 5 7 3 8 -5 3 -20 -12 -95
-13 -103 -1 -5 8 -8 7 -8 -1z m270 -193 c140 -10 352 -40 435 -61 183 -47 444
-158 438 -187 -2 -6 3 -9 10 -6 16 6 80 -53 72 -66 -3 -6 1 -7 9 -4 14 6 21
-5 17 -28 0 -5 4 -7 11 -5 36 7 94 -146 85 -224 -8 -62 -35 -128 -46 -110 -7
10 -10 9 -14 -4 -4 -9 -3 -13 3 -10 21 13 8 -13 -26 -54 -22 -25 -42 -40 -51
-37 -8 3 -12 2 -8 -3 16 -27 -181 -120 -340 -160 -239 -60 -531 -86 -888 -78
-337 7 -559 41 -756 117 -117 45 -239 129 -224 153 3 6 1 7 -5 3 -17 -10 -70
70 -88 133 -21 69 -15 169 14 234 16 37 25 46 39 41 15 -5 15 -4 3 5 -12 8 -8
17 25 52 53 54 149 123 211 150 287 125 664 177 1074 149z m550 -1234 c114
-10 242 -24 315 -37 166 -28 439 -105 429 -120 -3 -5 1 -6 9 -4 19 8 159 -64
151 -77 -4 -7 -2 -8 4 -4 26 16 221 -151 206 -176 -4 -7 -4 -10 1 -6 25 23
105 -148 108 -228 1 -33 6 -62 11 -65 9 -7 -7 -120 -26 -179 -10 -30 -12 -32
-18 -15 -6 14 -7 10 -7 -16 1 -55 -60 -140 -176 -247 -27 -24 -52 -40 -59 -36
-6 4 -8 3 -4 -4 13 -21 -259 -164 -315 -166 -15 -1 -25 -4 -23 -7 5 -9 -185
-65 -297 -88 -181 -37 -332 -54 -501 -55 -93 -1 -168 -3 -168 -6 0 -3 -9 -6
-20 -6 -11 0 -20 4 -20 8 0 4 -5 8 -11 8 -5 0 -7 -5 -3 -11 5 -8 -30 -10 -127
-6 -74 3 -206 8 -294 11 -233 8 -603 59 -560 78 14 5 10 6 -12 2 -20 -3 -70 6
-140 27 -59 17 -116 34 -126 37 -15 4 -16 7 -5 14 9 7 7 8 -8 3 -22 -6 -148
52 -239 111 -71 45 -146 114 -138 126 3 6 1 8 -5 4 -11 -6 -51 40 -94 109 -73
117 -96 272 -59 394 12 39 26 69 31 66 5 -3 7 0 5 7 -8 21 65 126 126 184 30
27 83 70 118 93 78 53 229 124 248 117 8 -3 12 -2 9 2 -10 17 277 93 459 122
201 32 491 52 527 36 10 -4 23 -6 30 -3 7 3 2 7 -12 8 -14 2 34 6 105 9 132 5
421 -2 575 -14z m-556 -1696 c19 -4 37 -5 40 -3 8 8 237 3 391 -8 257 -18 620
-72 609 -90 -3 -5 2 -6 10 -3 8 3 50 -2 92 -12 56 -14 71 -20 57 -26 -12 -6
-8 -7 14 -4 18 3 45 1 60 -4 15 -5 47 -14 71 -20 23 -6 40 -15 37 -20 -3 -6 0
-7 8 -4 19 7 181 -56 284 -111 254 -135 424 -316 498 -530 25 -72 31 -243 11
-327 -19 -83 -74 -201 -88 -192 -7 4 -8 2 -4 -5 8 -13 -66 -119 -90 -128 -8
-3 -14 -12 -14 -20 0 -10 -6 -12 -20 -8 -12 4 -20 2 -20 -5 0 -6 6 -8 13 -4 6
4 -1 -7 -17 -24 -16 -18 -31 -30 -33 -28 -2 1 -22 -14 -44 -35 -48 -44 -75
-61 -218 -130 -92 -45 -108 -50 -125 -39 -18 12 -19 11 -9 -2 11 -12 1 -18
-65 -41 -171 -58 -315 -92 -544 -127 -307 -48 -713 -75 -743 -50 -13 11 -14
10 -9 -4 6 -15 -16 -17 -287 -15 -329 2 -505 11 -689 34 -284 36 -586 98 -573
117 3 7 1 8 -5 4 -15 -9 -103 14 -96 25 3 5 -1 6 -9 3 -16 -6 -220 81 -299
127 -230 134 -395 333 -449 542 -25 98 -25 240 1 341 60 235 249 440 543 589
43 21 84 36 93 33 8 -3 13 -2 9 3 -7 12 151 65 166 55 7 -4 9 -3 5 4 -8 13 48
27 65 16 7 -4 9 -3 5 4 -13 22 361 92 594 112 179 14 234 16 507 17 127 1 248
-2 267 -7z"/>
</g>
</svg>
