<?xml version="1.0" standalone="no"?>
<!DOCTYPE svg PUBLIC "-//W3C//DTD SVG 20010904//EN" "http://www.w3.org/TR/2001/REC-SVG-20010904/DTD/svg10.dtd">
<svg xmlns="http://www.w3.org/2000/svg" version="1.0" width="1024.000000pt" height="1024.000000pt" viewBox="0 0 1024.000000 1024.000000" preserveAspectRatio="xMidYMid meet">
<metadata>
Created by potrace 1.16, written by Peter Selinger 2001-2019
<meta name="Producer" content="Online-Convert"/></metadata>
<g transform="translate(0.000000,1024.000000) scale(0.100000,-0.100000)" fill="#000000" stroke="none">
<path d="M5310 8330 c11 -8 -11 -10 -72 -8 -47 2 -84 0 -82 -3 3 -6 -106 -20 -173 -23 -17 0 -29 -5 -26 -10 3 -5 -6 -7 -20 -4 -15 3 -24 1 -21 -3 3 -5 -4 -9 -15 -9 -12 0 -62 -13 -113 -30 -69 -22 -95 -26 -105 -18 -8 6 -16 8 -20 4 -3 -3 -1 -6 5 -6 29 0 7 -18 -55 -44 -155 -66 -337 -173 -460 -273 -24 -19 -48 -31 -54 -27 -8 4 -7 9 2 15 11 7 10 9 -3 9 -20 0 -23 -11 -8 -26 8 -8 -14 -32 -72 -82 -46 -39 -98 -86 -117 -106 -19 -19 -39 -32 -44 -29 -6 3 -8 2 -4 -3 6 -11 -151 -190 -164 -186 -5 1 -8 -2 -7 -6 2 -5 -34 -56 -78 -114 -45 -58 -114 -154 -154 -214 -40 -60 -79 -114 -87 -121 -8 -6 -14 -14 -13 -18 4 -14 -84 -154 -93 -148 -6 3 -7 1 -3 -5 3 -6 -1 -27 -11 -46 -14 -30 -19 -34 -32 -23 -14 10 -14 10 -4 -4 11 -13 6 -30 -29 -97 -24 -44 -45 -79 -48 -77 -3 2 -6 -7 -6 -18 -1 -12 -28 -83 -61 -157 -62 -138 -152 -378 -174 -462 -7 -26 -17 -44 -22 -41 -6 3 -7 1 -3 -5 3 -6 -7 -59 -22 -119 -32 -120 -48 -189 -58 -245 -3 -21 -10 -38 -14 -38 -4 0 -5 -11 -2 -25 2 -15 0 -25 -7 -25 -6 0 -11 10 -11 22 0 17 -3 19 -12 10 -9 -9 -7 -16 6 -31 17 -19 17 -25 2 -118 -40 -244 -50 -400 -48 -723 1 -173 5 -340 8 -370 4 -30 7 -76 8 -102 0 -25 5 -44 10 -41 5 4 6 -11 2 -35 -3 -23 -2 -42 2 -42 5 0 19 -60 32 -133 12 -72 36 -183 51 -245 16 -63 26 -119 22 -125 -4 -6 -1 -7 7 -2 10 6 12 3 8 -13 -4 -12 -2 -22 2 -22 8 0 24 -50 25 -75 0 -5 3 -12 6 -15 12 -10 59 -152 53 -161 -3 -5 -1 -9 4 -9 12 0 34 -49 27 -61 -4 -5 -2 -9 3 -9 4 0 16 -17 26 -37 16 -34 16 -38 2 -49 -9 -6 -16 -15 -16 -20 0 -4 5 -3 12 4 18 18 31 15 24 -5 -4 -10 -4 -14 0 -10 10 9 114 -184 107 -197 -4 -5 -1 -6 5 -2 11 6 28 -30 23 -49 -1 -5 1 -7 5 -3 4 4 20 -13 36 -39 21 -32 26 -48 18 -53 -9 -5 -9 -9 -1 -14 6 -4 11 -1 11 6 1 7 9 3 20 -11 11 -12 17 -28 13 -34 -3 -6 -1 -7 5 -3 7 4 12 3 12 -2 0 -4 31 -47 69 -94 39 -47 67 -89 63 -93 -4 -4 -2 -5 3 -3 11 3 107 -95 106 -109 -1 -4 5 -8 12 -8 6 -1 11 -7 9 -15 -2 -8 0 -12 4 -8 8 9 110 -81 106 -94 -1 -5 2 -7 7 -4 10 6 34 -18 26 -26 -3 -2 1 -5 8 -5 6 0 47 -26 89 -58 75 -56 77 -59 72 -93 -5 -30 -4 -33 9 -21 9 9 12 18 6 25 -13 16 1 25 23 13 10 -5 15 -15 12 -21 -4 -6 -3 -8 3 -5 11 7 113 -48 146 -77 9 -9 19 -16 22 -16 3 0 10 0 16 0 6 0 8 -7 4 -18 -5 -13 -3 -14 5 -6 9 9 22 8 51 -4 37 -14 52 -32 28 -32 -8 0 -8 -5 1 -15 14 -17 40 -20 40 -4 0 5 -4 8 -8 5 -5 -3 -9 2 -9 10 0 10 6 13 16 8 138 -58 330 -109 493 -130 156 -20 388 -15 532 11 49 9 96 13 103 10 9 -3 11 0 7 7 -5 7 1 9 20 6 14 -3 26 -1 26 5 0 5 9 7 20 4 10 -3 20 -2 22 2 2 3 50 21 108 40 58 18 158 57 223 87 64 29 118 50 118 46 1 -4 1 -11 0 -15 -1 -5 3 -6 8 -2 6 3 7 13 4 22 -5 13 -2 15 11 10 9 -4 15 -3 12 2 -6 10 61 54 82 54 6 0 12 4 12 8 0 9 72 55 83 51 4 -1 7 2 7 8 0 10 67 56 83 58 5 0 14 7 20 15 18 23 131 111 122 96 -4 -8 9 5 29 29 21 23 42 39 48 36 6 -4 8 -3 5 3 -3 5 12 27 33 48 22 22 40 35 40 31 0 -5 15 10 33 32 75 94 162 187 172 184 5 -2 7 -1 3 3 -4 4 15 35 41 69 70 91 191 269 252 371 29 50 58 93 63 97 6 4 8 8 3 8 -7 0 89 200 102 210 3 3 7 12 9 20 6 31 25 70 34 70 5 0 7 4 4 9 -5 8 61 181 73 191 3 3 6 10 7 15 1 23 17 65 24 65 4 0 7 6 6 13 -2 17 87 301 95 305 4 2 5 12 2 22 -3 12 0 20 6 20 7 0 10 4 7 9 -4 5 7 64 23 130 17 66 38 168 48 225 11 67 21 101 26 93 5 -7 7 -3 3 13 -3 14 1 75 9 135 25 185 45 504 33 511 -5 3 -8 47 -8 97 0 51 -5 155 -12 232 -7 77 -12 159 -12 182 -1 22 -4 39 -8 36 -5 -2 -8 8 -8 24 0 15 -14 102 -32 193 -17 91 -32 177 -32 192 -1 14 -5 24 -10 21 -5 -3 -7 6 -4 20 3 15 1 28 -4 29 -5 2 -10 22 -11 45 -1 22 -5 39 -8 37 -6 -4 -54 160 -54 186 0 8 -3 17 -6 20 -3 3 -19 43 -34 90 -83 252 -232 565 -362 762 -39 58 -71 108 -70 110 1 1 0 2 -2 1 -2 -1 -20 19 -40 45 -59 78 -90 112 -200 222 -58 57 -105 107 -104 111 1 4 -5 6 -15 5 -9 0 -16 5 -15 11 2 7 0 12 -5 11 -4 -1 -48 25 -98 59 -157 106 -406 232 -493 249 -17 4 -29 9 -27 13 2 3 -6 7 -17 7 -12 1 -71 13 -132 28 -60 15 -138 29 -173 33 -35 3 -59 9 -54 12 6 3 -30 4 -80 2 -57 -2 -94 1 -101 8 -6 6 -16 11 -21 11 -6 0 -4 -5 4 -10z m247 -146 c29 -4 50 -11 47 -15 -3 -5 2 -6 10 -3 22 8 176 -28 169 -40 -3 -5 -1 -6 5 -2 14 8 92 -13 92 -25 0 -5 7 -6 15 -3 8 4 15 2 15 -2 0 -5 11 -10 25 -10 60 -4 435 -214 435 -244 0 -6 4 -9 9 -6 12 8 147 -108 143 -123 -1 -7 2 -10 8 -6 13 8 121 -105 113 -118 -3 -6 -1 -7 4 -4 6 4 16 0 23 -8 7 -8 10 -15 8 -15 -3 0 15 -20 39 -45 24 -25 41 -51 37 -57 -4 -7 -9 -6 -15 3 -7 11 -9 10 -9 -4 0 -13 5 -17 19 -12 11 3 24 -1 32 -12 12 -15 12 -16 -1 -9 -8 5 -3 -2 11 -15 32 -29 92 -117 92 -136 0 -7 4 -13 8 -13 13 0 58 -89 48 -95 -5 -4 -9 -12 -8 -18 0 -9 2 -9 6 1 2 6 9 12 13 12 11 0 144 -270 136 -277 -9 -10 -25 8 -19 22 3 8 0 15 -7 15 -6 0 -8 5 -5 10 3 6 2 10 -3 10 -5 0 -9 -13 -8 -30 0 -17 6 -30 14 -30 8 0 11 -9 7 -27 -5 -26 -5 -26 4 -5 6 12 15 22 20 22 13 0 43 -79 35 -92 -4 -7 -2 -8 4 -4 11 7 13 3 16 -36 1 -7 5 -16 9 -19 5 -4 10 -18 10 -32 1 -14 6 -23 11 -19 5 3 7 -5 4 -16 -4 -12 -3 -20 2 -17 4 3 10 -3 13 -13 2 -9 24 -79 46 -154 23 -76 39 -143 35 -150 -4 -7 -3 -9 2 -5 6 6 53 -161 54 -195 0 -4 -12 -9 -27 -11 -27 -4 -27 -4 3 -6 29 -1 32 -5 38 -42 4 -22 4 -44 1 -50 -4 -5 -2 -9 3 -9 13 0 35 -142 26 -165 -5 -11 -4 -16 3 -12 12 7 39 -212 30 -237 -4 -9 -2 -16 3 -16 15 0 12 -107 -2 -113 -7 -3 -5 -6 6 -6 18 -1 19 -11 13 -273 -6 -286 -38 -625 -57 -613 -5 3 -6 -3 -4 -13 11 -39 -120 -587 -137 -576 -4 2 -5 -4 -2 -14 2 -11 -2 -26 -11 -34 -8 -9 -13 -18 -10 -20 18 -18 -207 -565 -227 -552 -5 3 -7 -1 -4 -8 11 -27 -223 -426 -240 -410 -5 4 -5 2 -2 -4 9 -16 -111 -177 -125 -168 -7 4 -8 3 -4 -5 8 -13 -10 -37 -136 -174 -50 -54 -94 -94 -100 -91 -6 4 -8 2 -5 -3 13 -20 -202 -200 -369 -308 -194 -127 -357 -202 -560 -261 -101 -29 -131 -35 -145 -26 -15 9 -17 9 -13 -2 4 -10 -8 -16 -45 -21 -27 -4 -54 -4 -60 -1 -5 3 -11 0 -13 -6 -6 -17 -406 -17 -498 0 -120 23 -200 44 -200 54 0 5 -5 6 -10 3 -24 -15 -365 128 -353 148 3 6 1 7 -5 4 -15 -10 -43 3 -35 16 3 5 1 7 -5 3 -13 -8 -225 132 -217 144 3 4 -3 7 -13 6 -9 0 -16 5 -14 12 1 8 -1 11 -6 8 -17 -10 -255 211 -245 227 3 6 2 7 -4 4 -5 -3 -18 4 -28 16 -148 175 -139 162 -118 178 15 12 16 12 10 -4 -4 -10 -3 -16 2 -12 9 5 11 45 2 45 -2 0 -9 -7 -16 -17 -7 -9 -17 -13 -24 -9 -17 11 -130 187 -186 290 -39 72 -45 90 -34 98 11 8 11 9 -3 5 -12 -4 -22 9 -42 56 -14 34 -27 69 -28 77 -2 8 -6 17 -9 20 -10 8 -59 137 -61 162 -2 12 -6 25 -9 28 -20 16 -102 325 -94 353 4 15 3 18 -3 9 -7 -10 -11 -2 -16 28 -3 23 -4 45 -1 51 4 5 1 9 -6 9 -7 0 -9 10 -7 25 3 14 1 25 -4 25 -5 0 -9 12 -7 28 1 15 -2 35 -6 46 -5 11 -3 27 5 40 10 18 10 19 -1 8 -12 -11 -16 3 -26 85 -25 207 -36 531 -24 724 6 101 11 194 11 207 0 13 3 21 8 19 4 -3 7 20 8 51 0 75 35 292 46 292 5 0 6 4 3 10 -3 5 4 57 17 115 17 77 27 105 38 105 12 0 12 2 2 9 -12 7 -10 22 7 87 41 152 124 393 134 387 6 -3 7 -1 3 5 -17 28 273 660 297 645 6 -3 7 -1 4 4 -7 11 114 211 199 329 131 184 340 427 358 417 6 -3 8 -2 3 2 -9 11 43 66 55 59 5 -3 7 0 6 7 -2 7 4 14 12 14 8 0 14 6 13 12 -3 15 82 84 92 75 3 -4 5 -2 3 4 -6 23 222 190 372 272 90 49 239 112 335 140 97 29 232 55 256 49 10 -3 19 -1 19 3 0 5 24 11 53 13 66 6 315 0 384 -9z"/>
<path d="M6212 7615 c-63 -35 -144 -86 -180 -111 -37 -26 -72 -47 -79 -47 -7 0 -10 -3 -8 -7 2 -4 -17 -22 -43 -40 -26 -19 -79 -62 -118 -96 -39 -35 -75 -60 -78 -56 -4 4 -6 2 -4 -4 2 -5 -24 -35 -57 -66 -195 -181 -434 -515 -590 -827 -105 -208 -222 -515 -280 -733 -10 -37 -21 -65 -26 -63 -4 3 -11 0 -15 -6 -4 -8 -3 -9 4 -5 8 5 12 0 12 -13 0 -12 -5 -21 -11 -21 -5 0 -8 -4 -5 -9 9 -13 -16 -111 -26 -105 -4 3 -5 -1 -3 -8 3 -8 -14 -95 -39 -193 -24 -99 -49 -204 -56 -232 -7 -29 -16 -53 -22 -53 -5 0 -7 -4 -3 -9 8 -14 -15 -101 -27 -101 -5 0 -6 -5 -3 -10 8 -13 -55 -220 -67 -220 -5 0 -6 -4 -3 -10 8 -13 -35 -130 -47 -130 -5 0 -7 -4 -4 -9 6 -9 -19 -74 -79 -208 -16 -36 -32 -60 -38 -56 -6 3 -7 1 -3 -5 10 -16 -12 -54 -26 -46 -7 4 -8 3 -4 -5 10 -15 -46 -115 -155 -276 -108 -161 -187 -256 -340 -411 -90 -92 -119 -128 -119 -147 0 -14 4 -28 10 -32 5 -3 8 -11 6 -18 -1 -7 -1 -9 1 -5 2 4 20 4 39 1 35 -6 39 -2 154 114 65 65 116 115 113 110 -4 -6 -1 -7 6 -3 7 5 10 10 7 13 -2 3 29 45 70 95 79 95 200 271 277 403 53 92 177 347 177 364 0 7 4 9 10 6 6 -3 7 1 4 9 -3 9 -1 16 6 16 6 0 9 4 6 9 -3 5 10 49 29 99 34 89 125 393 125 419 0 8 4 12 9 9 4 -3 6 6 3 21 -4 19 -2 24 8 18 9 -5 11 -4 6 3 -8 13 54 283 63 278 3 -2 7 14 8 36 0 23 5 43 10 47 4 3 9 22 11 41 1 19 7 36 11 38 5 2 7 12 4 22 -3 11 -1 20 5 20 6 0 8 10 4 22 -4 16 -2 19 8 13 9 -5 11 -4 6 3 -13 21 88 357 169 562 82 208 216 466 338 650 80 120 237 311 250 303 7 -3 9 -3 5 2 -8 8 68 100 83 100 5 0 8 3 7 6 -5 11 34 49 44 43 4 -3 7 -2 6 3 -8 26 361 321 385 306 5 -3 7 -2 4 3 -3 5 26 27 65 49 167 95 199 131 161 177 -10 13 -27 24 -38 26 -11 1 -71 -27 -133 -63z"/>
</g>
</svg>
