<?xml version="1.0" standalone="no"?>
<!DOCTYPE svg PUBLIC "-//W3C//DTD SVG 20010904//EN"
 "http://www.w3.org/TR/2001/REC-SVG-20010904/DTD/svg10.dtd">
<svg version="1.0" xmlns="http://www.w3.org/2000/svg"
 width="1024.000000pt" height="1024.000000pt" viewBox="0 0 1024.000000 1024.000000"
 preserveAspectRatio="xMidYMid meet">
<metadata>
Created by potrace 1.16, written by Peter Selinger 2001-2019
</metadata>
<g transform="translate(0.000000,1024.000000) scale(0.100000,-0.100000)"
fill="#000000" stroke="none">
<path d="M6573 7268 c-11 -13 -30 -57 -43 -98 -41 -140 -149 -308 -254 -398
-17 -15 -26 -31 -24 -45 4 -26 62 -67 95 -67 l24 0 -21 -30 c-12 -17 -26 -27
-32 -24 -7 5 -8 2 -3 -5 11 -18 -56 -85 -68 -68 -6 8 -7 6 -3 -6 4 -13 -17
-40 -80 -101 l-86 -83 16 -31 c16 -32 46 -48 81 -43 17 1 17 0 5 -8 -9 -7 -10
-11 -3 -11 6 0 15 4 18 10 5 9 55 11 55 2 0 -15 -23 -41 -32 -36 -7 4 -8 3 -4
-4 7 -12 -76 -98 -179 -185 -66 -55 -76 -72 -64 -104 10 -28 28 -37 120 -58
l76 -18 -70 -66 c-39 -36 -79 -74 -90 -85 -14 -13 -18 -26 -13 -50 4 -17 11
-33 16 -34 6 -2 8 -7 5 -11 -2 -5 7 -6 22 -3 22 4 25 2 20 -12 -5 -12 -3 -15
6 -9 6 4 98 8 202 8 l190 0 -4 -49 c-2 -33 -6 -44 -12 -35 -7 11 -9 10 -9 -3
0 -10 5 -18 10 -18 12 0 14 -186 2 -194 -5 -3 -19 -7 -33 -10 -51 -9 -84 -19
-96 -29 -7 -5 -13 -7 -13 -3 0 9 -57 -21 -65 -34 -9 -14 12 -48 33 -54 10 -4
37 0 59 8 77 27 236 48 357 47 66 -1 122 -5 126 -10 3 -6 23 -5 48 2 32 8 44
17 49 35 3 13 2 27 -3 31 -16 14 -76 31 -110 31 -19 0 -34 3 -35 8 0 4 -3 68
-5 142 l-4 135 88 1 c48 0 100 4 114 7 31 8 44 38 28 64 -11 17 -36 18 -408
18 -316 0 -396 3 -400 13 -3 10 -7 9 -16 -4 -8 -11 -15 -13 -19 -7 -4 6 10 24
31 39 65 50 172 156 172 171 0 8 5 11 10 8 6 -3 10 -4 10 -1 0 2 -15 13 -32
24 -29 18 -167 40 -215 35 -12 -1 57 66 114 110 40 32 150 164 168 204 15 30
15 39 4 60 -12 23 -18 24 -80 21 -37 -1 -71 1 -75 5 -4 4 -1 7 8 7 8 0 20 11
26 25 6 14 16 25 21 25 6 0 44 42 85 93 75 93 133 196 117 207 -5 3 -16 21
-25 40 -11 25 -14 28 -10 10 5 -25 4 -25 -38 -21 -24 2 -38 6 -31 8 18 6 107
122 143 186 17 30 39 79 50 109 11 29 19 45 20 35 0 -10 14 -45 30 -78 17 -33
28 -65 24 -71 -4 -6 -3 -8 3 -5 6 4 19 -6 28 -21 10 -15 35 -48 56 -73 21 -25
35 -49 31 -53 -4 -4 -2 -6 3 -4 6 1 11 -1 13 -6 1 -6 -10 -12 -25 -14 -35 -4
-53 -19 -53 -44 0 -21 35 -94 57 -120 8 -9 12 -22 7 -29 -4 -7 -3 -10 4 -5 17
10 32 -26 21 -49 -8 -17 -8 -17 2 -4 10 13 23 4 94 -65 92 -90 91 -99 -11 -89
-55 6 -60 3 -74 -48 -5 -18 -5 -27 1 -24 5 4 9 2 9 -4 0 -5 6 -16 13 -23 25
-26 72 -92 60 -85 -7 5 30 -35 82 -86 86 -86 109 -117 88 -117 -34 -1 -154
-22 -176 -32 -26 -10 -28 -15 -22 -42 4 -17 7 -37 8 -43 0 -7 7 -13 14 -13 8
0 11 4 8 10 -3 5 17 -3 44 -17 l49 -27 41 27 c22 15 43 27 46 27 6 0 36 24 91
73 37 33 44 36 52 21 8 -15 9 -15 15 0 4 10 3 15 -3 11 -6 -3 -15 6 -20 20 -6
15 -50 64 -98 110 -48 46 -101 103 -118 127 l-32 43 35 3 c53 3 117 43 121 74
3 21 -11 39 -68 95 -76 71 -200 211 -200 223 0 4 21 13 47 19 46 12 72 33 73
60 0 7 -29 40 -64 73 -77 70 -140 153 -130 169 4 7 3 9 -3 6 -14 -9 -59 77
-94 180 -41 123 -72 149 -116 101z m85 -1818 l3 -140 -56 0 c-32 0 -55 4 -55
11 0 5 6 7 13 3 9 -6 8 -3 -1 8 -9 12 -13 45 -11 110 3 148 3 148 58 148 l46
0 3 -140z"/>
<path d="M3863 7078 c-30 -8 -33 -14 -63 -109 -29 -93 -44 -128 -87 -197 -27
-44 -65 -82 -76 -75 -6 4 -7 1 -2 -6 5 -9 -12 -31 -48 -64 -69 -65 -77 -88
-43 -122 21 -20 32 -24 61 -19 19 3 35 2 35 -2 0 -15 -72 -94 -81 -88 -5 3 -8
1 -7 -5 4 -14 -62 -82 -73 -75 -5 3 -8 1 -7 -5 4 -12 -61 -83 -71 -76 -4 2 -8
-1 -9 -8 0 -7 -4 -22 -7 -34 -8 -26 20 -47 84 -62 24 -5 48 -14 53 -19 7 -7
-23 -44 -86 -109 -83 -84 -96 -102 -91 -123 3 -14 6 -30 7 -36 2 -14 51 -2 76
18 26 21 145 140 176 177 64 76 92 150 64 168 -25 15 -109 20 -129 7 -5 -3 -9
0 -9 5 0 6 3 11 8 11 12 1 83 71 133 130 54 65 87 118 99 159 7 25 5 30 -15
39 -13 6 -35 9 -49 6 -13 -2 -28 0 -31 6 -3 5 -2 10 3 10 14 0 113 133 152
203 20 35 36 54 43 50 7 -4 6 1 -2 10 -8 10 -11 20 -7 24 8 8 9 8 44 -66 17
-35 28 -69 25 -74 -3 -6 -1 -7 5 -4 13 9 82 -84 82 -109 0 -16 2 -17 10 -4 8
13 10 13 10 -2 0 -9 9 -19 19 -23 11 -3 22 -13 25 -22 5 -13 4 -14 -9 -3 -10
8 -15 9 -15 2 0 -6 -6 -9 -14 -6 -8 3 -25 0 -38 -7 -30 -16 -53 -39 -39 -39 6
0 11 -5 11 -10 0 -6 16 -35 35 -65 19 -30 32 -55 29 -55 -3 0 8 -12 25 -26 17
-14 28 -30 25 -35 -3 -5 -2 -8 3 -7 9 3 113 -94 113 -105 0 -4 -24 -7 -54 -7
-38 0 -61 -6 -77 -19 l-23 -19 29 -43 c15 -24 28 -49 28 -56 0 -7 3 -10 7 -8
9 6 76 -87 72 -100 -2 -5 0 -7 4 -3 10 11 35 -12 27 -26 -3 -6 -3 -8 2 -4 8 7
46 -20 115 -82 l35 -32 -27 5 c-15 2 -25 0 -22 -4 3 -5 -26 -9 -64 -9 -54 0
-72 -4 -85 -18 -10 -10 -17 -22 -17 -25 0 -9 76 -78 104 -95 17 -10 -55 -12
-384 -11 -223 0 -412 0 -421 0 -26 -1 -34 -50 -12 -71 10 -9 25 -14 32 -12 10
3 11 0 5 -9 -6 -11 -4 -12 7 -4 8 6 59 8 129 4 63 -3 99 -6 80 -8 -19 -2 -39
-3 -43 -2 -5 1 -6 -3 -3 -7 3 -5 24 -9 46 -8 l41 2 -3 -100 -3 -101 -62 -7
c-84 -9 -119 -27 -115 -58 1 -13 4 -26 7 -28 2 -3 39 -4 81 -3 54 1 80 -2 85
-11 7 -10 9 -8 9 5 0 16 8 17 88 13 48 -2 106 -5 130 -5 25 -1 41 -5 37 -10
-9 -15 29 -31 46 -20 12 8 12 10 -1 8 -30 -3 -44 1 -35 10 6 6 30 5 63 -3 29
-6 50 -15 47 -18 -4 -4 2 -4 13 -1 11 3 44 0 72 -6 71 -15 106 9 78 55 -10 15
-129 51 -195 59 l-53 7 1 121 c0 83 3 115 9 100 11 -28 20 -30 13 -4 -4 18 4
19 129 23 84 3 138 0 147 -6 10 -8 15 -8 18 2 3 6 11 12 18 12 7 0 31 10 54
22 34 18 38 23 25 32 -8 7 -16 20 -18 30 -1 11 -11 20 -20 22 -18 2 -50 38
-38 41 45 10 121 38 135 50 31 29 19 50 -65 116 -85 66 -186 166 -206 203 -10
19 -7 22 44 38 61 19 92 53 76 83 -6 10 -26 33 -46 52 -19 19 -33 38 -30 43 3
5 1 7 -4 6 -22 -7 -165 152 -151 167 3 2 23 6 46 7 23 2 40 5 38 6 -2 2 5 12
16 23 10 10 19 25 19 32 0 7 -29 41 -65 77 -35 35 -61 68 -58 73 3 6 1 7 -5 4
-22 -14 -128 160 -163 268 -12 39 -29 82 -38 96 -14 22 -20 24 -48 17z m49
-1532 c5 -8 8 -7 8 2 0 6 4 12 10 12 13 0 6 -198 -8 -212 -5 -5 -26 -12 -45
-15 -30 -4 -35 -1 -40 19 -7 31 -9 187 -2 198 8 12 69 9 77 -4z"/>
<path d="M5895 6815 c-14 -13 -25 -32 -25 -42 0 -34 -67 -171 -112 -230 -46
-59 -92 -106 -73 -73 5 8 -6 0 -24 -17 -32 -32 -32 -33 -14 -58 10 -13 26 -27
37 -31 15 -5 16 -8 5 -15 -12 -7 -12 -10 0 -21 8 -7 11 -8 8 -2 -4 7 2 14 13
17 20 5 20 5 1 -21 -18 -26 -83 -89 -170 -164 -24 -22 -39 -43 -35 -49 3 -6 0
-15 -7 -20 -11 -7 -11 -9 3 -9 9 0 18 -5 20 -11 3 -9 76 -29 116 -32 8 0 7 -6
-5 -19 -21 -23 -30 -24 -12 0 13 15 12 16 -4 3 -9 -7 -16 -21 -15 -30 2 -9 -3
-15 -10 -13 -8 1 -11 -2 -7 -7 3 -6 -28 -36 -70 -68 -71 -55 -75 -60 -75 -98
l0 -40 53 -13 c29 -6 63 -12 76 -12 23 0 23 0 -5 -22 -16 -13 -32 -22 -37 -20
-5 1 -6 -2 -2 -8 3 -5 1 -19 -6 -31 -9 -18 -8 -25 7 -40 18 -17 34 -19 222
-28 6 -1 12 -7 12 -15 0 -8 5 -18 11 -22 8 -4 9 0 4 15 -5 16 -2 21 10 21 11
0 15 -6 11 -17 -3 -10 -8 -36 -12 -58 -6 -32 -9 -36 -15 -20 -6 17 -8 17 -8 3
-1 -24 -60 -24 -187 2 -55 10 -130 22 -169 25 -38 3 -87 8 -107 10 -51 7 -83
-26 -60 -63 7 -10 65 -21 207 -37 51 -6 90 -22 87 -35 -2 -10 0 -11 10 -2 18
14 146 -28 165 -54 12 -16 10 -21 -9 -40 -29 -28 -288 -146 -306 -139 -7 3
-11 1 -8 -4 3 -4 -16 -22 -43 -38 -77 -48 -101 -117 -60 -174 35 -49 160 -111
294 -145 33 -9 83 -22 110 -29 28 -8 111 -29 185 -48 174 -45 277 -80 367
-125 85 -42 186 -119 177 -134 -4 -6 -2 -8 4 -4 23 14 40 -51 22 -84 -6 -11
-16 -17 -22 -14 -7 5 -9 2 -5 -8 3 -10 -7 -27 -26 -46 -42 -40 -203 -126 -218
-116 -7 4 -9 3 -6 -3 4 -6 -24 -29 -63 -52 -38 -23 -72 -46 -75 -51 -4 -6 -11
-8 -16 -5 -5 4 -9 1 -9 -5 0 -6 -5 -8 -10 -5 -6 4 -9 2 -8 -2 2 -5 -14 -27
-35 -50 -21 -22 -45 -53 -54 -69 -18 -33 -34 -124 -21 -124 4 0 8 -6 8 -13 0
-16 84 -97 99 -97 6 0 11 -3 11 -8 0 -4 18 -7 41 -7 45 1 69 22 69 61 0 16
-12 27 -49 43 -59 25 -75 63 -45 109 24 38 55 63 67 55 6 -3 7 -1 3 5 -9 15
38 48 179 127 66 37 139 80 163 96 24 16 49 26 55 23 7 -4 9 -4 5 1 -4 4 8 25
27 46 128 143 60 283 -200 409 -121 59 -209 88 -402 135 -321 77 -445 119
-508 169 l-30 24 24 26 c26 28 45 37 213 110 190 83 239 128 219 202 l-9 34
114 0 c63 0 114 -3 114 -7 0 -5 26 -8 58 -8 31 -1 91 -4 132 -9 75 -8 75 -8
90 18 17 33 5 58 -31 62 -90 9 -196 28 -206 36 -7 6 -10 14 -7 19 3 5 0 9 -7
9 -8 0 -7 5 2 17 8 9 9 14 3 10 -14 -8 -48 28 -40 41 3 6 -2 8 -14 5 -11 -3
-20 0 -20 6 0 7 -14 -2 -30 -19 -24 -25 -28 -35 -20 -50 14 -26 12 -40 -5 -40
-8 0 -15 4 -15 10 0 6 -9 6 -26 0 -14 -6 -27 -10 -29 -10 -2 0 4 19 14 43 25
58 32 122 16 144 -12 16 -29 18 -128 18 l-115 0 40 48 c22 26 38 53 35 61 -6
15 -87 36 -139 36 -31 0 -30 1 37 63 38 34 72 61 77 60 4 -2 7 1 5 5 -2 9 73
125 85 130 4 2 0 12 -10 21 -10 11 -39 21 -73 25 l-56 7 60 62 c97 100 155
201 123 213 -9 3 -13 11 -9 17 3 6 1 7 -6 3 -6 -4 -20 -4 -31 -1 -19 6 -17 9
15 43 19 20 51 65 71 100 20 34 40 62 44 62 7 0 27 -38 28 -54 0 -5 4 -12 9
-15 5 -3 28 -32 52 -63 23 -32 48 -58 56 -58 9 0 12 -6 8 -17 -5 -16 -4 -17 8
-2 8 9 24 26 36 37 l22 21 -45 58 c-46 59 -101 165 -124 238 -12 38 -33 65
-52 65 -5 0 -20 -11 -33 -25z"/>
<path d="M4453 6525 c-12 -9 -28 -39 -38 -71 -14 -49 -59 -114 -105 -151 -13
-11 -12 -12 8 -13 15 0 26 -7 29 -20 5 -19 5 -19 44 1 22 11 49 35 61 53 l23
34 35 -52 c49 -73 73 -102 90 -109 10 -4 8 -6 -7 -6 -52 -2 -64 -21 -40 -64
20 -36 79 -110 115 -143 l33 -30 -43 -2 c-44 -3 -88 -27 -96 -53 -5 -12 -2
-12 13 1 17 14 18 13 12 -2 -4 -12 -2 -18 8 -18 8 0 15 -5 15 -12 0 -6 32 -42
70 -79 39 -37 67 -69 63 -72 -5 -2 -3 -3 2 -1 6 1 19 -4 29 -11 22 -16 7 -27
-43 -30 -187 -14 -228 -19 -242 -26 -22 -11 -28 -48 -12 -79 7 -15 13 -19 13
-10 0 9 -6 22 -12 29 -11 11 -10 12 0 6 15 -8 26 -33 37 -82 8 -38 -6 -43 -45
-16 l-24 17 24 7 25 7 -27 1 c-15 1 -29 5 -32 10 -8 12 -66 20 -66 9 0 -4 -5
-7 -12 -5 -14 2 -17 -35 -4 -44 14 -11 -3 -29 -27 -29 -32 0 -89 -18 -111 -35
-17 -13 -17 -14 2 -36 20 -21 25 -21 159 -14 242 13 334 13 349 -3 10 -9 14
-10 14 -1 0 17 212 4 329 -21 52 -11 99 -20 104 -20 16 0 -1 -13 -21 -15 -9
-1 -24 -5 -32 -8 -42 -16 -124 -37 -195 -52 -44 -9 -87 -19 -95 -21 -8 -3 -16
-5 -17 -5 -2 0 -17 -5 -35 -10 -18 -6 -42 -12 -53 -14 -11 -3 -29 -9 -40 -14
-11 -5 -47 -17 -80 -27 -92 -27 -187 -78 -228 -123 -36 -40 -41 -52 -39 -99 1
-12 -3 -20 -7 -18 -4 3 -6 -7 -3 -22 5 -24 6 -25 13 -7 8 20 8 20 14 -1 8 -25
83 -76 192 -130 45 -23 80 -44 76 -48 -4 -4 -1 -5 7 -2 23 9 114 -65 118 -95
5 -41 -41 -85 -132 -128 -76 -37 -250 -97 -306 -107 -14 -3 -32 -7 -40 -10 -8
-3 -24 -8 -36 -10 -11 -2 -56 -13 -100 -24 -115 -30 -135 -34 -174 -34 -19 1
-28 -2 -20 -4 13 -5 -60 -28 -160 -51 -260 -61 -777 -241 -987 -345 -58 -29
-78 -33 -49 -11 18 13 18 14 -2 12 -13 -1 -19 -7 -17 -18 4 -18 -55 -62 -82
-62 -7 0 -13 -6 -13 -14 0 -7 -6 -16 -13 -19 -18 -7 -20 -60 -2 -77 8 -9 15
-20 15 -26 0 -6 5 -11 11 -11 5 0 7 5 4 10 -3 6 1 10 10 10 15 0 55 19 65 31
10 11 125 75 183 102 32 14 65 24 75 21 12 -4 13 -3 4 3 -9 7 -6 13 13 21 15
7 31 10 36 7 5 -4 9 -2 9 4 0 32 842 301 893 285 11 -4 17 -2 14 3 -4 6 41 22
101 37 470 120 572 154 698 234 139 88 162 191 62 282 -17 15 -86 56 -154 91
-184 94 -226 137 -175 180 29 26 172 92 226 105 17 4 35 8 40 10 6 1 44 11 85
22 41 11 118 29 170 41 251 57 340 119 275 191 -41 45 -191 83 -375 94 -184
12 -275 19 -277 20 -1 1 -5 22 -8 46 -5 31 -4 41 3 31 6 -8 8 -20 5 -28 -3 -7
0 -13 5 -13 6 0 9 9 7 20 -5 26 -1 28 101 40 142 16 157 19 187 31 51 21 31
63 -68 144 -40 33 -71 64 -68 69 3 5 1 6 -5 2 -6 -3 -16 2 -22 13 -9 18 -6 21
22 26 18 4 47 18 63 32 17 14 24 22 18 19 -7 -4 -13 -2 -13 4 0 6 -14 23 -30
37 -17 13 -27 30 -23 35 3 6 2 8 -4 5 -5 -3 -33 18 -62 47 -47 48 -51 55 -34
60 11 4 30 17 42 30 l23 25 -84 83 c-82 81 -148 181 -148 225 0 19 -34 63 -48
63 -4 0 -17 -7 -29 -15z"/>
<path d="M3030 6213 c0 -7 -4 -13 -9 -13 -5 0 -19 -33 -31 -72 -13 -40 -37
-100 -53 -133 -28 -55 -123 -183 -161 -214 -20 -17 -20 -38 -1 -57 8 -8 12
-22 9 -32 -4 -12 -3 -13 3 -4 13 17 75 4 71 -15 -4 -20 -123 -151 -170 -188
-43 -34 -56 -68 -37 -91 17 -21 75 -44 110 -44 l29 0 -43 -47 c-98 -109 -227
-219 -241 -205 -4 3 -1 -9 5 -26 14 -40 49 -69 103 -83 38 -10 39 -12 21 -25
-10 -8 -15 -14 -11 -14 4 0 -9 -17 -29 -37 -48 -49 -55 -81 -25 -105 21 -17
40 -19 154 -18 170 2 167 2 164 -13 -2 -7 2 -12 7 -12 6 0 10 5 10 12 0 6 4
15 9 20 5 4 6 -22 2 -62 -3 -38 -6 -84 -6 -101 l0 -32 -96 -22 c-55 -12 -104
-30 -114 -40 -19 -19 -21 -54 -4 -56 5 0 17 -4 26 -8 9 -4 32 -3 50 3 18 6 57
13 87 17 45 6 53 5 46 -7 -5 -8 2 -5 14 6 21 18 37 20 163 19 86 -1 143 -5
150 -12 6 -6 18 -8 27 -3 9 5 52 0 104 -12 l87 -20 24 22 c22 21 34 67 14 55
-4 -3 -20 2 -36 10 -35 18 -181 49 -199 42 -7 -3 -13 -1 -13 4 0 6 7 10 16 10
8 0 12 5 9 10 -4 6 -11 8 -16 5 -5 -4 -9 0 -10 7 0 7 -4 48 -7 90 -6 56 -4 74
4 67 6 -5 13 -7 15 -4 6 5 138 14 251 16 43 1 75 5 73 10 -3 4 -1 10 5 14 23
14 9 58 -31 97 -23 22 -37 43 -33 47 5 4 27 13 50 19 51 15 88 53 79 81 -3 11
-33 42 -65 67 -34 26 -57 51 -53 58 3 6 2 8 -2 3 -11 -10 -96 73 -88 86 3 6 2
7 -4 4 -13 -8 -57 38 -49 51 3 5 20 12 38 16 18 3 42 16 55 28 29 27 20 44
-68 126 -37 34 -83 84 -103 111 l-35 49 47 24 c42 21 47 26 44 53 -3 20 -21
47 -57 83 -74 73 -116 139 -159 252 -50 129 -59 143 -90 145 -15 0 -26 -5 -26
-12z m56 -245 c10 -23 29 -58 42 -76 12 -18 20 -38 16 -43 -3 -5 -2 -8 3 -7 4
2 26 -15 49 -38 l40 -40 -30 -2 c-66 -4 -86 -13 -85 -35 0 -21 1 -21 9 -2 6
13 9 15 9 5 1 -8 4 -26 8 -39 4 -16 3 -22 -5 -17 -6 3 -13 2 -16 -3 -4 -5 2
-8 11 -7 12 2 27 -12 45 -42 15 -26 25 -49 22 -53 -2 -4 2 -6 9 -5 11 1 127
-125 127 -139 0 -3 -11 -5 -25 -5 -14 0 -25 5 -25 11 0 6 -14 9 -32 7 -27 -3
-32 -7 -35 -34 -3 -25 7 -44 52 -103 32 -40 53 -76 49 -83 -4 -7 -3 -8 5 -4 8
5 38 -18 83 -63 39 -39 75 -71 81 -71 29 0 -14 -21 -54 -26 -103 -13 -95 -10
-104 -45 -5 -19 -2 -31 10 -40 9 -8 31 -29 50 -46 l34 -33 -355 0 -354 0 16
25 c9 14 21 22 27 18 5 -3 7 -2 4 4 -3 5 3 22 14 39 41 63 20 94 -63 94 -32 0
-58 1 -58 3 0 1 44 47 98 102 128 130 179 215 149 253 -5 7 -33 12 -65 12
l-56 0 57 58 c31 31 64 67 73 80 8 12 20 19 26 16 7 -4 8 -2 4 5 -4 6 1 23 12
39 10 15 26 46 35 69 l17 43 -38 16 c-20 10 -43 16 -49 15 -7 -1 -13 1 -13 4
0 10 82 110 90 110 5 0 12 4 17 9 5 5 3 6 -4 2 -7 -4 -13 -5 -13 -2 0 11 55
106 61 106 3 0 15 -19 25 -42z m16 -1177 l27 -1 3 -93 3 -94 -63 -1 c-53 0
-63 2 -58 15 3 8 6 52 6 97 l0 82 28 -2 c15 -1 39 -3 54 -3z"/>
<path d="M7276 6009 c-9 -22 -15 -27 -20 -18 -3 8 -4 5 -1 -7 6 -25 -26 -122
-60 -179 -42 -72 -105 -146 -118 -139 -7 4 -9 4 -5 -1 4 -4 -2 -19 -13 -34
l-21 -26 27 -22 c14 -13 35 -23 45 -23 37 0 29 -19 -36 -89 -59 -63 -98 -93
-78 -58 4 7 3 9 -2 4 -5 -5 -9 -12 -9 -15 0 -4 -9 -19 -19 -35 -14 -21 -16
-30 -7 -41 7 -8 10 -20 9 -27 -2 -9 9 -13 35 -14 20 0 37 -3 37 -7 0 -5 9 -8
21 -8 11 0 17 -5 14 -10 -4 -6 -11 -8 -16 -5 -5 4 -9 -1 -9 -9 0 -22 -38 -58
-52 -50 -6 4 -8 3 -5 -3 7 -11 -42 -60 -116 -117 -27 -22 -37 -37 -37 -58 0
-28 19 -42 83 -62 24 -8 22 -17 -18 -60 -43 -47 -46 -82 -8 -97 15 -5 84 -10
155 -10 l128 1 0 -94 0 -93 -72 -17 c-40 -9 -84 -19 -98 -23 -14 -3 -36 -6
-50 -7 -14 -1 -32 -10 -42 -21 -14 -17 -14 -23 -2 -47 8 -16 19 -28 25 -28 6
0 8 -4 4 -9 -3 -5 7 -3 23 4 57 29 290 71 252 45 -8 -5 -13 -10 -10 -11 3 0
14 -2 24 -4 28 -5 43 7 20 16 -15 6 145 15 178 10 106 -15 117 -14 129 13 10
22 9 29 -6 46 -10 11 -27 20 -37 20 -21 0 -32 21 -31 62 1 15 2 53 2 83 l1 55
118 -1 c135 -2 154 2 171 34 11 21 8 27 -36 72 -42 42 -45 49 -28 52 44 8 93
36 104 59 15 33 14 44 -4 44 -8 0 -15 4 -15 8 0 5 -19 23 -43 40 -62 44 -148
133 -140 145 3 6 1 7 -4 4 -6 -4 -17 1 -24 10 -10 12 -10 15 -1 9 21 -12 66 3
100 34 37 33 35 45 -13 80 -19 14 -35 31 -35 39 0 8 -3 11 -7 8 -10 -11 -85
71 -77 84 4 7 3 9 -3 6 -6 -4 -20 4 -32 17 l-23 24 30 7 c26 5 72 45 72 61 0
4 -19 25 -41 48 -95 94 -131 152 -179 286 -25 70 -29 75 -59 78 -27 3 -33 -1
-45 -29z m134 -312 c19 -26 42 -47 50 -48 8 -1 -5 -5 -30 -8 -43 -6 -45 -8
-48 -40 -3 -25 -6 -31 -13 -20 -7 11 -9 11 -9 -3 0 -10 7 -18 15 -18 8 0 15
-4 15 -10 0 -5 -7 -7 -15 -4 -8 4 -15 2 -15 -3 0 -5 10 -9 22 -10 13 -1 32
-15 42 -30 11 -15 49 -58 83 -94 l63 -65 -49 6 c-69 9 -95 -3 -87 -38 4 -15 8
-35 9 -44 1 -9 4 -16 7 -15 8 1 200 -196 200 -206 0 -4 3 -6 8 -4 4 3 16 1 27
-4 14 -5 3 -8 -36 -8 -76 -1 -119 -17 -119 -44 0 -12 19 -40 42 -64 l41 -42
-288 -1 c-158 0 -292 -3 -296 -6 -13 -8 -11 3 4 18 33 36 67 89 67 107 0 23
-30 35 -77 32 -18 -1 -33 1 -33 5 0 3 42 48 93 98 129 125 171 216 100 216
-15 0 -38 3 -50 6 -22 6 -21 9 25 63 64 74 102 131 102 153 0 10 6 18 12 18
19 0 -24 26 -55 34 l-28 7 45 62 c24 34 54 83 66 109 l22 47 27 -53 c14 -29
42 -74 61 -99z m-23 -1000 l-1 -93 -52 0 -52 1 -1 93 -2 92 55 0 54 0 -1 -93z"/>
<path d="M6058 5100 c-68 -12 -112 -58 -103 -106 2 -11 4 -22 4 -27 1 -4 12
-12 26 -19 13 -6 23 -14 20 -17 -2 -4 1 -13 7 -21 8 -12 9 -12 4 2 -4 15 1 17
52 12 73 -8 124 12 147 56 9 17 13 40 10 50 -14 44 -102 81 -167 70z"/>
<path d="M2130 4765 c-7 -9 -10 -25 -6 -41 5 -18 3 -24 -5 -18 -8 4 -9 3 -5
-5 4 -6 12 -9 17 -6 8 6 10 1 13 -37 1 -7 5 -16 10 -19 5 -4 9 -20 10 -37 0
-17 4 -28 7 -26 4 2 12 -33 19 -79 6 -45 14 -91 16 -102 4 -15 0 -13 -13 8
-10 15 -21 27 -26 27 -4 0 -5 5 -2 10 4 6 3 9 -2 8 -4 -2 -29 12 -55 30 -26
18 -61 35 -78 38 -16 4 -30 11 -30 18 0 6 -8 -5 -18 -23 -17 -32 -18 -35 -2
-51 19 -19 40 -72 65 -162 13 -50 18 -56 38 -53 33 7 48 34 41 75 l-5 35 26
-30 c15 -16 36 -40 46 -52 24 -29 40 -29 68 0 18 21 22 38 25 118 5 121 4 119
15 119 15 0 44 -147 37 -182 -3 -18 -3 -29 0 -25 4 3 13 0 21 -8 8 -8 23 -15
33 -15 18 0 21 7 55 110 19 60 65 144 65 120 0 -8 -4 -31 -9 -50 -5 -19 -12
-64 -15 -99 -4 -51 -1 -69 12 -86 l18 -22 84 24 c97 28 123 47 109 81 -8 20
-14 22 -58 20 -27 -2 -47 -6 -44 -10 2 -5 -5 -8 -16 -8 -12 0 -21 5 -21 11 0
5 4 8 9 5 4 -3 6 6 3 20 -6 30 13 120 38 184 32 84 -3 119 -79 79 -25 -13 -49
-23 -54 -21 -5 1 -6 -2 -3 -7 3 -5 -1 -14 -9 -21 -23 -19 -74 -107 -67 -116 4
-4 1 -4 -6 1 -8 4 -12 16 -9 26 3 11 1 19 -5 19 -6 0 -7 7 -4 16 3 8 2 13 -2
10 -5 -3 -18 14 -30 37 -32 61 -44 78 -76 106 -15 13 -33 29 -40 35 -14 14
-63 36 -80 36 -8 0 -19 -7 -26 -15z"/>
<path d="M3805 4730 c-45 -7 -135 -50 -154 -74 -8 -9 -18 -16 -23 -16 -18 0
-47 -45 -48 -72 0 -15 5 -38 11 -52 12 -26 74 -62 98 -57 9 2 12 -3 8 -13 -4
-9 -2 -16 3 -16 6 0 10 4 10 9 0 4 55 8 123 8 138 -1 214 13 251 48 101 93
-104 265 -279 235z m134 -110 c28 -13 41 -25 38 -34 -3 -7 0 -13 6 -12 7 0 12
-3 12 -9 0 -5 -15 -10 -32 -11 -18 0 -36 -3 -40 -7 -8 -9 -160 -9 -202 -1 -27
6 -29 9 -19 22 7 8 31 28 52 44 48 35 119 38 185 8z"/>
<path d="M8077 4690 c-67 -43 -133 -134 -158 -217 -7 -24 -16 -43 -21 -43 -4
0 -8 3 -8 8 0 4 -21 30 -47 57 -26 28 -46 54 -45 58 2 5 -1 6 -6 3 -5 -3 -24
3 -43 13 -66 35 -102 -3 -67 -72 12 -24 22 -62 22 -88 1 -26 4 -45 7 -43 6 3
19 -44 19 -67 0 -5 -11 -4 -25 1 -14 5 -25 6 -25 2 0 -4 -4 0 -10 8 -6 10 -29
14 -88 14 -78 0 -81 -1 -111 -34 -32 -36 -38 -50 -21 -50 6 0 10 5 10 11 0 8
4 8 14 0 8 -7 50 -14 93 -15 49 -3 97 -12 131 -25 64 -26 84 -26 104 -3 14 15
14 29 4 110 -6 50 -9 92 -5 92 14 0 61 -92 56 -111 -3 -12 -1 -17 6 -12 6 4 8
-2 5 -15 -4 -12 -3 -22 1 -22 3 0 15 -16 25 -35 l19 -35 23 26 c15 15 24 37
24 57 0 31 30 163 45 200 4 9 11 17 17 17 5 0 7 4 4 8 -5 8 31 92 39 92 2 0
-5 -28 -16 -62 -19 -65 -28 -228 -15 -285 4 -17 14 -34 22 -37 9 -3 13 -10 10
-14 -3 -5 7 -7 22 -4 20 3 32 14 47 45 10 23 30 58 43 77 l24 35 -6 -30 c-9
-51 -10 -89 -2 -112 5 -17 12 -20 34 -14 22 6 29 17 40 57 38 145 47 172 56
167 5 -3 6 -1 2 5 -4 6 -2 21 5 33 9 17 8 25 -5 37 -14 14 -21 14 -51 3 -19
-7 -41 -9 -47 -5 -7 4 -10 4 -6 0 7 -9 -83 -101 -95 -98 -5 2 -6 -2 -2 -8 3
-5 -1 -20 -9 -32 -9 -12 -16 -18 -16 -13 0 39 34 202 56 271 25 79 25 86 10
103 -22 24 -40 22 -89 -9z"/>
<path d="M4983 4308 c8 -5 6 -8 -5 -8 -9 0 -31 -18 -49 -40 -18 -22 -36 -37
-40 -34 -5 3 -9 -1 -9 -9 0 -8 7 -17 15 -21 8 -3 15 -11 15 -19 0 -7 18 -24
39 -37 21 -14 37 -28 36 -31 -2 -3 10 -3 27 -1 19 3 33 -1 39 -9 5 -8 9 -9 9
-3 0 6 18 14 41 17 22 3 56 16 75 29 28 19 34 29 34 59 0 52 -64 108 -112 100
-5 0 -8 2 -8 7 0 4 -27 7 -59 7 -33 0 -54 -3 -48 -7z"/>
<path d="M6970 4235 c-189 -47 -350 -185 -349 -300 0 -26 37 -114 39 -91 0 5
8 2 18 -7 9 -8 43 -23 76 -32 41 -12 55 -20 45 -26 -11 -7 -10 -9 4 -9 9 0 17
4 17 8 0 5 21 5 48 1 61 -10 273 -10 334 0 26 4 51 5 55 1 4 -4 28 -13 53 -21
47 -15 253 -20 300 -7 14 4 31 7 38 7 22 2 62 52 62 79 0 39 -45 106 -82 124
-18 9 -46 22 -62 29 -16 8 -61 14 -102 14 l-73 0 -10 41 c-12 46 -78 127 -122
150 -17 8 -27 20 -23 26 4 6 3 8 -3 5 -5 -3 -34 0 -64 8 -66 18 -126 18 -199
0z m207 -106 c57 -22 84 -52 107 -118 24 -67 2 -109 -73 -136 -73 -25 -255
-22 -366 6 -120 31 -115 28 -115 56 0 36 43 95 91 128 143 94 231 110 356 64z
m400 -244 c26 -17 29 -30 11 -42 -21 -13 -237 -10 -242 4 -7 16 55 61 90 65
41 5 113 -9 141 -27z"/>
<path d="M2470 4058 c0 -6 -7 -8 -15 -4 -8 3 -14 2 -13 -2 1 -4 -2 -20 -7 -36
-7 -25 -4 -33 19 -53 69 -59 183 11 116 72 -22 20 -100 38 -100 23z"/>
<path d="M4305 3981 c-48 -21 -69 -59 -55 -97 6 -14 7 -30 4 -36 -4 -7 -2 -8
5 -4 6 4 17 3 24 -2 43 -34 165 -11 186 35 23 50 7 79 -54 103 -51 20 -68 20
-110 1z"/>
<path d="M6467 3870 c-16 -5 -34 -13 -41 -19 -7 -6 -15 -9 -17 -6 -3 2 -5 -4
-6 -13 -4 -75 -2 -112 8 -106 4 2 19 -3 35 -10 42 -21 74 -22 115 -4 67 29 87
85 47 128 -13 14 -22 27 -21 30 2 9 -90 9 -120 0z"/>
</g>
</svg>
