<?xml version="1.0" standalone="no"?>
<!DOCTYPE svg PUBLIC "-//W3C//DTD SVG 20010904//EN"
 "http://www.w3.org/TR/2001/REC-SVG-20010904/DTD/svg10.dtd">
<svg version="1.0" xmlns="http://www.w3.org/2000/svg"
 width="1024.000000pt" height="1024.000000pt" viewBox="0 0 1024.000000 1024.000000"
 preserveAspectRatio="xMidYMid meet">
<metadata>
Created by potrace 1.16, written by Peter Selinger 2001-2019
</metadata>
<g transform="translate(0.000000,1024.000000) scale(0.100000,-0.100000)"
fill="#000000" stroke="none">
<path d="M4818 8150 c-2 -6 -28 -13 -58 -15 -45 -4 -178 -23 -275 -41 -11 -2
-56 -13 -100 -24 -44 -12 -89 -23 -100 -24 -11 -2 -27 -6 -35 -9 -8 -3 -64
-21 -125 -41 -60 -19 -136 -47 -168 -61 -32 -15 -63 -28 -70 -29 -21 -3 -288
-146 -359 -192 -39 -25 -74 -41 -83 -38 -10 4 -13 2 -10 -8 5 -13 -74 -78 -95
-78 -6 0 -10 -5 -10 -10 0 -6 -8 -14 -17 -17 -10 -4 -33 -21 -53 -39 -19 -18
-60 -53 -90 -79 -132 -114 -286 -277 -390 -414 -14 -18 -29 -38 -35 -44 -5 -7
-16 -24 -23 -38 -8 -15 -25 -38 -38 -52 -13 -14 -24 -29 -24 -32 0 -3 -15 -29
-33 -58 -66 -104 -186 -334 -202 -386 -5 -15 -10 -19 -14 -12 -5 7 -8 0 -8
-16 0 -15 -6 -41 -13 -58 -8 -16 -14 -32 -14 -35 -5 -26 -39 -99 -45 -96 -4 3
-6 -8 -5 -24 1 -15 -5 -53 -14 -83 -14 -51 -14 -58 2 -81 20 -31 59 -42 92
-27 23 10 74 105 74 138 0 53 189 468 254 558 12 17 28 42 35 57 8 15 19 25
24 21 6 -3 7 -1 3 6 -5 7 10 35 36 69 23 31 54 73 67 92 13 19 29 39 36 45 7
5 16 18 21 27 34 64 329 356 430 426 22 15 43 33 47 40 4 6 14 12 22 12 7 0
15 4 17 8 6 15 78 64 78 53 0 -6 4 -11 10 -11 5 0 7 6 4 14 -4 9 25 32 88 70
99 59 317 165 366 177 4 1 27 13 52 25 25 13 58 25 73 28 15 3 52 14 82 25 29
11 91 30 137 41 46 12 91 23 102 27 11 3 16 1 12 -5 -3 -6 6 -5 21 3 16 7 42
16 58 18 17 3 57 10 90 16 95 17 166 22 370 28 177 4 233 1 454 -27 78 -10
256 -47 291 -60 3 -1 8 -2 12 -1 10 1 166 -45 203 -60 17 -7 39 -14 50 -16 10
-2 30 -10 42 -18 13 -9 23 -13 23 -10 0 3 9 1 20 -5 12 -6 18 -16 14 -23 -5
-9 -4 -9 6 0 10 9 23 6 59 -14 25 -14 48 -25 51 -24 6 1 132 -61 140 -69 3 -3
27 -16 54 -30 27 -13 54 -29 60 -35 7 -5 23 -17 38 -25 88 -50 199 -134 194
-146 -3 -8 0 -11 9 -8 7 3 23 -4 34 -15 12 -12 25 -21 29 -21 5 0 49 -38 98
-85 72 -70 86 -88 74 -96 -12 -8 -11 -9 6 -4 17 4 39 -13 113 -92 50 -53 91
-101 91 -106 0 -6 7 -15 16 -22 18 -13 27 -62 13 -71 -5 -3 -9 -10 -9 -17 0
-6 6 -2 14 8 8 11 12 23 10 27 -3 5 -1 8 4 8 17 0 23 -32 10 -49 -12 -14 -11
-14 4 -3 19 15 38 8 38 -13 0 -7 4 -15 8 -17 11 -4 92 -127 92 -139 0 -6 -5
-7 -12 -3 -7 4 -8 3 -4 -5 4 -6 12 -9 17 -6 5 4 14 -7 21 -22 7 -15 15 -30 19
-33 15 -12 40 -73 35 -86 -3 -8 -2 -12 4 -9 14 9 32 -33 25 -58 -5 -16 -4 -18
3 -8 8 11 15 5 31 -28 12 -23 23 -55 24 -70 1 -16 4 -28 7 -26 3 2 12 -11 19
-28 7 -18 17 -40 22 -51 8 -14 38 -103 39 -113 0 -4 -136 48 -160 61 -14 8
-27 14 -30 14 -6 1 -37 11 -75 25 -16 6 -34 12 -40 13 -16 3 -177 64 -189 72
-6 3 -13 7 -16 7 -16 2 -87 29 -94 36 -6 5 -20 9 -33 9 -13 0 -23 4 -23 9 0
18 -56 1 -77 -24 -49 -56 -16 -112 87 -145 58 -19 174 -66 268 -107 18 -8 41
-16 51 -18 11 -2 32 -10 48 -18 15 -8 64 -27 108 -42 44 -15 85 -31 90 -35 6
-4 28 -13 50 -20 22 -7 63 -23 92 -36 28 -13 59 -24 67 -24 8 0 18 -5 21 -10
11 -18 72 53 84 99 7 25 18 56 24 70 13 31 12 29 22 66 4 17 12 36 18 43 5 6
7 12 3 12 -3 0 1 17 10 38 15 36 70 182 72 192 1 6 5 21 30 100 31 97 80 238
92 260 26 48 -33 118 -89 105 -38 -8 -59 -48 -116 -225 -15 -47 -33 -98 -40
-115 -7 -16 -30 -82 -50 -145 -20 -63 -43 -128 -50 -145 -8 -16 -11 -33 -8
-38 3 -5 0 -8 -8 -5 -8 3 -14 9 -14 14 0 5 -3 14 -6 19 -4 6 -10 24 -14 40
-10 35 -10 36 -18 55 -3 8 -16 42 -28 75 -23 63 -118 251 -151 298 -11 15 -16
27 -13 27 4 0 -1 7 -9 16 -9 8 -16 21 -16 29 0 7 -4 15 -8 17 -4 2 -27 32 -50
68 -131 204 -309 403 -504 564 -51 43 -106 89 -122 102 -15 13 -30 24 -32 24
-7 0 -139 95 -142 102 -2 4 -7 8 -12 8 -5 0 -44 21 -87 46 -96 57 -345 180
-403 199 -3 1 -25 7 -50 14 -25 7 -54 18 -65 24 -11 6 -27 12 -36 14 -9 1 -29
8 -45 14 -16 7 -36 13 -44 15 -8 2 -71 17 -140 34 -69 17 -132 32 -140 32 -8
0 -37 5 -65 10 -56 10 -78 13 -215 22 -52 4 -117 9 -145 13 -54 6 -153 5 -284
-3 -58 -4 -81 -2 -76 5 3 6 2 11 -4 11 -5 0 -11 -5 -13 -10z"/>
<path d="M7773 4478 c-12 -6 -29 -29 -37 -52 -21 -59 -57 -178 -62 -202 -2
-12 -12 -39 -21 -60 -9 -22 -17 -41 -18 -44 -6 -28 -18 -49 -26 -45 -5 3 -6
-1 -3 -9 8 -20 -43 -129 -56 -121 -6 3 -7 0 -4 -9 10 -26 -129 -277 -215 -388
-20 -26 -51 -68 -70 -93 -18 -24 -38 -42 -44 -38 -5 3 -7 1 -4 -4 9 -14 -32
-65 -45 -57 -7 4 -8 2 -4 -4 4 -7 -14 -34 -42 -64 -27 -29 -65 -71 -85 -93
-31 -33 -38 -37 -47 -25 -8 12 -10 11 -8 -6 3 -20 -17 -40 -142 -147 -73 -63
-118 -97 -128 -97 -7 0 -12 -4 -12 -9 0 -7 -113 -86 -215 -149 -56 -34 -289
-152 -310 -156 -5 -1 -20 -7 -32 -14 -34 -19 -183 -72 -183 -66 0 4 -7 1 -15
-6 -8 -7 -15 -9 -15 -5 0 4 -6 3 -12 -2 -29 -23 -246 -79 -378 -98 -244 -35
-260 -36 -495 -32 -132 3 -258 7 -280 10 -22 3 -67 8 -100 11 -33 3 -89 13
-125 21 -36 8 -81 17 -100 20 -38 6 -209 54 -225 63 -5 4 -14 7 -20 9 -34 7
-131 38 -135 42 -3 3 -12 7 -20 9 -8 2 -34 12 -57 22 -24 11 -72 32 -108 46
-49 20 -65 30 -60 42 4 11 2 12 -8 4 -16 -13 -111 37 -287 152 -41 27 -77 52
-80 55 -3 3 -14 11 -25 18 -11 6 -19 16 -18 22 2 6 -3 8 -10 5 -8 -3 -24 6
-38 19 -13 13 -31 28 -40 33 -30 16 -142 118 -234 210 -136 138 -216 229 -273
311 -7 10 -43 61 -79 113 -66 94 -96 143 -130 210 -9 19 -22 38 -27 42 -6 4
-7 8 -3 8 4 0 -6 25 -22 55 -17 30 -30 56 -29 58 1 2 -40 95 -49 110 -3 4 10
2 29 -6 18 -8 47 -20 63 -27 17 -7 49 -21 72 -31 24 -11 48 -19 55 -19 10 0
10 -2 1 -8 -8 -5 0 -8 21 -9 19 -1 75 -19 125 -42 50 -23 96 -41 101 -41 6 0
18 -4 28 -9 17 -10 55 -23 60 -22 1 1 25 -10 54 -25 58 -30 92 -38 125 -29 24
6 53 51 53 82 -1 25 -31 59 -61 68 -13 4 -33 12 -44 19 -11 7 -40 18 -65 25
-25 7 -67 23 -95 35 -98 44 -110 49 -123 52 -14 3 -394 153 -457 180 -62 28
-100 29 -123 4 -15 -17 -68 -136 -64 -147 0 -1 -15 -46 -34 -100 -19 -54 -48
-138 -65 -188 -16 -49 -36 -104 -44 -122 -8 -17 -15 -37 -15 -45 0 -12 -32
-115 -56 -178 -3 -8 -5 -16 -5 -17 0 -2 -6 -22 -13 -46 -11 -38 -11 -48 2 -73
18 -35 30 -44 60 -44 15 0 21 -4 16 -12 -4 -7 -3 -8 5 -4 6 4 9 11 6 16 -3 5
3 11 14 15 19 6 66 103 76 155 9 50 58 170 69 170 8 0 8 2 0 8 -7 5 8 62 47
177 32 94 59 163 59 155 0 -8 20 -55 44 -105 31 -64 41 -94 33 -103 -7 -9 -6
-11 4 -7 10 3 31 -27 68 -100 29 -58 62 -114 72 -126 9 -11 37 -50 61 -87 24
-36 55 -80 71 -96 15 -17 27 -33 27 -37 0 -3 12 -19 26 -35 14 -16 37 -43 52
-61 43 -50 283 -291 327 -328 22 -18 58 -50 80 -70 32 -30 36 -36 17 -32 -13
3 -20 1 -16 -5 3 -5 16 -7 27 -4 14 3 45 -12 101 -51 45 -31 87 -63 94 -70 7
-7 19 -13 26 -13 7 0 21 -8 32 -18 10 -10 40 -29 67 -42 26 -13 47 -27 47 -31
0 -3 23 -16 50 -28 28 -12 48 -26 45 -31 -3 -6 1 -7 9 -4 8 3 46 -10 83 -29
70 -36 120 -59 139 -63 6 -1 27 -9 45 -17 19 -8 66 -25 104 -37 39 -13 76 -28
84 -34 8 -6 16 -10 18 -8 1 1 4 2 6 1 13 -4 63 -15 137 -30 30 -6 60 -15 66
-20 6 -5 13 -7 15 -4 3 2 22 0 44 -6 22 -5 54 -12 70 -14 17 -3 42 -7 57 -10
30 -7 69 -13 143 -21 28 -3 64 -7 80 -9 86 -12 575 -4 625 10 8 2 44 6 80 9
36 3 76 9 90 12 14 3 34 7 45 9 11 2 47 11 81 19 34 8 72 17 85 20 13 2 31 7
39 10 8 3 26 8 40 10 14 3 58 17 99 31 41 15 83 28 95 31 21 4 50 15 97 40 20
10 28 11 38 1 10 -9 11 -9 6 3 -4 12 8 21 47 35 29 10 82 36 119 57 36 21 73
38 83 38 9 0 16 5 16 11 0 5 5 7 10 4 6 -3 10 -2 10 2 0 5 26 24 58 42 179
106 385 260 519 388 30 29 60 50 65 46 7 -3 8 -1 4 5 -4 6 19 39 51 73 111
119 163 178 163 185 0 3 17 26 38 52 61 79 85 115 163 242 49 79 179 327 179
340 0 5 10 30 22 57 11 26 22 53 24 58 1 6 16 48 32 95 16 47 33 99 37 115 5
17 10 37 13 45 13 45 12 88 -2 115 -9 17 -16 26 -16 22 0 -5 -10 -1 -22 7 -26
18 -26 18 -55 4z"/>
</g>
</svg>
