<?xml version="1.0" standalone="no"?>
<!DOCTYPE svg PUBLIC "-//W3C//DTD SVG 20010904//EN" "http://www.w3.org/TR/2001/REC-SVG-20010904/DTD/svg10.dtd">
<svg xmlns="http://www.w3.org/2000/svg" version="1.0" width="768.000000pt" height="768.000000pt" viewBox="0 0 768.000000 768.000000" preserveAspectRatio="xMidYMid meet">
<metadata>
Created by potrace 1.16, written by Peter Selinger 2001-2019
<meta name="Producer" content="Online-Convert"/></metadata>
<g transform="translate(0.000000,768.000000) scale(0.100000,-0.100000)" fill="#000000" stroke="none">
<path d="M3715 6645 c-11 -2 -69 -9 -130 -15 -183 -19 -392 -77 -593 -164 -264 -114 -536 -316 -733 -543 -270 -313 -430 -665 -496 -1088 -17 -113 -18 -220 -18 -1927 l0 -1807 21 -28 c11 -15 36 -38 54 -50 l33 -23 1987 0 1987 0 34 23 c18 12 44 38 57 57 l23 34 -4 1820 -3 1821 -22 120 c-57 317 -160 577 -326 830 -337 513 -861 845 -1453 921 -115 14 -378 26 -418 19z m429 -180 c209 -34 347 -77 533 -165 525 -249 904 -719 1042 -1291 58 -243 54 -99 58 -1984 l4 -1729 -168 165 c-92 92 -244 241 -338 332 l-170 165 -6 1244 c-5 1213 -6 1245 -26 1323 -69 268 -175 458 -358 640 -226 227 -483 342 -825 370 -160 13 -394 -34 -575 -115 -152 -68 -321 -200 -436 -341 -134 -163 -204 -296 -267 -512 l-26 -92 -4 -1250 -3 -1251 -334 -334 -335 -335 0 1705 c0 1830 -1 1771 50 1994 34 143 77 262 146 402 219 444 564 762 1029 949 147 59 380 114 545 129 92 8 368 -3 464 -19z m-72 -1115 c249 -55 483 -205 638 -411 135 -180 200 -341 220 -549 5 -52 10 -581 10 -1175 l0 -1080 -195 195 -195 195 0 780 c0 758 -1 783 -21 855 -54 197 -192 366 -369 454 -158 78 -341 96 -515 51 -192 -49 -390 -225 -464 -412 -53 -134 -52 -115 -51 -951 l0 -777 -195 -195 -196 -195 3 1155 3 1155 27 97 c51 186 145 352 278 492 188 198 401 304 680 340 68 8 256 -5 342 -24z m-88 -836 c181 -47 327 -191 386 -380 19 -64 20 -88 20 -810 l0 -744 -556 0 -556 0 4 743 5 742 26 82 c60 182 194 313 372 364 77 23 218 24 299 3z m1075 -2721 l620 -628 -919 -3 c-506 -1 -1333 -1 -1838 0 l-919 3 621 627 621 628 596 0 597 0 621 -627z"/>
</g>
</svg>
