<?xml version="1.0" standalone="no"?>
<!DOCTYPE svg PUBLIC "-//W3C//DTD SVG 20010904//EN"
 "http://www.w3.org/TR/2001/REC-SVG-20010904/DTD/svg10.dtd">
<svg version="1.0" xmlns="http://www.w3.org/2000/svg"
 width="1024.000000pt" height="1024.000000pt" viewBox="0 0 1024.000000 1024.000000"
 preserveAspectRatio="xMidYMid meet">
<metadata>
Created by potrace 1.16, written by Peter Selinger 2001-2019
</metadata>
<g transform="translate(0.000000,1024.000000) scale(0.100000,-0.100000)"
fill="#000000" stroke="none">
<path d="M2810 8704 l-35 -34 -5 -1712 c-4 -1414 -7 -1713 -18 -1710 -8 1 -11
-2 -7 -8 3 -6 11 -8 16 -4 6 3 17 -3 25 -15 49 -69 195 -67 412 5 40 13 78 22
83 19 5 -4 9 -2 9 4 0 9 92 46 115 46 6 0 12 3 15 6 14 18 227 92 240 84 6 -3
10 -2 10 4 0 13 90 31 121 25 20 -5 21 -4 9 6 -23 18 155 6 210 -14 63 -23
210 -118 203 -130 -4 -6 -3 -8 2 -4 9 8 125 -78 125 -93 0 -6 -4 -7 -10 -4 -5
3 -10 1 -10 -4 0 -13 17 -14 24 -2 8 13 141 -79 140 -96 -2 -11 1 -11 12 -2
11 9 14 8 14 -1 0 -8 3 -11 6 -8 3 4 30 -5 59 -18 60 -28 243 -66 251 -53 3 5
19 9 36 9 35 0 237 67 336 112 104 46 193 78 203 72 5 -3 9 0 9 6 0 6 6 10 13
9 6 -1 20 1 30 6 44 19 277 -28 277 -56 0 -5 3 -8 8 -7 14 4 52 -14 52 -24 0
-6 3 -8 6 -5 9 9 124 -53 124 -66 0 -6 3 -8 6 -4 6 6 123 -48 134 -62 3 -3 10
-7 15 -8 46 -11 191 -67 197 -76 6 -9 8 -8 8 2 0 10 9 12 33 7 17 -4 44 -7 59
-8 17 0 25 -5 21 -11 -3 -6 4 -3 18 6 13 9 35 17 50 17 15 0 58 10 95 22 38
12 72 21 77 20 4 -1 7 3 7 10 0 6 3 9 6 5 3 -3 11 -1 18 4 6 5 52 35 101 66
292 183 394 234 427 214 14 -9 17 -8 16 1 -2 8 9 14 27 15 17 1 48 3 70 4 108
6 317 -40 458 -100 71 -31 110 -35 145 -17 64 33 62 12 62 544 0 320 3 481 10
477 6 -4 10 6 9 22 0 25 -1 26 -9 8 -6 -14 -8 0 -8 45 1 58 2 61 8 25 10 -54
11 -35 11 255 0 281 -1 298 -11 250 -6 -29 -8 -23 -9 33 0 39 3 67 9 67 6 0
10 21 10 46 0 27 -4 43 -10 39 -6 -4 -10 26 -10 82 0 60 3 83 10 73 6 -9 10
-10 10 -3 0 6 -5 15 -11 19 -15 9 -5 84 13 96 9 7 8 8 -6 4 -16 -5 -18 -2 -14
29 2 19 1 35 -2 35 -4 0 -11 9 -16 20 -5 11 -280 291 -612 623 -331 332 -599
607 -595 612 5 4 3 5 -3 2 -13 -7 -47 26 -37 36 3 4 1 7 -5 7 -6 0 -14 9 -17
20 -3 11 -11 20 -17 20 -6 0 -26 16 -44 35 -19 18 -34 32 -34 29 0 -2 -10 2
-23 11 -20 13 -251 15 -1872 19 l-1850 4 -35 -34z m3610 -679 c0 -537 3 -592
40 -665 10 -19 18 -39 19 -43 2 -21 123 -110 171 -126 8 -3 268 -6 577 -8
l563 -4 0 -909 c0 -501 -1 -910 -2 -910 -3 0 -96 34 -128 47 -8 3 -28 7 -45 9
-16 3 -32 9 -33 14 -2 6 -7 8 -12 5 -4 -2 -41 2 -81 11 -82 16 -225 18 -302 4
-27 -6 -53 -7 -58 -4 -5 3 -9 1 -9 -4 0 -5 -19 -15 -42 -22 -70 -20 -169 -74
-321 -175 -80 -53 -172 -106 -205 -120 -66 -27 -195 -51 -200 -37 -1 5 -16 6
-32 4 -18 -3 -30 0 -30 7 0 6 5 11 12 11 6 0 8 3 5 6 -4 4 -13 2 -20 -4 -10
-8 -24 -8 -51 -1 -37 10 -386 184 -396 198 -3 3 -9 7 -15 8 -5 2 -53 19 -105
39 -78 30 -112 37 -190 41 -84 4 -104 2 -169 -21 -40 -14 -77 -23 -82 -20 -5
3 -9 1 -9 -4 0 -9 -135 -65 -157 -65 -7 0 -13 -4 -13 -8 0 -11 -161 -70 -172
-62 -6 3 -8 1 -5 -4 9 -15 -113 -37 -173 -31 -78 8 -183 66 -363 201 -158 119
-306 207 -348 207 -11 0 -19 4 -19 8 0 4 -55 9 -122 11 -68 1 -126 5 -130 7
-5 3 -8 0 -8 -7 0 -7 -10 -9 -25 -7 -14 3 -25 1 -25 -4 0 -5 -8 -8 -17 -7 -10
1 -25 -1 -33 -4 -53 -22 -168 -60 -182 -60 -10 -1 -18 -4 -18 -8 0 -7 -44 -22
-65 -23 -5 -1 -12 -4 -15 -7 -8 -10 -224 -88 -276 -99 -34 -8 -50 -8 -60 1
-12 10 -13 8 -8 -6 6 -15 3 -17 -19 -13 -15 3 -27 1 -27 -3 0 -5 -9 -9 -20 -9
-20 0 -20 7 -20 1588 0 874 3 1592 7 1595 3 4 784 7 1735 7 l1728 0 0 -525z
m273 291 c-3 -6 -2 -8 2 -3 11 10 86 -63 78 -76 -3 -6 -2 -7 4 -4 5 3 30 -15
54 -40 24 -25 38 -42 30 -38 -9 5 -12 4 -7 -3 4 -7 13 -12 20 -12 6 0 28 -16
47 -37 18 -20 28 -33 22 -29 -20 11 -15 1 9 -20 14 -12 19 -14 13 -4 -4 8 24
-16 63 -54 39 -38 69 -73 66 -78 -3 -4 -1 -8 5 -8 16 0 81 -60 78 -73 -1 -6 5
-11 13 -12 8 0 14 -7 12 -15 -2 -8 0 -12 4 -8 9 10 35 -12 28 -23 -3 -5 -1 -8
4 -7 6 2 9 0 9 -4 -1 -4 14 -17 33 -30 19 -13 35 -28 34 -33 -1 -6 12 -18 28
-28 18 -11 26 -22 22 -30 -4 -6 -3 -8 1 -4 14 12 164 -143 158 -162 -3 -11 -2
-12 4 -4 6 9 27 -5 73 -52 l64 -65 -457 0 c-266 0 -457 4 -457 9 0 5 -9 7 -20
4 -12 -3 -20 0 -20 6 0 7 -5 9 -12 5 -8 -5 -9 -2 -4 11 5 14 4 16 -8 6 -11 -9
-20 -5 -43 22 -30 34 -30 34 -27 148 4 164 4 510 1 687 l-3 152 42 -41 c24
-23 40 -47 37 -53z"/>
<path d="M3570 4981 c-41 -11 -78 -17 -82 -15 -3 2 -8 0 -10 -4 -7 -20 -310
-112 -365 -112 -15 0 -48 -3 -73 -6 -46 -6 -219 19 -229 33 -8 11 -48 17 -103
16 -72 -2 -74 -3 -100 -57 -24 -47 -26 -63 -28 -216 -1 -91 -6 -166 -11 -168
-5 -2 -9 -13 -8 -25 0 -21 1 -21 9 -2 5 11 8 -258 8 -625 -1 -355 -4 -616 -8
-580 l-7 65 -1 -67 c-1 -40 2 -68 8 -68 6 0 9 -17 9 -37 l-2 -38 -7 35 -7 35
-2 -37 c0 -21 4 -38 9 -38 6 0 10 -32 9 -77 0 -53 -3 -72 -9 -58 -8 19 -9 19
-9 -2 -1 -13 4 -23 9 -23 6 0 10 -17 9 -37 -1 -34 -2 -35 -9 -13 l-8 25 -1
-27 c-1 -16 4 -28 9 -28 6 0 10 -72 9 -197 -1 -115 -4 -187 -9 -173 l-8 25 -1
-27 c-1 -16 4 -28 9 -28 6 0 10 -32 9 -77 -1 -55 -3 -70 -9 -53 l-8 25 -1 -27
c-1 -16 4 -28 9 -28 14 0 14 -699 0 -736 -6 -15 -8 -29 -5 -32 3 -4 8 4 12 16
6 25 23 30 23 6 0 -14 34 -51 71 -79 16 -11 5071 -15 5079 -3 3 3 12 8 20 10
23 5 52 46 61 86 9 40 13 3201 4 3210 -3 3 -5 17 -5 31 0 19 -11 34 -38 52
-35 25 -40 26 -75 14 -55 -19 -67 -33 -67 -77 0 -24 -4 -37 -10 -33 -6 4 -8
10 -5 15 3 5 0 12 -6 16 -7 4 -9 3 -5 -4 12 -20 -11 -21 -65 -3 -30 11 -71 22
-91 26 -21 4 -38 10 -38 14 0 3 -24 7 -53 9 -28 1 -53 5 -54 10 -5 12 -275 -4
-333 -21 -30 -8 -58 -13 -61 -11 -4 2 -9 1 -11 -3 -3 -9 -174 -93 -184 -92 -4
0 -10 -4 -13 -9 -11 -18 -183 -122 -192 -116 -5 3 -9 1 -9 -4 0 -14 -159 -84
-199 -87 -20 -2 -44 -6 -54 -10 -20 -8 -127 3 -127 13 0 4 -12 8 -26 9 -30 1
-261 115 -290 142 -11 9 -21 17 -24 18 -3 0 -57 26 -120 57 -185 90 -298 98
-487 33 -57 -20 -103 -33 -103 -29 0 4 -4 2 -8 -4 -8 -12 -129 -60 -252 -101
-69 -22 -103 -28 -181 -28 -93 0 -98 1 -183 43 -48 24 -90 50 -93 58 -3 8 -8
12 -12 10 -10 -7 -191 131 -183 139 4 3 2 5 -3 4 -6 -2 -44 19 -85 47 -41 27
-101 61 -132 75 -32 14 -56 28 -54 30 5 5 -15 7 -149 13 -88 5 -125 2 -185
-13z m224 -170 c3 -5 15 -7 26 -4 12 3 20 0 20 -6 0 -7 4 -9 10 -6 5 3 23 -1
40 -10 23 -12 29 -21 25 -35 -3 -10 -1 -21 4 -25 6 -3 8 0 5 8 -3 8 -1 17 4
21 10 6 159 -95 186 -127 10 -12 21 -21 25 -20 3 2 40 -21 81 -51 41 -29 89
-62 105 -72 17 -10 33 -22 36 -27 3 -5 8 -8 10 -6 12 7 48 -15 52 -31 3 -11
11 -20 19 -20 10 0 10 2 -2 10 -29 18 -3 18 54 -1 33 -10 70 -19 83 -19 12 0
23 -4 23 -8 0 -4 37 -4 83 1 45 5 94 9 109 10 16 1 28 6 28 11 0 4 7 6 15 3 8
-4 17 -2 21 4 3 6 12 8 19 5 8 -3 16 0 19 7 5 9 7 9 12 0 3 -7 10 -13 15 -13
4 0 6 6 4 13 -4 12 236 114 263 111 6 -1 12 2 12 6 0 4 33 17 73 29 59 17 80
20 102 11 25 -9 26 -9 15 5 -10 12 -10 15 2 15 34 0 128 -24 128 -32 0 -5 4
-7 10 -3 11 7 140 -56 164 -80 9 -9 16 -14 16 -11 0 3 28 -10 63 -30 196 -111
346 -164 467 -164 138 0 254 42 473 173 160 96 235 137 263 142 10 2 20 4 22
4 1 1 5 1 8 0 4 0 10 4 14 10 12 20 76 25 288 22 17 0 32 -5 32 -11 0 -6 5 -8
10 -5 15 9 110 -14 110 -27 0 -5 4 -7 9 -4 11 7 131 -33 131 -45 0 -4 7 -6 15
-3 8 4 15 1 15 -6 0 -6 5 -8 10 -5 7 4 10 -482 10 -1449 l0 -1456 -2425 0
c-1482 0 -2425 4 -2425 9 0 5 8 12 18 14 13 4 12 5 -5 6 -13 1 -23 -6 -26 -17
-3 -9 -5 674 -6 1520 l-1 1536 23 -3 c12 -2 47 -8 77 -14 75 -15 220 -16 305
0 38 6 155 41 259 76 105 36 200 63 213 60 13 -2 23 0 23 4 0 12 107 11 114 0z"/>
</g>
</svg>
