<?xml version="1.0" standalone="no"?>
<!DOCTYPE svg PUBLIC "-//W3C//DTD SVG 20010904//EN" "http://www.w3.org/TR/2001/REC-SVG-20010904/DTD/svg10.dtd">
<svg xmlns="http://www.w3.org/2000/svg" version="1.0" width="1024.000000pt" height="1024.000000pt" viewBox="0 0 1024.000000 1024.000000" preserveAspectRatio="xMidYMid meet">
<metadata>
Created by potrace 1.16, written by Peter Selinger 2001-2019
<meta name="Producer" content="Online-Convert"/></metadata>
<g transform="translate(0.000000,1024.000000) scale(0.100000,-0.100000)" fill="#000000" stroke="none">
<path d="M4147 8044 c-191 -29 -336 -74 -502 -154 -381 -184 -696 -499 -884 -883 -69 -142 -120 -290 -155 -455 -35 -161 -46 -281 -46 -486 0 -200 12 -339 42 -475 12 -53 22 -108 22 -123 1 -14 3 -24 5 -22 2 2 21 -40 41 -94 20 -53 53 -129 73 -168 51 -102 165 -268 236 -345 33 -37 57 -70 53 -74 -4 -5 -2 -5 4 -2 6 4 20 -3 30 -15 38 -43 212 -165 299 -210 116 -60 268 -112 397 -137 133 -25 366 -45 468 -39 l80 5 0 -281 c1 -155 3 -486 6 -737 4 -363 2 -458 -8 -466 -12 -10 -163 -46 -703 -169 -238 -54 -1174 -256 -1249 -270 -83 -15 -113 -89 -57 -144 16 -16 27 -31 25 -33 -20 -20 497 86 1111 228 182 42 377 87 435 101 58 13 170 40 250 59 80 20 231 56 335 80 387 92 656 170 850 247 302 119 529 285 606 443 31 63 34 78 34 155 0 103 -22 157 -96 229 -49 48 -171 121 -203 121 -9 0 -16 5 -16 11 0 5 4 8 10 4 5 -3 67 -7 137 -10 194 -6 540 -51 708 -91 120 -29 204 -57 199 -65 -3 -5 1 -6 9 -3 23 9 197 -80 259 -133 121 -102 168 -196 168 -337 -1 -152 -69 -285 -223 -433 -140 -134 -370 -270 -632 -372 -93 -37 -115 -58 -115 -113 0 -30 7 -46 29 -69 l29 -29 885 0 c879 0 884 0 911 21 41 32 34 113 -11 135 -10 5 -322 11 -693 14 l-675 5 80 43 c176 95 354 241 446 364 115 156 164 299 157 462 -7 158 -58 274 -172 388 -238 240 -669 358 -1426 393 -347 16 -714 22 -746 13 -63 -17 -82 -100 -34 -148 20 -20 30 -23 190 -60 213 -49 436 -124 512 -172 111 -70 147 -147 109 -233 -85 -192 -470 -393 -1026 -535 -88 -23 -168 -43 -177 -46 -17 -5 -18 39 -18 829 l0 833 24 71 c61 179 203 400 356 554 119 119 308 252 487 343 90 45 113 69 113 117 0 48 -31 86 -76 95 -78 14 -390 -170 -605 -358 -75 -66 -208 -220 -261 -305 -22 -35 -41 -63 -41 -63 -1 0 -1 205 1 457 l2 456 77 116 c134 205 289 396 478 591 56 58 109 119 118 136 17 33 13 68 -9 95 -8 9 -12 18 -9 21 6 6 -17 10 -77 11 -55 2 -50 6 -229 -187 -132 -141 -275 -310 -322 -380 l-26 -40 -3 513 -3 513 -33 29 c-44 39 -90 39 -134 0 l-33 -29 0 -586 c0 -322 -2 -586 -5 -586 -9 1 -65 85 -62 93 1 5 -2 6 -7 3 -5 -3 -21 11 -37 32 -15 20 -95 105 -176 188 -81 83 -145 155 -141 160 5 5 4 6 -1 2 -5 -4 -24 6 -44 23 -19 17 -46 35 -61 40 -63 25 -131 -21 -131 -89 0 -31 16 -51 178 -216 232 -237 420 -457 470 -553 8 -15 12 -113 12 -318 l0 -297 -56 73 c-186 242 -432 447 -727 604 -93 49 -113 57 -145 52 -83 -14 -109 -102 -48 -163 18 -18 31 -36 27 -40 -3 -4 -1 -4 6 0 28 16 280 -139 428 -265 103 -86 236 -225 300 -311 59 -80 130 -207 175 -314 32 -73 34 -89 38 -206 l4 -128 -124 0 c-399 0 -690 85 -920 269 -268 213 -445 536 -503 919 -21 138 -21 503 1 647 73 493 309 890 707 1190 269 202 597 305 970 305 170 0 282 -13 437 -51 210 -50 362 -119 555 -250 140 -95 224 -173 219 -201 -4 -20 -3 -20 4 -4 7 16 17 7 73 -60 118 -144 205 -277 193 -296 -4 -6 -2 -8 3 -5 24 15 173 -370 176 -454 1 -21 5 -35 8 -33 4 2 15 -47 25 -109 23 -139 27 -532 6 -667 -20 -128 -44 -220 -55 -213 -6 3 -7 1 -3 -6 17 -27 -81 -264 -159 -387 -56 -87 -137 -184 -148 -177 -6 3 -7 1 -3 -5 7 -12 -96 -106 -187 -170 -155 -109 -352 -181 -597 -217 -57 -9 -115 -22 -127 -30 -47 -31 -46 -118 2 -149 47 -31 216 -13 414 45 360 105 624 307 824 629 128 208 207 457 238 751 14 131 6 474 -12 589 -7 41 -13 89 -13 107 -1 17 -4 29 -8 27 -3 -2 -9 15 -13 38 -11 65 -72 263 -112 358 -104 254 -282 502 -483 674 -274 234 -597 381 -951 431 -132 19 -480 18 -602 -1z"/>
</g>
</svg>
