<?xml version="1.0" standalone="no"?>
<!DOCTYPE svg PUBLIC "-//W3C//DTD SVG 20010904//EN"
 "http://www.w3.org/TR/2001/REC-SVG-20010904/DTD/svg10.dtd">
<svg version="1.0" xmlns="http://www.w3.org/2000/svg"
 width="1024.000000pt" height="1024.000000pt" viewBox="0 0 1024.000000 1024.000000"
 preserveAspectRatio="xMidYMid meet">
<metadata>
Created by potrace 1.16, written by Peter Selinger 2001-2019
</metadata>
<g transform="translate(0.000000,1024.000000) scale(0.100000,-0.100000)"
fill="#000000" stroke="none">
<path d="M6655 7651 c-33 -5 -94 -19 -135 -31 -41 -12 -85 -22 -97 -22 -13 0
-21 -3 -18 -7 2 -4 -22 -20 -53 -35 -31 -16 -86 -49 -121 -75 -35 -25 -68 -45
-73 -43 -5 1 -7 -1 -4 -6 7 -11 -58 -75 -67 -66 -4 4 -7 -2 -7 -13 0 -21 -22
-47 -32 -38 -2 3 -5 -1 -5 -8 0 -8 -14 -34 -32 -60 -150 -219 -188 -573 -95
-895 8 -29 12 -58 8 -65 -4 -7 -4 -9 1 -5 6 6 54 -90 55 -108 0 -1 -12 0 -27
2 -27 4 -27 4 2 -6 23 -8 40 -27 70 -82 22 -39 39 -76 37 -82 -2 -6 0 -8 3 -4
11 11 47 -40 39 -54 -4 -7 -4 -10 1 -6 9 9 151 -121 147 -134 -1 -5 2 -7 7 -4
5 3 34 -8 65 -26 58 -34 63 -42 50 -105 -5 -25 -15 -33 -79 -57 -40 -15 -79
-25 -86 -20 -8 4 -10 3 -5 -4 10 -16 9 -16 -58 18 -66 34 -109 37 -182 15 -60
-18 -88 -19 -78 -3 4 6 3 8 -3 5 -5 -3 -25 -1 -45 5 -28 8 -51 6 -118 -11
-103 -26 -187 -67 -278 -137 -39 -29 -73 -51 -76 -48 -3 2 -4 1 -2 -2 3 -3
-22 -40 -55 -81 -32 -41 -59 -79 -59 -84 0 -6 -5 -7 -12 -3 -7 4 -8 3 -4 -4 4
-6 0 -24 -7 -39 -18 -35 -58 -177 -87 -308 -26 -117 -70 -246 -112 -328 -48
-97 -117 -202 -122 -186 -26 90 -119 481 -119 502 0 16 -3 23 -7 17 -5 -8 -10
-2 -14 15 -4 14 -4 31 0 37 4 6 3 8 -4 4 -6 -3 -14 4 -17 16 -4 13 -16 42 -27
66 -10 23 -16 48 -12 54 4 6 3 8 -4 5 -5 -4 -21 12 -35 35 -91 155 -303 299
-587 398 -63 22 -105 39 -92 36 12 -2 19 0 16 6 -3 5 -18 7 -32 4 -23 -5 -155
24 -167 36 -2 2 -7 22 -11 44 l-6 41 74 41 c80 44 205 165 235 227 9 19 21 31
27 28 6 -3 8 -3 4 1 -3 4 6 35 22 69 76 168 105 324 104 562 0 153 -3 193 -23
270 -49 195 -165 381 -313 505 -68 56 -252 160 -284 160 -8 0 -14 5 -14 11 0
5 -3 8 -7 6 -5 -3 -48 4 -98 14 -112 23 -256 24 -366 3 -46 -9 -90 -17 -96
-17 -7 0 -13 -5 -13 -10 0 -5 -9 -7 -21 -4 -12 3 -18 3 -15 0 3 -3 -26 -21
-64 -39 -137 -65 -257 -167 -338 -286 -45 -66 -109 -202 -125 -268 -8 -30 -18
-53 -21 -52 -4 2 -11 0 -14 -4 -4 -4 -2 -4 4 -1 8 5 10 -34 6 -136 -4 -113 -1
-161 13 -228 10 -46 18 -92 19 -101 0 -10 4 -18 8 -18 4 0 8 -7 8 -16 0 -9 18
-54 40 -101 22 -47 37 -90 33 -96 -3 -5 -1 -7 4 -4 11 7 40 -50 35 -66 -1 -5
2 -6 7 -2 11 6 34 -29 24 -39 -3 -3 -1 -6 5 -6 11 0 77 -86 77 -101 0 -5 5 -9
10 -10 18 -1 35 -21 28 -32 -3 -5 -2 -7 4 -4 5 3 29 -13 52 -37 48 -49 46 -33
15 -182 -15 -70 -16 -72 -53 -83 -48 -14 -54 -14 -45 1 4 7 3 8 -5 4 -6 -4 -9
-11 -6 -16 3 -5 -12 -14 -32 -21 -122 -39 -386 -180 -480 -257 -24 -19 -43
-32 -43 -29 0 4 -17 -12 -37 -34 -21 -22 -47 -41 -57 -43 -11 -1 -20 -10 -22
-19 -1 -10 -24 -41 -50 -70 -65 -72 -144 -196 -189 -297 -21 -47 -41 -87 -44
-90 -3 -3 -6 -9 -6 -15 -1 -36 -17 -85 -27 -79 -7 4 -8 3 -4 -4 4 -7 -5 -65
-19 -129 -51 -228 -102 -711 -140 -1346 -8 -124 2 -147 60 -147 58 0 63 14 80
251 66 908 113 1238 210 1470 42 101 108 215 122 212 6 -1 10 5 9 15 0 9 4 16
10 15 7 -1 11 4 10 11 -3 32 245 263 267 249 6 -3 7 -2 4 4 -14 23 251 164
429 229 111 40 134 51 151 73 10 14 30 88 49 179 2 13 9 20 14 17 6 -3 10 -1
10 4 0 6 -6 12 -12 12 -7 1 0 4 16 8 16 3 38 18 48 32 25 34 14 59 -43 94 -94
60 -269 251 -253 276 4 7 3 9 -3 6 -14 -9 -46 40 -37 55 5 7 3 8 -6 3 -10 -6
-12 -4 -7 9 4 9 3 15 -2 12 -5 -4 -23 28 -40 69 -126 301 -102 593 67 828 30
41 36 46 51 35 14 -11 14 -11 4 3 -10 13 -6 21 25 51 55 52 99 82 177 121 117
59 180 71 350 71 141 -1 155 -2 240 -31 50 -17 121 -48 159 -70 76 -42 194
-151 245 -226 72 -106 140 -280 128 -326 -3 -11 -1 -21 4 -23 15 -5 22 -208
10 -313 -14 -123 -49 -277 -62 -270 -5 4 -6 -1 -3 -9 12 -31 -105 -244 -127
-231 -5 3 -6 0 -3 -8 6 -17 -63 -80 -78 -71 -7 4 -8 2 -4 -4 9 -14 -64 -56
-133 -76 -32 -10 -92 -16 -146 -16 -101 0 -125 -12 -125 -62 0 -48 49 -70 157
-69 57 0 63 -2 67 -22 2 -12 9 -44 16 -72 6 -27 11 -55 12 -61 1 -6 6 -11 12
-12 49 -4 365 -99 436 -131 22 -10 37 -21 32 -26 -4 -5 -2 -5 5 -1 18 10 85
-25 78 -42 -3 -9 1 -12 15 -7 21 7 65 -17 53 -29 -4 -4 -1 -5 7 -2 20 7 113
-61 104 -76 -4 -7 -3 -8 5 -4 15 10 84 -61 75 -76 -4 -7 -2 -8 4 -4 26 16 139
-223 127 -267 -4 -15 -3 -18 3 -9 12 18 75 -207 75 -272 1 -27 4 -41 7 -31 9
24 93 -360 85 -388 -4 -15 -3 -18 3 -9 7 10 11 3 15 -25 4 -21 9 -54 13 -73 4
-27 3 -32 -6 -20 -9 13 -11 12 -8 -3 2 -10 7 -19 13 -20 5 -1 17 -15 25 -32
22 -45 82 -47 108 -5 10 17 9 39 -8 130 -23 120 -23 119 30 192 15 20 29 35
32 33 3 -3 5 1 5 8 0 8 16 42 37 75 95 156 169 351 210 552 9 41 23 102 31
135 47 176 210 345 401 414 32 11 59 19 61 18 1 -2 -25 -23 -59 -47 -82 -60
-164 -152 -201 -226 -34 -68 -32 -104 5 -121 21 -9 28 -4 79 66 120 163 343
335 411 318 11 -3 16 -1 11 6 -4 7 0 8 13 2 10 -4 27 -7 37 -7 24 1 22 -2 -23
-32 -23 -15 -46 -24 -53 -20 -7 4 -9 4 -5 -1 9 -10 -36 -46 -54 -43 -7 2 -12
-2 -11 -9 1 -6 -22 -32 -52 -58 -92 -78 -174 -209 -159 -250 8 -20 40 -28 63
-15 11 5 34 30 51 55 48 70 157 174 240 228 l75 49 3 -36 c4 -49 -13 -78 -124
-202 -168 -189 -182 -211 -173 -285 3 -24 41 -17 78 16 18 17 37 29 42 27 5
-1 8 2 7 6 -4 11 63 94 70 88 8 -8 -80 -186 -89 -180 -5 3 -6 -2 -3 -10 3 -8
-3 -23 -13 -34 -10 -10 -19 -25 -21 -33 -10 -45 -212 -307 -233 -301 -5 1 -8
-1 -7 -5 2 -5 -12 -27 -31 -51 -26 -31 -37 -39 -44 -30 -6 9 -7 8 -3 -4 3 -9
-7 -38 -21 -64 -15 -26 -48 -101 -73 -166 -25 -65 -50 -115 -55 -111 -4 5 -5
3 -1 -4 14 -24 -147 -378 -166 -366 -7 3 -8 1 -4 -6 9 -14 -32 -83 -45 -76 -5
4 -6 0 -3 -8 3 -8 -8 -28 -24 -45 -16 -17 -27 -33 -25 -36 3 -3 -36 -45 -86
-95 -112 -111 -206 -163 -309 -169 -74 -5 -176 14 -166 30 4 6 2 8 -4 4 -24
-15 -144 99 -215 203 -86 127 -131 231 -283 653 -56 158 -108 296 -114 308
-13 24 -53 42 -75 34 -9 -4 -22 -19 -30 -35 -14 -26 -13 -35 15 -121 17 -51
28 -101 25 -113 -3 -11 -2 -14 2 -6 3 9 17 -16 35 -63 15 -43 26 -82 22 -87
-3 -5 -1 -9 4 -9 6 0 13 -12 17 -27 3 -16 19 -60 35 -100 16 -41 26 -81 23
-95 -3 -15 -2 -19 4 -11 11 16 38 -51 27 -68 -4 -7 -3 -9 4 -5 9 5 22 -17 27
-44 0 -3 6 -15 13 -27 21 -38 33 -75 22 -68 -6 3 -10 1 -10 -4 0 -6 6 -11 13
-11 13 -1 103 -157 101 -177 -1 -7 2 -11 6 -8 5 3 18 -8 29 -24 17 -24 19 -34
11 -57 -6 -15 -8 -29 -6 -32 3 -2 8 7 12 22 3 14 10 23 15 20 5 -3 7 -10 3
-15 -3 -5 -2 -9 3 -8 20 4 27 -2 13 -12 -13 -9 -13 -10 2 -6 20 7 53 -27 42
-44 -4 -8 -3 -10 5 -5 15 10 43 -13 34 -27 -3 -5 -2 -7 3 -4 5 3 21 -4 34 -15
14 -11 19 -16 11 -12 -9 5 -12 3 -7 -5 4 -6 11 -9 16 -6 5 3 23 -4 42 -14 18
-11 60 -27 93 -35 222 -58 462 60 661 327 76 102 190 319 250 475 19 50 30 69
36 60 6 -9 7 -6 4 8 -4 12 13 68 43 143 56 138 95 205 114 195 7 -4 9 -4 5 1
-11 11 53 80 71 78 9 -1 11 0 4 3 -8 3 9 32 46 78 31 40 68 89 80 109 13 21
27 34 33 31 6 -4 8 -2 5 3 -4 6 16 51 44 99 28 49 64 118 80 154 16 36 33 72
38 80 20 36 42 154 36 191 -5 31 -2 44 18 71 47 63 70 120 69 176 0 29 -5 59
-11 66 -12 14 30 36 136 71 64 20 92 55 100 125 5 46 8 50 32 50 25 -1 25 -1
7 -15 -11 -8 -15 -15 -9 -15 7 0 15 5 18 10 3 6 23 10 43 10 62 1 116 18 138
44 12 14 25 22 28 19 3 -4 -1 8 -10 26 -19 38 -52 53 -103 48 -118 -13 -267
39 -368 128 -149 131 -262 394 -281 655 -19 251 32 444 160 615 76 100 239
225 275 210 8 -2 12 -1 8 4 -8 14 141 60 235 72 100 13 193 6 310 -23 118 -29
278 -106 265 -128 -3 -5 0 -8 7 -5 18 7 152 -121 142 -136 -4 -7 -3 -9 4 -5 6
4 22 -10 36 -31 31 -44 32 -54 9 -47 -15 5 -15 4 -3 -4 8 -6 17 -9 22 -6 17
11 78 -146 99 -254 19 -99 7 -289 -25 -392 -38 -124 -84 -218 -97 -200 -8 12
-9 10 -5 -6 4 -14 -4 -35 -25 -65 -59 -82 -121 -149 -132 -142 -6 3 -7 1 -3
-5 4 -7 -24 -34 -67 -67 -41 -30 -79 -67 -86 -83 -7 -15 -9 -24 -5 -20 4 5 16
-6 26 -23 16 -27 24 -31 53 -27 33 4 35 2 41 -32 14 -85 36 -166 49 -186 9
-15 47 -33 112 -54 119 -40 193 -69 298 -122 98 -47 251 -151 248 -166 -2 -6
3 -9 10 -6 14 5 45 -23 46 -41 1 -5 7 -10 14 -10 6 -1 10 -7 9 -15 -2 -8 0
-12 4 -7 10 10 65 -43 57 -56 -3 -6 -1 -7 5 -3 12 7 76 -69 68 -82 -2 -4 0
-14 6 -22 8 -12 9 -11 4 5 -5 16 -3 16 13 -5 28 -34 76 -124 63 -116 -6 4 -8
-2 -5 -14 3 -11 11 -20 18 -20 16 0 78 -156 71 -177 -3 -8 -2 -12 3 -8 31 19
139 -653 144 -894 1 -49 5 -87 8 -85 3 1 18 -135 33 -303 14 -168 31 -314 37
-324 22 -42 103 -32 114 14 10 38 -45 668 -90 1042 -32 262 -48 360 -85 503
-58 225 -144 399 -271 553 -21 25 -36 49 -34 53 3 3 2 4 -2 1 -9 -7 -62 45
-59 59 2 6 1 8 -1 4 -3 -4 -43 24 -91 62 -47 39 -90 70 -94 70 -5 0 -6 5 -2
12 4 7 3 8 -5 4 -6 -4 -24 2 -39 12 -32 23 -236 126 -271 137 -19 6 -21 9 -10
17 10 7 8 8 -7 3 -12 -3 -29 -2 -39 2 -18 6 -18 7 1 15 15 7 14 7 -6 3 -34 -6
-159 35 -171 57 -5 9 -16 60 -25 113 l-17 96 33 34 c18 19 38 31 43 28 6 -3 7
-2 4 4 -3 5 11 31 33 57 21 26 49 62 60 81 12 20 27 32 32 29 6 -4 8 -3 5 3
-3 5 14 50 38 99 25 49 45 95 45 102 0 7 3 11 8 9 4 -3 7 5 8 16 1 12 8 49 17
82 39 143 40 347 2 490 -87 329 -361 589 -696 660 -89 19 -251 27 -334 16z"/>
<path d="M2240 4560 c-11 -11 -20 -25 -20 -31 0 -6 -13 -144 -30 -307 -42
-420 -47 -466 -72 -757 -12 -143 -25 -262 -28 -265 -9 -8 -5 -23 14 -52 23
-36 48 -43 85 -23 36 18 35 10 61 315 11 129 29 327 40 440 11 113 29 306 40
429 l21 224 -22 23 c-27 29 -62 31 -89 4z"/>
<path d="M7859 4511 c-20 -16 -23 -26 -20 -67 2 -27 4 -64 5 -81 1 -18 4 -33
7 -33 7 0 8 -9 50 -323 16 -125 29 -233 28 -240 -1 -6 0 -19 4 -27 3 -8 19
-141 37 -295 17 -154 33 -288 36 -297 8 -27 73 -41 101 -23 32 22 32 5 -2 305
-14 124 -28 248 -30 275 -3 28 -12 97 -21 155 -8 58 -13 118 -10 133 3 15 2
26 -3 23 -4 -3 -14 41 -21 97 -7 56 -23 165 -35 242 -19 115 -27 143 -45 157
-28 23 -52 23 -81 -1z"/>
</g>
</svg>
