<?xml version="1.0" standalone="no"?>
<!DOCTYPE svg PUBLIC "-//W3C//DTD SVG 20010904//EN"
 "http://www.w3.org/TR/2001/REC-SVG-20010904/DTD/svg10.dtd">
<svg version="1.0" xmlns="http://www.w3.org/2000/svg"
 width="1024.000000pt" height="1024.000000pt" viewBox="0 0 1024.000000 1024.000000"
 preserveAspectRatio="xMidYMid meet">
<metadata>
Created by potrace 1.16, written by Peter Selinger 2001-2019
</metadata>
<g transform="translate(0.000000,1024.000000) scale(0.100000,-0.100000)"
fill="#000000" stroke="none">
<path d="M2980 6910 c-54 -13 -126 -46 -178 -82 -26 -18 -50 -33 -54 -33 -3 0
-10 -4 -15 -9 -5 -5 -2 -6 7 -2 13 7 13 6 0 -6 -59 -52 -126 -189 -140 -286
-10 -74 -9 -162 3 -162 4 0 7 -8 7 -18 0 -34 67 -157 115 -210 26 -29 46 -54
44 -55 -61 -41 -92 -56 -101 -51 -6 4 -8 3 -4 -4 6 -10 -69 -77 -86 -77 -4 0
-8 -3 -8 -7 0 -4 -31 -45 -68 -92 -37 -46 -86 -120 -110 -165 -28 -52 -49 -81
-60 -81 -12 0 -14 -2 -4 -8 9 -6 6 -23 -14 -73 -128 -315 -132 -595 -9 -741
14 -16 22 -35 19 -40 -5 -7 -2 -8 5 -4 7 5 20 1 29 -7 23 -20 104 -44 100 -29
-1 4 3 17 10 29 16 30 3 60 -46 105 -47 41 -86 112 -79 139 3 11 1 17 -4 13
-15 -9 -10 185 6 256 66 280 206 532 366 658 33 26 94 65 135 88 89 49 84 44
94 89 5 20 6 34 3 31 -8 -7 -89 66 -85 77 1 5 -2 6 -7 3 -13 -8 -83 73 -75 86
4 6 3 8 -3 5 -16 -10 -50 79 -58 149 -5 42 -2 79 8 120 18 71 54 137 70 127 6
-3 7 -1 3 5 -9 15 84 104 102 97 7 -2 11 -1 7 4 -12 20 89 46 175 46 76 0 93
-4 152 -33 72 -35 163 -124 154 -149 -4 -9 -1 -11 6 -7 8 5 9 2 5 -10 -4 -9
-3 -15 2 -12 15 9 43 -75 47 -139 2 -33 -2 -80 -8 -105 -16 -64 -56 -142 -70
-134 -7 5 -8 3 -4 -5 11 -17 -63 -85 -126 -117 -27 -14 -53 -34 -55 -45 -3
-10 -10 -19 -16 -19 -5 0 4 -13 21 -30 37 -35 52 -36 107 -11 155 71 266 251
266 430 0 144 -41 246 -140 353 -115 125 -290 184 -441 148z"/>
<path d="M3193 5920 c-47 -19 -39 -62 27 -144 21 -28 36 -54 33 -59 -3 -6 -2
-7 4 -4 13 8 46 -50 37 -65 -4 -6 -3 -8 3 -5 12 8 76 -121 67 -135 -4 -7 -2
-8 4 -4 7 4 10 -3 9 -21 -1 -16 3 -28 10 -28 17 0 95 -134 86 -148 -3 -5 -1
-7 5 -3 10 6 49 -38 51 -59 1 -5 7 -10 14 -10 6 -1 11 -7 9 -14 -1 -7 1 -10 6
-7 4 2 28 -11 52 -30 24 -19 70 -49 102 -67 50 -27 59 -36 55 -55 -2 -12 0
-25 6 -29 5 -3 7 -1 3 5 -3 6 -2 13 4 17 12 7 14 -34 2 -51 -37 -57 -187 -32
-309 50 -21 14 -67 55 -103 90 -36 34 -73 66 -83 69 -24 9 -67 -34 -67 -68 0
-14 -4 -25 -9 -25 -5 0 -7 -9 -4 -20 3 -11 0 -42 -7 -68 -35 -133 -63 -228
-69 -232 -3 -3 -8 -14 -9 -25 -7 -40 -104 -262 -157 -360 -37 -69 -59 -100
-70 -98 -12 1 -15 -5 -12 -18 6 -23 -132 -235 -151 -232 -6 2 -9 -3 -7 -10 3
-6 -13 -35 -34 -62 -22 -28 -50 -62 -61 -78 -12 -15 -26 -24 -32 -21 -6 4 -8
2 -5 -3 4 -6 -2 -21 -12 -34 -10 -13 -24 -40 -31 -60 -12 -33 -11 -40 8 -71
12 -19 18 -39 14 -43 -4 -5 -2 -5 5 -2 6 4 13 4 15 -1 1 -4 18 -18 36 -31 19
-13 29 -27 26 -34 -4 -7 -4 -9 1 -5 11 10 45 -10 45 -27 0 -32 -155 -13 -327
41 l-112 34 15 42 c16 47 41 94 138 258 101 170 153 279 196 409 50 149 65
258 51 371 -25 199 -8 385 50 541 32 89 36 121 15 138 -14 12 -86 22 -84 12 1
-3 -4 -19 -11 -36 -21 -48 -61 -185 -75 -255 -25 -116 -28 -198 -15 -346 10
-111 10 -163 2 -222 -14 -93 -70 -275 -83 -267 -6 3 -7 0 -4 -8 6 -16 -89
-210 -117 -238 -10 -10 -18 -21 -16 -23 4 -9 -66 -116 -76 -116 -6 0 -8 -3 -4
-6 4 -5 -46 -117 -92 -204 -8 -16 -116 -25 -358 -32 -61 -2 -111 -5 -110 -8 1
-3 -4 -15 -11 -28 -14 -24 -8 -62 9 -62 6 0 8 -4 5 -9 -5 -7 418 -5 469 3 11
2 45 -7 75 -20 30 -13 105 -38 165 -56 95 -28 126 -32 225 -33 124 0 172 12
192 49 12 22 29 101 20 91 -6 -6 -47 56 -44 68 1 4 -1 6 -6 5 -12 -4 -112 85
-112 100 0 18 109 148 121 144 6 -1 8 2 5 7 -3 5 15 38 41 72 26 35 66 94 90
132 25 37 48 65 53 62 4 -3 6 5 3 17 -4 19 2 15 31 -17 24 -26 34 -46 30 -58
-4 -13 0 -20 15 -24 33 -9 148 -183 146 -221 -1 -17 2 -29 7 -26 5 3 6 14 3
25 -11 35 1 20 44 -51 23 -39 39 -76 35 -82 -4 -6 -3 -8 3 -5 9 6 79 -120 75
-136 -2 -5 1 -7 5 -5 5 2 26 -16 49 -39 31 -32 37 -43 25 -46 -9 -2 41 -3 111
-3 94 1 130 5 140 15 11 11 10 12 -9 2 -12 -6 -28 -11 -35 -10 -7 0 19 13 57
28 102 40 248 118 274 145 13 13 25 41 27 63 11 85 -60 131 -235 154 l-90 11
-21 45 c-11 24 -50 122 -86 216 -106 278 -185 429 -287 552 -23 27 -35 46 -27
42 10 -5 10 -4 -1 4 -14 11 -14 19 7 85 12 40 25 91 29 113 4 23 11 39 16 35
5 -3 6 -10 3 -16 -4 -7 -2 -8 5 -4 6 4 17 1 25 -7 48 -48 231 -137 282 -137
13 0 24 -4 24 -8 0 -13 109 4 151 23 42 19 71 54 88 108 27 82 -18 174 -114
228 -30 17 -53 35 -49 40 3 5 -1 6 -9 4 -19 -8 -120 74 -113 92 3 8 2 11 -3 8
-13 -7 -64 61 -56 75 4 6 1 9 -5 8 -6 -2 -48 69 -93 157 -93 181 -126 235
-179 294 -39 42 -48 46 -85 31z m88 -1343 c6 -9 7 -22 4 -27 -4 -6 -1 -9 7 -8
7 2 12 -5 12 -14 -1 -10 2 -15 7 -13 23 15 225 -478 213 -519 -4 -17 -3 -18 6
-6 9 13 11 12 8 -5 -2 -11 2 -25 10 -31 8 -5 15 -22 15 -36 1 -14 5 -24 9 -22
3 2 15 -12 27 -31 25 -43 43 -50 146 -59 44 -3 98 -11 120 -17 38 -11 38 -12
20 -26 -31 -24 -156 -80 -230 -102 -94 -29 -126 -28 -162 9 -38 39 -146 237
-137 252 4 6 3 8 -4 4 -6 -3 -38 36 -77 95 -37 56 -100 147 -141 201 -41 55
-74 106 -74 113 0 8 24 62 53 122 29 59 63 132 75 162 l22 54 31 -39 c17 -22
35 -47 40 -57z"/>
<path d="M8222 5380 c-18 -11 -35 -26 -38 -34 -8 -22 14 -55 40 -62 33 -8 102
13 126 38 25 27 25 33 -2 58 -28 26 -83 26 -126 0z"/>
<path d="M7936 5330 c-38 -7 -66 -31 -66 -55 0 -7 10 -20 21 -31 18 -16 35
-19 106 -17 46 2 93 7 103 13 31 17 35 49 9 76 -19 20 -31 24 -78 23 -31 -1
-74 -5 -95 -9z"/>
<path d="M7650 5304 c-100 -10 -170 -26 -170 -40 0 -9 -4 -12 -10 -9 -14 9
-13 -1 5 -34 20 -39 34 -42 139 -35 113 8 156 25 156 64 0 15 -6 32 -12 38
-17 13 -64 20 -108 16z"/>
<path d="M7187 5249 c-98 -11 -135 -51 -87 -94 18 -16 32 -17 122 -11 110 7
138 20 138 62 0 13 -10 30 -22 38 -24 17 -45 18 -151 5z"/>
<path d="M6765 5188 c-80 -15 -100 -48 -59 -97 l23 -28 98 18 c114 22 143 34
143 63 -1 43 -23 56 -91 55 -35 -1 -86 -6 -114 -11z"/>
<path d="M6485 5115 c-5 -2 -36 -11 -67 -20 -31 -10 -66 -28 -78 -40 -22 -23
-22 -24 -4 -54 24 -41 39 -40 207 11 48 15 65 49 42 84 -12 19 -24 24 -53 23
-20 0 -41 -2 -47 -4z"/>
<path d="M6145 4986 c-39 -17 -79 -55 -99 -95 -9 -17 -20 -29 -25 -27 -4 3 -8
-2 -8 -10 0 -27 74 -99 128 -126 79 -39 93 -41 119 -20 31 25 21 67 -22 90
-17 9 -42 26 -56 38 l-25 21 39 23 c47 29 54 37 54 72 0 45 -47 60 -105 34z"/>
<path d="M6425 4733 c-45 -11 -57 -42 -32 -77 24 -33 219 -60 245 -34 23 23
14 66 -15 82 -23 11 -163 39 -175 35 -2 -1 -12 -4 -23 -6z"/>
<path d="M6783 4658 c-13 -6 -25 -19 -28 -29 -13 -38 13 -58 117 -90 93 -29
104 -30 128 -18 18 11 25 23 25 44 0 36 -34 58 -136 85 -85 22 -77 22 -106 8z"/>
<path d="M7140 4520 c-11 -11 -20 -25 -20 -30 0 -14 46 -60 60 -60 6 0 9 -4 5
-9 -3 -5 0 -13 6 -17 8 -4 9 -3 5 4 -12 19 4 14 54 -18 50 -32 105 -37 108
-10 8 63 -10 88 -90 127 -21 10 -38 20 -38 23 0 3 -16 7 -35 8 -24 2 -41 -4
-55 -18z"/>
<path d="M7403 4293 c-24 -3 -45 -18 -79 -56 -65 -73 -71 -89 -48 -125 17 -26
22 -28 52 -20 22 6 47 27 78 66 37 47 44 62 39 87 -3 17 -6 36 -7 43 -1 6 -2
11 -2 10 -1 0 -16 -3 -33 -5z"/>
<path d="M7085 4080 c-11 -5 -44 -19 -73 -31 -68 -28 -82 -52 -51 -85 18 -19
31 -23 65 -21 23 1 40 4 38 6 -2 2 18 12 45 21 61 20 101 46 101 65 0 43 -72
68 -125 45z"/>
<path d="M6645 3970 c-44 -9 -88 -21 -97 -25 -39 -16 -29 -80 15 -89 36 -8 97
-12 91 -7 -3 3 23 11 57 18 76 15 109 36 109 68 0 29 -34 55 -70 54 -14 -1
-61 -9 -105 -19z"/>
<path d="M6172 3929 c-80 -6 -109 -23 -97 -58 13 -43 32 -51 118 -50 109 1
187 12 198 30 20 31 10 60 -26 75 -34 14 -51 14 -193 3z"/>
<path d="M5254 3912 c-57 -8 -69 -77 -19 -100 32 -15 249 -16 276 -2 24 13 27
75 3 84 -8 3 -13 9 -11 13 5 8 -204 11 -249 5z"/>
<path d="M5683 3906 c-17 -8 -33 -12 -36 -10 -2 2 -3 -10 -2 -27 3 -54 24 -64
138 -67 152 -3 207 25 170 88 -14 24 -19 25 -126 27 -79 2 -121 -1 -144 -11z"/>
<path d="M4875 3904 c-210 -19 -485 -56 -635 -85 -80 -16 -114 -56 -75 -89 8
-7 13 -15 11 -19 -8 -12 61 -10 133 4 173 36 566 85 680 85 82 0 96 14 89 85
-2 18 -10 20 -83 21 -44 1 -98 0 -120 -2z"/>
</g>
</svg>
