<?xml version="1.0" standalone="no"?>
<!DOCTYPE svg PUBLIC "-//W3C//DTD SVG 20010904//EN" "http://www.w3.org/TR/2001/REC-SVG-20010904/DTD/svg10.dtd">
<svg xmlns="http://www.w3.org/2000/svg" version="1.0" width="1024.000000pt" height="1024.000000pt" viewBox="0 0 1024.000000 1024.000000" preserveAspectRatio="xMidYMid meet">
<metadata>
Created by potrace 1.16, written by Peter Selinger 2001-2019
<meta name="Producer" content="Online-Convert"/></metadata>
<g transform="translate(0.000000,1024.000000) scale(0.100000,-0.100000)" fill="#000000" stroke="none">
<path d="M4180 6954 c-190 -34 -336 -89 -492 -187 -110 -69 -178 -122 -357 -275 -277 -238 -403 -315 -615 -376 -324 -94 -675 -17 -902 197 -72 68 -90 77 -112 55 -24 -24 -12 -56 46 -115 183 -188 476 -287 777 -262 313 25 529 136 895 458 265 234 454 344 686 397 58 14 118 18 224 18 125 0 160 -4 254 -28 214 -55 378 -153 597 -358 19 -18 103 -109 185 -203 230 -262 351 -375 526 -489 301 -196 676 -254 1010 -155 188 56 363 156 603 344 284 224 436 295 625 295 121 0 210 -16 327 -55 117 -40 139 -43 148 -15 11 35 -4 57 -58 80 -165 72 -407 100 -561 66 -97 -22 -191 -61 -281 -116 -69 -42 -101 -65 -331 -242 -136 -104 -255 -178 -354 -219 -303 -128 -657 -120 -947 20 -235 114 -380 238 -664 567 -223 259 -371 383 -575 484 -173 86 -277 111 -474 115 -85 2 -166 2 -180 -1z"/>
<path d="M3940 5831 c-93 -21 -165 -48 -272 -102 -113 -57 -200 -117 -428 -294 -233 -181 -316 -238 -435 -297 -171 -86 -286 -113 -470 -112 -111 0 -156 5 -219 22 -106 29 -211 82 -303 153 -79 62 -91 67 -111 47 -44 -44 62 -149 231 -228 218 -102 497 -117 730 -39 203 68 340 151 637 388 187 148 310 231 437 292 161 77 232 94 398 93 121 -1 152 -4 230 -28 225 -66 438 -204 915 -592 436 -354 672 -469 1002 -489 318 -20 598 67 1012 314 170 101 256 144 353 177 203 68 421 71 592 7 68 -25 188 -89 222 -118 35 -28 61 -32 79 -10 20 24 3 63 -43 96 -65 48 -188 106 -284 136 -80 24 -104 27 -253 27 -158 1 -170 0 -270 -31 -137 -41 -241 -90 -433 -202 -187 -110 -373 -201 -477 -235 -165 -53 -222 -61 -430 -60 -180 0 -203 2 -293 27 -229 63 -414 176 -767 467 -482 397 -716 538 -989 596 -90 19 -268 16 -361 -5z"/>
<path d="M3783 4695 c-185 -47 -358 -152 -634 -381 -307 -256 -408 -321 -584 -374 -203 -62 -427 -55 -583 17 -55 25 -145 88 -178 123 -40 43 -75 61 -97 49 -62 -35 48 -156 219 -242 166 -83 401 -104 597 -53 120 31 257 95 385 179 96 63 126 87 358 282 266 224 461 319 681 331 227 13 463 -66 729 -242 142 -94 206 -150 434 -376 113 -112 244 -233 292 -269 224 -167 465 -238 713 -210 208 23 414 108 725 296 251 152 312 186 420 235 190 86 318 114 505 112 250 -2 452 -73 645 -227 45 -36 86 -65 90 -65 13 0 40 30 40 45 0 45 -145 158 -295 230 -303 146 -618 151 -959 14 -110 -44 -288 -139 -433 -231 -232 -147 -417 -238 -583 -285 -127 -37 -332 -43 -454 -14 -213 51 -373 157 -641 427 -215 217 -325 312 -472 408 -330 216 -645 292 -920 221z"/>
</g>
</svg>
