<?xml version="1.0" encoding="UTF-8"?>
<svg version="1.1" xmlns="http://www.w3.org/2000/svg" width="1024" height="1024">
<path d="M0 0 C1.62018053 1.4668845 3.23862316 2.93569044 4.85546875 4.40625 C37.93907696 34.12462012 72.39704366 59.75846251 118.89453125 57.66796875 C144.97544467 56.0243263 166.95961568 45.1243123 188.58935547 31.29199219 C195.46250829 26.89953299 202.41968471 22.76140528 209.58203125 18.85546875 C211.06703125 18.04142578 211.06703125 18.04142578 212.58203125 17.2109375 C220.33608746 13.13799574 228.24690913 10.46373826 236.58203125 7.85546875 C237.58234375 7.50226563 238.58265625 7.1490625 239.61328125 6.78515625 C263.92151557 -0.82715923 292.16255592 4.0298263 315.03125 13.9140625 C316.58203125 14.85546875 316.58203125 14.85546875 317.58203125 16.85546875 C317.83203125 19.85546875 317.83203125 19.85546875 317.58203125 22.85546875 C314.58203125 24.85546875 314.58203125 24.85546875 311.28515625 24.62890625 C307.73301019 23.88700233 304.68732958 22.84407521 301.33203125 21.48046875 C277.99896227 12.91673598 252.71665549 14.39067621 229.5859375 22.76953125 C226.58203125 23.85546875 226.58203125 23.85546875 224.234375 24.37890625 C223.68910156 24.53617187 223.14382813 24.6934375 222.58203125 24.85546875 C222.25203125 25.51546875 221.92203125 26.17546875 221.58203125 26.85546875 C219.93009523 27.55784301 218.25937915 28.21615172 216.58203125 28.85546875 C214.3100961 29.97185068 212.0673432 31.10782719 209.83203125 32.29296875 C209.1771875 32.64004883 208.52234375 32.98712891 207.84765625 33.34472656 C202.91128283 36.0162582 198.2465434 38.9891089 193.58203125 42.10546875 C162.10214179 62.92133988 125.96613854 75.45380618 87.96875 67.70825195 C53.46170614 59.7597721 26.06032747 38.47835962 0.39453125 15.16796875 C-3.86390914 11.30679694 -8.24970622 7.63639574 -12.7265625 4.03125 C-14.40343499 2.6756361 -16.0653542 1.30104121 -17.703125 -0.1015625 C-42.55281952 -21.0298644 -74.78030643 -33.49622046 -107.41796875 -32.14453125 C-140.34398975 -29.16946072 -168.94417081 -11.9853918 -194.78857422 7.62792969 C-225.60622781 30.84506518 -259.55641938 46.76515512 -298.90576172 41.95703125 C-316.10506553 39.46140124 -334.08608821 32.15609711 -347.41796875 20.85546875 C-349.41796875 17.85546875 -349.41796875 17.85546875 -349.35546875 15.35546875 C-348.12462472 12.07321799 -346.50060875 11.35726773 -343.41796875 9.85546875 C-342.86109375 10.23058594 -342.30421875 10.60570312 -341.73046875 10.9921875 C-340.122222 12.07069081 -338.50992889 13.14317466 -336.89453125 14.2109375 C-335.44078096 15.17628272 -333.99432574 16.15309137 -332.56640625 17.15625 C-312.4084022 30.78732322 -286.23009086 33.28294706 -262.86328125 28.82421875 C-245.22559428 25.14938427 -229.05617794 17.18597606 -214.41796875 6.85546875 C-213.29862498 6.11386223 -212.17612565 5.37700014 -211.05078125 4.64453125 C-209.40722656 3.57332031 -209.40722656 3.57332031 -207.73046875 2.48046875 C-206.23966797 1.50980469 -206.23966797 1.50980469 -204.71875 0.51953125 C-202.32763824 -0.93965051 -202.32763824 -0.93965051 -201.41796875 -3.14453125 C-199.7605355 -4.10066174 -198.10019548 -5.05216847 -196.42431641 -5.97558594 C-192.9734552 -7.9861388 -189.82431187 -10.41203656 -186.60546875 -12.76953125 C-123.78682026 -57.8796998 -56.32108663 -49.95198152 0 0 Z " fill="#464746" transform="translate(530.41796875,401.14453125)"/>
<path d="M0 0 C39.96862982 -1.0615225 72.88594138 20.1017442 103.2578125 43.73046875 C111.35542603 50.02636327 119.62015443 56.0301088 128.06201172 61.85595703 C129.6168108 62.93266648 131.15968183 64.02657862 132.69921875 65.125 C163.00571601 85.79957678 201.05198883 93.06324383 236.9453125 87.16015625 C258.72120206 82.83608058 278.16275103 73.28403718 297.2578125 62.28515625 C318.03230995 50.33902055 338.00425193 39.91032238 361.9453125 36.16015625 C362.68523438 36.02996094 363.42515625 35.89976562 364.1875 35.765625 C381.02992205 33.14491618 397.1160638 36.7444287 412.9453125 42.16015625 C413.71488281 42.40636719 414.48445312 42.65257812 415.27734375 42.90625 C422.21886398 45.25906001 432.4515271 49.24645949 436.9453125 55.16015625 C437.1328125 58.34765625 437.1328125 58.34765625 436.9453125 61.16015625 C434.5859375 62.45703125 434.5859375 62.45703125 430.9453125 63.16015625 C427.31943363 61.99458535 424.04702108 60.20281973 420.6953125 58.41015625 C413.81986937 54.78835987 407.68122838 52.24143105 399.9453125 51.16015625 C399.9453125 50.50015625 399.9453125 49.84015625 399.9453125 49.16015625 C362.10101035 45.19347302 333.44245985 54.26187747 301.17041016 73.33007812 C261.38514467 96.8164815 220.38420892 108.22461985 174.45898438 96.52685547 C145.09299782 88.66727406 119.92977191 71.61905177 96.34741211 52.97265625 C66.8973531 29.7009086 33.34220056 8.43042912 -5.89453125 12.60546875 C-36.26585189 16.42041016 -60.40296084 30.60048592 -85.0546875 48.16015625 C-114.36385807 68.94886766 -147.2856814 83.96151883 -184.1171875 78.22265625 C-186.09697304 77.8719656 -188.07620784 77.51814083 -190.0546875 77.16015625 C-192.71857714 76.79286238 -195.38391655 76.4743646 -198.0546875 76.16015625 C-198.0546875 75.50015625 -198.0546875 74.84015625 -198.0546875 74.16015625 C-199.12203125 73.97453125 -199.12203125 73.97453125 -200.2109375 73.78515625 C-210.20002208 71.58975305 -220.596351 66.2022135 -228.0546875 59.16015625 C-228.98828125 55.9921875 -228.98828125 55.9921875 -229.0546875 53.16015625 C-227.9296875 51.28515625 -227.9296875 51.28515625 -226.0546875 50.16015625 C-223.03537423 49.81739615 -221.49694271 49.89274612 -218.87109375 51.48046875 C-218.12730469 52.07601562 -217.38351563 52.6715625 -216.6171875 53.28515625 C-203.90655445 62.60125822 -188.60569064 66.40100965 -173.0546875 67.16015625 C-172.26578125 67.21300781 -171.476875 67.26585937 -170.6640625 67.3203125 C-140.023311 68.42838999 -114.37480117 54.73381458 -90.09521484 37.59423828 C-66.58081716 21.06832634 -42.05487609 5.25264029 -13.0546875 1.16015625 C-12.18070313 1.03125 -11.30671875 0.90234375 -10.40625 0.76953125 C-6.94204769 0.34351284 -3.48428646 0.18267998 0 0 Z " fill="#464646" transform="translate(410.0546875,450.83984375)"/>
<path d="M0 0 C1.75030047 1.17622444 3.50166846 2.35084725 5.25312805 3.52534485 C7.57652404 5.08348798 9.89503754 6.64853177 12.21064758 8.21821594 C28.23461458 19.02391367 45.01574434 28.58611017 63.58052063 34.23994446 C64.35927551 34.47858215 65.1380304 34.71721985 65.94038391 34.96308899 C77.6233418 38.32994266 89.27427674 39.2558255 101.39302063 39.23994446 C102.06761322 39.23973297 102.74220581 39.23952148 103.4372406 39.23930359 C115.11364329 39.20296927 126.05892327 37.98790079 137.33052063 34.86494446 C138.00470032 34.6883429 138.67888 34.51174133 139.37348938 34.32978821 C156.58762632 29.76415267 172.59623344 22.00217305 188.10298157 13.38716125 C212.99066245 -0.41175323 239.5257214 -11.85127619 268.33052063 -13.13505554 C269.1735675 -13.17630554 270.01661438 -13.21755554 270.88520813 -13.26005554 C298.18824702 -13.92395922 329.96767466 -5.51849026 350.68598938 12.96650696 C352.33052063 14.86494446 352.33052063 14.86494446 352.70552063 17.48994446 C352.33052063 19.86494446 352.33052063 19.86494446 350.33052063 21.86494446 C345.81576439 22.20568078 342.319357 22.0693014 338.33052063 19.86494446 C337.6060675 19.09537415 336.88161438 18.32580383 336.13520813 17.53291321 C333.0489779 14.59712595 329.86918149 12.71454893 326.08052063 10.86494446 C325.03976379 10.35230042 325.03976379 10.35230042 323.97798157 9.82929993 C312.78216498 4.51241616 300.63025507 1.2816678 288.33052063 -0.13505554 C287.24255188 -0.26911804 286.15458313 -0.40318054 285.03364563 -0.54130554 C253.81407204 -3.54056589 225.19451278 6.79499164 198.15327454 21.34785461 C158.06559032 42.89299125 112.71965433 60.79455033 66.60639954 47.5539093 C65.47983948 47.2128717 65.47983948 47.2128717 64.33052063 46.86494446 C63.50600403 46.61825012 62.68148743 46.37155579 61.83198547 46.11738586 C37.35388498 38.58103627 16.57879914 25.23004419 -4.45854187 10.93525696 C-39.05296579 -12.51318085 -74.24803154 -30.60168649 -117.47563171 -23.10990906 C-140.21137408 -18.32512017 -160.09418278 -6.58649631 -179.26786804 6.03413391 C-187.23762503 11.27472375 -195.3134027 16.26232145 -203.66947937 20.86494446 C-204.2696991 21.19720032 -204.86991882 21.52945618 -205.48832703 21.8717804 C-229.38929825 34.80517773 -259.83827113 39.11121376 -286.07182312 31.64228821 C-307.98967282 25.02592277 -307.98967282 25.02592277 -313.66947937 15.86494446 C-313.60697937 13.23994446 -313.60697937 13.23994446 -312.66947937 10.86494446 C-310.83744812 9.61885071 -310.83744812 9.61885071 -308.66947937 8.86494446 C-305.85114388 10.07974424 -303.32642305 11.35918955 -300.66947937 12.86494446 C-279.46068775 24.4300804 -255.18088238 25.79167333 -231.9954071 19.44477844 C-216.52224941 14.84601114 -201.96256599 7.22864331 -188.64604187 -1.79814148 C-168.987637 -15.09476019 -148.8335679 -27.16701527 -125.66947937 -33.13505554 C-123.929245 -33.59138367 -123.929245 -33.59138367 -122.15385437 -34.05693054 C-76.94912325 -45.2004224 -36.50365368 -24.53566262 0 0 Z " fill="#464746" transform="translate(494.6694793701172,571.1350555419922)"/>
<path d="M0 0 C1.30001953 -0.01224609 2.60003906 -0.02449219 3.93945312 -0.03710938 C5.80827148 -0.04000977 5.80827148 -0.04000977 7.71484375 -0.04296875 C8.83882568 -0.04707764 9.96280762 -0.05118652 11.12084961 -0.05541992 C13.9888483 0.18141788 15.63661034 0.6962077 18.0625 2.1875 C16.76699219 2.15269531 15.47148438 2.11789062 14.13671875 2.08203125 C-2.66458927 1.76830066 -18.08619481 3.36101184 -33.93359375 9.1015625 C-36.27158973 9.94676781 -38.51553748 10.65193089 -40.9375 11.1875 C-40.6075 10.1975 -40.2775 9.2075 -39.9375 8.1875 C-37.28515625 6.87109375 -37.28515625 6.87109375 -34 5.625 C-29.57362705 4.02146312 -29.57362705 4.02146312 -25.9375 1.1875 C-17.52033468 -0.46426354 -8.53640255 0.00432223 0 0 Z " fill="#757574" transform="translate(793.9375,414.8125)"/>
<path d="M0 0 C0 0.66 0 1.32 0 2 C0.66 2.33 1.32 2.66 2 3 C-2.05655269 2.57299445 -6.09583638 2.13771281 -10.12890625 1.5234375 C-21.71711429 -0.21155678 -33.30028598 -0.62490165 -45 -1 C-45 -1.33 -45 -1.66 -45 -2 C-29.74492042 -4.16681543 -15.01561405 -3.26764658 0 0 Z " fill="#656666" transform="translate(825,408)"/>
<path d="M0 0 C8.98837025 1.28170545 16.85360164 7.54466804 23.671875 13.2265625 C25.45839527 15.6120925 25.39570836 17.08871705 25 20 C23 22 23 22 19.375 22.125 C18.26125 22.08375 17.1475 22.0425 16 22 C15.67 21.34 15.34 20.68 15 20 C17.31 20.33 19.62 20.66 22 21 C19.12522269 13.75056156 15.66592665 10.85469792 9 7 C8.01 6.34 7.02 5.68 6 5 C6 4.34 6 3.68 6 3 C4.02 2.34 2.04 1.68 0 1 C0 0.67 0 0.34 0 0 Z " fill="#515151" transform="translate(822,571)"/>
<path d="M0 0 C4.02017255 -0.02485364 8.04031488 -0.04293238 12.06054688 -0.05493164 C13.4261147 -0.05993786 14.79167724 -0.06674482 16.15722656 -0.07543945 C18.12823118 -0.08766831 20.0992761 -0.09272866 22.0703125 -0.09765625 C23.84559326 -0.10551147 23.84559326 -0.10551147 25.65673828 -0.11352539 C28.86153532 -0.00470177 31.85476612 0.39482517 35 1 C34.67 1.66 34.34 2.32 34 3 C22.47854499 3.21242223 11.33373096 3.35506098 0 1 C0 0.67 0 0.34 0 0 Z " fill="#6C6B6A" transform="translate(213,603)"/>
<path d="M0 0 C5.17696998 1.94388172 10.0218875 4.48397671 14.94140625 6.99023438 C19.23550648 9.1618222 23.55741631 11.14989008 28 13 C26.30493164 14.11352539 26.30493164 14.11352539 24 15 C21.66577148 14.38842773 21.66577148 14.38842773 19.12109375 13.18359375 C17.73954102 12.53100586 17.73954102 12.53100586 16.33007812 11.86523438 C15.37552734 11.39408203 14.42097656 10.92292969 13.4375 10.4375 C12.47908203 9.99341797 11.52066406 9.54933594 10.53320312 9.09179688 C5.45830844 6.64147982 2.6576125 5.14214859 0 0 Z " fill="#595959" transform="translate(545,518)"/>
<path d="M0 0 C11.22 0.33 22.44 0.66 34 1 C31 4 31 4 28.70336914 4.37231445 C27.82285889 4.3693335 26.94234863 4.36635254 26.03515625 4.36328125 C25.07029297 4.36263672 24.10542969 4.36199219 23.11132812 4.36132812 C22.10521484 4.34521484 21.09910156 4.32910156 20.0625 4.3125 C18.55913086 4.31733398 18.55913086 4.31733398 17.02539062 4.32226562 C9.11283892 4.26420154 9.11283892 4.26420154 5 2 C3.34259285 1.62331656 1.67654729 1.27942455 0 1 C0 0.67 0 0.34 0 0 Z " fill="#5A5B5B" transform="translate(218,594)"/>
<path d="M0 0 C2.66353755 0.51520982 5.29499131 0.72949913 8 1 C8 1.33 8 1.66 8 2 C6.8140625 1.98839844 5.628125 1.97679687 4.40625 1.96484375 C-6.11287596 1.89497099 -16.51023298 2.18975593 -27 3 C-26.01 2.67 -25.02 2.34 -24 2 C-24 1.34 -24 0.68 -24 0 C-16.53599119 -2.7773056 -7.15658469 -3.9144576 0 0 Z " fill="#6C6B6B" transform="translate(420,461)"/>
<path d="M0 0 C-11.30454562 7.53636375 -29.08251998 5.33108683 -42 5 C-42 4.67 -42 4.34 -42 4 C-33.42 3.67 -24.84 3.34 -16 3 C-16 2.34 -16 1.68 -16 1 C-10.63904667 -0.12862175 -5.44693314 -0.09688221 0 0 Z " fill="#2A2B2A" transform="translate(674,457)"/>
<path d="M0 0 C3.875 1.875 3.875 1.875 5 3 C5.04080783 4.99958364 5.04254356 7.00045254 5 9 C-0.29230769 11.21538462 -0.29230769 11.21538462 -3.875 10.125 C-4.57625 9.75375 -5.2775 9.3825 -6 9 C-5.34 8.01 -4.68 7.02 -4 6 C-3.34 6 -2.68 6 -2 6 C-1.34 4.02 -0.68 2.04 0 0 Z " fill="#575757" transform="translate(842,503)"/>
<path d="M0 0 C0.90234375 0.0721875 1.8046875 0.144375 2.734375 0.21875 C16.81381667 1.23857786 30.89130486 1.097322 45 1 C45 1.33 45 1.66 45 2 C40.37817094 3.17064733 35.9306328 3.12797691 31.19921875 3.09765625 C30.36284378 3.0962413 29.52646881 3.09482635 28.66474915 3.09336853 C26.005629 3.08779184 23.3465945 3.07524365 20.6875 3.0625 C18.87955851 3.05748199 17.0716157 3.05291961 15.26367188 3.04882812 C10.84241516 3.03783004 6.42122207 3.0205815 2 3 C2 2.34 2 1.68 2 1 C1.34 0.67 0.68 0.34 0 0 Z " fill="#252524" transform="translate(618,466)"/>
<path d="M0 0 C3.3 0.99 6.6 1.98 10 3 C9.34 3.66 8.68 4.32 8 5 C8.33 5.66 8.66 6.32 9 7 C8.67 7.66 8.34 8.32 8 9 C6.6078125 8.7215625 6.6078125 8.7215625 5.1875 8.4375 C1.98656229 7.75876119 1.98656229 7.75876119 -1 9 C-1.99 8.01 -2.98 7.02 -4 6 C-3.01 6 -2.02 6 -1 6 C-0.67 4.02 -0.34 2.04 0 0 Z " fill="#323232" transform="translate(208,426)"/>
<path d="M0 0 C4.02992782 0.55312735 8.02022924 1.1558062 12 2 C12 2.99 12 3.98 12 5 C11.01 5.33 10.02 5.66 9 6 C8.34 6.66 7.68 7.32 7 8 C4.08482708 6.92598892 2.22189824 6.22189824 0 4 C0 2.68 0 1.36 0 0 Z " fill="#3F3F3E" transform="translate(184,415)"/>
<path d="M0 0 C2.31 1.65 4.62 3.3 7 5 C6.01 5.66 5.02 6.32 4 7 C4 6.34 4 5.68 4 5 C1.69 4.67 -0.62 4.34 -3 4 C-1.80100302 7.0831351 -0.52299523 10.06279492 1 13 C-2.65316671 11.75023244 -3.78065836 11.32901247 -6 8 C-5.9375 5.5 -5.9375 5.5 -5 3 C-2.4375 1.1875 -2.4375 1.1875 0 0 Z " fill="#595959" transform="translate(187,411)"/>
<path d="M0 0 C-0.99 0 -1.98 0 -3 0 C-3 0.66 -3 1.32 -3 2 C-4.72744016 2.65043719 -6.4570369 3.29514844 -8.1875 3.9375 C-9.15042969 4.29714844 -10.11335938 4.65679687 -11.10546875 5.02734375 C-13.74174441 5.91321776 -16.27174172 6.49103081 -19 7 C-22.11785113 7.64644661 -22.11785113 7.64644661 -23 10 C-23.66 9.67 -24.32 9.34 -25 9 C-25.33 9.66 -25.66 10.32 -26 11 C-26.66 10.34 -27.32 9.68 -28 9 C-5.24455087 -1.85315539 -5.24455087 -1.85315539 0 0 Z " fill="#6B6C6B" transform="translate(399,363)"/>
<path d="M0 0 C0 0.66 0 1.32 0 2 C9.66079456 2.77749545 19.32601916 3.41633235 29 4 C29 4.33 29 4.66 29 5 C18.74493421 5.22106729 9.12913636 4.8327581 -1 3 C-3.66388964 2.63270613 -6.32922905 2.31420835 -9 2 C-9 1.34 -9 0.68 -9 0 C-5.93109813 -1.53445094 -3.29905734 -0.54984289 0 0 Z " fill="#8C8C8C" transform="translate(221,525)"/>
<path d="M0 0 C0.04254356 1.99954746 0.04080783 4.00041636 0 6 C-0.33 6.33 -0.66 6.66 -1 7 C-2.8125 6.94921875 -2.8125 6.94921875 -5 6.6875 C-5.721875 6.60886719 -6.44375 6.53023438 -7.1875 6.44921875 C-7.785625 6.30097656 -8.38375 6.15273438 -9 6 C-9.33 5.34 -9.66 4.68 -10 4 C-7.69 4.33 -5.38 4.66 -3 5 C-5.475 4.01 -5.475 4.01 -8 3 C-8 2.01 -8 1.02 -8 0 C-5.13822943 -1.43088528 -3.06624227 -0.59991697 0 0 Z " fill="#3F4040" transform="translate(848,418)"/>
<path d="M0 0 C-1 2 -1 2 -3.94921875 3.0703125 C-5.79966797 3.59238281 -5.79966797 3.59238281 -7.6875 4.125 C-9.51861328 4.65480469 -9.51861328 4.65480469 -11.38671875 5.1953125 C-14.7389502 5.9418635 -17.58359319 6.1574381 -21 6 C-18.31229852 2.45712077 -14.61003195 1.78337946 -10.5 0.75 C-9.82324219 0.564375 -9.14648438 0.37875 -8.44921875 0.1875 C-5.10849056 -0.68227539 -3.33990261 -1.11330087 0 0 Z " fill="#585958" transform="translate(669,543)"/>
<path d="M0 0 C-5.95351493 3.1115078 -10.78884146 3.3741794 -17.4375 3.1875 C-18.35982422 3.17396484 -19.28214844 3.16042969 -20.23242188 3.14648438 C-22.48890383 3.11140953 -24.74413226 3.06226387 -27 3 C-27 2.67 -27 2.34 -27 2 C-22.38 2 -17.76 2 -13 2 C-13 1.34 -13 0.68 -13 0 C-11.58456585 -0.19658808 -10.16755969 -0.38187546 -8.75 -0.5625 C-7.96109375 -0.66691406 -7.1721875 -0.77132812 -6.359375 -0.87890625 C-3.99467126 -1.00027349 -2.2488963 -0.69633257 0 0 Z " fill="#4E4E4D" transform="translate(267,526)"/>
<path d="M0 0 C4.22936877 2.3974388 7.99276867 5.20240339 11.8125 8.1875 C12.40998047 8.65091797 13.00746094 9.11433594 13.62304688 9.59179688 C15.08392019 10.72543456 16.54222515 11.86238068 18 13 C12.18041306 13 6.94377019 8.86738671 2 6 C2 5.01 2 4.02 2 3 C1.34 2.67 0.68 2.34 0 2 C0 1.34 0 0.68 0 0 Z " fill="#636262" transform="translate(505,489)"/>
<path d="M0 0 C6.04808425 1.63461737 11.80226844 4.52008773 17 8 C17.33 8.99 17.66 9.98 18 11 C13.85967154 9.45614871 10.06446947 7.48971062 6.1875 5.375 C5.59001953 5.05015625 4.99253906 4.7253125 4.37695312 4.390625 C2.91662865 3.59620849 1.45812509 2.79844624 0 2 C0 1.34 0 0.68 0 0 Z " fill="#535353" transform="translate(456,469)"/>
<path d="M0 0 C0.78697266 0.16435547 0.78697266 0.16435547 1.58984375 0.33203125 C10.02940695 2.05926299 18.51385384 3.52329243 27 5 C27 5.33 27 5.66 27 6 C24.47886908 6.05447822 21.9589415 6.09389852 19.4375 6.125 C18.73302734 6.14175781 18.02855469 6.15851563 17.30273438 6.17578125 C11.49040202 6.22935113 6.11109649 5.8404431 1.5625 1.875 C1.046875 1.25625 0.53125 0.6375 0 0 Z " fill="#727473" transform="translate(213,427)"/>
<path d="M0 0 C-3.28447423 2.67922713 -6.73077743 4.45401627 -10.5625 6.25 C-11.69816406 6.79140625 -12.83382812 7.3328125 -14.00390625 7.890625 C-17 9 -17 9 -20 8 C-18.68 7.67 -17.36 7.34 -16 7 C-16 6.34 -16 5.68 -16 5 C-14.27656245 4.15488176 -12.54595947 3.32436646 -10.8125 2.5 C-9.36810547 1.80390625 -9.36810547 1.80390625 -7.89453125 1.09375 C-5.01077307 0.00407079 -3.04645139 -0.22277524 0 0 Z " fill="#5E5E5E" transform="translate(694,533)"/>
<path d="M0 0 C4.36574794 0.59018444 7.47717081 2.2026098 11.25 4.4375 C12.30703125 5.05496094 13.3640625 5.67242188 14.453125 6.30859375 C17 8 17 8 18 10 C13.24518354 9.42365861 10.02951788 7.44931479 6 5 C6 4.34 6 3.68 6 3 C4.02 2.34 2.04 1.68 0 1 C0 0.67 0 0.34 0 0 Z " fill="#696969" transform="translate(822,571)"/>
<path d="M0 0 C5.15464734 0.48324819 8.81550319 3.18610761 13 6 C12.01 6.66 11.02 7.32 10 8 C5.69040431 6.69172988 3.70907179 5.98355119 1.0625 2.3125 C0.5365625 1.1678125 0.5365625 1.1678125 0 0 Z " fill="#4F4F4F" transform="translate(477,562)"/>
<path d="M0 0 C-3.72925783 3.2428329 -8.30238735 5.5119901 -13 7 C-13.99 6.67 -14.98 6.34 -16 6 C-14.61769577 3.23539154 -13.08867771 3.00879139 -10.25 1.875 C-9.38890625 1.52179687 -8.5278125 1.16859375 -7.640625 0.8046875 C-4.94136502 -0.01786806 -2.80298055 -0.15123996 0 0 Z " fill="#606060" transform="translate(289,592)"/>
<path d="M0 0 C1.27230469 0.00902344 2.54460937 0.01804687 3.85546875 0.02734375 C5.31919922 0.04474609 5.31919922 0.04474609 6.8125 0.0625 C6.8125 0.3925 6.8125 0.7225 6.8125 1.0625 C4.58478658 1.56893553 2.35525924 2.0673962 0.125 2.5625 C-1.73705078 2.98015625 -1.73705078 2.98015625 -3.63671875 3.40625 C-6.61148218 3.95604126 -9.18118602 4.20045705 -12.1875 4.0625 C-8.93601091 -0.81473363 -5.49420143 -0.05040552 0 0 Z " fill="#383938" transform="translate(379.1875,536.9375)"/>
<path d="M0 0 C1.051875 0.2475 2.10375 0.495 3.1875 0.75 C0.85344735 3.08405265 -1.31701742 4.06194287 -4.3125 5.4375 C-5.2921875 5.89511719 -6.271875 6.35273438 -7.28125 6.82421875 C-8.1165625 7.12972656 -8.951875 7.43523437 -9.8125 7.75 C-10.4725 7.42 -11.1325 7.09 -11.8125 6.75 C-10.83846117 5.72469597 -9.8298873 4.73230498 -8.8125 3.75 C-8.07 3.0075 -7.3275 2.265 -6.5625 1.5 C-3.8125 -0.25 -3.8125 -0.25 0 0 Z " fill="#575757" transform="translate(371.8125,468.25)"/>
<path d="M0 0 C0 0.33 0 0.66 0 1 C-1.65 1.33 -3.3 1.66 -5 2 C-5 2.99 -5 3.98 -5 5 C-5.7425 4.979375 -6.485 4.95875 -7.25 4.9375 C-9.70462279 4.99328688 -11.66109261 5.3069904 -14 6 C-14.66 5.01 -15.32 4.02 -16 3 C-10.47239641 0.89424625 -5.93002267 -0.37851209 0 0 Z " fill="#6C6C6C" transform="translate(780,407)"/>
<path d="M0 0 C-3.11963179 1.36678479 -6.24646237 2.71623991 -9.375 4.0625 C-10.26445312 4.45244141 -11.15390625 4.84238281 -12.0703125 5.24414062 C-12.92109375 5.60830078 -13.771875 5.97246094 -14.6484375 6.34765625 C-15.43395996 6.68804932 -16.21948242 7.02844238 -17.02880859 7.37915039 C-19 8 -19 8 -21 7 C-18.00664155 3.25830194 -15.4609699 2.3689335 -10.95703125 1.44140625 C-8.81996242 1.02271087 -8.81996242 1.02271087 -6.25 -0.1875 C-3.63628776 -1.13134053 -2.59793893 -0.76955754 0 0 Z " fill="#797979" transform="translate(363,552)"/>
<path d="M0 0 C5.13134625 0.51313463 9.74837792 2.05734987 14 5 C14.33 5.99 14.66 6.98 15 8 C9.29052772 6.69157927 4.71410524 4.51415118 0 1 C0 0.67 0 0.34 0 0 Z " fill="#575756" transform="translate(520,600)"/>
<path d="M0 0 C-2.2863012 1.36402043 -4.57821749 2.71634274 -6.875 4.0625 C-7.85146484 4.64741211 -7.85146484 4.64741211 -8.84765625 5.24414062 C-10.53065725 6.22444533 -12.26296199 7.11898432 -14 8 C-14.66 7.67 -15.32 7.34 -16 7 C-13.74955401 4.55542608 -11.44198707 2.90097066 -8.5625 1.25 C-7.41974609 0.57710937 -7.41974609 0.57710937 -6.25390625 -0.109375 C-3.66585264 -1.13203743 -2.56366999 -0.95772637 0 0 Z " fill="#595858" transform="translate(715,522)"/>
<path d="M0 0 C-1.57789598 1.15330947 -3.1625482 2.29737927 -4.75 3.4375 C-5.63171875 4.07558594 -6.5134375 4.71367187 -7.421875 5.37109375 C-9.72699125 6.8275081 -11.34349572 7.55931821 -14 8 C-12.61220551 4.65927822 -11.18411804 3.09800579 -8.125 1.1875 C-7.44695313 0.74792969 -6.76890625 0.30835938 -6.0703125 -0.14453125 C-3.59237953 -1.16843185 -2.47510086 -0.90457722 0 0 Z " fill="#5A5B5A" transform="translate(727,441)"/>
<path d="M0 0 C3.54243452 1.36591169 6.92627929 2.90931484 10.3125 4.625 C11.63701172 5.29402344 11.63701172 5.29402344 12.98828125 5.9765625 C13.65214844 6.31429687 14.31601562 6.65203125 15 7 C13.32421875 8.16796875 13.32421875 8.16796875 11 9 C8.45703125 7.98828125 8.45703125 7.98828125 5.8125 6.3125 C4.93207031 5.77238281 4.05164063 5.23226562 3.14453125 4.67578125 C1 3 1 3 0 0 Z " fill="#535453" transform="translate(520,589)"/>
<path d="M0 0 C0.66 0.66 1.32 1.32 2 2 C-0.97 2.66 -3.94 3.32 -7 4 C-7 3.67 -7 3.34 -7 3 C-9.31 2.67 -11.62 2.34 -14 2 C-14 1.67 -14 1.34 -14 1 C-12.23103898 0.63659714 -10.45973374 0.28459117 -8.6875 -0.0625 C-7.70136719 -0.25972656 -6.71523438 -0.45695313 -5.69921875 -0.66015625 C-3 -1 -3 -1 0 0 Z " fill="#626263" transform="translate(272,516)"/>
<path d="M0 0 C0.66 0.33 1.32 0.66 2 1 C0.66666667 2.33333333 -0.66666667 3.66666667 -2 5 C-2.639375 5.763125 -3.27875 6.52625 -3.9375 7.3125 C-6 9 -6 9 -8.75 8.75 C-9.4925 8.5025 -10.235 8.255 -11 8 C-8.83385197 5.69125289 -6.60793392 3.94709819 -3.9375 2.25 C-2.89916016 1.57710938 -2.89916016 1.57710938 -1.83984375 0.890625 C-1.23269531 0.59671875 -0.62554688 0.3028125 0 0 Z " fill="#6A6B6B" transform="translate(734,423)"/>
<path d="M0 0 C5.4185766 -0.22577402 9.77487721 0.53329887 15 2 C15 2.33 15 2.66 15 3 C10.915021 3.54466387 7.1274515 4 3 4 C3 3.34 3 2.68 3 2 C2.01 1.34 1.02 0.68 0 0 Z " fill="#6B6B6B" transform="translate(785,560)"/>
<path d="M0 0 C2.625 0.375 2.625 0.375 5 1 C5.33 1.99 5.66 2.98 6 4 C6.66 4 7.32 4 8 4 C8.33 4.99 8.66 5.98 9 7 C7.53932801 6.54917531 6.08151968 6.08906463 4.625 5.625 C3.81289063 5.36976563 3.00078125 5.11453125 2.1640625 4.8515625 C0 4 0 4 -2 2 C-1.34 1.34 -0.68 0.68 0 0 Z " fill="#5A5A5A" transform="translate(445,552)"/>
<path d="M0 0 C0.66 0.33 1.32 0.66 2 1 C1.67 2.32 1.34 3.64 1 5 C-0.28745036 5.38922918 -1.58019597 5.76098036 -2.875 6.125 C-3.95394531 6.43824219 -3.95394531 6.43824219 -5.0546875 6.7578125 C-5.69664062 6.83773438 -6.33859375 6.91765625 -7 7 C-7.66 6.34 -8.32 5.68 -9 5 C-7.54735962 4.1361871 -6.0876837 3.28419546 -4.625 2.4375 C-3.40683594 1.72400391 -3.40683594 1.72400391 -2.1640625 0.99609375 C-1.44992187 0.66738281 -0.73578125 0.33867187 0 0 Z " fill="#50504F" transform="translate(727,502)"/>
<path d="M0 0 C-6.625 3 -6.625 3 -10 3 C-9.67 3.99 -9.34 4.98 -9 6 C-12.3 5.67 -15.6 5.34 -19 5 C-15.44555679 3.22277839 -12.15429202 1.99406195 -8.375 0.8125 C-7.22773438 0.44769531 -6.08046875 0.08289063 -4.8984375 -0.29296875 C-2 -1 -2 -1 0 0 Z " fill="#787979" transform="translate(287,426)"/>
<path d="M0 0 C-5.02649303 1.57077907 -9.76119922 2.44854729 -15 3 C-14.34 2.67 -13.68 2.34 -13 2 C-13 1.34 -13 0.68 -13 0 C-11.58800422 -0.39222105 -10.17007236 -0.76311059 -8.75 -1.125 C-7.96109375 -1.33382813 -7.1721875 -1.54265625 -6.359375 -1.7578125 C-3.5796929 -2.04314411 -2.34112451 -1.44977894 0 0 Z " fill="#5F5F5F" transform="translate(783,417)"/>
<path d="M0 0 C0.66 0.33 1.32 0.66 2 1 C-1.4005122 5.28760234 -5.74090992 6.96367838 -11 8 C-11.99 7.67 -12.98 7.34 -14 7 C-11.71296692 5.80274117 -9.42115138 4.61702982 -7.125 3.4375 C-6.14853516 2.92413086 -6.14853516 2.92413086 -5.15234375 2.40039062 C-3.46470143 1.53917109 -1.73420407 0.76313297 0 0 Z " fill="#727271" transform="translate(292,578)"/>
<path d="M0 0 C3.93673644 1.31224548 6.22719294 2.91910327 9 6 C8.67 6.66 8.34 7.32 8 8 C6.68 8.33 5.36 8.66 4 9 C2.68 6.03 1.36 3.06 0 0 Z " fill="#555454" transform="translate(500,576)"/>
<path d="M0 0 C-3.46747828 2.77398263 -7.06402511 4.95912413 -11 7 C-11.66 6.67 -12.32 6.34 -13 6 C-9.41603189 2.00249711 -5.50726745 -1.83575582 0 0 Z " fill="#585858" transform="translate(733,511)"/>
<path d="M0 0 C0.66 0.33 1.32 0.66 2 1 C2 1.66 2 2.32 2 3 C0.390625 4.32421875 0.390625 4.32421875 -1.75 5.6875 C-2.44609375 6.14511719 -3.1421875 6.60273438 -3.859375 7.07421875 C-6 8 -6 8 -10 7 C-6.7 4.69 -3.4 2.38 0 0 Z " fill="#5D5D5C" transform="translate(316,491)"/>
<path d="M0 0 C-3.55991828 2.96659857 -7.65222543 5.381348 -12 7 C-12.66 6.67 -13.32 6.34 -14 6 C-10.27760272 1.65720317 -5.71590529 -0.50434458 0 0 Z " fill="#636363" transform="translate(683,597)"/>
<path d="M0 0 C1.4391134 0.28359887 2.87625518 0.57721399 4.3125 0.875 C5.11300781 1.03742187 5.91351563 1.19984375 6.73828125 1.3671875 C9 2 9 2 12 4 C12.33 4.66 12.66 5.32 13 6 C3.40546697 4.44191344 3.40546697 4.44191344 0 0 Z " fill="#565656" transform="translate(430,548)"/>
<path d="M0 0 C0 0.33 0 0.66 0 1 C-1.93475671 1.53093324 -3.87293155 2.04942317 -5.8125 2.5625 C-7.43091797 2.99755859 -7.43091797 2.99755859 -9.08203125 3.44140625 C-12 4 -12 4 -15 3 C-14 1 -14 1 -10.875 -0.1875 C-6.83529318 -1.0345353 -4.01376904 -0.81913654 0 0 Z " fill="#686867" transform="translate(393,464)"/>
<path d="M0 0 C1.81618856 1.11903546 3.62785526 2.24541284 5.4375 3.375 C6.44683594 4.00148438 7.45617187 4.62796875 8.49609375 5.2734375 C11 7 11 7 12 9 C5.25 7.125 5.25 7.125 3 6 C3 5.34 3 4.68 3 4 C2.01 3.67 1.02 3.34 0 3 C0 2.01 0 1.02 0 0 Z " fill="#575757" transform="translate(562,429)"/>
<path d="M0 0 C0 1.32 0 2.64 0 4 C-3.375 4.625 -3.375 4.625 -7 5 C-7.66 4.34 -8.32 3.68 -9 3 C-3.375 0 -3.375 0 0 0 Z " fill="#535354" transform="translate(696,579)"/>
<path d="M0 0 C-0.66 0 -1.32 0 -2 0 C-2 0.66 -2 1.32 -2 2 C-3.28650706 2.69710731 -4.57940665 3.38242876 -5.875 4.0625 C-6.95394531 4.63677734 -6.95394531 4.63677734 -8.0546875 5.22265625 C-8.69664062 5.47917969 -9.33859375 5.73570312 -10 6 C-10.66 5.67 -11.32 5.34 -12 5 C-8.44416617 1.04907352 -5.38741645 -1.79580548 0 0 Z " fill="#545353" transform="translate(716,580)"/>
<path d="M0 0 C1.65 0.33 3.3 0.66 5 1 C-0.14285714 5.42857143 -0.14285714 5.42857143 -4 6 C-4.66 5.01 -5.32 4.02 -6 3 C-4.02 2.34 -2.04 1.68 0 1 C0 0.67 0 0.34 0 0 Z " fill="#4E4D4D" transform="translate(293,586)"/>
<path d="M0 0 C0.33 0.66 0.66 1.32 1 2 C-3.96993194 4.43425238 -7.34605369 5.34615998 -13 5 C-8.58197723 2.05465149 -5.30525709 0.72344415 0 0 Z " fill="#4F504F" transform="translate(281,585)"/>
<path d="M0 0 C1.09570312 0.00902344 2.19140625 0.01804687 3.3203125 0.02734375 C4.16335938 0.03894531 5.00640625 0.05054688 5.875 0.0625 C5.875 0.3925 5.875 0.7225 5.875 1.0625 C3.79452703 1.5946441 1.71047707 2.11281786 -0.375 2.625 C-1.53515625 2.91503906 -2.6953125 3.20507812 -3.890625 3.50390625 C-6.84590983 4.01429964 -8.36934101 4.09246165 -11.125 3.0625 C-6.92562487 0.26291658 -5.02794562 -0.05348878 0 0 Z " fill="#6E6F6D" transform="translate(408.125,368.9375)"/>
<path d="M0 0 C0 0.99 0 1.98 0 3 C-1.4391134 2.71640113 -2.87625518 2.42278601 -4.3125 2.125 C-5.11300781 1.96257812 -5.91351562 1.80015625 -6.73828125 1.6328125 C-9 1 -9 1 -12 -1 C-7.47907032 -2.45606519 -4.48351204 -1.27032841 0 0 Z " fill="#666766" transform="translate(614,464)"/>
<path d="M0 0 C-2.55081829 2.97595467 -5.43434437 4.44002566 -9 6 C-9.99 6 -10.98 6 -12 6 C-12 5.34 -12 4.68 -12 4 C-4.71428571 -0.57142857 -4.71428571 -0.57142857 0 0 Z " fill="#626261" transform="translate(306,427)"/>
<path d="M0 0 C1.98 0.495 1.98 0.495 4 1 C4 2.98 4 4.96 4 7 C2.68 6.67 1.36 6.34 0 6 C0 5.67 0 5.34 0 5 C-0.33 4.01 -0.66 3.02 -1 2 C-0.67 1.34 -0.34 0.68 0 0 Z " fill="#464545" transform="translate(843,505)"/>
<path d="M0 0 C-1.61992165 0.86375896 -3.24611861 1.71575854 -4.875 2.5625 C-6.23238281 3.27599609 -6.23238281 3.27599609 -7.6171875 4.00390625 C-8.40351563 4.33261719 -9.18984375 4.66132813 -10 5 C-10.66 4.67 -11.32 4.34 -12 4 C-8.31497587 -0.23095363 -5.4879376 -1.82931253 0 0 Z " fill="#393939" transform="translate(365,465)"/>
<path d="M0 0 C3.3 0.33 6.6 0.66 10 1 C6.96474514 3.02350324 5.80573798 3.32124018 2.3125 3.625 C1.50425781 3.69976562 0.69601562 3.77453125 -0.13671875 3.8515625 C-0.75160156 3.90054687 -1.36648438 3.94953125 -2 4 C-1.01 3.67 -0.02 3.34 1 3 C0.67 2.01 0.34 1.02 0 0 Z " fill="#606060" transform="translate(667,464)"/>
<path d="M0 0 C2.1640625 -0.29296875 2.1640625 -0.29296875 4.625 -0.1875 C5.44226563 -0.16042969 6.25953125 -0.13335937 7.1015625 -0.10546875 C8.04128906 -0.05326172 8.04128906 -0.05326172 9 0 C9 0.66 9 1.32 9 2 C5.37 2.33 1.74 2.66 -2 3 C-1.34 2.01 -0.68 1.02 0 0 Z " fill="#3F403F" transform="translate(766,488)"/>
<path d="M0 0 C4.04420651 1.77945087 7.46078487 4.39529673 11 7 C10.01 7.495 10.01 7.495 9 8 C4.34829356 6.21849541 2.18018186 4.48148494 0 0 Z " fill="#686867" transform="translate(491,479)"/>
<path d="M0 0 C-0.33 0.66 -0.66 1.32 -1 2 C-3.75078884 2.91692961 -5.35948913 3.10886083 -8.1875 3.0625 C-10.0746875 3.0315625 -10.0746875 3.0315625 -12 3 C-7.97869817 0.31913211 -4.73968522 -1.57989507 0 0 Z " fill="#3F3F3E" transform="translate(285,436)"/>
<path d="M0 0 C2.31 0.66 4.62 1.32 7 2 C7 2.66 7 3.32 7 4 C8.32 4.66 9.64 5.32 11 6 C6.61110675 5.33501617 3.0188515 3.81242323 -1 2 C-0.67 1.34 -0.34 0.68 0 0 Z " fill="#686866" transform="translate(565,538)"/>
<path d="M0 0 C-2.87949147 2.23960447 -5.76742026 4.29864224 -9 6 C-9.66 5.67 -10.32 5.34 -11 5 C-7.17906575 1.05170128 -5.52310605 -0.1453449 0 0 Z " fill="#6A6A6A" transform="translate(694,591)"/>
<path d="M0 0 C5.01113235 1.4317521 6.94469549 3.98445693 10 8 C6 8 6 8 4.296875 6.50390625 C3.78640625 5.86324219 3.2759375 5.22257813 2.75 4.5625 C1.96882812 3.60537109 1.96882812 3.60537109 1.171875 2.62890625 C0 1 0 1 0 0 Z " fill="#686767" transform="translate(827,583)"/>
<path d="M0 0 C-3.19990508 2.74277578 -6.00499382 4.6302836 -10 6 C-7.82304683 0.97626191 -5.41372848 -0.29263397 0 0 Z " fill="#616161" transform="translate(335,564)"/>
<path d="M0 0 C2.25 0.125 2.25 0.125 5 1 C7.3125 4.0625 7.3125 4.0625 9 7 C5.18315774 5.44499019 2.80804268 2.96404505 0 0 Z " fill="#646363" transform="translate(507,503)"/>
<path d="M0 0 C-1.45264038 0.8638129 -2.9123163 1.71580454 -4.375 2.5625 C-5.59316406 3.27599609 -5.59316406 3.27599609 -6.8359375 4.00390625 C-7.55007813 4.33261719 -8.26421875 4.66132813 -9 5 C-9.66 4.67 -10.32 4.34 -11 4 C-7.9178096 0.4611888 -4.70112403 -2.35056201 0 0 Z " fill="#767675" transform="translate(750,428)"/>
<path d="M0 0 C-2.87949147 2.23960447 -5.76742026 4.29864224 -9 6 C-9.66 5.67 -10.32 5.34 -11 5 C-7.17906575 1.05170128 -5.52310605 -0.1453449 0 0 Z " fill="#6C6C6B" transform="translate(380,380)"/>
<path d="M0 0 C-0.66 0 -1.32 0 -2 0 C-2 0.66 -2 1.32 -2 2 C-5.63 2 -9.26 2 -13 2 C-13 1.67 -13 1.34 -13 1 C-11.58622218 0.63447197 -10.16879424 0.28304505 -8.75 -0.0625 C-7.96109375 -0.25972656 -7.1721875 -0.45695313 -6.359375 -0.66015625 C-3.89605178 -1.01497267 -2.34395868 -0.76877544 0 0 Z " fill="#383838" transform="translate(632,617)"/>
<path d="M0 0 C-4.455 2.97 -4.455 2.97 -9 6 C-9.66 5.67 -10.32 5.34 -11 5 C-10.67 4.34 -10.34 3.68 -10 3 C-9.01 3 -8.02 3 -7 3 C-6.67 2.01 -6.34 1.02 -6 0 C-3.42525708 -0.99667468 -2.51072708 -1.25536354 0 0 Z " fill="#6E6E6D" transform="translate(322,573)"/>
<path d="M0 0 C-3.44450737 2.29633824 -5.93812283 2.54016485 -10 3 C-10.33 2.34 -10.66 1.68 -11 1 C-6.92630576 -1.03684712 -4.41062136 -1.0257259 0 0 Z " fill="#696968" transform="translate(763,500)"/>
<path d="M0 0 C1.9453125 -0.29296875 1.9453125 -0.29296875 4.125 -0.1875 C5.40375 -0.125625 6.6825 -0.06375 8 0 C7.67 0.66 7.34 1.32 7 2 C4.93359375 2.4140625 4.93359375 2.4140625 2.4375 2.625 C1.61121094 2.69976562 0.78492188 2.77453125 -0.06640625 2.8515625 C-1.02353516 2.92503906 -1.02353516 2.92503906 -2 3 C-1.34 2.01 -0.68 1.02 0 0 Z " fill="#343533" transform="translate(754,491)"/>
<path d="M0 0 C-1.28813342 0.83878455 -2.58063256 1.67086783 -3.875 2.5 C-4.59429688 2.9640625 -5.31359375 3.428125 -6.0546875 3.90625 C-8 5 -8 5 -10 5 C-10 4.34 -10 3.68 -10 3 C-9.01 3 -8.02 3 -7 3 C-6.67 2.01 -6.34 1.02 -6 0 C-3.50907189 -1.24546405 -2.58919267 -0.7767578 0 0 Z " fill="#666665" transform="translate(737,435)"/>
<path d="M0 0 C3.96 1.98 3.96 1.98 8 4 C8 4.33 8 4.66 8 5 C5.69 5 3.38 5 1 5 C0.67 3.35 0.34 1.7 0 0 Z " fill="#585A58" transform="translate(196,418)"/>
<path d="M0 0 C0.763125 0.20625 1.52625 0.4125 2.3125 0.625 C-0.04027269 3.34926311 -2.31246331 4.4391763 -5.6875 5.625 C-5.6875 4.305 -5.6875 2.985 -5.6875 1.625 C-2.6875 -0.375 -2.6875 -0.375 0 0 Z " fill="#616161" transform="translate(354.6875,392.375)"/>
<path d="M0 0 C3.3 0 6.6 0 10 0 C10.33 0.99 10.66 1.98 11 3 C9.741875 2.87625 8.48375 2.7525 7.1875 2.625 C6.12595703 2.52058594 6.12595703 2.52058594 5.04296875 2.4140625 C3 2 3 2 0 0 Z " fill="#727373" transform="translate(556,616)"/>
<path d="M0 0 C3.96 0 7.92 0 12 0 C10.515 1.485 10.515 1.485 9 3 C6.73828125 2.85546875 6.73828125 2.85546875 4.3125 2.1875 C3.50425781 1.97480469 2.69601563 1.76210938 1.86328125 1.54296875 C0.94095703 1.27419922 0.94095703 1.27419922 0 1 C0 0.67 0 0.34 0 0 Z " fill="#2D2F2E" transform="translate(240,595)"/>
<path d="M0 0 C0.66 0 1.32 0 2 0 C2.042721 1.66611905 2.04063832 3.33382885 2 5 C1 6 1 6 -2.5625 6.0625 C-3.696875 6.041875 -4.83125 6.02125 -6 6 C-6.33 5.34 -6.66 4.68 -7 4 C-4.69 4.33 -2.38 4.66 0 5 C-0.2784375 4.0409375 -0.2784375 4.0409375 -0.5625 3.0625 C-0.706875 2.381875 -0.85125 1.70125 -1 1 C-0.67 0.67 -0.34 0.34 0 0 Z " fill="#5A5A5A" transform="translate(844,587)"/>
<path d="M0 0 C0.99 0.66 1.98 1.32 3 2 C-2.2734375 5.22265625 -2.2734375 5.22265625 -4 6 C-4.66 5.67 -5.32 5.34 -6 5 C-2.25 1.125 -2.25 1.125 0 0 Z " fill="#70706F" transform="translate(700,585)"/>
<path d="M0 0 C0.99 0.33 1.98 0.66 3 1 C4.1875 3.5625 4.1875 3.5625 5 6 C2.08482708 4.92598892 0.22189824 4.22189824 -2 2 C-1.34 2 -0.68 2 0 2 C0 1.34 0 0.68 0 0 Z " fill="#575657" transform="translate(469,564)"/>
<path d="M0 0 C0.66 0.33 1.32 0.66 2 1 C2 1.66 2 2.32 2 3 C0.02 3.99 -1.96 4.98 -4 6 C-4.66 5.34 -5.32 4.68 -6 4 C-4.02 2.68 -2.04 1.36 0 0 Z " fill="#5F605F" transform="translate(322,559)"/>
<path d="M0 0 C-0.33 0.66 -0.66 1.32 -1 2 C-1.66 2 -2.32 2 -3 2 C-3 2.66 -3 3.32 -3 4 C-4.65 4 -6.3 4 -8 4 C-7.67 3.01 -7.34 2.02 -7 1 C-4.53721199 -0.231394 -2.7204945 -0.07159196 0 0 Z " fill="#373837" transform="translate(349,547)"/>
<path d="M0 0 C0.66 0.33 1.32 0.66 2 1 C2 1.66 2 2.32 2 3 C-4.625 6.125 -4.625 6.125 -8 5 C-6.68 4.67 -5.36 4.34 -4 4 C-4 3.34 -4 2.68 -4 2 C-2.125 0.9375 -2.125 0.9375 0 0 Z " fill="#6A6A6A" transform="translate(682,536)"/>
<path d="M0 0 C3.55780196 0.60990891 6.6828589 1.5783681 10 3 C8.3125 4.125 8.3125 4.125 6 5 C3.3125 4.3125 3.3125 4.3125 1 3 C0.67 2.01 0.34 1.02 0 0 Z " fill="#636463" transform="translate(453,459)"/>
<path d="M0 0 C-3.75 2 -3.75 2 -6 2 C-6 2.66 -6 3.32 -6 4 C-8.64 3.67 -11.28 3.34 -14 3 C-14 2.67 -14 2.34 -14 2 C-4.58997722 -0.29612756 -4.58997722 -0.29612756 0 0 Z " fill="#7F7F7F" transform="translate(396,453)"/>
<path d="M0 0 C0.6875 2.0625 0.6875 2.0625 1 4 C-1.02045442 3.39816251 -3.02111039 2.72693904 -5 2 C-5.33 1.34 -5.66 0.68 -6 0 C-3 -1 -3 -1 0 0 Z " fill="#575656" transform="translate(519,596)"/>
<path d="M0 0 C-0.99 0.33 -1.98 0.66 -3 1 C-3 1.66 -3 2.32 -3 3 C-5.64 3 -8.28 3 -11 3 C-6.86621405 0.2441427 -4.94796454 -0.10756445 0 0 Z " fill="#504F4F" transform="translate(646,539)"/>
<path d="M0 0 C3.55780196 0.60990891 6.6828589 1.5783681 10 3 C8.25 4.125 8.25 4.125 6 5 C3.75 4.125 3.75 4.125 2 3 C2 2.34 2 1.68 2 1 C1.34 0.67 0.68 0.34 0 0 Z " fill="#6C6C6B" transform="translate(203,511)"/>
<path d="M0 0 C2.91517292 1.07401108 4.77810176 1.77810176 7 4 C2.25 5.125 2.25 5.125 0 4 C0 2.68 0 1.36 0 0 Z " fill="#5E5F5E" transform="translate(584,444)"/>
<path d="M0 0 C0.66 0.33 1.32 0.66 2 1 C-0.83430453 4.2542015 -2.68607774 5.5206753 -7 6 C-4.74259377 3.66475218 -2.7194239 1.81294927 0 0 Z " fill="#707070" transform="translate(314,564)"/>
<path d="M0 0 C4.31392226 0.4793247 6.16569547 1.7457985 9 5 C2.25 3.375 2.25 3.375 0 0 Z " fill="#5B5B5A" transform="translate(525,506)"/>
<path d="M0 0 C0.99 0.33 1.98 0.66 3 1 C-1.625 5 -1.625 5 -5 5 C-3.35 3.35 -1.7 1.7 0 0 Z " fill="#4F504F" transform="translate(346,481)"/>
<path d="M0 0 C3.37503669 1.1858237 5.64722731 2.27573689 8 5 C5.6875 5.3125 5.6875 5.3125 3 5 C1.1875 2.5 1.1875 2.5 0 0 Z " fill="#676867" transform="translate(483,474)"/>
<path d="M0 0 C1.32 0.33 2.64 0.66 4 1 C3.67 1.99 3.34 2.98 3 4 C1.02 4 -0.96 4 -3 4 C-2.34 3.67 -1.68 3.34 -1 3 C-0.67 2.01 -0.34 1.02 0 0 Z " fill="#393B3A" transform="translate(685,452)"/>
<path d="M0 0 C-4.455 1.485 -4.455 1.485 -9 3 C-8 0 -8 0 -6.1875 -1.3125 C-4 -2 -4 -2 0 0 Z " fill="#6B6B6A" transform="translate(762,423)"/>
<path d="M0 0 C0.66 0.33 1.32 0.66 2 1 C-1.32307692 4.93846154 -1.32307692 4.93846154 -4.75 5.25 C-5.4925 5.1675 -6.235 5.085 -7 5 C-5.47058649 1.94117299 -3.05780454 1.31048766 0 0 Z " fill="#616261" transform="translate(305,415)"/>
<path d="M0 0 C3.66881155 0.70554068 6.70450534 2.27735506 10 4 C10 4.33 10 4.66 10 5 C3.47692308 4.50769231 3.47692308 4.50769231 1.0625 1.9375 C0.711875 1.298125 0.36125 0.65875 0 0 Z " fill="#6A6A6A" transform="translate(487,372)"/>
<path d="M0 0 C3.40320742 1.01176437 4.75725331 1.64843582 6.8125 4.625 C7.204375 5.40875 7.59625 6.1925 8 7 C4.63718422 5.55879324 2.4480582 3.71035015 0 1 C0 0.67 0 0.34 0 0 Z " fill="#4B4B4B" transform="translate(497,584)"/>
<path d="M0 0 C0.99 0.66 1.98 1.32 3 2 C1.02 3.32 -0.96 4.64 -3 6 C-3.66 5.67 -4.32 5.34 -5 5 C-3.35 3.35 -1.7 1.7 0 0 Z " fill="#5B5A5A" transform="translate(305,580)"/>
<path d="M0 0 C2.9375 0.8125 2.9375 0.8125 6 2 C6.33 2.99 6.66 3.98 7 5 C1.25 3.25 1.25 3.25 -1 1 C-0.67 0.67 -0.34 0.34 0 0 Z " fill="#5B5B5A" transform="translate(455,558)"/>
<path d="M0 0 C-1 2 -1 2 -2.8125 2.75 C-5.49828639 3.05694702 -6.7252187 2.38111722 -9 1 C-3.375 -1.125 -3.375 -1.125 0 0 Z " fill="#676867" transform="translate(672,533)"/>
<path d="M0 0 C0.66 0.33 1.32 0.66 2 1 C-0.97 3.475 -0.97 3.475 -4 6 C-4.99 5.34 -5.98 4.68 -7 4 C-1.7265625 0.77734375 -1.7265625 0.77734375 0 0 Z " fill="#727373" transform="translate(693,521)"/>
<path d="M0 0 C0.66 0.33 1.32 0.66 2 1 C1.67 1.66 1.34 2.32 1 3 C0.34 3 -0.32 3 -1 3 C-1.33 3.99 -1.66 4.98 -2 6 C-2.33 5.34 -2.66 4.68 -3 4 C-3.66 3.67 -4.32 3.34 -5 3 C-2.625 1.4375 -2.625 1.4375 0 0 Z " fill="#5F5F60" transform="translate(716,508)"/>
<path d="M0 0 C0.99 0.33 1.98 0.66 3 1 C2 3 2 3 -0.375 4.1875 C-3 5 -3 5 -6 4 C-4.68 3.67 -3.36 3.34 -2 3 C-2 2.34 -2 1.68 -2 1 C-1.34 0.67 -0.68 0.34 0 0 Z " fill="#6A6A6A" transform="translate(748,502)"/>
<path d="M0 0 C-1 2 -1 2 -2.8125 2.75 C-5.49828639 3.05694702 -6.7252187 2.38111722 -9 1 C-3.375 -1.125 -3.375 -1.125 0 0 Z " fill="#6D6E6E" transform="translate(685,453)"/>
<path d="M0 0 C0.66 0.33 1.32 0.66 2 1 C2 1.66 2 2.32 2 3 C-1 5 -1 5 -3.1875 4.625 C-3.785625 4.41875 -4.38375 4.2125 -5 4 C-3.35 2.68 -1.7 1.36 0 0 Z " fill="#626261" transform="translate(340,391)"/>
<path d="M0 0 C4 1 4 1 4 1 Z " fill="#817F7F" transform="translate(228,607)"/>
<path d="" fill="#7E7E7D" transform="translate(0,0)"/>
<path d="M0 0 C3 1 3 1 3 1 Z " fill="#828280" transform="translate(408,547)"/>
<path d="M0 0 C0.33 0.66 0.66 1.32 1 2 C0.34 1.67 -0.32 1.34 -1 1 C-0.67 0.67 -0.34 0.34 0 0 Z " fill="#807F7E" transform="translate(489,492)"/>
<path d="M0 0 C2 1 2 1 2 1 Z " fill="#807C7C" transform="translate(235,607)"/>
<path d="M0 0 C2 1 2 1 2 1 Z " fill="#868583" transform="translate(660,548)"/>
<path d="M0 0 C2 1 2 1 2 1 Z " fill="#807E7D" transform="translate(376,383)"/>
<path d="" fill="#565656" transform="translate(0,0)"/>
<path d="" fill="#818181" transform="translate(0,0)"/>
<path d="" fill="#7F7E7D" transform="translate(0,0)"/>
<path d="" fill="#838384" transform="translate(0,0)"/>
<path d="" fill="#858481" transform="translate(0,0)"/>
<path d="" fill="#838181" transform="translate(0,0)"/>
<path d="" fill="#7F7F7F" transform="translate(0,0)"/>
<path d="" fill="#83807F" transform="translate(0,0)"/>
<path d="" fill="#818080" transform="translate(0,0)"/>
<path d="" fill="#808180" transform="translate(0,0)"/>
<path d="" fill="#838381" transform="translate(0,0)"/>
<path d="" fill="#848380" transform="translate(0,0)"/>
<path d="" fill="#848582" transform="translate(0,0)"/>
<path d="" fill="#7C7B7B" transform="translate(0,0)"/>
<path d="" fill="#838281" transform="translate(0,0)"/>
<path d="" fill="#828382" transform="translate(0,0)"/>
<path d="" fill="#858584" transform="translate(0,0)"/>
<path d="" fill="#878786" transform="translate(0,0)"/>
<path d="" fill="#7F7F7F" transform="translate(0,0)"/>
<path d="" fill="#828182" transform="translate(0,0)"/>
<path d="" fill="#7F7D80" transform="translate(0,0)"/>
<path d="" fill="#7E7E7E" transform="translate(0,0)"/>
<path d="" fill="#817E7A" transform="translate(0,0)"/>
<path d="" fill="#7F7F7E" transform="translate(0,0)"/>
<path d="" fill="#81807F" transform="translate(0,0)"/>
<path d="" fill="#7F7E7D" transform="translate(0,0)"/>
<path d="" fill="#7F7F7E" transform="translate(0,0)"/>
<path d="" fill="#7F7D7D" transform="translate(0,0)"/>
<path d="" fill="#817E7F" transform="translate(0,0)"/>
<path d="" fill="#848381" transform="translate(0,0)"/>
<path d="" fill="#818080" transform="translate(0,0)"/>
<path d="" fill="#7F7F81" transform="translate(0,0)"/>
<path d="" fill="#828181" transform="translate(0,0)"/>
<path d="" fill="#7E7E7B" transform="translate(0,0)"/>
<path d="" fill="#818180" transform="translate(0,0)"/>
<path d="" fill="#828280" transform="translate(0,0)"/>
<path d="" fill="#848382" transform="translate(0,0)"/>
<path d="" fill="#80807F" transform="translate(0,0)"/>
<path d="" fill="#868381" transform="translate(0,0)"/>
<path d="" fill="#838082" transform="translate(0,0)"/>
<path d="" fill="#8A8787" transform="translate(0,0)"/>
<path d="" fill="#868683" transform="translate(0,0)"/>
<path d="" fill="#838080" transform="translate(0,0)"/>
<path d="" fill="#808381" transform="translate(0,0)"/>
<path d="" fill="#828282" transform="translate(0,0)"/>
<path d="" fill="#7C7A79" transform="translate(0,0)"/>
<path d="" fill="#878585" transform="translate(0,0)"/>
<path d="" fill="#7E7F7C" transform="translate(0,0)"/>
<path d="" fill="#7F7E7F" transform="translate(0,0)"/>
<path d="" fill="#828382" transform="translate(0,0)"/>
<path d="" fill="#838283" transform="translate(0,0)"/>
<path d="" fill="#858483" transform="translate(0,0)"/>
<path d="" fill="#8A8888" transform="translate(0,0)"/>
<path d="" fill="#858584" transform="translate(0,0)"/>
<path d="" fill="#80807F" transform="translate(0,0)"/>
<path d="" fill="#868583" transform="translate(0,0)"/>
<path d="" fill="#807F7F" transform="translate(0,0)"/>
<path d="" fill="#7F807F" transform="translate(0,0)"/>
<path d="" fill="#817E7F" transform="translate(0,0)"/>
<path d="" fill="#878484" transform="translate(0,0)"/>
<path d="" fill="#818081" transform="translate(0,0)"/>
<path d="" fill="#838080" transform="translate(0,0)"/>
<path d="" fill="#838180" transform="translate(0,0)"/>
<path d="" fill="#868683" transform="translate(0,0)"/>
<path d="" fill="#888786" transform="translate(0,0)"/>
<path d="" fill="#7E7B7C" transform="translate(0,0)"/>
<path d="" fill="#82817F" transform="translate(0,0)"/>
<path d="" fill="#7F8081" transform="translate(0,0)"/>
<path d="" fill="#82817E" transform="translate(0,0)"/>
<path d="" fill="#83817F" transform="translate(0,0)"/>
<path d="" fill="#84847F" transform="translate(0,0)"/>
<path d="" fill="#838282" transform="translate(0,0)"/>
<path d="" fill="#828081" transform="translate(0,0)"/>
<path d="" fill="#838281" transform="translate(0,0)"/>
<path d="" fill="#7F807F" transform="translate(0,0)"/>
<path d="" fill="#858483" transform="translate(0,0)"/>
<path d="" fill="#888685" transform="translate(0,0)"/>
<path d="" fill="#8A8988" transform="translate(0,0)"/>
<path d="" fill="#858684" transform="translate(0,0)"/>
<path d="" fill="#878885" transform="translate(0,0)"/>
<path d="" fill="#818080" transform="translate(0,0)"/>
<path d="" fill="#787777" transform="translate(0,0)"/>
<path d="" fill="#848585" transform="translate(0,0)"/>
<path d="" fill="#868585" transform="translate(0,0)"/>
<path d="" fill="#878584" transform="translate(0,0)"/>
<path d="" fill="#858386" transform="translate(0,0)"/>
<path d="" fill="#838583" transform="translate(0,0)"/>
<path d="" fill="#868583" transform="translate(0,0)"/>
<path d="" fill="#82827F" transform="translate(0,0)"/>
<path d="" fill="#858584" transform="translate(0,0)"/>
<path d="" fill="#828382" transform="translate(0,0)"/>
<path d="" fill="#828180" transform="translate(0,0)"/>
<path d="" fill="#80817F" transform="translate(0,0)"/>
<path d="" fill="#818082" transform="translate(0,0)"/>
<path d="" fill="#7D7D7C" transform="translate(0,0)"/>
<path d="" fill="#82827F" transform="translate(0,0)"/>
<path d="" fill="#838381" transform="translate(0,0)"/>
<path d="" fill="#818282" transform="translate(0,0)"/>
<path d="" fill="#818181" transform="translate(0,0)"/>
<path d="" fill="#817E7F" transform="translate(0,0)"/>
<path d="" fill="#828182" transform="translate(0,0)"/>
<path d="" fill="#838180" transform="translate(0,0)"/>
<path d="" fill="#828382" transform="translate(0,0)"/>
<path d="" fill="#7E7D7E" transform="translate(0,0)"/>
<path d="" fill="#7F7F7E" transform="translate(0,0)"/>
<path d="" fill="#858585" transform="translate(0,0)"/>
<path d="" fill="#838280" transform="translate(0,0)"/>
<path d="" fill="#7E7F7D" transform="translate(0,0)"/>
<path d="" fill="#83807E" transform="translate(0,0)"/>
<path d="" fill="#7C7B79" transform="translate(0,0)"/>
<path d="" fill="#838381" transform="translate(0,0)"/>
</svg>
