<?xml version="1.0" standalone="no"?>
<!DOCTYPE svg PUBLIC "-//W3C//DTD SVG 20010904//EN" "http://www.w3.org/TR/2001/REC-SVG-20010904/DTD/svg10.dtd">
<svg xmlns="http://www.w3.org/2000/svg" version="1.0" width="1024.000000pt" height="1024.000000pt" viewBox="0 0 1024.000000 1024.000000" preserveAspectRatio="xMidYMid meet">
<metadata>
Created by potrace 1.16, written by Peter Selinger 2001-2019
<meta name="Producer" content="Online-Convert"/></metadata>
<g transform="translate(0.000000,1024.000000) scale(0.100000,-0.100000)" fill="#000000" stroke="none">
<path d="M4808 8635 c-3 -3 -29 -7 -59 -10 -122 -11 -160 -15 -204 -25 -25 -6 -50 -8 -54 -6 -4 3 -36 -2 -72 -11 -35 -8 -74 -16 -86 -18 -11 -2 -30 -6 -41 -9 -19 -7 -32 -9 -84 -21 -13 -2 -36 -8 -53 -11 -16 -4 -41 -11 -55 -17 -14 -5 -31 -11 -38 -13 -8 -1 -21 -6 -30 -10 -9 -4 -19 -8 -22 -9 -3 -1 -12 -5 -20 -8 -20 -8 -102 -37 -115 -40 -5 -2 -20 -8 -31 -15 -12 -6 -24 -8 -28 -5 -3 3 -6 1 -6 -5 0 -7 -3 -11 -7 -10 -5 1 -19 -4 -32 -11 -12 -7 -31 -11 -42 -8 -10 3 -17 1 -16 -3 2 -9 -146 -90 -165 -90 -5 0 -30 -13 -55 -30 -24 -16 -48 -30 -53 -30 -5 0 -15 -6 -22 -12 -24 -24 -95 -58 -103 -50 -5 4 -5 1 -1 -5 4 -7 3 -13 -2 -13 -4 0 -17 -8 -28 -18 -37 -33 -73 -52 -90 -45 -13 5 -15 2 -10 -15 6 -17 3 -20 -12 -17 -13 2 -19 -2 -18 -13 0 -9 -4 -16 -11 -15 -6 1 -31 -18 -56 -42 -24 -25 -49 -45 -56 -45 -6 0 -11 -5 -11 -11 0 -6 -7 -8 -16 -5 -8 3 -13 2 -10 -2 5 -8 -24 -42 -64 -75 -18 -15 -24 -16 -38 -5 -15 11 -15 11 -5 -3 10 -13 0 -28 -63 -97 -41 -45 -81 -81 -87 -79 -7 1 -11 -4 -10 -10 3 -15 -122 -175 -130 -167 -3 3 -4 -3 -4 -13 1 -9 -5 -18 -13 -18 -9 0 -14 -8 -12 -19 2 -10 -1 -16 -6 -12 -5 3 -9 0 -9 -7 0 -7 -3 -24 -6 -39 -4 -17 0 -33 9 -42 8 -8 14 -21 14 -28 0 -8 12 -13 31 -13 34 -1 36 1 153 153 90 116 246 281 261 275 7 -2 16 1 21 8 4 8 3 10 -4 5 -7 -4 -12 -4 -11 1 0 4 33 36 72 70 109 94 120 103 126 103 3 0 22 15 41 33 19 17 37 32 40 32 3 0 20 11 38 25 19 14 36 24 39 22 2 -2 13 6 22 17 10 12 22 21 26 21 5 0 16 6 24 14 9 8 52 33 96 56 44 24 90 49 102 56 34 21 284 127 291 124 2 -1 13 5 26 13 12 9 38 17 57 19 19 1 36 5 39 8 3 3 24 13 47 22 31 12 44 13 54 4 9 -8 10 -8 5 1 -4 8 3 14 21 18 34 7 103 25 123 33 8 3 18 6 23 7 4 2 8 4 10 5 1 1 16 3 32 5 17 2 75 12 130 24 138 28 263 41 292 30 16 -6 22 -5 18 1 -9 14 389 18 525 5 36 -3 83 -7 105 -9 60 -5 139 -18 147 -23 4 -2 29 -7 55 -10 27 -3 56 -10 66 -15 9 -5 22 -6 27 -3 5 3 11 1 15 -5 3 -5 15 -10 26 -10 12 0 17 -4 13 -11 -4 -7 0 -9 14 -5 12 4 43 1 69 -7 26 -8 53 -15 58 -17 16 -3 20 -10 6 -10 -7 0 -9 -5 -5 -11 5 -8 9 -7 15 3 9 17 55 13 66 -5 4 -6 0 -8 -10 -4 -10 3 -17 2 -17 -3 0 -5 17 -7 38 -6 20 2 42 1 47 -3 6 -4 26 -14 45 -21 19 -8 41 -21 48 -30 8 -8 11 -9 7 -2 -8 15 17 16 33 0 7 -7 12 -9 12 -5 0 4 9 3 20 -3 11 -6 18 -15 15 -20 -3 -4 4 -6 15 -3 11 3 20 0 20 -6 0 -6 3 -10 8 -10 17 3 33 -2 29 -8 -3 -5 8 -9 24 -10 31 -2 63 -26 51 -37 -3 -4 2 -4 12 0 13 5 17 4 12 -4 -3 -6 -1 -14 5 -18 8 -4 9 -3 5 4 -4 7 -5 12 -2 12 14 0 86 -36 86 -42 0 -5 5 -8 10 -8 6 0 41 -19 78 -41 37 -23 84 -51 104 -62 20 -11 58 -40 85 -64 26 -25 49 -43 51 -41 4 5 142 -105 142 -114 0 -4 7 -8 15 -8 20 0 19 -17 -2 -29 -10 -6 -13 -11 -7 -11 5 0 15 5 20 10 12 12 61 -25 56 -42 -1 -5 2 -7 7 -4 4 3 48 -36 97 -86 97 -100 126 -137 118 -150 -3 -5 0 -7 8 -6 7 2 12 -3 10 -10 -1 -6 1 -11 5 -10 5 2 9 0 11 -4 1 -4 18 -23 37 -41 19 -19 32 -37 28 -40 -3 -4 -1 -7 5 -7 11 0 58 -70 55 -81 -1 -3 15 -4 35 -2 24 2 46 14 64 32 l27 29 -31 48 c-26 42 -60 88 -146 197 -19 23 -105 117 -169 185 -24 25 -43 49 -43 53 0 5 -5 9 -11 9 -6 0 -46 30 -88 68 -78 67 -111 94 -151 122 -12 8 -34 25 -48 38 -15 12 -35 25 -45 28 -11 3 -16 12 -13 20 3 8 2 12 -3 9 -10 -6 -74 27 -95 48 -7 7 -30 21 -52 32 -21 11 -41 23 -44 27 -3 3 -32 18 -65 33 -33 15 -64 34 -68 41 -5 8 -12 12 -17 9 -12 -7 -132 60 -123 69 4 4 -1 4 -10 0 -10 -4 -28 -2 -40 4 -25 12 -98 44 -109 47 -5 2 -10 4 -13 5 -3 1 -8 3 -12 5 -5 1 -15 5 -23 8 -23 10 -184 64 -193 65 -38 5 -84 16 -92 22 -15 11 -156 41 -165 35 -5 -3 -12 0 -15 6 -4 5 -13 8 -19 6 -7 -3 -32 -1 -57 5 -24 5 -53 9 -64 9 -11 0 -33 4 -50 9 -16 5 -66 12 -110 15 -107 8 -581 16 -587 10z"/>
<path d="M3230 6951 c-8 -5 -35 -11 -60 -14 -45 -5 -81 -13 -110 -24 -8 -4 -18 -5 -22 -5 -5 1 -8 -3 -8 -9 0 -5 -4 -7 -10 -4 -5 3 -10 1 -10 -5 0 -6 -4 -9 -9 -6 -5 3 -14 -1 -21 -9 -7 -8 -16 -12 -21 -9 -5 3 -9 0 -9 -6 0 -6 -4 -8 -10 -5 -5 3 -10 1 -10 -6 0 -7 -3 -9 -6 -6 -4 4 -19 -2 -34 -13 -15 -11 -31 -16 -35 -12 -5 4 -5 1 -1 -5 4 -7 3 -13 -2 -13 -7 0 -103 -91 -146 -140 -22 -24 -86 -127 -96 -155 -7 -17 -14 -24 -22 -19 -9 5 -9 2 1 -9 16 -20 2 -23 -19 -4 -12 10 -12 9 -2 -4 10 -13 8 -33 -8 -98 -11 -44 -23 -111 -26 -149 -2 -37 -5 -71 -5 -77 -3 -28 13 -136 26 -183 9 -29 13 -57 10 -61 -3 -5 0 -11 6 -13 14 -5 19 -59 7 -82 -7 -12 -7 -16 0 -12 5 3 12 -4 15 -16 4 -12 9 -19 12 -16 4 3 2 15 -4 27 -7 13 -8 22 -1 26 5 3 10 -1 10 -10 0 -9 11 -36 25 -59 14 -24 22 -46 17 -51 -4 -4 -2 -6 4 -2 5 3 19 -6 29 -21 34 -48 153 -160 199 -187 26 -15 43 -31 40 -37 -3 -5 0 -9 7 -7 35 4 42 0 28 -18 -13 -17 -13 -17 7 -1 12 11 24 14 30 9 5 -5 18 -11 29 -14 13 -3 8 -5 -14 -6 -36 -1 -143 -27 -169 -41 -10 -4 -37 -14 -62 -20 -25 -7 -82 -30 -128 -51 -46 -22 -88 -37 -94 -33 -6 4 -9 3 -6 -2 3 -5 0 -15 -8 -22 -8 -7 -14 -9 -14 -5 0 4 -4 4 -8 -2 -14 -19 -72 -46 -84 -39 -6 4 -8 3 -5 -3 4 -6 -17 -29 -46 -50 -28 -22 -77 -65 -107 -96 -30 -30 -59 -53 -65 -50 -5 4 -7 3 -3 -2 10 -11 -82 -126 -95 -118 -6 4 -7 1 -2 -6 4 -8 -1 -24 -12 -39 -11 -15 -28 -42 -37 -60 -10 -19 -21 -30 -28 -26 -6 4 -8 3 -4 -4 8 -13 -14 -63 -25 -56 -5 3 -6 -1 -4 -8 3 -7 -5 -36 -18 -63 -14 -28 -28 -60 -32 -73 -6 -20 -9 -21 -23 -10 -15 11 -15 11 -4 -3 19 -25 -45 -252 -70 -246 -11 3 -15 0 -11 -9 3 -8 9 -11 14 -8 12 7 12 2 -6 -91 -9 -44 -18 -107 -21 -139 -2 -33 -7 -63 -10 -67 -6 -11 -14 -176 -19 -399 -4 -203 -3 -189 -15 -170 -8 13 -10 13 -10 -2 0 -9 4 -18 9 -20 4 -1 12 -73 16 -158 9 -189 9 -171 0 -195 -5 -16 -5 -17 4 -5 8 12 11 8 12 -20 2 -82 9 -183 23 -305 11 -98 12 -132 3 -137 -9 -6 -9 -8 1 -8 14 0 16 -36 2 -45 -13 -8 -13 -25 1 -25 5 0 7 5 4 10 -3 6 -2 10 3 10 5 0 13 -21 17 -48 9 -65 28 -92 65 -92 17 0 39 9 49 19 21 21 22 41 2 161 -7 42 -7 66 -1 68 6 2 10 8 10 13 0 6 -4 8 -9 5 -17 -11 -32 99 -45 324 -4 63 -11 144 -15 180 -12 88 -6 611 8 735 17 151 32 244 47 308 8 32 12 62 9 67 -3 5 -1 11 4 14 5 3 12 23 15 43 11 59 55 191 88 263 17 36 35 76 40 90 16 43 80 130 91 123 6 -3 7 -1 3 5 -10 17 44 90 123 165 25 23 52 49 60 57 35 32 99 79 161 117 74 45 266 127 279 118 5 -3 11 0 13 6 2 6 22 11 45 12 22 1 39 5 37 8 -6 11 83 32 115 27 17 -2 28 -1 26 2 -6 10 93 18 217 18 94 0 263 -17 308 -31 8 -2 30 -8 48 -12 30 -7 45 -25 20 -25 -6 0 -8 -3 -5 -6 4 -4 13 -1 22 6 12 10 23 9 59 -6 24 -10 42 -22 40 -26 -3 -4 1 -5 8 -3 20 8 140 -53 132 -67 -4 -7 -3 -8 4 -4 26 16 240 -153 225 -178 -3 -6 -2 -8 2 -3 5 4 19 -3 32 -15 16 -15 20 -25 12 -34 -7 -8 -6 -14 2 -20 7 -4 9 -3 5 4 -3 6 -2 13 3 16 11 7 42 -34 35 -46 -3 -4 3 -5 12 -1 14 5 16 2 12 -15 -4 -13 -2 -19 6 -16 7 3 20 -12 29 -31 10 -20 13 -34 7 -30 -5 3 -10 1 -10 -4 0 -6 5 -11 11 -11 8 0 8 -5 -1 -15 -14 -17 0 -21 17 -4 8 8 22 -11 53 -72 l41 -84 -23 -7 c-23 -6 -23 -6 2 -7 34 -1 46 -24 82 -149 17 -59 33 -111 36 -117 4 -5 8 -21 10 -34 2 -14 7 -32 11 -40 5 -9 8 -33 7 -53 -1 -20 1 -35 4 -33 4 2 13 -21 20 -53 7 -31 22 -91 32 -132 30 -114 36 -150 27 -144 -5 3 -9 -7 -9 -21 0 -20 4 -26 14 -22 13 5 25 -12 32 -48 6 -31 55 -178 66 -195 11 -17 10 -22 -2 -30 -13 -8 -13 -11 -1 -22 11 -11 13 -11 6 1 -5 9 -4 12 2 8 9 -6 46 -73 48 -87 0 -3 3 -9 6 -15 4 -5 5 -20 4 -32 -1 -12 5 -25 13 -28 12 -4 12 -8 2 -20 -11 -13 -10 -14 5 -8 15 5 17 3 12 -11 -4 -9 -3 -15 2 -12 5 3 24 -24 42 -60 18 -37 42 -81 53 -98 40 -62 55 -93 48 -101 -4 -5 -2 -5 5 -1 6 3 14 2 17 -3 8 -12 -42 -64 -54 -56 -5 3 -7 0 -5 -8 9 -21 -152 -156 -253 -214 -109 -62 -285 -144 -317 -147 -11 -1 -29 -7 -41 -14 -11 -6 -32 -13 -45 -16 -13 -2 -80 -19 -149 -36 -69 -17 -141 -33 -160 -36 -19 -2 -51 -7 -70 -11 -19 -3 -51 -7 -70 -9 -19 -1 -53 -5 -75 -9 -63 -9 -597 -13 -662 -4 -32 4 -94 10 -138 13 -43 4 -82 10 -85 14 -3 4 -27 8 -55 9 -50 2 -117 11 -145 19 -13 5 -13 6 0 14 13 9 13 10 0 10 -13 0 -15 25 -12 177 1 98 1 203 0 233 -3 58 -3 728 0 1015 2 151 0 173 -17 195 -10 14 -28 26 -40 28 -25 4 -74 -24 -66 -38 3 -5 1 -12 -5 -15 -8 -5 -9 -95 -3 -298 4 -161 7 -312 7 -337 -1 -25 -2 -245 -3 -490 -1 -245 -6 -464 -10 -487 -5 -24 -4 -43 0 -43 5 0 9 -6 9 -14 0 -16 38 -66 48 -64 15 4 52 -24 46 -34 -4 -7 -3 -8 5 -4 6 4 9 11 6 16 -6 10 18 8 99 -8 27 -6 55 -8 62 -5 7 3 19 1 26 -3 7 -4 19 -9 28 -10 85 -10 142 -16 175 -18 66 -4 135 -18 135 -27 0 -5 4 -9 10 -9 5 0 9 6 7 12 -1 8 6 12 18 10 111 -14 354 -8 555 14 19 2 60 6 90 9 97 11 115 13 136 20 14 4 27 0 39 -11 17 -17 17 -17 10 5 -5 16 -3 22 7 20 19 -4 91 10 193 37 82 21 113 31 243 79 24 8 48 12 54 9 7 -4 8 -2 4 4 -7 11 -3 14 27 16 6 1 14 4 17 7 7 8 130 79 137 79 4 0 28 14 54 31 27 17 53 28 59 24 6 -4 9 -2 8 3 -2 5 33 37 76 72 44 35 103 86 131 114 l51 51 59 -64 c33 -35 54 -61 46 -56 -10 6 -12 4 -7 -4 5 -7 14 -10 21 -7 16 6 38 -17 28 -28 -4 -4 0 -4 9 -1 10 4 23 -3 37 -21 11 -15 21 -24 21 -20 0 4 28 -12 61 -35 34 -23 97 -60 140 -83 44 -24 76 -46 72 -51 -5 -4 -3 -5 4 -1 14 8 143 -41 159 -60 13 -17 28 -19 18 -3 -4 8 -1 8 12 1 11 -6 22 -10 27 -11 27 -3 57 -15 57 -23 0 -5 5 -6 10 -3 6 4 27 1 48 -6 20 -7 46 -14 57 -15 11 -2 27 -5 35 -7 8 -3 30 -8 47 -12 20 -5 30 -12 26 -19 -4 -6 1 -5 10 3 10 8 23 10 34 5 20 -9 30 -11 55 -13 11 -1 15 -6 12 -16 -4 -8 -1 -15 5 -15 6 0 10 6 8 13 -1 6 3 11 9 10 40 -7 145 -19 248 -28 48 -4 74 -12 84 -23 7 -9 11 -11 7 -4 -9 17 223 16 244 -2 12 -8 13 -8 7 1 -5 10 7 13 51 13 66 1 251 9 303 14 122 12 185 19 265 32 90 15 120 21 120 24 0 1 14 4 30 6 17 3 40 15 51 28 19 21 21 34 19 107 -4 108 4 171 19 162 6 -4 4 1 -4 11 -13 16 -15 116 -17 725 0 388 -2 709 -2 714 -2 17 -43 47 -64 47 -13 0 -33 -9 -45 -20 -21 -20 -22 -27 -17 -133 2 -62 4 -272 4 -467 0 -195 1 -377 2 -405 2 -60 2 -77 0 -180 -1 -44 1 -92 5 -107 3 -15 3 -36 -1 -45 -4 -10 -6 -67 -5 -128 1 -60 1 -117 0 -125 0 -8 -2 -26 -3 -40 -1 -17 -8 -26 -22 -27 -39 -3 -104 -12 -167 -23 -35 -6 -81 -13 -103 -14 -22 -2 -86 -7 -142 -11 -94 -7 -101 -6 -106 11 -4 15 -5 15 -6 3 -1 -12 -15 -18 -48 -23 -50 -7 -397 0 -436 9 -12 2 -51 7 -87 10 -127 10 -149 13 -240 31 -95 18 -190 50 -190 64 0 12 -2 12 -9 1 -7 -11 -15 -11 -45 -1 -21 6 -43 13 -49 14 -7 2 -20 6 -29 10 -9 4 -22 9 -30 10 -7 2 -26 8 -41 14 -16 7 -32 12 -36 12 -5 0 -55 23 -112 52 -57 28 -106 52 -109 53 -3 0 -36 21 -75 47 -90 60 -197 157 -189 170 4 6 3 8 -3 5 -6 -4 -20 4 -32 17 -26 28 -22 58 13 92 12 11 22 24 23 30 4 24 81 143 88 136 5 -4 5 -2 1 5 -4 7 9 46 29 88 19 41 35 80 35 86 0 6 5 7 12 3 6 -4 8 -3 5 2 -3 6 16 74 43 152 27 78 47 142 44 142 -4 0 -1 7 6 15 7 8 9 15 5 15 -4 0 -3 6 3 13 5 6 13 28 18 47 4 19 8 37 9 40 1 3 5 26 9 53 5 26 13 50 19 54 6 4 7 1 2 -7 -5 -9 -4 -11 4 -6 6 4 9 11 6 16 -5 8 54 282 74 345 5 17 22 69 36 118 15 48 31 85 36 82 5 -4 6 1 3 9 -5 14 35 111 93 221 43 81 47 88 71 114 12 14 22 29 22 33 0 12 52 63 61 61 5 -2 8 0 7 5 -4 14 23 52 38 52 8 0 13 4 10 9 -5 8 39 48 128 118 36 28 232 131 260 138 6 1 18 4 26 8 41 15 126 39 154 43 17 3 42 7 56 10 48 10 363 17 357 8 -3 -5 20 -9 52 -10 122 -2 472 -116 464 -151 -1 -5 11 -9 27 -9 15 -1 44 -13 63 -28 18 -14 39 -26 45 -26 6 0 13 -8 16 -18 4 -10 12 -19 19 -19 20 0 77 -45 77 -60 0 -8 4 -12 8 -9 9 6 42 -29 42 -44 0 -6 6 -10 13 -10 21 0 77 -76 72 -99 -2 -12 0 -19 6 -16 5 4 7 12 3 18 -3 7 4 1 15 -12 12 -12 18 -28 14 -34 -3 -5 -1 -7 4 -4 6 4 22 -11 36 -32 20 -30 23 -41 14 -50 -9 -9 -8 -11 7 -5 13 5 17 4 12 -4 -4 -7 -2 -12 4 -12 6 0 8 -4 5 -10 -3 -5 -2 -10 2 -10 5 0 22 -25 37 -56 23 -46 26 -58 15 -65 -12 -8 -6 -13 12 -11 6 1 38 -69 44 -95 2 -6 8 -28 15 -48 6 -20 9 -43 6 -51 -3 -9 -1 -12 4 -9 8 5 13 -4 9 -17 0 -2 4 -15 10 -31 15 -38 29 -103 37 -172 3 -22 9 -56 14 -75 6 -23 6 -36 0 -38 -6 -2 -10 -18 -9 -35 0 -27 2 -29 9 -12 7 17 9 14 9 -13 1 -20 -3 -31 -9 -27 -5 3 -10 2 -10 -3 0 -6 7 -13 16 -16 14 -5 14 -9 3 -23 -8 -9 -9 -14 -3 -10 40 24 31 -939 -9 -965 -9 -6 -9 -10 -1 -15 6 -5 10 -19 8 -33 -3 -25 -12 -114 -19 -180 -4 -49 -14 -117 -25 -171 -11 -57 -6 -90 17 -107 49 -36 96 7 107 97 4 30 8 64 11 75 2 12 7 50 10 86 3 35 10 98 16 140 5 41 12 120 15 175 3 55 7 138 10 185 14 238 7 709 -12 754 -5 13 -4 17 3 13 7 -4 10 0 8 10 -13 65 -14 87 -5 73 8 -13 10 -12 10 3 0 9 -7 17 -16 17 -9 0 -14 6 -11 13 2 6 9 11 15 10 6 -1 7 7 4 19 -5 21 -6 21 -12 2 -7 -18 -7 -18 -14 3 -4 13 -5 26 -2 31 2 4 -1 37 -9 72 -7 36 -20 100 -28 143 -9 43 -14 85 -11 95 4 12 3 13 -3 4 -6 -8 -15 6 -27 45 -29 93 -105 263 -144 321 -13 19 -21 41 -18 49 3 8 2 12 -3 9 -11 -7 -56 52 -56 73 0 9 -6 16 -12 16 -14 0 -45 39 -38 49 3 3 2 4 -1 2 -8 -6 -100 95 -96 106 1 5 -1 7 -6 4 -12 -7 -88 61 -84 75 1 6 -2 8 -7 4 -6 -3 -29 9 -53 26 -61 44 -158 99 -174 99 -8 0 -14 4 -14 9 0 4 -21 16 -47 26 -27 9 -66 26 -88 36 -22 10 -51 20 -65 23 -14 2 -25 5 -25 6 0 1 -17 6 -47 13 -7 1 -18 6 -24 9 -5 4 -34 10 -63 14 l-53 7 50 26 c130 66 204 126 279 226 47 62 119 201 127 245 3 14 5 25 6 25 1 0 3 9 4 20 2 11 6 40 11 65 10 53 13 290 4 284 -6 -3 -16 28 -26 83 -2 13 -13 44 -23 69 -11 25 -17 51 -13 57 3 7 2 9 -2 4 -5 -4 -20 12 -34 35 -14 24 -30 49 -35 56 -6 6 -38 45 -71 86 -33 41 -67 77 -75 80 -24 9 -115 77 -115 86 0 5 -4 12 -9 17 -5 5 -6 3 -2 -4 9 -17 1 -16 -33 2 -16 8 -31 11 -35 8 -3 -4 -6 -1 -6 5 0 7 -8 12 -18 12 -10 0 -22 3 -26 8 -4 4 -12 8 -17 8 -5 1 -11 3 -14 4 -3 1 -9 4 -15 5 -5 1 -11 4 -12 5 -2 1 -14 4 -28 6 -14 1 -41 5 -60 8 -93 15 -144 17 -202 7 -144 -24 -126 -19 -241 -70 -26 -12 -53 -18 -60 -15 -7 4 -9 4 -5 -1 4 -4 -23 -29 -60 -55 -37 -26 -85 -67 -106 -90 -36 -38 -41 -41 -52 -25 -12 16 -13 16 -11 -3 0 -11 5 -18 9 -16 17 11 7 -13 -20 -46 -16 -19 -34 -45 -41 -58 -7 -12 -17 -20 -23 -16 -6 4 -8 3 -4 -4 3 -6 0 -26 -8 -44 -17 -39 -29 -70 -30 -80 -1 -3 -4 -10 -8 -14 -5 -4 -8 -14 -8 -23 0 -9 -6 -28 -14 -42 -21 -40 -16 -331 7 -380 9 -20 14 -39 11 -42 -4 -3 1 -16 10 -28 12 -18 13 -26 3 -38 -7 -8 -7 -12 -2 -9 6 4 25 -22 43 -58 17 -36 27 -62 22 -59 -6 3 -10 2 -10 -3 0 -5 10 -12 21 -15 15 -4 20 -11 15 -22 -3 -9 -2 -13 4 -10 14 9 40 -38 35 -63 -2 -13 0 -20 6 -17 5 4 7 11 4 16 -4 5 -3 9 2 9 4 -1 26 -23 47 -50 22 -28 45 -50 53 -50 17 0 53 -32 47 -42 -3 -4 1 -5 9 -2 8 3 18 1 22 -5 3 -6 1 -11 -5 -11 -6 0 -8 -5 -4 -11 5 -8 9 -8 14 1 5 9 21 5 59 -14 28 -15 51 -31 51 -37 0 -5 -4 -8 -9 -4 -5 3 -13 1 -16 -5 -5 -8 -12 -7 -23 2 -11 9 -14 9 -9 1 5 -8 -2 -15 -20 -19 -15 -3 -41 -12 -58 -19 -16 -7 -41 -16 -55 -20 -23 -7 -55 -22 -133 -62 -15 -8 -32 -11 -39 -7 -7 4 -8 3 -4 -4 4 -7 3 -12 -3 -12 -5 0 -16 -6 -23 -13 -7 -7 -30 -23 -50 -35 -20 -13 -58 -41 -84 -62 -26 -22 -51 -37 -55 -35 -4 3 -6 -3 -5 -12 1 -12 -7 -18 -22 -19 -12 -1 -26 -5 -30 -9 -4 -5 2 -5 13 -1 17 6 16 3 -6 -21 -15 -15 -38 -41 -52 -56 -14 -15 -27 -24 -29 -20 -3 4 -4 4 -3 -2 5 -21 -15 -55 -31 -55 -10 0 -15 -3 -11 -6 3 -4 -6 -25 -22 -48 -15 -22 -36 -59 -46 -81 -20 -43 -40 -67 -48 -58 -3 3 -6 -3 -6 -13 1 -29 -8 -60 -25 -86 -8 -13 -15 -26 -15 -31 0 -4 -9 -28 -21 -53 -11 -26 -20 -50 -20 -55 0 -5 -11 -42 -25 -83 -14 -41 -27 -85 -29 -97 -2 -13 -9 -23 -16 -21 -8 2 -10 -3 -6 -13 6 -16 -51 -285 -71 -335 -3 -8 -7 -24 -8 -35 -4 -33 -32 -128 -50 -170 -10 -22 -18 -47 -19 -55 -2 -31 -60 -179 -67 -174 -5 3 -6 -1 -3 -9 3 -8 -11 -50 -31 -95 -19 -44 -35 -84 -35 -89 0 -5 -7 -18 -15 -28 -9 -11 -29 -44 -46 -72 -17 -32 -36 -53 -47 -53 -10 0 -13 -3 -6 -8 8 -5 6 -15 -6 -34 l-16 -27 -46 78 c-26 42 -48 83 -50 91 -2 8 -6 17 -9 20 -28 22 -131 277 -123 304 4 15 3 17 -4 8 -7 -11 -11 -8 -17 10 -10 33 -12 38 -15 41 -1 1 -3 9 -5 17 -1 8 -13 47 -25 87 -12 40 -19 77 -15 83 3 5 0 10 -8 10 -13 0 -21 23 -33 95 -1 11 -5 31 -8 45 -3 14 -14 62 -23 108 -9 45 -21 82 -26 82 -4 0 -5 9 -2 20 4 12 2 20 -5 20 -6 0 -9 4 -6 8 3 5 -2 33 -10 63 -8 30 -24 88 -35 129 -10 41 -24 79 -29 84 -6 6 -10 16 -10 24 0 14 -18 58 -47 119 -9 18 -13 39 -9 48 3 9 2 13 -4 10 -11 -7 -72 109 -62 120 4 5 2 5 -4 2 -7 -4 -14 -1 -17 7 -3 8 -28 45 -56 84 -27 39 -47 73 -43 77 4 4 2 5 -3 4 -11 -3 -160 142 -157 153 1 4 -5 5 -13 2 -8 -4 -17 1 -21 10 -3 9 -12 16 -20 16 -8 0 -14 4 -14 9 0 6 -13 18 -29 27 -17 10 -28 21 -25 26 3 5 2 7 -3 6 -7 -2 -96 40 -153 71 -8 5 -26 13 -40 19 -14 5 -38 15 -55 22 -16 6 -31 11 -33 11 -1 -1 -15 5 -31 13 -15 8 -41 17 -57 19 -16 2 -29 9 -29 15 0 5 -4 14 -8 19 -5 4 -7 3 -5 -2 4 -12 -5 -15 -39 -14 -27 2 -28 2 -3 6 14 3 33 12 42 20 10 9 29 16 42 16 14 0 24 3 21 7 -3 4 12 19 33 33 95 65 252 242 252 285 0 9 3 12 6 9 6 -6 48 97 59 143 2 8 4 15 5 15 1 0 3 11 6 25 2 14 9 46 15 73 11 45 7 203 -6 257 -3 14 -8 37 -10 52 -2 15 -9 37 -15 49 -7 11 -9 23 -6 26 3 3 -2 12 -10 21 -9 8 -13 23 -11 34 3 10 1 15 -4 12 -5 -3 -17 12 -25 33 -40 96 -160 229 -272 300 -29 19 -50 38 -47 43 3 6 0 8 -7 5 -16 -6 -160 49 -153 58 3 4 0 3 -6 -2 -12 -10 -63 2 -85 20 -11 9 -14 9 -14 -1 0 -8 -7 -10 -17 -5 -29 11 -167 16 -183 6z m272 -160 c31 -10 59 -17 62 -14 3 4 6 2 6 -4 0 -5 6 -10 13 -10 16 0 97 -53 97 -64 0 -5 3 -8 8 -7 4 1 21 -5 37 -15 17 -9 27 -16 24 -17 -3 0 18 -24 47 -54 39 -41 51 -59 47 -75 -5 -19 5 -26 23 -18 14 5 57 -101 58 -145 1 -27 8 -54 15 -60 12 -11 13 -9 6 7 -11 31 -14 66 -5 60 5 -3 7 -12 3 -20 -3 -8 1 -15 8 -15 7 0 9 -3 6 -6 -3 -4 -2 -15 4 -26 7 -14 7 -23 -2 -34 -6 -8 -9 -17 -5 -21 3 -3 6 0 6 8 0 12 2 12 10 -1 5 -8 5 -21 0 -29 -5 -9 -4 -23 1 -33 11 -20 1 -203 -10 -203 -2 0 -4 -11 -7 -25 -13 -74 -154 -290 -190 -290 -7 0 -16 -5 -20 -12 -5 -7 -3 -8 6 -3 8 5 11 3 9 -4 -3 -7 -8 -12 -12 -11 -5 1 -19 -10 -32 -25 -14 -14 -28 -26 -32 -27 -5 0 -24 -11 -43 -23 -19 -11 -51 -27 -70 -35 -19 -7 -39 -17 -44 -22 -6 -4 -20 -8 -32 -8 -13 0 -25 -4 -29 -9 -3 -6 -13 -10 -23 -10 -9 0 -51 -2 -93 -5 -42 -3 -103 0 -135 6 -75 14 -200 64 -196 78 1 6 -2 9 -7 5 -20 -12 -140 73 -134 95 1 4 -8 11 -20 14 -28 7 -99 98 -101 130 0 13 -4 22 -9 19 -11 -7 -38 63 -31 84 4 14 3 15 -4 4 -12 -16 -17 -8 -27 44 -4 22 -10 49 -13 60 -14 59 -10 211 8 279 23 90 78 209 92 200 6 -4 8 -2 5 3 -10 15 62 105 76 97 7 -4 9 -4 5 0 -3 4 1 17 10 28 26 30 141 119 160 123 9 2 33 10 52 18 118 50 306 59 422 18z m3298 19 c0 -5 5 -10 11 -10 5 0 7 5 4 10 -9 15 103 12 183 -5 84 -17 168 -55 241 -109 102 -74 218 -213 206 -245 -3 -9 -3 -12 1 -8 4 3 16 -12 27 -34 14 -28 17 -43 9 -48 -7 -4 -8 -12 -2 -21 9 -13 10 -13 10 0 1 25 20 -15 26 -52 11 -76 12 -101 4 -192 -8 -98 -45 -230 -61 -221 -5 4 -6 0 -4 -7 7 -17 -59 -119 -111 -174 -63 -66 -132 -117 -149 -110 -9 3 -13 2 -10 -4 7 -11 -112 -70 -142 -70 -11 0 -23 -3 -27 -7 -4 -5 -15 -8 -24 -9 -10 0 -53 -3 -97 -7 -77 -7 -185 10 -169 25 3 4 -3 4 -14 2 -21 -6 -182 54 -182 67 0 5 -4 9 -10 9 -11 0 -84 54 -115 85 -47 48 -95 123 -89 141 4 13 3 15 -3 7 -7 -9 -14 -2 -26 25 -9 20 -24 55 -34 77 -9 22 -18 47 -19 55 -1 8 -4 35 -7 60 -4 32 -4 38 2 20 8 -23 9 -23 10 -4 1 12 -6 27 -15 35 -12 10 -15 28 -11 91 2 43 7 81 10 85 4 3 7 20 7 36 0 42 38 144 74 197 62 94 120 161 133 156 8 -3 12 -2 9 3 -7 10 16 30 67 59 41 24 51 27 43 14 -3 -5 1 -9 9 -9 11 0 12 4 4 14 -19 22 92 62 224 82 4 0 7 -3 7 -9z"/>
</g>
</svg>
