<?xml version="1.0" standalone="no"?>
<!DOCTYPE svg PUBLIC "-//W3C//DTD SVG 20010904//EN" "http://www.w3.org/TR/2001/REC-SVG-20010904/DTD/svg10.dtd">
<svg xmlns="http://www.w3.org/2000/svg" version="1.0" width="768.000000pt" height="768.000000pt" viewBox="0 0 768.000000 768.000000" preserveAspectRatio="xMidYMid meet">
<metadata>
Created by potrace 1.16, written by Peter Selinger 2001-2019
<meta name="Producer" content="Online-Convert"/></metadata>
<g transform="translate(0.000000,768.000000) scale(0.100000,-0.100000)" fill="#000000" stroke="none">
<path d="M2235 6304 c-27 -7 -36 -10 -20 -7 17 4 687 7 1490 8 l1460 0 -1460 -7 c-803 -3 -1489 -8 -1525 -11 -36 -2 -74 -9 -85 -16 -17 -11 -18 -12 -2 -7 11 3 31 8 45 11 l27 5 -25 -11 c-14 -6 -47 -13 -74 -14 -26 -2 -53 -9 -60 -15 -8 -8 -4 -9 18 0 16 6 31 9 33 6 3 -2 -6 -7 -19 -11 -36 -12 -129 -56 -173 -82 -32 -19 -35 -20 -16 -4 13 12 19 21 15 21 -5 0 -23 -13 -39 -28 -17 -15 -24 -22 -15 -17 13 9 13 8 1 -8 -8 -10 -20 -16 -27 -13 -7 3 -18 -3 -26 -12 -12 -16 -11 -16 7 -2 19 14 19 14 6 -3 -7 -9 -19 -16 -25 -15 -6 2 -24 -7 -40 -20 -16 -12 -25 -22 -20 -22 4 0 19 10 32 23 14 12 22 17 18 10 -3 -6 -25 -26 -49 -45 -24 -18 -36 -24 -27 -13 8 11 -3 4 -23 -14 -36 -34 -50 -60 -24 -45 6 4 3 -2 -7 -14 -23 -26 -34 -29 -15 -4 11 14 10 13 -9 -2 -23 -20 -31 -43 -10 -30 7 4 8 3 4 -5 -4 -6 -11 -9 -16 -6 -5 3 -11 1 -15 -5 -3 -5 0 -10 7 -10 7 0 2 -6 -11 -13 -14 -6 -26 -18 -29 -26 -3 -9 0 -11 8 -6 9 5 11 4 6 -4 -4 -6 -11 -9 -16 -6 -5 3 -14 -3 -19 -14 -14 -26 -14 -34 1 -25 7 4 8 3 4 -5 -4 -6 -11 -9 -16 -6 -5 3 -14 -4 -20 -15 -8 -14 -8 -20 0 -20 6 0 8 -5 5 -10 -4 -6 -10 -8 -14 -5 -12 7 -31 -41 -26 -65 2 -11 0 -18 -5 -15 -6 4 -15 -5 -21 -19 -9 -20 -9 -29 1 -41 10 -12 10 -15 -3 -15 -22 0 -45 -75 -30 -98 5 -10 7 -26 3 -37 l-7 -20 -5 20 c-2 11 -10 -11 -16 -50 -18 -102 -13 -3931 5 -3928 7 2 10 -3 7 -10 -2 -7 10 -27 29 -45 l33 -32 2409 3 c1441 1 2418 6 2429 11 15 7 18 6 11 -5 -4 -8 6 -1 23 15 32 30 43 54 20 40 -8 -4 -10 -3 -5 2 5 5 14 9 20 9 6 0 15 18 19 39 13 63 4 3884 -9 3926 -7 24 -12 28 -13 15 l-1 -20 -8 20 c-5 11 -4 28 1 39 12 22 -6 96 -23 96 -6 0 -8 8 -4 19 8 25 -14 71 -34 72 -10 0 -12 2 -3 6 6 2 12 9 12 14 0 6 -4 8 -9 5 -5 -3 -8 2 -7 12 0 9 -4 16 -10 15 -8 -1 -10 6 -6 19 3 13 1 19 -5 15 -6 -4 -10 1 -9 11 0 9 -4 16 -11 15 -7 -2 -10 4 -7 12 7 17 -14 48 -26 40 -5 -3 -12 0 -16 6 -5 8 -3 9 6 4 10 -6 12 -4 7 9 -4 10 -7 20 -7 22 0 2 -6 4 -14 4 -8 0 -13 7 -12 16 0 9 -5 19 -13 22 -10 3 -11 0 -5 -9 6 -12 5 -11 -10 0 -11 9 -13 17 -6 21 7 4 5 12 -6 21 -12 9 -15 10 -10 2 11 -19 1 -16 -15 4 -10 11 -10 14 -1 9 54 -32 -57 84 -153 160 -57 45 -147 104 -161 104 -4 0 18 -17 51 -37 72 -44 188 -138 230 -184 19 -22 12 -17 -20 12 -118 108 -242 191 -334 225 -25 10 -50 21 -56 26 -5 5 3 4 18 -1 39 -15 47 -13 17 4 -14 7 -35 11 -47 8 -12 -3 -44 2 -70 10 -48 15 -168 35 -253 41 -25 2 -4 2 45 0 50 -2 106 -6 125 -9 19 -2 8 2 -25 10 -34 8 -103 14 -160 13 -64 -1 -89 -4 -70 -8 l30 -8 -32 -1 c-17 0 -35 4 -38 9 -4 7 -495 10 -1443 9 -1181 -1 -1446 -3 -1487 -15z m3278 -181 c77 -25 243 -106 270 -131 16 -17 14 -20 -35 -67 l-53 -50 45 50 45 50 -52 -49 c-29 -28 -48 -53 -43 -56 13 -8 -93 -112 -110 -108 -7 2 -15 -3 -18 -11 -3 -10 0 -11 9 -5 12 6 12 5 0 -9 -8 -10 -16 -15 -19 -12 -7 6 -52 -35 -52 -47 0 -5 5 -6 10 -3 21 13 9 -2 -32 -40 l-43 -40 35 40 35 40 -43 -40 c-38 -35 -57 -66 -32 -50 18 11 11 -1 -12 -21 -22 -19 -23 -19 -8 1 15 20 14 20 -8 1 -13 -12 -18 -22 -12 -26 13 -8 -33 -52 -50 -48 -7 2 -15 -3 -18 -11 -3 -8 0 -11 7 -7 17 11 13 0 -6 -15 -15 -12 -16 -12 -8 1 8 13 7 13 -9 1 -9 -8 -15 -20 -12 -27 2 -6 -7 -22 -22 -35 l-27 -24 25 30 25 30 -33 -29 c-30 -28 -45 -55 -22 -41 16 10 11 -1 -7 -16 -15 -12 -16 -12 -8 1 8 13 7 13 -9 1 -11 -9 -13 -17 -6 -21 7 -4 5 -12 -6 -21 -15 -11 -16 -12 -10 0 6 9 5 12 -5 9 -8 -3 -14 -13 -14 -24 0 -10 -7 -19 -15 -19 -8 -1 -14 -6 -12 -13 1 -7 -5 -12 -13 -12 -8 0 -15 -5 -15 -11 0 -5 5 -7 10 -4 16 10 11 -1 -7 -16 -15 -12 -16 -12 -8 1 8 13 7 13 -8 1 -20 -16 -23 -36 -4 -25 8 5 8 3 -2 -9 -7 -9 -17 -15 -21 -12 -4 3 -13 -2 -20 -10 -10 -12 -10 -15 1 -15 8 0 3 -6 -11 -13 -14 -8 -24 -19 -22 -25 1 -7 -5 -12 -13 -12 -8 0 -15 -5 -15 -11 0 -5 6 -7 13 -3 7 4 9 3 4 -2 -5 -5 -14 -9 -19 -9 -6 0 -13 -6 -16 -14 -3 -9 0 -11 8 -6 7 4 2 -6 -11 -24 -28 -38 -38 -41 -14 -3 l18 27 -27 -25 c-15 -13 -24 -30 -22 -37 3 -7 0 -15 -6 -19 -7 -5 -8 -2 -3 7 8 12 6 12 -8 0 -19 -15 -23 -36 -5 -25 7 4 8 3 4 -5 -4 -6 -11 -9 -16 -6 -5 3 -14 -4 -20 -15 -8 -14 -8 -20 0 -20 6 0 8 -5 5 -10 -4 -6 -14 -9 -22 -8 -9 2 -18 -3 -21 -11 -3 -9 0 -11 8 -6 9 5 11 4 6 -3 -4 -7 -14 -12 -22 -12 -8 0 -14 -2 -14 -4 0 -2 -3 -12 -7 -22 -5 -13 -3 -15 8 -9 8 5 11 5 6 -1 -5 -5 -12 -9 -15 -9 -13 0 -32 -16 -32 -27 0 -7 6 -6 15 2 24 20 18 5 -7 -16 -12 -10 -18 -13 -14 -6 4 6 5 12 2 12 -6 0 -56 -76 -56 -85 0 -4 6 -3 13 1 8 5 8 2 -2 -9 -15 -18 -26 -23 -16 -7 3 6 4 10 1 10 -11 0 -57 -81 -51 -90 4 -6 0 -10 -8 -10 -8 0 -17 -7 -21 -15 -3 -8 -1 -15 4 -15 5 0 6 -8 3 -17 -4 -11 -8 -13 -11 -5 -3 10 -7 10 -18 1 -17 -14 -19 -43 -2 -33 7 4 8 3 4 -5 -4 -6 -11 -9 -16 -6 -5 3 -14 -3 -19 -14 -14 -26 -14 -34 1 -25 7 4 8 3 4 -5 -4 -6 -11 -9 -16 -6 -12 7 -43 -52 -35 -66 4 -5 1 -8 -6 -7 -7 2 -15 -5 -17 -16 -3 -13 0 -16 10 -10 11 6 11 5 -1 -9 -7 -9 -17 -14 -22 -11 -5 3 -14 -7 -19 -21 -13 -34 -13 -38 2 -29 7 4 8 3 4 -5 -4 -6 -12 -9 -17 -6 -5 4 -14 -6 -19 -20 -13 -34 -13 -38 2 -29 7 4 8 3 4 -5 -4 -6 -12 -9 -17 -6 -5 4 -14 -6 -19 -20 -13 -34 -13 -38 3 -29 7 4 9 3 4 -2 -5 -5 -14 -9 -20 -9 -7 0 -13 -8 -15 -17 -2 -10 2 -18 8 -18 6 0 8 -5 5 -10 -4 -6 -11 -7 -17 -4 -7 5 -9 1 -5 -9 4 -10 2 -16 -6 -14 -6 1 -13 -9 -15 -22 -3 -16 0 -21 9 -16 8 5 10 4 5 -4 -4 -6 -12 -9 -17 -6 -5 4 -14 -6 -20 -22 -7 -18 -7 -29 0 -31 5 -2 7 -10 4 -18 -5 -13 -8 -13 -15 -2 -7 9 -8 7 -5 -9 3 -14 0 -21 -7 -20 -6 1 -10 -9 -9 -25 1 -16 -2 -28 -8 -28 -5 0 -9 -5 -9 -11 0 -5 5 -7 12 -3 7 4 8 3 4 -5 -4 -6 -12 -9 -17 -6 -15 10 -22 -24 -9 -40 11 -13 7 -19 -11 -17 -3 1 -12 -17 -19 -38 -11 -32 -11 -42 0 -55 11 -13 7 -19 -11 -17 -14 2 -31 -85 -21 -104 5 -11 6 -28 1 -39 l-8 -20 -1 20 c-1 11 -8 -2 -15 -30 -9 -30 -12 -80 -10 -130 3 -51 1 -68 -4 -45 -6 30 -9 22 -16 -55 -5 -49 -9 -144 -9 -210 l0 -120 -318 0 -318 0 -1 140 c-1 150 -14 288 -19 210 l-3 -40 -6 40 c-4 22 -3 55 2 74 10 40 -12 168 -23 136 -6 -18 -7 -18 -12 2 -3 11 -1 28 4 37 10 18 -8 116 -20 115 -19 -3 -23 2 -12 16 15 18 -5 85 -26 85 -11 0 -12 4 -3 18 13 20 -4 74 -22 70 -6 -2 -13 8 -15 22 -3 19 -2 22 6 10 7 -11 10 -12 10 -2 0 21 -20 53 -30 47 -5 -3 -7 4 -5 15 5 24 -14 72 -26 65 -4 -3 -10 -1 -14 5 -3 5 -1 10 5 10 6 0 10 8 8 18 -2 9 -8 17 -15 17 -6 0 -15 4 -20 9 -5 6 -2 6 6 1 11 -6 13 -4 8 9 -4 10 -7 22 -7 27 0 6 -4 8 -9 5 -5 -3 -8 2 -7 12 0 9 -4 16 -10 15 -8 -1 -10 6 -6 19 3 13 1 19 -5 15 -6 -4 -10 1 -9 11 0 9 -4 16 -10 15 -8 -1 -10 6 -6 19 3 13 1 19 -5 15 -6 -4 -10 1 -9 11 0 9 -5 16 -12 14 -8 -1 -11 2 -7 8 8 13 -34 102 -45 95 -5 -3 -12 0 -16 6 -4 8 -3 9 4 5 17 -10 15 6 -4 32 -8 12 -23 22 -32 22 -13 0 -14 2 -4 8 16 11 5 42 -15 42 -8 0 -12 4 -8 10 9 14 -43 90 -63 91 -10 0 -12 3 -5 6 10 3 10 10 2 24 -5 11 -14 17 -19 14 -5 -3 -12 0 -16 6 -5 8 -3 9 6 4 8 -5 11 -3 8 6 -3 8 -15 20 -29 26 -13 7 -18 13 -11 13 10 0 10 5 2 20 -6 11 -15 18 -20 15 -5 -3 -12 0 -16 6 -5 8 -3 9 6 4 8 -5 11 -3 8 6 -3 8 -15 20 -29 26 -13 7 -18 13 -11 13 7 0 10 5 7 10 -4 6 -10 8 -15 5 -5 -3 -12 0 -16 6 -4 8 -3 9 4 5 7 -4 12 -4 12 1 0 15 -19 38 -32 38 -7 1 -12 7 -10 14 3 16 -17 43 -28 36 -5 -3 -12 0 -16 6 -5 8 -3 9 6 4 8 -5 11 -3 8 6 -3 8 -11 14 -19 14 -8 1 -13 7 -11 14 3 16 -17 43 -28 36 -4 -3 -14 3 -21 13 -13 15 -12 16 4 3 9 -7 17 -9 17 -3 0 13 -25 33 -32 26 -3 -3 -9 0 -14 7 -4 8 -3 10 4 5 18 -11 14 10 -5 25 -15 12 -16 12 -8 -1 8 -13 7 -13 -8 -1 -18 15 -23 26 -7 16 17 -10 11 12 -7 26 -15 12 -16 12 -8 -1 8 -13 7 -13 -8 -1 -19 15 -23 26 -6 15 7 -4 10 -1 7 7 -3 8 -12 13 -20 11 -9 -1 -22 6 -29 15 -13 16 -12 17 4 4 25 -20 21 2 -5 25 -13 12 -18 13 -13 4 8 -13 7 -13 -8 -1 -18 15 -23 26 -7 16 21 -13 9 13 -17 36 l-28 24 20 -25 20 -25 -22 18 c-12 11 -19 24 -17 31 3 7 -3 19 -12 27 -12 9 -15 10 -10 2 11 -19 1 -16 -15 4 -12 14 -12 16 0 9 9 -6 12 -5 9 5 -3 8 -12 13 -20 11 -9 -1 -22 6 -29 15 -13 16 -12 17 4 4 30 -24 18 4 -15 35 -18 16 -24 19 -14 7 27 -32 15 -29 -15 4 -13 14 -18 23 -11 19 6 -4 12 -4 12 1 -1 13 -48 63 -60 63 -6 0 -9 4 -6 9 7 11 -39 53 -49 44 -4 -5 -5 -2 -1 5 4 7 2 12 -7 12 -8 0 -43 32 -78 72 -35 40 -58 69 -51 64 28 -17 9 13 -35 54 l-48 45 40 -45 40 -45 -48 45 c-45 43 -58 58 -37 45 6 -3 10 -2 10 2 0 13 -135 144 -142 138 -3 -3 -11 2 -19 12 -12 14 -12 15 0 9 9 -6 12 -5 9 5 -3 8 -11 13 -18 11 -7 -2 -26 9 -41 24 -26 25 -27 28 -12 39 10 7 22 11 28 8 7 -2 18 4 26 14 13 17 13 17 -6 3 -18 -14 -19 -13 -8 1 19 23 170 97 238 115 33 9 85 20 115 24 30 4 759 7 1620 6 l1565 -1 68 -22z m428 -270 c13 -14 18 -23 12 -19 -22 12 -14 -10 9 -30 22 -19 23 -19 8 1 -12 17 -12 18 0 7 8 -7 15 -20 15 -30 0 -9 11 -22 25 -29 14 -7 19 -13 12 -13 -10 0 -10 -5 -2 -20 6 -11 16 -17 22 -14 7 4 8 3 4 -5 -9 -14 42 -124 54 -116 5 3 7 -6 4 -20 -4 -24 10 -64 27 -75 4 -3 10 -19 13 -35 5 -24 4 -26 -3 -10 -13 28 -12 10 3 -60 8 -33 14 -51 15 -41 1 11 4 17 7 14 3 -4 5 -95 4 -204 -1 -174 -3 -199 -18 -211 -9 -7 -25 -11 -34 -9 -10 2 -23 -3 -30 -13 -12 -15 -11 -15 7 -1 18 13 19 13 8 0 -6 -8 -26 -23 -45 -33 l-33 -19 25 22 25 22 -33 -19 c-19 -10 -39 -25 -45 -33 -11 -13 -10 -13 7 0 14 11 17 11 12 2 -5 -8 -31 -29 -60 -48 -28 -18 -70 -48 -93 -64 -24 -17 -43 -29 -43 -27 0 3 27 24 61 48 33 24 70 52 82 62 21 17 21 17 -8 0 -43 -26 -175 -124 -175 -130 0 -3 8 1 17 8 9 8 14 9 10 2 -4 -6 -31 -28 -60 -49 -36 -25 -46 -30 -32 -14 22 26 -78 -49 -135 -100 l-35 -32 45 33 c25 18 58 44 75 58 16 14 23 18 15 8 -21 -29 -127 -107 -133 -100 -8 8 -38 -17 -32 -27 2 -4 -23 -32 -58 -61 -34 -30 -111 -101 -172 -158 l-110 -105 105 105 c58 58 132 128 164 157 33 29 56 52 50 52 -13 0 -334 -309 -334 -321 0 -6 6 -7 12 -3 7 5 -8 -15 -32 -44 -25 -29 -51 -52 -58 -52 -8 0 -10 -5 -6 -12 4 -7 3 -10 -1 -5 -5 4 -19 -3 -32 -15 -23 -21 -32 -45 -13 -33 16 10 11 -1 -7 -16 -15 -12 -16 -12 -8 1 8 13 7 13 -8 1 -19 -15 -23 -36 -5 -25 7 4 8 3 4 -5 -4 -6 -11 -9 -16 -6 -11 7 -31 -20 -28 -36 2 -7 -3 -13 -10 -14 -13 0 -32 -23 -32 -38 0 -5 6 -5 13 -1 7 4 9 3 4 -2 -5 -5 -13 -10 -18 -10 -22 -3 -23 -5 -9 -14 13 -8 12 -10 -2 -10 -20 0 -72 -75 -63 -90 4 -6 0 -10 -8 -10 -8 0 -18 -7 -21 -16 -9 -24 -7 -36 6 -28 7 4 8 3 4 -5 -4 -6 -11 -9 -16 -6 -5 3 -14 -4 -21 -16 -9 -17 -8 -23 2 -30 11 -7 11 -9 -2 -9 -19 0 -33 -26 -22 -42 3 -7 1 -8 -5 -4 -7 4 -12 3 -12 -3 0 -5 6 -12 13 -14 7 -4 6 -6 -4 -6 -9 -1 -22 -15 -29 -32 -11 -26 -11 -32 1 -40 13 -8 11 -10 -8 -8 -10 1 -34 -64 -29 -78 6 -16 3 -29 -6 -26 -13 5 -30 -96 -21 -124 5 -16 6 -46 2 -68 l-6 -40 -3 40 c-5 86 -21 -78 -18 -193 2 -68 -1 -112 -7 -112 -5 0 -43 7 -85 15 -41 8 -111 22 -155 30 -73 13 -59 14 50 1 22 -3 5 2 -37 11 l-77 16 -7 42 c-6 44 3 366 11 374 3 2 5 -11 6 -30 0 -21 6 -3 15 46 9 51 11 88 6 105 -5 14 -6 34 -1 45 l8 20 1 -20 c1 -11 8 2 16 29 9 26 13 55 10 62 -6 16 -4 30 5 27 3 -1 12 16 18 38 9 31 10 44 0 55 -9 11 -8 14 4 14 22 0 43 56 27 75 -10 12 -10 15 3 15 8 0 20 14 27 31 11 26 11 32 -1 40 -12 7 -11 9 2 9 19 0 40 41 34 69 -2 12 1 20 8 18 7 -1 11 6 11 15 -1 10 2 15 7 12 5 -3 9 -1 9 5 0 5 3 17 7 27 5 13 3 15 -7 9 -9 -5 -11 -4 -6 4 4 6 12 9 17 6 5 -4 12 1 16 10 3 10 1 20 -5 24 -7 4 -8 12 -2 21 9 13 10 13 10 0 0 -13 2 -13 14 0 20 21 32 65 16 55 -9 -5 -11 -4 -6 4 4 6 12 9 17 6 5 -4 14 6 19 20 13 34 13 38 -2 29 -8 -4 -10 -3 -5 2 5 5 14 9 20 9 7 0 12 10 11 22 0 12 4 21 10 20 6 -1 10 6 10 15 -1 10 3 15 9 11 6 -4 8 0 4 10 -4 11 -1 17 7 17 19 0 29 32 14 42 -10 6 -8 8 4 8 20 0 72 75 63 90 -4 6 0 10 8 10 17 0 31 27 16 32 -5 2 -3 12 6 23 15 20 15 20 8 0 -6 -18 -5 -19 10 -6 10 8 16 23 15 35 -2 13 3 21 11 21 8 0 16 6 19 14 3 9 0 11 -8 6 -9 -6 -9 -3 -1 14 14 25 23 28 14 4 -6 -16 -5 -16 11 -4 9 8 15 20 12 28 -3 7 1 13 9 13 8 0 15 5 15 11 0 5 -5 7 -12 3 -7 -4 -8 -3 -4 5 4 6 11 9 16 6 4 -3 15 6 24 20 18 28 21 39 6 30 -16 -10 -11 1 7 16 15 12 16 12 8 -1 -8 -13 -7 -13 8 -1 20 16 23 36 5 25 -8 -4 -10 -3 -5 2 5 5 14 9 20 9 5 0 12 6 15 14 3 9 0 11 -9 5 -11 -6 -11 -4 1 12 22 30 24 30 16 10 -7 -19 -6 -19 14 -1 21 19 28 41 8 29 -7 -4 -8 -3 -4 4 4 7 12 12 17 12 12 0 48 40 49 53 0 5 -5 5 -11 1 -6 -3 -3 5 6 20 21 32 30 34 14 4 -12 -23 -12 -23 10 -4 12 11 19 26 17 33 -3 7 0 15 6 19 7 5 8 2 3 -7 -8 -12 -6 -12 8 0 18 14 24 36 7 26 -16 -10 -11 1 7 16 15 12 16 12 8 -1 -8 -13 -7 -13 8 -1 18 14 24 36 7 26 -16 -10 -11 1 7 16 15 12 16 12 8 -1 -8 -13 -7 -13 9 -1 13 11 14 16 4 22 -13 8 -8 11 21 13 8 1 16 7 19 15 3 10 0 11 -9 5 -12 -7 -12 -5 0 9 16 20 26 23 15 5 -5 -9 -2 -9 9 1 18 14 24 36 7 26 -18 -11 -11 1 12 21 22 19 23 19 8 -1 -15 -20 -14 -20 8 -1 22 19 31 43 12 31 -18 -11 -11 1 12 21 22 19 23 19 8 -1 -11 -15 -7 -14 13 4 28 25 39 53 12 31 -24 -20 -18 -5 7 16 12 10 18 13 13 5 -5 -9 -3 -12 6 -9 8 3 14 13 14 24 0 10 7 19 15 19 8 1 14 6 12 13 -1 7 2 12 8 12 11 0 79 71 80 83 0 5 -4 5 -10 2 -20 -12 -9 2 22 31 l33 29 -25 -30 c-22 -27 -21 -27 13 4 35 33 54 68 22 41 -29 -24 -15 -3 22 31 20 18 32 28 28 20 -5 -9 -3 -12 6 -9 8 3 14 12 14 21 0 9 3 16 7 14 9 -3 88 74 88 86 0 4 -6 5 -12 1 -7 -4 21 28 62 70 41 42 77 76 79 76 3 0 -26 -33 -64 -72 l-70 -73 78 75 c70 67 98 104 65 84 -9 -5 -9 -2 1 9 18 23 23 22 52 -10z m-4131 -50 l65 -68 -60 55 -59 55 49 -56 c28 -31 56 -57 63 -58 7 -1 11 -5 8 -9 -5 -9 63 -81 77 -82 4 0 6 -2 5 -3 -5 -7 24 -37 31 -32 4 2 28 -17 52 -42 24 -26 36 -41 27 -34 -37 28 -16 -7 29 -49 38 -35 41 -37 13 -7 -46 51 -34 47 15 -4 22 -23 34 -39 28 -35 -25 14 -13 -11 19 -40 32 -28 32 -28 9 -1 -34 38 -21 34 15 -5 16 -17 23 -28 17 -24 -7 4 -13 3 -13 -2 0 -12 45 -53 52 -47 3 3 11 -2 19 -12 12 -14 12 -15 0 -9 -9 6 -12 5 -9 -5 3 -8 12 -13 20 -11 9 1 33 -19 54 -45 21 -26 33 -44 26 -39 -24 15 -11 -11 20 -40 l33 -29 -25 30 -25 30 26 -23 c15 -13 26 -31 25 -40 0 -9 6 -17 14 -17 8 0 15 -9 15 -19 0 -11 6 -21 14 -24 10 -3 11 0 5 9 -6 12 -5 11 10 0 11 -9 13 -17 6 -21 -7 -4 -5 -12 6 -21 12 -9 15 -10 10 -1 -11 18 -1 15 15 -5 10 -11 10 -14 2 -9 -19 11 -16 -9 4 -25 11 -10 14 -10 9 -1 -11 18 -1 15 15 -5 10 -11 10 -14 2 -9 -19 11 -16 -9 4 -25 15 -12 16 -12 8 1 -5 9 -4 12 1 7 5 -5 9 -16 9 -24 0 -9 6 -18 14 -21 10 -3 11 0 5 9 -6 11 -4 11 10 -1 11 -8 14 -16 7 -18 -8 -3 -8 -9 0 -23 5 -11 14 -17 19 -14 5 3 12 0 16 -6 4 -8 3 -9 -4 -5 -18 11 -14 -10 5 -25 14 -12 16 -12 8 0 -5 9 -4 12 3 7 6 -4 9 -12 6 -19 -2 -7 5 -22 17 -33 22 -19 22 -19 10 4 -16 30 -7 28 14 -4 9 -15 12 -23 5 -19 -8 5 -11 3 -8 -6 3 -8 10 -14 15 -14 6 0 15 -4 20 -9 5 -5 3 -6 -4 -2 -7 4 -13 3 -13 -3 0 -10 19 -26 32 -26 3 0 10 -4 15 -9 5 -5 3 -6 -4 -2 -7 4 -13 5 -13 1 0 -9 50 -85 56 -85 3 0 2 5 -1 10 -10 16 1 11 16 -7 10 -11 10 -14 2 -9 -7 4 -13 5 -13 1 0 -9 50 -85 56 -85 3 0 2 5 -1 10 -10 16 1 11 16 -7 10 -11 10 -14 2 -9 -16 9 -16 1 -2 -25 5 -11 14 -17 19 -14 5 3 12 0 16 -6 5 -8 3 -9 -6 -4 -8 5 -11 3 -8 -6 3 -8 10 -13 16 -12 7 2 9 -4 5 -14 -4 -10 -2 -14 5 -9 6 3 13 2 17 -4 3 -5 1 -10 -5 -10 -8 0 -8 -6 0 -20 6 -11 15 -18 20 -15 5 3 12 0 16 -6 4 -8 3 -9 -4 -5 -15 9 -15 1 -1 -25 5 -11 14 -17 19 -14 5 3 12 0 16 -6 5 -8 3 -9 -5 -4 -9 5 -12 2 -9 -11 2 -11 8 -19 15 -19 6 0 15 -4 20 -9 5 -5 3 -6 -4 -2 -16 9 -16 1 -2 -25 5 -11 14 -17 19 -14 6 4 7 -1 3 -11 -4 -11 -3 -15 5 -10 6 3 13 2 17 -4 3 -5 1 -10 -5 -10 -7 0 -10 -6 -7 -12 2 -7 9 -12 15 -11 7 2 9 -4 5 -14 -4 -10 -2 -14 5 -9 6 3 13 2 17 -4 3 -5 1 -10 -5 -10 -7 0 -10 -6 -7 -12 2 -7 9 -12 15 -11 7 2 9 -4 5 -14 -4 -10 -2 -14 5 -9 6 3 13 2 17 -4 3 -5 1 -10 -5 -10 -7 0 -10 -6 -7 -12 2 -7 9 -12 15 -11 7 2 9 -4 5 -14 -4 -10 -2 -14 5 -9 6 3 13 2 17 -4 3 -5 1 -10 -5 -10 -6 0 -10 -8 -8 -17 2 -10 8 -18 15 -18 6 0 15 -4 20 -9 5 -5 3 -6 -4 -2 -7 4 -13 2 -13 -3 0 -6 4 -11 10 -11 5 0 6 -7 3 -17 -4 -9 -2 -14 4 -10 5 3 9 -4 9 -16 -1 -12 5 -22 13 -22 8 0 15 -8 17 -18 1 -9 -2 -15 -7 -11 -12 7 -11 0 3 -31 6 -14 15 -25 20 -25 5 0 7 -8 3 -19 -6 -20 13 -71 27 -71 5 0 6 -10 3 -23 -6 -22 16 -89 28 -88 8 1 8 -4 1 -24 -8 -19 15 -107 26 -100 4 2 8 -26 8 -63 0 -37 4 -92 10 -122 9 -55 10 -55 12 -15 l3 40 6 -40 c3 -22 2 -71 -2 -110 -4 -38 -5 -108 -2 -155 l6 -86 -83 -16 c-46 -9 -65 -15 -43 -12 111 13 123 12 50 -1 -44 -8 -107 -20 -140 -26 -102 -20 -112 -19 -45 1 59 18 46 20 -30 4 l-31 -7 7 41 c3 23 3 85 -2 139 -7 89 -9 94 -15 53 -5 -29 -6 -11 -4 52 2 62 -1 112 -10 140 -8 24 -14 34 -15 23 l-1 -20 -8 20 c-5 11 -4 25 1 32 6 7 5 27 -3 53 -7 23 -15 36 -19 30 -5 -8 -9 -7 -13 4 -3 8 -1 16 4 18 16 5 -11 68 -29 68 -14 0 -14 2 -3 9 8 5 11 16 8 26 -4 9 -11 14 -16 10 -5 -3 -13 0 -17 6 -4 8 -3 9 4 5 7 -4 12 -2 12 3 0 6 -8 11 -17 12 -11 0 -13 3 -5 6 6 2 12 9 12 14 0 6 -4 8 -9 5 -5 -3 -8 2 -7 12 0 9 -5 16 -12 14 -8 -1 -11 2 -7 8 7 11 -30 96 -45 105 -5 3 -10 0 -12 -7 -3 -8 -7 -6 -11 5 -3 9 -2 17 4 17 6 0 6 7 -1 20 -6 11 -15 18 -20 15 -5 -3 -12 0 -16 6 -4 8 -3 9 4 5 17 -10 15 -1 -8 36 -11 18 -25 33 -32 33 -7 1 -12 7 -10 14 3 16 -17 43 -28 36 -5 -3 -12 0 -16 6 -4 8 -3 9 4 5 18 -11 14 10 -5 25 -15 12 -16 12 -8 -1 8 -13 7 -13 -8 -1 -18 15 -23 26 -7 16 17 -10 11 12 -7 26 -15 12 -16 12 -8 -1 8 -13 7 -13 -8 -1 -19 15 -23 26 -6 15 7 -4 10 -1 7 7 -3 8 -12 13 -20 11 -9 -1 -22 6 -29 15 -13 16 -12 17 4 4 35 -27 16 6 -25 44 -31 29 -35 31 -14 8 41 -45 28 -42 -15 4 -18 20 -28 33 -21 29 6 -4 12 -3 12 3 0 11 -321 321 -333 321 -5 0 18 -23 50 -52 32 -29 105 -99 163 -157 l105 -105 -105 100 c-58 55 -141 133 -185 173 -44 41 -71 68 -60 60 11 -7 7 1 -10 19 -16 18 -34 31 -40 29 -11 -4 -113 71 -135 100 -8 10 -1 7 15 -7 17 -14 41 -34 55 -45 24 -19 24 -19 10 -1 -8 11 -69 59 -135 108 -66 49 -128 96 -138 104 -10 8 -24 13 -30 11 -7 -2 -53 24 -102 58 -50 34 -104 69 -120 78 -17 9 -24 16 -17 17 14 0 16 219 3 322 -4 31 -4 65 0 75 7 17 8 17 9 -2 1 -11 9 9 17 44 12 53 13 65 1 72 -11 8 -5 13 13 11 3 -1 11 15 18 35 11 29 11 37 0 44 -11 7 -11 9 2 9 22 0 45 50 27 61 -12 8 -4 13 16 10 5 -1 6 5 2 14 -3 9 -2 14 3 11 5 -3 18 10 30 30 25 42 26 51 6 34 -24 -20 -18 -5 7 16 13 12 18 13 13 4 -8 -13 -7 -13 8 -1 20 16 23 36 5 25 -8 -4 -10 -3 -5 2 5 5 14 9 20 9 5 0 12 6 15 14 3 9 0 11 -9 6 -12 -7 -12 -5 -1 6 7 8 17 15 23 15 5 1 14 2 20 3 5 0 7 6 4 11 -4 6 -11 7 -17 4 -7 -4 -8 -2 -4 4 4 7 8 12 9 12 2 0 32 -30 67 -67z m-463 -3375 c-1 -535 -2 -100 -2 967 0 1067 1 1505 2 973 2 -531 2 -1404 0 -1940z m4990 14 c-1 -521 -2 -94 -2 948 0 1042 1 1469 2 947 2 -521 2 -1373 0 -1895z m-4791 2326 c4 -7 3 -8 -4 -4 -7 4 -12 4 -12 -1 0 -4 17 -16 38 -26 l37 -18 -25 21 -25 22 33 -19 c19 -10 39 -25 45 -33 10 -13 10 -13 -5 -1 -10 7 -18 11 -18 8 0 -5 77 -64 160 -122 30 -21 58 -43 62 -49 4 -6 10 -8 13 -4 3 3 -13 19 -37 36 -56 40 -107 78 -138 103 l-25 20 31 -18 c17 -10 44 -28 60 -41 16 -13 79 -61 141 -108 62 -47 115 -90 119 -96 4 -7 3 -8 -4 -4 -7 4 -12 4 -12 -1 1 -12 49 -45 59 -39 8 5 189 -150 226 -195 l20 -24 -25 20 -25 20 24 -27 c13 -15 28 -25 34 -21 6 3 7 1 4 -4 -4 -6 0 -16 8 -23 8 -7 15 -9 15 -4 0 4 14 -5 31 -22 40 -37 118 -130 102 -120 -25 15 -12 -11 19 -40 l33 -29 -25 30 -25 30 26 -23 c15 -13 26 -31 25 -40 0 -8 9 -21 22 -27 30 -16 41 -28 17 -19 -18 7 -18 6 -6 -9 7 -9 17 -15 21 -12 5 3 12 0 16 -6 4 -8 3 -9 -4 -5 -18 11 -14 -10 5 -25 14 -12 16 -12 8 0 -5 9 -4 12 3 7 6 -4 9 -13 5 -21 -7 -20 17 -51 27 -35 5 8 9 7 13 -4 4 -9 2 -16 -3 -16 -5 0 -7 -7 -4 -15 4 -8 13 -15 21 -15 8 0 12 -4 9 -9 -7 -10 31 -86 43 -86 5 0 13 -4 18 -9 5 -5 2 -6 -6 -1 -18 10 -5 -34 16 -55 9 -8 13 -9 9 -2 -10 18 -1 15 15 -5 10 -11 10 -14 2 -9 -8 4 -13 1 -13 -9 0 -23 19 -57 29 -51 4 3 7 -9 7 -27 -1 -19 4 -31 10 -30 7 1 10 -6 7 -20 -3 -16 -2 -18 5 -9 8 11 10 11 15 -1 3 -8 1 -19 -5 -25 -10 -10 9 -92 21 -90 18 2 21 -4 11 -21 -7 -14 -6 -43 2 -97 9 -56 14 -71 18 -54 l6 25 5 -25 c2 -14 2 -74 -2 -135 -3 -60 -6 -99 -8 -85 -3 20 -5 17 -11 -15 -5 -25 -4 -42 3 -47 6 -3 -10 -12 -34 -18 -99 -28 -247 -72 -299 -90 -30 -11 -89 -31 -130 -45 -41 -14 -84 -30 -95 -35 -11 -5 -45 -19 -75 -30 -30 -12 -64 -26 -75 -31 -11 -4 -49 -20 -85 -35 -36 -14 -71 -31 -77 -36 -7 -6 -23 -8 -35 -5 -13 3 -32 -1 -42 -9 -23 -16 -14 -19 15 -4 10 6 19 8 19 6 0 -11 -276 -138 -303 -140 -15 -1 -33 -8 -40 -15 -10 -10 -6 -10 18 -1 23 9 27 9 18 -1 -6 -6 -24 -11 -40 -11 -15 0 -37 -7 -48 -14 -23 -16 -12 -19 16 -4 10 6 19 8 19 6 0 -3 -18 -14 -41 -25 -22 -11 -36 -14 -30 -7 13 15 21 2496 9 2496 -4 0 -9 -141 -11 -312 l-3 -313 -1 323 c-2 313 -1 322 17 312 10 -6 22 -15 26 -22z m4624 -1229 c0 -688 2 -1254 4 -1258 6 -8 -423 205 -432 215 -4 3 3 2 15 -5 30 -16 41 -14 17 3 -10 8 -29 12 -42 9 -12 -3 -28 -1 -35 5 -6 6 -37 20 -67 32 -30 12 -68 27 -85 34 -99 43 -235 93 -390 144 -206 68 -251 82 -269 82 -23 0 -68 23 -57 29 5 4 5 23 1 46 -5 25 -8 31 -9 16 0 -13 -4 -22 -7 -19 -3 3 -5 68 -5 143 0 75 2 140 5 143 3 3 6 -6 7 -19 1 -13 7 10 15 51 8 41 11 82 8 90 -6 16 -3 26 7 23 3 -1 12 16 18 38 9 31 10 44 0 55 -9 11 -8 14 4 14 17 0 30 27 20 42 -3 6 -1 8 4 5 13 -8 27 39 17 55 -4 6 -3 8 4 4 6 -3 14 -1 18 5 3 6 0 15 -7 20 -11 7 -11 9 2 9 9 0 21 11 27 25 8 17 8 25 1 25 -6 0 -7 5 -4 10 4 6 11 7 17 4 7 -5 9 -1 5 9 -4 10 -2 16 5 14 7 -1 14 6 16 17 2 11 0 16 -7 12 -17 -11 -13 0 6 15 15 12 16 12 8 -1 -8 -13 -7 -13 9 -1 10 8 15 23 13 33 -3 10 0 21 5 25 7 4 8 1 3 -8 -8 -12 -6 -12 8 0 18 14 24 36 7 26 -6 -3 -7 1 -3 10 4 11 8 13 13 5 10 -16 34 15 27 35 -4 8 -1 17 5 21 7 5 8 2 3 -7 -8 -12 -6 -12 8 0 19 15 23 36 5 25 -7 -4 -8 -3 -4 5 4 6 11 9 16 6 4 -3 13 2 20 10 10 12 10 15 -1 15 -8 0 -3 6 11 13 14 8 24 19 23 25 -2 7 2 12 7 12 12 0 59 50 60 63 0 5 -6 5 -12 1 -19 -12 64 84 120 140 28 26 54 46 59 43 5 -3 15 4 23 16 12 21 12 21 -6 7 -11 -8 -9 -3 6 14 48 54 295 259 429 354 25 19 55 41 66 51 26 23 75 53 75 46 0 -2 -17 -16 -37 -30 -21 -14 -63 -44 -94 -68 -31 -23 -85 -63 -120 -89 -35 -27 -60 -48 -55 -48 4 0 41 26 83 58 42 31 86 64 98 72 57 39 165 122 165 127 0 3 -8 0 -17 -8 -16 -12 -17 -11 -3 4 12 13 136 103 147 106 2 1 3 -562 3 -1250z m-1985 -770 c-4 -6 -2 -31 5 -55 9 -31 16 -41 21 -32 6 9 9 7 9 -9 0 -12 3 -30 6 -40 5 -15 4 -15 -5 -3 -15 20 -14 -2 1 -35 6 -14 18 -25 26 -25 12 0 12 -3 2 -15 -13 -16 -6 -50 9 -40 5 3 13 0 17 -6 4 -8 3 -9 -4 -5 -7 4 -12 2 -12 -3 0 -6 8 -11 18 -12 10 0 12 -3 5 -6 -7 -2 -13 -9 -13 -14 0 -6 4 -8 9 -5 5 3 8 -2 7 -12 0 -9 4 -16 10 -15 8 1 10 -6 6 -19 -3 -13 -1 -19 5 -15 6 4 10 -1 9 -11 0 -9 4 -16 10 -15 8 1 10 -6 6 -19 -3 -13 -1 -19 5 -15 6 4 10 -1 9 -11 0 -9 4 -16 10 -15 7 1 10 -5 7 -16 -2 -9 4 -24 13 -32 11 -9 15 -9 10 -1 -11 18 -1 15 15 -5 10 -11 10 -14 2 -9 -16 9 -16 1 -2 -25 5 -11 14 -17 19 -14 5 3 12 0 16 -6 4 -8 3 -9 -4 -5 -16 10 -15 0 4 -29 9 -14 20 -23 24 -20 5 3 12 0 16 -6 4 -8 3 -9 -4 -5 -7 4 -12 2 -12 -3 0 -6 7 -11 15 -11 8 0 12 -6 9 -13 -2 -7 5 -22 17 -33 22 -19 22 -19 10 4 -16 30 -7 28 14 -4 9 -15 12 -23 6 -20 -18 11 -13 -10 6 -25 11 -10 14 -10 9 -1 -11 18 -1 15 15 -5 10 -11 10 -14 2 -9 -7 4 -13 2 -13 -3 0 -6 7 -11 17 -11 9 0 13 -3 10 -7 -9 -8 13 -34 23 -28 4 2 18 -7 31 -22 13 -14 18 -23 12 -19 -7 4 -13 4 -13 -1 0 -9 252 -263 261 -263 4 0 -48 55 -114 122 l-122 121 125 -118 c147 -139 172 -164 148 -146 -29 22 -20 7 14 -25 18 -16 26 -20 18 -9 -14 19 -14 19 5 4 11 -9 46 -37 78 -63 l58 -46 -1262 0 -1261 0 50 40 c28 21 53 44 56 49 4 6 12 8 19 5 7 -2 33 17 57 43 25 26 37 41 28 34 -38 -28 -14 -2 83 94 56 55 98 94 94 86 -5 -9 -3 -12 6 -9 8 3 14 11 14 19 0 8 5 15 10 17 20 6 55 46 51 58 -2 7 7 22 22 35 l27 24 -25 -30 -25 -30 33 29 c31 29 44 55 20 40 -9 -5 -9 -2 1 9 16 20 26 23 15 5 -5 -9 -2 -8 10 1 13 11 14 16 4 22 -13 8 -8 11 21 13 8 1 16 7 19 15 3 9 0 11 -8 6 -9 -5 -11 -4 -6 3 4 7 14 12 22 12 8 0 14 2 14 4 0 2 3 12 7 22 5 13 3 15 -8 9 -8 -5 -11 -5 -6 1 5 5 12 8 15 7 10 -2 32 18 32 29 0 5 -4 6 -10 3 -16 -10 -11 1 7 16 11 10 14 10 9 2 -4 -7 -5 -13 -2 -13 11 0 57 81 51 90 -4 6 0 10 8 10 20 0 31 31 15 42 -10 6 -9 8 3 8 9 0 22 7 30 16 10 13 10 17 -2 25 -13 8 -5 13 15 10 5 -1 6 5 3 13 -4 9 -1 15 5 13 6 -1 13 4 15 11 3 6 0 12 -7 12 -6 0 -8 5 -5 10 4 6 11 7 17 4 8 -5 9 -1 5 10 -4 10 -3 15 3 11 6 -3 13 1 17 10 3 10 0 21 -8 26 -11 7 -11 9 2 9 19 0 33 26 22 42 -3 6 -2 8 4 5 5 -3 18 19 27 50 15 46 16 57 4 64 -12 8 -7 12 9 7 7 -3 31 58 32 82 1 13 0 13 -9 0 -5 -8 -10 -10 -10 -4 0 6 3 14 7 17 12 12 705 8 698 -4z m-860 -8 c-6 -5 -23 -11 -40 -14 l-30 -4 33 -2 c23 -1 32 -6 32 -18 0 -13 -3 -14 -8 -6 -5 9 -13 0 -21 -24 -10 -26 -10 -38 -3 -41 6 -2 8 -10 5 -18 -5 -13 -8 -13 -15 -2 -7 9 -8 7 -5 -10 3 -12 1 -19 -4 -16 -5 3 -12 -2 -16 -11 -3 -10 0 -21 8 -26 11 -7 11 -9 -2 -9 -19 0 -33 -26 -22 -42 4 -7 1 -8 -7 -3 -10 6 -12 3 -8 -13 4 -13 2 -20 -6 -19 -6 1 -10 -6 -10 -15 1 -10 -3 -15 -8 -12 -5 4 -8 -4 -6 -17 2 -16 -2 -24 -12 -24 -8 0 -16 -8 -18 -19 -3 -13 0 -16 10 -10 10 6 10 5 -1 -9 -15 -18 -26 -23 -16 -7 3 6 4 10 1 10 -11 0 -57 -81 -51 -90 4 -6 -1 -10 -9 -10 -9 0 -16 -2 -16 -4 0 -2 -3 -12 -7 -22 -5 -13 -3 -15 8 -9 8 4 12 6 9 2 -3 -3 -8 -5 -11 -4 -9 3 -39 -24 -39 -35 0 -6 8 -4 18 3 15 13 16 12 3 -4 -8 -9 -16 -15 -19 -12 -7 6 -32 -15 -32 -27 0 -5 5 -6 10 -3 16 10 11 -1 -7 -16 -15 -12 -16 -12 -8 1 8 13 7 13 -8 1 -20 -16 -23 -36 -4 -25 7 4 9 3 4 -2 -5 -5 -12 -9 -15 -9 -13 0 -32 -16 -32 -26 0 -6 5 -7 12 -3 7 4 8 3 4 -5 -4 -6 -15 -10 -23 -9 -9 2 -18 -3 -21 -11 -3 -10 0 -11 9 -5 12 6 12 5 0 -9 -8 -10 -16 -15 -19 -12 -7 6 -52 -35 -52 -47 0 -5 6 -6 13 -2 6 4 -42 -48 -107 -114 -65 -66 -124 -118 -130 -116 -7 3 -25 -10 -41 -28 -17 -18 -21 -26 -10 -18 46 33 -34 -45 -105 -103 -104 -84 -106 -85 -95 -67 8 13 6 13 -8 1 -9 -7 -14 -17 -11 -22 2 -5 -153 -10 -345 -11 -193 -2 -346 1 -342 5 4 4 20 9 35 11 14 1 29 6 34 11 4 4 1 5 -5 1 -7 -4 -13 -5 -13 -3 0 12 117 70 136 69 12 -1 28 6 35 15 13 15 12 15 -11 3 -14 -7 -22 -10 -19 -6 5 5 71 46 267 162 l27 16 -25 -21 -25 -22 37 18 c21 10 38 22 38 26 0 5 -5 5 -12 1 -7 -4 -8 -3 -4 5 10 16 69 46 85 42 8 -1 17 1 20 6 3 5 27 24 54 42 26 17 47 35 47 38 0 3 -8 -1 -17 -8 -11 -9 -14 -10 -9 -2 10 18 99 78 110 75 12 -4 37 19 31 28 -3 4 21 29 53 56 31 26 84 72 117 103 l61 56 -66 -65 c-36 -36 -85 -82 -110 -103 -25 -20 -40 -37 -35 -37 13 0 235 209 235 221 0 6 -6 7 -12 3 -7 -5 7 15 30 44 41 49 62 67 46 40 -5 -9 -2 -9 9 1 19 15 23 36 5 25 -7 -4 -8 -3 -4 5 4 6 11 9 16 6 5 -3 14 3 19 14 8 14 8 21 -2 24 -7 3 -5 6 5 6 9 1 24 11 32 23 19 26 21 42 4 32 -7 -4 -8 -3 -4 5 4 6 12 9 17 6 5 -4 14 6 19 20 13 34 13 38 -2 29 -8 -4 -10 -3 -5 2 5 5 14 9 20 9 7 0 13 8 15 18 2 9 -2 17 -8 17 -6 0 -8 5 -5 10 4 6 10 8 15 5 4 -2 13 9 20 26 10 22 10 33 2 38 -7 4 -8 12 -2 21 8 13 10 13 10 1 0 -12 2 -12 13 1 6 9 19 18 27 21 8 2 2 3 -15 1 -19 -2 -25 -1 -15 4 15 8 143 32 265 51 33 4 62 9 65 10 2 0 0 -3 -5 -8z m1113 -7 c26 -3 92 -15 147 -25 103 -21 136 -39 114 -66 -15 -18 7 -73 30 -73 12 0 13 -2 3 -8 -10 -7 -8 -18 8 -55 21 -47 40 -69 40 -45 0 10 3 9 10 -2 6 -9 5 -17 -3 -22 -9 -5 -7 -12 7 -25 10 -10 16 -12 12 -5 -10 18 -1 15 15 -5 10 -11 10 -14 2 -9 -7 4 -13 5 -13 1 0 -9 50 -85 56 -85 3 0 2 5 -1 10 -16 26 7 5 47 -42 23 -29 37 -49 31 -44 -7 4 -13 3 -13 -2 0 -12 219 -222 232 -222 5 0 -22 27 -59 59 -38 32 -88 81 -113 107 -27 29 -15 21 30 -22 98 -92 194 -173 252 -212 26 -18 50 -38 54 -45 5 -8 2 -7 -9 2 -9 7 -17 11 -17 8 0 -2 25 -23 55 -46 30 -23 55 -37 55 -32 0 6 -13 17 -29 26 -17 8 -33 21 -37 27 -6 10 -4 10 7 2 8 -6 47 -32 87 -58 39 -26 72 -50 72 -52 0 -3 -4 -2 -10 1 -5 3 -10 3 -10 -2 0 -4 17 -16 38 -26 l37 -18 -25 22 -25 21 27 -16 c196 -116 262 -157 267 -162 3 -4 -5 -1 -19 6 -23 12 -24 12 -11 -3 7 -9 23 -16 35 -15 19 1 136 -57 136 -69 0 -2 -5 -1 -12 3 -7 4 -8 3 -4 -5 4 -6 11 -9 16 -6 4 3 19 1 32 -4 15 -6 -97 -10 -323 -10 -343 -1 -346 -1 -365 21 -12 13 -13 18 -4 13 9 -5 8 0 -4 14 -11 12 -24 20 -30 18 -12 -4 -112 69 -136 99 -9 11 -10 15 -2 10 6 -4 12 -4 12 1 -1 13 -49 45 -60 38 -5 -3 -82 67 -172 156 -90 88 -157 158 -150 154 18 -9 15 10 -5 26 -11 10 -14 10 -9 2 11 -19 1 -16 -15 4 -10 11 -10 14 -1 9 18 -11 15 9 -5 25 -11 10 -14 10 -9 2 11 -19 1 -16 -15 4 -12 14 -12 16 0 9 9 -6 12 -5 9 5 -3 8 -12 13 -21 11 -8 -1 -19 3 -23 9 -4 8 -3 9 4 5 7 -4 12 -3 12 2 0 13 -25 33 -32 26 -3 -3 -9 0 -14 7 -4 8 -3 10 4 5 18 -11 14 10 -5 25 -15 12 -16 12 -8 -1 5 -9 4 -12 -1 -7 -5 5 -9 16 -9 25 0 9 -11 22 -25 29 -14 7 -19 13 -12 13 10 0 10 5 2 20 -6 11 -15 18 -20 15 -5 -3 -12 0 -16 6 -4 8 -3 9 4 5 17 -10 15 19 -2 33 -11 9 -15 9 -18 -1 -3 -8 -7 -6 -11 5 -3 9 -2 17 4 17 6 0 6 7 -1 20 -6 11 -15 18 -20 15 -5 -3 -12 0 -16 6 -4 8 -3 9 4 5 15 -9 15 9 1 35 -5 11 -14 17 -19 14 -5 -3 -12 0 -16 6 -4 8 -3 9 4 5 15 -9 15 9 1 35 -5 11 -14 17 -19 14 -5 -3 -12 0 -16 6 -5 8 -3 9 5 4 9 -5 12 0 9 16 -2 13 -9 23 -15 22 -6 -1 -9 7 -6 20 3 16 2 18 -5 9 -7 -11 -10 -11 -15 2 -3 8 -1 16 5 18 8 3 7 16 -5 44 -9 21 -16 32 -17 24 0 -13 -2 -13 -9 -1 -13 21 9 51 39 52 18 1 14 4 -14 10 -22 5 -42 12 -45 16 -3 3 6 3 22 -1 15 -3 48 -9 75 -12z m-1646 -101 c-6 -2 -10 -9 -7 -14 3 -4 -1 -22 -10 -38 -18 -36 -19 -44 -2 -35 7 4 9 3 4 -2 -5 -5 -14 -9 -20 -9 -7 0 -13 -8 -15 -19 -3 -13 0 -16 9 -11 8 5 10 4 5 -4 -4 -6 -11 -9 -16 -6 -5 3 -14 -3 -19 -14 -14 -26 -14 -34 2 -25 7 4 9 3 4 -2 -5 -5 -12 -9 -15 -9 -13 0 -32 -16 -32 -26 0 -6 5 -7 10 -4 16 10 11 -1 -7 -16 -15 -12 -16 -12 -8 1 8 13 7 13 -8 1 -20 -16 -23 -36 -4 -25 7 4 9 3 4 -2 -5 -5 -10 -7 -11 -4 -4 8 -36 -21 -36 -32 0 -6 8 -5 18 3 9 7 -17 -22 -58 -65 -41 -43 -122 -115 -180 -160 -112 -87 -110 -86 -222 -160 -40 -27 -92 -62 -116 -78 -24 -16 -49 -27 -57 -25 -7 3 -19 -2 -27 -11 -12 -16 -11 -16 6 -2 11 8 17 10 13 3 -10 -16 -287 -180 -287 -169 0 3 12 13 28 21 30 18 12 14 -30 -7 -16 -7 -28 -17 -28 -21 0 -5 6 -5 13 -1 9 5 9 4 1 -5 -5 -6 -26 -19 -45 -29 -19 -10 -61 -33 -94 -51 -38 -21 -51 -25 -35 -12 14 12 18 19 9 15 -15 -5 -16 4 -14 68 2 49 0 63 -5 43 l-8 -30 -1 27 c0 15 4 30 9 33 14 9 13 158 -1 172 -8 8 -8 34 2 99 10 70 10 89 0 92 -7 2 -1 10 16 19 78 42 426 214 478 237 33 15 67 31 75 35 8 4 76 32 150 61 74 29 149 58 165 65 17 7 95 34 175 60 80 26 161 53 180 61 32 12 71 19 42 7z m2192 -24 c56 -17 110 -35 121 -39 11 -5 58 -22 105 -38 121 -41 373 -142 385 -154 6 -6 0 -5 -12 1 -31 16 -41 14 -16 -4 12 -8 28 -12 37 -9 8 3 46 -9 83 -27 190 -90 258 -124 373 -183 69 -36 121 -66 115 -66 -6 0 -9 -90 -7 -255 1 -140 0 -255 -4 -255 -3 0 -44 22 -90 49 -46 28 -92 49 -101 49 -17 -1 -203 99 -203 108 0 3 10 -1 23 -7 20 -11 21 -11 8 4 -7 9 -23 16 -35 15 -20 -1 -195 99 -226 130 -8 8 -9 12 -2 8 6 -4 12 -2 12 5 0 6 -8 9 -18 7 -9 -3 -31 4 -48 16 -96 65 -154 107 -160 118 -5 8 0 7 12 -2 18 -14 18 -14 5 3 -7 9 -20 16 -27 15 -17 -4 -155 109 -151 125 1 6 -4 11 -11 9 -6 -1 -11 3 -10 10 2 7 -2 12 -9 13 -6 0 -15 4 -20 9 -5 6 -2 6 7 1 13 -8 13 -6 1 8 -7 9 -17 15 -21 12 -4 -3 -14 3 -21 12 -12 14 -12 16 0 9 9 -6 12 -5 9 5 -3 8 -12 13 -20 11 -9 -1 -22 6 -29 15 -13 16 -12 17 4 4 25 -20 21 2 -5 25 -13 12 -18 13 -13 4 8 -13 7 -13 -8 -1 -19 15 -23 26 -6 15 7 -4 10 -1 7 7 -3 8 -10 14 -16 14 -5 0 -14 4 -19 9 -5 5 -3 6 5 2 6 -4 12 -3 12 3 0 10 -19 26 -32 26 -3 0 -10 4 -15 9 -5 5 -2 6 6 1 7 -4 12 -4 9 1 -2 5 -12 26 -21 47 -10 21 -22 35 -27 32 -5 -3 -12 0 -16 6 -4 8 -3 9 4 5 15 -9 15 -5 2 29 -5 14 -14 24 -19 20 -5 -3 -13 0 -17 6 -4 7 -3 9 3 6 6 -4 14 0 17 9 5 13 2 15 -14 11 -11 -3 -18 -1 -14 4 7 12 5 13 118 -22z"/>
<path d="M3073 6133 c422 -2 1112 -2 1535 0 422 1 76 2 -768 2 -844 0 -1190 -1 -767 -2z"/>
<path d="M3774 5648 c-5 -7 -7 -292 -4 -645 3 -348 2 -629 -2 -625 -5 5 -9 284 -11 622 l-2 615 -3 -616 c-2 -710 -9 -662 87 -663 53 -1 91 20 77 43 -9 14 -12 1240 -3 1234 14 -9 7 15 -9 28 -18 15 -92 13 -112 -3 -9 -8 -11 -7 -6 6 7 19 0 21 -12 4z"/>
<path d="M3144 5076 c-36 -36 -43 -66 -21 -88 8 -7 12 -19 10 -25 -6 -16 15 -53 28 -50 6 1 13 -6 14 -16 2 -9 -1 -15 -6 -11 -12 7 -11 0 3 -31 6 -14 18 -25 27 -26 10 0 12 -2 4 -6 -7 -2 -13 -9 -13 -14 0 -6 5 -7 12 -3 6 4 8 3 5 -4 -11 -16 3 -42 22 -42 13 0 13 -2 2 -9 -8 -5 -11 -16 -8 -26 4 -9 11 -13 17 -10 5 3 7 0 4 -8 -7 -18 23 -90 34 -83 5 3 8 -9 8 -27 -1 -22 3 -31 12 -29 8 1 11 -2 7 -7 -9 -15 6 -62 18 -54 5 3 7 1 4 -5 -9 -14 2 -42 17 -42 7 0 13 -7 13 -15 0 -8 -4 -12 -9 -9 -11 7 -10 0 4 -31 6 -14 15 -25 20 -25 5 0 6 -5 3 -10 -8 -13 23 -100 43 -120 8 -8 12 -9 8 -2 -6 10 -1 11 20 6 36 -9 43 -9 73 0 18 6 22 5 16 -5 -5 -10 -3 -9 8 1 9 8 18 29 22 45 5 26 4 27 -4 8 -6 -13 -12 -23 -14 -23 -6 0 0 46 7 59 11 18 -13 71 -33 71 -13 0 -14 2 -2 9 12 8 12 14 1 40 -7 17 -20 31 -29 31 -13 0 -13 2 -2 9 17 11 1 66 -19 66 -7 0 -15 11 -17 25 -2 20 -1 22 8 10 8 -12 10 -12 7 5 -2 11 -8 20 -15 20 -6 0 -15 4 -20 9 -5 5 -3 6 5 2 6 -4 12 -2 12 3 0 6 -5 11 -11 11 -5 0 -7 5 -4 11 11 16 -15 69 -34 69 -13 0 -13 2 -2 9 8 5 11 16 8 26 -4 9 -11 14 -16 10 -5 -3 -13 0 -17 6 -4 8 -3 9 4 5 7 -4 12 -2 12 3 0 6 -5 11 -11 11 -5 0 -7 5 -4 11 11 16 -15 69 -34 69 -12 0 -13 2 -3 9 17 11 -4 61 -27 62 -10 0 -12 2 -3 6 6 2 12 9 12 14 0 6 -4 8 -9 5 -5 -3 -8 2 -7 12 0 9 -4 16 -11 15 -7 -2 -10 6 -8 16 10 55 -75 88 -129 51 l-31 -21 29 26 c23 21 36 26 60 21 22 -4 27 -3 16 4 -27 17 -51 11 -86 -24z"/>
<path d="M4398 5060 c-10 -13 -17 -32 -15 -42 3 -9 0 -16 -6 -15 -6 1 -13 -9 -15 -22 -3 -16 0 -21 9 -16 8 5 10 4 5 -4 -4 -6 -11 -9 -16 -6 -13 8 -33 -34 -27 -56 3 -10 1 -17 -4 -13 -5 3 -14 -7 -21 -21 -10 -22 -9 -28 3 -36 13 -8 5 -13 -15 -10 -5 1 -6 -5 -2 -14 3 -9 2 -13 -4 -10 -6 3 -13 -1 -17 -10 -3 -10 0 -21 8 -26 11 -7 11 -9 -2 -9 -19 0 -32 -26 -22 -43 3 -7 2 -9 -2 -4 -11 10 -45 -78 -40 -104 2 -11 0 -17 -5 -14 -10 6 -30 -26 -30 -47 0 -10 3 -9 10 2 8 12 9 9 7 -10 -2 -14 -10 -25 -17 -25 -20 0 -36 -55 -19 -66 11 -7 11 -9 -3 -9 -18 0 -48 -72 -31 -77 5 -2 7 -18 5 -36 -5 -42 20 -64 76 -68 30 -2 47 2 60 14 15 16 15 19 2 27 -13 8 -13 10 2 10 23 0 46 69 27 81 -12 8 -6 13 12 11 4 -1 13 12 20 29 10 26 10 32 -2 40 -12 7 -11 9 2 9 9 0 22 14 29 31 11 26 11 32 -1 40 -12 7 -11 9 2 9 23 0 47 59 30 70 -9 5 -10 10 -2 14 6 4 11 4 11 -1 1 -4 7 4 15 18 8 15 12 36 10 48 -2 12 0 19 5 16 6 -4 15 6 22 20 10 22 9 28 -3 36 -13 8 -5 13 15 10 5 -1 6 5 2 14 -3 9 -2 13 4 10 6 -3 13 1 17 10 3 10 0 21 -8 26 -11 7 -11 9 2 9 19 0 33 26 22 42 -3 7 -1 8 5 4 7 -4 12 -3 12 3 0 5 -6 12 -12 14 -8 3 -6 6 5 6 9 1 17 6 17 12 0 5 -5 7 -12 3 -7 -4 -8 -3 -4 5 4 6 12 9 17 6 12 -8 25 25 13 34 -11 7 -12 81 -1 74 4 -2 8 -19 8 -36 1 -19 3 -24 6 -14 9 36 -6 65 -39 76 -53 16 -98 9 -120 -19z"/>
<path d="M1443 1348 c16 -10 4768 -10 4784 0 6 4 -1070 7 -2392 7 -1322 0 -2398 -3 -2392 -7z"/>
</g>
</svg>
