<?xml version="1.0" standalone="no"?>
<!DOCTYPE svg PUBLIC "-//W3C//DTD SVG 20010904//EN"
 "http://www.w3.org/TR/2001/REC-SVG-20010904/DTD/svg10.dtd">
<svg version="1.0" xmlns="http://www.w3.org/2000/svg"
 width="1024.000000pt" height="1024.000000pt" viewBox="0 0 1024.000000 1024.000000"
 preserveAspectRatio="xMidYMid meet">
<metadata>
Created by potrace 1.16, written by Peter Selinger 2001-2019
</metadata>
<g transform="translate(0.000000,1024.000000) scale(0.100000,-0.100000)"
fill="#000000" stroke="none">
<path d="M4325 6887 c-90 -30 -153 -85 -198 -171 -28 -54 -31 -70 -31 -146 0
-70 5 -95 26 -140 25 -54 114 -150 140 -150 23 0 -15 -20 -38 -20 -44 0 -162
-69 -203 -119 -72 -86 -165 -273 -269 -541 -129 -335 -167 -502 -128 -574 40
-74 146 -107 223 -67 54 27 94 79 151 200 l48 100 14 -52 c7 -29 29 -89 48
-135 l34 -82 -42 -123 c-87 -254 -165 -386 -420 -710 -47 -60 -95 -127 -107
-150 -28 -51 -29 -111 -4 -152 38 -61 230 -148 359 -161 51 -6 66 -3 95 15 63
39 72 110 20 171 l-25 30 35 43 c19 23 82 93 140 155 91 97 180 199 262 299
l21 25 69 -128 c39 -70 96 -173 127 -228 31 -56 69 -123 84 -151 88 -163 135
-233 168 -249 48 -23 69 -21 197 20 149 48 213 76 233 105 24 34 20 87 -9 125
l-24 32 97 112 c118 137 216 261 249 318 14 23 28 42 31 42 4 0 38 -53 76
-118 71 -122 116 -196 256 -421 117 -187 125 -190 352 -105 68 25 135 52 150
60 63 33 77 103 31 154 -30 34 -79 49 -154 50 -43 0 -46 2 -56 33 -16 47 -245
637 -287 740 -47 113 -96 262 -96 292 0 13 4 26 9 30 5 3 43 -26 85 -65 87
-80 133 -104 193 -97 49 5 109 46 124 84 15 41 10 101 -12 146 -12 23 -62 97
-111 164 -49 68 -105 148 -124 180 -41 68 -87 208 -104 313 -15 97 -35 161
-73 233 -31 59 -98 127 -125 127 -17 0 -8 13 11 16 33 5 107 48 145 86 63 60
94 128 100 213 5 85 -7 134 -50 200 -141 214 -458 199 -584 -27 -26 -48 -29
-62 -29 -148 0 -84 3 -101 27 -145 25 -48 78 -105 126 -137 21 -14 20 -15 -39
-22 -108 -11 -190 -58 -259 -150 -110 -145 -254 -525 -335 -881 l-7 -30 -17
45 c-9 25 -45 94 -80 154 l-63 110 -9 180 c-10 199 -25 283 -62 368 -30 67
-93 139 -143 163 l-35 16 50 26 c66 32 134 109 161 181 58 153 -18 344 -167
417 -68 33 -182 43 -248 22z m178 -91 c134 -48 198 -206 133 -333 -62 -124
-208 -175 -316 -111 -91 54 -130 118 -130 216 0 162 163 281 313 228z m1347
-7 c60 -27 88 -54 116 -114 46 -96 29 -202 -44 -274 -155 -155 -403 -47 -403
175 0 163 182 281 331 213z m-1339 -645 c63 -36 92 -80 121 -187 26 -95 36
-434 18 -617 -7 -69 -15 -162 -17 -207 l-5 -83 146 -392 c273 -732 271 -726
318 -761 24 -18 33 -19 72 -10 33 7 50 7 70 -4 14 -7 26 -17 26 -22 0 -14
-151 -68 -248 -90 -39 -8 -43 -7 -61 18 -23 33 -170 295 -334 596 -69 127
-157 286 -197 355 -130 223 -182 314 -205 355 -31 54 -72 188 -80 261 -8 67
-1 88 85 266 28 59 50 118 48 130 -3 24 -45 45 -69 36 -8 -3 -63 -106 -124
-229 -260 -529 -262 -532 -321 -512 -28 10 -29 12 -28 79 2 97 75 311 237 689
128 300 205 369 408 362 74 -3 93 -7 140 -33z m1271 3 c55 -32 79 -63 104
-137 17 -49 19 -84 18 -305 -1 -207 -5 -275 -24 -395 -12 -80 -22 -163 -22
-185 1 -49 57 -212 168 -489 72 -178 138 -348 235 -610 10 -27 21 -51 24 -55
4 -3 47 -8 95 -11 84 -6 111 -13 97 -26 -11 -11 -219 -84 -257 -90 -45 -7 -15
-50 -278 386 -174 290 -312 551 -417 795 -65 149 -84 215 -92 311 l-6 82 67
142 c36 78 66 150 66 160 0 25 -35 52 -62 48 -19 -2 -39 -35 -115 -188 -51
-102 -113 -237 -139 -300 -25 -63 -60 -141 -77 -172 -27 -53 -33 -58 -63 -58
-45 0 -69 43 -59 106 12 85 74 310 124 454 101 291 167 427 242 494 66 59 122
77 234 73 78 -2 98 -7 137 -30z m299 -699 c34 -51 69 -102 79 -113 46 -51 130
-179 130 -198 0 -11 -7 -29 -17 -39 -30 -34 -60 -22 -142 56 -42 40 -92 81
-110 91 -28 14 -32 21 -27 43 3 15 9 78 12 140 4 61 8 112 10 112 2 0 31 -42
65 -92z m-1247 -243 c40 -87 43 -101 20 -133 -15 -22 -66 -30 -91 -14 -22 14
-26 63 -13 173 l13 110 18 -30 c9 -16 34 -64 53 -106z m516 6 c0 -11 14 -58
30 -104 l31 -83 -52 -150 c-75 -219 -137 -350 -231 -490 -46 -68 -86 -124 -89
-124 -3 0 -25 53 -49 118 -79 215 -127 346 -163 437 -56 144 -55 135 -5 135
46 0 80 18 112 57 l18 24 43 -40 c70 -64 154 -68 215 -8 32 31 101 162 115
220 8 31 25 37 25 8z m160 -398 c13 -32 48 -106 77 -165 l55 -106 -53 -79
c-102 -153 -367 -468 -401 -476 -10 -3 -27 2 -38 11 -18 16 -60 113 -60 140 0
7 27 46 59 87 127 159 215 326 288 546 19 60 39 106 43 104 4 -3 18 -31 30
-62z m-1190 -112 c49 -90 90 -168 90 -173 0 -21 -108 -145 -354 -408 -156
-167 -156 -167 -156 -209 0 -34 6 -46 42 -81 l42 -40 -44 0 c-56 0 -106 14
-185 50 -73 33 -95 53 -95 85 0 14 48 85 126 186 225 292 335 472 393 644 30
92 41 118 46 113 3 -3 45 -78 95 -167z"/>
</g>
</svg>
