<?xml version="1.0" standalone="no"?>
<!DOCTYPE svg PUBLIC "-//W3C//DTD SVG 20010904//EN"
 "http://www.w3.org/TR/2001/REC-SVG-20010904/DTD/svg10.dtd">
<svg version="1.0" xmlns="http://www.w3.org/2000/svg"
 width="1024.000000pt" height="1024.000000pt" viewBox="0 0 1024.000000 1024.000000"
 preserveAspectRatio="xMidYMid meet">
<metadata>
Created by potrace 1.16, written by Peter Selinger 2001-2019
</metadata>
<g transform="translate(0.000000,1024.000000) scale(0.100000,-0.100000)"
fill="#000000" stroke="none">
<path d="M5999 7723 c-1 -5 -1 -11 0 -15 0 -4 -175 -6 -389 -6 -251 0 -390 4
-390 11 0 6 -5 5 -13 -2 -15 -12 -386 -9 -406 3 -6 4 -11 4 -11 -1 0 -11 -359
-13 -366 -2 -3 5 -12 5 -22 0 -9 -4 -323 -9 -697 -9 -477 -1 -693 -4 -725 -12
-25 -7 -53 -12 -62 -13 -9 -1 -15 -4 -13 -7 1 -3 -20 -20 -49 -39 -28 -18 -66
-55 -85 -82 -18 -27 -38 -46 -44 -42 -5 3 -7 2 -4 -4 3 -5 -21 -90 -54 -189
-69 -209 -215 -667 -225 -706 -3 -16 -11 -25 -17 -21 -6 3 -7 1 -3 -5 4 -6 4
-23 0 -37 -4 -15 -10 -22 -13 -16 -4 6 -7 -4 -8 -22 0 -18 -19 -91 -41 -163
-23 -71 -46 -150 -51 -176 -7 -30 -11 -344 -11 -878 l-1 -831 -44 -60 c-25
-34 -50 -80 -57 -102 -7 -23 -18 -46 -25 -50 -9 -5 -12 -28 -11 -70 l1 -62 7
65 c4 36 7 -92 7 -285 0 -192 -3 -336 -7 -320 -7 27 -8 26 -9 -15 0 -32 2 -41
9 -30 7 12 10 8 10 -15 0 -23 -3 -27 -10 -15 -8 12 -10 11 -10 -7 0 -13 5 -23
10 -23 6 0 9 -31 8 -77 l-2 -78 -6 70 -6 70 -2 -78 c-1 -50 2 -76 8 -72 6 4
10 -7 10 -27 0 -25 -3 -29 -10 -18 -7 11 -9 4 -9 -25 1 -35 2 -37 9 -15 5 15
8 -22 7 -95 0 -87 -2 -106 -7 -70 l-7 50 -1 -58 c-1 -39 1 -56 9 -52 7 5 10
-18 7 -74 -2 -45 0 -81 3 -81 9 0 24 -69 21 -95 -1 -13 6 -24 20 -30 13 -6 23
-14 22 -20 0 -5 17 -23 37 -40 21 -16 38 -34 38 -38 1 -5 10 -20 20 -33 14
-18 20 -21 24 -10 4 9 -3 16 -16 20 -12 3 -18 8 -15 11 3 4 26 -4 50 -17 l43
-23 2660 -3 c1919 -2 2674 0 2712 8 44 10 205 99 179 100 -5 0 -2 8 7 18 9 10
29 44 44 77 l28 60 0 720 0 720 -27 59 c-16 32 -28 65 -28 74 0 8 -3 12 -7 9
-3 -4 -17 2 -29 14 l-23 22 -1 831 c0 676 -3 843 -15 896 -7 36 -52 189 -100
340 -47 151 -83 280 -80 288 2 7 1 11 -3 8 -5 -3 -19 27 -31 67 -12 40 -61
189 -109 332 -47 143 -85 271 -85 285 0 14 -2 19 -4 12 -5 -14 -73 69 -73 89
0 7 -3 10 -6 7 -3 -4 -31 12 -62 33 -100 70 -99 70 -681 71 -432 1 -518 3
-514 15 3 7 0 13 -6 13 -6 0 -10 -6 -8 -12 1 -9 -15 -14 -53 -15 -67 -2 -112
5 -104 18 3 5 3 9 0 9 -3 0 -7 -3 -7 -7z m-2750 -196 c12 -9 13 -9 7 1 -6 9
27 12 149 12 86 0 154 -4 151 -8 -2 -4 5 -9 17 -9 17 -2 19 0 7 7 -10 6 101
10 305 10 210 0 315 -4 305 -10 -12 -7 -8 -10 15 -10 23 0 27 3 15 10 -11 7
-6 10 22 10 20 0 40 -4 43 -10 3 -5 12 -10 18 -10 7 0 6 4 -3 10 -10 7 9 10
62 10 42 0 80 -4 83 -10 3 -5 12 -10 18 -10 7 0 6 4 -3 10 -10 6 37 10 142 10
94 0 159 -4 163 -10 3 -5 12 -10 18 -10 7 0 6 4 -3 10 -10 6 51 10 182 10 121
0 199 -4 203 -10 3 -5 14 -10 23 -9 14 0 13 2 -3 9 -12 5 67 9 198 9 167 1
217 -2 218 -11 0 -10 2 -10 6 0 2 6 12 12 21 12 15 0 15 -2 2 -10 -11 -7 -2
-9 30 -9 41 1 42 2 15 9 -30 8 -30 8 8 9 20 0 37 -3 37 -9 0 -5 8 -10 18 -10
14 0 15 2 2 10 -11 7 -6 10 20 9 29 0 31 -2 15 -9 -13 -6 6 -9 60 -9 55 -1 75
2 65 9 -11 7 -6 10 20 9 29 0 31 -2 15 -9 -15 -6 -8 -9 28 -9 26 -1 47 4 47 9
0 6 7 10 15 10 8 0 15 -4 15 -10 0 -6 30 -10 71 -10 44 0 68 4 64 10 -3 6 1
10 10 10 9 0 13 -4 10 -10 -4 -6 11 -10 37 -9 33 0 38 2 23 9 -12 5 52 9 163
9 101 1 181 -3 178 -7 -2 -4 5 -9 17 -9 17 -2 19 0 7 7 -11 7 -5 10 23 10 21
0 36 -4 33 -8 -3 -5 1 -9 9 -9 8 0 12 4 8 10 -3 5 95 7 248 5 272 -4 301 -9
358 -61 31 -29 81 -107 81 -126 0 -14 -1 -14 -10 -1 -17 26 -11 -22 6 -50 14
-23 14 -23 9 -2 -4 12 -4 22 -1 22 6 0 88 -257 90 -280 1 -8 4 -17 7 -20 15
-13 46 -129 41 -158 -3 -23 0 -32 10 -32 10 0 26 -35 48 -102 18 -57 35 -109
38 -116 2 -7 -31 6 -76 30 -44 24 -78 46 -76 50 3 4 -3 5 -12 1 -11 -4 -15 -2
-11 4 4 6 -4 9 -21 6 -23 -3 -24 -2 -7 6 16 7 12 9 -20 8 -257 -3 -764 7 -779
15 -13 7 -16 7 -12 0 8 -13 -772 -11 -791 1 -7 5 -13 4 -13 -1 0 -11 -439 -12
-462 -1 -11 6 -18 5 -20 -3 -4 -10 -13 -10 -41 -1 -20 6 -37 8 -37 3 0 -4 -88
-7 -195 -8 -144 0 -195 2 -195 11 0 8 -3 9 -8 1 -8 -13 -266 -16 -298 -3 -12
4 -25 5 -29 1 -4 -4 -366 -8 -805 -8 -793 -2 -800 -2 -872 -24 -40 -12 -95
-34 -123 -48 -67 -36 -69 -37 -60 -22 5 9 4 11 -4 6 -6 -4 -9 -11 -6 -16 3 -5
-2 -13 -12 -19 -14 -7 -6 29 44 182 34 106 91 285 128 399 88 275 125 328 243
347 73 12 185 11 201 -2z m1841 -979 c0 -7 4 -7 13 0 13 11 1973 13 2147 2 98
-6 195 -34 183 -53 -3 -6 -1 -7 6 -3 14 9 104 -42 96 -54 -3 -6 0 -7 8 -4 8 3
20 -3 28 -12 12 -15 12 -17 0 -9 -10 5 -12 4 -7 -4 4 -6 11 -9 15 -6 12 7 43
-30 34 -40 -5 -4 -3 -5 3 -2 15 9 77 -61 71 -77 -3 -7 -1 -19 5 -27 8 -11 9
-10 4 4 -13 41 8 12 36 -50 27 -59 43 -145 38 -198 -1 -5 -3 -183 -5 -395 -3
-263 -1 -388 7 -397 7 -8 7 -17 1 -25 -14 -18 -17 -115 -4 -123 6 -3 11 -12
11 -18 0 -7 -4 -6 -10 3 -7 11 -10 6 -10 -22 0 -20 5 -40 10 -43 6 -3 10 -14
9 -23 0 -14 -2 -13 -9 3 -6 13 -8 -7 -8 -60 1 -64 2 -72 8 -40 7 39 7 38 9
-17 0 -31 -3 -60 -9 -63 -14 -9 -12 -42 3 -48 10 -3 10 -9 0 -26 -7 -11 -13
-29 -12 -38 0 -16 2 -15 9 2 6 13 9 -13 7 -75 -1 -62 -6 -94 -13 -93 -6 1 -47
3 -92 4 l-81 2 -10 31 c-6 17 -24 87 -40 157 l-30 125 0 567 c0 312 -3 588 -7
614 -5 37 -4 45 7 39 9 -5 9 -3 -1 6 -9 7 -24 32 -34 56 -22 48 -88 114 -140
139 -20 9 -33 20 -30 24 2 4 -1 11 -7 15 -8 5 -9 3 -4 -6 6 -10 4 -11 -11 -4
-11 5 -733 10 -1774 12 -1128 1 -1750 6 -1740 12 13 8 12 10 -2 10 -10 0 -18
-4 -18 -9 0 -6 -154 -11 -392 -13 -414 -3 -410 -3 -480 -51 -16 -10 -34 -15
-40 -11 -7 4 -10 4 -6 -1 11 -11 -12 -36 -26 -28 -6 3 -8 3 -5 -1 4 -4 -8 -33
-27 -63 -19 -31 -34 -66 -35 -77 0 -18 -1 -18 -7 -4 -8 19 -9 -68 -10 -562 -1
-184 -1 -382 -2 -440 0 -92 -6 -131 -53 -320 l-53 -215 -72 -3 c-64 -3 -71 -1
-65 14 4 11 3 15 -5 10 -8 -4 -10 4 -7 26 3 27 6 101 5 158 -1 8 0 98 0 200 1
292 1 960 0 1015 -3 157 5 206 46 288 37 73 64 108 76 101 7 -4 8 -2 4 4 -9
15 75 95 145 138 78 47 131 65 219 73 123 12 2130 11 2130 -1z m-937 -436 c17
-13 58 -22 51 -11 -3 5 -15 10 -27 10 -12 1 3 5 33 10 66 10 174 3 179 -13 2
-7 6 -7 10 1 5 8 81 12 239 14 200 2 232 0 233 -13 1 -13 2 -13 5 0 4 13 110
15 878 15 481 0 872 -3 870 -6 -2 -3 16 -3 39 1 23 3 159 6 302 6 241 -1 262
-2 294 -21 36 -21 75 -68 51 -63 -7 2 -14 -2 -17 -9 -3 -8 3 -11 15 -8 15 2
22 -3 26 -21 10 -37 6 -465 -4 -459 -4 3 -6 13 -3 23 3 12 -1 19 -11 19 -13 0
-13 -3 -3 -15 6 -8 11 -17 10 -19 -2 -1 -3 -13 -3 -25 0 -16 3 -19 9 -10 5 8
8 -8 9 -40 1 -59 -1 -56 -38 77 -30 108 -62 168 -118 223 -26 26 -46 51 -44
55 1 5 -2 6 -7 3 -5 -3 -22 1 -38 9 -57 29 -133 34 -484 35 -195 1 -358 2
-364 1 -254 -5 -388 -1 -402 11 -10 7 -14 8 -10 1 5 -7 -10 -13 -45 -18 -29
-4 -70 -15 -93 -25 -22 -9 -46 -15 -54 -12 -8 2 -11 0 -8 -6 4 -5 -1 -16 -10
-23 -14 -12 -16 -12 -8 0 5 10 4 12 -4 7 -6 -4 -9 -11 -6 -15 2 -5 -6 -18 -20
-31 -13 -12 -34 -45 -47 -73 -22 -51 -23 -60 -26 -407 -2 -262 -6 -356 -15
-362 -9 -6 -9 -8 1 -8 6 0 12 -7 12 -16 0 -8 -4 -12 -10 -9 -6 4 -10 -7 -9
-27 0 -27 2 -30 9 -13 5 13 9 -22 8 -95 0 -129 -9 -118 -28 33 -6 50 -30 202
-52 337 -23 135 -42 257 -42 272 -1 14 -3 24 -5 22 -3 -2 -16 37 -31 88 -14
51 -40 119 -58 152 -17 32 -29 64 -25 70 3 6 3 8 -2 4 -9 -9 -111 81 -107 94
1 5 -1 7 -6 4 -5 -3 -31 3 -59 14 -27 10 -82 20 -121 23 -40 2 -79 10 -89 18
-9 8 -14 9 -10 3 10 -17 -41 -24 -58 -8 -10 10 -14 11 -18 1 -3 -9 -59 -11
-228 -10 -123 1 -231 3 -239 4 -8 1 -44 1 -80 0 -88 -2 -309 -3 -715 -1 -332
1 -411 -15 -495 -102 -21 -22 -40 -36 -42 -31 -3 4 -4 3 -2 -4 4 -18 -8 -24
-25 -10 -14 10 -14 10 -3 -5 11 -14 9 -24 -11 -65 -14 -26 -30 -67 -37 -90 -7
-24 -16 -43 -19 -43 -3 0 -6 25 -6 55 0 30 2 55 5 55 3 0 6 9 7 20 1 12 -3 18
-9 14 -7 -5 -9 45 -6 162 4 180 17 230 59 241 10 3 17 9 14 13 -11 17 18 22
30 6 11 -15 13 -15 19 -1 3 9 2 13 -4 10 -6 -3 -10 -2 -10 4 0 5 10 12 23 14
44 9 1118 -1 1130 -11z m1687 -417 c0 -11 11 -15 38 -15 27 0 33 3 22 10 -11
7 514 15 725 12 6 0 55 -1 110 -2 59 -1 106 -6 114 -13 12 -9 13 -9 7 1 -5 9
2 12 26 12 19 0 40 -6 47 -12 11 -10 13 -10 7 0 -5 8 3 12 29 12 45 0 75 -15
75 -38 0 -13 2 -14 9 -4 6 11 13 7 29 -16 33 -46 43 -81 45 -154 1 -58 4 -68
19 -68 10 0 18 -5 18 -11 0 -5 -3 -8 -7 -6 -5 3 -8 -6 -8 -19 0 -27 15 -33 16
-6 0 16 10 -14 44 -133 8 -27 26 -90 40 -139 15 -48 24 -90 22 -92 -2 -2 -27
0 -56 6 -43 8 -228 11 -536 9 -11 0 -178 0 -370 1 -458 1 -538 -6 -602 -48
l-23 -14 0 318 c0 298 1 321 20 351 21 36 55 57 72 47 6 -4 8 -3 4 4 -4 6 5
12 21 15 16 2 31 5 36 6 4 0 7 -6 7 -14z m-2595 -5 c-3 -5 -1 -10 4 -10 6 0
11 5 11 10 0 7 58 10 167 9 103 0 161 -4 152 -10 -11 -7 -9 -9 9 -9 13 0 20 4
17 10 -4 7 56 10 172 9 109 0 170 -4 158 -9 -19 -8 -19 -9 3 -9 12 -1 22 4 22
9 0 6 40 10 100 10 60 0 100 -4 100 -10 0 -5 21 -10 48 -10 34 0 43 3 32 10
-11 7 3 10 47 10 34 0 65 -4 68 -10 3 -5 14 -10 23 -9 14 0 13 2 -3 9 -13 5
24 9 100 9 73 0 112 -4 100 -9 -16 -6 -14 -8 13 -7 22 0 29 3 20 8 -8 6 1 9
25 9 25 0 36 -4 31 -11 -4 -7 1 -7 16 1 15 8 20 8 16 1 -4 -6 -3 -11 3 -11 5
0 11 6 14 13 3 9 11 9 36 0 17 -6 29 -7 25 -2 -3 5 2 9 10 9 9 0 16 -6 16 -12
0 -9 4 -8 10 2 6 9 13 11 18 5 9 -13 35 -19 28 -6 -8 13 161 13 185 0 11 -5
17 -14 14 -18 -2 -5 3 -8 13 -7 9 0 16 -5 14 -12 -1 -8 2 -11 7 -8 19 12 61
-58 87 -142 36 -121 36 -122 31 -122 -2 0 -24 7 -47 15 -34 12 -111 15 -404
16 -198 1 -345 5 -326 9 22 5 28 8 15 10 -29 4 -50 -1 -53 -11 -2 -5 -49 -8
-105 -8 -56 1 -90 4 -74 6 15 2 27 9 27 14 0 11 2 11 -38 0 -21 -6 -32 -6 -32
0 0 6 -5 7 -10 4 -6 -4 -8 -11 -5 -16 4 -5 -25 -9 -69 -9 -62 0 -76 3 -76 16
0 8 -5 12 -10 9 -6 -4 -8 -11 -4 -16 4 -6 -24 -9 -75 -8 -58 1 -81 5 -81 15 0
8 -15 12 -45 12 -25 -1 -45 -4 -45 -8 0 -4 18 -6 40 -4 25 2 39 0 35 -6 -9
-14 -99 -12 -114 3 -10 8 -12 8 -7 0 5 -9 -62 -12 -283 -13 -229 0 -299 -4
-332 -15 -23 -9 -44 -13 -47 -11 -8 9 61 201 86 239 14 21 42 47 61 57 40 21
66 26 56 10z m1886 -460 c20 -5 49 -22 64 -37 34 -34 69 -108 62 -134 -3 -10
-2 -17 2 -15 9 6 33 -103 25 -115 -3 -5 -20 -1 -37 9 -30 16 -109 17 -1172 19
-627 2 -1143 4 -1146 5 -4 2 5 40 19 86 41 126 91 176 190 191 77 11 1953 3
1993 -9z m1684 -390 c-3 -5 -1 -10 4 -10 6 0 11 5 11 11 0 7 67 9 208 7 204
-3 209 -4 245 -28 28 -19 35 -30 31 -45 -4 -16 -3 -17 5 -5 8 12 12 9 21 -15
14 -36 60 -205 60 -222 0 -10 -193 -12 -860 -13 l-860 0 0 109 c0 121 13 154
79 198 l33 23 515 0 c341 0 512 -3 508 -10z m-1578 -78 c60 -42 83 -87 108
-209 l7 -33 -1281 1 -1281 0 6 27 c19 79 50 157 63 154 8 -2 11 3 8 13 -5 10
7 24 35 43 l42 27 485 5 c267 3 776 3 1131 0 l645 -5 32 -23z m1378 -432
c-139 -6 -139 -6 55 -6 115 -1 173 2 140 6 -30 4 182 7 471 6 501 -1 528 -2
548 -20 11 -10 18 -23 14 -29 -3 -6 -1 -7 6 -3 7 5 18 -6 29 -31 16 -35 17
-95 17 -713 0 -628 -1 -677 -18 -707 -10 -18 -25 -33 -35 -33 -15 0 -15 -2 -2
-10 13 -9 13 -10 0 -11 -8 -1 -18 -1 -22 0 -5 0 -7 -3 -5 -8 1 -5 -2 -9 -6
-10 -4 0 -14 -7 -22 -15 -8 -8 -39 -17 -67 -20 -69 -8 -290 -2 -305 7 -6 4
-14 4 -17 -1 -7 -12 -767 -9 -785 2 -10 7 -12 6 -6 -3 5 -10 -1 -12 -28 -8
-19 2 -41 8 -47 12 -8 5 -11 4 -7 -1 7 -12 -452 -13 -470 -1 -6 4 -14 3 -18
-3 -6 -10 -46 -7 -66 6 -7 4 -9 3 -6 -2 9 -15 -466 -14 -475 0 -6 8 -8 8 -8 0
0 -13 -118 -16 -141 -3 -9 4 -20 4 -25 -1 -6 -6 -22 -6 -42 -1 -18 5 -32 6
-32 2 0 -9 -772 -7 -787 2 -7 4 -14 4 -16 0 -3 -5 -443 -8 -979 -8 l-974 1
-44 25 c-32 17 -52 37 -67 69 l-23 44 0 684 c0 596 2 687 15 713 9 17 21 27
27 23 7 -5 8 -3 4 5 -11 17 24 42 48 35 12 -4 16 -2 12 5 -5 8 574 10 2146 9
1184 -1 2090 -5 2013 -8z"/>
<path d="M4435 3710 c3 -5 -3 -10 -15 -10 -11 0 -38 -9 -59 -20 -21 -10 -42
-16 -46 -12 -3 4 -5 3 -3 -3 1 -5 -7 -26 -19 -45 -51 -84 -50 -164 3 -243 28
-41 30 -46 33 -67 0 -5 9 -10 18 -10 15 0 14 2 -3 15 -27 20 -10 18 32 -4 20
-11 30 -21 22 -24 -13 -4 1397 1 1439 6 11 1 19 6 15 11 -3 5 3 6 14 2 10 -4
15 -4 12 -1 -4 4 10 21 29 38 54 47 75 103 71 187 -2 37 -6 66 -9 65 -3 -2
-13 9 -23 26 -9 16 -14 29 -10 29 3 0 1 7 -6 15 -7 8 -17 15 -23 15 -6 0 -2
-7 9 -16 10 -9 2 -6 -19 6 -40 23 -150 53 -141 39 3 -5 -2 -9 -11 -9 -9 0 -29
-7 -45 -15 -25 -13 -30 -22 -30 -52 0 -43 44 -113 69 -112 12 0 11 3 -4 9 -15
7 -9 9 25 7 43 -2 45 -3 45 -32 0 -56 10 -55 -696 -52 -701 2 -683 1 -677 56
2 19 9 27 28 29 78 9 110 33 110 86 0 49 -25 70 -93 80 -9 1 -20 5 -23 9 -11
11 -26 8 -19 -3z"/>
</g>
</svg>
