<?xml version="1.0" standalone="no"?>
<!DOCTYPE svg PUBLIC "-//W3C//DTD SVG 20010904//EN" "http://www.w3.org/TR/2001/REC-SVG-20010904/DTD/svg10.dtd">
<svg xmlns="http://www.w3.org/2000/svg" version="1.0" width="1024.000000pt" height="1024.000000pt" viewBox="0 0 1024.000000 1024.000000" preserveAspectRatio="xMidYMid meet">
<metadata>
Created by potrace 1.16, written by Peter Selinger 2001-2019
<meta name="Producer" content="Online-Convert"/></metadata>
<g transform="translate(0.000000,1024.000000) scale(0.100000,-0.100000)" fill="#000000" stroke="none">
<path d="M4448 8331 c-19 -9 -52 -36 -72 -59 -21 -23 -43 -39 -50 -35 -6 3 -8 2 -3 -2 9 -10 -51 -75 -70 -75 -7 0 -13 -6 -13 -13 0 -17 -52 -67 -69 -67 -7 0 -10 -4 -7 -8 3 -4 -27 -39 -65 -77 -38 -38 -72 -81 -75 -95 -12 -51 -14 -65 -8 -54 3 7 16 1 34 -17 52 -52 81 -41 201 80 132 131 139 138 139 117 0 -9 -4 -15 -9 -11 -5 3 -12 1 -16 -5 -3 -5 1 -10 9 -10 14 0 16 -35 16 -298 l0 -298 28 -27 c36 -35 89 -37 120 -4 21 22 22 31 24 327 3 286 4 305 21 304 14 -2 15 1 6 12 -6 8 -15 11 -20 8 -5 -3 -9 3 -9 13 0 12 28 -10 84 -66 47 -47 83 -88 81 -92 -5 -7 25 -36 32 -31 5 4 53 -35 48 -39 -2 -3 15 -3 38 -2 59 4 77 7 72 11 -2 2 3 19 11 37 9 23 11 42 5 58 -12 31 -393 415 -425 426 -18 7 -33 5 -58 -8z"/>
<path d="M5693 8316 l-28 -24 0 -304 c0 -166 -4 -309 -9 -317 -6 -10 -6 -12 2 -7 8 4 12 0 12 -10 0 -14 -10 -8 -42 21 -87 83 -191 190 -190 196 2 11 -67 -8 -93 -25 -14 -9 -26 -24 -27 -34 -4 -43 -3 -80 2 -77 4 2 56 -46 116 -106 60 -60 100 -107 89 -103 -11 4 -17 4 -13 0 3 -4 13 -8 21 -10 23 -3 48 -27 40 -39 -3 -5 -2 -7 4 -4 11 7 116 -96 108 -106 -3 -4 -2 -5 1 -3 3 2 21 -2 39 -10 19 -8 42 -11 53 -6 11 4 61 46 112 94 51 48 96 85 101 82 5 -3 8 0 7 8 -2 7 4 12 12 10 8 -2 12 0 7 4 -10 10 43 65 56 57 6 -3 7 -2 4 4 -8 13 67 86 78 76 4 -5 5 -3 2 3 -4 7 0 18 9 25 46 38 47 112 2 144 -29 20 -46 19 -91 -5 -20 -11 -40 -20 -44 -20 -5 0 -8 -6 -8 -12 -1 -7 -7 -12 -14 -10 -7 1 -10 -1 -7 -6 6 -10 -53 -71 -69 -72 -5 0 -10 -4 -10 -8 0 -10 -56 -75 -73 -86 -8 -5 -11 78 -12 311 -2 326 -3 358 -10 358 -3 0 -16 8 -30 18 -34 24 -74 21 -107 -7z"/>
<path d="M3318 7146 c-15 -8 -30 -11 -34 -8 -4 4 -4 2 0 -5 3 -6 2 -14 -4 -18 -7 -4 -10 -751 -10 -2281 l0 -2274 -452 -2 c-249 0 -462 0 -473 0 -16 2 -17 0 -5 -8 10 -7 11 -10 2 -10 -7 0 -19 -15 -28 -33 -13 -26 -13 -37 -3 -62 7 -17 12 -33 11 -37 -1 -4 4 -5 12 -2 8 3 17 1 21 -5 7 -12 5499 -16 5542 -5 12 3 29 22 38 41 16 33 16 39 1 69 -8 19 -21 34 -28 34 -9 0 -8 3 2 10 12 7 9 9 -10 8 -14 -1 -231 -1 -482 0 l-457 2 0 740 0 740 160 0 c170 0 217 10 238 48 8 14 11 196 11 571 l0 550 -26 20 c-25 19 -40 21 -205 21 l-178 0 0 923 c0 507 -3 931 -7 940 -18 48 59 46 -1836 46 -1485 0 -1778 -2 -1800 -13z m1277 -165 l-60 -7 55 -4 c30 -3 73 -2 95 1 l40 5 -35 6 c-19 2 132 5 335 5 204 0 357 -3 340 -7 -22 -6 -9 -8 48 -9 50 -1 76 3 72 9 -4 7 75 9 232 8 154 -1 208 -4 153 -8 l-85 -5 91 -5 c51 -3 105 -2 120 1 l29 6 -35 5 c-19 3 143 5 360 6 217 0 389 -2 383 -5 -7 -2 -13 -9 -13 -14 0 -6 5 -7 11 -4 5 4 21 4 35 1 l24 -6 0 -2200 0 -2200 -215 0 -215 0 0 1995 0 1996 -25 24 c-23 24 -30 25 -147 25 -68 0 -604 1 -1192 1 l-1069 1 -26 -26 -26 -26 -3 -1995 -2 -1994 -215 -1 -215 -1 0 2216 0 2215 608 -2 c334 -1 580 -4 547 -7z m-504 -563 c0 -10 2 -10 6 0 6 15 73 16 73 1 0 -9 4 -9 14 0 14 12 66 11 66 -1 0 -12 58 -10 65 2 9 14 714 13 732 -1 9 -9 13 -9 13 0 0 15 726 16 735 1 3 -5 14 -10 23 -9 14 0 13 2 -3 9 -16 7 -13 9 16 9 24 1 39 -4 43 -14 3 -9 12 -12 22 -8 16 6 16 7 -2 14 -10 4 34 7 99 8 67 0 117 -4 117 -10 0 -5 9 -9 21 -9 11 0 17 5 14 10 -3 6 4 10 16 10 19 0 20 -2 8 -16 -12 -15 -11 -16 8 -10 l22 7 0 -1925 0 -1926 -1079 0 -1078 0 -1 1926 c0 1060 2 1930 5 1935 8 14 44 11 45 -3z m3109 -1768 l0 -440 -119 0 -118 0 0 440 0 440 118 0 119 0 0 -440z"/>
<path d="M7033 4720 c-18 -11 -33 -21 -33 -22 0 -2 -4 -17 -9 -35 -7 -22 -5 -39 5 -58 8 -15 12 -30 9 -34 -2 -4 1 -8 8 -8 7 -1 26 -6 44 -11 25 -8 39 -7 67 8 24 12 36 14 39 6 2 -6 4 4 4 22 0 19 6 38 14 43 10 6 10 9 2 9 -7 0 -13 9 -13 19 0 29 -40 69 -75 75 -21 4 -40 0 -62 -14z"/>
</g>
</svg>
