<?xml version="1.0" standalone="no"?>
<!DOCTYPE svg PUBLIC "-//W3C//DTD SVG 20010904//EN"
 "http://www.w3.org/TR/2001/REC-SVG-20010904/DTD/svg10.dtd">
<svg version="1.0" xmlns="http://www.w3.org/2000/svg"
 width="1024.000000pt" height="1024.000000pt" viewBox="0 0 1024.000000 1024.000000"
 preserveAspectRatio="xMidYMid meet">
<metadata>
Created by potrace 1.16, written by Peter Selinger 2001-2019
</metadata>
<g transform="translate(0.000000,1024.000000) scale(0.100000,-0.100000)"
fill="#000000" stroke="none">
<path d="M4420 6540 c-233 -41 -384 -230 -384 -480 0 -115 19 -187 76 -279 94
-151 102 -181 73 -279 -28 -94 -92 -138 -329 -228 -116 -44 -226 -114 -289
-184 -123 -136 -207 -423 -207 -704 0 -68 2 -77 24 -91 17 -11 30 -13 48 -6
25 9 25 11 31 163 12 285 77 479 203 603 64 63 131 99 301 164 144 54 202 89
257 152 51 60 69 124 64 223 -5 86 -22 128 -92 228 -47 65 -70 166 -64 273 14
210 163 355 367 355 138 0 242 -44 310 -131 49 -61 76 -132 95 -248 17 -106
52 -189 97 -231 l33 -29 -47 -20 c-54 -23 -71 -51 -91 -146 -14 -66 -49 -125
-87 -145 -11 -6 -52 -14 -92 -17 -56 -5 -76 -11 -94 -29 -28 -29 -31 -92 -5
-136 21 -37 61 -58 199 -103 272 -91 344 -177 433 -520 17 -66 43 -159 57
-208 14 -48 24 -89 21 -92 -3 -3 -47 11 -99 32 -94 37 -94 37 -239 37 -90 0
-185 -7 -250 -18 -195 -32 -184 -32 -171 -8 24 44 7 105 -41 148 -29 27 -109
68 -167 85 -45 13 -42 11 -259 258 -53 59 -68 71 -85 65 -27 -8 -24 -5 -32
-35 -5 -19 -1 -32 12 -45 10 -11 31 -36 47 -57 15 -21 55 -68 87 -105 l59 -66
-61 -22 c-33 -12 -81 -40 -107 -61 -93 -78 -93 -78 -237 -79 -72 0 -137 -4
-143 -8 -17 -10 -15 -51 3 -66 11 -9 58 -13 158 -14 159 0 175 4 257 77 98 87
211 105 327 53 34 -15 71 -38 83 -51 18 -19 19 -26 9 -49 -7 -14 -15 -26 -19
-26 -4 0 -36 11 -71 24 -92 34 -133 40 -149 21 -7 -9 -9 -22 -5 -32 5 -10 7
-22 6 -26 -1 -5 3 -6 7 -3 10 6 130 -39 146 -54 9 -9 -21 -56 -41 -64 -7 -3
-43 8 -80 25 -121 54 -165 17 -64 -53 l54 -38 -614 0 c-465 0 -618 -3 -627
-12 -15 -15 -15 -51 0 -66 9 -9 169 -12 660 -12 569 0 653 -2 686 -16 96 -40
337 -124 383 -132 50 -10 91 -9 202 4 58 6 59 6 47 -15 -29 -55 35 -56 89 -1
28 28 48 40 68 40 16 0 35 6 43 13 8 7 6 0 -4 -16 -14 -22 -15 -31 -5 -43 20
-24 46 -16 83 27 29 34 43 42 80 46 49 6 53 3 34 -26 -31 -50 43 -73 81 -25
11 14 23 34 26 44 7 22 21 27 100 35 56 6 115 34 115 56 0 5 205 9 520 9 l520
0 50 -34 c73 -50 134 -67 242 -67 129 -1 193 24 271 103 31 32 57 63 57 68 0
6 18 10 40 10 116 0 230 121 230 245 0 79 -33 134 -99 168 -30 15 -68 27 -84
27 -19 0 -38 10 -57 31 l-29 30 -335 -3 c-334 -3 -334 -3 -359 -26 -16 -16
-27 -39 -31 -70 -11 -85 17 -300 49 -374 7 -17 -20 -18 -487 -18 l-495 0 -23
25 c-15 16 -60 36 -135 60 l-112 35 -25 77 c-15 43 -40 137 -58 208 -74 305
-115 400 -214 493 -75 70 -144 107 -301 161 -65 23 -125 47 -132 53 -29 23
-12 36 62 47 132 19 180 69 212 221 17 80 19 84 50 92 42 11 83 61 83 102 0
24 -12 46 -45 85 -47 55 -52 69 -84 221 -24 120 -44 170 -94 243 -99 142 -283
210 -477 177z m2910 -1952 c0 -92 -20 -241 -37 -291 -24 -67 -74 -122 -131
-144 -70 -27 -193 -24 -254 5 -111 55 -152 138 -168 342 -5 68 -7 127 -4 132
3 4 138 8 300 8 l294 0 0 -52z m171 -18 c33 -18 52 -67 44 -118 -8 -53 -72
-127 -119 -138 l-28 -7 7 64 c7 57 12 121 14 187 1 18 7 22 32 22 17 0 39 -5
50 -10z m-2176 -263 c127 -42 248 -82 270 -89 63 -20 52 -41 -30 -57 l-70 -14
-37 37 c-28 28 -44 36 -72 36 -31 0 -36 -3 -36 -24 0 -13 7 -29 15 -36 21 -18
9 -30 -31 -30 -26 0 -43 8 -70 36 -31 31 -41 35 -77 32 -34 -2 -43 -7 -45 -25
-2 -14 5 -27 22 -39 37 -24 32 -34 -18 -34 -36 0 -47 5 -60 25 -21 32 -73 65
-102 65 -12 0 -28 -7 -35 -16 -12 -14 -9 -21 24 -48 21 -18 35 -35 31 -39 -4
-4 -58 -7 -121 -7 -107 0 -119 2 -226 40 -61 23 -146 55 -188 73 l-76 31 56
53 c30 29 57 53 59 53 2 0 29 -19 62 -41 59 -42 84 -46 96 -14 4 9 -3 26 -16
40 -13 14 -22 27 -19 29 2 2 69 11 149 21 80 9 152 18 160 19 8 2 47 2 85 1
57 -2 113 -17 300 -78z"/>
<path d="M7016 5254 c-3 -8 -3 -33 0 -54 7 -44 5 -50 -61 -125 -67 -77 -74
-92 -75 -147 0 -75 35 -138 78 -138 36 0 46 34 22 79 -35 69 -30 82 67 191 52
57 69 143 37 188 -18 25 -59 29 -68 6z"/>
<path d="M7197 5183 c-4 -3 -7 -23 -7 -43 0 -30 -10 -50 -55 -104 -63 -77 -74
-115 -50 -172 30 -72 68 -94 93 -54 10 17 10 26 -3 50 -24 47 -19 78 24 129
71 85 90 151 53 184 -19 18 -44 22 -55 10z"/>
</g>
</svg>
