<?xml version="1.0" standalone="no"?>
<!DOCTYPE svg PUBLIC "-//W3C//DTD SVG 20010904//EN" "http://www.w3.org/TR/2001/REC-SVG-20010904/DTD/svg10.dtd">
<svg xmlns="http://www.w3.org/2000/svg" version="1.0" width="1024.000000pt" height="1024.000000pt" viewBox="0 0 1024.000000 1024.000000" preserveAspectRatio="xMidYMid meet">
<metadata>
Created by potrace 1.16, written by Peter Selinger 2001-2019
<meta name="Producer" content="Online-Convert"/></metadata>
<g transform="translate(0.000000,1024.000000) scale(0.100000,-0.100000)" fill="#000000" stroke="none">
<path d="M3121 7869 c-106 -21 -219 -95 -297 -195 -43 -55 -93 -166 -97 -213 -2 -25 -4 -26 -67 -27 -256 -2 -430 -239 -351 -477 35 -107 92 -169 201 -221 l65 -31 680 0 c634 0 684 1 735 18 123 42 221 138 261 256 30 89 24 223 -13 303 -73 156 -222 246 -393 236 l-80 -5 -38 78 c-63 133 -190 234 -343 274 -62 16 -191 18 -263 4z m240 -135 c136 -40 260 -170 285 -301 3 -17 15 -41 26 -53 22 -24 34 -24 139 1 116 26 241 -35 299 -146 57 -112 20 -269 -82 -343 -86 -62 -89 -62 -762 -62 -674 0 -686 1 -761 63 -70 57 -102 165 -74 248 37 110 159 177 269 149 119 -30 126 -26 146 90 39 227 189 366 400 369 33 1 85 -6 115 -15z"/>
<path d="M6030 7559 c-24 -5 -67 -23 -95 -41 -27 -18 -74 -45 -104 -60 -89 -47 -185 -34 -267 35 -40 34 -87 36 -108 5 -29 -40 -20 -73 30 -117 64 -56 128 -85 201 -89 93 -6 144 5 209 45 186 116 238 120 363 29 68 -49 106 -66 173 -77 95 -15 156 1 263 70 128 84 188 89 288 25 28 -18 81 -48 117 -66 60 -30 73 -33 160 -33 86 0 101 3 160 31 81 39 150 101 150 136 0 31 -39 68 -71 68 -13 0 -51 -20 -84 -45 -67 -50 -99 -59 -185 -53 -46 3 -71 12 -117 42 -186 119 -319 128 -458 29 -126 -91 -197 -93 -323 -10 -123 81 -190 98 -302 76z"/>
<path d="M6810 6964 c-154 -41 -309 -193 -346 -339 -6 -23 -11 -25 -62 -25 -120 0 -228 -53 -297 -148 -47 -65 -69 -133 -68 -217 0 -161 95 -293 250 -346 53 -18 89 -19 707 -19 691 0 699 1 798 49 69 33 141 103 178 172 29 56 34 74 38 160 5 111 -10 170 -64 256 -41 64 -129 135 -197 158 -93 31 -204 31 -279 0 -12 -5 -23 7 -48 53 -88 165 -261 263 -464 261 -50 0 -116 -7 -146 -15z m281 -134 c130 -44 188 -103 248 -252 12 -31 31 -64 42 -74 19 -17 22 -16 88 15 93 45 172 48 253 8 107 -52 166 -154 155 -267 -6 -71 -33 -125 -89 -176 -89 -82 -58 -79 -798 -79 l-655 0 -40 26 c-84 56 -125 126 -125 213 0 64 45 143 105 186 46 33 54 35 120 33 38 -1 91 -4 117 -6 27 -3 46 -1 43 3 -3 4 2 13 10 20 8 7 15 22 15 34 0 80 83 221 160 272 98 65 236 82 351 44z"/>
<path d="M5180 6359 c-642 -52 -971 -141 -1136 -305 -112 -111 -126 -246 -40 -371 69 -100 192 -173 562 -333 353 -152 444 -219 444 -325 0 -51 -20 -83 -94 -152 -97 -92 -212 -157 -671 -384 -231 -113 -460 -232 -510 -264 -379 -239 -537 -465 -537 -765 1 -149 33 -251 142 -435 77 -131 93 -183 89 -284 -4 -74 -8 -88 -57 -181 -57 -110 -62 -140 -32 -170 55 -55 126 15 196 195 22 58 27 87 28 165 1 121 -26 208 -102 328 -76 121 -88 148 -111 240 -70 274 58 532 364 733 165 108 203 129 625 338 223 110 445 224 494 253 148 88 261 200 291 287 19 56 19 161 1 205 -49 117 -206 215 -611 381 -232 95 -394 200 -425 275 -7 18 -10 50 -7 78 5 42 12 53 63 101 75 70 183 121 339 160 124 31 314 62 362 60 16 -1 42 1 58 5 29 6 29 6 5 -5 -14 -7 -53 -25 -87 -42 -222 -106 -287 -273 -152 -391 86 -75 181 -108 663 -232 411 -106 519 -140 676 -216 107 -52 134 -70 196 -132 54 -54 76 -85 94 -131 31 -83 30 -177 -3 -274 -64 -183 -206 -340 -538 -596 -189 -146 -296 -273 -326 -388 -19 -74 -16 -184 6 -256 25 -80 66 -142 143 -217 108 -105 230 -179 489 -299 409 -189 591 -341 644 -539 24 -90 57 -116 112 -89 40 19 45 40 26 110 -47 181 -212 363 -448 494 -83 46 -107 58 -365 182 -264 127 -395 229 -457 355 -24 49 -28 69 -28 142 0 78 3 90 34 148 42 78 130 162 321 307 162 123 332 286 403 387 66 92 113 199 133 301 15 74 15 99 6 169 -21 147 -87 250 -226 355 -146 109 -414 207 -848 308 -42 10 -75 22 -72 27 3 4 -1 5 -9 2 -29 -11 -369 87 -462 133 -68 34 -95 61 -95 94 0 69 178 164 545 289 82 28 157 58 167 67 24 21 23 68 -2 93 -23 23 -78 24 -270 9z"/>
<path d="M2868 6240 c-26 -5 -74 -23 -105 -41 -165 -92 -182 -99 -240 -105 -80 -9 -146 14 -231 79 -75 56 -120 66 -147 32 -27 -37 -18 -69 33 -116 99 -93 199 -135 317 -133 96 2 137 16 270 92 94 53 104 57 165 57 55 0 74 -6 125 -34 33 -18 80 -45 105 -58 76 -42 181 -64 256 -54 107 16 281 110 319 173 22 38 6 82 -35 96 -33 12 -51 4 -125 -53 -74 -56 -125 -75 -206 -75 -78 0 -108 10 -219 74 -110 64 -188 82 -282 66z"/>
<path d="M2695 5148 c-16 -6 -64 -31 -106 -55 -58 -34 -90 -46 -135 -50 -73 -7 -84 -16 -84 -63 0 -55 25 -72 103 -72 66 0 111 17 213 82 50 31 115 46 161 36 16 -4 67 -31 113 -61 95 -63 130 -75 216 -75 78 0 125 17 232 82 78 48 90 53 146 53 56 0 70 -5 153 -53 100 -57 173 -77 237 -62 51 11 76 36 76 76 0 50 -20 63 -98 62 -63 -1 -73 2 -174 56 -105 54 -110 56 -185 56 -93 -1 -131 -13 -219 -70 -116 -76 -213 -83 -301 -20 -23 17 -70 44 -105 60 -53 25 -74 30 -138 29 -41 0 -88 -5 -105 -11z"/>
<path d="M6265 3846 c-66 -16 -144 -52 -172 -78 -31 -29 -30 -71 3 -97 34 -26 54 -26 106 0 146 74 243 69 383 -20 152 -97 326 -93 496 10 128 77 217 82 323 19 129 -77 227 -103 318 -86 71 13 102 82 58 126 -17 17 -33 20 -106 20 -82 0 -90 2 -174 44 -122 62 -187 80 -274 73 -61 -4 -85 -12 -190 -67 -178 -92 -245 -93 -411 -4 -131 71 -242 89 -360 60z"/>
</g>
</svg>
