<?xml version="1.0" standalone="no"?>
<!DOCTYPE svg PUBLIC "-//W3C//DTD SVG 20010904//EN"
 "http://www.w3.org/TR/2001/REC-SVG-20010904/DTD/svg10.dtd">
<svg version="1.0" xmlns="http://www.w3.org/2000/svg"
 width="1024.000000pt" height="1024.000000pt" viewBox="0 0 1024.000000 1024.000000"
 preserveAspectRatio="xMidYMid meet">
<metadata>
Created by potrace 1.16, written by Peter Selinger 2001-2019
</metadata>
<g transform="translate(0.000000,1024.000000) scale(0.100000,-0.100000)"
fill="#000000" stroke="none">
<path d="M5025 8041 c-186 -31 -342 -119 -515 -291 -275 -274 -676 -893 -1004
-1550 -539 -1079 -711 -1816 -567 -2421 129 -543 524 -1006 1095 -1284 165
-80 310 -133 511 -186 l130 -34 -736 -5 c-793 -5 -759 -3 -780 -57 -10 -28 7
-80 31 -93 12 -6 707 -10 1944 -10 l1925 0 21 27 c25 33 21 76 -11 108 -19 20
-36 20 -762 25 l-741 5 99 24 c763 180 1333 642 1574 1271 79 207 106 375 105
650 -1 241 -22 391 -90 650 -178 682 -588 1556 -1091 2324 -334 510 -580 752
-841 827 -76 22 -223 32 -297 20z m238 -176 c220 -57 431 -265 735 -720 263
-396 604 -1024 785 -1450 145 -341 272 -700 313 -883 19 -86 29 -73 -116 -154
-198 -111 -368 -173 -566 -208 -375 -66 -707 -18 -1113 159 -143 62 -341 176
-656 376 -27 17 -88 54 -135 82 -47 28 -121 72 -165 98 -126 75 -368 189 -510
240 -127 46 -377 115 -415 115 -33 0 -32 18 3 97 19 43 61 137 92 208 196 441
512 1000 807 1423 268 385 468 568 671 618 72 17 202 17 270 -1z m-1748 -2531
c302 -77 587 -206 950 -429 360 -222 453 -279 563 -340 576 -319 1152 -389
1686 -205 135 47 245 96 347 156 42 24 78 44 81 44 17 0 33 -164 33 -345 0
-233 -21 -381 -59 -416 -46 -44 -224 -154 -332 -205 -116 -55 -327 -122 -464
-145 -96 -17 -410 -17 -515 -1 -165 27 -343 78 -510 149 -156 65 -300 143
-685 375 -206 124 -431 255 -500 291 -336 177 -637 289 -902 337 -55 10 -102
20 -105 23 -17 18 137 543 213 725 15 37 -5 39 199 -14z m-304 -898 c230 -48
438 -124 710 -261 207 -104 276 -142 574 -325 590 -362 822 -468 1188 -545
428 -91 901 -17 1281 200 44 25 81 45 82 45 18 0 -116 -227 -194 -329 -286
-375 -691 -630 -1207 -760 -316 -80 -714 -80 -1030 -1 -386 97 -672 238 -942
463 -304 254 -514 599 -588 967 -31 150 -32 570 -2 570 7 0 64 -11 128 -24z"/>
</g>
</svg>
