<?xml version="1.0" standalone="no"?>
<!DOCTYPE svg PUBLIC "-//W3C//DTD SVG 20010904//EN" "http://www.w3.org/TR/2001/REC-SVG-20010904/DTD/svg10.dtd">
<svg xmlns="http://www.w3.org/2000/svg" version="1.0" width="1024.000000pt" height="1024.000000pt" viewBox="0 0 1024.000000 1024.000000" preserveAspectRatio="xMidYMid meet">
<metadata>
Created by potrace 1.16, written by Peter Selinger 2001-2019
<meta name="Producer" content="Online-Convert"/></metadata>
<g transform="translate(0.000000,1024.000000) scale(0.100000,-0.100000)" fill="#000000" stroke="none">
<path d="M7276 8899 c4 -8 -21 -31 -27 -25 -2 3 -5 -17 -7 -44 -4 -70 19 -91 148 -135 191 -65 481 -219 464 -247 -5 -7 -3 -8 5 -3 33 20 401 -335 386 -373 -2 -7 -1 -10 5 -7 12 8 113 -143 104 -157 -4 -6 -3 -8 3 -5 5 3 20 -12 32 -33 12 -22 19 -40 14 -40 -4 0 -3 -4 3 -8 16 -10 70 -121 110 -224 77 -198 119 -425 129 -698 l5 -145 30 -27 c17 -16 42 -28 56 -28 42 0 84 28 90 60 5 21 11 27 23 23 11 -3 12 -2 3 4 -7 5 -12 25 -11 44 2 54 -19 336 -31 419 -7 41 -13 86 -15 100 -1 14 -5 32 -8 40 -3 8 -15 51 -27 95 -47 182 -136 386 -236 546 -32 50 -52 93 -48 102 3 8 1 18 -5 22 -7 4 -8 -1 -4 -12 9 -25 -2 -14 -97 105 -226 283 -583 530 -919 636 -77 24 -187 33 -175 15z"/>
<path d="M6975 8257 c-46 -46 -49 -95 -6 -138 16 -16 36 -29 45 -29 26 0 197 -61 255 -91 45 -23 51 -29 31 -29 -23 -1 -23 -2 -5 -9 11 -5 25 -4 33 1 8 7 12 7 12 -1 0 -7 3 -10 8 -7 10 6 118 -70 115 -82 -1 -5 5 -9 15 -8 9 0 16 -5 14 -12 -1 -8 2 -11 7 -8 14 9 28 -16 26 -49 -2 -24 2 -31 17 -32 11 -1 17 3 15 10 -3 7 -9 11 -15 10 -6 -2 -10 6 -9 17 1 11 4 20 8 20 10 0 159 -160 159 -171 0 -6 -5 -7 -11 -3 -8 5 -8 1 0 -13 6 -11 7 -24 3 -28 -4 -5 -2 -5 5 -1 7 4 9 14 6 23 -13 34 18 0 62 -68 128 -199 190 -396 204 -653 l7 -139 32 -28 c57 -51 133 -31 152 40 6 24 7 81 1 157 -4 65 -8 128 -9 139 -1 24 -32 155 -56 240 -30 103 -107 266 -179 375 -86 129 -253 299 -382 386 -144 98 -365 195 -481 211 -40 5 -46 3 -79 -30z"/>
<path d="M3595 8030 c-78 -7 -233 -32 -340 -55 -227 -48 -560 -212 -749 -369 -31 -25 -47 -34 -43 -23 4 11 3 16 -3 12 -6 -3 -10 -12 -10 -19 0 -16 -54 -68 -63 -61 -4 3 -5 2 -2 -2 3 -3 -30 -43 -73 -87 -85 -88 -210 -249 -262 -341 -25 -43 -35 -54 -42 -43 -7 10 -8 8 -4 -5 3 -10 -9 -46 -28 -85 -66 -130 -129 -319 -162 -482 -9 -47 -24 -91 -33 -97 -10 -9 -11 -13 -2 -13 9 0 11 -11 7 -37 -9 -53 -27 -295 -28 -373 -1 -68 8 -229 18 -340 8 -90 -4 -119 -184 -418 -84 -139 -164 -277 -179 -307 -23 -46 -29 -52 -42 -42 -14 10 -14 10 -4 -4 10 -12 7 -27 -12 -76 -39 -95 -36 -157 11 -219 13 -17 20 -35 16 -39 -4 -4 0 -6 8 -4 8 1 42 -11 75 -27 55 -26 71 -29 187 -32 l127 -4 -7 -66 c-13 -121 -8 -274 10 -306 10 -16 15 -33 12 -38 -3 -4 -1 -8 4 -8 19 0 23 -69 6 -132 -9 -35 -14 -80 -11 -101 4 -30 2 -37 -9 -33 -18 7 -17 -2 2 -34 14 -23 14 -23 9 -2 -4 12 -2 22 3 22 17 0 23 -32 10 -49 -11 -14 -11 -14 2 -4 13 10 23 4 58 -32 44 -47 51 -73 29 -115 -34 -64 -51 -241 -32 -315 8 -29 9 -51 4 -53 -5 -2 -9 -8 -9 -13 0 -4 6 -6 14 -3 7 3 16 -2 20 -11 4 -11 2 -14 -7 -10 -6 4 -4 0 6 -8 9 -8 17 -17 17 -20 0 -4 17 -23 38 -42 44 -42 124 -82 181 -91 22 -4 39 -9 37 -13 -2 -3 10 -6 27 -6 18 -1 180 -2 361 -3 300 -2 328 -3 322 -18 -5 -14 -4 -15 9 -4 12 10 20 9 40 -4 45 -30 43 -18 100 -546 49 -454 51 -465 86 -505 61 -70 56 -69 531 -69 287 0 424 -4 420 -11 -3 -5 1 -5 9 1 10 8 244 11 849 11 933 0 887 -4 933 70 33 53 24 80 -77 216 -98 134 -233 337 -238 357 -2 8 -6 17 -10 20 -6 5 -98 167 -98 173 0 1 192 3 428 3 420 1 429 2 537 27 179 41 281 88 392 182 26 22 52 39 56 37 5 -1 6 1 3 6 -3 5 9 22 26 38 35 33 110 146 134 201 46 109 83 287 84 400 l0 51 158 4 c86 2 163 6 170 8 20 7 78 64 74 73 -2 4 5 7 15 7 10 0 14 4 8 8 -6 4 -9 164 -7 453 l3 447 131 148 c144 164 518 577 727 804 73 80 138 144 143 142 5 -1 7 2 4 6 -3 5 47 67 112 138 177 196 185 207 190 273 4 74 -19 118 -78 149 l-44 22 -1418 0 -1417 0 -7 38 c-63 366 -199 703 -393 976 -31 43 -55 83 -53 88 1 4 -1 7 -5 6 -5 -2 -33 24 -63 57 -58 62 -172 175 -177 175 -1 0 -34 24 -73 54 -179 139 -462 268 -688 313 -48 10 -89 21 -90 26 -2 4 -7 5 -12 2 -5 -3 -53 1 -107 9 -122 19 -465 28 -598 16z m603 -216 c90 -14 112 -20 107 -32 -4 -12 -3 -12 9 -3 25 21 278 -54 419 -125 149 -76 363 -226 350 -247 -3 -5 -1 -7 5 -3 17 10 156 -148 241 -274 76 -114 153 -261 205 -393 22 -55 25 -71 15 -83 -10 -12 -9 -13 5 -8 15 6 20 -5 19 -43 -1 -7 3 -13 7 -13 11 0 34 -80 64 -215 l23 -103 -182 -4 c-181 -3 -182 -3 -218 -31 -20 -15 -42 -38 -49 -50 -13 -24 -20 -137 -8 -137 4 0 12 -10 18 -22 12 -27 116 -152 209 -252 47 -51 60 -72 51 -78 -10 -7 -9 -8 4 -6 10 2 57 -42 128 -122 62 -69 121 -134 131 -146 18 -20 18 -23 -10 -140 -66 -269 -142 -434 -332 -725 -176 -270 -273 -482 -320 -701 -7 -32 -15 -58 -18 -58 -3 0 -6 -15 -7 -32 0 -18 -6 -98 -14 -178 -15 -158 -15 -166 -2 -320 32 -359 154 -677 410 -1070 41 -63 75 -120 75 -127 0 -7 4 -10 8 -8 6 5 22 -24 19 -35 -1 -2 7 -7 17 -11 10 -4 -507 -8 -1148 -8 l-1166 -1 -12 108 c-13 117 -31 279 -55 497 -34 312 -41 337 -103 413 -25 31 -58 55 -102 76 l-66 30 -369 6 c-264 3 -370 8 -373 16 -2 7 -12 10 -21 8 -27 -7 -79 32 -102 75 -28 57 -25 107 16 229 38 115 40 154 7 216 -10 17 -16 34 -15 38 1 5 -2 7 -6 5 -5 -1 -25 15 -44 36 -39 40 -40 52 -16 126 15 49 4 125 -31 213 -35 87 -37 120 -15 255 17 110 12 180 -17 217 -36 46 -75 55 -237 58 -192 4 -196 7 -154 99 16 35 62 118 102 184 40 66 115 190 166 275 52 85 97 160 101 165 5 6 9 15 10 20 2 6 12 37 24 70 22 62 22 92 3 385 -5 80 15 397 32 501 70 443 301 852 627 1112 33 26 64 44 69 40 6 -3 8 -1 5 4 -9 14 126 101 253 165 151 76 378 142 590 172 141 21 510 15 668 -10z m4377 -1754 c-3 -6 -13 -10 -21 -10 -8 0 -14 -7 -14 -16 0 -9 -37 -57 -83 -108 -46 -50 -229 -251 -408 -447 -629 -691 -697 -766 -715 -800 -18 -31 -19 -67 -22 -466 l-3 -433 -301 0 c-269 0 -300 2 -294 16 11 28 7 787 -4 840 -13 61 -32 84 -274 343 -99 107 -180 201 -178 208 1 7 -3 11 -10 9 -21 -6 -139 130 -131 150 4 12 3 15 -6 10 -8 -5 -23 1 -38 15 -21 20 -251 268 -402 434 -60 65 -161 177 -203 223 l-39 42 1576 0 c1035 0 1574 -4 1570 -10z m-2535 -942 c62 -68 143 -154 179 -193 37 -38 119 -128 184 -198 l117 -128 0 -445 c0 -428 1 -446 20 -485 12 -22 32 -45 45 -51 14 -6 25 -14 25 -18 0 -5 6 -8 13 -7 6 0 72 -1 146 -1 l133 -2 -7 -72 c-14 -151 -40 -267 -73 -318 -9 -14 -17 -28 -17 -31 0 -4 -15 -30 -34 -58 -69 -107 -227 -207 -391 -247 -67 -17 -129 -19 -556 -21 l-481 -3 -16 43 c-107 283 -119 687 -31 999 50 179 127 335 287 583 157 243 253 445 308 647 16 59 29 88 39 88 11 0 11 3 2 12 -11 11 -16 28 -8 28 2 0 54 -55 116 -122z"/>
<path d="M6888 7734 c-14 -14 -23 -15 -62 -5 -73 18 -110 14 -140 -15 -20 -21 -26 -37 -26 -69 0 -56 34 -86 125 -109 77 -19 197 -77 231 -111 12 -12 25 -21 27 -19 2 3 32 -25 66 -62 48 -51 61 -70 56 -87 -5 -16 -4 -18 3 -8 10 14 11 13 55 -61 43 -72 75 -193 88 -333 12 -128 12 -135 17 -130 3 2 17 -2 33 -10 15 -8 39 -15 53 -15 33 0 85 48 89 82 1 15 6 30 10 34 4 4 7 14 6 23 0 12 -3 11 -9 -4 -6 -14 -9 -2 -9 41 -3 261 -142 535 -352 696 -68 52 -229 138 -260 138 -8 0 -6 7 6 20 22 24 16 27 -7 4z"/>
</g>
</svg>
