<?xml version="1.0" standalone="no"?>
<!DOCTYPE svg PUBLIC "-//W3C//DTD SVG 20010904//EN"
 "http://www.w3.org/TR/2001/REC-SVG-20010904/DTD/svg10.dtd">
<svg version="1.0" xmlns="http://www.w3.org/2000/svg"
 width="1024.000000pt" height="1024.000000pt" viewBox="0 0 1024.000000 1024.000000"
 preserveAspectRatio="xMidYMid meet">
<metadata>
Created by potrace 1.16, written by Peter Selinger 2001-2019
</metadata>
<g transform="translate(0.000000,1024.000000) scale(0.100000,-0.100000)"
fill="#000000" stroke="none">
<path d="M3049 8433 c-1 -5 -1 -11 0 -15 0 -4 -29 -21 -66 -38 -37 -17 -82
-42 -100 -56 -18 -14 -33 -23 -33 -20 0 2 -29 -26 -64 -62 -61 -64 -136 -169
-136 -192 0 -5 -5 -10 -12 -10 -6 0 -9 -3 -5 -6 3 -3 -3 -31 -14 -61 -10 -31
-19 -67 -19 -80 0 -12 -4 -23 -10 -23 -5 0 -10 7 -10 17 0 9 -3 13 -7 10 -3
-4 -1 -17 5 -30 6 -12 13 -71 15 -132 5 -131 33 -222 97 -320 35 -53 140 -172
140 -158 0 3 18 -9 39 -27 49 -38 156 -87 210 -96 23 -4 41 -9 41 -13 0 -3 19
-7 43 -8 23 -2 53 -4 67 -5 14 -1 52 2 85 6 163 21 269 72 389 186 100 95 137
162 194 350 2 8 4 40 5 70 0 30 5 58 11 62 8 5 7 8 -1 8 -9 0 -13 17 -13 53 0
92 -69 260 -141 341 -16 19 -29 39 -29 45 0 6 -6 11 -14 11 -8 0 -21 8 -28 19
-40 57 -211 144 -316 161 -73 12 -219 13 -266 1 -42 -10 -68 -4 -45 10 10 6
11 9 2 9 -7 0 -14 -3 -14 -7z m347 -206 c57 -21 124 -56 124 -65 0 -5 7 -17
16 -28 14 -18 15 -18 4 6 -7 15 11 2 45 -35 58 -62 132 -196 119 -216 -4 -8
-9 -7 -15 2 -5 9 -7 4 -5 -14 3 -30 16 -50 16 -24 0 9 4 17 10 17 15 0 11
-164 -6 -227 -33 -128 -122 -236 -241 -296 -73 -37 -112 -47 -225 -54 -55 -4
-68 -2 -68 10 0 8 -7 17 -14 20 -10 4 -13 1 -9 -9 5 -15 -8 -19 -21 -6 -4 4
-12 8 -17 8 -5 1 -10 2 -11 3 -2 2 -13 4 -26 7 -39 7 -111 54 -163 107 -52 52
-119 174 -124 224 -1 15 -6 36 -10 46 -4 10 -4 44 -1 75 4 31 7 66 7 77 -1 28
39 135 51 135 5 0 7 4 4 9 -7 11 42 79 94 129 47 45 154 103 194 105 14 1 26
5 26 9 0 12 205 0 246 -15z"/>
<path d="M6836 8414 c-139 -33 -295 -142 -371 -257 -14 -22 -20 -25 -27 -15
-7 10 -8 9 -4 -4 3 -9 -8 -43 -25 -75 -56 -110 -83 -266 -63 -368 3 -19 1 -35
-5 -39 -6 -4 -11 -17 -10 -29 0 -21 1 -21 9 -2 9 22 7 25 35 -65 9 -30 27 -74
40 -98 l24 -43 -22 -10 c-19 -8 -17 -9 8 -4 24 5 28 4 18 -6 -17 -17 -16 -26
3 -33 14 -5 15 -4 4 9 -11 13 -10 14 1 10 8 -3 32 -27 54 -54 22 -26 68 -68
103 -92 35 -24 69 -48 76 -54 6 -5 18 -11 25 -13 8 -2 30 -10 50 -19 20 -9 41
-17 46 -18 6 -1 12 -3 15 -4 13 -7 139 -25 165 -24 74 2 165 15 206 31 19 8
30 7 39 -1 10 -9 11 -9 6 0 -4 8 14 23 54 43 33 17 62 30 65 31 8 0 79 63 128
113 77 80 157 237 157 311 0 14 4 25 8 25 14 0 5 213 -12 274 -9 32 -32 90
-51 128 -18 38 -33 75 -31 81 1 7 1 9 -1 6 -2 -4 -46 36 -98 88 -52 52 -96 94
-99 94 -11 -1 -141 64 -144 72 -2 4 -7 5 -11 3 -3 -2 -33 2 -66 10 -76 17
-222 17 -299 -2z m279 -179 c61 -15 167 -78 195 -117 15 -20 30 -35 33 -32 15
15 106 -140 111 -190 1 -12 5 -26 8 -32 4 -5 6 -57 5 -114 -2 -98 -5 -110 -39
-183 -22 -45 -58 -99 -87 -130 -50 -53 -131 -107 -131 -88 0 6 -9 2 -20 -9
-17 -17 -42 -26 -53 -17 -2 1 -10 -3 -18 -10 -24 -20 -140 -27 -213 -13 -36 7
-66 16 -66 21 0 5 -3 8 -7 7 -13 -4 -73 24 -73 33 0 5 -4 8 -9 6 -15 -4 -72
44 -65 55 4 6 3 8 -3 5 -6 -4 -25 9 -41 28 -186 211 -139 553 97 718 73 50
162 75 261 72 47 -2 99 -6 115 -10z"/>
<path d="M2885 7029 c-299 -12 -472 -97 -648 -319 -33 -41 -64 -74 -69 -72 -5
1 -7 -2 -3 -8 6 -9 -64 -130 -129 -224 -18 -27 -20 -28 -28 -10 -6 15 -7 13
-3 -7 3 -18 -6 -43 -28 -80 -156 -255 -212 -345 -221 -351 -6 -4 -7 -8 -2 -8
5 0 4 -6 -2 -12 -28 -35 -104 -206 -130 -293 -56 -191 -97 -459 -122 -795 -15
-199 -9 -283 25 -351 27 -52 29 -66 8 -61 -16 4 -17 -24 -1 -34 7 -5 8 -3 3 6
-6 10 -4 12 9 7 10 -4 15 -3 11 3 -13 21 9 9 49 -27 47 -42 61 -65 25 -42 -23
16 -24 15 -25 -7 -1 -13 2 -24 8 -24 5 0 6 5 3 10 -3 6 1 10 10 10 9 0 14 -4
11 -8 -2 -4 4 -8 14 -8 11 0 16 5 12 14 -4 12 -1 12 19 1 13 -7 30 -12 37 -11
6 2 12 -1 12 -5 0 -9 13 -11 75 -12 66 0 95 4 95 12 0 4 10 7 23 7 36 0 128
70 160 121 21 35 33 75 48 165 11 65 21 145 24 176 2 31 6 62 10 68 4 6 9 28
11 48 2 20 4 44 5 52 1 8 10 58 21 110 11 52 23 107 25 123 3 15 9 27 14 27 5
0 8 3 8 8 -1 4 0 10 1 15 1 4 3 10 5 15 2 8 13 38 25 67 13 34 23 -63 16 -172
-10 -171 -7 -565 5 -613 6 -25 12 -52 14 -60 2 -8 4 -17 5 -20 1 -3 2 -8 1
-12 0 -5 3 -8 8 -8 6 0 14 -19 18 -42 11 -55 -33 -231 -56 -223 -10 4 -11 2
-3 -8 8 -9 7 -29 -4 -73 -18 -68 -40 -100 -31 -44 5 31 5 33 -5 12 -9 -18 -9
-28 -1 -42 9 -14 2 -53 -34 -186 -26 -93 -50 -171 -55 -172 -4 -2 -6 -7 -3
-12 18 -28 -143 -370 -206 -439 -9 -10 -20 -27 -23 -39 -4 -12 -12 -22 -17
-22 -5 0 -9 -6 -9 -12 -1 -17 -39 -66 -40 -50 0 6 -5 12 -11 12 -8 0 -8 -4 1
-15 14 -17 8 -27 -172 -310 -66 -104 -133 -215 -149 -245 -42 -82 -58 -217
-34 -285 19 -56 42 -102 63 -127 13 -15 21 -28 17 -28 -7 0 26 -31 85 -80 24
-19 68 -56 99 -83 63 -53 136 -91 204 -107 25 -5 124 -11 219 -12 142 -1 182
2 225 16 71 24 103 63 103 125 0 60 -32 112 -128 206 -40 39 -72 76 -72 83 0
6 -4 12 -9 12 -14 0 9 61 25 67 8 3 14 11 14 18 0 6 11 24 25 39 14 15 31 39
39 54 8 15 27 41 42 57 15 17 26 30 24 30 -2 0 9 19 25 43 16 24 34 41 41 38
9 -3 11 0 7 11 -4 9 1 21 11 29 10 6 17 16 17 21 1 4 24 41 52 80 36 50 57 71
67 67 11 -4 12 -2 3 6 -8 9 -4 23 20 56 17 24 34 44 39 44 4 0 8 7 8 15 0 8 4
15 10 15 5 0 9 3 8 8 -2 9 179 284 193 293 6 3 10 9 10 13 -3 13 81 156 89
151 18 -11 90 -137 75 -131 -9 3 -13 2 -10 -4 3 -6 12 -10 18 -10 7 0 18 -9
25 -20 14 -22 3 -27 -17 -7 -11 10 -11 8 0 -10 7 -11 19 -19 26 -16 12 5 18
-9 13 -32 -1 -5 2 -7 6 -2 4 4 18 -12 32 -35 71 -126 72 -128 56 -128 -8 0
-13 -4 -9 -10 3 -5 11 -7 18 -5 12 5 74 -99 70 -116 -2 -5 3 -9 10 -9 6 0 3
-8 -8 -16 l-20 -16 20 6 c17 5 26 -6 55 -61 19 -36 34 -70 33 -74 -2 -5 3 -9
10 -9 8 0 7 -4 -3 -10 -13 -8 -12 -10 3 -10 10 0 15 -4 12 -10 -3 -5 -2 -10 4
-10 6 0 7 -7 4 -17 -4 -9 -2 -14 3 -10 6 3 40 -53 76 -126 l65 -131 -21 -19
c-16 -14 -17 -17 -4 -13 9 3 19 2 21 -2 2 -4 2 -1 1 5 -11 46 48 -46 85 -132
3 -7 -1 -7 -10 0 -8 6 -6 2 5 -8 15 -13 16 -18 6 -17 -30 4 -39 0 -33 -16 4
-11 8 -12 13 -4 5 9 9 9 14 1 4 -6 12 -11 17 -11 6 0 7 5 4 10 -3 6 -4 10 -2
10 12 0 58 -105 54 -121 -4 -13 0 -16 12 -12 13 5 12 2 -4 -18 -16 -18 -16
-21 -2 -10 9 8 19 12 20 10 1 -2 17 -23 34 -46 18 -23 28 -44 23 -46 -6 -3 -5
-4 2 -3 7 1 32 -12 56 -30 143 -110 325 -123 486 -36 103 56 191 174 203 275
3 23 9 47 13 52 11 14 9 65 -1 65 -5 0 -9 11 -9 24 0 14 -14 62 -30 108 -17
46 -30 87 -29 92 0 5 -3 12 -8 15 -9 6 -70 146 -75 171 -2 8 -5 17 -8 20 -12
10 -59 130 -52 130 4 0 2 4 -4 8 -10 7 -90 182 -96 212 -2 8 -5 17 -8 20 -11
10 -53 110 -53 125 0 8 -4 15 -8 15 -4 0 -11 10 -15 23 -4 12 -32 78 -62 147
-30 68 -55 130 -55 137 0 7 -4 13 -8 13 -8 0 -55 111 -51 123 1 4 -3 7 -8 7
-6 0 -10 4 -10 10 0 5 -27 67 -59 138 -33 70 -61 134 -63 142 -2 8 -6 19 -11
25 -19 26 -105 214 -100 219 4 3 1 6 -6 6 -7 0 -9 5 -6 10 3 6 1 10 -6 10 -7
0 -10 3 -6 6 3 3 2 11 -4 18 -18 22 -79 146 -71 146 4 0 2 4 -4 8 -18 11 -44
81 -33 87 5 4 9 12 9 18 0 7 -4 6 -10 -3 -16 -26 -24 -1 -24 78 1 171 6 326
11 315 2 -7 9 -13 15 -13 16 0 108 -82 108 -96 0 -7 6 -11 13 -8 7 2 37 -17
67 -44 30 -26 76 -63 103 -82 26 -18 47 -37 47 -42 0 -5 4 -7 9 -4 5 3 15 -1
22 -10 11 -13 9 -14 -14 -9 -17 5 -27 3 -27 -4 0 -6 13 -9 31 -7 36 4 108 -32
110 -54 0 -8 3 -10 5 -4 4 8 15 8 42 -2 121 -43 299 17 381 128 47 63 75 165
68 242 -8 84 -8 84 -46 151 -30 54 -184 219 -194 208 -3 -2 -16 10 -30 27 -14
16 -29 30 -34 30 -9 0 -54 42 -149 139 -58 59 -62 66 -46 78 15 13 15 13 -4 4
-17 -8 -25 -6 -38 8 -9 10 -13 20 -10 24 3 3 -4 10 -15 17 -12 6 -21 15 -21
20 0 5 -11 21 -25 36 -13 14 -22 30 -19 35 3 5 0 9 -6 9 -6 0 -8 5 -5 10 3 6
2 10 -4 10 -18 0 -69 163 -86 280 -2 14 -18 84 -35 155 -17 72 -32 139 -34
150 -1 12 -5 25 -8 31 -4 5 -12 38 -18 74 -7 36 -16 73 -21 83 -5 9 -20 47
-34 83 -51 134 -138 250 -250 330 -58 41 -201 114 -234 120 -20 4 -113 25
-135 31 -15 4 -16 7 -5 14 10 6 8 8 -8 6 -12 0 -19 -5 -17 -9 7 -10 -32 -10
-54 0 -9 4 -84 5 -167 1z m185 -183 c171 -23 290 -75 383 -169 51 -51 130
-170 127 -192 0 -3 6 -20 14 -38 24 -58 27 -75 16 -82 -5 -3 -10 -14 -9 -23 0
-14 2 -14 8 2 5 14 10 16 15 7 5 -7 1 -20 -8 -30 -9 -10 -16 -22 -16 -27 0 -5
7 0 15 10 11 15 16 16 19 5 10 -28 46 -178 50 -206 2 -15 6 -35 9 -43 3 -8 20
-80 38 -159 17 -80 40 -170 51 -200 11 -31 20 -62 21 -68 0 -7 4 -13 9 -13 5
0 6 -4 3 -10 -3 -5 -1 -10 4 -10 6 0 11 -7 11 -15 0 -8 4 -15 8 -15 5 0 15
-12 23 -27 8 -16 21 -33 29 -40 8 -7 11 -13 6 -13 -5 0 3 -10 18 -21 16 -12
25 -27 22 -36 -3 -8 -2 -12 3 -9 4 3 19 -6 31 -19 13 -14 20 -25 15 -25 -4 0
-1 -8 7 -17 9 -10 14 -26 13 -35 -2 -10 1 -18 7 -18 6 0 8 7 4 15 -3 8 -3 15
0 15 12 0 97 -87 105 -107 5 -14 17 -23 29 -23 17 0 20 -4 15 -22 -5 -18 -4
-20 5 -8 9 13 14 11 34 -11 12 -14 28 -28 34 -30 6 -2 48 -37 93 -78 56 -52
89 -90 105 -125 40 -86 28 -161 -36 -218 -71 -64 -151 -60 -253 11 -99 70
-241 178 -281 215 -21 20 -42 36 -46 36 -4 0 -23 17 -43 38 -19 20 -54 52 -76
70 -35 29 -41 38 -41 73 0 21 4 39 9 39 6 0 6 12 1 31 -5 18 -7 36 -4 41 3 4
5 81 5 171 l-1 162 -35 32 c-31 29 -37 32 -62 22 -15 -6 -30 -11 -33 -11 -3 0
-14 -6 -24 -14 -18 -12 -21 -33 -29 -201 -5 -104 -8 -262 -7 -353 1 -91 -2
-200 -5 -242 -6 -65 -9 -76 -23 -71 -14 4 -13 2 2 -11 12 -10 17 -23 13 -38
-3 -13 -2 -77 2 -143 6 -84 5 -124 -3 -134 -8 -12 -8 -13 2 -7 13 8 25 -15 22
-38 -1 -5 2 -12 7 -15 11 -8 94 -171 87 -171 -3 0 2 -7 10 -16 9 -8 16 -22 16
-29 0 -7 18 -47 40 -89 27 -48 40 -85 38 -103 -2 -18 2 -28 11 -28 17 0 17 0
92 -160 82 -173 82 -174 64 -181 -8 -4 -15 -11 -15 -16 0 -6 7 -5 15 2 9 7 18
11 21 8 2 -3 38 -81 78 -174 67 -155 72 -170 58 -186 -10 -12 -11 -18 -3 -18
7 0 9 -5 5 -12 -4 -7 -3 -8 4 -4 6 4 9 13 5 21 -3 8 -1 15 5 15 9 0 28 -39 34
-70 2 -8 5 -17 8 -20 15 -13 58 -130 50 -135 -5 -3 -13 3 -19 12 -5 10 -13 14
-18 10 -4 -5 0 -13 10 -18 9 -6 17 -19 17 -30 0 -16 5 -19 19 -14 17 5 30 -10
36 -45 0 -3 9 -20 18 -37 18 -34 13 -45 -7 -17 -10 13 -12 9 -12 -19 0 -23 4
-33 12 -30 7 2 14 -1 17 -9 2 -7 2 -3 0 10 -2 12 1 22 7 22 9 0 12 -14 9 -36
0 -4 3 -10 8 -13 5 -3 19 -31 32 -61 13 -30 47 -112 76 -182 30 -70 50 -130
46 -133 -5 -2 -12 5 -16 18 -4 12 -9 27 -10 32 -2 6 -8 24 -14 40 l-9 30 -1
-27 c-1 -15 4 -30 9 -33 8 -5 7 -12 -2 -23 -8 -9 -8 -13 -2 -9 13 8 27 -19 18
-34 -3 -5 9 -12 26 -15 17 -4 28 -9 26 -12 -3 -2 1 -14 9 -26 8 -11 15 -30 15
-43 0 -12 5 -25 11 -28 6 -5 5 -11 -5 -18 -11 -9 -13 -16 -6 -27 8 -13 10 -12
10 3 0 11 5 15 11 11 15 -9 5 -102 -14 -141 -35 -66 -122 -126 -205 -139 -43
-7 -152 19 -152 36 0 6 -4 9 -9 7 -5 -1 -25 15 -45 35 -41 42 -280 513 -269
531 3 5 2 7 -4 4 -10 -6 -38 40 -35 56 1 4 -3 7 -9 7 -8 0 -7 5 1 15 11 13 10
14 -4 9 -14 -5 -18 0 -15 22 0 4 -3 10 -9 13 -14 9 -111 199 -104 205 3 3 1 6
-5 6 -5 0 -15 12 -22 28 -7 15 -46 86 -86 157 -41 72 -74 133 -74 138 0 4 -9
16 -18 27 -10 10 -27 36 -38 57 -11 21 -22 40 -26 43 -3 3 -30 41 -59 85 -29
44 -73 106 -97 137 -24 31 -43 59 -43 62 0 4 -12 20 -27 37 -16 17 -27 35 -25
40 1 5 -2 9 -8 9 -5 0 -22 19 -37 43 -16 23 -33 47 -39 52 -6 6 -56 69 -112
142 -93 120 -121 166 -90 147 7 -4 8 -3 4 5 -4 6 -11 9 -16 6 -10 -6 -120 126
-120 144 0 6 -4 11 -9 11 -18 0 -149 236 -137 247 3 4 0 13 -7 21 -14 17 -24
422 -10 422 4 0 8 123 9 273 1 376 3 393 61 484 76 117 107 176 107 203 1 32
-38 77 -75 85 -51 11 -82 -14 -146 -123 -20 -35 -42 -61 -49 -58 -7 3 -10 -2
-7 -15 3 -10 0 -19 -6 -19 -6 0 -11 -4 -11 -8 0 -5 -36 -69 -81 -143 -44 -74
-90 -155 -102 -181 -15 -35 -26 -48 -41 -48 -12 0 -28 -5 -36 -10 -11 -8 -6
-9 18 -5 l33 5 -21 -39 c-11 -22 -20 -47 -20 -56 0 -8 -5 -15 -12 -15 -6 0 -9
-3 -6 -6 4 -3 -4 -36 -17 -73 -12 -37 -26 -86 -30 -109 -4 -23 -11 -44 -16
-48 -5 -3 -7 -8 -5 -12 2 -4 0 -29 -5 -57 -5 -27 -11 -72 -14 -100 -3 -27 -8
-61 -11 -75 -4 -14 -8 -43 -9 -65 -8 -96 -18 -155 -26 -161 -5 -3 -9 3 -9 13
0 15 -2 16 -10 3 -12 -19 -13 -33 -1 -25 18 11 22 -15 6 -45 -24 -47 -69 -69
-127 -65 -27 2 -60 11 -74 19 -23 16 -61 76 -48 76 4 0 2 6 -4 13 -13 16 -8
185 12 397 4 41 12 104 17 140 6 36 10 72 11 80 0 26 19 144 25 160 4 8 5 19
4 23 -2 9 16 81 26 107 3 8 7 27 9 41 13 95 146 358 308 609 13 19 51 80 86
135 34 55 67 102 71 103 5 2 9 8 9 14 0 23 130 199 200 269 94 96 189 145 328
169 49 9 205 7 282 -4z m-546 -2710 c6 -10 24 -32 39 -49 17 -18 26 -38 24
-48 -3 -10 1 -23 9 -30 9 -7 14 -8 14 -1 0 6 -5 13 -10 15 -6 3 -6 5 -2 4 9
-2 112 -133 112 -142 0 -2 13 -18 30 -36 16 -18 28 -34 26 -36 -2 -2 12 -20
30 -40 18 -20 31 -40 27 -46 -3 -5 -9 -3 -14 4 -6 10 -8 7 -6 -8 1 -17 4 -20
15 -11 11 9 19 5 38 -20 14 -17 25 -33 25 -36 0 -3 13 -19 30 -37 16 -17 29
-36 29 -42 0 -5 -25 -56 -56 -113 -36 -69 -61 -104 -72 -104 -11 0 -13 -3 -6
-8 8 -5 -2 -29 -33 -77 -25 -38 -49 -72 -53 -75 -3 -3 -9 -12 -12 -20 -5 -14
-188 -278 -249 -360 -14 -19 -83 -114 -153 -210 -70 -96 -133 -182 -139 -190
-33 -41 -74 -170 -58 -186 3 -3 -2 -11 -11 -18 -11 -8 -14 -17 -7 -27 6 -10 9
-10 9 -1 0 6 5 12 10 12 6 0 10 -7 10 -16 0 -9 38 -55 85 -103 l84 -86 -140
-3 c-77 -2 -145 1 -152 5 -7 4 -20 9 -30 10 -33 5 -125 73 -202 148 -68 65
-80 83 -76 108 0 4 -3 7 -8 7 -5 0 -13 24 -16 53 -6 47 -3 61 20 108 15 30 32
57 37 60 5 3 10 10 10 15 0 13 100 174 108 174 4 0 7 6 7 13 0 7 22 46 50 87
27 41 66 103 87 138 21 34 43 68 49 75 7 7 13 18 14 24 3 15 104 176 116 184
5 3 8 9 7 13 -2 13 53 106 63 106 6 0 8 3 5 6 -4 3 7 34 23 68 16 35 50 134
75 222 24 87 47 166 51 174 3 8 7 22 8 30 3 20 64 251 72 270 3 8 5 21 4 28
-1 6 3 12 9 12 5 0 10 7 10 16 0 20 20 14 34 -10z"/>
<path d="M6680 7016 c-146 -33 -285 -109 -380 -210 -56 -59 -160 -203 -240
-333 -25 -40 -48 -73 -52 -73 -5 0 -8 -5 -8 -11 0 -14 -130 -223 -142 -227 -4
-2 -8 -9 -8 -16 0 -6 -11 -28 -25 -48 -39 -58 -161 -297 -188 -368 -34 -92
-116 -459 -118 -530 0 -8 -5 -40 -10 -70 -20 -121 -49 -353 -49 -390 0 -22 -4
-40 -10 -40 -5 0 -7 -6 -5 -12 2 -7 6 -40 8 -73 5 -70 10 -85 51 -145 69 -102
172 -156 286 -151 71 4 82 6 132 30 44 21 150 111 132 111 -5 0 -2 6 6 13 8 7
16 19 17 27 1 12 34 164 57 270 2 8 7 41 10 72 4 32 12 60 17 64 5 3 7 9 4 14
-12 20 67 313 100 370 l14 25 1 -38 c0 -24 -4 -36 -12 -35 -7 2 -14 -8 -16
-22 -4 -25 -3 -25 13 -5 15 19 16 13 10 -90 -3 -60 -6 -205 -8 -322 -2 -193
-6 -234 -20 -178 -4 15 -5 14 -6 -7 -1 -19 5 -29 20 -33 16 -5 20 -13 16 -31
-2 -14 0 -27 5 -30 5 -3 7 -12 4 -20 -3 -8 -2 -14 2 -14 11 0 35 -68 37 -104
2 -24 -25 -118 -52 -186 -3 -8 -5 -19 -4 -23 0 -4 -6 -10 -15 -14 -11 -4 -12
-8 -4 -13 8 -5 7 -17 -5 -46 -9 -21 -15 -40 -15 -42 3 -5 -12 -67 -18 -77 -4
-5 -8 -19 -10 -30 -3 -19 -55 -192 -93 -307 -43 -129 -96 -248 -111 -248 -5 0
-7 -3 -5 -8 3 -4 -9 -30 -26 -59 -92 -150 -126 -206 -237 -384 -67 -107 -127
-197 -133 -201 -7 -4 -8 -8 -4 -8 4 0 -19 -39 -51 -87 -68 -100 -83 -128 -107
-198 -33 -95 -11 -247 46 -319 11 -14 17 -26 13 -26 -4 0 3 -9 15 -19 14 -12
20 -25 15 -32 -4 -7 -3 -9 3 -6 6 4 18 -2 28 -13 10 -11 23 -20 29 -20 6 0 27
-15 46 -34 55 -54 96 -91 101 -92 2 0 25 -13 51 -28 99 -58 329 -82 491 -51
132 25 171 71 154 180 -1 6 -5 12 -9 15 -3 3 -8 11 -10 19 -2 8 -43 57 -93
109 -86 89 -114 125 -85 107 9 -5 11 -4 6 4 -8 12 120 201 136 201 5 0 7 4 3
9 -3 5 3 16 13 23 11 7 19 15 18 18 -2 9 67 100 76 100 4 0 7 4 5 8 -4 15 135
202 146 195 6 -3 7 -1 3 5 -4 6 31 67 76 134 117 174 202 306 227 356 12 23
26 42 32 42 6 0 7 5 4 10 -3 6 -1 10 5 10 6 0 8 5 5 10 -3 6 -1 10 4 10 6 0
10 3 10 8 -3 20 2 33 11 27 6 -4 8 -11 5 -16 -4 -5 -1 -17 5 -26 9 -16 10 -15
5 5 -4 12 -3 22 2 22 14 0 65 -90 60 -105 -4 -8 -1 -12 6 -9 12 4 60 -66 57
-82 -1 -4 3 -10 8 -13 26 -16 260 -451 243 -451 -6 0 -11 -5 -11 -11 0 -5 4
-8 8 -5 4 2 13 2 19 -2 18 -12 65 -113 59 -128 -3 -8 0 -13 6 -11 6 1 27 -28
47 -65 30 -57 33 -70 22 -80 -8 -8 -11 -8 -7 -1 7 12 -2 43 -13 43 -11 0 -11
-39 0 -46 6 -4 6 -11 -2 -20 -8 -10 -8 -14 0 -14 6 0 11 5 11 11 0 8 5 7 15
-1 13 -11 14 -10 9 6 -6 17 -5 17 9 -1 8 -11 16 -24 18 -30 1 -5 9 -16 16 -23
7 -8 11 -18 8 -23 -4 -5 -2 -9 3 -9 11 0 22 -23 28 -60 4 -20 2 -22 -7 -10 -9
13 -10 13 -6 0 2 -8 11 -14 19 -12 13 2 74 -107 69 -124 -2 -4 2 -10 7 -13 5
-3 19 -26 32 -51 12 -25 33 -59 46 -76 13 -17 21 -34 19 -38 -3 -3 -2 -4 1 -1
4 2 29 -15 56 -40 90 -81 237 -113 368 -81 36 9 70 18 75 19 6 1 31 17 56 34
108 75 177 190 186 316 7 91 -5 134 -92 332 -36 83 -67 155 -68 160 -1 6 -4
12 -7 15 -5 5 -44 89 -46 100 0 3 -22 49 -47 102 -26 53 -48 103 -49 110 -2 7
-6 15 -9 18 -11 10 -68 140 -61 140 4 0 2 4 -4 8 -14 8 -154 307 -154 328 0 8
-4 14 -8 14 -9 0 -88 171 -84 183 1 4 -3 7 -9 7 -5 0 -8 4 -5 9 4 5 2 11 -3
13 -5 1 -11 10 -13 18 -2 8 -6 17 -10 20 -12 10 -116 239 -110 244 3 3 0 6 -7
6 -7 0 -10 4 -7 9 4 5 2 11 -3 13 -13 5 -71 125 -64 132 4 3 1 6 -6 6 -7 0 -9
5 -6 10 3 6 2 10 -3 10 -9 0 -49 81 -44 89 2 2 -1 7 -6 10 -12 8 -47 74 -44
84 1 4 -2 7 -8 7 -6 0 -9 3 -8 8 1 4 -8 27 -21 50 -12 24 -20 46 -17 49 3 3 1
14 -5 25 -7 14 -7 70 1 186 13 199 20 249 31 231 4 -7 6 -16 3 -20 -2 -5 5 -6
16 -4 18 3 25 -6 21 -28 -1 -5 3 -6 9 -2 13 8 172 -126 166 -140 -2 -6 6 -12
17 -13 12 0 27 -8 33 -17 6 -8 15 -15 21 -15 5 0 27 -17 49 -37 21 -20 43 -37
47 -38 4 0 11 -4 15 -10 15 -21 112 -64 170 -76 114 -24 248 25 317 115 71 93
86 227 36 332 -37 79 -70 115 -191 210 -55 43 -99 83 -96 90 3 7 -2 10 -14 7
-13 -3 -41 18 -96 71 -42 42 -82 76 -87 76 -6 0 -8 3 -4 6 3 3 -7 17 -24 31
-16 14 -26 30 -22 35 3 7 1 8 -5 4 -24 -15 -199 250 -178 271 3 3 1 11 -4 18
-5 6 -11 30 -13 52 -2 22 -7 44 -10 50 -3 5 -11 41 -17 79 -5 38 -19 112 -31
165 -11 52 -21 106 -23 120 -1 13 -5 31 -8 39 -6 15 -53 181 -60 210 -1 8 -5
17 -8 20 -3 3 -23 41 -45 84 -37 73 -163 227 -206 252 -72 41 -126 75 -139 86
-8 7 -15 11 -15 9 0 -2 -29 5 -65 17 -36 11 -92 26 -124 31 -78 14 -256 12
-326 -3z m353 -176 c48 -12 60 -25 30 -33 -16 -4 -16 -5 -1 -6 9 0 19 3 22 8
7 11 46 2 46 -11 0 -5 4 -7 10 -3 5 3 18 -3 29 -14 11 -11 21 -17 24 -15 2 3
18 -8 35 -24 17 -16 42 -36 55 -45 25 -16 117 -144 121 -168 1 -8 9 -27 18
-44 15 -28 32 -83 41 -130 2 -11 7 -28 10 -37 16 -42 17 -51 5 -66 -9 -11 -9
-14 -1 -9 12 8 27 -33 37 -103 3 -19 10 -55 16 -79 8 -31 8 -47 -1 -57 -6 -7
-9 -21 -6 -31 4 -14 5 -13 6 5 3 52 19 15 35 -80 10 -57 32 -139 48 -183 17
-44 30 -88 30 -99 -1 -10 2 -16 5 -12 3 3 28 -27 55 -67 27 -39 65 -88 84
-108 19 -19 31 -39 27 -43 -5 -4 -3 -6 3 -4 14 4 86 -81 78 -93 -3 -5 -2 -9 3
-8 23 4 39 -5 82 -46 25 -24 90 -79 144 -121 53 -42 97 -80 97 -85 0 -5 6 -9
13 -9 7 0 31 -18 52 -40 21 -22 36 -40 31 -40 -4 0 0 -7 8 -16 9 -8 17 -23 17
-32 1 -9 3 -28 4 -42 4 -39 -21 -88 -56 -109 -18 -11 -36 -18 -41 -15 -4 3 -8
0 -8 -5 0 -6 -13 -11 -29 -11 -40 0 -92 20 -84 33 3 6 1 7 -5 3 -13 -8 -162
89 -162 104 0 6 -7 10 -15 10 -9 0 -18 7 -21 15 -4 8 -11 15 -16 15 -11 0
-109 80 -173 142 -22 21 -70 65 -107 99 -45 41 -65 67 -63 79 7 38 8 267 1
278 -4 7 -4 17 0 24 5 8 2 9 -9 5 -10 -3 -17 -3 -17 2 0 4 -22 8 -48 10 -40 1
-52 -2 -71 -23 -27 -28 -25 -10 -36 -361 -3 -115 -11 -262 -16 -325 -5 -63 -9
-136 -9 -162 0 -26 -6 -63 -14 -83 -9 -20 -11 -33 -6 -30 11 7 25 -39 16 -54
-4 -5 -2 -12 4 -16 5 -3 10 -14 10 -23 0 -9 23 -63 50 -120 59 -119 74 -155
61 -147 -5 3 -13 0 -17 -6 -4 -8 -3 -9 4 -5 7 4 12 2 12 -4 0 -6 4 -9 9 -6 13
8 63 -85 58 -106 -3 -10 -1 -16 4 -13 4 3 31 -39 59 -95 28 -55 47 -100 43
-100 -5 0 -3 -4 3 -8 20 -13 65 -112 52 -113 -10 0 -10 -2 0 -6 15 -6 102
-179 94 -187 -3 -3 0 -6 7 -6 7 0 9 -4 6 -10 -3 -6 -1 -10 5 -10 6 0 8 -4 5
-10 -3 -5 -2 -10 3 -10 14 0 29 -43 26 -75 -2 -21 0 -25 6 -15 7 11 22 -13 59
-90 36 -77 47 -108 39 -118 -8 -9 -7 -11 4 -7 12 5 20 -6 31 -39 8 -24 12 -48
9 -52 -4 -4 -2 -4 4 -1 10 6 54 -72 46 -82 -2 -2 1 -7 6 -10 5 -3 23 -36 40
-73 22 -50 27 -69 18 -78 -8 -8 -7 -10 4 -6 11 4 25 -17 52 -80 23 -55 32 -84
23 -80 -11 4 -12 0 -6 -17 5 -12 15 -21 22 -20 11 2 50 -69 54 -97 1 -3 13
-28 28 -56 14 -28 23 -54 20 -58 -4 -3 -2 -6 4 -6 10 0 25 -39 22 -56 0 -4 3
-10 8 -13 14 -10 34 -62 28 -72 -4 -5 -1 -9 4 -9 7 0 11 -24 11 -58 0 -63 -35
-149 -58 -144 -8 1 -10 -2 -7 -8 8 -14 -15 -32 -75 -61 -51 -24 -161 -32 -168
-11 -2 6 -13 12 -25 12 -44 0 -109 72 -161 176 -26 55 -59 120 -72 145 -13 25
-21 49 -17 53 3 3 2 6 -4 6 -5 0 -29 41 -53 90 -23 50 -46 93 -51 96 -5 3 -7
10 -4 15 4 5 1 9 -5 9 -6 0 -8 5 -5 10 3 6 2 10 -3 10 -9 0 -35 58 -31 69 0 2
-4 7 -9 10 -12 7 -107 193 -104 204 1 4 -3 7 -10 7 -6 0 -9 3 -5 6 3 3 1 11
-4 18 -6 6 -56 93 -113 193 -56 100 -108 189 -115 197 -12 15 -8 20 12 17 5
-1 6 3 2 8 -3 6 -12 8 -19 5 -9 -3 -19 7 -27 25 -8 17 -17 31 -21 31 -5 0 -8
5 -8 10 0 6 -11 23 -25 38 -14 15 -24 35 -21 44 2 9 -1 15 -8 12 -11 -4 -63
64 -59 78 2 4 -1 8 -6 8 -8 0 -85 98 -86 110 0 3 -15 20 -32 39 -18 19 -30 38
-28 42 3 4 -2 12 -10 19 -8 7 -12 17 -8 23 3 6 1 7 -5 3 -11 -7 -122 131 -122
152 0 7 -4 12 -9 12 -10 0 -180 227 -245 328 -51 79 -88 157 -79 166 4 3 2 6
-4 6 -6 0 -18 26 -27 58 -13 48 -15 95 -11 297 3 132 5 312 5 400 -1 118 3
171 14 202 8 22 12 44 8 47 -9 10 -9 96 1 96 5 0 7 6 4 14 -5 11 32 79 52 96
4 3 21 33 38 68 31 62 32 64 16 97 -9 19 -20 32 -24 29 -4 -2 -11 1 -16 8 -4
7 -25 13 -46 13 -48 0 -76 -31 -202 -230 -109 -172 -191 -329 -226 -430 -13
-38 -28 -73 -34 -77 -5 -4 -6 -8 -2 -8 5 0 5 -6 0 -12 -4 -7 -9 -22 -10 -33
-2 -11 -6 -27 -10 -35 -6 -16 -10 -30 -17 -70 -32 -184 -46 -259 -53 -280 -3
-8 -7 -26 -8 -40 -12 -111 -23 -137 -69 -178 -33 -29 -40 -31 -93 -27 -34 3
-67 12 -82 22 -35 27 -61 82 -61 129 0 48 28 271 37 294 3 8 7 31 9 50 5 58 6
61 25 175 11 61 21 132 24 159 3 28 8 52 12 55 5 3 10 26 11 51 2 25 7 47 10
50 4 3 9 20 10 39 2 19 8 46 14 60 5 14 10 28 10 31 1 27 100 247 117 260 3 3
17 26 30 53 13 26 28 47 32 47 5 0 8 6 6 13 -1 6 3 11 10 10 7 -2 10 3 8 10
-3 6 16 47 43 89 112 183 156 248 165 248 6 0 8 3 4 6 -7 7 107 182 131 202 9
6 12 12 8 12 -11 0 51 76 112 137 61 60 189 129 267 143 62 11 244 5 308 -10z
m-542 -2715 c-3 0 10 -16 27 -35 18 -19 32 -40 32 -47 0 -7 3 -13 8 -13 7 0
112 -135 112 -144 0 -3 9 -16 21 -28 26 -29 99 -126 99 -132 0 -2 14 -18 30
-36 17 -18 30 -37 30 -44 0 -6 9 -17 19 -23 19 -12 25 -53 9 -53 -4 0 -7 -3
-6 -7 3 -13 -13 -53 -21 -53 -4 0 -8 -6 -8 -12 -1 -54 -456 -723 -810 -1193
-5 -5 -10 -23 -11 -40 -2 -16 -8 -32 -13 -33 -6 -2 -4 -11 3 -20 10 -12 10
-16 1 -19 -15 -5 -17 -33 -3 -33 6 0 10 5 10 11 0 17 11 8 102 -86 l87 -90
-132 0 c-73 0 -138 4 -145 9 -7 4 -16 5 -19 2 -23 -23 -239 156 -289 240 -23
39 -31 94 -21 141 8 33 30 71 139 241 57 88 150 236 208 330 58 94 109 171
113 171 5 1 5 -4 1 -11 -4 -6 -3 -8 4 -5 5 4 8 16 5 27 -3 11 0 20 6 20 6 0
10 3 9 8 -3 12 24 62 34 62 4 0 8 6 8 14 0 8 6 21 13 28 7 7 14 15 15 18 0 3
17 40 36 82 20 42 36 81 36 87 0 6 4 11 10 11 5 0 7 7 4 15 -4 8 -1 15 5 15 6
0 10 3 9 8 -4 12 56 207 64 210 5 2 6 7 4 11 -4 6 53 201 70 241 4 8 8 21 10
28 1 7 13 51 26 98 l23 84 20 -27 c11 -15 18 -28 16 -28z"/>
</g>
</svg>
