<?xml version="1.0" standalone="no"?>
<!DOCTYPE svg PUBLIC "-//W3C//DTD SVG 20010904//EN"
 "http://www.w3.org/TR/2001/REC-SVG-20010904/DTD/svg10.dtd">
<svg version="1.0" xmlns="http://www.w3.org/2000/svg"
 width="1024.000000pt" height="1024.000000pt" viewBox="0 0 1024.000000 1024.000000"
 preserveAspectRatio="xMidYMid meet">
<metadata>
Created by potrace 1.16, written by Peter Selinger 2001-2019
</metadata>
<g transform="translate(0.000000,1024.000000) scale(0.100000,-0.100000)"
fill="#000000" stroke="none">
<path d="M5052 8787 c-13 -8 -36 -32 -51 -55 -15 -23 -31 -39 -36 -35 -4 5 -5
2 -1 -5 8 -13 -145 -311 -509 -997 -67 -126 -139 -263 -160 -303 -28 -53 -41
-70 -47 -60 -7 9 -8 8 -4 -5 8 -23 -222 -469 -237 -460 -6 3 -7 1 -3 -5 4 -6
-5 -35 -20 -64 -30 -60 -38 -136 -48 -463 -4 -104 -9 -224 -12 -265 -8 -92 -7
-1015 0 -1073 7 -54 21 -323 21 -404 0 -33 2 -60 5 -58 9 6 32 -293 24 -306
-4 -7 -3 -9 3 -6 12 8 36 -201 27 -240 -4 -22 -3 -25 5 -13 9 12 11 10 11 -10
0 -37 66 -453 96 -610 51 -265 143 -633 199 -789 8 -24 13 -54 9 -65 -3 -14
-2 -17 3 -9 12 16 48 -81 37 -98 -4 -7 -3 -9 3 -6 13 8 44 -69 36 -90 -4 -10
-2 -14 4 -10 6 4 16 -7 23 -26 32 -80 135 -285 180 -358 30 -48 47 -86 44 -97
-4 -11 -3 -13 3 -5 6 9 22 -5 53 -48 24 -33 73 -90 109 -126 36 -36 65 -70 63
-75 -1 -5 2 -7 7 -4 5 4 26 -5 46 -18 20 -14 56 -32 80 -42 25 -9 43 -19 41
-23 -2 -3 10 -6 27 -7 18 0 59 -3 92 -6 210 -19 469 130 508 292 7 28 59 434
142 1105 30 242 60 476 65 520 25 195 151 1207 169 1365 12 96 25 209 31 250
25 192 81 779 95 995 36 552 29 1253 -13 1332 -9 18 -71 110 -137 205 -65 95
-151 219 -190 276 -38 56 -94 136 -123 178 -29 41 -49 80 -46 86 4 6 3 8 -3 5
-12 -7 -240 320 -235 337 2 6 0 8 -4 4 -4 -4 -44 45 -90 110 -56 79 -79 119
-71 124 8 5 7 8 -4 8 -9 0 -38 31 -65 69 -62 89 -99 107 -152 78z m17 -492
c11 -159 27 -443 56 -960 9 -148 23 -405 33 -570 15 -269 17 -540 17 -2612 0
-1272 -3 -2309 -6 -2305 -3 4 -70 324 -148 712 -140 696 -212 1050 -351 1715
-152 727 -173 831 -241 1160 -39 187 -115 560 -170 829 l-99 489 156 296 c86
163 182 343 212 401 31 58 122 231 204 385 81 154 155 294 164 312 9 18 20 30
24 28 4 -3 7 2 6 9 -1 12 125 274 131 271 1 0 6 -72 12 -160z m327 -175 c70
-102 140 -202 156 -224 15 -21 25 -43 21 -49 -3 -5 -1 -7 4 -4 10 7 28 -20 25
-35 -1 -5 2 -8 7 -8 16 0 163 -219 155 -232 -4 -6 -3 -8 3 -5 13 8 126 -160
117 -175 -4 -6 -3 -8 4 -4 13 8 56 -60 47 -74 -4 -6 -1 -9 6 -8 7 2 17 -9 22
-24 9 -22 6 -31 -18 -60 -16 -18 -32 -32 -37 -30 -5 1 -7 -2 -4 -7 8 -13 -124
-172 -137 -164 -6 4 -7 1 -2 -6 4 -8 -4 -25 -22 -44 -16 -18 -110 -131 -208
-252 -98 -121 -182 -224 -186 -228 -3 -5 -4 3 -2 17 3 15 10 23 17 20 6 -3 4
0 -5 8 -13 10 -17 45 -23 173 -9 210 -52 980 -71 1270 -14 213 -17 349 -7 340
5 -5 67 -93 138 -195z m634 -1675 c-6 -203 -15 -374 -19 -378 -5 -5 -6 -27 -4
-50 3 -23 -2 -130 -11 -237 -30 -355 -61 -624 -206 -1800 -33 -267 -60 -491
-60 -498 0 -7 -4 -10 -10 -7 -6 3 -7 -1 -4 -10 8 -21 -6 -166 -15 -160 -5 2
-6 -6 -4 -18 2 -12 -14 -168 -37 -347 -22 -179 -47 -377 -55 -440 -62 -516
-88 -688 -106 -727 -22 -46 -98 -104 -127 -96 -16 4 -17 131 -14 2284 l2 2280
26 35 c14 18 31 31 37 27 5 -3 7 -2 4 4 -3 5 26 48 66 94 40 46 131 154 202
239 72 85 132 157 135 160 10 9 156 185 175 212 l20 26 8 -112 c5 -65 4 -265
-3 -481z m-1891 -488 c18 -86 29 -167 26 -180 -4 -14 -3 -17 2 -10 8 11 70
-258 78 -337 1 -14 5 -32 8 -40 16 -46 76 -361 71 -374 -3 -9 -2 -16 4 -16 13
0 46 -175 37 -191 -5 -7 -4 -10 2 -6 6 4 18 -33 31 -96 12 -56 42 -201 67
-322 25 -121 44 -228 41 -238 -3 -11 -2 -16 2 -13 9 10 63 -255 56 -277 -3
-11 -2 -17 3 -14 10 6 167 -738 159 -752 -4 -5 -2 -11 2 -13 5 -1 30 -110 56
-242 39 -195 46 -240 35 -247 -12 -8 -7 -13 11 -11 10 1 62 -277 54 -289 -4
-7 -3 -9 3 -6 6 4 16 -29 26 -81 9 -48 32 -163 51 -257 40 -187 41 -199 24
-189 -7 4 -8 3 -4 -5 4 -6 12 -9 17 -6 5 4 9 -3 9 -14 0 -10 3 -28 7 -38 6
-16 5 -16 -10 -4 -9 7 -14 18 -10 24 3 5 1 7 -4 4 -25 -16 -245 266 -228 293
3 6 2 9 -5 8 -24 -6 -220 408 -204 433 4 7 3 9 -3 6 -24 -15 -176 499 -242
821 -58 279 -147 881 -156 1048 -2 42 -6 83 -9 92 -3 9 -10 85 -16 167 -6 83
-12 171 -15 196 -15 162 -27 733 -21 984 4 160 7 306 6 325 0 19 1 32 3 30 3
-3 19 -76 36 -163z"/>
</g>
</svg>
