<?xml version="1.0" standalone="no"?>
<!DOCTYPE svg PUBLIC "-//W3C//DTD SVG 20010904//EN"
 "http://www.w3.org/TR/2001/REC-SVG-20010904/DTD/svg10.dtd">
<svg version="1.0" xmlns="http://www.w3.org/2000/svg"
 width="1024.000000pt" height="1024.000000pt" viewBox="0 0 1024.000000 1024.000000"
 preserveAspectRatio="xMidYMid meet">
<metadata>
Created by potrace 1.16, written by Peter Selinger 2001-2019
</metadata>
<g transform="translate(0.000000,1024.000000) scale(0.100000,-0.100000)"
fill="#000000" stroke="none">
<path d="M4436 6506 c-184 -77 -282 -274 -232 -461 19 -71 51 -130 95 -174
l38 -38 -31 -1 c-52 -2 -167 -42 -228 -78 -113 -68 -207 -201 -268 -379 -67
-192 -109 -398 -131 -635 -10 -120 -10 -142 5 -199 19 -73 50 -119 108 -161
85 -62 246 -100 420 -100 l98 0 33 -47 c117 -169 147 -194 187 -158 11 10 20
24 20 32 0 15 -108 174 -160 234 l-30 37 -165 3 c-92 2 -168 8 -174 14 -7 7
-2 33 15 79 14 38 45 146 69 240 65 253 102 376 165 543 20 52 22 66 12 88 -9
19 -19 25 -42 25 -29 0 -34 -5 -65 -72 -45 -100 -86 -225 -151 -467 -65 -239
-113 -401 -120 -401 -21 0 -78 53 -95 88 -20 41 -21 55 -16 190 11 286 87 599
192 787 95 168 292 267 473 235 128 -22 194 -85 277 -265 92 -201 111 -230
153 -238 37 -7 190 17 362 57 80 19 146 33 148 31 2 -2 -8 -21 -21 -42 -14
-22 -41 -71 -60 -109 -41 -82 -50 -87 -227 -128 -201 -47 -283 -44 -352 14
l-33 28 0 108 0 107 -27 8 c-51 14 -64 -11 -83 -151 -13 -103 -61 -337 -70
-348 -2 -2 -50 2 -107 9 -134 16 -158 10 -158 -36 0 -18 5 -37 10 -40 6 -4 56
-11 112 -17 123 -12 176 -35 218 -91 44 -61 119 -213 180 -365 60 -152 81
-177 126 -147 35 23 31 46 -46 225 -92 218 -127 285 -175 345 -25 30 -41 56
-36 59 21 13 154 28 195 22 68 -11 103 -51 153 -177 23 -57 60 -167 83 -244
53 -173 58 -184 88 -192 33 -8 56 8 60 41 4 35 -109 388 -158 491 -43 91 -86
137 -149 160 -51 18 -163 20 -227 4 -25 -6 -47 -10 -49 -8 -4 5 25 130 32 138
2 3 16 -5 32 -17 51 -37 100 -52 176 -52 83 0 207 21 291 50 84 29 84 30 66
-42 -10 -41 -15 -111 -15 -198 0 -152 17 -238 60 -305 20 -30 27 -54 28 -105
4 -109 22 -157 79 -215 45 -46 63 -56 151 -85 90 -29 116 -33 259 -39 155 -6
159 -7 177 -31 10 -14 51 -72 91 -129 84 -121 115 -149 146 -132 45 24 38 44
-72 199 -58 82 -113 155 -123 164 -14 12 -52 17 -173 21 -168 6 -242 21 -329
65 -67 34 -89 63 -100 130 -7 47 -6 52 8 46 84 -35 132 -47 235 -60 272 -32
471 -7 554 69 14 13 26 18 30 11 112 -162 144 -217 252 -434 99 -198 114 -220
145 -220 37 0 55 10 55 32 0 26 -182 385 -265 523 -36 61 -85 130 -110 155
-24 25 -45 54 -47 65 -3 18 3 20 77 23 105 4 211 -20 272 -61 41 -27 56 -48
105 -142 31 -60 76 -155 100 -210 23 -55 63 -140 88 -190 37 -75 49 -91 71
-93 15 -2 32 5 44 18 18 20 18 21 -7 78 -117 262 -193 422 -227 481 -23 38
-41 74 -41 79 0 4 12 19 26 33 33 31 46 63 45 116 -1 74 -45 115 -173 163 -70
26 -89 49 -117 142 -103 336 -155 450 -247 544 -43 43 -58 64 -46 64 32 0 118
58 170 114 83 92 114 203 93 332 -22 127 -109 240 -229 297 -63 30 -74 32
-177 32 -99 0 -116 -3 -168 -27 -158 -74 -254 -249 -227 -415 12 -75 63 -175
112 -218 21 -19 38 -37 38 -40 0 -3 -15 -5 -32 -5 -46 0 -165 -33 -214 -58
-23 -11 -62 -37 -89 -57 -32 -25 -54 -35 -68 -31 -11 3 -107 -13 -213 -35
-106 -22 -223 -41 -260 -42 l-69 -2 -80 163 c-52 104 -95 177 -120 202 -21 22
-37 41 -34 43 2 2 34 17 70 35 293 141 297 557 6 713 -57 30 -71 34 -162 36
-88 3 -107 1 -159 -21z m259 -100 c63 -29 140 -113 157 -169 42 -147 -19 -299
-146 -364 -67 -34 -139 -40 -207 -18 -74 25 -159 110 -183 183 -24 72 -22 159
5 222 25 58 109 141 160 157 62 20 159 15 214 -11z m1518 -252 c108 -37 199
-163 199 -276 0 -170 -121 -298 -284 -298 -170 0 -303 115 -315 274 -7 80 8
130 57 198 55 77 135 118 230 118 36 0 87 -7 113 -16z m-201 -695 c130 -27
227 -103 291 -226 21 -40 65 -157 98 -260 34 -103 70 -204 80 -224 21 -42 60
-69 148 -102 101 -38 119 -64 86 -127 -18 -35 -18 -35 -48 -15 -45 29 -178 57
-285 58 l-104 2 6 60 c3 33 9 132 12 220 6 154 6 161 -14 179 -24 21 -66 16
-76 -10 -4 -9 -11 -109 -17 -223 -6 -113 -12 -208 -14 -210 -2 -2 -22 4 -43
12 -40 16 -191 40 -335 52 -42 4 -80 11 -83 16 -2 5 9 96 27 204 31 188 31
196 14 215 -24 27 -61 25 -79 -2 -17 -28 -66 -332 -66 -410 0 -84 28 -99 221
-118 262 -26 328 -50 329 -122 0 -44 -10 -56 -63 -75 -44 -15 -84 -18 -252
-17 -376 1 -472 53 -506 274 -39 251 61 573 226 729 108 102 294 152 447 120z"/>
</g>
</svg>
