<?xml version="1.0" standalone="no"?>
<!DOCTYPE svg PUBLIC "-//W3C//DTD SVG 20010904//EN"
 "http://www.w3.org/TR/2001/REC-SVG-20010904/DTD/svg10.dtd">
<svg version="1.0" xmlns="http://www.w3.org/2000/svg"
 width="1024.000000pt" height="1024.000000pt" viewBox="0 0 1024.000000 1024.000000"
 preserveAspectRatio="xMidYMid meet">
<metadata>
Created by potrace 1.16, written by Peter Selinger 2001-2019
</metadata>
<g transform="translate(0.000000,1024.000000) scale(0.100000,-0.100000)"
fill="#000000" stroke="none">
<path d="M6730 8233 c-64 -23 -81 -100 -32 -146 l29 -28 261 3 c144 2 262 2
262 0 0 -3 -104 -128 -265 -317 -38 -45 -112 -132 -164 -193 -52 -61 -98 -109
-104 -105 -6 3 -7 2 -4 -4 4 -6 -8 -28 -27 -49 -18 -21 -36 -48 -40 -58 -9
-26 11 -84 34 -96 12 -6 172 -10 415 -10 l396 0 24 25 c14 13 25 34 25 45 0
29 -26 76 -45 84 -9 3 -145 6 -301 6 l-285 0 47 55 c26 30 50 52 54 50 4 -2 7
2 7 8 0 7 94 123 209 257 292 340 304 356 304 390 0 89 -5 90 -427 89 -197 0
-365 -3 -373 -6z"/>
<path d="M5712 7558 c-30 -33 -36 -70 -18 -106 25 -48 53 -53 254 -50 100 2
182 2 182 0 0 -14 -74 -90 -83 -85 -5 3 -7 1 -3 -5 3 -6 -44 -71 -106 -145
-62 -74 -141 -169 -176 -211 -35 -42 -67 -74 -72 -71 -6 4 -7 -1 -3 -11 4 -10
2 -15 -3 -11 -7 4 -8 -13 -4 -45 5 -38 14 -57 34 -75 l27 -23 310 0 310 0 24
25 c35 34 34 83 -3 118 l-27 26 -214 1 -214 1 40 42 c22 23 57 63 77 89 21 26
43 45 49 41 5 -3 7 -2 4 4 -7 12 130 179 144 175 6 -1 8 2 5 7 -3 5 32 55 79
110 98 117 106 147 57 194 l-28 27 -310 0 c-309 0 -311 0 -332 -22z"/>
<path d="M3915 7439 c-177 -21 -432 -97 -588 -176 -37 -18 -73 -31 -79 -27 -6
4 -8 3 -5 -3 3 -5 -23 -26 -58 -47 -35 -20 -93 -59 -129 -86 -43 -32 -72 -47
-84 -44 -12 4 -14 3 -4 -4 10 -7 1 -20 -38 -55 -29 -26 -56 -44 -61 -41 -5 3
-8 2 -7 -3 2 -5 -32 -47 -74 -93 -285 -315 -446 -673 -489 -1090 -34 -332 28
-665 198 -1065 161 -378 341 -688 533 -915 55 -66 96 -123 94 -133 -1 -9 2
-15 7 -11 5 3 6 11 3 17 -4 7 18 -12 49 -42 31 -30 54 -57 52 -61 -2 -4 2 -7
9 -7 15 0 75 -44 75 -55 1 -5 -8 -8 -19 -8 -30 0 -193 -57 -285 -100 -234
-107 -496 -318 -643 -515 -60 -80 -132 -213 -132 -243 0 -11 12 -34 26 -51 20
-24 34 -31 63 -31 20 0 46 7 57 15 12 8 23 12 26 10 2 -2 4 4 4 13 0 30 95
179 169 264 158 184 362 324 623 427 131 52 323 97 308 72 -3 -5 0 -8 7 -8 6
1 82 -33 168 -76 128 -64 182 -84 293 -112 297 -75 518 -72 764 11 330 110
641 412 834 809 76 157 74 225 -7 241 -62 11 -89 -8 -120 -89 -61 -159 -185
-351 -317 -493 -137 -146 -352 -279 -528 -326 -73 -20 -109 -23 -255 -22 -149
0 -183 3 -276 26 -309 78 -617 264 -848 514 -133 143 -351 460 -335 485 4 7 3
9 -4 5 -13 -8 -126 210 -116 226 4 6 3 8 -3 5 -17 -11 -139 267 -205 468 -37
114 -74 267 -89 373 -17 123 -6 422 20 540 55 245 178 512 319 692 60 76 215
229 225 223 6 -3 7 -1 3 5 -10 17 186 168 204 157 6 -4 9 -1 8 6 -4 15 165
106 274 149 208 81 376 112 603 112 271 -1 473 -46 696 -157 138 -68 286 -176
272 -198 -3 -5 -2 -7 4 -4 12 8 122 -105 176 -180 32 -44 36 -56 27 -73 -7
-13 -7 -20 0 -20 5 0 10 8 10 18 1 16 2 15 15 -2 31 -41 96 -177 89 -188 -4
-6 -3 -8 4 -4 16 10 89 -188 127 -343 11 -47 27 -85 44 -103 24 -26 35 -31 96
-35 127 -9 185 -44 235 -143 81 -161 85 -431 9 -588 -41 -83 -87 -128 -175
-168 -66 -30 -74 -36 -79 -67 -4 -21 7 -117 30 -252 55 -326 93 -462 177 -630
97 -192 215 -321 368 -399 113 -57 165 -75 425 -142 404 -104 620 -196 844
-357 100 -72 243 -205 235 -218 -3 -5 0 -8 6 -7 18 4 114 -125 159 -212 21
-41 48 -105 61 -142 27 -84 58 -113 110 -103 19 3 40 7 47 7 7 1 10 5 7 9 -2
4 0 10 6 14 17 11 11 78 -14 151 -141 416 -559 766 -1136 952 -54 18 -494 132
-507 132 -2 0 -2 4 1 9 4 5 -3 7 -14 4 -12 -3 -59 14 -116 42 -80 39 -110 61
-178 128 -116 117 -176 230 -240 451 -22 75 -86 426 -86 467 0 7 23 28 51 44
100 59 183 180 220 322 27 102 36 287 19 390 -18 111 -71 255 -119 317 -62 83
-192 156 -278 156 -27 0 -26 -2 -82 175 -50 157 -157 376 -246 500 -79 111
-213 249 -315 325 -161 119 -389 216 -627 266 -107 22 -158 27 -313 30 -102 1
-221 -2 -265 -7z"/>
<path d="M4901 5783 c-113 -148 -164 -193 -270 -235 -47 -18 -76 -22 -176 -22
-103 0 -131 4 -200 27 -96 32 -105 33 -138 7 -60 -48 -39 -127 44 -164 28 -12
48 -24 45 -26 -2 -3 8 -5 22 -6 15 -1 51 -6 81 -12 29 -7 92 -12 140 -12 191
1 346 62 471 188 77 77 130 160 130 205 0 14 -9 36 -21 51 -16 21 -29 26 -64
26 -36 0 -47 -5 -64 -27z"/>
<path d="M3590 5171 c-8 -5 -32 -35 -53 -68 -107 -162 -301 -229 -518 -176
-68 16 -70 16 -97 -4 -45 -33 -43 -118 2 -142 15 -9 23 -19 19 -30 -3 -11 -2
-12 4 -4 7 10 21 10 66 1 34 -7 52 -15 44 -20 -6 -4 4 -5 23 -3 19 2 78 7 130
9 112 7 168 22 266 75 40 22 75 37 78 35 3 -2 4 -1 1 2 -2 4 24 37 59 74 64
68 106 139 106 179 0 33 -52 81 -87 81 -15 0 -35 -5 -43 -9z"/>
<path d="M4540 4244 c-129 -133 -238 -180 -399 -171 -106 5 -151 -6 -170 -42
-31 -57 4 -114 80 -130 72 -16 204 -13 274 5 33 9 70 17 82 18 11 0 20 3 18 6
-2 3 21 18 51 34 62 33 188 145 209 187 23 44 19 82 -13 112 -43 42 -79 36
-132 -19z"/>
</g>
</svg>
