<?xml version="1.0" standalone="no"?>
<!DOCTYPE svg PUBLIC "-//W3C//DTD SVG 20010904//EN"
 "http://www.w3.org/TR/2001/REC-SVG-20010904/DTD/svg10.dtd">
<svg version="1.0" xmlns="http://www.w3.org/2000/svg"
 width="1024.000000pt" height="1024.000000pt" viewBox="0 0 1024.000000 1024.000000"
 preserveAspectRatio="xMidYMid meet">
<metadata>
Created by potrace 1.16, written by Peter Selinger 2001-2019
</metadata>
<g transform="translate(0.000000,1024.000000) scale(0.100000,-0.100000)"
fill="#000000" stroke="none">
<path d="M3960 7530 c-715 -41 -1324 -167 -1596 -331 -82 -50 -156 -132 -183
-204 l-23 -60 5 -450 c7 -550 30 -846 92 -1200 67 -382 174 -714 330 -1024 36
-73 63 -137 59 -143 -4 -6 -3 -8 3 -5 13 8 86 -111 77 -125 -4 -6 -2 -8 3 -5
14 9 46 -40 37 -55 -4 -6 -3 -8 3 -5 13 8 96 -100 88 -113 -4 -6 -2 -9 3 -8
13 4 213 -208 204 -217 -4 -5 -1 -5 6 -1 15 9 65 -31 57 -45 -3 -4 0 -11 6
-15 8 -4 9 -3 5 4 -10 16 9 15 22 0 5 -7 12 -83 15 -168 5 -176 19 -229 85
-315 138 -182 499 -309 986 -346 211 -16 593 -6 761 20 383 59 603 145 738
290 86 92 117 194 117 386 l0 112 82 71 c45 40 84 70 86 67 8 -8 32 16 26 26
-3 5 22 40 56 77 61 66 200 252 231 309 l16 29 164 12 c317 22 594 92 834 212
489 244 805 729 805 1234 0 181 -40 336 -121 469 -22 37 -37 72 -34 77 4 6 3
9 -2 8 -5 -2 -37 27 -72 65 -160 171 -353 269 -611 312 -82 14 -133 16 -245
11 -77 -4 -155 -9 -172 -12 l-33 -6 0 243 c-1 259 -5 285 -51 355 -47 69 -205
173 -350 229 -256 101 -693 180 -1214 221 -240 19 -1057 27 -1295 14z m1001
-170 c635 -31 1000 -83 1354 -192 206 -63 385 -175 385 -241 0 -120 -380 -271
-882 -351 -113 -18 -407 -52 -578 -67 -198 -17 -973 -23 -1240 -10 -786 38
-1368 159 -1595 330 -93 71 -92 126 3 196 225 167 829 294 1597 334 223 12
724 12 956 1z m-2473 -766 c235 -113 694 -207 1215 -249 l77 -7 0 -399 0 -399
-72 0 c-103 0 -138 -21 -261 -151 -141 -150 -136 -130 -137 -517 0 -194 4
-330 11 -356 13 -54 59 -110 110 -136 36 -19 60 -20 429 -20 426 0 433 1 494
58 64 60 66 72 66 449 0 208 -4 352 -10 368 -14 38 -248 275 -287 291 -18 8
-64 14 -103 14 l-70 0 0 395 0 396 118 -8 c178 -12 844 -9 1047 5 526 36 893
94 1225 192 107 32 283 108 334 143 l29 21 -6 -270 c-23 -947 -136 -1549 -386
-2059 -118 -239 -273 -452 -452 -619 -96 -89 -285 -220 -306 -212 -8 3 -11 1
-8 -4 3 -5 -25 -25 -62 -43 -173 -87 -379 -144 -628 -173 -173 -20 -583 -15
-740 10 -308 49 -532 131 -750 277 -112 75 -249 195 -239 210 3 5 -2 6 -10 3
-16 -6 -40 28 -28 41 4 5 2 5 -4 2 -14 -8 -77 58 -154 163 -294 400 -489 995
-560 1710 -22 229 -40 576 -40 808 l0 154 33 -22 c17 -12 74 -42 125 -66z
m4894 -303 c161 -42 270 -99 377 -198 77 -71 126 -136 115 -154 -4 -8 -3 -10
4 -5 30 18 101 -191 109 -322 14 -243 -53 -490 -190 -698 -58 -89 -165 -206
-179 -197 -6 3 -8 1 -5 -4 16 -26 -197 -184 -353 -263 -146 -73 -322 -128
-493 -155 -143 -22 -309 -33 -303 -20 3 5 27 60 55 121 182 402 295 932 331
1554 6 102 13 222 16 267 l6 81 86 7 c48 4 92 8 97 11 26 11 256 -7 327 -25z
m-3227 -1011 l90 -91 -4 -317 c-2 -193 -7 -322 -13 -329 -15 -18 -708 -19
-726 -1 -9 9 -12 97 -12 332 l0 321 87 87 88 88 200 0 200 0 90 -90z m-387
-2064 c255 -72 523 -102 857 -93 399 10 672 70 944 209 l134 68 -6 -72 c-8
-91 -51 -182 -110 -233 -130 -113 -416 -194 -785 -226 -161 -13 -569 -7 -692
11 -322 47 -574 130 -679 225 -53 48 -83 122 -89 218 l-5 77 154 -75 c102 -49
195 -86 277 -109z"/>
</g>
</svg>
