<?xml version="1.0" standalone="no"?>
<!DOCTYPE svg PUBLIC "-//W3C//DTD SVG 20010904//EN"
 "http://www.w3.org/TR/2001/REC-SVG-20010904/DTD/svg10.dtd">
<svg version="1.0" xmlns="http://www.w3.org/2000/svg"
 width="1024.000000pt" height="1024.000000pt" viewBox="0 0 1024.000000 1024.000000"
 preserveAspectRatio="xMidYMid meet">
<metadata>
Created by potrace 1.16, written by Peter Selinger 2001-2019
</metadata>
<g transform="translate(0.000000,1024.000000) scale(0.100000,-0.100000)"
fill="#000000" stroke="none">
<path d="M5068 7864 c-16 -8 -28 -19 -28 -25 0 -6 -4 -8 -9 -4 -5 3 -13 0 -17
-6 -4 -7 -3 -10 2 -6 5 3 8 -300 6 -746 -2 -552 1 -759 9 -780 16 -38 46 -57
92 -57 53 0 84 35 92 103 3 29 5 370 3 758 -3 655 -5 708 -21 733 -30 45 -81
57 -129 30z"/>
<path d="M7580 7030 c11 -7 11 -10 2 -10 -16 0 -1152 -1133 -1152 -1149 0 -7
-4 -10 -9 -7 -5 4 -7 -3 -4 -14 3 -11 -1 -28 -8 -37 -12 -15 -12 -16 4 -10 16
6 23 -9 17 -38 -1 -5 2 -7 5 -3 4 4 17 1 29 -7 11 -8 41 -15 66 -15 l45 0 414
418 c227 229 419 416 425 414 6 -2 8 0 4 4 -4 4 58 74 139 155 80 81 150 154
154 161 24 37 -4 109 -48 126 -41 15 -102 24 -83 12z"/>
<path d="M2556 7019 c2 -4 -3 -12 -11 -19 -8 -6 -19 -27 -25 -45 -12 -36 2
-77 34 -104 8 -7 13 -21 11 -32 -2 -11 0 -17 6 -14 5 4 6 12 3 18 -4 7 14 -8
39 -32 25 -24 45 -49 44 -55 -1 -6 3 -10 9 -9 11 2 67 -50 65 -61 -1 -3 1 -5
3 -3 10 5 75 -67 69 -76 -3 -6 -2 -7 4 -4 9 6 91 -69 86 -78 -2 -3 -1 -4 1 -2
10 5 75 -67 69 -76 -3 -6 -2 -7 4 -4 11 7 86 -66 78 -76 -3 -4 -2 -5 2 -2 10
8 83 -66 77 -77 -3 -5 0 -7 8 -6 7 2 12 -3 10 -10 -1 -8 1 -11 6 -8 12 7 64
-48 55 -59 -5 -4 -3 -5 3 -2 14 8 97 -76 87 -88 -5 -4 -3 -5 3 -2 10 6 82 -59
77 -69 -2 -2 0 -4 5 -4 12 -1 71 -63 67 -70 -3 -4 3 -14 12 -21 14 -12 16 -12
8 1 -4 8 13 -5 39 -30 44 -42 57 -58 37 -45 -5 3 -12 1 -15 -4 -4 -5 2 -8 11
-6 20 3 85 -53 77 -67 -3 -5 -2 -7 3 -6 4 1 21 -6 36 -16 55 -37 126 -15 152
47 11 27 11 37 0 64 -7 17 -11 34 -9 37 2 3 1 4 -3 1 -10 -8 -283 267 -276
278 3 6 2 7 -4 4 -9 -6 -122 100 -123 116 0 4 -3 7 -7 8 -16 1 -52 42 -46 52
3 6 1 7 -4 4 -13 -8 -36 17 -25 28 4 5 2 5 -4 2 -12 -7 -168 145 -159 156 3 4
2 5 -2 2 -10 -8 -193 177 -186 188 3 6 2 7 -4 4 -5 -3 -68 53 -139 124 -71 72
-141 137 -156 145 -25 13 -110 16 -102 3z"/>
<path d="M4970 5648 c-261 -16 -510 -100 -724 -243 -36 -25 -68 -45 -70 -45
-2 0 -20 -16 -41 -35 -21 -19 -43 -31 -48 -28 -6 3 -7 1 -3 -5 7 -12 -33 -44
-45 -36 -4 2 -11 -1 -15 -7 -5 -8 -3 -9 7 -4 8 5 -11 -19 -41 -54 -30 -35 -72
-84 -93 -110 -20 -25 -42 -45 -48 -43 -5 1 -9 -3 -7 -10 4 -20 -22 -59 -34
-52 -7 4 -8 3 -4 -4 4 -6 -4 -29 -18 -50 -32 -51 -99 -186 -121 -244 -13 -35
-21 -45 -34 -41 -13 4 -13 3 -2 -5 11 -8 11 -17 -3 -58 -30 -91 -56 -239 -63
-351 -3 -62 -10 -110 -14 -107 -5 2 -4 -8 1 -23 14 -45 21 -275 8 -267 -7 4
-8 3 -4 -5 4 -6 11 -9 15 -7 7 5 33 -109 35 -151 1 -13 4 -23 7 -23 9 0 31
-81 25 -88 -3 -3 -6 2 -6 11 0 9 -4 19 -10 22 -6 4 -6 -4 1 -22 6 -15 10 -30
9 -31 -1 -2 2 -7 6 -10 4 -4 4 -1 0 6 -4 6 -3 12 1 12 8 0 63 -102 63 -116 0
-3 -5 -2 -12 2 -7 5 -8 3 -4 -5 5 -7 10 -10 13 -7 3 3 22 -4 41 -15 36 -19 69
-19 1374 -19 1453 0 1395 -2 1431 53 27 42 79 193 103 297 120 531 -28 1068
-403 1461 -40 42 -69 80 -65 84 4 5 2 6 -3 2 -13 -7 -101 61 -97 75 1 5 -1 7
-6 4 -8 -4 -98 53 -112 72 -3 4 -10 8 -15 9 -24 4 -94 50 -88 58 5 4 3 5 -3 2
-16 -9 -137 47 -127 58 4 4 3 5 -3 2 -16 -9 -84 14 -77 26 3 6 1 7 -6 3 -6 -4
-35 0 -65 8 -119 35 -245 52 -436 59 -30 1 -107 -1 -170 -5z m388 -209 c101
-17 152 -31 147 -39 -3 -4 2 -11 11 -14 8 -3 12 -2 9 4 -8 13 -1 13 46 -2 22
-6 39 -15 39 -20 0 -5 4 -7 9 -4 14 9 122 -44 115 -56 -4 -7 -2 -8 4 -4 13 8
115 -41 108 -52 -3 -5 0 -14 6 -22 8 -12 9 -11 4 3 -4 12 -2 17 6 14 7 -2 12
-10 10 -16 -1 -7 2 -10 8 -6 18 11 214 -150 203 -168 -3 -5 -1 -7 5 -3 16 10
107 -101 107 -130 0 -14 8 -30 17 -35 14 -8 16 -7 12 6 -3 8 -9 13 -13 10 -4
-2 -8 3 -8 12 0 11 8 7 24 -13 13 -16 21 -34 18 -41 -2 -7 1 -15 7 -19 7 -5 8
-2 4 7 -4 8 2 3 13 -11 33 -39 127 -237 156 -325 28 -88 31 -110 13 -99 -7 4
-8 3 -4 -5 4 -6 11 -9 16 -6 27 16 50 -361 30 -502 -13 -99 -57 -271 -75 -299
-12 -18 -20 -20 -59 -14 -25 4 -51 3 -58 -1 -6 -4 -20 -3 -30 2 -10 5 -18 6
-18 1 0 -12 -221 -12 -244 0 -13 7 -16 7 -12 -1 5 -8 0 -8 -19 -1 -34 13 -55
13 -35 0 11 -7 2 -10 -32 -10 -32 0 -48 4 -48 13 0 9 -2 9 -8 -1 -10 -15 -216
-16 -244 -1 -10 6 -19 5 -23 -1 -3 -5 -17 -10 -30 -10 -13 0 -27 5 -30 10 -4
7 -13 7 -24 0 -12 -6 -22 -5 -31 3 -10 10 -11 9 -5 -3 8 -13 7 -13 -8 -1 -9 7
-17 9 -17 4 0 -6 -20 -10 -44 -9 -25 0 -42 4 -40 8 3 4 1 8 -5 8 -5 0 -12 -3
-14 -7 -4 -7 -103 -8 -297 -4 -8 0 -50 -2 -94 -5 -64 -5 -77 -4 -70 7 6 11 5
12 -7 3 -17 -14 -462 -17 -453 -3 3 5 -2 9 -10 9 -9 0 -16 -4 -16 -10 0 -6
-30 -10 -70 -10 -40 0 -70 4 -70 10 0 6 -5 10 -11 10 -5 0 -7 -4 -4 -10 8 -13
-21 -13 -45 0 -13 7 -21 7 -25 0 -3 -5 -27 -10 -53 -10 -34 0 -43 3 -32 10 9
6 10 10 3 10 -6 0 -15 -4 -18 -10 -3 -5 -38 -10 -76 -10 -44 0 -68 4 -64 10 9
14 -8 12 -24 -2 -11 -11 -14 -10 -18 1 -4 10 -7 10 -13 1 -11 -18 -39 51 -72
179 -26 106 -29 132 -30 301 -2 201 10 290 59 444 35 113 83 217 96 209 6 -4
8 0 4 9 -10 27 135 244 155 231 7 -4 8 -1 3 6 -9 16 133 163 148 154 6 -3 7
-1 4 4 -8 13 82 85 95 77 4 -3 7 0 6 6 -4 17 163 115 257 151 144 56 346 96
420 85 23 -4 35 -2 35 6 0 13 220 4 318 -13z"/>
<path d="M7268 4508 c-4 -9 -20 -19 -35 -22 -21 -5 -33 -16 -41 -40 -23 -63
-8 -108 45 -135 32 -16 1324 -16 1369 1 26 9 34 20 42 50 10 39 6 74 -9 94 -5
6 -7 14 -4 17 3 4 2 5 -1 2 -4 -2 -18 2 -33 9 -21 11 -145 14 -673 12 -568 -1
-648 1 -651 14 -2 12 -4 12 -9 -2z"/>
<path d="M1623 4485 c-17 -7 -34 -10 -38 -7 -4 4 -6 3 -4 -3 1 -5 -3 -23 -9
-38 -7 -16 -12 -35 -12 -43 0 -24 29 -73 49 -84 13 -6 251 -10 696 -10 755 0
724 -3 745 68 9 27 9 45 0 67 -6 17 -11 32 -11 35 0 3 -16 11 -36 17 -54 19
-1335 17 -1380 -2z"/>
<path d="M4080 3074 c-40 -14 -60 -29 -76 -59 -14 -26 -15 -38 -6 -63 6 -17 8
-41 5 -53 -4 -15 -3 -20 6 -15 6 4 8 12 5 18 -4 5 6 2 22 -8 27 -18 73 -19
1084 -19 860 0 1059 2 1078 13 24 14 52 67 52 100 0 10 -13 33 -29 52 l-29 35
-1048 2 c-577 1 -1056 -1 -1064 -3z"/>
</g>
</svg>
