<?xml version="1.0" standalone="no"?>
<!DOCTYPE svg PUBLIC "-//W3C//DTD SVG 20010904//EN"
 "http://www.w3.org/TR/2001/REC-SVG-20010904/DTD/svg10.dtd">
<svg version="1.0" xmlns="http://www.w3.org/2000/svg"
 width="1024.000000pt" height="1024.000000pt" viewBox="0 0 1024.000000 1024.000000"
 preserveAspectRatio="xMidYMid meet">
<metadata>
Created by potrace 1.16, written by Peter Selinger 2001-2019
</metadata>
<g transform="translate(0.000000,1024.000000) scale(0.100000,-0.100000)"
fill="#000000" stroke="none">
<path d="M2634 7032 c-109 -2 -155 -6 -163 -15 -6 -8 -11 -85 -11 -203 -2
-220 -8 -262 -60 -404 -63 -174 -81 -251 -81 -350 -1 -107 18 -171 72 -251 21
-32 36 -60 33 -63 -2 -3 -1 -4 3 -1 3 3 21 -7 40 -21 18 -14 59 -37 91 -51 48
-22 72 -27 155 -27 60 -1 96 -5 93 -11 -4 -10 19 -37 25 -30 2 2 3 -16 3 -41
-1 -35 -8 -51 -38 -84 -38 -42 -47 -90 -26 -131 9 -15 7 -21 -7 -26 -87 -34
-155 -187 -134 -304 10 -56 42 -119 61 -119 18 0 40 -33 35 -51 -4 -11 -3 -18
2 -17 12 3 91 -81 79 -85 -6 -2 0 -6 12 -9 12 -4 20 -3 17 1 -2 5 17 6 44 3
32 -3 58 1 80 12 31 17 91 89 91 111 0 6 13 21 30 33 65 49 93 153 65 249 -18
62 -44 101 -101 156 -32 30 -34 35 -21 49 9 8 14 21 13 29 -7 36 -36 87 -64
111 -28 23 -31 31 -34 102 -1 42 0 76 4 76 5 0 7 5 5 11 -1 6 4 14 12 17 9 3
11 0 6 -9 -5 -8 -4 -11 1 -6 5 5 9 12 9 15 0 4 19 26 42 49 23 23 55 65 71 93
l29 50 13 -41 c8 -24 34 -61 66 -92 29 -28 50 -56 47 -62 -4 -5 -3 -7 2 -3 10
10 47 -10 40 -22 -3 -5 0 -12 6 -16 8 -5 9 -3 4 6 -6 9 -2 10 16 5 13 -4 29
-11 34 -15 6 -4 42 -18 80 -30 95 -29 225 -29 315 0 128 42 250 134 296 223 8
15 20 27 27 27 12 0 62 -72 62 -90 0 -6 3 -9 6 -7 4 1 27 -17 51 -39 50 -46
166 -105 242 -123 82 -20 251 -15 332 10 145 44 279 139 330 234 10 19 21 35
24 35 3 0 18 -23 35 -50 16 -28 33 -50 38 -50 5 0 7 -7 3 -15 -3 -8 -2 -14 2
-12 4 1 28 -15 53 -35 54 -45 174 -102 244 -116 28 -6 109 -10 180 -8 114 2
139 6 200 30 39 15 80 34 93 42 12 8 28 12 34 8 6 -4 9 -3 5 2 -3 5 16 27 43
49 26 22 64 64 83 93 l34 53 33 -51 c52 -81 143 -156 232 -190 95 -37 210 -51
298 -37 36 5 77 10 92 11 14 1 24 3 22 5 -4 5 105 58 116 57 13 -1 121 117
146 159 22 38 29 44 36 31 5 -9 6 -21 2 -28 -4 -6 -3 -8 3 -5 16 10 34 -38 20
-54 -10 -11 -9 -11 5 -1 13 11 19 9 32 -9 8 -12 12 -27 9 -32 -3 -6 -2 -8 3
-4 5 3 30 -9 54 -27 l45 -32 -3 -82 c-3 -71 -6 -80 -20 -75 -9 3 -14 3 -10 -2
4 -4 -2 -15 -13 -24 -20 -16 -68 -127 -50 -117 5 4 11 -4 13 -16 2 -17 -11
-37 -47 -73 -108 -108 -122 -293 -27 -376 33 -28 85 -108 61 -93 -5 3 -9 0 -9
-5 0 -6 7 -11 16 -11 8 0 12 -5 9 -10 -4 -6 -3 -9 2 -8 12 3 77 -33 86 -48 4
-8 13 -14 18 -14 6 0 8 4 5 9 -3 5 12 11 35 14 51 7 106 49 128 97 9 21 31 50
48 64 48 41 67 101 60 191 -9 101 -48 173 -121 220 -19 13 -24 21 -17 28 6 6
11 32 11 59 0 41 -5 52 -36 84 -33 32 -37 42 -40 99 l-4 62 53 -9 c79 -15 162
-3 242 36 87 41 135 84 179 158 18 32 37 54 41 50 5 -4 5 -2 1 5 -3 7 -2 43 4
80 14 84 -1 208 -37 303 -13 36 -22 73 -19 83 2 9 1 15 -3 12 -5 -2 -23 39
-42 93 -34 97 -34 98 -39 319 -4 184 -8 225 -21 238 -14 14 -260 16 -2495 18
-1363 1 -2547 1 -2630 -1z m5036 -188 c0 -65 -4 -93 -12 -96 -10 -3 -2303 -3
-4875 1 l-213 0 -1 48 c0 27 -3 68 -5 93 l-4 45 2555 0 2555 0 0 -91z m7 -252
c4 -31 7 -69 6 -84 0 -16 3 -26 7 -23 4 3 10 -6 12 -20 3 -13 1 -26 -5 -28 -6
-2 -6 -10 2 -23 12 -19 12 -19 6 1 -4 14 -3 17 5 9 17 -17 82 -206 76 -221 -3
-8 -2 -11 3 -8 15 9 34 -105 28 -175 -4 -65 -33 -144 -49 -134 -4 3 -5 -1 -2
-9 7 -19 -76 -93 -134 -119 -33 -14 -69 -21 -122 -21 -63 -1 -84 3 -130 27
-63 32 -92 55 -84 68 3 4 0 7 -7 6 -23 -5 -75 89 -94 170 -10 42 -25 85 -33
95 -32 36 -88 14 -98 -39 -4 -20 -9 -31 -13 -26 -3 6 -6 -9 -7 -32 -1 -52 -41
-129 -98 -187 -65 -66 -201 -119 -308 -119 -48 0 -147 24 -203 50 -49 22 -108
74 -97 85 4 4 2 5 -5 1 -15 -8 -70 70 -93 134 -25 69 -34 124 -19 114 7 -4 10
-3 6 3 -11 18 -66 35 -92 29 -31 -8 -45 -34 -50 -92 -4 -49 -47 -141 -64 -137
-6 2 -8 -3 -5 -11 8 -20 -81 -94 -154 -128 -157 -73 -389 -54 -527 44 -83 59
-168 198 -151 245 3 8 1 11 -4 8 -6 -3 -10 5 -10 19 0 32 -25 56 -59 56 -42 0
-58 -20 -71 -85 -13 -65 -50 -148 -57 -127 -7 20 -23 14 -23 -9 0 -13 4 -18
12 -13 28 18 -23 -39 -68 -74 -53 -42 -151 -85 -235 -103 -107 -23 -263 5
-362 65 -62 38 -78 52 -75 67 2 7 -4 13 -12 14 -23 0 -68 84 -88 162 -21 83
-35 103 -72 103 -38 0 -58 -27 -71 -96 -12 -66 -45 -138 -59 -129 -6 3 -7 -1
-4 -10 12 -31 -130 -146 -158 -129 -7 4 -8 3 -4 -4 8 -13 -67 -37 -145 -47
-64 -8 -180 14 -245 46 -55 26 -137 106 -130 126 3 8 2 11 -4 8 -13 -8 -39 48
-64 139 -19 70 -25 81 -50 89 -51 17 -73 -5 -87 -87 -13 -83 -36 -131 -86
-187 -64 -70 -111 -91 -211 -93 -78 -1 -93 2 -147 29 -33 17 -59 35 -58 42 2
7 -3 10 -11 7 -14 -5 -51 39 -81 96 -15 27 -19 56 -18 131 1 107 14 162 73
314 41 106 76 246 67 270 -5 12 334 14 2548 14 l2554 0 8 -57z m-4711 -1350
c54 -29 94 -102 94 -172 0 -41 -5 -56 -25 -75 -23 -24 -30 -25 -148 -25 -142
0 -155 6 -167 69 -9 52 5 115 37 158 26 34 87 68 108 59 8 -3 17 -1 20 4 6 9
49 0 81 -18z m4478 -14 c54 -44 78 -97 74 -164 -5 -89 -14 -94 -167 -94 -114
0 -129 2 -149 20 -17 17 -22 32 -22 75 0 52 24 135 39 135 4 0 23 14 41 30 21
19 45 30 62 30 16 0 27 -3 25 -7 -3 -5 7 -9 21 -9 15 -1 21 1 15 3 -7 3 -13 8
-13 13 0 15 37 -1 74 -32z"/>
</g>
</svg>
