<?xml version="1.0" standalone="no"?>
<!DOCTYPE svg PUBLIC "-//W3C//DTD SVG 20010904//EN"
 "http://www.w3.org/TR/2001/REC-SVG-20010904/DTD/svg10.dtd">
<svg version="1.0" xmlns="http://www.w3.org/2000/svg"
 width="1024.000000pt" height="1024.000000pt" viewBox="0 0 1024.000000 1024.000000"
 preserveAspectRatio="xMidYMid meet">
<metadata>
Created by potrace 1.16, written by Peter Selinger 2001-2019
</metadata>
<g transform="translate(0.000000,1024.000000) scale(0.100000,-0.100000)"
fill="#000000" stroke="none">
<path d="M5085 8746 c-16 -7 -43 -25 -59 -39 -28 -25 -54 -28 -40 -5 5 7 2 8
-5 3 -9 -5 -10 -10 -2 -18 13 -13 -33 -67 -53 -63 -6 2 -8 1 -4 -1 4 -2 -28
-46 -70 -96 -81 -97 -135 -174 -171 -244 -12 -24 -25 -43 -30 -43 -4 0 -8 -6
-8 -12 0 -7 -15 -54 -32 -104 -17 -51 -31 -101 -31 -111 0 -11 -3 -22 -6 -25
-7 -8 -11 -228 -4 -228 9 0 32 -109 26 -119 -8 -12 4 -42 14 -36 4 2 18 -19
31 -47 13 -29 41 -79 62 -111 20 -32 35 -63 31 -68 -3 -5 -1 -8 4 -7 10 3 114
-107 107 -114 -3 -3 1 -5 8 -5 6 0 47 -26 90 -58 53 -41 73 -61 65 -67 -10 -5
-8 -8 5 -8 15 0 17 -10 17 -77 0 -57 -4 -81 -17 -95 -9 -10 -11 -18 -5 -18 6
0 13 6 15 13 4 7 6 6 6 -4 1 -9 -6 -22 -14 -29 -8 -7 -15 -17 -15 -23 0 -6 6
-3 13 7 11 15 13 7 14 -56 l2 -73 -25 69 c-13 38 -39 97 -59 131 -19 34 -31
66 -27 70 4 5 2 5 -5 2 -12 -8 -60 61 -55 78 2 6 0 7 -4 3 -4 -4 -34 17 -66
48 -33 30 -82 70 -109 88 -27 18 -46 36 -41 41 4 5 2 5 -5 2 -14 -9 -135 48
-125 58 4 5 2 5 -4 2 -6 -4 -42 2 -79 13 -103 29 -254 43 -380 34 -60 -5 -125
-8 -142 -9 -18 0 -33 -3 -33 -7 0 -3 -15 -10 -32 -13 -42 -9 -87 -41 -97 -69
-13 -32 6 -215 34 -339 13 -60 22 -114 18 -120 -4 -6 -1 -7 7 -2 10 6 11 1 6
-21 -4 -17 -3 -24 2 -16 5 8 19 -14 40 -66 18 -43 46 -97 62 -122 16 -24 26
-48 23 -54 -3 -6 -3 -8 2 -4 10 9 41 -32 37 -47 -2 -5 0 -7 4 -2 11 10 95 -74
87 -87 -3 -6 -3 -8 2 -4 11 11 67 -31 59 -44 -4 -7 -2 -8 4 -4 14 8 64 -23 56
-35 -3 -5 2 -6 10 -3 8 3 23 -3 33 -13 11 -11 25 -17 33 -15 8 3 10 0 5 -8 -5
-8 -4 -11 2 -7 6 4 49 -7 97 -24 142 -49 355 -70 529 -50 54 6 67 4 63 -6 -3
-7 -1 -13 3 -13 5 0 11 7 15 15 3 8 15 15 26 15 19 0 20 -4 20 -47 0 -4 -6 -8
-13 -9 -28 -2 -31 -6 -7 -13 l25 -7 1 -197 c0 -157 -2 -197 -13 -197 -7 0 -13
-4 -13 -10 0 -5 7 -7 15 -4 12 5 14 1 11 -17 -3 -13 -5 -27 -5 -30 -1 -3 -8
-6 -16 -6 -8 0 -13 2 -11 5 3 2 1 9 -4 16 -39 47 -117 176 -112 182 4 4 2 4
-5 0 -14 -8 -36 27 -25 39 4 5 2 5 -4 2 -6 -4 -22 5 -35 19 -40 43 -162 131
-222 160 -31 15 -53 32 -50 37 3 6 1 7 -5 4 -5 -4 -31 2 -55 12 -25 11 -83 28
-129 37 -46 10 -85 21 -88 24 -3 3 -93 7 -200 8 -214 3 -347 -11 -441 -47 -88
-33 -94 -44 -94 -171 0 -59 3 -106 6 -104 3 2 9 -28 13 -66 3 -38 20 -121 36
-185 17 -64 27 -122 24 -127 -5 -7 -2 -8 6 -3 9 5 10 2 5 -14 -3 -11 -1 -29 5
-38 9 -15 10 -14 5 7 -5 22 -4 23 5 7 9 -14 8 -22 -4 -36 -14 -15 -14 -17 5
-18 25 -2 19 5 57 -65 17 -32 26 -58 20 -58 -6 0 -8 -3 -4 -7 4 -5 12 -8 17
-8 5 0 8 -3 7 -7 -2 -4 7 -15 20 -23 12 -9 20 -21 17 -26 -4 -5 -1 -9 5 -9 6
0 8 -5 4 -12 -4 -6 -3 -8 3 -5 13 8 79 -73 76 -93 -2 -10 0 -11 3 -2 4 8 20 0
52 -27 59 -48 154 -110 210 -135 23 -10 42 -25 42 -33 0 -7 5 -13 11 -13 5 0
7 5 3 12 -5 8 -2 9 12 3 72 -29 183 -59 262 -68 50 -6 92 -15 92 -19 0 -4 9
-5 20 -3 11 2 18 0 15 -6 -4 -5 1 -9 10 -9 9 0 13 5 10 10 -4 6 35 10 110 10
64 0 159 5 211 11 52 6 98 9 101 5 3 -3 6 -154 7 -336 l1 -331 -18 43 c-11 24
-20 48 -21 54 -1 6 -10 23 -19 38 -10 15 -15 31 -12 36 3 6 1 18 -5 27 -9 15
-10 14 -4 -7 6 -24 6 -24 -9 -5 -8 11 -13 23 -11 27 3 5 1 8 -4 8 -15 0 -87
103 -83 119 1 7 -2 10 -7 7 -5 -3 -20 6 -33 20 -48 51 -157 134 -233 177 -43
25 -74 47 -69 49 4 3 2 3 -5 1 -7 -1 -40 8 -73 22 -146 59 -334 94 -513 95
-171 2 -376 -26 -485 -65 -53 -19 -68 -30 -87 -68 -13 -25 -14 -49 -4 -180 6
-84 20 -199 31 -256 11 -57 18 -110 15 -117 -3 -8 -1 -14 5 -14 6 0 9 -7 5
-15 -3 -8 -1 -15 4 -15 6 0 10 -5 10 -11 0 -5 -4 -7 -10 -4 -6 3 -7 -1 -4 -9
3 -9 10 -14 14 -11 5 3 11 -9 15 -26 4 -17 18 -56 31 -86 13 -30 21 -59 18
-65 -4 -6 -2 -8 3 -5 13 8 36 -50 26 -66 -3 -5 -2 -7 4 -4 6 4 25 -16 42 -44
24 -39 29 -54 20 -65 -8 -10 -7 -12 9 -9 20 3 65 -46 65 -71 0 -7 3 -11 7 -9
11 7 51 -40 43 -50 -5 -4 -3 -5 4 -1 6 3 18 -2 25 -11 19 -26 125 -111 175
-140 24 -14 40 -30 36 -35 -3 -7 -1 -8 5 -4 6 4 43 -9 81 -29 180 -90 400
-136 658 -136 128 0 299 14 346 27 9 3 17 1 17 -5 0 -6 -15 -11 -32 -12 -27 0
-29 -2 -13 -8 11 -5 25 -7 30 -4 11 4 10 -67 -5 -287 -13 -195 -32 -331 -42
-300 -5 16 -6 9 -3 -20 13 -121 -115 -580 -221 -791 -61 -123 -86 -162 -94
-148 -5 8 -8 3 -9 -12 0 -13 -3 -41 -7 -62 -4 -23 -2 -43 6 -52 6 -8 9 -19 5
-25 -4 -6 -3 -10 2 -8 4 1 26 -4 47 -10 73 -21 100 6 198 201 30 59 58 104 63
100 4 -5 5 -3 2 3 -3 6 11 57 32 112 52 135 106 316 130 432 52 247 91 589 91
795 0 106 0 107 23 102 86 -21 562 -43 534 -25 -7 4 4 8 23 8 48 0 234 43 319
74 93 33 204 90 270 137 29 21 58 36 63 33 4 -3 7 -2 6 3 -1 4 36 46 83 93 47
47 103 111 124 142 21 32 41 55 46 53 4 -3 11 0 15 6 5 8 3 9 -6 4 -15 -9 -16
-12 32 85 71 144 124 340 148 545 10 91 20 318 13 311 -2 -2 -17 9 -32 25 -16
16 -50 34 -75 41 -31 8 -42 15 -33 21 8 6 7 7 -5 3 -10 -3 -77 4 -150 14 -230
34 -451 25 -645 -26 -54 -15 -106 -27 -115 -27 -9 -1 -15 -4 -13 -8 3 -3 -12
-11 -33 -17 -20 -6 -71 -31 -113 -55 -42 -24 -82 -41 -89 -39 -7 3 -10 0 -6
-6 7 -11 -80 -79 -95 -75 -5 2 -8 -3 -6 -10 1 -6 -4 -11 -11 -9 -8 1 -11 -1
-8 -6 7 -12 -48 -64 -59 -55 -4 5 -5 3 -2 -3 8 -13 -81 -130 -95 -126 -5 1 -7
-1 -4 -6 3 -4 -19 -56 -48 -114 l-53 -106 -1 46 c-1 26 4 50 11 54 9 6 9 8 0
8 -10 0 -13 63 -13 281 l0 281 93 -9 c116 -10 393 -10 470 0 39 5 56 4 52 -3
-3 -5 -2 -10 3 -10 6 0 12 7 16 15 3 8 14 15 24 15 10 0 58 13 106 30 49 16
94 27 100 23 6 -3 8 -3 4 2 -4 4 18 21 50 38 309 162 491 436 551 830 22 144
27 294 10 330 -15 34 -75 62 -162 78 -37 7 -62 16 -56 19 6 4 -106 6 -248 5
-245 -1 -263 -3 -357 -28 -61 -16 -137 -47 -201 -81 -57 -30 -107 -51 -111
-48 -4 4 -4 1 0 -5 7 -12 -5 -18 -27 -14 -5 1 -6 -3 -3 -8 7 -11 -79 -83 -89
-73 -3 4 -5 2 -3 -4 5 -15 -103 -144 -115 -137 -6 3 -7 2 -4 -4 3 -5 -18 -58
-48 -117 l-55 -106 0 294 c0 226 3 296 13 299 9 4 8 8 -3 17 -13 9 -12 11 5 6
51 -12 300 -16 402 -7 116 12 278 53 349 89 23 12 44 19 48 17 3 -3 4 -2 1 1
-2 4 22 23 53 44 248 162 397 459 419 836 l6 101 -29 27 c-40 37 -108 55 -254
66 -335 27 -583 -49 -781 -237 -31 -29 -59 -50 -63 -45 -4 4 -6 1 -4 -6 4 -17
-64 -111 -82 -113 -10 0 -11 -2 -3 -6 9 -3 5 -19 -14 -56 -14 -29 -34 -74 -44
-102 l-18 -50 0 38 c-1 20 4 37 9 37 6 0 10 5 10 11 0 5 -4 7 -10 4 -6 -4 -10
40 -10 124 l0 131 73 54 c77 57 189 171 239 243 41 61 105 198 124 268 25 96
30 239 9 331 -17 78 -65 208 -93 251 -7 12 -10 28 -6 34 4 7 3 9 -3 6 -12 -7
-56 67 -45 77 4 4 2 6 -5 4 -6 -1 -30 22 -53 52 -101 136 -262 293 -310 304
-14 3 -38 0 -55 -8z m60 -236 c10 -11 14 -20 9 -20 -5 0 2 -6 16 -13 33 -17
151 -159 145 -175 -3 -7 -1 -11 4 -8 17 11 87 -107 75 -126 -4 -6 -3 -8 3 -5
26 16 83 -173 83 -275 0 -88 -19 -182 -31 -153 -7 15 -8 12 -4 -11 5 -23 -4
-50 -35 -111 -43 -83 -130 -189 -145 -176 -4 5 -5 3 -2 -3 7 -12 -35 -54 -106
-108 l-37 -29 -43 29 c-64 44 -190 170 -182 183 3 6 1 10 -6 9 -16 -4 -85 123
-111 207 -15 47 -22 96 -22 150 0 91 20 188 37 178 6 -3 7 -1 3 6 -10 16 33
123 47 114 6 -3 7 -1 3 5 -7 11 61 126 111 187 37 45 155 165 163 165 4 0 15
-9 25 -20z m-800 -1310 c109 -27 140 -40 123 -52 -9 -7 -8 -8 5 -4 22 7 100
-31 92 -44 -4 -6 3 -10 14 -10 27 0 154 -119 147 -137 -3 -8 -2 -12 3 -9 5 3
17 -6 26 -20 14 -22 15 -28 4 -36 -11 -7 -9 -8 4 -4 15 5 24 -6 47 -57 37 -82
82 -227 76 -244 -3 -7 -2 -13 3 -13 13 0 30 -110 17 -111 -6 0 -5 -3 2 -6 6
-2 12 -15 12 -27 0 -27 -26 -31 -215 -30 -130 1 -203 13 -303 51 -32 12 -40
19 -30 26 9 6 8 7 -5 3 -23 -8 -80 21 -71 36 4 7 3 8 -5 4 -6 -4 -27 2 -46 14
-50 31 -177 170 -171 187 3 8 2 12 -3 9 -11 -7 -53 73 -84 159 -23 67 -50 193
-60 282 -5 41 -4 43 26 48 103 17 291 9 392 -15z m1923 14 l53 -6 -7 -36 c-39
-233 -80 -354 -155 -467 -54 -81 -134 -159 -151 -149 -6 4 -8 3 -5 -3 15 -24
-130 -100 -259 -134 -65 -18 -109 -22 -251 -23 -94 0 -174 2 -178 5 -20 21 91
439 113 425 4 -2 8 6 8 19 2 26 60 115 75 115 6 0 8 4 5 8 -7 12 69 84 79 75
4 -5 5 -3 2 3 -14 24 112 101 227 139 116 39 256 48 444 29z m-2126 -1154 c58
-6 132 -19 165 -30 32 -11 48 -18 35 -16 -12 2 -20 0 -17 -4 3 -5 23 -8 45 -7
29 1 61 -10 117 -39 67 -35 78 -44 76 -65 -1 -14 0 -17 3 -6 3 9 9 17 14 17
12 0 22 -17 13 -23 -5 -2 -2 -2 6 0 16 4 116 -95 158 -157 40 -60 86 -151 79
-157 -3 -3 -8 2 -12 11 -6 16 -24 13 -24 -5 0 -6 4 -8 9 -5 5 3 14 -8 20 -25
6 -17 15 -28 20 -25 5 4 16 -15 25 -41 25 -74 75 -301 82 -369 l7 -62 -84 -11
c-127 -17 -387 -8 -479 17 -140 37 -297 112 -284 134 5 7 2 9 -8 6 -8 -4 -29
5 -47 19 -27 21 -30 27 -19 42 12 14 11 15 -4 2 -16 -12 -22 -9 -19 12 0 4 -5
6 -11 5 -7 -2 -12 3 -10 10 1 8 -1 11 -6 8 -5 -3 -22 9 -39 27 -127 138 -200
331 -238 635 -6 48 -5 52 12 46 17 -5 17 -5 0 9 -18 15 -18 15 0 20 25 8 159
27 213 30 25 2 56 4 70 5 14 1 73 -3 132 -8z m2266 -11 c45 -6 85 -15 88 -20
3 -5 0 -9 -5 -9 -6 0 -11 -4 -11 -10 0 -17 28 -11 34 8 10 32 -5 -133 -20
-222 -20 -114 -47 -203 -90 -291 -32 -66 -82 -141 -68 -102 3 9 1 17 -4 17 -6
0 -9 -10 -7 -22 5 -23 -12 -51 -25 -43 -5 3 -12 0 -16 -6 -4 -8 -3 -9 4 -5 7
4 12 3 12 -2 0 -16 -110 -113 -120 -107 -6 4 -9 1 -8 -6 5 -22 -155 -114 -254
-147 -118 -39 -218 -52 -383 -51 -107 0 -252 13 -262 22 -3 4 27 184 43 256
31 139 82 283 97 274 6 -3 7 -1 3 5 -7 12 10 49 52 116 19 31 26 36 34 25 8
-11 8 -10 4 5 -7 22 70 120 86 109 7 -3 8 -1 4 5 -8 13 28 35 39 24 5 -4 5 -2
1 5 -8 15 50 57 65 47 7 -4 9 -3 6 3 -8 13 89 64 173 91 121 39 291 57 274 30
-4 -6 3 -5 15 4 24 17 91 16 239 -3z m-2378 -1330 c172 -16 285 -47 410 -116
95 -51 130 -80 124 -101 -5 -14 -4 -15 5 -2 25 33 264 -262 247 -305 -3 -8 0
-14 7 -12 7 1 12 -8 11 -20 0 -12 3 -20 7 -17 12 7 67 -147 99 -278 37 -152
47 -218 31 -218 -12 0 -8 -47 5 -59 4 -3 4 6 2 22 -3 15 -2 27 3 27 4 0 11
-30 14 -66 6 -49 4 -68 -5 -74 -12 -7 -108 -20 -257 -34 -67 -6 -261 9 -360
29 -93 19 -174 46 -167 56 2 4 -5 5 -15 2 -40 -10 -320 154 -305 179 4 7 3 8
-5 4 -6 -4 -14 0 -17 8 -3 9 -10 14 -14 11 -12 -8 -115 119 -163 200 -79 135
-135 315 -161 525 -26 214 -27 199 13 210 37 9 174 28 246 33 103 7 138 6 245
-4z m2594 -15 c44 -8 84 -18 90 -24 14 -14 -10 -255 -38 -380 -34 -146 -78
-264 -136 -356 -59 -96 -147 -197 -163 -187 -7 3 -9 3 -5 -2 9 -9 -9 -35 -24
-35 -5 0 -8 7 -6 16 2 10 -3 19 -10 21 -9 4 -10 -1 -2 -21 9 -24 6 -29 -38
-61 -179 -132 -434 -206 -706 -207 -131 0 -312 17 -336 32 -11 7 -10 30 3 127
36 253 118 508 211 656 64 102 155 209 173 203 8 -3 11 -1 8 4 -8 13 116 102
133 95 7 -2 10 -1 7 5 -7 12 32 33 47 24 6 -4 8 -3 4 4 -14 23 206 87 346 102
104 10 338 2 442 -16z"/>
</g>
</svg>
