<?xml version="1.0" standalone="no"?>
<!DOCTYPE svg PUBLIC "-//W3C//DTD SVG 20010904//EN"
 "http://www.w3.org/TR/2001/REC-SVG-20010904/DTD/svg10.dtd">
<svg version="1.0" xmlns="http://www.w3.org/2000/svg"
 width="1024.000000pt" height="1024.000000pt" viewBox="0 0 1024.000000 1024.000000"
 preserveAspectRatio="xMidYMid meet">
<metadata>
Created by potrace 1.16, written by Peter Selinger 2001-2019
</metadata>
<g transform="translate(0.000000,1024.000000) scale(0.100000,-0.100000)"
fill="#000000" stroke="none">
<path d="M2249 7702 c-23 -2 -45 -12 -60 -28 l-24 -26 -2 -2481 c-3 -2346 -2
-2484 15 -2517 9 -19 27 -40 39 -46 13 -6 21 -13 19 -15 -2 -2 576 -3 1285 -1
710 1 1288 -1 1285 -6 -2 -4 7 -8 22 -9 24 -2 24 -1 7 7 -12 5 95 9 264 9 209
0 289 -3 300 -12 12 -9 13 -9 7 0 -6 10 263 13 1298 15 l1304 3 27 25 c15 14
28 23 30 20 2 -3 7 -1 12 4 5 6 2 6 -6 1 -11 -6 -13 -4 -8 9 7 18 7 96 7 2998
l0 1988 -27 30 -28 30 -2865 3 c-1576 1 -2881 1 -2901 -1z m5696 -190 l0 -83
-2812 0 c-1547 -1 -2817 3 -2824 7 -8 5 -9 3 -4 -6 5 -8 3 -11 -6 -8 -10 3
-14 27 -16 86 -1 75 0 81 20 85 12 2 1287 4 2832 3 l2810 -1 0 -83z m-5380
-212 c-4 -6 5 -10 20 -10 15 0 24 4 20 10 -4 6 22 10 70 10 48 0 74 -4 70 -10
-3 -5 1 -10 10 -10 9 0 13 5 10 10 -4 7 60 10 187 9 112 -1 183 -4 168 -9 -21
-7 -17 -8 20 -9 32 0 41 2 30 9 -10 7 21 10 95 9 71 0 103 -3 90 -9 -16 -7
-11 -9 20 -9 31 0 36 2 20 9 -12 5 90 9 251 9 210 1 271 -2 272 -11 1 -7 3
-513 4 -1123 2 -611 7 -1116 12 -1123 4 -7 22 -19 39 -28 18 -9 29 -13 25 -9
-4 4 2 15 13 24 20 16 20 29 21 1144 l1 1127 156 0 c104 0 151 -4 141 -10 -12
-7 -8 -10 15 -10 23 0 27 3 15 10 -10 7 34 10 133 10 91 0 147 -4 147 -10 0
-5 12 -10 28 -9 24 0 25 1 7 9 -14 6 5 9 58 9 55 1 77 -3 78 -11 0 -10 2 -10
6 0 3 9 39 12 128 12 l124 0 -1 -210 c0 -195 -2 -210 -20 -227 -32 -28 -48
-68 -48 -117 0 -44 -13 -69 -23 -44 -4 9 -6 8 -7 -2 -1 -16 -89 -77 -103 -72
-5 1 -6 -1 -4 -5 8 -12 -49 -84 -58 -75 -5 4 -6 2 -2 -3 3 -6 -3 -35 -14 -65
-19 -55 -25 -195 -8 -184 4 2 13 -2 20 -9 10 -10 24 -11 54 -6 58 12 125 11
125 -2 0 -5 -4 -8 -8 -5 -5 3 -9 -9 -9 -25 0 -29 1 -30 12 -9 l12 22 17 -27
c33 -50 119 -70 175 -40 16 8 31 12 35 10 3 -3 4 -2 2 1 -2 3 7 22 21 42 23
34 28 37 76 38 29 1 55 -3 60 -10 5 -8 10 -7 16 3 5 8 18 12 29 9 42 -11 55
82 26 182 -8 30 -16 63 -17 72 -1 9 -3 15 -5 13 -9 -9 -43 45 -36 57 4 7 4 10
-1 6 -4 -4 -30 10 -59 31 -28 21 -59 41 -69 44 -13 5 -16 13 -11 30 9 38 -15
108 -47 138 l-29 27 0 206 0 206 25 0 c14 0 25 -4 25 -10 0 -5 7 -10 16 -10 8
0 12 5 9 10 -4 7 138 10 420 10 282 0 424 -3 420 -10 -3 -5 -1 -10 4 -10 6 0
11 5 11 11 0 8 6 7 17 -2 11 -10 14 -10 9 -1 -5 9 3 12 31 12 l38 0 -2 -389
c0 -215 -4 -394 -7 -400 -4 -5 -2 -12 2 -15 13 -8 7 -1891 -6 -1891 -6 0 -14
-4 -19 -9 -4 -5 -3 -6 4 -2 14 8 21 -15 25 -86 3 -42 1 -48 -17 -49 -20 -1
-20 -1 0 -7 l20 -5 -20 -8 c-17 -6 -17 -8 -2 -8 15 -1 23 -25 18 -55 -1 -5 -1
-75 -1 -155 6 -605 7 -591 -15 -585 -19 6 -19 5 -2 -8 16 -12 19 -30 19 -143
0 -72 0 -150 -1 -175 l-1 -45 -257 0 c-197 0 -257 -3 -261 -13 -2 -6 -7 -10
-12 -7 -10 6 1 -33 17 -60 11 -19 22 -20 401 -20 215 0 394 -3 398 -7 4 -4 11
-5 17 -1 14 9 1027 10 1027 1 0 -4 6 -5 13 -3 6 3 101 6 210 8 159 2 197 0
193 -10 -3 -7 -1 -13 4 -13 16 0 11 -43 -7 -69 -9 -14 -11 -21 -5 -17 9 5 12
-6 12 -41 -1 -26 0 -105 2 -176 2 -80 -1 -127 -7 -127 -5 -1 -1198 -1 -2650 0
-1452 0 -2722 0 -2823 0 l-183 0 3 228 3 227 645 2 c355 0 651 2 658 2 7 1 16
9 19 19 4 9 11 20 17 24 7 5 7 8 -1 8 -7 0 -13 6 -13 14 0 22 -19 30 -73 32
-26 1 -51 5 -55 9 -4 4 -8 154 -9 333 -1 180 -5 336 -9 347 -3 11 -6 22 -6 25
0 3 -264 5 -586 5 l-587 0 -3 73 -3 72 615 0 c338 0 621 3 630 6 20 8 21 67 2
84 -9 6 -37 10 -68 9 l-52 -3 -1 348 c0 402 7 376 -101 375 -73 -1 -84 4 -84
36 0 54 -9 56 -293 53 l-260 -3 -17 -30 -17 -30 -134 -3 c-74 -1 -153 0 -176
3 l-43 6 0 109 0 110 613 0 c336 0 696 0 800 0 l187 0 12 25 c15 33 -3 75 -32
75 -23 0 -22 -11 -20 429 0 246 -3 278 -33 287 -12 4 -209 8 -437 10 -228 1
-417 3 -420 4 -3 2 -9 1 -15 0 -30 -6 -185 -4 -185 3 0 4 -8 4 -17 -1 -29 -14
-414 -6 -423 9 -6 8 -9 6 -12 -7 -6 -27 -20 83 -16 126 l3 35 799 2 c588 2
802 5 812 14 8 6 14 19 13 28 0 12 -2 12 -10 -4 -8 -16 -9 -14 -6 11 3 26 -2
35 -25 49 -15 9 -28 12 -28 6 0 -5 -13 -9 -29 -9 l-28 1 -13 116 c-43 404 -59
522 -70 536 -9 11 -35 15 -106 15 -52 0 -94 3 -95 8 -1 12 -7 45 -13 68 -7 25
-50 32 -183 30 l-83 -2 0 31 c0 16 -4 36 -8 42 -6 9 -75 13 -271 13 -242 1
-265 0 -280 -17 -9 -10 -15 -26 -13 -37 2 -10 -1 -23 -7 -29 -8 -8 -11 -8 -11
1 0 8 -7 9 -23 3 -12 -5 -89 -9 -169 -9 -173 1 -161 -11 -157 138 l3 100 143
0 c94 0 142 -4 138 -10z m4080 0 c-24 -6 -17 -8 30 -8 47 0 54 2 30 8 -19 5
11 8 86 9 79 1 119 -3 128 -11 11 -10 13 -10 7 0 -6 9 9 12 61 10 l68 -1 -50
-7 -50 -7 53 -1 c29 -1 52 2 52 8 0 6 46 10 119 10 69 0 122 -4 126 -10 3 -5
12 -10 18 -10 7 0 6 4 -3 10 -10 6 97 9 310 9 179 -1 317 -3 307 -6 -9 -2 -15
-9 -11 -14 3 -5 10 -7 15 -4 5 4 9 -9 9 -27 0 -25 -3 -29 -10 -18 -8 13 -10
12 -10 -2 0 -10 5 -18 10 -18 6 0 10 -31 10 -74 l0 -74 -177 0 c-189 0 -193 1
-193 50 0 15 -4 29 -9 32 -4 3 -127 6 -272 6 -292 1 -287 2 -290 -64 -1 -24
-3 -26 -6 -8 -5 24 -5 24 -27 16 -8 -3 -12 -12 -9 -20 4 -11 -5 -14 -42 -14
-32 0 -44 3 -39 12 4 6 3 8 -3 5 -5 -3 -27 -7 -49 -8 -49 -2 -84 -23 -84 -50
0 -11 -4 -18 -9 -15 -4 3 -7 -6 -5 -19 2 -25 2 -25 -84 -25 -48 0 -93 -4 -101
-9 -17 -11 -24 -52 -61 -358 -40 -330 -33 -303 -75 -303 -21 0 -35 5 -35 12 0
8 -4 8 -14 -2 -15 -16 -39 -91 -31 -99 3 -2 5 1 5 8 0 7 9 3 21 -8 16 -14 27
-18 39 -11 18 10 1487 14 1526 4 23 -6 24 -10 24 -89 l0 -82 -756 2 -755 1
-20 -24 c-18 -23 -19 -44 -19 -358 l0 -333 -22 -3 c-29 -4 -44 -49 -26 -83
l13 -26 792 0 792 1 -2 -112 -2 -113 -173 0 c-176 0 -192 3 -192 40 0 6 5 3
10 -5 7 -10 10 -11 10 -2 0 7 -12 17 -26 22 -29 12 -523 13 -541 2 -6 -4 -14
-24 -18 -44 -6 -32 -12 -38 -39 -43 -17 -3 -60 -4 -94 -1 -35 2 -72 2 -82 -1
-23 -6 -40 -44 -40 -88 l0 -35 -94 0 c-70 0 -97 -4 -106 -15 -6 -8 -25 -114
-41 -237 -16 -123 -32 -248 -36 -278 l-8 -55 -47 -3 c-41 -3 -49 -7 -54 -27
-3 -12 -4 -34 -2 -46 l3 -24 782 -3 783 -2 5 -23 c4 -13 5 -46 3 -73 l-3 -49
-660 -2 c-363 -1 -702 -2 -752 -2 -143 -1 -133 28 -133 -381 l0 -341 -40 3
c-22 1 -40 6 -40 11 0 4 -4 5 -10 2 -6 -4 -10 30 -10 95 0 65 4 99 10 95 6 -3
10 -1 10 4 0 6 -4 11 -10 11 -7 0 -10 643 -10 1910 l0 1910 188 -1 c108 -1
174 -5 157 -9z m-3755 -250 c-13 -9 -13 -11 0 -20 8 -5 11 -10 5 -10 -5 0 -11
-23 -13 -50 -1 -29 2 -50 8 -50 5 0 10 -10 10 -22 0 -19 -2 -20 -10 -8 -7 11
-10 0 -10 -37 0 -28 5 -55 11 -59 8 -4 7 -9 -2 -15 -12 -7 -12 -12 -1 -29 7
-11 10 -26 6 -31 -11 -18 -13 -78 -3 -84 5 -4 9 -12 9 -18 0 -8 -3 -7 -9 2 -6
9 -9 2 -9 -24 0 -26 3 -33 9 -24 6 9 9 10 9 2 0 -6 -4 -15 -10 -18 -5 -3 -9
-41 -9 -83 2 -67 3 -72 10 -37 l7 40 -4 -45 c-14 -134 -12 -130 -55 -130 -21
0 -39 5 -39 10 0 6 -8 10 -17 10 -15 0 -16 -2 -3 -10 13 -8 13 -10 -1 -10 -9
0 -20 7 -23 16 -3 9 -6 180 -6 380 l0 364 78 0 c54 0 73 -3 62 -10z m230 -370
l0 -380 -62 1 c-47 1 -57 3 -38 9 24 8 24 8 3 9 -23 1 -23 3 -23 144 -1 443 1
572 12 578 7 4 4 9 -8 12 -10 2 11 5 49 6 l67 1 0 -380z m4120 0 l-1 -380 -59
0 -60 0 -1 333 c-2 374 -2 362 2 400 3 26 5 27 61 27 l58 0 0 -380z m242 352
c2 -15 4 -185 3 -377 l0 -350 -66 -3 c-57 -2 -67 0 -71 15 -2 10 -3 175 -2
367 1 266 5 350 14 356 9 6 8 9 -6 13 -10 2 13 5 52 6 71 1 72 1 76 -27z
m-5104 -63 l52 -3 -3 -330 -2 -331 -70 0 -70 0 -3 332 c-2 310 -1 332 15 335
10 3 21 3 24 2 3 -2 28 -4 57 -5z m5329 -2 c10 4 12 -56 10 -261 -1 -146 -5
-266 -9 -266 -4 0 -4 -10 1 -22 5 -13 8 -43 7 -68 l-2 -45 -59 -3 c-40 -2 -61
1 -66 10 -9 14 -12 628 -4 650 5 11 18 13 58 8 29 -4 57 -5 64 -3z m-5059
-314 c0 -175 -2 -326 -5 -335 -3 -15 -16 -18 -62 -18 l-58 0 0 330 c1 368 -6
337 78 339 l46 1 1 -317z m742 -13 l0 -328 -22 -6 c-13 -3 -48 -6 -79 -6 -43
0 -58 4 -63 16 -3 9 -6 159 -6 335 l0 320 85 -2 85 -2 0 -327z m3625 55 c0
-148 -1 -298 -3 -331 l-4 -62 -79 -1 -79 -1 0 331 c0 217 3 328 10 324 6 -3
10 -2 10 4 0 6 30 9 73 8 l72 -2 0 -270z m931 -29 c-2 -166 -4 -308 -6 -316
-1 -8 0 -22 2 -30 2 -12 -11 -16 -64 -18 l-68 -3 0 336 0 336 70 -2 70 -2 -4
-301z m-4327 162 c0 -28 -2 -30 -9 -13 -7 15 -9 16 -9 4 -1 -9 5 -22 13 -28 7
-6 16 -37 19 -69 3 -31 15 -129 26 -217 28 -219 30 -205 -23 -205 -33 0 -46 5
-51 18 -3 9 -19 123 -35 252 -16 129 -32 247 -34 263 -5 27 -5 27 49 27 l55 0
-1 -32z m3099 15 c1 -20 -58 -510 -64 -530 -3 -12 -85 -19 -95 -8 -3 2 10 118
27 257 18 139 33 263 34 276 0 20 5 22 48 22 39 0 49 -3 50 -17z m-1503 -233
c56 -27 78 -46 69 -61 -4 -7 -3 -10 3 -6 13 8 37 -19 29 -32 -4 -5 -1 -13 5
-17 8 -5 9 -3 4 7 -5 9 -5 11 2 4 11 -11 33 -71 33 -91 0 -10 -46 -13 -207
-14 -115 0 -222 -3 -239 -6 -42 -6 -47 9 -24 75 19 56 76 125 97 117 7 -3 12
0 10 6 -3 16 62 36 123 37 35 0 70 -7 95 -19z m-2811 -705 c-4 -16 -2 -25 6
-25 7 0 10 7 7 15 -4 8 -1 17 4 21 8 4 10 -80 7 -278 -4 -329 0 -318 -92 -318
l-56 0 0 298 c0 164 3 302 7 305 3 4 33 7 65 7 57 0 58 0 52 -25z m244 -250
c1 -148 0 -285 -3 -302 -6 -33 -6 -33 -64 -33 l-59 0 -1 299 -2 299 23 5 c13
3 41 4 63 3 l40 -1 3 -270z m249 240 c2 -29 2 -29 -7 -5 -7 22 -8 20 -9 -15 0
-29 2 -36 9 -25 7 10 10 -15 10 -80 0 -65 -3 -90 -10 -80 -8 13 -10 12 -10 -2
0 -10 5 -18 10 -18 6 0 10 -5 10 -11 0 -5 -4 -7 -10 -4 -6 4 -10 -13 -10 -44
0 -27 5 -53 10 -56 6 -3 10 -18 9 -33 l-1 -27 -8 25 c-7 22 -8 21 -9 -12 -1
-21 4 -38 9 -38 6 0 10 -8 10 -17 0 -15 -2 -16 -10 -3 -8 12 -10 10 -10 -8 0
-13 4 -20 10 -17 6 4 10 -8 10 -30 0 -22 -4 -34 -10 -30 -5 3 -10 1 -10 -4 0
-6 5 -11 10 -11 6 0 10 -7 10 -15 0 -12 -15 -15 -75 -15 l-75 0 0 303 0 303
73 -1 72 0 2 -30z m223 -270 l0 -305 -60 0 c-33 0 -60 3 -60 8 -1 12 -1 340
-1 469 1 136 -4 128 84 132 l37 1 0 -305z m247 14 c1 -161 -1 -298 -4 -306 -4
-9 -25 -13 -73 -13 l-68 0 -1 303 -2 302 74 3 73 3 1 -292z m203 32 c0 -169
-4 -251 -10 -241 -6 9 -10 10 -10 3 0 -6 5 -15 10 -18 16 -10 13 -95 -4 -95
-8 0 -17 6 -20 13 -5 10 -7 10 -12 0 -3 -7 -17 -13 -30 -13 l-24 0 0 298 c0
164 2 301 4 303 3 2 25 5 50 5 l46 1 0 -256z m168 -43 c-3 -287 -4 -303 -22
-306 -10 -2 -22 2 -27 10 -6 10 -9 10 -9 1 0 -7 -4 -13 -9 -13 -10 0 -8 580 2
598 5 6 21 12 38 12 l29 0 -2 -302z m2840 54 c-1 -165 -4 -219 -8 -162 -6 78
-6 73 -7 -50 0 -80 2 -123 7 -105 8 30 8 30 9 -7 1 -38 1 -38 -39 -38 l-40 0
0 304 0 304 40 0 40 1 -2 -247z m190 4 c2 -189 0 -236 -10 -230 -10 6 -10 4 0
-8 17 -21 13 -108 -5 -108 -7 0 -13 -4 -13 -10 0 -5 -15 -10 -34 -10 l-34 0
-1 303 -2 302 48 0 48 -1 3 -238z m242 -56 c0 -162 -4 -289 -8 -282 -6 9 -13
7 -30 -8 -14 -14 -35 -20 -66 -20 l-44 0 1 306 0 305 74 -3 73 -2 0 -296z
m230 -7 c0 -281 -2 -303 -18 -303 -15 0 -15 2 -2 10 9 6 10 10 3 10 -6 0 -15
-4 -18 -10 -3 -5 -24 -10 -46 -10 l-39 0 0 305 0 304 60 -2 60 -2 0 -302z
m243 28 c0 -152 -2 -288 -2 -303 -1 -28 -1 -28 -73 -28 -51 0 -68 3 -58 10 8
5 11 10 5 10 -6 0 -9 53 -8 143 1 78 2 211 2 295 l1 152 68 -1 67 -1 -2 -277z
m231 222 c1 -36 -2 -49 -10 -42 -6 5 -13 6 -17 3 -9 -9 4 -35 14 -28 10 6 10
8 12 -179 1 -75 0 -137 -3 -137 -3 0 -4 -38 -2 -85 l3 -85 -64 0 -65 0 -1 295
c-1 162 1 300 4 305 4 6 34 9 67 8 l62 -3 0 -52z m219 24 c-1 -15 2 -25 8 -22
5 4 9 -7 9 -24 0 -16 -4 -33 -10 -36 -5 -3 -10 -12 -10 -18 0 -7 4 -6 10 3 14
22 13 -45 -1 -72 -8 -15 -8 -19 0 -14 8 5 11 -23 11 -93 0 -87 -2 -101 -16
-101 -13 0 -14 -3 -5 -13 6 -8 8 -16 5 -19 -3 -4 -1 -22 4 -42 6 -21 7 -36 1
-36 -5 0 -9 -8 -9 -17 0 -15 2 -16 10 -3 7 11 9 2 6 -30 -2 -25 -9 -45 -15
-44 -6 1 -32 2 -57 3 -27 0 -43 5 -39 11 3 6 2 10 -4 10 -5 0 -12 -6 -14 -12
-3 -7 -6 126 -6 295 l-1 308 63 -3 c61 -3 62 -3 60 -31z m-5052 -964 c0 -15 2
-15 9 2 6 14 9 4 9 -37 1 -31 -3 -60 -9 -63 -5 -3 -10 -14 -10 -23 0 -15 2
-15 10 -2 8 12 10 10 10 -8 0 -13 -4 -20 -10 -17 -5 3 -10 -3 -10 -14 0 -12 5
-21 10 -21 6 0 10 -14 10 -31 0 -17 -4 -28 -10 -24 -5 3 -10 -1 -10 -9 0 -9 5
-16 10 -16 6 0 10 -17 9 -37 0 -31 -2 -34 -9 -18 -8 19 -9 19 -9 -2 -1 -13 4
-23 9 -23 6 0 9 -17 9 -37 l-2 -38 -7 35 c-7 31 -7 29 -8 -20 0 -38 2 -49 8
-35 5 12 8 -37 9 -120 0 -94 -2 -135 -9 -125 -6 10 -10 11 -10 3 0 -9 -20 -13
-65 -13 l-65 0 0 355 0 355 65 0 c55 0 65 -3 66 -17z m239 -338 l0 -355 -60 0
-59 0 -3 258 c-2 141 -2 301 0 355 l3 97 59 0 60 0 0 -355z m4120 136 c0 -136
-4 -222 -10 -226 -5 -3 -10 -16 -9 -28 1 -20 2 -20 9 3 5 15 8 -26 9 -107 l1
-133 -60 0 -59 0 -3 203 c-2 111 -2 271 0 355 l3 152 59 0 60 0 0 -219z m241
89 c0 -71 1 -146 1 -165 0 -19 -1 -120 -1 -225 l-1 -190 -65 0 -65 0 -1 88 c0
87 0 586 1 610 0 8 20 12 65 12 l65 0 1 -130z m-5051 -256 l0 -324 -33 -2
c-17 0 -50 -1 -72 -1 l-40 0 -3 327 -2 327 75 -2 75 -2 0 -323z m218 1 l3
-325 -64 0 -64 0 2 316 c1 353 -4 334 76 334 l45 0 2 -325z m5065 35 c-1 -157
-2 -302 -2 -323 l-1 -38 -65 2 -65 2 0 317 c0 174 3 320 7 324 4 4 34 6 67 4
l59 -3 0 -285z m225 257 c-8 -22 -8 -31 2 -37 15 -9 8 -46 -8 -43 -6 2 -9 -4
-6 -12 4 -8 10 -12 15 -9 11 6 11 -33 0 -61 -5 -11 -5 -25 0 -31 6 -7 6 -21 1
-35 -5 -13 -6 -36 -1 -52 4 -15 6 -51 3 -80 -6 -67 -6 -60 -5 -142 0 -38 0
-80 1 -92 0 -22 -4 -23 -65 -23 l-65 0 0 326 0 325 69 -2 69 -2 -10 -30z
m-4629 -312 l-1 -305 -44 0 -44 0 0 305 0 305 45 0 45 0 -1 -305z m3703 130
c-1 -93 -1 -230 -1 -302 l-1 -133 -70 0 c-39 0 -69 3 -69 8 1 4 1 12 0 17 -1
6 -3 135 -4 287 -1 180 2 278 8 278 6 0 3 5 -5 10 -10 7 9 9 64 8 l78 -3 0
-170z m-306 46 c24 -2 23 -72 -1 -247 -36 -252 -28 -230 -80 -233 -44 -2 -45
-1 -45 30 0 17 5 59 10 93 13 77 50 340 50 354 0 6 12 9 28 8 15 -2 32 -4 38
-5z m-4278 -1133 l3 -307 -33 -6 c-18 -3 -51 -4 -73 -2 l-40 4 -3 299 c-1 164
0 304 2 311 3 8 28 11 73 10 l68 -2 3 -307z m215 295 c7 -26 7 -575 1 -597 -5
-15 -13 -17 -57 -12 -29 3 -55 6 -58 6 -3 0 -6 140 -6 310 l-1 310 58 0 c47 0
60 -3 63 -17z m257 -98 c0 -75 -3 -105 -10 -95 -6 9 -10 10 -10 3 0 -6 5 -15
10 -18 6 -3 10 -14 9 -23 0 -14 -2 -13 -9 3 -6 14 -9 2 -9 -40 0 -45 3 -55 10
-40 l9 20 -4 -20 c-2 -11 -7 -29 -11 -40 -6 -16 -5 -17 4 -5 9 11 11 -18 10
-117 -1 -73 -6 -130 -10 -127 -5 3 -9 0 -9 -6 0 -7 -21 -10 -62 -8 l-63 4 -3
299 c-1 165 0 306 3 313 4 10 24 13 75 10 l70 -2 0 -111z m220 -195 c0 -170
-3 -311 -7 -313 -5 -3 -31 -2 -60 0 l-52 5 -3 305 c-2 168 -2 306 -1 307 2 1
30 3 63 4 l60 2 0 -310z m233 304 c20 -4 27 -11 27 -29 0 -13 -5 -27 -10 -30
-6 -4 -8 -10 -5 -14 11 -18 14 -91 4 -91 -6 0 -7 -5 -2 -12 11 -17 11 -111 0
-119 -5 -3 -4 -22 1 -41 5 -19 9 -90 8 -159 l-1 -124 -60 -1 c-105 -1 -95 -34
-95 317 l0 308 53 0 c28 0 64 -2 80 -5z m3207 -6 c0 -9 4 -8 10 2 6 10 9 -30
8 -120 l-2 -135 -6 120 c-6 112 -6 109 -6 -60 -1 -111 2 -157 6 -120 4 38 7
-7 7 -120 0 -109 -3 -158 -7 -125 l-7 55 -1 -51 c-2 -49 -3 -52 -32 -56 l-30
-5 0 308 c0 236 3 308 13 312 23 10 47 7 47 -5z m166 4 c6 -4 16 -16 23 -27
11 -19 12 -19 6 3 -4 13 -2 22 4 22 8 0 10 -92 9 -307 l-3 -308 -45 0 -45 0
-3 274 c-2 216 0 276 10 283 9 5 10 8 1 8 -9 0 -12 40 -4 58 2 5 37 1 47 -6z
m284 -309 l0 -313 -64 0 c-39 0 -68 5 -72 12 -7 11 -13 606 -6 613 2 2 35 2
73 2 l69 -2 0 -312z m194 311 c9 -3 13 -10 10 -15 -3 -5 0 -9 5 -9 6 0 11 5
11 10 0 6 3 10 8 10 4 0 6 -137 4 -304 l-3 -305 -42 -5 c-85 -10 -77 -40 -77
304 0 169 3 310 7 313 8 9 56 9 77 1z m237 1 c11 -4 17 -11 14 -16 -4 -5 -1
-9 4 -9 6 0 11 8 11 17 0 9 3 13 7 10 5 -6 6 -141 3 -562 l0 -61 -62 1 -63 0
-6 55 c-4 39 -3 561 1 565 4 5 77 4 91 0z m241 -1 c21 -4 35 -11 32 -15 -3 -5
-9 -7 -14 -4 -13 8 -19 -20 -8 -36 8 -11 9 -10 4 4 -3 9 -1 17 4 17 6 0 10 -3
11 -7 3 -48 3 -430 -1 -428 -3 2 -4 -32 -2 -76 l4 -79 -29 0 c-15 0 -45 3 -65
6 l-38 7 0 302 c0 166 3 305 7 308 8 9 46 9 95 1z m258 -6 c0 -5 -4 -8 -10 -8
-5 0 -10 -4 -10 -10 0 -5 6 -7 13 -4 18 6 24 -121 7 -141 -8 -9 -8 -15 0 -20
14 -9 13 -48 -2 -64 -9 -10 -9 -12 -1 -7 8 4 11 -6 10 -34 -1 -22 -5 -40 -9
-40 -5 0 -8 -8 -8 -17 0 -15 2 -16 10 -3 8 13 10 13 10 -2 0 -9 -4 -28 -10
-42 -5 -14 -6 -26 -2 -26 4 0 6 -44 5 -97 l-2 -98 -51 -1 c-28 -1 -53 3 -56 7
-3 5 -10 7 -15 4 -5 -4 -9 116 -9 305 l0 311 65 -3 c36 -1 65 -6 65 -10z"/>
<path d="M3656 4875 c-24 -13 -31 -13 -38 -3 -4 7 -8 9 -9 3 -3 -33 -6 -52
-13 -71 -4 -13 15 -118 49 -269 31 -137 54 -254 51 -261 -3 -7 -1 -14 3 -16 8
-3 48 -161 81 -322 12 -60 20 -138 20 -200 0 -106 -20 -270 -30 -242 -3 9 -6
-10 -6 -42 -1 -66 -63 -404 -76 -413 -11 -7 -6 -59 7 -59 5 0 4 -4 -4 -9 -8
-5 3 -9 32 -9 25 -1 50 4 55 11 6 7 22 77 37 156 31 167 31 168 53 174 15 4
15 5 0 6 -10 0 -18 9 -18 19 0 13 2 14 9 4 6 -10 10 -10 21 3 12 14 7 20 -13
16 -9 -2 -3 57 17 169 11 60 14 65 39 68 15 2 27 -1 27 -7 0 -6 -3 -10 -7 -10
-20 3 -27 -2 -13 -11 12 -7 7 -42 -35 -237 -71 -335 -70 -330 -55 -348 16 -19
64 -20 79 -1 7 8 22 62 33 120 12 57 25 103 28 101 4 -3 5 7 2 20 -2 14 0 25
7 25 5 0 8 6 5 13 -5 15 54 319 65 330 4 4 151 6 327 5 l319 -3 -2 -267 c0
-147 -4 -271 -7 -277 -4 -5 -2 -12 4 -16 5 -3 10 -15 10 -25 0 -24 30 -41 68
-38 23 2 28 7 30 32 2 17 8 34 15 38 9 6 9 8 0 8 -10 0 -13 84 -13 386 0 373
-1 388 -21 420 -11 19 -35 38 -54 46 -19 6 -31 14 -26 17 5 4 -141 6 -324 5
l-332 0 -41 175 c-106 451 -173 725 -183 743 -27 51 -115 73 -173 43z m107
-185 c22 -88 30 -141 18 -115 -8 16 -9 12 -8 -20 2 -39 18 -70 31 -58 3 4 6 1
6 -6 0 -6 -7 -14 -15 -17 -8 -4 -15 -10 -15 -16 0 -5 4 -7 9 -4 5 4 11 3 14
-1 2 -5 2 -2 1 5 -2 6 0 12 4 12 9 0 51 -168 54 -220 2 -19 6 -37 9 -40 4 -3
10 -21 13 -40 5 -26 4 -31 -3 -20 -9 13 -11 13 -11 -2 0 -10 6 -18 13 -18 8 0
19 -21 26 -52 6 -29 18 -79 26 -111 l13 -57 -28 2 c-27 2 -29 6 -50 96 -12 52
-20 102 -17 113 3 10 1 17 -3 14 -10 -6 -63 215 -64 267 -1 20 -4 34 -7 33 -3
-2 -11 24 -18 58 -8 34 -22 95 -33 135 -18 66 -21 123 -10 145 9 18 30 -20 45
-83z m927 -897 c4 -4 11 -19 15 -32 6 -18 4 -22 -6 -16 -11 6 -12 5 -1 -6 6
-7 12 -21 12 -31 0 -17 -19 -18 -325 -18 l-325 0 10 24 c5 13 6 33 3 45 -13
52 -17 51 308 47 166 -3 305 -8 309 -13z"/>
<path d="M4657 4816 c-66 -27 -77 -35 -131 -91 -22 -22 -37 -32 -33 -22 4 11
3 16 -4 12 -6 -4 -8 -13 -5 -21 3 -8 -3 -29 -14 -47 -11 -17 -25 -49 -31 -69
-5 -21 -14 -38 -20 -38 -6 0 -7 5 -4 11 4 6 -2 5 -14 -3 l-21 -13 22 -7 c19
-5 16 -6 -12 -7 -19 -1 -65 -12 -102 -25 -37 -13 -69 -22 -72 -20 -4 2 -4 1
-1 -2 2 -4 -2 -16 -10 -28 -8 -11 -15 -34 -15 -51 0 -17 -6 -37 -12 -44 -11
-11 -10 -13 5 -8 11 4 20 1 24 -9 7 -18 70 -51 132 -69 106 -30 287 -50 559
-61 94 -4 158 -11 150 -15 -9 -6 -6 -9 10 -9 13 0 20 4 17 10 -4 6 6 10 23 10
25 0 29 -3 25 -20 -3 -11 0 -20 6 -20 6 0 12 10 13 23 2 12 5 -225 8 -528 3
-302 3 -556 1 -564 -3 -11 -6 -10 -12 5 -5 14 -8 15 -8 4 -1 -13 -20 -16 -108
-18 -145 -3 -144 -2 -141 -65 1 -29 3 -47 5 -42 2 6 113 9 314 7 281 -3 313
-1 330 14 22 20 25 57 6 72 -8 7 -67 12 -145 13 l-132 1 0 558 0 557 153 7
c199 9 342 23 449 46 83 18 160 49 173 69 3 6 13 8 23 5 11 -4 13 -3 5 3 -8 6
-9 14 -3 23 18 28 11 78 -15 109 -33 39 -108 66 -233 85 -110 16 -142 13 -142
-14 0 -10 -7 -26 -16 -34 -10 -11 -11 -16 -3 -16 6 0 17 -7 23 -15 7 -9 40
-19 86 -24 109 -14 181 -31 174 -42 -3 -5 1 -9 8 -9 34 -1 -32 -23 -120 -40
-150 -28 -342 -40 -648 -40 -404 1 -596 14 -793 57 l-74 16 31 13 c35 14 262
28 262 15 0 -4 7 -8 15 -8 8 0 12 4 9 9 -3 4 -1 8 5 8 5 0 12 -4 15 -9 3 -4
23 -5 44 -1 41 7 54 6 87 -5 17 -6 18 -5 5 5 -12 9 -6 10 30 6 41 -6 688 -11
700 -6 3 1 27 3 53 4 29 2 55 9 65 19 15 16 14 22 -22 91 -27 53 -36 81 -31
98 4 15 3 18 -3 10 -6 -9 -15 1 -33 36 -26 51 -85 104 -159 142 -93 48 -259
36 -335 -24 l-29 -23 -36 23 c-90 60 -221 72 -323 30z m222 -86 c58 -16 81
-46 81 -103 0 -56 3 -56 -110 -23 -75 22 -165 20 -236 -4 -77 -25 -80 -25 -59
8 41 64 131 132 155 117 5 -3 11 -1 15 5 8 13 110 13 154 0z m472 -18 c49 -25
127 -107 115 -119 -3 -3 -21 1 -42 7 -43 14 -204 29 -204 19 0 -4 -15 -11 -32
-14 -18 -4 -50 -16 -70 -26 -21 -11 -42 -19 -48 -19 -6 0 -10 25 -10 58 0 50
4 62 25 82 17 16 37 24 60 24 21 0 30 3 22 8 -6 4 20 8 59 8 59 0 81 -5 125
-28z"/>
</g>
</svg>
