<?xml version="1.0" standalone="no"?>
<!DOCTYPE svg PUBLIC "-//W3C//DTD SVG 20010904//EN" "http://www.w3.org/TR/2001/REC-SVG-20010904/DTD/svg10.dtd">
<svg xmlns="http://www.w3.org/2000/svg" version="1.0" width="1024.000000pt" height="1024.000000pt" viewBox="0 0 1024.000000 1024.000000" preserveAspectRatio="xMidYMid meet">
<metadata>
Created by potrace 1.16, written by Peter Selinger 2001-2019
<meta name="Producer" content="Online-Convert"/></metadata>
<g transform="translate(0.000000,1024.000000) scale(0.100000,-0.100000)" fill="#000000" stroke="none">
<path d="M5005 8631 l60 -8 -70 -2 c-38 -1 -77 -4 -85 -5 -8 -2 -53 -6 -100 -10 -90 -8 -258 -38 -350 -62 -30 -9 -66 -17 -80 -20 -14 -3 -84 -25 -155 -49 -72 -25 -133 -45 -137 -45 -3 0 -4 10 -1 23 3 12 3 20 0 17 -3 -3 -7 -14 -9 -25 -4 -26 -31 -45 -67 -48 -16 -1 -27 -4 -25 -6 8 -8 -152 -81 -166 -75 -8 3 -11 2 -7 -2 10 -11 -122 -86 -136 -77 -7 3 -9 3 -5 -2 10 -11 -29 -38 -42 -30 -6 4 -9 1 -8 -5 2 -7 -6 -17 -17 -23 -11 -7 -50 -33 -87 -59 -44 -31 -73 -46 -85 -42 -15 5 -15 4 -3 -5 13 -9 12 -12 -5 -25 -18 -14 -21 -13 -34 2 -12 16 -13 15 -7 -3 5 -16 -11 -34 -77 -90 -170 -144 -379 -378 -496 -555 -35 -52 -70 -100 -78 -107 -8 -6 -14 -14 -13 -18 1 -3 -32 -72 -74 -154 -67 -131 -152 -337 -172 -414 -5 -22 -9 -26 -16 -15 -7 10 -8 8 -4 -5 6 -18 -31 -187 -43 -197 -3 -3 -7 -14 -7 -25 -1 -11 -9 -67 -17 -125 -9 -58 -20 -145 -23 -194 -6 -73 -10 -90 -25 -93 -11 -3 -15 -11 -12 -20 5 -12 7 -12 14 -1 11 17 10 29 14 -289 2 -160 -1 -263 -7 -263 -5 0 -6 5 -3 10 3 6 -1 10 -9 10 -22 0 -20 -17 3 -30 20 -10 20 -31 21 -1162 0 -634 -3 -1149 -6 -1145 -6 6 -11 74 -13 211 -1 27 -4 46 -7 43 -6 -6 -9 -204 -4 -282 1 -28 2 -29 10 -8 5 13 12 23 15 23 3 0 5 -266 5 -590 0 -468 -3 -590 -12 -588 -13 3 -18 -3 -18 -23 0 -5 4 -7 10 -4 6 3 10 -5 10 -19 0 -13 -6 -27 -12 -29 -8 -3 -6 -6 5 -6 14 -1 24 -23 15 -33 -4 -5 47 -54 52 -52 3 1 23 -6 44 -17 22 -10 49 -18 60 -18 15 1 12 4 -9 9 -16 4 87 7 230 7 183 -1 227 -3 150 -7 -60 -3 -103 -7 -95 -9 20 -3 352 -3 460 0 l85 3 -100 6 c-86 5 -76 6 70 6 108 1 148 -2 110 -6 -62 -7 -55 -10 28 -13 34 -2 46 1 42 11 -3 8 6 12 28 12 24 0 28 -3 17 -10 -12 -8 -9 -10 13 -10 16 0 26 4 22 10 -4 6 9 10 32 9 38 -1 38 -1 8 -9 -29 -7 -29 -8 10 -10 49 -3 218 -2 225 1 3 1 -24 5 -60 9 -46 5 -18 7 95 7 92 0 147 -3 130 -7 -44 -11 -7 -15 88 -9 l42 2 -50 7 c-45 6 -42 7 30 7 56 1 71 -2 50 -7 l-30 -8 35 -2 c95 -6 880 -4 880 2 0 4 -12 9 -27 11 -16 2 44 4 132 5 97 0 152 -3 140 -8 -16 -7 -11 -9 20 -9 31 0 36 2 20 9 -16 7 -11 9 20 9 31 0 36 -2 20 -9 -18 -8 -18 -9 5 -10 93 -5 290 -4 290 2 0 4 -44 9 -97 11 -97 3 -97 3 22 4 75 1 112 -2 100 -7 l-20 -9 20 -1 c39 -2 150 -2 185 1 27 2 20 4 -25 9 l-60 7 80 1 c53 0 73 -2 60 -8 -26 -11 -28 -11 185 -11 344 1 442 4 375 11 l-60 7 73 1 c48 1 78 -2 86 -10 9 -9 45 -12 122 -11 138 3 151 5 89 13 -27 4 56 7 185 7 129 -1 211 -2 182 -4 -96 -7 -46 -18 60 -14 88 4 96 6 53 11 -27 4 79 8 236 8 280 2 287 2 320 25 19 13 39 37 45 56 6 18 17 37 25 42 9 6 10 9 2 9 -10 0 -13 452 -16 2103 -2 1156 -7 2125 -11 2152 -27 187 -53 316 -88 439 -23 78 -41 155 -40 171 1 19 -2 25 -7 17 -5 -9 -15 8 -31 50 -12 35 -42 105 -66 157 -24 51 -41 98 -37 104 3 5 2 7 -4 4 -13 -8 -36 40 -27 56 4 7 4 9 -1 5 -4 -4 -40 45 -79 110 -70 115 -158 240 -222 316 -19 21 -31 43 -28 48 3 5 2 7 -3 6 -4 -1 -57 48 -118 111 -60 62 -154 149 -207 193 -54 45 -95 85 -91 91 3 6 1 7 -5 3 -6 -3 -40 15 -76 41 -54 39 -63 49 -48 56 13 6 12 6 -5 3 -27 -5 -290 149 -270 158 6 3 3 5 -8 3 -28 -2 -176 64 -168 76 3 6 1 7 -5 3 -16 -9 -153 45 -145 57 3 6 1 7 -6 3 -13 -9 -212 54 -206 64 3 4 -7 5 -22 2 -19 -4 -24 -2 -18 8 5 9 4 11 -3 6 -7 -4 -28 -4 -48 0 -26 5 -32 9 -22 16 9 6 6 7 -9 3 -12 -3 -61 2 -110 11 -48 9 -97 18 -108 20 -11 1 -51 7 -90 13 -38 5 -124 13 -190 17 -66 3 -124 9 -130 13 -5 4 -53 7 -105 8 -85 1 -89 0 -35 -6z m475 -252 c202 -32 296 -54 455 -107 182 -60 248 -89 240 -102 -3 -6 0 -7 9 -4 20 8 107 -36 99 -49 -3 -6 -1 -7 5 -3 12 7 113 -39 111 -52 -3 -18 2 -26 9 -15 6 10 30 -1 90 -38 50 -30 80 -55 76 -61 -5 -7 -1 -9 9 -5 20 8 80 -40 70 -56 -4 -6 0 -8 9 -5 18 8 81 -40 72 -54 -4 -7 -2 -8 4 -4 15 9 114 -73 105 -87 -3 -6 -1 -7 4 -4 10 6 48 -27 48 -42 0 -3 3 -5 6 -4 7 2 75 -66 72 -73 -2 -2 -1 -3 0 -1 9 6 36 -26 30 -36 -3 -5 -1 -7 4 -4 6 4 39 -26 74 -66 98 -112 93 -105 80 -120 -13 -17 -2 -31 14 -17 18 15 132 -154 117 -173 -9 -10 -8 -14 3 -14 8 0 12 5 9 11 -3 6 2 2 11 -9 9 -11 14 -30 12 -42 -2 -13 0 -23 4 -23 5 0 9 6 9 12 0 7 7 2 16 -10 8 -12 12 -27 9 -32 -3 -6 -1 -10 4 -10 17 0 82 -137 75 -157 -4 -12 -3 -14 3 -5 12 16 58 -92 47 -109 -4 -7 -3 -9 3 -6 14 9 34 -48 26 -70 -4 -10 -2 -14 5 -9 7 4 22 -29 42 -96 18 -57 36 -116 41 -132 5 -16 9 -38 8 -50 0 -21 -1 -21 -10 -1 -7 16 -8 13 -5 -13 5 -39 16 -55 17 -26 0 10 7 -3 15 -31 8 -27 12 -58 10 -67 -2 -10 -1 -18 3 -18 5 0 14 -39 22 -87 11 -72 14 -415 14 -1893 0 -993 -2 -1822 -6 -1842 -3 -21 -3 -36 0 -33 4 2 6 -85 6 -193 0 -108 3 -207 7 -219 l7 -23 -2569 0 -2570 0 0 1977 c0 1278 4 2017 10 2088 6 61 13 133 15 162 10 101 104 478 123 493 4 3 9 14 10 25 13 72 190 432 211 428 5 -2 8 3 5 11 -3 8 0 17 7 22 8 5 10 3 4 -6 -5 -9 -4 -11 4 -6 6 4 9 12 5 17 -12 19 161 254 179 242 5 -3 7 -1 4 4 -8 13 30 64 45 60 6 -1 12 7 14 17 7 42 273 290 429 400 44 31 85 60 90 64 31 24 109 61 118 55 5 -3 7 -1 4 5 -14 21 397 210 430 198 8 -3 12 -2 9 3 -12 18 277 91 499 125 148 23 551 20 705 -5z"/>
<path d="M4955 6710 c-3 -5 -3 -10 2 -11 4 0 -3 -5 -16 -10 -18 -7 -27 -6 -34 3 -6 10 -8 9 -4 -3 4 -12 -6 -22 -36 -35 -23 -11 -45 -18 -49 -16 -5 1 -7 -1 -5 -6 3 -10 -78 -83 -87 -77 -3 3 -4 2 -1 -1 2 -4 -14 -33 -36 -66 -50 -73 -97 -183 -106 -245 -6 -40 -8 -44 -13 -23 -10 39 0 -229 11 -283 5 -27 7 -60 4 -75 -4 -20 -3 -22 3 -8 7 15 10 11 21 -25 7 -24 22 -61 32 -82 11 -21 17 -43 13 -49 -4 -6 -3 -8 3 -5 6 4 19 -6 28 -21 10 -15 29 -39 42 -54 24 -25 24 -28 10 -56 -12 -25 -12 -30 -1 -25 8 3 14 14 14 25 0 19 1 18 29 -4 17 -13 30 -32 30 -43 0 -54 -69 -126 -139 -145 -290 -79 -340 -98 -420 -158 -43 -32 -129 -119 -124 -125 2 -2 -6 -15 -18 -29 -13 -14 -25 -32 -27 -39 -31 -105 -69 -218 -72 -215 -2 2 -5 -14 -6 -37 -3 -49 -1 -40 -38 -189 -16 -65 -32 -113 -35 -108 -3 6 -6 -11 -7 -38 0 -26 -3 -58 -6 -72 -11 -45 -35 -118 -48 -142 -25 -46 -91 -128 -100 -122 -5 3 -8 0 -7 -7 2 -6 -7 -12 -19 -14 -13 -1 -26 -5 -30 -10 -5 -4 2 -4 15 -1 12 4 22 3 22 -2 0 -15 -26 -33 -35 -24 -5 4 -5 1 -1 -6 9 -15 -12 -44 -25 -36 -5 3 -8 1 -7 -4 5 -17 -132 -171 -148 -165 -7 3 -14 0 -14 -7 0 -6 5 -8 10 -5 17 11 11 -4 -24 -58 -19 -28 -38 -64 -42 -79 -3 -16 -9 -28 -13 -28 -3 0 -6 -34 -6 -75 0 -42 3 -67 7 -58 3 10 7 13 7 6 1 -6 4 -19 8 -29 4 -11 3 -15 -4 -11 -6 4 -14 0 -17 -9 -4 -11 -1 -14 12 -10 13 5 22 -1 30 -19 17 -37 15 -47 -8 -40 -15 5 -18 3 -14 -9 3 -9 -5 -27 -21 -43 -14 -15 -42 -61 -63 -102 -34 -68 -37 -83 -40 -175 -5 -114 12 -180 67 -261 l30 -45 -52 -1 c-104 -2 -174 -17 -240 -50 -21 -11 -42 -17 -48 -14 -5 4 -8 1 -7 -7 2 -7 -5 -12 -14 -12 -10 1 -16 -2 -13 -6 2 -4 -13 -19 -33 -35 -78 -59 -178 -200 -202 -284 -13 -48 9 -96 54 -117 31 -15 39 -16 73 -3 31 12 45 28 82 93 51 93 112 158 138 150 13 -4 14 -3 5 4 -15 10 6 27 74 59 37 17 119 18 1828 21 1587 2 1797 0 1850 -13 69 -18 122 -47 118 -64 -1 -7 2 -9 9 -6 17 11 70 -45 63 -67 -3 -10 0 -18 6 -18 6 0 8 6 4 13 -4 6 2 3 14 -7 23 -20 31 -42 10 -30 -7 4 -8 3 -4 -5 4 -6 11 -9 16 -6 5 3 20 -16 34 -42 33 -67 57 -86 108 -86 34 0 47 6 70 32 18 20 28 42 28 63 0 48 -63 166 -124 234 -30 34 -52 65 -48 69 4 3 2 5 -3 3 -16 -5 -86 43 -79 54 4 6 2 8 -3 5 -6 -4 -37 6 -69 22 -73 36 -130 49 -216 52 l-66 2 15 23 c8 13 20 21 26 17 5 -3 7 -1 3 5 -3 6 3 25 13 44 27 44 51 141 51 201 0 64 -25 161 -55 212 -13 22 -43 62 -66 90 -24 27 -38 46 -32 42 9 -6 11 -3 7 8 -5 13 -9 13 -22 3 -8 -7 -5 3 9 24 13 20 27 34 30 32 4 -2 5 6 2 18 -3 17 -2 19 5 9 6 -9 9 13 8 66 -1 67 -6 89 -33 144 -18 35 -61 97 -97 138 -36 40 -63 78 -59 84 3 5 2 7 -4 4 -12 -8 -41 22 -137 147 -43 54 -75 105 -72 112 3 8 0 13 -6 11 -14 -2 -67 170 -71 229 -1 23 -5 40 -8 38 -3 -2 -12 22 -18 54 -31 139 -91 372 -111 423 -11 32 -39 86 -62 120 -23 35 -41 68 -40 72 1 5 -2 6 -6 3 -12 -7 -44 28 -35 38 5 4 3 6 -2 4 -10 -3 -78 40 -114 72 -10 8 -22 16 -27 17 -5 2 -49 16 -97 33 -48 16 -94 30 -102 30 -8 0 -15 5 -15 11 0 5 -5 7 -10 4 -6 -3 -48 5 -95 20 -70 21 -89 31 -112 61 -46 61 -41 88 32 166 120 130 175 287 179 514 1 75 -1 128 -4 119 -4 -11 -10 1 -18 36 -24 102 -87 215 -164 292 -39 38 -62 67 -52 63 10 -4 15 -3 10 1 -4 4 -15 8 -24 9 -10 0 -46 14 -82 31 -36 18 -83 35 -105 39 -55 9 -244 11 -238 2 2 -5 -3 -8 -12 -8 -9 0 -13 5 -10 10 3 6 2 10 -4 10 -5 0 -13 -4 -16 -10z m253 -218 c2 -7 8 -10 13 -7 13 8 71 -25 118 -67 38 -35 54 -57 31 -43 -17 10 -11 -12 7 -26 14 -12 16 -12 9 1 -4 8 0 6 8 -5 9 -11 14 -25 11 -33 -2 -7 -1 -11 4 -8 14 9 36 -55 51 -150 11 -69 2 -210 -12 -179 -6 15 -7 12 -3 -9 7 -32 -31 -139 -46 -130 -5 3 -6 -1 -3 -9 6 -17 -44 -80 -57 -71 -5 3 -8 0 -7 -8 2 -7 -3 -12 -10 -10 -6 1 -11 -4 -10 -10 2 -7 -26 -28 -61 -45 -70 -36 -142 -43 -224 -22 -51 12 -141 75 -131 91 4 7 3 8 -4 4 -16 -9 -61 65 -90 149 -42 119 -31 282 26 405 45 95 144 183 197 173 16 -3 17 -2 6 6 -11 7 -8 10 15 14 52 9 158 1 162 -11z m44 -1097 c10 -26 28 -60 38 -75 11 -15 16 -31 12 -35 -4 -5 -2 -5 5 -1 6 3 15 1 18 -4 4 -6 26 -25 48 -42 33 -24 37 -29 17 -24 -21 6 -22 5 -7 -4 9 -6 21 -9 26 -6 4 3 31 -3 59 -14 28 -11 61 -22 74 -24 13 -3 60 -16 106 -30 45 -13 86 -24 90 -25 4 -1 15 -4 26 -7 15 -5 16 -8 5 -16 -10 -7 -8 -8 8 -3 52 14 159 -86 202 -188 32 -79 122 -431 125 -488 0 -21 4 -35 7 -33 10 6 21 -64 13 -78 -4 -7 -3 -8 4 -4 8 5 12 0 12 -13 0 -10 -3 -21 -7 -24 -5 -2 -3 -3 3 -1 14 3 38 -82 28 -98 -4 -7 -3 -8 4 -4 7 4 12 5 12 2 0 -2 3 -13 7 -23 5 -14 4 -16 -8 -8 -8 6 -5 1 7 -10 12 -11 27 -30 33 -43 7 -13 41 -59 77 -103 35 -44 63 -85 61 -92 -1 -6 3 -11 9 -10 18 3 147 -153 139 -168 -3 -4 0 -11 6 -15 8 -4 9 -3 5 4 -16 26 11 10 35 -21 20 -25 24 -38 17 -50 -6 -11 -5 -17 1 -17 5 0 11 5 13 12 3 8 6 7 10 -3 3 -8 0 -29 -8 -47 -10 -25 -19 -32 -41 -32 -30 0 -194 50 -234 70 -38 20 -69 52 -62 64 3 6 2 8 -2 3 -11 -10 -46 23 -38 36 3 5 1 7 -4 4 -15 -9 -117 109 -107 124 4 7 3 9 -4 6 -12 -8 -100 101 -132 163 -24 48 -46 147 -86 392 -28 174 -41 213 -75 223 -17 6 -19 9 -8 16 12 7 11 9 -1 9 -36 0 -94 -24 -116 -47 -32 -34 -31 -57 11 -302 20 -113 33 -211 30 -219 -2 -7 -1 -11 4 -8 5 3 11 -7 14 -22 11 -54 49 -143 83 -193 19 -28 31 -56 27 -62 -3 -5 -1 -7 5 -3 13 8 44 -33 35 -47 -3 -6 -2 -7 4 -4 5 4 34 -24 63 -61 30 -37 59 -70 66 -75 7 -4 10 -15 7 -24 -4 -10 -2 -14 5 -9 6 3 13 2 16 -3 4 -5 -40 -23 -96 -41 -57 -17 -152 -46 -213 -65 -237 -75 -349 -104 -374 -100 -22 4 -23 4 -6 -3 18 -8 17 -10 -12 -16 -18 -4 -38 -4 -44 0 -7 4 -9 3 -6 -3 7 -11 -148 -64 -173 -59 -8 1 -35 8 -59 15 -34 10 -41 15 -30 23 11 7 9 8 -6 3 -22 -7 -310 76 -295 85 5 3 -7 6 -28 6 -20 1 -82 15 -137 33 -55 18 -127 40 -159 49 -48 12 -56 17 -40 24 16 7 15 8 -5 4 -34 -7 -82 4 -74 17 3 5 1 7 -5 3 -6 -3 -30 -1 -55 5 l-44 12 90 108 c50 60 95 105 100 102 6 -3 7 -2 4 4 -4 6 11 34 33 63 22 29 42 61 45 72 4 10 11 18 16 18 5 0 8 3 7 8 -2 4 7 45 19 92 22 84 47 220 79 415 9 55 21 103 27 107 8 5 7 8 -4 8 -9 0 -21 11 -27 25 -16 34 -67 58 -107 51 -55 -11 -75 -43 -90 -148 -23 -161 -38 -238 -45 -238 -4 0 -6 -11 -4 -25 3 -33 -31 -176 -51 -216 -9 -16 -20 -27 -25 -24 -6 3 -8 0 -5 -7 5 -14 -23 -52 -123 -169 -152 -178 -188 -204 -355 -259 -74 -24 -90 -20 -108 27 -11 30 2 64 48 119 32 38 39 42 46 27 6 -14 6 -13 3 5 -4 22 7 39 75 117 15 16 50 57 79 90 29 33 57 59 62 57 5 -1 7 2 3 7 -3 6 9 29 27 53 57 75 87 159 143 407 30 133 57 251 59 264 2 12 7 35 12 52 6 26 8 27 15 10 5 -12 6 -3 2 21 -4 33 1 55 26 106 43 92 132 181 162 162 7 -4 9 -3 5 4 -8 13 40 31 209 77 72 20 150 45 174 56 24 10 47 16 52 13 5 -3 8 -2 7 3 -2 4 18 27 44 51 26 24 58 66 71 92 14 27 27 47 29 44 3 -2 3 6 1 18 -4 23 -4 23 108 22 l112 -1 19 -48z m-1224 -2016 c2 -5 8 -7 13 -4 4 3 70 -13 146 -36 76 -22 171 -50 211 -62 50 -14 69 -23 60 -30 -9 -6 -7 -7 6 -3 27 9 141 -24 124 -36 -9 -7 -7 -8 6 -4 26 9 117 -15 123 -31 3 -7 9 -13 15 -13 5 0 7 4 4 9 -4 5 10 4 30 -2 30 -9 33 -12 18 -18 -28 -11 -41 -10 -24 1 9 6 10 10 3 10 -7 0 -16 -6 -20 -14 -6 -10 -164 -71 -175 -66 -2 0 -36 -11 -77 -25 -40 -13 -79 -22 -85 -18 -6 3 -8 3 -4 -2 4 -4 -14 -18 -41 -31 -27 -12 -57 -34 -66 -48 -10 -14 -22 -23 -28 -19 -5 3 -7 2 -4 -4 3 -5 0 -31 -8 -58 -8 -26 -15 -61 -15 -77 l0 -28 -187 0 c-104 0 -216 5 -250 10 -67 11 -158 57 -158 81 0 8 -7 14 -15 14 -24 0 -69 76 -80 135 -14 76 3 148 47 200 19 22 39 37 45 34 6 -4 8 -2 4 4 -3 5 9 20 28 32 49 30 262 101 283 94 14 -5 15 -4 4 4 -11 8 -10 11 5 15 23 5 58 -2 62 -14z m2265 5 c15 -3 27 -9 27 -13 0 -4 8 -7 18 -8 10 -1 62 -16 114 -33 72 -23 107 -41 142 -71 25 -23 43 -46 39 -51 -3 -7 -1 -8 5 -4 14 8 36 -30 26 -46 -4 -6 -3 -8 3 -5 31 19 44 -114 17 -179 -21 -51 -63 -106 -75 -98 -5 3 -8 0 -7 -8 2 -7 -3 -12 -10 -10 -8 1 -11 -2 -8 -7 10 -16 -83 -60 -148 -71 -37 -6 -435 -10 -1029 -10 l-967 0 13 31 c11 27 24 36 92 60 44 16 88 27 98 25 9 -2 15 -1 12 4 -2 4 30 17 73 30 42 12 83 27 90 33 6 5 12 7 12 4 0 -3 39 8 87 24 48 16 93 27 100 25 6 -3 13 -1 15 3 3 7 84 35 274 96 44 14 87 24 95 22 8 -2 10 -2 6 1 -16 8 227 82 253 77 16 -4 20 -2 12 3 -8 6 63 32 205 76 120 37 250 78 288 91 39 13 77 22 85 20 8 -2 27 -7 43 -11z"/>
<path d="M6925 5335 c-23 -23 -58 -65 -77 -93 -19 -29 -38 -49 -43 -44 -5 4 -6 2 -2 -3 7 -14 -58 -117 -68 -107 -5 4 -5 2 -2 -4 4 -7 -2 -33 -14 -58 -20 -46 -26 -80 -28 -166 -1 -33 -4 -41 -11 -30 -7 10 -10 11 -10 2 0 -7 7 -15 15 -18 8 -4 15 -13 15 -20 0 -26 47 -108 79 -138 17 -16 28 -32 26 -36 -2 -3 1 -12 7 -20 8 -12 9 -12 5 2 -5 14 -1 14 29 -4 18 -11 31 -25 27 -31 -3 -5 -2 -7 3 -4 15 9 38 -9 29 -23 -6 -9 -10 -9 -17 1 -7 10 -8 4 -4 -18 l6 -33 -168 0 c-148 0 -171 -2 -199 -20 -59 -35 -58 -124 2 -247 21 -43 37 -84 36 -92 -1 -8 2 -10 9 -6 9 6 9 2 1 -13 -15 -28 -14 -32 10 -32 13 0 18 4 14 13 -4 6 12 -7 34 -30 23 -24 45 -43 49 -44 4 0 6 -5 5 -10 -2 -5 0 -8 5 -7 4 1 40 -14 79 -34 59 -29 68 -37 50 -41 -12 -2 5 -4 38 -4 33 1 90 -2 127 -6 79 -8 182 9 247 42 23 12 41 19 41 16 0 -3 10 4 22 15 12 11 28 18 36 15 7 -2 11 -1 8 3 -3 5 17 30 45 57 48 46 119 151 119 174 0 7 3 10 8 8 13 -9 22 152 11 200 -6 25 -19 43 -19 25 0 -7 -11 -5 -29 4 -24 12 -66 14 -200 12 l-171 -3 0 37 c0 34 5 40 60 79 62 43 116 108 139 166 17 42 18 191 2 221 -7 13 -10 31 -6 40 3 9 3 13 -1 9 -4 -4 -23 21 -42 56 -44 80 -145 227 -174 254 -14 13 -41 23 -67 26 -41 4 -47 1 -86 -38z m125 -304 c10 -19 10 -25 -1 -32 -12 -7 -12 -9 0 -9 8 0 11 -6 7 -16 -3 -9 -2 -12 5 -9 6 4 8 13 5 21 -3 8 -3 14 0 14 3 0 15 -23 28 -50 29 -63 22 -112 -24 -152 -35 -32 -89 -38 -114 -12 -9 8 -16 12 -16 8 0 -4 -10 6 -22 21 -13 17 -22 42 -22 64 0 41 42 133 57 124 6 -3 7 -1 3 5 -4 6 5 29 20 51 l26 41 18 -23 c9 -12 23 -33 30 -46z m194 -759 c-4 -12 -3 -13 3 -4 5 7 19 14 32 17 l22 4 -21 -30 c-12 -16 -26 -27 -31 -23 -5 3 -8 0 -7 -8 2 -7 -3 -12 -10 -10 -8 1 -11 -1 -8 -6 10 -16 -38 -50 -101 -71 -76 -26 -178 -29 -169 -6 3 8 1 15 -3 15 -5 0 -11 -5 -13 -11 -3 -8 -15 -9 -36 -4 -18 3 -30 11 -27 16 4 5 0 7 -7 4 -18 -7 -105 62 -130 102 l-20 32 266 1 c248 0 265 -1 260 -18z"/>
</g>
</svg>
