<?xml version="1.0" standalone="no"?>
<!DOCTYPE svg PUBLIC "-//W3C//DTD SVG 20010904//EN"
 "http://www.w3.org/TR/2001/REC-SVG-20010904/DTD/svg10.dtd">
<svg version="1.0" xmlns="http://www.w3.org/2000/svg"
 width="1024.000000pt" height="1024.000000pt" viewBox="0 0 1024.000000 1024.000000"
 preserveAspectRatio="xMidYMid meet">
<metadata>
Created by potrace 1.16, written by Peter Selinger 2001-2019
</metadata>
<g transform="translate(0.000000,1024.000000) scale(0.100000,-0.100000)"
fill="#000000" stroke="none">
<path d="M5081 7529 c-198 -22 -429 -104 -582 -206 -46 -30 -90 -56 -97 -56
-6 0 -10 -2 -8 -5 3 -2 -19 -23 -47 -46 -29 -23 -70 -59 -91 -79 -22 -19 -44
-33 -50 -30 -5 3 -6 2 -3 -4 4 -5 -14 -32 -39 -59 -24 -27 -72 -84 -105 -126
-34 -43 -65 -78 -69 -78 -25 0 -109 24 -101 29 5 3 -12 7 -37 8 -26 1 -90 8
-143 15 -236 32 -504 -13 -686 -115 -29 -16 -58 -25 -64 -21 -7 4 -9 3 -6 -3
9 -14 -40 -46 -55 -37 -6 4 -8 3 -5 -3 7 -11 -96 -95 -107 -87 -3 2 -4 1 -1
-2 2 -4 -22 -35 -54 -69 -147 -157 -234 -349 -249 -546 -10 -122 0 -263 24
-351 29 -110 29 -113 -9 -170 -80 -123 -139 -269 -168 -418 -7 -36 -12 -128
-12 -205 0 -162 20 -283 63 -392 16 -40 28 -79 26 -85 -1 -7 -1 -9 2 -5 2 5
12 -4 22 -20 12 -19 14 -30 6 -35 -7 -5 -5 -8 5 -8 9 0 31 -23 49 -51 45 -69
146 -168 223 -218 34 -22 70 -47 80 -55 9 -9 20 -16 25 -16 19 0 42 -12 37
-20 -3 -4 5 -8 18 -8 12 1 49 -9 82 -22 33 -12 92 -30 130 -40 39 -10 62 -19
53 -19 -10 -1 -18 -8 -18 -17 0 -8 4 -13 9 -9 6 3 14 -2 19 -11 8 -15 10 -15
15 0 5 12 3 15 -6 10 -7 -5 -6 0 3 10 24 30 24 0 0 -67 -12 -34 -29 -76 -37
-94 l-15 -32 -63 31 c-35 18 -61 36 -58 41 3 6 1 7 -5 3 -6 -4 -39 5 -74 20
-75 32 -174 64 -197 64 -12 0 -13 2 -3 9 9 6 5 8 -15 8 -15 0 -83 6 -151 14
-180 19 -324 -7 -427 -77 -20 -13 -42 -21 -48 -18 -7 4 -9 3 -4 -1 4 -5 -10
-27 -32 -49 -22 -23 -54 -66 -71 -96 -18 -30 -29 -44 -26 -32 2 13 2 21 -2 17
-4 -4 -8 -21 -8 -38 -1 -18 -7 -61 -14 -96 -22 -113 15 -256 92 -354 18 -23
27 -37 19 -33 -9 6 -12 5 -9 -5 3 -8 11 -13 17 -11 6 1 35 -16 64 -38 193
-145 466 -159 697 -36 148 79 253 193 355 384 22 39 42 72 46 72 3 0 69 -32
145 -72 112 -58 134 -73 118 -80 -15 -6 -12 -7 10 -4 19 2 57 -9 110 -34 160
-74 418 -166 521 -186 37 -7 38 -8 15 -16 -19 -6 -17 -6 11 -3 49 7 184 -20
217 -43 50 -35 146 -86 242 -129 52 -24 87 -43 78 -43 -25 0 -23 -15 2 -17 11
-1 20 2 20 6 0 4 48 -4 108 -20 245 -63 468 -62 684 3 37 11 73 16 79 12 7 -4
9 -3 6 3 -4 6 24 24 62 41 181 80 344 199 578 424 95 92 190 175 218 190 77
41 155 50 391 44 115 -2 210 -5 212 -5 1 -1 2 -15 2 -31 0 -17 9 -48 20 -69
10 -21 17 -41 15 -45 -3 -3 -2 -4 1 -2 3 2 21 -13 41 -35 19 -21 60 -51 91
-66 l57 -27 257 1 c229 0 261 2 285 18 22 15 47 18 145 17 98 -1 128 2 175 19
64 25 124 75 158 133 48 83 50 248 4 342 -13 27 -22 53 -21 57 1 5 -2 6 -6 3
-5 -3 -18 4 -28 15 -11 12 -41 33 -69 47 -48 25 -58 26 -205 27 -86 0 -162 4
-170 10 -9 6 -112 9 -269 7 -228 -2 -258 -4 -298 -22 -25 -11 -50 -17 -57 -13
-6 3 -8 3 -4 -1 3 -4 -11 -23 -33 -43 -48 -44 -75 -87 -84 -135 l-7 -38 -212
-2 c-116 -1 -246 -1 -288 0 -45 1 -78 -3 -78 -8 0 -6 6 -10 13 -10 6 -1 -9 -9
-35 -19 -26 -10 -63 -28 -82 -40 -20 -13 -41 -19 -47 -15 -7 4 -9 3 -6 -3 4
-6 -13 -25 -36 -44 -23 -19 -95 -86 -161 -149 -65 -63 -123 -114 -128 -112 -5
1 -7 -2 -3 -7 8 -13 -94 -93 -107 -84 -6 3 -8 2 -5 -4 3 -5 -17 -27 -45 -49
-33 -25 -53 -34 -56 -26 -2 6 -8 12 -14 12 -7 0 -6 -5 1 -14 16 -19 -4 -32
-24 -16 -9 8 -15 8 -20 0 -4 -6 -3 -9 2 -8 4 2 9 -1 10 -7 2 -13 -95 -65 -193
-103 -153 -59 -342 -83 -502 -63 -107 13 -193 32 -188 40 2 3 -8 6 -22 7 -15
1 -76 21 -137 45 l-109 43 39 9 c22 4 75 17 118 28 43 11 83 17 89 13 6 -4 8
-3 5 3 -4 6 12 15 34 22 60 18 176 73 273 131 47 28 91 48 96 45 6 -4 9 -2 8
3 -2 5 40 42 92 82 52 40 116 93 143 117 26 24 52 41 57 38 6 -4 9 -2 8 3 -2
5 23 36 54 70 31 34 87 98 124 142 63 75 76 85 193 147 282 149 456 274 678
487 l73 69 127 3 c79 1 151 8 186 18 32 9 64 13 70 9 7 -3 9 -3 5 2 -4 4 21
21 55 37 133 63 243 175 316 320 22 45 42 73 45 66 3 -7 3 -3 0 10 -3 12 1 44
10 70 26 81 36 163 36 297 1 245 -62 470 -186 667 -14 21 -22 44 -18 50 4 6 3
8 -3 5 -6 -4 -31 20 -57 52 -62 79 -177 190 -267 258 -41 31 -74 59 -74 64 0
4 -4 11 -9 16 -5 5 -6 3 -2 -4 11 -19 3 -16 -69 23 -36 20 -63 40 -59 45 3 5
-3 6 -12 2 -12 -4 -15 -3 -10 5 5 8 0 12 -13 12 -26 0 -101 29 -122 47 -9 7
-22 32 -28 56 -25 83 -104 244 -169 342 -77 118 -230 275 -344 354 -43 30 -74
59 -71 64 3 6 1 7 -5 3 -10 -6 -169 66 -182 83 -3 3 -9 6 -15 6 -5 1 -53 15
-105 32 -52 17 -131 38 -175 46 -106 20 -300 28 -404 16z m460 -187 c126 -34
229 -75 242 -97 4 -8 13 -12 20 -9 15 6 143 -71 140 -84 -1 -5 5 -9 15 -8 9 0
16 -5 14 -12 -1 -8 2 -11 7 -8 13 8 132 -94 124 -107 -3 -6 -1 -7 4 -4 6 4 31
-17 55 -46 58 -69 106 -133 93 -125 -6 4 -11 -2 -11 -12 0 -14 4 -16 13 -9 14
12 51 -41 95 -140 30 -65 30 -83 0 -65 -9 6 -52 21 -94 34 -46 13 -75 27 -71
33 3 6 1 7 -4 4 -17 -11 -127 14 -111 25 9 7 5 8 -12 5 -26 -6 -185 25 -176
33 2 3 -12 6 -32 6 -20 1 -107 5 -192 9 -240 12 -401 -20 -615 -119 -49 -24
-109 -55 -133 -70 -23 -15 -47 -24 -53 -21 -5 4 -8 1 -7 -7 2 -7 -5 -12 -14
-12 -10 1 -16 -2 -13 -6 3 -4 -9 -17 -27 -28 -24 -15 -37 -18 -50 -11 -10 6
-15 15 -12 21 4 7 3 8 -4 4 -6 -4 -21 -2 -32 4 -18 10 -19 14 -8 28 12 15 11
16 -4 3 -15 -11 -28 -8 -95 29 -43 24 -81 47 -84 52 -3 5 -9 9 -13 7 -16 -5
-155 64 -149 74 4 6 1 7 -6 3 -15 -9 -133 33 -126 44 3 5 0 12 -6 16 -8 4 -9
3 -5 -4 10 -17 -16 -15 -39 2 -18 13 -18 15 8 49 49 64 186 204 256 261 95 78
203 147 219 141 7 -2 11 -1 8 4 -7 10 125 71 214 100 125 40 215 51 390 47
145 -3 179 -7 281 -34z m-1762 -613 c25 -5 63 -14 84 -20 l37 -10 -15 -30 c-9
-16 -20 -27 -24 -24 -5 2 -8 -1 -7 -8 0 -6 -41 -96 -92 -199 l-92 -187 -48 -6
c-208 -25 -354 -65 -484 -132 -40 -21 -79 -37 -86 -36 -7 0 -11 -1 -8 -4 3 -3
-27 -28 -67 -56 -39 -27 -93 -67 -118 -88 -25 -21 -49 -35 -53 -31 -4 4 -6 2
-4 -4 2 -6 -32 -47 -74 -92 -88 -92 -88 -92 -94 31 -2 44 -6 82 -8 86 -2 3 0
42 5 85 42 379 381 692 799 740 56 7 299 -4 349 -15z m328 -95 c23 -9 41 -19
39 -23 -2 -3 8 -7 22 -7 44 -2 266 -105 250 -116 -9 -7 -8 -8 5 -4 22 7 88
-24 80 -37 -3 -6 -1 -7 5 -3 15 9 55 -18 44 -29 -4 -5 -2 -5 5 -1 11 6 83 -22
83 -33 0 -3 -55 -63 -123 -133 -114 -118 -124 -126 -147 -116 -56 22 -274 77
-330 84 -33 4 -60 11 -60 15 0 5 -10 7 -22 4 -13 -2 -47 -1 -76 3 l-53 7 73
145 c74 147 142 260 155 260 4 0 27 -7 50 -16z m1494 -26 c0 -7 3 -8 5 -3 15
36 568 -63 560 -99 -2 -6 -1 -8 1 -3 3 4 14 7 24 7 11 0 18 -4 14 -9 -3 -5 0
-13 6 -17 8 -4 9 -3 5 4 -10 17 1 15 73 -9 46 -16 60 -24 50 -31 -11 -8 -10
-9 3 -4 26 8 78 -13 78 -32 0 -13 2 -14 9 -4 11 19 18 -9 32 -137 12 -105 2
-279 -21 -348 -5 -15 -14 -47 -20 -71 l-11 -42 -67 6 c-37 4 -68 10 -69 13 -4
9 -103 5 -208 -8 -116 -15 -225 -41 -348 -84 -66 -23 -96 -30 -93 -21 3 8 1
13 -4 11 -5 -1 -36 32 -70 73 -141 173 -368 388 -556 527 -45 33 -79 64 -75
69 10 14 81 59 147 92 131 66 283 109 429 121 50 5 93 9 98 10 4 0 7 -5 8 -11z
m1215 -384 c38 -26 96 -70 128 -98 77 -67 188 -196 182 -213 -3 -7 0 -12 7
-10 7 1 11 -6 11 -15 -1 -10 2 -15 7 -13 4 3 22 -18 38 -47 22 -38 27 -54 18
-60 -11 -7 -3 -12 15 -9 4 0 21 -36 38 -81 69 -180 88 -404 51 -593 -21 -103
-72 -227 -92 -223 -6 2 -14 -4 -16 -12 -4 -13 -3 -13 6 0 6 8 11 11 11 7 0
-18 -55 -83 -104 -125 -63 -53 -149 -96 -193 -96 -18 0 -28 -3 -21 -7 6 -4
-15 -10 -48 -14 -32 -4 -69 -8 -80 -10 -18 -3 -12 10 37 78 32 45 72 114 88
152 82 196 80 432 -4 609 -13 27 -21 54 -18 59 4 6 1 7 -7 2 -10 -6 -12 -4 -7
9 4 10 3 15 -3 11 -5 -3 -13 3 -19 13 -18 33 -120 125 -188 170 -38 25 -60 42
-50 39 9 -4 17 -1 17 4 0 7 -11 9 -24 7 -42 -8 -45 3 -20 98 30 121 44 256 39
382 l-5 102 68 -34 c38 -19 100 -56 138 -82z m-2010 36 c3 -23 5 -24 12 -13 6
10 17 7 43 -13 19 -14 33 -31 31 -37 -2 -7 0 -9 4 -4 10 10 43 -13 147 -101
139 -118 257 -233 250 -245 -3 -5 -2 -7 4 -4 5 3 26 -11 45 -31 49 -51 138
-162 138 -170 0 -4 -28 -20 -62 -35 l-61 -27 -56 42 c-31 24 -111 79 -178 124
-68 45 -119 85 -115 89 4 5 2 5 -5 2 -6 -4 -37 8 -70 26 -32 18 -88 48 -125
67 -36 19 -64 38 -62 42 2 3 -1 10 -7 14 -8 4 -9 3 -5 -4 10 -17 9 -17 -97 31
l-96 44 94 94 c52 52 99 94 104 94 5 0 13 4 18 9 5 5 2 6 -7 2 -8 -4 -4 2 9
14 23 20 44 16 47 -10z m-766 -201 c73 -12 125 -27 142 -39 15 -11 31 -20 35
-20 4 0 1 5 -7 10 -24 15 5 12 46 -5 l35 -14 -57 -76 c-31 -41 -61 -72 -66
-68 -6 3 -8 0 -6 -8 3 -8 -11 -36 -30 -64 -20 -27 -54 -77 -76 -110 -22 -33
-42 -62 -45 -65 -11 -9 -176 -290 -242 -412 -35 -64 -67 -114 -71 -112 -4 3
-5 -2 -2 -10 5 -13 -4 -16 -55 -16 l-61 0 0 113 c0 268 76 643 185 910 7 16
16 18 84 12 42 -3 128 -15 191 -26z m-440 12 c0 -5 -16 -60 -36 -123 -80 -253
-128 -531 -133 -773 -1 -55 -4 -102 -7 -104 -17 -17 -350 101 -338 120 3 5 -1
6 -9 3 -43 -16 -282 197 -340 305 l-29 52 39 47 c110 135 348 338 383 327 10
-3 21 -1 25 4 4 7 -1 8 -12 5 -15 -5 -16 -4 -3 5 54 41 216 105 320 126 78 16
140 18 140 6z m1001 -208 c92 -44 135 -69 127 -75 -9 -5 -4 -7 12 -6 29 2 163
-69 155 -83 -4 -5 0 -6 7 -4 13 5 137 -70 248 -149 50 -36 53 -39 35 -53 -11
-7 -26 -11 -34 -8 -9 3 -12 3 -8 -1 10 -10 -91 -54 -111 -48 -11 4 -13 3 -5
-3 16 -11 -321 -156 -364 -157 -18 0 -28 -3 -22 -6 5 -4 -16 -16 -48 -28 -251
-90 -473 -147 -681 -176 l-43 -6 16 30 c8 16 21 30 27 30 6 0 9 3 5 6 -10 11
53 125 65 118 7 -4 8 -3 4 4 -9 14 19 63 153 267 128 196 291 415 309 415 7 0
76 -30 153 -67z m1736 -207 c6 -5 -49 -104 -110 -196 -92 -138 -275 -357 -287
-343 -4 4 -17 35 -30 68 -37 95 -98 224 -135 285 -19 31 -33 65 -31 76 2 10 1
13 -1 6 -6 -15 -23 -6 -23 13 0 17 163 72 268 91 70 12 337 13 349 0z m312
-132 c53 -46 124 -152 117 -176 -2 -10 -1 -16 4 -13 17 10 35 -93 34 -195 0
-115 -16 -186 -64 -280 -40 -79 -130 -197 -162 -212 -15 -7 -24 -16 -22 -20 3
-5 -16 0 -43 11 -84 33 -103 44 -96 54 3 6 1 7 -5 3 -16 -10 -85 28 -172 94
-110 84 -181 150 -173 162 3 6 1 8 -4 5 -6 -4 -16 0 -23 8 -10 12 5 32 81 117
99 111 210 255 273 356 21 34 43 59 49 55 6 -3 7 -1 3 5 -3 6 6 35 21 66 l26
55 56 -29 c31 -15 76 -45 100 -66z m-1015 -104 c53 -99 88 -171 110 -226 14
-34 14 -36 1 -19 -42 55 -114 138 -233 267 l-34 36 43 20 44 20 22 -27 c13
-14 34 -46 47 -71z m-2998 -47 c4 -10 8 -25 8 -33 1 -8 8 -15 16 -15 8 0 14
-9 14 -18 -1 -10 1 -16 4 -12 9 9 82 -67 75 -78 -3 -6 -2 -8 3 -4 12 7 115
-78 106 -88 -4 -5 -2 -5 4 -2 5 3 23 -3 40 -14 16 -11 74 -42 129 -69 55 -27
109 -57 119 -67 11 -10 15 -12 11 -4 -6 11 -4 13 11 6 10 -4 45 -14 76 -22 35
-9 55 -20 51 -26 -4 -6 -1 -7 6 -2 14 8 131 -13 131 -24 0 -3 7 -50 15 -105 8
-54 13 -102 10 -106 -3 -5 0 -10 7 -12 21 -7 12 -71 -19 -138 -16 -36 -40 -91
-53 -123 -16 -42 -25 -55 -32 -45 -6 9 -7 6 -3 -8 3 -14 -18 -80 -58 -183 -36
-89 -67 -164 -70 -167 -8 -8 -117 18 -112 27 3 4 -3 5 -13 2 -23 -6 -194 56
-186 68 3 5 -3 6 -12 2 -11 -4 -15 -3 -11 4 4 7 0 10 -10 7 -22 -5 -159 89
-155 106 1 6 -2 9 -7 6 -14 -9 -116 107 -155 177 -51 91 -76 160 -97 270 -43
223 -7 459 99 645 20 34 39 62 43 62 4 0 10 -8 15 -17z m2773 -47 c37 -37 60
-69 56 -75 -3 -6 -3 -11 2 -10 21 4 24 -2 12 -18 -12 -16 -12 -17 2 -5 14 11
25 3 79 -57 37 -43 59 -75 54 -82 -4 -7 -3 -9 3 -6 13 8 85 -77 75 -88 -4 -5
-2 -5 5 -1 7 3 21 -7 33 -25 l22 -30 -27 -29 c-16 -16 -33 -27 -38 -23 -6 3
-7 1 -3 -5 7 -11 -107 -111 -236 -206 -77 -56 -101 -69 -78 -41 9 10 9 15 1
15 -6 0 -12 -4 -12 -10 -1 -5 -2 -14 -3 -20 -2 -16 -75 -61 -88 -54 -6 4 -8 3
-4 -4 25 -41 -763 -418 -836 -399 -10 3 -16 2 -13 -3 6 -9 -214 -72 -259 -74
-17 0 -34 -5 -37 -10 -24 -32 -340 282 -324 322 2 7 1 10 -5 7 -11 -7 -42 49
-32 60 4 5 2 5 -5 2 -7 -5 -27 24 -55 78 l-43 85 70 137 c68 135 71 138 103
138 17 0 32 3 32 6 0 3 30 9 68 13 37 4 129 21 206 38 115 25 140 28 148 17 8
-11 9 -11 5 2 -4 13 9 20 61 34 181 48 485 162 724 270 66 30 125 52 131 48 6
-3 7 -1 3 5 -7 12 56 36 96 35 15 0 25 3 22 8 -2 4 -12 6 -22 3 -14 -5 -15 -4
-2 5 28 20 45 11 109 -53z m438 -546 c-3 -11 -2 -20 3 -20 15 0 17 -174 3
-294 -16 -144 -60 -281 -129 -401 -55 -96 -68 -111 -97 -118 -12 -3 -62 -17
-112 -32 -273 -82 -574 -103 -855 -60 -111 16 -268 56 -325 81 l-40 17 30 8
c261 63 653 228 908 383 66 40 114 63 125 60 13 -5 14 -4 3 4 -11 8 -10 12 6
21 11 5 24 7 29 3 5 -4 6 -3 2 2 -4 5 25 31 65 59 93 65 292 225 337 271 40
40 55 45 47 16z m187 -32 c-3 -4 0 -7 8 -6 7 2 12 -2 11 -8 -1 -6 3 -11 10
-11 7 0 50 -27 97 -60 79 -57 215 -132 268 -148 12 -3 22 -10 22 -13 0 -25
-225 -216 -242 -206 -6 4 -8 3 -5 -4 4 -5 -23 -32 -60 -60 -100 -73 -243 -164
-243 -153 0 5 15 49 34 98 59 156 71 226 71 430 0 171 1 181 17 166 10 -9 15
-20 12 -25z m-2428 -376 c-3 -5 0 -14 6 -22 8 -12 8 -11 3 5 -8 26 1 16 60
-70 60 -86 81 -113 157 -193 33 -35 57 -66 54 -69 -24 -24 -475 -40 -483 -17
-3 8 83 234 153 402 l18 44 18 -36 c10 -20 17 -40 14 -44z m556 -522 c81 -42
281 -113 356 -125 26 -4 40 -11 35 -17 -3 -7 -1 -8 6 -4 6 4 69 0 139 -9 130
-17 526 -19 515 -2 -2 4 7 7 21 7 30 0 223 37 240 46 6 4 -29 -34 -79 -85 -79
-81 -120 -113 -99 -79 4 7 3 8 -5 4 -6 -4 -9 -11 -6 -16 8 -14 -54 -60 -73
-54 -13 4 -14 3 -4 -4 25 -17 -272 -203 -299 -186 -7 4 -10 3 -6 -3 10 -15
-122 -71 -233 -99 -182 -47 -348 -52 -520 -17 -139 28 -377 112 -363 128 5 4
3 5 -3 2 -15 -9 -52 7 -237 95 -102 50 -143 74 -135 81 9 6 8 7 -4 4 -22 -7
-130 51 -122 65 4 7 2 8 -4 4 -7 -4 -18 -3 -26 1 -12 7 -5 31 35 133 l50 125
222 2 c170 1 249 6 337 21 165 28 173 28 262 -18z m3549 -89 c23 -19 24 -23
24 -176 0 -200 3 -196 -159 -194 -66 0 -117 6 -125 13 -12 8 -13 8 -7 -1 11
-20 -143 -17 -194 3 -63 25 -80 63 -80 178 0 62 4 95 10 91 6 -3 7 1 4 10 -7
18 18 50 61 76 27 17 53 19 236 19 189 0 209 -2 230 -19z m386 -28 c36 -26 55
-91 47 -162 -12 -111 -52 -143 -174 -139 l-80 2 0 163 0 163 90 -3 c72 -3 96
-7 117 -24z m-5585 -29 c37 -4 65 -10 63 -14 -3 -5 4 -6 15 -3 38 10 190 -39
345 -113 130 -61 123 -51 80 -130 -124 -224 -261 -341 -447 -380 -48 -11 -97
-14 -143 -10 -77 6 -168 33 -159 47 3 5 -1 6 -8 4 -19 -7 -100 48 -131 88 -38
51 -59 98 -54 123 2 13 0 21 -4 18 -10 -6 -14 31 -10 86 9 139 107 241 264
275 73 16 99 17 189 9z"/>
</g>
</svg>
