<?xml version="1.0" standalone="no"?>
<!DOCTYPE svg PUBLIC "-//W3C//DTD SVG 20010904//EN"
 "http://www.w3.org/TR/2001/REC-SVG-20010904/DTD/svg10.dtd">
<svg version="1.0" xmlns="http://www.w3.org/2000/svg"
 width="1024.000000pt" height="1024.000000pt" viewBox="0 0 1024.000000 1024.000000"
 preserveAspectRatio="xMidYMid meet">
<metadata>
Created by potrace 1.16, written by Peter Selinger 2001-2019
</metadata>
<g transform="translate(0.000000,1024.000000) scale(0.100000,-0.100000)"
fill="#000000" stroke="none">
<path d="M5099 8506 c-2 -2 -50 -7 -107 -10 -57 -3 -106 -8 -111 -10 -4 -3
-34 -7 -67 -10 -32 -3 -88 -13 -124 -21 -36 -9 -74 -18 -85 -19 -11 -2 -33 -8
-48 -15 -16 -6 -33 -9 -38 -5 -5 3 -9 1 -9 -3 0 -7 -57 -29 -100 -39 -3 0 -18
-6 -35 -13 -16 -7 -34 -14 -40 -15 -5 -1 -20 -7 -31 -14 -12 -6 -24 -8 -28 -5
-3 3 -6 1 -6 -5 0 -7 -9 -12 -20 -12 -11 0 -20 -5 -20 -12 0 -6 -3 -9 -6 -5
-7 7 -81 -29 -102 -49 -7 -8 -20 -14 -28 -14 -8 0 -14 -5 -14 -11 0 -5 -4 -8
-9 -5 -5 4 -11 3 -13 -1 -5 -12 -88 -64 -88 -56 0 4 -6 0 -12 -9 -15 -18 -170
-132 -180 -133 -4 0 -13 -7 -20 -16 -23 -28 -152 -144 -143 -129 5 8 -15 -9
-44 -38 -28 -28 -52 -55 -52 -59 0 -4 -19 -28 -43 -53 -24 -25 -69 -78 -101
-117 -31 -40 -61 -73 -66 -73 -5 0 -8 -4 -7 -9 4 -12 -61 -101 -73 -101 -6 0
-7 -5 -4 -10 3 -6 -1 -13 -9 -16 -9 -3 -13 -10 -10 -15 3 -5 -2 -12 -10 -15
-9 -3 -13 -10 -10 -15 3 -5 -2 -12 -10 -15 -9 -3 -14 -9 -12 -13 4 -6 -27 -59
-71 -121 -10 -14 -17 -29 -15 -34 2 -5 -5 -6 -14 -2 -14 5 -15 4 -4 -9 8 -10
9 -15 1 -15 -6 0 -10 -3 -9 -7 2 -12 -84 -188 -94 -191 -4 -2 -6 -8 -2 -13 3
-5 0 -9 -7 -9 -7 0 -9 -3 -6 -6 9 -9 -12 -46 -22 -40 -5 3 -7 -6 -5 -19 1 -14
-1 -25 -5 -25 -4 0 -7 -8 -8 -17 -1 -10 -12 -40 -24 -68 -12 -27 -24 -58 -26
-68 -1 -10 -10 -28 -18 -41 -8 -12 -17 -37 -19 -54 -2 -18 -10 -39 -17 -48 -8
-10 -13 -19 -11 -21 3 -4 1 -13 -12 -75 -5 -21 -12 -38 -17 -38 -5 0 -6 -7 -3
-15 4 -8 2 -15 -2 -15 -5 0 -10 -17 -12 -37 -1 -20 -8 -40 -14 -44 -7 -5 -9
-11 -6 -15 4 -3 1 -22 -7 -41 -8 -19 -14 -40 -12 -46 1 -7 -4 -11 -11 -9 -10
2 -10 -2 -2 -18 8 -16 8 -25 0 -35 -7 -8 -9 -19 -6 -24 4 -5 1 -13 -5 -16 -5
-4 -8 -14 -5 -22 3 -8 3 -20 -1 -26 -4 -6 -8 -20 -9 -31 -2 -12 -6 -37 -9 -56
-3 -19 -6 -50 -6 -67 1 -18 -4 -33 -9 -33 -6 0 -10 -12 -10 -27 1 -16 -2 -50
-5 -78 -13 -118 -16 -152 -15 -180 1 -52 -11 -116 -21 -110 -5 4 -4 -6 2 -22
6 -17 10 -119 10 -263 -1 -232 3 -358 13 -409 3 -14 8 -57 12 -96 3 -38 8 -83
10 -100 2 -16 6 -52 8 -78 3 -26 8 -58 12 -70 4 -12 9 -31 10 -42 2 -11 5 -29
7 -40 3 -11 -2 -27 -10 -37 -10 -11 -11 -18 -4 -23 6 -3 11 1 11 10 0 9 4 14
9 10 6 -3 10 -13 10 -23 0 -42 14 -108 24 -114 6 -4 8 -10 4 -14 -4 -4 -2 -13
3 -20 6 -6 10 -16 9 -20 -1 -5 3 -22 10 -38 6 -16 13 -40 14 -55 2 -15 7 -33
11 -40 4 -7 5 -15 2 -18 -3 -3 -1 -12 5 -20 6 -7 8 -13 4 -13 -4 0 -2 -7 5
-15 10 -12 10 -18 0 -30 -11 -13 -10 -14 5 -8 14 5 17 3 12 -10 -3 -9 -2 -19
2 -21 7 -5 14 -26 27 -87 2 -9 8 -29 14 -45 6 -16 11 -31 10 -33 -1 -2 2 -7 7
-10 14 -9 43 -88 36 -95 -4 -3 -1 -6 6 -6 8 0 11 -7 7 -15 -3 -8 -2 -15 2 -15
15 0 30 -58 18 -70 -8 -8 -6 -9 8 -4 13 5 17 4 13 -3 -4 -6 -1 -16 7 -22 14
-11 31 -58 28 -73 -1 -5 3 -8 9 -8 5 0 7 -4 4 -10 -3 -5 -1 -10 5 -10 6 0 8
-5 4 -11 -5 -8 -10 -6 -16 5 -5 9 -14 16 -20 16 -6 0 -3 -9 6 -19 10 -11 25
-17 34 -14 9 4 13 2 8 -5 -3 -6 -2 -13 4 -17 15 -9 50 -82 43 -89 -4 -3 -1 -6
6 -6 7 0 9 -4 6 -10 -3 -5 -1 -10 4 -10 6 0 11 -7 11 -15 0 -8 5 -15 12 -15 6
0 8 -3 5 -7 -4 -3 0 -15 10 -25 9 -10 13 -18 9 -18 -4 0 2 -10 13 -22 11 -11
18 -24 16 -28 -3 -5 2 -11 11 -14 9 -4 14 -9 11 -12 -3 -4 2 -15 12 -26 10
-10 27 -35 37 -55 11 -20 27 -45 37 -55 9 -10 17 -22 17 -27 0 -5 16 -26 35
-47 19 -20 33 -40 30 -42 -3 -3 4 -11 15 -19 11 -8 20 -18 20 -24 0 -5 15 -23
33 -40 17 -17 25 -28 17 -24 -8 4 2 -8 22 -25 21 -18 35 -37 31 -43 -3 -6 -1
-7 5 -3 16 9 43 -35 37 -62 -2 -13 0 -20 6 -17 5 4 6 12 2 18 -4 7 1 6 11 -2
13 -11 14 -16 4 -23 -9 -6 -5 -7 10 -3 13 4 22 2 22 -5 0 -6 4 -9 9 -6 5 3 32
-19 59 -49 28 -30 55 -55 60 -55 15 0 44 -38 37 -49 -3 -7 0 -8 9 -5 8 3 24
-4 35 -15 12 -12 24 -21 29 -21 4 0 22 -13 40 -29 17 -17 32 -27 32 -23 0 4 7
-2 15 -12 8 -11 15 -16 15 -10 0 5 6 2 13 -6 7 -8 33 -26 60 -40 26 -13 47
-28 47 -33 0 -4 3 -6 8 -3 11 7 45 -21 38 -33 -4 -5 -1 -13 5 -17 7 -4 9 -3 5
4 -3 6 -2 13 4 17 5 3 10 2 10 -2 0 -5 22 -17 50 -28 27 -11 50 -23 50 -28 0
-5 -7 -7 -15 -3 -20 7 -19 4 7 -18 17 -15 20 -15 15 -3 -3 9 -2 19 3 22 6 4
10 -2 10 -12 0 -15 2 -16 10 -3 6 9 10 11 10 3 0 -7 7 -10 15 -7 8 4 15 1 15
-6 0 -6 5 -8 10 -5 6 3 10 1 10 -4 0 -6 3 -10 8 -9 16 4 72 -14 72 -23 0 -6 4
-8 9 -4 5 3 12 1 16 -5 4 -6 10 -8 15 -5 5 3 11 1 15 -5 3 -5 1 -10 -5 -10 -6
0 -8 -5 -5 -11 5 -7 11 -5 18 5 11 13 23 12 102 -10 130 -37 122 -33 105 -44
-8 -6 -10 -10 -5 -10 6 0 16 5 22 11 7 7 20 8 30 4 17 -7 17 -8 -2 -15 -16 -7
-17 -9 -3 -9 9 -1 20 4 23 9 7 11 82 6 115 -7 26 -10 89 -13 295 -16 110 -1
205 1 211 6 6 4 27 7 45 7 43 0 89 6 109 14 8 3 33 7 56 9 23 2 45 6 50 9 9 6
66 19 94 23 8 1 28 7 43 14 16 6 33 9 38 5 5 -3 9 0 9 6 0 7 7 10 15 6 8 -3
15 -1 15 5 0 6 7 9 15 5 8 -3 15 -2 15 2 0 9 109 47 123 44 4 -1 7 2 7 6 0 8
74 39 76 31 0 -2 8 4 18 14 10 9 22 15 27 12 5 -4 9 -2 9 3 0 7 54 38 73 40 4
1 17 11 29 22 13 12 33 23 45 26 13 4 23 10 23 16 0 5 4 7 9 4 5 -3 12 1 15
10 4 9 9 14 12 11 3 -3 13 2 23 11 23 22 114 86 123 87 4 0 15 10 23 23 9 12
21 22 27 22 5 0 19 11 30 25 11 14 24 25 28 25 5 0 54 45 108 100 54 54 94 97
88 94 -6 -3 6 11 28 30 21 20 42 33 46 31 5 -3 6 3 3 14 -3 12 6 27 29 46 18
15 26 24 18 19 -8 -4 -3 6 11 22 48 55 148 201 199 292 13 23 28 42 34 42 5 0
6 3 3 6 -8 8 24 64 36 64 4 0 5 5 2 10 -3 6 -1 10 4 10 6 0 10 3 9 8 -4 10 74
166 84 170 4 2 6 8 2 13 -3 5 0 9 5 9 6 0 10 3 9 8 -3 11 13 55 25 70 6 8 12
23 14 34 2 10 10 32 18 48 9 17 14 31 13 33 -2 2 3 11 10 20 7 8 15 27 18 41
2 14 9 38 16 53 6 16 10 32 9 37 -1 5 6 6 15 2 14 -5 15 -4 5 8 -9 10 -9 20 0
42 15 35 14 32 24 69 4 17 11 35 16 40 4 6 10 22 13 35 3 14 12 46 20 73 8 26
13 47 10 47 -3 0 0 8 5 18 8 15 14 44 27 127 3 17 8 37 11 45 3 8 5 23 4 33
-1 9 3 17 9 17 7 0 9 7 6 16 -4 9 -2 22 2 28 9 11 11 23 13 78 0 15 4 30 9 33
5 3 7 12 4 20 -3 8 -2 20 2 27 5 7 10 29 11 48 1 19 10 94 19 165 14 105 17
209 16 535 -1 400 -3 466 -15 505 -4 11 -8 48 -11 82 -3 35 -7 66 -10 71 -4 7
-11 56 -18 127 -1 6 2 21 6 35 6 19 5 21 -3 10 -9 -13 -11 -12 -12 5 -1 11 -1
23 0 28 0 4 -4 7 -10 7 -6 0 -9 9 -6 20 3 11 1 22 -3 25 -5 3 -9 13 -9 23 -1
29 -7 57 -15 70 -4 6 -5 16 -1 21 3 5 1 12 -5 16 -6 4 -8 11 -4 16 3 5 0 16
-6 24 -7 8 -9 15 -5 15 4 0 2 6 -4 14 -6 8 -11 18 -10 22 1 5 -3 23 -10 39 -7
17 -14 41 -16 55 -2 14 -4 26 -6 28 -1 1 -2 5 -4 10 -1 4 -5 16 -10 27 -32 78
-44 118 -40 126 4 5 2 9 -4 9 -9 0 -25 51 -21 66 1 4 -3 10 -9 13 -6 4 -12 16
-14 26 -2 11 -11 36 -19 55 -19 44 -25 63 -26 74 0 5 -4 12 -9 15 -11 8 -117
224 -115 234 1 4 -3 7 -9 7 -8 0 -7 5 1 15 11 13 10 14 -2 10 -14 -5 -44 39
-40 58 1 4 -2 7 -8 7 -5 0 -10 6 -10 14 0 8 -3 16 -7 18 -10 4 -85 118 -78
118 3 0 -3 10 -15 22 -11 12 -20 25 -20 28 0 4 -9 17 -20 30 -12 13 -19 29
-16 36 2 6 -1 11 -7 10 -7 0 -14 3 -17 8 -3 5 -22 27 -42 50 -21 22 -36 42
-34 43 2 2 -27 35 -63 74 -36 39 -66 75 -66 79 0 3 -31 36 -70 71 -38 35 -90
83 -114 107 -24 23 -48 42 -52 42 -5 0 -14 9 -21 20 -7 11 -19 20 -26 20 -7 0
-15 7 -18 15 -4 8 -10 13 -14 10 -5 -3 -15 4 -23 15 -7 11 -17 17 -20 14 -4
-4 -9 1 -13 10 -3 9 -13 16 -20 16 -8 0 -17 7 -20 15 -4 8 -10 13 -14 10 -5
-3 -13 2 -18 11 -5 9 -11 14 -13 12 -5 -4 -173 94 -177 104 -2 5 -8 6 -13 2
-5 -3 -9 0 -9 6 0 6 -4 8 -10 5 -5 -3 -10 -1 -10 6 0 7 -3 10 -6 6 -3 -3 -21
3 -40 14 -19 10 -41 19 -49 19 -8 0 -15 5 -15 11 0 5 -4 7 -10 4 -5 -3 -10 -2
-10 2 0 5 -10 9 -22 10 -11 1 -24 7 -28 13 -4 7 -11 11 -16 11 -21 -2 -124 32
-124 41 0 5 -4 7 -9 3 -5 -3 -12 -1 -16 4 -3 6 -12 8 -19 5 -8 -3 -17 -1 -20
5 -4 6 -13 8 -21 4 -8 -3 -15 0 -15 7 0 7 -7 10 -16 6 -9 -3 -21 -3 -26 0 -6
4 -29 9 -51 11 -21 2 -44 6 -50 10 -9 6 -24 8 -87 14 -8 0 -55 5 -105 10 -154
15 -212 19 -216 15z m-29 -172 c0 -7 -7 -14 -15 -18 -8 -3 -15 -11 -15 -19 0
-7 -16 -30 -35 -51 -19 -21 -35 -42 -35 -46 0 -3 -18 -27 -41 -51 -22 -24 -40
-45 -39 -47 2 -6 -53 -72 -61 -72 -5 0 -9 10 -9 23 0 17 -2 19 -10 7 -6 -10
-4 -20 6 -31 13 -14 13 -18 0 -28 -8 -7 -20 -10 -25 -6 -7 3 -8 0 -5 -10 8
-20 -15 -48 -34 -40 -12 4 -12 3 -3 -9 7 -8 8 -16 4 -18 -5 -1 -26 -27 -47
-55 -21 -29 -42 -53 -47 -53 -5 0 -9 -6 -9 -14 0 -7 -12 -26 -27 -42 -15 -16
-26 -33 -25 -37 1 -4 -5 -10 -13 -13 -8 -4 -15 -12 -15 -20 0 -7 -8 -17 -17
-23 -10 -5 -17 -12 -15 -15 4 -9 -80 -126 -90 -126 -4 0 -8 -7 -8 -15 0 -9 -7
-18 -15 -21 -8 -4 -12 -10 -9 -15 3 -5 -2 -12 -10 -15 -9 -3 -16 -10 -16 -15
0 -15 -72 -119 -82 -119 -5 0 -7 -4 -3 -9 3 -6 -2 -14 -11 -19 -9 -5 -16 -13
-16 -18 -1 -5 -6 -16 -11 -25 -10 -15 -15 -15 -64 2 -29 10 -53 16 -53 13 0
-3 -6 -2 -12 3 -7 4 -17 8 -23 8 -42 5 -95 19 -95 27 0 5 -5 6 -10 3 -6 -4
-17 -1 -25 5 -8 6 -19 9 -24 6 -5 -4 -12 -2 -16 4 -4 6 -10 8 -13 6 -4 -2 -43
5 -87 16 -44 11 -92 22 -107 25 -16 3 -28 10 -28 15 0 5 -4 7 -8 4 -8 -5 -66
7 -102 21 -8 3 -31 8 -50 10 -19 2 -36 8 -38 13 -2 5 -10 6 -18 3 -21 -8 -43
15 -37 38 3 11 16 27 29 36 13 8 24 21 24 29 0 7 11 21 25 30 14 9 25 21 25
27 0 13 276 287 289 287 4 0 27 18 51 40 24 22 45 38 47 36 2 -2 16 7 30 20
14 13 32 24 39 24 8 0 14 5 14 10 0 6 7 10 15 10 8 0 15 5 15 10 0 6 6 10 14
10 8 0 16 4 18 9 2 4 22 20 44 34 32 20 44 23 53 14 9 -9 11 -8 6 6 -6 15 -1
19 21 16 4 0 10 4 13 9 9 13 91 54 91 45 0 -5 4 -3 8 3 7 10 115 57 127 55 3
-1 21 5 40 13 19 8 35 13 35 10 0 -3 9 0 21 6 11 7 33 14 47 16 15 3 32 10 39
15 7 6 17 8 22 5 5 -4 12 -2 16 4 4 7 13 7 26 0 15 -8 19 -8 17 2 -2 8 6 13
20 12 12 0 22 4 22 9 0 5 13 7 30 4 16 -4 32 -2 36 4 4 7 23 9 45 6 22 -3 41
-2 43 2 8 13 156 7 156 -5z m315 4 c17 1 37 -2 45 -5 8 -3 35 -7 59 -9 24 -2
49 -8 56 -14 6 -5 15 -7 18 -4 3 3 11 2 18 -2 7 -4 26 -9 43 -11 38 -4 42 -9
25 -30 -11 -14 -9 -14 9 2 16 13 25 16 30 8 4 -7 19 -13 34 -15 15 -2 30 -7
34 -10 3 -4 12 -4 20 -1 8 3 14 1 14 -4 0 -5 10 -9 22 -10 11 -1 24 -6 27 -10
3 -4 15 -10 26 -11 11 -2 22 -8 23 -13 2 -5 8 -7 13 -3 5 3 9 0 9 -6 0 -6 5
-8 10 -5 6 3 10 1 10 -4 0 -6 3 -10 8 -9 12 5 92 -34 92 -44 0 -5 5 -6 10 -3
6 3 10 1 10 -5 0 -6 5 -8 10 -5 6 3 10 2 10 -4 0 -5 -8 -15 -17 -20 -10 -6
-14 -11 -9 -11 5 0 17 7 26 15 14 13 20 12 56 -12 21 -15 42 -31 46 -37 4 -6
8 -7 8 -3 0 11 120 -73 120 -84 0 -5 6 -9 13 -9 8 0 32 -17 55 -38 23 -22 44
-37 46 -35 2 2 20 -15 40 -38 20 -23 36 -38 36 -33 0 5 25 -16 55 -46 30 -29
51 -58 48 -63 -3 -6 -2 -7 4 -4 5 3 25 -10 44 -30 19 -21 28 -34 22 -29 -7 4
-13 3 -13 -2 0 -5 11 -14 25 -20 14 -7 35 -28 46 -47 12 -19 24 -35 28 -35 4
0 18 -14 31 -32 17 -23 19 -30 7 -25 -9 3 -19 2 -22 -4 -4 -5 -12 -9 -18 -8
-7 1 -25 -3 -41 -10 -16 -6 -36 -9 -43 -7 -9 4 -11 1 -7 -6 5 -7 0 -9 -14 -6
-12 4 -22 2 -22 -4 0 -6 -6 -8 -14 -5 -7 3 -18 1 -23 -4 -5 -5 -24 -11 -41
-12 -18 -1 -32 -6 -32 -11 0 -4 -9 -6 -20 -3 -11 3 -20 1 -20 -5 0 -5 -8 -8
-17 -7 -10 1 -31 -3 -46 -10 -16 -6 -32 -9 -37 -6 -5 3 -12 0 -15 -6 -4 -5
-13 -8 -21 -5 -8 3 -14 1 -14 -5 0 -6 -6 -9 -14 -6 -8 3 -17 3 -20 -1 -7 -6
-19 -10 -51 -14 -11 -2 -23 -6 -26 -11 -3 -4 -20 -9 -37 -10 -18 -1 -32 -6
-32 -11 0 -4 -7 -6 -15 -3 -8 4 -17 2 -20 -4 -4 -5 -12 -9 -18 -8 -7 1 -19 -1
-27 -4 -8 -3 -32 -10 -53 -16 -31 -8 -39 -7 -47 8 -6 12 -5 22 2 29 7 7 5 10
-8 9 -11 -1 -18 4 -17 11 2 6 -2 12 -7 12 -6 0 -10 7 -10 15 0 8 -4 15 -8 15
-9 0 -41 52 -39 63 1 5 -6 13 -16 18 -9 6 -15 14 -12 20 4 5 2 9 -2 9 -10 0
-49 62 -45 73 1 4 -3 7 -8 7 -6 0 -10 7 -10 15 0 8 -4 15 -8 15 -5 0 -18 17
-29 38 -12 20 -33 50 -47 67 -14 16 -23 32 -20 36 2 4 -1 11 -8 16 -15 9 -101
123 -94 123 3 0 -8 14 -24 32 -16 17 -27 35 -25 39 3 4 -2 10 -10 13 -8 3 -14
9 -13 13 1 4 -15 26 -35 47 -20 22 -34 43 -31 48 3 4 0 8 -6 8 -6 0 -13 7 -17
16 -3 9 -19 30 -34 47 -16 17 -29 35 -29 40 0 5 -6 15 -12 22 -28 31 -38 44
-38 51 0 4 -8 13 -17 20 -16 11 -16 16 -4 36 9 16 10 20 1 11 -15 -14 -54 2
-45 18 4 5 0 10 -7 11 -7 0 7 4 32 8 25 4 56 5 70 3 14 -3 39 -5 55 -5z m-195
-187 c0 -5 7 -12 16 -15 8 -3 13 -10 10 -15 -3 -5 0 -11 7 -14 7 -3 31 -31 53
-63 21 -33 45 -63 52 -67 7 -5 10 -12 7 -17 -3 -4 2 -10 10 -14 8 -3 15 -12
15 -20 0 -7 7 -16 15 -20 17 -6 21 -36 4 -36 -5 0 -7 -5 -3 -11 4 -8 9 -7 15
2 6 11 11 11 21 1 6 -6 8 -12 3 -12 -5 0 1 -7 13 -16 12 -8 20 -20 17 -25 -4
-5 -2 -9 3 -9 11 0 76 -90 65 -90 -4 0 0 -5 10 -11 9 -5 17 -17 17 -24 0 -8 5
-15 10 -15 6 0 10 -7 10 -15 0 -7 8 -19 18 -24 9 -6 13 -11 8 -11 -5 0 3 -12
17 -26 15 -15 25 -30 22 -34 -3 -4 2 -11 11 -14 8 -3 12 -10 9 -16 -3 -5 -2
-10 3 -10 15 0 64 -80 58 -95 -3 -9 0 -12 9 -9 10 4 13 -1 9 -20 -2 -15 0 -26
6 -26 6 0 8 5 4 11 -4 7 -1 10 6 7 7 -2 14 -11 15 -19 2 -9 14 -28 29 -44 14
-15 23 -31 20 -36 -3 -5 0 -9 5 -9 6 0 11 -7 11 -15 0 -9 7 -18 15 -21 8 -4
12 -10 9 -16 -3 -5 -12 -7 -20 -4 -7 3 -16 1 -20 -5 -3 -5 -14 -7 -25 -4 -10
4 -19 2 -19 -4 0 -5 -18 -8 -41 -7 -24 2 -35 0 -28 -5 10 -6 6 -11 -14 -18
-15 -6 -31 -10 -35 -9 -4 1 -19 -4 -34 -10 -15 -6 -40 -13 -55 -16 -15 -2 -30
-5 -33 -7 -3 -1 -9 -3 -15 -4 -5 -2 -13 -4 -17 -5 -5 -1 -12 -4 -18 -5 -5 -1
-11 -3 -12 -5 -3 -2 -16 -5 -53 -13 -11 -3 -40 -11 -65 -18 -25 -7 -48 -12
-52 -11 -5 1 -8 -3 -8 -9 0 -6 -7 -9 -15 -5 -8 3 -15 1 -15 -5 0 -6 -6 -9 -14
-6 -8 3 -17 3 -21 -1 -4 -4 -11 -8 -16 -8 -5 -1 -10 -2 -11 -3 -26 -21 -179
-14 -201 8 -5 5 -15 7 -22 5 -7 -3 -16 -1 -19 5 -4 6 -13 8 -21 4 -8 -3 -15 0
-15 7 0 6 -5 8 -10 5 -6 -4 -17 -1 -25 5 -8 6 -18 9 -23 6 -5 -3 -21 1 -36 9
-15 8 -30 14 -34 13 -17 -4 -92 15 -92 23 0 4 -6 6 -13 3 -8 -3 -27 1 -43 7
-16 7 -35 11 -41 10 -7 -1 -13 4 -13 10 0 7 -3 9 -6 6 -4 -3 -15 -2 -26 4 -11
6 -33 11 -49 11 -16 1 -32 5 -35 10 -3 5 -14 6 -25 3 -10 -4 -19 -2 -19 4 0 6
-7 8 -15 5 -8 -4 -15 -1 -15 5 0 6 5 11 12 11 6 0 8 3 5 6 -4 4 6 23 21 43 15
20 45 62 67 94 21 31 42 57 47 57 5 0 6 5 3 10 -3 6 1 13 9 16 9 3 16 13 16
20 0 8 7 17 15 20 8 4 15 12 15 19 0 7 13 27 29 44 15 16 26 33 23 35 -3 3 3
8 12 12 9 3 16 12 16 20 0 7 7 17 16 22 9 5 14 11 12 13 -3 4 9 21 45 60 9 10
14 19 10 19 -5 1 3 10 16 20 13 11 19 20 15 20 -5 1 0 9 11 18 11 10 25 26 31
37 6 10 16 21 24 23 8 3 10 0 5 -8 -5 -8 -4 -11 3 -7 5 4 8 15 6 25 -3 10 9
32 29 54 19 21 32 40 30 42 -3 3 4 11 16 18 12 7 21 18 21 25 0 6 9 18 20 26
11 8 18 16 15 19 -3 2 13 23 35 46 22 23 40 46 40 51 0 6 8 15 18 20 9 6 13
11 8 11 -5 0 1 11 14 25 l23 25 24 -26 c12 -14 23 -29 23 -33z m1704 -810 c26
-27 26 -29 7 -34 -24 -6 -28 -27 -5 -27 8 0 12 5 8 11 -4 7 0 10 10 7 10 -1
17 -7 16 -11 -1 -5 7 -15 17 -23 10 -7 14 -14 8 -14 -7 0 -7 -3 0 -8 17 -12
64 -89 58 -95 -3 -3 -12 -3 -21 0 -10 3 -4 -4 11 -15 29 -20 84 -92 70 -92 -4
0 -3 -4 3 -8 16 -10 64 -108 57 -116 -4 -3 -1 -6 6 -6 7 0 9 -5 6 -10 -4 -6
-9 -8 -13 -6 -4 2 -7 -6 -7 -19 0 -13 5 -21 12 -18 6 3 9 11 6 19 -3 8 1 14 8
14 7 0 9 -3 6 -6 -3 -4 0 -16 8 -27 11 -15 12 -24 3 -34 -8 -11 -7 -12 6 -7 9
4 16 3 15 -2 -1 -5 8 -31 21 -59 13 -27 23 -56 23 -62 0 -7 5 -13 10 -13 5 0
7 -6 4 -14 -3 -8 -1 -16 4 -18 5 -2 11 -13 12 -26 0 -12 5 -22 10 -22 5 0 7
-7 3 -15 -3 -8 -1 -15 5 -15 6 0 9 -7 5 -15 -3 -8 -1 -15 5 -15 6 0 9 -6 6
-14 -3 -7 0 -19 6 -25 6 -6 7 -11 3 -11 -5 0 -3 -6 3 -14 8 -10 9 -16 1 -21
-5 -3 -10 -12 -10 -18 0 -7 4 -6 10 3 9 13 10 12 10 -5 0 -3 7 -19 15 -35 9
-17 13 -30 9 -30 -4 0 -1 -7 6 -15 6 -8 9 -19 5 -25 -3 -5 -1 -10 4 -10 6 0
10 -3 9 -7 -1 -5 4 -26 10 -47 6 -22 9 -43 5 -49 -3 -5 0 -13 7 -17 9 -6 9
-13 1 -29 -10 -17 -9 -20 4 -15 15 6 20 -14 17 -58 -1 -10 3 -18 9 -18 6 0 9
-9 6 -20 -3 -11 -2 -22 2 -25 5 -2 9 -17 10 -32 2 -40 7 -66 13 -83 4 -8 7
-23 8 -32 3 -45 7 -75 14 -101 6 -18 4 -33 -5 -44 -8 -10 -9 -14 -2 -10 19 11
34 -71 35 -193 0 -36 5 -71 11 -78 5 -7 7 -15 3 -19 -3 -3 -6 -1 -6 5 0 6 -6
9 -14 6 -8 -3 -22 6 -33 20 -10 14 -90 97 -178 183 -215 214 -244 241 -248
236 -2 -2 -20 14 -40 36 -19 22 -38 37 -40 34 -3 -2 -15 9 -28 26 -13 17 -28
31 -35 31 -7 0 -21 11 -32 25 -11 14 -25 25 -30 25 -6 0 -19 11 -30 25 -11 14
-25 25 -31 25 -7 0 -14 7 -17 15 -4 8 -13 15 -20 15 -8 0 -17 7 -20 15 -4 8
-11 15 -17 15 -12 0 -98 68 -110 87 -4 7 -15 13 -22 13 -8 0 -15 5 -15 10 0 6
-7 10 -15 10 -9 0 -18 7 -21 15 -4 8 -10 12 -15 9 -5 -3 -12 2 -15 10 -3 9
-12 16 -20 16 -8 0 -14 5 -14 10 0 6 -7 10 -16 10 -8 0 -13 4 -10 9 4 5 2 11
-3 13 -6 1 -12 16 -15 32 -3 16 -14 46 -24 67 -14 28 -16 41 -8 49 8 8 6 9 -6
5 -11 -5 -18 -2 -18 5 0 7 -10 33 -23 59 -13 25 -24 49 -25 54 -3 20 -48 107
-55 107 -5 0 -5 5 -2 10 3 6 1 10 -5 10 -6 0 -8 5 -5 10 3 6 2 10 -4 10 -5 0
-15 16 -22 35 -7 19 -17 35 -22 35 -4 0 -5 5 -2 10 3 6 1 10 -5 10 -6 0 -8 5
-5 10 3 6 2 10 -3 10 -9 0 -37 50 -34 63 1 4 -2 7 -8 7 -5 0 -10 6 -10 14 0 8
-7 22 -16 30 -8 9 -12 16 -7 16 4 0 3 4 -3 8 -14 9 -59 96 -46 88 5 -3 26 0
48 6 21 7 42 13 47 14 4 1 8 2 10 4 1 1 11 3 21 5 11 2 31 7 45 11 14 4 29 7
34 6 4 -1 7 2 7 8 0 5 6 7 14 4 8 -3 17 0 21 5 3 6 11 9 16 5 5 -3 15 -2 22 3
7 5 25 10 41 11 17 1 33 7 37 13 4 7 11 9 17 5 6 -3 13 -2 17 4 4 6 11 8 16 4
5 -3 15 -1 22 4 7 6 29 13 50 16 21 3 47 10 56 16 10 5 21 7 24 3 4 -3 13 -1
20 5 10 9 19 8 34 -3 25 -18 39 -7 15 12 -9 8 -11 12 -4 8 7 -4 19 -1 27 5 8
6 19 9 25 5 5 -3 10 -1 10 5 0 7 8 9 20 5 11 -3 20 -2 20 3 0 8 42 24 81 31 3
1 18 -12 33 -28z m-3479 -11 c14 -5 23 -15 20 -20 -4 -6 -11 -7 -17 -4 -7 4
-8 2 -4 -4 5 -9 14 -8 31 4 15 9 25 11 29 5 4 -6 13 -8 21 -4 8 3 15 0 15 -7
0 -6 5 -8 10 -5 6 3 16 3 23 -2 6 -4 17 -8 22 -8 30 -3 86 -19 91 -26 3 -5 10
-7 15 -4 5 4 14 3 21 -1 7 -4 26 -9 42 -11 17 -2 33 -9 37 -15 5 -7 11 -9 15
-6 3 4 18 1 33 -6 24 -12 89 -29 118 -31 6 0 15 -3 18 -7 4 -4 13 -4 20 -2 7
3 16 0 20 -5 3 -6 11 -9 16 -5 5 3 16 0 24 -6 8 -7 15 -9 15 -5 0 4 6 2 14 -4
8 -6 18 -11 22 -10 5 1 11 0 14 -1 10 -3 45 -11 63 -13 20 -2 22 -16 4 -37 -7
-8 -12 -18 -12 -22 0 -4 -7 -16 -15 -26 -8 -10 -16 -25 -18 -33 -2 -8 -9 -18
-16 -24 -7 -5 -13 -12 -13 -15 0 -17 -16 -50 -24 -50 -6 0 -8 -4 -4 -9 3 -5
-1 -16 -9 -24 -8 -8 -12 -17 -9 -21 4 -3 1 -6 -6 -6 -7 0 -9 -5 -5 -12 5 -8 1
-9 -12 -4 -14 5 -16 4 -8 -4 9 -9 5 -23 -15 -57 -43 -74 -59 -108 -54 -115 2
-5 -1 -8 -7 -8 -6 0 -8 -4 -5 -10 3 -5 1 -10 -4 -10 -6 0 -11 -8 -11 -17 0
-10 -7 -27 -15 -37 -8 -10 -12 -23 -9 -27 3 -5 0 -9 -7 -9 -7 0 -10 -3 -6 -6
3 -4 -1 -21 -10 -38 -9 -17 -18 -40 -20 -51 -2 -11 -8 -21 -13 -23 -6 -2 -10
-14 -10 -26 0 -13 -9 -31 -20 -41 -18 -16 -24 -14 -21 7 0 4 -6 5 -14 1 -11
-4 -13 -9 -5 -18 7 -8 -2 -20 -34 -43 -24 -18 -49 -32 -55 -32 -7 0 -14 -7
-17 -15 -4 -8 -10 -13 -14 -10 -4 3 -23 -11 -41 -30 -19 -19 -37 -35 -40 -35
-4 0 -26 -18 -50 -40 -24 -21 -45 -37 -47 -35 -2 2 -15 -9 -29 -25 -13 -16
-27 -29 -31 -27 -7 2 -36 -21 -79 -65 -14 -16 -30 -28 -35 -28 -5 0 -22 -16
-39 -35 -17 -19 -35 -35 -40 -35 -5 0 -27 -20 -50 -45 -23 -25 -46 -45 -52
-45 -6 0 -55 -44 -109 -97 -55 -54 -103 -97 -108 -96 -4 1 -7 -5 -5 -15 2 -10
-16 -37 -41 -62 -24 -25 -59 -64 -78 -88 l-35 -43 5 93 c2 51 7 104 10 117 3
14 7 54 10 90 3 35 9 70 14 76 5 6 9 20 9 30 1 11 3 36 6 55 3 19 6 46 6 60 1
14 5 30 10 36 6 7 9 16 8 20 -2 5 3 28 10 52 6 23 9 47 6 52 -3 5 -1 11 4 15
6 3 8 12 5 19 -3 8 0 17 5 21 6 3 9 11 5 16 -3 5 0 16 6 24 6 8 9 19 5 26 -4
6 -3 14 3 18 6 3 13 26 16 50 5 41 22 105 34 126 3 5 7 16 7 25 2 23 26 94 38
108 5 6 7 12 4 12 -6 0 9 47 34 105 14 35 13 32 23 68 5 15 11 27 15 27 4 0 8
6 8 14 0 20 24 76 33 76 3 0 7 6 7 13 0 6 12 36 27 65 14 28 38 76 52 105 14
28 30 54 35 55 5 2 7 8 3 13 -3 5 0 9 6 9 6 0 8 5 5 10 -3 6 -2 10 3 10 6 0
13 11 16 25 4 14 11 25 17 25 6 0 7 5 4 10 -3 6 -1 10 4 10 6 0 11 7 11 15 0
8 5 15 11 15 5 0 8 4 4 9 -3 6 3 14 12 20 10 6 15 11 10 11 -4 0 5 18 19 40
28 41 44 47 89 30z m2525 -279 c0 -6 5 -11 11 -11 8 0 7 -5 -1 -15 -11 -13
-10 -14 1 -10 8 3 20 -4 27 -15 7 -11 8 -19 3 -18 -5 2 -9 -1 -9 -7 -1 -5 5
-9 11 -8 15 3 49 -55 36 -62 -5 -4 -9 -12 -8 -18 0 -9 2 -9 6 1 8 21 21 13 33
-23 6 -19 16 -35 21 -35 6 0 7 -4 4 -10 -3 -5 -1 -10 5 -10 6 0 8 -4 5 -10 -3
-5 -1 -10 6 -10 8 0 8 -4 -1 -15 -11 -13 -10 -15 6 -9 18 5 18 4 -1 -11 -20
-17 -20 -17 0 -11 17 5 26 -6 59 -72 78 -155 86 -175 73 -164 -8 7 -17 9 -20
5 -4 -3 -7 -1 -7 5 0 7 -7 12 -15 12 -8 0 -15 5 -15 11 0 5 -4 8 -9 4 -5 -3
-16 2 -24 10 -9 8 -20 15 -25 15 -5 0 -19 9 -32 20 -12 11 -27 17 -31 14 -5
-3 -9 0 -9 5 0 6 -3 10 -7 9 -11 -3 -227 104 -231 114 -2 5 -8 6 -13 2 -5 -3
-9 0 -9 7 0 7 -3 10 -6 6 -4 -3 -21 1 -38 10 -17 10 -34 16 -38 15 -5 -1 -8 2
-8 8 0 5 -7 7 -15 4 -8 -4 -15 -1 -15 5 0 6 -3 10 -7 9 -15 -3 -63 14 -63 23
0 5 -3 8 -7 7 -14 -3 -73 13 -73 21 0 4 -10 7 -22 8 -11 1 -25 8 -29 15 -5 7
-9 9 -9 4 0 -5 -7 -3 -15 4 -8 7 -15 9 -15 5 0 -4 -7 -2 -15 5 -8 7 -15 9 -15
5 0 -4 -7 -2 -15 5 -8 7 -15 9 -15 6 0 -4 -5 -4 -12 0 -7 4 -23 9 -36 10 -30
4 -42 14 -16 14 11 0 25 5 30 10 6 6 25 12 42 13 18 1 32 6 32 11 0 4 6 6 14
3 7 -3 26 1 41 9 15 8 31 12 35 9 5 -3 12 0 15 6 4 5 13 8 21 5 7 -3 16 -1 19
5 4 5 11 6 17 3 6 -4 13 -2 17 4 3 6 20 13 36 16 17 2 32 5 35 7 3 1 10 3 15
4 6 2 12 4 15 5 6 2 34 9 55 13 8 2 17 6 21 10 4 3 15 2 26 -4 11 -6 22 -8 26
-5 3 3 0 6 -6 6 -7 0 -12 5 -12 11 0 5 5 7 10 4 6 -4 16 -3 23 2 7 5 23 10 36
11 13 0 28 5 34 11 10 10 47 -27 47 -48z m-1560 19 c30 -11 49 -19 41 -20 -8
0 -11 -3 -8 -6 4 -4 13 -1 21 5 10 9 16 9 21 1 4 -6 13 -9 20 -6 7 2 16 2 19
-2 4 -3 19 -8 34 -10 14 -2 31 -7 37 -11 12 -10 154 -46 167 -43 4 1 18 -2 30
-7 13 -5 26 -8 29 -7 3 0 13 -5 22 -13 10 -7 17 -10 17 -6 0 4 7 2 15 -5 9 -7
18 -10 22 -7 3 4 15 1 27 -5 20 -11 20 -12 -9 -19 -58 -15 -190 -63 -196 -72
-3 -5 -10 -9 -15 -9 -5 -1 -27 -9 -49 -19 -21 -10 -43 -15 -47 -13 -4 3 -8 0
-8 -6 0 -6 -4 -8 -10 -5 -5 3 -10 2 -10 -3 0 -10 -89 -48 -102 -44 -5 1 -8 -3
-8 -9 0 -5 -4 -7 -10 -4 -5 3 -10 1 -10 -6 0 -7 -3 -10 -6 -6 -4 3 -13 -1 -21
-9 -8 -8 -19 -12 -24 -9 -5 4 -9 1 -9 -5 0 -6 -4 -8 -10 -5 -5 3 -10 1 -10 -5
0 -6 -4 -8 -10 -5 -5 3 -10 1 -10 -5 0 -6 -4 -8 -10 -5 -5 3 -10 1 -10 -5 0
-6 -4 -8 -10 -5 -5 3 -10 1 -10 -5 0 -6 -4 -8 -10 -5 -5 3 -10 2 -10 -3 0 -12
-76 -53 -84 -45 -3 3 -6 2 -6 -3 0 -6 -30 -26 -67 -45 -38 -19 -76 -43 -85
-54 -24 -28 -22 -9 2 22 11 14 20 33 20 43 0 9 11 33 24 53 13 19 22 38 18 41
-3 3 1 6 8 6 7 0 11 3 7 6 -7 7 51 126 67 136 7 5 7 8 1 8 -6 0 -6 3 0 8 6 4
19 26 29 50 11 23 23 42 28 42 4 0 7 3 6 8 -3 12 25 62 34 62 5 0 6 5 3 10 -3
6 -1 10 4 10 6 0 10 3 9 8 -3 7 38 82 44 82 2 -1 28 -9 58 -20z m780 -236 c19
-4 41 -7 49 -5 8 2 12 -3 8 -12 -4 -12 2 -15 26 -14 42 1 97 -12 97 -24 0 -5
3 -8 8 -7 15 4 72 -14 72 -23 0 -5 3 -8 8 -8 4 1 12 0 17 -1 6 -1 15 -3 20 -4
25 -4 85 -31 85 -39 0 -4 5 -5 12 -1 7 5 9 2 6 -7 -4 -11 2 -14 21 -13 27 1
72 -15 82 -29 3 -5 9 -8 13 -7 4 1 25 -7 47 -16 28 -13 38 -23 34 -34 -5 -11
-3 -12 5 -4 13 13 50 7 50 -9 0 -6 3 -7 6 -4 4 4 19 -2 33 -12 14 -10 46 -28
71 -40 87 -41 173 -90 181 -103 5 -7 9 -9 9 -5 0 5 7 1 16 -7 8 -9 21 -16 27
-16 7 0 21 -7 31 -15 18 -14 18 -16 3 -33 -14 -15 -15 -19 -2 -19 8 0 12 4 10
8 -3 3 1 12 8 18 10 8 18 6 33 -7 10 -10 27 -21 37 -25 9 -3 17 -11 17 -17 0
-6 4 -9 10 -5 7 5 27 -46 35 -90 1 -5 3 -12 4 -15 2 -5 8 -26 14 -52 1 -7 6
-19 11 -26 4 -7 5 -16 2 -19 -3 -3 -2 -11 4 -18 5 -6 12 -29 14 -51 3 -21 8
-50 12 -64 9 -40 17 -82 28 -155 1 -11 6 -28 10 -38 5 -9 6 -26 3 -37 -3 -11
-1 -23 4 -26 5 -3 9 -22 9 -42 0 -20 4 -80 9 -132 8 -90 6 -383 -3 -500 -3
-30 -5 -76 -5 -102 0 -27 -4 -48 -9 -48 -5 0 -7 -11 -5 -24 3 -13 0 -27 -6
-30 -5 -4 -8 -13 -4 -21 3 -8 2 -23 -3 -32 -4 -10 -9 -27 -10 -38 -2 -11 -6
-33 -9 -50 -4 -16 -6 -40 -6 -52 0 -12 -4 -25 -9 -28 -6 -4 -8 -11 -4 -16 3
-6 3 -18 -1 -27 -4 -9 -9 -30 -11 -47 -3 -16 -8 -31 -13 -33 -5 -2 -7 -12 -4
-22 3 -11 1 -20 -5 -20 -5 0 -9 -6 -9 -12 2 -25 -15 -88 -24 -88 -5 0 -8 -3
-8 -7 1 -5 0 -11 -1 -15 -3 -9 -3 -9 -14 -55 -4 -18 -12 -33 -17 -33 -6 0 -7
-5 -4 -10 9 -15 -57 -72 -77 -67 -11 3 -15 0 -11 -9 3 -8 -1 -14 -11 -14 -9 0
-16 -5 -16 -11 0 -5 -4 -7 -10 -4 -5 3 -10 1 -10 -4 0 -6 -6 -11 -14 -11 -8 0
-16 -4 -18 -10 -4 -12 -219 -143 -235 -143 -7 0 -14 -6 -17 -14 -3 -7 -15 -13
-26 -13 -11 0 -20 -5 -20 -11 0 -8 -5 -7 -15 1 -13 11 -14 10 -10 -1 3 -9 -11
-23 -42 -39 -26 -14 -51 -24 -55 -22 -4 1 -8 -3 -8 -9 0 -5 -4 -8 -9 -5 -5 3
-14 -1 -21 -9 -7 -8 -16 -12 -21 -9 -5 3 -9 0 -9 -6 0 -6 -4 -9 -9 -6 -5 4
-11 2 -13 -3 -4 -11 -168 -92 -168 -83 0 4 -4 2 -8 -5 -10 -16 -118 -64 -126
-56 -3 4 -6 2 -6 -3 0 -5 -10 -10 -22 -11 -11 -1 -25 -8 -29 -15 -5 -7 -9 -8
-9 -3 0 6 -4 5 -8 -2 -4 -6 -16 -13 -27 -15 -11 -1 -26 -9 -34 -16 -7 -7 -20
-11 -27 -8 -7 3 -19 -1 -26 -8 -10 -10 -19 -10 -41 -1 -15 6 -24 15 -20 20 5
5 0 3 -9 -4 -15 -11 -18 -11 -18 -1 0 8 -3 11 -6 7 -3 -3 -19 -1 -35 5 -21 7
-28 15 -24 26 4 12 3 12 -9 3 -10 -8 -16 -9 -21 -1 -3 6 -11 8 -16 5 -5 -4 -9
-1 -9 4 0 6 -11 11 -25 11 -14 0 -25 5 -25 12 0 6 -3 9 -6 5 -4 -3 -13 1 -21
9 -8 8 -19 12 -24 9 -5 -4 -9 -1 -9 4 0 6 -3 10 -7 9 -14 -5 -73 24 -73 35 0
6 -3 8 -6 4 -7 -7 -86 30 -95 45 -3 5 -10 9 -15 9 -17 -1 -44 10 -44 20 0 5
-3 8 -7 7 -13 -3 -83 35 -83 44 0 5 -4 7 -8 4 -5 -3 -18 3 -29 13 -11 10 -41
28 -66 39 -26 12 -47 26 -47 32 0 6 -3 9 -8 6 -4 -2 -25 9 -47 25 -22 16 -48
32 -57 35 -10 4 -18 10 -18 15 0 5 -3 8 -7 7 -11 -4 -73 35 -73 45 0 4 -4 6
-9 2 -6 -3 -14 3 -20 12 -6 10 -11 15 -11 10 0 -10 -51 22 -73 47 -10 12 -15
14 -11 6 7 -13 6 -13 -9 -1 -10 8 -15 16 -13 19 3 2 -2 18 -10 34 -8 16 -12
33 -9 38 3 6 2 10 -4 10 -6 0 -8 6 -5 14 3 8 0 17 -5 21 -6 3 -9 10 -6 15 3 5
0 21 -7 37 -6 15 -10 34 -9 41 1 6 -3 12 -10 12 -6 0 -8 7 -5 16 4 9 1 23 -5
30 -6 7 -8 18 -4 24 3 5 2 10 -3 10 -8 0 -28 86 -38 162 -3 18 -9 62 -15 98
-24 148 -29 196 -41 355 -10 143 -3 462 13 565 12 77 18 136 19 169 0 12 3 28
7 35 7 10 9 24 13 84 1 9 4 24 7 32 3 8 7 22 9 30 1 8 5 29 9 45 3 17 6 38 6
47 0 10 5 20 10 23 5 4 7 11 4 16 -4 5 -3 15 2 22 4 6 9 17 10 22 7 30 11 42
18 58 4 10 5 21 1 24 -11 11 55 65 74 60 14 -3 17 -1 13 11 -4 10 -2 13 5 8 7
-4 12 -3 12 1 0 8 114 79 135 84 6 2 16 9 23 16 7 7 20 13 28 13 8 0 14 5 14
12 0 6 3 8 6 5 4 -3 18 3 32 13 13 11 29 20 35 20 6 0 19 7 29 17 13 12 18 13
18 3 0 -8 7 -5 18 7 21 25 77 55 86 46 3 -4 6 -1 6 6 0 7 5 9 10 6 6 -3 10 -1
10 5 0 6 5 8 10 5 6 -3 10 -1 10 5 0 6 5 8 10 5 6 -3 10 -1 10 5 0 6 4 9 9 6
5 -4 11 -1 13 4 2 6 10 12 18 14 8 1 30 10 48 19 17 10 32 15 32 12 0 -3 10 0
23 7 12 7 25 11 30 10 4 -1 7 3 7 9 0 5 4 8 9 4 5 -3 12 -1 16 5 4 6 11 8 16
5 5 -4 9 -1 9 5 0 6 5 8 10 5 6 -3 10 -2 10 4 0 9 56 27 73 23 4 -1 7 2 7 7 0
9 81 40 115 45 8 1 17 5 21 8 3 4 12 4 20 1 8 -3 14 -1 14 4 0 5 10 10 22 10
13 1 24 6 26 11 2 6 12 8 22 5 12 -3 20 0 20 7 0 9 4 9 13 2 6 -5 28 -13 47
-18z m-1412 -696 c-5 -18 -11 -42 -13 -53 -2 -11 -4 -20 -5 -20 -1 0 -3 -11
-5 -25 -3 -26 -12 -65 -15 -65 -1 0 -3 -13 -5 -30 -6 -43 -14 -94 -20 -135
-20 -117 -29 -294 -29 -562 -1 -130 -5 -234 -9 -231 -5 3 -1 -9 8 -27 11 -22
15 -43 10 -67 -4 -21 -2 -40 6 -49 6 -8 9 -25 7 -39 -3 -14 -2 -25 1 -25 3 0
7 -18 8 -40 1 -22 2 -48 3 -57 1 -10 -1 -31 -4 -48 -5 -27 -5 -27 3 -5 8 22 9
22 11 5 1 -11 2 -24 1 -29 -1 -5 3 -12 9 -16 6 -4 8 -14 4 -23 -3 -9 -10 -14
-15 -11 -5 3 -6 -2 -3 -10 3 -9 12 -12 21 -9 13 5 15 2 11 -15 -4 -12 -2 -22
4 -22 6 0 8 -9 5 -20 -3 -11 -1 -22 3 -25 5 -3 8 -13 8 -23 0 -9 7 -37 16 -61
9 -24 14 -47 11 -51 -3 -5 -1 -11 5 -15 13 -8 13 -25 -1 -25 -5 0 -7 5 -4 10
3 6 -1 10 -9 10 -9 0 -16 5 -16 10 0 6 -7 10 -15 10 -9 0 -18 7 -21 15 -4 8
-13 15 -20 15 -8 0 -17 7 -20 15 -4 8 -11 15 -18 15 -6 0 -26 14 -44 30 -18
17 -37 30 -42 30 -5 0 -17 11 -28 25 -11 13 -22 22 -24 19 -3 -3 -17 9 -31 25
-13 16 -27 28 -30 25 -2 -3 -19 12 -38 33 -18 21 -36 37 -40 36 -4 -1 -44 38
-89 87 -45 50 -87 90 -94 90 -6 0 -27 17 -46 37 -19 20 -28 32 -20 28 8 -5
-22 27 -67 69 -46 43 -82 81 -80 85 1 4 -13 20 -30 35 -18 15 -33 32 -33 36 0
5 -10 20 -22 33 -111 119 -112 122 -80 167 14 19 42 51 61 71 20 20 56 59 80
88 27 32 49 50 58 47 8 -3 12 -2 9 3 -7 10 274 301 291 301 6 0 23 16 37 35
15 19 30 34 35 32 4 -1 20 13 35 31 15 17 31 32 35 32 4 0 29 20 56 45 27 24
51 42 53 40 3 -2 13 7 24 20 11 14 23 23 28 20 4 -3 10 2 14 10 3 8 12 15 21
15 8 0 15 4 15 9 0 7 77 71 86 71 2 0 -2 -15 -8 -32z m2785 -5 c4 -7 13 -13
20 -13 7 0 25 -14 41 -30 16 -17 35 -30 42 -30 7 0 18 -9 24 -20 6 -11 14 -19
19 -17 4 1 36 -23 71 -53 97 -84 112 -99 105 -110 -3 -6 1 -7 10 -4 10 4 28
-7 52 -32 20 -22 39 -39 43 -39 9 0 516 -512 523 -529 1 -2 -10 -16 -25 -30
-16 -14 -28 -30 -28 -35 0 -6 -16 -23 -35 -38 -19 -15 -35 -33 -35 -39 0 -6
-20 -30 -45 -53 -25 -23 -45 -45 -45 -49 0 -4 -29 -36 -64 -71 -42 -41 -68
-61 -77 -56 -8 6 -10 4 -4 -4 11 -19 -122 -150 -147 -146 -11 2 -16 0 -12 -6
6 -11 -53 -79 -69 -79 -5 0 -18 -11 -29 -25 -16 -20 -23 -23 -34 -14 -7 6 -19
9 -26 6 -8 -4 -7 -6 5 -6 25 -1 21 -17 -9 -38 -14 -10 -35 -28 -46 -40 -12
-12 -25 -20 -30 -17 -4 3 -8 1 -8 -4 0 -10 -115 -102 -128 -102 -4 0 -13 -9
-20 -20 -7 -12 -17 -18 -21 -15 -5 2 -12 -2 -15 -11 -3 -8 -10 -12 -16 -9 -5
3 -10 2 -10 -3 0 -4 -13 -18 -29 -30 -28 -20 -29 -20 -24 -2 3 11 10 20 15 20
6 0 7 8 4 17 -4 10 -4 14 0 10 10 -9 44 121 37 139 -3 8 0 14 7 14 7 0 9 8 5
20 -3 11 -2 20 3 20 6 0 12 -6 15 -12 2 -7 3 13 2 45 -1 31 2 57 7 57 5 0 6 9
3 20 -4 12 -2 26 3 33 5 7 9 19 10 27 0 8 3 44 7 80 22 212 38 423 38 490 -1
63 -14 246 -27 355 -7 66 -14 127 -14 135 0 8 -3 30 -6 48 -6 34 -11 66 -21
144 -4 27 -11 51 -16 54 -5 3 -7 9 -4 14 2 4 -4 33 -14 64 -16 50 -16 55 -2
44 9 -7 20 -19 24 -25z m-3746 -1081 c25 -26 32 -40 28 -60 -4 -21 -3 -23 3
-7 8 18 11 17 38 -13 16 -18 46 -50 67 -71 20 -21 37 -41 37 -44 0 -10 274
-281 282 -279 4 1 22 -16 41 -38 19 -22 38 -40 44 -40 16 0 39 -34 38 -55 -1
-11 5 -27 13 -35 14 -12 15 -12 10 0 -24 59 -24 57 2 39 14 -10 24 -24 22 -32
-2 -11 3 -14 17 -10 13 3 24 -2 33 -16 7 -12 16 -21 21 -21 11 0 107 -73 107
-82 0 -4 6 -8 14 -8 8 0 17 -7 20 -16 3 -8 10 -12 16 -9 6 3 13 -1 16 -9 3 -9
12 -16 18 -16 7 0 23 -10 36 -22 14 -13 28 -22 33 -20 4 1 10 -5 13 -13 4 -8
12 -15 20 -15 8 0 14 -5 14 -12 0 -6 3 -8 7 -5 9 9 44 -23 37 -34 -3 -5 -1 -9
5 -9 6 0 13 -16 17 -35 3 -19 10 -38 15 -41 5 -3 7 -10 3 -15 -3 -5 -10 -7
-15 -4 -5 4 -9 1 -9 -5 0 -7 8 -9 21 -5 14 5 19 3 15 -3 -3 -6 -2 -13 4 -17 7
-4 7 -12 0 -25 -9 -16 -8 -18 6 -13 12 4 15 3 10 -5 -4 -7 -2 -12 4 -12 6 0 8
-4 5 -10 -3 -5 -2 -10 4 -10 6 0 13 -16 17 -35 3 -19 9 -35 13 -35 4 0 8 -10
8 -22 1 -13 7 -24 13 -26 5 -2 8 -8 4 -13 -3 -5 0 -9 6 -9 6 0 8 -4 5 -10 -3
-5 -1 -10 5 -10 6 0 8 -4 5 -10 -3 -5 -1 -10 5 -10 6 0 8 -4 5 -10 -3 -5 -2
-10 2 -10 7 0 43 -72 43 -85 -1 -3 6 -13 15 -21 8 -9 13 -20 10 -25 -4 -5 -2
-9 4 -9 10 0 27 -38 23 -52 -1 -5 2 -8 7 -8 10 0 27 -39 23 -52 -1 -5 2 -8 8
-8 5 0 17 -14 26 -32 13 -24 14 -36 5 -50 -15 -24 -14 -35 4 -42 12 -4 13 -2
6 13 -6 10 -8 21 -5 24 8 8 33 -16 27 -25 -2 -5 0 -8 5 -8 6 0 8 -9 5 -19 -5
-21 -29 -35 -43 -26 -5 3 -11 1 -15 -4 -3 -6 -12 -8 -20 -4 -8 3 -15 0 -15 -5
0 -6 -8 -11 -17 -11 -17 0 -55 -7 -60 -11 -2 -2 -7 -4 -13 -5 -5 -1 -11 -3
-12 -5 -3 -2 -26 -8 -53 -13 -8 -2 -17 -6 -21 -9 -3 -4 -12 -4 -20 -1 -8 3
-14 1 -14 -5 0 -8 -50 -24 -85 -27 -5 0 -16 -4 -22 -8 -7 -5 -17 -6 -22 -3 -5
4 -11 1 -13 -4 -2 -6 -21 -12 -43 -15 -22 -2 -42 -5 -45 -6 -3 -1 -8 -1 -12 0
-5 0 -8 -4 -8 -10 0 -6 -6 -9 -14 -6 -7 3 -17 2 -22 -3 -8 -8 -113 -38 -159
-46 -27 -5 -46 -10 -70 -18 -34 -13 -39 -14 -63 -5 -13 5 -21 13 -18 17 3 5
-4 19 -15 30 -11 12 -17 22 -14 22 4 0 -1 7 -9 16 -9 8 -16 22 -16 29 0 7 -6
20 -13 27 -32 34 -46 65 -34 78 9 10 9 11 0 6 -8 -5 -17 3 -25 21 -6 15 -18
36 -26 46 -9 9 -11 17 -6 17 5 0 4 4 -1 8 -13 9 -78 151 -78 169 0 7 -4 13 -8
13 -6 0 -37 79 -45 113 -1 4 -3 10 -4 15 -1 4 -2 10 -1 15 0 4 -4 7 -10 7 -6
0 -9 7 -5 15 3 8 1 15 -4 15 -4 0 -12 15 -16 33 -4 17 -9 35 -10 40 -1 4 -3 9
-4 12 -1 3 -4 10 -5 15 -1 6 -4 13 -5 18 -1 4 -2 10 -1 15 0 4 -4 7 -10 7 -6
0 -9 6 -6 14 3 8 3 17 -1 21 -4 4 -8 11 -8 16 -1 5 -2 10 -3 12 -2 1 -4 13 -7
27 -2 14 -11 44 -20 68 -9 23 -17 52 -19 65 -5 29 -13 62 -16 62 -1 0 -3 10
-5 23 -2 12 -6 32 -8 45 -2 12 -5 24 -6 27 -2 3 -4 10 -5 15 -1 6 -5 18 -10
28 -4 10 -5 21 -1 24 3 3 1 11 -4 18 -5 6 -12 34 -15 61 -3 27 -8 61 -10 77
-3 15 -7 42 -10 60 -3 17 -8 46 -10 62 -11 62 -17 111 -20 145 -1 19 -5 49 -9
65 -8 37 -16 316 -8 295 3 -8 20 -30 39 -48z m4728 26 c-3 -7 -7 -47 -9 -88
-5 -76 -11 -131 -22 -218 -3 -26 -7 -59 -9 -74 -1 -16 -3 -29 -5 -30 -5 -7
-10 -48 -11 -96 -1 -28 -5 -54 -9 -57 -4 -2 -5 -16 -2 -30 2 -14 0 -25 -4 -25
-5 0 -10 -12 -10 -27 -3 -61 -14 -118 -24 -121 -6 -2 -8 -8 -5 -13 4 -5 1 -17
-4 -26 -8 -14 -10 -15 -11 -3 0 8 -7 2 -15 -14 -9 -17 -14 -37 -12 -45 3 -10
5 -8 6 6 1 22 18 40 28 29 3 -3 1 -12 -5 -19 -7 -8 -9 -16 -6 -19 3 -3 -1 -22
-10 -41 -8 -19 -12 -38 -9 -41 3 -2 1 -10 -3 -17 -4 -7 -9 -24 -10 -37 -2 -13
-8 -30 -14 -37 -7 -8 -9 -19 -6 -24 4 -5 2 -12 -3 -16 -6 -3 -8 -12 -4 -20 3
-8 0 -15 -7 -15 -6 0 -9 -4 -6 -9 7 -10 -54 -195 -65 -199 -4 -2 -5 -10 -2
-18 3 -8 1 -14 -4 -14 -5 0 -10 -10 -10 -22 -1 -13 -7 -24 -12 -26 -5 -2 -7
-10 -4 -18 3 -8 1 -14 -4 -14 -5 0 -9 -10 -10 -22 -1 -11 -8 -25 -15 -29 -7
-5 -9 -9 -4 -9 4 0 2 -10 -7 -23 -8 -12 -18 -37 -21 -55 -4 -17 -12 -32 -18
-32 -6 0 -9 -3 -5 -6 3 -4 -6 -30 -20 -58 -15 -28 -26 -54 -25 -58 1 -5 -3 -8
-9 -8 -5 0 -7 -4 -4 -10 3 -5 1 -10 -5 -10 -6 0 -8 -4 -5 -10 3 -5 1 -10 -4
-10 -6 0 -10 -3 -9 -7 4 -13 -102 -203 -113 -203 -6 0 -8 -4 -4 -9 9 -16 -15
-24 -30 -11 -8 7 -15 9 -15 5 0 -4 -6 -2 -14 4 -8 6 -20 10 -27 9 -9 -2 -13 4
-11 15 2 12 -4 17 -20 17 -18 0 -20 -2 -8 -10 8 -5 12 -11 9 -15 -8 -7 -69 6
-69 15 0 5 -9 6 -20 3 -11 -3 -20 -1 -20 3 0 5 -17 10 -37 11 -20 1 -39 7 -43
13 -4 6 -14 8 -23 4 -10 -4 -17 -1 -17 6 0 7 -7 10 -16 6 -9 -4 -23 -1 -32 6
-8 7 -17 12 -19 10 -8 -7 -93 11 -93 20 0 5 -4 6 -10 3 -5 -3 -15 -3 -22 1 -7
4 -26 9 -42 11 -17 2 -34 9 -38 16 -4 6 -8 9 -8 5 0 -4 -18 -1 -40 7 -41 15
-43 15 -60 15 -5 0 -6 8 -3 18 6 16 6 16 -11 -1 -13 -13 -22 -15 -31 -7 -7 6
-32 13 -56 16 -24 3 -48 8 -53 12 -11 7 -16 8 -51 11 -19 2 -19 2 -2 15 10 8
17 17 15 20 -2 3 4 14 12 24 8 10 16 23 17 28 1 5 17 36 36 69 20 33 48 86 63
118 15 31 31 57 36 57 5 0 7 4 3 9 -3 5 2 16 10 25 9 8 15 18 14 21 -3 9 54
129 64 136 5 3 8 10 8 15 -1 14 22 74 29 74 3 0 6 10 7 22 1 11 8 25 15 29 7
5 10 9 5 9 -4 0 0 11 9 25 9 14 13 25 9 25 -4 0 -2 7 5 15 7 8 9 15 6 15 -4 0
0 7 8 16 9 8 16 24 16 35 0 11 4 18 9 14 6 -3 15 4 21 15 6 11 15 18 19 15 5
-3 11 2 15 10 3 8 12 15 21 15 8 0 15 5 15 11 0 5 4 8 9 5 5 -3 12 1 15 10 3
8 10 12 16 9 5 -3 10 -3 10 2 0 10 71 59 82 56 4 -2 8 1 8 5 0 10 124 102 137
102 4 0 14 9 21 20 7 12 17 18 22 15 6 -3 10 -2 10 3 0 7 201 180 220 190 13
6 360 353 360 359 0 13 64 73 78 73 7 0 10 5 7 11 -4 5 1 19 11 30 20 22 25
24 19 7z m-1334 -1122 c-11 -19 -17 -37 -14 -40 4 -3 0 -6 -7 -6 -7 0 -10 -3
-7 -6 3 -4 -13 -43 -36 -88 -23 -45 -57 -114 -76 -154 -19 -40 -38 -72 -43
-72 -5 0 -6 -4 -3 -10 3 -5 2 -10 -2 -10 -5 0 -17 -20 -27 -45 -11 -25 -23
-45 -28 -45 -5 0 -6 -4 -3 -10 3 -5 1 -10 -5 -10 -6 0 -8 -4 -5 -10 3 -5 1
-10 -4 -10 -6 0 -10 -3 -9 -7 4 -13 -32 -73 -43 -73 -6 0 -8 -3 -6 -7 3 -5 -6
-9 -19 -9 -13 -1 -24 1 -24 5 0 3 -17 7 -37 9 -20 1 -40 7 -43 13 -4 6 -21 11
-38 11 -18 1 -32 5 -32 10 0 5 -4 7 -10 3 -5 -3 -25 1 -44 9 -19 8 -37 12 -40
9 -3 -3 -12 0 -21 7 -8 7 -15 9 -15 5 0 -4 -7 -2 -15 5 -8 7 -15 10 -15 7 0
-3 -15 -1 -32 4 -18 6 -39 11 -46 13 -8 1 -17 8 -22 15 -5 9 -10 10 -14 3 -4
-7 -18 -6 -42 4 -19 8 -39 12 -44 9 -5 -3 -11 -1 -14 4 -3 5 -16 7 -29 5 -12
-3 0 5 27 16 27 12 55 19 62 16 8 -3 11 0 7 10 -3 8 -2 14 3 12 5 -1 19 3 30
10 12 6 24 8 28 5 3 -3 6 -1 6 6 0 7 5 9 10 6 6 -3 10 -2 10 3 0 9 61 39 90
44 8 2 17 6 20 9 8 11 90 50 90 43 0 -3 12 4 26 15 15 11 30 18 35 15 5 -3 9
-1 9 5 0 5 10 13 23 17 12 3 29 13 39 21 9 8 23 16 32 17 8 1 23 9 33 18 25
22 83 50 83 41 0 -5 4 -3 8 3 9 14 139 94 152 94 6 0 10 5 10 11 0 8 6 7 17
-2 13 -11 15 -11 9 -1 -8 13 22 44 35 36 4 -2 9 3 13 11 3 8 10 15 16 15 5 0
1 -15 -9 -34z m-2073 -26 c7 0 12 -4 12 -8 0 -5 17 -17 38 -28 20 -10 39 -22
42 -25 3 -4 15 -10 28 -14 14 -4 21 -12 18 -20 -3 -9 2 -11 15 -8 11 3 19 0
19 -6 0 -7 4 -10 9 -7 5 3 12 -1 15 -10 3 -8 10 -12 16 -9 5 3 10 1 10 -5 0
-6 5 -8 12 -4 7 5 9 2 5 -9 -4 -11 -2 -14 8 -11 8 3 26 -3 41 -15 14 -11 31
-18 38 -14 6 4 4 -2 -4 -12 -14 -17 -13 -18 13 -11 16 4 27 2 27 -4 0 -5 4 -9
8 -8 10 4 266 -124 270 -135 2 -4 8 -5 13 -1 5 3 9 0 9 -6 0 -6 4 -9 9 -5 5 3
15 0 23 -7 7 -7 22 -15 33 -16 11 -2 23 -9 27 -15 4 -7 8 -8 8 -3 0 6 5 5 12
-2 7 -7 21 -12 32 -12 23 0 17 -8 -10 -13 -10 -1 -25 -6 -32 -11 -7 -4 -16 -5
-19 -2 -3 3 -12 1 -20 -5 -7 -6 -13 -8 -13 -4 0 4 -6 3 -12 -3 -12 -10 -167
-56 -220 -66 -13 -3 -23 -5 -23 -6 0 -1 -14 -3 -31 -5 -17 -3 -44 -9 -60 -15
-16 -6 -30 -11 -31 -11 -1 0 -14 -6 -29 -13 -30 -16 -60 -14 -56 4 1 6 -2 9
-7 5 -6 -3 -15 4 -21 15 -6 11 -8 20 -5 20 3 0 -3 10 -15 22 -19 20 -24 33
-21 51 0 4 -4 7 -10 7 -5 0 -7 5 -4 10 3 6 1 10 -4 10 -6 0 -11 5 -11 11 0 6
-7 17 -15 26 -8 8 -13 19 -10 24 4 5 1 9 -5 9 -6 0 -9 4 -6 9 4 5 3 11 -1 13
-14 5 -123 225 -116 231 3 4 1 7 -6 7 -7 0 -9 5 -6 10 3 6 2 10 -2 10 -7 0
-35 60 -38 80 0 3 -3 10 -6 15 -22 38 -18 45 15 20 18 -14 38 -25 44 -25z
m1012 -524 c0 4 7 1 15 -6 8 -6 18 -9 23 -6 5 3 19 -1 33 -8 13 -7 30 -11 37
-8 6 2 12 -1 12 -8 0 -6 5 -8 10 -5 6 4 17 1 25 -5 8 -7 22 -10 30 -6 8 3 15
1 15 -4 0 -5 6 -7 14 -4 8 3 17 1 20 -5 4 -6 14 -7 23 -4 13 5 15 2 10 -11 -5
-13 -3 -15 9 -8 22 12 64 3 64 -15 0 -10 5 -11 17 -5 15 9 73 -1 98 -16 6 -4
18 -5 28 -4 9 2 17 -2 17 -8 0 -7 6 -10 14 -7 8 3 17 3 21 -1 4 -4 10 -7 13
-8 23 -2 99 -28 110 -37 11 -9 10 -13 -5 -24 -10 -8 -17 -17 -15 -21 5 -9 -41
-82 -51 -82 -4 0 -5 -5 -2 -10 3 -6 -1 -13 -9 -16 -9 -3 -13 -10 -10 -15 3 -5
0 -9 -5 -9 -6 0 -11 -7 -11 -15 0 -8 -5 -15 -11 -15 -5 0 -7 -5 -4 -10 3 -6
-1 -13 -9 -16 -9 -3 -14 -10 -11 -14 2 -4 -6 -19 -20 -34 -13 -15 -25 -30 -25
-34 0 -4 -6 -14 -14 -24 -8 -9 -12 -19 -9 -22 3 -3 -2 -8 -11 -12 -9 -3 -13
-10 -10 -15 3 -5 -2 -12 -10 -15 -9 -3 -16 -12 -16 -20 0 -8 -5 -14 -11 -14
-5 0 -7 -5 -4 -10 3 -6 -1 -13 -9 -16 -9 -3 -16 -12 -16 -20 0 -8 -5 -14 -11
-14 -5 0 -8 -4 -5 -9 3 -4 -6 -18 -19 -31 -13 -13 -22 -27 -19 -32 3 -4 -2
-11 -10 -14 -9 -3 -16 -12 -16 -20 0 -8 -4 -14 -10 -14 -5 0 -9 -3 -7 -8 1 -4
-13 -31 -32 -60 -24 -39 -38 -51 -50 -47 -12 5 -13 4 -4 -6 12 -12 -5 -45 -49
-93 -10 -11 -18 -23 -18 -28 0 -5 -21 -39 -46 -77 -31 -47 -51 -68 -60 -64 -8
3 -13 7 -10 10 2 2 -7 16 -20 30 -13 14 -24 32 -24 38 0 7 -7 16 -16 19 -9 4
-14 9 -12 12 3 3 -7 19 -23 36 -15 17 -26 35 -24 39 3 4 -2 10 -11 13 -8 3
-12 10 -9 16 3 5 1 10 -5 10 -6 0 -13 7 -17 16 -3 9 -16 28 -29 41 -13 14 -21
29 -19 33 3 4 -2 11 -11 14 -8 3 -13 10 -10 15 3 5 -1 11 -9 15 -8 3 -15 12
-15 20 0 7 -7 17 -16 20 -8 3 -13 10 -10 15 3 5 -1 12 -10 15 -8 3 -12 10 -9
16 3 5 2 10 -2 10 -11 0 -93 115 -93 130 0 5 -4 10 -8 10 -5 0 -17 16 -28 35
-10 19 -22 35 -27 35 -4 0 -5 5 -2 10 3 6 1 10 -4 10 -6 0 -11 7 -11 15 0 8
-5 15 -11 15 -6 0 -9 9 -6 19 3 14 1 18 -9 14 -8 -3 -14 1 -14 11 0 9 -4 16
-10 16 -5 0 -10 7 -10 15 0 8 -4 15 -8 15 -9 0 -92 124 -92 138 0 6 -6 13 -12
16 -10 5 -10 7 1 12 10 5 6 10 -15 19 -28 11 -28 12 41 29 38 10 74 21 80 26
8 6 58 21 85 25 3 0 11 4 18 9 7 4 16 5 19 2 3 -3 12 -1 20 5 7 6 13 8 13 4 0
-4 7 -2 15 5 8 7 15 10 15 7 0 -8 68 12 118 34 23 11 47 17 52 14 6 -3 10 -1
10 5 0 6 4 9 9 5 5 -3 13 0 16 6 4 5 13 8 21 5 8 -3 14 -1 14 5 0 6 5 7 11 3
6 -3 15 -1 19 7 7 10 11 10 24 0 9 -7 13 -17 10 -22 -3 -5 0 -9 5 -9 14 0 14
17 1 25 -20 12 1 24 25 15 14 -5 25 -7 25 -4z m910 -238 c0 3 5 1 11 -5 6 -6
18 -9 25 -6 8 3 14 0 14 -6 0 -7 6 -11 13 -10 23 5 97 -13 97 -22 0 -6 4 -8 8
-5 7 4 138 -27 172 -41 8 -3 18 -7 23 -8 4 -2 10 -4 15 -5 4 -1 11 -2 16 -1 4
1 13 -2 20 -7 6 -5 24 -9 40 -10 16 -1 34 -6 41 -12 6 -5 15 -7 18 -3 4 3 13
0 21 -6 8 -7 20 -10 26 -6 5 3 10 1 10 -4 0 -6 3 -10 8 -9 4 1 25 -4 46 -10
22 -6 43 -9 48 -6 5 3 15 0 23 -6 8 -6 19 -9 24 -6 5 4 13 2 16 -4 4 -6 15 -8
25 -5 10 3 21 1 25 -5 4 -6 16 -8 28 -5 20 6 21 5 5 -8 -10 -8 -16 -16 -13
-19 3 -2 -10 -21 -29 -41 -19 -20 -31 -37 -27 -37 3 -1 -5 -10 -18 -20 -13
-11 -20 -20 -16 -20 5 0 -8 -16 -28 -35 -21 -20 -37 -39 -37 -42 0 -10 -234
-243 -244 -243 -4 0 -17 -11 -28 -26 -11 -14 -23 -23 -25 -20 -3 3 -14 -6 -25
-19 -11 -14 -23 -23 -28 -20 -4 3 -10 -1 -13 -9 -5 -13 -156 -113 -163 -108
-2 1 -13 -7 -24 -18 -12 -12 -25 -18 -30 -15 -4 3 -10 1 -12 -4 -5 -13 -145
-81 -152 -74 -3 4 -6 1 -6 -5 0 -7 -3 -11 -7 -10 -5 1 -22 -6 -40 -15 -18 -9
-42 -19 -55 -21 -13 -3 -24 -5 -25 -5 -2 -1 -6 -1 -9 0 -4 0 -10 -4 -14 -11
-4 -6 -18 -12 -31 -14 -13 -2 -37 -9 -53 -15 -16 -6 -40 -13 -55 -14 -15 -2
-33 -7 -40 -11 -7 -4 -15 -5 -18 -2 -3 3 -12 1 -19 -5 -8 -6 -20 -9 -29 -6 -8
4 -17 2 -20 -3 -3 -5 -16 -10 -28 -10 -45 0 -94 -7 -105 -14 -16 -10 -222 -16
-222 -7 0 5 11 20 24 34 13 14 21 28 19 31 -3 3 2 8 11 12 9 3 13 10 10 15 -3
5 2 12 10 15 9 3 13 10 10 15 -3 5 2 12 10 15 9 3 14 9 11 13 -2 4 10 23 27
42 17 19 31 36 30 39 -1 3 6 14 15 25 10 11 18 22 18 25 2 16 37 70 45 70 6 0
9 3 8 8 -4 11 42 82 53 82 6 0 7 5 4 10 -3 6 1 13 9 16 9 3 16 12 16 20 0 8 9
23 19 33 11 11 17 22 14 25 -3 3 2 8 11 12 9 3 16 12 16 20 0 8 5 14 11 14 5
0 7 5 4 10 -3 6 1 13 9 16 9 3 13 10 10 15 -3 5 2 12 10 15 9 3 16 12 16 20 0
8 5 14 11 14 5 0 8 4 5 9 -3 5 5 20 19 35 13 14 22 26 19 26 -7 0 57 93 70
102 6 4 7 8 2 8 -6 0 3 14 19 30 16 17 26 30 22 30 -8 0 93 164 104 168 5 2 9
10 9 17 0 8 10 24 23 36 12 12 15 18 7 14 -13 -8 -13 -6 -2 7 11 14 19 14 62
3 28 -7 50 -10 50 -7z m-1698 -31 c7 -12 11 -26 10 -30 -1 -4 4 -10 12 -13 8
-3 12 -12 9 -20 -4 -11 -9 -12 -19 -3 -9 7 -14 8 -14 1 0 -6 18 -18 40 -28 21
-10 37 -21 34 -25 -2 -4 2 -11 9 -16 17 -10 109 -143 99 -143 -4 0 1 -5 11
-11 9 -6 15 -14 12 -20 -4 -5 -1 -9 5 -9 6 0 16 -13 21 -29 6 -16 17 -32 25
-35 21 -8 7 -27 -14 -19 -9 3 -14 3 -10 -2 4 -4 17 -8 28 -9 11 0 20 -4 21 -8
0 -4 13 -21 30 -39 16 -17 28 -34 25 -36 -2 -2 7 -16 20 -30 13 -14 24 -32 24
-38 0 -7 8 -16 17 -19 12 -5 14 -9 5 -18 -15 -15 -16 -52 -2 -43 6 3 10 0 11
-7 0 -10 2 -10 6 0 7 17 23 15 23 -3 0 -8 4 -15 9 -15 10 0 66 -82 63 -92 -1
-5 2 -8 7 -8 13 0 91 -116 84 -124 -4 -3 -2 -6 4 -6 12 0 78 -90 66 -90 -4 0
0 -5 10 -11 9 -5 17 -14 17 -19 0 -5 13 -23 30 -41 31 -34 30 -54 -1 -46 -11
3 -16 1 -13 -5 3 -5 15 -8 25 -5 25 7 34 -9 11 -18 -24 -9 -232 6 -232 16 0 5
-11 7 -24 3 -14 -3 -30 -3 -37 2 -7 4 -30 9 -53 11 -23 2 -48 6 -56 9 -8 4
-27 8 -41 10 -15 2 -39 9 -55 15 -16 7 -35 11 -41 10 -7 -1 -13 3 -13 8 0 6
-7 8 -15 5 -8 -4 -15 -1 -15 6 0 6 -4 9 -9 5 -5 -3 -12 -1 -16 4 -3 6 -12 8
-20 4 -8 -3 -15 1 -15 8 0 7 -3 9 -7 6 -3 -4 -12 -2 -20 4 -7 6 -13 9 -13 6 0
-3 -13 -1 -30 4 -16 6 -30 15 -30 21 0 5 -4 6 -10 3 -5 -3 -10 -1 -10 5 0 6
-4 9 -9 5 -11 -6 -61 15 -61 26 0 4 -13 10 -29 14 -15 3 -38 15 -50 26 -11 11
-21 17 -21 14 0 -3 -14 2 -30 12 -20 11 -28 23 -25 33 5 11 3 12 -6 3 -9 -9
-21 -6 -50 14 -22 14 -39 30 -39 35 0 5 -4 7 -8 4 -5 -3 -23 8 -40 24 -18 16
-32 27 -32 24 0 -4 -114 87 -155 125 -74 67 -195 187 -195 194 0 4 -14 20 -30
34 -17 13 -28 28 -25 33 3 4 -6 15 -20 24 -14 9 -25 21 -25 27 0 5 -9 20 -21
32 -40 43 -41 54 -6 62 18 4 35 9 40 10 4 1 10 4 15 5 4 1 12 3 17 5 6 1 12 3
15 4 8 4 44 12 55 13 6 0 19 -3 30 -7 16 -5 17 -5 5 4 -8 6 -13 11 -10 12 3 0
19 3 35 5 17 3 34 9 39 15 6 5 22 9 36 9 14 0 31 5 38 12 7 7 12 8 12 4 0 -5
6 -3 14 3 8 6 18 11 22 10 5 -1 22 3 37 9 16 7 32 10 37 7 5 -3 12 0 15 6 4 5
13 8 21 5 8 -3 14 -1 14 5 0 6 6 9 14 6 7 -3 17 -2 22 3 5 5 27 11 48 14 22 4
46 11 53 18 7 6 16 8 20 5 3 -3 19 1 35 9 22 11 33 13 41 5 6 -6 16 -11 22
-11 5 0 3 4 -5 10 -11 7 -9 11 13 19 16 6 39 11 52 11 13 0 27 5 30 10 9 14
41 -5 57 -33z"/>
</g>
</svg>
