<?xml version="1.0" standalone="no"?>
<!DOCTYPE svg PUBLIC "-//W3C//DTD SVG 20010904//EN"
 "http://www.w3.org/TR/2001/REC-SVG-20010904/DTD/svg10.dtd">
<svg version="1.0" xmlns="http://www.w3.org/2000/svg"
 width="1024.000000pt" height="1024.000000pt" viewBox="0 0 1024.000000 1024.000000"
 preserveAspectRatio="xMidYMid meet">
<metadata>
Created by potrace 1.16, written by Peter Selinger 2001-2019
</metadata>
<g transform="translate(0.000000,1024.000000) scale(0.100000,-0.100000)"
fill="#000000" stroke="none">
<path d="M4885 8600 c-38 -5 -76 -7 -82 -5 -7 2 -13 0 -13 -5 0 -6 -10 -10
-22 -10 -35 0 -152 -28 -258 -63 -125 -40 -232 -86 -360 -155 -58 -31 -108
-55 -112 -54 -5 1 -8 -2 -8 -7 0 -10 -91 -67 -102 -63 -5 1 -8 -2 -8 -8 0 -5
-19 -22 -42 -37 -24 -15 -47 -34 -51 -41 -7 -10 -12 -10 -23 -1 -12 9 -13 9
-9 -3 4 -9 -17 -34 -57 -69 -83 -71 -223 -203 -223 -209 0 -6 -101 -124 -142
-167 -13 -13 -23 -26 -23 -29 0 -3 -20 -31 -44 -62 -119 -156 -286 -444 -372
-645 -26 -61 -53 -115 -59 -119 -5 -4 -7 -8 -3 -8 7 0 -35 -121 -50 -145 -4
-5 -7 -14 -8 -20 -1 -5 -20 -68 -43 -139 -22 -71 -41 -135 -41 -142 0 -8 -4
-14 -9 -14 -5 0 -8 -6 -8 -12 2 -25 -27 -138 -36 -138 -4 0 -6 -4 -3 -9 4 -5
-1 -37 -10 -70 -21 -84 -25 -101 -29 -141 -3 -19 -11 -69 -20 -110 -8 -41 -17
-93 -19 -115 -14 -155 -18 -192 -23 -205 -10 -29 -22 -298 -21 -505 0 -238 11
-419 34 -571 4 -26 2 -44 -5 -48 -6 -4 -11 -13 -11 -19 0 -8 3 -7 9 2 10 15
18 -13 25 -79 2 -19 7 -43 11 -52 4 -9 4 -22 0 -28 -4 -6 -2 -17 4 -24 6 -7
13 -38 16 -69 3 -31 10 -69 16 -84 7 -19 7 -29 0 -31 -14 -5 -14 -42 -1 -62 8
-13 10 -13 10 0 0 31 21 -8 23 -44 1 -20 5 -36 9 -36 6 0 18 -43 24 -85 1 -11
3 -21 4 -22 2 -2 3 -6 5 -10 1 -5 4 -15 7 -23 8 -21 28 -82 28 -86 0 -13 -19
-1 -22 14 -3 16 -4 16 -10 0 -5 -13 -1 -19 15 -23 18 -5 29 -26 57 -108 19
-56 35 -104 35 -107 1 -3 6 -15 13 -28 7 -12 9 -22 5 -22 -4 0 -3 -4 2 -8 6
-4 21 -29 32 -57 16 -37 18 -52 10 -57 -8 -5 -6 -8 6 -8 10 0 16 -4 13 -9 -4
-5 -2 -11 3 -13 15 -5 102 -198 95 -210 -4 -6 -2 -8 4 -5 6 4 26 -21 47 -60
21 -36 48 -82 61 -101 13 -19 21 -38 18 -43 -3 -5 -1 -9 4 -9 9 0 118 -161
115 -170 -1 -3 5 -9 13 -13 8 -4 14 -14 14 -21 0 -8 7 -17 16 -20 10 -4 14
-14 11 -25 -3 -12 0 -18 7 -15 6 2 28 -16 49 -41 26 -31 33 -45 22 -45 -8 0
-14 5 -12 11 1 6 -2 13 -8 15 -5 2 -10 -7 -10 -21 0 -19 4 -23 21 -19 24 6 84
-39 84 -62 0 -9 -4 -13 -9 -9 -5 3 -13 0 -17 -6 -5 -9 0 -10 16 -6 19 5 42
-13 139 -105 64 -61 131 -126 149 -144 18 -19 36 -34 40 -34 5 0 25 -15 45
-34 20 -18 39 -31 41 -29 3 3 11 -4 18 -16 7 -12 19 -21 26 -21 7 0 15 -7 18
-15 4 -8 10 -12 15 -9 5 3 12 -2 15 -10 3 -9 10 -14 14 -11 5 3 13 -3 19 -12
5 -10 13 -17 18 -16 4 1 7 -5 7 -13 -1 -11 2 -12 10 -5 9 8 19 5 34 -9 12 -11
25 -20 29 -20 5 0 16 -7 26 -15 9 -8 17 -12 17 -9 0 7 123 -58 131 -69 3 -5 8
-8 10 -6 7 4 79 -22 79 -30 0 -4 10 -8 22 -8 13 -1 24 -7 26 -13 2 -5 7 -8 11
-5 4 2 39 -7 78 -20 80 -27 288 -75 325 -75 14 0 27 -3 31 -6 15 -15 401 -18
512 -4 38 5 72 8 75 8 3 -1 12 1 20 4 8 3 51 14 95 23 267 59 554 193 785 366
49 37 92 64 97 60 4 -3 5 -2 1 3 -7 9 35 48 48 46 4 -1 11 5 16 14 5 9 14 13
20 10 6 -4 8 -3 5 3 -4 5 7 23 23 38 17 16 30 27 30 24 0 -8 143 133 165 163
35 46 178 213 189 220 6 4 8 8 4 8 -7 0 68 105 112 158 10 12 17 22 14 22 -6
0 68 114 78 121 6 3 10 10 10 15 1 17 21 54 30 54 4 0 7 3 6 8 -3 9 134 284
145 293 5 3 8 9 7 13 -3 12 34 101 44 108 6 4 8 8 4 8 -10 0 23 83 36 92 6 4
8 8 4 8 -4 0 4 33 18 73 31 91 98 323 115 400 7 32 16 60 20 63 5 2 6 11 2 19
-3 9 0 21 6 29 6 7 8 15 5 18 -3 3 2 34 11 69 10 35 19 80 21 99 8 68 25 185
30 209 4 20 7 22 15 10 7 -12 9 -11 9 3 0 9 -5 18 -11 20 -7 2 -7 29 1 93 15
123 17 172 18 455 1 247 -1 294 -13 430 -4 41 -8 95 -10 120 -2 25 -17 126
-34 224 -16 99 -28 183 -25 188 3 4 0 8 -7 8 -6 0 -9 8 -6 20 3 11 1 23 -4 26
-6 3 -9 13 -8 22 1 10 -1 24 -4 32 -8 21 -69 252 -71 270 -1 9 -5 20 -8 25 -3
6 -20 55 -38 110 -37 115 -139 373 -180 457 -16 31 -26 59 -22 62 3 3 -1 6 -8
6 -7 0 -11 3 -8 6 4 3 -5 22 -18 41 -13 19 -21 39 -18 44 3 5 1 9 -4 9 -5 0
-17 19 -28 43 -10 23 -23 45 -29 49 -6 5 -6 8 0 8 6 0 5 3 -1 8 -15 10 -115
172 -106 172 4 0 -1 5 -11 11 -14 8 -16 14 -6 25 9 12 9 13 -3 9 -10 -4 -24 9
-43 37 -35 54 -127 169 -179 226 -21 23 -36 42 -34 42 11 0 -261 260 -327 312
-38 31 -108 81 -155 112 -47 30 -93 62 -102 71 -10 8 -19 14 -20 13 -5 -4
-263 127 -270 137 -4 6 -8 7 -8 3 0 -4 -30 4 -67 18 -103 38 -231 72 -361 95
-132 24 -447 34 -567 19z m170 -162 c-10 -53 -49 -158 -58 -158 -4 0 -5 -4 -2
-10 3 -5 1 -10 -5 -10 -6 0 -8 -4 -5 -10 3 -5 -2 -10 -12 -10 -15 0 -16 -2 -3
-10 11 -7 11 -10 2 -10 -7 0 -10 -4 -7 -10 3 -5 1 -10 -5 -10 -6 0 -8 -4 -5
-10 3 -5 1 -10 -4 -10 -6 0 -10 -3 -9 -7 6 -18 -201 -316 -230 -333 -10 -5
-13 -10 -9 -10 8 0 -100 -140 -132 -170 -9 -9 -20 -23 -26 -32 -5 -9 -61 -87
-123 -173 -63 -87 -116 -164 -119 -171 -3 -8 -10 -11 -16 -7 -6 4 -8 0 -4 -10
8 -21 -10 -32 -28 -17 -12 10 -15 10 -15 1 0 -14 -63 -10 -130 10 -25 7 -48
12 -52 11 -14 -3 -113 20 -124 29 -6 5 -14 6 -17 2 -4 -3 -13 -1 -20 5 -8 7
-16 10 -19 7 -4 -5 -146 29 -178 42 -8 3 -23 8 -33 10 -40 7 -175 68 -224 100
-56 37 -55 34 -10 84 9 10 17 23 17 29 0 5 6 13 14 17 7 4 15 13 17 20 5 16
85 107 184 212 89 94 261 241 282 241 7 0 13 4 13 10 0 10 161 117 250 167 68
38 199 94 223 96 9 1 17 4 17 8 0 5 60 26 100 35 3 0 12 4 20 7 20 8 171 45
190 46 8 0 49 7 90 15 41 8 106 14 143 15 l69 1 -7 -32z m313 20 c50 -6 92
-15 92 -20 0 -5 5 -6 11 -2 13 8 229 -46 229 -58 0 -4 -5 -8 -12 -8 -6 0 -8
-3 -5 -6 4 -4 14 -1 23 6 13 12 17 11 25 -1 5 -8 9 -11 9 -7 0 8 111 -30 120
-41 3 -3 12 -7 20 -9 30 -6 144 -63 229 -114 104 -63 261 -176 261 -189 0 -5
7 -9 15 -9 8 0 19 -9 25 -20 6 -11 16 -20 23 -20 26 0 285 -278 370 -396 35
-49 48 -82 27 -69 -5 3 -7 0 -4 -9 4 -11 -18 -27 -86 -61 -50 -25 -95 -43
-100 -40 -6 4 -10 1 -10 -5 0 -7 -6 -10 -14 -7 -8 3 -16 2 -18 -3 -2 -5 -12
-11 -23 -13 -11 -1 -24 -5 -30 -9 -10 -6 -73 -22 -90 -23 -5 0 -16 -4 -23 -9
-7 -4 -16 -5 -19 -2 -3 3 -11 1 -18 -4 -7 -5 -25 -11 -41 -13 -17 -2 -34 -6
-39 -9 -16 -9 -165 -39 -212 -42 -13 0 -23 -5 -23 -10 0 -4 -9 -6 -20 -3 -11
3 -23 1 -26 -5 -3 -5 -15 -8 -25 -5 -10 3 -20 0 -23 -7 -2 -6 -8 -1 -11 12 -4
12 -11 22 -15 22 -5 0 -18 20 -30 44 -11 24 -28 50 -36 56 -7 7 -14 18 -14 25
0 8 -4 15 -8 17 -12 4 -112 146 -112 158 0 6 -4 10 -8 10 -5 0 -27 26 -50 58
-23 31 -50 66 -60 77 -35 38 -102 121 -102 127 0 3 -14 22 -31 41 -43 49 -115
146 -131 177 -7 14 -16 27 -19 30 -30 27 -122 194 -112 204 4 3 2 6 -3 6 -9 0
-36 58 -40 85 -1 6 -3 12 -4 15 -2 6 -6 26 -13 62 -5 27 -4 27 41 27 26 -1 89
-6 140 -11z m-235 -238 c3 -14 35 -74 72 -135 38 -60 73 -120 79 -132 6 -13
14 -23 17 -23 4 0 24 -26 45 -57 22 -31 54 -73 71 -92 18 -20 33 -40 33 -45 0
-4 11 -17 26 -28 14 -11 23 -22 21 -24 -2 -3 13 -24 34 -47 22 -23 39 -45 39
-48 0 -4 16 -23 35 -44 19 -21 32 -42 29 -47 -3 -4 2 -11 11 -14 17 -7 73 -83
71 -97 0 -5 7 -13 17 -18 9 -6 17 -17 17 -24 0 -8 5 -15 10 -15 6 0 10 -7 10
-15 0 -8 5 -15 10 -15 6 0 10 -7 10 -15 0 -8 5 -15 11 -15 6 0 9 -9 6 -19 -3
-13 0 -18 8 -15 11 5 51 -43 43 -51 -2 -2 -17 -7 -33 -10 -36 -7 -45 -10 -65
-18 -8 -4 -62 -23 -119 -42 -80 -26 -107 -32 -118 -23 -10 8 -12 8 -8 -3 8
-20 -148 -72 -165 -55 -8 8 -9 6 -4 -8 5 -13 4 -17 -4 -12 -6 4 -23 0 -36 -9
-14 -9 -29 -14 -35 -11 -5 3 -11 1 -13 -4 -2 -6 -13 -12 -26 -13 -12 0 -22 -5
-22 -10 0 -5 -7 -7 -15 -3 -8 3 -15 1 -15 -5 0 -6 -10 -9 -22 -8 -13 2 -29 0
-35 -4 -8 -5 -13 -3 -13 3 0 6 -4 8 -10 5 -5 -3 -23 1 -40 10 -16 8 -32 15
-35 16 -6 0 -73 24 -110 40 -16 7 -36 11 -42 10 -7 -1 -13 4 -13 10 0 7 -3 9
-7 6 -3 -4 -12 -2 -20 4 -7 6 -13 9 -13 6 0 -5 -118 32 -160 50 -8 3 -20 7
-27 9 -7 1 -34 9 -60 17 -26 9 -81 25 -122 38 -65 19 -72 23 -57 34 10 7 17
16 16 20 -2 7 121 187 147 215 7 8 49 63 93 121 44 59 87 110 96 113 8 3 13
10 10 14 -3 5 14 29 37 54 23 25 43 50 45 55 7 18 77 103 84 103 4 0 8 7 8 15
0 7 8 19 18 24 9 6 13 11 9 11 -8 0 70 121 86 131 5 3 9 10 9 15 1 11 71 154
74 151 2 -1 5 -14 7 -27z m-1787 -840 c8 0 14 -3 14 -7 0 -5 21 -16 46 -27 34
-14 44 -22 39 -35 -5 -12 -3 -13 6 -4 13 13 69 -2 69 -19 0 -5 4 -7 8 -4 7 4
99 -25 162 -51 8 -3 24 -8 35 -9 35 -6 159 -35 175 -41 8 -3 22 -7 30 -9 8 -1
26 -5 40 -8 14 -3 43 -7 65 -11 22 -3 58 -11 80 -17 22 -6 49 -12 60 -13 11
-1 24 -3 29 -4 5 0 3 -8 -4 -16 -7 -8 -16 -13 -20 -10 -15 9 -22 -15 -10 -30
9 -11 9 -15 1 -15 -6 0 -11 -7 -11 -15 0 -9 -10 -35 -22 -58 -12 -23 -21 -46
-20 -51 2 -5 -4 -6 -12 -3 -9 4 -18 2 -21 -4 -4 -5 -2 -8 3 -7 6 2 12 1 14 -2
5 -8 -54 -154 -64 -161 -6 -3 -9 -9 -8 -13 1 -4 -5 -25 -14 -46 -9 -22 -15
-42 -13 -43 1 -2 -4 -11 -12 -20 -7 -10 -10 -17 -6 -17 4 0 1 -10 -8 -23 -8
-12 -18 -41 -22 -65 -4 -23 -11 -42 -16 -42 -6 0 -8 -4 -5 -8 8 -13 -51 -186
-64 -190 -8 -3 -10 0 -6 7 4 6 2 11 -3 11 -6 0 -11 -6 -11 -14 0 -16 -95 -78
-104 -69 -3 4 -6 2 -6 -4 0 -5 -17 -18 -37 -29 -21 -10 -40 -21 -43 -24 -16
-17 -150 -109 -150 -103 0 4 -7 -3 -16 -15 -13 -18 -19 -21 -30 -11 -12 9 -13
9 -9 -3 3 -8 -1 -21 -10 -28 -8 -7 -15 -9 -15 -5 0 4 -10 -4 -21 -19 -12 -15
-23 -25 -26 -23 -2 3 -15 -5 -27 -17 -241 -223 -344 -328 -455 -458 -74 -87
-138 -158 -143 -158 -5 0 -7 -3 -4 -8 2 -4 -13 -25 -35 -47 l-39 -39 5 100 c2
54 5 112 5 128 0 16 3 38 7 50 6 19 8 18 14 -9 l7 -30 1 28 c0 15 -4 35 -10
45 -9 14 -9 36 0 88 6 38 13 94 17 124 3 30 10 62 15 72 6 10 8 22 5 27 -6 8
29 204 41 231 3 8 5 20 5 25 -3 19 85 337 125 450 28 79 43 109 53 107 11 -3
12 -1 4 8 -12 12 -7 50 5 50 4 0 8 6 8 14 0 29 117 296 135 307 5 3 9 10 9 15
-2 19 11 44 21 44 6 0 9 3 5 6 -6 7 13 45 90 177 25 42 49 77 54 77 4 0 11 10
15 23 4 12 9 17 11 10 3 -7 11 -13 19 -13z m3583 0 c-2 -3 5 -14 15 -26 25
-29 68 -104 60 -104 -4 0 -12 7 -19 16 -11 15 -12 15 -18 -5 -5 -20 5 -26 40
-22 6 1 15 -4 19 -10 4 -7 3 -9 -4 -5 -6 3 -14 1 -18 -5 -4 -7 -3 -9 4 -5 13
8 44 -22 37 -35 -4 -5 -2 -9 3 -9 11 0 118 -216 174 -350 79 -188 119 -311
107 -327 -10 -11 -9 -12 5 -7 15 6 17 3 20 -38 1 -7 4 -15 7 -18 6 -6 72 -235
74 -259 0 -9 4 -21 7 -27 7 -10 19 -80 21 -119 0 -11 4 -22 8 -25 8 -5 59
-301 58 -335 0 -11 2 -40 5 -65 4 -33 3 -38 -3 -20 -8 21 -9 22 -10 5 -1 -11
6 -30 14 -42 9 -13 15 -42 15 -70 -1 -26 3 -95 8 -153 4 -58 8 -106 8 -107 -3
-5 -116 137 -116 145 0 6 -6 15 -14 19 -14 8 -226 239 -226 247 0 7 -105 111
-140 138 -19 14 -66 56 -103 92 -38 36 -72 66 -77 66 -5 0 -14 9 -20 20 -6 11
-17 20 -25 20 -8 0 -19 9 -25 20 -6 11 -15 18 -21 15 -5 -4 -9 -1 -9 5 0 6
-11 15 -25 20 -14 5 -25 14 -25 20 0 5 -6 10 -13 10 -7 0 -23 9 -35 20 -12 11
-26 20 -31 20 -6 0 -14 6 -18 13 -4 6 -25 21 -45 31 -21 11 -38 23 -38 28 0 4
-6 8 -14 8 -8 0 -16 3 -18 8 -1 4 -29 21 -61 37 -32 17 -66 38 -74 48 -9 9
-22 17 -29 17 -10 0 -34 73 -39 120 -4 37 -17 80 -25 80 -7 0 -21 44 -22 67 0
5 -3 13 -8 18 -6 8 -29 68 -35 95 -4 16 -18 48 -31 72 -8 15 -15 30 -15 33 0
6 -31 78 -69 162 -16 34 -26 64 -22 67 3 3 0 6 -6 6 -7 0 -11 4 -9 8 3 10 -35
85 -48 94 -6 5 -3 8 8 9 9 1 25 2 35 3 9 1 22 5 29 9 6 4 18 4 26 1 8 -3 18 0
22 6 5 8 11 7 23 -2 12 -10 14 -10 8 0 -7 11 5 17 28 13 5 -1 16 1 25 5 16 8
27 10 71 18 39 7 68 14 164 41 49 13 93 22 98 19 4 -3 8 -1 8 3 0 5 26 17 57
27 32 9 94 34 138 55 44 20 82 37 85 37 3 -1 16 9 30 22 20 19 48 27 39 12z
m-2522 -327 c4 -9 8 -11 12 -4 7 11 107 -13 126 -30 5 -5 19 -9 30 -9 12 0 25
-3 29 -7 4 -5 12 -9 17 -9 5 -1 11 -3 14 -4 3 -1 10 -4 15 -5 6 -1 11 -3 13
-5 1 -1 9 -3 17 -5 119 -28 158 -48 130 -65 -12 -7 -10 -9 7 -8 13 1 19 7 16
15 -4 11 0 12 18 4 47 -19 64 -24 89 -28 14 -2 30 -9 35 -15 7 -8 6 -9 -2 -4
-7 4 -13 3 -13 -3 0 -6 -12 -14 -27 -17 -16 -4 -30 -10 -33 -13 -9 -11 -291
-146 -297 -143 -3 2 -9 0 -12 -5 -10 -14 -101 -65 -101 -56 0 4 -4 3 -8 -3
-14 -22 -151 -93 -156 -81 -3 7 -5 6 -5 -3 -1 -8 -35 -34 -76 -57 -63 -35 -76
-39 -83 -26 -8 13 -10 13 -15 -1 -4 -10 -3 -15 3 -11 6 3 10 2 10 -2 0 -10
-58 -46 -79 -50 -8 -1 -18 -8 -22 -15 -5 -7 -9 -9 -9 -4 0 6 -7 1 -15 -10 -8
-10 -15 -16 -15 -13 0 13 41 123 51 135 6 8 8 14 4 14 -4 0 -2 7 5 15 7 8 9
15 6 15 -4 0 0 10 8 21 8 12 12 28 9 35 -3 8 -1 14 4 14 5 0 10 6 10 13 0 20
65 181 75 188 6 3 9 9 8 13 -3 13 24 76 33 76 4 0 5 5 2 10 -3 6 -1 10 5 10 6
0 8 5 5 10 -3 6 -1 10 5 10 6 0 8 5 5 10 -3 6 -1 10 5 10 6 0 8 5 5 10 -3 6
-1 10 5 10 6 0 8 5 5 10 -3 6 -1 10 5 10 6 0 8 5 5 10 -3 6 -1 10 5 10 6 0 8
5 5 10 -3 6 2 10 12 11 10 0 13 3 6 6 -9 3 -10 10 -3 23 8 16 15 17 51 8 22
-6 43 -17 46 -25z m1517 11 c9 -8 16 -24 16 -34 0 -10 4 -20 8 -22 4 -1 24
-35 44 -74 29 -56 34 -74 25 -84 -9 -10 -9 -11 1 -6 6 4 12 3 12 -3 0 -5 -3
-11 -7 -14 -5 -2 -2 -2 4 -1 14 4 36 -30 26 -40 -3 -3 -1 -6 6 -6 7 0 10 -4 7
-9 -4 -5 -2 -11 4 -13 5 -1 11 -12 13 -23 2 -11 9 -31 17 -45 7 -14 13 -26 12
-27 -1 -2 5 -17 13 -35 7 -18 11 -36 9 -40 -3 -5 -1 -8 4 -8 9 0 18 -25 29
-80 2 -13 9 -30 15 -37 6 -7 8 -13 4 -13 -3 0 1 -16 9 -36 19 -46 19 -50 -2
-32 -10 8 -38 25 -63 37 -25 13 -47 26 -50 30 -3 3 -26 17 -52 30 -27 13 -48
28 -48 33 0 5 -4 6 -10 3 -5 -3 -10 -1 -10 5 0 6 -5 8 -10 5 -6 -3 -13 1 -16
9 -3 9 -10 14 -14 11 -4 -3 -23 6 -43 19 -19 13 -44 27 -56 31 -12 3 -21 11
-21 16 0 6 -4 8 -9 5 -5 -4 -11 -3 -13 1 -1 5 -31 21 -65 37 -35 16 -63 33
-63 38 0 4 -3 7 -7 6 -5 -1 -19 4 -33 12 -14 8 -31 15 -39 16 -8 2 -17 8 -21
14 -4 7 -10 11 -14 11 -8 -1 -125 56 -140 69 -7 5 -16 7 -19 3 -4 -3 -7 -1 -7
5 0 7 -8 12 -17 12 -34 1 -75 50 -42 50 7 0 55 16 108 35 53 19 106 36 116 38
11 2 31 9 45 14 14 6 31 8 38 6 6 -3 12 0 12 7 0 6 4 9 9 5 5 -3 12 -1 16 5 3
5 17 10 30 10 13 0 27 5 30 10 3 6 16 10 29 10 12 0 26 3 30 7 3 4 14 8 24 10
19 4 30 7 52 16 53 20 56 20 74 1z m-767 -266 c7 -6 13 -8 13 -4 0 3 27 -7 60
-24 33 -17 63 -31 67 -31 16 -2 82 -39 88 -49 4 -6 10 -8 15 -5 4 3 13 -2 20
-10 7 -8 19 -15 27 -15 16 0 115 -49 123 -60 3 -4 34 -22 70 -39 73 -34 129
-65 146 -80 7 -5 14 -8 16 -6 2 2 40 -18 83 -46 44 -27 88 -52 98 -55 9 -4 17
-11 17 -16 0 -5 5 -6 10 -3 6 3 10 2 10 -3 0 -5 23 -19 51 -32 28 -13 62 -35
75 -47 14 -13 30 -21 35 -18 5 4 9 1 9 -4 0 -6 7 -11 15 -11 8 0 15 -5 15 -12
0 -6 3 -8 7 -5 3 4 13 -3 21 -15 12 -16 12 -23 4 -26 -7 -2 -12 -8 -12 -13 0
-6 5 -7 10 -4 11 7 19 -9 24 -46 2 -13 6 -31 10 -39 3 -8 7 -29 9 -45 2 -17 7
-36 11 -43 4 -7 4 -17 1 -22 -4 -6 -1 -18 6 -26 6 -8 9 -17 6 -21 -4 -3 -2
-13 3 -23 5 -9 12 -41 15 -71 12 -95 14 -112 29 -219 9 -58 18 -166 21 -240 3
-74 8 -157 10 -185 6 -62 -13 -439 -26 -520 -5 -33 -12 -80 -14 -105 -7 -67
-16 -101 -24 -96 -4 3 -8 -1 -8 -9 0 -8 5 -12 10 -8 5 3 7 -6 4 -23 -39 -197
-53 -260 -59 -262 -5 -2 -5 -8 -2 -13 3 -6 2 -18 -2 -27 -7 -17 -9 -29 -12
-68 -1 -12 -10 -30 -19 -40 -20 -22 -73 -57 -73 -49 0 3 -6 1 -12 -6 -7 -6
-60 -39 -118 -74 -76 -45 -108 -60 -118 -52 -7 5 -15 7 -19 3 -3 -3 -1 -6 5
-6 7 0 12 -4 12 -8 0 -7 -34 -28 -160 -99 -19 -11 -52 -30 -72 -43 -21 -12
-38 -18 -38 -13 0 4 -4 3 -8 -3 -8 -13 -94 -59 -104 -56 -5 1 -8 -3 -8 -9 0
-5 -4 -8 -9 -5 -5 4 -11 3 -13 -2 -5 -13 -115 -71 -122 -65 -3 4 -6 0 -6 -7 0
-7 -3 -11 -6 -7 -4 3 -13 -1 -21 -9 -8 -8 -19 -12 -24 -9 -5 4 -9 2 -9 -3 0
-8 -131 -72 -157 -76 -7 -1 -15 -5 -18 -8 -7 -7 -75 13 -75 22 0 4 -6 7 -13 7
-19 0 -181 74 -189 87 -4 6 -8 8 -8 3 0 -9 -124 52 -128 64 -2 5 -8 7 -13 3
-5 -3 -9 0 -9 6 0 6 -4 9 -9 5 -5 -3 -17 3 -27 12 -10 10 -20 17 -23 16 -10
-5 -131 59 -131 69 0 5 -5 6 -12 2 -8 -5 -9 -2 -5 10 4 11 3 15 -4 10 -12 -7
-89 25 -89 38 0 4 -3 7 -7 6 -5 -2 -27 8 -51 22 -30 17 -41 29 -37 40 5 11 3
12 -6 3 -9 -9 -18 -8 -38 5 -14 9 -28 19 -31 23 -3 3 -15 9 -27 13 -13 4 -23
11 -23 16 0 5 -16 14 -35 20 -19 6 -35 15 -35 19 0 4 -16 13 -35 20 -19 7 -35
17 -35 22 0 5 -4 9 -10 9 -22 0 -50 43 -65 100 -9 33 -13 65 -10 70 3 6 1 10
-5 10 -6 0 -10 8 -9 18 1 9 -1 24 -4 32 -10 27 -27 114 -29 153 -1 21 -6 41
-10 43 -14 9 -9 36 5 28 6 -4 4 1 -5 12 -10 11 -19 43 -21 74 -3 30 -7 62 -10
70 -5 13 -20 174 -27 285 -5 75 -4 459 1 535 12 169 20 247 35 330 8 47 15 92
15 100 0 8 3 22 7 30 3 8 7 24 8 35 1 11 5 31 7 45 3 14 8 41 11 60 4 19 10
44 13 55 4 11 6 28 4 38 -1 9 2 17 7 17 5 0 9 14 9 30 0 46 30 77 118 123 44
23 82 45 85 48 16 19 173 100 185 96 8 -4 12 -1 9 6 -2 7 38 36 100 70 117 65
493 254 516 259 8 2 21 9 28 16 8 7 18 10 23 7 5 -4 9 -1 9 5 0 7 7 10 15 6 8
-3 15 -1 15 4 0 17 69 24 87 8z m-1322 -680 c-4 -13 -7 -31 -19 -113 -4 -22
-11 -56 -16 -75 -5 -19 -12 -57 -16 -85 -6 -44 -8 -47 -15 -25 -7 22 -8 21 -3
-5 9 -49 7 -94 -16 -285 -29 -247 -31 -502 -5 -743 9 -87 14 -164 11 -172 -3
-8 -1 -15 3 -17 12 -5 21 -107 11 -113 -6 -4 -3 -17 6 -30 9 -14 14 -31 11
-40 -4 -8 -2 -17 4 -21 6 -3 8 -13 5 -21 -4 -9 -1 -22 5 -29 6 -8 9 -20 6 -29
-4 -8 -2 -17 2 -19 8 -5 17 -48 27 -129 3 -21 9 -49 14 -63 12 -30 1 -31 -30
-1 -14 12 -28 22 -32 22 -12 0 -188 126 -225 161 -18 17 -34 29 -37 27 -2 -2
-13 7 -24 21 -11 15 -24 26 -28 26 -10 0 -16 6 -226 211 -81 78 -146 145 -144
147 2 1 -21 26 -50 54 -30 28 -53 53 -51 55 2 2 -14 23 -37 46 -23 24 -59 64
-81 89 -22 24 -62 68 -88 97 -38 42 -46 56 -36 67 6 8 8 14 4 14 -3 0 6 13 22
30 15 16 46 52 67 80 22 27 43 50 48 50 4 0 8 6 8 14 0 8 14 26 30 39 17 14
30 30 30 35 0 17 39 44 52 36 7 -4 10 -4 6 1 -4 4 0 21 9 38 18 35 350 367
367 367 6 0 17 9 24 21 7 12 15 19 18 16 2 -2 23 13 46 34 23 21 44 37 45 35
2 -2 17 9 34 25 16 15 43 34 59 41 17 7 30 16 30 19 0 8 79 56 95 59 6 1 14 8
18 16 5 8 12 12 18 9 5 -4 9 -2 9 4 0 5 8 12 18 14 9 3 18 5 19 6 1 0 0 -5 -2
-11z m2602 -18 c6 0 16 -7 23 -15 7 -8 16 -13 20 -10 4 3 20 -8 36 -23 15 -15
24 -20 20 -12 -4 9 -2 8 7 -2 8 -10 19 -18 25 -18 6 0 12 -3 14 -7 2 -5 17
-15 33 -24 24 -12 30 -21 28 -45 -2 -28 -1 -28 10 -7 12 21 15 19 124 -68 61
-49 176 -153 255 -232 212 -211 232 -233 223 -247 -5 -8 -4 -11 3 -6 6 3 37
-25 72 -66 34 -40 77 -90 97 -110 19 -21 31 -38 27 -38 -5 0 -1 -5 8 -11 26
-15 10 -47 -70 -134 -20 -22 -55 -63 -77 -90 -136 -170 -414 -455 -555 -569
-25 -20 -65 -53 -88 -73 -82 -69 -182 -144 -182 -137 0 4 -6 1 -12 -7 -15 -18
-84 -69 -93 -69 -7 0 4 69 13 85 3 5 7 16 9 25 1 8 11 65 23 125 11 61 22 124
23 140 1 18 7 29 15 27 10 -2 10 2 0 18 -9 13 -10 23 -3 28 6 4 11 23 12 42 3
53 12 158 19 225 8 77 8 527 -1 625 -3 41 -8 104 -11 140 -5 77 -11 124 -20
164 -4 18 -3 27 3 23 5 -3 10 0 10 8 0 8 -5 13 -11 12 -6 -1 -12 12 -13 28 -1
17 -9 63 -17 104 -9 41 -14 76 -12 78 4 4 -18 110 -29 138 -8 19 -8 19 12 3
11 -10 24 -18 30 -18z m1123 -1085 c0 -15 -6 -25 -14 -25 -12 0 -12 -5 1 -31
12 -25 14 -47 8 -103 -4 -39 -6 -91 -6 -115 1 -24 -5 -53 -13 -67 -10 -14 -12
-25 -6 -29 12 -7 13 -48 3 -59 -4 -4 -8 -22 -9 -39 -3 -77 -27 -239 -41 -277
-3 -8 -7 -32 -9 -54 -2 -21 -7 -43 -11 -49 -4 -6 -8 -23 -9 -37 -6 -54 -56
-250 -65 -250 -5 0 -9 8 -10 18 0 11 -2 12 -6 4 -3 -7 1 -19 8 -28 9 -11 9
-18 1 -26 -6 -6 -8 -17 -5 -24 3 -8 0 -14 -7 -14 -6 0 -9 -4 -6 -9 7 -10 -54
-195 -66 -199 -4 -2 -6 -7 -3 -12 9 -14 -139 -360 -158 -368 -4 -2 -5 -8 -1
-13 3 -5 1 -9 -4 -9 -5 0 -9 -6 -9 -13 0 -27 -208 -376 -214 -359 -2 5 -42 29
-89 52 -47 23 -88 48 -92 54 -4 6 -8 8 -8 4 0 -3 -30 7 -67 23 -38 16 -67 32
-66 36 1 5 -13 9 -30 9 -18 1 -75 14 -127 28 -52 15 -104 28 -115 30 -11 2
-20 4 -20 6 0 1 -9 3 -20 5 -11 2 -29 5 -40 8 -11 3 -40 8 -65 12 -25 4 -50
11 -56 16 -7 6 -16 9 -20 8 -14 -2 -28 1 -42 9 -10 7 1 37 44 128 32 65 56
122 56 127 -1 4 3 7 10 7 6 0 9 3 6 6 -6 5 25 89 58 159 8 17 16 41 19 54 2
13 9 29 16 37 6 8 8 14 4 14 -4 0 -2 7 5 15 7 8 9 15 5 15 -4 0 -2 7 5 15 7 8
9 15 5 15 -4 0 -2 7 5 15 7 8 10 15 6 15 -3 0 1 17 9 38 8 20 17 48 19 62 3
14 5 26 7 28 1 1 3 7 4 12 1 6 4 13 5 18 1 4 1 12 0 17 -1 6 1 7 5 3 4 -3 14
0 23 9 10 8 55 40 102 70 248 161 461 348 774 677 25 27 46 52 46 56 0 5 19
25 43 45 23 20 35 34 27 29 -8 -4 1 9 19 29 19 21 41 37 48 37 7 0 13 7 13 16
0 15 104 144 116 144 2 0 4 -11 4 -25z m-4800 -79 c0 -4 11 -17 26 -28 14 -11
23 -23 20 -25 -3 -3 18 -27 46 -53 36 -34 49 -53 45 -64 -4 -11 -3 -15 4 -10
6 3 28 -11 50 -32 37 -36 38 -38 21 -58 -9 -11 -11 -16 -4 -12 7 4 12 2 12 -6
0 -9 3 -9 10 2 8 12 15 9 45 -20 19 -18 35 -37 35 -40 0 -8 213 -224 221 -224
6 -1 106 -86 161 -138 16 -16 31 -28 34 -28 8 0 169 -122 172 -131 2 -5 7 -7
12 -4 4 2 19 -6 33 -19 14 -13 28 -21 31 -18 3 3 6 0 6 -6 0 -7 5 -12 11 -12
19 0 70 -41 79 -64 7 -17 9 -18 9 -3 1 16 2 16 27 1 30 -20 53 -63 56 -101 1
-15 5 -32 8 -38 4 -5 11 -23 15 -40 12 -44 12 -45 15 -50 1 -3 4 -9 5 -15 1
-5 4 -13 5 -17 1 -5 2 -11 1 -15 0 -5 3 -8 8 -8 8 0 22 -43 23 -67 0 -5 4 -14
10 -20 6 -7 7 -13 2 -13 -5 0 -4 -4 1 -8 21 -15 34 -59 22 -71 -9 -9 -8 -11 3
-6 11 4 22 -11 40 -57 14 -35 24 -66 22 -70 -1 -5 3 -8 9 -8 5 0 7 -4 4 -10
-3 -5 -1 -10 5 -10 6 0 8 -4 5 -10 -3 -5 -1 -10 5 -10 6 0 9 -4 6 -9 -4 -5 -2
-11 3 -13 4 -1 24 -38 44 -80 l35 -77 -51 -15 c-49 -13 -177 -42 -222 -49 -21
-4 -81 -21 -153 -44 -24 -7 -48 -11 -53 -8 -5 4 -9 2 -9 -3 0 -5 -10 -12 -22
-15 -13 -2 -54 -16 -91 -30 -37 -14 -70 -26 -72 -26 -3 0 -18 -7 -34 -15 -16
-9 -31 -12 -35 -9 -3 4 -6 2 -6 -4 0 -6 -20 -19 -45 -30 -25 -10 -45 -22 -45
-26 0 -5 -4 -5 -10 -2 -5 3 -10 1 -10 -5 0 -6 -4 -9 -9 -6 -5 4 -11 0 -14 -6
-2 -7 -24 18 -48 56 -24 37 -42 70 -41 73 2 3 0 9 -5 12 -19 12 -84 133 -69
128 9 -4 18 -1 22 5 4 7 3 8 -4 4 -7 -4 -12 -3 -12 3 0 6 -7 7 -17 4 -10 -4
-14 -2 -10 4 4 6 3 13 -2 15 -13 5 -111 205 -104 212 4 3 2 6 -4 6 -9 0 -18
21 -28 60 0 3 -6 15 -13 28 -7 12 -9 22 -5 22 4 0 3 4 -3 8 -12 8 -67 148 -67
169 0 7 -5 13 -10 13 -5 0 -7 7 -3 15 3 8 2 15 -3 15 -8 0 -36 82 -36 105 0 6
-3 12 -6 15 -6 5 -59 200 -64 234 -1 12 -5 28 -8 36 -13 34 -57 257 -63 320
-2 19 -6 53 -10 75 -3 22 -8 56 -10 75 -20 169 -24 223 -29 344 l-6 140 40
-40 c23 -21 41 -43 41 -48z m3435 -1106 c-8 -16 -15 -37 -15 -48 0 -10 -5 -23
-12 -30 -7 -7 -9 -12 -6 -12 7 0 -25 -101 -39 -123 -8 -13 -10 -18 -12 -42 -1
-21 -19 -19 -24 3 -4 15 -5 15 -6 0 0 -9 3 -20 9 -23 11 -7 -25 -106 -43 -117
-7 -4 -9 -8 -4 -8 4 0 0 -15 -10 -32 -9 -18 -16 -36 -15 -40 1 -5 -3 -8 -10
-8 -6 0 -9 -3 -5 -6 9 -10 -62 -146 -73 -139 -6 3 -7 -1 -3 -10 8 -22 -14 -35
-47 -29 -14 3 -33 6 -42 8 -42 5 -26 15 17 11 27 -3 46 -3 43 1 -3 3 -29 8
-58 10 -37 4 -50 2 -45 -7 6 -8 2 -8 -14 0 -11 7 -21 9 -21 6 0 -4 -6 -3 -12
1 -7 5 -19 9 -28 9 -30 3 -141 38 -146 46 -3 5 -16 9 -29 9 -13 0 -27 5 -30
10 -3 6 -19 10 -34 10 -15 0 -31 3 -35 7 -3 4 -14 8 -22 9 -9 1 -31 10 -49 18
-18 9 -47 19 -64 22 -31 7 -31 7 31 39 35 18 66 31 70 29 5 -3 8 0 8 7 0 7 3
10 6 6 4 -3 13 1 21 9 8 8 19 12 24 9 5 -4 9 -1 9 5 0 6 4 9 9 6 5 -4 11 -2
13 2 4 10 194 114 204 112 4 -1 10 2 13 7 8 12 164 102 175 102 5 -1 12 3 15
8 7 11 114 72 121 70 3 -1 16 8 29 20 13 12 28 20 33 17 4 -3 8 0 8 7 0 6 8 9
20 6 10 -3 18 0 17 5 -1 5 7 15 18 21 10 7 25 18 33 25 21 19 24 14 7 -18z
m-2077 -29 c23 -12 42 -26 42 -31 0 -6 3 -9 8 -8 11 4 112 -54 112 -64 0 -5 5
-6 10 -3 6 3 10 1 10 -4 0 -6 7 -11 15 -11 8 0 15 -5 15 -11 0 -5 5 -7 12 -3
8 5 9 2 4 -11 -5 -14 -4 -15 7 -7 10 9 16 7 27 -7 7 -11 19 -17 25 -15 7 3 20
-2 28 -11 9 -9 19 -15 22 -15 10 1 104 -50 110 -60 4 -6 10 -8 14 -5 5 2 28
-9 52 -25 24 -16 51 -30 60 -30 9 0 22 -7 29 -15 7 -8 19 -15 27 -15 20 0 64
-31 57 -41 -3 -5 3 -6 13 -2 16 6 17 5 3 -13 -14 -19 -14 -19 7 -1 13 12 23
14 27 8 9 -14 94 -51 120 -52 14 0 16 -2 6 -6 -8 -2 -29 -11 -47 -19 -17 -8
-40 -14 -50 -14 -10 0 -23 -4 -28 -9 -11 -10 -352 -114 -375 -114 -8 0 -21 -4
-27 -10 -7 -5 -13 -7 -13 -3 0 3 -12 1 -27 -5 -39 -16 -85 -21 -78 -9 3 6 2
10 -2 10 -10 0 -112 199 -118 229 -2 11 -11 31 -20 45 -10 14 -13 26 -9 26 5
0 4 4 -3 8 -6 4 -20 30 -32 58 -15 40 -17 54 -8 64 9 10 9 11 0 6 -11 -6 -30
16 -32 37 0 4 -8 21 -17 38 -8 17 -13 33 -10 37 3 3 1 10 -4 17 -5 6 -12 22
-14 36 -3 13 -5 25 -5 27 -1 1 -1 5 -2 10 -1 4 -6 16 -11 27 -10 19 -10 19 8
4 10 -9 38 -26 62 -38z m1059 -538 c36 -11 52 -21 49 -30 -7 -17 11 -17 17 0
4 9 8 9 15 -1 5 -8 13 -13 18 -13 5 1 23 -4 39 -10 17 -7 36 -11 43 -10 6 1
12 -3 12 -9 0 -5 3 -9 8 -9 4 1 10 0 15 -1 4 -1 12 -4 17 -5 6 -1 13 -3 18 -4
4 -2 -2 -6 -13 -10 -18 -7 -17 -8 7 -13 19 -4 25 -1 21 9 -6 16 2 17 28 2 11
-6 17 -15 12 -22 -5 -9 -3 -9 8 0 12 10 28 8 80 -8 35 -11 71 -22 79 -26 8 -3
18 -6 22 -5 4 1 20 -3 35 -10 15 -6 30 -12 33 -13 3 0 29 -7 58 -14 l52 -13
-21 -38 c-12 -21 -31 -49 -43 -61 -12 -13 -27 -36 -33 -51 -7 -16 -17 -28 -23
-28 -5 0 -10 -5 -10 -11 0 -18 -217 -299 -231 -299 -5 0 -9 -5 -9 -11 0 -6
-26 -43 -58 -82 -32 -40 -82 -106 -112 -147 -30 -41 -58 -76 -62 -78 -5 -2 -8
-10 -8 -18 0 -17 -12 -18 -29 -1 -10 10 -12 9 -9 -3 2 -8 7 -18 12 -21 4 -4
-14 -48 -42 -100 l-50 -92 -34 69 c-18 38 -36 73 -41 79 -35 46 -107 156 -107
164 0 5 -7 11 -15 15 -8 3 -15 12 -15 20 0 8 -4 16 -9 18 -13 5 -131 155 -131
167 0 6 -4 11 -9 11 -11 0 -181 224 -181 239 0 6 -4 11 -8 11 -9 0 -110 148
-132 193 -7 15 -17 27 -22 27 -10 0 -11 30 0 31 4 1 16 3 27 4 12 1 31 8 44
14 12 7 25 10 28 7 4 -3 11 -2 17 3 6 4 49 18 96 31 47 12 92 25 100 28 8 3
19 4 23 3 4 0 21 6 37 14 17 9 30 13 30 9 0 -4 7 -1 15 6 8 7 15 9 15 5 0 -4
10 -1 23 7 21 15 81 37 115 43 9 2 19 4 22 5 3 1 8 2 13 1 4 0 7 4 7 10 0 6 6
9 13 7 6 -3 26 3 42 13 38 22 29 22 92 2z m870 -258 c42 -6 63 -17 63 -31 0
-18 10 -18 24 2 10 13 17 13 41 4 17 -7 44 -14 60 -17 53 -8 179 -44 192 -55
8 -6 16 -8 19 -5 17 17 368 -139 360 -160 -3 -7 0 -15 6 -19 7 -4 8 -3 4 4 -4
7 -1 12 7 12 10 0 13 -7 10 -20 -6 -23 -152 -200 -190 -229 -14 -12 -22 -21
-17 -21 5 0 -21 -29 -56 -65 -35 -36 -69 -65 -74 -65 -5 0 -25 -18 -44 -40
-19 -23 -37 -39 -40 -36 -2 3 -13 -6 -24 -19 -11 -14 -26 -25 -34 -25 -8 0
-14 -4 -14 -9 0 -5 -33 -33 -72 -63 -82 -62 -158 -111 -158 -103 0 3 -10 -3
-22 -15 -20 -18 -27 -21 -44 -19 -4 0 -10 -3 -13 -8 -18 -27 -193 -107 -332
-152 -71 -24 -96 -28 -106 -19 -11 9 -13 8 -11 -2 3 -15 -59 -35 -137 -45 -22
-3 -65 -10 -95 -15 -30 -4 -82 -9 -116 -9 l-61 -1 5 30 c2 17 9 30 14 30 5 0
7 4 3 10 -3 5 2 26 11 47 10 21 18 40 18 43 13 48 18 60 27 60 6 0 7 5 4 10
-3 6 2 10 12 10 14 0 15 2 5 9 -11 6 -10 12 5 26 10 10 17 21 15 24 -1 3 6 15
15 26 9 11 16 21 15 23 -6 6 30 62 39 62 6 0 8 4 5 8 -6 10 151 222 165 222 6
0 8 4 4 9 -3 5 6 18 20 29 13 11 22 22 19 25 -3 3 3 12 15 19 12 7 21 17 21
23 0 5 17 28 38 51 20 23 38 45 40 50 1 5 16 24 32 42 17 19 30 37 30 41 0 3
12 20 28 36 15 16 26 33 25 36 -1 4 9 19 22 33 14 15 25 29 25 32 0 9 83 129
92 132 4 2 8 10 8 18 0 8 7 14 16 12 10 -2 19 4 21 12 4 13 3 13 -6 0 -6 -8
-11 -10 -11 -4 0 17 10 23 33 17 12 -2 32 -6 44 -8z m-1763 -6 c-2 -3 10 -21
26 -39 30 -34 37 -50 22 -50 -5 0 -9 -7 -9 -15 0 -11 4 -12 13 -4 15 12 37 3
29 -12 -4 -5 -1 -9 4 -9 6 0 11 -4 11 -10 0 -5 10 -21 23 -36 12 -14 21 -27
20 -30 -1 -2 11 -18 27 -35 16 -18 27 -36 25 -40 -3 -4 2 -10 11 -13 9 -4 15
-9 12 -12 -3 -2 8 -19 23 -35 16 -17 29 -37 29 -45 0 -8 3 -14 8 -14 8 0 92
-105 92 -116 0 -4 8 -13 18 -20 9 -7 17 -16 17 -21 1 -4 16 -24 34 -45 18 -20
33 -39 32 -42 0 -3 11 -18 25 -33 29 -31 129 -174 128 -182 0 -3 8 -15 18 -25
9 -10 15 -23 12 -28 -3 -4 -1 -8 5 -8 6 0 13 -11 17 -25 3 -14 9 -25 13 -25 4
0 13 -11 19 -24 8 -17 7 -27 -1 -35 -9 -9 -7 -10 8 -5 20 7 20 7 1 -14 -11
-12 -14 -22 -8 -22 7 0 12 5 12 11 0 5 5 7 10 4 6 -4 8 -10 5 -15 -3 -4 -1
-10 4 -12 6 -1 13 -16 16 -33 10 -48 10 -49 19 -63 4 -7 5 -19 2 -27 -3 -8 -1
-15 4 -15 6 0 10 -3 10 -7 0 -13 -132 -14 -186 -2 -27 5 -61 10 -76 9 -15 0
-29 4 -33 9 -3 6 -12 8 -19 5 -16 -6 -136 24 -153 38 -7 6 -13 8 -13 5 0 -11
-196 60 -285 104 -108 52 -235 128 -235 141 0 5 -4 7 -9 3 -6 -3 -14 2 -19 11
-5 9 -12 14 -15 12 -9 -5 -196 142 -208 164 -5 10 -15 18 -21 18 -12 0 -238
219 -238 230 0 3 -23 30 -51 60 -27 30 -64 75 -80 100 -27 41 -28 46 -13 57 9
7 20 10 25 8 4 -3 9 -1 11 4 6 17 240 121 296 132 4 1 18 5 31 10 13 5 26 7
29 4 3 -2 10 0 17 5 6 5 20 11 31 13 10 2 27 7 37 12 10 4 24 2 33 -6 12 -10
15 -10 12 2 -2 8 4 14 12 15 8 0 22 4 30 7 8 4 26 8 40 9 14 2 27 6 30 10 4 4
24 9 46 11 23 2 46 7 52 11 7 4 21 2 33 -4 11 -7 23 -9 27 -6 3 3 -1 6 -9 6
-8 0 -3 6 10 13 25 12 82 17 75 6z"/>
</g>
</svg>
