<?xml version="1.0" standalone="no"?>
<!DOCTYPE svg PUBLIC "-//W3C//DTD SVG 20010904//EN"
 "http://www.w3.org/TR/2001/REC-SVG-20010904/DTD/svg10.dtd">
<svg version="1.0" xmlns="http://www.w3.org/2000/svg"
 width="1024.000000pt" height="1024.000000pt" viewBox="0 0 1024.000000 1024.000000"
 preserveAspectRatio="xMidYMid meet">
<metadata>
Created by potrace 1.16, written by Peter Selinger 2001-2019
</metadata>
<g transform="translate(0.000000,1024.000000) scale(0.100000,-0.100000)"
fill="#000000" stroke="none">
<path d="M3612 6544 c-34 -7 -88 -27 -119 -43 -30 -17 -61 -28 -67 -24 -6 3
-8 2 -3 -2 10 -12 -43 -66 -57 -58 -6 3 -8 3 -4 -1 3 -4 -9 -32 -28 -62 -50
-79 -67 -157 -62 -284 6 -122 23 -174 90 -272 54 -79 73 -140 65 -213 -7 -65
-48 -146 -91 -179 -51 -38 -95 -57 -119 -51 -15 4 -18 3 -9 -3 9 -6 -16 -21
-83 -51 -119 -52 -191 -95 -250 -148 -43 -40 -118 -145 -130 -184 -4 -11 -11
-16 -17 -13 -6 4 -8 3 -5 -3 4 -6 -4 -55 -18 -109 -45 -187 -77 -474 -57 -510
12 -22 41 -27 61 -11 12 10 13 9 6 -3 -6 -12 -5 -12 4 -4 8 7 18 72 27 160 7
82 24 201 38 264 58 270 135 370 360 466 61 25 137 60 170 75 68 34 73 35 55
12 -13 -16 -12 -17 3 -5 10 8 16 17 15 21 -1 3 19 28 45 54 26 26 54 60 62 75
17 33 44 131 41 152 -1 8 -5 40 -8 71 -8 70 -24 108 -76 182 -23 32 -48 75
-56 95 -25 57 -36 161 -25 228 11 66 60 170 79 166 7 -1 10 2 7 7 -7 10 10 30
57 65 92 68 260 76 379 17 84 -42 124 -80 165 -159 36 -68 40 -83 54 -197 5
-44 12 -86 14 -94 4 -9 0 -11 -10 -7 -13 4 -14 2 -5 -14 6 -11 13 -20 16 -20
3 0 2 5 -1 10 -3 6 -1 10 4 10 6 0 11 -4 11 -10 0 -5 14 -25 30 -44 34 -38 32
-66 -5 -66 -13 0 -33 -9 -46 -19 -21 -17 -24 -29 -27 -108 -5 -137 -8 -140
-161 -148 -46 -2 -88 -8 -94 -14 -14 -14 -23 -79 -19 -139 5 -67 39 -105 112
-122 28 -7 61 -22 72 -34 12 -11 18 -15 14 -8 -9 15 -2 15 47 1 21 -5 36 -13
33 -17 -2 -4 8 -7 22 -8 35 -1 135 -51 163 -80 l22 -24 -457 0 c-403 0 -461
-2 -489 -16 -69 -36 -83 -70 -112 -276 -5 -29 -11 -45 -18 -41 -6 3 -7 1 -3
-5 9 -15 -5 -163 -15 -156 -4 2 -6 -13 -3 -34 l4 -39 -42 -1 c-31 -1 -39 1
-28 8 12 8 10 10 -8 10 -13 0 -20 -4 -17 -10 3 -5 1 -10 -4 -10 -6 0 -11 5
-11 10 0 6 -5 10 -12 10 -6 0 -8 -3 -4 -7 6 -6 -75 -25 -151 -35 -7 -1 -10 -5
-7 -10 3 -4 1 -8 -4 -8 -10 0 -26 -37 -36 -83 -4 -15 -3 -26 1 -25 5 2 24 -14
43 -33 19 -20 45 -39 56 -43 12 -4 33 -17 46 -29 24 -23 29 -25 51 -29 6 -2
-150 -5 -348 -8 l-359 -5 -12 -22 c-6 -13 -14 -20 -18 -15 -13 12 -2 -22 11
-36 18 -19 5425 -21 5448 -2 19 16 19 47 1 66 -11 10 -43 14 -127 14 l-112 0
6 38 c5 25 3 32 -3 22 -9 -13 -10 -13 -11 0 -2 32 -10 62 -24 91 -9 16 -13 29
-10 29 3 0 -5 15 -17 33 -43 63 -88 108 -123 123 -19 8 -35 18 -35 23 0 5 -10
7 -22 3 -21 -5 -21 -4 -15 74 21 267 22 258 -4 287 -14 16 -36 29 -54 31 -16
2 -30 8 -30 14 0 6 -4 14 -8 18 -10 11 -75 6 -99 -7 -10 -6 -59 -17 -109 -25
-97 -15 -168 -37 -286 -89 -53 -23 -81 -30 -92 -24 -79 45 -239 102 -333 119
-35 6 -82 18 -105 25 -45 15 -68 12 -77 -10 -2 -7 -20 -16 -38 -20 -18 -4 -44
-15 -57 -23 -24 -16 -24 -16 -18 -157 4 -77 9 -156 13 -176 6 -36 6 -37 -50
-64 -31 -15 -70 -44 -87 -64 -38 -46 -89 -147 -89 -177 0 -31 -10 -55 -21 -48
-12 7 -7 -19 5 -28 23 -16 -69 -18 -589 -16 l-550 3 -1 35 c0 36 10 96 52 285
61 284 83 414 73 447 -22 78 -62 94 -222 92 l-118 -1 -14 26 c-39 76 -144 139
-340 205 -116 39 -159 65 -153 92 2 13 18 17 77 20 140 7 200 69 201 207 l0
68 42 19 c23 10 47 16 53 13 5 -4 7 -2 2 2 -4 5 0 16 9 26 9 10 18 35 21 56 5
35 1 43 -32 74 -50 46 -61 71 -74 164 -15 97 -44 196 -76 251 -31 54 -108 127
-165 158 -98 53 -247 74 -358 50z m1024 -1539 c26 -11 34 -19 30 -31 -3 -8 -6
-22 -6 -30 0 -9 -5 -12 -12 -8 -7 5 -8 3 -3 -6 4 -7 2 -35 -4 -64 -11 -49 -39
-189 -62 -306 -6 -30 -20 -98 -31 -150 -11 -52 -23 -109 -27 -126 l-6 -32
-620 2 -620 1 1 45 c1 51 12 149 19 159 2 4 6 34 10 66 3 33 12 103 20 155 8
52 17 113 20 135 3 22 8 58 12 80 3 22 7 48 8 58 1 10 10 26 20 35 10 9 15 12
12 6 -4 -7 3 -9 21 -6 23 5 24 7 7 10 l-20 5 20 8 c11 4 280 8 598 8 491 1
583 -1 613 -14z m2557 -91 c10 -3 13 -13 9 -27 -5 -20 -4 -21 13 -7 17 14 18
13 12 -10 -4 -14 -7 -47 -7 -73 0 -32 -4 -46 -11 -41 -8 4 -8 1 -1 -12 6 -11
8 -40 5 -65 l-5 -47 -43 1 c-62 1 -130 -21 -158 -52 -25 -26 -52 -91 -39 -91
4 0 8 -9 9 -20 1 -11 -2 -18 -6 -15 -5 2 -11 -14 -14 -36 -6 -48 14 -113 45
-146 l21 -23 -156 0 -157 0 -1 198 c-1 275 1 336 11 346 17 17 151 66 237 86
49 12 96 23 105 26 13 4 16 1 12 -10 -3 -9 -1 -16 5 -16 6 0 10 6 9 13 -5 20
52 21 69 0 8 -10 12 -12 8 -5 -3 6 -3 17 0 22 7 12 9 12 28 4z m-1028 -13
c-10 -17 12 -21 25 -6 7 8 18 15 24 15 6 0 4 -5 -4 -10 -19 -12 -4 -13 19 -1
33 18 360 -87 345 -110 -3 -5 1 -6 9 -3 10 4 16 -4 19 -26 3 -17 1 -33 -4 -36
-4 -3 -8 -11 -8 -17 0 -7 4 -6 10 3 6 10 10 -67 10 -228 0 -134 -4 -241 -9
-238 -4 3 -74 6 -154 7 l-145 1 20 23 c12 14 26 22 31 18 6 -3 7 -1 3 5 -4 6
-2 30 5 51 10 33 9 48 -3 83 -9 24 -16 61 -17 83 -4 80 -42 108 -149 109 -55
1 -73 5 -76 16 -3 8 -8 72 -12 143 l-6 127 36 0 c21 0 35 -4 31 -9z m70 -390
c0 -7 -27 -23 -60 -36 -93 -35 -95 -36 -95 -60 0 -28 18 -33 80 -23 81 13 112
10 108 -9 -4 -19 -76 -63 -107 -66 -15 -1 -18 -8 -17 -34 l1 -34 -136 2 -136
1 4 45 c6 78 65 183 103 183 10 0 21 7 24 16 6 15 9 15 29 -2 17 -15 19 -15 9
-2 -12 15 -10 18 20 27 50 15 173 9 173 -8z m955 9 c-9 -6 -10 -10 -3 -10 6 0
14 4 18 9 7 12 80 7 118 -8 17 -7 25 -15 21 -23 -4 -7 -3 -8 4 -4 33 20 114
-113 108 -179 -1 -18 1 -32 5 -29 4 2 9 -2 12 -10 5 -12 -20 -15 -149 -15
-105 -1 -154 2 -154 9 0 6 4 9 9 6 4 -3 8 8 7 23 -1 16 -3 28 -5 25 -2 -2 -12
1 -23 7 -11 6 -32 13 -46 15 -15 3 -38 16 -51 29 l-24 24 28 7 c15 4 48 2 74
-4 93 -21 135 10 81 60 -18 15 -35 26 -40 23 -5 -3 -25 1 -45 9 -19 8 -35 12
-35 9 0 -3 -7 0 -15 7 -25 21 -7 30 58 30 44 0 58 -3 47 -10z"/>
<path d="M6614 6550 c-95 -14 -161 -44 -243 -111 -19 -15 -37 -26 -41 -24 -4
2 -7 -2 -7 -9 0 -7 -14 -33 -31 -58 -38 -56 -67 -139 -82 -242 -15 -102 -20
-113 -69 -170 -33 -37 -41 -55 -41 -85 0 -50 28 -84 79 -100 40 -12 41 -13 41
-59 0 -56 22 -144 44 -177 28 -42 73 -59 159 -58 68 1 75 -1 60 -13 -17 -13
-17 -14 0 -8 9 3 17 1 17 -4 0 -20 -49 -49 -112 -66 -190 -52 -332 -105 -409
-151 -64 -40 -151 -128 -175 -179 -10 -19 -20 -33 -24 -31 -3 2 -6 -4 -7 -13
-1 -9 -13 -60 -27 -112 -14 -52 -30 -128 -36 -168 -8 -50 -15 -70 -23 -65 -8
5 -8 2 0 -8 9 -12 10 -31 3 -75 -17 -101 -14 -223 5 -244 20 -22 51 -16 66 13
6 11 13 57 15 101 6 120 40 335 71 446 35 123 104 217 200 268 32 17 144 56
248 87 236 69 276 88 292 135 17 49 16 142 -1 166 -12 16 -30 20 -118 24 -73
4 -102 9 -101 17 2 7 -3 10 -11 7 -19 -7 -36 53 -36 128 0 81 -12 106 -54 114
-55 10 -64 29 -31 62 40 39 62 96 69 179 17 181 88 298 221 360 53 25 71 28
160 28 93 0 105 -2 167 -33 70 -34 143 -104 134 -128 -3 -7 0 -13 6 -11 13 2
45 -79 53 -137 8 -55 -10 -166 -37 -221 -18 -38 -24 -43 -37 -32 -14 10 -14
10 -3 -4 11 -14 6 -26 -28 -78 -27 -40 -44 -81 -51 -119 -25 -131 18 -276 102
-344 56 -45 77 -56 229 -113 317 -119 377 -197 430 -555 10 -69 21 -170 25
-225 3 -55 9 -110 11 -121 7 -28 46 -36 71 -15 19 16 51 77 35 67 -9 -5 -13
28 -32 234 -23 242 -78 412 -172 520 -50 59 -160 121 -318 181 -71 26 -146 59
-167 72 -73 47 -113 112 -120 197 -7 73 10 125 70 213 63 91 89 177 89 294 0
157 -54 276 -162 360 -80 62 -136 81 -285 97 -16 2 -53 0 -81 -4z"/>
</g>
</svg>
