<?xml version="1.0" standalone="no"?>
<!DOCTYPE svg PUBLIC "-//W3C//DTD SVG 20010904//EN"
 "http://www.w3.org/TR/2001/REC-SVG-20010904/DTD/svg10.dtd">
<svg version="1.0" xmlns="http://www.w3.org/2000/svg"
 width="1024.000000pt" height="1024.000000pt" viewBox="0 0 1024.000000 1024.000000"
 preserveAspectRatio="xMidYMid meet">
<metadata>
Created by potrace 1.16, written by Peter Selinger 2001-2019
</metadata>
<g transform="translate(0.000000,1024.000000) scale(0.100000,-0.100000)"
fill="#000000" stroke="none">
<path d="M5065 7995 c-42 -13 -129 -58 -156 -81 -8 -8 -19 -14 -24 -14 -5 0
-16 -6 -24 -14 -9 -7 -43 -28 -76 -46 -33 -18 -86 -51 -118 -72 -33 -22 -65
-37 -73 -34 -8 3 -13 2 -9 -3 3 -5 -43 -39 -102 -74 -60 -36 -128 -78 -153
-94 -58 -37 -97 -53 -106 -45 -4 4 -3 1 1 -7 6 -11 4 -13 -8 -8 -11 4 -14 2
-11 -8 3 -8 -4 -16 -16 -20 -13 -4 -41 -20 -64 -37 -23 -16 -51 -30 -63 -31
-12 0 -21 -5 -20 -10 1 -4 -23 -22 -53 -39 -30 -17 -91 -55 -135 -83 -103 -68
-143 -87 -157 -79 -7 4 -8 3 -4 -4 4 -7 -9 -21 -32 -34 -21 -13 -47 -29 -57
-36 -11 -6 -27 -15 -35 -19 -8 -3 -34 -19 -56 -34 -23 -16 -47 -29 -54 -31 -7
-2 -24 -13 -37 -25 -14 -12 -45 -32 -68 -43 -24 -12 -54 -29 -67 -39 -46 -35
-100 -61 -111 -55 -7 4 -9 4 -5 -1 4 -4 -39 -39 -96 -76 -57 -37 -107 -73
-111 -79 -3 -5 -10 -8 -15 -5 -5 3 -12 0 -16 -6 -5 -8 -3 -9 6 -4 8 5 11 3 8
-6 -3 -8 -10 -13 -15 -12 -5 1 -10 -6 -12 -15 -7 -31 -16 -2840 -10 -2836 4 2
9 -14 13 -35 7 -43 70 -122 117 -147 17 -8 27 -20 23 -26 -4 -7 -3 -8 4 -4 14
9 85 -38 74 -49 -4 -5 -2 -5 4 -2 11 7 66 -26 66 -39 0 -5 2 -11 5 -14 4 -3 3
1 -1 8 -11 19 1 14 47 -19 23 -17 41 -35 39 -41 -1 -5 2 -7 8 -3 13 8 82 -39
72 -50 -4 -5 -2 -5 4 -2 16 9 76 -31 68 -45 -5 -7 -2 -9 8 -6 9 4 62 -26 132
-72 64 -43 123 -81 129 -84 41 -20 195 -135 189 -140 -4 -4 -2 -7 3 -6 22 5
36 -1 29 -12 -4 -6 -3 -8 3 -5 10 7 126 -66 118 -75 -3 -2 1 -5 7 -5 22 0 88
-44 82 -54 -3 -5 -2 -9 3 -8 4 1 15 1 23 -1 11 -1 10 -4 -5 -11 -18 -8 -18 -9
4 -5 27 6 74 -21 64 -37 -3 -6 -1 -7 5 -3 7 4 18 4 24 0 9 -6 5 -10 -12 -16
-21 -6 -19 -7 10 -5 25 1 34 -2 32 -11 -1 -8 2 -11 7 -8 5 3 51 -22 102 -55
98 -64 127 -87 97 -76 -10 3 -20 2 -22 -2 -3 -5 9 -8 27 -7 22 1 31 -3 29 -12
-1 -8 2 -11 8 -7 13 8 112 -59 102 -70 -4 -5 -2 -5 4 -2 11 6 99 -47 99 -60 0
-14 16 -33 28 -33 6 0 2 7 -9 15 -29 22 -11 18 45 -10 73 -37 154 -43 231 -16
34 12 66 18 72 15 7 -5 8 -2 3 6 -6 10 -3 12 13 8 12 -4 20 -3 17 2 -3 4 23
18 58 30 34 13 67 26 72 30 6 4 28 13 50 20 22 7 60 22 85 33 69 30 94 40 235
97 72 28 165 68 208 87 43 19 81 32 84 29 3 -3 12 2 20 10 9 8 22 13 30 10 8
-3 12 -2 9 2 -2 4 50 29 117 56 67 26 140 56 162 66 22 10 94 39 160 66 143
56 290 117 364 151 30 13 61 21 70 18 8 -3 12 -3 8 1 -10 11 81 46 96 38 7 -4
9 -4 5 1 -12 12 72 46 96 40 14 -4 17 -3 8 3 -9 6 7 17 55 37 96 40 115 56
148 120 l28 57 -2 1480 c-2 1569 0 1502 -44 1558 -7 9 -58 46 -114 84 -57 38
-101 72 -98 75 2 4 -1 8 -8 8 -18 0 -207 133 -207 145 0 6 -3 8 -6 5 -9 -9
-125 74 -118 84 3 5 -3 6 -12 2 -13 -5 -15 -3 -9 7 5 8 4 11 -2 7 -12 -8 -109
61 -105 75 1 5 -2 7 -7 4 -7 -5 -169 104 -497 334 -140 98 -173 124 -168 131
3 5 -1 6 -9 4 -16 -7 -100 52 -92 65 6 10 -29 32 -38 23 -3 -3 -47 23 -96 58
-50 35 -126 89 -170 119 -44 30 -123 85 -176 123 -52 37 -98 67 -101 67 -8 0
-34 27 -29 31 2 2 -9 4 -23 5 -15 0 -40 3 -57 6 -16 3 -48 0 -70 -7z m138
-188 c26 -19 44 -37 40 -42 -5 -4 -2 -5 5 -1 8 5 21 1 30 -7 9 -9 46 -35 82
-60 36 -24 64 -49 62 -56 -1 -7 2 -10 7 -7 12 8 357 -232 353 -246 -1 -5 2 -7
8 -3 16 10 35 -6 19 -16 -10 -6 -6 -8 11 -7 16 2 24 -2 22 -10 -1 -8 1 -11 6
-8 11 6 167 -100 167 -113 0 -5 3 -13 8 -17 4 -4 7 -2 7 5 0 7 5 9 10 6 6 -4
7 -11 4 -17 -4 -7 -2 -8 4 -4 12 7 112 -60 112 -76 0 -5 4 -7 9 -4 5 3 14 -1
21 -9 7 -8 20 -15 29 -15 14 0 14 -2 1 -10 -20 -13 -33 -12 -24 2 4 6 3 8 -4
5 -5 -4 -8 -15 -5 -25 3 -12 -9 -27 -40 -50 -24 -17 -48 -28 -52 -24 -5 4 -5
2 -2 -4 4 -6 -39 -52 -96 -104 -126 -114 -318 -303 -485 -475 -69 -71 -130
-129 -136 -127 -6 2 -8 0 -4 -4 9 -8 -5 -26 -106 -137 -43 -48 -83 -84 -88
-81 -5 3 -7 2 -6 -3 4 -13 -33 -63 -43 -57 -5 3 -9 -1 -9 -8 0 -18 -98 -124
-111 -120 -6 1 -7 -2 -4 -8 4 -6 -15 -35 -42 -64 -42 -46 -95 -106 -175 -200
l-24 -29 -131 97 c-122 89 -200 143 -548 379 -71 48 -129 93 -127 98 1 6 -2 8
-7 4 -14 -8 -231 137 -224 149 4 5 2 6 -4 3 -16 -10 -366 220 -357 234 3 5 -1
6 -8 4 -16 -6 -140 74 -133 85 3 4 -3 7 -13 6 -9 0 -16 4 -15 11 2 7 -4 10
-12 7 -8 -4 -15 -1 -15 6 0 6 -6 8 -12 4 -7 -4 -10 -4 -7 -1 5 7 404 254 522
324 31 19 62 31 69 27 6 -4 8 -3 5 3 -4 6 62 52 154 108 126 76 164 94 171 84
6 -11 8 -9 6 6 -2 14 2 20 14 19 10 -1 15 3 11 9 -4 6 0 8 11 4 9 -4 15 -3 12
2 -8 12 63 53 76 45 7 -4 8 -2 4 4 -4 6 19 25 56 47 35 19 132 78 217 130 85
51 159 91 164 88 6 -3 7 -1 3 5 -3 6 36 35 96 70 57 32 134 78 171 101 37 23
73 39 79 35 7 -4 8 -3 4 4 -8 14 30 36 46 26 6 -4 8 -3 4 4 -10 16 24 31 70
32 30 0 52 -8 87 -33z m1171 -823 c9 -3 13 -11 9 -17 -3 -6 -1 -7 6 -3 15 10
43 -13 34 -27 -3 -6 -1 -7 5 -3 13 8 85 -37 77 -47 -3 -4 -2 -5 1 -2 10 7 155
-95 149 -105 -3 -5 0 -12 6 -16 8 -5 9 -3 4 6 -5 8 -3 11 6 8 8 -3 13 -10 12
-15 -1 -5 4 -10 11 -10 17 0 156 -95 151 -103 -2 -4 1 -7 8 -7 21 0 67 -35 60
-46 -3 -6 -1 -7 5 -3 6 4 20 -2 32 -14 11 -11 23 -20 28 -20 16 -1 122 -82
117 -90 -3 -4 5 -6 17 -3 13 3 -13 -13 -56 -36 -44 -22 -82 -38 -84 -36 -3 3
-10 -2 -16 -9 -23 -29 -125 -74 -161 -72 -19 2 -32 -1 -29 -6 3 -5 14 -6 25
-3 52 17 5 -12 -131 -79 -97 -48 -157 -73 -172 -70 -21 4 -21 4 -3 -4 16 -8
-10 -24 -150 -94 -220 -110 -346 -176 -362 -190 -7 -5 -19 -8 -28 -4 -8 3 -14
1 -12 -4 3 -13 -113 -91 -125 -84 -6 4 -8 2 -5 -3 8 -12 -180 -190 -195 -185
-5 1 -7 -1 -4 -6 5 -9 -61 -79 -70 -74 -2 1 -4 -1 -3 -4 0 -4 -135 -153 -226
-249 -11 -11 -37 -40 -58 -64 l-39 -43 -31 28 c-94 84 -145 139 -140 148 3 6
2 8 -2 3 -11 -10 -96 73 -88 86 3 6 2 7 -4 4 -5 -4 -22 7 -38 23 l-28 29 63
70 c34 39 67 68 73 64 5 -3 7 -1 3 5 -7 12 141 188 156 184 5 -1 7 1 4 6 -6
10 65 88 77 84 5 -1 6 1 3 6 -3 5 3 18 12 28 10 10 49 53 87 94 37 41 73 74
79 72 6 -2 8 0 3 4 -10 10 63 85 76 77 6 -3 7 -1 3 6 -5 7 29 49 86 109 51 53
118 123 147 154 30 32 58 55 64 51 6 -3 7 -1 4 4 -4 6 24 39 61 73 37 35 111
106 165 157 58 56 102 91 109 87 6 -4 8 -3 5 3 -6 10 45 62 142 146 46 39 50
41 75 31z m-3279 -474 c-3 -6 0 -8 7 -5 14 5 132 -68 123 -77 -3 -2 1 -5 8 -5
21 0 97 -55 90 -66 -3 -5 -1 -7 4 -4 12 8 147 -76 138 -85 -4 -3 2 -5 12 -5
10 1 17 -3 16 -9 -1 -7 5 -11 15 -10 9 0 16 -4 15 -10 -1 -6 4 -11 11 -11 19
0 177 -104 171 -113 -3 -4 2 -11 11 -14 9 -4 13 -2 8 5 -3 6 5 3 20 -6 14 -9
24 -21 21 -25 -3 -4 1 -7 8 -6 19 2 176 -107 170 -118 -4 -5 -2 -6 4 -3 10 7
156 -86 148 -95 -3 -2 1 -5 7 -5 7 0 30 -10 51 -23 29 -17 35 -25 25 -32 -10
-8 -9 -9 3 -5 17 5 73 -25 64 -35 -3 -2 1 -5 8 -5 21 0 168 -104 161 -114 -3
-5 1 -6 8 -4 7 3 29 -9 48 -26 19 -16 29 -28 23 -24 -7 3 -13 1 -13 -5 0 -6
10 -10 23 -8 14 2 21 -2 19 -10 -1 -8 2 -11 8 -7 15 9 145 -103 347 -299 103
-101 170 -173 167 -181 -3 -7 -1 -16 5 -20 6 -3 11 1 11 11 0 14 6 12 30 -11
17 -16 30 -33 30 -39 0 -6 -27 -94 -59 -196 -33 -102 -87 -273 -121 -380 -97
-309 -122 -385 -127 -390 -3 -3 -3 5 0 18 3 13 1 20 -5 16 -5 -4 -7 -19 -4
-35 6 -29 -59 -251 -76 -257 -4 -2 -5 -8 -2 -14 3 -5 -12 -64 -34 -131 -22
-67 -63 -194 -91 -282 -27 -88 -65 -209 -84 -270 -19 -60 -38 -125 -42 -142
-4 -18 -9 -33 -12 -33 -9 0 -183 111 -183 116 0 3 5 2 12 -2 7 -4 8 -3 4 4 -4
6 -12 9 -19 6 -8 -3 -27 8 -43 22 -16 15 -30 26 -32 25 -8 -7 -501 327 -494
334 4 4 2 5 -4 2 -13 -8 -247 147 -237 157 5 4 3 7 -2 6 -22 -5 -36 1 -29 12
4 6 3 8 -3 5 -12 -7 -209 114 -235 144 -9 11 -19 20 -22 20 -27 -1 -82 42
-101 79 -11 21 -14 241 -16 1130 -1 608 -1 1210 0 1337 2 228 3 233 22 222 11
-5 17 -14 14 -19z m4072 -257 c-6 -9 -6 -13 2 -13 8 0 10 -367 8 -1348 -2
-1280 -3 -1349 -20 -1375 -10 -16 -28 -32 -40 -36 -12 -5 -52 -23 -89 -40 -37
-17 -127 -54 -200 -82 -73 -28 -145 -58 -160 -65 -16 -8 -28 -12 -28 -8 0 4
-6 1 -14 -5 -10 -9 -21 -2 -49 31 -19 24 -50 59 -69 78 -18 20 -51 58 -73 85
-42 51 -193 227 -241 282 -68 76 -121 138 -121 143 0 10 -199 197 -288 270
-49 41 -92 77 -95 81 -3 3 -39 34 -80 68 -41 34 -86 72 -100 84 -14 12 -94 77
-177 145 -84 68 -153 126 -153 130 0 14 80 267 94 295 7 15 39 56 72 90 32 35
102 110 154 167 178 194 408 417 477 462 69 46 222 128 464 250 88 44 143 66
155 62 14 -4 15 -3 6 4 -11 7 -10 10 3 16 9 3 22 3 28 -1 7 -3 9 -2 4 2 -9 10
31 34 201 119 74 36 138 63 144 60 6 -4 8 -3 5 3 -3 5 25 26 63 46 74 40 84
43 75 25 -4 -7 4 0 17 17 l23 29 6 -29 c3 -17 1 -36 -4 -42z m-1876 -1873 c20
-19 40 -36 44 -37 3 -1 66 -51 140 -112 107 -89 132 -115 128 -131 -3 -12 0
-20 7 -20 7 0 10 7 6 15 -10 26 11 16 42 -19 17 -19 32 -33 34 -31 2 2 51 -41
108 -97 58 -55 96 -94 85 -87 -18 13 -19 13 -6 -3 7 -10 17 -16 21 -13 4 2 15
-4 25 -15 10 -11 14 -20 9 -20 -6 0 -10 -11 -10 -25 0 -22 2 -23 16 -10 15 13
20 11 51 -21 28 -29 31 -37 19 -45 -13 -9 -13 -10 1 -6 26 8 79 -53 73 -83 -3
-19 -2 -21 4 -7 7 17 12 15 45 -19 21 -22 35 -45 32 -52 -3 -7 -1 -10 4 -7 6
3 43 -34 83 -82 40 -48 87 -104 104 -123 58 -64 91 -107 66 -86 -22 19 -22 19
-19 -5 3 -18 9 -23 27 -21 12 2 20 0 17 -5 -6 -10 -51 -30 -222 -102 -207 -86
-254 -103 -266 -95 -7 4 -9 3 -6 -3 4 -6 -13 -18 -36 -28 -23 -9 -50 -21 -59
-26 -22 -11 -100 -39 -111 -39 -5 0 -5 6 -1 13 4 7 3 9 -2 4 -5 -5 -9 -13 -9
-19 0 -13 -96 -50 -113 -43 -7 3 -11 1 -8 -4 6 -8 -14 -21 -42 -27 -7 -1 -32
-12 -55 -24 -23 -13 -71 -33 -107 -45 -36 -12 -85 -31 -110 -43 -25 -11 -65
-27 -90 -37 -55 -20 -107 -43 -140 -60 -40 -20 -117 -28 -158 -14 -37 12 -312
186 -312 198 0 10 46 168 85 291 20 63 38 120 39 125 7 27 79 255 91 287 8 20
26 79 40 130 14 51 32 109 40 128 8 19 33 96 55 170 23 74 50 162 61 195 52
164 101 313 111 337 l10 28 61 -48 c33 -26 77 -63 98 -82z"/>
</g>
</svg>
