<?xml version="1.0" standalone="no"?>
<!DOCTYPE svg PUBLIC "-//W3C//DTD SVG 20010904//EN"
 "http://www.w3.org/TR/2001/REC-SVG-20010904/DTD/svg10.dtd">
<svg version="1.0" xmlns="http://www.w3.org/2000/svg"
 width="1024.000000pt" height="1024.000000pt" viewBox="0 0 1024.000000 1024.000000"
 preserveAspectRatio="xMidYMid meet">
<metadata>
Created by potrace 1.16, written by Peter Selinger 2001-2019
</metadata>
<g transform="translate(0.000000,1024.000000) scale(0.100000,-0.100000)"
fill="#000000" stroke="none">
<path d="M5877 7160 c-75 -29 -132 -82 -169 -158 l-33 -66 -3 -251 c-3 -246
-3 -250 18 -267 26 -21 63 -23 78 -5 7 8 12 106 14 262 3 234 4 253 25 290 27
51 68 90 115 109 32 14 103 16 491 16 l453 0 51 -25 c54 -27 92 -73 114 -140
20 -58 20 -437 0 -485 -30 -72 -62 -109 -120 -137 -52 -26 -67 -28 -219 -33
l-162 -5 -32 -35 c-18 -19 -65 -70 -105 -112 l-73 -77 0 104 c0 89 -3 106 -17
113 -10 5 -70 6 -133 3 -110 -6 -115 -7 -118 -29 -6 -41 14 -52 94 -52 l74 0
0 -107 c0 -60 3 -118 6 -131 7 -26 42 -37 81 -27 25 6 133 109 228 217 l41 46
160 3 c157 4 160 5 226 37 75 36 123 88 160 168 22 47 23 60 23 295 l0 245
-34 67 c-39 78 -91 129 -165 163 l-51 24 -485 -1 c-450 0 -488 -1 -533 -19z"/>
<path d="M6310 6939 c-81 -36 -105 -73 -80 -120 15 -27 44 -24 92 11 43 31 93
39 129 20 34 -19 23 -56 -37 -127 -79 -93 -105 -163 -70 -193 27 -22 60 -8 81
36 11 23 43 66 71 96 63 67 84 105 84 157 0 106 -151 174 -270 120z"/>
<path d="M5115 6846 c-16 -12 -19 -25 -17 -92 4 -145 11 -180 39 -193 20 -9
30 -9 49 4 24 16 24 16 18 143 -4 70 -11 133 -17 140 -13 16 -49 15 -72 -2z"/>
<path d="M4717 6752 c-10 -10 -17 -24 -17 -30 0 -17 89 -180 114 -209 18 -21
25 -23 49 -14 15 6 27 17 27 26 0 22 -88 196 -112 223 -26 27 -40 28 -61 4z"/>
<path d="M4200 6386 c-143 -40 -250 -142 -291 -278 -46 -151 -6 -314 102 -416
27 -25 47 -47 46 -48 -2 -2 -36 -8 -77 -15 -259 -40 -415 -227 -519 -624 -54
-207 -101 -483 -101 -599 0 -130 63 -234 165 -271 28 -10 86 -38 131 -62 100
-53 196 -87 294 -104 l75 -12 37 -76 c21 -42 53 -111 72 -153 33 -75 36 -78
68 -78 35 0 58 15 58 37 0 26 -158 341 -176 351 -11 5 -44 13 -74 17 -30 4
-77 13 -105 21 -66 19 -205 85 -205 97 0 5 11 22 24 38 33 39 46 80 107 329
28 118 74 280 101 360 40 116 47 149 39 167 -13 28 -55 40 -77 22 -34 -28
-106 -241 -179 -534 -64 -254 -82 -301 -121 -311 -35 -9 -95 40 -111 92 -39
130 82 711 200 954 43 91 145 190 223 220 71 27 212 37 299 21 78 -14 188 -69
246 -123 25 -24 80 -86 121 -138 100 -126 110 -134 150 -126 17 3 107 47 198
96 92 50 169 90 172 90 4 0 -7 -24 -23 -52 -16 -29 -42 -96 -58 -148 -30 -95
-30 -96 -95 -143 -101 -74 -189 -112 -261 -111 -33 0 -77 8 -97 17 l-38 16 0
79 c0 64 -3 81 -16 86 -32 12 -64 6 -78 -16 -7 -13 -28 -104 -46 -203 -17 -99
-40 -220 -51 -270 -10 -49 -19 -104 -19 -122 0 -37 -1 -37 130 -53 219 -26
286 -44 338 -93 39 -36 86 -143 131 -297 61 -209 72 -234 101 -238 14 -2 34 4
45 12 19 14 19 15 1 87 -68 272 -121 409 -187 482 -76 85 -158 116 -351 133
-62 5 -78 10 -78 23 0 9 11 77 26 152 l27 135 56 -19 c76 -26 187 -19 265 16
56 26 132 74 160 103 15 14 16 6 16 -86 0 -120 22 -237 56 -299 22 -38 24 -48
13 -73 -16 -40 -5 -177 20 -232 43 -99 138 -167 276 -200 98 -23 97 -23 223
-37 l114 -12 56 -76 c31 -42 80 -109 109 -148 55 -75 73 -85 114 -63 10 6 19
15 19 20 0 14 -186 288 -218 322 -16 18 -39 29 -66 32 -470 58 -519 85 -560
315 -6 32 -5 33 11 19 59 -52 216 -102 431 -138 168 -27 227 -26 286 5 l48 25
41 -18 c66 -30 125 -103 237 -300 161 -281 179 -306 217 -310 24 -2 34 2 43
18 13 24 -17 82 -198 390 -93 158 -177 254 -263 299 -41 22 -48 30 -59 74 -14
57 -65 119 -119 147 -20 10 -76 30 -126 45 -124 38 -164 60 -180 99 -16 37
-35 205 -35 301 0 70 -17 95 -63 95 -43 0 -47 -22 -37 -200 11 -177 14 -198
41 -251 26 -52 82 -85 220 -130 144 -47 183 -73 201 -131 12 -39 11 -42 -17
-65 -26 -23 -34 -25 -89 -19 -208 22 -406 73 -487 125 -94 59 -133 138 -148
298 -18 190 8 381 67 498 80 159 249 256 452 259 150 2 252 -36 351 -131 45
-43 65 -72 93 -138 20 -46 36 -89 36 -95 0 -30 114 -389 140 -440 30 -59 116
-138 167 -154 38 -12 83 -73 83 -112 0 -23 -6 -37 -17 -41 -27 -10 -101 15
-229 78 -135 67 -190 114 -205 175 -4 22 -9 129 -9 239 0 225 -6 248 -57 253
-23 2 -35 -3 -47 -19 -14 -20 -15 -52 -10 -234 3 -115 10 -234 15 -262 22
-112 145 -200 444 -318 66 -26 128 -55 139 -64 35 -31 65 -97 119 -262 70
-212 79 -229 117 -229 22 0 33 6 41 23 9 19 -1 57 -54 213 -75 221 -102 279
-152 323 -33 29 -36 34 -22 49 23 27 29 59 22 114 -9 62 -47 107 -150 176 -59
40 -75 56 -101 109 -16 33 -45 114 -63 180 -50 182 -99 326 -132 386 -56 104
-145 186 -243 225 l-47 18 47 34 c119 90 178 237 154 386 -33 203 -207 344
-424 344 -324 0 -516 -322 -361 -605 36 -66 65 -96 121 -130 l38 -23 -33 -7
c-92 -20 -277 -104 -525 -239 -77 -41 -143 -73 -148 -70 -5 3 -27 31 -50 62
-60 82 -134 159 -200 207 l-56 42 54 17 c93 29 196 126 243 226 22 48 25 69
26 160 0 99 -2 109 -32 171 -96 196 -308 299 -503 245z m197 -99 c130 -34 233
-173 233 -313 0 -89 -27 -151 -95 -220 -72 -72 -125 -94 -229 -94 -87 0 -137
21 -205 85 -67 63 -105 148 -104 235 2 219 188 362 400 307z m1343 -73 c79
-23 172 -118 195 -199 34 -116 -1 -242 -88 -320 -68 -60 -127 -79 -231 -73
-62 4 -93 11 -132 31 -65 33 -128 104 -150 169 -24 72 -21 175 6 230 39 77
117 147 190 169 44 13 155 10 210 -7z"/>
<path d="M4001 4496 c-7 -8 -11 -27 -9 -42 3 -24 12 -30 102 -60 118 -40 196
-84 242 -138 47 -55 113 -188 169 -341 60 -164 81 -190 125 -150 15 14 20 9
56 -57 43 -79 65 -99 91 -82 40 25 38 36 -42 200 -42 87 -86 177 -96 199 -12
24 -32 46 -51 55 -23 11 -46 41 -87 114 -75 133 -129 187 -236 237 -76 35
-210 79 -241 79 -6 0 -17 -6 -23 -14z"/>
</g>
</svg>
