<?xml version="1.0" standalone="no"?>
<!DOCTYPE svg PUBLIC "-//W3C//DTD SVG 20010904//EN"
 "http://www.w3.org/TR/2001/REC-SVG-20010904/DTD/svg10.dtd">
<svg version="1.0" xmlns="http://www.w3.org/2000/svg"
 width="1024.000000pt" height="1024.000000pt" viewBox="0 0 1024.000000 1024.000000"
 preserveAspectRatio="xMidYMid meet">
<metadata>
Created by potrace 1.16, written by Peter Selinger 2001-2019
</metadata>
<g transform="translate(0.000000,1024.000000) scale(0.100000,-0.100000)"
fill="#000000" stroke="none">
<path d="M4136 8199 l-26 -31 -1 -1846 c-1 -1016 -5 -1833 -9 -1817 -8 30 -12
21 -13 -23 0 -23 -54 -74 -84 -78 -8 -2 -18 -6 -21 -10 -4 -4 2 -4 13 0 13 4
16 4 10 -2 -14 -13 -216 -184 -238 -201 -16 -13 -17 3 -16 301 1 173 5 339 11
369 22 128 41 209 63 279 36 112 56 230 64 361 3 65 5 116 3 114 -2 -1 -14 8
-27 21 -30 30 -59 30 -89 1 -21 -21 -24 -35 -29 -153 -6 -124 -29 -245 -72
-369 -8 -25 -17 -59 -21 -77 -3 -18 -12 -69 -20 -113 -10 -52 -16 -176 -19
-355 -9 -495 -10 -509 -41 -542 -15 -15 -34 -28 -41 -28 -7 0 -13 -4 -13 -9 0
-14 -292 -261 -302 -255 -4 3 -7 1 -6 -5 4 -13 -232 -222 -243 -215 -5 3 -9 0
-9 -6 0 -14 -61 -66 -73 -62 -5 1 -6 -1 -3 -6 3 -5 -25 -33 -62 -62 -37 -30
-83 -69 -103 -88 -20 -18 -45 -35 -55 -36 -11 -2 -19 -8 -19 -14 0 -15 -41
-52 -49 -45 -3 4 -6 187 -6 409 0 312 3 403 13 407 9 4 9 6 0 6 -10 1 -13 173
-13 784 l0 782 -25 23 c-32 27 -56 28 -80 2 -10 -11 -20 -18 -24 -16 -3 2 -6
-564 -6 -1259 0 -1229 -1 -1263 -19 -1284 -11 -12 -21 -20 -22 -18 -2 2 -27
-18 -55 -45 -28 -26 -56 -45 -62 -41 -5 3 -7 1 -3 -5 3 -6 -15 -27 -41 -48
-89 -70 -143 -127 -143 -151 0 -30 34 -63 65 -63 22 0 134 86 241 185 14 13
31 22 36 19 4 -3 7 -2 6 3 -5 15 80 85 93 77 7 -4 9 -3 6 3 -4 6 12 28 36 48
23 21 71 63 107 95 36 32 79 69 95 81 52 41 290 242 296 252 4 5 12 6 19 2 8
-5 11 -4 6 3 -3 6 7 21 23 34 15 13 121 103 234 201 126 109 211 176 218 171
7 -4 9 -3 5 4 -7 12 63 74 76 66 5 -3 7 -1 6 5 -4 14 262 242 273 235 5 -3 8
-1 7 4 -4 12 173 163 184 156 5 -3 7 0 6 8 -2 7 5 12 14 12 10 -1 16 2 13 6
-6 10 34 40 53 40 7 0 10 -5 6 -11 -4 -8 -1 -8 12 -1 24 12 504 15 504 3 0 -5
7 -12 16 -15 14 -5 15 -4 5 8 -10 12 -9 15 8 13 12 -1 21 -4 21 -7 0 -14 -67
-70 -75 -63 -4 5 -5 2 -1 -5 10 -17 -213 -245 -232 -237 -7 3 -10 0 -7 -6 8
-13 -65 -80 -78 -72 -6 3 -7 1 -3 -5 10 -16 -134 -164 -152 -157 -7 2 -10 0
-7 -5 9 -15 -383 -403 -397 -394 -6 4 -8 3 -5 -3 10 -15 -459 -487 -474 -477
-8 4 -10 3 -5 -5 9 -14 -62 -83 -78 -74 -6 3 -8 2 -3 -2 10 -11 -73 -96 -86
-88 -6 3 -7 2 -4 -4 8 -13 -57 -76 -68 -66 -4 5 -5 3 -2 -3 8 -14 -66 -87 -79
-77 -5 5 -6 4 -2 -1 4 -5 -6 -24 -22 -43 -35 -39 -38 -71 -10 -101 42 -45 50
-39 283 188 71 69 133 124 139 122 5 -1 7 1 4 6 -7 12 68 84 78 75 4 -5 6 -1
4 7 -2 9 3 14 12 12 8 -2 12 0 7 4 -9 10 23 45 35 38 4 -3 7 0 6 8 -2 7 3 12
10 10 8 -1 11 1 8 6 -7 12 128 144 138 135 4 -4 6 -1 4 7 -2 9 3 14 12 12 8
-2 12 0 7 4 -9 10 61 83 77 80 6 -2 7 -1 3 2 -5 2 8 22 29 43 20 21 42 35 47
32 6 -3 7 -1 4 4 -7 12 26 46 36 38 4 -3 5 -2 2 2 -7 9 26 44 37 37 4 -3 7 0
6 8 -2 7 3 12 10 10 8 -1 11 1 8 6 -6 11 47 64 57 57 4 -3 5 -2 2 2 -8 10 67
83 78 76 6 -3 7 -2 4 4 -8 13 67 86 78 76 4 -5 5 -3 2 3 -8 13 46 67 57 57 4
-5 6 -1 4 7 -2 9 3 14 12 12 8 -2 12 0 7 4 -9 10 52 74 71 74 7 0 11 4 8 8 -7
12 49 64 58 55 4 -5 6 -1 4 7 -2 9 3 14 12 12 8 -2 12 0 7 4 -10 10 63 85 76
77 6 -3 7 -2 4 4 -8 13 67 86 78 76 4 -5 5 -3 2 3 -8 14 66 87 78 77 4 -5 5
-3 2 3 -8 14 146 167 158 157 4 -4 5 -3 2 3 -8 14 36 57 48 47 4 -5 5 -3 2 3
-4 7 12 30 36 53 l42 41 458 0 c420 -1 456 -2 442 -17 -9 -9 -23 -26 -32 -39
-8 -13 -20 -21 -26 -17 -5 3 -7 2 -4 -4 10 -16 -190 -266 -205 -256 -7 4 -8 1
-3 -6 8 -14 -33 -64 -46 -56 -4 3 -11 0 -15 -6 -4 -8 -3 -9 4 -5 19 12 14 -3
-14 -40 -14 -18 -31 -31 -37 -27 -5 3 -7 2 -4 -3 6 -10 -253 -341 -296 -379
-12 -11 -22 -22 -22 -25 0 -15 -59 -79 -68 -73 -5 3 -7 2 -4 -4 7 -12 -250
-329 -264 -325 -6 1 -8 -2 -5 -7 3 -5 -22 -43 -55 -85 -53 -67 -63 -75 -78
-64 -14 12 -14 11 -3 -4 12 -15 9 -23 -24 -62 -32 -38 -40 -43 -53 -33 -14 10
-14 10 -4 -3 10 -13 -1 -33 -68 -115 -44 -55 -84 -99 -90 -97 -6 1 -8 -1 -5
-6 8 -13 -24 -53 -36 -46 -6 4 -8 3 -5 -3 3 -5 -27 -52 -68 -104 -57 -72 -75
-102 -75 -126 0 -52 43 -78 89 -53 10 5 80 86 155 180 81 101 142 168 148 164
7 -4 8 -2 4 5 -5 7 14 37 46 75 29 35 86 104 127 154 43 53 78 89 86 86 7 -3
16 -1 20 5 3 7 0 8 -9 5 -24 -9 -19 5 13 41 16 19 33 31 38 27 4 -4 5 -3 1 2
-10 12 82 127 95 119 6 -3 7 -1 3 5 -7 11 37 71 111 152 18 19 33 39 33 43 0
5 5 5 12 1 6 -4 8 -3 5 2 -3 5 25 46 61 90 37 44 81 98 98 120 18 21 55 68 84
104 28 36 56 64 62 62 5 -1 7 2 4 6 -3 5 6 22 20 38 14 16 33 39 41 52 13 18
18 20 25 10 7 -9 8 -7 4 6 -7 22 40 79 57 69 5 -3 8 0 5 8 -5 15 119 176 133
172 5 -2 6 3 4 10 -5 12 93 134 105 130 4 -1 7 4 7 11 0 8 21 41 48 75 l48 61
468 0 c460 -1 468 -1 452 -20 -9 -10 -21 -16 -26 -13 -6 3 -7 1 -3 -5 7 -12
-121 -198 -134 -195 -5 2 -7 -3 -4 -11 3 -8 1 -17 -5 -21 -6 -3 -15 4 -20 17
-6 14 -10 17 -10 8 -1 -9 4 -21 10 -27 7 -7 -2 -28 -31 -69 -23 -33 -46 -58
-52 -56 -5 1 -7 -2 -3 -8 8 -13 -64 -112 -76 -105 -5 4 -7 0 -4 -7 3 -7 -36
-71 -85 -142 -50 -71 -95 -137 -101 -148 -5 -10 -14 -16 -19 -13 -5 3 -12 0
-16 -6 -4 -8 -3 -9 4 -5 16 10 15 -5 -2 -26 -7 -10 -17 -14 -21 -10 -5 4 -6 2
-2 -3 7 -13 -217 -341 -231 -338 -5 1 -9 -4 -8 -11 2 -22 -144 -227 -156 -220
-7 4 -8 3 -4 -4 7 -12 -56 -107 -231 -350 -129 -178 -143 -200 -143 -234 0
-36 39 -63 78 -54 15 4 32 7 39 8 7 1 10 5 7 10 -3 5 9 28 26 51 17 23 124
173 236 332 113 160 209 289 215 287 6 -1 8 2 4 7 -8 14 25 62 38 54 6 -3 7
-1 3 5 -9 15 23 64 37 55 6 -3 7 -1 3 5 -4 6 18 47 49 91 42 59 60 79 73 75
13 -5 14 -3 4 4 -11 7 -3 25 35 81 26 39 53 69 60 67 7 -3 10 1 7 9 -5 12 41
84 228 355 21 30 70 100 109 155 39 55 80 115 91 132 11 19 25 30 31 26 7 -3
9 -3 5 2 -11 11 11 47 24 39 7 -4 8 -3 4 4 -4 7 26 58 67 116 l73 105 415 0
c228 1 409 -2 403 -6 -5 -5 -18 -25 -27 -45 -12 -25 -22 -35 -32 -32 -8 4 -15
1 -15 -6 0 -6 4 -8 10 -5 14 9 12 -1 -5 -36 -9 -17 -21 -27 -27 -23 -7 4 -8 3
-4 -5 9 -14 -74 -162 -87 -154 -6 3 -7 1 -3 -5 3 -6 -17 -53 -45 -104 -29 -51
-66 -118 -82 -148 -58 -104 -95 -162 -99 -153 -3 4 -3 2 -1 -5 5 -23 -26 -72
-42 -66 -8 4 -15 1 -15 -6 0 -6 5 -8 10 -5 17 10 12 -3 -31 -80 -24 -44 -45
-72 -51 -68 -7 3 -8 1 -4 -6 9 -15 -164 -322 -178 -314 -5 3 -6 1 -2 -5 9 -15
-123 -244 -136 -236 -6 4 -8 1 -6 -7 5 -15 -27 -79 -123 -241 -33 -55 -59
-110 -59 -122 0 -45 55 -70 100 -46 19 10 31 31 205 332 57 97 105 175 107
172 3 -2 5 2 5 9 0 12 65 131 356 647 65 116 249 442 302 535 161 284 164 293
117 338 l-28 27 -1927 0 -1927 0 0 1830 0 1831 -25 24 c-32 33 -58 31 -89 -6z"/>
<path d="M3053 7960 c-35 -14 -42 -39 -44 -166 -4 -194 -26 -341 -80 -534 -16
-58 -32 -112 -36 -120 -3 -8 -7 -19 -7 -25 -7 -50 -19 -96 -25 -87 -3 5 -7
-15 -7 -46 -1 -32 -6 -93 -11 -137 -13 -119 1 -311 33 -440 62 -259 73 -327
74 -451 0 -107 2 -123 20 -139 27 -24 66 -22 97 6 l25 24 -5 140 c-4 91 -14
175 -28 240 -13 55 -23 115 -23 133 0 18 -2 28 -6 22 -3 -6 -14 22 -23 62 -59
250 -43 481 53 783 52 163 80 357 80 555 l0 149 -26 20 c-30 23 -30 23 -61 11z"/>
<path d="M3498 7464 c-15 -8 -30 -25 -32 -37 -10 -43 -11 -115 -2 -110 5 3 7
-22 4 -56 -2 -34 -1 -57 2 -51 11 17 30 -187 30 -310 0 -63 -5 -146 -10 -185
-14 -102 -51 -246 -61 -239 -5 3 -6 -2 -3 -10 5 -12 -29 -144 -53 -206 -3 -8
-7 -26 -8 -40 -1 -14 -10 -63 -20 -110 -23 -115 -33 -476 -14 -511 7 -13 13
-26 12 -29 -1 -3 19 -3 45 0 66 7 71 23 71 200 0 80 4 183 9 230 11 85 53 286
72 335 18 47 52 189 72 300 32 181 34 331 8 576 -29 266 -44 296 -122 253z"/>
<path d="M3243 7000 c-35 -14 -43 -42 -43 -152 0 -89 -16 -217 -35 -284 -8
-27 21 -62 63 -73 23 -7 30 -7 26 1 -5 7 -1 9 9 5 9 -3 16 -3 15 1 0 4 6 24
15 44 35 77 59 317 41 407 -5 21 -16 37 -35 46 -15 8 -29 15 -31 14 -2 0 -13
-4 -25 -9z"/>
<path d="M2834 5016 c-44 -33 -34 -227 25 -457 39 -157 61 -286 43 -260 -7 10
-11 10 -17 1 -4 -7 1 -13 13 -17 20 -5 21 -13 21 -135 l1 -131 -22 19 c-22 19
-22 19 -8 -1 8 -11 20 -23 25 -27 6 -5 4 -8 -4 -8 -12 0 -12 -3 -3 -12 7 -7
12 -22 12 -33 0 -59 82 -86 118 -40 19 24 20 38 17 223 -3 204 -10 253 -61
442 -29 107 -55 293 -42 298 4 2 7 22 7 45 l-2 42 -7 -40 -7 -40 -2 52 c-1 40
-6 57 -23 73 -25 23 -56 26 -84 6z"/>
<path d="M6246 4010 c-16 -10 -34 -16 -39 -13 -6 3 -7 1 -3 -5 7 -11 -6 -17
-27 -13 -5 1 -6 -3 -3 -7 3 -5 -17 -28 -44 -51 -48 -41 -68 -51 -54 -29 5 7 3
8 -5 4 -7 -5 -10 -11 -7 -14 3 -3 -18 -31 -48 -62 -52 -54 -156 -202 -156
-222 0 -5 -5 -6 -12 -2 -7 4 -8 3 -4 -4 21 -34 -191 -389 -230 -386 -7 1 -12
-2 -9 -6 8 -14 -78 -90 -95 -84 -8 3 -11 2 -7 -2 8 -8 -11 -34 -25 -34 -5 0
-6 5 -2 12 4 7 3 8 -5 4 -6 -4 -9 -11 -7 -15 3 -4 -11 -22 -29 -40 -40 -37
-46 -78 -17 -104 38 -34 81 -16 195 79 23 19 46 30 55 27 11 -3 13 -2 5 4 -8
6 1 21 32 51 28 27 45 38 49 29 3 -7 5 -6 3 3 -1 9 12 34 29 55 17 22 42 59
56 83 13 23 28 40 31 37 4 -3 5 -2 3 1 -2 3 13 42 34 87 20 45 40 90 44 100 3
10 10 16 15 12 5 -3 13 0 17 6 4 8 3 9 -4 5 -18 -11 -14 9 9 51 62 111 146
200 282 300 79 59 87 68 87 98 0 59 -57 82 -114 45z"/>
<path d="M5088 4003 c-9 -2 -36 -30 -59 -61 -112 -148 -178 -210 -325 -311
-41 -27 -68 -39 -80 -35 -13 4 -15 3 -7 -3 15 -10 -91 -78 -119 -76 -10 1 -20
-2 -23 -8 -3 -5 2 -6 12 -3 10 4 -2 -12 -27 -34 -25 -22 -49 -37 -55 -34 -5 3
-7 2 -3 -2 9 -10 -62 -87 -74 -80 -5 3 -7 2 -6 -3 5 -15 -63 -104 -74 -97 -7
4 -8 2 -4 -4 3 -6 -15 -44 -42 -84 -61 -92 -68 -117 -41 -152 40 -50 81 -32
140 61 74 118 161 225 172 211 6 -10 7 -9 4 3 -7 20 56 84 72 74 7 -3 10 -1 9
6 -4 16 103 90 120 84 7 -3 11 -1 8 4 -7 11 93 73 105 65 5 -3 8 -1 7 4 -2 5
33 36 77 69 107 82 225 205 273 286 28 49 28 72 -3 102 -24 25 -27 26 -57 18z"/>
<path d="M7232 3863 c-6 -2 -28 -29 -48 -58 -23 -36 -40 -52 -50 -48 -8 3 -14
0 -14 -7 0 -6 5 -8 10 -5 47 29 -64 -106 -237 -287 -78 -81 -158 -174 -179
-206 -68 -103 -66 -100 -60 -74 2 13 0 20 -6 16 -5 -3 -7 -17 -4 -30 4 -15 -3
-42 -19 -74 -40 -79 -30 -126 32 -144 25 -8 54 18 73 65 7 16 17 26 23 22 6
-3 7 -1 3 6 -8 12 47 112 99 181 14 19 74 85 133 145 60 61 130 137 158 170
27 33 54 65 61 72 6 7 21 28 33 48 13 21 26 32 33 28 7 -3 9 -3 5 1 -4 5 3 25
16 45 13 20 27 47 31 61 4 14 13 29 19 33 7 6 6 7 -3 5 -8 -2 -24 6 -37 19
-22 22 -45 27 -72 16z"/>
</g>
</svg>
