<?xml version="1.0" standalone="no"?>
<!DOCTYPE svg PUBLIC "-//W3C//DTD SVG 20010904//EN"
 "http://www.w3.org/TR/2001/REC-SVG-20010904/DTD/svg10.dtd">
<svg version="1.0" xmlns="http://www.w3.org/2000/svg"
 width="1024.000000pt" height="1024.000000pt" viewBox="0 0 1024.000000 1024.000000"
 preserveAspectRatio="xMidYMid meet">
<metadata>
Created by potrace 1.16, written by Peter Selinger 2001-2019
</metadata>
<g transform="translate(0.000000,1024.000000) scale(0.100000,-0.100000)"
fill="#000000" stroke="none">
<path d="M5783 6835 c-198 -44 -333 -212 -333 -413 0 -138 46 -241 146 -331
l55 -49 -64 -4 c-148 -9 -299 -124 -389 -295 -64 -122 -146 -394 -149 -490 0
-25 -1 -26 -9 -8 -4 11 -16 56 -25 100 -64 298 -201 527 -367 611 -63 32 -171
56 -231 52 -26 -2 -47 0 -47 5 0 4 4 7 9 7 4 0 38 27 74 61 184 168 195 429
25 614 -88 96 -200 145 -334 145 -172 0 -317 -92 -395 -248 -30 -60 -34 -78
-37 -170 -4 -88 -1 -112 18 -165 30 -81 57 -122 114 -175 89 -82 221 -125 351
-115 l60 5 -49 -32 c-57 -37 -159 -115 -301 -230 -119 -96 -226 -152 -332
-175 -168 -35 -220 -49 -271 -73 -115 -54 -158 -160 -116 -289 l16 -49 -113
-175 c-62 -96 -180 -274 -262 -397 -161 -241 -170 -263 -107 -277 16 -4 34 -4
40 0 6 4 36 43 68 88 63 90 460 697 465 711 2 5 16 2 32 -7 112 -57 349 -61
512 -9 l92 29 178 -134 c209 -159 222 -167 257 -153 33 12 33 33 0 90 -34 59
-70 154 -99 262 l-23 88 80 47 c82 49 103 74 87 105 -23 43 -41 39 -165 -34
-171 -102 -376 -193 -504 -223 -126 -29 -315 -13 -408 34 -65 33 -79 104 -31
165 33 42 91 66 223 92 158 31 170 35 264 84 72 37 138 86 362 268 36 29 99
70 140 90 67 33 83 37 155 37 107 0 169 -30 259 -125 133 -141 222 -409 257
-770 33 -352 -45 -570 -239 -668 -86 -42 -158 -55 -272 -49 -219 12 -428 122
-737 390 -155 134 -167 137 -236 53 -24 -28 -99 -118 -168 -199 -183 -219
-184 -220 -153 -251 22 -23 61 -20 87 7 12 12 89 104 171 204 l149 181 86 -75
c237 -206 446 -335 626 -385 64 -18 106 -22 210 -22 116 0 139 3 210 28 99 34
158 71 223 140 52 55 91 122 113 194 l12 42 27 -68 c68 -176 201 -288 385
-327 221 -46 501 29 765 207 86 59 243 182 312 246 26 24 51 42 56 40 6 -1 61
-61 123 -133 63 -71 150 -167 195 -213 77 -80 82 -83 120 -80 35 3 39 6 42 32
3 24 -10 42 -85 120 -49 50 -149 157 -221 238 -73 81 -142 150 -152 153 -27 8
-44 -3 -177 -112 -364 -299 -591 -413 -826 -413 -320 0 -487 196 -487 574 0
149 14 291 46 449 68 347 175 532 354 615 78 37 192 37 270 0 120 -55 170
-126 350 -498 39 -80 80 -153 92 -162 29 -25 56 -23 150 16 120 48 212 69 267
61 39 -6 55 -16 106 -69 33 -34 101 -122 151 -196 348 -518 501 -738 540 -782
37 -42 104 -34 104 12 0 8 -27 53 -61 100 -33 47 -185 267 -337 489 -152 222
-296 425 -319 451 -64 71 -119 94 -223 94 -72 0 -101 -6 -185 -36 -55 -20
-108 -39 -117 -43 -14 -6 -33 26 -113 186 -120 240 -161 304 -235 372 l-58 54
59 6 c133 14 271 112 332 236 30 62 32 73 32 176 0 99 -3 117 -29 178 -31 75
-105 164 -170 204 -94 60 -233 83 -343 58z m243 -116 c74 -35 136 -99 172
-177 21 -46 26 -72 27 -137 0 -71 -4 -88 -33 -147 -37 -76 -83 -120 -159 -155
-134 -62 -283 -32 -390 79 -67 69 -88 125 -88 238 0 86 3 100 29 148 16 29 49
70 72 92 110 101 239 122 370 59z m-1743 2 c72 -28 150 -104 186 -180 36 -79
36 -192 -1 -271 -76 -166 -246 -245 -418 -194 -151 45 -240 168 -240 332 0 92
26 156 90 226 104 112 238 143 383 87z"/>
<path d="M5692 5478 c-7 -7 -12 -20 -12 -29 0 -20 98 -227 158 -334 l39 -70
-64 -85 c-83 -112 -96 -139 -79 -165 7 -11 24 -21 37 -23 29 -3 52 19 131 130
l55 77 27 -28 c64 -67 197 -107 326 -98 90 6 171 32 308 98 80 40 103 56 108
75 7 27 -18 64 -43 64 -7 0 -57 -22 -111 -49 -147 -74 -191 -86 -307 -86 -84
0 -107 4 -146 23 -108 53 -175 139 -290 372 -64 130 -71 140 -97 140 -15 0
-33 -5 -40 -12z"/>
<path d="M2690 4915 c-559 -69 -859 -217 -860 -425 0 -89 70 -191 187 -272
295 -203 1086 -415 1813 -487 1147 -114 2129 -85 3145 95 517 91 989 248 1200
399 193 137 232 280 113 410 -61 67 -136 113 -259 161 -117 45 -360 103 -459
109 l-75 5 55 -14 c112 -28 287 -77 340 -97 106 -40 232 -112 284 -163 87 -86
95 -155 31 -239 -200 -261 -949 -476 -2050 -586 -365 -37 -558 -45 -1045 -45
-497 1 -824 16 -1210 55 -986 99 -1821 359 -1939 602 -81 168 78 298 524 426
39 11 89 23 113 27 23 4 42 10 42 15 0 5 8 8 18 7 29 -4 131 13 137 23 4 5 5
9 3 8 -2 -1 -50 -7 -108 -14z"/>
</g>
</svg>
