<?xml version="1.0" standalone="no"?>
<!DOCTYPE svg PUBLIC "-//W3C//DTD SVG 20010904//EN" "http://www.w3.org/TR/2001/REC-SVG-20010904/DTD/svg10.dtd">
<svg xmlns="http://www.w3.org/2000/svg" version="1.0" width="1024.000000pt" height="1024.000000pt" viewBox="0 0 1024.000000 1024.000000" preserveAspectRatio="xMidYMid meet">
<metadata>
Created by potrace 1.16, written by Peter Selinger 2001-2019
<meta name="Producer" content="Online-Convert"/></metadata>
<g transform="translate(0.000000,1024.000000) scale(0.100000,-0.100000)" fill="#000000" stroke="none">
<path d="M6993 8925 c-42 -18 -54 -43 -55 -116 -1 -33 -5 -62 -9 -65 -4 -2 -4 -17 1 -33 11 -39 11 -123 0 -161 -5 -18 -5 -30 1 -30 5 0 9 -14 9 -31 0 -20 10 -40 29 -60 40 -40 89 -40 133 0 l33 29 0 121 c0 67 4 121 8 121 5 0 5 5 2 10 -6 10 -11 61 -14 143 -1 35 -53 87 -85 87 -11 -1 -35 -7 -53 -15z"/>
<path d="M6029 8541 c-22 -23 -29 -39 -29 -69 0 -35 8 -48 65 -109 35 -39 62 -73 60 -77 -3 -3 -2 -4 2 -1 11 8 53 -37 46 -49 -3 -6 -3 -8 2 -4 4 4 29 -12 55 -36 56 -52 96 -64 143 -41 38 18 57 50 57 96 0 25 -23 53 -145 174 -139 139 -147 145 -186 145 -31 0 -47 -7 -70 -29z"/>
<path d="M7937 8559 c-9 -5 -22 -7 -27 -4 -6 4 -9 2 -8 -4 4 -14 -72 -92 -83 -85 -5 3 -8 2 -7 -3 5 -14 -124 -153 -136 -146 -6 3 -8 3 -4 -1 3 -4 0 -22 -7 -39 -19 -46 0 -97 42 -118 18 -9 40 -23 50 -30 9 -8 14 -9 10 -2 -7 11 47 38 68 34 5 -2 7 1 3 5 -11 10 12 35 25 27 5 -3 7 -2 4 4 -3 5 22 38 57 72 37 36 66 58 69 52 3 -7 4 -6 3 1 -2 7 16 34 40 60 33 35 44 55 44 79 0 78 -81 134 -143 98z"/>
<path d="M6888 8246 c-32 -7 -78 -21 -103 -30 -24 -10 -50 -14 -56 -10 -8 4 -9 3 -5 -4 4 -7 -10 -20 -36 -33 -24 -12 -58 -34 -77 -50 -19 -15 -39 -25 -45 -22 -6 3 -8 2 -3 -2 10 -11 -83 -106 -96 -98 -6 3 -7 1 -3 -5 4 -7 -7 -32 -24 -57 -17 -25 -36 -59 -42 -75 -5 -17 -14 -28 -18 -25 -5 3 -12 0 -16 -6 -4 -8 -3 -9 4 -5 15 9 15 7 -3 -45 -9 -24 -20 -62 -25 -85 -12 -52 -15 -253 -4 -279 5 -11 8 -37 8 -58 0 -21 2 -33 4 -27 5 15 54 -98 56 -127 0 -13 6 -23 11 -23 6 -1 30 -28 55 -62 25 -33 66 -78 92 -101 26 -22 45 -44 41 -50 -3 -6 -1 -7 6 -3 6 4 25 -2 41 -14 48 -34 151 -77 217 -91 34 -7 60 -15 58 -18 -5 -9 174 -2 245 10 35 6 98 23 139 39 41 16 79 26 84 23 6 -3 7 -1 3 5 -4 6 6 17 22 26 50 26 147 113 191 171 54 71 108 184 123 257 7 32 14 58 18 58 3 0 2 60 -1 132 -7 133 -22 206 -60 280 -10 20 -17 43 -16 50 2 7 2 9 -1 5 -2 -4 -22 18 -43 48 -22 31 -36 61 -33 67 4 6 2 8 -3 5 -13 -8 -36 17 -25 28 4 5 2 5 -4 2 -7 -4 -18 1 -25 10 -8 9 -9 14 -4 11 6 -4 17 -3 24 1 7 5 1 8 -17 9 -18 0 -49 15 -78 37 -59 45 -128 81 -219 112 -86 31 -266 40 -357 19z m310 -210 c29 -10 62 -26 73 -37 11 -11 25 -17 32 -12 8 5 8 2 -1 -9 -12 -14 -10 -16 15 -13 63 7 219 -207 228 -312 1 -21 6 -46 10 -56 12 -28 -2 -160 -23 -220 -28 -77 -71 -144 -84 -126 -7 10 -8 8 -3 -7 4 -17 -6 -32 -46 -68 -29 -26 -58 -45 -65 -42 -8 3 -13 0 -11 -7 1 -7 -6 -11 -15 -11 -10 1 -16 -3 -15 -9 3 -16 -110 -57 -193 -69 -209 -31 -419 79 -520 273 -101 194 -68 424 82 585 55 58 91 84 72 52 -4 -8 -3 -10 2 -5 5 5 9 14 9 20 0 18 113 71 151 71 18 0 29 3 22 7 -37 23 206 18 280 -5z"/>
<path d="M5784 7652 c2 -4 -24 -8 -57 -9 -55 -2 -65 -5 -89 -32 -25 -28 -28 -38 -26 -94 1 -34 4 -54 6 -45 3 16 7 15 37 -8 l34 -26 193 4 c203 3 220 7 248 52 16 25 31 88 20 81 -4 -3 -10 4 -13 14 -10 41 -48 52 -194 57 -76 3 -144 7 -151 10 -7 2 -11 0 -8 -4z"/>
<path d="M7990 7634 c-29 -12 -60 -59 -60 -89 0 -9 11 -37 25 -63 14 -26 25 -41 25 -35 0 9 7 10 25 3 36 -14 334 -14 384 0 22 6 49 21 59 35 11 13 21 22 24 20 3 -3 2 15 -2 40 -8 52 -30 80 -74 94 -45 14 -370 10 -406 -5z"/>
<path d="M6307 6946 c4 -5 -1 -7 -10 -3 -9 3 -16 3 -14 -1 3 -13 -69 -72 -78 -64 -5 4 -5 2 -2 -4 7 -12 -145 -168 -156 -159 -4 3 -5 2 -2 -1 2 -4 -4 -19 -15 -33 -10 -15 -22 -39 -25 -53 -8 -30 16 -82 44 -98 30 -15 83 -12 111 8 29 20 251 246 263 268 5 8 12 12 17 9 8 -5 8 0 -4 57 -6 29 -48 77 -69 79 -46 5 -65 4 -60 -5z"/>
<path d="M7713 6953 c4 -3 -5 -14 -18 -25 -43 -33 -52 -120 -15 -143 5 -3 7 -12 4 -18 -4 -7 -3 -9 1 -4 12 10 95 -72 89 -88 -3 -7 -1 -16 5 -20 7 -4 8 1 4 12 -6 16 -5 16 10 4 9 -7 14 -18 10 -24 -3 -5 -1 -7 4 -4 13 8 46 -27 36 -37 -5 -4 -3 -6 3 -4 13 4 85 -63 78 -73 -2 -4 1 -11 7 -15 7 -4 9 -3 6 3 -4 7 9 9 38 6 39 -5 47 -2 75 25 23 24 30 39 30 71 0 22 -5 43 -11 46 -6 4 -8 13 -5 21 3 8 1 13 -3 11 -14 -4 -72 53 -66 64 4 5 2 8 -3 7 -16 -5 -83 62 -76 75 4 7 3 9 -1 4 -12 -10 -86 63 -78 77 3 6 2 8 -2 3 -5 -4 -18 -1 -29 6 -21 14 -104 32 -93 20z"/>
<path d="M7015 6660 c3 -5 -1 -10 -10 -10 -9 0 -27 -11 -40 -24 -13 -13 -25 -22 -27 -21 -2 2 -2 -82 -2 -186 1 -209 6 -225 64 -249 27 -11 38 -11 64 -1 17 7 37 13 44 14 6 0 10 2 7 5 -2 3 1 14 7 25 17 32 19 344 3 384 -7 17 -11 34 -9 37 2 3 2 4 -2 2 -3 -2 -28 5 -55 15 -28 11 -48 15 -44 9z"/>
<path d="M3155 6389 c-158 -7 -177 -11 -256 -50 -54 -27 -149 -110 -149 -130 0 -6 -5 -7 -10 -4 -6 4 -10 3 -9 -2 5 -28 -4 -33 -62 -33 -37 0 -58 4 -54 10 3 6 -1 7 -10 4 -17 -7 -105 3 -383 42 -95 13 -177 24 -183 24 -6 0 -8 4 -5 8 2 4 -11 6 -31 4 -25 -3 -34 -1 -29 7 5 7 1 9 -9 5 -24 -10 -226 27 -218 39 4 6 -3 8 -16 4 -36 -9 -131 14 -131 33 0 10 -3 11 -8 3 -4 -6 -19 -14 -34 -18 -33 -9 -58 -36 -74 -81 -7 -20 -9 -33 -6 -30 3 4 11 -7 18 -23 7 -16 25 -36 41 -45 37 -19 222 -58 433 -91 91 -14 176 -28 190 -30 14 -2 63 -9 110 -15 388 -48 431 -56 401 -74 -6 -4 -11 -2 -11 3 0 6 -4 11 -8 11 -4 0 -8 -9 -8 -20 0 -14 5 -19 14 -15 12 4 13 -15 7 -122 -4 -71 -10 -132 -13 -138 -3 -5 -5 -28 -3 -52 1 -23 -2 -93 -8 -155 -5 -62 -15 -176 -21 -253 -6 -77 -15 -180 -20 -230 -6 -49 -24 -211 -40 -360 -31 -279 -32 -291 -75 -565 -28 -176 -92 -500 -106 -538 -15 -39 -10 -95 11 -135 11 -20 20 -40 20 -44 0 -4 6 -8 13 -8 6 0 26 -8 42 -17 62 -33 196 -57 338 -60 31 0 57 -5 57 -9 0 -5 5 -9 11 -9 5 0 8 3 5 8 -2 4 82 7 187 7 l192 0 -3 -45 c-3 -41 -25 -322 -53 -650 -6 -74 -17 -189 -23 -255 -7 -66 -12 -172 -12 -235 1 -99 4 -122 26 -170 13 -30 32 -64 42 -74 9 -10 15 -22 13 -26 -3 -4 3 -14 12 -21 9 -8 17 -12 17 -10 1 3 13 -3 28 -13 15 -10 25 -23 21 -29 -3 -5 -1 -7 4 -4 6 4 32 -2 57 -14 46 -20 61 -20 882 -20 666 1 834 -2 828 -11 -6 -10 -5 -10 8 0 12 10 187 12 832 11 l816 -2 64 32 c119 58 195 161 216 291 9 60 7 299 -5 463 -3 38 -1 66 3 63 5 -3 9 1 9 9 0 8 -4 12 -9 9 -4 -3 -8 23 -8 58 0 35 -3 108 -5 163 -5 94 -18 388 -31 675 -10 231 -34 664 -44 790 -6 69 -15 186 -20 260 -6 74 -15 185 -20 245 -5 61 -12 146 -15 190 -9 121 -30 361 -40 445 -3 19 -9 82 -15 140 -5 58 -16 159 -24 225 -8 66 -13 121 -12 123 2 1 46 7 97 12 52 6 107 12 124 15 28 5 29 5 10 -11 -19 -15 -19 -15 5 -2 14 8 52 18 85 22 33 3 71 8 85 11 90 14 213 26 226 21 8 -3 13 -2 10 2 -3 5 57 16 132 26 75 10 223 31 327 47 105 16 198 28 208 25 9 -2 15 -1 13 3 -3 4 55 17 127 30 73 13 184 34 247 47 227 48 250 61 250 140 0 34 -5 47 -26 63 -41 32 -57 33 -164 11 -56 -12 -113 -19 -128 -16 -17 4 -22 3 -14 -2 33 -22 -877 -168 -1483 -237 -77 -9 -146 -17 -154 -18 -8 -1 -19 15 -27 38 -8 22 -21 52 -29 68 -9 15 -13 27 -8 27 4 0 -3 7 -15 16 -15 10 -21 22 -17 32 3 9 3 13 -1 10 -4 -4 -27 11 -53 34 -60 53 -146 94 -229 108 -73 12 -2976 20 -3237 9z m254 -201 c8 -7 11 -8 8 -3 -7 14 99 19 108 6 3 -6 14 -11 23 -11 11 0 13 3 5 8 -6 4 149 7 344 7 l355 1 -6 -36 c-3 -19 -2 -29 2 -23 5 7 16 -51 25 -129 14 -114 15 -144 5 -156 -10 -12 -10 -14 -1 -9 15 10 27 -31 21 -73 -2 -16 -1 -27 2 -25 7 4 21 -113 36 -297 l7 -76 -279 2 c-153 1 -285 6 -293 10 -8 6 -12 5 -8 0 3 -6 -61 -9 -161 -9 l-167 0 -3 30 c-1 17 -7 71 -12 120 -5 50 -14 144 -20 210 -13 138 -48 424 -55 442 -3 11 11 19 41 22 5 0 16 -5 23 -11z m1185 0 c-2 -4 1 -10 7 -14 7 -4 9 -3 6 3 -9 14 18 24 40 16 15 -6 15 -7 -3 -14 -18 -7 -18 -8 3 -8 12 -1 23 3 25 7 2 5 18 12 36 15 20 4 31 3 27 -3 -4 -6 2 -7 14 -2 11 4 63 5 115 2 53 -3 97 -1 99 3 1 5 28 6 60 2 31 -4 54 -11 51 -16 -3 -5 0 -9 5 -9 6 0 11 5 11 11 0 6 6 9 14 6 7 -3 19 0 25 6 8 8 11 8 11 0 0 -7 8 -10 18 -8 81 18 82 18 88 0 4 -9 10 -13 13 -7 3 5 21 12 40 15 27 6 31 5 22 -7 -9 -11 -6 -12 14 -8 14 2 25 8 25 12 0 5 12 5 27 1 26 -7 29 -13 40 -92 7 -46 15 -111 17 -144 2 -33 7 -67 10 -75 10 -29 38 -283 33 -306 -2 -13 -1 -25 3 -26 5 -2 11 -43 15 -93 4 -57 3 -85 -3 -76 -6 7 -12 9 -15 4 -9 -14 -714 -16 -722 -3 -3 6 -14 10 -23 9 -14 0 -13 -2 3 -9 18 -8 17 -9 -7 -9 -16 -1 -28 5 -29 12 0 10 -2 10 -6 0 -2 -7 -16 -13 -29 -13 -17 0 -23 4 -18 12 5 7 3 8 -7 2 -8 -5 -35 -9 -61 -10 -54 -2 -53 -4 -63 101 -11 122 -55 516 -69 615 -8 52 -12 97 -11 100 2 3 37 5 78 5 41 0 73 -3 71 -7z m1176 -8 c0 -12 39 -19 46 -9 3 5 -4 9 -15 9 -12 0 -21 4 -21 9 0 5 17 7 38 5 50 -4 109 -4 287 -1 83 2 185 1 228 -3 146 -14 222 -94 252 -266 24 -138 69 -520 63 -536 -6 -14 -43 -15 -305 -14 -241 1 -297 4 -295 14 1 8 -2 11 -8 7 -6 -3 -8 -10 -5 -14 6 -10 -306 -13 -321 -3 -7 4 -17 63 -23 132 -14 150 -16 166 -50 437 -29 230 -28 239 24 245 42 4 105 -3 105 -12z m-2715 -235 c39 -2 84 -4 101 -5 l31 0 12 -107 c32 -300 56 -642 81 -1143 21 -413 7 -1215 -22 -1245 -14 -15 -485 -12 -591 4 -48 7 -90 17 -93 22 -9 15 7 79 19 72 6 -3 7 -1 3 6 -9 14 44 304 56 309 4 2 6 8 3 13 -3 5 6 82 20 172 34 224 50 348 85 657 32 289 47 470 86 1005 9 127 21 236 26 242 7 9 27 11 62 8 28 -3 83 -7 121 -10z m530 -775 c3 -5 12 -10 18 -10 7 0 6 4 -3 10 -10 7 25 10 108 10 96 0 122 -3 116 -12 -6 -10 -5 -10 7 -1 19 16 383 18 374 3 -4 -6 1 -10 10 -10 9 0 13 5 10 10 -4 6 20 10 64 10 l71 0 0 -37 c0 -21 5 -114 10 -208 17 -297 19 -355 26 -582 l7 -221 -67 -4 c-36 -1 -66 0 -66 3 0 4 -18 3 -40 -1 -21 -4 -39 -4 -38 -1 2 17 -3 25 -10 14 -6 -10 -91 -16 -182 -12 -8 0 -127 0 -264 -1 -137 0 -250 1 -253 3 -2 3 -6 96 -8 208 -5 243 -14 512 -23 702 l-7 137 67 0 c37 0 70 -4 73 -10z m1830 0 c3 -5 12 -10 18 -10 7 0 6 4 -3 10 -11 7 1 10 41 10 l56 0 7 -92 c24 -336 36 -566 38 -719 2 -97 6 -175 11 -172 4 2 7 -12 7 -31 0 -35 -1 -36 -37 -37 -21 0 -47 -2 -58 -5 -11 -2 -32 1 -47 6 -16 5 -28 6 -28 1 0 -11 -214 -1 -221 11 -4 7 -8 6 -10 -1 -3 -8 -84 -12 -283 -12 -261 -1 -281 0 -294 17 -13 17 -14 17 -9 2 4 -10 2 -18 -3 -18 -6 0 -10 6 -10 13 -1 118 -26 766 -36 945 l-6 92 431 0 c276 0 432 -4 436 -10z m1045 0 c0 -5 5 -10 11 -10 5 0 7 5 4 10 -4 6 30 10 94 10 65 0 101 -4 101 -11 0 -5 -6 -7 -12 -4 -7 4 -5 0 5 -8 11 -9 17 -27 16 -53 -1 -33 -2 -35 -8 -14 -6 20 -8 22 -13 8 -4 -10 1 -23 13 -34 17 -15 20 -29 17 -75 -2 -32 1 -55 5 -52 5 3 7 -22 5 -55 -1 -33 0 -58 3 -56 8 5 64 -684 56 -692 -2 -2 -29 -5 -61 -7 -40 -3 -59 0 -63 9 -2 7 -12 15 -20 18 -13 6 -14 4 -3 -9 12 -14 9 -16 -21 -15 -19 0 -77 0 -129 -1 -52 0 -176 0 -275 0 -99 1 -189 0 -200 -2 -11 -2 -34 -1 -51 3 -18 4 -37 4 -44 0 -7 -4 -27 -4 -45 0 -20 5 -38 3 -44 -3 -6 -6 -14 -8 -18 -4 -7 8 -32 479 -36 683 -1 73 -5 130 -9 127 -5 -2 -8 15 -8 39 0 24 -3 80 -7 126 l-6 82 372 0 c241 0 371 -4 371 -10z m-2058 -1248 c3 -9 5 -226 6 -481 2 -360 -1 -467 -10 -479 -10 -13 -10 -14 0 -8 14 8 15 5 6 -18 -3 -9 -17 -16 -31 -16 -17 0 -22 4 -17 13 6 9 4 9 -7 1 -8 -6 -43 -11 -79 -12 -36 0 -56 2 -46 5 14 4 16 7 6 13 -15 9 -42 2 -35 -9 2 -4 -2 -8 -10 -8 -8 0 -13 3 -12 6 2 7 -8 11 -25 11 -9 0 -8 -4 2 -10 12 -8 12 -10 -5 -10 -11 0 -27 4 -35 10 -9 5 -19 5 -27 -2 -8 -6 -16 -8 -20 -4 -3 3 -1 6 5 6 7 0 12 5 12 12 0 6 -9 3 -20 -7 -17 -15 -22 -16 -36 -4 -14 11 -18 11 -21 2 -3 -7 -14 -13 -26 -12 -21 0 -21 1 -2 9 13 6 15 9 5 9 -8 0 -22 -3 -30 -9 -9 -6 -19 -5 -28 2 -10 9 -16 8 -22 -2 -7 -11 -11 -11 -24 -1 -11 10 -16 10 -16 2 0 -8 -18 -11 -55 -9 -30 2 -55 7 -55 13 0 6 -3 5 -8 -1 -8 -13 -315 -16 -307 -4 3 5 1 10 -5 12 -6 2 -6 37 0 98 13 138 39 577 42 700 1 58 3 126 6 152 l4 48 458 0 c426 0 458 -2 462 -18z m1189 -20 c0 -20 2 -55 3 -77 8 -98 18 -818 12 -859 l-7 -45 -110 0 c-72 1 -109 5 -109 12 0 7 -4 7 -12 -1 -15 -15 -122 -17 -113 -2 3 6 1 10 -4 10 -6 0 -11 -5 -11 -11 0 -12 -76 -10 -102 3 -12 6 -18 5 -18 -2 0 -7 -26 -10 -75 -9 -41 1 -75 6 -75 10 0 5 -5 9 -11 9 -5 0 -8 -4 -5 -9 8 -13 -47 -11 -63 3 -12 8 -13 8 -7 -1 4 -8 2 -13 -6 -13 -8 0 -20 6 -27 13 -11 10 -13 10 -7 0 8 -15 -10 -18 -19 -3 -3 6 -17 10 -31 10 -13 0 -24 -4 -24 -10 0 -14 -33 -12 -49 3 -11 10 -12 9 -6 -1 11 -20 -52 -8 -78 15 -14 12 -18 13 -12 3 8 -13 7 -13 -10 0 -17 14 -18 13 -13 -7 4 -13 2 -23 -3 -23 -5 0 -9 212 -9 510 l0 510 500 0 500 -1 1 -37z m258 26 c11 -11 13 -10 7 0 -6 9 85 12 441 12 247 -1 454 -4 460 -8 9 -6 14 -49 15 -139 2 -72 6 -129 9 -127 8 5 23 -279 24 -448 0 -76 3 -138 8 -138 4 0 7 -33 6 -72 0 -40 -3 -68 -6 -61 -3 10 -7 10 -18 0 -9 -9 -10 -14 -1 -19 7 -5 5 -8 -6 -8 -10 0 -18 6 -18 13 0 9 -2 9 -9 -1 -10 -17 -182 -15 -193 2 -5 8 -8 7 -8 -1 0 -8 -13 -13 -31 -13 -21 0 -28 4 -23 13 6 9 5 9 -7 1 -16 -14 -147 -16 -155 -3 -3 5 -14 3 -25 -4 -16 -10 -21 -9 -29 3 -6 10 -10 11 -10 3 0 -7 -5 -13 -11 -13 -5 0 -7 5 -4 10 3 6 2 10 -4 10 -5 0 -13 -4 -16 -10 -3 -5 -17 -10 -31 -10 -13 0 -24 5 -24 10 0 6 -12 10 -27 10 -22 0 -25 -2 -13 -11 11 -7 7 -9 -20 -7 -19 1 -40 6 -47 11 -7 5 -18 5 -25 1 -22 -14 -101 -15 -110 -1 -6 9 -10 9 -20 -1 -7 -7 -36 -12 -72 -11 -49 1 -55 3 -31 9 29 8 30 8 4 9 -36 1 -36 9 -39 341 -1 151 -4 362 -7 468 l-5 192 29 0 c16 0 35 -6 42 -12z m-1447 -1628 c-2 -234 -6 -428 -9 -432 -2 -5 -47 -8 -99 -8 -74 0 -93 3 -88 13 6 9 5 9 -8 0 -19 -16 -638 -17 -710 -2 -55 12 -111 60 -127 108 -6 19 -11 57 -11 85 0 54 48 605 56 644 l4 22 498 -2 497 -3 -3 -425z m1205 17 c1 -311 -1 -406 -10 -400 -9 5 -9 3 -1 -8 5 -8 10 -21 10 -29 -1 -13 -37 -15 -255 -17 -176 -2 -258 1 -268 8 -8 7 -13 8 -13 1 0 -6 -84 -10 -244 -10 l-244 -1 3 102 c3 125 2 120 18 111 10 -6 10 -4 0 7 -10 10 -13 90 -13 331 l0 318 508 -2 507 -3 2 -408z m1221 313 c-2 -55 0 -101 3 -103 3 -1 9 -105 13 -230 5 -157 4 -227 -4 -222 -5 3 -10 3 -10 -2 0 -4 -3 -19 -5 -33 -5 -22 -4 -23 5 -5 8 16 9 12 6 -19 -6 -45 -45 -108 -63 -101 -7 2 -12 -1 -10 -7 1 -6 -18 -19 -43 -29 -40 -15 -90 -17 -454 -18 -273 0 -415 3 -428 10 -15 8 -19 8 -14 0 4 -6 0 -11 -8 -11 -14 0 -16 26 -17 198 -1 108 -2 213 -3 232 0 19 2 45 6 57 4 12 3 25 -1 28 -5 3 -9 84 -9 180 l0 174 520 1 519 0 -3 -100z"/>
</g>
</svg>
