<?xml version="1.0" standalone="no"?>
<!DOCTYPE svg PUBLIC "-//W3C//DTD SVG 20010904//EN"
 "http://www.w3.org/TR/2001/REC-SVG-20010904/DTD/svg10.dtd">
<svg version="1.0" xmlns="http://www.w3.org/2000/svg"
 width="1024.000000pt" height="1024.000000pt" viewBox="0 0 1024.000000 1024.000000"
 preserveAspectRatio="xMidYMid meet">
<metadata>
Created by potrace 1.16, written by Peter Selinger 2001-2019
</metadata>
<g transform="translate(0.000000,1024.000000) scale(0.100000,-0.100000)"
fill="#000000" stroke="none">
<path d="M3265 8169 c-109 -10 -269 -41 -390 -76 -104 -30 -643 -229 -662
-245 -38 -31 -10 -66 247 -299 348 -315 643 -474 1008 -540 136 -25 389 -30
532 -10 183 26 543 105 710 156 14 4 15 -5 7 -74 l-10 -78 -105 -7 c-293 -19
-613 -107 -884 -242 -122 -61 -337 -209 -442 -302 -359 -324 -595 -732 -691
-1196 -113 -553 -2 -1188 287 -1646 136 -215 346 -450 543 -609 314 -253 734
-435 1120 -487 161 -22 487 -14 625 14 104 22 286 73 342 97 35 14 40 13 110
-16 250 -103 571 -154 823 -129 367 35 682 156 970 371 255 190 452 434 601
744 133 277 194 550 194 869 0 218 -46 490 -100 596 -20 40 -63 70 -98 70 -19
0 -100 -37 -402 -182 -80 -39 -212 -101 -294 -140 -82 -38 -179 -84 -215 -103
l-66 -33 -1 182 c-3 349 -85 674 -255 1006 -165 321 -407 600 -679 782 -321
215 -757 351 -1149 360 l-123 3 6 63 c7 77 65 254 113 342 76 141 183 261 314
354 56 39 75 58 77 78 4 33 -27 52 -68 43 -72 -16 -234 -159 -333 -294 -46
-61 -126 -210 -141 -261 -5 -18 -9 -21 -13 -10 -98 267 -239 466 -432 610
-249 185 -665 277 -1076 239z m318 -99 c208 -15 403 -63 542 -133 166 -83 324
-230 424 -394 30 -48 63 -101 74 -117 11 -16 16 -27 11 -25 -5 3 -74 37 -154
76 -391 192 -843 293 -1255 280 -165 -5 -213 -15 -252 -50 -28 -25 -29 -39 -3
-62 17 -16 27 -16 95 -6 94 14 315 14 460 1 282 -26 583 -105 826 -216 143
-65 309 -167 295 -181 -6 -6 -164 -44 -371 -88 -247 -53 -384 -68 -565 -62
-394 14 -697 137 -1061 429 -124 98 -307 259 -308 269 -1 7 395 152 527 193
152 48 383 88 547 95 17 0 92 -4 168 -9z m1544 -1185 c624 -81 1127 -391 1445
-890 148 -233 256 -503 312 -778 30 -150 50 -391 40 -508 l-6 -87 -106 -48
c-58 -27 -108 -50 -111 -52 -4 -1 -4 30 0 70 18 179 -2 533 -34 611 -21 49
-61 77 -111 77 -38 0 -345 -101 -1033 -338 -322 -112 -330 -116 -340 -191 -7
-51 11 -81 70 -115 36 -21 756 -313 880 -357 20 -7 37 -15 37 -19 -1 -7 -189
-95 -580 -274 -291 -132 -316 -142 -323 -123 -4 11 -30 101 -58 201 -28 99
-61 216 -75 259 -13 43 -24 81 -24 84 0 8 22 0 195 -72 160 -67 326 -133 464
-186 l73 -28 54 27 c30 14 54 29 54 33 0 4 -11 9 -23 13 -13 3 -201 78 -418
166 -426 174 -437 176 -479 123 -11 -14 -20 -37 -20 -52 0 -38 107 -441 150
-565 11 -33 20 -60 20 -62 0 -9 -95 -43 -101 -37 -4 5 -49 130 -100 278 -105
303 -117 325 -188 325 -63 0 -94 -35 -137 -155 -57 -158 -292 -846 -340 -995
-76 -234 -62 -288 89 -335 92 -29 244 -55 326 -55 76 0 254 27 334 51 l68 20
87 -64 c48 -35 113 -79 145 -98 60 -35 70 -49 37 -49 -11 0 -57 -11 -102 -24
-169 -49 -267 -60 -508 -60 -205 1 -236 3 -355 28 -518 108 -981 393 -1318
811 -210 260 -356 570 -421 896 -34 171 -46 292 -46 471 0 339 64 628 200 903
110 223 228 386 423 583 334 339 773 540 1297 595 103 11 449 6 557 -8z m1451
-1767 c6 -35 14 -80 17 -100 8 -51 7 -351 -1 -463 l-6 -91 -149 -71 -148 -71
-468 187 c-257 103 -483 195 -501 205 -64 33 -90 22 498 223 201 69 442 151
535 184 94 32 180 59 191 59 19 0 23 -8 32 -62z m1455 -175 c50 -159 62 -252
61 -483 -1 -193 -4 -229 -28 -349 -141 -691 -607 -1240 -1231 -1449 -179 -60
-296 -77 -535 -77 -185 0 -231 3 -330 23 -276 56 -498 155 -695 311 -156 122
-314 294 -408 443 -49 77 -89 157 -85 170 4 10 213 97 235 98 6 0 25 -24 41
-53 171 -303 478 -563 792 -670 509 -174 1097 -36 1515 356 199 186 368 479
440 761 69 270 73 578 13 806 -11 41 -21 81 -21 88 -2 11 174 101 200 102 7 0
23 -35 36 -77z m-323 -100 c32 -118 44 -215 44 -383 0 -99 -5 -203 -12 -240
-23 -119 -54 -240 -62 -240 -10 0 -335 110 -395 133 -22 9 -146 54 -275 101
-326 117 -400 146 -400 157 0 5 4 9 9 9 12 0 486 220 806 373 143 69 263 126
267 126 4 1 12 -16 18 -36z m-1223 -623 c31 -83 244 -663 293 -800 21 -58 59
-158 84 -223 25 -66 44 -123 41 -127 -8 -13 -160 -69 -245 -90 -138 -35 -296
-53 -412 -47 -103 6 -306 41 -320 55 -4 4 16 79 43 167 28 88 106 340 174 560
69 220 132 423 141 450 15 48 20 53 88 87 39 20 75 35 80 34 4 -1 19 -31 33
-66z m-1617 -180 c40 -118 83 -237 96 -263 l23 -48 -37 -16 c-20 -8 -72 -28
-114 -44 -113 -41 -137 -56 -155 -94 -14 -30 -15 -39 -3 -76 34 -103 159 -291
292 -440 l76 -86 -96 -19 c-175 -34 -392 -23 -531 28 l-53 20 6 42 c14 84 405
1232 416 1219 4 -4 40 -105 80 -223z m1965 130 c227 -84 656 -235 758 -266 31
-10 57 -22 57 -28 0 -23 -107 -225 -165 -311 -76 -115 -260 -300 -385 -388
-81 -56 -96 -64 -102 -49 -4 9 -48 127 -97 262 -158 434 -269 733 -295 797
-14 35 -26 65 -26 69 0 8 2 8 255 -86z m-665 -33 c0 -2 -9 -30 -21 -63 -29
-85 -124 -384 -224 -709 -47 -154 -90 -295 -96 -312 l-10 -33 -67 34 c-216
109 -417 289 -555 497 -42 64 -77 119 -77 122 0 4 6 7 14 7 28 0 548 233 946
424 71 34 90 41 90 33z"/>
<path d="M4603 6679 c-102 -15 -253 -57 -317 -87 -81 -38 -124 -76 -131 -115
-9 -48 -6 -57 332 -797 180 -394 172 -379 213 -421 34 -36 41 -39 90 -39 71 0
109 25 148 97 27 52 287 667 414 983 58 144 65 198 31 246 -28 39 -112 79
-232 111 -84 23 -120 26 -291 29 -107 1 -223 -2 -257 -7z m427 -104 c167 -25
270 -65 270 -105 0 -18 -91 -242 -310 -765 -152 -363 -169 -395 -205 -381 -23
8 -50 59 -153 286 -137 301 -359 802 -366 827 -6 18 -1 26 25 42 45 28 209 78
299 91 41 7 82 13 90 15 46 9 268 3 350 -10z"/>
<path d="M3800 6414 c-275 -74 -673 -513 -757 -834 -14 -57 -15 -69 -2 -94 28
-57 59 -70 579 -236 699 -223 795 -252 830 -246 44 7 89 52 96 98 7 42 -4 71
-198 503 -348 774 -354 786 -414 811 -41 17 -64 17 -134 -2z m220 -336 c62
-139 162 -363 222 -498 60 -135 132 -294 159 -353 27 -59 49 -110 49 -113 0
-19 -211 42 -743 215 -83 27 -238 77 -343 110 -105 34 -199 67 -209 75 -17 12
-18 18 -7 53 22 72 109 237 173 327 73 102 205 239 299 310 80 60 213 126 256
126 l31 0 113 -252z"/>
<path d="M5645 6401 c-46 -11 -79 -37 -102 -78 -23 -41 -416 -1016 -452 -1121
-26 -77 -26 -98 -1 -139 24 -39 53 -56 100 -56 21 0 304 89 661 208 689 230
679 225 679 305 0 86 -83 281 -187 438 -76 115 -215 257 -319 327 -127 86
-295 137 -379 116z m97 -102 c225 -48 483 -292 618 -582 33 -72 70 -176 70
-197 0 -4 -26 -16 -57 -28 -144 -50 -1135 -373 -1164 -379 -32 -6 -32 -6 -26
25 5 24 373 955 441 1114 14 33 38 57 58 58 4 0 31 -5 60 -11z"/>
<path d="M2941 5254 c-60 -50 -87 -234 -78 -519 13 -382 78 -603 187 -636 55
-17 107 -4 273 67 258 110 1011 466 1041 493 44 39 54 100 23 139 -26 33 -167
86 -832 317 -536 186 -554 190 -614 139z m258 -123 c393 -131 1068 -374 1084
-390 15 -14 -16 -30 -748 -369 -395 -183 -445 -198 -480 -146 -24 37 -61 193
-74 312 -21 198 -10 568 19 622 6 11 20 20 31 20 12 0 87 -22 168 -49z"/>
<path d="M3990 4296 c-250 -123 -529 -258 -620 -301 -91 -42 -175 -86 -187
-97 -59 -55 -28 -130 142 -343 160 -201 362 -373 554 -470 113 -58 177 -56
223 6 34 46 468 1284 468 1336 0 36 -60 93 -97 93 -18 0 -208 -88 -483 -224z
m470 110 c0 -12 -387 -1119 -432 -1233 -15 -40 -24 -40 -91 -7 -145 73 -367
256 -493 405 -78 91 -184 236 -184 250 0 5 33 24 73 42 88 41 649 315 917 449
184 91 210 103 210 94z"/>
</g>
</svg>
