<?xml version="1.0" standalone="no"?>
<!DOCTYPE svg PUBLIC "-//W3C//DTD SVG 20010904//EN"
 "http://www.w3.org/TR/2001/REC-SVG-20010904/DTD/svg10.dtd">
<svg version="1.0" xmlns="http://www.w3.org/2000/svg"
 width="1024.000000pt" height="1024.000000pt" viewBox="0 0 1024.000000 1024.000000"
 preserveAspectRatio="xMidYMid meet">
<metadata>
Created by potrace 1.16, written by Peter Selinger 2001-2019
</metadata>
<g transform="translate(0.000000,1024.000000) scale(0.100000,-0.100000)"
fill="#000000" stroke="none">
<path d="M3210 8420 c-268 -42 -468 -108 -923 -306 -81 -36 -153 -62 -159 -58
-6 4 -8 3 -5 -3 3 -5 -26 -24 -64 -43 -99 -47 -124 -99 -74 -158 13 -16 22
-32 20 -36 -3 -3 -2 -4 2 -1 10 8 33 -16 26 -28 -3 -6 -1 -7 5 -3 10 6 84 -50
299 -227 42 -34 70 -64 67 -72 -3 -7 -1 -16 5 -20 7 -4 8 0 4 11 -8 22 5 14
72 -41 28 -23 88 -70 135 -105 88 -65 112 -88 105 -100 -2 -4 2 -7 10 -7 12 0
12 3 2 15 -8 11 -4 10 16 -2 25 -17 40 -35 15 -20 -7 4 -8 3 -4 -5 4 -6 11 -9
16 -6 5 3 30 -8 57 -24 26 -16 71 -42 100 -57 29 -15 49 -32 46 -37 -3 -6 -1
-7 4 -4 6 4 50 -11 99 -32 49 -21 107 -44 129 -51 48 -15 74 -35 33 -25 -16 4
-28 3 -28 -2 0 -10 45 -12 55 -2 3 4 37 -2 75 -12 38 -10 104 -23 147 -29 102
-14 339 -11 409 5 80 18 61 9 -72 -37 -115 -39 -290 -120 -374 -173 -38 -24
-70 -36 -40 -14 13 9 13 10 0 6 -8 -2 -15 -8 -15 -14 0 -6 -31 -32 -70 -58
-38 -26 -79 -56 -91 -66 -11 -11 -25 -19 -30 -19 -5 0 -15 -9 -22 -21 -10 -16
-19 -19 -39 -14 -23 5 -25 4 -14 -9 10 -12 6 -19 -23 -43 -20 -15 -40 -28 -46
-28 -5 0 -9 -3 -7 -7 1 -4 -13 -23 -32 -42 -26 -27 -37 -33 -44 -23 -6 8 -7 7
-4 -4 6 -19 -55 -84 -67 -72 -4 5 -6 1 -4 -7 2 -8 -3 -14 -10 -12 -6 1 -11 -2
-10 -7 4 -14 -73 -112 -83 -105 -5 3 -9 -2 -9 -11 0 -10 -13 -34 -28 -54 -170
-217 -322 -536 -391 -816 -104 -429 -104 -827 1 -1234 22 -86 41 -168 42 -183
0 -14 4 -24 7 -22 3 2 21 -36 39 -84 35 -92 117 -266 164 -344 15 -26 25 -52
21 -58 -4 -6 -2 -9 3 -8 6 2 43 -44 82 -102 91 -131 155 -207 289 -340 154
-153 326 -286 478 -370 23 -13 39 -28 36 -33 -3 -6 -1 -7 6 -3 6 4 31 -4 55
-18 24 -14 85 -44 137 -66 52 -23 97 -47 101 -53 4 -7 8 -9 8 -5 0 4 44 -8 98
-26 53 -18 121 -39 149 -45 29 -7 50 -17 47 -22 -3 -5 1 -6 9 -3 8 3 48 -1 88
-10 375 -76 719 -66 1136 35 l121 29 52 -24 c31 -14 46 -26 38 -30 -7 -3 -4
-4 8 -1 12 3 29 2 38 -1 14 -5 15 -9 4 -16 -9 -7 -8 -8 6 -4 27 9 129 -22 120
-36 -4 -7 -3 -8 4 -4 7 4 56 -2 109 -14 187 -41 279 -49 488 -46 214 3 330 18
495 62 169 46 325 110 483 198 35 20 67 34 70 31 4 -3 5 -2 2 1 -5 8 186 140
197 136 5 -1 7 2 6 6 -4 13 118 113 126 104 4 -4 6 -2 4 3 -5 16 154 185 166
178 6 -3 8 -3 4 2 -11 12 11 47 25 39 7 -4 9 -4 5 1 -9 10 18 50 35 50 6 1 11
6 10 13 -2 6 27 55 63 109 114 172 251 482 279 635 4 21 11 35 16 32 5 -3 6 1
3 9 -3 8 1 57 10 108 41 256 34 491 -23 740 -39 172 -104 320 -153 345 -51 26
-100 13 -307 -85 -107 -50 -198 -91 -203 -91 -5 0 -6 5 -2 12 4 7 3 8 -5 4 -6
-4 -9 -11 -6 -15 6 -12 -114 -63 -127 -55 -6 4 -8 3 -5 -3 4 -6 -25 -25 -66
-43 -39 -18 -110 -51 -157 -72 -47 -22 -98 -40 -115 -40 -17 1 -24 -2 -17 -7
9 -5 5 -11 -12 -19 l-26 -11 0 162 c0 221 -16 356 -69 572 -29 119 -94 313
-124 370 -8 17 -17 39 -19 50 -1 11 -5 22 -8 25 -3 3 -34 57 -69 120 -35 63
-83 143 -108 178 -24 35 -40 68 -37 74 4 6 2 8 -4 5 -13 -9 -74 72 -65 86 3 6
1 7 -5 3 -13 -8 -35 28 -24 39 4 3 2 5 -4 3 -15 -4 -185 177 -176 188 4 5 3 6
-2 2 -9 -8 -183 142 -179 154 2 5 -1 7 -5 5 -5 -1 -58 32 -118 74 -60 43 -158
104 -219 138 -60 33 -109 63 -107 67 2 3 0 9 -4 12 -4 4 -4 1 0 -5 10 -17 12
-18 -84 23 -218 93 -495 168 -717 194 -57 7 -103 14 -103 15 0 18 34 154 50
203 44 133 124 276 234 417 63 79 182 199 231 231 62 40 68 113 13 159 -52 44
-106 28 -205 -58 -115 -102 -244 -259 -322 -391 l-38 -66 -56 110 c-66 129
-127 224 -197 302 -27 30 -46 59 -42 63 4 3 2 5 -4 3 -15 -5 -125 93 -117 105
3 6 1 7 -5 3 -14 -9 -61 24 -62 42 0 7 -4 11 -9 8 -5 -4 -36 10 -69 29 -157
94 -394 172 -588 195 -135 15 -363 11 -494 -10z m573 -212 c32 -7 56 -16 52
-19 -3 -4 5 -5 17 -2 55 9 400 -137 368 -157 -8 -5 -8 -9 4 -13 8 -3 16 -2 18
3 2 5 25 -7 51 -26 26 -19 45 -39 42 -45 -4 -5 -2 -8 3 -7 18 5 87 -59 144
-134 54 -70 128 -198 162 -280 14 -33 14 -37 1 -32 -8 4 -12 10 -9 16 3 5 -2
8 -12 6 -11 -2 -18 2 -17 8 1 6 -8 10 -20 10 -12 -1 -22 4 -22 11 0 6 -4 15
-9 20 -6 5 -6 2 -1 -6 6 -10 4 -13 -6 -8 -8 3 -71 30 -141 61 -69 30 -179 73
-244 95 -64 21 -111 41 -103 44 8 2 5 3 -5 1 -11 -2 -62 8 -114 22 -109 28
-394 79 -527 94 -49 5 -175 13 -280 16 -217 8 -247 1 -279 -57 -17 -32 -17
-37 -3 -71 27 -64 48 -71 220 -73 157 -2 399 -23 393 -34 -2 -3 16 -4 41 -2
31 2 43 0 39 -8 -4 -7 -1 -9 7 -5 21 7 228 -30 366 -67 209 -55 446 -143 435
-160 -3 -5 1 -6 9 -3 21 8 117 -43 117 -61 0 -8 5 -15 11 -15 6 0 9 -7 6 -14
-4 -10 -1 -13 9 -9 7 3 14 9 14 15 0 5 5 6 11 2 17 -10 0 -20 -88 -49 -50 -16
-92 -24 -105 -20 -15 4 -19 3 -10 -3 14 -10 -241 -85 -295 -86 -17 -1 -29 -4
-27 -7 2 -4 -38 -15 -89 -25 -173 -33 -392 -21 -576 32 -41 12 -51 18 -40 25
10 7 6 8 -12 4 -29 -7 -162 42 -153 56 3 5 -1 7 -8 4 -18 -7 -164 71 -160 85
1 6 -2 9 -8 5 -24 -15 -450 301 -442 328 1 4 -1 6 -6 3 -4 -2 -39 22 -78 56
-38 33 -79 67 -91 75 -13 8 -20 20 -16 26 3 5 2 7 -4 4 -6 -4 -20 4 -33 18
l-22 24 92 46 c269 135 608 247 875 290 109 17 459 13 548 -7z m1244 -1358
c58 -8 90 -16 86 -23 -3 -6 -1 -7 6 -3 14 9 113 -3 107 -12 -2 -4 15 -8 38 -9
48 -2 253 -68 359 -115 177 -79 333 -168 319 -183 -4 -5 -2 -5 4 -2 6 3 28 -5
49 -20 29 -20 34 -27 24 -35 -11 -7 -9 -8 5 -4 13 5 39 -10 87 -49 38 -31 67
-60 64 -65 -3 -6 0 -8 7 -5 12 5 163 -137 163 -153 0 -4 3 -6 6 -5 17 6 173
-183 163 -198 -4 -8 -3 -9 4 -5 15 9 66 -69 56 -85 -4 -8 -3 -9 4 -5 31 19
238 -399 226 -455 -5 -19 -4 -21 5 -9 6 8 11 10 11 5 0 -6 -5 -16 -12 -23 -9
-10 -9 -16 4 -29 16 -15 17 -15 11 5 -3 12 -3 22 0 22 17 0 83 -276 103 -430
16 -120 20 -434 6 -504 -7 -37 -10 -40 -85 -73 -44 -18 -83 -31 -87 -28 -5 3
-10 -1 -13 -7 -2 -7 -8 -10 -12 -6 -4 3 -2 37 4 75 18 122 24 313 11 418 -24
210 -50 264 -165 354 -6 4 -49 7 -95 6 -79 -2 -108 -10 -405 -110 -176 -59
-327 -108 -335 -110 -8 -1 -22 -5 -30 -9 -57 -24 -215 -74 -222 -70 -4 3 -8 1
-8 -4 0 -5 -51 -26 -112 -46 -62 -21 -126 -45 -141 -53 -16 -8 -36 -12 -45 -8
-9 3 -13 3 -10 -1 4 -4 -11 -20 -33 -36 -45 -32 -79 -82 -79 -115 0 -12 -6
-23 -13 -25 -8 -2 -10 -13 -6 -33 l7 -30 2 30 2 30 10 -35 c5 -19 17 -43 25
-52 8 -9 12 -22 8 -28 -3 -6 -1 -9 7 -8 7 2 12 -3 10 -10 -1 -8 1 -11 6 -8 12
7 173 -99 165 -108 -4 -4 0 -4 10 0 10 3 17 1 17 -6 0 -6 4 -9 9 -6 5 3 25 -5
45 -19 20 -14 41 -25 47 -25 6 0 7 -5 3 -12 -4 -7 -3 -8 4 -4 12 7 170 -72
206 -103 10 -9 19 -14 20 -12 2 8 130 -60 155 -82 13 -12 21 -16 16 -8 -5 9
-4 12 3 7 12 -7 17 -36 7 -36 -16 0 -124 68 -117 75 4 4 0 5 -8 3 -13 -5 -341
157 -380 187 -8 6 -34 19 -56 29 -23 10 -47 28 -53 40 -7 12 -10 14 -7 4 7
-24 1 -23 -25 5 -12 12 -19 16 -15 10 9 -16 6 -16 -35 1 -35 14 -69 19 -126
17 -49 -2 -98 -50 -113 -111 -6 -27 -9 -53 -6 -59 4 -5 2 -12 -4 -16 -5 -3
-10 -14 -9 -23 0 -14 2 -13 9 3 9 20 10 12 14 -72 1 -10 4 -20 7 -23 3 -3 20
-59 37 -125 17 -66 57 -194 87 -285 30 -90 49 -158 41 -150 -19 21 -88 215
-90 255 -1 6 -4 12 -7 15 -5 4 -47 130 -53 163 -2 7 -5 19 -8 27 -3 8 -18 50
-33 92 -33 96 -76 162 -115 178 -17 7 -30 16 -30 20 0 12 -61 -11 -96 -37 -17
-12 -37 -35 -44 -52 -7 -17 -17 -28 -23 -24 -6 3 -7 1 -3 -5 8 -14 -33 -134
-50 -144 -6 -4 -9 -19 -6 -34 3 -19 1 -25 -6 -20 -7 4 -10 2 -7 -6 7 -19 -122
-451 -137 -456 -4 -2 -6 -8 -3 -13 3 -5 0 -19 -7 -31 -7 -13 -11 -27 -10 -31
4 -14 -50 -182 -60 -185 -4 -2 -8 -21 -8 -42 0 -21 -7 -45 -15 -53 -8 -8 -12
-17 -9 -20 8 -7 -37 -148 -45 -143 -4 3 -7 -12 -7 -32 0 -51 -11 -77 -27 -64
-9 8 -12 0 -10 -36 0 -26 6 -46 11 -45 17 4 33 -79 19 -97 -10 -12 -10 -13 3
-4 12 9 22 3 50 -31 29 -34 48 -46 105 -63 39 -12 97 -27 130 -33 77 -14 339
-27 343 -17 2 5 18 8 35 8 18 1 63 7 100 14 63 12 70 12 93 -6 13 -11 21 -25
17 -31 -3 -7 -3 -9 2 -5 4 4 27 -7 49 -25 23 -19 50 -38 60 -44 16 -9 33 -43
21 -43 -2 0 -49 -9 -104 -20 -164 -32 -356 -44 -505 -32 -71 6 -133 15 -139
21 -5 5 -16 7 -23 4 -20 -7 -214 28 -208 38 3 5 -1 6 -9 3 -19 -7 -268 67
-261 77 3 5 -1 6 -8 4 -31 -12 -351 149 -483 244 -177 126 -445 377 -429 402
4 7 3 9 -4 6 -12 -8 -65 51 -56 64 3 5 1 8 -5 7 -14 -4 -62 63 -54 76 3 6 3 8
-2 4 -11 -10 -58 59 -50 72 4 6 1 9 -6 8 -16 -4 -117 179 -172 314 -63 155
-100 272 -130 408 -45 203 -51 266 -52 505 0 263 15 389 71 594 39 142 113
333 125 325 5 -3 6 1 3 9 -6 16 73 167 87 167 6 0 8 4 5 9 -7 11 91 161 174
266 368 463 884 749 1475 820 132 15 452 13 582 -5z m1473 -1850 c67 -36 79
-410 22 -689 l-17 -84 -80 -39 c-49 -23 -87 -36 -100 -32 -13 3 -16 2 -8 -3 9
-6 -1 -16 -32 -31 -25 -12 -52 -22 -60 -22 -25 0 -104 43 -98 53 3 6 1 7 -5 3
-16 -10 -154 63 -145 77 3 6 1 7 -5 3 -16 -10 -134 52 -126 66 4 7 3 8 -5 4
-6 -4 -100 40 -214 100 -224 118 -240 128 -230 138 4 4 -1 4 -11 0 -15 -6 -17
-4 -11 6 5 9 4 11 -4 6 -12 -8 -81 29 -81 43 0 13 53 32 444 166 234 80 376
123 390 120 14 -4 17 -3 8 2 -16 12 92 47 111 37 7 -4 8 -3 4 2 -5 5 39 24
105 46 133 42 124 41 148 28z m1601 -290 c4 -8 1 -18 -5 -22 -7 -5 -5 -8 5 -8
20 0 62 -156 63 -237 1 -28 4 -49 7 -47 3 2 9 -27 13 -64 8 -93 8 -322 -1
-322 -5 0 -9 -30 -9 -68 -2 -86 -35 -227 -86 -367 -67 -184 -143 -323 -265
-487 -119 -161 -354 -384 -391 -372 -13 5 -14 4 -3 -4 19 -14 -134 -115 -285
-188 -199 -97 -532 -188 -555 -153 -7 11 -9 11 -9 -3 0 -33 -310 -37 -525 -7
-46 7 -82 16 -79 20 3 5 -2 6 -11 3 -28 -11 -218 42 -209 58 4 7 2 8 -5 4 -15
-10 -65 7 -175 57 -71 33 -85 43 -70 49 15 7 14 7 -5 4 -40 -8 -208 99 -349
222 -88 77 -235 251 -227 270 3 7 1 11 -4 8 -15 -10 -107 137 -96 153 5 9 166
74 170 69 1 -2 16 -24 34 -50 20 -28 30 -51 26 -59 -5 -7 -4 -10 3 -5 9 5 72
-62 68 -74 0 -3 18 -23 42 -45 29 -25 42 -45 39 -56 -3 -10 2 -20 10 -23 11
-5 13 -2 9 10 -3 9 26 -14 66 -51 40 -36 73 -73 74 -82 1 -8 6 -18 10 -21 4
-4 4 1 1 11 -8 21 -6 20 68 -31 28 -19 49 -39 47 -44 -1 -5 2 -7 8 -3 13 8 52
-14 45 -25 -3 -6 0 -7 8 -4 8 3 46 -10 84 -30 90 -45 254 -99 384 -128 90 -19
133 -22 329 -22 212 0 232 1 345 28 151 35 235 66 355 127 160 82 262 153 402
284 37 35 69 60 73 57 3 -3 5 1 5 10 0 19 44 61 54 51 4 -5 6 -3 4 3 -2 6 30
55 70 110 41 54 98 142 127 194 54 95 136 286 150 348 4 19 11 29 17 26 7 -4
8 -2 4 4 -6 11 18 166 32 202 6 17 9 340 3 334 -3 -2 -15 44 -27 103 -12 60
-31 134 -42 167 l-20 58 61 27 c104 46 112 49 122 47 6 0 13 -8 16 -16z m-352
-215 c13 -42 20 -83 17 -92 -4 -9 -2 -19 4 -23 16 -10 33 -228 25 -324 -6 -71
-10 -86 -23 -86 -14 0 -14 -2 -3 -9 12 -8 12 -19 2 -73 -18 -88 -26 -101 -54
-87 -12 7 -37 14 -56 15 -19 2 -37 7 -40 11 -3 4 -10 8 -16 8 -27 0 -204 59
-199 66 3 5 -2 6 -10 3 -8 -3 -104 21 -213 55 -109 33 -231 70 -272 82 -53 16
-69 24 -60 31 10 7 7 8 -10 4 -21 -4 -121 20 -121 29 0 4 33 20 340 160 124
57 303 139 399 184 95 44 178 78 182 75 5 -3 9 0 9 5 0 9 50 37 71 40 3 1 16
-33 28 -74z m-2429 -392 c115 -59 206 -112 203 -117 -4 -5 -1 -6 5 -2 7 4 21
1 33 -7 11 -8 17 -17 12 -19 -4 -3 -2 -3 5 -2 17 5 43 -7 37 -16 -3 -5 0 -12
6 -16 8 -4 9 -3 5 4 -4 7 -4 12 1 12 16 -1 138 -69 124 -70 -8 0 -117 -52
-242 -115 -125 -63 -231 -115 -234 -115 -4 0 -5 7 -2 15 4 8 1 17 -5 21 -6 4
-8 3 -4 -4 3 -6 2 -13 -2 -16 -12 -7 -119 336 -156 496 -3 14 -9 33 -12 42 -4
9 -1 16 6 16 7 0 106 -48 220 -107z m-544 -290 c20 -62 32 -118 28 -124 -4 -7
-3 -9 3 -6 6 4 13 -2 16 -13 3 -11 2 -18 -2 -17 -3 1 -7 -2 -8 -8 -2 -5 2 -10
8 -10 15 0 83 -175 72 -185 -21 -17 -245 -100 -255 -94 -6 4 -8 3 -4 -4 3 -6
-3 -13 -13 -17 -11 -3 -23 -15 -26 -26 -4 -10 -10 -19 -14 -19 -5 0 -6 -12 -3
-26 4 -20 2 -25 -8 -19 -8 5 -11 3 -9 -4 3 -7 8 -12 13 -11 9 2 96 -162 96
-178 -1 -4 -7 4 -15 18 -8 14 -14 21 -14 15 -1 -15 17 -40 28 -40 14 0 73 -94
66 -105 -3 -5 0 -12 6 -16 8 -5 10 -2 5 7 -4 8 -1 5 8 -5 8 -10 13 -23 9 -29
-3 -6 -1 -7 5 -3 14 9 37 -33 33 -61 -1 -13 3 -23 9 -23 6 0 8 -5 4 -11 -9
-16 -267 -4 -349 15 -66 16 -88 36 -78 75 9 41 120 412 173 581 26 85 71 232
100 325 66 217 61 207 72 165 5 -19 25 -86 44 -147z m1671 90 c12 -38 38 -113
58 -168 78 -212 105 -297 99 -307 -4 -6 -3 -8 3 -5 5 3 24 -34 41 -82 35 -96
37 -105 22 -96 -6 3 -7 -1 -4 -9 3 -9 9 -14 13 -12 11 7 54 -111 46 -125 -5
-7 -4 -10 3 -5 6 4 19 -20 33 -61 12 -38 30 -86 39 -108 10 -23 21 -55 24 -72
l7 -31 -81 -26 c-88 -28 -126 -33 -114 -14 4 7 3 8 -5 4 -6 -4 -9 -11 -6 -15
6 -11 -189 -34 -285 -34 -94 0 -250 19 -338 41 -65 17 -67 18 -65 47 4 52 97
364 107 358 5 -4 6 -1 2 6 -4 6 36 159 88 340 53 180 96 333 96 340 0 10 170
100 190 101 3 0 15 -30 27 -67z m330 -21 c45 -14 79 -30 76 -35 -3 -6 -1 -7 5
-3 17 10 135 -26 120 -37 -9 -6 -7 -7 6 -3 22 8 97 -14 90 -25 -3 -5 1 -6 9
-3 13 5 564 -162 580 -176 17 -15 -187 -315 -206 -303 -6 3 -7 1 -4 -4 9 -15
-32 -65 -46 -56 -7 3 -9 2 -4 -2 10 -11 -33 -56 -46 -48 -6 3 -7 2 -4 -4 8
-12 -70 -87 -172 -166 -94 -73 -128 -91 -134 -74 -3 7 -6 5 -6 -5 -1 -9 -5
-20 -11 -23 -6 -4 -7 1 -3 11 4 11 3 15 -4 11 -14 -8 -76 159 -66 176 3 7 2 9
-2 4 -5 -4 -21 25 -36 65 -119 314 -162 437 -162 465 -1 18 -4 28 -7 22 -6 -8
-84 189 -85 213 0 3 -3 10 -7 14 -5 4 -8 11 -8 16 0 10 6 9 127 -30z m-785
-146 c-9 -25 -21 -42 -26 -39 -5 4 -7 -1 -3 -12 10 -25 -23 -140 -35 -123 -6
9 -7 6 -3 -9 3 -12 -10 -74 -30 -145 -41 -139 -83 -287 -122 -428 -14 -52 -29
-98 -32 -102 -12 -13 -111 40 -111 59 0 13 -3 14 -8 5 -6 -9 -28 1 -82 39 -90
64 -232 198 -223 212 3 5 2 7 -4 4 -9 -5 -30 19 -110 129 -17 25 -20 34 -10
42 30 25 199 102 209 96 6 -4 8 -3 5 3 -7 12 181 106 195 97 6 -4 8 -3 5 3 -5
9 315 173 338 173 6 0 21 9 35 20 14 11 26 20 26 20 1 0 -6 -20 -14 -44z"/>
<path d="M4521 6669 c-46 -5 -113 -16 -148 -24 -37 -9 -81 -12 -104 -9 -23 4
-39 3 -39 -3 0 -6 12 -9 28 -7 15 2 2 -4 -28 -14 -30 -10 -68 -26 -85 -34 -39
-21 -102 -82 -110 -108 -3 -11 -10 -20 -15 -20 -5 0 -7 -6 -4 -14 3 -8 1 -30
-4 -49 -6 -19 -6 -39 -2 -44 4 -4 11 -29 14 -54 6 -39 4 -48 -10 -53 -12 -4
-21 -1 -28 11 -5 10 -32 41 -59 70 -87 92 -168 104 -286 44 -101 -51 -249
-168 -380 -301 -36 -36 -68 -65 -73 -65 -4 0 -9 -4 -9 -10 -2 -14 -32 -51 -41
-51 -4 1 -16 -15 -27 -34 -11 -19 -24 -34 -31 -32 -6 1 -9 -2 -5 -7 8 -14 -65
-112 -77 -104 -6 3 -8 2 -5 -4 3 -5 -16 -53 -43 -107 -28 -53 -50 -103 -50
-111 0 -8 -4 -15 -8 -15 -11 0 -9 -177 2 -187 5 -4 5 3 1 17 -9 31 -5 26 24
-25 22 -38 22 -39 2 -21 -12 11 -21 14 -21 9 0 -10 24 -25 42 -27 3 -1 17 -10
30 -21 18 -16 144 -76 168 -81 33 -6 59 -18 54 -25 -3 -5 2 -6 10 -3 9 3 16 1
16 -6 0 -6 5 -8 10 -5 15 9 391 -118 386 -131 -2 -6 2 -11 10 -11 7 0 11 4 8
9 -3 4 -1 8 4 8 15 0 73 -26 68 -31 -2 -2 8 -5 22 -5 41 -2 194 -59 185 -68
-4 -5 -2 -6 5 -2 21 12 162 -34 162 -53 0 -10 3 -12 8 -5 5 8 37 2 107 -18
158 -46 252 -28 306 59 18 28 22 52 23 113 1 43 -2 76 -5 74 -8 -5 -29 42 -29
66 0 11 -5 20 -11 20 -6 0 -9 7 -5 15 3 8 2 15 -3 15 -11 0 -63 129 -56 141 4
5 1 9 -5 9 -15 0 -51 87 -43 107 5 12 3 14 -7 8 -9 -5 -11 -4 -6 3 4 7 3 12
-2 12 -13 0 -63 120 -55 133 3 5 2 7 -4 4 -12 -8 -96 181 -87 195 4 6 3 8 -3
5 -12 -8 -45 71 -36 86 3 6 2 7 -4 4 -9 -6 -39 48 -45 83 -2 8 -6 17 -9 20
-15 12 -69 142 -63 152 4 6 2 8 -3 5 -13 -8 -26 20 -16 35 3 7 1 8 -5 4 -7 -4
-12 -1 -12 8 0 9 7 16 15 16 14 0 19 -11 16 -37 -1 -7 2 -13 7 -13 14 0 46
-79 45 -109 -1 -14 1 -20 4 -13 3 8 27 -34 55 -92 27 -59 46 -111 42 -118 -4
-6 -3 -8 3 -5 12 8 23 -14 23 -44 0 -10 5 -19 11 -19 6 0 8 -7 5 -17 -4 -10
-4 -14 0 -10 4 4 18 -14 31 -40 26 -55 27 -56 13 -48 -6 3 -7 -1 -4 -9 3 -9 9
-14 13 -11 10 6 43 -64 36 -76 -4 -5 -2 -9 3 -9 14 0 102 -208 96 -225 -4 -8
-1 -15 5 -15 15 0 71 -114 71 -145 0 -14 4 -25 8 -25 4 0 25 -23 45 -50 21
-28 52 -59 68 -69 17 -10 30 -23 31 -27 0 -5 2 -11 5 -14 4 -3 3 0 0 6 -4 7
11 9 48 6 46 -4 61 0 100 22 25 15 52 38 61 51 9 14 20 22 25 19 5 -3 8 -2 7
3 -5 14 24 73 33 67 5 -3 7 1 4 8 -6 17 31 78 47 78 10 0 10 2 1 8 -8 5 -6 20
9 54 11 27 25 45 31 41 6 -3 7 -1 3 6 -10 16 3 53 16 45 6 -4 8 -2 5 4 -4 5 2
32 13 58 16 35 24 44 32 36 9 -9 -3 -44 -47 -142 -32 -71 -62 -130 -67 -130
-5 0 -7 -4 -4 -8 3 -5 -9 -42 -26 -83 -27 -61 -32 -88 -34 -156 0 -45 3 -87 8
-95 7 -9 8 -8 4 5 -3 10 10 2 32 -20 21 -21 37 -46 35 -56 -1 -10 2 -15 8 -12
5 4 6 11 3 17 -5 8 -1 9 12 4 42 -18 102 -18 165 0 35 9 76 18 91 18 14 1 24
4 22 7 -2 4 3 9 11 13 9 3 15 0 15 -9 0 -12 4 -11 19 4 10 10 56 31 101 46 68
23 84 25 92 14 8 -12 9 -11 6 1 -3 10 43 30 181 77 102 35 194 62 204 59 9 -2
15 -1 13 3 -3 4 83 37 192 74 146 49 198 63 204 54 6 -9 8 -8 8 3 0 9 25 26
57 40 106 46 163 122 163 220 0 61 -56 188 -138 315 -25 39 -45 76 -45 83 0 6
-6 12 -12 12 -7 0 -23 16 -37 35 -44 63 -158 184 -242 258 -44 39 -80 76 -78
82 2 5 1 7 -3 3 -3 -3 -41 19 -83 49 -42 31 -99 67 -127 80 -35 17 -42 23 -23
20 15 -2 25 -1 23 4 -9 13 -170 2 -202 -15 -17 -8 -40 -13 -52 -11 -12 2 -19
0 -16 -6 4 -5 12 -6 18 -2 7 4 -7 -15 -30 -41 -24 -27 -43 -53 -43 -58 0 -5
-5 -6 -10 -3 -6 4 -9 3 -8 -2 2 -5 -13 -39 -32 -76 -50 -96 -61 -71 -22 50 18
54 32 116 32 138 -2 149 -111 230 -386 286 -116 23 -392 33 -523 18z m429
-210 c112 -12 238 -44 262 -66 25 -23 21 -122 -5 -106 -6 4 -7 1 -2 -6 9 -16
-115 -292 -128 -284 -6 4 -7 1 -3 -6 11 -17 -65 -184 -77 -168 -6 8 -7 6 -3
-6 8 -24 -11 -70 -26 -61 -7 4 -8 3 -4 -4 6 -10 -127 -330 -143 -342 -3 -3 -7
-10 -8 -15 -1 -6 -17 -44 -36 -85 -34 -76 -66 -117 -68 -89 -1 8 -1 17 0 22 0
4 -3 7 -8 7 -19 0 -316 654 -305 672 4 6 3 9 -2 5 -13 -7 -176 359 -182 408
-6 53 14 70 110 94 172 44 398 55 628 30z m-1183 -272 c-3 -8 1 -14 9 -14 7 0
11 5 8 11 -3 6 4 0 16 -13 11 -13 18 -31 16 -38 -3 -8 -2 -11 4 -8 5 3 34 -47
65 -111 59 -125 60 -128 45 -119 -6 3 -7 -1 -4 -9 3 -9 9 -14 14 -11 4 2 13
-8 20 -23 43 -92 59 -133 50 -127 -5 3 -10 2 -10 -3 0 -6 7 -13 16 -16 8 -3
12 -10 9 -16 -3 -5 -2 -10 3 -10 5 0 44 -75 85 -167 83 -184 99 -223 92 -223
-3 0 -10 11 -15 25 -9 23 -30 36 -30 18 1 -13 37 -53 48 -53 11 0 112 -230
112 -254 0 -13 -6 -15 -27 -10 -16 4 -35 10 -43 14 -8 4 -32 10 -52 14 -26 5
-38 12 -38 24 0 13 -2 14 -8 4 -7 -10 -15 -10 -38 -1 -33 14 -29 13 -72 23
-18 4 -30 12 -27 17 4 5 -1 6 -9 3 -20 -8 -366 108 -359 120 4 5 1 6 -6 2 -16
-10 -282 75 -274 87 3 6 1 7 -6 3 -18 -11 -205 55 -189 67 9 6 8 7 -5 3 -24
-8 -74 19 -82 43 -18 58 135 293 312 477 87 90 164 155 176 147 6 -3 7 -1 3 5
-7 12 100 93 155 117 42 18 42 18 36 2z m2010 -37 c83 -55 154 -120 146 -132
-4 -7 -1 -8 6 -3 15 9 163 -133 155 -147 -3 -5 0 -7 8 -6 7 2 12 -3 10 -10 -1
-6 2 -11 7 -10 14 4 122 -135 117 -149 -3 -7 0 -12 7 -10 7 1 11 -8 9 -23 -1
-17 1 -21 7 -12 6 10 19 -6 48 -55 22 -38 43 -83 46 -99 3 -16 4 -23 1 -16
-11 25 -22 11 -21 -28 1 -22 -1 -41 -4 -44 -20 -18 -1159 -396 -1195 -396 -8
0 -14 4 -14 9 0 17 384 869 462 1025 81 162 104 174 205 106z m-404 -59 c-4
-3 -8 -10 -9 -16 -1 -22 -26 -75 -35 -75 -5 0 -8 -3 -7 -7 4 -15 -15 -57 -31
-72 -9 -9 -11 -12 -3 -7 11 8 11 5 1 -17 -7 -15 -16 -24 -20 -21 -5 3 -6 -1
-3 -9 3 -8 -17 -61 -43 -118 -27 -57 -62 -133 -78 -169 -35 -78 -42 -88 -50
-69 -8 22 23 91 37 83 7 -5 8 -3 4 5 -9 15 13 73 25 66 4 -3 7 3 6 13 0 10 40
109 91 220 51 111 92 207 92 213 0 8 4 8 15 -1 9 -7 12 -16 8 -19z"/>
<path d="M2868 5190 c-128 -39 -178 -185 -179 -525 -1 -177 11 -300 43 -450
12 -55 22 -110 22 -122 1 -11 4 -19 9 -16 4 2 7 -3 7 -12 0 -28 69 -163 99
-193 58 -57 145 -80 224 -59 28 8 28 7 25 -30 -2 -25 -7 -37 -16 -35 -8 1 -11
-2 -7 -7 3 -6 -1 -22 -10 -35 -9 -14 -23 -51 -30 -83 -17 -70 -18 -83 -4 -63
7 11 9 2 5 -33 -2 -27 0 -50 6 -54 7 -4 9 4 4 23 -4 18 4 8 22 -27 62 -119
220 -299 368 -416 46 -36 81 -70 77 -76 -3 -6 -1 -7 5 -3 15 9 123 -63 115
-77 -3 -6 -1 -7 5 -3 6 3 40 -9 76 -28 36 -19 60 -37 53 -40 -7 -2 -3 -4 8 -3
11 1 47 -7 79 -17 41 -13 71 -16 100 -11 23 4 51 8 63 8 12 1 21 4 20 8 -1 3
15 20 35 38 52 45 85 121 158 356 33 110 74 238 89 285 16 47 37 115 47 152
10 36 23 64 28 61 5 -3 6 -1 2 5 -8 14 15 102 26 96 4 -3 5 1 3 9 -3 7 10 66
30 131 47 154 75 277 75 326 0 59 -27 118 -64 137 -29 16 -43 16 -168 9 -14 0
-24 -4 -22 -7 6 -10 -26 -20 -38 -12 -7 3 -8 1 -4 -5 4 -7 1 -12 -8 -12 -9 0
-16 5 -16 10 0 6 -5 10 -11 10 -8 0 -8 -5 1 -15 10 -12 8 -16 -12 -24 -20 -7
-263 -136 -491 -260 -32 -17 -63 -28 -69 -25 -6 4 -8 3 -5 -3 3 -5 -22 -25
-57 -44 -35 -19 -108 -58 -162 -88 -55 -29 -110 -53 -124 -53 -14 0 -19 -2
-11 -5 8 -3 -5 -16 -35 -34 -35 -20 -51 -25 -56 -16 -5 8 -8 7 -8 -4 0 -25
-24 -41 -38 -27 -17 17 -15 31 4 24 8 -3 13 -2 10 2 -7 12 63 44 77 36 7 -4 9
-3 4 1 -9 11 110 78 123 70 6 -4 9 -2 8 4 -2 6 51 40 117 75 66 34 173 93 239
129 128 72 164 87 151 67 -5 -9 -4 -11 4 -6 6 4 9 11 6 16 -7 11 85 64 108 63
9 -1 15 2 12 8 -6 9 4 12 45 11 14 0 19 2 13 5 -7 2 -13 8 -13 12 0 12 50 32
62 25 7 -4 8 -2 4 4 -3 6 2 16 13 21 14 8 21 8 24 -2 4 -8 6 -7 6 4 1 8 20 26
44 39 23 12 63 40 89 61 25 21 48 35 51 31 2 -4 3 -2 1 4 -1 5 4 21 12 35 20
36 17 99 -7 139 -20 33 -66 79 -81 80 -25 1 -138 63 -138 76 0 8 -5 12 -10 9
-6 -4 -8 -10 -5 -15 3 -5 -7 -5 -22 0 -58 17 -128 42 -138 50 -5 4 -27 10 -48
14 -20 4 -47 17 -59 29 -11 12 -17 16 -13 8 5 -10 3 -12 -11 -8 -11 4 -32 9
-47 13 -22 5 -26 9 -15 16 10 7 8 8 -5 4 -10 -3 -41 2 -70 11 -41 13 -47 18
-31 25 13 5 7 6 -16 3 -25 -3 -67 7 -145 35 -60 22 -100 39 -87 36 13 -2 20 0
16 6 -4 5 -18 8 -31 5 -30 -6 -248 65 -236 76 4 5 0 5 -9 2 -9 -4 -53 5 -98
19 -82 26 -142 31 -192 16z m213 -222 c54 -17 96 -35 93 -40 -3 -4 1 -5 9 -2
8 3 175 -49 373 -115 197 -67 360 -121 362 -121 2 0 1 -4 -2 -9 -4 -5 3 -7 14
-4 17 4 19 2 13 -13 -6 -16 -5 -17 9 -6 14 11 32 8 113 -20 53 -18 90 -35 83
-37 -7 -2 -17 -10 -21 -17 -4 -8 -15 -14 -22 -14 -8 0 -15 -4 -15 -8 0 -13
-50 -33 -62 -26 -6 4 -8 3 -5 -3 4 -6 -61 -47 -146 -93 -84 -45 -205 -112
-269 -147 -68 -38 -122 -62 -129 -57 -7 4 -9 3 -6 -3 8 -13 -20 -26 -35 -16
-6 3 -8 1 -4 -5 6 -9 -124 -84 -317 -181 -78 -39 -104 -35 -132 20 -102 196
-140 802 -59 927 19 29 40 28 155 -10z m1267 -770 c-3 -7 -24 -82 -48 -165
-23 -84 -47 -150 -51 -147 -5 3 -6 -1 -3 -9 3 -8 -14 -75 -36 -148 -23 -74
-57 -186 -77 -249 -19 -63 -39 -117 -44 -118 -5 -2 -7 -7 -4 -12 8 -14 -47
-180 -58 -173 -6 3 -7 1 -3 -5 9 -15 -4 -63 -15 -56 -5 3 -6 -1 -3 -9 7 -20
-32 -106 -53 -114 -10 -4 -19 -1 -21 6 -3 9 -7 10 -11 3 -4 -7 -41 8 -99 39
-57 31 -90 54 -86 61 4 7 3 8 -4 4 -17 -10 -190 117 -185 136 2 4 -1 7 -7 5
-14 -3 -181 164 -234 234 -26 34 -49 72 -52 86 -8 30 10 67 40 82 11 5 46 24
76 42 145 83 963 519 974 519 4 0 6 -6 4 -12z"/>
</g>
</svg>
