<?xml version="1.0" standalone="no"?>
<!DOCTYPE svg PUBLIC "-//W3C//DTD SVG 20010904//EN"
 "http://www.w3.org/TR/2001/REC-SVG-20010904/DTD/svg10.dtd">
<svg version="1.0" xmlns="http://www.w3.org/2000/svg"
 width="1024.000000pt" height="1024.000000pt" viewBox="0 0 1024.000000 1024.000000"
 preserveAspectRatio="xMidYMid meet">
<metadata>
Created by potrace 1.16, written by Peter Selinger 2001-2019
</metadata>
<g transform="translate(0.000000,1024.000000) scale(0.100000,-0.100000)"
fill="#000000" stroke="none">
<path d="M4980 6774 c-58 -19 -179 -58 -270 -85 -384 -118 -465 -143 -665
-204 -115 -34 -336 -101 -490 -148 -154 -47 -312 -95 -352 -107 -40 -11 -79
-28 -88 -36 -12 -13 -15 -43 -15 -162 0 -81 4 -153 9 -160 4 -7 34 -24 67 -37
l59 -24 3 -957 c1 -687 5 -961 13 -971 14 -16 51 -17 67 -1 9 9 12 234 12 950
0 516 4 938 8 938 4 0 57 -20 117 -44 l110 -44 5 -934 5 -933 31 -3 c17 -2 36
3 42 11 9 10 13 286 14 1068 l3 1053 140 44 c77 24 263 81 413 128 150 46 397
123 550 170 152 48 285 89 295 91 16 5 17 -16 17 -335 l0 -340 -132 -42 c-412
-130 -623 -204 -645 -226 -24 -24 -24 -26 -21 -212 3 -173 5 -189 24 -217 27
-37 133 -101 242 -145 l82 -34 0 -123 c0 -112 2 -125 21 -144 27 -27 35 -25
248 50 96 33 176 61 178 61 2 0 3 -103 3 -228 0 -164 3 -231 12 -240 17 -17
44 -15 62 4 14 13 16 53 16 280 l0 264 33 0 c61 0 272 39 376 70 183 54 337
145 376 221 11 21 15 67 15 188 0 153 -1 161 -24 188 -19 23 -24 43 -28 109
-8 149 -94 279 -214 323 -66 25 -73 25 -122 6 -45 -18 -72 -59 -72 -110 0 -29
8 -45 36 -73 30 -30 63 -92 49 -92 -8 0 -418 120 -421 123 -3 2 -3 155 -2 339
l3 336 65 -20 c36 -11 128 -39 205 -63 170 -53 299 -92 745 -230 190 -58 355
-110 368 -115 l22 -10 0 -1053 c0 -806 3 -1056 12 -1065 16 -16 53 -15 67 1 8
10 12 275 13 938 l3 924 110 42 c61 23 113 42 118 43 4 0 7 -422 7 -938 0
-716 3 -941 12 -950 15 -15 51 -15 66 0 9 9 12 238 12 969 l0 957 50 18 c89
32 90 33 90 202 0 103 -4 153 -13 165 -6 10 -35 24 -62 31 -45 12 -648 196
-975 297 -693 213 -949 289 -975 288 -16 -1 -77 -17 -135 -35z m100 -182 l0
-108 -267 -84 c-148 -46 -315 -98 -373 -116 -58 -18 -172 -53 -255 -79 -395
-123 -534 -165 -549 -165 -20 0 -316 113 -316 120 0 3 28 13 63 23 88 26 663
200 847 257 142 44 391 120 680 207 63 19 124 38 135 43 11 5 23 9 28 9 4 1 7
-48 7 -107z m220 68 c58 -17 152 -46 210 -65 58 -19 308 -95 555 -170 435
-132 824 -251 855 -261 18 -6 -30 -28 -183 -85 -99 -36 -117 -40 -152 -31 -37
8 -199 58 -775 237 -113 35 -303 94 -422 131 l-218 67 0 108 c0 82 3 107 13
104 6 -2 59 -18 117 -35z m-1860 -652 c58 -22 111 -46 118 -53 9 -8 12 -36 10
-92 l-3 -80 -182 70 -183 70 0 88 0 88 68 -25 c37 -14 114 -43 172 -66z m3603
-79 c-7 -7 -125 -54 -310 -124 l-63 -24 0 89 0 88 58 20 c31 11 113 42 182 69
l125 49 8 -79 c5 -44 5 -83 0 -88z m-1343 -184 c75 -48 130 -153 130 -250 l0
-42 -62 12 -63 11 -8 54 c-14 101 -28 145 -58 182 -16 20 -29 42 -29 47 0 20
50 12 90 -14z m-355 -189 c77 -24 166 -51 198 -60 58 -17 63 -21 49 -43 -21
-33 -94 -35 -209 -4 -22 6 -95 15 -162 21 -135 11 -231 4 -403 -31 -101 -20
-184 -20 -217 0 -9 6 66 35 225 86 132 42 244 78 249 80 28 12 145 -9 270 -49z
m-859 -170 c49 -25 145 -46 209 -46 34 0 110 9 171 21 149 29 337 29 500 0
151 -26 186 -26 260 -1 47 17 72 19 121 14 35 -3 60 -10 57 -15 -3 -5 0 -9 7
-9 27 0 -10 -21 -104 -60 -119 -48 -299 -87 -473 -102 -112 -9 -155 -8 -278 6
-79 9 -196 30 -258 46 -128 32 -284 93 -281 109 2 6 -4 8 -12 5 -24 -10 -17
22 8 34 30 15 39 14 73 -2z m1394 -196 c0 -114 -9 -128 -132 -203 -41 -26
-170 -75 -251 -96 -125 -33 -227 -45 -382 -45 -268 1 -539 75 -697 191 l-48
35 0 94 0 94 50 -25 c113 -57 316 -111 495 -130 128 -15 344 -12 466 5 150 21
380 91 454 139 17 11 33 20 38 20 4 1 7 -35 7 -79z m-965 -425 c55 -10 93 -20
85 -23 -8 -3 -72 -26 -142 -52 l-128 -48 0 83 0 83 43 -13 c23 -7 87 -20 142
-30z"/>
</g>
</svg>
