<?xml version="1.0" standalone="no"?>
<!DOCTYPE svg PUBLIC "-//W3C//DTD SVG 20010904//EN" "http://www.w3.org/TR/2001/REC-SVG-20010904/DTD/svg10.dtd">
<svg xmlns="http://www.w3.org/2000/svg" version="1.0" width="1024.000000pt" height="1024.000000pt" viewBox="0 0 1024.000000 1024.000000" preserveAspectRatio="xMidYMid meet">
<metadata>
Created by potrace 1.16, written by Peter Selinger 2001-2019
<meta name="Producer" content="Online-Convert"/></metadata>
<g transform="translate(0.000000,1024.000000) scale(0.100000,-0.100000)" fill="#000000" stroke="none">
<path d="M5460 6245 c-180 -41 -348 -128 -520 -271 -145 -120 -278 -283 -520 -634 -201 -293 -381 -517 -402 -504 -6 4 -8 2 -5 -3 9 -14 -139 -154 -225 -216 -309 -219 -663 -271 -936 -137 -62 31 -104 62 -167 123 -47 44 -85 85 -85 89 0 5 8 11 18 15 156 54 263 116 339 196 58 61 84 107 108 191 48 164 -57 314 -238 341 -53 8 -146 -9 -201 -37 -92 -47 -171 -151 -195 -259 -24 -104 -4 -255 46 -353 12 -24 13 -30 1 -38 -17 -12 -374 -3 -453 11 -136 26 -220 48 -340 90 -68 24 -251 125 -317 175 -65 48 -81 56 -93 46 -27 -22 -16 -48 41 -94 219 -179 613 -305 964 -310 63 0 144 2 180 6 l65 7 28 -37 c155 -205 359 -306 617 -305 457 2 833 272 1269 910 290 424 433 595 610 729 96 73 274 165 366 189 83 23 256 30 340 16 110 -19 208 -76 253 -145 38 -59 38 -158 0 -237 -55 -111 -207 -227 -381 -291 -45 -16 -157 -50 -249 -74 -92 -24 -220 -63 -285 -85 -473 -163 -795 -499 -769 -804 7 -93 29 -153 74 -206 23 -27 32 -44 24 -47 -6 -2 -12 -8 -12 -14 0 -7 4 -7 13 0 10 9 27 1 72 -33 80 -59 218 -105 342 -112 224 -14 541 68 858 221 248 120 480 267 793 505 633 480 845 605 1252 738 345 112 695 167 1038 161 154 -3 184 -1 192 12 12 19 12 21 0 40 -14 22 -428 20 -605 -4 -379 -50 -725 -152 -1040 -307 -223 -109 -406 -230 -785 -519 -380 -290 -574 -416 -835 -545 -194 -96 -322 -145 -481 -186 -225 -57 -408 -62 -551 -15 -261 85 -351 302 -228 547 41 79 73 119 93 112 14 -4 15 -3 2 6 -12 8 -9 16 19 45 19 19 39 32 44 29 6 -3 7 -1 4 4 -7 12 78 89 155 141 26 18 86 52 135 76 153 76 194 90 548 187 396 109 602 258 652 472 42 177 -51 312 -262 379 -81 26 -285 33 -375 13z m-2562 -907 c51 -24 88 -66 102 -116 14 -52 13 -75 -10 -138 -27 -78 -91 -156 -170 -209 -68 -46 -203 -105 -238 -105 -52 0 -109 193 -92 312 31 217 227 340 408 256z"/>
</g>
</svg>
