<?xml version="1.0" standalone="no"?>
<!DOCTYPE svg PUBLIC "-//W3C//DTD SVG 20010904//EN"
 "http://www.w3.org/TR/2001/REC-SVG-20010904/DTD/svg10.dtd">
<svg version="1.0" xmlns="http://www.w3.org/2000/svg"
 width="1024.000000pt" height="1024.000000pt" viewBox="0 0 1024.000000 1024.000000"
 preserveAspectRatio="xMidYMid meet">
<metadata>
Created by potrace 1.16, written by Peter Selinger 2001-2019
</metadata>
<g transform="translate(0.000000,1024.000000) scale(0.100000,-0.100000)"
fill="#000000" stroke="none">
<path d="M5485 6395 c-159 -29 -357 -118 -497 -222 -40 -31 -113 -94 -161
-142 -138 -134 -204 -217 -547 -681 -375 -507 -484 -629 -682 -761 -258 -170
-565 -195 -827 -68 -89 43 -118 64 -185 132 l-81 80 50 14 c208 59 346 149
435 283 66 99 90 260 51 347 -11 23 -16 44 -13 48 4 4 2 5 -3 4 -6 -2 -25 11
-43 28 -60 58 -116 78 -217 78 -77 0 -98 -4 -148 -27 -202 -95 -313 -391 -243
-648 8 -31 11 -59 6 -64 -16 -16 -367 1 -465 22 -239 53 -443 149 -589 279
-53 47 -89 54 -94 17 -4 -29 28 -65 119 -133 110 -82 252 -153 389 -194 209
-63 255 -70 483 -72 l208 -1 44 -56 c83 -106 197 -188 333 -239 308 -117 661
-44 953 198 159 131 250 240 618 738 367 498 490 640 661 762 316 226 688 284
897 141 137 -93 158 -260 53 -413 -109 -159 -304 -265 -695 -379 -422 -124
-647 -238 -835 -426 -240 -239 -254 -539 -36 -755 243 -241 654 -259 1166 -53
347 140 705 358 1205 733 544 408 826 568 1221 695 335 107 776 159 1013 118
77 -13 105 -3 99 36 -5 36 -79 48 -293 50 -318 2 -593 -47 -940 -167 -128 -44
-203 -76 -340 -144 -223 -112 -387 -220 -780 -513 -459 -343 -657 -471 -952
-619 -271 -136 -491 -212 -708 -246 -323 -51 -624 70 -727 292 -41 87 -50 210
-23 294 40 123 169 270 328 374 145 94 306 163 547 235 188 56 403 131 475
165 274 131 425 322 413 525 -13 216 -199 352 -477 349 -53 0 -127 -7 -166
-14z m-2617 -951 c18 -7 31 -18 28 -23 -3 -5 2 -8 11 -7 9 0 30 -18 47 -42 28
-39 30 -50 29 -115 0 -50 -7 -87 -22 -121 -27 -62 -60 -108 -72 -101 -5 4 -6
0 -3 -8 8 -23 -91 -103 -181 -147 -86 -42 -221 -78 -235 -64 -19 19 -43 143
-43 224 0 174 85 331 213 392 80 39 153 43 228 12z"/>
</g>
</svg>
