<?xml version="1.0" standalone="no"?>
<!DOCTYPE svg PUBLIC "-//W3C//DTD SVG 20010904//EN" "http://www.w3.org/TR/2001/REC-SVG-20010904/DTD/svg10.dtd">
<svg xmlns="http://www.w3.org/2000/svg" version="1.0" width="1024.000000pt" height="1024.000000pt" viewBox="0 0 1024.000000 1024.000000" preserveAspectRatio="xMidYMid meet">
<metadata>
Created by potrace 1.16, written by Peter Selinger 2001-2019
<meta name="Producer" content="Online-Convert"/></metadata>
<g transform="translate(0.000000,1024.000000) scale(0.100000,-0.100000)" fill="#000000" stroke="none">
<path d="M5020 7888 c-52 -3 -131 -14 -175 -23 -83 -17 -269 -77 -318 -102 -15 -7 -32 -11 -36 -8 -5 3 -11 1 -13 -3 -5 -14 -127 -82 -141 -78 -6 1 -9 1 -5 -1 5 -3 -27 -30 -70 -60 -42 -31 -98 -73 -123 -94 -37 -31 -48 -36 -59 -26 -12 10 -12 9 -2 -4 10 -13 6 -21 -18 -44 -17 -16 -30 -25 -30 -20 0 14 -24 -13 -26 -29 -1 -8 -15 -30 -30 -50 -23 -29 -31 -33 -44 -23 -13 10 -13 10 -3 -4 10 -12 6 -24 -23 -65 -20 -27 -49 -75 -65 -107 -18 -36 -34 -55 -41 -51 -6 4 -8 3 -5 -3 4 -6 -9 -49 -28 -96 -19 -48 -44 -119 -55 -159 -47 -172 -48 -204 -49 -1581 l-1 -1299 -62 -80 c-53 -70 -63 -79 -70 -62 -7 16 -8 15 -4 -5 4 -18 -8 -42 -41 -87 -25 -35 -49 -61 -53 -59 -4 2 -7 -1 -7 -8 0 -20 -125 -177 -136 -170 -6 3 -7 1 -3 -5 9 -15 -143 -214 -157 -205 -6 3 -7 1 -3 -5 8 -13 -51 -92 -67 -89 -5 1 -12 -5 -14 -13 -4 -13 -3 -13 6 0 6 8 11 11 11 7 0 -17 -53 -77 -63 -70 -6 3 -7 1 -3 -5 9 -15 -93 -144 -107 -135 -6 3 -7 1 -3 -5 9 -15 -263 -364 -277 -355 -5 3 -7 2 -4 -4 9 -14 -22 -55 -35 -47 -6 4 -8 3 -5 -3 9 -14 -42 -85 -55 -77 -6 4 -8 3 -5 -3 4 -6 -3 -22 -14 -37 -12 -15 -17 -31 -12 -38 4 -7 8 -15 8 -18 0 -3 6 -14 14 -25 9 -15 11 -16 7 -2 -8 25 5 21 31 -10 13 -14 25 -24 26 -22 2 2 14 19 26 37 12 18 27 29 33 26 6 -4 8 -2 4 4 -8 13 148 218 163 215 6 -2 8 3 6 10 -3 6 13 34 34 60 22 26 56 70 76 98 20 27 42 46 47 42 6 -3 8 -1 4 5 -8 14 114 173 127 165 6 -3 7 -2 4 4 -9 14 52 95 65 86 7 -3 8 -1 4 6 -9 14 12 43 24 36 5 -3 12 0 16 6 4 8 3 9 -4 5 -22 -13 -12 6 29 58 23 28 46 50 51 48 5 -1 7 2 4 7 -8 12 118 177 132 174 5 -1 9 5 8 15 0 9 4 16 10 15 6 -1 11 4 11 11 0 20 227 315 238 309 5 -4 7 -3 3 2 -10 11 53 96 65 88 6 -3 7 -1 4 4 -8 13 47 85 57 75 4 -3 4 2 0 12 -5 13 -4 17 3 13 6 -4 10 -1 9 6 -2 19 325 448 337 440 6 -3 7 -1 3 5 -9 15 43 84 57 75 6 -3 7 -1 3 5 -9 14 165 246 178 236 3 -2 4 -1 1 2 -5 7 21 46 55 82 l21 22 660 -1 660 -1 79 -106 c43 -58 76 -110 73 -115 -3 -6 -1 -7 4 -4 13 8 66 -59 58 -73 -4 -6 -1 -9 7 -8 7 2 12 -5 12 -14 -1 -10 2 -16 6 -15 13 3 70 -75 63 -86 -3 -5 -2 -7 4 -4 14 9 76 -80 67 -95 -4 -6 -3 -8 4 -4 6 3 28 -17 51 -46 144 -190 192 -259 184 -271 -3 -5 -1 -7 5 -3 13 8 56 -60 46 -75 -4 -7 -3 -9 4 -5 6 4 34 -25 67 -69 43 -59 54 -80 45 -90 -8 -10 -8 -15 1 -21 7 -4 9 -3 5 4 -3 6 -2 13 3 16 13 8 93 -102 85 -116 -4 -6 -3 -8 3 -5 14 9 66 -60 57 -75 -4 -6 -3 -8 4 -4 12 7 44 -33 36 -46 -3 -5 -1 -7 4 -6 15 4 84 -90 76 -104 -4 -6 -3 -8 4 -4 12 7 54 -42 46 -55 -3 -5 -1 -8 4 -7 15 4 84 -90 76 -104 -4 -6 -3 -8 3 -5 14 9 37 -19 27 -34 -4 -7 -3 -9 3 -6 6 4 23 -10 39 -30 22 -29 24 -35 9 -30 -15 6 -16 5 -5 -8 7 -8 16 -13 20 -10 5 3 22 -12 39 -34 32 -40 39 -57 19 -45 -7 4 -8 3 -4 -5 4 -6 11 -9 16 -6 9 6 196 -242 193 -256 -2 -5 1 -8 6 -6 13 3 72 -74 64 -86 -3 -5 -1 -7 5 -3 13 8 44 -33 35 -47 -3 -6 -2 -7 4 -4 11 7 78 -80 78 -103 1 -8 6 -14 12 -13 6 1 37 -31 68 -72 61 -80 77 -91 95 -70 7 8 17 12 23 8 5 -3 7 -1 4 4 -4 6 2 18 13 28 11 10 20 23 20 30 0 6 -23 39 -50 73 -28 35 -48 68 -44 74 4 6 3 8 -4 4 -14 -8 -235 272 -226 286 4 6 2 8 -3 5 -13 -8 -85 82 -76 96 3 5 1 7 -4 4 -13 -8 -35 16 -31 34 2 7 -2 13 -8 14 -18 0 -125 145 -118 157 4 6 3 8 -3 5 -6 -4 -66 66 -133 155 -68 89 -118 164 -111 166 6 2 8 8 5 14 -4 7 -9 6 -14 -2 -8 -13 -77 75 -73 91 2 5 -1 8 -6 6 -13 -3 -153 182 -146 194 4 5 2 8 -3 7 -14 -4 -93 103 -85 115 3 6 1 7 -5 3 -6 -3 -16 2 -21 13 -8 13 -12 451 -14 1353 -4 1305 -4 1335 -24 1433 -54 256 -142 442 -309 651 -79 98 -141 158 -246 236 -37 28 -65 55 -61 61 3 6 1 7 -5 3 -6 -4 -29 4 -50 18 -62 39 -182 97 -250 121 -34 12 -59 25 -55 30 5 4 3 5 -4 1 -7 -4 -47 2 -90 13 -156 39 -302 51 -473 39z m406 -167 c108 -27 195 -57 274 -96 75 -36 160 -85 160 -92 0 -2 -5 -1 -12 3 -7 4 -8 3 -4 -5 4 -6 12 -9 17 -6 5 4 29 -8 54 -25 40 -27 44 -34 34 -48 -11 -14 -11 -15 0 -5 11 9 19 8 37 -4 13 -8 21 -20 17 -26 -3 -5 -1 -7 4 -4 13 8 36 -17 25 -28 -4 -5 -2 -5 4 -2 11 6 49 -27 56 -48 2 -5 6 -9 10 -8 7 3 88 -90 88 -101 0 -3 -5 -5 -11 -3 -6 1 -14 -5 -16 -13 -3 -9 -1 -11 4 -5 17 22 35 8 79 -59 30 -48 42 -76 38 -90 -4 -15 -3 -17 4 -8 7 10 15 1 32 -35 75 -159 117 -334 130 -543 11 -165 13 -2137 4 -2252 l-7 -76 -34 45 c-18 24 -31 48 -28 54 4 5 1 8 -7 7 -7 -2 -12 5 -12 14 1 10 -2 16 -6 13 -12 -8 -33 23 -24 36 4 7 3 9 -3 6 -14 -9 -66 60 -57 75 4 6 3 8 -4 4 -11 -6 -115 129 -115 151 0 7 -4 10 -8 7 -12 -7 -51 54 -43 67 4 7 3 9 -4 5 -12 -7 -94 102 -86 116 3 4 0 7 -8 6 -7 -2 -12 5 -12 14 1 10 -2 16 -6 13 -5 -3 -26 18 -47 47 l-38 52 -2 341 c-2 187 -4 511 -6 720 l-2 380 -33 94 c-75 216 -212 370 -413 466 -73 34 -185 64 -242 65 -16 0 -26 3 -24 8 3 4 -21 7 -53 7 -32 0 -56 -3 -53 -7 2 -5 -10 -8 -27 -8 -51 0 -171 -31 -239 -61 -35 -16 -67 -26 -72 -23 -5 3 -8 1 -7 -4 4 -13 -71 -64 -83 -56 -5 3 -8 2 -7 -3 1 -4 -27 -37 -63 -73 -36 -36 -80 -88 -98 -117 -19 -29 -38 -50 -44 -46 -6 3 -7 1 -4 -4 4 -6 -4 -36 -17 -66 -61 -138 -59 -108 -65 -897 -5 -594 -8 -725 -19 -722 -8 1 -11 -1 -8 -6 7 -12 -49 -87 -66 -87 -7 -1 -12 -7 -10 -14 4 -18 -38 -72 -50 -65 -6 4 -8 2 -5 -3 8 -12 -89 -148 -105 -148 -6 0 -12 -8 -14 -18 -4 -27 -54 -88 -66 -81 -7 4 -8 2 -4 -4 8 -13 -22 -64 -33 -57 -4 2 -8 -1 -8 -8 0 -7 -26 -48 -59 -91 -32 -43 -69 -92 -81 -109 l-23 -31 0 1186 c0 993 2 1206 15 1300 17 129 79 343 97 332 7 -4 8 -3 4 4 -10 17 56 144 77 150 11 3 14 7 8 11 -15 9 72 129 157 215 76 78 219 189 233 180 5 -3 9 1 9 9 0 19 182 108 300 147 170 56 272 70 470 66 132 -3 195 -9 256 -25z m-108 -945 c28 -9 52 -21 52 -27 0 -6 4 -8 8 -5 13 8 72 -25 65 -37 -3 -6 -1 -7 6 -3 7 5 33 -9 64 -33 70 -54 98 -87 91 -108 -4 -14 -3 -15 4 -5 7 11 14 7 31 -17 12 -17 20 -35 16 -40 -3 -5 0 -13 6 -17 8 -4 9 -3 5 4 -4 7 -5 12 -2 12 11 0 46 -78 68 -151 22 -73 22 -83 25 -726 l3 -653 -635 0 -635 0 0 625 c0 526 2 638 16 703 17 88 71 210 108 247 14 14 22 25 19 25 -4 0 8 16 27 35 19 19 38 35 43 35 5 0 18 12 29 26 11 14 27 23 34 20 8 -3 13 0 11 6 -3 16 116 75 188 93 78 19 278 14 353 -9z"/>
</g>
</svg>
