<?xml version="1.0" standalone="no"?>
<!DOCTYPE svg PUBLIC "-//W3C//DTD SVG 20010904//EN" "http://www.w3.org/TR/2001/REC-SVG-20010904/DTD/svg10.dtd">
<svg xmlns="http://www.w3.org/2000/svg" version="1.0" width="1024.000000pt" height="1024.000000pt" viewBox="0 0 1024.000000 1024.000000" preserveAspectRatio="xMidYMid meet">
<metadata>
Created by potrace 1.16, written by Peter Selinger 2001-2019
<meta name="Producer" content="Online-Convert"/></metadata>
<g transform="translate(0.000000,1024.000000) scale(0.100000,-0.100000)" fill="#000000" stroke="none">
<path d="M3100 8230 c10 -6 -46 -9 -161 -9 -253 -1 -392 -34 -549 -130 -53 -33 -65 -37 -55 -21 3 6 1 10 -5 10 -7 0 -10 -7 -7 -15 7 -16 -60 -74 -81 -69 -7 1 -8 0 -1 -3 6 -3 -4 -21 -27 -44 -20 -21 -42 -35 -47 -32 -6 3 -7 1 -3 -5 3 -6 -14 -40 -39 -76 -44 -62 -110 -194 -120 -241 -21 -91 -35 -185 -36 -245 -1 -41 -7 -81 -13 -89 -6 -8 -6 -12 -1 -9 13 8 17 -270 4 -294 -5 -9 -6 -19 -2 -21 5 -3 7 -47 6 -99 -1 -51 -2 -119 -2 -151 -1 -43 -5 -56 -14 -51 -6 4 -4 -2 6 -13 9 -11 15 -22 12 -25 -3 -3 -5 -104 -5 -224 0 -120 1 -282 1 -359 0 -146 0 -312 0 -342 1 -10 1 -27 0 -38 0 -11 0 -33 1 -50 1 -16 1 -75 0 -130 0 -55 -1 -109 -1 -120 0 -11 0 -74 0 -140 0 -66 -1 -163 -1 -215 1 -52 1 -111 0 -130 0 -19 2 -77 4 -129 2 -51 1 -115 -3 -142 -5 -27 -5 -49 -2 -49 3 0 6 -50 6 -110 0 -63 -4 -110 -9 -110 -6 0 -6 -4 0 -10 14 -14 5 -72 -10 -63 -6 3 -3 -2 6 -13 13 -15 15 -27 9 -49 -4 -17 -4 -48 0 -70 4 -22 4 -41 1 -42 -7 -3 -7 -32 0 -295 2 -64 1 -115 -2 -113 -3 2 -4 -46 -3 -106 1 -67 -2 -109 -8 -109 -6 0 -3 -7 5 -16 9 -8 13 -21 9 -27 -9 -15 -11 -57 -2 -62 9 -6 -2 -55 -13 -55 -5 0 -6 -5 -3 -10 4 -6 11 -8 16 -5 11 7 11 1 0 -47 -5 -23 -5 -36 0 -32 5 3 7 -11 5 -32 -3 -20 -10 -40 -17 -44 -8 -6 -8 -9 1 -12 14 -4 23 -95 10 -103 -5 -3 -5 -16 2 -31 9 -19 9 -30 1 -43 -7 -11 -8 -23 -1 -35 5 -9 8 -57 6 -106 -2 -50 0 -90 5 -90 4 0 7 -13 7 -29 0 -16 13 -72 29 -124 15 -53 24 -94 20 -91 -5 3 -9 13 -10 22 0 10 -3 12 -5 5 -6 -14 15 -57 23 -49 6 5 63 -85 63 -99 0 -4 -6 -3 -12 1 -8 4 -10 3 -5 -2 5 -5 14 -9 19 -9 6 0 13 -6 16 -14 3 -9 0 -11 -8 -6 -9 5 -11 4 -6 -4 4 -6 11 -9 15 -7 11 7 53 -52 46 -64 -3 -5 0 -8 7 -6 7 2 33 -19 58 -47 25 -28 39 -47 33 -43 -8 4 -13 2 -13 -4 0 -7 7 -9 16 -6 20 8 47 -12 37 -27 -3 -5 -2 -7 4 -4 5 4 28 -7 49 -22 21 -16 70 -45 107 -64 38 -19 67 -38 67 -42 -1 -4 2 -10 6 -13 4 -4 3 -1 -1 7 -6 11 -4 13 9 8 10 -4 29 -10 42 -13 13 -3 24 -9 24 -13 0 -4 8 -7 18 -8 9 0 57 -8 106 -17 80 -14 303 -16 2380 -16 2481 0 2402 -2 2547 53 87 33 164 72 222 113 26 19 53 32 60 28 7 -4 9 -3 4 1 -4 5 26 43 66 84 41 42 86 95 102 118 15 24 32 40 38 36 5 -3 7 -1 4 4 -4 6 7 40 23 76 16 36 40 98 52 139 l23 73 3 2395 c2 1896 0 2413 -10 2480 -7 47 -12 91 -11 98 0 6 -3 12 -7 12 -4 0 -10 13 -13 30 -4 16 -22 61 -42 101 -19 39 -32 76 -28 82 3 5 1 7 -4 4 -6 -4 -23 12 -38 36 -44 66 -152 172 -221 219 -35 23 -64 46 -64 50 0 5 -4 7 -9 3 -14 -8 -61 16 -54 28 3 5 0 7 -8 5 -8 -3 -34 3 -59 12 -90 35 -183 49 -335 51 -91 1 -156 6 -164 13 -11 8 -13 8 -8 -1 5 -8 -23 -10 -110 -8 -65 2 -120 4 -123 5 -3 1 -9 1 -15 0 -31 -7 -56 -6 -60 1 -3 4 -18 4 -33 0 -15 -4 -67 -6 -117 -5 -49 1 -108 2 -130 2 -22 -1 -94 0 -160 1 -66 0 -124 1 -130 0 -5 0 -158 -2 -340 -4 -239 -2 -332 0 -337 9 -5 7 -8 7 -8 0 0 -14 -896 -18 -905 -3 -4 6 -11 6 -18 1 -17 -14 -289 -12 -306 2 -11 8 -13 8 -8 -1 6 -9 -11 -12 -63 -12 -38 0 -72 4 -75 9 -3 6 -16 5 -30 0 -29 -11 -434 -10 -456 1 -9 5 -20 5 -24 1 -9 -10 -615 -10 -615 0 0 4 -8 8 -17 8 -15 0 -16 -2 -3 -10z m4505 -238 c33 -12 62 -27 63 -32 2 -6 7 -8 11 -6 12 8 96 -40 96 -55 0 -8 8 -13 16 -11 20 3 115 -88 159 -153 18 -26 43 -73 56 -106 25 -62 32 -96 13 -69 -8 12 -10 11 -7 -5 2 -11 7 -19 13 -17 5 2 14 -7 20 -20 7 -16 10 -744 11 -2333 1 -1270 -2 -2292 -6 -2270 l-7 40 -2 -37 -1 -37 -142 -3 c-150 -3 -236 12 -230 40 1 8 -2 11 -7 7 -15 -8 -57 80 -71 150 -27 129 -8 324 40 403 11 17 35 38 55 46 63 27 74 99 21 152 l-34 34 -783 0 c-677 0 -793 -3 -849 -16 -36 -9 -78 -16 -93 -16 -16 -1 -24 -4 -18 -7 6 -4 -3 -15 -22 -26 -17 -10 -48 -31 -68 -46 -29 -23 -39 -26 -50 -16 -11 10 -12 9 -2 -2 9 -10 2 -27 -32 -76 -24 -35 -46 -74 -50 -86 -5 -15 -10 -18 -15 -9 -4 7 -7 0 -7 -17 0 -15 -5 -64 -11 -108 -11 -78 -6 -128 24 -249 5 -22 4 -27 -6 -21 -9 5 -11 4 -6 -4 4 -6 12 -8 18 -5 8 5 9 1 4 -12 -4 -10 -4 -15 0 -12 5 5 43 -44 79 -102 3 -5 -124 -6 -184 -1 -9 1 -12 11 -9 33 3 18 2 40 -3 48 -4 8 -22 193 -39 410 -17 217 -35 442 -40 500 -5 58 -18 211 -29 340 -16 186 -36 443 -50 640 -1 8 -12 130 -25 270 -36 373 -58 672 -52 703 3 16 1 25 -5 22 -5 -4 -9 2 -9 12 0 79 -83 185 -154 199 -20 3 -38 9 -40 13 -7 10 -168 -6 -271 -28 -49 -10 -91 -18 -92 -17 -1 1 -11 116 -23 256 -24 281 -36 327 -96 379 -18 16 -30 31 -28 34 3 3 -1 5 -8 4 -40 -1 -59 4 -52 15 5 7 3 8 -6 3 -7 -4 -40 -9 -74 -11 -33 -2 -167 -10 -296 -18 -129 -8 -235 -14 -236 -13 0 1 14 70 32 152 47 212 46 227 -21 272 -28 19 -34 20 -70 7 -22 -7 -47 -22 -56 -33 -8 -10 -28 -85 -43 -165 -16 -80 -32 -143 -37 -140 -5 3 -6 -2 -3 -10 7 -19 -67 -366 -77 -360 -4 2 -5 -4 -2 -14 4 -16 -58 -312 -73 -352 -4 -8 -8 -29 -10 -46 -1 -17 -12 -69 -23 -115 -10 -46 -25 -110 -32 -143 -10 -45 -15 -54 -21 -40 -6 13 -7 11 -3 -9 5 -25 -54 -322 -72 -367 -3 -8 -6 -18 -5 -22 1 -4 -12 -66 -28 -137 -17 -71 -30 -132 -30 -135 0 -3 -4 -6 -10 -6 -5 0 -7 7 -4 15 4 8 2 15 -3 15 -5 0 -9 -9 -10 -20 -1 -11 2 -20 8 -20 5 0 9 -9 9 -21 0 -13 -4 -18 -12 -13 -8 5 -9 2 -4 -11 10 -26 -64 -350 -76 -333 -6 9 -8 4 -4 -14 4 -17 -11 -106 -38 -225 -24 -109 -77 -342 -116 -518 -39 -176 -74 -327 -77 -335 -3 -8 -7 -28 -9 -44 -2 -16 -17 -86 -33 -155 -17 -69 -46 -198 -66 -286 -20 -88 -42 -164 -47 -170 -8 -7 -8 -5 -3 5 7 12 6 13 -6 4 -18 -14 -161 -13 -156 1 3 5 33 135 68 287 34 152 66 275 71 272 4 -3 5 1 3 8 -3 8 19 121 49 253 30 132 58 257 62 278 5 28 9 35 16 25 7 -9 8 -7 3 8 -3 12 15 113 40 225 25 112 88 393 140 624 52 231 110 490 130 575 19 85 42 184 49 220 8 36 25 111 37 167 13 60 26 100 32 96 6 -4 7 -1 2 6 -8 14 55 312 65 306 4 -3 5 7 2 22 -4 19 -2 24 8 18 9 -5 10 -2 6 12 -7 23 62 346 75 351 4 2 6 9 3 15 -2 7 7 64 21 126 31 139 31 191 4 248 -44 90 -134 138 -259 137 -82 0 -140 -29 -187 -94 -18 -25 -37 -50 -43 -56 -5 -7 -7 -14 -4 -17 7 -7 -69 -341 -78 -345 -4 -2 -6 -8 -3 -12 3 -5 -17 -107 -44 -227 -27 -120 -62 -274 -77 -343 -16 -69 -32 -127 -36 -128 -5 -2 -6 -8 -3 -12 8 -13 -65 -324 -78 -331 -5 -4 -7 -11 -3 -17 10 -17 -54 -285 -71 -298 -11 -7 -14 -20 -10 -40 6 -31 -61 -346 -75 -352 -5 -2 -6 -8 -3 -12 3 -5 -3 -46 -14 -92 -11 -46 -28 -117 -38 -160 -10 -42 -22 -74 -27 -71 -5 4 -6 -2 -2 -12 9 -24 -24 -166 -37 -158 -6 4 -7 1 -2 -6 10 -18 -27 -184 -38 -168 -5 7 -7 3 -3 -12 4 -21 -52 -294 -71 -341 -3 -8 -6 -24 -7 -35 -4 -49 -70 -304 -78 -299 -4 3 -5 -2 -2 -11 9 -23 -68 -338 -79 -323 -5 9 -7 3 -4 -15 2 -15 -2 -56 -9 -90 -16 -74 -18 -156 -4 -191 9 -24 8 -25 -25 -24 l-35 1 0 79 c0 55 4 78 13 79 9 0 9 2 0 6 -10 4 -13 448 -13 2176 0 1348 4 2194 10 2231 14 87 39 168 50 161 6 -3 7 1 4 10 -7 18 69 148 103 175 13 10 23 22 22 26 -1 5 6 13 15 19 10 5 34 25 53 43 61 57 209 122 308 135 17 2 1106 4 2420 3 l2390 -1 60 -23z m-4185 -1042 c11 -11 20 -27 20 -36 0 -32 -64 -299 -73 -305 -5 -4 -7 -11 -3 -17 7 -11 -58 -305 -66 -297 -3 3 -3 -6 0 -21 4 -20 2 -25 -8 -19 -9 5 -11 4 -6 -4 11 -17 -66 -354 -77 -338 -5 7 -6 3 -2 -11 7 -25 -64 -355 -77 -360 -4 -2 -6 -8 -3 -13 8 -11 -66 -343 -77 -347 -4 -2 -6 -8 -2 -13 9 -15 -150 -699 -159 -686 -5 7 -6 3 -2 -10 7 -27 -25 -184 -37 -177 -4 3 -5 -2 -2 -10 3 -9 -5 -64 -19 -123 -14 -59 -40 -171 -58 -248 -17 -77 -36 -142 -40 -143 -5 -2 -7 -8 -3 -13 3 -5 -18 -112 -46 -237 -66 -292 -111 -468 -105 -417 3 29 2 34 -4 19 -5 -11 -9 -47 -9 -80 0 -32 -5 -72 -11 -87 -10 -26 -14 -27 -48 -21 -68 12 -83 21 -83 51 0 15 18 101 40 192 38 162 110 468 210 901 27 118 74 323 105 455 30 132 63 272 72 312 9 40 20 70 25 67 4 -3 5 1 2 9 -4 12 25 163 61 312 20 82 187 812 220 960 15 66 30 121 35 123 5 2 7 9 4 16 -3 8 6 60 20 117 13 57 41 176 60 264 43 190 51 222 67 241 17 20 56 17 79 -6z m1124 -484 c11 -64 28 -347 23 -360 -3 -8 -3 -16 1 -18 4 -2 16 -102 25 -223 10 -121 27 -316 38 -433 10 -117 16 -224 13 -238 -4 -15 -2 -29 3 -33 5 -3 15 -67 21 -141 6 -74 21 -232 32 -350 25 -272 22 -242 70 -775 23 -247 38 -460 35 -472 -3 -13 -2 -23 3 -23 9 0 42 -359 42 -449 0 -44 -3 -52 -16 -47 -8 3 -13 2 -10 -3 4 -5 -36 -12 -86 -16 -120 -8 -524 -12 -532 -4 -3 3 -7 57 -8 121 -2 64 -6 114 -9 112 -3 -2 -13 90 -22 204 -17 211 -40 483 -77 903 -11 130 -17 259 -14 285 3 29 2 44 -3 37 -5 -7 -18 98 -31 260 -13 150 -30 352 -38 450 -9 99 -13 185 -10 193 3 8 2 14 -2 14 -11 0 -47 434 -38 449 4 6 3 11 -2 11 -11 0 -45 422 -39 480 3 25 6 50 6 57 1 17 40 22 205 28 81 3 160 7 175 10 22 5 23 4 6 -4 -15 -7 -5 -9 40 -9 51 1 54 2 20 7 -34 5 -28 6 35 11 119 8 139 4 144 -34z m579 -611 c9 -8 18 -27 21 -42 10 -50 68 -767 63 -790 -2 -13 0 -23 4 -23 14 0 10 -104 -3 -120 -11 -12 -10 -12 3 -2 15 12 18 2 24 -112 4 -68 4 -130 0 -137 -5 -8 -4 -10 3 -5 9 5 12 -7 12 -39 0 -34 -3 -44 -12 -39 -10 6 -10 5 -1 -8 7 -8 9 -19 5 -23 -4 -5 -2 -5 4 -2 12 7 49 -418 38 -446 -3 -9 -2 -23 4 -30 11 -14 47 -429 39 -452 -4 -8 -2 -15 3 -15 6 0 10 -20 10 -45 0 -24 7 -120 15 -212 9 -92 14 -182 12 -200 -3 -18 -1 -34 3 -35 4 -2 11 -47 15 -100 l7 -97 -34 -6 c-18 -3 -80 -4 -138 -3 l-105 3 0 37 c0 20 -3 34 -7 31 -5 -2 -8 8 -8 24 0 15 -9 134 -20 263 -28 328 -59 685 -70 815 -5 61 -19 220 -30 355 -11 135 -27 317 -35 405 -43 464 -78 914 -71 930 3 8 1 17 -4 20 -6 4 -10 15 -10 26 0 11 5 17 10 14 6 -3 10 4 10 17 0 18 -2 20 -10 8 -6 -9 -10 -10 -10 -3 0 17 19 27 80 39 83 17 166 17 183 -1z m-1355 -196 c-1 -26 0 -45 5 -42 4 2 7 -26 7 -62 0 -36 -4 -64 -8 -61 -5 3 -9 -8 -9 -24 0 -17 4 -30 9 -30 5 0 7 4 4 8 -2 4 -1 14 5 22 6 11 9 5 9 -20 0 -19 5 -82 10 -140 34 -376 51 -594 46 -607 -4 -9 -2 -21 3 -27 4 -6 11 -47 14 -91 3 -44 18 -222 32 -395 15 -173 28 -356 29 -406 0 -51 4 -90 9 -87 4 2 7 -17 7 -44 0 -26 4 -86 10 -133 10 -89 50 -549 53 -610 l2 -35 -447 -2 c-247 -2 -448 0 -448 5 0 22 74 331 79 327 3 -1 6 11 6 28 1 18 18 106 39 197 43 184 81 356 286 1265 77 347 145 644 150 660 5 17 23 98 41 182 18 84 36 150 40 147 5 -3 6 2 3 11 -3 8 -3 27 2 43 l8 27 4 -29 c2 -16 2 -51 0 -77z m3660 -2171 c-6 -16 -14 -28 -20 -28 -5 0 -7 -3 -4 -8 2 -4 -2 -34 -10 -67 -7 -33 -14 -110 -14 -171 0 -60 -4 -114 -8 -120 -5 -5 -6 -20 -1 -34 7 -25 7 -24 9 5 1 23 5 17 16 -28 8 -33 11 -64 7 -70 -3 -5 -2 -7 4 -4 5 3 17 -10 26 -29 13 -26 14 -36 4 -39 -6 -3 -309 -4 -672 -2 -624 2 -662 3 -705 21 -110 47 -182 146 -195 269 -12 120 49 241 149 295 65 34 127 37 778 37 l645 0 -9 -27z m-4873 -828 c-16 -7 -11 -9 20 -9 31 0 36 2 20 9 -11 5 257 9 628 9 425 1 647 -2 647 -9 0 -5 5 -10 11 -10 5 0 7 5 4 10 -4 7 156 10 472 9 276 0 470 -4 458 -9 -13 -6 3 -8 50 -8 69 1 69 1 20 8 -27 4 670 7 1550 7 880 0 1587 -3 1570 -7 -30 -8 -18 -13 28 -13 21 0 21 -5 1 -75 -14 -48 -18 -54 -26 -37 -7 16 -7 15 -3 -6 5 -27 -32 -110 -62 -139 -9 -8 -13 -9 -9 -2 4 6 2 12 -4 12 -6 0 -9 -8 -6 -18 4 -12 -4 -28 -24 -47 -16 -16 -30 -25 -30 -21 0 5 -7 3 -15 -4 -8 -7 -13 -16 -10 -20 16 -25 -172 -134 -295 -171 l-75 -23 -2265 -4 c-2137 -3 -2470 -1 -2441 18 9 5 6 9 -8 13 -12 3 -19 1 -15 -4 8 -13 -13 -11 -73 8 -36 11 -49 19 -41 26 9 5 6 6 -8 3 -25 -7 -150 57 -146 74 1 7 -3 10 -10 7 -30 -10 -199 167 -183 193 4 6 1 9 -6 8 -14 -3 -73 123 -87 190 l-10 42 197 -1 c119 0 188 -4 176 -9z"/>
</g>
</svg>
