<?xml version="1.0" standalone="no"?>
<!DOCTYPE svg PUBLIC "-//W3C//DTD SVG 20010904//EN"
 "http://www.w3.org/TR/2001/REC-SVG-20010904/DTD/svg10.dtd">
<svg version="1.0" xmlns="http://www.w3.org/2000/svg"
 width="1024.000000pt" height="1024.000000pt" viewBox="0 0 1024.000000 1024.000000"
 preserveAspectRatio="xMidYMid meet">
<metadata>
Created by potrace 1.16, written by Peter Selinger 2001-2019
</metadata>
<g transform="translate(0.000000,1024.000000) scale(0.100000,-0.100000)"
fill="#000000" stroke="none">
<path d="M6664 8625 c-12 -8 -24 -12 -26 -10 -7 7 -57 -109 -65 -149 -2 -11
-8 -25 -14 -33 -6 -7 -9 -13 -6 -13 3 0 -7 -30 -22 -67 -16 -38 -33 -67 -39
-66 -6 2 -9 -4 -5 -12 3 -9 -8 -44 -25 -78 -17 -34 -58 -118 -91 -187 -78
-160 -136 -267 -157 -288 -9 -9 -23 -31 -30 -48 -8 -18 -24 -44 -36 -57 -13
-14 -30 -35 -38 -48 -25 -37 -187 -199 -199 -199 -7 0 -21 -9 -33 -19 -11 -11
-50 -34 -87 -52 -36 -17 -82 -40 -102 -50 -20 -10 -45 -20 -55 -22 -10 -2 -29
-8 -41 -15 -12 -7 -30 -13 -40 -15 -38 -8 -78 -21 -102 -33 -14 -8 -33 -14
-42 -14 -9 0 -33 -7 -53 -15 -20 -8 -36 -12 -36 -9 0 4 -7 1 -15 -6 -8 -7 -15
-9 -15 -6 0 4 -8 2 -18 -3 -13 -7 -23 -6 -32 2 -9 9 -11 9 -6 0 6 -11 -12 -20
-53 -28 -9 -2 -18 -4 -21 -5 -3 -1 -9 -3 -15 -4 -8 -1 -43 -12 -105 -31 -3 -1
-12 -4 -20 -7 -42 -16 -84 -28 -88 -24 -2 3 -16 0 -31 -6 -14 -5 -35 -12 -46
-14 -29 -7 -38 -10 -57 -18 -9 -4 -25 -9 -35 -11 -10 -2 -19 -4 -20 -5 -2 -2
-7 -4 -13 -5 -5 -1 -12 -4 -15 -5 -3 -1 -8 -3 -12 -4 -35 -8 -111 -39 -155
-62 -14 -8 -33 -14 -42 -14 -9 0 -16 -4 -16 -8 0 -5 -24 -19 -52 -33 -29 -13
-54 -27 -56 -31 -2 -5 -9 -8 -16 -8 -7 0 -21 -8 -32 -18 -46 -42 -81 -61 -104
-55 -16 4 -21 3 -16 -6 4 -6 12 -9 17 -6 5 4 9 2 9 -3 0 -6 -16 -19 -35 -31
-19 -11 -35 -25 -35 -31 0 -6 -5 -8 -12 -4 -6 4 -8 3 -5 -3 8 -13 -37 -56 -48
-46 -4 5 -6 3 -2 -2 3 -6 -12 -28 -34 -50 -21 -21 -39 -42 -39 -47 0 -5 -8 -8
-17 -6 -12 2 -17 -3 -15 -15 3 -15 -33 -61 -162 -212 -14 -16 -38 -45 -53 -64
-49 -60 -73 -82 -83 -76 -5 3 -7 12 -4 19 3 8 1 16 -3 19 -5 3 -9 -3 -10 -13
-1 -11 2 -22 8 -25 5 -4 9 -11 9 -16 0 -6 -5 -7 -12 -3 -6 4 -8 3 -4 -4 3 -6
-13 -32 -36 -59 -23 -26 -49 -57 -57 -67 -36 -43 -52 -56 -63 -50 -6 4 -8 3
-5 -3 7 -11 -28 -63 -85 -125 -18 -20 -44 -51 -58 -69 -14 -18 -44 -54 -68
-79 -23 -26 -42 -51 -42 -57 0 -5 -12 -21 -28 -36 l-27 -26 -43 39 c-24 22
-45 40 -48 40 -7 0 -88 64 -92 73 -2 4 -10 7 -17 7 -7 0 -15 3 -17 8 -1 4 -28
20 -58 36 -30 16 -67 37 -82 48 -14 10 -30 18 -36 18 -5 0 -40 14 -78 31 -38
17 -69 30 -70 28 0 -2 -8 2 -17 10 -10 7 -17 10 -17 6 0 -4 -6 -2 -14 4 -8 6
-33 15 -57 20 -29 5 -43 12 -41 21 3 11 0 11 -12 0 -11 -8 -20 -9 -29 -3 -6 6
-19 11 -27 11 -35 2 -103 14 -124 21 -21 9 -183 14 -331 13 -68 -1 -154 -8
-205 -17 -14 -3 -36 -7 -50 -9 -14 -3 -47 -10 -75 -16 -27 -6 -58 -12 -67 -14
-10 -1 -21 -5 -24 -9 -4 -4 -19 -7 -34 -7 -15 0 -30 -3 -34 -7 -3 -4 -14 -8
-23 -9 -10 -2 -26 -7 -38 -13 -18 -10 -137 -55 -160 -61 -5 -2 -23 -8 -40 -14
-16 -5 -33 -9 -37 -8 -5 1 -8 -2 -8 -7 0 -5 -12 -12 -28 -16 -15 -3 -60 -22
-101 -41 -44 -21 -82 -33 -95 -29 -11 2 -15 2 -8 -1 9 -4 6 -10 -8 -22 -11
-10 -23 -33 -26 -52 -10 -62 29 -93 131 -107 17 -2 41 -6 55 -9 14 -3 26 -6
27 -5 2 0 17 -5 35 -10 31 -9 49 -14 88 -24 8 -2 15 -4 15 -5 0 -1 11 -3 24
-6 14 -2 29 -8 35 -12 6 -5 32 -16 59 -26 26 -10 47 -21 47 -26 0 -4 10 -10
22 -14 13 -3 39 -19 58 -36 19 -16 27 -27 17 -24 -9 3 -17 1 -17 -4 0 -6 10
-9 22 -7 13 3 29 -4 43 -18 47 -49 115 -135 115 -145 0 -6 3 -12 8 -14 14 -6
61 -108 51 -113 -5 -4 -9 -11 -9 -16 0 -6 4 -8 9 -4 14 8 41 -35 41 -66 0 -14
3 -29 7 -33 8 -8 14 -32 17 -63 0 -13 3 -23 6 -23 3 0 7 -14 8 -31 1 -17 7
-40 13 -50 5 -11 8 -23 6 -27 -3 -4 -1 -29 4 -57 4 -27 11 -90 14 -140 3 -49
8 -106 11 -125 3 -19 8 -62 10 -95 8 -97 14 -188 14 -210 0 -11 5 -34 11 -52
7 -23 7 -38 -1 -54 -7 -12 -8 -19 -2 -15 15 9 33 -85 20 -102 -9 -10 -8 -12 3
-10 8 2 14 -4 15 -12 0 -8 6 -27 12 -41 9 -22 32 -98 37 -119 0 -3 6 -15 13
-27 7 -13 10 -23 7 -23 -3 0 2 -14 10 -30 9 -17 13 -36 9 -42 -4 -6 -3 -8 3
-5 13 8 26 -20 16 -35 -3 -7 -1 -8 6 -4 8 6 10 0 5 -18 -4 -16 -2 -26 5 -26 6
0 8 8 4 18 -6 15 -5 15 10 3 9 -7 17 -18 17 -23 0 -5 11 -20 25 -34 14 -14 25
-29 25 -35 0 -12 176 -188 209 -209 13 -8 29 -20 36 -27 7 -7 28 -21 46 -31
19 -10 34 -24 34 -30 0 -5 4 -14 9 -19 5 -5 6 -2 1 6 -6 10 -2 11 16 6 13 -4
26 -10 29 -14 5 -6 78 -42 83 -40 1 1 20 -8 42 -20 22 -11 45 -21 51 -21 6 0
24 -6 40 -14 16 -8 49 -18 74 -21 25 -4 50 -10 55 -15 6 -5 32 -11 58 -14 27
-3 52 -8 56 -11 19 -11 161 -18 361 -18 246 1 372 7 392 19 7 5 45 12 83 16
39 4 81 9 95 12 14 2 43 7 65 10 22 3 62 9 90 15 27 5 53 7 58 4 4 -2 14 0 21
6 7 6 29 11 47 11 19 -1 87 2 151 4 65 3 148 1 185 -4 37 -5 85 -12 107 -14
21 -3 44 -10 51 -16 6 -5 15 -7 18 -4 3 3 12 2 19 -2 7 -5 18 -9 23 -9 6 -1 9
-5 8 -11 -1 -5 10 -9 25 -8 37 1 124 -34 145 -59 10 -12 16 -16 12 -10 -4 8 0
13 10 13 8 0 20 -10 25 -23 5 -12 9 -16 9 -9 1 9 10 9 38 -3 21 -9 40 -19 43
-24 3 -4 30 -21 60 -37 30 -16 60 -34 65 -40 6 -6 31 -23 58 -38 26 -15 47
-32 47 -38 0 -6 3 -9 6 -6 3 4 14 -1 23 -10 10 -9 27 -23 39 -31 11 -8 19 -18
16 -23 -3 -4 2 -5 10 -2 16 6 19 -1 19 -39 0 -13 3 -15 13 -6 17 14 58 -7 50
-26 -3 -9 0 -12 10 -8 7 3 14 0 14 -6 0 -6 6 -11 13 -11 13 0 257 -237 340
-330 26 -30 45 -60 43 -67 -3 -8 -2 -12 3 -9 10 7 43 -28 36 -37 -3 -4 -2 -5
1 -3 5 4 41 -34 98 -106 49 -62 116 -173 111 -185 -2 -8 0 -11 5 -8 5 3 15 -5
22 -19 6 -14 14 -26 18 -26 4 0 10 -10 13 -22 4 -12 9 -19 12 -16 4 3 18 0 32
-7 14 -7 32 -11 39 -8 8 3 14 -1 14 -8 0 -9 3 -9 13 2 6 9 49 28 95 42 45 15
102 36 127 47 24 11 47 20 51 20 4 0 36 12 72 26 35 14 70 23 78 20 8 -3 13
-2 10 3 -3 5 45 34 107 66 145 73 189 97 205 112 7 7 19 13 27 13 7 0 15 4 17
8 2 4 20 18 41 31 30 19 40 21 52 11 11 -9 15 -9 15 -1 0 6 -6 11 -12 11 -7 0
-4 7 7 16 11 8 25 12 33 9 7 -2 10 -1 7 5 -3 5 17 24 45 42 27 18 50 36 50 40
0 5 5 8 10 8 11 0 107 75 176 138 186 169 232 212 263 247 20 21 59 64 86 93
28 30 57 62 65 71 8 9 33 40 55 69 21 28 43 52 47 52 4 0 8 6 8 13 0 6 15 28
33 49 17 20 60 76 94 125 55 79 74 104 113 150 5 7 10 17 10 23 0 5 5 10 10
10 6 0 10 4 10 10 0 13 62 100 72 100 4 0 8 7 8 15 0 9 6 18 14 21 8 3 20 19
26 35 7 16 18 33 24 37 6 4 28 33 49 64 21 31 49 68 62 82 13 14 28 32 32 40
39 68 341 366 371 366 6 0 12 4 14 8 3 9 93 72 103 72 3 0 51 29 105 65 85 55
100 69 109 101 8 28 7 43 -4 65 -18 34 -19 43 -3 33 7 -4 8 -3 4 5 -4 6 -11 9
-16 6 -5 -3 -20 18 -34 46 -14 28 -41 74 -60 102 -19 29 -42 68 -53 88 -29 58
-101 183 -111 195 -6 6 -20 31 -32 55 -13 24 -32 57 -44 74 -11 16 -29 45 -39
63 -10 19 -27 43 -38 55 -10 11 -25 33 -31 49 -7 15 -16 28 -20 28 -5 0 -8 6
-8 13 0 8 -9 22 -20 32 -11 10 -20 24 -20 32 0 7 -4 13 -8 13 -5 0 -15 12 -23
28 -8 15 -22 36 -31 46 -10 11 -30 38 -45 60 -15 23 -30 43 -33 46 -3 3 -18
21 -33 40 -43 53 -108 128 -145 167 -18 18 -30 38 -27 44 4 5 3 8 -2 7 -12 -3
-52 20 -99 58 -22 19 -67 45 -100 59 -32 15 -66 30 -74 34 -25 13 -228 -1
-255 -17 -5 -4 -14 -7 -20 -8 -5 -1 -47 -16 -92 -33 -46 -17 -83 -28 -83 -26
0 3 -12 -3 -27 -12 -15 -10 -30 -17 -33 -17 -3 1 -16 -3 -30 -8 -14 -6 -29
-11 -35 -12 -5 -2 -32 -13 -60 -26 -27 -12 -56 -23 -62 -23 -7 0 -13 -3 -13
-7 0 -7 -71 -35 -82 -32 -5 1 -8 -3 -8 -9 0 -8 -11 -9 -32 -5 -18 3 -27 2 -21
-2 17 -11 -151 -87 -168 -76 -8 5 -9 3 -5 -5 5 -8 0 -14 -13 -18 -12 -3 -21
-9 -21 -14 0 -5 -3 -8 -7 -7 -5 1 -37 -14 -73 -34 -36 -20 -75 -39 -87 -43
-13 -3 -23 -10 -23 -15 0 -8 -21 -18 -45 -21 -5 -1 -23 -12 -38 -25 -16 -13
-34 -24 -41 -24 -7 0 -30 -13 -53 -30 -22 -16 -43 -27 -47 -23 -3 3 -6 2 -6
-4 0 -5 -33 -27 -72 -48 -40 -21 -75 -41 -78 -45 -3 -4 -19 -16 -36 -26 -16
-11 -62 -40 -101 -66 -39 -27 -76 -48 -82 -48 -6 0 -11 -4 -11 -10 0 -5 -7
-10 -15 -10 -8 0 -15 -4 -15 -10 0 -5 -7 -10 -15 -10 -8 0 -15 -4 -15 -10 0
-5 -4 -10 -9 -10 -6 0 -22 -11 -37 -25 -14 -13 -30 -22 -35 -19 -5 3 -9 1 -9
-3 0 -5 -15 -17 -32 -28 -18 -10 -49 -31 -68 -47 -19 -15 -40 -28 -47 -28 -7
0 -13 -4 -13 -8 0 -5 -24 -24 -52 -42 -29 -18 -62 -39 -73 -46 -125 -85 -161
-108 -167 -106 -5 1 -8 -3 -8 -8 0 -6 -12 -16 -27 -23 -16 -6 -36 -19 -46 -27
-35 -30 -139 -85 -267 -143 -47 -20 -173 -56 -225 -62 -80 -10 -233 -13 -260
-5 -16 5 -59 16 -95 25 -36 9 -72 17 -80 19 -8 2 -27 11 -42 19 l-28 14 28 14
c15 8 29 16 32 19 6 7 125 82 168 106 17 10 32 22 32 26 0 4 7 8 15 8 8 0 15
5 15 10 0 6 5 10 10 10 6 0 23 11 38 25 15 14 32 25 38 25 7 0 14 7 18 15 3 8
12 15 21 15 8 0 15 4 15 8 0 4 13 16 30 25 23 14 34 16 52 7 23 -11 23 -11 3
6 -13 10 -16 18 -8 21 6 2 24 15 40 29 15 13 32 24 36 24 4 0 13 4 20 10 54
44 76 60 82 60 3 0 21 11 38 24 36 27 214 118 257 131 3 1 12 5 20 8 8 3 58
20 110 37 52 18 104 35 115 40 40 15 120 40 142 44 19 4 105 32 163 54 8 3 18
6 23 7 4 2 9 4 12 5 3 1 8 3 13 5 4 1 15 5 24 9 9 4 22 9 30 10 13 3 22 7 99
39 28 11 40 12 49 4 8 -9 10 -8 5 4 -5 12 1 18 21 23 30 8 111 43 179 78 22
11 58 30 79 40 22 11 46 26 54 34 7 8 19 14 27 14 7 0 15 4 17 8 6 15 80 52
90 46 6 -4 8 -2 4 4 -3 6 13 24 39 41 75 51 263 231 330 316 21 28 42 54 47
59 4 5 15 3 25 -5 16 -13 17 -12 5 3 -12 14 -11 22 4 48 10 16 22 30 26 30 4
0 8 7 8 15 0 8 5 15 10 15 6 0 10 7 10 15 0 8 5 15 10 15 6 0 10 6 10 13 0 8
14 33 30 55 17 23 27 42 23 42 -5 0 -3 4 2 8 17 12 198 373 195 388 -1 4 3 10
8 13 12 8 54 91 46 91 -3 0 3 15 14 33 12 17 21 34 21 37 0 10 21 60 57 137
20 43 52 114 71 158 84 195 85 197 96 183 6 -9 7 -7 3 5 -7 22 32 119 45 111
5 -3 6 2 3 11 -3 8 4 36 16 63 12 26 28 63 35 82 12 32 47 115 64 150 4 8 18
47 30 86 21 66 21 74 8 107 -13 29 -22 37 -51 43 -46 8 -81 -1 -109 -29 -12
-12 -26 -21 -31 -19 -5 2 -4 -3 2 -10 8 -10 7 -21 -3 -43 -17 -38 -27 -67 -31
-83 -1 -6 -12 -33 -24 -60 -12 -26 -25 -56 -30 -67 -4 -11 -19 -45 -33 -75
-30 -65 -60 -133 -61 -140 -1 -3 -8 -16 -16 -30 -7 -14 -12 -25 -10 -25 4 0
-26 -68 -56 -128 -8 -16 -14 -33 -14 -38 0 -5 -18 -46 -39 -91 -22 -46 -46
-101 -56 -123 -12 -31 -18 -36 -25 -25 -6 9 -10 10 -10 3 0 -6 4 -14 9 -18 5
-3 -5 -38 -23 -78 -26 -56 -38 -71 -52 -69 -13 2 -15 0 -6 -6 15 -10 3 -51
-40 -129 -15 -28 -28 -58 -28 -66 0 -8 -7 -20 -15 -27 -8 -7 -13 -16 -10 -20
7 -11 -31 -51 -41 -42 -4 4 -2 -1 5 -10 10 -13 10 -18 2 -18 -7 0 -10 -4 -7
-9 3 -5 -2 -19 -12 -32 -9 -13 -26 -41 -36 -61 -10 -21 -23 -35 -28 -32 -5 3
-8 2 -7 -3 3 -19 -2 -34 -10 -29 -5 4 -7 -2 -4 -12 2 -11 -3 -26 -11 -35 -9
-8 -16 -18 -16 -22 0 -33 -214 -305 -277 -352 -21 -15 -53 -43 -71 -61 -29
-28 -60 -52 -130 -97 -9 -5 -25 -18 -36 -27 -11 -10 -26 -18 -33 -18 -7 0 -13
-4 -13 -8 0 -7 -61 -43 -80 -47 -3 0 -21 -11 -40 -23 -33 -21 -234 -112 -255
-116 -5 -1 -20 -8 -32 -14 -13 -7 -23 -10 -23 -7 0 3 -10 -1 -22 -9 -16 -12
-25 -13 -35 -4 -11 9 -13 8 -11 -2 2 -8 -3 -15 -9 -16 -7 -1 -15 -3 -18 -4 -3
-1 -8 -3 -12 -5 -5 -1 -15 -5 -23 -8 -40 -17 -100 -35 -100 -30 0 3 -7 0 -15
-7 -8 -7 -15 -9 -15 -5 0 4 -6 3 -13 -3 -7 -6 -24 -13 -39 -16 -14 -2 -35 -9
-45 -15 -11 -5 -33 -12 -49 -15 -16 -2 -30 -5 -31 -6 -2 -2 -6 -3 -10 -4 -5
-1 -14 -5 -20 -9 -7 -5 -13 -5 -13 -2 0 3 -10 -1 -22 -9 -12 -9 -29 -16 -38
-16 -18 0 -193 -65 -232 -86 -15 -8 -29 -14 -30 -13 -8 5 -48 -14 -48 -22 0
-6 -4 -7 -10 -4 -5 3 -10 1 -10 -5 0 -6 -4 -9 -9 -6 -5 4 -11 3 -13 -2 -1 -4
-25 -21 -53 -36 -27 -16 -83 -51 -123 -78 -40 -26 -74 -48 -77 -48 -2 0 -15
-10 -29 -23 -13 -12 -37 -29 -53 -37 -15 -8 -33 -19 -40 -25 -34 -29 -73 -56
-77 -53 -3 2 -11 -4 -18 -13 -15 -20 -154 -119 -166 -119 -5 0 -18 -9 -30 -20
-11 -11 -58 -43 -104 -72 -46 -29 -92 -59 -103 -66 -11 -7 -28 -15 -37 -18
-10 -4 -18 -10 -18 -14 0 -5 -10 -12 -22 -16 -13 -4 -25 -10 -28 -14 -5 -7
-127 -71 -132 -69 -2 0 -15 -5 -30 -12 -22 -10 -31 -9 -45 2 -10 9 -14 9 -10
2 10 -17 -41 -29 -56 -14 -8 8 -3 11 19 12 24 1 25 2 6 6 -13 3 -30 -1 -38 -8
-22 -18 -66 18 -76 62 -9 40 9 122 25 112 5 -3 7 -1 4 4 -7 12 31 106 44 111
5 2 9 10 9 18 0 8 5 14 10 14 6 0 10 7 10 15 0 8 5 15 10 15 6 0 10 5 10 11 0
6 12 26 28 44 15 18 38 47 52 66 28 37 154 165 215 219 65 57 197 141 212 136
8 -3 11 -1 8 4 -6 10 95 80 115 80 5 0 10 4 10 9 0 5 18 17 40 27 22 10 40 21
40 25 0 4 8 10 18 13 10 4 27 14 38 24 10 10 35 28 54 42 19 13 37 27 40 30 3
3 25 21 50 40 25 19 56 45 69 57 14 12 29 19 34 16 6 -3 7 -2 4 4 -3 5 24 45
60 88 36 43 81 102 100 132 20 29 40 50 46 46 5 -3 7 -1 3 5 -3 6 10 38 30 71
45 75 48 118 11 155 -30 30 -59 33 -111 11 -20 -8 -36 -12 -36 -9 0 4 -6 2
-12 -4 -7 -5 -47 -17 -88 -27 -41 -10 -82 -21 -90 -25 -13 -6 -70 -22 -90 -25
-3 0 -10 -3 -15 -7 -6 -3 -29 -9 -52 -13 -24 -3 -55 -12 -70 -20 -15 -8 -36
-15 -46 -15 -10 0 -31 -7 -47 -15 -17 -9 -30 -13 -30 -11 0 3 -12 -1 -27 -9
-15 -8 -30 -12 -35 -9 -4 3 -8 0 -8 -5 0 -6 -8 -11 -17 -11 -10 0 -40 -11 -68
-24 -27 -14 -53 -22 -57 -20 -5 3 -8 0 -8 -5 0 -6 -9 -11 -20 -11 -11 0 -20
-3 -20 -8 0 -4 -30 -23 -67 -41 -38 -19 -80 -44 -94 -55 -14 -12 -36 -28 -48
-36 -13 -8 -35 -26 -51 -40 -75 -68 -135 -115 -142 -113 -4 2 -7 0 -7 -5 4
-22 -6 -37 -53 -86 -76 -77 -236 -259 -372 -424 -21 -26 -43 -46 -48 -44 -5 1
-7 -1 -4 -6 7 -12 -44 -73 -55 -66 -5 3 -6 -1 -3 -9 5 -15 -12 -43 -84 -138
-23 -31 -42 -61 -42 -67 0 -7 -4 -12 -10 -12 -5 0 -10 -5 -10 -11 0 -6 -15
-29 -33 -52 -19 -23 -37 -50 -40 -59 -4 -10 -11 -18 -17 -18 -5 0 -10 -4 -10
-10 0 -17 -43 -60 -53 -53 -6 3 -7 1 -3 -6 5 -7 -4 -28 -20 -49 -16 -20 -32
-41 -36 -47 -17 -23 -174 -201 -192 -217 -10 -10 -23 -15 -29 -11 -5 3 -7 2
-4 -4 8 -13 -107 -111 -139 -119 -13 -3 -24 -10 -24 -16 0 -5 -4 -6 -10 -3 -5
3 -10 1 -10 -6 0 -7 -10 -9 -25 -7 -13 3 -22 1 -19 -3 7 -11 -62 -23 -78 -13
-7 5 -18 9 -24 10 -23 4 -63 37 -70 57 -10 30 -13 80 -6 92 4 6 7 15 8 22 1 7
12 26 23 42 12 16 21 32 21 36 0 4 10 21 23 38 27 38 32 47 79 134 20 37 51
95 70 128 19 33 37 69 42 80 6 16 9 17 17 5 8 -12 9 -11 5 6 -4 11 1 29 9 40
8 10 15 27 15 37 0 9 4 17 9 17 5 0 13 10 17 23 9 30 40 68 48 59 4 -3 4 1 1
10 -7 17 8 53 32 76 7 7 13 20 13 28 0 11 6 14 23 9 15 -4 18 -3 8 3 -11 8 -9
17 8 53 34 71 50 94 62 91 6 -1 8 1 6 5 -3 5 12 40 34 78 22 39 42 78 45 88 4
9 10 17 15 17 5 0 9 5 9 10 0 14 148 231 171 252 10 9 19 21 19 27 0 5 8 16
18 23 10 7 21 21 25 32 4 10 13 16 22 13 9 -4 12 -1 9 8 -3 8 12 32 35 56 23
24 41 46 41 49 0 4 11 13 25 20 14 7 25 20 25 28 0 8 12 26 28 41 15 16 41 45
57 66 17 21 46 56 67 79 20 23 55 64 79 91 23 28 63 72 88 98 25 26 52 59 59
73 8 15 19 23 28 20 7 -3 13 -2 12 2 -3 12 13 52 21 52 5 0 20 17 33 38 14 21
42 54 62 75 20 21 36 41 36 44 0 11 169 173 180 173 6 0 10 4 10 9 0 15 109
83 220 137 30 14 63 30 72 35 10 5 22 9 27 9 5 0 22 5 38 11 15 6 29 10 31 10
1 -1 15 5 31 14 16 8 48 19 72 25 69 17 72 18 101 29 21 8 27 7 32 -5 3 -8 11
-14 18 -14 9 0 9 3 -2 10 -13 9 -13 11 0 20 8 5 22 10 31 10 9 0 41 7 70 16
168 49 224 64 264 71 11 1 29 7 40 12 19 9 59 20 99 28 11 2 25 8 33 14 7 6
13 9 13 6 0 -4 38 7 84 23 46 17 90 28 98 27 7 -2 10 -2 6 0 -5 3 -8 9 -8 14
0 5 3 8 8 7 4 0 25 7 47 17 22 9 49 21 60 26 11 5 29 15 40 21 11 7 49 32 86
55 80 50 104 70 183 149 57 58 72 75 128 149 12 17 31 39 40 49 10 11 18 26
18 33 0 7 5 13 10 13 6 0 10 5 10 12 0 6 6 19 14 27 8 9 26 41 42 71 15 30 30
57 33 60 4 3 18 28 32 55 14 28 32 49 38 47 7 -1 10 2 7 7 -6 10 63 172 79
183 5 4 6 8 2 8 -4 0 8 33 28 73 44 86 74 154 79 177 4 14 42 108 53 130 7 14
13 35 13 47 0 12 5 25 10 28 23 14 10 67 -24 101 -37 37 -69 43 -102 19z
m-1483 -2852 c-17 -32 -113 -123 -122 -117 -5 3 -9 2 -8 -3 4 -16 -13 -43 -27
-43 -8 0 -14 -5 -14 -11 0 -6 -7 -9 -15 -5 -8 3 -14 2 -13 -2 3 -15 -15 -42
-27 -42 -7 0 -15 -7 -19 -15 -3 -8 -12 -15 -20 -15 -7 0 -16 -7 -20 -15 -3 -8
-12 -15 -20 -15 -8 0 -16 -6 -19 -12 -3 -10 -8 -9 -23 2 -17 14 -18 14 -6 -2
11 -14 8 -20 -30 -45 -24 -17 -50 -33 -58 -36 -18 -8 -53 -30 -60 -38 -10 -11
-111 -69 -120 -69 -6 0 -10 -4 -10 -10 0 -5 -7 -10 -15 -10 -8 0 -15 -4 -15
-10 0 -5 -7 -10 -15 -10 -8 0 -15 -4 -15 -10 0 -5 -7 -10 -15 -10 -8 0 -15 -4
-15 -10 0 -5 -6 -10 -14 -10 -8 0 -17 -8 -20 -17 -5 -12 -9 -14 -18 -5 -7 7
-17 12 -22 12 -6 0 -4 -5 4 -10 13 -9 12 -12 -5 -25 -57 -42 -204 -182 -236
-225 -15 -19 -35 -44 -46 -55 -10 -11 -29 -37 -42 -58 l-24 -38 -69 70 c-38
39 -69 74 -68 78 0 4 17 27 37 51 30 36 38 40 52 30 14 -11 14 -11 3 4 -11 14
-8 22 20 54 113 128 296 316 351 359 21 17 52 42 70 58 29 24 47 32 70 28 5
-1 6 2 3 7 -7 11 86 67 144 87 25 8 54 19 65 24 23 10 88 35 95 37 3 0 12 4
20 7 53 22 68 25 79 14 7 -7 11 -7 9 -2 -2 6 0 10 3 10 3 0 12 5 20 12 8 6 30
14 49 17 20 3 52 12 73 21 20 8 37 12 37 9 0 -4 7 -1 15 6 8 6 18 10 22 7 4
-2 17 -1 28 4 11 4 21 8 23 8 1 1 -2 -7 -7 -16z m-3045 -5 c4 -4 12 -3 19 2 8
6 37 6 86 -1 41 -5 81 -10 89 -11 40 -1 90 -20 84 -31 -5 -9 -4 -9 6 0 8 7 21
8 34 3 11 -4 26 -8 31 -9 6 -1 26 -6 45 -11 19 -5 38 -9 43 -10 4 0 22 -7 40
-17 17 -9 35 -18 40 -19 4 -1 8 -2 10 -4 1 -1 9 -3 17 -5 33 -7 165 -83 163
-93 -2 -6 4 -9 12 -6 11 5 145 -79 145 -91 0 -2 -10 -1 -22 2 -13 3 -20 3 -17
-1 3 -3 19 -8 36 -10 40 -4 103 -53 103 -79 0 -11 -11 -35 -25 -53 -14 -18
-25 -37 -25 -43 0 -6 -4 -11 -10 -11 -5 0 -10 -5 -10 -11 0 -7 -15 -35 -34
-63 -18 -28 -71 -123 -116 -211 -46 -88 -86 -162 -91 -165 -5 -3 -18 -26 -30
-50 -11 -25 -29 -58 -38 -75 -34 -60 -64 -120 -62 -124 2 -2 -1 -7 -6 -10 -5
-3 -22 -32 -37 -63 -16 -33 -33 -55 -39 -51 -6 3 -7 1 -3 -5 7 -11 -19 -72
-34 -82 -4 -3 -22 -32 -40 -65 -18 -33 -37 -67 -44 -75 -12 -15 -38 -70 -52
-105 -22 -61 -21 -162 4 -218 11 -25 17 -49 14 -53 -4 -4 -2 -4 4 -1 7 4 23
-8 37 -26 24 -31 84 -68 137 -83 26 -7 164 -9 190 -2 73 20 160 58 160 70 0 4
7 8 15 8 8 0 15 5 15 10 0 6 5 10 10 10 14 0 39 22 164 145 61 60 115 108 119
107 5 -1 6 2 3 7 -6 9 88 143 105 149 5 2 9 9 9 16 0 6 8 19 18 28 27 26 42
46 42 58 0 5 5 10 10 10 6 0 10 7 10 15 0 7 6 18 14 22 7 4 26 28 41 53 15 25
31 47 35 50 3 3 24 32 45 65 22 33 42 62 46 65 3 3 13 19 22 35 8 17 25 40 36
52 12 13 21 25 21 28 -2 15 38 57 49 51 6 -4 9 -12 6 -17 -3 -5 0 -7 7 -4 16
6 71 -42 63 -55 -3 -6 0 -7 7 -5 7 3 28 -10 46 -29 32 -34 41 -56 22 -56 -6 0
-9 -3 -8 -7 1 -5 -5 -21 -12 -38 -7 -16 -14 -32 -15 -35 -1 -3 -7 -18 -13 -33
-7 -16 -12 -37 -12 -47 0 -14 -5 -18 -17 -14 -13 4 -14 3 -5 -3 13 -10 29 -83
18 -83 -4 0 -11 10 -15 23 -7 17 -8 12 -6 -21 3 -44 15 -71 15 -36 1 10 15 -8
32 -41 17 -33 39 -68 49 -78 11 -10 17 -22 14 -27 -3 -6 0 -7 8 -4 9 3 22 -4
31 -18 10 -15 16 -17 16 -8 0 11 3 11 8 3 13 -20 99 -36 175 -31 69 4 97 13
197 61 96 47 100 47 143 16 22 -16 48 -29 59 -29 10 0 18 -4 18 -8 0 -10 125
-56 160 -59 14 -1 36 -5 50 -9 56 -16 184 -20 325 -10 86 5 256 47 283 68 6 6
12 8 12 4 0 -7 246 118 269 137 9 7 33 22 54 32 20 11 37 23 37 27 0 4 16 15
35 24 19 9 35 20 35 25 0 5 4 9 10 9 11 0 103 62 108 73 2 4 10 7 18 7 8 0 14
5 14 10 0 14 27 13 36 -2 5 -8 1 -9 -12 -4 -15 6 -17 5 -6 -5 10 -11 14 -10
25 0 10 11 10 14 0 18 -18 6 -16 23 1 23 8 0 16 4 18 8 8 20 157 114 170 106
7 -4 10 -4 6 1 -8 9 15 35 31 35 6 0 11 5 11 10 0 6 7 10 15 10 8 0 15 5 15
10 0 6 6 10 14 10 8 0 16 4 18 8 4 12 94 72 107 72 5 0 14 6 18 13 10 15 89
67 103 67 5 0 10 4 10 8 0 5 18 17 40 27 22 10 40 22 40 26 0 4 10 11 22 15
12 3 28 13 36 20 7 8 20 14 28 14 8 0 14 3 14 8 0 4 26 21 57 37 32 17 62 34
68 39 33 27 306 156 317 150 6 -4 9 -3 5 2 -5 8 36 32 205 116 21 11 38 16 38
13 0 -4 15 2 34 13 26 15 37 17 46 9 8 -7 10 -7 7 -1 -5 9 41 45 58 45 2 0 22
7 42 16 21 8 43 16 48 17 6 1 32 12 59 24 28 13 56 20 63 17 8 -2 12 -1 9 4
-3 5 16 14 42 21 26 7 53 17 60 23 6 5 12 6 12 3 0 -4 9 -2 21 4 30 17 57 22
125 26 56 3 67 0 110 -29 27 -17 51 -35 52 -39 2 -5 8 -8 14 -8 19 0 149 -134
143 -148 -2 -7 0 -10 5 -7 9 5 23 -7 75 -65 7 -8 15 -22 17 -30 2 -8 10 -21
18 -27 13 -11 13 -12 -2 -7 -10 3 -18 3 -18 0 0 -4 13 -11 28 -17 20 -7 46
-36 85 -97 32 -48 62 -92 67 -99 6 -7 10 -17 10 -23 0 -5 5 -10 10 -10 6 0 10
-6 10 -14 0 -7 7 -19 15 -26 8 -7 15 -20 14 -29 0 -10 -2 -12 -6 -3 -5 13 -23
7 -23 -8 0 -5 11 -7 25 -4 16 3 25 0 25 -9 0 -7 8 -22 18 -33 33 -35 50 -80
39 -100 -9 -17 -9 -18 6 -5 15 12 17 12 11 -4 -5 -12 -4 -16 4 -11 10 6 62
-61 62 -79 0 -3 16 -29 36 -57 19 -29 33 -60 31 -69 -3 -10 0 -16 7 -13 10 4
52 -64 58 -96 2 -8 8 -19 15 -25 16 -13 63 -102 63 -118 0 -13 -60 -57 -78
-57 -7 0 -12 -4 -12 -8 0 -5 -18 -17 -39 -27 -22 -10 -42 -24 -46 -32 -3 -9
-13 -13 -24 -10 -12 3 -18 0 -15 -7 2 -6 -14 -24 -37 -39 -34 -25 -42 -27 -56
-15 -10 7 -14 8 -10 1 4 -6 4 -13 0 -16 -5 -2 -2 -2 6 0 16 4 -13 -35 -37 -50
-19 -12 -212 -213 -231 -240 -8 -12 -20 -27 -26 -33 -5 -7 -21 -27 -35 -44
-14 -18 -33 -41 -42 -51 -10 -11 -18 -24 -18 -29 0 -6 -7 -13 -15 -16 -8 -4
-15 -11 -15 -18 0 -6 -10 -22 -23 -36 -12 -14 -33 -42 -46 -63 -13 -21 -28
-43 -35 -50 -7 -6 -21 -27 -31 -44 -11 -18 -23 -33 -27 -33 -4 0 -8 -6 -8 -12
0 -7 -14 -29 -30 -48 -16 -19 -34 -40 -40 -47 -5 -7 -10 -17 -10 -23 0 -5 -4
-10 -10 -10 -5 0 -10 -5 -10 -11 0 -10 -42 -70 -85 -122 -6 -7 -28 -37 -49
-67 -21 -30 -45 -62 -52 -70 -8 -8 -41 -49 -74 -90 -34 -41 -72 -83 -86 -93
-13 -10 -24 -24 -24 -31 0 -24 -333 -336 -359 -336 -6 0 -11 -4 -11 -8 0 -4
-19 -22 -42 -40 -28 -22 -48 -30 -62 -26 -15 4 -17 3 -7 -4 15 -11 6 -36 -10
-27 -5 4 -9 2 -9 -3 0 -9 -142 -108 -148 -103 -1 1 -10 -5 -18 -14 -14 -14
-113 -74 -179 -109 -95 -50 -235 -116 -244 -116 -6 0 -43 -16 -83 -35 -58 -27
-75 -32 -88 -22 -8 6 -11 7 -7 2 4 -5 -23 -20 -65 -35 l-73 -25 -22 32 c-13
17 -23 37 -23 42 0 6 -4 11 -10 11 -5 0 -10 6 -10 14 0 8 -7 16 -15 20 -8 3
-15 12 -15 21 0 8 -4 15 -10 15 -5 0 -10 6 -10 14 0 8 -7 16 -15 20 -8 3 -15
12 -15 20 0 7 -7 16 -15 20 -8 3 -15 12 -15 20 0 8 -4 16 -9 18 -5 2 -25 23
-45 48 -68 84 -91 110 -125 144 -22 21 -31 38 -26 46 5 8 4 11 -2 7 -14 -9
-227 199 -218 212 3 7 0 8 -9 5 -9 -3 -16 -1 -16 5 0 6 -3 10 -8 8 -6 -2 -28
16 -113 93 -46 42 -80 70 -86 70 -6 0 -76 54 -107 82 -11 10 -28 20 -38 24
-10 3 -18 10 -18 15 0 5 -4 9 -10 9 -13 0 -124 71 -128 82 -2 4 -7 6 -12 3 -5
-3 -14 0 -22 7 -7 7 -35 24 -61 37 -33 17 -44 27 -35 32 8 5 0 7 -19 4 -18 -2
-35 1 -39 6 -3 5 -10 6 -16 3 -8 -5 -9 -1 -4 12 5 14 4 16 -4 7 -12 -11 -14
-10 -95 22 -11 5 -23 9 -27 10 -5 2 -10 4 -13 5 -6 3 -21 7 -37 9 -7 2 -4 6 7
11 19 8 19 9 -2 9 -13 1 -23 -4 -23 -10 0 -8 -4 -9 -13 0 -8 6 -17 8 -20 4 -4
-3 -13 -1 -20 5 -8 7 -16 9 -20 6 -3 -3 -14 -1 -25 5 -30 16 -131 23 -307 22
-174 -2 -198 -3 -355 -27 -19 -3 -46 -7 -60 -9 -14 -1 -36 -5 -50 -9 -35 -8
-105 -17 -175 -22 -33 -2 -82 -8 -110 -13 -72 -12 -130 -15 -305 -14 -161 1
-230 7 -340 26 -14 2 -44 7 -67 11 -24 4 -43 12 -43 17 0 6 -4 8 -9 5 -10 -7
-104 24 -112 36 -3 6 -9 9 -13 9 -24 -3 -34 2 -39 19 -3 11 -11 20 -19 19 -10
0 -10 -2 0 -6 6 -2 12 -9 12 -15 0 -5 -21 2 -47 17 -27 15 -68 39 -93 53 -25
14 -50 30 -56 36 -6 6 -22 18 -35 26 -25 16 -133 121 -159 156 -69 90 -126
201 -162 314 -45 145 -51 176 -63 350 -3 47 -8 99 -10 115 -2 17 -7 89 -10
160 -3 72 -8 137 -10 145 -5 16 -12 74 -21 154 -2 26 -10 58 -16 70 -6 11 -11
22 -10 24 2 1 0 12 -3 25 -3 12 -7 33 -9 47 -3 14 -6 27 -7 30 -1 3 -3 10 -4
15 -2 6 -4 13 -5 18 -1 4 -3 10 -5 15 -1 4 -7 20 -13 35 -7 16 -12 34 -12 41
0 7 -13 38 -30 69 -16 31 -29 67 -27 79 1 16 -3 22 -13 21 -9 -2 -24 13 -35
34 -11 20 -52 71 -92 112 -40 42 -72 81 -73 86 0 6 -14 16 -31 22 -21 8 -30
17 -26 27 4 10 1 13 -8 10 -7 -3 -42 13 -76 36 -63 41 -129 74 -129 63 0 -3
-9 2 -20 12 -11 10 -34 18 -51 17 -33 -1 -35 5 -3 11 10 2 30 9 44 17 14 8 28
15 33 16 4 1 9 3 12 4 3 1 9 3 14 4 5 0 13 4 17 9 4 4 18 7 30 7 13 0 26 5 29
11 4 6 13 8 20 5 7 -2 16 -2 19 2 4 3 12 7 19 8 39 8 58 14 67 19 5 3 24 8 42
10 18 3 44 7 58 11 34 8 63 12 139 19 36 3 66 7 67 8 6 6 163 1 170 -5z"/>
</g>
</svg>
