<?xml version="1.0" standalone="no"?>
<!DOCTYPE svg PUBLIC "-//W3C//DTD SVG 20010904//EN"
 "http://www.w3.org/TR/2001/REC-SVG-20010904/DTD/svg10.dtd">
<svg version="1.0" xmlns="http://www.w3.org/2000/svg"
 width="1024.000000pt" height="1024.000000pt" viewBox="0 0 1024.000000 1024.000000"
 preserveAspectRatio="xMidYMid meet">
<metadata>
Created by potrace 1.16, written by Peter Selinger 2001-2019
</metadata>
<g transform="translate(0.000000,1024.000000) scale(0.100000,-0.100000)"
fill="#000000" stroke="none">
<path d="M4420 8411 c-19 -11 -38 -17 -43 -14 -4 2 -7 1 -5 -4 3 -12 -82 -99
-94 -95 -5 1 -7 -2 -3 -7 8 -14 -94 -143 -107 -134 -7 3 -8 1 -4 -5 6 -10
-153 -225 -220 -297 -13 -14 -24 -29 -24 -32 0 -15 -63 -82 -72 -77 -7 4 -8 2
-4 -5 9 -14 -63 -103 -77 -94 -6 3 -7 1 -3 -5 9 -15 -53 -94 -67 -85 -6 3 -7
1 -4 -4 4 -6 -10 -33 -31 -60 -20 -27 -57 -75 -81 -106 -24 -31 -48 -54 -54
-50 -6 3 -7 1 -3 -5 9 -15 -53 -94 -67 -85 -6 3 -7 1 -3 -5 9 -14 -123 -184
-137 -175 -6 3 -7 1 -3 -5 8 -14 -248 -338 -264 -334 -6 1 -10 -3 -8 -10 3 -7
-20 -43 -49 -81 -75 -97 -89 -150 -74 -279 14 -127 14 -141 -1 -132 -10 6 -10
5 -1 -8 7 -8 10 -18 6 -21 -3 -4 -2 -7 4 -7 10 0 38 -299 38 -407 0 -35 2 -63
6 -63 4 0 9 -37 13 -82 4 -46 20 -234 37 -418 16 -184 29 -346 29 -360 0 -14
13 -155 30 -315 16 -159 36 -371 45 -470 8 -99 18 -200 21 -225 4 -33 3 -41
-5 -30 -9 13 -11 13 -11 -2 0 -10 4 -18 9 -18 5 0 14 -15 20 -32 7 -18 23 -50
37 -71 13 -21 22 -42 19 -48 -4 -5 -1 -8 7 -7 7 2 13 -6 13 -17 0 -11 5 -20
12 -20 16 0 85 -104 77 -117 -4 -6 -3 -8 4 -4 6 3 20 -7 31 -23 23 -32 27 -46
10 -35 -7 4 -1 -7 12 -25 21 -29 38 -44 24 -21 -3 5 -4 10 -1 10 6 0 66 -86
66 -95 0 -3 -5 -3 -12 1 -7 4 -8 3 -4 -5 4 -6 11 -9 15 -7 4 3 32 -29 61 -71
29 -42 48 -73 42 -69 -6 3 -14 1 -18 -5 -4 -8 -3 -9 4 -5 7 4 12 2 12 -4 0 -6
4 -9 9 -5 15 9 25 -13 33 -72 1 -7 5 -10 10 -7 4 3 3 15 -3 27 -17 32 2 11 54
-62 26 -35 43 -69 40 -75 -3 -6 -3 -8 2 -4 4 4 22 -11 38 -33 20 -27 26 -43
19 -48 -7 -4 -8 -12 -2 -21 8 -12 10 -12 10 4 0 15 3 16 15 6 18 -15 20 -34 3
-24 -8 4 -10 3 -5 -2 5 -5 12 -9 17 -9 14 0 81 -96 74 -107 -4 -6 -3 -8 3 -5
13 8 56 -50 47 -65 -4 -6 -3 -8 3 -5 14 9 37 -19 27 -34 -4 -7 -3 -9 3 -6 16
10 34 -17 36 -57 2 -19 7 -39 11 -43 5 -4 6 -2 2 5 -5 8 -1 11 15 9 25 -4 82
-75 72 -90 -3 -6 -1 -7 4 -4 6 4 30 -19 54 -51 24 -31 60 -78 81 -103 l37 -45
-52 -3 c-29 -1 -133 -11 -232 -23 -99 -11 -203 -21 -232 -22 -28 0 -49 -4 -47
-8 2 -3 -20 -9 -48 -13 -29 -4 -124 -20 -211 -36 -87 -16 -162 -27 -168 -24
-5 4 -9 2 -9 -3 0 -17 -72 -25 -82 -10 -8 10 -9 9 -5 -3 4 -13 -10 -19 -71
-34 -43 -9 -94 -24 -114 -32 -67 -26 -84 -111 -30 -153 33 -27 62 -25 200 9
182 46 364 80 397 75 19 -4 25 -2 17 3 -14 10 142 38 157 28 5 -3 11 -1 13 4
3 8 269 41 448 56 312 25 779 23 1085 -5 61 -6 139 -13 175 -16 36 -3 141 -16
234 -30 94 -13 174 -24 178 -24 5 0 7 -4 4 -9 -4 -5 3 -7 13 -4 26 7 240 -38
403 -83 124 -35 128 -35 157 -18 69 41 66 125 -8 160 -20 10 -92 32 -161 50
-71 18 -116 34 -105 36 11 3 6 4 -10 2 -17 -2 -82 7 -145 20 -64 13 -157 30
-208 37 -51 7 -88 15 -83 18 5 3 -14 6 -42 6 -29 0 -122 8 -208 18 -133 15
-486 40 -542 39 -21 -1 -9 10 167 142 418 316 422 321 548 487 343 458 520
705 537 752 6 15 20 125 31 245 24 261 70 821 70 851 0 12 4 20 8 17 5 -3 7 7
4 22 -5 37 68 916 77 920 3 1 5 19 3 40 -2 20 6 145 17 276 26 297 26 323 0
394 -11 31 -21 62 -22 69 0 7 -3 11 -7 10 -11 -4 -149 156 -143 166 3 5 2 7
-4 4 -10 -6 -90 82 -85 95 1 5 -1 7 -6 6 -11 -4 -83 78 -75 86 3 3 -1 6 -10 6
-9 0 -17 3 -17 8 0 4 -17 25 -38 48 -100 110 -121 137 -115 147 3 5 1 7 -4 4
-6 -4 -17 1 -24 10 -12 14 -12 16 0 8 10 -5 12 -4 7 4 -4 6 -11 9 -15 6 -10
-5 -107 116 -103 128 1 5 -1 6 -6 3 -5 -3 -78 74 -163 171 -85 98 -192 220
-239 273 -136 154 -185 213 -183 222 2 4 -1 7 -6 5 -14 -3 -121 124 -114 136
3 6 1 7 -5 4 -12 -8 -95 87 -84 97 4 4 2 6 -4 4 -15 -4 -196 200 -189 212 4 6
1 9 -6 8 -6 -2 -31 21 -55 50 -24 29 -46 52 -49 52 -3 0 -21 7 -41 15 -50 21
-141 19 -184 -4z m56 -376 c19 -76 33 -144 30 -152 -3 -8 -2 -12 2 -9 9 6 65
-212 57 -224 -3 -5 -1 -10 4 -12 13 -4 163 -608 156 -625 -3 -9 0 -11 7 -7 7
5 9 -1 6 -19 -3 -15 -1 -24 3 -21 5 3 9 -1 9 -10 0 -8 -6 -17 -12 -19 -8 -4
-7 -6 3 -6 16 -1 29 -39 29 -86 0 -25 -32 -59 -45 -48 -4 5 -5 3 -2 -3 8 -14
-51 -86 -64 -78 -5 3 -8 1 -7 -4 5 -16 -72 -103 -84 -96 -7 4 -8 2 -4 -4 9
-14 -63 -94 -77 -85 -6 3 -7 1 -3 -5 8 -13 -52 -84 -65 -76 -5 3 -8 1 -7 -4 5
-16 -62 -93 -74 -86 -6 4 -8 3 -5 -3 8 -13 -90 -123 -106 -119 -7 1 -9 1 -5
-1 12 -7 -23 -53 -41 -53 -9 0 -44 10 -79 22 -48 17 -59 24 -45 29 12 5 7 7
-17 7 -41 0 -203 65 -192 77 4 5 2 5 -5 2 -6 -4 -96 27 -200 69 -103 42 -244
99 -312 126 -158 62 -156 61 -139 79 7 8 26 31 41 52 16 21 33 34 39 31 7 -4
8 -2 4 4 -8 14 141 209 156 204 5 -1 7 2 4 7 -7 11 302 407 315 404 5 -2 8 1
6 6 -4 15 64 102 75 95 6 -4 8 -3 5 3 -9 14 52 95 65 86 6 -3 8 -2 5 4 -8 13
47 88 65 88 7 0 13 7 13 15 0 8 36 61 79 118 58 74 82 99 89 90 6 -9 7 -8 4 4
-7 20 61 110 76 101 5 -3 7 -1 4 4 -9 14 63 104 76 96 6 -3 7 -1 3 6 -8 12 40
76 58 76 6 1 10 7 8 14 -3 16 17 43 28 36 5 -3 12 0 16 6 4 8 3 9 -4 5 -7 -4
-12 -3 -12 1 0 11 22 34 27 29 2 -2 19 -65 39 -141z m282 -34 c45 -51 79 -98
75 -104 -3 -5 -2 -7 4 -4 14 9 67 -49 58 -62 -4 -7 -1 -10 7 -9 7 2 12 -3 10
-10 -1 -8 2 -11 7 -7 11 6 58 -52 53 -67 -1 -5 2 -7 6 -4 14 8 45 -31 36 -45
-4 -7 -3 -10 4 -5 11 7 109 -100 104 -115 -1 -5 4 -8 10 -7 8 2 12 -5 10 -16
-2 -10 1 -15 6 -12 13 7 62 -50 58 -67 -1 -6 -1 -8 2 -4 2 5 15 -2 28 -14 13
-12 21 -26 17 -32 -3 -6 -1 -7 5 -3 13 8 44 -33 35 -47 -3 -6 -1 -7 5 -4 13 9
104 -92 95 -106 -3 -5 -2 -7 4 -4 5 3 32 -19 59 -50 49 -56 66 -82 46 -69 -6
3 -13 2 -17 -3 -3 -6 3 -8 14 -6 24 4 87 -58 76 -76 -5 -7 -4 -10 2 -6 13 8
126 -121 117 -134 -3 -5 1 -9 9 -9 16 0 183 -187 179 -202 -1 -5 2 -7 7 -4 10
6 68 -64 63 -77 -1 -5 1 -6 6 -3 12 7 53 -40 49 -57 -1 -6 3 -11 10 -10 16 3
75 -66 67 -79 -4 -6 -3 -8 3 -5 12 7 103 -90 102 -108 -1 -18 -151 -129 -176
-129 -12 0 -23 -4 -23 -9 0 -5 7 -7 15 -3 8 3 15 4 15 2 0 -2 -45 -40 -100
-85 -61 -50 -107 -81 -118 -79 -9 2 -16 10 -14 16 1 7 -4 12 -11 12 -7 0 -46
34 -87 76 -41 42 -70 74 -63 70 6 -3 14 -2 17 3 4 5 -2 8 -11 7 -22 -4 -175
132 -166 147 3 5 2 7 -4 4 -13 -8 -95 78 -85 88 4 5 2 5 -4 2 -14 -8 -247 226
-237 238 4 4 3 6 -2 2 -12 -6 -57 33 -128 110 -44 47 -51 60 -73 153 -14 56
-22 112 -19 124 4 14 3 17 -3 8 -12 -18 -44 108 -37 146 4 18 3 21 -3 9 -5
-12 -19 29 -46 136 -22 87 -35 160 -31 167 5 8 4 11 -2 7 -5 -3 -40 114 -80
275 -51 200 -67 275 -55 262 10 -11 54 -61 100 -113z m144 -1342 c-2 -8 0 -10
4 -6 10 10 175 -154 167 -166 -3 -6 -2 -7 4 -4 14 9 51 -34 48 -56 -2 -9 1
-15 6 -11 5 3 6 11 3 17 -4 7 18 -12 49 -42 31 -30 53 -59 50 -64 -3 -6 -2 -7
4 -4 5 4 23 -7 38 -23 25 -26 26 -31 14 -47 -13 -16 -12 -17 3 -5 9 7 18 9 20
5 3 -4 3 -1 1 7 -2 8 37 -26 86 -75 50 -48 87 -93 84 -99 -3 -6 -2 -8 2 -3 11
10 46 -23 38 -36 -3 -5 -2 -8 3 -5 5 3 47 -29 93 -72 l84 -78 -38 -408 c-21
-225 -41 -438 -44 -474 l-5 -65 -7 50 c-5 35 -6 24 -4 -40 3 -77 -6 -219 -19
-320 -2 -16 -14 -139 -27 -272 -12 -133 -25 -240 -28 -239 -3 2 -6 -30 -7 -72
0 -120 -67 -792 -77 -779 -5 7 -6 -7 -3 -33 6 -49 -14 -281 -23 -276 -3 2 -6
-29 -7 -70 -1 -81 -14 -108 -48 -99 -14 4 -17 3 -8 -3 9 -6 1 -18 -34 -45 -26
-20 -51 -34 -57 -30 -5 3 -7 1 -4 -4 9 -14 -19 -37 -34 -27 -7 4 -9 3 -6 -3 9
-14 -260 -216 -274 -207 -7 4 -9 3 -6 -3 11 -17 -21 -39 -35 -25 -7 7 -16 12
-22 12 -5 0 -2 -6 8 -13 17 -12 5 -24 -127 -120 -108 -80 -153 -107 -175 -107
-18 0 -32 6 -36 16 -8 22 -86 1157 -83 1221 1 28 -1 49 -5 46 -5 -2 -8 11 -8
30 0 18 -7 134 -15 258 -9 123 -25 357 -35 519 -11 162 -33 491 -49 730 -16
239 -38 557 -47 707 l-17 271 43 52 c33 39 45 48 52 38 8 -10 9 -9 5 3 -6 19
50 92 64 83 5 -3 8 -1 7 5 -3 11 155 194 264 305 37 38 68 71 68 73 0 3 19 27
42 54 39 46 67 59 60 28z m-1594 -332 c100 -40 179 -77 175 -82 -4 -4 -1 -6 8
-3 17 7 147 -47 133 -54 -5 -3 -3 -3 5 -1 22 6 301 -109 294 -120 -3 -6 -1 -7
6 -3 18 12 172 -56 181 -79 10 -27 34 -450 26 -470 -3 -9 -2 -14 3 -11 7 5 37
-385 30 -409 -1 -5 0 -17 3 -25 4 -8 11 -94 17 -190 7 -96 14 -209 16 -250 3
-41 14 -208 25 -370 11 -162 24 -362 30 -445 5 -82 23 -350 40 -595 16 -245
27 -466 24 -492 -4 -30 -3 -48 3 -48 6 0 13 -54 17 -126 4 -70 10 -134 14
-143 6 -18 -55 56 -146 177 -35 46 -60 88 -56 94 4 6 3 8 -3 5 -14 -9 -96 100
-87 115 4 6 3 8 -4 4 -14 -8 -55 50 -46 65 4 7 3 9 -3 6 -14 -9 -66 60 -57 75
4 6 3 8 -3 5 -13 -8 -56 50 -47 65 4 6 3 8 -3 5 -13 -8 -116 130 -108 144 4 5
2 8 -3 7 -15 -4 -184 241 -176 254 4 6 3 8 -3 5 -14 -9 -116 140 -107 155 4 6
3 8 -3 5 -13 -8 -159 198 -168 237 -2 11 -16 152 -30 311 -27 312 -29 329 -44
480 -28 268 -73 772 -70 793 1 9 0 24 -4 32 -3 8 -10 78 -17 155 -6 77 -20
235 -31 350 -10 116 -21 244 -24 285 -3 41 -8 96 -12 123 -4 38 -3 46 8 42 8
-3 96 -38 197 -78z m2927 -254 c-4 -49 -11 -137 -16 -198 -5 -60 -16 -198 -25
-305 -8 -107 -19 -202 -23 -210 -5 -8 -6 -26 -4 -40 3 -21 -19 -335 -32 -440
-2 -19 -12 -129 -21 -245 -9 -115 -21 -215 -25 -221 -5 -6 -7 -19 -3 -28 6
-16 -1 -110 -37 -510 l-19 -220 -47 -68 c-25 -37 -49 -65 -53 -63 -4 2 -7 -1
-7 -8 0 -22 -124 -188 -135 -181 -7 4 -8 2 -4 -4 8 -13 -82 -138 -96 -134 -5
1 -7 -1 -4 -6 3 -5 -2 -19 -11 -31 -12 -18 -17 -20 -25 -10 -7 10 -8 8 -3 -7
3 -13 -1 -26 -11 -35 -14 -12 -15 -9 -10 32 3 24 11 96 17 159 6 63 13 122 16
130 3 8 5 24 4 35 -1 11 17 211 39 444 22 233 40 433 40 445 0 15 3 17 9 7 5
-8 7 3 6 30 -3 43 52 702 60 727 3 7 9 10 15 7 6 -4 10 7 9 27 -1 31 -1 32 -9
8 -4 -14 -9 -18 -9 -10 -4 42 63 707 71 717 6 7 15 10 21 6 5 -3 7 -1 4 4 -9
14 140 136 155 127 6 -4 8 -3 5 4 -8 11 84 92 108 96 9 1 14 5 13 8 -3 6 32
48 39 48 3 0 2 -39 -2 -87z"/>
<path d="M7134 7769 c-20 -6 -37 -22 -53 -49 -12 -22 -26 -40 -30 -40 -4 0 -8
-6 -8 -13 0 -22 -226 -396 -236 -390 -6 3 -7 1 -3 -5 9 -15 -53 -124 -66 -115
-7 3 -8 1 -4 -5 4 -7 -5 -32 -20 -57 -23 -40 -52 -126 -37 -111 7 6 49 -45 46
-55 -1 -4 7 -5 18 -2 12 4 25 0 30 -8 6 -10 9 -10 9 -1 0 6 8 12 18 12 11 0
27 9 37 20 10 11 22 17 28 13 6 -3 7 -1 3 5 -8 13 70 152 85 152 5 0 9 6 7 13
-3 17 30 77 43 77 6 0 8 4 5 9 -3 4 2 17 10 27 9 10 13 14 10 7 -4 -6 -3 -14
2 -17 4 -2 8 7 8 22 -1 34 142 275 156 266 6 -4 8 -1 6 7 -3 8 10 41 28 75 41
74 42 95 7 133 -33 35 -57 42 -99 30z"/>
<path d="M7765 7190 c11 -5 15 -9 9 -9 -6 -1 -95 -53 -197 -116 -121 -74 -193
-112 -205 -109 -13 5 -14 4 -4 -4 11 -7 5 -15 -23 -32 -21 -13 -44 -23 -51
-23 -7 0 -11 -4 -9 -8 6 -9 -24 -21 -36 -13 -5 3 -8 0 -7 -8 2 -7 -5 -12 -14
-12 -10 1 -16 -2 -13 -6 6 -9 -63 -53 -82 -53 -7 0 -11 -2 -8 -5 8 -9 -66 -52
-78 -46 -7 4 -9 4 -5 -1 4 -4 1 -17 -7 -29 -20 -28 -19 -65 5 -103 16 -27 26
-33 55 -33 43 0 60 8 226 112 73 45 134 76 140 72 7 -4 9 -3 6 3 -9 14 40 46
55 37 7 -5 8 -3 3 6 -6 10 -4 12 9 7 9 -4 15 -3 11 2 -7 12 234 163 247 155 7
-4 8 -2 4 4 -4 6 6 18 23 27 49 25 71 55 71 94 -1 57 -30 83 -105 94 -28 5
-34 4 -20 -3z"/>
<path d="M7269 6322 c-81 -3 -113 -29 -113 -90 0 -51 5 -64 34 -82 21 -13 86
-15 417 -18 420 -3 461 0 489 43 15 23 15 40 2 122 -1 6 -8 9 -16 5 -10 -3
-13 -1 -8 6 5 8 -91 11 -360 12 -202 0 -369 1 -373 3 -3 1 -36 1 -72 -1z"/>
</g>
</svg>
