<?xml version="1.0" standalone="no"?>
<!DOCTYPE svg PUBLIC "-//W3C//DTD SVG 20010904//EN" "http://www.w3.org/TR/2001/REC-SVG-20010904/DTD/svg10.dtd">
<svg xmlns="http://www.w3.org/2000/svg" version="1.0" width="1024.000000pt" height="1024.000000pt" viewBox="0 0 1024.000000 1024.000000" preserveAspectRatio="xMidYMid meet">
<metadata>
Created by potrace 1.16, written by Peter Selinger 2001-2019
<meta name="Producer" content="Online-Convert"/></metadata>
<g transform="translate(0.000000,1024.000000) scale(0.100000,-0.100000)" fill="#000000" stroke="none">
<path d="M5075 9000 c-34 -22 -45 -38 -223 -325 -229 -370 -478 -715 -968 -1345 -527 -678 -736 -975 -949 -1350 -398 -698 -543 -1294 -474 -1940 56 -527 280 -1048 646 -1505 100 -126 332 -362 443 -452 504 -406 1031 -612 1572 -613 356 0 672 80 1029 261 272 138 531 329 769 568 304 306 548 672 686 1029 348 900 228 1789 -379 2797 -202 335 -364 562 -813 1140 -602 774 -825 1084 -1124 1565 -56 91 -109 171 -118 178 -23 18 -62 15 -97 -8z m94 -213 c94 -154 355 -543 501 -748 182 -254 246 -339 621 -819 446 -572 608 -800 829 -1166 110 -182 275 -507 338 -669 44 -110 122 -349 122 -372 0 -10 -9 -7 -32 10 -116 87 -270 128 -478 128 -277 1 -525 -81 -791 -260 -202 -135 -320 -239 -674 -595 -364 -365 -446 -442 -580 -543 -226 -171 -410 -260 -644 -314 -124 -29 -402 -37 -536 -16 -342 55 -641 210 -893 466 -158 160 -277 345 -338 526 -25 76 -26 87 -21 215 12 278 117 625 308 1015 218 447 476 827 1165 1715 474 612 751 1004 988 1403 32 53 61 97 65 97 3 0 26 -33 50 -73z m2121 -3787 c158 -46 276 -140 320 -257 47 -126 55 -193 54 -453 -1 -218 -3 -261 -27 -390 -69 -385 -192 -696 -394 -998 -52 -79 -97 -142 -98 -140 -2 2 6 35 17 73 29 95 31 310 4 405 -45 164 -143 293 -270 355 -235 116 -528 73 -846 -124 -140 -87 -269 -195 -505 -419 -438 -420 -754 -600 -1142 -652 -132 -18 -380 -8 -513 20 -556 118 -1005 543 -1199 1135 -60 185 -110 443 -111 574 l0 54 56 -89 c168 -268 413 -489 702 -634 255 -128 528 -188 805 -177 237 9 409 53 619 160 273 139 479 302 803 638 66 68 165 170 220 227 111 115 303 291 410 377 211 169 456 287 683 330 111 21 314 14 412 -15z m-506 -1482 c106 -35 165 -87 220 -195 81 -162 78 -387 -10 -610 -95 -242 -364 -530 -709 -758 -221 -146 -428 -241 -658 -300 -675 -173 -1354 1 -1987 508 -83 67 -382 363 -419 415 -20 29 -12 25 76 -35 176 -120 370 -200 595 -245 97 -20 144 -23 328 -23 188 0 228 3 318 23 392 88 666 261 1149 724 241 232 377 335 558 426 191 95 387 121 539 70z"/>
</g>
</svg>
