<?xml version="1.0" standalone="no"?>
<!DOCTYPE svg PUBLIC "-//W3C//DTD SVG 20010904//EN"
 "http://www.w3.org/TR/2001/REC-SVG-20010904/DTD/svg10.dtd">
<svg version="1.0" xmlns="http://www.w3.org/2000/svg"
 width="1024.000000pt" height="1024.000000pt" viewBox="0 0 1024.000000 1024.000000"
 preserveAspectRatio="xMidYMid meet">
<metadata>
Created by potrace 1.16, written by Peter Selinger 2001-2019
</metadata>
<g transform="translate(0.000000,1024.000000) scale(0.100000,-0.100000)"
fill="#000000" stroke="none">
<path d="M4791 8523 c-24 -5 -131 -107 -131 -125 0 -6 -8 -22 -18 -36 -25 -38
-71 -154 -78 -202 -4 -22 -8 -40 -10 -40 -11 0 -53 24 -50 29 2 3 -6 7 -17 7
-27 2 -64 11 -77 19 -21 13 -109 -7 -134 -30 -14 -13 -27 -21 -30 -19 -3 2 -4
1 -2 -2 3 -3 1 -17 -4 -29 -14 -38 -21 -183 -9 -191 6 -3 8 -12 5 -20 -6 -14
16 -95 40 -151 l13 -33 -52 20 c-139 51 -246 42 -279 -22 -19 -37 -40 -130
-28 -123 4 3 11 -15 14 -39 4 -25 21 -73 38 -108 22 -46 27 -67 20 -79 -7 -11
-6 -16 4 -16 7 0 10 5 7 11 -4 6 1 4 12 -4 18 -15 18 -15 -1 -18 -82 -15 -157
-95 -133 -143 4 -8 4 -21 -1 -29 -6 -9 -1 -21 13 -35 27 -26 62 -86 58 -100
-1 -5 0 -8 3 -4 6 6 132 -111 129 -121 -1 -4 4 -7 10 -7 17 0 97 -54 97 -65 0
-5 4 -7 8 -4 14 8 113 -54 106 -66 -4 -7 -3 -8 5 -4 16 10 53 -3 45 -16 -4 -6
-2 -8 4 -5 15 10 43 -3 35 -16 -3 -6 -1 -7 6 -3 16 10 144 -67 160 -96 6 -13
9 -15 7 -6 -5 15 -3 16 14 5 11 -6 20 -15 20 -20 0 -4 4 -6 9 -3 10 7 88 -75
152 -159 39 -50 45 -65 42 -92 -3 -19 -1 -33 5 -33 6 0 8 10 5 23 -10 47 17
-8 43 -88 19 -58 25 -93 21 -128 -2 -29 -1 -43 4 -35 6 8 9 -3 9 -32 1 -25 5
-64 9 -87 6 -30 5 -46 -4 -53 -6 -5 -15 -7 -18 -3 -4 3 -7 1 -7 -6 0 -8 8 -11
20 -8 19 5 20 0 22 -66 0 -40 2 -83 4 -97 6 -56 7 -611 1 -698 -17 -256 -28
-401 -32 -437 -3 -22 -7 -71 -10 -110 -3 -38 -8 -97 -10 -130 -3 -33 -10 -91
-16 -130 -5 -38 -10 -86 -10 -105 l0 -35 -14 45 c-8 25 -26 81 -39 125 -41
128 -61 184 -104 284 -23 52 -38 99 -35 105 3 6 2 8 -2 3 -5 -4 -27 28 -51 72
-23 43 -61 107 -85 142 -23 34 -42 69 -42 75 0 7 -4 11 -8 9 -3 -3 -24 21 -45
53 -22 31 -42 59 -45 62 -8 6 -24 53 -21 63 1 4 -2 7 -7 7 -12 0 -23 69 -27
167 -4 95 20 179 106 368 40 86 61 177 67 285 4 71 1 91 -15 120 -27 50 -74
73 -137 65 -27 -4 -54 -10 -60 -15 -8 -7 -10 -1 -7 20 7 47 -16 153 -49 232
-17 40 -32 81 -32 90 -1 9 -4 16 -7 15 -9 -3 -100 60 -94 66 3 3 -16 -2 -43
-11 -26 -10 -49 -20 -51 -24 -2 -5 -10 -8 -17 -8 -16 0 -92 -87 -117 -133 -16
-28 -18 -29 -18 -9 0 26 -39 108 -82 170 -34 49 -124 113 -167 118 -70 8 -134
-49 -162 -144 -11 -38 -14 -41 -29 -27 -9 8 -50 30 -92 49 -93 44 -204 63
-260 47 -21 -7 -44 -9 -50 -5 -7 4 -8 3 -4 -4 3 -6 -2 -16 -13 -22 -17 -9 -19
-8 -15 5 4 8 2 15 -4 15 -11 0 -11 -18 1 -37 5 -7 4 -13 -1 -13 -16 0 -35
-117 -29 -182 3 -35 15 -91 25 -126 11 -34 16 -64 12 -67 -5 -3 -11 3 -13 12
-4 16 -5 17 -6 1 0 -10 9 -22 20 -29 17 -9 20 -8 14 3 -3 7 1 4 10 -7 15 -19
14 -20 -37 -31 -29 -6 -61 -15 -70 -19 -13 -5 -18 -2 -19 11 0 11 -3 13 -6 7
-2 -7 -3 -15 -1 -18 2 -2 -7 -12 -19 -20 -13 -9 -23 -22 -23 -30 0 -7 -5 -15
-12 -17 -7 -3 -12 -33 -14 -78 -2 -48 1 -69 7 -60 7 12 9 11 10 -5 1 -11 2
-26 2 -32 -1 -7 3 -10 8 -8 11 7 30 -30 21 -40 -4 -5 -2 -5 4 -2 6 3 24 -7 39
-23 16 -16 46 -42 67 -56 20 -15 35 -30 33 -34 -3 -5 5 -6 17 -3 13 2 -2 -11
-32 -29 -77 -46 -93 -58 -118 -95 -23 -32 -29 -87 -12 -113 6 -10 4 -20 -7
-32 -9 -10 -11 -18 -5 -18 6 0 12 4 14 10 2 5 21 -13 43 -40 22 -27 45 -49 50
-50 20 -1 146 -66 140 -72 -3 -3 8 -5 26 -3 35 3 104 -15 92 -24 -16 -12 -41
-99 -36 -125 3 -14 19 -36 35 -47 23 -17 26 -24 17 -35 -7 -9 -8 -14 -1 -14 6
0 12 5 14 10 2 7 21 7 58 -1 70 -14 196 -13 285 2 39 6 84 12 102 13 17 0 30
3 28 7 -2 3 42 18 98 33 88 25 114 28 197 24 92 -5 177 -29 194 -56 7 -12 -12
-10 -34 3 -12 7 -13 6 -3 -7 7 -8 10 -17 7 -21 -8 -8 18 -3 33 6 6 4 17 4 25
1 20 -10 99 -101 102 -118 1 -9 6 -19 11 -23 4 -4 5 -2 1 5 -4 6 -5 12 -2 12
10 0 87 -123 145 -233 52 -99 171 -382 161 -382 -1 0 4 -13 10 -30 10 -25 62
-217 75 -278 2 -11 7 -47 9 -80 4 -43 3 -54 -3 -37 -9 24 -9 24 -8 -6 1 -20 6
-30 13 -27 16 6 24 -59 25 -197 0 -122 -18 -253 -34 -243 -5 3 -7 -3 -3 -14 5
-16 -3 -75 -18 -133 -3 -8 -5 -33 -6 -55 -2 -36 -3 -32 -16 29 -16 81 -54 199
-100 313 -19 45 -32 88 -31 95 2 7 2 9 -1 4 -2 -4 -22 29 -43 74 -21 45 -37
86 -34 90 3 5 0 12 -6 16 -8 4 -9 3 -5 -4 4 -7 5 -12 3 -12 -2 0 -21 28 -43
63 -21 34 -57 89 -81 121 -23 32 -40 64 -36 69 3 6 2 7 -4 4 -5 -3 -31 18 -56
48 -73 84 -245 206 -380 270 -37 17 -64 35 -60 40 5 4 3 6 -3 2 -9 -5 -27 -2
-121 23 -134 35 -308 44 -446 21 -17 -2 -57 -55 -57 -75 0 -12 7 -34 15 -50 9
-16 13 -36 10 -43 -3 -9 0 -11 7 -7 8 5 9 2 5 -9 -3 -9 -1 -19 5 -23 7 -5 8
-2 3 7 -8 12 -6 12 8 0 9 -7 17 -17 17 -22 0 -5 12 -27 26 -49 23 -35 25 -42
13 -57 -12 -16 -12 -17 2 -6 13 11 24 3 73 -53 41 -48 54 -70 46 -78 -7 -9 -5
-13 5 -13 8 0 12 4 9 9 -13 21 10 2 73 -59 38 -38 91 -81 116 -97 26 -17 47
-34 47 -38 0 -4 7 -8 16 -8 10 0 14 -6 11 -14 -4 -9 0 -12 12 -9 22 6 75 -43
65 -60 -6 -9 -5 -9 7 0 11 8 24 6 57 -9 28 -14 39 -24 31 -28 -7 -5 -3 -8 12
-8 30 1 126 -35 142 -52 9 -10 9 -11 0 -6 -7 4 -13 2 -13 -3 0 -14 13 -14 26
-1 6 6 36 2 84 -10 78 -20 133 -28 235 -34 60 -4 60 -4 82 -47 24 -48 32 -87
12 -59 -9 12 -10 12 -5 -3 3 -10 6 -20 6 -23 0 -2 7 -1 15 2 9 4 15 0 15 -10
0 -8 6 -30 14 -48 12 -28 47 -143 62 -200 12 -50 15 -65 20 -93 4 -16 6 -37 5
-45 -1 -8 -3 -37 -5 -65 l-4 -50 7 45 7 45 5 -44 c3 -30 1 -45 -8 -48 -7 -3
-10 -9 -7 -14 3 -5 10 -6 16 -3 13 8 5 -265 -9 -275 -4 -3 -9 -26 -9 -51 -2
-56 -13 -160 -19 -180 -2 -8 -7 -48 -9 -89 -4 -44 -11 -78 -18 -83 -7 -4 -38
-4 -68 0 -88 11 -351 4 -435 -12 -11 -2 -45 -7 -75 -11 -30 -4 -66 -9 -80 -11
-14 -3 -47 -9 -75 -14 -27 -4 -62 -13 -76 -19 -15 -5 -30 -7 -33 -4 -3 3 -11
1 -18 -4 -7 -6 -29 -14 -48 -18 -109 -23 -378 -126 -397 -152 -32 -41 -5 -98
56 -120 18 -7 31 -10 28 -6 -9 8 74 47 178 83 130 46 156 53 197 53 21 1 33 4
28 7 -14 8 61 29 180 49 41 7 91 15 110 18 19 4 42 8 50 9 91 18 467 23 457 7
-3 -5 23 -9 56 -9 80 -2 211 -19 230 -31 4 -2 20 -6 35 -9 40 -6 102 -26 102
-33 0 -3 19 -7 43 -7 23 -1 56 -8 72 -15 17 -7 33 -13 38 -14 4 -2 9 -4 12 -5
3 -1 8 -3 13 -5 56 -15 60 -18 55 -33 -4 -13 -3 -14 5 -4 7 11 23 10 83 -8 41
-12 78 -26 84 -31 5 -5 17 -9 28 -9 10 0 15 -4 12 -10 -3 -5 0 -8 7 -5 7 3 47
-2 88 -11 112 -23 177 -33 260 -40 41 -3 77 -7 80 -9 10 -6 297 15 355 26 33
6 71 13 85 15 14 3 31 7 38 9 6 2 12 0 12 -6 0 -6 7 -3 16 5 8 9 27 19 42 22
51 11 237 76 259 90 12 8 29 14 37 14 22 0 57 50 51 72 -4 11 -1 18 6 18 6 0
0 11 -15 25 -34 31 -77 32 -148 4 -136 -55 -210 -80 -328 -109 -117 -29 -241
-40 -390 -34 -80 3 -152 5 -160 6 -52 1 -228 48 -420 110 -240 78 -253 82
-265 84 -5 1 -64 14 -130 29 -66 15 -130 28 -143 30 -12 1 -26 6 -30 10 -4 5
1 5 10 2 10 -3 20 -2 23 3 4 6 -1 10 -10 10 -13 0 -15 8 -10 42 3 24 7 63 10
88 2 25 6 63 10 85 3 22 8 56 10 75 9 61 13 84 23 140 6 30 13 71 16 90 3 19
14 78 25 130 10 52 22 109 24 125 3 17 13 62 22 100 8 39 18 84 22 100 13 64
65 263 84 321 11 33 21 70 23 81 3 11 13 40 24 64 10 24 25 60 32 79 28 75 91
200 101 200 5 0 8 4 5 9 -11 18 137 265 196 328 27 28 33 30 61 22 33 -9 232
-24 322 -24 83 0 252 16 290 28 11 3 37 8 57 11 57 9 207 54 264 80 40 18 55
21 64 12 10 -8 11 -8 6 1 -7 14 120 77 135 67 5 -3 8 0 7 7 -2 7 24 28 57 48
34 20 80 50 104 68 24 18 48 30 52 27 5 -3 7 1 4 8 -2 7 14 27 35 43 39 30
105 108 129 153 30 57 -46 119 -180 146 -178 36 -277 47 -396 44 -68 -2 -123
-6 -123 -10 0 -5 -15 -8 -32 -8 -42 0 -186 -34 -257 -61 -30 -11 -60 -18 -67
-15 -8 3 -13 1 -11 -5 1 -5 -20 -19 -48 -31 -51 -22 -219 -128 -265 -167 -113
-97 -154 -136 -219 -211 -40 -47 -93 -112 -117 -145 -24 -33 -49 -59 -55 -57
-6 2 -9 -4 -6 -12 3 -8 -8 -36 -25 -63 -17 -26 -42 -69 -55 -96 -14 -28 -29
-45 -35 -41 -6 4 -8 2 -4 -4 6 -10 -23 -97 -30 -89 -2 2 0 28 6 58 5 30 11 65
14 79 9 54 19 80 27 74 5 -3 6 2 3 10 -10 27 65 242 84 239 6 -2 9 3 6 11 -8
22 133 293 159 304 4 2 5 7 3 11 -7 11 141 236 153 234 6 -2 10 0 9 5 -3 14
22 58 53 92 17 19 48 55 68 80 67 83 160 171 174 164 6 -4 9 -3 4 1 -8 10 41
65 57 65 6 0 16 8 23 19 20 32 99 64 141 57 26 -4 31 -3 17 4 -29 13 98 12
155 -1 25 -6 50 -12 55 -13 31 -7 55 -19 55 -27 0 -6 4 -8 9 -5 5 3 31 -3 57
-13 27 -11 91 -33 142 -49 51 -15 90 -30 88 -33 -2 -2 21 -5 52 -7 93 -5 261
-7 257 -4 -2 2 13 18 32 36 42 38 56 96 38 149 -11 32 -10 34 9 33 46 -4 200
50 238 82 9 8 22 11 29 6 7 -4 10 -3 5 4 -3 6 2 19 13 29 11 10 28 36 37 58
14 33 14 45 3 79 -7 23 -23 55 -36 72 -13 17 -20 34 -15 39 4 5 2 6 -3 2 -6
-3 -36 12 -68 33 l-58 38 27 21 c15 11 32 21 39 21 7 0 32 13 56 29 24 16 47
27 53 24 5 -3 6 -2 3 4 -4 6 5 21 20 34 53 49 79 150 52 202 -16 30 -52 72
-64 75 -31 7 -45 14 -41 21 3 4 -5 7 -17 6 -52 -4 -58 11 -23 58 97 130 120
328 45 391 -18 15 -24 26 -16 29 6 2 3 3 -7 1 -11 -2 -26 2 -34 9 -16 12 -181
17 -222 5 -14 -4 -35 -9 -46 -12 -29 -6 -127 -56 -135 -69 -10 -14 -22 50 -13
65 4 7 4 10 0 6 -5 -4 -21 19 -37 52 -35 69 -52 79 -135 82 -80 2 -172 -75
-240 -201 l-32 -58 -20 36 c-26 45 -80 105 -109 120 -34 17 -90 13 -136 -11
-23 -12 -45 -21 -50 -20 -4 1 -6 -1 -5 -6 2 -4 -12 -30 -30 -59 -18 -28 -34
-59 -37 -69 -2 -11 -13 -40 -24 -66 -12 -25 -22 -65 -23 -87 -1 -23 -4 -37 -7
-32 -4 5 -18 13 -34 16 -15 4 -25 11 -22 15 5 9 -43 -2 -92 -20 -18 -7 -31
-16 -28 -20 3 -4 -2 -21 -10 -36 -8 -16 -17 -47 -20 -69 -12 -101 -14 -123
-15 -168 0 -35 -3 -46 -12 -42 -7 4 -6 0 4 -7 14 -12 23 -41 34 -119 2 -15 10
-45 18 -68 9 -29 10 -41 2 -41 -6 0 -4 -5 4 -10 8 -5 15 -13 16 -17 0 -4 3
-15 6 -23 20 -51 26 -80 17 -85 -5 -4 -9 -12 -9 -18 0 -7 4 -6 10 3 7 11 10 7
10 -17 0 -17 4 -34 8 -37 9 -5 7 -97 -3 -166 -9 -57 -33 -110 -51 -110 -8 0
-13 -4 -9 -9 3 -6 -37 -54 -88 -108 -52 -54 -105 -111 -118 -127 -13 -17 -40
-48 -60 -70 -63 -72 -134 -169 -201 -276 -37 -58 -74 -113 -82 -122 -9 -10
-14 -18 -11 -18 3 0 -2 -14 -10 -30 -9 -18 -21 -28 -27 -24 -7 4 -8 3 -4 -4 6
-11 -29 -92 -40 -92 -3 0 -3 4 0 8 3 5 8 40 11 78 3 38 7 87 10 109 17 152 24
740 10 841 -3 22 -1 53 5 68 6 18 6 25 0 21 -6 -4 -10 13 -11 42 0 57 -2 80
-19 281 -11 124 -11 165 -1 220 11 59 54 168 71 182 3 3 19 22 34 42 16 21 33
35 39 31 5 -3 7 -1 3 5 -8 14 22 44 36 36 6 -4 8 -2 5 3 -10 16 45 60 235 187
125 83 195 137 251 195 42 44 77 82 77 85 0 4 16 29 36 57 41 59 64 117 64
164 0 43 -35 77 -103 98 l-55 17 29 75 c55 140 40 323 -27 354 -50 23 -134 8
-215 -37 -60 -33 -70 -34 -64 -9 9 40 16 111 20 197 3 69 0 93 -17 132 -47
109 -122 126 -256 59 -75 -38 -79 -39 -90 -20 -7 10 -12 26 -12 34 0 28 -72
165 -116 221 -45 59 -101 107 -115 99 -4 -3 -10 -1 -14 5 -6 10 -30 11 -74 3z
m95 -210 c16 -22 20 -31 9 -23 -17 14 -18 14 -6 -8 7 -12 16 -20 20 -18 13 9
55 -87 54 -123 -1 -24 2 -30 8 -20 6 10 9 7 9 -11 0 -15 5 -31 12 -38 9 -9 9
-12 -3 -12 -11 0 -12 -2 -1 -9 8 -4 15 -26 15 -49 1 -22 5 -38 10 -35 4 2 7
-2 7 -10 0 -8 13 -20 30 -27 27 -11 34 -9 82 24 29 20 72 50 94 67 25 18 55
31 75 32 l34 2 -1 -90 c-2 -89 -6 -123 -23 -167 -5 -13 -10 -27 -12 -33 -2 -5
-8 -9 -12 -7 -5 1 -5 -2 -2 -8 4 -6 -3 -40 -16 -76 -15 -41 -26 -60 -31 -52
-16 25 -8 -4 12 -42 35 -69 77 -67 192 9 171 113 226 124 220 45 -3 -47 -40
-144 -55 -144 -6 0 -8 -3 -4 -6 3 -4 -7 -33 -23 -65 -17 -32 -30 -65 -30 -73
0 -23 22 -66 31 -61 4 3 41 -2 82 -12 l74 -17 -19 -35 c-48 -85 -103 -145
-208 -223 -36 -26 -69 -52 -75 -56 -11 -8 -78 -50 -107 -67 -41 -24 -106 -71
-140 -103 -20 -19 -41 -31 -47 -27 -6 3 -10 3 -9 -2 4 -11 -66 -83 -80 -83 -6
0 -9 -7 -6 -15 4 -8 2 -15 -3 -15 -5 0 -24 -26 -43 -57 -19 -32 -37 -60 -41
-63 -3 -3 -9 -15 -13 -27 -10 -32 -18 -29 -41 14 -11 21 -58 76 -105 123 -46
47 -83 90 -81 95 1 6 -1 7 -4 3 -4 -4 -27 6 -51 22 -23 17 -45 30 -49 30 -3 0
-22 10 -43 23 -20 13 -90 51 -154 85 -65 34 -130 70 -146 80 -15 9 -42 26 -60
37 -17 11 -32 26 -32 32 0 7 -4 12 -9 10 -15 -4 -82 63 -75 75 4 6 3 8 -3 5
-10 -6 -49 40 -41 48 8 8 148 43 148 37 1 -4 7 4 14 17 7 13 11 33 8 44 -3 12
-1 18 5 14 5 -3 10 0 10 8 0 8 -4 12 -8 10 -13 -9 -83 114 -124 220 -5 11 -9
35 -11 53 l-3 34 47 -6 c79 -8 196 -52 186 -68 -4 -6 -1 -9 7 -6 8 3 33 -4 57
-14 41 -19 44 -19 80 -1 30 15 38 24 40 52 2 19 0 37 -5 40 -14 10 -62 113
-88 191 -15 41 -29 107 -32 145 l-6 70 28 3 c19 1 56 -15 114 -51 90 -56 126
-74 116 -57 -3 6 0 10 8 10 27 0 45 35 52 105 10 101 32 182 68 250 30 55 35
60 64 58 24 -1 31 2 26 13 -9 24 4 15 33 -23z m1711 -1481 c7 -15 15 -44 17
-64 4 -29 2 -36 -10 -31 -7 3 -14 0 -14 -6 0 -6 6 -10 13 -8 8 1 13 -13 15
-41 3 -36 9 -46 39 -67 l36 -24 22 24 c11 14 24 25 28 25 4 0 30 15 57 34 60
41 169 81 184 66 5 -5 17 -10 25 -9 11 0 10 3 -4 9 -14 6 -15 9 -5 10 8 1 23
3 32 5 10 2 21 -2 25 -7 3 -7 1 -8 -5 -4 -7 4 -12 2 -12 -3 0 -6 9 -11 21 -11
11 0 17 5 14 10 -8 12 15 13 33 1 14 -8 15 -71 1 -101 -38 -88 -123 -205 -141
-194 -7 4 -8 2 -4 -4 7 -12 -30 -56 -42 -48 -4 2 -8 -11 -9 -29 -2 -44 34 -85
76 -85 46 0 131 -20 131 -32 0 -5 9 -7 19 -3 13 4 23 0 29 -12 12 -22 -4 -44
-63 -88 -59 -44 -76 -53 -187 -90 -111 -37 -129 -49 -134 -93 -4 -36 21 -66
70 -82 20 -6 35 -16 33 -22 -1 -6 4 -13 12 -16 8 -3 11 0 7 6 -7 12 5 11 70
-7 44 -12 124 -74 124 -97 0 -19 -65 -58 -120 -72 -25 -6 -90 -13 -144 -15
-81 -4 -102 -8 -113 -23 -21 -29 -15 -70 17 -121 17 -26 30 -52 30 -57 0 -12
-109 -14 -150 -2 -14 4 -41 9 -60 11 -40 6 -209 63 -227 78 -7 5 -13 6 -13 2
0 -4 -6 -3 -12 2 -21 16 -108 41 -168 48 -86 10 -225 7 -225 -5 0 -1 -8 -3
-18 -5 -9 -2 -14 1 -11 6 3 5 10 40 15 76 7 52 6 86 -7 152 -9 48 -18 97 -20
110 -3 13 -16 49 -29 81 -13 32 -27 70 -30 86 -27 143 -34 279 -16 310 6 11
11 14 11 6 0 -7 4 -11 9 -7 5 3 25 -4 44 -15 40 -24 98 -42 94 -30 -1 4 7 16
18 26 13 12 21 35 24 64 11 142 39 230 93 292 19 23 26 25 39 15 24 -18 73
-127 73 -164 1 -17 5 -31 10 -30 4 1 10 -6 11 -16 2 -10 14 -34 27 -53 18 -26
30 -34 55 -34 35 0 73 38 73 72 0 11 4 16 10 13 5 -3 7 0 5 7 -8 19 30 133 61
186 29 49 68 93 99 110 28 16 29 15 42 -16z m-2977 -373 c0 -5 -6 -7 -12 -4
-7 4 -5 0 5 -8 9 -8 17 -22 17 -32 0 -14 3 -15 14 -6 12 10 18 8 30 -11 27
-42 58 -119 52 -134 -3 -7 0 -13 6 -11 6 1 12 -11 15 -27 2 -16 9 -38 14 -48
5 -10 7 -22 4 -27 -20 -34 50 -89 98 -77 25 6 29 12 76 119 20 46 34 66 42 61
8 -4 9 -3 5 5 -9 14 28 73 57 91 16 9 22 9 32 -2 16 -17 37 -81 25 -73 -6 4
-10 2 -10 -3 0 -6 6 -12 14 -15 21 -8 30 -106 17 -184 -6 -38 -12 -74 -13 -80
-1 -9 -5 -10 -14 -3 -9 8 -12 1 -11 -30 1 -39 17 -59 17 -21 0 18 3 17 28 -7
15 -15 26 -30 24 -35 -2 -4 13 2 33 13 20 11 41 17 47 14 6 -4 8 -2 5 3 -7 10
18 22 84 43 19 5 26 4 26 -6 0 -7 -5 -12 -10 -11 -5 1 -11 -6 -12 -16 -2 -13
1 -17 11 -13 16 6 16 5 3 -54 -5 -25 -12 -54 -14 -65 -9 -45 -47 -141 -60
-151 -8 -6 -12 -13 -10 -16 3 -3 -11 -40 -31 -82 -19 -43 -37 -90 -39 -105 -2
-14 -4 -30 -5 -36 -1 -5 -5 -1 -10 10 -8 19 -9 19 -9 -2 -1 -13 3 -23 8 -23 4
0 5 -17 1 -38 -4 -21 -5 -47 -4 -58 2 -10 5 -42 8 -71 2 -29 8 -58 12 -64 5
-9 2 -10 -10 -6 -10 4 -29 10 -42 13 -13 3 -24 10 -24 14 0 5 -8 9 -17 9 -10
0 -56 2 -103 3 -87 4 -147 -7 -280 -50 -36 -12 -80 -24 -99 -27 -19 -3 -38 -8
-42 -11 -4 -2 -56 -7 -114 -11 -81 -4 -109 -3 -115 7 -8 12 12 63 37 91 8 9
15 30 16 45 4 44 -31 70 -101 77 -71 8 -220 57 -262 87 -47 33 -39 54 33 89
34 16 92 37 128 46 83 21 117 49 112 90 -5 37 -28 58 -91 81 -70 26 -133 64
-125 76 3 7 1 8 -5 4 -7 -4 -23 4 -36 17 -14 14 -27 23 -29 21 -2 -2 -18 16
-36 41 l-32 44 40 11 c21 5 70 9 108 8 70 -1 109 12 116 42 5 21 -18 84 -57
160 -19 36 -41 87 -51 115 -19 57 -22 144 -6 154 10 7 82 -1 121 -12 75 -21
222 -132 202 -152 -4 -4 -2 -5 3 -4 6 2 21 -3 33 -10 57 -31 96 17 106 126 8
91 15 113 37 113 10 0 19 -5 19 -11z m2915 -1661 c11 -2 55 -10 98 -17 79 -14
86 -18 65 -39 -17 -17 -26 -15 -31 6 -3 9 -5 2 -6 -15 0 -18 -5 -33 -9 -33 -5
0 -19 -10 -32 -22 -13 -12 -45 -37 -71 -55 -54 -37 -299 -163 -316 -163 -7 0
-24 -5 -40 -12 -15 -6 -36 -13 -46 -15 -9 -1 -43 -11 -75 -22 -31 -10 -97 -25
-147 -32 -108 -16 -429 -17 -465 -1 -17 7 -20 11 -8 11 10 1 15 7 13 14 -3 6
16 30 41 52 26 22 58 52 72 68 14 15 31 27 38 27 7 0 14 3 16 8 5 12 95 72
171 114 105 57 273 111 392 125 22 2 41 6 43 7 4 4 273 -1 297 -6z m-3000
-544 c90 -9 85 -9 118 -18 15 -5 27 -11 27 -15 0 -3 12 -6 28 -7 15 -1 48 -11
74 -23 26 -11 52 -21 57 -21 6 0 11 -4 11 -10 0 -5 5 -10 10 -10 20 0 90 -53
83 -63 -3 -6 -1 -7 6 -3 15 10 113 -62 104 -76 -3 -6 -2 -8 4 -5 5 3 36 -21
68 -53 33 -33 53 -60 45 -60 -8 0 -4 -6 10 -13 22 -11 84 -90 111 -142 5 -11
16 -31 24 -45 20 -34 7 -42 -56 -34 -40 5 -48 9 -34 15 14 5 15 8 5 8 -9 1
-21 -4 -28 -11 -7 -7 -12 -8 -12 -2 0 6 -15 10 -32 11 -98 3 -342 121 -482
234 -108 87 -283 289 -270 311 4 7 3 8 -4 4 -6 -3 -16 2 -21 13 -17 31 -10 31
154 15z"/>
</g>
</svg>
