<?xml version="1.0" standalone="no"?>
<!DOCTYPE svg PUBLIC "-//W3C//DTD SVG 20010904//EN" "http://www.w3.org/TR/2001/REC-SVG-20010904/DTD/svg10.dtd">
<svg xmlns="http://www.w3.org/2000/svg" version="1.0" width="1024.000000pt" height="1024.000000pt" viewBox="0 0 1024.000000 1024.000000" preserveAspectRatio="xMidYMid meet">
<metadata>
Created by potrace 1.16, written by Peter Selinger 2001-2019
<meta name="Producer" content="Online-Convert"/></metadata>
<g transform="translate(0.000000,1024.000000) scale(0.100000,-0.100000)" fill="#000000" stroke="none">
<path d="M5429 8616 c-2 -2 -43 -6 -91 -8 -47 -1 -84 -6 -81 -10 2 -5 -3 -8 -12 -8 -21 0 -129 -43 -327 -131 -96 -43 -163 -67 -175 -63 -13 4 -14 3 -5 -4 10 -7 3 -13 -28 -26 -23 -9 -47 -13 -53 -10 -7 4 -9 4 -5 -1 10 -10 -132 -77 -149 -71 -8 3 -11 2 -8 -3 5 -9 -20 -22 -39 -20 -5 0 -12 -5 -16 -11 -4 -7 -19 -13 -33 -13 -14 -1 -23 -5 -21 -8 2 -4 -3 -10 -12 -13 -22 -9 -26 -8 -18 6 5 7 3 8 -5 4 -7 -5 -10 -11 -7 -14 9 -8 -106 -62 -118 -55 -5 3 -6 1 -2 -5 7 -12 -29 -26 -45 -17 -6 4 -13 -2 -16 -14 -5 -20 -16 -26 -38 -21 -5 1 -7 -2 -3 -6 10 -9 -64 -64 -76 -57 -5 4 -6 1 -3 -4 8 -13 -27 -46 -37 -36 -4 5 -6 3 -4 -3 4 -14 -102 -145 -112 -139 -4 3 -7 -1 -6 -8 0 -6 -3 -13 -7 -14 -18 -5 -42 -36 -30 -40 8 -3 3 -19 -15 -48 -14 -24 -30 -41 -36 -38 -5 4 -6 1 -2 -6 5 -7 -11 -40 -38 -82 -25 -38 -46 -73 -46 -78 0 -6 -7 -14 -16 -19 -9 -5 -15 -12 -15 -15 3 -17 -62 -116 -71 -110 -7 3 -8 1 -4 -5 9 -15 -23 -64 -37 -55 -6 3 -7 1 -3 -5 8 -13 -61 -132 -75 -132 -5 0 -8 -3 -7 -7 6 -16 -63 -124 -74 -117 -7 4 -8 3 -4 -4 9 -15 -12 -54 -24 -47 -6 4 -7 -1 -3 -11 4 -11 2 -15 -4 -11 -6 4 -10 1 -9 -6 0 -6 -30 -62 -69 -124 -58 -94 -71 -110 -84 -100 -12 10 -13 9 -4 -7 8 -15 5 -29 -17 -65 -66 -111 -93 -150 -101 -145 -5 3 -6 -2 -3 -10 3 -8 -5 -25 -18 -38 -13 -12 -24 -30 -24 -38 -2 -24 -124 -215 -135 -212 -6 1 -8 -2 -5 -7 7 -10 -78 -161 -97 -173 -7 -4 -9 -8 -5 -8 6 0 -28 -69 -88 -173 -13 -23 -26 -40 -30 -39 -3 2 -9 0 -12 -4 -4 -4 -1 -4 6 0 6 4 12 6 12 4 0 -2 -25 -59 -56 -128 -58 -130 -124 -317 -124 -351 0 -11 -3 -18 -7 -16 -7 5 -9 -37 -16 -296 -1 -37 0 -61 2 -55 4 11 23 -62 72 -277 7 -27 12 -62 13 -77 1 -14 5 -24 10 -21 5 3 7 -6 4 -20 -3 -15 -1 -28 3 -29 8 -3 67 -225 73 -273 1 -12 5 -25 8 -30 3 -6 9 -26 13 -45 3 -19 13 -56 22 -83 8 -26 15 -69 15 -95 0 -32 3 -41 8 -27 6 16 9 12 14 -22 4 -23 4 -48 0 -54 -4 -8 -3 -9 4 -5 7 4 12 2 12 -3 0 -6 -4 -11 -10 -11 -5 0 -10 -4 -10 -10 0 -5 6 -7 13 -4 9 3 18 -19 31 -73 10 -43 37 -151 61 -241 23 -90 40 -173 37 -184 -3 -14 -1 -19 6 -14 7 4 12 1 12 -9 0 -9 -4 -14 -8 -11 -5 3 -9 -1 -9 -9 0 -8 6 -15 14 -15 19 0 16 -18 -4 -23 -14 -4 -12 -5 5 -6 12 0 22 -6 22 -12 0 -5 -5 -7 -10 -4 -13 8 -8 -40 5 -52 4 -4 5 -3 1 4 -3 6 -2 14 4 18 9 5 14 -16 13 -53 -1 -6 3 -12 7 -12 4 0 13 -26 20 -57 7 -32 15 -64 18 -72 4 -10 1 -12 -8 -6 -8 5 -11 3 -8 -6 3 -8 10 -13 16 -12 5 1 8 -8 6 -20 -2 -12 -1 -16 2 -9 6 14 77 -91 77 -115 0 -7 4 -10 8 -7 11 6 30 -31 21 -41 -4 -5 -2 -5 4 -2 13 8 64 -46 64 -68 0 -8 5 -15 11 -15 5 0 7 6 4 12 -4 7 10 -5 29 -27 20 -22 36 -36 36 -31 0 5 7 3 15 -4 8 -7 12 -17 8 -23 -3 -5 -2 -7 4 -4 14 9 55 -22 47 -35 -4 -7 -2 -8 4 -4 12 7 57 -22 127 -83 21 -19 32 -32 22 -28 -9 3 -17 2 -17 -4 0 -6 10 -9 23 -7 30 4 166 -100 147 -112 -8 -5 -1 -10 21 -15 43 -9 75 -35 57 -46 -9 -6 -6 -8 7 -7 26 2 77 -31 68 -45 -3 -5 -2 -7 4 -4 13 8 75 -37 65 -47 -4 -4 -2 -6 4 -4 6 2 49 -27 96 -64 46 -36 101 -76 122 -89 27 -16 34 -24 24 -30 -10 -7 -10 -9 2 -10 8 -1 19 -1 23 0 16 3 66 -33 60 -42 -4 -6 -1 -7 6 -3 14 9 42 -24 34 -38 -4 -5 -1 -6 6 -2 9 6 9 11 1 21 -6 7 21 0 60 -16 39 -15 88 -34 110 -40 22 -7 40 -16 40 -21 0 -5 4 -7 9 -4 5 4 38 0 73 -8 94 -22 246 -36 382 -37 202 0 486 10 569 22 43 5 87 7 99 3 13 -4 18 -2 14 4 -4 7 8 13 31 17 116 20 312 99 411 167 23 16 47 26 54 22 7 -4 8 -3 4 4 -7 11 32 38 47 34 5 -1 6 2 3 7 -6 9 22 26 36 23 5 -1 7 1 6 6 -2 4 24 34 58 67 33 33 77 81 98 107 21 26 43 46 49 45 6 -1 11 4 12 11 0 8 14 30 32 50 17 20 104 125 193 232 89 107 166 194 172 192 5 -1 7 1 4 6 -3 5 56 83 132 174 75 90 179 217 231 281 52 64 99 113 104 110 6 -3 7 -2 4 4 -7 12 80 119 94 115 6 -1 8 2 4 8 -3 5 7 27 23 47 163 214 219 315 268 481 39 135 50 278 35 435 -8 72 -15 143 -16 157 -1 14 -6 32 -9 41 -4 9 -6 20 -5 25 1 5 0 16 -4 24 -18 46 -77 307 -73 323 2 11 2 16 -2 13 -11 -12 -63 217 -57 254 3 22 2 28 -3 16 -6 -13 -20 28 -47 140 -21 88 -74 303 -117 479 -44 176 -77 328 -74 338 2 9 1 15 -4 12 -4 -3 -15 27 -24 66 -19 85 -19 92 -4 83 7 -4 8 -3 4 5 -4 6 -11 9 -14 7 -11 -6 -65 211 -58 229 3 9 2 14 -3 11 -4 -3 -16 25 -26 62 -10 37 -29 95 -42 130 -13 35 -21 68 -18 73 4 5 2 9 -3 9 -5 0 -24 27 -41 60 -18 33 -48 80 -67 105 -36 48 -42 61 -21 49 7 -4 9 -3 4 2 -5 5 -12 9 -17 9 -16 0 -130 120 -125 132 2 7 -1 13 -8 13 -16 0 -92 74 -92 89 0 6 -4 10 -9 10 -14 -2 -185 174 -179 184 3 6 1 7 -5 3 -12 -7 -89 71 -85 85 2 5 -4 9 -13 9 -9 0 -12 5 -8 13 4 6 3 9 -1 4 -10 -8 -286 263 -280 274 3 4 -2 12 -10 19 -8 7 -15 9 -15 5 0 -5 -47 38 -104 95 -58 57 -102 109 -99 114 3 6 3 8 -2 4 -4 -4 -35 18 -69 48 -33 31 -95 79 -136 106 -41 28 -67 48 -57 45 11 -4 16 -3 12 4 -4 5 -14 9 -23 8 -26 -4 -163 42 -156 52 5 9 -38 13 -47 5z m115 -200 c38 -17 56 -31 56 -43 0 -12 3 -14 8 -6 5 8 11 8 24 -1 10 -7 14 -17 10 -21 -4 -5 -2 -5 5 -1 13 7 130 -92 126 -106 -2 -4 4 -8 12 -8 8 0 15 -6 15 -14 0 -8 5 -18 12 -22 7 -5 8 -2 3 7 -4 8 47 -40 113 -105 67 -66 118 -124 115 -130 -3 -6 -2 -7 2 -3 11 10 216 -193 208 -206 -3 -6 -2 -7 4 -4 13 8 66 -47 56 -58 -5 -4 -3 -5 3 -2 14 8 77 -56 67 -68 -5 -4 -3 -5 3 -2 10 6 67 -44 65 -57 -1 -3 2 -6 7 -7 14 -1 51 -42 46 -51 -3 -5 0 -7 8 -6 7 2 12 -4 10 -12 -2 -8 0 -12 4 -8 10 11 35 -12 27 -25 -3 -5 -1 -7 5 -4 12 8 284 -272 276 -285 -3 -4 0 -8 5 -8 17 0 62 -75 56 -92 -4 -9 -2 -19 4 -23 7 -3 8 0 5 9 -11 28 5 17 21 -15 9 -17 14 -37 11 -45 -3 -8 -2 -12 4 -9 11 7 35 -71 32 -105 -2 -20 -1 -22 8 -10 9 12 11 10 7 -12 -2 -15 0 -25 4 -22 5 3 9 1 9 -5 0 -5 -7 -14 -16 -19 -15 -8 -15 -10 0 -15 11 -5 15 -3 10 5 -4 7 -3 8 5 4 7 -5 9 -16 5 -28 -4 -13 -2 -18 5 -14 6 4 13 -5 17 -21 3 -15 9 -40 14 -55 5 -14 6 -45 3 -69 -5 -36 -4 -41 9 -36 12 4 18 -3 23 -30 4 -21 2 -40 -5 -47 -8 -8 -5 -15 9 -26 13 -11 30 -60 55 -168 20 -84 34 -157 31 -162 -4 -6 -2 -10 4 -10 13 0 43 -134 34 -156 -4 -11 -3 -15 4 -11 16 10 26 -58 13 -83 -6 -12 -7 -20 -1 -20 5 0 12 6 15 13 4 6 4 2 2 -10 -2 -12 -1 -23 3 -25 9 -4 43 -133 45 -168 0 -14 6 -28 11 -32 6 -5 6 -8 -2 -8 -6 0 -10 -11 -9 -25 3 -31 16 -45 17 -19 0 10 10 -14 20 -55 16 -58 17 -76 8 -88 -10 -11 -10 -14 1 -11 16 3 53 -124 46 -155 -3 -11 -2 -16 2 -13 8 9 44 -145 37 -162 -2 -7 -1 -11 3 -8 5 3 16 -27 26 -67 9 -40 19 -83 23 -96 4 -15 2 -22 -4 -18 -5 3 -10 0 -10 -8 0 -8 6 -15 13 -15 13 0 28 -46 19 -60 -4 -6 -2 -10 3 -10 8 0 41 -163 43 -215 7 -161 7 -295 -1 -295 -5 0 -7 -7 -4 -15 3 -8 -2 -49 -11 -91 -15 -66 -19 -75 -36 -71 -10 3 -17 1 -14 -3 3 -5 -3 -13 -12 -19 -10 -6 -13 -11 -7 -11 5 0 15 5 22 12 20 20 23 2 6 -41 -9 -22 -20 -38 -25 -35 -5 3 -6 -1 -3 -9 8 -22 -62 -141 -77 -131 -5 3 -7 -1 -4 -8 7 -17 -128 -194 -144 -190 -7 1 -10 -2 -6 -8 3 -6 0 -16 -7 -24 -7 -8 -42 -50 -77 -95 -35 -44 -69 -78 -74 -74 -6 3 -7 1 -4 -5 8 -12 -61 -98 -75 -94 -5 1 -7 -2 -4 -7 7 -11 -42 -67 -56 -63 -5 1 -7 -2 -4 -6 7 -12 -27 -52 -43 -52 -7 0 -9 -5 -6 -11 4 -6 -2 -19 -14 -30 -12 -11 -21 -24 -21 -29 0 -6 -7 -10 -15 -10 -8 0 -14 -4 -12 -9 4 -14 -146 -190 -156 -184 -6 3 -7 1 -4 -4 4 -6 -3 -21 -16 -35 -12 -13 -35 -41 -50 -61 -16 -21 -33 -35 -38 -31 -5 3 -8 0 -7 -8 2 -7 -3 -12 -10 -10 -8 1 -11 -2 -7 -9 9 -14 -44 -70 -58 -62 -6 4 -8 0 -5 -8 3 -8 -3 -25 -13 -38 -11 -13 -19 -18 -19 -12 0 7 -5 9 -10 6 -6 -4 -9 -12 -8 -19 4 -18 -132 -177 -144 -169 -6 3 -8 1 -4 -5 9 -15 -113 -154 -131 -148 -8 4 -11 1 -7 -5 3 -6 -16 -30 -42 -54 -46 -42 -73 -58 -59 -35 3 6 1 10 -5 10 -7 0 -10 -7 -6 -15 10 -27 -209 -156 -236 -139 -6 4 -8 3 -5 -3 9 -14 -115 -52 -243 -74 -111 -19 -222 -25 -185 -9 16 7 14 9 -15 9 -23 1 -30 -2 -22 -8 10 -6 6 -10 -13 -13 -29 -6 -65 0 -65 11 1 3 26 24 56 45 30 22 94 78 142 125 48 46 91 83 97 82 5 -1 7 1 3 4 -10 11 112 166 125 158 6 -3 7 -1 3 5 -7 12 4 40 26 64 31 33 146 262 193 381 26 66 41 93 47 85 6 -9 7 -6 3 9 -3 12 5 61 19 110 44 155 59 306 51 488 -4 88 -8 179 -9 202 0 22 -4 39 -8 36 -5 -2 -8 5 -8 16 0 12 -12 65 -26 118 -15 54 -27 108 -28 120 -1 11 -4 19 -7 17 -10 -6 -63 139 -61 166 1 16 -1 21 -6 12 -6 -9 -12 -5 -20 13 -7 15 -10 31 -7 36 4 5 1 9 -4 9 -13 0 -62 95 -54 104 4 3 2 6 -4 6 -6 0 -33 35 -61 78 -28 42 -77 111 -110 152 -33 41 -58 79 -55 84 3 5 1 6 -4 3 -11 -7 -134 117 -127 127 2 3 1 4 -2 2 -3 -3 -43 27 -88 67 -45 40 -117 99 -159 133 -42 34 -74 63 -72 66 3 3 -1 5 -8 5 -7 0 -54 31 -105 68 -76 58 -89 71 -80 84 10 13 10 14 -1 4 -11 -9 -23 -6 -58 18 -25 17 -41 35 -37 41 4 6 3 8 -3 5 -6 -4 -39 14 -73 39 -46 35 -58 49 -48 56 9 7 8 8 -5 4 -19 -6 -67 30 -209 157 -68 59 -83 81 -50 71 14 -5 14 -4 2 4 -8 6 -18 8 -23 5 -12 -7 -58 38 -50 50 3 6 1 7 -4 4 -13 -8 -85 77 -75 88 4 3 0 5 -8 3 -11 -2 -14 4 -12 22 1 16 -1 21 -6 12 -6 -9 -20 2 -50 40 -22 29 -38 57 -34 63 4 5 7 17 9 25 1 12 -1 11 -11 -2 -11 -15 -17 -11 -49 40 -20 31 -35 63 -32 70 3 7 1 11 -4 8 -11 -7 -33 43 -25 56 4 6 2 8 -3 5 -13 -8 -26 20 -16 36 3 7 2 9 -2 4 -9 -8 -26 26 -55 113 -58 173 -98 352 -106 479 -3 42 -7 108 -11 146 -7 92 12 295 38 404 38 154 196 445 232 425 7 -4 9 -3 4 1 -10 11 33 56 46 48 6 -3 7 -2 4 4 -8 12 22 37 107 90 52 32 72 40 78 30 6 -9 8 -8 8 4 0 18 136 83 153 72 5 -3 7 -1 3 5 -8 13 29 26 45 16 7 -4 9 -3 6 3 -9 14 108 64 130 57 13 -4 15 -3 5 4 -10 7 -6 12 17 21 16 7 35 10 42 5 7 -4 10 -3 6 3 -6 10 110 65 388 183 169 72 288 79 409 26z m-1862 -1418 c1 -115 6 -208 9 -208 3 0 9 -26 13 -57 5 -41 3 -59 -6 -65 -10 -6 -8 -8 5 -8 11 0 17 -8 17 -24 0 -13 3 -33 6 -43 6 -16 5 -16 -10 2 -17 19 -17 19 -5 -5 7 -14 15 -27 19 -30 3 -3 21 -52 39 -109 18 -58 46 -137 61 -178 16 -40 24 -73 20 -73 -5 0 3 -12 17 -26 17 -18 22 -28 14 -33 -8 -5 -7 -13 4 -27 15 -19 15 -19 9 1 -3 11 8 -3 25 -32 33 -56 37 -68 19 -57 -7 4 -8 3 -4 -5 4 -6 11 -9 16 -6 12 8 33 -33 24 -47 -4 -6 -3 -8 3 -5 10 7 40 -28 41 -47 0 -5 7 -13 16 -18 9 -5 16 -18 16 -29 0 -11 4 -18 9 -15 5 3 14 -1 21 -9 7 -8 9 -15 5 -15 -4 0 4 -9 19 -21 14 -11 26 -25 26 -30 0 -5 18 -25 40 -45 22 -20 37 -40 34 -45 -3 -5 0 -9 5 -9 17 0 52 -40 46 -50 -4 -6 2 -10 13 -10 22 0 76 -53 65 -64 -5 -4 -3 -7 2 -6 21 5 27 -1 16 -14 -10 -12 -9 -14 7 -9 22 5 82 -41 82 -63 0 -9 5 -12 10 -9 12 7 76 -44 72 -57 -1 -4 2 -7 6 -6 18 6 121 -77 122 -97 0 -14 3 -16 8 -7 7 10 15 8 35 -8 15 -12 27 -28 27 -36 0 -8 4 -14 10 -14 5 0 7 -8 4 -17 -5 -15 -4 -15 4 -3 8 10 7 19 -1 29 -8 10 -3 9 15 -3 16 -10 25 -23 21 -30 -3 -6 -3 -8 2 -4 7 7 95 -47 95 -58 0 -3 -5 -2 -12 2 -7 4 -8 3 -4 -5 4 -6 12 -9 17 -5 5 3 52 -27 105 -67 69 -53 91 -75 82 -82 -9 -6 -8 -7 4 -3 21 6 96 -54 90 -72 -2 -7 5 -12 16 -12 22 0 46 -23 34 -34 -4 -4 -2 -7 3 -6 21 5 36 0 30 -10 -3 -5 0 -10 8 -10 25 0 230 -226 220 -243 -3 -6 -1 -7 5 -3 16 9 73 -78 66 -101 -5 -14 -4 -15 4 -4 8 11 17 4 41 -35 17 -27 29 -55 26 -62 -2 -7 -1 -11 3 -8 4 3 14 -4 21 -16 7 -11 8 -17 2 -13 -6 3 -11 1 -11 -4 0 -6 8 -11 18 -12 14 0 14 -2 -3 -9 -20 -9 -20 -9 0 -9 15 -1 29 -17 48 -57 15 -30 24 -60 21 -66 -4 -7 -2 -8 5 -4 9 6 10 0 5 -19 -4 -18 -3 -25 6 -23 20 5 79 -182 104 -330 27 -159 28 -381 2 -497 -2 -11 -7 -40 -11 -65 -10 -68 -88 -295 -102 -295 -6 0 -15 -3 -19 -7 -4 -5 0 -8 9 -8 13 0 9 -17 -24 -87 -22 -49 -47 -94 -56 -100 -9 -7 -14 -13 -9 -13 9 0 -35 -77 -97 -167 -27 -40 -54 -70 -60 -66 -5 3 -7 2 -4 -4 8 -13 -29 -59 -126 -156 -46 -47 -83 -77 -92 -74 -7 3 -16 -1 -19 -9 -4 -10 -1 -13 7 -8 28 15 -53 -50 -116 -91 -38 -26 -73 -43 -80 -39 -7 4 -8 3 -4 -1 11 -12 -104 -65 -127 -58 -11 3 -16 1 -12 -5 3 -6 -9 -12 -29 -14 -38 -4 -38 -5 23 61 48 52 172 233 220 321 110 203 190 445 218 665 24 192 16 358 -27 547 -11 48 -17 93 -13 100 4 7 3 10 -1 5 -11 -10 -47 83 -40 103 4 8 3 11 -1 8 -9 -10 -105 192 -98 204 4 7 2 8 -4 4 -13 -8 -36 30 -27 44 4 6 1 9 -7 8 -7 -2 -12 5 -12 14 1 10 -3 16 -10 15 -6 -1 -10 6 -10 15 1 10 -1 16 -5 15 -4 -1 -44 44 -89 100 -45 56 -115 132 -155 168 -39 36 -63 64 -52 60 11 -3 5 2 -14 11 -19 8 -55 32 -80 52 -56 44 -71 58 -52 47 10 -5 12 -4 7 4 -4 6 -12 9 -17 6 -14 -10 -71 35 -65 51 3 8 1 14 -4 14 -6 0 -10 -5 -10 -10 0 -6 -8 -5 -19 2 -11 7 -17 16 -14 22 3 5 1 6 -5 2 -6 -3 -33 8 -61 25 -43 27 -49 34 -39 48 10 13 10 14 -2 4 -18 -16 -34 -17 -24 -1 4 6 3 8 -4 4 -12 -7 -215 97 -207 107 3 4 2 5 -1 2 -7 -5 -92 37 -209 103 -166 93 -373 244 -367 266 2 6 0 8 -4 3 -10 -10 -65 43 -57 56 3 6 1 7 -5 3 -20 -12 -179 165 -166 185 4 8 3 9 -4 5 -20 -12 -129 174 -116 196 4 6 3 8 -3 5 -30 -18 -116 285 -117 410 -1 40 -4 73 -7 73 -3 0 -3 15 -1 33 6 41 81 169 95 160 6 -3 7 -1 3 5 -4 6 65 127 152 269 228 370 224 363 235 356 6 -3 7 -1 3 6 -5 7 12 45 40 91 27 43 49 78 50 77 1 -1 4 -95 6 -209z m-714 -985 c-1 -10 1 -24 6 -31 5 -8 9 -36 9 -63 0 -27 4 -45 7 -39 6 9 54 -120 55 -146 0 -6 5 -18 11 -25 18 -25 34 -69 24 -69 -5 0 -7 -7 -4 -15 4 -8 12 -15 19 -15 12 0 18 -10 27 -45 2 -5 13 -20 26 -34 12 -14 20 -31 17 -38 -2 -8 -1 -12 4 -9 10 7 42 -38 46 -63 1 -9 6 -16 12 -16 10 0 73 -68 73 -79 0 -4 -6 -4 -12 0 -9 5 -8 2 1 -9 8 -10 16 -15 19 -12 8 8 61 -46 58 -59 -2 -6 -1 -7 2 -3 2 4 10 3 18 -4 8 -6 11 -16 7 -23 -3 -6 -3 -8 2 -4 9 9 65 -29 65 -43 0 -6 -5 -7 -11 -3 -7 4 -7 -1 1 -16 7 -13 17 -19 27 -16 18 7 103 -52 103 -71 0 -8 4 -12 9 -8 8 4 129 -73 178 -115 7 -5 14 -10 17 -10 11 0 152 -86 164 -100 8 -8 11 -9 7 -3 -4 9 -1 11 9 7 9 -3 14 -10 11 -14 -3 -4 1 -7 8 -7 26 3 107 -47 107 -66 0 -10 5 -15 10 -12 6 4 8 11 5 16 -4 5 5 4 19 -2 14 -7 23 -16 19 -22 -3 -6 -1 -7 5 -3 16 10 74 -22 66 -36 -4 -7 -3 -8 4 -4 14 9 55 -12 47 -24 -3 -5 0 -12 6 -16 8 -5 9 -3 4 5 -12 20 13 10 87 -33 37 -22 64 -44 61 -49 -3 -6 -1 -7 6 -3 7 5 24 -6 43 -26 17 -18 28 -27 24 -19 -6 9 0 7 18 -4 14 -10 26 -21 26 -26 0 -5 4 -8 10 -7 5 2 21 -10 35 -27 15 -16 23 -23 19 -15 -5 10 0 9 17 -5 56 -45 98 -89 93 -97 -3 -4 2 -5 10 -2 14 5 43 -32 38 -49 -1 -5 1 -6 6 -3 9 5 57 -41 110 -108 26 -33 29 -43 19 -55 -10 -14 -10 -14 5 -3 14 12 20 7 44 -35 15 -26 32 -54 37 -61 7 -9 6 -11 -4 -9 -8 2 -11 2 -7 0 4 -2 6 -10 4 -16 -1 -7 -1 -9 1 -4 10 16 22 4 53 -54 18 -34 26 -58 19 -54 -10 6 -9 2 2 -11 22 -26 34 -48 23 -42 -5 4 -9 -5 -9 -18 0 -27 15 -33 15 -6 1 9 11 -10 24 -43 15 -42 22 -79 20 -121 -1 -43 2 -61 11 -61 7 0 11 7 8 16 -4 14 -3 14 5 1 10 -15 26 -115 37 -230 8 -81 -10 -269 -36 -379 -35 -151 -49 -191 -67 -191 -14 0 -14 -2 -3 -9 12 -8 11 -18 -8 -63 -51 -120 -84 -188 -93 -188 -5 0 -6 -4 -3 -10 3 -6 1 -10 -5 -10 -6 0 -9 -4 -6 -9 13 -20 -178 -295 -197 -284 -7 3 -9 2 -4 -2 10 -11 -53 -76 -66 -68 -6 3 -7 2 -4 -4 3 -5 -11 -26 -31 -45 -39 -37 -48 -39 -149 -24 -29 4 -53 12 -53 16 0 4 -8 6 -17 4 -10 -3 -26 1 -35 8 -16 12 -13 20 26 103 104 216 157 413 181 665 4 36 11 69 16 75 5 5 9 14 9 20 0 5 -5 3 -10 -5 -7 -11 -10 1 -10 40 -1 78 -26 252 -49 339 -11 40 -17 80 -13 89 3 9 1 13 -5 9 -13 -8 -66 130 -56 147 3 6 3 8 -2 4 -11 -10 -107 160 -99 174 4 6 3 8 -3 5 -6 -4 -16 0 -23 8 -10 12 -10 19 1 33 12 15 12 16 -2 4 -14 -10 -19 -9 -31 10 -29 44 -248 256 -248 240 0 -2 -21 11 -47 30 -27 19 -76 49 -110 68 -35 18 -63 37 -63 43 0 6 -3 8 -6 4 -6 -6 -143 58 -154 72 -3 3 -14 8 -24 9 -11 2 -53 19 -94 38 -40 19 -76 34 -78 34 -18 0 -163 74 -158 81 3 5 -1 6 -9 3 -15 -5 -197 80 -208 98 -3 5 -8 8 -11 6 -7 -5 -164 91 -221 135 -114 89 -216 205 -201 228 4 7 3 9 -3 6 -34 -21 -81 183 -69 291 10 92 28 172 36 167 5 -3 6 3 4 12 -6 22 29 124 91 272 43 101 71 141 89 124 3 -3 6 -1 6 6 0 8 -7 11 -15 7 -18 -7 -10 11 63 141 45 80 67 103 60 66z m-195 -1416 c-3 -6 -1 -7 4 -4 11 7 108 -53 130 -80 6 -8 14 -13 18 -12 11 3 205 -113 205 -123 0 -5 4 -7 9 -4 14 9 42 -5 34 -17 -3 -5 -1 -7 4 -4 15 9 176 -67 166 -77 -5 -5 -2 -6 5 -1 8 4 24 3 35 -3 59 -29 155 -71 175 -77 12 -3 20 -10 17 -15 -3 -4 2 -11 11 -14 8 -3 12 -2 9 4 -3 6 -3 10 0 10 12 0 150 -74 153 -82 2 -5 7 -6 12 -3 9 6 91 -38 93 -51 1 -4 9 -9 17 -9 24 -2 131 -75 125 -85 -3 -6 0 -7 8 -4 8 3 18 0 23 -7 5 -8 3 -10 -6 -4 -9 5 -11 4 -6 -4 4 -6 12 -9 17 -5 5 3 32 -17 60 -45 28 -28 55 -51 60 -51 5 0 9 -7 9 -15 0 -8 5 -15 11 -15 5 0 7 -5 3 -12 -4 -6 -3 -8 4 -4 15 9 123 -141 115 -161 -4 -11 -2 -14 5 -9 15 9 32 -25 26 -55 -3 -18 -2 -20 4 -6 6 15 10 12 24 -20 45 -103 74 -194 92 -283 3 -14 9 -47 15 -75 17 -83 8 -387 -14 -482 -10 -46 -22 -83 -26 -83 -5 0 -6 -6 -3 -13 11 -29 -133 -382 -164 -401 -4 -2 -23 3 -41 11 -24 12 -29 18 -19 25 9 6 7 8 -8 6 -25 -4 -147 79 -138 93 3 5 1 8 -5 7 -16 -5 -172 112 -165 124 4 7 2 8 -4 4 -6 -4 -35 13 -64 36 -29 24 -74 58 -100 77 -26 19 -45 38 -41 44 3 6 1 7 -4 4 -6 -4 -34 12 -62 35 -37 30 -48 44 -39 51 9 5 5 6 -9 2 -15 -4 -26 1 -37 17 -9 13 -17 21 -19 18 -1 -2 -13 3 -26 12 -14 10 -20 21 -16 29 5 8 4 10 -4 5 -14 -9 -74 32 -66 45 4 5 -1 6 -9 3 -20 -8 -201 170 -190 187 4 7 3 10 -4 5 -16 -9 -66 100 -65 142 1 20 -2 30 -7 23 -9 -16 -45 123 -36 145 3 8 2 13 -3 10 -4 -3 -25 61 -46 142 -20 81 -46 178 -57 216 -11 38 -20 83 -21 101 -1 18 -4 31 -7 29 -7 -7 -121 449 -115 464 2 6 1 12 -4 12 -4 0 -20 49 -36 110 -26 104 -28 149 -5 135 5 -3 10 -1 10 5 0 7 -8 9 -19 5 -14 -4 -21 0 -26 17 -18 63 -19 61 9 37 14 -12 23 -27 19 -32z"/>
<path d="M6906 4921 c2 -2 -1 -10 -6 -16 -12 -15 -18 -88 -19 -232 l-1 -103 -155 0 c-152 0 -156 -1 -180 -25 -14 -13 -25 -35 -25 -48 0 -29 41 -85 58 -80 6 3 12 1 12 -4 0 -6 7 -10 15 -10 8 0 12 4 9 9 -3 4 57 8 133 8 l138 0 -3 -133 c-3 -153 8 -204 50 -225 32 -15 70 -1 87 32 7 12 12 85 14 173 l2 153 143 0 c177 0 202 9 202 78 0 19 -8 40 -20 52 -18 18 -33 20 -169 20 -110 0 -150 3 -153 13 -3 6 -6 80 -7 162 -2 179 -2 176 -13 169 -5 -3 -15 -1 -22 5 -12 10 -100 12 -90 2z"/>
<path d="M7526 8074 c-17 -16 -19 -46 -16 -246 l1 -97 -27 -7 c-17 -4 -29 -2 -35 7 -5 8 -9 9 -9 3 0 -7 -39 -11 -115 -12 -63 -1 -124 -6 -135 -12 -54 -29 -63 -110 -14 -132 13 -6 20 -16 17 -22 -4 -6 0 -6 8 1 14 11 46 11 106 -1 13 -3 25 -1 27 3 6 8 60 6 75 -4 6 -3 16 -3 23 1 24 15 58 10 58 -8 0 -9 5 -20 10 -23 6 -4 10 -65 10 -151 0 -144 0 -144 28 -172 25 -25 71 -44 59 -25 -3 5 7 14 22 21 36 16 40 41 42 232 1 88 4 135 9 120 5 -17 8 -19 9 -7 1 20 -1 19 180 21 124 1 134 3 151 23 10 12 19 20 21 18 2 -2 4 14 4 35 0 21 -3 36 -7 34 -4 -3 -10 2 -15 9 -19 33 -56 40 -204 38 l-147 -2 -1 150 c-1 156 -4 174 -29 204 -19 22 -85 23 -106 1z"/>
<path d="M2494 7657 c-15 -12 -26 -36 -34 -75 -18 -90 -40 -153 -52 -146 -6 4 -8 2 -4 -4 3 -5 -9 -29 -26 -53 -39 -50 -131 -100 -219 -119 -63 -14 -109 -41 -109 -66 0 -9 -5 -12 -12 -8 -10 6 -10 4 0 -7 6 -7 12 -21 12 -30 0 -20 36 -45 76 -55 16 -3 35 -13 42 -22 7 -10 12 -11 12 -4 0 7 7 12 15 12 8 0 15 -4 15 -9 0 -5 6 -9 13 -8 32 1 48 -4 42 -13 -4 -6 -3 -10 2 -9 27 5 48 -5 86 -40 50 -46 100 -133 86 -150 -5 -6 -6 -8 -2 -5 7 4 44 -120 46 -153 0 -7 3 -12 6 -11 3 0 17 0 31 -1 20 -1 22 -3 10 -11 -23 -15 -7 -12 27 5 44 22 49 31 67 117 9 42 21 89 26 104 16 41 80 115 92 108 6 -4 8 -2 5 3 -9 14 61 56 80 49 8 -3 12 -2 9 3 -3 5 16 14 42 21 105 27 127 37 142 63 13 23 12 30 -3 62 -9 19 -27 39 -39 44 -45 18 -64 23 -95 27 -31 3 -113 39 -113 50 0 3 5 2 12 -2 7 -4 8 -3 4 4 -4 6 -14 8 -23 5 -11 -4 -14 -3 -9 5 4 7 2 10 -7 7 -16 -7 -95 95 -103 134 -4 14 -12 45 -20 69 -8 23 -14 51 -14 61 0 10 -9 26 -20 36 -11 10 -18 20 -16 24 9 14 -60 4 -80 -12z m62 -324 c7 -10 14 -27 14 -37 0 -11 3 -16 7 -13 9 10 34 -14 26 -26 -3 -5 -1 -7 4 -4 11 7 41 -21 42 -38 1 -5 9 -10 19 -11 24 -2 52 -15 52 -24 0 -11 -93 -65 -105 -61 -5 1 -7 -1 -3 -4 4 -4 -8 -28 -27 -53 -19 -25 -35 -49 -35 -54 0 -11 -15 4 -57 58 -18 23 -29 44 -25 48 4 4 2 6 -3 5 -17 -5 -56 21 -49 33 4 6 3 8 -4 4 -6 -3 -22 -1 -36 5 l-26 12 38 25 c41 28 131 108 133 120 7 35 16 39 35 15z"/>
</g>
</svg>
