<?xml version="1.0" standalone="no"?>
<!DOCTYPE svg PUBLIC "-//W3C//DTD SVG 20010904//EN" "http://www.w3.org/TR/2001/REC-SVG-20010904/DTD/svg10.dtd">
<svg xmlns="http://www.w3.org/2000/svg" version="1.0" width="1024.000000pt" height="1024.000000pt" viewBox="0 0 1024.000000 1024.000000" preserveAspectRatio="xMidYMid meet">
<metadata>
Created by potrace 1.16, written by Peter Selinger 2001-2019
<meta name="Producer" content="Online-Convert"/></metadata>
<g transform="translate(0.000000,1024.000000) scale(0.100000,-0.100000)" fill="#000000" stroke="none">
<path d="M4713 8708 c-40 -20 -48 -60 -29 -149 9 -44 14 -84 10 -91 -4 -6 -3 -8 4 -5 12 8 36 -122 29 -159 -2 -13 0 -27 5 -30 5 -3 3 -13 -4 -22 -11 -13 -11 -15 2 -7 12 6 13 5 3 -6 -16 -16 -17 -33 -2 -23 8 4 10 -11 6 -52 -2 -33 -7 -97 -10 -144 -7 -103 -45 -259 -91 -378 -33 -87 -83 -192 -95 -202 -3 -3 -7 -12 -9 -20 -6 -31 -97 -178 -106 -173 -5 3 -6 2 -3 -4 8 -13 -47 -95 -58 -86 -4 5 -5 3 -2 -3 8 -15 -22 -56 -35 -48 -7 4 -8 2 -4 -5 10 -15 -62 -104 -76 -95 -7 4 -8 2 -4 -5 10 -15 -92 -133 -107 -124 -6 3 -7 1 -3 -6 9 -15 -292 -323 -307 -314 -6 3 -7 2 -4 -4 8 -13 -147 -166 -158 -156 -4 4 -5 3 -2 -3 6 -10 -137 -161 -158 -166 -5 -2 -9 -6 -8 -10 2 -4 -29 -39 -67 -80 -39 -40 -70 -74 -70 -76 0 -11 -104 -127 -112 -124 -4 1 -7 -2 -6 -7 3 -8 -30 -57 -102 -151 -15 -19 -32 -45 -39 -58 -7 -12 -16 -20 -20 -17 -5 2 -8 -3 -7 -13 0 -9 -5 -16 -12 -14 -8 1 -11 -2 -8 -7 6 -10 -68 -141 -86 -152 -5 -3 -9 -9 -9 -13 0 -3 -11 -31 -26 -61 -19 -38 -30 -51 -36 -42 -5 7 -6 3 -2 -11 4 -15 1 -24 -9 -28 -9 -3 -14 -10 -11 -14 6 -10 -36 -101 -44 -95 -3 1 -7 -8 -8 -22 0 -14 -5 -28 -10 -32 -4 -3 -9 -13 -11 -21 -9 -43 -66 -179 -73 -174 -5 3 -7 -1 -4 -8 3 -7 -13 -83 -34 -168 -22 -85 -40 -147 -40 -137 -1 9 -6 17 -12 17 -7 0 -6 -8 3 -23 13 -19 13 -32 1 -97 -7 -41 -16 -168 -20 -282 -4 -141 -10 -208 -17 -208 -6 0 -5 -4 3 -9 14 -9 42 -199 45 -303 0 -25 4 -42 7 -36 3 5 12 -19 19 -54 15 -75 33 -139 64 -228 13 -36 22 -73 20 -83 -1 -11 0 -16 4 -13 10 10 62 -113 56 -132 -5 -14 -4 -15 5 -2 9 13 11 13 11 -2 0 -10 0 -21 -1 -24 0 -4 3 -10 9 -13 20 -13 66 -106 64 -130 -1 -16 1 -21 6 -14 13 20 134 -174 126 -201 -5 -16 -4 -18 6 -9 16 15 56 -19 45 -38 -5 -7 -4 -10 2 -6 6 4 16 0 23 -8 7 -8 10 -15 7 -15 -4 0 47 -55 113 -123 66 -67 126 -131 135 -142 9 -11 13 -13 9 -5 -5 8 6 4 23 -10 18 -14 32 -30 32 -37 1 -6 6 -15 13 -19 7 -5 8 -2 3 7 -5 8 3 4 16 -8 13 -12 70 -53 127 -91 57 -39 103 -74 103 -79 1 -4 3 -10 6 -13 4 -3 3 1 -1 8 -11 18 -4 16 60 -23 32 -19 62 -35 67 -35 4 0 5 -5 1 -12 -4 -6 -3 -8 4 -5 9 6 68 -18 82 -34 3 -3 20 -11 38 -18 17 -8 32 -17 32 -22 0 -5 3 -8 8 -7 14 4 82 -24 82 -33 0 -6 4 -8 8 -5 4 2 46 -9 92 -26 136 -49 259 -83 470 -132 104 -24 178 -14 198 27 24 50 22 54 -58 128 -43 40 -76 78 -73 83 3 6 2 8 -2 3 -11 -10 -86 63 -78 76 3 6 1 7 -4 4 -6 -4 -26 10 -44 31 -114 129 -141 161 -167 197 -16 22 -27 45 -25 52 2 6 -1 15 -8 19 -8 5 -10 3 -5 -7 17 -31 -28 31 -70 98 -26 41 -42 77 -38 84 4 7 3 9 -3 6 -14 -9 -44 48 -37 70 4 12 3 14 -3 5 -7 -9 -20 10 -46 66 -40 83 -44 97 -25 86 7 -4 8 -3 4 5 -4 6 -11 9 -15 6 -18 -11 -118 291 -107 322 3 8 2 12 -3 9 -9 -6 -10 -2 -43 164 -23 118 -39 540 -21 540 6 0 8 11 5 25 -9 50 37 284 83 420 31 93 68 175 76 169 5 -3 6 2 3 10 -3 9 13 50 37 93 23 43 47 87 53 98 32 59 109 175 117 175 5 0 9 5 9 11 0 6 19 37 43 68 100 133 140 180 150 174 5 -3 7 -1 3 5 -6 9 122 167 130 159 7 -6 -19 -147 -27 -147 -5 0 -6 7 -3 15 4 8 1 15 -6 15 -6 0 -10 -10 -8 -22 2 -13 9 -22 16 -20 9 1 12 -4 9 -15 -17 -59 -23 -410 -9 -539 6 -61 5 -71 -8 -66 -11 3 -11 1 2 -9 11 -9 21 -42 28 -94 6 -44 22 -131 36 -193 13 -63 21 -119 17 -124 -3 -6 -1 -8 4 -5 6 4 15 -10 21 -34 9 -36 8 -40 -6 -35 -12 5 -11 1 4 -11 17 -15 47 -82 71 -163 4 -13 4 -13 -6 0 -9 13 -11 13 -11 -2 0 -10 7 -18 16 -18 8 0 13 -4 10 -9 -4 -5 -1 -11 5 -13 6 -2 12 -15 12 -30 1 -14 5 -25 8 -23 3 2 18 -24 34 -58 15 -34 48 -97 71 -141 24 -43 41 -83 37 -89 -4 -6 -1 -7 7 -2 10 6 12 4 7 -9 -4 -9 -3 -15 2 -12 5 3 16 -5 25 -19 19 -29 20 -39 4 -29 -7 4 -8 3 -4 -5 4 -6 11 -9 16 -6 4 2 23 -17 41 -45 19 -27 44 -51 56 -54 52 -14 111 40 99 90 -5 18 -3 24 5 18 8 -5 9 -3 5 5 -5 7 -10 10 -13 7 -7 -7 -58 61 -115 154 -65 106 -90 159 -82 172 4 6 3 8 -4 4 -10 -6 -28 30 -24 47 1 4 -3 7 -9 7 -7 0 -9 10 -5 28 4 16 3 22 -2 14 -11 -16 -67 122 -56 139 4 8 3 9 -4 5 -7 -4 -12 -5 -12 -3 0 2 -11 41 -25 88 -125 412 -142 874 -50 1337 14 68 25 134 25 147 0 26 -51 75 -78 75 -26 0 -78 -35 -118 -80 -20 -22 -40 -37 -45 -34 -5 3 -9 -3 -9 -13 0 -23 -63 -87 -74 -76 -4 5 -6 3 -4 -4 5 -18 -133 -177 -142 -163 -5 8 -9 7 -13 -5 -4 -9 -3 -13 3 -10 16 10 11 -8 -9 -32 -11 -13 -26 -23 -35 -23 -9 0 -16 -5 -16 -11 0 -5 5 -7 10 -4 6 4 -23 -40 -65 -97 -42 -56 -81 -102 -87 -100 -5 1 -7 -2 -4 -7 4 -5 -21 -52 -54 -105 -33 -52 -76 -129 -97 -170 -25 -52 -40 -72 -46 -63 -6 8 -7 6 -3 -6 6 -18 -30 -106 -49 -119 -5 -4 -7 -8 -3 -8 4 0 2 -14 -4 -31 -8 -24 -13 -28 -20 -17 -8 10 -8 9 -4 -5 3 -9 -9 -69 -28 -132 -27 -95 -35 -112 -46 -102 -12 10 -12 9 -2 -5 10 -13 10 -34 -2 -105 -25 -141 -37 -307 -34 -464 2 -81 6 -145 9 -143 4 2 10 -29 14 -69 3 -39 16 -115 27 -167 11 -52 21 -107 22 -122 0 -14 4 -24 9 -21 4 2 7 -2 7 -10 0 -8 13 -54 30 -103 33 -100 35 -110 15 -74 -8 14 -14 19 -14 10 0 -16 29 -60 29 -44 1 10 19 -28 61 -131 16 -38 22 -61 14 -51 -8 11 -15 25 -15 32 0 7 -4 15 -10 19 -18 11 12 -55 32 -69 12 -9 17 -19 13 -27 -5 -8 -4 -10 4 -5 6 4 14 0 18 -11 4 -10 37 -71 74 -135 37 -65 65 -118 61 -118 -3 0 4 -7 16 -16 14 -9 21 -22 18 -31 -3 -8 -2 -11 3 -8 16 9 25 -16 10 -27 -11 -8 -10 -9 3 -4 19 6 43 -25 30 -39 -4 -5 -2 -5 4 -2 7 4 30 -17 54 -51 24 -31 59 -75 79 -96 20 -21 29 -35 21 -31 -8 5 8 -12 35 -38 37 -34 44 -44 28 -40 -13 3 -23 9 -23 14 0 4 -9 6 -19 4 -28 -5 -121 21 -96 27 11 3 5 5 -15 5 -58 -1 -390 132 -390 156 0 6 -3 7 -7 4 -14 -15 -237 119 -226 136 3 6 1 7 -6 3 -15 -10 -123 63 -114 77 3 6 1 7 -5 3 -15 -9 -200 151 -289 250 -79 87 -188 224 -178 224 3 0 -3 9 -13 20 -25 26 -98 152 -95 162 2 4 -1 8 -6 8 -9 0 -35 54 -31 66 1 4 -3 10 -8 13 -17 10 -94 201 -88 217 3 8 2 13 -3 10 -27 -17 -123 435 -120 564 1 36 -2 73 -6 83 -4 10 -5 78 -1 150 3 73 6 141 6 152 0 12 3 16 8 9 4 -7 7 20 8 60 1 87 29 228 82 406 35 121 122 321 134 313 6 -3 8 -1 5 5 -4 5 -4 18 -1 27 6 13 9 14 16 3 7 -9 8 -8 4 6 -6 16 52 140 73 156 3 3 7 10 8 17 4 18 60 103 65 98 3 -3 5 1 5 8 0 21 35 67 46 60 6 -3 7 -1 3 5 -9 15 23 64 37 55 5 -3 7 -2 4 4 -8 12 41 79 54 75 6 -1 8 1 5 6 -7 12 42 78 55 74 6 -1 8 1 5 6 -6 11 82 118 94 114 6 -1 9 4 8 10 -2 7 3 12 10 10 6 -1 11 2 10 7 -4 15 71 101 85 97 6 -1 8 -1 4 2 -5 2 2 15 14 28 12 13 26 21 32 17 6 -3 7 -2 4 4 -3 5 50 65 119 134 69 68 159 159 201 201 42 43 81 74 87 71 6 -3 8 -2 3 2 -4 5 0 17 9 27 14 15 20 16 33 5 14 -10 14 -10 4 4 -11 13 -10 19 5 33 10 9 22 13 26 9 4 -5 6 -3 4 3 -4 14 142 175 154 168 5 -3 7 -1 6 4 -5 16 133 183 144 176 7 -4 8 -2 4 4 -9 15 73 134 87 125 6 -4 7 -1 3 6 -5 7 -1 20 7 29 40 46 185 321 218 414 7 20 17 34 22 31 6 -3 7 -2 4 4 -3 5 5 45 19 89 65 202 94 452 75 637 -6 62 -13 122 -15 135 -3 12 -1 22 5 22 5 0 9 -8 10 -17 0 -11 3 -13 6 -5 6 17 104 -58 98 -76 -3 -7 0 -10 6 -6 16 9 89 -65 82 -85 -4 -14 -3 -14 6 -1 9 12 22 3 77 -55 129 -138 194 -212 194 -224 0 -6 4 -11 8 -11 15 0 122 -151 115 -162 -3 -6 -1 -8 4 -5 16 10 55 -55 40 -66 -8 -6 -7 -7 4 -4 12 4 29 -15 63 -68 47 -74 55 -92 34 -79 -7 4 -8 3 -4 -5 4 -6 11 -9 16 -6 11 7 52 -64 44 -77 -4 -6 -3 -8 2 -5 6 3 33 -37 62 -88 55 -98 61 -115 37 -95 -16 14 -20 3 -6 -19 5 -7 14 -10 20 -7 14 9 65 -100 55 -116 -4 -6 -3 -8 3 -5 5 3 28 -39 51 -95 23 -55 36 -95 28 -89 -10 9 -13 5 -14 -20 -1 -28 1 -29 12 -14 12 17 13 17 19 1 4 -9 3 -15 -1 -12 -4 2 -8 -7 -8 -20 -2 -22 0 -23 10 -9 10 14 15 5 34 -53 12 -38 20 -78 16 -88 -4 -14 -3 -15 4 -6 7 11 11 7 15 -15 3 -15 0 -34 -6 -42 -9 -11 -9 -13 0 -8 21 13 58 -141 88 -372 29 -222 14 -555 -35 -786 -38 -183 -52 -235 -61 -229 -5 3 -6 -1 -3 -9 8 -21 -65 -239 -78 -231 -6 4 -8 -1 -4 -14 9 -27 -32 -134 -47 -126 -9 5 -9 4 0 -6 8 -9 7 -23 -4 -57 -12 -33 -18 -42 -25 -32 -7 10 -8 5 -4 -14 4 -15 -1 -57 -10 -95 -24 -95 -21 -231 5 -306 11 -32 18 -63 14 -69 -3 -5 -1 -7 4 -4 14 9 37 -19 28 -33 -3 -5 -1 -10 6 -10 7 0 21 -7 30 -16 14 -13 16 -21 8 -36 -6 -11 -8 -22 -6 -25 3 -2 8 5 12 17 4 12 10 19 13 18 87 -47 196 -61 271 -34 25 8 48 13 53 10 4 -3 8 -1 8 4 0 4 18 19 41 31 53 30 143 121 187 190 82 128 152 320 167 459 3 31 8 72 11 90 5 33 6 33 24 17 11 -10 17 -23 13 -29 -3 -6 -3 -8 2 -4 11 10 37 -11 29 -23 -3 -5 0 -8 8 -7 7 2 12 -3 11 -9 -2 -7 3 -13 10 -13 20 0 159 -152 153 -167 -3 -8 -2 -12 3 -9 13 8 63 -62 55 -76 -4 -6 -3 -8 4 -4 11 7 65 -75 60 -90 -2 -5 1 -9 6 -9 32 0 155 -352 143 -412 -2 -12 -1 -20 3 -18 4 2 10 -33 13 -78 9 -114 9 -169 -2 -163 -5 3 -12 -1 -15 -10 -9 -23 -7 -34 5 -34 6 0 9 7 5 15 -3 8 -1 15 5 15 12 0 0 -153 -12 -158 -4 -2 -6 -9 -3 -16 9 -23 -60 -306 -75 -306 -3 0 -7 -10 -7 -23 -2 -35 -65 -167 -77 -160 -5 3 -7 0 -5 -8 11 -31 -120 -249 -149 -249 -13 0 -15 -3 -5 -8 9 -7 6 -15 -13 -36 -14 -15 -25 -31 -25 -35 0 -4 -9 -16 -19 -25 -15 -13 -20 -14 -25 -4 -3 7 -4 4 -1 -8 4 -17 -19 -47 -106 -138 -71 -74 -117 -115 -126 -112 -8 3 -12 2 -9 -3 3 -5 -11 -23 -32 -41 -20 -17 -52 -45 -70 -61 -29 -26 -35 -29 -50 -17 -15 11 -16 11 -4 -3 11 -15 -2 -26 -110 -96 -150 -98 -165 -106 -180 -97 -6 4 -8 3 -4 -4 4 -6 -44 -36 -123 -76 -72 -36 -133 -66 -136 -66 -3 0 -3 6 0 12 3 7 0 5 -7 -5 -12 -16 -229 -107 -290 -121 -23 -5 -26 -4 -21 11 6 16 5 16 -10 4 -9 -7 -15 -17 -12 -21 3 -5 0 -10 -5 -12 -17 -5 -40 -82 -28 -89 6 -4 8 -11 5 -16 -3 -5 -1 -10 6 -10 7 -1 26 -7 43 -14 28 -11 43 -8 165 36 74 27 163 61 197 77 35 15 69 25 74 21 6 -3 8 -2 5 4 -3 5 17 20 46 32 29 12 92 45 140 72 48 27 92 47 98 44 5 -4 8 -2 7 3 -2 6 41 40 96 77 78 53 100 64 108 54 8 -11 9 -10 4 3 -3 12 8 26 36 47 23 17 45 28 50 25 5 -3 7 -1 6 4 -2 5 40 47 92 94 52 47 110 102 129 121 19 20 38 34 43 31 5 -3 7 -1 6 4 -5 16 83 113 94 105 7 -3 8 -1 4 5 -4 6 14 38 40 72 48 61 61 73 50 44 -3 -9 -2 -12 5 -9 6 4 8 14 5 22 -3 8 7 33 23 56 46 68 122 206 161 294 20 46 39 81 41 79 2 -2 5 5 6 17 0 12 17 72 36 132 68 213 92 464 67 675 -8 58 -13 119 -13 137 0 18 -4 30 -7 28 -4 -3 -15 26 -25 63 -10 37 -26 89 -37 115 -10 27 -15 54 -12 60 4 7 4 9 -1 5 -10 -9 -85 143 -78 157 4 5 3 7 -2 3 -5 -5 -26 20 -49 55 -22 34 -59 87 -83 117 -31 40 -39 57 -30 63 8 6 6 7 -5 3 -20 -6 -81 61 -71 77 3 6 2 7 -4 4 -5 -3 -27 12 -48 33 -22 22 -35 40 -30 40 6 0 0 6 -12 13 -11 6 -57 41 -101 77 -63 51 -77 66 -64 72 12 4 7 6 -13 7 -16 0 -42 0 -57 0 -42 0 -68 -3 -63 -7 2 -3 -2 -16 -9 -31 -8 -16 -15 -78 -19 -159 -4 -114 -7 -135 -23 -148 -11 -9 -13 -13 -6 -9 16 8 15 -6 -3 -84 -28 -116 -142 -330 -168 -314 -6 3 -7 2 -4 -4 8 -13 -37 -56 -47 -46 -4 5 -6 1 -4 -7 2 -8 -3 -14 -9 -13 -7 2 -12 -2 -10 -8 3 -18 -101 -69 -137 -68 -30 1 -30 1 -6 10 19 7 15 8 -17 4 -36 -4 -47 -1 -72 22 -17 16 -32 35 -33 43 -2 8 -7 18 -12 22 -21 14 -18 247 2 234 4 -2 7 9 8 26 2 46 36 148 47 141 6 -3 7 -1 3 6 -10 16 13 83 26 75 7 -4 8 -2 4 4 -4 7 11 67 33 134 196 605 218 1093 74 1646 -20 75 -36 149 -36 164 0 15 -3 25 -8 23 -4 -3 -15 16 -25 42 -32 88 -95 246 -110 275 -8 16 -12 33 -9 38 3 6 2 10 -4 10 -14 0 -52 90 -44 103 3 5 2 7 -4 4 -5 -3 -21 17 -34 46 -13 29 -26 54 -29 57 -20 18 -149 254 -143 263 3 5 1 7 -4 4 -6 -4 -19 5 -28 19 -12 18 -13 24 -4 19 8 -4 2 3 -12 16 -15 13 -46 53 -69 87 -23 35 -71 99 -106 143 -35 43 -64 80 -64 81 0 2 -22 28 -50 57 -27 29 -47 58 -43 64 3 5 2 8 -3 5 -9 -6 -164 148 -157 157 1 3 0 3 -4 0 -9 -7 -109 88 -105 100 2 6 0 7 -4 3 -10 -11 -35 12 -27 25 3 5 1 7 -4 4 -11 -7 -88 49 -88 63 0 5 -4 12 -9 17 -5 5 -6 3 -2 -4 4 -7 5 -13 2 -13 -5 0 -126 80 -136 90 -10 10 -86 9 -107 -2z"/>
<path d="M7686 7179 c5 -8 -358 -405 -368 -401 -4 1 -7 -4 -6 -10 2 -7 -3 -12 -10 -10 -8 1 -11 -1 -8 -6 7 -12 -38 -54 -49 -45 -4 5 -5 2 -1 -5 11 -18 -134 -167 -146 -150 -6 9 -7 6 -3 -8 4 -16 -2 -28 -25 -47 -58 -49 -62 -114 -8 -147 16 -10 39 -15 51 -12 19 4 176 145 176 158 1 14 135 152 144 147 6 -3 7 -2 4 4 -9 14 92 125 105 117 6 -4 8 -3 5 3 -6 9 75 105 199 234 73 77 85 107 59 156 -18 33 -21 34 -71 31 -29 -1 -51 -6 -48 -9z"/>
<path d="M7775 5824 c-121 -18 -278 -41 -350 -50 -156 -19 -192 -32 -200 -71 -4 -15 -11 -38 -16 -51 -13 -33 -11 -39 6 -16 14 18 16 18 19 -8 1 -7 7 -12 14 -10 7 1 12 -2 12 -7 0 -4 14 -7 32 -5 17 2 68 5 114 6 45 2 80 6 78 10 -2 3 20 9 48 13 29 3 149 20 267 36 117 16 221 29 230 29 14 0 14 -2 1 -10 -13 -8 -12 -10 3 -10 9 0 17 7 17 15 0 9 9 15 21 15 11 0 34 14 51 30 24 25 29 36 23 58 -18 74 -46 76 -370 26z"/>
</g>
</svg>
