<?xml version="1.0" standalone="no"?>
<!DOCTYPE svg PUBLIC "-//W3C//DTD SVG 20010904//EN"
 "http://www.w3.org/TR/2001/REC-SVG-20010904/DTD/svg10.dtd">
<svg version="1.0" xmlns="http://www.w3.org/2000/svg"
 width="1024.000000pt" height="1024.000000pt" viewBox="0 0 1024.000000 1024.000000"
 preserveAspectRatio="xMidYMid meet">
<metadata>
Created by potrace 1.16, written by Peter Selinger 2001-2019
</metadata>
<g transform="translate(0.000000,1024.000000) scale(0.100000,-0.100000)"
fill="#000000" stroke="none">
<path d="M4750 7570 c-25 -4 -64 -10 -87 -13 -66 -10 -231 -55 -271 -76 -21
-10 -48 -22 -61 -26 -34 -10 -136 -74 -223 -138 -202 -150 -368 -374 -458
-620 -20 -53 -38 -95 -41 -93 -2 2 -4 -8 -5 -22 0 -15 -11 -90 -22 -167 -12
-77 -22 -141 -22 -141 0 -1 -53 -4 -117 -7 -115 -5 -243 -31 -308 -61 -82 -39
-128 -55 -137 -49 -7 4 -8 1 -3 -7 6 -9 1 -10 -16 -5 -16 4 -20 3 -11 -3 18
-12 -72 -73 -96 -65 -13 4 -14 3 -4 -5 10 -7 6 -15 -18 -36 -17 -14 -36 -24
-41 -20 -5 3 -9 -1 -9 -8 0 -19 -64 -80 -74 -71 -4 5 -6 1 -4 -7 1 -8 -2 -14
-9 -15 -6 0 -15 -4 -20 -9 -5 -5 -3 -6 5 -2 16 9 16 -2 0 -19 -88 -91 -188
-297 -213 -435 -4 -19 -9 -64 -12 -100 -3 -36 -9 -70 -15 -77 -5 -6 -5 -14 0
-17 4 -3 9 -27 11 -53 4 -85 16 -156 38 -226 8 -26 12 -55 9 -63 -3 -8 -2 -13
2 -10 5 3 28 -32 51 -78 23 -46 71 -119 106 -162 52 -64 62 -81 52 -94 -9 -12
-9 -13 3 -3 11 10 21 6 54 -21 74 -59 148 -108 217 -141 38 -18 65 -36 61 -40
-4 -5 -2 -5 5 -1 6 3 45 -2 85 -13 40 -11 99 -22 130 -25 64 -6 796 -13 2458
-22 613 -3 1144 -7 1180 -9 244 -11 394 1 509 40 81 27 202 95 248 137 19 19
36 27 44 23 7 -5 10 -4 6 2 -4 6 11 33 32 59 21 27 43 59 50 72 7 12 17 20 23
16 6 -4 8 -3 5 3 -4 6 4 37 17 70 14 32 27 79 31 103 4 25 9 52 10 60 2 8 4
25 4 38 1 13 5 21 10 18 8 -6 7 53 -3 102 -3 15 -8 41 -11 57 -2 17 -14 61
-25 99 -10 38 -17 73 -13 79 3 6 2 7 -4 4 -5 -3 -18 11 -27 31 -30 63 -102
156 -163 212 -32 29 -58 57 -58 61 0 4 -4 11 -9 16 -5 5 -6 3 -2 -4 11 -19 1
-16 -51 16 -48 29 -132 61 -211 81 -23 6 -40 15 -37 20 3 6 1 45 -6 87 -6 43
-12 88 -13 101 0 12 -4 22 -8 22 -5 0 -8 5 -8 11 0 22 -87 196 -128 255 -42
62 -166 187 -217 220 -16 10 -32 22 -35 25 -12 16 -179 91 -225 101 -39 8 -46
12 -30 18 13 5 5 7 -25 7 -25 0 -79 4 -120 9 -89 10 -152 10 -240 -1 -68 -8
-99 -9 -107 -2 -2 3 -6 16 -9 31 -2 14 -16 57 -30 96 -14 39 -22 76 -18 83 4
6 4 9 0 5 -5 -4 -28 32 -53 80 -53 101 -124 206 -187 276 -25 27 -42 54 -39
59 3 6 1 7 -4 4 -12 -7 -46 26 -38 36 3 4 2 5 -1 2 -9 -6 -120 86 -116 97 1 5
-2 7 -7 3 -6 -3 -32 10 -58 29 -26 19 -76 48 -111 66 -34 17 -60 36 -57 41 3
5 0 7 -7 4 -15 -6 -111 28 -103 36 3 3 -4 5 -15 4 -11 -1 -53 7 -93 17 -39 11
-82 21 -95 24 -76 15 -282 24 -342 14z m289 -176 c37 -4 50 -9 40 -15 -9 -5
-10 -9 -2 -9 6 0 14 4 17 9 4 5 42 -2 89 -15 103 -31 290 -122 281 -136 -4 -6
-2 -8 4 -4 14 9 91 -51 190 -148 111 -108 128 -132 110 -154 -12 -15 -11 -16
4 -4 17 14 34 1 23 -18 -4 -6 -1 -9 6 -8 15 4 61 -72 54 -90 -3 -7 -1 -11 4
-8 11 7 22 -20 15 -38 -3 -8 0 -17 7 -22 8 -5 10 -3 5 7 -4 8 -1 6 7 -4 24
-30 81 -218 82 -269 0 -25 2 -44 4 -42 2 2 9 -6 15 -18 6 -11 23 -30 38 -41
l26 -20 99 28 c165 48 351 40 511 -21 23 -8 40 -20 37 -25 -4 -5 0 -6 7 -4 22
9 137 -72 213 -149 76 -76 141 -177 131 -202 -3 -8 -2 -13 3 -10 12 8 35 -50
25 -65 -4 -7 -3 -10 4 -5 16 9 42 -122 45 -226 1 -61 6 -89 15 -93 7 -3 11 -9
8 -13 -3 -5 0 -9 7 -10 89 -10 307 -78 307 -96 0 -3 -7 -2 -17 1 -11 4 -14 3
-9 -6 4 -6 15 -9 25 -6 19 6 94 -51 86 -66 -4 -5 1 -6 9 -3 14 5 43 -32 38
-49 -1 -5 2 -6 6 -3 16 9 79 -97 102 -170 68 -220 -7 -469 -176 -583 -43 -30
-145 -80 -173 -86 -9 -2 -36 -8 -61 -14 -25 -5 -110 -13 -191 -17 -129 -6
-147 -5 -162 10 -9 10 -17 13 -17 7 0 -6 -10 -11 -22 -11 -19 0 -20 2 -8 10
13 8 12 10 -2 10 -10 0 -18 -4 -18 -10 0 -6 -99 -10 -277 -10 -183 0 -273 4
-263 10 9 6 10 10 3 10 -6 0 -15 -4 -18 -10 -3 -5 -32 -10 -63 -9 -43 0 -52 3
-37 10 16 7 13 8 -15 7 -19 -1 -41 -6 -48 -12 -8 -6 -17 -5 -24 2 -14 14 -32
16 -23 3 3 -6 -25 -8 -72 -5 -43 2 -555 5 -1138 6 -768 0 -1064 4 -1074 12
-10 7 -13 7 -8 0 4 -6 -4 -9 -21 -7 -15 2 -135 5 -267 7 -280 3 -326 12 -480
86 -102 49 -200 123 -188 142 3 6 2 8 -4 5 -19 -12 -100 89 -152 190 -74 142
-94 336 -56 543 10 55 67 178 117 255 88 133 273 298 333 298 14 0 23 3 20 7
-6 10 100 54 181 76 35 9 86 14 117 12 30 -1 53 0 50 5 -5 9 50 9 142 0 57 -6
64 -8 40 -14 l-30 -7 33 -1 c23 -1 32 3 32 15 0 9 5 12 13 8 6 -4 9 -3 4 1 -4
5 0 16 8 25 11 12 18 58 25 161 15 216 57 366 149 529 80 141 233 315 268 304
14 -4 15 -4 4 4 -10 7 -1 19 40 50 81 61 172 113 187 107 7 -2 10 0 7 5 -6 9
8 14 28 11 4 0 7 3 7 8 0 11 66 36 165 61 125 32 283 41 444 24z"/>
<path d="M5798 3935 c-2 -2 -195 -6 -428 -9 -420 -4 -506 -10 -689 -46 -30 -5
-84 -19 -120 -30 -36 -10 -81 -22 -100 -25 -19 -3 -41 -9 -50 -14 -9 -5 -28
-8 -43 -7 -14 1 -25 -1 -23 -4 2 -4 -35 -19 -83 -34 -48 -15 -98 -32 -112 -37
-14 -5 -34 -11 -45 -14 -11 -2 -49 -12 -85 -22 -36 -10 -80 -18 -97 -18 -18 0
-33 -3 -33 -7 0 -5 -10 -8 -22 -7 -22 0 -22 1 -3 9 19 8 19 9 -1 9 -12 1 -24
-6 -27 -13 -6 -15 -28 -20 -115 -30 -30 -3 -40 -1 -35 7 4 7 -1 5 -12 -3 -34
-28 -371 -11 -525 26 -14 3 -43 9 -65 14 -46 10 -120 38 -213 81 -35 16 -66
29 -69 29 -3 0 -42 22 -87 49 -44 27 -88 50 -96 52 -34 7 -66 -11 -83 -46 -27
-58 -9 -85 103 -148 25 -14 44 -30 43 -35 -1 -5 3 -9 10 -9 21 2 97 -35 91
-44 -3 -5 2 -6 10 -3 8 3 31 -3 53 -14 35 -18 118 -45 263 -86 84 -24 290 -46
427 -46 127 0 256 15 426 51 53 11 103 17 110 13 6 -4 9 -4 5 1 -7 8 31 23
142 55 25 7 50 14 55 16 6 1 57 17 115 35 58 18 107 34 110 34 3 1 66 16 140
33 254 61 262 61 1391 59 977 -2 1028 -1 1047 16 24 22 35 72 22 98 -22 40
-47 44 -260 45 -662 2 -1007 7 -1021 15 -9 4 -18 6 -21 4z"/>
<path d="M6066 3393 c-4 -4 -179 -6 -389 -5 -340 3 -428 0 -657 -23 -25 -3
-70 -11 -100 -19 -30 -8 -75 -17 -100 -21 -24 -4 -72 -18 -107 -31 -35 -13
-63 -21 -63 -18 0 4 -6 2 -12 -3 -10 -8 -164 -61 -198 -69 -3 0 -12 -3 -20 -7
-27 -10 -183 -46 -280 -63 -134 -24 -414 -24 -520 0 -14 3 -38 7 -55 9 -67 9
-156 40 -143 49 9 6 7 8 -8 4 -11 -4 -41 1 -65 9 -51 18 -87 12 -109 -18 -13
-20 -34 -94 -22 -82 3 2 13 -6 23 -19 10 -13 41 -32 68 -42 28 -10 48 -20 46
-23 -2 -3 9 -6 23 -7 15 0 72 -11 127 -23 55 -12 118 -25 140 -27 22 -3 46 -7
53 -9 8 -3 84 -5 170 -5 168 -1 328 17 452 51 41 11 86 22 100 25 27 5 188 59
230 77 14 6 27 11 30 12 3 0 37 10 75 22 79 25 185 51 230 58 170 26 335 33
335 15 0 -5 8 -10 18 -10 14 0 15 2 2 10 -18 12 -27 11 145 11 72 0 278 -1
458 -1 181 0 326 -4 323 -8 -2 -4 7 -8 22 -9 24 -2 24 -1 7 7 -13 5 32 9 120
9 149 1 181 9 201 49 6 12 14 19 18 14 5 -4 0 11 -9 33 -10 22 -18 45 -18 50
0 14 9 13 -284 16 -139 1 -250 6 -247 11 6 10 0 11 -10 1z"/>
<path d="M5375 2863 c-199 -23 -253 -34 -312 -58 -20 -8 -43 -15 -52 -15 -9 0
-29 -7 -44 -15 -16 -8 -38 -16 -50 -17 -12 -2 -26 -6 -32 -10 -9 -5 -65 -19
-82 -20 -5 0 -19 -4 -32 -9 -13 -5 -80 -19 -150 -31 -100 -17 -171 -21 -347
-22 -203 -1 -224 -3 -243 -20 -30 -27 -28 -77 5 -109 33 -34 98 -40 324 -33
190 6 278 16 412 47 48 11 93 17 99 13 7 -4 9 -3 6 3 -6 9 106 47 263 90 120
33 225 42 493 42 295 1 321 6 333 59 4 15 12 33 18 41 8 11 8 13 -1 7 -7 -4
-13 -3 -13 3 0 23 -46 51 -94 58 -28 4 -55 6 -61 4 -5 -2 -26 -3 -45 -1 -95 7
-306 4 -395 -7z"/>
</g>
</svg>
