<?xml version="1.0" standalone="no"?>
<!DOCTYPE svg PUBLIC "-//W3C//DTD SVG 20010904//EN" "http://www.w3.org/TR/2001/REC-SVG-20010904/DTD/svg10.dtd">
<svg xmlns="http://www.w3.org/2000/svg" version="1.0" width="1024.000000pt" height="1024.000000pt" viewBox="0 0 1024.000000 1024.000000" preserveAspectRatio="xMidYMid meet">
<metadata>
Created by potrace 1.16, written by Peter Selinger 2001-2019
<meta name="Producer" content="Online-Convert"/></metadata>
<g transform="translate(0.000000,1024.000000) scale(0.100000,-0.100000)" fill="#000000" stroke="none">
<path d="M3700 8070 c-127 -7 -196 -22 -282 -59 -27 -11 -48 -17 -48 -13 0 4 -4 2 -8 -4 -4 -6 -38 -31 -77 -56 -75 -49 -144 -111 -189 -170 -16 -21 -33 -35 -40 -31 -6 3 -8 3 -4 -2 4 -4 -13 -44 -36 -89 -24 -44 -52 -106 -61 -136 -10 -30 -21 -57 -24 -60 -8 -7 -11 -44 -12 -185 -1 -97 3 -135 21 -200 12 -44 23 -88 23 -97 1 -10 4 -18 8 -18 4 0 10 -7 13 -16 3 -8 2 -12 -4 -9 -6 3 -10 1 -10 -4 0 -6 6 -11 13 -11 13 0 73 -98 71 -117 -1 -7 1 -11 5 -8 4 2 24 -16 45 -40 20 -25 32 -45 26 -45 -6 0 -8 -5 -5 -10 4 -6 11 -8 17 -4 13 8 69 -46 61 -59 -3 -6 -1 -7 6 -3 14 9 43 -12 35 -25 -3 -5 -1 -8 4 -7 5 2 33 -10 61 -27 39 -22 51 -35 52 -55 1 -23 2 -23 7 -4 7 21 8 21 38 5 l31 -17 -81 -23 c-44 -13 -112 -36 -150 -52 -38 -15 -73 -26 -78 -23 -4 3 -8 1 -8 -4 0 -10 -120 -78 -132 -74 -5 1 -7 -2 -3 -8 3 -5 2 -10 -4 -10 -5 0 -43 -27 -84 -59 -41 -33 -78 -57 -83 -53 -4 4 -4 2 -1 -4 3 -6 -19 -35 -49 -65 -30 -30 -66 -71 -81 -91 -14 -21 -30 -35 -36 -31 -6 3 -7 1 -3 -5 4 -6 -9 -34 -28 -62 -42 -61 -122 -224 -131 -267 -2 -6 -13 -53 -25 -103 -29 -125 -39 -257 -40 -508 0 -140 -3 -211 -10 -207 -5 3 -10 -1 -10 -10 0 -9 5 -13 10 -10 7 4 10 -129 9 -392 0 -231 -4 -390 -9 -378 -7 16 -9 17 -9 3 -1 -9 4 -20 9 -23 6 -3 10 -30 10 -58 1 -50 8 -97 25 -162 7 -26 6 -28 -7 -18 -8 7 -18 10 -21 7 -3 -3 -140 -6 -304 -6 -164 0 -314 -4 -334 -9 -24 -6 -40 -18 -47 -34 -19 -41 -14 -61 19 -89 l31 -26 503 0 504 0 1 -615 c0 -597 1 -617 21 -670 11 -31 36 -75 54 -99 18 -24 30 -47 27 -51 -4 -4 -2 -5 3 -4 14 5 56 -21 51 -30 -3 -4 1 -8 8 -8 8 0 36 -9 62 -20 43 -18 121 -32 192 -33 13 0 21 -4 18 -8 -3 -5 1 -9 9 -9 8 0 12 4 9 9 -3 4 1 8 8 8 146 1 223 11 275 34 30 14 59 23 64 20 5 -3 8 -1 7 4 -2 5 17 29 42 53 54 53 87 116 100 192 5 30 7 272 4 537 -4 390 -2 480 8 474 10 -5 11 -4 1 7 -14 14 -18 145 -7 187 5 18 13 22 50 22 l44 0 2 -627 c1 -346 2 -636 2 -645 0 -9 2 -15 6 -13 4 2 15 -12 24 -33 10 -20 31 -53 47 -73 15 -20 25 -39 21 -43 -4 -4 0 -6 8 -4 8 2 14 -3 12 -10 -1 -8 2 -11 9 -6 7 4 18 -1 26 -12 8 -10 16 -18 18 -16 3 1 22 -5 43 -14 20 -9 56 -18 79 -21 24 -3 40 -9 38 -13 -3 -4 2 -11 11 -14 24 -9 31 -7 14 4 -12 7 -8 10 15 10 123 1 306 13 335 22 19 6 54 21 76 34 23 13 43 22 45 21 2 -1 3 0 2 2 -2 2 14 22 33 44 20 22 48 65 63 96 l26 56 3 618 3 617 22 1 c21 1 21 1 -3 9 -14 4 120 8 298 9 l322 1 2 -622 c1 -343 2 -631 2 -640 0 -9 3 -15 8 -12 4 3 8 -1 8 -8 0 -8 15 -38 34 -68 19 -30 32 -58 29 -62 -2 -5 -1 -7 4 -6 4 2 30 -13 57 -31 79 -55 137 -72 261 -77 60 -3 127 -5 149 -4 33 1 38 -2 32 -17 -5 -16 -4 -16 9 1 8 11 23 21 33 22 73 10 100 18 143 40 66 33 131 100 166 171 l28 58 3 628 3 627 46 0 c34 0 43 -3 37 -12 -11 -15 -11 -1113 0 -1173 4 -22 9 -53 12 -69 5 -22 3 -27 -7 -21 -8 4 -4 -2 9 -14 23 -23 27 -36 15 -44 -5 -2 -3 -3 3 -1 12 2 34 -29 39 -58 3 -12 7 -23 11 -27 4 -3 4 3 0 14 -5 13 6 7 30 -18 21 -20 41 -37 46 -37 5 0 6 -5 2 -12 -4 -6 -3 -8 3 -5 5 3 28 -3 50 -14 80 -39 260 -52 422 -29 36 5 69 6 74 3 6 -3 7 -2 4 3 -6 10 91 60 108 55 6 -1 7 1 3 5 -9 8 73 100 85 96 5 -1 6 1 3 6 -3 5 4 33 15 63 20 52 21 72 20 671 l-2 618 519 0 519 0 21 23 c18 19 53 102 36 85 -3 -3 -18 8 -34 24 l-29 29 -321 -3 c-260 -2 -320 -1 -320 10 0 10 -4 9 -16 -3 -25 -25 -27 -13 -8 51 16 53 18 110 16 562 -1 354 2 501 9 496 8 -4 8 0 0 14 -7 13 -11 97 -11 229 0 281 -26 436 -101 602 -16 35 -26 68 -22 75 3 6 3 8 -2 4 -12 -11 -45 49 -39 69 5 15 4 16 -5 3 -6 -9 -11 -10 -11 -4 0 7 -25 44 -55 83 -31 40 -52 77 -49 83 4 6 3 8 -3 5 -5 -3 -34 19 -64 50 -123 126 -352 273 -489 314 -22 7 -37 16 -33 22 4 6 1 7 -6 3 -7 -5 -41 0 -76 9 l-64 18 77 39 c42 22 82 41 89 42 7 1 16 6 20 11 4 4 1 5 -7 1 -8 -5 1 5 20 20 54 44 114 105 153 156 19 26 38 44 42 40 4 -4 5 -2 3 3 -2 6 16 48 40 95 90 181 110 406 51 590 -28 89 -93 210 -141 264 -22 25 -36 50 -33 56 4 6 2 9 -3 8 -5 -2 -41 24 -80 56 -39 32 -91 71 -117 86 -25 14 -42 30 -38 35 5 4 1 5 -7 3 -8 -3 -31 1 -50 9 -91 39 -215 64 -310 64 -82 0 -218 -28 -293 -60 -26 -11 -47 -17 -47 -13 0 4 -4 2 -8 -4 -4 -6 -27 -24 -52 -39 -81 -50 -166 -123 -210 -180 -23 -30 -46 -53 -50 -50 -4 3 -7 -1 -6 -8 0 -6 -16 -44 -36 -83 -101 -196 -121 -425 -54 -624 14 -40 22 -79 19 -88 -4 -14 -3 -14 5 -3 8 11 11 10 16 -6 3 -11 22 -46 41 -77 19 -32 32 -62 29 -67 -3 -5 0 -8 7 -7 6 2 14 -3 17 -11 3 -9 0 -11 -8 -6 -9 5 -11 4 -6 -4 4 -6 11 -9 15 -6 15 9 38 -30 36 -62 -1 -18 2 -30 6 -27 4 2 6 15 5 28 -3 22 3 20 55 -27 33 -28 59 -55 59 -60 0 -4 4 -6 9 -3 5 3 20 -3 34 -14 14 -11 52 -33 85 -48 l61 -29 -99 -27 c-54 -16 -122 -39 -151 -52 -29 -14 -59 -22 -66 -19 -9 3 -11 0 -7 -7 5 -8 2 -9 -10 -5 -9 4 -15 3 -11 -2 7 -12 -104 -73 -118 -64 -5 3 -7 1 -4 -5 9 -13 -90 -85 -105 -76 -6 4 -8 3 -5 -3 8 -13 -47 -66 -58 -56 -4 5 -5 3 -2 -3 3 -6 -12 -28 -34 -50 -22 -21 -56 -60 -76 -87 -19 -26 -40 -44 -45 -40 -7 3 -8 1 -4 -5 9 -15 -23 -63 -38 -55 -6 3 -8 3 -4 -1 3 -4 -18 -58 -48 -118 -30 -61 -54 -117 -54 -124 0 -8 -5 -14 -11 -14 -5 0 -8 -4 -5 -8 2 -4 -6 -46 -19 -92 -31 -113 -45 -214 -47 -335 0 -60 -4 -92 -9 -80 -5 14 -8 15 -8 4 -1 -8 4 -20 11 -27 9 -9 9 -15 0 -24 -16 -16 -15 -55 1 -61 9 -4 8 -6 -2 -6 -11 -1 -11 -4 0 -17 7 -9 9 -18 3 -22 -15 -11 -16 -34 -3 -59 10 -18 9 -26 -2 -40 -9 -11 -10 -14 -1 -9 6 4 12 3 12 -3 0 -5 -4 -13 -10 -16 -5 -3 -10 -12 -10 -18 0 -7 4 -6 10 3 7 11 10 3 10 -30 0 -33 -3 -41 -10 -30 -7 10 -8 3 -5 -24 3 -21 8 -42 11 -47 3 -5 0 -9 -7 -9 -8 0 -8 -4 -1 -13 11 -13 10 -29 -3 -61 -5 -11 -3 -26 4 -38 7 -12 8 -17 2 -13 -7 4 -11 -4 -11 -22 0 -22 2 -25 10 -13 7 11 10 -1 10 -40 0 -39 -3 -51 -10 -40 -6 9 -10 10 -10 3 0 -6 5 -15 10 -18 6 -3 10 -20 10 -36 0 -17 -4 -28 -8 -25 -4 2 -8 -4 -8 -14 0 -10 4 -16 8 -14 4 3 7 -30 7 -73 -2 -65 -3 -71 -9 -38 -7 39 -7 39 -9 7 0 -18 4 -42 9 -53 7 -13 7 -19 0 -19 -5 0 -10 -12 -10 -26 0 -14 4 -23 8 -20 5 3 9 -1 9 -9 0 -8 -4 -12 -9 -9 -4 3 -8 -11 -8 -30 0 -19 5 -38 10 -41 15 -9 12 -92 -2 -98 -10 -4 -10 -6 0 -6 14 -1 17 -51 2 -51 -5 0 -9 -19 -9 -42 l2 -43 7 40 c7 36 8 34 6 -19 l-1 -59 -85 -1 -85 -1 -6 775 c-5 757 -8 815 -39 956 -8 34 -7 50 1 60 9 12 9 13 -3 9 -10 -4 -18 6 -27 37 -7 24 -28 76 -47 117 -19 40 -31 78 -27 85 3 6 3 8 -2 4 -4 -4 -25 22 -46 58 -22 36 -57 89 -79 116 -22 28 -37 55 -33 62 3 6 2 8 -2 3 -11 -9 -75 52 -75 71 0 7 -4 11 -8 8 -12 -7 -84 69 -75 79 5 4 3 5 -3 2 -8 -5 -176 96 -249 150 -6 5 -17 9 -25 11 -31 7 -175 66 -178 74 -2 5 -7 6 -12 3 -4 -3 -31 0 -58 6 l-50 12 71 36 c40 19 78 35 84 34 7 0 10 3 7 8 -3 5 -1 9 5 9 5 0 50 38 99 85 49 46 93 81 97 77 5 -4 5 -1 1 5 -4 7 6 32 24 58 46 67 87 159 110 250 31 116 30 291 0 400 -13 44 -23 90 -24 102 -1 12 -3 20 -5 18 -3 -4 -101 153 -101 162 0 2 5 1 12 -3 7 -4 8 -3 4 5 -4 6 -11 9 -16 6 -11 -7 -81 80 -72 90 4 5 2 5 -4 2 -6 -4 -20 3 -30 14 -10 12 -47 42 -81 67 -34 25 -64 51 -67 58 -3 8 -12 11 -21 8 -8 -3 -15 -2 -15 3 0 5 -6 10 -14 10 -8 0 -36 9 -64 21 -27 12 -79 27 -115 34 -36 7 -63 16 -61 20 3 4 4 7 2 6 -2 -1 -59 -5 -128 -8z m118 -160 c82 -14 174 -48 166 -62 -4 -7 -2 -8 4 -4 16 9 104 -43 95 -56 -4 -7 -1 -8 6 -3 15 9 103 -73 94 -88 -3 -6 -1 -7 5 -3 17 11 110 -113 98 -132 -3 -4 0 -14 6 -22 8 -12 9 -11 4 5 l-6 20 15 -20 c21 -26 59 -151 50 -165 -3 -5 -2 -10 3 -10 16 0 23 -121 12 -198 -5 -40 -19 -101 -31 -135 -24 -75 -79 -168 -92 -160 -6 3 -7 1 -3 -6 12 -19 -130 -153 -207 -195 -37 -21 -78 -39 -91 -40 -13 0 -22 -4 -20 -7 6 -10 -84 -30 -161 -36 -75 -6 -237 19 -243 37 -2 5 -12 10 -23 10 -11 0 -39 10 -62 21 -361 183 -482 638 -258 967 68 101 231 235 262 216 7 -4 9 -3 6 3 -8 12 64 41 143 59 70 15 148 17 228 4z m2845 -11 c26 -6 45 -15 42 -19 -3 -4 2 -11 11 -14 8 -3 12 -2 9 4 -8 13 8 13 40 -2 19 -9 22 -14 13 -21 -9 -6 -8 -7 5 -3 23 7 60 -11 51 -26 -4 -7 -3 -8 4 -4 15 9 64 -23 55 -37 -3 -6 -1 -7 5 -3 13 8 109 -78 144 -128 17 -23 19 -30 7 -38 -11 -8 -11 -9 3 -4 35 11 103 -153 117 -283 12 -112 -16 -300 -42 -284 -6 3 -7 1 -3 -6 9 -14 -35 -112 -63 -140 -12 -12 -22 -24 -23 -28 -2 -5 -7 -7 -11 -5 -5 1 -6 -2 -3 -7 8 -12 -78 -100 -137 -140 -67 -45 -174 -94 -193 -87 -8 3 -13 2 -9 -3 8 -15 -134 -34 -205 -28 -96 8 -171 27 -163 40 4 7 0 8 -11 4 -38 -15 -256 128 -240 155 4 6 2 8 -4 5 -23 -15 -163 197 -147 223 4 6 2 10 -3 10 -19 0 -46 143 -45 235 1 111 21 195 73 294 45 86 116 175 132 165 7 -4 8 -2 4 4 -9 14 81 85 154 122 56 28 137 55 195 64 47 7 186 -1 238 -15z m-2788 -1534 c109 -11 285 -60 285 -79 0 -6 10 -17 21 -25 19 -11 21 -11 16 3 -4 9 -4 16 0 16 17 0 173 -92 168 -100 -3 -5 0 -12 6 -16 8 -4 9 -3 5 4 -4 7 -3 12 2 12 15 0 30 -23 27 -43 -2 -9 1 -15 6 -11 5 3 7 10 4 15 -9 14 11 11 24 -4 6 -8 7 -18 3 -22 -4 -5 -2 -5 5 -1 16 9 95 -62 86 -78 -3 -6 -2 -8 2 -3 11 10 56 -33 48 -46 -3 -6 -1 -7 4 -4 10 7 99 -98 105 -123 2 -7 11 -21 20 -31 29 -30 72 -123 59 -127 -6 -2 -11 -8 -11 -14 0 -6 6 -8 14 -5 9 4 20 -12 35 -50 25 -65 25 -67 7 -60 -12 5 -13 1 -4 -24 5 -16 12 -29 15 -29 3 0 3 7 0 15 -4 8 -2 17 2 19 5 3 17 -32 27 -77 17 -75 19 -147 22 -884 l3 -803 -40 0 -39 0 -6 123 c-4 67 -7 138 -7 157 0 19 -3 29 -8 22 -4 -7 -17 9 -34 44 -41 83 -107 148 -198 193 -44 22 -99 43 -124 46 -25 4 -43 10 -41 14 2 3 -33 6 -79 6 -46 0 -79 -3 -74 -6 6 -3 -15 -11 -44 -18 -63 -14 -156 -66 -208 -118 -26 -25 -38 -31 -43 -21 -4 9 -5 9 -3 -2 1 -13 -69 -166 -83 -180 -6 -6 -6 -8 -8 -156 l-2 -105 -47 3 -48 3 0 110 c0 61 -2 112 -5 115 -8 8 -42 103 -43 122 -1 9 -5 14 -9 12 -4 -3 -8 -1 -8 5 0 6 -27 39 -60 74 -129 138 -312 186 -507 134 -50 -13 -53 -13 -53 4 0 13 8 19 23 20 l22 2 -22 4 -23 4 0 480 c0 466 -1 480 -20 499 -27 27 -77 26 -107 -2 l-23 -21 0 -560 0 -559 -31 -44 c-18 -24 -36 -41 -42 -37 -6 3 -7 1 -3 -5 3 -6 -5 -44 -18 -84 -18 -53 -26 -100 -28 -173 l-3 -100 -60 2 c-67 2 -98 20 -130 74 -20 33 -20 52 -20 754 0 657 2 729 19 825 21 120 69 263 118 349 42 76 139 200 156 201 6 0 12 7 12 14 0 8 17 28 38 43 20 15 41 34 45 41 5 7 13 10 18 6 5 -3 8 0 7 8 -2 7 5 12 14 12 10 -1 15 2 13 7 -8 12 106 86 199 129 105 48 182 73 207 67 10 -3 17 -1 13 4 -3 5 -3 9 -1 9 2 0 29 5 58 11 109 22 255 27 384 14z m2808 -1 c33 -5 44 -10 40 -20 -3 -8 -1 -14 5 -14 6 0 12 5 14 11 2 7 17 8 41 4 20 -4 34 -11 31 -16 -3 -5 2 -6 11 -3 35 14 211 -60 335 -141 88 -57 211 -165 203 -179 -3 -6 -2 -8 2 -3 9 8 45 -20 45 -36 0 -5 -7 -7 -15 -3 -22 8 -18 -2 6 -15 17 -9 20 -8 14 3 -3 7 9 -5 28 -26 19 -22 33 -46 30 -53 -3 -8 -2 -13 3 -12 21 4 28 -2 14 -11 -13 -8 -12 -10 3 -10 25 0 111 -183 137 -291 37 -157 41 -250 38 -964 -3 -638 -4 -692 -21 -722 -23 -44 -64 -63 -139 -66 l-63 -2 -5 125 c-5 99 -10 135 -28 174 -12 26 -19 53 -15 60 3 6 3 8 -2 4 -4 -4 -21 12 -38 35 l-31 42 -3 565 c-2 564 -2 565 -24 583 -28 23 -81 22 -103 -2 -16 -17 -17 -60 -17 -525 0 -278 -1 -506 -2 -506 -1 0 -24 7 -50 15 -124 37 -266 26 -377 -30 -28 -14 -55 -23 -61 -20 -5 4 -8 2 -7 -2 2 -5 -20 -33 -49 -62 -52 -54 -101 -136 -121 -201 -8 -28 -19 -144 -22 -246 0 -6 -17 -11 -39 -11 l-39 0 -6 121 c-7 136 -9 166 -14 161 -2 -2 -17 21 -33 51 -65 125 -170 207 -307 242 -40 10 -70 21 -68 23 11 10 -164 -10 -216 -25 -61 -18 -158 -77 -197 -119 -13 -15 -28 -24 -33 -21 -5 3 -7 2 -6 -3 1 -4 -18 -48 -42 -97 -45 -89 -45 -90 -49 -213 l-3 -123 -34 0 -35 0 4 803 c4 824 6 878 45 977 5 14 10 27 10 30 6 31 49 136 77 186 48 86 145 214 162 214 8 0 12 4 9 9 -14 22 188 178 311 240 68 34 78 37 67 19 -4 -7 -3 -8 5 -4 6 4 9 11 6 15 -7 13 190 70 290 84 50 7 279 7 328 1z m-3280 -2157 c32 -14 57 -29 57 -32 0 -3 -4 -3 -10 0 -5 3 -10 1 -10 -6 0 -6 8 -9 20 -6 25 6 73 -47 106 -117 l24 -51 0 -788 c0 -862 3 -823 -60 -884 -52 -50 -86 -58 -265 -58 -136 0 -166 3 -197 19 -21 10 -35 22 -32 27 3 5 2 9 -3 8 -23 -4 -34 5 -59 46 -20 35 -27 61 -29 118 -3 49 -1 63 5 42 l8 -30 1 33 c0 17 -3 32 -9 32 -6 0 -10 98 -9 278 1 152 5 264 9 247 l8 -30 1 33 c0 17 -4 32 -9 32 -7 0 -10 102 -10 300 1 187 5 298 11 295 5 -4 9 5 9 19 0 14 -4 26 -10 26 -15 0 -12 177 4 237 23 87 91 177 124 166 14 -4 14 -3 3 5 -11 8 -7 13 18 26 17 9 37 14 44 10 7 -4 8 -3 4 2 -15 16 65 34 134 30 44 -2 85 -12 122 -29z m1005 14 c2 -6 8 -9 12 -6 14 9 82 -23 75 -35 -3 -5 0 -7 8 -4 19 7 111 -92 103 -112 -3 -8 -2 -13 3 -9 29 18 33 -74 32 -858 l-1 -792 -27 -44 c-16 -24 -32 -43 -36 -42 -5 1 -14 -5 -21 -15 -8 -11 -18 -14 -26 -9 -8 5 -11 4 -7 -2 12 -19 -24 -25 -156 -30 -161 -7 -246 8 -293 49 -19 17 -31 35 -27 41 3 6 1 7 -5 3 -7 -4 -18 7 -28 26 -16 30 -18 94 -18 823 l-1 790 22 48 c13 27 27 46 32 43 5 -4 13 -1 17 5 4 8 3 9 -4 5 -19 -11 -14 8 8 31 72 78 162 115 265 109 39 -2 71 -9 73 -15z m1608 3 c58 -17 151 -75 147 -93 -2 -6 2 -10 8 -8 6 1 14 -4 16 -11 3 -8 -1 -10 -11 -6 -11 4 -16 0 -16 -12 0 -11 4 -15 8 -9 17 24 34 12 57 -38 20 -43 24 -66 21 -113 -2 -36 -1 -51 4 -39 7 15 9 11 9 -20 1 -29 -2 -36 -9 -25 -7 11 -10 6 -10 -20 0 -27 3 -32 11 -20 7 11 9 5 8 -25 -2 -22 -7 -46 -13 -53 -7 -9 -6 -16 2 -21 7 -4 8 -12 2 -21 -6 -8 -9 -26 -9 -40 1 -23 2 -23 9 5 6 22 8 7 9 -52 0 -45 -3 -85 -9 -88 -5 -3 -10 -12 -10 -18 0 -7 4 -6 10 3 12 17 8 -116 -4 -181 -5 -23 -3 -40 3 -44 6 -3 11 -23 11 -43 0 -28 -3 -33 -10 -22 -7 11 -10 6 -10 -22 0 -20 5 -40 10 -43 6 -3 10 -12 10 -18 0 -7 -4 -6 -10 3 -7 11 -10 4 -9 -25 0 -31 2 -36 9 -20 6 14 9 -4 9 -55 1 -52 -2 -70 -9 -60 -7 11 -10 7 -10 -18 0 -20 4 -31 10 -27 6 4 10 -6 10 -22 0 -22 -2 -25 -10 -13 -8 12 -10 11 -10 -7 0 -13 6 -23 13 -23 8 0 7 -4 -3 -11 -11 -8 -12 -12 -2 -16 8 -3 11 -24 10 -61 l-1 -57 -7 55 c-6 48 -7 42 -7 -40 -1 -66 2 -87 8 -70 5 16 7 -24 5 -110 -1 -86 -7 -144 -15 -160 -19 -36 -63 -80 -73 -74 -5 3 -7 0 -6 -8 2 -7 -18 -20 -47 -30 -76 -27 -330 -21 -398 10 -33 15 -46 26 -41 34 4 7 4 10 -1 6 -11 -11 -36 12 -28 25 3 6 1 7 -5 3 -7 -4 -19 7 -29 26 -17 31 -18 82 -18 828 l0 795 27 50 c33 62 86 117 139 145 75 41 168 50 255 24z m1054 -3 c30 -10 54 -23 53 -29 -2 -6 4 -9 12 -6 8 4 17 -1 21 -10 3 -9 10 -14 14 -11 12 8 81 -77 75 -93 -2 -7 -1 -11 4 -7 5 3 16 -14 25 -37 14 -37 16 -87 13 -336 -2 -161 0 -295 5 -298 4 -3 8 -12 8 -20 0 -8 -3 -13 -7 -11 -5 3 -9 -33 -10 -79 -1 -63 1 -83 10 -77 9 5 9 3 1 -8 -17 -20 -18 -190 -2 -201 10 -6 10 -10 1 -16 -13 -8 -15 -72 -1 -72 4 0 8 -5 8 -11 0 -5 -5 -7 -10 -4 -7 4 -10 -30 -9 -100 1 -58 6 -108 10 -111 5 -3 9 -11 9 -17 0 -7 -4 -6 -10 3 -7 11 -10 -3 -10 -46 0 -34 5 -66 13 -73 8 -9 8 -12 0 -7 -8 5 -10 -10 -6 -58 3 -48 0 -72 -12 -97 -22 -43 -55 -80 -66 -73 -5 3 -9 1 -9 -5 0 -6 -15 -18 -32 -28 -28 -15 -59 -18 -198 -18 -159 0 -167 1 -210 26 -25 14 -44 31 -42 38 1 7 -2 10 -7 6 -14 -8 -45 41 -35 56 4 8 3 9 -4 5 -7 -4 -14 4 -19 21 -4 15 -7 372 -7 793 0 596 3 773 13 803 7 22 17 34 23 31 7 -4 8 -2 4 5 -12 19 67 127 84 116 5 -3 11 2 14 11 4 9 13 14 22 10 8 -3 12 -2 9 4 -8 12 43 33 57 24 6 -4 8 -2 4 4 -15 24 121 27 194 3z"/>
</g>
</svg>
