<?xml version="1.0" standalone="no"?>
<!DOCTYPE svg PUBLIC "-//W3C//DTD SVG 20010904//EN"
 "http://www.w3.org/TR/2001/REC-SVG-20010904/DTD/svg10.dtd">
<svg version="1.0" xmlns="http://www.w3.org/2000/svg"
 width="1024.000000pt" height="1024.000000pt" viewBox="0 0 1024.000000 1024.000000"
 preserveAspectRatio="xMidYMid meet">
<metadata>
Created by potrace 1.16, written by Peter Selinger 2001-2019
</metadata>
<g transform="translate(0.000000,1024.000000) scale(0.100000,-0.100000)"
fill="#000000" stroke="none">
<path d="M4630 8420 c-117 -10 -237 -33 -340 -67 -25 -8 -49 -16 -55 -17 -5
-2 -32 -13 -60 -25 -27 -12 -57 -20 -67 -18 -9 3 -16 1 -15 -5 1 -5 -29 -26
-68 -46 -38 -20 -72 -39 -75 -42 -3 -3 -25 -18 -50 -34 -25 -16 -64 -44 -87
-63 -24 -19 -47 -31 -53 -28 -5 3 -10 -1 -10 -9 0 -8 -12 -24 -27 -36 -21 -16
-28 -18 -36 -8 -6 10 -8 9 -4 -3 4 -11 -12 -33 -44 -64 -113 -108 -259 -315
-355 -502 -49 -95 -161 -397 -169 -456 -2 -12 -13 -60 -24 -107 -12 -47 -24
-98 -26 -115 -3 -16 -11 -70 -20 -120 -40 -239 -55 -400 -74 -790 -15 -295
-32 -584 -37 -610 -9 -47 -14 -85 -19 -155 -11 -137 -52 -358 -96 -506 -11
-38 -22 -80 -25 -93 -19 -91 -207 -605 -283 -774 -11 -23 -56 -132 -101 -242
-46 -110 -85 -204 -88 -210 -4 -5 -7 -14 -8 -20 -1 -5 -30 -82 -64 -170 -52
-135 -108 -315 -134 -427 -4 -16 -13 -28 -21 -28 -9 0 -15 -9 -14 -22 1 -17 2
-19 6 -6 2 10 9 18 14 18 6 0 7 -5 4 -10 -22 -35 -26 -517 -5 -505 3 2 16 -24
29 -58 13 -34 37 -88 53 -120 16 -32 26 -63 22 -69 -4 -6 -3 -8 3 -5 5 3 22
-7 37 -24 33 -34 57 -37 97 -8 39 28 39 72 0 126 -48 66 -86 150 -97 213 -2 8
-8 34 -14 58 -16 67 -6 291 19 402 22 97 45 179 61 215 5 11 14 40 21 65 6 25
14 50 18 55 4 6 13 29 21 52 7 23 17 40 23 36 6 -3 7 -1 3 5 -7 12 41 142 142
377 33 77 90 214 127 305 37 91 70 170 73 175 4 6 7 15 8 20 1 6 20 57 42 115
58 154 165 482 176 545 1 6 5 19 9 30 16 49 63 312 72 405 3 36 8 75 10 87 5
23 38 456 37 488 -1 62 20 441 28 500 5 39 12 106 15 150 9 148 50 469 62 488
3 4 6 18 8 30 5 39 44 207 50 218 4 5 9 22 11 37 28 155 201 504 336 680 59
77 194 214 253 257 22 16 45 34 50 39 25 27 161 109 255 155 85 42 106 49 118
38 12 -9 14 -9 9 0 -10 16 35 35 133 56 123 28 176 32 380 31 177 0 206 -3
313 -28 152 -35 264 -76 402 -146 73 -38 109 -61 107 -71 -2 -8 -1 -11 3 -7 9
8 61 -19 111 -58 128 -101 158 -130 148 -146 -4 -6 -3 -8 3 -5 9 6 46 -29 113
-106 16 -19 21 -30 13 -35 -7 -5 -6 -12 5 -22 14 -13 15 -12 8 5 -6 18 -5 18
13 -2 12 -12 21 -25 21 -28 0 -3 11 -23 25 -46 14 -22 23 -45 19 -51 -4 -7 -3
-8 4 -4 14 8 72 -108 106 -214 22 -68 39 -177 32 -206 -4 -15 -3 -23 3 -20 18
11 12 -139 -14 -356 -3 -26 -1 -74 4 -105 6 -32 13 -76 17 -98 3 -22 11 -46
17 -54 7 -8 11 -16 10 -17 -4 -6 7 -35 34 -95 14 -31 22 -62 19 -68 -4 -7 -2
-10 5 -9 7 2 17 -6 23 -17 30 -55 67 -103 142 -187 13 -14 24 -33 24 -42 0 -9
5 -15 10 -14 6 2 20 -12 31 -29 12 -18 16 -33 10 -33 -6 0 -11 -4 -11 -10 0
-5 7 -7 15 -4 17 7 19 -9 5 -37 -16 -28 -90 -56 -195 -73 -65 -10 -90 -49
-105 -167 -44 -355 -89 -517 -178 -644 -49 -70 -101 -110 -178 -135 -62 -21
-78 -22 -325 -17 -154 3 -262 1 -265 -5 -3 -5 -13 -3 -22 4 -10 8 -13 9 -9 1
4 -7 -6 -21 -25 -35 -18 -12 -41 -32 -51 -43 -21 -23 -71 -127 -82 -170 -7
-27 -8 -28 -16 -10 -5 13 -6 6 -3 -21 4 -22 1 -67 -6 -98 -27 -133 -5 -491 33
-539 7 -8 26 -17 43 -20 24 -5 36 -1 53 17 24 25 34 82 19 109 -26 50 -29 436
-3 478 4 5 9 21 11 36 3 15 8 31 12 37 3 6 7 16 8 21 3 21 46 84 62 91 9 5
139 9 287 9 149 1 277 4 285 7 8 3 24 8 35 12 129 45 233 139 298 269 20 42
37 81 37 87 0 5 4 10 8 10 5 0 9 6 9 13 0 6 10 48 22 93 29 111 50 221 63 339
14 134 18 141 70 151 50 9 41 7 97 23 145 41 191 150 123 294 -16 34 -52 87
-80 117 -29 30 -55 63 -58 73 -3 9 -9 17 -13 17 -9 0 -77 103 -106 159 -28 55
-53 143 -51 183 0 20 -2 34 -5 32 -12 -7 -18 67 -12 132 4 42 9 61 17 57 6 -4
5 0 -2 9 -9 11 -10 27 -5 54 13 61 6 293 -11 359 -3 11 -12 47 -20 81 -19 75
-59 186 -87 236 -11 21 -17 43 -13 50 4 6 3 8 -3 5 -5 -4 -23 18 -39 48 -15
30 -32 55 -36 55 -4 0 -8 5 -8 10 0 6 -5 16 -10 23 -6 7 -24 30 -41 52 -17 22
-54 66 -82 99 -29 32 -51 62 -50 67 2 5 -3 6 -10 3 -7 -2 -22 6 -33 18 -11 13
-38 37 -59 53 -22 17 -53 41 -70 55 -143 120 -426 249 -660 300 -208 46 -326
55 -525 40z"/>
<path d="M5745 7670 c-3 -5 -11 -7 -18 -4 -27 10 -47 -26 -82 -146 -76 -260
-192 -491 -359 -715 -52 -70 -256 -283 -326 -340 -67 -55 -211 -156 -275 -192
-142 -80 -388 -181 -508 -208 -12 -2 -45 -11 -74 -19 -29 -8 -65 -17 -80 -19
-92 -16 -129 -83 -70 -129 28 -23 28 -23 154 7 59 14 113 23 121 20 7 -2 11
-1 8 4 -3 5 3 11 14 14 11 3 23 1 26 -4 3 -5 11 -9 17 -9 8 0 8 3 -1 9 -10 6
-7 10 13 15 15 4 30 5 33 1 3 -3 1 -5 -5 -5 -5 0 -10 -6 -10 -12 0 -7 10 -13
23 -13 15 0 22 6 21 18 -1 9 -6 17 -11 17 -6 0 -5 5 2 12 6 6 15 9 19 5 9 -9
10 -273 1 -412 -7 -117 -44 -427 -63 -520 -2 -11 -8 -46 -14 -78 -6 -33 -13
-68 -17 -79 -3 -11 -8 -32 -9 -47 -2 -14 -9 -46 -15 -71 -6 -25 -13 -58 -15
-75 -3 -16 -13 -55 -22 -85 -9 -30 -18 -64 -20 -75 -7 -37 -61 -213 -73 -234
-6 -12 -15 -21 -21 -21 -6 0 -23 -9 -37 -19 -15 -10 -31 -19 -35 -19 -14 -1
-131 -75 -182 -115 -67 -52 -160 -142 -193 -186 -15 -20 -30 -38 -33 -41 -3
-3 -8 -18 -11 -33 -3 -15 -3 -26 -1 -23 2 2 15 -7 28 -20 13 -13 36 -24 50
-24 27 0 43 14 125 110 45 53 177 160 198 160 5 0 12 3 14 8 7 16 127 72 154
72 33 0 88 -32 77 -45 -5 -4 -3 -5 3 -2 22 12 240 -155 228 -174 -3 -5 1 -6 9
-3 9 3 115 -95 296 -275 196 -195 276 -281 262 -281 -11 0 -23 -5 -27 -11 -3
-6 -15 -9 -25 -6 -11 3 -17 2 -14 -2 2 -5 -12 -21 -32 -37 -41 -33 -72 -92
-67 -132 1 -14 -2 -32 -8 -39 -6 -8 -8 -16 -4 -20 3 -3 6 0 6 8 0 8 11 -8 25
-36 14 -27 44 -67 68 -88 23 -22 35 -35 26 -28 -12 8 -16 7 -16 -3 0 -9 8 -13
19 -11 11 2 41 -9 67 -25 26 -17 65 -36 87 -44 21 -8 57 -22 79 -32 22 -10 42
-18 45 -19 3 0 22 -7 42 -14 30 -10 36 -16 30 -31 -10 -27 -122 -141 -133
-135 -5 4 -6 -2 -2 -11 9 -25 -12 -10 -93 63 -38 34 -89 79 -114 100 -72 61
-222 207 -554 539 -403 402 -459 461 -451 473 3 7 0 8 -9 5 -9 -3 -16 -2 -16
2 0 5 -11 10 -25 10 -24 2 -68 -39 -155 -143 -19 -23 -38 -39 -44 -36 -5 4 -6
1 -1 -7 4 -7 3 -15 -2 -19 -39 -25 -6 -121 42 -121 28 0 79 46 130 114 l28 39
69 -74 c38 -40 64 -75 58 -77 -5 -2 -10 -9 -10 -16 0 -6 -17 -30 -37 -53 -66
-71 -81 -91 -84 -110 -5 -35 11 -58 48 -70 l36 -11 80 79 80 78 24 -19 c13
-10 33 -31 45 -45 17 -22 19 -31 9 -51 -6 -13 -17 -24 -26 -24 -8 0 -15 -5
-15 -11 0 -6 -21 -36 -46 -66 -34 -42 -44 -62 -39 -77 4 -12 7 -26 7 -33 1 -7
5 -11 9 -10 4 1 8 -2 9 -8 3 -16 21 -35 34 -35 6 0 4 5 -4 10 -8 5 -13 10 -10
11 3 0 16 2 28 3 15 2 52 32 93 75 38 40 74 69 79 66 6 -4 7 1 3 12 -5 15 87
-78 98 -99 7 -12 -113 -138 -125 -131 -6 3 -8 3 -4 -1 4 -5 -4 -26 -18 -48
-14 -22 -23 -45 -20 -51 3 -7 5 -6 5 3 1 9 6 5 14 -10 7 -14 25 -31 40 -38 41
-20 68 1 193 146 l22 25 66 -62 c58 -54 65 -68 32 -62 -5 1 -6 -4 -3 -11 2 -8
-9 -27 -26 -43 -17 -17 -27 -24 -22 -16 5 10 4 12 -4 7 -6 -4 -9 -11 -7 -15 3
-4 -8 -21 -24 -36 -52 -50 -34 -104 37 -120 31 -6 37 -2 108 70 68 69 80 77
76 52 -1 -5 3 -6 8 -3 5 4 34 -16 63 -43 29 -27 90 -81 135 -120 59 -52 81
-77 78 -91 -3 -17 -1 -18 15 -8 15 10 24 7 53 -18 56 -48 77 -64 82 -64 3 0
27 -14 54 -30 108 -67 265 -95 395 -70 36 7 69 12 73 13 15 1 137 68 156 85
19 16 19 16 13 -8 -3 -14 -3 -19 0 -12 8 16 17 15 42 -5 48 -42 59 -50 97 -73
22 -13 42 -27 45 -30 3 -3 16 -11 30 -18 14 -6 32 -16 40 -21 18 -12 111 -53
127 -57 20 -4 88 -26 98 -32 5 -3 20 -7 32 -8 13 -2 47 -7 76 -13 28 -6 97
-15 152 -22 55 -6 110 -17 122 -25 12 -7 23 -9 25 -4 4 11 129 -19 208 -50 76
-30 201 -110 193 -123 -3 -6 -1 -7 5 -3 6 4 38 -14 71 -40 56 -43 63 -46 93
-38 38 11 63 53 54 89 -3 13 -32 44 -64 69 -53 41 -243 157 -267 163 -32 7
-161 58 -163 65 -2 4 -7 6 -12 3 -8 -5 -153 13 -180 23 -8 2 -42 7 -75 9 -33
2 -113 14 -177 27 -197 40 -366 136 -540 307 -100 97 -145 138 -188 170 -49
36 -184 114 -192 111 -5 -1 -8 3 -8 8 0 5 -3 9 -7 8 -8 -2 -94 24 -138 41 -11
5 -47 16 -80 26 -33 9 -67 20 -75 23 -8 3 -17 6 -20 6 -22 5 -100 43 -100 49
0 4 -4 7 -9 7 -19 0 -101 61 -122 91 -18 26 -20 35 -10 56 10 21 14 23 26 13
13 -11 14 -10 9 3 -4 13 10 21 68 39 59 18 96 23 198 23 69 0 141 -3 160 -7
66 -12 135 -27 150 -31 8 -3 28 -8 43 -11 18 -5 25 -11 20 -19 -5 -9 -3 -9 8
-1 10 8 21 9 39 1 14 -5 30 -11 35 -13 40 -11 135 -50 160 -66 58 -35 119 -15
127 43 8 53 -29 81 -167 129 -66 23 -127 44 -135 47 -8 4 -18 6 -22 5 -4 -1
-26 5 -50 14 -24 9 -56 17 -73 20 -16 2 -52 8 -80 14 -27 6 -111 13 -185 16
-123 6 -138 8 -168 31 -18 13 -29 29 -26 35 4 6 3 8 -3 5 -6 -4 -18 2 -27 12
-17 18 -17 20 3 30 11 6 27 11 35 11 9 0 16 4 16 8 0 11 107 45 175 56 11 2
29 7 39 12 15 6 17 4 11 -7 -8 -12 -6 -12 9 0 19 16 81 22 216 24 203 3 374
-35 555 -124 150 -73 228 -119 424 -252 14 -9 25 -21 24 -26 -1 -5 5 -8 15 -7
9 0 16 -5 15 -11 -2 -7 0 -12 5 -12 20 3 32 -2 26 -13 -4 -7 -3 -8 5 -4 16 10
183 -102 174 -116 -3 -6 -2 -8 4 -5 15 9 64 -16 59 -30 -3 -7 1 -10 9 -7 17 7
196 -107 188 -120 -3 -5 -1 -6 5 -2 6 4 31 -6 54 -21 24 -15 72 -42 108 -61
36 -19 76 -43 90 -52 14 -10 42 -23 63 -31 20 -7 37 -17 37 -21 0 -4 7 -8 15
-8 9 0 27 -7 40 -16 14 -9 25 -13 25 -10 0 4 14 -1 30 -9 45 -23 171 -65 197
-65 24 0 63 43 63 70 0 34 -36 61 -126 94 -121 45 -299 130 -421 201 -54 32
-100 61 -103 65 -3 3 -13 9 -23 13 -16 6 -90 53 -262 166 -22 14 -41 29 -43
34 -2 4 -8 7 -13 7 -5 0 -37 19 -72 43 -34 24 -88 58 -120 77 -33 20 -55 40
-53 47 3 7 -1 10 -9 7 -7 -3 -51 19 -97 48 -214 139 -463 245 -638 273 -246
39 -533 12 -740 -71 -25 -10 -65 -30 -89 -45 l-44 -27 -188 187 c-104 102
-209 203 -234 224 -25 21 -42 43 -39 49 4 6 3 8 -3 5 -5 -3 -34 14 -64 39 -30
25 -95 73 -146 106 -100 64 -96 57 -66 128 8 20 9 20 17 55 4 17 21 82 37 145
31 122 66 275 75 325 3 17 14 84 25 150 11 66 22 131 25 145 6 30 8 54 28 270
9 91 16 260 16 376 l0 210 75 37 c41 20 76 37 79 37 7 0 129 72 148 88 9 8 22
11 29 6 7 -4 10 -3 5 4 -3 6 1 15 11 21 31 16 186 134 232 176 212 192 398
434 511 664 28 55 50 102 50 105 0 2 12 30 27 62 14 33 27 64 29 69 1 6 19 60
39 120 20 61 38 117 40 125 2 8 4 16 5 18 1 1 2 15 3 31 1 31 -47 99 -58 81z
m-110 -4952 c27 -15 57 -32 65 -37 8 -5 14 -14 12 -21 -1 -6 2 -9 8 -5 5 3 41
-23 79 -59 l69 -64 -57 -31 c-71 -37 -165 -53 -246 -42 -66 10 -145 38 -145
52 0 5 -3 8 -7 7 -5 -2 -26 8 -48 21 l-40 23 44 39 c25 21 49 35 54 32 6 -3 8
-2 4 3 -3 5 15 32 39 59 24 28 44 54 44 58 0 15 74 -6 125 -35z"/>
<path d="M3365 4755 c-14 -13 -25 -30 -25 -38 0 -7 -9 -40 -19 -73 -19 -58
-27 -88 -37 -149 -3 -16 -10 -48 -16 -70 -6 -22 -12 -51 -14 -64 -2 -13 -6
-31 -10 -40 -4 -9 -9 -27 -11 -41 -6 -32 -82 -330 -90 -350 -3 -8 -8 -25 -10
-36 -3 -22 -59 -217 -108 -379 -33 -110 -81 -280 -90 -319 -15 -63 -38 -116
-48 -110 -9 5 -9 4 -1 -5 8 -8 4 -37 -13 -104 -13 -51 -30 -134 -38 -186 -7
-52 -19 -97 -25 -101 -9 -6 -9 -9 1 -12 10 -3 10 -22 2 -88 -5 -47 -6 -105 -2
-130 4 -25 10 -79 13 -120 3 -42 16 -100 27 -130 11 -30 21 -57 21 -60 1 -17
73 -175 87 -192 6 -7 25 -32 41 -55 53 -76 105 -87 144 -31 26 36 19 65 -29
124 -48 59 -100 159 -111 212 -4 18 -10 32 -14 32 -14 0 -32 110 -37 235 -5
125 -3 144 33 365 4 18 13 57 20 85 8 27 17 61 19 75 3 14 17 66 31 115 47
168 85 300 89 313 3 7 5 16 6 20 0 4 5 14 10 23 4 9 11 31 14 50 3 19 15 63
26 99 24 74 57 193 65 230 2 14 13 52 23 85 10 33 26 89 34 125 9 36 30 124
47 195 18 72 34 141 37 154 2 14 6 28 8 32 3 4 7 24 10 45 4 22 15 72 26 112
29 108 26 138 -13 162 -42 25 -44 25 -73 -5z"/>
<path d="M3895 3060 c-16 -3 -29 -10 -28 -15 1 -6 -2 -14 -6 -20 -8 -10 -23
-58 -27 -85 -1 -8 -7 -43 -13 -76 -35 -188 -30 -411 13 -587 26 -105 28 -137
11 -149 -6 -4 -2 -8 8 -8 14 0 17 5 12 23 -6 22 -6 22 10 2 14 -18 14 -21 -2
-33 -17 -13 -17 -13 1 -10 10 2 22 -4 27 -12 5 -8 24 -42 43 -75 19 -33 52
-80 74 -105 21 -25 40 -49 42 -55 1 -5 7 -9 12 -7 6 1 20 -8 32 -21 28 -30 58
-47 83 -47 24 1 50 39 53 76 3 33 -8 66 -20 59 -11 -7 -140 132 -140 150 0 8
-4 15 -8 15 -5 0 -23 27 -40 60 -18 33 -30 60 -27 60 3 0 -1 10 -9 23 -8 12
-17 36 -20 52 -2 17 -9 46 -15 65 -19 68 -26 136 -26 255 0 122 4 157 30 300
22 118 24 146 14 139 -5 -3 -9 -1 -9 4 0 15 -44 28 -75 22z"/>
</g>
</svg>
