<?xml version="1.0" standalone="no"?>
<!DOCTYPE svg PUBLIC "-//W3C//DTD SVG 20010904//EN"
 "http://www.w3.org/TR/2001/REC-SVG-20010904/DTD/svg10.dtd">
<svg version="1.0" xmlns="http://www.w3.org/2000/svg"
 width="1024.000000pt" height="1024.000000pt" viewBox="0 0 1024.000000 1024.000000"
 preserveAspectRatio="xMidYMid meet">
<metadata>
Created by potrace 1.16, written by Peter Selinger 2001-2019
</metadata>
<g transform="translate(0.000000,1024.000000) scale(0.100000,-0.100000)"
fill="#000000" stroke="none">
<path d="M7140 8289 c-632 -131 -1066 -274 -1511 -501 -291 -147 -537 -325
-740 -535 -314 -323 -541 -825 -616 -1363 -12 -92 -17 -194 -17 -385 -1 -332
18 -485 101 -829 l45 -189 -22 -81 c-70 -250 -121 -482 -132 -591 -6 -56 -78
191 -78 266 0 90 -27 299 -50 391 -63 244 -175 467 -329 653 -35 42 -46 62
-38 68 8 6 7 7 -3 4 -8 -2 -41 20 -74 51 -258 237 -616 393 -1085 471 -153 26
-156 26 -181 -1 -26 -28 -25 -48 4 -166 90 -357 258 -759 403 -961 259 -362
624 -577 1101 -649 67 -11 124 -21 126 -23 7 -8 77 -197 95 -259 50 -162 52
-180 62 -469 13 -400 41 -617 116 -895 56 -211 89 -276 138 -276 30 0 75 37
75 62 0 11 -18 76 -39 143 -104 326 -143 593 -144 1000 -1 307 12 439 70 725
47 231 44 221 54 214 5 -3 6 2 3 10 -4 11 49 216 58 221 2 1 91 16 198 33 714
118 1183 340 1595 756 306 309 523 696 675 1201 155 516 234 993 270 1634 13
240 14 228 -15 256 -26 26 -43 28 -115 14z m-10 -176 c0 -89 -34 -488 -56
-663 -75 -601 -231 -1173 -426 -1564 -144 -290 -349 -549 -598 -758 -298 -250
-656 -416 -1105 -512 -217 -46 -365 -73 -365 -66 0 17 116 316 197 505 75 176
236 503 324 655 261 456 623 934 1059 1399 88 94 162 182 166 195 7 31 -20 74
-53 82 -35 9 -83 -29 -210 -164 -344 -368 -551 -623 -821 -1014 -260 -374
-526 -888 -697 -1341 l-52 -138 -11 38 c-33 115 -73 405 -85 623 -6 103 11
404 29 524 56 379 201 751 406 1041 81 115 304 340 435 439 385 289 919 521
1553 675 166 40 289 68 303 70 4 1 7 -11 7 -26z m-4459 -2553 c213 -46 409
-110 557 -183 84 -42 114 -62 106 -69 -3 -3 1 -5 10 -5 28 3 196 -126 284
-218 164 -171 279 -378 342 -612 22 -86 60 -257 55 -251 -1 1 -31 41 -66 88
-34 47 -89 119 -123 160 -162 201 -610 618 -692 644 -29 9 -74 -28 -74 -60 0
-40 13 -55 112 -139 153 -131 317 -288 311 -298 -3 -6 -2 -7 4 -4 16 10 237
-239 371 -418 65 -87 72 -100 55 -103 -29 -4 -243 45 -328 75 -249 90 -502
281 -647 488 -150 215 -236 414 -382 883 -16 50 -21 49 105 22z"/>
</g>
</svg>
