<?xml version="1.0" standalone="no"?>
<!DOCTYPE svg PUBLIC "-//W3C//DTD SVG 20010904//EN" "http://www.w3.org/TR/2001/REC-SVG-20010904/DTD/svg10.dtd">
<svg xmlns="http://www.w3.org/2000/svg" version="1.0" width="1024.000000pt" height="1024.000000pt" viewBox="0 0 1024.000000 1024.000000" preserveAspectRatio="xMidYMid meet">
<metadata>
Created by potrace 1.16, written by Peter Selinger 2001-2019
<meta name="Producer" content="Online-Convert"/></metadata>
<g transform="translate(0.000000,1024.000000) scale(0.100000,-0.100000)" fill="#000000" stroke="none">
<path d="M8255 8463 c-92 -19 -85 -17 -125 -37 -44 -23 -118 -81 -147 -115 -11 -14 -27 -26 -35 -26 -7 0 -13 -5 -13 -11 0 -17 -298 -314 -308 -307 -6 3 -7 2 -4 -4 7 -11 -128 -144 -138 -135 -4 4 -5 2 -3 -5 2 -7 -73 -87 -166 -178 -135 -132 -171 -163 -182 -154 -10 8 -14 8 -14 0 0 -6 5 -11 10 -11 6 0 10 -4 10 -10 0 -12 -71 -61 -81 -55 -4 3 -5 -4 -2 -15 4 -15 -46 -71 -227 -254 l-232 -234 -68 29 c-37 15 -87 33 -111 38 -51 11 -210 18 -224 9 -10 -5 -81 -21 -100 -22 -5 -1 -13 -5 -16 -9 -3 -4 -18 -10 -33 -13 -20 -3 -25 -1 -20 7 5 8 3 9 -5 5 -7 -5 -10 -10 -7 -13 7 -8 -46 -53 -61 -53 -7 0 -13 -5 -13 -10 0 -6 -16 -18 -35 -27 -19 -9 -32 -19 -30 -22 2 -4 -41 -51 -96 -106 -55 -55 -97 -91 -93 -80 4 11 4 17 0 13 -4 -3 -9 -13 -10 -22 -1 -8 -69 -83 -152 -166 -107 -108 -154 -148 -166 -144 -10 3 -131 4 -270 3 -139 -2 -306 -3 -370 -4 -65 0 -110 -3 -100 -8 9 -4 -15 -6 -55 -3 -39 2 -75 0 -80 -5 -4 -4 -57 -10 -118 -12 -60 -3 -118 -9 -128 -12 -10 -4 -36 -5 -57 -2 -22 3 -43 1 -46 -4 -8 -13 -48 -11 -63 4 -11 10 -13 10 -7 0 4 -7 4 -13 -1 -13 -4 0 -84 -11 -178 -25 -103 -15 -171 -20 -173 -15 -5 15 -22 12 -22 -4 0 -14 -84 -31 -101 -20 -5 3 -9 0 -9 -7 0 -7 -10 -9 -25 -7 -14 3 -25 2 -25 -2 0 -6 -42 -15 -150 -34 -8 -2 -39 -10 -69 -19 -67 -21 -71 -21 -71 -1 0 8 -4 13 -10 9 -5 -3 -7 -12 -4 -20 4 -10 -5 -16 -30 -20 -20 -4 -39 -6 -42 -5 -4 1 -10 -3 -13 -8 -3 -6 -24 -13 -45 -16 -22 -4 -45 -11 -53 -17 -7 -6 -13 -8 -13 -3 0 5 -4 3 -9 -4 -4 -7 -18 -14 -29 -15 -12 -1 -22 -5 -22 -9 0 -4 -3 -7 -8 -6 -4 1 -31 -11 -61 -26 -42 -22 -52 -24 -48 -11 4 9 3 14 -3 10 -6 -3 -10 -13 -10 -21 0 -8 -4 -12 -10 -9 -5 3 -10 1 -10 -4 0 -6 -6 -11 -14 -11 -8 0 -16 -3 -18 -7 -1 -5 -23 -21 -48 -37 -25 -16 -52 -38 -60 -48 -8 -11 -25 -32 -36 -46 -45 -57 -82 -153 -90 -232 -2 -19 -7 -88 -12 -153 -6 -71 -15 -124 -23 -134 -8 -10 -9 -14 -2 -10 19 12 22 -1 39 -188 7 -75 11 -100 23 -150 5 -22 11 -58 14 -80 3 -22 12 -60 21 -85 9 -24 15 -49 12 -56 -2 -6 -1 -15 4 -20 8 -9 41 -119 39 -130 0 -4 3 -10 8 -13 7 -5 66 -144 68 -161 0 -3 7 -15 14 -28 7 -13 10 -30 7 -38 -3 -8 -1 -12 4 -9 10 6 55 -76 62 -110 1 -10 10 -27 18 -36 34 -39 40 -49 33 -49 -4 0 -3 -4 2 -8 6 -4 16 -19 23 -33 8 -15 25 -38 39 -53 14 -15 22 -34 19 -42 -4 -10 -2 -12 6 -8 7 5 9 0 6 -14 -4 -12 -2 -19 3 -16 12 7 91 -75 83 -87 -3 -5 2 -9 10 -9 9 0 16 -4 16 -9 0 -5 28 -37 62 -71 35 -35 62 -66 60 -71 -1 -5 1 -8 5 -7 5 1 29 -18 54 -43 25 -24 67 -62 94 -84 85 -68 105 -88 100 -96 -3 -4 0 -11 6 -15 8 -4 9 -3 5 4 -14 23 15 12 45 -18 17 -16 44 -35 60 -42 16 -7 29 -17 29 -21 0 -4 14 -13 30 -19 20 -7 32 -19 36 -36 3 -15 7 -33 9 -39 5 -14 35 -6 35 9 0 6 -7 7 -16 4 -8 -3 -12 -2 -9 4 9 15 31 12 49 -6 9 -8 16 -12 16 -8 0 4 8 0 18 -8 9 -8 31 -22 47 -30 17 -8 65 -33 108 -56 42 -22 77 -38 77 -36 0 3 12 -8 27 -23 16 -17 24 -21 20 -11 -6 16 -1 15 46 -4 29 -11 60 -23 70 -26 10 -2 16 -10 14 -16 -3 -8 4 -11 23 -8 16 2 43 -3 61 -12 18 -9 39 -16 48 -16 28 0 93 -27 102 -41 6 -10 9 -11 9 -1 0 19 52 4 73 -22 13 -16 16 -17 11 -3 -7 20 -7 20 76 2 36 -9 85 -17 110 -20 25 -3 77 -9 115 -15 272 -37 726 -14 993 51 46 12 91 18 100 14 9 -3 13 -3 9 1 -5 6 208 83 268 98 6 1 20 7 32 14 12 7 30 13 40 15 10 2 55 22 101 45 45 23 82 39 82 35 0 -5 4 -3 8 4 4 6 14 13 21 15 8 2 23 11 33 21 10 10 23 15 28 12 6 -4 10 -1 10 5 0 7 7 9 16 6 8 -3 12 -2 9 4 -3 5 5 14 17 21 45 23 184 117 197 133 7 9 17 14 21 11 5 -3 11 -1 15 5 4 6 11 7 17 4 6 -4 8 -3 5 3 -5 8 166 171 211 202 5 4 15 16 24 29 8 12 44 53 79 91 35 37 74 81 86 97 51 65 141 192 173 244 19 30 38 57 42 60 4 3 15 24 24 45 9 22 25 52 36 68 11 15 17 27 14 27 -4 0 6 24 21 53 15 28 26 55 25 60 -1 4 6 7 16 8 9 0 12 3 6 5 -13 6 -7 44 7 44 5 0 8 3 7 8 -1 4 3 17 10 30 7 12 11 22 8 22 -3 0 6 30 20 68 14 37 27 74 29 82 2 8 4 17 5 20 1 3 2 8 1 12 0 5 18 63 20 63 2 0 31 140 33 160 2 17 7 48 11 70 11 64 13 92 20 250 4 83 7 152 8 155 1 5 -11 130 -18 200 -8 68 -85 181 -166 242 -46 35 -158 98 -174 98 -7 0 -15 4 -17 9 -1 5 -25 18 -53 29 -32 12 -49 24 -47 33 3 11 1 11 -8 2 -12 -11 -61 -1 -86 18 -6 5 -14 5 -18 1 -4 -4 -7 -2 -6 3 5 21 -1 27 -14 16 -7 -6 -21 -8 -30 -5 -14 5 -16 20 -15 83 l2 78 118 121 c64 66 119 118 122 116 3 -3 8 3 11 13 10 31 1164 1175 1177 1167 8 -4 9 -3 5 4 -4 6 1 19 11 29 10 11 40 44 67 76 27 31 52 55 55 53 4 -3 7 3 8 12 0 9 11 44 23 77 12 33 21 80 21 105 -3 69 -8 116 -14 127 -3 5 -8 21 -11 35 -5 32 -28 76 -55 108 -36 43 -92 100 -97 100 -3 0 -20 10 -37 23 -18 12 -39 24 -47 26 -8 2 -37 9 -65 16 -27 7 -59 14 -70 17 -11 3 -51 -1 -90 -9z m125 -145 c0 -5 6 -8 13 -5 6 2 18 -5 25 -17 10 -15 12 -16 8 -3 -5 15 -3 16 17 6 59 -32 125 -98 131 -132 1 -7 7 -22 14 -34 7 -13 11 -53 9 -101 -3 -74 -6 -85 -40 -134 -40 -59 -406 -425 -420 -420 -5 1 -5 -2 -2 -8 9 -14 -964 -990 -990 -994 -10 -1 -20 -11 -21 -22 -2 -10 -9 -23 -17 -29 -7 -5 -18 -19 -24 -30 -10 -17 -12 -16 -18 18 -4 20 -11 37 -15 37 -5 0 -12 10 -16 23 -4 12 -10 24 -13 27 -9 7 -61 89 -61 96 0 3 -16 22 -35 42 -19 21 -35 42 -36 47 -1 6 -10 16 -20 23 -10 7 -16 19 -12 27 4 11 1 13 -10 9 -10 -4 -33 11 -64 40 -26 25 -51 46 -55 46 -15 0 -8 19 14 39 11 11 26 18 31 14 6 -3 7 -2 4 4 -9 14 299 327 313 318 7 -4 10 -1 9 6 -4 18 381 410 394 402 6 -3 7 -2 4 4 -4 5 4 19 16 30 12 11 51 50 86 86 35 37 68 64 74 60 6 -3 7 -1 3 5 -9 15 193 214 207 205 6 -3 7 -2 4 4 -7 11 151 179 165 175 5 -1 7 1 4 6 -6 10 58 72 74 72 5 0 10 4 10 10 0 12 55 41 64 33 3 -4 6 -1 6 5 0 13 28 19 108 20 35 0 62 -4 62 -10z m-2024 -1473 c-4 -12 -2 -13 12 -6 20 11 74 3 67 -10 -3 -4 -13 -5 -23 -2 -9 3 -14 3 -10 -1 10 -11 42 -14 49 -5 12 20 212 -98 206 -122 -1 -6 5 -14 13 -16 13 -4 13 -3 0 7 -13 10 -13 11 0 7 9 -2 14 -13 12 -27 -2 -14 0 -20 7 -15 14 8 53 -4 46 -15 -3 -4 2 -11 11 -14 8 -3 12 -11 8 -17 -4 -7 -3 -9 3 -6 16 10 90 -78 146 -174 21 -36 24 -48 14 -59 -7 -8 -8 -10 -1 -7 14 8 32 -12 37 -39 1 -10 6 -25 10 -31 5 -7 6 -17 3 -22 -4 -5 0 -12 6 -14 9 -4 9 -8 3 -14 -15 -12 -17 -33 -2 -30 8 1 13 -17 15 -58 4 -66 -14 -165 -29 -165 -6 0 -8 -4 -5 -9 6 -9 -41 -87 -81 -136 -14 -16 -92 -98 -175 -182 -108 -109 -156 -150 -169 -148 -11 2 -17 0 -14 -6 4 -5 11 -7 16 -4 5 4 9 3 9 -2 0 -12 -176 -184 -186 -182 -20 3 -34 -2 -34 -12 0 -8 5 -8 15 1 8 7 15 8 15 4 0 -5 -58 -67 -129 -138 l-129 -128 -75 -3 c-41 -2 -80 -6 -86 -9 -6 -4 -27 -6 -48 -6 -21 1 -73 -2 -115 -6 -57 -5 -82 -3 -93 6 -9 7 -18 10 -22 6 -3 -3 -1 -6 5 -6 7 0 12 -4 12 -9 0 -5 -53 -9 -117 -10 -106 -1 -116 1 -99 14 11 8 16 15 11 15 -5 0 -17 -8 -28 -17 -17 -16 -45 -18 -233 -19 -232 -2 -320 5 -316 24 1 7 -3 12 -9 12 -6 0 -9 -7 -5 -15 4 -12 -5 -15 -52 -15 -81 0 -133 10 -125 24 4 6 -1 5 -10 -3 -17 -14 -57 -13 -212 4 -27 3 -61 6 -75 5 -14 0 -40 3 -59 6 l-34 5 106 107 c59 59 155 157 215 218 95 97 111 110 128 101 17 -9 17 -9 6 5 -11 14 25 54 267 298 175 175 285 279 292 274 8 -5 9 -3 4 5 -9 16 272 294 288 284 5 -3 7 -1 4 4 -7 10 70 93 85 93 5 0 8 5 8 10 0 15 180 186 192 182 5 -1 7 2 4 7 -7 11 133 151 151 151 7 0 13 4 13 9 0 10 65 38 106 45 14 3 29 8 32 11 3 3 39 5 80 5 62 0 73 -2 68 -15z m-1318 -651 c23 -3 40 -9 37 -15 -4 -5 -1 -9 4 -9 6 0 11 4 11 9 0 11 38 22 44 12 3 -4 29 -6 60 -5 l55 2 -36 -34 c-23 -22 -40 -31 -47 -25 -6 4 -19 8 -28 8 -14 0 -15 -3 -7 -14 14 -16 23 -17 13 -2 -4 7 -1 10 6 7 24 -8 22 -27 -4 -39 -14 -7 -26 -15 -26 -19 0 -4 -87 -95 -192 -203 -152 -153 -198 -195 -217 -194 -13 1 -26 -4 -29 -11 -3 -11 0 -12 17 -3 11 7 21 8 21 4 0 -17 -419 -425 -429 -419 -6 4 -9 1 -6 -6 3 -8 -28 -47 -76 -93 -48 -46 -84 -75 -86 -68 -3 9 -10 10 -24 3 -19 -11 -149 -3 -149 9 0 3 -26 7 -58 8 -31 1 -95 9 -142 18 -47 9 -103 18 -125 21 -22 3 -41 9 -43 14 -2 5 -10 6 -18 3 -8 -3 -20 0 -28 6 -7 6 -15 9 -18 6 -7 -7 -141 24 -152 35 -5 5 -15 6 -22 3 -8 -3 -14 -1 -14 3 0 5 -14 10 -31 10 -17 1 -35 7 -39 14 -4 7 -13 9 -19 6 -6 -4 -17 -4 -23 1 -7 4 -15 8 -18 8 -24 2 -100 29 -100 36 0 5 -6 6 -14 3 -7 -3 -20 1 -27 9 -8 7 -19 12 -24 11 -17 -6 -190 92 -187 105 1 7 -1 10 -6 7 -17 -10 -152 135 -152 164 0 17 18 11 24 -7 3 -10 3 -4 0 12 -3 17 -6 40 -6 53 0 34 51 110 102 151 25 20 39 29 33 20 -10 -13 -10 -16 2 -16 8 0 12 3 10 7 -8 12 12 29 70 58 89 45 214 92 231 85 8 -3 14 -1 14 5 0 11 -1 11 179 57 98 26 138 32 152 25 15 -8 17 -7 13 5 -4 8 -2 15 2 15 5 0 50 7 99 15 50 9 130 22 179 31 49 8 91 12 94 9 3 -2 10 -1 16 4 15 11 289 45 321 39 14 -3 25 -1 25 4 0 5 17 9 38 9 40 0 83 3 237 15 55 4 155 8 222 9 68 1 125 4 128 6 7 7 115 9 163 3z m2072 -236 c0 -6 3 -8 6 -5 4 3 16 0 26 -8 11 -7 27 -11 34 -8 8 3 14 1 14 -4 0 -5 6 -10 13 -10 28 0 257 -112 257 -125 0 -5 -4 -6 -10 -3 -5 3 -10 1 -10 -5 0 -7 8 -9 20 -5 19 6 80 -30 80 -47 0 -5 -4 -7 -8 -4 -5 3 -9 -1 -9 -9 0 -11 3 -12 14 -3 11 9 19 7 36 -10 14 -14 17 -22 8 -22 -8 0 -5 -7 8 -17 12 -10 23 -28 26 -41 2 -12 7 -27 10 -32 10 -16 -18 -69 -39 -76 -13 -4 -15 -8 -7 -14 16 -9 -68 -83 -87 -75 -7 2 -10 0 -7 -5 10 -17 -5 -32 -20 -20 -10 8 -15 8 -21 -1 -4 -8 -3 -9 4 -5 7 4 12 3 12 -3 0 -6 -9 -15 -20 -21 -11 -6 -20 -7 -20 -3 0 4 -6 0 -12 -9 -15 -19 -148 -78 -175 -78 -11 0 -23 -4 -29 -10 -16 -16 -122 -49 -144 -45 -11 2 -18 0 -15 -6 4 -5 -2 -10 -12 -11 -25 -2 -36 -4 -53 -11 -8 -4 -26 -8 -40 -9 -14 -2 -29 -6 -35 -10 -13 -7 -137 -35 -190 -43 -50 -6 -65 -10 -88 -20 -9 -4 -26 -5 -37 -2 -10 3 -20 1 -22 -3 -2 -5 -28 -11 -58 -15 -30 -3 -66 -8 -80 -10 -106 -19 -116 -19 -101 -2 15 19 36 23 25 5 -4 -7 -3 -8 4 -4 6 4 9 13 6 20 -3 9 114 134 305 327 171 172 311 316 311 320 0 4 4 9 8 11 23 9 102 150 102 181 0 9 5 17 10 17 6 0 10 -5 10 -12z m-4386 -649 c-3 -5 3 -6 12 -2 13 5 16 3 11 -10 -4 -12 -2 -14 10 -10 8 3 18 1 22 -5 5 -9 203 -113 224 -118 4 -1 9 -3 12 -4 3 -1 8 -3 13 -4 48 -12 180 -62 176 -67 -2 -4 1 -11 7 -15 8 -4 9 -3 5 4 -4 7 -1 12 7 12 14 0 108 -26 183 -50 16 -5 51 -12 76 -15 51 -5 97 -15 113 -24 5 -3 19 -5 30 -6 12 0 19 -6 17 -14 -3 -12 0 -12 12 -2 10 8 26 11 43 7 16 -4 51 -9 78 -12 28 -3 57 -7 65 -11 8 -3 40 -7 70 -9 73 -5 102 -13 95 -24 -3 -5 -1 -12 5 -15 6 -4 9 -1 8 6 -4 15 27 23 50 13 9 -4 32 -6 49 -5 40 3 61 -8 42 -21 -9 -6 -4 -7 16 -2 45 12 86 8 96 -7 5 -8 9 -9 9 -4 0 12 47 10 335 -10 44 -3 118 -5 164 -4 46 0 81 -3 78 -8 -3 -4 147 -8 333 -8 186 0 336 3 334 6 -2 3 63 9 144 14 128 6 184 9 352 20 19 2 51 5 70 9 19 3 55 7 80 10 25 2 88 10 140 17 52 6 110 12 127 13 18 0 33 4 33 7 0 5 67 16 150 24 14 2 32 5 40 9 8 3 33 8 55 10 22 2 94 18 160 34 66 17 123 28 127 26 3 -2 8 -1 10 3 3 8 138 50 188 60 13 2 30 9 37 15 7 6 13 7 13 2 0 -4 5 -3 12 4 8 8 15 9 25 0 10 -8 12 -7 8 4 -4 10 6 18 37 27 24 7 66 26 93 41 28 15 67 38 88 49 21 12 42 19 48 16 5 -3 6 2 3 12 -4 12 3 9 20 -10 14 -15 26 -25 26 -21 0 4 -7 16 -17 26 -15 17 -14 19 9 42 l26 23 -5 -101 c-2 -56 -4 -118 -3 -139 0 -24 -3 -36 -10 -32 -6 4 -7 0 -4 -10 8 -19 -15 -163 -27 -171 -4 -2 -6 -11 -2 -19 3 -8 0 -15 -7 -15 -6 0 -8 -5 -5 -10 8 -13 -51 -215 -71 -247 -8 -13 -12 -23 -9 -23 3 0 0 -10 -7 -22 -13 -24 -15 -30 -17 -52 0 -8 -7 -21 -14 -28 -8 -7 -20 -31 -26 -51 -8 -24 -18 -37 -26 -33 -9 3 -11 -2 -8 -15 3 -10 1 -19 -5 -19 -6 0 -13 8 -15 18 -4 13 -5 12 -6 -5 0 -12 4 -23 11 -25 12 -4 -19 -68 -34 -68 -4 0 -8 -5 -8 -12 0 -18 -73 -138 -81 -133 -4 3 -9 -5 -13 -18 -18 -71 -298 -379 -474 -521 -64 -52 -74 -57 -90 -45 -15 13 -16 12 -4 -2 11 -15 9 -20 -14 -38 -14 -11 -30 -19 -34 -16 -4 3 -11 -2 -14 -11 -3 -8 -10 -12 -16 -9 -5 3 -10 2 -10 -3 0 -12 -166 -112 -186 -112 -8 0 -14 -4 -14 -8 0 -10 -80 -48 -92 -45 -5 2 -8 -2 -8 -7 0 -5 -3 -9 -7 -8 -5 1 -38 -12 -74 -29 -87 -41 -247 -96 -258 -88 -5 3 -11 1 -13 -4 -3 -9 -95 -33 -238 -63 -95 -20 -329 -44 -322 -34 3 6 -1 5 -10 -2 -26 -21 -457 -9 -623 16 -131 21 -365 77 -375 90 -3 4 -9 7 -15 7 -5 0 -36 9 -68 20 -55 18 -69 37 -42 57 6 4 2 8 -9 8 -12 0 -16 -5 -13 -15 14 -36 -23 -24 -210 66 -46 22 -83 44 -83 48 0 4 -6 8 -13 8 -17 0 -162 82 -187 105 -11 10 -22 18 -25 18 -18 0 -95 63 -95 78 0 12 -3 13 -8 5 -6 -10 -12 -8 -24 5 -23 23 -46 42 -53 42 -21 0 -314 282 -315 303 0 4 -21 30 -46 57 -26 28 -43 50 -39 50 4 0 2 6 -4 13 -6 8 -9 17 -6 20 3 4 2 5 -1 3 -3 -3 -14 3 -24 12 -25 24 -100 143 -100 159 0 7 -5 13 -12 13 -6 0 -9 3 -5 6 3 3 -10 29 -29 56 -18 28 -32 54 -29 58 3 5 1 10 -4 12 -7 2 -56 111 -65 143 -1 6 -9 26 -18 45 -19 45 -47 129 -51 155 -1 11 -5 25 -9 30 -20 33 -71 347 -82 508 l-6 87 30 -26 c16 -15 27 -31 24 -35z"/>
<path d="M1952 3972 c-20 -2 -39 -13 -53 -30 -20 -26 -21 -34 -3 -106 5 -22 4 -27 -6 -21 -9 5 -11 4 -6 -4 4 -6 11 -9 15 -7 10 6 53 -142 45 -155 -3 -5 0 -8 8 -7 7 2 12 -3 11 -9 -2 -7 2 -13 9 -13 6 0 9 -3 5 -6 -3 -3 -1 -11 4 -18 29 -34 118 -179 114 -186 -3 -4 3 -14 12 -21 12 -10 14 -10 9 -1 -4 6 -2 12 3 12 6 0 11 -7 11 -16 0 -8 4 -13 9 -10 5 4 20 -7 34 -23 14 -17 27 -28 30 -25 2 3 14 -6 25 -20 11 -15 25 -26 31 -26 6 0 11 -3 11 -8 0 -4 20 -18 45 -32 25 -14 45 -29 45 -34 0 -5 3 -7 6 -4 3 3 35 -10 72 -29 37 -19 85 -38 107 -43 256 -56 313 -65 450 -75 104 -8 318 -49 422 -80 83 -26 119 -48 107 -67 -4 -7 -2 -8 4 -4 7 4 12 2 12 -5 0 -7 3 -9 6 -6 4 4 1 13 -6 22 -8 9 -8 15 -2 15 6 0 18 -10 28 -22 11 -16 15 -17 11 -5 -6 15 -2 15 36 -4 23 -12 44 -24 47 -28 3 -3 22 -14 44 -24 21 -10 36 -20 33 -23 -3 -3 -16 -1 -29 6 -22 11 -22 10 -4 -4 11 -9 28 -14 37 -11 10 3 21 0 26 -8 4 -7 24 -24 44 -38 52 -35 229 -202 229 -216 0 -7 8 -17 18 -22 10 -5 31 -30 47 -55 16 -25 34 -46 41 -46 7 0 14 -4 16 -8 6 -15 68 8 83 31 11 18 12 31 4 60 -5 20 -15 37 -21 37 -6 0 -9 2 -6 5 13 13 -205 233 -308 310 -36 28 -74 58 -85 68 -10 9 -23 17 -28 17 -5 0 -11 3 -13 8 -1 4 -24 18 -50 32 -27 13 -48 28 -48 32 0 5 -3 7 -7 6 -12 -4 -113 35 -113 43 0 4 6 10 13 12 7 3 5 6 -5 6 -10 1 -18 -3 -18 -9 0 -14 -16 -13 -32 3 -7 6 -17 12 -23 12 -16 0 -150 38 -155 44 -3 3 -16 7 -30 8 -42 2 -175 26 -180 32 -3 3 -23 7 -45 8 -22 0 -60 4 -85 7 -25 3 -58 6 -75 6 -86 1 -395 72 -395 92 0 5 -4 7 -9 3 -13 -7 -141 61 -178 95 -17 16 -33 27 -36 24 -2 -3 -37 31 -77 74 -40 44 -71 81 -69 83 2 3 -6 15 -18 28 -24 26 -90 155 -95 186 -2 11 -6 22 -10 25 -7 5 -18 61 -22 105 -2 33 -37 60 -74 57z"/>
<path d="M7602 3479 c2 -8 -18 -17 -54 -24 -32 -7 -58 -10 -58 -7 0 2 -7 -1 -15 -8 -9 -7 -18 -10 -21 -7 -3 3 -17 -1 -32 -9 -18 -9 -30 -10 -38 -3 -8 7 -15 6 -20 -2 -4 -8 -3 -9 4 -5 7 4 12 5 12 3 0 -3 -57 -33 -127 -68 -71 -35 -129 -67 -131 -71 -2 -5 -10 -8 -17 -8 -7 0 -16 -7 -19 -16 -3 -8 -10 -13 -14 -10 -5 3 -15 -4 -22 -15 -8 -10 -18 -19 -23 -19 -4 0 -17 -9 -29 -20 -24 -22 -44 -27 -32 -8 4 7 3 8 -4 4 -6 -4 -9 -13 -5 -21 3 -8 1 -15 -4 -15 -14 0 -111 -98 -171 -175 -31 -38 -60 -71 -64 -73 -4 -2 -8 -7 -8 -12 0 -4 -24 -46 -52 -92 -29 -46 -64 -108 -78 -138 -14 -30 -27 -57 -30 -60 -3 -3 -6 -12 -8 -20 -6 -32 -38 -116 -48 -126 -6 -7 -29 -11 -53 -10 -23 1 -45 -2 -48 -7 -7 -12 -327 2 -331 14 -2 5 -7 7 -11 4 -5 -2 -35 0 -67 5 -91 14 -165 17 -171 7 -3 -6 -1 -7 5 -3 16 9 15 -7 0 -22 -7 -7 -13 -29 -14 -50 0 -20 1 -31 3 -24 3 8 11 4 24 -12 18 -23 63 -37 122 -36 15 0 27 -3 27 -7 0 -5 21 -8 48 -9 280 -3 449 -10 445 -18 -4 -5 -1 -6 6 -2 6 4 9 12 6 17 -9 14 45 11 59 -3 7 -7 17 -22 23 -32 6 -10 23 -20 38 -22 16 -2 31 -7 34 -11 3 -4 14 -9 23 -11 9 -1 38 -12 65 -25 26 -12 55 -22 63 -23 8 -1 50 -7 93 -13 110 -15 219 -14 323 5 49 9 97 17 107 17 9 1 17 4 17 8 0 6 46 21 71 23 8 1 142 69 149 76 5 5 68 52 151 113 29 20 39 23 50 14 11 -10 11 -9 0 5 -11 14 -7 22 27 56 22 22 44 37 48 34 4 -4 4 -2 1 4 -4 7 6 26 22 43 16 17 31 38 35 46 3 8 12 15 21 15 8 0 14 3 13 8 -2 13 14 46 47 92 17 25 39 64 49 87 11 23 23 40 29 36 6 -3 7 -2 4 4 -4 6 9 48 27 94 19 46 42 111 51 144 9 33 19 67 22 75 3 8 5 23 4 33 -1 9 2 17 7 17 6 0 10 10 10 23 1 12 4 38 7 57 8 47 9 72 4 89 -7 25 -33 51 -51 51 -9 0 -20 5 -23 10 -3 6 -19 10 -34 10 -15 0 -31 3 -35 7 -11 11 -42 13 -233 17 -100 2 -186 7 -193 11 -6 3 -9 1 -8 -6z m328 -148 c97 -17 95 -16 98 -49 3 -34 -13 -45 -21 -14 -4 13 -5 11 -6 -5 0 -13 4 -23 10 -23 7 0 8 -12 4 -32 -12 -58 -39 -143 -48 -149 -5 -3 -8 -9 -8 -13 2 -19 -59 -166 -69 -166 -5 0 -13 -15 -19 -32 -6 -18 -24 -48 -40 -67 -17 -19 -28 -38 -26 -41 2 -4 -4 -13 -13 -22 -9 -8 -26 -28 -37 -44 -30 -45 -213 -224 -228 -224 -8 0 -22 -9 -32 -20 -10 -12 -25 -18 -32 -15 -8 2 -12 1 -9 -4 5 -8 -74 -49 -83 -43 -2 2 -7 -2 -11 -8 -4 -6 -45 -23 -91 -37 -74 -23 -102 -26 -244 -27 -133 -1 -166 2 -194 17 -19 9 -42 17 -52 17 -10 0 -21 5 -25 11 -5 8 3 10 24 7 22 -3 29 -1 25 10 -4 8 0 12 8 11 8 -2 23 2 34 8 11 6 31 13 45 14 14 2 27 6 30 9 9 9 179 82 183 79 2 -2 11 2 19 9 9 7 28 11 42 8 15 -3 24 -1 21 5 -4 5 -11 7 -16 4 -5 -4 -9 -2 -9 3 0 4 19 19 43 32 23 13 59 36 80 52 20 17 37 26 37 22 0 -5 7 2 16 14 8 12 19 22 25 22 5 0 17 8 28 18 10 9 39 35 65 57 80 69 97 85 90 85 -3 0 -1 7 6 15 7 9 19 14 26 11 7 -3 11 0 8 7 -2 7 7 24 21 39 14 15 25 35 25 45 0 23 -34 75 -43 66 -4 -3 -7 -1 -7 5 0 32 -46 6 -117 -65 -42 -42 -78 -72 -81 -65 -6 19 -21 14 -16 -5 8 -32 -140 -158 -172 -147 -14 4 -16 4 -5 -4 11 -8 4 -17 -35 -41 -27 -17 -54 -31 -61 -31 -6 0 -13 -4 -15 -9 -4 -12 -128 -73 -128 -64 0 5 -4 3 -8 -3 -12 -17 -90 -45 -97 -34 -3 6 -12 10 -18 10 -7 0 -6 -4 3 -10 18 -11 18 -12 -64 -38 -65 -20 -70 -20 -82 -4 -10 13 -8 26 8 67 24 60 70 149 81 153 4 2 7 9 7 15 1 37 156 221 285 337 37 34 190 139 207 142 7 2 15 6 18 9 19 23 244 104 261 93 5 -3 9 -1 9 4 0 14 66 20 86 9 11 -6 15 -6 10 1 -3 6 -1 12 6 14 26 9 215 8 268 -1z"/>
<path d="M1996 2843 c-31 -36 -39 -94 -14 -102 15 -5 56 -46 81 -81 10 -14 15 -19 12 -12 -3 6 -1 12 5 12 6 0 13 -7 16 -15 4 -8 12 -15 20 -15 8 0 14 -3 14 -7 0 -5 10 -13 23 -19 91 -44 147 -77 142 -83 -2 -5 7 -6 20 -3 21 4 24 1 19 -14 -5 -15 -4 -16 4 -5 8 11 16 12 39 3 15 -5 57 -17 93 -26 36 -8 79 -18 95 -23 42 -10 46 -11 78 -12 16 -1 26 -5 22 -11 -3 -5 -2 -10 4 -10 5 0 11 5 13 10 4 13 306 -6 323 -20 7 -6 15 -7 18 -4 8 9 136 -16 143 -27 3 -5 10 -7 15 -3 5 3 15 1 22 -4 7 -6 15 -11 20 -11 4 -1 8 -1 10 -2 1 0 12 -2 25 -5 32 -6 152 -66 152 -76 0 -4 3 -7 8 -6 10 4 82 -42 82 -52 0 -4 9 -10 21 -13 12 -3 18 -10 15 -15 -6 -10 36 -33 70 -39 26 -4 64 35 65 68 1 34 -7 65 -15 61 -5 -2 -20 7 -34 21 -85 78 -252 167 -392 209 -85 25 -222 46 -384 58 -157 12 -275 26 -324 40 -21 5 -41 10 -47 11 -62 11 -214 80 -223 101 -2 4 -10 8 -18 8 -8 0 -14 3 -14 8 0 4 -10 12 -22 17 -13 6 -22 17 -20 24 1 7 -2 9 -9 6 -6 -4 -29 11 -52 33 -23 23 -53 45 -67 50 -21 8 -29 4 -54 -25z"/>
</g>
</svg>
