<?xml version="1.0" standalone="no"?>
<!DOCTYPE svg PUBLIC "-//W3C//DTD SVG 20010904//EN"
 "http://www.w3.org/TR/2001/REC-SVG-20010904/DTD/svg10.dtd">
<svg version="1.0" xmlns="http://www.w3.org/2000/svg"
 width="1024.000000pt" height="1024.000000pt" viewBox="0 0 1024.000000 1024.000000"
 preserveAspectRatio="xMidYMid meet">
<metadata>
Created by potrace 1.16, written by Peter Selinger 2001-2019
</metadata>
<g transform="translate(0.000000,1024.000000) scale(0.100000,-0.100000)"
fill="#000000" stroke="none">
<path d="M6845 7148 c-27 -5 -54 -13 -60 -17 -5 -5 -26 -12 -45 -16 -39 -8
-148 -62 -228 -112 -29 -18 -56 -33 -61 -33 -5 0 -14 -7 -21 -15 -7 -9 -19
-14 -26 -11 -8 3 -13 1 -11 -4 1 -5 -63 -50 -142 -100 -122 -76 -146 -88 -160
-77 -14 10 -14 10 -4 -4 14 -18 41 0 -312 -212 -11 -7 -22 -15 -25 -18 -3 -3
-41 -26 -85 -51 -110 -62 -180 -104 -247 -149 -31 -22 -61 -39 -67 -39 -5 0
-16 -6 -23 -12 -27 -25 -99 -59 -110 -52 -6 4 -8 3 -5 -3 8 -13 -91 -75 -105
-67 -6 4 -8 3 -5 -3 6 -9 -19 -26 -136 -91 -23 -13 -49 -30 -58 -38 -8 -8 -19
-14 -23 -14 -12 0 -130 -73 -134 -82 -2 -4 -8 -8 -14 -8 -6 0 -103 -55 -217
-123 -113 -68 -228 -136 -256 -152 -27 -16 -56 -35 -63 -42 -8 -8 -28 -12 -48
-10 -19 3 -34 0 -34 -6 0 -5 9 -7 20 -4 38 10 9 -13 -92 -70 -55 -32 -117 -68
-137 -80 -20 -12 -42 -20 -49 -18 -7 3 -11 1 -7 -4 7 -12 -84 -63 -99 -54 -6
3 -8 3 -4 -2 7 -7 -81 -75 -97 -75 -3 0 -23 -11 -46 -25 -22 -14 -44 -23 -50
-20 -5 4 -8 1 -7 -5 2 -6 -19 -23 -47 -39 -27 -15 -75 -44 -105 -63 -113 -72
-192 -110 -203 -99 -6 6 -15 11 -21 11 -5 0 -2 -6 8 -13 17 -13 15 -16 -25
-39 -24 -15 -72 -51 -105 -82 -34 -30 -65 -52 -69 -48 -5 4 -5 2 -2 -4 3 -6
-10 -33 -30 -60 -72 -99 -116 -226 -129 -364 -6 -78 16 -273 36 -311 6 -10 9
-19 6 -19 -3 0 2 -16 10 -36 8 -20 13 -38 10 -41 -3 -3 -1 -10 4 -17 19 -22
89 -166 82 -166 -4 0 -2 -4 3 -8 22 -15 74 -96 68 -105 -3 -6 -2 -7 4 -4 5 4
23 -10 39 -31 80 -103 229 -234 354 -314 77 -48 247 -128 298 -139 4 -1 16 -5
28 -9 35 -14 124 -21 253 -20 144 0 194 9 321 57 15 6 19 7 50 14 8 2 17 6 20
9 8 9 124 77 140 82 8 3 73 42 145 86 98 62 132 78 142 70 10 -8 12 -7 7 5 -3
10 3 20 18 28 13 6 25 15 28 19 3 3 37 24 75 46 39 23 112 66 163 98 51 31 98
54 104 50 6 -4 8 -3 5 3 -7 11 29 40 83 68 19 10 99 58 178 107 78 49 148 86
154 82 7 -5 8 -3 3 6 -6 10 -4 12 9 7 9 -4 15 -3 12 2 -3 5 69 55 162 111 92
57 191 118 220 137 29 18 58 31 64 27 6 -4 8 -3 4 4 -9 15 107 84 130 76 13
-4 15 -3 6 3 -9 7 12 25 75 63 48 29 90 57 91 62 2 4 7 8 12 8 5 0 46 23 92
52 46 28 88 51 95 51 7 0 10 4 8 8 -7 10 71 49 81 41 4 -4 5 -2 1 3 -3 6 63
53 146 104 84 52 210 131 280 175 71 45 152 95 181 111 29 17 68 42 87 56 19
14 41 29 49 32 8 4 29 16 45 26 35 23 49 26 39 9 -4 -7 -3 -8 5 -4 6 4 9 11 7
14 -2 4 30 29 72 56 43 27 103 67 134 88 34 23 63 36 70 32 7 -4 10 -4 6 1 -4
4 22 39 58 77 36 38 74 90 86 116 11 26 25 55 29 64 5 10 11 33 13 50 3 18 10
63 15 100 6 37 9 80 7 95 -2 16 -7 55 -11 88 -8 80 -61 270 -92 331 -6 10 -25
48 -42 84 -89 181 -189 326 -311 449 -122 124 -182 172 -282 228 -35 19 -55
32 -45 29 9 -3 17 -1 17 4 0 5 -15 8 -32 7 -18 0 -44 2 -58 6 -128 35 -247 44
-345 25z m300 -140 c39 -12 101 -41 139 -64 84 -52 219 -172 210 -186 -4 -6
-3 -8 3 -5 25 16 191 -215 269 -373 51 -105 86 -200 80 -216 -3 -8 -2 -13 3
-10 14 9 21 -37 9 -52 -7 -8 -13 -24 -15 -35 -3 -19 0 -18 16 7 17 25 20 26
24 10 3 -11 8 -29 12 -41 5 -17 2 -23 -10 -23 -9 0 -13 -5 -10 -10 4 -6 10 -8
15 -5 14 9 20 -37 17 -145 -2 -92 -6 -112 -31 -162 -15 -31 -49 -81 -74 -111
-53 -61 -236 -192 -254 -181 -6 4 -8 3 -4 -4 8 -13 -201 -145 -216 -136 -6 4
-8 3 -5 -3 5 -8 -43 -53 -57 -53 -2 0 -61 -36 -131 -80 -117 -75 -212 -134
-293 -183 -29 -17 -35 -18 -43 -6 -8 11 -9 11 -7 -3 3 -17 -89 -89 -131 -103
-12 -3 -21 -11 -21 -16 0 -5 -4 -9 -9 -9 -6 0 -52 -27 -103 -60 -51 -33 -99
-58 -106 -55 -7 3 -11 1 -8 -4 3 -5 -28 -30 -70 -56 -56 -35 -79 -44 -87 -36
-8 8 -8 11 1 11 7 0 12 5 12 11 0 8 -5 8 -15 -1 -11 -9 -12 -16 -5 -25 8 -9
-24 -33 -125 -96 -74 -46 -165 -103 -202 -126 -37 -23 -71 -39 -75 -37 -5 3
-8 1 -8 -4 0 -9 -138 -98 -150 -96 -3 0 -14 -8 -25 -18 -10 -10 -25 -16 -33
-13 -7 2 -11 1 -7 -4 7 -13 -192 -134 -206 -125 -7 4 -9 3 -6 -4 4 -6 -28 -30
-75 -58 -46 -27 -92 -56 -102 -66 -11 -10 -23 -18 -27 -18 -7 0 -117 -65 -247
-147 -37 -23 -76 -47 -87 -52 -11 -5 -50 -29 -85 -53 -36 -24 -72 -47 -80 -51
-8 -4 -42 -25 -75 -46 -33 -21 -62 -37 -65 -34 -2 2 0 7 6 11 17 11 61 131 74
205 18 97 6 312 -21 392 -6 17 -13 41 -15 54 -8 40 -69 180 -113 260 -22 40
-38 77 -35 82 3 5 1 8 -4 7 -10 -3 -132 155 -132 171 0 12 30 22 42 14 6 -3 8
-2 5 4 -8 13 160 106 175 97 6 -4 8 -3 5 3 -6 10 196 121 425 232 105 52 117
64 118 113 0 26 -40 58 -73 58 -16 0 -103 -36 -194 -80 -91 -44 -170 -77 -176
-73 -5 3 -7 1 -4 -4 4 -6 -25 -27 -66 -48 -39 -20 -88 -47 -107 -58 -46 -29
-83 -49 -150 -82 -30 -15 -61 -32 -69 -38 -20 -16 -65 -21 -55 -6 4 8 3 9 -4
5 -6 -4 -25 5 -41 20 -16 14 -66 50 -110 78 -45 29 -78 56 -74 60 4 4 -1 4
-11 0 -15 -6 -17 -4 -11 6 6 9 4 11 -4 5 -7 -4 -39 3 -71 16 -47 19 -57 26
-53 43 3 20 3 20 -6 -1 -9 -21 -11 -21 -57 -7 -26 8 -76 15 -110 16 l-63 2 62
32 c34 17 107 59 162 93 55 34 106 59 113 56 7 -3 11 -1 8 4 -7 11 181 125
206 125 9 0 15 3 13 6 -6 10 185 121 197 114 7 -4 8 -3 4 4 -8 14 30 35 47 26
6 -4 9 -4 5 1 -11 11 60 58 74 49 7 -5 8 -3 3 6 -6 10 -4 12 9 7 9 -4 15 -3
12 1 -5 9 152 105 171 105 7 0 13 4 13 8 0 13 103 68 114 62 6 -3 8 -3 4 2 -7
8 39 39 144 98 24 13 78 46 122 72 62 38 80 45 87 34 7 -12 10 -12 21 0 8 9 9
11 1 7 -6 -3 -14 -2 -17 3 -5 7 74 62 143 98 29 16 34 16 25 1 -4 -8 -3 -10 2
-5 5 5 9 13 9 17 0 8 165 111 363 226 52 30 99 51 104 48 6 -4 8 -2 5 4 -9 13
120 95 136 86 7 -4 9 -3 4 1 -9 11 124 96 141 90 7 -3 11 -1 8 4 -4 5 15 21
41 37 27 15 85 51 131 81 46 30 88 51 95 47 7 -4 9 -3 4 1 -7 8 92 76 226 155
101 60 121 70 140 66 9 -2 15 -1 12 4 -7 12 65 40 130 49 81 13 176 5 260 -21z
m-3447 -2044 c67 -9 175 -49 252 -94 63 -37 70 -44 59 -58 -11 -14 -11 -15 1
-5 22 20 62 -7 89 -59 8 -16 19 -28 24 -28 6 0 2 10 -9 22 -35 41 60 -45 107
-96 25 -28 71 -89 102 -135 54 -80 68 -109 48 -96 -5 3 -13 0 -17 -6 -5 -9 0
-10 15 -6 19 5 25 -1 40 -36 16 -37 16 -43 3 -53 -8 -6 -12 -17 -9 -25 4 -10
6 -9 6 4 1 14 31 27 31 13 0 -2 3 -12 6 -20 5 -12 2 -15 -11 -10 -15 6 -16 4
-6 -14 6 -12 17 -19 24 -16 15 5 34 -46 33 -88 -1 -15 1 -25 5 -23 3 3 14 -38
24 -90 52 -279 -62 -537 -283 -643 -89 -42 -86 -41 -167 -53 -86 -12 -158 -12
-149 2 4 7 0 9 -14 5 -22 -7 -139 11 -157 24 -5 4 -34 15 -64 25 -39 13 -50
20 -40 27 10 7 8 8 -7 3 -14 -4 -42 7 -87 35 -37 22 -69 40 -73 40 -12 0 -69
53 -66 62 1 5 -2 7 -7 3 -15 -9 -142 105 -209 189 -75 93 -131 187 -172 285
-35 86 -36 91 -57 234 -16 104 -16 110 5 205 12 53 36 124 53 158 36 71 116
167 131 158 6 -4 8 -2 5 3 -4 6 20 29 53 52 145 102 286 132 488 105z"/>
<path d="M6521 6575 c-19 -13 -39 -21 -44 -18 -6 3 -7 2 -4 -4 3 -5 -11 -22
-31 -37 -138 -100 -194 -136 -204 -130 -6 4 -8 3 -5 -2 8 -13 -221 -167 -235
-158 -6 4 -8 3 -4 -4 6 -10 -28 -34 -184 -134 -99 -63 -252 -158 -256 -158 -2
0 -44 -25 -94 -55 -134 -81 -226 -126 -247 -119 -12 4 -14 3 -6 -3 9 -6 -21
-25 -96 -61 -59 -29 -111 -52 -115 -52 -4 0 -31 -11 -59 -24 -29 -13 -81 -34
-117 -46 -112 -40 -135 -55 -147 -95 -7 -21 -10 -35 -7 -32 3 3 17 -6 30 -20
20 -20 32 -24 57 -20 62 10 374 140 536 224 128 66 166 81 173 71 7 -10 8 -8
4 4 -3 11 2 21 14 28 25 13 33 13 24 -2 -4 -7 -3 -8 5 -4 6 4 9 11 6 16 -3 4
28 27 68 51 109 66 121 72 125 60 2 -6 8 -11 14 -11 7 0 6 5 -1 14 -10 11 0
21 51 52 35 21 120 76 190 122 71 46 133 80 138 77 6 -4 9 -2 8 3 -4 14 303
223 315 215 6 -4 7 -1 3 6 -6 8 -2 11 10 9 10 -2 19 2 19 8 0 11 30 44 39 44
18 0 149 106 157 127 12 33 12 36 -11 61 -27 29 -75 28 -119 -3z"/>
<path d="M7262 6100 c-29 -17 -58 -28 -65 -24 -7 4 -9 4 -5 -1 11 -11 -29 -38
-44 -29 -7 4 -8 3 -4 -5 5 -7 -5 -17 -26 -26 -18 -9 -40 -19 -48 -25 -8 -5
-64 -39 -125 -76 -162 -99 -326 -225 -458 -351 -39 -37 -72 -61 -79 -57 -7 4
-8 3 -4 -5 5 -7 -36 -53 -106 -120 -153 -147 -260 -234 -232 -189 4 7 3 8 -5
4 -6 -4 -9 -11 -6 -16 7 -12 -36 -41 -48 -33 -6 3 -7 2 -4 -4 13 -20 -461
-280 -491 -268 -7 2 -11 1 -8 -3 3 -5 -27 -24 -67 -43 -40 -19 -74 -36 -77
-39 -6 -6 -144 -73 -147 -71 -2 0 -12 -8 -23 -19 -14 -14 -28 -19 -48 -15 -19
4 -22 3 -9 -3 16 -7 9 -14 -45 -47 -69 -42 -244 -171 -254 -186 -3 -5 -8 -7
-12 -5 -4 2 -7 -19 -6 -47 0 -29 5 -52 10 -53 5 0 22 -6 38 -13 40 -16 60 -7
142 59 39 32 120 90 180 130 130 84 441 243 461 236 8 -3 12 -2 9 2 -7 12 83
54 96 46 6 -4 8 -3 5 3 -8 13 40 36 56 27 7 -4 9 -3 4 1 -4 5 14 21 40 37 52
30 68 35 57 16 -4 -7 -3 -8 5 -4 6 4 9 11 6 16 -3 4 16 20 42 36 27 15 76 47
111 71 35 24 68 40 74 37 6 -4 8 -3 5 3 -4 5 22 33 56 60 34 28 103 89 153
136 50 48 95 83 98 79 4 -4 6 -2 4 5 -4 16 152 174 165 166 5 -3 7 -1 4 4 -8
13 57 65 68 55 5 -4 5 -2 2 4 -17 29 548 403 600 398 7 -1 11 2 8 6 -2 4 14
17 35 29 65 36 76 76 35 116 -32 33 -59 31 -123 -5z"/>
<path d="M3405 4811 c-28 -10 -61 -23 -73 -30 -12 -7 -28 -9 -34 -5 -6 4 -8 3
-5 -3 3 -5 -7 -17 -23 -26 -42 -25 -106 -107 -137 -174 -45 -98 -44 -267 2
-410 16 -48 108 -227 127 -247 7 -8 20 -24 28 -36 32 -49 137 -154 203 -203
41 -30 66 -56 63 -64 -3 -7 -1 -13 4 -13 6 0 10 5 10 10 0 7 7 7 20 0 11 -6
17 -16 14 -22 -4 -7 -3 -8 5 -4 6 4 26 -2 44 -13 17 -10 50 -26 72 -34 22 -8
63 -24 90 -35 28 -11 68 -23 90 -26 21 -4 48 -14 59 -24 11 -9 16 -11 12 -4
-5 9 6 12 43 12 42 0 53 4 70 26 26 33 26 45 1 76 -10 14 -17 28 -14 30 2 3
-28 6 -67 7 -61 2 -100 10 -217 47 -7 2 -10 9 -6 15 4 8 3 9 -4 5 -25 -15
-155 64 -272 164 -129 112 -243 295 -277 450 -14 62 -5 186 17 238 38 87 132
159 233 176 31 6 37 4 31 -6 -6 -10 -5 -11 7 -1 9 7 24 11 35 9 10 -2 42 -7
69 -10 46 -6 201 -74 228 -100 7 -7 29 -25 50 -40 26 -20 35 -32 27 -40 -5 -5
-10 -15 -10 -21 0 -5 5 -2 11 8 10 18 13 17 45 -14 27 -26 32 -38 27 -58 -6
-23 -4 -24 10 -13 13 11 21 6 55 -40 56 -75 104 -171 96 -194 -4 -13 -3 -15 3
-6 17 22 48 -104 48 -192 0 -76 -1 -79 -33 -106 -18 -15 -50 -30 -70 -34 -78
-12 -288 65 -276 101 5 14 4 15 -4 4 -8 -11 -14 -10 -36 4 -14 9 -24 20 -21
24 2 4 -2 8 -10 8 -33 0 -150 129 -192 210 -14 30 -23 64 -23 94 0 42 4 51 27
66 17 12 28 14 30 6 2 -6 13 -8 25 -5 16 4 19 2 13 -8 -5 -8 -4 -11 3 -7 15
10 42 -3 42 -19 0 -8 6 -13 13 -12 6 2 10 -4 9 -12 -2 -8 0 -12 4 -8 8 9 34
-9 34 -23 0 -5 -7 -6 -15 -3 -8 4 -15 1 -15 -4 0 -6 9 -9 20 -7 24 5 41 -22
34 -56 -4 -21 -3 -22 5 -4 8 18 9 17 16 -10 4 -16 11 -43 16 -59 8 -26 7 -27
-9 -15 -15 13 -16 12 -3 -4 8 -10 21 -17 30 -16 9 1 24 -1 34 -6 29 -12 65 10
75 47 7 25 5 45 -8 80 -60 162 -206 291 -330 292 -150 1 -228 -138 -170 -304
10 -30 16 -59 13 -64 -4 -5 -1 -6 7 -1 10 6 12 4 7 -9 -4 -9 -3 -15 2 -12 4 3
22 -16 39 -42 17 -26 53 -72 81 -103 28 -31 47 -60 43 -64 -4 -5 -2 -5 5 -1
10 6 139 -82 154 -106 3 -5 9 -9 13 -9 20 3 26 0 20 -11 -4 -6 -3 -8 3 -5 6 4
28 -2 49 -12 74 -36 292 -82 278 -59 -3 4 4 8 16 8 53 0 141 73 175 145 25 52
25 176 0 260 -10 33 -18 72 -19 87 0 14 -4 24 -8 22 -9 -6 -29 56 -21 70 3 6
2 8 -2 3 -10 -8 -59 69 -51 81 2 4 0 14 -6 22 -8 12 -9 12 -4 -2 9 -29 1 -21
-38 37 -20 31 -68 88 -106 129 -38 40 -66 76 -62 80 4 4 2 6 -4 4 -13 -4 -104
61 -104 74 0 5 -3 7 -7 5 -5 -2 -21 4 -38 14 -46 28 -116 59 -155 69 -19 5
-53 14 -75 19 -63 16 -174 13 -230 -8z"/>
</g>
</svg>
