<?xml version="1.0" standalone="no"?>
<!DOCTYPE svg PUBLIC "-//W3C//DTD SVG 20010904//EN"
 "http://www.w3.org/TR/2001/REC-SVG-20010904/DTD/svg10.dtd">
<svg version="1.0" xmlns="http://www.w3.org/2000/svg"
 width="1024.000000pt" height="1024.000000pt" viewBox="0 0 1024.000000 1024.000000"
 preserveAspectRatio="xMidYMid meet">
<metadata>
Created by potrace 1.16, written by Peter Selinger 2001-2019
</metadata>
<g transform="translate(0.000000,1024.000000) scale(0.100000,-0.100000)"
fill="#000000" stroke="none">
<path d="M6560 7779 c-25 -5 -53 -7 -63 -5 -11 3 -16 2 -12 -2 3 -4 -24 -17
-61 -29 -53 -18 -70 -20 -77 -10 -6 8 -7 7 -3 -5 3 -10 2 -18 -3 -18 -4 0 -48
-25 -97 -56 -49 -31 -94 -57 -101 -57 -7 0 -11 -5 -10 -11 1 -6 -6 -10 -15
-10 -10 1 -16 -2 -13 -6 2 -4 -69 -58 -158 -121 -89 -62 -186 -130 -216 -151
-29 -21 -59 -35 -65 -31 -6 3 -8 3 -4 -2 10 -11 -84 -76 -100 -70 -7 3 -11 1
-8 -4 9 -14 -91 -81 -111 -75 -12 4 -14 3 -6 -3 8 -6 -25 -34 -104 -88 -124
-86 -140 -95 -128 -75 5 9 4 11 -4 6 -6 -4 -9 -11 -6 -15 5 -10 -73 -64 -92
-64 -7 0 -10 -3 -8 -7 5 -8 -167 -125 -182 -124 -7 1 -11 -2 -8 -6 7 -11 -42
-41 -57 -35 -8 3 -22 -2 -33 -10 -19 -15 -19 -16 3 -5 13 7 26 10 28 7 9 -9
-206 -148 -218 -141 -6 4 -8 3 -5 -3 9 -14 -19 -37 -34 -27 -7 4 -9 3 -6 -3 8
-13 -90 -76 -104 -67 -7 4 -9 3 -6 -3 12 -18 -55 -60 -91 -58 -18 1 -35 -2
-38 -6 -2 -4 9 -6 26 -4 16 2 30 3 30 1 0 -11 -113 -75 -122 -70 -7 4 -8 3 -4
-4 9 -15 -92 -82 -112 -75 -10 4 -13 2 -8 -5 7 -11 -107 -95 -130 -95 -7 0
-11 -4 -9 -7 5 -9 -155 -116 -167 -112 -4 1 -8 -2 -8 -8 0 -15 -179 -132 -192
-124 -7 4 -8 3 -4 -4 9 -14 -170 -135 -186 -126 -6 4 -8 3 -4 -4 7 -12 -210
-166 -236 -166 -9 0 -15 -3 -13 -7 5 -7 -9 -17 -177 -132 -70 -48 -131 -87
-135 -86 -23 4 -43 -2 -38 -11 4 -6 12 -7 19 -3 7 4 0 -2 -14 -14 -27 -24 -46
-31 -34 -11 4 7 3 8 -5 4 -6 -4 -9 -11 -6 -16 7 -11 -43 -42 -56 -35 -5 4 -8
1 -7 -7 2 -8 -6 -12 -22 -10 -16 1 -20 -1 -13 -6 9 -5 -28 -36 -110 -92 -67
-47 -156 -118 -197 -159 -41 -42 -78 -75 -81 -74 -3 1 -6 -3 -6 -10 0 -14 -62
-108 -77 -119 -6 -4 -8 -8 -4 -8 3 0 -6 -26 -21 -57 -35 -73 -66 -169 -82
-253 -19 -98 -15 -356 7 -470 10 -52 18 -102 17 -110 -1 -8 2 -17 5 -20 14
-10 74 -195 73 -225 0 -18 3 -25 7 -18 5 8 21 -15 45 -63 21 -41 34 -80 31
-86 -4 -6 -3 -8 3 -5 6 4 13 0 16 -8 4 -10 1 -12 -11 -8 -14 6 -15 5 -2 -9 8
-9 18 -15 22 -15 12 3 69 -88 58 -91 -6 -2 -10 -11 -10 -20 0 -15 2 -15 10 -2
8 13 11 13 22 1 11 -12 10 -13 -2 -7 -9 5 -8 2 2 -7 37 -30 77 -89 71 -105 -3
-11 -2 -13 4 -5 5 7 29 -13 73 -65 36 -41 64 -79 63 -84 -2 -4 0 -7 5 -6 13 5
91 -65 85 -76 -3 -6 -3 -8 1 -5 4 4 55 -28 114 -70 59 -42 126 -85 149 -95 23
-10 40 -23 36 -29 -3 -6 -1 -7 5 -4 18 12 40 -3 35 -23 -3 -10 1 -21 8 -26 9
-5 11 -2 6 9 -10 27 6 27 81 2 40 -13 94 -27 122 -31 27 -4 50 -9 50 -13 0 -3
69 -3 152 0 127 6 166 11 231 33 143 48 243 106 362 211 102 89 166 136 178
128 5 -3 7 -2 4 3 -3 6 33 37 81 69 98 68 317 217 500 342 68 46 128 81 133
77 5 -3 8 -1 7 4 -4 14 290 214 303 207 5 -4 8 -1 7 6 -2 6 3 14 11 17 8 3 11
0 7 -7 -5 -7 -1 -9 9 -4 12 4 13 8 5 13 -7 5 10 22 47 47 32 21 86 58 120 82
36 24 68 39 74 35 7 -4 9 -3 5 4 -8 14 110 95 126 86 6 -4 8 -3 5 3 -7 11 1
17 178 138 71 49 135 88 142 88 7 0 11 2 8 5 -10 10 294 214 307 206 6 -4 8
-3 5 3 -3 5 47 45 111 89 128 86 139 93 127 74 -5 -9 -4 -11 4 -6 6 4 9 11 6
15 -5 10 73 64 92 64 7 0 11 3 8 5 -9 9 65 53 77 46 6 -4 8 -3 5 3 -9 14 140
116 155 107 6 -4 8 -3 5 3 -9 14 40 46 55 37 6 -4 8 -3 5 3 -9 14 40 46 55 37
6 -4 8 -3 5 3 -9 14 390 286 405 277 6 -4 8 -3 5 3 -4 6 11 22 32 36 32 21 40
23 45 12 3 -8 11 -15 17 -15 8 0 7 5 -2 16 -15 18 -14 20 121 111 47 31 117
81 157 110 44 32 73 48 76 40 2 -7 3 -4 2 5 -3 20 38 61 50 51 4 -5 5 -3 2 3
-3 6 10 33 29 60 81 112 113 209 121 360 6 120 -12 265 -48 379 -22 71 -23 78
-6 70 6 -4 5 -1 -3 7 -9 7 -31 51 -49 98 -42 105 -129 281 -176 355 -20 30
-33 61 -29 67 5 7 3 8 -6 3 -10 -6 -12 -4 -7 9 4 9 3 15 -2 11 -5 -3 -28 23
-52 57 -104 154 -265 331 -390 429 -43 35 -79 66 -79 71 0 4 -3 7 -7 6 -5 -2
-35 15 -68 36 -33 21 -52 36 -42 32 10 -3 16 -2 12 4 -3 5 -16 9 -28 8 -25 -1
-149 56 -141 65 3 3 -4 3 -17 0 -13 -4 -20 -2 -16 3 3 6 -4 10 -16 11 -12 0
-60 8 -106 17 -89 17 -208 19 -281 5z m294 -236 c82 -18 159 -51 151 -63 -4
-6 2 -7 12 -3 15 6 16 4 5 -9 -10 -13 -10 -18 -1 -24 7 -4 9 -3 5 4 -12 20 19
19 54 -1 68 -40 150 -108 144 -119 -5 -7 -2 -8 5 -3 18 10 235 -211 227 -231
-3 -8 -2 -12 3 -9 13 7 82 -85 74 -98 -4 -6 -1 -7 7 -2 10 6 12 4 7 -9 -4 -10
-3 -15 3 -11 10 6 74 -86 135 -197 34 -63 36 -73 11 -69 -5 1 -4 -5 4 -13 14
-18 25 -22 15 -6 -3 6 -2 10 3 10 22 0 108 -219 146 -371 69 -274 37 -441
-113 -582 -83 -77 -307 -231 -323 -221 -7 4 -8 3 -4 -4 8 -13 -28 -35 -39 -24
-5 4 -5 2 -2 -4 4 -7 -14 -25 -46 -45 -28 -19 -96 -64 -149 -102 -59 -41 -103
-65 -110 -61 -7 4 -10 3 -5 -1 8 -10 -94 -86 -105 -79 -5 3 -8 0 -8 -5 0 -17
-363 -255 -385 -253 -13 1 -15 -2 -7 -6 7 -5 -53 -52 -168 -130 -100 -68 -186
-120 -192 -116 -6 4 -8 3 -5 -3 9 -15 -19 -36 -35 -27 -7 4 -10 4 -6 -1 4 -4
-3 -16 -16 -26 -30 -24 -43 -24 -25 -1 13 15 12 16 -3 3 -10 -7 -16 -17 -13
-21 8 -13 -73 -60 -92 -54 -13 4 -15 3 -5 -4 11 -7 7 -14 -17 -31 -17 -12 -36
-19 -42 -15 -7 4 -9 3 -6 -3 9 -14 -40 -46 -55 -37 -6 4 -8 3 -5 -4 4 -5 -12
-23 -35 -39 -24 -15 -100 -68 -170 -116 -74 -51 -133 -85 -139 -81 -7 4 -9 3
-6 -3 10 -15 -78 -74 -100 -67 -13 4 -14 3 -5 -4 10 -7 7 -13 -13 -26 -22 -15
-29 -15 -43 -4 -15 11 -15 11 -4 -3 11 -14 1 -24 -78 -79 -79 -54 -93 -60
-108 -48 -15 11 -16 11 -4 -3 10 -14 4 -22 -48 -58 -33 -24 -65 -39 -72 -35
-6 4 -8 3 -5 -3 8 -13 -300 -226 -314 -218 -5 4 -8 1 -7 -7 2 -7 -5 -12 -14
-12 -10 1 -15 -2 -13 -7 3 -4 -33 -34 -80 -66 -47 -32 -123 -84 -168 -116
-100 -71 -117 -81 -117 -67 0 5 8 10 18 10 13 0 14 2 4 9 -11 6 -11 20 -3 67
30 172 21 365 -24 552 -14 57 -22 109 -18 115 3 7 2 9 -2 4 -10 -8 -67 141
-60 153 3 5 1 10 -4 12 -15 5 -72 128 -65 140 4 6 3 8 -2 5 -9 -5 -106 144
-110 170 -3 16 124 96 138 87 6 -4 8 -3 5 3 -9 14 99 87 114 77 7 -4 9 -3 5 4
-3 6 25 30 69 57 66 41 77 46 93 34 15 -13 16 -12 4 3 -12 15 -5 22 65 62 43
25 85 43 93 40 8 -3 11 -2 7 2 -9 9 72 56 84 48 5 -3 9 -2 7 3 -1 4 7 25 17
45 16 32 17 43 6 78 -23 77 -96 93 -198 42 -81 -41 -212 -118 -316 -186 -48
-31 -93 -54 -99 -50 -6 4 -8 3 -5 -3 8 -13 -40 -46 -54 -38 -5 4 -8 2 -7 -4 2
-6 -37 -37 -87 -70 -87 -59 -89 -60 -107 -41 -22 24 -23 31 -1 23 11 -4 14 -3
9 6 -4 7 -13 10 -19 8 -18 -6 -68 33 -61 46 4 7 3 9 -1 4 -11 -9 -46 23 -39
35 3 4 1 7 -4 6 -16 -5 -103 63 -96 74 4 6 2 8 -4 4 -6 -3 -41 13 -79 38 -133
85 -298 153 -415 170 -27 4 -48 12 -48 18 0 6 3 9 6 5 3 -3 16 5 28 17 11 13
100 77 196 141 96 65 210 143 252 172 45 31 83 51 89 47 7 -4 9 -3 6 3 -8 12
200 156 213 148 6 -4 9 -2 8 3 -4 15 170 134 184 126 6 -4 8 -3 5 3 -3 5 40
41 96 79 56 38 159 108 230 157 72 50 132 85 139 81 6 -4 8 -3 5 3 -8 13 220
166 234 157 7 -4 9 -3 5 4 -8 14 50 55 65 46 7 -4 9 -3 5 4 -8 13 271 205 286
196 6 -4 8 -3 5 3 -9 14 80 76 95 67 6 -4 8 -3 5 2 -8 13 130 107 145 98 6 -4
8 -3 4 4 -8 13 181 145 195 137 5 -4 8 -2 7 4 -2 6 9 19 23 28 15 10 62 42
105 72 43 30 84 54 90 54 7 0 12 4 11 8 -3 13 173 130 185 123 6 -4 8 -3 5 3
-8 13 140 116 155 107 6 -4 8 -3 5 3 -8 13 125 106 200 140 31 14 77 32 102
38 64 18 232 17 315 -2z m-3626 -2534 c23 -6 42 -14 42 -18 0 -3 11 -7 24 -7
37 -3 164 -67 237 -121 103 -75 169 -135 162 -147 -3 -6 -2 -8 2 -3 11 10 76
-53 68 -66 -3 -6 -1 -7 5 -3 13 8 35 -28 24 -39 -4 -5 -2 -5 5 -2 16 10 53
-40 46 -61 -3 -13 -2 -14 4 -4 7 10 23 -8 60 -65 79 -122 105 -171 97 -184 -4
-7 -3 -9 4 -6 6 4 23 -24 43 -70 91 -218 130 -437 109 -619 -11 -104 -39 -216
-51 -209 -4 3 -5 -3 -3 -12 5 -23 -79 -179 -95 -175 -7 1 -10 -2 -6 -8 9 -14
-88 -114 -160 -165 -112 -80 -239 -120 -375 -118 -138 2 -220 22 -367 89 -18
8 -31 20 -29 27 1 6 1 9 -1 5 -3 -5 -9 -8 -14 -8 -6 0 -7 5 -3 11 4 7 1 10 -7
7 -24 -8 -130 71 -237 178 -66 66 -101 107 -96 115 4 7 3 9 -4 6 -25 -16 -233
307 -216 335 4 6 3 8 -3 5 -19 -12 -119 259 -109 295 2 10 1 16 -4 13 -4 -3
-11 16 -15 42 -5 33 -3 48 7 54 10 7 9 9 -4 9 -13 0 -18 15 -24 77 -38 414
175 759 524 848 66 17 290 13 360 -6z"/>
<path d="M6335 7060 c-11 -4 -51 -31 -89 -58 -38 -28 -74 -48 -79 -45 -6 3 -7
1 -3 -5 6 -11 -6 -16 -26 -13 -5 0 -7 -5 -5 -11 1 -7 -4 -12 -10 -10 -7 1 -13
-2 -13 -7 0 -12 -239 -184 -256 -184 -7 0 -10 -5 -7 -10 4 -6 -1 -8 -11 -4 -9
4 -15 3 -11 -2 8 -14 -92 -84 -107 -75 -7 4 -10 4 -6 -1 4 -4 3 -14 -3 -22
-14 -16 -33 -18 -23 -1 4 7 3 8 -5 4 -6 -4 -9 -11 -6 -15 6 -11 -83 -73 -95
-66 -6 4 -9 2 -8 -3 2 -6 -37 -39 -87 -75 -78 -56 -95 -64 -125 -60 -25 3 -31
2 -21 -5 8 -6 20 -8 28 -5 32 13 5 -10 -112 -91 -69 -48 -129 -84 -135 -81 -6
4 -9 2 -8 -4 4 -13 -63 -62 -75 -54 -6 4 -7 1 -2 -7 6 -9 1 -10 -16 -5 -17 4
-20 3 -10 -3 9 -7 10 -12 2 -16 -17 -11 -31 2 -24 22 4 13 2 13 -10 -3 -9 -11
-16 -24 -17 -30 0 -5 4 -4 9 4 5 8 11 9 15 3 8 -14 -220 -156 -235 -146 -7 4
-9 3 -6 -4 9 -13 -140 -95 -156 -85 -7 3 -8 2 -4 -2 8 -9 -135 -74 -164 -75
-9 0 -32 -11 -52 -24 -19 -13 -39 -21 -43 -18 -4 4 -4 2 0 -5 3 -6 1 -23 -5
-37 -10 -20 -9 -35 1 -68 8 -24 12 -47 11 -53 -1 -5 1 -7 4 -3 4 4 21 0 38 -9
21 -10 44 -13 74 -9 54 7 232 86 376 167 62 34 117 62 124 62 7 0 11 2 8 5 -7
8 276 192 286 186 5 -3 8 -1 7 4 -4 14 93 83 105 75 6 -3 7 -1 3 5 -6 11 6 16
26 13 5 0 7 3 5 8 -3 13 312 233 324 226 5 -4 8 -2 7 3 -4 15 81 74 94 66 6
-4 8 -3 5 3 -4 6 53 52 126 104 73 51 178 127 235 168 106 78 131 93 117 71
-5 -9 -4 -11 4 -6 6 4 9 11 6 16 -8 12 53 53 66 44 7 -4 9 -3 6 3 -4 6 14 25
38 42 45 32 75 75 75 106 0 35 -32 82 -66 98 -38 19 -58 20 -89 7z"/>
<path d="M7220 6361 c-54 -8 -75 -19 -162 -83 -39 -29 -72 -46 -79 -42 -7 4
-9 3 -6 -3 9 -14 -302 -237 -328 -235 -12 1 -15 -2 -8 -6 8 -5 -6 -22 -42 -50
-54 -42 -72 -52 -59 -30 4 7 3 8 -5 4 -6 -4 -9 -11 -6 -16 3 -4 -14 -23 -38
-43 -23 -19 -78 -70 -122 -113 -44 -43 -87 -77 -95 -76 -11 2 -12 1 -2 -6 9
-6 3 -19 -24 -50 -20 -23 -39 -40 -44 -37 -5 3 -12 0 -16 -6 -4 -8 -3 -9 4 -5
7 4 12 5 12 2 0 -14 -183 -241 -191 -238 -6 1 -8 -1 -5 -6 9 -14 -126 -154
-223 -231 -82 -66 -110 -84 -97 -63 3 5 -1 9 -9 9 -10 0 -12 -4 -5 -13 8 -8
-2 -21 -37 -46 -95 -68 -164 -108 -175 -102 -6 4 -8 3 -4 -4 6 -9 -57 -53 -76
-53 -4 0 -20 -11 -34 -24 -30 -28 -41 -31 -47 -12 -2 6 -3 4 -2 -5 3 -19 -70
-72 -86 -63 -5 4 -8 2 -7 -3 2 -6 -58 -52 -132 -102 -166 -114 -286 -206 -367
-284 -59 -55 -63 -62 -63 -104 0 -37 6 -50 34 -78 47 -47 88 -46 152 2 26 20
54 37 63 39 9 1 16 7 16 13 0 11 108 102 120 102 4 0 3 -6 -1 -12 -4 -8 -3
-10 2 -5 5 5 9 14 9 20 0 6 56 50 125 98 89 63 131 87 148 84 12 -2 20 0 17 6
-4 5 -12 7 -18 3 -29 -14 56 47 145 104 54 35 104 60 110 56 6 -4 8 -3 5 4 -8
12 90 75 104 67 5 -4 8 -1 7 7 -2 7 5 12 14 12 10 -1 16 2 15 7 -3 12 94 80
105 73 5 -3 7 -1 6 5 -4 13 63 62 75 54 6 -3 7 -2 4 4 -8 13 80 86 95 77 6 -4
8 -3 5 3 -8 13 67 86 78 76 4 -5 5 -3 2 3 -8 14 56 77 68 67 4 -5 5 -2 1 5 -4
7 12 35 41 70 27 31 73 89 103 129 29 40 58 69 63 66 6 -3 7 -1 4 4 -9 14 72
115 85 106 7 -4 8 -1 3 7 -9 15 171 193 186 184 5 -3 8 -1 7 5 -4 14 194 162
210 156 7 -3 11 -1 8 3 -8 13 122 105 135 96 7 -4 9 -3 6 3 -8 13 181 146 194
137 5 -3 8 0 7 8 -2 7 5 12 14 12 10 -1 16 2 13 6 -2 4 15 21 39 38 75 54 86
135 26 185 -16 14 -26 28 -23 31 4 3 4 5 2 5 -2 -1 -24 -5 -49 -8z"/>
<path d="M2910 4826 c-25 -7 -55 -18 -67 -24 -12 -7 -29 -9 -39 -5 -11 4 -15
2 -11 -4 4 -5 -18 -27 -49 -48 -54 -38 -112 -99 -154 -165 -12 -19 -19 -26
-16 -15 4 11 3 16 -1 11 -4 -4 -9 -17 -10 -29 -1 -12 -14 -56 -29 -97 -18 -51
-28 -103 -32 -162 -2 -48 -9 -85 -13 -82 -5 3 -9 -7 -8 -23 0 -25 1 -26 9 -8
7 16 9 13 9 -16 1 -50 28 -191 50 -264 10 -33 19 -73 20 -88 1 -33 9 -49 20
-43 11 7 57 -93 53 -116 -2 -11 3 -18 13 -18 11 0 15 -5 12 -15 -4 -8 -1 -17
5 -21 7 -4 8 -3 4 4 -4 7 -5 12 -3 12 11 0 77 -112 72 -121 -4 -5 -2 -8 3 -7
5 2 28 -19 50 -46 34 -41 39 -52 29 -65 -10 -14 -10 -14 4 -4 13 11 20 8 43
-16 17 -18 25 -34 21 -42 -5 -7 -4 -10 3 -5 13 8 74 -42 66 -55 -3 -5 0 -8 8
-7 7 2 12 -3 10 -10 -1 -8 1 -11 6 -8 5 3 44 -22 88 -55 132 -99 286 -168 342
-154 62 15 95 81 71 140 -7 17 -12 33 -11 38 1 4 -1 6 -5 5 -15 -5 -163 64
-157 73 3 5 -1 7 -8 4 -17 -6 -130 69 -121 80 5 4 2 5 -5 1 -18 -11 -246 220
-238 240 3 8 2 13 -3 9 -13 -8 -54 52 -45 66 4 8 3 9 -4 5 -6 -4 -18 6 -27 23
-18 36 -19 45 -3 35 7 -4 8 -3 4 5 -4 6 -11 9 -15 7 -11 -7 -37 41 -75 141
-47 120 -69 218 -61 271 4 27 2 42 -5 42 -21 0 8 167 42 233 11 22 23 35 30
31 7 -5 8 -3 3 5 -9 15 53 83 68 74 6 -3 7 -1 3 5 -8 13 28 35 39 24 5 -4 5
-2 2 4 -4 7 0 15 9 18 22 8 26 8 19 -4 -3 -5 -1 -10 4 -10 6 0 11 7 11 15 0
17 60 35 110 34 39 -2 103 -16 80 -18 -10 -1 -6 -7 10 -16 14 -7 24 -17 22
-21 -2 -5 1 -10 7 -12 16 -5 13 9 -6 30 -24 27 0 23 73 -13 47 -23 61 -35 57
-48 -4 -13 -3 -13 5 -2 11 16 36 5 26 -11 -4 -7 -2 -8 4 -4 14 8 119 -80 186
-157 41 -48 48 -60 36 -69 -12 -8 -12 -9 2 -4 13 4 25 -6 43 -32 27 -40 32
-57 13 -46 -8 4 -10 3 -5 -2 5 -5 14 -9 20 -9 7 0 11 -8 11 -18 -1 -9 2 -15 6
-12 8 5 81 -136 95 -183 4 -14 1 -30 -7 -40 -12 -15 -11 -16 4 -4 15 12 19 8
33 -42 9 -31 14 -71 11 -89 -4 -22 -3 -26 2 -12 7 16 10 12 15 -20 11 -68 8
-184 -7 -219 -7 -18 -26 -43 -42 -55 -25 -19 -37 -22 -79 -17 -27 4 -81 22
-120 41 -84 41 -189 121 -179 137 4 6 3 8 -3 5 -13 -8 -85 65 -145 144 -79
105 -130 237 -105 268 10 12 9 13 -2 7 -10 -7 -12 -3 -6 15 9 28 22 39 51 39
20 0 62 -35 57 -49 -2 -3 2 -6 8 -6 16 0 70 -77 64 -93 -2 -7 0 -10 5 -7 12 8
42 -64 35 -84 -3 -9 -3 -12 1 -8 7 7 49 -71 46 -85 -1 -4 4 -5 11 -2 7 2 21
-2 31 -9 24 -18 76 -4 112 29 30 29 32 83 5 155 -11 28 -17 58 -14 67 4 13 3
14 -5 4 -7 -11 -10 -10 -16 3 -3 9 -3 22 1 27 3 6 1 8 -5 5 -6 -4 -23 14 -40
42 -43 68 -133 153 -204 191 -118 63 -243 36 -309 -68 -16 -26 -32 -65 -36
-87 -5 -32 -8 -36 -14 -20 -7 15 -8 11 -6 -15 1 -19 7 -38 12 -42 6 -5 5 -8
-4 -8 -10 0 -11 -3 -3 -13 6 -7 12 -36 14 -64 2 -28 5 -49 7 -47 6 6 51 -112
56 -144 2 -13 7 -27 11 -30 4 -4 4 1 1 11 -10 27 1 20 17 -12 9 -16 12 -31 9
-35 -4 -3 -1 -6 5 -6 16 0 63 -71 55 -83 -3 -6 -2 -7 4 -4 6 4 25 -13 43 -36
125 -158 359 -312 516 -338 62 -11 79 -10 135 5 35 10 75 18 89 18 14 0 20 2
13 5 -6 2 7 23 32 48 162 162 153 467 -24 830 -33 66 -84 155 -115 198 -31 42
-56 79 -56 81 0 2 -16 20 -36 40 -22 22 -33 40 -28 48 4 7 4 10 -1 6 -9 -8
-91 62 -87 74 1 5 -1 7 -5 6 -5 -2 -38 19 -75 45 -38 27 -91 61 -119 77 -31
17 -46 30 -38 33 8 3 3 5 -11 5 -14 0 -58 10 -99 21 -85 24 -218 27 -291 7z"/>
</g>
</svg>
