<?xml version="1.0" standalone="no"?>
<!DOCTYPE svg PUBLIC "-//W3C//DTD SVG 20010904//EN"
 "http://www.w3.org/TR/2001/REC-SVG-20010904/DTD/svg10.dtd">
<svg version="1.0" xmlns="http://www.w3.org/2000/svg"
 width="1024.000000pt" height="1024.000000pt" viewBox="0 0 1024.000000 1024.000000"
 preserveAspectRatio="xMidYMid meet">
<metadata>
Created by potrace 1.16, written by Peter Selinger 2001-2019
</metadata>
<g transform="translate(0.000000,1024.000000) scale(0.100000,-0.100000)"
fill="#000000" stroke="none">
<path d="M6925 7663 c-83 -8 -275 -37 -282 -43 -2 -2 -7 -4 -13 -5 -5 -1 -12
-4 -15 -5 -3 -1 -8 -3 -12 -4 -5 -1 -25 -10 -47 -19 -21 -9 -42 -17 -47 -17
-8 0 -240 -118 -304 -155 -22 -12 -60 -35 -85 -49 -25 -14 -72 -40 -105 -56
-33 -17 -90 -48 -127 -69 -37 -21 -69 -36 -72 -33 -4 3 -6 0 -6 -7 0 -9 -9
-11 -30 -6 -18 4 -30 3 -30 -4 0 -6 8 -8 18 -4 10 4 7 -2 -8 -14 -33 -26 -192
-111 -216 -115 -10 -2 -26 -10 -36 -18 -20 -17 -100 -62 -213 -120 -44 -23
-102 -54 -130 -70 -27 -16 -75 -41 -105 -57 -30 -15 -57 -31 -60 -34 -3 -3
-52 -30 -110 -60 -57 -30 -110 -59 -117 -65 -7 -7 -37 -22 -68 -35 -30 -12
-55 -26 -55 -30 0 -3 -21 -16 -47 -28 -27 -12 -62 -30 -79 -40 -17 -10 -69
-38 -115 -62 -46 -23 -92 -49 -101 -57 -10 -8 -26 -12 -37 -9 -12 3 -19 0 -18
-6 3 -15 -224 -138 -245 -133 -10 2 -15 -1 -12 -9 3 -7 -18 -23 -53 -39 -32
-15 -65 -31 -73 -37 -18 -11 -293 -159 -296 -159 -2 0 -87 -45 -190 -100 -103
-55 -191 -100 -196 -100 -4 0 -8 -4 -8 -8 0 -5 -24 -19 -52 -33 -29 -13 -55
-27 -56 -32 -2 -4 -8 -5 -13 -1 -5 3 -9 0 -9 -5 0 -6 -4 -11 -9 -11 -5 0 -52
-25 -105 -55 -53 -30 -96 -51 -96 -47 0 4 -4 2 -8 -4 -4 -6 -34 -24 -67 -40
-33 -16 -62 -32 -65 -36 -7 -9 -100 -48 -100 -42 0 3 -7 -1 -15 -8 -34 -31
-46 -39 -71 -48 -19 -8 -31 -7 -43 2 -14 11 -14 11 -4 -2 10 -13 2 -23 -50
-62 -34 -25 -85 -66 -113 -92 -28 -25 -54 -43 -58 -41 -3 3 -4 2 -1 -1 10 -15
-67 -108 -81 -96 -4 4 -4 1 0 -6 11 -19 -53 -115 -69 -102 -8 7 -12 5 -12 -5
0 -8 4 -15 8 -15 4 0 -2 -24 -13 -52 -11 -29 -23 -65 -28 -80 -5 -15 -12 -33
-17 -40 -18 -29 -43 -149 -48 -233 -8 -124 -12 -140 -30 -125 -21 17 -19 5 2
-16 11 -10 18 -36 20 -68 2 -50 11 -137 18 -186 13 -87 70 -274 101 -332 8
-15 15 -30 14 -33 0 -3 7 -19 15 -35 9 -17 13 -30 10 -30 -4 0 1 -7 9 -16 9
-8 14 -20 11 -25 -4 -5 -1 -9 4 -9 6 0 11 -5 11 -11 0 -6 23 -49 50 -96 28
-47 50 -89 50 -94 0 -5 3 -9 8 -9 11 0 32 -52 25 -63 -3 -6 -1 -7 4 -4 13 8
35 -16 31 -34 -2 -7 2 -13 9 -14 17 0 63 -57 56 -68 -3 -6 -1 -7 5 -3 6 3 19
-5 29 -19 10 -14 46 -55 81 -91 34 -36 59 -70 56 -76 -4 -6 -3 -8 3 -5 14 9
104 -60 100 -76 -1 -7 4 -11 12 -9 7 1 25 -10 40 -26 15 -15 34 -26 41 -24 9
3 11 -1 7 -12 -4 -10 -3 -14 3 -11 8 5 108 -44 136 -66 20 -16 169 -89 182
-89 7 0 10 -4 7 -10 -3 -5 0 -7 9 -4 8 3 30 -1 48 -9 46 -21 96 -35 143 -42
22 -3 54 -8 70 -11 17 -3 84 -7 149 -9 115 -4 146 -1 321 40 77 18 252 108
421 218 40 26 78 47 83 47 6 0 11 4 11 9 0 5 12 14 28 20 15 6 49 25 75 41 27
17 53 27 59 24 7 -4 8 -2 4 4 -4 7 -3 12 3 12 5 0 17 7 26 16 8 9 35 27 58 40
68 38 109 62 152 89 22 14 49 29 60 35 11 6 34 19 50 30 17 11 41 25 55 31 14
5 34 18 45 28 24 21 143 91 155 91 5 0 10 4 12 8 2 5 37 28 78 52 41 24 89 54
105 66 45 32 96 54 108 47 6 -3 7 -1 3 5 -9 14 39 46 59 39 8 -4 17 -1 21 5 5
7 2 8 -7 4 -8 -4 -3 2 11 14 14 11 34 25 45 31 11 5 34 18 50 29 54 35 87 50
96 44 5 -3 8 -1 7 4 -2 8 95 82 108 82 1 0 23 14 47 30 25 17 50 30 56 30 6 0
11 4 11 9 0 5 9 13 21 16 11 4 47 24 79 46 33 21 64 39 70 39 5 0 10 4 10 10
0 5 11 12 25 16 14 3 25 10 25 14 0 4 8 10 18 14 18 6 37 17 87 52 17 11 37
24 45 27 8 4 29 16 45 27 17 11 38 23 48 26 9 4 17 10 17 14 0 4 8 10 18 14
20 7 55 28 63 39 3 4 15 9 27 10 12 0 19 3 17 6 -3 2 25 22 63 44 37 23 69 44
70 49 2 4 8 8 14 8 5 0 33 16 62 35 29 19 58 35 65 35 6 0 11 5 11 10 0 6 4
10 10 10 5 0 26 11 46 25 21 14 44 23 51 20 8 -2 11 0 8 5 -3 6 2 13 12 17 10
4 20 10 23 13 3 4 27 20 55 36 27 16 59 35 70 41 11 7 28 16 38 19 9 3 17 10
17 14 0 5 26 21 58 37 77 38 76 37 67 22 -5 -8 -4 -11 1 -6 5 5 9 14 9 20 0 6
10 16 21 22 12 6 29 17 38 24 9 7 22 11 31 7 8 -3 14 0 12 7 -1 7 6 11 15 11
10 -1 16 2 13 6 -5 9 136 100 154 100 6 0 11 4 11 8 0 5 12 14 28 21 15 7 44
24 64 38 21 14 44 23 53 20 8 -4 14 -1 12 5 -1 6 16 22 38 34 22 13 47 28 55
34 8 6 50 33 93 61 42 28 77 55 77 61 0 6 7 8 15 4 8 -3 15 -1 15 5 0 6 34 47
75 92 41 44 75 86 75 93 0 7 4 14 9 16 11 4 94 158 85 158 -3 0 -1 6 5 13 6 8
13 24 15 38 3 13 5 26 6 29 2 3 2 8 1 12 0 4 5 25 13 45 20 55 38 237 32 324
-3 41 -17 128 -31 194 -33 154 -31 144 -49 187 -9 21 -16 40 -17 43 0 2 -11
30 -24 60 -14 31 -25 59 -25 63 0 4 -12 29 -26 55 -14 27 -23 55 -20 63 3 8 2
13 -2 10 -5 -3 -26 25 -47 62 -21 37 -53 88 -72 113 -18 26 -33 52 -33 58 0 6
-5 11 -10 11 -6 0 -14 9 -18 19 -4 11 -20 36 -37 56 -126 156 -159 189 -272
279 -29 22 -53 44 -53 48 0 5 -5 8 -10 8 -6 0 -20 9 -32 20 -44 41 -312 156
-388 166 -48 7 -189 25 -210 28 -14 1 -43 1 -65 -1z m204 -167 c4 -3 18 -7 32
-10 38 -8 121 -33 154 -46 17 -6 30 -10 31 -8 0 2 7 -2 15 -8 8 -6 40 -26 72
-43 68 -38 98 -61 91 -73 -3 -4 1 -6 8 -3 7 3 27 -5 43 -17 55 -41 213 -211
208 -223 -2 -7 1 -16 8 -21 8 -5 10 -3 4 6 -21 34 18 -6 59 -61 34 -45 45 -68
41 -83 -5 -16 -4 -18 4 -6 12 17 11 19 49 -50 16 -30 46 -84 66 -118 20 -35
36 -67 36 -71 0 -3 14 -35 31 -70 17 -35 33 -71 34 -80 2 -9 4 -17 5 -18 2 -2
3 -6 5 -10 1 -5 7 -21 13 -36 7 -16 12 -37 12 -47 0 -10 4 -21 9 -25 6 -3 9
-23 8 -44 -1 -22 1 -37 5 -35 5 3 9 2 9 -3 2 -10 7 -40 14 -78 13 -71 4 -362
-11 -387 -3 -5 -8 -20 -10 -35 -3 -15 -8 -31 -12 -37 -3 -6 -7 -16 -8 -22 -6
-36 -73 -154 -124 -216 -54 -67 -178 -178 -197 -178 -7 0 -13 -5 -13 -11 0 -6
-9 -9 -20 -6 -11 3 -18 1 -15 -3 5 -8 -45 -50 -60 -50 -3 0 -21 -11 -39 -25
-18 -14 -37 -25 -41 -25 -4 0 -23 -11 -41 -25 -18 -14 -37 -25 -43 -25 -5 0
-16 -6 -23 -14 -8 -7 -70 -45 -138 -85 -139 -79 -163 -94 -170 -101 -8 -8 -43
-29 -70 -42 -14 -7 -31 -18 -38 -25 -7 -7 -20 -13 -28 -13 -8 0 -14 -4 -14 -8
0 -5 -39 -30 -87 -57 -49 -26 -89 -52 -91 -57 -2 -4 -10 -8 -17 -8 -8 0 -20
-6 -27 -13 -7 -7 -35 -26 -63 -42 -27 -17 -59 -36 -70 -43 -11 -7 -29 -16 -40
-21 -11 -5 -35 -21 -54 -35 -19 -14 -39 -26 -43 -26 -5 0 -21 -8 -36 -19 -52
-36 -168 -109 -286 -180 -84 -50 -125 -70 -140 -66 -15 5 -17 4 -7 -3 15 -11
-25 -38 -279 -192 -8 -5 -64 -39 -123 -75 -85 -53 -111 -65 -121 -55 -9 7 -16
7 -20 1 -4 -5 2 -11 11 -14 15 -3 14 -6 -7 -16 -36 -17 -65 -35 -84 -50 -9 -7
-23 -11 -31 -7 -9 3 -13 2 -10 -4 6 -9 -66 -60 -85 -60 -5 0 -10 -3 -10 -8 0
-4 -17 -16 -37 -27 -21 -11 -40 -22 -43 -25 -19 -21 -143 -89 -152 -84 -6 4
-8 3 -5 -3 4 -6 -10 -19 -31 -29 -20 -10 -39 -22 -42 -25 -10 -12 -289 -179
-300 -179 -5 0 -10 -4 -10 -10 0 -5 -11 -12 -25 -16 -14 -3 -25 -11 -25 -16 0
-6 -9 -8 -20 -5 -11 3 -18 1 -15 -3 5 -8 -96 -80 -110 -80 -3 0 -23 -11 -46
-25 -22 -14 -45 -23 -51 -19 -7 4 -8 3 -4 -4 3 -6 -3 -16 -14 -22 -20 -11 -27
-2 -12 15 5 6 19 39 31 75 13 36 27 74 32 85 35 79 54 328 37 465 -13 99 -27
184 -34 210 -27 104 -57 199 -69 220 -7 14 -13 27 -13 30 0 26 -106 244 -159
328 -19 29 -31 57 -28 62 4 6 1 9 -7 8 -7 -2 -12 5 -12 14 1 10 -2 16 -6 13
-4 -3 -35 32 -68 78 -54 74 -75 99 -143 173 -23 26 -24 25 96 89 50 26 97 53
105 60 32 25 123 66 136 61 8 -3 11 0 7 10 -3 8 -2 14 3 12 5 -1 28 8 52 19
24 12 51 19 60 16 13 -4 14 -2 4 5 -10 6 6 19 58 46 39 20 76 33 82 30 6 -4 8
-2 4 4 -6 10 30 28 47 24 4 -1 7 2 7 8 0 5 21 18 46 30 54 23 58 24 48 8 -4
-7 -3 -8 5 -4 6 4 9 11 7 14 -2 4 30 25 72 47 42 22 79 42 82 45 17 17 102 50
112 44 7 -4 10 -4 6 1 -4 4 -1 17 7 29 19 27 19 80 0 96 -8 7 -13 15 -11 19 3
4 -7 8 -21 9 -15 1 -64 -17 -112 -42 -192 -97 -347 -179 -358 -188 -7 -6 -13
-7 -13 -3 0 4 -6 2 -14 -4 -8 -7 -61 -36 -118 -65 -56 -30 -141 -75 -188 -100
-47 -26 -114 -61 -150 -79 -36 -18 -67 -35 -70 -38 -3 -3 -32 -20 -66 -36 -69
-35 -64 -37 -163 37 -33 25 -60 50 -60 57 -1 7 -8 10 -18 6 -12 -5 -15 -2 -10
9 4 11 1 14 -12 11 -10 -2 -24 2 -32 9 -8 8 -29 21 -46 29 -18 7 -33 17 -33
21 0 5 -8 8 -18 8 -10 0 -26 6 -37 14 -22 15 -225 88 -225 81 0 -3 -11 0 -26
5 -34 13 -99 22 -159 21 -50 0 -50 0 -26 17 51 36 143 82 153 75 6 -3 8 -1 5
4 -4 7 23 27 66 49 39 21 113 59 162 85 50 26 123 64 163 83 40 19 86 45 103
57 16 11 37 18 45 15 8 -3 13 -2 10 3 -3 5 31 28 77 52 45 23 84 45 87 48 3 3
30 18 60 33 30 15 91 48 135 73 111 63 162 85 183 79 12 -4 14 -3 4 4 -10 7
-8 12 10 24 50 33 109 58 120 52 7 -4 8 -3 4 4 -4 7 19 24 61 45 114 57 206
106 248 132 22 13 67 38 100 55 33 17 96 50 140 75 107 60 165 86 176 80 5 -4
6 0 3 8 -4 10 6 19 30 27 20 6 36 16 36 21 0 6 4 8 9 4 5 -3 13 0 16 6 4 5 14
8 23 4 9 -3 13 -3 9 1 -9 9 28 30 278 164 39 20 88 47 110 60 22 12 74 41 115
63 41 22 100 55 131 73 31 19 61 34 65 34 5 0 26 12 47 26 21 14 45 23 53 20
7 -3 13 0 11 6 -1 6 27 26 62 44 35 19 99 54 141 78 94 55 226 117 250 119 10
1 17 4 14 8 -7 11 114 47 126 37 5 -4 8 -5 5 -1 -10 13 60 35 135 43 74 8 294
5 309 -4z m-3932 -2161 c54 -14 116 -32 138 -41 79 -32 124 -55 127 -66 2 -6
16 -12 31 -14 14 -1 42 -14 60 -28 19 -14 38 -26 44 -26 5 0 20 -11 33 -25 13
-14 28 -25 32 -25 13 0 43 -31 43 -44 0 -6 5 -11 12 -11 19 0 104 -75 98 -86
-4 -5 0 -9 8 -9 21 0 60 -47 52 -61 -5 -7 -4 -10 1 -6 13 7 24 -1 52 -37 21
-27 21 -30 5 -43 -16 -13 -16 -13 4 -4 27 14 33 14 33 1 0 -6 11 -23 25 -38
14 -15 36 -43 47 -62 12 -19 25 -37 28 -40 3 -3 16 -19 28 -36 15 -21 18 -34
11 -41 -8 -8 -7 -13 2 -18 8 -5 10 -4 5 3 -4 7 -2 12 3 12 6 0 11 -6 11 -13 0
-7 11 -28 23 -47 33 -48 39 -78 18 -83 -10 -3 -8 -5 8 -6 17 -1 21 -5 17 -17
-3 -8 -2 -13 3 -10 19 12 84 -157 131 -344 5 -19 12 -60 15 -90 4 -30 8 -57
11 -59 3 -3 -6 -11 -18 -18 -13 -7 -17 -12 -9 -13 7 0 11 -6 8 -13 -3 -8 -1
-20 5 -28 8 -12 9 -12 5 1 -2 8 -1 24 4 35 5 13 8 -6 9 -55 4 -143 -2 -215
-22 -295 -11 -44 -22 -89 -24 -100 -2 -11 -26 -66 -54 -121 -39 -78 -68 -120
-128 -183 -42 -45 -82 -81 -88 -81 -6 0 -19 -9 -30 -21 -39 -43 -222 -114
-349 -136 -37 -6 -253 -5 -274 2 -9 2 -32 7 -51 10 -71 12 -205 59 -284 100
-128 67 -146 79 -141 93 3 7 0 10 -6 7 -19 -12 -132 71 -122 89 3 6 3 8 -2 4
-10 -9 -114 77 -162 134 -19 23 -40 47 -47 53 -38 31 -107 126 -100 136 4 7 3
9 -4 5 -25 -15 -231 345 -218 381 3 8 2 12 -3 9 -5 -3 -13 7 -19 22 -25 63
-60 182 -69 232 -2 14 -8 41 -13 60 -14 51 -12 154 3 169 10 10 9 11 -5 6 -16
-6 -18 -1 -18 36 0 38 19 187 34 260 8 43 44 143 70 199 50 104 91 164 150
222 119 117 205 174 242 162 14 -4 16 -4 5 4 -11 8 -9 11 8 17 11 3 26 3 32
-1 7 -4 9 -3 5 4 -8 13 88 42 164 49 30 3 57 7 59 10 13 11 213 -10 298 -32z"/>
<path d="M6600 7128 c-19 -5 -43 -10 -52 -11 -9 -1 -14 -5 -11 -10 6 -10 -29
-37 -39 -31 -5 3 -8 0 -8 -5 0 -6 -6 -11 -14 -11 -8 0 -16 -3 -18 -8 -4 -9
-102 -72 -111 -72 -4 0 -46 -25 -93 -56 -48 -30 -92 -53 -100 -50 -7 3 -11 0
-8 -8 3 -7 -15 -22 -43 -36 -26 -13 -61 -33 -78 -44 -38 -27 -64 -43 -93 -56
-13 -5 -30 -17 -38 -25 -9 -8 -22 -15 -30 -15 -8 0 -14 -4 -14 -8 0 -5 -16
-14 -35 -22 -19 -8 -35 -17 -35 -21 0 -3 -15 -12 -32 -20 -18 -7 -35 -16 -38
-20 -3 -3 -36 -23 -75 -44 -38 -21 -110 -60 -160 -87 -49 -26 -119 -63 -155
-81 -36 -17 -68 -36 -72 -42 -5 -7 -8 -7 -8 0 0 6 -3 5 -8 -1 -4 -6 -50 -32
-102 -57 -52 -26 -153 -78 -225 -117 -120 -65 -250 -130 -262 -130 -2 0 -1 5
3 12 5 7 3 8 -5 4 -7 -5 -10 -10 -7 -13 7 -7 -14 -27 -36 -36 -22 -8 -33 -49
-22 -84 4 -16 7 -30 6 -33 -1 -6 26 -10 68 -10 14 0 70 23 125 51 185 95 196
100 207 93 6 -4 8 -3 5 4 -4 6 13 20 40 34 27 13 70 36 97 52 27 15 55 25 63
22 8 -3 11 -1 8 4 -3 6 4 14 18 19 13 5 61 30 108 56 46 26 102 57 124 69 22
11 42 23 45 26 13 13 63 30 72 24 6 -4 8 -3 5 3 -8 13 41 36 55 27 6 -4 8 -2
4 4 -10 17 35 42 69 38 16 -2 22 -1 12 1 -16 4 -14 8 14 29 18 13 38 24 45 24
7 0 20 7 29 16 8 9 22 13 31 10 8 -3 12 -2 9 3 -9 16 16 25 27 10 8 -12 9 -11
5 1 -4 17 89 74 106 63 5 -3 7 -2 4 4 -5 8 41 39 236 155 34 21 68 36 74 33 7
-2 12 1 10 7 -3 14 61 50 75 42 6 -4 8 -3 5 3 -6 9 81 69 241 166 63 39 73 54
68 102 -4 34 -28 67 -45 64 -3 -1 -22 -5 -41 -11z"/>
<path d="M7345 6510 c-27 -16 -55 -33 -62 -39 -6 -6 -31 -21 -55 -33 -24 -12
-69 -39 -100 -60 -31 -21 -67 -43 -80 -48 -25 -11 -60 -32 -68 -41 -3 -3 -21
-14 -40 -25 -19 -10 -52 -31 -74 -46 -21 -16 -44 -28 -51 -28 -6 0 -20 -8 -31
-18 -10 -9 -30 -25 -44 -34 -14 -10 -56 -40 -94 -67 -38 -28 -73 -48 -79 -44
-6 3 -7 1 -4 -4 4 -6 -44 -52 -106 -103 -61 -50 -179 -157 -260 -237 -99 -97
-153 -143 -163 -139 -8 3 -13 2 -10 -3 8 -13 -60 -80 -136 -134 -36 -26 -68
-47 -70 -47 -3 0 -57 -31 -120 -68 -63 -38 -213 -118 -334 -177 -120 -60 -241
-121 -267 -137 -27 -16 -53 -25 -59 -22 -7 4 -8 2 -4 -4 4 -6 -6 -19 -21 -29
-119 -75 -283 -251 -283 -304 0 -28 49 -79 76 -79 18 0 23 -4 17 -12 -4 -7 7
-2 24 12 18 14 32 31 32 38 1 6 5 12 9 12 4 0 15 12 24 28 39 65 218 219 240
206 6 -4 8 -3 4 4 -3 6 6 17 21 25 217 110 275 137 285 131 7 -5 8 -3 3 6 -6
10 -3 12 13 8 14 -4 20 -2 15 5 -4 7 0 8 13 3 10 -4 15 -4 12 0 -10 10 12 27
62 49 25 10 62 29 82 42 21 13 40 23 44 23 24 0 313 191 377 250 29 26 63 55
76 66 13 10 74 69 135 130 61 61 136 132 166 158 30 27 69 60 85 75 17 15 50
42 75 61 25 19 51 40 57 46 7 7 26 18 43 26 16 7 30 17 30 22 0 12 22 29 93
71 33 20 66 42 74 51 9 8 22 13 29 10 8 -3 13 0 11 6 -3 14 112 80 126 71 5
-3 7 -1 4 5 -4 6 27 30 75 58 46 26 85 51 86 56 2 4 10 8 18 8 8 0 14 4 14 9
0 5 9 13 21 16 11 4 47 24 79 46 33 21 61 39 65 39 3 0 14 9 25 20 29 29 27
83 -5 104 -34 23 -62 19 -120 -14z"/>
<path d="M7723 5846 c-13 -6 -23 -15 -23 -21 0 -5 -5 -3 -10 5 -8 13 -10 13
-10 -1 0 -9 -23 -28 -52 -44 -29 -15 -90 -52 -136 -82 -45 -29 -87 -53 -92
-53 -6 0 -10 -4 -10 -9 0 -5 -8 -11 -17 -15 -10 -3 -38 -19 -63 -35 -25 -16
-74 -46 -110 -67 -36 -20 -92 -55 -125 -77 -37 -25 -71 -40 -90 -39 -24 0 -26
-2 -10 -7 16 -7 9 -14 -45 -45 -36 -20 -83 -48 -105 -62 -22 -13 -50 -30 -62
-36 -13 -6 -23 -15 -23 -20 0 -4 -5 -8 -10 -8 -6 0 -24 -10 -40 -21 -16 -12
-35 -19 -44 -16 -9 4 -13 1 -10 -6 2 -7 -4 -17 -15 -22 -51 -27 -93 -52 -168
-101 -44 -30 -84 -54 -88 -54 -3 0 -36 -19 -73 -43 -37 -24 -82 -52 -99 -63
-131 -77 -204 -128 -214 -145 -6 -12 -8 -36 -5 -55 5 -25 15 -37 42 -50 38
-18 27 -23 176 77 31 22 60 39 63 39 3 0 30 16 60 36 29 20 59 33 65 29 6 -3
9 -1 8 5 -3 12 115 92 155 106 9 4 17 10 17 14 0 5 9 11 20 15 11 3 42 22 69
41 28 19 53 34 57 34 3 0 19 9 35 21 16 11 37 18 45 15 8 -3 12 -1 9 4 -3 5 5
15 19 22 14 6 26 15 26 20 0 4 6 8 13 8 8 0 33 14 55 30 23 17 44 30 47 30 3
0 32 18 63 40 32 23 67 42 79 43 12 0 19 5 17 9 -10 15 26 20 44 7 15 -13 16
-12 3 4 -16 20 -12 27 17 30 12 0 19 3 17 6 -9 9 35 32 48 25 6 -4 9 -4 5 1
-13 14 124 101 142 90 6 -3 7 1 4 9 -4 10 -1 16 9 16 8 0 20 6 26 14 7 8 31
24 54 35 23 12 49 25 57 31 8 5 53 32 100 61 193 116 204 128 189 183 -14 52
-54 68 -106 42z"/>
<path d="M2833 5114 c10 -16 -23 -27 -39 -13 -7 6 -19 9 -26 6 -8 -3 -6 -6 5
-6 25 -1 11 -21 -14 -21 -37 0 -175 -87 -228 -144 -13 -14 -28 -23 -34 -19 -6
3 -7 1 -3 -5 4 -6 -9 -31 -28 -56 -18 -25 -42 -66 -52 -93 -9 -26 -21 -53 -26
-59 -8 -11 -18 -56 -39 -169 -13 -68 -5 -265 11 -295 8 -14 7 -26 -1 -42 -6
-13 -8 -20 -4 -15 11 10 55 -143 49 -168 -4 -14 -3 -16 4 -7 7 11 11 8 15 -9
4 -13 1 -27 -6 -32 -8 -6 -7 -7 4 -4 11 4 21 -7 35 -36 10 -23 19 -44 19 -47
2 -16 144 -251 168 -277 17 -19 18 -25 7 -38 -10 -12 -11 -18 -1 -28 10 -9 11
-8 6 4 -10 27 11 31 31 6 16 -18 16 -19 2 -8 -11 8 -18 9 -18 3 0 -6 10 -14
23 -18 24 -8 54 -43 49 -59 -2 -5 0 -7 4 -2 4 4 27 -11 51 -35 35 -35 40 -44
30 -57 -10 -14 -10 -14 4 -3 14 11 23 7 60 -28 24 -22 52 -42 62 -45 9 -4 17
-11 17 -16 0 -5 7 -9 15 -9 8 0 15 -4 15 -10 0 -5 6 -10 13 -10 8 0 22 -9 32
-20 10 -11 27 -22 39 -26 11 -4 37 -18 57 -31 20 -13 45 -25 56 -27 12 -3 30
-10 41 -17 28 -17 77 4 97 43 13 26 13 34 0 64 -9 21 -21 34 -32 34 -11 0 -24
5 -31 12 -7 7 -12 9 -12 5 0 -10 -129 62 -154 85 -11 10 -23 18 -27 18 -4 0
-14 6 -21 13 -7 6 -36 30 -63 52 -72 57 -208 198 -245 255 -8 12 -21 28 -27
36 -7 7 -13 15 -13 19 0 4 -13 25 -28 48 -33 48 -107 202 -127 262 -20 60 -52
195 -55 235 -10 107 0 252 20 290 5 9 8 19 5 21 -8 8 71 154 83 152 6 -2 9 3
6 10 -6 18 93 110 108 101 6 -4 8 -3 5 3 -4 6 18 23 50 39 54 28 62 29 196 29
104 0 141 -3 145 -13 2 -6 8 -10 13 -6 18 11 70 -8 96 -34 15 -15 21 -19 14
-10 -11 15 -4 14 40 -6 30 -13 53 -29 51 -36 -1 -6 2 -8 8 -5 21 13 225 -139
213 -158 -3 -6 -2 -7 4 -4 13 8 136 -120 128 -133 -4 -6 -1 -9 5 -8 6 2 19 -8
28 -22 14 -21 14 -23 1 -13 -13 10 -16 10 -16 -2 0 -8 3 -13 5 -10 3 3 12 -1
20 -8 13 -9 14 -9 8 1 -4 6 -2 12 4 12 6 0 13 -8 17 -17 3 -10 21 -39 40 -64
18 -26 33 -51 33 -57 0 -6 3 -12 8 -14 4 -1 27 -43 51 -93 23 -49 47 -97 51
-106 6 -11 3 -22 -8 -34 -15 -16 -15 -17 -1 -12 12 4 21 -5 31 -33 15 -36 15
-37 -6 -34 -11 2 -15 2 -8 -2 6 -3 12 -12 12 -20 0 -7 6 -11 13 -8 8 3 14 -1
15 -8 0 -7 4 -38 8 -68 20 -146 2 -275 -47 -334 -5 -6 -18 -23 -30 -38 -11
-16 -27 -28 -35 -28 -8 0 -14 -4 -14 -8 0 -4 -23 -16 -51 -26 -72 -26 -202
-17 -290 21 -96 40 -205 109 -292 182 -76 65 -217 221 -217 241 0 5 -3 10 -8
10 -8 0 -13 8 -65 116 -21 44 -43 88 -49 98 -11 21 -21 66 -22 106 -1 14 -5
28 -11 32 -15 11 -9 137 8 166 5 6 5 12 2 12 -4 0 1 7 9 15 9 9 19 22 23 28 5
7 22 22 38 34 34 23 125 41 125 24 0 -6 -7 -8 -15 -5 -8 4 -15 2 -15 -3 0 -5
15 -10 33 -11 24 -2 28 0 17 8 -11 7 -7 10 18 10 63 0 284 -142 266 -172 -3
-5 0 -8 8 -6 21 4 67 -46 124 -137 74 -118 92 -186 66 -255 -15 -41 -27 -50
-68 -50 -45 0 -139 94 -195 194 -24 43 -55 91 -69 105 -13 14 -24 29 -22 34 1
4 -7 3 -18 -3 -11 -5 -28 -14 -39 -19 -12 -6 -23 -6 -32 2 -11 10 -12 9 -2 -2
8 -10 9 -20 1 -37 -9 -18 -6 -34 10 -75 12 -28 19 -55 16 -60 -3 -5 0 -8 7 -7
6 2 23 -16 38 -38 52 -83 80 -122 91 -129 6 -3 7 -11 4 -17 -4 -6 -2 -8 4 -4
6 3 14 1 17 -5 4 -6 33 -27 64 -47 31 -19 62 -43 69 -51 8 -9 10 -10 6 -2 -5
11 2 12 36 6 25 -4 59 -2 84 5 44 12 116 67 116 88 0 7 4 12 9 12 5 0 16 20
24 45 24 70 14 165 -30 275 -3 8 -6 17 -5 20 0 3 -17 32 -39 64 -21 32 -39 62
-39 66 0 4 -7 10 -15 14 -8 3 -15 12 -15 19 0 8 -7 20 -15 27 -8 7 -12 17 -8
24 3 6 3 8 0 5 -4 -3 -37 23 -73 57 -72 70 -150 125 -219 155 -25 11 -45 23
-45 27 0 4 -10 9 -22 10 -38 4 -52 7 -65 15 -14 9 -125 10 -163 3 -47 -10
-129 -55 -165 -92 -72 -72 -115 -215 -94 -314 4 -19 10 -59 13 -89 4 -30 13
-68 20 -85 15 -34 29 -68 30 -76 1 -3 9 -22 19 -43 10 -20 15 -42 11 -49 -4
-7 -3 -8 5 -4 7 5 15 -4 22 -23 6 -17 15 -31 19 -31 5 0 12 -9 15 -20 4 -12
40 -65 80 -119 40 -55 70 -102 67 -106 -4 -4 -2 -5 4 -3 13 4 124 -96 124
-112 0 -6 4 -9 9 -6 12 8 33 -19 23 -29 -4 -5 -2 -5 5 -1 6 3 40 -13 75 -37
73 -51 180 -107 203 -107 18 0 20 -17 3 -23 -7 -2 -2 -2 12 0 14 2 41 -2 60
-7 19 -6 46 -13 60 -16 14 -2 46 -9 72 -15 45 -10 174 2 203 19 11 7 32 12 53
14 6 1 12 7 12 15 0 7 6 13 14 13 23 0 129 111 153 160 45 94 63 189 57 310
-2 52 -7 103 -10 112 -5 16 -10 39 -20 87 -3 14 -7 28 -10 33 -3 5 -8 20 -10
35 -3 15 -11 34 -17 42 -7 8 -11 17 -11 20 2 8 -14 46 -49 119 -17 34 -30 69
-30 77 0 8 -4 12 -9 9 -4 -3 -13 8 -20 23 -12 28 -83 138 -102 159 -6 7 -22
27 -36 45 -77 100 -286 294 -358 330 -40 20 -73 47 -65 51 5 3 2 3 -5 2 -7 -2
-20 0 -30 5 -38 20 -134 62 -150 65 -9 1 -24 6 -32 9 -73 28 -271 45 -315 28
-12 -5 -26 -4 -34 3 -11 8 -13 8 -8 0z"/>
</g>
</svg>
