<?xml version="1.0" standalone="no"?>
<!DOCTYPE svg PUBLIC "-//W3C//DTD SVG 20010904//EN"
 "http://www.w3.org/TR/2001/REC-SVG-20010904/DTD/svg10.dtd">
<svg version="1.0" xmlns="http://www.w3.org/2000/svg"
 width="1024.000000pt" height="1024.000000pt" viewBox="0 0 1024.000000 1024.000000"
 preserveAspectRatio="xMidYMid meet">
<metadata>
Created by potrace 1.16, written by Peter Selinger 2001-2019
</metadata>
<g transform="translate(0.000000,1024.000000) scale(0.100000,-0.100000)"
fill="#000000" stroke="none">
<path d="M4910 8394 c-148 -17 -353 -73 -477 -129 -40 -19 -81 -32 -91 -29
-13 4 -14 3 -4 -4 10 -7 5 -12 -20 -23 -18 -8 -36 -13 -40 -11 -5 1 -8 -2 -8
-8 0 -14 -59 -42 -72 -34 -6 4 -8 3 -4 -4 8 -14 -83 -76 -109 -74 -14 1 -16
-1 -6 -7 18 -11 -2 -23 -26 -15 -12 4 -14 3 -5 -3 9 -7 -1 -21 -40 -53 -187
-156 -380 -382 -518 -608 -18 -29 -36 -49 -42 -45 -7 3 -8 1 -4 -5 8 -13 -60
-142 -75 -142 -5 0 -8 -4 -7 -9 5 -16 -126 -270 -135 -264 -6 3 -7 1 -3 -6 9
-13 -2 -53 -13 -47 -4 3 -7 -3 -8 -12 0 -9 -32 -98 -71 -198 -39 -99 -87 -235
-108 -302 -21 -66 -41 -119 -44 -117 -4 2 -5 -8 -3 -23 3 -24 2 -25 -7 -7 -9
18 -10 18 -6 -5 6 -30 -34 -191 -46 -184 -4 3 -5 -1 -3 -9 3 -7 -5 -58 -18
-113 -14 -54 -37 -165 -53 -246 -15 -81 -31 -145 -36 -142 -4 3 -5 -1 -3 -8 3
-8 -8 -119 -24 -248 -69 -541 -66 -972 9 -1398 11 -62 18 -117 15 -122 -3 -4
0 -10 6 -12 7 -2 13 -26 13 -56 1 -29 6 -56 11 -60 6 -4 23 -50 39 -102 15
-52 47 -146 72 -208 24 -63 41 -119 37 -124 -3 -6 -2 -8 4 -5 5 3 24 -24 42
-60 26 -52 30 -68 19 -75 -10 -8 -10 -9 2 -5 10 2 26 -17 49 -57 18 -34 56
-94 82 -134 27 -40 46 -78 43 -84 -4 -6 -3 -8 3 -5 13 8 76 -70 68 -83 -4 -6
-2 -9 3 -8 5 2 50 -43 101 -99 50 -56 99 -106 107 -111 8 -5 16 -17 18 -27 2
-10 9 -21 16 -23 8 -3 10 0 6 7 -4 6 32 -20 81 -60 48 -39 87 -75 85 -81 -1
-5 2 -7 7 -4 5 3 43 -17 85 -44 41 -28 123 -77 181 -109 57 -32 101 -62 97
-66 -4 -5 -2 -5 4 -2 6 4 76 -18 156 -48 402 -151 814 -196 1248 -134 74 10
179 30 234 44 54 14 102 22 107 19 5 -3 9 -1 9 5 0 6 24 18 54 26 124 36 297
114 441 200 82 48 90 52 79 33 -4 -7 -3 -8 5 -4 6 4 9 11 6 16 -6 9 43 43 62
43 7 0 10 3 8 7 -2 4 17 22 43 41 26 18 88 70 138 116 51 45 95 79 99 75 5 -4
5 -2 2 4 -8 14 66 87 78 77 4 -5 5 -3 1 4 -3 6 11 31 31 55 21 24 55 67 76 96
22 29 44 49 49 45 6 -3 8 -1 4 5 -3 6 16 44 44 85 99 151 190 333 254 510 18
48 36 84 41 80 4 -5 5 -2 1 5 -4 6 4 49 18 95 13 45 30 108 37 139 6 32 16 55
20 52 5 -3 6 1 3 9 -2 7 4 65 15 128 42 237 61 465 60 713 -2 648 -175 1511
-428 2133 -30 75 -47 131 -44 145 3 15 2 19 -4 11 -10 -14 -160 292 -155 315
2 8 -1 11 -6 8 -12 -7 -85 121 -76 135 3 5 1 8 -4 7 -5 -2 -50 58 -100 132
-120 179 -204 282 -339 417 -62 61 -113 109 -113 107 0 -3 -16 7 -35 22 -19
14 -33 29 -30 33 2 4 -1 8 -8 8 -7 0 -55 29 -108 64 -53 35 -137 84 -187 108
-50 25 -89 48 -86 52 2 4 -1 11 -7 15 -8 4 -9 3 -5 -4 10 -17 2 -15 -121 27
-62 21 -109 42 -105 46 4 5 1 5 -6 1 -13 -8 -162 14 -162 23 0 7 -418 11 -470
5z m370 -174 c128 -14 213 -32 197 -42 -7 -5 -2 -6 13 -3 32 7 197 -48 217
-72 8 -10 12 -12 8 -5 -9 18 -3 16 79 -25 41 -20 72 -41 69 -46 -3 -6 -1 -7 5
-3 13 7 86 -37 76 -46 -3 -3 3 -5 13 -5 12 1 17 -4 17 -16 -1 -13 1 -15 10 -8
21 18 303 -219 289 -242 -3 -6 -1 -7 5 -4 15 10 62 -49 57 -73 -2 -12 0 -18 6
-15 5 4 6 12 2 18 -3 7 3 3 16 -7 12 -11 19 -26 16 -33 -2 -8 -1 -12 4 -9 12
8 42 -28 39 -45 -2 -8 3 -13 9 -12 16 4 114 -136 106 -151 -3 -6 -3 -8 2 -4
10 9 29 -16 98 -131 57 -94 67 -119 45 -105 -7 4 -8 3 -4 -5 4 -6 11 -9 16 -6
7 4 140 -242 140 -260 0 -3 -4 -4 -9 0 -5 3 -13 0 -17 -6 -4 -8 -3 -9 4 -5 7
4 12 2 12 -4 0 -6 4 -8 10 -5 6 4 7 -1 3 -11 -4 -11 -2 -15 4 -11 12 8 58 -97
49 -111 -6 -10 13 -76 20 -69 3 2 0 17 -6 32 -6 15 -9 30 -7 32 8 8 178 -459
177 -485 -1 -4 -7 4 -14 18 l-14 25 1 -28 c1 -17 8 -27 17 -27 18 0 65 -160
124 -415 41 -179 51 -235 38 -216 -6 8 -12 9 -16 3 -3 -6 3 -13 14 -17 11 -3
20 -12 20 -18 0 -7 3 -30 6 -52 4 -30 3 -36 -5 -25 -6 9 -11 10 -11 3 0 -6 7
-19 16 -28 10 -9 14 -26 12 -40 -3 -13 -2 -22 2 -20 8 5 13 -25 36 -223 8 -74
13 -140 10 -147 -3 -8 -1 -15 3 -17 5 -2 14 -97 21 -212 30 -524 -42 -1030
-205 -1431 -56 -136 -65 -155 -75 -155 -6 0 -9 -3 -7 -8 4 -14 -36 -92 -44
-86 -5 3 -6 -3 -2 -12 4 -12 3 -15 -5 -10 -8 4 -10 2 -6 -7 3 -8 -2 -21 -10
-30 -9 -9 -16 -20 -16 -25 0 -11 -116 -176 -169 -239 -19 -23 -38 -40 -43 -37
-5 3 -7 0 -6 -7 5 -21 -54 -47 -162 -70 -95 -21 -132 -23 -380 -23 -237 -1
-295 2 -417 22 -271 43 -535 107 -511 124 9 6 6 7 -7 4 -33 -9 -339 108 -357
137 -4 7 -8 8 -8 4 0 -11 -136 64 -230 126 -101 67 -161 117 -154 128 3 5 -1
6 -9 4 -7 -3 -31 13 -54 37 -22 24 -51 52 -64 63 -80 67 -244 269 -232 288 3
5 1 7 -5 4 -26 -17 -173 263 -233 443 -142 424 -121 866 60 1265 57 125 121
236 133 229 6 -4 8 -2 5 4 -10 14 103 163 117 155 6 -3 8 -2 3 2 -10 11 63 86
76 78 6 -3 7 -1 3 5 -8 14 102 104 116 95 7 -3 8 -1 4 5 -8 13 71 67 174 119
167 85 385 126 549 104 140 -20 284 -66 259 -83 -9 -7 -8 -8 6 -4 27 9 190
-91 183 -112 -1 -4 3 -8 8 -10 22 -6 105 -97 100 -110 -2 -7 -1 -11 4 -7 13 8
54 -52 45 -66 -4 -7 -3 -9 3 -6 14 9 67 -111 94 -213 33 -123 33 -305 0 -410
-28 -90 -78 -193 -91 -185 -5 3 -12 0 -16 -6 -4 -8 -3 -9 4 -5 22 13 12 -7
-24 -51 -19 -24 -40 -40 -46 -37 -6 4 -8 3 -5 -3 9 -14 -59 -77 -72 -68 -6 3
-10 1 -9 -6 4 -18 -128 -86 -205 -105 -51 -12 -94 -15 -165 -11 -106 5 -173
23 -150 39 9 7 7 8 -7 4 -11 -3 -33 3 -50 14 -16 11 -41 20 -53 20 -35 0 -79
-52 -84 -99 -2 -22 0 -37 4 -35 7 5 12 -10 9 -28 0 -5 2 -7 7 -6 4 0 33 -11
64 -25 100 -46 173 -61 303 -62 101 0 131 4 190 24 83 28 154 63 213 103 23
16 47 26 52 23 6 -4 9 -2 8 3 -2 5 26 39 62 74 156 153 243 351 257 579 7 122
-7 237 -43 350 -13 42 -21 85 -18 95 4 13 3 15 -3 7 -6 -9 -21 11 -46 63 -21
41 -35 79 -33 83 3 4 0 13 -6 21 -8 12 -9 12 -4 -2 3 -10 4 -18 2 -18 -8 0
-79 105 -79 117 0 7 -3 11 -5 8 -9 -9 -52 37 -45 49 3 6 3 8 -1 4 -5 -4 -33
14 -64 39 -68 56 -178 128 -210 137 -12 4 -19 12 -16 18 4 6 2 8 -3 5 -16 -10
-73 13 -73 29 0 9 -12 13 -37 12 -21 -1 -81 7 -133 16 -111 21 -313 17 -418
-9 -35 -8 -75 -13 -90 -10 -15 3 -21 2 -13 -1 8 -4 -25 -22 -80 -45 -51 -21
-97 -35 -102 -32 -6 3 -7 1 -3 -5 3 -6 -2 -13 -12 -16 -10 -4 -44 -22 -76 -41
-32 -19 -64 -32 -74 -29 -12 4 -13 3 -4 -3 9 -7 1 -18 -32 -41 -24 -17 -47
-28 -51 -24 -5 4 -5 2 -2 -4 7 -12 -72 -81 -86 -76 -5 1 -6 -1 -4 -5 3 -5 -1
-14 -8 -20 -11 -10 -15 -9 -18 5 -3 11 -5 8 -6 -9 -1 -28 -33 -64 -46 -52 -4
5 -5 3 -2 -3 7 -12 -16 -38 -25 -29 -2 3 -5 -1 -5 -8 0 -8 -13 -30 -29 -50
-20 -25 -31 -33 -37 -24 -5 8 -7 8 -5 -3 4 -19 -60 -120 -74 -117 -6 1 -13 -5
-15 -13 -4 -13 -3 -13 6 0 20 28 11 3 -15 -44 -14 -25 -30 -44 -34 -41 -5 3
-12 0 -16 -6 -4 -8 -3 -9 4 -5 15 9 15 3 1 -28 -7 -14 -16 -23 -22 -19 -6 3
-7 1 -4 -4 4 -6 -8 -44 -27 -84 -38 -84 -112 -305 -127 -382 -40 -208 -48
-413 -23 -607 9 -69 17 -142 18 -162 0 -21 5 -38 10 -38 5 0 6 -15 2 -32 -3
-20 -3 -28 3 -20 6 10 10 6 14 -15 3 -15 9 -37 13 -47 6 -15 4 -18 -8 -13 -12
4 -14 1 -11 -14 3 -11 9 -22 14 -25 5 -3 6 2 3 10 -3 9 -2 16 3 16 5 0 19 -33
32 -72 13 -40 38 -106 57 -147 19 -40 31 -78 27 -84 -3 -5 -2 -7 4 -4 12 8 56
-81 47 -95 -4 -7 -2 -8 4 -4 6 4 18 -6 26 -23 11 -20 12 -31 5 -33 -7 -2 -4
-10 7 -18 16 -13 17 -13 9 0 -15 26 4 5 40 -45 19 -27 32 -52 29 -57 -3 -5 -1
-7 4 -6 13 4 112 -124 105 -136 -3 -5 -2 -6 4 -3 10 6 90 -82 86 -95 -2 -5 1
-7 5 -5 5 1 41 -28 80 -64 57 -53 69 -69 59 -80 -10 -11 -9 -11 4 -1 14 10 22
8 48 -14 17 -14 28 -31 24 -36 -3 -6 -1 -8 4 -5 6 4 30 -8 54 -27 25 -18 80
-57 124 -86 44 -28 79 -56 78 -61 -2 -4 3 -6 10 -4 17 7 199 -89 190 -100 -5
-4 -3 -5 4 -1 16 9 94 -24 86 -37 -3 -5 -1 -7 5 -3 13 8 334 -99 325 -108 -4
-4 -1 -4 8 -1 8 3 62 -5 119 -19 127 -29 250 -53 356 -67 132 -17 422 -28 549
-20 66 4 124 4 128 0 13 -10 -84 -81 -102 -74 -9 3 -12 3 -8 -1 8 -8 -11 -34
-25 -34 -5 0 -6 5 -2 12 4 7 3 8 -5 4 -6 -4 -9 -11 -6 -16 8 -12 -63 -50 -83
-44 -12 4 -14 3 -4 -4 18 -12 -119 -85 -145 -76 -13 4 -14 3 -5 -4 19 -13
-151 -85 -181 -77 -16 5 -18 4 -8 -3 22 -16 -197 -78 -434 -123 -33 -6 -159
-13 -280 -16 -174 -4 -246 -2 -345 11 -230 32 -416 81 -607 162 -168 72 -368
188 -356 206 3 7 1 8 -5 4 -20 -12 -197 128 -185 147 4 6 1 7 -6 2 -15 -9
-164 142 -256 259 -118 152 -239 355 -228 384 4 9 2 13 -4 9 -24 -15 -148 317
-197 523 -30 128 -48 233 -43 256 2 13 1 21 -3 19 -18 -11 -35 286 -35 610 1
290 4 367 23 525 59 479 140 845 283 1273 80 238 238 604 259 599 6 -1 9 2 5
8 -11 18 124 264 151 274 9 3 12 10 9 16 -7 12 85 148 182 270 97 122 260 279
377 364 118 85 142 99 158 90 7 -4 8 -3 4 5 -10 15 156 93 181 85 13 -4 14 -3
5 3 -22 16 219 83 364 102 97 12 252 12 364 1z"/>
<path d="M5074 5246 c-17 -8 -38 -23 -46 -35 -8 -11 -17 -18 -20 -15 -3 3 -9
0 -14 -7 -4 -7 -3 -10 3 -6 7 4 9 -9 5 -38 -4 -38 0 -52 23 -84 17 -25 38 -42
56 -46 16 -4 27 -11 24 -15 -3 -5 15 -2 40 6 139 48 136 224 -5 247 -20 4 -48
0 -66 -7z"/>
</g>
</svg>
