<?xml version="1.0" standalone="no"?>
<!DOCTYPE svg PUBLIC "-//W3C//DTD SVG 20010904//EN"
 "http://www.w3.org/TR/2001/REC-SVG-20010904/DTD/svg10.dtd">
<svg version="1.0" xmlns="http://www.w3.org/2000/svg"
 width="1024.000000pt" height="1024.000000pt" viewBox="0 0 1024.000000 1024.000000"
 preserveAspectRatio="xMidYMid meet">
<metadata>
Created by potrace 1.16, written by Peter Selinger 2001-2019
</metadata>
<g transform="translate(0.000000,1024.000000) scale(0.100000,-0.100000)"
fill="#000000" stroke="none">
<path d="M3679 8066 c-2 -2 -35 -7 -74 -10 -92 -7 -180 -23 -230 -42 -57 -22
-109 -48 -115 -56 -3 -4 -15 -11 -27 -15 -43 -16 -161 -134 -202 -201 -61
-102 -66 -141 -41 -318 12 -82 24 -176 26 -209 3 -33 8 -67 11 -75 3 -8 7 -31
8 -50 5 -67 13 -125 20 -153 l7 -27 -103 7 c-173 11 -357 7 -434 -11 -38 -9
-79 -18 -90 -21 -12 -3 -47 -14 -79 -25 -32 -11 -63 -17 -69 -13 -6 3 -7 1 -3
-5 4 -8 -14 -22 -51 -39 -80 -39 -93 -47 -93 -55 0 -5 -5 -8 -10 -8 -6 0 -16
-5 -23 -10 -23 -19 -55 -45 -82 -65 -15 -11 -64 -58 -109 -104 -116 -120 -116
-120 -116 -130 0 -6 -8 -16 -17 -23 -10 -7 -36 -40 -58 -73 -22 -33 -42 -62
-46 -65 -3 -3 -11 -15 -18 -28 -7 -12 -16 -20 -20 -17 -5 2 -8 -1 -7 -8 0 -6
-25 -64 -56 -127 -53 -107 -67 -139 -74 -165 -1 -5 -8 -23 -15 -40 -6 -16 -13
-34 -15 -40 -1 -5 -12 -34 -22 -62 -11 -29 -18 -53 -16 -53 2 0 -2 -16 -10
-35 -9 -20 -15 -38 -16 -40 0 -3 0 -6 -1 -7 -2 -9 -10 -40 -22 -86 -7 -29 -16
-50 -20 -45 -5 4 -5 0 -2 -10 4 -9 2 -38 -4 -64 -6 -27 -14 -73 -17 -103 -3
-30 -7 -66 -9 -80 -14 -93 -20 -198 -20 -350 0 -156 10 -318 20 -328 2 -2 0
-15 -6 -29 -5 -13 -5 -22 0 -19 5 3 11 -11 14 -32 14 -98 20 -125 47 -234 17
-65 39 -141 50 -170 13 -36 16 -54 9 -59 -8 -5 -8 -12 0 -26 5 -11 7 -24 3
-28 -4 -5 -1 -5 6 -1 7 4 12 2 12 -5 0 -7 3 -9 6 -6 4 4 1 13 -6 22 -7 9 -10
18 -7 21 3 3 29 -43 58 -103 29 -59 63 -125 76 -146 13 -21 21 -42 18 -48 -4
-5 -1 -8 7 -7 8 2 12 -4 10 -15 -2 -9 1 -16 6 -15 13 4 112 -124 105 -136 -3
-5 -2 -6 4 -3 5 3 52 -36 104 -86 160 -157 339 -260 547 -312 92 -23 121 -28
252 -41 33 -4 60 -12 68 -22 7 -9 12 -11 12 -4 0 7 15 12 36 12 19 0 33 -3 31
-7 -3 -5 22 -6 55 -5 33 2 58 0 55 -5 -3 -4 16 -8 41 -8 43 0 210 -11 292 -20
309 -30 1160 -109 1285 -119 33 -2 151 -14 261 -25 111 -12 230 -23 265 -26
35 -2 163 -15 285 -27 184 -19 220 -25 217 -38 -4 -12 -3 -12 5 -1 8 11 30 12
113 6 57 -4 122 -9 144 -11 22 -1 125 -12 230 -22 104 -11 192 -19 195 -17 4
2 24 0 46 -5 21 -5 78 -11 126 -14 47 -4 92 -8 100 -11 7 -2 49 -7 93 -10 44
-2 123 -9 175 -15 145 -15 392 -12 493 5 48 9 92 13 97 10 6 -3 10 -2 10 2 0
5 33 17 73 28 39 10 81 23 92 28 11 6 25 12 31 13 6 1 50 20 97 42 149 70 273
161 424 311 76 75 139 143 141 150 1 7 10 21 19 30 14 14 81 112 120 176 15
25 128 253 138 280 5 11 10 28 12 38 1 10 10 31 18 48 9 16 12 29 8 29 -4 0
-2 5 5 12 7 7 12 21 12 33 0 11 6 31 13 45 13 25 35 100 44 150 2 14 5 32 7
40 1 8 6 29 10 45 9 39 15 86 21 160 3 33 9 89 14 125 9 64 7 403 -2 470 -3
19 -6 51 -7 70 -2 19 -6 49 -11 65 -5 17 -11 57 -14 90 -3 33 -12 85 -21 115
-8 30 -17 66 -20 80 -5 28 -56 180 -74 225 -7 17 -19 44 -26 62 -8 17 -14 34
-14 38 0 16 -114 233 -139 265 -15 19 -35 49 -44 66 -9 17 -23 37 -33 45 -21
17 -69 91 -66 101 1 5 -1 7 -6 7 -19 -3 -25 2 -12 11 13 9 13 10 0 10 -8 0
-51 35 -95 76 -93 88 -204 166 -305 215 -25 12 -56 27 -70 34 -14 7 -29 14
-35 15 -5 1 -21 7 -35 12 -28 11 -121 35 -160 42 -14 3 -25 5 -25 6 0 1 -18 3
-40 5 -22 2 -71 6 -110 9 -142 13 -172 15 -255 21 -47 3 -119 8 -160 11 -41 2
-97 6 -125 9 -27 2 -93 6 -145 10 -125 8 -120 7 -114 17 3 4 -2 8 -10 8 -8 0
-18 -5 -22 -11 -3 -6 -18 -8 -33 -4 -14 3 -73 8 -131 10 -58 3 -145 8 -195 11
-49 3 -121 7 -158 8 -45 1 -71 6 -76 15 -6 9 -11 10 -15 2 -4 -6 -11 -9 -16
-6 -5 3 -91 8 -192 11 -211 6 -224 7 -418 23 -80 6 -190 14 -245 16 -55 3
-122 7 -150 10 -27 3 -97 7 -155 10 -58 3 -120 9 -137 14 -18 5 -33 8 -33 5 0
-7 -84 47 -102 67 -10 10 -18 22 -18 27 0 5 -7 15 -15 22 -9 7 -13 15 -11 18
3 2 1 13 -5 24 -6 11 -12 29 -15 41 -2 12 -11 58 -20 102 -9 44 -18 98 -21
120 -2 22 -13 96 -24 165 -11 69 -22 142 -25 163 -3 21 -10 51 -15 65 -15 37
-22 72 -22 102 0 14 -2 19 -4 12 -5 -14 -19 5 -42 55 -15 33 -131 143 -158
149 -13 4 -23 11 -23 17 0 6 -3 7 -7 4 -3 -4 -21 3 -40 14 -18 11 -33 18 -33
15 0 -4 -12 0 -27 7 -27 14 -65 21 -162 32 -24 3 -47 7 -51 10 -4 2 -9 3 -11
1z m101 -221 c18 -3 40 -10 49 -14 9 -5 21 -11 26 -13 6 -1 9 -5 8 -8 -1 -3
10 -6 23 -6 31 -2 107 -59 131 -99 31 -52 33 -104 5 -155 -13 -25 -35 -56 -49
-70 -24 -24 -24 -25 -39 -6 -7 11 -14 15 -14 9 0 -7 5 -15 11 -18 18 -12 -109
-86 -173 -101 -10 -2 -28 -7 -40 -10 -55 -14 -179 -16 -195 -2 -12 9 -15 9 -9
1 4 -7 2 -13 -3 -13 -6 0 -11 3 -11 8 0 4 -19 7 -42 8 -24 0 -52 3 -63 6 -40
11 -94 41 -89 50 3 4 -2 5 -11 2 -21 -8 -73 39 -91 83 -18 41 -18 95 0 136 24
54 124 147 158 147 10 0 18 5 18 10 0 6 4 10 9 10 5 0 22 5 38 12 29 12 39 15
58 19 2 1 26 7 52 13 47 12 176 13 243 1z m325 -577 c-2 -31 0 -45 4 -33 8 19
12 0 27 -118 16 -125 67 -261 127 -339 19 -25 32 -49 29 -53 -4 -4 -2 -5 3 -4
17 5 56 -21 49 -33 -4 -6 -3 -8 4 -4 6 3 26 -2 44 -13 37 -20 134 -51 186 -58
18 -3 81 -8 140 -11 84 -6 106 -10 104 -21 -2 -11 0 -12 11 -2 20 16 262 6
807 -33 36 -3 94 -5 129 -6 59 0 62 -1 50 -17 -12 -16 -12 -17 2 -6 9 7 20 9
24 5 5 -4 5 -1 1 5 -5 9 1 11 21 8 15 -2 125 -9 243 -15 242 -12 328 -17 450
-29 47 -4 114 -6 150 -5 36 1 68 0 73 -3 4 -2 -24 -25 -62 -50 -40 -25 -76
-41 -82 -37 -8 4 -9 3 -5 -4 4 -6 -4 -21 -17 -32 -40 -35 -151 -145 -174 -174
-13 -15 -27 -25 -33 -21 -5 3 -7 0 -4 -8 3 -8 -1 -21 -8 -28 -25 -25 -108
-146 -108 -157 0 -20 -16 -21 -98 -3 -44 10 -83 16 -86 13 -3 -2 -11 0 -18 5
-7 6 -42 14 -78 18 -36 5 -76 10 -90 12 -124 18 -292 23 -412 14 -73 -6 -146
-13 -163 -16 -16 -3 -55 -7 -85 -10 -30 -3 -73 -10 -95 -16 -22 -5 -56 -12
-75 -15 -19 -3 -42 -8 -50 -11 -8 -3 -26 -8 -40 -10 -14 -2 -29 -5 -35 -7 -5
-2 -14 -4 -20 -6 -5 -1 -25 -8 -42 -15 -18 -8 -33 -12 -33 -10 0 2 -19 -3 -42
-11 -24 -9 -50 -17 -58 -19 -8 -2 -15 -4 -15 -5 0 -1 -8 -3 -18 -5 -10 -2 -26
-7 -35 -11 -9 -4 -19 -8 -22 -9 -3 -1 -12 -5 -20 -8 -8 -4 -24 -8 -35 -10 -11
-1 -25 -5 -30 -9 -6 -3 -28 -9 -50 -13 -22 -4 -46 -12 -52 -18 -7 -5 -13 -6
-13 -2 0 4 -6 3 -12 -2 -7 -6 -20 -11 -28 -11 -23 -1 -44 -7 -57 -15 -7 -5
-17 -6 -22 -2 -5 3 -12 1 -16 -4 -3 -5 -13 -10 -23 -10 -18 1 -80 -8 -122 -17
-80 -16 -234 -21 -365 -11 -83 7 -166 23 -130 27 12 1 15 4 7 7 -7 3 -19 -1
-27 -7 -9 -8 -25 -9 -42 -5 -16 5 -37 10 -48 12 -11 2 -27 6 -35 10 -8 3 -20
7 -26 8 -21 5 -218 77 -259 95 -22 9 -51 21 -65 25 -14 4 -47 17 -75 30 -27
13 -93 37 -145 55 -52 18 -99 35 -105 40 -11 8 -126 47 -163 55 -12 3 -32 8
-44 11 -13 3 -27 6 -33 7 -5 2 -16 6 -23 11 -7 4 -16 6 -18 3 -3 -3 -20 -1
-37 4 -55 17 -103 27 -169 34 -24 2 -54 7 -68 10 -56 12 -203 19 -333 17 -95
-2 -137 1 -132 8 3 6 11 7 17 4 7 -4 8 -2 4 4 -5 9 55 100 99 148 5 7 30 35
55 64 25 28 77 75 115 103 39 29 72 55 73 59 2 5 8 8 14 8 6 0 36 16 68 35 32
20 80 42 107 51 109 34 170 49 200 49 17 0 29 3 27 7 -5 8 252 3 376 -7 49 -4
96 -14 110 -23 23 -14 24 -14 11 1 -12 15 -11 17 9 17 28 0 86 35 95 58 25 60
22 164 -12 367 -3 22 -7 52 -8 66 -2 25 0 26 27 17 15 -6 28 -14 28 -19 0 -5
3 -8 8 -7 4 1 39 -6 79 -15 40 -9 84 -17 98 -17 14 0 24 -3 22 -7 -7 -11 228
3 288 17 78 18 174 59 255 111 41 26 76 48 77 48 1 1 0 -23 -2 -51z m3385
-859 c66 -13 212 -68 206 -77 -2 -4 6 -8 18 -8 13 -1 53 -21 90 -45 50 -33 66
-49 62 -62 -3 -14 -1 -16 8 -7 10 8 32 -8 90 -66 42 -42 73 -81 69 -87 -3 -5
-2 -7 4 -4 12 8 56 -50 48 -63 -4 -6 -1 -9 6 -8 16 4 129 -163 125 -185 -2 -9
-1 -15 4 -12 10 6 25 -13 35 -44 5 -15 3 -21 -3 -17 -6 4 -8 -2 -5 -14 3 -11
10 -23 16 -27 6 -4 7 -1 2 7 -5 8 -4 11 2 7 11 -7 74 -155 112 -262 34 -97 51
-193 32 -181 -6 4 -11 2 -11 -3 0 -6 6 -11 14 -11 11 0 24 -32 31 -75 1 -5 4
-23 8 -40 20 -86 31 -229 31 -385 0 -117 -10 -287 -18 -310 -3 -8 -7 -40 -10
-70 -5 -61 -5 -61 -35 -175 -11 -44 -22 -94 -26 -112 -3 -18 -10 -45 -16 -60
-6 -15 -12 -36 -14 -45 -2 -10 -11 -34 -20 -55 -10 -21 -21 -47 -25 -58 -23
-54 -106 -223 -120 -245 -9 -14 -34 -52 -56 -85 -21 -33 -47 -69 -57 -80 -10
-11 -25 -32 -32 -46 -13 -25 -40 -44 -57 -41 -4 1 -5 -4 -2 -12 7 -17 -144
-158 -159 -149 -7 3 -9 3 -5 -2 9 -9 -51 -65 -69 -65 -7 0 -13 -4 -13 -9 0 -5
-12 -14 -27 -20 -16 -6 -56 -26 -89 -44 -63 -35 -118 -55 -214 -80 -57 -14
-210 -16 -265 -2 -48 11 -84 29 -79 37 3 4 -2 5 -10 2 -8 -3 -29 3 -48 12 -18
10 -35 18 -38 19 -3 0 -13 5 -23 11 -13 7 9 10 80 10 86 0 237 24 268 43 6 3
19 7 30 8 11 2 64 25 118 52 54 27 107 48 118 46 11 -2 17 0 14 6 -4 5 -11 7
-16 4 -5 -4 -9 -4 -9 -1 0 3 21 20 47 37 42 29 229 209 260 251 72 96 138 197
171 263 62 122 103 213 108 243 3 14 9 31 13 37 7 9 34 94 57 180 9 36 11 43
24 120 6 33 15 80 20 105 16 76 5 552 -14 648 -9 45 -14 88 -10 94 4 6 3 8 -3
5 -11 -7 -26 31 -27 68 -1 11 -5 23 -10 27 -5 3 -11 16 -13 28 -9 58 -108 266
-165 346 -17 23 -26 47 -23 56 4 9 1 19 -6 24 -9 5 -11 2 -6 -12 4 -10 -6 -3
-21 16 -62 79 -172 185 -239 231 -40 27 -75 49 -77 49 -3 0 -30 11 -60 25
-166 76 -375 72 -546 -10 -55 -26 -91 -46 -100 -55 -3 -3 -23 -17 -45 -31 -52
-34 -167 -149 -208 -208 -17 -25 -39 -54 -48 -64 -9 -10 -27 -38 -39 -62 -13
-25 -26 -42 -30 -40 -4 2 -7 -1 -7 -8 0 -7 -14 -41 -30 -77 -60 -130 -73 -160
-73 -172 0 -7 -9 -37 -20 -65 -11 -29 -18 -53 -15 -53 3 0 1 -8 -4 -17 -5 -10
-12 -34 -15 -53 -3 -19 -8 -46 -11 -60 -6 -25 -9 -46 -19 -130 -3 -25 -8 -56
-11 -70 -6 -27 -6 -295 0 -345 9 -85 16 -132 21 -155 3 -14 8 -36 9 -50 2 -14
4 -25 5 -25 2 0 4 -9 5 -20 3 -29 34 -134 51 -172 8 -18 21 -48 29 -67 8 -19
15 -39 15 -45 0 -6 4 -11 9 -11 12 0 32 -60 24 -73 -3 -6 -1 -7 5 -3 6 3 16
-3 22 -14 6 -11 9 -20 6 -20 -4 0 23 -30 109 -121 28 -29 49 -57 47 -62 -1 -5
1 -6 6 -3 5 3 24 -5 43 -18 109 -74 301 -102 434 -63 6 2 25 7 44 11 19 5 48
17 65 27 17 10 45 25 61 32 17 8 41 26 55 40 14 15 30 27 37 27 19 0 183 197
183 219 0 6 4 11 9 11 11 0 101 182 101 204 0 8 4 17 9 20 7 5 16 35 22 74 0
4 4 12 9 17 7 9 21 66 21 90 1 6 4 15 9 20 4 6 11 33 15 60 4 28 9 61 12 75
10 52 11 248 2 330 -19 176 -85 351 -178 473 -27 36 -46 69 -43 72 4 4 2 5 -3
4 -16 -5 -85 45 -81 58 3 6 -3 11 -12 11 -20 0 -126 44 -130 55 -2 4 -7 5 -11
3 -4 -3 -43 -6 -87 -7 -43 -1 -83 -4 -89 -8 -5 -3 -16 -6 -24 -8 -27 -4 -107
-48 -151 -84 -25 -20 -48 -37 -52 -38 -5 0 -7 -3 -5 -5 1 -2 -5 -12 -13 -22
-9 -11 -22 -31 -30 -46 -7 -15 -20 -36 -29 -45 -16 -17 -51 -87 -84 -163 -21
-49 -45 -137 -53 -190 -3 -25 -8 -56 -10 -70 -6 -37 -6 -209 0 -255 10 -76 27
-155 42 -192 12 -30 12 -34 1 -21 -13 16 -14 15 -14 -15 -1 -17 1 -26 4 -19 3
6 10 12 16 12 14 -1 63 -78 59 -92 -1 -5 2 -7 7 -3 6 3 16 -3 23 -15 7 -11 18
-20 25 -20 6 0 13 -4 15 -8 2 -4 20 -18 40 -31 52 -31 132 -38 196 -17 47 16
68 29 119 77 13 11 28 17 34 13 8 -4 9 -3 5 4 -4 7 4 27 18 45 27 35 73 132
80 169 19 96 24 132 24 198 1 41 -7 107 -16 145 -9 39 -16 76 -15 82 0 7 -4
10 -10 6 -6 -4 -8 0 -4 11 4 9 3 15 -2 12 -4 -3 -16 3 -26 14 -40 44 -122 40
-164 -9 -10 -11 -20 -18 -23 -15 -8 7 7 -70 16 -84 4 -7 3 -12 -3 -12 -5 0
-12 6 -14 13 -3 6 -6 1 -6 -12 -1 -19 3 -22 19 -18 14 4 20 0 20 -12 0 -10 3
-21 7 -25 15 -15 21 -134 10 -205 -13 -91 -94 -208 -136 -197 -9 2 -28 7 -42
10 -53 12 -111 176 -111 314 0 136 39 341 62 327 5 -3 6 4 3 15 -3 11 7 40 26
70 17 28 31 52 31 55 0 19 89 102 138 129 49 28 90 31 154 12 130 -38 240
-227 279 -481 12 -74 4 -239 -14 -325 -13 -60 -32 -120 -39 -120 -4 0 -5 -6
-2 -14 7 -18 -27 -116 -68 -196 -29 -56 -45 -82 -103 -168 -8 -12 -62 -65
-131 -130 -8 -8 -21 -11 -30 -8 -9 3 -12 2 -9 -4 5 -9 -46 -38 -80 -46 -5 -1
-29 -7 -52 -12 -57 -13 -140 -7 -193 15 -14 6 -28 9 -32 6 -12 -6 -178 164
-178 182 0 3 -12 24 -26 46 -14 23 -23 47 -20 55 3 8 2 13 -3 10 -9 -6 -28 26
-36 59 -3 11 -19 72 -36 135 -44 171 -49 208 -48 400 1 58 1 114 1 125 0 11 4
40 9 65 4 25 11 68 14 95 7 63 35 166 44 161 4 -3 6 8 5 22 -1 15 2 32 6 37 5
6 9 15 10 20 11 50 83 208 122 266 21 32 38 63 38 69 0 5 4 10 8 10 4 0 15 12
24 28 28 46 128 143 140 136 7 -4 8 -3 4 5 -5 8 0 10 19 7 23 -4 25 -3 14 10
-10 13 -10 17 2 25 37 25 71 39 80 34 5 -4 8 -1 7 6 -2 7 6 15 17 17 11 2 23
8 26 14 3 5 26 11 50 14 24 3 60 9 80 13 34 8 142 -2 184 -16 11 -4 22 -8 25
-8 25 -6 58 -30 50 -35 -6 -4 3 -7 20 -7 18 0 35 -4 38 -9 4 -6 22 -20 40 -33
18 -12 30 -27 26 -32 -3 -5 0 -8 8 -7 7 2 12 -3 10 -10 -1 -8 2 -11 6 -8 14 9
55 -31 46 -45 -4 -7 -3 -9 3 -6 14 9 29 -12 31 -43 1 -14 6 -26 12 -28 5 -2 7
-9 4 -14 -4 -7 -2 -8 4 -4 9 5 7 15 -5 34 -14 22 -14 24 -1 12 26 -25 89 -123
83 -129 -3 -3 -10 1 -16 9 -6 11 -8 6 -7 -18 3 -36 11 -47 29 -37 6 5 4 11 -7
19 -16 12 -15 13 1 13 26 0 90 -139 69 -150 -19 -11 -18 -37 2 -37 10 0 14 6
10 15 -3 8 -2 15 2 15 6 0 60 -147 68 -185 20 -101 33 -155 38 -163 6 -10 19
-219 20 -307 0 -66 -15 -227 -25 -270 -5 -22 -11 -49 -13 -61 -2 -11 -5 -25
-9 -30 -3 -5 -8 -28 -12 -52 -3 -23 -12 -57 -20 -77 -8 -19 -15 -41 -15 -49 0
-8 -5 -27 -11 -43 -6 -15 -10 -29 -10 -30 0 -3 -47 -102 -83 -173 -45 -91 -79
-146 -119 -198 -23 -29 -47 -61 -52 -71 -6 -11 -38 -45 -71 -78 -127 -124
-174 -160 -196 -147 -7 4 -8 3 -4 -4 8 -14 -50 -51 -119 -76 -27 -11 -55 -23
-61 -27 -6 -5 -28 -11 -50 -15 -21 -3 -45 -11 -52 -16 -8 -7 -55 -9 -130 -5
-120 6 -139 8 -182 25 -14 5 -29 11 -35 12 -29 6 -75 30 -75 40 0 6 -4 9 -10
5 -24 -15 -187 115 -173 138 3 6 2 7 -4 4 -14 -9 -74 59 -67 77 3 7 1 17 -5
21 -7 4 -9 -1 -5 -12 10 -31 -34 25 -79 102 -23 38 -45 73 -50 76 -5 3 -8 9
-8 13 1 6 -10 33 -46 114 -9 20 -18 42 -19 47 -6 19 -46 140 -51 155 -9 22
-13 40 -19 79 -2 19 -7 37 -9 41 -3 4 -7 23 -9 41 -3 19 -10 68 -16 109 -6 41
-10 86 -10 100 0 14 -4 57 -10 95 -6 39 -8 122 -6 185 3 63 5 126 6 140 0 21
2 22 11 10 9 -12 9 -11 3 5 -8 23 -8 33 0 98 15 124 55 298 100 442 2 6 8 23
14 38 7 16 12 34 12 41 0 6 4 16 9 22 4 5 22 43 39 85 17 42 61 125 97 184 36
59 65 110 65 114 0 3 14 19 30 35 17 16 30 33 30 38 0 5 7 16 16 25 14 14 16
14 30 -3 15 -18 15 -18 5 1 -7 16 -4 27 17 55 32 43 54 60 66 53 5 -4 6 -1 3
4 -6 10 29 49 42 47 3 -1 5 2 4 6 -4 14 76 72 88 64 8 -5 9 -3 4 6 -6 10 -4
12 9 7 9 -4 15 -3 12 2 -13 21 122 95 249 136 107 34 261 40 395 14z m-5127
-470 c135 -21 157 -24 192 -33 11 -2 24 -5 28 -5 5 -1 6 -4 3 -9 -2 -4 11 -7
30 -6 19 1 37 -2 40 -7 3 -5 -1 -9 -8 -9 -9 0 -9 -3 2 -10 20 -13 43 -13 35 0
-6 11 30 6 65 -7 8 -4 17 -7 20 -8 3 -1 18 -7 33 -13 16 -7 34 -12 40 -12 7
-1 30 -9 52 -20 22 -11 46 -19 53 -20 7 0 20 -4 30 -9 74 -39 337 -138 502
-189 242 -75 532 -90 800 -43 110 20 313 71 355 91 29 13 69 24 78 22 4 -1 17
3 28 9 11 6 30 12 41 14 12 3 36 9 55 16 19 6 41 8 49 5 8 -3 13 -2 10 3 -8
12 175 61 364 98 80 15 304 29 420 26 204 -5 480 -45 480 -71 0 -18 -60 -146
-71 -150 -4 -2 -5 -10 -3 -17 3 -8 2 -20 -2 -27 -5 -7 -10 -21 -11 -31 -2 -10
-12 -37 -22 -60 -10 -23 -22 -57 -26 -74 -3 -18 -11 -33 -16 -33 -6 0 -8 -4
-5 -9 4 -5 0 -40 -8 -78 -16 -76 -21 -105 -39 -210 -7 -40 -15 -73 -20 -74 -4
-1 -44 4 -90 12 -103 16 -114 17 -155 18 -18 1 -31 4 -29 9 8 12 -290 14 -398
3 -192 -20 -210 -23 -280 -37 -38 -8 -78 -15 -87 -15 -10 0 -20 -5 -23 -10 -4
-5 -11 -7 -16 -3 -5 3 -15 1 -22 -4 -7 -6 -28 -13 -48 -16 -35 -5 -52 -10 -86
-23 -10 -3 -27 -8 -37 -10 -11 -2 -24 -7 -30 -12 -6 -5 -29 -14 -51 -20 -22
-7 -49 -16 -60 -21 -27 -13 -128 -52 -140 -55 -5 -1 -19 -5 -30 -9 -11 -5 -33
-12 -50 -18 -16 -6 -44 -17 -61 -24 -17 -8 -40 -15 -50 -17 -11 -1 -23 -5 -29
-9 -5 -3 -56 -16 -113 -28 -116 -24 -350 -34 -442 -18 -116 20 -166 30 -185
38 -16 7 -83 29 -175 57 -13 4 -13 5 0 13 9 6 10 10 3 10 -6 0 -15 -5 -18 -10
-4 -7 -14 -6 -28 2 -12 7 -24 12 -27 13 -17 1 -258 130 -254 136 2 4 -6 5 -18
1 -16 -4 -19 -2 -13 8 5 9 4 11 -3 6 -7 -4 -41 7 -76 23 -35 17 -69 31 -75 31
-7 0 -22 6 -34 14 -12 8 -66 29 -120 46 -66 21 -95 35 -90 43 5 8 2 8 -9 0 -8
-7 -17 -11 -20 -8 -7 7 -112 34 -157 41 -20 3 -49 7 -66 10 -45 8 -82 12 -170
19 -44 3 -115 9 -157 13 -42 5 -74 4 -72 0 3 -4 -12 -8 -33 -8 -60 -1 -133 -7
-208 -18 -38 -6 -70 -10 -71 -9 -2 5 16 157 24 207 8 45 33 159 57 262 11 49
49 138 59 138 8 0 7 3 -1 8 -8 5 -1 31 24 89 42 95 46 98 173 102 47 2 87 5
90 8 10 10 273 -8 403 -28z m-133 -989 c69 -12 132 -23 140 -25 8 -2 19 -4 23
-4 5 -1 6 -5 2 -10 -3 -5 0 -13 6 -17 8 -5 9 -3 4 6 -6 9 0 10 26 5 57 -12
144 -45 147 -55 2 -6 8 -8 13 -5 5 4 17 1 26 -5 17 -11 17 -11 0 -6 -10 3 -16
2 -13 -3 3 -5 15 -11 26 -14 13 -3 18 -1 13 6 -4 7 0 8 13 3 10 -5 31 -13 46
-18 16 -6 25 -15 21 -21 -3 -5 -1 -7 5 -3 13 8 83 -24 76 -35 -2 -4 1 -11 7
-15 8 -5 9 -3 4 6 -11 17 22 6 122 -43 46 -22 80 -44 76 -50 -3 -6 -2 -7 4 -4
6 4 40 -6 78 -20 37 -15 62 -29 56 -31 -19 -6 -12 -22 10 -22 13 0 18 4 13 12
-5 8 -2 9 12 4 10 -4 28 -10 40 -12 12 -2 41 -13 65 -23 24 -11 55 -22 69 -25
14 -3 50 -12 81 -20 83 -23 156 -30 344 -30 189 -1 287 5 296 17 3 5 17 10 30
12 46 7 77 15 113 30 20 8 36 12 36 9 0 -4 7 -1 15 6 8 7 15 10 15 6 0 -6 147
46 194 70 16 8 33 14 38 14 5 0 25 7 46 16 20 10 42 18 47 20 6 2 42 14 80 27
71 24 176 56 185 57 3 0 28 6 55 14 51 15 63 18 190 36 207 29 513 22 725 -19
l85 -16 2 -94 c1 -52 -2 -102 -7 -112 -6 -10 -6 -20 -2 -23 9 -5 25 -164 26
-253 1 -24 5 -43 10 -43 5 0 6 -21 3 -47 -4 -31 -3 -41 3 -28 5 11 9 16 10 10
1 -5 4 -19 6 -30 3 -11 6 -32 9 -48 2 -15 7 -32 10 -37 4 -6 9 -23 11 -38 7
-37 63 -200 81 -236 14 -26 13 -30 -1 -38 -9 -5 -16 -17 -16 -28 0 -17 -2 -17
-52 2 -29 11 -58 24 -65 29 -12 10 -149 62 -213 81 -19 5 -41 15 -47 20 -7 6
-13 7 -13 3 0 -4 -7 -2 -15 5 -8 7 -15 9 -15 5 0 -4 -7 -2 -15 5 -8 7 -15 10
-15 7 0 -6 -87 17 -120 30 -8 4 -22 8 -30 9 -8 1 -26 6 -40 9 -179 47 -474 52
-728 13 -40 -6 -75 -15 -78 -20 -3 -4 -10 -6 -15 -2 -5 3 -15 2 -22 -4 -12 -9
-116 -39 -166 -49 -14 -2 -31 -9 -38 -15 -7 -6 -13 -7 -13 -4 0 4 -6 4 -12 -1
-7 -4 -22 -9 -33 -10 -10 -2 -30 -10 -42 -18 -13 -9 -23 -13 -23 -10 0 3 -18
-4 -40 -15 -21 -11 -50 -22 -62 -24 -13 -3 -24 -5 -25 -5 -2 -1 -6 -1 -10 -2
-5 0 -14 -5 -20 -11 -7 -6 -13 -7 -13 -4 0 4 -8 2 -19 -3 -10 -6 -31 -13 -47
-16 -16 -2 -40 -7 -54 -10 -14 -3 -36 -8 -50 -11 -14 -2 -37 -7 -52 -10 -100
-20 -365 -24 -468 -7 -41 6 -88 14 -105 16 -16 3 -48 10 -70 16 -22 5 -57 13
-78 16 -20 4 -49 13 -65 21 -15 7 -37 14 -49 14 -13 0 -23 5 -23 11 0 5 -4 8
-9 4 -5 -3 -12 -1 -16 5 -3 5 -17 10 -30 10 -24 0 -42 15 -28 23 5 2 2 2 -5 0
-7 -1 -49 11 -92 28 -44 17 -83 30 -87 31 -5 0 -17 5 -28 11 -11 6 -29 12 -39
14 -11 2 -33 12 -50 22 -27 16 -49 24 -101 37 -14 3 -167 54 -185 61 -8 3 -21
7 -29 9 -8 1 -26 6 -40 9 -14 4 -28 6 -30 5 -2 -1 -7 3 -10 8 -3 5 -22 12 -41
15 -19 3 -57 10 -85 17 -54 12 -179 26 -268 29 -28 1 -36 4 -31 14 6 9 4 9 -8
-1 -11 -9 -40 -12 -90 -10 l-73 3 -12 45 c-6 25 -21 79 -33 120 -12 41 -24 86
-26 100 -2 14 -11 55 -20 91 -8 36 -14 69 -13 75 1 5 0 29 -4 54 -3 25 -9 108
-12 186 l-7 141 111 13 c61 7 130 10 153 7 30 -4 38 -3 27 4 -25 18 285 2 421
-21z m-240 -1041 c82 -12 230 -44 270 -59 14 -6 34 -11 45 -13 11 -2 27 -7 35
-10 8 -3 51 -18 95 -32 44 -14 94 -32 110 -39 17 -7 45 -19 62 -26 18 -7 31
-15 29 -19 -2 -3 8 -6 23 -7 14 0 42 -8 61 -17 63 -29 240 -96 240 -90 0 3 6
1 13 -5 11 -9 92 -36 143 -47 11 -2 35 -9 54 -15 155 -47 604 -62 760 -25 42
10 94 18 122 19 14 1 25 4 23 7 -3 4 60 25 87 29 4 0 44 14 89 30 45 17 91 28
103 25 11 -2 15 -2 8 1 -22 10 27 32 138 61 8 3 24 5 35 6 11 1 22 4 25 7 5 6
85 32 110 35 8 2 60 11 115 20 68 13 149 18 255 18 185 -1 252 -6 345 -28 39
-10 79 -19 90 -21 38 -7 50 -10 135 -38 135 -44 240 -88 235 -97 -3 -4 0 -11
6 -15 8 -4 9 -3 5 4 -4 7 -3 12 2 12 29 0 420 -179 454 -208 10 -8 15 -19 11
-25 -3 -5 -1 -7 5 -3 9 5 74 -71 71 -84 -1 -3 22 -29 50 -59 28 -29 48 -58 44
-64 -3 -5 -2 -7 4 -4 13 8 86 -67 76 -78 -5 -4 -3 -5 3 -2 6 4 22 -3 35 -14
13 -11 45 -35 72 -52 34 -22 44 -33 35 -40 -9 -6 -8 -7 4 -3 10 3 32 -1 50
-10 l33 -14 -55 5 c-30 2 -102 9 -160 15 -58 5 -134 12 -170 16 -36 3 -92 8
-125 10 -33 2 -78 6 -100 9 -22 3 -67 7 -100 9 -33 3 -91 8 -130 11 -38 4 -83
8 -100 10 -16 2 -69 6 -117 10 -48 5 -86 11 -84 14 2 3 -35 7 -82 8 -98 1
-172 7 -282 22 -41 5 -120 12 -175 16 -55 3 -113 8 -130 9 -16 2 -64 7 -105
11 -44 5 -67 11 -55 15 10 3 -28 7 -86 7 -57 0 -131 4 -164 7 -33 4 -80 9
-105 10 -25 2 -61 7 -80 10 -19 3 -73 9 -120 12 -47 3 -103 7 -125 8 -68 5
-169 17 -185 23 -8 3 -55 7 -105 8 -80 3 -169 10 -245 19 -89 11 -245 27 -300
30 -79 5 -170 16 -190 23 -8 2 -46 6 -85 8 -130 6 -462 45 -544 64 -22 5 -42
6 -45 4 -2 -3 -10 -1 -17 3 -7 4 -22 9 -34 10 -11 1 -33 8 -50 15 -16 7 -33
12 -37 11 -5 -1 -8 2 -8 7 0 5 -10 11 -22 13 -13 2 -22 9 -21 15 2 7 -4 10
-12 7 -8 -4 -15 -1 -15 6 0 6 -4 9 -10 5 -9 -6 -107 53 -145 88 -11 10 -32 26
-48 35 -15 9 -25 22 -22 30 3 7 0 10 -6 7 -14 -9 -82 62 -73 77 4 6 3 8 -3 5
-14 -9 -37 19 -27 34 4 7 3 9 -3 6 -6 -4 -21 6 -34 21 -34 38 -119 169 -119
183 0 12 101 7 240 -12z"/>
</g>
</svg>
