<?xml version="1.0" standalone="no"?>
<!DOCTYPE svg PUBLIC "-//W3C//DTD SVG 20010904//EN"
 "http://www.w3.org/TR/2001/REC-SVG-20010904/DTD/svg10.dtd">
<svg version="1.0" xmlns="http://www.w3.org/2000/svg"
 width="1024.000000pt" height="1024.000000pt" viewBox="0 0 1024.000000 1024.000000"
 preserveAspectRatio="xMidYMid meet">
<metadata>
Created by potrace 1.16, written by Peter Selinger 2001-2019
</metadata>
<g transform="translate(0.000000,1024.000000) scale(0.100000,-0.100000)"
fill="#000000" stroke="none">
<path d="M3461 7714 c-226 -41 -380 -135 -424 -259 -19 -55 -22 -156 -7 -221
5 -23 11 -57 14 -77 2 -20 7 -40 10 -45 3 -5 8 -24 10 -43 3 -19 14 -70 26
-114 11 -44 22 -105 25 -136 5 -52 4 -57 -17 -63 -35 -9 -147 -6 -123 3 12 5
-9 7 -50 5 -38 -2 -135 -6 -215 -8 -319 -10 -557 -120 -792 -365 -238 -248
-400 -598 -480 -1036 -30 -164 -35 -444 -12 -605 10 -69 18 -141 18 -162 1
-20 3 -35 6 -33 3 2 22 -55 43 -126 60 -212 151 -396 272 -550 67 -85 133
-158 157 -174 9 -5 40 -29 70 -52 186 -145 380 -206 753 -238 145 -12 511 -47
630 -60 72 -8 164 -17 205 -20 41 -3 188 -17 325 -31 138 -14 257 -25 265 -25
16 0 187 -17 255 -25 22 -3 51 -5 65 -5 14 -1 129 -11 255 -25 127 -13 262
-26 300 -29 117 -8 153 -15 159 -30 7 -20 26 -19 26 1 0 11 6 14 23 8 12 -4
34 -8 50 -9 91 -6 93 -6 72 -15 -14 -6 -15 -9 -4 -9 8 -1 20 4 25 9 8 8 38 8
100 0 49 -5 181 -19 294 -30 113 -11 246 -24 295 -30 50 -6 176 -19 280 -30
105 -11 233 -24 285 -30 727 -79 921 -79 1161 1 290 95 565 352 716 669 14 30
29 57 32 60 3 3 7 10 8 15 2 6 23 64 47 131 124 336 177 716 147 1049 -6 66
-13 143 -16 170 -7 76 -49 248 -90 364 -64 182 -197 424 -294 534 -14 16 -25
34 -23 39 1 5 -2 7 -8 3 -5 -3 -10 -2 -10 4 0 16 -183 174 -261 226 -127 83
-308 148 -455 161 -40 4 -72 10 -69 13 2 4 -35 7 -83 8 -48 1 -106 1 -130 2
-23 0 -197 12 -385 26 -188 13 -477 33 -642 45 -165 11 -358 25 -429 30 -71 6
-160 10 -198 10 -38 0 -67 3 -65 8 3 4 -29 8 -71 8 -43 1 -93 2 -112 3 -19 0
-116 8 -215 16 -99 9 -232 18 -295 21 -63 3 -122 10 -132 15 -10 6 -23 7 -29
4 -15 -10 -285 14 -354 31 -68 17 -111 55 -120 107 -12 73 -36 232 -40 266 -2
20 -10 68 -18 106 -8 39 -15 77 -16 85 -4 50 -33 200 -47 242 -48 146 -233
229 -501 227 -65 -1 -151 -7 -192 -15z m365 -141 c89 -19 173 -66 192 -107 13
-25 12 -31 -5 -55 -49 -66 -198 -139 -341 -167 -182 -35 -396 1 -478 81 -38
37 -39 41 -23 82 19 52 102 110 203 143 125 40 326 51 452 23z m248 -400 c9
-49 18 -104 21 -123 2 -19 10 -71 19 -115 8 -44 17 -102 21 -130 16 -131 67
-201 164 -226 28 -7 51 -15 51 -18 0 -3 15 -7 33 -8 17 -1 109 -9 202 -18 169
-15 193 -17 395 -29 58 -4 150 -11 205 -17 55 -5 126 -9 157 -9 32 1 62 -1 68
-5 5 -3 46 -7 91 -9 62 -2 85 -7 94 -19 7 -9 18 -17 26 -17 8 0 6 6 -7 15 -17
14 -13 15 56 10 41 -3 111 -7 155 -10 44 -2 148 -9 230 -15 83 -6 236 -18 340
-25 105 -8 222 -16 260 -19 39 -3 111 -7 160 -10 125 -7 175 -15 175 -28 0 -7
5 -6 15 2 9 7 26 9 45 5 l30 -7 -46 -24 c-26 -14 -66 -38 -90 -54 -23 -17 -45
-30 -48 -30 -3 0 -47 -39 -97 -87 -103 -99 -211 -233 -266 -330 -31 -55 -39
-64 -57 -58 -11 4 -77 22 -146 41 -69 18 -125 34 -125 34 0 1 -13 3 -30 5 -16
2 -68 11 -115 20 -47 8 -119 18 -160 21 -41 3 -88 12 -104 20 -34 16 -47 18
-26 3 11 -8 -15 -9 -90 -4 -133 9 -126 9 -310 -4 -250 -18 -382 -40 -738 -122
-265 -61 -458 -93 -520 -87 -23 2 -38 -1 -35 -6 4 -5 -24 -6 -67 -2 -41 4 -94
9 -119 11 -164 12 -286 39 -479 106 -404 141 -638 219 -662 223 -8 2 -53 12
-100 24 -47 12 -128 27 -180 33 -52 7 -97 15 -100 18 -3 3 -22 6 -42 7 -21 0
-122 1 -224 2 -108 1 -183 6 -180 11 4 5 -3 7 -14 4 -11 -3 -17 -9 -14 -14 3
-5 -2 -9 -10 -9 -12 0 -13 4 -3 23 29 56 90 128 104 123 8 -3 12 -2 8 3 -15
25 232 250 257 235 5 -3 8 -1 8 4 0 23 217 105 309 117 23 3 47 8 53 11 5 3
124 5 264 5 274 -1 293 2 349 53 15 14 25 26 21 26 -4 0 -4 6 0 12 5 7 7 28 5
46 -1 18 3 40 11 49 9 11 9 14 1 10 -13 -8 -21 13 -27 63 -1 14 -6 32 -10 39
-4 7 -5 15 -2 18 3 3 1 14 -4 23 -9 17 -12 31 -28 135 -4 28 -11 56 -15 62 -9
14 67 -10 88 -27 7 -5 14 -8 16 -5 3 2 29 -2 59 -11 56 -15 248 -21 311 -9 19
3 48 7 64 9 39 5 149 43 197 67 21 11 38 17 38 14 0 -3 10 3 21 14 20 18 23
19 45 4 16 -10 24 -11 24 -4 0 6 -7 14 -15 17 -12 5 -13 10 -4 20 6 8 15 14
19 14 4 0 15 -39 24 -87z m3523 -870 c-3 -5 20 -9 51 -9 59 -2 108 -10 126
-22 6 -4 14 -7 19 -8 4 -1 8 -2 10 -3 1 -2 12 -4 25 -7 38 -7 143 -64 137 -75
-4 -5 -3 -9 2 -8 28 5 45 -2 39 -17 -3 -9 -2 -12 5 -9 16 10 76 -36 166 -129
61 -62 81 -89 77 -103 -4 -14 -4 -15 4 -4 14 19 120 -142 189 -287 53 -111
118 -293 128 -355 2 -18 9 -52 15 -76 8 -32 8 -46 0 -51 -8 -5 -7 -9 3 -13 40
-15 48 -461 12 -687 -21 -133 -23 -139 -35 -120 -6 8 -10 12 -10 7 0 -4 6 -16
13 -27 8 -14 9 -23 2 -28 -5 -4 -11 -25 -13 -47 -5 -58 -94 -320 -146 -430
-74 -157 -224 -373 -248 -358 -6 3 -8 1 -5 -4 8 -13 -84 -99 -162 -152 -92
-63 -214 -119 -293 -135 -13 -3 -39 -10 -58 -16 -46 -14 -264 -24 -232 -11 28
13 29 41 0 41 -22 0 -20 9 4 14 7 2 20 5 28 9 13 4 43 12 155 40 28 7 138 63
195 99 121 77 282 251 376 404 38 64 117 224 129 264 4 14 15 43 25 65 19 45
51 145 63 200 57 255 71 607 32 835 -9 52 -19 113 -21 135 -3 22 -10 45 -16
52 -6 7 -8 19 -5 27 3 8 2 16 -3 18 -5 2 -11 12 -13 23 -2 11 -11 38 -20 60
-62 145 -83 191 -88 195 -14 11 -39 71 -34 80 3 5 0 8 -7 5 -8 -3 -31 22 -56
60 -48 71 -137 161 -222 225 -51 39 -192 115 -215 115 -5 1 -35 6 -65 13 -152
33 -333 3 -473 -80 -27 -15 -53 -26 -58 -23 -5 4 -9 0 -9 -8 0 -7 -20 -29 -45
-47 -88 -66 -199 -211 -276 -360 -24 -46 -45 -89 -46 -95 -25 -90 -83 -239
-94 -237 -10 2 -10 0 -1 -11 9 -10 9 -22 3 -38 -5 -13 -10 -18 -10 -10 -1 8
-4 11 -7 8 -4 -4 -2 -13 5 -21 8 -10 9 -21 1 -41 -5 -14 -12 -63 -15 -108 -3
-45 -10 -109 -14 -142 -5 -33 -7 -69 -5 -80 1 -11 5 -67 9 -125 5 -101 26
-246 40 -283 4 -9 2 -24 -5 -32 -11 -13 -10 -14 1 -10 10 4 20 -17 38 -75 13
-43 45 -123 72 -177 30 -62 44 -100 37 -104 -7 -5 -7 -9 1 -13 6 -4 11 -2 11
4 0 6 5 8 10 5 6 -4 8 -10 5 -15 -3 -4 2 -11 11 -14 9 -4 14 -9 11 -12 -2 -3
15 -26 39 -51 24 -26 41 -50 38 -55 -3 -5 -2 -7 3 -6 4 2 36 -18 70 -45 116
-89 218 -126 348 -126 128 0 239 40 360 132 80 60 132 116 191 207 27 41 52
77 55 80 10 9 97 233 104 270 4 19 10 39 13 45 3 5 7 16 8 25 1 8 10 56 18
105 42 238 29 418 -48 690 -1 6 -10 28 -20 50 -10 22 -19 50 -19 62 -1 11 -5
19 -8 18 -3 -2 -25 30 -49 72 -144 253 -392 348 -615 236 -56 -29 -120 -81
-160 -132 -26 -34 -45 -49 -55 -46 -11 5 -12 3 -3 -6 9 -9 4 -23 -18 -59 -16
-26 -29 -50 -29 -54 0 -4 -7 -14 -15 -22 -13 -14 -15 -13 -16 3 0 11 -3 13 -6
5 -3 -7 1 -19 7 -27 7 -8 8 -15 3 -15 -5 0 -9 -8 -10 -17 -1 -10 -7 -31 -14
-48 -7 -16 -13 -33 -14 -37 -2 -5 -4 -10 -5 -13 -1 -3 -4 -9 -5 -15 -1 -5 -3
-11 -5 -12 -2 -4 -7 -30 -15 -88 -4 -24 -10 -65 -15 -90 -10 -49 -6 -267 6
-314 5 -23 4 -27 -7 -21 -8 5 -6 -1 4 -13 13 -14 17 -28 12 -43 -5 -14 -3 -19
3 -15 6 4 10 -1 10 -11 0 -10 1 -25 3 -33 2 -8 -1 -14 -7 -13 -13 2 -7 -34 6
-42 5 -3 6 4 3 15 -3 11 -2 20 1 20 6 0 26 -44 30 -66 1 -7 8 -20 16 -29 12
-14 12 -20 0 -38 -12 -20 -12 -21 3 -9 9 8 18 9 21 3 3 -5 0 -12 -6 -14 -8 -3
-6 -6 5 -6 9 -1 17 -5 17 -9 0 -5 9 -18 20 -30 12 -12 18 -22 15 -22 -3 0 17
-20 45 -45 68 -60 126 -85 206 -89 60 -2 74 1 140 34 40 21 85 52 100 70 15
18 33 38 40 45 50 50 134 271 134 351 0 23 3 43 6 47 17 16 -7 300 -26 325 -2
1 -3 5 -5 10 -6 23 -40 91 -56 113 -10 14 -15 30 -11 34 4 5 2 5 -5 1 -6 -3
-31 7 -55 23 -55 38 -114 37 -179 -1 -26 -15 -48 -26 -50 -25 -2 1 -3 0 -2 -2
2 -2 -9 -20 -23 -39 -15 -19 -35 -57 -46 -86 -10 -28 -22 -58 -25 -66 -8 -21
-10 -29 -11 -73 -1 -21 -5 -36 -9 -34 -10 6 -8 -132 2 -196 4 -26 11 -50 16
-53 5 -3 7 -9 4 -14 -3 -5 4 -15 15 -23 11 -7 17 -17 13 -20 -3 -4 -1 -7 5 -7
7 0 12 5 12 10 0 6 10 10 23 10 27 0 68 35 62 53 -2 6 -6 32 -9 56 -3 24 -8
46 -11 49 -2 3 0 14 6 25 8 14 8 18 0 13 -12 -8 -16 65 -5 77 4 3 8 23 9 44 3
44 46 146 66 159 8 5 22 10 31 11 10 2 21 3 25 4 21 4 33 -2 33 -17 0 -8 4
-13 9 -9 9 5 27 -32 23 -47 -1 -5 3 -8 8 -8 5 0 9 -3 8 -7 -1 -5 4 -26 12 -48
21 -61 19 -253 -4 -342 -17 -70 -29 -87 -39 -60 -4 9 -6 9 -6 0 -1 -6 3 -14 8
-18 10 -6 -37 -106 -66 -141 -24 -28 -93 -79 -93 -68 0 4 -5 3 -12 -4 -18 -18
-94 -14 -136 7 -81 41 -168 199 -188 341 -9 61 -9 315 0 365 11 66 47 176 81
250 69 148 170 249 278 276 53 13 139 7 145 -10 2 -6 8 -9 13 -5 10 6 69 -26
69 -38 0 -4 6 -8 13 -8 21 0 80 -67 74 -83 -3 -9 1 -14 11 -13 11 1 17 -6 16
-20 0 -14 4 -20 12 -17 8 3 28 -25 54 -76 22 -45 37 -81 34 -81 -4 0 -2 -6 4
-12 6 -7 10 -15 10 -18 1 -3 6 -18 12 -34 8 -22 7 -32 -2 -44 -7 -9 -8 -13 -2
-9 12 7 33 -53 39 -107 2 -17 7 -56 11 -86 16 -108 6 -282 -22 -385 -9 -33
-17 -69 -19 -80 -1 -11 -3 -24 -4 -30 -1 -5 -6 -3 -12 5 -8 12 -9 10 -4 -7 13
-48 -75 -242 -160 -353 -169 -219 -388 -290 -592 -190 -117 58 -242 201 -293
337 -12 32 -26 63 -31 69 -5 6 -11 21 -13 35 -3 13 -5 25 -5 27 -1 1 -1 5 -2
10 0 4 -5 13 -11 20 -6 6 -8 12 -5 12 3 0 -1 16 -9 35 -8 20 -12 40 -9 45 3 5
1 11 -4 14 -7 5 -25 107 -31 186 -7 74 -5 241 3 292 5 35 9 72 8 83 0 11 5 38
11 60 6 22 12 55 14 74 2 18 8 39 14 45 5 7 7 15 5 18 -3 3 0 18 6 34 6 16 13
38 14 50 6 44 105 249 161 335 46 70 138 171 199 218 44 34 142 79 205 93 92
21 225 16 303 -11 58 -19 67 -26 62 -42 -5 -14 -2 -19 12 -18 10 0 13 3 5 6
-6 2 -9 9 -6 15 4 6 9 6 13 2 3 -5 24 -18 46 -29 22 -11 71 -51 109 -90 75
-76 74 -75 129 -151 34 -48 35 -51 19 -69 -16 -18 -16 -18 1 -5 16 12 20 12
28 -1 5 -8 7 -20 4 -27 -3 -7 -1 -11 4 -8 7 5 58 -90 54 -103 -1 -3 2 -11 7
-16 18 -22 77 -210 72 -229 -2 -4 2 -13 7 -20 5 -6 17 -59 26 -117 21 -134 15
-474 -10 -584 -8 -38 -17 -84 -19 -100 -2 -17 -10 -50 -17 -75 -7 -25 -12 -48
-11 -52 4 -18 -83 -242 -129 -333 -67 -133 -155 -259 -176 -251 -13 5 -13 4
-4 -7 9 -11 -3 -27 -58 -78 -134 -125 -208 -172 -335 -215 -110 -37 -269 -39
-368 -5 -180 61 -367 235 -500 466 -52 89 -111 215 -101 215 4 0 2 5 -5 12 -7
7 -12 18 -12 26 0 8 -6 28 -14 45 -41 89 -91 308 -106 462 -14 150 -12 399 5
531 9 64 19 122 22 128 4 5 8 24 10 41 2 16 6 37 9 45 4 8 8 22 9 30 3 26 47
155 56 164 5 6 9 17 9 26 0 23 109 240 120 240 6 0 10 6 10 14 0 22 87 135
174 224 88 91 202 177 281 212 28 13 61 29 76 36 14 7 38 15 55 18 16 2 29 5
29 6 0 2 25 9 70 18 52 11 238 15 232 5z m-5252 -344 c33 -5 69 -10 79 -10 11
0 49 -7 85 -15 36 -8 82 -17 101 -20 32 -4 68 -24 44 -24 -6 0 -11 -7 -11 -15
0 -8 4 -15 9 -15 4 0 8 6 8 14 0 26 16 26 87 6 118 -36 378 -123 383 -129 3
-3 14 -7 25 -9 27 -5 169 -54 175 -61 3 -3 13 -7 24 -9 10 -2 30 -8 45 -14 14
-6 30 -12 35 -12 5 -1 12 -10 17 -21 6 -15 8 -16 8 -4 1 15 7 15 69 -3 95 -26
96 -27 207 -44 55 -8 118 -18 140 -23 104 -19 357 -1 555 41 52 11 113 22 134
24 22 3 47 9 55 13 16 8 111 33 141 36 8 1 22 5 30 8 20 7 148 34 281 57 193
35 541 47 729 27 30 -3 62 -6 70 -7 95 -7 186 -26 202 -42 22 -22 35 -24 17
-2 -11 14 -9 15 27 9 21 -4 44 -14 50 -22 7 -8 13 -10 15 -4 3 8 14 8 39 0 19
-5 47 -12 62 -14 43 -6 112 -26 124 -36 6 -5 14 -6 17 -2 14 13 6 -29 -10 -60
-9 -18 -18 -37 -19 -43 -1 -6 -10 -38 -19 -70 -9 -33 -24 -84 -32 -114 -21
-80 -53 -278 -53 -330 0 -74 -7 -87 -41 -82 -16 2 -29 9 -29 14 0 5 -4 7 -9 4
-9 -6 -102 22 -111 33 -3 3 -12 8 -20 9 -8 2 -82 21 -165 42 -142 36 -177 43
-370 73 -112 17 -422 13 -575 -7 -148 -20 -241 -38 -535 -104 -121 -27 -251
-55 -290 -63 -74 -13 -365 -18 -450 -6 -114 15 -139 19 -164 29 -14 6 -39 12
-54 14 -16 2 -38 9 -50 16 -12 6 -29 12 -37 13 -27 3 -100 28 -100 34 0 4 -8
7 -17 8 -10 1 -137 42 -283 92 -391 134 -572 167 -900 165 -159 -1 -234 -6
-335 -23 -213 -36 -198 -34 -192 -18 3 7 8 39 12 71 4 31 11 59 16 61 4 3 6
12 2 20 -3 9 0 21 6 29 6 7 9 15 6 18 -3 3 1 27 9 54 8 27 26 88 40 136 28 92
88 242 110 270 7 9 23 19 37 22 13 2 31 7 39 10 33 12 174 15 187 4 7 -6 16
-8 20 -4 3 3 1 6 -5 6 -7 0 -12 5 -12 11 0 13 211 5 315 -12z m-35 -799 c123
-16 132 -18 205 -30 39 -6 77 -14 85 -17 8 -3 22 -7 30 -8 27 -4 140 -35 168
-47 15 -6 36 -13 46 -15 11 -2 77 -24 149 -48 71 -25 131 -45 133 -45 2 0 2
-6 0 -12 -1 -7 -1 -10 1 -5 8 12 32 8 72 -13 21 -10 51 -21 66 -24 30 -6 154
-45 170 -55 6 -3 16 -6 23 -7 8 -2 20 -11 28 -21 14 -17 14 -17 8 1 -6 16 -4
17 14 7 11 -6 28 -8 36 -5 9 3 16 2 16 -4 0 -5 10 -10 23 -10 12 1 38 -2 57
-5 121 -19 305 -27 369 -15 25 4 72 10 105 13 94 8 178 22 210 34 16 6 31 9
34 6 3 -2 10 -1 16 3 6 5 49 17 96 27 47 10 128 28 180 41 170 41 425 80 460
71 11 -3 22 -1 25 4 9 13 244 10 379 -6 149 -18 324 -51 341 -65 6 -5 14 -8
17 -5 6 6 183 -45 292 -84 75 -27 79 -29 83 -61 2 -19 6 -36 9 -39 4 -3 5 9 2
27 -3 21 0 32 8 32 8 0 14 -34 18 -107 4 -60 13 -151 20 -203 8 -52 14 -102
14 -110 0 -8 15 -67 32 -130 17 -63 32 -122 34 -130 1 -9 6 -22 11 -29 6 -11
4 -13 -9 -8 -10 4 -29 10 -42 13 -13 3 -24 9 -24 13 0 4 -12 8 -26 9 -14 1
-31 5 -37 9 -7 4 -21 9 -32 11 -22 3 -222 59 -245 69 -8 3 -26 7 -39 9 -25 3
-96 19 -166 37 -22 6 -44 10 -49 8 -5 -1 -32 3 -60 9 -28 6 -121 18 -206 25
-85 8 -156 19 -158 25 -2 6 -10 6 -22 0 -9 -5 -46 -9 -81 -9 -35 0 -86 -2
-114 -6 -27 -3 -95 -10 -150 -16 -123 -13 -307 -49 -485 -95 -316 -83 -363
-94 -368 -89 -3 2 -10 1 -16 -4 -6 -5 -67 -18 -136 -30 -162 -27 -437 -25
-572 3 -49 10 -88 23 -88 28 0 5 -4 7 -9 4 -9 -6 -302 91 -311 103 -3 3 -16 7
-30 9 -13 1 -28 8 -32 15 -4 6 -8 9 -8 5 0 -4 -42 8 -93 27 -161 58 -338 104
-503 131 -137 23 -191 27 -398 28 l-238 1 -19 50 c-11 28 -21 64 -24 80 -2 17
-6 39 -9 50 -30 121 -38 182 -43 336 l-6 176 31 11 c17 6 33 8 35 5 3 -2 14 0
25 6 18 10 48 15 152 27 19 3 62 8 95 13 85 11 336 12 425 1z m-180 -901 c127
-14 312 -48 328 -61 6 -6 12 -8 12 -5 0 8 113 -23 128 -35 6 -6 12 -8 12 -5 0
9 130 -31 147 -45 9 -7 19 -12 22 -11 7 3 70 -16 86 -26 6 -3 18 -7 27 -8 10
-2 37 -11 60 -22 68 -30 244 -88 353 -116 164 -42 367 -45 670 -10 21 2 42 7
140 31 33 8 69 16 80 18 11 2 27 6 35 9 25 9 133 39 155 42 11 1 27 5 35 8 21
8 102 30 120 32 8 1 24 4 35 8 11 4 36 9 55 11 46 7 76 13 114 26 17 5 51 12
76 15 25 3 68 10 95 15 96 19 440 23 565 6 63 -9 122 -16 130 -17 116 -10 586
-131 576 -148 -3 -3 8 -6 22 -5 27 1 101 -18 151 -38 14 -6 35 -13 45 -15 30
-5 71 -27 72 -38 0 -6 7 -23 14 -40 7 -16 13 -33 12 -37 -1 -5 2 -8 6 -8 5 0
14 -12 21 -27 35 -77 192 -290 256 -346 97 -86 323 -226 339 -210 3 4 6 1 6
-5 0 -7 13 -12 29 -12 35 0 81 -35 81 -61 0 -10 -4 -19 -9 -19 -6 0 -8 9 -6
19 5 26 -22 35 -28 10 -4 -13 -14 -19 -34 -19 -41 0 -565 51 -583 57 -8 3 -37
6 -65 8 -27 2 -57 4 -65 5 -24 4 -269 29 -340 35 -36 4 -101 10 -145 15 -44 5
-114 12 -155 15 -41 3 -86 8 -100 12 -14 3 -39 5 -56 4 -18 -1 -35 2 -38 8 -4
5 -17 8 -31 5 -13 -2 -84 3 -157 12 -73 9 -148 16 -166 15 -18 -1 -38 1 -44 5
-6 4 -49 8 -97 10 -47 3 -93 7 -101 10 -8 3 -37 7 -65 9 -27 2 -70 6 -95 9
-25 3 -56 5 -70 6 -22 0 -136 11 -540 51 -58 5 -121 13 -140 16 -19 3 -47 5
-62 4 -15 -1 -33 1 -40 6 -7 4 -42 8 -78 9 -80 1 -439 33 -460 40 -8 3 -60 8
-115 10 -55 3 -107 8 -115 12 -17 7 -35 8 -193 16 -59 3 -112 8 -117 11 -4 3
-55 8 -112 11 -57 3 -106 8 -110 10 -4 3 -39 7 -79 9 -84 6 -263 41 -293 58
-12 6 -23 12 -26 12 -34 5 -101 38 -170 83 -89 57 -280 240 -280 267 0 8 -4
15 -9 15 -10 0 -77 102 -87 133 -3 12 -12 29 -20 37 -18 21 -48 94 -35 86 5
-4 12 -3 15 2 7 12 294 13 406 1z"/>
</g>
</svg>
