<?xml version="1.0" standalone="no"?>
<!DOCTYPE svg PUBLIC "-//W3C//DTD SVG 20010904//EN"
 "http://www.w3.org/TR/2001/REC-SVG-20010904/DTD/svg10.dtd">
<svg version="1.0" xmlns="http://www.w3.org/2000/svg"
 width="1024.000000pt" height="1024.000000pt" viewBox="0 0 1024.000000 1024.000000"
 preserveAspectRatio="xMidYMid meet">
<metadata>
Created by potrace 1.16, written by Peter Selinger 2001-2019
</metadata>
<g transform="translate(0.000000,1024.000000) scale(0.100000,-0.100000)"
fill="#000000" stroke="none">
<path d="M3605 7479 c-92 -13 -220 -58 -284 -99 -131 -85 -171 -193 -142 -385
28 -182 40 -266 45 -320 l6 -60 -127 3 c-256 6 -453 -43 -647 -161 -327 -199
-544 -538 -643 -1002 -25 -121 -27 -146 -27 -370 0 -237 0 -241 31 -356 40
-150 89 -270 157 -384 158 -264 405 -471 668 -559 133 -45 217 -55 1008 -125
124 -11 425 -39 670 -61 245 -22 524 -47 620 -55 96 -8 396 -35 665 -60 847
-78 945 -86 1166 -92 252 -7 336 2 489 53 266 89 461 243 632 500 135 203 233
476 273 762 21 146 16 425 -9 560 -49 262 -134 481 -264 677 -58 86 -207 239
-287 292 -189 126 -320 159 -735 183 -102 5 -480 28 -840 49 -617 37 -756 45
-1275 71 -251 13 -309 21 -379 53 -89 41 -100 70 -146 373 -34 222 -50 289
-84 343 -88 139 -296 205 -541 170z m237 -120 c112 -24 195 -81 211 -147 14
-60 -48 -144 -143 -192 -145 -74 -376 -80 -510 -12 -169 85 -118 257 98 327
107 34 248 44 344 24z m263 -401 c14 -114 38 -245 52 -288 21 -61 66 -125 111
-155 92 -63 178 -75 792 -105 785 -39 1570 -86 1630 -96 33 -6 34 -7 10 -14
-45 -13 -174 -81 -235 -125 -61 -44 -199 -181 -249 -247 l-27 -36 -57 19
c-226 79 -581 122 -822 99 -254 -23 -408 -59 -760 -177 -397 -132 -425 -138
-670 -137 -192 0 -211 1 -310 28 -58 15 -209 67 -336 116 -445 170 -551 195
-845 195 l-207 0 32 40 c148 189 362 333 591 395 85 23 329 39 399 26 34 -6
36 -9 36 -44 0 -50 23 -82 60 -82 18 0 34 8 44 22 23 33 20 180 -8 368 -12 85
-21 157 -20 159 2 2 15 -6 31 -17 55 -39 123 -55 254 -60 105 -4 139 -1 210
17 102 25 196 71 240 117 18 19 36 34 40 34 4 0 10 -24 14 -52z m3146 -693
c146 -31 320 -134 434 -256 347 -375 462 -1051 276 -1624 -74 -226 -181 -406
-330 -555 -141 -141 -276 -222 -445 -266 -132 -35 -336 -9 -455 57 -77 43
-181 112 -181 119 0 4 26 -6 58 -22 216 -105 511 -68 742 95 243 172 414 460
491 825 31 144 34 458 6 597 -103 503 -389 821 -737 818 -212 -2 -385 -86
-557 -267 -90 -95 -158 -201 -215 -332 -85 -199 -118 -468 -83 -694 49 -324
209 -559 449 -658 74 -30 220 -41 309 -22 201 41 393 235 478 483 50 147 62
232 56 406 -5 182 -25 271 -87 398 -152 309 -457 372 -684 140 -56 -56 -82
-94 -118 -167 -62 -125 -78 -191 -85 -335 -8 -197 36 -345 135 -443 88 -89
224 -116 327 -67 140 67 234 260 222 455 -7 106 -21 149 -66 202 -128 150
-337 39 -335 -179 1 -70 22 -113 56 -113 39 0 58 28 58 87 0 132 78 191 137
104 62 -91 20 -329 -73 -411 -56 -49 -134 -58 -199 -22 -100 54 -160 245 -135
431 35 263 185 462 361 479 130 12 272 -132 332 -336 19 -68 22 -99 21 -262 0
-172 -2 -191 -28 -275 -59 -193 -179 -357 -307 -419 -177 -85 -363 -46 -504
106 -242 262 -271 783 -65 1165 127 235 296 372 514 418 119 24 217 5 323 -64
119 -78 208 -190 280 -354 220 -500 107 -1167 -256 -1510 -200 -188 -418 -260
-646 -212 -209 44 -397 207 -524 455 -68 132 -106 237 -133 372 -19 96 -23
144 -23 318 0 175 3 221 23 315 66 315 184 549 371 736 112 112 205 175 333
229 164 68 327 87 479 55z m-4566 -374 c153 -32 290 -76 520 -169 306 -123
414 -146 675 -147 248 0 319 14 680 135 407 137 576 174 845 186 153 7 299 -5
458 -37 99 -20 257 -66 257 -75 0 -2 -12 -28 -26 -57 -72 -142 -128 -307 -164
-488 l-11 -56 -77 22 c-130 38 -260 57 -427 62 -258 9 -446 -26 -805 -147
-401 -136 -529 -163 -765 -163 -262 -1 -420 39 -780 194 -418 180 -680 239
-996 226 l-137 -6 19 86 c48 221 119 410 161 430 43 21 127 31 283 32 130 1
169 -3 290 -28z m-271 -651 c172 -30 319 -78 589 -194 357 -153 536 -203 767
-213 247 -11 425 23 835 157 428 141 499 155 780 155 208 0 293 -12 458 -63
l57 -18 4 -170 c5 -223 36 -388 105 -561 12 -30 16 -53 10 -53 -5 0 -65 18
-132 40 -386 128 -679 165 -972 121 -157 -23 -264 -49 -499 -122 -381 -118
-550 -146 -776 -129 -217 17 -354 56 -726 206 -387 156 -561 198 -793 192
l-122 -3 -23 75 c-14 42 -32 109 -41 150 -17 79 -32 370 -21 413 8 32 17 34
222 36 122 1 190 -4 278 -19z m-44 -791 c139 -27 283 -74 504 -166 419 -174
579 -213 868 -213 238 0 404 33 768 151 293 95 395 113 635 113 179 1 214 -2
335 -27 152 -30 295 -72 482 -141 70 -25 131 -46 136 -46 5 0 34 -42 65 -92
127 -210 311 -402 463 -483 65 -35 66 -36 3 -30 -29 3 -236 21 -459 40 -223
19 -551 48 -730 65 -293 27 -835 75 -1625 145 -839 74 -940 85 -1040 111 -117
30 -223 77 -320 141 -102 68 -269 241 -332 343 -81 133 -84 124 38 116 57 -4
151 -16 209 -27z"/>
</g>
</svg>
