<?xml version="1.0" standalone="no"?>
<!DOCTYPE svg PUBLIC "-//W3C//DTD SVG 20010904//EN"
 "http://www.w3.org/TR/2001/REC-SVG-20010904/DTD/svg10.dtd">
<svg version="1.0" xmlns="http://www.w3.org/2000/svg"
 width="1024.000000pt" height="1024.000000pt" viewBox="0 0 1024.000000 1024.000000"
 preserveAspectRatio="xMidYMid meet">
<metadata>
Created by potrace 1.16, written by Peter Selinger 2001-2019
</metadata>
<g transform="translate(0.000000,1024.000000) scale(0.100000,-0.100000)"
fill="#000000" stroke="none">
<path d="M4427 6889 c-72 -17 -122 -52 -164 -114 -37 -54 -43 -95 -44 -290 -2
-158 -5 -193 -18 -210 -13 -16 -13 -18 -1 -8 14 10 16 -9 17 -170 1 -125 -2
-187 -10 -196 -9 -11 -9 -13 0 -8 9 6 12 -48 12 -228 0 -140 -4 -235 -10 -235
-5 0 -9 -5 -9 -11 0 -5 5 -7 10 -4 6 4 10 -7 10 -25 0 -20 -4 -29 -11 -24 -8
4 -8 1 -1 -12 6 -11 10 -46 10 -79 0 -136 95 -250 225 -274 23 -4 41 -12 40
-18 -1 -5 4 -10 12 -10 8 0 12 4 9 9 -3 4 13 8 36 8 25 0 39 -4 35 -10 -3 -6
4 -10 17 -10 17 0 19 3 9 9 -9 6 7 12 47 19 33 6 78 20 100 31 22 11 42 18 46
16 3 -3 4 -2 1 1 -2 4 11 24 30 45 69 76 66 34 65 844 0 427 -4 745 -10 764
-15 54 -58 119 -95 144 -19 13 -33 26 -30 28 2 3 -4 5 -13 6 -9 1 -35 6 -57
12 -48 13 -204 13 -258 0z m221 -175 c21 -9 31 -18 26 -25 -4 -8 -3 -9 4 -5 6
4 18 -4 27 -18 14 -21 16 -100 16 -702 0 -374 0 -689 0 -701 -1 -40 -47 -81
-106 -94 -67 -15 -157 0 -192 33 -29 27 -49 96 -34 111 6 6 11 20 10 32 0 20
0 20 -9 0 -7 -16 -9 -17 -9 -3 -1 9 4 20 10 24 8 4 7 9 -2 15 -11 6 -11 11 -1
21 14 14 16 32 2 23 -6 -4 -10 35 -10 109 0 82 3 116 13 119 10 4 10 7 0 18
-16 16 -17 51 -2 66 7 7 8 17 3 25 -13 21 -14 69 0 61 6 -4 5 1 -2 10 -15 18
-13 64 3 86 7 11 7 13 -2 8 -9 -6 -12 2 -11 28 1 19 5 35 10 35 4 0 8 8 8 18
0 14 -2 15 -10 2 -8 -13 -10 -12 -10 3 0 9 4 17 8 17 5 0 9 7 9 15 0 8 -4 15
-9 15 -4 0 -8 5 -8 11 0 5 6 7 13 3 10 -6 10 -4 0 7 -7 7 -13 20 -13 28 0 13
2 14 9 2 7 -10 9 -7 8 12 -1 14 -5 23 -9 20 -5 -2 -8 37 -8 86 0 54 4 91 10
91 6 0 10 5 10 11 0 5 -4 7 -10 4 -13 -8 -13 248 0 296 11 38 53 85 85 91 44
10 142 5 173 -8z"/>
<path d="M5559 6891 c-88 -18 -178 -100 -198 -180 -19 -73 -20 -118 -21 -772
0 -460 3 -682 11 -720 12 -60 35 -102 73 -138 14 -13 23 -29 19 -35 -3 -6 -3
-8 1 -4 4 3 32 -5 62 -19 46 -21 72 -25 152 -27 53 0 116 2 140 7 32 5 42 4
36 -4 -4 -8 -3 -9 5 -5 6 4 9 12 6 17 -4 5 -1 9 5 9 7 0 25 9 41 21 16 11 34
17 41 13 7 -4 10 -4 6 1 -4 4 3 22 16 39 65 86 61 43 66 700 5 605 0 842 -20
915 -16 60 -68 122 -130 155 -50 27 -65 30 -165 32 -60 2 -126 -1 -146 -5z
m194 -175 c8 -8 22 -14 32 -13 9 1 27 -11 39 -26 21 -28 21 -31 23 -700 1
-370 -1 -688 -3 -708 -6 -40 -39 -83 -56 -73 -7 4 -8 2 -4 -4 17 -28 -147 -37
-198 -12 -16 8 -39 28 -50 43 -21 28 -21 34 -21 721 1 644 2 695 18 720 10 15
23 24 29 20 7 -4 8 -3 4 5 -20 32 156 58 187 27z"/>
<path d="M2596 5349 c5 -8 -21 -31 -27 -24 -9 8 1 -82 11 -109 12 -33 13 -39
1 -32 -5 4 -8 -2 -6 -11 2 -10 4 -20 4 -23 1 -3 5 1 9 8 10 15 68 -123 65
-151 -2 -10 1 -16 6 -13 11 7 33 -43 25 -57 -4 -7 -3 -9 1 -5 5 5 30 -33 57
-83 27 -50 73 -129 103 -176 30 -47 52 -90 48 -96 -3 -6 -1 -7 5 -3 13 8 35
-28 24 -39 -4 -3 -2 -5 4 -3 15 4 175 -192 167 -205 -3 -5 -2 -7 4 -4 5 3 45
-30 89 -75 110 -112 218 -206 337 -295 56 -42 101 -80 99 -85 -1 -5 1 -7 6 -4
5 3 57 -23 116 -59 59 -35 151 -85 206 -111 55 -26 96 -52 93 -57 -3 -6 -1 -7
5 -3 16 9 192 -56 192 -71 0 -7 5 -13 11 -13 5 0 7 5 4 10 -8 13 -11 13 60 -9
44 -14 54 -20 40 -24 -12 -4 -8 -5 9 -3 15 2 73 -7 128 -20 229 -56 326 -67
598 -68 271 -1 450 5 444 15 -2 4 31 12 74 19 42 7 119 23 171 36 52 14 101
22 108 20 8 -3 12 -2 9 2 -3 5 34 21 82 36 108 36 294 114 390 167 41 21 79
36 84 33 6 -4 8 -3 5 3 -3 5 8 18 26 28 60 34 212 138 275 187 34 27 67 46 73
43 5 -4 8 -3 7 2 -2 4 74 85 168 178 94 94 190 196 213 227 24 32 48 55 54 51
5 -3 7 -2 4 4 -9 14 42 85 55 77 6 -4 8 -3 4 4 -7 12 88 164 98 156 3 -2 4 -2
2 1 -2 3 33 79 78 168 82 161 156 344 156 385 0 11 -11 33 -24 48 -18 22 -32
28 -60 27 -36 -1 -76 -25 -76 -46 0 -12 -65 -174 -100 -250 -14 -31 -30 -54
-35 -50 -4 5 -5 3 -2 -3 11 -19 -142 -284 -163 -284 -5 0 -9 -4 -7 -9 3 -14
-105 -161 -115 -155 -4 3 -7 0 -6 -8 2 -7 -2 -12 -9 -11 -6 1 -17 -5 -25 -14
-9 -12 -9 -15 0 -9 19 11 14 -9 -6 -27 -10 -10 -22 -14 -27 -10 -4 5 -5 2 -1
-5 14 -25 -342 -360 -367 -345 -6 3 -7 1 -4 -4 9 -14 -42 -47 -68 -45 -13 1
-16 -1 -7 -7 24 -14 -214 -165 -246 -155 -13 4 -14 3 -4 -4 11 -7 10 -10 -3
-16 -21 -8 -38 2 -29 16 4 7 2 8 -5 4 -9 -6 -9 -11 0 -22 9 -11 1 -19 -45 -40
-30 -14 -61 -22 -67 -18 -7 4 -9 3 -6 -4 8 -11 -132 -73 -169 -76 -12 0 -20
-4 -17 -8 2 -5 2 -8 -2 -8 -3 0 -56 -15 -118 -34 -356 -108 -741 -133 -1130
-74 -51 7 -73 15 -65 20 8 6 5 7 -10 3 -31 -9 -104 4 -96 17 4 6 -1 8 -14 4
-12 -4 -66 6 -129 25 -59 17 -116 34 -126 37 -15 4 -16 7 -5 14 10 7 8 8 -5 4
-24 -8 -129 32 -121 46 5 7 2 8 -5 4 -16 -10 -73 13 -64 27 4 6 0 8 -11 4 -28
-11 -301 137 -289 156 3 6 2 7 -4 4 -15 -9 -105 51 -97 65 4 7 3 8 -5 4 -6 -4
-34 9 -64 31 -123 89 -330 280 -321 295 3 5 0 7 -8 6 -7 -2 -12 3 -10 10 1 8
-2 11 -7 8 -13 -8 -123 123 -115 136 4 6 2 8 -4 5 -14 -9 -125 139 -116 155 4
6 3 8 -4 4 -23 -14 -191 291 -267 484 -20 52 -43 107 -50 123 -10 19 -10 25
-2 21 7 -4 8 -3 4 2 -10 10 -128 13 -121 3z"/>
</g>
</svg>
