<?xml version="1.0" standalone="no"?>
<!DOCTYPE svg PUBLIC "-//W3C//DTD SVG 20010904//EN"
 "http://www.w3.org/TR/2001/REC-SVG-20010904/DTD/svg10.dtd">
<svg version="1.0" xmlns="http://www.w3.org/2000/svg"
 width="1024.000000pt" height="1024.000000pt" viewBox="0 0 1024.000000 1024.000000"
 preserveAspectRatio="xMidYMid meet">
<metadata>
Created by potrace 1.16, written by Peter Selinger 2001-2019
</metadata>
<g transform="translate(0.000000,1024.000000) scale(0.100000,-0.100000)"
fill="#000000" stroke="none">
<path d="M4960 8950 c0 -6 -33 -10 -85 -10 -98 0 -325 -24 -433 -46 -40 -8
-77 -12 -82 -9 -4 3 -10 1 -12 -3 -3 -9 -265 -74 -305 -76 -11 0 -19 -5 -15
-10 3 -5 -2 -7 -11 -3 -10 3 -17 3 -17 -2 0 -4 -28 -15 -62 -25 -59 -16 -288
-104 -325 -125 -54 -30 -173 -78 -179 -73 -4 4 -4 1 0 -5 4 -7 2 -13 -4 -13
-13 0 -182 -97 -317 -182 -173 -109 -425 -312 -577 -467 -49 -49 -93 -88 -97
-86 -4 3 -6 -1 -5 -9 0 -7 -25 -41 -56 -75 -32 -34 -58 -64 -58 -67 0 -4 -17
-27 -39 -53 -49 -59 -188 -269 -225 -341 -16 -30 -34 -59 -41 -65 -7 -5 -13
-14 -14 -20 0 -5 -22 -57 -47 -115 -56 -128 -119 -306 -147 -420 -12 -47 -24
-87 -28 -90 -3 -3 -5 -13 -4 -22 2 -9 -1 -36 -7 -60 -42 -185 -41 -183 -45
-2184 l-4 -1912 -77 -17 c-42 -10 -103 -24 -135 -32 -32 -7 -62 -11 -67 -8 -6
3 -10 2 -10 -2 0 -5 -35 -15 -77 -22 -81 -14 -103 -24 -103 -46 0 -21 25 -24
82 -10 29 8 69 15 88 17 19 2 37 6 40 9 8 10 211 50 221 44 5 -4 9 -1 9 5 0 6
11 8 25 6 14 -3 23 -1 20 5 -6 8 21 12 97 13 15 0 25 3 23 7 -5 7 44 19 84 19
37 0 211 -42 206 -50 -3 -4 7 -5 22 -2 16 3 24 1 20 -5 -4 -6 4 -8 20 -5 18 3
24 1 19 -6 -4 -7 -2 -10 7 -6 7 2 34 0 58 -6 24 -6 71 -17 104 -25 33 -8 128
-30 210 -50 83 -20 169 -39 192 -42 24 -3 41 -9 38 -12 -4 -8 23 -6 113 10 48
8 67 8 78 -2 12 -10 13 -9 8 5 -8 20 25 22 46 4 12 -11 12 -10 2 3 -10 13 -3
17 45 27 31 6 60 9 64 6 5 -3 9 -1 9 4 0 12 117 35 132 26 6 -4 8 -3 5 3 -4 6
11 13 36 18 105 17 132 23 132 25 0 1 11 3 24 6 13 2 60 14 104 25 45 11 93
22 107 24 14 3 78 18 144 35 71 18 128 27 144 23 15 -3 23 -2 19 4 -7 11 288
87 303 78 4 -3 10 -2 12 3 1 4 73 24 158 45 85 22 175 45 200 52 47 13 218 55
242 59 7 1 19 5 27 10 8 5 16 3 22 -5 7 -12 9 -11 9 1 0 20 165 63 240 63 30
0 116 -10 190 -22 203 -33 248 -40 335 -52 44 -5 84 -14 91 -19 6 -6 13 -7 16
-4 7 7 251 -25 260 -34 4 -4 8 -62 9 -130 2 -92 5 -122 15 -122 7 0 18 -8 23
-17 6 -10 11 -13 11 -8 0 6 8 -1 16 -15 8 -14 13 -18 11 -9 -5 14 4 14 91 2
119 -16 402 -31 395 -20 -2 4 22 7 55 7 33 0 98 7 145 15 121 21 157 13 121
-26 -39 -43 -228 -108 -278 -95 -11 3 -26 0 -33 -6 -7 -5 -29 -8 -48 -6 -19 2
-35 1 -35 -4 0 -4 -123 -6 -272 -3 -321 5 -358 7 -358 18 0 5 -6 5 -12 0 -13
-10 -197 14 -208 26 -3 3 -18 7 -35 9 -40 4 -115 32 -115 44 0 5 -4 7 -9 4
-13 -9 -37 26 -37 54 1 18 12 30 41 47 21 12 43 19 49 16 5 -3 6 -1 2 5 -4 7
7 13 31 17 21 4 49 11 63 17 14 6 54 12 89 14 35 1 66 6 70 10 3 4 -2 4 -12 1
-12 -4 -16 -3 -11 4 3 6 17 9 30 6 13 -2 22 -1 19 2 -2 4 10 13 26 20 17 7 28
16 25 19 -9 9 -96 19 -90 11 5 -9 -53 -22 -107 -23 -21 -1 -35 -4 -33 -8 4 -5
-61 -22 -91 -23 -5 0 -16 -6 -24 -13 -7 -7 -20 -11 -28 -8 -8 3 -12 2 -9 -3 3
-5 -7 -14 -23 -19 -16 -6 -40 -25 -54 -44 -23 -30 -25 -39 -17 -69 6 -19 22
-47 37 -61 27 -25 121 -61 195 -74 21 -3 35 -10 32 -15 -3 -5 1 -6 8 -4 7 3
58 -2 113 -10 55 -9 121 -15 147 -15 25 0 49 -4 53 -10 7 -12 444 -11 460 1 6
5 50 9 98 11 48 2 87 6 87 11 0 4 12 7 28 7 37 0 165 36 212 60 21 10 41 16
45 12 5 -4 5 -1 1 6 -4 6 -3 12 1 12 5 0 17 14 27 30 16 28 16 33 3 54 -10 15
-12 28 -6 37 5 8 9 11 9 7 0 -9 38 21 88 69 39 38 37 64 -6 101 -15 12 -26 27
-25 32 2 5 -5 6 -14 3 -10 -4 -14 -2 -10 4 4 6 0 14 -9 17 -11 4 -15 14 -12
31 3 14 2 25 -1 25 -4 0 -13 22 -20 49 -7 28 -20 56 -29 63 -16 12 -16 11 -2
-7 15 -20 14 -20 -8 -1 -12 11 -22 26 -22 35 0 13 -2 14 -9 2 -7 -12 -13 -12
-24 -3 -7 7 -16 10 -19 7 -2 -3 -36 2 -74 10 -38 9 -87 18 -109 21 -22 3 -62
9 -90 14 -27 5 -76 12 -107 16 -32 3 -55 10 -53 15 3 4 -6 6 -20 3 -14 -2 -31
-1 -38 3 -13 8 -19 9 -79 11 l-38 2 0 288 0 287 62 -2 c35 -1 69 3 75 9 7 6
25 8 40 5 52 -10 476 46 546 72 12 5 32 7 45 6 12 -1 22 1 22 5 0 4 19 13 43
20 97 29 220 113 199 135 -4 4 4 4 18 1 21 -6 22 -5 8 4 -12 7 -18 24 -18 49
0 22 -8 48 -19 62 -10 13 -19 28 -19 32 -3 23 -214 107 -268 107 -13 0 -24 4
-24 10 0 5 -7 7 -15 4 -8 -4 -15 -1 -15 6 0 6 -4 9 -8 6 -12 -7 -162 16 -162
26 0 4 -15 8 -32 8 -18 0 -48 0 -65 0 -18 0 -33 5 -33 10 0 6 -4 9 -8 6 -5 -3
-9 1 -9 9 0 8 4 12 9 8 6 -3 9 3 8 13 -1 11 -2 21 -1 24 6 19 7 170 1 170 -4
0 -10 14 -14 30 -3 17 -18 43 -33 58 -15 15 -27 34 -26 42 2 8 0 10 -3 4 -6
-15 -44 -6 -40 9 2 7 1 9 -1 5 -3 -5 -14 -8 -24 -8 -11 0 -18 4 -15 8 2 4 -16
9 -41 10 -25 1 -51 6 -57 11 -6 5 -84 8 -173 8 -89 -1 -156 1 -150 4 21 11
142 31 199 32 31 1 54 4 52 6 -2 2 3 13 12 23 13 14 14 21 5 32 -10 11 -10 20
-1 37 7 12 8 24 3 28 -5 3 -8 18 -8 33 1 14 -5 34 -12 44 -7 10 -13 14 -13 8
0 -5 -7 0 -15 10 -8 11 -15 17 -15 14 0 -4 -19 4 -42 16 -35 19 -43 28 -43 52
0 16 5 41 12 55 12 26 67 79 82 79 4 0 7 -16 6 -36 0 -28 4 -38 18 -40 9 -1
15 1 12 6 -3 4 2 10 10 14 13 5 15 52 15 341 l0 335 293 0 c237 0 297 -3 313
-14 18 -14 19 -34 22 -691 2 -598 4 -681 18 -711 9 -19 22 -34 30 -34 17 0
108 -42 112 -53 2 -4 7 -5 12 -2 13 8 70 -16 63 -28 -3 -5 -1 -7 4 -4 15 9 75
-17 66 -28 -5 -4 -3 -5 4 -1 10 6 60 -10 73 -24 3 -3 10 -5 15 -5 24 0 281
-108 288 -121 4 -8 13 -14 20 -14 8 0 6 4 -3 11 -12 9 -12 10 3 5 10 -3 21 -6
23 -6 3 0 2 -4 -1 -10 -3 -6 1 -7 10 -4 8 4 22 0 31 -7 9 -7 25 -14 36 -16 11
-2 52 -17 92 -33 39 -17 79 -30 89 -30 13 0 17 -5 14 -14 -4 -10 -1 -13 9 -9
7 3 14 1 14 -5 0 -6 -19 -15 -42 -20 -24 -5 -142 -36 -263 -67 -293 -76 -283
-74 -291 -66 -4 3 -4 1 -1 -5 4 -7 1 -14 -6 -17 -10 -4 -15 -45 -20 -163 -4
-86 -8 -158 -9 -160 -5 -4 -153 38 -158 45 -3 4 -15 8 -27 8 -26 2 -195 54
-203 62 -3 4 -9 6 -15 6 -37 1 -85 17 -79 27 5 7 2 9 -9 5 -20 -7 -77 11 -77
25 0 5 -5 6 -11 3 -14 -9 -99 15 -99 27 0 5 -4 7 -8 4 -4 -3 -46 8 -92 23 -49
17 -77 31 -69 35 8 3 3 4 -11 0 -14 -3 -31 -6 -37 -6 -7 -1 -13 -9 -13 -18 0
-12 17 -23 55 -35 30 -9 53 -20 51 -23 -2 -4 6 -8 17 -8 20 -1 262 -75 297
-90 8 -4 21 -6 28 -5 6 1 12 -2 12 -6 0 -5 8 -9 18 -10 44 -4 201 -58 189 -65
-6 -4 2 -5 19 -2 19 4 36 1 45 -8 8 -7 23 -14 34 -15 11 -1 49 -8 85 -15 l65
-13 3 -437 2 -437 -22 -7 c-28 -8 -61 -41 -54 -53 6 -9 88 3 121 18 11 5 49
16 85 25 96 23 235 56 283 66 23 5 78 17 122 28 54 13 89 16 104 10 21 -7 22
-6 11 7 -10 13 -9 15 11 15 42 -1 74 5 80 13 16 23 88 11 464 -73 187 -41 284
-55 297 -42 19 19 0 29 -87 48 -44 10 -82 20 -85 23 -3 4 -18 7 -35 7 -50 2
-154 27 -149 36 3 4 -9 5 -26 2 -20 -4 -30 -3 -30 5 0 7 -4 9 -10 6 -6 -4 -10
646 -10 1884 0 1039 -3 1898 -7 1907 -4 12 -3 15 5 10 7 -4 12 -2 12 3 0 6 -5
11 -11 11 -7 0 -10 20 -7 54 1 30 0 53 -3 51 -8 -6 -30 166 -22 179 3 6 2 7
-3 3 -8 -8 -35 115 -35 166 0 15 -5 25 -10 22 -5 -4 -9 -2 -9 4 0 5 5 13 10
16 6 3 9 14 9 23 -1 15 -2 15 -6 0 -2 -10 -9 -18 -15 -18 -5 0 -8 6 -5 14 3 7
2 17 -3 22 -8 10 -53 140 -55 164 -3 23 -61 150 -138 300 -71 140 -205 348
-298 465 -30 37 -53 74 -52 84 1 9 0 10 -3 4 -3 -8 -35 18 -81 67 -192 204
-382 366 -593 507 -66 44 -335 203 -344 203 -2 0 -68 31 -147 69 -233 111
-460 193 -684 245 -60 15 -118 31 -127 36 -10 6 -30 10 -45 10 -16 0 -64 6
-108 14 -44 8 -114 17 -155 21 -41 4 -79 10 -84 13 -6 3 -82 9 -170 14 -333
18 -406 19 -406 8z m585 -74 c66 -9 129 -16 140 -16 37 0 199 -32 339 -67 319
-78 676 -222 983 -396 111 -63 153 -93 145 -102 -4 -5 -2 -5 4 -2 16 9 267
-166 287 -200 4 -7 13 -13 19 -13 11 0 143 -118 248 -222 120 -117 400 -468
375 -468 -4 0 1 -7 9 -16 59 -59 250 -458 268 -559 1 -11 6 -22 10 -25 4 -3 9
-15 11 -25 2 -11 9 -33 15 -48 24 -58 62 -227 82 -362 19 -137 20 -185 20
-2058 0 -1500 -3 -1917 -12 -1911 -7 4 -27 7 -45 6 -18 -2 -33 1 -33 5 0 4
-16 9 -36 10 -20 1 -42 4 -50 7 -12 5 -14 292 -14 1858 0 1288 -4 1887 -11
1963 -6 61 -12 122 -14 136 -1 14 -4 30 -7 35 -5 9 -22 96 -23 124 -1 8 -7 25
-13 37 -7 12 -13 35 -15 50 -2 16 -6 33 -10 39 -14 23 -65 174 -59 174 4 0 3
4 -3 8 -5 4 -46 79 -89 167 -130 262 -303 502 -516 715 -217 219 -331 309
-595 475 -101 63 -410 223 -463 239 -12 4 -20 12 -17 17 4 5 -2 8 -12 7 -10
-2 -115 30 -235 69 -119 40 -234 75 -256 79 -31 5 -39 10 -35 23 4 13 3 13 -5
2 -9 -12 -25 -11 -114 7 -56 11 -147 26 -200 33 -53 7 -95 15 -94 18 5 7 -45
8 -404 8 -364 0 -390 -1 -377 -9 10 -7 -42 -11 -130 -12 -13 0 -23 -3 -23 -7
0 -3 -24 -9 -54 -13 -151 -17 -455 -100 -652 -177 -423 -165 -751 -365 -1063
-648 -25 -22 -49 -37 -54 -34 -6 3 -7 1 -4 -4 4 -6 -2 -18 -12 -27 -15 -14
-20 -14 -25 -4 -4 9 -5 8 -3 -3 1 -8 -32 -53 -75 -100 -229 -253 -368 -457
-498 -729 -30 -63 -58 -118 -63 -121 -5 -3 -7 -12 -6 -20 4 -21 -12 -69 -23
-69 -5 0 -6 -5 -3 -10 7 -11 -35 -143 -47 -148 -4 -2 -6 -7 -3 -11 2 -4 -5
-57 -17 -117 l-22 -109 -3 -1951 -3 -1951 -59 -12 c-32 -6 -75 -13 -97 -15
l-39 -4 1 1886 c1 1038 4 1898 7 1912 3 14 8 52 12 85 11 110 38 254 46 250 4
-3 5 3 2 13 -8 32 46 220 112 392 109 281 356 669 545 855 22 22 40 43 40 47
0 5 6 8 14 8 8 0 18 9 21 20 3 11 9 20 13 20 4 0 42 34 86 76 128 123 425 354
454 354 6 0 12 3 14 8 15 34 467 279 491 266 6 -4 9 -4 5 1 -6 7 73 46 117 59
10 3 22 8 85 33 112 45 434 138 449 129 5 -4 11 -2 13 3 7 18 382 74 558 84
149 7 588 -3 695 -17z m-442 -233 c-2 -7 -3 -112 -3 -233 l-1 -220 -27 0 c-15
0 -70 -5 -122 -10 -52 -6 -101 -8 -108 -5 -7 2 -11 1 -7 -4 4 -8 -20 -12 -140
-26 -5 -1 -20 2 -32 7 -15 5 -22 4 -20 -4 1 -6 -55 -27 -129 -49 -218 -63
-412 -152 -590 -273 -62 -41 -115 -73 -118 -70 -3 2 -4 1 -2 -2 3 -3 -22 -28
-55 -56 -105 -87 -189 -169 -267 -262 -128 -153 -238 -335 -248 -409 -2 -17
-8 -35 -13 -40 -7 -7 -7 -16 0 -29 8 -16 6 -18 -19 -18 -16 0 -35 -7 -42 -15
-10 -12 -16 -13 -29 -3 -10 8 -12 8 -6 1 6 -8 9 -117 7 -297 l-3 -286 -63 0
c-34 0 -66 3 -70 7 -4 4 -39 6 -78 4 -62 -3 -69 -1 -66 15 3 18 26 26 71 25
17 0 27 5 27 14 0 8 4 15 8 15 15 0 32 49 33 93 2 36 3 37 7 12 5 -30 5 -30
12 -5 4 16 12 24 23 22 11 -2 24 12 38 42 12 24 27 43 33 42 6 -2 8 -1 3 1 -4
3 -4 10 -1 15 4 6 2 8 -3 5 -12 -8 -26 20 -17 34 3 5 0 9 -6 9 -6 0 -9 4 -5 9
3 6 -2 14 -11 19 -9 5 -16 13 -16 18 1 5 -6 8 -13 6 -17 -3 -29 38 -22 73 2
14 0 28 -4 31 -14 8 -10 26 4 18 7 -4 9 -3 4 2 -5 5 -11 8 -13 6 -3 -1 -15 9
-27 24 -29 33 -126 59 -145 37 -7 -7 -18 -10 -24 -7 -6 4 -8 3 -4 -4 3 -6 -6
-15 -21 -20 -16 -6 -21 -11 -13 -11 13 -1 13 -2 0 -11 -8 -5 -16 -13 -16 -17
-5 -30 -18 -52 -26 -47 -19 12 -78 22 -78 13 0 -4 -6 -6 -14 -3 -8 3 -17 0
-21 -5 -3 -6 -11 -9 -16 -6 -9 6 -13 -8 -10 -32 1 -7 -6 -13 -15 -13 -11 0
-14 -4 -7 -12 5 -7 10 -24 10 -38 1 -14 -1 -19 -4 -12 -3 6 -9 12 -14 12 -6 0
-7 -4 -4 -10 3 -6 -1 -7 -10 -4 -15 6 -145 -43 -145 -55 0 -3 -3 -16 -6 -29
-6 -20 -3 -22 27 -18 18 2 35 8 37 15 2 6 24 11 50 11 36 0 43 3 32 11 -12 8
-11 9 5 7 13 -3 19 -10 17 -23 -2 -15 0 -16 6 -7 7 11 14 9 35 -10 14 -13 26
-30 28 -38 3 -17 -9 -68 -20 -90 -5 -9 -8 -34 -7 -57 l1 -42 -45 1 c-25 1 -50
6 -57 11 -7 5 -26 6 -42 2 -17 -4 -36 -3 -43 1 -7 4 -37 8 -68 9 -126 2 -171
5 -167 13 3 4 -17 5 -44 4 -61 -5 -91 4 -69 19 13 9 13 10 0 6 -8 -2 -14 -11
-12 -21 2 -9 -1 -16 -7 -16 -5 0 -8 12 -7 28 4 44 29 162 35 162 3 0 7 13 8
29 3 37 52 166 113 296 124 264 330 552 563 786 109 110 312 279 334 279 7 0
13 5 13 10 0 14 197 142 344 225 131 72 376 189 383 181 3 -2 26 6 51 19 82
41 330 118 479 149 48 10 71 11 80 4 10 -8 13 -6 13 5 0 16 81 34 100 22 5 -3
10 -1 10 4 0 15 53 14 69 -1 10 -11 11 -9 5 6 -7 17 -4 19 30 13 20 -3 34 -2
32 2 -3 4 16 9 42 10 26 1 88 6 137 10 136 11 220 8 218 -6z m422 -9 c66 -8
132 -19 147 -23 14 -5 28 -7 31 -5 6 6 127 -15 142 -24 10 -6 15 -7 68 -10 19
-1 26 -6 21 -14 -4 -7 -3 -8 4 -4 15 9 312 -72 332 -91 2 -2 -2 -8 -10 -13 -9
-6 -10 -10 -3 -10 6 0 15 5 18 10 3 6 11 10 16 10 6 0 7 -5 3 -12 -4 -7 -3 -8
5 -4 6 4 39 -3 74 -15 78 -27 290 -127 298 -141 3 -5 9 -9 13 -9 20 4 57 -13
52 -24 -3 -8 2 -11 13 -8 16 4 77 -27 161 -82 19 -12 81 -52 138 -89 56 -36
102 -70 102 -76 0 -5 5 -10 11 -10 25 0 267 -208 384 -331 145 -152 278 -316
269 -331 -3 -5 -1 -8 5 -8 12 0 154 -226 154 -246 0 -8 4 -14 9 -14 5 0 6 -4
3 -10 -3 -5 -3 -10 2 -10 4 0 14 -15 22 -32 8 -18 20 -41 28 -50 8 -9 12 -22
8 -27 -3 -6 1 -18 10 -27 9 -9 14 -19 11 -22 -3 -3 -17 7 -30 21 -13 14 -21
28 -18 31 6 7 -30 10 -66 7 -13 -1 -21 2 -18 7 3 5 -1 9 -9 9 -8 0 -15 -6 -15
-13 0 -8 -6 -11 -12 -9 -15 5 -42 -13 -51 -35 -4 -8 -6 -1 -4 16 2 22 -1 30
-9 27 -7 -2 -17 5 -24 16 -6 12 -17 21 -25 21 -8 0 -15 5 -15 11 0 6 -20 9
-50 7 -27 -2 -50 -6 -50 -9 0 -3 -11 -12 -25 -19 -21 -11 -32 -35 -40 -85 -1
-5 -3 -14 -5 -20 -1 -5 -1 -20 0 -32 1 -20 -2 -22 -30 -16 -18 3 -35 2 -39 -3
-3 -5 -20 -16 -36 -26 -25 -13 -34 -14 -53 -4 -12 7 -19 15 -16 19 4 4 2 7 -6
7 -10 0 -10 4 1 17 10 11 10 14 2 9 -7 -4 -13 -3 -13 2 0 23 25 30 62 17 23
-8 35 -8 31 -2 -4 6 0 8 10 4 9 -3 19 -2 22 3 3 4 -1 11 -7 13 -8 3 -6 6 5 6
15 1 16 3 5 15 -7 8 -15 12 -17 10 -2 -2 -12 3 -21 11 -14 13 -26 14 -60 6
-51 -11 -86 -42 -94 -82 -3 -17 -10 -28 -16 -24 -5 3 -10 2 -10 -2 0 -5 10
-13 23 -18 12 -6 21 -18 21 -28 -1 -9 2 -17 6 -17 17 0 19 -46 3 -70 -9 -14
-16 -27 -14 -29 10 -14 -28 -16 -57 -4 -38 16 -107 10 -96 -8 3 -6 -2 -9 -11
-7 -23 4 -48 -65 -40 -107 3 -20 0 -38 -10 -50 -11 -15 -14 -16 -15 -5 0 10
-5 7 -16 -8 -8 -12 -21 -22 -28 -22 -7 0 -25 -12 -39 -26 -23 -23 -28 -24 -33
-10 -3 9 -4 32 -2 50 2 19 1 33 -3 31 -3 -2 -7 92 -8 209 -1 147 -6 239 -17
297 -9 46 -17 94 -18 107 0 12 -4 22 -8 22 -3 0 -9 14 -13 30 -4 17 -27 65
-51 108 -24 42 -44 82 -44 89 0 6 -4 13 -8 15 -8 3 -29 28 -132 163 -21 28
-52 63 -68 79 -17 16 -29 34 -25 39 3 6 1 7 -5 3 -6 -3 -42 21 -81 54 -94 81
-266 195 -392 260 -57 29 -106 56 -109 59 -3 3 -12 7 -20 8 -8 1 -59 17 -112
36 -80 28 -95 36 -85 47 10 12 9 12 -4 2 -13 -10 -36 -8 -113 11 -53 13 -93
27 -89 31 5 5 -2 6 -14 2 -11 -4 -65 0 -120 8 -54 8 -149 18 -210 22 l-113 7
0 41 c0 23 -3 121 -6 218 -4 98 -4 184 -1 193 5 13 25 14 134 10 70 -3 182
-12 248 -21z m-426 -586 c0 -73 -3 -96 -17 -112 -16 -20 -16 -20 1 -7 9 8 20
12 22 9 3 -3 -12 -16 -33 -30 -20 -13 -36 -30 -34 -36 1 -7 -1 -12 -5 -12 -5
0 -7 -49 -6 -109 l2 -109 -42 -7 c-23 -4 -71 -18 -106 -31 -36 -12 -69 -20
-74 -17 -6 3 -7 2 -4 -4 8 -13 -61 -46 -76 -37 -7 4 -9 4 -5 -1 4 -4 -18 -27
-50 -50 -68 -50 -150 -136 -190 -199 -16 -25 -33 -42 -37 -38 -5 4 -5 1 -1 -6
4 -7 1 -24 -8 -37 -9 -13 -16 -31 -16 -40 0 -9 -4 -14 -8 -11 -4 2 -9 -5 -9
-17 -2 -21 -1 -21 12 -3 7 10 19 15 24 11 6 -3 116 -6 245 -5 l234 1 0 -33 c1
-128 144 -221 267 -174 24 10 49 23 55 31 6 8 17 13 23 11 7 -1 9 -1 5 1 -4 3
4 21 17 41 17 24 25 50 25 78 l0 41 230 2 c204 2 229 0 224 -14 -3 -8 -2 -15
4 -15 6 0 9 8 8 18 -2 9 4 22 11 28 30 21 -27 161 -102 250 -76 88 -226 176
-356 207 -27 6 -49 15 -49 19 0 4 -7 5 -15 2 -13 -5 -15 11 -17 107 0 63 -1
120 -1 127 1 7 -2 11 -5 8 -3 -3 -11 3 -19 14 -8 11 -21 20 -29 20 -8 0 -12 4
-9 10 3 6 -1 7 -9 4 -10 -4 -17 -1 -17 7 -6 66 -3 118 9 137 7 13 11 26 8 30
-3 3 -6 0 -6 -7 0 -7 -4 -9 -10 -6 -5 3 -10 14 -10 23 0 15 11 18 70 19 39 0
73 -3 76 -8 3 -5 16 -6 28 -3 28 7 192 -11 296 -31 144 -29 331 -97 495 -180
95 -48 159 -86 157 -94 -1 -7 2 -10 8 -6 5 3 10 1 10 -5 0 -6 4 -9 8 -6 10 6
182 -121 182 -135 0 -5 6 -8 13 -6 6 1 11 -4 10 -10 -2 -7 0 -12 5 -11 12 5
92 -64 86 -73 -3 -5 2 -9 11 -9 12 0 15 -6 10 -22 -4 -16 -3 -19 3 -10 29 42
313 -384 286 -430 -4 -7 -3 -9 2 -5 4 4 17 -25 27 -65 17 -62 20 -117 23 -365
l3 -292 -33 -20 c-18 -12 -46 -40 -61 -62 -15 -23 -22 -38 -16 -35 7 5 11 -5
11 -26 0 -24 10 -43 36 -71 19 -20 39 -35 43 -32 10 6 20 -169 18 -297 -1 -60
2 -96 8 -95 6 1 9 -4 7 -10 -1 -7 2 -13 7 -13 12 0 41 58 40 79 -1 9 -5 5 -9
-9 -7 -21 -8 -19 -9 18 -1 23 3 42 8 42 12 0 19 90 7 97 -5 4 -6 1 -2 -5 4 -7
2 -12 -3 -12 -6 0 -11 7 -11 15 0 8 4 15 9 15 6 0 9 38 9 88 -1 66 1 86 11 84
7 -1 19 3 27 9 21 17 18 -9 -3 -35 -17 -20 -17 -20 0 -7 12 10 17 10 17 2 0
-7 5 -9 12 -5 6 4 8 3 4 -4 -7 -12 33 -44 45 -36 20 12 18 -21 -4 -49 -13 -18
-27 -42 -31 -54 -4 -13 -12 -23 -17 -23 -5 0 -9 -6 -8 -12 1 -7 -1 -21 -6 -31
-4 -10 -2 -23 5 -32 7 -8 9 -15 4 -15 -5 0 -1 -5 9 -11 9 -6 14 -15 11 -21 -4
-6 -3 -8 4 -4 6 3 18 -1 26 -10 9 -9 23 -13 32 -10 8 3 17 -1 20 -9 4 -8 9
-13 13 -11 3 2 4 -23 3 -56 -2 -34 0 -58 5 -55 12 8 38 -9 38 -24 0 -22 20
-20 30 3 6 13 15 23 21 23 6 0 18 8 28 18 10 9 26 22 37 27 20 11 26 40 9 40
-5 0 -10 11 -10 24 0 25 -22 51 -33 39 -10 -9 -7 7 7 47 7 19 17 34 22 32 5
-1 10 9 12 23 2 16 12 29 26 35 36 13 56 54 54 107 -1 26 -7 54 -15 61 -7 8
-11 18 -8 23 4 5 0 9 -7 9 -10 0 -9 3 2 9 8 6 17 8 21 5 4 -2 10 3 13 12 4 9
9 14 13 11 8 -8 45 12 39 21 -2 4 4 8 15 8 12 0 19 -7 19 -18 0 -14 6 -17 24
-14 14 3 30 -2 37 -10 6 -7 15 -11 20 -8 5 3 9 0 9 -5 0 -6 -4 -11 -10 -11 -5
0 -6 -8 -3 -17 5 -12 8 -13 11 -4 3 8 9 6 19 -8 8 -12 21 -21 29 -21 8 0 14
-6 14 -12 0 -8 3 -9 8 -3 4 6 13 11 20 12 11 3 12 -2 12 -34 0 -5 -8 -8 -18
-8 -9 -1 -16 -6 -15 -13 2 -7 -1 -12 -6 -12 -5 0 -7 -10 -3 -22 3 -14 2 -19
-6 -14 -7 4 -12 2 -12 -4 0 -11 5 -21 34 -77 15 -29 15 -32 1 -27 -13 5 -15 1
-11 -22 2 -16 5 -32 5 -36 1 -4 9 -5 19 -2 9 4 -1 -10 -23 -29 -28 -24 -43
-32 -48 -24 -5 7 -7 3 -4 -10 3 -12 1 -23 -4 -25 -5 -2 -12 -17 -14 -33 -12
-69 -17 -84 -31 -89 -9 -3 -12 -1 -9 4 4 6 -9 10 -29 10 -20 0 -36 -5 -36 -11
0 -6 -6 -9 -12 -6 -7 2 -21 -5 -30 -16 -10 -11 -18 -16 -19 -11 -1 17 -31 -81
-30 -100 0 -11 4 -22 9 -25 5 -3 12 -15 16 -26 6 -16 9 -17 17 -5 9 13 10 13
6 0 -2 -8 -10 -14 -16 -13 -6 2 -11 -7 -11 -18 0 -20 4 -21 38 -14 20 4 46 7
57 6 11 0 36 9 55 21 39 23 80 33 80 19 0 -21 -34 -111 -42 -111 -5 0 -7 -4
-4 -9 4 -5 -3 -7 -14 -4 -12 3 -20 0 -20 -7 0 -6 -6 -10 -12 -7 -13 4 -67 -48
-69 -67 -1 -6 -1 -20 0 -31 2 -17 0 -17 -8 -5 -20 28 -11 -3 10 -36 11 -19 27
-34 35 -34 8 0 14 -5 14 -11 0 -5 4 -8 9 -4 6 3 15 -3 20 -14 12 -21 41 -36
41 -21 0 6 -8 10 -17 11 -15 0 -15 2 2 9 11 5 34 8 50 8 30 -1 30 -1 3 -5 -16
-2 -28 -10 -28 -16 0 -7 -16 -43 -35 -80 -19 -37 -30 -65 -25 -62 4 3 11 -8
15 -25 4 -16 14 -34 23 -39 16 -9 16 -10 0 -16 -10 -4 -18 -12 -18 -17 0 -6 6
-5 15 2 12 10 18 8 35 -11 21 -26 26 -49 10 -49 -11 0 -13 -39 -4 -64 3 -9 14
-16 23 -16 14 0 14 -2 1 -11 -10 -7 -11 -9 -2 -7 8 2 14 8 15 13 1 11 18 28
56 60 15 12 21 14 16 5 -8 -13 -7 -13 8 -1 9 7 17 21 17 31 0 9 3 20 7 24 9 9
11 106 2 100 -13 -8 -20 15 -10 33 11 20 20 18 39 -6 11 -15 12 -15 7 0 -3 9
1 22 10 29 8 7 15 8 15 2 0 -5 18 -1 40 10 26 13 40 27 40 39 0 10 3 19 8 19
6 0 8 55 2 70 -1 3 -2 8 -2 11 1 4 -8 15 -18 24 -14 13 -20 14 -20 5 0 -7 -3
-10 -6 -7 -4 4 -1 13 6 22 9 11 9 15 1 15 -6 0 -14 -7 -17 -15 -7 -16 -30 -20
-38 -6 -3 4 2 17 10 27 9 10 12 12 8 4 -6 -12 -4 -12 12 1 23 20 57 33 49 19
-3 -6 -1 -10 4 -10 6 0 11 5 11 11 0 6 6 9 14 6 8 -3 17 1 20 9 3 9 10 12 16
9 5 -3 10 -2 10 4 0 6 11 6 31 1 18 -6 40 -5 56 1 21 8 24 7 19 -6 -7 -19 8
-20 23 -1 9 11 9 15 0 18 -7 2 -5 9 7 18 14 12 16 12 9 1 -5 -10 -4 -12 4 -7
6 4 9 11 6 15 -2 5 2 17 10 27 8 10 15 26 15 35 0 16 64 52 74 42 8 -8 8
-1656 0 -1676 -6 -16 -21 -13 -154 36 -211 77 -269 101 -264 108 3 5 -1 6 -8
4 -8 -3 -92 27 -188 66 -96 39 -187 75 -202 81 -16 5 -28 14 -28 19 0 4 -6 6
-14 3 -7 -3 -20 1 -27 9 -8 7 -20 12 -28 9 -9 -3 -11 0 -6 8 5 8 4 11 -3 6
-10 -6 -116 33 -178 66 l-31 17 -3 138 c-9 475 -14 1202 -8 1225 4 19 1 31
-13 44 -10 9 -16 21 -12 27 3 5 2 7 -4 4 -5 -3 -22 1 -37 9 -21 10 -59 13
-145 12 l-116 -2 125 -6 c69 -3 -734 -7 -1783 -8 -1901 -2 -1909 -2 -1937 -22
-16 -11 -35 -36 -41 -55 -7 -19 -16 -35 -19 -35 -3 0 -4 -20 -2 -44 3 -36 0
-46 -16 -55 -21 -11 -32 1 -32 37 0 13 3 12 15 -4 14 -18 14 -16 7 16 -4 19
-6 51 -6 70 1 19 3 92 4 162 2 70 6 126 9 124 3 -2 4 50 2 116 -2 90 0 119 9
113 8 -5 9 3 5 29 -4 20 -4 57 0 82 6 41 9 45 28 40 12 -3 70 -8 129 -12 59
-4 106 -10 104 -13 -4 -7 98 -6 129 1 20 5 20 13 20 479 l0 474 -122 3 c-103
2 -121 5 -116 17 3 8 12 15 20 15 11 0 13 4 5 13 -7 8 3 32 34 82 25 39 50 80
56 93 6 12 18 22 26 22 9 0 12 3 9 6 -21 22 242 289 401 407 151 113 370 235
395 221 7 -4 9 -3 4 1 -9 11 119 68 155 69 14 1 24 4 22 7 -5 9 115 41 127 34
5 -4 9 -2 9 3 0 12 167 45 182 36 6 -4 8 -3 5 3 -4 6 37 14 106 21 131 13 177
14 177 2 0 -13 29 -20 36 -8 4 6 3 8 -4 4 -6 -3 -13 -2 -16 3 -4 5 4 12 16 14
13 2 24 5 24 6 1 0 2 -40 3 -91z m79 -177 c17 -10 22 -42 23 -141 1 -85 4 -80
-65 -80 l-62 0 -3 90 c-1 58 2 90 8 90 6 0 11 6 11 13 0 30 54 47 88 28z m123
-290 c99 -25 178 -62 256 -117 43 -31 63 -51 59 -61 -3 -8 -2 -12 3 -9 18 12
109 -113 94 -128 -4 -3 -2 -6 4 -6 8 0 33 -41 33 -55 0 -3 -284 -5 -631 -5
l-630 0 7 23 c9 30 34 67 45 67 5 0 8 3 7 8 -4 14 34 62 45 55 5 -3 7 -1 4 4
-9 14 57 73 135 124 76 48 210 101 265 103 24 1 46 5 49 9 15 15 182 7 255
-12z m-172 -432 l143 -3 -6 -39 c-26 -160 -255 -170 -297 -14 -11 40 -6 72 9
63 5 -3 73 -6 151 -7z m-1619 -485 l0 -364 -32 0 c-24 0 -29 3 -19 9 10 6 0 8
-27 4 l-42 -6 0 294 c-1 216 -4 298 -13 309 -18 23 -67 52 -67 40 0 -5 -7 -10
-15 -10 -11 0 -15 11 -15 38 0 21 3 42 7 46 4 3 56 6 115 5 l108 -1 0 -364z
m4210 265 c0 -5 4 -8 9 -4 5 3 12 1 16 -5 3 -5 1 -10 -5 -10 -6 0 -9 -4 -5
-10 3 -5 11 -7 18 -4 9 3 13 -4 13 -21 0 -27 -6 -31 -23 -14 -8 8 -11 7 -10
-2 1 -33 -4 -50 -13 -44 -6 3 -7 -1 -4 -9 4 -11 -2 -19 -17 -25 -13 -5 -20
-10 -15 -10 5 -1 2 -9 -5 -18 -8 -9 -9 -14 -4 -11 6 4 17 2 25 -3 13 -8 13
-10 0 -19 -10 -6 -11 -10 -2 -10 6 0 12 -9 12 -20 0 -10 7 -23 16 -28 9 -5 17
-13 17 -18 1 -5 5 -8 10 -6 4 1 7 -3 7 -9 0 -5 5 -7 10 -4 6 3 10 -1 10 -10 0
-10 -5 -13 -12 -9 -7 4 -8 3 -4 -4 4 -6 14 -8 23 -5 12 5 15 2 10 -10 -3 -9 1
-23 9 -31 21 -22 54 0 54 36 0 19 7 29 22 34 12 3 28 13 36 20 7 8 18 12 23 8
5 -3 9 -2 8 3 -3 18 3 47 8 36 2 -7 9 -13 14 -13 6 0 8 4 5 9 -3 5 6 9 19 9
26 0 31 -15 16 -52 -8 -20 -78 -49 -99 -41 -8 3 -10 0 -6 -6 4 -6 1 -14 -5
-18 -6 -4 -13 -16 -16 -27 -2 -10 -7 -34 -11 -51 -4 -23 -3 -33 5 -33 7 0 9
-4 6 -10 -3 -5 -1 -10 5 -10 7 0 8 -6 0 -19 -15 -29 -12 -38 5 -15 15 19 16
19 13 -1 -3 -21 -23 -48 -32 -43 -3 2 -13 -7 -21 -19 -20 -28 -28 -29 -65 -1
-27 20 -124 43 -114 27 2 -4 -4 -10 -14 -13 -23 -8 -44 -46 -47 -83 -3 -40 -3
-40 -25 -38 -30 2 -50 37 -55 96 -4 54 16 119 38 119 6 0 8 3 4 6 -12 13 22
34 50 30 15 -2 20 -1 10 1 -19 5 -18 28 0 28 18 0 51 48 56 82 4 23 -2 38 -23
63 -23 27 -27 38 -20 56 7 18 5 26 -8 33 -9 6 -11 11 -5 11 14 0 52 73 49 93
-1 6 -6 18 -10 26 -6 9 -5 12 2 7 6 -3 13 -2 17 4 3 5 -1 10 -11 10 -13 0 -14
3 -4 15 14 17 40 20 40 4z m-4500 -50 c0 -5 5 -7 10 -4 7 4 10 -85 10 -275 -1
-261 -2 -281 -18 -275 -9 4 -25 7 -34 7 -17 -1 -18 18 -18 267 0 270 3 291 37
291 7 0 13 -5 13 -11z m121 -44 c3 -28 7 -154 8 -281 l2 -232 -37 0 -37 0 7
112 c4 61 6 131 4 156 -6 87 -3 265 4 283 5 10 16 17 25 15 13 -2 20 -16 24
-53z m4771 -57 c2 -7 7 -16 11 -19 4 -3 9 -16 10 -27 1 -12 5 -22 10 -22 5 0
7 -9 4 -20 -3 -13 -1 -18 6 -13 6 4 8 0 4 -9 -3 -9 0 -21 6 -27 6 -6 7 -11 3
-11 -5 0 -3 -6 3 -14 6 -8 14 -27 16 -42 2 -16 7 -39 11 -51 5 -18 2 -23 -12
-23 -14 0 -16 2 -6 9 10 6 7 10 -12 13 -22 4 -24 3 -15 -14 9 -17 7 -18 -18
-13 -23 5 -25 4 -13 -5 12 -9 9 -10 -15 -5 -16 3 -34 10 -39 15 -5 5 -1 45 8
94 14 70 15 89 5 108 -15 26 -18 78 -6 78 5 0 5 10 2 23 -5 18 -4 19 5 7 9
-12 11 -9 6 15 l-5 30 14 -32 c8 -18 16 -38 17 -45z m-5304 -67 c13 -7 51 -12
85 -11 34 1 67 1 73 1 22 -2 59 -46 56 -66 -3 -17 -1 -18 8 -5 9 13 11 12 8
-4 -2 -13 -12 -20 -29 -20 -20 -1 -26 3 -24 15 2 10 -3 20 -11 23 -12 5 -14 1
-9 -15 4 -12 3 -19 -1 -16 -10 5 -162 19 -231 21 -41 1 -41 1 -25 21 9 11 24
26 32 33 8 7 9 11 3 7 -7 -3 -13 -1 -13 4 0 6 7 11 16 11 8 0 13 4 10 8 -7 12
25 8 52 -7z m-3 -156 c39 -4 76 -12 83 -17 8 -7 12 -7 12 1 0 7 5 9 10 6 6 -4
8 -11 5 -16 -4 -5 1 -9 9 -9 9 0 16 -4 16 -10 0 -5 -4 -10 -9 -10 -5 0 -23
-14 -40 -31 -17 -17 -31 -27 -31 -24 0 4 -7 2 -15 -5 -8 -6 -18 -9 -23 -7 -10
7 -37 -9 -38 -23 -1 -5 -3 -20 -4 -32 -2 -22 -2 -22 -10 2 -4 14 -8 20 -9 13
-1 -6 -9 -11 -18 -11 -10 1 -29 -2 -43 -6 -24 -7 -24 -6 -6 8 19 15 19 16 -7
16 -28 0 -27 -2 -18 74 0 5 4 6 8 3 8 -9 31 35 25 47 -2 4 -8 2 -13 -5 -7 -11
-9 -10 -9 4 0 9 5 17 10 17 6 0 10 6 10 14 0 9 7 13 18 11 9 -1 49 -6 87 -10z
m5223 -114 c8 -4 13 -11 13 -15 -3 -19 3 -22 39 -22 22 0 40 4 40 8 0 4 3 7 8
7 23 -4 72 2 71 9 -4 25 4 22 16 -7 8 -18 12 -37 9 -42 -3 -5 0 -9 6 -9 6 0
10 -10 9 -22 -1 -13 2 -32 7 -43 5 -11 9 -66 8 -122 0 -56 3 -100 7 -97 4 2 7
-145 6 -328 -2 -310 -3 -333 -19 -332 -10 1 -15 -2 -12 -7 3 -5 -5 -9 -18 -8
-13 0 -17 3 -9 6 11 4 11 7 0 13 -8 5 -17 3 -24 -6 -9 -13 -15 -12 -37 11 -15
15 -31 25 -35 22 -5 -3 -19 1 -33 8 -17 9 -25 22 -26 44 -1 17 3 28 8 25 4 -3
5 -10 2 -16 -5 -7 -2 -8 5 -4 7 5 10 14 8 21 -3 6 6 32 20 56 45 79 11 169
-63 166 -27 -2 -34 -6 -34 -23 0 -12 8 -24 18 -26 10 -3 23 -21 29 -42 6 -20
7 -34 2 -30 -5 3 -9 -2 -9 -11 0 -9 -4 -13 -10 -10 -5 3 -10 2 -10 -4 0 -6 -7
-8 -15 -5 -8 4 -13 9 -10 14 2 4 -6 6 -19 5 -29 -4 -69 22 -59 38 6 10 13 80
17 169 0 20 4 34 9 31 4 -2 7 0 7 6 0 6 14 9 30 7 17 -2 30 1 30 6 0 5 4 7 9
4 4 -3 22 7 40 23 33 30 40 66 21 115 -13 36 -4 54 26 48 30 -5 74 15 74 35 0
7 4 13 10 13 6 0 9 6 8 13 -2 6 2 11 8 10 6 -1 11 4 11 12 0 7 -6 11 -13 8
-10 -4 -12 4 -9 32 4 31 2 38 -15 42 -11 3 -18 9 -15 13 8 13 -76 40 -112 38
-18 -2 -33 -6 -33 -9 0 -7 -40 -22 -52 -20 -5 1 -8 -6 -8 -16 0 -14 -3 -14
-22 3 -12 10 -18 13 -14 6 7 -11 4 -12 -13 -3 -11 7 -21 16 -21 21 0 10 20 25
35 25 6 0 9 10 7 23 -2 13 3 25 12 28 9 3 16 12 16 19 0 7 14 19 30 27 29 13
40 28 20 28 -5 0 -10 7 -10 15 0 17 9 19 28 6z m-5964 -64 c-3 -8 16 -12 63
-12 101 -1 296 -17 285 -24 -6 -3 20 -6 56 -6 37 -1 103 -4 147 -8 136 -13
166 -16 285 -22 63 -3 117 -9 120 -13 3 -4 37 -7 75 -7 72 -1 144 -8 205 -23
19 -4 51 -7 70 -5 19 1 59 0 88 -3 l52 -5 0 -43 0 -43 -74 -2 c-42 -1 -77 3
-81 9 -3 5 -11 10 -16 10 -6 0 -8 -4 -5 -8 2 -4 -25 -5 -62 0 -37 4 -93 7
-124 7 -32 1 -58 4 -58 9 0 4 -30 5 -66 4 -37 -2 -64 0 -61 5 3 4 -23 8 -56 8
-99 0 -497 28 -497 35 0 3 -27 4 -60 2 -33 -2 -60 0 -60 4 0 5 -27 7 -60 6
-33 -2 -60 0 -60 5 0 5 -23 8 -51 5 -32 -2 -56 1 -66 10 -10 7 -14 8 -10 1 5
-7 0 -9 -13 -6 -11 3 -20 12 -20 21 0 26 23 92 32 92 5 0 6 4 3 10 -3 5 0 7 9
4 8 -3 13 -11 10 -17z m5118 1 c-3 -14 -1 -19 6 -14 6 3 13 2 17 -4 11 -18 14
-110 4 -110 -6 0 -18 -7 -26 -16 -19 -18 -81 -13 -95 8 -6 10 -8 8 -8 -4 0
-10 -4 -18 -10 -18 -5 0 -10 7 -10 15 0 8 -5 15 -11 15 -5 0 -8 -4 -4 -9 3 -5
0 -13 -6 -17 -8 -5 -8 -9 1 -14 7 -5 0 -9 -19 -12 -18 -3 -31 0 -31 6 0 6 -5
3 -11 -6 -8 -14 -14 -15 -33 -6 -25 11 -41 44 -25 54 5 3 9 13 9 23 0 22 35
55 49 47 6 -4 19 -2 30 3 15 9 20 7 24 -10 3 -12 12 -19 19 -17 7 3 18 -2 24
-10 7 -10 31 -16 65 -18 63 -3 75 2 57 24 -11 13 -11 15 2 8 8 -4 4 2 -10 14
-14 11 -37 26 -52 32 -38 14 -35 35 5 47 46 13 46 13 39 -11z m-4979 -174 c70
-4 127 -10 127 -14 0 -4 22 -5 50 -2 27 2 57 1 67 -3 10 -4 59 -8 108 -10 92
-4 140 -7 375 -26 74 -6 141 -11 148 -11 11 -1 13 -21 8 -92 -3 -50 -5 -124
-6 -164 0 -40 -3 -71 -7 -69 -5 3 -8 -38 -9 -91 0 -54 -3 -153 -6 -222 -3 -69
-6 -144 -6 -167 l-1 -43 -126 0 -125 0 -1 275 c-1 151 -3 280 -4 285 -1 6 -4
13 -5 18 -1 4 -1 11 0 17 1 5 -1 7 -5 3 -4 -3 -22 0 -40 8 -48 20 -66 18 -98
-11 l-27 -26 0 -284 0 -285 -40 0 -40 0 0 228 c0 125 4 244 9 265 10 42 -6 86
-44 123 -23 21 -61 22 -96 3 -12 -6 -22 -5 -31 4 -17 16 -62 15 -82 -2 -13
-11 -22 -11 -42 -2 -34 15 -60 14 -99 -5 -26 -12 -32 -20 -27 -36 3 -12 1 -19
-4 -16 -5 4 -8 -110 -6 -278 l3 -284 -61 0 -60 0 0 444 c0 272 4 447 10 451 5
3 6 13 3 22 -5 13 -1 15 28 10 19 -3 91 -9 162 -13z m29 -348 c6 4 8 2 4 -4
-3 -6 -2 -13 4 -17 6 -4 10 -104 10 -276 l0 -269 -44 0 -44 0 2 268 c1 147 6
275 10 284 8 18 39 29 44 16 2 -5 9 -5 14 -2z m136 -283 l3 -283 -41 2 -40 1
0 262 c0 190 3 264 12 273 7 7 8 12 3 12 -6 0 -3 5 5 10 8 6 24 9 35 8 19 -3
20 -12 23 -285z m82 277 c0 13 1 13 10 0 7 -11 10 -12 10 -2 0 10 3 10 15 -2
13 -12 15 -58 15 -285 l0 -271 -46 0 -46 0 5 263 c2 144 7 271 10 282 3 11 6
22 6 25 1 3 6 -2 11 -10 9 -13 10 -13 10 0z m5298 -159 c12 -10 19 -21 16 -24
-15 -15 9 -47 42 -53 19 -3 34 -10 34 -15 0 -5 6 -6 13 -3 16 6 60 -34 52 -47
-4 -5 1 -9 10 -9 9 0 13 -5 10 -10 -4 -6 -11 -8 -16 -5 -5 3 -6 -2 -3 -12 6
-16 5 -16 -9 2 -13 16 -20 18 -53 9 -27 -6 -38 -14 -36 -25 1 -9 -4 -16 -13
-16 -8 0 -12 4 -9 9 3 4 1 8 -5 8 -6 0 -8 7 -5 15 4 8 2 15 -4 15 -5 0 -12 14
-14 31 -4 24 0 33 16 40 17 8 15 9 -11 5 -21 -4 -32 -1 -30 5 1 6 -7 13 -17
15 -32 5 -43 39 -23 72 11 17 30 15 55 -7z m-5023 -11 c4 -6 10 -8 15 -5 12 8
22 -27 10 -39 -5 -5 -10 -15 -10 -20 0 -6 5 -4 10 4 6 10 9 -38 9 -145 -1 -97
-5 -146 -9 -125 l-7 35 -2 -37 c0 -21 4 -38 9 -38 6 0 10 -4 10 -10 0 -5 -20
-10 -45 -10 l-46 0 5 198 c3 108 5 198 5 200 2 7 41 0 46 -8z m945 -375 c3
-115 4 -212 3 -214 -5 -8 -240 -52 -260 -48 -12 2 -20 1 -18 -3 3 -4 -12 -11
-33 -14 -20 -4 -110 -20 -200 -37 -90 -17 -170 -28 -178 -25 -9 3 -12 1 -9 -4
3 -6 -4 -10 -16 -10 -30 0 -269 -48 -296 -60 -13 -5 -23 -14 -23 -20 0 -6 4
-9 9 -5 5 3 12 1 16 -5 3 -5 17 -10 29 -10 41 0 43 -8 61 -185 2 -16 11 -77
20 -134 8 -58 13 -111 11 -118 -3 -7 -1 -15 5 -19 6 -3 9 -18 8 -32 -2 -15 -1
-32 3 -37 3 -6 9 -41 13 -80 3 -38 10 -87 15 -107 5 -25 4 -36 -2 -32 -6 4 -5
-4 2 -16 7 -12 9 -36 6 -52 -4 -20 -2 -27 6 -22 8 5 9 -6 5 -42 -5 -35 -4 -45
4 -34 8 12 10 12 7 -5 -3 -16 -25 -25 -128 -52 -69 -18 -131 -30 -138 -28 -8
3 -10 0 -6 -6 4 -8 -1 -9 -16 -4 -15 5 -20 4 -16 -4 4 -6 0 -11 -9 -11 -9 0
-48 -9 -86 -21 -38 -12 -76 -18 -85 -15 -8 3 -13 2 -10 -3 3 -5 -7 -11 -22
-15 -15 -3 -98 -26 -184 -49 l-158 -44 0 699 0 698 606 0 c606 0 634 1 656 34
5 6 5 37 2 70 -5 43 -3 60 7 66 11 7 10 13 -5 29 -10 11 -23 18 -28 15 -5 -3
-21 -3 -35 0 -23 6 -25 10 -20 54 4 43 13 87 17 87 1 0 3 11 4 24 6 52 24 56
252 56 l209 0 5 -210z m640 -524 l0 -733 -32 6 c-24 4 -29 3 -18 -4 11 -7 -1
-9 -40 -9 -48 1 -130 15 -106 18 5 0 3 7 -3 14 -6 8 -12 30 -13 50 -2 20 -7
37 -12 37 -4 0 -6 9 -3 20 3 10 1 20 -3 22 -14 5 -153 545 -146 565 3 7 1 13
-5 13 -6 0 -9 7 -5 15 3 8 1 15 -5 15 -6 0 -8 15 -4 38 3 23 2 30 -3 18 -6
-13 -16 15 -38 104 -32 136 -38 143 -112 133 l-41 -5 -1 208 -1 209 296 0 295
0 0 -734z m687 12 l-2 -728 -60 -6 -60 -7 63 2 c34 0 62 -2 62 -7 0 -4 -145
-6 -322 -5 l-323 3 3 335 c5 424 7 510 17 534 6 13 4 21 -3 24 -7 2 -11 80
-12 258 0 140 -3 268 -7 284 l-5 30 323 3 c178 1 325 3 326 5 1 1 1 -325 0
-725z m719 708 c-3 -5 -6 -335 -6 -735 l-1 -726 -329 0 -330 0 0 738 0 737
335 -3 c185 -1 333 -6 331 -11z m684 -271 l0 -279 -33 -16 c-76 -36 -149 -151
-121 -189 7 -10 11 -26 9 -37 -2 -10 0 -19 5 -19 5 0 24 -15 42 -32 18 -18 39
-33 46 -34 30 -2 33 -5 27 -25 -5 -15 -4 -19 4 -15 7 5 11 -6 11 -33 0 -22 -4
-42 -8 -45 -4 -3 -49 -6 -99 -8 -51 -1 -86 -6 -80 -10 10 -7 -21 -13 -45 -9
-5 0 -8 -4 -8 -10 0 -6 -7 -8 -16 -5 -8 3 -12 2 -9 -3 3 -5 -3 -12 -13 -15
-10 -3 -36 -24 -58 -47 l-39 -40 0 -258 0 -259 25 -21 c52 -43 114 -55 292
-56 92 0 165 2 162 6 -2 4 8 10 22 13 14 4 38 20 52 36 l27 29 -5 240 c-5 225
-4 241 13 241 9 0 17 -5 17 -11 0 -5 4 -8 8 -5 12 7 49 -26 66 -59 18 -35 16
-197 -3 -203 -6 -2 -11 -10 -11 -17 0 -7 -4 -15 -10 -17 -5 -1 -7 -13 -4 -25
7 -25 43 -35 197 -54 53 -6 97 -16 97 -21 0 -5 4 -7 9 -4 15 10 101 -6 95 -16
-4 -6 2 -8 13 -4 11 4 33 1 49 -5 16 -7 36 -11 43 -10 12 2 12 0 3 -11 -9 -12
-7 -14 16 -11 33 5 101 -22 109 -43 6 -17 -26 -46 -45 -39 -7 3 -11 1 -8 -3 7
-12 -61 -35 -75 -26 -7 4 -9 3 -6 -3 7 -11 -99 -37 -113 -28 -5 3 -10 1 -12
-4 -4 -13 -131 -33 -152 -25 -9 3 -16 1 -16 -5 0 -7 -16 -12 -37 -11 -21 0
-94 -5 -163 -11 -202 -17 -930 7 -906 31 2 3 -14 4 -36 2 -31 -3 -39 -1 -33 8
5 8 4 11 -3 6 -12 -7 -190 12 -207 22 -5 3 -23 7 -40 9 -16 2 -43 8 -59 13
-16 6 -40 10 -53 10 -16 0 -22 4 -17 12 4 6 3 8 -4 5 -17 -11 -44 4 -37 21 4
12 3 13 -10 2 -11 -9 -15 -9 -15 -1 0 7 -5 9 -11 5 -7 -4 -10 -1 -7 6 16 49
330 128 462 116 31 -3 44 -1 35 5 -9 5 14 8 63 8 95 -1 148 14 141 41 -3 12
-10 16 -21 13 -11 -5 -13 -3 -7 8 7 11 5 11 -10 -1 -12 -10 -20 -11 -22 -4 -2
7 -19 8 -48 4 -27 -4 -42 -3 -38 3 3 5 -3 6 -16 2 -13 -4 -21 -2 -21 5 0 6 5
8 12 4 8 -5 9 -2 2 12 -5 10 -10 215 -11 454 -1 257 2 427 7 415 6 -15 9 -9 8
25 0 37 -1 41 -8 20 -4 -14 -8 109 -9 275 l-1 300 325 -3 325 -3 0 -279z
m1381 141 c-7 -12 -7 -21 -1 -23 6 -2 5 -13 -3 -28 -8 -14 -12 -31 -9 -38 2
-7 -1 -19 -7 -26 -9 -10 -9 -15 -1 -18 6 -2 12 -27 12 -56 1 -28 5 -52 10 -52
5 0 6 -4 3 -10 -4 -6 -15 -4 -30 6 -13 9 -29 13 -35 9 -6 -4 -9 -1 -8 7 2 7
-2 12 -9 11 -7 -2 -10 3 -7 11 3 8 1 17 -5 21 -6 3 -11 0 -11 -8 0 -15 -29
-27 -68 -27 -15 0 -21 4 -16 12 5 8 2 9 -10 5 -13 -5 -17 -2 -14 10 2 11 14
18 32 20 15 1 36 9 45 18 10 8 21 12 24 8 4 -3 7 3 7 15 0 12 6 21 13 20 6 -2
11 5 9 15 -2 9 3 17 9 17 7 0 9 3 6 7 -4 3 -2 12 4 20 6 7 8 13 3 13 -5 0 -3
4 4 9 7 4 14 14 16 22 1 8 8 25 15 38 12 21 15 22 23 8 5 -11 5 -24 -1 -36z
m-5135 -142 c5 -1 11 0 14 1 3 1 127 3 277 5 l272 2 -5 -37 c-3 -22 -1 -41 5
-45 8 -4 7 -11 -3 -21 -12 -12 -106 -14 -610 -14 l-596 0 0 53 c0 30 2 56 6
59 4 5 614 2 640 -3z m5114 -119 c0 -5 7 -10 15 -10 9 0 21 -12 28 -27 11 -25
39 -45 36 -25 -6 36 28 52 40 19 11 -30 3 -51 -14 -37 -10 8 -15 8 -20 0 -4
-6 -15 -8 -25 -5 -12 4 -26 -2 -40 -17 -21 -23 -24 -24 -57 -27 -13 -1 -14 -4
-6 -12 9 -9 6 -17 -10 -31 -12 -11 -16 -17 -9 -13 7 4 12 0 12 -9 0 -9 6 -16
13 -16 8 0 7 -4 -3 -10 -14 -9 -7 -14 13 -11 5 1 6 -3 2 -9 -3 -5 -2 -10 3
-10 13 0 8 -53 -6 -58 -7 -2 -9 -9 -5 -15 3 -7 3 -9 -1 -5 -4 3 -6 8 -5 10 2
2 -4 17 -12 33 -42 82 -48 95 -39 90 6 -3 10 -2 10 3 0 6 -7 13 -16 16 -14 5
-14 7 0 22 9 8 16 20 16 25 0 6 5 7 10 4 6 -3 10 1 10 9 0 8 11 23 25 34 14
11 25 27 25 36 0 9 7 16 16 16 12 0 11 5 -7 20 -13 10 -18 19 -11 20 6 0 12
-4 12 -10z m-3942 -94 c7 -22 14 -57 15 -78 1 -21 6 -38 11 -38 4 0 5 -7 2
-16 -4 -9 -2 -22 4 -29 6 -7 19 -50 31 -96 11 -46 33 -136 50 -199 16 -63 30
-126 32 -140 1 -14 4 -27 7 -30 5 -5 33 -108 46 -170 7 -33 9 -41 19 -64 5
-12 3 -21 -6 -27 -11 -7 -10 -9 5 -9 13 0 17 -5 13 -20 -3 -11 -1 -20 4 -20 5
0 9 -8 9 -18 0 -15 -16 -19 -107 -30 -60 -7 -121 -15 -137 -19 -25 -5 -28 -3
-23 11 4 9 3 14 -2 11 -9 -5 -23 23 -18 37 1 4 -13 18 -30 31 -18 13 -30 27
-26 30 13 13 -164 -1 -206 -17 -24 -9 -53 -18 -65 -20 -12 -3 -43 -12 -71 -21
-85 -27 -288 -85 -301 -85 -17 0 -27 62 -12 72 9 5 8 8 -5 8 -12 0 -17 7 -16
18 1 9 -1 25 -6 35 -4 9 -4 24 -1 33 4 9 2 13 -5 8 -8 -5 -10 3 -7 24 2 17 2
29 -2 27 -3 -2 -12 30 -19 70 -16 87 -31 107 -55 73 -9 -12 -16 -27 -16 -33 0
-5 4 -4 9 4 7 10 11 1 16 -32 4 -25 4 -50 0 -56 -3 -6 -2 -11 2 -11 5 0 9 -8
10 -17 0 -10 11 -63 23 -118 13 -55 23 -110 22 -122 0 -13 4 -20 9 -17 5 3 12
-1 14 -9 7 -17 23 -16 98 7 32 9 62 14 66 11 5 -3 11 -1 13 4 1 6 14 12 28 15
14 2 89 25 167 50 79 25 150 43 158 40 8 -4 15 -2 15 2 0 5 23 10 51 11 43 2
54 -2 75 -24 39 -42 32 -57 -22 -50 -32 3 -42 2 -33 -5 10 -7 4 -8 -19 -4 -23
4 -31 2 -26 -6 5 -8 2 -9 -11 -5 -9 4 -23 3 -29 -1 -6 -5 -37 -19 -69 -31 -31
-11 -84 -34 -117 -51 -34 -17 -66 -28 -72 -24 -6 4 -8 3 -5 -3 7 -11 -60 -46
-73 -38 -4 3 -10 0 -12 -7 -2 -6 -23 -12 -45 -12 -23 -1 -39 -4 -36 -8 2 -5
-12 -8 -32 -8 -20 0 -34 4 -31 8 2 4 -10 6 -28 4 -46 -5 -110 29 -126 68 -7
17 -13 48 -14 68 -1 20 -4 39 -8 42 -4 3 -9 37 -12 75 -4 39 -10 90 -15 115
-5 25 -12 70 -14 100 -3 30 -11 81 -17 113 -6 33 -9 65 -6 72 2 7 1 16 -4 21
-8 8 -12 41 -24 185 -2 14 -5 30 -8 35 -3 5 -5 26 -4 47 2 20 -2 37 -7 37 -5
0 -7 9 -4 20 3 11 1 18 -4 14 -5 -3 -9 3 -9 13 0 15 13 22 60 32 33 7 69 11
80 8 11 -3 18 -1 14 4 -4 8 35 14 60 10 4 -1 13 2 20 7 6 5 34 12 63 16 28 3
140 24 250 45 315 63 373 72 385 65 6 -4 8 -3 4 4 -4 7 6 12 26 15 63 8 72 4
86 -37z m2644 -652 c13 -8 53 -16 82 -15 18 0 18 0 0 -14 -11 -8 -14 -14 -6
-15 16 0 18 -431 2 -461 -6 -10 -19 -19 -30 -19 -10 0 -22 -4 -25 -10 -11 -18
-288 -19 -353 -1 -72 20 -77 35 -80 261 -3 190 5 259 28 245 5 -3 10 -1 10 5
0 7 7 10 15 6 8 -3 15 -1 15 4 0 10 46 14 218 18 62 2 118 0 124 -4z m-792
-373 c0 -10 -40 -18 -125 -26 -108 -10 -284 -64 -346 -106 -14 -10 -29 -16
-32 -13 -3 3 -8 0 -13 -7 -5 -8 -3 -10 7 -4 8 5 2 -4 -13 -19 -26 -27 -28 -34
-27 -112 1 -46 6 -84 10 -84 5 0 8 3 8 8 -4 21 3 23 21 7 11 -10 17 -22 13
-28 -3 -5 0 -7 8 -5 8 3 30 -3 49 -12 19 -10 61 -26 93 -36 31 -10 57 -22 57
-27 0 -5 6 -7 14 -4 8 3 57 -3 110 -14 118 -24 433 -59 535 -59 42 0 86 -3 99
-6 l22 -6 0 -404 c0 -375 -3 -429 -25 -393 -4 6 -13 8 -19 6 -7 -3 -84 6 -172
19 -87 13 -193 28 -234 34 -41 5 -88 13 -105 17 -16 3 -40 5 -52 4 -13 -1 -23
1 -23 6 0 4 -20 9 -44 9 -25 1 -53 5 -63 9 -19 8 -34 10 -96 13 l-37 2 0 317
c1 185 5 312 10 303 17 -28 89 -19 90 11 0 7 -67 42 -87 45 -6 1 -41 14 -77
28 -59 24 -73 26 -133 19 -38 -4 -76 -7 -86 -5 -10 1 -15 -3 -12 -8 6 -10 -32
-15 -83 -12 -12 0 -20 -3 -18 -7 3 -4 -75 -22 -172 -41 -97 -18 -202 -37 -232
-43 -30 -6 -70 -10 -88 -9 -18 0 -30 -4 -27 -9 4 -5 1 -9 -5 -9 -8 0 -10 35
-8 115 2 63 1 115 -2 115 -3 0 -5 11 -5 24 0 19 3 22 13 13 10 -8 12 -7 10 4
-2 10 8 15 32 17 19 1 67 9 105 17 107 22 224 37 234 31 5 -4 12 -2 15 3 3 4
34 11 68 15 54 6 195 35 207 43 2 1 -2 9 -9 18 -9 11 -28 14 -70 13 -32 -2
-56 -6 -53 -10 2 -5 -2 -8 -9 -8 -26 0 -348 -50 -418 -65 -14 -3 -48 -7 -76
-10 -51 -4 -51 -4 -97 49 -25 29 -74 72 -110 96 -36 25 -63 49 -60 54 3 5 1 6
-5 2 -14 -8 -123 49 -114 60 4 4 2 4 -5 0 -7 -4 -38 4 -70 18 l-58 24 38 7
c21 4 52 5 70 1 23 -4 28 -3 17 4 -10 6 270 10 823 10 497 0 837 -4 837 -9z
m-1843 -39 c7 -2 10 -9 6 -15 -3 -5 -1 -7 4 -4 6 4 31 -1 56 -10 39 -14 44
-19 35 -32 -10 -13 -10 -14 2 -3 20 17 37 15 60 -8 11 -11 23 -20 28 -20 28
-2 54 -15 63 -32 6 -11 17 -17 25 -14 8 3 14 1 14 -4 0 -6 3 -9 8 -9 25 4 34
-2 23 -15 -10 -12 -8 -13 8 -9 12 3 21 1 21 -6 0 -6 5 -11 11 -11 14 0 60 -36
59 -46 -1 -4 2 -10 7 -13 5 -3 19 -19 31 -35 21 -28 22 -37 22 -241 l0 -213
-47 -55 c-40 -49 -49 -55 -67 -46 -19 9 -20 9 -3 -4 17 -14 16 -16 -13 -40
-16 -14 -69 -52 -116 -83 -69 -46 -88 -54 -95 -43 -8 12 -13 6 -11 -12 2 -11
-76 -42 -87 -35 -6 4 -11 2 -11 -4 0 -7 -7 -9 -16 -6 -8 3 -13 2 -9 -3 7 -12
-113 -25 -178 -18 -28 2 -53 10 -55 16 -2 6 -8 9 -13 6 -9 -6 -69 21 -69 31 0
3 6 2 13 -2 6 -4 0 4 -15 19 l-28 26 -1 298 c-1 164 -1 301 0 306 0 4 -4 7 -9
7 -5 0 -10 6 -10 14 0 7 -7 19 -15 26 -8 7 -12 16 -9 21 3 5 2 9 -3 8 -20 -4
-27 2 -13 12 13 9 13 10 0 6 -25 -7 -180 108 -180 133 0 6 5 8 10 5 6 -3 10
-2 10 3 0 5 19 17 43 26 23 10 49 22 57 27 47 29 131 62 167 67 24 2 40 8 37
13 -3 5 -1 9 5 9 5 0 12 -6 14 -12 3 -8 6 -6 6 5 1 17 35 25 44 10 2 -5 2 -2
0 5 -2 11 16 13 84 11 49 -1 94 -4 100 -7z m-894 -155 c4 3 7 2 7 -3 0 -11 3
-11 125 -19 119 -8 135 -12 135 -34 0 -10 6 -18 14 -18 24 0 86 -44 79 -56 -3
-7 -3 -9 2 -5 10 9 96 -52 89 -64 -3 -5 0 -7 8 -6 7 2 12 -3 10 -10 -1 -6 3
-11 9 -10 6 2 14 -3 17 -11 3 -10 -3 -13 -26 -9 -17 2 -29 1 -27 -3 15 -23
-367 -26 -615 -5 -156 14 -460 58 -500 73 -8 3 -28 7 -45 9 -45 6 -57 12 -49
26 6 10 3 9 -9 0 -9 -8 -21 -11 -27 -7 -24 15 -22 16 307 110 51 15 98 23 104
19 7 -4 9 -3 6 2 -5 9 196 68 232 67 9 0 18 3 21 6 3 4 19 11 35 17 28 9 32 7
61 -33 17 -24 34 -40 37 -36z m2273 -37 c8 0 14 -5 14 -12 0 -6 2 -9 6 -6 3 3
37 -5 75 -18 39 -13 80 -24 91 -24 10 0 17 -4 14 -9 -3 -5 6 -9 22 -8 59 1 83
-3 77 -13 -4 -6 6 -7 24 -4 18 4 37 2 44 -5 8 -6 16 -9 18 -6 4 4 72 -3 189
-19 14 -2 70 -6 125 -10 55 -4 106 -10 114 -12 13 -4 262 -14 458 -17 56 -1
96 1 90 5 -7 4 17 8 53 8 36 0 97 3 135 6 51 4 66 3 55 -5 -12 -9 -9 -11 15
-11 22 0 26 3 15 10 -13 8 -13 10 0 14 8 3 26 5 40 4 14 0 61 7 105 16 140 31
160 34 167 30 3 -2 8 -1 10 3 4 11 98 46 125 47 12 1 21 6 20 11 -1 6 6 9 16
7 9 -2 17 2 17 8 0 16 20 12 26 -5 11 -27 -16 -69 -59 -96 -54 -34 -220 -90
-274 -92 -22 -1 -39 -5 -37 -8 5 -9 -86 -20 -99 -12 -5 3 -7 1 -4 -4 8 -13
-112 -28 -143 -18 -12 4 -28 1 -36 -6 -11 -9 -95 -12 -332 -13 -320 -1 -585
10 -563 23 6 4 -16 6 -49 4 -34 -2 -59 0 -57 4 3 5 -13 7 -35 5 -24 -3 -38 0
-35 5 3 5 -6 8 -22 5 -50 -7 -319 57 -304 72 4 5 -2 5 -15 2 -15 -5 -24 -3
-28 8 -3 9 -14 16 -24 16 -26 0 -77 50 -85 83 -7 27 15 73 23 48 2 -6 10 -11
18 -11z m3062 -267 c3 -128 2 -131 -20 -137 -48 -13 -344 -88 -363 -92 -11 -2
-55 -13 -98 -24 -43 -11 -83 -18 -90 -14 -7 4 -8 3 -4 -2 8 -8 -57 -27 -141
-41 l-33 -5 3 138 c3 126 5 139 21 136 9 -2 17 2 17 8 0 6 6 10 13 9 6 -1 25
3 41 10 16 6 31 9 34 6 3 -2 10 -1 17 5 6 5 28 11 48 14 20 2 41 7 46 10 17
11 395 105 402 100 4 -2 11 1 14 6 4 6 26 10 48 8 l42 -4 3 -131z m-6184 109
c6 -3 19 -7 30 -8 12 -1 32 -4 46 -7 14 -3 55 -10 93 -17 37 -7 70 -16 73 -21
3 -5 9 -7 13 -5 4 3 47 -1 94 -9 166 -27 342 -47 407 -47 14 -1 20 -2 14 -5
-7 -2 -9 -40 -7 -111 3 -59 2 -134 -2 -168 l-6 -61 -57 9 c-46 7 -185 36 -307
65 -11 2 -37 7 -57 10 -22 3 -35 10 -31 16 3 6 1 7 -6 3 -6 -4 -67 6 -134 22
-67 17 -149 37 -182 45 l-60 14 -3 148 -3 147 38 -7 c21 -4 42 -9 47 -13z
m1356 -113 c0 -6 -5 -20 -11 -31 -8 -15 -8 -19 0 -13 8 5 11 -17 9 -76 l-3
-82 -104 -28 c-57 -15 -110 -25 -117 -22 -8 3 -14 1 -14 -5 0 -6 -19 -13 -42
-17 -38 -6 -205 -47 -250 -61 -17 -5 -18 7 -18 159 l0 164 138 3 c75 1 185 3
245 5 59 1 110 5 114 8 11 11 53 8 53 -4z m1768 -70 l32 -11 0 -319 c0 -248
-3 -319 -12 -321 -22 -2 -33 -5 -48 -11 -38 -16 -322 -87 -330 -82 -4 3 -10 0
-12 -6 -2 -6 -22 -11 -45 -12 -22 -1 -39 -4 -38 -7 5 -8 -335 -91 -345 -85 -5
3 -10 1 -12 -3 -4 -12 -294 -84 -340 -86 -20 0 -34 -3 -31 -6 5 -5 -230 -68
-287 -76 -19 -3 -91 -19 -160 -35 -69 -17 -140 -31 -157 -32 -18 -1 -33 -5
-33 -10 0 -4 -12 -4 -26 -1 -17 5 -25 3 -21 -3 10 -16 -72 -26 -89 -12 -12 9
-13 9 -9 -3 4 -11 -3 -17 -24 -21 -17 -4 -38 -4 -46 -1 -8 4 -15 2 -15 -4 0
-11 -108 -34 -123 -25 -6 4 -7 1 -2 -7 6 -10 1 -12 -18 -8 -15 3 -28 2 -29 -3
-2 -4 -25 -11 -53 -14 l-50 -7 3 439 c1 241 4 443 6 450 3 6 24 14 48 18 24 4
67 13 95 22 29 8 57 12 63 8 5 -3 10 -2 10 2 0 5 42 17 93 27 50 10 119 27
152 37 74 23 89 24 81 3 -3 -8 -2 -12 4 -9 6 4 10 -45 11 -134 2 -173 0 -160
24 -177 11 -8 19 -17 18 -19 -2 -3 0 -5 5 -6 4 0 14 -6 22 -13 25 -20 92 -45
130 -48 44 -2 56 -8 39 -19 -11 -7 -11 -9 -1 -9 10 0 13 -15 11 -54 -2 -40 2
-58 14 -71 19 -18 47 -14 47 7 0 9 -3 9 -10 -2 -15 -24 -17 -9 -11 74 l6 79
32 3 31 4 -1 -64 c-2 -46 2 -67 14 -80 16 -16 17 -15 24 11 4 15 7 54 7 85 0
48 3 58 19 63 10 4 24 3 30 -1 7 -4 9 -3 6 3 -4 6 0 13 8 17 12 4 15 -4 15
-42 0 -29 6 -56 16 -68 8 -10 12 -13 8 -5 -3 7 -1 17 6 21 17 11 23 69 9 87
-9 11 -8 17 7 28 17 12 20 11 26 -8 l6 -22 1 22 c1 12 6 25 12 28 7 5 10 -11
8 -50 -3 -53 -1 -58 24 -71 23 -12 26 -12 21 0 -3 8 0 17 6 21 8 5 8 11 1 19
-6 7 -10 37 -8 66 2 49 5 55 38 75 l35 23 2 -36 c2 -19 7 -43 12 -52 5 -10 6
-21 2 -25 -4 -5 1 -5 11 -2 10 4 19 7 20 7 1 0 1 33 0 73 l-2 74 60 59 60 59
-3 -50 c-2 -27 -7 -53 -13 -57 -6 -5 -5 -8 2 -8 9 0 10 -7 3 -26 -12 -32 -12
-34 1 -34 5 0 8 4 4 9 -3 5 -1 12 5 16 9 6 14 -7 11 -27 0 -5 4 -8 9 -8 6 0
10 5 10 11 0 5 3 8 8 6 4 -3 7 32 8 76 1 220 9 276 36 249 6 -6 19 -12 27 -12
13 0 14 2 2 9 -18 11 -4 16 113 36 49 8 105 19 125 24 20 5 43 9 51 9 8 1 49
8 90 18 298 66 328 69 408 43z m1121 -6 l-1 -28 -8 25 c-5 14 -6 -11 -3 -60 9
-142 9 -544 -1 -557 -5 -8 -4 -13 3 -13 6 0 11 -14 11 -31 0 -16 -4 -28 -9
-24 -6 3 -8 -4 -6 -16 7 -36 7 -273 0 -301 -4 -14 -2 -36 5 -47 10 -20 8 -21
-25 -21 -40 0 -75 15 -75 31 0 6 6 7 13 3 10 -6 10 -4 0 7 -7 7 -14 38 -15 69
l-1 55 -7 -50 c-6 -42 -7 -35 -7 40 0 66 2 80 7 50 6 -35 7 -32 9 28 0 38 -3
66 -7 63 -4 -2 -9 176 -9 398 l-2 402 65 2 64 3 -1 -28z m1941 -549 l-1 -442
-42 -8 c-23 -5 -48 -8 -54 -7 -7 0 -13 -3 -13 -7 0 -4 -17 -10 -37 -13 -21 -2
-128 -26 -238 -51 -110 -26 -237 -55 -283 -65 l-82 -19 2 435 3 435 135 35
c74 19 146 36 160 38 38 7 50 10 115 30 88 27 304 82 321 82 12 0 14 -60 14
-443z m-6062 365 c97 -23 182 -45 188 -50 6 -5 13 -6 16 -3 5 4 65 -8 263 -57
22 -5 60 -12 85 -14 93 -10 90 -7 89 -83 0 -37 -3 -59 -7 -50 -4 10 -6 -145
-4 -344 2 -199 1 -372 -3 -385 -3 -15 -13 -23 -26 -23 -11 0 -18 3 -15 8 2 4
-12 7 -32 6 -19 -1 -46 2 -59 7 -13 5 -36 11 -51 14 -78 13 -220 49 -217 54 1
3 -13 7 -34 8 -41 1 -333 72 -341 82 -3 3 -16 6 -30 6 l-25 0 -3 439 c-2 389
-1 438 13 432 8 -3 95 -24 193 -47z m4267 -433 c11 -2 56 -9 100 -16 57 -9 83
-17 93 -31 7 -10 19 -19 25 -19 7 0 3 8 -8 16 -19 15 -17 15 30 10 81 -10 115
-18 120 -26 3 -5 14 -6 25 -3 11 3 20 1 20 -4 0 -5 8 -10 18 -10 51 1 73 -4
67 -14 -4 -6 -19 -7 -36 -4 -17 4 -35 2 -42 -3 -22 -19 -217 -35 -346 -29
-179 8 -165 2 -169 82 l-3 68 43 -6 c24 -4 52 -8 63 -11z m561 -151 c3 -14 11
-22 16 -19 6 4 9 -6 7 -22 -2 -16 1 -35 6 -43 6 -11 4 -13 -8 -8 -11 4 -17 1
-17 -9 0 -8 5 -12 10 -9 6 3 10 1 10 -5 0 -6 5 -8 10 -5 6 3 10 2 10 -4 0 -6
15 -17 34 -26 42 -20 53 -43 29 -64 -16 -15 -16 -15 -3 2 12 16 11 17 -11 9
-27 -10 -52 -5 -44 9 4 5 0 6 -8 3 -7 -2 -27 1 -43 7 -16 7 -34 11 -41 10 -6
-1 -14 3 -18 8 -3 6 -13 7 -22 4 -10 -4 -14 -2 -10 4 5 7 -1 9 -15 5 -11 -3
-19 -1 -16 4 4 5 -10 10 -30 12 -20 1 -41 7 -46 12 -14 14 -46 13 -46 -1 0 -6
-7 -8 -16 -5 -8 3 -13 2 -10 -2 3 -5 -3 -16 -13 -24 -15 -12 -22 -13 -31 -5
-10 9 -11 9 -6 0 10 -19 -27 -20 -48 -1 -13 12 -19 33 -21 72 l-2 54 81 7
c103 8 258 35 271 46 17 16 35 9 41 -16z m-500 -41 l41 -5 1 -47 c1 -33 -1
-43 -8 -32 -9 15 -11 13 -14 -12 0 -6 -7 -13 -15 -16 -8 -3 -11 0 -7 7 5 7 1
9 -8 5 -9 -3 -13 -10 -10 -15 3 -5 -2 -9 -10 -9 -25 0 -31 4 -30 18 1 6 -2 12
-8 12 -5 0 -7 4 -4 8 3 5 -9 6 -26 4 -21 -3 -29 -1 -24 7 5 8 0 8 -18 1 -25
-9 -26 -9 -26 34 0 23 3 46 7 50 7 6 49 4 159 -10z m327 -143 c10 -1 16 -5 13
-10 -3 -5 0 -9 7 -8 49 1 69 -4 63 -18 -4 -12 -2 -13 14 -3 10 7 23 8 27 4 4
-5 2 -11 -4 -13 -7 -3 -13 -9 -13 -15 0 -6 8 -4 18 5 20 19 73 10 80 -12 3 -8
0 -11 -6 -8 -5 4 -15 1 -21 -7 -7 -8 -22 -12 -34 -9 -18 4 -19 3 -7 -7 12 -9
10 -11 -13 -7 -15 2 -25 2 -22 -1 11 -11 -78 -32 -91 -21 -8 7 -13 6 -16 -2
-3 -8 -51 -11 -173 -10 -258 2 -238 0 -219 18 10 11 14 26 10 43 -4 24 -2 28
22 28 14 0 28 5 30 11 2 6 12 11 23 11 12 0 16 -5 13 -15 -4 -8 -1 -15 5 -15
6 0 11 6 12 13 0 10 2 10 6 0 2 -7 9 -13 14 -13 6 0 7 5 4 10 -3 6 1 10 10 10
9 0 13 -4 10 -10 -3 -5 -1 -10 4 -10 6 0 11 5 11 11 0 8 4 8 15 -1 20 -16 105
-24 105 -9 0 6 9 9 20 6 13 -3 25 2 33 14 8 10 16 18 18 16 2 -1 -1 3 -8 9
-18 16 -16 23 5 19 9 -2 25 -4 35 -4z"/>
<path d="M3623 3783 c-23 -9 -14 -20 30 -33 96 -30 139 -80 150 -175 4 -27 7
-158 8 -291 1 -194 4 -241 15 -241 7 0 11 4 8 9 -3 4 -1 8 5 8 7 0 10 105 10
307 0 190 -4 301 -10 292 -9 -14 -10 -11 -13 23 -1 17 -63 71 -103 92 -31 15
-75 20 -100 9z"/>
<path d="M4930 2370 c-232 -11 -304 -16 -503 -40 -92 -10 -175 -16 -183 -13
-7 3 -14 1 -14 -4 0 -5 -39 -15 -87 -22 -49 -7 -131 -22 -183 -32 -52 -11
-100 -17 -107 -15 -7 3 -15 0 -19 -5 -3 -6 -17 -8 -30 -5 -13 4 -24 2 -24 -3
0 -5 -26 -15 -57 -21 -32 -7 -83 -19 -113 -27 -30 -9 -65 -16 -77 -17 -13 0
-23 -5 -23 -10 0 -4 -7 -5 -16 -2 -8 3 -12 2 -9 -4 3 -6 0 -10 -7 -10 -7 0
-30 -9 -51 -20 -21 -11 -43 -17 -50 -14 -7 4 -9 3 -4 -1 4 -5 -5 -16 -20 -26
-15 -10 -28 -24 -30 -31 -12 -49 -18 -106 -12 -102 7 4 22 -29 24 -51 0 -5 5
-10 10 -10 6 0 19 -6 30 -12 18 -11 18 -12 3 -13 -10 0 -18 -4 -18 -9 0 -4 10
-6 23 -4 26 5 110 -30 99 -42 -4 -5 -2 -5 5 -2 6 4 33 -3 60 -15 26 -12 53
-22 58 -23 32 -3 213 -49 210 -54 -1 -3 9 -6 23 -7 44 -2 227 -37 230 -44 1
-3 19 -4 39 -2 19 3 33 1 30 -4 -3 -5 16 -9 41 -10 87 -2 344 -28 328 -33 -8
-4 24 -6 72 -6 48 0 157 -4 242 -9 231 -14 852 -7 868 9 3 3 37 5 76 5 40 0
107 4 151 9 44 6 105 12 135 15 51 5 118 14 260 36 30 5 88 13 129 20 41 6
140 24 220 41 80 17 153 32 161 33 9 1 20 5 25 8 16 10 204 68 219 68 8 0 17
6 19 13 4 9 6 9 6 -1 1 -8 9 -6 24 8 12 11 44 35 71 53 34 21 50 39 51 55 2
29 -18 28 -58 -2 -18 -14 -39 -26 -47 -28 -8 -2 -19 -8 -25 -14 -15 -18 -195
-86 -210 -80 -8 3 -15 0 -17 -5 -4 -13 -125 -42 -138 -34 -6 4 -10 1 -10 -6 0
-7 -10 -9 -25 -7 -13 3 -22 2 -20 -2 6 -10 -148 -40 -176 -34 -19 5 -21 4 -9
-5 12 -9 9 -11 -15 -11 -16 -1 -90 -11 -162 -23 -86 -15 -133 -19 -133 -13 0
6 -4 5 -9 -3 -6 -10 -20 -12 -47 -8 -27 4 -34 3 -24 -3 16 -10 -69 -16 -160
-12 -32 1 -41 -1 -30 -8 10 -7 -12 -10 -75 -11 -49 0 -108 -3 -130 -6 -22 -3
-79 -6 -128 -7 -48 0 -87 -5 -87 -10 0 -12 -770 1 -875 14 -44 6 -109 13 -145
15 -112 6 -205 17 -208 24 -1 4 -19 5 -39 3 -19 -3 -33 -1 -30 4 3 5 -23 9
-57 10 -91 1 -426 69 -426 86 0 5 -5 6 -11 3 -19 -12 -239 69 -280 103 -8 7
-29 24 -47 38 -23 18 -31 32 -27 43 4 9 8 21 9 27 3 16 28 46 33 40 3 -2 13 4
24 15 11 11 24 17 29 14 6 -4 10 -2 10 3 0 11 126 55 139 48 5 -3 11 -1 13 4
2 6 17 12 33 13 17 1 33 5 36 10 3 4 24 8 47 10 23 1 42 5 42 8 0 3 13 6 28 7
36 1 56 5 63 14 3 5 25 9 50 10 24 0 46 5 49 9 3 4 25 10 50 13 25 3 92 12
150 21 58 9 123 17 145 18 22 1 42 5 45 8 9 12 333 41 510 46 162 4 450 19
477 24 6 1 14 10 16 20 4 15 -7 17 -122 17 -69 -1 -205 -4 -301 -8z"/>
</g>
</svg>
