<?xml version="1.0" standalone="no"?>
<!DOCTYPE svg PUBLIC "-//W3C//DTD SVG 20010904//EN"
 "http://www.w3.org/TR/2001/REC-SVG-20010904/DTD/svg10.dtd">
<svg version="1.0" xmlns="http://www.w3.org/2000/svg"
 width="1024.000000pt" height="1024.000000pt" viewBox="0 0 1024.000000 1024.000000"
 preserveAspectRatio="xMidYMid meet">
<metadata>
Created by potrace 1.16, written by Peter Selinger 2001-2019
</metadata>
<g transform="translate(0.000000,1024.000000) scale(0.100000,-0.100000)"
fill="#000000" stroke="none">
<path d="M3221 8164 c-17 -7 -34 -13 -37 -13 -3 0 -9 -3 -12 -7 -4 -4 -1 -4 6
0 15 9 15 4 -1 -28 -10 -18 -12 -41 -6 -83 17 -131 30 -342 35 -568 3 -132 7
-246 9 -252 2 -7 1 -13 -3 -13 -4 0 -6 -48 -4 -106 5 -118 -10 -380 -34 -611
-12 -113 -14 -177 -7 -252 5 -56 5 -101 1 -101 -5 0 -8 4 -8 9 0 5 -20 44 -44
87 -25 43 -42 82 -39 88 3 6 2 8 -2 3 -5 -4 -26 21 -48 55 -55 88 -155 213
-221 277 -30 30 -52 59 -49 64 3 6 1 7 -5 3 -7 -4 -39 16 -74 45 -35 29 -102
78 -150 109 -48 31 -84 61 -80 65 4 5 2 5 -4 2 -11 -6 -207 86 -200 94 3 2 -5
5 -17 6 -36 3 -217 70 -209 77 3 4 0 5 -8 2 -8 -2 -27 -7 -42 -10 -17 -4 -34
-18 -43 -37 -15 -27 -15 -35 -1 -81 8 -29 12 -56 9 -61 -4 -6 -1 -7 7 -2 10 6
12 4 7 -9 -5 -11 -3 -15 5 -10 8 5 9 2 5 -10 -4 -10 -3 -15 3 -11 12 8 53 -72
44 -87 -4 -6 -3 -8 3 -5 13 8 46 -50 37 -65 -4 -6 -3 -8 4 -5 12 8 85 -90 77
-104 -4 -5 -2 -8 3 -7 13 4 183 -198 174 -207 -4 -4 0 -5 8 -3 8 2 14 -3 12
-10 -1 -8 2 -11 6 -8 5 3 18 -4 28 -16 11 -11 65 -58 121 -103 56 -46 99 -86
95 -90 -4 -5 -2 -5 4 -2 13 8 99 -49 99 -65 0 -7 8 -12 17 -12 26 2 186 -84
168 -90 -8 -3 -57 -17 -108 -31 -50 -14 -114 -34 -142 -45 -27 -11 -55 -18
-62 -16 -7 1 -9 1 -5 -2 4 -2 -32 -23 -80 -47 -48 -24 -92 -41 -98 -37 -5 3
-7 2 -3 -3 4 -4 -20 -25 -53 -46 -63 -41 -75 -46 -63 -27 4 7 3 8 -5 4 -6 -4
-9 -11 -6 -15 2 -5 -15 -23 -38 -42 -23 -18 -80 -70 -126 -114 -46 -44 -85
-79 -88 -77 -3 2 -8 0 -11 -4 -4 -4 -1 -4 6 0 19 11 15 0 -19 -48 -82 -115 4
-171 202 -132 165 33 342 102 497 193 41 24 79 40 84 36 6 -3 8 -2 5 4 -4 6
15 25 41 43 26 19 98 76 161 128 116 95 207 150 234 139 11 -4 16 -31 20 -114
10 -173 8 -665 -3 -823 -5 -80 -12 -181 -15 -225 -3 -44 -11 -125 -16 -180 -6
-55 -8 -118 -5 -140 3 -22 13 -125 23 -230 21 -238 24 -980 5 -1245 -20 -289
-35 -439 -42 -435 -3 2 -5 -9 -2 -24 2 -16 -3 -87 -13 -157 -17 -132 -18 -254
-2 -251 5 1 11 -6 12 -16 5 -25 15 -35 15 -14 0 11 9 16 28 16 44 -1 98 4 86
8 -9 3 -8 11 1 31 13 27 16 44 35 257 75 810 84 1421 29 1925 -5 47 -9 87 -9
90 0 3 90 4 200 2 148 -2 200 -6 200 -15 0 -7 -7 -102 -15 -212 -8 -110 -15
-244 -15 -298 0 -69 -3 -96 -11 -91 -7 4 -6 -2 1 -17 7 -13 9 -24 4 -26 -9 -3
-9 -356 1 -432 3 -26 0 -49 -6 -57 -9 -11 -8 -14 2 -14 12 0 12 -2 0 -9 -9 -6
-10 -11 -2 -15 6 -4 11 -14 11 -22 0 -8 -4 -13 -8 -10 -5 3 -9 -27 -9 -67 l0
-72 6 65 c5 50 10 2 24 -217 10 -156 15 -287 12 -293 -3 -5 -2 -10 3 -10 5 0
12 -39 16 -87 24 -323 34 -386 66 -403 19 -10 110 -10 107 0 -1 3 5 16 12 29
10 18 12 44 7 95 -34 364 -47 516 -56 666 -5 96 -12 210 -15 252 -8 106 -8
704 -1 803 3 44 14 168 24 275 20 226 20 279 -2 530 -31 358 -40 716 -28 1018
7 152 19 354 27 447 14 162 12 309 -9 562 -4 52 -4 53 22 52 15 -1 35 -4 46
-6 15 -4 16 -7 5 -15 -10 -7 -8 -8 7 -3 27 7 56 -4 47 -18 -4 -6 0 -8 9 -4 9
3 53 -13 99 -35 87 -41 244 -98 274 -98 9 0 14 -4 11 -8 -3 -5 8 -7 23 -4 16
2 31 0 34 -5 9 -15 297 4 376 26 93 25 125 47 129 90 5 44 -16 72 -87 118 -34
22 -58 43 -54 47 4 4 0 4 -9 1 -9 -4 -33 2 -55 13 -75 38 -197 74 -331 97 -76
13 -129 23 -120 24 9 1 18 5 20 9 6 15 78 53 88 47 6 -4 9 -2 8 3 -2 6 29 33
67 60 201 142 380 350 531 615 98 170 110 222 61 267 -26 25 -66 25 -121 1
-23 -11 -66 -29 -94 -40 -67 -27 -253 -120 -327 -164 -32 -20 -63 -33 -68 -30
-6 3 -7 1 -3 -5 10 -16 -6 -15 -24 1 -12 10 -12 9 -2 -4 11 -14 6 -21 -35 -47
-27 -17 -57 -39 -68 -49 -122 -108 -164 -141 -170 -135 -5 4 -5 1 -1 -6 5 -8
-5 -27 -26 -50 -60 -66 -127 -168 -183 -275 -29 -58 -57 -102 -61 -98 -4 3 -4
1 -1 -5 3 -6 -2 -33 -12 -59 l-18 -48 -5 39 c-17 137 -4 527 28 889 17 198 14
221 -33 252 -24 16 -55 18 -314 19 -216 1 -295 -2 -318 -12z m495 -257 c-23
-332 -26 -432 -25 -713 1 -172 -1 -317 -5 -323 -4 -6 -3 -11 2 -11 5 0 12 -64
16 -142 3 -79 9 -174 11 -213 4 -48 2 -64 -4 -50 -5 11 -10 14 -10 7 -2 -37
-26 -42 -198 -42 l-168 0 11 130 c43 462 42 929 -2 1387 l-7 73 193 0 193 -1
-7 -102z m1095 -217 c-25 -42 -47 -68 -53 -64 -7 4 -8 2 -4 -5 13 -20 -129
-192 -153 -184 -12 3 -12 2 -4 -4 15 -11 -63 -93 -93 -97 -10 -2 -19 -9 -19
-16 0 -15 -146 -130 -156 -124 -4 2 -10 -3 -13 -12 -4 -9 -13 -14 -21 -10 -8
3 -14 1 -12 -5 1 -6 -49 -38 -111 -71 l-114 -61 40 79 c126 250 332 445 629
596 64 32 118 56 121 53 3 -2 -14 -36 -37 -75z m-2645 -809 c5 -4 30 -16 56
-26 26 -10 45 -21 42 -26 -3 -5 1 -7 8 -4 17 7 181 -89 171 -100 -5 -4 -3 -5
3 -2 7 4 23 -2 35 -14 13 -11 18 -18 12 -14 -7 3 -13 1 -13 -4 0 -6 8 -10 18
-8 26 3 91 -50 214 -175 100 -101 187 -217 236 -314 l21 -42 -39 19 c-28 14
-40 26 -41 42 -1 17 -2 18 -6 5 -2 -10 -6 -18 -8 -18 -14 0 -55 25 -55 33 0 6
-3 7 -7 4 -9 -10 -85 36 -188 114 -123 94 -137 107 -130 119 3 5 0 7 -8 4 -9
-3 -41 25 -87 76 -39 44 -68 80 -64 80 5 0 1 5 -9 11 -26 15 -99 118 -92 129
4 6 2 9 -3 8 -6 -2 -29 23 -51 55 -36 50 -43 74 -15 48z m2264 -76 c111 -19
222 -53 217 -68 -5 -15 -163 -10 -247 8 -82 19 -211 65 -206 74 6 10 138 2
236 -14z m-745 -555 c3 -5 12 -10 18 -10 7 0 6 4 -3 10 -13 8 -12 10 4 10 21
0 21 9 -5 -370 -5 -80 -9 -306 -9 -503 1 -196 -2 -362 -6 -369 -4 -6 -3 -8 4
-4 7 4 11 -17 14 -64 2 -51 0 -70 -9 -70 -16 0 -16 -20 -2 -40 8 -11 9 -9 4
10 -5 18 -4 22 4 15 7 -7 12 -64 13 -148 2 -75 6 -137 11 -137 4 0 7 -16 7
-36 0 -21 -4 -33 -10 -29 -6 4 -8 10 -5 15 6 9 -25 23 -33 15 -3 -3 0 -5 6 -5
7 0 12 -7 12 -15 0 -11 -13 -15 -52 -16 -88 -1 -313 2 -315 5 -2 1 4 67 12
147 24 244 37 639 31 894 -6 206 -29 591 -40 678 l-4 27 173 0 c105 0 176 -4
180 -10z m-856 -414 c-42 -39 -93 -75 -101 -69 -6 3 -8 1 -5 -4 19 -30 -247
-175 -423 -233 -30 -9 -64 -21 -75 -25 -14 -5 -12 1 9 19 17 13 34 22 39 19 6
-3 7 -1 3 5 -9 16 128 116 234 172 76 39 340 135 319 116z"/>
<path d="M6780 7192 c-29 -24 -33 -81 -7 -110 16 -17 36 -20 170 -24 151 -5
192 -12 181 -29 -3 -5 -2 -9 3 -8 36 6 73 -49 73 -110 0 -47 -16 -85 -31 -76
-5 4 -8 1 -7 -5 7 -27 -46 -50 -125 -54 -68 -4 -78 -2 -72 11 5 14 3 14 -11 2
-19 -16 -168 -24 -159 -8 4 5 -1 9 -10 9 -9 0 -14 -4 -11 -9 6 -8 -76 -6 -127
4 -18 4 -26 2 -22 -4 4 -7 -18 -9 -62 -7 -37 2 -69 8 -70 13 -2 6 -13 9 -23 6
-11 -3 -17 -9 -14 -14 3 -6 -13 -7 -37 -4 -24 3 -46 10 -50 16 -4 8 -8 7 -11
-2 -4 -14 -42 -16 -336 -19 -33 0 -48 -6 -67 -26 -31 -34 -32 -65 -1 -101 l24
-28 166 1 c94 1 166 -3 166 -8 0 -5 6 -6 13 -1 16 11 137 11 137 0 0 -4 4 -6
9 -2 6 3 156 7 335 8 l324 3 67 33 c74 37 137 106 155 169 19 70 13 163 -16
220 -24 48 -114 142 -136 142 -5 0 -7 4 -4 9 7 11 6 11 -215 17 -163 5 -177 4
-199 -14z"/>
<path d="M5602 6396 c-42 -19 -58 -59 -40 -100 7 -17 12 -33 11 -36 -1 -3 6
-7 15 -9 9 -2 519 -6 1132 -10 613 -3 1123 -10 1132 -15 10 -4 15 -13 11 -19
-4 -6 -1 -7 6 -2 15 8 57 -28 77 -67 8 -15 14 -54 14 -86 0 -70 -23 -110 -88
-157 -42 -29 -48 -30 -176 -35 -84 -3 -138 -10 -148 -17 -8 -7 -17 -11 -19 -8
-4 4 -6 -2 -11 -45 -4 -38 3 -70 15 -68 6 2 11 -2 10 -7 -1 -6 48 -11 127 -13
137 -4 210 9 278 49 19 11 39 16 45 13 7 -4 9 -4 5 1 -4 4 11 28 33 52 22 24
51 67 64 94 12 28 24 46 26 40 12 -34 6 134 -6 182 -8 33 -12 64 -8 70 3 7 3
9 -2 5 -5 -5 -23 14 -41 40 -34 51 -73 85 -139 121 -22 12 -32 20 -22 17 9 -3
17 -1 17 4 0 6 -408 9 -1052 10 -579 0 -1093 2 -1143 5 -67 4 -98 2 -123 -9z"/>
<path d="M4249 6095 c-15 -8 -30 -22 -34 -32 -11 -26 -23 -113 -14 -108 3 3 9
-28 13 -68 41 -470 39 -949 -6 -1424 -9 -103 -8 -166 8 -400 30 -433 24 -1208
-11 -1583 -2 -25 -7 -76 -10 -115 -14 -168 -16 -192 -21 -225 -6 -49 22 -102
61 -112 36 -10 81 6 96 34 12 22 31 250 55 637 13 221 15 368 10 750 -3 262
-12 540 -18 619 l-13 142 193 0 c128 0 192 -4 192 -11 0 -5 -4 -8 -9 -5 -4 3
-6 -5 -4 -18 3 -13 -2 -104 -11 -202 -9 -98 -16 -239 -17 -311 0 -95 -4 -133
-12 -133 -8 0 -8 -3 -2 -8 6 -4 11 -94 13 -232 4 -387 50 -1146 73 -1207 21
-57 87 -71 135 -29 l28 23 -17 179 c-55 578 -73 1081 -51 1482 5 85 9 112 20
112 24 0 83 -33 77 -43 -3 -6 -1 -7 5 -3 14 8 183 -84 176 -96 -3 -4 3 -5 12
-1 13 5 15 3 9 -7 -5 -8 -4 -11 2 -7 15 10 114 -33 106 -46 -3 -5 -1 -7 5 -3
6 3 32 -2 58 -12 26 -11 43 -21 38 -24 -5 -3 -3 -3 4 -1 17 4 156 -37 160 -48
2 -4 9 -6 17 -3 8 3 38 1 67 -5 170 -32 319 -26 378 18 34 25 38 78 9 114 -24
32 -131 106 -234 162 -38 21 -73 44 -77 49 -4 6 -8 8 -8 4 0 -4 -25 3 -56 17
-78 35 -227 81 -304 95 -36 6 -76 14 -89 16 -20 4 -8 14 75 61 54 30 111 64
126 75 16 11 33 16 39 12 7 -4 9 -3 6 3 -4 6 24 34 61 64 155 124 311 311 432
514 83 139 112 207 104 240 -10 38 -46 59 -91 51 -21 -4 -48 -8 -60 -9 -11 -1
-20 -5 -18 -8 6 -9 -64 -31 -76 -23 -8 4 -9 3 -5 -4 4 -7 1 -12 -6 -12 -7 0
-69 -27 -137 -60 -67 -33 -128 -57 -134 -53 -5 3 -7 1 -3 -5 6 -10 -101 -79
-116 -74 -5 1 -8 -2 -8 -7 0 -4 -33 -33 -73 -64 -143 -110 -292 -279 -374
-424 -19 -35 -39 -63 -44 -63 -5 0 -8 -3 -8 -7 3 -21 -2 -33 -13 -27 -6 4 -8
3 -5 -3 4 -6 1 -26 -7 -44 -14 -32 -14 -31 -9 31 3 36 -5 207 -18 380 -35 467
-31 901 13 1333 11 108 10 120 -7 155 -10 20 -18 40 -17 44 1 3 -135 7 -301 7
-246 0 -307 -2 -328 -14z m320 -156 c-10 -6 -5 -9 16 -9 22 0 26 3 16 9 -10 6
12 10 63 13 l77 3 -5 -35 c-29 -188 -39 -928 -17 -1220 21 -287 23 -315 28
-322 2 -5 -85 -8 -194 -8 -117 0 -192 4 -184 9 7 5 11 13 7 19 -3 6 1 97 11
204 30 337 23 935 -14 1290 l-6 57 74 3 c95 4 146 -1 128 -13z m1281 -1122
c-8 -7 -24 -28 -34 -47 -36 -65 -118 -170 -128 -163 -6 3 -8 1 -4 -5 12 -20
-137 -177 -254 -267 -124 -96 -350 -221 -350 -195 0 6 8 10 18 10 11 0 13 3 5
8 -8 5 0 25 25 68 132 218 321 397 550 520 62 33 74 37 83 24 9 -13 10 -13 6
0 -2 10 12 23 42 37 51 25 63 28 41 10z m-510 -961 c108 -30 190 -59 185 -65
-3 -5 3 -7 12 -5 10 2 63 -18 118 -46 55 -27 89 -48 75 -45 -14 2 -64 11 -111
20 -118 21 -329 95 -329 116 0 5 -7 5 -17 2 -12 -5 -14 -3 -8 7 5 8 4 11 -2 7
-10 -7 -63 13 -63 24 0 5 107 -6 140 -15z"/>
<path d="M5960 6012 c-62 -7 -72 -13 -92 -58 -11 -25 -17 -48 -14 -51 3 -4 6
0 6 8 0 8 6 3 13 -11 8 -15 30 -31 62 -42 56 -20 67 -22 45 -8 -12 8 -9 10 12
10 15 0 30 -4 33 -10 3 -5 16 -10 28 -10 18 0 19 2 7 10 -11 7 -7 10 18 10 18
0 31 -4 28 -8 -2 -4 5 -9 17 -9 17 -2 19 0 7 7 -11 7 -5 10 23 10 20 0 37 -4
37 -10 0 -5 10 -10 23 -9 21 0 21 1 2 9 -17 7 -15 9 12 9 17 1 34 -3 37 -8 6
-10 18 -9 53 3 12 4 31 2 42 -3 14 -8 21 -8 24 2 4 9 7 9 18 0 17 -17 73 -18
63 -1 -5 8 -2 9 12 4 40 -17 56 -18 64 -6 6 9 13 9 28 1 26 -14 65 -14 57 -1
-4 6 7 10 25 10 17 0 29 -4 26 -8 -3 -5 1 -9 9 -9 8 0 12 4 9 9 -3 4 11 8 31
8 22 0 34 -4 30 -10 -4 -6 6 -10 22 -9 25 0 26 1 8 9 -16 7 -12 9 18 9 21 1
36 -2 33 -7 -2 -4 34 -6 80 -4 88 3 123 -7 125 -36 0 -11 2 -13 6 -4 4 10 9 9
24 -4 21 -19 26 -40 7 -28 -7 4 -8 3 -4 -5 4 -6 11 -9 16 -6 5 3 14 -13 20
-36 12 -43 4 -81 -25 -126 -15 -23 -43 -34 -29 -11 4 7 3 8 -5 4 -6 -4 -9 -12
-5 -17 11 -18 -64 -39 -141 -39 -67 0 -79 -3 -100 -25 -43 -42 -26 -107 33
-126 61 -20 184 -5 261 32 36 18 70 31 76 30 5 -2 7 1 3 5 -4 4 7 23 24 42 69
79 89 193 54 300 -25 74 -98 151 -178 187 l-63 28 -515 1 c-283 1 -526 0 -540
-2z"/>
</g>
</svg>
