<?xml version="1.0" standalone="no"?>
<!DOCTYPE svg PUBLIC "-//W3C//DTD SVG 20010904//EN" "http://www.w3.org/TR/2001/REC-SVG-20010904/DTD/svg10.dtd">
<svg xmlns="http://www.w3.org/2000/svg" version="1.0" width="1024.000000pt" height="1024.000000pt" viewBox="0 0 1024.000000 1024.000000" preserveAspectRatio="xMidYMid meet">
<metadata>
Created by potrace 1.16, written by Peter Selinger 2001-2019
<meta name="Producer" content="Online-Convert"/></metadata>
<g transform="translate(0.000000,1024.000000) scale(0.100000,-0.100000)" fill="#000000" stroke="none">
<path d="M7636 8774 l-26 -27 0 -206 c0 -165 3 -211 15 -227 8 -12 12 -23 10 -26 -3 -3 1 -5 8 -6 94 -14 92 -15 125 16 l32 30 0 210 0 210 -31 26 c-42 36 -97 35 -133 0z"/>
<path d="M6926 8449 c-21 -25 -26 -40 -24 -74 2 -24 6 -41 9 -39 8 4 54 -59 51 -69 -1 -5 1 -6 6 -3 5 3 41 -28 81 -69 40 -41 77 -75 82 -75 6 0 8 -4 5 -9 -3 -4 6 -6 19 -3 14 2 33 -2 42 -9 13 -11 15 -11 9 -1 -9 15 31 49 49 44 6 -2 7 -1 3 3 -3 4 -2 20 2 35 14 49 -1 76 -95 171 -118 120 -130 129 -175 129 -30 0 -44 -6 -64 -31z"/>
<path d="M8355 8461 c-16 -10 -74 -64 -128 -119 -96 -100 -98 -102 -95 -146 2 -24 6 -42 9 -40 8 5 31 -21 24 -27 -2 -3 4 -5 13 -6 9 -1 34 -6 54 -11 21 -5 36 -7 33 -2 -5 7 44 35 58 32 4 -1 6 2 5 8 -2 5 37 52 85 104 106 115 117 147 69 196 -36 36 -81 40 -127 11z"/>
<path d="M7578 8145 c-106 -27 -222 -101 -273 -175 -16 -22 -32 -37 -39 -33 -6 3 -8 3 -4 -2 4 -4 -4 -29 -18 -56 -42 -84 -58 -163 -49 -254 4 -44 8 -92 9 -107 0 -14 4 -25 7 -23 3 2 18 -23 33 -56 58 -122 204 -244 323 -270 47 -11 51 -13 35 -26 -15 -13 -14 -13 6 -3 14 7 57 10 102 8 43 -2 76 0 73 5 -2 4 2 7 10 7 39 0 125 36 192 81 57 39 88 68 126 122 27 39 54 88 61 108 6 21 15 36 21 32 6 -3 7 -1 4 4 -4 6 -2 46 4 89 8 66 7 92 -6 154 -10 41 -18 83 -18 92 -1 9 -4 15 -7 13 -4 -2 -16 15 -27 38 -11 24 -44 68 -72 99 -28 30 -48 57 -46 60 3 3 -1 5 -8 5 -7 0 -31 12 -53 26 -100 67 -264 93 -386 62z m249 -190 c25 -10 40 -22 36 -28 -4 -6 -1 -7 6 -2 15 9 63 -33 54 -48 -3 -6 -1 -7 5 -3 13 8 44 -33 35 -47 -3 -6 -1 -7 6 -3 7 5 19 -9 34 -41 30 -67 30 -188 -1 -256 -26 -57 -110 -150 -129 -143 -8 3 -12 2 -9 -3 8 -12 -64 -40 -119 -48 -52 -7 -138 5 -130 18 3 5 0 6 -8 3 -21 -8 -106 38 -144 78 -40 42 -77 113 -69 134 3 8 2 12 -3 9 -5 -3 -13 20 -16 50 -12 94 22 188 92 258 45 46 128 91 154 84 12 -3 17 -1 12 5 -10 17 145 3 194 -17z"/>
<path d="M8353 7752 c5 -2 1 -13 -9 -23 -9 -10 -19 -17 -23 -15 -11 7 -11 -68 0 -96 22 -54 40 -58 259 -58 l201 0 24 26 c36 39 34 96 -4 135 l-29 29 -200 0 c-110 0 -206 2 -214 3 -7 2 -9 2 -5 -1z"/>
<path d="M6597 7730 c-14 -11 -28 -33 -32 -49 -8 -36 16 -95 45 -111 21 -11 457 -13 446 -2 -3 2 1 14 9 26 24 34 19 103 -10 131 -24 25 -25 25 -228 25 -190 0 -206 -1 -230 -20z"/>
<path d="M4810 7554 c-116 -20 -155 -29 -225 -51 -72 -23 -402 -153 -644 -255 -51 -22 -100 -37 -108 -34 -8 3 -12 2 -9 -3 7 -10 -602 -254 -615 -246 -5 4 -9 2 -9 -3 0 -14 -207 -95 -221 -86 -7 4 -9 3 -5 -4 8 -13 -29 -26 -45 -16 -7 4 -9 3 -6 -3 8 -12 -309 -137 -325 -127 -7 5 -8 3 -3 -6 6 -10 4 -12 -9 -7 -9 4 -14 3 -11 -2 7 -12 -31 -24 -46 -15 -7 4 -9 3 -5 -4 10 -17 -33 -25 -52 -10 -15 11 -15 11 -5 -3 11 -13 -9 -24 -157 -83 -94 -37 -175 -64 -182 -60 -6 4 -8 3 -5 -3 7 -12 -271 -125 -286 -116 -7 3 -9 2 -4 -2 10 -11 -132 -77 -147 -68 -6 3 -8 3 -4 -2 4 -4 -28 -34 -72 -67 -75 -55 -150 -131 -150 -150 0 -5 -5 -6 -12 -2 -6 4 -8 3 -5 -3 3 -5 -7 -35 -23 -66 -16 -32 -32 -78 -36 -102 -3 -25 -9 -43 -13 -41 -9 6 7 -152 19 -188 14 -40 13 -49 -6 -42 -9 3 -12 2 -9 -5 4 -6 13 -8 20 -5 8 3 18 -7 24 -25 6 -16 20 -43 32 -60 20 -29 20 -31 4 -43 -14 -10 -15 -15 -5 -21 8 -5 11 -4 7 2 -4 6 -1 13 7 16 12 5 66 -40 66 -55 0 -14 -58 -77 -65 -70 -5 4 -5 2 -2 -4 3 -6 -9 -40 -28 -76 -70 -132 -83 -313 -31 -450 13 -37 32 -77 40 -91 9 -13 13 -27 9 -32 -5 -4 -3 -5 4 -1 14 8 36 -27 25 -39 -4 -5 -2 -5 4 -2 6 4 19 -2 29 -13 11 -13 14 -20 6 -20 -7 0 -10 -4 -7 -9 3 -5 -2 -15 -12 -22 -15 -12 -16 -12 -5 2 10 13 10 16 -1 16 -8 0 -13 -7 -11 -16 3 -23 -16 -61 -28 -54 -6 3 -7 1 -4 -4 4 -6 -7 -40 -23 -76 -56 -119 -66 -208 -47 -434 1 -11 5 -19 10 -16 4 2 7 -3 7 -11 0 -8 15 -44 34 -80 19 -35 31 -68 27 -72 -3 -4 -1 -4 5 -1 12 7 29 -20 25 -38 -2 -5 1 -7 5 -3 4 4 33 -16 64 -46 32 -29 87 -70 123 -91 36 -21 63 -43 60 -48 -3 -6 -1 -7 4 -4 14 9 185 -87 176 -98 -5 -4 -2 -5 4 -1 16 9 56 -17 45 -29 -4 -5 -1 -5 6 -1 14 9 94 -33 86 -46 -3 -5 -2 -7 3 -6 13 5 93 -34 88 -42 -3 -4 1 -7 8 -6 20 2 276 -147 270 -158 -3 -5 -1 -6 5 -2 14 9 95 -37 85 -48 -4 -4 1 -4 11 0 15 6 17 4 11 -6 -5 -8 -4 -11 3 -6 15 9 144 -63 135 -76 -3 -7 -1 -8 5 -4 7 4 34 -5 61 -21 42 -23 48 -30 38 -43 -10 -13 -10 -13 5 -2 14 11 33 3 136 -55 66 -37 118 -72 115 -77 -4 -5 -1 -6 5 -2 16 10 74 -22 66 -36 -4 -7 -3 -8 5 -4 15 9 312 -154 304 -167 -3 -6 -1 -7 4 -4 6 4 80 -32 164 -79 216 -121 230 -130 222 -139 -5 -4 -2 -5 4 -1 15 8 146 -67 136 -78 -4 -4 1 -4 11 0 15 6 17 4 11 -7 -4 -8 -5 -11 0 -7 11 10 166 -73 158 -85 -3 -6 -1 -7 5 -3 15 9 195 -88 185 -99 -5 -4 -3 -5 4 -1 7 4 29 -2 50 -13 21 -10 57 -24 80 -31 24 -7 40 -17 36 -23 -3 -6 -1 -7 5 -3 6 3 53 -3 104 -15 118 -27 302 -22 416 11 40 11 78 17 84 14 7 -4 8 -2 4 4 -4 7 -2 12 5 12 7 0 84 29 171 65 87 37 164 63 171 59 6 -4 9 -3 4 1 -9 11 213 106 231 100 7 -3 11 -1 8 4 -3 5 8 14 24 21 24 10 33 10 48 -1 15 -12 16 -12 5 1 -10 14 15 27 190 100 111 46 210 84 219 84 9 0 15 3 13 6 -6 10 175 81 188 74 7 -4 9 -4 5 1 -10 11 163 87 182 80 8 -3 11 -3 7 1 -9 10 284 135 301 129 7 -3 11 -1 8 4 -8 12 72 43 87 35 7 -4 9 -4 5 1 -4 4 49 32 119 62 97 41 129 50 136 41 6 -10 8 -9 4 2 -3 11 25 27 100 58 57 23 109 40 116 36 7 -4 9 -3 4 1 -10 11 100 58 116 49 7 -4 9 -3 4 1 -10 11 171 87 187 78 6 -3 8 -2 3 2 -4 5 45 31 110 58 301 125 362 151 413 175 30 14 61 26 68 25 7 -1 11 1 8 4 -3 3 26 27 64 54 37 27 90 74 116 106 26 32 51 57 56 55 5 -1 7 1 4 6 -2 4 11 39 30 76 19 38 34 75 34 83 0 8 5 11 12 7 7 -4 8 -3 4 4 -4 6 0 38 9 72 18 70 35 291 21 283 -5 -4 -7 13 -4 38 3 24 3 37 0 29 -3 -8 -13 15 -23 50 -10 36 -16 72 -13 80 3 8 2 11 -2 7 -10 -10 -36 52 -27 66 3 5 1 7 -4 4 -13 -8 -26 20 -16 36 3 7 3 9 -2 5 -4 -4 -35 32 -67 79 -52 76 -58 90 -49 111 7 14 16 20 24 16 6 -4 9 -4 5 1 -5 5 3 23 17 41 29 38 105 191 105 212 0 7 5 10 12 6 6 -4 8 -3 5 3 -4 6 1 48 9 94 12 61 14 111 10 184 -10 148 -10 153 -17 149 -4 -2 -10 11 -13 29 -8 42 -57 146 -96 202 -17 25 -28 50 -25 55 4 6 3 9 -2 8 -14 -5 -122 105 -116 116 3 6 3 8 -2 4 -4 -4 -30 8 -57 27 -27 20 -89 57 -138 84 -50 26 -87 51 -82 56 4 4 2 5 -5 2 -16 -10 -44 3 -36 16 3 5 1 7 -5 3 -14 -8 -274 128 -265 139 5 4 2 5 -5 1 -16 -9 -373 174 -365 188 3 5 1 6 -5 2 -16 -9 -273 124 -265 137 3 6 1 7 -5 3 -15 -9 -205 88 -194 99 4 4 1 5 -6 1 -7 -4 -39 7 -75 27 -34 19 -153 81 -264 138 -111 57 -199 107 -196 113 3 5 1 6 -5 2 -7 -4 -182 81 -389 189 -514 267 -496 258 -608 306 -180 76 -246 90 -445 94 -96 2 -186 2 -200 -1z m358 -190 c81 -17 206 -62 307 -112 33 -16 77 -37 97 -46 22 -11 35 -23 32 -31 -3 -7 -1 -16 5 -20 7 -3 8 0 5 9 -3 9 -3 16 0 16 4 0 98 -47 209 -105 111 -58 248 -129 304 -158 56 -28 99 -56 96 -61 -4 -5 -1 -6 5 -2 14 9 382 -185 375 -198 -3 -5 -1 -6 5 -2 14 9 83 -25 75 -37 -3 -6 -1 -7 5 -3 14 8 288 -133 284 -146 -1 -5 2 -7 7 -4 13 8 42 -4 35 -15 -3 -5 1 -7 8 -4 7 2 115 -48 239 -113 164 -85 225 -121 222 -132 -4 -12 -3 -12 5 -1 8 11 60 -13 260 -115 138 -71 248 -133 245 -138 -4 -5 -1 -6 5 -2 12 7 213 -99 284 -151 84 -61 195 -208 183 -241 -3 -7 -1 -11 4 -8 11 7 34 -71 25 -86 -4 -6 -3 -8 4 -4 15 9 26 -110 18 -188 -8 -77 -29 -149 -41 -139 -4 4 -5 2 0 -5 9 -17 -24 -94 -38 -85 -6 4 -7 1 -3 -6 17 -27 -84 -148 -178 -215 -79 -56 -138 -85 -381 -189 -376 -160 -424 -179 -436 -171 -7 4 -9 3 -6 -3 8 -13 -118 -67 -134 -57 -7 4 -9 3 -6 -3 4 -6 -10 -17 -31 -25 -235 -96 -294 -118 -304 -112 -6 4 -8 3 -5 -2 5 -9 -70 -43 -363 -165 -63 -26 -146 -60 -185 -77 -38 -16 -196 -81 -350 -144 -154 -64 -302 -126 -329 -137 -27 -12 -56 -19 -63 -17 -8 3 -12 2 -9 -2 7 -12 -242 -114 -257 -106 -6 4 -9 3 -4 -1 8 -9 -21 -23 -303 -140 -102 -42 -203 -85 -224 -95 -22 -11 -43 -17 -48 -14 -5 3 -7 2 -6 -3 2 -5 -13 -23 -33 -41 -29 -25 -38 -29 -49 -19 -12 10 -12 9 -3 -3 9 -12 6 -24 -11 -53 -13 -20 -26 -34 -31 -29 -4 4 -5 2 -2 -5 14 -23 -4 -43 -32 -36 -46 11 -101 40 -93 48 4 5 2 5 -5 1 -17 -9 -75 22 -67 36 4 7 3 8 -4 4 -6 -4 -69 25 -141 63 -171 93 -192 106 -183 116 4 5 2 5 -5 2 -14 -9 -96 37 -86 48 5 4 3 5 -4 1 -7 -4 -47 13 -90 37 -43 24 -152 85 -243 134 -91 50 -183 101 -205 113 -22 13 -121 68 -220 122 -99 54 -179 103 -177 109 1 6 -2 8 -7 4 -9 -5 -276 141 -1106 602 -104 59 -215 121 -245 139 -75 45 -155 127 -188 194 -23 47 -27 67 -27 144 0 63 4 91 13 94 6 2 10 7 7 12 -8 13 35 102 75 152 l37 47 49 -28 c27 -15 106 -58 176 -96 70 -38 124 -73 121 -78 -3 -6 -1 -7 5 -3 15 9 155 -68 145 -79 -5 -4 -3 -5 4 -1 6 3 40 -9 75 -29 53 -29 63 -39 63 -61 0 -15 6 -29 13 -31 6 -3 12 0 12 7 0 6 -4 9 -9 5 -6 -3 -9 4 -8 15 1 11 4 20 7 20 16 -1 280 -147 275 -153 -3 -4 -2 -5 2 -2 3 3 64 -25 134 -62 110 -58 126 -69 116 -83 -10 -13 -10 -13 5 -2 14 12 27 8 87 -26 39 -21 68 -42 64 -47 -5 -4 -3 -5 4 -1 6 3 72 -27 145 -67 73 -41 159 -87 190 -102 50 -24 56 -30 45 -44 -10 -14 -10 -14 4 -3 14 11 36 2 147 -59 72 -40 128 -77 125 -82 -3 -6 -1 -7 5 -3 15 9 102 -35 95 -48 -3 -6 -3 -8 2 -4 11 10 145 -63 138 -75 -3 -6 -1 -7 5 -3 7 4 47 -12 90 -36 42 -24 98 -54 124 -68 26 -13 44 -28 41 -34 -3 -5 -1 -6 6 -2 6 4 17 3 24 -2 7 -5 56 -33 109 -61 153 -81 179 -97 171 -106 -5 -4 -3 -5 4 -2 6 4 40 -6 75 -23 34 -16 69 -30 76 -30 7 0 11 -3 9 -7 -3 -5 5 -9 16 -9 12 -1 58 -7 102 -14 165 -26 313 0 556 96 77 30 145 52 152 48 6 -4 9 -3 4 1 -9 11 51 37 66 28 5 -3 8 -2 4 3 -3 5 97 51 221 101 125 51 322 131 437 178 310 128 386 156 397 148 6 -3 8 -2 5 4 -8 12 498 217 514 207 7 -4 9 -3 6 3 -7 11 514 225 535 220 7 -2 9 -2 4 1 -5 3 67 35 160 72 213 84 277 116 342 175 178 160 153 458 -48 573 -27 16 -47 32 -42 37 4 4 2 5 -4 2 -6 -3 -27 -1 -47 5 -31 10 -35 14 -25 27 10 13 10 14 -2 4 -10 -9 -38 -11 -101 -6 -117 8 -233 -16 -373 -76 -27 -12 -56 -19 -65 -16 -8 3 -12 3 -8 -1 10 -11 -81 -46 -95 -38 -6 4 -9 3 -6 -2 4 -5 -71 -40 -165 -78 -558 -224 -849 -336 -860 -330 -7 4 -8 3 -4 -1 10 -11 -81 -48 -95 -39 -6 4 -8 3 -5 -2 3 -5 -22 -20 -56 -33 -34 -13 -113 -44 -174 -68 -62 -24 -118 -41 -124 -37 -7 4 -9 3 -6 -3 4 -6 -14 -18 -41 -28 -275 -103 -757 -297 -833 -336 -180 -93 -260 -250 -169 -331 56 -51 117 -30 144 47 8 22 18 39 24 38 5 -1 9 5 8 15 0 10 5 16 14 14 8 -2 12 0 7 4 -15 15 27 43 121 83 115 47 654 261 762 301 41 15 139 53 218 84 79 31 148 54 154 50 7 -4 8 -3 4 4 -4 7 -1 12 8 12 8 0 16 -3 19 -7 2 -5 3 -3 1 3 -1 6 39 27 89 47 51 20 121 48 157 63 36 15 75 27 87 28 12 0 19 3 17 5 -8 9 137 61 149 55 7 -4 9 -3 4 1 -4 5 48 31 115 57 68 27 149 61 182 75 32 14 69 26 81 27 13 0 21 3 19 5 -8 8 251 111 269 107 10 -3 14 0 10 7 -4 7 0 8 11 4 9 -4 15 -3 12 1 -7 11 142 65 156 56 6 -4 8 -3 5 3 -10 16 61 34 165 40 91 5 97 5 94 -13 -2 -10 -1 -13 1 -6 6 16 26 15 66 -2 80 -34 126 -131 101 -216 -21 -71 -80 -118 -221 -174 -65 -26 -131 -54 -148 -60 -120 -51 -196 -77 -206 -70 -7 4 -9 3 -6 -3 3 -5 -106 -55 -251 -113 -141 -57 -362 -146 -490 -197 -128 -51 -238 -90 -244 -87 -6 4 -8 3 -5 -2 8 -13 -969 -408 -984 -398 -7 4 -9 3 -6 -3 9 -14 -378 -167 -503 -200 -73 -19 -112 -23 -170 -20 -87 5 -203 35 -193 50 3 6 1 7 -5 3 -15 -9 -182 75 -175 88 4 6 3 8 -2 4 -9 -8 -58 16 -240 117 -71 39 -200 109 -285 155 -85 46 -213 115 -285 155 -71 40 -162 89 -202 110 -40 21 -69 43 -66 48 3 6 1 7 -6 3 -6 -4 -39 8 -74 27 -34 19 -107 59 -162 88 -156 83 -176 95 -168 104 5 4 3 5 -4 1 -15 -8 -283 136 -276 148 4 5 1 6 -5 2 -10 -6 -414 201 -567 291 -27 16 -121 67 -207 113 -86 46 -154 88 -151 93 3 6 1 7 -5 3 -15 -9 -54 12 -47 24 3 6 0 7 -8 4 -19 -7 -130 95 -123 113 3 8 2 12 -3 9 -19 -12 -51 91 -51 164 0 40 4 69 9 66 5 -4 7 4 3 16 -3 14 -1 19 6 14 8 -5 10 -2 6 8 -8 20 34 88 48 80 6 -4 8 -2 4 4 -19 30 228 192 301 196 13 0 23 4 23 7 0 15 397 172 413 163 7 -4 8 -3 4 1 -10 11 231 108 246 99 7 -4 9 -3 4 1 -9 11 153 77 171 70 7 -3 11 -1 8 3 -7 12 201 95 215 86 7 -4 9 -3 6 3 -8 13 100 56 115 46 7 -3 8 -1 4 5 -7 11 8 16 42 15 7 -1 11 2 7 5 -8 9 136 63 148 55 6 -3 7 -1 4 4 -4 6 29 24 81 43 48 18 140 55 206 81 65 27 123 46 129 42 6 -4 7 -1 2 7 -6 10 -3 12 13 8 12 -4 20 -3 17 1 -2 4 10 13 28 18 18 6 115 45 217 87 102 42 191 74 198 71 7 -3 11 -1 8 3 -5 9 214 99 354 147 68 23 164 48 230 58 67 11 267 6 338 -9z m3280 -2832 c50 -93 82 -202 82 -277 0 -63 -1 -65 -20 -55 -14 7 -20 7 -20 0 0 -5 4 -10 9 -10 4 0 6 -11 3 -25 -2 -14 -8 -22 -13 -19 -5 3 -9 1 -9 -4 0 -6 7 -12 15 -16 11 -4 15 1 15 19 0 14 5 25 11 25 29 0 -17 -182 -67 -268 -36 -61 -142 -165 -160 -158 -8 3 -13 2 -10 -3 7 -11 -154 -86 -502 -231 -219 -92 -296 -120 -305 -111 -6 6 -15 11 -21 11 -5 0 -2 -6 8 -13 17 -13 16 -14 -12 -26 -17 -7 -36 -10 -43 -5 -7 4 -10 3 -6 -3 9 -14 -288 -137 -304 -127 -7 4 -9 3 -6 -3 7 -10 -324 -155 -360 -157 -11 0 -19 -4 -17 -8 2 -3 -19 -15 -48 -26 -29 -11 -107 -43 -173 -71 -66 -28 -126 -49 -133 -46 -7 3 -11 1 -8 -4 8 -12 -261 -124 -275 -115 -7 4 -9 3 -6 -2 6 -10 -69 -43 -423 -189 -96 -40 -247 -102 -334 -139 -88 -37 -166 -64 -173 -62 -8 3 -11 2 -8 -3 7 -12 -31 -24 -46 -15 -7 4 -9 3 -6 -3 11 -18 -139 -55 -247 -60 -115 -6 -204 6 -315 43 -103 34 -342 154 -334 167 3 6 1 7 -5 3 -7 -4 -54 17 -104 47 -51 30 -166 94 -255 143 -89 48 -159 92 -156 98 3 5 1 6 -4 3 -6 -4 -42 11 -79 32 -38 21 -157 88 -264 148 -107 60 -307 173 -445 250 -137 77 -289 162 -337 189 -47 26 -84 53 -81 58 3 5 1 6 -5 2 -15 -9 -533 284 -525 297 4 6 1 7 -6 2 -8 -4 -47 14 -99 45 -115 70 -164 109 -158 126 3 8 0 13 -7 11 -7 -1 -11 4 -9 11 1 6 -3 11 -9 10 -14 -4 -60 82 -54 100 3 7 1 11 -4 8 -13 -8 -31 74 -31 141 0 88 48 242 71 227 5 -3 6 1 4 8 -3 8 9 30 27 50 l33 36 207 -116 c114 -64 204 -120 201 -125 -3 -6 -1 -7 6 -3 6 4 50 -15 99 -42 48 -28 111 -64 140 -80 34 -19 49 -32 40 -36 -7 -3 -4 -4 7 -1 23 5 99 -38 87 -50 -4 -4 -1 -5 5 -1 13 7 205 -93 198 -104 -2 -3 4 -6 14 -7 25 -2 82 -38 74 -47 -4 -4 1 -4 11 0 15 6 17 4 11 -6 -5 -8 -4 -11 2 -7 12 8 116 -46 107 -55 -3 -3 1 -5 8 -4 20 2 517 -278 511 -288 -4 -5 -1 -6 5 -2 14 8 145 -68 135 -79 -5 -4 -2 -5 5 -1 7 4 84 -33 190 -92 362 -204 550 -307 669 -368 67 -34 119 -64 116 -67 -3 -3 3 -4 14 -1 27 6 115 -20 124 -36 4 -8 17 -35 28 -60 29 -64 94 -127 162 -160 32 -15 57 -29 54 -31 -2 -2 40 0 93 4 135 11 131 10 126 19 -5 7 13 12 43 11 7 -1 10 3 7 8 -3 5 -1 9 5 9 5 0 107 41 226 90 119 50 221 87 227 84 7 -5 8 -2 3 6 -5 8 -3 11 6 8 8 -3 19 2 25 10 5 7 22 15 36 15 14 1 24 5 22 9 -2 3 13 12 33 19 21 7 116 45 212 86 95 41 180 72 188 69 8 -3 12 -2 9 3 -8 12 120 65 135 56 7 -5 10 -4 6 1 -6 11 325 156 360 158 11 0 19 4 17 7 -6 10 126 60 139 53 7 -4 9 -3 4 1 -9 10 353 166 371 160 7 -3 11 -1 8 3 -2 4 47 30 110 56 99 41 117 46 132 34 15 -11 16 -11 4 3 -10 14 -5 19 40 37 29 11 151 61 272 111 120 50 223 88 230 84 6 -3 8 -2 3 2 -9 11 114 66 133 59 8 -3 11 -2 7 2 -9 10 92 56 106 47 6 -3 7 -1 3 5 -4 7 -2 13 3 13 6 1 17 2 23 3 8 1 14 21 16 53 3 48 1 56 -26 83 -18 17 -25 31 -18 34 6 3 -5 2 -24 -1 -19 -3 -77 -23 -128 -45 -51 -21 -98 -36 -104 -32 -6 4 -8 3 -5 -2 3 -6 -121 -63 -276 -129 -155 -65 -361 -152 -457 -192 -96 -41 -180 -71 -188 -68 -7 2 -11 1 -8 -4 8 -12 -150 -75 -165 -65 -8 5 -9 3 -4 -6 6 -10 4 -12 -9 -7 -9 4 -15 3 -12 -1 7 -11 -552 -245 -565 -236 -7 4 -9 3 -6 -3 8 -13 -118 -67 -134 -57 -7 4 -9 3 -6 -3 9 -14 -48 -37 -64 -27 -7 4 -10 3 -6 -3 3 -5 -51 -33 -121 -62 -70 -29 -191 -80 -269 -113 -78 -33 -148 -56 -154 -52 -8 5 -9 3 -4 -6 6 -10 4 -12 -9 -7 -9 4 -14 3 -11 -2 3 -5 -5 -13 -17 -17 -13 -4 -92 -36 -176 -71 -84 -35 -158 -60 -164 -57 -6 4 -8 2 -5 -3 4 -7 -23 -22 -68 -38 -84 -31 -124 -30 -181 5 -45 29 -67 73 -68 138 -1 51 1 55 47 99 33 31 53 43 65 38 9 -3 13 -3 9 1 -10 10 73 46 90 39 8 -2 11 -1 8 4 -3 5 5 13 17 16 22 7 193 77 331 137 37 16 73 26 79 22 6 -4 8 -3 5 3 -6 9 137 69 160 67 7 -1 11 1 8 5 -6 11 244 113 257 105 6 -4 8 -3 5 3 -8 13 78 47 94 37 7 -4 9 -3 6 3 -4 6 27 23 71 41 42 17 153 62 246 102 142 59 171 69 185 58 14 -11 14 -11 4 3 -10 13 -7 17 25 29 20 7 105 42 189 77 84 36 158 61 164 57 7 -4 9 -3 6 3 -8 12 311 146 326 136 5 -3 7 -2 4 3 -6 10 9 18 109 58 65 26 700 291 777 325 27 12 54 18 59 14 6 -3 8 -2 5 4 -8 13 41 36 55 27 7 -5 8 -2 3 6 -6 10 -4 12 11 6 10 -4 15 -4 11 0 -4 4 12 20 35 36 l43 29 31 -36 c17 -19 45 -61 62 -93z"/>
<path d="M3760 6310 c-36 -5 -101 -17 -145 -27 -44 -9 -94 -17 -112 -17 -17 -1 -29 -3 -27 -5 2 -2 -59 -25 -136 -51 -150 -51 -181 -67 -206 -105 -31 -48 7 -129 66 -140 14 -3 62 12 114 34 114 47 137 56 207 75 187 52 383 72 559 57 141 -13 292 -40 285 -51 -3 -5 3 -6 12 -4 31 8 478 -147 466 -161 -5 -4 -3 -5 3 -2 6 4 59 -4 117 -17 160 -37 308 -50 485 -43 192 7 325 32 504 94 73 25 141 46 150 46 9 1 15 3 13 6 -8 7 56 42 66 35 5 -3 8 -2 7 3 -1 4 4 19 11 32 18 32 8 98 -18 124 -28 29 -75 25 -147 -10 -184 -91 -430 -143 -682 -143 -178 0 -321 24 -510 86 -128 41 -141 48 -130 63 11 14 11 14 -4 3 -14 -11 -27 -9 -82 10 -43 15 -61 25 -53 31 8 6 6 7 -6 3 -10 -3 -59 5 -110 19 -51 13 -135 31 -187 40 -111 19 -417 28 -510 15z"/>
<path d="M7025 7111 c-54 -55 -102 -98 -105 -96 -4 2 -7 -1 -8 -8 -14 -91 -14 -93 13 -125 22 -27 34 -32 69 -32 40 0 47 5 146 104 57 58 110 117 118 131 31 60 -17 125 -92 125 -40 0 -47 -5 -141 -99z"/>
<path d="M8156 7189 c-30 -24 -36 -80 -11 -115 8 -12 11 -25 7 -29 -4 -5 -2 -5 4 -2 6 3 55 -39 110 -94 93 -93 101 -99 140 -99 76 0 122 66 89 129 -8 16 -11 32 -7 37 4 5 3 6 -2 1 -13 -10 -127 103 -119 117 3 6 3 8 -2 4 -4 -4 -28 11 -53 32 -37 33 -52 40 -87 40 -28 0 -51 -7 -69 -21z"/>
<path d="M7690 7040 c12 -8 9 -10 -12 -10 -17 0 -34 -10 -47 -26 -20 -25 -21 -39 -21 -228 l0 -202 29 -28 c32 -30 77 -37 116 -16 44 23 50 59 47 260 -3 204 -9 226 -63 237 -16 3 -32 10 -35 14 -3 5 -11 9 -17 9 -7 0 -6 -4 3 -10z"/>
</g>
</svg>
