<?xml version="1.0" standalone="no"?>
<!DOCTYPE svg PUBLIC "-//W3C//DTD SVG 20010904//EN"
 "http://www.w3.org/TR/2001/REC-SVG-20010904/DTD/svg10.dtd">
<svg version="1.0" xmlns="http://www.w3.org/2000/svg"
 width="1024.000000pt" height="1024.000000pt" viewBox="0 0 1024.000000 1024.000000"
 preserveAspectRatio="xMidYMid meet">
<metadata>
Created by potrace 1.16, written by Peter Selinger 2001-2019
</metadata>
<g transform="translate(0.000000,1024.000000) scale(0.100000,-0.100000)"
fill="#000000" stroke="none">
<path d="M3492 8129 c-9 -3 -55 -9 -102 -13 -47 -4 -113 -14 -148 -22 -34 -7
-66 -13 -70 -12 -4 0 -14 -2 -22 -5 -40 -16 -123 -36 -131 -31 -5 3 -9 1 -9
-4 0 -11 -70 -33 -83 -25 -6 4 -7 1 -2 -7 6 -10 4 -12 -8 -7 -10 3 -17 3 -17
-1 0 -5 -17 -14 -37 -21 -21 -8 -60 -24 -88 -37 -27 -13 -57 -24 -65 -26 -8
-2 -21 -9 -28 -16 -8 -7 -17 -10 -22 -7 -5 3 -10 2 -12 -3 -4 -10 -211 -127
-220 -124 -5 1 -8 -2 -8 -6 0 -10 -109 -87 -123 -87 -10 0 -17 -20 -21 -65 -2
-20 14 -38 88 -100 50 -41 104 -88 121 -105 16 -16 34 -28 38 -27 4 1 10 -5
13 -13 3 -8 9 -13 13 -10 4 2 22 -9 39 -25 18 -16 32 -26 32 -23 0 6 72 -47
81 -60 3 -5 10 -9 15 -10 5 -1 8 -10 7 -19 -2 -10 2 -18 7 -18 6 0 10 8 10 18
0 13 2 14 9 4 4 -7 14 -15 22 -16 32 -6 69 -30 69 -45 0 -14 2 -14 10 -1 7 11
10 11 10 2 0 -7 5 -10 10 -7 6 3 10 1 10 -5 0 -6 5 -8 10 -5 6 3 10 1 10 -4 0
-6 3 -10 8 -9 15 3 62 -15 62 -24 0 -5 4 -7 9 -4 8 5 90 -22 101 -34 3 -3 10
-5 15 -6 32 -2 96 -18 100 -24 3 -5 14 -6 25 -3 11 3 20 1 20 -4 0 -5 14 -8
30 -5 17 2 30 0 30 -4 0 -11 22 -12 240 -12 91 -1 215 5 275 12 61 7 122 12
137 12 14 -1 24 3 21 7 -3 5 8 7 23 6 16 -2 34 0 40 4 7 4 34 9 60 11 27 2 57
7 67 11 10 4 21 5 24 1 3 -3 12 -1 18 4 11 9 61 19 118 23 9 1 17 5 17 10 0 5
9 7 20 4 12 -3 18 -1 14 5 -5 7 2 9 20 6 14 -3 26 -1 26 4 0 6 7 8 15 4 8 -3
15 -1 15 5 0 6 7 9 15 6 8 -4 17 -2 21 4 4 6 11 6 20 -2 12 -10 15 -10 12 2
-2 8 3 13 10 12 6 -2 12 2 12 8 0 6 7 9 15 6 8 -4 17 -1 21 5 5 7 11 3 16 -12
10 -27 1 -41 -13 -20 -9 13 -10 12 -6 -2 3 -9 1 -19 -6 -22 -7 -4 1 -4 16 -1
19 4 26 2 22 -5 -3 -5 -1 -10 5 -10 6 0 8 -4 5 -10 -3 -5 -1 -10 5 -10 6 0 8
-4 5 -10 -3 -5 -2 -10 2 -10 13 0 33 -59 22 -66 -5 -3 -9 -11 -9 -17 0 -9 2
-9 8 -1 5 9 11 8 20 -2 7 -8 10 -14 6 -14 -3 0 -1 -6 5 -14 9 -11 -22 -14
-191 -20 -225 -8 -245 -9 -271 -21 -10 -4 -21 -5 -24 -1 -3 3 -12 1 -19 -5 -8
-6 -21 -9 -29 -5 -8 3 -15 0 -15 -5 0 -6 -9 -9 -20 -6 -11 3 -20 2 -20 -2 0
-6 -78 -29 -125 -37 -5 -1 -13 -3 -17 -4 -5 -1 -11 -3 -15 -4 -5 -1 -14 -5
-20 -9 -7 -5 -13 -5 -13 0 0 4 -4 3 -8 -3 -4 -5 -34 -21 -67 -34 -33 -13 -95
-41 -137 -62 -43 -21 -78 -34 -78 -28 0 5 -4 10 -10 10 -5 0 -7 -6 -4 -13 3
-8 -18 -24 -53 -42 -31 -17 -63 -34 -69 -40 -11 -10 -178 -129 -210 -150 -9
-5 -41 -34 -72 -62 -31 -29 -60 -53 -64 -53 -4 0 -42 -37 -85 -82 -43 -46 -99
-104 -124 -130 -25 -27 -44 -48 -42 -48 3 0 -13 -21 -34 -47 -166 -201 -316
-460 -404 -698 -19 -49 -37 -92 -41 -93 -5 -2 -6 -7 -3 -11 4 -8 -26 -126 -41
-161 -4 -8 -6 -25 -5 -37 1 -13 -3 -23 -9 -23 -6 0 -9 -4 -6 -8 3 -5 1 -33 -4
-63 -14 -77 -20 -138 -20 -183 1 -59 -10 -102 -22 -85 -7 10 -8 9 -3 -6 14
-40 18 -132 6 -139 -6 -4 -10 -22 -10 -39 l2 -32 6 35 c7 33 8 31 14 -25 3
-33 6 -67 7 -75 0 -8 3 -33 6 -55 3 -22 7 -51 9 -65 1 -14 5 -32 9 -40 3 -8 8
-28 10 -45 2 -16 6 -37 10 -46 4 -9 8 -27 10 -40 2 -13 7 -33 11 -44 50 -129
63 -170 58 -178 -3 -6 -1 -7 5 -3 7 4 12 3 12 -3 0 -5 -8 -15 -17 -21 -15 -9
-14 -10 6 -4 20 5 23 3 18 -10 -4 -10 -3 -15 1 -12 10 6 42 -56 42 -79 0 -8 5
-15 11 -15 8 0 7 -5 -1 -15 -11 -13 -10 -14 6 -8 17 6 17 5 5 -10 -12 -15 -12
-17 2 -11 11 4 21 -4 32 -25 8 -17 15 -34 14 -37 0 -4 6 -11 15 -16 9 -5 14
-13 11 -19 -4 -5 -2 -9 3 -9 9 0 69 -79 70 -93 1 -5 12 -17 27 -28 14 -12 23
-24 20 -29 -3 -5 -1 -11 3 -14 5 -3 10 -43 11 -88 1 -46 4 -102 7 -125 4 -29
3 -43 -5 -43 -6 0 -11 -4 -11 -10 0 -5 7 -7 15 -4 9 4 15 0 15 -9 0 -20 -17
-31 -23 -15 -2 7 -5 -4 -5 -24 0 -26 4 -38 14 -38 10 0 13 7 8 25 -4 16 -2 25
6 25 7 0 10 -7 6 -15 -3 -8 -1 -15 5 -15 6 0 9 -7 5 -15 -3 -8 0 -15 6 -15 6
0 9 -3 5 -6 -3 -3 5 -18 18 -32 13 -14 23 -28 21 -31 -1 -3 8 -16 21 -28 13
-12 23 -20 23 -18 0 2 16 -7 36 -20 20 -14 53 -29 73 -35 65 -18 204 -22 336
-10 165 16 167 16 187 25 9 4 22 4 28 0 6 -4 17 -2 24 5 8 6 29 12 47 14 19 2
42 7 52 11 10 4 21 5 24 1 3 -3 12 -1 20 6 7 6 16 8 20 5 3 -4 11 -2 18 3 6 5
27 11 46 12 19 2 36 6 39 10 3 3 21 9 40 11 19 3 35 6 35 7 0 2 9 4 20 5 11 2
40 10 64 19 24 9 47 14 51 11 5 -3 11 1 13 7 4 9 15 2 34 -18 15 -17 32 -33
38 -35 5 -2 9 -7 8 -11 -2 -5 0 -7 5 -6 10 4 102 -61 102 -72 0 -6 6 -9 13 -7
7 1 11 -6 9 -18 -2 -14 0 -16 6 -8 6 10 12 10 27 -1 17 -12 18 -16 5 -32 -14
-18 -13 -18 8 0 20 17 27 15 23 -7 0 -4 8 -7 19 -7 11 0 29 -9 40 -20 11 -11
21 -20 23 -19 7 3 57 -26 57 -33 0 -5 -5 -6 -12 -2 -7 5 -8 3 -3 -5 5 -8 11
-9 17 -3 10 10 95 -31 110 -52 4 -6 8 -8 8 -4 0 9 163 -62 172 -76 4 -6 8 -8
8 -4 0 4 29 -3 64 -16 83 -32 276 -86 304 -86 12 0 22 -4 22 -9 0 -5 9 -7 20
-4 11 3 20 1 20 -5 0 -6 10 -9 21 -7 12 3 26 2 31 -1 5 -4 42 -8 81 -11 40 -2
84 -10 99 -18 15 -7 30 -10 33 -7 3 4 81 7 172 9 92 1 217 7 278 14 60 6 121
13 135 14 14 1 33 6 42 10 9 4 21 4 26 1 6 -3 23 1 38 9 16 8 36 15 44 15 8 0
62 13 119 30 57 16 108 27 112 24 5 -3 9 0 9 6 0 7 7 10 15 6 8 -3 15 -1 15 5
0 6 7 9 15 5 8 -3 15 -2 15 2 0 8 116 57 150 64 8 2 17 6 20 9 13 17 141 67
158 62 11 -2 23 0 26 5 4 6 -2 8 -14 5 -30 -8 -24 4 10 22 17 9 30 13 30 10 0
-2 9 3 20 13 12 9 22 15 23 12 1 -2 12 5 25 15 12 11 24 18 25 15 1 -3 16 7
32 23 16 15 35 27 41 27 7 0 15 7 18 16 3 8 10 13 15 10 5 -4 11 -2 13 2 3 10
168 144 168 138 0 -3 48 46 106 107 59 62 115 119 125 129 11 9 19 19 19 21 0
11 108 156 112 151 3 -2 5 2 5 9 0 6 25 53 55 102 84 140 184 359 203 445 4
17 11 30 16 30 6 0 8 4 5 9 -4 5 -1 22 5 38 7 15 11 36 10 46 -1 9 3 17 9 17
6 0 8 4 5 10 -3 5 0 29 6 52 7 24 12 46 11 50 -1 4 3 28 8 55 5 26 12 91 15
143 3 52 10 109 14 125 5 17 7 44 5 60 -20 165 -33 309 -29 313 3 3 1 10 -4
16 -5 6 -11 31 -13 56 -1 25 -6 48 -11 51 -4 3 -8 24 -10 46 -1 23 -4 40 -7
38 -3 -2 -25 61 -50 138 -24 78 -47 144 -50 147 -8 6 -33 67 -31 75 1 3 -5 13
-14 21 -8 9 -13 20 -10 25 4 5 1 9 -6 9 -8 0 -8 4 1 15 11 13 10 15 -1 11 -8
-3 -25 10 -40 33 -32 45 -89 75 -133 68 -46 -8 -60 -11 -66 -17 -12 -14 -100
-60 -100 -53 0 4 -4 3 -8 -3 -18 -26 -56 -43 -69 -32 -10 8 -12 8 -8 -3 4 -10
-18 -28 -70 -57 -41 -23 -81 -43 -88 -45 -6 -1 -14 -5 -17 -8 -10 -13 -194
-112 -207 -112 -7 0 -13 -3 -13 -7 0 -3 -17 -16 -38 -28 -30 -17 -41 -19 -51
-9 -10 9 -11 9 -6 -3 3 -10 -7 -22 -32 -35 -20 -11 -39 -18 -41 -17 -3 2 -8 0
-11 -5 -8 -11 -252 -150 -271 -155 -8 -2 -17 -6 -20 -9 -10 -12 -175 -102
-187 -102 -7 0 -13 -3 -13 -7 0 -9 -80 -53 -80 -43 0 4 -4 3 -8 -3 -9 -14
-102 -68 -102 -60 0 4 -10 -2 -22 -13 -11 -11 -25 -18 -30 -15 -4 3 -8 0 -8
-6 0 -6 -4 -8 -10 -5 -5 3 -10 2 -10 -2 0 -10 -70 -49 -82 -46 -4 2 -8 -1 -8
-5 0 -12 -76 -53 -84 -45 -3 3 -6 2 -6 -3 0 -12 -80 -59 -80 -47 0 4 -4 3 -8
-2 -13 -19 -62 -46 -62 -34 0 17 37 59 45 51 5 -4 5 -2 1 5 -7 13 13 63 26 63
4 0 7 3 6 8 -3 12 25 82 34 82 4 0 7 3 6 8 -4 12 24 102 33 108 4 2 6 11 3 18
-3 8 -1 17 5 20 6 4 8 13 5 20 -3 8 -1 17 4 20 6 3 8 15 5 25 -3 10 0 22 6 25
6 4 8 20 4 36 -3 17 -1 30 4 30 10 0 10 3 12 220 1 161 -3 236 -14 263 -4 9
-5 24 -2 32 4 8 1 17 -4 21 -6 3 -9 17 -6 30 2 13 1 25 -2 26 -6 3 -50 182
-54 218 -1 8 -4 17 -7 20 -11 10 -49 120 -42 120 4 0 2 4 -4 8 -6 4 -28 43
-49 87 -21 44 -46 91 -55 105 -9 14 -32 48 -50 75 -18 28 -61 81 -94 120 -34
38 -54 65 -46 60 8 -4 4 4 -9 18 -26 29 -37 35 -24 15 4 -7 -18 10 -50 37 -31
28 -57 54 -57 58 0 5 -5 5 -10 2 -6 -3 -13 1 -16 9 -3 9 -12 16 -20 16 -8 0
-23 9 -34 20 -11 11 -22 20 -25 20 -3 0 -9 0 -13 0 -5 0 -19 10 -32 23 -14 12
-27 21 -30 20 -9 -4 -70 21 -70 29 0 4 -3 7 -7 6 -15 -3 -83 14 -79 21 2 3
-10 7 -26 8 -17 1 -36 8 -44 14 -15 12 -106 197 -107 217 0 6 -4 12 -9 12 -4
0 -7 3 -6 8 1 4 -3 17 -10 30 -7 12 -9 22 -5 22 4 0 2 5 -5 12 -7 7 -12 20
-12 30 0 10 -5 18 -11 18 -6 0 -9 6 -6 13 2 6 10 11 16 9 7 -1 10 2 7 6 -3 5
4 18 17 28 19 16 20 17 8 1 -8 -10 42 38 111 105 68 68 201 196 295 286 95 89
170 162 167 162 -3 0 -1 8 4 17 14 24 -21 75 -60 89 -29 10 -36 8 -54 -10
-105 -107 -325 -318 -320 -306 4 8 -4 2 -19 -15 -67 -77 -190 -194 -197 -187
-4 4 -9 16 -11 27 -8 39 -69 160 -111 219 -51 71 -235 249 -236 228 0 -4 -7 2
-15 12 -8 11 -15 17 -15 12 0 -8 -94 45 -98 56 -2 5 -9 5 -15 1 -7 -4 -8 0 -3
13 5 15 4 16 -5 7 -12 -12 -56 1 -70 20 -3 5 -9 8 -13 7 -14 -4 -106 24 -106
32 0 5 -4 6 -10 3 -5 -3 -15 -3 -22 1 -7 4 -21 9 -32 10 -81 7 -146 18 -146
23 0 3 -21 7 -47 7 -27 1 -85 3 -131 5 -46 2 -91 1 -100 -2z m306 -157 c1 -5
11 -8 21 -5 10 3 22 0 25 -6 4 -6 2 -11 -5 -11 -7 0 -9 -3 -6 -6 4 -4 13 -1
21 5 11 9 29 8 80 -6 36 -9 66 -21 66 -25 0 -4 7 -5 15 -2 8 4 15 1 15 -6 0
-6 4 -9 8 -6 8 5 112 -39 122 -52 3 -4 11 -8 18 -10 22 -4 92 -54 92 -65 0 -6
3 -7 7 -3 7 7 24 -8 89 -74 42 -42 64 -69 64 -76 0 -3 6 -11 13 -19 29 -31 45
-54 40 -59 -6 -6 -96 35 -101 47 -2 4 -8 5 -13 1 -5 -3 -9 0 -9 7 0 7 -3 9 -6
6 -4 -3 -16 -1 -28 5 -11 7 -24 11 -28 10 -5 -1 -8 3 -8 10 0 6 -3 9 -6 5 -6
-6 -174 51 -184 62 -3 3 -18 7 -35 8 -16 1 -31 7 -33 12 -2 5 -12 7 -22 4 -11
-3 -20 -1 -20 5 0 6 -9 8 -20 5 -11 -3 -20 0 -20 6 0 6 5 11 12 11 6 0 9 3 6
6 -3 3 -16 -1 -28 -8 -18 -10 -24 -10 -27 -1 -3 8 -14 11 -28 7 -12 -3 -26 -1
-30 5 -3 6 -10 9 -15 6 -4 -3 -37 -1 -72 5 -72 11 -385 14 -411 4 -10 -3 -31
-4 -47 0 -18 3 -30 1 -30 -5 0 -6 -12 -9 -28 -8 -15 2 -32 1 -37 -3 -25 -14
-87 -19 -101 -7 -12 10 -13 9 -8 -6 6 -15 3 -17 -12 -13 -11 3 -25 -1 -32 -9
-7 -7 -17 -11 -23 -8 -5 4 -9 -1 -9 -9 0 -9 -5 -16 -10 -16 -13 0 -8 -35 9
-70 9 -19 21 -27 44 -28 17 -2 34 -7 38 -13 4 -7 9 -4 13 6 3 10 12 15 21 11
8 -3 17 0 21 5 3 6 15 9 25 6 10 -3 22 -1 25 5 3 5 16 8 27 7 12 -1 31 2 41 6
34 15 413 11 514 -4 50 -8 92 -18 92 -22 0 -4 9 -5 20 -2 12 3 20 0 20 -6 0
-7 5 -9 10 -6 9 6 54 -4 100 -22 8 -4 21 -5 28 -4 6 1 12 -3 12 -9 0 -6 4 -9
9 -5 5 3 12 1 16 -4 3 -6 12 -8 20 -4 8 3 15 1 15 -3 0 -5 10 -10 23 -10 12
-1 49 -14 82 -30 33 -15 62 -28 65 -29 32 -8 50 -18 50 -26 0 -6 5 -7 10 -4 6
3 10 1 10 -5 0 -6 4 -9 9 -5 5 3 16 -1 24 -9 8 -8 17 -12 21 -9 3 4 6 1 6 -6
0 -7 5 -9 10 -6 6 3 10 1 10 -4 0 -6 3 -10 8 -9 15 4 50 -13 56 -27 3 -10 -1
-15 -13 -15 -14 0 -18 -5 -14 -19 4 -16 -4 -22 -47 -35 -29 -9 -56 -13 -61
-10 -5 3 -9 1 -9 -4 0 -9 -46 -22 -95 -27 -11 -1 -28 -6 -38 -10 -10 -4 -21
-5 -24 -1 -3 3 -12 1 -19 -5 -8 -6 -21 -9 -29 -5 -8 3 -15 0 -15 -5 0 -6 -9
-9 -20 -6 -11 3 -22 1 -25 -4 -4 -5 -16 -8 -28 -8 -12 0 -41 -4 -63 -10 -23
-6 -68 -12 -100 -15 -33 -2 -67 -7 -77 -11 -10 -4 -33 -5 -52 -2 -19 3 -35 2
-35 -3 0 -10 -409 -12 -425 -2 -5 3 -19 6 -30 7 -11 1 -35 2 -52 3 -40 2 -44
21 -5 23 24 2 24 2 4 6 -13 3 -29 0 -36 -6 -14 -12 -76 -4 -76 10 0 5 -7 6
-15 3 -8 -4 -15 -2 -15 4 0 5 -6 9 -12 9 -22 -2 -98 26 -98 35 0 5 -4 6 -10 3
-5 -3 -10 -1 -10 5 0 6 -4 9 -9 5 -5 -3 -15 0 -23 7 -7 7 -20 14 -28 16 -8 2
-17 7 -20 10 -3 4 -11 8 -19 10 -25 5 -101 53 -101 64 0 5 -5 6 -10 3 -6 -3
-13 1 -16 9 -3 9 -10 13 -15 10 -5 -3 -12 2 -15 10 -3 9 -9 14 -13 11 -4 -2
-22 9 -39 25 -18 16 -32 26 -32 22 -1 -4 -9 3 -19 15 -10 12 -20 20 -23 18 -2
-2 -25 15 -50 39 -26 24 -50 41 -53 37 -3 -3 -3 3 1 14 6 14 4 17 -9 12 -9 -3
-19 -2 -21 2 -7 10 27 41 80 74 32 20 44 23 53 14 9 -9 11 -8 6 4 -4 12 10 24
55 48 33 18 60 29 60 26 0 -4 7 1 16 9 8 9 20 14 25 11 5 -4 9 -2 9 3 0 8 88
48 120 54 8 2 17 6 20 10 3 3 14 8 25 10 11 1 22 6 25 9 9 10 132 49 140 44 5
-3 10 -1 12 5 3 9 63 22 101 21 9 0 17 4 17 8 0 9 58 20 141 26 28 2 54 7 58
11 10 11 365 -2 369 -14z m914 -1181 c20 0 39 -5 43 -10 3 -6 12 -8 19 -5 8 3
17 1 20 -4 3 -6 15 -8 26 -5 12 3 20 0 20 -7 0 -7 8 -10 20 -7 11 3 20 1 20
-5 0 -5 4 -7 10 -3 14 8 82 -23 75 -35 -3 -5 0 -10 7 -10 9 0 9 -3 -2 -10 -8
-5 -11 -10 -6 -10 5 0 17 6 25 14 14 13 20 13 49 -1 17 -8 32 -20 32 -25 0 -5
5 -6 10 -3 6 3 10 1 10 -4 0 -15 -6 -14 -33 4 -21 13 -23 13 -23 -3 0 -20 41
-28 61 -12 8 7 20 3 38 -14 14 -13 28 -21 31 -19 3 3 8 -2 12 -11 3 -9 12 -16
19 -16 7 0 23 -12 35 -27 12 -16 19 -22 15 -15 -11 22 0 13 65 -54 36 -37 58
-63 50 -59 -8 4 -3 -3 12 -16 35 -31 149 -199 142 -210 -3 -5 -1 -9 5 -9 9 0
23 -30 18 -41 -1 -3 6 -13 16 -23 15 -15 19 -29 16 -52 0 -4 4 -10 9 -13 14
-9 74 -182 68 -198 -3 -7 -1 -13 4 -13 11 0 34 -106 26 -119 -4 -5 -2 -11 4
-13 20 -6 39 -328 20 -328 -6 0 -8 -5 -5 -10 10 -15 16 -120 9 -132 -4 -6 -8
-35 -10 -65 -1 -29 -7 -59 -13 -67 -6 -7 -8 -15 -5 -18 3 -4 -7 -47 -22 -98
-21 -69 -31 -90 -42 -85 -12 4 -12 3 -3 -9 9 -11 3 -31 -30 -95 -23 -44 -46
-81 -51 -81 -5 0 -6 -4 -3 -10 3 -5 1 -10 -4 -10 -6 0 -10 -3 -9 -7 2 -5 -8
-34 -21 -66 -17 -41 -26 -54 -32 -45 -6 9 -9 6 -9 -10 0 -12 3 -21 8 -20 4 2
8 0 10 -4 1 -5 -1 -8 -4 -7 -4 0 -10 -3 -13 -8 -10 -16 -118 -72 -125 -66 -3
4 -6 1 -6 -6 0 -7 -4 -9 -10 -6 -5 3 -10 0 -11 -7 0 -10 -2 -10 -6 0 -2 6 -12
12 -21 11 -11 0 -12 -2 -4 -6 20 -8 14 -22 -18 -38 -16 -9 -30 -13 -30 -10 0
4 -7 -1 -16 -9 -8 -9 -20 -13 -26 -10 -6 4 -8 3 -5 -3 10 -16 -38 -34 -52 -20
-9 9 -11 8 -7 -3 5 -11 -20 -30 -91 -69 -54 -30 -103 -54 -110 -54 -7 0 -13
-4 -13 -9 0 -5 -4 -6 -10 -3 -5 3 -10 2 -10 -3 0 -10 -140 -88 -152 -84 -5 1
-8 -2 -8 -8 0 -12 -95 -61 -104 -53 -3 4 -6 2 -6 -4 0 -12 -114 -75 -124 -68
-3 3 -4 2 -1 -2 3 -3 -55 -39 -127 -79 -99 -54 -136 -70 -146 -62 -9 8 -11 7
-7 -4 8 -21 -67 -62 -84 -45 -10 9 -11 8 -5 -7 5 -13 4 -17 -4 -12 -7 4 -12 3
-12 -1 0 -10 -70 -49 -82 -45 -4 1 -8 -3 -8 -9 0 -5 -4 -7 -10 -4 -5 3 -10 2
-10 -3 0 -13 -135 -83 -144 -75 -3 4 -6 2 -6 -3 0 -13 -75 -55 -84 -47 -3 3
-6 1 -6 -5 0 -7 -7 -12 -15 -12 -9 0 -20 -12 -26 -27 -8 -22 -12 -24 -19 -13
-6 8 -10 10 -10 5 0 -6 6 -17 13 -24 10 -11 10 -13 0 -7 -8 5 -13 1 -13 -9 0
-10 5 -15 14 -12 9 4 18 -8 26 -36 8 -23 13 -46 12 -50 -2 -5 1 -6 6 -3 8 5
38 -47 40 -67 0 -5 9 -15 19 -23 10 -7 15 -14 11 -14 -6 0 11 -21 82 -103 19
-23 28 -37 20 -33 -8 4 -2 -4 13 -19 l29 -26 -26 5 c-14 3 -26 1 -26 -4 0 -7
-47 -20 -95 -26 -5 0 -18 -4 -28 -9 -10 -4 -21 -5 -24 -1 -3 3 -11 2 -17 -3
-16 -14 -274 -63 -286 -56 -6 4 -17 1 -25 -5 -8 -7 -26 -9 -40 -6 -16 4 -25 2
-25 -5 0 -7 -13 -10 -35 -7 -19 2 -35 0 -35 -4 0 -4 -52 -8 -115 -8 -71 0
-115 4 -115 10 0 6 -11 8 -25 4 -17 -4 -25 -2 -25 7 0 7 -3 9 -6 6 -10 -10
-64 25 -85 55 -26 35 -48 144 -43 205 3 31 1 43 -5 34 -6 -9 -10 19 -13 80
l-3 94 -77 95 c-42 52 -75 96 -73 98 1 2 -8 15 -21 29 -13 14 -21 29 -18 34 3
5 0 9 -6 9 -6 0 -8 5 -5 10 3 6 2 10 -3 10 -8 0 -82 139 -86 163 -1 6 -7 22
-14 34 -7 12 -13 30 -15 40 -1 10 -5 23 -8 28 -14 23 -41 117 -35 122 3 3 1
12 -6 20 -6 7 -8 16 -5 20 4 3 2 12 -4 20 -6 7 -9 22 -6 33 3 11 2 20 -3 20
-20 0 -32 297 -21 525 2 34 23 159 29 169 3 5 6 25 8 45 2 20 8 37 13 39 5 2
7 12 4 22 -3 12 0 20 6 20 7 0 10 4 7 9 -6 9 71 241 83 251 3 3 7 12 9 20 13
60 221 420 244 420 5 0 7 4 3 9 -3 5 5 17 17 25 12 9 19 16 14 16 -13 0 73
106 153 187 22 23 41 46 41 51 0 22 343 327 364 324 3 -1 20 12 38 28 30 28
41 34 53 28 2 -2 11 6 19 17 9 11 16 16 16 11 0 -6 6 -2 13 7 16 21 162 99
170 90 4 -3 7 -2 7 4 0 11 132 70 172 77 13 3 24 5 26 5 1 1 5 1 8 0 4 0 10 4
13 9 8 12 112 42 123 36 5 -3 15 -1 22 5 8 7 18 11 22 10 5 -1 20 1 34 4 41
10 93 19 128 22 18 1 35 5 38 8 4 3 79 4 168 2 88 -2 178 -4 198 -4z m2877
-1244 c6 -8 8 -17 4 -20 -3 -4 -1 -7 6 -7 7 0 9 -4 6 -10 -3 -5 -1 -10 5 -10
6 0 8 -4 5 -10 -3 -5 -1 -10 5 -10 6 0 8 -4 5 -10 -3 -5 -2 -10 3 -10 10 0 35
-54 35 -76 0 -8 3 -14 7 -14 9 0 61 -143 63 -171 1 -10 5 -19 10 -19 5 0 7 -9
4 -20 -3 -11 -2 -20 2 -20 10 0 33 -99 26 -110 -3 -5 0 -10 6 -12 7 -2 9 -13
5 -26 -4 -13 -12 -19 -18 -16 -7 4 -8 2 -4 -4 4 -6 13 -9 20 -6 17 6 32 -103
42 -301 3 -64 -1 -138 -11 -205 -8 -58 -15 -120 -15 -137 0 -18 -4 -33 -9 -33
-6 0 -8 -7 -5 -15 4 -8 1 -21 -5 -29 -6 -7 -8 -15 -5 -19 6 -6 -26 -128 -35
-137 -3 -3 -7 -18 -9 -35 -4 -37 -10 -44 -22 -25 -6 8 -10 10 -10 5 0 -6 6
-17 13 -24 9 -10 9 -15 0 -18 -7 -2 -9 -11 -6 -19 3 -8 0 -14 -6 -14 -6 0 -11
8 -12 18 0 11 -2 12 -6 4 -3 -7 0 -18 5 -25 17 -21 -123 -325 -161 -349 -7 -4
-8 -8 -4 -8 12 0 -94 -150 -169 -240 -59 -71 -245 -259 -230 -233 4 7 -16 -10
-44 -37 -28 -28 -55 -48 -60 -45 -4 3 -10 -1 -13 -9 -6 -16 -106 -82 -119 -78
-4 1 -8 -2 -8 -7 0 -11 -50 -44 -67 -44 -7 0 -13 -4 -13 -9 0 -5 -4 -6 -10 -3
-5 3 -10 2 -10 -3 0 -9 -50 -37 -62 -34 -5 1 -8 -3 -8 -9 0 -5 -4 -7 -10 -4
-5 3 -10 1 -10 -6 0 -8 -4 -8 -15 1 -8 7 -13 16 -10 20 3 5 1 11 -4 14 -5 3
-11 -3 -14 -14 -3 -11 0 -18 5 -17 6 1 13 -4 16 -12 3 -10 0 -12 -12 -8 -9 4
-15 3 -12 -2 7 -10 -187 -93 -221 -95 -13 0 -23 -4 -23 -8 0 -6 -45 -20 -75
-24 -5 0 -23 -6 -38 -13 -16 -6 -33 -9 -38 -5 -5 3 -9 0 -9 -7 0 -6 -8 -9 -20
-6 -11 3 -20 1 -20 -5 0 -6 -9 -8 -20 -5 -11 3 -20 1 -20 -5 0 -5 -8 -8 -17
-7 -10 1 -25 -1 -33 -4 -28 -10 -151 -28 -160 -22 -5 3 -12 1 -15 -5 -4 -6
-23 -11 -43 -11 -20 -1 -68 -2 -107 -4 -162 -7 -420 -5 -423 4 -2 5 -21 7 -42
4 -22 -3 -40 -2 -40 3 0 5 -23 10 -51 11 -28 1 -56 6 -63 12 -7 6 -16 8 -19 4
-4 -3 -13 -1 -20 5 -8 7 -17 9 -20 6 -3 -3 -11 -2 -18 2 -7 4 -27 9 -44 11
-16 2 -32 8 -33 13 -2 6 -8 8 -13 4 -5 -3 -15 -2 -21 2 -7 5 -19 9 -28 9 -27
3 -90 29 -90 38 0 4 -4 6 -9 3 -11 -7 -71 13 -71 25 0 4 -6 6 -14 3 -7 -3 -20
1 -27 8 -8 7 -23 15 -33 16 -29 5 -116 53 -116 64 0 5 4 7 8 4 5 -3 9 1 9 9 0
13 -4 12 -19 -2 -12 -10 -18 -12 -18 -4 0 7 -4 10 -9 7 -9 -6 -104 51 -109 65
-2 5 -8 7 -13 3 -5 -3 -12 2 -15 10 -3 9 -10 14 -14 11 -4 -2 -19 6 -33 19
-14 13 -27 22 -30 20 -2 -2 -20 11 -40 30 -20 18 -38 31 -41 29 -2 -2 -13 7
-24 21 -11 15 -23 26 -28 26 -24 0 -272 271 -267 291 2 5 -1 9 -6 9 -10 0 -68
89 -63 97 2 3 -1 9 -7 12 -7 5 -4 15 10 29 11 12 24 20 30 17 5 -4 9 -2 9 4 0
9 25 21 43 21 4 -1 15 6 23 15 9 8 24 15 34 15 10 0 21 7 24 16 6 15 8 15 25
-2 10 -10 17 -22 15 -25 -2 -4 3 -9 11 -13 8 -3 15 -11 15 -18 0 -7 9 -19 20
-26 11 -7 20 -17 20 -22 0 -5 21 -31 47 -57 27 -25 39 -40 28 -32 -11 7 5 -10
35 -39 30 -28 57 -52 61 -52 3 0 22 -18 43 -40 20 -22 40 -40 44 -40 5 0 23
-16 42 -35 19 -19 41 -35 48 -35 6 0 12 -4 12 -10 0 -5 4 -10 9 -10 15 0 111
-62 111 -71 0 -5 6 -9 14 -9 8 0 22 -7 30 -16 9 -8 16 -13 16 -9 0 3 14 -2 30
-12 17 -9 30 -21 30 -26 0 -4 5 -5 12 -1 8 5 9 2 4 -11 -5 -14 -4 -15 7 -7 17
14 42 -1 34 -22 -4 -10 -1 -16 8 -16 9 0 12 6 9 15 -5 12 -1 13 25 4 17 -6 31
-15 31 -21 0 -5 5 -6 10 -3 6 3 10 1 10 -5 0 -6 5 -8 10 -5 6 3 10 1 10 -5 0
-6 4 -9 9 -6 15 10 41 -5 41 -23 0 -14 2 -14 10 -1 6 9 13 11 18 5 4 -5 15
-11 26 -13 10 -2 30 -8 45 -14 14 -6 32 -10 39 -9 6 1 12 -3 12 -9 0 -6 4 -9
9 -6 5 3 33 -2 62 -11 30 -9 59 -17 64 -18 6 -1 15 -3 20 -5 6 -1 22 -1 38 0
32 2 37 -17 5 -23 -13 -2 -9 -3 7 0 17 2 35 4 40 4 6 0 78 -2 160 -6 95 -5
197 -3 280 5 175 16 177 17 198 25 9 4 24 5 32 1 8 -3 15 -1 15 5 0 6 9 8 19
4 11 -3 22 -1 26 5 4 6 13 9 21 6 7 -3 16 -1 20 5 3 6 12 8 20 5 8 -3 14 -1
14 3 0 5 16 9 36 8 19 -1 39 5 43 12 5 7 12 13 17 13 10 0 38 10 113 40 29 12
60 21 67 21 8 0 14 4 14 9 0 5 4 7 9 4 5 -4 11 -3 13 2 5 13 109 62 119 56 5
-3 9 -1 9 3 0 12 56 44 64 36 3 -3 6 -1 6 5 0 10 51 43 65 42 3 0 13 7 23 16
25 22 134 99 137 97 2 -1 27 21 57 48 29 28 64 57 78 65 14 9 40 36 59 60 19
25 38 41 45 37 6 -3 8 -3 4 2 -6 6 32 56 137 178 13 16 25 31 26 35 1 4 12 23
24 42 12 19 37 62 56 95 18 33 37 63 42 66 5 3 8 8 6 10 -4 7 22 79 30 79 4 0
7 10 8 22 1 11 6 24 10 27 4 3 9 11 9 16 5 28 47 161 55 171 5 6 6 14 2 17 -3
4 -1 13 5 20 7 8 10 16 7 19 -5 5 11 99 22 128 3 8 5 30 4 49 -2 18 1 31 6 28
10 -6 10 363 0 403 -13 56 -17 111 -7 105 5 -3 10 -1 10 4 0 6 -6 11 -12 11
-12 0 -65 188 -62 218 1 6 -2 12 -7 12 -4 0 -11 17 -15 38 -4 20 -13 46 -20
57 -7 11 -14 29 -16 40 -2 11 -7 23 -11 26 -4 3 -9 16 -10 27 -1 12 -5 22 -10
22 -4 0 -6 4 -2 9 3 5 -2 16 -10 24 -21 21 -19 37 5 37 11 0 20 4 20 8 0 12
76 53 84 45 3 -3 6 -1 6 6 0 7 5 9 10 6 6 -3 10 -1 10 4 0 15 15 14 29 -2z
m-302 -163 c-3 -4 1 -13 9 -21 8 -8 12 -19 9 -24 -4 -5 -1 -9 4 -9 6 0 10 -3
9 -7 -1 -5 3 -18 10 -30 7 -13 9 -23 5 -23 -4 0 -3 -4 3 -8 16 -10 45 -82 38
-93 -3 -5 0 -9 6 -9 7 0 10 -6 7 -14 -3 -8 -2 -16 4 -18 5 -2 10 -18 12 -36 1
-17 5 -32 8 -32 6 0 31 -102 28 -116 -1 -5 1 -17 6 -27 4 -9 5 -26 2 -37 -3
-10 -1 -20 3 -22 4 -2 10 -47 14 -101 l7 -98 -148 6 c-133 5 -292 7 -1108 14
l-230 2 47 25 c27 13 51 24 54 23 4 0 11 5 15 13 7 10 9 10 10 -2 0 -11 2 -10
8 3 4 10 11 19 16 20 6 0 16 7 23 14 8 7 18 11 23 8 5 -4 9 -1 9 5 0 6 5 8 10
5 6 -3 10 -2 10 2 0 11 60 47 60 36 0 -4 4 -3 8 3 9 15 172 105 172 96 0 -4 4
-2 8 4 11 16 82 57 82 47 0 -4 4 -3 8 3 12 18 98 65 105 57 4 -3 7 -2 7 4 0
10 153 97 166 93 4 -1 10 3 13 8 3 5 36 26 72 46 52 28 68 33 78 23 10 -9 11
-9 6 3 -4 11 7 23 35 39 22 12 40 19 40 14 0 -4 4 -3 8 3 4 5 18 18 32 27 23
16 25 16 49 -6 l26 -22 -19 23 c-11 12 -17 24 -15 26 11 10 75 40 82 38 4 -1
7 3 7 9 0 5 5 7 10 4 6 -3 10 -1 10 4 0 6 8 11 17 11 9 0 14 -3 10 -6z m-1467
-850 c0 -8 4 -14 10 -14 5 0 252 -242 549 -538 l541 -538 -33 -37 c-17 -20
-35 -37 -38 -37 -4 0 -21 -13 -39 -30 -38 -35 -126 -94 -134 -89 -3 2 -12 -5
-20 -16 -9 -11 -16 -15 -16 -10 0 6 -3 6 -8 0 -4 -6 -19 -18 -33 -27 -20 -13
-29 -14 -38 -5 -9 9 -11 8 -6 -4 4 -11 -3 -20 -24 -29 -17 -6 -33 -11 -37 -10
-4 1 -10 -3 -13 -8 -9 -13 -92 -54 -98 -48 -3 3 -12 -1 -20 -9 -12 -13 -41
-18 -80 -14 -5 0 -7 7 -7 15 1 8 -3 14 -8 14 -6 0 -8 7 -4 15 3 8 1 15 -4 15
-6 0 -10 11 -10 25 0 14 -7 37 -16 50 -13 20 -14 28 -4 40 11 13 10 14 -5 8
-14 -5 -17 -3 -12 10 4 10 2 17 -4 17 -6 0 -9 7 -5 15 3 8 1 15 -5 15 -6 0 -9
7 -5 15 3 8 1 15 -5 15 -6 0 -9 7 -5 15 3 8 2 15 -2 15 -8 0 -46 103 -47 125
0 6 -2 12 -5 15 -5 5 -69 198 -75 224 -1 6 -7 24 -14 40 -6 16 -13 36 -15 45
-2 9 -8 30 -15 46 -7 17 -13 38 -14 48 -1 9 -5 17 -10 17 -5 0 -7 7 -3 15 3 8
1 15 -5 15 -6 0 -9 6 -6 14 3 8 3 17 -1 21 -4 4 -8 11 -8 16 -1 5 -3 11 -4 14
-1 3 -4 10 -5 15 -1 6 -4 12 -5 15 -1 3 -4 10 -5 15 -1 6 -4 12 -5 15 -1 3 -4
10 -5 15 -1 6 -4 13 -5 18 -1 4 -2 10 -1 15 0 4 -4 7 -10 7 -6 0 -9 6 -6 14 3
7 0 19 -6 25 -6 6 -7 11 -1 11 5 0 4 4 -3 8 -6 4 -14 19 -16 32 -2 14 -8 34
-12 45 -4 11 -14 35 -21 54 -8 18 -11 37 -8 42 3 5 0 9 -6 9 -7 0 -10 6 -7 14
3 8 2 16 -3 18 -4 2 -10 12 -12 23 -1 11 -7 23 -13 27 -6 4 -2 13 10 22 19 15
19 15 -4 9 -20 -5 -23 -3 -18 10 4 10 2 17 -3 17 -6 0 -10 7 -10 15 0 9 6 12
17 8 12 -5 14 -3 8 7 -5 9 -4 11 3 6 7 -4 12 -14 12 -22z m750 1 c146 -2 406
-4 578 -6 l312 -3 0 -43 c0 -24 -4 -43 -9 -43 -4 0 -6 -11 -3 -25 2 -13 1 -33
-3 -42 -5 -10 -7 -22 -6 -26 6 -30 -85 -327 -101 -327 -5 0 -7 -3 -4 -8 12
-20 -152 -312 -176 -312 -5 0 -7 -4 -4 -9 4 -5 -14 -30 -39 -56 -26 -26 -40
-44 -33 -40 7 4 -2 -7 -20 -26 l-32 -34 -490 490 c-269 269 -486 493 -483 498
3 6 1 7 -4 4 -6 -4 -16 0 -23 9 -12 13 2 14 131 8 79 -3 263 -7 409 -9z m-880
-159 c14 -41 15 -57 7 -66 -9 -9 -9 -11 3 -8 8 2 15 -3 16 -9 1 -7 3 -15 4
-18 1 -3 4 -9 5 -15 1 -5 3 -12 4 -15 0 -3 1 -8 0 -11 0 -4 3 -10 9 -13 12 -8
33 -71 26 -82 -3 -5 0 -9 6 -9 7 0 10 -7 6 -15 -3 -8 -1 -15 5 -15 6 0 9 -6 6
-14 -3 -8 -1 -16 4 -18 6 -2 12 -16 12 -31 1 -15 6 -27 11 -27 4 0 6 -7 2 -15
-3 -8 -1 -15 5 -15 6 0 9 -7 5 -15 -3 -8 -1 -15 5 -15 6 0 9 -7 5 -15 -3 -8
-1 -15 5 -15 6 0 9 -7 6 -15 -4 -8 -2 -17 4 -20 5 -4 7 -11 4 -16 -4 -5 -2 -9
3 -9 5 0 12 -11 14 -25 4 -18 1 -25 -10 -25 -8 0 -12 -3 -8 -7 4 -5 13 -8 19
-8 7 0 13 -6 13 -12 1 -7 3 -15 4 -18 1 -3 3 -8 5 -12 1 -5 5 -15 8 -23 19
-44 45 -130 39 -130 -4 0 -1 -4 6 -9 8 -5 15 -20 15 -35 1 -14 6 -26 11 -26 4
0 6 -7 2 -15 -3 -8 -2 -15 3 -15 7 0 19 -33 26 -75 1 -5 5 -18 10 -28 4 -9 5
-26 2 -36 -3 -14 -1 -18 9 -14 12 5 20 -20 15 -49 0 -5 4 -8 10 -8 6 0 9 -6 6
-14 -3 -8 -2 -16 3 -18 5 -2 11 -14 12 -28 2 -14 7 -28 11 -31 4 -3 10 -19 12
-35 2 -16 4 -30 6 -31 1 -2 2 -6 4 -10 1 -5 5 -15 8 -23 25 -59 26 -69 9 -73
-12 -3 -10 -5 6 -6 14 -1 21 -5 16 -12 -4 -6 -19 -9 -36 -5 -18 3 -27 2 -23
-4 6 -9 -4 -12 -60 -15 -11 -1 -26 -5 -33 -9 -7 -4 -34 -9 -60 -10 -26 -2 -55
-7 -65 -11 -10 -4 -33 -5 -52 -2 -19 3 -35 2 -35 -4 0 -5 -60 -9 -140 -9 -77
0 -140 4 -140 9 0 5 -18 7 -40 4 -24 -4 -46 -1 -54 7 -9 6 -19 9 -25 6 -11 -7
-173 22 -185 34 -5 5 -15 6 -22 3 -8 -3 -14 0 -14 6 0 6 -6 8 -14 5 -8 -3 -17
-1 -20 5 -4 6 -13 8 -21 4 -8 -3 -15 0 -15 7 0 6 -5 8 -10 5 -6 -4 -8 3 -6 17
3 13 5 23 6 23 1 0 3 13 5 30 2 16 9 31 15 33 5 2 8 7 5 12 -3 5 0 21 7 37 6
15 12 30 12 33 10 45 31 100 38 100 5 0 7 4 4 9 -9 14 92 281 106 281 5 0 7 4
3 10 -3 5 -1 17 5 27 22 39 103 218 102 226 -1 4 2 7 8 7 6 0 9 3 8 8 -4 12
34 102 43 102 5 0 8 3 7 8 -4 14 14 52 24 52 6 0 8 3 5 6 -4 4 6 32 22 63 16
31 47 99 71 151 23 52 51 109 61 126 11 17 19 40 19 50 1 18 1 18 11 1 6 -9
19 -42 29 -71z m-251 -56 c-23 -47 -45 -87 -50 -88 -5 -2 -7 -8 -3 -13 3 -5 0
-9 -6 -9 -6 0 -8 -4 -5 -10 3 -5 1 -10 -6 -10 -7 0 -10 -3 -6 -6 3 -4 -8 -34
-25 -68 -18 -33 -31 -64 -30 -68 1 -5 -3 -8 -9 -8 -5 0 -7 -4 -4 -10 3 -5 1
-10 -4 -10 -6 0 -10 -3 -9 -7 3 -12 -34 -103 -42 -103 -4 0 -7 -7 -7 -15 0
-19 -34 -95 -43 -95 -4 0 -7 -6 -7 -14 0 -19 -56 -146 -65 -146 -4 0 -5 -6 -2
-14 3 -7 -2 -21 -11 -30 -9 -9 -14 -16 -11 -16 9 0 -36 -114 -48 -122 -6 -4
-7 -8 -2 -8 5 0 2 -7 -5 -17 -8 -9 -13 -18 -11 -20 7 -7 -10 -63 -18 -63 -5 0
-7 -7 -4 -15 4 -8 1 -15 -5 -15 -6 0 -10 -3 -10 -7 1 -5 1 -10 -1 -13 -1 -3
-3 -16 -5 -30 -2 -14 -9 -38 -16 -55 -7 -16 -13 -33 -14 -37 -2 -5 -3 -9 -4
-10 -1 -2 -4 -18 -7 -37 -2 -19 -6 -37 -9 -39 -7 -7 -172 76 -194 96 -10 10
-23 18 -30 20 -20 4 -61 34 -61 44 0 5 -4 7 -9 4 -5 -3 -20 5 -34 18 -14 13
-28 22 -30 20 -2 -2 -23 14 -47 36 -24 22 -47 40 -51 40 -4 0 -29 24 -55 53
-26 28 -41 43 -33 32 13 -19 13 -19 -4 -6 -9 8 -15 16 -12 19 9 9 -37 52 -49
45 -6 -3 -8 -3 -4 2 4 4 -10 23 -32 43 -22 19 -40 40 -40 46 0 6 -9 17 -20 24
-12 7 -18 17 -15 21 2 5 -1 11 -9 14 -30 12 -8 43 52 74 34 18 62 29 62 25 0
-4 4 -2 8 3 15 22 207 127 216 118 3 -4 6 -2 6 4 0 12 100 68 100 56 0 -4 4
-3 8 4 4 7 75 49 157 93 83 45 165 91 183 102 17 11 32 16 32 11 0 -4 4 -3 8
2 9 14 102 68 102 60 0 -3 10 3 22 15 20 19 33 24 51 21 4 0 7 3 7 7 0 9 37
29 54 30 5 0 12 4 15 10 8 12 101 65 101 58 0 -4 6 -2 13 4 14 13 71 48 74 46
1 -1 -16 -40 -38 -86z"/>
</g>
</svg>
