<?xml version="1.0" standalone="no"?>
<!DOCTYPE svg PUBLIC "-//W3C//DTD SVG 20010904//EN"
 "http://www.w3.org/TR/2001/REC-SVG-20010904/DTD/svg10.dtd">
<svg version="1.0" xmlns="http://www.w3.org/2000/svg"
 width="1024.000000pt" height="1024.000000pt" viewBox="0 0 1024.000000 1024.000000"
 preserveAspectRatio="xMidYMid meet">
<metadata>
Created by potrace 1.16, written by Peter Selinger 2001-2019
</metadata>
<g transform="translate(0.000000,1024.000000) scale(0.100000,-0.100000)"
fill="#000000" stroke="none">
<path d="M3438 8495 c-3 -3 -31 -7 -64 -10 -32 -3 -86 -12 -119 -20 -33 -9
-70 -18 -82 -20 -41 -6 -240 -76 -268 -93 -5 -4 -15 -7 -21 -8 -6 -1 -60 -26
-120 -55 -60 -29 -118 -52 -129 -51 -15 2 -17 0 -6 -7 10 -6 1 -15 -35 -33
-120 -60 -451 -292 -490 -343 l-25 -33 21 -42 c15 -30 39 -53 85 -82 36 -22
63 -44 60 -48 -3 -5 0 -12 6 -16 8 -5 9 -3 4 6 -5 8 -3 11 6 8 8 -3 13 -10 12
-15 -1 -5 4 -10 10 -10 21 0 67 -35 60 -46 -3 -5 -1 -7 5 -3 6 3 53 -21 106
-54 52 -33 98 -60 100 -60 3 0 22 -12 43 -26 21 -14 78 -46 126 -70 48 -25 85
-49 82 -54 -3 -5 0 -7 8 -5 7 3 45 -8 83 -25 95 -43 249 -96 363 -125 437
-112 844 -72 1217 119 49 25 117 64 152 86 l63 41 -17 -38 c-9 -21 -40 -117
-68 -214 l-51 -176 -165 -6 c-176 -5 -320 -28 -462 -73 -43 -14 -83 -22 -90
-18 -6 4 -8 3 -5 -3 4 -6 -5 -14 -21 -18 -43 -10 -239 -99 -328 -148 -114 -64
-287 -178 -331 -219 -12 -11 -26 -17 -33 -13 -6 3 -9 2 -8 -4 2 -5 -24 -32
-56 -60 -44 -37 -62 -47 -68 -38 -7 9 -8 8 -6 -3 2 -8 -40 -58 -93 -110 -93
-94 -151 -155 -219 -237 -19 -23 -38 -39 -44 -36 -5 3 -6 1 -3 -4 4 -6 -15
-39 -41 -74 -103 -138 -226 -335 -288 -461 -15 -31 -32 -54 -37 -51 -6 3 -7 1
-4 -4 4 -6 -13 -59 -38 -117 -93 -222 -156 -461 -191 -718 -20 -149 -23 -477
-5 -623 22 -180 86 -444 130 -535 9 -19 16 -44 16 -55 0 -11 6 -26 13 -34 7
-7 10 -21 7 -29 -3 -9 -3 -13 1 -9 4 4 24 -28 44 -70 21 -44 33 -81 27 -84 -5
-4 -5 -9 2 -13 6 -4 11 -4 11 1 0 4 13 -14 30 -42 16 -27 27 -52 24 -56 -2 -4
3 -9 11 -13 8 -3 15 -10 15 -16 0 -6 -4 -9 -9 -5 -5 3 -12 1 -15 -4 -3 -4 3
-8 13 -7 21 1 155 -170 145 -186 -4 -6 -3 -8 3 -5 21 13 111 -141 96 -167 -3
-6 -2 -7 3 -3 11 10 84 -210 77 -231 -5 -11 -3 -13 7 -7 10 6 12 4 6 -11 -4
-10 -4 -15 0 -11 4 3 24 -23 45 -59 22 -36 50 -79 64 -96 14 -16 22 -35 19
-40 -4 -6 -2 -8 3 -5 6 4 28 -7 49 -24 63 -51 157 -91 228 -96 112 -9 209 25
375 132 39 25 76 43 83 39 7 -4 8 -3 4 4 -15 24 328 163 439 178 36 5 46 1
105 -43 77 -58 145 -103 257 -170 46 -28 80 -53 75 -57 -4 -5 0 -7 8 -6 29 4
41 0 34 -12 -4 -7 -3 -8 5 -4 7 5 41 -7 79 -27 37 -19 85 -40 107 -47 22 -7
49 -19 60 -25 11 -7 44 -20 73 -30 28 -9 52 -20 52 -24 0 -3 12 -6 28 -5 15 1
32 -2 37 -6 6 -4 25 -11 43 -15 17 -3 32 -11 32 -16 0 -6 4 -8 9 -5 5 3 58 -5
117 -18 60 -14 154 -30 209 -37 177 -22 598 -14 647 12 10 6 22 8 26 5 19 -12
339 63 427 100 18 7 35 10 39 7 3 -4 6 -1 6 6 0 6 6 11 13 9 49 -9 361 140
530 254 31 21 62 36 69 32 6 -4 8 -3 5 4 -4 5 17 27 45 47 29 21 60 44 68 51
79 71 159 132 164 126 4 -4 6 -2 4 4 -5 17 61 86 75 78 6 -4 9 -4 5 1 -6 6 57
94 83 115 3 3 36 43 74 90 37 47 72 84 77 82 5 -1 7 2 4 7 -3 5 21 50 54 100
33 50 84 133 114 186 29 52 57 91 61 87 5 -4 5 -2 2 4 -4 7 13 56 37 110 45
102 120 316 130 369 3 17 12 57 20 90 47 193 65 546 37 730 -7 44 -15 96 -17
115 -27 209 -133 531 -253 768 -17 34 -29 68 -25 74 4 6 3 8 -4 4 -6 -4 -28
25 -53 71 -96 175 -102 175 -393 1 -122 -73 -231 -132 -243 -133 -12 0 -25 -4
-29 -8 -5 -4 -1 -5 9 -1 9 3 17 4 17 1 0 -5 -21 -18 -144 -91 -17 -10 -91 -54
-165 -99 -74 -44 -140 -80 -148 -80 -7 0 -13 -4 -13 -7 0 -12 -174 -113 -193
-112 -9 0 -15 -3 -12 -7 3 -6 -309 -201 -398 -249 -4 -2 -16 2 -25 10 -15 11
-16 11 -4 -4 11 -14 1 -23 -88 -75 -55 -32 -130 -77 -165 -100 -36 -23 -62
-37 -58 -30 8 12 12 26 18 62 2 11 4 20 5 20 2 0 10 35 15 65 3 14 9 50 14 80
24 136 17 419 -14 602 -33 192 -94 400 -169 581 -20 49 -33 93 -30 99 4 6 3 8
-3 5 -10 -6 -60 89 -55 105 1 4 -2 8 -7 8 -14 0 -72 110 -65 122 4 6 3 8 -3 5
-6 -4 -26 17 -46 47 -19 29 -56 79 -81 110 -26 31 -44 56 -41 56 12 0 -202
193 -254 230 -34 24 -58 47 -55 54 3 7 -3 19 -12 27 -16 13 -16 12 -5 -8 6
-13 9 -23 7 -23 -15 0 -134 65 -131 71 3 4 -3 6 -12 5 -9 0 -18 5 -21 13 -2 8
0 11 5 8 6 -4 10 7 9 26 -1 53 142 491 176 541 24 34 256 305 392 457 47 53
90 108 95 122 24 64 -45 157 -117 157 -34 0 -45 -8 -122 -89 -47 -49 -137
-150 -200 -225 -63 -74 -122 -138 -130 -141 -9 -4 -19 1 -25 11 -59 102 -169
240 -252 317 -24 22 -40 44 -36 50 4 6 0 8 -10 4 -9 -3 -19 -1 -23 4 -3 6 -31
27 -61 47 -125 84 -138 94 -135 103 1 6 -2 8 -7 4 -6 -3 -37 8 -71 25 -33 17
-62 30 -65 30 -3 0 -19 7 -35 15 -17 9 -30 13 -30 10 0 -3 -10 1 -22 9 -13 8
-60 26 -106 39 -45 13 -80 25 -78 28 2 2 -12 4 -32 5 -20 0 -68 6 -107 12 -69
11 -347 17 -357 7z m292 -235 c108 -13 257 -49 274 -66 8 -7 16 -10 20 -7 3 4
6 2 6 -4 0 -6 7 -14 16 -17 14 -5 15 -4 4 9 -11 13 -7 13 26 -1 90 -38 155
-75 148 -86 -4 -7 -3 -8 5 -4 19 12 111 -52 104 -72 -4 -13 -3 -14 5 -4 7 11
23 2 71 -38 33 -28 61 -55 61 -61 0 -6 5 -7 12 -3 7 5 8 3 4 -5 -6 -9 -36 -10
-119 -5 -62 4 -120 7 -130 6 -9 0 -15 3 -13 7 3 4 -23 6 -57 4 -34 -2 -209 1
-389 7 -317 10 -329 10 -366 -9 -21 -11 -44 -26 -51 -34 -21 -26 -24 -81 -7
-114 8 -17 12 -34 8 -38 -4 -3 -2 -5 3 -4 6 2 21 -3 34 -10 23 -13 81 -17 541
-36 193 -8 481 -24 550 -31 113 -12 114 -14 24 -74 -173 -117 -387 -198 -629
-237 -69 -11 -399 2 -391 15 2 4 -15 7 -37 6 -45 0 -192 38 -182 48 3 3 -6 3
-20 1 -14 -3 -25 -1 -25 3 0 5 -11 10 -24 10 -64 4 -415 161 -394 176 9 6 6 7
-8 4 -29 -8 -364 197 -364 223 0 9 183 130 272 180 32 18 63 29 69 25 8 -4 9
-3 5 5 -12 19 318 163 381 165 17 1 29 4 27 7 -6 10 173 50 281 62 64 8 174 7
255 -3z m835 -1549 c28 -6 60 -14 73 -16 13 -3 20 -10 17 -15 -3 -6 1 -7 10
-4 19 8 77 -15 69 -27 -3 -5 2 -6 10 -3 38 14 261 -152 350 -261 39 -49 44
-60 35 -78 -9 -21 -9 -21 5 -4 14 18 15 18 25 -1 6 -11 7 -23 3 -27 -4 -5 -2
-5 4 -2 7 4 28 -21 54 -66 24 -39 49 -80 57 -89 8 -9 16 -33 18 -53 2 -21 7
-40 11 -44 4 -3 4 2 1 12 -4 9 -4 17 -1 17 11 0 66 -131 60 -146 -3 -8 -2 -13
3 -10 21 14 121 -297 151 -469 24 -137 35 -238 32 -290 -2 -22 -3 -47 -2 -55
3 -148 -9 -305 -30 -390 -5 -19 -11 -48 -14 -65 -10 -63 -59 -220 -70 -227 -6
-4 -17 -6 -24 -3 -7 3 -10 1 -7 -5 7 -12 -32 -33 -47 -24 -6 4 -8 3 -5 -3 8
-13 -200 -136 -215 -127 -7 4 -8 3 -4 -4 8 -14 -50 -46 -66 -36 -7 4 -8 3 -4
-4 8 -14 -311 -205 -326 -196 -6 4 -8 3 -5 -3 8 -12 -270 -176 -283 -168 -6 3
-7 -1 -4 -9 4 -9 1 -16 -6 -16 -14 0 -375 -212 -462 -271 -31 -22 -60 -39 -64
-39 -7 0 -381 -221 -436 -257 -45 -31 -57 -74 -37 -136 7 -23 13 -48 12 -54 0
-7 3 -13 9 -13 5 0 7 -4 3 -9 -3 -6 4 -20 16 -33 25 -28 129 -185 129 -196 0
-4 9 -13 20 -20 11 -7 20 -17 20 -23 0 -5 -5 -7 -12 -3 -7 4 -8 3 -4 -5 4 -6
11 -9 15 -6 5 2 18 -7 31 -20 20 -21 21 -27 9 -42 -13 -16 -12 -17 2 -5 14 11
23 5 65 -38 27 -28 50 -55 52 -60 2 -5 -35 -20 -82 -35 -47 -14 -122 -41 -167
-60 -45 -19 -86 -32 -92 -28 -6 3 -7 1 -3 -5 4 -7 -7 -18 -26 -28 -18 -9 -61
-36 -96 -60 -35 -24 -90 -53 -122 -64 -60 -20 -166 -28 -156 -11 4 5 -2 7 -12
4 -25 -6 -108 70 -136 126 -13 25 -38 93 -56 151 -46 148 -100 256 -188 374
-99 131 -145 203 -138 215 4 5 1 13 -5 17 -8 4 -9 3 -5 -4 4 -7 5 -12 2 -12
-12 0 -56 100 -50 113 3 8 1 18 -5 22 -7 4 -9 -1 -5 -12 6 -20 -57 103 -79
157 -16 37 -86 243 -93 273 -2 9 -6 27 -9 40 -3 12 -14 85 -26 162 -20 138
-28 422 -14 550 22 221 83 475 162 675 76 192 204 436 224 425 5 -4 6 0 3 8
-5 14 116 191 207 301 83 100 298 314 394 391 88 71 261 195 271 195 3 0 24
12 47 28 65 43 115 63 121 49 2 -7 5 -6 5 4 1 19 94 64 112 54 7 -5 10 -4 5 3
-8 13 29 26 45 16 7 -4 9 -3 6 3 -12 20 196 83 349 107 100 16 292 14 369 -3z
m3082 -1401 c80 -147 167 -373 158 -410 -4 -17 -3 -20 3 -12 7 10 16 -10 30
-65 22 -81 49 -209 60 -278 8 -58 8 -407 -1 -495 -21 -209 -93 -449 -204 -682
-58 -121 -68 -136 -82 -125 -14 10 -14 10 -3 -5 15 -18 11 -25 -97 -188 -65
-99 -69 -104 -181 -229 -115 -130 -272 -276 -283 -265 -3 3 -8 -3 -11 -13 -7
-20 -91 -80 -107 -75 -6 1 -8 -2 -4 -8 3 -5 2 -10 -3 -10 -4 0 -17 -8 -28 -17
-34 -30 -62 -43 -81 -37 -13 4 -15 3 -5 -4 10 -7 -2 -18 -50 -45 -274 -152
-552 -244 -878 -288 -116 -16 -426 -16 -535 -1 -143 21 -285 54 -278 65 3 6 1
7 -6 3 -17 -11 -112 14 -104 27 4 6 1 7 -6 3 -7 -5 -53 7 -102 24 -77 28 -88
35 -77 48 11 13 11 14 -8 2 -18 -11 -32 -7 -115 31 -110 51 -210 109 -205 118
2 3 -6 7 -19 7 -13 1 -34 11 -46 23 -13 12 -27 21 -31 21 -5 0 -6 4 -3 10 3 5
0 8 -7 5 -18 -7 -250 174 -241 189 3 6 2 8 -2 3 -12 -10 -56 33 -48 47 3 6 2
8 -2 3 -11 -10 -56 33 -48 46 3 6 2 7 -4 4 -13 -8 -66 47 -56 58 5 4 3 5 -3 2
-20 -11 -240 272 -231 297 2 6 11 10 20 10 9 -1 15 2 12 6 -3 4 27 27 66 50
39 23 71 40 72 38 1 -1 21 -31 45 -66 37 -54 42 -66 31 -80 -11 -14 -11 -15 1
-5 11 10 17 9 32 -4 10 -9 18 -25 18 -35 0 -11 4 -17 9 -14 13 8 92 -84 84
-98 -3 -6 -3 -8 2 -4 12 11 77 -43 71 -59 -3 -8 -1 -11 4 -8 15 9 101 -68 86
-78 -7 -6 -5 -7 6 -3 10 3 29 -5 45 -17 179 -146 519 -321 736 -379 25 -6 44
-14 42 -17 -2 -3 11 -7 28 -8 46 -3 249 -48 244 -53 -3 -3 56 -7 131 -8 84 -3
143 -8 151 -15 12 -9 13 -9 7 1 -5 9 12 12 76 12 46 0 141 9 212 19 72 11 134
18 138 15 4 -3 8 -1 8 3 0 5 21 14 48 22 199 54 383 128 507 203 11 7 43 26
70 42 70 42 189 129 261 192 34 29 65 50 70 46 5 -4 6 -3 2 2 -4 5 30 49 76
97 246 258 427 580 509 904 49 189 63 309 60 504 -5 296 -79 594 -231 923
l-40 87 86 49 c99 57 84 63 149 -58z m-402 -201 c22 -45 39 -88 37 -96 -2 -8
1 -13 6 -10 11 8 85 -192 79 -215 -3 -11 -1 -15 5 -12 7 5 9 -3 4 -22 -4 -19
-3 -24 3 -15 12 18 35 -87 25 -115 -4 -11 -3 -16 2 -11 5 5 16 -27 25 -70 20
-89 22 -424 4 -442 -10 -10 -121 10 -515 95 -91 20 -174 37 -185 38 -12 1 -25
5 -30 8 -6 3 -40 11 -77 18 -37 7 -66 16 -63 20 2 4 -6 5 -18 3 -12 -2 -65 5
-117 16 -350 72 -494 103 -511 109 -15 6 8 23 112 85 71 43 135 75 141 71 7
-4 8 -3 4 4 -9 15 -1 15 27 1 20 -9 21 -9 4 4 -16 13 -10 19 78 71 53 32 100
54 106 50 8 -4 9 -3 5 4 -8 14 30 36 46 26 6 -4 8 -3 5 2 -7 13 131 96 145 88
6 -4 8 -2 5 3 -9 15 109 84 131 77 11 -4 13 -3 5 3 -9 6 -4 14 17 27 17 9 35
14 40 11 6 -4 9 -2 8 4 -4 13 181 123 195 114 6 -4 7 -1 2 7 -6 10 -4 12 8 7
9 -3 16 -2 14 3 -2 8 168 119 183 120 4 0 24 -37 45 -81z m-1195 -969 c107
-22 218 -45 245 -50 28 -5 133 -27 235 -49 187 -40 554 -118 593 -125 109 -20
146 -31 134 -39 -8 -6 -5 -7 7 -3 22 7 96 -2 115 -13 8 -5 10 -18 5 -37 -7
-25 -8 -26 -15 -9 -5 13 -6 6 -3 -18 4 -20 2 -43 -3 -50 -5 -6 -20 -41 -32
-77 -28 -78 -117 -254 -166 -328 -19 -30 -35 -56 -35 -58 0 -2 -6 -12 -14 -21
-8 -10 -43 -54 -79 -98 -117 -144 -308 -322 -343 -319 -7 1 -11 -2 -9 -7 3 -4
-3 -12 -13 -18 -22 -12 -16 -20 -122 157 -44 74 -77 139 -73 144 3 6 1 8 -4 5
-12 -8 -84 107 -79 126 1 6 1 8 -2 4 -7 -13 -63 76 -57 91 3 7 1 11 -4 8 -11
-7 -134 191 -126 204 4 6 2 9 -4 8 -11 -3 -253 379 -254 400 0 6 -3 10 -5 7
-6 -6 -105 155 -105 172 0 7 -5 11 -11 10 -5 -1 -12 6 -14 16 -3 14 1 17 20
12 13 -3 111 -23 218 -45z m-692 -122 c-10 -40 -20 -84 -23 -98 -2 -14 -20
-86 -39 -161 -19 -75 -37 -147 -39 -160 -2 -13 -7 -31 -10 -39 -3 -8 -11 -39
-17 -67 -7 -29 -16 -53 -21 -53 -4 0 -6 -6 -4 -13 3 -7 -40 -192 -94 -411 -55
-220 -98 -403 -95 -408 15 -23 -270 103 -379 168 -207 125 -388 292 -530 490
l-36 50 64 38 c36 21 70 34 76 30 7 -4 9 -3 6 3 -4 6 20 27 52 47 62 38 77 44
65 24 -4 -7 -3 -8 5 -4 6 4 9 11 7 15 -3 4 39 34 92 65 53 32 113 67 132 79
19 11 168 99 330 195 162 97 333 199 380 228 47 29 88 53 91 53 3 1 -3 -32
-13 -71z m297 -28 c20 -33 33 -64 30 -70 -4 -6 -1 -9 7 -8 7 2 12 -5 12 -14
-1 -10 1 -16 5 -13 4 2 45 -58 91 -133 46 -75 97 -156 112 -180 16 -23 26 -47
22 -54 -4 -7 -3 -8 4 -4 11 6 16 -6 13 -26 0 -5 3 -8 8 -8 11 0 44 -50 44 -67
0 -7 6 -14 14 -17 20 -8 16 -26 -4 -19 -10 3 -15 3 -11 -1 3 -4 13 -9 22 -10
9 -1 57 -69 107 -152 50 -82 100 -164 112 -183 11 -19 16 -32 10 -28 -6 4 -8
-3 -5 -18 2 -14 8 -25 13 -25 5 0 6 7 3 15 -12 30 4 14 35 -36 17 -28 28 -55
25 -61 -4 -6 -3 -8 3 -5 8 5 111 -154 116 -180 3 -12 -73 -46 -216 -98 -126
-45 -151 -53 -192 -60 -11 -1 -69 -11 -130 -21 -131 -22 -476 -27 -482 -7 -3
7 -11 9 -19 6 -8 -3 -50 0 -94 7 -75 12 -78 13 -70 34 11 25 118 463 124 506
1 9 5 20 8 25 5 9 21 74 33 135 2 14 50 204 105 423 55 219 100 400 100 402 0
14 12 -1 45 -55z"/>
</g>
</svg>
