<?xml version="1.0" standalone="no"?>
<!DOCTYPE svg PUBLIC "-//W3C//DTD SVG 20010904//EN"
 "http://www.w3.org/TR/2001/REC-SVG-20010904/DTD/svg10.dtd">
<svg version="1.0" xmlns="http://www.w3.org/2000/svg"
 width="1024.000000pt" height="1024.000000pt" viewBox="0 0 1024.000000 1024.000000"
 preserveAspectRatio="xMidYMid meet">
<metadata>
Created by potrace 1.16, written by Peter Selinger 2001-2019
</metadata>
<g transform="translate(0.000000,1024.000000) scale(0.100000,-0.100000)"
fill="#000000" stroke="none">
<path d="M3430 8108 c0 -6 -17 -8 -40 -6 -22 2 -40 -1 -40 -5 0 -5 -14 -7 -30
-3 -17 3 -29 2 -26 -3 3 -5 -9 -12 -27 -15 -17 -3 -56 -17 -85 -31 -30 -14
-59 -22 -65 -18 -5 3 -7 2 -4 -4 3 -5 -8 -17 -26 -25 -18 -8 -57 -35 -87 -59
-30 -24 -59 -44 -65 -44 -5 -1 -9 -6 -8 -12 1 -6 -8 -19 -20 -29 -21 -19 -21
-19 -7 1 14 18 14 19 -2 7 -10 -8 -16 -17 -15 -20 1 -4 -18 -33 -42 -65 -41
-57 -111 -186 -111 -207 0 -5 -4 -10 -9 -10 -5 0 -8 -6 -7 -12 2 -20 -27 -148
-33 -148 -3 0 -4 -23 -2 -51 2 -36 0 -49 -8 -45 -8 5 -11 -16 -11 -68 0 -44 4
-76 10 -76 6 0 10 -20 10 -44 0 -25 -4 -48 -10 -51 -5 -3 -10 -12 -9 -18 0 -9
2 -9 6 1 2 6 8 12 12 12 8 0 37 -125 35 -147 -1 -7 3 -13 8 -13 6 0 8 -6 5
-14 -3 -8 -2 -16 2 -18 12 -5 80 -145 74 -152 -4 -3 -1 -6 5 -6 14 0 84 -119
77 -131 -4 -5 -1 -9 4 -9 21 0 12 -86 -11 -115 -27 -35 -98 -86 -109 -79 -5 3
-9 -1 -9 -8 -1 -8 -7 -5 -16 7 -16 20 -16 20 -9 -2 6 -21 2 -25 -21 -22 -4 0
-10 -4 -13 -9 -9 -14 -181 -105 -181 -95 0 4 -4 3 -8 -3 -4 -6 -34 -30 -67
-54 -152 -112 -266 -254 -336 -420 -13 -30 -25 -57 -28 -60 -4 -3 -6 -9 -6
-15 -1 -30 -29 -125 -37 -125 -5 0 -7 -4 -4 -9 8 -12 -16 -121 -26 -121 -5 0
-6 -11 -2 -25 4 -15 2 -25 -5 -25 -6 0 -8 -6 -5 -13 2 -7 -2 -49 -11 -92 -8
-44 -15 -93 -15 -108 0 -16 -4 -26 -9 -23 -4 3 -6 -6 -3 -19 2 -14 1 -33 -3
-42 -4 -10 -7 -35 -6 -55 2 -31 -1 -38 -15 -38 -14 0 -15 -3 -6 -12 15 -15 16
-98 1 -98 -5 0 -7 -4 -4 -10 8 -12 -6 -241 -14 -236 -3 2 -6 -69 -6 -159 0
-92 4 -161 9 -158 5 3 7 -19 4 -50 -3 -31 -1 -58 3 -59 5 -2 9 -23 11 -48 2
-25 5 -47 8 -50 10 -9 65 -145 62 -152 -1 -5 2 -8 8 -8 10 0 43 -56 38 -64 -2
-3 6 -11 16 -19 10 -8 16 -19 12 -25 -5 -8 -1 -10 10 -5 12 4 15 3 10 -5 -4
-7 -17 -12 -30 -12 -77 0 -260 -100 -332 -183 -20 -23 -34 -37 -30 -30 3 6 2
14 -3 17 -5 4 -8 -1 -7 -10 2 -10 -14 -50 -35 -89 -23 -44 -40 -95 -44 -129
-4 -31 -10 -54 -14 -52 -3 2 -6 -31 -6 -74 0 -43 2 -76 5 -74 4 5 31 -106 33
-138 1 -9 5 -14 9 -12 4 3 8 -1 8 -9 0 -8 18 -42 40 -76 22 -33 41 -65 42 -69
2 -4 7 -6 11 -4 4 1 17 -14 28 -33 12 -19 25 -33 29 -30 5 3 20 -9 34 -26 14
-17 26 -28 26 -25 0 3 29 -14 65 -38 35 -24 103 -61 150 -82 51 -23 85 -45 85
-54 0 -12 2 -12 8 -2 7 10 18 9 55 -7 57 -25 300 -94 389 -111 37 -8 65 -17
62 -21 -2 -4 6 -7 18 -6 37 3 208 -25 208 -34 0 -5 -4 -9 -10 -9 -5 0 -10 -5
-10 -11 0 -5 10 -3 22 5 12 9 35 16 50 16 22 0 26 -3 21 -17 -6 -16 -4 -16 9
-5 12 10 34 11 80 6 35 -4 67 -9 71 -11 5 -3 50 -7 100 -9 72 -3 98 -9 119
-24 32 -23 51 -27 22 -5 -17 14 -11 15 66 10 47 -3 101 -8 120 -12 19 -3 67
-5 105 -5 39 1 64 -1 58 -4 -27 -12 -11 -22 19 -13 39 11 158 12 158 2 0 -5
75 -6 167 -4 213 4 223 5 223 13 0 3 14 11 30 17 17 5 45 20 62 33 18 12 28
16 23 7 -4 -7 8 4 28 26 40 44 97 148 97 177 0 10 3 18 8 18 4 0 7 34 7 75 0
41 -3 75 -7 75 -5 0 -8 10 -8 23 0 12 -11 46 -25 75 -13 28 -22 52 -20 52 2 0
-9 14 -25 32 -16 17 -26 36 -23 41 3 6 1 7 -4 4 -6 -4 -19 3 -29 16 -19 21
-19 21 1 7 19 -14 19 -14 6 3 -8 9 -16 15 -19 13 -3 -3 -22 8 -42 24 -21 17
-63 43 -93 59 -31 16 -54 31 -52 33 2 2 -4 4 -13 5 -40 3 -197 72 -200 88 -3
11 0 15 7 11 7 -5 9 3 5 24 -4 16 -3 30 2 30 5 0 9 16 9 35 0 19 -3 35 -6 35
-7 0 -23 75 -22 98 0 6 -4 12 -11 13 -6 0 -2 4 9 9 19 8 19 9 -3 9 -13 1 -21
5 -18 10 4 5 2 11 -3 13 -5 1 -36 36 -70 76 -33 41 -61 71 -61 67 0 -4 -21 11
-47 32 -82 68 -255 176 -475 298 -49 27 -88 53 -88 57 0 5 -5 6 -10 3 -6 -3
-10 -1 -10 5 0 6 -5 8 -10 5 -6 -3 -13 1 -16 9 -3 9 -10 14 -14 11 -5 -3 -16
3 -26 12 -10 10 -20 17 -23 17 -12 -3 -51 20 -51 29 0 6 -3 8 -6 4 -8 -8 -64
20 -64 32 0 4 -6 8 -13 8 -19 0 -157 82 -157 94 0 6 -4 8 -10 4 -14 -9 -93 74
-86 91 3 8 1 14 -4 14 -6 0 -10 25 -10 55 0 34 4 55 11 55 6 0 8 7 5 16 -8 21
23 595 33 614 12 22 -2 155 -18 174 -7 9 -22 16 -32 16 -10 0 -20 4 -24 10 -8
12 -55 -7 -77 -33 -11 -11 -18 -35 -18 -58 0 -21 -4 -39 -9 -39 -5 0 -7 -35
-4 -82 4 -47 2 -79 -3 -75 -5 3 -8 -28 -5 -74 2 -52 -1 -79 -8 -79 -7 0 -9
-15 -5 -42 2 -24 0 -92 -5 -153 -6 -60 -10 -141 -10 -178 0 -48 -3 -67 -11
-62 -7 4 -9 -2 -4 -19 3 -14 7 -43 7 -65 1 -21 4 -37 6 -35 4 3 53 -93 55
-108 1 -3 5 -10 10 -15 6 -5 6 -2 1 7 -5 8 7 0 26 -19 47 -46 122 -96 267
-177 91 -51 121 -72 117 -84 -5 -12 -4 -12 6 -3 10 10 18 9 41 -5 15 -9 28
-20 28 -25 0 -4 4 -6 9 -3 10 6 359 -191 481 -272 98 -66 208 -171 233 -224
18 -38 23 -113 8 -122 -10 -6 -135 34 -139 45 -2 4 -12 4 -24 1 -16 -4 -19 -2
-13 8 5 8 4 11 -2 7 -10 -6 -144 30 -153 42 -3 3 -9 6 -15 6 -23 1 -75 17 -75
23 0 4 -12 8 -26 9 -15 0 -29 5 -33 10 -3 4 -10 8 -16 8 -26 1 -75 18 -75 25
0 5 -7 7 -15 4 -8 -4 -15 -1 -15 5 0 6 5 11 12 11 6 0 8 3 5 6 -4 4 -14 1 -23
-7 -13 -10 -18 -11 -21 -2 -2 7 -11 9 -19 6 -8 -3 -14 0 -14 7 0 6 -4 9 -9 5
-10 -5 -281 91 -291 104 -3 3 -9 6 -15 6 -22 1 -85 27 -85 36 0 6 -4 8 -9 4
-12 -7 -61 15 -61 27 0 5 -4 7 -9 4 -8 -5 -131 49 -141 63 -3 3 -12 7 -20 9
-8 2 -16 7 -18 12 -2 5 -9 7 -15 5 -18 -7 -50 22 -42 37 6 10 5 10 -5 1 -10
-9 -19 -9 -41 3 -16 8 -29 19 -29 25 0 6 -4 8 -9 5 -13 -8 -80 43 -134 103
-55 62 -100 152 -122 242 -20 88 -29 303 -16 429 5 58 13 148 16 200 3 52 10
97 16 98 5 2 6 8 3 14 -3 5 -3 38 1 74 5 45 11 64 21 64 17 0 19 17 3 22 -13
4 -2 118 12 118 5 0 6 6 3 13 -6 16 43 256 56 272 5 6 7 15 4 18 -17 16 86
267 126 307 11 11 17 20 14 20 -18 0 101 129 155 169 87 63 156 103 164 94 4
-3 7 0 7 8 0 11 2 11 10 -1 9 -13 10 -13 10 0 0 20 109 76 111 57 1 -6 1 -16
0 -20 -1 -5 3 -6 8 -3 5 3 7 16 3 29 -5 20 -4 21 11 8 16 -12 17 -12 11 5 -4
10 -4 16 0 12 5 -4 13 -3 20 3 6 5 35 27 64 49 54 42 112 112 112 137 0 7 4
13 8 13 16 0 14 173 -2 218 -8 23 -12 42 -8 42 4 0 2 4 -4 8 -17 11 -104 150
-131 209 -14 29 -22 57 -18 63 3 5 2 10 -3 10 -12 0 -36 105 -28 119 4 6 3 11
-3 11 -6 0 -10 47 -9 125 0 71 4 125 10 125 5 0 6 5 3 10 -9 14 14 120 25 120
5 0 7 6 4 14 -3 7 1 20 8 27 7 8 13 20 14 27 2 29 5 33 16 26 7 -4 8 -3 4 5
-12 19 85 159 106 153 5 -1 7 2 4 7 -7 10 68 73 78 66 3 -3 4 -2 1 2 -3 4 15
20 41 35 36 23 49 27 60 17 8 -6 17 -9 21 -5 3 3 1 6 -5 6 -29 0 -8 20 36 34
117 37 281 46 317 16 6 -5 14 -7 17 -4 9 8 88 -18 88 -29 0 -6 3 -7 6 -4 13
12 123 -55 181 -110 32 -30 53 -52 47 -49 -6 3 -11 -1 -11 -9 0 -8 4 -12 9 -9
5 3 16 0 24 -7 25 -21 96 -147 89 -159 -3 -5 -2 -10 3 -10 11 0 37 -81 53
-168 13 -69 6 -275 -9 -280 -5 -1 -7 -14 -4 -27 2 -14 0 -25 -4 -25 -5 0 -9
-13 -10 -29 -1 -42 -63 -165 -119 -239 -26 -34 -83 -95 -127 -135 -94 -85
-118 -126 -118 -200 0 -29 -6 -59 -12 -67 -11 -12 -10 -12 3 -2 14 11 18 9 23
-10 5 -21 71 -111 78 -108 7 4 78 -35 78 -42 0 -5 -4 -6 -10 -3 -5 3 -10 2
-10 -4 0 -17 18 -22 23 -7 6 16 47 10 47 -6 0 -5 4 -7 9 -3 11 6 61 -15 61
-26 0 -5 6 -6 13 -4 15 7 155 -65 216 -110 44 -32 159 -145 134 -131 -6 3 -14
2 -17 -3 -4 -5 4 -11 16 -13 43 -6 167 -239 171 -322 1 -19 5 -32 8 -30 10 6
21 -64 13 -78 -4 -7 -3 -8 4 -4 11 7 13 1 16 -71 1 -10 4 -20 7 -23 10 -8 52
-278 46 -294 -3 -8 -2 -16 4 -18 5 -2 10 -40 12 -85 1 -46 5 -83 10 -83 9 0 9
-77 -1 -83 -4 -3 -8 -31 -9 -64 -1 -58 -1 -58 6 -11 7 51 21 76 21 39 0 -13 9
-131 20 -263 12 -133 20 -248 19 -257 -1 -9 1 -24 5 -33 5 -10 6 -38 4 -63 -2
-25 1 -45 6 -45 4 0 6 -29 4 -64 -2 -39 0 -62 6 -59 5 4 7 -16 3 -51 -3 -34
-2 -54 4 -51 5 4 9 -10 9 -29 0 -35 -13 -48 -23 -23 -3 6 -5 0 -4 -15 1 -21 4
-25 14 -16 16 13 23 7 27 -19 2 -10 7 -18 12 -19 5 0 22 -4 37 -9 37 -10 105
12 112 37 4 10 10 18 15 18 5 0 3 15 -4 33 -14 33 -41 325 -32 335 3 3 2 10
-4 17 -5 6 -11 66 -12 132 -2 69 -7 118 -12 115 -5 -3 -7 22 -3 61 4 43 2 69
-5 73 -6 4 -8 23 -5 44 3 21 1 42 -3 47 -6 7 -12 54 -30 263 -1 8 -3 33 -5 55
-1 22 -5 47 -8 55 -7 18 -28 185 -26 197 1 4 -1 16 -6 27 -5 12 -3 27 5 40 12
18 11 19 -2 8 -13 -10 -17 0 -29 80 -8 51 -14 101 -13 111 0 9 -3 17 -7 17 -5
0 -11 17 -15 38 -4 20 -13 55 -21 76 -10 29 -10 42 -2 53 9 11 9 12 -3 8 -19
-8 -32 33 -16 52 8 10 7 12 -4 8 -16 -6 -43 40 -33 56 4 5 2 9 -2 9 -10 0 -79
122 -75 133 1 5 -2 6 -8 2 -10 -6 -15 9 -10 30 1 5 -1 7 -5 3 -4 -4 -27 17
-51 47 -25 30 -69 74 -99 99 -30 24 -51 47 -47 51 4 4 3 5 -3 3 -14 -4 -85 41
-85 54 0 6 -3 9 -6 5 -3 -3 -40 12 -83 33 -42 21 -116 55 -165 74 -49 20 -95
41 -102 47 -28 23 -9 58 79 141 48 46 91 81 94 78 3 -3 3 0 0 7 -4 6 3 20 16
30 13 10 23 20 23 23 0 3 16 32 36 65 35 60 88 183 88 204 0 6 4 11 9 11 5 0
7 9 4 20 -3 11 -1 20 3 20 10 0 10 -7 21 208 4 90 4 162 -1 162 -4 0 -6 16 -4
35 2 19 0 35 -5 35 -5 0 -7 11 -5 25 3 13 1 26 -4 27 -4 2 -9 18 -11 36 -1 17
-6 32 -11 32 -4 0 -6 6 -3 14 3 8 3 16 -1 18 -10 4 -68 130 -64 140 1 4 -2 8
-7 8 -4 0 -21 19 -36 42 -28 43 -144 170 -161 177 -26 11 -84 55 -84 64 0 6
-3 8 -6 4 -4 -3 -32 7 -63 23 -66 33 -137 54 -236 71 -95 17 -145 19 -145 7z
m-1082 -4448 c18 -7 32 -19 32 -28 0 -15 2 -15 10 -2 7 11 10 11 10 2 0 -7 4
-11 9 -8 9 6 113 -41 122 -56 3 -5 10 -10 15 -9 21 1 54 -12 54 -21 0 -5 5 -6
10 -3 6 3 10 2 10 -3 0 -5 6 -9 14 -9 19 0 280 -105 284 -115 2 -4 7 -6 12 -3
9 6 70 -14 70 -23 0 -4 12 -8 26 -8 32 -2 43 -12 24 -24 -8 -6 -10 -10 -5 -10
6 0 17 6 23 12 8 8 15 9 20 3 4 -6 12 -10 17 -10 15 0 209 -67 215 -74 3 -3
10 -6 15 -6 24 0 135 -39 135 -47 0 -5 4 -7 9 -4 14 9 121 -26 121 -40 0 -7 4
-16 10 -19 6 -3 7 1 4 9 -4 11 0 16 11 16 9 0 14 -4 11 -9 -3 -5 0 -9 7 -8 40
1 49 -4 44 -23 -3 -13 0 -20 9 -20 8 0 11 6 7 17 -5 11 -2 15 8 11 8 -2 60
-19 117 -38 56 -18 102 -36 102 -41 0 -5 7 -6 15 -3 8 4 15 2 15 -3 0 -5 12
-10 28 -11 15 -1 28 -6 30 -12 2 -5 9 -7 16 -4 8 3 20 -1 27 -8 8 -7 21 -14
29 -16 28 -5 110 -45 110 -54 0 -5 4 -7 9 -4 12 8 103 -73 95 -85 -3 -5 -1 -9
5 -9 13 0 44 -58 36 -69 -3 -5 0 -11 6 -13 16 -5 25 -98 10 -98 -7 0 -9 -5 -5
-11 11 -19 -28 -87 -66 -114 -20 -14 -52 -30 -71 -35 -38 -11 -314 -13 -287
-2 10 4 -35 5 -98 3 -76 -2 -114 0 -110 7 4 6 -17 8 -57 5 -50 -4 -67 -2 -79
11 -18 18 -33 22 -23 6 4 -6 -15 -10 -49 -10 -31 0 -56 4 -56 10 0 6 -18 7
-45 3 -31 -4 -50 -1 -62 8 -14 12 -16 12 -8 0 5 -10 4 -12 -4 -7 -6 4 -48 9
-94 12 -45 3 -83 9 -85 14 -2 5 -16 7 -32 3 -16 -3 -37 -2 -47 2 -10 3 -44 8
-76 10 -32 3 -63 7 -68 11 -6 4 -37 8 -68 11 -31 2 -58 8 -59 14 -2 5 -8 7
-13 4 -12 -8 -129 17 -129 28 0 4 -4 6 -9 3 -12 -8 -191 34 -191 44 0 4 -9 6
-20 3 -11 -3 -20 -1 -20 3 0 5 -12 10 -27 11 -15 0 -29 6 -31 12 -2 5 -10 7
-19 4 -12 -5 -14 -1 -9 18 3 13 3 18 0 11 -3 -6 -11 -9 -16 -6 -7 5 -8 2 -3
-6 6 -9 2 -10 -16 -5 -59 18 -189 78 -189 88 0 6 -3 8 -6 4 -8 -7 -76 26 -124
61 -52 38 -130 114 -125 123 3 4 -2 10 -11 13 -8 3 -12 10 -9 16 3 5 2 10 -3
10 -10 0 -38 60 -34 73 1 4 -2 7 -7 7 -11 0 -11 1 -16 123 -3 55 -1 87 6 87 6
0 7 5 4 10 -4 6 -1 26 5 46 9 25 16 34 27 29 13 -4 13 -3 4 8 -9 11 -6 20 11
42 69 88 167 150 272 172 68 14 184 10 234 -7z"/>
<path d="M6438 8109 c-2 -5 -27 -11 -56 -12 -28 -1 -52 -6 -52 -11 0 -4 -9 -6
-20 -3 -11 3 -18 1 -14 -4 3 -5 -2 -9 -11 -9 -9 0 -50 -15 -91 -34 -41 -19
-74 -33 -74 -31 0 2 -10 -5 -22 -15 -13 -11 -53 -44 -90 -75 -38 -31 -68 -61
-68 -66 0 -6 -6 -7 -12 -3 -7 4 -10 4 -6 0 4 -5 -11 -31 -33 -58 -40 -51 -112
-190 -124 -240 -4 -16 -11 -28 -17 -28 -5 0 -7 -4 -3 -9 3 -5 0 -31 -6 -58
-15 -60 -27 -333 -15 -333 4 0 6 -16 4 -35 -2 -19 0 -36 4 -37 5 -2 10 -24 11
-50 1 -25 6 -43 11 -40 5 3 7 -5 4 -16 -4 -12 -2 -22 3 -22 4 0 5 -7 2 -17 -4
-10 -2 -14 4 -10 6 4 13 -3 16 -15 7 -26 -2 -45 -13 -28 -4 7 -7 1 -7 -16 0
-26 0 -27 13 -9 16 22 15 23 44 -35 38 -75 97 -156 175 -240 41 -44 75 -86 75
-94 0 -18 -49 -58 -61 -50 -5 3 -9 1 -9 -4 0 -5 -42 -24 -92 -42 -304 -108
-523 -283 -638 -510 -12 -25 -25 -47 -29 -50 -3 -3 -7 -12 -8 -20 -4 -28 -47
-145 -54 -148 -5 -2 -5 -10 -2 -18 3 -8 1 -14 -5 -14 -6 0 -8 -9 -5 -20 3 -11
1 -20 -3 -20 -5 0 -10 -19 -11 -42 -2 -23 -6 -44 -10 -47 -5 -3 -9 -28 -11
-56 -2 -27 -8 -52 -13 -53 -5 -2 -7 -7 -4 -12 5 -9 -22 -235 -32 -260 -3 -8
-5 -32 -4 -52 2 -21 -1 -38 -6 -38 -4 0 -6 -28 -5 -61 4 -57 2 -61 -15 -55
-14 6 -16 5 -5 -5 14 -15 16 -99 2 -99 -6 0 -8 -20 -4 -54 4 -30 4 -62 0 -72
-4 -9 -9 -62 -12 -118 -12 -242 -40 -530 -48 -511 -5 11 -8 31 -7 45 2 14 -1
22 -5 17 -13 -13 -12 -51 2 -72 14 -20 19 -96 7 -109 -4 -3 -6 -29 -4 -57 1
-28 -1 -49 -6 -46 -4 3 -6 -15 -4 -40 2 -28 -1 -43 -7 -39 -6 3 -8 -12 -4 -41
4 -37 1 -49 -13 -59 -14 -10 -22 -11 -32 -2 -10 8 -12 7 -8 -4 4 -10 -10 -26
-45 -48 -62 -40 -147 -132 -180 -197 -14 -26 -27 -50 -30 -53 -3 -3 -6 -12 -6
-20 -1 -8 -7 -42 -14 -75 -15 -74 -14 -235 1 -235 7 0 24 -67 22 -87 0 -7 3
-13 9 -13 5 0 6 -4 3 -10 -3 -5 -3 -10 2 -10 4 0 21 -26 38 -58 25 -47 186
-228 197 -221 8 6 97 -58 91 -65 -4 -4 0 -4 10 0 10 3 17 1 17 -5 0 -6 3 -10
8 -9 14 3 92 -25 92 -34 0 -4 3 -7 8 -6 15 3 172 -36 172 -43 0 -4 16 -5 37
-2 24 4 34 3 30 -5 -5 -6 0 -8 13 -5 11 3 28 2 37 -2 10 -5 22 -7 27 -6 12 3
197 -20 216 -26 8 -3 32 -5 53 -4 20 2 37 -2 37 -7 0 -4 13 -7 30 -4 16 2 38
1 47 -3 10 -4 33 -7 50 -6 18 2 37 0 43 -4 6 -4 41 -9 78 -11 37 -2 116 -11
175 -19 59 -8 123 -15 142 -15 19 0 35 -5 35 -11 0 -5 5 -7 11 -4 10 7 365
-31 399 -42 8 -2 46 -6 85 -9 38 -2 71 -8 73 -13 1 -4 23 -6 47 -3 25 2 45 1
45 -4 0 -5 19 -9 43 -10 65 -2 190 -14 200 -21 5 -3 30 -6 56 -8 167 -8 261
-9 261 -2 0 9 37 9 43 0 2 -5 2 -2 1 5 -2 6 5 12 15 12 23 0 140 75 147 95 4
8 10 12 15 9 5 -3 8 -2 7 3 -1 4 5 22 14 38 8 17 18 42 22 57 4 19 11 26 21
22 8 -4 15 -2 15 4 0 8 56 21 118 25 12 1 22 5 22 9 0 6 52 22 75 23 6 0 12 2
15 5 3 3 48 26 100 52 52 26 123 69 157 97 33 27 63 49 65 48 1 -1 2 0 1 2 -6
10 20 30 31 24 6 -3 8 -3 4 2 -4 4 9 26 28 49 48 56 112 188 127 264 7 34 15
61 17 58 3 -2 5 40 5 95 0 54 -4 99 -9 99 -4 0 -6 11 -4 25 3 14 2 25 -2 25
-4 0 -12 19 -19 43 -7 23 -29 69 -49 102 -20 33 -35 64 -34 70 2 5 1 7 -3 3
-3 -3 -24 13 -46 37 -22 24 -64 60 -94 81 -30 20 -55 42 -55 47 0 6 -3 7 -7 4
-6 -7 -73 29 -84 46 -3 5 -9 8 -13 7 -3 -1 -19 1 -35 5 -28 6 -29 9 -24 43 3
20 9 38 12 40 4 1 5 20 3 42 -2 22 -1 48 3 58 5 9 7 64 6 122 -1 61 2 100 7
92 5 -7 9 16 9 60 1 46 -2 67 -8 57 -5 -9 -9 32 -10 111 -3 190 -7 273 -15
293 -3 10 -4 40 -2 67 3 29 1 50 -5 50 -5 0 -8 21 -5 50 3 27 2 51 -2 52 -9 4
-42 247 -35 259 4 5 1 9 -5 9 -7 0 -10 12 -9 28 2 15 0 32 -3 37 -10 16 -28
127 -22 136 3 5 0 9 -5 9 -6 0 -11 8 -11 18 0 10 -9 53 -20 96 -11 42 -18 81
-15 87 4 5 2 9 -3 9 -11 0 -33 70 -26 82 3 4 1 8 -4 8 -9 0 -28 39 -34 70 -2
8 -9 21 -16 28 -7 8 -10 18 -7 23 4 5 1 9 -5 9 -6 0 -8 5 -5 10 3 6 2 10 -4
10 -6 0 -17 14 -26 30 -9 17 -12 30 -8 30 4 0 -2 7 -13 15 -10 8 -16 15 -12
15 4 0 -8 17 -27 37 -19 20 -31 42 -28 47 4 6 3 8 -2 4 -4 -4 -19 7 -33 24
-71 85 -240 197 -403 268 -52 23 -96 46 -97 51 -2 5 -8 7 -13 3 -10 -6 -69 26
-69 38 0 4 -4 7 -9 6 -5 -2 -25 12 -44 29 -50 46 -62 125 -24 165 6 7 13 20
15 28 2 8 11 21 20 28 9 7 15 15 13 18 -7 10 33 73 43 67 6 -4 8 -3 4 2 -4 4
3 28 16 54 33 65 73 195 81 266 4 33 10 64 12 68 7 12 6 177 -1 184 -3 4 -6
22 -6 42 -1 20 -7 63 -15 95 -8 33 -12 63 -9 68 3 4 0 8 -6 8 -7 0 -10 7 -6
15 3 8 2 15 -2 15 -4 0 -16 21 -26 48 -11 26 -36 74 -55 107 -20 33 -34 65
-32 70 1 6 -1 7 -5 3 -9 -9 -40 33 -36 47 2 6 1 7 -2 4 -3 -3 -30 16 -59 43
-28 27 -76 66 -104 85 -29 20 -53 40 -53 46 0 6 -3 8 -6 5 -3 -4 -29 4 -59 17
-29 13 -79 31 -111 40 -33 9 -66 19 -74 21 -8 3 -40 7 -70 10 -30 2 -74 6 -97
8 -23 2 -43 0 -45 -5z m188 -195 c87 -18 204 -66 204 -84 0 -6 4 -9 9 -5 5 3
17 -5 25 -17 9 -12 16 -18 16 -13 0 6 17 -8 38 -30 20 -23 31 -33 23 -23 -8
10 -11 18 -8 18 9 0 90 -108 120 -161 38 -65 77 -180 81 -242 2 -29 7 -60 11
-69 12 -30 -10 -251 -25 -256 -5 -2 -8 -7 -5 -12 7 -11 -33 -116 -50 -134 -8
-7 -11 -16 -8 -20 4 -3 2 -6 -4 -6 -5 0 -10 -6 -10 -12 0 -19 -43 -88 -55 -88
-5 0 -6 -5 -3 -10 3 -6 -1 -13 -9 -16 -9 -3 -13 -10 -10 -15 3 -5 0 -9 -6 -9
-6 0 -8 -4 -5 -10 3 -5 1 -10 -6 -10 -7 0 -10 -3 -6 -6 3 -3 1 -18 -5 -33 -14
-34 -26 -201 -14 -193 5 3 7 -4 4 -16 -3 -12 -3 -22 1 -24 3 -2 24 -29 46 -62
21 -32 56 -70 77 -84 21 -13 38 -29 38 -34 0 -5 5 -6 10 -3 6 3 10 1 10 -5 0
-6 5 -8 10 -5 6 3 10 1 10 -5 0 -6 5 -8 10 -5 6 3 10 2 10 -3 0 -5 6 -9 14 -9
19 0 166 -64 166 -72 0 -4 8 -7 18 -8 26 -2 132 -63 132 -75 0 -6 3 -8 7 -5
14 15 149 -104 203 -180 17 -23 26 -43 21 -43 -6 0 -11 5 -11 11 0 5 -4 8 -10
4 -14 -9 0 -35 18 -32 10 1 18 -2 19 -6 1 -5 9 -14 19 -21 11 -8 14 -18 9 -27
-5 -8 -4 -11 0 -6 5 4 14 -5 20 -20 10 -22 9 -33 -3 -51 -14 -21 -13 -25 1
-40 14 -13 19 -14 29 -3 10 11 10 12 1 7 -8 -4 -13 -1 -13 8 0 9 4 16 9 16 12
0 24 -37 16 -50 -3 -5 -2 -10 2 -10 16 0 69 -183 58 -200 -3 -6 -2 -10 2 -10
10 0 47 -169 39 -177 -3 -4 -1 -12 5 -20 6 -7 9 -22 6 -33 -3 -11 -1 -23 4
-26 11 -6 12 -44 1 -44 -4 0 -9 -15 -9 -32 -2 -32 -2 -33 9 -8 l12 25 4 -29
c2 -16 -2 -32 -9 -37 -15 -9 -20 -37 -8 -45 5 -3 9 4 9 15 0 12 5 21 11 21 7
0 10 -14 7 -35 -2 -19 0 -35 5 -35 5 0 7 -20 5 -45 -2 -25 0 -46 4 -47 5 -2 9
-58 10 -125 2 -68 7 -123 11 -123 5 0 7 -40 5 -89 -1 -49 0 -84 4 -78 4 7 8
-62 8 -153 0 -92 -4 -159 -9 -152 -4 7 -6 -32 -3 -89 3 -58 1 -100 -4 -96 -5
3 -9 -18 -9 -46 0 -34 -4 -52 -14 -55 -8 -2 -11 -1 -8 4 2 5 -23 10 -56 12
-34 1 -63 6 -67 10 -3 4 -45 8 -95 9 -124 3 -189 12 -211 28 -17 12 -19 30
-21 182 -1 93 -5 177 -9 187 -4 9 -4 58 -2 107 3 52 2 89 -4 89 -5 0 -8 43 -7
99 1 54 -1 103 -4 108 -5 8 -19 320 -23 533 -2 102 -16 170 -36 170 -5 0 -7 4
-4 8 3 5 -17 9 -44 11 -41 2 -54 -2 -74 -22 -14 -14 -26 -24 -28 -22 -2 2 -3
-27 -3 -65 0 -37 4 -63 8 -57 4 7 7 -40 5 -103 -2 -63 1 -121 5 -127 4 -7 8
-57 9 -110 1 -120 5 -222 24 -658 11 -268 18 -349 31 -385 10 -25 17 -48 18
-52 0 -3 4 -10 9 -15 6 -5 6 -2 1 7 -5 8 4 3 20 -13 15 -15 50 -35 76 -44 27
-10 49 -21 49 -24 0 -3 11 -4 25 -1 14 2 25 0 25 -5 0 -4 34 -7 75 -5 48 3 75
0 75 -6 0 -7 20 -8 57 -5 41 5 54 3 49 -5 -5 -8 2 -10 24 -6 24 5 37 1 58 -17
14 -13 20 -16 13 -6 -16 21 -8 22 55 6 24 -6 44 -16 44 -21 0 -5 5 -6 10 -3
14 8 80 -14 80 -26 0 -6 5 -7 10 -4 13 8 139 -62 147 -81 3 -8 8 -12 12 -9 12
7 85 -75 116 -128 21 -36 25 -51 16 -60 -14 -14 -15 -37 -1 -37 5 0 7 7 4 15
-4 8 -2 15 4 15 13 0 26 -55 17 -70 -3 -5 -1 -10 6 -10 14 0 6 -149 -8 -159
-4 -3 -9 -17 -11 -31 -6 -57 -56 -136 -137 -217 -65 -64 -99 -89 -166 -121
-105 -50 -213 -86 -234 -78 -9 3 -13 2 -10 -4 9 -15 -61 -12 -74 3 -6 8 -7 18
-3 22 4 5 2 5 -4 2 -14 -8 -37 17 -26 27 4 4 3 6 -3 5 -14 -4 -75 29 -75 41 0
6 -3 9 -7 8 -16 -3 -63 15 -63 24 0 5 -4 7 -8 4 -4 -2 -35 6 -67 20 -33 13
-66 24 -72 24 -7 0 -13 5 -13 11 0 5 -4 8 -9 5 -12 -8 -131 35 -131 47 0 5 7
7 15 3 8 -3 15 -1 15 4 0 15 -37 12 -44 -2 -4 -10 -8 -10 -11 -2 -3 7 -15 9
-27 6 -14 -3 -19 -1 -14 6 5 8 2 10 -8 6 -9 -3 -16 -1 -16 5 0 6 -7 8 -15 5
-8 -4 -15 -1 -15 6 0 6 -4 9 -9 6 -9 -6 -340 101 -355 115 -6 5 -2 9 10 9 12
0 34 7 51 15 40 20 79 24 75 7 -1 -8 2 -11 7 -7 6 3 8 12 4 20 -3 9 1 16 11
17 9 0 22 1 29 2 6 1 14 4 17 7 3 3 40 18 84 32 74 25 103 27 91 7 -6 -10 21
-7 31 3 4 4 0 7 -9 7 -9 0 -17 5 -17 11 0 6 6 9 14 6 8 -3 16 -2 18 2 5 13
167 63 179 55 8 -4 9 -3 5 4 -4 7 -1 12 8 12 8 0 16 -3 19 -7 2 -5 3 -3 1 4
-3 12 41 27 56 18 4 -3 10 -1 12 5 1 5 14 11 28 12 14 2 27 5 30 9 3 3 27 13
53 23 27 10 51 24 54 32 3 8 8 12 12 10 3 -2 7 13 9 35 2 32 -3 45 -31 75
l-33 37 -293 -96 c-162 -53 -297 -94 -302 -92 -4 3 -9 1 -11 -4 -4 -12 -257
-93 -268 -86 -6 3 -10 2 -10 -3 0 -8 -191 -75 -215 -75 -6 0 -44 10 -84 23
-49 16 -70 28 -67 37 3 7 1 13 -3 13 -5 0 -11 -5 -13 -11 -2 -7 -27 -3 -71 13
-48 16 -66 27 -62 37 5 12 3 12 -11 0 -13 -10 -18 -11 -21 -2 -2 7 -11 9 -20
6 -12 -5 -14 -1 -8 18 6 22 6 22 -6 6 -13 -16 -34 -11 -334 90 -176 60 -321
111 -323 115 -2 5 -12 3 -23 -3 -11 -5 -23 -8 -28 -5 -16 10 -44 -59 -39 -97
2 -22 0 -37 -7 -37 -23 0 53 -31 197 -81 84 -29 155 -56 156 -61 2 -4 7 -6 11
-4 10 7 201 -60 194 -68 -4 -4 0 -4 10 0 10 3 17 1 17 -6 0 -6 4 -9 9 -6 9 6
272 -80 281 -92 3 -4 16 -8 30 -10 14 -1 26 -7 28 -12 2 -5 10 -6 18 -3 8 3
14 0 14 -7 0 -6 4 -9 9 -6 9 6 203 -59 196 -65 -2 -3 4 -5 13 -5 9 0 88 -24
175 -53 130 -44 157 -56 157 -72 0 -10 4 -19 10 -19 5 0 7 7 4 15 -4 8 -4 15
-1 15 17 0 333 -114 335 -121 2 -5 7 -7 12 -4 8 5 152 -43 160 -53 3 -4 10 -7
15 -7 19 0 85 -27 85 -34 0 -4 10 -7 23 -8 12 -1 33 -14 46 -29 19 -23 22 -35
18 -68 -7 -52 -65 -111 -103 -103 -13 2 -24 0 -24 -4 0 -5 -39 -9 -86 -9 -47
0 -83 4 -80 9 3 5 -14 6 -39 4 -24 -3 -52 -2 -62 1 -10 4 -54 10 -98 12 -43 3
-82 8 -85 12 -3 4 -23 7 -45 8 -71 1 -185 17 -185 24 0 5 -9 6 -20 3 -11 -3
-28 -2 -37 2 -10 4 -36 8 -58 9 -91 5 -293 30 -290 37 3 3 -16 4 -40 1 -31 -3
-45 -1 -45 7 0 7 -5 9 -10 6 -17 -10 -340 27 -333 39 4 5 -1 7 -11 3 -10 -4
-49 -4 -87 -1 -54 5 -69 10 -70 23 0 10 -2 12 -6 4 -2 -8 -22 -13 -44 -13 -22
0 -38 4 -35 9 3 5 -15 6 -39 3 -28 -3 -45 -1 -45 6 0 7 -13 9 -35 5 -19 -3
-42 -2 -52 2 -10 4 -30 7 -45 6 -16 -2 -28 1 -28 6 0 4 -25 9 -54 10 -89 2
-336 65 -336 85 0 4 -6 5 -13 2 -19 -7 -126 61 -182 117 -28 27 -66 74 -84
104 -28 46 -31 58 -21 70 11 13 10 14 -3 10 -20 -8 -33 31 -16 51 10 12 9 13
-3 9 -13 -5 -15 8 -15 79 1 48 4 86 9 86 4 0 5 6 2 14 -10 27 75 165 98 158 5
-1 7 2 3 7 -7 12 29 33 40 23 5 -4 5 -2 2 4 -16 28 339 170 372 149 5 -3 11 0
13 5 2 6 24 12 51 13 26 1 47 6 47 11 0 4 11 6 25 4 14 -3 25 -2 25 2 0 5 118
34 145 35 6 0 15 3 20 8 34 26 84 55 89 51 3 -2 4 -1 1 2 -2 4 4 19 15 34 38
53 40 105 38 750 l-3 624 -34 23 c-34 23 -69 23 -100 -1 -12 -9 -13 -8 -6 4 8
13 6 13 -8 2 -15 -13 -16 -68 -17 -627 0 -338 -3 -628 -7 -646 -4 -24 -14 -35
-41 -46 -19 -8 -41 -12 -48 -9 -8 3 -14 2 -14 -3 0 -10 -109 -33 -121 -25 -5
3 -9 0 -9 -7 0 -7 -10 -9 -25 -7 -14 3 -25 2 -25 -2 0 -9 -150 -41 -161 -34
-5 3 -9 1 -9 -4 0 -6 -6 -12 -13 -15 -10 -4 -12 10 -9 62 3 36 7 68 11 71 3 3
7 48 9 100 1 52 5 102 8 110 4 8 5 43 4 78 -1 34 3 62 8 62 5 0 7 20 5 45 -3
24 -2 52 2 62 5 10 7 44 6 75 -2 31 1 63 5 69 4 7 6 39 5 72 -1 32 1 57 6 54
5 -3 9 24 10 61 1 89 1 86 14 255 11 136 19 165 32 112 3 -13 5 -9 6 13 0 17
-3 32 -9 32 -5 0 -10 19 -10 43 0 30 3 38 10 27 6 -10 7 2 3 38 -3 28 -2 52 3
52 5 0 10 26 11 57 2 31 7 61 12 66 5 5 7 15 5 22 -12 31 88 385 108 385 6 0
9 3 5 6 -8 9 41 104 53 104 6 0 9 4 8 9 -5 15 70 107 125 153 97 83 238 165
259 152 4 -3 8 -1 8 4 0 13 59 34 73 25 6 -3 7 -1 3 5 -6 10 56 30 77 24 4 -1
7 2 7 7 0 8 29 19 53 21 4 0 15 8 26 18 10 9 35 30 55 45 49 38 76 94 76 159
0 66 -24 119 -83 184 -26 28 -43 55 -39 58 4 4 0 6 -8 4 -8 -2 -14 3 -12 10 1
8 -2 11 -7 8 -9 -6 -71 70 -71 87 0 4 -9 16 -20 27 -12 12 -18 25 -15 30 4 6
2 10 -3 10 -11 0 -44 69 -37 80 3 4 1 10 -5 12 -6 2 -11 18 -13 36 -1 17 -6
32 -11 32 -4 0 -6 9 -3 20 3 10 0 21 -5 22 -13 5 -24 258 -12 258 5 0 9 17 9
38 1 48 35 163 46 156 5 -3 6 2 3 10 -4 10 -1 16 7 16 7 0 10 3 6 6 -10 10 39
98 76 138 19 19 32 38 30 40 -2 2 14 19 37 37 23 19 44 32 46 29 2 -3 10 4 18
16 17 24 151 88 166 79 5 -3 10 -2 10 3 0 11 92 29 156 31 23 0 77 -6 120 -15z"/>
</g>
</svg>
