<?xml version="1.0" standalone="no"?>
<!DOCTYPE svg PUBLIC "-//W3C//DTD SVG 20010904//EN" "http://www.w3.org/TR/2001/REC-SVG-20010904/DTD/svg10.dtd">
<svg xmlns="http://www.w3.org/2000/svg" version="1.0" width="1024.000000pt" height="1024.000000pt" viewBox="0 0 1024.000000 1024.000000" preserveAspectRatio="xMidYMid meet">
<metadata>
Created by potrace 1.16, written by Peter Selinger 2001-2019
<meta name="Producer" content="Online-Convert"/></metadata>
<g transform="translate(0.000000,1024.000000) scale(0.100000,-0.100000)" fill="#000000" stroke="none">
<path d="M8387 8039 c-32 -4 -78 -17 -102 -28 -25 -11 -45 -17 -45 -14 0 3 -30 -25 -67 -63 -38 -38 -72 -67 -76 -66 -5 1 -6 -2 -3 -6 8 -13 -32 -92 -50 -99 -9 -3 -11 -9 -6 -12 5 -3 -16 -59 -47 -124 -31 -65 -61 -114 -66 -110 -4 4 -5 3 -1 -4 9 -15 -33 -115 -45 -107 -5 3 -6 -3 -2 -12 5 -13 3 -15 -7 -9 -8 5 -11 4 -6 -3 8 -13 -114 -273 -125 -267 -4 3 -11 0 -15 -6 -5 -8 -3 -9 6 -4 7 4 11 4 9 -1 -2 -5 -12 -30 -23 -56 -10 -27 -23 -45 -29 -41 -5 3 -7 1 -4 -4 9 -14 -52 -145 -63 -138 -5 3 -12 0 -16 -6 -4 -8 -3 -9 4 -5 20 12 14 -4 -64 -171 -44 -94 -81 -160 -87 -156 -6 3 -7 1 -3 -5 9 -14 -33 -114 -45 -106 -5 3 -6 -1 -3 -9 3 -8 -1 -21 -8 -28 -7 -8 -14 -21 -16 -29 -2 -8 -8 -17 -13 -18 -5 -2 -7 -8 -4 -12 5 -9 -60 -149 -74 -160 -3 -3 -7 -12 -9 -20 -6 -29 -65 -149 -71 -146 -3 2 -7 -6 -8 -17 0 -12 -48 -119 -106 -237 -57 -118 -107 -223 -110 -233 -4 -11 -12 -15 -19 -11 -8 5 -9 2 -5 -10 7 -18 -62 -168 -74 -160 -4 2 -5 -4 -3 -13 3 -10 -2 -27 -10 -38 -9 -12 -15 -15 -16 -7 0 7 -5 10 -11 6 -8 -4 -7 -9 2 -14 9 -6 3 -28 -27 -93 -21 -47 -43 -83 -48 -80 -5 4 -6 1 -2 -5 7 -12 -13 -62 -26 -62 -4 0 -7 -3 -6 -8 2 -4 -15 -46 -37 -94 -33 -75 -41 -85 -55 -75 -13 10 -13 10 -2 -4 10 -14 7 -27 -18 -80 -16 -35 -30 -58 -30 -51 0 7 -5 10 -11 6 -7 -4 -7 -10 -1 -16 11 -11 -4 -58 -18 -58 -4 0 -7 -6 -7 -12 -2 -32 -31 -121 -35 -108 -3 8 -3 4 -1 -10 2 -14 -8 -165 -23 -335 -29 -339 -36 -570 -16 -550 3 2 13 -2 24 -9 13 -10 30 -11 54 -6 38 9 52 19 126 88 29 28 51 42 59 37 7 -5 10 -4 5 3 -9 15 102 112 123 105 12 -4 13 -3 3 5 -10 7 -4 17 25 42 21 18 66 59 101 91 60 57 81 72 66 47 -4 -7 -3 -8 5 -4 6 4 9 11 6 16 -7 11 20 32 30 22 5 -4 5 -2 2 4 -3 6 32 48 78 93 48 47 99 108 118 142 18 32 37 56 42 52 4 -5 5 -3 2 3 -9 16 33 115 46 107 6 -3 7 -1 3 5 -9 15 84 213 97 205 6 -3 7 -1 3 5 -9 14 135 326 161 350 11 9 12 13 4 7 -10 -7 -13 -7 -10 0 3 6 13 26 21 45 48 105 188 401 206 435 12 22 21 32 22 23 0 -9 -4 -20 -10 -23 -5 -3 -10 -11 -10 -18 0 -6 7 -1 16 11 8 12 13 31 9 41 -6 20 78 202 96 209 5 2 7 8 4 12 -8 13 47 120 58 113 6 -3 7 -1 3 6 -10 15 64 172 77 164 6 -4 7 -1 3 6 -10 16 114 282 127 274 6 -3 7 -1 3 5 -9 14 77 195 89 185 4 -4 5 -3 1 4 -8 15 135 323 148 316 5 -3 6 -1 2 5 -4 6 23 73 59 148 36 75 65 141 65 145 0 15 16 10 33 -9 10 -10 14 -22 10 -27 -5 -4 -3 -5 3 -2 24 14 88 -89 76 -122 -2 -8 0 -11 6 -7 18 11 23 -78 8 -151 -15 -74 -82 -233 -98 -233 -5 0 -7 -4 -3 -9 8 -14 -99 -233 -109 -224 -5 4 -6 2 -1 -6 12 -22 -34 -111 -59 -112 -21 0 -21 -1 -1 -9 12 -5 14 -9 6 -9 -8 -1 -12 -4 -8 -7 9 -10 -14 -64 -26 -57 -5 3 -7 1 -3 -5 8 -13 -24 -83 -36 -76 -4 3 -5 -3 -1 -12 4 -12 3 -15 -5 -10 -7 4 -10 2 -7 -7 3 -7 -21 -70 -54 -139 -71 -147 -101 -222 -101 -247 0 -10 9 -30 21 -45 27 -34 79 -36 112 -3 12 12 24 21 27 20 3 -1 6 8 6 20 1 12 52 130 114 262 62 132 119 257 127 278 12 28 18 35 24 25 7 -9 8 -7 7 7 -3 21 192 456 202 450 3 -2 6 7 6 18 1 12 9 56 19 97 27 121 9 232 -58 350 -18 30 -31 58 -29 62 1 5 -4 7 -11 5 -6 -1 -11 4 -9 11 1 8 -2 11 -7 8 -5 -4 -13 0 -18 7 -4 7 -23 24 -41 36 -23 16 -30 26 -22 31 9 6 9 9 -1 12 -10 3 -8 17 10 61 14 33 28 54 34 50 5 -3 7 -1 4 4 -4 6 5 38 18 72 14 33 25 72 25 86 0 15 4 24 9 20 5 -3 13 0 17 6 4 8 3 9 -4 5 -9 -5 -12 6 -12 36 0 56 -25 153 -50 193 -11 18 -16 36 -12 40 4 5 2 5 -4 2 -12 -7 -51 41 -46 56 1 5 -1 6 -6 3 -5 -3 -18 2 -28 12 -32 29 -156 80 -209 85 -27 3 -76 1 -108 -4z m168 -179 c49 -22 110 -83 100 -101 -6 -8 -4 -10 5 -4 10 6 12 3 8 -13 -4 -12 -2 -20 2 -17 15 9 22 -80 10 -126 -12 -44 -96 -229 -105 -229 -2 0 -16 5 -30 12 -19 8 -22 14 -13 20 9 6 7 8 -7 6 -39 -3 -56 2 -49 14 4 6 3 8 -3 5 -6 -4 -50 10 -97 30 -75 31 -84 38 -73 52 10 14 10 14 -4 4 -13 -11 -27 -8 -77 14 -34 14 -59 30 -56 34 3 5 -2 6 -10 3 -9 -3 -16 -4 -16 -2 0 3 21 50 46 104 47 100 89 158 107 147 6 -3 7 -1 3 5 -9 15 35 43 92 58 54 15 110 10 167 -16z m-458 -471 c-3 -12 0 -16 9 -12 8 3 11 9 8 14 -3 5 2 6 10 3 9 -3 13 -11 9 -17 -4 -6 -1 -7 6 -3 15 10 361 -144 361 -160 0 -28 -40 -105 -51 -98 -8 5 -9 3 -4 -5 7 -13 -22 -91 -35 -91 -4 0 -7 -6 -7 -12 0 -27 -146 -327 -156 -321 -6 4 -7 1 -2 -6 7 -13 -22 -91 -35 -91 -4 0 -7 -6 -7 -13 0 -20 -65 -157 -74 -157 -5 0 -8 -3 -7 -7 1 -5 -2 -20 -6 -35 -6 -19 -13 -25 -24 -21 -13 4 -14 3 -3 -5 10 -8 1 -36 -50 -141 -59 -124 -70 -138 -104 -131 -5 1 -4 -4 2 -11 10 -10 10 -16 0 -28 -11 -14 -10 -14 6 -2 20 16 22 9 6 -21 -9 -17 -13 -18 -21 -7 -7 10 -7 8 -3 -8 4 -14 -1 -38 -13 -60 -22 -43 -133 -280 -183 -393 -30 -66 -34 -71 -41 -49 -6 22 -7 22 -6 -6 2 -38 -11 -77 -23 -70 -5 3 -6 0 -3 -8 6 -15 -62 -159 -77 -165 -5 -2 -7 -7 -4 -12 3 -5 -28 -76 -69 -159 -40 -82 -81 -168 -90 -191 -10 -26 -20 -38 -28 -34 -7 4 -8 3 -4 -5 10 -16 -3 -53 -16 -45 -6 4 -8 2 -5 -3 9 -15 -67 -176 -77 -166 -5 4 -6 3 -3 -3 4 -7 -9 -47 -29 -89 -27 -59 -38 -75 -46 -64 -7 10 -8 8 -3 -9 10 -35 -67 -159 -99 -161 -6 0 -11 -8 -12 -16 -3 -23 -53 -67 -67 -59 -7 4 -9 3 -4 -1 10 -11 -33 -56 -46 -48 -6 3 -7 1 -3 -5 8 -13 -64 -73 -78 -65 -6 3 -8 2 -3 -2 10 -12 -23 -46 -37 -38 -6 3 -8 3 -4 -2 11 -11 -12 -36 -25 -28 -5 3 -7 1 -3 -5 6 -10 -38 -49 -59 -51 -5 -1 -10 -5 -10 -11 0 -5 -26 -32 -58 -61 l-58 -52 6 59 c3 33 12 138 20 234 29 341 26 319 44 312 14 -5 14 -4 2 11 -11 14 -12 25 -3 56 19 62 141 311 152 311 6 0 9 4 5 10 -3 5 18 60 48 122 29 62 95 202 147 310 51 109 97 195 101 192 5 -3 6 3 2 12 -5 13 -3 15 7 9 9 -6 11 -4 5 5 -11 18 86 214 97 197 6 -8 8 -5 6 9 -4 28 142 345 155 337 6 -3 7 -1 3 5 -3 5 15 55 40 109 25 54 57 123 71 153 14 30 62 132 107 225 45 94 113 236 151 316 39 81 73 145 77 142 4 -2 5 4 1 13 -5 13 -3 15 7 9 9 -6 11 -4 5 5 -10 16 85 211 98 203 6 -3 7 -1 3 5 -3 6 11 49 33 96 31 68 43 85 56 80 10 -4 15 -14 12 -25z"/>
<path d="M6093 7834 c4 -7 1 -16 -6 -22 -16 -13 -140 -15 -132 -2 3 6 2 10 -4 10 -5 0 -12 -6 -14 -12 -4 -9 -6 -8 -6 2 -1 12 -3 12 -10 2 -5 -8 -46 -17 -112 -23 -167 -15 -385 -58 -509 -101 -63 -22 -125 -41 -137 -41 -12 -1 -19 -4 -17 -6 3 -3 -28 -20 -67 -39 -57 -26 -74 -31 -81 -20 -7 10 -9 10 -5 -2 5 -18 -78 -74 -95 -64 -7 4 -8 3 -4 -4 18 -29 -84 5 -114 37 -3 4 -9 6 -15 7 -5 0 -38 13 -72 29 -46 20 -60 32 -56 44 4 13 3 13 -5 2 -11 -16 -56 -5 -46 11 4 7 2 8 -4 4 -16 -10 -63 4 -55 17 3 5 1 7 -4 4 -12 -8 -117 26 -108 34 3 4 -6 4 -21 1 -19 -3 -25 -1 -20 6 4 7 2 10 -7 6 -8 -3 -63 6 -123 20 -143 32 -307 54 -474 62 -74 4 -143 7 -153 6 -9 0 -15 3 -13 7 3 4 -1 8 -9 8 -8 0 -12 -4 -9 -9 3 -4 -10 -8 -28 -8 -25 0 -29 3 -18 10 9 6 10 10 3 10 -6 0 -15 -5 -18 -10 -9 -14 -305 -10 -324 4 -11 8 -13 8 -7 -1 5 -10 -9 -13 -61 -13 -41 0 -74 5 -82 13 -11 10 -12 9 -6 -1 5 -11 -7 -13 -59 -10 -36 1 -66 6 -66 10 0 5 -5 8 -11 8 -5 0 -8 -4 -5 -9 3 -5 -35 -9 -85 -10 -72 -1 -89 1 -83 11 6 10 5 10 -7 1 -18 -14 -119 -15 -136 -1 -7 6 -13 6 -13 1 0 -15 -162 -16 -171 -1 -7 10 -9 10 -9 1 0 -9 -20 -13 -66 -13 -38 0 -63 4 -59 9 3 5 1 13 -5 16 -6 4 -9 1 -8 -7 2 -10 -28 -15 -132 -21 -74 -5 -147 -9 -162 -10 -16 -1 -28 -5 -28 -9 0 -5 -7 -8 -16 -8 -19 0 -120 -49 -170 -84 -20 -14 -42 -22 -47 -19 -6 3 -7 1 -3 -5 4 -7 1 -12 -8 -12 -9 0 -15 -3 -14 -7 3 -11 -64 -83 -72 -78 -4 2 -7 -1 -7 -8 0 -21 -69 -127 -78 -119 -5 4 -5 2 -2 -4 4 -6 -2 -36 -13 -67 -34 -95 -40 -179 -40 -555 0 -240 -3 -361 -10 -357 -5 3 -10 2 -10 -4 0 -5 5 -13 10 -16 6 -4 10 -88 10 -220 0 -180 -2 -214 -15 -219 -8 -3 -15 -11 -14 -18 0 -10 2 -10 6 0 11 28 24 9 22 -32 -2 -25 -5 -44 -8 -43 -3 1 -6 -2 -6 -8 0 -5 3 -9 7 -8 5 2 8 -69 8 -158 0 -106 -3 -158 -10 -154 -6 4 -7 11 -4 17 4 6 3 8 -3 5 -5 -3 -7 -22 -5 -43 3 -26 7 -32 14 -23 5 9 8 -7 7 -46 -2 -33 -7 -64 -13 -68 -8 -6 -8 -10 1 -13 8 -4 12 -61 13 -200 0 -124 -3 -193 -9 -190 -5 4 -13 2 -16 -4 -4 -6 -1 -9 7 -8 18 4 23 -52 6 -64 -10 -7 -10 -11 0 -15 17 -7 17 -313 0 -313 -8 0 -9 -3 -3 -8 6 -4 12 -40 13 -81 2 -65 0 -72 -13 -61 -13 11 -14 10 -9 -4 3 -9 10 -16 15 -16 5 0 9 -31 9 -70 0 -40 -4 -70 -10 -70 -5 0 -10 -8 -10 -17 0 -15 2 -16 10 -3 7 11 9 2 9 -30 -1 -40 -2 -42 -8 -15 l-7 30 -5 -32 c-4 -23 -2 -33 8 -33 9 0 13 -14 13 -42 -1 -40 -2 -42 -15 -24 -8 11 -15 15 -15 9 0 -6 7 -16 15 -23 18 -15 20 -60 3 -60 -10 0 -10 -2 -1 -8 16 -10 15 -124 -1 -134 -8 -6 -8 -8 1 -8 9 0 12 -50 13 -200 0 -138 -4 -200 -11 -200 -7 0 -8 -7 -3 -17 4 -10 9 -55 10 -100 3 -74 2 -81 -14 -76 -16 5 -16 5 0 -8 13 -11 17 -40 21 -154 7 -163 26 -246 90 -375 23 -47 42 -87 42 -90 1 -11 24 -44 25 -35 0 5 13 -5 29 -23 19 -20 28 -40 26 -53 -4 -17 -2 -19 10 -9 12 10 18 10 30 0 8 -7 12 -17 8 -24 -3 -6 -3 -8 2 -4 9 9 47 -10 41 -21 -3 -4 5 -13 17 -21 21 -12 21 -12 7 6 -14 17 -13 17 15 -2 40 -26 93 -50 133 -58 18 -4 30 -11 28 -15 -3 -4 5 -7 17 -7 12 0 181 -1 375 -2 232 -1 351 -5 347 -12 -3 -5 -1 -10 4 -10 6 0 11 5 11 10 0 16 343 13 359 -3 11 -9 13 -9 7 1 -5 9 11 12 68 12 41 0 78 -4 81 -10 3 -5 12 -10 18 -10 7 0 6 4 -3 10 -10 7 9 10 62 10 42 0 80 -4 83 -10 3 -5 12 -10 18 -10 7 0 6 4 -3 10 -11 7 0 10 37 10 28 0 55 -5 58 -10 3 -5 12 -10 18 -10 7 0 6 4 -3 10 -10 6 356 10 1043 10 844 0 1057 -3 1051 -13 -6 -9 -5 -9 7 0 12 10 249 13 1042 13 568 1 1025 5 1022 10 -3 4 12 11 34 15 50 8 152 56 213 101 51 36 64 42 52 21 -5 -8 -3 -8 9 2 9 7 15 17 12 21 -7 11 40 52 49 43 4 -5 6 -3 4 2 -4 13 27 56 35 50 4 -3 5 -2 3 1 -3 3 10 29 28 57 54 88 97 193 116 290 21 102 31 438 29 972 -1 332 -1 314 1 340 0 11 1 64 1 119 0 54 2 102 5 107 3 5 2 9 -3 9 -12 0 -15 203 -3 234 5 15 7 25 2 23 -4 -3 -7 96 -7 220 l-1 225 -27 24 c-16 13 -41 24 -57 24 -16 0 -30 6 -33 13 -2 6 -3 4 -1 -6 1 -9 -3 -20 -9 -25 -34 -21 -39 -43 -38 -144 1 -71 -2 -98 -9 -88 -8 13 -10 12 -10 -2 0 -10 5 -18 10 -18 6 0 10 -42 9 -107 0 -70 -3 -101 -9 -88 -8 18 -9 17 -9 -8 -1 -20 3 -26 12 -21 10 6 10 4 0 -7 -7 -7 -13 -18 -13 -23 0 -6 5 -4 10 4 14 22 13 -86 -1 -112 -8 -15 -8 -19 0 -14 8 5 11 -14 11 -63 0 -46 -4 -71 -12 -74 -10 -4 -10 -6 0 -6 18 -1 16 -80 -3 -87 -8 -4 -12 -11 -9 -16 4 -6 10 -5 15 3 6 9 9 -1 9 -29 0 -26 -4 -41 -10 -37 -6 3 -10 -4 -10 -17 0 -18 2 -20 10 -8 8 12 10 10 10 -8 0 -13 -4 -20 -10 -17 -14 9 -12 -9 3 -24 6 -7 8 -11 2 -9 -12 4 -15 -5 -14 -34 1 -22 1 -22 9 2 7 23 8 21 9 -12 1 -20 -4 -39 -11 -41 -10 -4 -10 -6 0 -6 14 -1 17 -31 2 -31 -6 0 -10 -26 -10 -57 0 -41 3 -54 10 -43 6 9 10 10 10 3 0 -6 -4 -15 -10 -18 -6 -3 -10 -12 -10 -18 0 -7 4 -6 10 3 8 12 10 9 10 -13 0 -20 -4 -26 -12 -21 -8 5 -7 0 2 -11 8 -10 10 -16 4 -12 -7 4 -14 -2 -17 -14 -3 -12 0 -22 9 -26 11 -4 12 -9 4 -18 -8 -10 -8 -19 2 -35 11 -17 11 -22 -2 -30 -11 -8 -12 -12 -3 -18 8 -5 9 -13 3 -22 -6 -8 -10 -19 -10 -25 0 -5 5 -3 10 5 7 10 10 -7 10 -58 0 -40 -4 -71 -8 -68 -4 2 -9 -9 -10 -25 -1 -16 2 -29 8 -29 5 0 10 -10 9 -22 0 -22 -1 -22 -9 -3 -6 14 -9 5 -9 -35 0 -40 3 -49 9 -35 16 36 11 -107 -5 -160 -9 -27 -27 -67 -41 -88 -22 -34 -27 -37 -42 -25 -16 12 -16 11 -2 -6 13 -16 12 -20 -10 -37 -14 -11 -37 -30 -52 -44 -38 -33 -86 -57 -100 -49 -7 4 -8 3 -4 -4 4 -7 -13 -18 -46 -29 -47 -15 -105 -17 -538 -18 -285 -1 -493 2 -504 8 -13 6 -16 6 -12 -2 4 -6 0 -11 -8 -11 -9 0 -16 5 -16 10 0 6 -5 10 -11 10 -5 0 -8 -4 -4 -10 6 -10 -131 -7 -142 3 -11 12 -24 7 -17 -5 5 -10 4 -10 -6 -1 -9 8 -19 9 -31 3 -11 -6 -27 -7 -42 -1 -14 6 -28 7 -31 3 -10 -9 -37 -11 -31 -2 3 5 1 11 -5 15 -5 3 -10 0 -10 -8 0 -12 -25 -14 -152 -12 -195 4 -190 3 -183 14 3 5 1 13 -5 16 -6 4 -9 1 -8 -7 2 -9 -10 -13 -42 -14 -455 -15 -558 -28 -760 -91 -47 -15 -102 -26 -122 -26 -21 0 -36 -3 -33 -7 3 -5 -1 -11 -7 -13 -9 -4 -10 -6 -1 -6 6 -1 15 4 18 9 3 6 16 10 28 9 17 0 12 -5 -18 -18 -22 -10 -46 -16 -54 -13 -8 3 -12 1 -8 -5 3 -5 -12 -20 -33 -32 l-40 -22 0 158 c-2 3470 -2 4334 1 4337 76 54 283 151 300 141 5 -4 9 -2 9 3 0 13 145 56 165 49 10 -5 14 -3 9 5 -5 7 0 9 14 6 12 -4 20 -3 17 1 -2 5 26 13 63 20 224 39 246 40 1187 42 998 2 965 1 959 10 -2 4 5 14 16 24 44 40 11 126 -53 141 -17 4 -139 7 -269 6 -175 0 -238 3 -238 11 0 7 -4 6 -10 -3 -6 -10 -10 -11 -10 -2 0 6 -8 12 -17 12 -15 0 -16 -2 -3 -10 9 -5 -42 -9 -140 -9 -109 0 -157 4 -162 12 -6 9 -8 9 -8 0 0 -8 -14 -13 -34 -13 -35 0 -55 14 -36 23 6 3 5 4 -2 3 -7 -2 -12 -8 -11 -14 2 -8 -42 -11 -142 -11 -80 0 -144 3 -142 7 2 8 -7 12 -25 12 -9 0 -8 -3 2 -10 9 -6 -12 -9 -65 -9 -57 0 -75 3 -65 10 11 8 8 9 -12 5 -14 -3 -28 -3 -31 2 -2 4 -2 2 -1 -5 2 -9 -16 -12 -64 -10 -43 1 -67 6 -67 14 0 6 -4 15 -9 20 -5 4 -6 3 -3 -3z m-2278 -218 c66 -3 176 -14 245 -25 149 -25 361 -77 371 -92 3 -6 9 -10 13 -10 21 3 37 0 33 -6 -3 -5 7 -8 22 -9 28 -1 202 -79 212 -96 3 -5 9 -9 13 -9 16 2 23 -1 46 -20 14 -11 19 -17 11 -13 -11 5 -10 1 2 -16 16 -23 17 -189 17 -2267 0 -1234 -2 -2243 -5 -2243 -2 0 -10 6 -17 13 -38 38 -226 132 -318 158 -25 7 -47 15 -50 19 -3 3 -9 5 -15 5 -5 0 -32 4 -60 9 -41 7 -46 10 -30 17 17 8 16 9 -5 5 -14 -3 -84 1 -155 9 -77 9 -228 15 -371 15 -178 0 -243 3 -253 13 -11 10 -13 10 -7 0 6 -10 -68 -13 -353 -13 -375 0 -366 -1 -362 40 2 13 0 13 -8 1 -5 -8 -7 -20 -4 -28 4 -10 -11 -13 -70 -13 -42 0 -79 5 -82 10 -8 13 -45 13 -45 0 0 -6 -93 -9 -240 -10 -185 0 -240 3 -240 13 0 9 -2 9 -8 0 -9 -14 -110 -11 -167 6 -57 16 -140 65 -137 80 1 7 -1 10 -6 7 -25 -15 -120 126 -137 202 -11 52 -15 3786 -4 3867 13 92 56 182 120 250 29 30 56 55 61 55 5 0 6 -4 3 -10 -3 -6 1 -7 10 -3 11 4 13 8 5 13 -27 17 88 69 175 78 64 8 1591 6 1790 -2z m4264 -4602 c-7 -27 -28 -82 -47 -122 -39 -78 -127 -186 -147 -178 -6 2 -18 0 -26 -6 -11 -8 -9 -8 6 -4 17 5 16 3 -5 -15 -57 -48 -195 -98 -240 -86 -11 3 -18 1 -15 -4 4 -5 -44 -6 -112 -3 -65 2 -203 5 -308 5 -134 0 -192 4 -197 12 -5 8 -8 9 -8 1 0 -7 -31 -12 -86 -13 -65 -2 -84 1 -78 10 5 9 3 9 -7 3 -21 -14 -133 -14 -141 -1 -5 8 -8 9 -8 1 0 -15 -146 -19 -155 -4 -5 8 -11 8 -21 -1 -11 -9 -14 -8 -14 2 0 11 -2 11 -9 0 -8 -12 -12 -12 -25 -2 -9 8 -16 9 -16 4 0 -6 -78 -10 -195 -11 -116 0 -195 3 -195 9 0 5 -12 9 -27 9 -22 0 -25 -2 -13 -10 12 -8 9 -10 -12 -10 -16 0 -28 6 -28 13 0 8 -3 8 -8 2 -10 -15 -133 -17 -151 -2 -11 9 -13 9 -8 0 11 -17 -720 -18 -742 0 -12 9 -13 9 -7 0 5 -9 -1 -13 -21 -14 -15 0 -38 -2 -50 -5 -15 -2 -23 1 -23 9 0 19 45 59 55 50 4 -5 5 -3 1 4 -15 27 242 166 311 167 17 1 29 4 27 7 -4 8 119 36 216 50 41 5 119 9 173 8 54 -1 100 1 103 4 3 2 21 1 40 -3 19 -4 34 -4 34 1 0 10 44 6 73 -6 9 -4 23 -3 30 2 10 8 112 9 177 3 8 -1 34 1 56 5 28 4 44 3 49 -5 6 -9 10 -9 17 1 7 11 11 11 15 1 2 -6 9 -10 14 -6 17 10 149 10 150 -1 0 -6 2 -7 5 0 2 6 44 8 109 5 58 -3 105 -3 105 0 0 3 45 5 99 5 55 0 97 -3 95 -7 -2 -4 9 -3 25 2 16 4 32 6 34 4 6 -7 236 -10 232 -4 -2 3 25 4 58 2 34 -1 71 -2 82 -1 19 1 42 1 83 -1 9 0 46 -1 82 -2 36 0 74 -1 85 -1 39 -1 181 14 230 25 28 6 72 21 99 34 27 13 54 21 60 17 6 -3 8 -2 3 2 -9 10 43 46 55 39 5 -3 7 -1 6 5 -3 10 54 63 60 56 2 -1 -2 -24 -9 -51z m-6397 4 c-2 -7 0 -10 3 -6 4 4 27 -6 52 -23 52 -36 129 -71 198 -89 40 -11 262 -14 1105 -15 580 -1 1078 -5 1105 -9 82 -12 159 -28 170 -34 5 -3 20 -7 33 -8 61 -7 232 -74 232 -92 0 -4 9 -8 21 -9 28 -2 168 -117 157 -129 -2 -1 -25 -6 -51 -9 -40 -6 -51 -4 -63 12 -11 14 -13 14 -8 2 4 -14 0 -16 -36 -9 -22 4 -43 4 -45 0 -3 -5 -31 -6 -62 -3 -69 6 -122 5 -160 -1 -15 -3 -34 0 -42 7 -12 9 -13 9 -7 0 4 -8 1 -13 -9 -13 -9 0 -14 4 -11 8 3 5 -15 7 -40 4 -25 -2 -50 1 -58 7 -10 9 -16 9 -21 1 -4 -7 -19 -9 -36 -5 -16 4 -29 3 -29 -2 0 -13 -61 -7 -70 7 -6 9 -9 9 -15 1 -4 -7 -16 -9 -27 -5 -13 4 -24 1 -29 -7 -5 -8 -9 -9 -9 -4 0 6 -17 9 -40 7 -25 -3 -40 0 -40 7 0 6 -4 11 -10 11 -5 0 -7 -8 -3 -17 5 -15 3 -16 -7 -6 -10 9 -17 10 -27 2 -9 -8 -17 -8 -27 0 -9 8 -16 8 -20 2 -5 -7 -15 -7 -32 -1 -17 7 -23 7 -19 0 3 -6 1 -10 -4 -10 -6 0 -11 3 -11 8 0 7 -96 6 -117 -2 -7 -3 -19 2 -28 10 -8 9 -15 11 -15 5 0 -6 -27 -10 -70 -8 -38 1 -70 6 -70 11 0 6 -5 5 -12 -2 -17 -17 -28 -15 -29 6 -1 15 -2 15 -6 1 -5 -21 -38 -30 -52 -16 -7 7 -11 7 -11 1 0 -5 -11 -10 -25 -10 -14 0 -25 4 -25 9 0 4 -4 6 -9 2 -5 -3 -13 -1 -16 5 -5 8 -11 7 -21 -1 -7 -6 -21 -9 -29 -5 -9 3 -13 2 -10 -4 10 -17 -7 -11 -22 8 -8 9 -12 12 -9 5 9 -18 -11 -25 -26 -10 -12 14 -52 11 -43 -3 2 -4 -9 -7 -25 -6 -17 1 -30 4 -30 9 0 4 -5 7 -11 7 -5 0 -8 -4 -4 -9 5 -10 -6 -9 -67 5 -17 3 -28 1 -28 -5 0 -6 -11 -11 -25 -11 -14 0 -25 4 -25 8 0 5 -7 9 -15 9 -8 0 -15 -4 -15 -8 0 -4 -13 -7 -30 -7 -17 1 -27 5 -23 11 4 6 1 7 -8 1 -20 -13 -81 -15 -73 -2 4 7 0 7 -12 0 -11 -6 -21 -11 -24 -13 -3 -1 -15 3 -27 9 -12 7 -24 9 -27 4 -5 -9 -70 -7 -85 3 -6 3 -11 1 -11 -4 0 -16 -37 -13 -65 5 -14 9 -25 12 -25 6 0 -6 6 -13 13 -15 22 -10 -68 -7 -101 2 -17 5 -32 6 -32 2 0 -4 -43 -8 -96 -10 -53 -1 -94 1 -91 6 3 5 -11 7 -31 5 -41 -4 -156 34 -147 49 4 5 -1 6 -9 3 -9 -4 -41 20 -89 68 -92 91 -127 159 -162 312 -6 29 -6 29 17 13 13 -8 22 -21 20 -29z"/>
<path d="M6294 6703 c3 -15 -1 -23 -10 -23 -8 0 -14 5 -14 11 0 5 -4 8 -9 5 -5 -4 -11 0 -14 6 -3 10 -8 10 -18 -1 -9 -9 -9 -11 -1 -7 7 5 12 1 12 -9 0 -12 -6 -15 -22 -9 -13 4 -26 12 -30 18 -6 8 -10 8 -16 -1 -9 -14 -68 -13 -91 1 -10 6 -12 5 -7 -2 5 -8 -4 -12 -29 -12 -20 0 -34 4 -31 9 3 5 -3 11 -14 14 -22 6 -28 -8 -7 -17 6 -2 -22 -4 -63 -4 -56 1 -78 5 -87 17 -12 15 -13 14 -7 -1 5 -15 -6 -17 -100 -20 -58 -2 -106 1 -106 5 0 5 -12 -6 -27 -25 -15 -18 -30 -35 -33 -38 -11 -11 -4 -56 12 -72 27 -27 75 -48 94 -41 13 5 15 3 9 -8 -6 -11 -5 -11 5 -2 10 9 16 9 26 -2 8 -7 22 -12 31 -10 10 2 36 4 58 5 39 2 39 3 10 10 -30 8 -30 8 8 9 23 1 36 -3 32 -9 -3 -5 -2 -10 4 -10 5 0 13 5 16 10 3 6 23 10 43 9 30 0 33 -2 17 -9 -11 -5 -15 -9 -10 -10 6 -1 18 -3 28 -5 13 -2 17 1 13 11 -4 10 2 14 20 14 14 0 22 -4 19 -10 -3 -5 -1 -10 4 -10 6 0 11 6 11 13 0 8 3 8 9 -2 5 -8 21 -15 36 -16 22 -1 24 1 10 11 -13 9 -2 12 52 11 46 0 58 -2 38 -7 l-30 -6 30 -5 c17 -2 39 -3 50 0 l20 4 -20 8 c-15 6 -10 8 21 8 22 1 44 -3 50 -8 12 -13 91 -17 101 -6 4 4 3 5 -4 1 -6 -3 -14 -2 -18 3 -3 6 24 10 70 10 41 0 75 -4 75 -9 0 -4 -10 -6 -22 -4 -21 4 -21 4 -3 -4 25 -11 63 -3 43 9 -9 6 -3 9 17 9 21 0 26 -3 16 -9 -20 -13 0 -19 39 -13 l35 6 -30 7 c-19 4 0 7 57 8 55 1 88 -3 90 -10 2 -6 17 -11 33 -11 98 2 145 6 134 12 -6 4 27 9 74 11 74 4 89 7 111 28 52 49 24 120 -54 136 -19 4 -71 8 -115 7 -52 0 -73 3 -60 8 16 7 17 9 3 9 -9 1 -20 -4 -23 -9 -3 -6 -17 -8 -31 -6 -13 3 -24 0 -24 -5 0 -5 -9 -9 -21 -9 -15 0 -19 4 -15 16 5 13 4 14 -7 6 -8 -7 -17 -9 -20 -5 -4 3 -7 2 -7 -4 0 -12 -38 -6 -57 10 -9 6 -13 6 -13 -2 0 -15 -67 -14 -74 2 -3 9 -8 8 -19 -5 -15 -19 -44 -18 -58 3 -7 12 -9 12 -9 -1 0 -13 -1 -13 -10 0 -8 13 -10 13 -10 -1 0 -12 -7 -15 -27 -11 l-28 6 25 6 c22 6 21 7 -12 11 -27 4 -38 1 -38 -8 0 -20 -48 -16 -53 5 -4 14 -5 14 -6 -3 -1 -17 -3 -18 -11 -5 -8 12 -10 12 -11 -5 0 -16 -4 -14 -15 10 -11 22 -14 24 -10 8z"/>
<path d="M5740 5830 c10 -7 -7 -10 -58 -10 -71 0 -73 -1 -92 -32 -11 -18 -20 -45 -20 -59 0 -30 35 -66 70 -71 14 -1 26 -9 26 -15 3 -26 4 -27 17 -10 10 14 31 17 112 18 55 1 118 0 140 0 22 -1 49 0 60 2 12 3 23 -3 27 -12 6 -14 7 -14 7 0 1 13 16 15 113 12 72 -3 115 -8 120 -16 5 -8 8 -8 8 -1 0 15 68 26 90 14 10 -5 21 -6 25 -2 3 4 68 7 143 8 75 0 147 4 160 8 23 8 52 53 52 81 0 9 -13 30 -29 46 -29 29 -31 29 -148 30 -79 1 -107 4 -83 9 33 7 32 8 -13 7 -29 0 -43 -4 -35 -8 7 -5 -34 -8 -92 -8 -70 1 -95 4 -75 9 30 8 30 8 -8 9 -23 1 -36 -3 -32 -9 4 -6 -13 -10 -44 -10 -28 0 -51 5 -51 10 0 6 -5 10 -11 10 -5 0 -7 -4 -4 -10 4 -7 -57 -10 -177 -10 -122 0 -178 4 -168 10 12 7 8 10 -15 10 -23 0 -27 -3 -15 -10z"/>
<path d="M5718 4974 c-6 -5 -84 -15 -123 -16 -11 0 -15 -2 -8 -5 8 -3 6 -14 -7 -37 -19 -32 -19 -32 1 -74 17 -33 26 -42 48 -42 155 -1 671 1 688 2 12 1 20 5 18 9 -3 3 2 15 10 25 19 26 19 64 -2 93 -10 15 -11 21 -3 16 8 -5 11 -4 6 3 -3 6 -14 11 -24 10 -9 0 -41 4 -69 10 -29 5 -53 6 -53 2 0 -8 -136 -4 -150 5 -6 3 -10 2 -10 -3 0 -10 -290 -10 -306 0 -6 4 -14 5 -16 2z"/>
</g>
</svg>
