<?xml version="1.0" standalone="no"?>
<!DOCTYPE svg PUBLIC "-//W3C//DTD SVG 20010904//EN"
 "http://www.w3.org/TR/2001/REC-SVG-20010904/DTD/svg10.dtd">
<svg version="1.0" xmlns="http://www.w3.org/2000/svg"
 width="1024.000000pt" height="1024.000000pt" viewBox="0 0 1024.000000 1024.000000"
 preserveAspectRatio="xMidYMid meet">
<metadata>
Created by potrace 1.16, written by Peter Selinger 2001-2019
</metadata>
<g transform="translate(0.000000,1024.000000) scale(0.100000,-0.100000)"
fill="#000000" stroke="none">
<path d="M5232 8490 c-12 -5 -39 -21 -59 -35 -28 -19 -39 -22 -46 -12 -6 8 -7
7 -3 -5 6 -20 -59 -82 -76 -72 -6 4 -8 3 -5 -3 8 -13 -222 -209 -241 -205 -8
2 -11 -1 -8 -6 7 -12 -38 -54 -48 -45 -4 5 -6 1 -4 -7 1 -8 -3 -14 -9 -12 -7
1 -13 -2 -13 -7 0 -14 -198 -182 -218 -185 -9 -2 -17 -8 -17 -15 0 -15 -45
-50 -59 -47 -6 2 -7 1 -2 -2 14 -8 -76 -81 -93 -75 -12 4 -13 2 -3 -4 9 -7 1
-18 -30 -44 -24 -19 -46 -33 -50 -31 -5 1 -7 -1 -5 -6 4 -15 -80 -82 -97 -76
-9 3 -16 1 -16 -6 0 -6 6 -8 13 -5 6 4 -7 -12 -31 -35 -24 -23 -47 -38 -54
-34 -6 4 -8 3 -5 -4 9 -13 -111 -114 -125 -105 -6 3 -8 2 -5 -4 6 -9 -12 -30
-57 -63 -11 -8 -17 -10 -13 -3 4 6 3 14 -2 18 -6 3 -8 -3 -6 -14 4 -22 -66
-86 -80 -73 -5 4 -5 2 -2 -4 7 -12 -119 -121 -135 -116 -5 1 -7 -2 -4 -7 8
-12 -18 -33 -35 -29 -8 2 -13 -2 -12 -9 4 -17 -196 -185 -209 -177 -6 4 -8 3
-5 -3 8 -13 -34 -53 -59 -58 -11 -1 -18 -8 -17 -14 3 -12 -50 -54 -73 -57 -9
-1 -19 -6 -22 -10 -4 -4 2 -4 13 -1 11 4 1 -10 -24 -32 -26 -23 -51 -37 -60
-34 -12 4 -13 3 -3 -4 10 -8 4 -17 -25 -39 -21 -16 -42 -28 -46 -26 -5 1 -6
-1 -3 -6 3 -5 -13 -24 -35 -42 -57 -45 -87 -118 -95 -225 -5 -60 -10 -82 -18
-76 -7 6 -11 1 -13 -16 -1 -19 1 -22 8 -12 6 9 8 1 8 -26 -1 -34 -2 -36 -9
-15 -5 16 -7 -1 -7 -50 1 -110 -54 -589 -67 -586 -6 2 -8 1 -3 -1 4 -3 7 -23
7 -44 0 -22 -3 -38 -7 -36 -5 3 -8 -23 -9 -57 -1 -76 -66 -650 -74 -654 -4 -1
-5 -15 -3 -30 2 -15 -15 -178 -37 -362 -22 -184 -40 -344 -40 -355 0 -11 -7
-78 -16 -150 -24 -199 -22 -219 20 -304 21 -40 32 -70 27 -66 -6 3 -11 1 -11
-4 0 -6 6 -11 13 -11 14 0 19 -9 102 -164 32 -60 53 -106 47 -102 -17 10 -15
-7 3 -30 15 -19 15 -19 9 1 -8 27 22 -22 79 -126 25 -47 44 -89 40 -93 -3 -3
-1 -6 5 -6 16 0 64 -98 56 -112 -4 -6 -3 -8 3 -5 13 8 76 -109 67 -125 -4 -7
-3 -8 4 -4 13 8 34 -27 27 -46 -3 -7 4 -26 15 -43 11 -16 20 -26 20 -22 0 4
-7 19 -16 33 -9 13 -15 27 -12 29 2 2 22 -28 44 -68 48 -88 49 -92 35 -83 -6
4 -11 2 -11 -3 0 -6 7 -11 16 -11 8 0 13 -4 10 -9 -4 -5 0 -12 6 -14 10 -4 9
-8 -2 -16 -13 -9 -12 -11 5 -11 14 0 30 -18 53 -60 25 -45 28 -58 16 -53 -12
4 -15 3 -10 -5 4 -7 13 -12 20 -12 8 0 31 -33 52 -72 20 -40 31 -67 22 -61
-12 10 -15 10 -15 -2 0 -8 4 -12 8 -9 11 7 51 -35 44 -46 -3 -4 0 -10 6 -12 6
-2 13 -15 14 -28 1 -14 3 -31 4 -37 0 -7 6 -13 11 -13 7 0 7 6 0 20 -6 11 -9
20 -6 20 11 0 76 -132 70 -142 -5 -7 -2 -8 6 -3 10 6 12 4 7 -8 -4 -10 -2 -16
5 -14 6 1 13 -4 16 -12 2 -8 0 -11 -6 -7 -6 3 -13 2 -16 -3 -4 -5 2 -8 11 -7
11 2 34 -15 56 -41 43 -47 100 -85 176 -114 47 -17 108 -19 1155 -25 609 -3
1131 -3 1161 1 44 5 75 20 170 81 64 41 121 71 127 68 7 -4 8 -2 4 4 -8 13 23
31 43 24 8 -3 11 0 7 6 -6 11 97 88 125 94 8 2 20 11 28 21 7 10 19 16 27 13
8 -3 13 -2 11 3 -1 4 61 50 138 102 170 114 183 133 201 284 6 55 20 169 30
253 9 83 21 152 24 152 4 0 5 10 3 23 -2 12 16 186 41 387 25 201 64 516 86
700 23 184 61 497 85 695 42 338 98 802 131 1085 8 68 12 138 8 155 -3 16 -33
81 -65 143 -33 63 -55 111 -50 107 6 -3 11 -1 11 4 0 6 -7 11 -15 11 -18 0
-77 113 -69 133 3 8 1 18 -5 22 -7 3 -8 0 -5 -9 14 -36 -8 -12 -31 34 -14 28
-23 50 -20 50 3 0 -4 9 -16 21 -11 11 -18 27 -15 35 3 8 2 13 -2 10 -9 -6
-145 238 -145 260 0 8 -3 12 -5 9 -9 -9 -43 56 -36 68 4 7 3 9 -1 4 -12 -11
-75 104 -70 128 3 11 2 14 -1 7 -4 -9 -14 -1 -29 24 -13 21 -21 43 -18 48 4 5
2 6 -4 3 -11 -7 -239 249 -235 264 1 6 -2 8 -7 5 -13 -8 -83 73 -75 86 4 6 3
8 -3 5 -14 -9 -115 101 -107 115 4 6 2 8 -3 5 -14 -9 -315 322 -306 336 3 5 1
7 -5 4 -5 -4 -22 7 -37 24 -14 18 -63 72 -108 121 -45 49 -81 93 -79 99 1 5
-2 8 -7 7 -4 -2 -79 74 -165 167 -175 189 -195 208 -248 236 -40 20 -134 25
-176 9z m177 -261 c42 -45 75 -86 74 -90 -2 -5 1 -8 5 -6 4 1 69 -64 144 -144
111 -120 135 -152 133 -173 -2 -14 1 -24 5 -21 5 3 7 13 4 23 -3 9 15 -5 40
-31 25 -27 43 -54 39 -60 -3 -5 -2 -7 4 -4 12 8 77 -58 70 -70 -3 -5 -1 -15 5
-23 8 -12 8 -11 3 5 -4 14 6 8 34 -19 22 -22 38 -43 35 -48 -3 -5 0 -7 8 -6 7
2 13 -5 13 -16 0 -10 10 -22 21 -27 25 -9 120 -116 116 -131 -1 -5 2 -7 6 -4
11 6 118 -114 114 -127 -1 -5 1 -6 6 -3 14 8 176 -175 167 -188 -3 -3 -2 -4 2
-1 10 8 33 -16 26 -28 -3 -5 -1 -7 4 -4 13 8 65 -57 55 -68 -4 -3 -1 -5 6 -3
8 1 23 -9 34 -23 16 -22 18 -30 9 -48 -7 -12 -17 -18 -23 -15 -6 4 -8 3 -5 -3
8 -12 -199 -269 -214 -265 -6 1 -7 -2 -4 -8 9 -14 -34 -62 -48 -53 -6 3 -7 1
-3 -6 10 -15 -13 -43 -27 -34 -5 3 -7 1 -4 -5 4 -5 -11 -33 -33 -61 -29 -36
-45 -49 -57 -45 -14 5 -15 4 -4 -4 12 -8 -1 -29 -63 -106 -43 -53 -83 -93 -89
-89 -5 3 -7 2 -4 -4 9 -14 -22 -55 -35 -47 -6 4 -8 2 -5 -3 9 -14 -32 -65 -44
-57 -6 3 -9 -1 -7 -9 2 -12 -136 -197 -147 -197 -2 0 -1 9 2 20 3 11 1 20 -4
20 -6 0 -9 -12 -7 -26 2 -20 -12 -45 -53 -95 -30 -38 -59 -66 -64 -63 -5 3 -6
-1 -3 -9 3 -8 -6 -23 -20 -35 -14 -11 -26 -23 -26 -27 0 -13 -52 -74 -62 -72
-6 1 -12 -6 -13 -16 -5 -26 -25 -48 -38 -40 -5 3 -7 2 -4 -4 9 -14 -22 -55
-35 -47 -7 4 -8 2 -4 -5 9 -14 -53 -88 -68 -83 -6 2 -8 0 -4 -3 4 -4 -13 -34
-39 -66 -37 -47 -50 -58 -69 -55 -35 7 -115 57 -108 68 3 5 0 8 -7 6 -22 -4
-150 72 -143 84 4 7 2 8 -4 4 -7 -4 -77 31 -159 80 -82 48 -167 98 -191 112
-23 13 -40 28 -37 33 4 5 -2 6 -11 2 -13 -5 -15 -3 -9 7 5 8 4 11 -3 6 -6 -3
-84 37 -174 90 -90 54 -193 115 -231 137 -37 21 -65 43 -62 48 4 5 -2 6 -11 2
-13 -5 -15 -3 -9 7 5 8 4 11 -3 6 -6 -3 -38 10 -72 30 -44 27 -58 40 -48 46 9
7 7 8 -7 6 -11 -2 -26 3 -33 12 -10 11 -12 11 -6 1 7 -14 -28 4 -96 49 -14 9
-55 33 -93 54 -40 22 -65 42 -61 48 4 7 2 8 -4 4 -15 -9 -155 72 -147 84 4 6
-2 7 -11 3 -12 -4 -15 -3 -10 6 5 8 3 11 -5 10 -8 -2 -33 7 -57 20 -33 17 -42
26 -37 39 5 13 3 14 -6 5 -14 -14 -42 -6 -32 10 3 5 2 7 -4 4 -13 -8 -135 68
-125 78 4 5 2 5 -5 1 -7 -4 -24 1 -39 10 -24 16 -25 19 -9 31 10 7 22 10 28 6
6 -3 7 -1 4 4 -7 12 208 200 224 195 5 -1 8 2 7 7 -4 14 313 281 325 274 6 -3
7 -1 4 4 -9 14 29 47 44 37 7 -4 10 -3 5 4 -7 12 91 99 106 94 5 -1 7 2 4 7
-8 12 34 42 46 35 5 -3 7 -1 6 5 -4 15 133 132 145 124 6 -3 7 -1 3 5 -8 13
43 54 57 45 5 -3 7 -2 4 4 -8 13 260 246 274 238 5 -4 8 -1 7 6 -4 16 501 450
515 442 5 -3 7 -2 4 4 -7 11 189 186 209 186 7 0 11 4 8 8 -7 12 59 59 85 59
18 0 45 -23 100 -81z m1331 -1529 c11 -23 18 -45 15 -51 -4 -5 -1 -8 5 -7 14
4 141 -222 135 -240 -3 -7 -1 -10 4 -7 5 3 24 -23 41 -57 18 -35 49 -92 70
-128 21 -36 35 -70 33 -77 -3 -6 0 -20 7 -30 9 -16 10 -15 5 7 -6 25 65 -92
111 -182 31 -61 31 -105 -1 -368 -14 -113 -25 -214 -26 -225 -1 -16 -2 -16 -8
5 -4 14 -7 -14 -8 -65 0 -50 -26 -290 -56 -535 -31 -245 -72 -578 -92 -740
-73 -592 -81 -651 -89 -643 -5 4 -5 -2 -1 -15 6 -21 -2 -111 -25 -272 -5 -36
-16 -130 -25 -210 -9 -80 -21 -153 -26 -163 -5 -10 -7 -22 -4 -28 10 -16 -26
-262 -42 -287 -9 -14 -20 -21 -29 -18 -8 3 -13 2 -9 -3 8 -15 -51 -52 -72 -45
-13 4 -15 3 -4 -4 16 -12 -3 -27 -21 -16 -6 4 -8 3 -4 -4 7 -11 -57 -55 -80
-55 -8 0 -12 -3 -9 -5 10 -11 -100 -81 -120 -77 -11 3 -14 2 -7 -1 8 -4 -2
-16 -28 -35 -22 -16 -42 -29 -46 -29 -3 0 -21 -12 -39 -26 -20 -15 -39 -23
-46 -18 -7 4 -9 3 -6 -3 4 -6 -12 -23 -34 -38 -23 -15 -38 -22 -35 -17 3 6 2
12 -3 14 -13 4 -104 367 -97 385 3 8 2 12 -2 9 -5 -3 -17 30 -26 72 -25 109
-118 497 -183 762 -159 655 -193 807 -188 830 3 15 2 20 -3 12 -10 -15 -36 84
-25 100 3 6 2 8 -3 5 -6 -3 -16 20 -23 51 -7 31 -35 148 -62 259 -27 111 -46
210 -42 219 4 10 2 15 -3 11 -12 -7 -88 298 -79 313 3 6 2 10 -4 10 -5 0 -12
18 -16 39 -6 38 -4 43 75 140 45 56 85 99 90 96 5 -3 12 0 16 6 5 8 3 9 -6 4
-27 -16 -1 19 149 204 85 105 158 188 164 184 6 -3 7 -1 3 5 -6 10 147 212
161 212 3 0 0 -6 -6 -14 -9 -11 -9 -16 0 -22 7 -4 9 -3 5 4 -3 6 -2 13 4 17 6
4 8 10 5 15 -8 14 185 251 198 243 6 -3 7 -1 3 5 -9 15 103 154 117 145 6 -3
7 -1 3 5 -9 15 273 364 287 355 6 -4 7 -1 3 6 -7 10 18 51 30 51 2 0 13 -18
24 -40z m-3626 -392 c-4 -7 -2 -8 4 -4 16 10 54 -12 46 -26 -4 -7 -3 -8 4 -4
13 8 123 -54 116 -65 -2 -4 1 -11 7 -15 8 -4 9 -3 5 4 -9 15 -1 15 25 1 11 -5
17 -14 14 -19 -3 -6 1 -7 9 -4 9 3 16 1 16 -5 0 -6 3 -10 8 -9 16 3 41 -15 35
-26 -3 -6 -3 -8 2 -4 7 7 85 -27 85 -38 0 -2 -9 0 -19 6 -25 13 -28 13 -28 -3
0 -8 11 -12 31 -11 24 2 97 -37 341 -183 171 -102 313 -190 316 -195 3 -5 9
-9 13 -7 15 4 86 -43 80 -53 -4 -6 -2 -8 4 -5 15 10 43 -3 35 -16 -3 -6 -1 -7
5 -3 13 8 64 -22 57 -34 -3 -4 2 -11 11 -14 10 -4 13 -2 8 6 -4 6 11 1 34 -12
23 -13 39 -27 36 -31 -2 -4 1 -11 7 -15 8 -4 9 -3 5 4 -11 18 -1 15 58 -21 31
-19 53 -37 48 -42 -4 -5 -2 -5 5 -1 15 8 103 -44 103 -61 0 -7 5 -13 11 -13 5
0 7 5 3 11 -4 8 0 7 15 -1 12 -6 19 -15 16 -20 -4 -6 1 -7 11 -3 10 4 15 2 11
-4 -3 -5 0 -10 7 -10 19 0 126 -63 126 -74 0 -6 4 -8 8 -5 12 7 63 -29 55 -39
-5 -4 -3 -5 4 -2 15 10 155 -72 146 -85 -3 -7 -1 -8 6 -4 14 9 148 -69 161
-95 13 -24 12 -31 -2 -24 -7 4 -6 1 2 -7 18 -15 92 -307 87 -340 -2 -13 -2
-16 1 -8 4 13 136 -499 157 -609 6 -32 5 -34 -11 -20 -16 13 -16 12 -5 -9 7
-12 15 -20 20 -18 11 7 103 -381 96 -407 -4 -15 -3 -18 3 -9 11 16 46 -133 36
-151 -4 -7 -3 -9 1 -4 5 4 33 -93 62 -215 68 -288 66 -276 53 -258 -7 11 -10
11 -10 2 0 -7 7 -15 16 -19 9 -3 14 -13 11 -24 -3 -11 -2 -19 3 -19 11 0 27
-99 24 -152 -2 -26 2 -51 8 -54 7 -5 9 2 6 20 -3 15 -2 24 2 19 4 -4 11 -24
14 -43 3 -19 3 -29 0 -22 -3 6 -9 12 -14 12 -4 0 -3 -11 3 -24 7 -14 14 -20
18 -15 5 9 43 -137 44 -171 1 -8 3 -20 7 -25 13 -22 19 -73 9 -79 -6 -4 -7
-14 -4 -23 6 -15 7 -14 15 3 7 15 7 13 5 -8 -3 -16 -1 -28 4 -28 16 0 23 -72
8 -82 -11 -8 -11 -9 2 -5 13 4 20 -5 28 -38 6 -24 8 -51 4 -61 -4 -11 -3 -15
4 -11 13 8 26 -55 18 -86 -4 -14 -3 -18 3 -9 6 9 13 -5 21 -44 11 -47 11 -58
0 -65 -18 -11 -1792 -11 -1975 0 -150 9 -189 21 -246 75 -37 36 -81 113 -72
127 4 7 3 9 -3 6 -12 -8 -146 240 -137 255 4 6 3 8 -3 5 -13 -8 -338 589 -336
615 1 10 -3 21 -9 24 -7 5 -8 2 -3 -7 5 -10 5 -11 -3 -4 -23 23 -133 236 -126
246 4 7 3 9 -3 6 -6 -4 -36 41 -68 101 -32 59 -85 153 -117 210 -68 121 -67
114 -38 367 77 673 104 910 127 1127 15 135 30 245 33 243 3 -1 6 25 6 59 1
58 72 701 93 851 6 39 11 76 11 83 0 7 5 10 10 7 6 -4 7 -11 4 -17z"/>
</g>
</svg>
