<?xml version="1.0" standalone="no"?>
<!DOCTYPE svg PUBLIC "-//W3C//DTD SVG 20010904//EN"
 "http://www.w3.org/TR/2001/REC-SVG-20010904/DTD/svg10.dtd">
<svg version="1.0" xmlns="http://www.w3.org/2000/svg"
 width="1024.000000pt" height="1024.000000pt" viewBox="0 0 1024.000000 1024.000000"
 preserveAspectRatio="xMidYMid meet">
<metadata>
Created by potrace 1.16, written by Peter Selinger 2001-2019
</metadata>
<g transform="translate(0.000000,1024.000000) scale(0.100000,-0.100000)"
fill="#000000" stroke="none">
<path d="M3230 8192 c-19 -11 -48 -35 -63 -55 -55 -67 -29 -151 73 -237 92
-78 211 -203 206 -217 -4 -8 -1 -11 5 -8 6 4 10 1 8 -6 -1 -8 0 -25 1 -39 l2
-25 7 25 c7 23 10 19 38 -40 44 -94 58 -175 57 -330 -1 -144 -21 -343 -34
-335 -5 3 -6 -4 -3 -15 10 -38 -58 -270 -79 -270 -5 0 -6 -5 -3 -10 17 -27
-193 -267 -223 -255 -7 2 -11 1 -7 -4 9 -15 -71 -72 -92 -65 -12 4 -14 3 -5
-3 9 -7 4 -17 -23 -41 -19 -18 -40 -31 -47 -30 -7 2 -12 -2 -13 -9 0 -15 -116
-125 -135 -128 -8 -1 -14 -7 -13 -12 1 -6 -21 -39 -50 -74 -60 -73 -70 -88
-136 -186 -26 -40 -51 -70 -56 -65 -5 4 -5 2 -1 -5 9 -17 -62 -165 -76 -157
-7 4 -8 3 -4 -4 3 -6 -5 -44 -20 -84 -14 -40 -30 -89 -36 -108 -6 -19 -15 -38
-22 -42 -8 -6 -8 -8 1 -8 8 0 7 -12 -3 -45 -7 -25 -13 -49 -14 -53 0 -4 -2
-20 -5 -37 -11 -61 -16 -103 -27 -230 -7 -71 -17 -133 -22 -137 -8 -6 -7 -11
3 -17 9 -6 15 -34 17 -77 5 -76 31 -292 40 -329 1 -5 5 -23 8 -40 3 -16 10
-52 16 -80 6 -27 13 -63 16 -80 3 -16 19 -77 36 -134 16 -57 27 -110 24 -118
-4 -9 -2 -11 6 -7 8 5 9 -2 4 -22 -4 -17 -3 -24 2 -16 6 8 26 -37 61 -133 28
-81 62 -170 75 -198 12 -29 30 -72 40 -97 10 -25 22 -52 27 -60 20 -32 30 -64
25 -77 -3 -8 -2 -12 2 -9 13 8 76 -129 67 -145 -5 -8 -4 -10 0 -6 10 9 106
-176 101 -195 -1 -7 -1 -9 2 -4 4 7 152 -276 152 -290 0 -3 -5 -2 -12 2 -7 4
-8 3 -4 -5 4 -6 10 -9 14 -7 4 2 31 -42 60 -97 29 -56 44 -91 34 -78 -14 18
-21 21 -27 11 -5 -8 -4 -11 2 -7 13 8 26 -20 16 -35 -4 -7 1 -9 14 -6 16 4 24
-2 37 -29 9 -19 13 -40 10 -46 -4 -7 -4 -9 1 -5 5 5 15 -1 22 -12 12 -18 13
-24 1 -38 -12 -16 -11 -16 6 -2 18 14 19 13 13 -3 -4 -10 -3 -16 2 -13 12 8
74 -112 65 -127 -4 -6 -4 -9 1 -5 11 10 38 -29 30 -42 -4 -6 -1 -9 7 -8 12 3
14 -4 17 -59 1 -13 5 -23 11 -23 5 0 7 8 4 18 -7 20 53 -46 61 -68 3 -8 13
-20 23 -25 82 -45 157 -77 203 -85 37 -7 445 -9 1210 -6 635 2 1167 5 1182 7
20 1 25 4 15 10 -10 7 -9 9 4 9 23 0 88 31 88 42 0 4 6 8 13 8 23 0 102 91
143 165 44 80 101 188 122 230 13 28 27 52 31 55 7 5 36 62 240 466 75 148
156 314 180 367 25 53 48 94 53 91 4 -3 5 2 2 11 -4 8 6 40 20 70 14 31 26 59
26 64 0 5 8 26 17 47 9 22 17 41 18 44 1 3 9 23 19 45 34 78 140 397 164 495
6 25 18 74 27 110 9 36 18 79 21 95 3 17 11 55 19 85 7 30 16 80 20 110 8 73
14 92 27 84 7 -4 8 -2 4 5 -8 12 233 503 243 497 3 -2 7 7 7 20 1 13 9 39 17
57 51 109 71 158 76 177 0 3 17 43 37 90 70 165 141 418 160 570 20 165 17
265 -12 410 -14 69 -26 139 -27 157 -1 17 -5 30 -8 28 -3 -2 -11 13 -18 33
-17 47 -83 184 -115 237 -40 67 -178 235 -223 272 -24 20 -40 39 -37 44 3 5
-1 7 -8 4 -7 -2 -26 7 -43 21 -18 16 -23 24 -12 20 11 -3 16 -2 12 5 -4 5 -15
7 -26 4 -10 -4 -19 -2 -19 3 0 5 -8 12 -17 16 -17 5 -33 14 -78 45 -19 12 -19
13 7 8 16 -2 25 0 22 5 -4 6 -18 8 -32 5 -27 -5 -87 25 -75 37 4 4 -1 4 -11 0
-15 -6 -17 -4 -11 7 7 11 6 12 -6 3 -11 -9 -25 -7 -61 11 -27 13 -48 21 -48
19 0 -2 -16 2 -35 10 -19 8 -35 13 -35 10 0 -3 -9 0 -19 6 -55 29 -506 35
-623 8 l-68 -16 0 228 c0 177 -3 237 -15 271 -43 124 -84 170 -210 234 -40 20
-57 20 -1440 23 -1352 2 -1401 2 -1435 -16z m176 -170 c-2 -4 3 -16 11 -27 15
-19 15 -19 9 8 l-6 27 142 -1 c79 -1 132 -4 118 -8 -23 -7 -22 -8 13 -12 36
-5 50 4 25 14 -7 3 92 6 220 6 153 1 231 -2 227 -9 -4 -6 6 -10 22 -10 22 0
25 2 13 10 -10 6 300 10 895 9 l910 0 51 -25 c44 -21 55 -32 73 -74 20 -47 21
-69 27 -532 5 -484 8 -590 17 -618 12 -42 42 -177 41 -187 -1 -7 2 -11 6 -8
10 6 25 -33 22 -52 -2 -7 2 -13 8 -13 5 0 10 -5 10 -11 0 -5 -4 -7 -10 -4 -5
3 -10 1 -10 -5 0 -7 7 -10 15 -6 15 5 39 -25 30 -38 -3 -3 -2 -4 1 -1 4 2 14
-6 23 -18 57 -75 75 -100 64 -94 -6 4 -14 3 -17 -2 -4 -5 2 -8 11 -6 21 3 85
-54 76 -68 -3 -6 -1 -7 4 -4 13 8 219 -162 215 -177 -2 -6 0 -8 4 -3 10 9 65
-43 58 -55 -3 -5 0 -7 8 -6 7 2 12 -3 10 -10 -1 -8 1 -11 6 -8 11 7 55 -39 58
-60 1 -9 6 -19 10 -22 4 -4 4 2 1 13 -4 11 16 -5 43 -35 27 -30 48 -61 45 -68
-3 -7 -1 -11 4 -8 13 8 63 -62 55 -76 -4 -6 -3 -8 3 -5 12 7 80 -109 123 -212
63 -148 126 -393 118 -452 -3 -16 -1 -29 2 -29 15 0 21 -218 10 -340 -12 -147
-14 -166 -29 -245 -6 -33 -14 -73 -17 -90 -3 -16 -12 -55 -20 -85 -8 -30 -19
-71 -24 -90 -45 -168 -137 -447 -152 -464 -4 -6 -8 -16 -8 -24 0 -8 -16 -51
-36 -96 -52 -118 -51 -116 -74 -171 -32 -77 -42 -95 -50 -90 -4 3 -7 -6 -7
-19 0 -37 -64 -160 -75 -144 -6 9 -7 6 -3 -9 9 -31 -143 -331 -157 -312 -7 11
-8 9 -4 -5 6 -18 -28 -92 -159 -341 -31 -60 -64 -116 -73 -122 -9 -7 -12 -13
-8 -13 4 0 -5 -22 -20 -50 -15 -27 -31 -47 -35 -44 -5 3 -6 -2 -3 -10 10 -25
-79 -141 -99 -129 -6 3 -7 1 -3 -6 5 -7 -9 -19 -41 -34 l-48 -22 -1150 0
c-1150 0 -1150 0 -1196 21 -25 12 -60 37 -77 55 -38 41 -134 206 -284 489 -10
19 -15 43 -12 55 4 14 3 16 -4 7 -6 -9 -22 14 -55 80 -25 51 -57 113 -71 138
-65 120 -117 234 -112 247 3 8 2 12 -3 9 -5 -3 -16 9 -24 27 -37 76 -55 126
-50 131 4 3 2 6 -4 6 -12 0 -147 300 -139 307 3 3 -2 12 -10 20 -10 10 -13 26
-10 47 5 24 4 27 -3 11 -5 -11 -10 -18 -10 -15 -1 5 -58 162 -90 250 -24 63
-26 86 -8 94 6 3 3 4 -8 3 -11 -1 -20 4 -21 11 -1 6 -2 13 -4 15 -1 1 -4 16
-6 32 -3 17 -12 54 -20 82 -9 29 -15 56 -16 60 0 5 -4 15 -9 24 -5 10 -3 21 4
29 9 10 9 11 0 6 -7 -4 -13 -3 -13 3 0 5 -11 75 -25 156 -30 171 -44 438 -25
450 9 6 9 9 0 15 -14 9 7 173 41 318 26 114 111 328 128 324 7 -1 10 2 6 8
-16 25 188 319 216 312 8 -2 11 0 6 4 -10 10 63 85 76 77 6 -3 7 -2 4 4 -11
18 162 169 178 155 5 -4 5 -2 2 4 -4 7 20 32 56 60 138 108 233 228 292 367
20 48 31 64 38 55 6 -9 7 -7 3 6 -3 10 -1 37 6 60 16 59 15 54 32 131 15 70
19 106 32 243 4 39 10 72 15 72 4 0 5 15 1 33 -6 32 -6 38 -1 112 1 22 -1 47
-3 55 -10 28 -32 175 -32 208 0 18 -3 27 -7 21 -4 -6 -16 14 -28 47 -12 33
-29 69 -37 82 -8 12 -12 27 -9 33 4 5 2 8 -3 7 -5 -2 -34 29 -65 67 -30 39
-77 89 -104 112 -26 23 -61 53 -78 67 l-30 26 28 0 c16 0 26 -3 23 -8z m3514
-726 c84 -17 175 -42 190 -51 6 -4 8 -11 5 -16 -3 -5 0 -6 8 -3 19 7 90 -23
83 -35 -4 -5 -1 -13 5 -17 8 -4 9 -3 5 4 -12 20 6 13 69 -25 107 -65 251 -195
239 -215 -3 -5 0 -7 7 -6 6 2 14 -3 17 -11 3 -9 0 -11 -8 -6 -9 5 -11 4 -6 -4
4 -6 11 -9 16 -6 11 7 90 -113 135 -205 24 -51 34 -83 30 -100 -4 -20 -3 -22
6 -10 9 12 10 11 6 -7 -3 -13 0 -21 6 -20 6 1 12 -7 14 -18 2 -11 9 -30 15
-42 6 -12 8 -31 5 -42 -3 -12 -1 -24 4 -27 5 -3 9 -20 8 -37 0 -27 -2 -29 -9
-12 -7 15 -8 9 -5 -20 5 -53 6 -54 14 -25 16 52 24 -71 13 -194 -13 -146 -48
-307 -98 -441 -20 -55 -40 -115 -46 -133 -5 -20 -13 -30 -20 -26 -6 4 -8 3 -4
-4 12 -20 -148 -387 -165 -377 -4 3 -11 0 -15 -6 -4 -8 -3 -9 4 -5 17 10 15 1
-12 -63 -33 -79 -47 -109 -42 -88 6 21 -9 154 -30 257 -19 91 -97 330 -120
365 -9 14 -14 32 -10 40 3 9 2 13 -4 10 -12 -7 -42 63 -33 78 3 5 2 7 -4 4 -5
-3 -18 8 -28 26 -92 159 -284 374 -453 506 -45 35 -79 68 -76 73 3 5 2 7 -3 6
-15 -5 -83 54 -76 66 3 6 2 8 -2 3 -11 -10 -46 23 -38 36 3 6 1 7 -5 3 -11 -7
-38 32 -34 47 1 5 -1 6 -6 3 -11 -6 -66 85 -87 144 -30 84 -46 215 -52 411
l-6 195 104 14 c57 7 113 16 124 20 33 13 285 3 365 -14z"/>
</g>
</svg>
