<?xml version="1.0" standalone="no"?>
<!DOCTYPE svg PUBLIC "-//W3C//DTD SVG 20010904//EN"
 "http://www.w3.org/TR/2001/REC-SVG-20010904/DTD/svg10.dtd">
<svg version="1.0" xmlns="http://www.w3.org/2000/svg"
 width="1024.000000pt" height="1024.000000pt" viewBox="0 0 1024.000000 1024.000000"
 preserveAspectRatio="xMidYMid meet">
<metadata>
Created by potrace 1.16, written by Peter Selinger 2001-2019
</metadata>
<g transform="translate(0.000000,1024.000000) scale(0.100000,-0.100000)"
fill="#000000" stroke="none">
<path d="M4800 8709 c0 -3 -57 -11 -126 -18 -240 -23 -457 -71 -718 -158 -94
-32 -177 -57 -183 -56 -7 0 -13 -3 -13 -7 0 -4 -30 -20 -67 -35 -38 -16 -117
-53 -176 -82 -60 -30 -106 -49 -102 -42 5 7 3 10 -6 7 -8 -3 -13 -10 -12 -15
1 -6 -21 -23 -50 -39 -59 -31 -129 -75 -235 -146 -40 -27 -78 -45 -84 -42 -6
4 -8 3 -5 -3 7 -12 -98 -96 -119 -96 -7 0 -12 -3 -11 -7 1 -4 -36 -40 -83 -80
-47 -40 -119 -106 -161 -147 -42 -42 -79 -71 -81 -67 -3 5 -4 4 -2 -2 3 -16
-70 -86 -81 -77 -4 5 -5 3 -2 -3 8 -15 -52 -86 -66 -77 -5 3 -7 2 -4 -4 7 -11
-67 -105 -77 -98 -3 3 -4 2 -2 -1 7 -9 -156 -220 -167 -216 -4 1 -6 -2 -2 -8
3 -5 -12 -36 -33 -67 -185 -275 -352 -640 -446 -975 -67 -238 -126 -603 -126
-778 0 -33 -3 -60 -7 -60 -11 0 2 -408 17 -540 6 -58 18 -149 26 -202 9 -54
12 -103 8 -109 -4 -8 -3 -9 4 -5 8 5 12 0 12 -13 0 -11 16 -81 35 -156 19 -74
32 -142 28 -152 -4 -10 -2 -14 4 -10 17 10 36 -69 23 -94 -10 -17 -8 -21 9
-26 23 -6 54 -84 44 -110 -4 -10 -2 -14 3 -10 6 3 30 -41 54 -101 23 -59 85
-190 136 -291 52 -101 91 -188 87 -194 -3 -5 -1 -7 5 -4 13 9 75 -90 66 -105
-4 -6 -3 -8 3 -5 15 10 84 -98 77 -120 -4 -13 -3 -14 3 -5 7 10 16 3 36 -27
15 -23 22 -41 16 -43 -7 -2 -3 -10 7 -18 11 -9 15 -10 10 -2 -17 29 4 7 53
-53 29 -37 49 -70 45 -77 -4 -6 -3 -8 3 -5 14 9 47 -29 37 -44 -4 -7 -3 -10 4
-5 10 6 117 -108 117 -125 0 -5 3 -8 7 -6 12 4 87 -76 81 -86 -3 -6 -2 -7 4
-4 9 6 118 -96 118 -111 0 -4 4 -6 9 -4 13 4 46 -29 40 -40 -3 -4 0 -7 8 -6 8
2 12 -5 10 -17 -2 -16 -1 -17 7 -6 8 12 12 12 25 2 9 -7 13 -18 9 -24 -3 -5
-2 -7 3 -4 12 7 140 -92 136 -105 -1 -5 2 -7 7 -4 4 3 28 -8 52 -25 49 -35 74
-57 49 -44 -9 5 -12 4 -7 -1 5 -5 16 -9 25 -9 9 0 17 -6 17 -14 0 -8 7 -16 15
-18 13 -4 13 -3 0 6 -24 17 -2 13 25 -5 14 -9 23 -20 20 -24 -3 -5 0 -12 6
-16 8 -4 9 -3 5 4 -11 18 0 14 49 -16 25 -16 42 -32 38 -37 -5 -4 -2 -5 4 -1
17 9 55 -12 47 -26 -4 -7 -3 -8 4 -4 15 9 68 -19 76 -39 3 -9 10 -14 15 -10
14 8 81 -26 74 -38 -3 -6 -1 -7 5 -3 12 7 102 -33 102 -47 0 -4 4 -6 9 -3 5 3
22 -1 38 -9 17 -8 98 -41 181 -73 84 -33 148 -63 144 -67 -4 -5 -2 -5 5 -1 18
10 146 -26 130 -37 -8 -6 -6 -7 6 -3 10 3 49 -2 88 -11 53 -13 66 -19 52 -25
-13 -6 -12 -7 7 -3 28 5 221 -26 215 -35 -2 -3 13 -6 33 -6 20 0 111 -9 202
-19 126 -15 227 -20 430 -19 301 0 483 16 692 60 77 16 116 18 83 4 -16 -7
-17 -9 -3 -9 9 -1 21 5 25 12 9 15 171 60 194 54 8 -2 10 -2 5 1 -5 3 49 24
119 48 167 57 364 141 495 212 58 31 114 56 125 55 11 -1 14 1 7 4 -9 3 -3 12
18 24 17 11 36 16 42 13 7 -4 8 -2 4 4 -7 11 46 45 58 37 3 -3 4 -2 1 1 -2 4
42 38 98 77 116 79 203 148 363 289 62 53 114 95 118 93 3 -3 4 -2 1 2 -7 10
46 63 57 57 5 -3 7 0 6 8 -2 7 3 12 10 10 8 -1 11 1 8 6 -3 5 31 48 75 97 108
119 197 234 300 387 47 70 90 124 94 120 5 -4 5 -2 2 5 -4 6 13 46 38 88 111
188 230 451 309 686 30 87 57 155 62 151 4 -4 4 -1 0 6 -4 6 2 45 12 85 131
486 153 1095 56 1592 -25 131 -84 352 -126 473 -21 62 -35 118 -32 124 5 7 2
8 -6 3 -10 -6 -12 -3 -8 13 4 12 3 20 -2 17 -4 -3 -18 21 -31 53 -12 31 -45
104 -72 162 -27 58 -50 111 -50 118 0 6 -4 12 -8 12 -12 0 -60 100 -53 112 4
6 3 8 -4 5 -12 -8 -66 79 -57 93 4 6 2 9 -3 8 -11 -3 -175 230 -175 249 0 7
-4 11 -8 10 -4 -1 -31 27 -59 62 -29 35 -46 60 -38 55 7 -4 -5 10 -27 31 -74
74 -200 219 -197 228 1 5 -1 6 -6 3 -12 -7 -84 68 -75 78 5 4 3 6 -3 4 -7 -1
-40 22 -75 53 -35 30 -95 82 -134 114 -38 33 -69 63 -67 68 1 5 -1 6 -6 3 -11
-7 -78 42 -74 55 1 5 -1 8 -5 8 -21 -3 -34 2 -28 11 4 6 3 9 -2 8 -15 -5 -192
116 -186 126 4 5 1 6 -4 3 -6 -4 -60 21 -119 55 -113 64 -294 152 -377 183
-35 13 -45 21 -35 28 9 6 8 7 -6 3 -10 -4 -61 9 -115 29 -108 39 -315 100
-376 111 -32 6 -36 9 -20 14 13 5 2 7 -30 7 -27 0 -104 10 -170 22 -66 12
-176 27 -245 33 -69 6 -127 14 -130 17 -6 8 -580 8 -580 0z m618 -187 c1 -4
18 -6 37 -4 40 5 88 -5 81 -16 -2 -4 7 -8 22 -9 24 -2 25 -1 7 7 -13 6 3 7 45
3 36 -3 66 -9 68 -13 2 -4 11 -6 20 -3 14 3 98 -13 340 -65 18 -4 21 -7 10
-14 -9 -6 -6 -7 9 -3 40 11 389 -107 376 -128 -3 -6 -1 -7 6 -3 18 11 140 -45
134 -61 -3 -7 2 -13 12 -13 9 0 13 5 10 10 -11 18 4 11 26 -12 12 -13 19 -17
15 -10 -5 7 24 -3 63 -23 40 -19 70 -39 67 -43 -2 -4 4 -8 14 -8 22 0 219
-118 263 -158 18 -15 23 -22 12 -15 -18 13 -19 12 -7 -3 8 -9 19 -15 26 -12
17 7 138 -85 130 -98 -4 -6 -2 -8 4 -4 19 11 257 -198 245 -217 -3 -5 -1 -7 4
-4 12 7 36 -16 28 -26 -3 -4 -2 -5 2 -2 11 8 53 -37 46 -49 -3 -6 -3 -8 2 -4
11 11 36 -12 28 -25 -3 -5 -1 -7 4 -4 10 6 38 -18 45 -38 2 -5 6 -9 10 -8 9 3
143 -155 143 -170 0 -6 9 -17 20 -22 11 -6 20 -20 20 -30 0 -11 5 -20 10 -20
23 -1 34 -18 31 -46 -2 -16 0 -32 4 -34 5 -3 7 6 5 20 -1 14 -1 25 0 25 4 0
140 -202 155 -229 6 -13 8 -21 3 -18 -4 3 -9 -6 -9 -19 -1 -14 4 -24 12 -24 8
0 11 7 8 18 -5 14 -3 14 11 -3 28 -34 56 -95 49 -107 -4 -7 -3 -8 4 -4 14 9
125 -211 117 -232 -2 -7 -1 -11 4 -8 5 3 18 -16 30 -43 24 -56 25 -65 11 -56
-5 3 -10 2 -10 -4 0 -6 8 -15 18 -20 10 -5 25 -29 32 -53 7 -24 17 -47 21 -53
8 -12 80 -251 104 -343 9 -35 13 -73 9 -84 -3 -11 -2 -18 3 -15 18 11 66 -284
57 -355 -3 -27 -2 -38 4 -30 11 16 22 -159 22 -360 0 -117 -3 -150 -15 -162
-8 -8 -15 -27 -14 -43 l1 -28 8 25 c6 20 8 14 8 -25 1 -38 -2 -45 -9 -30 -6
14 -7 3 -3 -32 3 -29 1 -85 -5 -125 -25 -158 -44 -247 -52 -242 -5 3 -6 -1 -4
-8 14 -37 -125 -516 -146 -503 -5 4 -6 0 -4 -7 5 -12 -22 -86 -79 -220 -9 -21
-21 -38 -27 -38 -5 0 -8 -4 -5 -9 15 -23 -251 -489 -276 -483 -7 2 -10 0 -6
-3 10 -11 -6 -38 -87 -145 -123 -163 -281 -333 -446 -481 -126 -113 -211 -179
-223 -172 -6 3 -8 3 -4 -2 10 -11 -33 -44 -50 -38 -7 3 -12 0 -10 -7 4 -17
-193 -150 -212 -144 -8 3 -11 2 -7 -2 28 -28 -567 -305 -619 -288 -14 4 -15 3
-6 -4 9 -6 -19 -18 -95 -41 -219 -64 -457 -110 -595 -116 -42 -1 -82 -7 -90
-11 -17 -11 -589 -11 -607 0 -7 5 -48 10 -90 12 -79 4 -223 24 -351 50 -107
22 -370 95 -370 104 0 3 -6 7 -14 7 -22 0 -196 65 -192 72 2 3 -7 7 -20 7 -38
3 -316 143 -308 156 4 6 3 8 -3 5 -16 -10 -213 105 -213 123 0 4 -6 7 -12 7
-17 0 -148 92 -148 104 0 5 -3 8 -7 7 -14 -5 -72 45 -66 55 3 6 1 7 -4 4 -11
-7 -40 14 -141 102 -34 29 -59 58 -55 64 3 5 1 7 -4 4 -26 -17 -455 466 -438
493 4 6 1 9 -7 8 -9 -2 -13 7 -13 28 1 18 -4 31 -11 31 -9 0 -10 -5 -3 -19 5
-10 7 -18 4 -18 -12 0 -135 202 -129 212 5 7 2 8 -6 3 -10 -6 -12 -4 -7 9 4
10 3 15 -3 11 -12 -7 -33 32 -24 47 4 7 3 8 -4 4 -14 -8 -86 130 -76 146 4 6
3 8 -3 5 -6 -4 -34 45 -66 111 -41 85 -54 125 -51 147 3 22 2 25 -4 11 -7 -15
-16 2 -44 80 -20 54 -40 108 -44 118 -5 14 -4 17 4 12 7 -4 12 -2 12 3 0 6 -6
11 -14 11 -15 0 -39 76 -85 265 -97 402 -122 881 -67 1262 29 195 69 389 76
368 4 -13 7 -4 7 25 -1 57 63 266 75 248 6 -9 7 -6 3 8 -9 33 118 359 136 348
5 -3 6 1 3 9 -3 8 2 22 11 31 9 9 14 16 11 16 -8 0 21 58 91 183 54 95 68 115
57 80 -5 -15 -4 -15 4 -3 6 8 9 17 6 22 -8 12 147 238 159 231 5 -3 7 -1 4 4
-4 6 10 32 30 59 36 47 37 48 45 24 7 -24 8 -24 4 2 -3 29 7 47 83 136 24 28
48 49 54 45 6 -3 7 -2 4 4 -3 5 13 29 37 52 24 24 46 39 48 34 3 -4 4 -3 2 3
-4 21 53 74 73 68 12 -4 14 -3 5 3 -9 7 6 27 55 74 96 92 223 190 235 183 6
-4 8 -2 5 3 -9 14 19 37 34 27 7 -4 9 -3 6 3 -9 14 19 37 34 27 7 -4 9 -3 5 4
-8 13 28 35 39 24 5 -4 5 -2 2 5 -8 14 60 56 75 47 6 -4 8 -2 5 3 -9 14 40 46
55 37 7 -5 8 -3 3 6 -6 10 -4 12 9 7 10 -4 15 -3 11 3 -7 11 32 33 45 25 6 -4
9 -1 8 5 -4 14 154 101 302 166 232 102 474 178 701 219 145 27 183 30 175 17
-3 -5 1 -9 8 -9 8 0 12 6 9 12 -5 14 52 23 222 36 131 9 589 2 593 -9z"/>
<path d="M4800 8189 c-101 -19 -282 -39 -292 -33 -6 4 -8 3 -5 -3 4 -6 -28
-17 -76 -27 -90 -20 -375 -110 -421 -133 -22 -11 -30 -12 -36 -3 -5 9 -9 9
-14 1 -4 -6 -4 -11 1 -11 4 0 -73 -40 -172 -89 -166 -82 -367 -202 -457 -273
-21 -17 -43 -26 -49 -22 -7 4 -9 3 -6 -3 7 -12 -73 -80 -88 -75 -5 2 -7 1 -3
-3 3 -4 -4 -22 -16 -40 -36 -52 -50 -115 -38 -169 5 -26 6 -46 1 -46 -14 0
-10 -16 9 -37 9 -10 14 -14 10 -9 -5 6 -8 15 -8 20 0 6 7 0 16 -12 8 -12 12
-27 9 -32 -4 -6 -2 -9 4 -8 13 4 62 -63 54 -75 -3 -6 -2 -7 3 -4 6 3 24 -9 42
-27 24 -25 30 -39 27 -59 -4 -21 -2 -25 10 -21 13 5 13 9 3 23 -6 9 29 -24 80
-73 50 -49 88 -94 85 -99 -3 -6 -2 -7 4 -4 9 6 253 -232 253 -247 0 -4 -4 -5
-8 -2 -5 3 -9 -1 -9 -9 0 -12 3 -12 15 -3 11 10 17 8 28 -6 7 -11 11 -23 8
-28 -3 -5 0 -7 8 -6 7 2 12 -3 10 -10 -1 -8 1 -11 6 -8 5 3 35 -22 68 -56 32
-34 53 -58 45 -53 -10 5 -12 4 -7 -4 4 -6 11 -9 15 -7 11 7 103 -89 94 -98 -5
-4 -1 -6 7 -4 8 2 14 -3 12 -10 -1 -8 1 -11 6 -8 12 7 84 -68 75 -79 -5 -4 -3
-5 3 -2 14 8 47 -26 37 -37 -5 -4 -1 -6 7 -4 10 2 14 -4 13 -17 -1 -11 0 -14
3 -7 8 18 124 -97 124 -123 0 -13 3 -16 8 -8 6 9 12 7 25 -7 9 -11 16 -24 14
-28 -1 -4 1 -7 4 -7 14 0 38 -28 32 -38 -3 -5 -1 -7 4 -4 13 8 46 -27 36 -37
-5 -4 -1 -6 7 -4 9 2 14 -3 12 -12 -2 -8 0 -11 4 -7 10 10 165 -144 157 -156
-3 -6 -2 -7 4 -4 5 4 22 -7 37 -22 15 -16 24 -31 19 -33 -4 -3 -3 -4 4 -2 6 1
19 -7 30 -19 18 -21 18 -21 -2 -7 -18 14 -19 14 -7 -2 8 -10 17 -16 20 -15 4
1 36 -13 71 -31 35 -17 59 -32 53 -32 -24 0 -11 -16 14 -18 14 -1 23 2 20 7
-7 11 71 31 93 24 11 -3 12 -2 4 4 -9 6 -4 14 20 28 17 11 37 18 42 16 6 -1 7
0 3 4 -3 4 5 30 18 58 l24 52 -1 1135 c0 947 -2 1142 -14 1174 -8 22 -11 44
-8 50 3 6 3 8 -1 4 -4 -3 -23 11 -43 32 -19 22 -43 42 -54 45 -11 4 -17 10
-14 15 3 5 0 12 -6 16 -8 5 -9 3 -4 -6 6 -10 2 -12 -16 -7 -13 4 -33 7 -44 7
-17 0 -17 2 -5 10 17 11 14 11 -50 -1z m63 -220 c21 -23 26 -36 22 -59 -3 -17
-1 -30 5 -30 6 0 10 -85 10 -242 0 -161 -4 -238 -10 -228 -8 13 -10 13 -10 -2
0 -9 5 -20 10 -23 6 -3 10 -35 10 -71 0 -41 -4 -63 -10 -59 -6 3 -10 -4 -10
-17 0 -18 2 -20 10 -8 14 21 14 -1465 0 -1491 -22 -39 -50 -22 -174 107 -66
69 -194 198 -283 286 -89 89 -161 164 -160 167 1 3 -1 6 -5 6 -15 0 -87 79
-81 89 3 6 2 8 -2 3 -11 -10 -76 53 -68 66 3 6 2 7 -4 4 -9 -6 -82 60 -83 76
0 4 -3 7 -7 8 -16 1 -42 32 -36 42 3 5 2 7 -4 4 -12 -7 -126 106 -117 116 4 4
1 7 -6 7 -20 0 -110 101 -103 114 3 6 2 7 -2 3 -12 -10 -206 183 -198 197 3 6
2 8 -2 3 -11 -10 -86 63 -78 76 3 6 1 7 -4 4 -11 -7 -41 21 -42 38 -1 6 -5 10
-11 10 -12 0 -86 89 -106 127 -8 15 -14 38 -14 51 0 29 37 80 52 71 6 -4 8 -2
5 3 -9 14 60 66 75 57 7 -4 8 -3 4 4 -14 23 380 262 405 246 7 -4 9 -3 6 3
-18 29 461 213 516 198 17 -5 19 -4 7 4 -8 6 -10 11 -5 11 6 0 60 11 122 25
121 27 270 45 318 38 17 -2 42 -18 58 -34z"/>
<path d="M5336 8165 c-22 -8 -44 -11 -50 -8 -6 3 -8 3 -4 -1 4 -4 -8 -21 -26
-37 -19 -16 -43 -50 -54 -76 -19 -46 -20 -75 -26 -663 -3 -338 -6 -850 -6
-1137 -1 -515 0 -523 21 -573 12 -29 40 -67 63 -87 23 -20 35 -32 28 -28 -12
6 -12 3 -1 -16 12 -21 14 -22 17 -6 2 12 9 16 19 13 8 -3 22 -7 31 -7 9 -1 4
-5 -13 -9 -29 -7 -29 -8 -4 -9 14 0 29 2 32 6 4 3 23 8 43 10 64 7 116 43 241
165 66 66 125 121 130 122 4 0 7 4 6 7 -2 7 96 105 102 102 3 -2 4 -1 3 1 -6
9 35 45 45 39 5 -3 7 -2 4 3 -7 12 250 277 262 270 5 -3 8 2 7 12 -1 11 5 16
19 15 11 -1 14 0 7 3 -9 4 13 32 64 85 43 43 82 75 88 72 6 -3 7 -2 3 2 -10
11 223 246 236 238 6 -3 7 -2 4 4 -7 10 45 66 60 64 4 -1 8 5 8 12 1 6 7 11
14 9 7 -1 10 1 7 6 -7 12 68 84 79 75 4 -5 5 -3 2 3 -3 6 14 31 39 55 25 24
77 81 116 126 39 45 76 80 81 76 6 -3 7 -1 3 6 -4 6 2 23 13 37 29 37 61 128
61 175 0 47 -20 100 -58 148 -15 20 -26 39 -24 44 1 4 -2 6 -7 5 -15 -5 -72
43 -65 54 4 7 3 8 -5 4 -9 -6 -141 79 -141 92 0 2 5 0 12 -4 7 -4 8 -3 4 5 -4
6 -13 10 -19 9 -16 -3 -68 32 -62 42 3 4 -3 7 -13 6 -12 -1 -16 5 -14 19 2 15
1 17 -7 6 -7 -11 -19 -7 -65 21 -31 19 -52 38 -48 42 4 5 0 7 -8 5 -22 -3
-339 154 -340 169 0 6 -5 12 -11 12 -5 0 -7 -4 -4 -10 8 -14 12 -15 -98 28
-54 21 -95 41 -91 44 3 4 -5 4 -18 1 -19 -4 -20 -3 -8 7 12 10 11 11 -7 7 -29
-6 -106 16 -96 28 4 4 3 5 -4 1 -10 -5 -154 24 -203 41 -8 3 -28 7 -45 9 -16
2 -63 9 -103 14 -100 14 -179 12 -226 -5z m359 -191 c47 -9 85 -20 85 -25 0
-5 -8 -6 -17 -2 -10 3 -15 3 -12 -1 4 -4 22 -11 40 -16 32 -9 33 -8 14 6 -19
15 -18 16 15 9 66 -13 250 -76 250 -85 0 -5 7 -6 17 -3 11 4 14 3 9 -5 -4 -8
-2 -10 8 -6 18 7 323 -133 336 -155 5 -9 10 -13 10 -8 0 4 18 -2 40 -13 23
-12 38 -25 35 -30 -4 -6 1 -7 11 -3 14 5 16 3 10 -13 -5 -14 -4 -16 4 -7 9 8
27 2 74 -28 33 -22 66 -45 71 -52 6 -6 2 -5 -8 2 -18 15 -33 9 -23 -8 4 -5 16
-8 28 -6 13 3 39 -9 70 -31 26 -20 48 -38 48 -40 0 -3 -5 -2 -12 2 -7 4 -8 3
-4 -5 4 -6 13 -10 19 -9 21 5 76 -43 72 -63 -2 -12 2 -19 11 -19 9 0 13 5 9
13 -4 6 1 3 9 -7 24 -30 19 -77 -12 -127 -40 -63 -162 -190 -176 -182 -6 3 -8
2 -3 -2 9 -11 -63 -86 -75 -79 -5 3 -7 0 -6 -8 2 -7 -4 -12 -12 -10 -8 2 -12
0 -7 -4 10 -11 -44 -65 -57 -57 -6 3 -8 3 -4 -2 4 -4 3 -14 -3 -22 -10 -11
-15 -11 -28 -1 -14 11 -14 11 -4 -3 11 -13 9 -20 -10 -37 -13 -12 -27 -19 -31
-15 -4 5 -6 1 -4 -7 2 -8 -3 -14 -9 -15 -7 0 -12 -3 -10 -7 1 -4 -16 -25 -37
-47 -33 -34 -42 -38 -55 -28 -14 10 -14 10 -3 -5 11 -14 2 -28 -74 -107 -47
-50 -91 -88 -97 -84 -5 3 -7 2 -4 -4 8 -12 -157 -176 -167 -166 -4 5 -6 1 -4
-7 2 -8 -3 -14 -10 -12 -8 1 -11 -1 -8 -6 5 -9 -62 -81 -76 -82 -5 0 -8 -3 -8
-7 -1 -16 -124 -132 -133 -126 -6 3 -7 1 -4 -4 4 -6 -3 -19 -16 -29 -21 -19
-21 -19 -7 1 14 19 14 19 -3 6 -9 -8 -15 -16 -13 -19 10 -10 -36 -63 -50 -58
-8 3 -14 -1 -14 -9 0 -19 -91 -106 -103 -98 -6 3 -7 2 -4 -4 8 -13 -77 -96
-88 -86 -4 5 -5 3 -2 -3 9 -16 -80 -96 -101 -92 -9 3 -16 10 -14 16 1 7 -4 11
-10 10 -9 -2 -15 20 -20 67 -7 76 -1 2036 7 2098 7 52 31 85 67 95 38 9 172
-2 283 -24z"/>
<path d="M2960 7170 c21 -7 17 -8 -20 -9 -43 -1 -82 -17 -159 -66 -17 -11 -31
-24 -31 -30 0 -5 -11 -20 -24 -33 -23 -21 -25 -22 -35 -5 -6 10 -11 13 -11 8
0 -6 5 -16 12 -23 9 -9 7 -16 -7 -32 -18 -20 -20 -20 -32 -4 -7 10 -13 13 -13
8 0 -6 5 -15 11 -21 8 -8 4 -21 -16 -47 -15 -20 -32 -36 -37 -36 -5 0 -7 -4
-4 -8 7 -12 -99 -174 -108 -165 -4 5 -6 3 -4 -3 5 -17 -64 -154 -75 -147 -6 3
-7 1 -4 -5 8 -11 -57 -154 -66 -146 -3 3 -4 -1 -4 -8 1 -7 -14 -52 -33 -101
-25 -62 -39 -86 -49 -82 -11 4 -11 2 -2 -8 8 -11 8 -23 -4 -50 -44 -105 -112
-396 -140 -597 -9 -63 -18 -125 -20 -137 -2 -13 1 -23 6 -23 5 0 9 -9 9 -20 0
-12 7 -35 16 -52 12 -22 12 -28 2 -23 -7 4 7 -11 32 -33 25 -23 53 -44 63 -47
9 -4 15 -10 12 -15 -3 -6 474 -10 1155 -10 1109 0 1163 1 1203 18 47 21 103
79 113 117 3 14 9 25 13 25 4 0 4 24 1 54 -3 30 -2 52 2 50 4 -3 8 2 8 10 0 8
-4 18 -10 21 -5 3 -10 1 -10 -6 0 -7 -13 8 -29 33 -16 25 -34 49 -40 52 -6 4
-8 12 -5 18 4 6 3 8 -3 5 -13 -8 -86 67 -76 78 5 4 3 5 -3 2 -14 -8 -37 17
-26 28 4 5 2 5 -4 2 -14 -8 -57 36 -47 48 5 4 3 5 -3 2 -10 -6 -73 50 -74 66
0 4 -3 7 -7 7 -16 1 -82 74 -76 83 3 6 2 7 -4 4 -13 -8 -76 57 -66 68 5 4 3 5
-3 2 -14 -8 -97 76 -87 88 5 4 3 5 -3 2 -14 -8 -87 66 -77 78 5 4 3 5 -3 2
-10 -6 -153 130 -154 146 0 4 -2 6 -5 5 -8 -5 -84 75 -79 84 3 5 1 7 -5 6 -12
-4 -237 223 -233 235 1 5 -2 6 -7 3 -12 -8 -73 69 -63 79 4 5 0 6 -10 2 -12
-4 -58 38 -170 154 -155 162 -293 279 -329 279 -10 0 -19 7 -19 15 0 10 -9 15
-27 14 l-28 -1 25 -8z m10 -201 c0 -5 5 -7 10 -4 10 6 151 -122 147 -134 -1
-3 3 -7 8 -9 20 -6 74 -65 68 -75 -3 -6 -2 -7 4 -4 5 3 32 -17 59 -45 27 -28
44 -48 37 -44 -6 3 -14 2 -18 -3 -3 -6 3 -8 13 -6 13 2 42 -20 90 -68 40 -40
72 -75 72 -79 0 -5 2 -7 5 -5 8 4 144 -136 140 -144 -3 -4 2 -12 10 -19 8 -7
15 -9 15 -4 0 4 18 -9 40 -31 21 -21 36 -43 33 -49 -3 -6 -3 -8 2 -4 11 11 36
-12 28 -26 -3 -6 -3 -8 2 -4 11 11 36 -12 28 -25 -3 -5 -2 -7 4 -4 11 7 106
-86 98 -96 -3 -4 -2 -5 2 -2 4 3 40 -27 80 -67 61 -60 70 -74 60 -87 -10 -14
-10 -14 4 -4 13 10 34 -7 137 -110 68 -68 119 -127 115 -132 -4 -4 -3 -5 3 -2
6 3 28 -12 50 -35 21 -22 34 -38 27 -34 -6 3 -14 2 -18 -3 -3 -6 3 -8 13 -6
13 2 47 -24 107 -85 83 -84 88 -91 77 -114 -6 -14 -22 -28 -34 -31 -13 -3
-507 -4 -1099 -3 -1244 3 -1119 -9 -1119 108 0 154 81 491 173 713 13 31 27
54 32 50 4 -5 5 -2 1 5 -15 26 185 419 206 406 7 -5 8 -2 4 5 -15 23 160 264
219 301 33 22 65 26 65 9z"/>
<path d="M7239 7136 c-48 -13 -89 -38 -128 -80 -13 -14 -28 -23 -34 -19 -6 3
-7 2 -4 -4 8 -12 -147 -166 -157 -156 -4 4 -6 1 -4 -7 2 -8 -3 -14 -10 -12 -8
1 -11 -1 -8 -6 3 -5 -49 -62 -116 -128 -66 -65 -118 -114 -114 -107 3 6 2 14
-3 17 -5 4 -8 -2 -6 -11 3 -22 -124 -155 -139 -146 -6 3 -7 2 -3 -2 10 -11
-163 -186 -176 -178 -6 3 -7 2 -4 -4 8 -12 -40 -63 -56 -59 -6 1 -8 1 -4 -2 5
-2 -8 -22 -29 -43 -20 -21 -42 -35 -47 -32 -6 3 -7 2 -4 -4 9 -14 -65 -81 -86
-78 -9 2 -15 -1 -11 -6 3 -5 11 -6 17 -2 7 3 4 -3 -7 -15 -10 -12 -23 -19 -29
-15 -5 3 -7 2 -4 -4 8 -13 -107 -126 -118 -116 -4 5 -5 3 -2 -3 4 -6 -3 -20
-14 -30 -19 -17 -20 -17 -13 2 4 10 4 16 0 12 -4 -3 -9 -13 -10 -22 -3 -23
-137 -156 -149 -149 -6 3 -7 2 -4 -4 8 -13 -67 -86 -78 -76 -4 5 -5 3 -2 -3 4
-6 -5 -22 -18 -34 -14 -13 -25 -20 -25 -16 0 5 -6 3 -13 -3 -8 -6 -18 -7 -22
-3 -5 4 -5 1 -1 -6 6 -11 11 -11 24 0 9 7 -2 -9 -24 -37 -44 -54 -64 -94 -64
-126 0 -13 -4 -18 -12 -13 -7 5 -8 3 -3 -6 12 -20 24 -90 14 -84 -5 3 -9 -2
-9 -10 0 -8 5 -18 10 -21 6 -3 10 -2 10 4 0 6 19 -10 41 -34 33 -35 56 -49
106 -65 63 -19 91 -20 1166 -17 l1102 2 50 25 c54 27 112 95 122 141 3 16 8
27 12 25 3 -2 6 27 6 64 0 37 -3 66 -7 63 -5 -2 -8 9 -8 24 0 75 -62 350 -119
532 -16 52 -27 99 -24 104 3 6 1 7 -5 3 -7 -4 -12 -1 -12 6 0 7 -22 64 -50
127 -27 63 -47 118 -44 122 2 4 0 9 -5 11 -15 5 -111 199 -104 211 3 6 1 7 -5
3 -14 -8 -36 30 -26 46 4 6 3 8 -4 5 -10 -7 -65 77 -65 100 0 7 -4 10 -8 8
-11 -7 -41 44 -33 58 4 7 4 9 -1 5 -4 -4 -39 34 -77 85 -38 51 -88 109 -111
131 -23 21 -34 36 -24 33 9 -4 17 -1 17 4 0 7 -9 9 -22 6 -11 -3 -33 0 -47 7
-42 22 -83 26 -132 12z m113 -213 c15 -14 25 -30 22 -35 -3 -5 0 -7 6 -6 6 2
32 -26 58 -62 26 -35 42 -61 35 -57 -6 4 -15 2 -19 -4 -4 -8 -3 -9 4 -5 7 4
12 1 12 -8 0 -9 5 -16 11 -16 5 0 7 6 4 13 -4 6 4 -1 18 -16 14 -17 23 -39 22
-56 -1 -17 3 -28 11 -28 7 0 11 5 8 11 -19 38 41 -50 66 -97 l31 -57 -23 -10
c-22 -10 -21 -10 5 -6 27 3 31 -1 76 -93 77 -156 122 -272 116 -295 -5 -15 -4
-17 3 -8 7 10 13 0 25 -35 25 -81 30 -100 18 -83 -8 12 -10 11 -9 -7 1 -11 7
-19 14 -16 12 4 54 -131 57 -185 1 -15 5 -29 9 -32 10 -8 38 -210 38 -278 0
-54 -3 -63 -27 -82 -20 -16 -38 -21 -65 -18 -21 2 -39 -1 -41 -6 -2 -5 -23 -5
-52 1 -39 7 -261 9 -385 3 -114 -6 -1650 5 -1662 12 -10 5 -18 18 -18 29 0 25
118 151 133 142 6 -3 7 -2 4 4 -6 9 138 161 148 156 3 -2 5 0 5 5 1 15 64 71
74 65 6 -3 8 -2 3 2 -10 12 43 66 57 58 6 -3 8 -2 3 2 -10 12 43 66 57 58 6
-3 8 -2 3 2 -10 11 83 106 96 98 6 -3 7 -1 3 5 -6 11 10 26 29 27 6 1 9 6 8
12 -2 10 50 66 61 64 3 -1 6 2 7 7 2 16 22 31 33 25 6 -3 7 -2 3 2 -10 11 143
166 156 158 6 -3 7 -2 4 4 -7 11 76 96 86 88 4 -3 5 -2 2 2 -8 11 27 43 39 36
6 -3 8 -2 3 2 -10 11 33 56 46 48 6 -3 7 -2 4 4 -8 12 151 179 167 175 6 -2 7
0 3 4 -10 11 144 165 157 157 6 -3 8 -2 3 2 -10 11 63 86 76 78 6 -3 7 -2 4 4
-7 10 37 56 63 66 25 10 64 -3 92 -30z"/>
<path d="M5045 5398 c-16 -6 -42 -19 -57 -30 -16 -11 -31 -17 -36 -14 -4 2
-14 0 -22 -6 -12 -8 -12 -9 2 -4 13 4 11 -4 -10 -33 -15 -21 -30 -34 -34 -28
-3 5 -6 -1 -6 -14 0 -13 -6 -46 -12 -72 -14 -58 -2 -118 35 -183 14 -23 21
-44 18 -48 -3 -3 3 -6 14 -6 11 0 26 -6 32 -14 6 -8 25 -19 41 -26 16 -7 27
-16 25 -20 -3 -5 0 -12 6 -16 8 -4 9 -3 5 4 -5 8 11 10 56 6 44 -4 76 -1 107
9 25 9 48 14 53 11 5 -3 8 -2 6 3 -1 4 19 29 45 55 71 73 93 167 61 260 -45
133 -201 211 -329 166z m148 -176 c10 -9 16 -24 14 -34 -3 -10 -1 -16 4 -12 5
3 9 -9 9 -25 0 -17 -5 -31 -11 -31 -5 0 -8 -4 -4 -9 9 -15 -36 -51 -64 -52
-55 -3 -97 21 -86 48 2 8 0 11 -5 8 -11 -7 -15 14 -11 55 7 69 100 100 154 52z"/>
<path d="M6600 5115 c-15 -18 -90 -18 -90 -1 0 6 -4 5 -9 -3 -5 -8 -18 -12
-30 -8 -12 3 -21 1 -21 -3 0 -5 26 -11 58 -13 31 -2 4 -4 -61 -5 -77 -1 -116
2 -112 8 4 6 -7 10 -27 9 -31 -1 -32 -1 -8 -9 14 -4 -115 -8 -288 -9 -340 -1
-357 -3 -415 -59 -45 -42 -68 -96 -67 -155 2 -88 5 -105 14 -99 5 3 6 -3 2
-14 -4 -10 -4 -15 0 -12 4 4 22 -11 40 -35 24 -30 30 -44 21 -50 -8 -6 -7 -7
4 -4 15 5 88 -57 89 -75 0 -5 2 -7 4 -5 3 1 21 -13 40 -32 30 -29 34 -37 23
-50 -10 -14 -10 -14 4 -4 13 10 23 5 60 -33 27 -28 37 -42 24 -38 -11 4 -17 4
-13 0 3 -4 13 -9 22 -10 23 -3 76 -57 69 -69 -3 -6 -2 -7 4 -4 5 3 25 -9 43
-28 19 -19 30 -35 26 -35 -5 0 -3 -7 4 -15 7 -8 15 -13 19 -10 12 7 163 -150
154 -160 -4 -4 -3 -5 3 -2 13 8 304 -289 301 -307 -1 -6 3 -10 9 -9 11 2 153
-136 154 -149 0 -5 3 -8 8 -8 15 -1 71 -64 65 -73 -3 -6 -1 -7 4 -4 13 8 46
-27 36 -38 -5 -4 -3 -5 3 -2 14 8 57 -36 47 -47 -5 -4 -3 -6 2 -4 15 5 235
-193 228 -205 -3 -6 -1 -7 5 -3 7 4 12 2 12 -4 0 -6 4 -9 8 -6 9 6 97 -52 97
-64 0 -5 4 -12 9 -17 5 -5 6 -3 2 5 -10 17 15 15 40 -3 12 -8 25 -11 29 -7 5
4 5 1 1 -5 -5 -9 0 -13 16 -13 18 0 20 2 8 10 -11 7 -6 10 22 10 51 0 77 12
141 64 30 24 58 42 63 38 4 -4 4 -1 0 6 -5 8 5 27 25 50 18 20 67 90 109 154
42 65 80 115 85 110 4 -4 5 -2 2 5 -4 6 9 40 29 75 95 167 197 391 259 568 72
207 138 541 127 644 -3 28 -5 64 -5 79 0 20 -2 24 -8 15 -5 -7 -9 -8 -9 -2 0
20 -72 95 -111 114 -34 18 -59 20 -256 20 -125 0 -212 4 -204 9 9 6 4 10 -18
13 -33 5 -43 -7 -13 -15 9 -3 -37 -5 -103 -6 -81 0 -115 2 -105 9 12 8 9 10
-13 10 -18 0 -26 4 -21 11 4 7 -1 7 -16 -1 -13 -7 -20 -8 -16 -2 4 6 -2 10
-13 9 -11 0 -17 -5 -15 -9 3 -4 -5 -9 -18 -10 -13 -1 4 -4 37 -8 33 -4 -65 -7
-220 -8 -184 -1 -275 2 -265 8 11 7 6 10 -20 9 -29 0 -31 -2 -15 -9 14 -6 -1
-9 -47 -9 -38 -1 -68 3 -68 8 0 5 12 8 28 5 23 -3 24 -2 9 7 -9 5 -15 14 -12
20 10 15 -1 10 -15 -6z m345 -212 c0 -7 5 -13 10 -13 6 0 10 6 10 13 0 9 101
12 473 12 l474 0 24 -28 c19 -22 24 -39 24 -82 0 -72 -20 -206 -30 -200 -5 3
-6 -4 -3 -14 8 -33 -48 -235 -116 -420 -46 -121 -112 -261 -122 -255 -5 3 -6
-2 -3 -10 7 -19 -66 -157 -79 -149 -6 3 -7 1 -3 -6 8 -13 -73 -150 -161 -273
-48 -67 -58 -76 -72 -65 -14 10 -14 10 -4 -4 11 -13 9 -20 -6 -38 -12 -14 -25
-20 -32 -15 -8 4 -9 3 -5 -4 4 -7 -3 -17 -18 -23 -30 -14 -93 0 -88 20 1 7 -2
10 -7 7 -11 -7 -101 61 -101 76 0 6 -3 8 -7 4 -10 -9 -83 65 -76 77 3 6 1 7
-4 4 -12 -7 -36 16 -28 26 3 4 2 5 -2 2 -10 -8 -293 277 -286 288 3 6 2 7 -4
4 -10 -7 -850 841 -845 855 1 4 -4 7 -10 6 -7 -2 -12 3 -10 10 1 8 -1 11 -6 8
-12 -7 -54 38 -45 48 5 4 1 6 -7 4 -8 -1 -14 3 -15 10 0 6 -3 11 -6 10 -12 -6
-40 26 -35 39 3 8 1 11 -4 8 -15 -9 -12 51 3 63 19 16 58 17 662 17 441 0 560
-3 560 -12z"/>
<path d="M2248 5086 c-21 -8 -50 -22 -65 -32 -16 -10 -33 -17 -40 -16 -6 1
-14 -2 -18 -8 -3 -6 0 -7 10 -4 12 5 10 -5 -10 -41 -14 -27 -25 -56 -25 -65 0
-9 -3 -20 -7 -24 -10 -10 -10 -135 0 -129 4 2 6 -15 6 -39 -1 -40 -2 -41 -9
-13 l-8 30 -1 -32 c-1 -22 4 -33 13 -33 9 0 17 -25 25 -77 7 -43 21 -113 32
-155 11 -43 17 -90 14 -105 -4 -20 -3 -23 3 -9 6 14 12 5 25 -43 10 -34 14
-67 11 -73 -5 -7 -2 -8 6 -3 10 6 12 3 7 -14 -3 -13 -3 -20 1 -17 5 6 59 -129
65 -163 1 -9 5 -18 9 -21 11 -9 49 -112 38 -105 -13 8 -13 2 1 -29 7 -14 16
-23 20 -20 10 6 94 -154 92 -174 0 -7 1 -11 4 -8 9 9 124 -184 117 -196 -4 -6
-2 -8 3 -5 14 9 46 -40 37 -55 -4 -6 -3 -8 4 -4 10 6 72 -70 71 -87 0 -5 11
-17 24 -27 18 -14 24 -28 22 -50 -1 -16 1 -27 6 -25 4 3 6 15 4 27 -4 21 -4
21 20 -2 13 -13 22 -28 18 -34 -3 -6 -3 -8 2 -4 10 10 47 -10 40 -22 -3 -5 0
-12 6 -16 8 -5 9 -3 4 6 -6 10 -4 12 9 7 10 -4 20 -7 22 -7 2 0 4 -5 4 -11 0
-5 -5 -7 -12 -3 -7 4 -8 3 -4 -4 4 -7 17 -12 29 -12 13 0 17 3 11 8 -7 4 18 7
55 7 101 1 174 46 385 239 82 74 103 86 99 57 -1 -9 2 -10 10 -2 7 7 7 14 -1
24 -9 10 1 26 46 70 32 32 62 54 67 50 4 -5 5 -2 1 4 -8 14 249 284 267 280 6
-1 11 3 12 9 0 18 238 263 249 257 6 -3 8 -2 3 2 -9 11 41 64 57 61 6 -2 7 -1
2 2 -15 8 95 111 113 105 14 -4 14 -3 1 6 -12 8 -9 16 20 46 19 19 40 33 48
30 8 -3 10 0 6 6 -8 14 126 150 139 142 6 -3 7 -1 4 4 -4 6 15 31 41 55 26 24
60 61 75 81 15 20 35 37 44 37 9 0 14 3 10 6 -3 4 5 21 18 38 13 17 27 43 30
58 4 16 11 26 15 23 5 -3 12 0 16 6 4 7 3 9 -3 6 -7 -4 -12 12 -15 42 -3 27
-14 67 -26 89 -11 22 -18 43 -14 47 4 4 2 5 -3 4 -6 -2 -30 10 -54 26 l-45 30
-1135 2 c-930 2 -1143 0 -1173 -11z m2237 -177 c-5 -14 -3 -19 3 -15 6 3 13 0
16 -6 4 -7 4 -3 2 10 -2 12 0 20 5 16 18 -11 9 -47 -22 -85 -18 -23 -36 -36
-42 -32 -7 3 -9 2 -4 -2 10 -12 -63 -86 -77 -78 -6 3 -7 2 -3 -2 10 -11 -183
-206 -196 -198 -6 3 -7 1 -4 -4 9 -14 -129 -159 -146 -155 -7 2 -8 0 -4 -4 10
-10 -144 -165 -156 -157 -6 3 -7 2 -4 -4 3 -5 -15 -30 -40 -54 -25 -24 -42
-38 -38 -30 5 10 4 12 -4 7 -6 -4 -9 -11 -7 -15 7 -11 -49 -63 -58 -54 -4 4
-4 -1 0 -12 6 -15 4 -17 -10 -12 -9 4 -15 3 -12 -1 9 -14 -75 -102 -98 -103
-12 0 -15 -3 -8 -6 17 -7 -24 -53 -46 -53 -9 0 -12 -3 -8 -7 9 -9 -65 -84 -76
-77 -5 3 -7 0 -6 -7 2 -7 -4 -13 -12 -14 -8 -1 -14 -6 -13 -11 1 -6 -16 -29
-39 -50 -23 -21 -37 -32 -33 -24 5 8 6 13 2 10 -3 -3 -6 -9 -7 -15 -2 -17 -42
-55 -52 -49 -5 3 -7 0 -6 -7 2 -7 -3 -13 -9 -14 -7 0 -13 -4 -14 -10 -1 -17
-41 -55 -52 -48 -6 3 -7 1 -3 -5 7 -11 -100 -109 -115 -105 -5 2 -8 -3 -6 -10
1 -6 -6 -11 -15 -11 -10 1 -16 -2 -13 -6 10 -17 -77 -70 -115 -70 -23 0 -90
46 -90 62 0 5 5 6 12 2 7 -4 8 -3 4 5 -4 6 -11 9 -16 6 -21 -13 -238 304 -224
327 4 6 3 8 -4 4 -12 -7 -108 177 -167 319 -99 236 -163 477 -185 690 -10 98
-5 132 27 167 15 17 82 18 1105 18 l1089 0 -6 -21z"/>
<path d="M4834 4760 c-27 -3 -63 -14 -80 -25 -16 -11 -33 -18 -39 -16 -5 1 -6
-1 -2 -5 9 -10 -193 -215 -205 -208 -5 3 -7 2 -6 -3 4 -13 -44 -63 -55 -56 -6
3 -7 1 -4 -4 8 -12 -27 -46 -36 -36 -4 3 -7 -2 -7 -12 0 -22 -48 -75 -67 -75
-8 0 -12 -4 -9 -8 3 -5 -12 -26 -33 -46 -21 -21 -41 -34 -43 -29 -3 4 -4 3 -2
-3 4 -19 -73 -88 -80 -72 -3 9 -5 8 -3 -3 3 -22 -61 -92 -75 -83 -7 4 -8 3 -4
-4 9 -14 -63 -94 -77 -85 -5 3 -7 2 -4 -4 8 -13 -147 -166 -158 -156 -4 4 -5
3 -2 -4 4 -7 -36 -57 -98 -122 -78 -81 -111 -109 -126 -106 -11 2 -17 0 -14
-6 4 -5 12 -6 18 -3 14 8 -48 -60 -162 -178 -47 -48 -89 -84 -94 -81 -6 3 -7
2 -4 -4 8 -13 -37 -56 -48 -46 -4 5 -5 3 -2 -3 8 -14 -17 -37 -28 -26 -5 4 -5
1 -1 -6 9 -15 -20 -52 -37 -48 -7 2 -9 1 -4 -2 4 -2 -11 -25 -34 -50 -76 -85
-100 -168 -75 -252 10 -33 12 -56 6 -60 -5 -3 1 -12 13 -19 21 -13 21 -13 8 5
-8 10 4 -1 26 -26 23 -25 38 -49 35 -54 -3 -5 0 -6 7 -1 14 8 64 -33 56 -46
-3 -4 0 -11 6 -15 8 -4 9 -3 5 4 -12 20 5 13 38 -15 17 -14 29 -31 28 -37 -2
-6 0 -8 3 -4 12 11 46 -11 39 -25 -4 -7 -4 -9 1 -5 10 10 47 -11 40 -22 -3 -5
3 -8 12 -8 19 1 142 -74 155 -95 4 -7 8 -9 8 -4 0 9 80 -30 80 -39 0 -3 -8 -3
-17 0 -10 4 -14 4 -10 -1 5 -4 22 -8 39 -9 19 -1 39 -11 51 -25 10 -13 16 -18
12 -12 -4 9 -1 11 9 7 9 -3 13 -11 9 -17 -4 -6 -1 -7 6 -3 7 5 19 0 27 -10 9
-11 12 -13 9 -6 -5 10 3 9 32 -3 21 -9 72 -30 113 -47 74 -30 106 -48 83 -48
-7 0 -15 5 -18 10 -9 14 -32 12 -38 -2 -3 -9 8 -14 34 -15 22 -1 39 2 39 7 0
5 24 1 53 -9 28 -10 85 -26 125 -36 39 -10 72 -23 72 -28 0 -4 -5 -5 -12 -1
-7 4 -8 3 -4 -4 4 -7 14 -12 22 -12 8 0 12 5 9 10 -3 6 1 10 10 10 10 0 13 -5
9 -12 -4 -7 -3 -8 4 -4 7 4 65 -3 129 -15 80 -15 159 -23 248 -23 123 -1 133
0 182 26 29 16 57 37 63 48 6 11 15 18 21 15 5 -4 9 -3 8 2 -3 18 1 34 9 29 4
-2 9 3 10 12 1 9 5 44 9 77 4 33 8 560 8 1170 0 1103 0 1110 -21 1149 -24 47
-78 93 -119 104 -17 4 -53 5 -81 2z m26 -190 l-25 -8 28 -1 c15 -1 27 -6 27
-12 0 -5 -6 -7 -12 -3 -10 6 -10 5 -1 -7 10 -12 12 -259 10 -1090 -4 -1205 1
-1127 -75 -1148 -59 -17 -119 -11 -106 10 3 5 -5 9 -18 9 -18 0 -20 -2 -8 -10
11 -7 4 -9 -25 -9 -36 1 -37 2 -15 10 19 7 14 7 -18 4 -75 -9 -397 58 -370 77
9 7 8 8 -6 4 -22 -7 -127 24 -120 36 3 4 -1 5 -9 3 -7 -3 -33 4 -58 15 -24 11
-36 18 -26 15 11 -3 16 -1 11 6 -3 6 -15 8 -27 5 -35 -9 -336 141 -319 159 4
5 1 5 -5 1 -16 -9 -56 17 -45 29 4 5 1 5 -5 1 -22 -13 -170 97 -165 122 3 10
-2 13 -17 9 -25 -6 -132 87 -150 131 -13 31 1 88 19 77 5 -3 7 0 5 7 -3 8 35
54 92 110 54 53 129 131 166 172 41 45 73 73 80 69 7 -3 9 -2 4 2 -10 12 63
86 77 78 6 -3 8 -2 3 2 -10 11 63 86 76 78 6 -3 7 -1 3 5 -7 12 59 83 665 707
80 82 188 194 240 248 72 74 100 97 119 96 l25 -1 -25 -8z"/>
<path d="M5295 4733 c-11 -3 -25 -10 -32 -15 -7 -5 -18 -6 -24 -2 -7 4 -9 3
-6 -3 4 -6 -5 -21 -19 -34 -50 -47 -53 -81 -56 -644 -2 -367 -6 -519 -14 -518
-6 1 -11 -4 -11 -12 0 -8 4 -12 9 -9 14 9 18 -156 4 -175 -6 -9 -7 -12 -1 -9
15 9 8 -502 -8 -521 -9 -12 -9 -13 1 -7 9 6 12 -21 12 -121 0 -70 2 -139 3
-153 1 -15 -5 -30 -15 -38 -10 -7 -18 -21 -17 -30 0 -12 3 -11 9 6 12 28 20
28 20 0 0 -72 19 -169 39 -202 13 -20 20 -36 17 -36 -14 0 45 -47 80 -64 44
-21 174 -47 174 -34 0 4 24 8 53 8 107 0 404 59 564 111 35 11 68 17 75 13 7
-4 10 -3 5 1 -4 5 39 27 95 50 109 44 285 130 350 171 21 14 44 22 50 18 7 -5
8 -3 3 6 -6 9 -1 10 16 5 16 -4 19 -3 11 3 -9 6 3 19 44 45 31 20 60 34 65 31
5 -3 8 -1 7 4 -2 6 29 34 67 63 191 145 239 205 239 299 1 75 -28 127 -125
226 -44 44 -76 84 -72 89 4 4 3 5 -3 2 -14 -8 -107 86 -97 98 5 4 3 5 -3 2
-14 -8 -238 219 -229 232 4 7 -1 8 -11 4 -13 -5 -16 -3 -11 10 4 11 2 14 -7
11 -16 -6 -59 49 -48 61 4 5 2 5 -4 2 -16 -9 -166 141 -158 156 4 7 3 9 -1 4
-12 -10 -86 63 -78 77 3 6 2 8 -2 3 -11 -10 -66 43 -58 56 3 6 2 7 -4 4 -12
-8 -106 87 -96 97 5 4 3 6 -2 4 -13 -4 -471 461 -467 473 1 5 -3 9 -9 9 -7 0
-48 35 -93 78 -96 92 -151 114 -231 95z m119 -222 c32 -33 46 -54 41 -63 -5
-7 -4 -10 0 -5 11 10 46 -23 38 -36 -3 -5 -1 -7 5 -3 14 8 44 -22 36 -36 -4
-6 -3 -8 3 -5 11 7 268 -247 268 -266 1 -7 6 -11 11 -10 6 1 46 -34 90 -79 43
-44 74 -78 67 -74 -6 3 -14 2 -18 -3 -3 -6 3 -8 13 -6 14 2 49 -26 117 -96 54
-54 95 -102 92 -106 -9 -9 13 -34 24 -27 13 8 81 -64 73 -77 -4 -7 -1 -10 6
-7 15 5 87 -70 82 -84 -1 -5 2 -7 7 -4 14 9 123 -102 115 -116 -4 -7 -4 -10 1
-6 4 4 14 3 22 -3 11 -10 11 -15 1 -28 -11 -14 -11 -14 3 -4 13 10 32 -5 122
-95 59 -60 104 -112 100 -116 -4 -4 -1 -6 7 -4 8 2 14 -3 12 -10 -1 -8 2 -11
7 -8 5 3 43 -30 85 -75 62 -66 76 -86 76 -113 0 -31 -39 -84 -52 -70 -3 3 -9
0 -14 -7 -5 -8 -3 -10 7 -4 8 4 1 -6 -15 -23 -16 -18 -32 -30 -34 -27 -3 2
-14 -7 -25 -21 -11 -14 -26 -23 -34 -20 -8 3 -11 2 -8 -4 9 -15 -226 -164
-378 -239 -78 -38 -188 -85 -244 -105 -181 -65 -474 -132 -534 -124 -15 3 -26
1 -23 -4 3 -4 -35 -8 -85 -8 -111 0 -139 17 -152 96 -10 60 -5 2132 6 2157 11
27 27 21 79 -32z"/>
</g>
</svg>
