<?xml version="1.0" standalone="no"?>
<!DOCTYPE svg PUBLIC "-//W3C//DTD SVG 20010904//EN"
 "http://www.w3.org/TR/2001/REC-SVG-20010904/DTD/svg10.dtd">
<svg version="1.0" xmlns="http://www.w3.org/2000/svg"
 width="1024.000000pt" height="1024.000000pt" viewBox="0 0 1024.000000 1024.000000"
 preserveAspectRatio="xMidYMid meet">
<metadata>
Created by potrace 1.16, written by Peter Selinger 2001-2019
</metadata>
<g transform="translate(0.000000,1024.000000) scale(0.100000,-0.100000)"
fill="#000000" stroke="none">
<path d="M5555 8023 c-45 -23 -105 -84 -121 -123 -9 -20 -17 -78 -20 -134 l-4
-99 -92 3 c-95 3 -135 3 -221 -2 -27 -2 -51 0 -53 4 -3 4 -15 4 -27 -1 -33
-12 -128 -13 -142 -1 -9 7 -15 8 -19 1 -4 -6 -69 -10 -164 -10 -311 0 -282 2
-345 -35 -30 -19 -59 -31 -62 -27 -4 3 -5 2 -4 -4 2 -5 -8 -30 -21 -55 -22
-40 -25 -60 -28 -188 -3 -103 -7 -142 -15 -139 -7 2 -47 14 -89 27 -43 13 -74
28 -71 33 4 6 1 7 -6 2 -7 -4 -104 22 -223 61 -152 49 -204 70 -191 76 13 6
11 7 -7 3 -26 -5 -262 64 -255 75 2 3 -33 6 -78 5 -90 -1 -125 -14 -173 -64
-15 -16 -30 -28 -34 -26 -3 2 -6 -4 -7 -13 -1 -9 -17 -60 -35 -113 -25 -71
-37 -95 -48 -92 -12 4 -13 3 -1 -5 11 -8 5 -37 -34 -163 -26 -85 -52 -171 -57
-191 -6 -22 -15 -35 -21 -31 -6 3 -7 1 -3 -6 10 -16 -44 -192 -57 -184 -6 4
-7 1 -3 -6 10 -16 -35 -162 -47 -154 -6 3 -7 1 -3 -5 4 -7 -3 -44 -14 -83 -16
-54 -24 -69 -32 -58 -7 10 -8 7 -4 -12 4 -17 -18 -105 -64 -253 -39 -125 -70
-230 -71 -234 0 -4 -4 2 -9 13 -7 14 -8 9 -4 -17 4 -26 2 -38 -5 -38 -7 0 -10
-4 -6 -9 8 -15 -67 -241 -78 -234 -6 4 -7 1 -2 -6 11 -18 -15 -106 -27 -89 -6
9 -7 6 -3 -9 5 -19 -30 -151 -44 -163 -3 -3 -6 -12 -6 -20 0 -8 -31 -115 -70
-238 -49 -154 -74 -221 -82 -217 -7 2 -13 0 -13 -4 0 -5 5 -11 12 -13 7 -3 8
-9 3 -19 -5 -8 -11 -23 -12 -34 -7 -42 -57 -184 -64 -179 -4 2 -11 -1 -15 -7
-4 -8 -3 -9 4 -5 17 10 16 4 -26 -134 -94 -305 -116 -369 -125 -363 -6 3 -7 1
-3 -6 4 -6 -12 -75 -35 -152 -32 -102 -46 -135 -51 -122 -6 13 -7 11 -3 -7 5
-26 -142 -522 -157 -528 -4 -2 -6 -7 -3 -12 2 -4 -27 -108 -67 -231 -58 -185
-71 -236 -72 -296 -1 -39 1 -70 3 -67 2 2 16 -16 31 -40 35 -54 69 -79 143
-102 44 -14 54 -20 40 -25 -19 -8 -18 -9 8 -14 9 -1 27 -6 40 -9 l24 -7 -25
16 -25 16 25 -7 c14 -4 27 -11 28 -15 2 -5 8 -7 13 -4 7 5 141 -37 663 -206
100 -32 230 20 276 111 11 22 77 225 147 452 69 227 154 505 189 618 35 113
80 260 100 327 22 70 42 119 47 116 6 -3 7 -1 3 6 -10 16 65 261 78 254 5 -4
6 -1 2 6 -10 16 145 512 157 504 6 -4 7 -1 2 6 -4 8 9 67 31 137 20 68 40 120
44 114 3 -5 6 5 7 24 1 18 16 82 34 141 25 81 35 103 41 89 6 -14 7 -13 3 6
-6 29 114 432 127 424 4 -3 5 1 3 9 -3 7 20 94 51 193 31 98 62 199 69 224 13
47 28 96 149 485 l75 240 4 -2160 c3 -1188 6 -2170 8 -2182 2 -11 6 -20 9 -18
3 1 18 -16 34 -39 16 -22 22 -35 14 -28 -11 9 -18 10 -23 2 -4 -6 -3 -10 2 -9
4 1 10 0 13 -1 3 -1 12 -3 20 -5 21 -4 81 -41 76 -46 -9 -8 51 -10 484 -15
473 -6 491 -4 562 42 22 14 44 21 54 17 12 -5 15 -3 9 6 -6 10 -3 11 14 1 12
-6 19 -15 16 -21 -4 -5 -3 -8 2 -7 4 1 31 -7 58 -17 47 -19 76 -20 460 -20
449 0 439 -1 506 61 25 24 26 24 50 6 13 -11 44 -30 69 -43 45 -24 47 -24 455
-29 381 -5 411 -4 428 13 10 9 23 17 28 17 6 0 24 9 40 21 16 11 29 17 29 12
0 -4 5 -1 10 7 7 11 12 12 18 4 4 -7 27 -22 52 -35 25 -13 49 -29 53 -36 4 -7
13 -13 20 -13 8 0 6 4 -3 11 -11 8 -5 9 25 5 22 -3 197 -6 388 -6 192 0 346
-4 343 -8 -3 -5 1 -9 9 -9 8 0 12 3 10 7 -2 4 23 15 56 24 49 13 71 27 113 69
35 35 55 64 60 87 4 19 6 1144 6 2499 0 2377 -1 2466 -19 2505 -34 76 -126
145 -192 146 -14 0 -30 5 -37 12 -9 9 -15 9 -24 0 -14 -14 -54 -16 -63 -3 -3
6 -15 8 -28 5 -12 -2 -47 -4 -77 -4 -94 1 -123 -1 -132 -6 -4 -3 -8 1 -8 8 0
10 -2 10 -8 1 -4 -7 -21 -10 -38 -8 -29 3 -121 7 -154 5 -8 -1 -42 0 -75 0
-80 2 -184 -14 -222 -33 -17 -9 -34 -13 -38 -9 -5 4 -5 1 -1 -6 16 -27 -28
-24 -83 6 -40 22 -75 32 -122 36 -61 5 -669 8 -782 3 l-48 -2 3 152 c2 83 0
149 -3 147 -4 -2 -9 18 -11 45 -7 68 -53 132 -120 165 l-52 26 -445 0 c-386
-1 -450 -3 -476 -17z m904 -147 c20 -10 29 -21 23 -25 -7 -4 -8 -12 -2 -21 9
-13 10 -13 10 0 0 13 1 13 10 0 6 -10 10 -900 10 -2464 0 -2143 -2 -2447 -15
-2430 -14 18 -14 18 -8 -3 3 -13 9 -23 14 -23 5 0 9 -110 9 -244 0 -204 -2
-247 -15 -260 -8 -8 -15 -20 -15 -26 0 -6 -20 -20 -45 -31 -38 -17 -65 -20
-167 -18 -68 1 -133 5 -145 10 -16 6 -23 5 -23 -4 0 -8 -4 -7 -10 3 -5 8 -10
10 -10 4 0 -7 -66 -10 -212 -10 -182 1 -218 4 -245 19 -68 37 -63 -203 -63
2760 0 1923 3 2693 11 2716 10 28 20 36 42 32 4 0 6 4 5 11 -5 22 57 26 432
24 344 -1 378 -3 409 -20z m-1049 -614 c-1 -184 -4 -260 -13 -271 -9 -12 -9
-13 1 -7 9 6 12 -275 12 -1388 0 -924 -3 -1396 -10 -1396 -5 0 -10 -12 -9 -27
l1 -28 8 25 c5 15 8 -44 9 -145 0 -113 -3 -165 -9 -155 -8 13 -10 12 -10 -2 0
-10 5 -18 10 -18 6 0 10 -121 10 -344 0 -219 -4 -347 -10 -351 -5 -3 -10 -14
-9 -23 0 -14 2 -13 9 3 5 12 9 -122 9 -323 1 -226 -2 -341 -9 -337 -5 3 -10
-1 -10 -10 0 -9 4 -13 10 -10 6 4 10 -5 10 -19 0 -38 -48 -86 -95 -95 -22 -5
-223 -8 -446 -7 -369 2 -408 3 -433 19 -15 10 -24 23 -20 29 4 7 3 8 -4 4 -25
-15 -34 38 -34 208 1 94 1 485 1 869 1 463 4 696 11 692 6 -3 10 -2 10 4 0 5
-4 11 -10 13 -8 2 -12 794 -10 1811 0 76 3 97 13 91 10 -6 10 -4 0 7 -16 16
-19 244 -3 234 6 -3 10 -2 10 4 0 5 -4 11 -10 13 -6 2 -10 185 -11 503 -1 642
-1 618 13 609 7 -4 8 -3 4 5 -4 6 -2 19 6 28 34 41 54 43 541 42 l467 0 0
-257z m2089 92 c17 -4 29 -10 26 -14 -3 -4 2 -11 11 -14 10 -4 13 -2 8 7 -5 8
-2 8 9 -2 9 -7 14 -18 10 -24 -3 -6 -1 -7 5 -3 6 3 16 -2 21 -13 8 -13 11
-784 11 -2447 l1 -2427 -33 -34 c-18 -18 -46 -37 -63 -42 -16 -5 -194 -8 -395
-7 -341 1 -367 2 -393 20 -15 10 -35 33 -44 50 -15 28 -17 234 -20 2494 l-3
2462 409 0 c225 0 422 -3 440 -6z m1099 -14 c76 -34 72 20 72 -970 0 -558 -4
-879 -10 -875 -5 3 -7 13 -4 23 4 11 3 13 -3 5 -8 -11 -8 -55 -2 -138 1 -16 5
-1 9 35 4 36 6 -293 6 -730 0 -437 -2 -748 -6 -690 -3 58 -7 92 -10 75 -8 -49
1 -223 10 -200 5 11 9 -233 9 -543 1 -373 -2 -561 -9 -557 -6 3 -10 -4 -10
-17 0 -18 2 -20 10 -8 6 10 10 -42 10 -157 0 -143 -3 -174 -16 -187 -8 -9 -12
-16 -8 -16 3 0 1 -7 -6 -15 -7 -9 -19 -14 -27 -11 -8 3 -12 2 -8 -3 3 -5 -9
-14 -27 -19 -45 -14 -703 -14 -745 -1 -18 6 -43 24 -57 40 l-25 29 1 1154 c0
634 -2 1158 -6 1165 -4 6 -4 32 0 59 4 26 7 148 6 272 -1 124 -2 254 -1 290 3
155 2 251 -3 256 -3 3 -4 26 -1 52 3 26 6 56 7 67 1 11 -2 26 -7 33 -6 7 -5
17 2 25 6 8 8 16 5 20 -9 9 -10 186 -1 180 4 -2 7 1 7 6 0 6 -5 11 -10 11 -7
0 -10 28 -8 75 2 41 5 75 8 75 7 0 3 81 -5 108 -5 15 -3 22 5 22 9 0 9 4 -1
17 -12 14 -12 16 0 8 10 -6 12 -4 6 4 -13 21 -19 214 -6 207 6 -4 11 -3 11 3
0 5 -6 12 -12 15 -10 5 -10 7 0 12 6 3 9 11 5 17 -11 17 -12 286 -2 293 5 3 9
11 9 17 0 7 -4 6 -10 -3 -6 -10 -8 61 -6 198 3 194 5 216 23 240 35 48 62 51
438 51 326 1 353 -1 393 -19z m-5224 -11 c49 -16 64 -24 55 -31 -10 -6 -7 -7
9 -3 27 8 151 -32 170 -54 8 -9 11 -10 7 -3 -3 6 -4 12 -2 12 2 0 120 -38 262
-85 142 -47 264 -85 270 -85 24 0 45 -25 39 -47 -4 -13 -10 -20 -15 -17 -5 3
-6 -1 -3 -9 5 -13 -143 -506 -155 -517 -3 -3 -7 -14 -8 -25 -3 -40 -67 -234
-75 -229 -4 3 -5 -2 -2 -10 5 -14 -62 -246 -75 -256 -3 -3 -7 -16 -9 -29 -1
-14 -16 -69 -34 -123 -22 -70 -34 -95 -40 -86 -7 9 -8 5 -4 -12 6 -26 -60
-262 -76 -268 -4 -2 -6 -7 -3 -11 7 -12 -15 -81 -26 -81 -6 0 -8 -4 -4 -9 8
-15 -37 -161 -48 -154 -6 4 -7 1 -2 -6 10 -18 -66 -255 -77 -239 -6 8 -7 5 -3
-10 9 -31 -66 -270 -77 -245 -6 12 -7 9 -3 -9 7 -39 -55 -240 -72 -234 -7 3
-13 -2 -13 -10 0 -9 5 -12 12 -8 7 5 9 2 6 -7 -3 -8 -22 -71 -43 -141 -21 -71
-42 -128 -47 -128 -5 0 -7 -4 -4 -8 9 -14 -16 -92 -27 -85 -6 3 -7 1 -3 -6 4
-6 -31 -136 -78 -289 -46 -152 -90 -296 -97 -319 -8 -27 -18 -43 -28 -43 -11
0 -12 -3 -4 -8 9 -6 1 -42 -29 -142 -23 -74 -45 -137 -50 -138 -4 -2 -6 -7 -3
-12 3 -5 -12 -63 -34 -131 -21 -68 -41 -116 -45 -108 -3 8 -4 4 -2 -9 6 -33
-65 -256 -77 -240 -6 9 -7 5 -3 -12 3 -14 -8 -66 -25 -122 -24 -77 -36 -102
-59 -118 -30 -21 -110 -28 -110 -9 0 5 -4 7 -10 4 -15 -9 -90 16 -83 28 4 6 0
8 -10 4 -16 -6 -236 58 -247 72 -3 3 -11 6 -17 7 -38 3 -44 5 -40 12 3 4 -7 8
-21 8 -47 2 -172 45 -165 57 3 6 1 7 -5 3 -19 -11 -171 37 -204 64 -22 19 -30
34 -31 60 -1 50 124 455 135 438 6 -9 7 -6 4 8 -6 21 85 325 379 1259 87 275
164 524 173 552 8 29 17 51 21 49 3 -2 6 8 7 22 1 15 26 106 57 202 68 213
293 935 314 1007 9 29 20 50 24 47 5 -3 6 2 3 10 -6 16 276 927 285 921 3 -1
6 9 7 25 1 40 36 103 64 117 34 17 46 16 124 -8z"/>
</g>
</svg>
