<?xml version="1.0" standalone="no"?>
<!DOCTYPE svg PUBLIC "-//W3C//DTD SVG 20010904//EN"
 "http://www.w3.org/TR/2001/REC-SVG-20010904/DTD/svg10.dtd">
<svg version="1.0" xmlns="http://www.w3.org/2000/svg"
 width="1024.000000pt" height="1024.000000pt" viewBox="0 0 1024.000000 1024.000000"
 preserveAspectRatio="xMidYMid meet">
<metadata>
Created by potrace 1.16, written by Peter Selinger 2001-2019
</metadata>
<g transform="translate(0.000000,1024.000000) scale(0.100000,-0.100000)"
fill="#000000" stroke="none">
<path d="M5714 8176 c-12 -8 -25 -12 -29 -8 -5 4 -5 2 -2 -4 4 -6 -2 -19 -13
-29 -25 -23 -153 -242 -150 -257 1 -2 -12 -35 -28 -73 -16 -39 -35 -94 -42
-123 -8 -28 -18 -52 -22 -52 -5 0 -7 -4 -4 -9 8 -13 -15 -111 -26 -111 -5 0
-7 -4 -3 -9 3 -6 1 -29 -5 -53 -6 -24 -13 -77 -16 -118 -3 -41 -9 -77 -13 -80
-3 -3 -7 -32 -7 -65 -4 -180 -2 -411 3 -490 3 -49 7 -111 9 -137 1 -25 5 -56
9 -69 5 -16 -19 2 -79 56 -47 44 -86 83 -86 88 0 4 -4 6 -8 3 -11 -7 -284 253
-277 264 3 4 -2 11 -11 14 -8 3 -12 11 -8 17 4 7 3 9 -3 6 -12 -7 -96 107 -86
117 3 3 1 6 -5 6 -19 0 -140 256 -127 268 3 3 1 10 -4 16 -16 20 -43 172 -44
246 0 37 -6 47 -49 88 -48 46 -140 35 -169 -20 -16 -30 -13 -177 5 -263 16
-77 53 -195 84 -266 16 -36 18 -49 9 -58 -9 -9 -8 -11 3 -7 11 4 26 -14 52
-62 64 -116 76 -132 163 -230 22 -25 33 -42 25 -37 -8 5 14 -18 50 -50 36 -32
93 -87 128 -122 35 -35 60 -58 56 -51 -4 7 14 -7 40 -32 48 -46 58 -64 29 -53
-10 3 -15 3 -11 -1 3 -4 12 -8 20 -10 7 -1 19 -5 26 -9 6 -5 12 -5 12 -1 0 15
82 -72 161 -169 44 -54 77 -102 74 -108 -4 -5 -1 -9 5 -9 30 0 130 -292 117
-342 -3 -9 0 -19 7 -21 8 -3 8 -12 0 -35 -10 -25 -9 -32 3 -36 9 -4 14 -21 14
-53 1 -27 3 -100 6 -163 6 -125 -14 -427 -29 -436 -4 -3 -6 -10 -2 -15 6 -10
-14 -147 -24 -164 -4 -5 -8 -25 -9 -44 -1 -19 -5 -41 -9 -50 -4 -9 -6 -24 -5
-33 1 -10 -3 -18 -9 -18 -6 0 -8 -4 -5 -10 10 -16 -127 -454 -146 -465 -5 -4
-7 -10 -4 -15 3 -4 -3 -28 -13 -52 -10 -23 -43 -115 -73 -203 -29 -88 -57
-161 -61 -163 -4 -2 -4 -10 -1 -18 3 -8 0 -14 -7 -14 -6 0 -9 -4 -6 -8 4 -8
-24 -112 -41 -152 -3 -8 -7 -18 -8 -22 -2 -5 -4 -11 -5 -15 -1 -5 -3 -15 -4
-23 -4 -41 -31 -150 -37 -150 -4 0 -5 -8 -3 -17 2 -10 -2 -40 -10 -68 -8 -27
-15 -41 -15 -30 -1 12 -7 27 -13 34 -10 11 -10 13 0 7 7 -4 12 -1 12 8 0 9 -5
15 -10 13 -10 -2 -79 152 -82 186 -1 9 -6 17 -11 17 -5 0 -4 7 3 15 11 13 10
14 -5 9 -13 -5 -16 -4 -11 4 4 7 3 12 -2 12 -10 0 -49 80 -45 92 2 5 -1 8 -5
8 -8 0 -19 19 -33 55 -2 5 -14 20 -26 33 -13 14 -20 28 -17 33 3 5 1 9 -3 9
-8 0 -83 94 -83 104 0 3 -22 26 -50 52 -27 25 -47 50 -44 55 3 5 -3 12 -13 15
-25 9 -113 96 -107 106 3 4 0 8 -6 8 -29 0 -119 137 -105 160 3 5 1 10 -4 10
-6 0 -11 21 -11 50 0 28 4 50 9 50 4 0 6 11 3 25 -2 15 0 25 7 25 7 0 10 4 7
9 -8 13 56 281 65 275 4 -2 6 5 4 16 -3 17 67 349 82 390 4 8 8 29 10 45 2 17
6 37 10 45 3 8 7 29 9 45 3 17 9 57 15 90 29 154 -9 236 -109 240 -29 1 -44
-6 -71 -31 -32 -30 -34 -37 -57 -175 -35 -218 -83 -442 -96 -447 -4 -2 -6 -8
-2 -13 3 -5 2 -14 -2 -20 -4 -7 -8 -28 -10 -48 -2 -20 -8 -37 -14 -39 -5 -2
-8 -8 -4 -13 3 -5 0 -26 -7 -47 -7 -20 -13 -44 -14 -52 -1 -8 -8 -43 -15 -77
l-12 -62 -39 72 c-42 78 -89 176 -92 192 -1 5 -8 16 -14 23 -11 12 -15 27 -12
48 0 4 -4 10 -10 13 -34 21 -214 592 -196 621 4 6 2 10 -3 10 -8 0 -37 172
-37 220 0 8 -12 29 -27 45 -25 26 -34 30 -84 30 -51 0 -58 -3 -86 -34 l-30
-34 5 -106 c3 -58 13 -135 22 -170 8 -35 13 -66 10 -69 -3 -3 -1 -10 4 -16 12
-15 41 -128 35 -137 -2 -4 0 -9 5 -11 5 -1 11 -16 13 -33 2 -16 6 -32 9 -35 9
-8 49 -133 44 -138 -2 -2 3 -11 11 -19 8 -9 13 -21 10 -29 -3 -7 -2 -14 2 -16
6 -3 89 -196 96 -223 1 -5 19 -43 38 -82 20 -40 33 -73 30 -73 -4 0 -2 -4 4
-8 6 -4 23 -30 37 -58 20 -40 23 -54 14 -63 -9 -10 -8 -11 8 -5 18 7 19 6 6
-9 -12 -15 -12 -17 0 -12 10 4 29 -19 59 -72 25 -43 44 -81 42 -85 -1 -5 2 -8
7 -8 4 0 23 -27 40 -60 31 -57 31 -60 11 -60 -37 0 -205 41 -208 51 -2 5 -7 7
-12 4 -10 -6 -103 26 -112 39 -4 6 -8 8 -8 4 0 -11 -60 13 -60 24 0 5 -4 6
-10 3 -5 -3 -10 -1 -10 6 0 7 -3 9 -6 6 -9 -9 -124 53 -124 66 0 6 -3 7 -6 4
-10 -10 -181 111 -221 157 -20 22 -33 35 -29 29 13 -24 1 -13 -59 48 -33 34
-55 59 -49 55 7 -3 -14 22 -47 56 -32 33 -56 66 -52 71 3 6 1 7 -5 3 -6 -3
-13 -2 -17 4 -3 5 -27 10 -52 10 -38 0 -50 -5 -80 -35 -30 -30 -34 -40 -31
-73 7 -56 10 -64 45 -102 18 -19 33 -41 33 -47 0 -7 11 -20 24 -28 31 -21 40
-43 24 -64 -10 -13 -10 -14 1 -5 18 17 60 -6 110 -61 23 -24 41 -42 41 -39 0
4 65 -47 148 -116 12 -10 22 -15 22 -12 0 4 7 -2 15 -12 8 -11 15 -16 15 -10
0 5 7 0 16 -11 8 -11 17 -19 20 -17 7 5 208 -99 216 -112 4 -6 8 -8 8 -4 0 4
30 -4 68 -19 37 -14 92 -32 122 -41 30 -9 57 -18 60 -21 3 -3 10 -6 15 -6 6 0
46 -6 90 -13 93 -15 219 -20 255 -10 17 5 33 1 50 -12 20 -15 22 -20 11 -34
-11 -14 -11 -16 3 -16 10 0 14 5 11 10 -3 6 0 10 7 10 7 0 36 -23 64 -52 28
-29 57 -57 63 -63 67 -59 233 -296 197 -282 -8 3 -18 2 -21 -4 -4 -5 -3 -9 2
-8 28 5 42 -8 71 -67 27 -54 30 -65 15 -60 -9 4 -14 4 -10 0 4 -4 1 -14 -6
-22 -10 -13 -9 -14 2 -8 8 5 17 3 23 -5 8 -11 9 -10 4 4 -3 9 -1 17 3 17 12 0
23 -29 15 -41 -3 -5 0 -9 6 -9 6 0 9 -4 6 -9 -4 -5 -3 -11 2 -13 4 -1 18 -27
30 -57 17 -41 19 -57 11 -68 -10 -11 -8 -12 5 -7 9 4 16 3 15 -2 -1 -5 5 -26
15 -47 9 -21 14 -42 11 -47 -4 -6 -2 -10 4 -10 8 0 25 -48 26 -75 0 -5 2 -12
5 -15 12 -11 51 -151 45 -160 -3 -6 -2 -10 2 -10 5 0 14 -21 21 -46 10 -35 10
-50 1 -60 -9 -12 -9 -13 3 -9 12 5 18 -8 28 -57 7 -35 14 -72 15 -83 1 -11 6
-28 10 -38 4 -10 5 -21 1 -24 -3 -3 -1 -12 5 -19 6 -8 9 -21 5 -29 -3 -8 -2
-15 3 -15 13 0 21 -72 10 -87 -6 -7 -9 -18 -6 -25 4 -8 6 -7 6 5 2 33 18 16
29 -31 17 -74 52 -160 75 -188 40 -46 143 -45 173 2 21 31 35 102 22 106 -6 2
-11 16 -11 31 -1 15 -6 27 -12 27 -5 0 -3 5 5 10 13 8 13 10 -2 10 -12 0 -22
16 -32 51 -9 28 -13 55 -10 60 3 5 0 9 -6 9 -8 0 -10 9 -6 24 3 14 1 28 -5 31
-6 4 -8 13 -5 20 2 7 1 16 -4 21 -5 5 -14 61 -21 124 -12 114 -6 230 11 230 5
0 7 6 4 14 -7 17 44 130 84 188 35 49 127 150 117 128 -4 -8 5 0 20 18 28 34
115 98 128 94 4 -1 7 2 7 7 0 5 26 25 58 44 74 46 313 164 338 169 10 1 21 6
24 9 11 14 248 127 254 122 3 -4 6 -2 6 4 0 5 24 23 53 38 99 54 288 197 361
274 22 23 32 28 39 19 6 -10 8 -9 4 3 -3 10 17 39 54 78 32 34 59 64 59 67 0
8 54 78 63 82 4 2 7 10 7 18 0 8 5 14 12 14 6 0 9 3 5 6 -3 3 5 23 18 44 35
56 75 155 75 187 0 16 -6 37 -14 48 -7 11 -14 24 -14 28 0 5 -4 12 -8 15 -4 4
-3 0 1 -8 7 -12 4 -11 -11 2 -10 9 -35 19 -54 22 -57 11 -90 -18 -145 -125
-56 -110 -140 -238 -161 -246 -8 -3 -14 -10 -14 -17 0 -20 -237 -242 -247
-232 -2 2 -14 -6 -26 -18 -42 -41 -218 -138 -432 -236 -119 -55 -233 -109
-253 -119 -20 -10 -41 -19 -46 -19 -5 0 -12 -5 -15 -10 -3 -5 -40 -31 -81 -57
-41 -26 -99 -68 -128 -92 -30 -23 -57 -43 -61 -43 -4 0 -20 -17 -36 -37 -15
-21 -24 -29 -20 -18 4 11 12 36 17 55 6 19 13 40 16 45 7 10 8 16 10 48 1 9
10 17 20 17 11 0 13 3 5 8 -13 8 -6 62 9 62 5 0 7 4 4 9 -7 10 104 345 115
349 4 2 5 10 2 18 -3 8 0 14 6 14 6 0 10 3 9 8 -4 17 14 72 24 72 6 0 9 3 5 6
-7 8 52 178 64 182 5 2 7 7 4 12 -4 7 73 210 84 220 3 3 7 12 9 20 6 28 65
140 73 140 5 0 9 6 9 13 0 17 88 147 100 147 6 0 10 5 10 11 0 21 86 115 360
394 293 298 397 424 508 615 34 58 65 110 69 115 4 6 9 17 11 25 2 8 8 18 14
21 5 3 9 9 8 13 -3 11 63 171 72 174 4 2 6 7 3 11 -2 4 4 31 15 58 24 65 65
228 79 318 13 84 19 205 9 205 -4 0 -10 9 -13 20 -13 41 -95 63 -148 39 -43
-19 -53 -51 -71 -217 -6 -52 -56 -255 -65 -262 -3 -3 -7 -15 -8 -27 -4 -37
-81 -222 -130 -313 -65 -120 -185 -300 -197 -293 -5 3 -6 1 -2 -5 3 -6 -5 -19
-19 -31 -15 -11 -25 -22 -23 -25 5 -8 -243 -278 -261 -284 -9 -3 -77 -69 -151
-147 -74 -78 -139 -139 -144 -137 -5 3 -6 0 -3 -5 4 -6 -1 -17 -10 -24 -15
-13 -16 -11 -10 16 4 17 9 53 12 80 2 28 10 102 16 165 12 123 7 253 -17 438
-8 62 -12 117 -9 123 4 5 2 9 -2 9 -10 0 -35 158 -28 170 3 5 1 10 -5 12 -5 1
-12 28 -14 58 -2 30 -6 62 -9 70 -11 32 -32 211 -44 365 -2 28 -9 113 -15 190
-8 105 -8 188 1 329 7 105 15 194 18 199 3 4 7 34 9 65 2 30 9 59 15 63 6 4 9
12 5 17 -9 14 44 222 56 222 5 0 7 4 4 9 -7 10 52 165 65 169 5 2 7 8 3 13 -3
5 0 9 6 9 6 0 9 4 6 9 -3 5 20 51 51 102 69 114 74 152 27 200 -37 37 -98 49
-130 25z"/>
</g>
</svg>
