<?xml version="1.0" standalone="no"?>
<!DOCTYPE svg PUBLIC "-//W3C//DTD SVG 20010904//EN"
 "http://www.w3.org/TR/2001/REC-SVG-20010904/DTD/svg10.dtd">
<svg version="1.0" xmlns="http://www.w3.org/2000/svg"
 width="1024.000000pt" height="1024.000000pt" viewBox="0 0 1024.000000 1024.000000"
 preserveAspectRatio="xMidYMid meet">
<metadata>
Created by potrace 1.16, written by Peter Selinger 2001-2019
</metadata>
<g transform="translate(0.000000,1024.000000) scale(0.100000,-0.100000)"
fill="#000000" stroke="none">
<path d="M5605 8319 c-19 -17 -43 -44 -52 -60 -9 -15 -21 -25 -26 -22 -6 3 -7
2 -4 -4 8 -13 -67 -155 -78 -146 -4 5 -5 3 -2 -3 8 -15 -32 -114 -53 -132 -10
-10 -11 -11 -1 -6 11 6 13 3 7 -12 -38 -99 -83 -327 -92 -467 -4 -59 -10 -105
-13 -103 -3 2 -6 -60 -6 -139 0 -79 3 -138 7 -132 4 7 8 -13 8 -43 0 -31 7
-111 15 -179 9 -67 15 -128 14 -134 -1 -7 0 -19 4 -27 10 -27 14 -70 7 -70
-17 0 -188 140 -268 219 -69 69 -122 133 -116 142 3 5 1 8 -4 7 -6 -2 -29 23
-51 55 -44 61 -75 117 -66 117 3 0 -3 8 -14 19 -22 22 -92 198 -116 290 -9 35
-14 76 -10 90 4 20 3 22 -5 11 -8 -13 -10 -12 -10 5 0 41 -28 128 -44 137 -9
5 -15 12 -12 16 2 4 -18 7 -44 7 -26 0 -46 -3 -43 -7 2 -5 -1 -8 -7 -8 -5 0
-18 -15 -26 -34 -15 -31 -15 -40 5 -136 41 -187 115 -371 221 -545 48 -80 85
-128 182 -236 37 -42 64 -79 60 -83 -4 -4 0 -6 8 -4 8 2 14 -3 12 -10 -1 -8 2
-11 7 -8 15 10 101 -73 95 -92 -5 -13 -4 -14 4 -3 8 11 20 6 61 -29 28 -23 48
-47 44 -53 -3 -6 -1 -7 5 -3 12 7 82 -39 81 -52 -1 -4 -1 -14 0 -22 1 -13 2
-13 11 0 8 13 12 12 27 -4 10 -10 12 -15 4 -11 -10 6 -12 4 -7 -4 4 -6 11 -9
16 -6 31 19 89 -140 121 -334 18 -109 20 -152 15 -326 -6 -215 -13 -298 -27
-303 -4 -2 -6 -9 -3 -16 9 -24 -53 -349 -65 -342 -3 2 -6 -10 -7 -27 -1 -44
-95 -347 -105 -341 -5 3 -7 -1 -4 -8 3 -7 -9 -53 -25 -103 -16 -49 -28 -78
-26 -63 2 16 -1 25 -6 22 -6 -4 -8 -18 -5 -33 6 -27 -61 -273 -75 -279 -5 -2
-6 -7 -4 -11 3 -4 -12 -70 -33 -147 -21 -76 -40 -130 -43 -119 -2 11 -4 -2 -5
-30 -1 -67 -69 -386 -76 -360 -4 11 -4 3 -1 -18 3 -21 2 -52 -1 -69 -6 -27 -9
-22 -35 54 -16 45 -56 146 -89 222 -33 77 -57 144 -54 149 3 6 1 7 -4 4 -13
-8 -76 109 -67 125 4 6 3 8 -4 4 -6 -3 -26 20 -48 56 -21 35 -58 91 -81 126
-24 35 -40 68 -37 74 4 6 3 8 -3 5 -13 -8 -152 193 -146 211 3 7 0 11 -7 10
-6 -2 -32 32 -57 74 -61 104 -65 157 -28 363 34 191 107 547 151 740 21 89 32
160 29 177 -8 37 -50 68 -90 68 -56 0 -75 -35 -106 -199 -13 -66 -27 -110 -37
-119 -9 -7 -11 -11 -4 -7 17 9 16 1 -21 -178 -18 -89 -36 -155 -41 -150 -5 4
-6 2 -2 -5 11 -18 -4 -103 -17 -95 -6 3 -7 1 -3 -6 6 -9 -19 -186 -40 -291
l-6 -25 -19 25 c-10 14 -17 30 -14 37 2 7 -1 15 -7 19 -7 5 -8 2 -4 -7 4 -8
-2 -3 -13 11 -21 25 -25 36 -21 55 1 5 -2 7 -6 2 -10 -9 -45 44 -37 56 3 6 2
7 -4 4 -12 -7 -168 247 -160 261 3 4 -3 16 -14 26 -12 10 -18 24 -15 32 3 8 2
13 -3 10 -13 -8 -65 107 -111 244 -31 91 -89 345 -93 407 -1 18 -73 46 -101
39 -14 -3 -35 -16 -46 -28 -28 -30 -27 -73 5 -216 4 -15 2 -21 -5 -17 -5 3
-10 2 -10 -4 0 -5 5 -11 11 -13 15 -5 78 -215 72 -238 -3 -10 0 -27 6 -37 9
-15 10 -13 6 12 -3 17 9 -6 28 -50 19 -44 48 -110 65 -147 21 -46 27 -68 19
-72 -7 -3 -4 -7 8 -11 24 -7 99 -140 89 -157 -4 -6 -3 -8 4 -4 14 9 31 -22 25
-45 -3 -11 0 -19 6 -19 7 0 9 6 5 13 -16 27 6 -1 40 -52 29 -42 34 -56 24 -64
-10 -7 -9 -8 3 -4 17 5 43 -28 34 -43 -3 -5 0 -12 6 -16 8 -4 9 -3 5 4 -4 7
-5 12 -3 12 11 0 58 -80 52 -90 -3 -6 -2 -9 4 -8 14 4 142 -172 134 -185 -3
-6 -1 -7 4 -4 6 4 22 -8 37 -27 l25 -34 -37 5 c-111 14 -375 97 -516 163 -147
69 -345 198 -338 222 1 5 -1 7 -6 4 -5 -3 -26 12 -46 33 -23 23 -33 41 -27 44
7 3 7 5 -1 3 -7 -1 -28 8 -47 21 -44 30 -76 29 -106 -2 -23 -22 -31 -48 -25
-84 3 -27 52 -81 139 -153 47 -39 92 -79 99 -87 6 -8 12 -12 12 -8 0 3 24 -10
52 -29 29 -19 56 -34 61 -34 4 0 5 -5 1 -12 -4 -6 -3 -8 4 -4 14 8 94 -33 86
-45 -3 -5 3 -6 12 -2 13 5 15 3 9 -7 -5 -9 -4 -11 4 -6 6 4 53 -10 104 -32 51
-21 128 -52 172 -67 44 -16 82 -33 83 -37 2 -5 7 -6 11 -4 4 3 70 -10 147 -29
76 -19 165 -37 196 -41 32 -4 66 -13 75 -21 10 -8 12 -11 4 -7 -9 5 -12 3 -7
-5 4 -6 11 -9 15 -7 10 6 55 -42 110 -115 40 -55 51 -76 31 -64 -5 3 -10 1
-10 -5 0 -7 6 -10 14 -7 17 7 50 -38 41 -54 -4 -5 -1 -8 6 -7 8 2 14 -7 15
-20 1 -12 5 -26 9 -30 5 -4 5 2 1 13 -5 16 -3 15 13 -5 11 -13 17 -28 15 -32
-3 -4 -1 -8 5 -8 14 0 84 -127 77 -139 -4 -5 0 -13 7 -18 20 -12 49 -72 41
-85 -4 -6 -3 -8 3 -5 12 8 105 -196 107 -235 0 -14 4 -24 7 -22 8 5 71 -167
64 -175 -3 -3 -8 5 -12 17 -6 23 -23 21 -23 -4 0 -8 5 -12 10 -9 6 3 13 -1 16
-9 3 -9 9 -14 14 -11 8 5 53 -138 77 -248 14 -68 14 -80 2 -88 -11 -7 -11 -9
4 -9 9 0 17 -2 17 -5 0 -3 7 -65 16 -136 9 -72 14 -139 11 -150 -3 -10 -1 -19
4 -19 5 0 9 -8 9 -18 0 -24 34 -60 64 -68 31 -7 84 20 95 49 5 14 3 80 -5 162
-23 228 -29 425 -14 495 22 102 103 208 263 343 84 71 230 168 245 162 7 -2
11 -1 8 4 -8 12 102 73 116 65 6 -4 8 -3 5 3 -3 5 22 23 56 41 34 18 108 57
165 87 57 31 107 53 113 50 5 -4 8 -2 7 3 -3 11 120 95 140 95 6 0 10 3 7 5
-6 7 62 53 83 57 10 1 16 7 15 13 -3 15 76 74 90 66 6 -4 9 -4 5 1 -8 9 202
232 214 228 5 -2 7 1 5 6 -3 12 94 162 102 157 4 -3 7 3 8 12 1 9 5 38 9 64 6
45 5 47 -27 67 -70 43 -113 21 -167 -86 -17 -32 -49 -84 -72 -114 -63 -80
-172 -189 -183 -182 -6 3 -7 2 -4 -4 4 -5 -7 -23 -23 -38 -26 -25 -31 -26 -47
-14 -16 13 -17 12 -5 -3 12 -14 2 -24 -80 -81 -128 -89 -207 -136 -391 -234
-87 -46 -163 -81 -169 -77 -6 4 -8 3 -5 -3 4 -6 -31 -33 -76 -61 -114 -69
-231 -158 -315 -237 -40 -37 -69 -58 -66 -48 53 236 72 315 109 454 79 293
236 781 286 886 16 34 54 88 85 120 30 32 62 68 70 81 8 13 26 28 40 34 13 6
24 16 24 22 0 14 230 232 242 228 4 -1 7 4 6 10 -2 8 5 12 17 11 11 -1 14 0 7
3 -10 5 -10 9 -1 20 6 8 16 11 22 7 5 -3 7 -2 4 4 -7 11 33 49 48 44 6 -1 7 1
2 5 -10 10 43 65 56 57 6 -3 7 -2 4 4 -8 13 52 85 64 77 5 -3 8 -1 7 3 -5 15
124 173 135 166 6 -3 7 -2 4 4 -10 15 86 151 103 146 11 -3 11 -2 3 4 -9 6 1
34 37 105 67 129 111 249 151 405 19 72 37 129 41 127 4 -3 5 1 2 9 -2 7 4 66
16 130 26 149 26 181 -2 207 -21 19 -41 24 -83 21 -23 -2 -65 -45 -65 -67 0
-8 -4 -14 -9 -14 -4 0 -6 -16 -4 -35 7 -65 -51 -353 -76 -373 -9 -7 -10 -11
-3 -7 18 9 15 -4 -18 -107 -34 -106 -43 -123 -59 -114 -6 4 -11 3 -11 -3 0 -5
5 -11 12 -13 7 -3 -9 -43 -45 -112 -69 -129 -145 -239 -159 -229 -6 3 -8 1 -5
-4 9 -14 -63 -104 -76 -96 -5 3 -7 2 -4 -4 9 -14 -92 -125 -105 -117 -7 5 -8
2 -3 -5 9 -16 -273 -294 -288 -284 -6 3 -7 1 -4 -4 4 -6 -3 -19 -16 -29 -21
-19 -21 -19 -7 1 14 18 14 19 -2 6 -10 -7 -16 -17 -13 -21 7 -11 -60 -71 -70
-63 -4 5 -5 0 -2 -9 3 -9 -1 -22 -10 -30 -14 -11 -15 -10 -10 7 8 24 34 199
47 310 21 176 9 421 -31 613 -10 52 -16 98 -13 103 3 5 1 9 -4 9 -21 0 -92
340 -116 550 -26 232 -29 362 -12 535 18 184 35 287 46 280 5 -3 6 4 3 14 -15
57 101 353 184 468 45 63 53 81 51 114 -1 21 -4 36 -6 34 -3 -2 -16 5 -30 15
-35 28 -66 25 -107 -11z"/>
</g>
</svg>
