<?xml version="1.0" standalone="no"?>
<!DOCTYPE svg PUBLIC "-//W3C//DTD SVG 20010904//EN" "http://www.w3.org/TR/2001/REC-SVG-20010904/DTD/svg10.dtd">
<svg xmlns="http://www.w3.org/2000/svg" version="1.0" width="1024.000000pt" height="1024.000000pt" viewBox="0 0 1024.000000 1024.000000" preserveAspectRatio="xMidYMid meet">
<metadata>
Created by potrace 1.16, written by Peter Selinger 2001-2019
<meta name="Producer" content="Online-Convert"/></metadata>
<g transform="translate(0.000000,1024.000000) scale(0.100000,-0.100000)" fill="#000000" stroke="none">
<path d="M4998 8971 c-1 -5 -64 -11 -140 -13 -75 -1 -134 -6 -132 -9 1 -3 -36 -11 -84 -17 -48 -7 -136 -23 -195 -37 -59 -13 -115 -21 -124 -18 -10 4 -14 2 -10 -4 8 -13 -77 -38 -95 -27 -7 4 -10 3 -5 -1 11 -12 -113 -55 -139 -49 -12 3 -25 1 -28 -4 -4 -6 3 -8 16 -5 13 2 -20 -14 -72 -36 -52 -23 -101 -39 -108 -36 -7 3 -11 1 -8 -4 6 -8 -72 -48 -86 -44 -5 2 -8 -1 -8 -5 0 -13 -48 -32 -64 -26 -8 3 -17 1 -21 -5 -4 -7 1 -9 12 -5 10 3 -24 -19 -76 -50 -51 -31 -97 -53 -102 -50 -5 3 -8 1 -7 -4 2 -5 -35 -35 -82 -67 -47 -32 -115 -82 -152 -111 -37 -30 -69 -54 -71 -54 -3 0 -21 -16 -42 -35 -21 -19 -42 -32 -47 -29 -5 3 -7 2 -6 -3 1 -4 -55 -65 -125 -135 -70 -70 -127 -125 -127 -121 0 3 -7 0 -15 -7 -8 -7 -13 -16 -10 -20 7 -12 -26 -51 -37 -44 -6 4 -8 3 -5 -3 3 -5 -17 -38 -46 -74 -29 -35 -82 -108 -119 -162 -36 -54 -68 -94 -70 -90 -3 4 -3 2 -1 -5 2 -8 -5 -26 -15 -40 -11 -15 -43 -72 -72 -127 -29 -55 -58 -103 -63 -107 -6 -3 -11 -17 -13 -30 -4 -41 -23 -80 -36 -72 -7 4 -8 3 -4 -5 10 -16 -24 -102 -37 -94 -6 3 -7 1 -3 -5 8 -13 -55 -223 -65 -216 -4 2 -5 -5 -2 -16 3 -11 0 -27 -7 -35 -7 -8 -10 -15 -7 -15 3 0 -1 -28 -10 -62 -28 -120 -52 -264 -62 -382 -17 -177 -15 -4650 1 -4679 7 -12 11 -25 10 -29 -1 -4 4 -5 12 -2 8 3 19 -1 26 -8 10 -10 77 -13 324 -11 177 1 300 -2 286 -7 -23 -8 -23 -8 7 -7 17 1 29 5 27 9 -3 4 23 8 58 8 39 0 58 -4 49 -9 -9 -6 -5 -8 14 -8 19 0 23 2 14 8 -10 6 -3 9 19 9 24 0 31 -3 26 -12 -5 -8 0 -7 11 2 11 9 16 10 11 2 -4 -7 -1 -12 9 -12 9 0 13 5 10 10 -3 6 1 10 10 10 9 0 13 -5 10 -10 -3 -6 1 -10 10 -10 9 0 13 4 10 10 -4 6 15 10 50 10 31 0 54 -4 51 -8 -3 -5 1 -9 9 -9 8 0 12 4 9 9 -3 4 29 8 70 8 44 0 76 -4 76 -10 0 -5 5 -10 11 -10 5 0 8 4 5 8 -3 5 27 10 66 11 50 2 74 -2 79 -11 7 -10 9 -10 9 -1 0 18 846 18 853 0 4 -9 6 -9 6 1 1 8 23 12 77 12 41 0 73 -4 70 -8 -2 -4 10 -9 27 -9 26 -2 28 0 12 7 -13 6 19 9 93 9 68 1 112 -3 112 -9 0 -5 8 -10 18 -10 14 0 15 2 2 10 -10 7 10 10 65 10 51 0 86 -5 94 -12 11 -10 13 -10 7 0 -6 9 51 12 271 12 175 0 273 -4 263 -10 -8 -5 -12 -12 -8 -15 3 -3 13 1 21 10 12 12 40 15 127 15 72 0 109 -4 105 -10 -3 -5 1 -10 9 -10 9 0 16 5 16 10 0 13 127 13 132 1 4 -11 29 -14 88 -11 l45 3 -45 7 c-43 7 -41 7 23 8 38 1 66 -2 63 -6 -3 -5 1 -9 9 -9 8 0 12 4 9 9 -3 4 102 8 233 7 142 0 230 -4 218 -9 -18 -8 -17 -9 8 -9 16 -1 26 3 22 9 -3 5 1 10 10 10 9 0 13 -4 10 -10 -3 -5 -1 -10 4 -10 6 0 11 5 11 10 0 6 8 10 18 10 14 0 15 -2 2 -10 -11 -7 2 -10 43 -10 31 0 57 4 57 10 0 6 58 10 155 10 136 0 155 -2 165 -17 11 -17 11 -17 6 0 -5 16 11 17 252 16 144 -1 246 -5 232 -9 -23 -7 -23 -8 -3 -9 12 -1 25 4 28 9 3 6 26 10 50 10 33 0 45 -4 48 -17 4 -17 5 -17 6 0 1 16 14 17 144 18 173 1 196 2 194 11 -1 4 7 13 18 21 20 15 20 30 25 1914 5 2012 1 2724 -19 2863 -58 407 -189 780 -387 1101 -31 49 -52 94 -48 101 4 6 3 8 -3 5 -14 -9 -46 40 -37 55 4 6 3 8 -3 5 -6 -4 -26 17 -46 46 -20 29 -52 71 -71 92 -19 21 -32 44 -29 49 3 6 3 8 -1 4 -4 -3 -34 24 -66 60 -32 37 -74 82 -93 101 -20 19 -33 39 -30 44 3 6 2 7 -4 4 -13 -8 -56 37 -46 48 5 4 3 5 -3 2 -6 -3 -28 10 -50 29 -134 121 -341 272 -504 369 -36 21 -68 44 -72 49 -4 6 -8 7 -8 3 0 -4 -9 -3 -20 3 -11 6 -17 16 -14 22 5 8 1 9 -10 5 -23 -9 -56 9 -56 31 0 11 -3 13 -8 5 -5 -9 -35 1 -107 33 -102 47 -304 124 -323 124 -6 0 -14 9 -17 20 -4 11 -11 17 -17 14 -6 -4 -5 -10 3 -16 10 -7 9 -8 -6 -4 -107 29 -314 76 -332 76 -13 0 -23 3 -23 8 0 4 -30 8 -67 10 -37 1 -70 6 -73 10 -3 4 -25 8 -50 8 -93 -1 -421 14 -430 19 -4 3 -10 1 -12 -4z m382 -181 c138 -12 223 -24 350 -51 180 -39 480 -136 465 -151 -4 -3 -1 -9 6 -14 8 -5 10 -3 4 6 -10 17 17 8 127 -43 62 -28 84 -43 76 -50 -9 -6 -8 -7 4 -3 23 7 78 -22 79 -42 0 -10 3 -12 5 -5 7 17 34 4 35 -16 0 -9 3 -11 5 -4 4 7 31 -5 79 -35 40 -25 71 -51 68 -56 -3 -5 -1 -6 5 -2 13 8 153 -90 196 -138 16 -17 25 -24 20 -16 -10 18 33 -17 143 -117 46 -41 82 -77 80 -81 -1 -4 3 -8 8 -10 13 -4 105 -94 105 -103 0 -4 14 -21 31 -38 27 -28 29 -34 18 -49 -12 -15 -12 -16 2 -4 14 10 21 6 51 -30 75 -93 119 -159 112 -170 -4 -6 -3 -8 4 -5 17 11 210 -320 224 -383 2 -8 6 -17 10 -20 11 -9 48 -110 40 -110 -4 0 -2 -4 4 -8 27 -17 143 -415 130 -447 -3 -8 -1 -15 3 -17 5 -2 11 -23 15 -48 4 -31 3 -39 -3 -25 -9 19 -10 19 -10 -2 -1 -12 4 -23 11 -25 6 -2 16 -31 21 -64 10 -59 20 -4637 10 -4602 -4 16 -6 16 -19 3 -13 -12 -43 -14 -182 -10 -230 6 -377 16 -364 24 5 3 -20 7 -57 8 -36 1 -118 15 -182 31 -138 35 -331 110 -322 125 3 6 1 7 -6 3 -20 -13 -225 109 -214 127 3 6 1 7 -6 3 -12 -8 -119 68 -128 90 -2 7 -14 14 -25 17 -13 4 -17 10 -12 19 4 7 4 10 -1 6 -4 -4 -22 4 -39 19 -99 83 -154 137 -149 146 3 6 1 7 -4 4 -6 -4 -39 16 -74 44 -35 28 -92 69 -126 91 -35 22 -60 45 -56 51 3 6 1 7 -5 3 -11 -7 -140 58 -153 77 -3 5 -9 8 -13 8 -18 -3 -27 0 -22 7 2 4 -3 8 -12 9 -9 1 -75 22 -145 47 -71 25 -169 54 -218 64 -49 10 -88 20 -85 23 2 2 -37 5 -87 7 -49 2 -109 7 -131 11 l-41 7 3 149 c5 243 39 397 127 562 45 85 114 182 155 218 21 18 23 18 17 2 -4 -11 -3 -16 4 -12 6 4 8 14 5 22 -8 20 63 95 83 88 9 -3 12 -3 8 1 -4 4 0 16 9 26 14 15 20 16 33 5 14 -10 14 -10 3 5 -11 14 -7 20 31 47 25 17 48 27 52 23 5 -4 6 -2 2 3 -10 18 216 160 236 149 7 -4 9 -3 5 1 -12 12 150 115 170 108 13 -4 14 -3 4 5 -10 7 2 22 50 60 84 66 188 176 264 279 34 45 64 80 67 77 3 -3 8 0 13 7 4 8 3 10 -4 5 -18 -11 -15 0 18 53 79 127 187 406 197 507 6 60 -8 87 -57 106 -37 15 -213 11 -304 -6 -43 -9 -84 -13 -90 -9 -6 3 -8 2 -3 -2 4 -5 -19 -17 -50 -27 -70 -21 -66 -21 -58 -5 4 6 1 5 -7 -3 -19 -23 -157 -82 -171 -74 -7 4 -9 3 -5 -1 9 -9 -63 -56 -74 -49 -5 3 -8 1 -8 -5 0 -6 -28 -29 -62 -53 -35 -23 -104 -82 -154 -130 -50 -48 -93 -86 -96 -83 -2 3 -5 -1 -5 -8 0 -21 -104 -148 -115 -140 -7 3 -8 1 -4 -6 4 -6 -16 -52 -45 -102 -77 -133 -155 -322 -195 -472 -59 -222 -62 -234 -63 -207 -1 34 -20 281 -26 355 -3 33 -16 141 -27 240 -12 99 -22 196 -22 217 -1 20 -4 34 -7 32 -10 -6 -21 84 -13 98 4 6 3 8 -2 5 -6 -3 -18 35 -28 86 -11 51 -27 117 -38 147 -10 30 -17 63 -14 73 3 11 2 16 -1 13 -9 -9 -84 196 -78 212 3 7 1 11 -4 8 -13 -8 -52 89 -45 111 5 15 4 15 -5 3 -6 -8 -11 -10 -11 -4 0 5 -16 36 -35 68 -19 32 -32 63 -28 70 3 6 3 8 -2 4 -11 -10 -97 121 -88 135 3 5 1 7 -4 4 -6 -4 -29 17 -51 46 -23 28 -75 85 -116 126 -41 41 -72 79 -69 84 3 6 2 7 -3 4 -6 -3 -39 17 -75 44 -35 28 -92 69 -126 91 -35 22 -60 45 -56 51 3 6 1 7 -5 3 -6 -4 -47 11 -90 33 -142 71 -373 153 -515 181 -102 20 -145 -15 -131 -108 5 -32 3 -47 -7 -53 -12 -7 -12 -9 0 -9 8 0 11 -6 7 -16 -4 -10 -2 -13 6 -8 7 5 9 -1 6 -20 -3 -14 -1 -26 3 -26 5 0 9 -12 9 -27 0 -16 7 -57 16 -93 8 -36 16 -76 18 -90 2 -14 9 -38 15 -54 7 -16 9 -36 7 -43 -4 -9 -1 -11 5 -7 8 4 9 -4 4 -27 -4 -22 -3 -29 3 -20 7 9 15 -3 28 -45 11 -33 19 -63 19 -69 0 -5 2 -12 5 -15 3 -3 13 -22 22 -42 13 -28 14 -38 5 -39 -9 0 -9 -2 1 -6 7 -3 34 -51 61 -106 26 -56 73 -144 104 -195 32 -51 57 -96 57 -100 0 -4 -5 0 -10 8 -8 13 -10 12 -10 -2 0 -11 7 -18 18 -18 18 0 92 -90 96 -116 1 -7 6 -17 11 -21 4 -4 5 -1 1 7 -4 8 -1 6 8 -4 8 -10 13 -24 9 -30 -3 -6 -2 -8 2 -3 12 10 76 -53 68 -67 -3 -6 -2 -8 2 -3 12 10 86 -63 78 -77 -3 -6 -3 -8 2 -4 11 11 36 -12 28 -25 -3 -6 -1 -7 5 -3 7 4 33 -10 60 -32 26 -22 84 -65 129 -94 46 -30 80 -57 77 -60 -3 -4 0 -9 7 -14 8 -4 10 -3 5 4 -12 19 1 14 70 -28 143 -87 334 -256 318 -282 -4 -6 -3 -8 4 -5 13 9 74 -72 65 -86 -3 -6 -1 -7 5 -3 7 4 27 -26 52 -77 34 -68 42 -94 43 -147 1 -36 7 -68 12 -72 6 -5 11 -220 14 -598 l3 -591 -41 5 c-23 3 -41 1 -41 -4 0 -4 -24 -7 -54 -7 -30 1 -52 -1 -49 -6 4 -6 -18 -9 -99 -11 -13 -1 -25 -3 -28 -6 -3 -3 -30 -11 -60 -19 -30 -7 -77 -20 -104 -28 -41 -13 -50 -13 -58 -2 -8 12 -9 11 -6 -1 5 -18 -147 -82 -177 -74 -14 4 -16 2 -7 -4 9 -6 -9 -20 -60 -46 -111 -58 -252 -155 -363 -249 -82 -71 -102 -84 -115 -74 -13 11 -13 10 -1 -5 12 -17 9 -23 -12 -19 -5 1 -6 -3 -3 -8 3 -5 -11 -21 -32 -37 -20 -15 -40 -32 -43 -37 -4 -5 -12 -6 -19 -2 -9 5 -11 4 -6 -3 4 -7 -18 -30 -55 -57 -48 -35 -64 -43 -72 -33 -6 10 -7 8 -3 -4 6 -20 -57 -64 -75 -52 -7 4 -9 3 -5 -4 13 -21 -310 -180 -341 -168 -9 4 -11 1 -7 -6 5 -7 -1 -9 -19 -6 -15 3 -24 1 -21 -3 5 -8 -28 -19 -156 -49 -86 -21 -229 -38 -343 -43 l-77 -2 3 2270 2 2270 22 130 c40 242 104 492 123 480 6 -3 7 1 4 9 -13 33 177 443 199 429 6 -3 7 -1 3 5 -3 6 12 42 34 79 60 99 205 288 219 285 7 -1 10 2 6 7 -7 13 119 157 134 153 6 -1 10 4 9 10 -2 7 4 11 12 10 8 -2 12 0 7 4 -10 10 53 75 66 67 6 -3 7 -2 4 4 -9 15 59 77 74 68 7 -5 10 -4 5 3 -8 13 73 84 87 75 6 -3 7 -1 3 5 -7 12 33 44 46 36 5 -3 7 -1 6 4 -4 12 42 49 151 121 51 33 98 58 104 54 5 -3 7 -2 4 4 -3 5 31 30 76 55 131 73 165 88 184 82 13 -4 14 -3 5 4 -19 13 81 55 111 47 16 -5 18 -4 8 3 -11 8 -9 11 8 17 11 3 26 3 32 -1 7 -4 9 -3 6 3 -7 11 26 25 175 73 54 17 102 29 107 26 5 -4 11 -2 13 3 6 16 317 78 478 94 78 8 423 6 530 -3z m-1759 -2476 c93 -30 108 -38 98 -50 -6 -8 -9 -17 -5 -21 3 -4 12 1 19 11 12 16 17 15 74 -12 35 -16 59 -33 55 -37 -4 -5 -2 -5 5 -1 6 3 29 -3 50 -15 96 -54 123 -71 118 -79 -3 -4 3 -7 13 -6 9 0 16 -5 14 -12 -1 -8 1 -11 6 -8 12 7 47 -19 47 -36 1 -7 7 -12 14 -10 20 4 83 -47 75 -61 -4 -7 -3 -9 1 -4 11 10 86 -63 78 -76 -3 -6 -1 -7 4 -4 13 8 86 -70 78 -83 -3 -5 0 -12 6 -16 8 -4 9 -3 5 4 -4 7 -5 12 -2 12 13 0 117 -170 110 -181 -4 -8 -3 -9 4 -5 15 9 94 -147 86 -171 -4 -14 -4 -15 4 -4 7 10 13 4 23 -25 7 -22 14 -41 14 -44 1 -3 11 -27 23 -53 12 -27 22 -56 21 -65 0 -14 -2 -13 -10 3 -8 18 -8 18 -6 -5 1 -14 6 -23 11 -22 5 2 13 -3 18 -11 20 -37 98 -347 98 -392 0 -10 -5 -14 -12 -10 -7 4 -5 0 6 -9 14 -11 17 -23 12 -46 -3 -17 -2 -29 3 -26 5 4 12 -22 15 -57 4 -34 9 -80 12 -102 l6 -40 -30 35 c-17 19 -27 40 -24 45 3 6 1 7 -3 2 -12 -10 -46 23 -38 37 3 6 3 8 -1 4 -4 -3 -44 23 -88 58 -78 63 -153 115 -270 186 -32 19 -55 38 -53 42 3 3 2 4 -1 1 -12 -8 -45 16 -38 28 4 7 4 9 -1 5 -18 -16 -201 134 -188 155 4 6 1 7 -6 3 -25 -16 -270 280 -255 306 4 7 4 10 -1 6 -25 -23 -237 407 -221 449 3 8 2 11 -4 8 -5 -3 -18 25 -29 62 -41 141 -51 178 -51 181 0 1 -2 12 -5 25 -3 12 -12 55 -19 95 -17 88 -21 87 135 36z m2764 -1191 c-32 -96 -136 -311 -169 -346 -13 -14 -22 -27 -20 -29 10 -11 -175 -220 -188 -212 -4 3 -5 10 -2 16 4 7 2 8 -5 4 -9 -6 -9 -11 -1 -21 9 -11 -5 -27 -66 -77 -42 -35 -83 -62 -90 -62 -7 1 -12 -3 -11 -10 1 -6 -9 -10 -23 -8 -18 1 -21 -1 -11 -7 10 -6 -10 -22 -73 -60 -48 -28 -93 -48 -99 -45 -7 4 -9 4 -5 -1 4 -4 -25 -28 -65 -52 -39 -25 -82 -54 -94 -65 -12 -12 -27 -17 -34 -13 -7 5 -10 4 -6 -2 8 -13 -16 -35 -34 -31 -7 2 -13 -2 -14 -8 0 -17 -111 -114 -120 -106 -5 4 -6 2 -2 -3 3 -6 -15 -33 -39 -60 -24 -28 -44 -44 -44 -36 0 30 72 304 106 403 19 57 58 148 85 203 59 116 191 311 208 307 7 -1 10 2 7 7 -9 14 156 164 246 224 105 69 218 119 340 152 116 31 242 45 246 28 2 -6 -9 -46 -23 -90z m-1491 -2424 c10 16 106 14 106 -1 0 -9 2 -10 8 -2 7 11 151 5 242 -11 108 -19 289 -68 283 -77 -3 -7 -1 -8 5 -4 16 10 63 -4 55 -17 -3 -6 -1 -7 6 -3 28 18 420 -201 405 -225 -3 -5 -1 -8 5 -7 5 2 35 -16 65 -40 40 -30 54 -47 50 -60 -4 -11 -3 -13 3 -5 6 9 21 1 53 -28 25 -22 44 -44 43 -49 -2 -6 3 -9 10 -7 6 1 11 -4 9 -11 -1 -8 1 -11 6 -8 10 6 132 -92 132 -107 0 -6 3 -7 7 -4 9 10 34 -14 26 -26 -3 -5 -1 -7 4 -4 6 4 48 -19 94 -50 46 -31 120 -73 164 -93 142 -65 136 -61 85 -55 -24 3 -50 11 -57 17 -10 8 -12 7 -8 -4 5 -13 -9 -15 -103 -13 -59 1 -113 5 -119 8 -7 4 -14 3 -18 -3 -9 -15 -85 -13 -85 3 0 7 -3 8 -8 2 -4 -5 -36 -11 -70 -12 -51 -1 -63 1 -58 12 3 9 0 12 -10 8 -7 -3 -14 -8 -14 -12 0 -12 -54 -11 -62 1 -4 7 -8 8 -8 3 0 -7 -33 -12 -81 -13 -61 -2 -79 0 -73 9 5 9 3 9 -7 3 -18 -11 -629 -13 -629 -1 0 4 -5 5 -12 1 -22 -14 -270 -15 -287 -1 -8 6 -12 7 -8 1 8 -13 -141 -13 -162 0 -9 6 -12 5 -8 0 3 -6 -108 -9 -283 -9 -169 0 -286 4 -282 9 3 5 -1 5 -9 0 -18 -11 -869 -12 -869 -1 0 4 -5 5 -12 1 -6 -4 -77 -8 -157 -9 l-146 -2 63 29 c35 15 69 25 75 21 5 -3 7 -1 4 4 -4 6 16 23 46 38 59 31 145 88 230 152 32 24 62 41 68 38 5 -4 8 -1 7 7 -2 7 3 12 10 10 8 -1 11 2 8 7 -8 12 34 42 47 34 6 -3 7 -2 4 4 -12 19 307 287 331 278 7 -3 11 -1 8 4 -14 23 240 151 386 195 167 51 462 96 479 72 4 -4 10 -3 13 3z"/>
<path d="M5420 8011 c-13 -4 -33 -21 -43 -38 -17 -30 -17 -35 -2 -93 9 -33 13 -66 9 -72 -4 -6 -3 -8 3 -5 6 4 15 -16 22 -50 14 -71 15 -227 1 -218 -6 3 -7 -1 -4 -10 8 -20 -16 -106 -27 -99 -5 3 -6 -3 -2 -12 5 -13 3 -15 -7 -9 -9 5 -11 4 -6 -4 14 -22 -76 -157 -97 -144 -6 3 -7 1 -3 -5 9 -15 -99 -96 -115 -86 -7 4 -9 3 -6 -3 11 -17 -90 -55 -183 -69 -110 -16 -115 -19 -136 -62 -16 -35 -16 -38 2 -72 24 -44 89 -80 209 -115 76 -22 105 -26 191 -23 56 2 100 6 98 9 -2 3 16 12 39 18 119 36 243 132 317 248 26 40 49 71 51 69 2 -2 5 5 5 17 1 12 11 55 23 96 38 135 25 302 -34 434 -14 32 -22 63 -19 69 4 6 3 8 -3 5 -5 -3 -30 22 -55 56 -25 34 -55 71 -67 81 -11 10 -18 23 -14 29 3 6 1 7 -5 3 -7 -4 -22 2 -34 13 -12 12 -18 21 -12 21 5 1 -9 7 -31 15 -22 8 -40 14 -40 14 0 -1 -11 -4 -25 -8z m197 -526 c6 -90 -13 -199 -48 -268 -16 -31 -23 -37 -31 -26 -7 10 -8 9 -4 -7 10 -33 -139 -165 -166 -148 -6 4 -8 3 -5 -3 8 -12 -20 -26 -34 -17 -5 3 -9 1 -9 -4 0 -11 -77 -32 -117 -32 -24 1 -25 2 -10 11 9 5 22 7 29 3 6 -4 8 -3 5 4 -4 5 12 21 36 35 24 14 66 46 95 72 46 41 52 44 61 28 6 -10 11 -13 11 -6 0 6 -4 15 -10 18 -14 8 40 86 54 78 6 -3 8 -3 4 1 -3 4 11 42 33 85 45 91 68 181 70 271 l0 65 15 -40 c8 -22 18 -76 21 -120z"/>
<path d="M6100 6827 c-14 -7 -30 -24 -36 -37 -17 -36 -28 -76 -19 -68 5 5 14 -1 22 -11 20 -30 67 -50 87 -39 10 6 20 7 23 4 9 -8 43 51 43 74 0 32 -21 67 -47 79 -30 14 -42 14 -73 -2z"/>
<path d="M5551 6270 c-51 -8 -81 -38 -81 -82 0 -43 15 -65 54 -78 82 -27 145 72 86 135 -11 12 -17 25 -13 28 3 4 4 6 2 6 -2 -1 -24 -5 -48 -9z"/>
<path d="M6129 5841 c-36 -28 -44 -65 -23 -101 41 -69 154 -41 154 38 0 66 -79 104 -131 63z"/>
</g>
</svg>
