<?xml version="1.0" standalone="no"?>
<!DOCTYPE svg PUBLIC "-//W3C//DTD SVG 20010904//EN"
 "http://www.w3.org/TR/2001/REC-SVG-20010904/DTD/svg10.dtd">
<svg version="1.0" xmlns="http://www.w3.org/2000/svg"
 width="1024.000000pt" height="1024.000000pt" viewBox="0 0 1024.000000 1024.000000"
 preserveAspectRatio="xMidYMid meet">
<metadata>
Created by potrace 1.16, written by Peter Selinger 2001-2019
</metadata>
<g transform="translate(0.000000,1024.000000) scale(0.100000,-0.100000)"
fill="#000000" stroke="none">
<path d="M4980 8514 c-19 -2 -87 -12 -150 -21 -63 -9 -124 -17 -136 -18 -11
-1 -24 -4 -30 -7 -5 -3 -45 -15 -89 -27 -44 -12 -97 -28 -118 -36 -21 -9 -43
-12 -49 -9 -7 4 -8 2 -4 -4 4 -7 1 -12 -6 -12 -21 0 -204 -85 -279 -130 -38
-23 -74 -38 -81 -34 -6 4 -8 3 -5 -3 8 -13 -101 -85 -116 -76 -5 3 -7 1 -4 -4
9 -14 -60 -66 -75 -57 -6 4 -8 3 -5 -3 8 -13 -112 -115 -126 -106 -5 3 -7 2
-4 -4 7 -11 -36 -56 -46 -48 -4 3 -5 2 -2 -1 6 -9 -195 -220 -206 -217 -5 2
-8 -1 -6 -6 4 -15 -64 -102 -75 -95 -7 4 -8 2 -4 -4 4 -6 -21 -48 -55 -94 -48
-65 -67 -83 -85 -82 -13 1 -21 -2 -18 -7 2 -4 11 -6 19 -2 21 8 19 0 -16 -58
-24 -38 -34 -47 -41 -37 -7 10 -8 8 -4 -5 3 -11 -14 -51 -45 -105 -58 -101
-168 -326 -224 -459 -21 -51 -42 -90 -47 -87 -4 3 -5 -1 -3 -8 3 -8 -13 -65
-36 -128 -22 -63 -48 -137 -55 -163 -10 -30 -19 -45 -26 -41 -7 4 -8 3 -4 -5
4 -6 -15 -100 -43 -209 -60 -236 -93 -406 -121 -607 -63 -469 -68 -1022 -13
-1440 10 -71 17 -147 18 -167 0 -21 3 -38 6 -38 10 0 31 -138 23 -151 -5 -8
-3 -9 6 -4 10 6 12 1 8 -18 -3 -15 -2 -25 1 -22 4 2 15 -29 25 -68 10 -40 34
-121 53 -182 20 -60 36 -129 36 -152 0 -23 3 -40 7 -38 5 3 6 15 4 28 -3 13 1
8 10 -12 9 -18 13 -37 10 -42 -3 -5 -1 -9 5 -9 5 0 13 -10 16 -22 4 -13 20
-52 37 -87 16 -35 27 -70 24 -78 -3 -8 -1 -11 4 -8 11 7 102 -169 93 -179 -4
-3 -2 -6 4 -6 15 0 65 -88 58 -100 -4 -6 -1 -9 7 -8 7 2 12 -5 12 -14 -1 -10
2 -16 6 -13 4 3 15 -6 24 -20 19 -29 20 -39 4 -29 -8 4 -10 3 -5 -2 5 -5 14
-9 20 -9 7 0 11 -11 10 -23 -2 -12 2 -22 8 -22 5 0 7 6 4 13 -4 6 7 -4 24 -23
17 -19 29 -42 28 -50 -1 -8 3 -15 10 -15 18 0 85 -83 78 -95 -4 -6 -1 -9 7 -8
7 2 12 -3 10 -10 -1 -8 1 -11 6 -8 12 7 154 -138 145 -150 -4 -5 -4 -6 1 -2
12 10 68 -31 60 -43 -3 -5 -1 -8 3 -7 15 5 212 -145 206 -155 -3 -6 -1 -7 5
-3 6 3 40 -12 77 -34 284 -174 640 -289 1040 -335 106 -13 206 -16 410 -13
158 2 276 -1 285 -6 13 -8 13 -7 2 6 -11 13 -5 16 45 22 262 30 572 123 806
242 48 25 93 42 100 38 7 -4 9 -3 4 1 -9 11 182 137 196 128 5 -3 7 -2 4 4 -4
6 28 37 71 70 159 125 301 273 424 445 31 43 57 75 60 73 3 -3 5 1 5 8 0 6 20
44 45 82 221 346 405 902 458 1385 60 552 29 1185 -86 1734 -13 66 -23 125
-20 132 3 7 1 14 -4 16 -13 5 -81 274 -74 295 4 13 3 14 -3 5 -12 -16 -38 62
-27 80 4 6 3 8 -3 5 -13 -8 -55 125 -47 149 4 13 3 15 -3 6 -7 -8 -25 28 -61
118 -28 72 -50 136 -48 143 1 7 1 8 -2 4 -2 -4 -44 72 -92 170 -49 98 -113
220 -144 271 -30 50 -53 92 -51 92 2 0 -7 12 -21 27 -14 15 -22 33 -19 40 2 8
1 11 -5 8 -9 -6 -36 34 -32 48 1 4 -3 7 -9 7 -5 0 -7 5 -3 12 4 6 3 8 -3 5 -6
-4 -22 11 -36 32 -14 21 -60 80 -102 130 -43 52 -73 96 -69 103 4 6 3 8 -2 5
-13 -7 -227 207 -217 217 5 4 1 6 -7 4 -9 -2 -14 3 -12 11 2 8 -3 11 -12 8 -9
-4 -18 -2 -21 4 -4 5 -46 39 -93 75 -48 36 -86 70 -84 76 1 5 -2 7 -7 4 -5 -4
-49 19 -98 49 -158 100 -384 201 -541 241 -60 15 -69 20 -50 26 17 6 14 6 -10
3 -18 -2 -83 4 -145 15 -107 18 -383 33 -457 24z m410 -224 c121 -20 269 -61
378 -104 129 -50 285 -133 277 -147 -3 -5 0 -6 7 -4 8 3 48 -18 89 -46 94 -65
120 -89 112 -102 -3 -6 -1 -7 6 -3 14 9 43 -12 35 -25 -3 -5 1 -6 8 -4 28 11
366 -344 351 -368 -3 -6 -1 -7 5 -3 13 8 35 -28 24 -39 -4 -3 -2 -5 5 -3 14 4
84 -92 76 -105 -3 -6 -1 -7 4 -4 6 4 22 -11 37 -33 28 -43 32 -55 14 -44 -7 4
-8 3 -4 -5 4 -6 11 -9 15 -7 4 3 13 -5 20 -16 11 -18 11 -20 -4 -15 -9 4 -14
3 -10 -3 3 -6 12 -10 20 -10 19 0 29 -19 30 -54 0 -17 6 -31 15 -34 13 -5 13
-3 1 12 -8 9 -12 19 -9 22 9 8 39 -46 32 -58 -4 -6 -3 -8 3 -5 13 8 26 -20 16
-35 -3 -7 -1 -8 5 -4 7 4 30 -30 62 -93 52 -105 56 -116 40 -106 -6 3 -7 -1
-4 -9 3 -9 10 -13 15 -10 13 8 70 -123 62 -143 -4 -10 -2 -14 4 -10 17 11 122
-264 187 -488 50 -171 78 -286 72 -293 -4 -3 -6 0 -6 7 0 7 -4 10 -10 6 -6 -3
-6 -15 0 -29 5 -13 6 -27 3 -30 -4 -3 -1 -6 6 -6 8 0 11 8 8 20 -3 11 -2 20 3
20 4 0 10 -15 13 -32 4 -18 15 -78 27 -132 11 -54 19 -104 19 -110 -1 -6 1
-18 4 -26 10 -24 45 -292 58 -445 18 -217 15 -678 -5 -880 -26 -256 -110 -674
-137 -683 -5 -2 -7 -8 -3 -13 7 -13 -48 -179 -58 -173 -4 3 -5 -1 -3 -8 21
-54 -299 -685 -335 -663 -6 3 -8 0 -5 -7 7 -17 -124 -180 -137 -171 -6 3 -8 2
-5 -4 9 -14 -113 -145 -130 -139 -7 3 -12 0 -10 -7 1 -7 -4 -11 -11 -9 -8 1
-11 -2 -8 -7 8 -13 -53 -63 -66 -55 -6 4 -8 2 -5 -3 9 -14 -100 -96 -115 -87
-7 4 -8 3 -4 -4 8 -13 -28 -35 -39 -24 -5 4 -5 2 -1 -5 14 -24 -297 -183 -473
-242 -175 -58 -406 -108 -546 -117 -164 -11 -239 -13 -215 -5 20 7 14 9 -30 9
-45 0 -50 -2 -25 -8 20 -5 -4 -8 -73 -9 -67 -1 -101 3 -97 9 3 6 2 10 -4 10
-5 0 -11 -5 -13 -11 -5 -14 -244 14 -403 47 -126 26 -375 102 -375 114 0 4 -6
7 -14 7 -8 0 -28 6 -45 13 -25 10 -30 17 -25 34 14 49 121 251 132 249 6 -2 9
3 6 10 -17 46 390 464 428 441 6 -4 8 -3 5 3 -9 14 162 125 180 118 8 -2 12
-1 9 4 -6 9 128 88 261 155 79 39 88 42 77 24 -4 -7 -3 -8 5 -4 6 4 9 11 7 15
-3 4 16 18 42 31 26 14 87 46 135 72 49 26 94 46 100 44 7 -1 8 -1 4 2 -4 2
52 40 125 83 72 44 137 84 144 90 6 5 20 7 30 3 13 -4 15 -3 6 3 -9 7 6 22 55
55 64 42 227 169 302 236 19 17 40 28 45 25 6 -3 8 -3 4 2 -4 4 32 50 81 101
114 121 238 281 326 421 38 61 74 109 79 106 5 -4 6 -1 3 4 -4 6 22 67 57 137
200 396 305 862 306 1356 0 290 -30 518 -101 767 -17 57 -27 108 -23 115 4 6
3 8 -3 5 -6 -4 -20 20 -33 56 -47 131 -87 205 -118 221 -46 24 -94 20 -126 -9
-14 -13 -26 -29 -26 -35 0 -6 -4 -9 -9 -6 -17 11 9 -72 63 -204 31 -74 54
-143 52 -153 -2 -9 0 -15 4 -12 11 7 23 -51 14 -66 -4 -7 -3 -9 4 -6 12 8 66
-206 59 -234 -3 -10 -1 -19 3 -21 18 -7 32 -261 21 -388 -15 -175 -64 -381
-97 -414 -7 -8 -11 -16 -8 -19 9 -8 -39 -96 -49 -90 -6 3 -7 1 -3 -5 9 -14
-14 -63 -27 -55 -6 3 -7 1 -4 -4 8 -13 -90 -166 -101 -159 -4 2 -16 -3 -27
-11 -16 -13 -17 -15 -2 -10 9 4 17 4 17 1 0 -14 -94 -112 -103 -107 -6 3 -7 2
-4 -4 10 -15 -86 -103 -118 -109 -16 -3 -32 -8 -35 -11 -3 -3 5 -3 18 0 20 5
21 3 10 -10 -25 -31 -222 -164 -235 -159 -7 3 -12 1 -10 -5 3 -15 -223 -141
-240 -134 -8 2 -12 1 -9 -4 10 -16 -516 -245 -546 -238 -7 2 -9 2 -5 -1 13 -7
-196 -93 -211 -87 -7 3 -11 1 -8 -4 7 -11 -133 -73 -147 -64 -5 3 -7 2 -4 -4
4 -6 -5 -15 -19 -22 -33 -15 -37 -14 -30 5 3 8 2 12 -4 9 -6 -3 -10 0 -10 7 0
10 -3 9 -10 -2 -5 -9 -5 -19 1 -26 6 -8 -25 -29 -104 -70 -61 -32 -118 -58
-124 -58 -7 1 -10 -3 -6 -9 4 -6 0 -8 -10 -4 -9 3 -16 2 -14 -3 3 -12 -122
-92 -134 -84 -5 3 -8 1 -7 -4 4 -13 -133 -113 -144 -106 -5 3 -7 0 -6 -8 2 -7
-3 -12 -10 -10 -8 1 -11 -1 -8 -6 6 -9 -54 -58 -66 -54 -5 1 -7 -2 -5 -6 3
-12 -154 -168 -165 -164 -5 1 -7 -1 -4 -6 7 -11 -23 -54 -33 -48 -4 3 -8 0 -8
-7 0 -17 -72 -117 -85 -117 -5 0 -7 -4 -3 -9 3 -5 1 -12 -5 -16 -5 -3 -10 -1
-10 6 0 16 -13 3 -16 -16 -1 -8 2 -13 7 -9 5 3 -15 -41 -45 -98 -67 -128 -120
-270 -154 -413 -24 -99 -26 -130 -27 -306 0 -164 -2 -193 -14 -185 -48 37
-159 150 -155 158 3 5 1 7 -4 6 -9 -3 -147 157 -203 237 -101 144 -222 373
-213 402 5 15 4 15 -5 3 -6 -8 -11 -13 -11 -10 0 3 -14 39 -31 80 -123 299
-195 568 -238 899 -57 431 -52 884 15 1378 9 67 21 120 25 117 5 -3 6 2 3 10
-18 47 115 583 214 861 67 187 143 365 155 358 6 -3 7 -1 3 5 -9 15 104 237
194 380 124 199 293 418 312 405 7 -4 8 -1 4 6 -17 28 357 363 385 345 8 -4 9
-3 5 4 -4 7 15 26 46 47 55 37 74 44 62 23 -4 -8 -3 -10 2 -5 5 5 9 13 9 19 0
14 148 92 274 143 133 54 312 98 481 119 60 7 382 -3 450 -14z m1348 -3262
c-6 -13 -12 -30 -13 -38 -5 -44 -30 -100 -44 -100 -12 0 -13 -2 -3 -9 10 -6 8
-20 -9 -67 -30 -83 -137 -304 -189 -394 -87 -150 -130 -209 -148 -204 -12 4
-13 3 -5 -3 10 -7 5 -19 -18 -51 -17 -23 -35 -40 -40 -37 -5 4 -7 0 -4 -7 9
-23 -266 -311 -277 -291 -3 5 -3 3 -2 -4 4 -16 -105 -105 -119 -96 -5 3 -7 1
-3 -5 8 -13 -160 -136 -174 -127 -6 4 -9 1 -8 -5 4 -15 -239 -163 -254 -154
-6 4 -8 3 -5 -3 10 -16 -426 -249 -444 -237 -7 4 -9 3 -6 -3 3 -5 -37 -34 -91
-63 -53 -30 -114 -64 -134 -78 -20 -13 -42 -21 -48 -17 -6 3 -9 1 -8 -7 2 -7
-5 -12 -15 -12 -10 1 -16 -1 -13 -4 10 -9 -76 -61 -93 -55 -11 3 -12 2 -4 -4
10 -7 0 -18 -35 -43 -26 -18 -52 -33 -59 -33 -7 0 -10 -4 -8 -7 7 -12 -86 -80
-99 -73 -6 3 -7 2 -3 -2 10 -11 -153 -176 -166 -168 -6 3 -7 1 -3 -6 8 -13
-52 -88 -67 -83 -5 1 -6 -2 -2 -8 3 -5 -5 -21 -19 -35 -14 -14 -23 -25 -21
-25 3 0 -10 -24 -29 -52 -40 -63 -106 -195 -131 -260 -15 -42 -19 -46 -36 -35
-11 7 -17 17 -15 24 3 6 -1 14 -8 16 -8 3 -18 42 -25 104 -6 54 -14 115 -16
136 -9 68 14 302 40 403 29 114 83 256 95 249 5 -3 12 0 16 6 4 8 3 9 -4 5
-19 -11 -15 1 24 75 21 39 41 66 47 62 5 -3 7 -1 4 4 -4 6 13 40 37 74 31 45
49 63 62 61 14 -2 16 -1 6 6 -31 21 290 333 323 315 5 -4 7 -3 3 2 -10 10 59
58 71 50 6 -3 13 0 17 6 5 8 3 9 -7 4 -9 -5 -11 -5 -4 2 23 24 201 123 213
118 7 -3 11 -1 8 4 -7 11 22 23 36 14 6 -3 8 -2 5 3 -8 13 90 67 109 60 8 -3
13 -2 9 3 -6 10 37 32 234 117 79 34 132 52 145 48 14 -3 17 -2 9 3 -16 11
141 78 158 67 7 -4 9 -3 6 3 -8 12 169 87 184 77 7 -4 9 -3 6 3 -3 5 29 25 71
43 193 83 430 218 582 331 45 33 85 57 91 54 5 -4 8 -2 7 2 -4 12 194 207 207
204 6 -2 7 1 3 4 -10 11 42 76 55 68 6 -3 7 -1 3 5 -4 6 5 29 20 52 29 43 42
54 22 18z"/>
</g>
</svg>
