<svg id="svg" version="1.1" xmlns="http://www.w3.org/2000/svg" xmlns:xlink="http://www.w3.org/1999/xlink" width="400" height="400" viewBox="0, 0, 400,400"><g id="svgg"><path id="path0" d="M188.672 51.683 C 188.672 51.878,188.408 51.936,188.086 51.812 C 187.764 51.688,187.500 51.779,187.500 52.013 C 187.500 52.306,187.328 52.297,186.949 51.982 C 186.341 51.478,185.772 52.022,185.753 53.125 C 185.747 53.447,185.553 53.677,185.321 53.636 C 185.089 53.594,184.928 53.944,184.962 54.413 C 184.997 54.882,184.798 55.492,184.521 55.769 C 184.244 56.046,184.117 56.531,184.238 56.847 C 184.359 57.163,184.254 57.422,184.003 57.422 C 183.753 57.422,183.647 57.583,183.768 57.779 C 183.890 57.976,183.817 58.195,183.607 58.267 C 183.398 58.339,183.159 58.750,183.078 59.180 C 182.836 60.457,182.362 61.337,182.027 61.130 C 181.854 61.024,181.813 61.316,181.934 61.779 C 182.055 62.243,181.995 62.524,181.800 62.403 C 181.605 62.283,181.428 62.651,181.406 63.221 C 181.345 64.832,181.033 66.590,180.719 67.099 C 180.561 67.354,180.373 68.137,180.301 68.839 C 180.228 69.542,180.041 70.425,179.886 70.801 C 179.731 71.177,179.711 71.764,179.842 72.106 C 179.973 72.447,179.948 72.931,179.786 73.180 C 179.392 73.787,179.407 85.155,179.803 85.156 C 179.974 85.156,179.998 85.771,179.857 86.523 C 179.687 87.431,179.749 87.891,180.042 87.891 C 180.318 87.891,180.392 88.257,180.239 88.867 C 180.103 89.406,180.163 89.844,180.372 89.844 C 180.581 89.844,180.667 90.283,180.564 90.820 C 180.451 91.414,180.558 91.797,180.837 91.797 C 181.089 91.797,181.208 91.939,181.100 92.113 C 180.809 92.586,181.678 95.703,182.102 95.703 C 182.303 95.703,182.367 95.867,182.243 96.067 C 182.120 96.267,182.200 96.543,182.422 96.680 C 182.644 96.817,182.724 97.093,182.601 97.293 C 182.477 97.493,182.556 97.656,182.777 97.656 C 182.998 97.656,183.077 97.920,182.954 98.242 C 182.826 98.574,182.945 98.828,183.226 98.828 C 183.500 98.828,183.614 98.938,183.479 99.073 C 183.344 99.208,183.496 99.946,183.817 100.713 C 184.137 101.480,184.308 102.345,184.196 102.636 C 184.085 102.927,184.147 103.070,184.336 102.954 C 184.810 102.661,186.469 106.877,186.109 107.460 C 185.935 107.742,185.981 107.832,186.222 107.683 C 186.764 107.348,187.659 109.570,187.329 110.430 C 187.185 110.804,187.186 110.991,187.331 110.847 C 187.707 110.470,188.769 111.635,188.478 112.106 C 188.345 112.323,188.440 112.500,188.691 112.500 C 188.946 112.500,189.042 112.772,188.908 113.121 C 188.777 113.463,188.790 113.937,188.936 114.175 C 189.816 115.597,189.818 128.510,188.939 128.514 C 188.763 128.515,188.731 128.867,188.867 129.297 C 189.019 129.775,188.937 130.078,188.656 130.078 C 188.404 130.078,188.299 130.342,188.423 130.664 C 188.546 130.986,188.458 131.250,188.227 131.250 C 187.996 131.250,187.904 131.502,188.022 131.811 C 188.141 132.119,188.064 132.429,187.851 132.500 C 187.639 132.571,187.436 133.022,187.400 133.502 C 187.363 133.982,187.216 134.375,187.072 134.375 C 186.928 134.375,186.713 134.744,186.595 135.196 C 186.477 135.647,186.195 135.901,185.968 135.761 C 185.709 135.601,185.651 135.755,185.813 136.177 C 185.967 136.577,185.914 136.750,185.682 136.607 C 185.467 136.474,185.307 136.751,185.323 137.226 C 185.339 137.699,185.153 138.049,184.909 138.004 C 184.666 137.958,184.490 138.222,184.519 138.590 C 184.547 138.957,184.357 139.216,184.096 139.165 C 183.804 139.108,183.717 139.319,183.870 139.717 C 184.010 140.083,183.956 140.263,183.744 140.132 C 183.521 139.994,183.406 140.789,183.458 142.119 C 183.589 145.480,183.708 145.983,184.361 145.939 C 184.691 145.917,184.919 146.112,184.868 146.373 C 184.811 146.665,185.022 146.752,185.420 146.599 C 185.775 146.463,185.966 146.513,185.843 146.711 C 185.453 147.342,189.205 146.962,189.672 146.323 C 189.963 145.925,190.235 145.860,190.499 146.124 C 190.763 146.388,191.047 146.331,191.364 145.950 C 191.731 145.508,191.731 145.318,191.365 145.092 C 191.047 144.895,190.997 144.967,191.211 145.313 C 191.433 145.672,191.375 145.730,191.017 145.509 C 190.617 145.262,190.659 145.082,191.209 144.679 C 191.596 144.397,192.106 144.282,192.343 144.423 C 192.580 144.565,192.546 144.401,192.269 144.058 C 191.923 143.631,191.899 143.391,192.192 143.293 C 192.428 143.214,192.676 142.802,192.743 142.376 C 192.810 141.950,193.138 141.624,193.472 141.651 C 193.866 141.683,193.998 141.489,193.848 141.098 C 193.698 140.706,193.775 140.594,194.070 140.777 C 194.375 140.965,194.438 140.838,194.265 140.386 C 194.081 139.907,194.149 139.803,194.504 140.022 C 194.895 140.264,194.906 140.154,194.556 139.500 C 194.241 138.910,194.236 138.672,194.541 138.672 C 194.776 138.672,194.859 138.496,194.727 138.281 C 194.594 138.066,194.682 137.891,194.922 137.891 C 195.162 137.891,195.250 137.715,195.117 137.500 C 194.984 137.285,195.072 137.109,195.313 137.109 C 195.553 137.109,195.648 136.946,195.524 136.746 C 195.401 136.546,195.481 136.270,195.703 136.133 C 195.925 135.996,196.005 135.720,195.882 135.520 C 195.758 135.320,195.838 135.156,196.058 135.156 C 196.279 135.156,196.359 134.893,196.235 134.570 C 196.111 134.248,196.223 133.984,196.484 133.984 C 196.745 133.984,196.860 133.726,196.739 133.411 C 196.618 133.096,196.670 132.744,196.855 132.629 C 197.041 132.515,197.100 132.070,196.988 131.640 C 196.872 131.198,196.976 130.859,197.228 130.859 C 197.506 130.859,197.580 130.495,197.426 129.883 C 197.265 129.242,197.344 128.906,197.656 128.906 C 197.968 128.906,198.047 128.571,197.886 127.930 C 197.741 127.350,197.809 126.953,198.054 126.953 C 198.318 126.953,198.406 126.042,198.299 124.414 C 198.207 123.018,198.288 121.875,198.480 121.875 C 198.890 121.875,198.953 119.786,198.555 119.388 C 198.405 119.238,198.330 118.330,198.389 117.370 C 198.458 116.249,198.335 115.625,198.045 115.625 C 197.747 115.625,197.682 115.227,197.852 114.453 C 197.993 113.809,197.954 113.281,197.765 113.281 C 197.576 113.281,197.380 112.666,197.329 111.914 C 197.277 111.162,197.198 110.036,197.153 109.412 C 197.107 108.788,196.957 108.348,196.819 108.433 C 196.443 108.666,196.028 106.677,196.340 106.134 C 196.488 105.876,196.473 105.788,196.305 105.938 C 195.890 106.313,194.812 105.182,195.115 104.690 C 195.249 104.474,195.162 104.297,194.922 104.297 C 194.682 104.297,194.594 104.121,194.727 103.906 C 194.859 103.691,194.776 103.516,194.541 103.516 C 194.236 103.516,194.232 103.294,194.527 102.743 C 194.857 102.126,194.828 102.014,194.382 102.185 C 193.964 102.345,193.845 102.100,193.906 101.210 C 193.952 100.557,193.916 100.094,193.828 100.183 C 193.361 100.649,192.691 99.358,193.049 98.683 C 193.312 98.188,193.308 98.033,193.036 98.201 C 192.533 98.512,192.038 97.055,192.420 96.390 C 192.576 96.120,192.569 96.020,192.404 96.168 C 191.795 96.716,191.075 95.553,191.512 94.727 C 191.894 94.003,191.871 93.989,191.202 94.531 C 190.551 95.059,190.503 95.053,190.720 94.472 C 190.853 94.117,190.844 93.709,190.701 93.565 C 190.557 93.422,190.432 93.097,190.422 92.844 C 190.384 91.814,189.311 87.891,189.068 87.891 C 188.925 87.891,188.885 87.363,188.979 86.719 C 189.074 86.074,188.979 85.547,188.769 85.547 C 188.529 85.547,188.446 83.258,188.547 79.395 C 188.777 70.632,188.772 70.703,189.173 70.703 C 189.374 70.703,189.428 70.264,189.293 69.727 C 189.158 69.189,189.194 68.750,189.372 68.750 C 189.736 68.750,190.834 64.917,190.686 64.160 C 190.634 63.892,190.769 63.672,190.986 63.672 C 191.204 63.672,191.281 63.408,191.157 63.086 C 191.033 62.764,191.121 62.500,191.352 62.500 C 191.583 62.500,191.671 62.236,191.548 61.914 C 191.424 61.592,191.528 61.328,191.778 61.328 C 192.029 61.328,192.125 61.152,191.992 60.938 C 191.859 60.723,191.956 60.547,192.206 60.547 C 192.457 60.547,192.561 60.283,192.437 59.961 C 192.313 59.639,192.393 59.375,192.613 59.375 C 192.834 59.375,192.906 59.199,192.773 58.984 C 192.641 58.770,192.718 58.594,192.946 58.594 C 193.173 58.594,193.359 58.320,193.359 57.985 C 193.359 57.650,193.503 57.465,193.679 57.574 C 194.015 57.781,193.858 55.695,193.462 54.688 C 193.335 54.365,193.216 53.973,193.198 53.816 C 193.179 53.659,192.757 53.245,192.259 52.897 C 191.761 52.548,191.430 52.061,191.524 51.815 C 191.634 51.528,191.152 51.360,190.183 51.348 C 189.352 51.338,188.672 51.488,188.672 51.683 M221.094 51.834 C 220.342 52.182,219.615 52.445,219.480 52.420 C 219.344 52.395,219.256 52.675,219.284 53.043 C 219.313 53.410,219.123 53.669,218.862 53.618 C 218.569 53.561,218.482 53.772,218.635 54.170 C 218.815 54.638,218.740 54.728,218.365 54.496 C 218.020 54.282,217.941 54.327,218.129 54.631 C 218.496 55.224,218.019 56.718,217.554 56.431 C 217.357 56.309,217.312 56.510,217.454 56.880 C 217.642 57.371,217.572 57.464,217.194 57.230 C 216.848 57.017,216.769 57.061,216.957 57.365 C 217.309 57.935,216.856 59.457,216.415 59.185 C 216.235 59.074,216.188 59.363,216.309 59.826 C 216.450 60.366,216.380 60.577,216.114 60.412 C 215.847 60.247,215.777 60.458,215.918 60.998 C 216.082 61.626,216.008 61.760,215.626 61.524 C 215.282 61.312,215.208 61.359,215.399 61.670 C 215.556 61.924,215.313 63.715,214.859 65.650 C 214.405 67.584,214.130 69.325,214.249 69.518 C 214.368 69.710,214.281 69.982,214.055 70.122 C 213.830 70.261,213.641 71.108,213.636 72.004 C 213.631 72.900,213.538 75.623,213.430 78.055 C 213.294 81.087,213.373 82.648,213.682 83.019 C 213.949 83.342,214.026 84.044,213.871 84.750 C 213.694 85.553,213.760 85.938,214.074 85.938 C 214.366 85.938,214.452 86.278,214.307 86.859 C 214.179 87.366,214.518 89.482,215.058 91.563 C 215.599 93.643,215.921 95.541,215.773 95.780 C 215.620 96.028,215.680 96.106,215.914 95.961 C 216.267 95.743,216.711 96.314,217.007 97.363 C 217.053 97.524,217.125 97.700,217.168 97.754 C 217.211 97.808,217.325 98.283,217.422 98.811 C 217.519 99.339,217.743 99.866,217.921 99.983 C 218.098 100.100,218.221 100.665,218.192 101.239 C 218.164 101.814,218.260 102.210,218.405 102.121 C 218.623 101.985,219.105 102.719,219.321 103.516 C 219.648 104.722,220.043 105.469,220.353 105.469 C 220.573 105.469,220.540 105.836,220.273 106.348 C 220.022 106.831,219.946 107.105,220.106 106.957 C 220.546 106.548,221.416 107.535,221.174 108.167 C 221.026 108.553,221.120 108.624,221.484 108.398 C 221.865 108.163,221.941 108.249,221.763 108.712 C 221.629 109.063,221.689 109.456,221.898 109.585 C 222.107 109.714,222.177 109.983,222.054 110.183 C 221.930 110.383,222.034 110.547,222.284 110.547 C 222.535 110.547,222.641 110.805,222.520 111.120 C 222.399 111.436,222.480 111.805,222.700 111.941 C 222.920 112.077,223.006 112.434,222.890 112.735 C 222.775 113.035,222.863 113.281,223.085 113.281 C 223.312 113.281,223.381 113.624,223.242 114.063 C 223.106 114.492,223.151 114.844,223.343 114.844 C 223.534 114.844,223.726 116.185,223.768 117.825 C 223.811 119.464,223.917 120.921,224.004 121.063 C 224.329 121.589,223.393 127.631,222.578 130.273 C 222.114 131.777,221.700 133.140,221.658 133.301 C 221.616 133.462,221.539 133.726,221.487 133.887 C 221.435 134.048,221.413 134.312,221.438 134.473 C 221.464 134.634,221.298 134.766,221.071 134.766 C 220.843 134.766,220.766 134.941,220.898 135.156 C 221.031 135.371,220.943 135.547,220.703 135.547 C 220.463 135.547,220.375 135.723,220.508 135.938 C 220.641 136.152,220.607 136.329,220.433 136.329 C 220.259 136.330,219.601 137.287,218.971 138.456 C 218.340 139.625,217.725 140.520,217.604 140.444 C 217.482 140.369,217.443 141.258,217.517 142.419 C 217.590 143.581,217.831 144.531,218.053 144.531 C 218.303 144.531,218.282 144.740,217.998 145.082 C 217.646 145.507,217.656 145.705,218.041 145.943 C 219.106 146.601,223.438 147.095,223.438 146.558 C 223.438 146.341,223.876 146.211,224.411 146.269 C 225.539 146.393,226.486 145.553,225.740 145.092 C 225.422 144.895,225.372 144.967,225.586 145.313 C 225.808 145.672,225.750 145.730,225.392 145.509 C 224.992 145.262,225.034 145.082,225.584 144.679 C 225.971 144.397,226.481 144.282,226.718 144.423 C 226.955 144.565,226.907 144.384,226.612 144.020 C 226.188 143.498,226.182 143.359,226.580 143.359 C 226.857 143.359,226.972 143.248,226.837 143.113 C 226.415 142.691,227.374 141.334,227.940 141.551 C 228.306 141.692,228.399 141.558,228.234 141.127 C 228.074 140.710,228.145 140.592,228.445 140.777 C 228.750 140.965,228.813 140.838,228.640 140.386 C 228.498 140.015,228.543 139.815,228.742 139.938 C 228.940 140.060,229.138 139.737,229.183 139.221 C 229.346 137.343,229.435 137.079,229.850 137.238 C 230.083 137.327,230.292 137.027,230.316 136.571 C 230.370 135.490,230.634 134.438,231.193 133.073 C 231.442 132.464,231.554 131.817,231.442 131.635 C 231.329 131.453,231.393 131.208,231.583 131.090 C 232.416 130.576,233.219 116.016,232.414 116.016 C 232.217 116.016,232.151 115.768,232.267 115.465 C 232.531 114.776,230.850 107.813,230.419 107.813 C 230.245 107.813,230.204 107.549,230.327 107.227 C 230.451 106.904,230.363 106.641,230.132 106.641 C 229.901 106.641,229.813 106.377,229.937 106.055 C 230.061 105.732,229.961 105.469,229.716 105.469 C 229.388 105.469,229.394 105.236,229.738 104.590 C 230.177 103.765,230.161 103.747,229.483 104.297 C 228.831 104.826,228.784 104.818,229.006 104.224 C 229.142 103.862,229.067 103.504,228.840 103.428 C 228.612 103.353,228.371 102.788,228.304 102.174 C 228.236 101.560,228.037 100.951,227.860 100.822 C 227.537 100.584,227.323 99.723,227.210 98.194 C 227.170 97.653,226.957 97.439,226.596 97.577 C 226.292 97.694,226.145 97.626,226.268 97.426 C 226.392 97.226,226.219 96.449,225.884 95.699 C 225.549 94.949,225.208 93.988,225.126 93.563 C 225.045 93.138,224.821 92.633,224.629 92.441 C 224.437 92.249,224.373 91.850,224.486 91.554 C 224.600 91.258,224.480 91.016,224.219 91.016 C 223.958 91.016,223.846 90.752,223.969 90.430 C 224.093 90.107,224.048 89.844,223.870 89.844 C 223.692 89.844,223.630 89.404,223.733 88.867 C 223.847 88.270,223.739 87.891,223.457 87.891 C 223.179 87.891,223.089 87.592,223.232 87.142 C 223.362 86.731,223.328 86.307,223.156 86.200 C 222.983 86.094,222.795 83.750,222.738 80.991 C 222.681 78.233,222.537 75.493,222.419 74.902 C 222.283 74.226,222.371 73.828,222.655 73.828 C 222.907 73.828,223.068 73.355,223.020 72.754 C 222.973 72.163,223.063 71.380,223.221 71.015 C 223.378 70.649,223.400 70.178,223.270 69.968 C 223.140 69.757,223.220 69.470,223.447 69.330 C 223.674 69.190,223.753 68.738,223.622 68.327 C 223.484 67.891,223.569 67.578,223.825 67.578 C 224.067 67.578,224.144 67.383,223.996 67.144 C 223.849 66.905,223.887 66.597,224.082 66.460 C 224.276 66.323,224.748 65.196,225.131 63.956 C 225.544 62.619,225.992 61.803,226.234 61.952 C 226.488 62.109,226.474 61.893,226.197 61.375 C 225.866 60.756,225.866 60.547,226.200 60.547 C 226.445 60.547,226.545 60.283,226.421 59.961 C 226.298 59.639,226.385 59.375,226.617 59.375 C 226.848 59.375,226.936 59.111,226.812 58.789 C 226.688 58.467,226.752 58.203,226.953 58.203 C 227.154 58.203,227.218 57.939,227.094 57.617 C 226.971 57.295,227.064 57.031,227.302 57.031 C 227.540 57.031,227.734 56.504,227.734 55.859 C 227.734 55.215,227.544 54.688,227.311 54.688 C 227.078 54.688,226.954 54.491,227.034 54.250 C 227.272 53.536,225.156 51.527,224.451 51.798 C 224.108 51.929,223.828 51.842,223.828 51.604 C 223.828 50.997,222.700 51.092,221.094 51.834 M188.770 79.102 C 188.775 79.961,188.855 80.267,188.948 79.781 C 189.042 79.295,189.038 78.592,188.940 78.218 C 188.842 77.845,188.766 78.242,188.770 79.102 M189.169 121.484 C 189.169 122.451,189.245 122.847,189.338 122.363 C 189.431 121.880,189.431 121.089,189.338 120.605 C 189.245 120.122,189.169 120.518,189.169 121.484 M205.469 158.991 C 202.783 159.359,201.882 159.721,202.226 160.295 C 202.373 160.541,202.186 160.493,201.811 160.188 C 201.244 159.728,201.148 159.725,201.247 160.170 C 201.313 160.465,201.162 160.715,200.911 160.724 C 200.661 160.734,200.309 160.902,200.130 161.098 C 199.938 161.308,200.025 161.325,200.344 161.141 C 200.714 160.926,200.821 160.998,200.685 161.371 C 200.577 161.670,200.277 161.866,200.020 161.807 C 199.762 161.748,199.664 161.881,199.801 162.103 C 200.130 162.636,199.646 164.131,199.227 163.872 C 199.048 163.761,199.000 164.050,199.121 164.514 C 199.281 165.125,199.207 165.273,198.851 165.053 C 198.457 164.810,198.456 164.930,198.845 165.657 C 199.205 166.329,199.214 166.603,198.882 166.714 C 198.635 166.796,198.533 167.026,198.655 167.224 C 198.932 167.672,197.847 168.811,197.487 168.450 C 197.342 168.306,197.338 168.484,197.477 168.846 C 197.616 169.208,197.277 170.873,196.723 172.545 C 196.169 174.218,195.652 175.938,195.573 176.367 C 195.494 176.797,195.302 177.442,195.146 177.802 C 194.990 178.161,194.814 178.688,194.756 178.973 C 194.699 179.259,194.431 180.020,194.163 180.664 C 193.894 181.309,193.647 182.231,193.614 182.715 C 193.581 183.198,193.431 183.593,193.279 183.593 C 193.128 183.594,192.872 184.253,192.711 185.059 C 192.350 186.865,192.370 186.789,192.059 187.500 C 191.230 189.395,189.890 193.899,190.069 194.189 C 190.185 194.377,190.117 194.531,189.918 194.531 C 189.589 194.531,188.850 196.646,188.485 198.633 C 188.406 199.063,188.306 199.458,188.262 199.512 C 188.219 199.565,188.147 199.741,188.102 199.902 C 188.057 200.063,187.798 200.723,187.527 201.367 C 187.255 202.012,187.006 202.934,186.974 203.418 C 186.941 203.901,186.763 204.296,186.579 204.297 C 186.395 204.297,186.346 204.561,186.469 204.883 C 186.593 205.205,186.538 205.469,186.347 205.469 C 186.156 205.469,185.883 205.998,185.741 206.644 C 185.599 207.290,185.338 207.730,185.161 207.620 C 184.984 207.510,184.918 207.729,185.016 208.105 C 185.114 208.481,184.923 209.555,184.592 210.491 C 184.261 211.427,184.087 212.350,184.205 212.542 C 184.324 212.734,184.240 212.891,184.020 212.891 C 183.799 212.891,183.719 213.154,183.843 213.477 C 183.967 213.799,183.855 214.063,183.594 214.063 C 183.333 214.063,183.221 214.326,183.344 214.648 C 183.468 214.971,183.380 215.234,183.149 215.234 C 182.918 215.234,182.826 215.487,182.944 215.795 C 183.062 216.103,182.986 216.414,182.774 216.484 C 182.562 216.555,182.332 217.050,182.262 217.584 C 182.193 218.118,181.920 219.082,181.655 219.727 C 181.390 220.371,181.147 221.294,181.114 221.777 C 181.081 222.260,180.923 222.656,180.762 222.656 C 180.601 222.656,180.497 222.788,180.531 222.949 C 180.565 223.110,180.480 223.506,180.342 223.828 C 179.556 225.663,178.940 227.864,179.127 228.167 C 179.246 228.359,179.165 228.516,178.947 228.516 C 178.581 228.516,177.866 231.072,178.046 231.738 C 178.089 231.899,177.930 232.031,177.693 232.031 C 177.455 232.031,177.361 232.295,177.485 232.617 C 177.609 232.939,177.532 233.203,177.314 233.203 C 177.097 233.203,176.955 233.423,176.999 233.691 C 177.043 233.960,176.857 234.707,176.587 235.352 C 176.317 235.996,176.069 236.921,176.036 237.406 C 176.003 237.892,175.801 238.222,175.586 238.140 C 175.371 238.057,175.170 238.363,175.138 238.819 C 175.010 240.673,174.827 241.612,174.556 241.804 C 174.398 241.916,174.198 242.443,174.110 242.976 C 174.022 243.509,173.742 244.453,173.488 245.073 C 173.234 245.693,172.969 246.484,172.900 246.831 C 172.830 247.177,172.662 247.725,172.526 248.047 C 171.838 249.675,171.155 251.953,171.354 251.953 C 171.478 251.953,171.384 252.189,171.145 252.477 C 170.906 252.766,170.835 253.127,170.988 253.280 C 171.141 253.433,171.071 253.680,170.832 253.830 C 170.292 254.168,167.910 261.698,168.196 262.162 C 168.311 262.348,168.201 262.500,167.950 262.500 C 167.700 262.500,167.596 262.764,167.719 263.086 C 167.843 263.408,167.807 263.672,167.640 263.672 C 167.357 263.672,164.648 271.984,164.648 272.852 C 164.648 273.066,164.499 273.351,164.317 273.484 C 164.135 273.617,163.959 274.188,163.927 274.753 C 163.894 275.318,163.758 275.781,163.625 275.781 C 163.399 275.781,162.563 278.380,162.370 279.688 C 162.322 280.010,162.175 280.449,162.043 280.664 C 161.490 281.564,156.660 296.981,156.840 297.272 C 156.948 297.447,156.843 297.654,156.607 297.733 C 156.371 297.811,156.150 298.353,156.116 298.938 C 156.082 299.522,155.904 300.000,155.720 300.000 C 155.536 300.000,155.494 300.283,155.627 300.629 C 155.784 301.040,155.697 301.193,155.376 301.070 C 155.033 300.939,154.887 301.314,154.897 302.296 C 154.924 304.887,155.794 304.794,131.912 304.766 C 114.133 304.746,110.162 304.838,109.061 305.298 C 108.329 305.604,107.568 305.754,107.371 305.632 C 107.173 305.510,107.055 305.556,107.108 305.733 C 107.250 306.203,105.823 308.227,105.494 308.024 C 105.340 307.928,105.228 309.541,105.244 311.608 C 105.265 314.254,105.418 315.413,105.764 315.528 C 106.034 315.618,106.167 315.834,106.060 316.007 C 105.778 316.464,106.966 319.141,107.450 319.141 C 107.675 319.141,107.750 319.316,107.617 319.531 C 107.484 319.746,107.572 319.922,107.813 319.922 C 108.053 319.922,108.141 320.098,108.008 320.313 C 107.875 320.527,107.937 320.703,108.146 320.703 C 108.354 320.703,108.477 321.138,108.419 321.669 C 108.361 322.200,108.455 322.547,108.629 322.439 C 108.803 322.332,109.157 322.644,109.416 323.134 C 109.675 323.623,110.481 324.752,111.207 325.643 C 111.933 326.533,112.477 327.492,112.416 327.773 C 112.355 328.055,112.509 328.293,112.758 328.303 C 113.426 328.329,117.231 332.036,116.990 332.425 C 116.877 332.609,116.951 332.861,117.154 332.987 C 117.358 333.113,117.651 333.010,117.807 332.759 C 117.995 332.454,117.919 332.407,117.578 332.617 C 117.224 332.836,117.161 332.781,117.371 332.441 C 117.595 332.078,117.925 332.218,118.623 332.971 C 119.145 333.534,119.474 334.151,119.356 334.343 C 119.237 334.535,119.491 334.601,119.921 334.488 C 120.653 334.297,120.919 334.701,120.727 335.711 C 120.690 335.908,120.920 335.853,121.240 335.588 C 121.884 335.053,122.899 336.296,122.350 336.947 C 122.196 337.130,122.378 337.043,122.754 336.756 C 123.130 336.468,123.438 336.402,123.438 336.608 C 123.438 336.815,123.887 337.189,124.436 337.439 C 125.033 337.711,125.323 338.075,125.157 338.343 C 124.996 338.603,125.050 338.687,125.286 338.541 C 125.509 338.403,127.208 339.001,129.061 339.869 C 130.914 340.737,132.604 341.340,132.816 341.209 C 133.029 341.077,133.203 341.142,133.203 341.352 C 133.203 341.686,135.008 342.320,136.133 342.382 C 136.348 342.394,136.743 342.541,137.012 342.709 C 137.280 342.877,137.695 342.894,137.934 342.746 C 138.173 342.599,138.483 342.663,138.623 342.889 C 139.351 344.067,244.531 344.862,244.531 343.690 C 244.531 343.508,244.883 343.359,245.313 343.359 C 245.742 343.359,246.094 343.199,246.094 343.003 C 246.094 342.807,246.983 342.693,248.071 342.748 C 249.235 342.808,249.837 342.716,249.536 342.524 C 249.150 342.280,249.193 342.198,249.707 342.193 C 250.083 342.190,250.391 341.997,250.391 341.764 C 250.391 341.532,250.610 341.420,250.879 341.515 C 251.147 341.611,252.288 341.350,253.413 340.936 C 254.538 340.521,255.681 340.310,255.952 340.466 C 256.223 340.622,256.324 340.615,256.176 340.451 C 255.851 340.090,256.712 339.070,257.129 339.322 C 257.290 339.419,257.422 339.303,257.422 339.063 C 257.422 338.822,257.598 338.734,257.813 338.867 C 258.027 339.000,258.203 338.901,258.203 338.647 C 258.203 338.322,258.398 338.344,258.864 338.722 C 259.269 339.050,259.415 339.075,259.242 338.786 C 258.914 338.240,261.127 336.939,261.740 337.318 C 261.954 337.450,262.080 337.325,262.021 337.041 C 261.962 336.756,262.198 336.544,262.546 336.569 C 262.893 336.594,263.157 336.418,263.132 336.178 C 263.106 335.938,263.246 335.714,263.441 335.680 C 263.637 335.645,263.959 335.328,264.157 334.974 C 264.457 334.437,264.619 334.415,265.146 334.842 C 265.564 335.180,265.681 335.194,265.494 334.883 C 265.172 334.347,266.523 333.467,267.003 333.900 C 267.174 334.054,267.204 333.989,267.071 333.755 C 266.747 333.185,267.864 331.641,268.600 331.641 C 268.958 331.641,269.078 331.831,268.908 332.129 C 268.755 332.397,269.184 332.101,269.861 331.470 C 271.375 330.061,271.506 329.579,270.020 330.888 C 268.962 331.818,268.963 331.814,270.079 330.579 C 270.703 329.889,271.339 329.402,271.492 329.497 C 271.645 329.592,272.102 329.281,272.506 328.806 C 273.119 328.088,273.127 328.032,272.559 328.473 C 272.073 328.849,271.875 328.869,271.875 328.541 C 271.875 327.961,274.256 325.758,274.632 325.991 C 274.786 326.086,274.888 325.862,274.858 325.494 C 274.829 325.125,275.010 324.819,275.260 324.814 C 275.511 324.809,275.863 324.645,276.042 324.449 C 276.231 324.242,276.163 324.211,275.879 324.374 C 275.152 324.793,275.267 324.469,276.615 322.301 C 277.288 321.218,278.019 320.442,278.238 320.578 C 278.462 320.716,278.518 320.632,278.365 320.384 C 278.215 320.143,278.357 319.435,278.679 318.811 C 279.002 318.187,279.141 317.539,278.988 317.370 C 278.836 317.201,278.975 317.157,279.297 317.271 C 279.887 317.480,279.926 317.346,280.127 314.453 C 280.172 313.809,280.331 313.281,280.481 313.281 C 280.905 313.281,280.815 310.019,280.375 309.473 C 280.159 309.204,280.096 308.984,280.235 308.984 C 280.373 308.984,280.211 308.563,279.873 308.048 C 279.062 306.810,276.328 304.936,275.804 305.259 C 275.577 305.400,275.391 305.345,275.391 305.138 C 275.391 304.899,256.163 304.784,222.363 304.824 C 193.198 304.857,168.809 304.797,168.164 304.689 C 167.520 304.581,191.250 304.403,220.898 304.295 L 274.805 304.097 220.787 304.002 L 166.770 303.906 166.899 302.944 C 166.970 302.415,167.139 301.871,167.276 301.734 C 167.413 301.598,167.430 301.240,167.314 300.938 C 167.199 300.637,167.317 300.391,167.578 300.391 C 167.839 300.391,167.951 300.127,167.827 299.805 C 167.704 299.482,167.773 299.219,167.981 299.219 C 168.189 299.219,168.359 298.945,168.359 298.610 C 168.359 298.275,168.519 298.099,168.714 298.220 C 168.908 298.340,168.989 298.131,168.894 297.754 C 168.798 297.378,169.163 295.774,169.705 294.190 C 170.246 292.606,170.594 291.156,170.478 290.967 C 170.362 290.779,170.471 290.625,170.722 290.625 C 170.972 290.625,171.076 290.361,170.952 290.039 C 170.829 289.717,170.890 289.453,171.088 289.453 C 171.444 289.453,172.122 286.843,171.938 286.183 C 171.886 285.995,172.123 285.949,172.465 286.080 C 172.844 286.226,172.989 286.159,172.835 285.911 C 172.489 285.352,172.987 283.511,173.413 283.774 C 173.601 283.890,173.675 283.678,173.578 283.301 C 173.480 282.925,173.671 281.851,174.002 280.915 C 174.333 279.979,174.507 279.057,174.388 278.865 C 174.270 278.673,174.388 278.516,174.651 278.516 C 174.915 278.516,175.015 278.400,174.873 278.259 C 174.732 278.117,174.802 277.778,175.029 277.504 C 175.256 277.231,175.457 276.468,175.475 275.808 C 175.494 275.149,175.653 274.609,175.828 274.609 C 176.004 274.609,176.046 274.346,175.923 274.023 C 175.799 273.701,175.892 273.438,176.130 273.438 C 176.368 273.438,176.534 273.306,176.499 273.145 C 176.465 272.983,176.642 272.353,176.893 271.745 C 177.144 271.136,177.250 270.477,177.128 270.280 C 177.007 270.083,177.093 269.922,177.321 269.922 C 177.548 269.922,177.706 269.790,177.671 269.629 C 177.637 269.468,177.814 268.838,178.065 268.229 C 178.316 267.620,178.422 266.961,178.300 266.764 C 178.178 266.567,178.284 266.406,178.534 266.406 C 178.785 266.406,178.889 266.143,178.765 265.820 C 178.641 265.498,178.729 265.234,178.960 265.234 C 179.191 265.234,179.279 264.971,179.156 264.648 C 179.032 264.326,179.109 264.063,179.326 264.063 C 179.544 264.063,179.686 263.843,179.643 263.574 C 179.516 262.787,180.126 261.702,180.549 261.963 C 180.762 262.096,180.724 261.804,180.462 261.316 C 180.050 260.546,180.072 260.461,180.628 260.674 C 181.156 260.877,181.198 260.789,180.867 260.171 C 180.595 259.663,180.595 259.343,180.865 259.176 C 181.084 259.041,181.169 258.779,181.055 258.594 C 180.940 258.409,181.037 258.139,181.270 257.995 C 181.503 257.851,181.600 257.488,181.484 257.187 C 181.369 256.887,181.464 256.641,181.695 256.641 C 181.926 256.641,182.014 256.377,181.890 256.055 C 181.766 255.732,181.847 255.469,182.070 255.469 C 182.305 255.469,182.364 255.120,182.211 254.639 C 182.022 254.042,182.081 253.891,182.422 254.102 C 182.762 254.312,182.822 254.161,182.633 253.565 C 182.471 253.053,182.538 252.734,182.809 252.734 C 183.051 252.734,183.141 252.559,183.008 252.344 C 182.875 252.129,182.971 251.953,183.222 251.953 C 183.480 251.953,183.573 251.681,183.436 251.324 C 183.262 250.870,183.362 250.759,183.794 250.924 C 184.293 251.116,184.320 251.017,183.953 250.332 C 183.686 249.832,183.657 249.415,183.880 249.267 C 184.389 248.929,185.194 246.471,184.933 246.049 C 184.816 245.859,184.924 245.703,185.175 245.703 C 185.425 245.703,185.529 245.439,185.406 245.117 C 185.282 244.795,185.370 244.531,185.601 244.531 C 185.832 244.531,185.920 244.268,185.796 243.945 C 185.673 243.623,185.712 243.359,185.884 243.359 C 186.320 243.359,187.130 240.583,186.833 240.104 C 186.688 239.868,186.855 239.812,187.250 239.964 C 187.798 240.174,187.842 240.091,187.508 239.468 C 187.230 238.949,187.236 238.640,187.526 238.461 C 187.756 238.319,187.850 237.956,187.734 237.656 C 187.619 237.355,187.689 237.109,187.891 237.109 C 188.092 237.109,188.156 236.846,188.032 236.523 C 187.908 236.201,188.020 235.938,188.281 235.938 C 188.542 235.938,188.654 235.674,188.531 235.352 C 188.407 235.029,188.495 234.766,188.726 234.766 C 188.957 234.766,189.045 234.502,188.921 234.180 C 188.798 233.857,188.885 233.594,189.117 233.594 C 189.348 233.594,189.436 233.330,189.312 233.008 C 189.188 232.686,189.276 232.422,189.507 232.422 C 189.738 232.422,189.826 232.158,189.702 231.836 C 189.579 231.514,189.660 231.250,189.882 231.250 C 190.109 231.250,190.178 230.907,190.039 230.469 C 189.891 230.003,189.969 229.688,190.231 229.688 C 190.473 229.688,190.570 229.524,190.446 229.324 C 190.323 229.124,190.412 228.842,190.645 228.698 C 190.878 228.554,190.975 228.191,190.859 227.890 C 190.744 227.590,190.839 227.344,191.070 227.344 C 191.301 227.344,191.393 227.091,191.275 226.783 C 191.156 226.475,191.220 226.167,191.417 226.099 C 191.613 226.032,191.823 225.537,191.883 225.000 C 191.943 224.463,192.141 223.915,192.323 223.781 C 192.505 223.648,192.681 223.077,192.714 222.512 C 192.747 221.947,192.891 221.485,193.035 221.485 C 193.288 221.484,193.906 219.432,193.939 218.485 C 193.948 218.231,194.073 217.906,194.216 217.763 C 194.360 217.619,194.383 217.255,194.267 216.954 C 194.152 216.653,194.262 216.406,194.513 216.406 C 194.763 216.406,194.867 216.243,194.743 216.043 C 194.620 215.843,194.689 215.573,194.898 215.444 C 195.107 215.315,195.179 214.951,195.058 214.636 C 194.937 214.321,195.005 214.063,195.209 214.063 C 195.413 214.063,195.897 213.014,196.285 211.732 C 196.688 210.402,197.160 209.505,197.384 209.643 C 197.602 209.778,197.657 209.692,197.506 209.449 C 197.358 209.208,197.525 208.017,197.878 206.802 C 198.232 205.587,198.576 204.306,198.644 203.956 C 198.713 203.607,198.804 203.276,198.847 203.223 C 198.890 203.169,198.962 202.993,199.007 202.832 C 199.052 202.671,199.315 202.012,199.592 201.367 C 199.869 200.723,200.103 199.715,200.113 199.127 C 200.127 198.225,200.221 198.134,200.715 198.541 C 201.226 198.963,201.238 198.907,200.805 198.095 C 200.458 197.444,200.436 197.088,200.731 196.906 C 200.963 196.763,201.201 196.214,201.260 195.686 C 201.319 195.158,201.473 194.639,201.601 194.531 C 201.877 194.301,203.599 189.136,203.687 188.274 C 203.721 187.948,203.882 187.465,204.045 187.200 C 204.209 186.935,204.244 186.558,204.122 186.361 C 204.001 186.165,204.094 185.940,204.330 185.861 C 204.566 185.783,204.787 185.240,204.821 184.656 C 204.855 184.072,205.009 183.594,205.164 183.594 C 205.318 183.594,205.343 183.330,205.219 183.008 C 205.096 182.686,205.189 182.422,205.427 182.422 C 205.665 182.422,205.815 182.202,205.762 181.934 C 205.708 181.665,205.840 181.474,206.055 181.509 C 206.270 181.543,206.486 181.016,206.536 180.337 C 206.660 178.641,206.834 177.801,207.123 177.512 C 207.258 177.378,207.273 177.021,207.158 176.720 C 207.042 176.418,207.161 176.172,207.422 176.172 C 207.683 176.172,207.795 175.908,207.671 175.586 C 207.548 175.264,207.611 175.000,207.813 175.000 C 208.014 175.000,208.077 174.736,207.954 174.414 C 207.830 174.092,207.934 173.828,208.184 173.828 C 208.435 173.828,208.539 173.664,208.415 173.464 C 208.292 173.264,208.372 172.989,208.594 172.852 C 208.816 172.714,208.891 172.431,208.762 172.222 C 208.632 172.012,208.739 171.585,208.999 171.272 C 209.258 170.959,209.372 170.703,209.251 170.703 C 209.130 170.703,209.270 170.242,209.563 169.678 C 209.855 169.114,210.002 168.411,209.888 168.115 C 209.775 167.820,209.871 167.578,210.102 167.578 C 210.335 167.578,210.410 167.286,210.271 166.924 C 210.085 166.440,210.181 166.332,210.640 166.508 C 211.159 166.708,211.206 166.561,210.930 165.599 C 210.749 164.969,210.751 163.930,210.935 163.291 C 211.118 162.652,211.150 162.164,211.005 162.206 C 210.612 162.320,207.467 159.069,207.723 158.814 C 207.844 158.693,207.869 158.617,207.780 158.645 C 207.690 158.673,206.650 158.829,205.469 158.991 M142.578 303.906 L 131.055 304.119 142.457 304.208 C 149.735 304.265,153.947 304.156,154.102 303.906 C 154.234 303.691,154.289 303.556,154.222 303.604 C 154.156 303.653,148.916 303.789,142.578 303.906 M114.761 304.196 C 116.113 304.272,118.222 304.272,119.449 304.194 C 120.676 304.117,119.570 304.055,116.992 304.055 C 114.414 304.056,113.410 304.119,114.761 304.196 M122.563 304.183 C 123.049 304.276,123.752 304.272,124.126 304.175 C 124.499 304.077,124.102 304.000,123.242 304.005 C 122.383 304.009,122.077 304.089,122.563 304.183 M125.688 304.183 C 126.174 304.276,126.877 304.272,127.251 304.175 C 127.624 304.077,127.227 304.000,126.367 304.005 C 125.508 304.009,125.202 304.089,125.688 304.183 M268.085 315.481 C 268.430 315.826,267.612 317.255,267.212 317.007 C 267.032 316.896,266.909 317.111,266.939 317.485 C 266.968 317.858,266.779 318.122,266.518 318.071 C 266.238 318.016,266.138 318.224,266.274 318.578 C 266.511 319.197,265.288 320.392,264.755 320.062 C 264.594 319.963,264.560 320.136,264.679 320.447 C 264.815 320.800,264.119 321.728,262.835 322.909 C 261.702 323.952,260.319 325.288,259.763 325.880 C 258.950 326.743,258.654 326.858,258.254 326.466 C 257.855 326.073,257.781 326.092,257.882 326.563 C 257.959 326.920,257.743 327.128,257.328 327.095 C 256.955 327.065,256.726 327.166,256.820 327.318 C 257.110 327.787,255.664 328.776,254.784 328.711 C 254.326 328.677,253.962 328.751,253.975 328.876 C 254.056 329.644,253.852 330.091,253.516 329.883 C 253.301 329.750,253.125 329.810,253.125 330.016 C 253.125 330.222,252.609 330.355,251.978 330.311 C 251.347 330.268,250.909 330.359,251.005 330.514 C 251.262 330.930,248.531 331.745,247.994 331.413 C 247.707 331.235,247.640 331.298,247.814 331.580 C 247.979 331.847,247.845 332.031,247.484 332.031 C 247.149 332.031,246.875 332.191,246.875 332.385 C 246.875 332.580,246.523 332.647,246.094 332.535 C 245.664 332.423,245.313 332.511,245.313 332.730 C 245.313 332.950,244.961 333.038,244.531 332.926 C 244.102 332.813,243.749 332.874,243.748 333.060 C 243.747 333.246,242.209 333.460,240.330 333.536 C 237.411 333.653,235.645 333.781,233.789 334.012 C 233.445 334.055,219.807 334.049,217.773 334.005 C 217.344 333.996,215.059 334.019,212.695 334.056 C 210.332 334.094,207.871 334.119,207.227 334.112 C 206.582 334.105,193.311 334.058,177.734 334.008 C 154.754 333.933,139.862 333.600,144.303 333.260 C 144.715 333.229,144.964 333.115,144.856 333.008 C 144.749 332.900,143.837 332.966,142.831 333.154 C 141.825 333.342,140.916 333.358,140.813 333.191 C 140.709 333.023,140.273 332.978,139.843 333.090 C 139.387 333.209,139.063 333.102,139.063 332.832 C 139.063 332.547,138.762 332.465,138.281 332.617 C 137.788 332.774,137.500 332.687,137.500 332.383 C 137.500 332.118,137.384 332.017,137.243 332.158 C 137.102 332.299,136.750 332.219,136.462 331.980 C 136.173 331.741,135.935 331.698,135.932 331.886 C 135.928 332.073,135.781 331.998,135.603 331.719 C 135.426 331.439,134.902 331.182,134.438 331.147 C 133.973 331.112,133.594 330.935,133.594 330.753 C 133.594 330.571,133.388 330.550,133.137 330.705 C 132.827 330.896,132.762 330.773,132.935 330.322 C 133.138 329.794,133.059 329.729,132.556 330.011 C 131.829 330.418,130.352 329.411,130.744 328.776 C 130.874 328.567,130.781 328.518,130.537 328.669 C 129.901 329.062,128.433 328.186,128.775 327.617 C 128.944 327.335,128.792 327.362,128.395 327.685 C 127.738 328.218,127.506 327.933,127.698 326.826 C 127.729 326.649,127.571 326.618,127.347 326.756 C 127.123 326.894,127.046 327.215,127.176 327.468 C 127.306 327.722,127.058 327.495,126.627 326.964 C 126.195 326.433,125.950 325.818,126.082 325.597 C 126.244 325.325,126.139 325.322,125.759 325.586 C 125.325 325.886,124.565 325.353,122.461 323.275 C 120.957 321.789,119.934 320.693,120.188 320.840 C 120.442 320.986,120.762 320.923,120.900 320.700 C 121.039 320.476,121.007 320.335,120.830 320.386 C 120.285 320.542,118.715 319.513,118.941 319.148 C 119.058 318.959,118.963 318.686,118.730 318.542 C 118.497 318.398,118.400 318.037,118.514 317.739 C 118.628 317.441,118.596 317.216,118.443 317.238 C 117.356 317.400,117.100 317.177,117.628 316.527 C 117.923 316.163,117.963 315.986,117.717 316.134 C 117.471 316.281,117.169 316.139,117.045 315.818 C 116.813 315.212,267.480 314.876,268.085 315.481 " stroke="none" fill="#343433" fill-rule="evenodd"></path><path id="path1" d="M187.663 51.160 C 185.184 52.163,181.016 61.331,179.889 68.262 C 179.605 70.005,179.366 70.225,178.594 69.453 C 178.336 69.195,178.125 69.095,178.125 69.230 C 178.125 69.365,178.385 69.736,178.704 70.054 C 179.200 70.550,179.219 71.252,178.838 74.992 C 178.501 78.301,178.506 80.386,178.859 83.637 C 179.115 85.994,179.219 88.091,179.092 88.297 C 178.964 88.503,179.024 88.672,179.224 88.672 C 179.424 88.672,179.699 89.370,179.836 90.223 C 179.972 91.076,180.560 93.230,181.142 95.008 C 181.724 96.787,182.206 98.418,182.213 98.633 C 182.220 98.848,182.339 99.111,182.476 99.219 C 182.994 99.625,183.968 102.444,183.726 102.836 C 183.587 103.061,183.637 103.145,183.836 103.021 C 184.332 102.715,187.790 111.458,188.553 114.949 C 189.261 118.183,189.415 125.859,188.777 126.072 C 188.550 126.147,188.443 126.512,188.540 126.882 C 188.771 127.767,186.800 133.984,186.288 133.984 C 186.070 133.984,186.002 134.163,186.137 134.382 C 186.273 134.601,185.580 136.254,184.598 138.056 C 181.940 142.932,182.199 145.167,185.624 146.914 C 187.466 147.854,189.342 147.687,190.428 146.486 C 190.809 146.066,191.277 145.818,191.468 145.937 C 191.660 146.055,191.773 146.007,191.720 145.830 C 191.667 145.653,192.093 144.717,192.666 143.750 C 200.941 129.805,201.228 118.364,193.768 99.823 C 192.229 95.998,191.059 92.639,191.166 92.358 C 191.274 92.077,191.191 91.790,190.982 91.720 C 190.422 91.534,188.981 84.062,189.133 82.130 C 189.205 81.217,189.111 80.420,188.924 80.358 C 188.446 80.198,189.347 72.260,190.242 68.750 C 191.358 64.374,191.465 64.063,191.865 64.063 C 192.068 64.063,192.135 63.903,192.015 63.708 C 191.773 63.317,193.325 58.985,193.707 58.984 C 194.466 58.981,194.143 54.015,193.315 52.962 C 191.911 51.177,189.512 50.412,187.663 51.160 M220.826 51.332 C 218.922 52.192,215.087 60.935,214.212 66.410 C 214.076 67.260,213.843 67.879,213.694 67.787 C 213.545 67.695,213.499 68.137,213.592 68.771 C 213.685 69.404,213.609 69.922,213.423 69.922 C 212.716 69.924,212.779 82.406,213.507 86.523 C 214.370 91.403,214.411 92.415,213.740 92.275 C 213.447 92.215,213.339 92.356,213.492 92.602 C 213.676 92.901,213.886 92.911,214.163 92.634 C 214.440 92.357,215.023 93.537,216.027 96.408 C 216.831 98.706,218.051 101.904,218.738 103.516 C 220.764 108.262,222.735 114.075,222.514 114.650 C 222.402 114.944,222.519 115.254,222.776 115.339 C 223.110 115.451,223.239 117.144,223.230 121.322 C 223.216 128.084,222.638 130.275,219.024 137.261 C 216.540 142.062,216.357 143.817,218.145 145.684 C 221.797 149.495,225.323 147.664,228.936 140.078 C 235.107 127.124,234.942 117.041,228.283 100.266 C 221.817 83.975,221.465 74.743,226.778 60.742 C 227.833 57.960,228.644 53.781,228.057 54.144 C 227.880 54.253,227.734 54.102,227.734 53.807 C 227.734 51.799,223.305 50.212,220.826 51.332 M191.682 52.040 C 194.077 53.199,194.207 55.679,192.158 61.116 C 186.659 75.707,186.986 84.162,193.695 100.873 C 200.568 117.994,200.175 130.531,192.364 143.391 C 188.474 149.794,180.523 146.582,184.031 140.024 C 191.436 126.178,191.613 119.402,184.980 103.527 C 178.901 88.977,177.736 78.674,180.805 66.602 C 184.084 53.706,187.015 49.782,191.682 52.040 M226.031 52.220 C 228.123 53.591,228.092 55.322,225.857 61.948 C 221.055 76.181,221.465 84.606,227.712 100.097 C 234.744 117.537,234.509 130.222,226.916 143.065 C 222.041 151.309,214.748 146.245,219.318 137.789 C 225.358 126.611,225.470 118.826,219.792 104.785 C 212.995 87.974,211.834 79.273,214.679 66.457 C 217.489 53.793,221.245 49.084,226.031 52.220 M187.592 117.954 C 187.522 118.954,187.699 119.600,188.144 119.967 C 188.732 120.452,188.758 120.428,188.392 119.727 C 188.168 119.297,188.039 118.465,188.106 117.877 C 188.172 117.290,188.107 116.736,187.961 116.646 C 187.815 116.556,187.649 117.144,187.592 117.954 M203.887 158.713 C 200.499 159.853,200.077 160.626,196.066 173.047 C 194.297 178.525,192.700 183.067,192.516 183.139 C 192.333 183.211,192.271 183.413,192.379 183.587 C 192.686 184.084,184.935 207.848,184.573 207.519 C 184.395 207.358,184.379 207.451,184.537 207.725 C 184.848 208.264,181.739 218.080,181.189 218.295 C 181.005 218.367,180.948 218.577,181.062 218.761 C 181.328 219.192,178.537 227.887,178.077 228.061 C 177.886 228.133,177.814 228.329,177.918 228.497 C 178.022 228.664,177.686 230.100,177.172 231.686 C 176.658 233.272,174.621 239.580,172.644 245.703 C 170.668 251.826,168.939 256.924,168.803 257.031 C 168.666 257.139,168.555 257.402,168.555 257.617 C 168.555 258.632,167.057 263.281,166.730 263.281 C 166.527 263.281,166.453 263.431,166.566 263.614 C 166.886 264.132,165.043 269.596,164.664 269.252 C 164.479 269.083,164.457 269.169,164.615 269.443 C 164.879 269.902,162.682 277.291,162.149 277.734 C 162.020 277.842,161.888 278.249,161.856 278.639 C 161.687 280.679,159.203 287.500,158.626 287.506 C 158.181 287.510,158.142 287.597,158.486 287.816 C 159.024 288.157,157.953 292.188,157.324 292.188 C 157.138 292.188,157.083 292.345,157.202 292.538 C 157.373 292.815,156.087 297.464,154.086 303.806 C 153.966 304.185,149.170 304.283,132.054 304.254 L 110.176 304.218 108.370 305.092 C 107.377 305.573,106.259 306.469,105.885 307.083 C 105.511 307.698,105.107 308.101,104.986 307.980 C 104.865 307.859,104.784 307.992,104.807 308.275 C 104.830 308.558,104.704 309.452,104.528 310.263 C 104.068 312.371,105.144 316.273,107.329 320.421 C 113.768 332.649,126.935 341.807,141.406 344.125 C 144.187 344.570,237.847 344.635,241.992 344.194 C 243.281 344.057,222.539 344.002,195.898 344.071 C 136.856 344.223,138.171 344.317,127.834 339.217 C 110.351 330.592,98.714 309.990,108.750 305.432 C 110.250 304.751,111.735 304.704,132.081 304.696 C 155.286 304.687,154.289 304.773,154.871 302.734 C 155.279 301.304,168.356 260.567,171.485 250.977 C 174.870 240.605,179.698 225.623,188.669 197.656 C 199.639 163.457,199.970 162.467,200.851 161.231 C 202.872 158.391,206.773 158.168,209.247 160.749 C 211.897 163.515,212.246 161.763,203.711 188.477 C 200.981 197.017,191.293 227.237,184.112 249.609 C 182.284 255.303,179.588 263.652,178.121 268.164 C 176.654 272.676,173.934 281.113,172.078 286.914 C 170.221 292.715,168.255 298.834,167.709 300.513 C 167.163 302.192,166.809 303.658,166.923 303.772 C 167.037 303.886,167.593 302.513,168.157 300.720 C 172.176 287.966,175.153 279.082,175.444 278.971 C 175.632 278.898,175.692 278.688,175.578 278.503 C 175.463 278.317,176.674 274.157,178.269 269.259 C 179.864 264.360,184.637 249.541,188.876 236.328 C 193.114 223.115,196.737 212.246,196.926 212.174 C 197.116 212.102,197.178 211.893,197.065 211.710 C 196.952 211.527,197.203 210.355,197.624 209.107 C 198.044 207.858,199.387 203.672,200.607 199.805 C 201.828 195.938,202.982 192.714,203.173 192.642 C 203.364 192.570,203.439 192.379,203.339 192.218 C 203.087 191.809,205.861 183.038,206.293 182.877 C 206.487 182.805,206.549 182.589,206.430 182.397 C 206.312 182.206,207.180 179.101,208.359 175.497 C 211.424 166.136,211.811 164.455,211.272 162.844 C 210.179 159.572,206.857 157.714,203.887 158.713 M221.544 304.684 L 276.095 304.883 277.769 306.096 C 282.142 309.263,281.772 314.081,276.509 322.499 C 270.558 332.016,260.124 339.350,247.656 342.779 C 245.830 343.282,244.709 343.706,245.164 343.721 C 246.305 343.761,253.224 341.669,255.952 340.461 C 274.336 332.315,287.223 311.873,277.950 305.566 L 276.084 304.297 221.538 304.391 L 166.992 304.485 221.544 304.684 M117.341 316.325 C 121.010 323.421,130.221 330.339,139.005 332.598 C 145.424 334.248,236.902 334.632,243.729 333.037 C 251.354 331.256,257.366 328.088,262.318 323.242 C 265.520 320.108,268.499 316.166,268.123 315.559 C 268.013 315.380,233.915 315.234,192.350 315.234 L 116.777 315.234 117.341 316.325 M266.755 317.480 C 263.292 322.618,253.649 330.142,250.000 330.554 C 249.463 330.614,248.913 330.815,248.779 330.999 C 247.382 332.914,153.293 334.523,142.773 332.812 C 139.005 332.199,135.938 331.307,135.938 330.825 C 135.938 330.604,135.774 330.524,135.573 330.648 C 133.311 332.046,117.229 318.943,118.561 316.787 C 118.697 316.567,118.597 316.435,118.340 316.494 C 118.082 316.553,117.791 316.382,117.692 316.113 C 117.549 315.724,132.727 315.625,192.760 315.625 L 268.006 315.625 266.755 317.480 " stroke="none" fill="#060606" fill-rule="evenodd"></path><path id="path2" d="M222.363 50.660 C 222.739 50.758,223.354 50.758,223.730 50.660 C 224.106 50.562,223.799 50.481,223.047 50.481 C 222.295 50.481,221.987 50.562,222.363 50.660 M228.231 55.859 C 228.231 56.826,228.308 57.222,228.401 56.738 C 228.494 56.255,228.494 55.464,228.401 54.980 C 228.308 54.497,228.231 54.893,228.231 55.859 M212.606 74.609 C 212.606 75.576,212.683 75.972,212.776 75.488 C 212.869 75.005,212.869 74.214,212.776 73.730 C 212.683 73.247,212.606 73.643,212.606 74.609 M189.153 76.172 C 189.153 76.924,189.234 77.231,189.332 76.855 C 189.430 76.479,189.430 75.864,189.332 75.488 C 189.234 75.112,189.153 75.420,189.153 76.172 M178.253 79.492 C 178.255 80.996,178.326 81.563,178.410 80.753 C 178.495 79.943,178.493 78.712,178.407 78.019 C 178.321 77.325,178.251 77.988,178.253 79.492 M223.159 79.102 C 223.162 80.176,223.237 80.569,223.327 79.975 C 223.417 79.381,223.415 78.502,223.322 78.022 C 223.229 77.542,223.156 78.027,223.159 79.102 M212.617 81.641 C 212.617 82.822,212.690 83.306,212.780 82.715 C 212.869 82.124,212.869 81.157,212.780 80.566 C 212.690 79.976,212.617 80.459,212.617 81.641 M189.161 82.227 C 189.165 83.086,189.245 83.392,189.339 82.906 C 189.432 82.420,189.429 81.717,189.331 81.343 C 189.233 80.970,189.157 81.367,189.161 82.227 M188.763 118.750 C 188.763 119.502,188.843 119.810,188.941 119.434 C 189.039 119.058,189.039 118.442,188.941 118.066 C 188.843 117.690,188.763 117.998,188.763 118.750 M199.357 121.680 C 199.356 123.613,199.422 124.454,199.504 123.547 C 199.586 122.640,199.587 121.058,199.506 120.031 C 199.426 119.004,199.359 119.746,199.357 121.680 M233.719 121.094 C 233.719 122.490,233.790 123.062,233.876 122.363 C 233.963 121.665,233.963 120.522,233.876 119.824 C 233.790 119.126,233.719 119.697,233.719 121.094 M223.172 121.484 C 223.172 122.881,223.243 123.452,223.329 122.754 C 223.416 122.056,223.416 120.913,223.329 120.215 C 223.243 119.517,223.172 120.088,223.172 121.484 M153.418 303.190 C 152.897 303.735,152.864 303.906,153.279 303.906 C 153.578 303.906,153.933 303.617,154.069 303.264 C 154.411 302.374,154.218 302.352,153.418 303.190 M263.094 321.475 C 262.710 321.900,262.199 322.135,261.960 321.998 C 261.720 321.862,261.657 321.897,261.820 322.076 C 261.983 322.256,261.733 322.812,261.264 323.311 C 259.716 324.958,260.740 324.255,262.500 322.461 C 263.449 321.494,264.128 320.703,264.009 320.703 C 263.890 320.703,263.479 321.051,263.094 321.475 M123.031 322.754 C 124.649 324.479,125.000 324.789,125.000 324.495 C 125.000 324.433,124.165 323.598,123.145 322.640 L 121.289 320.898 123.031 322.754 M270.880 330.566 L 269.336 332.227 270.996 330.682 C 272.540 329.246,272.836 328.906,272.540 328.906 C 272.476 328.906,271.729 329.653,270.880 330.566 M114.755 330.883 C 115.673 331.863,116.288 332.814,116.122 332.997 C 115.956 333.179,116.040 333.202,116.309 333.047 C 116.956 332.675,117.045 332.817,114.941 330.843 L 113.086 329.102 114.755 330.883 M169.043 333.105 C 181.772 333.163,202.603 333.163,215.332 333.105 C 228.062 333.048,217.646 333.001,192.188 333.001 C 166.729 333.001,156.313 333.048,169.043 333.105 M145.987 344.813 C 146.681 344.899,147.911 344.901,148.722 344.816 C 149.532 344.732,148.965 344.661,147.461 344.659 C 145.957 344.658,145.294 344.727,145.987 344.813 M237.798 344.808 C 238.283 344.901,238.987 344.897,239.360 344.800 C 239.733 344.702,239.336 344.625,238.477 344.630 C 237.617 344.634,237.312 344.714,237.798 344.808 " stroke="none" fill="#605f5e" fill-rule="evenodd"></path><path id="path3" d="M179.428 80.859 C 179.428 82.471,179.497 83.130,179.581 82.324 C 179.666 81.519,179.666 80.200,179.581 79.395 C 179.497 78.589,179.428 79.248,179.428 80.859 M232.513 123.047 C 232.513 123.799,232.593 124.106,232.691 123.730 C 232.789 123.354,232.789 122.739,232.691 122.363 C 232.593 121.987,232.513 122.295,232.513 123.047 M179.204 304.964 C 179.690 305.057,180.393 305.054,180.766 304.956 C 181.140 304.858,180.742 304.782,179.883 304.786 C 179.023 304.790,178.718 304.870,179.204 304.964 M232.520 304.957 C 232.896 305.055,233.511 305.055,233.887 304.957 C 234.263 304.859,233.955 304.778,233.203 304.778 C 232.451 304.778,232.144 304.859,232.520 304.957 M155.762 315.918 C 176.226 315.974,209.712 315.974,230.176 315.918 C 250.640 315.862,233.896 315.816,192.969 315.816 C 152.041 315.816,135.298 315.862,155.762 315.918 M155.753 344.813 C 156.446 344.899,157.677 344.901,158.487 344.816 C 159.298 344.732,158.730 344.661,157.227 344.659 C 155.723 344.658,155.060 344.727,155.753 344.813 M160.645 344.801 C 161.021 344.899,161.636 344.899,162.012 344.801 C 162.388 344.702,162.080 344.622,161.328 344.622 C 160.576 344.622,160.269 344.702,160.645 344.801 M179.980 344.824 C 189.487 344.882,205.044 344.882,214.551 344.824 C 224.058 344.766,216.279 344.718,197.266 344.718 C 178.252 344.718,170.474 344.766,179.980 344.824 " stroke="none" fill="#4c4c49" fill-rule="evenodd"></path><path id="path4" d="M150.879 344.811 C 151.470 344.901,152.437 344.901,153.027 344.811 C 153.618 344.722,153.135 344.648,151.953 344.648 C 150.771 344.648,150.288 344.722,150.879 344.811 M235.254 344.801 C 235.630 344.899,236.245 344.899,236.621 344.801 C 236.997 344.702,236.689 344.622,235.938 344.622 C 235.186 344.622,234.878 344.702,235.254 344.801 " stroke="none" fill="#545454" fill-rule="evenodd"></path></g></svg>