<?xml version="1.0" standalone="no"?>
<!DOCTYPE svg PUBLIC "-//W3C//DTD SVG 20010904//EN" "http://www.w3.org/TR/2001/REC-SVG-20010904/DTD/svg10.dtd">
<svg xmlns="http://www.w3.org/2000/svg" version="1.0" width="1024.000000pt" height="1024.000000pt" viewBox="0 0 1024.000000 1024.000000" preserveAspectRatio="xMidYMid meet">
<metadata>
Created by potrace 1.16, written by Peter Selinger 2001-2019
<meta name="Producer" content="Online-Convert"/></metadata>
<g transform="translate(0.000000,1024.000000) scale(0.100000,-0.100000)" fill="#000000" stroke="none">
<path d="M5077 8459 c-9 -5 -23 -7 -30 -3 -6 4 -9 4 -5 -1 4 -4 -4 -21 -17 -37 -14 -16 -72 -124 -129 -241 -134 -273 -205 -399 -369 -659 -17 -26 -34 -45 -40 -41 -6 3 -7 1 -3 -5 9 -15 -63 -123 -77 -115 -5 3 -7 2 -4 -4 11 -17 -53 -105 -71 -98 -11 4 -12 2 -4 -7 7 -10 -18 -53 -100 -168 -60 -85 -140 -203 -177 -262 -38 -59 -71 -105 -75 -103 -3 3 -4 2 -1 -2 3 -3 -15 -43 -39 -87 -64 -119 -133 -284 -166 -403 -25 -88 -60 -276 -60 -324 0 -11 -2 -11 -10 1 -8 12 -10 10 -10 -8 0 -13 4 -21 8 -18 5 3 12 -49 15 -115 7 -129 34 -277 67 -373 23 -68 25 -81 6 -47 -11 20 -14 21 -19 7 -4 -10 -3 -15 2 -12 5 3 11 -4 14 -15 3 -12 10 -19 15 -15 5 3 22 -26 39 -63 23 -52 28 -73 20 -87 -8 -15 -7 -17 3 -7 10 9 23 -5 63 -65 28 -42 50 -82 50 -89 0 -7 4 -11 8 -10 9 3 139 -149 133 -157 -2 -3 -1 -4 3 -1 10 8 63 -47 56 -58 -3 -6 -1 -7 4 -4 12 8 88 -49 88 -66 1 -7 6 -11 13 -10 16 4 163 -92 155 -101 -4 -4 1 -4 11 0 15 6 17 4 11 -6 -5 -8 -4 -11 2 -7 13 8 204 -78 195 -88 -4 -5 -2 -5 5 -1 16 9 136 -25 146 -41 4 -7 13 -13 20 -13 7 0 6 4 -3 10 -19 12 -6 12 47 0 23 -5 95 -14 161 -19 233 -17 465 25 676 122 88 41 90 42 80 25 -4 -8 -3 -10 2 -5 5 5 9 12 9 17 0 10 196 142 212 143 7 0 11 3 10 6 -1 3 34 40 77 81 43 41 105 109 139 150 33 41 64 75 68 75 4 0 11 4 16 9 5 5 3 6 -4 2 -20 -11 -16 -1 25 66 214 351 252 774 107 1197 -13 40 -22 79 -18 85 3 6 2 8 -2 4 -11 -10 -77 141 -68 155 3 5 2 7 -4 4 -12 -8 -46 61 -37 75 4 6 2 8 -4 5 -13 -9 -86 119 -76 135 4 6 3 8 -3 5 -6 -4 -41 40 -78 96 -37 56 -90 133 -117 170 -27 37 -46 73 -42 79 4 6 3 8 -4 4 -14 -8 -255 350 -246 366 4 6 3 8 -3 5 -14 -9 -157 219 -147 234 4 8 3 9 -4 5 -12 -7 -35 27 -25 38 3 3 1 6 -5 6 -16 0 -64 98 -56 112 4 6 3 8 -4 4 -13 -8 -74 102 -65 118 3 6 2 7 -3 3 -5 -5 -53 84 -111 202 -85 176 -107 214 -135 231 -36 22 -82 26 -111 9z m108 -366 c73 -152 71 -148 55 -138 -9 5 -11 4 -6 -4 4 -6 11 -9 15 -7 11 7 53 -83 45 -96 -4 -7 -2 -8 5 -4 6 4 14 0 18 -11 4 -10 17 -35 30 -56 13 -21 21 -43 17 -49 -5 -7 -3 -8 6 -3 10 6 12 4 7 -9 -5 -11 -3 -15 5 -10 8 5 9 2 5 -10 -4 -9 -3 -15 1 -12 8 5 87 -120 87 -139 0 -5 11 -21 24 -35 37 -40 121 -175 111 -178 -11 -4 -1 -32 12 -32 5 0 6 5 2 12 -5 7 -3 8 5 4 7 -5 10 -15 7 -23 -3 -8 -2 -12 3 -8 14 8 92 -111 85 -132 -4 -13 -3 -15 4 -5 7 11 14 7 31 -17 12 -17 19 -36 16 -41 -4 -6 -1 -9 7 -8 7 2 13 -5 13 -14 0 -9 4 -20 9 -25 5 -5 6 -2 1 7 -17 31 14 -7 69 -87 33 -48 54 -88 50 -94 -4 -7 -3 -9 4 -5 12 7 55 -48 45 -58 -3 -3 -2 -6 4 -6 5 0 24 -23 42 -51 33 -53 37 -64 22 -54 -5 3 -12 1 -16 -4 -3 -6 3 -8 13 -6 15 3 33 -20 82 -102 34 -58 63 -116 63 -129 0 -13 3 -21 7 -19 4 3 11 -2 14 -11 4 -10 2 -13 -7 -9 -6 4 -4 0 5 -8 18 -14 39 -58 52 -107 6 -20 5 -22 -4 -10 -9 12 -10 9 -5 -15 3 -16 10 -34 15 -39 5 -5 6 0 3 13 -3 11 -3 21 0 21 8 0 47 -135 63 -219 22 -115 29 -284 15 -397 -14 -112 -62 -266 -117 -376 -45 -90 -122 -200 -135 -193 -5 3 -6 0 -3 -8 7 -18 -135 -161 -230 -232 -95 -70 -222 -139 -237 -129 -7 4 -9 3 -6 -3 8 -12 3 -14 -109 -53 -103 -35 -153 -44 -187 -31 -17 7 -28 7 -32 1 -4 -6 4 -10 17 -11 17 -1 14 -3 -12 -10 -49 -13 -276 -12 -351 1 -104 18 -279 71 -272 83 3 6 1 7 -5 3 -15 -9 -175 72 -167 84 3 5 0 7 -7 5 -19 -7 -130 73 -122 87 5 7 2 8 -5 3 -15 -9 -93 63 -84 78 3 5 0 8 -8 5 -14 -5 -76 60 -71 75 1 4 -2 6 -7 2 -6 -3 -33 25 -60 62 -56 76 -100 150 -82 139 6 -4 11 -2 11 3 0 6 -8 11 -17 11 -15 0 -16 2 -3 10 13 9 9 14 -6 8 -10 -5 -45 70 -75 161 -42 124 -61 246 -60 396 2 374 118 643 526 1220 182 257 351 518 439 678 22 39 42 64 48 60 6 -3 8 -1 4 5 -7 12 189 414 198 404 4 -3 4 1 0 11 -3 9 -2 17 2 17 5 0 36 -57 69 -127z"/>
<path d="M3322 4970 c-187 -57 -340 -118 -497 -199 -60 -30 -116 -55 -123 -54 -7 0 -11 -2 -8 -5 10 -9 -33 -34 -46 -26 -7 4 -8 3 -4 -4 4 -6 -4 -16 -16 -23 -13 -7 -52 -34 -87 -60 -35 -27 -68 -46 -74 -42 -6 3 -7 1 -3 -5 7 -12 -70 -79 -86 -74 -5 1 -7 -1 -4 -6 7 -12 -68 -84 -79 -75 -4 5 -5 3 -2 -4 4 -6 -4 -24 -17 -40 -44 -52 -122 -186 -151 -258 -46 -116 -60 -220 -45 -350 6 -60 13 -120 13 -132 1 -11 6 -19 11 -16 12 8 -5 -41 -18 -49 -8 -6 -8 -8 1 -8 7 0 17 8 23 18 9 15 10 14 5 -5 -4 -13 -2 -23 4 -23 6 0 25 -28 42 -62 17 -35 45 -82 60 -105 16 -23 29 -49 29 -58 0 -9 4 -14 9 -11 13 9 34 -21 25 -36 -4 -7 -4 -10 1 -6 5 5 51 -34 104 -85 105 -101 223 -189 356 -265 46 -27 82 -52 77 -57 -4 -5 -2 -5 5 -1 15 8 146 -57 136 -69 -5 -4 -3 -5 3 -2 15 9 115 -33 108 -44 -3 -5 1 -7 8 -4 16 6 154 -50 151 -62 -1 -4 1 -10 4 -13 4 -3 3 1 -1 8 -10 18 -1 16 110 -22 55 -19 154 -49 219 -66 66 -18 129 -40 139 -49 11 -9 16 -10 12 -3 -9 15 -17 16 110 -12 126 -29 396 -76 431 -76 13 0 22 -4 19 -9 -4 -5 2 -7 12 -4 10 2 83 -3 162 -11 80 -9 271 -21 424 -28 576 -25 1176 32 1680 158 76 19 146 32 155 29 8 -3 12 -3 8 2 -10 9 253 95 271 88 7 -3 11 -1 8 4 -3 4 27 21 67 36 166 64 348 153 482 235 36 22 71 37 77 34 6 -4 8 -3 5 3 -7 11 129 116 150 116 7 0 11 3 10 7 -1 4 27 36 63 71 324 318 407 652 245 993 -13 27 -22 54 -21 60 2 6 1 7 -2 2 -2 -5 -18 13 -34 38 -16 26 -26 52 -22 58 4 6 3 8 -3 5 -6 -4 -26 12 -46 36 -71 87 -188 191 -293 264 -60 41 -109 79 -109 86 0 7 -9 12 -20 13 -30 0 -306 139 -297 149 4 4 2 5 -4 2 -13 -8 -158 46 -148 55 3 4 -4 4 -17 1 -17 -5 -20 -3 -14 7 5 9 4 11 -4 6 -6 -4 -55 6 -109 23 -53 17 -126 38 -162 47 -60 15 -66 15 -97 -1 -40 -22 -60 -73 -42 -107 17 -32 37 -46 84 -58 125 -33 324 -103 318 -112 -3 -7 -1 -8 6 -4 15 10 123 -33 115 -45 -3 -5 3 -6 12 -2 12 4 15 3 10 -5 -4 -8 -2 -10 7 -6 16 6 165 -65 191 -91 9 -9 16 -14 16 -10 0 3 14 -1 30 -10 17 -9 30 -18 30 -21 0 -3 -4 -3 -9 1 -5 3 -13 0 -17 -6 -5 -9 0 -10 16 -6 16 4 38 -4 74 -28 54 -36 111 -82 86 -69 -9 4 -12 3 -7 -2 5 -5 14 -9 20 -9 20 0 69 -43 62 -54 -3 -6 0 -8 8 -5 8 3 20 -2 27 -11 11 -13 10 -15 -6 -9 -10 4 -16 4 -12 0 3 -4 13 -8 21 -10 25 -3 46 -27 40 -44 -4 -13 -3 -14 5 -4 24 34 177 -217 202 -333 18 -81 13 -213 -11 -291 -25 -82 -58 -146 -72 -137 -6 3 -7 1 -3 -6 10 -15 -33 -83 -46 -75 -7 4 -8 2 -4 -5 10 -16 -139 -168 -241 -245 -118 -88 -237 -157 -259 -150 -14 4 -15 3 -6 -4 11 -7 10 -10 -3 -16 -9 -3 -22 -3 -27 1 -7 3 -8 1 -4 -5 8 -13 -85 -64 -106 -59 -7 2 -9 2 -4 -1 5 -3 -6 -11 -24 -19 -27 -11 -35 -11 -43 -1 -6 10 -7 9 -4 -3 4 -13 -15 -25 -91 -54 -223 -86 -511 -173 -531 -161 -5 4 -11 2 -13 -3 -4 -13 -316 -76 -493 -100 -362 -48 -585 -61 -940 -56 -343 5 -458 13 -760 51 -197 24 -547 92 -540 104 2 4 -8 7 -24 7 -37 0 -201 45 -195 54 2 4 -4 5 -14 2 -48 -12 -641 234 -625 260 3 6 1 7 -6 3 -14 -9 -123 52 -116 65 4 5 -2 6 -11 2 -13 -5 -15 -3 -9 7 5 8 4 11 -2 7 -20 -12 -218 143 -205 160 4 4 3 5 -2 0 -12 -9 -87 63 -79 76 3 6 1 7 -4 4 -26 -16 -145 177 -185 298 -34 103 -32 241 6 349 52 152 179 311 352 441 42 32 79 53 86 49 6 -4 8 -3 5 4 -18 28 459 260 507 247 14 -4 17 -3 8 3 -9 6 33 22 130 51 176 52 203 63 224 96 32 49 -15 125 -78 125 -18 -1 -106 -23 -196 -50z"/>
<path d="M6270 4647 c-37 -19 -61 -71 -48 -108 14 -40 35 -52 150 -89 174 -55 338 -140 454 -235 68 -55 146 -144 141 -159 -3 -7 -1 -19 5 -27 8 -11 9 -10 4 4 -11 35 6 16 27 -30 32 -71 30 -180 -5 -253 -33 -70 -84 -141 -101 -137 -6 1 -11 -3 -10 -10 3 -14 -70 -79 -148 -133 -122 -83 -389 -203 -431 -193 -16 3 -19 2 -10 -4 30 -22 -385 -119 -654 -152 -174 -21 -350 -34 -320 -22 17 7 18 8 3 14 -10 4 -20 0 -25 -10 -8 -14 -38 -15 -272 -11 -144 3 -265 9 -269 14 -3 5 -41 10 -85 11 -138 5 -466 60 -444 75 9 6 6 7 -9 3 -21 -6 -48 -1 -163 32 -45 13 -51 17 -35 24 16 6 17 8 3 8 -9 1 -20 -3 -23 -9 -3 -5 -44 5 -98 24 -129 47 -128 47 -120 59 3 6 1 7 -6 3 -6 -4 -21 -4 -32 -1 -17 6 -19 9 -8 17 11 8 10 9 -4 4 -34 -11 -293 135 -280 157 3 7 3 9 -2 5 -12 -11 -66 31 -59 45 4 7 4 9 -1 5 -11 -11 -36 12 -28 25 3 5 1 7 -5 3 -16 -10 -81 71 -115 144 -43 92 -43 180 0 272 33 69 96 148 119 148 8 0 13 6 12 13 -2 6 3 11 10 9 8 -1 11 2 8 7 -13 20 193 159 215 145 7 -4 9 -3 6 3 -8 13 115 66 259 114 129 42 161 77 133 144 -7 17 -12 33 -11 37 1 4 -18 10 -43 13 -35 6 -63 0 -147 -28 -57 -19 -120 -43 -141 -51 -21 -9 -43 -14 -49 -10 -6 4 -8 3 -5 -3 7 -11 -136 -84 -155 -79 -7 1 -9 1 -5 -2 5 -2 -8 -15 -27 -29 -20 -13 -41 -21 -46 -18 -6 4 -9 2 -8 -3 3 -10 -139 -127 -156 -127 -6 -1 -10 -5 -9 -11 2 -13 -93 -135 -100 -128 -3 3 -8 0 -13 -7 -4 -8 -3 -10 4 -5 7 4 12 4 12 1 0 -8 -41 -89 -49 -95 -3 -3 -6 -9 -6 -15 -1 -5 -6 -42 -14 -82 -25 -142 20 -297 128 -430 27 -33 48 -64 45 -67 -2 -3 -1 -4 3 -1 3 3 29 -15 58 -39 123 -105 312 -213 508 -288 48 -19 84 -38 80 -43 -5 -4 -2 -5 5 -1 16 10 65 -1 58 -13 -3 -4 7 -6 22 -4 22 4 24 2 12 -7 -12 -8 -9 -9 13 -4 15 3 27 2 27 -4 0 -5 10 -10 23 -9 12 0 85 -13 162 -31 361 -80 801 -115 1175 -93 380 23 694 78 978 171 68 22 129 37 135 34 7 -4 9 -4 5 1 -4 4 35 27 87 50 272 123 446 254 553 418 72 110 87 160 86 287 0 85 -5 116 -23 164 -36 90 -118 202 -201 275 -41 36 -74 69 -72 74 1 5 -1 6 -6 3 -5 -3 -26 6 -47 21 -21 14 -70 44 -109 66 -39 22 -77 47 -84 56 -8 9 -11 10 -7 4 9 -18 6 -17 -69 16 -57 26 -271 101 -286 101 -3 0 -16 -6 -30 -13z"/>
<path d="M4144 4214 c-29 -13 -73 -43 -98 -66 -50 -43 -106 -129 -106 -163 0 -16 -2 -17 -9 -6 -6 10 -8 0 -5 -30 7 -60 25 -128 36 -135 5 -3 6 -15 3 -27 -5 -16 -4 -18 3 -8 8 11 12 9 23 -10 7 -13 12 -28 11 -32 -1 -5 2 -6 7 -3 9 6 28 -12 30 -26 1 -5 2 -7 4 -6 9 6 46 -25 41 -35 -4 -7 -4 -9 1 -5 11 11 47 -11 39 -24 -4 -7 -3 -8 4 -4 6 4 35 -6 64 -22 29 -16 89 -43 133 -60 86 -33 303 -92 339 -92 18 0 19 -2 6 -11 -12 -9 -12 -10 3 -5 10 3 69 0 130 -8 462 -59 937 7 1274 178 141 71 180 115 168 186 -5 29 -13 38 -44 51 -35 15 -42 15 -72 1 -19 -8 -40 -14 -48 -13 -7 1 -10 -2 -7 -8 13 -20 -98 -77 -139 -72 -15 1 -17 0 -6 -7 23 -16 -159 -75 -359 -117 -362 -76 -911 -32 -1215 97 -96 41 -168 85 -160 98 3 5 0 7 -8 4 -21 -8 -67 56 -67 92 0 30 21 69 50 91 19 16 33 16 24 1 -4 -7 -3 -8 5 -4 6 4 9 11 6 16 -3 5 7 16 22 24 65 33 83 79 54 139 -18 36 -25 42 -53 44 -18 1 -56 -10 -84 -23z"/>
</g>
</svg>
