<?xml version="1.0" standalone="no"?>
<!DOCTYPE svg PUBLIC "-//W3C//DTD SVG 20010904//EN"
 "http://www.w3.org/TR/2001/REC-SVG-20010904/DTD/svg10.dtd">
<svg version="1.0" xmlns="http://www.w3.org/2000/svg"
 width="1024.000000pt" height="1024.000000pt" viewBox="0 0 1024.000000 1024.000000"
 preserveAspectRatio="xMidYMid meet">
<metadata>
Created by potrace 1.16, written by Peter Selinger 2001-2019
</metadata>
<g transform="translate(0.000000,1024.000000) scale(0.100000,-0.100000)"
fill="#000000" stroke="none">
<path d="M6335 8470 c22 -9 27 -8 -60 -16 -67 -5 -192 -33 -238 -52 -15 -7
-40 -15 -55 -18 -31 -8 -124 -53 -132 -64 -3 -4 -15 -10 -27 -14 -13 -4 -23
-12 -23 -17 0 -5 -6 -9 -14 -9 -8 0 -16 -7 -20 -15 -3 -8 -10 -15 -16 -15 -18
0 -122 -97 -215 -200 -27 -30 -52 -54 -56 -53 -4 1 -5 -5 -2 -15 2 -9 -4 -26
-15 -37 -29 -32 -107 -206 -104 -235 0 -3 -4 -13 -10 -24 -10 -18 -18 -53 -19
-86 -1 -8 -6 -37 -12 -65 -14 -71 -14 -128 1 -143 7 -8 12 -28 12 -45 -2 -60
17 -143 47 -199 9 -17 10 -28 4 -28 -6 0 -11 -5 -11 -11 0 -5 4 -8 8 -5 4 3
19 -16 33 -42 13 -26 26 -49 29 -52 6 -6 25 -36 46 -74 12 -21 13 -31 4 -36
-8 -5 -7 -9 5 -14 14 -5 16 -13 11 -39 -29 -137 -27 -227 7 -300 25 -51 76
-107 98 -107 6 0 8 -3 6 -7 -6 -10 108 -9 150 1 31 7 34 5 69 -51 43 -69 103
-134 160 -173 51 -36 151 -70 204 -70 25 0 40 -5 40 -12 0 -9 2 -10 8 -2 4 6
26 15 50 19 24 4 56 13 70 21 15 8 33 14 40 14 17 0 145 71 162 90 3 3 28 22
56 43 62 45 134 121 134 142 0 27 -30 76 -42 69 -7 -5 -9 -2 -6 7 5 12 -2 14
-31 11 -20 -3 -38 -8 -41 -11 -15 -20 -78 -60 -85 -53 -5 4 -5 2 -1 -5 4 -7
-4 -19 -20 -29 -22 -15 -27 -15 -36 -3 -7 10 -8 8 -3 -8 5 -17 2 -23 -9 -23
-9 0 -16 -5 -16 -11 0 -7 -9 -9 -21 -6 -12 3 -18 3 -15 0 9 -10 -82 -64 -116
-70 -18 -3 -40 -9 -48 -13 -18 -10 -104 3 -151 23 -63 26 -133 104 -185 205
-19 36 -75 84 -96 81 -36 -5 -69 2 -62 13 4 7 3 8 -5 4 -6 -4 -9 -11 -6 -16 2
-4 -13 -12 -35 -18 -76 -19 -82 4 -67 227 4 46 2 91 -3 101 -6 11 -5 21 3 30
9 10 9 11 0 6 -8 -4 -13 -1 -13 7 0 8 -14 33 -31 56 -17 24 -28 49 -25 57 4
10 2 12 -6 8 -8 -5 -9 -2 -5 10 4 10 3 15 -3 11 -12 -7 -61 98 -63 135 -1 14
-6 28 -12 32 -5 4 -11 13 -11 20 -1 7 -3 15 -4 18 -1 3 -4 23 -6 45 -2 22 -6
56 -8 75 -7 50 31 235 61 300 57 125 66 140 74 140 5 0 9 6 9 14 0 8 3 16 8
18 4 2 30 30 57 63 28 33 63 71 79 84 15 14 35 32 44 40 8 9 23 20 32 26 9 5
43 27 75 49 31 21 62 39 69 41 6 1 27 9 47 18 20 9 49 18 65 21 16 2 30 5 32
6 1 2 6 3 11 4 5 0 13 4 17 9 13 13 26 7 20 -9 -4 -10 -2 -14 6 -11 7 2 12 10
11 16 -2 6 3 11 10 12 6 0 23 2 37 4 14 2 70 4 125 6 226 6 438 -73 598 -223
45 -43 66 -75 30 -47 -16 13 -17 12 -4 -3 7 -10 17 -16 21 -13 5 3 29 -26 54
-63 40 -60 71 -139 102 -257 15 -60 23 -171 29 -418 3 -111 7 -213 10 -227 2
-14 7 -41 10 -60 3 -19 12 -52 20 -73 9 -21 13 -43 10 -48 -4 -5 0 -9 8 -9 14
0 44 -66 39 -84 -2 -6 -1 -8 3 -4 8 7 75 -76 75 -93 0 -5 5 -7 10 -4 6 3 10 2
10 -4 0 -5 -3 -11 -7 -14 -5 -2 -3 -3 3 -1 12 3 51 -24 91 -63 13 -12 43 -37
68 -56 24 -19 41 -37 37 -41 -3 -4 2 -4 11 0 10 4 25 0 35 -8 18 -16 233 -143
242 -143 3 0 20 -11 38 -24 23 -16 30 -26 22 -31 -8 -5 -7 -9 5 -13 9 -4 13
-3 10 3 -10 17 12 11 26 -7 12 -15 12 -16 -1 -8 -9 5 -12 4 -7 -1 5 -5 16 -9
25 -9 9 0 16 -6 14 -13 -1 -8 1 -11 6 -8 14 8 107 -66 187 -150 128 -133 147
-159 140 -193 -3 -18 -1 -21 9 -12 11 9 20 1 45 -36 17 -26 30 -52 28 -57 -2
-6 5 -19 15 -30 13 -15 15 -23 6 -33 -8 -11 -7 -12 6 -7 11 4 16 1 16 -13 0
-10 7 -29 16 -41 9 -13 14 -32 11 -43 -3 -10 -1 -19 4 -19 5 0 9 -6 9 -12 0
-7 7 -26 15 -41 8 -15 18 -45 22 -65 9 -44 10 -50 13 -59 1 -5 2 -16 1 -25 -1
-10 2 -18 8 -18 6 0 10 -12 9 -27 -1 -45 10 -151 17 -163 3 -5 4 -10 1 -10 -2
0 -1 -13 4 -28 4 -17 3 -36 -2 -47 -8 -13 -7 -16 1 -11 7 5 12 -3 13 -21 1
-15 3 -41 4 -58 18 -232 22 -709 15 -1605 -2 -250 -3 -460 -2 -467 4 -41 86
-68 122 -40 37 28 40 53 38 270 -2 116 1 311 6 432 15 366 7 1366 -11 1396 -2
3 -6 39 -9 80 -3 41 -8 92 -12 114 -3 22 -8 49 -9 60 -2 11 -6 45 -9 75 -4 30
-11 60 -17 67 -6 8 -8 16 -5 20 4 3 2 12 -5 20 -6 7 -8 16 -5 20 4 3 2 11 -3
18 -5 7 -12 27 -14 46 -3 19 -6 36 -7 39 -1 3 -3 10 -4 15 -2 6 -4 12 -5 15
-1 3 -3 15 -6 28 -7 41 -85 220 -110 253 -13 18 -24 38 -24 45 0 6 -7 17 -15
24 -20 16 -46 70 -39 81 3 5 -1 7 -8 4 -7 -3 -24 11 -38 32 -14 21 -55 69 -92
107 -37 38 -64 74 -61 80 3 6 3 8 -2 4 -4 -4 -27 9 -49 30 -23 20 -54 46 -70
57 -16 11 -49 37 -73 58 -25 20 -58 44 -75 53 -17 9 -51 31 -77 49 -25 18 -62
40 -81 49 -19 9 -53 27 -75 41 -22 14 -51 31 -65 37 -23 12 -89 59 -117 84 -7
7 -9 15 -5 19 4 5 2 5 -4 2 -11 -7 -90 67 -129 120 -12 16 -30 48 -40 73 -11
25 -22 47 -25 50 -3 3 -7 16 -9 30 -1 14 -7 32 -11 40 -4 8 -9 119 -9 247 -1
128 -4 242 -7 255 -2 13 -7 52 -9 86 -3 35 -7 68 -11 73 -3 5 -7 19 -10 31 -7
32 -12 52 -14 58 -1 3 -3 10 -4 15 -1 6 -5 18 -9 28 -10 26 -20 51 -22 57 0 3
-19 41 -40 85 -22 44 -38 84 -37 90 2 5 1 7 -3 3 -8 -8 -16 -1 -70 66 -71 88
-151 152 -289 234 -49 29 -172 72 -205 72 -15 0 -31 3 -35 7 -3 4 -16 8 -29
10 -12 1 -42 5 -67 9 -25 4 -66 6 -93 6 -26 0 -45 3 -43 7 3 4 -7 7 -22 8 -24
2 -24 1 -7 -7z"/>
<path d="M6550 6232 c-8 -5 -60 -31 -115 -58 -55 -27 -101 -52 -103 -56 -2 -5
-9 -8 -15 -8 -6 0 -18 -7 -28 -16 -9 -8 -26 -16 -37 -17 -11 0 -19 -4 -16 -8
4 -7 -15 -23 -114 -97 -13 -9 -35 -27 -49 -40 -13 -12 -30 -19 -36 -16 -7 4
-9 4 -6 0 10 -11 -320 -338 -333 -330 -6 4 -8 3 -5 -3 9 -14 -72 -95 -85 -87
-7 4 -8 2 -4 -5 8 -12 -49 -73 -134 -143 -123 -101 -144 -117 -152 -112 -5 3
-7 1 -6 -4 4 -13 -76 -79 -139 -114 -28 -16 -57 -36 -63 -43 -7 -8 -19 -15
-26 -15 -8 0 -14 -3 -14 -8 0 -4 -21 -19 -47 -32 -26 -14 -53 -30 -59 -36 -24
-22 -332 -170 -346 -166 -5 1 -8 -2 -8 -8 0 -6 -3 -9 -7 -8 -5 1 -21 -4 -38
-11 -45 -18 -55 -21 -59 -18 -1 1 -10 -4 -19 -11 -8 -7 -27 -15 -42 -18 -15
-3 -37 -12 -50 -20 -13 -9 -29 -13 -35 -9 -5 3 -10 1 -10 -5 0 -6 -6 -10 -12
-9 -7 1 -20 0 -28 -4 -8 -3 -28 -9 -45 -13 -16 -4 -34 -8 -40 -10 -5 -2 -19
-5 -30 -7 -64 -15 -81 -21 -91 -29 -7 -5 -16 -8 -20 -6 -5 1 -37 -4 -71 -11
-34 -7 -69 -11 -77 -8 -9 4 -13 1 -10 -6 2 -7 -5 -13 -18 -14 -13 -1 -36 -4
-53 -8 -16 -3 -39 -7 -50 -9 -11 -2 -20 -5 -20 -6 0 -1 -9 -4 -21 -5 -32 -3
-122 -25 -199 -48 -38 -11 -72 -20 -75 -19 -3 0 -12 -5 -20 -12 -8 -8 -25 -12
-37 -11 -13 1 -21 -1 -18 -3 6 -6 -115 -75 -132 -75 -7 0 -10 -4 -8 -8 3 -4
-6 -14 -19 -22 -13 -9 -29 -22 -37 -29 -30 -30 -86 -68 -92 -63 -4 3 -5 2 -2
-2 3 -4 -6 -18 -19 -32 -13 -14 -47 -57 -76 -96 -28 -38 -55 -70 -58 -71 -4 0
-15 -4 -24 -8 -9 -4 -22 -8 -30 -10 -7 -1 -19 -5 -25 -9 -7 -5 -13 -6 -13 -3
0 3 -25 -6 -56 -20 -30 -13 -63 -26 -72 -27 -9 -2 -27 -9 -39 -15 -13 -7 -23
-10 -23 -7 0 3 -10 0 -22 -7 -13 -7 -25 -13 -28 -13 -3 0 -15 -6 -26 -13 -12
-6 -24 -8 -28 -5 -3 3 -6 0 -6 -7 0 -7 -3 -11 -6 -7 -3 3 -25 -5 -49 -19 -24
-13 -50 -24 -58 -24 -8 0 -31 -12 -52 -26 -21 -14 -48 -28 -59 -30 -11 -2 -22
-8 -25 -12 -3 -5 -44 -30 -91 -56 -96 -53 -105 -58 -173 -104 -28 -18 -60 -35
-73 -38 -13 -3 -24 -11 -24 -17 0 -6 -3 -7 -6 -4 -4 3 -26 -5 -49 -19 -24 -14
-54 -27 -67 -30 -38 -8 -53 -12 -55 -14 -2 -2 -7 -4 -13 -5 -5 -1 -11 -4 -12
-5 -7 -7 -70 -15 -197 -25 -75 -6 -95 -5 -102 6 -6 10 -9 10 -9 2 0 -18 -58
-16 -77 2 -15 16 -38 11 -28 -6 4 -5 -1 -9 -9 -9 -8 0 -18 5 -21 10 -4 6 -12
7 -18 3 -7 -4 -23 -9 -37 -11 -80 -11 -85 -111 -7 -143 18 -7 35 -18 39 -23 5
-7 8 -7 8 2 0 10 38 12 168 11 179 -2 264 5 324 27 21 7 40 13 43 14 3 0 7 1
10 1 3 1 10 3 15 4 6 1 11 3 13 5 1 1 11 3 21 5 19 4 68 25 116 51 14 7 45 23
70 34 25 12 59 32 77 46 17 13 34 24 37 24 3 0 14 7 25 16 20 17 368 205 386
208 19 3 130 49 140 58 5 4 15 8 22 8 8 0 33 9 55 20 23 11 51 20 63 20 11 0
25 4 30 9 6 6 25 13 44 16 19 3 39 9 45 12 5 4 19 8 31 9 11 2 70 12 130 23
84 14 113 16 124 8 12 -9 13 -9 7 1 -5 8 1 12 18 12 30 0 33 -13 9 -32 -17
-12 -20 -18 -29 -63 -8 -37 15 -72 59 -90 82 -33 276 -30 365 7 15 6 32 12 39
14 16 3 142 74 156 88 27 27 80 51 84 39 2 -7 10 -10 17 -7 17 6 187 -56 181
-66 -3 -4 3 -6 12 -4 24 5 299 -139 295 -155 -1 -7 2 -10 8 -6 11 7 53 -18 45
-27 -3 -2 1 -5 9 -5 20 0 176 -123 176 -139 0 -7 -12 -21 -26 -30 -25 -17
-103 -127 -105 -148 0 -6 -3 -20 -6 -31 -10 -40 -6 -131 7 -165 1 -3 2 -8 1
-12 -1 -12 58 -149 69 -158 15 -13 49 -68 45 -74 -3 -3 -2 -4 1 -2 8 6 90 -76
86 -87 -1 -5 2 -6 7 -2 6 3 24 -1 41 -10 16 -8 31 -15 32 -14 2 1 19 -3 38 -9
51 -17 222 -4 244 18 6 6 18 10 27 10 9 0 77 25 150 56 225 95 220 94 281 73
29 -9 54 -22 56 -28 2 -6 8 -9 13 -6 13 8 149 -57 142 -69 -3 -5 -1 -6 5 -3
17 11 41 -3 35 -21 -4 -14 -3 -14 5 -3 9 12 21 9 77 -19 36 -18 69 -38 72 -43
3 -6 1 -7 -5 -3 -6 3 -13 2 -17 -3 -3 -6 6 -8 21 -5 18 3 23 1 18 -7 -4 -7 -3
-9 3 -6 29 18 328 -188 481 -331 31 -30 51 -51 43 -46 -9 5 -12 3 -7 -5 4 -6
11 -9 15 -7 15 10 173 -157 244 -259 75 -105 138 -215 131 -226 -4 -7 -3 -9 4
-5 6 3 13 -3 17 -14 9 -27 53 -60 82 -60 29 0 83 50 83 78 0 10 -13 44 -30 75
-33 63 -36 72 -17 61 7 -4 9 -3 4 2 -5 5 -12 9 -17 9 -4 0 -44 54 -88 120
-135 199 -307 375 -535 546 -67 51 -125 96 -128 101 -3 5 -8 8 -11 6 -2 -1
-33 15 -69 37 -35 22 -67 39 -71 37 -5 -1 -8 3 -8 8 0 6 -6 10 -13 10 -8 0
-24 9 -37 20 -12 11 -38 25 -57 32 -19 7 -32 17 -29 25 3 7 -1 10 -9 7 -13 -6
-235 96 -235 107 0 6 32 17 68 25 8 1 21 6 30 10 9 4 22 8 27 10 25 7 62 16
80 18 11 2 22 5 25 6 3 2 10 4 15 5 44 7 113 19 125 22 76 22 251 37 282 25
16 -6 26 -6 22 -1 -4 6 23 8 73 4 43 -4 89 -7 103 -7 14 0 30 -4 36 -9 7 -5
16 -9 20 -8 24 4 44 -2 38 -12 -5 -8 -1 -8 14 0 15 8 24 8 34 -2 7 -6 30 -12
51 -12 21 0 41 -3 43 -7 3 -5 9 -6 14 -3 11 7 70 -15 70 -27 0 -5 5 -6 10 -3
14 8 52 -4 45 -15 -3 -5 0 -12 6 -16 7 -4 9 -3 6 3 -8 13 17 25 29 14 5 -4 42
-18 82 -31 52 -17 69 -26 56 -30 -15 -6 -14 -8 8 -12 17 -3 25 -1 21 5 -4 6 0
8 8 5 8 -3 34 -13 59 -23 25 -9 61 -25 81 -36 20 -10 39 -16 43 -12 3 3 6 1 6
-5 0 -7 3 -11 8 -10 12 4 92 -45 86 -53 -2 -4 1 -11 7 -15 8 -4 9 -3 5 4 -4 7
-5 12 -2 12 11 0 57 -20 69 -30 6 -6 55 -38 107 -73 52 -34 109 -74 125 -89
17 -16 38 -31 47 -34 9 -3 20 -14 23 -24 3 -11 9 -19 14 -17 4 1 26 -15 50
-35 39 -34 42 -39 30 -55 -13 -16 -12 -17 4 -4 10 8 21 10 26 5 4 -5 38 -42
75 -82 60 -64 66 -75 54 -90 -11 -15 -11 -15 2 -5 17 13 29 8 45 -18 6 -9 34
-52 64 -95 30 -43 55 -89 57 -102 3 -26 10 -37 26 -37 6 0 23 -24 39 -54 23
-42 26 -57 18 -68 -9 -10 -9 -12 3 -8 11 4 21 -9 37 -47 32 -78 43 -98 53 -98
5 0 6 -5 3 -10 -3 -5 -1 -10 4 -10 6 0 11 -8 12 -17 0 -11 3 -13 6 -5 2 6 16
12 30 12 14 0 37 13 55 30 30 30 32 43 14 95 -19 58 -114 255 -147 303 -16 24
-29 46 -29 49 0 10 -103 148 -117 156 -7 4 -13 12 -13 16 0 28 -269 293 -377
373 -45 34 -80 65 -77 70 3 5 2 7 -3 6 -12 -4 -103 43 -103 54 0 4 -6 8 -14 8
-8 0 -21 6 -28 14 -8 7 -24 17 -36 20 -12 4 -22 11 -22 15 0 5 -13 14 -30 21
-16 7 -28 16 -25 20 3 5 -4 6 -15 3 -11 -3 -20 0 -20 6 0 6 -6 11 -12 11 -7 0
-39 13 -70 29 -32 16 -58 27 -58 25 0 -3 -10 1 -22 8 -13 7 -25 13 -28 13 -3
0 -16 7 -28 14 -13 7 -35 15 -50 17 -14 3 -30 8 -36 12 -6 4 -15 7 -21 7 -5 1
-9 5 -8 10 1 6 -11 11 -25 11 -30 2 -44 5 -85 22 -16 7 -37 12 -48 12 -18 0
-28 19 -11 21 63 7 239 55 260 71 6 6 12 8 12 5 0 -10 151 62 198 94 24 16 48
26 54 23 7 -4 8 -2 4 4 -4 7 -3 12 3 12 5 0 27 17 48 37 21 20 62 58 91 85 29
26 50 48 47 48 -3 0 15 21 40 47 25 26 45 50 45 54 0 3 13 22 30 40 16 19 30
40 30 47 0 6 4 12 9 12 11 0 89 121 180 278 86 148 321 619 313 626 -3 4 0 6
7 6 7 0 9 5 6 10 -3 6 -3 10 2 10 4 0 16 20 27 45 20 49 16 87 -12 119 -13 15
-14 18 -2 12 8 -4 6 0 -4 8 -11 9 -25 16 -30 16 -6 0 -4 -5 4 -10 12 -8 9 -10
-12 -10 -16 0 -28 6 -29 13 0 7 -3 6 -7 -4 -13 -28 -50 -69 -63 -69 -11 0 -11
-3 1 -10 10 -6 11 -10 2 -10 -6 0 -11 -3 -10 -7 1 -5 -7 -26 -17 -48 -10 -22
-17 -43 -17 -47 1 -5 -2 -8 -7 -8 -5 0 -13 -9 -16 -20 -4 -11 -10 -18 -14 -16
-4 3 -7 -5 -6 -17 2 -21 -51 -135 -68 -148 -5 -3 -9 -12 -11 -20 -4 -30 -69
-138 -79 -132 -6 3 -7 1 -3 -6 7 -11 -59 -143 -76 -149 -4 -2 -8 -11 -8 -20 0
-9 -9 -28 -20 -42 -11 -14 -20 -30 -20 -35 0 -6 -22 -43 -50 -83 -27 -40 -50
-74 -50 -77 0 -5 -89 -135 -104 -152 -6 -6 -27 -31 -46 -54 -48 -58 -130 -140
-164 -164 -16 -11 -34 -25 -41 -32 -7 -7 -15 -9 -19 -6 -3 4 -6 1 -6 -5 0 -7
-7 -12 -15 -12 -8 0 -15 -4 -15 -8 0 -9 -130 -72 -160 -77 -8 -2 -16 -4 -17
-5 -2 -2 -6 -3 -10 -4 -5 -1 -13 -4 -19 -8 -6 -4 -22 -9 -37 -12 -15 -2 -31
-7 -37 -11 -5 -3 -26 -8 -47 -10 -21 -3 -58 -9 -83 -14 -52 -11 -115 -23 -148
-27 -12 -1 -46 -7 -75 -13 -28 -5 -59 -10 -67 -10 -8 -1 -35 -3 -60 -5 -25 -3
-97 -7 -160 -11 -63 -3 -144 -10 -180 -15 -36 -5 -87 -12 -115 -15 -93 -11
-110 -14 -140 -20 -17 -3 -39 -8 -50 -10 -35 -6 -59 -13 -88 -24 -16 -6 -33
-9 -38 -5 -5 3 -9 1 -9 -4 0 -9 -13 -13 -100 -29 -13 -2 -29 -8 -35 -13 -7 -5
-22 -12 -36 -14 -13 -3 -25 -5 -26 -7 -2 -1 -6 -2 -10 -4 -5 -1 -24 -9 -43
-18 -27 -12 -38 -13 -49 -4 -12 9 -13 9 -7 -1 5 -8 -3 -17 -26 -26 -18 -8 -36
-12 -40 -10 -5 3 -8 1 -8 -4 0 -5 -9 -12 -20 -15 -11 -3 -20 0 -20 6 0 8 -3 8
-8 -1 -5 -7 -17 -10 -28 -6 -14 4 -15 3 -5 -4 9 -7 10 -12 2 -16 -6 -4 -11 -4
-11 -1 0 4 -25 -7 -56 -25 -41 -23 -64 -30 -83 -25 -15 3 -21 2 -14 -3 9 -6 4
-13 -17 -26 -17 -9 -30 -14 -30 -10 0 3 -7 1 -15 -6 -8 -7 -15 -10 -15 -7 0 3
-16 -1 -35 -9 -20 -8 -40 -12 -45 -9 -4 3 -10 0 -12 -6 -2 -6 -28 -13 -58 -16
l-55 -5 30 23 c17 13 36 29 43 36 7 7 20 13 28 13 8 0 14 5 14 10 0 6 5 10 10
10 6 0 29 12 53 27 23 15 62 37 87 50 93 49 125 116 77 161 -33 31 -79 28
-144 -10 -86 -52 -117 -66 -128 -60 -5 3 -7 2 -3 -3 9 -10 -110 -87 -123 -79
-5 3 -8 0 -7 -8 2 -7 -5 -12 -14 -12 -10 1 -15 -3 -11 -9 4 -6 -2 -8 -16 -4
-13 3 -20 3 -17 0 3 -3 0 -15 -5 -26 -9 -15 -13 -17 -19 -7 -5 8 -3 19 3 26 7
7 18 20 25 28 6 9 20 13 30 10 12 -4 13 -3 4 3 -19 14 39 81 115 133 55 38 64
41 80 29 16 -12 17 -12 5 2 -11 14 -3 22 55 60 58 38 68 49 71 77 2 20 7 30
14 26 7 -5 8 -2 4 5 -5 7 -10 10 -13 8 -2 -3 -19 9 -36 27 -19 19 -43 31 -59
31 -14 1 -25 -2 -23 -6 3 -3 -20 -19 -50 -35 -30 -15 -55 -32 -55 -37 0 -5 -9
-7 -20 -4 -11 3 -18 1 -15 -3 6 -10 -29 -32 -39 -25 -3 3 -4 2 -2 -1 3 -4 -24
-31 -60 -61 -35 -31 -78 -74 -95 -97 l-31 -41 5 52 c5 48 12 58 64 111 57 56
185 152 203 152 6 0 10 4 10 8 0 7 64 36 65 30 1 -2 12 4 25 13 14 8 54 24 90
34 36 10 70 22 75 26 6 3 39 7 74 8 36 1 67 3 69 6 3 3 12 -1 20 -8 10 -7 13
-7 9 -1 -8 14 32 20 128 19 40 0 75 5 82 12 7 6 22 9 33 6 11 -3 26 -1 33 5 7
6 22 11 32 11 11 0 36 3 55 6 53 9 63 9 85 1 16 -6 17 -6 5 3 -8 6 -10 11 -5
12 46 4 235 51 280 69 11 5 42 14 70 20 27 6 54 15 60 20 6 5 25 11 42 15 36
6 70 18 128 45 22 10 63 25 92 34 28 9 64 21 80 28 15 6 30 12 33 13 31 7 118
40 127 47 7 6 21 7 30 4 10 -4 14 -4 10 0 -3 4 21 23 54 43 59 34 146 114 199
181 14 17 31 37 38 45 6 7 12 18 12 24 0 6 4 11 9 11 21 0 169 286 289 560 8
19 19 43 23 52 5 10 9 22 9 27 0 4 10 30 22 57 12 27 23 51 23 54 4 16 29 60
35 60 4 0 6 10 5 22 -1 12 4 34 12 48 27 55 27 84 -2 118 -20 24 -35 32 -61
32 -35 0 -80 -32 -69 -50 4 -6 1 -10 -6 -10 -7 0 -9 -3 -6 -7 4 -3 2 -12 -4
-19 -5 -7 -12 -23 -14 -37 -3 -13 -17 -51 -32 -83 -15 -33 -28 -61 -28 -64 -1
-3 -13 -31 -28 -64 -15 -32 -27 -63 -27 -68 0 -6 -7 -22 -14 -36 -8 -15 -49
-99 -91 -187 -119 -248 -220 -405 -303 -473 -23 -17 -44 -32 -47 -32 -4 0 -18
-9 -32 -20 -14 -11 -34 -20 -44 -20 -11 0 -19 -4 -19 -10 0 -5 -8 -10 -18 -10
-10 0 -19 7 -19 15 0 8 5 15 11 15 8 0 7 3 0 8 -6 4 -17 41 -24 82 -7 41 -21
113 -32 160 -11 47 -22 93 -24 103 -2 9 -6 27 -10 40 -3 12 -7 33 -10 47 -3
14 -14 59 -26 100 -18 67 -27 93 -54 165 -4 11 -9 29 -11 39 -2 11 -8 25 -14
33 -6 7 -9 13 -5 13 4 0 -14 39 -39 88 -47 89 -54 102 -92 161 -12 19 -19 39
-16 44 3 6 1 7 -4 4 -6 -4 -16 -1 -21 6 -14 17 -73 20 -92 4 -8 -6 -23 -25
-33 -40 -18 -27 -18 -29 2 -63 12 -20 18 -40 15 -46 -4 -6 -3 -8 3 -5 5 3 18
-8 28 -26 10 -18 23 -35 28 -38 5 -4 10 -18 10 -32 1 -14 4 -24 7 -22 4 2 11
-5 18 -15 9 -15 8 -20 -6 -26 -9 -4 -20 -6 -24 -6 -5 1 -8 -4 -8 -11 0 -6 -17
-23 -38 -37 -20 -14 -39 -27 -42 -30 -3 -3 -23 -17 -45 -32 -22 -14 -79 -53
-127 -86 -48 -34 -106 -72 -130 -85 -24 -13 -59 -34 -78 -46 -19 -11 -55 -31
-80 -43 -25 -13 -47 -26 -48 -31 -2 -4 -8 -5 -13 -1 -5 3 -9 0 -9 -5 0 -6 -9
-11 -20 -11 -11 0 -20 -4 -20 -10 0 -5 -6 -10 -12 -10 -7 -1 -44 -16 -83 -35
-44 -21 -74 -30 -80 -24 -5 5 -14 9 -20 9 -5 0 -4 -4 3 -8 15 -10 -3 -20 -113
-57 -44 -16 -84 -31 -90 -36 -5 -4 -23 -10 -40 -13 -29 -5 -67 -14 -93 -22 -7
-2 -14 -4 -17 -4 -3 -1 -19 -6 -37 -11 -60 -18 -81 -23 -158 -33 -25 -4 -58
-10 -75 -15 -16 -5 -37 -9 -45 -9 -8 0 -37 -3 -65 -7 -82 -12 -269 -30 -430
-40 -80 -5 -122 -10 -160 -19 -32 -7 -169 -66 -179 -76 -6 -6 -16 -10 -24 -10
-12 0 -12 3 -1 18 12 15 12 16 -2 5 -9 -7 -18 -12 -20 -10 -2 1 -1 -2 3 -7 11
-14 10 -26 -2 -26 -5 0 -42 -22 -82 -49 -40 -28 -74 -48 -76 -46 -2 2 -13 -5
-25 -15 -16 -15 -24 -17 -34 -8 -8 6 -13 7 -11 2 2 -5 -1 -10 -6 -11 -5 -1
-12 -6 -15 -12 -4 -6 -20 -12 -37 -14 -16 -2 -35 -7 -42 -11 -7 -4 -17 -4 -22
-1 -6 4 -17 2 -23 -4 -10 -8 -65 -9 -73 -2 -1 0 13 17 31 36 26 29 43 37 96
47 46 8 71 18 91 38 15 15 29 25 32 23 2 -3 0 13 -6 36 -19 73 -52 85 -175 61
-34 -7 -76 -10 -92 -8 -16 2 -27 0 -24 -5 3 -5 -19 -8 -48 -7 -30 2 -61 0 -69
-4 -21 -8 -114 -25 -118 -21 -2 2 6 9 18 15 12 6 29 19 38 28 10 9 40 35 67
57 28 22 52 43 55 46 6 7 117 60 125 60 2 0 25 8 50 19 25 11 45 17 45 15 0
-3 16 1 35 9 19 8 35 13 35 11 0 -2 15 1 33 6 17 6 43 12 57 15 14 3 68 14
120 25 52 11 110 22 129 25 18 2 42 9 52 14 15 9 18 7 12 -7 -5 -17 -5 -17 8
0 13 16 24 20 89 33 14 3 34 8 45 11 11 4 23 8 28 9 4 1 9 3 12 4 3 1 10 4 15
5 6 1 13 4 18 5 4 1 12 3 17 4 22 4 99 28 114 36 9 4 73 29 142 54 69 25 194
79 278 121 83 42 157 73 163 69 6 -4 8 -3 5 3 -9 14 111 85 126 76 7 -3 9 -3
5 2 -8 8 33 45 51 45 6 0 11 4 11 9 0 5 14 14 30 21 17 7 30 16 30 21 0 5 14
16 32 25 18 9 38 22 45 28 24 22 38 32 54 42 65 37 327 269 434 384 170 181
425 420 473 443 12 5 22 14 22 19 0 4 7 8 15 8 8 0 15 5 15 10 0 6 7 10 15 10
8 0 15 5 15 10 0 6 6 10 14 10 8 0 21 7 30 15 13 13 98 55 111 54 20 0 129 69
137 87 12 25 5 60 -16 87 -16 20 -82 32 -106 19z m-130 -1442 c6 10 48 -92 56
-138 1 -7 17 -72 34 -144 18 -73 34 -141 36 -153 2 -11 12 -73 24 -138 13 -81
17 -124 10 -135 -5 -10 -10 -13 -10 -8 0 5 -7 3 -15 -4 -8 -7 -15 -9 -15 -5 0
4 -6 3 -12 -3 -7 -5 -39 -17 -72 -26 -32 -10 -83 -28 -113 -41 -30 -14 -59
-22 -64 -19 -5 3 -9 0 -9 -6 0 -7 -6 -10 -14 -7 -8 3 -17 3 -21 -1 -4 -4 -10
-7 -13 -8 -20 -2 -68 -18 -77 -24 -11 -9 -86 -25 -99 -22 -4 2 -14 -2 -22 -9
-7 -6 -18 -8 -23 -5 -5 4 -13 1 -16 -5 -4 -5 -13 -8 -21 -5 -7 3 -16 1 -19 -4
-3 -5 -16 -9 -28 -9 -12 0 -34 -2 -49 -5 -16 -3 -38 -8 -50 -11 -13 -2 -38 -6
-56 -9 -18 -3 -36 -7 -40 -10 -13 -8 -104 -9 -137 -2 -23 5 -25 4 -10 -3 22
-11 25 -10 -62 -16 -83 -5 -189 -16 -213 -22 -14 -3 -32 -7 -40 -8 -41 -5 -89
-19 -121 -36 -20 -10 -39 -15 -43 -12 -3 4 -6 0 -6 -7 0 -7 -3 -11 -6 -7 -7 6
-166 -74 -184 -93 -11 -12 -30 -4 -45 17 -8 12 -50 49 -92 84 -43 34 -77 65
-76 69 1 4 -3 7 -10 7 -18 0 -177 100 -171 106 3 3 -2 4 -13 3 -10 -2 -34 8
-53 20 -19 13 -38 24 -43 24 -5 0 -32 11 -60 24 -29 13 -67 31 -85 39 l-34 14
34 7 c18 3 78 8 133 11 190 10 273 18 385 36 80 14 93 16 151 23 55 7 161 29
243 50 32 9 71 13 85 11 19 -4 21 -3 8 3 -14 6 -2 13 52 30 39 13 83 29 98 37
21 11 29 12 35 2 6 -9 8 -9 8 0 0 6 17 17 38 23 20 7 51 21 69 32 17 10 45 20
61 21 17 1 28 5 25 10 -2 4 6 11 19 16 33 13 151 71 233 116 39 21 81 44 94
51 14 7 29 10 34 7 6 -3 7 -1 3 5 -4 6 4 16 16 23 49 26 321 210 348 235 10
10 16 11 19 3 2 -8 6 -8 11 1z"/>
</g>
</svg>
