<?xml version="1.0" standalone="no"?>
<!DOCTYPE svg PUBLIC "-//W3C//DTD SVG 20010904//EN"
 "http://www.w3.org/TR/2001/REC-SVG-20010904/DTD/svg10.dtd">
<svg version="1.0" xmlns="http://www.w3.org/2000/svg"
 width="1024.000000pt" height="1024.000000pt" viewBox="0 0 1024.000000 1024.000000"
 preserveAspectRatio="xMidYMid meet">
<metadata>
Created by potrace 1.16, written by Peter Selinger 2001-2019
</metadata>
<g transform="translate(0.000000,1024.000000) scale(0.100000,-0.100000)"
fill="#000000" stroke="none">
<path d="M6055 8355 c-16 -9 -55 -40 -85 -69 -47 -45 -60 -53 -87 -51 -18 2
-33 -1 -33 -6 0 -6 4 -8 9 -4 5 3 13 1 16 -5 5 -8 12 -7 23 2 28 23 4 -10 -65
-89 -35 -40 -91 -110 -124 -155 -34 -46 -65 -84 -70 -84 -5 -1 -15 -2 -21 -3
-10 -1 -10 -3 0 -9 7 -5 10 -16 6 -25 -3 -9 -10 -14 -15 -11 -5 3 -8 2 -7 -3
5 -14 -52 -113 -64 -113 -6 0 -9 -3 -6 -6 3 -3 -18 -56 -47 -117 -29 -62 -65
-149 -80 -194 -14 -46 -31 -83 -36 -83 -6 0 -8 -4 -5 -9 4 -5 -5 -54 -18 -109
-13 -55 -28 -126 -31 -156 -6 -42 -11 -56 -24 -57 -10 0 -11 -2 -3 -6 6 -2 12
-21 12 -42 0 -20 -6 -43 -12 -50 -10 -11 -10 -13 0 -7 12 7 17 -5 7 -16 -7 -7
-9 -268 -2 -288 3 -8 10 -60 16 -115 7 -55 14 -111 18 -124 5 -19 3 -22 -8
-16 -12 8 -12 6 -1 -8 8 -9 10 -22 6 -28 -4 -8 -3 -9 4 -5 28 17 8 -59 -44
-170 -58 -123 -155 -353 -194 -461 -12 -35 -25 -61 -29 -59 -3 2 -7 -8 -7 -22
-1 -15 -8 -40 -15 -57 -12 -29 -13 -27 -22 55 -4 47 -9 133 -10 191 -1 59 -5
105 -9 102 -5 -2 -8 15 -8 39 0 129 -54 435 -105 596 -14 45 -23 87 -19 94 4
6 3 8 -3 5 -11 -7 -75 143 -70 164 2 8 2 10 -1 5 -2 -5 -22 24 -43 64 -21 40
-35 78 -32 84 3 6 3 8 -2 4 -4 -5 -29 27 -55 70 -62 104 -110 171 -194 272
-39 47 -69 89 -68 95 2 5 0 7 -4 3 -4 -4 -46 29 -93 75 -47 45 -117 107 -156
136 -38 29 -69 56 -68 60 1 4 -6 7 -15 8 -9 1 -38 9 -65 19 -43 17 -50 18 -75
4 -54 -31 -64 -69 -58 -223 7 -157 27 -320 56 -461 11 -53 17 -104 14 -113 -4
-13 -3 -14 3 -5 6 8 13 -4 22 -40 8 -28 29 -90 47 -137 38 -96 40 -103 21 -76
-11 14 -16 15 -22 5 -5 -9 -4 -11 4 -6 7 5 13 -4 17 -24 4 -18 12 -29 19 -27
7 3 27 -26 49 -71 20 -43 30 -69 23 -60 -8 10 -17 15 -20 12 -7 -7 19 -36 28
-32 3 2 24 -26 46 -61 28 -45 37 -67 30 -74 -14 -14 -14 -27 0 -27 5 0 8 4 4
9 -3 5 -1 12 4 15 5 3 24 -18 42 -47 19 -28 53 -76 77 -105 23 -29 40 -57 37
-63 -4 -5 -3 -8 2 -7 10 3 316 -304 314 -315 0 -4 2 -6 6 -5 14 5 53 -28 45
-37 -4 -5 -2 -5 5 -1 18 10 81 -54 88 -89 5 -24 4 -27 -5 -15 -9 12 -10 5 -6
-29 7 -53 16 -66 17 -25 1 18 5 8 11 -26 5 -30 7 -68 4 -85 -4 -22 -3 -26 4
-15 13 20 14 -69 0 -104 -5 -15 -6 -26 0 -26 4 0 11 8 13 18 12 45 5 -171 -7
-228 -12 -56 -140 -395 -166 -440 -8 -13 -9 -13 -10 0 0 9 -8 2 -20 -15 -22
-33 -18 -49 5 -19 13 17 14 16 4 -13 -6 -19 -15 -30 -22 -26 -6 3 -7 1 -3 -6
11 -17 -207 -501 -226 -501 -5 0 -7 -4 -4 -9 3 -4 -2 -17 -10 -27 -9 -10 -13
-14 -10 -8 16 32 10 720 -7 774 -2 8 -20 80 -39 160 -19 80 -56 196 -81 259
-25 63 -43 119 -40 125 3 6 2 8 -2 3 -11 -9 -76 112 -68 127 3 6 3 8 -2 4 -8
-8 -88 109 -88 129 0 7 -3 11 -7 10 -4 -1 -31 30 -60 68 -29 39 -89 109 -132
156 -42 47 -74 90 -70 94 4 5 2 5 -4 2 -6 -3 -35 15 -65 42 -30 26 -85 71
-124 100 -38 30 -73 59 -77 65 -4 6 -8 7 -8 3 0 -4 -9 -3 -20 3 -11 6 -19 14
-16 18 2 4 -18 7 -44 7 -26 0 -46 -3 -44 -6 2 -4 -3 -9 -11 -12 -7 -3 -22 -21
-31 -39 -15 -28 -16 -52 -11 -173 6 -122 23 -290 42 -405 4 -28 3 -31 -5 -15
-9 18 -9 18 -7 -5 1 -14 8 -24 14 -23 6 1 14 -14 18 -35 4 -20 22 -86 40 -147
19 -63 31 -121 28 -136 -3 -15 0 -30 6 -34 8 -5 10 2 5 22 -11 47 2 23 46 -82
22 -55 52 -120 66 -144 27 -48 29 -55 14 -46 -6 4 -10 -7 -10 -25 0 -18 4 -29
10 -25 6 3 13 -1 16 -9 3 -9 10 -16 15 -16 5 0 4 11 -3 25 -6 13 -15 22 -19
19 -5 -3 -9 0 -9 5 0 27 21 5 68 -73 28 -46 67 -104 87 -130 19 -25 34 -52 32
-58 -1 -7 4 -12 11 -13 18 0 43 -35 35 -48 -3 -6 -1 -7 4 -4 14 9 89 -83 85
-103 -2 -11 -1 -12 6 -2 11 16 70 -55 66 -81 -1 -9 2 -15 7 -11 5 3 6 11 2 17
-7 13 13 -2 59 -42 16 -14 25 -29 21 -40 -3 -10 -2 -12 4 -4 10 14 108 -62
117 -92 9 -33 6 -352 -4 -453 -9 -84 -15 -103 -61 -188 -30 -55 -55 -91 -61
-87 -7 3 -8 1 -4 -6 6 -9 -182 -358 -238 -442 -8 -12 -11 35 -11 175 -1 357
-80 698 -230 997 -20 38 -33 75 -29 81 4 6 3 8 -3 5 -12 -7 -46 49 -38 63 4 6
2 9 -3 8 -6 -2 -33 33 -62 77 -55 84 -137 190 -202 263 -22 24 -36 48 -32 54
4 6 3 8 -3 5 -13 -8 -86 67 -76 78 5 4 3 5 -3 2 -14 -8 -87 66 -77 78 5 4 3 5
-4 1 -7 -3 -30 11 -54 34 -23 22 -44 40 -47 40 -2 0 -32 22 -66 48 -216 171
-318 207 -367 129 -18 -28 -20 -43 -15 -119 3 -47 19 -152 35 -232 16 -79 27
-155 25 -168 -4 -20 -3 -21 4 -3 8 17 10 14 16 -18 4 -20 4 -43 0 -50 -4 -6
-3 -8 1 -4 11 9 87 -212 80 -231 -3 -7 -1 -11 3 -8 9 5 119 -233 114 -246 -1
-5 2 -8 8 -8 11 0 44 -60 33 -60 -5 0 -3 -4 2 -8 6 -4 49 -65 97 -137 48 -71
121 -169 162 -216 41 -48 73 -89 70 -93 -2 -3 -1 -4 2 -1 9 6 210 -187 206
-198 -1 -5 2 -6 7 -2 11 6 134 -79 126 -87 -3 -2 1 -5 8 -5 7 0 34 -12 60 -27
47 -28 61 -41 32 -30 -11 4 -15 0 -15 -16 0 -16 4 -20 15 -16 10 3 15 -1 16
-12 1 -9 5 -3 9 13 8 30 8 30 9 -8 1 -28 -2 -36 -11 -31 -10 6 -10 4 0 -7 26
-28 3 -427 -28 -466 -10 -12 -20 -20 -24 -18 -3 3 -4 2 -1 -1 8 -11 -36 -65
-47 -58 -6 4 -8 3 -5 -3 9 -14 -42 -85 -55 -77 -6 4 -8 3 -4 -4 8 -14 -113
-164 -126 -156 -7 5 -8 2 -3 -5 8 -14 -43 -74 -56 -65 -4 2 -11 -1 -15 -7 -4
-8 -3 -9 4 -5 21 13 13 -5 -24 -50 -20 -25 -41 -41 -48 -37 -6 3 -8 3 -4 -2 4
-4 1 -20 -7 -36 -21 -40 -19 -66 10 -94 29 -30 67 -32 105 -5 42 30 232 246
463 525 115 139 272 280 300 269 8 -3 18 -1 22 5 4 7 -1 9 -12 5 -16 -5 -15
-3 2 11 41 34 105 66 116 59 7 -4 9 -3 6 3 -9 14 33 38 154 93 172 77 257 103
322 97 82 -7 152 -52 152 -97 0 -8 7 -15 15 -15 8 0 19 -10 25 -22 5 -13 13
-23 17 -23 5 0 8 -5 8 -11 0 -5 -6 -7 -12 -3 -9 5 -9 3 1 -9 7 -9 17 -15 21
-12 9 6 66 -66 62 -78 -1 -5 2 -6 7 -3 12 8 33 -18 23 -29 -4 -5 -2 -5 4 -2
14 8 57 -36 47 -48 -5 -4 -3 -6 2 -3 6 3 48 -30 95 -74 47 -44 79 -77 71 -73
-9 6 -12 4 -7 -4 4 -6 13 -10 19 -9 11 3 107 -60 107 -69 0 -2 -5 -1 -12 3 -7
4 -8 3 -4 -5 4 -6 11 -9 16 -6 5 3 37 -13 72 -36 93 -60 308 -163 427 -204
324 -111 783 -135 831 -44 11 20 10 120 -1 113 -11 -6 -40 46 -33 58 4 6 3 8
-3 5 -5 -4 -38 29 -72 72 -114 145 -322 329 -496 439 -38 25 -62 42 -52 38 11
-3 16 -2 12 5 -4 6 -13 8 -20 5 -15 -5 -202 89 -189 96 5 3 4 3 -3 2 -17 -4
-163 58 -158 67 3 4 -4 5 -15 2 -12 -3 -20 0 -20 6 0 7 -4 10 -9 7 -5 -3 -28
1 -51 9 -24 8 -79 24 -124 34 -119 28 -126 31 -72 25 31 -4 46 -2 42 4 -3 6
-39 10 -79 10 -91 0 -238 13 -233 21 2 3 -17 5 -42 4 l-47 -3 60 15 c32 9 65
13 71 11 7 -3 14 -1 16 4 5 14 203 45 473 75 294 32 460 64 585 114 76 30 102
35 123 28 15 -5 27 -12 27 -16 0 -4 8 -7 18 -8 28 -2 114 -28 108 -33 -2 -3
43 -4 102 -3 129 3 233 28 342 83 47 23 86 37 97 34 12 -4 14 -3 6 3 -10 7 0
18 35 43 26 18 52 33 59 33 7 0 11 3 10 6 -3 8 197 207 214 214 8 3 9 6 3 6
-6 1 19 47 56 103 80 121 137 227 185 343 50 121 46 172 -16 194 -46 16 -392
-60 -598 -132 -41 -14 -79 -23 -84 -20 -6 3 -7 1 -3 -5 7 -11 -8 -16 -42 -15
-7 1 -11 -2 -8 -5 4 -3 -24 -21 -61 -40 -38 -19 -80 -43 -95 -54 -16 -11 -34
-16 -40 -12 -7 4 -10 4 -6 0 10 -12 -140 -128 -155 -120 -7 4 -9 3 -5 -1 5 -5
-18 -36 -50 -69 -32 -34 -68 -74 -80 -91 -14 -19 -20 -23 -15 -10 3 11 3 17
-1 14 -4 -4 -8 -15 -11 -25 -2 -11 -21 -53 -43 -94 -21 -41 -44 -90 -50 -108
-9 -27 -23 -38 -77 -63 -42 -19 -75 -28 -88 -24 -16 5 -18 4 -8 -3 23 -16
-152 -50 -406 -77 -417 -45 -695 -105 -960 -207 -57 -22 -108 -36 -114 -32 -7
4 -9 3 -6 -3 4 -6 -5 -14 -20 -18 -15 -3 -46 -15 -70 -26 -23 -10 -45 -19 -49
-19 -12 0 -285 -139 -315 -161 -16 -11 -29 -17 -29 -12 0 4 -5 0 -11 -9 -5
-10 -14 -18 -19 -18 -6 0 3 17 18 39 15 21 30 37 34 35 4 -3 10 1 14 7 4 8 3
9 -4 5 -7 -4 -12 -5 -12 -2 0 15 105 174 112 170 4 -3 5 3 1 12 -5 13 -3 15 7
9 8 -5 11 -4 6 3 -3 6 18 52 49 101 30 50 64 109 75 131 13 25 25 38 32 34 7
-4 8 -3 4 5 -9 15 63 113 77 104 6 -3 7 -2 4 4 -8 13 47 66 58 56 4 -5 5 -3 1
4 -12 22 205 175 434 307 l115 66 185 4 c380 8 729 91 1042 247 65 32 124 56
132 53 8 -3 17 -1 21 5 3 7 0 8 -9 5 -27 -10 -17 5 13 20 16 9 32 12 36 8 5
-4 5 -2 1 5 -8 14 47 46 59 35 5 -4 4 -1 0 7 -6 11 -4 13 9 8 10 -4 15 -3 11
3 -7 11 29 32 40 22 5 -4 5 -2 1 5 -7 13 28 38 54 38 8 0 15 5 15 11 0 7 38
45 85 86 161 142 289 292 305 358 11 45 -24 76 -98 89 -89 15 -371 13 -498 -3
-272 -37 -578 -143 -803 -280 -32 -20 -63 -33 -69 -29 -6 3 -7 1 -3 -5 7 -11
-6 -17 -27 -13 -5 1 -6 -3 -2 -8 7 -12 -29 -33 -40 -23 -5 4 -4 1 0 -7 6 -11
4 -13 -9 -8 -9 4 -15 3 -12 -2 6 -10 -102 -94 -121 -94 -7 0 -11 -3 -10 -7 3
-12 -170 -159 -179 -152 -4 4 -4 2 -1 -4 8 -14 -66 -87 -78 -77 -4 5 -5 3 -2
-3 17 -30 -225 -211 -245 -182 -8 10 -9 10 -5 -2 5 -19 -58 -64 -76 -54 -6 4
-9 4 -5 -1 4 -4 -29 -32 -72 -61 -79 -54 -97 -63 -85 -44 3 6 -1 10 -9 10 -13
0 -12 7 5 48 11 26 25 52 32 57 7 6 13 17 15 25 9 43 96 219 105 213 6 -3 7
-1 3 6 -4 6 34 102 85 214 108 234 127 269 142 260 6 -3 7 -1 3 5 -8 13 28 57
138 169 44 45 84 79 89 76 6 -3 7 -1 3 5 -8 13 64 73 77 65 6 -3 7 -1 3 5 -7
12 33 44 46 36 5 -3 7 0 6 8 -2 7 3 12 10 10 6 -1 11 4 10 10 -2 7 5 12 14 12
10 -1 16 2 13 6 -8 13 54 53 71 46 8 -3 13 -2 10 3 -3 5 31 12 77 15 396 32
657 99 905 232 71 38 86 43 100 32 15 -11 15 -11 4 3 -11 15 -7 20 33 43 25
15 75 49 111 76 36 28 68 50 72 50 4 0 -2 -7 -12 -15 -11 -8 -15 -15 -9 -15
11 0 28 18 28 31 0 14 163 158 171 151 5 -4 6 -3 2 1 -4 5 24 44 61 87 81 94
157 203 232 332 31 54 59 94 63 91 4 -4 4 0 0 10 -3 9 -2 23 4 30 18 22 23 73
11 103 -7 16 -12 32 -11 35 2 9 -39 12 -121 11 -87 -2 -295 -35 -415 -67 -52
-14 -103 -23 -115 -21 -12 1 -15 1 -7 -2 8 -2 -34 -22 -94 -43 -60 -21 -146
-56 -193 -78 -46 -22 -91 -38 -101 -35 -14 5 -15 4 -2 -5 8 -6 10 -11 4 -11
-6 0 -53 -25 -105 -57 -52 -31 -100 -56 -106 -56 -7 0 -11 -3 -8 -5 9 -9 -35
-33 -47 -26 -6 4 -8 3 -5 -3 4 -6 -20 -31 -53 -57 -63 -49 -81 -58 -59 -28 13
15 12 16 -3 3 -10 -7 -16 -17 -13 -20 6 -11 -133 -133 -144 -126 -5 3 -12 1
-16 -5 -3 -5 -1 -10 5 -10 6 0 -10 -18 -35 -40 -25 -22 -43 -40 -40 -40 3 0
-26 -37 -66 -82 -96 -110 -91 -106 -83 -83 4 11 4 17 0 14 -4 -4 -8 -16 -11
-27 -4 -25 -97 -152 -106 -147 -3 2 -6 -1 -6 -8 0 -20 -34 -67 -44 -61 -5 3
-6 -1 -3 -9 6 -16 -132 -147 -155 -147 -8 0 -11 -3 -8 -7 10 -9 -14 -34 -26
-26 -5 3 -7 2 -4 -4 3 -5 -7 -21 -23 -36 l-29 -28 9 28 c48 161 268 687 296
709 7 6 11 14 8 17 -3 3 12 43 33 89 32 68 54 97 117 158 43 41 82 74 87 72 5
-1 8 2 7 7 -2 5 20 35 47 67 101 116 214 268 278 374 35 60 68 106 72 102 5
-4 5 -2 2 4 -4 7 11 49 32 95 176 377 217 833 111 1244 -30 118 -93 167 -165
130z m31 -620 c-4 -213 -29 -365 -87 -531 -40 -116 -109 -265 -120 -259 -4 3
-11 0 -15 -6 -4 -8 -3 -9 4 -5 7 4 12 4 12 -1 0 -10 -89 -150 -137 -216 -31
-41 -37 -46 -52 -35 -14 11 -14 11 -3 -3 11 -14 6 -25 -33 -73 -26 -32 -51
-53 -57 -50 -7 4 -8 2 -4 -4 8 -14 -53 -84 -67 -75 -5 3 -7 1 -4 -4 4 -6 0
-16 -8 -23 -20 -17 -22 -10 -36 144 -23 265 22 557 130 826 49 124 141 296
178 336 12 13 23 28 24 32 0 4 5 6 10 5 4 -2 6 3 4 10 -7 17 63 109 77 101 7
-4 8 -3 4 5 -8 13 58 96 77 96 7 0 12 6 12 13 0 7 16 27 35 46 l35 33 12 -86
c8 -52 11 -161 9 -276z m-1992 -366 c-3 -5 1 -7 8 -4 12 5 144 -118 150 -140
2 -5 6 -9 9 -8 6 2 76 -76 123 -139 16 -21 25 -42 20 -49 -4 -7 -3 -9 3 -6 12
8 37 -26 104 -138 28 -48 52 -100 53 -116 1 -16 6 -32 10 -36 5 -4 6 3 2 17
-10 39 40 -60 74 -144 33 -83 34 -90 21 -82 -5 3 -15 -2 -22 -11 -11 -13 -11
-15 -1 -9 8 5 19 1 28 -10 13 -18 14 -18 8 1 -5 17 -4 17 5 4 19 -29 72 -233
74 -285 1 -29 5 -50 8 -48 4 2 12 -42 18 -99 7 -56 13 -112 15 -124 2 -18 -2
-23 -18 -23 -25 0 -171 142 -159 154 4 4 2 6 -5 4 -17 -4 -153 153 -147 170 3
7 1 11 -4 8 -13 -8 -83 92 -75 106 4 7 3 8 -4 4 -14 -8 -36 30 -26 46 4 6 3 8
-4 4 -19 -11 -110 159 -182 339 -59 146 -111 392 -124 582 l-4 72 24 -15 c13
-9 21 -20 18 -25z m3004 -986 c-69 -112 -118 -174 -130 -167 -7 5 -8 2 -3 -5
9 -15 -63 -93 -78 -84 -6 3 -7 1 -3 -6 11 -17 -65 -85 -77 -68 -6 8 -7 7 -4
-4 6 -17 -30 -56 -114 -122 -47 -37 -66 -47 -53 -25 4 7 3 8 -5 4 -6 -4 -9
-11 -6 -16 8 -12 -102 -83 -116 -75 -7 5 -10 4 -6 -2 4 -6 -16 -22 -43 -37
-28 -15 -50 -24 -50 -19 0 4 -4 3 -8 -4 -10 -16 -158 -84 -242 -111 -87 -29
-261 -69 -332 -77 -56 -6 -58 -5 -59 17 -1 20 -2 21 -6 3 -3 -11 -10 -23 -17
-27 -15 -10 -66 -10 -65 0 3 17 -1 32 -9 29 -4 -1 -7 3 -7 8 0 6 4 9 8 7 5 -1
6 2 2 8 -3 5 12 29 33 52 21 24 52 58 68 77 38 44 256 241 267 241 4 0 5 -4 2
-10 -3 -6 1 -7 10 -3 12 4 13 8 5 13 -8 5 4 20 36 44 36 28 50 33 57 24 6 -9
7 -8 4 4 -4 10 3 22 18 32 29 19 39 20 29 4 -4 -7 -3 -8 5 -4 6 4 9 11 6 16
-7 12 100 71 117 65 8 -3 21 2 29 12 13 16 12 17 -4 4 -9 -8 -20 -11 -23 -8
-9 9 55 39 68 31 6 -4 8 -3 5 3 -8 13 127 78 143 68 8 -5 11 -4 7 2 -13 21
354 142 389 129 8 -3 14 -1 14 3 0 5 33 14 73 21 74 12 100 17 105 19 1 0 -17
-29 -40 -66z m-3556 -512 c-1 -7 2 -9 8 -6 6 4 52 -35 103 -86 51 -51 83 -86
72 -78 -18 13 -19 13 -6 -3 7 -10 17 -16 21 -13 11 7 43 -32 36 -44 -4 -5 -1
-13 5 -17 8 -5 9 -3 4 7 -8 12 -6 12 9 0 13 -11 14 -16 4 -22 -10 -7 -9 -9 4
-9 20 0 57 -46 130 -165 68 -110 91 -155 80 -155 -17 0 -7 -35 16 -60 l24 -25
-13 27 c-6 15 -16 25 -20 22 -5 -3 -6 3 -2 12 5 13 10 9 25 -20 37 -72 79
-188 74 -202 -3 -8 -2 -13 3 -10 11 7 55 -140 47 -160 -4 -9 -2 -12 5 -8 8 5
10 -3 7 -24 -2 -17 -1 -29 2 -27 18 11 54 -315 36 -327 -7 -5 -7 -8 -1 -8 6 0
11 -9 12 -21 1 -12 -3 -18 -10 -16 -7 3 -11 10 -9 16 1 7 -2 10 -7 7 -22 -14
-299 294 -285 316 4 6 2 8 -3 5 -18 -11 -169 236 -156 256 3 5 2 7 -4 4 -12
-7 -96 187 -97 225 -1 14 -4 24 -7 22 -6 -3 -35 88 -63 201 -8 33 -24 125 -35
205 -29 205 -29 201 -17 197 6 -3 10 -10 8 -16z m3232 -973 c-21 -20 -42 -34
-47 -31 -6 3 -7 1 -3 -5 8 -13 -64 -73 -77 -65 -6 3 -7 1 -4 -4 9 -14 -100
-96 -115 -87 -7 5 -8 3 -3 -6 6 -10 4 -12 -9 -7 -10 4 -15 3 -11 -3 9 -14 -71
-61 -92 -54 -14 5 -15 4 -4 -4 11 -8 10 -12 -8 -21 -26 -14 -42 -6 -34 17 7
18 5 17 -17 -12 -8 -11 -10 -17 -3 -13 6 4 14 3 17 -2 12 -19 -213 -129 -389
-189 -134 -46 -264 -77 -458 -107 -17 -3 -26 -1 -22 5 3 6 -1 10 -10 10 -9 0
-14 -4 -11 -9 6 -9 -72 -21 -137 -21 -23 0 -36 4 -32 10 4 6 11 8 16 5 5 -4 9
-2 9 4 0 22 188 183 203 174 6 -3 7 -2 4 4 -9 14 89 86 104 77 7 -4 9 -3 6 3
-8 13 40 46 54 38 5 -4 8 -1 7 5 -4 15 181 122 199 116 9 -4 11 -1 7 6 -5 8
-2 9 9 5 10 -3 17 -2 17 4 0 5 21 19 48 30 236 103 530 169 735 166 l87 -1
-36 -38z m-3982 -36 c26 -18 46 -39 45 -45 -1 -7 3 -11 9 -10 17 3 95 -67 88
-79 -4 -6 -3 -8 3 -5 13 8 56 -37 46 -47 -5 -4 -1 -6 7 -4 8 2 15 -4 15 -12 0
-8 6 -14 12 -13 16 3 114 -107 107 -119 -4 -6 -2 -8 3 -5 12 8 39 -20 29 -30
-3 -3 -6 -1 -6 5 0 7 -4 12 -8 12 -5 0 -9 -6 -9 -14 0 -8 8 -13 18 -11 19 4
43 -23 117 -129 23 -32 39 -63 35 -69 -4 -6 -1 -7 7 -2 10 6 12 4 7 -9 -4 -9
-3 -15 3 -11 5 3 25 -24 46 -61 30 -54 34 -68 23 -75 -11 -8 -9 -9 6 -7 14 2
20 -2 19 -14 -1 -10 2 -16 6 -13 7 4 93 -186 119 -264 14 -42 14 -61 0 -41 -8
12 -9 11 -6 -5 2 -11 8 -19 14 -18 19 4 70 -193 59 -223 -3 -8 -2 -13 3 -10 5
3 12 -20 15 -52 4 -31 10 -65 12 -75 5 -16 -1 -14 -38 9 -118 74 -335 274
-322 296 4 6 3 8 -3 5 -14 -9 -86 80 -77 94 4 7 3 9 -4 6 -13 -9 -85 90 -76
105 4 6 3 8 -3 5 -14 -9 -46 40 -37 55 4 7 3 8 -4 4 -14 -8 -46 50 -36 66 4 7
3 8 -5 4 -17 -11 -165 296 -156 326 4 16 3 19 -3 10 -12 -18 -85 203 -76 231
4 12 2 17 -4 13 -10 -6 -31 70 -56 201 -10 52 -10 71 -2 66 6 -4 32 -22 58
-41z m4592 -617 c-4 -8 -11 -12 -17 -8 -6 3 -7 1 -3 -5 11 -18 -55 -136 -67
-120 -6 9 -7 8 -3 -5 9 -29 -124 -216 -148 -209 -6 2 -8 0 -3 -4 10 -10 -63
-85 -76 -77 -6 3 -7 1 -3 -5 12 -20 -193 -160 -215 -146 -7 4 -9 3 -6 -3 15
-25 -157 -70 -258 -68 -62 1 -162 21 -169 34 -15 24 115 228 136 215 6 -4 8
-3 5 3 -12 19 162 171 181 159 5 -3 18 1 28 10 18 14 17 14 -6 4 -62 -27 19
24 110 70 114 57 238 103 262 97 10 -3 16 -2 13 3 -5 8 110 42 198 59 23 5 43
9 44 10 1 1 0 -6 -3 -14z m-2100 -1244 c150 -31 256 -62 249 -74 -4 -6 -1 -7
6 -2 17 10 152 -45 144 -58 -3 -6 -1 -7 4 -4 6 4 27 0 47 -8 26 -11 34 -19 30
-33 -4 -12 -3 -14 4 -4 7 11 16 11 46 -2 24 -10 35 -20 30 -27 -4 -8 -3 -9 5
-5 24 15 327 -185 315 -207 -4 -7 -3 -9 1 -4 11 10 46 -23 38 -36 -3 -5 -2 -7
4 -4 12 8 48 -17 48 -32 0 -6 4 -11 8 -10 12 1 67 -53 62 -61 -2 -3 1 -12 7
-20 8 -12 9 -11 4 4 -7 19 -6 20 14 1 12 -11 18 -25 15 -34 -3 -8 -3 -12 1 -8
9 9 34 -11 34 -27 0 -18 -243 8 -363 39 -54 14 -100 25 -103 25 -3 0 -2 5 2
12 4 7 3 8 -4 4 -18 -11 -146 35 -130 46 9 6 6 7 -9 3 -24 -6 -175 63 -167 77
3 4 -1 5 -8 3 -8 -3 -55 20 -105 52 -86 55 -166 113 -133 97 8 -4 12 -4 8 0
-3 4 -8 6 -10 4 -8 -7 -97 66 -91 76 3 6 2 8 -2 3 -11 -10 -46 23 -38 36 3 5
1 7 -5 4 -5 -4 -22 8 -38 25 -15 18 -28 32 -30 31 -8 -6 -83 85 -76 92 4 5 2
5 -4 2 -9 -5 -54 42 -54 56 0 6 154 -13 244 -32z"/>
</g>
</svg>
