<?xml version="1.0" standalone="no"?>
<!DOCTYPE svg PUBLIC "-//W3C//DTD SVG 20010904//EN"
 "http://www.w3.org/TR/2001/REC-SVG-20010904/DTD/svg10.dtd">
<svg version="1.0" xmlns="http://www.w3.org/2000/svg"
 width="1024.000000pt" height="1024.000000pt" viewBox="0 0 1024.000000 1024.000000"
 preserveAspectRatio="xMidYMid meet">
<metadata>
Created by potrace 1.16, written by Peter Selinger 2001-2019
</metadata>
<g transform="translate(0.000000,1024.000000) scale(0.100000,-0.100000)"
fill="#000000" stroke="none">
<path d="M4910 6865 c-762 -42 -1464 -177 -2205 -424 -324 -107 -584 -206
-601 -228 -8 -11 -13 -45 -14 -85 0 -109 -3 -108 249 -108 194 0 209 1 213 18
3 10 0 19 -6 20 -52 7 -89 19 -78 25 6 5 12 6 12 4 0 -3 28 3 63 14 34 10 65
19 70 19 4 0 7 -519 7 -1153 0 -1314 -9 -1187 89 -1187 31 0 50 -4 46 -10 -3
-5 7 -3 22 5 20 11 68 14 196 13 92 0 172 3 177 8 5 5 5 15 1 23 -6 10 -45 15
-145 19 l-136 5 0 1144 c0 629 3 1142 7 1140 5 -3 8 5 8 18 0 13 -3 21 -7 18
-13 -8 -9 34 5 45 10 9 105 38 332 102 828 233 1716 340 2505 300 350 -18 641
-51 930 -106 236 -45 467 -101 423 -103 -47 -3 -255 -35 -333 -52 -203 -44
-315 -81 -460 -152 l-85 -42 -745 4 c-410 2 -779 5 -820 6 -41 2 -432 3 -868
4 -597 1 -791 4 -786 13 4 7 3 8 -5 4 -6 -4 -9 -11 -6 -16 3 -5 1 -11 -5 -15
-18 -11 -10 -23 23 -34 20 -6 383 -12 1007 -16 536 -3 1250 -10 1585 -14 651
-9 665 -9 659 0 -7 11 68 40 90 34 15 -5 17 -4 7 3 -11 8 -10 12 8 21 l21 12
0 -1019 -1 -1020 -47 5 c-60 5 -126 -9 -130 -27 -1 -8 14 -25 34 -38 20 -13
33 -19 29 -13 -4 7 9 11 37 11 24 0 50 5 58 10 13 8 16 -2 20 -68 5 -74 6 -77
30 -79 14 0 142 -4 285 -6 149 -3 286 -11 320 -18 81 -17 301 -15 405 4 47 8
125 15 174 15 62 1 92 5 97 14 10 17 -17 28 -50 21 -13 -3 -21 -2 -18 3 3 5
-25 8 -65 6 l-71 -4 6 44 c4 23 13 88 22 143 16 111 19 184 7 202 -14 23 -89
38 -262 56 -28 2 -33 24 -12 46 19 19 40 -2 23 -23 -10 -12 -9 -14 6 -11 10 2
21 4 25 4 4 1 5 8 2 16 -5 12 5 15 60 15 87 0 140 22 161 65 33 71 -17 123
-123 126 -34 1 -62 6 -62 11 0 6 22 8 49 6 27 -1 47 0 45 4 -2 3 9 9 26 13 76
17 116 107 67 153 -21 20 -32 22 -101 18 -42 -2 -80 -7 -84 -11 -4 -4 7 -5 23
-2 26 6 24 4 -10 -12 -22 -10 -55 -34 -74 -52 -27 -27 -32 -29 -21 -10 11 22
10 23 -5 17 -15 -5 -16 -4 -5 9 10 13 15 13 21 3 6 -10 13 -7 29 10 11 12 26
22 33 22 9 0 8 3 -1 9 -14 8 15 24 70 37 35 8 94 65 102 99 5 18 1 36 -10 52
-14 22 -21 25 -61 20 -29 -3 -57 -15 -82 -35 l-38 -30 5 49 c6 67 -11 99 -53
99 -54 0 -103 -55 -120 -134 l-6 -30 -25 31 c-29 37 -76 63 -114 63 -33 0 -55
-36 -52 -86 4 -64 7 -82 11 -78 2 2 11 -5 19 -17 8 -11 31 -33 51 -48 35 -26
51 -51 31 -51 -5 0 -10 5 -10 11 0 5 -4 8 -9 5 -5 -3 -14 1 -21 9 -20 24 -156
20 -197 -5 -40 -24 -51 -61 -28 -96 23 -35 73 -54 173 -64 80 -9 122 -20 72
-20 -14 0 -50 -10 -82 -22 -56 -22 -58 -24 -58 -60 0 -20 5 -40 11 -44 8 -5 8
-9 -1 -14 -8 -5 -7 -9 5 -13 11 -5 14 -3 9 5 -5 8 -1 9 12 4 10 -4 43 -10 72
-13 42 -5 52 -9 52 -24 0 -22 4 -23 30 -9 13 7 21 7 25 0 4 -6 11 -8 16 -5 5
4 9 2 9 -3 0 -5 -33 -13 -72 -16 -40 -4 -93 -12 -118 -17 -32 -7 -46 -7 -48 1
-2 6 -11 -1 -19 -17 -17 -32 -13 -143 12 -298 17 -106 18 -115 5 -95 -5 8 -10
12 -10 8 0 -4 -11 -3 -25 2 -13 5 -26 6 -29 2 -2 -4 -50 -6 -106 -6 -74 1
-105 6 -111 15 -5 8 -9 517 -9 1131 l0 1117 38 11 c98 28 343 71 482 86 151
15 157 15 239 -5 117 -28 121 -25 140 99 16 96 13 98 -186 164 -488 159 -872
229 -1528 275 -175 13 -594 11 -865 -4z m1070 -75 c451 -42 812 -110 1184
-221 94 -28 193 -60 220 -72 48 -20 48 -21 43 -60 -3 -22 -9 -43 -14 -47 -4
-4 -44 3 -88 16 -398 122 -842 208 -1295 251 -265 25 -1011 25 -1290 0 -638
-59 -1280 -191 -1934 -398 -459 -146 -629 -190 -649 -170 -4 4 -7 26 -5 47 l3
39 125 48 c722 276 1437 454 2135 532 190 21 300 30 595 49 113 7 859 -3 970
-14z m538 -1687 l-3 -1117 -40 -1 -40 0 -3 1101 -2 1102 37 15 c21 9 41 16 46
16 4 1 6 -502 5 -1116z m-3723 -88 l0 -1165 -30 -5 c-16 -3 -39 -4 -50 -2 -20
4 -20 12 -20 1157 l0 1152 35 13 c19 7 42 13 50 14 13 1 15 -135 15 -1164z
m4651 -775 c-3 -19 -13 -88 -22 -153 -15 -99 -21 -120 -38 -130 -44 -24 -408
-19 -433 7 -4 4 -43 264 -43 291 0 20 7 20 270 20 l271 0 -5 -35z"/>
<path d="M7586 6189 l-26 -20 0 -382 c0 -219 4 -388 10 -397 6 -9 5 -17 -3
-22 -8 -5 -5 -7 8 -6 11 0 93 0 183 0 l162 -2 -1 -560 c0 -385 -4 -560 -11
-560 -6 0 -6 -6 2 -15 8 -10 11 -48 9 -127 -4 -100 -2 -113 12 -110 9 1 22 -5
29 -13 13 -16 45 -21 36 -6 -4 5 15 4 41 -3 43 -11 77 -9 148 7 11 2 28 0 38
-5 11 -6 23 -6 30 0 7 4 28 9 47 11 19 1 41 8 50 16 9 8 20 12 25 8 4 -5 5 -2
1 5 -5 7 -10 11 -13 8 -3 -3 -15 1 -27 9 -11 8 -40 15 -64 15 -28 0 -41 4 -37
11 4 6 -3 5 -15 -3 -18 -10 -24 -10 -27 0 -3 6 -9 9 -15 6 -12 -7 -38 27 -31
40 4 5 2 6 -4 3 -5 -3 -8 -20 -7 -36 1 -17 -2 -31 -7 -31 -6 0 -9 255 -9 657
1 542 4 655 15 640 11 -16 13 -16 19 -2 3 9 2 14 -3 11 -5 -3 -14 1 -21 9 -11
13 8 15 158 15 165 0 171 1 186 22 14 19 16 75 16 405 0 370 -1 384 -20 403
-19 19 -33 20 -439 20 -408 0 -419 -1 -445 -21z m834 -404 l0 -355 -395 0
-395 0 0 355 0 355 395 0 395 0 0 -355z m-362 -1077 c-3 -647 -3 -653 -23
-650 -11 2 -23 9 -27 15 -5 8 -8 6 -8 -5 0 -9 6 -19 13 -21 7 -4 6 -6 -4 -6
-10 -1 -19 10 -22 27 -10 48 -8 1146 2 1161 5 7 14 10 20 7 6 -4 11 0 11 9 0
9 -4 14 -9 11 -12 -8 -21 19 -21 65 0 38 1 39 35 39 l35 0 -2 -652z"/>
<path d="M7864 6016 c-3 -7 -4 -120 -2 -250 2 -191 1 -233 -9 -219 -12 16 -13
15 -13 -3 0 -21 26 -28 68 -19 21 5 22 10 22 95 l0 90 100 0 c82 0 108 4 141
20 53 28 79 72 79 135 0 65 -26 114 -76 142 -35 20 -53 23 -172 23 -103 0
-134 -3 -138 -14z m286 -86 c30 -30 27 -90 -5 -120 -22 -21 -38 -25 -120 -28
l-95 -4 0 86 0 86 100 0 c87 0 103 -3 120 -20z"/>
<path d="M1925 5590 c3 -6 -5 -14 -18 -19 -14 -5 -34 -25 -45 -43 -57 -91
-131 -409 -152 -649 -14 -151 -5 -210 44 -282 14 -20 21 -39 16 -42 -6 -4 -9
-14 -9 -23 1 -15 2 -15 6 1 6 24 28 21 50 -5 10 -13 25 -24 33 -25 27 -5 16
45 -22 95 -50 67 -58 85 -58 137 0 43 1 45 20 35 11 -6 20 -7 20 -3 0 4 4 2 9
-6 5 -8 17 -16 27 -17 26 -4 53 -44 55 -79 2 -49 -2 -80 -12 -83 -5 -2 -9 -8
-9 -14 0 -6 6 -8 13 -5 9 3 11 -8 8 -42 -4 -43 -5 -44 -12 -16 -5 22 -7 24 -9
10 -1 -11 -2 -23 -1 -27 0 -5 -6 -8 -14 -8 -8 0 -15 3 -15 8 0 8 -143 6 -207
-3 -46 -7 -57 -27 -24 -45 11 -5 65 -10 120 -10 77 0 103 -4 115 -16 9 -8 16
-12 16 -7 0 5 -5 14 -11 20 -8 8 -8 13 0 18 6 3 14 -2 18 -12 6 -16 8 -15 14
7 4 14 7 -52 8 -145 1 -180 9 -215 49 -212 16 1 17 29 15 446 -2 265 -7 449
-13 455 -6 6 -5 16 1 29 8 14 8 18 0 13 -6 -4 -11 -1 -11 6 0 10 -3 9 -10 -2
-6 -9 -5 -17 2 -21 6 -4 4 -10 -7 -16 -12 -7 -19 -27 -23 -62 -2 -28 -8 -51
-13 -51 -5 0 -9 -17 -9 -37 0 -28 3 -34 10 -23 8 13 10 12 10 -3 0 -13 -6 -16
-25 -12 -14 3 -36 7 -50 10 -14 3 -23 10 -20 15 9 15 -2 12 -19 -6 -15 -14
-16 -11 -16 38 0 162 87 542 134 581 11 10 15 16 7 12 -10 -6 -11 -2 -6 16 14
46 23 40 53 -33 79 -192 122 -384 129 -579 4 -105 2 -152 -7 -169 -10 -18 -14
-20 -22 -9 -7 10 -8 8 -3 -7 4 -16 -2 -28 -22 -44 -24 -19 -29 -20 -39 -6 -13
19 -29 22 -17 4 4 -7 6 -44 5 -83 -1 -48 2 -65 8 -55 8 12 10 11 10 -5 0 -35
69 -48 217 -41 71 3 176 6 235 7 101 1 106 2 103 22 -3 11 -7 22 -11 26 -3 3
-109 4 -236 2 -211 -3 -230 -2 -225 13 4 10 1 19 -8 22 -20 8 -19 14 11 49 38
43 62 102 66 162 2 34 7 53 16 53 6 0 12 5 12 11 0 5 -4 7 -10 4 -5 -3 -10 -5
-10 -3 0 2 -7 59 -15 128 -27 237 -127 562 -188 615 -13 12 -22 26 -19 33 2 7
-1 12 -8 12 -6 0 -8 -5 -5 -10z"/>
<path d="M3484 5123 c-14 -15 -16 -30 -10 -118 13 -183 36 -338 53 -357 9 -10
29 -18 44 -18 l28 0 3 -342 c2 -189 1 -349 -1 -357 -3 -10 -27 -13 -110 -11
-58 2 -116 2 -129 2 -30 -2 -18 -22 13 -22 13 0 25 -5 27 -12 3 -7 43 -14 104
-19 146 -11 347 -39 361 -51 7 -6 19 -8 28 -5 8 4 17 1 21 -5 4 -7 9 -6 15 3
5 8 9 10 9 4 0 -11 328 -12 355 -1 10 3 15 -1 16 -12 1 -10 4 -7 8 8 9 31 -2
40 -54 40 -72 0 -147 12 -133 21 10 7 10 9 -3 9 -8 0 -21 -6 -28 -12 -11 -11
-12 -4 -7 37 10 72 10 169 2 252 -8 70 -7 73 15 82 13 4 374 11 802 13 l777 5
0 -142 0 -141 -45 -3 c-31 -1 -45 2 -45 11 0 9 -3 10 -8 2 -4 -7 -46 -13 -97
-16 -98 -4 -123 -12 -106 -32 8 -9 66 -15 188 -21 98 -4 194 -9 213 -10 100
-8 290 -19 323 -19 20 1 37 -2 37 -7 0 -4 12 -4 28 0 15 4 53 7 85 6 47 0 57
2 57 16 0 14 -15 18 -80 24 -49 4 -80 11 -80 19 0 6 -5 4 -10 -4 -8 -13 -10
-13 -10 2 0 9 5 18 11 20 9 3 9 9 0 25 -14 27 -15 267 -1 258 6 -3 10 -1 10 4
0 6 12 11 28 11 15 0 38 7 50 16 20 14 22 23 22 120 0 155 24 144 -325 144
l-285 0 0 50 0 50 73 0 c83 0 97 8 97 60 -1 67 -56 409 -69 424 -12 14 -128
16 -1132 16 -1039 0 -1119 -1 -1135 -17z m101 -54 c10 -16 47 -358 41 -375 -8
-20 -44 -18 -50 4 -3 9 -15 91 -26 182 -11 91 -23 170 -25 177 -6 19 49 30 60
12z m2124 -51 c6 -34 9 -63 8 -65 -2 -1 -463 -4 -1024 -5 l-1021 -3 -6 44 c-3
24 -6 54 -6 67 l0 24 1019 0 1019 0 11 -62z m-1014 -135 c545 -2 996 -3 1003
-4 6 -1 12 -7 12 -13 0 -6 4 -5 9 2 7 12 31 -98 31 -147 l0 -21 -1024 0 -1024
0 -7 28 c-4 15 -8 60 -11 100 -3 56 -1 71 9 65 6 -4 458 -9 1002 -10z m895
-293 l0 -50 -653 0 c-360 0 -756 -3 -880 -7 l-227 -6 0 56 0 57 880 0 880 0 0
-50z m608 -127 l3 -23 -1035 0 c-1014 0 -1036 0 -1036 19 0 11 6 22 13 24 6 3
471 5 1032 4 l1020 -2 3 -22z m-2303 -23 c61 -6 126 -12 145 -13 l35 -2 3 -58
c3 -56 2 -57 -20 -53 -13 3 -99 15 -193 27 -93 12 -176 23 -182 25 -20 5 -15
41 7 57 18 12 18 15 5 20 -8 4 -15 1 -15 -5 0 -6 -3 -9 -6 -5 -3 3 -3 10 0 15
6 10 41 8 221 -8z m2305 -83 l0 -34 -652 -6 c-359 -4 -825 -7 -1035 -7 l-383
0 0 40 0 40 1035 0 1035 0 0 -33z m-2456 -72 c22 -1 61 -6 86 -10 34 -6 40 -9
25 -15 -11 -4 17 -6 61 -6 50 1 86 -4 95 -11 12 -10 15 -42 13 -165 -2 -185
-4 -204 -14 -163 l-8 30 -1 -33 c-1 -31 -3 -33 -36 -30 -19 1 -35 5 -35 8 0 3
-28 5 -62 6 -38 0 -63 5 -66 12 -5 15 -42 16 -42 1 0 -14 -62 -1 -72 15 -11
17 -10 316 1 316 10 0 7 32 -5 52 -5 7 -3 8 6 3 7 -4 31 -9 54 -10z m2328 -92
c-2 -38 -9 -74 -15 -82 -9 -12 -9 -13 1 -7 9 5 12 -13 12 -78 l0 -86 -35 0
c-19 0 -35 3 -35 8 0 4 -36 6 -80 5 -44 -1 -82 2 -85 7 -3 4 -21 4 -40 0 l-35
-8 0 154 0 154 158 0 157 0 -3 -67z"/>
<path d="M3738 4073 c-6 -8 -6 -19 2 -33 10 -20 19 -21 122 -19 83 1 113 -2
120 -12 6 -10 8 -7 4 11 -3 14 -3 19 0 13 7 -17 24 -17 24 0 0 7 -9 18 -19 24
-16 10 -20 9 -24 -5 -3 -12 -5 -11 -6 6 0 12 -7 22 -13 23 -107 5 -201 2 -210
-8z"/>
<path d="M2163 4915 c-1 -47 11 -92 20 -77 5 6 5 16 2 22 -7 11 23 2 43 -13 8
-7 12 -4 12 8 0 15 6 17 36 12 41 -7 77 -34 70 -54 -3 -7 -2 -12 2 -12 24 4
33 -6 47 -53 8 -28 15 -64 15 -80 0 -30 13 -33 41 -8 26 23 26 39 -1 113 -32
90 -85 142 -157 152 -35 4 -61 2 -86 -9 -34 -14 -36 -14 -40 7 -3 15 -4 13 -4
-8z"/>
<path d="M8315 4681 c-50 -23 -103 -78 -115 -119 -5 -20 -5 -30 1 -27 5 4 9 0
9 -8 0 -15 29 -33 31 -19 6 54 54 106 121 128 39 13 55 13 83 4 34 -11 38 -19
36 -65 0 -11 2 -14 5 -7 3 6 12 12 19 12 7 0 16 -6 18 -12 4 -10 6 -10 6 -1 1
6 -9 19 -21 27 -12 9 -19 18 -17 21 12 12 60 -55 66 -91 6 -36 33 -92 33 -67
0 20 67 25 100 8 51 -26 67 -1 25 40 -16 17 -35 25 -57 25 -28 0 -35 5 -45 31
-7 18 -10 36 -6 42 3 6 2 7 -4 4 -5 -4 -23 7 -39 24 -65 68 -166 89 -249 50z"/>
<path d="M7822 4635 c-43 -23 -80 -67 -87 -101 -5 -31 -9 -34 -39 -34 -25 0
-35 -5 -39 -20 -8 -31 17 -43 78 -37 64 7 90 24 70 47 -11 12 -11 21 1 49 9
22 19 31 28 28 8 -3 17 1 20 9 8 20 34 18 39 -3 3 -10 5 1 6 23 1 54 -25 68
-77 39z"/>
<path d="M2938 4513 c-22 -5 -24 -39 -4 -50 8 -4 118 -7 245 -5 l231 3 0 24
c0 14 -3 26 -7 26 -24 4 -451 5 -465 2z"/>
<path d="M8189 4213 c-23 -62 -24 -62 657 -40 12 1 21 8 21 19 2 23 -14 23
-21 1 -2 -10 -4 -4 -3 12 1 17 -3 29 -8 29 -6 -1 -152 -4 -325 -6 -173 -3
-279 -2 -235 2 l80 6 -78 2 c-76 2 -78 1 -88 -25z"/>
<path d="M7560 4181 c-40 -5 -45 -9 -45 -31 0 -14 5 -25 10 -26 6 0 18 -4 27
-8 9 -4 21 -5 27 -2 5 3 62 9 126 12 94 6 119 4 127 -7 8 -11 9 -10 4 4 -3 11
0 17 9 17 16 0 18 9 9 34 -5 14 -25 16 -128 14 -66 0 -141 -4 -166 -7z"/>
<path d="M5609 4155 c-1 -3 -2 -9 -3 -14 0 -5 -3 -12 -6 -14 -3 -3 -160 -9
-348 -12 -189 -4 -353 -8 -365 -10 -20 -3 -477 -14 -662 -16 -44 -1 -88 -5
-97 -11 -21 -10 -23 -39 -6 -56 9 -9 9 -12 0 -12 -7 0 -12 -8 -11 -17 0 -11 3
-13 6 -5 2 6 14 12 24 12 11 0 18 4 15 8 -3 5 1 9 9 9 8 0 11 -5 8 -11 -4 -7
-2 -7 8 1 9 7 100 13 264 17 138 4 286 9 330 11 44 2 196 7 339 11 214 6 260
4 267 -7 6 -10 9 -11 9 -1 0 7 14 12 38 12 22 0 74 3 116 7 81 6 100 19 79 52
-5 9 -9 24 -7 34 2 15 -4 25 -7 12z"/>
<path d="M2906 4051 c2 -14 1 -18 -2 -8 -8 27 -24 20 -24 -10 l0 -28 252 3
c413 4 392 2 396 35 l3 27 -293 1 c-161 1 -302 3 -314 4 -17 2 -20 -3 -18 -24z"/>
<path d="M2564 4062 c3 -5 -108 -12 -247 -16 -139 -3 -322 -11 -407 -16 -85
-5 -235 -11 -332 -12 -98 -2 -178 -6 -178 -9 0 -4 -9 -9 -20 -12 -22 -6 -28
-42 -7 -50 9 -4 9 -6 -1 -6 -31 -2 3 -21 36 -20 29 0 33 2 17 9 -31 12 25 18
235 25 285 8 881 35 918 41 27 4 32 9 32 34 0 33 -16 49 -23 23 -4 -17 -5 -17
-6 0 0 9 -6 17 -12 17 -5 0 -8 -4 -5 -8z"/>
<path d="M8830 3804 c-34 -4 -261 -19 -425 -30 -44 -3 -132 -9 -195 -14 -63
-5 -198 -14 -300 -20 -102 -6 -243 -15 -315 -20 -161 -13 -498 -36 -795 -55
-366 -24 -820 -54 -1055 -70 -514 -35 -659 -45 -815 -55 -91 -6 -232 -15 -315
-20 -188 -13 -559 -36 -775 -50 -220 -13 -300 -19 -455 -30 -71 -6 -272 -19
-445 -30 -173 -11 -371 -25 -440 -30 -130 -10 -228 -16 -415 -25 -162 -8 -175
-11 -175 -40 0 -18 7 -26 25 -31 29 -7 316 10 1100 65 77 6 219 15 315 21 208
12 887 56 1085 70 77 5 219 14 315 20 208 12 455 29 525 35 28 3 118 9 200 15
83 5 350 24 595 40 245 17 648 44 895 60 248 17 511 35 585 40 144 11 306 22
680 45 856 54 819 50 805 94 -6 19 -13 21 -88 19 -45 0 -98 -3 -117 -4z"/>
</g>
</svg>
