<?xml version="1.0" standalone="no"?>
<!DOCTYPE svg PUBLIC "-//W3C//DTD SVG 20010904//EN" "http://www.w3.org/TR/2001/REC-SVG-20010904/DTD/svg10.dtd">
<svg xmlns="http://www.w3.org/2000/svg" version="1.0" width="1024.000000pt" height="1024.000000pt" viewBox="0 0 1024.000000 1024.000000" preserveAspectRatio="xMidYMid meet">
<metadata>
Created by potrace 1.16, written by Peter Selinger 2001-2019
<meta name="Producer" content="Online-Convert"/></metadata>
<g transform="translate(0.000000,1024.000000) scale(0.100000,-0.100000)" fill="#000000" stroke="none">
<path d="M4825 8169 c-11 -6 -26 -23 -34 -40 -7 -16 -17 -26 -23 -23 -6 4 -8 2 -5 -3 4 -6 -5 -37 -19 -69 -107 -241 -124 -477 -48 -687 15 -39 27 -80 27 -89 1 -10 4 -18 8 -18 15 0 77 -129 72 -148 -2 -11 0 -23 5 -26 6 -4 8 3 5 16 -4 19 -2 18 14 -7 108 -169 132 -389 65 -592 -17 -49 -49 -128 -71 -175 -43 -91 -49 -121 -28 -159 19 -37 100 -45 124 -13 8 11 19 18 24 16 6 -1 8 1 5 6 -3 5 19 63 49 129 29 65 63 155 75 199 30 111 37 276 17 383 -9 46 -14 89 -10 95 3 6 2 8 -2 4 -5 -5 -20 20 -34 55 -14 35 -48 102 -74 150 -26 48 -45 92 -41 99 4 7 3 8 -5 4 -13 -8 -40 49 -74 154 -15 50 -20 92 -21 180 -1 166 11 215 93 398 47 103 47 123 -2 153 -35 21 -61 23 -92 8z"/>
<path d="M5535 8168 c-11 -6 -24 -17 -28 -25 -5 -7 -13 -10 -19 -7 -6 4 -8 3 -5 -3 4 -6 -8 -44 -27 -84 -102 -223 -126 -418 -79 -634 15 -65 18 -84 22 -125 1 -11 3 -12 9 -2 9 14 58 -94 54 -117 -2 -7 1 -10 6 -7 12 7 105 -162 98 -180 -3 -8 -2 -13 3 -9 13 8 44 -91 36 -117 -4 -16 -3 -19 3 -10 13 19 25 -131 16 -199 -7 -50 -9 -52 -16 -24 -5 20 -5 14 -2 -18 7 -60 -12 -123 -83 -284 -59 -133 -61 -158 -16 -193 32 -25 85 -26 106 -2 25 27 122 247 145 327 67 232 52 418 -49 634 -21 46 -36 88 -32 94 3 5 1 7 -4 4 -15 -9 -85 126 -77 150 4 13 3 14 -4 5 -7 -11 -10 -10 -16 3 -3 9 -4 21 0 26 3 5 1 9 -4 9 -21 0 -45 125 -46 240 0 136 19 216 89 369 25 54 45 106 45 115 0 26 -55 76 -82 76 -13 0 -32 -6 -43 -12z"/>
<path d="M6228 8161 c-44 -35 -109 -174 -144 -311 -8 -30 -17 -109 -20 -175 -4 -66 -12 -127 -18 -135 -10 -13 -9 -13 7 -1 15 12 17 10 17 -21 0 -19 9 -69 20 -112 10 -42 17 -84 14 -94 -5 -15 -4 -15 6 -2 10 13 11 11 7 -8 -3 -12 -2 -20 2 -18 11 7 53 -83 45 -96 -4 -6 -3 -8 3 -5 5 3 28 -26 51 -66 22 -40 37 -74 31 -75 -5 -2 0 -11 10 -20 26 -22 57 -118 72 -223 10 -67 10 -104 1 -168 -14 -100 -67 -261 -116 -355 -38 -72 -39 -102 -7 -140 41 -47 106 -38 137 19 10 19 22 31 27 28 6 -3 7 -1 3 5 -9 14 25 83 37 75 6 -3 7 -1 3 6 -4 6 8 55 27 109 19 53 40 131 48 172 25 146 10 347 -36 456 -8 20 -12 41 -8 48 3 6 3 8 -2 4 -8 -7 -62 89 -139 247 -105 216 -102 448 9 683 54 113 56 143 16 171 -36 26 -71 27 -103 2z"/>
<path d="M7413 6109 c-51 -4 -143 -18 -204 -29 -92 -17 -114 -19 -121 -8 -8 10 -9 10 -6 -1 3 -11 -28 -25 -111 -53 -64 -22 -157 -59 -208 -82 -50 -24 -94 -42 -97 -38 -3 3 -6 0 -6 -6 0 -11 -120 -88 -132 -84 -5 1 -8 -2 -8 -7 0 -5 -21 -25 -47 -43 -27 -19 -73 -58 -105 -86 l-56 -52 -1737 -1 c-1883 0 -1771 3 -1809 -53 -9 -14 -16 -37 -16 -51 0 -14 -6 -25 -12 -25 -9 0 -8 -3 2 -10 11 -7 15 -30 15 -94 0 -46 4 -82 9 -79 4 3 7 -13 4 -35 -2 -22 -1 -39 2 -37 8 5 34 -150 34 -197 0 -21 3 -33 7 -27 3 6 10 -6 13 -26 4 -20 10 -44 13 -52 5 -12 2 -14 -8 -9 -8 4 -6 1 5 -8 12 -9 17 -23 13 -36 -3 -11 -2 -18 2 -16 3 3 20 -38 37 -90 23 -71 27 -91 15 -82 -9 7 -6 1 6 -12 28 -32 76 -139 69 -156 -3 -7 1 -17 8 -21 23 -14 67 -99 60 -119 -4 -12 -3 -15 3 -7 13 18 103 -138 97 -168 -3 -19 -3 -20 4 -6 7 16 12 12 40 -27 18 -25 30 -51 26 -58 -4 -6 -3 -8 4 -4 6 3 21 -8 33 -26 13 -18 35 -48 51 -66 16 -18 26 -38 22 -43 -3 -5 -1 -8 4 -7 6 2 59 -47 119 -108 59 -61 135 -133 168 -160 32 -27 67 -55 77 -63 14 -12 15 -18 5 -30 -10 -14 -10 -14 5 -3 15 12 22 11 47 -8 17 -11 30 -26 28 -33 -1 -7 4 -11 11 -9 12 2 127 -61 142 -77 8 -10 232 -117 282 -136 26 -10 46 -20 44 -24 -2 -3 6 -7 17 -7 24 -2 25 -2 142 -37 66 -19 80 -27 78 -43 -1 -18 -1 -18 11 -1 10 13 21 15 45 11 17 -4 31 -11 31 -16 0 -5 4 -7 9 -4 5 3 55 -2 112 -11 78 -13 166 -17 354 -17 219 0 265 3 370 23 187 36 179 35 170 21 -5 -9 -4 -11 4 -6 6 4 9 11 7 15 -3 4 23 16 57 25 189 52 484 197 636 312 24 19 48 31 52 28 5 -3 8 -1 7 3 -2 5 26 34 62 63 84 71 210 196 290 290 35 41 68 74 73 72 5 -1 6 2 2 7 -3 6 14 36 39 68 94 124 192 302 275 499 41 97 47 105 134 185 50 46 95 83 100 81 5 -1 6 2 2 7 -3 6 9 27 27 48 130 148 228 301 319 495 20 43 40 74 44 70 5 -4 5 -2 1 5 -3 6 7 45 23 85 35 90 84 249 105 346 20 90 8 129 -48 156 -43 20 -249 29 -393 15z m267 -166 c0 -18 -32 -140 -49 -192 -58 -175 -158 -394 -174 -384 -6 3 -7 2 -4 -4 7 -11 -59 -121 -119 -200 -39 -52 -52 -66 -39 -44 5 10 4 12 -4 7 -6 -4 -9 -11 -6 -15 13 -22 -225 -259 -246 -245 -7 4 -9 3 -6 -3 9 -14 -29 -47 -43 -38 -6 3 -9 2 -8 -5 2 -6 -10 -18 -27 -28 -16 -9 -32 -20 -33 -25 -2 -4 -8 -5 -13 -1 -5 3 -9 1 -9 -5 0 -15 -108 -73 -121 -65 -7 4 -9 3 -6 -3 7 -11 -8 -19 -118 -65 -38 -16 -75 -26 -83 -23 -7 2 -10 0 -7 -5 3 -6 4 -10 2 -10 -2 0 -49 -13 -103 -29 -55 -16 -131 -36 -170 -45 -39 -9 -80 -18 -90 -22 -15 -4 -13 0 7 18 14 14 30 32 35 40 21 37 187 207 197 201 5 -3 7 -2 4 4 -6 9 74 96 87 94 3 -1 6 2 6 7 2 21 235 229 252 224 5 -1 7 1 4 6 -8 13 82 84 96 76 6 -4 8 -3 5 3 -8 13 70 86 84 78 5 -4 8 -3 7 2 -1 4 20 29 46 55 42 41 47 51 41 75 -10 42 -44 73 -80 73 -34 0 -58 -14 -129 -77 -26 -24 -52 -40 -57 -37 -5 3 -8 1 -7 -4 4 -13 -241 -222 -255 -219 -6 1 -11 -4 -12 -11 0 -16 -175 -181 -189 -179 -6 1 -10 -4 -9 -10 4 -16 -118 -144 -129 -137 -5 3 -7 1 -6 -4 2 -6 -23 -42 -56 -81 -51 -61 -61 -69 -75 -59 -14 11 -14 11 -4 -2 9 -12 4 -25 -28 -64 l-39 -49 5 69 c6 74 37 228 62 309 43 138 147 350 165 338 7 -4 8 -1 4 6 -9 14 42 93 54 86 4 -3 7 1 6 9 -2 20 106 147 183 215 88 78 212 163 229 156 7 -2 11 -1 8 4 -8 13 103 74 121 67 9 -4 11 -2 7 6 -5 8 -2 9 10 5 9 -4 15 -3 11 2 -10 17 244 106 276 98 10 -3 17 -2 14 3 -6 10 168 44 200 38 13 -3 22 -1 19 3 -2 4 28 10 68 12 152 7 238 7 238 0z m-4450 -515 c0 -10 -4 -17 -8 -14 -5 3 -9 -1 -9 -9 0 -8 4 -12 8 -9 4 2 10 -15 13 -38 20 -166 30 -225 53 -313 14 -55 25 -111 24 -124 0 -14 2 -21 6 -18 9 9 55 -104 49 -119 -3 -7 2 -15 11 -18 8 -4 13 -13 9 -21 -3 -8 -2 -15 3 -15 4 0 24 -31 44 -69 25 -48 33 -71 24 -74 -7 -3 -5 -6 5 -6 16 -1 35 -36 30 -54 -1 -5 2 -6 7 -3 13 8 54 -61 45 -76 -4 -7 -4 -10 1 -6 10 9 77 -71 69 -83 -3 -5 2 -12 10 -15 9 -3 13 -11 9 -17 -3 -5 -1 -7 5 -3 6 3 20 -6 32 -21 48 -64 201 -209 283 -271 48 -36 87 -69 87 -74 0 -4 6 -7 13 -6 6 2 11 -3 9 -10 -1 -8 2 -11 7 -7 6 3 32 -8 58 -24 26 -16 87 -49 135 -73 49 -25 85 -48 80 -53 -4 -5 -1 -5 6 -1 7 4 43 -4 80 -18 522 -195 1105 -135 1559 159 45 30 85 50 89 47 4 -4 4 -1 0 6 -5 8 3 17 23 25 17 7 28 17 24 22 -5 4 0 5 9 2 10 -3 17 -3 16 1 -4 11 221 230 226 220 2 -5 3 -3 2 4 -2 7 20 42 47 78 46 60 54 66 121 87 39 13 78 20 86 17 8 -3 11 -2 7 2 -3 4 29 22 73 39 43 18 104 46 134 63 31 17 56 28 56 27 0 -2 -11 -25 -25 -52 -27 -49 -48 -69 -65 -58 -6 3 -7 -1 -4 -10 5 -13 9 -13 22 -3 16 13 -28 -71 -53 -102 -7 -8 -15 -22 -18 -30 -8 -23 -107 -156 -107 -145 0 6 -8 -6 -18 -25 -10 -19 -23 -34 -31 -32 -7 1 -10 -2 -7 -7 17 -27 -319 -351 -346 -334 -6 3 -8 1 -4 -5 8 -14 -50 -55 -65 -46 -7 4 -9 3 -5 -4 7 -12 -149 -109 -264 -164 -101 -48 -257 -105 -350 -129 -100 -26 -322 -57 -445 -62 -155 -6 -471 26 -458 46 4 6 1 7 -6 3 -16 -10 -142 14 -135 25 3 5 -1 6 -9 3 -17 -6 -240 64 -245 77 -2 5 -7 7 -11 4 -27 -16 -470 243 -455 267 4 6 3 8 -3 5 -22 -13 -289 236 -276 257 3 5 2 6 -4 3 -19 -12 -207 229 -198 253 4 8 3 11 -1 7 -13 -13 -51 44 -122 182 -120 232 -197 448 -232 651 -15 85 -40 260 -40 282 0 22 22 26 178 26 125 0 132 -1 132 -20z m1475 -28 c-27 -27 -53 -46 -58 -43 -6 3 -7 2 -4 -4 8 -12 -87 -106 -97 -96 -4 5 -6 1 -4 -7 2 -9 -3 -14 -12 -12 -8 2 -12 0 -7 -4 9 -10 -92 -114 -111 -114 -7 0 -11 -4 -8 -9 8 -12 -124 -132 -138 -124 -6 3 -8 3 -4 -2 12 -13 -12 -47 -28 -41 -9 3 -12 1 -9 -4 9 -14 -52 -73 -66 -64 -8 4 -9 3 -5 -4 7 -11 -50 -69 -64 -65 -5 1 -14 -5 -22 -15 -12 -16 -11 -16 7 -2 11 8 2 -5 -19 -28 -22 -22 -44 -38 -49 -35 -6 3 -7 2 -4 -4 7 -11 -126 -146 -136 -138 -4 3 -5 2 -2 -2 8 -10 -47 -63 -58 -56 -6 3 -7 2 -4 -4 4 -5 -7 -22 -22 -37 -28 -27 -30 -27 -40 -8 -6 11 -7 23 -3 27 4 5 1 5 -6 1 -7 -4 -15 0 -19 11 -4 10 -9 20 -13 23 -15 12 -72 103 -118 190 -47 87 -134 322 -146 395 -3 17 -10 54 -16 83 -5 29 -13 95 -16 147 l-7 94 678 0 679 0 -49 -49z m1429 6 c-14 -22 -39 -65 -56 -93 -16 -29 -33 -53 -37 -53 -4 0 -8 -6 -8 -12 0 -7 -17 -47 -37 -89 -20 -42 -36 -82 -36 -88 0 -7 -5 -9 -12 -5 -6 4 -8 3 -5 -3 4 -6 -4 -41 -17 -79 -13 -38 -34 -113 -46 -167 -18 -80 -25 -95 -36 -86 -8 6 -11 16 -7 22 3 5 2 7 -4 4 -11 -7 -126 106 -118 116 3 4 2 5 -2 2 -10 -8 -243 227 -236 238 3 6 2 7 -4 4 -13 -8 -66 47 -56 57 5 4 3 6 -4 4 -6 -1 -74 59 -150 134 l-139 137 518 -1 518 -1 -26 -41z m-1044 -175 c0 -8 3 -11 7 -7 10 9 143 -125 136 -137 -3 -6 -2 -7 4 -4 11 7 96 -76 88 -86 -3 -4 -2 -5 2 -2 11 8 43 -27 36 -39 -3 -6 -2 -8 2 -3 11 10 46 -23 38 -36 -3 -5 -2 -7 4 -4 5 3 44 -29 87 -72 43 -43 74 -81 70 -83 -5 -3 -4 -4 2 -2 14 3 66 -50 59 -59 -3 -4 -2 -5 2 -2 10 8 163 -147 156 -158 -3 -6 -2 -7 4 -4 6 4 19 -4 30 -16 16 -17 22 -42 27 -101 8 -105 27 -128 103 -124 29 2 53 6 53 9 0 4 19 9 43 13 23 4 76 13 117 20 l74 14 -108 -104 c-96 -92 -142 -127 -120 -92 4 7 3 8 -5 4 -6 -4 -9 -11 -6 -16 8 -13 -108 -91 -125 -85 -8 4 -11 3 -7 -1 8 -8 -64 -57 -102 -69 -18 -5 -22 -4 -16 5 5 9 4 11 -4 6 -6 -4 -9 -11 -6 -15 6 -11 -111 -63 -202 -90 -161 -48 -425 -82 -461 -60 -16 10 -23 10 -36 0 -14 -12 -16 43 -18 575 -2 324 -2 661 0 748 l3 159 34 -33 c19 -19 35 -41 35 -49z m-230 -673 l0 -721 -55 7 c-96 11 -245 51 -367 97 -61 24 -76 34 -72 47 5 14 4 15 -5 2 -8 -12 -22 -8 -88 28 -43 23 -77 47 -75 53 1 6 -2 8 -8 4 -14 -9 -102 54 -94 67 4 7 2 8 -5 4 -7 -5 -26 3 -44 17 -52 39 -161 139 -170 154 -11 17 20 56 37 46 6 -3 7 -2 3 2 -10 11 123 146 136 138 6 -3 7 -2 4 4 -9 15 771 783 789 776 12 -4 14 -106 14 -725z"/>
</g>
</svg>
