<?xml version="1.0" standalone="no"?>
<!DOCTYPE svg PUBLIC "-//W3C//DTD SVG 20010904//EN"
 "http://www.w3.org/TR/2001/REC-SVG-20010904/DTD/svg10.dtd">
<svg version="1.0" xmlns="http://www.w3.org/2000/svg"
 width="1024.000000pt" height="1024.000000pt" viewBox="0 0 1024.000000 1024.000000"
 preserveAspectRatio="xMidYMid meet">
<metadata>
Created by potrace 1.16, written by Peter Selinger 2001-2019
</metadata>
<g transform="translate(0.000000,1024.000000) scale(0.100000,-0.100000)"
fill="#000000" stroke="none">
<path d="M5817 8616 c-14 -11 -375 -13 -2072 -13 -1638 0 -2060 -2 -2079 -13
-46 -24 -50 -50 -54 -290 -1 -124 -2 -315 -2 -425 1 -110 1 -292 0 -405 0
-113 0 -212 0 -220 0 -8 0 -42 0 -75 0 -33 0 -73 0 -90 1 -126 2 -300 1 -350
-1 -33 -1 -105 -2 -160 -1 -55 -2 -128 -3 -163 -1 -35 0 -65 2 -67 5 -4 5 -71
2 -210 -1 -44 1 -99 4 -122 3 -25 2 -43 -4 -43 -6 0 -6 -9 0 -24 5 -13 6 -26
3 -29 -4 -5 -6 -138 -3 -217 1 -8 -1 -40 -2 -70 -2 -30 0 -66 4 -79 5 -13 5
-29 1 -35 -5 -6 -7 -81 -6 -166 4 -235 4 -238 2 -336 0 -51 2 -102 6 -114 4
-12 3 -20 -1 -17 -5 3 -8 -23 -7 -56 7 -180 9 -1268 2 -1247 -6 23 -7 23 -8 3
-1 -12 3 -24 8 -27 12 -8 11 -216 0 -216 -5 0 -4 -11 1 -25 6 -15 10 -344 9
-835 0 -467 4 -817 9 -827 5 -10 8 -24 6 -31 -1 -7 0 -9 2 -4 3 5 22 5 43 -1
46 -12 95 4 114 37 8 14 14 147 19 431 4 266 12 458 23 546 20 171 68 365 134
539 59 153 162 356 180 352 7 -1 10 2 6 8 -11 18 87 150 193 261 188 197 420
327 664 373 237 45 512 25 823 -60 158 -44 257 -82 248 -97 -3 -6 -1 -7 6 -3
15 10 83 -13 76 -25 -4 -5 2 -6 11 -2 12 4 15 3 10 -5 -4 -7 -2 -10 7 -7 28
11 322 -139 310 -158 -3 -6 -1 -7 5 -3 29 17 306 -202 299 -237 -1 -7 3 -11
10 -10 33 7 247 -356 228 -387 -3 -5 0 -10 6 -12 6 -2 12 -15 12 -30 1 -14 5
-24 8 -22 8 5 60 -166 54 -176 -3 -5 0 -10 6 -12 6 -2 11 -22 12 -45 1 -22 5
-39 8 -38 5 4 51 -172 55 -210 1 -11 5 -28 9 -38 4 -9 4 -24 1 -33 -4 -9 -2
-13 5 -8 9 5 10 -4 5 -32 -4 -25 -3 -34 2 -25 12 17 66 -207 56 -235 -4 -13
-3 -15 3 -6 12 15 48 -142 37 -160 -4 -6 -3 -8 3 -5 12 8 57 -188 47 -204 -4
-7 -3 -9 3 -6 5 3 19 -38 33 -99 33 -151 78 -192 160 -149 39 20 49 62 34 140
-10 50 -120 530 -140 611 l-6 24 1523 0 c1028 0 1536 4 1562 11 22 6 44 21 55
37 16 25 17 191 15 3061 l-3 3035 -28 29 -28 28 -1362 2 c-1105 1 -1362 4
-1358 14 6 16 6 16 -17 -1z m2611 -265 c3 -47 1 -53 -14 -47 -12 5 -15 2 -10
-10 3 -8 6 -21 7 -27 0 -7 4 -3 9 8 5 13 9 -26 9 -105 0 -112 -1 -123 -14
-106 -16 21 -18 15 -8 -22 3 -15 8 -19 13 -12 4 6 8 -16 9 -50 1 -34 -3 -68
-9 -75 -7 -9 -7 -21 0 -39 13 -35 13 -126 0 -126 -5 0 -10 -7 -10 -16 0 -8 5
-12 10 -9 6 3 10 -5 10 -19 0 -14 -5 -28 -10 -31 -5 -3 -10 -1 -10 6 0 7 -3 9
-7 6 -3 -4 1 -15 10 -24 20 -23 21 -153 0 -153 -18 0 -17 -25 2 -44 19 -19 18
-116 -1 -116 -7 0 -10 -8 -7 -21 4 -16 8 -17 14 -7 6 9 9 2 9 -19 0 -20 -7
-36 -17 -42 -15 -9 -16 -10 -2 -11 14 0 16 -26 15 -230 0 -199 -2 -230 -16
-231 -13 0 -13 -1 0 -7 21 -10 25 -82 4 -82 -8 0 -12 -5 -9 -10 4 -6 11 -8 16
-5 5 4 9 -9 8 -27 0 -18 -3 -27 -6 -20 -2 6 -9 12 -14 12 -14 0 -11 -30 4 -35
14 -6 20 -65 6 -65 -5 0 -9 5 -9 12 0 6 -2 9 -5 6 -4 -3 -3 -18 1 -33 5 -20 9
-23 15 -13 5 7 9 8 9 3 0 -6 -6 -17 -12 -24 -9 -9 -9 -12 -1 -7 8 4 10 -16 8
-76 -5 -97 -6 -108 -15 -108 -4 0 -7 -7 -7 -15 0 -8 6 -15 12 -15 13 0 13 -35
0 -47 -4 -5 -5 -2 -1 5 4 6 2 12 -3 12 -17 0 -13 -27 4 -34 8 -3 15 -10 15
-16 0 -6 -5 -8 -11 -4 -8 5 -8 1 0 -14 15 -27 14 -32 -4 -32 -17 0 -20 -16 -6
-24 5 -4 12 0 14 6 3 7 6 -20 6 -60 1 -58 -2 -74 -15 -79 -15 -5 -15 -7 0 -15
20 -11 21 -137 2 -144 -7 -3 -13 -11 -13 -19 0 -8 4 -12 8 -9 17 10 20 -18 3
-32 -18 -13 -18 -14 -1 -8 16 6 18 -1 16 -85 -1 -50 -5 -91 -10 -91 -5 0 -9 5
-9 12 0 6 -3 9 -6 5 -9 -8 6 -48 16 -42 5 3 8 -8 8 -25 -1 -25 -3 -28 -16 -18
-13 11 -14 9 -7 -12 4 -14 10 -27 14 -30 13 -11 11 -48 -3 -53 -10 -4 -13 -13
-9 -23 6 -16 7 -16 14 2 4 11 7 -16 6 -61 -2 -57 -6 -79 -15 -77 -7 1 -12 -2
-12 -8 0 -5 6 -10 14 -10 11 0 13 -36 12 -192 -1 -149 -4 -192 -13 -190 -18 3
-16 -17 1 -24 16 -6 21 -144 5 -144 -5 0 -9 -5 -9 -11 0 -5 5 -7 10 -4 6 4 10
-6 10 -24 0 -16 -5 -33 -12 -37 -7 -4 -8 -3 -4 4 4 7 2 12 -4 12 -6 0 -10 -8
-8 -17 2 -10 9 -17 15 -16 7 2 11 -10 11 -28 -1 -21 -5 -28 -15 -25 -7 3 -13
-1 -13 -9 0 -8 6 -15 13 -15 9 0 13 -36 14 -142 2 -118 0 -144 -13 -159 -9
-10 -14 -24 -11 -31 4 -8 6 -7 6 5 2 34 21 16 21 -19 0 -29 -3 -34 -13 -26
-10 8 -13 5 -15 -14 -2 -25 13 -33 21 -11 3 6 6 -3 6 -22 1 -25 -2 -32 -14
-27 -10 4 -15 -1 -15 -15 0 -11 4 -18 9 -15 5 3 11 -9 15 -27 9 -50 6 -196 -5
-202 -5 -4 -9 2 -9 11 0 10 -3 15 -6 11 -9 -8 6 -48 16 -42 5 3 9 -26 9 -65 0
-46 -4 -70 -11 -70 -9 0 -9 -3 0 -12 14 -14 16 -78 2 -78 -5 0 -10 -5 -10 -11
0 -5 4 -8 9 -4 6 3 9 -23 9 -61 0 -46 -4 -67 -14 -71 -8 -3 -11 -9 -8 -14 3
-5 9 -7 14 -4 10 6 14 -744 4 -770 -5 -13 -8 -14 -15 -3 -6 9 -9 5 -9 -13 l0
-25 -192 3 c-106 2 -240 3 -298 2 -58 0 -161 0 -230 1 -69 1 -136 1 -150 1
-55 0 -608 0 -655 0 -27 0 -52 0 -55 0 -8 -2 -714 -2 -725 -1 -5 1 -35 1 -65
1 -408 -8 -593 -6 -597 6 -3 7 -9 11 -13 8 -10 -6 -72 244 -64 256 3 5 1 9 -4
9 -5 0 -17 28 -25 62 -12 48 -13 64 -4 70 8 5 7 8 -5 8 -10 0 -19 12 -23 33
-13 60 -77 222 -132 332 -121 241 -265 402 -496 553 -42 27 -74 52 -71 55 3 3
-1 4 -8 4 -7 -1 -84 34 -172 78 l-159 79 7 98 c8 127 23 198 49 226 19 20 30
22 117 22 123 0 200 14 270 50 168 87 241 241 260 552 4 75 11 141 14 147 4 6
30 21 57 32 84 37 119 114 98 217 -6 31 -12 68 -12 82 0 14 -2 19 -4 12 -6
-16 -139 199 -154 248 -6 19 -14 100 -19 180 -10 158 -27 253 -66 372 -14 43
-22 83 -18 90 4 7 3 10 -1 5 -5 -4 -32 39 -62 94 -29 56 -72 126 -94 156 -263
340 -837 442 -1293 229 -96 -44 -200 -109 -248 -154 -16 -14 -28 -23 -28 -19
0 4 -16 -11 -36 -33 -20 -22 -39 -38 -42 -36 -3 3 -12 -7 -21 -23 -9 -16 -44
-66 -79 -111 -35 -46 -85 -127 -111 -181 -27 -54 -52 -95 -56 -91 -5 4 -5 2
-1 -5 3 -6 -5 -50 -18 -96 -47 -161 -55 -372 -20 -536 8 -40 13 -80 10 -88 -3
-8 -2 -12 3 -9 5 3 12 -6 15 -22 12 -47 68 -194 98 -257 15 -33 26 -65 23 -73
-2 -7 -1 -11 4 -8 5 4 25 -23 45 -59 39 -71 42 -80 24 -69 -7 4 -8 3 -4 -5 4
-6 11 -9 16 -6 11 7 22 -24 13 -37 -3 -6 -2 -8 4 -5 6 4 22 -15 37 -42 28 -52
33 -77 14 -65 -7 4 -8 3 -4 -5 4 -6 11 -9 16 -6 11 7 33 -51 24 -66 -4 -7 -3
-10 3 -6 11 7 25 -43 38 -130 7 -47 -9 -142 -33 -188 -8 -16 -43 -57 -76 -91
-47 -47 -85 -72 -161 -109 -239 -114 -328 -161 -400 -211 -42 -30 -81 -51 -87
-48 -6 4 -8 3 -5 -3 8 -13 -107 -115 -118 -105 -5 4 -5 2 -2 -4 3 -6 -11 -28
-32 -48 -28 -27 -40 -34 -45 -24 -4 10 -5 9 -4 -2 3 -22 -21 -62 -33 -55 -5 4
-8 3 -7 -2 4 -10 -108 -164 -114 -158 -3 3 -5 -1 -5 -8 0 -6 -20 -43 -43 -82
-41 -67 -123 -235 -143 -295 -3 -8 -6 1138 -6 2547 -1 2041 2 2562 12 2566 6
2 1495 3 3307 3 l3295 -1 3 -54z m-4303 -1486 c136 -26 326 -110 309 -137 -4
-6 -3 -8 4 -4 13 8 77 -58 98 -103 32 -67 13 -178 -49 -284 -32 -54 -123 -140
-139 -131 -6 4 -8 3 -5 -4 4 -5 -13 -22 -37 -36 -49 -29 -61 -32 -50 -14 4 7
3 8 -5 4 -6 -4 -9 -11 -6 -16 5 -8 -112 -83 -132 -83 -7 0 -11 -3 -11 -6 1 -3
-24 -32 -56 -64 -112 -114 -159 -264 -136 -437 7 -52 13 -109 14 -127 1 -17 5
-35 9 -39 4 -5 6 0 2 11 -3 11 2 4 11 -15 39 -81 22 -207 -42 -318 -34 -57
-84 -113 -95 -106 -5 3 -8 0 -7 -7 4 -16 -90 -79 -108 -72 -8 3 -14 1 -14 -5
0 -32 -254 -50 -346 -24 -39 11 -43 16 -64 75 -13 34 -70 154 -128 267 -63
122 -105 215 -104 230 1 17 -1 21 -7 12 -12 -19 -76 156 -95 259 -37 204 -30
351 25 522 33 103 128 274 149 269 6 -1 9 2 6 7 -7 10 55 86 113 139 145 134
342 222 556 251 83 11 242 5 340 -14z m595 -587 c7 -26 9 -55 6 -64 -3 -8 -2
-13 3 -9 13 7 24 -107 25 -247 1 -65 3 -113 5 -106 6 17 50 -132 44 -151 -3
-11 -2 -13 4 -3 7 9 13 5 23 -15 8 -16 27 -47 42 -70 30 -45 35 -58 16 -47 -7
4 -8 3 -4 -5 4 -6 11 -9 16 -6 11 7 40 -57 40 -88 0 -27 -20 -40 -47 -30 -10
4 -14 2 -9 -5 4 -6 -3 -16 -16 -23 -22 -11 -72 -59 -63 -59 3 0 0 -12 -6 -27
-6 -16 -15 -92 -20 -171 -11 -182 -23 -252 -60 -329 -52 -109 -123 -143 -295
-143 -130 0 -191 -13 -236 -50 -62 -51 -94 -142 -107 -308 -5 -69 -9 -86 -21
-84 -69 16 -241 70 -234 74 5 3 3 3 -4 1 -8 -2 -58 6 -112 17 -129 26 -369 52
-442 48 -61 -3 -68 1 -41 23 25 21 72 127 79 178 9 69 14 81 33 81 10 0 20 -3
23 -6 11 -11 144 -12 228 -2 255 31 445 193 526 451 18 57 18 57 57 57 71 0
118 72 85 133 -6 12 -37 47 -68 77 -72 70 -102 142 -103 250 -1 94 23 169 71
222 47 52 119 101 135 92 6 -4 9 -3 4 1 -6 8 72 65 89 65 3 0 38 24 77 54 81
61 155 146 193 222 31 64 49 65 64 2z"/>
<path d="M5815 8150 c12 -5 -63 -9 -190 -9 -192 -1 -213 -3 -243 -21 -18 -11
-37 -32 -42 -46 -6 -15 -10 -265 -10 -640 0 -338 -4 -613 -8 -610 -5 3 -9 -1
-9 -9 0 -8 4 -12 9 -9 4 3 8 -464 9 -1038 1 -1839 7 -2822 16 -2852 5 -16 22
-39 37 -50 25 -19 41 -21 196 -21 92 0 167 -2 165 -5 -4 -7 101 -4 168 4 31 4
58 3 61 -2 3 -5 26 -6 50 -2 28 4 43 3 39 -3 -3 -5 4 -6 18 -1 32 10 450 11
456 1 2 -4 14 -4 26 0 29 10 307 10 307 0 0 -5 5 -5 10 -2 17 10 209 14 216 4
3 -5 10 -6 16 -3 16 10 131 12 149 3 9 -5 19 -6 22 -2 9 9 288 9 294 0 2 -4
12 -3 21 2 9 5 50 6 90 2 39 -4 72 -3 72 1 0 13 58 9 63 -4 3 -7 6 -8 6 -3 1
6 32 8 82 5 45 -3 107 0 138 6 31 7 59 10 64 7 4 -2 6 -1 5 4 -1 4 6 21 17 38
20 29 20 58 20 2604 l0 2575 -28 31 c-26 28 -32 30 -120 35 l-92 5 70 6 70 5
-78 2 c-50 1 -76 -2 -72 -8 4 -6 -9 -10 -32 -9 -38 1 -38 1 -8 9 25 6 20 8
-25 8 -42 0 -49 -2 -30 -8 22 -7 20 -8 -15 -9 -29 0 -36 2 -25 9 12 8 10 10
-8 10 -13 0 -20 -4 -17 -10 4 -6 -22 -10 -72 -9 -57 1 -70 3 -48 9 22 6 12 8
-40 8 -49 0 -62 -2 -45 -8 15 -5 -34 -8 -120 -8 -87 0 -133 3 -115 8 26 7 23
8 -20 8 -36 0 -45 -2 -30 -8 16 -7 11 -9 -20 -9 -31 0 -36 2 -20 9 19 8 19 9
-2 9 -13 1 -23 -3 -23 -9 0 -5 -5 -10 -11 -10 -5 0 -7 5 -4 10 4 6 -7 10 -27
9 -31 -1 -31 -1 -8 -9 22 -7 20 -8 -13 -7 -24 0 -33 3 -25 8 7 5 -50 8 -127 8
-87 0 -132 -4 -120 -9 13 -6 -6 -9 -60 -9 -55 -1 -75 2 -65 9 12 8 10 10 -8
10 -13 0 -20 -4 -17 -10 4 -6 -9 -10 -32 -9 -31 0 -34 2 -18 9 14 7 0 9 -47 8
-37 -1 -65 -5 -62 -10 3 -4 -12 -8 -33 -7 -30 0 -34 2 -18 9 16 7 13 9 -17 9
-21 1 -38 -3 -38 -9 0 -5 -10 -10 -22 -9 -22 0 -22 1 -3 9 18 8 17 9 -8 9 -16
1 -26 -3 -22 -9 3 -5 1 -10 -4 -10 -6 0 -11 5 -11 10 0 6 -31 9 -77 8 l-78 -2
75 -6 75 -6 -105 -2 c-71 -1 -100 1 -90 8 12 8 10 10 -8 10 -13 0 -20 -4 -17
-10 4 -6 -9 -10 -32 -10 -28 0 -34 3 -23 10 11 7 -4 10 -48 10 -40 0 -61 -4
-57 -10 4 -6 -9 -10 -32 -9 -37 1 -37 2 -8 9 23 5 16 7 -30 7 -46 0 -53 -2
-30 -7 30 -8 30 -8 -7 -9 -21 0 -38 4 -38 9 0 6 -10 10 -22 9 -22 0 -22 -1 -3
-9z m590 -210 c-21 -5 -7 -8 50 -8 53 0 73 2 60 8 -12 5 81 8 225 7 219 -1
230 -2 100 -7 -109 -4 -74 -6 140 -6 208 0 247 2 145 6 -77 3 75 6 340 7 264
1 469 -2 455 -6 l-25 -7 22 -8 c13 -4 27 -4 33 -1 6 4 10 -7 10 -25 0 -18 -4
-29 -10 -25 -5 3 -10 -1 -10 -9 0 -9 5 -16 10 -16 6 0 10 -50 10 -129 0 -76
-4 -132 -10 -136 -5 -3 -10 -12 -10 -18 0 -7 4 -6 10 3 7 10 10 -19 10 -90 0
-69 -3 -100 -10 -90 -7 12 -9 10 -7 -7 0 -12 5 -19 9 -17 4 3 8 -8 8 -25 0
-16 -4 -33 -10 -36 -5 -3 -10 -11 -10 -16 0 -6 5 -7 10 -4 6 4 10 -7 10 -27 0
-25 -3 -29 -10 -18 -7 12 -10 8 -10 -15 0 -23 3 -27 10 -15 7 10 10 -24 10
-105 0 -79 -4 -115 -10 -105 -7 12 -9 10 -7 -7 0 -12 5 -19 9 -17 4 3 8 -84 8
-193 0 -132 -4 -193 -10 -183 -6 9 -10 10 -10 3 0 -6 5 -15 10 -18 6 -3 10
-23 10 -43 0 -28 -3 -33 -10 -22 -8 13 -10 12 -10 -2 0 -10 5 -18 10 -18 6 0
10 -32 10 -77 0 -54 -3 -73 -10 -63 -8 13 -10 12 -10 -2 0 -10 5 -18 10 -18 6
0 10 -32 10 -77 0 -54 -3 -73 -10 -63 -6 9 -10 10 -10 3 0 -6 5 -15 10 -18 15
-9 13 -235 -2 -235 -9 0 -9 -3 0 -12 8 -8 12 -49 12 -120 0 -77 -3 -108 -12
-108 -9 0 -9 -3 0 -12 14 -14 16 -114 2 -123 -5 -3 -10 -23 -10 -43 0 -28 3
-33 10 -22 8 13 10 12 10 -2 0 -10 -4 -18 -10 -18 -5 0 -10 -15 -9 -32 0 -28
2 -30 9 -13 6 13 9 15 9 5 0 -8 -3 -22 -9 -30 -6 -9 -5 -17 3 -22 9 -6 8 -8
-2 -8 -11 0 -11 -3 -1 -15 11 -13 10 -21 -1 -42 -11 -21 -11 -27 -1 -31 10 -3
10 -7 0 -20 -10 -12 -10 -14 0 -8 8 5 12 -1 12 -21 0 -22 -2 -25 -10 -13 -8
12 -9 9 -8 -12 1 -15 6 -24 10 -22 4 3 8 -28 7 -68 -1 -52 -3 -66 -9 -48 -7
22 -8 21 -9 -13 -1 -24 3 -36 9 -32 8 5 10 -27 9 -99 -1 -58 -5 -103 -10 -100
-5 3 -9 -2 -9 -10 0 -9 5 -16 10 -16 16 0 13 -470 -2 -471 -10 0 -10 -2 0 -6
6 -2 12 -21 12 -41 0 -28 -3 -33 -10 -22 -8 12 -10 9 -10 -12 0 -16 5 -28 10
-28 6 0 10 -29 9 -67 0 -47 -3 -62 -9 -48 -8 19 -9 19 -9 -2 -1 -13 4 -23 9
-23 6 0 10 -17 10 -37 0 -28 -3 -34 -10 -23 -7 12 -10 8 -10 -15 0 -23 3 -27
10 -15 7 10 10 -10 10 -65 0 -55 -3 -75 -10 -65 -6 9 -10 10 -10 3 0 -6 5 -15
10 -18 6 -3 10 -23 9 -43 -1 -33 -2 -34 -9 -12 -8 24 -8 23 -9 -8 -1 -20 3
-31 9 -27 6 4 10 -9 10 -32 0 -28 -3 -34 -10 -23 -8 12 -10 10 -10 -8 0 -13 4
-20 10 -17 6 4 10 -9 10 -32 0 -28 -3 -34 -10 -23 -8 13 -10 12 -10 -2 0 -10
5 -18 10 -18 6 0 10 -16 10 -36 0 -21 -4 -33 -10 -29 -5 3 -10 -1 -10 -9 0 -9
5 -16 10 -16 6 0 10 -14 10 -31 0 -21 -4 -28 -12 -23 -10 6 -10 4 0 -7 6 -7
12 -22 11 -34 0 -20 0 -20 -9 0 -7 16 -9 13 -9 -17 -1 -21 4 -38 9 -38 6 0 10
-32 10 -77 0 -48 -4 -73 -9 -64 -6 9 -8 5 -8 -14 0 -19 2 -23 8 -14 5 9 9 -18
9 -66 0 -55 -3 -75 -10 -65 -8 12 -10 9 -10 -12 l0 -28 -1205 0 -1205 0 0
2455 0 2455 453 -1 c248 -1 439 -5 422 -9z"/>
<path d="M7558 5686 c-15 -8 -30 -11 -34 -8 -4 4 -4 2 -1 -4 8 -15 -60 -110
-76 -106 -7 2 -9 0 -4 -4 10 -10 -63 -85 -76 -77 -6 3 -7 1 -4 -4 4 -6 -14
-25 -41 -41 -188 -121 -378 -132 -652 -37 -206 71 -226 76 -340 77 -90 0 -116
-3 -180 -27 -41 -15 -86 -27 -99 -27 -14 0 -19 -3 -12 -7 7 -5 -3 -15 -27 -29
-58 -32 -112 -89 -112 -118 0 -40 27 -81 61 -93 35 -12 57 -4 149 55 30 19 77
41 104 49 54 16 196 20 196 6 0 -5 8 -7 18 -5 22 6 241 -71 221 -78 -8 -3 0
-5 16 -5 17 0 77 -10 135 -22 185 -40 385 -19 528 53 29 15 58 24 64 20 7 -4
8 -3 4 4 -7 11 26 35 38 27 3 -3 4 -2 1 1 -2 4 19 26 48 50 89 73 185 201 194
260 7 42 -10 77 -44 93 -31 14 -42 14 -75 -3z"/>
<path d="M7583 5042 c-13 -2 -39 -23 -59 -48 -20 -24 -40 -41 -45 -38 -5 3 -6
-1 -3 -9 6 -16 -76 -90 -94 -85 -5 2 -18 -7 -28 -20 -24 -28 -139 -69 -220
-78 -100 -10 -219 11 -377 68 -167 60 -216 74 -294 83 -78 9 -210 -10 -292
-42 -36 -14 -72 -25 -79 -26 -6 0 -10 -2 -7 -5 2 -2 -13 -16 -33 -29 -20 -14
-54 -41 -75 -59 -20 -19 -42 -34 -47 -34 -6 0 -9 -3 -8 -7 1 -5 -5 -21 -12
-36 -11 -23 -12 -34 -1 -60 7 -18 13 -37 14 -43 0 -6 5 -11 11 -12 6 -1 28 -5
48 -8 34 -6 42 -2 95 45 115 103 208 137 353 129 68 -4 107 -14 195 -48 159
-61 268 -90 365 -97 47 -3 91 -11 99 -17 11 -8 13 -8 7 2 -5 9 4 12 36 12 176
1 413 131 512 282 10 15 23 25 29 21 5 -3 7 -2 4 4 -4 6 -1 24 5 40 9 24 8 38
-3 64 -7 19 -13 37 -12 40 3 8 -54 15 -84 11z"/>
<path d="M4103 2538 c-12 -6 -27 -24 -34 -41 -14 -32 -11 -49 66 -390 19 -87
33 -162 30 -168 -4 -5 -1 -9 6 -9 8 0 9 -10 5 -30 -4 -22 -2 -29 6 -24 7 5 9
-1 6 -19 -3 -15 -2 -24 2 -22 4 2 15 -33 26 -78 22 -99 50 -136 109 -143 32
-5 45 -1 62 15 37 35 37 62 -2 228 -28 124 -110 484 -140 619 -3 11 -17 33
-31 47 -29 29 -71 34 -111 15z"/>
</g>
</svg>
