<?xml version="1.0" standalone="no"?>
<!DOCTYPE svg PUBLIC "-//W3C//DTD SVG 20010904//EN" "http://www.w3.org/TR/2001/REC-SVG-20010904/DTD/svg10.dtd">
<svg xmlns="http://www.w3.org/2000/svg" version="1.0" width="1024.000000pt" height="1024.000000pt" viewBox="0 0 1024.000000 1024.000000" preserveAspectRatio="xMidYMid meet">
<metadata>
Created by potrace 1.16, written by Peter Selinger 2001-2019
<meta name="Producer" content="Online-Convert"/></metadata>
<g transform="translate(0.000000,1024.000000) scale(0.100000,-0.100000)" fill="#000000" stroke="none">
<path d="M1265 7205 l-25 -24 0 -438 c0 -1582 -3 -2175 -10 -2153 l-8 25 -1 -27 c-1 -16 4 -28 9 -28 6 0 10 -25 10 -55 0 -30 -4 -55 -10 -55 -5 0 -10 -5 -10 -11 0 -5 4 -8 10 -4 6 4 9 -253 10 -706 0 -445 4 -718 10 -729 13 -25 13 -33 -2 -24 -7 4 -8 3 -4 -4 5 -8 284 -12 1036 -12 l1028 0 35 42 c18 24 134 188 257 365 123 177 228 320 233 316 6 -3 7 -1 3 6 -4 7 21 52 62 109 145 203 442 645 442 658 0 26 -23 62 -47 73 -16 7 -125 11 -324 11 l-299 0 6 28 c19 80 68 211 109 294 214 428 632 732 1109 803 300 44 620 -7 889 -142 71 -35 86 -47 77 -58 -8 -9 -8 -15 0 -20 6 -4 9 -1 8 7 -11 51 160 -70 312 -222 126 -126 196 -220 264 -356 42 -86 107 -249 121 -306 l7 -28 -317 -2 -318 -3 -20 -27 c-34 -45 -45 -25 265 -474 121 -176 145 -216 142 -241 -2 -20 1 -30 11 -30 11 0 12 5 4 20 -6 10 -9 21 -6 23 4 5 290 -409 295 -429 2 -6 -7 -1 -20 13 -12 14 -19 20 -14 13 5 -7 5 -13 0 -13 -11 -1 28 -24 39 -25 5 0 70 -90 145 -200 l137 -200 1017 -3 c1007 -2 1018 -2 1038 18 20 20 20 32 20 2113 0 2093 0 2093 -20 2115 l-21 22 -873 0 -873 0 -21 -23 c-22 -23 -22 -26 -22 -445 l0 -422 -2040 0 -2040 0 0 423 0 424 -23 21 -23 22 -873 0 -872 0 -24 -25z m1663 -2112 l-3 -1978 -762 -3 -763 -2 0 1980 0 1980 765 0 765 0 -2 -1977z m5910 0 l-3 -1978 -762 -3 -763 -2 0 1980 0 1980 765 0 765 0 -2 -1977z m-1678 272 l-1 -825 -213 0 -214 0 -21 86 c-104 413 -389 783 -768 998 -452 255 -1032 283 -1503 71 -98 -44 -230 -119 -288 -162 -17 -13 -37 -21 -42 -18 -6 4 -9 2 -8 -3 2 -5 -34 -42 -80 -82 -204 -177 -380 -434 -460 -672 -16 -48 -31 -85 -34 -83 -2 3 -4 -3 -4 -13 0 -9 -4 -41 -8 -69 l-9 -53 -213 0 -214 0 0 825 0 825 2040 0 2040 0 0 -825z m-3060 -988 c0 -2 -42 -63 -92 -135 -51 -72 -125 -178 -164 -234 -329 -477 -462 -670 -533 -775 l-82 -123 -75 0 -74 0 0 635 0 635 510 0 c281 0 510 -1 510 -3z m3059 -632 l0 -635 -67 0 c-37 0 -72 4 -79 8 -6 4 -166 232 -355 507 -368 534 -406 590 -481 690 l-48 65 515 0 515 0 0 -635z"/>
<path d="M1842 6670 c-21 -20 -22 -28 -22 -229 0 -195 1 -209 20 -226 11 -10 20 -25 20 -34 0 -14 -2 -14 -11 -1 -8 12 -10 12 -7 1 2 -8 17 -16 34 -18 28 -4 28 -4 9 11 -19 15 -18 15 15 16 20 0 46 7 58 16 22 15 22 19 22 230 0 201 -1 215 -20 234 -27 27 -89 27 -118 0z"/>
<path d="M2372 6670 c-21 -20 -22 -28 -22 -229 0 -204 0 -208 23 -229 30 -29 89 -30 117 -2 19 19 20 33 20 230 0 197 -1 211 -20 230 -27 27 -89 27 -118 0z"/>
<path d="M1874 5850 c-50 -20 -54 -40 -54 -253 0 -197 0 -198 25 -222 30 -31 73 -32 109 -4 l26 20 0 210 c0 196 -1 210 -20 229 -11 11 -24 20 -29 20 -5 0 -15 2 -23 4 -7 3 -23 1 -34 -4z"/>
<path d="M2371 5826 c-21 -23 -22 -27 -18 -232 3 -115 6 -214 7 -220 4 -12 18 -15 77 -17 70 -2 72 5 73 246 0 194 -1 208 -20 227 -29 29 -90 27 -119 -4z"/>
<path d="M7770 6683 c-36 -14 -39 -35 -40 -244 0 -202 0 -206 23 -227 32 -30 87 -29 115 1 21 22 22 32 22 228 0 202 0 206 -23 227 -22 21 -64 27 -97 15z"/>
<path d="M8274 6669 c-17 -19 -19 -39 -19 -231 0 -208 0 -210 24 -229 36 -29 94 -25 121 8 20 26 21 36 18 231 -3 200 -3 204 -27 223 -32 26 -92 25 -117 -2z"/>
<path d="M7773 5845 c-17 -7 -33 -20 -37 -30 -3 -9 -6 -108 -6 -219 0 -227 1 -231 73 -243 29 -4 40 -1 62 21 l26 26 -2 220 c-1 134 -5 218 -10 214 -6 -3 -15 -1 -22 4 -22 17 -54 20 -84 7z"/>
<path d="M8303 5850 c-49 -20 -55 -46 -55 -244 0 -124 4 -191 12 -206 9 -18 9 -24 0 -30 -12 -8 11 -11 84 -13 29 -1 43 5 57 22 17 21 19 43 19 225 0 197 -1 203 -22 223 -28 25 -66 34 -95 23z"/>
<path d="M5683 6163 c251 -2 663 -2 915 0 251 1 45 2 -458 2 -503 0 -709 -1 -457 -2z"/>
</g>
</svg>
