<?xml version="1.0" standalone="no"?>
<!DOCTYPE svg PUBLIC "-//W3C//DTD SVG 20010904//EN"
 "http://www.w3.org/TR/2001/REC-SVG-20010904/DTD/svg10.dtd">
<svg version="1.0" xmlns="http://www.w3.org/2000/svg"
 width="1024.000000pt" height="1024.000000pt" viewBox="0 0 1024.000000 1024.000000"
 preserveAspectRatio="xMidYMid meet">
<metadata>
Created by potrace 1.16, written by Peter Selinger 2001-2019
</metadata>
<g transform="translate(0.000000,1024.000000) scale(0.100000,-0.100000)"
fill="#000000" stroke="none">
<path d="M5684 8505 c-54 -58 -66 -65 -99 -65 -30 0 -47 8 -81 40 -47 43 -65
48 -84 25 -15 -18 -7 -44 28 -83 95 -107 246 -71 306 72 15 36 14 76 -2 76 -4
0 -35 -30 -68 -65z"/>
<path d="M3270 8471 c-85 -28 -159 -92 -216 -186 -14 -22 -41 -53 -62 -68
-115 -86 -180 -129 -231 -152 -109 -51 -123 -61 -174 -124 -29 -35 -78 -81
-110 -103 -72 -49 -94 -91 -76 -145 6 -20 24 -42 43 -54 30 -18 62 -19 969
-19 1014 0 984 -2 1020 53 20 31 22 82 4 117 -17 34 -90 87 -138 100 -26 7
-64 33 -112 77 -72 66 -112 88 -201 113 -51 14 -81 39 -170 144 -35 41 -68 67
-120 93 -39 19 -92 55 -117 78 -70 65 -102 78 -199 82 -47 1 -96 -1 -110 -6z
m195 -91 c23 -11 59 -39 80 -61 22 -24 66 -54 109 -73 56 -26 79 -44 110 -85
69 -93 136 -146 202 -160 77 -17 97 -28 170 -95 40 -36 91 -69 141 -91 91 -41
114 -66 87 -96 -17 -18 -45 -19 -949 -19 -771 0 -934 2 -938 13 -7 19 0 27 65
76 31 23 75 67 98 98 32 42 55 61 99 80 135 59 152 67 168 85 10 11 47 39 83
63 46 31 80 63 110 107 63 92 99 128 155 154 65 31 151 32 210 4z"/>
<path d="M6200 8172 c-110 -42 -149 -72 -210 -163 -45 -65 -64 -78 -89 -61
-96 68 -149 81 -195 45 -30 -24 -22 -38 25 -47 20 -3 67 -27 105 -51 73 -48
84 -51 133 -34 31 11 81 72 95 115 11 35 57 71 146 115 103 50 124 67 109 86
-15 18 -64 16 -119 -5z"/>
<path d="M7296 7910 c-33 -10 -91 -48 -156 -101 -52 -42 -182 -135 -255 -182
-27 -18 -78 -42 -112 -54 -35 -12 -84 -39 -110 -61 -27 -21 -68 -47 -93 -57
-25 -11 -78 -41 -119 -68 -41 -26 -81 -45 -88 -42 -8 2 -12 1 -9 -4 3 -5 -8
-14 -24 -21 -46 -19 -100 -84 -100 -121 0 -45 25 -85 61 -98 23 -8 322 -11
1016 -11 l983 0 38 34 c34 32 37 39 38 93 1 48 -4 65 -27 99 -30 44 -93 104
-110 104 -6 0 -7 5 -3 12 4 6 3 8 -3 5 -12 -8 -156 33 -199 56 -16 9 -63 50
-104 93 -55 56 -92 84 -138 105 -43 20 -83 49 -128 95 -82 83 -163 123 -261
129 -37 3 -81 0 -97 -5z m171 -92 c44 -16 76 -39 132 -95 52 -52 94 -83 146
-107 53 -26 91 -55 145 -111 41 -41 92 -83 113 -93 37 -16 38 -17 16 -24 -17
-5 -13 -6 11 -3 63 9 161 -25 213 -74 46 -42 61 -78 47 -112 l-12 -29 -978 0
c-898 0 -978 1 -984 16 -10 25 21 53 99 89 39 17 84 43 100 57 17 13 46 31 65
38 48 19 130 69 159 97 13 13 42 28 65 34 62 16 185 92 345 212 79 60 153 112
165 117 37 15 93 11 153 -12z"/>
<path d="M5695 6519 c-27 -8 -94 -62 -96 -78 0 -3 -3 -15 -5 -26 -3 -11 -6
-55 -7 -97 -1 -46 -6 -73 -11 -68 -5 5 -16 5 -27 0 -10 -6 -192 -9 -442 -7
-281 1 -423 -1 -419 -8 3 -5 2 -7 -2 -3 -5 4 -8 41 -8 83 0 87 -19 138 -68
179 -26 22 -42 26 -90 26 -71 0 -112 -21 -136 -70 -23 -47 -26 -63 -28 -147 0
-39 -4 -69 -8 -66 -5 2 -13 1 -20 -3 -7 -4 -21 -9 -32 -10 -12 -1 -46 -7 -76
-13 -30 -6 -80 -13 -110 -16 -30 -3 -71 -7 -90 -11 -19 -3 -47 -6 -62 -7 -14
-1 -30 -5 -34 -9 -4 -4 -18 -5 -30 -2 -13 4 -24 2 -24 -4 0 -5 -26 -13 -57
-17 -144 -18 -178 -23 -178 -25 0 -3 -24 -7 -87 -16 -45 -6 -48 -5 -59 22 -7
16 -13 31 -14 34 -6 27 -34 53 -82 75 -47 21 -62 24 -81 15 -13 -5 -28 -8 -33
-5 -5 4 -9 1 -9 -5 0 -6 -4 -9 -9 -6 -12 8 -61 -32 -61 -50 0 -8 -5 -14 -11
-14 -5 0 -7 -4 -4 -10 3 -5 1 -10 -6 -10 -7 0 -9 -3 -6 -7 4 -3 2 -12 -4 -19
-6 -8 -8 -21 -5 -30 10 -26 -4 -64 -24 -64 -11 0 -22 -5 -26 -11 -3 -6 -15 -9
-25 -6 -11 3 -19 1 -19 -4 0 -5 -10 -9 -22 -8 -13 0 -88 -18 -167 -40 -80 -22
-147 -38 -150 -36 -2 3 -10 0 -18 -7 -7 -6 -16 -8 -20 -5 -3 4 -11 3 -17 -2
-6 -4 -26 -13 -45 -20 -26 -8 -37 -8 -49 2 -11 8 -14 8 -9 0 9 -14 0 -20 -34
-26 -13 -3 -42 -12 -63 -21 -21 -9 -49 -16 -61 -16 -13 0 -25 -4 -27 -8 -1 -5
-15 -12 -31 -16 -25 -6 -27 -5 -26 26 2 54 -8 97 -35 142 -33 56 -59 72 -126
75 -61 2 -94 -7 -126 -35 -48 -43 -47 -39 -45 -561 2 -403 0 -493 -11 -493
-10 0 -9 -3 2 -10 13 -9 12 -12 -4 -25 -11 -8 -25 -15 -32 -15 -7 0 -14 -4
-16 -9 -1 -5 -22 -20 -44 -33 -23 -13 -86 -52 -140 -88 -115 -76 -184 -115
-184 -103 0 4 -4 3 -8 -2 -10 -14 -92 -67 -92 -59 0 3 -7 -2 -16 -10 -8 -9
-21 -16 -29 -16 -7 0 -15 -4 -17 -8 -1 -4 -20 -18 -40 -31 -28 -16 -38 -19
-38 -9 0 7 -8 21 -18 30 -9 9 -22 23 -28 30 -12 14 -40 36 -66 53 -70 46 -140
99 -145 111 -3 8 -14 14 -24 14 -10 0 -19 6 -19 13 0 8 -3 8 -9 -2 -6 -9 -4
-22 6 -37 8 -13 12 -28 9 -33 -4 -5 -2 -12 4 -16 6 -4 8 -10 5 -14 -2 -5 7
-13 20 -19 14 -7 25 -17 25 -23 0 -15 46 -69 53 -63 3 3 8 -9 12 -27 5 -23 10
-28 16 -18 6 10 9 6 9 -13 0 -15 7 -33 15 -42 8 -8 15 -20 15 -26 0 -6 5 -8
10 -5 6 3 10 2 10 -4 0 -6 6 -8 13 -6 6 3 18 -5 26 -17 7 -13 10 -20 6 -16 -5
4 -14 3 -22 -3 -9 -8 -13 -8 -13 -1 0 6 -17 11 -37 12 -68 2 -83 4 -83 13 0 4
-3 6 -8 3 -4 -2 -32 1 -62 8 -47 10 -120 12 -167 5 -7 -1 -13 -9 -13 -18 0
-17 84 -61 115 -61 12 0 15 -5 9 -22 -6 -21 -6 -21 11 -4 10 10 21 13 24 8 5
-8 65 -23 103 -26 3 -1 10 -5 15 -10 5 -5 2 -6 -6 -1 -10 5 -12 4 -7 -4 5 -7
13 -8 23 -2 9 4 24 6 35 3 17 -4 18 -6 3 -22 -9 -10 -18 -27 -20 -37 -2 -10
-4 -18 -5 -18 -1 0 -4 -16 -6 -35 -3 -19 -8 -42 -11 -50 -3 -8 -5 -26 -4 -40
1 -21 0 -23 -11 -10 -7 8 -24 16 -38 18 -14 2 -32 12 -41 22 -9 11 -19 17 -21
14 -3 -2 -42 32 -87 77 l-81 81 0 -51 c0 -40 4 -52 20 -61 11 -6 20 -19 20
-29 0 -11 7 -21 15 -25 8 -3 15 -11 15 -17 0 -6 10 -20 22 -30 11 -11 16 -19
9 -19 -7 0 -9 -5 -6 -10 4 -6 10 -8 15 -5 10 6 80 -25 80 -37 0 -17 -43 -29
-83 -22 -23 4 -61 6 -84 5 -24 -1 -52 3 -63 9 -12 6 -20 7 -20 1 0 -5 -10 -13
-22 -17 l-22 -7 23 -18 c35 -28 202 -72 242 -63 13 3 35 7 49 10 14 3 45 11
70 18 56 17 84 18 118 4 15 -6 34 -13 42 -15 8 -2 408 -4 889 -4 l874 0 33 32
c34 33 48 71 31 88 -14 14 -14 98 0 112 6 6 17 8 24 3 8 -4 20 -9 29 -9 8 -1
78 -25 155 -54 214 -80 249 -93 263 -104 6 -5 12 -7 12 -3 0 6 120 -37 143
-51 7 -4 18 -8 25 -9 25 -4 163 -65 207 -92 25 -15 47 -33 50 -42 8 -19 -39
-57 -80 -66 -16 -4 -55 -15 -86 -25 -52 -16 -309 -67 -369 -74 -14 -1 -50 -7
-80 -12 -30 -6 -86 -16 -125 -23 -38 -6 -114 -20 -168 -31 -53 -11 -102 -17
-107 -14 -6 3 -10 2 -10 -4 0 -9 -71 -27 -97 -24 -7 0 -13 -3 -13 -7 0 -4 -19
-13 -42 -20 -177 -52 -256 -150 -216 -265 9 -27 17 -46 18 -42 0 4 14 -8 30
-27 58 -65 251 -148 460 -197 116 -27 299 -62 515 -99 391 -67 469 -81 710
-129 387 -77 534 -116 653 -174 73 -35 96 -62 86 -101 -5 -22 -64 -78 -64 -62
0 3 -8 -2 -19 -13 -18 -18 -112 -58 -149 -64 -10 -1 -21 -5 -27 -9 -19 -11
-241 -58 -465 -99 -343 -61 -460 -95 -645 -183 -148 -71 -274 -164 -305 -227
-24 -46 -24 -49 -5 -49 8 0 15 -4 15 -10 0 -13 21 -9 38 8 8 7 19 9 25 5 6 -4
8 0 4 9 -3 10 4 25 19 39 13 12 24 18 24 13 0 -5 5 -1 11 8 15 27 122 96 213
139 156 73 314 120 541 159 454 80 594 115 727 181 114 57 172 132 154 199
-19 70 -111 129 -286 183 -90 28 -348 92 -415 102 -22 4 -107 20 -190 36 -82
16 -175 34 -205 39 -30 6 -127 23 -215 39 -88 17 -254 46 -370 66 -276 48
-418 80 -540 122 -108 38 -188 80 -179 94 3 5 -1 6 -9 3 -19 -7 -87 70 -87 99
0 30 51 78 115 110 81 40 323 100 500 122 28 4 124 20 215 36 394 70 497 102
555 171 61 72 8 154 -142 219 -43 18 -80 36 -83 39 -3 3 -9 6 -15 7 -10 2
-346 127 -375 140 -8 3 -19 7 -25 9 -13 3 -271 100 -352 132 -24 9 -43 22 -43
29 0 15 35 35 44 26 3 -3 6 -1 6 6 0 9 6 11 18 6 9 -4 38 -7 65 -6 26 1 47 -2
47 -7 0 -6 22 -8 49 -5 28 2 168 -3 313 -11 588 -35 654 -38 1178 -52 129 -3
307 -9 395 -13 88 -3 237 -6 332 -5 95 0 170 -2 168 -6 -5 -8 307 -3 328 6 24
9 28 42 6 49 -11 4 -17 10 -14 15 3 4 -77 8 -178 8 -198 1 -568 9 -962 22
-137 4 -347 10 -465 14 -118 3 -228 9 -245 12 -16 3 -73 7 -125 8 -190 6 -186
6 -170 16 13 8 12 10 -2 10 -10 0 -18 -5 -18 -11 0 -8 -23 -9 -82 -3 -46 5
-126 9 -178 10 -52 1 -133 5 -180 9 -47 4 -104 7 -127 8 -24 1 -41 6 -39 12 2
6 14 9 27 7 17 -1 20 1 11 7 -11 6 -7 13 16 30 17 11 35 21 40 21 6 0 12 4 14
9 3 9 230 131 250 135 7 1 28 10 46 19 17 10 32 14 32 10 0 -5 4 -3 8 3 10 14
88 44 96 37 3 -4 6 -1 6 6 0 8 7 11 15 7 8 -3 15 -2 15 3 0 9 107 43 148 47
13 2 30 8 37 14 7 6 33 13 56 16 24 3 48 9 54 14 9 7 95 27 147 34 13 2 30 6
38 9 8 3 22 5 30 6 8 0 33 4 55 10 22 5 65 12 95 16 30 3 89 10 131 15 42 6
89 11 105 10 16 0 74 3 129 7 186 12 561 6 715 -11 30 -4 73 -8 95 -10 139
-13 169 -17 181 -27 7 -6 18 -8 24 -4 11 6 225 -31 245 -43 10 -6 15 -7 68
-10 16 -1 25 -6 22 -12 -3 -5 0 -7 8 -4 7 2 27 -1 43 -7 16 -7 42 -14 58 -16
15 -3 40 -9 55 -15 14 -6 32 -10 39 -9 6 1 12 -3 12 -9 0 -7 6 -10 13 -7 17 6
243 -75 257 -92 3 -3 12 -7 20 -9 31 -5 129 -56 124 -64 -3 -4 1 -5 9 -2 15 5
185 -80 257 -130 25 -17 57 -37 73 -43 15 -7 27 -17 27 -22 0 -13 -44 -40 -75
-45 -15 -3 -32 -10 -39 -15 -7 -6 -16 -8 -19 -4 -4 3 -7 1 -7 -5 0 -6 -24 -18
-52 -27 -29 -9 -60 -19 -68 -22 -8 -4 -18 -5 -22 -5 -5 1 -8 -2 -8 -7 0 -5
-15 -13 -32 -17 -43 -10 -39 -9 -73 -23 -39 -16 -148 -58 -157 -60 -39 -9
-188 -72 -209 -89 -11 -10 -24 -34 -28 -54 -7 -32 -5 -40 15 -59 30 -28 135
-51 257 -57 21 -1 36 -6 32 -11 -3 -5 0 -13 6 -17 8 -4 9 -3 5 4 -9 15 36 16
84 2 19 -5 55 -12 80 -15 25 -2 56 -7 70 -10 25 -6 45 -9 135 -21 28 -3 54 -9
60 -12 5 -3 16 -7 25 -7 70 -7 372 -88 522 -141 57 -20 111 -38 121 -41 9 -3
17 -9 17 -12 0 -4 6 -8 13 -8 6 0 33 -9 59 -21 38 -16 47 -25 42 -39 -5 -15
-4 -15 5 -3 9 12 17 11 58 -9 60 -29 179 -116 187 -137 9 -24 7 -27 -10 -20
-14 5 -15 4 -4 -9 7 -8 17 -12 22 -9 6 4 8 -2 3 -15 -4 -14 -2 -21 6 -21 7 0
9 -3 6 -6 -3 -4 0 -16 8 -28 8 -11 15 -30 15 -41 0 -14 3 -16 9 -7 6 10 10 10
20 -1 9 -12 7 -16 -9 -20 -11 -3 -20 -2 -20 2 0 4 -18 14 -41 21 -23 8 -43 20
-46 27 -3 7 -8 11 -12 9 -3 -2 -25 9 -48 24 -23 16 -44 26 -47 22 -2 -4 -2
-27 -1 -52 2 -25 4 -49 4 -54 1 -6 8 -1 17 10 14 17 15 17 10 1 -3 -11 -2 -16
4 -12 6 3 13 -1 16 -9 3 -9 10 -14 15 -11 11 7 60 -36 53 -47 -3 -4 -10 -8
-15 -8 -6 0 -7 6 -3 13 6 9 5 9 -8 0 -8 -7 -17 -11 -20 -8 -4 5 -48 11 -91 14
-12 1 -16 5 -11 14 5 8 3 8 -9 -2 -9 -7 -14 -17 -11 -22 3 -5 -2 -6 -11 -3
-11 5 -14 2 -9 -10 3 -9 10 -14 14 -11 5 3 11 1 15 -5 3 -6 25 -20 48 -31 23
-12 45 -27 49 -33 6 -8 8 -7 8 2 0 14 52 16 66 2 6 -6 23 -6 49 2 22 6 44 11
48 10 4 -1 17 4 29 12 11 8 27 12 34 9 8 -3 14 1 14 8 0 9 3 10 8 4 4 -5 16
-10 27 -10 14 0 20 -6 19 -22 -2 -28 4 -29 23 -5 14 16 14 16 9 0 -6 -21 14
-20 31 2 10 13 12 13 18 -2 6 -14 18 -18 54 -17 35 0 41 2 26 9 -18 8 -17 9 8
9 15 1 33 6 40 11 23 20 117 79 117 73 0 -3 14 9 32 26 24 23 29 34 21 42 -9
9 -19 9 -40 1 -21 -9 -165 -42 -180 -42 -1 0 10 13 25 29 15 15 30 26 35 24 4
-3 6 1 5 9 -2 7 3 12 10 10 8 -1 11 2 7 8 -4 6 -1 18 7 27 11 14 11 16 -2 8
-13 -8 -13 -6 -1 8 11 14 11 18 -4 24 -11 4 -23 0 -31 -11 -11 -15 -27 -22
-57 -25 -5 -1 -5 -6 -2 -11 3 -6 0 -10 -8 -10 -7 0 -23 -9 -35 -20 -12 -12
-22 -18 -22 -15 0 3 -11 -2 -25 -11 -13 -9 -30 -14 -37 -11 -8 3 -6 6 6 6 11
1 16 6 13 15 -3 8 1 17 9 20 8 3 14 14 14 23 0 10 6 27 14 38 7 11 13 27 14
35 1 23 7 44 15 58 10 14 0 52 -13 52 -5 0 -14 -9 -20 -20 -6 -11 -15 -18 -21
-15 -5 4 -8 1 -7 -6 2 -7 -7 -18 -19 -24 -13 -5 -23 -13 -23 -18 0 -4 6 -5 13
-1 6 4 2 -3 -10 -15 -13 -12 -23 -26 -23 -31 0 -6 -5 -10 -12 -10 -6 0 -8 3
-5 6 8 8 -44 50 -57 46 -4 -2 -6 4 -2 13 3 9 -1 18 -9 21 -8 4 -15 13 -15 22
0 8 -3 12 -6 9 -4 -3 -33 18 -65 47 -126 114 -435 252 -729 327 -47 12 -90 25
-96 30 -7 6 -16 9 -20 8 -5 -1 -11 0 -14 1 -3 1 -14 3 -25 4 -11 2 -74 15
-140 29 -66 14 -148 29 -182 33 -37 4 -60 11 -57 16 4 6 -1 8 -13 4 -17 -6
-78 2 -283 35 -41 6 -86 13 -100 14 -14 1 -33 3 -42 3 -32 3 -19 22 30 43 42
19 196 74 215 77 4 1 24 9 45 18 76 32 88 30 133 -15 23 -22 44 -41 48 -41 3
0 23 -11 43 -25 20 -14 44 -25 52 -25 9 0 16 -5 16 -10 0 -6 3 -9 8 -8 21 5
72 -15 73 -30 0 -11 2 -12 6 -4 2 6 9 10 14 7 4 -3 25 -8 46 -11 21 -2 62 -9
92 -14 34 -6 444 -10 1067 -11 944 0 1015 1 1039 17 57 37 62 127 12 197 -41
58 -101 123 -132 143 -14 9 -22 21 -18 27 3 6 1 7 -6 3 -6 -4 -24 2 -40 13
-16 12 -32 21 -35 21 -8 0 -68 41 -76 52 -3 3 -17 9 -31 13 -14 3 -38 17 -52
31 -15 13 -30 25 -34 25 -5 0 -10 3 -13 6 -3 2 2 3 10 1 9 -2 16 6 18 20 2 16
-3 25 -19 30 -21 8 -21 9 -3 16 13 5 15 9 7 14 -9 6 -1 25 27 65 22 31 40 62
40 67 0 6 5 10 11 10 5 0 7 5 4 10 -3 6 -1 10 5 10 6 0 15 12 20 26 6 14 14
22 20 19 6 -3 7 1 4 9 -4 11 -14 14 -33 10 -33 -8 -71 -31 -71 -44 0 -6 -6
-10 -12 -10 -7 0 -31 -18 -53 -40 -22 -21 -44 -39 -49 -40 -10 0 -97 -68 -108
-85 -4 -5 -8 -21 -8 -34 l0 -24 -25 23 c-13 12 -24 25 -23 29 2 19 -3 31 -12
26 -5 -3 -10 1 -10 10 0 9 4 14 9 11 4 -3 11 25 15 62 9 102 10 106 23 120 29
30 26 59 -10 96 -20 20 -39 36 -44 36 -14 0 -33 -38 -27 -55 4 -8 1 -22 -5
-29 -7 -8 -11 -20 -10 -28 3 -13 -7 -76 -18 -112 -4 -13 -2 -16 7 -11 9 6 11
4 5 -5 -7 -11 -11 -10 -19 5 -15 26 -74 82 -118 112 -22 15 -35 30 -31 37 4 6
-1 5 -10 -3 -13 -11 -17 -11 -17 -1 0 8 -3 11 -6 7 -9 -8 -199 88 -225 114
-20 20 -20 27 -17 510 2 269 -1 489 -5 489 -5 0 -6 4 -2 10 10 16 -18 51 -60
72 -70 36 -169 22 -213 -31 -28 -34 -50 -95 -51 -142 -1 -23 -5 -26 -33 -24
-18 2 -35 4 -38 5 -3 1 -8 2 -12 1 -4 0 -20 4 -35 11 -15 6 -31 12 -35 13 -5
2 -11 4 -15 5 -5 1 -12 3 -18 5 -5 1 -14 3 -20 5 -5 1 -14 3 -20 4 -53 10 -86
20 -90 27 -3 4 -12 6 -20 2 -8 -3 -15 0 -15 7 0 6 -4 9 -9 6 -8 -5 -45 4 -91
22 -22 8 -20 7 -77 16 -29 4 -56 12 -59 17 -3 5 -9 7 -14 4 -5 -3 -11 -1 -15
4 -3 6 -12 8 -19 5 -8 -3 -17 -1 -20 5 -4 6 -13 8 -20 5 -8 -3 -17 -1 -20 5
-4 6 -13 8 -21 4 -8 -3 -15 0 -15 7 0 6 -4 9 -9 6 -11 -7 -106 12 -139 27 -16
8 -19 13 -10 19 10 6 10 8 -1 8 -7 0 -11 6 -8 14 3 8 3 17 -1 21 -4 4 -8 11
-8 16 -1 5 -2 13 -3 18 -2 16 -66 86 -81 89 -8 2 -16 7 -18 11 -2 7 -42 5 -89
-5 -34 -7 -90 -61 -102 -97 -9 -27 -16 -33 -39 -31 -15 1 -27 2 -27 3 0 3 -86
15 -140 20 -17 1 -18 3 -5 11 9 6 10 10 3 10 -6 0 -15 -5 -18 -11 -4 -6 -14
-7 -24 -4 -9 4 -36 9 -61 11 -25 3 -56 7 -70 10 -14 4 -38 8 -55 10 -16 2 -43
6 -60 9 -42 8 -59 10 -153 20 -45 4 -85 12 -88 16 -3 5 -16 6 -29 3 -13 -3
-33 -3 -45 1 -21 7 -22 12 -18 81 2 46 0 74 -7 74 -5 0 -1 8 10 17 18 14 18
15 1 9 -14 -5 -17 -2 -12 9 3 8 1 15 -4 15 -5 0 -7 12 -4 26 3 16 1 23 -6 19
-5 -3 -20 4 -33 17 -13 13 -34 24 -48 26 -13 1 -33 4 -44 6 -11 2 -34 0 -50
-5z m-1136 -100 c16 -17 20 -41 25 -142 7 -130 3 -682 -4 -707 -15 -46 -81
-62 -112 -26 -17 17 -18 52 -18 425 0 387 1 408 20 439 23 38 59 43 89 11z
m1218 -10 c3 -11 8 -19 12 -19 9 0 7 -842 -2 -857 -4 -7 -20 -9 -40 -6 -17 2
-37 5 -43 5 -13 2 -12 -48 -14 440 -2 388 -1 418 16 440 21 29 64 26 71 -3z
m-2424 -268 c-2 -6 3 -10 10 -8 6 1 11 -6 11 -15 -1 -11 4 -14 14 -11 10 4 13
2 8 -5 -4 -7 -2 -12 3 -12 8 0 11 -79 11 -245 l0 -244 -36 -10 c-25 -7 -43 -7
-56 0 -13 7 -18 7 -16 -2 2 -6 -9 -12 -24 -13 l-27 -2 -1 246 c0 250 6 302 37
325 21 15 69 12 66 -4z m2235 -3 c-3 -21 -8 -21 -118 -19 -63 1 -122 2 -130 1
-68 -6 -358 -3 -367 4 -8 5 -13 5 -13 -1 0 -5 -65 -9 -145 -10 -138 -2 -145
-1 -145 18 0 15 5 18 25 15 14 -3 25 -1 25 4 0 4 196 8 436 8 l435 1 -3 -21z
m1292 10 c0 -10 2 -10 9 0 6 10 10 10 21 -3 7 -8 9 -15 4 -15 -5 0 -2 -5 6
-10 13 -8 15 -49 15 -267 l0 -258 -35 3 c-19 2 -37 7 -40 10 -3 4 -16 7 -30 7
l-25 0 0 256 c0 275 2 289 51 289 13 0 24 -6 24 -12z m-2562 -10 c-5 -15 15
-38 34 -38 8 0 6 -5 -5 -11 -10 -6 -25 -8 -33 -5 -8 3 -38 1 -67 -5 -28 -6
-59 -12 -67 -14 -8 -1 -22 -5 -30 -8 -8 -3 -22 -5 -30 -5 -47 1 -187 -15 -203
-24 -10 -5 -25 -7 -34 -4 -8 3 -23 1 -34 -5 -11 -5 -41 -12 -67 -13 -26 -2
-58 -6 -72 -9 -14 -4 -43 -8 -65 -11 -22 -2 -51 -8 -65 -11 -14 -4 -40 -9 -58
-11 -30 -3 -32 -1 -29 24 5 28 7 29 42 17 16 -6 17 -5 5 4 -8 6 -13 11 -10 12
3 0 14 3 25 6 26 6 58 11 120 18 28 3 64 9 80 14 17 5 49 9 73 10 24 1 54 6
66 11 13 5 26 6 29 3 3 -3 12 -1 19 3 13 9 34 13 91 17 15 1 27 6 27 10 0 4
17 7 38 7 20 0 60 4 87 9 28 5 53 7 57 4 5 -2 16 1 25 6 25 14 56 14 51 -1z
m1598 3 c-3 -5 2 -15 12 -22 15 -13 16 -12 4 3 -8 9 -9 19 -4 22 8 5 166 -17
277 -38 31 -6 76 -12 160 -22 50 -5 98 -14 189 -33 26 -6 52 -9 56 -6 4 2 13
-7 20 -20 10 -19 16 -22 26 -14 7 6 17 8 23 5 5 -3 11 0 13 6 3 7 7 0 10 -15
5 -28 5 -28 -36 -22 -23 4 -47 15 -55 26 -7 10 -18 19 -23 19 -6 0 -5 -7 2
-15 11 -13 6 -15 -31 -14 -24 0 -66 7 -94 14 -27 7 -57 13 -65 13 -8 0 -49 5
-90 12 -84 14 -141 20 -182 21 -16 0 -28 6 -28 12 0 8 -3 7 -9 -2 -6 -9 -11
-10 -15 -2 -4 6 -21 11 -37 11 -22 0 -28 4 -23 13 6 9 4 9 -7 1 -21 -15 -111
-4 -117 15 -5 16 5 41 18 41 6 0 9 -4 6 -9z m-332 -251 l-2 -135 -448 -2
c-320 -1 -451 2 -456 9 -7 12 -11 245 -4 256 2 4 208 7 458 7 l453 0 -1 -135z
m376 115 c19 -3 67 -7 105 -10 48 -4 74 -11 83 -22 8 -12 12 -13 12 -4 0 9 8
11 28 7 27 -7 94 -16 122 -17 8 0 22 -3 30 -6 8 -4 26 -7 40 -9 62 -7 100 -13
120 -19 11 -4 41 -7 65 -7 25 0 47 -4 50 -8 3 -5 12 -7 20 -4 8 3 20 2 27 -2
7 -5 20 -9 28 -9 13 0 15 -22 15 -132 0 -132 0 -133 -22 -133 -13 0 -23 5 -23
10 0 6 -11 8 -24 6 -13 -2 -41 0 -63 6 -21 5 -48 9 -60 9 -13 0 -23 3 -23 8 0
5 -15 10 -32 10 -18 0 -49 2 -68 6 -19 3 -50 6 -67 6 -18 0 -33 3 -33 8 0 4
-11 6 -25 3 -13 -2 -33 -1 -42 4 -10 4 -30 9 -45 11 -73 9 -88 11 -90 12 -2 1
-30 4 -63 7 -33 2 -71 7 -85 11 -14 3 -31 5 -37 4 -10 -1 -13 28 -13 118 0
126 4 152 23 145 7 -2 28 -6 47 -9z m-1640 -10 c0 -8 6 -15 13 -15 8 0 7 -4
-3 -10 -8 -5 -10 -10 -5 -10 15 0 35 -49 35 -85 0 -20 -7 -35 -20 -43 -12 -7
-18 -17 -14 -23 4 -8 9 -7 15 2 6 10 8 5 5 -13 -3 -16 0 -28 5 -28 5 0 9 -4 9
-9 0 -5 -9 -7 -20 -4 -11 3 -20 0 -20 -6 0 -6 -15 -11 -32 -11 -18 0 -46 -1
-63 -3 -20 -1 -29 2 -27 11 1 8 -2 11 -8 7 -6 -3 -8 -10 -5 -15 7 -12 -40 -24
-55 -15 -6 4 -16 2 -23 -3 -7 -5 -47 -13 -91 -16 -43 -3 -110 -13 -148 -22
-38 -9 -75 -13 -83 -10 -8 3 -15 1 -15 -5 0 -6 -10 -9 -22 -8 -13 1 -30 -1
-38 -4 -8 -3 -37 -9 -65 -12 -27 -3 -71 -8 -97 -11 l-48 -6 0 106 c0 78 3 106
13 107 10 0 10 2 0 6 -22 8 -14 33 10 33 13 0 27 3 30 6 4 4 28 9 54 11 26 2
50 8 53 12 3 5 18 7 33 6 15 -2 67 3 115 12 48 8 98 16 112 18 70 9 202 30
250 40 14 3 47 7 73 9 27 2 51 7 54 10 11 11 23 6 23 -9z m-2103 -82 c24 -36
36 -351 28 -717 l-6 -279 -51 -49 c-28 -26 -52 -48 -53 -48 -2 0 -4 204 -4
454 -1 381 -4 463 -17 508 -9 29 -17 71 -18 93 -1 34 3 42 33 62 38 26 59 20
88 -24z m939 -9 c-3 -8 -10 -13 -15 -9 -5 3 -13 0 -16 -6 -4 -5 -13 -8 -21 -5
-7 3 -16 1 -20 -5 -3 -6 -12 -8 -20 -5 -7 3 -16 1 -19 -4 -3 -5 -27 -12 -53
-16 -54 -9 -52 -9 -72 -17 -8 -4 -24 -8 -35 -10 -11 -2 -27 -7 -35 -10 -24 -9
-173 -50 -190 -52 -9 0 -20 -3 -25 -7 -13 -7 -63 -20 -93 -23 -13 -2 -39 -11
-58 -20 -27 -13 -38 -14 -49 -5 -8 7 -20 10 -27 7 -8 -4 -7 -6 5 -6 21 -1 23
-20 2 -22 -28 -3 -33 -4 -41 -11 -16 -17 -40 -7 -42 16 -1 19 5 25 31 31 17 4
34 8 37 9 3 1 10 4 16 8 6 4 25 10 42 13 17 3 44 10 59 17 15 7 33 13 38 13 6
1 23 7 38 13 16 7 34 12 42 12 8 0 16 4 20 9 3 6 13 10 23 10 20 0 71 10 92
18 21 9 38 13 43 12 1 0 14 4 29 10 17 6 29 7 33 1 4 -6 14 -9 23 -9 15 1 15
2 0 6 -10 2 -18 9 -18 14 0 12 77 12 85 -1 3 -5 13 -10 21 -10 8 0 12 5 9 10
-3 6 -1 10 6 10 7 0 9 3 6 6 -4 4 -13 1 -21 -5 -9 -8 -16 -8 -20 -2 -8 13 4
19 45 25 19 3 45 8 59 12 14 3 35 7 47 8 12 0 25 5 30 9 10 11 17 -19 9 -39z
m4993 17 c10 -30 10 -71 -1 -71 -4 0 -8 -9 -8 -19 0 -11 -4 -21 -10 -23 -6 -2
-10 -165 -10 -445 -1 -253 -5 -443 -10 -443 -5 0 -12 -9 -15 -20 -8 -25 -40
-26 -66 -1 -19 18 -20 30 -17 508 l3 490 25 27 c34 36 95 34 109 -3z m-758
-36 c5 -4 20 -8 32 -10 25 -4 175 -46 260 -73 31 -10 55 -21 51 -24 -3 -4 2
-4 13 -2 10 3 32 0 48 -7 17 -7 39 -14 50 -15 33 -4 70 -28 73 -48 3 -15 0
-17 -15 -11 -10 4 -25 7 -33 7 -8 0 -33 7 -55 15 -36 14 -53 18 -93 22 -9 1
-11 8 -7 24 6 20 6 20 -6 5 -10 -11 -23 -15 -41 -11 -16 3 -28 9 -28 13 0 4
-14 7 -31 8 -18 0 -36 5 -42 11 -5 5 -16 7 -25 3 -12 -4 -14 -1 -9 13 6 14 5
16 -7 6 -10 -9 -20 -9 -42 0 -16 7 -39 11 -51 11 -12 -1 -25 3 -28 8 -3 6 -22
10 -41 10 -19 0 -34 4 -34 9 0 5 -8 7 -19 4 -10 -3 -22 0 -25 6 -4 6 -2 11 3
11 6 0 11 7 11 15 0 12 9 15 40 11 22 -3 45 -8 51 -11z m-253 -75 c2 -5 14 -7
28 -4 19 5 24 2 25 -12 0 -11 3 -14 6 -6 7 19 23 4 16 -16 -6 -16 -6 -16 11 1
19 19 29 21 40 10 4 -5 12 -9 17 -9 5 -1 10 -3 12 -4 1 -1 19 -4 40 -6 21 -1
45 -8 52 -14 7 -6 17 -10 21 -9 5 1 12 0 17 -1 4 -1 12 -4 17 -5 6 -1 11 -3
13 -4 2 -2 33 -9 66 -15 8 -2 17 -9 19 -16 3 -8 0 -10 -8 -5 -9 5 -11 4 -6 -3
10 -17 26 -15 26 2 0 12 6 12 33 4 58 -20 62 -21 82 -24 11 -1 38 -9 60 -16
30 -10 40 -19 39 -34 0 -11 5 -21 12 -21 7 0 11 8 9 18 -3 15 0 17 22 8 14 -5
42 -12 62 -15 20 -3 38 -7 39 -9 2 -2 5 -75 8 -162 2 -87 1 -152 -2 -145 -3 6
-10 10 -15 6 -5 -3 -9 0 -9 6 0 6 -4 8 -10 5 -5 -3 -10 -1 -10 5 0 6 -5 8 -10
5 -6 -4 -21 0 -34 9 -13 8 -61 27 -107 42 -46 16 -85 31 -87 35 -2 5 -10 5
-18 2 -8 -3 -14 0 -14 6 0 6 5 11 12 11 6 0 8 3 5 6 -4 4 -13 1 -21 -5 -10 -8
-16 -9 -21 -1 -3 5 -17 10 -30 10 -13 0 -34 4 -47 9 -30 12 -61 24 -70 26 -5
2 -9 3 -10 5 -4 2 -38 10 -72 15 -16 2 -34 9 -39 14 -5 5 -16 7 -23 4 -8 -3
-14 0 -14 7 0 6 -4 9 -9 6 -5 -4 -22 -1 -38 6 -15 6 -32 10 -37 9 -4 -1 -13 2
-20 7 -6 4 -24 9 -41 11 -16 1 -46 6 -65 11 l-35 9 0 127 0 126 55 -5 c30 -3
56 -11 58 -17z m-3999 -47 c16 4 19 -4 24 -57 3 -34 2 -78 -3 -99 -4 -21 -4
-37 1 -37 5 0 9 -4 9 -10 0 -10 -129 -51 -167 -54 -13 0 -23 -5 -23 -9 0 -5
-6 -7 -12 -4 -7 2 -28 -2 -46 -9 -18 -7 -36 -13 -40 -13 -4 1 -9 0 -12 -1 -3
-1 -18 -4 -35 -6 -16 -3 -35 -9 -41 -15 -6 -5 -14 -6 -17 -2 -4 3 -7 2 -7 -4
0 -6 -17 -14 -37 -18 -21 -5 -45 -10 -53 -12 -8 -2 -21 -5 -27 -5 -7 -1 -13
-4 -13 -7 0 -7 -87 -35 -92 -30 -2 1 -14 -4 -28 -11 -14 -8 -28 -15 -32 -16
-5 -1 -11 -3 -15 -4 -5 -1 -11 -2 -15 -1 -5 0 -8 -3 -8 -8 0 -8 -34 -21 -54
-20 -5 1 -12 -4 -15 -9 -3 -5 -16 -12 -28 -16 l-23 -7 0 150 c0 124 3 151 14
151 8 0 22 7 31 16 9 9 19 14 22 11 3 -3 35 6 72 20 36 14 73 26 81 27 8 1 27
8 42 14 15 6 43 12 63 14 19 1 35 6 35 10 0 4 13 8 28 8 16 0 32 3 36 7 3 4
12 8 19 10 7 1 30 7 52 13 22 6 45 12 50 13 6 1 15 5 20 8 6 3 23 6 39 7 16 1
34 6 40 11 16 12 105 32 116 26 5 -3 12 0 17 7 5 9 9 4 11 -15 3 -22 8 -28 21
-24z m1216 -165 c-3 -68 -6 -83 -19 -82 -9 1 -14 -2 -11 -6 8 -12 -20 -30 -46
-30 -23 0 -46 -2 -144 -13 -22 -2 -51 -8 -65 -11 -14 -4 -41 -9 -60 -12 -19
-2 -48 -6 -65 -10 -16 -3 -39 -7 -50 -9 -11 -1 -27 -5 -35 -8 -16 -6 -80 -16
-200 -31 -19 -3 -35 -6 -35 -7 0 -1 -11 -3 -25 -4 -14 -1 -36 -5 -50 -9 -43
-11 -51 4 -53 93 -1 48 2 81 8 82 6 0 19 3 30 6 11 3 32 6 46 7 14 2 30 6 36
9 6 4 18 4 27 1 9 -3 16 -2 16 4 0 5 15 9 33 9 17 0 48 3 67 7 53 10 102 17
129 16 12 0 28 3 35 7 6 5 20 9 31 10 24 2 88 12 130 19 17 4 44 7 61 8 17 2
36 6 43 10 6 4 21 6 34 5 12 -1 29 1 37 4 8 4 33 8 55 10 22 2 41 4 42 5 1 1
0 -35 -2 -80z m1189 74 c34 -6 39 -11 42 -37 2 -17 0 -44 -4 -60 -12 -44 -29
-46 -377 -44 -33 0 -114 0 -180 0 -66 0 -131 0 -145 0 -14 0 -41 1 -60 0 -19
0 -55 1 -80 2 l-44 2 -13 60 c-7 33 -10 65 -8 71 4 14 801 19 869 6z m404 -5
c20 7 64 -6 57 -17 -4 -6 5 -5 19 1 13 7 33 8 43 4 10 -4 40 -9 66 -11 27 -2
57 -9 67 -14 9 -5 19 -7 22 -5 2 3 20 0 39 -5 19 -6 55 -11 82 -11 26 -1 49
-5 52 -9 3 -4 13 -6 24 -3 10 2 47 -2 82 -11 35 -9 80 -18 99 -20 44 -6 101
-24 78 -25 -10 -1 -18 -5 -18 -10 0 -6 9 -8 20 -6 17 3 20 -2 21 -33 2 -62 -2
-96 -13 -109 -12 -15 -58 -17 -58 -3 0 6 -11 8 -26 4 -24 -6 -26 -5 -19 17 7
22 7 22 -10 6 -14 -14 -27 -17 -64 -11 -25 4 -50 9 -56 12 -5 4 -32 8 -60 10
-27 2 -52 7 -55 10 -3 4 -27 8 -54 10 -27 1 -54 6 -61 12 -6 5 -21 7 -33 3
-13 -3 -22 -1 -22 6 0 7 -14 11 -32 11 -18 -1 -49 1 -68 4 -19 3 -48 7 -65 9
-93 12 -115 36 -115 127 0 68 1 69 23 61 12 -4 28 -6 35 -4z m964 -159 c6 -10
8 -10 8 2 1 8 6 4 11 -9 11 -28 9 -104 -3 -123 -5 -9 -8 -7 -9 7 0 11 -3 14
-6 7 -3 -7 0 -19 7 -27 9 -11 7 -16 -10 -25 -18 -9 -31 -8 -65 4 l-42 17 -2
86 -2 86 52 -6 c29 -4 56 -12 61 -19z m-3505 -70 c-2 -69 -6 -83 -24 -98 -29
-23 -128 -27 -119 -5 3 8 0 17 -6 21 -8 5 -7 85 2 132 0 1 11 2 24 2 14 0 28
5 31 10 4 6 10 8 14 6 4 -3 12 -2 18 2 6 4 23 8 37 8 l25 2 -2 -80z m3693 42
c16 0 31 -4 35 -10 3 -5 12 -7 20 -3 8 3 15 1 15 -4 0 -5 17 -10 37 -11 21 -2
41 -8 45 -15 4 -7 8 -9 8 -5 0 7 162 -36 182 -48 7 -5 19 -10 26 -11 14 -3 46
-11 50 -12 1 -1 3 -1 5 -1 6 1 148 -50 159 -57 7 -4 21 -9 32 -10 10 -2 33
-10 50 -17 17 -8 59 -27 94 -42 l62 -27 -1 -111 c-1 -61 -4 -105 -6 -98 -4 10
-8 10 -19 1 -10 -8 -14 -8 -14 0 0 6 -5 11 -11 11 -18 0 -174 64 -181 75 -4 5
-8 6 -8 1 0 -5 -6 -3 -13 3 -8 6 -17 8 -20 4 -4 -3 -7 -1 -7 5 0 6 -7 9 -15 6
-8 -4 -15 -1 -15 5 0 6 -7 8 -15 5 -8 -4 -15 -1 -15 6 0 6 -4 9 -8 6 -5 -3
-20 1 -35 9 -15 8 -27 11 -27 8 0 -3 -6 0 -13 6 -8 6 -17 8 -20 4 -4 -3 -7 -1
-7 6 0 7 -4 10 -9 7 -7 -5 -105 25 -171 51 -8 3 -22 7 -30 8 -8 2 -42 11 -75
20 -33 10 -70 20 -82 22 -13 3 -23 10 -23 15 0 5 -4 7 -9 3 -14 -8 -41 34 -34
53 4 8 2 13 -3 10 -5 -4 -9 27 -9 72 0 77 0 77 23 69 13 -5 36 -9 52 -9z
m-3945 -43 c4 -13 4 -50 1 -83 -7 -72 -37 -104 -90 -95 -4 1 -14 -4 -22 -10
-8 -6 -14 -8 -14 -3 0 5 -4 4 -8 -2 -5 -8 -98 -38 -154 -50 -5 -1 -10 -3 -13
-4 -3 -1 -8 -3 -12 -5 -5 -1 -15 -5 -23 -8 -63 -26 -125 -45 -132 -41 -4 3 -8
0 -8 -6 0 -7 -7 -10 -15 -6 -8 3 -15 1 -15 -4 0 -6 -8 -10 -18 -10 -10 0 -35
-9 -56 -20 -22 -10 -43 -17 -47 -14 -5 3 -9 1 -9 -4 0 -9 -48 -26 -59 -22 -2
1 -7 -2 -10 -7 -9 -13 -101 -46 -108 -39 -8 8 -14 145 -8 174 3 13 10 20 15
17 6 -3 10 -2 10 3 0 9 23 19 65 28 11 3 22 9 23 14 2 6 10 10 17 10 7 0 25 7
41 14 15 8 31 13 36 10 4 -3 8 0 8 5 0 6 11 11 24 11 14 0 28 5 31 10 4 6 11
7 17 4 6 -4 14 -1 18 6 5 7 19 14 32 16 12 1 24 3 26 4 1 2 5 3 10 4 4 1 18 8
30 15 13 7 26 10 29 8 3 -3 24 1 46 10 23 8 60 19 82 24 34 8 61 15 73 18 1 1
3 0 5 -1 1 -1 11 4 23 10 16 8 24 8 33 -1 10 -9 11 -8 6 6 -6 13 -2 17 16 18
48 3 70 6 76 13 12 12 23 6 28 -17z m2570 -70 c22 -3 72 -8 110 -11 74 -7 128
-12 185 -20 19 -2 61 -7 94 -10 60 -7 112 -25 72 -26 -24 0 -12 -13 14 -15 10
-1 18 3 17 9 -2 11 17 12 63 3 14 -3 52 -8 84 -12 33 -4 70 -11 82 -16 13 -4
41 -10 62 -13 59 -7 116 -18 127 -24 5 -3 16 -7 25 -9 8 -1 31 -5 50 -8 19 -4
42 -9 50 -12 8 -3 22 -5 32 -4 9 1 19 -3 23 -9 3 -6 10 -8 15 -5 4 3 26 -2 48
-9 22 -8 42 -12 45 -10 3 3 19 -2 36 -10 17 -9 34 -16 38 -15 4 1 10 0 13 -1
3 -1 14 -3 25 -5 11 -2 29 -6 40 -9 11 -2 28 -5 38 -5 10 -1 22 -11 27 -23 6
-17 9 -18 9 -6 1 14 6 15 29 9 15 -5 56 -17 92 -27 36 -9 70 -21 76 -26 6 -4
20 -9 32 -11 12 -2 24 -6 28 -9 3 -4 12 -4 20 -1 8 3 14 -1 14 -10 0 -9 4 -19
10 -22 6 -4 7 1 3 11 -5 13 -3 15 8 8 8 -5 17 -9 22 -10 4 -1 9 -3 12 -4 3 -1
11 -3 18 -4 6 0 12 -6 12 -13 0 -6 4 -15 8 -20 5 -4 7 -3 5 2 -2 6 2 10 7 10
6 0 9 -4 7 -10 -2 -5 2 -4 9 2 8 8 17 9 24 3 6 -5 23 -11 39 -14 40 -7 146
-50 146 -58 0 -5 6 -8 14 -8 19 0 119 -52 128 -66 4 -7 19 -15 34 -18 18 -5
24 -12 20 -22 -3 -9 -2 -12 4 -9 6 3 13 -1 16 -9 3 -9 10 -13 15 -10 5 3 6 -2
3 -11 -4 -9 -19 -22 -35 -31 -16 -8 -29 -19 -29 -24 0 -21 -224 -153 -275
-162 -11 -1 -22 -5 -25 -8 -3 -3 -29 -16 -58 -28 l-53 -21 -10 22 c-6 12 -27
33 -47 47 -20 14 -39 27 -42 30 -3 3 -22 14 -42 24 -21 11 -38 23 -38 28 0 5
-4 7 -9 3 -6 -3 -14 3 -20 12 -6 10 -11 15 -11 11 0 -9 -202 92 -212 107 -4 5
-8 7 -8 3 0 -10 -83 23 -92 36 -4 6 -8 7 -8 2 0 -4 -11 -1 -25 8 -13 9 -34 16
-46 16 -16 0 -20 4 -14 18 5 13 4 14 -6 5 -9 -9 -16 -10 -26 -2 -7 7 -13 8
-13 4 0 -4 -6 -3 -13 3 -7 6 -24 13 -37 15 -48 9 -115 29 -126 38 -6 5 -14 6
-17 2 -4 -3 -13 0 -21 6 -8 7 -20 10 -25 7 -5 -4 -12 -2 -16 3 -3 6 -12 8 -20
4 -8 -3 -15 -1 -15 5 0 6 -9 8 -20 5 -12 -3 -20 0 -20 6 0 7 -5 9 -10 6 -6 -4
-17 -2 -24 4 -8 7 -18 11 -22 10 -5 -1 -11 -1 -14 0 -3 1 -22 4 -44 6 -21 2
-44 9 -50 15 -7 5 -15 7 -18 5 -5 -6 -168 22 -198 33 -8 3 -19 4 -24 3 -5 -1
-16 1 -25 5 -9 3 -36 8 -61 11 -25 2 -88 10 -140 18 -52 8 -129 18 -170 20
-41 3 -82 8 -90 12 -8 3 -71 7 -140 10 -81 3 -127 8 -132 16 -5 9 -8 8 -8 -3
0 -10 -3 -11 -8 -4 -8 13 -505 2 -692 -14 -63 -6 -122 -11 -130 -10 -8 0 -80
-10 -160 -23 -80 -12 -164 -23 -187 -23 -24 -1 -43 -5 -43 -9 0 -5 -8 -7 -17
-6 -10 1 -37 -3 -61 -10 -24 -7 -58 -13 -76 -15 -18 -2 -38 -6 -44 -10 -6 -4
-28 -8 -49 -10 -21 -3 -51 -9 -67 -16 -16 -6 -35 -9 -42 -6 -7 3 -14 1 -16 -4
-2 -5 -16 -11 -33 -14 -16 -2 -32 -5 -35 -7 -3 -1 -9 -3 -15 -4 -5 -2 -13 -4
-17 -5 -5 -1 -11 -3 -15 -5 -5 -1 -20 -7 -35 -13 -15 -6 -39 -12 -55 -14 -15
-2 -30 -6 -33 -9 -3 -3 -36 -16 -75 -29 -88 -29 -392 -157 -405 -170 -14 -14
-68 -39 -74 -33 -3 3 -6 2 -6 -4 0 -6 -11 -14 -24 -17 -14 -3 -31 -12 -38 -19
-8 -6 -21 -16 -30 -22 -9 -5 -42 -28 -75 -51 -32 -22 -64 -39 -72 -36 -8 3
-11 0 -7 -6 4 -6 -6 -19 -21 -29 -15 -10 -33 -25 -40 -33 -10 -12 -12 -12 -13
-1 0 7 -6 11 -14 8 -7 -3 -19 0 -25 6 -6 6 -11 8 -11 4 0 -4 -9 -3 -20 3 -11
6 -19 14 -16 18 2 4 -10 8 -28 9 -37 2 -176 68 -176 83 0 6 -5 8 -10 5 -6 -3
-13 1 -16 9 -3 9 -11 16 -18 16 -20 0 -112 95 -111 116 0 31 71 88 190 155 65
36 95 45 95 28 0 -5 5 -7 10 -4 6 4 8 10 5 15 -4 6 74 52 95 55 3 1 23 9 45
19 21 9 46 18 55 20 15 3 30 8 90 31 41 16 92 29 103 27 4 -1 7 3 7 9 0 6 6 9
14 6 8 -3 17 -3 20 1 4 3 13 7 21 9 27 5 50 11 53 13 1 2 6 3 11 4 5 0 13 4
17 9 4 4 18 7 31 7 14 0 33 5 43 10 10 6 32 11 47 13 16 2 34 7 41 11 7 4 17
4 22 1 6 -3 10 -2 10 4 0 6 6 8 14 5 8 -3 17 0 21 5 3 6 10 9 15 6 5 -3 18 -1
29 4 10 6 34 13 52 15 19 3 43 7 54 10 79 21 94 23 110 13 13 -7 16 -6 11 2
-4 6 -4 11 1 12 49 5 222 38 276 53 29 8 59 14 67 14 8 0 25 3 37 6 13 2 25 0
29 -6 4 -7 9 -6 14 2 12 19 110 32 129 17 12 -9 13 -9 7 1 -4 7 -2 12 6 13 53
5 77 8 103 14 66 13 122 19 294 29 51 3 95 7 97 9 6 6 1084 0 1129 -6z m-160
-345 c22 -5 59 -10 83 -11 23 -1 73 -6 110 -11 37 -5 92 -12 122 -15 30 -3 70
-10 89 -15 19 -5 38 -7 43 -4 5 3 15 1 23 -6 8 -6 24 -10 37 -8 16 2 22 -1 20
-11 -3 -12 0 -12 12 -2 9 8 24 10 38 5 13 -4 27 -7 32 -6 4 2 14 -2 20 -8 7
-5 15 -7 18 -5 7 7 197 -32 221 -45 9 -6 38 -12 63 -15 25 -2 50 -8 57 -12 6
-4 25 -8 42 -10 16 -2 32 -8 33 -13 2 -6 8 -8 13 -4 5 3 15 2 22 -3 6 -4 17
-8 22 -9 32 -3 75 -18 75 -25 0 -5 7 -6 15 -3 8 4 15 1 15 -6 0 -6 4 -9 9 -6
11 7 71 -16 71 -27 0 -4 4 -6 9 -2 9 5 59 -13 71 -25 3 -3 10 -5 15 -6 25 -1
65 -17 65 -26 0 -5 4 -7 9 -3 5 3 16 -1 24 -9 8 -8 16 -13 18 -11 2 2 54 -23
114 -55 76 -40 110 -63 109 -74 -1 -12 1 -14 10 -6 9 7 24 0 52 -25 21 -19 47
-38 57 -41 25 -8 5 -30 -36 -40 -18 -4 -35 -9 -39 -10 -5 -1 -9 -2 -10 -3 -2
-1 -17 -4 -34 -6 -23 -3 -36 1 -51 18 -27 29 -63 58 -63 50 0 -3 -8 1 -17 9
-10 8 -40 27 -68 43 -27 16 -52 31 -55 34 -3 3 -10 7 -16 8 -7 1 -34 15 -60
31 -27 15 -75 39 -106 52 -32 13 -58 28 -58 34 0 5 -3 7 -6 3 -4 -3 -20 1 -36
9 -17 9 -37 17 -46 19 -16 3 -152 55 -197 74 -11 5 -41 15 -67 22 -27 8 -48
18 -48 23 0 5 -3 7 -6 4 -3 -4 -38 3 -77 14 -40 11 -79 21 -87 23 -8 2 -17 4
-20 5 -3 1 -13 2 -22 1 -10 -1 -18 2 -18 7 0 6 -9 8 -20 5 -16 -4 -20 0 -20
21 0 15 -4 25 -10 21 -5 -3 -6 -13 -3 -22 5 -13 2 -15 -18 -10 -13 4 -62 13
-109 21 -47 9 -112 20 -145 26 -33 6 -71 11 -85 10 -13 0 -49 5 -80 10 -141
27 -806 34 -1025 10 -71 -8 -148 -14 -170 -15 -22 0 -45 -4 -52 -8 -6 -4 -22
-7 -34 -6 -45 1 -285 -51 -419 -90 -125 -37 -136 -39 -149 -23 -12 15 -12 15
-7 -5 6 -19 2 -23 -31 -30 -21 -4 -40 -8 -43 -8 -3 -1 -27 -12 -55 -24 -27
-12 -97 -43 -155 -68 -58 -25 -110 -49 -116 -54 -6 -5 -14 -6 -17 -2 -4 3 -7
2 -7 -4 0 -6 -12 -16 -27 -22 -16 -6 -53 -27 -83 -46 -30 -19 -61 -34 -67 -35
-7 0 -13 -4 -13 -9 0 -8 -79 -65 -90 -64 -3 0 -9 -5 -15 -11 -21 -23 -68 -60
-61 -48 4 7 -13 -7 -39 -32 -44 -43 -85 -60 -85 -35 0 5 -4 8 -9 5 -4 -3 -32
4 -62 15 -30 11 -62 23 -71 26 -25 8 -22 15 18 43 19 14 41 31 49 38 7 6 18
12 24 12 6 0 11 5 11 11 0 5 4 8 9 5 5 -3 11 0 14 7 2 6 35 28 73 47 38 19 71
38 74 41 11 13 218 114 266 129 21 7 50 17 64 23 14 6 27 11 30 12 3 1 19 7
35 14 17 7 45 15 63 18 18 3 35 10 38 14 6 11 51 12 57 2 2 -5 3 -3 1 2 -2 11
97 50 146 59 14 3 27 6 30 7 3 1 10 3 15 4 6 2 12 4 15 5 3 1 14 3 25 5 11 2
30 6 43 9 54 14 68 18 90 22 12 2 34 7 50 10 15 3 45 8 67 10 22 3 50 10 62
16 12 6 29 8 37 5 8 -3 18 -2 21 3 3 5 16 10 28 10 39 1 100 9 182 23 44 8
141 20 215 27 74 6 142 13 150 14 42 8 741 -3 775 -12z m2709 -184 c-1 -9 5
-15 15 -13 9 1 27 -5 41 -14 14 -9 43 -25 64 -35 31 -13 36 -20 25 -27 -10 -6
-5 -9 18 -9 39 0 80 -18 110 -47 12 -13 20 -23 17 -23 -3 0 6 -12 20 -26 14
-16 22 -33 18 -42 -3 -9 -1 -13 5 -9 6 4 14 -5 18 -21 4 -15 6 -27 4 -27 -1 0
9 -19 24 -41 20 -32 23 -44 14 -54 -9 -10 -9 -11 1 -6 6 4 12 2 12 -3 0 -6 5
-10 12 -9 7 2 12 -3 13 -10 0 -8 8 -20 18 -27 13 -10 16 -20 11 -40 -5 -20 -4
-26 5 -21 6 4 11 1 11 -6 0 -9 3 -9 10 2 5 8 10 12 10 8 0 -5 -1 -9 -2 -11 -6
-6 47 -54 55 -50 4 2 7 -3 7 -12 0 -9 5 -13 10 -10 6 3 10 2 10 -4 0 -21 39
-6 55 21 9 15 22 28 28 28 8 0 8 3 -2 9 -9 6 -4 10 19 13 18 3 37 -1 44 -7 6
-7 22 -15 33 -19 14 -4 20 -12 16 -22 -3 -9 2 -14 16 -14 12 0 21 5 21 11 0 5
-4 7 -10 4 -5 -3 -10 -1 -10 4 0 19 22 12 27 -8 3 -13 11 -17 24 -14 12 3 19
0 19 -8 0 -12 2 -12 9 -1 24 39 239 -121 256 -191 8 -31 -1 -49 -14 -28 -6 10
-10 9 -14 -4 -6 -14 -93 -16 -1024 -12 l-1018 3 -97 26 c-96 26 -198 73 -235
107 -10 10 -24 16 -31 13 -20 -6 -14 7 12 23 40 26 332 127 313 108 -3 -3 0
-18 8 -34 19 -35 19 -39 -1 -39 -8 0 -12 -5 -9 -10 4 -6 -1 -23 -11 -38 -10
-15 -17 -30 -16 -34 1 -5 -3 -8 -9 -8 -8 0 -8 -5 1 -15 7 -8 20 -14 29 -13 9
2 15 -3 13 -11 -3 -12 0 -12 11 -2 12 9 16 9 20 -1 3 -8 6 -6 6 5 1 24 36 68
46 59 5 -4 5 -2 2 4 -4 7 -2 26 5 44 8 24 8 45 -1 83 -6 27 -9 52 -7 54 4 4
23 9 96 27 9 2 16 -3 17 -12 0 -10 4 -32 8 -49 6 -28 5 -33 -11 -34 -17 -1
-17 -2 -1 -6 9 -2 15 -9 12 -14 -4 -5 -1 -9 4 -9 6 0 11 3 11 8 0 4 14 13 30
20 19 9 30 21 30 33 0 11 3 18 8 15 8 -5 7 51 -2 74 -5 11 9 19 56 33 96 28
331 146 369 185 31 32 79 72 79 65 0 -3 16 15 36 40 20 26 41 47 46 47 5 0 6
5 3 10 -3 6 -1 10 4 10 6 0 11 6 11 14 0 7 8 20 17 27 9 8 14 9 10 2 -5 -7 -1
-9 12 -6 10 3 22 0 25 -6 11 -17 26 -13 20 4 -4 8 -17 15 -30 15 -23 0 -31 10
-18 23 13 13 59 1 58 -15z m-6276 -26 c2 -13 8 -19 14 -16 8 5 9 -4 5 -27 -4
-21 -4 -29 2 -20 7 10 12 8 24 -10 9 -12 14 -26 12 -30 -3 -4 2 -10 11 -13 8
-3 13 -10 10 -15 -3 -5 6 -16 20 -25 13 -10 30 -28 36 -42 6 -13 16 -24 22
-24 6 0 17 -9 24 -20 7 -11 19 -20 27 -20 8 0 15 -4 15 -10 0 -5 5 -10 11 -10
6 0 30 -15 52 -32 23 -18 44 -33 47 -34 21 -3 60 -25 60 -34 0 -6 4 -8 10 -5
5 3 26 -3 47 -13 21 -10 63 -27 93 -38 30 -10 56 -19 57 -19 2 -1 -6 -21 -18
-44 -14 -30 -18 -53 -14 -84 8 -67 9 -71 33 -111 20 -34 26 -37 60 -35 21 2
42 0 47 -3 6 -3 11 9 12 28 1 25 -3 35 -18 39 -36 12 -61 93 -40 130 6 10 7
15 10 34 2 17 31 20 46 5 11 -12 15 -12 15 -2 0 11 2 11 9 0 4 -8 12 -14 17
-14 5 0 8 -3 7 -7 -1 -3 13 -6 30 -6 18 0 32 -5 32 -12 0 -6 3 -15 8 -19 4 -4
7 0 7 9 0 21 10 21 36 2 10 -8 29 -15 42 -15 12 0 22 -4 22 -10 0 -5 3 -9 8
-9 14 3 73 -14 78 -22 3 -5 14 -9 25 -9 25 0 24 -8 -2 -29 -16 -13 -22 -29
-22 -60 0 -24 6 -47 13 -51 6 -4 10 -16 8 -26 -3 -18 -30 -19 -853 -21 -793
-2 -853 -1 -900 16 -55 19 -53 11 -41 128 5 52 23 93 41 93 5 0 19 -12 32 -26
l22 -26 22 25 c11 14 26 24 33 23 6 -2 7 -1 3 2 -4 2 -3 10 3 17 16 19 20 64
7 72 -6 4 -3 10 9 14 16 6 16 8 2 8 -10 1 -24 14 -32 30 -15 27 -14 29 4 24
11 -3 17 -9 14 -14 -2 -5 7 -11 21 -15 17 -4 24 -11 21 -20 -3 -8 0 -13 7 -11
7 1 11 -6 10 -16 -1 -15 4 -18 23 -14 14 2 27 0 30 -4 3 -5 17 -9 31 -9 15 0
23 3 20 7 -4 3 -2 12 4 19 6 8 8 21 3 31 -4 10 -8 21 -8 25 -1 4 -7 13 -13 20
-7 6 -13 17 -13 22 0 6 -14 25 -32 43 -32 33 -32 33 -12 50 11 10 24 19 29 20
6 1 41 22 78 47 38 25 72 44 77 41 5 -3 10 -2 12 3 5 12 138 104 138 95 0 -4
7 3 16 15 8 12 21 22 28 22 8 0 19 7 26 15 7 8 16 12 21 10 4 -3 16 6 26 19
21 29 37 28 41 -2z"/>
<path d="M4153 4175 c1 -5 -5 -8 -13 -7 -8 2 -12 0 -8 -4 4 -4 3 -13 -4 -21
-6 -8 -7 -13 -2 -12 5 1 11 0 14 -1 3 -1 18 -4 35 -6 16 -3 32 -8 35 -12 3 -4
10 -7 15 -7 9 0 77 -8 200 -21 22 -3 94 -11 160 -19 66 -8 192 -21 280 -30 88
-8 192 -20 230 -25 39 -6 79 -11 90 -12 35 -1 190 -24 190 -28 0 -1 11 -3 24
-6 25 -4 51 -21 51 -33 0 -12 -86 -58 -169 -91 -137 -54 -167 -95 -121 -165
11 -16 20 -27 20 -23 0 4 12 3 28 -3 31 -12 181 -34 292 -43 41 -4 188 -15
325 -26 369 -29 470 -39 680 -66 315 -40 425 -62 590 -115 131 -43 172 -67
162 -93 -4 -10 -11 -14 -17 -11 -5 3 -10 1 -10 -5 0 -6 -4 -8 -10 -5 -5 3 -10
2 -10 -3 0 -5 -41 -15 -91 -21 -98 -13 -289 -5 -289 12 0 5 -11 6 -25 3 -14
-4 -25 -2 -25 3 0 6 -6 8 -14 5 -8 -3 -34 1 -58 9 -23 9 -44 11 -46 6 -2 -5
-10 -9 -18 -9 -23 0 -16 -25 14 -46 44 -32 123 -52 255 -65 190 -17 329 6 392
65 44 42 48 93 11 131 -39 39 -233 125 -282 125 -7 0 -25 5 -41 12 -15 6 -39
13 -53 15 -14 2 -99 18 -190 34 -91 16 -183 31 -205 33 -22 2 -76 6 -119 10
-43 4 -83 9 -88 12 -4 3 -38 7 -75 9 -100 6 -403 34 -443 41 -19 4 -71 7 -115
9 -142 4 -280 14 -351 26 -38 6 -77 11 -86 10 -9 0 -19 7 -22 15 -6 14 19 28
99 54 158 51 229 134 175 203 -41 52 -139 84 -280 93 -47 3 -112 10 -145 15
-33 6 -80 12 -105 14 -25 1 -56 6 -69 9 -14 3 -72 8 -131 10 -58 3 -112 7
-120 10 -8 3 -49 8 -90 11 -41 3 -97 8 -125 11 -68 6 -118 9 -195 13 -47 2
-59 5 -45 11 15 6 9 8 -22 7 -23 -1 -41 -6 -40 -12z"/>
<path d="M2248 3663 c-5 -25 -2 -100 5 -96 4 2 7 -1 7 -6 0 -6 -4 -11 -10 -11
-5 0 -10 -9 -10 -20 0 -13 7 -20 19 -20 11 0 23 -5 26 -10 4 -7 -2 -9 -17 -5
-22 6 -25 3 -25 -23 0 -28 2 -29 16 -13 9 9 13 12 9 7 -12 -16 -9 -26 6 -20
10 4 15 -5 18 -31 2 -20 0 -38 -4 -41 -4 -3 -8 4 -8 15 0 12 -6 21 -12 21 -14
1 -88 92 -88 108 0 6 -5 12 -10 14 -6 2 -12 17 -14 33 -2 17 -9 30 -15 30 -7
0 -18 8 -25 18 -15 20 -33 22 -38 5 -7 -20 13 -99 33 -135 11 -19 17 -38 14
-44 -3 -5 0 -6 8 -3 8 3 17 -3 21 -13 12 -32 39 -78 55 -92 9 -7 5 -6 -9 3
-14 9 -36 21 -50 26 -49 20 -66 32 -118 80 -32 30 -58 47 -67 43 -16 -6 -21
-23 -6 -23 5 0 12 -12 16 -27 7 -30 70 -105 79 -95 3 3 6 -1 6 -10 0 -8 12
-20 26 -26 14 -7 22 -16 19 -22 -3 -5 6 -12 20 -16 13 -3 22 -10 19 -15 -8
-13 -44 -11 -44 3 0 9 -3 9 -11 1 -8 -8 -20 -8 -35 -3 -13 5 -24 7 -24 4 0 -4
-6 -2 -12 4 -18 15 -71 19 -75 6 -4 -12 37 -68 44 -60 5 4 15 -2 47 -31 8 -7
16 -9 20 -6 3 4 6 1 6 -6 0 -7 5 -9 10 -6 6 3 10 -4 10 -17 0 -18 2 -20 10 -8
6 10 10 11 10 3 0 -20 48 -15 59 6 6 10 7 21 4 25 -6 5 23 9 30 4 2 -2 14 4
28 13 27 18 126 19 209 2 62 -12 80 -7 87 28 6 34 6 44 -4 45 -20 2 -83 35
-83 43 0 6 16 15 35 22 19 7 35 18 35 25 0 7 3 21 6 31 5 15 4 16 -6 3 -10
-13 -11 -12 -6 3 3 10 6 23 6 28 0 6 4 7 10 4 6 -3 7 1 4 9 -3 9 -2 16 3 16 5
0 9 10 10 21 1 12 10 31 20 43 22 26 24 77 3 83 -13 4 -13 3 0 -6 13 -9 13
-11 -1 -11 -9 0 -23 -7 -30 -16 -14 -17 -58 -39 -72 -35 -5 1 -5 -3 -2 -9 4
-6 13 -9 21 -6 12 4 12 2 4 -15 -6 -11 -18 -23 -26 -26 -8 -3 -13 -12 -10 -19
3 -8 1 -14 -4 -14 -4 0 -7 35 -6 78 4 85 -3 125 -19 114 -18 -12 -43 -74 -38
-91 3 -9 -6 -1 -21 18 -14 19 -26 39 -26 43 0 12 -53 78 -62 78 -5 0 -9 -3
-10 -7z"/>
</g>
</svg>
