<?xml version="1.0" encoding="UTF-8"?>
<svg version="1.1" xmlns="http://www.w3.org/2000/svg" width="1024" height="1024">
<path d="M0 0 C3.89303517 1.40330337 6.34786786 3.71627385 9.2109375 6.58984375 C10.35823857 7.69654398 11.50801187 8.8006866 12.66015625 9.90234375 C13.22782715 10.44761719 13.79549805 10.99289062 14.38037109 11.5546875 C16.66587595 13.69008936 19.07752261 15.64170656 21.5234375 17.58984375 C25.6900996 20.93286334 29.62763562 24.44099512 33.5234375 28.08984375 C38.27366708 32.53860437 43.16229972 36.71272174 48.24609375 40.78125 C51.98663497 43.89047624 55.53421477 47.19206494 59.05297852 50.54907227 C61.3874918 52.74418798 62.93852457 54.06153944 66.0234375 55.08984375 C66.0234375 56.07984375 66.0234375 57.06984375 66.0234375 58.08984375 C66.56871094 58.31542969 67.11398437 58.54101562 67.67578125 58.7734375 C70.72150736 60.48127394 73.07667722 62.76036146 75.5859375 65.15234375 C79.41809541 68.74096703 83.29264182 72.18628986 87.3984375 75.46484375 C92.49054868 79.5621141 97.26156409 83.93957222 102.01831055 88.41552734 C105.18431029 91.39347841 108.384691 94.28943769 111.7109375 97.08984375 C114.46923726 99.49816569 116.72783235 101.57320119 118.0234375 105.08984375 C117.5234375 107.77734375 117.5234375 107.77734375 116.0234375 110.08984375 C113.7109375 111.58984375 113.7109375 111.58984375 111.0234375 112.08984375 C106.74738939 110.40193002 103.8808468 107.05430696 100.73828125 103.80859375 C98.64207934 101.70761689 96.38737614 99.88070636 94.0234375 98.08984375 C93.23971915 102.91723691 92.90527632 107.52621463 92.92578125 112.41455078 C92.92724152 113.10979858 92.92870178 113.80504639 92.9302063 114.5213623 C92.93398687 116.01799364 92.9400761 117.51462062 92.94827271 119.01123428 C92.96112543 121.38232571 92.9675742 123.75336069 92.97241211 126.1244812 C92.98379346 131.15462753 93.00304449 136.18472694 93.0234375 141.21484375 C93.04707254 147.05353341 93.0674444 152.89219639 93.07937622 158.7309227 C93.08583988 161.06244247 93.09834459 163.39387963 93.11108398 165.72537231 C93.11471739 167.15822275 93.11806901 168.59107393 93.12109375 170.02392578 C93.12633057 171.27078156 93.13156738 172.51763733 93.13696289 173.80227661 C93.0368255 176.70214237 92.69861972 179.27593091 92.0234375 182.08984375 C92.79129578 182.0809613 93.55915405 182.07207886 94.35028076 182.06292725 C101.58934205 181.98275349 108.82818785 181.9218657 116.06757736 181.88259506 C119.78938498 181.86172671 123.51082552 181.83342394 127.23242188 181.78808594 C130.8245326 181.74459962 134.41629045 181.72070098 138.0086441 181.71033478 C139.37860927 181.70294825 140.74855527 181.68852374 142.11837006 181.66692352 C144.03803139 181.63785895 145.9580484 181.63620959 147.87792969 181.63574219 C149.51674103 181.62241852 149.51674103 181.62241852 151.18865967 181.60882568 C154.70095724 182.2048084 155.90512294 183.27140078 158.0234375 186.08984375 C157.8984375 188.77734375 157.8984375 188.77734375 157.0234375 191.08984375 C154.65826092 192.27243204 153.17885211 192.24510887 150.5378418 192.29417419 C149.57476105 192.31391485 148.6116803 192.33365551 147.61941528 192.35399437 C146.5397348 192.37051363 145.46005432 192.38703289 144.34765625 192.40405273 C143.1851535 192.42471109 142.02265076 192.44536945 140.82492065 192.46665382 C137.50400322 192.52241976 134.18310942 192.57249018 130.8620491 192.618541 C128.6879547 192.64875692 126.51388527 192.68046731 124.33981323 192.71224785 C74.4212934 193.42597768 24.49171817 193.20292959 -25.43067932 193.16187131 C-35.29265287 193.15384922 -45.15462546 193.1484519 -55.01660156 193.14477539 C-56.07069074 193.14438131 -56.07069074 193.14438131 -57.14607465 193.14397926 C-60.67505223 193.14267323 -64.20402983 193.14140967 -67.73300743 193.14016736 C-94.63646431 193.13064796 -121.53991542 193.11527533 -148.44336605 193.09450585 C-149.25237645 193.09388915 -150.06138685 193.09327245 -150.89491272 193.09263706 C-151.59167146 193.09209499 -152.28843019 193.09155292 -153.00630283 193.09099442 C-154.99638909 193.08983217 -156.98647591 193.08984375 -158.9765625 193.08984375 C-159.6365625 192.42984375 -160.2965625 191.76984375 -160.9765625 191.08984375 C-160.7890625 187.58984375 -160.7890625 187.58984375 -159.9765625 184.08984375 C-156.47013543 181.75222571 -155.088003 181.84598395 -150.94458008 181.86279297 C-149.6861731 181.86303467 -148.42776611 181.86327637 -147.13122559 181.86352539 C-145.79451296 181.87359635 -144.45780228 181.8839295 -143.12109375 181.89453125 C-141.29741272 181.89755249 -141.29741272 181.89755249 -139.43688965 181.90063477 C-134.88757565 181.91111281 -130.33831536 181.9390353 -125.7890625 181.96484375 C-115.6209375 182.00609375 -105.4528125 182.04734375 -94.9765625 182.08984375 C-95.3065625 154.36984375 -95.6365625 126.64984375 -95.9765625 98.08984375 C-98.9465625 101.05984375 -101.9165625 104.02984375 -104.9765625 107.08984375 C-110.94852512 112.06647926 -110.94852512 112.06647926 -114.7265625 112.15234375 C-117.51199007 110.83700295 -118.65564894 109.88707246 -119.9765625 107.08984375 C-118.76681164 102.41908382 -115.8482082 99.54008616 -112.4765625 96.27734375 C-111.97769531 95.77525391 -111.47882813 95.27316406 -110.96484375 94.75585938 C-107.24396259 91.08984375 -107.24396259 91.08984375 -104.9765625 91.08984375 C-104.9765625 90.42984375 -104.9765625 89.76984375 -104.9765625 89.08984375 C-103.3389353 87.63582033 -101.63922054 86.25135697 -99.9140625 84.90234375 C-96.60107286 82.25617241 -93.41006908 79.65245331 -90.4765625 76.58984375 C-87.76759576 73.78458673 -84.89320711 71.34354843 -81.8515625 68.90234375 C-76.32635203 64.45633533 -71.15422852 59.70521591 -65.97265625 54.87109375 C-63.03456394 52.13168204 -60.02825205 49.48118776 -56.98828125 46.85546875 C-54.51043543 44.68073805 -52.09077375 42.44645973 -49.6640625 40.21484375 C-46.14767442 37.00150964 -42.5794727 33.92906977 -38.8515625 30.96484375 C-33.84967574 26.94189768 -29.23813794 22.58851307 -24.6015625 18.15234375 C-19.4666902 13.27606624 -14.31453193 8.46121191 -8.7890625 4.02734375 C-7.31373047 2.83431641 -7.31373047 2.83431641 -5.80859375 1.6171875 C-2.9765625 0.08984375 -2.9765625 0.08984375 0 0 Z M-6.6015625 18.15234375 C-7.50648438 18.9825 -8.41140625 19.81265625 -9.34375 20.66796875 C-10.21257812 21.4671875 -11.08140625 22.26640625 -11.9765625 23.08984375 C-15.6635897 26.37707282 -19.40184927 29.60394943 -23.1640625 32.8046875 C-29.4965677 38.19675657 -35.74938972 43.6466594 -41.85620117 49.29370117 C-45.15296121 52.34219284 -48.49926696 55.3200154 -51.89453125 58.2578125 C-55.53591111 61.4619535 -59.09040083 64.76304845 -62.65625 68.05078125 C-64.9765625 70.08984375 -64.9765625 70.08984375 -66.9765625 71.08984375 C-66.9765625 71.74984375 -66.9765625 72.40984375 -66.9765625 73.08984375 C-67.50916687 73.33228317 -68.04177124 73.5747226 -68.59051514 73.82450867 C-74.31114489 76.85819259 -79.62018347 80.42462254 -82.9765625 86.08984375 C-85.09456568 93.17463622 -84.37426927 100.86276866 -84.1484375 108.1640625 C-84.12602391 110.30063588 -84.10895753 112.43727143 -84.09698486 114.57392883 C-84.05141434 120.16675545 -83.93377126 125.75577357 -83.80053711 131.34710693 C-83.65550996 138.07208295 -83.60097928 144.79834098 -83.53109741 151.52443695 C-83.41517201 161.71554524 -83.18514405 171.89831739 -82.9765625 182.08984375 C-65.1565625 182.08984375 -47.3365625 182.08984375 -28.9765625 182.08984375 C-28.95078125 177.50464844 -28.925 172.91945313 -28.8984375 168.1953125 C-28.87327381 165.29226156 -28.84694503 162.38931532 -28.81640625 159.48632812 C-28.76803398 154.87751857 -28.72400403 150.26895129 -28.70556641 145.65991211 C-28.69043317 141.94434442 -28.65604872 138.22941002 -28.60825348 134.51412392 C-28.59340492 133.09599623 -28.58551949 131.67777815 -28.58467865 130.25957298 C-28.58231807 128.27474835 -28.55300763 126.29001089 -28.52246094 124.30541992 C-28.50913727 122.60998299 -28.50913727 122.60998299 -28.49554443 120.8802948 C-27.9765625 118.08984375 -27.9765625 118.08984375 -26.23750305 116.22364807 C-23.6842853 114.94327415 -22.10035448 114.72070489 -19.25561523 114.73339844 C-18.32462509 114.73039734 -17.39363495 114.72739624 -16.43443298 114.7243042 C-15.43642166 114.736651 -14.43841034 114.7489978 -13.41015625 114.76171875 C-12.37971695 114.76359192 -11.34927765 114.76546509 -10.28761292 114.76739502 C-8.11138671 114.77411224 -5.93517252 114.78802016 -3.7590332 114.80859375 C-0.42322603 114.83975814 2.91210852 114.84956661 6.24804688 114.85546875 C8.36198494 114.86463859 10.4759182 114.8750143 12.58984375 114.88671875 C13.5898793 114.89096863 14.58991486 114.89521851 15.62025452 114.89959717 C16.5480925 114.90920471 17.47593048 114.91881226 18.43188477 114.92871094 C19.65621971 114.93895294 19.65621971 114.93895294 20.9052887 114.94940186 C23.0234375 115.08984375 23.0234375 115.08984375 26.0234375 116.08984375 C26.3534375 137.86984375 26.6834375 159.64984375 27.0234375 182.08984375 C44.1834375 182.08984375 61.3434375 182.08984375 79.0234375 182.08984375 C79.3534375 180.43984375 79.6834375 178.78984375 80.0234375 177.08984375 C80.3534375 177.08984375 80.6834375 177.08984375 81.0234375 177.08984375 C81.0234375 176.43387207 81.0234375 175.77790039 81.0234375 175.10205078 C81.0234375 152.95127948 81.0234375 152.95127948 81.13452148 146.82348633 C81.24727502 140.24284639 81.32783017 133.66246053 81.3861227 127.08112049 C81.4226192 123.09804236 81.47212578 119.11601732 81.55151367 115.13354492 C81.62783848 111.27969278 81.66947902 107.42685168 81.6875782 103.57230186 C81.70045895 102.10702251 81.72561388 100.64179533 81.7635479 99.17695045 C82.16588702 91.11328775 82.16588702 91.11328775 79.54812622 83.70394897 C77.79788227 81.92666323 76.06072131 80.5210549 74.0234375 79.08984375 C72.78526362 78.01681661 71.55507018 76.93445661 70.3359375 75.83984375 C69.33820313 74.98132813 69.33820313 74.98132813 68.3203125 74.10546875 C66.0570409 72.11933245 63.84599587 70.08296551 61.64038086 68.03320312 C57.04212854 63.76355215 52.40156798 59.65415167 47.3515625 55.91796875 C40.9648284 50.90288224 35.08815041 45.30783911 29.2109375 39.71484375 C23.82481348 34.62371283 18.3711093 29.77445448 12.56640625 25.1640625 C8.90677169 22.17901496 5.46650878 18.96855847 2.01953125 15.7421875 C-1.87285713 12.52011258 -3.37135372 15.15715016 -6.6015625 18.15234375 Z M-16.9765625 125.08984375 C-16.9765625 143.89984375 -16.9765625 162.70984375 -16.9765625 182.08984375 C-6.4165625 182.08984375 4.1434375 182.08984375 15.0234375 182.08984375 C15.7019227 163.01919048 16.32300518 144.15016968 15.0234375 125.08984375 C4.4634375 125.08984375 -6.0965625 125.08984375 -16.9765625 125.08984375 Z M80.0234375 179.08984375 C81.0234375 182.08984375 81.0234375 182.08984375 81.0234375 182.08984375 Z " fill="#333232" transform="translate(512.9765625,385.91015625)"/>
<path d="M0 0 C0.66644531 0.57363281 1.33289063 1.14726562 2.01953125 1.73828125 C12.89098496 11.77826622 18.26453469 24.84466284 19.0546875 39.4453125 C18.82581921 54.32175129 14.15220396 67.26323599 3.625 78 C-0.88584545 82.26265588 -5.37094816 85.42512678 -11 88 C-12.33471837 88.66388938 -13.66845876 89.32976112 -15 90 C-13.97003906 90.20753906 -12.94007813 90.41507812 -11.87890625 90.62890625 C8.39717672 94.92880104 27.46457866 103.020552 43 117 C43.73089844 117.64839844 44.46179688 118.29679688 45.21484375 118.96484375 C61.80204865 134.53325679 65.78018452 155.4616689 66.875 177.1875 C66.93655273 178.27506592 66.99810547 179.36263184 67.06152344 180.4831543 C67.12001465 182.02869995 67.12001465 182.02869995 67.1796875 183.60546875 C67.23745361 184.98448364 67.23745361 184.98448364 67.29638672 186.39135742 C66.93385205 189.58220001 65.86448948 191.41187999 64 194 C62.125 195.0625 62.125 195.0625 60 195 C57.3125 193.5625 57.3125 193.5625 55 191 C54.15370259 186.10318478 53.88099495 181.26359346 53.71044922 176.3034668 C53.06557859 158.44792033 50.20663135 141.4357427 37.26953125 128.078125 C17.94403629 110.38249106 -8.89573222 100.12565704 -35.140625 100.70703125 C-44.56296389 101.42228977 -53.68992983 103.29173718 -62.75 105.9375 C-67.5755814 107.23669499 -67.5755814 107.23669499 -71.25 105.1875 C-73 103 -73 103 -72.8984375 100.1796875 C-72 97 -72 97 -69.1640625 95.3203125 C-67.41222656 94.72863281 -67.41222656 94.72863281 -65.625 94.125 C-64.46226562 93.71507812 -63.29953125 93.30515625 -62.1015625 92.8828125 C-59 92 -59 92 -56 92 C-56 90.68 -56 89.36 -56 88 C-58.172487 86.27883664 -58.172487 86.27883664 -61 84.8125 C-66.84211912 81.32984318 -70.74583581 77.23507423 -75 72 C-75.66 71.34 -76.32 70.68 -77 70 C-84.72815811 55.36270053 -87.59121556 40.91016591 -83.4375 24.6875 C-79.8380031 13.61212492 -73.4387082 5.81998418 -65 -2 C-64.34 -2.66 -63.68 -3.32 -63 -4 C-43.04490151 -16.39425667 -18.00989839 -15.89552877 0 0 Z M-65 14 C-72.54339536 24.78736579 -74.46264614 36.19166708 -72.53515625 49.1171875 C-71.02747058 56.12926404 -68.52296904 61.4481091 -64 67 C-63.49726562 67.62648438 -62.99453125 68.25296875 -62.4765625 68.8984375 C-55.99089889 76.14339831 -46.67170494 80.54530975 -37.01953125 81.203125 C-26.09715101 81.36277002 -17.89012307 79.40781598 -9 73 C-7.453125 71.9171875 -7.453125 71.9171875 -5.875 70.8125 C1.43201141 64.46117401 5.56110019 54.48895684 6.31640625 45.04296875 C6.76101755 33.70919157 5.08938682 24.23768586 -2 15 C-2.680625 14.030625 -3.36125 13.06125 -4.0625 12.0625 C-10.93205609 4.07952962 -21.07639523 -0.19200083 -31.375 -1.2421875 C-45.10796624 -1.67134269 -55.84605909 3.97352626 -65 14 Z M-53 89 C-53.33 89.66 -53.66 90.32 -54 91 C-52.68 90.67 -51.36 90.34 -50 90 C-50.99 89.67 -51.98 89.34 -53 89 Z " fill="#313131" transform="translate(696,372)"/>
<path d="M0 0 C13.51135779 9.28219295 21.94055575 22.00679118 24.9453125 38.16796875 C26.33912079 53.5781638 22.67295649 68.26775634 12.7578125 80.41796875 C6.55123796 87.00987386 -0.7050523 91.809514 -9.0546875 95.16796875 C-7.88550781 95.49410156 -6.71632813 95.82023437 -5.51171875 96.15625 C-3.9634335 96.59727671 -2.41526236 97.03870413 -0.8671875 97.48046875 C-0.09826172 97.69380859 0.67066406 97.90714844 1.46289062 98.12695312 C5.66548951 99.33542576 9.37078823 100.54757282 12.9453125 103.16796875 C14.0703125 105.54296875 14.0703125 105.54296875 13.9453125 108.16796875 C12.32973543 109.88420483 10.66501629 111.55608338 8.9453125 113.16796875 C8.38658447 112.99144775 7.82785645 112.81492676 7.25219727 112.63305664 C4.67332997 111.82365057 2.09067811 111.0270194 -0.4921875 110.23046875 C-1.37068359 109.95267578 -2.24917969 109.67488281 -3.15429688 109.38867188 C-26.43936851 102.25708167 -52.74430039 106.31502858 -74.24804688 117.28710938 C-90.7207141 126.10005753 -104.30190567 137.02294991 -110.0546875 155.41796875 C-113.11891942 165.84486902 -113.29366004 176.27062648 -113.484375 187.08007812 C-113.5153125 188.06427734 -113.54625 189.04847656 -113.578125 190.0625 C-113.59794434 190.94784424 -113.61776367 191.83318848 -113.63818359 192.74536133 C-114.13834546 195.65456775 -115.01091522 197.05707405 -117.0546875 199.16796875 C-120.0546875 199.66796875 -120.0546875 199.66796875 -123.0546875 199.16796875 C-125.16298585 197.37073081 -125.96150205 195.87678926 -126.32275391 193.12890625 C-126.42574737 190.55142878 -126.41767201 187.99703882 -126.3671875 185.41796875 C-126.35026855 184.01430054 -126.35026855 184.01430054 -126.33300781 182.58227539 C-125.87473707 159.00746179 -120.12038105 139.85176759 -103.6796875 122.48046875 C-89.1610609 108.54779569 -66.02865891 97.55945605 -46.0546875 95.16796875 C-46.66054688 94.83925781 -47.26640625 94.51054687 -47.890625 94.171875 C-57.44406094 88.7484629 -64.88044204 82.23639177 -71.0546875 73.16796875 C-71.7146875 73.16796875 -72.3746875 73.16796875 -73.0546875 73.16796875 C-73.1784375 72.44609375 -73.3021875 71.72421875 -73.4296875 70.98046875 C-74.04926522 68.19236901 -74.9625331 65.80198819 -76.0546875 63.16796875 C-81.06553944 49.52528426 -79.45849984 35.09466404 -73.51953125 22.01171875 C-66.46822059 8.32277432 -55.39931551 -0.92582234 -40.85546875 -5.93359375 C-26.79527452 -9.25717512 -12.3753451 -7.42204201 0 0 Z M-56.0546875 17.16796875 C-56.8796875 18.01359375 -57.7046875 18.85921875 -58.5546875 19.73046875 C-65.3369748 28.165402 -67.4427923 38.57153158 -67.0546875 49.16796875 C-65.61022432 61.23267553 -60.90292479 70.59949714 -51.55859375 78.41015625 C-41.38073411 85.55529953 -30.35162498 87.64050381 -18.14453125 85.70703125 C-6.89669577 83.01767537 1.16630967 76.43305879 7.9453125 67.16796875 C9.63557504 63.91782204 10.91056165 60.67873058 11.9453125 57.16796875 C12.13738281 56.54019531 12.32945312 55.91242188 12.52734375 55.265625 C14.66649597 44.52987974 13.00772869 32.36376858 6.9453125 23.16796875 C-1.78557711 12.13591443 -10.13286179 6.31639864 -24.0546875 4.16796875 C-36.54952022 2.93896881 -47.69562121 8.16589736 -56.0546875 17.16796875 Z " fill="#313130" transform="translate(388.0546875,366.83203125)"/>
<path d="M0 0 C3.3063979 0.58231814 4.92877813 1.5680256 7.27734375 3.94140625 C7.87353516 4.52470703 8.46972656 5.10800781 9.08398438 5.70898438 C10.31966763 6.94466763 11.5514507 8.18426343 12.77929688 9.42773438 C16.28754757 12.99720355 16.28754757 12.99720355 20.94140625 14.40234375 C21.62074219 14.26957031 22.30007813 14.13679688 23 14 C22.67 11.69 22.34 9.38 22 7 C23.32 7.33 24.64 7.66 26 8 C26.8125 10.1875 26.8125 10.1875 27 13 C24.5625 15.8125 24.5625 15.8125 22 18 C16.39954263 16.87990853 13.68237264 13.96699607 9.90234375 9.9765625 C7.76207398 7.75279145 5.46757572 5.85068179 3 4 C2.21740329 8.82205588 1.88181205 13.42594441 1.90234375 18.30883789 C1.90380402 19.0024794 1.90526428 19.69612091 1.9067688 20.41078186 C1.9105495 21.90413702 1.91663887 23.39748782 1.92483521 24.89082527 C1.93769191 27.25799076 1.94413787 29.62509967 1.94897461 31.99229431 C1.96035615 37.01572172 1.97960066 42.03910217 2 47.0625 C2.02364823 52.89039729 2.04402148 58.7182676 2.05593872 64.54620171 C2.06239294 66.87158206 2.07489841 69.19687895 2.08764648 71.52223206 C2.0912808 72.95500619 2.09463231 74.38778109 2.09765625 75.82055664 C2.10289307 77.0651918 2.10812988 78.30982697 2.11352539 79.59217834 C2 83 2 83 1 89 C21.13 89 41.26 89 62 89 C62 89.33 62 89.66 62 90 C53.93347826 90.02312737 45.86697028 90.04091709 37.80042362 90.05181217 C34.05516963 90.05704014 30.30993824 90.06413622 26.56469727 90.07543945 C22.95318313 90.08627141 19.34169079 90.09227749 15.73016167 90.09487724 C14.34939671 90.09673094 12.968633 90.10035049 11.58787727 90.10573006 C9.66024048 90.11294447 7.73258193 90.11340809 5.80493164 90.11352539 C4.70572891 90.115746 3.60652618 90.11796661 2.47401428 90.12025452 C0 90 0 90 -1 89 C-1.10046992 86.30227029 -1.13616448 83.63011347 -1.12939453 80.93188477 C-1.13114685 80.08639069 -1.13289917 79.24089661 -1.13470459 78.36978149 C-1.13912458 75.56030252 -1.13618434 72.75088593 -1.1328125 69.94140625 C-1.13348556 67.9970651 -1.1344556 66.05272404 -1.13571167 64.10838318 C-1.13718889 60.02691855 -1.13503354 55.94547577 -1.13037109 51.86401367 C-1.12467757 46.62353302 -1.12795027 41.38310362 -1.13394356 36.14262486 C-1.13755173 32.12529614 -1.13640933 28.10797964 -1.13381577 24.09065056 C-1.13314701 22.15808036 -1.13397313 20.22550906 -1.13629532 18.29294014 C-1.13882561 15.59443335 -1.13497571 12.89601029 -1.12939453 10.19750977 C-1.13141876 9.39275711 -1.13344299 8.58800446 -1.13552856 7.75886536 C-1.11426329 2.22852658 -1.11426329 2.22852658 0 0 Z " fill="#272727" transform="translate(604,480)"/>
<path d="M0 0 C0.33 0 0.66 0 1 0 C1 32.01 1 64.02 1 97 C19.15 97 37.3 97 56 97 C55.67 96.01 55.34 95.02 55 94 C54.9390745 91.99024941 54.94157159 89.97835647 54.97827148 87.96801758 C54.99836777 86.72695755 55.01846405 85.48589752 55.03916931 84.20722961 C55.06636552 82.85299457 55.09367636 81.49876183 55.12109375 80.14453125 C55.14540038 78.75877157 55.16924367 77.3730037 55.19264221 75.98722839 C55.25542918 72.34244437 55.32451098 68.69780575 55.39489746 65.05316162 C55.46562963 61.3330344 55.53041736 57.6128042 55.59570312 53.89257812 C55.724646 46.59493818 55.8602381 39.29744161 56 32 C56.99 32.33 57.98 32.66 59 33 C58.89265043 41.32737964 58.7800485 49.65466431 58.66066074 57.98187923 C58.60539645 61.8481601 58.551971 65.71444848 58.50268555 69.58081055 C58.4550935 73.30910087 58.40275285 77.03729652 58.34705925 80.76547432 C58.32661222 82.19086933 58.30790309 83.61629032 58.29092598 85.04173088 C58.26693404 87.03170541 58.23629864 89.02159655 58.20532227 91.01147461 C58.18977798 92.14620712 58.1742337 93.28093964 58.15821838 94.45005798 C58 97 58 97 57 98 C55.22008076 98.09370624 53.43643261 98.11744271 51.65405273 98.11352539 C49.91835022 98.11334412 49.91835022 98.11334412 48.14758301 98.11315918 C46.92196655 98.10804321 45.6963501 98.10292725 44.43359375 98.09765625 C42.754328 98.09614563 42.754328 98.09614563 41.0411377 98.09460449 C36.83991478 98.0893535 32.63870641 98.07539239 28.4375 98.0625 C19.053125 98.041875 9.66875 98.02125 0 98 C0 65.66 0 33.32 0 0 Z " fill="#020101" transform="translate(428,472)"/>
<path d="M0 0 C-0.33 0.99 -0.66 1.98 -1 3 C-66.33664964 4.09824333 -66.33664964 4.09824333 -96.8125 4.125 C-97.81015381 4.12749756 -98.80780762 4.12999512 -99.83569336 4.13256836 C-102.62617599 4.13838526 -105.41654783 4.1370355 -108.20703125 4.1328125 C-109.0050264 4.13479645 -109.80302155 4.1367804 -110.62519836 4.13882446 C-115.18367909 4.11974473 -119.50192592 3.74961698 -124 3 C-124 2.67 -124 2.34 -124 2 C-117.87878992 0.93213045 -111.88532389 0.82878586 -105.68041992 0.79467773 C-104.56094971 0.78477814 -103.44147949 0.77487854 -102.28808594 0.76467896 C-98.60223475 0.73319187 -94.91637074 0.70835443 -91.23046875 0.68359375 C-88.66693293 0.66301046 -86.1034004 0.64201363 -83.53987122 0.62062073 C-77.48991943 0.57113869 -71.43995038 0.52584871 -65.389952 0.48259836 C-58.50695753 0.43315224 -51.62400997 0.37824191 -44.74106061 0.32291877 C-34.05160163 0.23712488 -23.36212314 0.15433755 -12.67260742 0.07592773 C-11.61546036 0.06814804 -10.55831329 0.06036835 -9.46913147 0.05235291 C-8.50887054 0.04538391 -7.54860962 0.03841492 -6.55924988 0.03123474 C-5.72213565 0.02515922 -4.88502142 0.01908369 -4.02254009 0.01282406 C-2.68171353 0.00432245 -1.34085351 0 0 0 Z " fill="#171617" transform="translate(669,575)"/>
<path d="M0 0 C6.49609906 -0.07597206 12.99208385 -0.12856672 19.48852539 -0.16479492 C21.69918092 -0.17989525 23.90980643 -0.20037709 26.12036133 -0.22631836 C29.29515993 -0.26264655 32.46956297 -0.27971384 35.64453125 -0.29296875 C36.63524124 -0.30845261 37.62595123 -0.32393646 38.64668274 -0.33988953 C39.56741074 -0.34011612 40.48813873 -0.34034271 41.43676758 -0.34057617 C42.2472908 -0.34723801 43.05781403 -0.35389984 43.89289856 -0.36076355 C46 0 46 0 47.76391602 1.1270752 C49.57771437 3.87535766 49.3595757 6.03312091 49.34057617 9.30737305 C49.34023628 11.25905647 49.34023628 11.25905647 49.33988953 13.25016785 C49.32456952 14.6706883 49.30892153 16.09120526 49.29296875 17.51171875 C49.28737276 18.96474266 49.28310267 20.41777224 49.28010559 21.87080383 C49.26865695 25.69320329 49.23918999 29.5152602 49.20599365 33.33752441 C49.16989422 37.92465384 49.15613166 42.51189787 49.13863373 47.09912872 C49.10955221 54.06632398 49.05206622 61.03276778 49 68 C67.15 68 85.3 68 104 68 C104 68.33 104 68.66 104 69 C96.71578452 69.02312916 89.4315769 69.04091801 82.14733219 69.05181217 C78.76528187 69.05703975 75.3832566 69.06413511 72.0012207 69.07543945 C68.11670223 69.08834267 64.23219403 69.09322924 60.34765625 69.09765625 C59.12788589 69.10281754 57.90811554 69.10797882 56.65138245 69.11329651 C54.96975258 69.11340981 54.96975258 69.11340981 53.25415039 69.11352539 C52.26153702 69.115746 51.26892365 69.11796661 50.24623108 69.12025452 C48 69 48 69 47 68 C46.90590521 65.97505769 46.88256878 63.9468013 46.88647461 61.91967773 C46.88655014 60.61840439 46.88662567 59.31713104 46.88670349 57.97642517 C46.89181091 56.54548098 46.89702692 55.11453718 46.90234375 53.68359375 C46.90420797 52.2277074 46.90563185 50.77182043 46.90663147 49.31593323 C46.91045635 45.47720621 46.92028636 41.63851681 46.93133545 37.79980469 C46.94155022 33.88542184 46.94612923 29.97103294 46.95117188 26.05664062 C46.96190866 18.37107657 46.97898471 10.68554355 47 3 C44.23829856 2.07943285 42.47821145 1.85199851 39.62036133 1.79467773 C38.73967484 1.77473251 37.85898834 1.75478729 36.95161438 1.73423767 C36.00465195 1.71752518 35.05768951 1.70081268 34.08203125 1.68359375 C33.10965012 1.66281265 32.13726898 1.64203156 31.13542175 1.62062073 C28.02785335 1.55521252 24.92020015 1.49628071 21.8125 1.4375 C19.70637142 1.39430649 17.60025144 1.35069193 15.49414062 1.30664062 C10.32951409 1.19954001 5.16480222 1.09824781 0 1 C0 0.67 0 0.34 0 0 Z " fill="#090808" transform="translate(491,501)"/>
<path d="M0 0 C25.41 0 50.82 0 77 0 C77 0.33 77 0.66 77 1 C71.72 1 66.44 1 61 1 C61 1.66 61 2.32 61 3 C53.48955919 3.02316465 45.97912207 3.04093616 38.46865368 3.05181217 C34.98128689 3.05703196 31.49394453 3.06411324 28.0065918 3.07543945 C23.99788172 3.08837754 19.98919733 3.09323569 15.98046875 3.09765625 C14.72727341 3.10281754 13.47407806 3.10797882 12.1829071 3.11329651 C10.44144157 3.11340981 10.44144157 3.11340981 8.66479492 3.11352539 C7.12924202 3.11685631 7.12924202 3.11685631 5.56266785 3.12025452 C3 3 3 3 0 2 C0 1.34 0 0.68 0 0 Z " fill="#242324" transform="translate(355,576)"/>
<path d="M0 0 C2.41917833 3.62876749 2.24520963 5.32892134 2.23046875 9.64453125 C2.22853516 10.96130859 2.22660156 12.27808594 2.22460938 13.63476562 C2.21840576 14.32094971 2.21220215 15.00713379 2.20581055 15.71411133 C2.18765655 17.79455956 2.18530034 19.87455924 2.18554688 21.95507812 C2.16404503 27.78514435 1.96396536 33.21620783 1 39 C21.13 39 41.26 39 62 39 C62 39.33 62 39.66 62 40 C53.93347826 40.02312737 45.86697028 40.04091709 37.80042362 40.05181217 C34.05516963 40.05704014 30.30993824 40.06413622 26.56469727 40.07543945 C22.95318313 40.08627141 19.34169079 40.09227749 15.73016167 40.09487724 C14.34939671 40.09673094 12.968633 40.10035049 11.58787727 40.10573006 C9.66024048 40.11294447 7.73258193 40.11340809 5.80493164 40.11352539 C4.70572891 40.115746 3.60652618 40.11796661 2.47401428 40.12025452 C0 40 0 40 -1 39 C-1.10097537 36.62174428 -1.13971225 34.27321069 -1.1328125 31.89453125 C-1.13376923 31.17770676 -1.13472595 30.46088226 -1.13571167 29.72233582 C-1.13639379 28.19989942 -1.13453731 26.67746014 -1.13037109 25.1550293 C-1.12506217 22.83961304 -1.13029461 20.52439424 -1.13671875 18.20898438 C-1.13605721 16.72916624 -1.13477448 15.24934823 -1.1328125 13.76953125 C-1.13483673 13.0818013 -1.13686096 12.39407135 -1.13894653 11.6855011 C-1.11976951 7.68843957 -0.76701193 3.922272 0 0 Z " fill="#121212" transform="translate(604,530)"/>
<path d="M0 0 C0.66 0 1.32 0 2 0 C1.79503906 1.07378906 1.59007812 2.14757812 1.37890625 3.25390625 C1.10668868 4.6900886 0.83455789 6.1262874 0.5625 7.5625 C0.42779297 8.26697266 0.29308594 8.97144531 0.15429688 9.69726562 C-1.34175936 17.61541693 -2.16035702 25.1885991 -2.125 33.25 C-2.12886719 34.1471875 -2.13273437 35.044375 -2.13671875 35.96875 C-2.13542969 36.82984375 -2.13414062 37.6909375 -2.1328125 38.578125 C-2.13168457 39.35575195 -2.13055664 40.13337891 -2.12939453 40.93457031 C-2.07611745 43.19880171 -2.07611745 43.19880171 -1 46 C0.32 46 1.64 46 3 46 C3.86419223 43.40742331 4.17580932 41.65962293 4.31640625 38.98828125 C4.35830078 38.23095703 4.40019531 37.47363281 4.44335938 36.69335938 C4.48267578 35.90767578 4.52199219 35.12199219 4.5625 34.3125 C4.60568359 33.51521484 4.64886719 32.71792969 4.69335938 31.89648438 C4.79927368 29.93118553 4.90012551 27.96561504 5 26 C5.33 26 5.66 26 6 26 C6.05789006 29.45826342 6.09355821 32.91640293 6.125 36.375 C6.15013672 37.85226562 6.15013672 37.85226562 6.17578125 39.359375 C6.18222656 40.30039062 6.18867188 41.24140625 6.1953125 42.2109375 C6.20578613 43.08024902 6.21625977 43.94956055 6.22705078 44.84521484 C6 47 6 47 4 49 C1.0625 49.375 1.0625 49.375 -2 49 C-4.11816382 47.20846892 -4.90667074 45.71073169 -5.26782227 42.96044922 C-5.37109391 40.38314823 -5.3627697 37.82890447 -5.3125 35.25 C-5.3019458 34.31712158 -5.2913916 33.38424316 -5.28051758 32.4230957 C-5.07255868 21.41256604 -4.65079691 10.14719325 0 0 Z " fill="#282828" transform="translate(267,517)"/>
<path d="M0 0 C0.99 0.33 1.98 0.66 3 1 C2.67 22.12 2.34 43.24 2 65 C1.01 65.495 1.01 65.495 0 66 C-1.0632084 62.55455277 -1.08746696 59.44819375 -1.02172852 55.85449219 C-1.00163223 54.61350769 -0.98153595 53.37252319 -0.96083069 52.09393311 C-0.93363664 50.74491143 -0.90632576 49.39589211 -0.87890625 48.046875 C-0.85459196 46.66254471 -0.83074906 45.27820606 -0.80735779 43.89385986 C-0.74464699 40.25730851 -0.67554386 36.6209058 -0.60510254 32.98449707 C-0.53430132 29.27098333 -0.469555 25.55736455 -0.40429688 21.84375 C-0.27545227 14.56238379 -0.13985343 7.28116397 0 0 Z " fill="#171616" transform="translate(484,504)"/>
<path d="M0 0 C17.16 0 34.32 0 52 0 C52 0.33 52 0.66 52 1 C49.69 1 47.38 1 45 1 C45 1.66 45 2.32 45 3 C29.82 3 14.64 3 -1 3 C-0.67 2.01 -0.34 1.02 0 0 Z " fill="#272627" transform="translate(500,576)"/>
<path d="M0 0 C0.8260675 0.00888245 1.65213501 0.01776489 2.50323486 0.0269165 C3.44390808 0.02721863 4.3845813 0.02752075 5.35375977 0.02783203 C6.36118225 0.04847717 7.36860474 0.06912231 8.40655518 0.09039307 C9.4441095 0.09605286 10.48166382 0.10171265 11.55065918 0.10754395 C14.86247009 0.12992315 18.17319662 0.18012387 21.48468018 0.23101807 C23.73075829 0.251081 25.97685338 0.26933213 28.22296143 0.28570557 C33.72723726 0.32979289 39.23088125 0.39672066 44.73468018 0.48101807 C44.40468018 1.47101807 44.07468018 2.46101807 43.73468018 3.48101807 C27.23468018 3.81101807 10.73468018 4.14101807 -6.26531982 4.48101807 C-2.26531982 0.48101807 -2.26531982 0.48101807 0 0 Z " fill="#414141" transform="translate(491.26531982421875,499.51898193359375)"/>
<path d="M0 0 C3.92347204 1.61609681 6.71414265 4.31315007 9.75 7.1875 C10.81831803 8.1843363 11.88732954 9.18042991 12.95703125 10.17578125 C13.47604004 10.65998535 13.99504883 11.14418945 14.52978516 11.64306641 C16.46399264 13.42824163 18.44479053 15.1555764 20.4375 16.875 C23.42876093 19.4665935 26.24508726 22.15899624 29 25 C25.00166512 25 24.18841982 23.64185788 21.3125 20.9375 C20.42691406 20.11636719 19.54132812 19.29523438 18.62890625 18.44921875 C17.76136719 17.64097656 16.89382813 16.83273437 16 16 C11.40841761 11.90873063 6.74369522 7.91354856 2 4 C-1.99500618 5.3697164 -4.80009492 7.25722422 -8 10 C-8 7 -8 7 -6.25 5.17578125 C-5.5075 4.56089844 -4.765 3.94601562 -4 3.3125 C-3.2575 2.68988281 -2.515 2.06726563 -1.75 1.42578125 C-1.1725 0.95527344 -0.595 0.48476563 0 0 Z " fill="#232323" transform="translate(511,397)"/>
<path d="M0 0 C6.19302201 -0.04944073 12.38592909 -0.08573905 18.57910156 -0.10986328 C20.68589275 -0.11992034 22.79266999 -0.13356768 24.89941406 -0.15087891 C27.92776941 -0.17514 30.95594019 -0.18648608 33.984375 -0.1953125 C34.92617615 -0.20563507 35.86797729 -0.21595764 36.83831787 -0.22659302 C37.71892883 -0.22674408 38.59953979 -0.22689514 39.50683594 -0.22705078 C40.27960876 -0.231492 41.05238159 -0.23593323 41.84857178 -0.24050903 C44.27181653 0.03038648 45.89773202 0.79451907 48 2 C13.92995392 3.95483871 13.92995392 3.95483871 0 1 C0 0.67 0 0.34 0 0 Z " fill="#1E1D1D" transform="translate(444,576)"/>
<path d="M0 0 C0.66 0.33 1.32 0.66 2 1 C1.4225 1.886875 0.845 2.77375 0.25 3.6875 C-6.37271896 15.56597102 -6.73547839 27.73424107 -7 41 C-7.33 41 -7.66 41 -8 41 C-11.13235827 27.62723969 -9.28003912 16.20601075 -3 4 C-2.03556771 2.64071779 -1.0467312 1.29697015 0 0 Z " fill="#151515" transform="translate(319,382)"/>
<path d="M0 0 C1.485 0.495 1.485 0.495 3 1 C-6.375 9.47207992 -6.375 9.47207992 -11 13.5 C-20.21159108 21.52285419 -20.21159108 21.52285419 -29 30 C-29.66 29.67 -30.32 29.34 -31 29 C-26.29978305 23.59257448 -21.59381858 18.41682891 -16.11328125 13.79296875 C-12.7649782 10.9521719 -9.54287384 7.97217172 -6.296875 5.015625 C-1.97971204 1.22709424 -1.97971204 1.22709424 0 0 Z " fill="#1B1B1B" transform="translate(463,427)"/>
<path d="M0 0 C0.66 0 1.32 0 2 0 C0.9196894 7.84646646 -4.79913867 16.20842534 -11 21 C-20.31754875 26 -20.31754875 26 -26 26 C-26 25.34 -26 24.68 -26 24 C-25.39414062 23.81566406 -24.78828125 23.63132812 -24.1640625 23.44140625 C-13.87615837 19.88020867 -5.78883562 12.84495509 -1 3 C-0.67 2.01 -0.34 1.02 0 0 Z " fill="#252525" transform="translate(398,427)"/>
<path d="M0 0 C0.99 0.33 1.98 0.66 3 1 C-1.16679711 5.28757384 -5.61395373 8.99540129 -10.28125 12.71875 C-13.64724378 15.54308961 -16.69555392 18.59892828 -19.6875 21.8125 C-21 23 -21 23 -23 23 C-23.66 24.98 -24.32 26.96 -25 29 C-25.33 29 -25.66 29 -26 29 C-26.3359375 26.86328125 -26.3359375 26.86328125 -26 24 C-24.2568022 21.83995055 -22.62940099 20.06412043 -20.625 18.1875 C-19.86316406 17.43436523 -19.86316406 17.43436523 -19.0859375 16.66601562 C-15.29522747 13 -15.29522747 13 -13 13 C-13 12.34 -13 11.68 -13 11 C-11.25998065 9.44038399 -9.45696803 7.95050425 -7.625 6.5 C-3.68517459 3.39240862 -3.68517459 3.39240862 0 0 Z " fill="#222222" transform="translate(421,464)"/>
<path d="M0 0 C0.93423645 3.01031744 1.04449911 3.86650268 0 7 C-0.66 7 -1.32 7 -2 7 C-5.60017203 16.33644613 -6.13816495 26.12438428 -7 36 C-10.52313358 30.71529963 -9.33986796 24.2194211 -8.375 18.125 C-7.08409007 12.19812157 -4.36132208 4.36132208 0 0 Z " fill="#1F1F1F" transform="translate(328,385)"/>
<path d="M0 0 C10.63809636 4.76626026 19.5787995 15.08755247 28 23 C27.34 23.66 26.68 24.32 26 25 C25.62230469 24.59910156 25.24460937 24.19820313 24.85546875 23.78515625 C20.43062882 19.2152396 15.67916085 15.21028535 10.734375 11.21484375 C8.23567188 9.19089422 5.75910389 7.14905403 3.3125 5.0625 C2.66925781 4.51722656 2.02601563 3.97195313 1.36328125 3.41015625 C0 2 0 2 0 0 Z " fill="#212020" transform="translate(517,390)"/>
<path d="M0 0 C0.33 0.99 0.66 1.98 1 3 C-4.38548641 11.39770762 -14.12089139 20.23579731 -24.05859375 22.4609375 C-25.69743497 22.70495008 -27.34881579 22.86240132 -29 23 C-26.69580073 20.35498669 -24.74430583 19.40061428 -21.4375 18.3125 C-12.14298366 14.74394847 -5.39202551 8.24146989 0 0 Z " fill="#1F1F20" transform="translate(705,439)"/>
<path d="M0 0 C20.79 0.33 41.58 0.66 63 1 C63 1.33 63 1.66 63 2 C61.84155075 2.0154612 61.84155075 2.0154612 60.65969849 2.03123474 C53.3904686 2.12910994 46.12132579 2.23161 38.85223579 2.33933926 C35.11489964 2.39456319 31.37755565 2.44798232 27.64013672 2.49731445 C24.03503385 2.54496587 20.43002715 2.59730892 16.82503891 2.65294075 C15.44791933 2.67336079 14.07077338 2.69207447 12.69360733 2.70907402 C10.768496 2.73312547 8.84347005 2.76374251 6.91845703 2.79467773 C5.82147491 2.81022202 4.7244928 2.8257663 3.5942688 2.84178162 C1.01546248 2.82896195 1.01546248 2.82896195 -1 4 C-0.67 2.68 -0.34 1.36 0 0 Z " fill="#252525" transform="translate(355,569)"/>
<path d="M0 0 C0.55300781 0.24363281 1.10601562 0.48726563 1.67578125 0.73828125 C1.08410156 1.11339844 0.49242187 1.48851562 -0.1171875 1.875 C-5.87501773 5.60396999 -10.41284472 9.3858209 -14.76171875 14.73828125 C-17.42711191 17.85874154 -20.11619264 20.20170246 -23.32421875 22.73828125 C-21.98252203 13.85462267 -11.22339747 6.69472845 -4.8046875 1.2578125 C-2.32421875 -0.26171875 -2.32421875 -0.26171875 0 0 Z " fill="#222222" transform="translate(298.32421875,480.26171875)"/>
<path d="M0 0 C3 1 3 1 4.97265625 4.38671875 C5.67959846 5.81524793 6.37580237 7.24912964 7.0625 8.6875 C7.5894043 9.75000977 7.5894043 9.75000977 8.12695312 10.83398438 C11.05598755 16.8304764 13.29066519 22.08272728 13.125 28.875 C13.10695313 29.84179688 13.08890625 30.80859375 13.0703125 31.8046875 C13.03550781 32.89136719 13.03550781 32.89136719 13 34 C12.67 34 12.34 34 12 34 C11.79246094 32.93523438 11.58492187 31.87046875 11.37109375 30.7734375 C9.48237461 21.68443696 6.91363222 13.92623335 2.48828125 5.7578125 C1 3 1 3 0 0 Z " fill="#1F1F1F" transform="translate(747,500)"/>
<path d="M0 0 C1.27310312 0.93441535 2.543388 1.87267111 3.8125 2.8125 C4.52019531 3.33457031 5.22789062 3.85664063 5.95703125 4.39453125 C8 6 8 6 9.59375 7.6875 C11.00842703 9.28405154 11.00842703 9.28405154 13.6875 9.1875 C14.450625 9.125625 15.21375 9.06375 16 9 C15.67 6.69 15.34 4.38 15 2 C16.32 2.33 17.64 2.66 19 3 C19.8125 5.1875 19.8125 5.1875 20 8 C17.5625 10.8125 17.5625 10.8125 15 13 C10.21831343 11.72488358 7.5503244 10.05218827 4.125 6.5 C3.34382812 5.7059375 2.56265625 4.911875 1.7578125 4.09375 C0 2 0 2 0 0 Z " fill="#262625" transform="translate(611,485)"/>
<path d="M0 0 C0.66 0.33 1.32 0.66 2 1 C1.39671875 1.71285156 0.7934375 2.42570312 0.171875 3.16015625 C-7.52030528 11.5651912 -7.52030528 11.5651912 -11.25 21.9375 C-11.1675 22.618125 -11.085 23.29875 -11 24 C-12.98 24.99 -12.98 24.99 -15 26 C-14.82082478 16.50371318 -9.61062869 9.40063762 -3.0625 2.8125 C-2.05184357 1.86403781 -1.03504394 0.92178685 0 0 Z " fill="#212021" transform="translate(629,372)"/>
<path d="M0 0 C3.20315262 2.13543508 3.6926356 3.06472187 4.5859375 6.67578125 C5.94887096 14.32620965 6.90202651 21.65958 4 29 C3.67 29 3.34 29 3 29 C2.95101562 27.82824219 2.90203125 26.65648437 2.8515625 25.44921875 C2.45409306 16.82605967 1.9166726 8.4482462 0 0 Z " fill="#1E1E1E" transform="translate(709,393)"/>
<path d="M0 0 C9.92413453 2.83546701 17.56526618 9.36836393 23 18 C23 18.99 23 19.98 23 21 C22.34 21 21.68 21 21 21 C19.62464661 19.02866014 18.29788956 17.02318078 17 15 C14.07824657 10.90823793 11.05788269 8.48590177 6.8125 5.8125 C1.09991158 2.19982317 1.09991158 2.19982317 0 0 Z " fill="#252524" transform="translate(676,372)"/>
<path d="M0 0 C0.66 0 1.32 0 2 0 C4.56632124 6.44056329 5.44797761 12.02814193 5.3125 18.9375 C5.31572266 19.78634766 5.31894531 20.63519531 5.32226562 21.50976562 C5.26781325 27.73218675 5.26781325 27.73218675 3 30 C2.98018066 29.44650879 2.96036133 28.89301758 2.93994141 28.32275391 C2.45852994 14.04213829 2.45852994 14.04213829 0 0 Z " fill="#242424" transform="translate(699,394)"/>
<path d="M0 0 C0.66 0 1.32 0 2 0 C2 8.58 2 17.16 2 26 C1.34 26 0.68 26 0 26 C-1.06718778 21.66349094 -1.14956928 17.43884995 -1.125 13 C-1.12886719 12.30132812 -1.13273438 11.60265625 -1.13671875 10.8828125 C-1.12963657 7.12925702 -0.89787023 3.64848855 0 0 Z " fill="#242323" transform="translate(612,399)"/>
<path d="M0 0 C2.97 0.495 2.97 0.495 6 1 C6 1.99 6 2.98 6 4 C6.53367187 4.21527344 7.06734375 4.43054688 7.6171875 4.65234375 C10.87657608 6.49576844 13.4281177 9.00013373 16.125 11.5625 C19.76403407 15.18633907 19.76403407 15.18633907 24 18 C23.67 18.99 23.34 19.98 23 21 C22.29875 20.35933594 21.5975 19.71867187 20.875 19.05859375 C16.47000076 15.04262298 12.06516935 11.03185299 7.5625 7.125 C4.93580467 4.84349666 2.41154862 2.51202981 0 0 Z " fill="#1D1D1D" transform="translate(573,440)"/>
<path d="M0 0 C0.99 0.33 1.98 0.66 3 1 C-1.47931825 6.8938398 -6.26049208 10.83324327 -13 14 C-13.99 14 -14.98 14 -16 14 C-16 13.34 -16 12.68 -16 12 C-15.41992188 11.69707031 -14.83984375 11.39414062 -14.2421875 11.08203125 C-5.91503692 6.87782076 -5.91503692 6.87782076 0 0 Z " fill="#232423" transform="translate(693,438)"/>
<path d="M0 0 C0.94875 0.86625 1.8975 1.7325 2.875 2.625 C8.58723821 7.52452139 14.96017854 11.34440899 22 14 C22 14.33 22 14.66 22 15 C14.13232143 14.65792702 7.5700605 10.63544007 1.875 5.3125 C0 3 0 3 0 0 Z " fill="#1D1D1D" transform="translate(324,446)"/>
<path d="M0 0 C3.94047072 1.51624377 5.65302669 3.8516677 8.0625 7.25 C8.73410156 8.18328125 9.40570312 9.1165625 10.09765625 10.078125 C15 17.60780287 15 17.60780287 15 22 C14.34 22 13.68 22 13 22 C12.64808594 21.2265625 12.29617188 20.453125 11.93359375 19.65625 C9.01622696 13.5015963 6.0862114 8.41312598 1.3203125 3.5234375 C0 2 0 2 0 0 Z " fill="#1F1F1E" transform="translate(732,497)"/>
<path d="M0 0 C5.83950131 1.00945427 9.18817699 5.57685285 12.59765625 10.13671875 C15.1719005 14.01601162 15.1719005 14.01601162 16 16 C15.67 16.99 15.34 17.98 15 19 C13.52732366 17.04077572 12.05842715 15.07937582 10.60546875 13.10546875 C7.24761737 8.56358162 3.71953921 4.25090196 0 0 Z " fill="#262525" transform="translate(693,372)"/>
<path d="M0 0 C0.33 0 0.66 0 1 0 C1.05789006 3.45826342 1.09355821 6.91640293 1.125 10.375 C1.14175781 11.35984375 1.15851563 12.3446875 1.17578125 13.359375 C1.18222656 14.30039062 1.18867188 15.24140625 1.1953125 16.2109375 C1.20578613 17.08024902 1.21625977 17.94956055 1.22705078 18.84521484 C1 21 1 21 -1 23 C-4.125 23.125 -4.125 23.125 -7 23 C-7.66 21.68 -8.32 20.36 -9 19 C-8.34 18.34 -7.68 17.68 -7 17 C-6.67 17.99 -6.34 18.98 -6 20 C-4.68 20 -3.36 20 -2 20 C-1.13580777 17.40742331 -0.82419068 15.65962293 -0.68359375 12.98828125 C-0.64169922 12.23095703 -0.59980469 11.47363281 -0.55664062 10.69335938 C-0.51732422 9.90767578 -0.47800781 9.12199219 -0.4375 8.3125 C-0.39431641 7.51521484 -0.35113281 6.71792969 -0.30664062 5.89648438 C-0.20072632 3.93118553 -0.09987449 1.96561504 0 0 Z " fill="#131313" transform="translate(272,543)"/>
<path d="M0 0 C10.9754386 2.9754386 10.9754386 2.9754386 14 6 C10.37138509 7.2095383 9.66107994 6.3828256 6.3828125 4.8359375 C1.1531215 3.00125902 -4.51843091 2.64623214 -10 2 C-6.4197633 -0.38682447 -4.12745577 -0.60401792 0 0 Z " fill="#202120" transform="translate(672,360)"/>
<path d="M0 0 C0.33 0 0.66 0 1 0 C1.33 7.92 1.66 15.84 2 24 C-1.49602557 20.50397443 -1.12783488 16.88253471 -1.13671875 12.05859375 C-1.13091797 10.97771484 -1.13091797 10.97771484 -1.125 9.875 C-1.12886719 9.14667969 -1.13273438 8.41835938 -1.13671875 7.66796875 C-1.12671034 2.25342069 -1.12671034 2.25342069 0 0 Z " fill="#191919" transform="translate(622,402)"/>
<path d="M0 0 C3.18849773 0.58496204 4.8929959 1.4983461 7.234375 3.72265625 C7.80800781 4.26083984 8.38164063 4.79902344 8.97265625 5.35351562 C9.55917969 5.91748047 10.14570312 6.48144531 10.75 7.0625 C11.35199219 7.63033203 11.95398438 8.19816406 12.57421875 8.78320312 C14.05563212 10.18231575 15.5286488 11.59030947 17 13 C16.67 13.66 16.34 14.32 16 15 C4.29384966 5.77448747 4.29384966 5.77448747 0 0 Z " fill="#1A1A1A" transform="translate(545,415)"/>
<path d="M0 0 C0.74765625 0.40992188 1.4953125 0.81984375 2.265625 1.2421875 C3.74289062 2.05042969 3.74289062 2.05042969 5.25 2.875 C6.71179688 3.67550781 6.71179688 3.67550781 8.203125 4.4921875 C12.62789709 6.87760933 15.96486631 8.31339086 21 9 C20.67 9.66 20.34 10.32 20 11 C12.57092443 10.10044596 6.65511712 8.06255359 1 3 C0.67 2.01 0.34 1.02 0 0 Z " fill="#252524" transform="translate(630,451)"/>
<path d="M0 0 C3.21831355 0.51908283 6.13615094 1.39091036 9.1875 2.5 C14.07374797 4.18633137 18.8617127 4.68891371 24 5 C24 5.33 24 5.66 24 6 C15.42070928 6.39800833 7.78773493 5.89386746 0 2 C0 1.34 0 0.68 0 0 Z " fill="#1B1B1B" transform="translate(342,449)"/>
<path d="M0 0 C0.556875 0.226875 1.11375 0.45375 1.6875 0.6875 C0.0375 1.3475 -1.6125 2.0075 -3.3125 2.6875 C-3.3125 3.3475 -3.3125 4.0075 -3.3125 4.6875 C-4.17875 5.1 -5.045 5.5125 -5.9375 5.9375 C-9.27069144 7.66582149 -12.22877901 9.55826408 -15.3125 11.6875 C-15.3125 10.6975 -15.3125 9.7075 -15.3125 8.6875 C-12.88705197 6.37640312 -10.07509434 4.57553002 -7.3125 2.6875 C-6.405 2.048125 -5.4975 1.40875 -4.5625 0.75 C-2.3125 -0.3125 -2.3125 -0.3125 0 0 Z " fill="#1B1C1B" transform="translate(341.3125,364.3125)"/>
<path d="M0 0 C0.66 0.33 1.32 0.66 2 1 C1.67 1.66 1.34 2.32 1 3 C-1.22265625 3.5625 -1.22265625 3.5625 -4.0625 4 C-8.79363056 4.77822774 -13.36584011 5.77588229 -18 7 C-18 6.01 -18 5.02 -18 4 C-12.12116651 1.38718512 -6.29268272 1.81671798 0 2 C0 1.34 0 0.68 0 0 Z " fill="#242423" transform="translate(348,461)"/>
<path d="M0 0 C0.66 0.33 1.32 0.66 2 1 C-1.49549888 4.59112043 -5.03976676 8.1299374 -8.75 11.5 C-9.30171875 12.0053125 -9.8534375 12.510625 -10.421875 13.03125 C-10.94265625 13.3509375 -11.4634375 13.670625 -12 14 C-12.99 13.67 -13.98 13.34 -15 13 C-13.71034824 11.62437146 -12.37310707 10.29233607 -11 9 C-10.34 9 -9.68 9 -9 9 C-9 8.34 -9 7.68 -9 7 C-7.03125 5.2734375 -7.03125 5.2734375 -4.5 3.375 C-3.24703125 2.42753906 -3.24703125 2.42753906 -1.96875 1.4609375 C-0.99421875 0.73777344 -0.99421875 0.73777344 0 0 Z " fill="#1F1F1F" transform="translate(489,417)"/>
<path d="M0 0 C0.99 0.33 1.98 0.66 3 1 C1.625 2.5 1.625 2.5 0 4 C-0.66 4 -1.32 4 -2 4 C-2 4.66 -2 5.32 -2 6 C-3.71484375 7.4375 -3.71484375 7.4375 -5.9375 9 C-8.98632637 11.04816804 -8.98632637 11.04816804 -11 14 C-11.66 13.67 -12.32 13.34 -13 13 C-11.69435407 9.0830622 -9.71750027 7.92080562 -6.5 5.375 C-5.4996875 4.57835937 -4.499375 3.78171875 -3.46875 2.9609375 C-2.6540625 2.31382812 -1.839375 1.66671875 -1 1 C-0.67 0.67 -0.34 0.34 0 0 Z " fill="#1E1E1E" transform="translate(481,411)"/>
<path d="M0 0 C3.56677749 0.59047323 5.41533359 1.95735668 8.0625 4.375 C9.06990234 5.28378906 9.06990234 5.28378906 10.09765625 6.2109375 C11.76426508 7.77830268 13.39493678 9.3699358 15 11 C14.67 11.99 14.34 12.98 14 14 C9.33333333 9.33333333 4.66666667 4.66666667 0 0 Z " fill="#1C1C1B" transform="translate(730,484)"/>
<path d="M0 0 C4.56733709 1.28393664 7.66066952 2.98543888 11.3125 6 C12.17488281 6.70125 13.03726563 7.4025 13.92578125 8.125 C16 10 16 10 17 12 C13.63794437 11.39212833 11.65485595 10.1832736 9 8.0625 C6.95765853 6.43899809 5.18809706 5.08632311 2.8125 3.99609375 C1 3 1 3 0 0 Z " fill="#1F201F" transform="translate(714,484)"/>
<path d="M0 0 C13.6332574 -0.3690205 13.6332574 -0.3690205 20 2 C20 2.33 20 2.66 20 3 C13.07 2.67 6.14 2.34 -1 2 C-0.67 1.34 -0.34 0.68 0 0 Z " fill="#161515" transform="translate(655,369)"/>
<path d="M0 0 C3.28912736 4.38550315 3.37748314 6.59609833 3.1875 11.75 C3.17396484 12.44738281 3.16042969 13.14476562 3.14648438 13.86328125 C3.1112945 15.57585541 3.05749155 17.28802941 3 19 C2.34 19 1.68 19 1 19 C0.67 12.73 0.34 6.46 0 0 Z " fill="#212020" transform="translate(410,401)"/>
<path d="M0 0 C0.89749822 3.0682638 1.11711768 5.79269976 1.09765625 8.984375 C1.09443359 9.91894531 1.09121094 10.85351562 1.08789062 11.81640625 C1.07951172 12.78449219 1.07113281 13.75257813 1.0625 14.75 C1.05798828 15.73355469 1.05347656 16.71710938 1.04882812 17.73046875 C1.03706483 20.15370791 1.02062684 22.57682273 1 25 C0.67 25 0.34 25 0 25 C-2.07016051 16.16200704 -1.85924012 8.8671452 0 0 Z " fill="#202121" transform="translate(311,398)"/>
<path d="M0 0 C0 0.66 0 1.32 0 2 C-2.24435445 3.03516348 -4.49406867 4.05314977 -6.75 5.0625 C-7.70132812 5.50432617 -7.70132812 5.50432617 -8.671875 5.95507812 C-13.45095438 8.07081639 -13.45095438 8.07081639 -16.453125 7.68359375 C-16.96359375 7.45800781 -17.4740625 7.23242188 -18 7 C-16.25318707 6.01515892 -14.5024149 5.03733813 -12.75 4.0625 C-11.28820312 3.24458984 -11.28820312 3.24458984 -9.796875 2.41015625 C-6.29332395 0.64370104 -3.9060626 0 0 0 Z " fill="#1F1E1E" transform="translate(326,477)"/>
<path d="M0 0 C0 0.33 0 0.66 0 1 C-10.89 1.495 -10.89 1.495 -22 2 C-15.65154037 -2.23230642 -7.23719742 -1.92991931 0 0 Z " fill="#171515" transform="translate(370,370)"/>
<path d="M0 0 C0.33 0.99 0.66 1.98 1 3 C-0.3984375 5.59375 -0.3984375 5.59375 -2.375 8.5 C-5.11031037 12.53917058 -5.11031037 12.53917058 -7 17 C-7.66 17 -8.32 17 -9 17 C-8.43310319 12.6852854 -6.88294703 9.86348525 -4.5 6.25 C-3.55640625 4.80367188 -3.55640625 4.80367188 -2.59375 3.328125 C-1 1 -1 1 0 0 Z " fill="#191A1A" transform="translate(286,502)"/>
<path d="M0 0 C3.38891322 0.68886787 6.18011613 1.98716486 9.25 3.5625 C10.14203125 4.01753906 11.0340625 4.47257812 11.953125 4.94140625 C12.96632813 5.46541016 12.96632813 5.46541016 14 6 C13.67 6.99 13.34 7.98 13 9 C11.38986415 8.26290216 9.78707609 7.50974143 8.1875 6.75 C7.29417969 6.33234375 6.40085937 5.9146875 5.48046875 5.484375 C2.89071669 3.93460211 1.61819166 2.51599234 0 0 Z " fill="#232222" transform="translate(635,444)"/>
<path d="M0 0 C1.61648438 0.04060547 1.61648438 0.04060547 3.265625 0.08203125 C4.08546875 0.11683594 4.9053125 0.15164063 5.75 0.1875 C4.76 1.6725 4.76 1.6725 3.75 3.1875 C0.4921875 3.48046875 0.4921875 3.48046875 -3.375 3.375 C-5.29699219 3.33439453 -5.29699219 3.33439453 -7.2578125 3.29296875 C-8.24523437 3.25816406 -9.23265625 3.22335937 -10.25 3.1875 C-6.86416198 0.05642164 -4.53890538 -0.14800778 0 0 Z " fill="#3D3C3C" transform="translate(494.25,575.8125)"/>
<path d="M0 0 C0.66 0 1.32 0 2 0 C1.01 5.28 0.02 10.56 -1 16 C-3 14 -3 14 -3.046875 11.7578125 C-2.94890625 10.88898437 -2.8509375 10.02015625 -2.75 9.125 C-2.66234375 8.26132812 -2.5746875 7.39765625 -2.484375 6.5078125 C-2.00349575 4.01809898 -1.2453726 2.194714 0 0 Z " fill="#222222" transform="translate(267,517)"/>
<path d="M0 0 C5.29333218 0.51642265 8.63789377 2.09192918 13 5 C13.33 5.99 13.66 6.98 14 8 C9.02790438 6.23570801 4.56561939 3.6060834 0 1 C0 0.67 0 0.34 0 0 Z " fill="#222222" transform="translate(713,474)"/>
<path d="M0 0 C0.33 0 0.66 0 1 0 C1.5326514 6.258654 -0.18150494 10.45108785 -3 16 C-3.66 16 -4.32 16 -5 16 C-3.41078475 10.63904723 -1.81027062 5.29156027 0 0 Z " fill="#1D1D1C" transform="translate(410,422)"/>
<path d="M0 0 C0 0.66 0 1.32 0 2 C-1.78710586 2.86366822 -3.5798465 3.71568594 -5.375 4.5625 C-6.37273437 5.03816406 -7.37046875 5.51382812 -8.3984375 6.00390625 C-9.25695312 6.33261719 -10.11546875 6.66132813 -11 7 C-11.66 6.67 -12.32 6.34 -13 6 C-9.43216717 1.83752837 -5.4396369 0 0 0 Z " fill="#1F2020" transform="translate(315,472)"/>
<path d="M0 0 C0.99 0.33 1.98 0.66 3 1 C-0.3 3.97 -3.6 6.94 -7 10 C-7.66 9.67 -8.32 9.34 -9 9 C-8.06725891 7.87105124 -7.12859878 6.74699124 -6.1875 5.625 C-5.66542969 4.99851562 -5.14335937 4.37203125 -4.60546875 3.7265625 C-3 2 -3 2 0 0 Z " fill="#1E1E1F" transform="translate(506,389)"/>
<path d="M0 0 C4.76560621 1.40164889 7.95882443 4.15411474 11 8 C11 8.66 11 9.32 11 10 C7.03519703 8.32258336 4.15958323 5.87873138 1 3 C0.67 2.01 0.34 1.02 0 0 Z " fill="#262525" transform="translate(381,375)"/>
<path d="M0 0 C5.45901639 -0.36393443 5.45901639 -0.36393443 7.71875 1.15625 C9.5567104 3.80111984 9.09440618 5.54322498 8.6875 8.6875 C8.50767578 10.17830078 8.50767578 10.17830078 8.32421875 11.69921875 C8.21722656 12.45847656 8.11023438 13.21773437 8 14 C7.67 14 7.34 14 7 14 C7 10.37 7 6.74 7 3 C4.69 2.34 2.38 1.68 0 1 C0 0.67 0 0.34 0 0 Z " fill="#171616" transform="translate(531,501)"/>
<path d="M0 0 C1.485 0.99 1.485 0.99 3 2 C5.28648848 2.24107326 5.28648848 2.24107326 7.6875 2.125 C8.49574219 2.10695313 9.30398438 2.08890625 10.13671875 2.0703125 C10.75160156 2.04710937 11.36648438 2.02390625 12 2 C10 5 10 5 7.125 5.875 C4 6 4 6 1.625 4.75 C0 3 0 3 0 0 Z " fill="#252423" transform="translate(624,473)"/>
<path d="M0 0 C-3.34520258 1.93242285 -6.44767482 2.5463853 -10.25 3.125 C-11.32765625 3.29257812 -12.4053125 3.46015625 -13.515625 3.6328125 C-14.33546875 3.75398438 -15.1553125 3.87515625 -16 4 C-16 3.34 -16 2.68 -16 2 C-10.60539047 -0.27141454 -5.73842251 -0.20413361 0 0 Z " fill="#1C1B1C" transform="translate(659,361)"/>
<path d="M0 0 C0.33 0 0.66 0 1 0 C1 2.97 1 5.94 1 9 C-0.65 9.33 -2.3 9.66 -4 10 C-4.33 8.68 -4.66 7.36 -5 6 C-3.35 6 -1.7 6 0 6 C0 4.02 0 2.04 0 0 Z " fill="#3A3A3A" transform="translate(270,554)"/>
<path d="M0 0 C0.99 0 1.98 0 3 0 C4.640625 1.86328125 4.640625 1.86328125 6.25 4.3125 C7.06210937 5.51326172 7.06210937 5.51326172 7.890625 6.73828125 C9 9 9 9 8 12 C4.78119883 8.2064129 2.3836813 4.34170523 0 0 Z " fill="#1F1F1E" transform="translate(398,378)"/>
<path d="M0 0 C0.33 0.99 0.66 1.98 1 3 C-0.24196122 4.15454162 -1.49392845 5.29832562 -2.75 6.4375 C-3.79414063 7.39462891 -3.79414063 7.39462891 -4.859375 8.37109375 C-6.98792725 9.99081325 -8.39023405 10.58267256 -11 11 C-7.81316569 6.66590534 -4.13621084 3.3810038 0 0 Z " fill="#1D1D1D" transform="translate(466,437)"/>
<path d="M0 0 C0.99 0.33 1.98 0.66 3 1 C1.74057614 2.19959375 0.46704714 3.38439443 -0.8125 4.5625 C-1.87404297 5.55443359 -1.87404297 5.55443359 -2.95703125 6.56640625 C-3.63121094 7.03949219 -4.30539062 7.51257813 -5 8 C-5.99 7.67 -6.98 7.34 -8 7 C-6.74057614 5.80040625 -5.46704714 4.61560557 -4.1875 3.4375 C-3.12595703 2.44556641 -3.12595703 2.44556641 -2.04296875 1.43359375 C-1.36878906 0.96050781 -0.69460938 0.48742187 0 0 Z " fill="#212121" transform="translate(463,427)"/>
<path d="M0 0 C0 0.33 0 0.66 0 1 C-4.98283716 2.14051606 -9.94468132 3.22225866 -15 4 C-10.93800868 -0.96465606 -5.95756501 -1.41846786 0 0 Z " fill="#2A2A2A" transform="translate(658,371)"/>
<path d="M0 0 C-1.55500981 3.81684226 -4.03595495 6.19195732 -7 9 C-7.99 8.67 -8.98 8.34 -10 8 C-8.71451591 6.66070495 -7.42141845 5.32871357 -6.125 4 C-5.04605469 2.88625 -5.04605469 2.88625 -3.9453125 1.75 C-2 0 -2 0 0 0 Z " fill="#222223" transform="translate(417,482)"/>
<path d="M0 0 C3.21043882 1.38188453 5.04936365 2.92421903 7.25 5.625 C8.03117188 6.57246094 8.03117188 6.57246094 8.828125 7.5390625 C9.40820312 8.26222656 9.40820312 8.26222656 10 9 C6.71245489 8.42110619 5.06327505 7.45171589 2.75 5.0625 C2.22921875 4.53785156 1.7084375 4.01320313 1.171875 3.47265625 C0 2 0 2 0 0 Z " fill="#201F1F" transform="translate(543,425)"/>
<path d="M0 0 C0.66 0.33 1.32 0.66 2 1 C0.4050992 2.19991599 -1.20126147 3.38461318 -2.8125 4.5625 C-3.70582031 5.22378906 -4.59914063 5.88507813 -5.51953125 6.56640625 C-6.33808594 7.03949219 -7.15664063 7.51257813 -8 8 C-8.99 7.67 -9.98 7.34 -11 7 C-7.54143152 4.05004453 -4.19978515 1.77324262 0 0 Z " fill="#1F1F1F" transform="translate(345,372)"/>
<path d="M0 0 C6.42857143 4.14285714 6.42857143 4.14285714 9 7 C8.67 7.99 8.34 8.98 8 10 C6.65787938 8.90653119 5.32652025 7.7998425 4 6.6875 C3.2575 6.07261719 2.515 5.45773437 1.75 4.82421875 C0 3 0 3 0 0 Z " fill="#232223" transform="translate(585,462)"/>
<path d="M0 0 C0.66 0.33 1.32 0.66 2 1 C0.92643323 2.15498897 -0.15929788 3.29867867 -1.25 4.4375 C-1.85328125 5.07558594 -2.4565625 5.71367187 -3.078125 6.37109375 C-5.10048016 8.08516306 -6.41270605 8.59358878 -9 9 C-8.06725891 7.87105124 -7.12859878 6.74699124 -6.1875 5.625 C-5.66542969 4.99851562 -5.14335937 4.37203125 -4.60546875 3.7265625 C-3 2 -3 2 0 0 Z " fill="#1E1E1E" transform="translate(453,449)"/>
<path d="M0 0 C1 3 1 3 0.22265625 5.04296875 C-0.16019531 5.75066406 -0.54304687 6.45835937 -0.9375 7.1875 C-1.31777344 7.90292969 -1.69804688 8.61835938 -2.08984375 9.35546875 C-2.54037109 10.16951172 -2.54037109 10.16951172 -3 11 C-3.66 10.67 -4.32 10.34 -5 10 C-4.56802365 5.2482602 -3.67230705 3.07999946 0 0 Z " fill="#212020" transform="translate(629,386)"/>
<path d="M0 0 C1.79133978 -0.05391993 3.58313899 -0.09275571 5.375 -0.125 C6.37273438 -0.14820313 7.37046875 -0.17140625 8.3984375 -0.1953125 C11 0 11 0 13 2 C8.05632546 3.20577428 4.79137588 2.6290678 0 1 C0 0.67 0 0.34 0 0 Z " fill="#1C1B1C" transform="translate(512,576)"/>
<path d="M0 0 C1.29608947 0.93137592 2.58671632 1.8703566 3.875 2.8125 C4.59429688 3.33457031 5.31359375 3.85664063 6.0546875 4.39453125 C8 6 8 6 10 9 C7 9 7 9 5.17578125 7.5390625 C4.56089844 6.90742188 3.94601562 6.27578125 3.3125 5.625 C2.68988281 4.99851562 2.06726563 4.37203125 1.42578125 3.7265625 C0 2 0 2 0 0 Z " fill="#181817" transform="translate(611,485)"/>
<path d="M0 0 C0.66 0 1.32 0 2 0 C3.65 3.63 5.3 7.26 7 11 C6.01 11.495 6.01 11.495 5 12 C4.15885829 10.56705502 3.32734313 9.12845595 2.5 7.6875 C1.80390625 6.48673828 1.80390625 6.48673828 1.09375 5.26171875 C0 3 0 3 0 0 Z " fill="#1E1E1D" transform="translate(624,427)"/>
<path d="M0 0 C4.24822374 0.47202486 6.19989709 2.96655518 9 6 C8.67 6.99 8.34 7.98 8 9 C6.66368764 7.6905332 5.33102075 6.37734515 4 5.0625 C3.2575 4.33160156 2.515 3.60070312 1.75 2.84765625 C0 1 0 1 0 0 Z " fill="#1C1C1B" transform="translate(693,372)"/>
<path d="M0 0 C-0.33 0.66 -0.66 1.32 -1 2 C-3.28515625 2.6328125 -3.28515625 2.6328125 -6.0625 3.125 C-6.98160156 3.29257812 -7.90070312 3.46015625 -8.84765625 3.6328125 C-9.91306641 3.81457031 -9.91306641 3.81457031 -11 4 C-11 3.34 -11 2.68 -11 2 C-7.17010894 0.19769832 -4.21878192 -0.19622241 0 0 Z " fill="#1F1E1E" transform="translate(637,466)"/>
<path d="M0 0 C1.98 0.99 1.98 0.99 4 2 C4 2.66 4 3.32 4 4 C4.61875 4.268125 5.2375 4.53625 5.875 4.8125 C8 6 8 6 10 9 C6.71245489 8.42110619 5.06327505 7.45171589 2.75 5.0625 C2.22921875 4.53785156 1.7084375 4.01320313 1.171875 3.47265625 C0 2 0 2 0 0 Z " fill="#1C1C1B" transform="translate(566,445)"/>
<path d="M0 0 C2.34914492 2.34914492 2.73140357 3.95679446 3.625 7.125 C3.88539063 8.03507812 4.14578125 8.94515625 4.4140625 9.8828125 C4.70410156 10.93082031 4.70410156 10.93082031 5 12 C4.34 12 3.68 12 3 12 C0.58314288 7.77050005 -0.34833144 4.87664009 0 0 Z " fill="#1E1E1E" transform="translate(614,426)"/>
<path d="M0 0 C4.38462134 0.50109958 6.8000997 1.98295115 10 5 C10 5.66 10 6.32 10 7 C5.56541027 5.6062718 3.12621626 3.39417765 0 0 Z " fill="#212121" transform="translate(386,368)"/>
<path d="M0 0 C4.17148265 -0.19402245 7.28944583 -0.01430083 11 2 C11.33 2.99 11.66 3.98 12 5 C10.37276701 4.54965877 8.74826336 4.08944646 7.125 3.625 C5.76761719 3.24214844 5.76761719 3.24214844 4.3828125 2.8515625 C2 2 2 2 0 0 Z " fill="#1D1D1C" transform="translate(372,362)"/>
<path d="M0 0 C4.12751449 0.60698743 7.3321148 2.03810791 11 4 C9.375 4.6875 9.375 4.6875 7 5 C1.33333333 2.66666667 1.33333333 2.66666667 0 0 Z " fill="#1F1E1E" transform="translate(696,476)"/>
<path d="M0 0 C1.48280196 0.78483659 2.9611498 1.57809334 4.4375 2.375 C5.67306641 3.03628906 5.67306641 3.03628906 6.93359375 3.7109375 C9 5 9 5 10 7 C5.61537866 6.49890042 3.1999003 5.01704885 0 2 C0 1.34 0 0.68 0 0 Z " fill="#1B1B1A" transform="translate(630,451)"/>
<path d="M0 0 C0.66 0.66 1.32 1.32 2 2 C3.98821313 2.39764263 5.98944339 2.73775349 8 3 C8.33 2.34 8.66 1.68 9 1 C8.67 2.32 8.34 3.64 8 5 C6.25 5.6875 6.25 5.6875 4 6 C1.75 4.75 1.75 4.75 0 3 C0 2.01 0 1.02 0 0 Z " fill="#1F1E1E" transform="translate(752,561)"/>
<path d="M0 0 C0 0.66 0 1.32 0 2 C-1.42578125 3.32421875 -1.42578125 3.32421875 -3.3125 4.6875 C-3.92738281 5.14511719 -4.54226563 5.60273438 -5.17578125 6.07421875 C-5.77777344 6.37972656 -6.37976563 6.68523437 -7 7 C-7.99 6.67 -8.98 6.34 -10 6 C-8.71283353 4.99421411 -7.42011342 3.99553202 -6.125 3 C-5.40570313 2.443125 -4.68640625 1.88625 -3.9453125 1.3125 C-2 0 -2 0 0 0 Z " fill="#1F1F1E" transform="translate(304,488)"/>
<path d="M0 0 C4.21912747 0.4794463 6.79663178 1.16625119 10 4 C5.82412255 5.39195915 3.86525224 3.82323219 0 2 C0 1.34 0 0.68 0 0 Z " fill="#262626" transform="translate(676,362)"/>
<path d="M0 0 C1.21236328 0.01353516 1.21236328 0.01353516 2.44921875 0.02734375 C3.37154297 0.04474609 3.37154297 0.04474609 4.3125 0.0625 C0.27957255 2.2969598 -3.13717434 2.60746743 -7.6875 3.0625 C-7.6875 2.4025 -7.6875 1.7425 -7.6875 1.0625 C-4.80538698 0.10179566 -2.98899956 -0.04331883 0 0 Z " fill="#1E1E1E" transform="translate(351.6875,360.9375)"/>
<path d="M0 0 C1.45922693 0.11409593 2.91740598 0.24165544 4.375 0.375 C5.59316406 0.47941406 5.59316406 0.47941406 6.8359375 0.5859375 C9 1 9 1 11 3 C4.6 3.36923077 4.6 3.36923077 1.5625 1.5 C1.046875 1.005 0.53125 0.51 0 0 Z " fill="#1D1D1D" transform="translate(680,472)"/>
<path d="M0 0 C2.95409701 1.37154504 5.44008376 2.98863724 8 5 C7.67 5.99 7.34 6.98 7 8 C5.8274869 7.04882866 4.66212985 6.08882991 3.5 5.125 C2.8503125 4.59132813 2.200625 4.05765625 1.53125 3.5078125 C1.0259375 3.01023437 0.520625 2.51265625 0 2 C0 1.34 0 0.68 0 0 Z " fill="#1A1B1A" transform="translate(607,469)"/>
<path d="M0 0 C-1.49097658 3.7952131 -3.75700849 5.61042731 -7 8 C-6.44414399 4.1090079 -4.34122117 0 0 0 Z " fill="#212120" transform="translate(638,378)"/>
<path d="M0 0 C0.66 0.33 1.32 0.66 2 1 C-0.31 3.64 -2.62 6.28 -5 9 C-5.33 8.01 -5.66 7.02 -6 6 C-4.02 4.02 -2.04 2.04 0 0 Z " fill="#131312" transform="translate(629,372)"/>
<path d="M0 0 C0.99 0.33 1.98 0.66 3 1 C2.38125 1.20625 1.7625 1.4125 1.125 1.625 C-1.84653645 3.54775888 -2.13024659 5.66594527 -3 9 C-3.33 9 -3.66 9 -4 9 C-4.25 6.75 -4.25 6.75 -4 4 C-2 1.6875 -2 1.6875 0 0 Z " fill="#161616" transform="translate(399,484)"/>
<path d="M0 0 C0.66 0.33 1.32 0.66 2 1 C0.8803014 2.00593243 -0.2459412 3.0045849 -1.375 4 C-2.00148438 4.556875 -2.62796875 5.11375 -3.2734375 5.6875 C-5 7 -5 7 -7 7 C-5.66667905 3.00003714 -3.5042173 2.16217663 0 0 Z " fill="#1F1F1F" transform="translate(394,450)"/>
<path d="M0 0 C2.31 1.98 4.62 3.96 7 6 C6.34 6.66 5.68 7.32 5 8 C2.5 5.6875 2.5 5.6875 0 3 C0 2.01 0 1.02 0 0 Z " fill="#1C1C1B" transform="translate(329,438)"/>
<path d="M0 0 C2.97 0.495 2.97 0.495 6 1 C6 1.99 6 2.98 6 4 C6.99 4.33 7.98 4.66 9 5 C8.01 5.33 7.02 5.66 6 6 C2.8125 3.625 2.8125 3.625 0 1 C0 0.67 0 0.34 0 0 Z " fill="#252424" transform="translate(573,440)"/>
<path d="M0 0 C1 3 1 3 -0.25 5.625 C-2 8 -2 8 -5 9 C-3.7508258 5.54074837 -2.32472205 2.85306797 0 0 Z " fill="#272726" transform="translate(622,379)"/>
<path d="M0 0 C0.556875 0.226875 1.11375 0.45375 1.6875 0.6875 C0.0375 1.3475 -1.6125 2.0075 -3.3125 2.6875 C-3.3125 3.3475 -3.3125 4.0075 -3.3125 4.6875 C-4.6325 4.0275 -5.9525 3.3675 -7.3125 2.6875 C-2.88173077 -0.38942308 -2.88173077 -0.38942308 0 0 Z " fill="#252525" transform="translate(341.3125,364.3125)"/>
<path d="M0 0 C2 3 2 3 1.6875 4.875 C1.460625 5.57625 1.23375 6.2775 1 7 C0.65939189 8.66519519 0.32441604 10.33157466 0 12 C-0.33 12 -0.66 12 -1 12 C-1.14285714 3.42857143 -1.14285714 3.42857143 0 0 Z " fill="#292929" transform="translate(604,524)"/>
<path d="M0 0 C0.66 0 1.32 0 2 0 C1.50168276 3.68754757 0.89932357 5.60490662 -2 8 C-2.33 6.68 -2.66 5.36 -3 4 C-2.34 4 -1.68 4 -1 4 C-0.67 2.68 -0.34 1.36 0 0 Z " fill="#252524" transform="translate(699,428)"/>
<path d="M0 0 C0.66 0.33 1.32 0.66 2 1 C0.68 3.31 -0.64 5.62 -2 8 C-2.66 8 -3.32 8 -4 8 C-2.25 2.25 -2.25 2.25 0 0 Z " fill="#1E1E1E" transform="translate(319,382)"/>
<path d="M0 0 C-5.75 4 -5.75 4 -8 4 C-5.97675095 -0.48005146 -4.79569304 -1.43870791 0 0 Z " fill="#1C1C1D" transform="translate(641,367)"/>
<path d="M0 0 C0.33 0.99 0.66 1.98 1 3 C-0.9375 6.1875 -0.9375 6.1875 -3 9 C-3.75 7.3125 -3.75 7.3125 -4 5 C-2.0625 2.25 -2.0625 2.25 0 0 Z " fill="#242323" transform="translate(286,502)"/>
<path d="M0 0 C0 0.66 0 1.32 0 2 C-2.31 2.66 -4.62 3.32 -7 4 C-7 3.01 -7 2.02 -7 1 C-4.50935112 0.31292445 -2.62113708 0 0 0 Z " fill="#242424" transform="translate(326,477)"/>
<path d="M0 0 C2.31 0.33 4.62 0.66 7 1 C7.33 1.99 7.66 2.98 8 4 C5.64828869 3.40138258 3.3140622 2.73075648 1 2 C0.67 1.34 0.34 0.68 0 0 Z " fill="#1D1C1C" transform="translate(391,467)"/>
<path d="M0 0 C3.36720387 1.39332574 4.9859524 2.9789286 7 6 C3.75728494 5.4409112 2.06942576 4.5867822 0 2 C0 1.34 0 0.68 0 0 Z " fill="#2B2A2A" transform="translate(630,438)"/>
<path d="M0 0 C0.66 0 1.32 0 2 0 C1.46930939 3.82097239 0.50298434 6.06171403 -2 9 C-2.20140476 5.37471432 -1.85776765 3.13498292 0 0 Z " fill="#1F1F1F" transform="translate(398,427)"/>
<path d="M0 0 C0.33 0.99 0.66 1.98 1 3 C-1.3125 5.0625 -1.3125 5.0625 -4 7 C-4.99 6.67 -5.98 6.34 -7 6 C-4.69 4.02 -2.38 2.04 0 0 Z " fill="#141415" transform="translate(500,407)"/>
<path d="M0 0 C2.5 2.3125 2.5 2.3125 5 5 C5 5.99 5 6.98 5 8 C4.34 8 3.68 8 3 8 C0.95830515 5.09451118 0 3.59857954 0 0 Z " fill="#1E1E1E" transform="translate(694,385)"/>
<path d="M0 0 C5.53846154 0.61538462 5.53846154 0.61538462 7.875 2.5625 C8.431875 3.2740625 8.431875 3.2740625 9 4 C3.46153846 3.38461538 3.46153846 3.38461538 1.125 1.4375 C0.75375 0.963125 0.3825 0.48875 0 0 Z " fill="#1D1E1D" transform="translate(371,371)"/>
<path d="M0 0 C0.33 0 0.66 0 1 0 C1 2.64 1 5.28 1 8 C0.67 8 0.34 8 0 8 C0 5.36 0 2.72 0 0 Z " fill="#585756" transform="translate(592,512)"/>
<path d="M0 0 C0.33 0 0.66 0 1 0 C1 2.64 1 5.28 1 8 C0.67 8 0.34 8 0 8 C0 5.36 0 2.72 0 0 Z " fill="#575756" transform="translate(416,496)"/>
<path d="M0 0 C0.33 0 0.66 0 1 0 C1 2.31 1 4.62 1 7 C0.67 7 0.34 7 0 7 C0 4.69 0 2.38 0 0 Z " fill="#5B5A5A" transform="translate(592,528)"/>
<path d="M0 0 C0.33 0 0.66 0 1 0 C1 1.98 1 3.96 1 6 C0.67 6 0.34 6 0 6 C0 4.02 0 2.04 0 0 Z " fill="#595856" transform="translate(592,554)"/>
<path d="M0 0 C0.33 0 0.66 0 1 0 C1 1.98 1 3.96 1 6 C0.67 6 0.34 6 0 6 C0 4.02 0 2.04 0 0 Z " fill="#5B5959" transform="translate(416,520)"/>
<path d="M0 0 C0.33 0 0.66 0 1 0 C1 1.65 1 3.3 1 5 C0.67 5 0.34 5 0 5 C0 3.35 0 1.7 0 0 Z " fill="#585758" transform="translate(416,554)"/>
<path d="M0 0 C1 4 1 4 1 4 Z " fill="#585656" transform="translate(416,505)"/>
<path d="M0 0 C1 4 1 4 1 4 Z " fill="#555454" transform="translate(416,488)"/>
<path d="M0 0 C1 4 1 4 1 4 Z " fill="#565556" transform="translate(592,481)"/>
<path d="M0 0 C1 4 1 4 1 4 Z " fill="#545253" transform="translate(592,475)"/>
<path d="" fill="#585756" transform="translate(0,0)"/>
<path d="" fill="#595858" transform="translate(0,0)"/>
<path d="" fill="#595958" transform="translate(0,0)"/>
<path d="" fill="#595959" transform="translate(0,0)"/>
<path d="" fill="#575656" transform="translate(0,0)"/>
<path d="M0 0 C0.99 0.495 0.99 0.495 2 1 C1.01 1.495 1.01 1.495 0 2 C0 1.34 0 0.68 0 0 Z " fill="#5C5B5C" transform="translate(710,485)"/>
<path d="M0 0 C3 1 3 1 3 1 Z " fill="#5A5859" transform="translate(689,477)"/>
<path d="M0 0 C3 1 3 1 3 1 Z " fill="#5C5B5A" transform="translate(338,461)"/>
<path d="M0 0 C0.33 0.66 0.66 1.32 1 2 C0.34 1.67 -0.32 1.34 -1 1 C-0.67 0.67 -0.34 0.34 0 0 Z " fill="#595757" transform="translate(703,446)"/>
<path d="" fill="#5D5B5B" transform="translate(0,0)"/>
<path d="" fill="#5B5A5A" transform="translate(0,0)"/>
<path d="M0 0 C3 1 3 1 3 1 Z " fill="#5B5B5B" transform="translate(344,360)"/>
<path d="" fill="#595A5A" transform="translate(0,0)"/>
<path d="" fill="#5B5A59" transform="translate(0,0)"/>
<path d="" fill="#5A5A59" transform="translate(0,0)"/>
<path d="" fill="#5A5958" transform="translate(0,0)"/>
<path d="" fill="#5B5959" transform="translate(0,0)"/>
<path d="" fill="#5C5858" transform="translate(0,0)"/>
<path d="M0 0 C2 1 2 1 2 1 Z " fill="#5C5C5C" transform="translate(736,506)"/>
<path d="" fill="#5C5B5A" transform="translate(0,0)"/>
<path d="M0 0 C2 1 2 1 2 1 Z " fill="#5D5C5C" transform="translate(730,499)"/>
<path d="" fill="#585655" transform="translate(0,0)"/>
<path d="" fill="#545454" transform="translate(0,0)"/>
<path d="" fill="#59595A" transform="translate(0,0)"/>
<path d="M0 0 C2 1 2 1 2 1 Z " fill="#5E5C5C" transform="translate(313,485)"/>
<path d="" fill="#585758" transform="translate(0,0)"/>
<path d="" fill="#535352" transform="translate(0,0)"/>
<path d="M0 0 C2 1 2 1 2 1 Z " fill="#565455" transform="translate(386,477)"/>
<path d="" fill="#545655" transform="translate(0,0)"/>
<path d="M0 0 C2 1 2 1 2 1 Z " fill="#5E5D5C" transform="translate(681,475)"/>
<path d="M0 0 C2 1 2 1 2 1 Z " fill="#5F5E5E" transform="translate(342,475)"/>
<path d="" fill="#5A5858" transform="translate(0,0)"/>
<path d="M0 0 C2 1 2 1 2 1 Z " fill="#555453" transform="translate(631,464)"/>
<path d="" fill="#5B5A5A" transform="translate(0,0)"/>
<path d="" fill="#5B5B59" transform="translate(0,0)"/>
<path d="" fill="#595A58" transform="translate(0,0)"/>
<path d="" fill="#5B5B5C" transform="translate(0,0)"/>
<path d="M0 0 C2 1 2 1 2 1 Z " fill="#595959" transform="translate(520,409)"/>
<path d="" fill="#575957" transform="translate(0,0)"/>
<path d="M0 0 C2 1 2 1 2 1 Z " fill="#5A5959" transform="translate(677,360)"/>
<path d="" fill="#676767" transform="translate(0,0)"/>
<path d="" fill="#5C5C5D" transform="translate(0,0)"/>
<path d="" fill="#5F5D5F" transform="translate(0,0)"/>
<path d="" fill="#59595A" transform="translate(0,0)"/>
<path d="" fill="#5D5F5E" transform="translate(0,0)"/>
<path d="" fill="#616162" transform="translate(0,0)"/>
<path d="" fill="#595858" transform="translate(0,0)"/>
<path d="" fill="#5F5F5D" transform="translate(0,0)"/>
<path d="" fill="#5B5B5B" transform="translate(0,0)"/>
<path d="" fill="#615F5E" transform="translate(0,0)"/>
<path d="" fill="#5C5B59" transform="translate(0,0)"/>
<path d="" fill="#5E5E5C" transform="translate(0,0)"/>
<path d="" fill="#5A5858" transform="translate(0,0)"/>
<path d="" fill="#5C5A5A" transform="translate(0,0)"/>
<path d="" fill="#5E605F" transform="translate(0,0)"/>
<path d="" fill="#5F5D5E" transform="translate(0,0)"/>
<path d="" fill="#5A5857" transform="translate(0,0)"/>
<path d="" fill="#59595A" transform="translate(0,0)"/>
<path d="" fill="#5C5D5D" transform="translate(0,0)"/>
<path d="" fill="#5B5B59" transform="translate(0,0)"/>
<path d="" fill="#5B5C5B" transform="translate(0,0)"/>
<path d="" fill="#5B5A5A" transform="translate(0,0)"/>
<path d="" fill="#595757" transform="translate(0,0)"/>
<path d="" fill="#565658" transform="translate(0,0)"/>
<path d="" fill="#585756" transform="translate(0,0)"/>
<path d="" fill="#555656" transform="translate(0,0)"/>
<path d="" fill="#565454" transform="translate(0,0)"/>
<path d="" fill="#5E5D5E" transform="translate(0,0)"/>
<path d="" fill="#5C5C5D" transform="translate(0,0)"/>
<path d="" fill="#5D5C5B" transform="translate(0,0)"/>
<path d="" fill="#5E5B5F" transform="translate(0,0)"/>
<path d="" fill="#565556" transform="translate(0,0)"/>
<path d="" fill="#585657" transform="translate(0,0)"/>
<path d="" fill="#565553" transform="translate(0,0)"/>
<path d="" fill="#5F605C" transform="translate(0,0)"/>
<path d="" fill="#61605F" transform="translate(0,0)"/>
<path d="" fill="#5D5F5F" transform="translate(0,0)"/>
<path d="" fill="#5C615F" transform="translate(0,0)"/>
<path d="" fill="#575655" transform="translate(0,0)"/>
<path d="" fill="#4F4E4D" transform="translate(0,0)"/>
<path d="" fill="#5C5B5C" transform="translate(0,0)"/>
<path d="" fill="#5B5859" transform="translate(0,0)"/>
<path d="" fill="#5C5D5C" transform="translate(0,0)"/>
<path d="" fill="#5B595B" transform="translate(0,0)"/>
<path d="" fill="#5D5B5A" transform="translate(0,0)"/>
<path d="" fill="#5C5A59" transform="translate(0,0)"/>
<path d="" fill="#535354" transform="translate(0,0)"/>
<path d="" fill="#565554" transform="translate(0,0)"/>
<path d="" fill="#5F5E5D" transform="translate(0,0)"/>
<path d="" fill="#585654" transform="translate(0,0)"/>
<path d="" fill="#5C5B5B" transform="translate(0,0)"/>
<path d="" fill="#5A595B" transform="translate(0,0)"/>
<path d="" fill="#585757" transform="translate(0,0)"/>
<path d="" fill="#5E5E5C" transform="translate(0,0)"/>
<path d="" fill="#535555" transform="translate(0,0)"/>
<path d="" fill="#595855" transform="translate(0,0)"/>
<path d="" fill="#565656" transform="translate(0,0)"/>
<path d="" fill="#5C5C5B" transform="translate(0,0)"/>
<path d="" fill="#585656" transform="translate(0,0)"/>
<path d="" fill="#595754" transform="translate(0,0)"/>
<path d="" fill="#58585A" transform="translate(0,0)"/>
<path d="" fill="#575856" transform="translate(0,0)"/>
<path d="" fill="#565553" transform="translate(0,0)"/>
<path d="" fill="#585858" transform="translate(0,0)"/>
<path d="" fill="#5C5B59" transform="translate(0,0)"/>
<path d="" fill="#565654" transform="translate(0,0)"/>
<path d="" fill="#555956" transform="translate(0,0)"/>
<path d="" fill="#565354" transform="translate(0,0)"/>
<path d="" fill="#595758" transform="translate(0,0)"/>
<path d="" fill="#5A5859" transform="translate(0,0)"/>
<path d="" fill="#595858" transform="translate(0,0)"/>
<path d="" fill="#585753" transform="translate(0,0)"/>
<path d="" fill="#575455" transform="translate(0,0)"/>
<path d="" fill="#575756" transform="translate(0,0)"/>
<path d="" fill="#595656" transform="translate(0,0)"/>
<path d="" fill="#595757" transform="translate(0,0)"/>
<path d="" fill="#585657" transform="translate(0,0)"/>
<path d="" fill="#555556" transform="translate(0,0)"/>
<path d="" fill="#555554" transform="translate(0,0)"/>
<path d="" fill="#5C5B5A" transform="translate(0,0)"/>
<path d="" fill="#565655" transform="translate(0,0)"/>
<path d="" fill="#5A5859" transform="translate(0,0)"/>
<path d="" fill="#5B5A5A" transform="translate(0,0)"/>
<path d="" fill="#555453" transform="translate(0,0)"/>
<path d="" fill="#5A5A5B" transform="translate(0,0)"/>
<path d="" fill="#5C5A5A" transform="translate(0,0)"/>
<path d="" fill="#595855" transform="translate(0,0)"/>
<path d="" fill="#5A5959" transform="translate(0,0)"/>
<path d="" fill="#555554" transform="translate(0,0)"/>
<path d="" fill="#565655" transform="translate(0,0)"/>
<path d="" fill="#5A5A5A" transform="translate(0,0)"/>
<path d="" fill="#5B5B5C" transform="translate(0,0)"/>
<path d="" fill="#565555" transform="translate(0,0)"/>
<path d="" fill="#5B585A" transform="translate(0,0)"/>
<path d="" fill="#585756" transform="translate(0,0)"/>
<path d="" fill="#595B58" transform="translate(0,0)"/>
<path d="" fill="#585956" transform="translate(0,0)"/>
<path d="" fill="#595957" transform="translate(0,0)"/>
<path d="" fill="#5C5B59" transform="translate(0,0)"/>
<path d="" fill="#595758" transform="translate(0,0)"/>
<path d="" fill="#5D5E5C" transform="translate(0,0)"/>
<path d="" fill="#5B5B5C" transform="translate(0,0)"/>
<path d="" fill="#5D5B5C" transform="translate(0,0)"/>
<path d="" fill="#5B595B" transform="translate(0,0)"/>
<path d="" fill="#5C5B5D" transform="translate(0,0)"/>
<path d="" fill="#5A5A57" transform="translate(0,0)"/>
<path d="" fill="#5E5A58" transform="translate(0,0)"/>
<path d="" fill="#5D5D5D" transform="translate(0,0)"/>
<path d="" fill="#5A5B59" transform="translate(0,0)"/>
<path d="" fill="#5A5958" transform="translate(0,0)"/>
<path d="" fill="#5C5A5A" transform="translate(0,0)"/>
<path d="" fill="#5D5A59" transform="translate(0,0)"/>
<path d="" fill="#5E5D5C" transform="translate(0,0)"/>
<path d="" fill="#5A5859" transform="translate(0,0)"/>
<path d="" fill="#5E5F5F" transform="translate(0,0)"/>
<path d="" fill="#5E5D5B" transform="translate(0,0)"/>
<path d="" fill="#5A5958" transform="translate(0,0)"/>
<path d="" fill="#59575A" transform="translate(0,0)"/>
<path d="" fill="#5D5A5B" transform="translate(0,0)"/>
<path d="" fill="#5E5D5F" transform="translate(0,0)"/>
<path d="" fill="#5C5A5B" transform="translate(0,0)"/>
<path d="" fill="#5B5856" transform="translate(0,0)"/>
<path d="" fill="#5A5A58" transform="translate(0,0)"/>
<path d="" fill="#5E5D5B" transform="translate(0,0)"/>
<path d="" fill="#5A5858" transform="translate(0,0)"/>
<path d="" fill="#5C5A5B" transform="translate(0,0)"/>
<path d="" fill="#5B5C5C" transform="translate(0,0)"/>
<path d="" fill="#5D5B5B" transform="translate(0,0)"/>
<path d="" fill="#59595A" transform="translate(0,0)"/>
<path d="" fill="#5F605F" transform="translate(0,0)"/>
<path d="" fill="#5C5C5B" transform="translate(0,0)"/>
<path d="" fill="#5C5D59" transform="translate(0,0)"/>
<path d="" fill="#585756" transform="translate(0,0)"/>
</svg>
