<?xml version="1.0" standalone="no"?>
<!DOCTYPE svg PUBLIC "-//W3C//DTD SVG 20010904//EN"
 "http://www.w3.org/TR/2001/REC-SVG-20010904/DTD/svg10.dtd">
<svg version="1.0" xmlns="http://www.w3.org/2000/svg"
 width="1024.000000pt" height="1024.000000pt" viewBox="0 0 1024.000000 1024.000000"
 preserveAspectRatio="xMidYMid meet">
<metadata>
Created by potrace 1.16, written by Peter Selinger 2001-2019
</metadata>
<g transform="translate(0.000000,1024.000000) scale(0.100000,-0.100000)"
fill="#000000" stroke="none">
<path d="M5089 6993 c-11 -12 -15 -68 -17 -237 -2 -121 0 -231 3 -243 8 -34
52 -49 76 -27 18 16 19 36 19 255 0 203 -2 240 -16 253 -20 21 -48 20 -65 -1z"/>
<path d="M5504 6813 c-12 -3 -34 -26 -55 -59 -75 -121 -159 -248 -159 -240 0
4 4 15 9 25 7 13 6 18 -5 18 -22 0 -16 -40 10 -64 39 -37 69 -30 108 25 64 89
148 232 148 251 0 24 -30 48 -56 44z"/>
<path d="M4697 6799 c-24 -14 -19 -65 8 -95 11 -13 34 -49 50 -81 17 -32 35
-63 40 -69 6 -6 21 -27 35 -47 31 -44 55 -52 80 -24 26 27 25 35 -4 78 -13 19
-50 78 -81 129 -72 120 -87 133 -128 109z"/>
<path d="M5368 6315 c-2 -1 -31 -5 -64 -9 -92 -9 -159 -33 -190 -66 -15 -16
-31 -27 -34 -25 -4 2 -6 -4 -6 -13 0 -65 -5 -102 -13 -97 -5 3 -77 5 -159 6
-154 0 -267 -13 -314 -37 -37 -19 -68 -62 -68 -95 0 -25 -4 -28 -52 -39 -137
-29 -170 -68 -167 -194 1 -72 -2 -90 -21 -120 -13 -21 -26 -33 -33 -29 -7 3
-9 3 -5 -1 4 -4 -13 -34 -37 -67 -48 -65 -78 -147 -94 -255 -15 -98 -49 -206
-63 -198 -7 4 -8 3 -4 -4 11 -18 -165 -260 -190 -261 -6 -1 -40 12 -75 28 -35
16 -101 44 -147 62 -46 18 -87 40 -92 50 -6 9 -7 38 -4 63 l7 46 41 0 c87 0
167 44 200 109 14 28 29 97 30 146 1 23 9 34 40 51 49 28 66 57 56 99 -9 38
-12 44 -62 111 -24 32 -38 62 -38 80 0 42 -27 142 -51 187 -10 21 -16 43 -13
49 4 6 2 8 -4 5 -5 -4 -21 5 -34 21 -30 36 -122 109 -148 117 -11 4 -18 9 -16
13 2 4 -6 8 -17 8 -12 1 -33 5 -47 8 -153 41 -291 22 -415 -57 -27 -18 -53
-31 -58 -29 -5 1 -6 -2 -3 -6 7 -12 -28 -44 -38 -35 -4 5 -6 4 -5 -2 2 -5 -13
-44 -34 -85 -47 -95 -60 -163 -50 -260 4 -41 7 -85 7 -97 -1 -12 3 -20 7 -17
12 7 11 -3 -1 -26 -7 -13 -7 -21 0 -25 5 -3 10 2 10 12 1 12 7 6 19 -17 14
-26 16 -37 8 -43 -8 -6 -6 -7 5 -4 30 10 92 -104 97 -180 6 -103 -49 -179
-175 -243 -44 -22 -108 -62 -141 -89 -34 -27 -64 -46 -68 -43 -4 4 -5 3 -4 -3
2 -5 -16 -39 -39 -75 -77 -117 -119 -311 -82 -381 6 -10 17 -19 25 -19 8 0 15
-5 15 -11 0 -7 10 1 22 16 14 18 21 40 20 66 -3 60 25 178 58 246 32 64 123
158 143 146 5 -3 7 -2 4 4 -7 12 70 56 128 73 36 10 46 9 110 -19 39 -16 69
-35 68 -40 -2 -6 3 -8 11 -5 14 5 166 -60 166 -71 0 -4 -5 -3 -12 1 -7 5 -8 3
-3 -5 5 -8 11 -9 17 -3 7 7 28 2 61 -14 29 -13 80 -30 114 -39 54 -14 66 -14
95 -2 35 15 76 51 93 81 9 17 13 16 67 -4 32 -12 60 -25 63 -30 3 -5 -24 -41
-60 -81 -73 -82 -82 -113 -37 -130 15 -6 35 -15 44 -20 11 -5 20 -4 24 3 4 6
3 8 -4 4 -21 -13 -21 12 -1 30 12 11 50 54 86 97 36 42 70 74 75 70 6 -3 8 -1
5 4 -4 6 23 48 59 94 85 108 155 212 181 270 12 25 33 106 48 180 32 161 38
176 118 276 34 43 69 89 77 101 25 37 117 63 150 42 13 -8 12 -11 -5 -24 -11
-9 -30 -16 -42 -16 -13 0 -23 -6 -23 -13 0 -11 -45 -45 -67 -50 -5 -1 -18 -14
-31 -29 -44 -53 8 -100 69 -64 16 10 29 12 29 7 0 -6 4 -11 10 -11 5 0 7 6 4
14 -4 9 6 20 25 30 37 19 38 19 44 2 4 -10 -1 -13 -19 -11 -13 1 -27 -2 -31
-8 -3 -6 -1 -7 5 -3 7 4 12 2 12 -4 0 -6 6 -8 13 -4 6 3 -1 -5 -18 -19 -16
-14 -31 -21 -33 -16 -7 18 -23 9 -17 -10 3 -11 1 -22 -5 -26 -5 -3 -10 -17
-10 -30 0 -18 7 -26 25 -31 14 -3 23 -9 20 -13 -2 -4 2 -8 10 -8 8 0 13 3 12
6 -2 6 62 71 69 71 2 0 4 -7 4 -16 0 -8 -4 -13 -9 -10 -5 3 -8 -2 -7 -12 0 -9
-5 -16 -11 -15 -7 2 -12 -2 -10 -9 1 -6 -9 -17 -23 -25 -14 -7 -21 -13 -16
-13 5 0 2 -8 -5 -17 -7 -10 -9 -15 -5 -11 5 5 15 -1 22 -11 12 -17 89 -36 78
-20 -2 4 3 12 10 18 9 8 16 8 20 2 4 -5 2 -12 -4 -16 -6 -4 -8 -11 -4 -16 12
-20 -120 -164 -139 -152 -6 3 -7 1 -3 -5 8 -13 -43 -54 -58 -45 -6 3 -8 3 -4
-2 8 -8 -51 -82 -62 -78 -4 1 -7 -3 -7 -10 0 -31 -185 -423 -245 -520 -13 -21
-26 -35 -29 -32 -3 3 -6 -1 -6 -8 0 -7 -12 -34 -27 -59 -20 -34 -32 -45 -44
-42 -14 5 -15 4 -2 -5 12 -8 12 -13 2 -23 -17 -17 -15 -52 6 -70 25 -22 46
-33 38 -20 -3 6 2 13 12 16 36 12 233 368 318 573 59 144 70 158 169 243 113
97 153 146 177 214 14 42 22 53 20 25 0 -3 7 -10 17 -16 14 -9 18 -8 18 3 0 7
-5 10 -11 7 -6 -3 -8 -3 -4 1 4 5 69 9 145 10 171 3 233 16 278 61 25 25 35
46 40 83 l6 49 52 -9 c29 -4 101 -8 161 -7 91 1 110 -1 118 -15 5 -9 6 -22 2
-29 -4 -6 -4 -9 1 -5 11 10 37 -11 29 -23 -3 -5 -2 -8 3 -7 4 1 38 -20 76 -47
52 -38 70 -57 77 -84 25 -91 28 -111 19 -117 -5 -3 -9 -13 -8 -22 0 -15 1 -15
7 1 6 13 10 5 18 -28 6 -25 7 -45 2 -45 -4 0 -8 10 -9 23 -1 21 -1 21 -8 -3
-6 -19 -2 -30 15 -47 13 -12 26 -34 30 -50 10 -45 60 -203 89 -278 14 -38 23
-75 20 -83 -2 -7 -1 -11 4 -8 5 3 12 -1 15 -10 9 -23 8 -26 -6 -18 -7 5 2 -7
20 -25 17 -18 32 -37 32 -42 0 -17 34 -49 52 -49 10 0 27 9 37 19 19 19 19 21
-26 112 -57 116 -105 252 -97 276 4 13 3 14 -3 5 -9 -12 -51 121 -73 233 -6
28 -17 88 -26 134 -16 78 -20 87 -64 130 -25 25 -68 64 -94 85 -35 29 -44 41
-34 47 19 13 30 11 22 -3 -5 -7 8 2 28 21 20 18 44 51 54 72 17 39 29 48 36
28 6 -18 89 33 105 65 31 59 2 111 -83 149 -31 14 -39 24 -40 45 -1 15 1 21 3
14 3 -6 10 -9 15 -6 7 5 8 2 3 -7 -6 -11 -5 -11 5 -2 12 11 43 7 36 -6 -2 -3
12 -7 33 -7 20 -1 53 -12 74 -24 34 -20 42 -31 38 -53 -1 -5 3 -6 8 -2 13 7
29 -53 37 -135 4 -45 3 -61 -5 -50 -5 8 -7 18 -4 24 3 5 1 6 -5 3 -13 -9 -4
-44 14 -51 8 -3 14 -17 14 -32 0 -14 7 -53 16 -86 8 -33 13 -67 10 -75 -4 -9
-2 -11 6 -7 8 5 9 2 5 -9 -3 -10 -2 -17 3 -17 6 0 10 -5 10 -11 0 -5 -4 -7
-10 -4 -5 3 -10 1 -10 -4 0 -6 6 -11 14 -11 8 0 18 -10 22 -22 8 -27 32 -83
85 -196 26 -55 37 -92 33 -107 -3 -13 0 -26 6 -30 9 -5 10 -1 6 16 l-7 24 15
-25 c8 -14 12 -28 10 -32 -3 -5 0 -8 6 -8 7 0 10 -7 6 -15 -3 -8 -1 -14 5 -12
6 1 15 -8 20 -20 6 -17 5 -23 -5 -23 -14 0 -85 -59 -154 -128 -33 -33 -42 -49
-40 -72 1 -16 4 -27 6 -25 2 2 15 0 28 -6 22 -8 33 -2 93 55 38 35 87 74 109
85 44 23 67 27 57 11 -3 -6 1 -7 9 -4 9 3 14 10 11 14 -3 4 26 17 64 29 70 21
100 26 88 15 -9 -10 100 -114 120 -115 10 -1 29 -3 43 -5 44 -5 192 37 304 87
60 26 114 45 119 42 6 -3 7 -2 4 4 -8 13 108 63 145 63 15 0 34 -7 42 -16 9
-8 16 -13 16 -10 0 8 81 -33 102 -52 10 -8 15 -19 11 -25 -3 -5 -1 -7 5 -3 6
3 31 -17 56 -46 48 -55 93 -162 83 -199 -3 -10 -1 -17 4 -13 5 3 9 -5 10 -18
3 -99 21 -148 54 -148 39 0 48 23 42 106 -4 41 -11 93 -17 116 -6 22 -9 47 -6
55 3 8 2 12 -3 9 -5 -3 -12 6 -15 20 -11 41 -74 135 -120 177 -22 21 -40 43
-38 48 1 5 -1 8 -5 7 -17 -4 -219 104 -249 133 -49 48 -78 122 -70 181 9 62
16 79 29 71 6 -3 7 -1 3 6 -5 7 13 44 43 90 70 106 91 170 91 273 0 93 -18
170 -50 223 -12 19 -18 40 -14 46 4 7 3 9 -3 6 -5 -3 -25 10 -44 29 -19 20
-55 51 -81 68 -27 18 -45 36 -41 40 4 4 0 4 -9 1 -8 -3 -32 0 -51 9 -129 53
-338 34 -460 -44 -27 -17 -53 -27 -59 -24 -6 4 -8 3 -5 -3 4 -6 -2 -18 -13
-28 -57 -52 -110 -168 -125 -276 -7 -44 -13 -58 -78 -162 -26 -43 -27 -47 -14
-79 8 -18 21 -39 30 -47 9 -7 14 -18 10 -24 -4 -6 0 -8 10 -4 22 8 47 -18 48
-51 2 -88 20 -150 54 -182 13 -13 23 -26 20 -29 -2 -4 4 -7 13 -8 9 -1 42 -9
72 -18 30 -9 70 -14 88 -11 l32 5 0 -52 c0 -29 -4 -57 -8 -64 -4 -6 -70 -32
-147 -57 -158 -52 -145 -49 -145 -37 0 5 -23 50 -51 101 -66 119 -143 300
-174 405 -13 45 -29 129 -35 186 -13 122 -41 225 -71 263 -11 14 -36 34 -55
44 -35 18 -35 18 -38 92 -3 117 -44 170 -140 184 -37 6 -44 11 -61 49 -11 23
-35 52 -53 64 -41 27 -153 53 -252 59 -41 3 -83 7 -92 8 -9 2 -18 3 -20 1z
m202 -114 c19 -4 34 -13 32 -20 -1 -7 7 -10 24 -7 14 3 35 1 47 -4 13 -5 -64
-8 -198 -8 -231 0 -298 5 -290 19 3 4 13 5 21 2 9 -3 19 -1 23 4 14 23 71 31
186 27 66 -3 136 -8 155 -13z m-180 -136 c96 -3 198 -2 225 2 93 16 87 34 83
-242 -3 -276 1 -261 -88 -287 -42 -12 -292 -16 -345 -5 -28 6 -33 46 -35 282
-1 238 -2 244 -13 242 -5 -1 -12 4 -15 12 -2 8 -1 11 4 8 5 -3 88 -8 184 -12z
m-367 -55 c19 0 26 -3 21 -11 -4 -8 -3 -9 4 -5 7 4 18 4 24 -1 8 -4 1 -10 -21
-14 -46 -10 -337 -12 -391 -3 -41 7 -42 8 -19 17 39 16 157 25 259 21 52 -2
108 -4 123 -4z m1962 -26 c85 -17 151 -50 200 -99 62 -62 85 -108 98 -201 9
-64 8 -79 -11 -139 -24 -76 -99 -198 -115 -188 -5 3 -7 2 -4 -4 3 -5 -3 -34
-14 -64 -29 -75 -23 -183 14 -256 15 -28 31 -54 37 -58 5 -3 10 -14 10 -24 0
-21 -132 -87 -151 -75 -7 4 -9 3 -5 -4 10 -16 -189 -90 -265 -98 -63 -6 -66
-5 -87 21 -26 33 -22 41 28 56 22 7 49 23 62 36 20 21 22 33 21 118 -3 139
-17 155 -139 160 -104 3 -129 27 -139 131 -10 114 -12 119 -55 143 -22 12 -40
27 -40 33 0 5 12 24 27 42 38 45 63 105 63 152 0 49 18 106 31 98 5 -3 6 2 3
10 -13 34 57 123 128 161 95 53 202 70 303 49z m-3532 -10 c26 -9 45 -20 42
-24 -3 -4 3 -6 12 -4 23 5 116 -63 107 -78 -4 -7 -3 -8 4 -4 16 10 67 -65 80
-116 19 -80 32 -161 26 -170 -3 -4 -1 -7 4 -6 9 3 82 -96 82 -112 0 -9 -31
-24 -43 -22 -14 3 -45 -82 -55 -153 -9 -59 -16 -75 -42 -97 -27 -25 -38 -28
-105 -28 -61 0 -79 -4 -94 -19 -11 -11 -21 -18 -23 -16 -2 2 -5 -42 -6 -98 -3
-115 6 -141 55 -172 23 -14 30 -25 27 -38 -5 -16 -3 -17 14 -8 26 14 31 14 28
-1 -7 -46 -37 -48 -143 -9 -100 37 -153 62 -153 73 0 5 -4 7 -9 4 -7 -5 -196
76 -209 89 -2 2 8 20 22 42 44 66 58 121 51 193 -7 75 -27 125 -84 209 -104
153 -91 357 30 479 23 24 48 41 55 38 8 -3 13 0 11 7 -1 7 27 22 63 34 79 27
186 30 253 7z m1687 -94 c0 -3 -5 -11 -12 -18 -9 -9 -9 -12 0 -12 9 0 12 -59
12 -235 l0 -234 -32 -18 c-49 -26 -280 -31 -353 -8 -51 16 -53 18 -59 58 -11
86 -32 177 -43 188 -8 8 -8 20 -1 40 12 35 3 92 -17 109 -10 8 -15 32 -15 71
l0 59 236 0 c130 -1 238 1 241 4 7 6 43 3 43 -4z"/>
</g>
</svg>
