<?xml version="1.0" standalone="no"?>
<!DOCTYPE svg PUBLIC "-//W3C//DTD SVG 20010904//EN"
 "http://www.w3.org/TR/2001/REC-SVG-20010904/DTD/svg10.dtd">
<svg version="1.0" xmlns="http://www.w3.org/2000/svg"
 width="1024.000000pt" height="1024.000000pt" viewBox="0 0 1024.000000 1024.000000"
 preserveAspectRatio="xMidYMid meet">
<metadata>
Created by potrace 1.16, written by Peter Selinger 2001-2019
</metadata>
<g transform="translate(0.000000,1024.000000) scale(0.100000,-0.100000)"
fill="#000000" stroke="none">
<path d="M5050 8565 c-14 -7 -50 -14 -80 -14 -120 0 -317 -39 -450 -88 -166
-61 -308 -148 -435 -265 -137 -126 -202 -221 -263 -383 l-37 -100 -3 -939 c-2
-755 0 -941 10 -948 17 -10 2569 -10 2585 0 10 6 13 203 13 903 0 491 -4 915
-9 942 -4 26 -6 47 -3 47 2 0 0 6 -5 13 -6 6 -18 37 -28 67 -42 130 -116 243
-236 362 -89 87 -199 172 -274 210 -22 11 -43 26 -47 32 -4 6 -8 8 -8 4 0 -4
-28 6 -62 22 -146 65 -401 125 -524 122 -35 -1 -56 3 -64 13 -15 19 -47 19
-80 0z m-30 -115 c-9 -6 -10 -10 -3 -10 9 0 12 -139 13 -600 l0 -600 -581 0
-581 0 5 218 c4 238 12 281 71 407 49 105 255 348 257 304 0 -8 4 -4 9 8 5 12
33 38 62 57 58 39 78 46 57 19 -13 -16 -12 -17 3 -4 10 7 15 17 12 22 -7 12
135 82 153 75 8 -3 12 -2 9 3 -18 28 322 108 469 110 42 0 56 -2 45 -9z m299
-5 c298 -43 534 -158 731 -355 107 -107 172 -211 217 -345 25 -75 27 -93 30
-292 l3 -213 -585 0 -585 0 0 610 0 610 41 0 c23 0 89 -7 148 -15z m-289
-1305 c0 -5 -8 -11 -17 -11 -17 -1 -17 -2 0 -6 16 -4 17 -42 17 -609 l0 -604
-580 0 -580 0 0 620 0 620 580 0 c380 0 580 -3 580 -10z m1270 -610 l1 -620
-586 0 -585 0 0 620 0 620 584 0 585 0 1 -620z"/>
<path d="M2443 6590 c-18 -4 -33 -6 -33 -5 0 2 -23 -20 -51 -48 -50 -51 -100
-137 -106 -187 -5 -38 -9 -219 -4 -214 2 2 14 -18 26 -44 22 -48 86 -117 116
-127 9 -3 20 -16 24 -28 4 -13 8 -17 11 -10 4 9 11 10 23 4 21 -12 123 -17
138 -8 13 8 24 -33 22 -78 -2 -49 12 -325 21 -405 5 -41 8 -76 7 -77 -1 -1
-13 10 -27 25 -14 14 -18 22 -10 17 10 -5 9 -2 -3 11 -10 10 -25 19 -35 19 -9
0 -16 6 -14 13 1 8 -2 11 -7 8 -17 -11 -37 32 -40 83 -1 28 -8 63 -16 78 -8
16 -15 33 -15 39 0 26 -96 106 -150 126 -70 25 -207 34 -283 18 -68 -14 -176
-81 -195 -122 -15 -31 -22 -137 -10 -144 5 -3 7 -11 6 -18 -3 -14 43 -119 55
-124 4 -2 7 -8 7 -13 0 -6 -5 -7 -12 -3 -7 4 -8 3 -4 -5 4 -6 11 -9 15 -7 4 3
25 -12 45 -33 21 -21 34 -41 29 -43 -4 -3 -3 -4 3 -2 6 1 37 -11 69 -27 32
-16 65 -29 74 -29 14 0 14 -2 1 -10 -9 -5 -19 -5 -27 2 -10 8 -13 7 -13 -3 0
-9 12 -14 34 -15 24 0 33 3 29 12 -5 13 25 13 46 0 13 -8 128 22 172 45 35 18
67 49 100 99 l16 24 68 -67 c37 -37 71 -67 76 -67 14 0 22 -67 16 -133 -4 -34
-7 -128 -8 -209 -1 -82 -3 -148 -6 -148 -5 0 -84 81 -103 106 -8 11 -16 28
-18 39 -6 41 -54 125 -88 154 -19 17 -53 40 -76 52 -43 22 -202 53 -192 38 3
-5 -12 -10 -33 -11 -50 -2 -51 -2 -103 -24 -25 -10 -48 -18 -51 -17 -4 1 -19
-12 -35 -30 -29 -32 -44 -77 -26 -77 6 0 13 -7 16 -16 4 -10 2 -13 -7 -9 -6 4
-3 -1 7 -9 11 -9 17 -16 13 -16 -17 0 135 -162 168 -180 14 -7 25 -20 25 -29
0 -10 3 -12 8 -5 5 8 17 7 42 -4 57 -24 139 -25 204 -2 32 11 63 17 69 13 6
-3 7 -1 3 6 -4 6 -1 18 7 25 12 12 16 12 29 -2 8 -9 34 -35 59 -58 80 -74 81
-72 -20 -69 -110 2 -182 -16 -237 -58 -44 -33 -52 -45 -89 -137 -17 -44 -21
-74 -20 -145 1 -50 5 -99 10 -109 7 -16 5 -18 -8 -13 -10 4 -14 2 -12 -6 3 -7
-64 -45 -173 -96 -97 -46 -208 -98 -247 -117 -75 -35 -115 -51 -129 -52 -5 0
-12 -5 -15 -10 -3 -5 -49 -28 -101 -51 -52 -23 -102 -45 -110 -50 -16 -9 -23
-61 -9 -61 5 0 9 -5 9 -11 0 -5 -4 -7 -10 -4 -5 3 -10 2 -10 -4 0 -17 62 -5
125 25 33 15 173 81 310 146 138 66 264 124 280 130 17 6 47 22 67 35 50 31
66 29 83 -9 12 -29 145 -187 145 -173 0 3 15 -5 33 -19 64 -49 161 -77 272
-78 166 -3 294 50 399 163 60 64 84 105 122 205 26 69 32 99 33 164 1 32 4 41
11 30 7 -12 12 -12 22 -2 9 9 365 12 1680 12 l1668 0 -1 -69 -1 -69 -1642 0
c-902 1 -1648 -1 -1656 -3 -37 -10 -51 -67 -20 -81 8 -4 156 -7 328 -7 171 -1
312 -3 312 -6 0 -3 -4 -11 -10 -18 -5 -7 -60 -79 -121 -162 -61 -82 -117 -155
-125 -161 -8 -6 -14 -14 -14 -18 0 -17 -53 -75 -63 -69 -5 3 -7 1 -3 -5 3 -6
-17 -41 -46 -79 -60 -79 -327 -411 -372 -464 -39 -45 -63 -73 -105 -127 -18
-24 -36 -41 -39 -38 -3 3 -12 0 -20 -7 -13 -9 -14 -9 -8 1 4 6 5 12 1 12 -3 0
-14 -6 -25 -12 -14 -9 -23 -10 -28 -3 -4 7 -64 10 -172 8 -225 -5 -300 -4
-332 3 -18 4 -28 2 -28 -5 0 -6 -5 -11 -11 -11 -5 0 -7 5 -3 11 5 8 1 8 -13 0
-11 -6 -23 -8 -26 -4 -9 8 -208 9 -214 1 -2 -5 -9 -8 -14 -8 -13 0 9 21 101
101 41 35 77 66 80 70 3 3 59 52 125 108 66 57 217 190 336 295 224 198 233
210 190 243 -17 13 -51 7 -62 -10 -4 -5 -14 -7 -22 -4 -11 4 -14 1 -11 -7 4
-11 -214 -216 -230 -216 -2 0 -6 6 -9 13 -2 6 -3 4 -2 -5 3 -17 -81 -94 -374
-346 -53 -45 -105 -91 -116 -101 -11 -10 -50 -46 -88 -80 -39 -35 -72 -59 -79
-55 -6 4 -8 3 -5 -3 4 -6 -28 -41 -71 -78 -47 -42 -76 -75 -74 -84 5 -21 32
-51 46 -51 6 0 46 29 89 65 l78 65 462 0 c408 -1 460 -2 443 -15 -11 -8 -17
-15 -13 -15 4 0 -28 -41 -70 -92 -186 -219 -264 -319 -257 -331 5 -7 1 -7 -9
2 -15 12 -17 12 -11 -3 4 -10 13 -15 22 -11 8 3 23 -1 32 -10 23 -21 37 -13
92 53 26 31 143 172 260 313 117 141 256 309 308 374 52 65 105 130 117 144
12 14 54 65 93 114 l71 87 310 0 c291 0 309 -1 300 -17 -5 -10 -24 -54 -41
-98 -18 -44 -42 -102 -55 -130 -12 -27 -34 -79 -48 -115 -27 -68 -191 -461
-206 -495 -50 -107 -241 -562 -241 -571 0 -7 14 -23 32 -35 17 -13 29 -18 25
-12 -4 6 3 13 16 17 13 3 24 11 24 19 0 7 11 37 25 67 13 30 25 58 26 62 1 5
14 34 28 65 14 32 45 105 69 163 24 58 60 143 80 190 20 47 57 135 82 195 25
61 71 171 103 245 32 74 122 290 200 480 78 190 147 354 153 365 6 11 12 25
13 31 2 10 47 116 76 176 l13 28 227 0 228 0 0 -1116 c0 -1197 -2 -1144 49
-1144 24 0 51 25 51 48 0 9 0 205 0 435 l0 417 543 0 543 0 64 -142 c35 -79
89 -199 120 -268 32 -69 69 -152 84 -185 15 -33 35 -77 45 -97 10 -21 15 -35
10 -33 -4 3 -11 0 -15 -6 -4 -7 -3 -9 4 -5 5 3 13 0 15 -6 4 -10 6 -10 6 0 1
6 11 12 24 12 26 0 47 17 47 38 0 14 -38 105 -105 250 -19 39 -31 72 -27 72 4
0 2 4 -3 8 -6 4 -50 97 -99 207 -49 110 -122 274 -163 365 -73 159 -119 263
-346 770 -58 129 -119 266 -136 303 -17 38 -31 70 -31 72 0 2 205 4 455 5
l455 1 1 -138 c0 -131 6 -175 22 -174 25 3 31 0 19 -8 -10 -6 -9 -10 7 -14 12
-3 24 -1 27 4 3 5 -1 9 -8 9 -10 0 -9 3 2 9 8 6 17 8 20 6 3 -2 4 41 2 96 l-3
99 945 0 946 0 0 -69 0 -70 -87 30 c-49 17 -95 33 -103 36 -28 11 -45 8 -61
-12 -23 -29 -32 -58 -17 -53 7 3 19 -1 26 -9 7 -7 22 -13 33 -13 10 0 19 -5
19 -12 0 -6 3 -9 6 -5 7 7 95 -23 149 -51 22 -11 44 -20 48 -20 15 -1 152 -54
175 -68 16 -11 22 -11 22 -3 0 7 3 10 6 6 9 -9 34 19 34 37 0 9 4 16 10 16 5
0 7 -8 3 -17 -3 -10 -3 -15 1 -12 14 12 15 48 2 43 -8 -3 -29 6 -49 19 -19 13
-56 30 -81 37 l-46 13 0 654 c0 457 3 661 11 675 7 13 7 18 1 14 -6 -3 -13 3
-17 14 -4 11 -10 18 -15 15 -5 -3 -11 -1 -15 5 -4 6 -145 10 -404 10 l-398 0
-6 28 c-6 27 -121 165 -130 156 -3 -3 -14 7 -26 22 -11 15 -21 21 -21 15 0 -9
-5 -9 -21 -1 -18 10 -39 15 -86 19 -10 1 -13 44 -13 181 l0 181 135 -2 c89 -1
140 3 149 10 14 12 27 81 16 81 -3 0 -7 12 -8 28 -1 15 -6 41 -12 57 -5 17
-25 104 -45 195 -50 231 -64 282 -82 303 -15 15 -42 17 -302 17 -157 0 -292
-4 -300 -9 -7 -5 -19 -31 -26 -57 -7 -27 -18 -48 -24 -47 -6 2 -11 -2 -11 -7
0 -6 5 -10 11 -10 7 0 8 -7 4 -17 -4 -10 -9 -34 -11 -53 -2 -19 -8 -46 -13
-60 -5 -14 -15 -60 -22 -102 -6 -43 -16 -78 -20 -78 -5 0 -9 5 -9 11 0 5 -4 7
-10 4 -5 -3 -10 -11 -10 -16 0 -6 5 -7 10 -4 20 12 19 -22 -4 -115 -31 -129
-31 -130 148 -131 72 -1 134 -1 139 0 4 0 7 -82 7 -184 l0 -185 -39 -19 c-21
-11 -52 -32 -69 -46 -18 -15 -37 -23 -43 -19 -8 4 -9 3 -5 -5 4 -6 -4 -25 -18
-41 -13 -17 -30 -46 -37 -65 l-13 -34 -195 -4 c-214 -5 -218 -5 -218 -21 0 -6
-1 -179 -1 -384 l-2 -372 -1667 1 c-1548 0 -1669 2 -1687 17 -11 9 -16 12 -13
5 4 -6 2 -15 -4 -18 -7 -5 -10 1 -8 16 1 13 -1 44 -5 68 -9 47 -35 115 -36 92
0 -11 -3 -11 -15 -1 -20 17 -79 21 -300 23 l-180 2 3 25 c1 14 5 67 8 119 3
51 9 103 14 115 4 12 28 35 51 51 24 17 51 37 59 46 22 23 92 75 113 82 15 6
22 -3 18 -25 0 -5 3 -7 8 -5 4 1 26 -16 48 -39 22 -22 62 -51 89 -63 27 -12
56 -26 65 -31 21 -11 141 -9 157 3 8 6 17 5 27 -3 13 -11 14 -10 10 1 -3 9 16
25 60 48 37 18 86 56 113 84 26 27 55 58 65 69 9 10 17 21 17 24 0 3 13 24 29
48 27 39 28 44 16 73 -7 17 -11 34 -8 37 4 3 2 6 -4 6 -6 0 -30 26 -54 59 -23
32 -60 69 -81 82 -21 13 -38 27 -38 31 0 5 -6 8 -13 8 -7 0 -33 10 -58 22 -32
15 -69 23 -132 26 -84 4 -92 3 -153 -28 -68 -34 -130 -95 -159 -157 -21 -43
-46 -144 -39 -155 3 -5 0 -8 -6 -8 -6 0 -31 -19 -55 -41 -25 -23 -45 -39 -45
-36 0 2 -16 -10 -35 -27 -19 -17 -44 -32 -56 -33 -22 -2 -22 -1 -15 128 8 145
13 160 124 344 68 113 79 123 122 118 19 -2 77 -5 129 -7 85 -3 99 0 151 25
49 23 163 109 145 109 -3 0 6 16 20 35 52 67 77 165 82 322 5 124 4 146 -12
169 -9 15 -12 23 -6 20 6 -4 11 -2 11 4 0 7 -12 9 -32 5 -75 -14 -236 -34
-268 -34 -19 1 -53 -2 -75 -6 -22 -3 -69 -9 -105 -13 -64 -7 -98 -19 -99 -35
0 -4 -8 -21 -17 -38 -8 -17 -17 -39 -19 -49 -2 -11 -13 -52 -24 -93 -24 -83
-33 -214 -20 -261 23 -79 22 -86 -33 -175 -28 -47 -55 -88 -58 -91 -4 -3 -11
-18 -17 -35 -8 -24 -10 -10 -12 74 -1 58 -6 157 -11 220 -14 172 -13 192 13
223 12 14 29 35 37 45 26 31 49 105 54 173 4 57 1 73 -25 127 -46 96 -158 197
-248 224 -23 7 -41 16 -41 21 0 9 -2 9 -47 -2z m103 -133 c33 -19 58 -39 56
-46 -1 -7 1 -10 6 -7 16 9 78 -62 89 -102 15 -52 12 -128 -5 -124 -8 1 -10 -2
-7 -8 16 -26 -19 -85 -77 -129 -16 -11 -17 -3 -16 108 0 74 -4 126 -11 135 -6
7 -8 16 -4 19 3 4 1 7 -5 7 -7 0 -12 -3 -12 -8 0 -4 -13 -13 -30 -20 l-30 -14
-1 -116 c-1 -65 -1 -120 0 -124 4 -26 -55 4 -97 49 -52 56 -65 90 -66 173 -1
61 4 86 26 132 32 69 69 108 101 108 14 0 51 -15 83 -33z m5103 -84 c12 -49
23 -103 26 -128 2 -11 8 -39 14 -63 7 -24 14 -55 16 -70 3 -15 14 -63 24 -107
11 -44 20 -86 21 -92 0 -10 -75 -13 -345 -13 -334 0 -345 1 -345 19 0 28 25
148 87 411 9 36 17 68 20 73 2 4 109 7 238 7 l234 0 10 -37z m-4235 -250 c-3
-48 -7 -90 -10 -95 -3 -4 -7 -21 -10 -36 -9 -53 -37 -125 -55 -143 -11 -11
-16 -19 -12 -19 13 0 -42 -52 -80 -77 -52 -33 -97 -39 -194 -29 -25 3 -44 16
-23 16 7 0 11 3 7 6 -6 7 70 126 85 132 16 7 8 60 -9 67 -44 20 -60 10 -108
-67 -17 -27 -34 -45 -39 -41 -4 4 -4 0 -1 -9 4 -10 -2 -22 -17 -32 -23 -16
-23 -16 -31 26 -4 24 -4 57 0 73 3 17 7 37 9 45 1 8 4 32 8 53 3 21 9 43 13
50 4 6 9 21 10 32 7 41 25 85 34 80 5 -4 9 -3 9 2 0 4 31 8 69 8 38 0 67 3 64
8 -2 4 6 7 19 8 13 0 66 6 118 13 52 6 107 12 122 13 l27 2 -5 -86z m4046
-492 l0 -180 -44 -6 c-25 -4 -49 -4 -55 0 -17 10 -15 352 2 358 6 3 31 6 55 6
l42 1 0 -179z m-5279 80 c99 -17 136 -30 175 -67 22 -19 39 -38 40 -42 0 -4 4
-14 7 -22 4 -8 8 -26 11 -40 3 -21 0 -26 -20 -28 -12 -1 -26 3 -29 8 -3 5 -12
7 -20 3 -9 -3 -21 -1 -28 4 -6 6 -34 15 -60 22 -42 10 -51 9 -72 -6 -13 -10
-22 -24 -20 -31 3 -8 5 -20 5 -27 0 -8 19 -19 43 -26 23 -6 49 -14 57 -17 8
-3 22 -6 30 -7 35 -3 90 -18 90 -25 0 -13 -26 -30 -35 -22 -5 4 -5 2 -1 -5 8
-14 -68 -68 -83 -59 -5 4 -12 2 -16 -3 -15 -26 -195 13 -195 41 0 5 -4 7 -9 4
-11 -7 -83 73 -76 84 3 5 -2 11 -10 14 -22 8 -35 50 -39 118 -3 50 0 61 17 73
11 8 24 12 29 9 4 -3 8 0 8 6 0 12 38 29 90 40 50 11 49 11 111 1z m1159 -286
c43 -7 79 -21 90 -34 3 -3 19 -14 35 -23 35 -19 80 -73 90 -106 6 -22 5 -23
-14 -13 -26 15 -27 6 -1 -21 19 -21 19 -21 0 -47 -32 -45 -93 -105 -136 -134
-95 -65 -211 -63 -288 4 -24 21 -25 23 -8 38 35 32 103 72 113 66 5 -4 8 -2 7
3 -2 5 14 26 35 46 43 43 44 47 18 70 -14 13 -28 16 -50 11 -17 -4 -31 -10
-31 -15 0 -7 -152 -110 -162 -110 -2 0 -1 32 3 71 6 71 34 127 59 121 6 -1 9
2 6 6 -8 13 30 45 76 63 41 16 81 17 158 4z m4230 -78 c8 -3 33 -11 55 -16 25
-7 54 -25 76 -48 75 -80 100 -73 -250 -73 l-312 0 16 30 c9 17 20 30 25 30 14
0 12 -13 -2 -29 -11 -11 -10 -13 2 -9 9 3 15 17 15 33 0 35 36 63 102 80 47
13 243 14 273 2z m1028 -474 l2 -253 -945 0 -945 0 0 248 c0 137 2 251 4 253
2 2 427 4 943 4 l938 0 3 -252z m-6333 163 c19 -8 35 -13 35 -10 0 7 28 -16
67 -56 18 -19 31 -40 29 -47 -3 -7 -1 -13 4 -13 5 0 6 -12 4 -27 -10 -55 -43
-75 -130 -78 -56 -3 -69 1 -118 30 -75 45 -166 150 -151 175 21 34 198 52 260
26z m863 -507 c18 -7 23 -15 21 -36 -2 -16 0 -34 5 -41 11 -18 -2 -176 -21
-242 -42 -155 -181 -311 -298 -333 -11 -2 -28 -7 -37 -11 -10 -5 -61 -6 -115
-4 -86 3 -106 7 -168 36 -197 94 -300 323 -231 518 14 42 56 93 91 112 25 14
718 15 753 1z m5472 -219 l0 -220 -945 0 -945 0 0 213 c0 118 3 217 7 220 3 4
429 7 945 7 l938 0 0 -220z m-4150 -247 c-10 -27 -61 -148 -112 -270 l-92
-223 -296 0 c-247 1 -292 3 -277 14 9 7 17 17 17 22 0 12 283 384 292 384 4 0
8 5 8 10 0 6 17 33 37 60 l37 50 203 0 203 0 -20 -47z m1176 -5 c43 -84 183
-399 186 -417 2 -9 -2 -15 -8 -14 -6 1 -11 -5 -11 -13 0 -7 4 -14 9 -14 4 0 8
5 8 10 0 26 19 5 42 -47 15 -32 46 -103 70 -158 25 -55 57 -125 71 -155 14
-30 46 -100 70 -155 38 -85 42 -101 30 -113 -8 -8 -11 -17 -7 -21 4 -3 9 0 11
7 8 21 21 13 32 -18 6 -18 6 -30 0 -30 -5 0 -9 -8 -9 -17 0 -15 2 -16 10 -3 9
13 11 13 19 0 5 -8 7 -18 5 -22 -3 -4 0 -8 5 -8 6 0 11 -7 11 -15 0 -13 -64
-15 -520 -15 l-520 0 0 635 0 635 235 0 235 0 26 -52z"/>
<path d="M7637 4900 c-17 -14 -24 -28 -22 -45 1 -14 -2 -28 -6 -31 -5 -3 -9
-11 -9 -17 0 -7 4 -6 10 3 7 12 13 10 32 -10 40 -44 111 -18 116 42 6 68 -64
102 -121 58z"/>
<path d="M7641 4364 c-17 -14 -31 -34 -31 -44 0 -24 47 -80 63 -75 7 2 24 6
38 9 54 12 60 95 8 121 -38 20 -42 19 -78 -11z"/>
<path d="M3640 5700 c-6 -11 -15 -18 -21 -15 -5 4 -9 -1 -9 -10 0 -9 4 -13 10
-10 5 3 14 -2 21 -12 10 -17 76 -18 1441 -15 1034 2 1435 5 1445 13 7 7 12 24
11 40 l-2 29 -1443 0 c-1440 0 -1442 0 -1453 -20z"/>
<path d="M6314 4063 c4 -8 1 -13 -8 -13 -21 0 -48 -41 -36 -55 6 -7 5 -16 -3
-24 -9 -10 -9 -11 4 -6 11 4 24 -3 38 -22 11 -15 25 -32 31 -38 5 -5 63 -71
128 -145 64 -74 222 -253 349 -398 128 -145 230 -269 226 -275 -3 -5 -2 -7 4
-4 9 6 566 -604 589 -645 5 -10 14 -15 19 -11 4 4 5 -1 1 -11 -6 -16 -2 -15
26 6 18 14 34 32 36 40 3 15 -46 98 -58 98 -4 0 -52 51 -106 112 -55 62 -126
142 -159 178 -33 37 -79 87 -103 113 l-43 47 536 0 536 0 80 -57 c127 -91 130
-93 148 -81 10 6 18 25 19 42 2 30 -5 37 -115 117 -120 85 -341 247 -513 375
-133 99 -261 193 -427 313 -79 57 -143 107 -143 112 0 5 -3 8 -7 7 -5 -2 -38
19 -75 45 -37 26 -75 50 -86 52 -22 4 -59 -49 -42 -60 6 -4 8 -11 4 -16 -3 -5
-1 -8 4 -7 16 5 222 -154 215 -165 -3 -6 -1 -7 6 -3 6 4 30 -7 54 -25 57 -44
66 -53 44 -46 -11 4 -16 3 -12 -4 4 -6 14 -8 22 -4 10 3 45 -16 92 -52 42 -31
99 -73 126 -93 194 -142 315 -234 315 -241 0 -4 -6 -9 -12 -12 -7 -2 -3 -2 9
0 15 2 48 -15 99 -52 l77 -55 -515 0 -516 0 -133 148 c-74 82 -172 193 -219
247 -47 55 -110 126 -140 160 -110 121 -285 326 -289 338 -1 7 -21 28 -44 47
-22 19 -37 29 -33 23z"/>
<path d="M2193 3865 c-24 -13 -43 -21 -43 -17 0 4 -4 2 -8 -4 -8 -12 -119 -84
-402 -263 -169 -107 -180 -115 -178 -142 1 -17 8 -29 16 -29 7 0 11 -4 7 -9
-3 -5 0 -13 6 -17 8 -4 9 -3 5 4 -4 7 -1 12 8 12 8 0 76 38 151 85 75 47 141
83 147 79 6 -4 8 -3 5 3 -4 6 35 37 91 73 163 103 265 174 276 192 8 13 5 22
-8 37 -24 26 -22 26 -73 -4z"/>
</g>
</svg>
