<?xml version="1.0" standalone="no"?>
<!DOCTYPE svg PUBLIC "-//W3C//DTD SVG 20010904//EN"
 "http://www.w3.org/TR/2001/REC-SVG-20010904/DTD/svg10.dtd">
<svg version="1.0" xmlns="http://www.w3.org/2000/svg"
 width="1024.000000pt" height="1024.000000pt" viewBox="0 0 1024.000000 1024.000000"
 preserveAspectRatio="xMidYMid meet">
<metadata>
Created by potrace 1.16, written by Peter Selinger 2001-2019
</metadata>
<g transform="translate(0.000000,1024.000000) scale(0.100000,-0.100000)"
fill="#000000" stroke="none">
<path d="M3446 7669 c3 -5 -17 -9 -44 -9 -55 0 -212 -42 -245 -65 -12 -8 -26
-15 -32 -15 -5 0 -3 5 5 10 12 8 10 10 -9 10 -16 0 -21 -4 -18 -14 4 -9 -15
-28 -50 -52 -119 -82 -244 -263 -276 -401 -11 -51 -30 -77 -21 -30 4 20 4 20
-5 2 -5 -12 -5 -24 0 -29 5 -6 9 -23 9 -39 0 -22 -4 -28 -15 -23 -8 3 -15 1
-15 -4 0 -6 5 -10 10 -10 6 0 10 -24 10 -52 1 -125 44 -273 111 -381 18 -29
32 -57 32 -64 0 -7 4 -10 8 -7 11 6 30 -31 21 -41 -4 -5 -2 -5 4 -2 7 4 18 -1
25 -10 8 -9 42 -37 76 -63 34 -26 59 -51 55 -55 -4 -5 -2 -5 5 -1 14 8 63 -13
63 -27 0 -6 -2 -8 -5 -5 -3 3 -50 -8 -103 -25 -53 -16 -119 -30 -147 -30 -33
0 -39 -2 -17 -4 32 -4 30 -6 -48 -44 -45 -21 -87 -36 -92 -33 -6 4 -8 2 -4 -4
3 -6 -11 -21 -31 -33 -114 -70 -239 -185 -320 -294 -25 -33 -49 -63 -55 -66
-5 -3 -9 -9 -8 -13 0 -3 -15 -34 -34 -69 -36 -64 -96 -206 -96 -227 0 -6 -5
-8 -12 -4 -7 4 -8 3 -4 -4 4 -6 0 -39 -8 -74 -59 -259 -81 -632 -85 -1411 -2
-484 -3 -499 -49 -551 -32 -36 -93 -75 -110 -69 -12 3 -13 2 -4 -4 9 -7 2 -18
-28 -42 -49 -39 -97 -121 -106 -178 -16 -107 59 -194 201 -234 75 -21 256 -18
325 4 129 44 219 104 280 189 l27 37 29 -30 c18 -19 23 -28 11 -24 -9 4 -17 3
-17 -3 0 -6 8 -9 18 -7 9 1 24 -1 32 -6 19 -9 60 -43 43 -34 -7 3 -13 1 -13
-5 0 -7 7 -9 16 -6 9 4 24 0 33 -8 9 -8 58 -36 108 -63 51 -27 91 -52 88 -55
-3 -3 3 -11 12 -19 17 -13 17 -13 3 5 -13 18 -13 19 0 13 461 -193 512 -221
545 -302 19 -45 27 -88 17 -81 -6 3 -12 -3 -15 -14 -3 -11 -1 -20 3 -20 5 0
10 -6 13 -12 2 -7 2 -2 0 12 -3 17 -1 22 6 15 5 -5 17 -64 26 -130 23 -172 45
-204 127 -188 64 12 72 57 43 243 -30 197 -63 278 -148 362 -29 29 -77 66
-107 82 -30 16 -58 34 -61 39 -3 5 -10 8 -15 8 -28 -4 -346 128 -338 140 3 5
-3 6 -12 2 -11 -4 -15 -2 -11 4 4 6 -3 11 -16 11 -26 0 -183 91 -227 132 -17
16 -30 25 -30 22 0 -3 -18 11 -40 33 -21 21 -36 43 -33 48 3 6 1 7 -5 3 -20
-12 -22 12 -8 120 8 60 20 197 26 304 10 154 16 198 28 208 14 11 14 12 0 12
-13 0 -16 7 -13 33 3 17 9 109 15 202 11 175 38 498 69 807 14 148 15 182 4
202 -31 59 -123 62 -153 6 -9 -17 -39 -265 -40 -328 0 -13 -4 -21 -9 -18 -5 4
-7 -3 -4 -14 4 -16 -4 -145 -22 -340 -9 -89 -25 -340 -40 -600 -16 -285 -19
-327 -37 -465 -8 -64 -14 -83 -18 -65 -5 17 -7 9 -6 -25 1 -56 -40 -150 -65
-150 -8 -1 -13 -6 -12 -12 4 -21 -70 -72 -137 -95 -113 -38 -300 -24 -315 23
-3 10 1 32 10 49 14 27 25 35 47 31 5 0 7 3 5 8 -1 5 28 32 65 60 79 60 112
101 140 173 20 50 21 74 24 478 4 607 25 1091 59 1312 16 108 49 230 87 323
32 79 114 211 128 207 6 -1 9 1 6 6 -8 13 54 83 66 76 6 -4 8 -2 5 4 -8 12 63
77 143 132 118 80 293 154 344 145 24 -4 27 -3 11 4 -11 5 -18 10 -15 10 3 1
46 10 95 20 50 11 132 23 182 27 100 7 306 -3 299 -15 -3 -4 8 -6 23 -3 26 4
202 -38 240 -57 9 -5 39 -19 68 -31 29 -13 50 -27 47 -32 -3 -5 0 -9 7 -7 28
3 40 -1 33 -13 -4 -7 -3 -8 4 -4 10 6 92 -40 92 -51 0 -2 -5 -1 -12 3 -7 4 -8
3 -4 -5 4 -6 12 -9 17 -5 5 3 30 -11 55 -32 35 -28 43 -39 32 -46 -10 -8 -9
-9 4 -4 21 6 152 -130 144 -151 -3 -8 -2 -12 3 -9 13 8 34 -21 25 -35 -4 -7
-3 -9 3 -6 14 9 44 -48 37 -70 -4 -13 -3 -14 4 -5 6 10 15 0 31 -38 12 -28 19
-56 15 -62 -4 -7 -3 -8 4 -4 23 14 97 -278 109 -429 18 -237 19 -255 4 -255
-11 0 -11 -3 2 -13 16 -11 17 -33 15 -234 -2 -133 1 -219 6 -215 5 3 6 -2 3
-12 -4 -10 -8 -72 -8 -139 -1 -67 -3 -114 -6 -104 -6 22 -22 22 -18 0 2 -10 4
-22 4 -26 1 -5 6 -5 11 -2 6 4 10 -43 10 -134 l0 -140 -62 24 c-75 28 -311
123 -386 155 -31 14 -48 26 -42 30 7 4 -14 6 -46 5 -49 -1 -61 -6 -81 -29 -12
-15 -23 -40 -23 -56 0 -51 44 -80 226 -153 93 -36 198 -78 234 -92 140 -56
210 -88 210 -97 0 -5 4 -7 9 -4 5 4 17 3 26 0 13 -6 14 -9 3 -16 -9 -7 -8 -8
5 -4 23 8 139 -52 130 -67 -3 -6 -1 -7 6 -3 15 10 113 -53 104 -67 -3 -6 -1
-7 5 -3 15 9 84 -43 75 -57 -3 -5 -2 -7 4 -4 13 8 84 -63 76 -76 -3 -6 -2 -7
4 -4 11 7 40 -22 69 -68 17 -27 17 -29 1 -16 -16 12 -17 12 -11 -5 12 -32 16
-37 24 -23 15 23 61 -103 87 -236 11 -58 17 -165 20 -395 l4 -315 27 -22 c36
-30 83 -30 119 1 l28 24 3 206 c4 210 -8 411 -31 547 l-14 76 72 -33 c190 -88
445 -111 648 -58 50 13 100 33 201 82 5 3 5 -1 1 -8 -5 -9 -4 -11 4 -6 6 4 9
11 6 16 -3 5 4 14 15 20 11 6 45 31 74 55 30 24 57 41 61 37 4 -4 5 -2 3 3 -3
11 92 133 105 134 5 1 5 -3 2 -9 -3 -6 -2 -10 3 -10 14 0 65 -127 56 -141 -4
-7 -3 -9 3 -6 6 4 15 -5 22 -19 14 -31 14 -37 -1 -28 -7 4 -8 3 -4 -5 4 -6 11
-9 16 -6 11 7 23 -32 14 -46 -4 -7 -3 -9 4 -5 12 7 27 -29 23 -59 -1 -14 1
-16 7 -7 8 11 51 -76 108 -218 13 -32 13 -33 -1 -16 -8 11 -15 24 -15 30 0 5
-2 7 -5 4 -9 -8 17 -58 29 -58 6 0 26 -29 44 -64 34 -65 72 -107 129 -141 18
-10 29 -23 26 -28 -3 -6 -2 -7 4 -4 5 3 42 -5 82 -18 40 -14 80 -25 88 -25 8
0 12 -3 10 -7 -3 -5 9 -8 26 -9 49 0 226 -27 222 -34 -2 -3 81 -2 183 1 136 4
199 10 231 22 25 9 49 13 54 10 6 -3 7 -1 3 5 -6 11 31 38 47 34 4 -1 6 1 5 5
-1 5 6 24 17 43 26 48 26 151 1 205 -11 22 -18 46 -17 54 1 7 -2 10 -7 7 -10
-6 -85 67 -77 77 3 4 2 5 -1 3 -4 -3 -29 12 -58 33 -28 20 -77 54 -108 75 -32
21 -55 42 -52 47 3 5 0 8 -6 7 -8 -2 -24 50 -45 147 -18 83 -56 241 -85 352
-28 111 -48 208 -44 214 4 7 3 9 -3 6 -7 -4 -17 19 -27 59 -23 91 -130 417
-165 503 -26 62 -28 71 -13 73 25 2 35 4 55 13 9 4 23 5 31 2 8 -3 16 -1 19 6
9 27 139 -171 149 -228 1 -11 7 -23 11 -26 4 -3 32 -76 62 -163 38 -107 53
-166 49 -184 -4 -18 -3 -23 4 -14 7 10 12 1 21 -33 7 -26 9 -50 6 -53 -3 -3
-5 2 -5 11 0 9 -4 19 -10 22 -14 9 0 -28 16 -41 15 -12 57 -171 49 -184 -3 -4
-1 -10 3 -12 16 -6 83 -327 78 -366 -5 -30 -4 -32 3 -12 9 24 9 24 10 -8 1
-23 -3 -31 -11 -26 -8 5 -9 2 -5 -10 4 -10 7 -24 7 -33 0 -8 6 -13 13 -10 6 2
20 -9 29 -25 10 -16 57 -54 105 -84 225 -144 261 -194 217 -304 -9 -23 -13
-51 -10 -65 7 -29 52 -55 95 -55 87 0 138 198 81 311 -39 76 -79 118 -184 190
-55 39 -99 72 -96 74 3 2 1 7 -4 12 -5 5 -6 3 -2 -4 10 -18 -5 -16 -32 5 -20
15 -29 46 -59 188 -101 488 -233 903 -353 1108 -22 37 -37 72 -34 77 3 5 0 8
-8 7 -7 -2 -12 3 -10 10 1 8 -2 11 -7 8 -11 -7 -33 18 -24 27 3 4 2 7 -4 7 -5
0 1 22 14 50 69 144 52 323 -51 536 -56 116 -139 262 -184 321 -13 18 -20 37
-16 44 5 8 3 9 -6 4 -10 -6 -12 -4 -7 9 4 10 3 15 -3 11 -5 -3 -40 37 -78 88
-74 98 -243 291 -286 325 l-26 20 70 52 c123 91 225 240 266 390 13 47 18 100
18 190 0 114 -3 133 -32 218 -72 209 -240 387 -427 453 -195 68 -381 63 -553
-16 -40 -19 -80 -32 -90 -29 -12 4 -13 3 -4 -3 15 -12 -43 -57 -60 -47 -6 4
-8 3 -5 -3 7 -10 -86 -106 -96 -98 -4 3 -5 2 -2 -1 6 -10 -23 -49 -38 -49 -6
-1 -11 -6 -10 -13 2 -6 -12 -40 -31 -74 -19 -35 -40 -83 -47 -107 -10 -35 -14
-40 -21 -25 -4 11 -5 3 -2 -18 4 -22 2 -38 -3 -38 -6 0 -10 -64 -10 -155 0
-85 4 -152 9 -149 4 3 8 -5 8 -18 0 -19 -2 -20 -10 -8 -8 11 -9 9 -6 -10 3
-14 5 -28 5 -32 1 -5 7 -8 15 -8 12 0 36 -47 36 -71 0 -5 -11 -9 -25 -9 -36 0
-203 -56 -253 -85 -24 -14 -49 -22 -55 -18 -7 3 -9 3 -5 -2 9 -9 -100 -88
-112 -80 -4 3 -14 -3 -21 -13 -13 -16 -12 -16 6 -3 11 7 2 -3 -20 -23 -22 -20
-46 -36 -53 -36 -7 0 -11 -3 -8 -8 6 -11 -60 -83 -69 -74 -3 4 -5 3 -3 -3 3
-10 -58 -105 -68 -105 -3 0 -2 5 2 12 4 6 3 8 -4 4 -6 -3 -10 -14 -10 -24 1
-9 -10 -35 -24 -57 -108 -171 -192 -427 -242 -745 -32 -201 -33 -204 -52 -485
-24 -348 -2 -640 60 -814 9 -24 16 -45 16 -47 0 -3 -18 8 -40 22 -22 15 -37
31 -33 37 3 6 1 7 -5 3 -6 -3 -35 5 -64 20 l-53 26 0 581 c0 409 -4 622 -13
717 -43 431 -158 727 -369 945 -49 51 -163 154 -163 148 0 -2 -24 13 -52 33
-29 20 -52 41 -50 46 1 5 -2 7 -7 3 -15 -9 -73 24 -65 37 4 7 3 8 -5 4 -6 -4
-46 7 -88 24 -42 18 -118 43 -167 56 -50 12 -85 23 -78 24 24 0 157 98 209
153 205 217 255 528 128 793 -19 40 -53 95 -75 123 -23 28 -38 56 -35 62 4 5
3 8 -2 7 -11 -4 -93 63 -88 72 2 4 -1 7 -8 7 -7 0 -34 15 -61 33 -71 48 -173
88 -257 100 -41 6 -93 15 -116 19 -23 5 -40 4 -37 0z m187 -209 c37 -12 65
-25 62 -30 -3 -5 0 -12 6 -16 8 -4 9 -3 5 4 -4 7 -4 12 0 12 15 0 94 -51 94
-60 0 -6 6 -10 14 -10 32 0 155 -167 140 -191 -4 -8 -3 -9 4 -5 7 4 18 -16 30
-56 22 -70 27 -226 11 -293 -17 -70 -51 -145 -62 -138 -5 3 -7 1 -3 -5 9 -14
-58 -98 -75 -94 -8 2 -11 1 -7 -3 10 -10 -40 -61 -94 -96 -26 -17 -83 -42
-126 -56 -67 -21 -90 -24 -177 -20 -55 2 -122 12 -150 20 -64 21 -161 80 -157
96 1 7 -2 10 -8 6 -14 -9 -42 14 -33 28 3 6 1 7 -5 3 -15 -9 -88 85 -119 151
-27 60 -53 169 -53 231 0 74 30 194 67 265 43 81 120 170 140 163 8 -3 11 -1
8 4 -6 10 58 54 114 77 110 46 251 51 374 13z m3125 -445 c80 -19 157 -55 202
-95 19 -17 30 -29 23 -26 -6 4 -15 1 -19 -5 -5 -8 0 -10 18 -6 35 9 62 -21 67
-75 1 -5 6 -8 12 -8 8 0 7 6 -2 18 -13 16 -12 16 7 -1 31 -25 69 -101 94 -185
19 -63 22 -89 17 -175 -5 -103 -23 -181 -38 -171 -5 3 -6 -1 -3 -9 3 -8 -11
-42 -31 -75 -34 -58 -62 -91 -49 -58 3 9 1 16 -5 16 -6 0 -10 -3 -10 -7 5 -32
-6 -54 -38 -79 -21 -15 -32 -20 -24 -11 12 15 11 17 -3 17 -10 0 -16 -9 -16
-24 0 -19 -13 -30 -72 -59 -103 -50 -227 -72 -319 -57 -38 7 -67 15 -64 20 3
4 -3 6 -14 3 -35 -9 -162 65 -231 136 -111 113 -160 233 -160 392 0 96 32 225
52 213 7 -4 8 -3 4 4 -11 18 43 109 92 159 138 138 324 192 510 148z m-645
-1023 c21 -21 34 -42 30 -47 -5 -4 -3 -5 4 -2 6 4 30 -9 54 -29 23 -19 60 -44
81 -55 21 -11 38 -27 39 -37 0 -10 3 -12 6 -4 2 6 9 12 14 12 6 0 8 -4 5 -9
-3 -5 0 -8 7 -8 6 1 46 -9 87 -22 82 -27 195 -33 309 -17 46 6 62 5 57 -3 -4
-6 0 -11 9 -11 10 0 13 5 9 13 -9 15 34 -21 108 -92 31 -30 54 -59 51 -64 -3
-6 -2 -7 4 -4 11 7 63 -43 66 -64 2 -8 7 -16 12 -17 21 -8 36 -26 31 -39 -3
-8 -2 -12 3 -8 13 7 52 -45 44 -58 -3 -5 -2 -7 4 -4 5 3 31 -23 56 -58 48 -67
56 -82 35 -69 -7 4 -8 3 -4 -5 4 -6 11 -9 15 -6 12 7 83 -104 75 -117 -4 -6
-3 -8 3 -5 6 4 23 -17 38 -46 23 -42 25 -49 9 -38 -10 8 -4 0 14 -17 66 -63
125 -233 126 -362 1 -73 -3 -92 -24 -130 -31 -55 -93 -90 -160 -90 -45 1 -46
2 -95 73 -27 40 -48 75 -47 80 1 4 -1 6 -6 5 -4 -2 -29 18 -55 43 -26 25 -72
60 -102 78 -60 36 -174 81 -206 81 -11 0 -18 3 -16 8 3 4 -50 6 -116 5 -97 -1
-142 -7 -222 -28 -55 -15 -108 -28 -117 -28 -9 -1 -14 -5 -12 -9 3 -4 -1 -8
-10 -8 -8 0 -16 3 -19 8 -2 4 -3 2 -1 -4 3 -12 -112 -70 -133 -68 -7 1 -13 -2
-13 -6 0 -16 -107 -53 -155 -54 -54 0 -122 31 -117 53 1 7 -1 10 -6 7 -5 -3
-30 17 -54 44 -48 53 -84 64 -129 39 -29 -15 -49 -67 -38 -97 23 -61 114 -144
201 -184 113 -51 201 -45 363 28 59 26 109 43 116 38 7 -4 10 -3 6 3 -8 12 88
47 104 37 7 -4 9 -3 6 3 -11 18 115 43 216 43 111 0 165 -8 145 -22 -9 -6 -6
-7 8 -3 24 6 74 -13 74 -28 0 -6 3 -8 6 -4 9 9 64 -22 61 -34 -1 -6 7 -13 18
-15 24 -3 77 -63 68 -77 -3 -6 -1 -7 5 -3 14 8 71 -74 69 -100 -1 -10 4 -18
10 -17 7 2 29 -28 48 -67 36 -72 43 -96 23 -84 -7 4 -8 3 -4 -5 4 -6 11 -9 15
-7 11 7 64 -134 65 -171 0 -18 3 -28 7 -22 9 15 33 -57 25 -77 -3 -8 -2 -13 3
-10 17 11 218 -720 207 -750 -3 -8 0 -14 5 -14 7 0 9 -11 7 -25 -3 -13 -2 -23
2 -20 3 2 16 -42 29 -98 12 -56 33 -125 46 -154 13 -28 20 -55 17 -59 -4 -4
-2 -5 3 -2 13 7 190 -105 242 -153 61 -57 69 -69 52 -80 -10 -6 -10 -9 -1 -9
6 0 12 -7 12 -16 0 -10 -5 -14 -16 -10 -8 3 -12 2 -9 -4 19 -31 -211 -40 -387
-15 -144 20 -203 33 -275 62 -48 19 -61 28 -56 41 4 15 3 15 -6 2 -9 -13 -14
-11 -35 10 -31 32 -288 597 -281 619 2 9 0 23 -6 31 -8 12 -9 9 -5 -10 3 -14
-12 11 -34 55 -23 48 -37 88 -34 100 4 15 3 16 -4 6 -8 -11 -11 -9 -17 10 -4
13 -21 51 -37 84 -15 33 -26 65 -23 73 2 7 1 11 -4 8 -4 -3 -43 72 -86 167
-43 94 -87 182 -98 195 -20 22 -66 29 -102 16 -33 -13 -58 -96 -36 -120 13
-13 94 -196 94 -211 0 -7 4 -13 7 -13 4 0 13 -15 21 -32 7 -18 23 -56 35 -84
24 -53 24 -75 3 -116 -20 -39 -40 -57 -57 -51 -14 4 -15 3 -2 -6 12 -8 11 -14
-9 -35 -13 -14 -28 -23 -34 -19 -6 3 -7 1 -3 -5 6 -11 -10 -26 -29 -27 -5 -1
-9 -6 -8 -13 4 -17 -91 -85 -167 -121 -99 -47 -193 -64 -319 -58 -128 6 -227
25 -196 39 16 6 14 7 -8 3 -34 -7 -140 36 -219 88 -91 61 -214 197 -203 225 2
7 0 10 -5 7 -18 -11 -107 205 -94 227 4 6 2 13 -4 17 -16 10 -39 126 -53 271
-20 209 4 656 51 948 11 67 20 125 20 128 0 3 4 2 10 -1 6 -3 7 1 4 10 -8 19
26 166 37 160 4 -3 11 0 15 6 4 8 3 9 -4 5 -15 -9 -15 -2 -1 49 22 80 72 194
82 188 5 -3 7 -1 3 5 -20 33 187 344 217 325 6 -3 7 -1 3 5 -10 17 108 106
209 157 69 34 237 90 285 95 3 0 23 -17 43 -38z"/>
<path d="M4224 3266 c-36 -16 -58 -64 -45 -99 5 -12 21 -33 35 -47 45 -41 105
-124 135 -186 34 -71 64 -171 57 -190 -3 -8 -2 -14 3 -14 5 0 12 -24 16 -52
11 -78 21 -502 12 -506 -18 -8 66 -42 102 -42 31 0 44 6 62 28 21 26 21 31 16
232 -7 241 -19 338 -53 457 -41 143 -106 264 -188 351 -65 70 -105 88 -152 68z"/>
<path d="M2237 2026 c-27 -25 -43 -67 -33 -85 3 -5 1 -11 -5 -13 -24 -8 85
-55 219 -93 78 -23 139 -44 135 -48 -4 -5 0 -5 9 -2 14 5 199 -33 248 -52 8
-3 24 -6 35 -7 67 -7 163 -30 158 -39 -3 -6 -1 -7 5 -3 6 4 84 -7 174 -23 256
-47 329 -58 543 -85 384 -49 815 -86 988 -86 37 0 66 -3 64 -7 -11 -18 906 -5
1263 17 171 11 197 13 414 35 175 18 179 18 171 5 -3 -5 -13 -6 -23 -3 -14 5
-15 3 -5 -7 10 -11 16 -10 33 5 16 14 62 26 178 43 86 13 175 24 197 25 22 0
33 2 24 4 -13 3 -11 9 12 33 35 34 38 76 8 114 -25 32 -43 32 -204 6 -143 -23
-169 -25 -160 -7 4 6 0 4 -8 -6 -11 -13 -32 -18 -93 -20 -44 -1 -81 -5 -84 -8
-6 -7 -334 -38 -475 -45 -55 -3 -158 -8 -230 -13 -71 -4 -203 -9 -292 -10
-146 -2 -163 0 -173 16 -10 17 -10 17 -8 -2 3 -19 -2 -20 -232 -16 -129 1
-302 7 -385 12 -82 5 -170 9 -195 10 -41 1 -520 47 -680 66 -62 7 -63 8 -25
13 24 4 1 6 -55 6 -114 0 -515 63 -484 75 12 6 7 7 -16 3 -59 -9 -619 112
-855 185 -55 17 -107 31 -116 31 -9 0 -28 -11 -42 -24z"/>
</g>
</svg>
