<?xml version="1.0" standalone="no"?>
<!DOCTYPE svg PUBLIC "-//W3C//DTD SVG 20010904//EN"
 "http://www.w3.org/TR/2001/REC-SVG-20010904/DTD/svg10.dtd">
<svg version="1.0" xmlns="http://www.w3.org/2000/svg"
 width="1024.000000pt" height="1024.000000pt" viewBox="0 0 1024.000000 1024.000000"
 preserveAspectRatio="xMidYMid meet">
<metadata>
Created by potrace 1.16, written by Peter Selinger 2001-2019
</metadata>
<g transform="translate(0.000000,1024.000000) scale(0.100000,-0.100000)"
fill="#000000" stroke="none">
<path d="M5805 7703 c-178 -23 -383 -98 -507 -184 -30 -22 -42 -24 -32 -6 5 8
3 8 -9 -2 -9 -7 -15 -17 -12 -21 2 -4 -25 -31 -60 -60 -66 -55 -151 -149 -182
-201 -10 -16 -24 -29 -32 -29 -8 0 -11 -3 -8 -6 10 -10 -35 -84 -46 -77 -6 3
-7 1 -3 -5 3 -6 1 -22 -5 -36 l-12 -25 -41 33 c-70 56 -254 156 -287 156 -6 0
-8 4 -4 9 3 5 0 13 -6 17 -8 5 -9 3 -4 -6 6 -10 1 -11 -21 -6 -16 4 -31 11
-34 14 -3 4 -12 8 -20 8 -8 1 -62 9 -119 19 -175 30 -386 9 -561 -56 -80 -29
-195 -93 -275 -152 -38 -29 -73 -52 -77 -52 -4 0 -8 -4 -8 -10 -1 -16 -62 -75
-72 -69 -5 3 -7 1 -6 -4 2 -5 -13 -29 -32 -53 -19 -23 -51 -67 -71 -96 -19
-29 -39 -50 -44 -46 -4 5 -5 3 -2 -3 4 -6 -6 -38 -22 -70 -15 -33 -34 -76 -40
-97 -8 -22 -17 -35 -24 -30 -7 4 -8 0 -4 -11 4 -9 -2 -48 -12 -86 -51 -183
-53 -437 -5 -615 15 -55 27 -110 28 -122 0 -11 4 -19 7 -17 7 4 65 -127 61
-138 -1 -5 2 -8 7 -8 14 0 52 -70 45 -82 -4 -6 -3 -8 3 -5 14 9 115 -112 106
-126 -3 -7 -2 -9 2 -4 12 10 45 -22 38 -39 -3 -8 0 -14 7 -14 6 0 8 5 5 10
-12 19 10 9 33 -15 l23 -24 -28 -7 c-157 -36 -312 -83 -411 -125 -24 -11 -49
-16 -54 -12 -6 3 -8 2 -5 -4 8 -13 -138 -84 -160 -77 -13 4 -14 3 -5 -3 9 -7
-7 -22 -59 -54 -39 -24 -75 -43 -80 -42 -5 2 -8 -1 -6 -6 1 -5 -16 -23 -37
-40 -32 -26 -42 -29 -55 -19 -13 10 -14 10 -4 -1 9 -10 -12 -36 -96 -120 -59
-58 -127 -132 -150 -163 -24 -32 -48 -55 -54 -51 -5 3 -7 1 -3 -5 3 -6 -7 -30
-23 -54 -85 -127 -187 -357 -224 -508 -24 -97 -45 -259 -52 -406 -6 -114 -9
-131 -24 -129 -9 1 -10 0 -3 -2 7 -3 9 -9 6 -15 -4 -7 -2 -8 4 -4 8 4 11 -26
10 -101 0 -88 -3 -110 -16 -120 -16 -12 -16 -13 1 -7 13 5 17 1 17 -16 0 -11
-4 -18 -10 -15 -5 3 -10 1 -10 -4 0 -6 5 -11 10 -11 6 0 10 -17 9 -37 0 -31
-2 -34 -9 -18 -5 11 -9 14 -9 7 -1 -7 -6 -10 -12 -7 -6 4 -5 -2 3 -14 7 -12
16 -21 20 -21 5 0 8 -31 8 -70 0 -49 -4 -70 -12 -70 -9 0 -8 -4 2 -11 11 -8
12 -12 3 -16 -7 -2 -13 -9 -13 -14 0 -6 5 -7 10 -4 6 3 10 -3 10 -14 0 -12 -6
-21 -12 -21 -10 0 -10 -2 -1 -8 7 -4 12 -37 12 -85 0 -42 6 -96 12 -120 7 -23
12 -44 11 -47 -1 -7 26 -11 82 -13 30 -1 43 5 61 25 l23 27 5 553 c5 572 7
591 52 768 41 161 125 344 222 484 67 96 251 283 343 348 218 153 448 252 710
303 177 34 274 35 425 2 99 -21 290 -47 354 -47 14 0 14 -2 1 -11 -12 -8 -10
-9 7 -4 32 9 75 -5 69 -22 -3 -8 -2 -11 3 -8 5 3 12 1 16 -5 3 -5 12 -10 18
-10 7 0 3 7 -7 15 -11 8 -17 15 -13 15 18 0 167 -62 163 -68 -2 -4 7 -8 20 -8
29 -2 170 -83 249 -143 108 -82 253 -230 193 -195 -8 4 -10 3 -5 -2 5 -5 14
-9 20 -9 19 0 118 -138 112 -155 -4 -8 -3 -11 1 -7 11 10 36 -31 28 -46 -4 -6
-3 -9 1 -4 5 4 20 -12 35 -35 37 -61 109 -222 112 -250 2 -12 8 -28 14 -35 15
-16 77 -252 70 -269 -3 -8 -2 -14 3 -14 22 0 58 -506 40 -572 -4 -14 -5 -29
-1 -32 3 -4 6 -125 6 -271 l1 -264 28 -28 c39 -39 99 -39 134 1 l24 29 -4 491
c-5 533 -9 574 -67 816 -64 260 -193 526 -355 728 -41 51 -75 97 -75 102 0 17
152 170 163 163 5 -3 7 -1 3 5 -7 12 108 109 197 166 89 57 248 134 345 166
48 16 172 43 277 61 269 45 375 40 653 -32 45 -12 82 -26 82 -30 0 -5 7 -5 17
-2 11 4 14 3 9 -5 -4 -8 -2 -10 8 -6 19 7 242 -87 341 -144 61 -36 81 -53 84
-72 3 -21 5 -22 10 -7 6 16 16 11 79 -36 110 -82 226 -191 309 -290 87 -104
126 -164 118 -178 -4 -5 -1 -8 6 -7 19 4 143 -246 183 -370 84 -262 98 -409
100 -1032 1 -374 4 -490 14 -508 17 -30 57 -45 103 -37 30 5 41 13 54 42 15
32 16 86 12 591 -5 576 -10 659 -52 823 -9 34 -13 69 -10 77 3 9 3 13 -1 10
-4 -4 -22 39 -40 95 -53 158 -180 403 -276 532 -133 176 -289 328 -450 437
-21 13 -36 27 -33 30 3 2 -1 5 -7 5 -7 0 -47 20 -88 45 -79 47 -219 116 -282
139 -21 7 -38 20 -39 29 0 8 -3 10 -5 4 -4 -9 -14 -9 -41 -1 -30 9 -32 12 -17
19 15 6 13 7 -6 4 -31 -6 -184 37 -173 49 4 4 2 5 -4 1 -7 -4 -40 -2 -72 5
l-60 11 52 41 c175 139 328 360 393 569 9 31 20 55 23 54 3 -2 6 10 7 27 0 18
8 75 17 127 38 216 10 457 -79 669 -20 47 -36 94 -37 103 -1 9 -3 15 -5 13 -3
-2 -33 40 -69 93 -70 105 -194 233 -296 306 -135 96 -318 169 -494 195 -68 10
-252 13 -318 4z m317 -198 c105 -22 157 -38 152 -47 -3 -4 1 -5 8 -3 28 11
255 -115 243 -134 -2 -5 1 -8 9 -7 32 3 226 -200 212 -223 -4 -5 -1 -13 5 -17
8 -5 10 -2 5 7 -4 8 0 5 9 -6 45 -54 116 -229 140 -347 34 -162 27 -403 -13
-436 -10 -7 -11 -11 -4 -7 18 9 15 -11 -18 -115 -34 -106 -111 -256 -129 -252
-7 1 -10 -2 -6 -8 14 -23 -143 -199 -166 -185 -7 5 -10 4 -5 -3 16 -27 -201
-153 -329 -191 -125 -36 -241 -46 -373 -32 -119 13 -307 65 -296 82 3 5 -3 6
-12 2 -12 -4 -15 -3 -10 5 4 7 2 10 -6 7 -7 -3 -42 12 -78 32 -78 46 -275 236
-266 258 3 8 1 14 -5 12 -27 -6 -152 249 -153 310 0 18 -3 28 -7 22 -3 -6 -9
4 -13 23 -78 364 -27 640 167 901 77 105 269 260 298 241 7 -4 9 -3 6 3 -4 6
0 14 9 17 10 4 13 2 9 -7 -4 -6 0 -4 8 6 27 32 191 85 312 100 77 10 231 6
297 -8z m-1792 -400 c52 -9 129 -27 170 -41 85 -28 176 -78 173 -93 -2 -6 3
-8 10 -5 17 6 109 -65 100 -79 -3 -5 -1 -7 4 -4 6 4 19 -3 29 -14 14 -15 15
-20 4 -17 -18 4 -21 -46 -23 -297 -2 -183 5 -305 16 -298 4 2 7 -2 7 -9 0 -7
3 -24 6 -38 4 -20 3 -22 -5 -10 -12 17 -15 1 -5 -25 5 -11 9 -13 14 -5 4 6 13
-10 20 -37 8 -26 24 -72 37 -100 12 -29 20 -60 16 -69 -4 -11 -2 -15 4 -11 7
4 26 -20 47 -58 36 -65 48 -113 24 -99 -7 4 -8 3 -4 -5 9 -13 -64 -152 -76
-145 -4 3 -5 -2 -2 -10 9 -25 -196 -224 -283 -275 -91 -54 -196 -95 -295 -115
-84 -17 -303 -22 -293 -7 3 6 -6 8 -20 5 -58 -10 -241 56 -353 130 -273 178
-421 514 -383 871 26 247 118 449 273 603 76 75 187 155 206 147 7 -2 11 -1 8
4 -12 19 207 100 239 87 9 -3 13 -2 10 3 -3 6 16 13 42 16 27 4 53 8 58 10 25
9 139 4 225 -10z m903 -1556 c-2 -5 3 -8 10 -6 6 1 11 -3 10 -9 -1 -7 5 -11
15 -10 9 0 16 -5 14 -12 -1 -8 2 -11 8 -7 14 9 42 -14 33 -28 -3 -5 -1 -7 5
-3 6 3 41 -10 78 -31 37 -20 92 -46 122 -59 l55 -22 -84 -43 c-46 -24 -90 -43
-97 -42 -7 0 -11 -1 -8 -4 3 -3 -18 -21 -47 -41 -101 -68 -239 -186 -316 -270
l-79 -85 -34 28 c-18 15 -32 32 -30 37 1 5 -2 7 -7 4 -5 -4 -31 8 -58 26 -26
18 -98 58 -160 89 l-112 56 92 46 c51 25 116 64 146 86 30 22 58 38 63 35 5
-3 7 -2 6 3 -1 4 27 37 62 73 66 66 134 156 184 243 l28 47 51 -46 c29 -26 51
-51 50 -55z"/>
</g>
</svg>
