<?xml version="1.0" standalone="no"?>
<!DOCTYPE svg PUBLIC "-//W3C//DTD SVG 20010904//EN"
 "http://www.w3.org/TR/2001/REC-SVG-20010904/DTD/svg10.dtd">
<svg version="1.0" xmlns="http://www.w3.org/2000/svg"
 width="1024.000000pt" height="1024.000000pt" viewBox="0 0 1024.000000 1024.000000"
 preserveAspectRatio="xMidYMid meet">
<metadata>
Created by potrace 1.16, written by Peter Selinger 2001-2019
</metadata>
<g transform="translate(0.000000,1024.000000) scale(0.100000,-0.100000)"
fill="#000000" stroke="none">
<path d="M3538 7951 l-33 -29 0 -160 c0 -88 3 -155 7 -149 4 7 8 -3 8 -21 0
-47 37 -223 61 -293 11 -32 17 -64 13 -70 -4 -7 -3 -9 3 -6 12 7 35 -61 26
-77 -3 -6 -3 -8 2 -4 4 4 31 -41 60 -100 89 -179 209 -333 360 -460 217 -182
420 -281 818 -396 61 -18 70 -33 45 -79 -10 -19 -9 -20 4 -9 26 21 33 -115 33
-630 0 -351 3 -480 12 -489 6 -6 9 -19 6 -28 -4 -13 -3 -14 5 -2 9 13 13 13
27 1 16 -13 132 -24 120 -11 -3 2 5 16 19 30 23 25 24 31 30 261 8 331 32 531
82 701 16 53 51 85 84 76 11 -3 18 -2 16 2 -7 10 133 43 146 35 6 -4 8 -2 5 3
-8 12 50 26 66 16 6 -3 7 -1 3 5 -7 11 7 16 42 15 6 -1 12 4 12 9 0 6 7 7 16
4 8 -3 13 -2 10 3 -3 5 6 12 22 15 56 14 330 159 422 224 52 37 138 110 190
162 52 52 99 93 103 92 5 -1 6 1 3 6 -3 5 8 24 23 43 52 64 118 164 153 232
19 37 38 64 43 60 4 -5 5 -3 1 4 -4 7 4 34 17 60 82 162 146 455 147 663 0
114 -16 149 -76 169 -108 35 -562 -115 -784 -260 -36 -23 -70 -42 -77 -42 -7
0 -11 -3 -10 -7 1 -4 -25 -29 -58 -57 -239 -200 -401 -422 -512 -703 -43 -106
-89 -271 -104 -365 -15 -94 -34 -128 -26 -45 3 30 3 46 0 35 -3 -11 -16 39
-28 110 -24 137 -43 219 -77 323 -17 53 -18 65 -6 80 11 15 11 16 -3 5 -14
-11 -17 -8 -27 25 -14 48 -93 209 -140 287 -112 186 -270 356 -434 467 -21 13
-36 27 -33 30 3 2 -1 5 -7 5 -7 0 -42 17 -78 37 -153 88 -412 182 -584 211
-120 20 -131 19 -168 -14z m327 -253 c120 -40 295 -124 397 -190 104 -68 244
-200 318 -299 90 -121 212 -372 194 -400 -4 -7 -3 -9 3 -6 12 7 60 -149 93
-300 11 -51 20 -95 20 -97 0 -10 -299 97 -386 138 -98 47 -239 138 -319 207
-80 69 -186 189 -178 202 3 7 2 8 -2 4 -11 -10 -85 104 -131 201 -61 127 -121
319 -110 348 3 7 1 14 -4 16 -8 3 -17 52 -35 186 -4 38 -7 38 140 -10z m2680
-174 c-17 -160 -86 -374 -172 -534 -54 -102 -180 -273 -194 -265 -5 4 -8 1 -7
-7 2 -7 -3 -12 -10 -10 -8 1 -11 -1 -8 -6 7 -12 -48 -64 -58 -55 -4 5 -6 3 -4
-3 7 -24 -204 -179 -333 -245 -82 -41 -211 -93 -309 -124 -47 -14 -94 -31
-104 -37 -16 -8 -18 -7 -12 7 3 9 6 23 6 31 0 9 4 13 9 10 5 -4 7 2 4 12 -13
50 145 521 170 505 5 -3 7 -1 4 4 -19 30 140 256 267 383 166 165 347 273 601
359 163 56 159 56 150 -25z"/>
<path d="M2403 5675 c-91 -17 -228 -55 -368 -100 -247 -81 -411 -108 -632
-104 -141 3 -155 2 -180 -17 -40 -30 -57 -85 -39 -127 28 -67 42 -72 210 -75
257 -6 394 18 770 133 224 68 323 91 356 82 12 -3 18 -1 14 5 -10 16 176 4
264 -17 45 -10 70 -21 66 -27 -4 -7 -2 -8 5 -4 16 10 162 -64 154 -78 -3 -6
-2 -8 2 -3 15 13 158 -90 148 -106 -3 -6 -2 -8 3 -4 10 6 74 -44 198 -156 43
-39 89 -79 102 -90 13 -10 21 -24 17 -30 -3 -7 -3 -9 2 -5 9 8 131 -101 128
-114 -2 -4 1 -7 6 -5 5 1 81 -65 170 -146 89 -82 214 -196 279 -254 64 -59
116 -110 114 -115 -1 -5 2 -7 7 -4 13 8 80 -69 102 -118 33 -72 22 -142 -33
-224 -42 -61 -114 -96 -198 -96 -95 1 -145 31 -335 199 -44 39 -92 81 -107 94
-15 13 -25 29 -21 34 3 6 2 7 -4 4 -5 -3 -110 85 -234 195 -123 111 -242 214
-263 230 -53 38 -104 38 -148 -1 -28 -25 -33 -36 -33 -74 0 -54 -1 -53 187
-224 100 -90 136 -128 132 -141 -5 -13 -4 -14 4 -3 7 10 41 -15 148 -111 285
-253 659 -572 797 -677 31 -24 54 -47 51 -52 -3 -5 -2 -8 3 -7 14 4 54 -23 48
-33 -4 -5 -3 -8 2 -7 13 4 333 -243 372 -288 71 -81 98 -184 67 -257 -18 -42
-81 -102 -97 -92 -7 5 -10 4 -5 -3 15 -25 -34 -15 -89 18 -33 20 -87 52 -120
69 -114 62 -444 275 -439 283 3 5 2 8 -3 7 -22 -4 -34 2 -27 14 4 6 4 9 -1 5
-10 -10 -231 141 -227 155 2 7 0 9 -3 5 -11 -11 -83 41 -685 495 -20 16 -56
31 -78 34 -37 5 -45 2 -77 -30 -19 -19 -36 -46 -36 -58 -2 -37 2 -63 12 -75 5
-6 5 -15 1 -20 -4 -5 -3 -6 1 -2 5 3 51 -27 103 -67 192 -150 565 -427 712
-528 83 -58 148 -108 144 -112 -4 -3 -2 -5 5 -3 6 1 76 -37 156 -87 102 -63
143 -94 140 -105 -4 -12 -3 -12 5 -2 7 10 27 2 90 -36 45 -27 79 -53 74 -57
-4 -5 -2 -5 5 -1 7 3 35 -8 62 -25 58 -35 65 -59 30 -103 -36 -46 -68 -57
-137 -46 -478 77 -1235 454 -1699 846 -102 86 -443 413 -440 422 1 4 -1 7 -5
7 -4 0 -78 70 -165 155 -162 160 -252 234 -334 276 -122 61 -339 86 -392 44
-35 -28 -52 -81 -38 -122 17 -52 65 -78 142 -78 45 0 60 -3 49 -10 -11 -7 -7
-8 15 -4 44 8 134 -26 208 -80 80 -58 300 -273 292 -286 -4 -6 -2 -9 3 -8 5 2
104 -88 218 -199 279 -270 426 -392 676 -559 59 -39 104 -75 100 -79 -4 -5 -2
-5 4 -2 6 4 52 -18 102 -48 358 -215 783 -392 1152 -477 161 -37 300 -14 383
64 20 19 38 35 39 34 2 -1 2 1 1 3 -2 2 6 18 16 35 11 17 24 50 30 73 8 30 16
41 26 37 8 -4 12 -11 8 -18 -3 -6 0 -5 8 2 12 11 12 14 -1 22 -12 8 -9 10 12
10 59 0 142 41 200 100 32 31 61 54 65 51 3 -3 3 -1 0 6 -11 18 3 42 21 36 12
-3 13 -2 4 4 -10 8 -9 18 3 54 12 32 15 72 13 151 -2 58 -5 104 -7 102 -2 -2
-14 21 -27 52 -12 30 -38 76 -58 101 -19 25 -33 50 -29 56 3 5 1 7 -4 4 -6 -4
-19 3 -29 14 -24 27 -130 114 -251 206 -51 39 -89 74 -85 78 4 3 2 5 -4 3 -7
-1 -69 42 -138 96 l-127 99 68 38 c186 103 273 250 260 441 -6 96 -32 169 -84
241 -20 27 -142 144 -272 260 -131 117 -345 312 -476 433 -434 402 -571 499
-804 576 -89 28 -108 31 -261 34 -111 2 -189 -1 -237 -11z"/>
<path d="M7465 5683 c-16 -3 -64 -14 -105 -25 -41 -12 -83 -21 -92 -22 -9 0
-15 -2 -13 -4 2 -3 -26 -19 -63 -37 -138 -66 -285 -179 -566 -435 -283 -258
-331 -298 -340 -293 -5 4 -6 1 -3 -4 4 -6 -26 -40 -66 -75 -459 -406 -460
-408 -498 -546 -62 -221 33 -442 235 -548 31 -16 54 -33 52 -39 -2 -5 -9 -9
-15 -7 -6 1 -10 -2 -9 -7 3 -8 -57 -58 -367 -302 -230 -182 -293 -254 -329
-378 -22 -75 -21 -195 3 -270 10 -33 16 -63 12 -67 -3 -4 0 -4 7 0 6 4 12 3
12 -2 0 -6 20 -33 45 -60 53 -59 127 -98 204 -109 l54 -8 18 -53 c10 -29 27
-65 38 -81 11 -15 17 -32 13 -37 -4 -5 -3 -6 2 -2 5 4 25 -7 44 -24 89 -77
213 -95 397 -58 133 27 348 95 509 161 65 27 123 46 130 42 6 -3 8 -3 4 2 -8
9 308 170 329 168 7 0 11 2 9 6 -3 4 35 29 82 55 261 147 549 366 846 640 59
56 113 100 118 98 5 -1 7 1 4 6 -3 5 101 115 232 244 214 212 244 238 312 271
74 36 164 57 247 57 107 0 151 133 65 200 -44 35 -243 21 -362 -26 -80 -31
-191 -114 -315 -235 -67 -66 -126 -115 -130 -111 -5 4 -5 2 -2 -4 8 -14 -46
-67 -58 -57 -4 5 -5 3 -2 -3 6 -11 -246 -265 -393 -395 -179 -158 -396 -323
-412 -313 -6 4 -8 3 -5 -2 11 -19 -283 -199 -513 -314 -168 -84 -314 -145
-485 -202 -182 -60 -467 -121 -417 -89 10 6 9 10 -7 14 -13 3 -19 1 -15 -5 4
-6 -3 -5 -15 2 -28 15 -62 69 -59 94 3 22 225 158 242 149 6 -4 8 -3 4 2 -8 8
208 148 230 148 6 0 10 2 7 5 -2 2 58 46 133 96 205 137 245 166 531 380 181
135 208 166 193 217 -25 87 -112 115 -188 62 -22 -16 -103 -75 -179 -133 -312
-233 -649 -461 -963 -649 -170 -102 -208 -121 -231 -116 -76 17 -138 124 -119
208 13 58 44 117 82 158 43 44 346 275 357 271 5 -1 8 2 7 6 -2 5 71 69 162
142 195 158 536 451 819 705 67 61 127 109 132 108 5 -2 8 1 6 6 -1 5 52 58
118 116 66 59 125 116 132 128 23 42 16 84 -22 122 -40 40 -84 46 -136 20 -16
-9 -110 -87 -207 -174 -655 -583 -690 -609 -797 -598 -72 7 -149 50 -186 103
-33 48 -59 131 -44 142 6 4 11 24 11 45 2 51 37 98 142 189 48 42 132 117 186
166 55 50 103 89 108 86 5 -3 7 -1 6 4 -4 14 334 322 345 315 6 -3 7 -2 4 4
-7 12 279 271 405 366 162 122 296 175 466 184 63 4 102 2 102 -4 0 -5 13 -8
29 -5 43 6 159 -20 376 -84 360 -106 519 -134 752 -134 100 0 141 4 163 15 33
17 60 61 60 97 0 28 -33 83 -57 96 -10 5 -94 12 -188 15 -188 6 -311 26 -520
83 -71 19 -185 50 -252 69 -181 49 -288 65 -432 64 -69 -1 -139 -4 -156 -6z"/>
</g>
</svg>
