<?xml version="1.0" standalone="no"?>
<!DOCTYPE svg PUBLIC "-//W3C//DTD SVG 20010904//EN" "http://www.w3.org/TR/2001/REC-SVG-20010904/DTD/svg10.dtd">
<svg xmlns="http://www.w3.org/2000/svg" version="1.0" width="1024.000000pt" height="1024.000000pt" viewBox="0 0 1024.000000 1024.000000" preserveAspectRatio="xMidYMid meet">
<metadata>
Created by potrace 1.16, written by Peter Selinger 2001-2019
<meta name="Producer" content="Online-Convert"/></metadata>
<g transform="translate(0.000000,1024.000000) scale(0.100000,-0.100000)" fill="#000000" stroke="none">
<path d="M4984 8520 c-405 -46 -751 -242 -990 -559 -113 -151 -222 -389 -254 -556 l-12 -60 -181 0 c-203 -1 -287 -15 -435 -77 -160 -66 -348 -224 -451 -375 -98 -147 -178 -348 -202 -512 -15 -110 -6 -282 21 -386 30 -116 108 -267 177 -346 150 -171 314 -271 543 -331 82 -21 105 -22 669 -25 l583 -4 24 22 c30 28 31 70 3 95 -20 18 -49 19 -593 25 -545 5 -575 7 -655 27 -310 81 -539 298 -612 579 -26 103 -29 299 -5 393 19 74 67 202 104 275 183 367 588 567 1000 496 79 -14 83 -14 110 6 24 18 29 33 45 123 79 459 408 840 855 990 235 78 540 80 768 4 97 -33 252 -109 336 -165 80 -53 241 -216 293 -294 62 -95 144 -258 175 -350 48 -140 62 -227 69 -423 8 -232 10 -235 162 -192 379 105 783 -83 959 -445 68 -139 85 -218 84 -390 0 -142 -2 -155 -31 -241 -48 -139 -99 -218 -231 -356 -79 -83 -85 -124 -21 -158 28 -16 55 1 140 85 143 141 238 311 276 490 21 100 13 342 -15 447 -24 90 -83 216 -143 307 -188 285 -519 448 -868 428 -58 -4 -118 -9 -132 -13 l-25 -6 -12 141 c-37 431 -247 827 -567 1069 -91 69 -306 175 -420 207 -177 51 -392 72 -541 55z"/>
<path d="M5076 5414 c-22 -21 -20 -10 -71 -469 -24 -225 -76 -689 -114 -1030 -38 -341 -80 -720 -92 -842 -22 -216 -23 -222 -4 -242 23 -27 76 -28 99 -2 14 15 23 68 41 238 22 207 93 825 134 1183 11 91 43 382 72 647 50 458 52 483 35 507 -19 30 -75 36 -100 10z"/>
<path d="M5722 5398 c-17 -20 -25 -58 -52 -256 -52 -395 -88 -689 -106 -875 l-18 -177 21 -21 c27 -27 69 -28 95 -2 14 15 22 43 29 104 6 46 19 154 29 239 11 85 22 180 25 210 11 94 85 683 91 715 12 68 -68 112 -114 63z"/>
<path d="M6326 4928 c-22 -19 -33 -49 -61 -164 -19 -78 -55 -197 -79 -265 -88 -247 -117 -369 -136 -575 -17 -181 9 -356 75 -501 68 -148 126 -215 451 -523 106 -101 139 -161 137 -255 -1 -38 -6 -90 -12 -115 -12 -54 2 -90 41 -104 53 -19 111 51 208 249 98 203 135 378 127 599 -8 229 -47 337 -201 564 -50 74 -95 141 -101 150 -5 9 -15 22 -22 29 -28 31 -125 216 -167 319 -46 113 -101 308 -132 468 -18 92 -39 129 -81 141 -14 4 -30 -2 -47 -17z m113 -596 c70 -197 128 -300 325 -577 144 -202 184 -336 173 -580 -4 -76 -15 -165 -27 -213 -20 -84 -57 -182 -69 -182 -3 0 -18 24 -34 53 -39 75 -73 113 -226 254 -304 278 -391 443 -392 738 -1 167 29 321 113 575 l61 184 18 -71 c10 -39 36 -121 58 -181z"/>
<path d="M3548 4848 c-95 -102 -260 -401 -299 -543 -27 -101 -23 -231 10 -317 31 -80 106 -159 189 -200 62 -31 74 -33 167 -33 89 0 106 3 156 28 70 34 152 119 187 194 24 52 27 69 27 173 0 94 -4 128 -24 185 -34 101 -102 234 -185 360 -126 192 -167 219 -228 153z m142 -273 c117 -193 166 -332 158 -445 -8 -106 -56 -178 -148 -219 -127 -58 -274 15 -313 155 -9 33 -17 82 -17 108 0 90 67 250 187 444 44 71 46 72 65 55 10 -9 41 -54 68 -98z"/>
<path d="M4411 4721 c-11 -11 -22 -35 -25 -53 -7 -40 -78 -687 -106 -968 -12 -113 -34 -311 -50 -440 -16 -129 -50 -423 -75 -653 l-47 -419 23 -24 c13 -14 34 -24 49 -24 58 0 59 2 116 513 30 259 63 537 74 617 11 80 42 366 70 635 28 270 57 546 65 615 8 69 15 137 15 153 0 57 -69 88 -109 48z"/>
<path d="M5532 3667 c-55 -26 -241 -350 -298 -518 -23 -69 -28 -100 -28 -174 1 -128 27 -189 114 -277 58 -59 75 -69 139 -88 98 -30 178 -24 265 19 77 38 128 92 169 180 27 56 32 80 35 161 5 113 -10 166 -95 335 -63 126 -193 325 -230 355 -29 22 -38 23 -71 7z m109 -299 c21 -37 63 -116 92 -175 51 -105 52 -109 52 -198 0 -81 -3 -95 -30 -144 -36 -65 -89 -106 -149 -115 -170 -26 -300 144 -251 329 20 74 87 218 156 332 l52 86 19 -24 c10 -13 37 -54 59 -91z"/>
</g>
</svg>
