<?xml version="1.0" standalone="no"?>
<!DOCTYPE svg PUBLIC "-//W3C//DTD SVG 20010904//EN" "http://www.w3.org/TR/2001/REC-SVG-20010904/DTD/svg10.dtd">
<svg xmlns="http://www.w3.org/2000/svg" version="1.0" width="1024.000000pt" height="1024.000000pt" viewBox="0 0 1024.000000 1024.000000" preserveAspectRatio="xMidYMid meet">
<metadata>
Created by potrace 1.16, written by Peter Selinger 2001-2019
<meta name="Producer" content="Online-Convert"/></metadata>
<g transform="translate(0.000000,1024.000000) scale(0.100000,-0.100000)" fill="#000000" stroke="none">
<path d="M5201 8663 c-21 -17 -49 -99 -30 -87 5 3 9 1 9 -3 0 -5 12 -21 28 -38 50 -54 101 -128 95 -138 -3 -6 -1 -7 5 -3 11 6 16 -6 13 -26 0 -5 4 -7 9 -5 6 1 18 -11 28 -28 9 -16 22 -33 27 -37 6 -4 6 -8 2 -8 -5 0 1 -13 12 -29 37 -51 55 -116 56 -198 0 -28 4 -49 9 -46 4 3 6 -21 3 -53 -3 -33 -6 -65 -6 -72 -1 -7 -5 -10 -11 -7 -6 3 -7 -1 -4 -10 9 -21 -45 -147 -59 -138 -6 3 -7 1 -3 -6 8 -12 -43 -101 -74 -132 -9 -9 -25 -27 -36 -40 -33 -41 -135 -129 -144 -124 -4 3 -10 -5 -13 -16 -4 -14 -11 -20 -21 -16 -9 4 -15 2 -13 -3 2 -8 -136 -120 -149 -120 -17 0 -220 -170 -290 -242 -123 -129 -156 -177 -199 -292 -28 -74 -38 -202 -22 -284 8 -38 7 -42 -10 -36 -14 5 -15 4 -3 -4 8 -6 18 -8 22 -6 4 3 8 -2 8 -10 0 -8 16 -45 35 -81 19 -37 32 -72 28 -78 -3 -5 -1 -7 4 -4 6 4 29 -17 51 -46 21 -28 54 -67 72 -86 26 -27 30 -35 19 -43 -11 -8 -10 -8 4 -4 13 4 33 -7 64 -37 97 -88 143 -139 136 -150 -3 -7 -3 -9 2 -5 4 4 15 -3 25 -15 27 -36 31 -55 12 -66 -11 -7 -12 -11 -4 -11 7 0 10 -4 7 -10 -3 -5 -1 -10 5 -10 7 0 9 7 6 16 -3 8 -2 12 4 9 16 -10 23 -95 11 -138 -16 -57 -53 -137 -60 -132 -4 2 -8 -6 -8 -17 -1 -11 -9 -28 -17 -37 -21 -23 -20 -64 2 -83 33 -30 58 -30 91 -2 17 14 31 30 31 35 0 10 10 24 42 59 9 10 15 20 12 22 -2 2 6 29 17 59 71 186 32 326 -141 498 -52 53 -114 113 -137 133 -24 21 -41 43 -39 50 1 7 1 10 -2 5 -5 -9 -48 44 -44 56 1 5 -2 6 -7 3 -9 -6 -63 79 -91 144 -10 23 -14 67 -14 130 1 86 4 102 33 165 49 105 138 206 284 322 39 32 74 60 77 64 3 3 28 21 55 39 103 70 270 205 338 274 40 41 77 70 86 68 11 -2 12 0 4 6 -9 6 -3 21 23 57 20 28 48 74 61 104 19 39 28 50 35 40 5 -9 6 -4 2 15 -5 22 -4 27 6 21 8 -5 11 -4 7 1 -3 6 3 44 14 85 28 105 27 233 -1 338 -5 19 -7 46 -5 60 5 23 4 23 -4 6 -5 -11 -10 -15 -10 -8 -2 26 -63 143 -117 223 -31 47 -57 90 -57 97 0 7 -4 10 -8 8 -11 -8 -31 23 -23 36 4 7 3 9 -3 6 -5 -3 -29 14 -53 38 -48 49 -67 54 -99 28z"/>
<path d="M7495 6343 c-11 -3 -59 -29 -108 -59 -49 -30 -95 -51 -101 -47 -6 3 -8 3 -4 -2 9 -10 -5 -20 -87 -65 -33 -18 -70 -40 -82 -47 -12 -8 -28 -11 -34 -7 -7 4 -9 3 -5 -4 6 -9 -83 -67 -99 -63 -3 1 -15 -8 -28 -20 -12 -11 -35 -27 -52 -35 -16 -7 -37 -18 -45 -24 -65 -43 -254 -150 -265 -150 -3 0 -3 6 1 13 4 7 3 9 -2 4 -5 -5 -9 -14 -9 -19 0 -6 -6 -13 -14 -16 -9 -3 -11 0 -6 9 5 8 4 11 -1 6 -5 -5 -9 -14 -9 -20 0 -13 -66 -47 -78 -40 -4 2 -6 -1 -5 -7 3 -12 -21 -30 -97 -71 -22 -12 -51 -29 -65 -39 -166 -114 -213 -142 -222 -129 -7 11 -8 10 -6 -3 2 -11 -17 -31 -55 -57 -32 -23 -61 -41 -65 -41 -4 0 -14 -9 -22 -20 -8 -11 -18 -20 -22 -20 -5 0 -36 -22 -71 -49 -34 -26 -68 -46 -75 -44 -7 3 -11 -1 -10 -9 2 -7 -3 -12 -10 -10 -8 1 -11 -2 -8 -7 3 -5 -15 -25 -41 -45 -26 -20 -67 -55 -90 -77 -25 -23 -48 -37 -55 -33 -6 4 -8 3 -5 -3 4 -6 -29 -46 -72 -91 -61 -61 -82 -77 -92 -68 -9 8 -10 7 -6 -7 5 -13 -10 -37 -51 -86 -93 -107 -180 -234 -251 -364 -34 -61 -129 -278 -135 -306 -2 -9 -5 -23 -8 -31 -3 -8 -11 -34 -17 -58 -8 -28 -16 -40 -24 -36 -9 5 -9 4 0 -6 7 -8 9 -19 4 -29 -14 -26 -50 -215 -63 -331 -6 -60 -16 -107 -20 -104 -12 8 -10 -10 3 -23 6 -6 7 -13 2 -16 -5 -3 -6 -32 -3 -64 7 -56 6 -109 -4 -258 -3 -39 -1 -61 3 -50 5 12 10 -18 14 -83 4 -57 16 -180 27 -275 21 -180 27 -452 10 -462 -5 -3 -6 -13 -3 -21 9 -23 -18 -228 -28 -212 -5 7 -9 9 -9 3 0 -5 4 -16 9 -24 5 -8 5 -28 -1 -47 -7 -26 -5 -42 7 -67 13 -27 22 -33 51 -35 50 -4 70 23 80 108 13 107 28 179 35 174 5 -3 6 2 3 11 -4 9 -1 37 7 62 25 90 59 148 169 287 18 23 130 135 156 156 62 50 189 114 205 104 7 -4 9 -3 6 3 -8 13 127 68 144 58 7 -5 10 -4 5 3 -8 13 48 27 65 16 7 -4 9 -3 6 3 -4 6 53 30 136 58 232 78 493 212 686 351 40 30 77 51 82 48 5 -3 8 -2 7 3 -1 4 63 73 143 153 206 205 306 345 456 637 31 61 61 109 65 107 4 -3 5 2 2 10 -3 8 2 28 11 45 8 17 13 31 10 31 -3 0 1 10 9 23 29 45 128 355 150 467 3 14 12 60 20 102 8 42 17 91 19 110 3 18 7 44 11 58 3 14 8 50 11 80 2 30 8 73 12 95 5 22 8 189 7 370 -1 296 -5 359 -29 510 -2 11 -6 40 -9 65 -4 30 -14 52 -30 66 -14 12 -22 25 -19 28 4 3 4 5 2 5 -2 -1 -13 -4 -24 -6z m-36 -310 c15 -172 25 -477 14 -470 -4 3 -6 -19 -5 -49 7 -110 -38 -497 -73 -619 -1 -5 -6 -25 -10 -43 -4 -18 -12 -35 -16 -38 -5 -3 -7 -10 -4 -15 5 -7 -62 -218 -119 -376 -31 -86 -184 -373 -233 -439 -13 -17 -23 -34 -23 -38 0 -34 -315 -380 -338 -371 -7 2 -11 1 -8 -4 8 -13 -45 -63 -61 -57 -7 3 -12 0 -10 -6 3 -15 -82 -80 -95 -72 -6 4 -8 3 -5 -2 3 -6 -15 -24 -41 -41 -187 -124 -234 -149 -254 -137 -6 4 -8 3 -5 -3 5 -8 -42 -39 -73 -48 -3 -1 -27 -12 -54 -24 -27 -13 -54 -24 -60 -26 -6 -1 -18 -4 -26 -7 -105 -39 -141 -49 -151 -42 -7 4 -10 3 -6 -3 3 -5 -26 -20 -66 -32 -40 -13 -101 -34 -136 -47 -35 -14 -70 -23 -78 -20 -8 3 -12 2 -9 -3 8 -12 -122 -73 -137 -65 -7 4 -9 4 -5 -1 4 -4 -21 -26 -55 -48 -34 -22 -78 -52 -98 -68 -20 -16 -39 -26 -43 -24 -3 3 -4 2 -1 -2 9 -12 -16 -32 -33 -26 -13 4 -14 3 -3 -5 11 -8 7 -14 -18 -33 -17 -12 -31 -27 -31 -31 0 -5 -12 -26 -26 -46 -33 -47 -32 -44 50 123 37 77 81 168 97 202 24 50 165 315 198 373 5 8 13 14 18 13 4 -1 9 9 9 22 1 12 11 36 22 51 39 56 92 144 92 154 0 6 5 10 10 10 6 0 10 5 10 10 0 20 313 477 350 510 3 3 23 28 45 55 22 28 55 68 75 91 19 23 60 70 90 105 100 117 163 179 173 172 5 -3 7 -1 4 4 -4 6 89 107 207 224 236 237 247 255 197 303 -27 26 -61 35 -61 16 0 -5 -4 -10 -9 -10 -5 0 -57 -47 -115 -105 -63 -63 -111 -103 -118 -99 -6 4 -9 3 -5 -2 8 -13 -20 -47 -32 -39 -7 3 -8 0 -5 -9 3 -9 1 -17 -5 -17 -6 -1 -17 -2 -23 -3 -7 0 -13 -8 -13 -17 0 -9 -25 -41 -56 -70 -120 -115 -364 -391 -444 -503 -36 -51 -47 -59 -57 -44 -7 9 -8 7 -5 -8 3 -15 -9 -39 -35 -75 -65 -85 -198 -279 -198 -288 0 -5 -6 -14 -13 -20 -8 -6 -24 -31 -37 -56 -13 -25 -27 -45 -32 -45 -4 0 -8 -7 -8 -16 0 -9 -5 -12 -12 -8 -6 4 -8 3 -5 -3 3 -5 -5 -26 -18 -45 -13 -20 -38 -62 -55 -94 -17 -33 -45 -81 -62 -109 -17 -27 -58 -102 -91 -165 -34 -63 -65 -116 -69 -118 -4 -2 -8 -10 -8 -18 0 -23 -60 -129 -72 -126 -5 1 -6 -3 -3 -9 10 -15 -25 -89 -42 -89 -7 0 -13 -5 -13 -11 0 -5 4 -8 9 -5 4 3 3 -13 -3 -36 -10 -39 -12 -35 -23 88 -21 229 -25 297 -27 409 -2 105 13 330 29 426 31 196 109 462 129 442 4 -4 4 0 0 10 -9 24 98 237 184 367 76 114 252 317 271 312 7 -1 10 2 7 7 -12 18 277 276 296 265 6 -4 8 -2 5 3 -7 10 53 63 70 63 4 0 1 -5 -7 -11 -13 -9 -13 -10 0 -6 8 2 14 10 12 16 -1 6 26 32 60 57 35 25 70 51 79 58 9 7 20 15 25 17 21 9 219 144 222 151 2 4 8 8 13 8 6 0 45 22 87 48 181 115 213 132 225 126 7 -4 9 -4 5 1 -11 12 29 38 45 29 6 -4 9 -4 5 1 -14 15 95 81 114 69 7 -4 8 -3 4 5 -4 6 0 14 11 18 10 4 35 17 56 30 20 13 37 20 37 16 0 -5 4 -3 8 3 4 6 111 71 237 143 127 73 237 139 245 147 8 8 17 14 21 14 3 0 11 -57 18 -127z"/>
<path d="M2360 4273 c0 -6 -12 -13 -27 -15 -17 -2 -33 -13 -42 -30 -17 -30 -9 -76 35 -200 14 -41 19 -70 13 -73 -5 -4 -7 -11 -3 -16 3 -5 9 -7 13 -4 5 2 27 -44 49 -102 33 -86 39 -110 29 -122 -10 -12 -9 -14 6 -8 14 5 23 -5 44 -51 15 -31 26 -65 25 -76 0 -10 2 -16 5 -13 8 9 55 -64 57 -89 0 -12 4 -20 9 -17 12 7 8 -12 -5 -27 -11 -12 -10 -12 4 -1 15 11 21 6 50 -41 18 -29 31 -55 30 -57 -2 -2 3 -8 12 -13 9 -5 14 -13 11 -19 -4 -5 -2 -9 3 -9 5 0 27 -24 49 -53 61 -80 210 -229 290 -290 40 -30 69 -58 65 -62 -4 -5 -2 -5 4 -2 14 8 66 -27 57 -38 -5 -4 -2 -5 5 -1 6 4 24 -2 40 -12 15 -11 44 -27 65 -36 25 -10 36 -20 31 -27 -4 -8 -3 -9 4 -5 6 4 35 -4 64 -17 29 -13 67 -28 83 -32 17 -5 32 -9 35 -11 3 -1 15 -5 27 -9 13 -4 21 -11 18 -15 -2 -4 6 -5 18 -3 12 2 45 -3 72 -12 37 -11 42 -14 18 -12 -18 2 -30 1 -27 -2 3 -3 38 -7 77 -7 40 -1 132 -7 205 -15 159 -15 397 -1 439 26 30 20 48 58 38 82 -4 10 -10 27 -12 38 -2 10 -9 28 -17 40 -16 26 -27 67 -15 59 5 -3 9 0 9 5 0 6 -6 11 -14 11 -8 0 -20 16 -27 35 -7 19 -16 35 -20 35 -12 0 -31 58 -23 71 4 7 3 10 -3 6 -5 -3 -25 22 -45 56 -53 93 -164 244 -227 311 -31 32 -55 63 -53 70 2 6 0 8 -4 4 -10 -11 -35 12 -27 25 3 5 2 8 -3 4 -5 -3 -32 15 -59 40 -28 24 -81 65 -119 90 -38 25 -76 51 -84 59 -7 8 -20 14 -28 14 -8 0 -14 4 -14 9 0 5 -9 13 -20 16 -11 4 -17 11 -14 17 4 6 2 8 -3 5 -6 -4 -51 13 -99 37 -49 24 -123 56 -164 70 -41 15 -84 32 -95 37 -25 11 -155 58 -175 64 -50 13 -179 73 -173 80 5 4 2 5 -5 0 -19 -10 -67 16 -50 27 8 5 3 6 -13 3 -28 -7 -153 51 -143 66 3 5 -1 6 -9 3 -20 -7 -158 66 -150 80 3 6 3 8 -2 4 -8 -8 -74 27 -87 46 -5 8 -8 7 -8 -1z m290 -311 c47 -21 102 -45 122 -52 20 -8 34 -18 31 -23 -3 -6 -1 -7 5 -3 5 3 44 -7 85 -24 42 -16 80 -30 87 -30 6 0 8 -5 4 -12 -4 -6 -3 -8 3 -5 10 7 110 -22 171 -50 18 -8 41 -16 50 -18 10 -1 71 -28 136 -59 169 -80 377 -220 357 -242 -3 -4 0 -4 7 0 8 5 44 -24 105 -86 107 -108 172 -192 161 -209 -4 -7 -3 -9 3 -6 6 4 18 -2 28 -13 14 -16 15 -20 4 -21 -9 0 -7 -3 4 -8 10 -4 18 -11 17 -15 -1 -5 4 -13 12 -17 10 -7 10 -9 1 -9 -7 0 -13 -4 -13 -9 0 -5 7 -8 16 -7 10 0 28 -20 47 -52 25 -45 28 -56 16 -64 -11 -8 -11 -9 2 -5 13 4 23 -9 43 -53 16 -34 23 -65 19 -76 -4 -12 -3 -15 5 -10 7 4 12 1 12 -8 0 -17 -9 -19 -122 -21 -37 0 -64 3 -62 7 3 4 -5 4 -18 0 -13 -5 -36 -7 -53 -6 -165 14 -223 23 -231 35 -2 4 -11 6 -18 3 -10 -4 -118 20 -181 41 -5 1 -20 6 -33 10 -54 18 -162 75 -162 87 0 11 -2 11 -8 0 -7 -10 -14 -8 -34 8 -15 11 -31 20 -36 20 -6 0 -12 3 -14 8 -1 4 -33 29 -70 55 -37 26 -71 55 -76 63 -5 9 -11 14 -14 12 -21 -12 -280 281 -334 377 -6 11 -30 54 -54 95 -24 41 -62 115 -85 165 -41 90 -47 103 -103 246 l-29 75 56 -27 c31 -15 94 -45 141 -67z"/>
</g>
</svg>
