<?xml version="1.0" standalone="no"?>
<!DOCTYPE svg PUBLIC "-//W3C//DTD SVG 20010904//EN" "http://www.w3.org/TR/2001/REC-SVG-20010904/DTD/svg10.dtd">
<svg xmlns="http://www.w3.org/2000/svg" version="1.0" width="1024.000000pt" height="1024.000000pt" viewBox="0 0 1024.000000 1024.000000" preserveAspectRatio="xMidYMid meet">
<metadata>
Created by potrace 1.16, written by Peter Selinger 2001-2019
<meta name="Producer" content="Online-Convert"/></metadata>
<g transform="translate(0.000000,1024.000000) scale(0.100000,-0.100000)" fill="#000000" stroke="none">
<path d="M4363 6895 c-128 -36 -148 -52 -417 -340 -447 -480 -1539 -1635 -1889 -2000 -384 -400 -442 -486 -442 -665 0 -73 4 -93 28 -142 32 -65 89 -121 156 -152 l46 -21 1860 -6 c1849 -5 1861 -6 1972 -27 185 -35 404 -113 606 -213 120 -59 286 -152 287 -159 0 -3 -175 -5 -388 -5 -428 0 -422 1 -422 -61 0 -68 -65 -64 1035 -64 631 0 1021 4 1074 10 119 15 252 61 356 122 118 69 253 203 313 309 49 88 92 241 92 331 0 143 -65 325 -164 455 -96 127 -103 132 -1286 1003 -283 209 -369 248 -556 257 -161 8 -316 -25 -429 -92 l-42 -24 -54 57 c-30 31 -122 129 -204 217 -127 136 -749 799 -955 1018 -81 86 -171 151 -247 178 -77 28 -256 35 -330 14z m318 -152 c83 -39 156 -112 1009 -1023 168 -179 307 -327 310 -330 3 -3 109 -115 235 -250 316 -336 299 -320 328 -320 28 0 67 34 67 58 0 27 -24 56 -201 245 -98 105 -179 194 -179 198 0 10 97 46 173 66 74 19 215 21 287 4 126 -30 192 -74 1027 -691 547 -403 621 -470 698 -626 86 -173 84 -347 -6 -513 -93 -173 -240 -290 -454 -362 -70 -23 -73 -24 -622 -27 l-552 -3 -48 34 c-88 64 -287 179 -423 247 -197 99 -359 156 -600 212 l-95 22 -1875 6 -1875 5 -42 22 c-136 73 -135 248 4 420 28 35 210 231 405 435 194 205 430 454 523 553 93 99 291 308 439 465 149 157 410 434 580 615 170 182 357 378 415 436 130 129 156 141 307 136 87 -3 109 -8 165 -34z"/>
</g>
</svg>
