<?xml version="1.0" standalone="no"?>
<!DOCTYPE svg PUBLIC "-//W3C//DTD SVG 20010904//EN"
 "http://www.w3.org/TR/2001/REC-SVG-20010904/DTD/svg10.dtd">
<svg version="1.0" xmlns="http://www.w3.org/2000/svg"
 width="1024.000000pt" height="1024.000000pt" viewBox="0 0 1024.000000 1024.000000"
 preserveAspectRatio="xMidYMid meet">
<metadata>
Created by potrace 1.16, written by Peter Selinger 2001-2019
</metadata>
<g transform="translate(0.000000,1024.000000) scale(0.100000,-0.100000)"
fill="#000000" stroke="none">
<path d="M5015 8190 c-33 -4 -90 -15 -127 -24 -37 -9 -75 -13 -85 -9 -10 3
-15 3 -11 -2 9 -9 -177 -77 -212 -77 -14 0 -19 -3 -12 -5 8 -3 -20 -23 -61
-44 -42 -21 -82 -37 -90 -34 -7 3 -20 -2 -27 -12 -12 -15 -12 -16 0 -5 8 6 19
12 24 12 6 0 -27 -25 -73 -55 -46 -30 -88 -52 -94 -48 -5 3 -7 1 -4 -4 7 -11
-141 -130 -155 -126 -4 2 -7 -1 -5 -6 3 -13 -165 -161 -177 -154 -5 3 -6 2 -3
-4 6 -9 -72 -94 -89 -97 -5 0 -8 -4 -7 -8 1 -3 -27 -37 -62 -74 -36 -38 -65
-71 -65 -74 0 -13 -67 -70 -74 -63 -4 5 -6 3 -4 -4 4 -16 -192 -244 -203 -237
-5 3 -8 1 -7 -5 2 -5 -23 -43 -55 -85 -42 -53 -64 -73 -75 -69 -12 3 -14 2 -4
-4 10 -7 6 -18 -16 -46 -16 -20 -33 -33 -36 -29 -4 4 -6 2 -4 -3 5 -16 -223
-316 -235 -308 -5 3 -7 1 -3 -5 8 -13 -51 -103 -66 -99 -6 1 -13 -5 -15 -13
-4 -13 -3 -13 6 0 6 8 11 12 11 8 0 -4 -42 -71 -94 -150 -51 -79 -117 -185
-146 -236 -30 -53 -57 -89 -63 -85 -5 3 -7 1 -3 -5 9 -14 -14 -63 -27 -55 -6
3 -7 1 -4 -4 4 -6 -20 -66 -52 -134 -32 -68 -66 -146 -76 -173 -16 -40 -20
-46 -27 -30 -6 15 -7 13 -3 -6 5 -31 -68 -263 -80 -252 -5 4 -5 2 -1 -5 3 -6
-7 -78 -23 -160 -42 -207 -55 -358 -48 -547 7 -200 28 -356 71 -525 20 -82 28
-127 20 -120 -10 8 -11 5 -1 -20 6 -17 14 -26 18 -20 3 6 19 -25 34 -68 16
-43 48 -118 71 -167 24 -49 40 -94 37 -100 -3 -6 -2 -8 2 -4 10 10 67 -88 71
-120 1 -13 6 -27 10 -30 4 -4 4 1 1 11 -12 31 1 18 54 -60 29 -43 63 -89 76
-103 13 -14 21 -31 18 -37 -2 -7 -1 -12 3 -11 10 3 257 -245 254 -255 -1 -5 1
-6 6 -3 5 3 31 -13 58 -36 63 -52 249 -174 339 -222 273 -147 651 -256 1055
-305 301 -37 813 -47 1100 -22 374 32 701 103 973 212 55 21 104 36 110 32 7
-3 9 -2 4 2 -4 5 38 32 93 62 442 234 763 617 919 1094 110 337 123 689 40
1114 -11 58 -17 111 -13 117 4 6 3 8 -3 5 -5 -3 -19 36 -33 91 -12 53 -47 175
-76 271 -29 96 -50 181 -46 189 3 9 1 13 -5 9 -5 -3 -15 10 -21 30 -9 29 -9
39 1 45 8 5 7 8 -5 8 -20 0 -61 118 -52 148 4 12 3 13 -3 4 -7 -9 -13 0 -22
30 -23 78 -181 510 -246 676 -36 90 -62 169 -58 175 3 7 2 9 -2 4 -12 -10 -76
130 -68 150 4 9 2 14 -3 10 -12 -7 -85 136 -80 155 1 7 1 9 -2 4 -8 -16 -82
128 -76 149 3 13 2 16 -3 8 -6 -9 -27 16 -65 80 -128 208 -276 396 -417 529
-47 44 -85 85 -83 90 1 5 -2 7 -7 4 -13 -8 -61 32 -62 52 0 10 -3 12 -5 5 -4
-8 -31 6 -76 38 -38 28 -81 55 -94 61 -13 6 -21 14 -19 18 3 4 -1 7 -8 7 -6
-1 -57 21 -112 47 -55 26 -137 60 -183 75 -45 15 -79 31 -75 35 4 4 1 5 -7 1
-8 -3 -56 4 -105 15 -70 17 -134 22 -285 25 -107 2 -222 0 -255 -5z m443 -201
c45 -6 82 -15 82 -21 0 -5 4 -6 10 -3 22 13 247 -64 227 -78 -8 -6 -6 -7 6 -3
23 7 151 -57 259 -130 98 -67 168 -123 165 -132 -1 -4 2 -8 6 -9 18 -3 66 -56
60 -66 -3 -6 -1 -7 5 -3 15 9 66 -40 56 -56 -4 -7 -3 -10 1 -5 11 10 46 -23
38 -36 -3 -5 -1 -7 5 -4 13 9 64 -51 56 -65 -4 -6 -2 -8 4 -5 13 9 74 -72 65
-86 -3 -6 -2 -7 4 -4 14 9 87 -99 77 -114 -4 -7 -3 -9 4 -5 13 8 35 -28 24
-39 -4 -5 -2 -5 5 -1 7 4 14 -3 19 -16 4 -13 10 -25 14 -28 18 -13 61 -101 54
-111 -4 -8 -3 -9 4 -5 14 8 186 -339 177 -354 -4 -6 -2 -10 3 -10 5 0 15 -15
23 -32 7 -18 23 -57 36 -86 13 -29 21 -58 17 -64 -5 -7 -3 -8 6 -3 10 6 12 3
8 -13 -4 -14 -2 -20 4 -16 6 4 8 -2 3 -16 -5 -15 -4 -20 4 -16 15 10 14 -7 -1
-23 -11 -10 -10 -11 3 -6 13 5 23 -11 49 -77 18 -46 33 -98 33 -115 1 -22 4
-29 10 -20 6 8 7 4 4 -11 -3 -12 -1 -20 3 -17 4 3 15 -14 23 -37 42 -116 136
-392 134 -393 -1 0 -42 -9 -90 -18 -111 -22 -230 -59 -330 -103 -43 -19 -83
-31 -89 -28 -7 5 -8 2 -3 -6 6 -10 4 -12 -9 -7 -9 4 -15 3 -12 -1 3 -5 -25
-26 -62 -47 -37 -21 -110 -70 -162 -108 -52 -39 -100 -70 -107 -70 -6 0 -11
-3 -10 -6 3 -9 -236 -244 -246 -242 -4 0 -6 -2 -5 -7 2 -4 -29 -45 -67 -92
-39 -47 -110 -135 -159 -197 -49 -62 -93 -110 -99 -106 -6 3 -7 1 -4 -5 7 -11
-88 -132 -104 -132 -5 0 -9 -6 -9 -13 0 -18 -65 -79 -74 -70 -4 5 -6 3 -4 -4
4 -17 -72 -94 -86 -86 -6 3 -8 2 -3 -2 10 -11 -53 -76 -66 -68 -6 3 -7 1 -4
-4 9 -14 -71 -86 -85 -77 -6 4 -8 3 -4 -4 18 -29 -413 -329 -452 -315 -9 4
-13 2 -9 -4 10 -15 -120 -77 -157 -76 -23 2 -26 0 -12 -6 14 -5 -2 -16 -73
-49 -98 -45 -106 -47 -96 -32 3 6 1 10 -5 10 -7 0 -10 -7 -6 -15 4 -11 -10
-23 -47 -41 -28 -15 -69 -37 -89 -50 -42 -27 -53 -30 -42 -12 4 7 3 8 -5 4 -6
-4 -9 -11 -6 -16 7 -11 -43 -42 -56 -35 -5 4 -8 2 -7 -3 4 -15 -112 -103 -125
-95 -5 3 -7 1 -4 -4 4 -6 -12 -28 -36 -49 -23 -21 -75 -74 -115 -118 -40 -45
-77 -80 -83 -78 -6 1 -8 -2 -5 -7 3 -5 -16 -42 -43 -82 -57 -87 -119 -209
-151 -296 -12 -35 -26 -63 -31 -63 -9 0 -39 13 -149 62 -148 67 -359 211 -489
333 -39 37 -68 72 -64 78 3 5 1 7 -4 4 -25 -16 -294 347 -278 374 5 7 4 10 -3
5 -16 -10 -83 130 -77 163 4 20 3 22 -3 7 -21 -48 -127 287 -162 510 -29 183
-32 495 -6 659 45 286 123 522 265 802 91 179 207 369 222 365 6 -1 8 2 4 8
-25 40 760 1057 798 1033 6 -3 7 -1 4 4 -13 20 355 391 509 515 377 303 732
406 1192 347z m1879 -2600 c32 -91 104 -333 107 -361 2 -13 8 -34 13 -48 19
-46 55 -252 47 -259 -5 -4 -49 -18 -99 -31 -104 -26 -234 -74 -323 -119 -35
-18 -68 -29 -75 -25 -7 4 -9 4 -5 -1 10 -10 -100 -77 -113 -69 -5 3 -8 0 -7
-8 2 -7 -5 -12 -14 -12 -10 1 -15 -2 -13 -7 3 -4 -3 -13 -14 -18 -11 -6 -25
-17 -33 -23 -39 -38 -152 -123 -159 -121 -5 2 -8 0 -7 -5 2 -10 -224 -238
-234 -235 -4 2 -7 -1 -5 -6 4 -16 -224 -282 -235 -274 -6 3 -8 1 -5 -4 8 -13
-158 -174 -175 -169 -7 1 -9 1 -5 -2 9 -5 -11 -32 -25 -32 -5 0 -6 6 -2 13 5
8 3 8 -9 -2 -9 -7 -15 -17 -12 -21 10 -16 -210 -154 -228 -144 -7 4 -9 3 -4
-1 11 -13 -69 -54 -95 -48 -17 3 -19 2 -9 -5 17 -13 -131 -84 -155 -75 -11 4
-15 3 -10 -5 8 -14 -30 -36 -50 -28 -8 3 -12 1 -9 -4 7 -11 -72 -53 -85 -45
-5 3 -12 0 -16 -6 -5 -8 -3 -9 7 -4 32 19 -1 -6 -65 -49 -37 -25 -73 -43 -79
-39 -5 3 -7 2 -4 -4 8 -13 -80 -86 -95 -77 -7 4 -8 3 -4 -5 8 -12 -41 -58 -57
-53 -5 1 -6 -1 -3 -6 3 -5 -22 -41 -55 -81 -71 -87 -128 -182 -173 -284 l-32
-75 -40 4 c-21 2 -68 6 -104 9 -151 12 -190 18 -185 25 2 4 -6 5 -18 3 -39 -8
-454 81 -474 101 -11 11 67 193 120 281 63 103 138 196 154 190 7 -2 10 2 7 9
-3 7 27 41 68 78 87 77 122 101 133 91 4 -5 5 -2 1 4 -11 20 153 121 372 229
106 52 198 92 204 88 7 -4 8 -3 4 4 -4 7 -3 12 2 12 18 0 260 150 347 215 50
38 95 68 102 68 7 0 10 3 8 7 -2 4 26 32 63 63 37 31 93 83 126 116 38 38 64
58 75 54 11 -3 12 -2 4 4 -10 7 -4 18 23 44 44 42 195 215 264 304 29 36 57
62 62 58 6 -3 8 -1 5 5 -9 13 152 213 291 361 125 134 264 248 398 327 117 69
272 137 296 131 10 -3 16 -1 13 3 -11 17 156 53 210 46 29 -4 35 -3 20 3 -16
8 -13 9 15 7 33 -3 36 -6 57 -67z m194 -877 c-11 -4 -11 -6 0 -13 34 -20 20
-362 -22 -556 -33 -154 -121 -389 -140 -377 -5 3 -6 -1 -3 -9 7 -19 -65 -149
-78 -140 -7 3 -8 1 -4 -6 15 -24 -106 -184 -246 -325 -76 -76 -141 -136 -144
-134 -2 3 -17 -6 -33 -21 -48 -45 -219 -141 -238 -135 -13 4 -14 3 -5 -3 28
-20 -407 -183 -497 -187 -22 0 -37 -4 -34 -8 2 -5 2 -8 -1 -8 -3 0 -69 -11
-146 -25 -175 -30 -381 -52 -570 -60 -80 -3 -176 -8 -215 -10 -38 -3 -107 -1
-153 3 l-83 7 44 87 c49 98 94 161 108 153 5 -3 6 0 4 7 -7 17 140 162 155
153 6 -4 9 -1 8 6 -5 23 102 87 340 204 128 63 257 131 288 150 30 20 60 32
66 29 6 -4 8 -3 5 3 -8 13 100 86 114 78 5 -4 8 -1 7 7 -2 7 3 12 10 10 6 -1
11 2 10 6 -2 4 15 23 37 42 81 68 199 188 273 275 42 50 80 89 85 87 4 -1 6 2
3 6 -8 13 178 218 193 214 7 -1 10 2 7 7 -9 13 149 154 260 233 126 89 238
150 260 141 11 -4 15 -2 11 4 -9 14 48 37 64 27 8 -4 10 -3 5 4 -6 10 103 49
224 80 34 9 59 4 31 -6z"/>
</g>
</svg>
