<?xml version="1.0" standalone="no"?>
<!DOCTYPE svg PUBLIC "-//W3C//DTD SVG 20010904//EN" "http://www.w3.org/TR/2001/REC-SVG-20010904/DTD/svg10.dtd">
<svg xmlns="http://www.w3.org/2000/svg" version="1.0" width="1024.000000pt" height="1024.000000pt" viewBox="0 0 1024.000000 1024.000000" preserveAspectRatio="xMidYMid meet">
<metadata>
Created by potrace 1.16, written by Peter Selinger 2001-2019
<meta name="Producer" content="Online-Convert"/></metadata>
<g transform="translate(0.000000,1024.000000) scale(0.100000,-0.100000)" fill="#000000" stroke="none">
<path d="M3565 7931 c-83 -21 -185 -66 -252 -112 -121 -83 -250 -235 -313 -369 -19 -41 -39 -78 -45 -82 -5 -4 -7 -8 -4 -8 4 0 -2 -32 -12 -71 -27 -102 -42 -228 -38 -318 l4 -78 -35 -22 c-43 -26 -164 -121 -154 -121 4 0 -13 -21 -38 -47 -24 -27 -62 -75 -85 -108 -46 -69 -123 -218 -123 -239 0 -8 -6 -21 -12 -28 -7 -7 -14 -20 -14 -28 -1 -8 -12 -58 -25 -110 -19 -79 -23 -126 -24 -277 -1 -101 2 -183 7 -183 4 0 8 -15 8 -32 0 -18 7 -57 15 -87 14 -55 11 -85 -7 -60 -8 11 -9 11 -5 -1 2 -8 11 -14 21 -12 10 2 16 -4 16 -15 1 -52 137 -305 207 -383 15 -18 28 -35 28 -39 0 -3 29 -33 65 -65 36 -32 72 -67 82 -77 9 -11 19 -19 23 -19 3 0 34 -20 68 -44 69 -49 234 -134 315 -162 28 -10 52 -22 52 -27 0 -4 4 -6 8 -3 8 5 67 -7 102 -21 8 -3 24 -6 35 -7 55 -4 145 -19 145 -25 0 -3 17 -6 37 -6 l38 0 3 -1022 2 -1022 -799 0 c-591 -1 -806 -4 -827 -12 -16 -7 -32 -12 -36 -11 -5 1 -7 -1 -6 -6 1 -4 -4 -19 -12 -34 -30 -62 12 -112 102 -122 33 -3 1408 -6 3054 -6 l2994 0 32 29 c54 48 38 126 -31 152 -13 5 -55 10 -92 11 -59 1 -69 3 -64 17 4 14 6 572 2 664 -1 20 -5 37 -9 37 -5 0 -8 6 -8 13 0 7 -8 29 -19 49 -13 27 -15 40 -7 48 8 8 7 10 -6 5 -11 -4 -20 0 -27 14 -6 11 -32 32 -56 47 -25 14 -45 29 -45 33 0 4 -8 8 -17 9 -56 6 -133 19 -136 22 -2 3 -9 51 -15 106 -19 167 -80 329 -181 478 -47 70 -181 224 -196 225 -6 1 -29 18 -53 40 -23 21 -42 37 -42 35 0 -2 -27 14 -59 36 -78 54 -228 123 -327 151 -43 13 -81 25 -84 28 -3 4 -12 6 -20 6 -29 1 -155 16 -170 21 -25 9 -260 4 -330 -6 -36 -5 -91 -17 -123 -25 -31 -9 -62 -13 -67 -10 -6 3 -10 2 -10 -3 0 -4 -25 -16 -56 -26 -84 -27 -239 -109 -320 -169 -39 -29 -77 -51 -85 -49 -8 3 -11 1 -7 -3 4 -4 -25 -42 -64 -84 -130 -139 -212 -273 -259 -421 -13 -41 -26 -77 -29 -80 -3 -3 -6 -23 -8 -45 -1 -22 -5 -47 -9 -55 -3 -8 -5 -24 -4 -34 2 -11 0 -44 -4 -74 l-7 -54 -59 4 c-32 2 -59 1 -59 -4 0 -4 -5 -8 -10 -8 -26 0 -122 -73 -147 -112 -15 -24 -30 -45 -33 -48 -12 -12 -14 -63 -17 -412 l-4 -368 -479 1 -480 1 0 1024 0 1024 53 2 c74 2 90 4 110 13 9 4 26 5 37 2 11 -3 22 -1 25 3 3 4 28 14 56 20 28 7 74 21 102 31 27 10 54 16 58 13 5 -3 9 -1 9 3 0 9 131 69 143 65 4 -1 7 2 7 7 0 7 98 73 124 83 42 16 236 215 308 315 183 254 265 601 212 898 -9 50 -17 99 -18 111 -1 11 -6 25 -10 32 -4 7 -4 17 -1 22 3 6 2 10 -3 10 -5 0 -15 19 -21 43 -16 53 -55 135 -100 212 -20 33 -34 63 -33 68 1 4 -2 7 -7 7 -5 0 -23 19 -40 42 -23 32 -28 44 -18 51 9 6 8 7 -3 4 -9 -2 -45 24 -85 61 -38 36 -91 78 -116 94 l-47 28 -3 123 c-3 148 -5 187 -12 207 -17 46 -35 125 -31 132 3 4 1 8 -4 8 -11 0 -35 60 -24 60 4 0 2 4 -4 8 -13 8 -47 72 -39 72 2 0 -2 8 -9 18 -8 9 -41 53 -74 97 -121 165 -295 280 -485 320 -91 20 -235 18 -322 -4z m275 -170 c0 -3 15 -7 33 -8 62 -4 194 -80 276 -158 76 -73 170 -210 174 -254 1 -11 4 -21 8 -21 4 0 11 -15 15 -32 10 -43 9 -37 24 -88 18 -62 23 -108 26 -228 2 -62 -1 -100 -7 -97 -15 10 -10 -19 11 -63 15 -32 35 -50 77 -74 71 -40 169 -131 233 -217 49 -65 49 -66 29 -82 -20 -15 -20 -15 8 -27 24 -11 26 -10 11 1 -17 13 -15 27 4 27 11 0 79 -141 81 -169 1 -11 5 -21 10 -21 5 0 7 -6 4 -14 -3 -8 -1 -16 4 -18 27 -9 66 -397 43 -421 -3 -3 -8 -28 -10 -54 -8 -102 -84 -295 -161 -409 -54 -78 -114 -150 -124 -146 -5 1 -8 -4 -7 -10 2 -7 -3 -12 -10 -10 -6 1 -11 -2 -10 -7 3 -11 -82 -87 -147 -131 -65 -45 -195 -111 -206 -105 -5 4 -9 2 -9 -3 0 -14 -186 -73 -237 -75 -23 -1 -43 -6 -43 -10 0 -4 -17 -7 -37 -6 -21 1 -46 -2 -55 -6 -16 -6 -18 0 -18 70 0 47 4 74 10 70 6 -4 7 6 4 24 -4 18 -2 37 5 44 6 8 8 17 4 20 -8 9 37 177 48 177 5 0 6 7 3 15 -4 8 -1 15 6 15 6 0 9 4 5 10 -8 13 57 147 121 250 74 120 163 226 308 369 122 121 126 126 126 167 0 81 -81 110 -156 56 -37 -28 -284 -278 -284 -288 0 -3 -19 -31 -43 -62 -24 -31 -63 -89 -88 -128 -24 -40 -49 -80 -56 -90 -9 -15 -12 127 -12 643 l-1 662 -26 20 c-15 12 -39 21 -53 21 -15 0 -33 6 -40 13 -10 8 -12 8 -7 0 3 -6 -5 -23 -19 -37 -14 -14 -25 -33 -25 -43 0 -174 -9 -1446 -11 -1466 l-2 -28 -18 27 c-10 15 -16 31 -13 35 2 4 1 9 -4 11 -4 1 -33 42 -65 90 -76 115 -184 243 -299 356 -88 85 -98 92 -136 92 -51 0 -81 -24 -89 -73 -6 -37 -4 -39 101 -145 58 -60 106 -110 106 -113 0 -3 22 -29 50 -58 27 -29 47 -57 44 -62 -3 -5 -1 -9 4 -9 11 0 60 -66 109 -146 24 -40 29 -54 20 -63 -9 -9 -8 -11 4 -6 18 7 35 -20 19 -30 -6 -4 -10 -12 -10 -18 0 -7 4 -6 10 3 11 18 11 17 44 -48 15 -29 24 -57 21 -62 -4 -6 -2 -10 2 -10 12 0 66 -157 59 -169 -3 -5 -2 -11 4 -13 6 -2 12 -22 14 -46 5 -50 7 -49 -115 -26 -120 22 -181 41 -289 88 -174 77 -330 199 -434 340 -61 83 -110 166 -99 166 4 0 3 4 -3 8 -15 10 -55 102 -49 112 3 5 1 11 -5 15 -6 4 -8 11 -5 16 4 5 2 9 -3 9 -17 0 -44 156 -49 285 -4 106 -1 148 16 231 34 165 116 345 196 430 19 20 35 40 35 44 0 3 14 19 32 36 17 16 28 22 24 14 -5 -8 4 -1 18 16 14 18 59 53 100 78 41 26 78 56 82 68 3 11 3 57 -1 102 -3 46 -1 122 5 176 13 101 64 280 81 280 6 0 7 5 4 10 -3 6 -2 10 3 10 5 0 9 6 9 14 0 18 42 86 54 86 6 0 7 5 4 10 -3 6 32 49 80 96 72 72 88 84 101 74 12 -11 13 -10 8 3 -4 12 7 22 43 40 65 33 150 60 163 52 5 -3 10 -2 10 3 0 5 45 9 100 9 55 1 100 -2 100 -6z m2718 -3262 c45 -6 82 -14 82 -18 0 -4 14 -8 31 -9 41 -3 189 -61 189 -73 0 -6 5 -7 10 -4 6 3 10 1 10 -4 0 -6 3 -10 8 -10 21 4 32 -3 32 -18 0 -15 2 -16 10 -3 7 11 10 11 10 2 0 -7 4 -11 9 -8 10 6 124 -65 136 -85 6 -9 3 -11 -9 -6 -11 4 -15 3 -11 -4 4 -6 14 -8 22 -5 14 6 124 -80 120 -93 -1 -3 20 -28 46 -54 26 -27 45 -53 41 -58 -3 -5 -1 -9 5 -9 24 0 140 -248 126 -271 -4 -5 -1 -9 5 -9 7 0 10 -6 7 -14 -3 -7 -1 -18 4 -23 12 -12 30 -156 20 -166 -4 -4 -490 -6 -1081 -5 l-1074 3 3 64 c4 99 60 301 84 301 6 0 8 3 4 6 -15 15 65 140 152 239 123 140 380 294 511 307 14 2 28 7 31 11 3 5 29 9 57 10 29 1 52 5 52 10 0 4 29 7 65 6 36 -1 69 1 73 5 7 8 85 2 220 -15z m1165 -1141 c67 -36 68 -42 73 -419 l3 -339 -1414 0 -1415 1 0 344 c0 236 3 345 11 345 5 0 8 4 5 9 -7 11 33 63 44 56 5 -3 11 -1 14 4 10 15 2651 14 2679 -1z"/>
</g>
</svg>
