<?xml version="1.0" standalone="no"?>
<!DOCTYPE svg PUBLIC "-//W3C//DTD SVG 20010904//EN" "http://www.w3.org/TR/2001/REC-SVG-20010904/DTD/svg10.dtd">
<svg xmlns="http://www.w3.org/2000/svg" version="1.0" width="1024.000000pt" height="1024.000000pt" viewBox="0 0 1024.000000 1024.000000" preserveAspectRatio="xMidYMid meet">
<metadata>
Created by potrace 1.16, written by Peter Selinger 2001-2019
<meta name="Producer" content="Online-Convert"/></metadata>
<g transform="translate(0.000000,1024.000000) scale(0.100000,-0.100000)" fill="#000000" stroke="none">
<path d="M5040 8549 c0 -5 -21 -9 -47 -9 -67 0 -221 -26 -331 -56 -51 -13 -98 -22 -105 -18 -7 4 -9 3 -4 -1 4 -5 -19 -19 -50 -31 -32 -11 -80 -31 -106 -43 -26 -12 -53 -19 -59 -15 -6 4 -8 3 -4 -4 3 -6 -2 -13 -13 -17 -11 -3 -68 -35 -127 -70 -59 -36 -111 -62 -117 -58 -6 3 -7 1 -4 -5 8 -12 -72 -74 -85 -66 -5 3 -7 0 -6 -8 2 -8 -5 -12 -19 -11 -13 2 -23 -2 -23 -8 0 -5 6 -7 13 -4 6 4 -4 -7 -23 -25 -73 -67 -123 -105 -134 -102 -6 2 -8 0 -4 -4 4 -4 -34 -52 -85 -108 -103 -113 -174 -197 -200 -239 -10 -15 -22 -25 -26 -22 -5 2 -8 -3 -7 -12 0 -10 -4 -18 -11 -18 -6 0 -15 -4 -20 -9 -5 -5 -3 -6 5 -2 22 13 13 -9 -17 -42 -17 -17 -27 -32 -23 -32 4 0 -4 -10 -18 -21 -14 -11 -20 -18 -13 -15 6 4 0 -14 -13 -39 -14 -25 -29 -43 -33 -41 -4 3 -13 0 -21 -6 -12 -8 -11 -9 3 -4 10 3 17 3 15 -1 -24 -55 -61 -113 -68 -108 -5 3 -12 0 -16 -6 -5 -8 -3 -9 6 -4 10 6 12 4 7 -9 -4 -10 -7 -20 -7 -22 0 -3 -5 -2 -12 2 -6 4 -8 3 -5 -3 4 -6 -20 -67 -53 -136 -33 -69 -60 -130 -60 -137 0 -6 -4 -9 -9 -5 -5 3 -13 0 -17 -6 -5 -8 -3 -9 6 -4 10 6 12 4 6 -10 -71 -186 -115 -315 -154 -449 -25 -91 -50 -162 -54 -160 -3 2 -10 -1 -14 -7 -4 -8 -3 -9 4 -5 8 5 12 -1 12 -14 0 -12 -4 -18 -10 -15 -7 4 -9 -2 -5 -18 4 -14 0 -51 -8 -84 -8 -32 -18 -79 -22 -105 -4 -26 -10 -46 -14 -44 -4 3 -5 -11 -3 -30 3 -28 1 -34 -14 -34 -14 0 -15 -3 -6 -8 10 -7 10 -31 -3 -128 -21 -165 -35 -328 -35 -401 0 -70 -7 -96 -24 -86 -7 5 -7 2 1 -8 13 -16 13 -24 14 -174 0 -49 2 -91 4 -94 3 -2 0 -10 -6 -17 -7 -8 -7 -14 1 -19 5 -3 10 -42 10 -88 0 -154 49 -521 95 -722 9 -37 13 -76 9 -87 -3 -12 -2 -18 3 -15 13 8 36 -93 27 -119 -4 -12 -3 -15 3 -7 11 16 68 -170 58 -188 -5 -7 -4 -10 2 -6 5 3 15 -11 22 -31 6 -20 24 -68 38 -105 23 -58 25 -70 12 -79 -11 -8 -11 -9 4 -4 15 5 20 -3 16 -30 0 -4 4 -10 9 -13 13 -8 54 -111 44 -111 -4 0 -2 -4 4 -8 11 -6 124 -224 124 -237 0 -4 -5 -3 -12 1 -7 4 -8 3 -4 -5 4 -6 11 -9 16 -6 12 7 49 -66 42 -84 -2 -8 0 -11 6 -7 13 8 75 -91 66 -106 -4 -6 -3 -8 3 -5 5 3 28 -20 51 -53 43 -61 51 -76 30 -64 -7 4 -8 3 -4 -5 4 -6 11 -9 16 -6 4 3 14 -3 21 -12 12 -14 12 -16 0 -9 -9 6 -12 5 -9 -5 3 -8 10 -13 16 -12 5 1 22 -13 36 -32 29 -37 34 -54 11 -35 -10 9 -15 9 -15 1 0 -10 13 -15 32 -12 9 1 63 -72 60 -82 -1 -5 2 -6 6 -3 10 6 98 -94 94 -107 -1 -5 1 -6 6 -3 5 3 29 -15 53 -40 24 -25 72 -68 106 -96 42 -35 60 -55 56 -67 -4 -12 -3 -13 5 -3 7 10 26 1 82 -40 41 -29 84 -62 96 -73 12 -11 28 -21 35 -23 21 -5 174 -94 177 -104 2 -4 7 -6 11 -3 5 2 28 -5 52 -17 24 -12 92 -38 152 -58 59 -20 105 -38 103 -41 -2 -2 8 -4 22 -5 15 0 74 -11 132 -24 92 -21 133 -24 320 -24 168 -1 234 3 303 17 49 10 98 15 110 12 15 -4 18 -3 9 3 -9 6 14 16 70 31 46 13 103 31 127 42 51 22 54 23 46 7 -4 -7 0 -6 7 3 20 25 165 92 179 83 7 -4 9 -3 6 3 -3 5 37 36 89 68 111 67 220 148 324 239 40 36 78 62 84 59 6 -3 8 -3 4 2 -11 11 12 36 25 28 6 -3 7 -1 3 5 -4 6 20 40 56 77 34 36 98 112 141 168 44 56 85 101 91 99 6 -2 8 0 4 3 -4 4 9 33 29 64 120 186 207 345 283 514 30 66 46 93 53 85 5 -9 6 -6 2 8 -3 12 9 58 29 110 19 49 42 115 52 146 9 32 22 54 27 51 6 -3 7 -1 4 4 -4 6 13 85 38 175 53 193 106 480 131 703 25 221 25 742 0 965 -51 455 -163 895 -320 1263 -9 20 -14 37 -11 37 3 0 1 6 -4 13 -17 20 -156 301 -153 310 1 4 -2 7 -6 7 -5 0 -38 48 -75 108 -36 59 -88 138 -116 176 -27 38 -47 74 -44 79 3 6 1 7 -4 4 -6 -4 -19 5 -29 20 -9 15 -26 37 -37 48 -35 37 -56 72 -49 80 4 5 2 5 -4 2 -13 -7 -121 112 -116 128 2 5 0 7 -4 3 -10 -11 -35 12 -27 26 3 6 3 8 -2 4 -4 -4 -22 5 -40 20 -17 15 -59 50 -93 79 -33 28 -59 54 -56 57 2 3 1 4 -2 1 -9 -6 -49 23 -49 37 0 6 -7 13 -15 15 -13 4 -13 3 0 -7 34 -26 -10 -2 -78 43 -40 27 -109 68 -153 91 -43 23 -76 46 -72 51 5 4 3 5 -3 2 -6 -4 -47 9 -91 27 -155 66 -422 126 -557 126 -25 0 -46 3 -46 8 0 4 -34 7 -75 8 -41 1 -75 -3 -75 -7z m359 -178 c127 -26 331 -89 331 -103 0 -5 -10 -4 -21 3 -15 8 -19 8 -15 0 4 -6 16 -16 27 -21 15 -8 19 -8 17 2 -4 17 15 13 74 -14 26 -11 44 -26 41 -31 -4 -6 0 -8 9 -5 17 7 72 -25 62 -35 -3 -3 2 -5 12 -5 24 2 76 -31 68 -43 -3 -5 2 -6 11 -3 11 5 14 2 9 -12 -4 -14 -3 -16 4 -5 8 11 14 10 36 -4 14 -9 24 -21 21 -25 -3 -5 0 -12 6 -16 8 -4 9 -3 5 4 -10 17 9 15 23 -1 6 -8 7 -18 3 -23 -4 -5 -3 -6 2 -1 13 10 47 -14 133 -91 42 -37 70 -69 66 -76 -3 -6 -2 -8 2 -3 11 9 46 -23 39 -35 -3 -4 -2 -8 3 -7 20 3 25 -2 13 -16 -7 -8 -17 -12 -23 -8 -5 3 -7 2 -4 -4 8 -12 -38 -54 -49 -45 -4 4 -5 0 -1 -9 6 -18 -30 -59 -53 -59 -7 0 -10 -3 -6 -7 8 -8 -104 -124 -115 -118 -4 3 -6 -3 -5 -13 0 -9 -5 -16 -11 -15 -7 2 -13 -3 -13 -10 0 -18 -165 -179 -174 -170 -4 4 -6 3 -4 -3 4 -15 -142 -175 -153 -168 -5 3 -8 1 -7 -4 2 -6 -26 -40 -60 -76 l-64 -65 -516 0 -517 1 -32 30 c-19 19 -29 37 -26 47 4 12 2 13 -4 3 -7 -9 -23 2 -63 45 -30 32 -134 140 -232 241 -105 107 -176 187 -172 194 4 6 3 8 -3 5 -11 -7 -66 46 -58 56 3 4 2 5 -2 2 -11 -8 -43 27 -36 39 3 6 2 8 -2 3 -5 -4 -32 16 -61 44 -45 44 -51 54 -44 78 4 14 13 25 19 23 7 -1 10 2 7 7 -8 13 113 123 126 115 6 -4 8 -2 4 4 -8 13 33 44 47 35 6 -3 7 -1 3 5 -8 14 110 98 131 94 8 -2 12 1 9 7 -8 13 111 84 125 75 8 -5 9 -3 4 6 -6 10 -4 12 9 7 9 -4 15 -3 12 2 -12 19 292 139 366 144 16 1 28 5 28 8 0 7 106 24 215 35 33 4 61 7 62 8 7 5 320 -14 362 -23z m-1636 -705 c-3 -6 -3 -8 2 -4 11 11 36 -12 28 -25 -3 -5 -1 -7 5 -3 12 7 84 -73 76 -86 -3 -5 0 -7 8 -6 7 2 12 -3 10 -10 -1 -8 1 -11 6 -8 11 6 85 -67 77 -77 -3 -4 -2 -5 2 -2 10 8 33 -16 26 -29 -3 -6 -2 -8 2 -3 10 9 86 -63 79 -75 -3 -4 1 -8 8 -8 8 0 31 -18 51 -40 37 -41 47 -57 26 -44 -6 3 -3 -5 6 -20 20 -31 30 -35 15 -6 -19 35 6 21 46 -26 21 -25 37 -51 36 -57 -2 -7 0 -9 4 -4 11 10 85 -64 77 -77 -3 -6 -2 -8 2 -3 5 4 35 -18 66 -49 l57 -57 -81 -157 c-45 -87 -86 -156 -91 -152 -5 3 -6 0 -2 -6 6 -10 -69 -172 -80 -172 -3 0 -2 5 2 12 4 7 3 8 -5 4 -6 -4 -9 -11 -6 -16 8 -13 -77 -180 -88 -173 -6 3 -7 1 -3 -5 8 -14 -264 -553 -276 -546 -4 3 -6 -1 -3 -8 2 -7 -42 -103 -98 -213 l-102 -200 -88 -1 c-49 -1 -91 -5 -94 -8 -4 -3 -15 2 -26 11 -11 10 -17 12 -13 6 11 -19 -5 -15 -20 5 -13 15 -13 15 -8 0 5 -14 -1 -17 -33 -16 -21 1 -48 -2 -60 -6 -15 -5 -23 -3 -23 4 0 6 4 9 9 5 5 -3 12 -1 15 4 7 11 -13 9 -31 -2 -7 -4 -61 -8 -122 -9 -82 -2 -114 2 -128 13 -16 13 -17 13 -4 -3 12 -16 10 -18 -23 -18 -20 0 -36 5 -36 11 0 5 5 7 12 3 7 -4 8 -3 4 4 -5 9 -13 9 -26 2 -24 -13 -37 5 -20 25 9 11 9 15 1 15 -8 0 -10 12 -7 33 3 17 8 75 11 127 12 211 75 631 95 638 6 2 8 7 5 12 -5 8 22 135 52 243 11 41 19 54 25 45 6 -9 7 -5 3 11 -8 27 53 223 67 215 4 -3 5 1 2 9 -18 47 292 686 321 660 4 -4 5 -2 1 5 -8 13 88 158 181 275 44 55 57 66 69 56 7 -6 11 -16 7 -23z m2821 -79 c37 -49 66 -91 63 -94 -9 -8 12 -45 22 -38 10 5 64 -73 64 -92 0 -7 3 -10 7 -8 3 2 29 -37 58 -88 37 -66 48 -93 39 -99 -8 -5 -7 -8 5 -8 17 0 57 -60 41 -60 -5 0 -3 -4 3 -8 11 -7 44 -65 44 -77 0 -3 -4 -3 -10 0 -5 3 -10 2 -10 -3 0 -5 8 -12 19 -15 26 -6 54 -92 40 -121 -9 -19 -9 -19 4 -4 13 16 15 16 26 -8 6 -15 7 -23 1 -19 -5 3 -10 1 -10 -4 0 -6 6 -11 13 -11 16 0 62 -124 51 -141 -4 -7 -3 -9 3 -6 13 8 98 -257 88 -274 -5 -7 -4 -10 3 -5 13 8 27 -48 16 -65 -4 -7 -3 -9 3 -6 12 7 75 -255 77 -318 0 -24 4 -41 9 -38 4 2 7 -4 7 -14 1 -10 9 -78 19 -150 10 -73 14 -133 9 -133 -4 0 -8 -8 -8 -17 0 -15 2 -16 10 -3 7 11 10 5 10 -23 0 -23 -4 -36 -10 -32 -5 3 -10 1 -10 -4 0 -6 7 -11 15 -11 12 0 15 -14 17 -62 1 -35 2 -90 4 -123 1 -36 -3 -63 -10 -67 -6 -4 -170 -8 -363 -8 l-353 0 -25 50 c-28 55 -30 64 -13 54 7 -4 8 -3 4 5 -4 6 -11 9 -16 6 -12 -7 -153 273 -144 287 5 7 3 8 -6 3 -10 -6 -12 -4 -7 9 5 11 3 15 -5 10 -8 -5 -9 -2 -5 10 4 9 3 15 -2 12 -12 -8 -73 122 -65 136 4 7 2 8 -4 4 -7 -4 -52 75 -123 216 -61 123 -143 283 -181 355 -38 73 -66 137 -63 143 4 6 1 9 -7 8 -8 -2 -13 6 -12 19 0 12 -2 20 -6 18 -11 -7 -42 54 -34 67 4 6 3 8 -3 5 -12 -8 -56 81 -47 96 4 7 3 9 -1 4 -5 -4 -21 16 -36 43 l-28 51 66 69 c36 38 71 67 77 63 6 -3 8 -2 3 2 -10 11 73 96 86 88 6 -4 7 -1 2 7 -5 7 2 20 17 34 14 11 128 128 254 260 181 189 230 235 238 224 6 -8 42 -53 80 -101z m-919 -779 c25 -50 33 -73 24 -78 -7 -5 -8 -10 -1 -14 6 -3 12 -1 14 5 5 15 99 -166 95 -183 -2 -7 -2 -9 1 -4 2 4 8 2 13 -5 4 -7 3 -22 -3 -33 -10 -18 -9 -19 4 -9 12 11 20 1 49 -59 19 -39 33 -75 31 -80 -1 -5 2 -7 7 -3 11 6 27 -40 22 -64 -1 -7 2 -10 7 -7 13 8 165 -291 156 -306 -4 -6 -3 -8 3 -5 12 8 86 -141 77 -155 -4 -7 -2 -8 4 -4 12 7 16 -5 13 -33 -2 -7 2 -10 8 -6 11 6 15 -7 11 -35 -1 -8 2 -12 6 -8 9 10 46 -50 39 -63 -4 -5 -1 -9 5 -9 7 0 10 -7 7 -15 -4 -8 -1 -17 5 -21 7 -5 8 -2 3 7 -6 11 -5 11 5 2 7 -6 13 -23 13 -37 0 -15 4 -23 10 -19 7 4 8 0 3 -13 -4 -10 -4 -15 0 -11 10 10 46 -53 40 -70 -3 -8 -2 -11 4 -8 5 3 14 -3 19 -14 14 -25 14 -34 1 -26 -5 3 -10 1 -10 -4 0 -6 7 -11 15 -11 8 0 30 -32 50 -71 36 -73 44 -105 23 -94 -7 4 -5 0 5 -8 17 -14 12 -27 -94 -234 -329 -641 -523 -1009 -535 -1019 -7 -6 -11 -14 -8 -17 8 -7 -15 -49 -24 -43 -4 2 -8 -6 -9 -17 -1 -12 -28 -71 -61 -132 -32 -60 -62 -120 -66 -132 -8 -24 -26 -31 -26 -10 0 9 -2 9 -9 -1 -8 -13 -89 -18 -246 -14 -38 1 -126 1 -195 2 -83 0 -126 4 -129 11 -2 8 -6 7 -11 -1 -6 -10 -55 -13 -196 -12 -104 0 -198 1 -209 1 -15 1 -30 19 -53 67 -18 36 -28 63 -22 59 5 -3 10 -1 10 4 0 6 -6 11 -13 11 -17 0 -158 275 -151 294 3 8 1 17 -5 21 -7 4 -9 -1 -5 -12 8 -24 -56 90 -112 200 -25 48 -42 93 -38 99 4 6 3 8 -3 5 -12 -8 -46 61 -37 75 4 7 2 8 -4 4 -11 -6 -14 0 -11 20 0 4 -4 10 -9 13 -5 3 -27 37 -47 75 -31 56 -35 70 -24 78 11 8 11 9 -2 5 -11 -4 -27 17 -57 77 -23 44 -92 178 -153 296 -61 118 -106 216 -100 218 5 2 8 9 5 17 -8 19 235 497 248 489 7 -4 8 -2 4 4 -9 16 64 163 77 155 6 -3 7 -1 3 5 -10 16 176 384 187 369 6 -8 7 -6 3 6 -8 24 181 400 196 391 6 -4 8 -2 4 4 -8 13 14 63 25 57 4 -3 11 0 15 6 4 8 3 9 -4 5 -17 -10 -15 -3 15 58 15 30 31 52 36 49 6 -3 7 -1 3 5 -4 7 -4 17 -1 22 4 7 181 10 515 10 l510 -1 35 -71z m1655 -1644 c0 -21 -4 -25 -17 -20 -17 6 -17 5 0 -8 14 -11 17 -29 17 -92 0 -186 -77 -763 -100 -749 -5 3 -6 -3 -3 -13 10 -38 -113 -476 -130 -465 -6 3 -7 1 -3 -6 4 -6 2 -27 -5 -46 -10 -26 -16 -32 -25 -24 -10 8 -12 5 -11 -10 0 -11 5 -17 9 -15 4 3 8 3 8 1 0 -15 -82 -205 -141 -326 -53 -109 -73 -141 -80 -130 -8 10 -9 8 -4 -8 4 -15 -1 -29 -14 -42 -12 -12 -19 -21 -16 -21 9 0 -13 -37 -82 -143 -36 -53 -69 -95 -74 -92 -5 4 -7 0 -4 -7 7 -21 -109 -154 -131 -150 -22 5 -44 33 -37 47 4 5 2 7 -2 2 -11 -10 -86 63 -78 76 3 6 2 7 -4 4 -13 -8 -166 151 -158 164 4 5 1 8 -7 7 -7 -2 -12 3 -10 10 1 8 -2 11 -7 8 -14 -9 -123 114 -117 131 4 9 2 11 -6 7 -7 -4 -68 52 -159 147 -111 116 -144 157 -137 167 6 7 8 15 4 19 -3 3 -6 0 -6 -7 0 -7 -3 -11 -6 -8 -3 4 55 123 129 265 74 142 176 339 227 438 51 99 112 216 135 260 23 44 75 144 115 223 52 100 76 139 83 130 6 -9 7 -8 3 5 -7 22 123 285 144 291 8 2 169 4 358 5 l342 1 0 -26z m-4381 -51 c1 20 5 26 14 21 9 -6 8 -3 -1 8 -12 16 14 17 340 15 l353 -2 32 -60 c29 -55 34 -83 12 -70 -5 4 -9 -1 -9 -10 0 -12 4 -14 17 -6 15 8 25 -4 65 -82 54 -104 51 -97 37 -97 -5 0 -7 5 -3 12 4 7 3 8 -5 4 -8 -6 -9 -12 -2 -20 6 -7 8 -16 4 -19 -3 -4 -1 -7 4 -7 6 0 13 5 15 11 2 6 18 -17 36 -50 18 -34 30 -61 27 -61 -4 0 1 -7 9 -16 19 -18 21 -38 4 -28 -7 4 -10 4 -6 0 3 -4 10 -7 14 -6 4 1 15 -12 23 -28 87 -162 99 -190 90 -199 -8 -8 -7 -13 2 -18 8 -5 10 -4 5 3 -4 7 -3 12 2 12 12 0 24 -29 17 -40 -3 -4 2 -11 11 -14 9 -4 14 -13 10 -22 -3 -8 -2 -12 4 -9 5 3 25 -26 45 -64 38 -76 41 -86 23 -75 -7 4 -8 3 -4 -5 4 -6 11 -9 16 -6 5 3 12 -7 16 -22 4 -15 12 -31 17 -35 7 -4 6 -13 -4 -24 -12 -16 -12 -17 3 -11 14 5 28 -12 68 -86 27 -51 48 -98 45 -105 -3 -8 0 -10 7 -6 8 5 9 2 5 -10 -5 -11 -3 -15 5 -10 8 5 9 2 5 -10 -4 -9 -3 -15 2 -12 4 3 13 -6 19 -19 7 -15 8 -25 2 -25 -5 0 -7 -7 -3 -16 3 -9 8 -12 12 -5 4 5 24 -25 46 -67 47 -94 51 -102 31 -78 -9 11 -16 15 -16 9 0 -6 11 -20 25 -30 42 -31 37 -90 -10 -105 -5 -2 -9 -6 -8 -10 5 -13 -189 -208 -200 -201 -5 3 -7 1 -4 -4 8 -13 -252 -295 -264 -287 -5 3 -8 1 -7 -4 4 -12 -134 -158 -145 -154 -5 1 -6 -1 -3 -6 3 -5 -11 -24 -30 -43 l-36 -34 -44 50 c-24 28 -42 56 -39 62 2 7 1 12 -4 10 -8 -2 -42 36 -81 92 -19 27 -20 35 -9 42 11 8 10 9 -3 7 -24 -4 -110 129 -102 157 4 14 3 16 -4 7 -6 -10 -19 7 -46 57 -20 39 -33 71 -29 71 4 0 3 4 -3 8 -19 12 -86 153 -80 169 3 8 2 12 -3 9 -13 -9 -72 136 -146 359 -51 154 -64 212 -45 200 9 -5 11 -4 6 4 -4 6 -11 9 -16 6 -8 -5 -46 144 -76 300 -17 91 -40 258 -54 390 -12 120 -21 401 -11 350 7 -33 8 -35 10 -12z m2281 -1660 c11 -17 11 -17 6 0 -5 16 10 17 211 17 187 0 219 -2 235 -17 10 -9 18 -25 18 -36 0 -13 5 -17 15 -14 17 7 68 -50 59 -65 -4 -6 -3 -8 3 -5 11 7 87 -66 78 -75 -3 -3 3 -11 12 -19 17 -13 17 -13 3 6 -11 15 -8 14 12 -4 15 -13 25 -28 21 -34 -3 -6 -1 -7 5 -3 12 7 59 -50 54 -66 -1 -5 2 -7 7 -3 10 6 76 -60 76 -76 0 -5 5 -9 10 -10 16 -1 55 -41 49 -50 -3 -5 -1 -9 5 -9 6 0 50 -41 98 -92 48 -50 96 -100 107 -111 10 -10 19 -24 20 -31 3 -19 17 -37 25 -32 15 9 64 -52 57 -70 -4 -9 -9 -14 -13 -10 -3 3 -11 -4 -18 -17 -6 -12 -17 -21 -24 -19 -7 1 -10 -2 -7 -6 12 -20 -238 -226 -265 -220 -8 2 -13 -2 -12 -9 2 -6 -21 -26 -49 -43 -40 -25 -53 -29 -60 -18 -8 10 -9 9 -4 -4 5 -16 -26 -36 -47 -30 -5 1 -6 -1 -3 -6 7 -13 -170 -96 -185 -86 -7 4 -10 3 -5 -4 4 -6 -14 -17 -45 -27 -43 -15 -53 -15 -61 -4 -8 11 -9 10 -5 -3 5 -13 -10 -20 -75 -38 -45 -12 -91 -20 -104 -17 -13 2 -25 0 -26 -4 -8 -24 -419 -42 -433 -19 -3 5 -12 7 -20 4 -13 -6 -164 19 -220 36 -16 5 -49 14 -73 20 -23 6 -40 15 -37 20 3 6 0 7 -8 4 -20 -7 -198 67 -190 79 3 6 1 7 -5 3 -32 -19 -456 261 -449 298 1 6 -3 10 -9 9 -5 -1 -39 25 -74 58 l-64 59 74 75 c40 41 78 71 83 68 6 -3 7 -1 4 4 -7 11 367 413 384 413 5 0 9 5 9 11 0 16 130 149 143 146 6 -1 11 3 12 8 0 6 14 27 30 47 l30 38 312 0 c286 0 313 -1 323 -17z"/>
</g>
</svg>
