<?xml version="1.0" standalone="no"?>
<!DOCTYPE svg PUBLIC "-//W3C//DTD SVG 20010904//EN" "http://www.w3.org/TR/2001/REC-SVG-20010904/DTD/svg10.dtd">
<svg xmlns="http://www.w3.org/2000/svg" version="1.0" width="1024.000000pt" height="1024.000000pt" viewBox="0 0 1024.000000 1024.000000" preserveAspectRatio="xMidYMid meet">
<metadata>
Created by potrace 1.16, written by Peter Selinger 2001-2019
<meta name="Producer" content="Online-Convert"/></metadata>
<g transform="translate(0.000000,1024.000000) scale(0.100000,-0.100000)" fill="#000000" stroke="none">
<path d="M2259 8919 c-43 -9 -60 -29 -66 -77 -5 -36 -2 -45 25 -72 l30 -30 889 0 c830 0 894 -1 978 -19 101 -21 205 -58 205 -72 0 -5 3 -8 8 -7 12 4 72 -24 72 -34 0 -5 4 -7 8 -4 4 2 19 -5 32 -15 20 -16 20 -18 4 -10 -15 7 -21 7 -21 -3 0 -7 13 -12 31 -11 21 0 30 -4 28 -13 -1 -8 2 -11 8 -7 13 8 131 -105 123 -118 -3 -6 -1 -7 4 -4 6 4 19 -3 29 -15 11 -12 13 -18 7 -14 -7 4 -13 2 -13 -3 0 -6 6 -11 14 -11 7 0 19 -7 26 -15 8 -9 8 -15 2 -15 -6 0 -12 5 -14 12 -3 8 -6 7 -10 -3 -4 -10 1 -15 14 -16 30 -3 48 -23 48 -54 0 -15 5 -31 12 -35 8 -5 9 -2 5 9 -13 35 4 15 27 -30 69 -139 102 -290 112 -519 l7 -154 -79 0 c-43 0 -133 -5 -199 -10 -65 -5 -121 -8 -123 -6 -1 2 -4 79 -6 172 -4 181 -16 241 -62 322 -14 23 -22 47 -18 54 4 7 3 8 -4 4 -11 -7 -38 32 -34 47 1 5 -1 7 -5 5 -5 -2 -28 17 -53 42 -25 24 -38 40 -30 35 8 -4 11 -4 7 0 -4 5 -13 10 -20 11 -7 1 -41 19 -77 39 -36 20 -55 34 -42 32 12 -3 22 -1 22 5 0 5 -15 8 -32 7 -18 -2 -64 3 -103 10 -50 11 -157 15 -382 15 -172 1 -313 4 -313 8 0 4 -7 5 -16 1 -9 -3 -249 -6 -533 -7 -433 -1 -520 -3 -541 -16 -14 -8 -32 -13 -40 -12 -9 2 -11 0 -5 -5 7 -6 7 -18 0 -41 -6 -18 -14 -29 -18 -26 -4 4 -7 -2 -7 -14 0 -11 5 -24 12 -28 8 -5 9 -2 5 9 -9 24 0 21 14 -4 8 -15 8 -19 0 -15 -6 4 -11 1 -11 -7 0 -8 7 -18 16 -21 23 -9 26 -8 18 7 -6 9 -5 9 8 -1 12 -9 208 -13 889 -15 862 -2 875 -2 929 -23 30 -12 54 -26 53 -32 -2 -7 4 -9 14 -5 12 5 14 3 8 -7 -5 -9 -4 -11 4 -6 17 11 72 -49 64 -70 -5 -13 -3 -16 10 -11 21 8 44 -25 69 -100 15 -46 18 -88 18 -225 0 -126 -3 -169 -12 -172 -7 -2 -63 -20 -125 -40 -61 -20 -118 -34 -125 -33 -7 2 -9 2 -4 -1 12 -6 -150 -82 -167 -78 -7 1 -8 1 -4 -2 5 -2 -10 -15 -32 -29 -23 -13 -46 -21 -53 -17 -7 4 -8 3 -4 -4 8 -13 -30 -36 -44 -27 -6 4 -9 1 -8 -6 2 -6 -3 -14 -11 -17 -9 -3 -11 0 -6 8 5 9 4 11 -4 6 -6 -4 -9 -11 -6 -15 2 -5 -13 -20 -35 -35 -22 -14 -40 -24 -40 -21 0 4 -10 -6 -22 -20 -13 -14 -31 -27 -41 -29 -10 -1 -18 -6 -18 -12 -1 -13 -20 -34 -31 -34 -5 0 -6 5 -2 12 4 7 3 8 -5 4 -6 -4 -9 -11 -6 -16 7 -11 -20 -32 -29 -22 -4 4 -6 2 -4 -3 4 -15 -144 -165 -156 -158 -6 4 -8 3 -4 -2 7 -7 -45 -82 -76 -110 -6 -5 -26 -34 -45 -62 -32 -52 -49 -68 -37 -38 3 8 0 15 -5 15 -6 0 -9 -9 -6 -20 6 -22 -116 -244 -127 -232 -4 3 -4 -2 0 -12 6 -15 4 -17 -6 -11 -9 5 -11 4 -6 -4 10 -16 -3 -53 -16 -45 -6 4 -8 3 -5 -3 4 -5 -9 -54 -29 -108 -36 -102 -84 -290 -84 -331 0 -18 -9 -27 -36 -39 -41 -17 -56 -19 -34 -5 13 8 12 10 -2 10 -10 0 -18 -7 -18 -16 0 -10 -5 -14 -16 -10 -8 3 -13 2 -10 -3 6 -9 -74 -67 -87 -63 -5 1 -6 -1 -3 -6 4 -7 -33 -68 -71 -117 -22 -28 -22 -295 -1 -295 4 0 5 -7 1 -15 -3 -9 -1 -15 4 -13 9 3 84 -85 80 -94 -1 -1 0 -2 2 -1 10 6 30 -20 24 -31 -3 -6 -3 -8 2 -4 4 4 33 -6 64 -21 31 -16 80 -34 109 -40 77 -16 3767 -16 3843 0 30 7 64 12 76 13 12 0 20 3 18 5 -2 2 23 21 56 43 69 46 97 80 136 163 37 80 39 204 5 279 -12 26 -19 53 -15 60 3 6 3 8 -2 4 -4 -4 -21 9 -36 31 -16 21 -47 50 -69 66 -22 15 -40 32 -40 36 0 5 -3 8 -7 8 -5 -1 -15 -1 -23 0 -13 1 -13 3 -1 10 10 6 2 9 -23 8 -21 -1 -41 5 -46 12 -12 20 -21 106 -13 126 4 12 3 16 -4 12 -7 -5 -15 11 -22 43 -29 136 -132 380 -220 523 -23 38 -38 73 -35 79 4 6 3 8 -3 5 -12 -7 -47 39 -39 51 3 4 0 14 -6 22 -8 12 -9 11 -4 -5 7 -22 6 -21 -94 100 -30 37 -54 71 -53 76 2 5 -1 8 -5 6 -12 -3 -162 135 -156 144 3 5 -1 9 -10 9 -17 0 -187 125 -199 146 -5 8 -12 12 -17 9 -12 -8 -140 66 -134 77 3 4 -5 7 -18 5 -15 -1 -22 3 -20 11 1 8 -2 11 -9 7 -13 -9 -110 35 -104 46 3 4 -5 5 -17 2 -19 -4 -21 -3 -8 7 13 10 13 11 -1 7 -14 -5 -190 45 -249 70 -8 4 -24 7 -35 8 -71 6 -171 30 -182 44 -8 11 -13 58 -13 141 0 140 -19 289 -50 398 -11 40 -17 78 -14 84 4 7 2 8 -4 4 -11 -7 -16 7 -15 41 1 7 -3 11 -7 8 -4 -3 -13 7 -18 23 -5 15 -13 36 -18 46 -6 15 -4 17 6 11 9 -6 11 -4 6 4 -5 7 -10 10 -14 7 -3 -3 -31 34 -62 82 -63 96 -159 205 -232 263 -26 20 -45 39 -42 41 2 3 -2 5 -9 5 -12 0 -97 52 -97 60 0 2 5 1 12 -3 7 -4 8 -3 4 4 -4 6 -14 8 -23 5 -10 -4 -14 -2 -9 5 4 6 -1 11 -11 10 -26 0 -177 69 -161 75 7 2 5 3 -5 1 -10 -1 -61 8 -113 22 l-95 24 -899 2 c-494 2 -913 0 -931 -3z m2541 -1549 c-39 -6 -35 -7 30 -7 54 -1 66 2 45 7 -26 7 -23 8 21 9 28 0 54 -2 57 -5 4 -4 33 -8 66 -9 81 -3 191 -26 184 -38 -3 -6 -1 -7 6 -3 16 11 111 -13 108 -27 -1 -6 7 -12 18 -14 17 -4 18 -2 5 7 -13 11 -13 11 0 7 84 -25 119 -40 114 -49 -5 -7 -2 -8 5 -4 18 11 73 -14 67 -30 -3 -8 -1 -14 3 -14 5 0 11 4 13 10 2 6 21 1 45 -11 24 -12 41 -25 38 -29 -3 -4 2 -11 11 -14 8 -3 12 -2 9 4 -3 5 1 7 9 4 8 -3 13 -13 11 -22 -2 -12 5 -17 22 -18 23 -2 23 -1 6 13 -29 24 6 4 89 -50 42 -28 74 -55 71 -60 -3 -6 -1 -7 6 -3 13 8 78 -42 73 -56 -1 -5 2 -7 6 -4 13 8 133 -104 125 -117 -3 -5 -1 -7 5 -3 14 9 154 -154 147 -171 -2 -8 -1 -12 4 -9 12 8 34 -21 26 -34 -4 -6 -1 -9 6 -8 11 3 98 -125 99 -144 0 -4 -8 -5 -17 -2 -15 5 -15 4 -3 -4 8 -6 17 -9 21 -6 10 6 91 -165 84 -177 -4 -5 -12 -9 -18 -9 -7 0 -6 4 3 10 8 5 12 11 9 14 -2 3 -11 1 -19 -4 -11 -7 -9 -14 14 -37 27 -26 28 -26 22 -5 -4 12 -5 22 -2 22 10 0 46 -128 40 -146 -4 -13 -3 -15 3 -7 6 9 17 -18 31 -80 12 -50 22 -96 22 -102 0 -7 -589 -9 -1752 -8 l-1753 2 3 28 c15 125 130 451 155 436 5 -3 7 0 4 8 -14 38 250 424 286 416 6 -1 11 3 10 10 -3 13 103 113 183 174 33 25 57 37 68 33 9 -3 16 -1 16 6 0 6 -5 8 -12 4 -9 -5 -8 -2 1 10 8 9 21 14 30 11 8 -3 12 -3 8 1 -10 10 75 65 91 59 7 -3 10 0 7 5 -14 23 282 147 444 186 124 30 296 52 406 51 79 0 97 -2 65 -7z m1920 -1632 c45 -20 95 -72 85 -89 -5 -7 -4 -10 2 -6 6 4 13 -3 17 -16 9 -34 7 -59 -4 -52 -5 3 -10 -1 -10 -10 0 -9 5 -13 10 -10 11 7 14 -34 3 -61 -6 -16 -7 -16 -15 2 -6 15 -7 13 -3 -7 6 -31 -30 -83 -51 -75 -8 3 -13 0 -11 -6 7 -36 -21 -37 -1949 -37 -1035 -1 -1895 2 -1913 5 -17 4 -28 11 -24 17 3 6 1 7 -6 3 -15 -10 -64 21 -56 35 4 5 1 8 -7 7 -7 -2 -12 3 -10 10 1 6 -3 12 -9 12 -5 0 -17 17 -25 37 -27 62 -2 178 38 178 7 0 13 6 13 14 0 25 54 55 108 61 29 3 891 6 1917 5 1674 -1 1869 -3 1900 -17z"/>
<path d="M6299 4998 c-26 -12 -44 -32 -65 -72 -15 -30 -33 -52 -38 -49 -5 4 -6 1 -2 -6 9 -15 -13 -73 -25 -66 -4 3 -7 -3 -7 -12 2 -28 -63 -163 -75 -156 -5 3 -7 1 -3 -5 3 -6 -7 -51 -24 -100 -19 -58 -30 -112 -31 -153 -1 -55 -3 -59 -9 -29 -7 35 -7 35 -9 5 -1 -16 -4 -41 -8 -54 -4 -16 -3 -22 5 -18 5 4 13 1 16 -5 4 -7 4 -3 2 10 -2 12 0 22 5 22 5 0 9 -6 9 -14 0 -8 3 -22 7 -32 5 -13 3 -15 -8 -9 -8 5 1 -6 19 -24 30 -30 37 -43 33 -64 -1 -5 3 -6 8 -3 12 8 33 -18 23 -29 -4 -5 -1 -5 6 -1 6 4 24 -1 40 -11 50 -35 84 -44 161 -42 115 1 131 3 131 14 0 6 22 23 48 39 29 18 55 44 69 70 12 23 25 40 30 39 4 -1 9 15 10 35 1 20 6 38 11 40 19 6 -9 156 -48 255 -21 55 -37 104 -34 109 3 4 1 8 -3 8 -8 0 -53 82 -53 96 0 3 6 2 13 -1 6 -4 4 0 -6 8 -10 8 -37 55 -61 103 -54 109 -81 129 -137 102z m48 -323 c4 -4 3 -5 -4 -1 -8 4 -11 -1 -10 -14 1 -22 17 -28 17 -7 1 14 24 -27 35 -62 5 -18 4 -22 -5 -16 -9 5 -11 4 -6 -4 4 -6 11 -9 16 -6 10 6 22 -23 14 -36 -3 -5 -1 -9 5 -9 9 0 34 -68 46 -126 7 -37 -12 -90 -43 -118 -34 -30 -104 -33 -146 -6 -40 24 -60 54 -52 76 3 9 1 12 -4 9 -13 -8 -13 26 1 81 9 33 14 42 21 32 7 -9 8 -6 5 10 -6 26 51 165 64 157 4 -3 11 0 15 6 4 8 3 9 -4 5 -13 -8 -15 4 -6 27 6 16 28 17 41 2z"/>
<path d="M3223 5003 c-31 -6 -54 -41 -116 -177 -30 -64 -57 -113 -60 -110 -3 4 -6 -2 -5 -12 0 -11 -16 -57 -35 -104 -27 -66 -36 -79 -39 -60 -3 24 -10 -79 -11 -165 0 -59 10 -145 18 -153 4 -4 5 4 1 18 -6 24 -6 24 9 -3 9 -15 14 -31 11 -36 -3 -4 1 -17 9 -27 8 -10 15 -14 15 -9 0 6 -6 17 -12 25 -7 8 8 -5 35 -28 26 -23 58 -48 72 -54 14 -6 25 -14 25 -18 0 -6 64 -14 110 -12 85 2 133 6 121 10 -7 2 10 17 38 33 62 36 116 106 132 174 22 87 8 170 -53 312 -22 51 -36 98 -32 104 4 7 3 9 -3 6 -6 -4 -25 25 -43 66 -18 39 -39 86 -47 104 -8 18 -11 37 -7 44 5 8 3 9 -6 4 -10 -6 -12 -4 -6 11 4 10 4 15 0 11 -4 -4 -19 4 -33 17 -29 26 -55 35 -88 29z m27 -308 c-7 -9 -10 -19 -6 -22 4 -4 11 -2 15 5 10 16 33 -32 25 -52 -3 -8 2 -27 11 -43 15 -26 15 -26 9 -3 -10 39 2 21 31 -50 22 -50 28 -79 26 -128 -1 -43 2 -61 10 -57 15 10 -17 -49 -35 -64 -9 -8 -16 -10 -16 -7 0 4 -7 0 -16 -8 -8 -9 -28 -16 -44 -16 -39 0 -83 18 -75 30 3 5 0 7 -9 4 -23 -9 -48 40 -49 94 -1 57 20 125 35 116 7 -5 8 -2 4 5 -10 16 13 73 27 64 6 -3 7 -1 3 6 -9 14 42 141 57 141 5 0 4 -7 -3 -15z"/>
<path d="M3994 4999 c-11 -6 -29 -25 -39 -42 -17 -28 -19 -29 -26 -11 -5 14 -7 10 -7 -16 1 -19 -8 -53 -19 -75 -54 -106 -146 -325 -158 -379 -25 -106 -13 -199 36 -268 11 -14 19 -30 19 -35 0 -4 -9 6 -20 22 -19 29 -29 25 -10 -5 6 -9 5 -17 -3 -22 -7 -5 -1 -7 14 -4 28 5 73 -19 64 -34 -3 -5 0 -12 6 -16 8 -5 9 -3 4 6 -5 8 -3 11 6 8 8 -3 13 -16 12 -29 -1 -15 0 -17 3 -6 6 20 18 22 36 5 15 -15 39 -18 133 -17 95 1 114 3 109 10 -4 6 44 33 61 34 6 0 10 3 10 7 0 4 14 22 32 40 64 67 90 159 72 258 -6 36 -12 77 -13 92 0 14 -4 24 -7 22 -4 -2 -14 15 -23 38 -14 33 -15 43 -4 51 10 6 9 7 -4 3 -13 -4 -20 4 -29 32 -7 20 -12 46 -11 57 2 14 0 16 -6 7 -5 -8 -24 24 -57 98 -27 61 -60 123 -74 139 -29 33 -75 45 -107 30z m120 -460 c63 -160 60 -236 -14 -274 -81 -42 -206 21 -187 94 3 11 0 22 -7 25 -8 3 -7 7 3 14 7 5 11 14 7 20 -8 13 22 98 75 211 l43 93 17 -34 c9 -18 37 -85 63 -149z"/>
<path d="M5535 5002 c-46 -9 -66 -42 -181 -299 -78 -174 -92 -216 -100 -303 -19 -209 190 -376 387 -309 30 9 58 15 64 12 5 -4 7 -3 3 2 -4 4 11 21 33 37 22 16 49 45 61 64 11 18 23 34 27 34 8 0 9 7 17 111 7 86 -6 145 -59 264 -17 39 -30 78 -29 88 0 9 -2 15 -6 13 -4 -2 -32 49 -62 115 -67 149 -97 183 -155 171z m15 -313 c-7 -11 -9 -23 -6 -26 3 -3 9 2 12 11 5 14 9 15 15 4 5 -7 9 -17 9 -23 0 -5 -5 -3 -10 5 -8 13 -10 12 -10 -2 0 -10 6 -18 14 -18 14 0 63 -101 91 -191 29 -93 2 -165 -71 -189 -49 -17 -95 -5 -133 32 -26 26 -32 38 -27 60 3 16 1 28 -5 28 -6 0 -7 5 -3 12 4 6 8 23 9 37 3 38 66 191 76 185 5 -3 6 2 3 10 -4 10 -1 16 7 16 7 0 10 3 6 6 -8 8 13 64 24 64 6 0 5 -9 -1 -21z"/>
<path d="M4734 4986 c-12 -8 -34 -42 -49 -75 -20 -42 -32 -57 -38 -48 -6 8 -7 7 -3 -5 7 -22 -64 -179 -77 -171 -6 3 -7 1 -4 -4 4 -6 -12 -57 -34 -114 -37 -92 -42 -112 -44 -200 -1 -55 1 -96 6 -93 5 3 9 -1 9 -10 0 -8 -5 -16 -11 -18 -7 -2 -5 -9 5 -17 14 -12 16 -12 10 3 -10 27 4 18 20 -13 9 -16 12 -32 8 -36 -4 -3 -2 -5 3 -3 15 4 75 -53 68 -65 -4 -6 -1 -7 6 -2 15 9 63 -14 55 -26 -2 -5 8 -8 23 -8 15 0 62 0 104 -1 64 -1 85 3 126 24 104 52 164 143 170 260 3 61 -1 84 -30 168 -19 54 -30 95 -26 92 5 -3 9 0 9 5 0 6 -6 11 -14 11 -17 0 -120 226 -110 242 4 6 3 8 -3 5 -11 -7 -40 51 -35 68 2 6 1 7 -3 4 -3 -4 -17 4 -30 17 -28 28 -79 32 -111 10z m98 -393 c-1 -18 3 -35 9 -39 7 -4 9 2 5 17 -3 13 6 0 20 -30 40 -85 56 -158 44 -201 -11 -42 -43 -76 -61 -64 -8 4 -10 3 -5 -4 9 -16 -36 -26 -82 -19 -25 4 -48 18 -69 42 -28 29 -33 42 -33 83 0 58 27 145 42 135 7 -4 8 -1 4 6 -5 7 11 53 35 107 l44 94 24 -47 c13 -27 23 -62 23 -80z"/>
<path d="M3825 3890 c19 -8 19 -9 -3 -9 -13 -1 -45 -21 -72 -47 -27 -25 -52 -46 -57 -47 -4 -1 -7 -6 -5 -10 1 -5 -8 -22 -22 -38 -69 -81 -112 -233 -102 -362 4 -55 2 -76 -6 -71 -6 4 -9 1 -6 -7 3 -8 10 -13 15 -12 4 1 18 -25 29 -57 11 -33 17 -57 12 -54 -10 7 -10 -7 1 -25 5 -7 14 -10 20 -7 6 4 11 3 11 -3 0 -5 11 -23 25 -39 14 -17 24 -36 23 -43 -2 -7 4 -13 12 -14 8 0 15 -7 15 -15 1 -8 6 -14 13 -13 13 3 104 -103 129 -150 16 -31 15 -31 -2 -17 -17 14 -18 13 -12 -3 4 -10 7 -21 7 -23 0 -2 6 -4 14 -4 18 0 26 -31 26 -111 0 -72 -25 -163 -42 -152 -7 3 -8 1 -4 -6 5 -7 -8 -33 -30 -61 -36 -48 -54 -65 -38 -37 4 7 3 9 -2 4 -5 -5 -9 -12 -9 -15 0 -17 -48 -71 -57 -66 -7 4 -8 2 -4 -5 9 -14 -28 -63 -39 -53 -5 4 -5 1 -1 -5 9 -16 -17 -56 -29 -45 -5 4 -5 2 -2 -5 4 -6 3 -22 -2 -35 -7 -16 -10 -18 -10 -6 -1 9 -5 19 -9 22 -12 7 -9 -38 3 -46 7 -5 7 -10 0 -15 -11 -9 -14 -183 -2 -183 4 0 7 -7 7 -15 0 -8 -4 -15 -9 -15 -4 0 -6 -11 -3 -25 2 -14 8 -25 12 -25 5 0 6 10 3 23 -4 20 -3 20 7 4 6 -10 9 -25 6 -33 -3 -8 -2 -13 2 -10 5 3 16 -8 26 -25 9 -16 30 -36 46 -44 26 -13 34 -13 62 -2 18 8 39 26 47 41 13 24 12 34 -14 111 -31 95 -30 147 4 213 24 45 96 133 105 127 3 -3 4 -2 2 1 -3 4 13 29 34 58 53 69 99 172 107 235 3 28 9 51 12 51 8 0 5 80 -4 103 -4 9 -5 30 -3 47 2 16 1 27 -4 24 -4 -3 -8 0 -8 6 0 6 -14 41 -32 78 -18 37 -32 72 -31 79 0 7 -3 11 -7 10 -13 -4 -170 184 -163 195 3 7 1 8 -5 4 -13 -8 -35 28 -24 39 4 3 -1 13 -12 20 -34 26 -53 173 -29 235 3 8 7 21 9 28 7 35 51 105 104 165 33 38 60 77 60 87 0 35 -19 70 -44 82 -14 6 -24 14 -21 17 2 4 -8 7 -23 8 -24 2 -24 1 -7 -7z"/>
<path d="M4794 3861 c-18 -11 -35 -25 -39 -31 -6 -9 -10 -9 -17 1 -8 11 -9 11 -5 -1 2 -8 -12 -35 -31 -60 -48 -61 -56 -69 -49 -47 4 11 3 16 -4 12 -6 -4 -8 -13 -5 -21 3 -8 -8 -42 -24 -76 -17 -35 -30 -70 -30 -78 0 -13 -1 -13 -10 0 -6 10 -7 3 -3 -24 4 -23 2 -37 -3 -33 -11 7 -7 -129 7 -199 5 -28 24 -79 41 -115 18 -35 34 -68 36 -73 3 -5 -1 -5 -8 -1 -9 5 -11 4 -6 -4 4 -6 11 -9 15 -7 4 3 18 -9 31 -27 12 -18 17 -26 9 -19 -7 6 -17 12 -23 12 -5 0 -1 -6 9 -14 11 -8 23 -12 27 -10 10 7 115 -116 144 -170 15 -27 28 -64 30 -80 1 -17 5 -39 9 -48 16 -39 -34 -226 -56 -212 -5 3 -7 -1 -4 -8 2 -7 -26 -48 -63 -91 -38 -43 -82 -101 -100 -130 -34 -57 -62 -150 -62 -210 0 -26 -4 -36 -12 -31 -8 5 -8 3 -2 -7 15 -23 61 -169 53 -169 -13 0 3 -38 18 -44 9 -4 12 -2 7 7 -4 6 2 3 14 -7 30 -26 88 -23 119 5 29 28 30 71 2 136 -11 26 -19 60 -16 76 2 15 0 27 -4 27 -13 0 2 61 28 113 14 29 28 45 35 41 6 -4 8 -3 5 3 -7 11 80 119 93 116 6 -2 9 1 7 6 -1 5 12 33 30 62 74 124 100 276 68 399 -9 36 -18 77 -18 92 -1 14 -6 30 -10 34 -4 5 -5 0 -1 -11 3 -11 -8 2 -25 28 -17 27 -28 53 -25 59 4 6 3 8 -3 5 -11 -7 -100 92 -95 106 1 5 -2 6 -6 3 -14 -8 -45 31 -36 45 4 7 3 10 -3 6 -14 -9 -46 40 -37 55 4 6 3 8 -4 4 -6 -3 -18 13 -28 41 -25 64 -23 171 3 239 22 55 79 145 91 141 4 -1 8 3 10 8 5 16 44 55 51 51 3 -2 7 18 9 45 3 41 -1 53 -22 74 -30 30 -69 32 -112 6z"/>
<path d="M5780 3864 c-14 -7 -22 -14 -18 -14 4 0 -14 -23 -40 -51 -26 -28 -54 -62 -63 -75 -8 -13 -19 -21 -24 -17 -4 5 -5 3 -2 -4 7 -11 -36 -116 -44 -109 -5 5 -6 -7 -15 -146 -4 -69 -10 -105 -17 -101 -6 3 -7 1 -3 -6 4 -6 12 -9 17 -6 5 4 9 -6 9 -22 0 -15 15 -63 34 -105 19 -43 29 -75 22 -72 -6 3 2 -4 17 -17 15 -13 29 -33 31 -44 2 -11 7 -20 12 -20 20 0 35 -18 29 -33 -3 -9 -3 -13 1 -9 10 10 45 -23 37 -36 -3 -5 -1 -7 4 -4 13 8 46 -27 36 -37 -5 -4 -2 -6 5 -4 23 5 75 -98 76 -152 1 -26 4 -46 8 -43 13 7 -2 -107 -19 -148 -9 -22 -20 -36 -26 -32 -6 4 -8 0 -4 -10 7 -20 -60 -110 -75 -101 -6 4 -8 3 -5 -4 4 -5 -9 -29 -28 -53 -20 -23 -40 -50 -46 -61 -5 -10 -15 -15 -21 -12 -6 4 -8 3 -5 -3 3 -5 -5 -36 -18 -69 -14 -32 -25 -70 -25 -84 0 -18 -3 -21 -9 -11 -9 14 -7 -91 2 -119 2 -8 10 -35 17 -60 35 -133 119 -184 183 -112 13 14 17 33 15 70 -2 27 -7 47 -12 44 -5 -3 -6 2 -3 12 4 10 3 15 -3 11 -11 -7 -24 56 -23 111 1 23 11 59 23 80 12 22 19 31 16 21 -4 -11 -2 -16 5 -12 5 4 7 14 4 24 -6 18 81 125 95 116 5 -3 12 0 16 6 4 8 3 9 -4 5 -18 -11 -14 2 10 34 11 16 26 26 32 23 6 -3 8 -3 4 1 -3 4 9 39 27 78 19 39 37 90 41 114 3 24 9 42 13 40 15 -10 -8 202 -29 256 -19 50 -88 157 -127 196 -7 8 -10 19 -6 25 3 7 2 9 -2 4 -9 -8 -65 40 -65 56 0 5 -12 21 -27 36 -30 30 -69 124 -58 141 3 5 1 10 -4 10 -6 0 -11 18 -11 40 0 25 5 40 13 40 8 0 9 2 1 8 -8 5 -8 22 3 62 18 70 48 120 117 197 64 70 71 103 31 147 -27 30 -82 34 -125 10z"/>
</g>
</svg>
