<?xml version="1.0" standalone="no"?>
<!DOCTYPE svg PUBLIC "-//W3C//DTD SVG 20010904//EN" "http://www.w3.org/TR/2001/REC-SVG-20010904/DTD/svg10.dtd">
<svg xmlns="http://www.w3.org/2000/svg" version="1.0" width="1024.000000pt" height="1024.000000pt" viewBox="0 0 1024.000000 1024.000000" preserveAspectRatio="xMidYMid meet">
<metadata>
Created by potrace 1.16, written by Peter Selinger 2001-2019
<meta name="Producer" content="Online-Convert"/></metadata>
<g transform="translate(0.000000,1024.000000) scale(0.100000,-0.100000)" fill="#000000" stroke="none">
<path d="M3590 7788 c-127 -9 -274 -39 -406 -83 -59 -20 -114 -33 -121 -30 -8 2 -12 1 -9 -4 7 -10 -191 -117 -211 -115 -7 1 -10 -2 -7 -7 3 -5 1 -9 -5 -9 -5 0 -16 -6 -23 -12 -7 -7 -40 -31 -73 -53 -118 -79 -360 -338 -391 -419 -3 -9 -11 -13 -17 -9 -5 3 -7 1 -3 -5 3 -6 -8 -34 -25 -63 -69 -119 -129 -297 -164 -494 -13 -74 -25 -301 -19 -377 5 -79 28 -266 37 -298 2 -8 7 -28 11 -45 32 -133 50 -197 72 -253 14 -35 27 -69 28 -75 1 -7 4 -16 7 -22 8 -12 38 -105 43 -131 3 -10 10 -41 16 -69 15 -64 16 -264 2 -335 -6 -30 -14 -66 -16 -80 -25 -120 -46 -183 -123 -360 -94 -216 -235 -431 -410 -622 -50 -55 -57 -97 -21 -122 35 -25 65 -19 99 19 18 19 36 32 42 28 6 -3 7 -1 3 6 -5 7 8 29 31 54 21 23 52 60 68 82 17 22 33 42 36 45 4 3 27 38 53 78 26 39 52 72 57 72 6 0 8 4 5 9 -3 4 7 28 22 52 71 111 183 346 207 434 5 17 9 32 10 35 28 92 30 104 51 240 33 222 16 391 -64 615 -13 39 -33 93 -42 120 -31 87 -68 237 -85 344 -14 82 -16 148 -13 315 5 204 6 216 42 351 20 77 46 160 57 185 63 138 87 183 143 264 71 104 210 251 227 240 7 -4 9 -3 6 4 -9 13 93 94 195 156 126 76 338 166 425 179 17 3 36 8 41 11 27 16 277 37 392 33 134 -6 262 -25 254 -39 -3 -4 1 -5 9 -2 15 5 121 -19 162 -38 13 -6 22 -16 18 -22 -4 -7 -2 -7 7 0 9 9 22 7 53 -8 128 -62 157 -80 150 -91 -3 -6 -1 -7 5 -3 29 18 253 -166 352 -290 133 -165 179 -258 237 -479 25 -91 27 -116 26 -275 0 -113 -6 -214 -17 -285 -25 -155 -35 -369 -25 -512 8 -114 40 -317 60 -373 9 -24 8 -24 -6 -6 -12 16 -15 17 -15 4 0 -8 9 -22 19 -29 11 -8 30 -48 44 -90 27 -80 25 -130 -4 -176 -16 -27 -25 -29 -37 -7 -5 9 -12 15 -16 15 -3 -1 -21 6 -39 15 -40 21 -109 23 -164 5 -29 -10 -50 -26 -70 -55 -44 -62 -50 -84 -51 -175 -1 -68 -6 -93 -24 -128 -13 -24 -26 -43 -30 -43 -5 0 -8 -7 -8 -15 0 -8 -9 -34 -19 -57 -11 -24 -23 -56 -26 -72 -4 -19 -34 -55 -84 -103 -87 -81 -116 -133 -127 -226 -10 -82 -34 -101 -133 -105 -69 -4 -91 0 -187 33 -116 40 -325 137 -345 161 -6 8 -15 14 -20 14 -20 0 -207 132 -296 208 -29 25 -49 50 -46 56 3 6 0 5 -8 -1 -7 -7 -19 -13 -27 -13 -7 0 -20 -7 -28 -15 -16 -16 -37 -76 -26 -72 4 1 27 -16 51 -38 24 -22 54 -50 66 -61 13 -12 21 -25 17 -30 -4 -4 -1 -4 5 0 7 4 24 -1 38 -11 26 -19 33 -34 13 -29 -7 1 -10 1 -5 -1 4 -3 4 -10 0 -16 -4 -7 1 -6 11 2 14 12 19 12 25 2 5 -7 10 -11 12 -10 7 5 69 -35 69 -44 0 -4 4 -5 10 -2 5 3 10 4 10 2 0 -5 -43 -58 -75 -92 -11 -11 -28 -33 -38 -48 -9 -15 -23 -26 -30 -24 -6 1 -11 -4 -9 -11 2 -14 -77 -118 -88 -115 -4 1 -7 -3 -7 -10 -1 -7 -44 -77 -98 -157 -57 -86 -135 -222 -190 -333 -52 -106 -95 -183 -99 -175 -3 7 -3 3 0 -9 2 -12 -2 -39 -11 -60 -28 -64 -85 -231 -85 -247 0 -22 40 -56 66 -56 33 0 52 24 70 88 9 31 20 61 25 67 5 5 9 16 9 25 0 39 189 449 212 458 4 2 8 9 8 16 0 6 16 35 35 65 19 29 35 57 35 62 0 5 5 9 10 9 6 0 10 5 10 11 0 14 105 161 195 274 96 120 162 188 175 180 6 -3 8 -10 6 -14 -3 -4 5 -7 17 -7 13 1 21 -4 19 -12 -1 -8 1 -11 6 -8 5 3 64 -17 131 -45 188 -77 335 -109 414 -89 86 22 132 50 165 100 24 37 32 60 32 95 0 25 6 61 14 79 19 46 67 98 83 91 8 -2 11 -1 8 5 -3 5 5 16 18 24 25 17 80 98 84 126 10 69 100 228 119 212 4 -4 3 0 -4 9 -9 12 -10 24 -2 43 6 18 7 42 1 68 -19 81 18 148 81 148 28 0 44 -11 105 -74 84 -86 141 -112 221 -102 163 21 232 17 232 -15 0 -6 -4 -7 -10 -4 -5 3 -10 -1 -10 -10 0 -11 5 -15 15 -11 29 11 28 -25 -4 -93 -48 -104 -39 -220 23 -286 32 -33 107 -55 166 -48 50 6 58 1 40 -27 -9 -13 -11 -13 -20 0 -10 13 -10 13 -8 0 2 -9 -9 -28 -24 -43 -48 -48 -46 -108 5 -202 57 -103 96 -189 90 -198 -3 -5 -2 -7 4 -4 13 8 86 -67 76 -78 -5 -4 -3 -5 3 -2 7 4 29 -1 50 -10 59 -25 61 -26 194 -26 135 0 218 17 338 67 34 14 63 26 66 26 2 0 14 -16 26 -35 19 -31 20 -38 8 -53 -11 -15 -11 -16 3 -5 13 11 19 7 37 -25 62 -110 102 -195 96 -204 -4 -6 -3 -8 3 -5 6 4 16 -8 23 -26 7 -17 24 -57 38 -87 14 -30 35 -78 48 -106 17 -40 20 -54 11 -63 -9 -10 -9 -12 2 -9 22 5 73 -138 75 -209 1 -17 5 -31 10 -30 4 1 10 -5 12 -13 2 -8 8 -33 14 -55 5 -22 14 -69 20 -105 5 -36 12 -76 16 -89 6 -19 4 -23 -8 -19 -9 4 -15 0 -15 -8 0 -8 6 -13 13 -10 18 7 28 -48 14 -73 -6 -12 -8 -22 -5 -22 3 -1 9 -2 15 -3 5 0 15 -7 22 -14 18 -18 55 -15 76 6 15 15 18 30 15 68 -8 115 -57 366 -82 429 -5 11 -28 74 -51 140 -51 144 -96 246 -207 463 -46 90 -83 166 -83 168 0 3 5 2 12 -2 7 -4 8 -3 4 5 -4 6 -11 9 -16 6 -4 -3 -15 7 -24 21 -16 24 -16 26 6 44 13 10 34 25 48 32 59 31 138 106 145 138 7 30 -22 70 -50 70 -9 0 -62 -34 -116 -75 -131 -99 -306 -183 -439 -211 -19 -4 -74 -9 -122 -11 -76 -4 -93 -1 -141 21 -43 19 -62 35 -82 70 -15 25 -24 50 -20 56 3 5 2 10 -2 10 -15 0 -75 111 -69 127 4 8 1 22 -5 29 -9 11 -4 19 20 40 45 38 64 80 58 126 -11 83 -66 121 -173 119 -70 -1 -91 14 -100 71 -5 26 1 49 26 98 29 56 32 71 28 128 -4 64 -5 66 -56 113 -67 62 -127 76 -249 60 -56 -7 -92 -7 -109 0 -25 9 -26 10 -10 32 63 85 72 167 32 286 -35 101 -63 207 -71 261 -3 25 -10 63 -16 85 -21 84 -18 463 4 560 28 119 40 454 21 565 -7 41 -14 89 -17 105 -8 52 -65 208 -102 279 -39 75 -41 81 -22 69 6 -4 -5 10 -25 31 -21 22 -38 42 -38 46 0 4 -13 25 -30 46 -32 41 -34 45 -90 109 -58 67 -175 170 -250 220 -38 25 -73 52 -77 58 -5 7 -12 12 -18 13 -5 0 -57 23 -115 51 -58 28 -138 61 -179 74 -60 19 -69 25 -50 30 16 5 9 6 -21 6 -48 -1 -158 11 -170 18 -27 17 -213 24 -360 13z"/>
<path d="M6479 7795 c-2 -2 -40 -6 -84 -8 -85 -6 -237 -36 -320 -64 -27 -10 -52 -18 -55 -18 -42 -11 -194 -86 -262 -130 -191 -124 -376 -325 -486 -527 l-31 -57 20 -25 c11 -14 29 -28 40 -31 21 -7 69 18 69 35 0 6 24 50 54 98 155 250 401 445 671 534 254 83 592 90 825 17 36 -11 72 -22 81 -24 26 -6 193 -82 256 -118 80 -46 152 -100 146 -110 -3 -6 -2 -7 4 -4 5 3 22 -5 39 -18 16 -13 23 -24 17 -25 -7 0 -13 -8 -13 -17 0 -15 1 -15 13 2 16 20 42 11 33 -12 -3 -8 -1 -11 4 -8 21 13 207 -195 194 -216 -4 -7 -3 -9 4 -5 12 7 83 -96 85 -125 1 -10 4 -16 9 -13 13 8 80 -144 73 -168 -5 -18 -4 -19 4 -8 8 12 12 9 21 -15 31 -78 53 -149 76 -245 49 -202 57 -285 57 -585 0 -154 -3 -293 -6 -308 -6 -27 -9 -59 -22 -232 -3 -38 -10 -119 -16 -180 -5 -60 -12 -139 -14 -175 -2 -36 -8 -130 -14 -210 -9 -140 -8 -423 3 -505 6 -42 16 -107 22 -140 30 -169 101 -340 194 -462 27 -36 47 -71 43 -77 -3 -6 -3 -8 2 -4 10 10 37 -11 29 -23 -3 -5 2 -9 10 -9 8 0 22 -7 30 -16 12 -12 16 -12 16 -2 0 11 2 11 9 0 6 -10 16 -6 40 17 18 16 34 29 36 28 2 -1 7 2 12 7 4 5 3 6 -3 3 -7 -4 -15 4 -19 20 -3 15 -24 43 -46 61 -24 21 -38 40 -35 49 3 8 2 11 -4 8 -11 -7 -79 82 -109 142 -39 79 -87 239 -96 326 -2 23 -9 80 -15 127 -10 90 -14 473 -4 483 3 3 8 54 10 114 2 59 8 141 14 183 6 41 13 109 16 150 2 41 12 164 21 273 25 314 8 757 -35 922 -6 22 -13 51 -16 65 -24 117 -72 252 -138 383 -21 43 -36 83 -32 89 4 6 3 8 -3 5 -15 -9 -74 89 -67 111 5 14 4 14 -5 2 -5 -8 -11 -12 -13 -10 -2 3 -17 25 -33 50 -68 102 -250 272 -408 379 -128 87 -382 189 -542 216 -16 3 -55 10 -85 15 -57 10 -265 22 -271 15z"/>
<path d="M5582 5775 c-7 -14 -12 -32 -12 -40 0 -19 49 -75 66 -75 8 0 14 -4 14 -10 0 -5 4 -10 9 -10 5 0 30 -10 57 -22 57 -26 51 -24 134 -38 62 -11 136 -9 190 5 37 10 123 56 136 73 11 15 4 76 -10 89 -9 9 -75 9 -69 0 7 -11 -86 -48 -137 -54 -79 -9 -228 38 -291 93 -27 24 -74 18 -87 -11z"/>
<path d="M4431 5759 c-44 -48 -19 -89 104 -170 33 -22 59 -42 57 -45 -2 -3 0 -9 4 -12 4 -4 4 -1 0 6 -5 8 2 12 23 12 50 0 82 70 46 100 -8 7 -12 16 -9 21 3 5 2 9 -3 8 -26 -5 -48 6 -97 46 -70 57 -97 64 -125 34z"/>
<path d="M5114 3912 c8 -13 -132 -145 -232 -220 -93 -70 -215 -146 -228 -142 -4 1 -10 -2 -13 -7 -22 -29 -261 -118 -372 -137 -57 -10 -75 -39 -67 -109 1 -15 10 -17 75 -12 40 2 81 8 90 14 10 5 23 10 28 11 41 10 192 69 262 103 38 19 98 52 136 75 37 23 72 42 77 42 6 0 10 5 10 11 0 6 7 8 16 5 8 -3 13 -2 10 3 -3 4 14 22 38 39 89 64 226 191 243 227 13 27 -6 73 -38 91 -27 15 -42 18 -35 6z"/>
<path d="M5350 3525 c-22 -30 -45 -53 -50 -50 -6 3 -7 0 -5 -7 8 -20 -169 -203 -185 -193 -8 5 -11 4 -7 -3 18 -28 -298 -261 -460 -338 -74 -35 -82 -42 -83 -67 0 -17 10 -38 26 -53 30 -31 49 -28 124 16 28 17 55 30 60 30 6 0 10 5 10 10 0 6 5 10 11 10 16 0 200 125 297 204 98 78 231 211 300 301 25 33 49 62 52 65 4 3 15 20 26 38 17 30 17 35 4 60 -11 19 -25 28 -47 30 -28 3 -36 -3 -73 -53z"/>
</g>
</svg>
