<?xml version="1.0" standalone="no"?>
<!DOCTYPE svg PUBLIC "-//W3C//DTD SVG 20010904//EN"
 "http://www.w3.org/TR/2001/REC-SVG-20010904/DTD/svg10.dtd">
<svg version="1.0" xmlns="http://www.w3.org/2000/svg"
 width="1024.000000pt" height="1024.000000pt" viewBox="0 0 1024.000000 1024.000000"
 preserveAspectRatio="xMidYMid meet">
<metadata>
Created by potrace 1.16, written by Peter Selinger 2001-2019
</metadata>
<g transform="translate(0.000000,1024.000000) scale(0.100000,-0.100000)"
fill="#000000" stroke="none">
<path d="M1725 5760 c-4 -6 -11 -7 -17 -4 -6 4 -8 2 -4 -4 3 -6 2 -13 -4 -17
-29 -18 22 -104 129 -220 16 -17 28 -40 26 -52 -1 -12 2 -20 7 -17 5 4 7 13 4
21 -3 8 32 -21 79 -64 47 -42 85 -80 85 -83 0 -12 -132 -139 -143 -137 -7 1
-11 -3 -10 -10 3 -16 -56 -65 -69 -57 -7 4 -8 2 -4 -4 4 -7 -20 -32 -59 -62
-53 -42 -65 -57 -65 -80 0 -16 5 -32 10 -35 6 -4 7 -12 4 -18 -4 -7 -4 -9 1
-5 4 4 14 3 21 -3 31 -26 90 14 260 174 45 42 84 73 88 69 4 -4 6 -2 4 3 -1 6
13 30 33 53 l36 42 24 -18 c34 -26 202 -115 272 -143 67 -27 67 -23 15 -147
-18 -43 -34 -69 -40 -65 -7 3 -8 1 -4 -5 8 -14 -60 -152 -76 -152 -6 0 -9 -3
-5 -6 3 -4 0 -19 -8 -35 -37 -71 9 -130 80 -103 17 7 140 245 190 369 16 39
31 73 34 77 3 4 51 -4 106 -17 55 -12 153 -28 218 -35 l117 -12 0 -119 c0 -71
-4 -120 -10 -124 -8 -5 -8 -11 -1 -19 6 -7 9 -15 6 -17 -8 -9 -12 -108 -3
-103 7 5 2 -61 -7 -93 -2 -7 0 -15 5 -18 15 -9 12 -27 -2 -19 -8 4 -10 3 -5
-2 5 -5 12 -9 15 -10 9 -1 62 -23 75 -31 6 -3 7 -1 3 5 -4 7 -1 12 8 12 8 0
22 10 30 22 14 19 16 62 16 270 l0 248 36 0 c56 0 280 29 337 44 29 8 55 12
58 10 3 -2 16 -31 29 -66 12 -34 38 -95 56 -135 38 -81 39 -87 22 -78 -7 4 -3
-2 8 -12 28 -24 67 -101 58 -115 -4 -6 -3 -8 3 -5 6 4 20 -9 32 -28 38 -65
105 -70 133 -10 10 21 5 34 -38 107 -70 117 -126 237 -118 250 4 6 3 8 -3 5
-12 -8 -57 89 -48 103 3 6 1 10 -4 10 -6 0 -11 5 -11 10 0 6 7 10 16 10 33 0
224 82 313 135 l93 55 21 -28 c67 -85 224 -250 290 -303 57 -45 79 -48 112
-14 40 39 32 59 -52 138 -93 87 -229 227 -250 257 -14 20 -11 25 83 113 120
114 226 243 222 270 -2 11 -15 29 -30 40 -23 17 -31 18 -56 8 -16 -7 -40 -26
-52 -43 -74 -100 -262 -274 -282 -261 -6 3 -8 1 -5 -4 9 -15 -128 -107 -144
-98 -8 5 -10 4 -5 -3 8 -14 -142 -87 -269 -132 -348 -122 -788 -128 -1144 -16
-126 40 -232 86 -224 98 3 7 1 8 -5 4 -13 -8 -104 36 -132 64 -11 11 -20 18
-20 15 0 -17 -139 91 -224 174 -116 113 -179 188 -169 204 3 7 3 9 -2 5 -4 -4
-19 2 -33 12 -27 22 -57 26 -67 10z"/>
<path d="M8458 5759 c-9 -5 -46 -45 -83 -89 -36 -44 -70 -78 -76 -75 -5 4 -8
1 -7 -7 2 -7 -3 -12 -10 -10 -8 1 -11 -2 -8 -7 8 -12 -18 -33 -29 -23 -5 4 -5
2 -2 -4 8 -13 -110 -117 -123 -109 -6 4 -9 1 -8 -6 4 -16 -163 -130 -180 -124
-7 3 -11 1 -8 -4 8 -12 -41 -31 -61 -25 -14 4 -15 3 -5 -4 27 -18 -223 -110
-400 -146 -120 -25 -225 -31 -245 -15 -9 8 -14 9 -10 3 10 -17 -16 -24 -79
-24 -42 0 -53 3 -48 13 6 9 5 9 -7 0 -17 -13 -218 -2 -319 18 -325 63 -616
207 -817 402 -34 33 -59 65 -56 70 3 6 1 7 -5 3 -6 -3 -28 14 -49 41 -63 78
-90 103 -113 103 -23 0 -70 -42 -70 -63 0 -7 22 -42 49 -77 28 -35 47 -69 44
-74 -4 -6 -3 -8 2 -4 11 10 37 -11 29 -23 -3 -5 -2 -8 3 -7 5 2 52 -37 104
-86 52 -49 89 -86 82 -82 -6 3 -14 2 -17 -3 -4 -5 2 -11 11 -13 14 -3 -5 -27
-76 -101 -51 -53 -98 -94 -104 -90 -5 3 -7 1 -4 -4 9 -15 -80 -86 -95 -77 -7
4 -10 4 -6 -1 6 -7 -4 -24 -53 -82 -7 -10 -6 -13 6 -13 8 0 15 -5 15 -10 0 -6
14 -19 32 -30 29 -17 33 -18 62 -3 17 9 104 89 194 178 l162 163 95 -53 c52
-28 91 -56 87 -60 -4 -5 -2 -5 5 -1 7 4 32 -2 55 -12 41 -18 71 -30 130 -51
27 -10 27 -11 14 -49 -22 -61 -64 -147 -127 -263 -75 -135 -75 -152 -5 -179
26 -9 31 -7 60 23 34 37 126 216 176 342 18 44 33 81 34 83 2 1 45 -7 97 -18
52 -11 107 -20 122 -20 16 0 26 -3 24 -7 -3 -5 36 -9 85 -10 50 -1 93 -4 96
-7 3 -3 4 -116 3 -250 -2 -242 -2 -244 21 -269 13 -14 39 -27 58 -30 19 -3 30
-3 23 -1 -7 3 -2 15 14 31 l26 25 -6 248 c-5 227 -4 249 11 248 67 -1 370 46
422 66 11 5 25 -16 54 -81 21 -49 39 -96 39 -105 1 -9 6 -14 11 -11 5 4 7 -1
3 -11 -4 -9 -3 -15 2 -12 11 7 23 -22 15 -35 -3 -5 -1 -8 4 -7 11 3 114 -158
115 -178 1 -18 73 -11 96 10 31 28 26 53 -27 136 -90 140 -121 200 -116 218 4
13 3 14 -4 4 -7 -10 -13 -3 -26 28 -9 23 -13 46 -10 52 4 6 2 8 -3 5 -9 -6
-28 21 -21 29 2 1 35 14 73 29 75 28 224 105 264 137 l25 19 43 -42 c33 -33
40 -46 31 -56 -6 -7 -8 -16 -4 -20 3 -3 6 -1 6 7 0 10 4 10 18 -1 15 -13 16
-12 3 4 -16 21 1 23 19 2 20 -24 203 -153 235 -165 44 -17 80 13 81 68 1 23
-2 41 -5 40 -12 -2 -41 14 -37 21 3 4 -4 8 -16 8 -22 2 -94 54 -200 145 l-70
61 69 60 c90 80 187 180 235 244 50 65 50 110 3 129 -20 8 -37 9 -47 3z"/>
</g>
</svg>
