<?xml version="1.0" standalone="no"?>
<!DOCTYPE svg PUBLIC "-//W3C//DTD SVG 20010904//EN"
 "http://www.w3.org/TR/2001/REC-SVG-20010904/DTD/svg10.dtd">
<svg version="1.0" xmlns="http://www.w3.org/2000/svg"
 width="1024.000000pt" height="1024.000000pt" viewBox="0 0 1024.000000 1024.000000"
 preserveAspectRatio="xMidYMid meet">
<metadata>
Created by potrace 1.16, written by Peter Selinger 2001-2019
</metadata>
<g transform="translate(0.000000,1024.000000) scale(0.100000,-0.100000)"
fill="#000000" stroke="none">
<path d="M4960 7208 c-299 -21 -641 -133 -878 -287 -35 -23 -67 -39 -71 -37
-4 3 -13 0 -21 -6 -12 -8 -12 -9 3 -4 9 3 17 4 17 1 0 -8 -133 -100 -141 -98
-5 2 -8 -1 -6 -6 1 -5 -37 -46 -84 -92 -47 -46 -104 -105 -125 -131 -37 -45
-43 -48 -129 -67 -200 -46 -361 -92 -379 -110 -16 -16 -18 -34 -17 -147 1
-118 3 -131 22 -146 12 -10 35 -19 53 -19 l31 -1 -30 -8 c-16 -4 -22 -8 -12
-9 10 -1 17 -9 17 -22 0 -11 5 -17 10 -14 7 4 10 -91 10 -294 -1 -182 -5 -301
-11 -301 -5 0 -9 -5 -9 -11 0 -5 5 -7 10 -4 7 4 10 -87 10 -264 0 -174 -4
-271 -10 -271 -5 0 -10 -8 -10 -17 0 -15 2 -16 10 -3 7 11 10 6 10 -22 0 -20
-4 -40 -10 -43 -5 -3 -9 -18 -9 -33 l1 -27 8 30 c5 19 8 -11 9 -87 1 -68 -3
-119 -9 -123 -5 -3 -10 -12 -10 -18 0 -7 4 -6 10 3 6 10 10 -103 10 -327 0
-291 -2 -343 -14 -343 -8 0 -24 -12 -35 -26 -19 -24 -21 -39 -19 -160 1 -73 4
-131 7 -129 2 3 11 -1 18 -7 22 -18 581 -15 598 3 7 8 45 77 85 154 93 177
105 197 115 187 5 -4 5 -1 1 6 -6 11 68 164 184 377 15 28 46 87 70 132 23 46
46 81 50 78 5 -3 12 0 16 6 4 8 3 9 -4 5 -20 -12 -14 3 64 153 89 169 98 184
109 173 5 -4 5 -1 1 5 -4 7 33 89 85 190 122 233 134 254 144 246 4 -5 5 -2 1
4 -4 7 -2 22 4 33 10 20 20 20 403 20 l393 0 32 -60 c17 -34 29 -68 26 -78 -4
-13 -3 -14 4 -4 7 11 10 10 16 -3 3 -9 3 -22 -1 -27 -3 -6 -2 -8 4 -5 13 8 36
-40 27 -56 -4 -7 -4 -9 1 -5 10 10 24 -10 65 -90 17 -34 28 -67 24 -73 -4 -7
-3 -9 4 -5 16 10 63 -82 56 -110 -4 -14 -2 -24 5 -24 6 0 8 8 5 18 -8 23 41
-59 77 -131 16 -32 27 -63 23 -69 -4 -6 -3 -8 3 -5 12 8 137 -220 135 -246 0
-9 3 -15 8 -12 5 3 14 -4 20 -16 8 -15 9 -19 1 -15 -6 4 -11 2 -11 -3 0 -6 6
-11 13 -11 17 0 88 -145 81 -165 -4 -10 -2 -13 8 -10 16 6 72 -100 62 -117 -4
-6 -3 -8 3 -5 5 3 31 -35 57 -84 41 -78 46 -93 34 -107 -11 -15 -11 -15 3 -5
13 11 18 7 32 -23 10 -19 15 -39 13 -43 -3 -4 0 -13 6 -21 8 -12 9 -12 4 3
-10 33 4 17 31 -35 37 -71 45 -90 33 -83 -17 10 -11 -12 7 -26 14 -12 16 -12
9 1 -4 8 1 4 11 -8 l19 -24 288 -1 c351 -1 329 -10 334 145 5 122 -8 175 -43
184 l-25 6 0 1095 c0 973 2 1094 15 1083 11 -9 15 -9 15 -1 0 6 -8 15 -17 19
-14 5 -10 8 16 12 61 9 73 39 72 176 -1 90 -5 122 -17 135 -19 21 -78 39 -289
89 l-170 40 -81 87 c-45 49 -79 92 -76 97 3 5 1 7 -4 3 -5 -3 -45 26 -89 64
-383 335 -884 496 -1425 457z m105 -106 c3 -8 3 -23 0 -33 -4 -11 -2 -19 4
-19 6 0 8 -6 5 -14 -4 -9 -35 -15 -104 -20 -305 -21 -659 -158 -908 -350 -39
-30 -73 -53 -76 -50 -3 2 -4 1 -1 -3 8 -10 -126 -143 -137 -137 -5 3 -7 2 -6
-3 2 -4 -2 -9 -7 -11 -15 -4 -105 19 -105 27 0 16 174 184 259 250 117 90 226
155 242 145 7 -4 9 -3 5 4 -7 11 88 60 214 110 125 49 309 91 515 116 57 6 94
2 100 -12z m395 -13 c146 -25 349 -87 329 -101 -11 -7 -9 -8 5 -4 23 8 148
-42 140 -55 -3 -5 1 -7 8 -4 17 6 160 -73 153 -85 -4 -6 1 -7 11 -3 11 4 15 2
11 -4 -4 -6 1 -10 11 -9 9 0 16 -5 14 -12 -1 -8 2 -11 8 -7 20 13 275 -208
263 -229 -3 -6 -2 -8 2 -3 8 7 95 -69 95 -84 0 -3 -28 -12 -61 -18 l-62 -13
-30 39 c-173 218 -543 421 -894 492 -55 12 -115 21 -133 21 -17 0 -29 3 -27 8
3 4 -22 5 -54 4 -73 -5 -89 7 -89 60 l0 40 93 -7 c50 -4 144 -16 207 -26z
m-382 -248 l0 -88 -83 -7 c-46 -3 -115 -13 -154 -21 -39 -8 -85 -13 -103 -10
-27 4 -28 3 -8 -3 23 -7 21 -9 -22 -21 -25 -7 -51 -12 -56 -10 -11 5 -122 131
-122 140 0 10 154 56 245 74 130 25 187 33 247 34 l56 1 0 -89z m348 64 c89
-18 235 -59 259 -72 13 -7 5 -22 -45 -81 -34 -40 -65 -72 -70 -72 -4 0 -50 11
-102 25 -51 13 -140 30 -198 37 l-105 13 -3 89 -3 89 94 -6 c52 -4 130 -14
173 -22z m486 -172 c94 -49 204 -127 200 -142 -1 -7 1 -10 6 -7 12 7 54 -23
47 -35 -3 -5 0 -6 8 -3 14 5 123 -104 113 -114 -6 -5 -186 -65 -232 -76 -21
-6 -25 -4 -21 8 4 9 3 15 -1 14 -4 -1 -30 20 -58 48 -62 62 -157 130 -244 175
-36 18 -67 34 -69 36 -2 1 26 36 63 77 76 86 64 84 188 19z m-1463 34 c6 -8 7
-18 3 -22 -4 -5 -2 -5 4 -2 11 6 111 -99 103 -107 -2 -2 -33 -18 -69 -36 -36
-18 -77 -41 -92 -51 -30 -22 -42 -24 -32 -6 5 8 2 8 -9 -2 -18 -15 -23 -26 -7
-16 6 3 10 4 10 2 0 -11 -103 -82 -113 -79 -7 2 -9 0 -4 -4 10 -10 -33 -55
-46 -47 -6 3 -7 1 -3 -6 4 -7 -2 -15 -16 -20 -13 -6 -17 -10 -9 -10 8 -1 12
-4 9 -7 -9 -8 -118 28 -118 38 0 5 -4 7 -9 4 -4 -3 -34 2 -65 11 l-57 16 32
33 c18 18 36 31 41 28 5 -3 7 0 6 8 -2 7 3 12 10 10 8 -1 11 2 8 7 -8 13 103
103 116 94 6 -3 8 -1 5 4 -9 14 40 46 55 37 6 -4 8 -3 5 4 -4 6 26 29 70 55
145 84 153 86 172 64z m586 -116 c-3 -5 5 -11 17 -13 19 -2 24 -10 26 -46 2
-31 0 -42 -10 -41 -21 4 -106 -10 -190 -33 l-78 -20 -27 33 c-52 60 -57 70
-43 79 13 8 152 36 215 43 61 8 96 7 90 -2z m338 -12 c32 -7 60 -15 63 -20 2
-4 10 -6 17 -3 8 3 24 0 38 -6 l24 -10 -27 3 c-28 4 -46 -17 -26 -29 6 -4 8
-3 4 4 -4 7 1 10 14 9 18 -1 18 -3 6 -22 -8 -11 -19 -19 -25 -18 -6 2 -8 -3
-5 -11 3 -7 -2 -18 -10 -25 -11 -9 -31 -7 -92 9 -43 11 -88 20 -101 20 -13 0
-23 3 -23 8 0 4 -15 7 -32 7 -32 0 -33 2 -36 43 -3 33 0 42 13 42 9 0 13 4 10
10 -7 12 103 5 188 -11z m332 -130 c-3 -4 3 -6 13 -5 9 0 16 -4 15 -10 -1 -7
5 -11 15 -10 9 0 16 -5 14 -12 -1 -8 3 -12 10 -9 7 2 29 -7 48 -21 45 -33 112
-92 104 -92 -4 0 -1 -6 5 -14 15 -18 11 -20 -79 -50 l-72 -23 -46 49 c-25 27
-72 65 -104 85 -32 20 -58 40 -58 45 0 5 -4 7 -9 4 -4 -3 -16 1 -26 8 -17 12
-16 16 25 64 l43 50 53 -26 c29 -14 51 -29 49 -33z m-1059 34 c9 -14 10 -21 1
-33 -10 -13 -10 -13 4 -3 13 11 20 8 45 -18 24 -25 26 -31 14 -39 -8 -5 -18
-10 -23 -10 -4 0 -25 -11 -47 -25 -22 -14 -40 -23 -40 -21 0 3 -31 -26 -70
-63 -55 -52 -73 -65 -86 -58 -13 7 -15 6 -9 -3 6 -9 4 -12 -6 -8 -8 3 -45 15
-84 28 -38 12 -74 26 -78 30 -16 14 149 147 241 194 18 9 38 14 44 10 6 -4 8
-3 4 4 -17 29 69 43 90 15z m2159 -178 c61 -14 112 -30 113 -35 2 -6 8 -8 13
-5 5 3 27 1 49 -5 l40 -11 0 -74 c0 -41 -3 -75 -6 -75 -14 0 -270 65 -274 69
-3 4 -13 6 -22 7 -61 3 -58 -3 -58 89 0 78 1 84 18 76 9 -5 67 -21 127 -36z
m-3226 -44 c-2 -77 -3 -79 -28 -84 -14 -3 -57 -13 -95 -21 -38 -9 -79 -14 -90
-11 -14 4 -17 3 -8 -3 8 -6 -10 -14 -57 -25 -38 -9 -72 -17 -75 -17 -3 0 -6
34 -6 75 l0 74 43 11 c23 6 89 24 147 40 91 24 119 31 163 39 4 0 7 -35 6 -78z
m191 58 c8 -5 10 -9 4 -9 -6 0 -11 -7 -11 -15 0 -18 13 -20 20 -2 3 6 6 -21 6
-60 1 -67 -1 -73 -19 -73 -11 0 -20 5 -20 11 0 5 -5 7 -11 4 -6 -4 -25 -4 -42
-1 -32 6 -32 6 -35 76 -2 39 0 75 4 81 7 11 78 3 104 -12z m2799 -58 l2 -80
-35 -7 c-20 -3 -48 -3 -63 0 -21 5 -24 4 -13 -4 12 -8 12 -10 -6 -10 -17 0
-21 7 -23 46 -1 33 3 53 16 67 16 20 16 20 1 8 -16 -12 -18 -11 -18 14 0 24 3
27 25 23 14 -3 25 -2 25 3 0 8 27 15 66 18 20 1 21 -4 23 -78z m-1774 -9 c-15
-13 -34 -21 -42 -18 -9 4 -11 2 -7 -6 5 -8 2 -9 -10 -5 -9 4 -15 3 -12 -1 3
-5 -14 -28 -38 -51 -43 -43 -43 -43 -85 -30 -22 7 -41 16 -41 21 0 5 -6 6 -12
2 -7 -4 0 7 15 23 43 46 134 106 148 97 7 -4 9 -3 6 3 -4 6 8 18 26 27 31 15
33 15 56 -11 l23 -27 -27 -24z m716 57 c27 -13 39 -25 35 -35 -3 -8 1 -14 10
-14 10 0 12 5 8 13 -5 6 3 4 16 -5 14 -9 24 -22 22 -28 -1 -6 2 -9 7 -6 12 8
71 -41 71 -58 0 -7 -19 -21 -42 -30 l-43 -17 -28 31 c-15 17 -25 34 -23 39 3
4 0 8 -7 8 -21 0 -67 35 -60 46 3 5 1 7 -4 4 -6 -4 -23 -1 -37 7 -25 13 -25
13 -7 30 15 14 20 14 25 4 3 -7 3 -3 0 10 -7 28 5 28 57 1z m838 -95 c1 -44
-1 -64 -8 -59 -6 3 -11 2 -11 -3 0 -9 -17 -13 -135 -32 -33 -6 -70 -13 -83
-15 -22 -5 -23 -4 -21 53 l2 60 93 27 c51 15 98 24 105 20 8 -5 10 -4 5 3 -4
7 -1 12 9 12 9 0 13 -4 10 -10 -3 -6 1 -7 9 -4 9 3 13 11 9 17 -3 5 -2 7 4 4
5 -3 11 -36 12 -73z m-2339 32 c58 -19 97 -35 88 -35 -19 -1 -24 -16 -9 -26 5
-3 17 2 25 11 18 17 18 17 20 -53 1 -39 -5 -40 -114 -17 -41 9 -88 16 -105 17
-30 2 -30 3 -33 64 -3 56 -1 62 14 56 12 -4 15 -3 10 5 -9 15 -18 17 104 -22z
m1280 -16 c75 -25 90 -33 83 -42 -3 -6 0 -8 8 -6 20 7 63 -17 93 -52 14 -18
26 -28 26 -24 0 4 7 -1 15 -12 20 -26 22 -738 3 -751 -13 -7 -780 -12 -805 -5
-10 3 -13 85 -13 363 l0 359 40 44 c46 50 138 102 225 128 47 14 85 17 175 14
63 -2 131 -9 150 -16z m707 -63 c0 -7 3 -24 6 -39 9 -34 -3 -42 -84 -56 -103
-18 -110 -17 -107 18 2 31 2 31 123 74 51 18 62 19 62 3z m-2417 -1227 l-1
-1150 -130 0 c-127 0 -129 0 -129 23 -9 851 -10 2206 -1 2211 6 4 53 18 104
31 84 21 93 22 99 7 6 -16 7 -16 7 0 1 14 14 22 44 27 4 0 7 -516 7 -1149z
m163 1135 l47 -6 0 -937 c0 -1058 10 -935 -83 -1060 l-45 -61 -1 1038 c-1 980
0 1039 17 1036 9 -2 38 -7 65 -10z m2827 -1017 l0 -1032 -62 89 c-46 67 -64
101 -68 135 -3 25 -7 444 -8 932 l-3 887 38 6 c21 4 43 8 48 10 6 2 20 4 32 4
l23 1 0 -1032z m234 997 c38 -9 80 -21 93 -26 l23 -9 0 -332 c0 -219 -4 -328
-10 -318 -6 9 -10 10 -10 3 0 -6 5 -15 10 -18 15 -9 13 -1534 -1 -1552 -8 -9
-44 -13 -130 -13 l-119 0 0 1149 0 1149 38 -9 c20 -4 68 -15 106 -24z m-2787
-22 c106 -17 112 -19 116 -43 4 -20 2 -1236 -2 -1306 -1 -17 -153 -242 -228
-338 l-23 -29 0 867 c0 686 3 866 13 866 6 0 62 -8 124 -17z m2323 11 c-12 -4
-14 -18 -10 -72 l4 -67 6 65 c5 48 7 28 8 -75 0 -77 -3 -131 -7 -121 -6 17 -8
17 -14 4 -3 -9 -3 -26 0 -39 6 -22 7 -22 14 -3 4 10 7 -53 6 -141 0 -129 -2
-144 -7 -80 l-6 80 -3 -67 c-3 -85 -3 -196 0 -205 1 -5 5 19 9 52 4 33 7 -187
8 -490 1 -542 1 -550 -18 -525 -10 14 -67 93 -126 175 l-108 150 -3 663 c-3
420 0 662 6 658 5 -3 11 -2 13 2 3 8 174 39 218 40 14 0 18 -2 10 -4z m-2022
-60 c28 -3 52 -10 52 -14 0 -5 10 -6 23 -4 20 4 20 4 2 -5 -12 -5 -24 -5 -29
0 -14 13 -46 11 -46 -2 0 -6 7 -9 15 -5 8 3 15 1 15 -5 0 -6 14 -8 36 -5 19 4
33 3 30 -2 -8 -13 -11 -760 -3 -768 4 -4 7 -27 7 -51 0 -34 -8 -57 -36 -99
-19 -29 -40 -52 -46 -51 -6 1 -14 -10 -18 -24 -4 -14 -27 -53 -52 -87 l-44
-61 -1 84 c0 48 5 85 10 85 5 0 4 6 -2 14 -9 11 -9 20 -2 34 6 11 8 22 5 25
-9 9 -11 109 -3 139 4 15 4 30 0 33 -8 4 -5 379 3 420 2 11 1 24 -2 29 -3 5
-7 74 -9 154 -3 129 -2 146 14 159 10 8 13 12 6 9 -6 -4 -15 -1 -19 5 -5 8 0
10 17 6 13 -3 48 -9 77 -13z m1686 0 c10 -27 6 -454 -5 -454 -5 0 -9 -5 -9
-11 0 -5 3 -8 8 -6 11 8 13 -55 1 -69 -5 -7 -6 -15 -1 -17 8 -6 17 -607 8
-607 -3 0 -48 60 -100 133 l-96 134 1 427 c1 381 2 428 17 433 13 6 13 7 -3
13 -12 4 14 12 70 22 50 9 93 16 96 17 4 0 10 -6 13 -15z m-1419 -42 l25 -2 0
-301 c0 -224 -3 -298 -12 -293 -7 4 -8 3 -4 -4 9 -15 -12 -54 -25 -47 -5 4 -9
3 -8 -2 3 -17 -2 -29 -22 -53 -11 -14 -17 -19 -13 -11 4 9 3 12 -4 7 -6 -4 -9
-13 -6 -20 3 -8 1 -17 -5 -21 -14 -8 -15 50 -1 76 7 13 7 19 0 19 -7 0 -10
109 -10 329 l0 328 30 -2 c17 -1 41 -2 55 -3z m1144 -368 l-3 -376 -33 38
c-18 22 -31 45 -28 52 3 7 1 11 -4 8 -5 -3 -16 5 -25 19 -14 21 -16 65 -16
324 l0 300 28 4 c15 2 40 5 55 6 l29 1 -3 -376z m-35 -477 c38 -50 44 -63 24
-51 -8 4 -10 3 -5 -2 5 -5 14 -9 20 -9 7 0 11 -8 11 -17 -1 -10 3 -16 8 -15 5
1 17 -9 26 -23 16 -24 16 -25 -3 -11 -11 8 -6 1 10 -15 37 -35 85 -97 85 -110
0 -5 -5 -1 -11 9 -5 9 -15 17 -20 17 -6 0 -3 -8 7 -17 10 -10 20 -17 23 -16
13 3 32 -21 27 -34 -3 -8 -2 -12 3 -9 12 8 34 -21 26 -34 -3 -5 1 -10 9 -10
15 0 21 -12 17 -33 -1 -5 2 -6 7 -3 14 8 48 -65 51 -107 3 -36 1 -38 -21 -33
l-23 6 23 -11 c15 -8 22 -21 22 -41 0 -15 -2 -28 -4 -28 -10 0 -156 281 -151
290 3 6 -1 13 -10 16 -22 9 -80 124 -63 125 7 0 4 4 -7 9 -11 4 -43 52 -74
111 -29 57 -51 102 -48 99 3 -3 21 -26 41 -53z m-1204 -107 c-6 -11 -14 -20
-18 -20 -4 0 -8 -8 -9 -17 -2 -29 -89 -184 -98 -176 -4 5 -5 2 -1 -4 9 -16
-24 -74 -37 -66 -6 3 -7 1 -3 -5 4 -6 -14 -51 -38 -101 -45 -88 -66 -116 -66
-87 0 8 5 18 10 21 6 4 7 12 3 18 -11 19 -12 56 -1 63 7 4 6 9 -1 13 -8 5 2
28 29 70 23 35 45 59 51 56 6 -4 9 -1 7 6 -3 13 38 89 48 89 3 0 2 -6 -2 -12
-4 -7 -3 -9 1 -5 5 4 10 14 11 22 4 26 45 75 57 69 7 -4 9 -4 5 1 -10 11 33
85 49 85 11 0 11 -5 3 -20z m1654 -521 c27 -37 42 -67 39 -77 -4 -9 -2 -13 4
-9 14 9 37 -19 27 -34 -4 -7 -3 -9 3 -6 14 9 37 -19 28 -33 -4 -6 -1 -9 6 -8
6 2 14 -3 17 -11 3 -8 0 -11 -7 -7 -6 4 -11 2 -11 -4 0 -7 7 -10 15 -6 16 6
79 -76 68 -88 -4 -3 -1 -6 5 -6 9 0 12 -48 12 -172 l0 -173 -20 38 c-11 21
-17 43 -14 49 4 6 3 9 -2 5 -12 -7 -177 310 -168 325 4 6 3 8 -3 5 -6 -4 -20
15 -32 44 -18 42 -22 67 -20 140 2 49 4 89 6 89 1 0 23 -27 47 -61z m-2006
-56 c-5 -87 -31 -169 -50 -157 -5 3 -8 -1 -6 -9 4 -21 -64 -157 -75 -150 -6 3
-7 1 -3 -5 9 -14 -65 -163 -77 -155 -6 3 -8 2 -5 -3 4 -5 -4 -29 -17 -54 l-23
-45 -1 165 -2 166 34 44 c18 25 64 87 101 138 38 50 72 92 77 92 5 0 8 3 7 8
-4 12 22 52 34 52 7 0 9 -28 6 -87z m2376 -457 l56 -78 0 -165 0 -164 -31 3
c-27 3 -36 12 -70 78 l-40 75 2 150 c1 154 6 203 19 188 5 -4 33 -43 64 -87z
m-2757 -345 c-25 -43 -39 -57 -60 -59 l-27 -3 1 161 2 162 56 79 56 78 3 -181
2 -181 -33 -56z m-229 90 l52 -1 0 -74 0 -74 -159 -1 -159 -2 -7 70 c-4 38 -4
74 -1 80 4 6 49 9 114 7 59 -2 131 -4 160 -5z m3458 -76 l-1 -75 -162 0 -163
0 0 75 0 75 164 0 164 0 -2 -75z"/>
</g>
</svg>
