<?xml version="1.0" standalone="no"?>
<!DOCTYPE svg PUBLIC "-//W3C//DTD SVG 20010904//EN" "http://www.w3.org/TR/2001/REC-SVG-20010904/DTD/svg10.dtd">
<svg xmlns="http://www.w3.org/2000/svg" version="1.0" width="1024.000000pt" height="1024.000000pt" viewBox="0 0 1024.000000 1024.000000" preserveAspectRatio="xMidYMid meet">
<metadata>
Created by potrace 1.16, written by Peter Selinger 2001-2019
<meta name="Producer" content="Online-Convert"/></metadata>
<g transform="translate(0.000000,1024.000000) scale(0.100000,-0.100000)" fill="#000000" stroke="none">
<path d="M5065 8387 c-99 -28 -169 -60 -353 -159 -79 -42 -180 -92 -225 -110 -75 -30 -91 -32 -192 -32 -98 0 -120 4 -205 33 -128 45 -188 49 -265 21 -119 -45 -245 -207 -308 -400 -29 -86 -57 -241 -57 -311 0 -26 -4 -50 -8 -53 -4 -2 -48 6 -97 20 -197 52 -305 14 -333 -119 -23 -110 13 -192 141 -325 100 -104 148 -188 151 -262 0 -21 3 -36 5 -34 2 2 19 -41 37 -96 85 -252 235 -469 423 -608 73 -54 272 -162 299 -162 7 0 10 -5 6 -12 -4 -6 -3 -8 4 -5 5 4 57 -4 114 -18 144 -34 287 -47 465 -43 94 2 156 -1 162 -7 11 -11 35 -197 46 -347 28 -381 -29 -851 -160 -1335 -80 -294 -252 -710 -403 -973 -114 -199 -327 -484 -551 -735 -71 -81 -87 -120 -58 -142 20 -16 52 -21 62 -9 6 6 46 52 91 101 44 50 91 104 105 121 13 17 87 109 163 205 77 96 173 217 215 269 155 195 417 485 458 508 24 13 33 28 11 17 -22 -11 74 75 119 106 59 41 205 110 221 104 7 -2 11 -1 8 4 -7 11 145 56 259 77 119 22 347 14 453 -14 85 -23 203 -78 282 -130 71 -46 191 -162 183 -175 -3 -6 -1 -7 5 -3 6 3 16 -3 22 -14 18 -34 55 -53 79 -40 31 16 36 54 12 93 -28 45 -142 153 -221 209 -244 172 -552 234 -860 171 -90 -18 -254 -69 -290 -91 -14 -8 67 77 180 190 l205 205 181 6 c118 4 225 14 305 28 68 13 134 23 146 23 12 1 20 3 18 5 -3 2 40 18 94 37 178 59 358 160 492 275 31 27 60 45 64 41 5 -4 5 -2 2 4 -3 6 10 26 29 45 94 89 218 263 307 429 82 152 194 454 228 612 7 33 16 55 22 51 6 -3 7 -1 3 5 -3 6 0 42 8 79 27 127 27 132 6 153 -26 26 -48 25 -211 -4 -291 -54 -554 -137 -820 -262 -169 -79 -239 -120 -369 -215 -57 -41 -107 -73 -111 -71 -5 1 -8 -2 -7 -6 2 -5 -33 -45 -77 -89 -151 -150 -268 -340 -335 -544 -44 -133 -62 -243 -66 -407 l-4 -143 -103 -103 c-56 -56 -180 -184 -276 -284 -96 -100 -178 -179 -184 -175 -6 4 -7 1 -2 -6 9 -16 -133 -163 -148 -154 -6 3 -7 1 -3 -6 5 -7 -11 -32 -41 -64 -27 -29 -57 -64 -67 -79 -10 -16 -22 -28 -27 -28 -5 0 13 42 40 93 100 188 220 526 294 827 122 498 160 896 122 1290 -10 102 -19 199 -21 215 -1 17 -5 38 -9 49 -11 26 5 32 93 39 452 37 646 91 875 246 127 86 266 252 333 397 43 95 100 280 134 439 55 260 84 359 155 530 62 149 50 266 -37 357 -19 21 -33 40 -32 43 2 3 1 3 -2 1 -3 -3 -34 11 -68 29 -92 51 -177 67 -328 63 l-128 -3 -35 73 c-112 234 -273 388 -484 464 -88 32 -253 34 -356 5z m357 -120 c166 -63 308 -207 392 -398 l25 -56 -41 -12 c-66 -20 -183 -77 -258 -125 -39 -25 -75 -46 -80 -46 -6 0 -27 17 -48 38 -21 21 -72 61 -114 89 -42 28 -74 54 -70 59 4 4 2 5 -3 1 -6 -3 -49 8 -95 25 -76 28 -97 31 -200 31 -102 0 -124 -3 -201 -30 -104 -36 -200 -88 -277 -150 -31 -25 -62 -50 -69 -55 -7 -6 -35 -1 -74 11 -134 45 -248 20 -314 -67 -48 -62 -66 -127 -72 -264 -3 -65 -8 -118 -10 -118 -2 0 -13 5 -24 11 -11 6 -86 33 -167 61 -81 27 -149 52 -151 54 -2 2 2 10 9 19 7 8 9 15 5 15 -4 0 -14 -8 -21 -17 -36 -48 2 213 56 377 55 167 151 296 241 320 50 14 153 5 143 -12 -4 -6 -2 -8 4 -4 6 3 51 -6 102 -20 80 -23 104 -26 203 -22 146 6 217 31 457 159 264 140 326 160 485 155 77 -3 116 -10 167 -29z m-327 -527 c70 -27 167 -84 231 -137 l46 -37 -27 -23 c-14 -13 -31 -20 -37 -17 -6 4 -8 2 -5 -3 4 -6 -19 -33 -50 -59 -32 -27 -86 -75 -121 -106 l-63 -57 -107 54 c-59 30 -195 95 -302 144 -107 50 -189 91 -182 91 7 0 24 11 39 24 41 38 195 115 275 136 95 26 217 22 303 -10z m1140 -8 c96 -24 194 -80 179 -103 -4 -8 -3 -10 4 -5 15 9 46 -39 38 -59 -4 -11 -2 -14 6 -9 8 5 9 -9 5 -52 -6 -65 -48 -179 -62 -167 -4 5 -5 2 -1 -4 4 -7 -5 -45 -19 -85 -15 -40 -58 -203 -96 -363 -77 -319 -126 -460 -196 -564 -56 -83 -160 -189 -238 -246 -110 -79 -308 -166 -337 -149 -6 4 -8 3 -5 -3 4 -6 -7 -13 -26 -16 -17 -4 -63 -13 -101 -22 -74 -16 -97 -14 -47 3 17 6 61 41 98 78 38 37 71 67 76 66 4 -1 6 1 5 5 -1 5 22 44 51 88 65 99 159 289 205 415 141 383 227 900 192 1147 l-8 52 39 4 c77 8 179 4 238 -11z m-369 -79 c9 -75 -1 -293 -20 -418 -49 -321 -144 -635 -262 -872 -117 -235 -225 -358 -384 -437 -50 -24 -90 -43 -90 -41 0 1 6 15 14 30 25 48 39 163 32 266 -16 247 -119 447 -299 580 -45 34 -84 65 -85 70 -2 5 -8 7 -13 3 -5 -3 -9 0 -9 6 0 6 -5 8 -11 4 -33 -20 10 25 131 137 180 168 206 190 214 181 4 -4 6 -2 4 3 -5 17 261 248 417 362 95 69 307 181 347 183 4 0 10 -26 14 -57z m-1603 -103 c71 -22 237 -92 392 -165 55 -26 151 -72 213 -101 l113 -53 -78 -73 c-43 -40 -121 -115 -174 -166 l-97 -93 -48 24 c-27 13 -115 53 -196 87 -87 37 -145 67 -141 73 3 6 1 7 -6 3 -7 -4 -59 11 -116 35 l-104 43 -3 70 c-6 148 28 271 85 309 47 31 78 32 160 7z m-788 -304 c330 -111 735 -265 870 -330 28 -14 93 -43 146 -66 378 -162 546 -365 566 -681 8 -136 -28 -276 -80 -308 -60 -38 -453 -54 -635 -26 -476 73 -781 356 -921 855 -46 163 -80 228 -175 327 -94 99 -125 151 -126 211 -1 105 85 109 355 18z m3792 -1483 c-3 -10 -15 -64 -28 -120 -13 -61 -26 -100 -32 -96 -6 3 -7 1 -3 -6 8 -13 -39 -172 -86 -291 -46 -118 -140 -300 -151 -293 -6 3 -7 1 -3 -5 8 -13 -83 -156 -157 -246 -272 -328 -621 -490 -1127 -521 -103 -7 -113 -6 -102 8 8 9 21 13 30 10 13 -3 14 -2 4 4 -10 7 4 25 55 69 37 32 124 109 193 170 69 61 224 196 345 299 121 104 285 245 365 314 255 218 276 244 232 282 -24 21 -44 12 -112 -47 -30 -26 -93 -79 -140 -118 -105 -87 -324 -274 -449 -383 -52 -45 -98 -80 -103 -77 -5 3 -7 1 -6 -4 2 -5 -55 -60 -127 -123 -71 -62 -177 -157 -234 -210 -69 -65 -109 -96 -120 -92 -11 3 -12 2 -3 -4 9 -7 6 -15 -13 -31 l-25 -22 0 49 c0 124 59 372 121 509 69 154 288 430 329 417 10 -3 21 -1 25 4 4 7 -1 9 -12 5 -30 -9 67 73 157 133 262 177 633 321 1045 408 136 29 137 29 132 8z"/>
<path d="M2760 5593 c-8 -3 -18 -11 -22 -17 -10 -15 -10 -64 0 -70 4 -2 61 -12 127 -21 191 -26 307 -58 425 -118 59 -30 104 -59 102 -66 -1 -7 2 -10 7 -7 18 11 185 -139 174 -157 -3 -6 -1 -7 4 -4 25 16 139 -182 233 -403 103 -242 210 -428 327 -566 23 -28 40 -54 36 -58 -4 -4 0 -4 9 -1 9 4 19 2 23 -4 11 -19 44 -12 60 13 19 29 9 59 -34 100 -16 16 -28 34 -24 39 3 6 1 7 -4 4 -16 -10 -153 200 -217 333 -31 63 -81 173 -111 244 -68 162 -123 257 -205 359 -170 212 -400 338 -705 386 -89 14 -188 21 -205 14z"/>
</g>
</svg>
