<?xml version="1.0" standalone="no"?>
<!DOCTYPE svg PUBLIC "-//W3C//DTD SVG 20010904//EN" "http://www.w3.org/TR/2001/REC-SVG-20010904/DTD/svg10.dtd">
<svg xmlns="http://www.w3.org/2000/svg" version="1.0" width="1024.000000pt" height="1024.000000pt" viewBox="0 0 1024.000000 1024.000000" preserveAspectRatio="xMidYMid meet">
<metadata>
Created by potrace 1.16, written by Peter Selinger 2001-2019
<meta name="Producer" content="Online-Convert"/></metadata>
<g transform="translate(0.000000,1024.000000) scale(0.100000,-0.100000)" fill="#000000" stroke="none">
<path d="M6820 8615 c0 -6 -64 -11 -169 -11 -92 -1 -177 -6 -187 -12 -11 -5 -46 -13 -79 -17 -33 -3 -66 -11 -73 -17 -7 -6 -15 -8 -19 -5 -3 4 -14 2 -24 -4 -13 -6 -19 -6 -19 1 0 5 -4 10 -10 10 -5 0 -7 -6 -4 -13 3 -9 -14 -19 -58 -31 -77 -21 -208 -76 -208 -88 0 -5 -4 -6 -10 -3 -5 3 -10 1 -10 -5 0 -6 -4 -9 -9 -5 -5 3 -16 -2 -24 -10 -9 -8 -20 -15 -24 -15 -5 0 -18 -8 -29 -18 -26 -23 -71 -52 -83 -52 -8 0 -29 -18 -148 -131 -60 -57 -143 -149 -143 -158 0 -4 -13 -20 -30 -36 -16 -16 -30 -33 -30 -38 0 -5 -16 -32 -35 -59 -20 -27 -57 -91 -84 -143 -27 -51 -51 -92 -53 -90 -2 2 -4 -4 -5 -13 -1 -9 -28 -73 -61 -142 -33 -69 -72 -152 -87 -185 -16 -33 -31 -62 -35 -65 -4 -3 -18 -30 -32 -60 -14 -30 -37 -70 -52 -89 -14 -19 -26 -39 -26 -44 0 -6 -11 -25 -25 -43 -14 -18 -25 -37 -25 -43 0 -6 -9 -16 -20 -23 -11 -7 -20 -18 -20 -24 0 -5 -8 -19 -18 -30 -10 -10 -31 -37 -47 -59 -46 -62 -48 -64 -80 -100 -51 -56 -110 -128 -113 -137 -2 -4 -8 -8 -13 -8 -6 0 -7 4 -4 10 3 6 -1 7 -10 3 -11 -4 -13 -8 -6 -13 19 -11 -53 -80 -78 -75 -12 2 -19 0 -16 -6 4 -5 12 -6 18 -3 7 4 -1 -7 -17 -24 -16 -18 -37 -34 -47 -37 -10 -3 -21 -15 -24 -25 -6 -18 -40 -37 -58 -32 -5 1 -6 -1 -4 -5 3 -5 -9 -20 -26 -35 -81 -69 -120 -98 -128 -98 -6 0 -26 -11 -46 -25 -20 -13 -41 -21 -46 -18 -6 3 -7 2 -4 -4 4 -5 -6 -16 -21 -23 -15 -7 -34 -16 -42 -21 -100 -56 -126 -69 -137 -65 -7 3 -13 -2 -13 -10 0 -8 -4 -13 -9 -9 -5 3 -12 1 -16 -5 -4 -6 -11 -8 -16 -5 -5 4 -9 2 -9 -3 0 -9 -47 -27 -62 -24 -4 1 -19 -5 -34 -13 -29 -15 -49 -11 -38 7 4 7 2 8 -4 4 -7 -4 -12 -2 -12 5 0 7 -3 9 -6 6 -4 -4 -1 -13 6 -22 7 -8 10 -16 6 -16 -13 -3 -26 -7 -31 -9 -3 -1 -8 -3 -12 -4 -5 -1 -14 -5 -20 -9 -7 -5 -17 -6 -21 -3 -4 2 -14 1 -22 -4 -8 -5 -22 -4 -33 2 -14 7 -17 7 -13 -1 4 -6 4 -11 -1 -12 -4 0 -17 -3 -28 -5 -11 -3 -36 -7 -55 -10 -19 -2 -51 -7 -70 -10 -58 -9 -271 -10 -340 -1 -36 5 -76 10 -90 11 -56 6 -115 19 -148 33 -19 8 -37 12 -40 9 -3 -3 -11 -1 -19 5 -7 6 -13 9 -13 5 0 -4 -13 0 -30 9 -16 8 -32 16 -35 16 -25 1 -273 121 -305 148 -14 12 -45 38 -70 59 -75 63 -150 144 -143 155 3 5 1 7 -5 3 -6 -3 -21 8 -33 26 -13 18 -27 35 -31 36 -4 2 -8 12 -8 22 0 10 -5 22 -10 25 -17 10 -89 160 -92 191 -2 16 -7 32 -13 36 -5 4 -11 15 -13 25 -1 10 -7 47 -12 83 -22 139 -16 391 9 376 3 -2 6 12 5 32 -1 19 5 47 12 61 8 14 14 31 14 38 0 25 65 153 118 233 58 87 197 234 233 245 10 4 19 11 19 16 0 5 6 9 14 9 8 0 16 7 19 15 4 8 15 12 27 10 12 -2 18 0 15 6 -4 5 15 19 42 30 26 11 64 27 83 35 19 9 44 20 55 25 11 5 29 11 40 14 11 2 35 8 53 14 23 7 32 6 32 -2 0 -8 3 -9 8 -1 4 6 26 15 49 21 36 9 44 8 62 -11 12 -11 21 -15 21 -8 0 6 -5 12 -12 12 -26 0 9 18 45 23 29 4 39 2 44 -9 4 -10 8 -12 12 -5 10 16 142 18 166 2 14 -9 15 -11 3 -7 -11 3 -15 0 -12 -7 2 -7 21 -13 41 -14 36 -1 36 -1 12 13 -13 7 -19 13 -12 14 14 0 112 -20 133 -28 8 -3 17 -6 20 -7 3 -1 16 -6 30 -12 14 -6 33 -14 42 -17 9 -2 15 -13 14 -23 -2 -10 -1 -12 1 -5 3 6 7 12 10 12 16 0 93 -52 88 -59 -2 -5 3 -8 13 -7 10 0 16 -5 14 -14 -2 -8 0 -12 4 -8 7 8 62 -27 81 -52 6 -8 9 -19 6 -24 -4 -5 -2 -6 4 -3 14 9 75 -53 69 -70 -3 -7 -2 -12 3 -10 10 3 61 -57 61 -71 0 -6 4 -12 8 -14 5 -1 23 -39 41 -82 42 -107 78 -308 51 -291 -5 3 -10 1 -10 -4 0 -6 6 -11 13 -11 8 0 7 -4 -3 -10 -8 -5 -10 -10 -5 -10 13 0 7 -79 -8 -120 -3 -8 -8 -24 -10 -35 -15 -56 -55 -136 -87 -175 -119 -142 -249 -221 -390 -236 -25 -3 -54 -7 -65 -9 -30 -4 -188 31 -241 54 -49 22 -128 80 -120 89 3 2 -5 13 -18 23 -21 16 -52 75 -63 119 -20 76 24 185 93 233 35 24 91 45 130 49 6 1 11 6 12 12 0 6 2 28 4 48 3 20 1 35 -4 32 -4 -3 -11 2 -14 11 -5 13 -19 16 -68 14 -77 -3 -117 -20 -180 -75 -28 -24 -60 -45 -71 -45 -16 -1 -17 -2 -3 -6 10 -2 15 -10 11 -19 -3 -7 -10 -11 -16 -7 -6 3 -7 1 -3 -5 4 -6 2 -21 -4 -33 -20 -36 -25 -71 -25 -169 1 -85 4 -102 32 -162 17 -36 28 -70 25 -75 -4 -4 -3 -5 2 -1 11 9 67 -53 59 -66 -3 -5 -2 -6 4 -3 6 4 21 -5 33 -18 13 -14 29 -25 37 -25 7 0 13 -7 13 -17 0 -9 3 -13 7 -10 3 4 20 -2 37 -12 17 -10 59 -27 94 -37 34 -10 57 -21 51 -25 -6 -3 8 -6 32 -6 24 1 71 0 104 -2 33 -1 89 1 125 5 36 4 79 7 96 7 19 0 30 5 28 11 -5 14 102 50 119 40 6 -4 9 -4 5 1 -9 10 8 25 52 48 19 10 58 39 86 65 28 26 57 46 64 44 7 -3 10 0 6 6 -4 7 12 35 35 64 41 52 109 180 109 206 0 7 5 10 12 6 7 -4 8 -3 4 4 -4 6 0 44 8 84 15 71 19 369 5 346 -5 -8 -12 11 -25 75 -2 10 -16 43 -30 73 -14 29 -22 59 -18 65 4 8 3 9 -4 5 -7 -4 -12 -3 -12 3 0 6 -25 48 -56 93 -53 77 -204 238 -224 238 -5 0 -15 6 -22 13 -7 6 -25 18 -40 26 -14 7 -29 22 -31 33 -3 11 -10 17 -15 14 -11 -7 -72 15 -72 26 0 4 -10 8 -23 8 -13 0 -27 3 -31 8 -4 4 -12 8 -17 8 -5 1 -11 3 -14 4 -3 1 -9 4 -15 5 -24 6 -24 7 0 15 19 5 11 8 -30 8 -30 1 -66 3 -80 6 -14 3 -41 8 -60 12 -47 10 -270 11 -350 1 -60 -6 -104 -15 -170 -32 -14 -3 -36 -8 -48 -11 -13 -3 -34 -11 -45 -19 -12 -8 -34 -16 -50 -19 -59 -10 -286 -155 -366 -233 -19 -18 -38 -30 -44 -26 -6 3 -7 2 -4 -4 3 -5 -14 -32 -38 -59 -25 -27 -45 -52 -45 -56 0 -3 -11 -19 -24 -35 -34 -41 -108 -184 -141 -273 -1 -3 -7 -17 -12 -31 -13 -30 -23 -77 -29 -139 -2 -25 -9 -63 -15 -85 -5 -22 -8 -97 -6 -167 3 -73 1 -125 -4 -122 -5 3 -9 -2 -9 -10 0 -9 6 -15 13 -13 7 1 13 -12 15 -33 2 -19 8 -40 13 -47 7 -7 6 -14 -2 -19 -8 -4 -9 -3 -5 4 4 7 2 12 -3 12 -16 0 -13 -20 3 -26 11 -4 30 -47 27 -61 0 -2 7 -19 15 -39 8 -20 10 -33 5 -29 -6 3 -11 1 -11 -4 0 -6 5 -11 10 -11 6 0 18 -17 28 -37 9 -21 20 -40 23 -43 8 -6 24 -53 21 -62 -1 -5 6 -8 16 -8 14 0 15 -2 2 -10 -13 -8 -13 -11 -1 -22 11 -11 13 -11 6 1 -6 10 -4 12 4 7 17 -11 65 -88 66 -106 0 -9 7 -14 18 -12 16 3 21 -8 18 -36 -1 -7 2 -11 6 -10 8 3 38 -22 111 -89 30 -29 86 -70 168 -124 13 -9 21 -18 18 -21 -3 -3 1 -5 8 -5 7 1 51 -17 98 -40 105 -52 143 -68 198 -84 26 -7 42 -18 43 -28 0 -10 2 -12 6 -3 2 6 9 12 14 12 4 0 6 -7 3 -14 -4 -12 1 -14 22 -10 16 3 30 7 32 9 2 2 21 -3 43 -10 21 -8 65 -16 96 -19 116 -11 136 -15 144 -28 7 -11 9 -11 9 0 0 8 7 11 18 8 25 -8 67 -8 157 -2 44 3 106 8 137 10 31 2 61 7 66 10 4 2 26 5 49 4 22 0 49 5 61 11 11 6 27 8 35 5 8 -3 18 0 22 5 3 6 11 9 16 5 5 -3 15 -1 22 4 16 12 58 22 52 12 -3 -5 -1 -12 5 -15 6 -4 9 -1 8 5 -4 16 53 42 122 56 13 3 29 9 35 14 5 4 45 22 88 38 44 17 95 42 115 56 21 13 46 26 57 28 11 2 28 10 38 19 10 9 35 25 55 35 20 11 38 22 40 26 2 4 22 20 45 36 23 16 59 40 80 55 89 61 313 273 399 377 21 25 54 65 74 90 20 25 41 44 46 42 5 -1 7 2 3 8 -3 5 4 20 16 32 12 13 42 55 67 93 25 39 49 72 52 75 4 3 21 29 37 57 16 29 33 51 36 48 4 -3 5 -2 2 1 -8 12 26 65 37 58 7 -4 8 -3 4 4 -7 12 84 193 94 187 3 -2 6 6 6 18 0 12 17 58 38 102 21 44 44 94 51 110 39 92 65 139 149 281 37 61 72 104 80 98 3 -2 4 -1 1 2 -17 24 252 293 278 277 7 -3 9 -3 5 2 -8 8 43 55 60 55 6 0 12 3 14 8 2 4 30 21 63 37 33 17 62 33 65 36 3 3 14 8 25 12 11 3 52 17 90 32 91 35 224 67 285 69 14 1 28 6 32 11 9 12 318 12 393 1 28 -4 56 -8 63 -9 7 0 10 -7 7 -15 -4 -11 -2 -12 7 -5 14 11 40 10 73 -2 11 -4 31 -11 45 -16 14 -5 36 -11 50 -14 14 -3 26 -9 28 -15 2 -5 14 -10 27 -10 13 0 27 -5 30 -10 4 -6 11 -8 16 -5 5 4 9 2 9 -3 0 -5 15 -16 33 -23 17 -7 38 -19 45 -26 7 -7 20 -13 28 -13 8 0 14 -3 14 -7 0 -5 22 -23 50 -42 42 -29 47 -36 34 -45 -13 -10 -13 -12 5 -12 11 0 17 4 15 8 -3 4 -2 8 3 8 23 0 188 -213 178 -230 -3 -5 0 -7 8 -4 10 3 18 -5 26 -27 14 -40 14 -42 -1 -33 -8 4 -10 3 -5 -2 5 -5 12 -9 15 -9 4 0 13 -4 20 -9 11 -6 11 -11 0 -24 -8 -10 -9 -13 -1 -9 7 5 16 -5 24 -28 7 -19 16 -35 20 -35 3 0 9 -17 13 -38 3 -21 12 -51 20 -68 8 -16 17 -43 19 -61 3 -17 8 -36 11 -42 9 -14 16 -78 22 -194 2 -54 5 -101 6 -105 1 -4 -2 -27 -5 -52 -7 -46 -16 -123 -19 -150 0 -8 -5 -20 -10 -26 -4 -6 -6 -19 -2 -28 3 -9 1 -16 -6 -16 -6 0 -8 -4 -5 -10 3 -5 3 -16 -2 -22 -4 -7 -8 -16 -9 -20 -1 -5 -3 -10 -4 -13 -1 -3 -3 -8 -5 -12 -13 -47 -87 -193 -97 -193 -5 0 -6 -4 -3 -10 3 -5 1 -10 -4 -10 -6 0 -11 -6 -11 -14 0 -8 -12 -27 -28 -43 -15 -15 -42 -47 -60 -70 -18 -23 -41 -44 -50 -47 -10 -3 -25 -19 -34 -34 -10 -16 -37 -42 -60 -58 -24 -16 -49 -35 -57 -42 -7 -7 -23 -10 -35 -7 -16 5 -18 4 -6 -4 24 -16 -18 -27 -44 -11 -19 12 -20 11 -8 -2 10 -13 10 -19 -3 -32 -15 -15 -29 -20 -47 -17 -5 0 -8 -3 -8 -9 0 -6 -3 -9 -7 -8 -8 1 -29 -6 -78 -27 -16 -7 -47 -16 -69 -19 -21 -4 -42 -9 -47 -11 -10 -7 -78 -14 -192 -20 -66 -3 -114 1 -185 16 -108 23 -125 27 -132 29 -3 1 -7 2 -10 2 -15 -1 -115 57 -113 66 1 5 -7 7 -19 4 -14 -3 -19 -1 -14 6 5 8 2 10 -8 6 -9 -3 -16 -1 -16 5 0 6 -5 11 -11 11 -13 0 -137 123 -167 167 -13 19 -20 38 -16 45 4 7 4 10 -1 6 -13 -12 -36 21 -61 87 -10 27 -10 26 -18 60 -4 17 -10 37 -14 45 -3 8 -7 20 -7 25 -1 6 -5 27 -10 48 -9 46 9 200 32 277 10 30 32 81 50 113 18 33 33 61 33 63 0 2 8 12 18 22 9 11 37 40 61 66 47 50 175 118 246 131 73 13 183 6 248 -16 66 -22 171 -94 162 -110 -4 -5 -1 -8 5 -7 7 2 27 -24 46 -57 46 -83 54 -183 20 -258 -31 -68 -80 -119 -136 -141 -56 -22 -70 -33 -70 -57 0 -11 -5 -19 -11 -19 -8 0 -7 -5 1 -15 11 -13 10 -15 -1 -12 -8 2 -11 2 -6 0 4 -3 5 -9 2 -14 -4 -5 1 -6 9 -3 9 3 16 2 16 -4 0 -6 -6 -12 -12 -15 -7 -2 -2 -5 12 -5 14 0 37 -3 52 -7 33 -9 119 29 163 71 16 16 36 29 45 29 8 0 15 7 15 15 0 17 43 90 53 90 4 0 8 14 9 30 3 52 6 65 13 75 14 19 11 146 -6 193 -9 26 -17 52 -18 57 -1 6 -13 32 -25 59 -22 47 -140 176 -161 176 -6 0 -10 4 -10 10 0 5 -11 12 -25 16 -14 3 -25 10 -25 15 0 5 -3 8 -7 7 -5 -1 -21 6 -38 16 -16 9 -21 14 -10 11 11 -3 16 -2 11 2 -4 4 -26 9 -49 9 -23 1 -58 5 -77 9 -54 12 -189 6 -244 -10 -60 -18 -59 -18 -51 -2 4 6 1 5 -7 -3 -7 -8 -36 -26 -63 -40 -28 -14 -52 -28 -55 -31 -3 -3 -21 -14 -40 -24 -43 -21 -183 -163 -187 -190 -2 -10 -7 -22 -12 -25 -12 -7 -56 -97 -74 -150 -21 -63 -40 -172 -41 -230 0 -19 -5 -38 -10 -42 -7 -5 -7 -8 -1 -8 6 0 11 -30 13 -67 2 -37 7 -72 11 -78 5 -5 8 -17 9 -25 0 -8 3 -31 7 -50 5 -19 9 -45 9 -57 1 -11 4 -19 9 -16 8 5 23 -55 18 -72 -1 -5 0 -7 4 -3 10 9 26 -9 49 -54 37 -73 151 -194 241 -254 59 -40 120 -75 130 -74 3 0 18 -6 33 -14 29 -15 139 -49 160 -49 6 0 12 -6 12 -14 0 -7 8 -13 18 -13 15 0 15 2 2 11 -12 9 -11 9 5 4 11 -4 82 -9 158 -11 75 -1 142 -6 147 -9 6 -3 10 -2 10 3 0 6 15 12 34 14 26 3 33 1 28 -11 -3 -8 4 -5 16 7 12 12 33 23 47 23 25 1 43 5 48 9 2 2 12 4 77 20 25 6 71 24 104 40 32 16 62 27 67 24 5 -3 9 -1 9 4 0 5 14 15 30 22 17 7 30 16 30 20 0 4 20 17 45 30 25 13 45 27 45 33 0 5 7 6 16 3 8 -3 13 -2 10 3 -3 4 15 26 40 47 109 93 204 210 264 327 18 36 38 63 43 60 6 -3 7 -1 3 5 -3 6 3 33 13 60 11 27 17 53 14 56 -4 3 -1 6 6 6 8 0 11 7 7 15 -3 8 -2 15 3 15 9 0 40 124 46 190 2 25 7 61 10 80 7 45 7 228 0 260 -3 14 -8 52 -11 84 -3 33 -9 67 -14 75 -4 9 -10 30 -13 46 -11 59 -17 85 -27 110 -6 15 -8 36 -6 48 1 12 1 16 -1 9 -5 -14 -32 28 -38 59 -2 9 -13 33 -24 55 -12 21 -18 47 -15 59 4 15 3 16 -4 6 -8 -11 -12 -10 -21 8 -7 12 -9 27 -5 33 4 6 3 8 -3 5 -6 -4 -26 17 -45 46 -40 60 -183 209 -240 251 -21 15 -38 35 -38 44 0 12 -3 13 -8 5 -6 -10 -17 -7 -42 12 -19 14 -38 25 -43 25 -14 0 -58 38 -50 42 5 3 2 3 -5 2 -7 -2 -38 8 -68 21 -31 14 -65 25 -76 25 -15 0 -19 5 -16 18 3 11 0 19 -7 19 -7 0 -11 -6 -8 -13 5 -13 -23 -8 -77 14 -8 3 -19 7 -25 7 -8 1 -74 15 -95 20 -3 1 -32 5 -65 10 -33 4 -63 13 -67 19 -5 6 -8 7 -8 1z"/>
<path d="M8374 6660 c-26 -10 -58 -57 -44 -65 6 -3 10 -14 10 -25 0 -10 17 -33 38 -51 20 -18 36 -39 34 -46 -2 -8 3 -10 13 -7 11 5 18 0 22 -15 3 -11 9 -21 14 -21 5 0 9 -6 9 -14 0 -8 7 -22 16 -30 8 -9 10 -16 4 -16 -12 0 -9 -45 4 -57 5 -4 6 6 2 22 -6 28 -5 29 9 11 8 -11 15 -27 16 -35 0 -9 3 -25 5 -36 8 -31 12 -159 7 -169 -3 -4 -6 -25 -7 -45 -5 -81 -38 -159 -118 -273 -12 -18 -24 -35 -25 -37 -2 -2 -15 -5 -30 -6 -15 0 -28 -7 -31 -15 -2 -9 0 -11 5 -5 4 6 13 11 20 12 21 4 4 -21 -34 -50 -28 -21 -39 -24 -45 -15 -7 10 -8 9 -6 -2 2 -9 -1 -16 -6 -17 -5 -1 -13 -8 -18 -17 -5 -9 -14 -13 -20 -10 -6 4 -8 3 -5 -3 4 -6 -4 -18 -18 -27 -15 -10 -26 -12 -30 -6 -3 6 -12 10 -18 10 -7 0 -6 -4 3 -10 17 -11 21 -7 -60 -47 -61 -30 -91 -43 -115 -48 -5 -2 -36 -10 -67 -19 -31 -10 -67 -19 -80 -22 -55 -10 -69 -13 -76 -18 -5 -3 -44 -8 -88 -12 -43 -3 -92 -8 -108 -9 -16 -2 -36 -1 -44 3 -13 4 -12 7 4 13 15 6 14 7 -8 6 -15 -1 -24 -5 -22 -9 3 -4 -7 -8 -21 -8 -15 0 -24 4 -20 10 4 6 -7 10 -27 9 -31 -1 -31 -2 -8 -8 19 -6 11 -9 -35 -12 -72 -5 -117 0 -109 12 3 5 -5 5 -18 1 -13 -5 -27 -8 -33 -7 -64 8 -127 20 -160 30 -22 7 -62 18 -88 25 -34 9 -44 16 -35 22 8 5 2 6 -15 2 -19 -4 -40 0 -62 12 -29 15 -38 16 -58 5 -12 -7 -30 -11 -38 -9 -9 2 -13 -4 -11 -18 1 -11 -2 -33 -8 -48 -7 -20 -7 -25 2 -20 8 5 9 2 5 -10 -4 -10 -3 -15 3 -11 6 3 10 2 10 -2 0 -7 60 -35 80 -38 3 0 11 -4 18 -8 6 -5 12 -6 12 -2 0 3 10 0 22 -6 21 -11 122 -36 188 -45 47 -7 60 -9 99 -18 43 -10 419 -14 446 -5 11 4 56 10 100 13 44 4 98 11 120 17 22 5 54 12 70 15 17 3 35 10 40 14 6 4 29 13 52 19 22 6 67 23 100 38 32 15 61 26 66 25 4 -1 7 3 7 8 0 5 3 9 8 8 4 -1 26 10 49 25 24 15 46 27 51 27 5 0 21 14 37 30 16 17 32 30 36 30 17 0 159 135 159 152 0 5 5 6 12 2 6 -4 8 -3 5 3 -4 6 2 22 14 37 21 26 89 167 94 195 2 9 4 16 5 16 2 0 9 25 19 75 12 60 7 251 -8 278 -6 11 -13 37 -16 58 -2 21 -9 42 -14 47 -5 5 -7 17 -4 26 4 9 3 13 -2 9 -4 -4 -23 18 -42 50 -35 58 -104 136 -136 153 -27 15 -49 18 -73 9z"/>
<path d="M2598 5590 c-3 -10 -25 -15 -79 -17 -41 -2 -81 -4 -89 -4 -35 -2 -148 -31 -185 -48 -49 -23 -76 -33 -94 -37 -8 -1 -28 -13 -45 -25 -16 -12 -42 -22 -58 -22 -15 0 -28 -4 -28 -9 0 -5 6 -6 13 -2 6 5 -2 -6 -20 -24 -17 -18 -34 -32 -38 -32 -3 0 -18 -11 -33 -25 -15 -14 -33 -25 -40 -25 -7 0 -10 -4 -7 -10 3 -5 -13 -29 -35 -52 -23 -24 -49 -56 -57 -73 -8 -16 -22 -38 -30 -47 -8 -9 -21 -34 -28 -55 -10 -27 -19 -38 -33 -37 -13 0 -18 -5 -15 -13 3 -7 9 -11 13 -8 4 2 0 -26 -10 -63 -18 -71 -24 -122 -23 -187 3 -103 9 -163 16 -158 6 3 8 -5 7 -32 0 -3 6 -18 15 -35 19 -37 19 -46 0 -30 -13 11 -14 10 -9 -4 3 -9 12 -16 19 -16 7 0 23 -21 36 -46 12 -25 47 -76 78 -112 31 -36 50 -63 44 -59 -6 4 -15 2 -19 -4 -4 -8 -3 -9 4 -5 7 4 12 3 12 -3 0 -6 6 -8 13 -5 12 4 90 -58 87 -71 -1 -4 2 -10 6 -13 4 -4 4 -1 0 6 -4 6 -3 12 2 12 12 0 34 -25 27 -31 -5 -6 17 -9 79 -12 48 -2 51 -1 69 35 19 34 19 39 4 61 -9 13 -37 37 -64 52 -70 41 -114 76 -107 86 3 5 2 8 -3 7 -21 -7 -129 134 -118 152 3 5 -2 10 -10 14 -8 3 -15 16 -15 28 0 13 -7 33 -15 44 -8 12 -13 23 -11 25 2 2 1 39 -4 82 -6 66 -4 93 15 165 24 96 60 176 75 167 5 -3 8 0 5 7 -7 17 54 90 67 82 7 -4 8 -2 4 5 -7 11 38 56 55 56 4 0 11 4 16 9 5 6 2 6 -7 1 -13 -8 -13 -6 -1 8 7 9 17 14 22 11 5 -3 9 1 9 8 0 24 142 100 255 135 87 27 133 35 220 39 113 5 269 -11 259 -27 -7 -12 9 -12 21 0 6 5 46 -3 100 -20 50 -16 95 -29 102 -29 6 0 20 11 31 25 11 13 22 22 25 19 3 -3 3 3 0 15 -4 15 -1 21 11 21 10 0 14 5 11 10 -4 6 -10 8 -15 5 -8 -5 -27 13 -29 27 -4 25 -15 34 -45 35 -18 1 -47 8 -64 17 -17 9 -43 16 -57 16 -18 0 -24 4 -19 13 6 8 3 8 -9 -1 -9 -8 -21 -11 -26 -7 -6 3 -30 8 -53 11 -48 6 -61 12 -53 25 4 5 -9 9 -27 8 -30 -1 -31 -2 -8 -8 16 -4 21 -9 13 -14 -14 -9 -62 1 -82 17 -11 8 -13 8 -7 -1 4 -8 2 -13 -8 -13 -8 0 -16 6 -18 13 -4 9 -6 8 -10 -3z"/>
<path d="M5228 5395 c-3 -3 -71 -6 -151 -8 -81 -1 -147 -5 -147 -9 0 -3 -21 -6 -47 -6 -27 0 -73 -3 -103 -8 -30 -5 -76 -8 -102 -9 -25 0 -44 -3 -41 -7 2 -5 -4 -9 -14 -10 -72 -6 -146 -19 -165 -29 -9 -5 -24 -6 -32 -3 -9 4 -16 1 -16 -6 0 -7 -7 -10 -15 -7 -8 4 -17 2 -20 -4 -4 -5 -10 -7 -15 -4 -5 3 -11 1 -15 -4 -3 -6 -21 -9 -40 -7 -19 1 -35 -1 -35 -5 0 -4 -11 -10 -25 -13 -13 -3 -37 -11 -52 -18 -15 -6 -31 -12 -35 -13 -5 -2 -9 -3 -10 -5 -2 -1 -10 -3 -18 -5 -8 -2 -28 -9 -45 -16 -16 -7 -32 -13 -35 -14 -3 -1 -21 -8 -40 -16 -19 -7 -38 -12 -42 -11 -5 1 -8 -2 -8 -8 0 -5 -16 -12 -35 -16 -19 -3 -35 -10 -35 -16 0 -5 -4 -6 -10 -3 -5 3 -10 1 -10 -4 0 -6 -3 -10 -7 -9 -5 0 -25 -6 -45 -15 -21 -10 -42 -17 -48 -17 -5 0 -10 -4 -10 -8 0 -5 -19 -17 -42 -27 -24 -11 -55 -27 -70 -38 -16 -10 -28 -15 -28 -10 0 4 -4 4 -8 -2 -8 -12 -57 -40 -94 -56 -16 -6 -28 -16 -28 -21 0 -6 -9 -8 -19 -5 -15 3 -18 1 -14 -11 4 -10 2 -13 -5 -8 -6 3 -14 1 -17 -5 -4 -5 -13 -8 -21 -5 -8 3 -13 1 -11 -4 2 -9 -108 -90 -124 -90 -6 0 -7 -4 -4 -10 3 -5 -1 -10 -9 -10 -9 0 -16 -5 -16 -11 0 -7 -9 -9 -21 -6 -12 3 -19 3 -16 1 9 -9 -45 -59 -59 -56 -8 2 -14 -4 -14 -11 0 -8 -12 -23 -27 -33 -16 -10 -39 -28 -53 -40 -127 -115 -151 -133 -167 -128 -13 4 -15 3 -5 -4 11 -7 4 -20 -31 -58 -78 -85 -106 -120 -116 -146 -6 -15 -10 -223 -11 -499 -1 -719 -1 -701 -34 -786 -16 -40 -32 -71 -35 -69 -3 2 -6 -6 -7 -17 -2 -47 -22 -109 -33 -103 -4 3 -6 -8 -5 -22 1 -15 -2 -31 -6 -37 -5 -5 -13 -29 -19 -52 -7 -24 -15 -43 -19 -43 -4 0 -7 -15 -6 -32 0 -18 -4 -39 -9 -46 -6 -7 -7 -15 -4 -19 4 -3 3 -11 -2 -17 -8 -10 -30 -95 -37 -141 -2 -11 -5 -27 -7 -35 -10 -41 -19 -93 -23 -127 -1 -21 -8 -65 -14 -98 -6 -33 -12 -121 -13 -196 -1 -75 -6 -135 -10 -132 -5 3 -3 -4 3 -14 16 -26 65 -46 90 -38 32 10 47 44 49 107 6 177 20 290 40 305 15 12 15 13 -1 7 -14 -5 -15 -1 -8 28 5 18 16 71 25 118 9 47 19 92 22 100 3 8 7 26 9 40 2 14 20 79 39 145 20 66 38 131 40 144 2 13 8 28 14 34 6 6 11 19 11 29 0 9 6 32 14 50 8 18 28 67 46 108 32 76 42 96 100 205 31 57 116 199 133 220 4 6 26 39 50 74 78 119 250 306 393 427 38 31 71 60 74 64 3 3 22 16 43 29 20 12 37 27 37 32 0 5 4 9 10 9 5 0 42 21 82 47 154 99 466 242 480 219 6 -8 8 -8 8 1 0 14 102 62 117 55 2 -1 21 5 43 13 22 8 40 12 40 10 0 -2 16 3 35 11 20 8 40 12 45 9 5 -3 11 -1 15 5 4 6 11 8 16 4 5 -3 16 -1 23 5 7 6 42 9 78 8 37 -1 61 1 55 5 -7 5 0 8 16 8 16 0 26 -4 23 -8 -3 -5 1 -9 9 -9 8 0 12 4 9 8 -9 15 8 19 181 35 117 11 477 -4 505 -21 4 -2 45 -7 91 -10 46 -4 88 -9 93 -13 6 -3 21 -7 34 -8 38 -4 196 -57 204 -69 5 -6 8 -5 8 4 0 11 3 11 15 1 8 -7 15 -9 15 -5 0 4 7 1 17 -6 9 -8 19 -14 22 -13 3 1 19 -3 34 -9 22 -7 26 -12 15 -19 -9 -7 -5 -8 12 -4 26 5 88 -12 143 -40 23 -12 27 -18 16 -25 -9 -6 -10 -9 -2 -9 6 0 15 5 18 10 4 7 32 -4 73 -26 37 -20 88 -48 115 -61 26 -14 45 -28 43 -32 -3 -4 4 -7 14 -8 24 -2 81 -43 74 -54 -2 -5 -11 -6 -19 -2 -8 3 -15 1 -15 -5 0 -11 18 -11 38 1 15 10 34 -1 26 -15 -4 -7 -2 -8 5 -4 15 10 69 -36 63 -54 -3 -13 -2 -13 6 -1 8 11 18 7 53 -20 23 -19 50 -41 59 -49 8 -8 34 -30 57 -49 35 -29 40 -37 31 -50 -10 -13 -10 -14 2 -3 12 10 26 1 82 -55 37 -37 68 -75 68 -84 0 -9 8 -23 18 -30 16 -13 16 -13 2 6 -14 19 -14 19 4 5 34 -27 96 -112 89 -122 -3 -6 -1 -8 4 -5 13 8 66 -59 58 -73 -4 -6 -1 -9 6 -8 6 2 14 -3 17 -11 3 -9 0 -11 -8 -6 -9 5 -11 4 -6 -4 4 -6 11 -9 16 -6 11 7 42 -43 35 -56 -4 -5 -1 -8 5 -7 7 2 20 -11 29 -29 10 -17 25 -43 35 -58 10 -15 15 -29 13 -32 -3 -2 4 -14 15 -25 12 -12 18 -28 15 -39 -3 -11 0 -19 8 -19 14 0 88 -157 79 -171 -3 -5 -1 -9 4 -9 11 0 36 -58 47 -109 5 -26 4 -32 -5 -26 -9 5 -11 4 -6 -4 4 -6 11 -9 15 -7 4 3 12 -4 19 -15 7 -11 8 -19 2 -19 -5 0 -10 -5 -10 -11 0 -5 4 -8 9 -5 5 3 14 -15 21 -39 7 -25 17 -48 22 -51 4 -3 6 -9 3 -14 -3 -5 0 -21 6 -37 15 -40 19 -76 8 -89 -6 -8 -2 -13 12 -17 20 -5 21 -8 8 -23 -8 -10 -9 -15 -3 -11 9 5 28 -62 39 -133 1 -8 6 -28 9 -45 4 -16 9 -46 12 -65 2 -19 6 -46 8 -60 2 -14 -4 -34 -13 -45 -15 -18 -15 -19 0 -7 14 10 17 9 22 -9 4 -16 2 -19 -10 -15 -12 5 -13 4 -5 -7 7 -8 9 -17 5 -21 -4 -4 -2 -10 4 -14 17 -11 21 -144 5 -150 -7 -2 -12 -8 -12 -13 0 -6 4 -7 10 -4 11 7 12 4 15 -40 4 -67 36 -98 89 -88 48 9 60 45 51 152 -10 136 -12 156 -21 251 -5 47 -8 105 -8 128 0 24 -3 38 -5 30 -4 -12 -31 88 -32 122 -1 14 -43 192 -56 234 -4 13 -2 16 7 11 9 -5 11 -4 6 4 -4 6 -12 9 -17 6 -5 -4 -9 1 -9 9 0 22 -68 224 -92 271 -44 89 -45 105 -47 700 0 312 -3 571 -7 576 -3 5 -3 13 0 18 3 5 -12 31 -33 57 -21 27 -37 55 -35 62 1 7 0 8 -2 3 -3 -5 -32 18 -64 52 -32 33 -56 65 -53 70 3 6 1 7 -5 3 -13 -8 -42 20 -38 37 1 7 1 8 -2 4 -5 -10 -42 14 -81 52 -16 16 -45 41 -65 56 -20 15 -33 31 -30 36 3 5 -2 9 -10 9 -17 0 -43 17 -158 103 -42 31 -80 57 -83 57 -12 0 -54 37 -49 43 3 3 -3 4 -13 4 -10 -1 -17 4 -15 11 1 8 -2 11 -7 8 -13 -8 -82 34 -75 45 3 5 -1 6 -8 4 -8 -3 -60 19 -116 50 -56 30 -106 55 -112 55 -6 0 -18 5 -28 11 -9 5 -60 27 -112 49 -52 21 -94 43 -93 49 2 6 -2 11 -7 11 -6 0 -10 -5 -10 -11 0 -8 -6 -7 -17 2 -9 8 -18 13 -20 12 -1 -2 -4 -3 -5 -2 -2 0 -10 2 -18 4 -8 2 -28 9 -45 16 -16 7 -33 13 -37 14 -5 2 -10 4 -13 5 -3 1 -9 4 -15 5 -5 1 -13 4 -17 5 -5 1 -15 3 -23 4 -8 0 -14 8 -12 16 3 12 1 12 -9 3 -11 -11 -21 -10 -59 5 -8 3 -18 6 -22 7 -5 2 -10 4 -13 5 -3 1 -8 3 -12 5 -5 1 -15 5 -24 9 -9 4 -20 6 -25 5 -21 -4 -35 2 -28 12 5 8 1 8 -14 0 -13 -7 -23 -7 -27 -2 -3 6 -13 10 -23 10 -46 2 -91 14 -85 24 4 7 0 8 -13 2 -10 -4 -26 -7 -34 -6 -33 3 -87 10 -125 16 -35 6 -118 11 -208 14 -16 1 -26 5 -22 11 6 10 2 14 -7 5z m-145 -160 c9 -8 17 -11 19 -6 2 6 37 11 78 12 129 3 148 1 170 -23 11 -12 23 -18 27 -13 5 4 2 10 -4 12 -7 3 -13 9 -13 14 0 6 3 8 8 6 4 -3 39 -8 77 -12 39 -4 86 -9 105 -12 19 -2 46 -6 60 -7 14 -2 25 -5 25 -6 0 -1 9 -4 20 -6 11 -1 29 -5 40 -8 11 -3 67 -17 125 -31 58 -14 114 -28 125 -31 11 -3 27 -7 35 -9 8 -2 15 -4 15 -5 0 -1 11 -4 25 -6 14 -2 32 -14 41 -26 9 -11 21 -18 27 -14 13 8 172 -44 172 -57 0 -4 -4 -5 -10 -2 -5 3 -10 2 -10 -4 0 -5 5 -13 10 -16 6 -3 10 -1 10 4 0 17 19 13 92 -21 39 -18 64 -34 58 -38 -8 -5 -7 -9 4 -13 9 -4 16 -2 16 3 0 18 48 -12 54 -34 8 -33 7 -644 -2 -649 -8 -5 -64 28 -58 34 2 2 -8 5 -22 6 -15 0 -28 6 -30 12 -2 6 -8 9 -13 5 -5 -3 -9 -1 -9 4 0 8 -37 27 -70 36 -3 1 -20 10 -37 19 -18 10 -34 17 -35 16 -3 -1 -36 12 -95 37 -17 8 -34 14 -39 14 -4 0 -35 11 -68 24 -34 14 -75 27 -91 30 -65 12 -85 18 -85 26 0 6 -47 17 -110 25 -8 1 -44 9 -80 18 -36 9 -90 19 -120 22 -30 3 -73 8 -95 11 -22 3 -59 5 -82 4 -24 0 -51 4 -61 9 -10 5 -47 10 -83 10 -102 -1 -281 -8 -319 -13 -19 -3 -54 -7 -77 -10 -48 -6 -97 -14 -133 -21 -38 -8 -91 -17 -135 -22 -22 -3 -44 -9 -50 -13 -5 -4 -28 -11 -50 -15 -22 -5 -42 -9 -45 -10 -3 -1 -12 -4 -20 -7 -70 -24 -79 -25 -91 -14 -9 8 -10 8 -5 -1 5 -8 1 -13 -9 -13 -10 0 -13 5 -9 13 4 7 3 9 -2 4 -5 -5 -9 -13 -9 -18 0 -5 -4 -9 -10 -10 -5 0 -16 -5 -22 -11 -7 -6 -13 -7 -13 -2 0 5 -4 3 -8 -3 -4 -7 -19 -15 -32 -17 -14 -2 -26 -5 -27 -5 -2 -1 -6 -1 -10 -2 -5 0 -13 -5 -20 -11 -7 -5 -18 -6 -24 -2 -8 4 -9 3 -5 -4 4 -7 4 -12 -1 -13 -4 0 -17 -3 -28 -6 -11 -2 -28 -5 -37 -6 -9 -1 -14 -5 -12 -9 5 -7 -13 -12 -43 -11 -7 1 -11 -2 -9 -6 8 -13 -30 -33 -66 -35 -9 0 -15 -2 -13 -5 5 -4 -33 -31 -82 -57 l-22 -12 0 339 c0 192 4 337 9 334 5 -3 11 -1 15 5 6 10 130 71 151 74 7 1 18 7 26 14 8 6 59 28 114 47 129 46 123 44 129 45 3 0 19 7 35 15 17 9 30 13 30 10 0 -4 6 -3 13 2 6 4 18 9 25 10 29 7 47 12 50 13 1 2 7 4 12 5 6 1 11 4 13 5 1 1 13 4 27 5 14 2 70 13 125 26 55 12 124 23 152 23 29 1 53 4 53 7 0 6 80 16 194 24 33 3 61 7 64 10 11 11 71 4 85 -10z m1689 -497 c30 -19 45 -34 41 -44 -3 -8 -1 -14 5 -14 6 0 12 4 14 9 4 12 154 -97 150 -110 -1 -6 1 -8 6 -5 14 8 173 -133 166 -147 -4 -7 -4 -9 0 -5 11 9 56 -33 49 -46 -3 -6 -2 -8 2 -3 11 9 106 -83 99 -95 -3 -5 -1 -7 4 -6 14 4 64 -51 57 -63 -4 -5 -1 -9 5 -9 7 0 8 -6 1 -19 -6 -10 -8 -20 -6 -23 5 -4 6 -158 4 -509 -1 -136 2 -256 6 -268 14 -46 -22 -7 -83 90 -35 55 -69 105 -75 112 -7 7 -28 32 -48 57 -54 67 -266 280 -334 336 -33 27 -68 57 -79 67 -11 9 -23 17 -26 17 -4 0 -21 12 -38 28 -49 44 -61 52 -72 52 -6 0 -8 5 -5 10 3 6 6 161 6 345 l-1 335 52 -31 c29 -17 74 -44 100 -61z m-3152 -258 c0 -233 -3 -340 -11 -340 -5 0 -7 5 -3 12 4 7 3 8 -5 4 -6 -4 -9 -11 -6 -16 3 -4 -15 -21 -40 -38 -24 -16 -42 -32 -38 -35 3 -4 -2 -10 -13 -14 -23 -9 -50 -30 -86 -68 -15 -16 -28 -26 -28 -23 0 4 -50 -43 -110 -103 -66 -65 -115 -107 -122 -103 -6 4 -8 3 -5 -3 4 -6 -6 -26 -21 -46 -15 -19 -36 -48 -47 -63 -42 -59 -67 -84 -77 -77 -7 3 -8 1 -4 -5 7 -12 -81 -152 -95 -152 -5 0 -6 -6 -3 -13 2 -7 -4 -24 -16 -37 l-20 -23 0 397 c0 315 3 396 13 390 8 -5 7 -2 -2 9 -26 32 -8 90 45 146 26 27 51 48 56 45 5 -3 7 -1 6 5 -4 14 60 79 145 148 40 31 91 75 115 96 25 22 48 35 55 31 6 -4 9 -4 5 1 -9 9 3 21 64 64 25 18 51 30 57 26 7 -3 10 -2 9 3 -4 13 69 63 93 65 10 1 16 3 14 5 -9 9 45 43 56 36 8 -4 9 -3 5 4 -4 7 -2 12 3 12 8 0 11 -107 11 -340z"/>
<path d="M8366 4925 c-8 -8 -18 -24 -21 -35 -4 -11 -11 -17 -17 -14 -6 4 -8 3 -5 -3 14 -22 -49 -183 -72 -183 -11 0 -12 -3 -4 -8 10 -6 7 -19 -9 -52 -12 -25 -25 -47 -29 -50 -3 -3 -9 -15 -13 -27 -4 -13 -14 -23 -22 -23 -8 0 -13 -3 -12 -7 5 -14 -43 -83 -53 -78 -5 4 -6 0 -3 -8 6 -18 -35 -59 -49 -50 -6 3 -7 1 -3 -5 9 -14 -43 -74 -57 -65 -6 3 -7 2 -4 -4 13 -21 -67 -92 -87 -78 -3 3 -4 2 -1 -2 3 -3 0 -12 -6 -19 -15 -18 -14 -66 2 -94 7 -14 13 -28 12 -31 -3 -9 68 5 92 18 21 12 164 163 192 204 10 13 26 33 36 44 10 11 27 36 38 55 11 19 31 53 45 75 30 48 124 242 124 256 0 6 6 7 13 3 9 -6 8 -3 -1 8 -11 14 -10 20 5 35 21 21 29 83 14 111 -7 13 -7 23 2 32 10 10 8 10 -10 1 -15 -8 -23 -8 -23 -1 0 16 -57 12 -74 -5z"/>
<path d="M4806 3743 c2 -9 -18 -18 -66 -28 -3 0 -23 -4 -45 -9 -22 -4 -53 -14 -70 -21 -109 -48 -123 -53 -135 -41 -8 8 -9 6 -4 -9 4 -11 4 -17 0 -13 -5 4 -33 -7 -63 -23 -31 -17 -62 -28 -69 -25 -8 3 -11 0 -7 -10 3 -8 -1 -14 -11 -14 -9 0 -16 -4 -16 -10 0 -5 -11 -12 -25 -16 -14 -3 -25 -9 -25 -13 0 -4 -15 -15 -32 -26 -18 -10 -39 -25 -46 -32 -7 -7 -22 -13 -33 -13 -11 0 -17 -5 -14 -10 3 -6 -9 -22 -27 -38 -45 -37 -188 -183 -188 -192 0 -4 -8 -7 -17 -6 -10 0 -18 -6 -18 -14 0 -23 -36 -71 -48 -63 -6 3 -7 1 -3 -5 4 -7 -17 -48 -47 -95 -58 -86 -151 -271 -163 -322 -4 -16 -11 -35 -16 -41 -11 -15 -35 -97 -48 -165 -6 -29 -20 -64 -33 -78 -12 -14 -15 -20 -6 -13 14 11 16 9 11 -13 -2 -14 -8 -22 -13 -19 -5 3 -9 0 -9 -5 0 -6 5 -11 11 -11 5 0 7 -5 4 -10 -6 -10 -19 -153 -18 -199 1 -33 34 -62 72 -63 39 -1 94 46 86 73 -8 23 22 42 110 69 164 51 295 63 480 47 128 -11 365 -63 365 -80 0 -4 4 -6 9 -3 5 3 42 -5 82 -19 41 -14 81 -27 89 -29 8 -2 14 -9 12 -16 -1 -6 2 -9 7 -6 13 8 204 -68 194 -78 -4 -4 1 -4 11 0 15 6 17 4 11 -6 -5 -8 -4 -11 2 -7 9 6 67 -6 103 -20 8 -4 18 -7 23 -8 4 -2 9 -4 12 -5 3 -1 10 -4 15 -5 6 -1 11 -3 13 -4 1 -2 13 -4 26 -7 14 -2 30 -9 36 -14 7 -6 25 -11 41 -12 16 -1 34 -5 40 -10 6 -4 24 -9 40 -10 16 -1 33 -4 38 -6 5 -3 30 -7 55 -9 25 -2 61 -8 79 -13 37 -10 313 -7 331 4 6 4 11 1 11 -6 0 -9 2 -10 8 -1 4 6 21 15 37 19 41 9 75 42 75 72 0 29 -42 72 -71 72 -11 0 -17 5 -14 10 3 6 2 10 -3 10 -6 0 -13 -7 -16 -16 -5 -12 -16 -15 -41 -12 -19 2 -36 0 -38 -6 -4 -11 -245 -15 -268 -4 -9 4 -38 9 -65 12 -27 2 -65 9 -84 15 -19 6 -52 13 -73 16 -21 3 -46 9 -56 15 -10 5 -21 6 -25 3 -3 -3 -6 0 -6 7 0 7 -3 10 -7 7 -3 -4 -12 -2 -20 4 -7 6 -13 9 -13 5 0 -9 -144 46 -152 58 -4 6 -8 8 -8 3 0 -4 -10 -1 -23 8 -13 8 -27 12 -30 8 -4 -3 -7 -2 -7 3 0 6 4 14 10 20 6 6 -6 9 -38 9 -26 -1 -57 5 -69 13 -13 8 -23 11 -23 8 0 -4 -10 -1 -22 6 -13 6 -29 13 -36 14 -27 5 -43 14 -38 22 3 5 -5 7 -17 5 -12 -2 -36 1 -52 8 -17 7 -33 13 -37 14 -5 2 -10 4 -13 5 -7 3 -22 7 -36 9 -5 0 -7 7 -3 14 5 8 2 8 -9 -2 -10 -8 -17 -9 -17 -3 0 6 -27 14 -60 18 -45 5 -60 11 -61 23 0 10 -2 11 -6 4 -5 -15 -63 -18 -63 -4 0 5 -10 9 -22 9 -13 0 -50 3 -83 7 -105 14 -389 4 -439 -15 -16 -6 -28 -5 -36 3 -10 9 -11 9 -6 0 6 -11 1 -14 -16 -13 -12 1 -116 -34 -125 -42 -16 -13 -18 9 -3 32 9 13 10 13 10 0 0 -13 2 -13 9 -1 5 8 16 11 26 7 15 -5 16 -4 5 9 -7 9 -21 13 -31 10 -26 -8 -25 2 6 105 1 3 4 12 8 20 3 8 11 33 17 55 29 96 150 341 167 338 7 -2 10 3 7 10 -18 48 302 400 424 465 21 12 26 12 34 0 8 -10 9 -9 5 4 -7 21 82 76 198 121 98 38 330 98 375 97 14 -1 88 -1 165 -1 133 0 265 -13 265 -28 0 -3 12 -6 28 -6 42 -1 110 -13 130 -24 9 -5 20 -10 24 -10 64 -11 313 -135 303 -151 -3 -6 0 -7 8 -4 8 3 18 0 23 -7 4 -8 3 -10 -4 -5 -7 4 -12 2 -12 -4 0 -7 8 -9 20 -5 13 4 28 -2 47 -21 16 -14 23 -24 16 -20 -6 3 -14 2 -17 -2 -3 -5 7 -9 22 -8 19 1 26 -3 24 -14 -2 -8 -1 -12 3 -8 15 14 113 -74 207 -186 54 -63 62 -78 59 -98 0 -5 6 -8 14 -8 18 0 20 -17 3 -22 -9 -3 -9 -6 0 -12 7 -4 12 -2 12 3 0 6 5 11 10 11 6 0 10 -5 10 -10 0 -6 16 -36 35 -66 19 -30 35 -56 35 -58 0 -2 14 -34 31 -72 17 -38 31 -70 29 -72 -1 -2 5 -13 13 -26 22 -34 7 -50 -39 -43 -28 5 -33 4 -19 -3 22 -10 21 -11 -15 -16 -190 -25 -254 -26 -460 -10 -62 5 -101 17 -94 29 5 9 4 9 -6 0 -9 -9 -22 -8 -54 1 -23 7 -47 11 -54 8 -6 -2 -12 1 -12 7 0 6 -7 11 -15 11 -26 0 -140 41 -147 53 -6 9 -8 9 -8 -1 0 -8 -5 -9 -17 -3 -10 5 -37 18 -60 29 -23 10 -40 22 -37 25 3 3 -3 3 -15 0 -13 -3 -23 0 -27 10 -3 9 -12 13 -19 11 -7 -3 -33 5 -57 17 -23 12 -43 21 -43 20 0 -1 -13 3 -30 9 -16 7 -37 13 -47 15 -9 2 -30 11 -47 19 -17 9 -31 14 -31 10 0 -4 -7 -1 -15 6 -8 7 -15 9 -15 5 0 -4 -7 -2 -15 5 -8 7 -15 9 -15 5 0 -4 -6 -3 -13 3 -7 6 -25 12 -39 14 -27 4 -51 18 -30 18 6 0 9 7 5 17 -5 14 -8 13 -15 -6 -6 -17 -13 -21 -26 -16 -9 4 -26 8 -37 9 -11 2 -34 6 -52 10 -50 12 -226 14 -247 4 -12 -7 -22 -6 -29 1 -6 6 -16 11 -21 11 -6 0 -4 -5 4 -10 12 -8 12 -10 -5 -10 -24 -1 -105 -28 -157 -54 -20 -10 -42 -15 -48 -11 -5 3 -13 -2 -17 -12 -11 -28 -73 -70 -96 -64 -5 1 -6 -3 -2 -9 3 -5 -3 -19 -13 -30 -17 -18 -20 -19 -25 -6 -4 9 -4 24 -1 34 5 15 4 15 -6 -1 -9 -14 -8 -23 5 -43 9 -14 15 -30 13 -36 -5 -13 27 -48 43 -48 5 0 8 -4 5 -8 -10 -17 60 2 83 22 12 12 31 28 40 36 31 27 89 52 102 45 8 -5 10 -4 5 3 -4 7 14 17 51 28 60 18 276 25 338 11 17 -3 37 -8 45 -10 37 -8 60 -19 56 -26 -3 -4 1 -8 9 -8 8 0 15 4 15 9 0 5 5 6 10 3 8 -5 8 -11 1 -19 -8 -9 -7 -13 4 -13 8 0 12 4 9 9 -7 10 42 6 52 -5 4 -4 17 -7 29 -7 13 0 28 -7 35 -15 7 -8 18 -14 24 -14 18 3 68 -20 83 -39 8 -9 11 -11 7 -3 -5 11 -3 13 10 8 10 -4 20 -7 22 -7 3 0 3 -4 0 -9 -4 -5 2 -7 12 -4 10 2 34 -4 53 -15 19 -11 57 -28 86 -38 29 -9 50 -20 48 -23 -1 -3 12 -7 30 -8 18 -1 46 -8 63 -17 36 -19 173 -56 205 -56 13 0 27 -4 33 -9 9 -9 49 -16 159 -27 44 -5 65 -8 98 -13 5 0 6 -5 2 -10 -3 -5 -1 -12 4 -16 6 -3 8 3 7 12 -4 16 4 18 68 18 39 0 96 4 126 8 30 3 78 9 105 12 28 4 65 10 84 15 24 6 39 6 48 -2 11 -9 12 -7 7 8 -5 17 -4 17 7 -1 7 -11 14 -29 15 -40 1 -11 3 -20 4 -20 2 0 4 -8 14 -85 3 -19 8 -78 11 -130 7 -114 20 -140 70 -140 54 0 79 31 70 86 -3 25 -2 52 5 64 6 11 7 20 2 20 -5 0 -9 23 -11 52 -1 28 -4 55 -6 59 -3 3 -7 28 -10 55 -6 55 -53 234 -65 249 -4 6 -10 25 -14 44 -3 19 -32 86 -63 150 -31 64 -56 121 -56 128 0 7 -3 10 -7 8 -3 -2 -14 12 -25 31 -10 19 -22 34 -27 34 -4 0 -8 5 -8 11 0 17 -87 126 -165 207 -38 41 -69 79 -67 85 2 7 0 9 -3 5 -7 -7 -66 32 -90 58 -5 6 -27 23 -47 39 -21 15 -36 30 -34 34 3 4 0 13 -6 21 -8 12 -9 12 -4 -2 3 -12 0 -18 -9 -18 -8 0 -15 7 -15 16 0 8 -3 13 -7 11 -5 -2 -21 4 -38 14 -51 31 -238 123 -254 125 -9 1 -46 13 -84 28 -37 14 -69 26 -72 26 -3 0 -15 2 -28 5 -12 3 -33 7 -47 9 -14 3 -50 10 -80 17 -71 17 -470 20 -470 5 0 -6 -5 -4 -10 4 -6 10 -10 11 -10 3 0 -14 -55 -18 -63 -5 -2 4 -2 2 -1 -5z"/>
</g>
</svg>
