<?xml version="1.0" standalone="no"?>
<!DOCTYPE svg PUBLIC "-//W3C//DTD SVG 20010904//EN"
 "http://www.w3.org/TR/2001/REC-SVG-20010904/DTD/svg10.dtd">
<svg version="1.0" xmlns="http://www.w3.org/2000/svg"
 width="1024.000000pt" height="1024.000000pt" viewBox="0 0 1024.000000 1024.000000"
 preserveAspectRatio="xMidYMid meet">
<metadata>
Created by potrace 1.16, written by Peter Selinger 2001-2019
</metadata>
<g transform="translate(0.000000,1024.000000) scale(0.100000,-0.100000)"
fill="#000000" stroke="none">
<path d="M4952 7632 c-31 -29 -33 -35 -53 -177 -21 -155 -81 -295 -185 -431
-63 -83 -140 -158 -154 -149 -5 3 -8 0 -5 -7 8 -23 -198 -171 -470 -338 -625
-382 -959 -699 -1160 -1099 -168 -334 -207 -740 -106 -1096 11 -38 17 -74 14
-80 -4 -5 -3 -7 2 -3 4 4 18 -22 30 -57 83 -236 307 -514 556 -692 85 -60 285
-175 327 -188 12 -3 22 -11 22 -16 0 -6 4 -8 8 -5 4 2 27 -4 50 -14 92 -41
290 -101 445 -134 295 -63 522 -86 867 -86 274 0 420 11 620 47 80 15 157 27
173 27 15 1 27 4 27 9 0 4 9 7 19 7 11 0 77 18 148 39 742 228 1186 647 1324
1250 26 114 36 364 19 496 -10 87 -45 240 -64 286 -4 10 -3 20 3 24 6 3 11 12
11 18 0 8 -3 8 -9 -2 -10 -16 -12 -14 -46 74 -140 357 -418 693 -800 967 -91
65 -150 103 -377 244 -69 43 -124 83 -121 88 3 5 1 6 -5 2 -13 -8 -97 49 -245
167 -128 102 -226 196 -346 331 -89 101 -278 346 -267 346 3 0 -5 10 -17 23
-12 13 -39 45 -61 71 -43 53 -90 86 -122 86 -12 0 -36 -13 -52 -28z m118 -204
c18 -24 19 -30 6 -25 -14 6 -15 3 -6 -13 6 -11 13 -20 16 -20 3 0 2 5 -1 10
-3 6 -2 10 4 10 6 0 33 -34 62 -76 28 -41 79 -111 114 -154 35 -43 61 -81 57
-84 -3 -3 -1 -6 4 -6 5 0 46 -39 89 -87 44 -48 72 -84 62 -80 -12 4 -16 3 -12
-4 4 -6 13 -8 19 -6 10 4 57 -34 207 -171 26 -24 203 -154 259 -190 30 -20
145 -93 256 -162 339 -214 545 -379 709 -572 161 -188 252 -338 332 -548 70
-184 97 -328 96 -515 -2 -266 -79 -512 -232 -738 -69 -103 -68 -103 -127 -65
-27 17 -116 66 -199 108 -361 186 -754 299 -1215 351 -283 32 -706 32 -943 1
-354 -47 -648 -126 -947 -254 -123 -53 -358 -173 -418 -213 -20 -14 -43 -25
-52 -25 -22 0 -125 150 -175 255 -52 109 -77 180 -106 305 -31 128 -33 411 -6
540 53 247 181 505 353 712 63 75 249 258 290 285 12 7 40 31 63 52 88 81 359
264 685 460 101 61 268 184 335 246 25 23 51 44 57 46 7 2 37 36 69 74 153
187 230 348 251 528 4 31 10 57 13 57 4 0 18 -14 31 -32z m365 -3158 c523 -44
1036 -195 1410 -415 l97 -57 -29 -30 c-73 -77 -277 -220 -408 -286 -278 -138
-557 -218 -938 -268 -132 -17 -647 -31 -647 -18 0 5 -20 8 -45 6 -25 -2 -111
3 -192 13 -551 62 -984 227 -1302 497 -41 35 -76 68 -78 73 -1 6 48 38 110 72
439 242 863 369 1392 416 92 8 519 6 630 -3z"/>
</g>
</svg>
