<?xml version="1.0" standalone="no"?>
<!DOCTYPE svg PUBLIC "-//W3C//DTD SVG 20010904//EN"
 "http://www.w3.org/TR/2001/REC-SVG-20010904/DTD/svg10.dtd">
<svg version="1.0" xmlns="http://www.w3.org/2000/svg"
 width="1024.000000pt" height="1024.000000pt" viewBox="0 0 1024.000000 1024.000000"
 preserveAspectRatio="xMidYMid meet">
<metadata>
Created by potrace 1.16, written by Peter Selinger 2001-2019
</metadata>
<g transform="translate(0.000000,1024.000000) scale(0.100000,-0.100000)"
fill="#000000" stroke="none">
<path d="M4783 7706 c-17 -8 -37 -25 -44 -38 -13 -23 -22 -149 -10 -129 4 6
16 -13 27 -42 30 -80 26 -213 -9 -295 -34 -81 -102 -177 -169 -237 -80 -72
-230 -176 -246 -170 -7 2 -10 1 -7 -5 3 -5 -27 -28 -67 -51 -563 -324 -781
-472 -1007 -686 -312 -294 -517 -648 -598 -1031 -24 -115 -27 -148 -27 -347
-1 -195 2 -232 23 -330 61 -284 184 -519 374 -713 157 -160 348 -299 554 -402
62 -31 110 -60 106 -65 -5 -4 -3 -5 4 -2 6 4 53 -9 105 -29 189 -73 343 -114
653 -174 182 -35 316 -44 675 -44 297 -1 390 2 500 17 189 25 374 62 519 103
99 28 126 33 133 22 7 -10 9 -10 5 2 -3 11 22 24 97 51 307 109 597 288 806
498 395 398 537 953 384 1503 -39 140 -72 225 -141 363 -110 219 -227 377
-415 561 -224 220 -383 337 -788 579 -287 171 -445 277 -563 376 -84 71 -96
84 -85 98 11 14 11 14 -3 4 -14 -11 -24 -4 -70 45 -82 87 -157 176 -243 289
-97 128 -187 212 -269 253 -76 37 -157 47 -204 26z m156 -155 c45 -23 152
-136 243 -255 244 -321 431 -480 901 -760 384 -230 486 -300 740 -513 184
-156 367 -390 479 -615 99 -200 145 -352 174 -568 43 -328 -50 -690 -248 -965
l-52 -73 -59 54 c-132 123 -274 219 -457 309 -223 111 -410 175 -675 234 -327
72 -557 95 -935 95 -428 1 -731 -38 -1090 -141 -142 -40 -352 -119 -452 -169
-37 -19 -68 -32 -68 -29 0 3 -8 -2 -17 -10 -10 -9 -65 -47 -123 -84 -58 -37
-145 -103 -193 -145 -49 -43 -90 -76 -92 -74 -19 21 -95 150 -125 213 -48 100
-72 174 -102 312 -20 93 -23 137 -23 318 0 137 5 231 13 270 28 126 76 274
121 375 99 222 213 384 410 580 216 216 424 365 826 595 206 118 387 235 479
309 48 39 96 70 105 68 11 -2 12 0 4 5 -8 6 5 28 42 73 58 69 105 156 133 242
22 71 22 234 -1 307 -9 30 -17 56 -17 58 0 8 24 1 59 -16z m531 -3211 c672
-67 1169 -250 1528 -560 45 -39 82 -75 82 -79 0 -11 -140 -127 -225 -187 -323
-229 -734 -375 -1235 -440 -167 -22 -686 -31 -858 -15 -355 33 -726 117 -947
217 -16 7 -64 28 -106 46 -172 75 -392 219 -532 348 l-58 53 58 60 c207 211
526 366 978 477 386 94 877 124 1315 80z"/>
</g>
</svg>
