<?xml version="1.0" standalone="no"?>
<!DOCTYPE svg PUBLIC "-//W3C//DTD SVG 20010904//EN"
 "http://www.w3.org/TR/2001/REC-SVG-20010904/DTD/svg10.dtd">
<svg version="1.0" xmlns="http://www.w3.org/2000/svg"
 width="1024.000000pt" height="1024.000000pt" viewBox="0 0 1024.000000 1024.000000"
 preserveAspectRatio="xMidYMid meet">
<metadata>
Created by potrace 1.16, written by Peter Selinger 2001-2019
</metadata>
<g transform="translate(0.000000,1024.000000) scale(0.100000,-0.100000)"
fill="#000000" stroke="none">
<path d="M5733 8911 c-29 -5 -64 -12 -78 -15 -14 -4 -27 -6 -30 -6 -13 -1
-171 -62 -182 -72 -7 -5 -21 -7 -30 -4 -10 4 -14 4 -11 0 7 -6 -33 -44 -46
-44 -12 0 -118 -72 -173 -118 -32 -27 -91 -83 -132 -125 -41 -42 -78 -74 -82
-71 -5 3 -6 -1 -3 -9 3 -8 -7 -28 -22 -43 -14 -16 -37 -46 -50 -66 -17 -27
-29 -36 -41 -32 -14 4 -15 4 -5 -4 11 -8 9 -17 -10 -48 -13 -22 -37 -65 -53
-96 -16 -31 -34 -54 -39 -51 -5 3 -6 1 -2 -5 4 -6 -7 -51 -23 -99 -71 -211
-74 -230 -77 -472 -1 -123 1 -231 6 -240 17 -32 42 -150 34 -162 -4 -7 -3 -10
3 -6 6 4 19 -18 32 -52 25 -70 26 -77 4 -60 -9 8 -14 9 -10 3 6 -10 -51 -23
-120 -28 -11 0 -19 -4 -17 -7 2 -4 -13 -15 -34 -24 -58 -27 -141 -113 -173
-180 -16 -33 -29 -66 -29 -72 0 -7 -3 -13 -7 -13 -5 0 -8 -47 -8 -105 0 -57 3
-97 7 -87 6 15 7 15 7 0 1 -21 67 -147 91 -173 18 -19 18 -22 -12 -84 -25 -54
-30 -78 -31 -140 -1 -112 14 -158 74 -226 18 -20 27 -39 23 -46 -4 -8 -3 -9 5
-5 15 10 43 -13 34 -27 -3 -6 -1 -7 5 -3 7 4 22 0 34 -10 15 -10 17 -14 6 -11
-10 4 -20 2 -23 -3 -3 -4 7 -7 22 -5 15 1 48 -3 73 -11 60 -18 169 -18 225 1
48 17 70 12 61 -12 -3 -8 -2 -12 3 -9 7 5 18 -10 21 -29 1 -3 7 -20 15 -39 17
-41 10 -46 -68 -46 -46 0 -126 -10 -197 -25 -14 -3 -41 -8 -60 -11 -19 -3 -47
-10 -62 -16 -16 -6 -39 -8 -53 -6 -13 3 -22 2 -20 -3 3 -4 -9 -11 -27 -14 -18
-4 -37 -10 -43 -13 -16 -10 -37 -14 -68 -15 -16 0 -24 -3 -17 -7 7 -5 1 -10
-16 -14 -37 -10 -245 -105 -254 -116 -3 -4 -30 -20 -60 -36 -30 -16 -57 -31
-60 -34 -3 -3 -26 -18 -52 -33 -47 -27 -197 -142 -209 -160 -4 -5 -12 -6 -19
-2 -8 5 -11 4 -7 -1 3 -6 -33 -47 -79 -94 -47 -46 -91 -90 -97 -99 -7 -9 -20
-22 -30 -30 -16 -12 -17 -12 -11 5 4 15 4 16 -4 5 -6 -8 -8 -20 -5 -27 2 -6
-4 -20 -14 -30 -32 -32 -83 -101 -83 -113 0 -6 -4 -11 -8 -11 -5 0 -19 -19
-33 -41 -13 -23 -32 -53 -41 -68 -10 -14 -21 -33 -25 -41 -3 -8 -17 -31 -30
-50 -26 -40 -135 -300 -126 -300 3 0 -1 -7 -8 -17 -8 -9 -14 -19 -13 -22 3
-17 -10 -40 -19 -34 -5 3 -7 2 -4 -4 5 -8 -8 -85 -28 -163 -35 -139 -52 -320
-50 -530 1 -96 5 -182 8 -190 11 -30 28 -180 21 -192 -4 -6 -3 -8 3 -5 10 6
17 -15 29 -78 14 -72 56 -193 106 -303 10 -23 16 -46 14 -51 -9 -13 14 -71 28
-71 14 0 79 -117 71 -129 -3 -5 0 -13 6 -17 8 -5 10 -2 5 7 -4 8 2 3 13 -11
11 -14 19 -31 16 -38 -3 -8 0 -10 7 -6 8 5 9 2 5 -10 -4 -9 -3 -14 2 -11 11 6
97 -114 93 -129 -2 -6 0 -8 4 -4 3 4 20 -9 36 -30 16 -20 62 -70 101 -111 40
-41 71 -78 69 -83 -1 -4 4 -7 10 -6 7 2 12 -3 10 -10 -1 -8 2 -11 6 -8 12 7
44 -28 35 -38 -5 -4 -3 -7 2 -6 21 5 33 -1 56 -23 13 -13 49 -43 79 -67 30
-23 54 -47 52 -52 -1 -5 2 -7 7 -4 11 7 87 -42 84 -54 -1 -4 5 -7 15 -6 12 1
16 -5 14 -19 -2 -16 -1 -17 7 -5 9 13 14 13 38 -2 16 -10 82 -44 148 -77 83
-40 114 -60 100 -63 -11 -2 1 -4 27 -4 26 -1 53 -6 60 -11 7 -6 16 -11 21 -12
4 0 31 -9 60 -19 29 -11 102 -30 162 -41 61 -12 133 -26 160 -31 28 -6 101
-13 164 -16 63 -4 126 -10 139 -13 14 -4 66 -1 116 6 50 7 97 10 104 8 7 -3
43 0 80 5 37 6 85 13 107 16 22 3 67 12 100 19 37 9 61 11 63 5 2 -6 8 -10 13
-10 4 0 6 6 4 13 -3 8 31 23 103 46 59 18 140 49 180 68 40 19 77 31 82 28 5
-3 18 -1 27 5 15 9 14 10 -7 5 -14 -3 8 12 49 34 41 22 79 37 85 34 6 -3 8 -3
4 2 -4 4 0 14 10 21 23 18 35 17 29 -1 -4 -8 -1 -17 5 -21 7 -5 9 2 6 19 -4
22 2 30 38 53 24 16 44 32 44 36 0 4 6 8 13 8 6 0 26 13 44 28 18 15 62 52 98
82 37 30 89 79 117 109 40 43 52 51 60 40 8 -11 9 -10 4 3 -3 11 10 34 37 65
66 74 177 224 177 239 0 3 13 24 28 47 16 23 37 58 46 77 66 129 96 194 121
257 15 40 31 71 34 69 3 -2 6 8 7 22 1 30 22 118 34 143 9 17 37 152 45 214 3
22 8 60 11 85 15 115 24 350 13 350 -4 0 -8 30 -8 67 0 38 -5 83 -11 102 -5
19 -7 37 -5 41 5 8 -25 142 -55 246 -7 23 -10 52 -6 65 3 13 3 18 0 10 -4 -9
-20 22 -39 75 -18 49 -47 120 -64 157 -35 77 -36 81 -19 71 7 -4 8 -3 4 5 -4
6 -11 9 -15 7 -11 -7 -43 63 -35 76 4 6 3 9 -2 5 -5 -3 -29 27 -53 66 -25 40
-55 85 -68 101 -13 16 -22 35 -19 43 3 8 2 12 -3 9 -5 -3 -21 11 -37 32 -15
20 -32 40 -37 43 -4 3 -10 15 -11 25 -2 10 -7 19 -12 19 -18 1 -121 120 -117
135 3 11 2 12 -4 2 -7 -9 -25 2 -68 43 -32 30 -95 83 -141 116 -46 34 -81 65
-79 70 3 4 0 11 -6 15 -8 4 -9 3 -5 -4 4 -7 5 -12 2 -12 -5 0 -66 36 -131 78
-25 15 -241 121 -275 135 -14 5 -33 13 -42 18 -9 5 -32 11 -50 14 -18 3 -34
10 -36 16 -2 5 -16 9 -31 9 -15 0 -31 4 -37 9 -5 5 -22 11 -39 12 -16 2 -34 6
-40 10 -5 4 -30 10 -54 14 -30 5 -39 10 -30 16 11 7 11 9 -3 9 -9 0 -20 -5
-23 -10 -4 -6 -10 -8 -15 -5 -10 6 -79 16 -130 19 -19 1 -42 6 -51 10 -9 4
-34 6 -55 4 -38 -3 -39 -2 -39 29 0 17 -3 29 -7 27 -5 -3 -8 1 -8 8 0 7 -6 25
-14 39 -12 23 -11 25 7 24 11 -1 43 3 71 8 28 5 61 10 73 10 12 1 25 6 29 10
5 4 0 5 -11 2 -11 -3 -8 1 8 10 15 9 33 13 39 9 6 -4 8 -3 5 3 -8 12 63 70 78
65 5 -2 7 -1 3 3 -4 4 9 35 28 69 19 35 34 70 34 80 0 9 3 15 8 13 4 -3 4 36
1 86 -5 68 -13 107 -33 151 -14 32 -26 61 -26 65 1 13 71 86 81 83 6 -1 8 2 4
7 -3 6 4 32 16 58 30 66 37 195 15 264 -9 27 -14 55 -10 61 4 7 3 8 -4 4 -7
-4 -12 -3 -12 2 0 4 -16 27 -35 49 -19 22 -31 44 -27 48 4 3 0 5 -8 3 -8 -1
-14 2 -13 8 1 7 -3 11 -10 11 -7 -1 -39 12 -72 28 -77 38 -168 45 -251 19 -84
-25 -84 -25 -94 0 -13 36 -36 198 -34 241 9 157 46 258 134 364 50 61 70 74
70 47 0 -8 7 -16 15 -20 19 -7 19 1 0 21 -12 12 -13 18 -4 30 7 7 18 12 26 9
8 -3 11 -2 8 4 -7 11 32 33 45 25 6 -4 9 -1 8 5 -4 15 150 83 169 75 8 -2 12
-1 9 4 -6 10 8 15 104 40 76 20 264 83 285 96 11 7 32 15 47 19 14 3 57 26 93
51 37 25 72 42 78 38 6 -3 7 -1 3 5 -7 11 26 35 38 27 3 -3 4 -2 1 2 -7 10 46
63 57 57 5 -3 7 0 6 8 -2 7 3 12 9 11 7 -2 12 0 11 5 -4 11 35 71 43 67 4 -3
6 3 5 12 0 10 4 18 11 18 6 0 15 4 20 9 5 6 2 6 -6 1 -11 -6 -13 -4 -7 11 46
119 59 215 43 309 -10 54 -49 132 -91 181 -20 23 -32 45 -28 49 4 3 3 5 -3 4
-14 -4 -55 11 -55 20 0 4 -18 16 -40 26 -30 13 -37 21 -28 28 10 6 9 8 -3 4
-9 -3 -45 3 -80 14 -72 23 -208 32 -286 20z m251 -224 c63 -23 108 -55 100
-69 -4 -7 -2 -8 4 -4 6 3 16 -2 22 -13 8 -16 6 -22 -7 -31 -16 -10 -16 -10 3
-5 21 5 31 -5 41 -45 5 -23 6 -73 1 -90 -3 -8 -10 -34 -16 -57 -9 -28 -35 -65
-84 -118 -60 -64 -85 -83 -162 -120 -50 -24 -134 -57 -186 -74 -273 -85 -329
-105 -398 -136 -41 -19 -79 -32 -85 -28 -6 3 -7 1 -3 -5 4 -6 -4 -16 -16 -23
-13 -7 -26 -16 -29 -21 -3 -5 -15 -10 -27 -11 -11 0 -19 -4 -16 -9 4 -7 -33
-32 -48 -33 -5 0 -9 -4 -9 -10 -1 -5 -30 -40 -64 -77 -50 -54 -123 -166 -124
-188 0 -3 -4 -18 -10 -33 -6 -16 -12 -36 -12 -45 -1 -9 -5 1 -8 23 -8 46 -5
161 4 220 3 22 8 51 10 65 14 90 74 262 87 254 7 -4 8 -2 4 4 -8 14 51 142 70
149 8 3 12 8 10 12 -7 11 110 166 123 163 7 -1 10 2 6 7 -3 6 13 29 35 51 36
36 44 40 58 28 15 -12 16 -11 3 5 -8 10 -10 21 -5 26 5 4 38 30 74 57 36 27
68 53 71 58 4 5 14 6 24 3 9 -4 13 -3 10 3 -6 10 107 71 180 97 122 44 283 53
369 20z m-1179 -1911 c36 -15 47 -33 20 -33 -8 0 -15 6 -15 14 0 7 -5 13 -10
13 -7 0 -7 -7 0 -20 6 -11 15 -18 21 -15 5 4 9 1 9 -4 0 -6 5 -11 10 -11 6 0
10 8 10 17 0 12 3 14 11 6 8 -8 -7 -33 -56 -93 -37 -45 -86 -99 -109 -119 -22
-20 -53 -47 -67 -61 -21 -21 -28 -23 -38 -13 -19 21 -61 116 -61 140 0 27 10
54 19 49 3 -2 6 9 7 24 1 32 57 88 107 107 44 16 101 16 142 -1z m526 -18 c66
-37 90 -126 55 -201 -20 -40 -122 -144 -138 -139 -5 1 -7 -1 -4 -6 3 -5 -11
-25 -32 -44 -20 -18 -64 -63 -97 -98 -33 -36 -64 -63 -68 -62 -5 1 -6 -2 -3
-7 3 -5 -12 -29 -35 -53 -23 -23 -59 -67 -82 -96 -43 -56 -89 -86 -148 -95
-82 -12 -162 31 -175 93 -18 86 -2 123 87 200 35 30 87 78 117 105 30 28 58
49 63 47 5 -1 8 2 7 6 -3 7 59 84 121 151 12 14 43 53 67 86 24 33 54 71 66
84 52 53 134 66 199 29z m-4 -636 c6 -48 -30 -137 -53 -128 -8 3 -11 0 -8 -8
3 -8 -10 -17 -34 -24 -45 -14 -112 -16 -112 -4 0 15 148 177 159 174 7 -1 10
2 6 8 -9 15 16 43 27 32 5 -5 12 -28 15 -50z m-279 -757 c7 -33 15 -132 17
-220 2 -88 0 -135 -3 -105 -4 32 -10 48 -14 39 -6 -15 6 -101 17 -119 3 -4 2
-22 -1 -40 -5 -20 -10 -27 -15 -19 -4 7 -7 -5 -6 -27 2 -39 -9 -119 -17 -132
-2 -4 -7 -27 -11 -52 -4 -24 -11 -52 -16 -62 -5 -10 -6 -18 -2 -18 4 0 2 -5
-5 -12 -7 -7 -12 -20 -12 -31 0 -10 -3 -16 -7 -14 -5 3 -8 -15 -8 -40 0 -24
-2 -46 -6 -49 -4 -2 -14 -43 -24 -92 -9 -50 -22 -89 -28 -89 -19 0 -101 -24
-112 -33 -5 -4 -24 -12 -42 -18 -81 -27 -242 -159 -297 -244 -10 -15 -23 -25
-29 -21 -6 3 -7 1 -3 -5 3 -6 -7 -33 -23 -59 -108 -176 -134 -434 -65 -651 5
-15 4 -15 -5 -2 -9 12 -11 11 -11 -9 0 -16 4 -22 15 -17 8 3 15 4 15 2 0 -3 3
-13 7 -23 6 -16 5 -16 -10 -4 -10 8 -20 11 -24 7 -3 -3 -2 -6 3 -6 20 0 53
-40 47 -57 -4 -10 -2 -14 5 -9 15 9 25 -10 26 -52 1 -22 7 -37 16 -39 12 -4
12 -3 1 5 -8 6 -9 12 -3 16 6 3 21 -8 34 -25 52 -68 104 -122 161 -164 32 -25
52 -45 43 -45 -9 0 -16 -4 -16 -9 0 -10 25 -9 36 2 4 3 27 -5 53 -17 107 -55
185 -70 346 -71 166 0 231 14 350 76 147 76 279 210 355 359 79 155 100 359
55 530 -15 55 -30 97 -55 148 -17 35 -28 68 -24 73 3 5 0 8 -8 7 -7 -2 -12 5
-12 14 1 10 -2 16 -6 13 -5 -3 -24 17 -44 43 -19 27 -59 71 -88 98 -29 27 -52
52 -50 57 1 4 -4 7 -12 7 -22 0 -126 66 -118 75 4 5 2 5 -4 2 -13 -7 -96 22
-90 32 2 3 -17 7 -43 9 -50 3 -59 5 -109 17 -24 5 -30 10 -20 16 9 6 10 9 1 9
-15 0 -12 21 27 175 27 104 32 130 46 208 3 17 9 46 14 62 10 33 18 84 26 160
9 76 10 435 2 422 -4 -7 -8 1 -8 18 0 23 3 27 10 15 8 -13 10 -12 10 3 0 9 -6
17 -14 17 -8 0 -17 4 -20 8 -6 10 105 -3 204 -24 96 -20 85 -17 155 -38 33
-10 65 -19 70 -21 6 -1 23 -7 38 -13 16 -7 33 -12 38 -12 5 0 17 -4 27 -10 9
-5 30 -14 45 -20 16 -5 26 -14 23 -18 -2 -4 0 -14 6 -22 8 -12 9 -12 4 3 -10
30 6 25 154 -56 29 -16 48 -32 44 -38 -4 -8 -10 -7 -16 2 -8 12 -9 12 -6 0 2
-8 12 -15 21 -17 9 -1 15 2 11 7 -23 38 80 -30 236 -156 82 -66 91 -75 84 -87
-3 -5 0 -7 8 -6 7 2 12 -3 10 -10 -1 -8 2 -11 7 -8 13 8 123 -113 115 -126 -4
-6 -3 -8 3 -5 17 11 42 -26 39 -59 -1 -18 3 -31 10 -31 13 0 13 15 0 36 -6 10
-5 12 3 7 21 -13 112 -156 106 -166 -4 -6 -1 -9 6 -8 6 2 14 -3 17 -11 3 -9 0
-11 -8 -6 -9 5 -11 4 -6 -4 4 -6 11 -9 15 -7 12 8 34 -40 26 -55 -5 -7 -4 -10
2 -6 15 9 36 -20 29 -38 -3 -9 -2 -14 3 -11 12 8 55 -90 46 -105 -5 -7 -4 -10
2 -6 6 4 18 -14 28 -41 10 -26 23 -60 30 -77 7 -16 17 -48 23 -70 5 -22 19
-74 30 -115 56 -202 69 -415 42 -657 -13 -113 -16 -134 -24 -161 -3 -9 -8 -37
-11 -62 -4 -25 -10 -49 -15 -55 -4 -5 -11 -25 -15 -43 -4 -19 -11 -30 -17 -26
-7 4 -8 2 -4 -5 10 -15 -5 -60 -65 -202 -68 -161 -197 -381 -221 -376 -6 1
-11 -7 -12 -18 -2 -19 -54 -81 -153 -184 -38 -38 -45 -42 -60 -30 -15 11 -16
11 -6 0 15 -17 -13 -65 -33 -57 -8 3 -13 1 -11 -3 3 -14 -65 -71 -77 -64 -6 3
-8 3 -4 -1 8 -10 -23 -46 -40 -46 -7 0 -10 5 -6 12 4 7 3 8 -4 4 -6 -4 -9 -13
-5 -21 3 -9 -1 -15 -11 -15 -9 0 -16 -4 -16 -10 0 -5 -5 -10 -11 -10 -5 0 -27
-13 -47 -30 -41 -33 -204 -115 -314 -159 -96 -38 -233 -77 -338 -97 -120 -23
-119 -22 -285 -30 -152 -7 -278 2 -440 31 -44 8 -89 16 -100 18 -141 25 -533
190 -498 209 5 3 2 3 -5 1 -7 -1 -23 2 -34 8 -17 9 -18 13 -7 21 10 7 9 8 -7
4 -43 -12 -323 217 -452 370 -67 80 -73 88 -68 101 3 7 0 12 -5 10 -14 -3
-128 163 -168 246 -19 39 -29 72 -25 83 4 13 3 15 -3 6 -11 -14 -18 -2 -56 98
-75 198 -105 346 -122 602 -7 102 4 290 16 282 5 -3 9 0 9 5 0 6 -4 11 -10 11
-5 0 -7 6 -5 13 2 6 6 35 9 62 3 28 7 57 10 65 3 8 7 33 10 55 8 75 96 321
160 450 67 136 165 290 184 290 5 0 14 4 19 9 5 5 2 6 -6 1 -9 -5 -12 -3 -9 6
3 8 11 13 17 11 7 -1 10 2 7 7 -10 16 140 184 156 175 5 -3 7 0 6 8 -2 7 3 12
10 10 8 -1 11 2 7 7 -3 6 7 21 22 35 97 84 148 124 228 178 143 96 418 227
451 214 8 -3 12 -2 9 3 -4 8 19 21 45 26 3 0 29 7 58 14 29 7 59 10 68 7 8 -3
13 -2 10 3 -3 5 11 12 31 16 25 4 38 2 44 -7 7 -10 9 -9 9 5 0 11 8 17 23 18
12 0 69 6 127 14 148 19 142 21 158 -50z m128 -1284 c223 -43 395 -205 460
-435 23 -79 23 -90 9 -221 -7 -66 -24 -113 -34 -96 -4 6 -7 -5 -7 -23 0 -83
-143 -239 -284 -310 -94 -47 -116 -53 -160 -41 -19 5 -22 4 -10 -4 11 -8 -8
-11 -73 -11 -56 0 -86 4 -82 10 8 14 -18 13 -32 -1 -7 -7 -17 -8 -25 -3 -7 5
-19 9 -26 10 -31 5 -41 14 -36 31 5 17 5 17 -6 0 -6 -9 -16 -15 -21 -12 -5 4
-7 11 -4 16 3 5 -2 6 -11 2 -12 -4 -15 -3 -10 5 5 8 2 10 -8 6 -26 -10 -152
89 -139 109 3 6 1 7 -5 3 -27 -17 -128 156 -152 263 -8 34 -11 96 -8 170 5
107 8 122 41 194 24 53 40 76 48 71 8 -4 9 -3 5 4 -23 38 207 240 246 216 6
-4 8 -3 4 4 -6 11 64 38 119 45 59 8 153 7 201 -2z"/>
</g>
</svg>
