<?xml version="1.0" standalone="no"?>
<!DOCTYPE svg PUBLIC "-//W3C//DTD SVG 20010904//EN"
 "http://www.w3.org/TR/2001/REC-SVG-20010904/DTD/svg10.dtd">
<svg version="1.0" xmlns="http://www.w3.org/2000/svg"
 width="1024.000000pt" height="1024.000000pt" viewBox="0 0 1024.000000 1024.000000"
 preserveAspectRatio="xMidYMid meet">
<metadata>
Created by potrace 1.16, written by Peter Selinger 2001-2019
</metadata>
<g transform="translate(0.000000,1024.000000) scale(0.100000,-0.100000)"
fill="#000000" stroke="none">
<path d="M5150 8595 c-8 -2 -55 -9 -105 -15 -98 -13 -286 -58 -378 -89 -32
-11 -70 -19 -85 -17 -15 2 -19 1 -8 -1 12 -3 -7 -16 -60 -40 -44 -19 -86 -35
-94 -36 -8 -1 -17 -5 -20 -8 -15 -16 -204 -108 -213 -102 -5 3 -7 1 -4 -4 9
-15 -59 -54 -81 -47 -11 4 -13 3 -5 -3 16 -11 -92 -87 -109 -77 -6 4 -8 3 -5
-3 4 -6 -17 -29 -46 -51 -29 -22 -75 -58 -101 -81 -26 -23 -52 -38 -58 -35 -6
4 -8 2 -5 -3 4 -6 -22 -37 -58 -68 -35 -31 -106 -104 -156 -161 -51 -57 -97
-101 -102 -97 -6 3 -7 1 -4 -4 4 -6 -19 -44 -50 -85 -31 -40 -90 -122 -131
-183 -41 -60 -79 -109 -84 -107 -5 1 -7 -2 -3 -8 4 -6 -14 -45 -38 -88 -24
-42 -73 -133 -107 -202 -34 -69 -66 -127 -71 -128 -5 -2 -7 -7 -4 -12 3 -5
-10 -43 -29 -85 -18 -43 -36 -73 -38 -69 -3 5 -3 4 -2 -3 2 -6 -26 -92 -62
-189 -35 -98 -72 -205 -81 -238 -13 -47 -18 -55 -25 -40 -6 14 -7 12 -3 -8 3
-16 -11 -84 -34 -165 -21 -76 -56 -216 -77 -312 -28 -128 -41 -167 -46 -150
-4 15 -5 8 -2 -16 3 -22 -4 -92 -15 -155 -63 -354 -90 -734 -73 -1025 7 -107
17 -229 23 -271 6 -43 8 -85 6 -96 -3 -10 -1 -16 4 -12 5 3 9 -7 9 -23 0 -22
-2 -25 -10 -13 -8 11 -9 7 -4 -15 8 -37 14 -44 15 -19 0 10 9 -15 19 -56 26
-107 32 -140 34 -187 1 -23 5 -45 10 -50 4 -4 5 6 2 22 -5 24 -3 22 9 -9 8
-21 12 -42 9 -47 -3 -5 -1 -9 3 -9 14 0 44 -94 37 -116 -5 -15 -4 -16 5 -4 6
9 11 10 11 3 0 -6 3 -19 7 -29 5 -13 3 -15 -7 -9 -9 5 -11 4 -6 -4 4 -6 11 -9
15 -6 12 7 61 -113 55 -133 -4 -12 -3 -13 3 -4 7 9 12 6 21 -12 7 -16 8 -28 2
-31 -6 -4 -10 -11 -10 -17 0 -7 4 -7 13 1 11 8 18 2 36 -29 12 -22 20 -40 17
-40 -3 0 2 -8 11 -19 25 -26 88 -132 86 -142 -2 -5 2 -9 8 -9 5 0 7 -5 3 -12
-4 -6 -3 -8 3 -5 6 4 30 -19 54 -51 71 -95 169 -201 259 -280 47 -41 84 -79
82 -84 -1 -5 1 -7 6 -4 5 3 52 -25 104 -62 53 -37 104 -72 114 -79 18 -12 18
-12 -1 -6 -12 4 -17 2 -12 -3 5 -5 16 -9 25 -9 10 -1 78 -31 152 -67 304 -150
615 -232 1050 -278 139 -15 575 -20 720 -9 373 30 708 112 978 239 57 27 109
47 115 43 6 -4 7 -1 2 7 -6 10 -4 12 9 7 9 -4 15 -3 12 2 -4 5 20 24 51 41
168 94 383 281 530 461 180 221 356 559 446 859 55 183 126 507 128 588 0 24
1 25 9 7 7 -15 8 -11 4 15 -3 19 0 85 6 145 14 135 14 583 0 760 -23 281 -65
549 -130 835 -16 69 -31 136 -34 150 -16 86 -170 540 -222 659 -14 30 -22 64
-19 75 3 12 2 14 -2 7 -4 -10 -20 15 -44 68 -21 46 -36 88 -32 94 3 5 2 7 -4
4 -12 -8 -85 141 -77 156 4 7 4 9 -1 5 -4 -4 -39 46 -76 112 -78 136 -168 275
-241 368 -27 34 -46 68 -42 74 4 6 3 8 -3 5 -14 -9 -125 121 -116 136 3 7 3 9
-2 5 -4 -4 -45 27 -89 70 -235 224 -465 367 -738 460 -64 22 -114 43 -110 46
3 4 -1 4 -10 1 -8 -3 -64 4 -124 16 -82 16 -155 22 -294 25 -102 1 -192 1
-200 -1z m420 -231 c238 -38 428 -110 625 -239 117 -76 237 -174 229 -187 -4
-6 -3 -8 3 -5 13 8 96 -77 86 -88 -5 -4 -3 -5 3 -2 6 3 26 -10 45 -30 19 -20
28 -33 22 -29 -7 4 -13 3 -13 -3 0 -5 -25 -22 -56 -36 -94 -45 -254 -134 -342
-191 -46 -30 -87 -52 -91 -50 -4 3 -13 0 -21 -6 -12 -8 -11 -9 4 -4 16 6 17 4
6 -9 -7 -9 -20 -13 -29 -10 -8 3 -12 3 -8 -1 4 -4 -3 -18 -15 -31 -23 -24 -44
-31 -32 -10 4 6 4 9 0 5 -4 -3 -8 -10 -7 -15 0 -15 -42 -52 -53 -46 -6 3 -8 2
-3 -2 8 -10 -82 -107 -93 -100 -4 2 -7 -2 -7 -9 0 -7 -10 -27 -23 -44 -18 -24
-26 -29 -33 -20 -6 9 -7 8 -4 -4 3 -9 -2 -27 -12 -40 -10 -13 -33 -49 -51 -80
-19 -31 -38 -54 -44 -51 -5 3 -6 1 -2 -5 9 -14 -25 -83 -37 -75 -6 3 -7 1 -3
-5 7 -12 -43 -110 -98 -192 -64 -97 -207 -237 -227 -224 -5 3 -8 1 -7 -4 3
-11 -80 -73 -187 -137 -92 -56 -470 -264 -486 -267 -7 -2 -19 -9 -28 -16 -37
-32 -178 -107 -200 -107 -16 0 -30 -10 -40 -28 -18 -31 -177 -140 -192 -131
-5 3 -8 0 -7 -6 7 -26 -375 -245 -408 -234 -13 4 -15 3 -6 -3 9 -7 -6 -18 -55
-41 -37 -17 -75 -32 -83 -34 -8 -2 -17 -6 -20 -9 -3 -4 -25 -16 -50 -29 -94
-47 -125 -100 -95 -163 15 -33 37 -49 81 -62 14 -3 88 28 233 100 117 58 218
102 224 99 7 -4 9 -3 5 1 -10 11 232 156 246 148 6 -3 8 -3 4 2 -10 11 29 38
42 30 6 -4 9 -2 8 3 -2 6 16 24 39 41 45 33 59 38 47 19 -4 -7 -3 -8 5 -4 6 4
9 11 6 16 -6 10 214 154 237 154 9 0 15 3 12 7 -6 11 87 60 99 52 5 -3 7 -2 4
4 -3 5 53 41 126 78 171 89 298 162 420 241 54 36 103 61 109 58 6 -4 8 -2 4
4 -3 6 -2 13 4 17 5 3 10 -3 10 -14 0 -12 -4 -21 -10 -21 -5 0 -7 -7 -4 -15 8
-19 -59 -284 -97 -388 -40 -109 -109 -238 -122 -230 -6 3 -7 1 -3 -6 15 -23
-165 -247 -187 -234 -7 3 -9 3 -5 -2 8 -9 -142 -172 -154 -167 -5 1 -7 -2 -6
-7 2 -5 -18 -37 -43 -72 -48 -68 -81 -121 -172 -284 -67 -121 -165 -258 -178
-249 -5 3 -8 1 -7 -4 5 -16 -62 -93 -75 -86 -7 4 -9 3 -4 -1 10 -12 -53 -76
-67 -68 -6 3 -8 3 -4 -2 4 -4 -21 -40 -56 -79 -159 -179 -332 -461 -420 -682
-40 -101 -44 -142 -19 -184 51 -87 151 -57 193 58 36 97 82 192 91 186 5 -3 7
1 4 8 -7 18 80 174 95 170 6 -1 9 2 5 7 -12 21 132 216 249 336 49 50 111 116
138 147 28 32 55 55 61 51 5 -3 7 -1 3 5 -3 6 20 47 51 91 32 44 98 151 147
238 127 224 152 258 285 391 289 289 410 535 510 1040 22 108 43 222 48 252 6
36 14 54 22 52 7 -1 10 2 6 8 -3 5 9 34 29 62 19 29 71 122 115 207 94 178
142 249 239 348 88 89 217 187 233 177 7 -4 9 -3 6 3 -4 6 30 33 76 61 116 70
357 195 359 185 0 -4 1 -15 2 -23 1 -8 7 -15 14 -15 13 0 84 -101 163 -234 53
-88 179 -324 179 -334 0 -4 -6 -5 -12 -3 -7 1 -10 1 -5 -1 4 -3 7 -11 7 -18 0
-8 4 -17 10 -20 6 -3 8 2 5 12 -3 10 10 -13 29 -51 20 -38 33 -73 30 -78 -3
-4 -1 -8 4 -8 14 0 63 -135 56 -156 -4 -13 -3 -15 3 -7 15 21 170 -434 159
-464 -3 -7 -1 -13 3 -13 9 0 73 -252 87 -337 6 -39 4 -42 -24 -57 -16 -8 -32
-12 -36 -9 -3 4 -6 2 -6 -4 0 -6 -28 -25 -62 -43 -107 -57 -255 -160 -347
-241 -49 -43 -92 -75 -96 -71 -4 4 -5 2 -3 -4 1 -6 -27 -49 -63 -95 -118 -151
-173 -248 -258 -454 -46 -110 -129 -242 -150 -237 -8 2 -11 -3 -8 -11 7 -17
-65 -91 -78 -80 -4 5 -5 3 -1 -4 8 -15 -79 -87 -95 -77 -7 4 -9 3 -5 -4 3 -6
-18 -25 -51 -45 -94 -57 -454 -227 -466 -220 -5 3 -7 2 -4 -4 8 -12 -91 -76
-104 -67 -5 3 -8 1 -7 -5 4 -13 -62 -62 -74 -55 -5 3 -7 2 -6 -3 2 -5 -25 -35
-58 -66 -58 -54 -84 -71 -68 -45 4 7 3 8 -5 4 -6 -4 -9 -11 -6 -16 3 -5 -24
-39 -59 -77 -35 -37 -74 -80 -86 -96 -12 -15 -26 -24 -32 -21 -6 4 -8 2 -5 -4
9 -14 -92 -134 -105 -125 -7 3 -8 1 -4 -6 5 -7 -46 -72 -131 -167 -76 -85
-146 -170 -156 -187 -23 -40 -16 -82 20 -119 31 -32 88 -38 127 -13 26 17 176
185 310 347 49 59 93 105 99 101 6 -3 7 -1 3 5 -4 6 13 32 37 57 24 25 41 45
38 45 -3 0 30 36 74 79 43 44 83 77 88 74 6 -3 7 -1 4 4 -9 14 80 86 94 77 7
-4 9 -3 6 3 -12 19 154 120 175 107 6 -4 8 -3 5 3 -3 5 87 55 201 110 114 56
231 117 260 137 l52 35 -6 -27 c-4 -15 -9 -31 -12 -37 -4 -5 -7 -16 -8 -25 -3
-32 -28 -100 -36 -100 -5 0 -6 -5 -3 -11 15 -24 -123 -377 -146 -371 -6 1 -8
-2 -4 -8 10 -17 -66 -170 -84 -170 -13 0 -13 -2 -3 -9 12 -7 11 -13 -1 -37 -8
-16 -27 -69 -43 -117 -21 -65 -30 -83 -36 -70 -5 11 -6 7 -3 -12 3 -16 -4 -73
-15 -125 -29 -138 -27 -185 9 -221 16 -16 38 -29 48 -30 76 -5 108 21 123 100
40 213 86 348 197 585 87 185 160 397 237 691 86 328 164 542 257 705 53 94
80 131 90 124 5 -3 7 1 4 8 -7 17 103 140 117 132 6 -4 8 -2 4 4 -8 13 88 100
179 161 94 63 181 111 189 104 3 -4 6 -2 6 4 0 8 41 33 54 33 6 0 29 -231 23
-237 -4 -3 -3 -11 2 -17 19 -23 34 -326 28 -588 -9 -431 -69 -784 -187 -1108
-76 -208 -219 -488 -242 -474 -7 4 -8 2 -4 -4 4 -7 -15 -44 -43 -85 -50 -70
-120 -156 -105 -128 5 9 3 12 -5 7 -6 -4 -9 -11 -6 -15 7 -13 -65 -92 -77 -85
-6 4 -8 3 -5 -3 12 -19 -157 -166 -285 -249 -107 -69 -256 -146 -268 -139 -5
3 -10 2 -10 -4 0 -13 -160 -74 -289 -110 -440 -124 -1036 -143 -1566 -50 -134
23 -315 71 -308 82 4 6 0 8 -10 4 -48 -18 -555 210 -530 238 5 4 3 5 -3 2 -23
-13 -311 214 -298 235 4 7 2 8 -4 4 -6 -4 -45 32 -92 86 -309 354 -498 845
-525 1368 -3 52 -7 131 -9 175 -6 114 11 424 35 605 26 209 60 400 70 395 4
-3 5 3 2 13 -2 10 12 91 32 180 150 674 399 1273 697 1675 27 37 54 65 58 62
5 -3 12 0 16 6 4 8 3 9 -4 5 -54 -33 97 141 255 294 145 142 247 225 265 214
7 -4 8 -3 4 4 -4 7 32 37 95 77 110 72 137 86 124 65 -5 -9 -4 -11 4 -6 6 4 9
11 6 16 -6 10 123 77 230 120 352 141 677 184 995 134z"/>
</g>
</svg>
