<?xml version="1.0" standalone="no"?>
<!DOCTYPE svg PUBLIC "-//W3C//DTD SVG 20010904//EN"
 "http://www.w3.org/TR/2001/REC-SVG-20010904/DTD/svg10.dtd">
<svg version="1.0" xmlns="http://www.w3.org/2000/svg"
 width="1024.000000pt" height="1024.000000pt" viewBox="0 0 1024.000000 1024.000000"
 preserveAspectRatio="xMidYMid meet">
<metadata>
Created by potrace 1.16, written by Peter Selinger 2001-2019
</metadata>
<g transform="translate(0.000000,1024.000000) scale(0.100000,-0.100000)"
fill="#000000" stroke="none">
<path d="M3085 7607 c-126 -42 -205 -108 -257 -215 -31 -64 -33 -72 -33 -182
0 -124 14 -172 72 -240 14 -17 21 -35 17 -42 -4 -7 -4 -10 1 -6 4 4 24 -5 44
-21 20 -15 46 -33 59 -40 12 -7 21 -15 18 -19 -2 -4 6 -8 17 -9 12 -1 53 -9
90 -18 196 -45 409 64 478 246 19 51 24 83 24 159 0 88 -3 100 -34 165 -42 86
-110 153 -198 197 -59 29 -77 33 -162 35 -60 2 -111 -2 -136 -10z m211 -144
c72 -24 148 -104 169 -176 13 -46 14 -67 6 -113 -6 -32 -11 -59 -11 -61 0 -2
-4 -1 -10 2 -5 3 -7 0 -5 -7 7 -17 -34 -73 -76 -104 -55 -40 -112 -57 -181
-52 -160 11 -271 139 -255 293 17 170 194 276 363 218z"/>
<path d="M3000 6694 c-170 -21 -314 -112 -390 -248 -18 -32 -36 -53 -42 -49
-7 3 -8 1 -4 -5 4 -6 -1 -35 -10 -64 -15 -44 -18 -111 -23 -401 -4 -227 -3
-348 4 -351 6 -3 -126 -5 -292 -5 -289 -1 -304 -2 -323 -21 -26 -26 -26 -81
-2 -103 16 -15 53 -17 314 -17 l295 0 7 -77 c3 -42 6 -103 6 -135 0 -74 19
-110 76 -140 24 -12 40 -26 38 -30 -3 -4 1 -5 9 -2 8 3 18 -1 24 -8 8 -10 27
-348 31 -558 0 -14 3 -45 5 -70 13 -112 18 -372 8 -366 -6 4 -11 0 -11 -9 0
-9 5 -13 10 -10 6 3 10 1 10 -4 0 -8 -123 -11 -394 -11 -383 0 -394 -1 -420
-21 -33 -26 -34 -68 -3 -97 23 -21 28 -22 420 -22 218 -1 397 -2 398 -3 0 -1
4 -55 8 -119 10 -139 23 -168 76 -168 37 0 62 19 71 55 3 13 1 104 -4 202 -6
98 -11 187 -11 198 -1 40 -11 276 -16 357 -3 46 -10 220 -16 388 -12 338 -14
350 -79 382 -19 9 -40 21 -46 27 -7 5 -14 8 -17 5 -2 -2 -10 3 -18 12 -12 14
-14 107 -14 533 l0 516 29 67 c19 45 46 86 80 121 54 55 138 102 163 93 8 -3
11 -1 8 4 -3 6 0 10 8 10 8 0 29 3 47 7 19 3 31 2 28 -3 -4 -5 78 -9 195 -9
198 0 203 -1 252 -26 37 -19 49 -31 47 -45 -2 -15 -1 -16 7 -4 8 12 12 12 29
-3 30 -28 84 -107 72 -107 -6 0 -14 10 -19 22 -6 17 -9 18 -14 5 -3 -9 0 -18
9 -21 8 -3 14 -12 14 -20 0 -7 7 -17 16 -20 14 -5 15 -4 4 9 -7 9 -8 15 -2 15
11 0 35 -60 27 -68 -3 -3 1 -12 8 -20 9 -11 12 -111 14 -401 1 -220 -2 -375
-7 -361 -5 17 -8 -10 -8 -80 1 -67 3 -90 7 -65 6 36 7 33 14 -36 9 -94 -2
-124 -52 -140 -89 -29 -97 -48 -105 -238 -3 -74 -9 -137 -13 -140 -12 -8 -11
-71 0 -71 5 0 6 -42 2 -102 -7 -110 -15 -267 -19 -413 -1 -49 -6 -205 -11
-346 l-8 -256 23 -21 c31 -29 65 -28 95 3 20 19 25 34 25 73 0 71 12 172 19
167 4 -2 13 1 21 6 12 8 11 9 -4 7 -10 -2 -21 3 -23 10 -4 9 172 12 856 12
775 0 926 -4 854 -23 -10 -3 7 -5 37 -4 30 0 45 2 33 4 -52 10 -17 20 67 19
l89 -1 -25 -21 c-13 -12 -106 -98 -206 -190 -169 -158 -216 -198 -228 -199 -3
0 -4 -3 -3 -7 1 -3 -75 -77 -170 -165 -94 -87 -230 -212 -302 -278 -71 -66
-176 -162 -232 -214 -113 -103 -122 -123 -78 -166 46 -47 72 -35 200 85 120
113 205 192 345 320 74 68 281 259 459 424 178 166 326 299 328 296 2 -3 6
-147 9 -320 4 -291 6 -316 23 -334 24 -23 66 -24 91 -1 19 17 20 33 20 435 0
407 -1 418 -21 444 -19 24 -27 26 -97 27 -42 0 -112 4 -154 7 -43 4 -78 4 -78
0 0 -4 -6 -5 -14 -2 -12 5 -15 116 -16 762 l-1 756 -21 23 -21 23 -773 0 -772
0 -6 163 c-3 89 -8 245 -10 347 -5 203 -13 246 -56 333 -16 32 -28 63 -26 70
1 7 1 8 -2 4 -2 -5 -32 21 -66 56 -61 64 -127 105 -215 134 -45 15 -388 27
-471 17z m1606 -1976 l1 -706 -478 -2 c-538 -1 -486 -9 -472 75 6 36 7 38 14
15 l7 -25 1 28 c1 15 -3 27 -9 27 -17 0 -14 124 15 620 4 58 6 133 5 167 -2
109 5 127 61 153 27 13 59 35 73 50 23 26 24 32 22 169 l-1 141 380 -2 380 -3
1 -707z m694 641 c0 -44 -4 -68 -10 -64 -6 4 -9 -10 -9 -37 l2 -43 7 35 c4 19
8 -251 9 -601 l1 -636 -37 -6 c-21 -3 -103 -3 -183 -1 -80 3 -188 6 -240 7
l-95 2 3 707 2 708 275 0 275 0 0 -71z"/>
<path d="M4179 6052 c-24 -17 -25 -73 -1 -101 l17 -20 1570 -4 c1027 -3 1615
-8 1700 -16 199 -17 315 -32 315 -43 0 -5 -4 -6 -10 -3 -5 3 -10 1 -10 -4 0
-14 6 -14 29 0 33 21 255 -36 276 -72 16 -25 -46 -63 -172 -105 -77 -26 -293
-81 -342 -88 -14 -2 -33 -6 -41 -9 -8 -3 -69 -18 -135 -32 -160 -36 -355 -97
-433 -135 -34 -16 -65 -30 -68 -30 -14 0 -159 -105 -183 -132 -91 -106 -102
-245 -28 -355 43 -64 126 -129 287 -225 233 -138 389 -265 470 -380 195 -278
166 -621 -81 -950 -82 -110 -188 -218 -207 -212 -12 4 -14 3 -4 -3 10 -8 3
-19 -28 -47 -22 -20 -46 -34 -52 -30 -6 4 -8 3 -4 -4 10 -16 -247 -214 -393
-304 -71 -43 -85 -74 -54 -116 14 -19 31 -28 55 -30 29 -2 53 10 154 77 570
382 862 776 881 1187 6 132 -6 217 -48 326 -82 211 -255 388 -551 564 -350
207 -405 293 -271 423 104 101 307 176 718 267 465 102 649 184 671 300 8 43
-8 101 -38 139 -52 66 -232 118 -518 151 -156 18 -622 23 -2354 27 -891 2
-1102 0 -1117 -11z"/>
<path d="M3173 5068 c-38 -18 -44 -54 -46 -289 -1 -135 -6 -227 -12 -231 -7
-5 -7 -8 0 -8 7 0 11 -152 11 -451 1 -428 2 -452 21 -477 27 -36 46 -46 76
-38 60 15 58 -8 58 712 1 822 4 740 -26 769 -26 27 -47 30 -82 13z"/>
</g>
</svg>
