<?xml version="1.0" standalone="no"?>
<!DOCTYPE svg PUBLIC "-//W3C//DTD SVG 20010904//EN"
 "http://www.w3.org/TR/2001/REC-SVG-20010904/DTD/svg10.dtd">
<svg version="1.0" xmlns="http://www.w3.org/2000/svg"
 width="1024.000000pt" height="1024.000000pt" viewBox="0 0 1024.000000 1024.000000"
 preserveAspectRatio="xMidYMid meet">
<metadata>
Created by potrace 1.16, written by Peter Selinger 2001-2019
</metadata>
<g transform="translate(0.000000,1024.000000) scale(0.100000,-0.100000)"
fill="#000000" stroke="none">
<path d="M5654 8350 c-194 -21 -390 -80 -562 -171 -63 -32 -119 -56 -124 -52
-6 3 -8 1 -5 -4 8 -13 -41 -47 -65 -46 -10 1 -20 -3 -24 -8 -3 -6 -12 -5 -22
3 -15 12 -16 11 -3 -5 11 -13 17 -15 28 -6 7 7 16 10 18 7 3 -3 -13 -17 -34
-31 -56 -37 -232 -208 -290 -281 -27 -34 -71 -94 -98 -133 -28 -40 -53 -70
-56 -67 -3 3 -4 -1 -4 -8 1 -7 -21 -58 -49 -113 -56 -108 -106 -242 -131 -345
-39 -168 -43 -231 -44 -830 -1 -322 -4 -573 -6 -557 -6 38 -19 34 -17 -7 1
-18 -1 -38 -5 -44 -4 -7 -178 -12 -536 -14 -503 -4 -534 -5 -599 -25 -38 -12
-74 -20 -80 -19 -6 2 -7 1 -3 -2 5 -2 -20 -20 -54 -39 -35 -19 -82 -50 -105
-69 -22 -19 -44 -30 -48 -26 -4 4 -6 2 -4 -3 5 -16 -74 -115 -85 -108 -6 3 -7
1 -4 -4 9 -14 -37 -95 -48 -86 -4 5 -5 2 -1 -5 4 -7 -2 -38 -14 -70 -12 -31
-25 -97 -29 -147 -5 -49 -8 -540 -7 -1090 2 -1105 -1 -1041 67 -1235 17 -47
31 -91 31 -97 1 -7 4 -13 8 -13 12 0 31 -51 24 -63 -4 -7 -4 -9 1 -5 11 11 38
-29 29 -44 -4 -7 -3 -8 4 -4 6 3 16 -3 22 -15 7 -12 8 -19 3 -16 -6 4 -10 -7
-11 -23 0 -17 3 -30 8 -30 4 0 7 6 6 14 -1 13 13 23 15 12 1 -6 65 -80 129
-149 60 -64 173 -160 233 -196 20 -12 37 -25 37 -27 0 -3 -5 -2 -12 2 -7 4 -8
3 -4 -4 4 -6 14 -8 23 -5 12 5 14 3 8 -7 -5 -9 -4 -11 3 -6 15 9 54 -12 47
-24 -3 -6 1 -7 9 -4 8 3 25 -1 38 -9 13 -8 45 -23 71 -32 35 -13 44 -21 35
-27 -9 -6 -3 -7 15 -3 16 3 26 2 24 -2 -3 -4 5 -8 16 -9 12 0 67 -10 122 -22
110 -23 165 -31 210 -32 21 0 26 -3 16 -9 -16 -11 37 -18 89 -12 33 4 33 4 10
11 -18 6 -11 8 30 8 39 1 49 -2 35 -8 -18 -8 -17 -9 8 -9 16 -1 26 3 22 9 -4
7 250 10 756 10 825 0 870 2 1057 56 172 49 427 198 536 313 16 17 34 27 40
24 6 -3 8 -3 4 2 -4 4 22 42 57 85 35 43 75 99 90 124 15 25 31 44 36 40 5 -3
6 3 2 12 -5 13 -3 15 7 9 8 -5 11 -4 6 3 -4 6 4 33 17 59 34 67 73 184 92 278
15 71 17 194 17 1125 1 1097 1 1101 -43 1213 -11 27 -15 46 -9 42 5 -3 10 1
10 9 0 9 -6 13 -14 10 -16 -6 -60 62 -50 78 4 6 2 8 -3 5 -6 -4 -19 6 -29 21
-15 23 -134 144 -134 136 0 -1 -26 13 -57 32 -31 19 -61 34 -66 34 -4 0 -5 5
-1 12 4 7 3 8 -4 4 -6 -4 -32 0 -57 8 -97 33 -182 37 -995 39 l-815 2 -3 505
c-3 545 4 693 42 860 26 116 82 270 97 270 6 0 7 4 4 10 -9 15 34 92 47 84 7
-4 8 -3 4 5 -11 17 73 157 88 146 3 -3 4 -2 1 2 -11 15 111 167 126 157 5 -3
8 0 7 8 -2 7 4 12 12 10 8 -2 12 0 7 4 -8 8 80 104 96 104 4 0 5 -5 1 -12 -4
-7 -3 -8 5 -4 6 4 9 11 6 16 -11 17 168 145 187 134 6 -4 8 -3 5 3 -8 12 141
86 155 77 6 -4 8 -3 5 3 -3 5 22 19 56 31 175 60 367 88 552 79 131 -6 298
-34 289 -48 -3 -5 1 -6 9 -3 32 12 335 -115 322 -136 -3 -5 0 -7 7 -5 17 7
141 -73 133 -85 -3 -6 0 -7 8 -5 13 6 45 -22 46 -39 0 -6 8 -11 16 -12 24 -3
46 -25 38 -37 -3 -5 -2 -7 4 -4 5 3 24 -9 42 -27 22 -22 28 -35 20 -38 -9 -3
-8 -6 5 -11 10 -4 15 -3 11 3 -14 23 8 7 40 -29 57 -63 76 -89 80 -112 3 -12
7 -24 11 -28 4 -3 4 3 0 14 -5 16 -2 15 14 -5 33 -41 60 -90 48 -87 -6 1 -13
-4 -16 -12 -3 -10 1 -12 17 -8 25 6 41 -15 34 -47 -4 -16 -2 -18 5 -7 8 11 11
9 18 -10 4 -13 8 -30 8 -37 1 -7 6 -16 12 -20 18 -12 46 -73 40 -88 -3 -8 -2
-13 3 -9 16 9 70 -177 90 -310 6 -40 11 -285 12 -565 1 -272 4 -487 6 -477 4
15 9 14 35 -12 17 -17 43 -33 59 -36 42 -9 96 21 119 66 19 36 20 62 20 461 0
560 -18 705 -123 967 -23 58 -41 115 -39 126 1 13 -1 16 -6 7 -11 -17 -44 51
-36 75 4 12 3 14 -3 6 -11 -16 -48 42 -37 59 4 6 3 8 -3 5 -6 -4 -23 12 -38
36 -34 51 -168 219 -189 237 -9 7 -13 17 -9 23 3 5 1 7 -4 4 -13 -8 -46 27
-36 38 5 4 3 5 -3 2 -13 -7 -97 61 -90 72 3 4 0 8 -7 8 -7 0 -50 27 -97 60
-88 63 -252 153 -352 193 -31 13 -54 28 -51 33 3 6 1 7 -6 3 -6 -4 -55 4 -109
18 -197 51 -421 68 -628 46z m429 -2944 c154 -17 318 -175 357 -346 15 -65 26
-1380 12 -1380 -5 0 -9 -7 -9 -15 0 -8 5 -11 10 -8 16 10 1 -670 -17 -749 -29
-130 -91 -282 -110 -271 -6 3 -8 3 -4 -2 8 -9 -13 -54 -50 -105 -35 -49 -220
-230 -235 -230 -8 0 -6 4 3 11 13 9 13 10 0 6 -8 -2 -15 -9 -15 -15 0 -15 -40
-43 -117 -83 -63 -32 -73 -35 -62 -17 4 7 3 8 -5 4 -6 -4 -9 -11 -6 -16 7 -12
-81 -44 -96 -35 -7 5 -10 4 -6 -2 8 -13 -51 -29 -181 -48 -81 -13 -243 -15
-982 -12 l-885 3 -106 26 c-58 14 -136 40 -173 57 -101 46 -187 101 -180 114
4 7 4 9 -1 5 -4 -4 -16 -3 -27 3 -34 18 -98 81 -92 90 3 5 -1 6 -9 4 -16 -7
-127 120 -179 206 -54 89 -98 201 -119 304 -20 95 -25 188 -9 150 6 -15 9 -7
8 30 0 39 -2 45 -8 25 -7 -22 -8 -20 -9 15 -5 135 -6 1803 -1 1800 3 -2 3 21
2 50 -6 96 39 211 117 298 45 51 118 98 139 90 9 -4 13 -2 9 4 -10 16 55 36
138 42 86 7 2831 4 2898 -3z"/>
<path d="M4470 4571 c-30 -10 -74 -27 -97 -39 -49 -25 -57 -27 -47 -9 4 7 3 9
-2 4 -5 -5 -9 -13 -9 -19 0 -6 -15 -22 -33 -36 -28 -21 -32 -22 -26 -6 4 10 4
16 0 12 -4 -3 -8 -13 -10 -21 -4 -27 -37 -68 -49 -61 -7 4 -9 4 -5 -1 4 -4 -2
-25 -12 -46 -15 -28 -25 -37 -38 -33 -12 4 -14 3 -4 -4 11 -7 10 -19 -5 -63
-13 -38 -18 -83 -18 -154 1 -85 5 -110 27 -164 15 -36 24 -69 21 -75 -3 -6 -3
-8 2 -4 4 4 24 -14 43 -40 20 -26 42 -51 49 -55 7 -5 10 -14 7 -20 -4 -7 -4
-9 0 -5 5 4 31 -9 58 -27 27 -19 75 -44 106 -55 l57 -21 2 -51 c2 -28 -2 -57
-8 -64 -7 -8 -7 -14 1 -19 13 -8 13 -65 0 -65 -5 0 -10 -5 -10 -11 0 -5 5 -7
10 -4 7 4 9 -76 8 -239 -2 -135 0 -238 4 -228 6 15 7 16 7 0 1 -9 15 -30 32
-47 26 -26 38 -31 79 -31 63 0 104 38 114 102 3 24 4 181 1 349 l-5 305 54 18
c30 9 79 33 108 53 29 20 58 36 65 36 7 0 11 3 10 6 -4 13 67 90 77 84 6 -3 8
-3 4 2 -4 4 4 30 19 58 47 94 56 128 57 234 1 56 -2 100 -5 97 -4 -2 -10 11
-13 29 -3 19 -22 59 -41 91 -18 31 -30 54 -24 51 5 -4 9 -1 9 4 0 6 -6 11 -13
11 -7 0 -29 16 -48 36 -18 20 -61 54 -93 75 -55 36 -69 52 -25 29 13 -7 19 -7
19 0 0 10 -3 11 -50 16 -14 1 -52 9 -85 18 -78 21 -205 20 -275 -3z m252 -237
c58 -30 98 -66 126 -113 23 -39 27 -57 27 -121 0 -63 -5 -83 -27 -120 -32 -56
-63 -84 -79 -74 -8 4 -10 3 -5 -5 5 -7 -9 -19 -39 -32 -56 -25 -152 -29 -209
-10 -51 18 -127 87 -119 108 4 11 2 14 -6 9 -18 -11 -43 60 -44 126 -1 109 78
214 187 248 43 13 149 4 188 -16z"/>
</g>
</svg>
