<?xml version="1.0" standalone="no"?>
<!DOCTYPE svg PUBLIC "-//W3C//DTD SVG 20010904//EN"
 "http://www.w3.org/TR/2001/REC-SVG-20010904/DTD/svg10.dtd">
<svg version="1.0" xmlns="http://www.w3.org/2000/svg"
 width="1024.000000pt" height="1024.000000pt" viewBox="0 0 1024.000000 1024.000000"
 preserveAspectRatio="xMidYMid meet">
<metadata>
Created by potrace 1.16, written by Peter Selinger 2001-2019
</metadata>
<g transform="translate(0.000000,1024.000000) scale(0.100000,-0.100000)"
fill="#000000" stroke="none">
<path d="M6460 7830 c-182 -29 -403 -115 -530 -206 -27 -20 -54 -33 -60 -29
-6 4 -9 2 -8 -3 4 -14 -82 -83 -94 -75 -6 3 -8 2 -5 -4 7 -11 -66 -86 -76 -78
-4 3 -5 2 -2 -2 8 -10 -66 -83 -77 -77 -5 3 -7 1 -6 -4 3 -10 -136 -156 -492
-517 -238 -241 -462 -481 -506 -543 -23 -32 -41 -43 -98 -62 -137 -46 -252
-106 -365 -192 -35 -26 -68 -45 -74 -41 -5 3 -7 2 -4 -4 8 -13 -237 -256 -248
-246 -4 4 -5 3 -2 -3 8 -14 -136 -157 -148 -147 -4 4 -5 3 -2 -3 8 -14 -46
-67 -58 -57 -4 5 -5 3 -2 -3 8 -14 -66 -87 -78 -77 -4 5 -5 3 -2 -3 6 -10 -80
-103 -95 -104 -5 0 -7 -2 -5 -4 5 -10 -67 -75 -76 -69 -6 3 -7 2 -4 -4 8 -13
-237 -256 -248 -246 -4 4 -5 3 -1 -4 3 -6 -4 -19 -16 -27 -12 -9 -20 -16 -17
-16 2 0 -47 -53 -109 -118 -63 -64 -137 -143 -165 -174 -27 -32 -54 -55 -60
-51 -5 3 -7 1 -4 -4 4 -6 -18 -48 -49 -94 -106 -159 -180 -341 -208 -519 -15
-93 -27 -378 -15 -358 3 5 9 -16 13 -48 10 -88 53 -229 102 -333 24 -51 41
-98 37 -104 -3 -5 -1 -7 4 -4 14 9 66 -70 57 -85 -4 -7 -3 -8 4 -4 13 8 35
-28 24 -39 -4 -3 -2 -5 4 -3 6 2 36 -26 66 -62 31 -36 70 -75 87 -88 17 -12
31 -30 31 -40 0 -9 10 -23 23 -31 l22 -14 -20 24 -20 23 25 -16 c14 -9 24 -22
22 -28 -1 -6 1 -9 6 -7 4 3 19 -3 32 -14 20 -16 21 -18 5 -13 -11 4 -17 4 -14
0 4 -4 16 -9 29 -11 12 -2 43 -18 69 -34 67 -43 206 -106 278 -126 35 -10 61
-21 58 -25 -2 -4 7 -5 20 -2 14 2 25 0 25 -5 0 -6 12 -10 28 -10 15 0 79 -5
142 -12 122 -13 225 -9 355 15 94 17 250 66 318 101 26 13 52 21 58 18 5 -4 8
-2 7 3 -2 5 47 42 107 82 102 67 153 115 694 659 322 322 589 585 594 583 4
-1 6 1 3 6 -7 12 58 74 69 65 4 -5 5 -3 2 3 -3 6 26 44 66 86 52 54 81 77 106
81 18 4 38 4 44 0 6 -3 7 -1 3 5 -4 7 -1 12 6 12 40 0 218 105 314 186 28 24
55 40 59 36 5 -4 6 -2 2 3 -6 12 962 972 976 967 4 -1 6 2 3 6 -3 5 4 18 16
28 11 11 73 75 136 144 64 69 120 124 125 122 5 -1 6 1 3 6 -7 12 42 78 55 74
6 -1 8 2 5 7 -9 14 5 42 18 34 6 -3 8 -3 4 2 -4 4 13 44 37 89 123 227 172
531 130 795 -9 52 -13 101 -10 108 2 8 1 12 -4 9 -4 -3 -16 24 -26 60 -33 122
-137 313 -233 428 -23 27 -38 54 -35 60 3 6 3 8 -2 4 -8 -8 -181 143 -177 155
1 4 -3 7 -10 5 -20 -3 -119 62 -112 74 4 6 1 9 -7 6 -7 -2 -59 17 -114 42
-116 55 -174 75 -268 91 -37 7 -63 15 -57 19 15 9 -348 9 -410 0z m343 -165
c50 -8 118 -22 150 -30 79 -20 211 -74 234 -94 10 -9 25 -17 32 -19 19 -4 119
-74 161 -112 19 -18 28 -27 18 -21 -12 9 -18 9 -24 0 -4 -7 -3 -9 4 -5 6 3 13
2 17 -4 4 -6 10 -8 15 -5 11 7 116 -103 113 -116 -2 -5 3 -8 10 -6 6 1 11 -6
11 -15 -1 -10 2 -15 7 -12 12 7 92 -118 129 -202 32 -71 37 -89 18 -78 -7 4
-8 3 -4 -5 4 -6 11 -9 15 -6 17 10 56 -168 55 -255 0 -55 2 -76 7 -60 5 15 6
-2 4 -45 -2 -38 -4 -88 -5 -110 -4 -100 -61 -322 -80 -310 -6 3 -7 -1 -4 -9 8
-20 -69 -166 -133 -251 -68 -90 -312 -337 -326 -328 -5 3 -7 1 -4 -4 8 -12
-139 -159 -154 -155 -6 1 -8 -2 -5 -7 8 -12 -34 -52 -46 -45 -5 3 -7 1 -6 -5
2 -5 -58 -71 -132 -146 -123 -124 -136 -134 -148 -118 -12 16 -13 16 -7 -7 5
-22 -13 -44 -145 -175 -83 -82 -152 -149 -155 -147 -3 1 -5 -1 -5 -5 -1 -16
-124 -132 -133 -126 -6 3 -7 1 -4 -5 9 -13 -92 -94 -106 -85 -5 3 -7 1 -4 -4
4 -6 -18 -27 -48 -47 -30 -20 -55 -32 -55 -26 0 5 4 10 9 10 14 0 77 130 104
215 54 174 70 397 41 565 -7 41 -11 84 -7 95 3 11 2 17 -2 12 -5 -4 -22 35
-39 85 -18 51 -53 133 -79 182 -26 48 -44 93 -40 99 3 6 1 7 -5 3 -13 -8 -64
63 -55 77 3 6 1 7 -4 4 -6 -4 -23 12 -39 34 -63 91 -263 251 -406 324 -38 20
-53 32 -45 38 7 5 4 6 -9 2 -11 -3 -36 1 -54 9 -28 11 -30 15 -14 18 10 3 3 5
-16 5 -19 0 -80 13 -135 28 -89 25 -119 29 -269 31 -93 2 -171 6 -174 9 -3 3
6 5 19 6 13 0 18 3 12 6 -8 3 16 37 64 88 42 46 80 82 85 79 5 -3 7 -1 6 5 -2
5 144 160 323 343 179 183 359 369 400 412 94 101 218 207 232 199 6 -3 7 -1
3 5 -14 23 225 149 338 178 22 5 27 4 21 -6 -5 -9 -4 -11 4 -6 6 4 9 11 6 16
-3 4 39 16 92 25 54 9 105 18 113 20 41 8 170 3 253 -10z m-1610 -1550 c93
-20 198 -56 191 -66 -3 -5 2 -6 10 -3 21 8 158 -65 149 -80 -3 -6 -3 -8 2 -4
4 4 17 2 29 -4 38 -20 125 -90 123 -98 -1 -4 2 -8 6 -8 19 0 68 -57 63 -74 -4
-19 10 -25 16 -7 2 6 21 -8 41 -30 21 -23 35 -47 31 -53 -4 -6 -3 -8 4 -4 15
9 83 -104 76 -126 -3 -10 0 -18 6 -18 6 0 8 5 5 10 -3 6 -4 10 -1 10 11 0 67
-134 61 -148 -2 -7 -1 -11 4 -8 9 6 36 -83 27 -91 -2 -2 -7 9 -11 26 -8 38
-20 47 -20 16 0 -13 3 -21 8 -18 4 2 7 -3 7 -12 0 -8 6 -18 14 -21 16 -6 21
-31 36 -161 19 -170 -16 -368 -96 -544 -21 -45 -41 -76 -47 -72 -5 3 -7 2 -4
-4 8 -12 -60 -109 -73 -106 -5 2 -7 -3 -4 -10 20 -53 -328 -83 -498 -43 -43
10 -78 22 -78 28 0 5 -4 6 -10 3 -38 -23 -413 194 -393 229 3 6 2 8 -2 3 -11
-10 -76 53 -68 66 3 6 1 7 -5 3 -19 -11 -149 155 -136 175 4 8 3 9 -4 5 -14
-8 -46 50 -36 66 4 6 3 8 -3 5 -9 -6 -53 79 -78 148 -39 110 -65 290 -59 402
9 151 54 360 75 348 5 -3 6 1 3 9 -3 8 6 38 20 68 27 57 103 178 112 178 3 0
2 -4 -1 -10 -3 -5 -1 -10 4 -10 6 0 11 7 11 15 0 8 6 15 13 15 6 1 50 7 97 15
99 17 279 12 383 -10z m-776 -142 c-13 -26 -34 -82 -46 -123 -13 -41 -27 -86
-32 -100 -8 -21 -9 -22 -5 -2 2 13 0 19 -6 16 -5 -3 -7 -25 -5 -48 3 -22 1
-86 -5 -141 -9 -91 -5 -182 17 -375 4 -34 4 -34 -4 -5 l-9 30 0 -30 c0 -16 3
-39 8 -50 l9 -20 0 20 c1 24 73 -170 75 -202 0 -12 3 -19 5 -17 5 4 70 -110
74 -129 1 -7 9 -17 17 -24 8 -7 12 -13 8 -13 -3 0 7 -14 23 -31 16 -18 28 -33
26 -35 -2 -2 16 -25 39 -51 24 -25 41 -49 39 -53 -2 -3 1 -12 7 -20 8 -12 9
-12 4 3 -3 9 -4 17 -3 17 2 0 25 -23 52 -51 28 -29 45 -49 38 -45 -6 3 -14 2
-18 -3 -3 -6 3 -8 14 -6 11 2 33 -10 54 -28 19 -18 48 -40 63 -49 16 -10 28
-22 26 -28 -1 -7 2 -9 7 -6 5 3 33 -9 63 -27 29 -17 73 -41 96 -51 31 -14 39
-22 30 -29 -9 -6 -8 -7 4 -3 10 3 49 -6 87 -19 136 -46 218 -59 367 -60 78 0
137 -3 130 -7 -6 -4 -20 -8 -31 -8 -13 0 -16 -3 -8 -8 8 -5 -56 -76 -196 -216
-115 -115 -211 -204 -213 -200 -3 5 -3 3 -2 -3 4 -15 -193 -209 -208 -205 -5
1 -7 -1 -4 -6 5 -9 -446 -472 -538 -552 -33 -28 -66 -48 -73 -45 -8 2 -11 1
-8 -4 8 -13 -83 -74 -97 -65 -6 4 -8 3 -5 -3 10 -15 -155 -89 -268 -120 -93
-25 -113 -27 -290 -27 -177 0 -197 2 -290 28 -111 31 -288 113 -278 129 3 6 1
7 -6 3 -35 -22 -357 280 -336 314 4 6 1 9 -6 8 -7 -2 -38 45 -71 111 -57 111
-70 150 -46 135 7 -4 8 -3 4 5 -4 6 -11 9 -16 6 -11 -7 -48 153 -60 262 -9 82
-1 251 15 303 2 8 7 29 9 45 9 52 59 184 67 179 5 -3 6 1 4 8 -6 14 48 125 68
143 7 6 13 16 15 24 6 26 65 100 75 94 6 -3 7 -1 3 5 -12 19 259 306 278 295
6 -3 8 -2 3 2 -10 12 93 116 107 108 6 -3 7 -2 3 2 -10 11 273 296 286 288 6
-3 7 -2 4 4 -3 5 130 148 295 317 291 296 456 443 486 431 7 -3 11 -1 8 4 -5
8 85 63 92 56 2 -2 -8 -25 -21 -52z"/>
</g>
</svg>
