<?xml version="1.0" standalone="no"?>
<!DOCTYPE svg PUBLIC "-//W3C//DTD SVG 20010904//EN"
 "http://www.w3.org/TR/2001/REC-SVG-20010904/DTD/svg10.dtd">
<svg version="1.0" xmlns="http://www.w3.org/2000/svg"
 width="1024.000000pt" height="1024.000000pt" viewBox="0 0 1024.000000 1024.000000"
 preserveAspectRatio="xMidYMid meet">
<metadata>
Created by potrace 1.16, written by Peter Selinger 2001-2019
</metadata>
<g transform="translate(0.000000,1024.000000) scale(0.100000,-0.100000)"
fill="#000000" stroke="none">
<path d="M3842 6688 c-15 -18 -64 -307 -57 -338 6 -25 2 -27 -207 -98 -117
-40 -220 -72 -230 -72 -9 0 -154 40 -321 90 -168 49 -313 87 -321 84 -9 -3
-16 -14 -16 -24 0 -14 22 -25 98 -48 123 -39 534 -161 587 -175 22 -5 44 -13
49 -17 4 -5 -45 -25 -110 -45 -265 -82 -369 -117 -379 -127 -18 -17 20 -34
248 -108 122 -40 308 -102 412 -137 710 -241 1690 -568 2160 -720 77 -25 219
-71 315 -103 96 -32 236 -77 310 -100 74 -23 139 -46 144 -50 10 -10 -104 -64
-464 -218 -52 -23 -142 -62 -200 -87 -58 -26 -172 -75 -255 -110 -82 -34 -247
-104 -365 -155 -318 -135 -339 -144 -790 -331 -500 -206 -651 -270 -968 -405
-133 -57 -244 -104 -247 -104 -2 0 -84 -34 -182 -77 -201 -86 -362 -154 -443
-188 -92 -37 -772 -331 -815 -351 -41 -20 -57 -50 -32 -60 9 -3 129 44 269
104 312 135 478 206 768 328 124 52 239 101 255 108 29 14 212 91 385 163 146
61 224 94 255 108 17 7 37 15 45 17 8 2 17 6 20 9 3 3 41 20 85 38 44 18 136
57 205 86 69 29 202 85 295 124 94 38 236 97 317 130 80 34 149 61 152 61 3 0
29 11 58 24 78 35 577 246 582 246 3 0 29 11 58 24 109 50 326 145 409 179 48
20 116 49 150 66 35 16 123 55 194 86 72 31 148 64 170 74 22 10 74 32 116 50
l76 33 93 -28 92 -29 -6 -80 c-3 -44 -6 -111 -6 -150 l0 -70 -103 -47 c-56
-26 -235 -111 -397 -189 -162 -77 -322 -154 -355 -169 -97 -45 -241 -113 -560
-265 -165 -78 -338 -160 -385 -183 -148 -70 -578 -281 -1110 -544 -283 -141
-589 -291 -680 -333 -91 -43 -212 -100 -270 -127 -58 -28 -143 -67 -190 -88
-47 -21 -151 -69 -232 -108 -116 -56 -148 -75 -148 -91 0 -11 6 -21 13 -24 6
-2 73 25 147 61 215 102 244 115 258 115 6 0 12 3 12 7 0 4 33 21 73 38 39 17
137 62 217 100 80 38 177 84 215 102 65 31 259 126 1125 552 418 206 816 397
833 401 6 1 14 5 17 8 3 4 61 34 130 67 269 129 389 186 480 227 52 24 136 63
185 88 122 60 325 157 330 157 2 0 79 36 170 80 91 44 171 78 177 74 6 -4 8
-3 4 4 -6 10 31 29 40 20 4 -5 -13 -458 -18 -463 -2 -1 -106 -52 -233 -113
-191 -91 -1467 -726 -3380 -1679 -530 -264 -569 -288 -518 -307 11 -5 195 82
537 253 3095 1543 3577 1781 3605 1781 16 0 54 18 601 288 512 252 963 488
1011 529 17 14 40 9 188 -39 l64 -21 -7 -286 c-15 -666 -24 -883 -38 -896 -21
-21 -171 -147 -218 -185 -24 -19 -58 -46 -75 -60 -74 -62 -478 -339 -560 -384
-16 -9 -64 -39 -105 -66 -83 -54 -402 -258 -480 -305 -65 -40 -102 -73 -97
-88 6 -20 35 -19 64 2 15 11 105 68 198 127 543 343 626 396 747 485 39 27 43
29 47 12 6 -30 -20 -663 -30 -724 -5 -31 -7 -64 -3 -73 7 -17 39 -22 48 -7 11
16 24 245 42 684 l7 169 80 61 c96 74 343 284 376 320 22 24 24 36 32 219 5
106 13 375 18 598 7 326 6 409 -4 426 -14 22 -48 36 -194 80 l-93 29 6 145
c17 411 18 666 5 676 -14 11 -59 24 -309 93 -289 78 -380 104 -700 192 -179
50 -383 106 -455 125 -137 38 -345 95 -430 119 -27 7 -124 34 -215 60 -91 25
-178 50 -195 55 -16 5 -140 39 -275 75 -135 37 -317 86 -405 110 -88 25 -227
62 -310 85 -268 72 -408 110 -545 150 -287 83 -705 200 -716 200 -6 0 -16 -6
-22 -12z m122 -73 c77 -23 576 -166 619 -177 20 -6 37 -14 37 -19 0 -4 -19
-14 -42 -20 -24 -7 -128 -38 -233 -71 l-189 -58 -81 24 c-44 14 -112 35 -152
46 -40 11 -75 25 -78 29 -6 10 30 235 40 251 8 13 19 13 79 -5z m918 -258 c46
-14 135 -39 198 -56 63 -18 146 -42 184 -53 l68 -21 -6 -51 c-10 -78 -38 -220
-45 -228 -7 -8 -266 65 -636 177 -121 37 -254 76 -295 87 -41 11 -78 23 -83
27 -7 7 23 18 313 111 142 45 168 46 302 7z m-910 -92 l73 -23 -36 -16 c-38
-16 -234 -77 -328 -102 -29 -8 -57 -16 -61 -19 -10 -6 -102 20 -135 39 -17 10
-22 15 -12 12 9 -3 17 -2 17 3 0 4 78 34 173 66 94 32 174 62 176 67 4 11 36
4 133 -27z m1693 -123 c99 -27 250 -69 335 -92 85 -24 279 -78 430 -121 151
-43 309 -86 350 -96 l75 -18 -1 -55 c-1 -89 -7 -260 -9 -260 -9 0 -624 172
-1030 287 -426 122 -470 134 -473 138 -7 6 42 244 50 239 4 -3 5 2 2 10 -3 9
-4 23 -1 31 5 12 12 12 49 0 24 -7 124 -36 223 -63z m-1448 54 c21 -8 106 -35
188 -59 83 -25 287 -86 455 -137 168 -50 330 -98 360 -107 30 -9 56 -17 57
-18 1 -1 -2 -17 -7 -36 -5 -19 -12 -54 -15 -79 -8 -59 -32 -170 -37 -175 -6
-6 -457 136 -1158 365 -96 31 -217 70 -267 85 -51 16 -93 33 -93 38 0 5 9 7
20 4 11 -3 18 -2 15 3 -2 4 24 15 58 24 34 9 125 37 202 61 156 49 169 51 222
31z m-350 -247 c186 -60 363 -118 393 -129 30 -10 123 -39 205 -65 83 -26 204
-64 270 -85 222 -71 410 -129 480 -150 39 -11 99 -29 135 -40 195 -59 341
-103 389 -116 30 -8 102 -30 160 -48 98 -31 427 -131 581 -176 148 -43 333
-101 341 -106 14 -8 11 -148 -3 -166 -7 -8 -59 -40 -115 -71 -84 -46 -107 -55
-125 -48 -13 5 -59 21 -103 34 -479 147 -3371 1109 -3389 1127 -7 7 -6 10 2
11 20 2 27 4 37 10 6 3 73 25 150 48 122 37 245 76 252 80 2 0 155 -49 340
-110z m1573 -115 c81 -24 481 -140 585 -170 28 -8 109 -30 180 -49 72 -18 166
-45 210 -58 44 -14 158 -46 254 -73 l174 -48 -7 -165 c-4 -91 -8 -167 -10
-169 -4 -4 -421 120 -686 203 -80 25 -215 66 -300 91 -220 64 -554 165 -558
169 -4 4 22 166 40 248 5 26 15 47 21 47 7 0 50 -12 97 -26z m1604 -73 c62
-16 175 -48 252 -70 120 -34 670 -185 879 -242 130 -35 157 -44 154 -54 -4
-11 -155 -82 -323 -152 -102 -42 -113 -44 -155 -35 -25 5 -212 58 -416 117
-203 59 -404 116 -445 127 -41 11 -79 23 -84 28 -11 11 4 310 16 310 5 0 60
-13 122 -29z m216 -446 c575 -163 558 -158 521 -170 -12 -4 -72 -30 -134 -59
-62 -29 -156 -72 -209 -96 l-97 -43 -73 21 c-40 11 -138 39 -218 62 -80 23
-150 44 -157 46 -11 3 -10 91 3 270 l5 72 82 -24 c45 -13 170 -48 277 -79z
m1112 -117 c-2 -79 -6 -144 -7 -146 -1 -1 -49 13 -106 31 -57 19 -136 42 -176
51 -39 10 -79 23 -88 30 -15 11 -12 14 22 28 119 51 320 140 333 147 8 6 17 8
21 6 3 -3 4 -69 1 -147z m-260 -129 c103 -30 188 -56 188 -59 0 -3 -21 -15
-47 -27 -27 -12 -109 -51 -184 -87 -75 -36 -159 -74 -186 -85 -50 -19 -51 -19
-104 -1 -30 11 -123 41 -208 68 l-155 48 45 21 c24 11 64 29 88 39 25 10 106
47 180 81 90 41 146 61 166 59 17 -2 114 -27 217 -57z m-1043 -100 c91 -28
170 -55 175 -60 6 -5 -7 -15 -30 -25 -21 -9 -105 -47 -186 -85 -82 -38 -151
-69 -154 -69 -3 0 -3 17 0 38 3 20 5 85 6 145 0 74 4 107 11 107 7 0 87 -23
178 -51z m1291 -169 c0 -93 -4 -170 -8 -170 -5 0 -82 23 -173 51 -90 28 -188
58 -216 67 -59 16 -66 27 -27 36 14 4 78 32 143 63 210 100 256 121 269 122 9
1 12 -39 12 -169z m-988 75 c8 9 379 -116 373 -126 -4 -5 -11 -9 -16 -9 -12 0
-319 -140 -472 -215 -91 -46 -99 -48 -125 -34 -44 23 -247 160 -250 170 -2 5
59 39 135 75 261 126 327 153 339 144 6 -6 13 -8 16 -5z m693 -216 c121 -39
235 -76 254 -83 l34 -13 -79 -43 c-180 -99 -386 -205 -879 -449 -286 -142
-527 -261 -537 -264 -15 -5 -16 13 -11 231 4 156 10 240 17 244 6 4 54 26 106
49 52 23 154 70 225 104 179 86 257 122 425 199 80 37 159 73 175 81 17 7 35
14 40 14 6 1 109 -31 230 -70z m-1081 -139 c94 -58 104 -66 88 -79 -15 -12
-199 -101 -208 -101 -2 0 -4 57 -4 126 0 71 4 124 9 122 5 -1 57 -32 115 -68z"/>
</g>
</svg>
