<?xml version="1.0" standalone="no"?>
<!DOCTYPE svg PUBLIC "-//W3C//DTD SVG 20010904//EN"
 "http://www.w3.org/TR/2001/REC-SVG-20010904/DTD/svg10.dtd">
<svg version="1.0" xmlns="http://www.w3.org/2000/svg"
 width="1024.000000pt" height="1024.000000pt" viewBox="0 0 1024.000000 1024.000000"
 preserveAspectRatio="xMidYMid meet">
<metadata>
Created by potrace 1.16, written by Peter Selinger 2001-2019
</metadata>
<g transform="translate(0.000000,1024.000000) scale(0.100000,-0.100000)"
fill="#000000" stroke="none">
<path d="M4796 7844 c-3 -9 -6 -434 -6 -945 l0 -929 25 0 25 0 0 920 0 920
665 0 665 0 0 -706 0 -705 27 3 28 3 -2 718 c-1 395 -5 722 -8 727 -4 6 -266
10 -710 10 -632 0 -703 -2 -709 -16z"/>
<path d="M4930 6899 l0 -830 23 3 22 3 3 803 2 802 340 0 340 0 0 -499 c0
-447 2 -499 16 -505 9 -3 20 -4 25 0 5 3 9 215 9 505 l0 499 160 0 160 0 0
-640 0 -640 25 0 25 0 0 665 0 665 -575 0 -575 0 0 -831z"/>
<path d="M6407 7543 c-4 -3 -7 -265 -7 -580 l0 -574 23 3 22 3 3 553 2 552
760 0 760 0 0 25 0 25 -778 0 c-428 0 -782 -3 -785 -7z"/>
<path d="M2441 7506 c-8 -9 -11 -118 -9 -382 l3 -369 554 -3 c437 -2 556 0
563 10 4 7 8 176 8 376 l0 362 -26 10 c-15 6 -234 10 -553 10 -435 0 -531 -2
-540 -14z m1059 -373 l0 -333 -510 0 -510 0 0 328 c0 181 3 332 7 336 4 4 234
6 510 4 l503 -2 0 -333z"/>
<path d="M2552 7138 l3 -253 433 -3 432 -2 -2 252 -3 253 -433 3 -432 2 2
-252z m816 -5 l2 -213 -385 0 -385 0 0 208 c0 115 3 212 7 215 4 4 176 6 382
5 l376 -3 3 -212z"/>
<path d="M3058 7143 c-21 -8 -38 -19 -38 -24 0 -5 -6 -9 -13 -9 -7 0 -25 -12
-40 -26 l-28 -26 -56 23 c-88 36 -144 24 -237 -50 -33 -26 -36 -31 -17 -31 12
0 48 13 79 29 66 34 109 33 179 -2 36 -17 47 -18 69 -8 14 6 28 20 31 30 3 10
26 31 53 45 57 31 125 34 173 9 18 -9 41 -16 52 -15 62 7 82 13 82 27 0 11
-12 15 -47 15 -26 0 -64 7 -83 15 -46 19 -111 18 -159 -2z"/>
<path d="M6527 7423 c-4 -3 -7 -123 -7 -265 l0 -258 688 2 c679 3 687 3 687
23 0 13 -8 21 -23 23 l-23 3 3 235 c2 187 0 235 -10 239 -20 8 -1308 6 -1315
-2z m173 -264 c0 -198 -2 -220 -16 -215 -9 3 -38 6 -65 6 l-49 0 0 210 0 209
58 4 c31 2 60 4 65 5 4 1 7 -97 7 -219z m173 212 c16 -1 17 -18 17 -211 l0
-210 -70 0 -70 0 0 208 c0 115 2 211 4 213 4 4 46 4 119 0z m206 -206 l-2
-215 -68 0 -69 0 0 215 0 215 70 0 71 0 -2 -215z m361 1 l0 -216 -60 0 -60 0
0 213 0 212 60 3 60 3 0 -215z m188 -5 l2 -211 -70 0 -70 0 0 213 0 212 67 -2
68 -1 3 -211z m172 3 l0 -214 -60 0 -60 0 0 209 c0 235 -7 216 78 218 l42 1 0
-214z m-533 -5 l-2 -211 -68 -2 -67 -1 0 213 0 212 70 0 69 0 -2 -211z"/>
<path d="M7910 6915 l0 -505 25 0 25 0 0 505 0 505 -25 0 -25 0 0 -505z"/>
<path d="M3867 7032 c-15 -16 -17 -44 -17 -224 l0 -205 26 -24 c25 -23 31 -24
210 -27 l184 -3 30 30 30 29 0 199 c-1 161 -3 202 -16 218 -14 19 -28 20 -222
23 -193 3 -209 2 -225 -16z m407 -48 c17 -44 16 -44 -184 -44 l-190 0 0 23 c0
13 3 27 7 30 3 4 86 7 184 7 152 0 178 -2 183 -16z m4 -176 l-3 -103 -187 -3
-188 -2 0 105 0 105 190 0 191 0 -3 -102z m-2 -160 c-3 -18 -12 -35 -18 -39
-19 -12 -342 2 -350 15 -4 6 -8 21 -8 34 l0 22 191 0 192 0 -7 -32z"/>
<path d="M6522 6613 c3 -197 3 -198 26 -201 l22 -3 0 170 0 171 65 0 65 0 0
-170 c0 -97 4 -170 9 -170 39 0 41 8 41 176 l0 164 70 0 70 0 2 -167 c3 -160
4 -168 23 -168 19 0 20 8 23 168 l2 167 69 0 69 0 -2 -167 c-1 -164 0 -168 20
-171 19 -3 22 3 28 59 3 34 6 111 6 170 l0 109 68 0 67 0 1 -167 1 -168 24 0
24 0 3 168 2 167 60 0 60 0 2 -167 c3 -160 4 -168 23 -168 19 0 20 8 23 168
l2 167 70 0 70 0 0 -171 0 -170 23 3 c22 3 22 5 25 171 l2 167 105 0 c84 0
105 3 105 14 0 8 3 21 6 30 6 15 -59 16 -685 16 l-691 0 2 -197z"/>
<path d="M3812 6504 l-22 -15 0 -510 0 -509 25 0 25 0 0 248 0 247 255 0 255
0 0 -192 0 -193 25 0 25 0 0 458 c0 343 -3 461 -12 470 -9 9 -86 12 -283 12
-229 0 -274 -2 -293 -16z m538 -226 l0 -193 -255 0 -255 0 0 193 0 192 255 0
255 0 0 -192z m0 -253 l0 -25 -255 0 -255 0 0 25 0 25 255 0 255 0 0 -25z"/>
<path d="M5490 6513 c-8 -3 -18 -11 -22 -17 -12 -17 -9 -131 3 -143 8 -8 -7
-24 -53 -59 -246 -188 -501 -389 -802 -630 -279 -223 -979 -774 -1144 -900
-37 -28 -132 -105 -212 -171 l-145 -119 -5 -65 c-3 -35 -4 -73 -2 -84 2 -11
32 -40 68 -64 35 -24 64 -48 64 -53 0 -4 -47 -8 -104 -8 -84 0 -108 -3 -121
-16 -26 -26 -2 -34 108 -34 l97 0 0 -75 0 -75 -155 0 -155 0 0 -25 0 -25 155
0 155 0 0 -75 0 -75 -197 3 c-192 2 -198 1 -198 -18 0 -19 8 -20 198 -23 l197
-2 0 -45 c0 -42 -2 -45 -22 -40 -13 3 -130 7 -260 8 -131 1 -238 2 -238 2 0 0
11 44 24 97 26 101 43 250 33 290 -8 30 -64 58 -117 58 -39 0 -39 0 -34 33 6
31 17 51 48 91 16 20 53 15 40 -6 -5 -8 5 -9 40 -5 42 6 47 5 44 -11 -4 -19
-89 -45 -99 -30 -10 15 -58 -13 -56 -33 1 -16 9 -18 67 -15 80 4 124 25 138
66 15 40 -3 56 -78 72 -34 7 -60 17 -60 24 0 11 96 54 119 54 17 0 91 83 91
101 0 24 -37 49 -74 49 -36 0 -102 -37 -139 -79 -28 -32 -62 -46 -36 -15 10
13 10 17 -2 25 -8 5 -22 9 -32 9 -27 0 -20 62 8 66 43 6 151 48 182 70 43 33
50 60 23 89 -19 20 -31 23 -81 22 l-58 -2 33 35 c43 45 56 71 56 113 0 63 -55
86 -111 46 -42 -29 -69 -88 -70 -151 -2 -82 -17 -118 -18 -43 -1 76 -15 123
-43 156 -32 36 -56 42 -86 23 -22 -15 -24 -21 -20 -72 3 -32 9 -66 14 -77 4
-10 -13 2 -37 28 -38 39 -52 47 -82 47 -43 0 -77 -28 -77 -62 0 -26 34 -86 59
-106 9 -7 38 -24 64 -38 26 -13 50 -31 53 -39 3 -7 12 -11 19 -9 10 4 12 -1 8
-17 -5 -16 -3 -20 7 -14 15 9 30 -11 30 -42 0 -13 6 -23 13 -24 17 -1 -24 -17
-47 -18 -12 -1 -16 4 -12 15 3 8 -1 22 -9 30 -8 9 -15 25 -15 36 0 38 -63 78
-123 78 -69 0 -100 -55 -55 -98 20 -18 104 -58 161 -76 9 -3 17 -10 17 -16 0
-7 -6 -7 -20 0 -12 6 -50 9 -86 7 -99 -6 -154 -57 -100 -92 34 -23 131 -32
153 -14 11 8 9 3 -4 -11 -23 -27 -53 -90 -53 -113 0 -23 51 -39 122 -38 54 0
68 -3 68 -14 0 -12 -18 -15 -106 -13 -102 3 -106 2 -126 -22 -17 -21 -19 -33
-13 -95 8 -87 37 -214 64 -283 l21 -52 -100 0 c-88 0 -100 -2 -110 -19 -5 -11
-6 -22 -2 -25 5 -3 121 -6 258 -8 213 -3 253 -1 279 13 27 14 54 15 275 3 136
-7 272 -19 305 -27 33 -8 50 -15 38 -16 -44 -2 -512 -41 -658 -55 -82 -8 -221
-20 -309 -27 -116 -9 -159 -16 -163 -26 -13 -33 13 -37 159 -25 79 7 339 28
578 48 239 19 446 36 460 38 14 3 55 5 93 5 65 1 67 2 67 27 0 25 -2 26 -55
22 l-55 -3 0 78 0 77 65 0 65 0 0 -180 c0 -138 -3 -180 -13 -180 -32 0 -552
-42 -797 -65 -85 -8 -220 -19 -300 -25 -188 -14 -192 -15 -188 -43 4 -26 4
-26 198 -9 771 69 1287 108 1358 103 8 -1 12 -24 12 -79 l0 -78 -187 -18
c-197 -18 -357 -34 -658 -66 -99 -10 -274 -29 -390 -41 -212 -22 -255 -33
-227 -61 9 -9 69 -6 275 15 1270 130 1285 131 1410 128 28 -1 28 -1 25 -63
l-3 -63 -105 -12 c-157 -19 -460 -59 -780 -104 -157 -22 -368 -51 -470 -64
-251 -34 -250 -34 -257 -51 -14 -36 13 -36 269 0 711 100 1271 173 1406 182
l102 7 0 -60 0 -60 -67 -11 c-38 -7 -185 -32 -328 -57 -143 -24 -487 -84 -765
-131 -278 -48 -508 -91 -512 -97 -4 -6 -2 -18 5 -25 14 -17 -30 -23 552 77
259 44 562 96 675 115 113 19 241 42 285 50 44 8 97 17 118 21 l37 6 0 -50 c0
-27 4 -53 10 -56 17 -10 198 -6 283 6 85 12 162 0 154 -24 -9 -28 -100 -41
-287 -41 -160 1 -194 4 -250 22 -55 18 -67 19 -79 8 -20 -20 -8 -32 55 -56 80
-29 299 -46 408 -30 183 25 242 58 216 120 -13 32 -66 50 -144 50 l-46 0 0
344 0 344 25 16 c22 14 25 24 25 71 l0 55 -54 24 c-60 27 -162 91 -548 348
-243 162 -313 214 -264 195 10 -4 71 -7 136 -7 l119 0 3 -32 c2 -25 8 -33 23
-33 15 0 21 8 23 33 l3 32 120 0 119 0 0 105 0 105 140 0 140 0 0 115 0 115
145 0 145 0 0 85 0 85 28 0 c15 1 72 2 127 3 l100 2 3 112 3 112 137 3 137 3
3 107 3 107 137 3 137 3 3 92 3 91 37 6 c20 3 52 5 70 4 l32 -1 0 -94 0 -93
30 0 30 0 -3 90 -4 90 1134 0 1133 0 0 25 0 25 -1130 0 -1130 0 -1 118 c-1
185 -1 545 0 565 1 15 15 17 156 17 l155 0 0 -309 0 -309 25 -4 c13 -3 27 -3
30 0 3 3 5 144 5 314 l0 308 193 -2 192 -3 3 -307 2 -308 25 0 25 0 0 310 0
310 205 0 205 0 0 -305 0 -305 25 0 25 0 2 303 3 302 203 3 202 2 0 -310 0
-310 25 0 25 0 2 308 3 307 205 0 205 0 3 -301 c2 -264 4 -303 18 -308 9 -3
20 -4 25 0 5 3 9 138 9 310 l0 304 30 0 c23 0 30 4 30 20 0 20 -7 20 -1135 20
l-1135 0 0 40 0 40 1135 0 1135 0 0 25 0 25 -1135 0 c-1196 0 -1166 -1 -1115
43 15 13 20 29 20 68 0 91 5 89 -198 88 -97 0 -184 -3 -192 -6z m340 -78 l0
-34 -156 -3 c-86 -2 -157 -1 -159 2 -1 3 0 20 2 38 l5 32 154 0 154 0 0 -35z
m-172 -538 l-3 -441 -32 -7 -33 -6 0 447 c0 245 2 449 5 452 3 2 18 3 35 0
l30 -4 -2 -441z m132 -2 l0 -445 -45 0 -45 0 0 445 0 445 45 0 45 0 0 -445z
m-250 387 c0 -41 2 -39 -229 -226 -47 -38 -131 -106 -185 -150 -55 -45 -176
-142 -270 -216 -150 -119 -363 -291 -686 -553 -276 -224 -467 -377 -639 -512
l-190 -150 -1 -47 0 -47 -70 42 c-38 23 -68 46 -67 50 1 5 66 59 144 120 609
481 858 678 987 782 81 66 171 138 200 160 28 22 143 112 255 200 112 88 251
198 310 243 58 46 156 122 216 168 61 46 135 103 165 128 30 25 56 45 58 46 1
0 2 -17 2 -38z m0 -478 l0 -365 -32 3 -33 3 0 338 0 339 28 24 c15 13 30 24
33 24 2 0 4 -165 4 -366z m-110 -39 l0 -325 -90 0 -89 0 -3 247 -3 247 25 22
c71 61 155 133 158 133 1 1 2 -145 2 -324z m-233 -321 c-1 -2 -54 -4 -117 -5
l-115 -2 -3 134 -2 134 117 93 118 92 3 -221 c1 -122 1 -223 -1 -225z m-287
109 c-3 -65 -8 -117 -12 -115 -5 1 -60 2 -123 2 -139 0 -144 7 -52 76 34 27
90 72 125 101 35 29 64 53 65 53 1 0 0 -53 -3 -117z m-290 -213 l0 -80 -107 0
c-58 0 -104 2 -102 4 22 22 195 156 201 156 4 0 8 -36 8 -80z m290 -10 l0 -70
-120 0 -120 0 0 70 0 70 120 0 120 0 0 -70z m290 0 l0 -70 -120 0 -120 0 0 70
0 70 120 0 120 0 0 -70z m400 0 l0 -70 -175 0 -175 0 0 70 0 70 175 0 175 0 0
-70z m-980 -202 l0 -93 -135 3 -135 3 0 90 0 89 135 0 135 0 0 -92z m290 -3
l0 -95 -120 0 -120 0 0 95 0 95 120 0 120 0 0 -95z m400 -2 l0 -93 -175 0
-175 0 0 96 0 96 175 -4 175 -3 0 -92z m-1010 -18 l0 -65 -66 0 c-64 0 -104
-12 -104 -30 0 -6 37 -10 85 -10 l85 0 0 -95 0 -95 -130 0 c-108 0 -130 -3
-130 -15 0 -12 23 -15 128 -17 l127 -3 3 -72 3 -73 -141 0 -141 0 3 157 3 157
70 59 c85 72 199 166 203 166 1 1 2 -28 2 -64z m320 -200 l0 -95 -135 0 -135
0 0 95 0 95 135 0 135 0 0 -95z m420 -5 l0 -90 -185 0 -185 0 0 90 0 90 185 0
185 0 0 -90z m-1063 -127 l-2 -138 -98 -3 c-87 -2 -98 -5 -95 -20 3 -14 18
-17 101 -20 l97 -3 0 -79 0 -80 -134 0 -135 0 -3 132 -3 131 40 33 c22 18 81
66 130 108 50 41 93 75 97 75 4 1 6 -61 5 -136z m597 1 l46 -7 0 -68 0 -69
-135 0 -135 0 0 75 0 75 89 0 c48 0 109 -3 135 -6z m206 -74 l0 -70 -55 0 -55
0 0 70 0 70 55 0 55 0 0 -70z m-1120 -155 l0 -115 -55 0 c-48 0 -55 -2 -55
-20 0 -18 7 -20 55 -20 l55 0 0 -105 c0 -60 -4 -105 -9 -105 -10 0 -268 165
-286 183 -7 6 -2 7 13 2 21 -6 22 -4 22 44 0 28 3 51 8 51 4 0 61 45 127 100
66 55 121 100 123 100 1 0 2 -52 2 -115z m638 -42 l-3 -88 -50 -6 c-27 -3 -52
-3 -55 1 -8 11 -150 20 -150 9 0 -5 -4 -9 -10 -9 -6 0 -10 37 -10 90 l0 90
140 0 141 0 -3 -87z m192 -3 l0 -90 -70 0 -70 0 0 90 0 90 70 0 70 0 0 -90z
m-1176 -172 c68 -46 168 -110 222 -143 154 -96 220 -138 562 -365 l322 -215
-81 -3 c-45 -2 -85 1 -88 6 -5 7 -139 101 -409 287 -102 70 -546 361 -654 428
-23 14 -28 25 -28 58 0 32 3 40 14 36 8 -3 71 -43 140 -89z m896 -34 l0 -94
-95 0 -95 0 0 98 0 97 95 -3 95 -3 0 -95z m-235 -4 c0 -52 -3 -94 -7 -92 -5 1
-64 2 -133 2 l-125 0 0 95 0 96 133 -3 132 -3 0 -95z m-625 -402 c0 -142 -4
-258 -9 -258 -5 0 -23 3 -40 6 -30 6 -31 7 -31 65 l0 59 35 0 c29 0 35 4 35
21 0 18 -5 21 -35 17 l-35 -4 0 204 0 203 40 -28 40 -28 0 -257z m119 182 l61
-41 0 -113 c0 -62 -2 -115 -4 -117 -2 -2 -32 -2 -65 -1 l-61 4 0 83 0 84 52 3
c74 4 77 28 4 28 l-56 0 0 55 c0 30 2 55 4 55 3 0 32 -18 65 -40z m-956 -74
c81 1 159 5 172 8 22 6 25 3 25 -19 0 -32 -46 -240 -61 -277 -13 -33 -34 -40
-119 -43 -98 -3 -133 8 -153 50 -20 42 -53 171 -63 243 l-7 53 29 -8 c16 -4
95 -7 177 -7z m1242 -104 c42 -30 46 -35 43 -70 -2 -20 -6 -36 -10 -34 -5 1
-53 2 -108 2 l-100 0 0 105 0 104 65 -37 c35 -20 85 -52 110 -70z m207 -151
l87 -56 1 -242 0 -243 -84 0 c-46 0 -91 -3 -100 -6 -14 -6 -16 25 -16 306 0
246 3 310 13 304 6 -3 51 -32 99 -63z m-219 -1 l57 0 0 -165 c0 -124 -3 -167
-12 -170 -7 -2 -57 -5 -111 -7 l-97 -3 0 179 0 179 53 -7 c28 -3 78 -6 110 -6z
m420 -135 l47 -35 0 -270 0 -270 -39 0 c-22 0 -46 -3 -55 -6 -14 -6 -16 25
-16 305 0 171 3 311 8 311 4 0 28 -16 55 -35z m365 -77 c2 -16 2 -28 0 -29
-21 -5 -228 -9 -245 -4 -18 4 -23 12 -23 35 l0 31 133 -3 132 -3 3 -27z m-48
-427 l0 -350 -52 -6 c-29 -4 -78 -5 -108 -3 l-55 3 -3 353 -2 352 110 0 110 0
0 -349z"/>
<path d="M3200 5550 c0 -19 7 -20 260 -20 253 0 260 1 260 20 0 19 -7 20 -260
20 -253 0 -260 -1 -260 -20z"/>
<path d="M2456 5441 c-4 -5 -3 -16 0 -25 6 -15 88 -16 878 -14 l871 3 3 23 3
22 -875 0 c-514 0 -877 -4 -880 -9z"/>
<path d="M5838 5123 c-18 -15 -141 -125 -273 -243 -132 -119 -308 -277 -391
-351 -213 -190 -697 -632 -773 -705 -59 -58 -71 -82 -44 -91 11 -4 116 83 243
201 81 76 439 400 581 527 138 123 330 297 537 486 l167 152 1113 1 1112 0 0
25 0 25 -1119 0 -1119 0 -34 -27z"/>
<path d="M5574 4795 c-4 -8 -12 -15 -20 -15 -12 0 -14 -103 -14 -665 l0 -665
25 0 25 0 0 680 c0 374 -2 680 -5 680 -3 0 -8 -7 -11 -15z"/>
<path d="M5995 4758 c-3 -7 -4 -305 -3 -663 l3 -650 23 -3 22 -3 0 640 0 641
545 0 545 0 0 -650 0 -650 25 0 25 0 -2 673 -3 672 -588 3 c-465 2 -589 0
-592 -10z"/>
<path d="M6137 4643 c-11 -10 -8 -1201 2 -1207 5 -4 16 -3 25 0 14 6 16 65 16
585 l0 579 215 0 215 0 0 -591 0 -590 23 3 22 3 3 588 2 587 196 0 195 0 -3
23 -3 22 -451 3 c-248 1 -454 -1 -457 -5z"/>
<path d="M5245 3375 c-44 -8 -195 -33 -335 -56 -140 -22 -257 -42 -261 -45
-11 -7 2 -44 16 -44 7 0 64 9 126 20 63 10 218 35 344 55 l230 36 365 -11
c201 -5 496 -15 655 -20 160 -5 468 -14 685 -20 217 -6 503 -15 636 -20 369
-15 401 -14 409 11 4 11 5 22 3 24 -3 3 -304 14 -1153 40 -1477 46 -1616 48
-1720 30z"/>
</g>
</svg>
