<?xml version="1.0" standalone="no"?>
<!DOCTYPE svg PUBLIC "-//W3C//DTD SVG 20010904//EN" "http://www.w3.org/TR/2001/REC-SVG-20010904/DTD/svg10.dtd">
<svg xmlns="http://www.w3.org/2000/svg" version="1.0" width="1024.000000pt" height="1024.000000pt" viewBox="0 0 1024.000000 1024.000000" preserveAspectRatio="xMidYMid meet">
<metadata>
Created by potrace 1.16, written by Peter Selinger 2001-2019
<meta name="Producer" content="Online-Convert"/></metadata>
<g transform="translate(0.000000,1024.000000) scale(0.100000,-0.100000)" fill="#000000" stroke="none">
<path d="M5022 8789 c-9 -3 -66 -9 -126 -13 -130 -8 -305 -37 -438 -72 -54 -14 -103 -22 -109 -18 -7 4 -9 3 -6 -3 4 -6 -5 -14 -21 -18 -55 -13 -250 -94 -350 -144 -57 -28 -108 -49 -114 -45 -6 4 -8 3 -5 -3 7 -11 -58 -56 -80 -56 -7 0 -13 -4 -13 -8 0 -4 -23 -22 -52 -40 -28 -18 -82 -57 -120 -86 -41 -32 -74 -50 -83 -47 -8 4 -15 1 -15 -6 0 -6 6 -8 13 -5 6 4 -10 -14 -37 -39 -27 -25 -54 -42 -59 -39 -6 3 -7 2 -4 -4 8 -12 -97 -116 -107 -106 -4 5 -6 3 -4 -2 4 -14 -92 -126 -102 -120 -5 3 -12 0 -16 -6 -4 -8 -3 -9 4 -5 21 13 13 -5 -17 -39 -16 -19 -33 -31 -38 -27 -4 4 -5 3 -1 -2 8 -9 -50 -96 -64 -96 -4 0 -7 -3 -6 -7 2 -5 -8 -25 -21 -46 -18 -29 -26 -35 -32 -25 -6 9 -8 5 -7 -12 2 -15 -2 -24 -9 -23 -8 2 -10 -4 -6 -14 5 -12 3 -14 -7 -8 -8 5 -11 4 -6 -3 3 -6 -18 -55 -48 -109 -53 -96 -136 -281 -136 -303 0 -6 -3 -9 -7 -7 -5 3 -9 -5 -9 -16 -1 -12 -20 -83 -41 -157 -22 -74 -46 -168 -53 -207 -7 -40 -16 -73 -19 -73 -3 0 -6 -17 -6 -37 0 -21 -6 -84 -13 -141 -7 -56 -12 -166 -12 -243 0 -109 -3 -139 -12 -133 -10 6 -10 4 0 -7 14 -15 18 -444 4 -435 -5 3 -9 -1 -9 -9 0 -8 4 -12 8 -9 9 5 6 -190 -4 -224 -3 -12 -2 -20 2 -17 11 6 14 -191 4 -208 -4 -7 -9 -21 -10 -32 -3 -16 -1 -17 7 -5 6 10 9 -105 9 -330 0 -252 -3 -348 -12 -359 -9 -12 -9 -13 0 -8 10 6 12 -21 12 -117 0 -92 4 -133 15 -154 8 -16 13 -32 11 -36 -3 -3 -2 -4 1 -1 4 2 21 -6 38 -19 17 -13 43 -26 59 -30 15 -3 1091 -6 2392 -7 1993 0 2369 2 2397 14 38 16 95 77 103 110 3 12 4 508 2 1102 -3 977 -5 1092 -21 1205 -10 69 -19 144 -20 167 0 22 -3 39 -6 37 -7 -8 -60 209 -55 224 3 7 1 11 -4 8 -11 -7 -22 48 -15 71 4 13 3 14 -3 5 -6 -8 -15 6 -27 45 -10 32 -27 75 -38 96 -11 23 -16 47 -13 60 4 14 3 18 -3 9 -6 -9 -12 -6 -20 13 -7 15 -10 30 -7 35 3 5 1 10 -3 12 -4 1 -29 43 -56 92 -26 48 -72 126 -102 172 -29 47 -53 90 -51 96 1 7 -3 12 -9 13 -7 0 -32 27 -56 60 -25 33 -66 84 -91 114 -25 30 -44 59 -40 64 3 6 1 7 -4 4 -13 -8 -46 27 -36 38 5 4 3 5 -3 2 -12 -7 -47 25 -39 36 3 4 2 5 -1 2 -8 -6 -180 147 -176 157 1 4 -1 7 -5 6 -15 -3 -43 14 -37 23 3 5 2 8 -3 7 -4 -1 -19 4 -32 11 -19 11 -21 15 -10 23 11 8 10 9 -4 4 -20 -6 -120 61 -111 75 3 5 -3 6 -12 2 -13 -5 -15 -3 -9 7 5 8 4 11 -3 6 -14 -8 -135 68 -125 79 5 4 3 5 -4 1 -15 -8 -124 45 -116 57 3 6 1 7 -5 4 -15 -10 -43 3 -35 16 3 5 2 7 -4 4 -5 -3 -65 16 -133 44 -68 27 -166 63 -219 78 -65 20 -90 30 -76 34 11 4 7 5 -10 2 -16 -2 -70 5 -120 15 -215 43 -590 78 -643 59z m326 -205 c54 -3 90 -10 86 -15 -3 -6 5 -7 20 -3 33 8 166 -15 163 -28 -1 -6 4 -13 12 -16 8 -3 11 0 7 7 -10 15 7 14 89 -8 125 -32 214 -64 208 -74 -3 -6 -1 -7 6 -3 16 10 152 -44 144 -57 -3 -6 -1 -7 5 -3 15 9 165 -61 158 -73 -4 -5 -2 -12 4 -16 5 -3 10 -1 10 5 0 6 11 5 30 -5 17 -9 30 -18 30 -21 0 -3 -5 -2 -12 2 -7 4 -8 3 -4 -5 4 -6 12 -9 17 -5 13 8 109 -55 109 -72 0 -8 5 -14 11 -14 5 0 7 5 3 11 -8 13 36 -14 89 -54 20 -16 35 -33 32 -37 -3 -5 0 -12 6 -16 8 -4 9 -3 5 4 -15 25 11 10 59 -34 28 -26 43 -41 33 -35 -12 9 -18 9 -24 0 -4 -8 -3 -9 4 -5 7 4 12 2 12 -3 0 -6 10 -11 23 -11 26 0 132 -101 120 -115 -5 -4 -3 -5 4 -1 17 9 28 -14 13 -27 -10 -9 -11 -9 -5 2 5 9 4 12 -3 7 -20 -12 -13 -23 13 -23 24 0 55 -27 124 -105 18 -21 21 -31 13 -41 -9 -10 -8 -14 3 -14 8 0 12 5 8 11 -3 6 6 -2 21 -19 14 -16 23 -36 21 -43 -3 -7 -1 -11 4 -8 5 3 16 -5 25 -19 19 -29 20 -39 4 -29 -7 4 -8 3 -4 -5 4 -6 11 -9 16 -6 5 3 25 -22 45 -56 28 -45 34 -64 26 -72 -6 -6 -11 -16 -11 -22 0 -5 5 -2 11 8 10 18 12 18 26 -3 12 -18 13 -24 3 -30 -16 -10 -3 -33 15 -26 12 4 20 -9 51 -81 13 -30 13 -32 -6 -28 -26 5 -25 2 6 -32 l27 -28 -7 25 -7 25 15 -25 c15 -27 86 -225 86 -242 0 -5 -4 -6 -10 -3 -5 3 -10 1 -10 -4 0 -6 7 -11 15 -11 16 0 27 -33 61 -202 49 -242 55 -333 51 -800 -3 -298 -1 -438 7 -450 8 -13 7 -21 -2 -30 -6 -6 -12 -19 -11 -27 0 -11 3 -10 9 4 8 18 9 17 9 -8 1 -16 -2 -26 -6 -24 -5 3 -8 -10 -9 -28 0 -19 2 -32 6 -30 3 2 7 -6 7 -18 2 -17 0 -19 -7 -7 -8 12 -10 10 -10 -8 0 -13 4 -20 10 -17 6 4 10 -17 10 -57 0 -37 -4 -58 -9 -50 -5 8 -8 -1 -8 -25 -1 -33 0 -35 7 -13 4 14 8 -92 8 -235 0 -145 -4 -244 -8 -225 -8 33 -8 32 -6 -12 0 -25 4 -44 9 -41 4 2 7 -26 7 -64 0 -48 -3 -63 -10 -53 -8 12 -10 11 -10 -7 0 -13 5 -23 10 -23 14 0 13 -107 -1 -116 -8 -4 -7 -9 2 -15 26 -16 -39 -19 -336 -17 l-300 3 -3 395 c-2 427 -3 434 -59 507 -45 59 -110 96 -198 114 -72 14 -80 18 -82 40 -1 13 -5 84 -8 158 -5 105 -3 136 7 142 7 5 8 9 2 9 -7 0 -10 80 -11 244 -1 257 -4 289 -34 347 -19 37 -122 138 -142 140 -7 0 -3 4 8 9 16 6 13 8 -15 8 -19 0 -69 6 -110 12 -41 6 -92 10 -112 8 l-37 -3 -3 430 c-3 420 -3 431 -25 474 -12 24 -19 49 -16 54 3 6 1 7 -5 3 -12 -7 -38 32 -33 49 1 5 0 7 -4 4 -3 -4 -30 8 -58 27 -28 19 -58 34 -65 34 -7 0 -11 4 -8 9 4 5 -4 7 -16 3 -11 -3 -19 -1 -16 4 4 5 -261 9 -652 9 -362 0 -656 -3 -654 -6 2 -4 -8 -10 -24 -14 -15 -3 -47 -18 -72 -33 -25 -15 -49 -25 -55 -23 -5 1 -7 -1 -2 -5 4 -4 -2 -17 -12 -28 -11 -12 -32 -46 -47 -76 -25 -49 -29 -69 -33 -170 -2 -71 -7 -107 -12 -95 -7 19 -8 19 -8 -2 -1 -13 4 -23 9 -23 6 0 10 -111 10 -312 l0 -313 -106 -3 c-150 -5 -222 -40 -284 -139 -15 -23 -29 -41 -31 -38 -3 2 -6 -4 -7 -13 -11 -104 -16 -131 -24 -126 -6 4 -5 -2 1 -14 12 -23 10 -290 -3 -310 -4 -6 -2 -12 3 -12 6 0 11 -19 10 -42 -1 -37 -2 -39 -9 -18 -7 23 -8 23 -9 3 -1 -12 3 -24 8 -28 5 -3 9 -48 8 -100 0 -51 -4 -92 -9 -89 -4 3 -8 -5 -8 -18 0 -18 2 -20 10 -8 7 11 10 4 10 -25 0 -25 -3 -35 -9 -27 -5 9 -8 2 -8 -20 -1 -27 1 -29 7 -13 7 15 9 10 9 -22 1 -24 -2 -43 -6 -44 -5 0 -35 -3 -67 -5 -33 -2 -80 -14 -105 -26 -25 -12 -53 -22 -61 -22 -8 -1 -15 -6 -15 -11 0 -6 -14 -29 -31 -50 -72 -92 -69 -67 -72 -512 -3 -392 -3 -403 -22 -403 -11 0 -20 5 -20 11 0 8 -4 8 -12 1 -16 -12 -527 -15 -546 -3 -10 6 -12 211 -9 1077 3 1041 3 1072 25 1203 12 73 26 139 32 146 5 6 8 14 5 17 -21 21 129 468 157 468 5 0 7 4 3 9 -7 13 36 101 47 95 5 -3 7 -2 6 3 -4 15 13 53 24 53 6 0 8 3 5 6 -8 9 3 29 81 146 36 56 68 95 75 91 6 -3 7 -1 3 6 -8 12 41 78 56 73 4 -1 7 2 6 7 -5 15 83 112 94 105 6 -4 8 -3 5 2 -8 14 -4 18 106 122 56 53 103 90 109 86 6 -4 8 -3 4 4 -7 11 80 79 95 75 5 -2 9 1 9 7 0 16 108 83 121 74 8 -4 10 -3 5 4 -12 20 197 129 374 195 193 72 455 132 530 122 28 -3 40 -2 32 3 -9 6 8 11 49 16 94 9 181 8 174 -4 -3 -5 4 -11 17 -12 13 0 30 -2 38 -3 8 -1 22 2 31 6 9 5 22 3 29 -4 12 -10 12 -9 1 5 -9 12 -18 15 -28 9 -17 -9 -63 -3 -63 10 0 8 85 6 278 -7z m-698 -1204 c9 -13 70 -22 70 -11 0 6 -11 11 -25 11 -14 0 -25 3 -25 8 0 9 126 9 135 0 4 -4 -7 -6 -24 -6 -17 1 -34 -2 -38 -5 -3 -4 7 -7 23 -8 16 0 48 -2 72 -5 37 -3 42 -2 42 17 0 11 5 17 10 14 6 -4 8 -11 5 -16 -4 -5 4 -9 17 -8 13 0 17 3 11 6 -27 10 -11 19 32 19 32 -1 44 -4 40 -13 -5 -15 7 -17 21 -4 13 13 94 22 94 11 0 -6 -5 -9 -11 -7 -6 1 -14 -5 -16 -13 -4 -13 -3 -13 6 0 6 8 11 11 11 5 0 -5 6 -3 13 5 17 22 54 22 96 1 34 -17 67 -18 57 -2 -5 7 8 10 49 13 37 2 58 -2 51 -9 -4 -4 -26 -6 -49 -4 -23 1 -40 0 -37 -3 3 -3 25 -6 49 -7 31 -2 45 1 52 13 5 9 17 15 27 13 9 -2 24 -4 32 -5 10 -1 9 -4 -5 -10 -16 -7 -12 -9 20 -10 99 -5 149 -2 153 9 2 7 -8 9 -27 7 -17 -2 -31 1 -31 5 0 15 115 10 136 -6 10 -8 26 -14 34 -15 13 0 13 1 0 10 -17 11 -1 13 25 4 13 -6 14 -9 3 -16 -9 -6 -6 -7 9 -3 16 4 26 -1 42 -24 14 -19 18 -32 11 -36 -8 -5 -6 -11 4 -18 14 -10 16 -64 18 -403 l3 -391 -712 1 -713 1 0 400 c0 382 1 401 20 430 11 17 24 31 30 31 5 1 15 2 21 3 5 0 8 5 5 10 -3 5 1 12 10 15 25 9 64 7 64 -4 0 -5 7 -10 15 -10 8 0 14 3 14 8 -1 4 -1 10 0 13 1 8 54 -2 61 -11z m1518 -1082 c33 -10 42 -17 42 -36 0 -14 2 -15 10 -2 7 12 10 11 16 -5 5 -11 14 -26 21 -33 9 -10 13 -54 14 -160 0 -81 2 -218 3 -305 2 -122 0 -160 -11 -168 -15 -13 -18 -43 -3 -34 6 4 7 11 4 17 -4 6 -3 9 2 5 15 -9 11 -163 -4 -159 -7 1 -12 -2 -12 -8 0 -5 6 -10 13 -10 8 0 7 -4 -3 -10 -23 -15 -1981 -12 -1999 3 -12 9 -13 9 -7 0 5 -10 -21 -12 -123 -11 -99 2 -131 5 -131 15 0 17 -17 17 -24 1 -2 -7 -4 175 -3 405 l2 419 28 24 c15 13 24 24 20 25 -4 0 10 9 32 20 39 18 75 19 1065 16 564 -1 1035 -6 1048 -9z m390 -1121 c17 -10 32 -22 32 -28 0 -8 -6 -7 -17 2 -10 7 -15 9 -11 5 4 -5 2 -16 -5 -24 -10 -13 -9 -14 3 -7 25 16 40 14 50 -6 7 -11 11 -162 13 -389 l2 -370 -1505 3 -1505 2 -3 360 c-2 329 -1 363 16 395 10 19 23 34 30 33 7 -2 11 2 10 9 -8 36 31 37 1462 35 1315 -2 1397 -3 1428 -20z"/>
<path d="M4653 7010 c-40 -16 -55 -64 -51 -156 2 -70 6 -86 27 -108 13 -14 37 -28 53 -31 33 -8 84 10 92 32 3 8 9 12 13 10 14 -9 16 173 2 204 -20 49 -81 71 -136 49z"/>
<path d="M5069 7005 c-15 -8 -32 -29 -38 -46 -16 -45 -14 -143 4 -185 8 -19 13 -37 12 -41 -1 -3 7 -8 18 -11 33 -8 129 -2 119 7 -2 2 3 16 13 30 24 38 30 158 9 203 -26 55 -83 72 -137 43z"/>
<path d="M5479 6991 c-17 -17 -30 -41 -30 -58 -5 -106 -3 -213 5 -213 4 0 5 12 2 28 l-6 27 15 -26 c13 -25 48 -39 96 -39 30 0 69 42 79 85 5 22 7 69 3 105 -5 53 -11 70 -34 92 -39 39 -90 38 -130 -1z"/>
<path d="M5765 5941 c-38 -17 -65 -53 -65 -86 0 -8 -4 -15 -10 -15 -5 0 -10 -21 -9 -47 0 -36 3 -43 9 -28 6 15 9 8 9 -28 2 -88 62 -134 136 -103 46 20 65 64 65 151 0 83 -20 132 -60 148 -17 8 -27 16 -23 20 11 12 -10 7 -52 -12z"/>
<path d="M4460 5943 c-51 -5 -106 -23 -109 -37 -1 -6 -4 -56 -7 -112 -6 -97 -5 -101 20 -131 14 -17 23 -32 21 -35 -2 -2 15 -3 38 -3 89 3 117 43 117 165 0 81 -10 117 -37 133 -7 5 -11 12 -8 18 4 5 5 8 3 7 -2 0 -19 -3 -38 -5z"/>
<path d="M5095 5938 c-60 -17 -67 -29 -72 -125 -7 -107 10 -158 57 -176 16 -6 30 -15 30 -20 0 -4 -10 -3 -22 3 -22 11 -22 10 -4 -4 22 -18 36 -20 36 -7 0 5 14 14 31 21 50 21 69 63 69 151 0 63 -14 139 -25 139 -1 0 -18 6 -36 14 -23 9 -44 10 -64 4z"/>
<path d="M3103 3753 c4 -6 -12 -13 -39 -17 -62 -8 -140 -47 -201 -101 -29 -25 -56 -47 -60 -48 -4 -1 -7 -6 -5 -11 2 -5 -4 -16 -12 -25 -8 -9 -30 -48 -48 -86 -28 -61 -33 -82 -36 -170 -3 -62 1 -117 9 -145 7 -25 11 -56 10 -70 -1 -17 1 -21 7 -12 6 9 12 6 20 -13 7 -15 10 -31 6 -36 -3 -5 0 -8 7 -7 6 2 14 -3 17 -11 3 -9 0 -11 -9 -6 -7 5 2 -10 21 -33 42 -52 52 -55 15 -4 -25 34 -23 32 23 -12 43 -41 49 -52 39 -65 -9 -12 -9 -13 1 -7 6 4 12 5 12 2 0 -2 -25 -16 -56 -30 -30 -14 -68 -34 -84 -46 -31 -22 -45 -26 -34 -8 4 7 3 8 -5 4 -6 -4 -9 -11 -6 -15 2 -5 -4 -16 -15 -26 -11 -10 -20 -15 -20 -12 0 4 -19 -14 -41 -38 -23 -25 -46 -42 -52 -38 -5 3 -7 1 -4 -4 4 -6 -6 -25 -23 -42 -16 -18 -30 -35 -31 -39 -6 -24 -12 -31 -23 -25 -6 3 -8 3 -4 -1 3 -4 -9 -40 -28 -79 -64 -137 -74 -209 -74 -587 0 -314 1 -337 19 -367 12 -18 16 -34 10 -37 -5 -2 -4 -3 3 -2 7 1 32 -3 56 -10 23 -7 40 -9 37 -5 -2 5 4 11 14 14 10 2 27 16 36 31 16 24 17 57 16 329 -1 178 2 331 9 372 13 87 39 167 51 160 5 -4 6 0 4 7 -6 16 54 120 93 162 46 48 155 127 169 121 8 -2 12 -1 8 4 -8 15 104 53 163 56 30 2 56 6 60 9 3 3 21 6 41 6 28 0 33 -3 21 -11 -11 -7 -3 -8 27 -4 45 7 107 -8 196 -47 34 -16 44 -24 35 -31 -9 -6 -8 -7 5 -3 23 8 109 -55 170 -125 47 -53 103 -146 94 -155 -3 -3 -8 4 -12 15 -8 27 -25 27 -25 0 0 -11 3 -18 8 -15 16 10 41 -23 63 -84 21 -61 22 -84 27 -404 5 -377 4 -377 71 -397 44 -13 83 -1 105 34 13 19 16 67 18 268 2 342 9 417 48 520 18 46 38 89 46 95 8 6 11 14 8 17 -8 8 54 97 72 104 8 3 12 9 9 14 -7 11 119 115 175 144 65 33 140 53 227 61 54 5 74 4 69 -4 -4 -7 4 -9 28 -5 33 5 66 -2 155 -34 29 -10 39 -18 30 -24 -8 -4 -18 -1 -26 9 -11 16 -12 16 -13 0 0 -10 3 -19 8 -19 49 -8 62 -7 55 4 -12 20 74 -36 131 -87 40 -35 55 -54 51 -66 -3 -11 1 -20 10 -24 11 -4 14 -2 9 7 -5 8 -2 7 9 -2 20 -16 23 -36 5 -25 -8 4 -10 3 -5 -2 5 -5 14 -9 20 -9 15 0 77 -126 81 -166 2 -19 6 -41 9 -49 14 -39 16 -102 17 -409 1 -225 5 -333 12 -337 7 -4 8 -2 4 4 -10 17 9 15 23 -2 9 -11 9 -15 -1 -19 -7 -2 11 -3 41 -2 42 2 58 8 80 29 l26 26 3 326 c2 267 0 342 -14 417 -9 51 -17 99 -17 107 -1 8 -4 17 -8 20 -3 3 -13 26 -22 51 -28 73 -112 193 -180 254 -34 31 -62 62 -62 68 0 7 -7 12 -15 12 -8 0 -44 16 -80 36 -36 21 -75 40 -87 44 -31 9 -29 19 8 46 17 12 50 48 74 80 23 32 44 56 47 54 2 -2 4 4 5 13 1 9 11 48 22 87 29 96 27 182 -5 270 -14 39 -26 78 -27 87 -1 9 -3 15 -5 13 -3 -2 -17 12 -32 33 -15 20 -47 56 -72 79 -26 23 -44 44 -42 47 2 3 1 4 -2 2 -3 -2 -34 9 -70 26 -134 62 -276 63 -409 2 -33 -15 -66 -26 -74 -25 -7 1 -10 -2 -7 -7 6 -11 -57 -75 -67 -67 -4 3 -5 2 -2 -1 8 -11 -36 -65 -47 -58 -7 4 -8 2 -4 -4 4 -6 -4 -33 -17 -59 -14 -26 -28 -63 -32 -81 -4 -19 -11 -30 -17 -26 -6 4 -9 3 -6 -2 4 -5 8 -64 10 -131 1 -66 6 -119 9 -118 3 2 15 -18 26 -46 12 -27 18 -47 13 -44 -4 3 -10 -1 -13 -9 -4 -9 0 -12 12 -9 11 3 24 -4 33 -19 25 -37 55 -69 89 -93 l31 -23 -89 -44 c-48 -23 -92 -42 -96 -40 -5 1 -6 -1 -3 -6 3 -5 -17 -25 -43 -46 -51 -38 -132 -126 -165 -178 -14 -22 -21 -26 -28 -16 -7 9 -8 7 -4 -8 4 -11 -1 -29 -10 -40 -8 -10 -13 -13 -9 -6 3 6 2 12 -3 12 -12 0 -78 102 -74 115 2 5 0 7 -3 3 -9 -9 -51 43 -47 57 2 5 0 7 -4 3 -4 -4 -25 8 -46 28 -22 20 -68 54 -101 76 -34 22 -61 44 -59 50 1 5 -2 7 -7 4 -14 -9 -72 15 -64 27 3 6 1 7 -5 3 -7 -4 -16 -5 -21 -1 -6 3 16 31 47 63 55 56 108 117 102 117 -2 0 6 29 18 65 31 96 35 155 18 236 -21 105 -84 219 -146 269 -14 11 -33 28 -42 38 -10 9 -19 16 -20 16 -2 -1 -21 7 -44 19 -58 29 -159 54 -214 51 -25 -2 -52 1 -60 6 -8 5 -11 4 -7 -2z m199 -226 c84 -49 159 -162 145 -217 -3 -11 -1 -18 4 -14 5 3 9 -6 9 -20 0 -14 -4 -26 -8 -26 -5 0 -7 -12 -5 -27 5 -33 -22 -103 -39 -103 -6 0 -8 -3 -5 -6 11 -11 -33 -64 -76 -91 -106 -67 -234 -62 -329 11 -24 18 -42 40 -42 49 1 9 -2 15 -6 12 -14 -9 -48 58 -58 115 -13 67 -7 120 19 180 23 51 77 112 92 103 6 -3 7 -1 3 5 -7 11 34 37 84 53 14 5 57 7 96 5 56 -2 82 -9 116 -29z m1350 26 c-10 -4 -8 -9 8 -20 16 -12 24 -12 35 -3 12 10 25 6 66 -21 47 -30 109 -106 109 -133 0 -6 -4 -5 -9 2 -7 11 -9 11 -14 -2 -5 -11 -1 -16 13 -16 25 0 35 -51 26 -127 -17 -149 -135 -254 -286 -256 -113 -1 -197 51 -249 155 -26 52 -31 73 -31 134 0 72 23 159 40 149 4 -3 7 3 6 13 0 10 5 16 14 14 8 -2 12 0 7 4 -10 10 23 45 36 37 6 -3 7 -1 3 5 -7 12 33 44 46 36 4 -3 8 -1 8 5 0 16 58 29 125 29 33 0 54 -2 47 -5z"/>
<path d="M7366 3669 c4 -8 -116 -29 -141 -25 -11 2 -14 1 -7 -1 7 -3 -31 -27 -85 -53 -115 -56 -218 -145 -293 -252 -26 -37 -50 -64 -54 -60 -4 3 -4 -1 0 -11 3 -9 1 -17 -5 -17 -6 0 -8 -8 -5 -17 5 -17 5 -17 -6 0 -6 9 -8 22 -4 29 4 6 3 8 -3 5 -6 -4 -29 18 -52 47 -22 30 -72 80 -111 112 -38 32 -70 62 -70 66 0 4 -3 7 -7 6 -5 -1 -39 13 -78 31 -140 68 -359 101 -439 67 -46 -19 -49 -20 -40 -4 5 7 3 8 -5 4 -7 -5 -10 -10 -7 -13 3 -3 -5 -20 -17 -37 -26 -37 -28 -114 -4 -214 9 -35 13 -71 10 -80 -4 -9 -2 -13 5 -8 13 8 26 -29 16 -45 -4 -7 -3 -9 3 -6 5 3 19 -14 31 -38 12 -25 17 -45 12 -45 -19 0 -10 -21 13 -29 13 -5 35 -25 50 -44 29 -39 34 -52 15 -41 -7 4 -5 -2 6 -14 10 -12 22 -19 26 -17 5 3 24 -14 44 -37 20 -23 43 -43 51 -44 19 -3 66 -40 59 -47 -3 -3 3 -4 13 -3 10 0 17 -5 15 -12 -1 -8 2 -11 7 -8 5 3 33 -5 62 -18 32 -14 47 -25 38 -28 -7 -3 5 -5 29 -4 24 0 46 -4 50 -9 4 -6 25 -11 47 -12 22 -2 47 -6 55 -10 15 -6 31 -9 83 -11 l27 -2 0 -95 0 -95 -264 2 c-145 2 -262 0 -259 -4 2 -5 -1 -8 -7 -8 -5 0 -19 -15 -31 -32 -23 -38 -21 -92 12 -243 10 -49 16 -98 13 -108 -4 -14 -3 -17 6 -12 9 6 12 0 8 -23 -2 -17 -1 -29 2 -27 8 5 33 -125 25 -133 -5 -5 -9 14 -6 31 1 5 -3 6 -8 2 -12 -7 3 -51 17 -48 9 2 30 -78 36 -139 2 -19 5 -39 8 -44 10 -17 19 -90 10 -76 -7 11 -11 10 -16 -4 -8 -21 15 -38 27 -21 6 8 7 4 4 -10 -3 -13 -1 -23 3 -23 10 0 55 -72 52 -83 -1 -4 1 -6 5 -5 5 0 35 -12 68 -28 58 -28 65 -29 240 -32 99 -2 184 -8 190 -13 5 -5 23 -8 40 -8 l30 2 -35 7 c-27 6 -18 8 42 9 53 1 78 -3 81 -11 3 -10 7 -10 20 1 23 19 102 28 92 11 -5 -9 -4 -11 4 -6 6 4 8 12 5 18 -5 7 1 9 15 5 13 -3 20 -3 17 0 -3 3 12 18 33 33 81 59 83 65 175 535 79 402 80 410 30 460 -29 29 -20 29 -289 26 l-210 -2 -3 100 c-3 101 -3 101 21 101 13 0 59 9 103 21 43 11 86 22 94 22 8 1 17 4 20 7 3 3 41 26 85 50 86 49 204 154 263 234 20 28 40 53 44 54 5 2 8 10 8 17 0 7 13 41 29 76 38 81 70 204 77 294 5 60 2 75 -16 103 -11 18 -34 39 -52 46 -19 8 -26 15 -17 18 8 3 -29 4 -83 4 -53 -1 -94 -4 -92 -7z m74 -197 c0 -46 -57 -205 -71 -196 -5 3 -6 -1 -3 -9 6 -17 -35 -89 -47 -81 -5 3 -6 -1 -3 -9 3 -8 -23 -42 -65 -85 -82 -82 -215 -157 -282 -157 -21 0 -33 -3 -26 -7 7 -4 -4 -8 -24 -8 l-35 0 7 63 c10 83 48 185 61 166 8 -11 8 -10 4 4 -8 25 21 67 42 60 14 -4 14 -3 3 5 -12 8 -10 15 7 38 36 50 110 117 121 109 6 -3 10 -1 9 6 -2 6 3 14 11 17 9 3 11 0 6 -8 -5 -9 -4 -11 4 -6 6 4 9 11 6 16 -7 11 86 62 102 55 8 -2 12 -1 9 4 -8 12 87 34 124 29 16 -2 27 -1 24 4 -3 4 0 8 5 8 6 0 11 -8 11 -18z m-1190 -73 c14 -4 18 -8 9 -8 -9 -1 -16 -8 -16 -16 0 -11 4 -12 14 -4 9 8 13 8 13 0 0 -6 4 -11 10 -11 5 0 7 7 4 15 -7 16 4 19 31 9 13 -6 14 -9 3 -16 -9 -7 -5 -8 13 -4 18 4 41 -4 80 -27 30 -19 53 -38 52 -44 -1 -6 5 -10 14 -9 10 0 20 -9 24 -24 4 -14 7 -19 8 -12 1 7 6 10 11 7 6 -4 7 -11 4 -17 -4 -6 -2 -8 4 -4 13 8 43 -33 35 -48 -3 -6 -3 -8 2 -4 13 12 33 -11 28 -31 -3 -10 1 -22 8 -27 9 -5 11 -2 6 9 -3 10 -4 17 -1 17 20 0 96 -222 80 -237 -8 -8 -134 16 -198 38 -77 27 -150 68 -142 81 4 6 2 8 -4 4 -13 -8 -74 42 -66 55 3 5 0 8 -8 7 -7 -2 -12 3 -10 10 1 8 -2 11 -7 8 -12 -8 -54 49 -96 131 -35 69 -45 111 -23 97 7 -4 8 -3 4 5 -4 6 -11 9 -16 6 -10 -6 -23 42 -15 55 6 10 99 3 145 -11z m510 -1049 c0 -5 -8 -7 -17 -4 -14 4 -13 3 2 -8 28 -18 105 -17 102 1 -1 11 12 14 58 13 33 0 61 -5 63 -11 2 -6 13 -11 25 -10 21 0 21 1 2 9 -22 9 -24 9 83 16 40 3 57 -8 30 -19 -7 -3 5 -5 27 -5 34 0 36 1 15 8 -20 7 -16 8 23 9 43 1 47 -1 46 -21 -1 -17 -2 -19 -6 -5 -2 9 -12 17 -21 17 -11 0 -13 -3 -6 -8 27 -17 24 -60 -21 -289 -65 -331 -78 -378 -102 -369 -8 3 -11 1 -8 -4 12 -19 -55 -25 -285 -25 -204 0 -240 3 -271 18 -46 23 -55 51 -102 307 -3 14 -18 93 -35 175 -41 203 -41 207 -28 197 19 -15 46 -22 46 -12 0 5 -8 11 -17 13 -10 3 -2 5 17 5 19 0 29 -2 23 -5 -30 -12 -7 -18 72 -20 50 -1 83 2 80 8 -4 5 -14 10 -23 11 -9 1 33 5 93 8 61 3 116 7 123 8 6 1 12 -2 12 -8z"/>
</g>
</svg>
