<?xml version="1.0" standalone="no"?>
<!DOCTYPE svg PUBLIC "-//W3C//DTD SVG 20010904//EN" "http://www.w3.org/TR/2001/REC-SVG-20010904/DTD/svg10.dtd">
<svg xmlns="http://www.w3.org/2000/svg" version="1.0" width="1024.000000pt" height="1024.000000pt" viewBox="0 0 1024.000000 1024.000000" preserveAspectRatio="xMidYMid meet">
<metadata>
Created by potrace 1.16, written by Peter Selinger 2001-2019
<meta name="Producer" content="Online-Convert"/></metadata>
<g transform="translate(0.000000,1024.000000) scale(0.100000,-0.100000)" fill="#000000" stroke="none">
<path d="M5465 8120 c-20 -23 -23 -63 -5 -85 7 -8 40 -30 74 -48 217 -115 342 -421 307 -755 -12 -114 -42 -241 -73 -314 l-20 -48 -58 0 c-76 0 -197 -32 -273 -72 -72 -39 -173 -130 -233 -210 l-42 -57 -253 -5 c-259 -4 -378 -17 -630 -66 -474 -92 -946 -306 -1344 -609 -129 -98 -306 -273 -384 -380 -68 -92 -143 -238 -162 -314 -19 -78 -8 -194 26 -255 58 -107 166 -183 331 -235 155 -49 251 -61 490 -62 l220 0 -19 -75 c-28 -106 -30 -382 -4 -490 55 -224 208 -374 421 -411 173 -30 418 21 637 131 88 45 258 164 325 228 l62 58 16 -97 c33 -201 122 -441 213 -575 96 -140 225 -245 349 -284 122 -37 270 -23 374 38 253 146 457 617 525 1212 24 202 16 637 -13 825 -37 235 -108 477 -199 677 l-36 78 47 92 c61 121 79 210 73 348 -3 63 -11 125 -22 155 l-17 50 43 39 c283 251 607 354 890 281 35 -9 94 -32 132 -51 76 -38 97 -42 119 -16 54 63 14 115 -135 173 -325 126 -713 37 -1043 -239 l-75 -63 -51 45 c-28 24 -74 57 -102 72 -28 15 -52 28 -53 28 -1 1 11 42 27 92 86 268 86 559 -1 798 -58 160 -184 314 -316 384 -70 37 -112 41 -138 12z m396 -1427 c83 -39 133 -89 172 -172 26 -55 32 -81 35 -158 5 -99 -15 -211 -46 -271 l-18 -33 -47 64 c-87 120 -233 239 -361 297 -50 23 -196 64 -291 83 -17 3 -8 16 55 78 113 111 209 151 355 146 66 -3 93 -9 146 -34z m-761 -313 c201 -18 450 -73 450 -100 0 -16 -297 -395 -395 -505 -557 -622 -1130 -954 -1770 -1025 -321 -36 -656 23 -807 142 -225 177 56 616 642 1001 283 186 583 311 960 401 346 82 641 110 920 86z m629 -216 c164 -147 337 -506 415 -854 52 -237 61 -325 61 -630 0 -279 -6 -366 -40 -553 -35 -189 -107 -411 -190 -582 -114 -236 -231 -337 -390 -337 -57 0 -83 6 -137 30 -72 32 -71 32 -136 88 -93 80 -206 281 -256 455 -50 175 -61 267 -61 514 0 230 5 286 47 520 67 377 217 775 402 1068 69 110 224 317 237 317 5 0 27 -16 48 -36z m-665 -745 c-135 -320 -211 -699 -215 -1071 l-1 -116 -92 -89 c-174 -170 -332 -270 -529 -334 -295 -97 -539 -43 -631 139 -76 150 -86 406 -25 617 l21 71 86 18 c142 29 375 111 526 185 244 120 564 347 781 555 61 58 111 105 112 106 0 0 -14 -37 -33 -81z"/>
<path d="M2985 7940 c-35 -14 -45 -34 -69 -151 -47 -228 -93 -283 -276 -329 -98 -25 -120 -41 -120 -85 0 -44 24 -62 115 -85 127 -32 195 -83 236 -175 10 -22 30 -89 45 -150 37 -147 71 -183 129 -132 21 18 28 39 41 110 19 110 46 180 90 234 48 58 89 80 201 108 105 26 123 39 123 90 0 44 -22 60 -119 84 -185 46 -245 119 -292 351 -15 74 -25 100 -45 118 -27 24 -30 25 -59 12z m129 -498 c21 -19 49 -38 62 -44 23 -11 21 -13 -47 -76 -39 -36 -83 -87 -98 -113 l-28 -49 -41 65 c-23 37 -64 82 -96 107 l-55 43 32 17 c44 22 112 97 139 152 l21 44 37 -56 c20 -32 54 -72 74 -90z"/>
<path d="M7556 5428 c-8 -13 -24 -67 -36 -121 -31 -137 -56 -163 -177 -182 -59 -9 -93 -38 -93 -79 0 -42 22 -61 85 -77 91 -22 124 -45 150 -103 13 -28 32 -82 44 -119 33 -110 51 -128 103 -108 28 11 38 32 69 150 29 109 57 142 147 171 96 32 112 44 112 85 0 41 -19 55 -103 79 -37 11 -72 30 -98 53 -33 30 -44 50 -70 137 -17 55 -38 109 -47 119 -22 25 -68 22 -86 -5z"/>
<path d="M8030 4201 c-212 -74 -329 -124 -518 -221 -345 -179 -588 -380 -876 -725 -367 -441 -582 -624 -937 -795 -324 -155 -686 -170 -1053 -43 -191 66 -364 159 -616 331 -597 409 -731 475 -1095 544 -171 32 -470 32 -630 0 -216 -43 -383 -102 -405 -142 -15 -29 -5 -66 23 -85 22 -14 32 -12 128 21 211 71 413 100 639 90 368 -15 663 -127 1035 -391 203 -144 412 -282 518 -343 196 -112 431 -196 652 -233 231 -40 501 -15 725 66 85 31 302 138 396 195 l63 38 52 -60 c141 -162 367 -295 604 -355 91 -23 114 -25 250 -20 175 5 259 24 402 92 116 55 172 92 251 169 69 66 102 119 102 162 0 99 -159 246 -365 336 -155 69 -366 105 -530 93 -89 -7 -280 -50 -351 -80 -34 -14 -32 -11 39 68 40 45 129 150 197 232 213 258 414 446 629 589 179 118 511 269 804 366 99 32 127 53 127 95 0 31 -36 65 -68 64 -15 0 -101 -26 -192 -58z m-863 -1446 c120 -31 237 -87 341 -164 108 -80 110 -91 35 -161 -116 -106 -317 -197 -488 -220 -261 -34 -585 90 -795 305 l-45 46 45 -7 c25 -3 117 -22 205 -41 464 -99 734 -145 763 -127 29 19 44 59 31 87 -17 37 -39 44 -209 72 -172 29 -602 113 -633 124 -39 15 209 86 398 115 69 10 258 -5 352 -29z"/>
</g>
</svg>
