<?xml version="1.0" standalone="no"?>
<!DOCTYPE svg PUBLIC "-//W3C//DTD SVG 20010904//EN"
 "http://www.w3.org/TR/2001/REC-SVG-20010904/DTD/svg10.dtd">
<svg version="1.0" xmlns="http://www.w3.org/2000/svg"
 width="1024.000000pt" height="1024.000000pt" viewBox="0 0 1024.000000 1024.000000"
 preserveAspectRatio="xMidYMid meet">
<metadata>
Created by potrace 1.16, written by Peter Selinger 2001-2019
</metadata>
<g transform="translate(0.000000,1024.000000) scale(0.100000,-0.100000)"
fill="#000000" stroke="none">
<path d="M1845 8389 c-19 -30 16 -67 243 -262 130 -113 285 -247 343 -298 58
-52 162 -143 230 -203 68 -60 126 -112 129 -116 3 -3 75 -67 161 -142 232
-203 249 -221 249 -260 0 -42 -22 -74 -55 -82 -22 -6 -43 7 -132 76 -58 46
-117 92 -132 103 -14 10 -133 103 -265 205 -131 102 -297 229 -370 284 -72 54
-150 114 -174 133 -35 28 -45 33 -57 23 -31 -25 -17 -55 48 -106 121 -95 333
-258 432 -333 55 -41 174 -134 263 -205 l164 -131 -4 -290 c-2 -239 -6 -295
-18 -312 -8 -11 -28 -38 -45 -59 l-30 -37 -3 -398 -3 -398 23 -21 c12 -11 33
-23 45 -26 13 -4 25 -16 28 -28 3 -11 4 -669 3 -1460 l-3 -1440 -340 -146
c-187 -80 -376 -162 -420 -182 l-80 -35 -3 125 c-1 69 1 129 5 132 4 4 123 56
263 115 140 60 261 113 268 118 16 12 18 1526 2 1675 -27 243 -105 400 -217
431 -48 14 -68 14 -118 0 -93 -25 -219 -211 -250 -371 -28 -139 -32 -308 -34
-1277 l-1 -975 -75 -35 c-59 -28 -75 -40 -75 -57 0 -45 21 -46 121 -5 348 144
659 277 954 409 105 46 309 136 455 199 374 162 459 199 593 259 137 62 213
84 290 84 111 0 270 84 353 186 43 52 113 91 224 124 107 32 301 33 412 1 43
-12 82 -19 88 -16 17 10 11 54 -8 64 -10 5 -54 19 -99 30 -99 25 -258 28 -362
6 -75 -16 -193 -64 -224 -92 -18 -17 -18 -5 -15 432 l3 450 30 80 c55 146 141
246 260 301 216 100 425 52 562 -130 102 -136 115 -218 111 -668 l-3 -306 -59
44 c-109 83 -249 138 -383 151 l-63 6 -29 52 c-83 146 -280 291 -329 241 -14
-14 -14 -17 4 -37 10 -12 37 -30 58 -41 59 -30 177 -154 208 -220 l28 -57 57
-6 c190 -23 303 -66 440 -166 55 -41 73 -65 73 -97 0 -11 16 -52 36 -91 66
-132 212 -248 371 -294 47 -14 54 -14 68 -1 8 9 15 22 15 30 0 15 -10 20 -92
50 l-48 17 0 577 c0 636 -2 669 -62 824 -17 43 -57 118 -89 166 -226 337 -642
448 -1004 267 -124 -62 -258 -189 -334 -317 -46 -77 -95 -214 -110 -310 -7
-40 -11 -281 -11 -617 0 -304 -3 -553 -7 -553 -75 -3 -210 -23 -234 -36 -18
-9 -35 -12 -40 -7 -5 5 -8 495 -7 1154 l3 1144 1076 3 1075 2 3 -1317 c2
-1230 3 -1319 19 -1331 9 -8 89 -49 177 -92 88 -44 228 -114 310 -158 83 -43
303 -156 490 -251 187 -96 345 -177 350 -181 25 -20 453 -230 467 -230 19 0
35 38 21 50 -4 5 -66 39 -138 76 -71 37 -272 141 -445 232 -173 90 -385 201
-470 245 -85 45 -186 98 -225 118 l-70 38 -2 1958 c-2 1851 -1 1959 15 1979
10 11 39 37 66 58 59 44 143 112 391 316 105 86 233 190 285 232 534 431 600
488 600 519 0 60 -29 45 -221 -116 -177 -148 -501 -413 -774 -633 -121 -98
-280 -227 -354 -287 -127 -103 -137 -109 -187 -113 -46 -4 -56 -1 -79 22 -26
26 -26 26 -8 57 10 17 41 50 69 72 90 74 658 573 754 663 36 34 196 177 355
319 160 141 364 323 455 404 91 81 202 180 248 220 72 64 81 75 71 92 -18 34
-37 32 -83 -8 -24 -21 -101 -89 -172 -151 -71 -63 -169 -148 -218 -190 -110
-95 -291 -256 -371 -331 -33 -31 -114 -103 -180 -161 -66 -58 -151 -134 -190
-171 -73 -67 -446 -399 -595 -528 -202 -176 -220 -197 -220 -257 0 -60 38
-103 98 -111 23 -3 42 -8 42 -12 -1 -7 -230 -192 -328 -265 -36 -27 -74 -58
-84 -70 -58 -71 -10 -178 92 -206 l40 -11 0 -209 0 -210 -1080 0 -1080 0 0
400 0 400 -92 75 c-119 96 -335 270 -563 453 -99 80 -182 147 -185 149 -2 2 1
7 7 11 6 4 22 25 37 46 32 47 36 122 9 168 -10 16 -128 127 -263 246 -135 119
-272 242 -305 273 -33 31 -99 89 -146 130 -47 41 -186 162 -309 269 -309 271
-343 299 -362 299 -9 1 -20 -4 -23 -10z m1235 -1436 c41 -33 116 -91 165 -128
50 -38 106 -82 126 -99 19 -17 162 -132 317 -255 l282 -224 0 -1587 0 -1587
-66 -32 c-37 -18 -69 -29 -73 -26 -3 4 -7 232 -8 508 -2 276 -5 508 -8 515 -7
18 -318 17 -334 -2 -8 -10 -11 -175 -11 -596 0 -321 -3 -587 -7 -591 -4 -4
-111 -54 -238 -109 -126 -56 -233 -104 -237 -107 -5 -2 -6 659 -4 1469 l4
1473 60 165 c57 158 61 165 87 166 19 1 35 11 49 30 59 82 93 109 153 122 80
16 83 16 83 -13 0 -14 5 -33 11 -43 10 -16 -1 -39 -67 -147 -44 -71 -104 -169
-134 -219 -52 -87 -57 -91 -95 -96 -37 -5 -40 -8 -43 -37 l-3 -33 49 0 49 0
33 -182 c18 -101 39 -221 47 -268 20 -119 33 -134 116 -138 l66 -3 3 -57 c3
-56 4 -57 32 -57 28 0 29 1 30 55 l1 55 65 3 c72 3 90 13 90 48 0 13 4 43 10
66 9 41 53 303 65 398 11 80 11 80 65 80 54 0 65 9 56 46 -5 20 -12 24 -46 24
-40 0 -40 0 -79 78 -21 42 -78 144 -125 227 l-85 149 17 31 c10 16 33 38 52
47 54 26 62 36 50 58 -10 19 -23 20 -220 20 -212 0 -240 -3 -240 -24 0 -9 -30
-13 -105 -15 l-105 -2 0 462 c0 367 3 460 13 452 6 -5 46 -37 87 -70z m3540
-595 l-1 -113 -120 -85 c-67 -47 -155 -109 -196 -137 -41 -29 -81 -53 -89 -53
-7 0 -32 7 -53 16 -41 16 -56 39 -45 68 3 9 79 74 168 145 88 70 199 160 245
200 47 39 86 71 88 71 2 0 3 -51 3 -112z m0 -1438 l0 -1229 -32 6 c-18 3 -64
17 -102 30 -52 17 -72 20 -83 12 -10 -9 -13 -102 -13 -495 0 -266 -2 -484 -5
-484 -2 0 -29 12 -60 27 l-55 27 0 1131 c0 621 -3 1317 -6 1545 l-7 415 30 22
c30 21 193 136 275 193 24 16 46 30 51 30 4 0 7 -553 7 -1230z m-3595 968 c-4
-13 -29 -78 -56 -145 -27 -68 -49 -130 -49 -139 0 -14 -3 -14 -15 -4 -12 10
-15 41 -15 161 l0 149 71 0 c68 0 70 -1 64 -22z m533 -98 l60 -109 -138 -3
c-90 -2 -136 0 -132 7 3 6 25 40 48 76 23 37 52 86 64 108 11 23 25 39 30 36
4 -3 35 -54 68 -115z m115 -212 c11 -15 18 -30 15 -33 -3 -3 -100 -4 -216 -3
l-211 3 21 33 21 34 175 -4 175 -3 20 -27z m-228 -368 l0 -255 -45 0 -45 0
-13 70 c-7 39 -24 128 -38 199 -13 71 -27 156 -31 188 l-6 59 89 -3 89 -3 0
-255z m242 238 c-3 -13 -22 -117 -41 -233 -51 -298 -41 -267 -89 -263 l-42 3
-3 245 c-1 134 0 250 3 257 3 9 30 13 91 13 84 0 86 0 81 -22z m1625 -514 c83
-21 138 -47 222 -103 157 -106 274 -293 317 -506 15 -71 21 -1165 7 -1165 -19
0 -123 115 -153 170 l-30 55 -6 450 c-6 495 -7 506 -71 634 -45 88 -153 202
-229 240 -84 42 -196 65 -275 57 -264 -27 -448 -185 -535 -461 -9 -29 -14
-175 -18 -520 -5 -422 -8 -483 -22 -503 -18 -24 -93 -92 -103 -92 -3 0 -6 240
-6 534 0 587 3 628 60 766 140 339 504 531 842 444z m-2905 -188 c33 -28 74
-99 96 -166 44 -132 47 -196 47 -1011 0 -611 -3 -780 -12 -786 -7 -4 -36 -17
-65 -29 l-52 -21 -3 856 -4 856 -23 85 c-30 109 -65 175 -102 190 -34 14 -35
18 -11 36 29 23 97 17 129 -10z m-172 -88 c35 -16 71 -95 90 -198 13 -73 15
-200 13 -924 l-3 -838 -132 -58 -133 -58 0 847 c0 973 3 1020 75 1162 15 30
53 79 61 79 2 0 15 -5 29 -12z m1513 -1185 l-3 -507 -97 -42 -98 -43 0 550 0
549 100 0 100 0 -2 -507z m2807 163 l60 -23 3 -487 2 -486 -80 40 -80 40 0
470 c0 535 -10 486 95 446z"/>
<path d="M2204 7081 c-50 -23 -84 -77 -115 -182 -19 -66 -22 -105 -26 -367
l-5 -293 -24 -9 c-35 -14 -31 -46 9 -66 17 -10 84 -38 147 -64 414 -170 392
-162 408 -147 26 27 5 57 -61 87 l-62 28 3 323 c4 344 -4 462 -38 553 -27 71
-81 133 -128 146 -50 13 -60 13 -108 -9z m128 -98 c62 -65 76 -171 77 -570 1
-172 -1 -313 -4 -313 -14 0 -260 102 -265 110 -3 4 -3 154 0 332 5 310 6 325
28 373 33 71 58 95 102 95 27 0 43 -7 62 -27z"/>
<path d="M7925 6998 c-46 -25 -86 -76 -114 -142 -53 -128 -62 -194 -68 -519
l-6 -298 -31 -16 c-52 -26 -56 -32 -44 -58 16 -36 51 -27 299 78 l224 95 3
239 c5 420 -26 560 -140 619 -32 17 -95 18 -123 2z m102 -78 c66 -40 81 -118
86 -456 l4 -271 -131 -56 c-72 -31 -139 -59 -150 -63 -17 -7 -18 4 -14 302 5
287 6 314 27 379 30 93 63 145 103 167 41 22 37 22 75 -2z"/>
<path d="M7166 6520 c-34 -11 -79 -52 -108 -98 -44 -72 -51 -122 -55 -427 l-5
-290 -61 -30 c-65 -31 -76 -48 -54 -79 13 -17 27 -12 263 92 322 142 322 142
327 163 6 23 -14 40 -44 37 l-24 -3 -6 235 c-3 129 -11 250 -17 267 -34 102
-129 160 -216 133z m98 -91 c59 -46 71 -121 71 -423 l0 -150 -130 -58 c-71
-32 -131 -58 -133 -58 -2 0 -2 123 0 273 4 254 5 276 27 329 38 96 107 133
165 87z"/>
<path d="M7503 5085 c-103 -52 -175 -158 -224 -331 -22 -77 -23 -94 -27 -662
-3 -542 -4 -583 -20 -577 -80 33 -115 29 -110 -12 3 -24 11 -29 78 -50 92 -30
440 -141 695 -222 105 -34 196 -61 203 -61 7 0 12 13 12 30 0 33 -20 50 -82
70 l-38 12 0 656 c0 361 -3 682 -6 712 -8 76 -41 214 -60 251 -28 55 -83 126
-119 153 -55 43 -98 56 -178 56 -58 0 -83 -5 -124 -25z m202 -66 c54 -26 127
-104 156 -168 32 -71 49 -166 49 -278 l0 -103 -296 0 -296 0 7 98 c8 114 24
187 55 259 75 174 203 249 325 192z m-152 -617 c16 -2 17 -33 17 -493 l0 -491
-27 7 c-16 3 -72 20 -125 36 l-98 31 0 452 c0 249 2 455 4 457 4 4 190 4 229
1z m351 2 c14 -6 16 -64 16 -555 l0 -548 -42 13 c-141 43 -215 68 -226 75 -10
6 -13 109 -12 506 0 274 3 502 6 506 6 10 234 12 258 3z"/>
<path d="M5320 4205 c-63 -20 -124 -75 -155 -141 -32 -67 -30 -98 6 -102 21
-3 28 4 48 46 40 85 89 125 170 138 40 6 42 8 39 38 -3 27 -7 31 -33 33 -16 1
-50 -4 -75 -12z"/>
<path d="M5173 3228 c-34 -11 -39 -22 -24 -47 6 -10 36 -15 97 -17 49 -2 109
-5 134 -6 39 -3 45 0 45 17 0 40 -177 77 -252 53z"/>
<path d="M4600 2942 c-15 -5 -26 -17 -28 -30 -3 -21 0 -22 81 -22 46 0 112 -3
145 -6 58 -6 62 -6 71 17 6 17 5 26 -5 32 -19 11 -234 18 -264 9z"/>
<path d="M5376 2924 c-36 -35 -19 -40 159 -49 140 -7 169 0 149 32 -12 20 -78
30 -211 32 -62 1 -85 -3 -97 -15z"/>
<path d="M5866 2819 c-32 -5 -70 -16 -83 -24 -31 -21 -27 -51 7 -48 14 1 73 5
133 9 77 5 107 11 107 20 0 18 -28 44 -48 44 -9 0 -26 2 -37 4 -11 2 -47 0
-79 -5z"/>
<path d="M4269 2766 c-1 -3 -2 -9 -3 -13 -1 -5 -5 -13 -9 -19 -10 -17 15 -24
82 -24 32 0 78 -7 104 -16 58 -20 92 -16 92 11 0 33 -67 58 -172 63 -51 2 -94
2 -94 -2z"/>
<path d="M4810 2747 c-27 -9 -35 -17 -35 -37 0 -22 4 -25 30 -23 17 2 77 5
135 7 92 3 105 6 109 22 6 32 -27 44 -118 43 -47 0 -102 -5 -121 -12z"/>
<path d="M5407 2733 c-35 -6 -68 -50 -46 -64 8 -5 20 -7 27 -4 43 16 144 16
215 0 80 -18 107 -16 107 8 0 49 -162 81 -303 60z"/>
<path d="M3823 2537 c-41 -15 -57 -32 -50 -51 5 -12 13 -13 44 -4 36 10 185 6
249 -8 26 -5 32 -2 36 14 3 11 3 24 -1 30 -19 30 -212 43 -278 19z"/>
<path d="M4385 2533 c-32 -12 -51 -25 -53 -37 -7 -33 12 -38 79 -21 62 17 110
16 222 -1 36 -6 38 -5 35 17 -5 35 -51 52 -148 56 -62 2 -98 -1 -135 -14z"/>
<path d="M3005 2469 c-55 -28 -136 -72 -180 -99 -74 -43 -122 -70 -335 -183
-41 -22 -80 -44 -87 -49 -7 -6 -54 -13 -105 -18 -113 -10 -128 -15 -128 -46 0
-24 1 -24 105 -24 l105 0 -3 -125 c-3 -152 1 -157 82 -113 350 192 565 321
614 367 82 77 114 174 93 279 -10 50 -14 57 -36 59 -14 2 -68 -19 -125 -48z
m95 -66 c0 -79 -46 -154 -128 -208 -51 -34 -327 -201 -389 -235 -21 -11 -59
-34 -85 -50 -25 -15 -49 -26 -52 -23 -3 4 -6 46 -6 93 0 98 -2 95 81 138 30
15 119 64 199 108 80 45 150 83 155 85 6 2 42 22 80 44 94 54 129 73 138 74 4
1 7 -11 7 -26z"/>
<path d="M5998 2501 c-45 -9 -68 -27 -68 -53 0 -18 5 -19 54 -14 30 4 61 8 68
11 7 3 53 1 102 -4 50 -5 96 -7 103 -4 25 10 13 39 -22 56 -38 18 -163 22
-237 8z"/>
<path d="M5235 2450 c-63 -13 -93 -27 -105 -51 -20 -37 1 -44 75 -25 102 26
177 30 261 16 63 -11 77 -11 84 0 15 23 -7 47 -54 59 -50 12 -200 13 -261 1z"/>
<path d="M4053 2280 c-42 -10 -83 -37 -83 -55 0 -22 11 -24 80 -9 86 18 156
17 242 -2 77 -18 103 -10 82 24 -26 42 -216 67 -321 42z"/>
<path d="M6376 2274 c-50 -18 -66 -32 -66 -57 0 -18 4 -19 43 -12 118 20 173
23 235 13 37 -6 83 -12 102 -12 30 -1 34 2 32 19 -5 25 -15 31 -76 50 -63 19
-217 19 -270 -1z"/>
<path d="M3553 2270 c-57 -12 -110 -38 -118 -57 -12 -32 12 -36 89 -18 59 14
95 16 163 11 152 -13 148 -13 151 10 2 17 -6 25 -40 39 -49 21 -181 29 -245
15z"/>
<path d="M4583 2186 c-60 -15 -83 -31 -83 -57 0 -28 13 -30 82 -14 72 17 268
15 290 -2 7 -6 29 -14 49 -18 31 -6 37 -4 42 14 3 12 -1 28 -9 36 -43 43 -267
68 -371 41z"/>
<path d="M5692 2119 c-77 -13 -122 -34 -122 -58 0 -30 13 -33 82 -16 96 22
242 18 371 -11 24 -6 27 -4 27 20 0 18 -8 30 -29 40 -61 32 -216 44 -329 25z"/>
<path d="M4767 1899 c-51 -12 -77 -27 -77 -44 0 -21 65 -30 111 -15 37 13 92
11 212 -6 46 -7 47 -6 47 19 0 23 -7 28 -52 42 -56 16 -180 19 -241 4z"/>
<path d="M6030 1893 c-30 -6 -62 -32 -57 -47 2 -7 55 -11 150 -11 146 -1 147
-1 147 22 0 17 -8 24 -37 32 -37 11 -154 13 -203 4z"/>
</g>
</svg>
