<?xml version="1.0" standalone="no"?>
<!DOCTYPE svg PUBLIC "-//W3C//DTD SVG 20010904//EN"
 "http://www.w3.org/TR/2001/REC-SVG-20010904/DTD/svg10.dtd">
<svg version="1.0" xmlns="http://www.w3.org/2000/svg"
 width="1024.000000pt" height="1024.000000pt" viewBox="0 0 1024.000000 1024.000000"
 preserveAspectRatio="xMidYMid meet">
<metadata>
Created by potrace 1.16, written by Peter Selinger 2001-2019
</metadata>
<g transform="translate(0.000000,1024.000000) scale(0.100000,-0.100000)"
fill="#000000" stroke="none">
<path d="M3699 7985 c-3 -2 -41 -7 -85 -10 -91 -7 -264 -39 -323 -60 -23 -8
-41 -12 -41 -10 0 2 -46 -12 -102 -31 -128 -44 -278 -115 -387 -183 -82 -50
-84 -51 -105 -34 -21 18 -21 18 -3 -3 18 -21 17 -22 -12 -44 -17 -11 -36 -18
-42 -14 -7 4 -9 3 -6 -3 4 -6 -23 -36 -61 -66 -74 -61 -202 -191 -246 -249
-16 -21 -31 -36 -35 -33 -4 2 -8 -1 -8 -8 0 -7 -27 -52 -60 -102 -34 -49 -71
-111 -84 -137 -12 -26 -26 -45 -30 -42 -4 2 -11 -1 -15 -7 -4 -8 -3 -9 4 -5
17 10 16 7 -23 -79 -20 -43 -51 -127 -69 -187 -18 -59 -34 -106 -37 -104 -2 2
-4 -8 -5 -22 0 -15 -8 -78 -18 -141 -11 -72 -18 -173 -18 -275 -1 -169 4 -221
28 -348 9 -43 12 -83 8 -90 -4 -7 -4 -10 1 -6 4 4 23 -38 41 -92 18 -55 41
-114 50 -131 12 -25 13 -34 3 -43 -9 -8 -10 -8 -5 2 4 6 3 12 -3 12 -5 0 -9
-15 -8 -33 1 -19 7 -34 14 -34 7 0 10 4 8 8 -7 10 22 5 32 -6 4 -4 2 -5 -4 -1
-7 4 -13 2 -13 -3 0 -6 6 -11 13 -11 18 0 87 -126 75 -138 -6 -6 -3 -12 7 -16
11 -4 14 -2 9 7 -16 28 15 -12 61 -78 26 -38 48 -75 48 -82 0 -7 4 -10 8 -8
10 7 63 -86 62 -108 -1 -9 2 -15 6 -13 11 7 43 -63 35 -76 -4 -6 -2 -8 4 -4 6
4 18 -18 30 -56 23 -71 38 -146 23 -113 -9 19 -10 19 -10 -2 -1 -13 5 -23 12
-23 31 0 48 -273 27 -445 -21 -179 -33 -240 -42 -219 -6 13 -7 7 -4 -20 8 -64
-40 -288 -111 -520 -28 -88 -39 -114 -45 -100 -6 14 -7 12 -3 -7 6 -31 -69
-250 -78 -228 -3 8 -6 -5 -6 -28 -1 -24 4 -43 9 -43 6 0 10 6 10 14 0 9 11 3
29 -15 23 -22 39 -29 68 -29 47 0 75 23 103 83 24 53 122 348 146 444 10 39
21 70 24 68 3 -2 5 9 6 23 0 15 17 106 37 202 104 500 79 890 -75 1180 -22 41
-80 134 -129 207 -57 85 -84 133 -76 136 7 3 5 6 -5 6 -28 2 -145 232 -150
298 -1 12 -5 23 -9 23 -13 0 -50 185 -61 311 -16 168 -1 356 41 526 34 135 87
283 102 283 6 0 7 4 4 10 -7 12 63 150 76 150 5 0 8 4 7 8 -6 17 62 113 74
106 7 -4 8 -3 4 5 -9 14 32 73 45 65 5 -3 9 -2 8 3 -4 21 2 24 19 12 15 -13
16 -12 3 4 -12 16 -11 21 14 47 15 16 33 28 38 27 6 -1 12 5 12 13 0 8 7 14
14 12 7 -1 10 2 7 6 -5 9 29 47 43 47 3 0 5 3 4 7 -8 24 297 241 324 231 11
-4 14 -3 9 6 -16 25 380 182 420 167 8 -3 13 -2 10 3 -15 24 273 61 474 61
201 0 480 -36 480 -62 0 -5 5 -6 10 -3 19 12 244 -61 235 -76 -3 -4 0 -11 6
-15 8 -4 9 -3 5 4 -12 20 10 14 100 -28 48 -22 83 -44 79 -50 -3 -5 0 -7 7 -5
28 11 295 -186 281 -208 -3 -5 -1 -7 4 -4 10 6 48 -27 48 -42 0 -3 3 -5 7 -4
4 2 27 -21 51 -50 146 -172 237 -377 273 -611 17 -111 17 -193 3 -326 -8 -76
-8 -121 2 -188 7 -48 13 -97 13 -109 1 -11 4 -19 9 -16 4 2 7 -3 7 -11 0 -28
77 -184 134 -271 58 -88 64 -101 44 -89 -7 4 -8 3 -4 -5 4 -6 11 -9 16 -6 4 2
31 -28 59 -68 28 -39 59 -83 70 -97 11 -13 18 -27 15 -31 -2 -4 3 -9 10 -12 8
-3 31 -30 50 -58 26 -39 32 -55 23 -61 -8 -5 -7 -8 6 -8 13 0 17 -8 17 -35 0
-62 -20 -72 -203 -104 -135 -24 -195 -81 -244 -231 -3 -8 -6 -46 -7 -85 -1
-38 0 -59 2 -45 4 20 7 15 18 -25 26 -95 27 -102 14 -85 -10 13 -11 12 -6 -3
3 -10 6 -21 6 -23 0 -3 5 -2 10 1 6 4 10 -10 10 -34 0 -50 -25 -79 -105 -124
-50 -27 -62 -40 -77 -77 -9 -25 -17 -37 -17 -27 -1 19 -21 24 -21 5 0 -31 14
-59 25 -54 8 3 16 -2 19 -9 3 -8 23 -23 44 -34 40 -21 57 -44 45 -63 -3 -7 -1
-8 5 -4 23 14 12 -37 -25 -112 -38 -76 -38 -76 -40 -213 -1 -114 -5 -145 -22
-184 -13 -30 -25 -44 -32 -39 -7 4 -9 3 -6 -3 9 -14 -20 -39 -78 -64 -39 -17
-76 -23 -167 -27 -86 -3 -118 -2 -118 7 0 7 -9 9 -25 5 -31 -8 -135 9 -310 51
-204 49 -238 55 -318 55 -86 0 -132 -12 -182 -45 -20 -14 -42 -22 -48 -19 -7
4 -9 4 -5 0 3 -4 -13 -37 -37 -73 -25 -36 -49 -81 -55 -99 -7 -20 -16 -31 -22
-28 -7 4 -8 2 -4 -4 4 -6 -4 -49 -18 -94 -39 -130 -49 -221 -43 -380 4 -119 9
-157 32 -228 15 -47 28 -95 28 -107 1 -11 5 -19 9 -17 4 3 16 -13 27 -34 11
-21 27 -44 35 -51 9 -7 14 -16 12 -20 -2 -3 20 -8 49 -9 44 -3 57 1 81 21 22
20 28 32 27 63 -3 61 -7 83 -15 78 -12 -8 -46 69 -69 157 -30 114 -31 288 -1
410 29 117 61 201 74 193 7 -4 8 -2 4 4 -10 16 22 60 55 78 44 22 116 17 262
-20 301 -77 381 -90 542 -90 160 -1 246 17 323 64 18 11 38 18 43 14 5 -3 8
-2 7 3 -2 4 16 27 39 50 84 84 123 198 123 364 0 108 13 174 33 162 6 -3 7 -1
3 6 -10 15 13 43 27 34 5 -3 7 -1 4 4 -4 6 0 28 9 48 22 53 16 101 -23 172
l-33 62 41 38 c23 21 46 37 51 35 5 -1 7 1 4 6 -3 5 4 26 14 48 27 51 26 140
-1 224 -12 36 -22 94 -23 128 -1 77 15 95 102 111 192 37 217 47 285 116 54
54 72 110 63 192 -4 32 -7 66 -8 75 -1 9 -5 15 -8 13 -4 -2 -14 10 -22 28 -8
18 -51 79 -95 137 -137 181 -157 211 -141 222 10 6 8 8 -7 6 -14 -2 -20 2 -19
14 1 10 -2 15 -7 13 -11 -7 -99 144 -133 229 -15 38 -25 77 -23 87 3 11 1 17
-4 13 -5 -3 -9 3 -9 14 0 11 -3 41 -7 67 -5 40 -4 47 8 40 10 -6 11 -5 4 3 -7
7 -8 40 -3 89 18 208 -3 399 -66 588 -41 123 -112 267 -173 353 -24 34 -41 67
-37 74 4 6 3 8 -3 5 -6 -4 -47 36 -92 89 -44 52 -81 92 -81 87 0 -4 -15 7 -32
24 -39 35 -173 135 -206 152 -12 7 -20 17 -16 23 4 7 3 8 -4 4 -6 -4 -26 1
-43 10 -25 13 -29 18 -18 26 11 8 10 9 -3 4 -9 -3 -61 15 -114 40 -90 42 -265
106 -324 118 -14 3 -53 12 -87 20 -35 9 -80 18 -100 21 -21 3 -49 7 -63 9
-105 20 -457 36 -471 21z"/>
<path d="M7504 6740 c-43 -17 -64 -58 -62 -121 1 -33 6 -59 11 -59 5 0 6 7 3
16 -3 8 19 -6 49 -31 30 -26 52 -52 48 -58 -3 -5 -1 -7 5 -3 6 3 39 -25 74
-64 61 -68 83 -101 59 -86 -6 4 -11 2 -11 -4 0 -7 7 -10 15 -6 17 6 98 -101
88 -117 -3 -5 -2 -7 4 -4 9 6 86 -117 136 -218 34 -68 92 -214 101 -251 l6
-29 -15 25 c-17 30 -20 12 -3 -25 7 -16 14 -21 19 -14 8 14 63 -207 55 -226
-3 -8 -1 -15 4 -17 13 -5 30 -182 30 -314 0 -138 -20 -313 -31 -274 l-7 25 -1
-27 c-1 -16 3 -28 8 -28 15 0 -36 -233 -70 -315 -7 -16 -13 -36 -15 -43 -1 -8
-17 -50 -35 -94 -23 -58 -34 -76 -41 -66 -7 9 -8 8 -4 -5 8 -24 -61 -160 -76
-151 -7 4 -8 3 -4 -5 10 -15 -54 -122 -67 -114 -6 3 -7 1 -4 -4 9 -15 -72
-125 -85 -117 -6 4 -8 2 -4 -4 6 -11 -22 -50 -87 -118 -28 -30 -45 -40 -60
-38 -18 4 -19 3 -4 -3 15 -7 10 -15 -35 -58 -30 -29 -48 -42 -44 -30 4 11 4
16 0 12 -4 -4 -8 -33 -8 -66 -1 -33 1 -55 4 -50 3 4 12 -1 19 -13 12 -19 11
-20 -8 -15 -12 3 -21 1 -21 -4 0 -5 12 -9 28 -9 15 0 48 -3 74 -6 l47 -6 94
94 c52 51 104 106 116 123 18 24 24 27 33 15 8 -12 9 -12 4 3 -6 20 51 100 65
92 4 -3 11 0 15 6 4 8 3 9 -4 5 -20 -12 -14 -2 49 94 130 196 261 509 308 735
29 137 51 346 51 474 0 114 -20 304 -45 423 -9 40 -13 78 -10 86 2 7 1 11 -3
8 -5 -3 -14 18 -22 47 -10 43 -60 183 -96 271 -6 15 -4 17 6 11 9 -6 11 -4 6
4 -5 7 -11 10 -14 6 -9 -8 -103 185 -95 197 3 6 1 8 -4 5 -14 -9 -56 61 -47
76 4 7 4 9 -1 5 -10 -10 -96 113 -88 126 3 5 1 6 -5 2 -6 -3 -16 3 -23 16 -16
29 -65 84 -168 188 -47 47 -84 88 -83 93 1 4 -1 6 -5 5 -5 -1 -17 3 -28 8 -32
18 -68 23 -91 14z"/>
<path d="M6938 6265 c-15 -9 -34 -28 -42 -43 -16 -32 -14 -99 5 -115 9 -8 9
-6 -1 8 -15 20 -14 20 8 1 17 -15 20 -22 10 -29 -10 -6 -9 -7 2 -4 21 6 52
-12 44 -25 -4 -6 -3 -8 3 -5 11 7 56 -36 48 -46 -3 -4 -2 -5 2 -2 10 8 43 -26
36 -38 -3 -6 -1 -7 5 -3 17 10 133 -151 191 -264 27 -52 59 -128 72 -168 20
-63 21 -75 9 -84 -13 -8 -12 -9 2 -5 19 7 23 -9 46 -183 7 -56 8 -103 4 -220
-2 -49 -5 -61 -13 -50 -8 11 -9 6 -4 -22 9 -59 -58 -303 -77 -277 -7 10 -7 8
-3 -8 4 -14 -5 -44 -25 -85 -30 -60 -59 -103 -45 -67 4 10 1 20 -5 24 -7 4 -9
-3 -5 -23 4 -23 -4 -43 -34 -88 -57 -85 -111 -145 -123 -138 -6 4 -8 2 -4 -4
3 -5 -22 -37 -57 -69 -79 -72 -94 -106 -73 -157 28 -66 122 -80 171 -26 10 11
22 17 28 13 5 -3 7 -2 4 4 -7 10 52 60 66 55 5 -1 6 2 2 8 -3 6 10 27 30 48
19 21 54 63 77 93 22 29 45 53 50 51 5 -1 7 2 4 7 -7 11 73 151 87 151 6 0 8
3 5 6 -3 3 11 47 32 98 64 155 109 348 111 475 1 48 3 51 9 26 20 -74 -9 206
-36 340 -31 160 -116 366 -205 498 -22 32 -37 63 -33 69 4 6 3 8 -3 5 -11 -7
-130 132 -125 146 1 4 -2 6 -6 5 -4 -2 -30 16 -57 40 -28 23 -41 40 -30 36 11
-4 17 -4 14 0 -4 4 -17 9 -29 11 -13 2 -30 11 -40 20 -25 22 -71 27 -102 10z"/>
</g>
</svg>
