<?xml version="1.0" standalone="no"?>
<!DOCTYPE svg PUBLIC "-//W3C//DTD SVG 20010904//EN" "http://www.w3.org/TR/2001/REC-SVG-20010904/DTD/svg10.dtd">
<svg xmlns="http://www.w3.org/2000/svg" version="1.0" width="1024.000000pt" height="1024.000000pt" viewBox="0 0 1024.000000 1024.000000" preserveAspectRatio="xMidYMid meet">
<metadata>
Created by potrace 1.16, written by Peter Selinger 2001-2019
<meta name="Producer" content="Online-Convert"/></metadata>
<g transform="translate(0.000000,1024.000000) scale(0.100000,-0.100000)" fill="#000000" stroke="none">
<path d="M3170 6493 c-255 -45 -491 -175 -755 -416 -321 -294 -538 -415 -825 -462 -67 -10 -99 -20 -107 -32 -7 -10 -18 -24 -24 -32 -10 -11 -10 -13 2 -9 8 3 23 2 35 -3 33 -12 167 9 272 42 227 73 378 168 662 415 232 202 314 261 464 333 95 46 159 65 276 86 267 47 571 -31 850 -218 137 -92 342 -278 501 -454 41 -46 78 -83 82 -83 5 0 6 4 3 9 -3 5 1 11 9 15 8 3 15 14 15 24 0 39 -266 313 -440 452 -288 231 -572 342 -867 339 -71 -1 -139 -4 -153 -6z"/>
<path d="M7220 5993 c-367 -38 -733 -275 -1011 -656 -21 -29 -42 -56 -47 -62 -11 -14 -150 -221 -275 -411 -288 -437 -500 -619 -789 -678 -42 -9 -102 -16 -133 -16 -63 0 -187 23 -239 45 -53 22 -155 113 -426 381 -312 308 -444 418 -623 518 -373 208 -774 202 -1158 -17 -41 -23 -136 -90 -212 -147 -320 -244 -465 -317 -694 -349 -127 -18 -145 -22 -139 -28 3 -3 1 -11 -4 -18 -7 -8 -2 -16 16 -25 49 -27 263 12 407 74 118 51 236 122 355 213 265 203 411 287 587 339 75 22 116 27 246 31 145 5 164 3 265 -22 120 -29 291 -105 395 -175 35 -24 107 -77 159 -119 111 -88 562 -530 554 -543 -3 -5 -1 -7 4 -6 8 3 86 -62 306 -251 73 -64 266 -188 360 -232 279 -130 579 -155 846 -69 107 35 259 115 351 184 47 36 180 159 295 274 263 264 373 345 551 411 137 50 220 64 361 59 222 -8 366 -61 690 -253 95 -56 129 -81 120 -88 -9 -6 -8 -7 4 -3 9 3 60 -15 113 -40 191 -89 278 -113 292 -78 3 9 12 13 22 9 9 -3 -2 12 -24 33 -22 21 -43 34 -46 29 -11 -16 -71 7 -249 94 -63 31 -173 91 -245 134 -258 155 -411 214 -610 235 -227 25 -459 -37 -680 -181 -98 -63 -168 -124 -310 -269 -260 -265 -338 -332 -473 -402 -219 -115 -426 -150 -653 -112 -178 30 -363 105 -524 214 -130 88 -130 87 -22 82 317 -14 610 160 873 518 38 52 130 187 204 300 223 340 303 446 448 594 268 272 551 406 861 406 286 0 507 -90 896 -367 204 -145 309 -211 409 -259 73 -35 92 -40 108 -31 31 20 22 53 -19 72 -123 56 -197 98 -311 176 -418 288 -522 351 -672 408 -165 63 -353 90 -510 74z"/>
<path d="M5070 5461 c-97 -31 -181 -106 -227 -199 -25 -50 -28 -68 -28 -153 0 -91 2 -100 36 -165 153 -294 572 -250 664 70 48 164 -44 357 -202 428 -52 23 -196 35 -243 19z m204 -89 c63 -28 130 -94 155 -152 83 -193 -80 -420 -283 -396 -205 24 -323 235 -231 415 68 135 223 193 359 133z"/>
</g>
</svg>
