<?xml version="1.0" standalone="no"?>
<!DOCTYPE svg PUBLIC "-//W3C//DTD SVG 20010904//EN" "http://www.w3.org/TR/2001/REC-SVG-20010904/DTD/svg10.dtd">
<svg xmlns="http://www.w3.org/2000/svg" version="1.0" width="1024.000000pt" height="1024.000000pt" viewBox="0 0 1024.000000 1024.000000" preserveAspectRatio="xMidYMid meet">
<metadata>
Created by potrace 1.16, written by Peter Selinger 2001-2019
<meta name="Producer" content="Online-Convert"/></metadata>
<g transform="translate(0.000000,1024.000000) scale(0.100000,-0.100000)" fill="#000000" stroke="none">
<path d="M7745 8630 c-4 -6 -10 -8 -14 -5 -5 2 -185 -176 -402 -396 -461 -470 -568 -561 -770 -659 -73 -35 -309 -119 -394 -140 -16 -4 -133 -38 -260 -75 -126 -37 -237 -68 -245 -69 -8 0 -17 -4 -20 -7 -3 -3 -32 -15 -65 -28 -173 -65 -354 -170 -498 -289 -64 -53 -81 -62 -89 -51 -8 11 -9 10 -4 -4 4 -13 -48 -62 -227 -210 -127 -107 -277 -232 -332 -278 -198 -168 -471 -396 -541 -452 l-71 -57 -1154 2 -1154 1 -50 -22 c-59 -26 -116 -79 -153 -141 l-27 -45 0 -290 c0 -283 1 -291 23 -337 30 -60 86 -118 140 -143 24 -12 40 -25 37 -32 -2 -7 0 -13 4 -13 5 0 11 4 13 10 2 6 18 6 45 0 23 -6 89 -11 145 -12 l103 -3 2 -725 c1 -399 -1 -719 -6 -712 -4 6 -6 26 -5 43 1 17 -1 27 -4 24 -4 -4 -7 -29 -8 -56 0 -28 3 -45 7 -37 6 9 10 8 15 -5 8 -22 -4 -87 -16 -87 -6 0 -10 -12 -9 -27 0 -24 2 -25 8 -9 14 37 18 -6 16 -184 -1 -96 -3 -177 -4 -180 -1 -3 -5 1 -10 9 -6 9 -9 -10 -9 -53 0 -37 3 -64 6 -61 3 3 5 23 4 44 -2 22 1 42 6 45 5 3 9 -161 9 -369 1 -367 5 -424 35 -462 5 -7 7 -17 3 -23 -3 -5 1 -10 10 -10 12 0 15 -5 11 -16 -4 -12 -2 -15 9 -11 8 4 21 -3 30 -16 8 -12 15 -17 15 -12 0 6 6 3 13 -6 13 -17 18 -19 42 -19 8 0 15 -8 15 -17 0 -14 2 -15 9 -4 7 11 15 11 43 1 27 -10 43 -10 68 -2 18 7 37 9 42 6 6 -4 14 -1 18 6 4 6 19 13 33 13 14 1 23 6 19 11 -3 5 4 7 16 4 16 -5 19 -2 15 11 -4 9 -3 13 2 9 10 -9 75 69 87 105 6 15 13 27 16 27 4 0 8 10 9 23 0 12 11 87 23 167 38 253 75 530 95 705 21 186 25 216 32 255 3 19 6 38 5 43 -2 7 16 226 38 457 5 58 12 143 15 190 3 47 10 130 16 185 6 55 11 107 11 115 0 29 35 483 44 566 l5 51 435 -1 c238 -1 434 -5 434 -9 0 -5 6 -5 13 0 17 11 186 10 179 -1 -3 -5 3 -6 13 -3 10 4 35 -2 61 -15 49 -24 48 -22 34 -51 -10 -22 -10 -22 6 0 l16 23 49 -27 c27 -14 49 -33 50 -42 0 -10 3 -11 5 -4 6 14 54 -4 54 -20 0 -6 3 -8 6 -4 9 9 106 -42 99 -53 -3 -5 0 -12 6 -16 8 -4 9 -3 5 4 -4 7 -4 12 -1 12 15 0 285 -143 285 -151 0 -5 3 -8 8 -7 15 5 71 -25 65 -35 -3 -5 -1 -7 4 -4 6 4 84 -31 174 -78 90 -46 228 -117 307 -157 90 -47 140 -78 137 -85 -2 -7 0 -13 5 -13 6 0 10 4 10 9 0 5 34 -6 74 -25 41 -19 98 -39 125 -46 28 -6 51 -14 51 -17 0 -11 136 -12 201 -2 36 6 96 27 139 48 41 21 78 36 82 35 5 -1 7 2 5 6 -1 5 27 35 62 67 34 33 105 105 156 161 52 56 97 99 102 96 4 -4 5 -3 1 2 -4 4 73 97 171 205 l178 196 164 0 c90 0 170 -4 178 -9 8 -5 12 -5 9 0 -4 5 238 9 593 9 l599 0 0 -1429 0 -1428 23 -27 c37 -44 115 -24 138 36 4 13 9 82 10 155 1 73 6 141 12 152 7 14 6 17 -4 11 -9 -6 -11 -2 -7 13 4 12 2 22 -3 22 -5 0 -9 16 -9 35 0 19 4 35 10 35 5 0 7 7 4 15 -4 8 -1 22 6 30 7 8 8 15 4 15 -5 0 -9 43 -9 96 0 53 -3 98 -6 100 -5 3 -4 39 1 54 1 3 1 21 1 40 -1 19 -1 42 -1 50 6 154 3 381 -5 384 -6 3 -6 5 0 5 12 1 11 1103 0 1224 -3 37 -2 67 2 67 5 0 7 19 4 43 -4 42 -4 141 0 249 2 54 2 56 24 48 13 -5 25 -6 28 -3 3 2 92 6 199 7 175 2 198 4 242 24 79 36 131 85 167 157 30 61 32 74 38 208 3 78 3 201 -2 272 -9 160 -10 174 -18 169 -6 -4 -44 67 -41 79 1 4 -3 6 -10 5 -7 -2 -12 4 -13 12 0 8 -4 15 -10 15 -5 1 -32 15 -58 32 -78 51 -115 53 -750 47 l-578 -5 33 49 c18 27 38 47 43 44 6 -3 7 -2 3 2 -3 4 10 33 30 65 20 31 46 75 56 98 10 24 23 40 29 36 6 -3 7 -1 3 6 -9 14 129 281 192 371 95 134 205 234 467 419 66 46 145 102 175 123 139 99 226 157 235 158 6 1 13 8 18 15 4 8 15 11 24 8 10 -4 14 -2 9 5 -4 6 12 24 39 42 24 17 49 39 55 50 16 30 12 78 -9 99 -11 11 -17 22 -14 24 2 3 -17 4 -44 3 -45 -1 -62 -11 -278 -166 -126 -90 -292 -208 -367 -261 -75 -53 -166 -120 -202 -148 -132 -105 -249 -253 -349 -440 -27 -50 -47 -78 -51 -70 -3 8 -3 4 0 -8 15 -62 -289 -536 -337 -525 -8 2 -11 0 -7 -3 12 -13 -83 -84 -167 -126 -44 -21 -132 -52 -195 -69 -222 -57 -1022 -209 -1238 -234 -58 -7 -125 1 -116 15 3 5 -2 6 -10 3 -22 -9 -72 22 -95 59 -66 107 -16 238 120 312 51 27 53 27 67 9 13 -18 14 -18 8 3 -6 19 -1 23 46 36 127 37 137 38 160 26 20 -11 21 -10 11 3 -13 15 -1 18 397 109 262 59 295 69 313 90 41 51 3 139 -61 139 -16 0 -163 -31 -328 -69 -442 -103 -502 -118 -582 -144 -40 -13 -75 -20 -78 -15 -7 12 -24 10 -24 -3 0 -5 5 -7 10 -4 6 3 10 2 10 -3 0 -6 -10 -12 -22 -16 -35 -9 -134 -91 -173 -144 -81 -109 -97 -271 -40 -387 45 -90 45 -90 94 -121 155 -99 217 -98 801 12 224 42 549 108 654 133 52 12 76 15 76 7 0 -6 8 -2 16 9 9 11 15 15 13 8 -2 -6 -27 -36 -54 -65 -28 -29 -124 -135 -214 -235 -90 -101 -168 -180 -174 -176 -5 3 -7 1 -4 -4 4 -6 -21 -42 -56 -80 -549 -616 -556 -623 -582 -627 -11 -2 -19 -9 -17 -15 3 -15 -80 -67 -141 -87 -58 -19 -144 -15 -222 12 -83 27 -389 181 -1010 506 -132 69 -298 156 -370 193 -470 245 -581 310 -606 357 -10 18 -9 20 6 14 15 -5 16 -4 6 8 -10 11 8 26 96 84 l107 71 24 -47 c13 -26 41 -65 63 -87 21 -23 39 -48 39 -58 0 -9 4 -17 10 -17 5 0 7 7 3 16 -5 14 -3 15 16 5 12 -7 18 -17 15 -23 -4 -6 -3 -8 3 -5 5 3 38 -3 72 -13 76 -24 143 -25 224 -4 116 30 213 91 492 307 77 60 214 166 304 235 90 70 230 180 312 245 82 65 154 115 159 112 6 -4 9 -1 8 5 -3 13 109 108 128 109 7 1 14 7 17 14 3 7 24 26 48 42 48 32 74 55 64 55 -3 0 -1 9 5 20 14 25 -9 84 -39 100 -12 6 -19 15 -16 20 8 13 -86 -28 -107 -47 -9 -8 -22 -12 -29 -7 -7 4 -10 3 -5 -4 4 -6 -24 -35 -66 -68 -40 -32 -93 -73 -118 -93 -24 -20 -46 -34 -47 -31 -1 3 -8 -3 -15 -12 -12 -15 -152 -128 -288 -233 -29 -22 -109 -85 -179 -140 -130 -104 -285 -224 -405 -313 -38 -29 -73 -49 -79 -45 -6 3 -7 1 -3 -5 4 -6 -30 -29 -86 -57 -71 -36 -100 -45 -123 -41 -22 4 -26 3 -15 -4 11 -7 6 -10 -20 -10 -80 0 -154 40 -185 101 -17 33 -20 79 -4 79 5 0 8 4 5 9 -7 11 38 52 229 206 81 66 195 159 253 207 58 48 109 85 114 82 5 -3 7 -1 6 4 -2 5 58 60 132 123 74 62 185 155 245 207 61 52 120 99 133 105 12 5 22 14 22 18 0 7 82 77 178 151 19 15 39 25 45 21 6 -3 7 -2 4 4 -7 11 21 39 113 109 121 93 131 98 142 83 8 -11 9 -11 5 2 -6 17 -4 19 113 81 90 49 227 101 375 143 50 15 176 51 280 81 105 30 233 69 285 87 52 17 100 32 105 32 6 0 15 3 20 8 6 4 55 29 110 56 119 57 232 131 335 217 115 96 867 856 875 884 4 14 13 29 19 33 7 6 4 7 -6 3 -12 -3 -18 0 -18 9 0 8 0 18 -1 23 0 4 -11 13 -25 20 -13 7 -24 17 -24 22 0 13 -47 13 -55 0z m-4181 -2889 c3 -5 16 -7 29 -4 22 5 21 4 -3 -17 -36 -30 -332 -225 -337 -222 -9 5 -97 -89 -108 -115 -13 -30 -12 -38 5 -79 11 -25 17 -50 14 -55 -3 -5 -2 -9 3 -8 4 1 37 -26 72 -60 35 -34 82 -72 105 -84 l41 -22 -914 -3 c-872 -2 -916 -1 -950 16 -20 10 -46 34 -58 52 -22 32 -23 41 -23 264 0 214 2 233 20 264 12 20 25 30 32 26 7 -4 8 -3 4 4 -7 11 19 29 63 43 37 11 1999 11 2005 0z m5026 -13 c84 -44 85 -46 85 -318 0 -225 -1 -240 -21 -266 -11 -15 -33 -37 -48 -48 -27 -21 -35 -21 -993 -24 -710 -2 -969 1 -979 9 -10 8 -14 8 -14 0 0 -6 -6 -11 -12 -11 -7 0 -1 11 13 24 14 12 28 28 30 34 4 12 197 229 271 305 26 27 48 51 49 55 7 22 183 211 192 205 5 -3 7 -1 4 4 -8 12 27 46 36 36 4 -3 7 -1 7 5 0 9 166 12 668 12 l668 0 44 -22z m-6153 -840 c17 -2 20 -8 17 -33 -2 -16 -11 -129 -19 -250 -8 -121 -18 -240 -21 -265 -3 -25 -7 -72 -9 -105 -5 -117 -16 -262 -30 -410 -8 -82 -22 -231 -31 -330 -9 -99 -18 -187 -21 -195 -2 -8 -6 -42 -8 -75 -2 -33 -13 -139 -25 -235 -17 -130 -26 -178 -39 -188 -9 -7 -10 -10 -2 -6 12 6 13 -5 7 -65 -4 -39 -9 -81 -11 -92 -2 -11 -16 -99 -30 -197 -14 -97 -30 -198 -36 -224 -14 -62 -55 -98 -110 -98 -47 0 -83 16 -73 32 4 6 3 8 -3 5 -33 -21 -34 12 -33 1348 0 730 3 1332 7 1338 3 6 1 7 -5 3 -8 -5 -11 2 -10 19 2 20 7 25 20 22 10 -3 18 -2 18 1 0 6 391 6 447 0z"/>
<path d="M4543 7905 c-17 -7 -34 -23 -38 -34 -3 -12 -10 -19 -15 -16 -4 3 -4 -11 0 -31 5 -20 6 -43 3 -50 -3 -8 -1 -14 5 -14 9 0 19 -44 28 -120 2 -14 10 -52 17 -85 8 -33 27 -126 42 -207 18 -100 33 -152 45 -166 10 -11 17 -23 14 -26 -2 -3 -2 -4 2 -2 3 2 20 0 38 -4 49 -11 86 21 96 83 4 25 3 50 -1 54 -4 4 -29 116 -54 248 -59 305 -60 311 -78 339 -23 34 -66 47 -104 31z"/>
<path d="M3510 7613 c-20 -14 -27 -28 -29 -60 -2 -41 0 -45 93 -141 87 -90 115 -125 84 -106 -7 4 -8 3 -4 -5 4 -6 12 -9 17 -5 6 3 25 -9 42 -27 18 -18 26 -29 18 -24 -10 5 -12 4 -7 -4 4 -6 12 -9 17 -5 5 3 86 -70 179 -163 94 -92 180 -173 193 -180 22 -12 39 -11 89 9 25 9 27 13 25 69 -1 32 0 60 3 62 3 2 0 3 -6 1 -16 -3 -166 150 -157 161 4 4 2 5 -5 1 -9 -5 -84 63 -231 208 -120 119 -216 217 -215 219 2 2 -15 4 -39 5 -27 2 -51 -4 -67 -15z"/>
<path d="M3188 6733 c-10 -2 -18 -9 -18 -14 0 -6 -5 -7 -10 -4 -6 4 -10 3 -9 -2 1 -4 -1 -16 -6 -26 -7 -17 -4 -47 10 -79 4 -11 3 -18 -4 -18 -6 0 -11 6 -11 14 0 8 -4 17 -9 21 -6 3 -9 -4 -8 -15 1 -19 5 -21 33 -24 6 -1 22 -7 35 -13 13 -7 69 -24 124 -38 55 -15 163 -46 240 -70 77 -24 172 -51 212 -61 l72 -17 34 23 c38 26 47 68 22 106 -8 13 -11 25 -6 29 5 3 12 0 14 -5 3 -6 5 -5 3 1 -1 7 -13 13 -26 15 -49 5 -290 77 -290 86 0 5 -4 7 -9 4 -5 -3 -80 15 -167 40 -167 49 -198 56 -226 47z"/>
</g>
</svg>
