<?xml version="1.0" standalone="no"?>
<!DOCTYPE svg PUBLIC "-//W3C//DTD SVG 20010904//EN"
 "http://www.w3.org/TR/2001/REC-SVG-20010904/DTD/svg10.dtd">
<svg version="1.0" xmlns="http://www.w3.org/2000/svg"
 width="1024.000000pt" height="1024.000000pt" viewBox="0 0 1024.000000 1024.000000"
 preserveAspectRatio="xMidYMid meet">
<metadata>
Created by potrace 1.16, written by Peter Selinger 2001-2019
</metadata>
<g transform="translate(0.000000,1024.000000) scale(0.100000,-0.100000)"
fill="#000000" stroke="none">
<path d="M3825 6689 c-153 -11 -320 -52 -458 -110 -38 -16 -74 -26 -80 -22 -7
3 -9 2 -4 -2 10 -11 -121 -87 -135 -79 -6 4 -8 3 -5 -3 5 -8 -71 -73 -85 -73
-2 0 -37 -30 -77 -67 -40 -38 -78 -68 -85 -68 -6 0 -11 -7 -11 -15 -1 -8 -7
-14 -14 -12 -7 1 -10 -2 -7 -7 8 -13 -43 -73 -56 -65 -5 3 -8 0 -6 -7 2 -12
-59 -109 -69 -109 -2 0 -1 5 2 10 3 6 1 10 -5 10 -7 0 -9 -7 -6 -16 6 -15 -46
-118 -55 -109 -3 2 -5 -4 -6 -13 -1 -9 -19 -63 -41 -120 -50 -127 -68 -206
-81 -352 -15 -169 -17 -210 -9 -210 5 0 8 -21 8 -47 0 -27 10 -88 22 -138 12
-49 21 -106 21 -125 0 -19 2 -29 5 -21 3 8 18 -18 34 -58 15 -40 25 -77 22
-83 -4 -6 -3 -8 3 -5 12 8 46 -61 37 -75 -4 -6 -2 -8 4 -5 5 4 22 -14 38 -40
70 -122 241 -309 347 -382 43 -29 52 -41 48 -64 -1 -5 3 -6 9 -2 5 3 10 1 10
-6 0 -7 3 -9 6 -6 4 4 1 14 -7 23 -13 16 -12 16 9 5 12 -7 20 -16 18 -20 -3
-4 1 -8 8 -8 8 0 49 -18 92 -40 44 -22 102 -48 131 -58 29 -10 49 -23 46 -28
-3 -6 -1 -7 5 -3 6 4 41 -2 77 -13 162 -50 406 -72 589 -52 220 24 457 103
623 208 47 29 90 50 96 46 5 -3 7 -1 4 4 -4 6 17 29 46 50 111 84 257 248 257
288 0 23 -38 55 -64 55 -14 0 -34 -8 -43 -18 -10 -10 -40 -42 -66 -70 -26 -29
-52 -52 -58 -52 -6 0 -8 -4 -5 -9 6 -8 -18 -23 -39 -25 -5 -1 -10 -8 -10 -16
0 -24 -176 -151 -200 -144 -13 3 -16 2 -8 -3 18 -13 -102 -76 -141 -75 -18 0
-25 -2 -17 -7 21 -13 -158 -73 -289 -96 -101 -18 -352 -20 -463 -5 -267 38
-548 181 -736 374 -65 68 -72 78 -60 94 13 15 12 16 -3 4 -14 -11 -22 -5 -61
50 -48 69 -82 129 -79 141 1 4 -2 7 -7 7 -5 0 -24 37 -41 83 -130 336 -117
689 38 993 52 100 76 136 87 127 4 -5 5 -3 2 4 -10 17 72 121 168 211 147 139
296 226 499 291 107 34 122 37 129 19 4 -9 6 -7 6 3 2 33 286 50 466 28 131
-16 351 -81 339 -100 -3 -5 3 -6 12 -2 12 4 15 3 10 -5 -4 -8 -2 -10 8 -6 17
7 76 -22 76 -37 0 -6 6 -9 13 -6 18 7 40 -7 43 -28 1 -9 6 -20 10 -23 4 -4 4
1 1 11 -4 9 -4 17 0 17 32 0 320 -251 308 -270 -3 -4 3 -14 13 -21 16 -13 16
-12 3 6 -7 11 5 0 27 -25 22 -25 38 -48 36 -52 -2 -4 1 -10 7 -14 8 -4 9 -3 5
4 -4 7 -3 12 3 12 5 0 12 -6 14 -12 4 -10 8 -9 16 2 10 13 12 13 22 0 9 -13
10 -12 5 3 -3 9 -1 17 5 17 5 0 14 12 20 27 11 31 -1 71 -32 99 -10 9 -16 21
-12 27 3 5 1 7 -4 4 -14 -9 -47 29 -37 44 4 7 3 10 -3 6 -6 -4 -17 0 -24 9
-46 56 -223 191 -346 265 -37 22 -60 38 -50 35 11 -4 16 -2 12 5 -4 6 -13 8
-21 5 -16 -6 -165 54 -159 64 2 4 -7 5 -22 2 -16 -3 -24 -1 -20 5 4 7 -3 11
-16 10 -12 0 -62 9 -112 21 -90 20 -281 43 -339 41 -17 -1 -76 -5 -131 -10z"/>
<path d="M6300 6690 c-221 -20 -448 -92 -608 -194 -23 -15 -47 -24 -53 -21 -5
4 -8 2 -7 -3 4 -12 -78 -73 -101 -77 -9 -1 -16 -6 -16 -11 -1 -5 -39 -47 -86
-94 -107 -107 -198 -229 -256 -344 -46 -92 -113 -278 -113 -315 0 -11 -3 -21
-7 -21 -5 0 -9 -12 -9 -27 -1 -16 -6 -73 -10 -128 -5 -57 -5 -154 0 -225 4
-69 9 -137 10 -152 0 -16 5 -28 10 -28 4 0 6 -11 4 -25 -3 -15 -1 -22 5 -18 6
4 8 -2 5 -15 -4 -12 -3 -20 2 -17 10 6 20 -46 14 -76 -3 -16 -2 -19 3 -7 6 12
18 -8 45 -74 21 -52 31 -85 22 -77 -12 10 -13 9 -8 -5 3 -9 11 -16 18 -16 6 0
27 -26 45 -57 19 -32 55 -85 80 -118 24 -33 35 -51 23 -41 -22 19 -22 19 -22
0 0 -13 7 -20 21 -21 23 -2 199 -165 211 -195 4 -10 10 -18 13 -18 4 0 3 5 -1
11 -10 16 2 10 84 -45 42 -29 71 -55 68 -62 -3 -8 2 -11 15 -9 24 5 90 -25 83
-37 -3 -4 1 -5 9 -2 8 3 25 -5 37 -18 13 -13 19 -17 15 -9 -5 9 -3 12 6 8 72
-29 241 -79 314 -92 148 -27 350 -31 485 -10 63 10 127 19 142 19 14 1 24 4
21 9 -2 4 3 7 11 7 25 0 178 55 261 94 151 71 303 183 424 312 41 43 78 78 83
76 5 -1 7 1 4 6 -7 12 69 124 78 115 4 -5 6 -3 4 2 -1 6 18 51 44 100 94 182
140 375 140 585 0 287 -83 544 -256 788 -34 48 -63 90 -64 95 -1 4 -4 6 -7 5
-2 -2 -40 31 -82 73 -168 164 -373 285 -585 345 -38 10 -68 22 -68 25 0 4 -10
5 -22 2 -19 -4 -20 -3 -8 7 12 9 11 10 -7 5 -12 -3 -57 -2 -100 4 -118 15
-268 20 -363 11z m312 -130 c103 -12 217 -41 215 -53 -1 -5 4 -12 12 -15 8 -3
11 0 7 7 -10 16 20 14 37 -4 8 -8 17 -12 19 -9 8 7 68 -17 63 -26 -3 -4 2 -11
11 -14 8 -3 12 -2 9 4 -8 13 -2 13 29 -1 14 -7 23 -16 20 -20 -3 -5 3 -6 12
-2 13 5 15 3 9 -7 -5 -8 -4 -11 3 -6 12 7 75 -27 66 -36 -3 -3 3 -5 13 -5 10
1 17 -4 15 -11 -1 -8 2 -11 8 -7 21 13 226 -158 213 -178 -3 -5 -1 -7 5 -4 13
9 90 -77 152 -168 63 -94 81 -130 74 -152 -4 -13 -3 -14 4 -5 7 10 12 6 21
-17 7 -16 10 -35 5 -42 -5 -8 -3 -9 6 -4 10 6 12 4 7 -9 -4 -9 -3 -15 2 -12
12 8 55 -142 55 -191 -1 -23 2 -40 6 -38 13 8 21 -71 21 -200 0 -120 -16 -259
-30 -251 -3 2 -7 -15 -7 -38 -2 -45 -57 -197 -80 -221 -9 -8 -12 -15 -9 -15
11 0 -54 -109 -103 -175 -91 -121 -206 -226 -349 -319 -133 -86 -372 -175
-431 -162 -18 4 -22 3 -14 -2 40 -27 -336 -44 -478 -22 -36 5 -71 10 -78 10
-7 0 -11 4 -8 9 3 4 -5 6 -17 4 -33 -6 -199 52 -317 113 -109 55 -277 181
-272 203 1 7 -2 10 -7 7 -5 -3 -36 23 -69 59 -91 97 -180 234 -167 256 4 5 1
8 -6 7 -15 -4 -71 135 -98 245 -44 179 -49 331 -15 512 18 94 70 260 88 278 7
6 13 17 14 22 4 28 36 84 45 78 6 -3 7 -1 3 5 -13 22 146 238 167 225 5 -3 7
-1 3 5 -12 19 192 190 209 174 5 -4 5 -2 2 4 -7 12 99 76 203 122 79 36 251
82 340 91 100 11 277 11 362 1z"/>
<path d="M6432 6490 c-12 -5 -27 -22 -33 -37 -14 -35 -3 -211 14 -232 9 -12 9
-13 0 -7 -7 4 -13 3 -13 -2 0 -17 79 -7 98 11 14 15 17 38 18 138 1 66 -1 117
-4 115 -2 -3 -14 1 -26 9 -23 17 -23 17 -54 5z"/>
<path d="M6697 6027 c-13 -12 -38 -61 -57 -109 -19 -48 -38 -85 -42 -82 -4 3
-5 -3 -1 -12 4 -11 3 -15 -4 -11 -7 5 -9 0 -6 -11 2 -11 -2 -26 -11 -34 -8 -9
-13 -18 -11 -20 5 -4 -61 -181 -91 -246 -10 -22 -21 -32 -30 -28 -9 3 -12 1
-9 -4 3 -6 0 -10 -7 -10 -7 0 -29 -11 -48 -23 -19 -13 -41 -23 -48 -21 -7 1
-8 0 -3 -2 5 -3 2 -26 -6 -53 -14 -42 -14 -53 -1 -92 9 -28 26 -52 46 -65 17
-12 29 -24 27 -26 -3 -3 28 -4 67 -3 60 2 77 -2 95 -18 12 -11 20 -25 16 -31
-3 -6 -3 -8 2 -4 11 10 96 -62 88 -75 -3 -5 -2 -7 4 -4 11 7 139 -102 135
-115 -1 -5 2 -7 7 -4 5 4 16 -2 23 -11 7 -10 22 -23 33 -30 11 -6 19 -16 17
-23 -1 -6 2 -9 6 -6 5 3 18 -4 28 -15 11 -12 17 -23 14 -24 -3 -2 -1 -7 4 -12
5 -5 6 -3 2 5 -4 6 -3 12 2 12 15 0 33 -26 24 -35 -4 -5 -2 -5 4 -2 7 4 17 0
24 -8 13 -16 57 -20 76 -7 19 12 35 52 29 71 -3 11 -27 39 -53 63 -26 23 -46
46 -44 50 1 5 -1 7 -6 5 -14 -4 -182 145 -175 157 3 6 3 8 -2 4 -9 -8 -24 3
-118 86 -36 33 -64 63 -61 68 3 5 0 7 -8 6 -8 -2 -14 9 -16 32 -1 19 -7 52
-13 72 -11 34 -7 49 46 192 35 96 61 153 68 149 6 -4 7 -1 2 6 -8 14 64 203
74 196 4 -2 6 17 6 42 0 35 -5 49 -24 64 -30 25 -47 24 -74 -4z"/>
<path d="M5300 5373 c-71 -7 -101 -50 -66 -95 11 -15 30 -18 129 -18 88 0 119
3 130 15 8 8 17 12 20 9 3 -3 2 11 -3 30 -4 20 -5 36 -1 37 3 0 -5 5 -19 10
-28 12 -123 18 -190 12z"/>
<path d="M7505 5371 c-94 -6 -100 -7 -114 -32 -14 -25 -13 -30 9 -62 14 -20
27 -31 31 -26 3 6 47 9 100 9 107 -2 127 3 133 34 5 26 3 67 -2 61 -3 -2 -14
2 -26 10 -11 8 -23 14 -26 13 -3 -1 -50 -4 -105 -7z"/>
<path d="M6438 4469 c-15 -6 -31 -22 -36 -38 -11 -31 -9 -186 2 -212 18 -41
84 -41 105 0 6 11 11 60 11 110 0 85 -2 92 -27 120 -24 25 -32 28 -55 20z"/>
<path d="M3950 6481 c-8 -6 -18 -7 -22 -5 -10 7 -9 17 -16 -117 -5 -88 -4
-119 6 -128 7 -7 10 -16 8 -20 -5 -8 9 -11 50 -13 12 0 30 8 40 18 16 16 19
35 19 127 0 102 -1 110 -24 128 -26 21 -39 23 -61 10z"/>
<path d="M4712 5940 c-23 -17 -48 -29 -54 -28 -7 2 -12 -2 -11 -9 3 -16 -145
-125 -159 -117 -6 4 -8 3 -5 -3 9 -14 -140 -126 -155 -117 -6 4 -8 3 -5 -3 4
-6 -54 -56 -129 -113 l-136 -102 -49 7 c-35 5 -57 2 -80 -9 -17 -9 -37 -13
-43 -9 -6 3 -8 3 -4 -2 13 -14 -13 -35 -42 -35 -44 0 -90 12 -84 21 3 5 -1 6
-9 3 -8 -3 -59 2 -113 11 -203 33 -389 67 -404 72 -22 9 -62 3 -86 -12 -30
-19 -35 -50 -13 -79 10 -13 16 -26 13 -28 -2 -3 4 -11 13 -19 17 -13 17 -13 3
5 -14 18 -13 19 2 13 9 -3 72 -16 140 -28 72 -12 131 -28 142 -38 11 -9 16
-10 12 -3 -9 15 12 15 69 2 22 -5 56 -12 75 -15 176 -29 253 -45 246 -52 -8
-8 57 -63 81 -69 13 -4 21 -10 18 -14 -9 -14 90 10 115 28 14 11 34 32 45 48
11 16 24 30 28 31 5 1 12 5 15 9 4 4 1 4 -5 0 -9 -5 -13 2 -13 23 0 27 14 40
135 131 74 55 140 99 147 98 7 -2 12 3 13 9 0 16 40 44 50 35 3 -4 5 -2 3 5
-4 16 221 185 235 176 5 -3 7 -1 4 4 -4 6 18 29 48 52 30 23 62 53 71 66 13
20 19 23 30 14 12 -10 13 -8 8 5 -4 10 -13 15 -20 12 -8 -3 -14 1 -14 8 0 20
-34 46 -62 46 -14 0 -44 -14 -66 -30z"/>
<path d="M2820 5372 c-71 -3 -90 -16 -90 -63 0 -46 20 -53 147 -51 68 1 122 7
130 13 19 16 16 63 -4 82 -20 17 -82 24 -183 19z"/>
<path d="M3934 4445 c-24 -24 -25 -29 -21 -118 6 -105 10 -133 22 -144 4 -5 5
-3 2 4 -5 8 4 10 32 6 55 -7 65 15 66 140 0 92 -2 100 -24 118 -31 25 -47 24
-77 -6z"/>
</g>
</svg>
