<?xml version="1.0" standalone="no"?>
<!DOCTYPE svg PUBLIC "-//W3C//DTD SVG 20010904//EN"
 "http://www.w3.org/TR/2001/REC-SVG-20010904/DTD/svg10.dtd">
<svg version="1.0" xmlns="http://www.w3.org/2000/svg"
 width="1024.000000pt" height="1024.000000pt" viewBox="0 0 1024.000000 1024.000000"
 preserveAspectRatio="xMidYMid meet">
<metadata>
Created by potrace 1.16, written by Peter Selinger 2001-2019
</metadata>
<g transform="translate(0.000000,1024.000000) scale(0.100000,-0.100000)"
fill="#000000" stroke="none">
<path d="M4878 7875 c-2 -2 -25 -6 -53 -10 -27 -3 -57 -8 -65 -9 -9 -1 -20 -4
-25 -7 -6 -3 -23 -6 -38 -7 -15 -1 -41 -9 -58 -17 -16 -9 -33 -14 -38 -11 -4
3 -20 -2 -36 -10 -16 -8 -36 -16 -44 -17 -9 -2 -26 -9 -38 -15 -13 -7 -23 -9
-23 -5 0 4 -4 3 -8 -2 -4 -6 -27 -19 -52 -30 -59 -26 -199 -114 -256 -162 -54
-44 -102 -92 -163 -162 -24 -28 -48 -48 -52 -45 -5 3 -6 -2 -3 -10 3 -9 1 -16
-5 -16 -6 0 -11 -6 -11 -12 0 -7 -14 -29 -30 -48 -16 -19 -34 -40 -40 -47 -5
-7 -10 -16 -10 -20 -1 -17 -40 -54 -50 -48 -6 3 -7 12 -4 18 5 8 3 8 -6 0 -12
-11 -11 -15 6 -28 10 -8 14 -15 7 -15 -7 0 -13 -7 -13 -15 0 -8 -3 -15 -7 -15
-5 0 -17 -18 -27 -40 -11 -22 -23 -40 -27 -40 -4 0 -11 -10 -15 -22 -7 -23
-112 -199 -124 -208 -4 -3 -17 -26 -30 -52 -13 -27 -27 -48 -32 -48 -4 0 -8
-5 -8 -11 0 -15 -80 -143 -92 -147 -4 -2 -8 -10 -8 -18 0 -8 -4 -14 -10 -14
-5 0 -10 -5 -10 -11 0 -13 -55 -95 -87 -131 -14 -14 -24 -28 -22 -30 7 -9 -75
-109 -87 -104 -8 3 -11 0 -8 -8 6 -17 -35 -68 -48 -60 -7 4 -8 2 -4 -4 9 -15
-45 -84 -61 -78 -7 3 -15 0 -19 -6 -4 -7 -3 -8 4 -4 7 4 12 1 12 -9 0 -8 -7
-18 -15 -21 -8 -4 -15 -10 -15 -14 0 -10 -151 -214 -162 -218 -4 -2 -8 -8 -8
-13 0 -12 -52 -93 -62 -97 -5 -2 -8 -10 -8 -17 0 -8 -6 -20 -14 -28 -15 -15
-96 -182 -96 -198 0 -5 -4 -9 -10 -9 -5 0 -10 -8 -10 -18 0 -10 -7 -28 -16
-40 -8 -12 -12 -22 -9 -22 3 0 0 -10 -7 -22 -6 -13 -13 -29 -14 -36 -1 -8 -6
-21 -10 -30 -4 -9 -8 -19 -9 -22 -1 -3 -4 -12 -7 -20 -17 -45 -91 -343 -94
-375 -8 -89 -13 -126 -18 -134 -4 -5 -9 -76 -12 -158 -3 -82 -6 -155 -7 -163
-1 -8 2 -40 6 -70 4 -30 9 -95 12 -145 7 -113 15 -175 26 -197 5 -9 6 -23 3
-31 -3 -8 0 -18 5 -22 6 -3 9 -11 5 -16 -3 -5 0 -16 6 -24 10 -12 10 -18 0
-31 -11 -12 -11 -15 1 -12 8 2 14 -4 15 -12 0 -8 6 -27 12 -43 7 -15 14 -38
16 -50 2 -12 12 -39 21 -61 14 -34 14 -38 1 -33 -10 4 -13 1 -9 -8 3 -8 9 -13
14 -10 7 5 36 -35 31 -43 -1 -1 11 -29 28 -62 17 -33 27 -60 23 -60 -5 0 -1
-5 7 -11 13 -9 13 -10 -2 -6 -9 3 -19 0 -22 -8 -3 -9 1 -12 15 -10 14 3 23 -4
31 -20 6 -14 15 -25 19 -25 14 0 19 -32 7 -53 -10 -20 -10 -21 6 -8 9 8 20 11
23 7 4 -4 3 -10 -2 -14 -6 -4 -11 -13 -13 -21 -3 -12 0 -12 13 -1 8 7 18 10
22 6 3 -3 1 -6 -5 -6 -20 0 -13 -15 11 -25 12 -6 22 -18 22 -27 0 -9 4 -20 9
-25 5 -4 6 -3 2 5 -4 6 -2 12 3 12 6 0 11 -6 11 -14 0 -8 8 -21 18 -28 23 -16
44 -53 34 -62 -3 -4 0 -4 9 -1 10 4 39 -19 86 -67 84 -86 131 -128 144 -128 6
0 9 -7 7 -16 -2 -10 4 -19 12 -21 13 -4 13 -3 0 6 -18 13 -1 14 19 2 7 -5 11
-13 7 -19 -3 -6 -1 -14 5 -18 8 -4 9 -3 5 4 -4 7 -1 12 8 12 9 0 16 -4 16 -10
0 -5 7 -10 15 -10 8 0 15 -4 15 -10 0 -5 7 -10 15 -10 8 0 15 -4 15 -9 0 -5
11 -12 25 -15 14 -4 25 -11 25 -17 0 -6 -5 -7 -12 -3 -7 4 -8 3 -4 -4 4 -6 13
-9 21 -6 11 5 59 -18 75 -36 3 -3 30 -18 61 -33 63 -30 102 -61 92 -71 -4 -4
1 -4 11 0 15 6 17 4 11 -6 -5 -8 -4 -11 2 -7 12 7 74 -20 85 -37 4 -6 8 -7 8
-2 0 5 9 1 20 -9 15 -14 17 -21 9 -32 -9 -9 -9 -13 0 -13 6 0 11 5 11 10 0 15
27 12 44 -5 8 -8 19 -15 25 -15 5 0 16 -6 23 -13 7 -7 24 -18 38 -25 58 -30
85 -45 90 -51 3 -3 46 -27 95 -53 50 -26 90 -51 90 -57 0 -5 6 -16 13 -22 8
-9 12 -9 12 -2 0 6 -6 14 -12 17 -7 3 1 2 17 -1 17 -3 55 -17 85 -31 30 -14
58 -26 63 -27 4 -2 9 -4 12 -5 6 -3 22 -7 34 -9 5 0 17 -8 25 -17 9 -8 16 -11
16 -5 0 9 26 4 80 -16 8 -3 24 -8 35 -10 11 -2 54 -10 95 -19 41 -9 104 -18
140 -20 36 -2 77 -8 92 -13 15 -6 28 -6 30 -1 2 5 37 12 78 14 107 8 209 24
253 41 20 8 39 15 42 15 5 1 14 3 61 18 24 8 35 7 48 -4 9 -8 11 -9 6 -2 -12
14 -13 29 -2 26 7 -3 195 84 222 102 8 6 31 18 50 28 19 9 37 20 40 23 7 9 69
40 76 38 4 0 10 4 13 9 3 5 42 30 86 55 58 33 83 42 93 35 9 -8 11 -7 7 5 -6
13 12 26 45 32 3 1 29 13 57 28 29 15 55 27 58 27 3 0 19 7 35 15 17 9 30 13
30 9 0 -4 6 -2 13 4 22 19 117 50 123 41 3 -5 11 -9 17 -9 7 0 6 4 -3 10 -8 5
-12 10 -7 11 13 3 22 6 50 17 16 7 34 12 41 12 6 0 16 4 22 10 5 5 18 11 29
13 28 5 107 27 125 34 8 4 17 7 20 8 3 1 13 5 22 9 9 4 23 9 32 10 8 1 19 5
22 9 4 4 18 7 30 7 13 0 25 4 29 10 3 5 12 7 20 3 8 -3 15 1 15 8 0 7 3 9 7 6
3 -4 11 -2 18 3 6 5 20 11 31 13 10 2 33 10 49 16 17 7 35 14 40 15 6 1 20 7
31 14 12 6 24 8 28 5 3 -3 6 -1 6 7 0 10 4 10 17 -1 11 -9 14 -9 10 -2 -9 14
122 85 145 80 7 -2 10 -2 5 0 -4 3 -4 9 -1 14 3 6 11 5 20 -2 12 -9 13 -9 9 3
-5 13 10 28 25 24 3 0 19 11 35 26 16 15 32 25 36 23 4 -3 9 2 13 10 3 8 11
15 19 15 7 0 62 49 122 110 125 125 135 135 135 150 0 5 4 10 10 10 5 0 9 3 8
8 -3 9 53 106 64 110 5 2 6 8 2 13 -3 5 0 9 6 9 6 0 8 5 5 10 -3 5 -1 10 6 10
7 0 9 3 6 7 -4 3 0 17 9 30 8 14 17 32 19 41 6 34 48 167 55 177 4 6 8 17 9
25 5 48 9 75 11 75 3 0 5 19 15 110 13 128 1 533 -17 578 -8 21 -8 31 1 40 13
13 15 31 2 23 -10 -6 -21 33 -27 94 -7 65 -13 105 -19 135 -10 47 -23 117 -30
165 -12 78 -18 107 -25 120 -7 14 -22 80 -35 155 -8 51 -13 69 -24 98 -6 15
-10 31 -9 35 1 4 -2 18 -5 32 -4 14 -9 36 -11 50 -3 14 -5 25 -6 25 -2 0 -11
35 -14 55 -1 9 -5 20 -8 25 -4 6 -9 30 -13 55 -4 25 -9 48 -11 52 -3 4 -7 17
-10 28 -2 11 -6 30 -10 43 -3 12 -7 33 -10 46 -3 13 -9 32 -15 43 -5 10 -7 18
-3 18 3 0 1 7 -6 15 -7 8 -9 15 -5 15 4 0 2 7 -5 15 -7 8 -9 15 -5 15 4 0 3 6
-2 13 -9 11 -31 69 -37 100 -5 21 -17 51 -32 80 -8 15 -13 27 -10 27 2 0 -13
32 -35 71 -21 40 -39 75 -39 80 0 4 -3 9 -8 11 -14 6 -101 136 -95 142 4 3 1
6 -6 6 -7 0 -25 12 -40 28 -15 15 -58 50 -95 77 -37 28 -74 56 -81 63 -8 6
-18 12 -23 12 -6 0 -12 3 -14 8 -1 4 -28 19 -58 34 -30 15 -75 38 -100 52 -25
13 -80 42 -122 62 -43 21 -78 42 -78 46 0 4 8 5 18 2 14 -5 14 -4 2 4 -8 6
-19 7 -25 2 -6 -5 -26 2 -50 18 -22 15 -57 36 -77 47 -21 11 -38 22 -38 25 0
3 -12 11 -27 17 -16 7 -39 23 -53 35 -14 13 -44 36 -67 52 -24 16 -43 32 -43
36 0 4 -9 11 -20 16 -11 5 -70 56 -132 114 -197 186 -229 220 -222 233 4 6 4
9 -1 5 -11 -10 -62 19 -75 42 -6 11 -17 20 -25 20 -8 0 -20 8 -27 18 -7 10
-21 21 -31 25 -10 4 -15 11 -12 17 3 6 -1 7 -9 4 -9 -4 -18 1 -22 10 -3 9 -12
16 -18 16 -7 0 -22 9 -34 20 -12 12 -22 19 -22 16 0 -2 -32 13 -71 35 -40 21
-75 39 -80 39 -4 0 -20 5 -36 12 -15 6 -37 13 -48 15 -11 1 -42 10 -70 19 -36
11 -97 17 -212 19 -89 1 -164 1 -165 0z m287 -180 c46 -7 70 -12 70 -14 0 -2
7 -4 15 -6 16 -5 52 -13 60 -14 3 -1 -2 -6 -10 -11 -9 -6 -10 -10 -3 -10 6 0
15 4 18 10 8 13 46 -11 38 -25 -3 -6 -1 -5 6 1 14 13 74 -12 127 -52 17 -13
33 -22 36 -19 3 3 17 -6 32 -20 15 -14 29 -25 31 -25 5 0 52 -39 92 -77 18
-18 37 -33 41 -33 4 0 27 -21 52 -46 36 -37 42 -47 30 -54 -11 -7 -11 -10 -2
-11 6 -1 16 -2 21 -3 5 0 23 -13 40 -29 17 -15 34 -28 38 -30 3 -1 29 -23 57
-50 55 -51 106 -95 146 -127 14 -11 36 -29 49 -40 13 -11 28 -20 33 -20 4 0 8
-5 8 -11 0 -5 -4 -7 -10 -4 -5 3 -10 1 -10 -5 0 -7 8 -9 19 -5 11 3 25 -1 34
-10 9 -8 20 -15 26 -15 6 0 11 -5 11 -11 0 -5 -4 -7 -10 -4 -19 12 -10 -2 17
-26 25 -22 26 -22 9 -1 -17 19 -17 22 -3 22 10 0 17 -4 17 -10 0 -5 6 -10 13
-10 6 0 28 -14 47 -30 19 -17 43 -33 53 -36 9 -3 15 -10 12 -15 -3 -5 1 -6 10
-3 9 4 23 0 33 -8 9 -8 32 -20 50 -28 17 -7 32 -17 32 -22 0 -5 5 -6 10 -3 6
3 10 -4 10 -17 0 -13 3 -18 8 -12 8 13 95 -23 87 -36 -2 -4 7 -6 20 -4 14 1
25 -2 25 -7 0 -6 5 -7 10 -4 6 3 10 2 10 -3 0 -5 20 -17 45 -26 25 -10 45 -22
45 -27 0 -5 6 -9 13 -9 20 0 167 -111 210 -159 21 -24 36 -49 34 -56 -3 -7 1
-12 11 -11 11 1 17 -6 16 -20 0 -13 4 -20 12 -17 7 2 26 -25 48 -69 20 -40 40
-80 44 -88 30 -51 31 -57 14 -76 -16 -17 -16 -17 0 -5 14 10 17 9 23 -8 3 -12
3 -25 0 -31 -4 -6 -1 -9 7 -8 9 2 13 -8 13 -29 0 -17 2 -30 4 -27 6 6 29 -41
40 -82 8 -30 7 -35 -4 -30 -11 4 -14 -2 -12 -27 3 -27 7 -32 26 -29 16 1 22
-2 18 -12 -3 -7 -1 -18 5 -24 8 -8 7 -16 -3 -28 -9 -12 -10 -15 -1 -10 13 8
18 -2 26 -44 2 -14 9 -38 15 -54 7 -16 9 -31 6 -34 -2 -3 0 -11 6 -18 6 -8 9
-20 6 -29 -4 -8 -2 -17 4 -20 5 -4 6 -11 3 -17 -4 -6 -12 2 -19 18 l-13 29 1
-32 c0 -19 4 -30 10 -26 7 4 8 -1 3 -12 -5 -15 -4 -16 8 -6 20 17 20 16 41
-94 4 -16 8 -39 9 -50 2 -11 5 -20 6 -20 3 0 6 -16 14 -65 2 -14 5 -25 6 -25
2 0 4 -11 5 -25 3 -37 25 -141 36 -170 5 -14 11 -43 14 -65 8 -78 16 -120 26
-147 6 -15 8 -31 5 -37 -4 -5 -2 -12 4 -16 5 -3 10 -16 10 -28 0 -24 2 -41 24
-200 9 -59 16 -135 16 -170 1 -34 2 -91 2 -127 2 -108 -10 -288 -21 -308 -6
-11 -8 -22 -4 -25 3 -4 0 -13 -6 -21 -7 -8 -10 -20 -7 -25 4 -5 2 -12 -3 -16
-6 -3 -8 -12 -5 -19 3 -8 1 -17 -5 -21 -6 -3 -11 -18 -11 -33 0 -15 -7 -38
-16 -50 -8 -12 -12 -22 -9 -22 4 0 -3 -15 -14 -34 -12 -18 -21 -41 -21 -50 0
-9 -5 -16 -11 -16 -5 0 -7 -4 -4 -10 3 -6 1 -10 -6 -10 -7 0 -10 -3 -6 -6 6
-7 -42 -85 -78 -126 -14 -15 -25 -32 -25 -36 0 -8 -64 -70 -145 -141 -33 -30
-156 -106 -166 -104 -5 2 -9 -2 -9 -8 0 -5 -4 -7 -10 -4 -5 3 -10 1 -10 -6 0
-7 -3 -10 -6 -6 -4 3 -13 -1 -21 -9 -16 -16 -37 -9 -27 8 4 7 2 8 -4 4 -6 -4
-9 -12 -6 -20 3 -8 -11 -17 -38 -26 -24 -8 -45 -17 -48 -20 -10 -12 -180 -73
-211 -76 -13 -1 -56 -15 -129 -42 -8 -3 -17 -6 -20 -7 -3 -1 -13 -5 -22 -9 -9
-4 -25 -9 -35 -11 -10 -2 -19 -4 -20 -5 -2 -2 -6 -3 -10 -4 -45 -9 -103 -31
-103 -38 0 -6 -7 -8 -15 -5 -8 4 -17 2 -20 -4 -4 -5 -11 -7 -16 -4 -5 4 -9 2
-9 -2 0 -8 -100 -47 -117 -45 -4 0 -14 -4 -20 -10 -7 -6 -13 -7 -13 -3 0 4
-11 0 -25 -9 -14 -9 -25 -13 -25 -9 0 5 -4 3 -8 -2 -4 -6 -44 -27 -90 -47 -46
-21 -131 -63 -190 -95 -59 -31 -110 -56 -114 -55 -5 1 -8 -2 -8 -6 0 -8 -27
-24 -55 -32 -5 -2 -16 -10 -23 -17 -7 -7 -20 -13 -27 -13 -7 0 -20 -6 -28 -14
-16 -16 -177 -99 -177 -91 0 3 -10 -1 -23 -10 -13 -8 -27 -12 -30 -8 -4 3 -7
1 -7 -5 0 -10 -55 -28 -72 -24 -5 1 -8 -3 -8 -9 0 -6 -6 -9 -14 -6 -7 3 -17 2
-22 -2 -17 -16 -64 -22 -64 -9 0 7 -5 5 -12 -4 -9 -11 -35 -19 -78 -23 -115
-11 -273 -13 -345 -4 -81 11 -231 46 -260 62 -11 6 -23 12 -27 13 -5 1 -9 2
-10 3 -2 2 -12 4 -24 6 -11 3 -34 11 -50 20 -16 8 -35 15 -41 15 -7 0 -13 4
-13 9 0 10 -39 27 -52 23 -5 -1 -8 3 -8 9 0 5 -3 8 -7 6 -5 -3 -13 1 -20 8 -7
8 -9 15 -5 18 4 2 1 2 -7 0 -16 -4 -173 73 -201 100 -11 9 -23 17 -27 17 -5 0
-31 15 -59 32 -84 54 -87 56 -132 79 -23 11 -48 26 -55 33 -7 6 -38 24 -70 41
-31 16 -57 32 -57 36 0 4 -8 9 -17 13 -10 3 -27 11 -38 18 -11 7 -49 30 -85
52 -36 21 -66 43 -68 48 -2 4 -10 8 -18 8 -8 0 -14 3 -14 8 0 4 -13 13 -29 20
-17 7 -47 30 -69 51 -22 21 -47 43 -55 47 -13 8 -105 107 -160 174 -30 37 -65
99 -59 107 4 4 3 5 -2 1 -11 -10 -38 11 -30 23 3 5 0 9 -5 9 -6 0 -11 5 -11
11 0 5 -11 26 -25 46 -13 20 -22 40 -19 45 3 4 0 8 -6 8 -6 0 -8 4 -5 10 3 6
1 10 -5 10 -6 0 -8 5 -5 10 3 6 3 10 -2 10 -4 0 -19 28 -31 63 -13 34 -27 71
-32 82 -8 18 -17 56 -20 80 -1 6 -6 16 -12 23 -6 7 -8 15 -5 19 4 3 2 11 -3
18 -5 7 -12 25 -14 41 -2 16 -6 36 -9 44 -3 8 -6 22 -6 30 0 8 -2 26 -5 40
-23 126 -27 183 -29 395 -1 148 8 309 18 326 3 4 7 24 10 45 4 22 8 48 10 59
2 11 6 31 9 45 7 40 14 63 24 91 6 15 8 29 5 32 -3 3 -1 12 3 19 5 7 10 22 11
33 3 19 34 111 56 165 5 14 11 31 13 38 3 17 115 246 123 252 3 3 15 22 25 43
11 20 23 37 28 37 5 0 7 4 4 8 -2 4 11 28 30 52 19 25 41 54 49 65 8 10 15 23
15 28 0 5 7 7 15 4 8 -4 17 -1 21 5 4 7 3 8 -4 4 -7 -4 -12 -1 -12 8 0 8 9 20
20 26 11 6 20 17 20 26 0 8 7 17 15 20 8 3 17 15 21 26 3 12 11 17 20 14 8 -3
13 -2 10 2 -7 12 36 78 97 143 9 10 17 22 17 27 0 4 8 15 18 24 27 26 42 46
42 58 0 6 7 13 15 16 8 4 15 13 15 20 0 8 9 18 19 22 11 4 19 9 19 12 -3 11
35 80 43 80 5 0 9 6 9 13 0 7 9 23 20 35 11 12 20 26 20 32 0 13 12 13 28 0 9
-7 9 -7 2 2 -16 19 -12 41 6 34 14 -6 15 -4 4 9 -11 14 -10 17 8 22 12 3 19 9
16 15 -6 9 18 51 43 76 7 7 13 20 13 28 0 8 5 14 10 14 6 0 10 7 10 15 0 8 5
15 10 15 6 0 9 3 8 8 -3 12 24 62 34 62 4 0 8 5 8 10 0 25 264 439 315 494 14
15 25 31 25 36 0 6 9 15 20 22 11 7 20 17 20 23 0 13 132 145 145 145 6 0 18
9 28 20 22 26 139 102 192 124 22 10 48 22 58 27 12 6 17 5 17 -3 0 -8 4 -7
10 3 9 16 55 35 74 30 4 -1 14 4 22 10 8 6 14 9 14 6 0 -3 26 2 58 10 76 20
93 23 187 29 44 3 82 8 85 11 5 5 102 -2 165 -12z"/>
<path d="M5515 6899 c-88 -13 -102 -17 -124 -28 -11 -7 -21 -9 -21 -6 0 3 -10
-1 -23 -10 -13 -8 -27 -12 -30 -8 -4 3 -7 1 -7 -6 0 -7 -4 -10 -9 -6 -5 3 -16
-2 -24 -10 -9 -8 -18 -15 -21 -15 -15 0 -87 -58 -133 -106 -29 -31 -57 -53
-62 -50 -5 4 -13 1 -17 -5 -4 -8 -3 -9 4 -5 17 10 15 -7 -3 -30 -13 -17 -55
-97 -60 -116 -2 -5 -3 -9 -5 -10 -6 -9 -11 -66 -13 -155 -2 -75 1 -104 10
-108 7 -2 13 -10 13 -18 0 -7 8 -29 19 -49 13 -27 15 -40 7 -48 -8 -8 -7 -10
6 -5 11 4 20 0 27 -13 17 -32 130 -142 146 -142 8 0 15 -5 15 -11 0 -5 5 -7
10 -4 6 3 10 1 10 -5 0 -6 5 -8 10 -5 6 3 10 1 10 -4 0 -6 6 -11 14 -11 7 0
27 -7 42 -15 16 -8 36 -15 45 -15 9 0 19 -3 23 -7 3 -4 14 -8 24 -9 9 -1 28
-5 42 -8 34 -9 207 -9 220 -1 6 3 20 8 33 10 12 3 40 14 62 25 21 11 44 20 51
20 6 0 24 12 39 28 26 25 28 25 23 6 -6 -22 13 -28 29 -9 4 4 2 5 -4 1 -29
-17 -10 29 27 66 22 22 40 42 40 44 0 2 16 28 35 58 19 29 31 56 28 60 -4 3
-1 6 5 6 7 0 11 3 11 8 -1 4 0 10 1 15 1 4 4 12 5 17 1 6 4 11 5 13 3 2 4 11
14 77 3 19 8 47 11 61 5 22 -1 78 -19 169 -4 20 -18 53 -50 120 -30 61 -30 64
-14 54 7 -4 8 -3 4 4 -4 6 -13 9 -20 6 -8 -3 -17 3 -20 14 -6 19 -86 92 -101
92 -12 0 -34 28 -27 34 3 4 -1 4 -10 1 -9 -4 -27 -1 -40 6 -13 7 -26 14 -30
15 -5 1 -11 3 -15 4 -5 1 -12 2 -16 1 -4 -1 -16 3 -25 8 -26 13 -121 19 -177
10z m85 -180 c51 -2 86 -8 108 -21 17 -10 34 -17 36 -15 9 5 86 -65 86 -78 0
-8 4 -15 9 -15 5 0 19 -23 31 -52 38 -89 38 -225 -1 -300 -5 -10 -9 -25 -9
-33 0 -8 -4 -15 -9 -15 -5 0 -16 -16 -26 -36 -9 -19 -27 -40 -41 -46 -13 -6
-24 -15 -24 -20 0 -4 -7 -8 -15 -8 -8 0 -15 -4 -15 -10 0 -6 -3 -9 -7 -8 -5 1
-18 -3 -30 -10 -12 -6 -38 -14 -58 -17 -21 -2 -46 -7 -57 -11 -21 -6 -147 11
-193 28 -60 21 -85 33 -85 40 0 5 -6 8 -13 8 -39 0 -129 118 -144 190 -13 56
-14 94 -6 113 6 12 15 36 20 52 5 17 15 29 23 27 10 -2 11 0 2 11 -10 12 -1
26 48 78 33 35 60 61 60 57 0 -5 9 1 21 13 12 12 29 19 39 16 12 -3 17 0 14 8
-5 13 13 23 56 31 13 3 30 10 37 16 7 6 13 7 13 2 0 -4 5 -3 12 4 7 7 19 10
28 7 8 -2 49 -5 90 -6z"/>
<path d="M6287 5553 c-3 -2 -24 -6 -47 -9 -24 -3 -53 -10 -64 -16 -12 -6 -22
-10 -24 -9 -1 1 -23 -7 -47 -18 -25 -11 -47 -19 -48 -18 -2 1 -11 -5 -20 -13
-9 -8 -32 -26 -52 -40 -65 -45 -115 -103 -157 -180 -38 -72 -40 -80 -45 -185
-3 -60 -9 -111 -14 -113 -5 -2 -9 -13 -8 -25 0 -21 1 -21 9 -2 7 17 9 18 14 4
4 -9 9 -29 11 -45 2 -16 4 -30 6 -31 1 -2 2 -6 3 -10 1 -5 5 -14 9 -20 5 -7 5
-13 0 -13 -4 0 -2 -4 5 -9 7 -4 14 -14 16 -22 1 -8 10 -26 20 -41 10 -16 16
-34 13 -42 -4 -10 -1 -13 9 -9 8 3 14 -1 14 -9 0 -8 11 -25 24 -37 15 -14 22
-29 19 -39 -4 -9 -2 -13 4 -9 5 3 29 -14 53 -38 24 -25 40 -45 36 -45 -5 0 -3
-7 4 -15 7 -9 20 -13 28 -10 8 3 31 -5 51 -18 20 -13 46 -27 59 -31 12 -4 22
-12 22 -18 0 -6 3 -8 7 -5 3 4 16 1 27 -6 34 -22 139 -38 235 -36 49 1 94 -2
101 -6 8 -5 11 -4 7 2 -10 17 48 34 63 20 10 -9 11 -9 6 0 -5 9 12 22 51 40
31 16 64 35 73 43 9 8 47 39 83 69 37 30 69 63 73 74 3 10 12 16 19 13 10 -3
12 0 8 11 -5 12 -3 14 7 8 8 -5 11 -4 7 2 -3 5 6 34 20 64 15 30 27 57 28 62
2 4 4 10 5 15 1 4 3 12 5 17 1 6 3 12 5 15 6 11 10 58 12 130 2 84 -30 220
-60 253 -9 10 -16 21 -14 23 6 9 -36 62 -93 119 -50 50 -169 135 -188 135 -3
0 -27 10 -54 22 -26 11 -52 22 -58 22 -5 1 -29 7 -53 14 -40 12 -217 24 -225
15z m114 -184 c4 -8 12 -8 24 -2 12 7 32 6 61 -3 24 -7 44 -10 44 -7 0 3 11
-2 25 -11 13 -9 29 -16 35 -16 23 0 148 -90 183 -133 66 -81 92 -160 88 -266
-2 -56 -33 -151 -57 -175 -8 -8 -14 -18 -14 -22 0 -10 -99 -104 -110 -104 -6
0 -10 -4 -10 -10 0 -5 -7 -10 -15 -10 -8 0 -15 -4 -15 -9 0 -13 -92 -50 -140
-56 -23 -3 -45 -7 -49 -10 -20 -12 -149 18 -204 47 -67 36 -160 115 -151 129
3 5 2 8 -3 7 -13 -4 -78 72 -102 120 -12 23 -19 42 -16 42 4 0 3 6 -2 13 -18
29 -29 137 -20 197 11 69 98 200 134 200 7 0 13 5 13 10 0 6 7 10 15 10 8 0
15 5 15 11 0 5 5 7 10 4 6 -3 10 -1 10 4 0 6 3 10 8 9 4 0 14 2 22 5 81 33
207 47 221 26z"/>
<path d="M3799 5484 c-37 -7 -94 -24 -128 -39 -34 -14 -66 -23 -71 -20 -6 3
-7 -1 -4 -9 4 -10 -5 -20 -25 -31 -17 -8 -31 -19 -31 -23 0 -4 -18 -26 -40
-50 -21 -23 -42 -51 -45 -62 -4 -11 -11 -20 -16 -20 -5 0 -8 -3 -7 -7 1 -5 -6
-25 -15 -47 -9 -21 -17 -44 -17 -50 0 -7 -5 -17 -12 -24 -7 -7 -8 -12 -4 -12
5 0 1 -12 -9 -26 -10 -15 -12 -23 -4 -19 9 6 10 3 4 -11 -11 -27 -13 -155 -2
-178 6 -11 5 -22 -2 -29 -15 -15 -14 -28 2 -24 6 1 11 -6 9 -15 -2 -10 2 -18
9 -18 8 0 8 -4 -1 -16 -11 -12 -11 -15 1 -12 8 2 15 -7 17 -19 2 -13 8 -23 13
-23 6 0 8 -4 5 -9 -3 -4 3 -16 14 -26 11 -10 17 -21 15 -25 -3 -4 2 -10 10
-14 8 -3 15 -10 15 -16 0 -7 18 -29 40 -50 22 -21 40 -43 40 -49 0 -6 9 -11
20 -11 11 0 23 -7 26 -15 4 -8 11 -15 17 -15 6 0 28 -12 48 -26 63 -43 177
-67 299 -62 96 4 112 7 170 37 36 19 75 39 87 45 13 6 23 14 23 19 0 4 6 7 13
7 6 0 35 26 62 57 28 31 57 65 67 74 9 9 19 26 23 38 3 12 10 21 14 21 4 0 15
26 25 58 10 31 21 64 24 72 18 55 10 167 -21 285 -1 6 -13 28 -25 48 -12 21
-22 42 -22 48 0 5 -5 9 -10 9 -6 0 -14 8 -17 18 -4 9 -29 38 -56 63 -37 34
-48 51 -43 64 5 15 4 16 -9 5 -13 -11 -19 -10 -35 8 -11 11 -28 23 -40 27 -11
3 -20 10 -20 14 0 4 -18 14 -40 21 -22 7 -40 17 -40 22 0 5 -4 6 -10 3 -5 -3
-10 -1 -10 4 0 6 -3 10 -7 10 -5 -1 -11 0 -15 1 -5 1 -12 4 -18 5 -5 1 -11 3
-12 5 -4 3 -37 8 -93 15 -27 3 -54 7 -60 9 -5 1 -40 -3 -76 -10z m156 -178
c11 -1 19 -6 18 -12 -1 -6 11 -9 28 -6 17 3 29 0 29 -7 0 -6 3 -10 8 -9 15 5
72 -27 68 -38 -3 -7 3 -10 15 -7 11 3 19 0 19 -6 0 -7 -4 -10 -9 -6 -5 3 -12
1 -15 -4 -4 -5 7 -7 25 -4 28 4 30 3 24 -19 -5 -17 -4 -19 4 -8 20 29 119
-104 137 -185 3 -11 5 -47 6 -80 2 -90 -30 -163 -106 -240 -55 -56 -146 -117
-146 -98 0 5 -4 3 -8 -4 -7 -11 -71 -25 -117 -26 -77 -1 -228 54 -241 87 -3 9
-10 14 -15 11 -21 -13 -138 172 -124 195 3 5 1 11 -4 15 -12 7 -11 138 1 185
23 89 109 220 144 220 8 0 14 4 14 10 0 5 12 13 28 16 15 4 33 11 40 17 6 5
12 7 12 4 0 -3 12 -1 28 3 15 5 47 7 72 4 25 -3 54 -6 65 -8z"/>
<path d="M4687 4014 c-1 -1 -22 -5 -47 -9 -24 -4 -49 -10 -55 -13 -5 -4 -12
-7 -15 -7 -11 -2 -106 -51 -116 -60 -6 -5 -28 -26 -50 -46 -46 -43 -73 -84
-105 -164 -17 -42 -19 -59 -18 -150 0 -98 7 -131 37 -185 5 -8 8 -35 7 -60 -1
-25 0 -39 2 -32 9 24 33 11 90 -47 51 -51 111 -88 188 -116 81 -29 248 -26
306 6 11 5 19 7 19 5 0 -3 23 8 50 24 28 17 55 30 60 30 6 0 10 5 10 10 0 6 5
10 10 10 10 0 90 78 90 87 0 3 14 24 30 49 17 24 29 44 26 44 -3 0 1 12 9 26
9 18 12 56 10 123 -3 103 -3 107 -29 163 -9 21 -16 42 -16 48 0 5 -4 10 -9 10
-10 0 -37 60 -33 73 1 5 -3 5 -9 1 -7 -4 -17 0 -23 8 -27 37 -123 108 -170
126 -28 11 -60 24 -71 28 -11 4 -29 9 -40 11 -25 4 -135 9 -138 7z m138 -187
c11 -3 21 -6 23 -6 1 -1 4 -1 7 -1 17 1 71 -37 113 -78 62 -61 92 -134 87
-215 -2 -31 -7 -62 -11 -69 -5 -7 -9 -19 -11 -27 -5 -35 -115 -121 -176 -139
-51 -14 -173 -11 -221 6 -107 37 -189 151 -188 260 1 70 6 95 19 99 6 2 9 12
6 22 -9 36 93 123 172 148 31 9 144 9 180 0z"/>
</g>
</svg>
