<?xml version="1.0" standalone="no"?>
<!DOCTYPE svg PUBLIC "-//W3C//DTD SVG 20010904//EN"
 "http://www.w3.org/TR/2001/REC-SVG-20010904/DTD/svg10.dtd">
<svg version="1.0" xmlns="http://www.w3.org/2000/svg"
 width="1024.000000pt" height="1024.000000pt" viewBox="0 0 1024.000000 1024.000000"
 preserveAspectRatio="xMidYMid meet">
<metadata>
Created by potrace 1.16, written by Peter Selinger 2001-2019
</metadata>
<g transform="translate(0.000000,1024.000000) scale(0.100000,-0.100000)"
fill="#000000" stroke="none">
<path d="M2994 8620 c-3 -3 -9 -5 -12 -6 -4 0 -18 -5 -32 -11 -14 -6 -30 -12
-37 -14 -29 -9 -115 -87 -153 -137 -14 -18 -47 -44 -73 -58 -29 -15 -60 -42
-79 -69 -18 -25 -35 -45 -40 -45 -4 0 -8 -7 -8 -15 0 -8 -7 -15 -15 -15 -8 0
-15 -4 -15 -8 0 -4 -29 -23 -64 -41 -76 -38 -139 -97 -182 -166 -25 -41 -29
-55 -21 -78 5 -15 13 -25 18 -21 5 3 9 2 9 -3 0 -4 361 -7 802 -6 755 1 803 2
815 19 14 19 18 66 5 61 -10 -3 -63 39 -56 46 8 8 -40 92 -55 95 -7 1 -22 11
-34 22 -11 11 -24 21 -29 21 -4 1 -12 3 -18 4 -5 1 -14 3 -20 4 -5 0 -10 9
-10 19 0 12 -3 13 -8 5 -6 -9 -16 -8 -40 7 -18 11 -32 24 -32 30 0 5 -8 18
-17 28 -10 10 -32 35 -50 56 -35 42 -119 99 -133 91 -5 -3 -21 12 -37 32 -34
47 -80 93 -92 93 -5 0 -30 12 -56 26 -37 21 -66 28 -137 33 -49 4 -92 4 -94 1z
m181 -130 c22 -10 51 -28 65 -40 14 -12 19 -18 11 -14 -8 4 5 -12 27 -34 23
-23 47 -42 52 -42 6 0 10 -4 10 -10 0 -5 6 -10 13 -10 8 0 22 -9 32 -20 10
-11 21 -17 25 -15 11 7 100 -83 100 -100 0 -12 60 -67 77 -70 10 -2 18 -4 18
-5 0 -1 10 -3 23 -6 13 -2 30 -11 38 -19 9 -8 22 -15 29 -15 8 0 26 -11 41
-25 l27 -25 -682 0 -682 1 30 24 c16 14 34 25 40 25 7 0 29 9 50 20 21 10 41
16 45 13 3 -4 6 1 6 10 0 8 8 18 19 22 10 3 36 25 59 50 22 24 43 41 46 37 4
-3 4 1 1 9 -4 11 7 22 40 39 25 13 45 27 45 32 0 4 6 8 14 8 7 0 26 17 42 38
32 42 96 100 133 121 65 34 133 35 206 1z"/>
<path d="M5060 8336 c0 -8 -5 -16 -11 -18 -6 -2 3 -21 20 -42 17 -21 31 -43
31 -47 0 -5 3 -8 8 -7 6 2 59 -29 72 -42 3 -3 16 -7 30 -8 14 -2 27 -8 28 -13
2 -5 10 -9 17 -9 17 0 37 -34 27 -45 -4 -5 -2 -5 4 -2 7 4 23 -4 36 -18 30
-30 81 -51 86 -36 2 6 8 9 12 6 5 -3 14 4 21 17 6 12 22 33 35 47 13 13 20 29
17 34 -3 6 -1 7 5 3 7 -4 12 -2 12 3 0 6 3 10 8 10 18 -3 29 2 30 14 0 6 3 22
6 35 3 13 1 20 -5 17 -5 -4 -9 -1 -9 6 0 8 -14 10 -45 6 -34 -3 -53 -13 -75
-36 -36 -37 -43 -38 -67 -8 -10 13 -33 32 -50 42 -18 11 -33 24 -33 29 0 5 -3
7 -6 3 -8 -8 -64 13 -64 25 0 5 -5 6 -10 3 -6 -4 -24 5 -41 19 -33 28 -89 36
-89 12z"/>
<path d="M5640 7908 c0 -10 -4 -18 -8 -18 -5 0 -9 -6 -9 -14 0 -14 17 -30 110
-102 31 -25 57 -50 57 -55 0 -6 5 -7 12 -3 8 5 9 2 4 -11 -5 -14 -4 -15 7 -7
10 8 21 4 47 -18 39 -34 39 -34 74 -20 37 14 33 47 -10 87 -20 18 -40 33 -44
33 -5 0 -20 20 -35 45 -14 25 -30 43 -34 41 -4 -3 -17 1 -27 9 -10 8 -29 15
-41 15 -13 0 -23 4 -23 9 0 13 -49 20 -54 7 -3 -7 -8 -6 -15 4 -9 13 -11 13
-11 -2z"/>
<path d="M4660 7681 c0 -5 -17 -12 -37 -16 -40 -7 -103 -44 -167 -98 -21 -17
-47 -35 -57 -39 -21 -8 -25 -43 -6 -55 36 -23 78 -11 191 56 38 22 73 38 78
35 4 -3 8 -1 8 4 0 16 51 20 89 7 20 -6 36 -18 36 -25 0 -7 11 -15 25 -17 13
-2 27 -7 30 -11 8 -11 52 -32 78 -37 13 -2 32 -13 42 -24 9 -12 20 -17 24 -13
4 4 12 -1 17 -11 6 -9 27 -26 48 -37 37 -18 39 -18 55 -1 9 10 16 24 16 31 0
12 -40 72 -65 95 -25 24 -94 66 -116 70 -13 3 -36 14 -50 24 -57 43 -132 71
-186 71 -29 0 -53 -4 -53 -9z"/>
<path d="M2245 7510 c-3 -5 -35 -10 -69 -10 -48 0 -79 -7 -122 -27 -33 -14
-60 -30 -62 -35 -2 -4 -7 -8 -12 -8 -15 0 -110 -104 -116 -127 -3 -13 -9 -23
-13 -23 -7 0 -18 -40 -40 -148 -6 -29 -5 -60 4 -97 7 -30 11 -55 8 -55 -7 0
51 -95 84 -136 26 -32 120 -93 153 -99 3 -1 23 -5 45 -9 66 -13 106 -15 159
-6 29 5 52 4 54 -1 2 -5 9 -9 14 -9 6 0 9 3 5 6 -3 4 17 18 46 33 65 33 69 35
130 96 27 28 58 67 67 87 9 21 19 36 21 34 8 -8 13 207 6 234 -6 24 -18 54
-28 72 -5 10 -9 25 -9 33 0 19 -127 145 -146 145 -8 0 -14 5 -14 10 0 6 -3 9
-7 8 -5 -1 -19 4 -33 11 -13 8 -39 14 -57 13 -18 -1 -35 3 -38 8 -8 13 -22 13
-30 0z m73 -135 c59 -12 121 -66 159 -137 32 -59 33 -185 2 -234 -11 -19 -18
-34 -15 -34 4 0 -6 -14 -21 -30 -28 -32 -84 -70 -106 -74 -6 -1 -17 -5 -23 -9
-20 -12 -204 -11 -217 2 -6 6 -21 11 -34 11 -13 0 -23 5 -23 10 0 6 -6 10 -13
10 -21 0 -84 83 -96 126 -17 62 -13 139 10 188 27 59 88 129 106 122 8 -3 11
-2 8 4 -6 10 45 40 90 51 27 6 131 3 173 -6z"/>
<path d="M7036 7513 c-3 -4 -38 -8 -78 -10 -80 -4 -142 -31 -217 -95 -24 -21
-48 -39 -52 -39 -5 -1 -12 -2 -16 -3 -25 -4 -130 -73 -170 -111 -25 -25 -50
-45 -55 -45 -4 0 -8 -3 -8 -8 0 -4 -16 -16 -36 -27 -45 -24 -74 -51 -101 -95
-12 -19 -33 -46 -46 -60 -37 -40 -38 -55 -6 -86 l30 -29 762 -2 c710 -3 762
-2 781 15 12 10 16 11 11 3 -5 -9 -4 -12 3 -7 20 12 7 53 -24 80 -18 14 -36
26 -41 26 -11 0 -79 72 -76 80 4 9 -71 81 -99 96 -16 8 -28 12 -28 9 0 -14
-60 28 -96 67 -39 41 -124 98 -124 82 0 -5 -5 -3 -11 3 -6 6 -18 9 -25 6 -14
-5 -135 58 -163 86 -9 9 -38 25 -64 35 -26 10 -45 22 -41 27 6 11 0 12 -10 2z
m-12 -120 c3 -4 13 -8 21 -9 24 -4 95 -58 91 -70 -2 -6 1 -11 7 -12 7 0 37
-10 67 -21 30 -11 63 -20 73 -21 9 0 17 -7 17 -15 0 -8 4 -15 10 -15 5 0 6 7
3 17 -10 24 12 9 80 -56 31 -31 60 -54 64 -53 3 2 9 -1 12 -6 4 -6 18 -13 31
-15 46 -7 79 -26 97 -54 10 -15 22 -31 28 -35 5 -4 -272 -8 -616 -8 l-627 0
36 36 c19 19 53 45 76 56 22 11 63 43 91 71 45 45 135 97 168 97 7 0 30 16 52
35 69 61 87 70 145 74 25 2 47 5 49 7 6 6 17 5 25 -3z"/>
<path d="M8263 7083 c5 -7 -2 -17 -15 -24 -13 -6 -44 -32 -69 -58 -42 -42
-172 -165 -429 -406 -53 -49 -154 -144 -224 -211 l-127 -121 -19 25 c-11 13
-20 22 -20 18 0 -4 -10 2 -22 14 -12 11 -28 20 -35 20 -7 0 -13 5 -13 10 0 6
-5 10 -10 10 -11 0 -130 78 -140 92 -3 3 -26 9 -52 13 -72 11 -85 2 -283 -195
-144 -143 -242 -247 -247 -260 -2 -4 -26 -35 -54 -67 -29 -32 -106 -121 -172
-198 -122 -143 -256 -283 -332 -345 -58 -48 -127 -90 -134 -83 -3 4 -6 1 -6
-6 0 -7 -4 -10 -9 -6 -6 3 -15 -3 -21 -12 -8 -12 -13 -14 -16 -6 -3 7 -11 10
-18 7 -7 -3 -19 2 -26 11 -7 8 -19 15 -27 15 -19 0 -44 25 -35 35 4 5 2 5 -5
1 -19 -10 -91 23 -118 56 -14 16 -25 24 -25 16 0 -8 -3 -9 -8 -3 -4 6 -24 18
-44 29 -20 10 -46 27 -57 37 -11 11 -25 19 -31 19 -5 0 -18 8 -28 18 -10 9
-30 23 -45 31 -15 8 -36 22 -46 33 -11 10 -24 18 -28 18 -4 0 -24 14 -43 30
-19 16 -38 30 -42 30 -13 0 -159 106 -196 141 -9 9 -33 27 -52 40 -67 45 -137
121 -161 172 -13 29 -27 54 -32 55 -4 2 -5 8 -1 13 3 5 0 9 -5 9 -6 0 -11 7
-11 15 0 8 -4 15 -10 15 -5 0 -10 4 -10 9 0 23 -86 132 -132 166 -92 71 -193
92 -293 63 -22 -6 -43 -11 -47 -10 -19 4 -97 -99 -104 -138 -3 -18 -18 -67
-22 -74 -3 -6 -7 -19 -8 -30 -1 -12 -6 -46 -10 -76 -10 -72 -11 -232 -2 -295
4 -27 7 -50 8 -50 1 0 3 -13 5 -28 10 -77 78 -158 108 -128 14 14 16 110 2
108 -5 -1 -9 9 -7 22 2 13 0 21 -5 18 -15 -10 -13 293 2 354 8 30 16 64 18 75
1 11 17 45 34 75 51 90 96 102 198 51 41 -20 116 -93 108 -105 -3 -6 -1 -7 5
-3 6 3 16 -3 22 -14 7 -13 7 -20 0 -20 -5 0 -10 5 -10 11 0 5 -5 7 -12 3 -8
-5 -1 -12 20 -21 18 -7 36 -21 39 -31 4 -9 11 -20 16 -23 5 -4 10 -19 10 -34
-1 -15 3 -22 7 -15 5 7 12 3 23 -13 12 -19 13 -27 4 -36 -9 -9 -8 -11 7 -5 13
5 17 4 13 -3 -4 -6 -2 -13 5 -15 7 -3 13 -18 14 -34 1 -16 3 -33 3 -37 1 -5 5
-6 9 -3 20 12 31 -48 34 -182 2 -78 2 -138 0 -132 -2 5 -8 10 -14 10 -6 0 -4
-8 5 -18 12 -13 18 -47 23 -123 3 -57 9 -108 12 -114 4 -5 7 -30 8 -55 1 -25
4 -80 8 -123 10 -100 -3 -140 -43 -130 -27 6 -61 35 -61 51 0 5 -6 15 -14 21
-33 27 -151 348 -139 378 4 10 3 14 -5 9 -12 -7 -31 21 -37 56 -3 12 -9 24
-13 27 -11 7 -45 71 -37 71 3 0 -5 12 -18 26 -12 14 -22 31 -23 37 0 7 -8 27
-18 45 -9 19 -15 40 -12 48 3 8 -1 14 -9 14 -8 0 -14 3 -14 8 1 4 0 9 -1 12
-1 3 -3 14 -5 25 -6 29 -37 96 -43 90 -3 -3 -11 0 -18 6 -9 8 -17 4 -29 -14
-13 -21 -14 -32 -5 -73 7 -27 14 -56 17 -64 4 -8 5 -21 4 -27 -1 -7 2 -13 7
-13 6 0 9 -6 8 -12 0 -7 3 -43 7 -79 8 -72 -10 -139 -38 -139 -8 0 -15 -4 -15
-10 0 -5 -5 -10 -10 -10 -6 0 -33 -11 -62 -25 -36 -17 -54 -22 -59 -14 -5 8
-8 7 -11 -2 -2 -7 -13 -14 -24 -15 -10 -2 -41 -8 -69 -14 -58 -12 -216 -12
-260 0 -86 24 -113 34 -147 56 -56 36 -80 92 -81 194 -1 48 12 220 17 240 3 8
7 33 11 55 9 60 71 145 106 145 10 0 20 4 23 8 8 13 155 42 241 47 79 5 114
25 115 66 0 35 -25 51 -88 54 -34 1 -62 0 -62 -4 0 -4 -17 -8 -37 -8 -21 -1
-51 -4 -68 -6 -16 -3 -48 -9 -70 -12 -22 -4 -44 -10 -50 -15 -5 -4 -20 -6 -32
-5 -12 1 -21 -3 -20 -8 1 -5 -6 -11 -16 -12 -47 -8 -128 -118 -142 -193 -2
-12 -6 -26 -10 -31 -17 -28 -29 -405 -14 -449 10 -29 16 -53 18 -73 1 -3 16
-23 35 -44 19 -21 33 -42 30 -47 -3 -4 1 -5 9 -2 8 3 21 -2 30 -10 9 -9 21
-16 27 -16 6 0 9 -4 6 -8 -2 -4 3 -8 12 -9 9 -1 38 -7 65 -13 108 -24 147 -27
247 -24 58 2 133 9 167 17 35 7 74 13 87 12 13 0 23 2 21 6 -3 3 21 17 51 29
61 26 124 81 150 132 l17 33 18 -40 c10 -23 21 -57 24 -75 3 -19 11 -55 16
-80 6 -25 12 -61 15 -80 2 -19 6 -50 10 -67 4 -23 3 -33 -6 -33 -10 0 -10 -3
-1 -14 8 -10 9 -16 1 -21 -5 -3 -10 -11 -10 -16 0 -6 5 -7 10 -4 6 4 10 -14
11 -47 0 -29 2 -64 4 -78 4 -27 14 -164 19 -270 2 -36 7 -108 11 -160 4 -52 9
-147 12 -210 3 -63 7 -158 10 -210 9 -166 -20 -238 -98 -247 -40 -5 -47 -2
-72 26 -25 28 -26 36 -4 32 4 0 7 4 7 10 0 6 -6 9 -12 7 -19 -7 -38 17 -42 54
-3 18 -5 33 -6 33 -1 0 -3 9 -5 20 -1 11 -12 72 -24 135 -21 115 -69 416 -76
477 -2 18 1 35 6 39 14 8 11 24 -4 18 -9 -3 -13 2 -12 16 1 18 -4 57 -20 150
-2 14 -6 36 -8 50 -2 14 -7 31 -11 38 -4 7 -4 17 -1 22 3 6 2 10 -3 10 -5 0
-15 20 -21 45 -6 25 -16 45 -21 45 -6 0 -10 5 -10 10 0 22 -92 90 -130 96 -62
11 -119 5 -160 -16 -54 -28 -64 -40 -85 -107 -13 -41 -16 -89 -16 -218 1 -92
-2 -183 -5 -203 -7 -35 -8 -36 -15 -12 -6 23 -7 22 -8 -8 -1 -18 3 -31 8 -27
17 10 21 -29 20 -186 -1 -201 11 -456 24 -489 5 -13 11 -46 19 -103 3 -22 62
-87 100 -111 42 -27 139 -25 180 3 34 24 68 63 72 84 2 7 8 23 13 37 13 31 37
196 30 207 -2 4 -1 17 4 28 7 17 8 16 8 -8 1 -16 5 -26 11 -22 6 4 8 10 6 14
-3 4 -1 12 3 19 4 7 12 -16 20 -51 6 -34 19 -84 27 -110 13 -40 14 -50 2 -65
-12 -15 -11 -16 5 -3 9 7 17 9 17 4 0 -5 18 -29 40 -53 22 -23 38 -46 36 -49
-5 -8 47 -15 121 -15 43 0 67 5 80 16 10 9 22 16 28 15 12 -3 64 72 71 103 3
14 6 35 5 47 0 12 3 24 8 27 8 5 8 44 -4 306 -11 265 -16 367 -20 400 -16 137
-17 170 -5 170 9 0 9 4 -1 17 -11 13 -11 17 -1 20 6 3 12 14 11 26 0 12 -3 16
-6 9 -10 -26 -23 1 -23 50 l0 50 43 -45 c23 -25 52 -50 63 -56 30 -15 104 -30
104 -22 0 5 15 16 34 26 60 32 77 103 62 245 -4 30 -7 73 -7 95 0 22 -4 67 -9
100 -5 33 -12 101 -15 150 -4 50 -9 115 -11 145 -13 160 -13 156 0 138 7 -10
18 -18 25 -18 18 0 13 -18 -6 -24 -14 -4 -14 -4 2 -3 24 2 82 -25 110 -50 11
-10 53 -40 92 -67 40 -27 70 -53 66 -59 -3 -6 -1 -7 5 -3 6 4 20 -2 32 -14 11
-11 25 -20 31 -20 5 0 36 -17 67 -39 31 -21 95 -62 142 -91 47 -29 87 -56 90
-60 3 -4 23 -16 45 -27 22 -11 39 -24 38 -31 -2 -6 3 -9 10 -6 11 4 140 -51
252 -107 12 -6 30 -12 40 -14 11 -2 20 -4 20 -5 0 -1 7 -3 15 -5 8 -2 42 -11
75 -21 33 -9 87 -22 121 -29 34 -7 65 -15 70 -18 5 -3 56 -7 114 -8 88 -2 105
0 108 13 2 9 -9 20 -30 27 -18 7 -45 19 -60 27 -16 9 -28 12 -28 8 0 -3 -6 -1
-13 5 -8 6 -16 9 -19 6 -2 -3 -53 11 -112 30 -60 19 -115 35 -122 35 -8 0 -14
4 -14 10 0 5 -7 7 -15 4 -8 -4 -15 -1 -15 6 0 6 -4 8 -10 5 -5 -3 -20 0 -32 7
-22 12 -27 14 -45 17 -10 1 63 51 76 51 5 0 25 14 44 31 19 17 37 30 39 29 11
-8 220 200 286 285 45 58 144 178 166 201 6 6 29 33 51 59 71 87 241 268 346
370 115 113 135 120 204 77 48 -30 108 -87 83 -79 -10 4 -18 1 -18 -4 0 -7 9
-9 21 -6 12 3 38 -2 58 -12 20 -9 45 -15 56 -13 12 3 0 -13 -32 -42 -61 -55
-85 -98 -76 -134 5 -20 3 -23 -8 -17 -12 8 -12 6 0 -8 14 -18 67 -24 56 -7 -3
6 1 10 10 10 8 0 18 6 21 14 3 7 26 28 52 47 26 18 61 46 79 63 17 17 44 42
60 54 28 24 253 234 344 322 26 25 91 86 144 135 54 50 121 113 150 140 109
105 153 145 161 145 5 0 20 -10 34 -23 14 -12 61 -53 105 -92 44 -38 79 -73
77 -77 -1 -4 1 -7 5 -7 21 3 26 -2 13 -12 -12 -8 -11 -9 5 -5 15 4 27 -3 45
-24 14 -17 30 -30 37 -30 15 0 35 -35 25 -45 -4 -5 -2 -5 5 -1 12 6 53 -27
137 -110 23 -22 56 -48 75 -57 19 -10 32 -15 29 -12 -3 4 5 17 17 30 17 16 22
30 18 46 -7 24 -80 99 -218 224 -43 39 -97 88 -120 110 -48 46 -119 108 -165
145 -17 14 -46 37 -63 53 -20 17 -37 25 -49 21 -11 -3 -26 0 -35 8 -11 8 -14
9 -10 1z m-4269 -2039 c48 -47 79 -112 93 -189 5 -32 5 -38 -1 -75 -5 -28 -4
-30 3 -10 8 23 9 21 12 -15 6 -110 1 -239 -11 -243 -9 -3 -9 -7 1 -13 12 -8
11 -11 -1 -19 -12 -8 -12 -10 -1 -10 10 0 12 -10 6 -47 -4 -27 -9 -73 -11
-103 -4 -76 -13 -215 -14 -215 -1 0 -3 -40 -5 -89 -2 -54 -9 -92 -16 -96 -6
-4 -9 -12 -5 -18 11 -18 -16 -62 -38 -63 -12 0 -15 -3 -8 -6 27 -11 4 -30 -48
-39 -28 -5 -72 66 -80 128 -1 4 -6 22 -11 40 -10 32 -24 470 -24 718 0 284 10
358 47 373 29 12 97 6 112 -9z"/>
<path d="M5685 7030 c5 -7 1 -11 -11 -9 -22 4 -54 -13 -87 -44 -13 -12 -59
-53 -102 -92 -111 -100 -336 -327 -330 -333 3 -3 0 -11 -5 -17 -8 -9 -6 -14 5
-19 8 -3 15 -12 15 -21 0 -8 5 -15 12 -15 6 0 8 3 5 6 -4 4 10 16 31 26 20 11
48 31 63 44 14 13 28 24 32 24 4 0 23 15 41 33 19 17 78 70 131 117 53 47 117
104 141 127 49 45 54 45 103 -9 8 -10 20 -18 26 -18 6 0 18 -8 26 -17 9 -10
37 -36 64 -58 110 -91 250 -224 247 -235 -1 -6 2 -9 7 -5 6 3 15 -3 21 -14 6
-11 16 -18 24 -15 16 6 40 -21 31 -36 -4 -6 -3 -9 2 -8 13 4 54 -28 46 -36 -4
-4 1 -4 11 0 16 6 17 3 11 -17 -4 -15 -3 -19 3 -11 6 10 15 7 36 -13 15 -14
30 -25 34 -25 4 0 26 -18 50 -40 24 -22 45 -40 47 -40 2 0 16 -11 30 -24 15
-14 33 -22 41 -19 8 3 14 0 14 -6 0 -19 29 -12 40 9 9 16 6 25 -15 47 -14 15
-25 33 -25 38 0 10 -41 49 -243 235 -33 30 -80 74 -105 98 -24 23 -48 42 -51
42 -4 0 -14 8 -22 18 -9 9 -48 46 -88 82 -40 36 -85 76 -100 90 -69 63 -217
179 -206 160z"/>
<path d="M4207 7022 c-13 -4 -47 -18 -85 -35 -33 -16 -114 -96 -134 -134 -10
-18 -18 -44 -18 -57 0 -14 -3 -27 -8 -29 -4 -3 -5 -40 -1 -84 3 -43 1 -83 -4
-90 -11 -15 -1 -33 18 -33 7 0 17 -9 20 -21 10 -30 128 -143 138 -132 3 2 15
-1 27 -7 27 -14 199 -15 213 -1 6 6 17 11 25 11 28 0 105 45 145 85 59 58 84
126 82 222 -2 101 -28 161 -100 224 -53 46 -90 69 -113 69 -10 0 -21 3 -24 6
-7 6 -160 11 -181 6z m156 -123 c26 -6 47 -15 47 -19 0 -5 9 -12 21 -15 37
-12 77 -63 75 -95 -1 -18 3 -30 10 -30 9 0 10 -8 4 -31 -5 -18 -7 -36 -4 -40
3 -5 2 -15 -3 -21 -4 -7 -8 -19 -9 -25 -3 -16 -63 -73 -101 -95 -41 -23 -196
-27 -237 -5 -33 18 -86 73 -78 81 3 3 1 6 -5 6 -6 0 -11 32 -12 78 -2 68 1 82
24 117 57 87 152 120 268 94z"/>
<path d="M2447 6620 c-57 -15 -126 -58 -143 -91 -8 -16 -19 -29 -24 -29 -5 0
-26 -37 -48 -82 -69 -145 -72 -151 -102 -293 -5 -27 -11 -88 -13 -135 -1 -47
-6 -88 -12 -92 -5 -4 -10 -13 -10 -20 0 -7 -13 -14 -29 -16 -16 -2 -40 -11
-53 -19 -12 -8 -30 -13 -38 -9 -9 3 -14 2 -11 -3 9 -14 -119 -43 -191 -42 -80
0 -109 5 -106 18 1 6 -8 8 -21 6 -29 -6 -72 56 -77 112 -6 70 -4 198 4 243 8
41 38 95 68 124 17 15 86 52 91 48 2 -2 13 2 26 9 35 19 246 45 236 30 -3 -5
2 -6 10 -3 9 3 16 11 16 16 0 6 12 8 29 5 15 -3 33 -1 40 6 6 6 11 7 11 2 0
-4 9 2 20 15 27 31 25 66 -5 86 -24 16 -49 15 -195 -3 -25 -3 -63 -7 -85 -10
-22 -2 -47 -7 -55 -10 -15 -6 -29 -10 -52 -16 -131 -33 -200 -92 -243 -212
-23 -63 -26 -87 -28 -220 -1 -144 0 -152 25 -205 15 -31 45 -70 68 -88 22 -18
38 -38 35 -43 -3 -5 1 -6 9 -3 9 3 24 3 34 -1 9 -5 22 -9 27 -10 6 -1 15 -3
20 -4 25 -5 199 -2 228 4 42 9 150 62 175 86 14 12 22 14 24 7 3 -7 7 -5 11 5
4 10 2 16 -4 14 -6 -1 -12 13 -14 30 -2 21 1 30 8 26 5 -3 7 -2 4 3 -3 6 -2
16 4 24 7 13 9 13 10 0 0 -8 2 -24 4 -35 2 -11 6 -37 9 -58 4 -20 14 -56 23
-78 14 -36 19 -40 44 -37 28 4 48 -15 29 -27 -14 -9 -12 -61 4 -100 8 -18 11
-37 8 -41 -4 -4 -1 -4 6 0 6 4 12 3 12 -3 0 -5 13 -22 29 -37 17 -15 28 -31
25 -35 -2 -4 10 -4 28 1 48 14 20 -5 -37 -25 -27 -9 -57 -20 -65 -23 -23 -8
-33 -10 -65 -17 -16 -3 -47 -10 -68 -16 -21 -5 -70 -12 -110 -14 -39 -3 -91
-8 -115 -11 -24 -4 -84 -1 -135 6 -116 17 -185 52 -172 88 3 7 0 10 -5 7 -6
-3 -15 6 -20 22 -6 15 -15 37 -21 48 -5 12 -11 41 -13 66 -4 53 -31 105 -58
112 -10 3 -16 1 -12 -4 3 -5 1 -9 -5 -9 -20 0 -31 -106 -17 -160 3 -14 8 -34
10 -45 1 -11 8 -33 15 -49 6 -16 9 -38 6 -50 -5 -17 -4 -18 5 -6 9 13 12 13
22 -4 17 -30 64 -76 77 -76 6 0 11 -5 11 -11 0 -5 5 -7 10 -4 6 3 10 1 10 -6
0 -7 3 -9 7 -6 3 4 16 1 27 -7 42 -27 183 -39 319 -26 55 5 87 3 96 -4 11 -8
13 -8 7 2 -5 8 -1 12 11 13 10 0 25 2 33 4 8 2 38 8 65 14 28 5 61 12 75 16
14 3 34 8 46 10 59 13 166 64 220 105 27 21 54 65 54 90 0 12 5 18 10 15 6 -4
8 -11 5 -16 -4 -5 -1 -9 6 -9 7 0 10 -3 6 -6 -3 -4 0 -19 9 -35 8 -16 14 -31
14 -34 0 -3 0 -6 1 -7 2 -9 9 -37 14 -63 3 -16 10 -46 15 -65 5 -19 14 -84 20
-145 6 -60 13 -121 15 -135 10 -46 16 -95 17 -130 1 -19 5 -37 9 -40 4 -3 12
-72 18 -155 6 -82 14 -181 17 -220 30 -352 38 -763 16 -827 -13 -38 -54 -88
-75 -92 -7 -2 -20 -6 -30 -11 -23 -10 -83 8 -79 23 1 7 -5 12 -14 12 -17 0
-54 36 -54 52 0 4 0 10 0 13 0 3 -6 18 -14 34 -17 32 -20 45 -42 186 -18 119
-22 154 -29 259 -3 43 -10 97 -14 120 -10 45 -26 206 -22 220 1 5 -3 41 -9 80
-6 39 -13 87 -16 106 -12 103 -27 186 -38 219 -7 20 -11 42 -9 49 3 6 -1 12
-7 12 -7 0 -10 6 -7 14 3 8 3 17 -1 21 -4 4 -7 10 -7 13 0 4 -13 30 -27 59
-18 36 -23 53 -15 57 7 2 3 5 -8 5 -11 1 -29 11 -40 24 -41 47 -92 62 -186 57
-75 -4 -90 -9 -124 -34 -42 -33 -81 -107 -84 -164 -1 -8 -6 -10 -13 -6 -9 6
-9 3 0 -9 8 -9 11 -21 7 -27 -4 -6 -7 -270 -7 -586 0 -428 -3 -574 -11 -574
-9 0 -9 -2 0 -8 7 -5 13 -42 15 -99 2 -50 6 -89 9 -87 4 2 9 -6 13 -19 5 -20
86 -127 86 -113 0 4 10 0 23 -9 13 -8 48 -16 78 -18 47 -2 62 3 107 32 50 32
113 114 98 128 -3 3 -1 12 4 18 10 12 16 63 25 215 5 85 12 191 21 325 12 178
21 261 24 210 1 -27 2 -54 1 -59 -1 -4 3 -14 10 -22 6 -8 9 -24 6 -35 -3 -12
-2 -43 3 -68 9 -48 33 -257 43 -376 1 -11 5 -24 8 -30 3 -5 7 -27 7 -48 1 -20
6 -46 12 -58 6 -11 9 -32 7 -47 -2 -15 -2 -21 0 -14 8 22 20 12 32 -28 12 -39
54 -89 105 -123 32 -22 144 -29 193 -13 62 21 134 107 148 179 2 9 6 21 9 25
3 5 6 116 6 248 1 210 -1 282 -14 459 -2 22 -4 67 -6 100 -1 33 -6 85 -11 115
-5 31 -11 78 -13 105 -3 28 -8 82 -11 120 -3 39 -10 84 -15 100 -4 17 -8 37
-9 45 0 39 -12 156 -16 168 -3 8 10 5 35 -9 22 -13 40 -27 40 -31 0 -5 5 -6
11 -2 6 3 15 0 20 -7 6 -10 9 -11 9 -1 0 8 18 12 58 12 68 1 102 15 134 55 42
53 56 126 42 225 -2 19 -6 44 -7 55 -1 11 -5 25 -8 30 -6 9 -17 73 -25 140 -5
46 -13 98 -25 152 -5 26 -11 55 -13 63 -1 8 -5 24 -9 35 -3 11 -8 36 -11 55
-3 19 -8 46 -12 60 -6 26 -18 82 -29 137 -3 17 -15 62 -26 100 -12 37 -22 77
-24 88 -2 11 -4 21 -5 23 -3 2 -4 7 -14 47 -4 17 -12 41 -18 55 -7 14 -12 28
-14 33 -1 4 -2 8 -4 10 -1 1 -3 10 -5 19 -2 10 -13 29 -24 44 -12 15 -21 31
-21 36 0 5 -6 15 -13 23 -7 7 -25 26 -38 42 -39 46 -142 92 -219 97 -36 3 -82
1 -103 -4z m194 -141 c5 -8 8 -24 6 -36 -5 -26 8 -31 17 -8 6 18 36 9 36 -11
0 -8 7 -17 15 -20 10 -4 13 -13 10 -25 -5 -15 -3 -17 11 -12 11 4 15 3 11 -4
-4 -6 -1 -14 5 -17 7 -3 2 -3 -12 0 -22 6 -21 3 13 -29 20 -20 37 -39 37 -41
0 -3 7 -31 16 -63 8 -32 18 -71 21 -88 3 -16 9 -35 15 -42 5 -7 7 -16 5 -21
-3 -4 -2 -14 3 -22 5 -9 4 -20 -3 -29 -9 -12 -9 -13 1 -7 6 4 12 4 12 -1 0 -4
10 -46 21 -93 11 -47 22 -96 25 -110 6 -37 10 -53 17 -70 4 -8 8 -33 11 -55 2
-22 7 -51 11 -65 9 -37 19 -120 19 -162 1 -20 4 -34 8 -32 5 3 8 -8 8 -24 0
-16 3 -32 8 -36 8 -9 10 -25 16 -116 4 -79 -7 -107 -46 -115 -51 -12 -97 3
-132 43 -19 20 -34 41 -34 46 0 5 -5 12 -11 16 -6 3 -13 15 -16 26 -2 10 -15
47 -29 81 -14 34 -24 68 -23 75 2 7 2 9 -1 5 -2 -5 -13 10 -23 33 -10 23 -16
47 -12 53 3 5 2 8 -3 5 -8 -5 -43 23 -36 29 7 9 0 63 -9 63 -5 0 -7 -5 -3 -12
4 -7 3 -8 -4 -4 -15 9 -131 243 -124 250 3 3 -1 6 -8 6 -7 0 -10 3 -7 6 4 4 0
19 -7 33 -19 35 -59 125 -57 129 1 1 -6 16 -14 32 -9 17 -12 30 -8 30 4 0 -2
7 -13 15 -10 8 -16 15 -12 15 4 0 -5 28 -21 63 -25 58 -34 127 -18 143 4 4 7
14 7 22 0 35 62 137 93 154 41 23 193 20 208 -3z m-370 -416 c15 -55 16 -68 3
-129 -8 -38 -12 -74 -10 -81 3 -8 -2 -13 -14 -13 -12 0 -20 -7 -20 -17 0 -15
2 -16 10 -3 8 12 10 11 10 -6 0 -11 -7 -29 -16 -40 -8 -10 -13 -13 -9 -6 4 7
3 21 -1 30 -12 27 -14 172 -4 222 6 25 11 60 12 78 3 48 19 34 39 -35z m124
-262 c-2 -2 2 -19 10 -38 18 -42 18 -46 5 -38 -12 7 -13 -6 -3 -31 6 -17 7
-17 13 0 4 14 12 6 33 -33 16 -28 27 -53 27 -56 -1 -3 1 -18 5 -33 9 -42 -34
-112 -67 -112 -8 0 -19 -5 -25 -11 -7 -7 -9 -3 -6 15 3 14 9 23 14 20 5 -3 9
5 9 18 0 14 -3 19 -8 11 -7 -10 -37 -3 -32 8 1 2 -3 22 -9 44 -5 22 -13 71
-17 109 -6 60 -5 71 11 83 11 7 13 13 7 13 -7 0 -12 11 -12 25 0 14 4 25 10
25 5 0 7 8 4 18 -4 11 1 8 14 -8 12 -14 19 -26 17 -29z m-315 -806 c20 -6 83
-92 83 -111 0 -8 4 -14 8 -14 16 0 17 -44 1 -57 -15 -13 -15 -14 5 -8 21 6 21
4 21 -115 0 -66 -3 -118 -7 -116 -3 2 -8 -21 -9 -52 -2 -31 -8 -62 -13 -68 -5
-6 -6 -13 -3 -17 3 -3 1 -54 -6 -114 -6 -59 -13 -144 -15 -188 -3 -44 -7 -98
-9 -120 -3 -22 -8 -87 -11 -145 -13 -254 -23 -305 -71 -351 -33 -32 -34 -32
-54 -14 -20 18 -21 18 -14 0 7 -18 6 -18 -27 2 -19 12 -34 26 -34 30 0 4 -3
13 -7 19 -19 29 -22 114 -24 664 -2 609 0 675 19 663 6 -3 7 -1 3 5 -14 23 13
91 42 105 26 12 85 14 122 2z"/>
<path d="M7667 5694 c-2 -2 -17 -6 -33 -8 -31 -4 -106 -33 -114 -45 -3 -4 -21
-18 -40 -31 -19 -13 -50 -37 -68 -54 -28 -26 -34 -28 -43 -16 -9 13 -10 13 -6
-1 5 -15 -13 -33 -96 -102 -72 -58 -137 -122 -137 -134 0 -7 -4 -13 -8 -13
-14 0 -33 -63 -36 -118 -2 -45 2 -59 31 -103 18 -28 33 -52 33 -55 0 -2 -246
-4 -547 -4 -537 -1 -743 -5 -853 -14 -30 -3 -93 -8 -140 -10 -154 -10 -256
-38 -244 -69 2 -7 21 -13 42 -14 20 -1 831 -2 1802 -3 971 0 1781 -4 1802 -9
34 -8 37 -7 54 25 10 18 22 30 28 27 5 -4 1 8 -10 27 -10 18 -28 35 -39 37
-11 2 -177 4 -368 4 l-348 1 26 25 c14 14 25 31 25 38 0 7 6 17 13 23 16 14
13 128 -4 148 -7 8 -9 17 -6 20 11 11 -134 161 -214 220 -16 11 -25 25 -21 29
4 5 1 5 -7 0 -8 -4 -17 -2 -22 6 -4 8 -12 14 -16 14 -4 0 -33 18 -63 41 -59
43 -141 85 -205 105 -37 11 -160 21 -168 13z m115 -118 c15 -3 38 -11 50 -18
13 -7 26 -11 31 -10 12 3 8 -16 -5 -22 -7 -3 -3 -3 9 0 32 8 72 -22 67 -49 -3
-17 -3 -18 3 -5 7 16 11 16 40 2 17 -9 51 -33 75 -55 24 -21 46 -39 50 -39 4
0 22 -12 39 -27 109 -97 160 -163 155 -204 -5 -36 -38 -99 -53 -99 -7 0 -13
-4 -13 -8 0 -4 -20 -13 -44 -21 -34 -10 -139 -12 -453 -9 l-408 3 -50 32 c-33
21 -56 46 -69 72 -30 64 -18 82 199 278 61 56 134 113 144 113 6 0 11 4 11 8
0 12 50 33 61 26 5 -3 8 0 7 6 -2 7 13 18 32 26 32 12 48 12 122 0z"/>
<path d="M6930 4779 c-52 -3 -105 -9 -118 -13 -28 -10 -38 -47 -21 -78 7 -12
12 -29 11 -35 -2 -7 2 -13 8 -13 6 0 8 5 5 10 -3 6 -2 10 4 10 5 0 11 -3 13
-7 5 -12 80 -59 106 -67 12 -4 22 -12 22 -17 0 -6 4 -8 9 -4 5 3 17 -2 25 -11
9 -8 16 -13 16 -10 0 3 40 -15 89 -40 49 -24 94 -44 100 -44 7 0 10 -4 7 -9
-4 -5 2 -8 11 -7 10 2 25 -1 33 -5 8 -4 23 -10 33 -13 11 -4 15 -11 11 -18 -5
-10 -4 -10 6 -1 12 11 52 4 91 -17 8 -4 41 -13 73 -20 43 -9 56 -15 52 -26 -4
-11 -2 -12 13 -5 10 6 21 8 24 5 4 -5 64 -16 147 -28 14 -2 39 -6 55 -9 97
-19 274 -24 303 -8 18 9 21 20 20 56 -1 24 -5 39 -9 34 -4 -7 -16 -6 -35 4
-16 8 -65 17 -109 21 -183 14 -219 18 -234 26 -9 4 -19 8 -24 8 -29 1 -148 25
-152 32 -3 5 -24 11 -48 15 -23 4 -46 11 -52 15 -5 5 -27 11 -48 14 -21 3 -55
14 -75 25 -20 10 -49 21 -64 25 -16 3 -28 11 -28 16 0 6 -9 10 -20 10 -11 0
-29 9 -39 19 -11 11 -21 17 -24 15 -2 -2 -24 4 -48 15 -44 19 -44 19 761 20
443 1 806 2 808 2 1 1 8 2 14 3 7 0 17 13 22 28 8 22 6 32 -8 47 -11 12 -15
25 -10 33 6 10 5 11 -8 1 -8 -7 -18 -10 -21 -7 -8 8 -1570 11 -1697 3z"/>
<path d="M4874 4278 c-16 -4 -35 -6 -43 -3 -8 3 -29 1 -48 -6 -37 -12 -51 -45
-34 -77 6 -11 9 -21 6 -23 -2 -2 85 -4 193 -5 109 -1 242 -4 297 -9 55 -4 120
-8 145 -10 25 -1 72 -5 105 -9 33 -4 84 -9 114 -11 35 -3 59 -11 68 -23 8 -9
11 -11 8 -4 -7 13 9 13 128 3 5 -1 6 -4 4 -8 -3 -5 12 -8 32 -8 60 -1 247 -64
263 -88 7 -12 -24 -47 -41 -47 -6 0 -41 -14 -78 -31 -38 -17 -72 -32 -78 -33
-5 -1 -14 -4 -20 -7 -5 -3 -39 -14 -75 -23 -36 -10 -85 -25 -110 -33 -25 -8
-58 -17 -75 -20 -16 -3 -37 -9 -45 -13 -30 -16 -152 -42 -175 -37 -14 2 -22 1
-20 -4 4 -6 -39 -21 -60 -20 -2 0 -19 -5 -37 -10 -18 -6 -42 -12 -53 -15 -28
-7 -38 -10 -55 -17 -20 -7 -202 -52 -215 -52 -5 0 -15 -3 -20 -7 -6 -3 -28
-10 -50 -14 -49 -10 -53 -11 -62 -14 -5 -2 -12 -4 -18 -5 -5 -2 -13 -4 -17 -5
-5 -1 -11 -3 -15 -5 -5 -1 -15 -4 -23 -7 -8 -3 -44 -13 -80 -22 -72 -18 -74
-19 -110 -33 -14 -6 -37 -10 -52 -9 -15 1 -25 0 -23 -2 6 -7 -42 -31 -70 -36
-13 -2 -34 -11 -47 -20 -12 -8 -27 -16 -33 -17 -46 -8 -109 -57 -110 -84 -1
-37 54 -39 165 -5 41 12 82 24 90 25 8 2 16 4 18 5 1 2 5 3 10 4 4 1 36 12 72
24 36 12 74 23 85 25 11 2 27 7 35 10 34 13 96 30 115 33 12 1 41 9 65 17 25
8 59 17 77 20 17 3 36 8 42 11 6 4 23 9 38 11 16 2 59 13 97 24 38 11 72 19
74 16 3 -3 10 0 17 5 7 5 25 11 41 13 17 2 34 6 39 9 6 3 26 8 45 12 19 3 46
9 60 12 14 3 34 7 45 9 11 1 42 10 70 19 27 8 51 13 54 11 2 -3 10 0 17 5 6 6
16 10 20 9 5 -1 16 0 24 4 8 3 74 22 145 43 72 20 143 44 158 51 16 8 35 12
43 9 8 -3 13 -2 10 3 -5 8 82 47 97 43 4 -1 7 3 7 8 0 6 7 10 16 10 24 0 15
-24 -67 -170 -17 -30 -39 -64 -50 -76 -10 -11 -19 -23 -19 -26 0 -4 -26 -46
-58 -95 -31 -48 -80 -132 -107 -185 -27 -53 -52 -95 -56 -92 -4 2 -5 -5 -2
-16 3 -12 0 -20 -8 -20 -7 0 -10 -3 -6 -6 3 -4 -3 -25 -15 -48 -11 -22 -20
-42 -19 -44 1 -1 -5 -15 -13 -30 -7 -15 -28 -70 -45 -122 -17 -52 -34 -102
-38 -110 -3 -8 -7 -18 -8 -22 -2 -5 -3 -9 -4 -10 -2 -2 -5 -14 -8 -28 -6 -33
-11 -54 -13 -60 -1 -3 -2 -8 -1 -13 1 -4 -5 -23 -13 -41 -8 -19 -12 -36 -10
-39 2 -2 -5 -32 -15 -65 -11 -34 -23 -88 -26 -119 -3 -32 -8 -66 -11 -75 -8
-27 -16 -62 -19 -88 -2 -14 -8 -44 -13 -67 -5 -23 -8 -44 -5 -46 2 -2 -1 -26
-8 -53 -6 -27 -12 -58 -14 -69 -1 -11 -3 -27 -4 -35 -2 -11 -5 -10 -12 5 -7
16 -8 14 -3 -10 8 -45 8 -55 -1 -125 -12 -101 -12 -111 11 -126 27 -18 53 -1
59 41 5 27 10 50 22 95 2 8 6 26 8 40 5 34 13 79 21 115 3 17 7 36 7 43 0 6 4
12 9 12 5 0 7 4 4 8 -2 4 2 37 9 72 7 36 16 83 20 105 3 22 8 51 11 65 2 14 6
36 8 50 2 14 7 36 11 50 3 14 8 34 10 45 2 11 8 34 13 52 6 17 8 34 5 37 -3 2
-1 11 3 18 5 7 10 19 11 26 7 30 12 47 13 47 2 0 7 22 15 60 3 17 8 37 12 45
3 8 7 18 8 23 2 4 3 8 4 10 2 1 4 15 6 30 2 16 11 39 19 52 8 13 17 35 20 50
14 77 165 376 252 500 12 17 43 66 70 110 26 44 53 85 59 91 6 7 25 38 41 70
16 33 33 62 37 65 5 3 8 8 7 10 -1 2 3 22 8 44 18 66 17 156 -2 193 -9 17 -14
32 -10 32 3 0 -18 20 -47 45 -53 45 -136 92 -153 87 -5 -2 -12 2 -16 7 -3 6
-17 13 -30 15 -14 2 -25 5 -25 6 0 1 -18 4 -40 6 -22 3 -44 9 -50 15 -5 5 -28
9 -50 9 -23 0 -45 3 -49 7 -6 6 -22 8 -108 14 -13 0 -57 5 -98 11 -83 11 -148
15 -385 23 -88 3 -189 7 -226 8 -36 2 -78 0 -95 -5z"/>
<path d="M3377 4214 c-2 -3 -31 -7 -63 -10 -83 -8 -97 -10 -116 -19 -10 -4
-25 -5 -33 -2 -8 4 -17 2 -20 -3 -4 -6 -16 -10 -28 -10 -13 0 -34 -8 -47 -17
-14 -10 -25 -16 -25 -14 0 9 -74 -42 -79 -54 -5 -15 17 -38 43 -42 9 -1 45 5
81 13 36 8 83 19 105 24 43 10 120 17 285 25 92 5 107 8 123 27 17 20 17 22
-4 44 -12 13 -26 21 -31 18 -5 -3 -14 -2 -21 4 -7 5 -38 10 -71 11 -32 2 -66
4 -76 6 -10 2 -20 1 -23 -1z"/>
<path d="M7415 4207 c-14 -17 -13 -50 3 -60 6 -4 12 -14 12 -21 0 -15 42 -56
58 -56 7 0 12 -4 12 -9 0 -13 113 -51 154 -51 20 0 36 5 36 11 0 5 5 7 12 3 7
-5 8 -3 3 7 -5 7 -10 22 -10 32 -2 23 -32 44 -72 52 -18 3 -33 11 -33 17 0 6
-3 9 -6 5 -9 -9 -53 16 -93 52 -36 33 -59 38 -76 18z"/>
<path d="M1535 3850 c-30 -12 -219 -85 -225 -86 -3 0 -27 -11 -55 -23 -27 -13
-75 -34 -105 -48 -30 -14 -64 -26 -75 -28 -11 -3 -34 -21 -52 -41 l-32 -36 22
-22 c12 -13 24 -20 27 -17 3 3 10 6 15 6 16 1 159 46 170 55 6 4 55 24 110 45
55 20 107 41 116 45 8 4 47 20 85 35 38 14 79 30 91 35 12 5 27 18 32 29 24
43 -60 78 -124 51z"/>
<path d="M6310 3459 c0 -5 -3 -8 -7 -7 -12 4 -63 -44 -57 -54 3 -4 9 -6 14 -3
5 3 26 -1 47 -9 36 -14 81 -26 113 -31 97 -17 176 -40 171 -51 -3 -5 4 -10 15
-11 19 -3 19 -3 0 5 -13 6 -16 11 -8 16 6 4 20 3 29 -2 10 -5 56 -17 103 -26
47 -10 90 -22 95 -28 7 -8 5 -9 -7 -5 -10 4 -18 2 -18 -3 0 -12 27 -13 34 -1
7 10 54 2 62 -10 3 -5 0 -9 -7 -9 -7 0 -9 -3 -6 -6 4 -4 12 -2 19 4 9 7 26 6
58 -5 25 -8 47 -18 50 -22 3 -3 14 -8 25 -9 11 -2 25 -7 30 -12 6 -4 22 -10
38 -14 15 -3 27 -11 27 -17 0 -6 -4 -7 -10 -4 -6 3 -7 -1 -4 -9 7 -18 24 -22
24 -6 0 19 25 9 61 -23 34 -30 35 -34 23 -57 -8 -14 -14 -21 -14 -17 0 4 -11
-4 -25 -18 -29 -28 -85 -60 -85 -48 0 5 -4 3 -8 -3 -7 -10 -98 -51 -131 -60
-9 -2 -40 -10 -70 -19 -29 -8 -58 -12 -64 -8 -5 3 -7 1 -3 -5 5 -8 -38 -30
-74 -37 -8 -2 -103 -50 -129 -66 -33 -19 -84 -69 -97 -94 -25 -49 -36 -112
-24 -135 11 -21 10 -22 -6 -16 -15 6 -15 3 4 -16 12 -13 40 -44 63 -70 23 -26
61 -59 86 -73 68 -37 285 -94 443 -115 36 -4 85 -11 110 -14 107 -15 189 -25
245 -31 32 -4 67 -9 77 -10 10 -2 55 -7 101 -10 45 -4 102 -11 127 -16 25 -5
63 -11 86 -14 22 -2 61 -9 85 -16 51 -14 56 -15 87 -17 12 -1 22 -8 22 -16 0
-8 7 -16 14 -19 11 -4 13 -1 9 10 -5 11 -1 14 13 10 10 -3 39 -11 64 -18 25
-7 48 -18 52 -24 4 -5 8 -6 8 -1 0 5 6 4 13 -2 6 -6 15 -11 19 -11 39 -6 68
-15 68 -21 0 -4 -12 -5 -27 -3 -25 4 -26 3 -9 -8 15 -9 24 -9 38 0 11 7 18 7
18 1 0 -5 7 -10 15 -10 14 0 53 -18 65 -30 3 -3 22 -13 42 -24 20 -10 46 -27
57 -37 11 -11 23 -19 27 -19 4 0 18 -10 30 -21 13 -12 41 -25 63 -29 34 -6 41
-4 46 10 3 9 3 24 -1 33 -9 25 -94 107 -149 146 -27 19 -52 37 -55 40 -3 4
-24 15 -47 25 -24 11 -43 22 -43 25 0 4 -10 7 -22 8 -11 1 -25 8 -29 15 -5 7
-9 9 -9 4 0 -5 -6 -3 -13 3 -22 18 -273 89 -372 105 -11 2 -20 4 -20 5 0 1
-21 4 -48 7 -26 2 -59 9 -73 14 -14 6 -41 10 -60 10 -26 0 -33 3 -28 13 6 8 3
8 -9 -2 -13 -10 -24 -11 -48 -2 -17 6 -35 9 -39 6 -4 -2 -22 0 -41 5 -19 5
-81 11 -138 15 -58 3 -108 8 -112 11 -4 2 -36 6 -71 9 -35 3 -74 7 -88 10 -26
6 -172 32 -225 41 -16 3 -38 5 -47 5 -10 0 -18 5 -18 11 0 5 -7 7 -16 4 -8 -3
-34 4 -57 16 -23 11 -43 20 -45 19 -6 -4 -65 32 -84 51 -11 11 -23 38 -25 59
-5 32 -1 45 18 65 22 23 116 74 138 74 6 0 11 4 11 10 0 5 3 9 8 9 4 -1 9 0
12 1 3 1 14 3 24 5 11 2 44 15 75 29 31 14 70 27 87 30 81 14 229 90 284 146
59 58 75 131 46 202 -20 48 -157 142 -224 154 -15 3 -31 9 -37 13 -5 4 -32 14
-58 21 -30 8 -44 16 -36 21 7 4 3 7 -12 6 -33 -1 -106 12 -138 25 -14 5 -42
12 -61 14 -67 9 -111 24 -103 37 4 8 1 7 -9 -1 -12 -9 -22 -10 -35 -4 -10 5
-24 7 -31 5 -7 -3 -18 -1 -25 4 -7 5 -43 10 -80 12 -37 1 -90 6 -117 10 -28 4
-50 4 -50 0z"/>
<path d="M4795 3260 c-3 -9 -7 -38 -10 -66 -10 -113 -16 -162 -26 -219 -12
-72 -19 -121 -24 -155 -16 -135 -36 -254 -45 -264 -5 -7 -7 -15 -4 -18 3 -3 0
-26 -7 -49 -7 -24 -13 -57 -13 -72 0 -19 -4 -26 -14 -22 -7 2 -10 0 -7 -5 3
-6 13 -10 21 -10 8 0 14 -5 14 -11 0 -6 12 -9 28 -7 15 2 26 8 25 16 -2 6 2
12 9 12 6 0 9 3 6 6 -4 3 0 21 8 40 8 18 16 50 19 70 2 20 13 69 25 110 11 40
17 80 14 87 -3 8 2 22 11 31 9 9 12 16 7 16 -7 0 -7 12 -1 34 5 19 11 56 14
83 11 114 15 149 20 173 12 48 13 230 2 237 -6 4 -7 1 -2 -8 7 -11 6 -12 -6
-2 -20 16 -58 12 -64 -7z"/>
<path d="M4169 3253 c-1 -5 -1 -11 0 -15 1 -7 -63 -28 -85 -28 -7 0 -25 -7
-40 -15 -17 -9 -30 -11 -32 -5 -2 6 -11 10 -20 10 -14 0 -15 -2 -2 -10 11 -7
9 -11 -13 -19 -57 -22 -21 -74 54 -76 26 -1 46 3 43 7 -3 4 3 8 13 9 10 1 31
2 48 4 l29 2 -34 -28 c-25 -21 -37 -26 -46 -18 -7 6 -21 9 -31 6 -14 -4 -13
-5 5 -6 12 0 22 -6 22 -12 0 -7 -9 -9 -21 -6 -12 3 -18 3 -15 0 6 -7 -66 -53
-87 -57 -7 -1 -27 -10 -44 -19 -18 -10 -35 -17 -38 -17 -3 0 -18 -6 -33 -14
-15 -7 -43 -18 -62 -24 -19 -5 -65 -21 -102 -35 -38 -15 -68 -24 -68 -21 0 2
-11 -3 -25 -12 -14 -9 -25 -13 -25 -9 0 4 -6 3 -12 -2 -11 -9 -80 -35 -98 -38
-3 0 -14 -6 -25 -12 -11 -6 -23 -11 -28 -12 -4 0 -20 -7 -35 -15 -15 -7 -38
-17 -52 -21 -35 -10 -254 -121 -317 -162 -29 -18 -57 -33 -63 -33 -5 0 -10 -4
-10 -10 0 -5 -6 -10 -13 -10 -7 0 -23 -9 -35 -20 -12 -11 -26 -20 -32 -20 -5
0 -10 -4 -10 -8 0 -5 -21 -24 -47 -43 -124 -88 -416 -374 -432 -422 -2 -7 -8
-15 -14 -18 -5 -4 -11 -23 -13 -43 -2 -33 0 -36 18 -30 12 3 24 1 28 -6 4 -7
14 -10 21 -6 43 21 62 36 82 63 67 90 304 319 363 351 13 7 24 16 24 20 0 4
15 16 33 27 17 10 41 27 52 37 10 10 25 16 33 13 7 -2 11 -1 8 4 -8 12 73 63
90 57 8 -3 13 -2 10 3 -6 9 82 71 106 75 7 1 28 12 47 24 19 11 38 19 43 16 4
-3 8 0 8 6 0 6 5 8 10 5 6 -3 10 -1 10 6 0 7 3 10 6 6 3 -3 38 9 77 27 40 18
104 43 142 56 39 13 77 25 85 28 8 3 17 6 20 6 13 4 109 40 139 53 18 8 39 16
45 18 12 2 15 3 128 51 42 17 80 29 84 25 4 -3 4 -1 1 5 -4 7 6 17 25 25 17 7
53 28 79 46 27 18 51 33 54 33 3 0 30 18 60 40 30 22 56 40 57 40 4 0 6 -18
13 -95 2 -27 7 -65 11 -84 4 -20 3 -31 -3 -28 -5 3 -5 -31 0 -86 5 -57 4 -125
-2 -177 -13 -105 -26 -270 -24 -290 1 -8 -7 -71 -18 -140 -11 -69 -22 -136
-24 -150 -1 -14 -7 -44 -13 -67 -5 -23 -7 -44 -5 -47 3 -3 0 -27 -6 -53 -21
-95 -21 -112 2 -133 36 -34 59 -20 70 41 3 13 10 42 15 64 12 45 19 78 36 175
2 8 6 31 10 50 3 19 8 52 11 73 2 21 6 41 9 45 3 5 8 35 11 68 3 32 8 73 10
89 24 171 33 452 22 635 -10 149 -26 213 -61 249 -22 22 -35 26 -89 27 -34 0
-72 -3 -84 -7 -23 -9 -43 5 -21 14 10 4 10 6 1 6 -7 1 -14 -2 -14 -6z"/>
</g>
</svg>
