<?xml version="1.0" standalone="no"?>
<!DOCTYPE svg PUBLIC "-//W3C//DTD SVG 20010904//EN"
 "http://www.w3.org/TR/2001/REC-SVG-20010904/DTD/svg10.dtd">
<svg version="1.0" xmlns="http://www.w3.org/2000/svg"
 width="1024.000000pt" height="1024.000000pt" viewBox="0 0 1024.000000 1024.000000"
 preserveAspectRatio="xMidYMid meet">
<metadata>
Created by potrace 1.16, written by Peter Selinger 2001-2019
</metadata>
<g transform="translate(0.000000,1024.000000) scale(0.100000,-0.100000)"
fill="#000000" stroke="none">
<path d="M7280 8310 c0 -5 -6 -10 -14 -10 -8 0 -88 -33 -179 -74 -102 -47
-172 -73 -184 -70 -12 3 -24 1 -27 -4 -4 -6 3 -8 16 -5 38 10 17 -3 -51 -32
-36 -15 -108 -47 -160 -72 -53 -25 -111 -46 -129 -48 -18 -1 -36 -6 -40 -10
-4 -4 4 -4 18 -1 43 12 4 -8 -166 -83 -103 -45 -168 -69 -180 -65 -13 4 -15 3
-6 -3 14 -11 25 -5 -185 -99 -83 -37 -150 -61 -160 -58 -12 4 -14 3 -6 -3 9
-6 -9 -18 -55 -38 -37 -16 -125 -55 -196 -87 -71 -33 -135 -57 -143 -54 -8 3
-12 2 -9 -3 7 -10 -108 -62 -126 -57 -7 1 -9 1 -4 -2 4 -2 -29 -22 -74 -43
-45 -21 -86 -36 -91 -33 -5 3 -9 1 -9 -4 0 -13 -209 -104 -222 -96 -6 4 -8 3
-5 -3 6 -10 -11 -19 -208 -106 -55 -25 -135 -61 -179 -82 -43 -20 -85 -34 -93
-31 -8 3 -12 2 -9 -3 8 -12 -180 -95 -195 -86 -7 5 -10 4 -6 -2 7 -11 -1 -16
-281 -139 -117 -52 -218 -92 -224 -88 -6 4 -8 3 -5 -3 9 -14 -151 -85 -177
-78 -16 5 -18 4 -6 -4 12 -8 7 -13 -25 -26 -22 -10 -70 -30 -107 -46 -37 -16
-74 -26 -85 -23 -13 4 -14 3 -5 -3 9 -7 -30 -28 -130 -73 -232 -102 -248 -111
-263 -141 -21 -40 -19 -57 14 -90 46 -46 74 -40 297 61 109 50 208 93 219 96
20 5 20 1 17 -1911 l-2 -1915 -258 -2 c-141 -1 -268 -1 -282 -1 -14 1 -20 -1
-13 -3 7 -3 2 -14 -13 -30 -21 -20 -25 -32 -22 -73 2 -27 5 -49 8 -49 3 1 22
-6 43 -16 34 -15 115 -16 961 -14 549 2 922 -1 919 -6 -4 -5 -1 -6 6 -2 7 5
10 10 8 12 -3 3 8 18 24 34 35 34 34 -25 9 595 -11 270 -22 567 -26 660 -7
221 -15 262 -64 324 -21 27 -36 52 -32 57 4 4 1 4 -6 0 -15 -9 -44 12 -36 26
3 5 0 8 -7 6 -20 -4 -121 60 -114 72 3 5 0 7 -8 4 -18 -6 -92 80 -82 96 4 6 1
9 -6 8 -8 -2 -23 23 -37 62 -47 130 -54 491 -12 657 59 232 212 389 435 448
127 33 351 16 474 -37 77 -33 162 -89 155 -101 -4 -7 -4 -9 1 -5 12 11 87 -52
81 -69 -3 -8 -2 -11 3 -8 12 7 54 -48 76 -100 29 -66 32 -237 33 -1475 0 -897
3 -1182 13 -1202 24 -54 5 -53 941 -53 l868 0 27 27 c34 35 37 87 5 121 -12
13 -20 26 -17 29 3 2 -3 5 -13 5 -9 -1 -110 0 -225 1 l-207 2 2 2731 3 2732
135 59 c74 32 143 67 153 77 39 38 25 111 -24 133 -19 8 -24 15 -16 20 8 5 6
8 -5 8 -10 0 -18 -4 -18 -10z m-410 -3065 l0 -2685 -518 0 -519 0 -1 1221 c0
672 -3 1240 -7 1263 -26 167 -129 319 -289 425 -31 21 -53 41 -49 46 5 4 3 5
-4 1 -15 -9 -104 35 -96 47 3 6 1 7 -5 3 -16 -10 -93 15 -85 27 3 6 1 7 -5 3
-6 -3 -34 -1 -64 6 -29 6 -56 11 -60 10 -5 -1 -8 15 -8 36 0 37 2 39 43 51 23
7 65 26 93 41 29 16 55 26 59 22 4 -4 5 -2 3 5 -3 12 67 83 77 77 3 -2 3 -1 0
2 -2 4 4 19 14 33 10 14 30 57 45 94 32 80 37 203 12 275 -8 23 -13 50 -10 60
5 13 4 14 -4 4 -7 -11 -10 -10 -16 3 -3 9 -3 22 1 27 3 7 1 8 -5 4 -11 -6 -38
31 -34 47 1 4 -2 6 -6 5 -13 -4 -91 69 -84 77 4 4 3 6 -3 4 -5 -1 -35 9 -65
23 -82 37 -146 51 -237 52 -44 1 -77 -1 -72 -4 5 -3 -12 -11 -37 -18 -25 -7
-50 -9 -56 -6 -7 4 -8 2 -4 -4 4 -7 3 -12 -2 -12 -5 0 -26 -11 -46 -25 -21
-14 -43 -22 -49 -19 -7 4 -9 3 -4 -1 10 -12 -23 -46 -37 -38 -6 3 -8 3 -4 -2
10 -10 -11 -37 -22 -30 -5 3 -12 0 -16 -6 -4 -8 -3 -9 4 -5 17 10 15 -9 -2
-23 -7 -6 -26 -39 -42 -74 -26 -56 -29 -72 -29 -172 0 -106 1 -113 37 -187 20
-42 34 -79 32 -82 -2 -3 -1 -4 3 -1 9 7 84 -66 78 -75 -3 -4 3 -7 13 -6 9 0
16 -5 14 -12 -1 -8 2 -11 7 -7 6 3 21 -1 33 -9 13 -8 48 -22 78 -32 67 -21 77
-29 60 -49 -7 -8 -9 -15 -4 -15 26 -1 -26 -20 -54 -20 -54 0 -202 -40 -272
-73 -36 -17 -74 -31 -85 -31 -11 -1 -20 -6 -20 -11 0 -16 -132 -125 -140 -117
-4 4 -5 2 -3 -3 5 -15 -64 -105 -75 -98 -6 3 -7 2 -4 -4 4 -5 -10 -40 -29 -76
-19 -37 -47 -110 -61 -164 -22 -85 -26 -125 -30 -296 -6 -209 7 -386 32 -458
8 -22 13 -53 10 -68 -4 -20 -3 -22 3 -7 8 18 9 18 15 2 10 -26 8 -38 -5 -30
-7 4 -8 3 -4 -5 4 -6 11 -9 16 -6 4 3 22 -16 38 -43 17 -26 47 -62 66 -81 19
-19 32 -39 29 -44 -3 -6 -2 -8 3 -4 13 7 126 -68 116 -78 -4 -5 -2 -5 4 -2 7
4 23 -2 35 -14 13 -11 17 -17 9 -13 -9 4 -12 3 -7 -2 5 -5 14 -9 20 -9 23 0
40 -60 43 -150 2 -49 8 -207 13 -350 5 -143 10 -285 10 -315 1 -30 4 -97 7
-147 4 -65 3 -93 -5 -93 -6 0 -10 -15 -10 -32 l1 -33 7 30 c6 28 7 27 14 -19
4 -27 7 -86 7 -132 l0 -84 -530 0 -530 0 0 1955 0 1956 67 30 c37 16 73 27 80
24 8 -2 12 -1 9 4 -3 5 0 11 7 14 6 3 128 57 270 121 143 64 264 113 270 109
5 -3 7 -1 4 4 -4 6 9 17 31 26 20 8 113 49 205 91 93 42 174 73 180 70 7 -4 9
-4 5 1 -9 9 196 107 229 109 11 0 19 5 15 10 -3 5 2 6 12 3 9 -4 15 -3 12 1
-2 4 37 26 87 49 51 23 147 67 215 97 68 31 128 53 134 50 6 -4 9 -3 5 2 -6
10 438 210 460 208 8 -1 12 1 9 4 -3 3 13 14 35 24 48 21 53 22 43 6 -4 -7 -3
-8 5 -4 6 4 9 11 7 15 -8 12 141 74 155 65 7 -4 9 -3 6 3 -4 6 47 34 121 66
70 31 192 85 272 122 79 36 151 63 160 60 8 -3 11 -2 6 2 -7 7 115 71 137 73
4 0 7 -1208 7 -2685z m-1703 1114 c118 -44 198 -179 171 -289 -15 -60 -30 -88
-70 -129 -50 -52 -131 -85 -203 -84 -61 1 -149 28 -140 43 3 5 0 12 -6 16 -8
4 -9 3 -5 -4 18 -30 -17 -7 -53 34 -46 53 -61 95 -61 174 0 60 32 146 50 135
6 -4 9 -1 8 7 -2 7 3 12 10 10 8 -1 11 2 8 7 -9 14 35 53 52 46 7 -2 11 -1 8
4 -19 30 168 54 231 30z"/>
</g>
</svg>
