<?xml version="1.0" standalone="no"?>
<!DOCTYPE svg PUBLIC "-//W3C//DTD SVG 20010904//EN"
 "http://www.w3.org/TR/2001/REC-SVG-20010904/DTD/svg10.dtd">
<svg version="1.0" xmlns="http://www.w3.org/2000/svg"
 width="1024.000000pt" height="1024.000000pt" viewBox="0 0 1024.000000 1024.000000"
 preserveAspectRatio="xMidYMid meet">
<metadata>
Created by potrace 1.16, written by Peter Selinger 2001-2019
</metadata>
<g transform="translate(0.000000,1024.000000) scale(0.100000,-0.100000)"
fill="#000000" stroke="none">
<path d="M7079 8381 c-53 -22 -110 -46 -127 -55 -17 -9 -39 -13 -49 -10 -13 4
-14 3 -5 -3 18 -13 -138 -83 -170 -77 -19 4 -20 3 -4 -4 15 -6 2 -15 -64 -45
-45 -20 -87 -34 -92 -30 -6 3 -8 2 -5 -4 3 -5 -9 -17 -28 -26 -25 -12 -35 -13
-39 -4 -2 7 -5 5 -5 -4 -1 -15 -34 -34 -71 -41 -8 -2 -17 -6 -20 -10 -12 -16
-202 -98 -212 -92 -7 5 -8 3 -3 -6 6 -10 4 -12 -9 -7 -9 4 -15 3 -12 -2 7 -11
-253 -133 -267 -124 -5 3 -7 1 -4 -4 4 -6 -20 -23 -56 -38 -34 -16 -141 -66
-237 -113 -96 -46 -188 -85 -203 -85 -15 0 -23 -3 -18 -7 13 -7 -133 -81 -151
-76 -7 1 -9 1 -5 -2 14 -7 -152 -82 -170 -76 -13 4 -14 3 -5 -3 15 -12 -142
-88 -160 -77 -7 5 -8 3 -3 -6 6 -10 4 -12 -9 -7 -9 4 -15 3 -12 -1 7 -12 -123
-74 -136 -66 -6 4 -8 2 -4 -4 3 -6 -3 -14 -15 -17 -12 -4 -74 -32 -138 -62
-64 -30 -141 -66 -171 -81 -30 -14 -124 -58 -209 -99 -85 -40 -161 -71 -168
-68 -8 2 -12 1 -9 -4 8 -13 -288 -151 -312 -144 -11 2 -23 0 -26 -5 -3 -6 3
-8 16 -6 13 2 -13 -14 -57 -35 -50 -25 -88 -38 -101 -35 -12 3 -25 1 -28 -4
-3 -6 3 -8 16 -6 13 2 -13 -14 -57 -35 -44 -22 -86 -38 -93 -36 -7 3 -11 1 -8
-4 6 -9 -136 -76 -150 -72 -4 2 -10 -2 -13 -7 -3 -6 -107 -58 -231 -117 -319
-151 -316 -150 -336 -201 -21 -54 -13 -87 30 -130 43 -43 74 -50 132 -30 26 9
51 13 57 9 5 -3 7 -2 4 4 -5 8 274 153 295 153 3 0 6 -29 6 -65 0 -42 -4 -62
-11 -58 -6 4 -7 1 -1 -8 11 -17 12 -159 2 -152 -5 2 -3 -8 2 -23 7 -19 7 -30
-1 -40 -6 -8 -8 -14 -3 -14 14 0 11 -54 -4 -69 -9 -10 -10 -16 -2 -21 14 -8
22 -70 9 -70 -6 0 -7 -5 -3 -12 12 -20 14 -329 2 -322 -7 4 -6 0 0 -13 13 -23
13 -443 0 -443 -4 0 -8 -5 -8 -11 0 -5 5 -7 10 -4 13 8 8 -18 -5 -27 -6 -5 -6
-8 1 -8 14 0 17 -249 4 -266 -7 -8 -7 -21 0 -38 13 -36 13 -69 -1 -60 -8 4 -8
1 -1 -13 15 -28 13 -315 -2 -306 -7 5 -7 2 1 -8 15 -18 15 -358 0 -376 -5 -8
-6 -13 0 -13 7 0 9 -57 4 -160 0 -8 1 -50 3 -92 3 -45 0 -76 -5 -72 -5 3 -5
-5 0 -19 11 -29 10 -137 -1 -137 -4 0 -3 -11 2 -25 6 -16 7 -56 2 -100 -5 -41
-5 -75 -1 -75 10 0 8 -122 -3 -144 -8 -14 -7 -17 3 -11 9 6 10 2 5 -16 -10
-32 -10 -39 -1 -73 6 -20 5 -27 -3 -22 -7 4 -9 -1 -5 -16 10 -37 10 -247 0
-241 -5 3 -4 -3 1 -13 6 -11 11 -108 11 -222 l2 -202 -208 -1 c-114 -1 -218
-3 -229 -4 -36 -4 -73 -38 -90 -83 -16 -40 -16 -45 2 -90 10 -26 17 -50 16
-55 -1 -4 1 -6 5 -5 5 1 26 -3 48 -9 26 -6 351 -10 935 -9 836 1 897 2 921 19
14 9 29 15 32 12 4 -3 5 -2 2 1 -2 4 3 20 12 37 12 24 14 48 9 106 -18 221
-57 811 -71 1056 -24 438 -24 440 -49 477 -16 24 -38 39 -81 54 -94 32 -151
67 -139 86 3 4 0 7 -7 6 -20 -5 -78 80 -96 140 -15 50 -17 101 -16 397 1 337
1 341 26 417 38 111 143 265 174 254 8 -3 11 -1 8 4 -8 13 68 67 144 102 92
42 186 60 295 54 107 -5 195 -24 174 -38 -9 -6 -6 -7 9 -3 48 13 211 -101 273
-190 17 -25 27 -45 23 -45 -4 0 -3 -4 3 -8 14 -9 41 -60 61 -116 16 -44 33
-246 21 -246 -5 0 -8 -7 -8 -16 0 -9 5 -12 12 -8 8 5 9 2 3 -12 -13 -30 -19
-77 -9 -71 5 3 10 -8 11 -24 1 -16 -2 -29 -7 -29 -9 0 -7 -23 5 -61 4 -10 2
-19 -3 -19 -5 0 -6 -17 -2 -40 6 -32 4 -42 -9 -50 -14 -8 -13 -10 4 -10 11 -1
15 -4 8 -6 -8 -4 -9 -13 -3 -29 6 -15 6 -27 0 -30 -12 -8 -8 -65 5 -65 6 0 3
-5 -5 -10 -13 -9 -13 -11 0 -20 8 -5 10 -10 5 -10 -6 0 -11 -9 -11 -19 0 -11
4 -17 8 -15 11 7 10 -10 -2 -22 -6 -6 -6 -21 -1 -42 6 -19 6 -34 0 -37 -5 -4
-9 -11 -9 -16 0 -6 3 -8 8 -6 4 3 7 -8 8 -24 1 -16 -2 -29 -6 -29 -3 0 -6 -15
-6 -34 0 -19 4 -32 8 -30 5 3 8 1 8 -5 0 -5 -3 -12 -8 -15 -6 -3 -7 -117 -2
-231 0 -5 -1 -133 -3 -283 -2 -181 1 -272 8 -272 5 0 4 -4 -2 -8 -15 -9 -13
-72 2 -72 6 0 4 -4 -4 -9 -12 -8 -13 -16 -4 -45 6 -19 8 -38 5 -41 -10 -9 -10
-438 0 -457 4 -9 4 -19 0 -22 -5 -3 -6 -51 -4 -108 3 -57 6 -117 6 -135 1 -17
2 -30 4 -28 2 1 15 -10 30 -25 21 -20 41 -29 78 -33 27 -3 497 -4 1044 -3 909
1 998 3 1026 18 55 30 74 125 36 178 -40 55 -67 60 -314 60 l-228 0 0 2959 0
2959 110 47 c61 25 115 43 122 39 6 -4 8 -3 4 4 -3 6 0 14 8 19 22 12 46 64
46 99 0 17 -11 47 -24 67 -13 19 -22 38 -20 41 2 3 1 4 -2 2 -3 -2 -21 2 -39
10 -50 21 -70 18 -176 -25z m-279 -3321 l0 -2900 -572 -2 c-315 0 -580 -1
-588 -2 -13 -1 -16 148 -20 1269 l-5 1270 -28 88 c-43 140 -97 235 -187 331
-89 95 -239 193 -336 217 -31 8 -41 14 -32 20 11 7 10 9 -1 9 -8 0 13 17 47
38 139 84 226 206 257 361 28 136 2 272 -76 392 -23 35 -42 70 -42 77 0 6 -2
10 -5 8 -2 -3 -29 16 -60 41 -58 48 -163 103 -195 103 -10 0 -16 3 -14 8 6 8
-16 10 -143 10 -140 0 -159 -1 -154 -9 6 -11 -63 -32 -77 -23 -8 4 -9 3 -5 -4
7 -12 -66 -55 -78 -47 -3 3 -4 2 -2 -1 2 -3 -18 -25 -44 -50 -177 -166 -227
-419 -126 -640 14 -30 20 -52 14 -48 -6 4 -9 1 -6 -7 3 -8 10 -13 16 -12 5 1
23 -14 38 -35 32 -44 50 -61 84 -85 14 -10 25 -23 25 -29 0 -6 10 -12 22 -13
11 -1 34 -10 50 -20 l28 -19 -35 -9 c-19 -4 -69 -22 -110 -39 -41 -17 -86 -31
-100 -31 -14 0 -19 -2 -12 -4 8 -3 -13 -23 -50 -48 -182 -123 -307 -312 -354
-535 -26 -119 -26 -698 0 -803 19 -80 19 -80 7 -73 -5 4 -7 -3 -4 -15 3 -12 9
-16 12 -10 7 11 65 -103 66 -129 1 -8 6 -14 12 -13 11 2 68 -65 68 -81 0 -5 7
-10 16 -11 23 -4 105 -65 101 -77 -1 -5 2 -6 8 -3 6 4 24 2 40 -5 28 -12 28
-12 34 -123 3 -62 13 -245 22 -407 9 -162 18 -333 19 -380 0 -47 4 -90 7 -95
3 -6 9 -68 12 -140 4 -71 9 -138 12 -148 5 -16 -20 -17 -473 -17 l-478 1 0
2095 0 2096 40 22 c53 29 430 206 439 206 4 0 4 -5 0 -12 -4 -7 -3 -8 5 -4 6
4 9 11 6 15 -7 13 130 72 151 65 13 -4 15 -3 6 3 -9 7 -6 12 13 21 32 15 38
15 29 0 -4 -7 -3 -8 5 -4 6 4 9 11 6 15 -6 11 94 53 108 44 5 -3 7 -2 4 4 -8
13 41 36 55 27 6 -4 8 -3 5 3 -7 10 408 209 430 207 7 -1 11 2 8 6 -7 11 54
32 68 23 5 -3 7 -2 4 4 -8 13 147 88 163 78 8 -5 11 -4 7 2 -4 6 54 39 131 76
263 126 414 197 418 197 3 0 50 23 105 50 68 34 109 49 123 45 14 -4 17 -3 8
3 -9 6 -6 12 13 20 32 15 38 15 29 0 -4 -7 -3 -8 5 -4 6 4 9 11 7 15 -6 8 412
207 431 205 7 -1 11 2 8 6 -2 4 28 22 68 40 39 19 153 72 252 120 219 104 228
108 238 109 4 1 7 -1304 7 -2899z m-1872 1064 c37 -16 51 -28 46 -36 -4 -7 -4
-10 1 -6 11 11 36 -12 28 -25 -3 -5 -1 -7 5 -3 14 8 55 -50 46 -65 -4 -8 -3
-9 4 -5 17 11 28 -44 11 -56 -11 -8 -10 -9 4 -4 15 5 17 -2 17 -63 0 -78 -17
-136 -57 -187 -37 -50 -97 -86 -127 -78 -13 3 -27 1 -30 -4 -4 -6 3 -8 16 -5
18 3 19 2 8 -5 -29 -19 -114 -23 -169 -8 -130 36 -209 138 -212 275 -2 72 13
124 51 184 27 43 39 52 63 48 5 -1 6 3 2 8 -7 12 29 33 40 23 5 -4 5 -2 1 5
-4 8 6 16 31 22 85 24 144 19 221 -15z"/>
</g>
</svg>
