<?xml version="1.0" standalone="no"?>
<!DOCTYPE svg PUBLIC "-//W3C//DTD SVG 20010904//EN" "http://www.w3.org/TR/2001/REC-SVG-20010904/DTD/svg10.dtd">
<svg xmlns="http://www.w3.org/2000/svg" version="1.0" width="1024.000000pt" height="1024.000000pt" viewBox="0 0 1024.000000 1024.000000" preserveAspectRatio="xMidYMid meet">
<metadata>
Created by potrace 1.16, written by Peter Selinger 2001-2019
<meta name="Producer" content="Online-Convert"/></metadata>
<g transform="translate(0.000000,1024.000000) scale(0.100000,-0.100000)" fill="#000000" stroke="none">
<path d="M4690 8179 c-464 -71 -943 -264 -1306 -526 -44 -31 -84 -56 -91 -56 -7 0 -10 -4 -7 -8 8 -13 -17 -22 -29 -10 -8 8 -7 11 3 11 7 0 11 3 7 6 -12 12 -28 -7 -18 -20 8 -9 -12 -31 -77 -83 -304 -244 -574 -572 -763 -928 -29 -55 -55 -102 -58 -105 -3 -3 -7 -13 -9 -23 -2 -9 -16 -45 -31 -80 -15 -34 -45 -111 -66 -172 -22 -60 -41 -112 -44 -115 -3 -3 -7 -14 -7 -25 -2 -26 -46 -188 -53 -195 -4 -3 -6 -14 -7 -25 -1 -11 -11 -76 -22 -145 -49 -284 -56 -604 -22 -893 11 -93 18 -173 14 -178 -3 -5 0 -9 6 -9 6 0 10 -10 9 -22 -1 -13 1 -30 4 -38 9 -24 59 -233 60 -255 1 -11 6 -23 11 -26 5 -4 9 -20 10 -37 0 -17 4 -28 7 -27 3 2 15 -27 27 -65 26 -84 107 -267 159 -358 20 -37 36 -70 35 -74 -1 -5 1 -7 6 -6 4 1 19 -2 35 -6 19 -6 35 -3 52 8 41 27 41 55 0 124 -132 225 -239 551 -290 878 -64 415 -46 803 54 1177 180 669 536 1194 1100 1621 41 30 78 53 84 49 6 -3 7 -2 4 3 -6 10 189 137 211 137 6 0 12 4 12 8 0 4 41 28 90 53 50 26 90 44 90 41 0 -4 6 0 14 8 18 18 262 119 292 121 12 0 20 4 19 7 -12 19 417 119 595 139 106 12 130 26 130 75 0 69 -34 75 -240 44z"/>
<path d="M7622 6697 c-48 -44 -60 -60 -55 -75 4 -9 35 -65 70 -124 99 -169 252 -515 238 -538 -3 -5 -1 -10 3 -12 5 -1 21 -46 35 -98 62 -218 103 -492 95 -629 -2 -38 0 -67 4 -65 4 3 8 0 8 -5 0 -6 -3 -11 -8 -11 -4 0 -5 -36 -3 -81 2 -45 -2 -124 -8 -178 -20 -163 -44 -310 -51 -306 -4 3 -5 -7 -2 -20 2 -14 0 -25 -4 -25 -5 0 -10 -17 -11 -38 -1 -20 -18 -93 -38 -161 -185 -633 -555 -1172 -1069 -1560 -481 -363 -1101 -575 -1709 -585 -153 -2 -161 -3 -178 -25 -24 -29 -24 -53 0 -82 17 -21 29 -24 103 -27 103 -5 356 12 498 33 142 21 358 74 510 126 128 43 326 123 347 141 7 5 17 7 23 3 5 -3 10 -2 10 3 0 10 56 37 63 31 2 -2 11 3 20 12 9 10 47 34 84 54 423 235 846 649 1091 1069 22 36 41 65 43 63 2 -1 3 0 2 2 -2 2 22 49 52 105 122 227 229 515 276 740 12 58 26 106 31 106 5 0 7 4 4 8 -3 5 4 67 16 138 18 110 21 173 22 429 1 205 -3 329 -13 390 -21 142 -68 349 -107 475 -20 63 -37 123 -37 133 -1 9 -4 17 -8 17 -3 0 -14 21 -24 48 -61 162 -215 446 -270 500 -38 36 -35 35 -53 19z"/>
<path d="M5110 5670 c11 -7 2 -10 -30 -10 -159 -1 -358 -123 -429 -262 -13 -26 -28 -45 -32 -42 -5 3 -6 -1 -4 -8 3 -8 -2 -34 -10 -58 -9 -25 -18 -88 -21 -140 -3 -52 -8 -102 -10 -110 -3 -8 -2 -11 3 -7 7 7 43 -98 46 -135 1 -9 4 -15 8 -12 10 6 20 -26 12 -39 -3 -7 -3 -9 2 -5 4 4 20 -10 36 -31 68 -95 187 -176 295 -202 60 -14 244 -27 237 -16 -2 4 2 7 9 7 7 0 24 3 37 7 19 5 22 3 17 -8 -5 -10 -4 -9 6 1 15 17 149 86 160 82 5 -1 7 1 6 6 -2 4 19 29 46 56 42 44 114 153 109 166 -1 3 4 14 11 25 35 55 48 243 22 316 -7 20 -12 45 -11 57 1 11 -1 21 -4 20 -19 -2 -22 4 -10 19 8 9 9 14 3 10 -13 -8 -37 40 -28 55 4 6 2 8 -3 5 -15 -9 -83 81 -76 101 4 15 3 15 -6 2 -7 -10 -14 -11 -18 -5 -13 17 -86 71 -121 89 -54 28 -152 56 -194 56 -22 0 -37 4 -34 8 2 4 -5 9 -17 9 -17 2 -19 0 -7 -7z"/>
</g>
</svg>
