<?xml version="1.0" standalone="no"?>
<!DOCTYPE svg PUBLIC "-//W3C//DTD SVG 20010904//EN"
 "http://www.w3.org/TR/2001/REC-SVG-20010904/DTD/svg10.dtd">
<svg version="1.0" xmlns="http://www.w3.org/2000/svg"
 width="1024.000000pt" height="1024.000000pt" viewBox="0 0 1024.000000 1024.000000"
 preserveAspectRatio="xMidYMid meet">
<metadata>
Created by potrace 1.16, written by Peter Selinger 2001-2019
</metadata>
<g transform="translate(0.000000,1024.000000) scale(0.100000,-0.100000)"
fill="#000000" stroke="none">
<path d="M5172 7082 c-38 -4 -56 -27 -73 -94 -6 -26 -14 -46 -18 -44 -3 2 -7
-13 -7 -34 -1 -21 -7 -46 -14 -56 -10 -17 -11 -17 -7 4 3 12 1 20 -5 16 -5 -3
-7 -18 -4 -32 4 -17 -17 -109 -54 -247 -49 -178 -96 -363 -143 -560 -4 -19 -5
-19 -6 1 -1 31 -40 175 -116 434 -36 124 -66 230 -67 236 -2 15 -70 16 -90 1
-9 -7 -38 -67 -63 -133 -25 -65 -56 -142 -68 -171 -21 -47 -24 -50 -35 -32 -7
11 -10 25 -6 31 4 6 3 8 -4 4 -12 -7 -44 33 -36 46 3 5 2 8 -3 7 -4 -1 -21 3
-36 9 -37 16 -41 15 -87 -8 -46 -23 -50 -24 -46 -7 1 6 1 9 -1 4 -3 -4 -9 -5
-14 -2 -5 4 -6 -1 -3 -9 5 -14 -8 -16 -102 -16 -124 0 -179 -12 -195 -41 -16
-30 12 -66 58 -75 20 -4 91 -3 157 1 67 4 131 8 143 8 13 -1 21 3 18 7 -3 5 4
12 16 15 16 5 28 -1 50 -27 15 -18 31 -40 34 -48 6 -19 66 -60 86 -60 38 1 79
61 113 168 11 31 22 50 28 46 7 -4 8 -2 4 4 -7 11 13 96 21 88 6 -5 63 -209
63 -224 0 -7 -5 -10 -12 -6 -7 4 -8 3 -4 -5 4 -6 11 -9 15 -7 6 4 29 -75 103
-352 12 -46 30 -95 41 -108 22 -29 67 -32 90 -6 10 11 53 163 103 358 82 328
159 618 169 639 3 6 4 -7 2 -27 -2 -20 0 -35 3 -33 10 6 43 -173 34 -186 -4
-7 -3 -9 3 -6 6 4 13 -9 17 -31 7 -46 69 -280 92 -344 8 -26 12 -53 8 -60 -4
-7 -3 -10 1 -5 5 4 18 -9 29 -29 22 -39 57 -68 92 -78 35 -10 78 35 112 117
16 39 54 143 83 231 l52 159 38 -105 c20 -58 36 -119 35 -136 -1 -18 1 -32 6
-32 4 0 8 7 8 17 0 15 1 15 18 0 38 -35 73 -31 131 12 60 45 100 53 236 50
183 -5 215 3 215 56 0 44 -41 55 -209 55 -169 0 -239 -11 -279 -45 l-28 -23
-58 163 c-32 90 -65 173 -73 184 -17 25 -64 28 -86 7 -8 -8 -24 -51 -37 -95
-13 -45 -28 -77 -33 -74 -6 3 -7 1 -3 -6 10 -15 -65 -241 -78 -234 -5 3 -6 1
-2 -6 8 -12 -34 -141 -45 -141 -24 0 -117 364 -195 760 -14 74 -32 142 -38
150 -7 9 -23 14 -44 12z"/>
<path d="M3414 6240 c-116 -12 -216 -54 -311 -129 -28 -22 -55 -37 -59 -33 -5
4 -6 3 -2 -1 3 -5 -16 -38 -44 -74 -27 -36 -56 -83 -65 -104 -8 -22 -20 -36
-26 -32 -5 3 -7 2 -4 -3 3 -6 -3 -41 -13 -79 -37 -132 -22 -329 31 -437 11
-20 17 -43 16 -50 -2 -7 -2 -10 0 -6 3 4 30 -26 60 -67 31 -41 73 -86 95 -100
24 -16 36 -30 32 -38 -4 -7 -4 -9 1 -5 4 4 31 -5 59 -19 28 -14 65 -29 81 -33
28 -6 27 -7 -22 -18 -29 -6 -92 -28 -140 -48 -49 -20 -96 -37 -105 -37 -9 -1
-15 -4 -12 -8 2 -3 -22 -22 -54 -42 -31 -20 -69 -47 -84 -62 -15 -14 -33 -24
-40 -23 -7 2 -12 -2 -13 -9 0 -6 -16 -29 -36 -50 -109 -118 -190 -266 -273
-498 -89 -247 -133 -328 -240 -440 -59 -61 -64 -69 -54 -91 7 -15 23 -26 44
-30 39 -7 72 16 142 100 81 96 141 217 228 461 52 147 77 200 142 300 74 116
262 288 294 269 6 -4 8 -3 5 3 -8 12 51 45 137 78 162 61 340 75 505 41 52
-11 151 -48 151 -57 0 -4 6 -6 13 -4 19 8 156 -77 225 -140 54 -50 61 -60 50
-74 -11 -14 -11 -14 3 -4 18 15 33 2 65 -57 10 -19 25 -41 32 -49 19 -20 33
-61 26 -73 -4 -6 -2 -8 3 -5 6 4 16 -7 23 -26 7 -17 19 -50 27 -72 23 -60 95
-336 97 -367 0 -14 4 -24 7 -23 3 2 15 -17 28 -42 12 -25 38 -71 58 -102 21
-31 36 -60 35 -64 -1 -5 2 -6 6 -3 5 3 17 -3 26 -13 10 -10 14 -21 9 -23 -4
-3 -3 -3 4 -2 7 2 18 -2 25 -9 54 -51 109 -60 134 -22 21 33 11 61 -35 89 -73
46 -169 170 -157 202 3 8 2 13 -3 10 -13 -8 -44 81 -81 234 -17 74 -41 154
-51 177 -10 23 -19 47 -19 53 0 20 -72 150 -117 213 -53 73 -148 165 -219 213
-91 61 -261 132 -324 135 l-25 1 25 7 c31 7 106 47 140 73 88 67 202 207 215
265 2 10 12 45 22 78 12 42 17 95 17 175 0 98 -4 126 -26 188 -53 147 -144
262 -276 346 -126 80 -236 103 -408 86z m245 -129 c45 -16 99 -42 119 -57 57
-42 102 -87 102 -101 0 -7 5 -13 11 -13 5 0 7 -5 3 -12 -4 -7 -3 -8 4 -4 14 9
46 -39 36 -55 -4 -8 -3 -9 4 -5 18 11 61 -96 74 -182 9 -58 9 -75 -1 -81 -8
-6 -10 -20 -6 -43 5 -24 0 -58 -15 -104 -76 -248 -344 -414 -588 -363 -51 10
-127 42 -204 85 -46 25 -123 121 -161 199 -136 277 -5 624 275 727 93 35 98
35 189 37 61 1 93 -5 158 -28z"/>
<path d="M6575 6225 c-38 -12 -90 -32 -115 -45 -58 -30 -148 -98 -161 -122 -6
-11 -17 -17 -25 -14 -9 3 -12 2 -9 -5 9 -13 -25 -50 -38 -42 -5 3 -7 1 -4 -4
4 -6 -7 -36 -24 -66 -89 -164 -102 -388 -34 -558 26 -65 89 -161 134 -203 16
-16 27 -34 24 -40 -3 -6 -3 -8 2 -4 5 5 22 -3 39 -16 41 -31 131 -76 153 -77
10 0 -13 -9 -52 -19 -201 -54 -384 -183 -506 -355 -64 -91 -129 -244 -169
-402 -8 -29 -18 -49 -23 -46 -6 3 -7 1 -3 -6 13 -20 -23 -157 -60 -231 -36
-71 -111 -158 -171 -199 -38 -25 -43 -59 -15 -84 26 -24 52 -21 103 11 106 68
206 227 244 392 18 76 42 169 71 270 23 78 97 218 147 276 84 98 227 210 254
200 8 -3 12 -2 9 2 -10 17 124 69 239 93 121 25 409 9 390 -21 -3 -4 2 -11 11
-14 8 -3 12 -2 9 4 -9 14 -3 13 71 -15 87 -33 145 -66 137 -78 -4 -6 0 -8 10
-4 17 6 107 -56 107 -74 0 -6 4 -8 9 -5 13 8 143 -133 135 -146 -4 -6 -3 -8 4
-4 16 9 83 -104 76 -129 -4 -14 -3 -16 4 -7 7 11 10 10 16 -3 3 -9 3 -22 -1
-27 -3 -6 -1 -8 4 -5 13 8 56 -89 49 -109 -3 -8 -2 -13 3 -10 5 4 16 -13 24
-36 60 -167 98 -261 126 -311 33 -62 37 -72 21 -62 -16 10 -11 -1 7 -16 11
-10 14 -10 9 -1 -4 6 -5 12 -2 12 10 0 46 -69 46 -89 0 -11 5 -21 11 -21 5 0
7 4 4 10 -15 24 23 -4 45 -34 27 -36 72 -66 99 -66 22 0 51 30 51 53 0 9 -30
49 -68 89 -85 92 -129 164 -182 303 -23 61 -46 119 -50 130 -4 11 -16 43 -25
70 -20 55 -93 208 -130 270 -13 21 -21 43 -19 47 3 5 2 7 -3 6 -14 -5 -75 70
-68 82 4 6 2 9 -3 8 -5 -2 -40 24 -77 57 -37 33 -97 79 -134 103 -36 24 -65
48 -63 53 1 6 -2 7 -8 4 -7 -4 -44 7 -83 24 -40 17 -101 38 -137 45 -36 8 -53
15 -37 15 32 1 72 20 137 65 142 97 223 221 256 394 18 95 18 153 -1 243 -9
40 -13 80 -10 88 3 9 3 12 -1 8 -4 -4 -25 30 -48 76 -53 107 -170 228 -266
274 -112 54 -155 65 -279 68 -98 2 -127 -1 -186 -20z m237 -85 c29 -6 63 -13
76 -16 14 -3 20 -9 16 -16 -5 -7 -3 -8 5 -3 20 11 133 -51 185 -103 115 -113
171 -244 169 -397 -2 -150 -51 -265 -162 -375 -62 -61 -91 -81 -156 -109 -198
-84 -421 -34 -573 128 -47 50 -117 185 -126 241 -16 99 -17 142 -7 210 12 78
57 193 72 184 5 -3 6 1 4 9 -3 7 24 44 63 85 94 99 228 161 364 171 9 0 41 -4
70 -9z"/>
</g>
</svg>
