<?xml version="1.0" standalone="no"?>
<!DOCTYPE svg PUBLIC "-//W3C//DTD SVG 20010904//EN" "http://www.w3.org/TR/2001/REC-SVG-20010904/DTD/svg10.dtd">
<svg xmlns="http://www.w3.org/2000/svg" version="1.0" width="1024.000000pt" height="1024.000000pt" viewBox="0 0 1024.000000 1024.000000" preserveAspectRatio="xMidYMid meet">
<metadata>
Created by potrace 1.16, written by Peter Selinger 2001-2019
<meta name="Producer" content="Online-Convert"/></metadata>
<g transform="translate(0.000000,1024.000000) scale(0.100000,-0.100000)" fill="#000000" stroke="none">
<path d="M6023 7025 c-34 -14 -43 -32 -43 -80 0 -67 87 -99 135 -50 65 64 -7 166 -92 130z"/>
<path d="M3585 6965 c-54 -53 -18 -135 58 -135 50 0 77 28 77 79 0 73 -84 108 -135 56z"/>
<path d="M4430 6580 c-80 -17 -202 -85 -278 -155 -131 -122 -194 -220 -418 -657 -90 -175 -182 -346 -205 -380 -63 -95 -177 -201 -256 -240 -64 -31 -74 -33 -173 -33 -93 0 -112 3 -161 26 -31 15 -91 57 -133 94 -220 192 -335 242 -488 215 -91 -16 -164 -53 -293 -149 -121 -90 -221 -143 -304 -160 -66 -14 -81 -25 -81 -60 0 -37 17 -51 60 -51 94 0 219 59 385 181 151 112 199 133 300 133 111 -1 147 -19 330 -177 171 -148 305 -190 491 -156 127 23 294 146 400 295 24 34 121 211 214 393 190 370 256 483 342 582 187 218 420 259 609 107 103 -83 228 -301 389 -683 64 -150 204 -441 220 -455 3 -3 26 -34 52 -70 124 -176 258 -260 411 -260 128 0 249 55 365 164 85 81 126 141 256 376 53 96 122 211 154 254 100 139 223 202 346 176 107 -22 170 -86 306 -314 204 -341 348 -478 547 -522 102 -22 281 -28 438 -15 162 14 189 23 193 67 5 52 -14 59 -123 46 -118 -15 -372 -15 -451 -1 -32 6 -92 26 -133 46 -128 61 -212 161 -397 468 -100 167 -208 280 -299 314 -50 19 -75 22 -151 19 -78 -3 -101 -8 -157 -36 -130 -64 -212 -166 -378 -467 -135 -247 -227 -363 -328 -414 -150 -77 -288 -64 -401 38 -118 104 -212 265 -365 620 -157 366 -242 525 -353 657 -57 69 -162 143 -236 168 -60 21 -185 28 -246 16z"/>
<path d="M2845 6328 c-51 -29 -61 -93 -20 -133 64 -65 166 6 130 91 -19 47 -68 66 -110 42z"/>
<path d="M5895 6025 c-45 -44 -25 -121 35 -140 31 -10 79 13 96 46 41 81 -67 159 -131 94z"/>
<path d="M4020 4995 c-10 -12 -10 -31 -1 -93 55 -353 242 -626 539 -785 l83 -44 -69 -6 c-191 -18 -416 -109 -568 -230 -83 -66 -204 -197 -204 -221 0 -7 8 -20 18 -29 33 -29 104 -41 252 -40 123 0 160 4 241 26 223 59 424 192 535 353 l39 56 220 -5 c652 -15 993 -196 1219 -645 26 -51 53 -95 61 -99 28 -10 64 6 71 32 12 48 -68 202 -190 365 -84 113 -264 296 -359 365 l-69 50 144 6 c176 7 271 31 423 104 167 81 302 192 413 339 86 114 72 134 -112 166 -140 24 -229 25 -351 5 -263 -42 -488 -192 -629 -418 l-47 -76 -42 30 c-23 16 -64 45 -92 63 -115 77 -346 286 -423 385 -15 18 -48 61 -74 95 -27 33 -52 66 -58 73 -5 7 -10 16 -11 20 -1 15 -85 126 -105 139 -28 19 -68 -3 -72 -38 -3 -25 56 -144 78 -158 4 -3 16 -19 26 -36 45 -74 193 -243 302 -345 91 -86 251 -213 394 -313 62 -44 117 -83 122 -87 4 -4 -28 3 -72 16 -159 46 -396 75 -628 75 -135 0 -134 -1 -134 69 0 21 -4 51 -9 67 -5 16 -14 49 -21 74 -21 71 -114 254 -147 288 -7 7 -13 17 -13 21 0 17 -176 185 -244 233 -173 122 -397 200 -436 153z m249 -166 c52 -28 68 -38 141 -91 167 -120 319 -342 356 -521 8 -39 17 -74 20 -79 8 -12 -90 28 -168 69 -38 20 -68 39 -68 44 0 5 -5 9 -11 9 -34 0 -195 155 -258 249 -72 106 -110 198 -145 353 l-6 26 51 -19 c28 -11 68 -29 88 -40z m2434 -276 l28 -8 -78 -80 c-161 -163 -315 -248 -520 -289 -101 -20 -182 -26 -265 -19 l-66 6 30 49 c107 173 300 300 523 344 75 14 297 13 348 -3z m-1982 -612 c-98 -124 -299 -239 -484 -277 -42 -9 -111 -14 -175 -12 l-107 3 80 68 c184 158 365 225 670 250 22 2 42 4 43 5 2 1 -10 -16 -27 -37z"/>
<path d="M7256 4685 c-77 -71 24 -190 107 -125 33 26 41 63 22 100 -28 55 -85 66 -129 25z"/>
<path d="M3312 4533 c-17 -6 -42 -57 -42 -83 0 -31 53 -80 85 -80 35 0 85 50 85 85 0 54 -74 100 -128 78z"/>
<path d="M6912 3817 c-23 -25 -29 -75 -12 -107 12 -22 64 -42 88 -33 36 13 62 46 62 80 0 72 -90 111 -138 60z"/>
<path d="M5075 3508 c-32 -17 -45 -39 -45 -78 0 -48 33 -80 81 -80 83 0 113 117 39 155 -34 18 -48 18 -75 3z"/>
</g>
</svg>
