<?xml version="1.0" standalone="no"?>
<!DOCTYPE svg PUBLIC "-//W3C//DTD SVG 20010904//EN"
 "http://www.w3.org/TR/2001/REC-SVG-20010904/DTD/svg10.dtd">
<svg version="1.0" xmlns="http://www.w3.org/2000/svg"
 width="1024.000000pt" height="1024.000000pt" viewBox="0 0 1024.000000 1024.000000"
 preserveAspectRatio="xMidYMid meet">
<metadata>
Created by potrace 1.16, written by Peter Selinger 2001-2019
</metadata>
<g transform="translate(0.000000,1024.000000) scale(0.100000,-0.100000)"
fill="#000000" stroke="none">
<path d="M5225 8053 c-461 -57 -817 -180 -1140 -393 -338 -223 -513 -450 -562
-727 -14 -81 -15 -108 -5 -188 29 -233 145 -404 358 -531 16 -10 14 -12 -21
-24 -22 -7 -91 -37 -154 -68 -296 -143 -520 -351 -619 -573 -54 -122 -66 -182
-66 -329 0 -119 3 -144 27 -216 27 -80 103 -211 145 -248 12 -10 19 -23 15
-29 -3 -5 -1 -7 4 -4 6 4 19 -3 29 -14 10 -11 33 -29 51 -40 18 -11 33 -24 33
-28 0 -5 -28 -19 -62 -31 -78 -28 -248 -113 -361 -179 -255 -151 -475 -369
-578 -574 -138 -271 -139 -601 -3 -844 36 -64 41 -78 24 -68 -6 3 -7 -1 -3
-10 4 -12 8 -13 13 -5 5 7 21 -7 44 -39 47 -63 136 -142 248 -219 48 -32 84
-63 80 -67 -4 -5 -1 -5 6 -1 7 4 31 -3 55 -17 156 -91 456 -195 782 -271 225
-53 654 -126 736 -126 16 0 29 -4 29 -10 0 -5 6 -7 14 -4 8 3 86 -2 174 -10
503 -50 1099 -44 1569 15 74 9 96 9 108 -1 13 -11 14 -10 10 1 -4 11 20 18
112 32 164 25 413 81 562 127 324 100 580 241 761 419 136 134 219 272 270
451 30 105 38 312 16 437 -76 439 -425 831 -936 1054 -52 23 -101 47 -107 53
-10 9 -3 23 30 66 129 164 193 334 204 536 18 353 -174 643 -541 814 -96 46
-280 108 -343 117 -40 5 -61 23 -29 23 8 0 16 4 18 8 2 5 41 34 88 65 150 98
284 256 346 407 99 243 51 564 -118 792 -31 42 -53 79 -50 83 4 4 2 6 -3 4 -6
-1 -39 26 -75 60 -166 159 -393 266 -658 312 -89 15 -156 19 -305 18 -106 -1
-205 -4 -222 -6z m473 -168 c282 -46 473 -142 644 -324 251 -267 276 -632 61
-882 -205 -240 -557 -388 -1113 -470 -182 -26 -569 -37 -745 -20 -140 13 -295
41 -295 52 0 5 -6 6 -13 3 -22 -8 -196 59 -277 106 -227 133 -335 374 -270
608 59 212 207 388 475 565 235 154 576 287 884 342 176 32 175 32 381 33 116
1 207 -3 268 -13z m402 -1731 c244 -54 458 -142 593 -244 304 -230 352 -608
122 -954 -47 -71 -182 -199 -271 -258 -192 -126 -459 -232 -724 -287 -246 -51
-400 -64 -685 -58 -298 6 -502 31 -800 99 -202 45 -595 171 -595 190 0 5 -4 7
-9 4 -11 -7 -108 32 -237 95 -219 107 -309 240 -321 472 -4 75 -3 107 5 107 6
0 9 7 6 15 -8 19 19 103 57 178 84 166 256 325 484 448 117 63 366 159 386
148 35 -18 213 -59 326 -74 271 -37 664 -27 965 24 62 11 116 17 120 15 4 -3
8 -1 8 4 0 4 28 14 63 21 34 7 118 30 187 51 140 43 140 43 320 4z m689 -1544
c28 -7 41 -16 41 -28 0 -14 2 -14 9 -3 8 12 32 3 134 -47 431 -212 700 -510
787 -876 21 -85 27 -172 11 -147 -6 10 -9 2 -8 -22 0 -21 5 -37 9 -37 14 0 8
-93 -12 -177 -39 -163 -111 -284 -246 -413 -271 -258 -703 -419 -1371 -510
-297 -41 -703 -64 -688 -40 4 7 -75 10 -230 10 -177 0 -234 -3 -229 -12 9 -14
-220 -6 -461 17 -619 59 -1177 182 -1539 341 -430 188 -620 421 -620 759 0
137 19 217 84 350 90 183 235 334 466 485 124 81 341 191 492 249 l103 39 134
-53 c266 -107 544 -187 825 -239 292 -53 384 -61 725 -61 336 0 424 8 636 55
70 16 94 18 105 9 8 -7 17 -9 21 -5 3 3 1 6 -5 6 -7 0 -12 4 -12 8 0 4 33 16
73 26 188 48 441 160 597 265 58 39 110 69 117 66 6 -2 30 -9 52 -15z"/>
</g>
</svg>
