<?xml version="1.0" standalone="no"?>
<!DOCTYPE svg PUBLIC "-//W3C//DTD SVG 20010904//EN"
 "http://www.w3.org/TR/2001/REC-SVG-20010904/DTD/svg10.dtd">
<svg version="1.0" xmlns="http://www.w3.org/2000/svg"
 width="1024.000000pt" height="1024.000000pt" viewBox="0 0 1024.000000 1024.000000"
 preserveAspectRatio="xMidYMid meet">
<metadata>
Created by potrace 1.16, written by Peter Selinger 2001-2019
</metadata>
<g transform="translate(0.000000,1024.000000) scale(0.100000,-0.100000)"
fill="#000000" stroke="none">
<path d="M3740 7464 c-82 -17 -207 -78 -286 -137 -108 -82 -198 -210 -253
-360 l-26 -72 -3 -1979 c-2 -1467 1 -1982 9 -1992 10 -12 318 -14 1934 -14
1849 0 1923 1 1938 18 16 17 17 167 17 1956 0 2175 5 2017 -75 2181 -96 195
-265 334 -480 395 -68 20 -102 20 -1390 19 -1093 0 -1331 -3 -1385 -15z m2801
-135 c174 -67 317 -217 377 -393 l27 -81 3 -1082 3 -1083 -179 0 c-518 0
-1010 -107 -1437 -311 -49 -24 -95 -43 -101 -43 -5 1 -95 60 -200 132 -313
215 -460 303 -664 396 -307 141 -604 206 -937 206 l-143 0 0 859 c0 965 -1
955 69 1096 82 166 230 280 426 328 11 3 621 4 1355 3 l1335 -1 66 -26z
m-2848 -2395 c288 -38 497 -105 767 -246 168 -87 544 -333 534 -350 -4 -6 -3
-8 4 -4 6 3 65 -32 132 -79 501 -353 1016 -573 1625 -694 l190 -38 0 -244 0
-244 -1827 -3 -1828 -2 0 966 0 966 148 -6 c81 -4 196 -14 255 -22z m3255
-827 l2 -459 -27 6 c-16 3 -59 11 -98 17 -136 21 -433 99 -607 158 -304 105
-581 235 -831 393 l-47 30 60 29 c199 94 427 167 680 219 244 49 454 68 725
66 l140 -1 3 -458z"/>
</g>
</svg>
