<?xml version="1.0" standalone="no"?>
<!DOCTYPE svg PUBLIC "-//W3C//DTD SVG 20010904//EN"
 "http://www.w3.org/TR/2001/REC-SVG-20010904/DTD/svg10.dtd">
<svg version="1.0" xmlns="http://www.w3.org/2000/svg"
 width="1024.000000pt" height="1024.000000pt" viewBox="0 0 1024.000000 1024.000000"
 preserveAspectRatio="xMidYMid meet">
<metadata>
Created by potrace 1.16, written by Peter Selinger 2001-2019
</metadata>
<g transform="translate(0.000000,1024.000000) scale(0.100000,-0.100000)"
fill="#000000" stroke="none">
<path d="M3470 8648 c-52 -5 -103 -10 -112 -11 -9 -1 -14 -5 -12 -9 5 -7 -14
-12 -44 -11 -7 1 -11 -1 -8 -4 5 -5 -99 -73 -111 -73 -2 0 -1 5 3 12 4 7 3 8
-5 4 -6 -4 -9 -11 -7 -15 7 -11 -59 -73 -68 -64 -4 5 -6 1 -4 -7 2 -8 -3 -14
-10 -12 -8 1 -11 -2 -7 -8 3 -5 -5 -21 -19 -35 -14 -14 -25 -26 -25 -28 3 -7
-45 -95 -50 -92 -3 1 -7 -8 -8 -22 0 -14 -5 -28 -10 -32 -4 -3 -9 -15 -10 -26
-1 -11 -7 -47 -13 -80 -6 -40 -10 -1059 -10 -3022 0 -2360 -3 -2962 -12 -2966
-8 -4 -7 -6 3 -6 17 -1 35 -77 32 -136 -2 -25 -1 -27 7 -10 5 11 9 15 9 8 1
-6 4 -19 8 -29 4 -12 3 -15 -5 -10 -8 5 -9 1 -4 -14 4 -12 12 -22 17 -22 14
-1 54 -71 48 -82 -4 -5 -1 -6 4 -3 6 4 26 -13 44 -36 55 -72 196 -164 277
-182 18 -3 30 -11 27 -16 -4 -5 704 -9 1697 -9 1879 0 1739 -5 1871 61 32 17
63 27 69 23 6 -4 8 -3 5 3 -4 6 8 22 26 36 39 30 141 131 137 135 -4 5 64 136
73 140 4 2 5 7 3 11 -3 4 0 27 6 52 14 58 13 6058 -1 6120 -5 24 -8 47 -5 51
3 4 1 8 -3 8 -5 0 -15 17 -22 38 -8 20 -25 54 -38 75 -13 21 -21 42 -18 48 4
5 3 8 -2 7 -4 -2 -8 0 -8 4 0 3 -12 16 -28 28 -15 12 -24 27 -20 33 3 7 3 9
-2 5 -4 -4 -31 13 -59 37 -28 25 -81 60 -118 77 -36 18 -64 36 -62 40 3 4 -8
7 -23 7 -15 -1 -85 4 -155 10 -156 13 -3108 12 -3248 -1z m3345 -190 c28 -10
59 -24 70 -33 19 -14 19 -15 1 -8 -14 5 -17 3 -12 -6 5 -7 17 -11 27 -8 26 7
106 -62 87 -75 -10 -8 -9 -9 4 -4 22 7 60 -45 52 -71 -4 -13 -3 -14 3 -5 12
16 49 -61 38 -79 -5 -7 -4 -10 3 -6 32 21 33 -105 30 -3083 -3 -2775 -4 -2958
-20 -3006 -10 -28 -35 -77 -56 -110 -41 -64 -133 -141 -153 -128 -7 4 -9 3 -6
-3 7 -12 -44 -35 -103 -48 -61 -14 -3292 -9 -3337 5 -72 22 -93 32 -86 43 4 6
0 8 -8 5 -33 -13 -184 137 -156 154 8 5 7 8 -4 8 -21 0 -47 58 -58 132 -7 40
-10 1129 -10 2998 0 3195 -3 3013 56 3122 47 87 164 191 195 172 7 -4 8 -3 4
4 -9 15 30 31 104 42 30 4 782 7 1670 6 1499 -1 1619 -2 1665 -18z"/>
<path d="M4640 8150 c0 -6 -37 -10 -90 -10 -85 0 -92 -2 -115 -26 -14 -15 -25
-39 -25 -53 0 -14 -2 -35 -4 -46 -2 -11 -1 -14 2 -6 3 11 9 9 22 -10 17 -21
29 -25 107 -30 48 -3 342 -5 653 -4 619 1 601 -1 619 60 10 36 9 90 -2 101 -4
5 -5 0 -1 -11 7 -18 5 -18 -18 3 -16 14 -38 22 -64 23 -33 1 -35 2 -14 8 16 5
-7 8 -60 8 -82 0 -83 0 -25 -7 33 -4 -157 -7 -422 -8 -317 -1 -483 1 -483 8 0
6 -18 10 -40 10 -22 0 -40 -4 -40 -10z"/>
<path d="M5097 6484 c-4 -4 -17 -7 -29 -8 -13 -1 -22 -7 -20 -15 1 -7 -2 -19
-7 -25 -15 -18 -16 -1218 -1 -1246 13 -23 60 -50 90 -50 12 0 35 13 51 29 l29
29 0 612 c0 419 -3 618 -11 632 -15 28 -86 57 -102 42z"/>
<path d="M4548 5925 c-31 -18 -60 -30 -64 -27 -4 4 -4 2 -1 -4 7 -12 -52 -60
-70 -56 -6 1 -15 -3 -19 -9 -5 -8 -3 -10 7 -4 8 4 -4 -11 -25 -33 -22 -23 -44
-38 -49 -35 -6 3 -7 1 -4 -4 9 -14 -63 -104 -76 -96 -5 3 -7 1 -4 -4 6 -10
-52 -119 -70 -132 -5 -3 -9 -13 -10 -21 -1 -8 -18 -53 -38 -100 -20 -47 -34
-72 -30 -57 4 20 2 27 -6 22 -6 -4 -9 -21 -6 -39 3 -17 -2 -65 -10 -106 -18
-92 -19 -313 -3 -400 7 -36 13 -103 13 -149 0 -47 3 -79 5 -72 3 9 7 9 20 -1
13 -11 14 -11 7 2 -11 17 -15 31 -21 75 -3 17 7 1 20 -35 19 -48 22 -66 13
-72 -9 -5 -7 -8 4 -8 8 0 25 -21 37 -47 12 -27 16 -39 7 -29 -13 18 -15 18
-15 3 0 -10 11 -22 24 -26 25 -10 40 -36 29 -53 -3 -6 -1 -8 4 -5 14 9 37 -19
27 -34 -4 -7 -3 -9 4 -5 13 8 35 -28 24 -39 -4 -3 -2 -5 3 -4 6 2 46 -33 90
-78 125 -126 291 -224 455 -269 36 -10 67 -20 70 -23 3 -3 34 -8 70 -9 36 -2
69 -6 74 -9 11 -7 157 -7 176 0 8 3 40 8 70 12 144 16 293 72 425 159 113 76
182 141 260 245 78 103 123 186 163 301 43 123 56 216 55 375 -1 140 -18 242
-57 354 -9 24 -13 48 -9 54 3 5 2 7 -4 4 -11 -7 -39 60 -34 83 2 8 -1 12 -5 8
-10 -11 -46 51 -38 64 4 6 3 8 -4 4 -5 -3 -20 9 -31 27 -11 19 -36 53 -55 77
-19 24 -32 49 -29 55 4 5 2 7 -2 2 -11 -9 -75 52 -75 71 0 7 -5 12 -12 10 -16
-6 -104 62 -100 76 2 6 0 8 -3 4 -4 -4 -28 4 -54 17 -45 24 -100 33 -115 18
-4 -5 -13 -8 -19 -8 -7 0 -11 -8 -9 -17 1 -9 -2 -19 -8 -23 -28 -17 4 -96 50
-120 17 -9 30 -22 30 -31 0 -8 5 -12 10 -9 6 4 27 -5 46 -20 28 -22 33 -30 23
-37 -11 -8 -10 -9 3 -4 21 6 91 -61 81 -77 -3 -5 -1 -7 4 -4 14 9 47 -29 37
-44 -4 -7 -3 -10 4 -5 6 3 20 -7 31 -23 23 -32 27 -46 10 -35 -8 4 -8 0 0 -15
14 -25 22 -28 15 -3 -5 14 -3 14 10 -2 12 -16 13 -22 3 -28 -9 -6 -8 -8 4 -8
21 0 73 -113 73 -157 0 -18 3 -28 6 -23 13 20 33 -97 38 -218 2 -74 0 -147 -7
-185 -19 -97 -43 -177 -52 -172 -4 3 -11 0 -15 -6 -4 -8 -3 -9 4 -5 7 4 12 1
12 -9 0 -10 -5 -13 -12 -9 -7 4 -8 3 -4 -5 8 -13 -49 -123 -97 -186 -49 -65
-176 -183 -238 -221 -89 -53 -195 -94 -232 -88 -24 3 -27 2 -12 -4 18 -8 18
-9 -5 -15 -78 -18 -203 -29 -280 -24 -110 8 -192 25 -184 39 4 6 -1 8 -14 4
-26 -9 -152 48 -242 109 -55 37 -203 176 -161 150 10 -5 12 -4 7 4 -4 6 -11 9
-16 6 -11 -7 -31 20 -28 36 2 8 -2 13 -9 12 -25 -5 -98 140 -143 282 -28 88
-39 311 -21 407 19 95 41 169 51 163 4 -3 6 4 3 15 -3 11 -1 20 4 20 5 0 10 6
10 13 0 24 35 87 46 80 6 -4 7 -1 3 6 -9 14 60 124 73 117 5 -3 17 4 27 17
l19 22 -22 -19 c-13 -11 -23 -15 -23 -9 0 18 119 125 131 117 8 -4 9 -3 5 4
-4 7 23 31 67 61 78 52 87 64 87 111 0 38 -50 80 -93 79 -18 0 -58 -16 -89
-34z"/>
</g>
</svg>
