<?xml version="1.0" standalone="no"?>
<!DOCTYPE svg PUBLIC "-//W3C//DTD SVG 20010904//EN"
 "http://www.w3.org/TR/2001/REC-SVG-20010904/DTD/svg10.dtd">
<svg version="1.0" xmlns="http://www.w3.org/2000/svg"
 width="1024.000000pt" height="1024.000000pt" viewBox="0 0 1024.000000 1024.000000"
 preserveAspectRatio="xMidYMid meet">
<metadata>
Created by potrace 1.16, written by Peter Selinger 2001-2019
</metadata>
<g transform="translate(0.000000,1024.000000) scale(0.100000,-0.100000)"
fill="#000000" stroke="none">
<path d="M5159 7806 c-2 -2 -60 -6 -129 -9 -69 -3 -163 -13 -210 -22 -47 -9
-96 -18 -110 -20 -14 -2 -27 -5 -30 -6 -3 -1 -9 -3 -15 -4 -5 -1 -17 -5 -25
-8 -8 -3 -63 -22 -122 -41 -240 -79 -500 -240 -681 -423 -163 -165 -289 -369
-357 -578 -18 -55 -35 -107 -38 -115 -2 -8 -7 -31 -9 -50 -2 -19 -8 -37 -14
-38 -5 -2 -7 -8 -4 -13 4 -5 -377 -9 -916 -9 -819 0 -925 -2 -940 -16 -26 -23
-30 -63 -8 -85 18 -18 52 -19 974 -19 944 0 954 0 973 20 11 12 31 69 47 136
15 63 32 117 36 120 5 3 9 15 9 27 1 72 131 312 241 444 104 123 308 299 336
288 7 -2 12 0 10 6 -1 5 20 22 47 37 27 15 58 34 68 42 10 8 22 15 26 16 4 0
45 19 92 42 90 43 214 87 267 95 17 3 36 8 42 11 6 4 23 9 38 11 16 3 64 12
107 20 81 15 294 20 424 10 40 -3 116 -14 170 -26 100 -22 283 -77 292 -88 3
-3 11 -7 18 -9 7 -1 56 -22 107 -46 82 -38 144 -76 302 -184 19 -13 31 -28 27
-34 -4 -6 -3 -8 4 -5 20 13 168 -124 156 -145 -4 -7 -3 -10 1 -5 5 4 21 -5 37
-20 31 -29 39 -54 11 -32 -16 13 -17 12 -5 -3 8 -10 19 -16 25 -15 14 3 128
-165 130 -192 0 -11 4 -18 8 -16 6 4 58 -101 64 -129 1 -6 7 -22 12 -36 19
-44 51 -162 64 -230 10 -51 19 -72 46 -98 18 -18 33 -28 33 -22 0 7 47 10 150
9 l150 -1 -5 -49 c-4 -55 -12 -72 -27 -63 -6 4 -8 3 -5 -3 3 -5 -26 -41 -64
-79 -39 -38 -85 -89 -102 -114 -17 -25 -34 -47 -37 -50 -10 -7 -75 -149 -88
-190 -14 -45 -20 -90 -23 -162 -1 -32 -5 -58 -9 -58 -4 0 -7 -14 -8 -32 0 -21
2 -28 8 -19 6 10 9 8 15 -8 4 -13 1 -28 -6 -37 -10 -12 -10 -15 2 -12 8 2 15
-7 17 -22 2 -14 18 -56 36 -95 56 -120 172 -227 304 -279 31 -13 66 -27 77
-31 11 -5 26 -7 33 -6 6 1 12 -2 12 -6 0 -4 13 -9 29 -10 33 -2 142 -39 150
-51 3 -4 19 -16 34 -25 25 -16 27 -21 15 -35 -12 -15 -11 -16 5 -3 17 13 22
11 53 -21 32 -34 44 -56 26 -44 -5 3 -9 -1 -9 -9 0 -12 3 -12 15 -3 11 10 20
6 43 -22 46 -55 149 -200 152 -213 1 -7 4 -14 7 -17 12 -11 46 -67 67 -110 19
-37 23 -62 23 -137 l0 -92 -100 -3 c-98 -3 -100 -2 -101 20 -2 25 -3 28 -13
57 -48 127 -143 214 -279 257 -79 24 -252 27 -314 5 -22 -9 -44 -13 -47 -10
-3 4 -6 1 -6 -6 0 -7 -4 -9 -10 -6 -5 3 -10 1 -10 -6 0 -8 -4 -8 -16 1 -12 11
-15 11 -12 0 2 -7 -8 -19 -21 -26 -40 -21 -121 -107 -156 -166 -18 -31 -43
-88 -56 -127 l-23 -71 -208 0 -207 0 -4 1093 c-2 600 -6 1101 -9 1112 -2 11
-9 31 -15 45 -6 14 -19 52 -29 85 -10 33 -24 66 -31 73 -6 6 -15 22 -18 33
-26 81 -164 247 -280 338 -95 74 -229 161 -247 161 -5 0 -6 5 -2 12 4 6 3 8
-4 4 -9 -5 -38 3 -127 39 -11 4 -27 9 -35 11 -8 2 -44 11 -80 20 -47 12 -116
17 -247 19 -165 2 -192 0 -275 -22 -152 -39 -318 -110 -395 -169 -18 -14 -33
-23 -33 -20 0 19 -219 -200 -260 -259 -18 -26 -36 -43 -42 -39 -6 4 -8 3 -4
-4 3 -5 -12 -43 -33 -84 -88 -164 -123 -314 -125 -551 -1 -56 -4 -76 -13 -73
-11 5 -9 -13 5 -38 9 -17 7 -64 -2 -58 -6 3 -6 -2 0 -14 11 -25 12 -214 1
-207 -5 3 -4 -4 2 -15 14 -26 14 -69 1 -77 -5 -3 -10 -12 -10 -18 0 -7 4 -6
10 3 6 10 9 4 8 -20 0 -19 -7 -43 -16 -52 -8 -10 -10 -18 -4 -18 6 0 12 5 14
12 4 10 3 -87 -1 -120 0 -6 -6 -11 -12 -10 -6 2 -14 -4 -16 -12 -4 -13 -3 -13
6 0 6 8 11 13 12 10 11 -38 19 -240 9 -240 -4 0 -7 -7 -7 -15 0 -8 4 -12 9 -9
5 3 7 -7 5 -23 -2 -16 -10 -28 -18 -28 -8 0 -15 -10 -17 -22 -3 -17 0 -21 12
-17 17 7 17 5 20 -86 0 -27 -2 -50 -6 -50 -5 0 -8 -5 -8 -11 0 -5 4 -8 9 -5 5
4 7 -10 5 -31 -5 -45 -5 -46 2 -102 5 -35 4 -42 -7 -36 -11 6 -12 5 -1 -6 24
-26 13 -55 -20 -50 -16 2 -7 -18 10 -23 10 -3 18 -15 19 -27 1 -14 -3 -19 -12
-15 -9 3 -12 0 -8 -10 3 -7 9 -14 13 -14 9 0 5 -288 -4 -315 -6 -15 -6 -17 2
-5 8 11 11 7 10 -18 l-1 -32 -149 0 c-112 0 -148 -3 -148 -12 0 -9 -4 -8 -10
2 -7 10 -8 3 -5 -25 8 -61 19 -65 189 -65 83 0 768 0 1522 0 753 -1 1377 2
1386 5 10 4 25 36 38 78 28 98 51 148 63 140 6 -3 7 -1 3 6 -18 29 104 142
177 162 23 7 49 14 57 17 8 3 46 7 85 9 82 6 200 -21 191 -43 -3 -8 0 -11 8
-8 20 8 98 -57 123 -101 12 -22 20 -41 18 -44 -3 -2 0 -10 7 -18 8 -10 8 -17
0 -25 -7 -7 -12 -8 -12 -2 0 6 -32 7 -82 3 -46 -3 -89 -4 -95 -1 -7 2 -13 -1
-13 -7 0 -6 -7 -11 -15 -11 -11 0 -15 -11 -15 -39 0 -22 4 -42 9 -45 5 -4 100
-7 211 -8 l202 -1 -79 -81 c-43 -44 -82 -83 -86 -87 -4 -3 -10 -21 -12 -40 -3
-21 -1 -29 4 -20 7 11 11 10 19 -4 5 -10 18 -19 28 -20 11 0 26 -5 33 -10 9
-5 12 -4 8 2 -8 12 36 56 46 46 4 -3 7 1 7 11 0 17 68 83 82 79 4 -2 7 2 5 8
-1 6 29 35 67 65 l68 53 144 0 c149 0 174 6 174 45 0 21 -37 45 -61 39 -10 -3
-19 0 -19 6 0 10 7 13 26 10 4 0 10 4 13 10 15 24 213 31 294 11 71 -18 139
-52 125 -63 -9 -6 -8 -7 4 -3 19 6 88 -30 88 -45 0 -5 6 -9 13 -9 18 0 49 -35
40 -44 -4 -4 -1 -4 8 -1 14 5 111 -89 179 -174 14 -17 32 -39 42 -48 9 -9 14
-23 10 -31 -3 -9 -1 -13 5 -9 6 4 16 0 23 -8 16 -19 30 -18 57 4 46 38 40 62
-33 147 -216 253 -385 367 -597 404 -56 10 -96 19 -88 19 8 1 11 4 8 7 -4 4
-12 2 -19 -4 -7 -6 -33 -13 -58 -16 -93 -13 -148 -30 -241 -75 l-96 -46 2 65
c1 36 5 78 9 95 16 66 173 328 193 321 7 -3 10 1 7 8 -6 17 65 107 160 202 77
77 66 73 225 89 75 8 235 70 296 114 27 21 57 42 66 47 9 5 40 36 68 69 113
132 157 296 125 469 -16 85 -79 196 -169 296 -17 19 -31 40 -30 45 1 6 7 44
14 85 18 101 6 284 -23 338 -8 15 -24 49 -37 75 -23 46 -151 198 -166 196 -4
0 -10 8 -14 18 -4 10 -8 15 -8 11 -1 -3 -33 9 -71 28 -39 19 -72 34 -75 34 -2
0 -16 5 -32 11 -34 14 -31 13 -173 39 -147 26 -409 25 -540 -2 -47 -10 -94
-20 -105 -22 -11 -3 -37 -12 -57 -20 -21 -9 -38 -13 -38 -9 0 5 -4 4 -8 -2 -4
-5 -34 -23 -67 -39 -132 -62 -302 -202 -374 -308 l-23 -33 -134 -2 -134 -2 -1
27 c0 15 -2 34 -4 42 -2 8 -6 25 -9 37 -7 33 -76 224 -92 256 -8 15 -11 27 -7
27 5 0 3 4 -2 8 -6 4 -23 32 -39 64 -37 71 -136 210 -199 278 -26 28 -44 56
-41 62 4 7 2 8 -4 4 -7 -4 -34 13 -64 41 -130 120 -231 189 -398 273 -155 78
-364 156 -446 166 -11 1 -38 7 -60 12 -49 13 -122 22 -200 26 -32 2 -66 6 -75
10 -8 4 -17 5 -20 2z m116 -719 c11 -3 25 -6 30 -7 6 -1 1 -5 -10 -10 -13 -6
-15 -9 -5 -9 8 0 21 3 28 8 15 9 119 -16 203 -49 86 -34 192 -102 177 -112 -9
-7 -8 -8 5 -4 22 7 87 -39 87 -61 0 -9 6 -13 14 -10 22 9 153 -135 204 -223
50 -86 84 -162 79 -180 -3 -11 -1 -18 3 -15 9 6 23 -33 39 -110 7 -33 10 -404
9 -1097 l-1 -1048 -67 0 c-49 0 -69 4 -73 14 -3 8 -6 87 -6 175 0 89 -3 165
-5 170 -3 4 -2 31 3 60 4 28 5 54 0 56 -4 3 -6 27 -3 53 2 26 3 99 3 162 0 63
0 279 0 480 -1 201 -1 422 0 492 3 211 -7 410 -23 466 -8 28 -12 52 -9 52 3 0
1 6 -5 13 -6 6 -10 14 -9 17 0 3 -18 43 -41 88 -54 109 -147 219 -247 293 -44
33 -84 63 -90 67 -5 4 -30 16 -55 27 -25 11 -48 24 -52 30 -4 5 -8 7 -8 2 0
-4 -17 0 -37 9 -43 18 -40 17 -143 34 -80 14 -272 17 -330 6 -19 -4 -46 -10
-60 -12 -14 -3 -34 -6 -45 -7 -11 0 -22 -4 -25 -9 -3 -4 -15 -9 -25 -11 -11
-2 -41 -13 -68 -25 -26 -12 -49 -20 -50 -19 -2 1 -11 -6 -21 -15 -10 -10 -24
-18 -32 -18 -8 0 -14 -4 -14 -10 0 -5 -7 -10 -15 -10 -7 0 -18 -6 -22 -14 -4
-7 -24 -24 -44 -37 -31 -22 -92 -85 -154 -160 -42 -51 -114 -213 -125 -284
-23 -142 -25 -229 -25 -1172 l0 -963 -66 0 -66 0 1 1058 c1 581 5 1071 8 1089
14 64 49 172 58 178 6 3 10 14 10 23 0 31 114 195 186 267 90 92 147 137 155
124 3 -6 8 -2 11 8 8 28 285 163 302 146 3 -3 11 -1 18 4 13 10 72 22 142 29
22 3 41 6 43 8 5 5 235 -1 258 -7z m-195 -1597 l0 -1330 -165 0 -165 0 0 1292
0 1291 41 19 c23 10 52 18 65 18 13 0 24 4 24 10 0 5 10 10 23 10 12 0 42 4
67 8 25 5 60 10 78 11 l32 1 0 -1330z m3063 1323 c5 -3 28 -7 50 -8 178 -13
331 -63 423 -138 19 -16 31 -33 28 -39 -4 -7 -2 -8 5 -4 6 4 14 0 17 -11 3
-10 10 -27 15 -38 8 -17 8 -16 4 5 l-6 25 22 -25 c48 -54 98 -199 99 -284 1
-100 -46 -263 -64 -223 -3 6 -3 1 0 -12 4 -13 32 -49 63 -79 31 -30 47 -48 36
-41 -18 13 -19 13 -6 -3 7 -10 17 -15 21 -13 13 8 55 -52 90 -127 41 -88 52
-216 25 -299 -47 -147 -189 -278 -354 -328 -79 -24 -214 -45 -239 -37 -11 4
-31 -4 -52 -21 -51 -41 -162 -145 -180 -168 -8 -11 -25 -30 -37 -41 -13 -12
-23 -24 -23 -27 0 -7 -100 -158 -110 -167 -4 -3 -12 -20 -19 -38 -8 -18 -16
-34 -20 -36 -3 -2 -7 39 -9 92 -1 54 -4 135 -7 181 -3 77 -1 93 37 205 50 150
150 363 186 395 15 13 21 20 15 17 -7 -4 -13 -3 -13 2 0 13 115 184 148 220
17 18 28 32 25 32 -2 0 10 17 27 38 l31 37 -31 28 c-23 20 -37 26 -53 21 -12
-3 -22 -7 -23 -8 0 0 -21 -26 -46 -56 -66 -80 -158 -220 -218 -335 -61 -115
-65 -120 -58 -83 3 15 1 25 -3 22 -5 -3 -10 37 -10 88 -1 51 -3 102 -4 113 -4
36 -36 139 -56 177 -11 21 -17 38 -14 38 3 0 -5 10 -16 21 -15 15 -18 24 -10
29 7 3 -3 7 -21 7 -22 0 -41 -8 -55 -24 -28 -30 -29 -53 -3 -85 10 -14 31 -61
46 -104 26 -73 28 -91 28 -247 1 -131 -2 -170 -13 -176 -9 -6 -10 -11 -2 -15
6 -4 11 -21 11 -39 0 -30 -1 -30 -47 32 -51 68 -143 164 -198 205 -18 14 -39
32 -47 39 -7 7 -49 36 -93 65 -44 29 -85 56 -90 61 -26 20 -75 -23 -75 -66 0
-17 32 -53 46 -53 6 0 86 -54 114 -76 8 -7 41 -34 72 -59 63 -50 89 -85 64
-85 -8 0 -18 9 -21 21 -4 11 -9 18 -12 16 -2 -3 1 -15 7 -27 8 -16 18 -20 34
-16 17 4 30 -3 53 -27 45 -47 144 -193 136 -201 -3 -3 -2 -6 4 -6 30 0 56
-183 44 -300 -2 -14 0 -36 4 -50 6 -24 6 -24 -10 3 -9 15 -13 32 -10 37 3 5 0
7 -8 4 -20 -7 -33 16 -16 28 11 8 11 9 -1 5 -10 -3 -42 28 -95 93 -121 147
-261 243 -375 257 -19 2 -39 8 -45 12 -5 4 -32 14 -60 20 -101 25 -255 131
-241 167 3 7 0 13 -6 11 -22 -4 -78 118 -85 185 -24 229 25 363 196 541 30 31
59 57 64 57 5 0 18 11 28 25 11 13 25 22 32 19 9 -3 11 22 9 105 -2 60 2 127
7 148 19 72 194 231 319 291 83 40 237 88 292 91 8 0 60 4 115 9 117 10 206
12 218 5z m-2784 -28 c30 -9 68 -24 85 -33 l31 -17 0 -1287 0 -1286 -137 -1
c-76 -1 -138 2 -139 6 -3 27 -4 2583 -1 2610 l4 34 52 -5 c28 -3 75 -12 105
-21z m-720 -702 l1 -551 -156 -1 -155 -2 4 338 c2 186 6 355 9 375 8 48 48
168 57 168 4 0 12 15 19 33 14 37 88 123 103 119 6 -1 8 1 5 6 -5 8 13 29 69
77 27 24 30 25 36 8 4 -10 8 -266 8 -570z m1081 444 c0 -5 14 -22 31 -39 23
-23 27 -33 17 -39 -10 -7 -10 -11 1 -21 10 -10 12 -10 7 0 -4 6 -3 12 1 12 10
0 48 -74 71 -140 15 -40 17 -161 19 -1091 l4 -1047 -136 -1 -135 -2 0 1217 c0
822 4 1221 11 1230 7 8 7 14 -1 19 -5 3 -10 12 -10 18 0 13 119 -103 120 -116z
m-1145 -1118 c11 0 30 3 43 6 l22 5 0 -624 0 -624 -22 -6 c-13 -3 -83 -6 -155
-6 l-133 0 0 628 0 627 112 -3 c62 -2 122 -3 133 -3z"/>
<path d="M2275 6201 c-38 -3 -77 -11 -86 -16 -37 -22 -110 -97 -129 -133 -11
-20 -24 -44 -29 -52 -55 -95 -93 -310 -64 -365 6 -11 8 -26 6 -32 -3 -7 0 -13
6 -13 6 0 11 -4 11 -10 0 -11 62 -103 73 -108 4 -2 7 -8 7 -13 0 -6 -5 -7 -12
-3 -7 5 -8 3 -4 -5 5 -7 10 -10 13 -7 3 2 15 -7 28 -22 16 -18 20 -32 15 -43
-7 -12 -4 -15 13 -15 17 1 35 -18 75 -79 29 -44 50 -85 47 -93 -2 -7 0 -10 5
-7 10 6 96 -157 104 -197 18 -95 82 -126 130 -64 14 19 26 38 26 42 0 4 11 22
25 40 14 18 25 36 25 40 0 3 17 32 38 63 20 31 48 78 62 104 14 27 32 56 40
65 8 9 21 29 29 45 8 15 18 27 23 27 4 0 8 6 8 13 0 16 99 147 116 154 8 3 14
10 14 17 0 40 234 213 312 231 13 2 36 8 52 11 23 6 27 4 21 -7 -6 -11 -5 -12
6 -1 17 16 62 15 103 -2 29 -12 34 -20 40 -59 7 -45 -12 -107 -33 -107 -4 0
-13 -11 -19 -25 -10 -21 -144 -130 -161 -130 -3 0 -19 -10 -36 -21 -16 -12
-48 -30 -70 -42 -22 -11 -65 -36 -95 -56 -30 -20 -60 -36 -66 -36 -7 0 -14 -3
-16 -7 -1 -5 -19 -21 -38 -36 -62 -50 -160 -150 -203 -207 -23 -30 -45 -57
-50 -58 -4 -2 -5 -8 -1 -13 3 -5 0 -9 -5 -9 -6 0 -11 -6 -11 -14 0 -8 -15 -37
-34 -65 -19 -28 -32 -51 -29 -51 3 0 0 -8 -8 -17 -8 -10 -21 -30 -29 -45 -7
-16 -17 -28 -22 -28 -4 0 -8 -7 -8 -15 0 -8 -4 -15 -9 -15 -12 0 -30 -48 -33
-88 -2 -32 -18 -58 -18 -29 0 7 -12 37 -26 67 -14 29 -26 61 -27 71 -1 10 -4
16 -8 13 -4 -2 -42 67 -84 153 -42 87 -80 160 -84 163 -3 3 -17 19 -29 35 -48
64 -69 88 -117 139 -28 29 -63 61 -78 71 -15 10 -26 24 -23 31 3 9 0 11 -11 7
-11 -4 -14 -3 -9 6 4 6 3 10 -1 9 -5 -2 -54 25 -109 59 -147 92 -269 132 -344
112 -32 -9 -81 -64 -93 -107 -19 -65 9 -179 76 -309 15 -29 27 -59 27 -68 0
-8 4 -15 8 -15 4 0 16 -21 26 -47 18 -46 19 -71 4 -66 -5 2 -8 -2 -8 -7 0 -6
6 -10 14 -10 8 0 18 -10 22 -22 11 -35 25 -43 79 -44 28 0 75 -3 105 -6 30 -4
83 -10 118 -13 34 -4 62 -11 62 -16 0 -5 6 -6 14 -3 29 11 276 -94 276 -118 0
-6 3 -9 6 -5 4 3 14 -1 23 -9 40 -36 81 -80 81 -86 0 -5 -136 -8 -302 -9 -167
0 -311 -2 -322 -4 -29 -6 -84 -65 -97 -104 -13 -40 -18 -220 -6 -228 4 -2 7
-16 6 -31 -1 -33 43 -183 76 -257 13 -29 21 -55 19 -58 -3 -2 2 -10 11 -17 8
-7 15 -21 15 -31 0 -11 5 -19 10 -19 6 0 10 -4 10 -9 0 -6 -169 -10 -432 -10
l-432 0 -17 -22 c-19 -25 -15 -50 11 -74 17 -16 137 -17 1564 -17 850 0 1559
3 1576 7 27 6 30 10 30 46 0 34 -5 42 -42 69 -69 49 -190 143 -212 165 -12 11
-23 20 -26 20 -7 0 -89 57 -111 78 -11 9 -21 17 -23 17 -3 0 -24 13 -48 29
-24 16 -53 32 -65 35 -13 4 -23 11 -23 15 0 4 -6 8 -12 8 -7 1 -34 4 -59 8
-25 4 -70 2 -101 -4 -51 -11 -152 -63 -195 -102 -36 -31 -103 -111 -103 -123
0 -27 13 -55 23 -49 6 4 8 0 5 -8 -4 -11 2 -14 25 -13 22 2 42 15 71 47 40 44
114 105 152 125 30 16 100 24 120 14 108 -52 151 -79 247 -150 184 -137 227
-122 -334 -121 -266 0 -490 4 -497 8 -10 6 -6 22 17 68 17 33 31 64 31 68 0 4
7 21 15 38 30 66 54 135 48 141 -3 3 -1 11 5 19 11 13 13 23 31 147 13 88 0
171 -33 207 -14 14 -22 31 -19 36 3 6 1 7 -5 3 -7 -4 -12 -3 -12 2 0 24 -60
34 -207 33 -165 -2 -165 -2 -130 53 10 15 23 24 29 20 7 -4 8 -3 4 4 -8 14 61
66 124 93 25 11 52 23 60 28 15 8 126 44 145 47 6 0 18 4 27 8 9 4 21 5 27 2
5 -3 22 -1 38 5 16 6 97 12 184 13 169 2 209 13 209 57 0 11 4 18 9 14 6 -3 7
6 2 22 -4 16 -9 52 -10 82 -1 30 -4 57 -7 60 -8 8 -82 7 -90 -2 -4 -3 -9 -29
-12 -57 -5 -57 3 -53 -127 -55 -79 -1 -180 -13 -252 -30 -51 -11 -60 -14 -95
-29 -21 -9 -38 -13 -38 -9 0 5 -4 3 -8 -2 -10 -15 -92 -45 -92 -34 0 5 7 12
15 15 8 4 15 11 15 16 0 22 77 116 157 193 89 84 210 171 309 221 32 16 64 35
72 42 12 11 35 16 55 13 5 -1 6 2 3 7 -3 5 15 24 40 42 64 46 154 142 154 164
0 3 5 17 11 33 15 36 11 125 -6 166 -16 37 -57 78 -102 101 -47 23 -174 21
-257 -4 -36 -12 -68 -20 -71 -20 -3 0 -11 -4 -18 -10 -26 -21 -119 -80 -128
-80 -5 0 -9 -3 -9 -8 0 -9 -111 -98 -119 -95 -4 1 -7 -7 -8 -17 -1 -10 -25
-47 -53 -82 -45 -55 -107 -141 -161 -224 -9 -13 -18 -26 -21 -29 -3 -3 -6 72
-7 167 -1 95 -6 215 -12 266 -18 167 -89 341 -167 413 -26 24 -46 47 -44 52 1
4 1 6 0 5 -2 -1 -34 -4 -73 -7z m44 -126 c7 -4 10 -13 8 -19 -3 -7 -1 -19 5
-27 8 -11 9 -10 4 4 -3 9 -2 17 3 17 13 0 73 -139 67 -156 -3 -8 -2 -13 3 -9
8 4 36 -98 40 -145 9 -107 8 -226 -2 -239 -7 -8 -7 -12 -2 -9 15 9 18 -334 3
-383 l-11 -39 -53 107 c-29 60 -78 146 -108 192 -31 46 -56 87 -56 92 0 4 -7
9 -15 13 -8 3 -15 12 -15 21 0 8 -4 15 -9 15 -5 0 -27 29 -50 64 -33 51 -43
76 -50 132 -5 38 -6 73 -3 78 3 5 6 23 8 39 1 16 20 66 43 112 62 126 131 177
190 140z m-680 -684 c35 -16 72 -36 83 -45 11 -10 29 -21 41 -27 56 -25 171
-125 161 -140 -3 -5 -2 -9 3 -8 22 4 35 -2 30 -15 -6 -15 16 -40 25 -30 12 12
94 -84 137 -159 12 -23 29 -49 35 -57 7 -8 18 -30 26 -47 7 -18 17 -33 23 -33
6 0 8 -2 5 -5 -3 -3 -26 5 -50 18 -53 28 -59 30 -193 67 -44 12 -98 23 -120
25 -22 2 -69 7 -105 11 -36 4 -69 8 -74 8 -4 1 -20 30 -35 66 -15 36 -44 101
-65 145 -71 146 -77 164 -72 195 10 68 45 75 145 31z m1203 -959 c19 -18 23
-33 22 -80 -1 -51 -8 -118 -15 -132 -1 -3 -3 -9 -4 -15 -6 -39 -19 -82 -27
-92 -6 -7 -7 -13 -4 -13 4 0 4 -6 -1 -12 -4 -7 -9 -21 -10 -31 -6 -36 -63
-148 -73 -142 -5 3 -7 0 -4 -9 9 -23 -26 -87 -53 -97 -13 -5 -200 -8 -416 -6
l-392 2 -42 80 c-23 44 -39 83 -37 87 3 5 1 8 -4 8 -9 0 -39 88 -34 103 1 4
-3 7 -8 7 -6 0 -10 6 -9 13 1 6 0 19 -3 27 -15 37 -28 140 -28 210 0 76 9 102
40 113 8 3 255 5 547 4 l532 -2 23 -23z"/>
<path d="M1309 4210 c-36 -3 -65 -12 -78 -24 -24 -22 -89 -139 -116 -209 -17
-44 -17 -49 -1 -65 9 -10 14 -21 12 -23 -3 -3 7 -5 23 -4 37 0 53 19 105 117
l44 83 120 5 c124 5 152 15 152 52 0 11 4 16 11 12 8 -4 8 0 0 15 -6 11 -21
26 -34 33 -24 13 -147 17 -238 8z"/>
<path d="M4833 3855 c-29 -7 -53 -10 -53 -8 0 6 -100 -47 -143 -75 -21 -14
-61 -49 -90 -78 -28 -29 -56 -50 -61 -47 -5 3 -6 1 -3 -5 4 -5 -9 -30 -29 -54
-83 -99 -99 -107 -209 -102 -39 2 -79 -1 -90 -5 -74 -30 -116 -54 -157 -91
-28 -24 -53 -38 -59 -34 -8 4 -9 3 -5 -4 4 -6 -13 -31 -38 -56 -66 -67 -166
-206 -166 -231 0 -20 29 -70 30 -51 0 5 6 4 13 -2 22 -18 167 -36 287 -34 8 0
89 -4 180 -9 91 -5 217 -11 280 -14 134 -6 413 -6 485 1 64 6 133 13 165 18
14 2 31 -1 38 -7 7 -5 15 -7 19 -3 3 3 1 6 -6 6 -30 0 3 18 45 25 42 6 104 35
131 61 6 6 15 28 18 48 4 20 11 38 15 41 8 5 -48 126 -73 158 -20 24 -75 12
-90 -20 -7 -16 -7 -27 -1 -31 13 -9 39 -92 35 -112 -4 -21 -15 -26 -83 -40
-83 -16 -159 -23 -265 -24 -50 -1 -90 -3 -88 -6 10 -16 -589 8 -915 36 -19 1
-42 3 -52 3 -13 1 -9 9 15 37 75 86 136 144 203 191 37 27 120 31 359 19 279
-14 463 -9 597 15 31 5 60 9 65 7 13 -3 92 12 193 38 52 14 104 27 116 29 11
3 52 20 91 39 84 41 149 105 164 159 11 41 4 117 -11 117 -5 0 -11 9 -15 19
-3 11 -25 29 -48 42 -66 34 -91 37 -452 42 -209 3 -305 1 -342 -8z m657 -115
c29 -3 70 -22 65 -30 -3 -5 -1 -11 5 -15 5 -3 10 1 10 10 0 9 4 13 10 10 13
-8 5 -64 -11 -80 -18 -16 -133 -76 -156 -80 -10 -2 -20 -4 -23 -5 -3 -1 -9 -2
-14 -1 -4 1 -14 -3 -20 -8 -7 -6 -32 -13 -57 -16 -24 -3 -55 -9 -69 -15 -21
-8 -99 -18 -305 -40 -58 -6 -433 -4 -429 2 3 5 12 8 20 8 8 0 13 4 10 9 -6 10
155 181 170 181 6 0 19 8 30 18 25 23 70 41 118 47 22 3 42 8 45 11 5 5 555
-1 601 -6z"/>
<path d="M6078 3662 c-28 -24 -28 -41 -1 -73 7 -9 11 -18 9 -20 -2 -2 709 -4
1580 -4 873 0 1584 4 1584 9 0 4 7 5 16 2 8 -3 12 -2 9 3 -3 5 -1 12 5 16 17
11 11 41 -13 63 l-23 22 -1569 2 -1569 3 -28 -23z"/>
<path d="M6142 3382 c-12 -8 -22 -19 -22 -24 0 -14 -27 -38 -34 -31 -3 4 -6
-5 -5 -18 0 -13 3 -18 6 -11 9 22 22 12 42 -33 21 -47 24 -50 81 -59 21 -4 30
-3 22 3 -11 7 -11 10 0 22 20 21 22 94 3 123 -23 35 -64 47 -93 28z"/>
<path d="M7364 3246 c-3 -13 -15 -33 -27 -43 -12 -11 -32 -31 -44 -44 -48 -53
-81 -68 -158 -71 -43 -1 -70 4 -81 15 -16 15 -61 6 -80 -16 -25 -29 -17 -53
29 -84 76 -53 203 -48 287 10 56 38 134 110 139 128 15 51 12 68 -13 84 -14 9
-30 14 -36 10 -5 -3 -10 -1 -10 4 0 6 7 11 16 11 8 0 12 5 9 10 -11 17 -24 11
-31 -14z"/>
<path d="M2785 3212 c-16 -2 -37 -6 -45 -9 -8 -3 -22 -6 -30 -5 -10 1 -11 0
-3 -4 9 -4 10 -11 3 -25 -8 -14 -7 -27 4 -48 8 -15 13 -30 11 -33 -2 -2 9 -5
26 -6 16 -1 46 -9 67 -16 68 -26 91 -28 122 -9 17 9 33 26 36 36 7 23 -20 65
-52 79 -13 6 -24 14 -24 17 0 3 -17 7 -37 9 -20 1 -39 6 -43 10 -3 4 -18 6
-35 4z"/>
<path d="M4749 2798 c-13 -18 -26 -35 -29 -38 -3 -3 -14 -21 -24 -40 -10 -19
-48 -77 -83 -127 -34 -51 -63 -95 -63 -98 0 -2 -16 -29 -35 -59 -37 -58 -43
-91 -22 -119 11 -16 76 -17 875 -18 656 0 862 -3 862 -12 0 -8 3 -8 9 1 5 9
28 13 72 12 218 -5 348 0 363 16 9 8 21 12 27 8 8 -5 9 -3 3 7 -5 8 -9 21 -9
30 0 10 -36 68 -79 130 -163 234 -206 298 -206 304 0 4 -6 13 -14 21 -12 12
-135 14 -820 14 l-805 0 -22 -32z m1606 -125 c19 -27 35 -53 35 -60 0 -6 4
-13 8 -15 7 -3 106 -141 126 -175 5 -10 -199 -13 -945 -13 -765 0 -950 2 -942
12 5 7 51 77 102 155 l93 142 744 1 744 0 35 -47z"/>
<path d="M2031 2719 c-13 -5 -26 -7 -29 -5 -8 8 -42 -40 -42 -59 0 -36 33 -73
69 -80 20 -4 39 -9 44 -12 13 -8 117 -10 122 -2 3 4 15 5 28 2 18 -4 19 -3 7
6 -9 6 -10 11 -3 11 6 0 16 13 21 29 9 26 7 33 -13 55 -26 28 -64 47 -105 51
-14 2 -36 6 -50 9 -14 3 -36 1 -49 -5z"/>
</g>
</svg>
