<?xml version="1.0" standalone="no"?>
<!DOCTYPE svg PUBLIC "-//W3C//DTD SVG 20010904//EN"
 "http://www.w3.org/TR/2001/REC-SVG-20010904/DTD/svg10.dtd">
<svg version="1.0" xmlns="http://www.w3.org/2000/svg"
 width="1024.000000pt" height="1024.000000pt" viewBox="0 0 1024.000000 1024.000000"
 preserveAspectRatio="xMidYMid meet">
<metadata>
Created by potrace 1.16, written by Peter Selinger 2001-2019
</metadata>
<g transform="translate(0.000000,1024.000000) scale(0.100000,-0.100000)"
fill="#000000" stroke="none">
<path d="M4940 8934 c-19 -2 -93 -11 -163 -20 -216 -26 -459 -94 -672 -186
-670 -293 -1202 -894 -1390 -1573 -41 -151 -41 -149 -67 -303 l-22 -127 -3
-2306 -3 -2306 -138 -111 c-75 -60 -218 -177 -317 -259 -171 -141 -180 -150
-183 -187 -4 -49 27 -86 73 -86 25 0 54 20 147 98 317 267 633 525 644 525 7
0 11 4 9 8 -7 10 166 149 177 143 5 -3 7 -1 6 4 -2 5 83 81 187 168 105 87
296 247 426 355 215 179 237 195 254 183 32 -24 127 -55 210 -70 65 -11 249
-14 990 -14 503 0 942 5 982 10 39 5 98 19 130 31 32 11 68 22 80 22 11 1 19
5 17 9 -2 4 5 9 16 13 16 5 45 -14 126 -82 141 -117 175 -147 147 -134 -16 8
-22 7 -26 -2 -3 -9 4 -12 25 -11 26 2 64 -26 259 -188 129 -107 226 -195 222
-201 -3 -6 -1 -7 6 -3 14 9 376 -283 376 -304 0 -5 4 -12 9 -17 5 -5 6 -3 2 5
-8 14 10 17 19 2 3 -5 99 -86 213 -179 114 -93 261 -214 327 -270 129 -108
152 -117 199 -80 20 16 26 29 26 59 0 34 -6 44 -52 84 -49 41 -295 242 -495
404 l-83 67 0 2226 c0 1434 -4 2264 -10 2330 -69 699 -383 1284 -923 1720
-444 358 -951 540 -1542 553 -99 3 -196 2 -215 0z m570 -188 c506 -88 952
-324 1314 -695 79 -82 87 -93 75 -108 -13 -16 -12 -17 3 -5 15 12 25 2 92 -85
71 -91 90 -123 66 -108 -6 3 -7 -1 -3 -10 4 -11 8 -13 13 -5 8 13 42 -36 115
-170 106 -194 193 -422 235 -615 50 -235 50 -213 50 -2538 l0 -2168 -167 139
c-93 76 -195 160 -229 188 -133 108 -444 362 -522 427 -76 63 -82 70 -65 82
10 7 22 11 27 8 5 -4 6 -1 3 4 -4 6 11 38 33 71 48 71 74 143 90 243 8 54 10
547 8 1834 -3 1956 3 1790 -70 1942 -48 101 -176 226 -288 282 -150 74 -122
72 -1211 68 -893 -3 -968 -4 -1024 -21 -228 -68 -403 -255 -449 -479 -14 -67
-16 -278 -16 -1831 0 -1720 0 -1757 20 -1841 23 -97 43 -142 107 -233 l44 -64
-28 -21 c-16 -12 -68 -56 -118 -97 -407 -341 -485 -401 -504 -390 -25 13 -31
13 -31 -1 0 -5 4 -8 8 -5 4 2 14 1 21 -3 8 -5 -42 -54 -158 -149 -93 -78 -171
-142 -173 -142 -1 0 -1 1009 2 2242 l5 2243 23 120 c49 253 100 412 202 620
113 232 252 428 440 615 354 355 800 583 1291 659 188 29 191 29 419 26 164
-3 234 -8 350 -29z m646 -1401 c68 -25 194 -108 194 -126 0 -6 -4 -7 -10 -4
-5 3 -10 1 -10 -5 0 -6 8 -10 17 -8 24 4 87 -83 115 -161 l23 -66 3 -1754 c1
-1164 -1 -1773 -8 -1810 -30 -163 -141 -291 -306 -353 l-59 -23 -955 -3 c-609
-2 -979 1 -1020 7 -146 23 -279 123 -344 261 l-31 65 0 1820 0 1820 23 60 c26
69 88 159 103 150 5 -4 8 -1 7 6 -5 22 118 107 185 128 60 19 95 20 1034 20
l973 1 66 -25z"/>
<path d="M5007 5578 c-240 -244 -444 -455 -452 -470 -27 -50 1 -102 63 -114
30 -6 44 7 474 441 244 246 449 460 456 477 23 55 -16 107 -81 108 -16 0 -143
-121 -460 -442z"/>
<path d="M5142 5048 c-139 -139 -258 -264 -263 -277 -20 -50 45 -112 103 -98
14 4 130 113 276 262 228 230 252 258 252 288 0 44 -35 77 -80 77 -30 0 -57
-23 -288 -252z"/>
</g>
</svg>
