<?xml version="1.0" standalone="no"?>
<!DOCTYPE svg PUBLIC "-//W3C//DTD SVG 20010904//EN"
 "http://www.w3.org/TR/2001/REC-SVG-20010904/DTD/svg10.dtd">
<svg version="1.0" xmlns="http://www.w3.org/2000/svg"
 width="1024.000000pt" height="1024.000000pt" viewBox="0 0 1024.000000 1024.000000"
 preserveAspectRatio="xMidYMid meet">
<metadata>
Created by potrace 1.16, written by Peter Selinger 2001-2019
</metadata>
<g transform="translate(0.000000,1024.000000) scale(0.100000,-0.100000)"
fill="#000000" stroke="none">
<path d="M7415 8290 c-16 -4 -57 -16 -90 -28 -33 -11 -63 -18 -67 -16 -5 3 -8
0 -8 -5 0 -6 -7 -11 -15 -11 -8 0 -81 -22 -162 -50 -81 -27 -156 -50 -168 -50
-12 0 -26 -5 -33 -12 -7 -7 -12 -8 -12 -4 0 5 -6 4 -12 -2 -12 -9 -217 -78
-256 -86 -9 -1 -25 -6 -34 -10 -9 -4 -22 -8 -30 -10 -7 -1 -19 -5 -25 -9 -7
-5 -13 -5 -13 -1 0 3 -6 2 -13 -4 -7 -6 -24 -13 -37 -16 -14 -2 -63 -18 -110
-34 -123 -43 -291 -95 -306 -95 -8 0 -14 -3 -14 -7 0 -3 -21 -12 -48 -18 -35
-10 -53 -21 -71 -47 -54 -79 -53 -61 -49 -839 1 -397 5 -778 8 -848 l5 -127
-32 25 c-18 14 -33 21 -33 17 0 -4 -4 -2 -8 4 -5 7 -46 22 -92 34 -88 22 -161
21 -275 -4 -25 -6 -158 -70 -177 -86 -57 -47 -76 -59 -82 -53 -4 4 -6 0 -4 -8
2 -8 -2 -14 -8 -13 -6 1 -11 -3 -11 -10 0 -7 -13 -32 -30 -57 -75 -114 -99
-240 -68 -360 9 -36 17 -73 18 -82 1 -9 3 -15 5 -13 9 8 53 -55 46 -66 -4 -7
-3 -9 3 -6 6 4 19 -3 29 -14 25 -28 89 -70 142 -93 30 -14 39 -22 30 -28 -9
-5 -10 -8 -1 -8 6 0 15 4 18 10 4 6 20 4 43 -6 46 -20 199 -22 262 -3 25 7 48
13 53 15 4 1 9 3 12 4 3 1 8 3 13 4 4 2 34 15 67 31 33 16 65 29 72 28 7 0 11
3 10 7 -1 4 22 31 51 60 51 51 101 133 117 195 5 17 10 37 13 45 3 8 4 333 3
722 l-3 707 34 15 c18 9 92 33 163 55 72 22 225 70 340 107 116 37 227 67 247
67 21 1 33 4 27 8 -6 3 0 9 13 12 34 10 40 8 33 -5 -4 -7 0 -5 9 6 9 11 22 16
31 12 9 -3 14 -2 11 3 -3 4 36 20 87 35 51 15 143 44 205 63 61 20 114 34 117
31 3 -2 6 -209 7 -459 3 -391 1 -453 -11 -441 -15 15 -61 36 -73 34 -5 -1 -8
2 -8 6 0 5 -6 9 -12 10 -15 1 -37 7 -58 15 -8 3 -23 6 -32 6 -175 5 -201 0
-326 -62 -76 -38 -147 -103 -200 -185 -22 -34 -42 -59 -45 -56 -3 3 -5 -1 -4
-8 2 -21 -15 -88 -22 -88 -3 0 -6 -49 -6 -109 0 -60 3 -104 7 -98 7 11 12 -7
11 -40 -1 -7 4 -13 9 -13 5 0 7 -10 4 -22 -3 -13 -3 -17 0 -10 4 9 15 -1 32
-30 15 -23 25 -47 24 -51 -1 -5 1 -6 6 -3 5 3 22 -8 38 -25 31 -32 123 -89
152 -94 9 -1 16 -8 14 -15 -1 -6 2 -9 8 -5 5 3 28 1 50 -5 43 -12 261 -19 254
-9 -2 4 21 14 51 23 146 47 271 171 321 321 15 46 16 146 15 1150 -3 1163 -2
1149 -48 1173 -30 15 -66 20 -98 12z m-55 -464 c0 -129 -4 -237 -8 -240 -5 -3
-22 -8 -38 -11 -16 -3 -34 -7 -41 -9 -7 -1 -16 -5 -19 -9 -4 -4 -14 -1 -23 5
-9 7 -13 8 -8 3 10 -12 -135 -65 -147 -54 -13 11 -43 12 -50 0 -3 -4 7 -6 22
-3 15 3 23 1 19 -4 -5 -5 -12 -8 -15 -7 -4 1 -11 -2 -17 -7 -5 -4 -26 -11 -45
-14 -19 -3 -55 -12 -80 -21 -25 -9 -49 -18 -55 -19 -5 -2 -21 -8 -35 -13 -24
-10 -81 -24 -97 -25 -5 0 -14 -4 -20 -10 -7 -6 -13 -8 -13 -4 0 3 -36 -8 -80
-24 -44 -16 -80 -27 -80 -25 0 3 -24 -4 -52 -15 -29 -11 -59 -20 -66 -20 -8 0
-28 -6 -45 -14 -35 -14 -180 -56 -197 -56 -6 0 -8 5 -4 12 4 7 3 8 -5 4 -6 -4
-9 -11 -6 -16 3 -5 -7 -12 -22 -16 -15 -4 -34 -11 -40 -17 -7 -5 -13 -6 -13
-1 0 4 -5 3 -12 -4 -7 -7 -16 -12 -20 -12 -5 0 -7 102 -6 226 l3 226 50 20
c66 25 85 31 117 32 14 0 24 3 22 5 -13 14 185 74 241 74 24 -1 33 2 22 6 -12
4 20 19 98 45 64 21 123 35 131 32 9 -3 12 -1 9 4 -3 6 -2 10 4 10 5 0 22 5
38 11 15 6 30 11 33 11 3 0 36 11 73 25 38 13 75 22 83 19 8 -3 13 -2 10 2 -3
5 34 21 82 36 48 15 94 30 102 32 8 3 16 6 17 6 1 0 39 13 85 28 46 16 86 29
91 29 4 1 7 -104 7 -233z m-165 -1526 c59 -19 109 -47 135 -75 30 -32 41 -115
25 -180 -7 -25 -10 -45 -9 -45 2 0 -4 -9 -13 -19 -9 -11 -20 -18 -24 -15 -4 2
-5 -4 -2 -14 7 -29 -65 -81 -173 -122 -17 -6 -62 -10 -100 -9 -91 4 -190 51
-228 109 -17 25 -22 40 -14 40 10 0 10 2 -1 9 -7 5 -14 30 -16 59 -5 104 85
225 192 257 73 22 64 20 131 19 31 0 75 -6 97 -14z m-1529 -477 c82 -26 105
-37 99 -51 -3 -7 -1 -10 5 -7 11 7 72 -29 63 -38 -3 -4 -1 -7 5 -7 7 0 9 -23
6 -67 -5 -88 -6 -89 -36 -148 -29 -57 -62 -90 -78 -80 -6 3 -9 1 -8 -6 2 -7
-19 -26 -47 -41 -41 -23 -59 -28 -98 -25 -29 3 -43 1 -35 -4 8 -6 -5 -9 -34
-9 -27 0 -48 4 -48 9 0 4 -11 6 -26 3 -30 -5 -106 26 -97 41 3 6 1 7 -6 3 -17
-11 -64 22 -57 40 3 9 1 12 -4 9 -19 -12 -42 66 -38 125 7 82 39 140 105 189
34 25 63 39 72 36 8 -3 12 -3 8 1 -14 14 76 40 139 41 34 1 84 -6 110 -14z"/>
<path d="M2731 6303 c-6 -10 -11 -14 -11 -10 0 4 -8 4 -17 -1 -10 -6 -54 -13
-98 -16 -73 -6 -149 -20 -185 -33 -8 -4 -28 -8 -43 -10 -15 -2 -69 -18 -120
-35 -51 -16 -96 -31 -102 -33 -5 -2 -21 -6 -35 -11 -14 -4 -27 -6 -29 -5 -2 2
-7 -1 -10 -6 -3 -5 -49 -26 -101 -48 -52 -21 -112 -49 -132 -62 -21 -13 -38
-20 -38 -16 0 5 -4 3 -8 -3 -4 -6 -47 -35 -97 -64 -49 -30 -100 -64 -112 -77
-29 -28 -30 -81 -4 -114 10 -13 19 -28 19 -32 0 -5 4 -12 8 -15 4 -4 3 -1 -1
7 -6 11 -4 13 11 6 30 -12 74 -6 103 14 14 10 44 29 66 41 116 65 149 81 163
75 9 -3 13 -3 9 1 -7 7 61 53 86 58 7 2 20 6 30 11 9 4 24 4 33 1 8 -3 13 -2
10 3 -6 10 102 55 159 67 6 1 51 13 100 28 126 36 247 57 336 59 43 1 75 5 72
10 -7 12 337 15 432 3 129 -16 162 -21 260 -40 74 -15 94 -19 143 -30 119 -27
352 -106 525 -178 67 -27 138 -56 157 -63 60 -23 169 -83 162 -90 -4 -3 1 -3
11 1 11 4 32 -3 55 -18 20 -14 47 -28 60 -32 12 -4 19 -12 16 -18 -4 -6 -2 -8
4 -4 6 3 22 1 35 -5 32 -14 89 11 106 47 24 52 2 126 -41 140 -13 4 -25 10
-28 14 -3 4 -54 31 -115 60 -60 29 -164 78 -230 110 -66 31 -133 60 -148 64
-15 4 -25 11 -22 16 3 6 -1 7 -10 4 -8 -4 -21 -1 -29 5 -8 7 -23 14 -35 16
-11 2 -71 22 -133 44 -62 22 -135 46 -163 52 -27 6 -57 14 -65 17 -43 15 -105
29 -160 37 -64 10 -64 10 -75 17 -9 5 -45 10 -190 24 -33 3 -71 7 -85 8 -14 2
-54 4 -90 5 -36 1 -60 5 -53 9 16 10 -178 4 -257 -8 -35 -6 -71 -7 -80 -3 -10
4 1 9 30 13 l45 7 -42 1 c-31 2 -45 -3 -52 -15z"/>
<path d="M8455 6098 c-65 -51 -122 -93 -127 -93 -5 0 -12 -5 -16 -11 -4 -6
-31 -27 -61 -47 -40 -28 -59 -35 -79 -30 -18 4 -23 3 -18 -6 4 -6 12 -9 17 -6
5 4 9 3 9 -2 0 -7 -125 -90 -160 -106 -8 -4 -28 -16 -45 -27 -16 -11 -42 -25
-57 -31 -16 -6 -28 -14 -28 -19 0 -13 -98 -50 -117 -44 -13 4 -14 3 -5 -4 11
-7 10 -10 -3 -16 -9 -3 -22 -3 -28 1 -7 3 -9 2 -4 -2 12 -14 -92 -65 -122 -60
-22 4 -23 4 -6 -4 19 -8 18 -9 -10 -21 -16 -7 -43 -18 -60 -26 -35 -15 -67
-27 -77 -28 -3 -1 -10 -4 -14 -8 -4 -5 -14 -8 -23 -8 -9 -1 -34 -9 -56 -20
-22 -11 -46 -19 -53 -20 -8 0 -28 -6 -45 -14 -18 -7 -52 -18 -77 -25 -25 -6
-53 -14 -62 -16 -18 -5 -24 -6 -118 -27 -134 -28 -179 -32 -305 -25 -57 4 -61
3 -20 -3 46 -6 43 -7 -33 -8 -53 -1 -81 2 -77 8 3 6 1 10 -4 10 -6 0 -11 -4
-11 -9 0 -11 -135 -2 -175 10 -5 2 -31 -3 -57 -10 -37 -10 -50 -20 -62 -46
-40 -83 4 -137 119 -150 33 -4 71 -9 85 -11 59 -11 346 -4 438 12 53 8 111 18
127 20 17 3 37 7 45 10 29 11 76 18 114 18 22 0 34 2 27 4 -7 2 52 26 131 52
79 27 184 65 234 85 80 34 333 159 409 203 17 9 56 32 88 50 31 19 63 39 70
46 27 27 98 66 109 60 6 -4 8 -3 5 3 -6 10 44 53 63 53 5 0 10 5 10 10 0 6 5
10 10 10 6 0 16 5 23 10 50 43 73 60 78 60 3 0 19 11 35 25 16 14 61 51 101
83 91 73 110 105 93 156 -12 38 -58 76 -92 76 -9 0 -69 -42 -133 -92z"/>
<path d="M2717 5273 c-3 -5 -39 -13 -78 -17 -80 -7 -265 -43 -290 -56 -8 -5
-26 -11 -40 -13 -13 -2 -37 -9 -54 -16 -16 -7 -52 -18 -80 -26 -27 -7 -63 -18
-79 -24 -16 -7 -36 -9 -43 -7 -8 3 -11 2 -8 -4 5 -8 -43 -40 -60 -40 -8 -1
-209 -99 -221 -109 -6 -5 -25 -16 -43 -26 -48 -24 -148 -102 -155 -121 -18
-48 7 -95 65 -118 37 -15 43 -15 77 1 20 9 43 23 50 30 41 40 289 166 314 160
10 -3 16 -1 13 3 -5 8 23 29 35 27 5 0 188 58 220 70 8 3 22 7 30 8 63 11 188
39 200 45 8 4 35 8 60 9 25 1 95 8 155 15 126 16 291 15 415 -2 47 -6 105 -14
130 -16 25 -3 54 -7 66 -9 63 -15 167 -40 219 -54 33 -8 65 -16 70 -18 65 -14
104 -29 98 -38 -3 -6 -1 -7 5 -3 19 12 245 -70 236 -86 -3 -4 1 -5 9 -2 7 2
27 -1 43 -7 16 -7 32 -13 35 -13 5 -1 22 -9 154 -72 33 -16 63 -29 66 -29 21
0 477 -240 472 -248 -3 -6 -1 -7 5 -3 13 8 83 -24 76 -35 -2 -4 1 -11 7 -15 8
-5 9 -3 4 6 -10 16 19 7 106 -35 55 -26 65 -35 56 -46 -10 -11 -9 -11 4 -1 14
10 29 8 85 -14 38 -14 78 -30 89 -35 148 -66 426 -146 635 -184 292 -52 724
-52 995 -1 11 2 40 7 65 11 64 10 251 54 277 65 17 7 25 5 33 -8 9 -13 10 -14
7 -1 -4 12 12 21 71 39 43 13 82 24 87 26 29 7 194 68 218 81 16 8 36 12 45 8
9 -3 13 -3 9 1 -10 11 151 87 169 80 10 -4 12 -2 8 6 -5 8 -2 9 10 5 9 -4 15
-3 12 2 -3 4 7 14 22 20 15 7 68 36 117 65 50 29 116 67 147 84 49 26 170 104
203 130 6 4 32 23 60 42 119 83 217 166 234 199 20 37 13 81 -18 112 -48 47
-78 41 -179 -39 -48 -38 -112 -85 -142 -105 -30 -20 -62 -43 -70 -50 -33 -29
-78 -56 -84 -50 -3 3 -6 1 -6 -5 0 -7 -7 -12 -15 -12 -8 0 -15 -5 -15 -11 0
-6 -9 -9 -20 -6 -11 3 -18 0 -17 -6 2 -10 -78 -61 -115 -73 -10 -4 -18 -11
-18 -17 0 -5 -10 -2 -22 9 -13 10 -17 12 -10 4 12 -14 18 -39 6 -27 -4 4 -19
-1 -33 -11 -25 -16 -41 -24 -156 -77 -132 -61 -359 -152 -395 -159 -8 -2 -23
-6 -32 -10 -9 -4 -22 -9 -30 -10 -7 -2 -22 -7 -33 -12 -11 -4 -48 -8 -82 -8
-35 0 -63 -4 -63 -8 0 -5 12 -6 28 -3 l27 5 -25 -11 c-14 -6 -76 -22 -138 -35
-63 -13 -117 -26 -120 -28 -4 -2 -36 -7 -72 -10 -36 -4 -83 -11 -105 -16 -68
-15 -486 -18 -600 -5 -66 7 -109 12 -128 14 -5 1 -5 6 -1 12 4 7 -1 7 -16 -1
-16 -9 -29 -9 -48 -1 -15 6 -49 13 -77 16 -27 3 -63 9 -80 15 -27 8 -64 17
-105 24 -8 1 -22 5 -30 8 -27 11 -88 29 -117 34 -15 3 -41 11 -58 19 -16 7
-48 19 -70 25 -22 7 -45 17 -51 22 -7 5 -49 22 -95 39 -46 17 -113 45 -149 62
-35 18 -67 32 -70 33 -3 0 -13 4 -23 9 -15 6 -16 10 -5 17 9 7 8 8 -6 4 -12
-4 -47 8 -95 32 -42 22 -93 45 -113 52 -21 6 -38 15 -38 19 0 4 -40 26 -89 50
-71 34 -89 47 -86 62 2 10 0 21 -5 24 -5 3 -7 -4 -5 -15 3 -15 -1 -20 -13 -18
-9 2 -20 7 -23 11 -3 5 -12 10 -20 11 -18 3 -133 58 -139 67 -3 3 -23 12 -45
20 -22 7 -59 24 -82 36 -23 13 -47 23 -53 23 -5 0 -29 9 -53 19 -23 10 -50 22
-60 25 -11 3 -15 11 -11 18 5 10 4 10 -6 1 -10 -9 -21 -7 -49 7 -20 11 -45 21
-56 23 -11 2 -33 9 -49 16 -16 6 -38 13 -50 16 -11 2 -22 4 -23 6 -2 1 -9 2
-15 3 -7 1 -12 6 -11 11 1 6 -15 11 -35 12 -21 0 -55 6 -77 12 -42 12 -63 18
-92 26 -35 8 -208 43 -223 43 -54 3 -139 16 -136 21 6 9 -330 12 -416 3 -50
-5 -79 -4 -81 2 -2 6 -6 6 -10 -1z"/>
<path d="M2900 4267 c-3 -3 -45 -8 -95 -11 -126 -10 -139 -11 -240 -31 -97
-19 -109 -21 -170 -31 -22 -3 -52 -13 -67 -20 -15 -8 -31 -15 -35 -15 -14 -2
-26 -7 -113 -39 -47 -18 -89 -33 -95 -34 -5 -1 -23 -9 -40 -18 -16 -8 -40 -19
-52 -22 -13 -4 -48 -23 -80 -42 -57 -34 -90 -44 -77 -22 5 7 3 8 -5 4 -7 -5
-10 -10 -7 -13 7 -7 -38 -43 -53 -43 -6 0 -11 -4 -11 -10 0 -5 -4 -10 -10 -10
-17 0 -159 -102 -174 -125 -14 -22 -18 -97 -4 -89 4 2 13 -4 20 -13 35 -46 85
-50 140 -10 15 11 31 16 39 12 8 -5 10 -4 5 3 -4 7 11 22 36 38 59 38 308 165
308 158 0 -3 15 4 33 15 19 11 42 22 53 24 10 2 39 10 64 19 55 19 161 52 175
54 6 0 17 4 25 7 38 14 123 18 133 5 7 -10 8 -9 4 3 -5 14 9 19 86 29 78 10
265 16 372 12 28 -1 157 -16 235 -28 19 -2 51 -7 70 -10 19 -2 46 -9 60 -14
14 -5 34 -11 45 -13 46 -9 75 -20 69 -28 -3 -5 2 -6 11 -3 9 4 35 0 58 -9 23
-8 59 -18 81 -22 22 -4 49 -17 64 -33 14 -15 22 -21 18 -14 -8 14 7 16 32 3 9
-5 56 -26 104 -47 48 -20 85 -40 83 -44 -2 -4 2 -7 9 -7 27 0 106 -45 100 -56
-5 -9 -4 -9 5 -1 10 9 26 4 69 -22 32 -18 90 -49 130 -70 39 -20 72 -40 72
-44 0 -5 16 -14 35 -20 19 -6 35 -16 35 -21 0 -6 5 -7 10 -4 6 3 10 3 10 -2 0
-4 10 -13 23 -19 12 -6 65 -33 117 -61 52 -28 119 -63 147 -78 29 -15 51 -30
49 -34 -2 -3 9 -7 24 -8 33 -2 93 -37 83 -47 -4 -4 0 -4 9 -1 15 6 60 -9 112
-37 50 -27 358 -128 431 -142 11 -2 52 -11 90 -20 217 -52 308 -65 585 -87
181 -14 458 -4 625 24 39 6 91 11 117 11 25 1 44 4 41 9 -2 4 5 7 16 7 10 0
66 11 123 25 56 14 114 28 128 31 14 2 41 10 60 16 19 7 40 13 47 14 24 4 260
87 318 111 33 14 76 32 95 40 90 37 333 154 340 164 12 16 123 68 133 62 5 -3
7 -1 4 4 -4 6 34 37 86 71 121 80 301 214 355 265 35 35 42 47 42 80 0 55 -45
100 -97 96 -22 -2 -44 -11 -51 -21 -7 -10 -22 -18 -33 -18 -11 0 -18 -4 -15
-9 6 -9 -67 -71 -83 -71 -6 0 -11 -4 -11 -10 0 -5 -12 -16 -27 -24 -16 -8 -41
-26 -58 -40 -34 -29 -45 -31 -65 -13 -12 10 -12 9 -1 -6 12 -15 11 -20 -5 -32
-10 -8 -23 -15 -29 -15 -5 0 -23 -11 -39 -25 -16 -14 -34 -25 -41 -25 -7 0
-20 -9 -30 -20 -10 -11 -20 -18 -23 -16 -2 3 -11 -2 -19 -10 -9 -9 -23 -12
-35 -8 -15 4 -18 3 -13 -7 6 -9 4 -11 -8 -6 -10 4 -14 2 -11 -6 2 -7 -26 -27
-68 -49 -101 -51 -248 -120 -262 -123 -6 -1 -24 -8 -41 -15 -16 -7 -32 -14
-35 -14 -3 -1 -11 -5 -17 -9 -7 -5 -13 -5 -13 -1 0 3 -11 -1 -24 -9 -18 -12
-26 -13 -35 -4 -10 9 -12 9 -9 -2 2 -8 -14 -19 -42 -28 -25 -8 -52 -17 -60
-20 -8 -4 -17 -7 -20 -7 -3 -1 -11 -5 -17 -9 -7 -5 -13 -5 -13 -1 0 3 -6 2
-12 -4 -7 -5 -30 -13 -51 -16 -21 -3 -47 -11 -58 -17 -11 -6 -48 -17 -82 -24
-34 -8 -89 -21 -122 -29 -46 -12 -62 -13 -74 -3 -10 8 -13 8 -8 0 9 -14 -80
-28 -115 -18 -18 5 -20 4 -8 -4 8 -6 11 -11 5 -12 -20 -3 -62 -7 -145 -14 -46
-3 -88 -9 -92 -11 -9 -6 -429 -6 -488 0 -19 1 -55 6 -80 10 -25 3 -65 8 -90
11 -25 2 -56 6 -70 9 -14 2 -43 7 -65 10 -22 4 -53 10 -70 13 -16 4 -37 7 -45
9 -8 1 -55 13 -105 27 -49 14 -103 28 -120 32 l-30 8 25 8 c18 5 14 6 -19 4
-24 -1 -55 4 -70 11 -14 8 -33 14 -42 14 -9 0 -19 3 -23 8 -4 4 -11 7 -14 8
-25 3 -71 19 -90 31 -13 8 -35 17 -49 19 -13 3 -41 13 -61 24 -20 11 -42 20
-49 20 -6 0 -15 5 -19 11 -4 8 1 9 17 4 13 -4 21 -4 16 1 -4 4 -23 9 -43 10
-35 3 -284 117 -295 136 -3 5 -8 8 -10 6 -2 -1 -22 8 -44 21 -22 14 -56 33
-75 44 -19 11 -42 25 -50 32 -8 7 -34 21 -57 30 -24 10 -43 20 -43 24 0 4 -16
13 -35 20 -19 7 -40 18 -47 24 -7 7 -41 25 -75 41 -35 16 -63 33 -63 38 0 4
-7 8 -16 8 -9 0 -53 20 -98 45 -46 25 -86 42 -89 38 -4 -3 -7 -2 -7 4 0 5 -6
10 -12 10 -7 0 -33 10 -57 21 -25 12 -50 22 -55 22 -6 0 -24 7 -40 15 -16 8
-43 18 -60 21 -17 3 -35 9 -40 15 -6 5 -20 9 -31 9 -12 0 -25 3 -29 8 -4 4
-11 7 -14 8 -4 0 -14 3 -22 6 -52 18 -90 28 -116 32 -50 6 -144 29 -144 35 0
3 -21 7 -48 8 -26 0 -72 4 -102 8 -30 3 -77 8 -105 10 -27 2 -82 6 -120 10
-39 3 -73 4 -75 2z"/>
</g>
</svg>
