<?xml version="1.0" standalone="no"?>
<!DOCTYPE svg PUBLIC "-//W3C//DTD SVG 20010904//EN"
 "http://www.w3.org/TR/2001/REC-SVG-20010904/DTD/svg10.dtd">
<svg version="1.0" xmlns="http://www.w3.org/2000/svg"
 width="1024.000000pt" height="1024.000000pt" viewBox="0 0 1024.000000 1024.000000"
 preserveAspectRatio="xMidYMid meet">
<metadata>
Created by potrace 1.16, written by Peter Selinger 2001-2019
</metadata>
<g transform="translate(0.000000,1024.000000) scale(0.100000,-0.100000)"
fill="#000000" stroke="none">
<path d="M6835 7550 c-258 -81 -537 -169 -618 -194 -134 -42 -150 -50 -167
-79 -19 -31 -20 -54 -20 -718 l0 -685 -71 35 c-61 30 -83 36 -158 39 -157 8
-265 -30 -360 -125 -80 -81 -104 -137 -104 -238 0 -67 4 -88 26 -131 34 -67
113 -137 185 -165 71 -27 194 -36 271 -19 135 29 259 120 309 227 l27 58 3
551 3 551 432 133 c238 73 495 152 571 176 77 24 141 44 143 44 2 0 3 -182 3
-404 l0 -405 -56 34 c-118 71 -281 73 -416 4 -63 -32 -145 -115 -175 -178 -24
-47 -28 -69 -28 -136 0 -67 4 -89 28 -137 49 -100 134 -157 264 -179 195 -32
386 57 465 219 l33 67 0 878 0 879 -28 24 c-18 15 -39 24 -60 23 -18 -1 -243
-68 -502 -149z m475 -199 c0 -190 -2 -209 -17 -214 -27 -7 -921 -282 -1116
-343 -16 -5 -17 7 -15 202 l3 208 185 58 c102 33 248 79 325 103 77 24 246 77
375 119 129 41 241 75 248 75 9 1 12 -47 12 -208z m-162 -1206 c137 -41 188
-157 122 -273 -57 -98 -160 -147 -295 -140 -130 6 -214 83 -215 196 0 70 28
123 88 167 85 63 195 81 300 50z m-1295 -329 c69 -16 131 -55 157 -99 62 -102
-24 -266 -164 -314 -75 -25 -198 -24 -257 3 -206 95 -157 345 81 408 70 19
111 19 183 2z"/>
<path d="M8164 5968 c-17 -13 -67 -52 -110 -87 -285 -232 -683 -421 -1047
-496 -155 -32 -395 -44 -516 -25 -75 12 -83 11 -102 -6 -31 -28 -23 -85 16
-103 41 -20 311 -27 446 -12 405 46 830 217 1205 483 202 143 250 202 205 247
-27 27 -59 27 -97 -1z"/>
<path d="M3225 5949 c-137 -15 -316 -54 -455 -99 -137 -44 -364 -152 -422
-200 -51 -42 -52 -79 -4 -105 l34 -18 79 46 c185 109 385 184 620 234 119 25
144 27 368 27 217 -1 253 -3 375 -27 166 -32 377 -92 530 -150 115 -44 423
-178 512 -223 55 -28 100 -31 122 -8 19 19 21 67 4 82 -7 5 -88 44 -180 86
-433 197 -731 294 -1050 341 -135 19 -415 27 -533 14z"/>
<path d="M3310 5179 c-309 -35 -656 -158 -920 -324 -78 -50 -102 -102 -62
-138 30 -27 59 -20 140 33 169 111 403 213 608 263 188 47 232 52 439 52 163
-1 221 -5 316 -23 249 -47 493 -133 804 -282 435 -209 592 -275 795 -335 334
-98 699 -135 1016 -104 453 45 946 190 1369 403 167 85 412 240 439 278 21 30
20 61 -2 81 -32 29 -70 20 -142 -32 -562 -409 -1481 -675 -2115 -612 -414 41
-672 122 -1218 383 -126 60 -276 129 -334 154 -402 171 -793 241 -1133 203z"/>
<path d="M3319 4400 c-287 -36 -573 -134 -819 -280 -178 -105 -222 -158 -172
-203 32 -29 61 -19 176 55 497 321 1012 398 1525 228 146 -48 270 -101 536
-230 406 -198 579 -269 812 -334 300 -85 488 -111 798 -111 300 0 517 31 860
120 369 97 755 264 1026 443 161 107 209 149 209 185 0 26 -40 67 -65 67 -8 0
-51 -28 -97 -62 -316 -235 -701 -411 -1153 -528 -686 -179 -1278 -140 -1903
125 -70 29 -228 103 -352 163 -260 126 -351 167 -509 229 -120 46 -337 104
-456 122 -100 15 -338 21 -416 11z"/>
</g>
</svg>
