<?xml version="1.0" standalone="no"?>
<!DOCTYPE svg PUBLIC "-//W3C//DTD SVG 20010904//EN" "http://www.w3.org/TR/2001/REC-SVG-20010904/DTD/svg10.dtd">
<svg xmlns="http://www.w3.org/2000/svg" version="1.0" width="1024.000000pt" height="1024.000000pt" viewBox="0 0 1024.000000 1024.000000" preserveAspectRatio="xMidYMid meet">
<metadata>
Created by potrace 1.16, written by Peter Selinger 2001-2019
<meta name="Producer" content="Online-Convert"/></metadata>
<g transform="translate(0.000000,1024.000000) scale(0.100000,-0.100000)" fill="#000000" stroke="none">
<path d="M7127 8161 c-26 -11 -87 -49 -136 -85 -84 -63 -109 -78 -96 -57 3 5 1 12 -4 16 -6 3 -8 -3 -6 -14 3 -14 -6 -28 -28 -43 -18 -12 -117 -86 -222 -163 -104 -78 -282 -209 -393 -291 -112 -82 -288 -211 -390 -286 -103 -76 -275 -202 -382 -280 -107 -78 -323 -237 -480 -352 -257 -188 -366 -269 -735 -541 -60 -45 -189 -139 -285 -210 -182 -134 -288 -212 -554 -409 -87 -65 -175 -126 -195 -135 -31 -14 -80 -16 -344 -16 l-309 0 -24 -28 c-48 -56 -20 -114 62 -128 27 -4 119 -8 205 -8 l156 -1 2 -1045 2 -1045 -23 -1 c-19 -1 -18 -3 7 -9 17 -4 -52 -8 -163 -9 -210 -1 -244 -8 -262 -57 -6 -15 -10 -187 -10 -405 0 -420 1 -427 61 -448 49 -17 5385 -15 5419 2 38 19 55 61 39 98 -26 64 185 59 -2699 59 -2498 0 -2630 1 -2631 18 0 14 -2 14 -9 -3 -5 -12 -9 102 -9 278 l-1 297 474 0 c407 0 475 2 486 15 7 8 16 12 21 10 4 -3 8 166 9 377 0 210 2 383 4 385 2 2 213 5 469 6 l467 2 27 28 28 27 0 375 0 375 458 0 c469 0 485 1 514 39 9 12 12 114 13 399 l0 382 468 0 c464 0 469 0 488 21 18 20 19 44 22 415 l3 394 678 0 678 0 21 23 c31 33 28 72 -7 108 l-29 29 -281 0 -281 0 0 875 0 875 299 0 c299 0 300 0 315 22 23 32 20 73 -8 105 l-24 28 -414 2 c-384 2 -416 1 -461 -16z m133 -1016 l0 -874 -371 -3 -371 -3 -19 -24 c-18 -22 -19 -44 -19 -412 l0 -389 -465 0 -466 0 -24 -25 -25 -24 0 -381 0 -380 -468 0 -469 0 -22 -24 c-22 -24 -22 -24 -22 -405 l0 -380 -474 -3 c-474 -3 -474 -3 -496 -25 -22 -22 -22 -23 -20 -397 l2 -376 -200 0 -201 0 0 1054 0 1054 48 6 c113 16 119 20 589 368 404 300 779 577 1003 741 135 99 301 221 368 271 68 50 129 89 135 88 7 -2 9 -1 5 3 -12 12 149 125 169 119 14 -4 15 -3 5 4 -11 7 -6 15 20 33 31 21 173 126 578 424 91 67 305 224 475 350 171 125 374 276 452 334 160 119 214 151 255 151 l28 0 0 -875z"/>
</g>
</svg>
