<?xml version="1.0" standalone="no"?>
<!DOCTYPE svg PUBLIC "-//W3C//DTD SVG 20010904//EN"
 "http://www.w3.org/TR/2001/REC-SVG-20010904/DTD/svg10.dtd">
<svg version="1.0" xmlns="http://www.w3.org/2000/svg"
 width="1024.000000pt" height="1024.000000pt" viewBox="0 0 1024.000000 1024.000000"
 preserveAspectRatio="xMidYMid meet">
<metadata>
Created by potrace 1.16, written by Peter Selinger 2001-2019
</metadata>
<g transform="translate(0.000000,1024.000000) scale(0.100000,-0.100000)"
fill="#000000" stroke="none">
<path d="M4353 8290 c-36 -22 -48 -54 -39 -103 4 -17 7 -38 8 -44 1 -7 4 -11
6 -8 9 9 33 -35 26 -47 -4 -7 -3 -8 4 -4 12 7 143 -141 200 -226 35 -52 81
-191 85 -256 1 -20 5 -39 9 -42 9 -7 38 -209 37 -261 0 -34 -2 -39 -9 -24 -8
18 -9 18 -9 2 -1 -10 6 -26 15 -34 14 -14 15 -37 9 -167 -3 -83 -13 -203 -21
-266 -14 -101 -19 -119 -47 -154 -18 -22 -57 -90 -87 -151 l-55 -110 -111 -55
c-62 -30 -131 -70 -155 -88 -87 -65 -163 -186 -184 -293 -6 -29 -23 -46 -118
-116 -62 -45 -123 -93 -137 -105 -116 -106 -171 -149 -181 -142 -7 4 -9 3 -5
-4 22 -35 -328 -253 -381 -236 -15 5 -16 4 -3 -6 13 -10 11 -11 -8 -7 -12 3
-20 1 -17 -3 8 -12 -88 -41 -285 -85 -91 -20 -208 -48 -260 -63 -52 -14 -105
-25 -117 -26 -12 -1 -20 -3 -17 -5 5 -5 -147 -73 -168 -74 -9 -1 -15 -4 -13
-7 6 -10 -67 -44 -87 -41 -9 1 -19 -3 -23 -8 -3 -7 0 -8 9 -5 29 11 16 -4 -34
-41 -27 -20 -54 -34 -60 -30 -6 4 -9 3 -8 -2 2 -5 -24 -39 -57 -77 -33 -37
-73 -86 -88 -109 -16 -23 -33 -41 -39 -39 -5 1 -7 -2 -4 -7 3 -5 -7 -37 -23
-72 -69 -154 -86 -347 -45 -497 5 -19 3 -21 -12 -15 -16 6 -17 5 -4 -9 8 -9
18 -14 23 -11 4 2 7 0 7 -6 0 -8 25 -65 58 -135 3 -5 -2 -5 -9 -1 -8 5 -11 4
-6 -1 5 -5 12 -9 17 -9 4 0 27 -24 50 -53 110 -138 301 -203 456 -157 121 36
199 125 174 199 -26 80 -96 93 -174 33 -116 -88 -220 -13 -220 159 0 28 7 67
14 85 19 49 59 101 72 93 6 -4 8 -3 5 3 -8 13 28 46 82 73 64 32 164 50 276
49 88 -1 239 -14 208 -18 -6 0 -9 -10 -6 -22 6 -21 6 -21 21 -3 14 18 14 18 8
1 -3 -10 -6 -37 -6 -58 0 -28 -4 -38 -12 -33 -6 4 -8 3 -5 -3 3 -5 9 -47 12
-94 14 -184 32 -264 115 -524 33 -104 67 -228 75 -274 44 -252 -21 -438 -163
-465 -38 -7 -88 11 -116 42 -27 31 -24 111 9 190 28 68 26 92 -7 129 -57 62
-138 29 -193 -77 -61 -121 -51 -259 26 -359 10 -13 16 -28 12 -34 -3 -5 -1 -7
4 -4 11 7 46 -26 37 -35 -3 -3 3 -5 13 -5 10 1 17 -4 16 -10 -2 -7 0 -12 5
-11 13 4 52 -13 52 -23 0 -5 3 -8 8 -7 4 1 39 -6 79 -15 88 -21 156 -21 248
-2 125 26 261 109 321 196 15 22 31 36 38 32 6 -3 8 -3 4 1 -3 4 9 40 28 80
45 95 65 196 65 329 -1 127 -5 174 -34 322 -29 149 -30 421 -3 540 44 190 111
320 228 440 l79 80 -8 -50 c-13 -82 -9 -549 5 -680 17 -148 45 -315 78 -459
14 -60 23 -115 20 -123 -4 -9 -1 -11 6 -7 7 5 9 0 6 -14 -4 -12 -3 -22 1 -22
4 0 13 -24 20 -52 8 -29 40 -133 72 -231 33 -99 56 -183 53 -188 -3 -5 -1 -9
4 -9 13 0 74 -169 65 -183 -3 -5 -2 -7 4 -4 6 4 15 -16 22 -46 14 -63 11 -133
-7 -130 -6 2 -11 -2 -9 -9 1 -7 -2 -13 -8 -13 -5 -1 -18 -5 -28 -10 -27 -12
-94 23 -118 62 -16 25 -21 51 -22 112 0 44 -4 78 -8 76 -3 -3 -14 4 -23 14
-40 44 -116 33 -153 -22 -13 -18 -23 -39 -23 -46 0 -7 -3 -10 -7 -8 -10 7 -9
-159 1 -202 6 -24 5 -31 -3 -27 -6 4 -11 2 -11 -3 0 -6 7 -11 15 -11 8 0 15
-7 15 -16 0 -9 -5 -12 -12 -8 -7 5 -8 3 -4 -5 5 -7 10 -10 13 -7 3 3 22 -22
42 -55 40 -68 127 -154 197 -195 183 -108 392 -103 565 12 130 86 212 222 246
406 13 76 14 121 6 326 -21 473 -8 692 72 1242 29 202 47 354 47 399 0 44 5
35 60 -101 90 -226 148 -514 133 -673 -9 -108 -26 -195 -36 -189 -5 3 -6 -2
-3 -11 8 -21 -25 -147 -37 -139 -5 3 -6 -1 -3 -9 2 -7 -9 -53 -27 -101 -23
-63 -34 -84 -41 -74 -7 9 -8 7 -3 -8 5 -20 -27 -109 -36 -100 -2 2 -5 -5 -6
-17 0 -12 -15 -69 -32 -126 -17 -58 -31 -119 -31 -136 0 -17 -3 -35 -7 -38 -3
-4 -5 -31 -3 -60 1 -28 3 -73 4 -99 0 -25 4 -42 7 -36 4 6 10 -5 14 -23 13
-62 69 -163 127 -225 243 -260 676 -164 705 156 11 121 -22 180 -101 180 -37
0 -48 -5 -69 -30 -21 -24 -26 -41 -26 -84 0 -92 -45 -147 -122 -149 -64 -1
-99 50 -99 149 0 104 76 297 190 484 29 47 83 144 120 217 38 72 72 128 76
125 4 -4 4 -1 0 5 -4 7 6 54 23 105 43 134 54 199 55 320 1 60 4 108 8 108 18
0 208 -65 296 -101 91 -37 224 -114 219 -127 -1 -4 3 -9 8 -10 20 -7 35 -25
28 -35 -3 -5 -2 -7 4 -4 13 8 57 -38 49 -52 -4 -5 -1 -13 5 -17 8 -5 9 -3 4 6
-6 9 -4 11 4 6 7 -5 10 -14 7 -22 -3 -8 0 -13 6 -11 19 3 59 -109 65 -182 7
-86 -15 -161 -57 -191 -16 -12 -55 -26 -87 -32 -95 -17 -114 -28 -133 -71 -31
-69 5 -134 88 -156 83 -24 233 -8 329 34 29 13 59 23 66 21 7 -1 8 -1 4 2 -4
2 13 17 39 33 126 81 224 225 269 397 17 63 21 347 5 362 -3 3 -16 39 -29 80
-54 172 -148 332 -276 468 -41 44 -71 83 -67 87 4 5 3 6 -3 3 -5 -4 -45 22
-87 55 -104 84 -245 170 -467 287 -102 54 -185 104 -183 110 1 6 -2 9 -7 6
-14 -9 -42 5 -34 17 3 6 1 7 -6 3 -14 -9 -94 48 -83 59 4 5 2 5 -5 2 -15 -9
-125 81 -117 95 4 6 2 8 -3 5 -19 -12 -155 145 -259 299 -56 82 -129 183 -162
224 -52 65 -59 78 -50 99 5 14 8 66 7 116 -2 132 -3 145 -11 145 -5 0 -8 6 -8
14 0 7 -16 44 -35 82 -33 68 -108 156 -173 204 -30 23 -33 30 -38 95 -7 75
-40 223 -55 241 -14 17 -13 46 6 199 20 164 16 534 -8 670 -8 44 -14 81 -13
82 1 2 38 -24 81 -58 75 -57 263 -178 333 -213 19 -10 30 -21 26 -28 -4 -6 -3
-8 4 -4 17 10 85 -26 70 -37 -9 -6 -8 -7 4 -3 17 5 65 -15 187 -78 42 -22 51
-30 40 -38 -11 -8 -10 -9 4 -4 20 7 97 -29 97 -45 0 -6 4 -8 10 -4 5 3 18 -3
30 -15 11 -11 23 -19 26 -18 3 0 30 -14 60 -32 41 -25 52 -36 42 -43 -9 -6 -8
-7 6 -3 20 7 49 -11 41 -24 -3 -5 -1 -11 5 -15 5 -3 10 -1 10 4 0 6 23 -5 51
-25 91 -64 199 -155 196 -166 -1 -6 7 -12 17 -14 25 -4 127 -105 119 -117 -3
-6 -2 -7 4 -4 15 9 57 -39 48 -54 -5 -7 -4 -10 3 -5 13 8 107 -99 107 -122 0
-9 6 -17 12 -17 7 0 29 -23 48 -52 37 -55 43 -69 23 -57 -7 5 -8 3 -4 -5 5 -7
11 -10 14 -7 7 7 34 -32 68 -97 l24 -47 -20 -98 c-30 -139 -36 -337 -16 -489
9 -67 13 -129 9 -139 -4 -11 -3 -15 4 -11 13 8 27 -58 17 -75 -4 -6 -3 -8 4
-4 13 8 27 -48 16 -65 -5 -8 -3 -9 6 -4 10 6 12 3 8 -13 -4 -12 -2 -20 2 -17
5 3 18 -20 29 -50 24 -63 82 -182 117 -237 14 -21 22 -44 18 -50 -4 -6 -3 -8
3 -5 10 7 108 -109 108 -128 0 -5 4 -10 7 -10 4 0 38 -30 75 -66 38 -36 87
-80 111 -98 23 -18 42 -39 42 -47 0 -8 5 -14 11 -14 5 0 7 5 4 10 -4 6 31 -14
77 -44 186 -121 421 -215 643 -256 142 -27 194 -19 222 35 36 69 51 404 25
565 -30 182 -107 423 -177 549 -14 24 -22 48 -18 54 3 5 2 7 -4 4 -5 -3 -20
11 -32 33 -11 21 -18 40 -14 42 5 3 2 3 -4 2 -13 -3 -36 29 -28 40 3 3 2 4 -1
2 -3 -3 -32 28 -63 67 -60 75 -165 178 -250 245 -28 22 -48 42 -45 44 2 3 -2
5 -8 5 -7 0 -46 21 -86 47 -76 50 -287 156 -310 156 -7 0 -11 4 -7 9 3 5 0 13
-6 17 -8 4 -9 3 -5 -4 8 -13 -4 -15 -29 -6 -13 6 -14 9 -3 16 9 7 7 8 -7 4
-25 -7 -168 38 -158 49 5 4 2 5 -5 1 -30 -18 -60 4 -98 71 -91 164 -239 358
-370 488 -72 71 -215 200 -259 234 l-30 23 67 -7 c133 -14 388 -9 513 11 66
10 140 18 165 17 28 0 38 2 26 7 -15 5 -1 11 49 24 300 75 655 288 846 507
182 208 202 260 127 332 -62 59 -223 161 -340 216 -581 273 -1264 203 -1722
-177 -27 -23 -54 -38 -59 -35 -6 3 -7 2 -4 -4 8 -13 -67 -86 -77 -76 -4 5 -6
3 -4 -3 2 -7 -27 -52 -63 -100 -68 -91 -169 -258 -169 -280 0 -29 -25 -22
-137 35 -226 115 -404 245 -593 433 -132 131 -264 292 -254 310 4 7 4 10 -1 6
-4 -4 -28 10 -51 32 -50 46 -90 52 -141 20z m2757 -221 c113 -14 223 -41 208
-52 -9 -5 -5 -6 9 -2 13 3 58 -8 116 -31 76 -28 94 -40 90 -53 -4 -12 -3 -13
5 -3 7 11 19 9 61 -12 28 -15 49 -31 46 -36 -3 -5 1 -7 9 -4 8 3 23 -3 34 -14
11 -11 22 -19 24 -17 2 2 13 -4 26 -13 l22 -17 -31 -43 c-17 -23 -35 -39 -40
-36 -5 3 -8 1 -7 -5 5 -16 -124 -142 -140 -136 -7 2 -10 0 -7 -5 18 -29 -346
-245 -396 -234 -17 4 -20 3 -11 -4 19 -13 -133 -68 -266 -96 -90 -18 -104 -19
-113 -6 -9 13 -10 13 -6 -2 5 -14 -7 -18 -81 -25 -164 -15 -510 -4 -497 16 2
5 -6 6 -19 4 -45 -9 -401 72 -430 98 -13 11 37 111 108 219 109 162 278 309
448 388 253 119 533 159 838 121z m-2361 -1785 c15 -56 47 -101 101 -143 25
-18 44 -38 42 -43 -1 -5 2 -7 7 -3 10 6 57 -58 63 -85 2 -8 6 -18 11 -21 4 -3
12 -30 19 -60 13 -62 4 -142 -18 -164 -9 -8 -13 -15 -9 -15 17 0 -33 -54 -66
-71 -58 -29 -138 -25 -234 12 -76 29 -83 30 -180 23 -139 -9 -193 14 -237 100
-16 31 -19 52 -15 93 11 110 87 192 250 272 124 61 169 105 213 209 l29 67 6
-65 c4 -36 12 -83 18 -106z m2246 -326 c191 -63 387 -173 532 -297 61 -52 81
-76 77 -88 -4 -13 -3 -14 3 -5 7 10 22 -1 57 -42 28 -33 44 -61 40 -67 -4 -7
-3 -9 3 -6 14 9 76 -80 67 -95 -5 -7 -3 -8 6 -3 9 6 10 1 5 -16 -4 -17 -4 -20
3 -10 8 11 20 -6 51 -68 23 -45 39 -87 35 -93 -4 -6 -3 -8 3 -5 13 8 75 -176
98 -293 18 -89 32 -288 27 -379 l-3 -54 -51 6 c-30 4 -56 13 -65 24 -8 10 -12
12 -8 6 4 -8 0 -13 -10 -13 -9 0 -13 4 -10 10 3 5 0 7 -8 4 -44 -16 -459 168
-442 197 4 5 0 6 -8 3 -25 -9 -233 169 -220 189 3 6 1 7 -5 3 -12 -7 -59 50
-54 66 1 5 -2 7 -7 4 -24 -15 -203 301 -205 363 -1 16 -4 27 -7 25 -10 -6 -30
82 -23 103 4 13 3 15 -4 4 -11 -15 -25 52 -42 205 -9 84 -1 254 16 336 7 33 9
32 149 -14z m-2906 -264 c6 -14 8 -31 5 -37 -4 -7 -3 -9 1 -4 12 11 65 -43 65
-66 0 -11 -15 -45 -34 -76 -19 -31 -49 -86 -67 -123 -18 -37 -36 -65 -40 -62
-4 2 -11 -1 -15 -7 -4 -8 -3 -9 4 -5 17 11 15 1 -14 -57 -59 -115 -204 -304
-225 -291 -5 3 -9 -1 -9 -9 0 -16 -34 -49 -43 -42 -4 3 -5 2 -2 -2 7 -9 -16
-34 -26 -27 -5 3 -8 0 -7 -7 2 -6 -3 -14 -11 -17 -9 -3 -11 0 -6 8 5 9 4 11
-4 6 -6 -4 -9 -11 -6 -16 17 -27 -220 -154 -270 -145 -22 4 -25 3 -10 -4 15
-6 0 -13 -70 -29 -145 -33 -165 -35 -500 -37 -348 -2 -363 -4 -489 -63 -36
-17 -67 -28 -70 -26 -3 2 -4 1 -1 -2 2 -4 -14 -21 -35 -38 -51 -40 -92 -90
-121 -147 -47 -92 -52 -93 -46 -3 7 87 36 181 82 260 41 70 168 194 250 242
105 62 270 120 450 159 88 19 218 50 289 69 70 19 133 31 140 27 6 -3 8 -3 4
2 -4 4 54 38 130 76 148 73 267 156 417 293 50 45 126 111 170 146 44 36 82
68 83 73 7 14 19 7 31 -19z m1065 -262 c39 -54 64 -98 60 -105 -4 -7 -4 -9 1
-5 4 4 35 -33 69 -81 34 -49 83 -118 111 -153 27 -35 50 -66 50 -70 0 -5 5 -8
10 -8 17 -1 85 -73 78 -83 -3 -6 -1 -7 6 -3 6 4 31 -10 58 -34 26 -22 73 -57
105 -76 32 -20 58 -40 58 -45 0 -5 4 -8 8 -6 10 3 452 -230 483 -255 13 -11
18 -16 10 -12 -9 4 -12 3 -7 -4 4 -6 12 -9 19 -6 12 4 56 -24 159 -102 75 -58
240 -235 233 -252 -2 -7 -1 -10 5 -7 23 14 132 -214 155 -325 39 -186 -9 -405
-110 -500 l-26 -25 10 28 c16 41 13 172 -5 247 -63 269 -274 449 -687 585
-206 67 -364 134 -480 202 -44 26 -74 49 -70 55 3 6 1 8 -4 5 -15 -9 -95 51
-87 65 5 7 3 8 -6 3 -17 -11 -142 120 -204 215 -67 101 -128 236 -121 263 4
15 3 18 -3 9 -6 -9 -12 -2 -20 25 -12 40 -56 365 -56 420 -1 17 -4 29 -8 26
-5 -2 -8 9 -8 25 0 25 6 32 32 41 17 6 40 18 49 27 10 9 25 14 34 11 8 -4 15
-1 15 5 0 16 7 8 84 -100z m-547 58 c41 -16 83 -30 94 -30 13 0 19 -7 20 -22
0 -22 1 -22 8 -3 11 28 35 -86 27 -129 -4 -19 -3 -26 3 -18 25 40 49 -396 32
-578 -14 -148 -67 -566 -80 -637 -6 -27 -22 -153 -37 -279 -22 -195 -26 -274
-28 -536 0 -168 2 -304 7 -301 4 2 7 -25 7 -61 0 -37 -4 -66 -10 -66 -5 0 -9
-15 -9 -32 l1 -33 8 30 c5 21 8 5 9 -55 2 -190 -76 -339 -212 -404 -40 -19
-68 -25 -123 -25 -62 0 -160 16 -111 18 9 1 35 12 56 26 132 83 170 216 115
396 -14 46 -27 94 -28 106 0 12 -3 19 -5 17 -7 -7 -28 47 -106 282 -80 238
-165 559 -168 636 -1 27 -5 48 -8 48 -6 0 -8 13 -34 225 -28 225 -19 551 20
734 45 213 177 535 276 670 l29 40 77 4 c43 1 82 4 86 5 5 1 42 -11 84 -28z
m-1227 -1055 c-24 -70 -60 -252 -60 -305 0 -21 -3 -40 -8 -42 -11 -5 13 -338
33 -443 26 -143 31 -327 11 -416 -14 -64 -67 -179 -82 -179 -2 0 -1 8 4 18 6
9 13 42 17 72 3 30 9 68 11 84 13 84 -31 310 -101 515 -88 257 -110 374 -102
537 6 124 13 164 29 164 5 0 6 -6 3 -12 -4 -7 -1 -6 7 3 7 9 45 21 88 28 41 6
95 18 120 25 25 8 46 13 48 11 1 -1 -7 -28 -18 -60z m1977 -218 c40 -33 79
-57 153 -97 60 -32 66 -39 77 -80 6 -25 12 -95 12 -156 2 -198 -55 -362 -217
-631 -144 -240 -232 -469 -232 -607 l0 -51 -15 29 c-29 55 -40 157 -27 243 14
92 72 264 86 256 5 -3 6 -1 2 5 -3 6 9 51 27 99 19 48 40 105 48 125 7 20 17
34 22 31 6 -3 7 -1 3 5 -4 7 2 45 13 84 65 240 72 436 22 678 -10 49 -15 90
-10 90 4 0 20 -10 36 -23z"/>
<path d="M4413 5170 c-34 -14 -52 -60 -79 -198 -73 -371 -105 -853 -74 -1107
24 -200 66 -380 96 -410 23 -23 105 -20 132 5 33 31 35 57 13 166 -43 210 -53
335 -48 579 5 246 18 376 70 691 18 110 31 210 29 222 -9 46 -84 74 -139 52z"/>
</g>
</svg>
