<?xml version="1.0" standalone="no"?>
<!DOCTYPE svg PUBLIC "-//W3C//DTD SVG 20010904//EN" "http://www.w3.org/TR/2001/REC-SVG-20010904/DTD/svg10.dtd">
<svg xmlns="http://www.w3.org/2000/svg" version="1.0" width="1024.000000pt" height="1024.000000pt" viewBox="0 0 1024.000000 1024.000000" preserveAspectRatio="xMidYMid meet">
<metadata>
Created by potrace 1.16, written by Peter Selinger 2001-2019
<meta name="Producer" content="Online-Convert"/></metadata>
<g transform="translate(0.000000,1024.000000) scale(0.100000,-0.100000)" fill="#000000" stroke="none">
<path d="M4785 8005 c-614 -75 -1135 -309 -1628 -734 -49 -42 -93 -76 -98 -76 -5 0 -9 -4 -8 -9 2 -13 -83 -96 -93 -90 -5 3 -7 2 -6 -3 2 -5 -37 -55 -87 -112 -285 -326 -506 -723 -634 -1138 -45 -148 -95 -381 -112 -528 -12 -102 -27 -437 -20 -429 5 5 37 -38 34 -46 -2 -7 66 -1 87 7 8 4 18 6 21 5 8 -1 8 1 19 188 25 424 104 764 260 1110 62 138 171 330 183 323 6 -3 7 -1 3 6 -8 13 91 161 202 301 159 200 417 442 625 588 159 111 448 268 475 257 7 -2 11 -1 8 4 -11 17 331 135 489 170 420 92 879 85 1305 -20 718 -178 1397 -699 1710 -1314 28 -55 48 -105 45 -113 -2 -7 -1 -11 4 -8 12 8 43 -72 35 -86 -4 -6 -2 -8 3 -5 12 7 78 -182 112 -318 148 -597 54 -1273 -255 -1828 -74 -134 -163 -269 -174 -262 -4 3 -7 -1 -6 -9 2 -23 -174 -223 -284 -323 -150 -135 -404 -304 -431 -287 -8 4 -9 3 -5 -4 8 -13 -45 -42 -174 -95 -191 -78 -404 -132 -620 -158 -164 -19 -462 -7 -635 26 -578 108 -1098 482 -1339 963 -20 40 -34 78 -30 84 4 6 3 8 -4 4 -22 -13 -108 252 -139 429 -23 137 -23 442 1 580 40 238 129 460 264 660 161 238 435 477 678 591 221 103 406 140 639 131 203 -9 340 -44 515 -132 125 -63 180 -102 174 -122 -5 -14 -4 -15 4 -4 9 12 20 7 64 -31 202 -173 312 -327 386 -539 87 -249 84 -538 -9 -779 -38 -98 -116 -233 -131 -224 -7 4 -8 3 -4 -5 10 -16 -92 -129 -181 -201 -236 -190 -533 -239 -818 -135 -77 28 -212 115 -207 134 1 7 -2 10 -7 7 -15 -10 -107 101 -145 173 -137 262 -79 542 147 707 70 52 78 62 79 106 1 34 -38 78 -70 78 -34 0 -127 -57 -182 -111 -153 -150 -219 -321 -207 -537 8 -147 41 -248 124 -376 132 -205 365 -348 626 -386 72 -11 331 -11 321 -1 -2 3 28 13 68 24 89 22 233 90 318 147 184 125 351 342 430 559 56 154 74 259 75 436 0 178 -10 246 -61 404 -19 57 -31 108 -27 114 3 5 2 7 -4 4 -5 -3 -21 17 -34 45 -13 29 -39 76 -56 106 -18 30 -30 58 -27 63 3 5 1 8 -4 7 -6 -2 -34 28 -63 67 -69 91 -177 198 -264 264 -38 29 -69 57 -67 63 1 5 -2 7 -7 3 -6 -3 -30 6 -53 21 -141 89 -357 169 -539 200 -148 24 -405 15 -544 -19 -229 -58 -438 -157 -623 -298 -35 -27 -69 -46 -75 -42 -5 3 -7 2 -4 -4 7 -10 -142 -150 -156 -145 -5 1 -6 -2 -3 -7 3 -5 -2 -15 -11 -22 -9 -8 -50 -54 -91 -104 -42 -49 -80 -90 -86 -90 -6 -1 -10 -7 -8 -14 1 -7 -8 -27 -21 -45 -89 -117 -193 -349 -243 -543 -78 -307 -84 -609 -17 -903 15 -63 27 -125 27 -137 1 -12 3 -19 5 -17 3 2 19 -35 36 -83 47 -133 117 -273 191 -386 37 -56 67 -107 67 -114 0 -7 3 -11 7 -10 12 3 99 -110 92 -119 -4 -5 -3 -6 2 -1 12 9 157 -133 149 -147 -3 -6 -3 -8 2 -4 11 10 76 -42 68 -55 -3 -5 -2 -7 4 -4 5 3 40 -16 76 -42 188 -137 490 -289 660 -332 26 -6 45 -14 43 -18 -2 -3 8 -6 22 -7 15 -1 80 -13 145 -27 305 -67 683 -59 1028 22 194 46 483 165 654 271 39 24 76 43 83 43 6 0 10 2 7 5 -2 3 39 37 93 77 53 39 134 105 179 146 538 485 867 1318 821 2079 -27 459 -157 868 -392 1234 -114 178 -194 275 -365 447 -228 227 -462 396 -758 545 -78 39 -139 75 -135 79 4 5 2 5 -5 1 -6 -3 -45 7 -85 23 -209 83 -451 144 -698 176 -170 23 -579 28 -725 10z"/>
</g>
</svg>
