<?xml version="1.0" standalone="no"?>
<!DOCTYPE svg PUBLIC "-//W3C//DTD SVG 20010904//EN"
 "http://www.w3.org/TR/2001/REC-SVG-20010904/DTD/svg10.dtd">
<svg version="1.0" xmlns="http://www.w3.org/2000/svg"
 width="1024.000000pt" height="1024.000000pt" viewBox="0 0 1024.000000 1024.000000"
 preserveAspectRatio="xMidYMid meet">
<metadata>
Created by potrace 1.16, written by Peter Selinger 2001-2019
</metadata>
<g transform="translate(0.000000,1024.000000) scale(0.100000,-0.100000)"
fill="#000000" stroke="none">
<path d="M5251 8165 c-35 -8 -68 -12 -74 -8 -6 3 -7 1 -3 -5 8 -13 -29 -26
-46 -16 -7 4 -10 3 -5 -1 4 -5 -12 -20 -35 -33 -59 -35 -143 -100 -203 -158
-27 -26 -53 -47 -58 -46 -4 1 -6 -1 -5 -5 5 -15 -65 -94 -72 -82 -5 7 -9 5
-13 -6 -4 -9 -3 -13 3 -10 19 12 10 -5 -36 -67 -26 -35 -50 -62 -55 -61 -5 2
-8 -1 -6 -5 4 -16 -54 -112 -65 -106 -6 4 -8 2 -5 -3 7 -11 -96 -205 -108
-203 -3 1 -10 -2 -13 -6 -4 -4 -1 -4 6 0 17 10 15 4 -10 -49 -12 -25 -29 -45
-37 -46 -9 0 -11 -3 -5 -5 8 -3 -7 -48 -40 -127 -29 -67 -65 -157 -81 -200
-20 -55 -31 -74 -37 -65 -6 9 -7 6 -3 -8 3 -13 -10 -69 -31 -134 -29 -88 -39
-109 -46 -94 -7 15 -7 14 -3 -6 7 -35 -57 -290 -72 -290 -7 0 -13 -10 -12 -22
0 -22 1 -22 10 -3 8 17 9 16 4 -6 -36 -193 -75 -415 -75 -435 0 -14 -3 -23 -7
-21 -5 3 -8 -20 -8 -51 -1 -32 -7 -127 -15 -212 -18 -204 -17 -635 3 -855 9
-93 14 -188 12 -210 -3 -24 -2 -33 3 -22 7 16 31 -121 38 -213 1 -14 4 -32 7
-40 13 -36 39 -199 33 -208 -3 -6 -1 -12 6 -14 10 -4 10 -13 0 -44 -10 -32 -9
-41 3 -53 10 -10 15 -11 15 -4 0 7 -4 14 -10 18 -5 3 -6 13 -3 22 4 9 28 -71
54 -178 48 -192 56 -235 38 -191 -5 13 -14 20 -19 17 -7 -4 -1 -16 15 -30 27
-26 33 -40 13 -30 -7 4 -6 1 3 -7 9 -7 25 -45 38 -85 25 -83 29 -101 24 -90
-3 4 -9 4 -14 1 -6 -3 -6 -11 2 -20 6 -7 15 -11 20 -8 9 5 14 -22 10 -66 -1
-21 0 -22 10 -10 9 12 10 11 6 -8 -3 -12 -1 -20 3 -17 9 6 53 -115 45 -123 -3
-3 -5 0 -5 6 0 7 -5 12 -10 12 -7 0 -7 -6 -1 -19 6 -10 8 -21 5 -24 -3 -2 5
-13 18 -23 14 -11 46 -73 77 -149 29 -71 80 -185 112 -253 32 -67 53 -122 48
-122 -6 0 -7 -5 -4 -11 4 -6 10 -8 13 -5 9 10 84 -133 76 -146 -4 -6 -3 -8 3
-5 14 9 37 -19 28 -33 -4 -6 -1 -9 6 -8 7 2 16 -8 20 -22 4 -14 7 -21 8 -16 1
4 25 -16 55 -47 30 -30 79 -67 110 -82 113 -55 260 -31 373 61 24 20 48 32 54
28 7 -4 9 -3 5 4 -3 6 19 39 50 74 31 35 79 95 107 135 27 40 54 70 58 67 4
-2 11 1 15 7 4 8 3 9 -4 5 -18 -11 -14 2 7 33 11 15 37 57 59 94 21 37 42 64
47 60 4 -5 5 -3 2 4 -4 6 4 30 17 53 13 23 26 38 28 33 3 -4 3 -2 1 5 -1 7 14
45 34 85 20 40 57 120 83 180 26 59 50 104 55 100 4 -5 5 -3 1 4 -3 6 7 45 23
85 100 254 206 598 260 850 67 313 87 542 69 806 -7 103 -12 206 -13 229 0 22
-3 40 -6 38 -3 -2 -11 35 -18 83 -7 48 -30 173 -51 277 -178 874 -197 978
-276 1525 -82 573 -122 755 -194 877 -11 19 -17 40 -14 46 4 7 4 9 -1 5 -8 -8
-61 51 -57 64 1 4 -1 7 -5 6 -5 -2 -23 8 -40 21 -27 21 -31 27 -20 40 10 14
10 14 -4 3 -16 -12 -53 -7 -45 7 3 4 -3 7 -12 8 -9 0 -41 6 -71 12 -66 14 -89
13 -170 -4z m176 -176 c42 -16 76 -50 61 -62 -9 -6 -8 -7 4 -3 21 6 54 -36 42
-55 -4 -8 -3 -9 4 -5 14 8 46 -50 38 -70 -3 -8 -2 -13 3 -10 5 4 16 -15 25
-41 17 -50 22 -94 6 -58 -10 24 -12 10 -3 -23 4 -18 8 -21 15 -10 7 9 8 5 5
-14 -2 -15 -1 -25 3 -23 7 5 23 -70 50 -243 7 -41 9 -88 6 -105 -4 -23 -3 -28
4 -17 7 11 10 7 10 -18 0 -20 -4 -31 -10 -27 -13 8 -13 -36 1 -55 8 -12 10 -9
6 13 -2 16 -1 25 3 20 6 -7 30 -157 30 -191 0 -7 -4 -10 -10 -7 -6 3 -7 -1 -4
-9 3 -9 9 -14 13 -11 11 6 41 -225 34 -259 -4 -18 -2 -27 4 -23 11 7 39 -161
29 -171 -4 -3 -6 8 -7 24 -1 29 -1 29 -9 4 -4 -14 -8 -19 -9 -11 -1 8 -4 12
-7 8 -4 -3 3 -18 14 -32 12 -15 22 -20 24 -14 2 7 14 -46 27 -117 13 -71 40
-216 62 -323 21 -107 36 -206 33 -220 -4 -17 -2 -21 3 -14 6 9 13 -8 22 -49
10 -50 10 -62 -1 -69 -10 -7 -10 -9 2 -9 12 0 22 -27 38 -108 13 -60 19 -117
16 -127 -5 -12 -4 -16 3 -12 7 4 17 -34 28 -104 15 -95 16 -112 4 -121 -11 -8
-10 -9 4 -4 10 3 17 0 17 -7 0 -7 6 -66 14 -132 19 -157 18 -458 -1 -610 -26
-212 -124 -642 -143 -630 -5 3 -6 -3 -3 -14 2 -10 -23 -102 -57 -205 -47 -142
-65 -186 -76 -182 -9 3 -14 -1 -14 -12 0 -15 -2 -15 -11 -2 -9 12 -10 12 -5
-3 3 -10 6 -24 7 -30 0 -7 5 -1 10 12 14 35 21 20 8 -17 -6 -18 -16 -29 -22
-25 -6 3 -7 1 -3 -5 4 -6 -8 -48 -25 -93 -22 -57 -34 -77 -40 -68 -7 11 -9 9
-10 -6 -1 -11 -3 -27 -4 -35 -1 -8 -3 -21 -4 -28 0 -7 -5 -10 -11 -7 -5 3 -7
0 -4 -8 8 -23 -113 -257 -134 -258 -9 0 -12 -3 -5 -5 9 -4 9 -11 1 -29 -6 -14
-14 -22 -19 -20 -4 3 -11 0 -15 -6 -4 -8 -3 -9 4 -5 21 13 13 -3 -46 -97 -78
-125 -140 -207 -154 -204 -6 1 -13 -4 -16 -12 -3 -9 0 -11 9 -6 8 4 -11 -18
-41 -49 -77 -80 -141 -116 -205 -114 l-50 1 40 8 c35 7 33 7 -16 4 -51 -3 -60
0 -93 27 -23 18 -35 36 -32 45 3 8 2 12 -3 9 -18 -11 -107 116 -95 136 4 6 3
8 -4 5 -25 -17 -285 564 -266 595 4 6 3 8 -3 5 -12 -7 -56 120 -46 135 3 6 2
8 -4 5 -12 -8 -99 270 -159 511 -46 182 -52 218 -32 206 7 -4 8 -3 4 5 -4 6
-11 9 -15 7 -19 -12 -108 580 -116 773 -3 57 -7 107 -10 109 -12 12 -4 538 10
692 44 480 136 896 285 1290 71 184 105 261 115 253 4 -5 5 -3 1 4 -11 19 24
82 43 76 12 -4 13 -3 3 4 -15 11 -5 46 11 36 5 -3 7 -1 4 5 -10 15 3 43 16 35
6 -3 7 -1 3 5 -9 14 34 93 45 86 5 -3 7 1 4 8 -3 7 23 58 57 113 86 138 108
166 120 159 7 -4 8 -2 4 5 -8 12 60 102 74 98 4 -1 7 1 7 5 -3 13 76 87 86 81
6 -3 7 -1 3 5 -11 19 117 108 195 136 51 18 155 21 196 5z"/>
<path d="M5466 6764 c1 -6 -2 -16 -8 -22 -8 -8 -22 -71 -65 -294 -3 -15 -9
-26 -13 -23 -5 3 -6 -5 -2 -17 4 -15 2 -19 -7 -13 -10 5 -11 2 -7 -13 8 -25
-61 -245 -74 -237 -6 3 -7 0 -4 -8 6 -17 -55 -167 -68 -167 -5 0 -6 6 -2 13 5
9 3 9 -7 -1 -10 -9 -11 -15 -2 -20 8 -5 -4 -38 -39 -107 -27 -55 -55 -104 -60
-110 -8 -7 -8 -6 -3 4 5 10 4 12 -4 7 -6 -4 -9 -12 -5 -17 8 -14 -117 -229
-129 -222 -6 3 -7 1 -3 -5 6 -10 -59 -141 -77 -153 -5 -3 -8 -9 -7 -13 4 -13
-22 -66 -30 -61 -4 3 -7 -1 -6 -8 1 -16 -106 -277 -113 -272 -3 2 -6 -9 -7
-23 -1 -15 -14 -69 -29 -121 -22 -72 -31 -89 -37 -75 -5 11 -6 2 -2 -23 3 -24
2 -43 -3 -43 -4 0 -8 -10 -9 -22 0 -13 -13 -93 -27 -179 -15 -86 -27 -178 -27
-205 0 -27 -4 -44 -8 -37 -12 19 -2 -317 11 -356 13 -40 48 -58 90 -47 44 11
50 38 53 216 1 91 7 208 13 260 16 135 53 320 63 314 4 -3 5 1 2 9 -6 16 3 56
43 187 56 184 128 345 261 584 53 94 123 222 157 284 35 62 66 113 70 112 3
-1 10 2 13 6 4 4 1 3 -7 -1 -10 -6 -13 -4 -9 6 4 8 30 68 58 134 85 196 169
483 189 645 14 105 -27 165 -93 140 -14 -5 -26 -6 -29 -2 -2 4 -3 2 -1 -4z"/>
</g>
</svg>
