<?xml version="1.0" standalone="no"?>
<!DOCTYPE svg PUBLIC "-//W3C//DTD SVG 20010904//EN"
 "http://www.w3.org/TR/2001/REC-SVG-20010904/DTD/svg10.dtd">
<svg version="1.0" xmlns="http://www.w3.org/2000/svg"
 width="1024.000000pt" height="1024.000000pt" viewBox="0 0 1024.000000 1024.000000"
 preserveAspectRatio="xMidYMid meet">
<metadata>
Created by potrace 1.16, written by Peter Selinger 2001-2019
</metadata>
<g transform="translate(0.000000,1024.000000) scale(0.100000,-0.100000)"
fill="#000000" stroke="none">
<path d="M4775 8120 c-88 -5 -214 -16 -281 -25 -66 -9 -125 -15 -130 -14 -5 1
-16 0 -24 -3 -8 -3 -60 -13 -115 -23 -156 -27 -400 -90 -554 -144 -78 -27
-142 -46 -142 -43 -1 4 -1 11 0 15 1 5 -3 6 -8 2 -6 -3 -8 -11 -5 -18 3 -8
-10 -18 -32 -26 -20 -7 -80 -34 -133 -59 -53 -25 -98 -45 -100 -43 -2 1 -7 -1
-10 -6 -7 -11 -150 -94 -166 -96 -5 -1 -12 -5 -15 -8 -11 -14 -140 -98 -140
-92 0 4 -6 0 -12 -9 -14 -18 -178 -150 -178 -144 0 3 -54 -50 -120 -116 -148
-147 -298 -333 -375 -461 -32 -55 -62 -94 -68 -90 -6 3 -7 1 -3 -5 8 -13 -64
-163 -75 -156 -4 2 -5 -5 -2 -16 3 -11 1 -20 -4 -20 -5 0 -10 -6 -11 -12 0 -7
-26 -89 -58 -183 -31 -93 -59 -177 -62 -185 -3 -8 -5 -24 -6 -35 -1 -12 -7
-19 -16 -17 -12 3 -12 1 -3 -9 11 -11 9 -50 -4 -89 -3 -8 -6 -33 -8 -55 -24
-287 -32 -348 -49 -338 -8 5 -8 3 0 -8 10 -13 21 -64 29 -144 4 -37 18 -201
20 -235 1 -14 5 -33 9 -43 5 -9 6 -26 3 -37 -3 -11 -1 -18 4 -14 5 3 9 -2 9
-11 0 -9 -4 -14 -8 -11 -4 2 -9 -5 -9 -17 -2 -17 0 -18 7 -7 7 11 11 9 19 -13
6 -16 11 -33 11 -38 0 -16 -18 -10 -23 9 -3 9 -4 0 -2 -22 4 -43 15 -62 15
-26 0 13 3 20 7 16 11 -11 42 -119 37 -128 -3 -4 -1 -8 4 -8 10 0 42 -97 34
-105 -11 -10 -11 -35 0 -35 6 0 8 7 4 15 -3 8 -1 15 4 15 9 0 12 -14 9 -36 0
-4 3 -10 8 -13 4 -3 36 -62 70 -131 34 -69 86 -164 116 -212 36 -57 51 -90 45
-96 -7 -7 -5 -10 5 -9 8 1 46 -39 84 -88 67 -86 177 -209 271 -301 23 -23 42
-50 42 -61 0 -26 -26 -132 -41 -168 -7 -17 -13 -33 -14 -37 -2 -5 -3 -9 -5
-10 -1 -2 -3 -11 -5 -21 -2 -10 -38 -119 -80 -243 -70 -204 -77 -231 -76 -299
0 -41 7 -91 15 -110 8 -19 12 -35 8 -35 -4 0 -2 -4 4 -8 6 -4 32 -31 57 -60
26 -29 47 -49 47 -45 0 4 7 -1 16 -12 8 -11 16 -18 17 -16 1 2 25 -3 52 -12
53 -17 120 -23 145 -14 52 19 83 26 91 21 5 -3 9 0 9 6 0 6 4 9 9 6 5 -4 11
-2 13 2 3 8 224 126 238 127 3 0 23 12 45 26 49 32 103 60 111 58 4 0 10 3 13
8 13 19 217 133 229 128 7 -3 10 0 7 5 -3 6 1 10 9 10 9 0 16 4 16 9 0 5 35
27 78 48 72 36 122 45 122 22 0 -6 5 -7 10 -4 5 3 16 3 22 -1 7 -5 19 -9 28
-10 8 -1 80 -18 159 -38 79 -19 166 -39 192 -42 27 -4 52 -10 54 -14 3 -5 13
-6 23 -3 10 2 26 -5 36 -16 11 -12 24 -21 29 -21 6 0 2 7 -9 16 -18 15 -18 15
11 10 36 -7 63 -10 270 -31 108 -11 245 -16 425 -15 292 2 331 4 504 25 84 10
124 12 138 4 10 -6 27 -8 36 -6 12 3 11 5 -5 6 -13 0 -23 6 -23 12 0 7 12 10
30 7 17 -3 30 -1 30 4 0 5 12 8 28 8 15 -1 54 6 87 14 33 8 76 17 95 19 20 2
41 6 46 10 6 3 26 9 45 11 39 6 58 11 79 19 8 3 77 24 152 46 76 23 187 61
248 85 60 24 110 42 110 40 0 -3 6 0 13 5 6 6 78 44 159 85 152 77 266 147
395 242 40 30 73 53 73 51 0 -6 112 95 214 193 152 146 311 344 410 507 62
103 163 323 198 429 18 54 35 101 38 104 3 3 5 10 5 15 0 17 28 139 34 150 3
5 5 19 6 30 0 11 6 19 13 17 8 -1 11 2 6 9 -9 15 -6 111 3 118 23 17 17 491
-7 633 -6 32 -9 61 -9 65 1 4 0 15 -3 23 -3 8 -19 72 -36 141 -17 69 -47 170
-67 225 -68 186 -237 503 -311 585 -9 10 -14 19 -9 19 4 0 -2 8 -12 18 -11 9
-53 57 -93 105 -268 323 -650 592 -1090 768 -74 30 -137 57 -138 62 -2 4 -7 5
-12 2 -4 -3 -27 2 -51 11 -91 32 -358 96 -528 125 -317 54 -752 77 -1096 59z
m745 -185 c91 -8 172 -18 180 -21 8 -3 35 -7 60 -9 51 -4 300 -54 315 -63 5
-3 20 -7 33 -8 14 -2 32 -6 41 -10 9 -4 25 -9 36 -11 119 -22 425 -137 590
-221 89 -45 199 -112 203 -123 2 -5 7 -7 12 -4 4 2 20 -7 34 -20 15 -14 30
-25 34 -25 14 -1 183 -127 254 -190 113 -100 232 -226 311 -330 84 -109 167
-237 167 -257 0 -7 5 -13 11 -13 5 0 8 -4 5 -9 -4 -5 -2 -11 3 -13 10 -4 74
-128 65 -128 -3 0 2 -7 10 -16 18 -18 20 -30 6 -39 -5 -3 -10 -12 -10 -18 0
-7 4 -6 10 3 12 19 14 15 39 -49 19 -51 19 -56 4 -73 -10 -11 -12 -18 -5 -18
7 0 12 -8 13 -17 0 -15 2 -15 9 2 7 18 9 18 20 -10 7 -16 13 -40 13 -52 1 -13
6 -23 10 -23 4 0 7 -6 6 -12 -1 -7 1 -20 4 -28 17 -45 37 -165 28 -168 -15 -5
-14 -33 1 -29 49 10 54 -672 6 -730 -5 -7 -7 -16 -5 -20 7 -11 -21 -143 -33
-158 -5 -7 -7 -14 -5 -17 6 -6 -53 -190 -64 -198 -3 -3 -7 -14 -9 -25 -11 -71
-264 -498 -313 -528 -11 -7 -19 -17 -19 -24 0 -18 -222 -244 -321 -328 -458
-384 -1028 -608 -1754 -690 -77 -9 -169 -14 -205 -10 -45 3 -59 2 -45 -4 19
-10 -235 -8 -490 3 -55 2 -111 4 -125 5 -53 2 -332 42 -421 60 -146 30 -334
81 -337 92 -2 5 -7 7 -11 5 -4 -3 -33 2 -64 10 -56 14 -57 14 -121 -15 -35
-16 -92 -46 -127 -66 -137 -80 -541 -306 -626 -350 -103 -52 -173 -66 -219
-42 -33 17 -65 49 -68 69 -1 7 -5 18 -9 25 -9 14 -4 39 25 141 12 39 25 72 30
72 4 0 8 -5 8 -12 0 -6 3 -8 6 -5 4 4 1 13 -5 21 -8 10 -9 16 -1 21 6 3 8 10
5 15 -3 4 1 23 9 41 7 19 17 43 21 54 4 11 9 25 11 32 4 21 46 148 53 158 3 6
6 16 7 23 2 8 6 21 10 30 3 9 8 28 10 41 2 13 7 27 11 30 18 14 19 148 1 226
-10 44 -23 62 -125 164 -119 119 -223 240 -223 260 0 6 -4 11 -10 11 -5 0 -28
27 -50 60 -22 33 -38 60 -35 60 3 0 -4 10 -15 22 -44 48 -216 416 -225 483 -1
11 -8 33 -14 50 -7 16 -13 42 -14 57 -1 15 -5 28 -8 28 -8 0 -39 177 -47 270
-8 94 -8 363 1 450 3 36 7 72 7 80 4 45 34 199 43 220 6 14 9 29 8 34 -1 4 3
14 9 20 5 7 8 15 5 18 -5 5 58 198 72 220 4 7 8 15 8 18 3 23 29 80 36 80 6 0
7 5 4 10 -3 6 -1 10 5 10 6 0 8 5 5 10 -3 6 -1 10 5 10 6 0 9 4 6 8 -6 10 89
183 107 194 6 4 8 8 4 8 -10 0 58 99 146 212 130 166 392 395 602 526 103 63
267 148 375 195 74 32 86 34 97 21 7 -10 13 -12 18 -5 3 6 1 11 -4 11 -6 0
-11 4 -11 9 0 9 57 27 73 23 4 -1 7 3 7 8 0 6 6 10 13 9 6 -1 26 3 42 10 64
27 330 101 378 105 19 2 39 6 44 9 6 4 30 9 54 12 24 3 97 14 163 25 135 22
247 28 291 16 21 -5 26 -5 16 3 -12 8 -10 11 13 17 37 9 107 -1 117 -18 7 -10
10 -10 21 1 10 10 10 12 1 7 -7 -4 -13 -2 -13 5 0 7 10 9 25 7 14 -3 28 -1 32
5 8 13 394 2 613 -18z"/>
<path d="M5630 6696 c-19 -7 -39 -13 -45 -14 -24 -5 -34 -73 -34 -234 -1 -144
-3 -167 -16 -162 -16 7 -19 -4 -9 -31 5 -13 8 -14 15 -3 5 8 9 -16 9 -59 0
-57 -3 -71 -14 -67 -11 4 -13 -10 -13 -70 1 -74 11 -100 20 -53 3 16 5 13 6
-10 1 -25 -2 -31 -14 -27 -11 5 -13 2 -9 -10 3 -9 10 -13 15 -10 5 3 9 -227 9
-553 -1 -495 -2 -556 -15 -538 -14 18 -15 17 -11 -15 6 -48 6 -48 16 -25 6 13
9 -20 9 -92 1 -96 -1 -113 -15 -113 -8 0 -12 -5 -9 -10 4 -6 11 -8 16 -5 5 4
9 -6 9 -20 0 -62 40 -101 103 -102 40 -1 51 4 72 29 l25 30 0 1051 c0 579 -3
1062 -6 1074 -3 11 -13 24 -22 27 -10 3 -26 10 -37 15 -14 6 -33 5 -55 -3z"/>
<path d="M4528 6675 l-28 -24 0 -1043 c0 -633 -4 -1044 -9 -1046 -6 -2 -2 -12
7 -23 9 -11 17 -25 17 -32 0 -14 58 -36 98 -36 19 -1 39 9 58 28 l29 29 0
1057 0 1057 -29 29 c-39 38 -102 40 -143 4z"/>
</g>
</svg>
