<?xml version="1.0" standalone="no"?>
<!DOCTYPE svg PUBLIC "-//W3C//DTD SVG 20010904//EN"
 "http://www.w3.org/TR/2001/REC-SVG-20010904/DTD/svg10.dtd">
<svg version="1.0" xmlns="http://www.w3.org/2000/svg"
 width="1024.000000pt" height="1024.000000pt" viewBox="0 0 1024.000000 1024.000000"
 preserveAspectRatio="xMidYMid meet">
<metadata>
Created by potrace 1.16, written by Peter Selinger 2001-2019
</metadata>
<g transform="translate(0.000000,1024.000000) scale(0.100000,-0.100000)"
fill="#000000" stroke="none">
<path d="M3426 8629 c2 -3 -18 -11 -44 -17 -26 -6 -56 -14 -66 -18 -15 -6 -17
-4 -11 6 6 9 4 11 -4 6 -7 -5 -10 -10 -7 -13 8 -8 -105 -63 -117 -56 -5 3 -7
2 -4 -4 7 -10 -86 -88 -106 -88 -6 0 -12 -5 -12 -11 0 -6 -26 -48 -59 -93
-150 -209 -173 -441 -70 -705 6 -15 4 -17 -6 -11 -9 5 -11 4 -6 -4 4 -6 11 -9
15 -7 4 3 18 -12 30 -34 40 -71 111 -150 180 -198 37 -26 68 -51 68 -55 1 -5
5 -12 9 -15 4 -4 4 -1 0 6 -10 17 -8 16 67 -18 300 -136 666 -21 849 265 53
83 81 153 104 255 52 232 -65 526 -268 676 -71 52 -187 110 -240 119 -21 4
-36 10 -34 14 2 3 -58 6 -134 6 -76 0 -136 -3 -134 -6z m282 -211 c117 -37
227 -129 286 -239 74 -134 75 -333 4 -474 -30 -58 -78 -116 -90 -109 -6 4 -8
2 -5 -3 16 -25 -127 -119 -222 -147 -76 -22 -194 -21 -274 4 -73 23 -191 96
-181 112 4 6 2 8 -3 5 -12 -8 -61 44 -98 103 -33 52 -68 158 -63 192 3 15 0
28 -5 28 -6 0 -7 28 -3 73 32 343 338 556 654 455z"/>
<path d="M2725 7334 c-11 -2 -45 -9 -75 -15 -30 -6 -85 -24 -123 -40 -37 -17
-73 -27 -79 -23 -6 4 -8 3 -5 -3 8 -12 -101 -85 -114 -77 -5 3 -8 1 -7 -3 2
-5 -36 -47 -84 -92 -48 -46 -118 -118 -154 -162 -37 -43 -71 -76 -77 -72 -6 3
-7 1 -3 -5 4 -6 -15 -40 -42 -74 -55 -70 -285 -415 -349 -523 -23 -38 -72
-129 -110 -201 -37 -72 -72 -131 -76 -132 -5 0 -12 -4 -15 -8 -4 -4 -1 -4 6 0
18 11 15 -2 -22 -90 -91 -216 -128 -388 -129 -599 0 -139 14 -250 49 -371 8
-28 12 -60 8 -70 -4 -13 -3 -15 3 -6 7 9 14 1 26 -29 9 -23 14 -46 10 -52 -3
-6 -2 -7 3 -4 6 3 16 -8 23 -24 11 -25 11 -33 -1 -47 -11 -15 -11 -15 3 -5 13
11 21 3 52 -50 l36 -63 -5 -299 c-2 -165 -6 -328 -9 -362 -5 -71 -73 -275 -88
-266 -6 3 -7 1 -3 -5 7 -12 -9 -60 -122 -367 -335 -908 -327 -881 -300 -995
25 -107 16 -88 80 -169 51 -64 134 -114 217 -130 101 -19 224 20 316 100 54
47 116 151 420 694 119 213 149 264 157 259 4 -2 10 1 14 7 4 8 3 9 -4 5 -19
-12 -14 3 21 63 19 31 55 96 81 144 42 77 50 86 63 75 14 -12 15 -11 3 8 -9
15 -10 26 -2 40 9 15 11 16 15 4 39 -136 177 -732 171 -741 -5 -8 -3 -9 6 -4
10 6 12 0 8 -23 -2 -17 -2 -29 2 -27 10 6 53 -173 44 -186 -5 -8 -3 -10 6 -4
10 6 11 -1 6 -31 -4 -24 -3 -34 2 -26 6 9 21 -35 46 -132 40 -162 40 -159 27
-152 -5 4 -7 -3 -4 -15 4 -13 8 -17 13 -9 4 7 14 -5 24 -30 9 -23 13 -46 10
-52 -4 -6 -3 -8 3 -5 6 4 22 -11 36 -32 15 -22 42 -52 62 -67 27 -21 33 -29
23 -37 -9 -6 -8 -7 6 -3 10 4 24 2 30 -3 6 -5 39 -19 73 -30 79 -27 166 -27
240 -1 31 11 60 17 65 14 5 -3 7 -1 6 3 -2 5 22 29 52 54 39 32 65 64 88 110
52 103 55 143 27 473 -60 716 -98 1206 -99 1263 -1 33 -3 60 -6 58 -3 -2 -12
33 -19 78 -19 126 -70 263 -179 487 -56 113 -102 212 -104 220 -2 8 -6 17 -9
20 -11 9 -329 631 -329 644 0 5 45 105 192 421 38 83 73 153 78 158 6 4 8 5 6
1 -2 -3 2 -13 10 -22 8 -10 46 -57 83 -107 38 -49 78 -98 89 -109 12 -10 19
-23 15 -29 -3 -5 -2 -7 4 -4 5 3 29 -7 52 -23 24 -15 61 -36 82 -45 21 -10 36
-22 32 -28 -3 -6 -2 -7 4 -4 10 7 186 -26 179 -34 -2 -2 21 -4 52 -4 32 -1
156 -6 277 -13 121 -6 306 -14 410 -18 105 -3 193 -9 196 -13 3 -3 11 -26 18
-51 15 -54 72 -160 113 -212 16 -21 26 -43 22 -49 -4 -7 -3 -9 3 -6 13 8 46
-27 36 -38 -5 -4 -3 -5 3 -2 14 8 66 -57 56 -68 -4 -5 -2 -5 4 -2 7 4 22 -1
34 -11 21 -17 21 -19 7 -55 -9 -20 -14 -37 -12 -37 3 0 0 -12 -6 -27 -6 -15
-7 -24 -3 -21 4 4 19 -12 34 -35 23 -37 45 -52 163 -112 74 -39 133 -74 130
-79 -4 -5 -1 -6 5 -2 13 8 103 -34 96 -45 -2 -4 1 -11 7 -15 8 -4 9 -3 5 4
-10 17 -3 15 58 -15 30 -15 53 -30 50 -35 -3 -4 1 -5 9 -2 8 3 21 -1 28 -8 8
-7 19 -14 25 -15 35 -7 163 -76 158 -85 -4 -6 -2 -8 4 -4 14 9 65 -12 57 -24
-3 -5 0 -7 8 -5 7 3 78 -26 158 -66 114 -57 153 -71 187 -70 52 0 100 28 141
80 31 38 302 208 328 205 7 -1 11 1 9 5 -3 4 81 58 187 121 210 126 213 128
202 110 -5 -9 -4 -11 4 -6 6 4 8 12 5 18 -5 8 -1 9 10 5 10 -4 15 -3 11 3 -8
12 82 63 96 54 7 -4 9 -3 6 3 -3 5 11 18 31 28 29 15 61 19 149 19 l113 1 32
33 33 32 3 246 c3 178 0 254 -9 275 -12 31 -54 59 -87 59 -10 0 -24 6 -31 13
-10 10 -11 9 -7 -3 7 -19 -292 -163 -321 -154 -12 4 -14 3 -6 -3 8 -6 -65 -45
-220 -118 -127 -61 -235 -109 -239 -108 -5 2 -8 -2 -8 -9 0 -6 -2 -9 -5 -6 -3
2 27 98 65 212 72 213 93 286 81 286 -3 0 -14 14 -23 30 -14 24 -60 51 -232
137 -145 72 -212 110 -203 116 7 5 4 6 -9 2 -12 -3 -28 0 -36 7 -7 7 -20 14
-28 16 -8 1 -75 32 -148 68 -117 57 -140 65 -182 62 -27 -2 -47 -5 -44 -7 2
-2 -5 -11 -17 -19 -18 -12 -24 -11 -57 10 -138 89 -288 140 -412 140 -122 0
-269 -44 -333 -100 -16 -14 -27 -13 -125 12 -59 14 -267 56 -462 91 -362 66
-407 79 -404 119 1 9 -2 13 -7 10 -11 -7 -13 -3 -115 297 -155 457 -217 585
-339 705 -77 75 -184 138 -285 168 -54 17 -226 29 -265 20z m249 -213 c73 -26
128 -59 120 -73 -4 -6 -2 -8 4 -4 15 9 86 -60 76 -75 -4 -7 -3 -9 4 -5 18 11
77 -89 122 -205 22 -60 24 -73 11 -64 -5 3 -12 1 -15 -4 -4 -5 2 -8 11 -7 21
3 28 -13 109 -256 31 -92 52 -173 48 -179 -4 -7 -3 -9 3 -6 11 7 65 -143 60
-164 -2 -8 -2 -10 1 -6 4 8 33 -32 42 -58 2 -5 22 -25 45 -44 22 -19 39 -37
38 -41 -1 -4 3 -7 10 -7 7 1 44 -9 82 -21 39 -12 176 -39 305 -61 129 -22 303
-54 385 -71 83 -16 154 -30 158 -30 5 0 5 -5 1 -12 -4 -7 -3 -8 5 -4 18 11 52
-4 49 -21 -2 -9 3 -18 11 -21 8 -3 11 0 7 7 -4 6 -2 9 7 5 8 -3 24 -23 37 -45
36 -66 16 -145 -47 -186 -24 -16 -53 -18 -228 -18 -366 0 -888 27 -993 50 -73
17 -145 52 -137 65 3 5 0 7 -8 5 -7 -3 -34 15 -60 41 -65 63 -170 211 -161
225 4 7 3 9 -4 5 -5 -3 -20 9 -31 28 -24 37 -27 51 -9 40 7 -4 8 -3 4 5 -4 6
-11 9 -16 6 -11 -7 -81 114 -73 128 3 7 3 9 -2 5 -5 -5 -17 6 -27 23 -37 61
-203 384 -200 391 1 4 -5 5 -13 2 -8 -4 -15 -2 -15 4 0 5 -17 7 -37 5 -73 -8
-109 -74 -79 -144 8 -20 12 -39 9 -43 -4 -3 -2 -6 4 -6 12 0 96 -164 96 -186
0 -7 4 -11 8 -9 6 5 33 -48 30 -60 -1 -3 5 -13 14 -22 9 -8 14 -22 11 -30 -3
-8 -2 -12 3 -9 5 3 19 -14 32 -38 l23 -44 -66 -143 c-139 -300 -247 -546 -258
-588 -6 -23 -8 -57 -5 -74 4 -18 65 -145 136 -283 71 -139 129 -255 129 -258
0 -4 -5 -4 -12 0 -7 4 -8 3 -4 -5 4 -6 11 -9 16 -6 11 7 22 -24 13 -38 -3 -7
-2 -9 2 -4 8 7 47 -54 60 -94 5 -16 4 -19 -5 -14 -9 5 -11 4 -6 -4 4 -6 11 -9
16 -6 11 7 22 -24 13 -37 -3 -6 -1 -8 4 -5 13 8 26 -20 16 -35 -3 -7 -1 -8 5
-4 15 9 35 -30 27 -54 -3 -10 -1 -21 4 -25 7 -4 9 1 5 12 -3 10 1 7 9 -6 8
-14 12 -32 9 -40 -3 -8 -1 -12 5 -8 6 4 33 -43 65 -111 62 -131 93 -217 83
-232 -3 -5 -2 -10 3 -10 18 0 65 -340 61 -431 -2 -25 0 -49 3 -55 6 -9 12 -82
49 -544 11 -140 27 -343 35 -450 27 -336 24 -363 -50 -428 -42 -37 -90 -52
-143 -45 -50 7 -116 40 -107 55 4 7 3 8 -4 4 -14 -9 -46 39 -36 55 4 7 3 9 -4
5 -14 -8 -16 0 -122 424 -119 476 -211 837 -250 979 -17 62 -28 123 -25 135 4
14 3 17 -3 8 -6 -9 -12 0 -21 30 -18 59 -85 193 -117 231 -15 18 -73 84 -129
147 -274 307 -374 424 -368 433 3 6 1 7 -4 4 -20 -13 -208 235 -267 351 -65
129 -116 343 -116 490 0 100 27 258 65 382 45 146 218 505 238 493 5 -3 7 -1
4 4 -8 13 36 96 46 88 4 -3 5 -2 2 1 -7 11 22 60 140 239 138 209 252 358 267
349 7 -5 8 -2 4 5 -10 15 186 213 206 209 6 -2 12 3 13 11 0 19 125 103 143
96 7 -2 11 -1 8 4 -5 8 97 44 154 55 50 9 176 -4 234 -23z m2214 -1312 c23 -6
39 -16 35 -22 -3 -6 -1 -7 6 -3 15 10 123 -42 116 -55 -4 -5 0 -6 8 -3 8 3 19
-1 25 -8 8 -11 -6 -37 -62 -113 -40 -55 -97 -135 -128 -177 -31 -42 -59 -74
-63 -70 -3 4 -5 2 -3 -5 3 -10 -278 -413 -289 -413 -12 0 -78 70 -128 135 -50
65 -94 145 -95 171 0 6 26 18 58 28 31 9 63 20 71 23 9 4 11 1 6 -7 -5 -9 -4
-11 4 -6 6 4 9 11 6 15 -2 5 15 22 39 39 55 40 102 112 116 180 14 63 1 139
-36 207 -13 25 -24 48 -24 51 0 7 47 25 105 40 57 15 171 12 233 -7z m566
-176 c63 -31 112 -61 109 -67 -3 -5 -1 -6 5 -3 16 10 42 -3 43 -22 0 -9 3 -11
5 -4 4 8 49 -10 139 -54 74 -37 131 -71 128 -77 -4 -5 1 -7 10 -3 9 3 25 -2
36 -11 20 -17 20 -19 -56 -244 -45 -133 -80 -225 -86 -221 -6 3 -7 1 -3 -6 10
-15 -65 -241 -78 -234 -5 4 -6 1 -1 -7 10 -16 -125 -421 -143 -428 -20 -7 -96
30 -80 40 9 5 5 7 -12 6 -27 -1 -156 57 -153 69 1 5 -1 10 -4 13 -4 3 -3 -1 1
-7 4 -7 5 -13 2 -13 -17 0 -194 95 -190 102 3 4 -3 5 -12 1 -11 -4 -15 -3 -10
5 4 6 -1 10 -11 10 -28 -1 -75 21 -68 32 4 6 -1 7 -11 3 -13 -5 -15 -3 -9 7 6
9 4 11 -5 5 -15 -9 -390 174 -390 190 0 14 106 156 112 150 2 -3 5 1 5 8 0 7
31 55 69 107 39 52 90 123 113 157 24 35 48 60 54 56 6 -3 7 -1 3 5 -8 13 51
98 66 94 5 -1 7 2 4 6 -3 5 12 34 32 63 204 289 235 329 253 329 10 0 70 -26
133 -57z m1293 -633 l-1 -109 -56 -6 c-88 -10 -152 -32 -235 -79 -43 -25 -83
-42 -88 -39 -6 3 -7 2 -4 -4 4 -6 -26 -29 -65 -53 -56 -33 -73 -39 -80 -28 -8
10 -9 9 -4 -4 4 -13 -5 -23 -32 -38 -20 -12 -62 -36 -92 -55 -30 -19 -56 -33
-58 -31 -2 2 -14 -6 -27 -18 -13 -11 -54 -37 -92 -56 -37 -19 -71 -39 -75 -45
-15 -20 -6 11 40 145 l47 135 50 27 c28 15 56 26 63 23 7 -3 11 -1 8 3 -2 4
104 58 237 120 133 62 292 137 352 166 61 30 111 55 112 55 1 1 1 -48 0 -109z
m-5326 -796 c30 -36 53 -73 51 -82 -2 -13 -1 -14 6 -4 7 10 17 4 40 -26 17
-21 28 -42 24 -46 -4 -4 -2 -6 4 -4 10 3 92 -85 282 -300 41 -46 70 -88 66
-94 -4 -7 -3 -8 4 -4 7 4 20 -10 33 -35 17 -34 19 -48 12 -73 -5 -17 -15 -30
-22 -28 -7 1 -10 -2 -6 -8 8 -13 -139 -278 -169 -303 -11 -10 -15 -16 -9 -12
9 4 11 1 7 -9 -3 -9 -10 -13 -15 -10 -5 3 -6 -1 -3 -9 3 -8 -1 -21 -8 -29 -7
-7 -26 -39 -42 -70 -16 -31 -34 -54 -39 -51 -6 3 -7 1 -3 -5 4 -7 -22 -60 -57
-119 -34 -60 -99 -172 -142 -250 -43 -78 -83 -139 -89 -136 -5 3 -6 2 -3 -4 6
-10 -80 -167 -156 -285 -52 -82 -105 -118 -173 -118 -69 0 -117 24 -151 74
-22 34 -27 52 -27 106 0 57 11 94 83 290 321 866 422 1150 432 1209 5 31 9
156 9 279 0 122 1 222 3 222 2 0 28 -30 58 -66z"/>
<path d="M7499 5131 c-41 -42 -36 -109 12 -139 32 -21 222 -92 260 -98 31 -5
39 -2 62 26 37 44 37 101 1 135 -15 14 -33 25 -41 25 -8 0 -11 4 -8 10 4 6 -1
7 -11 3 -12 -4 -15 -3 -10 5 4 7 2 10 -7 6 -7 -2 -51 9 -96 26 -103 38 -125
38 -162 1z"/>
<path d="M8063 4893 c-33 -6 -63 -50 -63 -90 0 -31 13 -47 123 -156 68 -67
137 -139 152 -159 37 -49 81 -64 128 -44 40 16 57 41 57 85 0 31 -56 106 -133
180 -20 19 -33 39 -30 44 3 6 2 7 -4 4 -5 -3 -38 19 -74 50 -61 54 -118 94
-129 92 -3 -1 -15 -4 -27 -6z"/>
<path d="M7407 4783 c-31 -16 -47 -42 -47 -78 0 -41 12 -56 99 -124 44 -35 78
-68 75 -73 -3 -4 0 -7 8 -6 7 2 12 -3 11 -9 -2 -7 0 -12 5 -11 4 1 18 -5 32
-14 42 -27 63 -29 98 -8 37 23 56 63 47 99 -7 29 -96 117 -183 183 -34 25 -57
48 -51 50 5 2 -8 4 -29 4 -21 1 -50 -5 -65 -13z"/>
<path d="M7800 4293 c-8 -3 -25 -15 -37 -26 -27 -24 -31 -83 -9 -125 7 -15 26
-70 41 -122 30 -102 64 -150 108 -150 34 0 86 36 93 65 10 42 -72 310 -105
339 -20 18 -69 28 -91 19z"/>
<path d="M7224 4122 c2 -2 -7 -15 -21 -28 -25 -25 -25 -29 -20 -117 7 -118 37
-230 89 -337 23 -47 44 -89 46 -94 3 -5 0 -6 -7 -2 -17 11 -13 0 6 -15 15 -12
16 -12 8 1 -12 23 6 2 53 -61 23 -30 62 -74 86 -97 66 -62 196 -146 265 -172
33 -12 59 -26 56 -30 -3 -5 4 -6 14 -3 36 9 61 -14 59 -55 -1 -36 -1 -36 -5
-5 -2 17 -12 37 -21 44 -14 11 -15 11 -4 -1 6 -8 12 -39 13 -70 1 -42 3 -49 9
-30 7 22 8 20 9 -15 0 -29 -2 -36 -9 -25 -7 11 -10 6 -9 -20 0 -29 2 -31 9
-15 6 14 9 -1 9 -47 1 -44 -3 -68 -10 -68 -8 0 -7 -5 1 -15 7 -9 10 -18 7 -21
-3 -3 -116 -5 -252 -5 -327 2 -329 1 -323 -143 2 -41 6 -72 9 -70 7 4 34 -166
33 -208 0 -15 3 -25 7 -23 3 3 9 -12 12 -33 3 -20 15 -90 27 -156 15 -81 19
-121 12 -125 -7 -4 -8 -12 -2 -21 9 -13 10 -13 11 0 0 8 7 -16 15 -55 7 -38
16 -80 19 -92 l5 -22 -554 -1 -553 0 9 37 c8 34 80 454 124 724 17 104 17 107
-2 139 -12 21 -31 37 -49 42 -17 4 -120 6 -230 4 -130 -3 -204 -1 -212 6 -7 6
-13 6 -13 1 0 -5 -16 -7 -35 -5 l-35 4 0 69 c0 39 4 69 10 69 6 0 10 6 10 13
0 8 23 18 58 25 31 7 93 28 136 47 65 28 82 32 95 22 14 -10 14 -10 3 4 -10
14 -5 21 41 52 30 19 85 66 123 103 38 38 76 67 84 66 11 -2 12 -1 3 6 -9 6
-3 22 24 62 42 62 110 209 119 257 3 18 9 31 13 29 11 -7 12 127 1 155 -7 15
-25 33 -41 39 -77 32 -299 -40 -443 -144 -27 -19 -54 -32 -59 -29 -6 3 -7 1
-3 -5 8 -13 -64 -73 -77 -65 -6 3 -7 1 -3 -5 4 -6 -10 -30 -32 -54 -42 -46
-108 -142 -137 -197 -15 -29 -19 -32 -27 -18 -5 10 -6 22 -2 29 4 7 3 8 -4 4
-7 -4 -18 7 -28 26 -29 57 -123 175 -181 228 -137 125 -338 227 -486 245 -48
6 -57 4 -83 -18 -26 -23 -29 -31 -27 -84 1 -32 9 -87 18 -122 9 -35 14 -66 11
-69 -3 -3 -6 2 -6 11 0 9 -4 18 -9 22 -13 8 6 -56 20 -69 9 -8 10 -6 6 7 -14
38 3 13 31 -47 20 -42 28 -74 26 -97 -3 -23 -1 -29 5 -20 5 8 7 21 4 30 -3 9
13 -11 37 -44 24 -33 58 -78 76 -99 18 -21 31 -43 27 -49 -3 -6 -1 -7 5 -4 5
4 30 -9 54 -29 23 -20 60 -48 80 -62 21 -13 35 -29 31 -35 -3 -6 -1 -7 5 -3
10 6 124 -42 130 -56 2 -4 10 -4 19 -1 11 4 14 2 9 -5 -5 -8 -2 -10 8 -6 8 3
30 1 48 -4 18 -6 46 -13 61 -16 15 -4 25 -11 22 -16 -3 -6 -1 -10 4 -10 6 0
11 -19 11 -42 0 -32 -3 -39 -10 -28 -8 12 -10 10 -10 -8 0 -13 4 -20 10 -17 6
3 10 -5 10 -18 0 -14 -6 -27 -12 -29 -7 -2 -107 -3 -223 -2 -253 3 -296 -1
-325 -28 -21 -20 -22 -26 -14 -102 4 -45 8 -106 7 -136 0 -34 2 -46 6 -31 7
27 73 -320 75 -394 0 -24 4 -41 7 -39 7 4 39 -158 39 -195 0 -20 -5 -21 -104
-21 -101 0 -105 -1 -125 -27 -12 -14 -24 -36 -27 -49 -7 -26 19 -79 45 -94 18
-9 750 -11 3313 -10 l377 0 28 24 c22 19 28 32 28 66 0 34 -6 47 -28 66 -27
23 -36 24 -156 24 l-128 0 38 218 c114 651 113 642 96 677 -24 51 -53 56 -325
53 -236 -3 -242 -2 -243 17 -4 72 -4 119 1 184 l5 73 72 19 c82 20 213 83 278
132 196 150 312 331 361 560 23 112 -8 177 -85 177 -46 0 -156 -28 -218 -55
-30 -14 -60 -22 -67 -18 -6 3 -8 2 -3 -2 9 -11 -94 -76 -107 -68 -5 3 -6 2 -3
-4 3 -5 -16 -27 -43 -47 -28 -21 -72 -62 -99 -92 -27 -30 -52 -49 -54 -44 -3
6 -4 5 -3 -2 4 -17 -33 -70 -44 -63 -5 3 -12 0 -16 -6 -5 -8 -3 -9 6 -4 8 5
11 3 8 -6 -3 -8 -11 -13 -17 -11 -7 1 -10 -2 -6 -8 6 -9 -35 -90 -46 -90 -3 0
-18 33 -34 73 -38 97 -76 172 -119 231 -19 27 -33 53 -30 58 3 5 1 7 -4 6 -6
-2 -35 22 -65 53 -128 130 -322 235 -449 242 -26 1 -45 1 -44 -1z m207 -260
c0 -10 3 -12 5 -5 4 8 15 6 37 -7 34 -20 102 -77 78 -64 -9 5 -12 3 -7 -5 4
-6 11 -9 15 -7 10 7 91 -78 131 -137 34 -52 110 -207 110 -227 0 -6 -4 -8 -10
-5 -5 3 -10 1 -10 -4 0 -6 7 -11 15 -11 8 0 15 -2 15 -4 0 -2 3 -11 6 -20 5
-14 3 -14 -28 0 -58 27 -83 43 -81 53 2 6 -3 8 -10 5 -15 -5 -111 74 -160 134
-62 74 -107 156 -101 183 4 18 3 21 -5 9 -10 -15 -13 -11 -47 84 -21 59 -19
67 16 55 17 -6 30 -18 31 -27z m1147 -99 c-2 -5 -9 -19 -15 -33 -45 -102 -66
-139 -75 -134 -6 4 -8 3 -5 -3 8 -13 -22 -55 -34 -48 -5 3 -6 0 -3 -8 5 -13
-23 -45 -34 -39 -3 1 -7 -4 -8 -12 -1 -9 -15 -26 -31 -40 -22 -19 -31 -22 -43
-13 -13 10 -13 10 -2 -4 10 -14 7 -20 -22 -42 -18 -15 -39 -28 -46 -29 -8 -2
-22 -11 -32 -21 -11 -10 -26 -16 -34 -13 -8 3 -13 2 -10 -3 6 -9 -93 -56 -101
-48 -28 28 226 371 260 350 6 -3 7 -1 4 4 -9 14 46 55 136 103 69 37 102 48
95 33z m-3313 -159 c33 -18 59 -37 58 -43 -2 -6 4 -8 13 -4 21 8 228 -201 220
-223 -3 -8 -2 -13 3 -10 9 6 46 -45 81 -113 18 -37 19 -43 5 -37 -9 3 -21 6
-26 6 -6 0 -8 4 -5 9 4 5 -3 7 -13 4 -30 -8 -153 63 -226 129 -36 33 -85 88
-109 122 -49 69 -90 145 -82 153 3 3 -1 12 -9 20 -22 22 -18 35 8 27 12 -4 49
-22 82 -40z m1135 27 c0 -5 -12 -37 -27 -71 -19 -44 -29 -58 -35 -48 -7 9 -8
8 -4 -6 4 -13 -6 -35 -33 -70 -54 -71 -91 -107 -100 -101 -5 2 -15 -3 -22 -13
-13 -16 -13 -16 6 -2 19 14 19 14 6 -3 -24 -31 -100 -79 -113 -71 -7 4 -8 3
-4 -4 8 -13 -76 -54 -134 -67 l-32 -7 27 51 c15 28 32 48 38 44 6 -3 7 -1 3 6
-14 22 146 217 167 204 6 -3 7 -1 3 5 -8 13 97 90 181 132 63 32 73 35 73 21z
m-157 -1023 c-4 -22 -3 -22 11 2 15 24 16 24 9 -20 -3 -25 -10 -46 -14 -48 -4
-2 -6 -9 -3 -16 2 -6 -20 -155 -51 -330 -30 -175 -55 -320 -55 -322 0 -2 -11
-4 -25 -4 -26 0 -35 24 -12 33 9 4 9 6 -1 6 -8 1 -16 -8 -19 -18 -4 -17 -15
-19 -114 -20 -62 0 -109 4 -109 10 0 5 -5 9 -11 9 -5 0 -7 -4 -4 -10 4 -7 -63
-10 -193 -10 l-199 0 -11 63 c-6 34 -29 160 -52 281 -23 120 -39 225 -36 232
3 8 2 14 -3 14 -7 0 -31 117 -31 154 0 14 51 16 464 16 l464 0 -5 -22z m2179
-13 c-2 -19 -8 -35 -13 -35 -5 0 -6 -6 -3 -13 3 -8 -4 -66 -16 -130 -37 -210
-90 -527 -90 -537 0 -6 -123 -10 -344 -10 l-343 0 -7 38 c-3 20 -35 191 -69
380 l-64 342 477 0 476 0 -4 -35z"/>
</g>
</svg>
