<?xml version="1.0" standalone="no"?>
<!DOCTYPE svg PUBLIC "-//W3C//DTD SVG 20010904//EN"
 "http://www.w3.org/TR/2001/REC-SVG-20010904/DTD/svg10.dtd">
<svg version="1.0" xmlns="http://www.w3.org/2000/svg"
 width="1024.000000pt" height="1024.000000pt" viewBox="0 0 1024.000000 1024.000000"
 preserveAspectRatio="xMidYMid meet">
<metadata>
Created by potrace 1.16, written by Peter Selinger 2001-2019
</metadata>
<g transform="translate(0.000000,1024.000000) scale(0.100000,-0.100000)"
fill="#000000" stroke="none">
<path d="M7168 7585 c-407 -56 -677 -181 -943 -437 -62 -59 -116 -104 -120
-100 -5 4 -5 2 -2 -4 4 -6 -18 -42 -49 -80 -112 -141 -220 -315 -773 -1241
-57 -95 -107 -170 -112 -167 -5 3 -7 -1 -4 -8 3 -7 -25 -60 -61 -118 -120
-192 -243 -352 -267 -347 -7 1 -11 -4 -9 -12 4 -19 -49 -73 -65 -67 -7 3 -12
0 -10 -6 3 -16 -135 -130 -150 -123 -8 2 -12 1 -9 -4 11 -16 -207 -146 -230
-137 -8 3 -13 2 -10 -3 8 -12 -80 -49 -295 -127 -255 -92 -424 -180 -551 -286
-27 -22 -53 -36 -60 -32 -6 4 -8 3 -5 -3 3 -5 -19 -34 -49 -64 -181 -176 -324
-425 -388 -675 -40 -157 -46 -256 -46 -748 l0 -477 25 -24 24 -25 675 0 675 0
20 26 c27 34 27 64 0 98 l-20 26 -357 2 -357 3 -3 203 -2 202 762 2 c420 0
769 2 777 2 14 1 16 6 27 64 5 26 2 38 -17 58 l-22 24 -364 0 -363 0 0 330 0
330 740 0 741 0 24 25 c30 29 32 74 6 106 l-19 24 -351 5 -350 5 -4 300 c-3
165 -2 319 0 343 l5 42 704 0 c691 0 704 0 724 20 25 25 26 80 2 110 -18 23
-19 23 -340 23 -228 0 -322 3 -322 11 -1 9 0 712 0 739 0 4 334 7 743 7 l744
0 21 23 c29 30 29 87 2 112 -19 17 -63 18 -812 19 -775 2 -823 0 -850 -27 -1
-1 -5 -200 -8 -442 l-5 -440 -366 -3 c-357 -2 -367 -3 -385 -23 -18 -20 -19
-44 -21 -418 l-3 -396 -371 -5 -371 -5 -19 -24 c-18 -22 -19 -44 -19 -407 l0
-384 -373 0 c-311 0 -376 -2 -393 -15 -12 -8 -23 -13 -25 -10 -2 2 -4 -117 -4
-263 l0 -267 -182 -3 -183 -2 0 437 c0 521 10 612 95 833 33 85 120 236 135
232 6 -1 9 2 5 8 -16 26 223 277 253 265 7 -2 10 -1 7 5 -8 14 127 105 230
155 50 24 158 67 240 96 189 65 358 137 457 195 44 26 83 42 89 38 8 -4 9 -3
5 4 -4 6 15 25 47 45 29 19 70 49 90 67 37 32 38 32 60 14 22 -18 22 -18 5 1
-17 18 -13 23 90 129 117 121 168 185 257 318 32 48 62 85 66 82 5 -3 7 1 4 8
-3 7 45 96 106 198 62 102 136 227 166 278 30 50 59 90 64 86 5 -3 6 1 4 8 -7
17 360 624 375 620 6 -1 9 2 5 8 -8 13 34 82 46 75 5 -4 6 0 4 8 -15 39 355
487 391 473 8 -3 13 0 11 6 -3 17 134 110 238 162 187 94 417 149 670 162 136
6 168 15 184 50 17 38 13 63 -14 89 -23 24 -30 25 -132 24 -59 -1 -152 -7
-205 -14z"/>
</g>
</svg>
