<?xml version="1.0" standalone="no"?>
<!DOCTYPE svg PUBLIC "-//W3C//DTD SVG 20010904//EN"
 "http://www.w3.org/TR/2001/REC-SVG-20010904/DTD/svg10.dtd">
<svg version="1.0" xmlns="http://www.w3.org/2000/svg"
 width="1024.000000pt" height="1024.000000pt" viewBox="0 0 1024.000000 1024.000000"
 preserveAspectRatio="xMidYMid meet">
<metadata>
Created by potrace 1.16, written by Peter Selinger 2001-2019
</metadata>
<g transform="translate(0.000000,1024.000000) scale(0.100000,-0.100000)"
fill="#000000" stroke="none">
<path d="M2035 6841 c-33 -4 -91 -17 -128 -30 -37 -12 -73 -19 -79 -15 -6 4
-8 3 -5 -3 8 -13 -40 -36 -56 -27 -7 4 -9 4 -5 -1 4 -4 -23 -29 -60 -55 -223
-158 -344 -416 -329 -705 9 -177 60 -333 155 -473 23 -33 38 -63 34 -67 -4 -5
-2 -5 4 -2 6 3 24 -8 40 -25 16 -17 55 -52 86 -78 l57 -48 -62 -27 c-289 -128
-480 -263 -620 -440 -22 -27 -44 -49 -49 -47 -5 1 -7 -2 -3 -8 8 -13 -39 -82
-50 -72 -5 4 -5 2 -2 -4 4 -7 -13 -54 -37 -105 -81 -172 -126 -397 -117 -586
2 -65 68 -95 108 -50 17 18 22 41 27 127 12 201 48 346 123 496 50 103 167
259 185 248 6 -4 8 -3 4 4 -14 24 260 232 285 216 7 -4 9 -3 6 3 -7 11 90 59
242 120 67 27 100 47 116 68 36 49 20 81 -79 159 -116 91 -180 165 -232 271
-64 132 -87 247 -81 400 7 151 37 253 106 357 49 73 69 94 148 156 176 138
460 160 676 51 31 -16 57 -32 57 -35 0 -3 -4 -3 -8 0 -5 3 -9 -1 -9 -9 0 -11
4 -12 14 -4 10 9 21 5 48 -15 20 -15 33 -32 29 -37 -3 -5 -1 -8 4 -7 12 4 72
-40 72 -52 0 -6 9 -19 20 -30 12 -12 18 -25 15 -31 -4 -5 -1 -8 6 -7 6 2 29
-31 50 -72 38 -74 49 -107 29 -95 -5 3 -10 1 -10 -4 0 -6 7 -11 15 -11 27 0
40 -78 40 -240 0 -131 -4 -167 -23 -235 -26 -91 -92 -221 -109 -218 -7 2 -10
-3 -7 -10 6 -17 -84 -109 -99 -100 -5 3 -7 1 -4 -4 4 -6 -31 -39 -77 -74 -100
-75 -119 -110 -89 -162 15 -26 48 -47 176 -110 87 -43 155 -82 152 -87 -3 -5
0 -7 8 -4 8 3 20 -2 27 -11 11 -13 10 -14 -4 -9 -9 3 -16 2 -16 -4 0 -5 12 -9
28 -8 17 1 26 -4 24 -12 -1 -8 2 -11 8 -7 34 21 331 -291 316 -332 -4 -9 -2
-11 6 -7 8 5 9 2 5 -9 -3 -9 -1 -19 5 -23 7 -4 8 -3 4 4 -4 7 -4 12 -1 12 12
0 76 -152 71 -166 -3 -8 -2 -13 2 -10 5 3 19 -30 31 -72 31 -105 29 -95 45
-216 16 -117 30 -146 76 -146 65 0 76 38 55 186 -28 199 -80 349 -178 513 -34
57 -61 108 -59 112 1 5 -1 8 -6 7 -4 -2 -39 30 -77 71 -127 134 -267 236 -432
315 -45 22 -80 43 -78 47 3 4 -1 6 -8 5 -6 0 -12 4 -12 9 0 6 6 9 12 9 7 -1
11 2 8 6 -3 5 17 24 44 44 141 104 239 256 293 456 32 122 32 347 0 470 -78
293 -317 532 -597 593 -89 19 -222 27 -300 18z"/>
<path d="M7975 6838 c-38 -5 -82 -10 -97 -11 -14 -1 -24 -5 -21 -9 2 -5 -3 -8
-12 -8 -10 0 -54 -17 -99 -38 -214 -102 -370 -289 -436 -522 -46 -164 -35
-409 26 -567 15 -37 27 -86 27 -109 0 -27 4 -41 13 -41 9 0 10 5 3 18 -21 40
-7 31 18 -11 64 -109 142 -194 236 -259 44 -30 56 -61 19 -46 -9 3 -13 3 -9
-1 4 -4 -38 -29 -93 -55 -54 -26 -132 -69 -172 -96 -40 -26 -80 -48 -88 -48
-8 0 -15 -5 -15 -11 0 -16 -141 -145 -149 -137 -3 3 -6 1 -6 -6 0 -7 -27 -50
-61 -94 -128 -172 -213 -388 -245 -622 -14 -99 -14 -125 -4 -150 7 -16 13 -33
12 -36 -1 -4 8 -5 18 -2 11 3 28 -1 37 -8 10 -8 14 -9 10 -2 -4 7 0 14 11 17
25 8 42 48 42 96 0 60 35 227 68 327 45 134 132 290 154 277 7 -4 8 -2 4 4
-10 16 9 41 96 130 125 129 304 245 472 308 56 21 116 75 116 105 0 30 -26 74
-55 93 -14 9 -23 22 -19 28 4 7 3 8 -4 4 -14 -9 -112 65 -165 124 -160 176
-228 470 -168 723 30 124 124 299 153 281 7 -4 8 -3 4 5 -10 15 57 80 127 125
113 72 228 106 362 106 79 0 187 -18 180 -30 -3 -5 5 -6 17 -2 14 3 19 1 14
-6 -4 -7 -2 -10 7 -6 19 7 110 -33 102 -46 -4 -6 1 -7 11 -3 13 5 15 3 9 -7
-5 -8 -4 -11 2 -7 5 3 20 -1 32 -9 19 -13 20 -18 9 -32 -12 -16 -11 -16 6 -2
17 14 23 10 81 -52 111 -120 163 -246 172 -421 10 -179 -31 -340 -120 -474
-65 -97 -92 -127 -107 -118 -8 5 -11 4 -6 -3 7 -11 -25 -43 -114 -114 -48 -38
-55 -49 -58 -84 -4 -54 22 -76 139 -120 176 -66 451 -227 434 -255 -4 -5 -3
-9 2 -8 15 4 43 -13 37 -22 -3 -5 1 -9 9 -9 18 0 113 -108 109 -123 -2 -7 0
-9 4 -4 10 10 68 -73 113 -163 69 -137 106 -275 121 -450 14 -159 15 -166 45
-186 21 -14 30 -14 55 -4 17 7 30 17 30 22 0 5 4 7 8 4 12 -7 4 155 -14 271
-29 194 -85 344 -182 493 -82 125 -155 207 -260 291 -42 34 -76 65 -75 69 1 4
-4 7 -10 7 -20 0 -67 34 -61 44 3 5 -1 7 -8 4 -17 -6 -170 79 -161 90 5 4 2 5
-5 1 -17 -10 -54 3 -46 16 4 6 2 8 -3 5 -11 -7 -100 20 -108 33 -2 4 28 34 68
67 259 213 370 604 265 933 -115 363 -466 579 -853 528z"/>
<path d="M3959 6177 c-8 -7 -18 -19 -21 -28 -8 -21 29 -203 42 -207 5 -2 8 -7
6 -10 -2 -4 11 -7 29 -7 18 0 32 2 29 4 -2 2 4 9 13 16 15 11 15 22 4 111 -12
103 -27 134 -65 134 -12 0 -28 -6 -37 -13z"/>
<path d="M6212 6181 c-18 -11 -42 -106 -42 -167 0 -71 39 -104 83 -71 15 11
46 144 47 199 0 37 -54 61 -88 39z"/>
<path d="M3550 6075 c-7 -8 -15 -13 -19 -11 -4 3 -5 -11 -3 -29 3 -27 18 -46
76 -97 39 -34 87 -77 106 -95 19 -18 43 -35 52 -39 41 -13 82 43 60 82 -5 10
-56 59 -113 111 -104 93 -134 108 -159 78z"/>
<path d="M6543 6017 c-48 -41 -96 -84 -107 -95 -10 -12 -23 -19 -29 -15 -5 3
-7 2 -4 -3 3 -6 2 -16 -3 -23 -13 -22 9 -70 36 -77 17 -4 34 1 58 19 18 15 37
23 41 19 5 -4 5 -2 2 5 -4 6 25 38 72 78 80 67 91 81 91 115 0 19 -35 50 -57
50 -7 0 -52 -33 -100 -73z"/>
<path d="M5800 5835 c-7 -8 -16 -13 -20 -10 -17 10 -19 -14 -5 -47 7 -19 30
-47 50 -62 19 -15 33 -32 29 -37 -3 -5 -2 -8 3 -7 4 1 28 -12 51 -29 l44 -32
-327 2 -327 2 -19 -24 c-24 -30 -24 -56 1 -81 20 -20 31 -20 356 -18 l335 3
-28 -23 c-15 -12 -33 -26 -38 -30 -6 -4 -27 -22 -48 -40 -21 -18 -43 -30 -48
-26 -5 3 -8 2 -7 -3 1 -4 -6 -20 -16 -35 -17 -26 -17 -30 -2 -54 37 -55 68
-46 193 57 142 118 203 180 203 206 0 26 -22 51 -110 124 -36 30 -74 62 -85
72 -50 46 -139 107 -155 107 -10 0 -23 -7 -30 -15z"/>
<path d="M4334 5811 c-83 -61 -250 -214 -263 -241 -12 -25 -12 -32 5 -58 10
-16 54 -60 96 -97 43 -37 75 -72 71 -78 -3 -5 -2 -8 3 -4 5 3 36 -15 68 -39
67 -51 98 -54 127 -14 26 35 16 61 -42 105 -27 20 -46 42 -42 48 3 5 2 8 -3 4
-5 -3 -25 8 -44 24 l-35 28 332 1 332 0 20 26 c26 33 26 45 2 75 l-19 24 -329
-2 -328 -3 36 33 c19 17 59 53 87 78 29 25 52 50 52 56 0 21 -42 63 -64 63
-13 0 -41 -13 -62 -29z"/>
</g>
</svg>
