<?xml version="1.0" standalone="no"?>
<!DOCTYPE svg PUBLIC "-//W3C//DTD SVG 20010904//EN" "http://www.w3.org/TR/2001/REC-SVG-20010904/DTD/svg10.dtd">
<svg xmlns="http://www.w3.org/2000/svg" version="1.0" width="1024.000000pt" height="1024.000000pt" viewBox="0 0 1024.000000 1024.000000" preserveAspectRatio="xMidYMid meet">
<metadata>
Created by potrace 1.16, written by Peter Selinger 2001-2019
<meta name="Producer" content="Online-Convert"/></metadata>
<g transform="translate(0.000000,1024.000000) scale(0.100000,-0.100000)" fill="#000000" stroke="none">
<path d="M5187 9056 c-35 -27 -48 -32 -58 -23 -11 10 -11 9 -1 -4 10 -13 7 -20 -11 -37 -13 -12 -27 -19 -32 -15 -4 5 -5 3 -2 -3 7 -12 -145 -168 -156 -159 -4 3 -5 2 -2 -2 7 -9 -26 -44 -37 -37 -4 3 -7 1 -6 -4 4 -15 -223 -242 -235 -235 -6 3 -7 1 -3 -5 8 -13 -210 -242 -227 -238 -7 1 -8 1 -3 -2 4 -2 -22 -35 -60 -73 -37 -37 -72 -65 -77 -62 -6 3 -7 2 -4 -4 8 -13 -167 -186 -178 -176 -4 4 -6 3 -2 -2 8 -15 -25 -56 -48 -59 -11 -2 -20 -8 -20 -15 0 -17 -295 -322 -306 -315 -5 3 -8 0 -7 -8 2 -7 -3 -12 -10 -10 -8 1 -11 -1 -8 -6 7 -12 -138 -154 -148 -145 -4 4 -6 3 -4 -3 1 -6 -23 -39 -55 -75 -84 -92 -88 -103 -77 -245 5 -65 11 -189 15 -274 3 -85 10 -236 15 -335 5 -99 14 -331 20 -515 6 -184 12 -375 15 -425 14 -291 17 -568 7 -561 -7 4 -12 2 -12 -3 0 -6 6 -11 13 -11 8 0 13 -24 15 -78 1 -42 9 -255 17 -472 8 -217 17 -471 20 -565 3 -93 8 -222 11 -287 l6 -116 -53 -10 c-328 -64 -672 -75 -975 -32 -46 7 -81 16 -78 21 3 5 -1 7 -8 4 -7 -3 -38 2 -68 10 -30 8 -63 17 -73 20 -10 2 -28 7 -40 11 -27 8 -130 57 -137 64 -3 4 -21 12 -40 20 -19 8 -74 53 -121 100 -92 91 -127 150 -154 257 -19 79 -25 270 -7 259 5 -3 6 9 4 26 -3 18 -1 28 5 25 5 -3 8 6 6 21 -5 34 44 184 93 288 60 126 115 215 126 207 6 -3 8 -1 4 5 -11 17 156 250 176 244 5 -1 7 2 4 7 -9 15 72 106 92 103 12 -2 13 0 4 6 -9 6 3 25 44 70 31 34 60 59 65 56 5 -3 8 -1 7 5 -5 17 124 153 139 147 8 -3 11 -1 8 5 -8 12 126 140 139 132 5 -4 6 -2 3 4 -7 12 66 86 76 77 4 -4 7 -1 7 6 0 22 33 40 50 27 12 -9 13 -9 2 3 -10 12 -6 19 19 42 17 16 35 25 41 22 6 -4 8 -2 5 3 -4 6 13 28 36 49 97 88 117 104 126 104 11 0 3 39 -12 58 -20 26 -57 12 -127 -49 -39 -33 -80 -62 -92 -64 -11 -3 -23 -7 -27 -11 -3 -4 3 -4 13 0 19 7 19 6 2 -13 -10 -11 -23 -18 -28 -15 -4 3 -7 2 -6 -3 3 -9 -124 -133 -136 -133 -4 0 -4 4 -1 10 4 6 -1 7 -11 3 -12 -4 -14 -8 -5 -11 9 -3 6 -11 -10 -28 -12 -13 -27 -21 -33 -17 -6 3 -8 2 -3 -2 4 -5 -60 -76 -141 -159 -82 -83 -179 -187 -216 -231 -38 -44 -72 -79 -77 -78 -5 2 -8 -1 -6 -6 2 -10 -183 -261 -193 -261 -4 0 -7 -6 -7 -12 0 -7 -24 -51 -52 -97 -28 -46 -51 -88 -51 -93 0 -5 -5 -6 -11 -3 -6 4 -9 1 -7 -6 1 -8 -4 -29 -11 -47 -11 -25 -16 -30 -23 -20 -7 10 -8 8 -4 -4 3 -10 -4 -39 -15 -65 -63 -146 -91 -281 -93 -438 0 -66 -5 -126 -9 -132 -5 -8 -3 -11 5 -8 12 5 35 -61 41 -115 1 -8 4 -17 7 -20 19 -18 41 -64 36 -76 -3 -8 -2 -12 3 -9 10 6 77 -85 73 -98 -1 -5 2 -6 6 -3 12 7 44 -28 35 -38 -5 -4 -2 -6 6 -4 8 2 20 -8 28 -22 7 -14 13 -19 13 -11 0 11 6 9 22 -6 13 -11 37 -28 55 -38 18 -10 29 -23 26 -28 -3 -6 -1 -7 4 -4 6 4 48 -11 94 -32 182 -86 445 -132 744 -131 225 1 353 12 623 56 27 4 42 3 42 -4 0 -6 3 -18 6 -26 5 -12 2 -15 -12 -10 -18 5 -18 5 -1 -9 16 -13 18 -30 15 -150 -2 -74 -1 -134 2 -132 3 1 17 -17 32 -41 15 -24 24 -44 20 -44 -4 0 -9 -11 -10 -25 -1 -14 3 -25 9 -25 6 0 9 7 6 15 -4 8 -2 17 3 20 13 8 43 -42 34 -56 -4 -8 -3 -9 4 -5 6 4 26 -15 46 -46 29 -42 33 -55 23 -67 -10 -14 -10 -14 4 -4 13 11 20 6 42 -28 15 -23 24 -45 21 -50 -3 -5 -1 -8 4 -7 5 2 31 -28 57 -65 40 -59 45 -70 33 -85 -11 -15 -11 -15 3 -4 13 10 19 10 29 -2 6 -9 8 -21 4 -27 -4 -7 -3 -9 3 -6 12 7 108 -130 108 -153 0 -8 5 -15 12 -15 16 0 124 -156 116 -168 -3 -6 -1 -7 5 -3 12 7 16 -4 13 -34 -1 -11 0 -12 7 -3 5 9 23 -10 57 -60 26 -39 48 -77 48 -84 0 -6 4 -11 9 -10 5 1 16 -11 26 -28 9 -16 20 -31 25 -33 4 -2 7 -8 7 -13 0 -6 -4 -8 -9 -4 -5 3 -12 1 -16 -4 -3 -6 3 -8 15 -6 15 3 29 -10 60 -55 40 -60 48 -76 30 -65 -16 10 -11 -1 7 -16 15 -12 16 -12 9 1 -22 39 25 -22 86 -111 47 -68 63 -100 57 -110 -13 -21 -11 -35 4 -18 6 8 11 12 10 10 -1 -2 9 -13 23 -23 14 -11 23 -22 21 -25 -3 -2 6 -15 20 -29 13 -13 21 -29 17 -36 -4 -6 -3 -8 3 -5 12 7 49 -42 44 -58 -1 -5 0 -7 4 -3 4 3 21 0 38 -7 39 -16 82 -5 109 30 20 26 236 370 418 667 46 75 87 135 91 133 4 -3 6 3 5 13 0 9 5 16 12 14 8 -1 11 2 7 8 -4 6 29 68 72 138 44 70 90 144 102 165 20 33 25 36 40 25 14 -11 14 -11 3 3 -13 17 -6 53 8 44 4 -3 7 3 6 13 -1 12 5 16 19 14 14 -2 16 0 7 6 -10 7 -4 24 26 73 80 131 103 164 115 164 7 1 11 6 10 12 -1 6 19 30 45 54 26 24 92 84 147 135 124 114 150 135 159 126 4 -4 6 -2 4 5 -2 6 38 51 89 100 l92 88 41 270 c22 149 63 425 91 615 28 190 54 352 57 360 3 8 5 18 4 22 -3 12 71 58 82 51 6 -3 8 -3 4 2 -11 11 29 38 44 29 6 -4 8 -3 5 4 -9 13 110 95 125 86 7 -4 8 -3 4 4 -6 11 31 38 47 34 4 -1 7 2 7 7 0 6 27 31 60 56 49 38 64 44 75 35 12 -10 13 -8 10 8 -4 23 49 67 67 56 6 -4 8 -3 5 3 -7 11 100 96 120 96 7 0 10 4 8 8 -3 4 28 33 68 65 39 32 74 61 77 64 3 3 37 32 75 65 39 33 95 83 125 111 118 109 147 134 153 129 4 -3 5 -2 2 2 -8 10 47 63 58 56 6 -3 7 -2 4 4 -8 13 67 86 77 76 4 -5 6 -3 4 3 -5 18 91 125 105 118 7 -4 9 -4 5 1 -10 11 81 127 94 119 6 -4 8 -2 5 3 -4 6 20 45 53 86 179 227 327 508 381 722 31 123 33 313 4 400 -10 33 -19 65 -20 70 0 6 -8 18 -18 28 -10 10 -16 25 -13 33 3 8 2 12 -4 9 -11 -7 -32 29 -22 40 4 5 2 5 -5 1 -14 -8 -45 33 -36 48 3 6 3 8 -2 4 -4 -4 -24 7 -44 25 -20 17 -49 42 -66 55 -16 13 -24 20 -16 16 9 -5 12 -3 7 5 -4 6 -11 9 -15 6 -9 -5 -134 59 -127 66 2 2 -5 5 -17 6 -12 1 -65 13 -117 28 -133 36 -305 49 -471 36 -167 -14 -203 -38 -145 -96 15 -15 20 -26 13 -29 -7 -2 -2 -5 11 -5 13 -1 30 5 37 13 9 9 52 16 124 21 118 8 203 2 343 -21 94 -15 221 -60 212 -75 -3 -5 1 -6 9 -4 17 7 128 -65 120 -78 -3 -6 -1 -7 4 -4 11 7 123 -106 123 -124 0 -6 -5 -7 -12 -3 -7 4 -8 3 -4 -5 4 -6 11 -9 16 -6 10 6 36 -48 49 -105 15 -67 22 -140 13 -140 -4 0 -6 -18 -4 -40 5 -47 -20 -166 -55 -265 -38 -107 -105 -245 -116 -238 -6 3 -7 1 -3 -5 7 -12 -82 -164 -93 -158 -4 3 -8 -1 -8 -8 0 -23 -44 -86 -55 -80 -7 4 -8 2 -4 -5 10 -15 -92 -143 -106 -134 -7 4 -8 1 -3 -6 8 -14 -43 -74 -56 -65 -4 2 -11 -1 -15 -7 -4 -8 -3 -9 4 -5 23 14 12 -10 -16 -37 -16 -15 -32 -24 -36 -20 -4 5 -7 4 -6 -2 5 -21 0 -36 -10 -30 -5 3 -10 0 -10 -8 0 -18 -349 -369 -360 -362 -4 3 -11 -2 -14 -10 -3 -8 -11 -14 -18 -13 -7 2 -12 -2 -11 -9 3 -16 -66 -75 -79 -67 -6 4 -8 3 -4 -4 8 -13 -64 -73 -77 -65 -6 3 -7 1 -4 -4 8 -13 -63 -69 -82 -65 -7 2 -10 -1 -7 -6 7 -12 -85 -91 -113 -97 -29 -5 -42 -15 -36 -25 8 -13 -143 -122 -157 -114 -6 4 -8 3 -5 -4 6 -9 -51 -53 -241 -186 -30 -21 -55 -36 -57 -34 -2 2 21 161 50 353 30 193 70 454 90 580 19 127 42 271 50 322 8 50 33 212 55 360 91 618 110 740 121 786 16 67 6 100 -46 161 -25 29 -41 57 -37 61 4 5 2 5 -5 2 -13 -8 -76 66 -65 78 4 5 2 5 -5 1 -15 -8 -79 70 -75 93 2 12 1 13 -6 3 -7 -10 -18 -3 -45 29 -20 23 -34 46 -31 51 3 5 1 7 -5 6 -9 -3 -115 111 -316 337 -38 44 -92 103 -118 133 -28 31 -45 58 -41 65 4 7 3 9 -1 4 -11 -10 -56 33 -48 46 3 6 2 8 -3 5 -11 -6 -227 239 -227 258 0 7 -4 11 -8 8 -10 -6 -115 114 -111 127 1 6 -1 8 -6 5 -5 -3 -24 14 -43 37 -19 23 -58 69 -88 102 -96 107 -117 130 -174 194 -31 35 -54 68 -50 75 3 6 3 8 -2 4 -4 -4 -28 10 -51 32 -57 52 -95 54 -157 6z m178 -187 c3 -12 7 -24 11 -28 4 -3 4 3 1 14 -6 15 -1 13 18 -8 14 -16 22 -33 19 -39 -4 -6 -2 -8 4 -4 11 7 109 -100 105 -115 -2 -5 3 -8 10 -6 6 1 11 -4 10 -10 -2 -7 2 -13 8 -13 5 0 7 -5 3 -12 -4 -6 -3 -8 3 -5 11 7 66 -45 61 -59 -2 -5 2 -11 7 -12 19 -7 35 -24 29 -33 -3 -5 -1 -8 4 -7 5 2 35 -26 67 -62 32 -36 73 -82 91 -102 19 -20 32 -43 31 -50 -2 -7 -2 -9 1 -5 2 4 10 3 18 -4 8 -6 11 -15 8 -20 -3 -5 0 -8 8 -7 7 2 12 -3 10 -10 -1 -8 1 -11 6 -8 13 8 123 -124 116 -136 -4 -6 -2 -8 3 -5 13 8 116 -107 106 -117 -3 -3 1 -6 9 -6 20 0 46 -39 42 -63 -1 -9 2 -15 7 -11 5 3 7 11 3 17 -3 7 13 -8 35 -32 22 -25 39 -50 38 -55 -1 -6 3 -10 10 -9 13 3 99 -96 96 -109 -2 -4 1 -7 6 -5 13 3 132 -130 129 -145 -2 -7 2 -12 9 -11 15 3 234 -242 225 -252 -4 -4 -1 -5 5 -3 14 3 93 -80 93 -97 -1 -13 -136 -111 -150 -107 -5 1 -9 -2 -8 -7 4 -14 -212 -172 -224 -165 -6 4 -8 2 -4 -4 8 -14 -220 -186 -235 -176 -7 4 -9 3 -5 -4 7 -11 -47 -55 -58 -47 -3 3 -4 2 -1 -1 4 -6 -9 -18 -89 -79 -18 -13 -22 -13 -43 7 -12 11 -20 25 -16 31 3 6 1 7 -5 3 -13 -8 -493 424 -485 437 3 6 2 7 -4 4 -12 -7 -179 140 -175 154 1 6 -1 8 -6 5 -8 -5 -8 -5 -200 167 -73 66 -129 123 -126 128 3 5 -3 6 -12 2 -14 -5 -16 -3 -11 11 4 10 3 15 -3 11 -6 -4 -10 8 -10 27 1 45 44 201 53 191 5 -4 5 0 2 9 -3 8 12 82 33 164 92 344 176 668 209 799 19 77 37 147 39 155 6 18 63 -40 69 -71z m-188 -2 c-7 -27 -16 -45 -20 -40 -5 4 -5 0 -2 -8 5 -14 -28 -168 -56 -254 -5 -16 -61 -232 -124 -480 -64 -247 -119 -457 -123 -466 -11 -26 -114 -109 -126 -102 -6 3 -8 3 -4 -2 10 -11 -11 -37 -23 -29 -5 3 -8 1 -7 -4 4 -14 -223 -213 -235 -205 -5 3 -7 2 -4 -4 3 -5 -20 -32 -51 -59 -31 -27 -93 -81 -137 -119 -282 -248 -266 -236 -284 -222 -40 27 -348 285 -390 326 -26 23 -37 40 -27 37 16 -5 17 -4 6 9 -7 8 -17 12 -24 9 -6 -4 34 39 88 94 55 56 104 98 110 95 6 -3 7 -2 3 2 -9 11 113 136 125 129 5 -3 7 -1 6 5 -4 15 482 512 493 505 5 -3 8 -1 7 4 -4 13 384 408 397 404 5 -2 7 0 2 4 -10 10 53 75 66 67 6 -3 7 -2 4 4 -7 11 96 116 106 108 4 -3 5 -2 2 2 -8 9 156 173 167 167 4 -3 8 0 8 7 0 12 51 72 56 66 2 -1 -2 -24 -9 -50z m-57 -1552 c91 -81 165 -153 165 -159 1 -6 6 -10 13 -8 7 1 15 -5 18 -13 3 -8 10 -13 14 -10 8 5 46 -34 43 -44 -2 -3 1 -6 7 -6 5 0 15 -6 22 -14 11 -12 11 -13 -1 -6 -10 5 -12 4 -7 -4 4 -6 12 -9 17 -5 13 7 150 -126 142 -139 -3 -5 0 -7 8 -5 17 6 49 -19 45 -35 -2 -7 -1 -9 1 -4 9 14 25 7 19 -9 -3 -8 -2 -12 4 -9 12 7 82 -54 74 -66 -3 -5 -1 -8 4 -7 12 4 103 -70 99 -80 -1 -4 3 -9 8 -10 30 -11 45 -24 39 -35 -4 -7 -3 -9 1 -4 12 10 86 -63 78 -77 -3 -6 -3 -8 2 -4 14 13 35 -13 35 -42 0 -15 -20 -121 -44 -236 -24 -115 -49 -235 -56 -267 -6 -31 -15 -55 -18 -53 -4 2 -8 -17 -9 -43 -3 -58 -138 -690 -145 -676 -2 6 -3 4 -1 -4 2 -8 -26 -156 -62 -330 -92 -442 -97 -466 -107 -444 -6 13 -7 12 -3 -7 2 -14 5 -30 5 -37 0 -17 52 -32 78 -22 12 5 22 10 22 11 0 6 119 583 149 723 17 77 49 231 72 342 23 111 46 200 50 198 4 -3 5 3 3 13 -3 9 24 155 60 322 36 168 75 354 87 413 21 99 26 111 55 134 19 14 38 22 45 17 7 -4 9 -3 6 4 -4 5 16 27 45 48 29 21 74 56 100 77 28 24 51 36 59 31 7 -4 10 -3 6 3 -7 11 189 166 209 166 7 0 12 4 11 8 -3 11 253 203 260 195 2 -2 -15 -120 -36 -262 -22 -142 -48 -313 -57 -379 -10 -66 -20 -122 -23 -125 -3 -3 -6 -21 -7 -40 -1 -63 -57 -419 -66 -414 -4 3 -5 -2 -2 -10 8 -20 -77 -569 -89 -577 -5 -4 -6 -12 -3 -18 6 -9 -7 -105 -77 -551 l-12 -74 -85 -53 c-47 -29 -91 -50 -98 -48 -8 3 -10 0 -6 -7 5 -8 2 -9 -10 -5 -9 4 -15 3 -12 -2 8 -13 -82 -64 -96 -55 -7 5 -8 3 -3 -6 6 -10 4 -12 -9 -7 -9 4 -15 3 -12 -1 7 -12 -122 -84 -136 -76 -6 4 -8 3 -5 -3 11 -18 -594 -328 -620 -319 -8 3 -12 2 -9 -3 9 -14 -439 -215 -461 -206 -8 2 -12 1 -9 -4 7 -11 -105 -54 -114 -44 -15 17 -662 2633 -656 2650 3 8 2 12 -2 9 -5 -3 -25 63 -45 147 l-37 152 72 67 c40 36 76 64 81 61 4 -2 7 1 7 7 0 6 5 8 12 4 6 -4 8 -3 5 3 -5 9 196 195 323 299 19 16 40 35 46 43 7 9 16 11 25 6 8 -5 11 -4 6 0 -10 11 23 46 36 38 5 -3 7 -2 4 4 -4 6 17 30 46 54 28 24 75 65 104 92 29 27 57 46 63 42 6 -3 10 -3 9 2 -4 25 4 24 34 -4 17 -16 106 -97 197 -178z m-1589 -196 c16 -15 20 -23 12 -26 -7 -3 -13 -9 -13 -14 0 -6 7 -6 18 0 15 8 34 -3 103 -60 46 -38 84 -75 84 -81 0 -6 8 -12 19 -14 10 -1 24 -8 30 -15 8 -9 7 -10 -4 -4 -8 5 -11 4 -7 0 4 -5 14 -10 22 -11 23 -3 65 -38 60 -51 -2 -7 2 -10 9 -7 7 3 30 -12 52 -33 35 -35 42 -50 67 -150 16 -62 25 -118 21 -124 -4 -7 -3 -9 3 -6 6 4 13 -6 16 -22 3 -16 9 -42 12 -57 5 -22 4 -25 -4 -14 -6 9 -11 10 -11 3 0 -19 12 -43 19 -38 11 6 94 -341 86 -356 -5 -7 -4 -10 2 -6 10 6 40 -103 36 -133 -1 -8 2 -17 6 -20 13 -9 93 -348 85 -361 -4 -7 -3 -10 2 -6 5 3 33 -92 63 -211 29 -119 55 -225 58 -236 3 -12 1 -16 -6 -12 -16 10 -13 -5 3 -18 22 -17 160 -584 146 -601 -8 -10 -8 -15 1 -21 8 -4 9 -3 5 4 -4 7 -3 12 2 12 12 0 55 -177 46 -192 -5 -7 -3 -8 6 -3 10 6 12 1 7 -26 -3 -19 -3 -27 0 -19 6 15 102 -348 103 -387 0 -26 -42 -58 -65 -49 -9 3 -14 2 -11 -2 3 -5 -20 -16 -50 -26 -46 -15 -58 -15 -72 -4 -15 11 -15 11 -5 -3 11 -14 -8 -22 -165 -72 -238 -76 -362 -109 -379 -103 -8 3 -12 2 -9 -3 7 -11 -281 -79 -289 -69 -1 2 -8 154 -14 338 -6 184 -16 448 -21 585 -11 291 -18 493 -25 765 -3 107 -8 211 -10 230 -6 50 -20 520 -20 673 0 70 -3 127 -6 127 -3 0 -9 82 -12 183 -11 313 -26 639 -33 705 -3 34 -4 62 -1 62 2 0 15 -10 28 -21z m2914 -2646 c-8 -73 -68 -478 -101 -688 -70 -448 -71 -454 -97 -438 -5 3 -7 1 -3 -5 8 -13 -64 -73 -77 -65 -6 3 -7 1 -3 -5 8 -13 -80 -89 -97 -84 -7 2 -9 0 -4 -4 4 -4 -3 -18 -15 -31 -23 -24 -44 -31 -32 -10 4 7 3 9 -2 4 -5 -5 -9 -14 -9 -20 -1 -7 -7 -11 -15 -9 -8 2 -12 0 -7 -4 9 -10 -52 -74 -71 -74 -7 0 -11 -4 -8 -9 3 -5 -1 -12 -10 -15 -8 -3 -12 -2 -9 3 3 5 1 12 -4 16 -6 3 -8 -3 -6 -14 2 -13 -9 -32 -36 -55 -21 -20 -43 -36 -48 -36 -15 0 -182 171 -176 180 3 6 -1 7 -9 4 -15 -6 -21 6 -16 31 1 5 -2 7 -6 2 -10 -9 -55 33 -48 45 3 5 2 7 -3 6 -11 -4 -83 52 -83 64 0 5 5 6 12 2 7 -4 8 -3 4 4 -4 6 -12 9 -19 7 -7 -3 -19 6 -28 18 -15 20 -14 33 17 182 18 88 41 198 52 245 23 103 17 130 -28 130 -22 0 -33 -6 -40 -22 -5 -13 -32 -129 -60 -257 -28 -129 -56 -241 -62 -248 -21 -26 -219 -144 -230 -137 -6 4 -8 3 -5 -3 7 -12 -72 -65 -92 -61 -18 4 -104 342 -96 378 4 17 3 21 -3 12 -6 -10 -16 14 -31 75 -35 141 -38 127 36 156 36 15 71 24 77 20 6 -3 8 -2 4 2 -5 5 54 34 130 65 75 31 181 78 236 103 54 26 102 45 106 42 5 -3 10 -1 12 4 4 11 450 236 465 235 7 -1 11 1 8 5 -5 10 84 53 95 46 5 -3 12 0 16 6 5 8 2 10 -7 5 -8 -4 -5 0 5 8 23 19 40 21 30 4 -4 -7 -3 -8 5 -4 6 4 9 11 6 16 -7 12 72 53 86 45 5 -4 8 -2 7 4 -2 8 270 177 291 180 2 1 0 -25 -4 -56z m-1667 -1006 c31 -124 50 -221 46 -232 -5 -11 -4 -16 3 -12 6 4 18 -32 31 -90 21 -93 21 -120 0 -107 -7 4 -8 2 -4 -5 7 -11 -107 -205 -116 -196 -3 3 -5 -1 -5 -8 0 -13 -136 -241 -156 -262 -7 -7 -7 -5 -2 4 5 10 4 12 -4 7 -6 -4 -9 -12 -5 -17 3 -6 -6 -28 -21 -50 l-26 -40 -27 17 c-87 56 -101 67 -97 74 5 8 -23 24 -40 22 -5 -1 -21 8 -35 19 -14 11 -19 17 -11 13 9 -5 12 -3 7 5 -4 6 -11 9 -16 6 -13 -8 -121 66 -113 78 3 5 1 7 -5 3 -6 -3 -17 1 -25 9 -9 8 -18 15 -21 15 -14 0 -91 63 -88 72 1 5 -2 7 -8 3 -5 -3 -45 18 -87 48 -43 30 -118 81 -168 114 -134 90 -127 78 -133 252 -4 114 -2 150 8 156 9 6 11 4 6 -6 -4 -8 -1 -6 7 3 14 18 261 81 319 82 14 1 25 4 23 7 -2 3 49 20 113 38 136 39 526 167 551 181 41 24 45 17 99 -203z m754 -424 c104 -103 188 -192 188 -198 -1 -20 -97 -165 -105 -157 -5 4 -5 2 -2 -4 8 -14 -27 -66 -38 -57 -4 5 -5 2 -1 -5 5 -7 -7 -35 -28 -67 -20 -29 -39 -61 -42 -69 -3 -9 -9 -14 -13 -11 -4 2 -8 -1 -8 -8 0 -23 -106 -187 -116 -180 -6 3 -7 1 -3 -5 9 -15 -63 -134 -76 -126 -7 4 -8 2 -4 -4 7 -12 -204 -367 -231 -389 -8 -6 -14 -14 -13 -18 3 -7 -198 -333 -209 -339 -8 -5 -63 223 -65 266 -1 14 -3 24 -5 22 -5 -5 -38 123 -121 473 l-53 222 35 58 c284 465 323 525 332 515 4 -4 7 -2 6 3 -6 26 5 37 78 81 42 27 126 79 186 116 60 37 112 68 115 68 3 0 90 -84 193 -187z m-1568 -319 c30 -20 53 -41 49 -47 -3 -6 -1 -7 6 -3 15 10 43 -13 34 -27 -3 -6 -1 -7 6 -3 7 5 28 -4 49 -21 20 -15 56 -40 80 -56 26 -16 40 -32 36 -39 -4 -7 -3 -8 4 -4 7 4 43 -14 82 -40 60 -40 68 -49 58 -63 -10 -13 -10 -14 2 -4 11 10 21 8 49 -9 77 -47 81 -55 122 -229 51 -213 54 -228 39 -209 -10 13 -11 12 -6 -3 3 -10 6 -24 6 -30 0 -8 4 -7 9 2 6 10 12 -3 21 -42 6 -31 8 -62 4 -68 -4 -7 -3 -9 3 -6 11 7 47 -128 46 -170 -1 -13 3 -21 7 -18 4 3 10 -9 12 -25 5 -34 -12 -41 -27 -11 -6 11 -52 78 -103 151 -71 100 -91 134 -82 145 8 9 7 14 -4 18 -11 4 -13 1 -9 -11 9 -25 -6 -8 -66 76 -28 40 -49 77 -46 83 4 5 2 8 -3 7 -14 -4 -123 153 -115 165 3 6 2 7 -3 4 -6 -3 -46 47 -89 110 -84 122 -95 140 -76 129 6 -4 11 -2 11 4 0 6 -6 10 -14 8 -9 -2 -50 47 -101 120 -71 101 -85 125 -75 137 17 21 20 20 84 -21z"/>
<path d="M7698 3861 c-34 -72 -66 -127 -71 -124 -6 3 -7 1 -4 -4 14 -22 -217 -357 -240 -348 -7 2 -10 -1 -7 -8 6 -16 -75 -109 -88 -101 -6 4 -8 2 -5 -3 6 -10 -30 -51 -39 -45 -2 1 -4 -1 -5 -5 -2 -15 -21 -33 -30 -27 -5 3 -8 0 -7 -8 2 -7 -4 -12 -12 -10 -8 2 -12 0 -7 -4 10 -11 -44 -65 -57 -57 -6 3 -8 2 -4 -2 13 -14 -103 -110 -117 -97 -5 4 -5 2 -2 -5 11 -17 -175 -155 -199 -147 -14 4 -15 3 -6 -4 10 -7 -11 -25 -80 -69 -160 -103 -373 -218 -449 -242 -42 -13 -69 -52 -51 -74 7 -8 10 -16 7 -18 -2 -3 9 -6 25 -7 16 -1 55 10 87 24 32 15 69 26 83 26 14 0 19 2 11 5 -7 3 22 24 69 49 89 48 95 50 84 32 -5 -7 -3 -8 5 -4 7 5 10 10 7 13 -8 9 217 143 227 136 6 -3 7 -1 4 4 -4 6 4 18 18 27 19 12 25 13 26 4 0 -7 3 -5 7 4 10 25 141 120 154 112 6 -4 8 -3 4 4 -7 11 70 79 85 75 5 -2 8 1 6 6 -3 12 99 102 107 93 4 -4 6 -2 4 4 -4 14 143 164 155 157 6 -3 7 -1 4 4 -7 11 26 46 35 37 3 -3 5 3 5 13 -1 11 4 17 13 15 8 -2 12 0 8 3 -10 11 42 76 55 68 5 -3 7 -2 4 4 -4 5 13 37 37 69 107 149 229 362 266 466 17 48 17 55 3 71 -9 9 -27 17 -39 17 -20 0 -32 -19 -86 -129z"/>
</g>
</svg>
