<?xml version="1.0" standalone="no"?>
<!DOCTYPE svg PUBLIC "-//W3C//DTD SVG 20010904//EN"
 "http://www.w3.org/TR/2001/REC-SVG-20010904/DTD/svg10.dtd">
<svg version="1.0" xmlns="http://www.w3.org/2000/svg"
 width="1024.000000pt" height="1024.000000pt" viewBox="0 0 1024.000000 1024.000000"
 preserveAspectRatio="xMidYMid meet">
<metadata>
Created by potrace 1.16, written by Peter Selinger 2001-2019
</metadata>
<g transform="translate(0.000000,1024.000000) scale(0.100000,-0.100000)"
fill="#000000" stroke="none">
<path d="M4863 8065 c-150 -41 -249 -132 -429 -396 -233 -343 -370 -492 -984
-1069 -284 -268 -375 -354 -381 -363 -4 -5 -12 -6 -19 -2 -8 5 -11 4 -7 -3 8
-12 -129 -142 -146 -138 -7 1 -8 1 -3 -2 4 -2 -26 -39 -67 -81 -129 -131 -185
-267 -174 -426 4 -44 15 -107 26 -140 14 -43 17 -63 9 -72 -8 -10 -7 -12 5 -8
10 4 17 0 21 -13 4 -10 22 -45 41 -76 19 -32 32 -63 28 -69 -3 -5 -1 -7 4 -4
13 8 48 -42 36 -52 -4 -4 -28 -23 -53 -42 -165 -127 -285 -345 -320 -580 -16
-108 -8 -330 15 -413 36 -129 119 -255 219 -330 125 -94 206 -118 679 -202 86
-15 157 -31 157 -36 0 -4 -5 -8 -11 -8 -5 0 -7 -5 -4 -11 5 -6 11 -4 19 7 12
15 29 14 247 -21 129 -20 241 -39 249 -42 8 -4 18 -6 22 -5 8 2 108 -12 373
-53 293 -44 448 -65 482 -65 17 0 35 -5 38 -10 4 -6 11 -8 16 -5 5 4 60 -1
121 -9 62 -9 150 -19 196 -22 45 -4 82 -10 82 -13 0 -3 24 -6 53 -7 28 0 126
-8 216 -17 349 -36 586 -17 946 74 348 87 634 207 753 315 165 149 242 366
214 605 -23 190 -93 350 -207 467 -34 34 -59 66 -56 70 3 4 2 4 -3 0 -4 -4
-26 4 -47 18 -21 13 -57 31 -80 41 l-42 16 29 21 c58 41 147 132 186 190 76
110 130 259 164 449 25 141 23 417 -5 521 -66 247 -206 383 -443 431 -79 16
-388 37 -803 56 -143 7 -261 13 -263 14 -1 1 16 40 38 87 116 248 112 519 -11
762 -81 159 -219 301 -394 403 -158 93 -429 234 -482 252 -73 25 -172 27 -250
6z m202 -160 c33 -9 119 -49 190 -89 72 -41 179 -100 239 -132 86 -47 128 -78
202 -149 52 -50 94 -97 94 -104 0 -11 -3 -11 -17 0 -15 13 -15 12 -2 -8 7 -12
16 -18 20 -12 8 14 21 -3 62 -86 54 -107 71 -183 71 -310 0 -277 -104 -446
-533 -875 -356 -355 -568 -553 -583 -544 -7 4 -10 3 -5 -1 9 -11 -52 -75 -72
-75 -8 0 -11 -3 -7 -7 9 -9 -65 -84 -76 -77 -5 3 -7 1 -6 -4 5 -16 -258 -256
-393 -359 l-65 -50 4 86 c5 110 -15 206 -66 313 -21 46 -40 88 -42 93 -2 6 -8
15 -14 20 -7 6 -38 45 -70 87 -58 77 -125 145 -221 221 -27 22 -49 44 -47 49
1 5 -2 7 -7 4 -5 -3 -40 13 -78 36 -87 53 -197 103 -270 123 -32 9 -65 19 -73
22 -13 5 -68 10 -139 12 -19 1 2 25 120 139 78 75 147 136 151 134 5 -1 7 2 4
7 -4 5 0 13 8 18 24 14 380 355 607 582 236 236 332 351 502 601 161 237 246
317 360 340 64 12 88 11 152 -5z m1270 -1525 c72 -5 182 -12 245 -15 257 -13
440 -35 506 -62 165 -66 240 -205 251 -463 7 -166 -25 -424 -48 -389 -7 9 -8
5 -3 -13 8 -35 -61 -207 -115 -286 -52 -77 -137 -154 -209 -189 -52 -25 -66
-28 -152 -26 -52 1 -162 13 -245 27 -229 38 -529 83 -745 111 -107 14 -224 30
-260 35 -36 5 -101 12 -145 15 -44 3 -107 9 -140 14 -33 5 -179 20 -325 32
-146 13 -268 27 -271 31 -3 5 -14 6 -25 2 -16 -6 -15 -3 6 20 14 16 30 24 39
21 9 -3 12 -3 8 1 -10 10 44 65 56 57 6 -3 7 -2 4 4 -3 5 28 43 69 84 60 60
76 71 84 59 8 -12 10 -11 10 5 0 13 41 61 107 125 58 58 104 101 100 95 -20
-34 557 545 624 626 l82 98 181 -4 c99 -3 240 -10 311 -15z m-3145 -447 c0 -5
19 -8 43 -8 72 -1 211 -53 325 -122 112 -67 155 -100 146 -114 -3 -5 1 -6 9
-3 20 7 164 -148 214 -231 53 -89 85 -171 78 -199 -5 -17 -4 -18 4 -6 6 8 11
11 11 5 0 -5 5 -39 11 -74 18 -113 -22 -230 -98 -282 -46 -32 -136 -59 -198
-59 -49 0 -59 7 -43 29 10 12 8 12 -8 -1 -11 -10 -32 -18 -45 -18 -68 0 -309
86 -291 104 3 4 0 5 -8 1 -27 -10 -200 114 -306 219 -105 106 -162 187 -196
284 -24 70 -41 169 -31 185 4 7 6 25 4 41 -2 18 1 26 8 22 7 -4 9 -1 5 8 -10
25 48 117 99 158 27 20 67 42 90 48 23 6 47 13 52 15 19 7 125 5 125 -2z
m1427 -883 c35 0 62 -3 60 -7 -3 -5 21 -6 54 -5 32 2 59 0 59 -5 0 -4 35 -9
78 -10 42 -1 120 -7 172 -12 52 -6 167 -18 255 -26 88 -9 171 -18 185 -20 14
-2 68 -8 120 -14 248 -29 722 -100 730 -110 5 -6 15 -8 80 -15 70 -7 130 -19
130 -25 0 -3 -26 -22 -57 -41 -74 -43 -209 -174 -282 -270 -141 -188 -241
-470 -241 -682 0 -53 -2 -59 -19 -53 -15 4 -18 0 -17 -22 1 -16 5 -34 10 -42
5 -8 4 -16 -5 -22 -13 -8 -10 -11 7 -8 4 0 11 -5 16 -13 5 -8 6 2 2 27 -4 22
-11 45 -16 52 -6 8 -4 11 9 9 13 -2 20 -15 25 -49 11 -76 38 -159 74 -226 l35
-64 -188 7 c-103 3 -244 13 -313 21 -69 8 -137 15 -151 15 -14 0 -115 11 -225
25 -293 37 -431 54 -501 62 -38 3 -60 10 -56 16 3 6 1 7 -5 3 -13 -8 -324 33
-332 43 -3 3 -21 6 -40 7 -62 1 -229 28 -224 36 3 4 -1 5 -9 2 -14 -5 -139 15
-637 101 -379 66 -463 86 -564 137 -46 23 -56 32 -45 40 11 8 10 8 -5 4 -23
-8 -78 47 -120 117 -50 86 -67 181 -62 351 4 163 15 216 67 343 35 82 134 223
157 223 9 0 12 3 9 6 -11 11 92 87 109 80 9 -3 12 -11 8 -18 -4 -7 -4 -10 1
-6 14 13 35 -12 26 -31 -7 -13 -5 -17 9 -17 14 0 16 3 8 13 -7 8 -7 13 0 13 5
0 16 -7 23 -16 17 -21 141 -105 197 -133 23 -12 40 -26 37 -30 -2 -5 1 -8 8
-7 6 0 61 -18 120 -42 244 -97 423 -106 590 -29 31 14 57 23 57 19 0 -4 4 -2
8 3 4 6 30 24 57 39 72 42 221 146 301 211 66 55 71 57 113 51 24 -3 73 -6
108 -6z m2316 -296 c3 -4 25 -8 48 -9 61 -5 176 -66 230 -122 26 -26 61 -74
79 -105 32 -58 34 -71 7 -44 -13 13 -14 12 -14 -10 0 -22 3 -25 23 -21 18 3
25 -2 33 -26 6 -16 9 -33 6 -37 -3 -5 -1 -10 4 -12 27 -9 39 -239 18 -337 -15
-69 -56 -159 -66 -142 -6 9 -11 10 -15 2 -4 -6 -2 -11 3 -11 22 0 9 -23 -43
-78 -66 -69 -130 -109 -262 -163 -202 -83 -575 -189 -666 -189 -164 0 -250
277 -175 562 43 162 129 326 245 465 138 166 387 297 505 266 31 -9 35 -8 26
3 -11 14 1 20 14 8z"/>
<path d="M5194 7168 c-17 -18 -75 -87 -129 -153 -121 -146 -479 -511 -710
-724 -258 -237 -255 -234 -255 -270 0 -41 39 -81 78 -81 41 0 71 25 352 298
348 338 588 590 753 795 55 67 62 110 24 145 -35 33 -77 29 -113 -10z"/>
<path d="M5876 5884 c-36 -35 -31 -93 9 -120 23 -15 54 -19 345 -49 80 -8 174
-19 210 -25 57 -8 68 -7 90 9 50 36 51 112 2 137 -12 6 -19 14 -15 18 4 4 0 4
-9 1 -8 -3 -134 5 -280 19 -310 30 -332 31 -352 10z"/>
<path d="M5438 5542 c-54 -33 -59 -111 -9 -136 14 -8 97 -19 183 -27 107 -8
155 -16 151 -23 -4 -7 -2 -7 6 0 8 8 25 9 49 3 63 -15 125 -10 160 11 28 17
32 25 32 64 0 34 -5 48 -21 59 -11 9 -16 16 -9 19 6 2 -31 5 -82 6 -89 3 -356
27 -408 36 -14 3 -37 -3 -52 -12z"/>
<path d="M4366 4480 c-16 -5 -32 -7 -36 -5 -4 3 -6 -21 -5 -51 1 -47 6 -60 26
-75 13 -10 31 -19 39 -19 8 0 132 -11 275 -25 343 -33 368 -33 394 1 26 33 27
75 3 104 -16 20 -34 23 -267 40 -138 10 -270 21 -295 25 -92 13 -106 13 -134
5z"/>
<path d="M3430 4210 c-16 -16 -20 -32 -19 -71 1 -27 5 -45 9 -39 5 7 11 6 19
-4 13 -15 65 -28 181 -45 36 -6 173 -27 305 -47 132 -20 281 -39 332 -41 88
-5 93 -4 118 21 35 35 33 77 -4 109 -25 21 -43 25 -137 31 -60 3 -149 13 -199
21 -97 16 -129 20 -188 23 -21 1 -36 5 -34 10 3 4 -17 8 -43 9 -26 1 -102 11
-168 22 -147 26 -147 26 -172 1z"/>
<path d="M3510 3249 c-25 -11 -56 -30 -68 -42 -31 -29 -62 -90 -62 -121 0 -14
-5 -28 -11 -32 -6 -3 -7 -9 -3 -13 5 -3 18 -24 29 -46 44 -87 176 -110 293
-51 29 15 57 24 63 21 5 -4 8 -3 7 2 -1 4 6 21 17 37 19 28 39 139 23 130 -4
-3 -8 2 -8 11 0 8 -19 35 -42 58 -68 67 -154 84 -238 46z"/>
<path d="M2995 3148 c-75 -41 -51 -137 39 -153 44 -9 89 8 116 43 27 34 25 59
-9 93 -25 24 -37 29 -78 29 -26 0 -57 -6 -68 -12z"/>
<path d="M4820 2974 c-64 -16 -378 -173 -445 -222 -60 -43 -85 -85 -85 -142 0
-85 56 -139 164 -159 98 -18 651 -14 744 5 169 34 242 94 242 196 0 58 -32
104 -115 162 -38 28 -63 52 -59 58 4 7 2 8 -4 4 -6 -3 -41 14 -77 38 -36 25
-88 52 -117 61 -64 19 -175 18 -248 -1z m210 -149 c50 -18 148 -87 131 -93 -6
-2 -18 2 -26 8 -12 10 -15 9 -15 -5 0 -14 6 -16 33 -12 25 4 42 -3 81 -31 31
-23 44 -38 35 -41 -7 -2 -19 -10 -26 -17 -31 -31 -125 -39 -443 -39 -173 0
-324 4 -334 8 -19 7 -19 8 0 25 24 22 286 166 339 186 79 30 161 34 225 11z"/>
<path d="M6544 2840 c-28 -11 -54 -48 -54 -77 0 -12 10 -34 23 -48 19 -23 33
-28 87 -32 57 -4 69 -2 100 19 54 36 54 105 0 133 -31 16 -121 19 -156 5z"/>
<path d="M6030 2734 c-68 -30 -120 -96 -120 -154 0 -100 93 -144 266 -125 59
6 73 12 101 40 24 24 33 42 33 66 0 37 -42 114 -71 129 -11 6 -17 16 -13 23 4
7 4 9 0 5 -4 -3 -26 2 -49 13 -50 22 -100 24 -147 3z"/>
</g>
</svg>
