<?xml version="1.0" standalone="no"?>
<!DOCTYPE svg PUBLIC "-//W3C//DTD SVG 20010904//EN"
 "http://www.w3.org/TR/2001/REC-SVG-20010904/DTD/svg10.dtd">
<svg version="1.0" xmlns="http://www.w3.org/2000/svg"
 width="1024.000000pt" height="1024.000000pt" viewBox="0 0 1024.000000 1024.000000"
 preserveAspectRatio="xMidYMid meet">
<metadata>
Created by potrace 1.16, written by Peter Selinger 2001-2019
</metadata>
<g transform="translate(0.000000,1024.000000) scale(0.100000,-0.100000)"
fill="#000000" stroke="none">
<path d="M2414 8730 c-56 -8 -146 -46 -197 -82 -18 -13 -36 -23 -41 -23 -5 0
-10 -8 -12 -18 -1 -10 -9 -26 -18 -36 -30 -33 -76 -148 -86 -218 -12 -79 -1
-213 25 -314 18 -66 18 -72 3 -64 -7 4 -6 1 3 -7 9 -7 25 -40 37 -73 11 -33
28 -77 36 -97 18 -43 20 -51 7 -44 -5 4 -7 -3 -4 -15 4 -13 8 -16 13 -9 15 24
74 -219 65 -267 -3 -18 -1 -34 5 -38 13 -8 7 -117 -20 -335 -50 -404 -67 -595
-80 -895 -5 -110 -10 -204 -10 -210 -4 -37 14 -394 28 -560 9 -110 17 -221 17
-247 0 -25 2 -45 5 -43 8 5 55 -340 55 -402 0 -29 4 -53 9 -53 5 0 6 -60 3
-142 -7 -163 -24 -242 -92 -433 -25 -71 -51 -145 -56 -163 -6 -18 -13 -31 -17
-28 -4 2 -7 -8 -8 -22 0 -15 -9 -71 -19 -126 -15 -83 -16 -111 -7 -176 14
-100 53 -182 117 -246 51 -52 138 -104 172 -104 14 0 15 -2 5 -9 -8 -4 43 -7
115 -6 142 2 205 18 393 97 81 35 255 98 268 98 20 0 -90 -235 -172 -368 -35
-56 -62 -90 -68 -86 -7 5 -9 2 -6 -7 7 -18 -105 -165 -122 -161 -6 1 -9 -2 -6
-7 8 -13 -53 -83 -65 -75 -5 3 -8 0 -7 -8 2 -7 -2 -12 -9 -11 -7 2 -10 -3 -7
-11 6 -15 -196 -206 -223 -210 -10 -2 -18 -9 -18 -17 -1 -8 -7 -13 -15 -11 -8
2 -12 0 -8 -3 4 -4 1 -17 -7 -29 -25 -34 -18 -73 18 -111 27 -29 40 -35 82
-37 32 -1 50 2 50 9 0 6 52 58 115 115 63 57 117 107 119 111 1 4 25 32 52 62
28 29 77 86 110 127 33 40 65 72 70 70 6 -1 8 1 5 6 -3 5 24 54 60 108 153
231 239 432 319 744 70 271 79 303 136 454 78 206 208 441 331 598 25 32 49
54 53 50 5 -4 5 -1 1 5 -9 16 252 285 267 276 5 -3 7 -2 4 4 -4 6 31 44 76 85
232 210 349 308 359 302 6 -4 8 -3 5 3 -8 12 36 56 46 46 4 -3 7 -1 7 6 0 7 5
9 12 5 6 -4 8 -3 4 4 -3 6 31 42 81 84 48 40 106 90 128 110 23 21 45 34 49
30 4 -4 6 -2 4 4 -2 7 20 30 47 52 98 78 174 101 208 64 17 -19 24 -88 8 -78
-5 4 -7 -2 -4 -13 6 -23 -64 -164 -77 -156 -5 3 -8 0 -5 -7 6 -16 -141 -209
-157 -205 -7 1 -12 -6 -13 -15 0 -21 -136 -179 -147 -172 -5 3 -7 2 -6 -3 5
-15 -75 -112 -86 -106 -6 3 -8 3 -4 -2 10 -11 -50 -85 -68 -85 -9 0 -13 -4
-10 -8 7 -12 -24 -53 -35 -46 -5 3 -8 2 -7 -3 4 -14 -23 -54 -33 -48 -5 4 -8
3 -7 -2 5 -14 -64 -93 -76 -86 -6 3 -8 3 -4 -2 4 -4 -13 -32 -38 -61 -39 -46
-90 -155 -65 -139 10 5 26 -24 22 -40 -2 -5 1 -7 4 -3 4 4 20 1 36 -7 15 -8
38 -15 50 -15 12 0 73 36 136 80 63 45 119 78 125 74 6 -4 8 -3 5 3 -7 11 321
240 337 235 6 -2 8 0 3 4 -9 9 83 75 95 68 5 -3 7 -1 6 4 -2 4 71 69 162 144
91 74 204 172 251 216 48 45 90 78 94 74 5 -4 5 -2 2 4 -3 6 30 46 74 90 115
113 286 304 440 489 45 55 86 99 91 98 4 -2 7 1 5 6 -7 26 287 356 307 344 6
-3 8 -3 4 2 -11 12 54 57 75 51 9 -2 15 0 11 5 -3 5 15 9 40 9 91 0 114 -63
72 -193 -30 -91 -147 -322 -164 -322 -6 0 -14 -4 -19 -9 -5 -5 -3 -6 5 -2 6 4
12 5 12 1 0 -11 -82 -135 -89 -135 -4 0 -8 -6 -8 -13 0 -23 -64 -108 -75 -101
-7 4 -8 2 -4 -4 7 -12 -61 -122 -75 -122 -5 0 -9 -5 -9 -11 0 -21 -51 -78 -66
-72 -8 3 -14 0 -14 -7 0 -6 5 -8 10 -5 27 17 1 -21 -91 -130 -55 -66 -105
-119 -112 -117 -7 2 -9 0 -5 -4 10 -9 -102 -135 -113 -128 -5 3 -8 0 -7 -8 2
-8 -5 -12 -17 -11 -11 1 -14 0 -7 -3 9 -4 -9 -28 -54 -74 -37 -38 -72 -66 -77
-63 -6 3 -7 1 -3 -5 8 -14 -11 -25 -26 -15 -19 11 -46 14 -52 4 -3 -4 6 -7 19
-5 14 1 27 -1 30 -6 7 -12 -96 -100 -109 -93 -6 3 -8 3 -4 -2 4 -4 -8 -25 -27
-47 -45 -49 -47 -88 -5 -130 28 -27 35 -29 88 -26 31 2 57 9 57 14 0 17 166
155 177 147 6 -3 8 -2 5 4 -8 12 227 246 237 236 4 -4 6 -3 4 3 -5 16 123 165
135 157 5 -3 7 -2 4 4 -7 10 79 119 92 116 4 -1 8 4 8 10 0 7 33 55 74 107 41
52 123 163 183 245 253 347 267 364 284 359 14 -5 14 -4 3 4 -11 8 -5 21 34
66 26 31 52 53 58 49 5 -3 7 -2 4 4 -3 5 12 27 33 48 22 22 40 36 40 33 0 -3
14 7 31 23 29 27 83 49 121 49 9 0 31 -12 48 -27 31 -26 32 -29 27 -82 -6 -63
-34 -144 -48 -135 -5 3 -6 -2 -3 -10 13 -34 -276 -561 -307 -561 -8 0 -14 -9
-14 -20 0 -27 -64 -127 -77 -119 -5 3 -8 0 -6 -8 2 -7 -12 -37 -31 -66 -32
-51 -49 -67 -38 -37 4 8 2 17 -3 20 -4 3 -7 -6 -5 -20 3 -32 -139 -230 -157
-219 -7 4 -8 3 -4 -4 8 -13 -51 -92 -66 -89 -6 1 -12 -6 -13 -17 -5 -25 -65
-87 -78 -79 -6 3 -7 1 -3 -5 8 -14 -43 -74 -56 -65 -6 3 -8 2 -5 -4 8 -13 -47
-66 -58 -56 -4 5 -5 2 0 -6 9 -16 -243 -264 -258 -254 -6 3 -7 1 -3 -5 7 -12
-50 -59 -66 -54 -5 1 -7 -2 -4 -7 4 -5 -15 -27 -41 -50 -28 -24 -50 -36 -54
-30 -4 7 -9 4 -12 -6 -4 -9 -3 -13 3 -10 6 3 10 2 10 -4 0 -5 -5 -13 -10 -16
-6 -4 -10 -28 -8 -55 2 -27 5 -47 7 -44 2 2 16 -5 31 -16 31 -22 80 -26 111
-9 25 13 186 152 249 215 25 25 50 41 55 37 4 -4 5 -3 2 3 -7 12 65 87 76 79
4 -3 5 -2 3 1 -3 3 41 56 96 118 56 61 130 146 166 189 35 42 69 74 74 70 6
-3 8 -1 5 4 -4 6 24 51 61 99 112 147 247 345 356 522 65 104 89 125 145 124
46 -1 75 -17 90 -49 13 -28 14 -63 4 -63 -5 0 -8 -17 -9 -38 -1 -45 -62 -194
-77 -185 -5 3 -7 1 -3 -5 9 -14 -25 -83 -37 -75 -6 3 -7 1 -3 -5 8 -14 -20
-72 -35 -72 -6 0 -8 -4 -5 -9 9 -13 -145 -267 -156 -256 -2 3 -5 -1 -5 -9 0
-20 -44 -87 -53 -81 -5 3 -12 0 -16 -6 -4 -8 -3 -9 4 -5 21 13 13 -4 -34 -70
-28 -38 -50 -61 -57 -57 -7 3 -9 2 -4 -2 14 -16 -127 -200 -145 -189 -7 4 -8
2 -4 -4 8 -13 -142 -192 -161 -192 -6 0 -15 -5 -19 -12 -5 -7 -2 -8 7 -3 8 4
-4 -11 -25 -33 -22 -23 -44 -38 -49 -35 -6 3 -7 2 -4 -4 7 -11 -66 -86 -76
-78 -4 3 -5 2 -3 -1 3 -3 -34 -40 -82 -82 -152 -135 -172 -156 -178 -187 -7
-37 29 -95 67 -109 42 -14 73 0 165 77 48 39 91 71 96 70 4 -2 7 0 6 5 -3 10
305 317 315 314 5 -1 6 1 3 6 -8 13 54 83 66 76 6 -4 8 -2 5 3 -4 6 23 49 61
94 37 46 100 129 140 184 40 55 78 100 84 100 6 0 13 7 15 15 4 13 3 13 -6 0
-6 -8 -11 -10 -11 -4 0 5 7 19 15 30 13 17 15 13 16 -46 4 -138 -12 -203 -88
-354 -70 -140 -115 -209 -126 -194 -7 10 -8 9 -4 -3 7 -22 -30 -82 -45 -73 -7
4 -8 3 -4 -4 12 -19 -3 -35 -20 -21 -9 7 -14 8 -14 1 0 -6 5 -12 12 -14 13 -5
-70 -114 -83 -110 -5 1 -9 -4 -9 -12 0 -21 -49 -76 -68 -77 -12 0 -13 -2 -4
-6 10 -4 8 -11 -9 -29 -12 -13 -26 -21 -32 -17 -6 3 -7 1 -4 -4 8 -13 -27 -46
-38 -36 -4 5 -5 3 -1 -4 9 -16 -124 -155 -142 -148 -7 2 -11 1 -8 -4 8 -13
-154 -162 -166 -155 -6 4 -8 3 -5 -3 8 -12 -98 -103 -268 -231 -80 -61 -122
-87 -127 -79 -5 8 -8 7 -8 -5 0 -19 -105 -92 -120 -83 -6 4 -9 1 -8 -7 2 -7
-5 -12 -14 -12 -10 1 -16 -2 -13 -6 8 -14 -197 -133 -225 -132 -16 1 -20 -1
-13 -6 8 -5 -11 -21 -57 -46 -38 -20 -75 -34 -81 -30 -7 4 -9 3 -6 -3 9 -14
-141 -85 -166 -78 -15 4 -18 3 -9 -3 15 -10 17 -9 -211 -103 -92 -39 -173 -67
-180 -63 -7 4 -9 3 -4 -1 9 -11 -131 -77 -146 -68 -7 3 -9 2 -4 -2 4 -5 -32
-31 -80 -60 -49 -28 -106 -63 -127 -77 -22 -15 -44 -24 -50 -21 -6 3 -8 3 -4
-1 3 -4 -18 -28 -48 -52 -55 -45 -71 -54 -58 -31 4 7 3 9 -2 4 -5 -5 -9 -13
-9 -17 0 -13 -218 -225 -228 -222 -5 1 -6 -2 -2 -8 3 -5 -2 -10 -12 -11 -10 0
-13 -3 -6 -5 18 -8 -95 -150 -116 -146 -11 2 -12 0 -4 -6 10 -6 6 -17 -12 -45
-39 -57 -45 -79 -29 -115 7 -18 18 -32 24 -32 6 0 9 -4 5 -9 -3 -5 0 -13 6
-17 8 -4 9 -3 5 5 -6 8 -1 10 18 5 39 -9 85 -11 80 -2 -3 4 -1 8 3 8 5 0 33
31 62 70 29 38 58 67 64 63 6 -3 7 -1 3 6 -14 22 204 268 226 255 6 -4 8 -3 5
3 -10 16 60 73 80 67 14 -5 15 -4 4 4 -10 7 2 21 53 56 38 27 71 44 77 40 7
-4 9 -3 5 4 -8 14 79 66 95 56 7 -4 9 -3 6 2 -8 13 140 87 154 78 7 -4 9 -3 6
3 -3 5 35 27 86 48 280 116 365 154 497 220 80 40 197 103 260 140 63 37 121
68 127 68 7 0 11 3 8 6 -9 8 127 91 139 84 6 -3 8 -2 3 2 -9 10 43 46 55 39 5
-3 7 -1 6 4 -4 13 133 113 144 106 5 -3 7 -1 6 4 -4 14 90 84 102 77 6 -3 10
0 10 8 0 20 37 50 51 41 7 -4 10 -3 6 3 -4 6 37 49 91 96 53 47 139 126 191
176 71 69 101 91 121 91 15 0 30 -3 34 -7 3 -4 17 -8 29 -10 39 -6 179 -54
272 -93 294 -123 424 -150 560 -115 121 32 212 107 266 220 28 59 50 169 43
216 -16 116 -36 193 -100 384 -118 357 -125 459 -65 875 59 406 72 586 72 983
0 308 -2 345 -27 656 -9 100 -13 189 -10 197 3 8 2 14 -3 14 -5 0 -11 28 -14
63 -3 34 -15 145 -26 247 -37 332 -26 460 58 697 98 276 116 361 108 508 -6
117 -33 196 -96 280 -22 29 -37 56 -33 60 4 5 2 5 -4 2 -6 -4 -25 4 -43 17
-18 13 -45 30 -62 36 -16 7 -26 17 -22 23 3 6 1 7 -5 3 -6 -4 -30 -2 -53 4
-23 6 -81 11 -129 11 -92 0 -187 -24 -304 -76 -30 -13 -62 -22 -70 -19 -8 3
-17 1 -21 -5 -4 -7 1 -9 12 -6 68 19 -246 -122 -342 -153 -147 -49 -235 -63
-385 -63 -110 0 -610 49 -620 60 -3 3 -30 6 -60 7 -30 0 -147 6 -260 13 -246
16 -840 29 -833 19 2 -5 -35 -8 -84 -8 -48 0 -167 -7 -263 -15 -96 -9 -197
-13 -225 -10 -29 3 -42 2 -31 -3 17 -8 -36 -16 -339 -53 -194 -23 -422 -5
-590 46 -113 35 -307 120 -298 130 5 4 3 5 -4 1 -16 -9 -84 25 -76 37 4 6 0 8
-9 5 -8 -4 -33 2 -55 12 -106 47 -285 94 -338 89 -5 -1 -33 -5 -61 -9z m223
-229 c56 -18 168 -65 300 -126 34 -16 59 -33 56 -38 -3 -6 -2 -7 4 -4 13 8
135 -37 126 -47 -4 -4 1 -4 11 0 15 6 17 4 11 -6 -5 -8 -4 -11 3 -6 12 7 102
-13 102 -23 0 -4 8 -7 18 -7 19 0 158 -23 182 -31 37 -11 198 -12 319 -2 109
9 136 8 143 -3 8 -10 9 -9 5 3 -6 18 -23 15 278 49 243 28 412 38 728 46 234
6 277 5 277 -7 0 -9 3 -10 8 -4 11 17 404 3 410 -14 4 -11 6 -11 12 0 7 10 35
11 157 0 161 -13 367 -35 478 -51 391 -56 612 -21 1005 160 257 118 343 146
362 119 7 -10 8 -9 4 5 -6 18 -2 19 60 13 71 -7 159 -48 151 -71 -5 -13 11
-40 28 -47 6 -2 10 -12 9 -21 0 -9 3 -15 7 -12 25 15 32 -164 9 -256 -7 -30
-20 -61 -29 -68 -9 -8 -10 -11 -3 -7 19 10 15 -6 -43 -167 -92 -258 -98 -287
-99 -495 -1 -101 1 -183 4 -183 6 0 43 -309 39 -325 -1 -5 1 -17 4 -25 3 -8
13 -85 22 -170 66 -663 54 -1182 -40 -1765 -38 -232 -43 -435 -15 -585 12 -63
22 -124 23 -135 1 -11 5 -22 8 -25 4 -3 10 -16 14 -29 5 -18 4 -22 -6 -16 -8
5 -6 0 3 -11 19 -22 70 -157 72 -191 0 -11 4 -19 7 -17 13 8 59 -192 59 -259
0 -164 -119 -252 -295 -218 -88 17 -236 71 -228 84 3 6 1 7 -5 3 -6 -4 -60 13
-119 38 -59 24 -128 50 -153 57 -25 7 -49 16 -53 20 -5 4 32 59 82 123 221
281 348 517 385 714 21 115 9 243 -32 342 l-27 64 67 126 c68 125 168 347 168
372 0 10 2 10 8 0 6 -8 9 -1 9 20 1 18 4 67 8 110 9 88 -6 144 -51 204 -31 40
-87 79 -128 90 -14 3 -24 9 -21 13 2 4 -9 5 -26 3 -16 -2 -29 -1 -29 2 0 4 22
50 49 104 90 179 113 281 87 383 -20 77 -68 145 -130 183 -66 41 -175 48 -261
16 -33 -12 -71 -22 -84 -22 -16 0 -20 -3 -11 -8 8 -5 9 -9 1 -14 -6 -4 -16 -4
-23 0 -6 4 -8 3 -4 -4 3 -6 -7 -20 -24 -32 -21 -15 -30 -18 -31 -8 -1 7 -4 27
-6 43 -3 17 -6 42 -7 57 0 14 -3 24 -5 22 -2 -2 -19 19 -38 46 -84 125 -241
154 -403 73 -41 -20 -79 -36 -83 -35 -5 1 -6 -2 -3 -7 8 -13 -53 -63 -67 -54
-7 3 -9 3 -5 -2 11 -11 -12 -36 -26 -28 -6 3 -8 3 -4 -1 8 -10 -131 -172 -144
-168 -5 1 -7 -2 -4 -7 7 -11 -71 -107 -85 -103 -6 1 -8 -2 -5 -7 8 -12 -126
-176 -144 -176 -7 0 -15 -7 -17 -15 -4 -13 -3 -13 6 0 6 8 11 10 11 4 0 -16
-55 -65 -65 -57 -4 5 -5 2 -1 -5 9 -14 -139 -183 -157 -179 -6 1 -11 -5 -12
-13 0 -22 -106 -131 -119 -123 -6 3 -8 2 -3 -2 10 -11 -73 -96 -86 -88 -6 3
-7 2 -4 -4 9 -15 -178 -197 -193 -188 -8 5 -11 4 -7 -2 10 -16 -27 -44 -49
-37 -15 5 -16 4 -5 -4 17 -12 19 -11 -136 -133 -56 -44 -105 -84 -108 -89 -4
-6 -10 -10 -15 -10 -6 0 17 27 49 60 110 114 254 333 290 443 32 95 36 146 17
211 -19 64 -77 136 -126 156 -16 7 -28 15 -25 19 2 4 -10 5 -27 3 -17 -3 -28
-1 -25 5 3 5 -23 6 -67 2 -77 -8 -165 -44 -224 -94 -17 -14 -34 -24 -39 -23
-4 2 -9 -2 -11 -7 -7 -21 -46 -55 -61 -53 -9 2 -15 -2 -14 -9 3 -14 -75 -86
-85 -79 -4 2 -19 -5 -32 -16 l-25 -20 30 16 c25 14 22 10 -14 -23 -24 -23 -48
-38 -54 -34 -5 3 -7 1 -4 -4 4 -6 0 -17 -9 -24 -13 -10 -17 -10 -26 2 -8 11
-9 11 -4 -3 7 -24 -74 -94 -87 -76 -6 9 -7 8 -4 -3 6 -19 -36 -64 -52 -55 -9
6 -26 -11 -26 -27 0 -13 -148 -136 -157 -131 -5 3 -7 1 -6 -4 4 -14 -164 -162
-176 -155 -5 3 -6 2 -3 -4 3 -5 -35 -49 -85 -99 -49 -49 -115 -117 -145 -151
-30 -35 -60 -60 -65 -57 -5 3 -8 0 -6 -7 1 -8 -24 -50 -58 -94 -85 -112 -133
-185 -196 -298 -30 -53 -59 -93 -63 -89 -5 4 -5 1 -1 -6 4 -7 -12 -55 -37
-110 -25 -53 -48 -107 -51 -120 -4 -12 -12 -19 -18 -16 -7 4 -8 2 -4 -4 9 -14
-33 -142 -46 -142 -5 0 -7 -4 -4 -8 9 -14 -16 -92 -27 -85 -6 3 -7 1 -3 -6 4
-6 -3 -51 -15 -99 -18 -68 -25 -81 -30 -62 -3 15 -5 2 -5 -32 1 -31 -2 -59 -6
-63 -12 -12 -209 -55 -220 -48 -6 3 -8 2 -5 -4 3 -5 -26 -22 -66 -37 -40 -16
-95 -39 -122 -51 -185 -83 -355 -104 -433 -53 -58 39 -95 118 -95 206 0 92 17
164 73 317 93 252 130 423 130 600 0 50 -11 176 -25 280 -67 514 -83 696 -88
995 -6 293 18 680 63 1035 47 378 55 479 42 598 -13 131 -36 223 -96 384 -65
176 -89 282 -90 393 -1 85 2 100 26 147 28 52 64 87 80 77 5 -3 7 0 6 7 -2 7
15 18 37 26 50 16 143 9 222 -16z"/>
</g>
</svg>
