<?xml version="1.0" standalone="no"?>
<!DOCTYPE svg PUBLIC "-//W3C//DTD SVG 20010904//EN"
 "http://www.w3.org/TR/2001/REC-SVG-20010904/DTD/svg10.dtd">
<svg version="1.0" xmlns="http://www.w3.org/2000/svg"
 width="1024.000000pt" height="1024.000000pt" viewBox="0 0 1024.000000 1024.000000"
 preserveAspectRatio="xMidYMid meet">
<metadata>
Created by potrace 1.16, written by Peter Selinger 2001-2019
</metadata>
<g transform="translate(0.000000,1024.000000) scale(0.100000,-0.100000)"
fill="#000000" stroke="none">
<path d="M4186 7321 c-10 -11 -18 -34 -19 -52 l-2 -33 -140 -38 c-241 -66
-481 -138 -729 -219 -132 -43 -244 -75 -250 -72 -6 3 -8 3 -4 -2 5 -4 -66 -36
-155 -70 -311 -117 -566 -244 -747 -373 -187 -133 -372 -336 -429 -471 -59
-140 -55 -67 -59 -1061 -1 -503 0 -925 3 -937 5 -23 51 -53 80 -53 9 0 27 12
42 26 l25 25 -5 205 c-3 123 -2 202 4 198 5 -3 9 -10 9 -16 0 -6 11 -24 25
-42 14 -17 49 -60 78 -96 52 -66 157 -174 213 -220 90 -74 197 -151 278 -200
87 -53 91 -57 94 -94 2 -25 -2 -44 -13 -56 -10 -11 -12 -20 -6 -24 5 -3 12 2
14 11 3 10 5 -51 5 -136 0 -122 -3 -159 -15 -178 -8 -12 -11 -23 -5 -23 6 0
13 6 15 13 3 6 6 -5 6 -25 1 -28 -3 -38 -14 -38 -8 0 -15 -4 -15 -10 0 -5 6
-9 13 -7 17 3 22 -54 5 -64 -9 -6 -9 -9 -1 -9 8 0 12 -16 11 -45 -1 -79 51
-123 110 -95 15 8 29 13 32 13 3 -1 4 142 4 318 -1 315 -1 320 18 302 10 -9
29 -18 41 -20 12 -2 26 -8 31 -13 6 -6 26 -10 46 -10 20 0 43 -6 50 -12 12
-11 13 -11 3 1 -9 11 -7 20 10 42 20 28 20 30 4 64 -13 27 -32 43 -82 67 -45
22 -61 35 -52 41 8 6 6 7 -6 3 -9 -3 -28 -1 -41 5 l-24 11 -1 385 c-1 310 1
384 11 381 7 -3 13 -11 13 -18 0 -7 6 -15 14 -18 9 -3 11 0 6 8 -5 8 -3 11 6
7 89 -36 130 -33 149 13 23 55 1 82 -101 131 -49 23 -89 45 -89 49 0 4 -6 7
-12 7 -19 0 -240 136 -353 217 -55 39 -143 113 -197 164 l-97 93 30 57 c17 31
36 62 42 67 7 6 13 16 15 24 5 24 138 193 197 251 l56 55 -2 -180 -1 -179 26
-23 c30 -26 44 -28 79 -12 42 19 46 45 47 291 l1 233 120 85 c151 108 346 227
522 318 l137 72 1 -32 c1 -18 1 -67 -1 -109 -2 -87 15 -185 33 -187 7 -1 26
-4 42 -8 22 -4 36 0 53 16 21 20 22 27 22 198 1 124 4 182 13 192 28 35 645
279 669 264 4 -3 8 -1 8 4 0 8 50 32 65 32 2 0 2 -37 1 -82 l-1 -83 -105 -56
c-165 -87 -248 -145 -351 -248 -127 -127 -160 -191 -166 -324 -4 -67 -1 -110
12 -157 16 -65 86 -189 124 -224 14 -13 19 -26 15 -42 -4 -17 0 -25 18 -35 23
-12 23 -12 4 10 -35 39 -12 30 39 -15 28 -24 49 -48 48 -53 -1 -5 5 -15 14
-23 12 -9 15 -9 9 0 -13 21 3 13 57 -29 29 -23 51 -46 49 -51 -1 -5 2 -7 8 -3
14 9 221 -131 317 -213 82 -72 176 -185 212 -257 42 -83 64 -201 58 -300 -6
-90 -25 -195 -36 -195 -3 0 -6 -12 -7 -28 -1 -15 -17 -61 -38 -102 -20 -41
-34 -65 -32 -52 2 13 0 19 -6 16 -5 -3 -7 -15 -4 -27 5 -19 -17 -72 -52 -125
-12 -18 -17 -20 -24 -10 -7 10 -8 9 -4 -4 3 -11 -15 -46 -50 -95 -70 -98 -94
-124 -107 -116 -6 3 -7 1 -3 -5 7 -12 -101 -139 -116 -134 -5 1 -7 -1 -4 -6 8
-14 -80 -95 -95 -87 -7 5 -10 4 -6 -2 3 -5 -17 -33 -46 -61 -83 -82 -351 -292
-365 -287 -7 3 -10 1 -7 -4 3 -6 -41 -44 -97 -85 -57 -41 -114 -84 -128 -94
-67 -51 -573 -382 -585 -382 -1 0 -33 -18 -69 -40 -37 -23 -72 -38 -79 -34 -7
4 -9 4 -5 -1 4 -4 -14 -21 -40 -39 -51 -33 -63 -63 -42 -101 12 -23 49 -45 74
-45 11 0 291 164 411 241 672 431 1089 767 1359 1097 43 51 62 68 69 59 6 -8
7 -7 4 5 -4 10 16 50 49 100 166 249 256 531 234 726 -19 167 -44 243 -121
362 -84 132 -218 248 -535 465 -48 33 -127 98 -175 145 -114 110 -153 187
-154 300 0 62 5 85 28 132 92 187 373 367 792 507 217 72 612 177 790 211 33
6 105 20 160 31 55 11 107 21 115 22 21 2 25 73 5 103 -13 20 -24 24 -68 24
-140 0 -845 -175 -1110 -274 -37 -15 -71 -26 -75 -26 -4 0 -9 156 -10 348 -4
336 -4 348 -25 370 -27 29 -86 30 -111 3z m-18 -353 l4 -115 -109 -38 c-185
-64 -363 -131 -505 -189 -76 -31 -140 -56 -143 -56 -3 0 -5 66 -5 148 l0 147
88 27 c48 14 169 51 268 81 100 31 195 58 210 61 16 3 51 12 78 20 45 15 50
15 63 -2 13 -16 14 -15 8 5 -4 15 -1 22 12 25 10 3 20 3 23 2 3 -1 7 -54 8
-116z m-908 -240 c1 -46 3 -115 5 -153 l4 -70 -102 -52 c-56 -29 -106 -52
-111 -52 -5 1 -12 -3 -15 -8 -3 -5 -67 -45 -141 -88 -74 -43 -160 -96 -191
-116 -31 -21 -59 -35 -63 -32 -3 4 -6 2 -6 -4 0 -5 -37 -35 -82 -65 l-83 -55
2 230 2 230 28 16 c15 9 57 30 93 45 36 16 83 37 105 46 85 38 288 120 297
120 6 0 24 6 41 14 63 27 192 75 205 75 9 1 12 -22 12 -81z m-931 -565 l-2
-238 -41 -35 c-90 -77 -235 -242 -311 -353 l-79 -118 -18 33 c-20 38 -22 48
-9 48 5 0 13 -11 18 -25 l8 -24 12 25 c11 23 10 24 -4 12 -14 -11 -15 -10 -10
12 4 14 4 20 1 14 -3 -7 -14 -10 -24 -7 -21 6 -46 66 -34 84 4 8 3 9 -4 5 -13
-8 -14 4 -17 126 -2 79 4 130 15 123 4 -2 5 6 3 18 -6 30 59 155 122 236 72
95 307 283 373 300 2 1 2 -106 1 -236z m-324 -1104 c84 -85 228 -194 382 -291
l112 -70 0 -379 c0 -208 -3 -379 -5 -379 -8 0 -154 99 -227 154 -136 103 -280
257 -271 291 4 14 3 16 -4 7 -11 -16 -39 19 -99 123 -52 89 -73 141 -72 174 0
23 1 24 9 6 8 -19 9 -19 9 3 1 14 -5 22 -15 22 -14 0 -16 8 -10 61 8 64 62
240 78 250 5 3 9 9 8 13 -1 4 3 20 9 37 7 21 15 28 23 23 9 -6 9 -3 -1 9 -7 9
-9 17 -4 17 4 0 40 -32 78 -71z"/>
<path d="M5943 7061 c-19 -18 -20 -35 -27 -290 -4 -149 -4 -415 0 -591 l7
-321 25 -19 c32 -26 63 -25 96 1 l26 20 0 183 c0 100 2 185 5 188 9 9 80 -32
77 -43 -1 -6 2 -8 8 -4 13 8 92 -39 83 -50 -5 -4 -3 -5 4 -1 15 8 505 -253
497 -265 -3 -5 1 -6 8 -4 11 5 248 -113 270 -134 3 -3 7 -82 8 -176 3 -283 10
-371 32 -395 25 -27 64 -25 93 5 l25 24 0 238 c0 157 4 233 10 223 5 -8 10
-12 10 -9 0 10 333 -170 342 -184 4 -7 8 -9 8 -6 0 4 53 -21 118 -55 64 -35
167 -89 227 -120 61 -32 149 -81 197 -108 l87 -49 3 -378 c3 -354 4 -379 22
-396 21 -22 111 -30 116 -11 1 6 5 171 7 366 2 195 7 351 11 345 13 -18 130
-75 155 -75 27 0 41 13 56 51 18 49 -10 81 -120 138 l-99 52 0 380 c0 240 4
379 10 379 5 0 39 -11 76 -25 36 -14 71 -25 78 -25 21 1 47 28 56 59 7 24 4
35 -12 56 -25 32 4 21 -423 167 -192 66 -399 138 -460 159 -423 148 -599 207
-1062 360 l-523 173 0 71 c0 62 -3 74 -23 93 -29 27 -76 28 -104 3z m230 -352
c50 -18 98 -39 105 -48 7 -9 11 -10 7 -3 -3 6 -4 12 -2 12 3 0 79 -25 168 -56
90 -30 194 -65 231 -76 39 -12 65 -25 61 -31 -3 -6 -1 -7 5 -3 6 3 72 -15 146
-40 l136 -46 1 -167 c1 -91 1 -182 2 -201 0 -19 0 -61 -1 -93 l-2 -58 -80 42
c-44 22 -78 44 -76 48 2 3 -6 7 -17 8 -20 1 -95 39 -427 217 -53 28 -155 82
-228 121 l-133 70 1 167 c1 93 4 168 6 168 2 0 46 -14 97 -31z m1482 -504 c38
-13 71 -28 73 -34 2 -5 9 -8 15 -5 18 6 109 -31 100 -41 -5 -4 -2 -5 4 -1 7 4
70 -12 140 -35 177 -59 198 -68 184 -82 -7 -7 -10 -42 -9 -91 l2 -81 6 85 c3
47 7 -77 8 -275 1 -235 -2 -355 -8 -345 -5 8 -10 11 -10 7 0 -4 -19 3 -42 16
-24 14 -99 54 -168 90 -197 102 -318 166 -500 264 -30 17 -103 56 -162 87
l-108 58 0 273 0 273 203 -70 c111 -38 233 -81 272 -93z"/>
<path d="M5495 6536 c-275 -114 -459 -254 -535 -410 -31 -62 -33 -71 -27 -141
7 -93 32 -147 103 -224 29 -32 50 -62 46 -66 -4 -5 -2 -5 4 -2 6 3 43 -14 83
-39 107 -66 186 -103 554 -256 31 -13 54 -28 50 -33 -5 -4 -3 -5 3 -2 17 10
367 -150 557 -255 193 -106 430 -270 497 -343 23 -25 23 -27 3 -16 -12 6 -23
16 -26 23 -2 7 -4 1 -4 -13 0 -22 3 -26 21 -22 17 4 18 3 6 -6 -8 -6 -10 -11
-5 -11 6 0 16 5 23 12 9 9 19 5 43 -18 86 -82 262 -318 262 -351 0 -7 3 -13 7
-13 4 0 19 -26 33 -57 121 -270 159 -448 159 -728 -1 -174 -9 -244 -47 -422
-43 -196 -134 -431 -225 -578 -75 -122 -73 -117 -61 -148 6 -15 26 -34 46 -44
33 -16 39 -16 63 -2 15 8 50 54 80 104 29 50 58 89 63 87 6 -1 8 2 4 8 -3 5
12 49 33 97 95 212 172 508 187 718 3 50 9 113 12 140 9 83 9 105 3 105 -4 0
-10 46 -13 103 -19 340 -170 715 -388 965 -284 327 -655 551 -1479 897 -288
121 -446 211 -505 289 -17 23 -29 55 -34 92 -7 49 -5 63 16 105 54 108 289
271 481 334 44 14 56 23 68 51 16 39 6 77 -25 93 -30 17 -49 13 -136 -23z"/>
</g>
</svg>
