<?xml version="1.0" standalone="no"?>
<!DOCTYPE svg PUBLIC "-//W3C//DTD SVG 20010904//EN" "http://www.w3.org/TR/2001/REC-SVG-20010904/DTD/svg10.dtd">
<svg xmlns="http://www.w3.org/2000/svg" version="1.0" width="1024.000000pt" height="1024.000000pt" viewBox="0 0 1024.000000 1024.000000" preserveAspectRatio="xMidYMid meet">
<metadata>
Created by potrace 1.16, written by Peter Selinger 2001-2019
<meta name="Producer" content="Online-Convert"/></metadata>
<g transform="translate(0.000000,1024.000000) scale(0.100000,-0.100000)" fill="#000000" stroke="none">
<path d="M2215 8240 c-3 -5 -12 -7 -19 -4 -8 3 -17 1 -21 -5 -3 -7 0 -8 10 -5 13 5 14 2 7 -17 -5 -14 -10 -619 -11 -1374 -1 -882 -5 -1351 -11 -1353 -6 -2 -9 -44 -8 -100 l2 -97 6 95 c3 52 6 -339 6 -870 0 -531 -2 -936 -6 -900 l-7 65 -1 -80 c-1 -55 1 -75 8 -65 7 11 10 7 10 -19 0 -38 -44 -106 -62 -95 -7 4 -8 2 -4 -5 4 -6 1 -18 -6 -26 -7 -8 -47 -59 -88 -115 -41 -55 -76 -96 -78 -90 -2 5 -8 10 -14 10 -7 0 -6 -5 1 -14 10 -12 -2 -34 -64 -115 -45 -59 -81 -99 -87 -95 -7 4 -8 2 -4 -5 4 -6 -13 -38 -40 -74 -27 -34 -124 -163 -216 -286 -147 -197 -168 -229 -168 -262 0 -29 6 -42 26 -58 57 -45 108 -19 190 97 26 37 67 90 91 118 24 28 43 55 43 59 0 13 103 130 112 127 5 -1 7 2 3 8 -4 6 22 48 57 94 35 46 70 94 78 106 41 62 108 138 115 132 5 -4 5 -2 2 4 -4 6 14 38 38 70 24 32 57 76 72 97 51 69 106 132 114 130 5 -2 6 4 3 11 -3 8 3 19 13 24 11 5 385 8 926 7 499 -1 905 0 902 3 -3 3 5 16 17 29 12 13 18 23 14 23 -5 0 -4 6 2 12 14 18 4 62 -19 87 -17 18 -51 27 -81 22 -5 0 -8 4 -8 10 0 5 -4 7 -10 4 -18 -11 -81 -15 -75 -5 3 5 1 10 -4 10 -6 0 -11 -4 -11 -8 0 -4 -66 -7 -147 -5 -214 3 -279 3 -466 -1 -92 -1 -170 1 -173 6 -3 4 -9 6 -13 4 -19 -12 -71 -16 -71 -5 0 8 -4 8 -13 1 -14 -12 -209 -11 -218 1 -3 4 -17 4 -30 -1 -13 -5 -67 -7 -119 -5 -113 4 -98 3 -234 3 -59 0 -112 3 -117 6 -5 3 -9 962 -9 2326 l0 2322 -22 23 c-16 17 -32 23 -64 23 -24 0 -45 -4 -49 -10z"/>
<path d="M5570 7692 c-76 -34 -90 -74 -91 -264 -1 -92 -4 -143 -9 -128 -7 23 -8 23 -9 3 -1 -30 -22 -34 -173 -33 -73 1 -277 1 -453 1 l-321 -1 -31 -29 c-37 -33 -39 -48 -49 -316 -14 -385 -15 -402 -22 -377 -4 13 -7 -37 -7 -110 -1 -73 -4 -182 -8 -243 -4 -60 -10 -144 -12 -185 -16 -245 -28 -357 -45 -394 -10 -21 -16 -46 -12 -55 4 -11 8 -4 13 22 3 20 9 41 14 45 4 4 5 -2 2 -13 -4 -11 -11 -104 -17 -207 -6 -103 -13 -202 -15 -220 -3 -18 -7 -73 -10 -123 -3 -49 -11 -146 -17 -215 -5 -69 -11 -131 -11 -137 0 -10 -28 -13 -104 -13 -119 0 -159 -14 -169 -58 -3 -15 -8 -35 -10 -44 -3 -9 -7 -43 -9 -75 -2 -32 -7 -93 -11 -135 -5 -69 -4 -80 15 -107 12 -17 36 -34 54 -39 18 -5 145 -7 284 -5 l251 3 -6 -22 c-5 -21 -6 -21 -13 -2 -4 13 -7 6 -6 -21 0 -48 -11 -104 -52 -255 -17 -63 -33 -122 -35 -130 -2 -8 -12 -42 -21 -75 -9 -33 -27 -104 -41 -158 -13 -54 -36 -137 -50 -185 -14 -48 -35 -121 -46 -162 -31 -117 -46 -171 -62 -230 -9 -30 -19 -68 -21 -85 -3 -16 -15 -59 -25 -95 -20 -66 -22 -110 -7 -110 4 0 6 -3 3 -8 -20 -32 79 -54 121 -27 28 19 37 39 70 170 14 55 27 107 30 115 4 8 7 22 9 30 4 18 45 170 72 265 64 230 200 738 213 800 4 22 17 67 29 100 11 33 20 61 20 63 0 1 0 6 0 11 0 6 138 10 350 9 l350 0 0 -527 c0 -448 2 -530 15 -555 14 -25 14 -27 0 -16 -10 9 -15 9 -15 1 0 -6 3 -11 8 -12 4 0 16 -3 27 -6 47 -14 105 -8 126 14 21 20 21 28 26 549 2 291 6 534 8 541 3 8 35 12 109 11 l104 -1 4 -39 c2 -22 0 -42 -4 -44 -4 -3 -8 -11 -8 -17 0 -8 3 -8 9 1 6 9 20 -22 45 -95 21 -59 38 -118 39 -130 1 -11 5 -19 9 -17 4 3 21 -21 37 -53 16 -32 41 -75 55 -96 15 -21 24 -43 20 -48 -3 -5 -1 -8 5 -7 5 2 20 -11 33 -28 41 -56 178 -216 178 -208 0 4 9 -1 20 -11 21 -19 27 -69 10 -80 -16 -10 -12 -55 5 -55 8 0 15 -8 15 -17 0 -10 3 -29 5 -43 5 -22 4 -22 -4 -5 -9 18 -10 17 -10 -7 -1 -18 4 -28 14 -28 9 0 16 -14 20 -37 4 -21 13 -57 21 -80 9 -24 12 -52 9 -64 -5 -15 -4 -19 4 -15 7 4 11 -1 11 -13 0 -10 3 -27 7 -37 4 -11 3 -15 -5 -10 -6 3 -13 2 -17 -4 -3 -5 3 -10 14 -10 14 0 21 -9 26 -32 4 -18 17 -68 30 -110 13 -42 21 -78 20 -80 -2 -2 9 -12 26 -23 16 -11 29 -26 29 -33 0 -10 4 -9 16 2 8 9 24 16 35 16 11 0 31 12 45 27 30 33 29 48 -10 178 -15 50 -29 95 -30 100 -2 6 -6 17 -9 25 -4 8 -19 70 -35 138 l-29 122 26 -17 c14 -10 56 -33 92 -53 37 -19 67 -38 67 -43 0 -4 2 -11 5 -15 2 -4 2 -1 1 6 -4 16 -2 16 69 -12 34 -13 72 -27 85 -31 12 -3 20 -11 17 -16 -4 -5 2 -8 12 -7 48 4 61 -2 56 -24 l-4 -23 13 23 c8 12 16 20 19 18 20 -20 435 -44 423 -24 -2 3 18 11 46 17 27 6 72 22 100 37 27 14 55 22 61 18 8 -5 9 -3 4 6 -6 10 -4 12 9 7 9 -4 15 -3 11 2 -3 5 9 20 27 32 18 13 36 27 39 32 4 5 12 6 19 2 9 -6 11 -4 5 4 -4 8 7 28 33 54 61 64 85 120 96 225 3 21 -3 55 -18 117 -2 6 -8 23 -14 38 -15 35 -15 40 0 31 7 -5 8 -3 4 5 -5 7 -10 10 -13 7 -8 -8 -43 39 -43 57 0 8 -7 17 -15 20 -8 4 -31 31 -51 61 -49 75 -56 147 -17 188 31 32 67 45 142 53 135 12 259 85 307 180 8 16 21 59 30 95 16 66 14 90 -17 228 -11 50 -65 152 -125 240 -25 35 -41 68 -38 74 4 6 2 8 -4 5 -13 -9 -64 51 -56 65 4 7 2 8 -5 4 -12 -8 -58 41 -54 56 2 5 -3 7 -10 5 -6 -1 -11 4 -9 11 1 8 -2 11 -7 8 -10 -6 -97 62 -94 74 1 4 -4 7 -10 7 -7 0 -25 8 -39 17 -19 13 -24 21 -17 29 6 7 39 74 73 149 35 76 65 136 67 134 2 -2 5 5 5 17 1 18 42 137 81 237 11 27 13 34 38 140 29 122 31 160 10 200 -11 22 -12 30 -2 34 6 3 3 4 -7 3 -12 -1 -25 7 -32 21 -6 13 -13 19 -16 12 -3 -9 -10 -9 -31 1 -17 8 -23 15 -16 19 8 5 8 10 1 14 -6 4 -16 -3 -22 -14 -6 -11 -18 -20 -28 -20 -9 0 -30 -9 -47 -20 -17 -11 -39 -17 -50 -14 -15 4 -16 3 -6 -4 11 -8 -3 -27 -65 -89 -43 -44 -97 -99 -118 -124 -22 -24 -44 -42 -50 -41 -6 2 -8 0 -4 -4 10 -9 -31 -66 -42 -59 -5 3 -12 0 -16 -6 -4 -8 -3 -9 4 -5 19 12 14 -3 -14 -40 -14 -18 -31 -31 -37 -27 -5 3 -7 1 -4 -5 7 -10 -117 -185 -125 -177 -3 3 -5 -1 -5 -9 0 -7 -21 -46 -48 -86 -41 -61 -50 -70 -56 -54 -5 13 -8 14 -8 4 -1 -13 -23 -15 -134 -15 l-132 0 7 90 c4 50 10 122 12 160 3 39 7 104 10 145 3 41 8 135 11 208 6 163 33 641 40 737 4 39 8 115 11 170 2 55 6 129 9 165 10 157 9 185 -8 211 -10 14 -15 29 -12 32 3 4 2 5 -2 2 -3 -3 -12 0 -19 6 -9 7 -171 10 -503 10 l-491 -1 0 151 c0 82 -5 170 -11 194 -10 38 -17 47 -53 65 -35 17 -61 20 -157 19 -63 0 -121 -3 -129 -7z m179 -294 l-1 -123 -37 2 c-20 1 -39 2 -43 2 -5 1 -8 55 -8 121 l0 120 45 0 46 0 -2 -122z m993 -304 c-13 -9 -12 -12 7 -17 16 -4 21 -1 21 14 0 10 4 19 10 19 5 0 7 -12 5 -27 -3 -16 -9 -138 -15 -273 -7 -144 -15 -246 -21 -248 -6 -3 -6 -8 0 -16 6 -7 7 -47 1 -111 -5 -55 -11 -165 -15 -245 -3 -80 -8 -172 -10 -205 -3 -33 -7 -116 -10 -185 -9 -213 -26 -475 -32 -480 -2 -3 -28 -11 -56 -18 -64 -15 -64 -15 -109 -31 -21 -7 -43 -9 -49 -5 -7 4 -9 3 -5 -4 3 -6 -9 -15 -31 -23 -42 -13 -65 -26 -166 -87 -37 -23 -73 -41 -80 -39 -6 1 -11 -3 -10 -9 1 -6 -19 -31 -44 -55 -25 -24 -43 -39 -39 -32 3 6 2 14 -3 17 -5 4 -8 -2 -7 -11 2 -10 -22 -54 -52 -98 -54 -79 -112 -188 -112 -212 0 -10 -152 -13 -728 -13 l-727 0 1 63 c1 34 5 100 9 147 4 47 8 92 7 100 0 8 4 69 10 135 5 66 10 129 10 140 0 11 5 72 10 135 6 63 10 126 10 140 -1 14 3 59 8 100 5 41 12 125 15 185 4 61 8 139 11 175 6 81 17 245 28 415 5 76 8 130 22 395 3 63 7 131 8 150 1 19 3 55 4 80 l2 45 1068 0 c777 0 1065 -3 1054 -11z m1018 -1325 c-22 -68 -43 -131 -47 -139 -3 -8 -7 -20 -8 -25 -12 -54 -195 -442 -266 -565 -11 -19 -34 -60 -50 -90 -60 -111 -88 -155 -99 -152 -6 1 -9 -2 -6 -7 8 -13 -148 -262 -198 -317 -10 -11 -18 -8 -106 37 -40 20 -42 43 -10 114 9 22 21 50 25 63 3 12 9 20 13 18 4 -2 8 6 8 19 2 28 123 276 189 388 28 47 50 75 57 71 7 -4 8 -3 4 4 -4 7 -3 12 1 12 5 0 9 9 10 20 1 10 28 56 59 102 80 116 90 128 99 120 5 -4 5 -2 2 4 -4 6 13 36 36 67 23 31 50 68 60 82 10 14 23 22 29 19 7 -4 8 -2 4 4 -6 10 58 94 136 177 16 17 43 46 61 66 17 20 33 35 35 34 1 -1 -16 -58 -38 -126z m-742 -611 c14 -2 16 -14 2 -23 -5 -3 -17 -21 -26 -40 -9 -19 -21 -32 -27 -28 -6 3 -7 1 -3 -5 4 -6 -6 -37 -22 -69 -16 -32 -46 -101 -67 -153 -21 -52 -42 -99 -47 -104 -4 -6 -8 -16 -8 -24 0 -8 -6 -28 -14 -45 -8 -18 -23 -59 -32 -92 -10 -33 -19 -64 -21 -70 -14 -44 -55 -212 -65 -266 -10 -56 -17 -70 -39 -83 -33 -19 -43 -20 -33 -3 4 6 5 10 1 7 -3 -3 -6 -8 -6 -13 0 -4 -18 -22 -38 -40 -21 -17 -42 -38 -46 -45 -5 -7 -13 -9 -19 -6 -6 4 -8 3 -5 -3 4 -5 -9 -39 -27 -74 -35 -65 -55 -126 -62 -189 -3 -19 -8 -44 -11 -55 -4 -11 -6 -28 -4 -37 1 -10 -2 -18 -8 -18 -5 0 -8 -9 -6 -20 2 -11 0 -22 -4 -25 -13 -7 -73 64 -65 77 4 6 3 8 -4 4 -14 -8 -84 83 -77 101 2 8 1 12 -4 9 -13 -8 -24 9 -79 119 -76 152 -102 252 -109 421 -4 91 -2 152 5 175 6 19 14 50 17 69 12 73 123 269 145 255 9 -5 24 12 25 30 1 6 7 9 14 7 7 -1 10 1 7 6 -3 5 10 23 28 41 23 22 38 30 52 25 13 -4 15 -3 6 3 -31 23 190 130 318 154 184 34 239 38 358 27z m664 -219 c21 -17 36 -36 35 -42 -1 -7 4 -11 11 -9 7 1 30 -14 50 -33 l37 -36 -30 6 -30 5 30 -11 c38 -15 66 -39 59 -51 -3 -4 0 -7 7 -6 6 2 14 -3 17 -11 2 -8 0 -11 -6 -7 -6 3 -13 2 -16 -3 -4 -5 2 -8 11 -6 28 4 69 -52 104 -140 35 -89 36 -93 44 -173 5 -47 2 -63 -15 -90 -11 -18 -25 -30 -30 -27 -6 4 -9 1 -8 -7 4 -17 -65 -50 -111 -54 -112 -9 -192 -34 -237 -76 -12 -10 -25 -18 -30 -16 -5 2 -10 0 -12 -4 -1 -5 -18 -36 -37 -71 -28 -51 -35 -74 -35 -120 0 -66 35 -170 74 -221 28 -37 34 -55 13 -37 -10 8 -14 7 -14 -3 0 -7 10 -13 21 -12 17 1 21 -5 20 -31 0 -18 4 -33 9 -33 4 0 5 -5 1 -11 -5 -8 1 -10 21 -7 23 5 29 1 41 -28 17 -40 18 -102 3 -141 -13 -36 -59 -84 -72 -76 -6 3 -7 1 -3 -5 15 -25 -121 -97 -235 -122 -53 -12 -192 -10 -284 4 -97 15 -272 76 -258 90 4 4 0 4 -9 1 -22 -8 -141 52 -132 67 4 6 3 8 -4 4 -6 -3 -23 -1 -38 5 -23 8 -26 12 -14 21 13 8 12 9 -2 5 -19 -7 -53 16 -53 35 0 7 18 24 40 37 198 118 311 289 318 481 3 68 7 83 24 95 11 8 24 11 28 7 5 -4 5 -2 2 4 -4 7 22 42 59 80 60 63 122 135 182 214 13 16 28 27 34 24 7 -4 8 -2 4 5 -7 11 13 52 41 79 7 8 21 28 30 45 9 18 19 34 22 37 3 3 14 19 24 35 83 142 123 202 131 198 5 -4 6 -1 2 6 -5 7 2 28 16 49 12 20 32 54 42 74 10 21 23 35 29 31 6 -3 7 -1 3 5 -12 21 4 32 22 16 9 -8 34 -28 54 -45z m-3478 -454 c22 0 35 25 14 26 -7 0 -4 4 7 9 22 9 77 2 86 -12 3 -5 14 -10 25 -12 10 -2 26 -6 34 -8 8 -1 19 7 24 19 l10 22 701 0 c385 1 715 -2 733 -5 27 -5 32 -10 32 -35 0 -15 -6 -34 -14 -41 -11 -11 -11 -15 3 -25 13 -10 -163 -12 -833 -13 -466 0 -853 -3 -858 -6 -5 -4 -8 18 -7 53 3 66 11 90 19 53 3 -16 12 -25 24 -25z m2556 -527 c-9 -83 -49 -160 -117 -225 -51 -50 -73 -63 -73 -45 0 20 22 130 33 162 26 77 89 150 142 163 11 2 20 5 21 6 0 0 -3 -27 -6 -61z"/>
<path d="M6460 4871 c0 -6 -10 -11 -21 -11 -12 0 -41 -19 -65 -44 -24 -23 -45 -41 -47 -40 -12 12 6 -115 21 -145 9 -20 17 -39 17 -43 0 -3 4 -10 9 -15 5 -5 6 -3 2 5 -9 16 -6 15 35 -5 40 -20 159 -19 156 2 -1 6 5 9 13 7 8 -2 12 0 8 4 -4 4 4 20 17 36 32 37 39 68 29 116 -4 20 -8 43 -7 50 1 7 -1 11 -4 8 -3 -3 -14 6 -25 19 -10 13 -34 29 -53 36 -19 7 -32 16 -29 21 3 4 1 8 -5 8 -5 0 -13 -5 -16 -10 -5 -8 -11 -7 -21 1 -10 8 -14 8 -14 0z"/>
<path d="M6295 4399 c-4 -6 -14 -8 -22 -5 -8 3 -11 1 -8 -4 5 -9 -6 -14 -26 -12 -3 1 -6 -4 -7 -11 0 -7 -10 -36 -20 -66 -11 -30 -18 -66 -15 -80 3 -14 6 -34 7 -43 0 -9 2 -15 5 -12 3 2 17 -8 33 -22 25 -25 26 -28 10 -41 -16 -12 -16 -13 2 -6 13 4 17 3 12 -5 -4 -7 -1 -12 8 -12 9 0 13 6 10 15 -5 12 0 12 28 4 50 -14 103 -2 144 35 32 28 38 41 45 95 9 67 4 87 -35 129 -11 13 -33 30 -48 38 -32 16 -114 19 -123 3z"/>
<path d="M7203 3824 c4 -8 -10 -14 -41 -18 -57 -7 -116 -45 -139 -89 -22 -43 -33 -106 -22 -134 7 -18 5 -23 -7 -23 -8 0 -12 -5 -9 -10 4 -6 10 -8 15 -5 5 3 14 -5 21 -17 7 -13 18 -27 26 -31 8 -5 18 -18 22 -30 8 -22 16 -24 96 -28 56 -3 71 1 113 28 29 19 47 41 63 77 19 45 20 57 11 108 -14 75 -33 102 -95 133 -29 14 -50 28 -49 31 2 3 0 9 -4 12 -4 4 -4 2 -1 -4z"/>
</g>
</svg>
