<?xml version="1.0" standalone="no"?>
<!DOCTYPE svg PUBLIC "-//W3C//DTD SVG 20010904//EN"
 "http://www.w3.org/TR/2001/REC-SVG-20010904/DTD/svg10.dtd">
<svg version="1.0" xmlns="http://www.w3.org/2000/svg"
 width="1024.000000pt" height="1024.000000pt" viewBox="0 0 1024.000000 1024.000000"
 preserveAspectRatio="xMidYMid meet">
<metadata>
Created by potrace 1.16, written by Peter Selinger 2001-2019
</metadata>
<g transform="translate(0.000000,1024.000000) scale(0.100000,-0.100000)"
fill="#000000" stroke="none">
<path d="M4975 7020 c-112 -10 -181 -23 -312 -62 -56 -16 -108 -26 -114 -22
-8 4 -9 3 -5 -4 4 -7 3 -12 -3 -12 -19 0 -215 -98 -279 -139 -35 -23 -68 -38
-74 -35 -6 4 -8 3 -5 -3 9 -14 -70 -76 -85 -67 -6 4 -8 3 -4 -4 8 -14 -22 -44
-36 -36 -6 4 -8 3 -5 -3 4 -6 -4 -20 -18 -33 l-24 -22 -920 -2 c-818 -1 -922
-3 -936 -17 -15 -15 -18 -38 -28 -221 -1 -25 1 -44 6 -41 4 2 7 -3 7 -11 0
-20 31 -36 69 -36 l31 0 1 -252 c0 -151 4 -245 9 -233 8 18 9 17 9 -8 1 -16
-3 -26 -9 -22 -5 3 -10 -1 -10 -10 0 -9 5 -13 10 -10 6 4 9 -10 9 -37 l-2 -43
-7 35 c-4 19 -7 -80 -7 -220 1 -166 3 -222 7 -160 4 64 7 8 8 -173 1 -177 -1
-266 -8 -262 -6 4 -10 -9 -9 -32 1 -38 1 -38 9 -8 4 17 8 -196 9 -472 1 -441
-1 -503 -14 -503 -8 0 -24 -9 -34 -19 -15 -15 -19 -33 -19 -92 l0 -74 -38 3
c-41 3 -64 23 -64 54 0 10 -18 38 -40 62 -22 23 -38 45 -35 47 2 3 -4 5 -13 6
-9 1 -32 5 -49 9 l-33 6 0 642 0 641 98 -3 c100 -3 134 6 155 39 8 12 -3 84
-37 260 -26 134 -51 262 -56 283 -5 22 -7 43 -5 46 7 11 -13 13 -179 16 -177
3 -207 0 -223 -25 -6 -10 -34 -140 -62 -289 -44 -230 -50 -275 -39 -294 7 -13
12 -25 11 -28 -1 -3 52 -5 118 -4 l119 1 0 -643 0 -642 -25 -6 c-14 -4 -31 -4
-37 0 -6 4 -8 3 -5 -3 7 -11 -53 -59 -68 -55 -5 2 -7 0 -3 -3 4 -4 -2 -25 -12
-46 -11 -21 -20 -45 -20 -54 0 -12 -15 -15 -88 -15 -80 0 -91 -2 -111 -24 -31
-33 -21 -72 21 -80 17 -3 1012 -6 2212 -6 1732 0 2185 -3 2195 -12 11 -10 12
-10 7 -1 -6 10 295 13 1434 15 l1442 3 19 24 c22 28 23 32 6 55 -15 20 -32 24
-113 25 l-61 1 -28 55 c-15 30 -42 68 -60 84 -19 16 -31 32 -27 36 3 3 -1 3
-11 -1 -10 -4 -17 -1 -17 6 0 8 -10 11 -27 8 l-28 -4 -3 641 -3 640 116 2 c63
1 124 7 135 13 27 15 26 34 -16 244 -20 100 -38 195 -40 211 -2 17 -9 54 -15
82 -6 29 -7 58 -3 65 4 7 4 10 -1 6 -4 -4 -17 -1 -29 7 -16 12 -57 15 -187 15
-165 0 -168 0 -187 -24 -10 -13 -26 -62 -35 -108 -8 -45 -32 -170 -53 -275
-46 -241 -51 -231 105 -235 l106 -3 3 -637 2 -637 -31 -16 c-25 -14 -33 -14
-47 -3 -15 12 -16 11 -4 -4 11 -14 10 -18 -6 -27 -11 -6 -22 -8 -26 -6 -3 3
-4 2 -1 -1 7 -11 -15 -45 -26 -39 -5 4 -8 3 -7 -2 1 -4 -3 -28 -10 -53 -14
-49 -40 -62 -74 -37 -22 17 -37 110 -16 102 9 -4 15 0 15 9 0 8 -4 13 -9 10
-4 -3 -12 6 -18 21 -6 16 -20 27 -37 31 l-28 6 2 96 c3 106 2 502 0 594 -1 32
0 58 3 58 9 0 4 125 -5 140 -5 9 -4 15 3 18 7 2 12 13 12 23 0 11 -3 18 -7 16
-12 -8 -13 46 -1 61 6 6 7 12 2 12 -13 0 -14 53 -2 68 6 7 7 12 1 12 -14 0
-16 129 -2 146 8 10 8 14 0 14 -7 0 -11 20 -11 51 0 27 4 48 8 45 5 -3 9 13
10 34 2 21 -2 41 -8 45 -14 9 -13 55 3 55 9 0 9 2 -1 8 -8 5 -12 24 -10 49 2
23 6 39 11 36 4 -2 7 0 7 6 0 5 -4 13 -10 16 -15 9 -13 102 3 108 9 4 9 6 0 6
-7 1 -13 9 -13 19 0 14 2 15 10 2 6 -9 10 -10 10 -3 0 6 -5 15 -10 18 -13 8
-9 118 4 127 8 5 7 14 -2 28 -14 23 -14 105 0 133 5 11 5 17 -2 17 -5 0 -10
16 -10 36 0 21 4 33 10 29 6 -3 10 -1 10 4 0 6 -4 11 -10 11 -16 0 -13 260 3
262 6 0 17 2 22 3 6 2 18 3 28 4 9 0 26 10 37 21 18 18 20 33 20 143 0 89 -4
128 -14 142 -13 18 -43 19 -933 20 l-919 0 -62 54 c-34 29 -60 57 -57 61 2 4
-2 7 -9 7 -7 0 -37 18 -67 40 -66 50 -101 71 -202 122 -266 136 -547 188 -862
161z m322 -107 c-3 -5 25 -9 62 -10 37 -1 103 -13 151 -27 47 -15 92 -28 100
-30 30 -9 96 -34 133 -52 27 -13 34 -20 25 -27 -9 -6 -7 -7 5 -3 20 6 50 -7
139 -62 32 -19 55 -39 51 -45 -3 -5 -2 -7 3 -4 12 7 39 -9 39 -23 0 -5 2 -9 5
-8 13 4 50 -24 44 -34 -4 -6 -3 -8 3 -5 15 9 37 -19 27 -34 -5 -9 -2 -10 9 -6
9 3 21 -1 29 -11 11 -13 11 -14 -1 -7 -10 5 -12 4 -7 -4 4 -6 11 -9 15 -7 13
9 64 -51 56 -65 -5 -7 -4 -10 2 -6 6 4 17 -1 24 -10 12 -15 12 -16 -4 -10 -11
4 -16 3 -12 -3 3 -6 12 -10 19 -10 8 0 21 -12 31 -26 9 -15 13 -24 9 -21 -5 3
-10 -5 -10 -17 -1 -14 4 -23 13 -23 8 0 12 7 8 16 -15 44 28 -30 54 -93 63
-152 61 -107 61 -1408 l0 -1184 -41 4 c-28 3 -37 7 -28 13 11 7 10 9 -3 9 -10
0 -18 -6 -18 -12 0 -9 -4 -8 -10 2 -6 9 -10 449 -9 1185 0 1283 2 1228 -60
1361 -17 36 -45 87 -62 112 -18 26 -32 52 -32 59 0 7 -3 11 -7 10 -3 -1 -38
30 -77 69 -81 82 -166 145 -271 201 -39 22 -69 43 -65 48 5 4 2 5 -4 1 -7 -4
-33 2 -57 12 -64 29 -211 69 -295 82 -184 27 -383 17 -566 -30 -60 -15 -111
-24 -113 -19 -2 5 -8 9 -13 9 -4 0 -6 -6 -3 -13 6 -16 -69 -49 -94 -41 -13 5
-14 4 -4 -4 11 -7 6 -12 -19 -21 -41 -14 -39 -14 -34 8 3 14 -1 18 -12 14 -8
-3 -11 -9 -6 -12 17 -12 7 -31 -25 -51 -18 -11 -38 -17 -44 -14 -6 4 -8 3 -5
-3 6 -10 -12 -23 -29 -22 -3 0 -11 -7 -18 -17 -7 -9 -18 -14 -25 -10 -6 4 -10
3 -9 -2 2 -6 -25 -34 -58 -64 -34 -29 -78 -73 -99 -98 -21 -25 -43 -45 -49
-45 -6 -1 -10 -7 -8 -13 1 -7 -11 -33 -28 -57 -17 -25 -39 -64 -50 -87 -19
-42 -19 -42 -14 -10 2 19 1 31 -5 28 -5 -3 -9 -23 -8 -43 0 -21 -8 -73 -17
-115 -14 -69 -16 -187 -16 -1056 0 -768 -3 -981 -12 -991 -10 -11 -10 -13 0
-7 9 6 12 -33 12 -178 l0 -186 -55 0 -55 0 -1 98 c-4 333 1 2302 7 2327 12 62
38 134 46 129 4 -3 5 1 2 9 -6 18 46 115 104 196 59 80 198 215 213 205 7 -4
9 -3 6 4 -9 13 142 109 244 156 195 90 407 134 652 135 93 1 166 -2 164 -6z
m-233 -199 c-16 -11 -20 -21 -16 -42 l6 -27 7 30 c4 17 7 -26 8 -96 l1 -126
-59 -6 c-55 -6 -165 -44 -235 -81 -29 -15 -31 -14 -80 21 -28 20 -91 64 -139
97 l-88 60 23 18 c38 29 181 87 280 113 71 19 218 44 308 53 3 1 -4 -6 -16
-14z m246 -5 c141 -19 366 -91 353 -112 -3 -6 -1 -7 5 -3 13 8 62 -15 81 -37
9 -12 3 -21 -39 -51 -28 -20 -55 -34 -61 -31 -5 4 -8 2 -7 -4 2 -5 -32 -35
-75 -65 l-79 -55 -33 17 c-18 9 -31 19 -30 22 2 3 -4 6 -13 7 -9 1 -51 13 -92
27 -41 14 -92 28 -112 31 l-38 6 0 133 0 133 33 -4 c17 -2 66 -8 107 -14z
m550 -236 c0 4 16 -4 35 -19 19 -14 32 -31 28 -37 -3 -5 -1 -7 4 -4 13 8 46
-27 36 -38 -5 -4 -3 -5 3 -2 22 13 140 -142 130 -169 -3 -8 -2 -13 3 -10 5 3
16 -13 25 -35 14 -34 14 -44 4 -58 -11 -14 -11 -14 3 -3 14 10 17 9 22 -8 5
-20 1 -20 -223 -20 l-229 0 -36 69 c-20 38 -52 87 -71 110 l-35 40 73 51 c40
27 105 72 143 98 44 30 73 44 77 38 4 -6 8 -7 8 -3z m-1940 -5 c0 -4 -16 -32
-35 -63 l-36 -55 -804 0 -805 0 0 63 0 63 840 0 c462 -1 840 -4 840 -8z m484
-18 c-2 -22 -1 -23 11 -6 13 17 14 16 30 -8 10 -14 21 -23 26 -21 9 6 94 -52
94 -65 0 -5 4 -12 9 -17 5 -5 6 -3 2 5 -4 6 -5 12 -2 12 10 0 96 -55 96 -61 0
-3 -11 -19 -25 -35 -14 -16 -35 -46 -47 -66 -12 -20 -26 -34 -31 -31 -6 3 -7
1 -3 -5 4 -6 0 -27 -8 -46 l-15 -35 -229 1 -230 2 18 51 c42 122 124 236 230
320 51 40 76 42 74 5z m1966 17 c33 5 1430 9 1537 5 l81 -3 4 -60 3 -59 -798
0 c-521 0 -796 4 -792 10 3 6 1 10 -5 10 -6 0 -8 5 -5 10 3 6 -1 10 -9 10 -10
0 -13 -6 -10 -17 3 -10 -6 2 -21 27 -16 25 -35 53 -44 63 -14 17 -13 17 9 9
14 -4 36 -7 50 -5z m-1324 -133 c-4 -12 -2 -15 9 -10 13 5 15 -10 15 -100 0
-64 -4 -103 -10 -99 -5 3 -3 -7 5 -22 l15 -28 -212 -3 c-116 -1 -213 0 -215 2
-8 7 6 39 28 66 11 14 17 19 13 11 -4 -9 -3 -12 4 -7 6 4 9 13 6 20 -7 17 95
109 113 102 8 -3 11 -1 8 4 -7 11 51 42 113 61 32 9 45 10 54 1 17 -17 33 -15
18 3 -11 13 -8 15 15 15 21 0 26 -4 21 -16z m283 -14 c28 -12 48 -26 46 -30
-3 -5 0 -12 6 -16 8 -4 9 -3 5 4 -13 21 10 13 53 -18 24 -18 39 -35 35 -42 -4
-6 -3 -8 3 -5 15 9 67 -49 58 -64 -5 -8 -4 -10 3 -5 11 6 42 -41 42 -64 0 -11
-342 -14 -387 -3 -22 5 -23 9 -23 123 0 85 3 120 13 123 9 4 8 8 -3 17 -26 20
92 4 149 -20z m-2904 -70 c-3 -5 1 -10 10 -10 9 0 13 5 10 10 -3 6 1 10 9 10
15 0 21 -13 16 -35 -1 -5 -1 -39 0 -75 1 -49 0 -1175 -2 -1625 0 -27 1 -192 2
-365 l2 -315 -56 -3 -56 -3 0 1198 0 1198 22 11 c30 15 51 17 43 4z m485 -7
c102 0 195 4 208 8 15 6 21 5 17 -1 -8 -13 48 -9 57 5 5 7 13 7 25 -1 22 -13
300 -17 308 -3 4 5 11 9 16 9 6 0 7 -4 4 -10 -3 -5 1 -10 9 -10 9 0 16 5 16
12 0 6 2 9 5 6 6 -6 8 -226 5 -460 -2 -117 -4 -128 -21 -128 -19 0 -23 13 -33
110 -23 206 -28 236 -49 267 -12 18 -24 28 -25 23 -2 -6 -8 -8 -13 -4 -5 3
-33 5 -61 5 -40 1 -59 6 -76 22 -20 18 -40 23 -118 27 -82 5 -96 8 -110 28
-15 22 -19 22 -255 22 l-239 0 -1 23 c0 12 -2 30 -4 40 -3 14 0 16 10 7 8 -7
15 -7 19 -1 4 5 29 8 56 6 34 -2 50 0 50 8 0 9 2 9 8 1 5 -7 69 -11 192 -11z
m887 4 c12 5 13 2 5 -13 -6 -11 -18 -55 -27 -99 -15 -72 -17 -187 -17 -1187
l0 -1108 -34 0 -34 0 0 1203 0 1203 40 -4 c29 -3 40 0 41 9 0 10 2 10 5 2 3
-7 12 -9 21 -6z m2757 -59 c3 -40 6 -585 5 -1210 l-1 -1138 -39 0 -39 0 0
1113 c0 1190 2 1133 -45 1285 -7 21 -5 22 53 22 l60 0 6 -72z m308 54 c103 1
184 6 182 10 -3 4 2 8 10 8 8 0 18 -4 21 -10 3 -5 13 -10 21 -10 8 0 12 5 9
10 -3 6 -1 10 4 10 6 0 11 -4 11 -10 0 -5 5 -10 11 -10 5 0 7 5 3 11 -5 8 -1
8 14 0 11 -6 36 -9 56 -7 20 1 36 -1 36 -5 0 -4 9 -5 20 -2 11 3 20 10 20 15
0 5 10 6 21 3 31 -10 283 -15 298 -6 7 5 23 6 37 3 20 -4 24 -10 24 -43 l0
-39 -249 0 c-209 0 -251 -2 -261 -15 -9 -10 -32 -15 -75 -15 -72 0 -121 -15
-135 -40 -9 -18 -52 -27 -142 -32 -35 -2 -39 -6 -52 -43 -8 -22 -22 -111 -31
-197 -17 -149 -19 -158 -39 -158 -21 0 -21 1 -20 288 1 317 1 312 12 294 6 -9
54 -12 194 -10z m1018 -129 c0 -104 -3 -133 -12 -127 -10 6 -10 4 0 -7 6 -7
12 -17 12 -22 0 -4 -6 -5 -12 -1 -10 6 -10 4 0 -7 15 -17 18 -379 2 -379 -5 0
-10 -8 -10 -17 0 -15 2 -16 10 -3 6 10 10 -288 10 -850 l0 -865 -60 3 -60 4 0
1197 c0 659 2 1200 4 1202 3 2 30 4 60 5 l56 1 0 -134z m-5222 -136 c-1 -92
-2 -96 -8 -42 l-7 60 -1 -75 c-1 -52 1 -70 8 -60 7 10 10 -19 10 -91 l0 -105
-42 -2 -43 -3 2 208 c1 114 3 208 3 208 0 0 18 1 40 2 l40 1 -2 -101z m142 63
c0 -23 5 -40 11 -40 8 0 10 12 6 35 -3 19 -2 37 3 40 5 3 10 -82 12 -199 l3
-205 -40 2 -40 3 -3 202 -2 202 25 0 c23 0 25 -4 25 -40z m210 -171 l0 -199
-28 0 c-15 0 -34 6 -41 13 -10 8 -12 8 -7 0 3 -6 2 -14 -4 -18 -6 -4 -9 64 -8
197 1 112 3 205 4 208 1 3 21 4 43 2 l41 -4 0 -199z m4301 169 c1 -24 2 -116
3 -205 l1 -162 -42 1 -43 1 0 203 0 204 40 0 40 0 1 -42z m169 -162 l0 -204
-28 -4 c-16 -2 -34 -2 -40 0 -9 3 -12 62 -12 208 l0 204 40 0 40 0 0 -204z
m180 -3 l0 -204 -45 2 -45 3 0 201 0 202 45 0 45 1 0 -205z m-520 -22 l0 -186
-52 3 -53 4 -2 183 -2 184 32 3 c18 2 42 1 55 -1 22 -3 22 -4 22 -190z m-3945
169 l-20 -9 20 -1 c11 -2 23 -2 28 -1 4 0 7 -76 7 -169 l0 -171 -62 3 -63 3
-3 178 -2 177 57 -1 c42 0 52 -3 38 -9z m151 -45 c-4 -10 1 -15 14 -15 11 0
19 -3 19 -7 -3 -19 2 -33 12 -33 5 0 7 4 4 10 -3 5 -2 17 3 25 8 15 21 -65 37
-221 l7 -61 -40 -1 -39 -2 -7 54 c-18 156 -25 249 -20 257 9 15 17 10 10 -6z
m3555 5 c5 0 9 -11 9 -25 0 -16 -6 -25 -15 -25 -11 0 -15 -10 -14 -37 l2 -38
7 35 c18 87 6 -64 -15 -187 -6 -31 -9 -33 -46 -33 -22 0 -38 3 -36 8 3 4 11
69 18 145 10 121 15 140 33 153 11 8 27 12 34 9 8 -3 18 -5 23 -5z m-726 -32
l-2 -33 -1049 0 -1049 0 -3 33 -3 32 1054 0 1053 0 -1 -32z m-1118 -146 c-14
-8 -15 -11 -4 -8 16 5 17 -18 17 -389 0 -369 -1 -395 -17 -395 -16 -1 -17 -1
-2 -10 13 -7 17 -26 18 -74 0 -36 -4 -68 -9 -71 -6 -3 -10 3 -10 15 0 12 -4
18 -11 15 -5 -4 -22 -8 -37 -10 -14 -1 -28 -8 -30 -14 -15 -45 -19 37 -17 372
1 210 -1 394 -6 409 -4 15 -4 29 -1 31 4 2 2 2 -5 1 -7 -2 -15 1 -18 6 -4 6
-142 10 -349 10 -280 0 -346 -3 -362 -14 -16 -12 -20 -31 -24 -133 -3 -75 -9
-117 -16 -116 -6 1 -10 -19 -9 -52 1 -64 12 -85 13 -24 1 22 3 44 6 47 3 3 6
-215 6 -484 0 -401 3 -494 14 -509 13 -18 33 -19 327 -21 285 -2 400 3 414 18
3 3 6 103 7 222 1 170 3 212 12 194 9 -18 20 -23 52 -23 37 -1 40 1 36 22 -2
13 0 23 6 23 7 0 11 -53 11 -147 1 -100 -2 -143 -9 -133 -8 13 -10 12 -10 -2
0 -10 4 -18 10 -18 6 0 9 -62 9 -157 0 -104 -3 -153 -9 -143 -8 13 -10 12 -10
-2 0 -10 5 -18 10 -18 6 0 10 -4 10 -10 0 -5 -7 -7 -15 -4 -11 5 -13 2 -9 -10
3 -9 10 -13 15 -10 5 3 9 -4 9 -15 0 -13 -7 -21 -17 -22 -17 -1 -17 -2 0 -6
15 -4 17 -21 17 -169 0 -124 -3 -164 -12 -165 -10 0 -10 -2 0 -6 7 -3 12 -25
12 -59 l0 -54 -500 0 -500 0 0 28 c-1 15 0 115 0 222 1 107 1 574 1 1036 l0
842 504 -2 c422 -1 500 -3 482 -14z m1123 -12 c0 -16 -3 -31 -7 -33 -8 -5 -7
-370 2 -644 3 -90 1 -154 -5 -158 -6 -4 -6 -15 0 -31 13 -32 12 -37 -1 -29 -6
4 -5 -3 3 -14 11 -18 11 -23 -1 -30 -8 -5 -9 -11 -3 -15 13 -8 12 -207 -2
-225 -8 -11 -8 -13 1 -8 9 6 12 -9 10 -57 -1 -35 -5 -68 -10 -72 -4 -4 -7 -14
-7 -23 0 -14 2 -14 11 -1 7 10 9 -30 8 -135 -2 -87 -7 -156 -13 -164 -8 -11
-8 -13 2 -7 10 6 13 -31 11 -189 -1 -122 -5 -192 -11 -184 -6 10 -7 6 -3 -11
2 -14 7 -36 9 -50 l4 -25 -322 1 c-176 1 -403 2 -503 3 l-183 1 0 1050 c0 993
1 1050 18 1051 16 1 16 2 -1 6 -55 14 40 18 492 20 l501 3 0 -30z m-4175 -268
c-3 -7 0 -10 5 -7 6 3 10 -2 10 -12 0 -10 3 -36 7 -57 4 -29 3 -37 -6 -32 -9
6 -10 0 -5 -21 9 -38 14 -41 15 -12 1 30 28 -86 29 -123 l0 -28 -196 0 -196 0
7 28 c7 30 65 342 65 355 0 5 4 6 9 3 5 -4 7 7 5 24 l-5 30 86 0 c51 0 84 -4
80 -9 -3 -5 0 -13 6 -17 8 -4 9 -3 5 4 -4 7 -2 13 3 13 6 1 17 2 24 3 6 1 15
-3 19 -9 5 -6 8 -1 9 10 1 11 7 -14 15 -55 8 -41 12 -81 9 -88z m6490 111 c4
-21 12 -62 19 -91 7 -29 9 -55 5 -58 -5 -3 -9 1 -9 8 0 9 -3 9 -10 -2 -5 -8
-10 -19 -10 -25 0 -5 5 -3 10 5 7 11 10 11 10 2 0 -7 4 -11 9 -8 4 3 19 -50
33 -117 l24 -122 -175 2 c-97 2 -189 3 -204 3 -22 0 -27 4 -24 18 3 9 22 108
43 220 l39 202 117 0 117 0 6 -37z m-3743 -43 l106 -2 -1 -308 c-1 -170 -5
-306 -9 -304 -4 3 -4 -5 1 -18 10 -25 14 -347 5 -391 -3 -15 -10 -25 -15 -21
-5 3 -9 0 -9 -5 0 -6 5 -11 10 -11 6 0 10 -11 10 -25 l0 -25 -280 0 -279 0 0
237 c0 171 4 240 12 245 9 6 9 8 0 8 -7 0 -13 9 -13 21 0 11 4 18 9 14 5 -3
13 -1 16 5 4 6 1 9 -7 8 -10 -2 -14 37 -16 194 -3 176 -1 197 12 192 20 -8 21
3 2 21 -9 9 -14 39 -14 89 l0 75 36 3 c20 2 100 2 177 1 77 -1 188 -3 247 -3z
m-2148 -25 c3 8 10 15 16 15 6 0 9 -4 6 -8 -3 -5 20 -6 51 -4 40 3 58 1 64 -9
6 -10 9 -11 9 -1 0 6 9 12 20 12 11 0 20 -6 21 -12 0 -10 2 -10 5 -1 5 10 141
16 367 15 300 -2 357 -4 357 -12 0 -6 8 -10 18 -10 14 0 15 2 2 10 -12 8 -9
10 13 10 22 0 27 -4 27 -26 0 -17 -4 -23 -12 -18 -10 6 -10 5 -1 -7 7 -8 12
-37 11 -65 -1 -27 -3 -41 -6 -31 -2 11 -9 16 -18 13 -9 -3 -16 3 -20 18 -4 16
-15 25 -32 28 -15 3 -230 3 -477 2 l-450 -3 0 50 c0 40 2 47 11 34 10 -14 12
-14 18 0z m4562 5 c379 0 434 -2 434 -15 0 -8 9 -15 20 -15 11 0 20 -5 20 -12
0 -6 3 -8 7 -4 4 4 -3 15 -16 25 l-24 18 27 5 c25 5 26 4 26 -43 l0 -49 -467
3 c-297 1 -471 6 -476 12 -5 6 -7 3 -3 -7 3 -10 1 -20 -4 -23 -8 -5 -15 -234
-10 -315 2 -26 3 -100 1 -112 -1 -5 -10 -8 -21 -8 -18 0 -20 7 -20 55 0 30 5
55 10 55 6 0 10 5 10 11 0 5 -4 7 -10 4 -6 -4 -10 10 -10 35 0 30 3 39 13 34
9 -6 9 -5 0 7 -8 10 -13 65 -14 167 -1 167 5 188 49 177 13 -3 219 -6 458 -5z
m-4506 -360 l0 -180 -40 0 c-37 0 -40 2 -40 28 0 15 -1 96 -3 180 l-3 152 43
0 43 0 0 -180z m157 173 c-9 -2 -15 -9 -11 -14 3 -5 10 -7 15 -4 5 4 9 -62 9
-166 l0 -171 -22 6 c-13 3 -31 6 -40 6 -16 0 -18 15 -18 175 l0 175 43 -1 c23
-1 34 -3 24 -6z m193 -174 l0 -180 -42 4 -43 4 -2 99 c-1 63 3 104 10 113 9
11 9 15 0 18 -8 3 -13 22 -13 49 0 46 4 50 58 45 14 -1 22 4 22 14 0 8 2 15 5
15 3 0 5 -81 5 -181z m111 172 c-19 -12 2 -23 34 -17 l25 5 0 -164 c0 -105 -4
-166 -11 -170 -6 -4 -26 -4 -45 -1 l-34 7 1 174 c2 171 2 175 23 175 16 0 17
-3 7 -9z m161 2 c-16 -6 -5 -23 16 -23 15 0 17 -17 17 -165 l0 -166 -25 3 -25
3 -1 170 c0 94 1 173 3 178 2 4 10 7 16 6 9 0 8 -2 -1 -6z m3831 0 c-36 -5
-46 -23 -13 -23 17 0 20 -7 22 -52 l1 -53 7 60 c5 41 7 6 8 -112 2 -165 1
-173 -17 -173 -11 0 -23 5 -27 11 -4 8 -9 7 -15 -2 -4 -8 -9 67 -11 169 l-3
182 40 -2 c37 -1 38 -2 8 -5z m155 0 c-41 -6 -34 -24 7 -20 l34 4 3 -46 c2
-25 2 -101 0 -168 l-3 -121 -40 1 -39 2 0 178 0 177 33 -1 c30 -2 30 -2 5 -6z
m321 -25 c1 8 9 10 25 6 14 -3 27 -1 32 7 5 9 2 10 -10 6 -10 -4 -15 -3 -11 3
3 6 13 10 21 10 13 0 15 -26 12 -177 l-3 -178 -42 0 -43 -1 1 181 c1 106 4
170 9 155 4 -14 8 -19 9 -12z m-113 -325 c-2 -2 -20 -1 -40 2 l-36 7 0 159 0
158 38 3 37 3 3 -164 c1 -90 1 -166 -2 -168z m-4835 -105 c0 -10 2 -10 6 0 3
9 61 12 241 12 157 0 232 -4 222 -10 -9 -6 -10 -10 -3 -10 6 0 15 5 18 10 3 6
41 10 83 10 53 0 72 -3 62 -10 -13 -8 -12 -10 3 -10 9 0 17 5 17 10 0 15 70
12 71 -2 0 -10 2 -10 6 0 3 8 29 12 81 11 52 0 71 -3 57 -9 -19 -8 -19 -9 3
-9 12 -1 24 0 25 2 2 1 11 -4 20 -12 15 -11 17 -11 17 2 0 9 -10 18 -22 20
-20 4 -19 4 5 6 15 0 27 -4 27 -11 1 -30 2 -187 1 -380 l-1 -208 -44 0 -44 0
-7 73 c-3 39 -11 101 -16 136 -8 50 -7 66 3 72 10 7 10 9 1 9 -7 0 -13 9 -13
19 0 11 -10 32 -22 46 -18 20 -35 27 -80 32 -32 3 -58 10 -58 15 0 5 -4 6 -10
3 -9 -6 -12 0 -14 35 -1 16 -6 18 -111 26 -52 4 -74 11 -85 25 -17 21 -42 27
-118 28 -33 1 -51 5 -47 11 3 6 1 10 -4 10 -6 0 -11 -4 -11 -9 0 -5 -42 -12
-92 -16 -51 -4 -97 -10 -103 -15 -5 -4 -37 -10 -71 -12 l-60 -3 0 57 1 58 33
0 c18 0 32 -5 33 -12z m4144 2 c-3 -5 1 -10 10 -10 9 0 13 5 10 10 -4 6 22 10
72 10 54 0 73 -3 63 -10 -13 -8 -12 -10 3 -10 9 0 17 5 17 10 0 6 123 10 350
10 l350 0 -2 -60 c-1 -42 -6 -60 -15 -60 -7 0 -13 4 -13 9 0 5 -7 12 -16 15
-8 3 -12 2 -9 -4 10 -16 -51 -16 -70 1 -11 8 -94 25 -107 21 -4 -1 -4 6 -1 16
6 16 5 16 -14 0 -14 -13 -35 -18 -79 -17 -56 2 -57 2 -19 9 39 7 39 7 -15 8
-39 1 -51 -1 -40 -8 11 -7 6 -10 -22 -10 -20 0 -49 -5 -65 -12 -15 -6 -31 -11
-35 -10 -5 1 -7 -4 -5 -10 1 -9 -19 -15 -67 -18 -64 -5 -70 -7 -101 -42 -29
-35 -37 -38 -83 -38 -28 0 -54 -5 -57 -10 -4 -6 -12 -7 -18 -4 -7 4 -9 4 -5
-1 4 -4 3 -14 -3 -21 -5 -7 -19 -89 -31 -182 l-21 -170 -44 -4 c-23 -2 -43 0
-43 4 0 5 8 8 17 8 16 0 16 1 0 13 -15 11 -17 42 -19 277 -1 146 1 270 5 277
4 6 1 14 -5 16 -7 3 20 6 60 6 46 1 71 -3 67 -9z m-3996 -191 l-24 -22 23 6
c13 3 22 0 23 -6 0 -7 4 -3 9 8 5 12 9 -62 9 -186 l1 -206 -22 2 c-13 1 -31 3
-40 4 -17 1 -18 18 -18 204 0 112 3 207 7 210 3 4 18 7 31 7 l25 0 -24 -21z
m221 -194 l0 -216 -42 5 c-24 3 -44 5 -45 5 -1 1 -1 91 -1 201 1 188 2 200 19
200 11 0 19 -6 20 -12 0 -10 2 -10 6 0 2 6 9 12 14 12 6 0 7 -5 3 -12 -5 -7
-3 -8 5 -4 7 5 10 14 7 22 -3 8 -1 14 4 14 6 0 10 -83 10 -215z m4281 206
c-23 -6 -23 -7 -7 -24 22 -22 27 -22 19 1 -4 10 -2 14 3 9 15 -14 11 -135 -3
-130 -7 3 -10 9 -7 14 3 5 0 9 -5 9 -16 0 -13 -30 3 -36 16 -6 28 -43 19 -57
-3 -5 -5 -48 -4 -96 1 -61 -1 -82 -9 -71 -5 8 -10 10 -10 4 0 -5 5 -15 12 -22
9 -9 9 -12 -2 -13 -8 0 -27 -2 -42 -3 l-28 -2 0 213 0 213 43 -1 c32 -1 36 -3
18 -8z m184 0 c3 -5 0 -13 -6 -17 -7 -4 -9 -3 -5 4 4 6 -1 10 -13 9 -24 -2
-15 -27 10 -27 18 0 19 -10 19 -171 0 -111 -3 -168 -10 -164 -5 3 -10 -3 -10
-14 0 -12 6 -21 13 -22 6 -1 1 -4 -13 -8 -60 -17 -60 -18 -60 203 0 128 4 196
10 186 5 -8 12 -12 15 -8 3 3 -1 13 -10 22 -15 15 -14 16 19 16 19 0 37 -4 41
-9z m-4859 -31 c19 0 24 -5 25 -27 2 -25 2 -24 9 7 4 20 8 -51 9 -165 l1 -200
-40 0 c-39 0 -40 1 -40 35 0 19 -2 103 -3 185 -3 139 1 207 11 177 2 -6 15
-12 28 -12z m4974 8 c0 -9 3 -9 12 0 15 15 58 16 58 1 0 -5 -5 -7 -11 -3 -8 5
-8 1 0 -14 7 -13 10 -84 8 -198 l-2 -178 -32 1 c-18 1 -38 2 -43 2 -14 1 -13
401 1 401 5 0 9 -5 9 -12z m-4471 -25 c1 16 6 17 34 12 17 -4 34 -9 36 -11 6
-5 9 -59 12 -229 l3 -140 -49 1 -50 1 -2 194 c-1 117 2 186 7 174 8 -18 9 -18
9 -2z m4019 -67 c-1 -70 -2 -75 -8 -36 l-7 45 -1 -47 c-1 -27 3 -48 8 -48 6 0
10 -16 10 -36 0 -25 -4 -33 -12 -28 -10 6 -10 4 0 -7 6 -7 12 -20 12 -28 0
-14 -1 -14 -10 -1 -7 11 -10 6 -9 -20 0 -28 2 -31 9 -15 6 14 8 6 8 -30 0 -51
0 -51 -31 -50 -79 4 -72 -12 -70 152 2 82 6 167 9 191 l5 43 45 -2 44 -3 -2
-80z m-3761 -106 c6 -58 14 -124 17 -147 l6 -43 -39 0 -38 0 -12 108 c-7 59
-15 126 -18 150 l-6 43 39 -3 39 -3 12 -105z m3559 8 c-7 -164 -14 -195 -43
-201 -20 -4 -27 0 -31 16 -5 20 -6 20 -14 1 -5 -11 -6 3 -2 36 7 69 13 90 25
90 5 0 9 8 9 18 0 15 -2 15 -11 2 -8 -11 -9 -7 -5 19 3 18 6 46 6 62 0 32 23
59 51 59 18 0 19 -6 15 -102z m-3816 -310 c0 -3 -8 -9 -17 -11 -10 -3 -6 -4 9
-3 15 1 31 6 35 11 4 4 2 5 -4 1 -7 -4 -13 -3 -13 1 0 5 104 9 230 9 214 1
230 0 230 -17 0 -13 -8 -17 -30 -17 -17 1 -33 5 -36 10 -3 4 -11 8 -17 8 -7 0
-6 -4 3 -10 10 -6 -65 -9 -212 -9 -132 0 -228 5 -228 10 0 5 -7 9 -15 9 -8 0
-15 -4 -15 -10 0 -5 -16 -10 -36 -10 -21 0 -33 4 -29 10 3 6 1 10 -4 10 -6 0
-11 5 -11 11 0 6 28 9 80 7 44 -2 80 -6 80 -10z m4480 1 c0 -4 -6 -10 -12 -12
-8 -3 -6 -6 5 -6 9 -1 17 6 17 14 0 20 44 13 48 -8 3 -13 -13 -15 -109 -16
-81 -1 -115 2 -121 11 -6 10 -8 10 -8 1 0 -7 -6 -13 -14 -13 -8 0 -16 6 -19
13 -3 9 -8 8 -22 -3 -17 -13 -18 -13 -10 0 6 12 5 13 -6 3 -7 -7 -24 -13 -38
-13 -21 0 -23 2 -11 10 11 7 6 10 -20 9 -29 0 -31 -2 -15 -9 16 -7 12 -9 -19
-9 -35 -1 -37 1 -25 17 11 14 11 15 0 5 -7 -6 -21 -9 -30 -6 -14 4 -14 3 -1
-6 12 -8 7 -11 -23 -11 -23 0 -36 4 -32 10 3 6 -4 10 -17 10 -15 0 -19 -3 -11
-8 8 -5 -1 -8 -22 -9 -19 -1 -33 2 -30 6 2 4 -2 8 -10 8 -8 0 -12 -4 -9 -8 3
-5 -25 -8 -61 -8 -46 1 -65 5 -65 13 0 9 -9 12 -26 8 -19 -3 -22 -7 -12 -13 8
-6 -1 -9 -27 -9 -29 0 -36 3 -25 10 12 7 8 10 -15 10 -23 0 -27 -3 -15 -10 11
-7 5 -10 -23 -10 -21 0 -36 4 -33 9 3 5 -1 11 -9 15 -8 3 -17 1 -20 -4 -3 -4
1 -11 7 -13 7 -3 -1 -6 -18 -6 -35 -1 -45 5 -38 24 4 10 102 13 475 12 258 0
469 -4 469 -8z m-4940 -252 l0 -133 -37 -2 c-20 -2 -39 -4 -42 -6 -5 -4 -8
181 -3 247 2 25 6 27 42 27 l40 0 0 -133z m170 -2 l0 -135 -40 0 -40 0 0 135
0 135 40 0 40 0 0 -135z m180 -1 l0 -135 -42 3 -43 3 -1 113 c0 121 4 132 55
132 12 0 21 5 21 10 0 6 2 10 5 10 3 0 5 -61 5 -136z m190 1 l0 -135 -50 0
-50 0 0 135 0 135 50 0 50 0 0 -135z m148 128 c-16 -2 -28 -9 -28 -14 0 -6 4
-7 10 -4 5 3 18 1 29 -5 16 -8 20 -6 24 13 2 12 5 -39 6 -114 l1 -136 -31 -7
c-73 -14 -69 -21 -69 134 l0 140 43 -1 c29 -2 34 -3 15 -6z m233 -108 c1 -63
2 -123 3 -132 1 -15 -8 -18 -47 -19 l-47 -1 0 133 0 134 45 0 45 0 1 -115z
m3147 110 c-2 -3 -17 -6 -31 -7 -40 -3 -33 -16 8 -15 22 1 36 7 38 16 3 9 5
-45 6 -120 l1 -135 -45 -3 -45 -2 -1 58 c-1 32 -3 78 -4 103 -1 25 0 60 3 78
4 29 7 32 40 32 19 0 33 -2 30 -5z m152 -5 c-27 -9 -22 -12 23 -15 20 -1 27 2
23 11 -3 8 -1 14 4 14 6 0 10 -55 10 -135 l0 -136 -45 2 -45 3 0 133 0 133 28
-1 27 -1 -25 -8z m245 0 c-11 -5 -15 -9 -10 -9 7 -1 11 -35 10 -91 0 -49 3
-90 6 -90 4 0 3 -15 0 -32 -6 -26 -12 -33 -29 -31 -12 2 -22 -1 -22 -6 0 -5
-9 -7 -19 -4 -18 5 -20 16 -23 139 l-3 134 55 -1 c40 0 50 -3 35 -9z m143 3
c-16 -2 -28 -9 -28 -15 0 -6 9 -8 20 -5 17 4 20 0 20 -24 0 -19 5 -29 15 -29
12 0 15 -17 15 -94 l0 -95 -40 1 -40 0 0 134 0 134 33 -1 c30 -2 30 -2 5 -6z
m353 -2 c-11 -7 -9 -10 10 -13 23 -3 24 -5 26 -103 2 -139 0 -145 -48 -145
l-39 0 0 125 c0 112 2 124 17 118 12 -5 15 -2 10 10 -5 13 -1 17 16 17 17 0
19 -2 8 -9z m-143 -137 l0 -125 -39 3 -39 2 0 120 0 121 39 1 38 2 1 -124z
m-5510 -247 c54 -51 46 -57 -80 -58 -62 0 -121 -2 -130 -4 -34 -6 10 68 50 84
67 26 115 19 160 -22z m6458 28 c23 -9 33 -19 28 -26 -4 -7 -3 -9 4 -5 11 6
42 -29 42 -49 0 -6 -40 -9 -112 -7 -164 4 -154 0 -126 42 22 33 69 58 111 59
10 1 34 -6 53 -14z m-4668 -42 l-3 -48 -726 -2 -726 -3 -1 35 c-1 19 3 35 8
35 6 0 10 5 10 11 0 5 -4 7 -10 4 -5 -3 -10 -1 -10 4 0 8 223 11 731 11 l731
0 -4 -47z m4192 37 c0 -5 -7 -10 -15 -10 -9 0 -12 -6 -8 -16 5 -13 7 -13 14
-2 6 8 9 0 9 -25 l0 -37 -735 1 -735 0 0 50 0 49 735 0 c483 0 735 -3 735 -10z"/>
<path d="M4800 4290 c0 -7 -96 -10 -289 -8 -159 2 -288 1 -286 -1 3 -2 -5 -15
-15 -29 -18 -22 -20 -41 -20 -182 0 -131 -3 -159 -15 -164 -19 -7 -20 -26 -2
-26 8 0 19 -11 25 -25 l12 -25 364 0 c213 0 367 4 371 9 3 5 6 98 6 205 2 233
1 236 -88 236 -34 0 -52 4 -48 10 3 6 1 10 -4 10 -6 0 -11 -5 -11 -10z m-125
-120 c-4 -6 6 -10 22 -9 25 0 26 1 8 9 -13 6 8 9 66 9 l85 1 0 -132 -1 -133
-250 -2 c-137 -1 -265 0 -283 3 l-33 5 2 130 1 129 195 0 c127 0 192 -3 188
-10z"/>
<path d="M5311 5671 c-11 -11 -21 -18 -23 -16 -1 2 -2 -180 -1 -403 2 -318 -1
-404 -10 -392 -7 9 -26 16 -43 16 -30 0 -31 -2 -30 -41 1 -36 4 -40 29 -43 19
-2 33 3 42 15 12 15 13 -13 12 -189 -1 -113 1 -204 4 -202 4 2 9 -3 13 -11 3
-8 15 -15 26 -15 12 0 20 -7 20 -17 0 -12 3 -14 8 -6 5 8 102 13 330 16 231 4
327 9 338 18 12 10 14 102 14 644 l-1 633 -22 6 c-12 3 -172 6 -354 6 -315 0
-334 -1 -352 -19z m587 -82 c33 -1 51 -6 49 -13 -3 -6 -10 -10 -16 -8 -16 3
-13 -15 4 -21 16 -7 12 -50 -5 -55 -5 -2 -10 -10 -10 -18 0 -8 3 -13 8 -11 4
1 7 -2 7 -8 0 -5 -2 -9 -5 -8 -12 4 -9 -51 2 -59 10 -6 10 -10 -2 -18 -11 -7
-12 -10 -2 -10 10 0 12 -9 7 -31 -5 -21 -4 -29 3 -25 13 8 5 -45 -8 -58 -6 -6
-3 -17 8 -30 9 -11 12 -16 5 -13 -9 6 -11 -9 -7 -55 3 -44 1 -58 -6 -48 -8 12
-10 11 -10 -7 0 -13 5 -23 10 -23 6 0 10 -7 10 -16 0 -8 -4 -13 -8 -10 -5 3
-9 -1 -9 -9 0 -8 4 -12 9 -9 4 3 8 1 8 -5 0 -5 -6 -12 -12 -14 -9 -4 -10 -8
-2 -14 6 -4 13 -22 16 -39 3 -26 1 -31 -11 -26 -14 5 -14 4 -2 -12 11 -13 11
-20 3 -28 -15 -15 -16 -88 -2 -88 6 0 10 -7 10 -15 0 -8 -4 -15 -9 -15 -6 0
-6 -12 0 -32 12 -42 11 -51 -1 -43 -14 9 -13 -8 2 -23 9 -9 9 -17 -1 -36 -10
-17 -10 -29 -2 -44 8 -15 8 -22 -2 -25 -7 -4 -6 -6 5 -6 11 -1 15 -7 11 -21
-3 -11 -10 -17 -17 -13 -6 3 -3 -3 7 -14 9 -11 17 -22 17 -26 0 -3 -126 -6
-280 -7 l-280 -1 0 31 c0 17 5 30 13 31 10 0 10 2 0 6 -16 6 -18 153 -3 153 6
0 10 5 10 11 0 5 -4 7 -10 4 -7 -4 -10 143 -10 434 0 304 3 441 11 441 5 0 7
-6 3 -12 -6 -10 -5 -10 7 -1 20 16 263 22 487 12z"/>
<path d="M5309 4264 c-10 -12 -14 -60 -15 -184 -1 -92 -4 -171 -7 -176 -3 -5
1 -24 8 -42 l14 -32 354 0 c261 0 356 3 365 12 9 9 12 70 12 213 l0 202 -25
11 c-18 8 -128 12 -359 12 -296 0 -335 -2 -347 -16z m321 -94 c-11 -7 -1 -9
35 -9 47 2 48 2 15 9 -22 5 15 8 103 9 75 0 137 -2 138 -6 0 -5 2 -19 3 -32 2
-14 8 -27 14 -29 13 -4 17 -108 5 -138 -6 -16 -7 -16 -14 2 -7 17 -8 17 -8 -3
-1 -14 5 -23 14 -23 8 0 15 -8 15 -18 0 -17 -16 -18 -232 -20 -128 -1 -254 1
-280 4 l-48 6 0 119 0 119 33 1 32 2 -35 7 c-22 5 12 8 95 9 87 0 125 -2 115
-9z"/>
</g>
</svg>
