<?xml version="1.0" standalone="no"?>
<!DOCTYPE svg PUBLIC "-//W3C//DTD SVG 20010904//EN"
 "http://www.w3.org/TR/2001/REC-SVG-20010904/DTD/svg10.dtd">
<svg version="1.0" xmlns="http://www.w3.org/2000/svg"
 width="1024.000000pt" height="1024.000000pt" viewBox="0 0 1024.000000 1024.000000"
 preserveAspectRatio="xMidYMid meet">
<metadata>
Created by potrace 1.16, written by Peter Selinger 2001-2019
</metadata>
<g transform="translate(0.000000,1024.000000) scale(0.100000,-0.100000)"
fill="#000000" stroke="none">
<path d="M5888 8183 c-39 -24 -45 -44 -57 -181 -24 -266 -89 -463 -203 -617
-57 -77 -98 -116 -111 -108 -5 3 -7 1 -4 -4 9 -14 -71 -86 -85 -77 -6 4 -8 3
-5 -3 13 -21 -153 -117 -367 -213 -113 -51 -140 -60 -148 -49 -8 11 -9 11 -5
-2 4 -12 -32 -32 -164 -88 -93 -40 -174 -69 -180 -65 -7 4 -9 3 -6 -3 9 -14
-154 -84 -180 -77 -13 4 -23 11 -23 16 0 5 -5 6 -10 3 -6 -4 -34 0 -63 9 -80
23 -161 35 -290 44 -83 6 -122 13 -129 23 -8 11 -9 10 -4 -3 5 -16 -2 -18 -45
-18 -132 0 -419 -69 -618 -149 -30 -12 -60 -20 -68 -17 -8 3 -12 2 -9 -2 2 -4
-68 -39 -157 -76 -89 -38 -196 -85 -237 -104 -340 -157 -464 -211 -473 -205
-5 3 -7 1 -4 -4 4 -6 -21 -25 -56 -43 -98 -53 -216 -131 -296 -198 -40 -34
-77 -59 -82 -56 -5 3 -8 0 -7 -8 2 -7 -3 -12 -9 -11 -7 2 -12 -1 -10 -5 1 -5
-35 -47 -79 -95 -65 -68 -84 -83 -95 -74 -11 10 -11 9 -1 -4 11 -14 6 -24 -29
-65 -22 -26 -59 -72 -82 -101 -30 -40 -43 -51 -50 -41 -6 9 -7 8 -3 -5 7 -23
-31 -80 -46 -71 -7 4 -8 2 -4 -4 4 -7 -12 -40 -36 -74 -23 -35 -83 -129 -134
-210 -50 -81 -95 -144 -99 -140 -5 4 -5 2 -2 -4 8 -14 -110 -210 -124 -206 -6
1 -8 -2 -5 -7 9 -14 -5 -42 -17 -34 -5 3 -7 2 -4 -4 3 -5 -4 -27 -17 -49 -12
-21 -82 -141 -154 -265 -175 -303 -195 -344 -187 -380 14 -64 103 -92 148 -46
12 12 58 86 102 164 52 92 83 137 88 130 6 -8 7 -5 3 7 -8 23 51 129 66 120 7
-4 8 -2 4 5 -18 28 541 940 567 924 5 -3 7 -2 4 3 -14 23 212 296 340 410 95
86 145 124 241 183 105 66 359 184 373 175 7 -4 9 -3 6 3 -7 12 45 36 418 198
425 184 616 241 839 252 113 5 130 4 138 -10 5 -10 14 -17 20 -17 7 0 6 5 -2
15 -11 13 -7 15 23 15 20 0 38 -4 42 -10 3 -5 12 -7 20 -4 50 19 447 -98 430
-127 -3 -4 0 -11 6 -15 8 -4 9 -3 5 4 -12 20 3 14 91 -34 46 -25 81 -49 78
-55 -4 -5 2 -6 11 -2 13 5 15 3 9 -7 -5 -8 -4 -11 3 -6 15 9 123 -63 115 -77
-3 -5 -2 -7 4 -4 13 8 95 -47 86 -58 -5 -4 -3 -5 4 -1 29 16 574 -448 557
-476 -3 -4 -2 -8 3 -7 20 4 27 -2 13 -12 -13 -9 -13 -10 1 -6 16 5 54 -25 61
-48 2 -5 6 -9 10 -8 6 2 29 -22 83 -88 54 -66 77 -103 79 -124 0 -13 4 -21 7
-19 10 6 19 -23 19 -61 0 -18 -8 -43 -17 -54 -20 -24 -87 -44 -118 -35 -26 8
-86 65 -79 76 3 5 1 7 -4 6 -6 -2 -45 29 -88 67 -42 39 -86 76 -96 83 -10 7
-16 18 -12 23 3 5 1 8 -4 7 -5 -2 -60 38 -123 88 -63 50 -128 101 -146 114
-18 13 -29 28 -26 33 3 6 1 7 -5 3 -14 -9 -124 68 -114 79 4 5 2 5 -4 2 -16
-9 -92 45 -87 63 4 12 3 13 -5 1 -8 -12 -16 -10 -46 8 -20 13 -36 28 -36 33 0
6 -3 9 -6 5 -7 -6 -64 19 -64 29 0 3 4 2 10 -1 6 -3 7 1 3 10 -4 12 -8 13 -13
5 -5 -8 -49 11 -138 58 -73 38 -129 72 -125 76 4 3 -2 5 -13 4 -28 -4 -206 74
-191 84 19 13 -55 -3 -85 -18 -15 -8 -31 -28 -38 -48 -17 -52 5 -87 72 -115
122 -51 327 -155 322 -162 -3 -5 1 -6 8 -4 18 7 294 -159 290 -175 -1 -6 2 -8
8 -5 19 12 314 -200 303 -218 -3 -5 -1 -7 5 -3 14 8 74 -43 65 -56 -3 -6 -1
-8 5 -4 14 8 74 -43 65 -56 -3 -7 -1 -8 6 -4 15 10 43 -13 34 -27 -3 -6 -1 -7
5 -3 15 9 236 -210 226 -225 -4 -7 -3 -9 3 -6 25 15 93 -104 93 -161 0 -69
-30 -88 -128 -82 -72 4 -204 90 -170 111 10 7 8 9 -5 9 -11 0 -15 4 -11 12 4
6 3 8 -3 5 -6 -4 -18 3 -26 16 -23 35 -155 167 -232 234 -96 82 -250 196 -380
283 -61 40 -109 77 -107 82 1 5 -2 7 -7 3 -14 -8 -243 130 -233 140 4 5 2 5
-5 2 -16 -10 -44 3 -36 17 3 6 3 8 -2 4 -6 -6 -263 115 -275 131 -3 3 -12 7
-20 9 -37 7 -198 87 -193 96 3 5 1 6 -4 3 -6 -4 -38 5 -72 18 -75 31 -93 31
-125 3 -34 -32 -41 -75 -17 -114 14 -23 40 -39 111 -68 66 -28 88 -41 78 -48
-9 -7 -7 -8 8 -3 25 7 409 -180 444 -217 13 -13 20 -17 15 -10 -5 10 2 9 26
-3 72 -37 199 -117 199 -126 0 -5 6 -8 13 -7 6 2 11 -2 10 -9 -2 -8 4 -10 14
-6 12 5 14 3 8 -7 -5 -9 -4 -11 3 -6 14 9 145 -78 134 -89 -4 -5 -2 -5 4 -2
13 8 80 -40 76 -54 -1 -6 2 -8 8 -4 18 11 330 -249 330 -275 0 -6 4 -9 9 -6 9
6 57 -49 103 -118 37 -55 38 -113 2 -147 -40 -37 -129 -34 -215 8 -73 37 -185
124 -181 142 1 7 -2 10 -7 7 -5 -3 -44 24 -87 60 -158 131 -282 224 -436 326
-87 58 -154 109 -150 113 4 5 2 5 -4 2 -16 -9 -106 42 -98 55 4 7 2 8 -4 4 -6
-4 -69 25 -140 64 -123 68 -376 187 -474 225 -26 9 -46 21 -43 24 4 7 -51 4
-92 -5 -24 -5 -53 -50 -53 -82 0 -36 39 -70 117 -102 149 -60 282 -123 278
-131 -3 -4 0 -11 6 -15 8 -4 9 -3 5 4 -11 18 -2 15 95 -33 57 -29 87 -50 83
-57 -4 -7 -3 -8 4 -4 12 7 112 -40 147 -69 11 -9 14 -13 6 -9 -9 5 -12 3 -7
-5 4 -6 12 -9 17 -5 9 5 192 -101 232 -134 9 -9 27 -20 40 -27 12 -6 21 -17
19 -24 -1 -7 2 -10 7 -6 12 7 193 -124 186 -134 -2 -4 2 -8 9 -8 7 0 54 -35
104 -78 81 -69 91 -82 86 -104 -6 -25 -6 -25 9 -6 l16 20 -3 -20 c-3 -25 -60
-55 -104 -55 -49 0 -175 45 -272 97 -242 130 -369 206 -363 216 3 6 1 7 -6 3
-14 -9 -141 60 -141 76 0 6 -3 9 -6 5 -3 -3 -86 34 -183 82 -97 49 -187 92
-201 96 -14 4 -29 11 -35 15 -37 27 -327 109 -398 111 l-32 1 30 7 c57 14
-251 0 -337 -14 -106 -18 -159 -35 -263 -85 -132 -63 -277 -186 -373 -315 -24
-33 -49 -59 -54 -57 -5 1 -7 -2 -3 -8 3 -5 -7 -29 -23 -52 -103 -151 -238
-469 -317 -750 -15 -54 -30 -96 -34 -94 -3 2 -6 -8 -7 -22 -1 -57 -88 -441
-97 -435 -7 4 -8 -1 -3 -12 8 -23 -15 -156 -26 -149 -4 3 -5 -2 -2 -11 4 -9
-5 -76 -20 -148 -43 -215 -156 -805 -156 -817 0 -6 -4 -9 -9 -6 -5 4 -7 -2 -5
-11 3 -10 -4 -65 -16 -123 -11 -58 -20 -119 -20 -136 0 -39 34 -84 63 -84 18
0 19 -2 7 -11 -11 -8 -9 -9 10 -3 52 14 69 24 83 46 8 13 29 100 46 193 121
648 288 1493 326 1645 65 261 133 456 225 646 67 139 176 308 192 298 7 -4 8
-2 4 5 -10 15 112 142 184 191 142 97 247 130 431 137 105 4 155 2 220 -11
112 -23 219 -56 219 -68 0 -5 4 -6 10 -3 16 10 296 -115 312 -139 4 -6 8 -8 8
-3 0 4 36 -11 80 -33 63 -32 78 -44 74 -57 -4 -13 -3 -14 3 -5 11 15 46 5 36
-11 -3 -6 -1 -7 5 -3 14 9 298 -150 294 -165 -1 -6 2 -8 7 -5 14 9 302 -144
295 -156 -4 -6 -2 -8 4 -4 6 3 14 1 17 -5 4 -5 14 -8 22 -5 8 4 44 -3 80 -14
131 -40 241 -19 325 62 l48 47 78 -40 c42 -22 76 -45 74 -51 -2 -8 1 -8 11 1
11 8 22 9 41 1 35 -13 130 -13 178 0 67 19 130 71 164 136 l31 60 36 -17 c21
-8 35 -18 33 -20 -10 -10 153 -1 193 10 61 17 135 89 160 155 23 61 19 123
-11 204 -12 33 -17 57 -11 59 6 2 27 12 48 23 21 11 42 17 48 13 6 -3 7 -2 4
4 -4 6 5 21 19 34 14 13 37 46 51 73 58 114 16 247 -138 441 -30 37 -53 71
-51 76 1 5 -2 8 -6 7 -10 -4 -220 211 -213 217 2 3 -1 5 -8 5 -16 0 -187 150
-183 162 1 5 -1 7 -6 4 -10 -6 -188 134 -184 146 1 5 -1 7 -6 4 -10 -6 -78 42
-75 53 1 4 -4 8 -10 8 -7 0 -53 27 -102 60 -50 33 -112 72 -138 87 -41 25 -46
30 -35 45 12 14 11 14 -4 2 -15 -11 -24 -9 -64 14 -25 15 -44 28 -42 30 18 16
411 174 420 169 6 -4 8 -3 4 4 -3 6 4 14 16 18 39 12 300 140 362 177 33 20
63 34 68 31 5 -3 7 -1 6 4 -4 12 148 132 158 124 4 -4 4 -2 1 4 -4 6 3 20 15
30 39 35 137 164 172 227 78 140 125 293 156 507 22 151 25 232 10 261 -11 20
-60 49 -82 49 -7 0 -25 -8 -40 -17z"/>
<path d="M7744 7273 c2 -3 -4 -13 -14 -23 -22 -22 -93 -203 -120 -308 -31
-116 -35 -202 -16 -306 19 -101 38 -143 105 -235 25 -35 45 -68 43 -75 -2 -6
-1 -8 3 -4 4 4 32 -14 63 -39 113 -92 235 -163 566 -327 218 -108 334 -171
330 -178 -4 -7 -3 -8 4 -4 22 13 358 -177 346 -196 -4 -7 -3 -8 4 -4 18 11
187 -105 174 -119 -4 -5 -2 -5 4 -2 14 8 66 -31 59 -44 -4 -5 0 -6 7 -4 8 3
59 -37 120 -94 59 -55 118 -103 132 -107 63 -15 123 64 92 123 -32 61 -263
261 -419 362 -58 38 -66 46 -55 60 11 14 11 14 -3 3 -14 -11 -28 -6 -87 30
-39 23 -68 46 -65 52 3 5 1 6 -5 2 -12 -7 -142 63 -142 77 0 4 -3 6 -8 3 -12
-7 -303 150 -295 159 5 4 3 5 -3 2 -16 -9 -100 29 -108 49 -3 8 -11 12 -17 8
-17 -10 -169 67 -169 86 0 12 -2 12 -9 2 -6 -11 -11 -10 -25 3 -9 9 -16 14
-16 11 0 -11 -92 40 -185 101 -98 65 -211 175 -199 194 4 7 3 9 -3 6 -16 -10
-53 77 -66 150 -7 45 -7 82 1 130 14 86 53 214 62 208 4 -3 7 1 7 8 -1 6 9 44
22 83 27 80 24 115 -14 140 -20 13 -113 29 -101 17z"/>
<path d="M3383 3510 c-18 -11 -33 -21 -33 -24 0 -2 -12 -55 -26 -117 -39 -170
-66 -287 -128 -568 -31 -140 -79 -353 -106 -473 -56 -244 -60 -283 -29 -322
29 -37 99 -37 127 -1 25 32 22 18 247 1025 25 113 58 254 72 314 25 103 26
110 10 137 -11 21 -13 29 -4 30 17 2 -43 16 -73 18 -14 0 -40 -8 -57 -19z"/>
</g>
</svg>
