<?xml version="1.0" standalone="no"?>
<!DOCTYPE svg PUBLIC "-//W3C//DTD SVG 20010904//EN"
 "http://www.w3.org/TR/2001/REC-SVG-20010904/DTD/svg10.dtd">
<svg version="1.0" xmlns="http://www.w3.org/2000/svg"
 width="1024.000000pt" height="1024.000000pt" viewBox="0 0 1024.000000 1024.000000"
 preserveAspectRatio="xMidYMid meet">
<metadata>
Created by potrace 1.16, written by Peter Selinger 2001-2019
</metadata>
<g transform="translate(0.000000,1024.000000) scale(0.100000,-0.100000)"
fill="#000000" stroke="none">
<path d="M6446 7364 c-33 -33 -20 -65 63 -150 167 -174 301 -425 395 -741 41
-139 89 -361 82 -380 -3 -7 -2 -13 2 -13 14 0 33 -170 21 -191 -7 -14 -7 -19
3 -17 14 3 19 -27 48 -324 17 -167 19 -221 10 -235 -10 -16 -11 -16 -7 5 3 14
0 22 -8 22 -22 0 -12 -45 11 -48 20 -3 21 -11 27 -145 4 -78 7 -230 7 -337 0
-187 -1 -197 -25 -245 -29 -59 -30 -83 -7 -110 31 -37 47 -36 83 6 29 34 60
55 45 30 -3 -5 0 -8 7 -7 22 2 177 -47 177 -56 0 -5 4 -7 10 -3 10 6 180 -46
337 -105 121 -45 187 -81 210 -117 16 -24 16 -27 -10 -77 -34 -64 -34 -89 -1
-111 35 -23 64 -9 100 44 54 82 39 190 -36 254 -53 45 -163 98 -305 146 -66
23 -127 44 -135 48 -8 3 -21 7 -29 9 -41 8 -226 69 -229 76 -2 4 -10 4 -19 1
-15 -6 -16 19 -10 268 7 315 35 578 94 884 8 44 18 84 21 90 3 5 7 24 9 41 7
63 95 351 149 483 99 243 218 456 351 624 69 89 79 125 41 151 -48 34 -74 16
-173 -119 -108 -147 -222 -352 -301 -542 -41 -97 -144 -399 -144 -420 0 -7 -5
-13 -11 -13 -5 0 -7 -4 -4 -10 3 -5 1 -27 -4 -47 -19 -69 -69 -317 -76 -376
-4 -31 -11 -60 -16 -63 -5 -3 -10 -35 -11 -72 -1 -40 -3 -51 -5 -27 -16 198
-37 408 -48 495 -8 58 -14 112 -14 120 0 8 -14 80 -30 159 -17 79 -29 146 -26
149 3 3 1 10 -4 16 -5 6 -16 39 -25 72 -73 281 -216 571 -383 776 -109 134
-168 172 -207 132z"/>
<path d="M6022 6600 c-12 -12 -22 -32 -22 -46 0 -29 17 -46 128 -133 45 -35
79 -68 75 -74 -3 -5 -1 -7 4 -4 11 7 243 -227 243 -243 0 -4 13 -21 28 -38 70
-75 202 -295 261 -437 39 -92 107 -290 115 -335 2 -14 9 -45 16 -70 13 -52 48
-270 43 -270 -11 0 -97 75 -95 82 1 5 -2 7 -7 3 -6 -3 -28 5 -49 19 -127 80
-296 126 -492 133 l-145 6 -65 74 c-36 41 -64 80 -64 88 1 8 -2 12 -8 9 -5 -3
-39 23 -76 58 -150 141 -325 263 -476 333 -114 52 -151 68 -157 67 -3 -1 -34
7 -68 18 -34 10 -104 24 -154 30 -51 6 -105 15 -122 19 -43 10 -265 -15 -354
-40 -104 -29 -226 -87 -322 -153 -44 -31 -86 -53 -91 -50 -6 4 -8 3 -5 -2 3
-6 -37 -53 -89 -104 -53 -52 -110 -114 -127 -137 -16 -24 -34 -43 -39 -43 -4
0 -8 -6 -8 -13 0 -8 -9 -22 -20 -32 -20 -18 -23 -18 -88 3 -127 40 -250 55
-426 50 -193 -6 -297 -28 -419 -89 -104 -53 -157 -89 -231 -158 -122 -116
-209 -261 -247 -411 -23 -89 -22 -187 2 -231 15 -29 2 -39 -54 -42 -26 -1 -47
-5 -47 -9 0 -5 -8 -8 -17 -8 -10 0 -63 -13 -118 -29 -226 -64 -325 -151 -325
-286 0 -55 16 -102 49 -138 15 -17 14 -20 -4 -33 -10 -8 -14 -14 -9 -14 6 0
14 4 19 9 6 6 34 -9 75 -41 36 -27 97 -65 135 -83 172 -79 472 -156 780 -200
22 -3 65 -10 95 -15 30 -5 75 -12 100 -14 25 -2 137 -13 250 -25 113 -11 252
-23 310 -26 58 -4 119 -8 135 -10 17 -2 116 -6 220 -10 105 -4 210 -9 235 -11
80 -6 283 -4 379 5 80 7 97 12 113 31 10 12 18 30 18 40 0 24 -34 52 -62 51
-291 -12 -480 -11 -733 3 -289 16 -513 32 -570 42 -16 2 -61 7 -100 9 -88 5
-528 67 -535 74 -3 3 -23 7 -45 9 -53 4 -310 66 -410 99 -271 88 -401 230
-297 324 35 32 76 58 99 62 10 2 27 8 38 14 29 15 236 66 242 59 4 -3 11 -2
17 3 6 5 40 11 76 14 64 4 110 -7 110 -26 0 -6 3 -8 6 -4 4 3 23 -1 43 -9 63
-26 262 -72 391 -90 124 -16 498 -23 615 -10 61 7 248 41 330 60 33 8 63 12
66 10 4 -2 9 -1 11 3 1 5 34 19 72 32 108 38 216 101 280 164 40 40 64 56 75
52 9 -4 199 -6 422 -5 223 0 413 -2 422 -6 9 -3 14 -11 11 -16 -4 -6 4 -8 17
-6 13 2 23 8 22 14 -2 14 72 17 97 4 11 -6 18 -15 15 -21 -4 -5 -2 -8 3 -7 5
2 30 -16 56 -39 26 -23 49 -42 51 -43 3 0 31 -13 63 -28 31 -16 86 -39 122
-51 36 -12 72 -24 80 -28 8 -3 24 -7 35 -8 11 -2 55 -8 98 -14 232 -32 568 7
716 83 17 9 32 15 33 14 2 -2 36 19 76 46 75 49 147 128 158 172 3 13 10 24
14 24 4 0 7 67 6 150 0 82 -5 150 -10 150 -5 0 -6 20 -4 45 3 25 2 45 -3 45
-5 0 -9 15 -9 33 0 19 -12 96 -26 173 -15 76 -28 146 -29 154 -1 8 -5 22 -8
30 -3 8 -15 47 -28 85 -12 39 -39 112 -60 163 -20 50 -34 92 -31 92 4 0 2 4
-4 8 -5 4 -29 43 -53 86 -96 181 -218 346 -375 511 -53 55 -96 103 -96 108 0
4 -4 7 -10 7 -5 0 -53 36 -107 81 -79 66 -128 99 -147 99 -1 0 -12 -9 -24 -20z
m-938 -856 c107 -22 200 -52 283 -89 83 -38 222 -121 268 -159 25 -22 28 -27
15 -36 -8 -5 -10 -10 -5 -10 6 0 16 5 22 11 9 9 52 -29 170 -146 138 -138 155
-159 138 -166 -146 -59 -189 -79 -251 -121 -142 -95 -235 -213 -256 -325 -10
-56 -12 -59 -42 -61 -17 -2 -186 -5 -376 -8 -319 -5 -346 -4 -357 12 -7 10
-13 14 -13 8 0 -5 -27 -10 -60 -12 -41 -2 -60 1 -60 9 0 8 -4 8 -16 -1 -13
-11 -16 -10 -21 9 -22 84 -124 248 -216 348 -55 60 -186 162 -262 203 -33 19
-62 35 -64 36 -8 7 116 152 193 227 118 114 243 193 379 240 43 15 80 26 85
25 4 0 14 2 22 5 61 27 300 27 424 1z m-1536 -505 c204 -22 347 -73 507 -180
83 -56 244 -199 223 -199 -3 0 9 -16 27 -35 44 -48 87 -140 93 -196 4 -43 1
-50 -34 -88 -90 -100 -365 -190 -674 -221 -108 -11 -484 -15 -499 -5 -5 2 -46
7 -91 10 -46 3 -88 9 -95 15 -6 5 -14 8 -17 5 -8 -8 -104 14 -204 46 -94 31
-189 83 -180 98 3 5 0 11 -8 14 -7 3 -19 26 -26 51 -11 40 -10 56 4 114 56
230 246 438 481 527 137 51 297 66 493 44z m2937 -198 c166 -43 352 -159 416
-259 22 -34 29 -58 29 -94 0 -27 -5 -48 -11 -48 -5 0 -7 -4 -4 -10 3 -5 1 -10
-6 -10 -7 0 -9 -3 -6 -6 17 -17 -113 -141 -134 -128 -5 3 -9 1 -9 -4 0 -5 -21
-19 -47 -30 -37 -16 -51 -18 -62 -9 -12 9 -13 9 -7 -1 5 -8 -2 -16 -21 -23
-89 -34 -413 -73 -427 -51 -4 7 -25 9 -54 6 -51 -6 -255 30 -260 47 -2 5 -8 7
-13 3 -20 -12 -175 74 -221 124 -62 66 -77 116 -54 176 34 88 160 201 296 265
35 17 67 28 72 25 4 -3 8 0 8 6 0 7 6 10 14 7 8 -3 16 -2 18 3 2 6 44 16 93
24 117 19 284 13 390 -13z"/>
</g>
</svg>
