<?xml version="1.0" standalone="no"?>
<!DOCTYPE svg PUBLIC "-//W3C//DTD SVG 20010904//EN"
 "http://www.w3.org/TR/2001/REC-SVG-20010904/DTD/svg10.dtd">
<svg version="1.0" xmlns="http://www.w3.org/2000/svg"
 width="1024.000000pt" height="1024.000000pt" viewBox="0 0 1024.000000 1024.000000"
 preserveAspectRatio="xMidYMid meet">
<metadata>
Created by potrace 1.16, written by Peter Selinger 2001-2019
</metadata>
<g transform="translate(0.000000,1024.000000) scale(0.100000,-0.100000)"
fill="#000000" stroke="none">
<path d="M6553 7289 c-36 -11 -60 -40 -68 -85 -5 -24 8 -52 75 -164 94 -156
202 -365 193 -374 -4 -3 -1 -6 5 -6 7 0 12 -5 12 -12 0 -6 12 -35 26 -64 14
-29 27 -58 28 -66 1 -7 8 -23 14 -35 7 -13 10 -23 7 -23 -3 0 2 -11 11 -25 12
-19 13 -25 3 -25 -9 0 -7 -4 4 -12 9 -7 23 -31 30 -53 12 -34 12 -43 -1 -62
-9 -15 -10 -23 -3 -23 6 0 11 7 11 15 0 8 5 15 11 15 5 0 8 -4 5 -8 -3 -5 1
-20 9 -35 8 -15 11 -27 8 -27 -3 0 -1 -6 5 -13 6 -7 13 -24 16 -37 13 -61 29
-116 38 -133 8 -16 6 -18 -11 -12 -13 4 -21 2 -21 -5 0 -6 3 -9 8 -6 11 7 45
-21 38 -33 -4 -5 -2 -12 3 -16 6 -3 8 -12 5 -19 -3 -8 -1 -17 5 -21 6 -3 11
-21 11 -40 0 -19 4 -37 10 -40 5 -3 10 -16 9 -28 0 -29 8 -77 15 -84 2 -3 1
-16 -4 -29 -7 -19 -6 -22 6 -17 11 4 15 0 13 -13 -2 -10 0 -28 4 -39 4 -12 10
-48 13 -80 3 -33 8 -78 11 -100 3 -22 5 -55 5 -72 0 -18 5 -33 10 -33 5 0 9
-21 9 -47 0 -27 2 -84 5 -128 7 -90 10 -214 20 -697 5 -249 4 -338 -5 -338
-18 0 -50 37 -53 62 -2 13 -7 28 -10 34 -4 6 -7 85 -7 175 0 223 -7 316 -37
504 -3 17 -7 41 -8 55 -2 14 -5 25 -6 25 -1 0 -4 11 -6 25 -4 29 -11 63 -15
70 -1 3 -3 10 -4 15 -2 6 -4 13 -5 18 -1 4 -4 12 -5 17 -1 6 -3 11 -5 13 -1 1
-3 9 -5 17 -4 15 -17 56 -39 115 -6 17 -11 33 -11 37 0 3 -3 10 -7 14 -5 4 -8
14 -8 22 0 8 -16 49 -36 91 -56 116 -57 118 -49 130 3 6 11 8 17 5 7 -5 8 -2
3 5 -5 9 -10 10 -18 2 -13 -13 -49 31 -51 63 0 13 -6 21 -12 19 -11 -4 -38 50
-37 74 0 7 -3 11 -7 8 -5 -3 -21 15 -37 40 -15 25 -31 45 -35 45 -5 0 -8 6 -8
13 0 6 -14 28 -30 47 -16 19 -33 40 -37 45 -68 89 -274 299 -336 341 -21 14
-37 28 -37 33 0 8 -60 29 -95 33 -51 5 -95 -42 -97 -102 -1 -17 -6 -30 -12
-30 -6 0 -3 -5 7 -11 9 -5 17 -15 17 -22 0 -7 13 -21 29 -32 58 -41 230 -214
301 -303 14 -18 35 -44 48 -59 40 -49 42 -52 42 -63 0 -5 5 -10 10 -10 6 0 10
-7 10 -15 0 -8 5 -15 10 -15 6 0 10 -7 10 -15 0 -8 5 -15 12 -15 6 0 8 -3 5
-6 -4 -4 6 -23 22 -43 33 -42 71 -110 71 -128 0 -7 4 -13 8 -13 15 0 55 -98
48 -116 -4 -10 -4 -15 0 -11 9 9 45 -43 38 -55 -3 -4 0 -8 7 -8 7 0 9 -3 6 -7
-4 -3 -2 -12 4 -19 5 -7 12 -25 15 -40 3 -16 10 -34 15 -40 6 -8 6 -14 0 -18
-5 -3 -11 -3 -14 1 -2 5 -2 2 0 -5 1 -8 3 -21 4 -30 1 -10 4 -7 9 8 l7 25 10
-25 c7 -16 7 -29 1 -37 -5 -7 -8 -18 -5 -25 3 -8 6 -5 6 6 1 15 4 17 13 8 8
-8 8 -15 -2 -27 -11 -13 -10 -14 5 -9 13 5 16 4 11 -5 -4 -6 -2 -19 5 -27 6
-8 9 -17 6 -21 -4 -3 -3 -11 2 -17 16 -21 20 -60 8 -75 -8 -10 -8 -13 -1 -8
14 8 27 -20 17 -36 -4 -7 -9 -3 -14 9 -7 18 -8 18 -8 -1 0 -11 4 -27 9 -35 8
-12 10 -12 10 -1 0 30 14 -1 17 -37 1 -20 5 -48 9 -62 4 -14 8 -41 10 -60 3
-19 7 -51 10 -70 l5 -35 -25 28 c-14 15 -30 27 -35 27 -6 0 -14 6 -18 13 -14
24 -215 136 -257 144 -11 2 -25 8 -33 14 -7 6 -13 8 -13 4 0 -4 -6 -2 -13 4
-8 6 -17 8 -20 5 -3 -3 -12 -2 -19 2 -15 9 -23 11 -93 21 -60 7 -166 6 -217
-3 -29 -5 -38 -3 -38 7 0 28 -70 144 -156 257 -42 55 -135 141 -231 213 -54
40 -99 77 -101 81 -2 5 -10 8 -17 8 -8 0 -20 6 -27 13 -12 12 -161 87 -183 93
-9 2 -78 28 -130 49 -29 11 -31 12 -130 34 -49 11 -90 20 -90 21 0 3 -71 8
-180 13 -124 5 -213 -4 -330 -35 -44 -12 -82 -20 -84 -19 -2 2 -7 -1 -10 -6
-3 -4 -28 -19 -56 -31 -211 -99 -396 -282 -513 -505 -22 -43 -31 -54 -35 -40
-4 15 -5 16 -6 1 -1 -16 -4 -16 -43 -1 -39 14 -142 38 -208 48 -14 2 -63 7
-110 10 -46 4 -87 8 -91 11 -18 11 -336 -47 -399 -73 -8 -3 -17 -7 -20 -7 -3
-1 -48 -26 -100 -56 -104 -60 -223 -167 -297 -264 -44 -59 -124 -205 -130
-237 -1 -9 -8 -29 -14 -45 -7 -16 -14 -45 -16 -64 -2 -19 -8 -48 -13 -65 -8
-25 -7 -99 3 -192 1 -13 6 -23 11 -23 4 0 6 -6 3 -14 -3 -8 -1 -17 6 -20 7 -2
5 -5 -5 -6 -22 -3 -29 -5 -50 -14 -9 -4 -22 -9 -30 -10 -7 -2 -29 -9 -48 -16
-19 -8 -37 -12 -39 -11 -2 1 -7 -1 -10 -6 -3 -5 -26 -17 -51 -28 -132 -56
-245 -156 -274 -242 -19 -56 -21 -130 -4 -186 25 -84 166 -203 315 -267 29
-12 51 -26 48 -29 -2 -4 6 -7 18 -6 12 1 38 -6 57 -15 19 -10 38 -18 43 -19 4
-1 8 -1 10 -2 1 0 9 -2 17 -4 8 -1 58 -15 110 -30 52 -14 103 -26 112 -26 10
0 20 -5 23 -10 4 -5 11 -7 16 -4 5 4 14 3 21 -1 7 -4 24 -9 38 -10 14 -2 36
-6 50 -10 14 -4 29 -6 34 -5 4 1 14 -3 20 -9 7 -5 15 -8 18 -5 2 3 40 -2 84
-11 125 -25 128 -25 149 -26 11 0 45 -5 75 -10 30 -6 66 -12 80 -14 58 -7 108
-13 155 -18 28 -3 64 -8 80 -10 42 -6 148 -16 225 -21 36 -3 99 -7 140 -10 72
-5 159 -11 285 -19 184 -13 549 -20 573 -12 33 11 71 53 74 81 4 56 3 75 -5
75 -4 0 -5 5 -2 10 3 6 2 10 -2 10 -5 0 -19 10 -33 23 -18 16 -38 22 -75 23
-323 8 -413 13 -438 25 -20 9 -30 10 -35 2 -5 -7 -35 -9 -87 -6 -44 3 -105 5
-135 4 -30 -1 -66 3 -80 8 -14 6 -74 13 -135 16 -189 11 -330 24 -430 40 -22
3 -51 6 -64 6 -13 -1 -29 3 -35 8 -6 5 -51 12 -101 16 -49 3 -95 10 -101 16
-7 6 -22 8 -33 4 -10 -3 -22 -1 -26 5 -4 6 -15 8 -26 5 -10 -4 -24 -3 -31 1
-7 4 -24 9 -37 10 -31 4 -120 23 -141 31 -8 4 -18 6 -21 5 -4 -1 -22 3 -40 9
-19 6 -45 12 -59 15 -14 2 -32 7 -40 11 -8 3 -19 7 -25 8 -45 6 -85 19 -85 27
0 5 -4 7 -9 3 -11 -6 -213 72 -222 87 -3 5 -10 10 -15 10 -20 2 -66 44 -80 73
-13 28 -13 35 2 64 9 17 35 44 57 58 41 26 209 94 319 128 56 18 56 18 105 -5
26 -13 50 -24 53 -25 3 0 10 -3 16 -7 6 -4 24 -9 40 -12 16 -3 52 -10 79 -16
91 -19 87 -19 220 -34 192 -23 421 -27 590 -12 55 5 118 10 140 12 85 7 121
12 162 22 23 5 44 7 47 4 3 -2 18 0 33 6 15 6 48 14 73 17 25 4 50 10 55 15 6
5 13 8 18 8 26 1 76 18 137 48 39 19 73 34 76 34 11 0 150 119 174 149 l25 31
450 0 450 0 15 -22 c8 -13 13 -30 11 -38 -2 -8 0 -12 3 -9 4 3 26 -13 51 -37
24 -24 49 -44 55 -44 5 0 10 -4 10 -10 0 -5 18 -15 40 -21 22 -7 40 -16 40
-21 0 -4 6 -7 13 -5 6 1 11 -2 10 -8 -1 -5 8 -10 20 -11 12 0 38 -4 57 -8 73
-14 85 -17 100 -17 8 -1 33 -5 55 -10 147 -30 674 -34 755 -5 8 3 29 7 45 10
106 17 224 77 302 153 43 42 48 44 87 38 23 -4 45 -11 50 -15 5 -5 15 -6 22
-3 8 3 20 1 27 -5 7 -6 31 -13 54 -16 72 -8 124 -26 117 -39 -5 -9 -4 -9 5 -1
11 10 70 2 136 -20 6 -2 15 -5 20 -6 32 -8 112 -32 125 -37 8 -3 24 -8 34 -10
11 -2 24 -7 30 -12 6 -4 25 -11 41 -15 41 -10 205 -87 205 -98 0 -4 5 -8 12
-8 26 0 76 -52 108 -114 19 -36 40 -66 47 -66 7 0 13 -4 13 -8 0 -13 78 -14
102 -1 37 20 48 36 57 83 6 36 4 54 -13 93 -11 26 -25 53 -31 59 -6 7 -22 25
-36 40 -37 44 -192 154 -225 160 -5 1 -36 14 -68 28 -32 15 -97 40 -145 56
-47 17 -93 33 -101 37 -8 3 -21 7 -29 9 -50 10 -148 39 -158 47 -7 5 -17 6
-22 3 -5 -4 -12 -3 -15 2 -2 4 -19 9 -37 10 -18 1 -35 5 -38 8 -6 6 -11 296
-12 614 0 189 10 501 17 512 3 4 7 31 9 60 9 124 17 182 25 198 5 10 7 20 4
23 -3 3 0 25 7 48 7 24 12 48 10 53 -1 4 4 25 11 45 7 20 11 40 10 44 -4 14
49 201 60 215 6 6 8 12 5 12 -8 0 30 109 43 125 5 6 7 15 3 18 -3 4 2 7 13 7
13 0 15 3 7 8 -9 6 -1 33 31 104 51 113 125 252 137 256 5 2 9 8 9 13 0 10 81
134 151 230 32 45 40 66 41 100 0 37 -4 47 -33 71 -25 21 -44 28 -75 28 -38 0
-46 -5 -112 -75 -39 -41 -69 -75 -66 -75 2 0 -13 -24 -34 -52 -68 -93 -164
-260 -192 -335 -7 -18 -17 -33 -23 -33 -6 0 -8 -3 -4 -6 3 -3 -4 -27 -15 -52
-36 -85 -41 -97 -45 -115 -1 -10 -10 -31 -18 -47 -9 -17 -15 -32 -15 -35 0 -3
0 -6 -1 -7 0 -2 -2 -14 -5 -27 -2 -14 -8 -29 -13 -35 -10 -12 -23 -69 -22 -98
0 -10 -4 -20 -10 -23 -5 -4 -9 -16 -10 -28 -1 -25 -15 25 -23 83 -3 19 -8 46
-11 60 -3 14 -7 30 -8 35 -2 6 -6 16 -11 23 -4 7 -5 16 -2 19 3 3 1 12 -4 19
-6 6 -10 16 -8 20 1 5 -8 38 -20 74 -12 36 -24 76 -26 90 -3 14 -5 26 -7 28
-1 1 -3 7 -4 12 -1 6 -3 11 -4 13 -2 1 -4 12 -7 25 -2 12 -14 42 -25 65 -12
23 -21 42 -20 42 2 0 -6 26 -17 55 -3 8 -6 17 -6 20 -1 3 -7 15 -14 26 -6 12
-8 24 -5 28 3 3 1 6 -5 6 -6 0 -14 16 -18 35 -3 19 -9 35 -13 35 -4 0 -13 17
-20 38 -16 48 -122 262 -138 280 -7 7 -13 17 -13 22 0 4 -16 32 -35 61 -19 30
-35 59 -35 65 0 7 -3 14 -7 16 -5 2 -26 29 -47 61 -52 77 -102 103 -163 86z
m-1510 -1923 c44 -10 91 -22 105 -28 15 -6 36 -13 46 -15 11 -2 25 -8 33 -14
7 -6 13 -8 13 -4 0 4 6 2 13 -4 8 -6 17 -8 20 -4 4 3 7 1 7 -5 0 -7 7 -12 15
-12 36 0 275 -139 275 -160 0 -5 5 -10 10 -10 16 0 130 -112 124 -122 -3 -5
-1 -7 5 -6 23 7 160 -181 167 -229 2 -9 -10 -20 -27 -26 -16 -6 -29 -15 -29
-19 0 -4 -7 -8 -15 -8 -8 0 -15 -4 -15 -8 0 -4 -22 -25 -50 -46 -67 -51 -138
-123 -180 -182 -19 -27 -37 -51 -40 -54 -4 -3 -17 -31 -31 -62 -22 -54 -39
-73 -39 -46 0 6 -3 8 -6 5 -4 -4 -1 -14 6 -23 11 -12 11 -17 1 -23 -7 -5 -12
-12 -12 -17 1 -5 -185 -10 -428 -10 l-429 -1 -6 43 c-6 47 -69 186 -98 218
-10 11 -18 24 -18 29 0 13 -159 167 -203 197 -20 14 -37 28 -37 33 0 4 -7 7
-15 7 -8 0 -15 5 -15 11 0 5 5 7 12 3 6 -4 8 -3 5 4 -4 5 -15 8 -25 6 -9 -3
-26 3 -37 13 -11 10 -35 25 -52 32 -18 7 -33 17 -33 22 0 5 -7 9 -15 9 -19 0
-13 15 48 119 90 153 265 310 387 346 3 1 21 9 41 18 20 9 64 21 99 26 34 6
64 12 66 13 10 11 291 -2 357 -16z m-1553 -559 c106 -15 126 -19 136 -28 6 -5
13 -6 16 -3 3 2 30 -5 59 -16 30 -12 65 -23 79 -26 13 -3 27 -8 30 -12 3 -4
19 -12 35 -18 17 -6 29 -16 27 -22 -1 -7 2 -12 8 -12 5 0 10 5 10 10 0 6 6 5
14 -2 8 -7 12 -16 9 -20 -2 -4 3 -5 11 -2 27 10 165 -77 261 -165 52 -48 151
-171 138 -171 -4 0 -3 -4 4 -8 11 -7 17 -26 30 -93 9 -50 -56 -140 -134 -186
-24 -14 -48 -26 -55 -27 -7 -2 -29 -10 -49 -19 -20 -9 -47 -18 -60 -20 -13 -2
-31 -7 -40 -11 -9 -4 -27 -8 -40 -10 -13 -2 -43 -8 -67 -15 -23 -7 -47 -9 -53
-6 -5 4 -15 2 -22 -4 -11 -9 -126 -23 -272 -32 -118 -8 -480 -2 -568 10 -5 1
-5 7 -1 14 6 10 4 10 -7 0 -16 -16 -55 -17 -64 -3 -4 6 -11 8 -16 4 -6 -3 -18
-3 -27 1 -9 4 -30 9 -46 11 -16 2 -34 8 -40 13 -6 6 -25 12 -41 15 -17 2 -31
5 -32 6 -3 3 -18 7 -31 9 -16 2 -82 71 -82 85 0 8 -4 17 -9 20 -10 7 -15 162
-5 178 4 7 9 23 10 36 5 41 83 185 129 237 25 28 45 53 45 57 0 13 83 67 93
61 6 -3 7 -1 4 4 -4 6 1 17 11 25 27 24 129 78 146 78 9 0 16 4 16 9 0 10 86
36 114 33 11 0 26 4 33 10 7 5 18 8 25 6 7 -3 22 -1 33 3 20 8 166 6 235 -4z
m2845 -220 c15 -20 26 -22 19 -3 -4 11 3 12 40 3 25 -6 46 -14 46 -19 0 -5 4
-7 8 -4 5 3 18 -3 28 -13 11 -9 25 -16 33 -13 7 2 16 1 20 -4 3 -5 22 -16 41
-25 57 -27 121 -79 114 -91 -4 -6 -3 -8 3 -5 24 15 196 -187 176 -206 -3 -4
-2 -7 4 -7 13 0 15 -87 2 -111 -14 -27 -101 -90 -116 -85 -7 3 -13 2 -13 -3 0
-9 -42 -20 -110 -27 -25 -3 -58 -9 -75 -13 -35 -10 -19 -9 -250 -11 -176 0
-244 2 -315 13 -19 3 -57 8 -85 11 -60 7 -106 16 -120 25 -5 3 -13 6 -17 7 -5
1 -10 3 -13 4 -6 3 -21 7 -33 9 -5 0 -21 11 -36 24 -40 35 -39 107 4 190 69
136 175 242 313 314 34 17 64 31 67 31 3 -1 18 4 33 10 16 7 32 10 37 7 4 -3
19 -1 32 5 37 16 148 7 163 -13z"/>
</g>
</svg>
