<?xml version="1.0" standalone="no"?>
<!DOCTYPE svg PUBLIC "-//W3C//DTD SVG 20010904//EN"
 "http://www.w3.org/TR/2001/REC-SVG-20010904/DTD/svg10.dtd">
<svg version="1.0" xmlns="http://www.w3.org/2000/svg"
 width="1024.000000pt" height="1024.000000pt" viewBox="0 0 1024.000000 1024.000000"
 preserveAspectRatio="xMidYMid meet">
<metadata>
Created by potrace 1.16, written by Peter Selinger 2001-2019
</metadata>
<g transform="translate(0.000000,1024.000000) scale(0.100000,-0.100000)"
fill="#000000" stroke="none">
<path d="M4896 8671 c-4 -6 -13 -11 -19 -10 -43 7 -138 -74 -265 -225 -60 -72
-248 -297 -417 -501 -169 -203 -316 -379 -328 -391 -12 -11 -26 -28 -32 -36
-9 -15 -234 -287 -303 -368 -17 -19 -39 -46 -51 -60 -134 -164 -247 -299 -262
-315 -10 -11 -31 -35 -45 -53 -21 -26 -29 -30 -36 -20 -7 9 -8 8 -4 -6 8 -22
-40 -79 -57 -69 -6 4 -7 1 -2 -6 4 -8 -1 -22 -13 -35 -40 -41 -62 -66 -62 -71
0 -3 -17 -31 -37 -62 -20 -32 -45 -80 -55 -108 -10 -27 -21 -57 -25 -65 -3 -8
-7 -22 -8 -30 -1 -8 -10 -67 -19 -130 -9 -63 -21 -149 -27 -190 -6 -41 -15
-109 -20 -150 -6 -41 -12 -88 -14 -105 -2 -16 -6 -57 -10 -90 -3 -33 -11 -87
-16 -120 -11 -63 -19 -114 -23 -155 -2 -14 -5 -34 -6 -45 -2 -15 -4 -12 -10
10 l-8 30 -1 -27 c0 -15 4 -30 9 -33 10 -6 9 -30 -6 -120 -13 -76 -18 -467 -7
-610 11 -150 2 -424 -18 -545 -6 -36 -13 -90 -15 -120 -3 -30 -9 -68 -14 -84
-6 -15 -8 -31 -5 -35 2 -4 0 -36 -6 -72 -9 -64 -22 -251 -22 -344 -1 -86 11
-274 18 -285 3 -5 4 -14 1 -19 -4 -5 -1 -22 4 -37 12 -30 4 -47 -10 -24 -6 10
-8 6 -5 -15 6 -50 7 -51 14 -25 7 24 8 23 19 -14 12 -43 10 -54 -11 -40 -7 5
-3 0 9 -11 21 -20 72 -151 53 -140 -5 4 -9 -4 -8 -17 0 -13 3 -17 6 -10 2 6
10 12 15 12 6 0 8 -3 5 -7 -4 -3 3 -22 15 -42 13 -20 22 -38 20 -41 -4 -9 9
-40 18 -40 4 0 13 -12 19 -27 14 -37 43 -85 59 -98 8 -6 11 -22 8 -39 -4 -22
-2 -26 6 -18 15 15 28 15 28 2 0 -5 20 -31 45 -57 43 -46 62 -79 30 -53 -13
11 -14 10 -9 -4 4 -10 13 -14 24 -11 9 3 24 -3 35 -15 14 -16 15 -22 5 -34 -6
-9 -10 -21 -7 -28 3 -8 6 -5 6 6 1 17 2 17 29 2 l27 -17 -24 20 c-13 12 -18
21 -12 21 14 0 65 -50 69 -67 1 -7 -2 -13 -8 -13 -5 0 -10 -5 -10 -11 0 -8 5
-8 15 1 8 7 12 16 9 21 -3 5 -3 9 0 9 9 0 110 -74 114 -82 2 -5 8 -8 12 -8 20
0 100 -56 96 -67 -3 -6 1 -14 9 -17 9 -3 12 0 9 9 -3 7 44 -12 104 -43 80 -41
108 -60 105 -72 -4 -12 -3 -12 5 -1 8 11 14 10 36 -4 14 -10 26 -14 26 -11 0
4 9 2 20 -4 12 -6 18 -16 14 -23 -5 -9 -4 -9 6 0 9 8 21 7 49 -4 50 -20 65
-37 26 -30 -28 6 -28 6 -7 -5 16 -8 26 -8 33 -1 8 8 26 5 63 -10 28 -11 55
-24 61 -29 5 -4 17 -8 26 -8 9 0 34 -8 55 -17 22 -9 48 -18 59 -20 11 -2 27
-6 35 -10 8 -3 20 -7 25 -7 14 -2 97 -26 115 -33 8 -3 20 -7 25 -7 47 -6 96
-19 101 -27 3 -5 9 -7 14 -4 5 3 40 -2 77 -12 57 -14 64 -18 43 -24 -21 -6
-22 -7 -5 -8 12 -1 25 3 30 8 6 4 39 4 75 0 36 -5 101 -11 145 -14 44 -3 82
-10 83 -15 2 -6 8 -10 13 -10 6 0 7 5 4 10 -3 5 3 10 14 10 12 0 21 -5 21 -11
0 -6 6 -4 14 4 9 9 52 17 123 22 114 8 133 10 228 21 33 4 89 8 125 10 64 3
272 17 420 29 94 7 207 26 330 56 52 13 98 23 102 23 3 1 10 4 14 8 4 4 13 3
21 -4 11 -9 13 -8 11 2 -2 8 3 15 10 16 6 1 14 3 17 4 3 1 8 3 13 4 4 1 12 4
18 8 6 4 40 18 75 32 104 39 170 69 242 109 37 20 72 37 77 37 4 0 10 4 12 8
2 4 48 39 103 76 93 65 190 153 278 254 20 24 37 45 37 48 0 2 20 35 44 73 25
38 42 72 39 75 -4 3 -1 6 5 6 7 0 11 3 10 8 -2 4 7 32 19 62 37 90 46 114 49
125 30 118 46 189 51 230 3 28 9 58 14 68 6 9 8 21 5 25 -4 7 7 102 28 242 2
14 7 50 10 80 4 30 11 80 17 110 6 30 12 66 14 80 2 14 6 43 9 65 3 22 17 103
31 180 14 77 26 147 26 155 1 8 5 47 11 85 12 88 11 310 -3 435 -6 52 -12 109
-14 125 -2 17 -4 30 -5 30 -1 0 -4 9 -6 20 -2 11 -14 71 -28 133 -15 63 -29
130 -32 150 -9 61 -10 66 -18 88 -3 12 -9 35 -11 50 -3 16 -11 60 -20 97 -8
38 -17 83 -20 100 -2 18 -9 50 -14 72 -14 58 -50 271 -56 333 -3 30 -7 57 -9
61 -3 4 -8 45 -11 92 -4 46 -9 107 -12 134 -8 82 -8 109 0 135 6 17 5 20 -1
11 -9 -12 -19 37 -21 99 -2 34 -12 108 -21 155 -6 28 -12 59 -15 70 -2 11 -4
21 -6 23 -2 2 -4 8 -15 42 -17 56 -109 227 -170 316 -35 52 -64 97 -64 100 0
3 -13 19 -30 37 -16 18 -30 37 -30 42 0 6 -9 16 -20 23 -11 7 -20 19 -20 26 0
8 -4 16 -9 18 -20 8 -180 191 -174 201 3 5 2 7 -4 4 -6 -4 -22 6 -35 21 -14
15 -97 95 -184 177 -87 83 -188 181 -226 218 -37 37 -68 65 -68 62 0 -3 -31
25 -70 61 -60 57 -68 69 -57 83 10 14 10 14 -4 3 -15 -11 -29 -1 -110 75 -52
48 -128 121 -170 163 -71 70 -112 108 -369 345 -94 87 -214 182 -258 204 -12
7 -20 17 -16 23 4 6 3 8 -3 5 -6 -4 -28 1 -49 10 -68 29 -148 41 -158 24z m11
-225 c-4 -10 -1 -13 8 -9 8 3 12 9 9 14 -3 5 2 9 10 9 25 0 53 -58 62 -125 0
-5 4 -17 7 -25 6 -17 57 -199 61 -221 7 -35 18 -76 26 -94 14 -33 53 -159 55
-175 0 -9 4 -20 7 -25 5 -9 67 -210 72 -238 2 -7 8 -25 15 -41 9 -22 9 -32 0
-42 -7 -8 -9 -17 -5 -21 3 -3 6 0 6 7 0 14 14 5 16 -11 1 -5 3 -11 4 -14 1 -3
3 -8 4 -12 1 -5 4 -12 8 -18 7 -12 50 -153 53 -175 1 -8 6 -24 11 -35 4 -11
20 -60 35 -110 24 -81 25 -91 10 -97 -16 -6 -13 -9 11 -12 12 -1 41 -86 58
-169 7 -37 6 -56 -5 -82 -15 -37 -153 -238 -167 -243 -4 -2 -8 -8 -8 -14 0
-14 -183 -268 -193 -268 -4 0 -5 6 -1 13 4 6 3 8 -2 4 -4 -4 -9 -18 -9 -30 0
-13 -6 -21 -13 -19 -8 1 -11 -2 -7 -8 11 -18 -126 -144 -210 -192 -80 -47
-414 -207 -444 -213 -9 -2 -36 -14 -61 -27 -51 -27 -56 -27 -89 -9 -23 13
-164 133 -228 195 -18 17 -49 45 -70 63 -43 37 -202 173 -219 188 -160 142
-316 277 -367 318 -22 18 -35 37 -32 44 2 8 0 11 -5 8 -6 -3 -10 1 -10 9 0 22
198 261 215 260 7 -1 11 4 9 11 -5 12 171 235 186 235 4 0 11 10 17 23 6 12
26 40 46 62 20 22 86 101 148 175 61 74 117 142 125 150 8 8 64 76 125 150 62
74 118 142 125 150 8 8 73 87 145 175 72 88 137 165 145 171 8 6 14 16 14 22
0 5 14 22 30 35 17 14 30 29 30 32 0 15 223 265 236 265 3 0 4 -7 1 -14z m337
-198 c-4 -6 -2 -8 4 -4 15 9 74 -44 68 -60 -3 -8 -1 -14 5 -14 19 0 99 -72 92
-83 -3 -5 -1 -7 4 -4 14 9 86 -60 78 -73 -3 -5 0 -7 8 -5 19 8 68 -50 54 -64
-7 -7 -4 -9 11 -6 12 2 22 -1 22 -6 0 -6 5 -7 12 -3 7 5 9 2 5 -9 -4 -10 -2
-14 6 -11 7 2 43 -26 79 -63 37 -37 76 -75 86 -83 20 -15 273 -254 408 -384
47 -45 70 -75 67 -85 -4 -14 -3 -14 5 -1 9 12 24 1 84 -56 40 -39 112 -109
160 -155 49 -46 88 -86 88 -89 0 -3 23 -30 51 -60 69 -74 209 -261 203 -272
-3 -4 -1 -8 4 -8 4 0 19 -18 31 -41 17 -30 20 -44 12 -52 -17 -17 -13 -37 5
-30 11 4 12 8 4 13 -8 5 -8 10 -2 14 5 3 15 -1 21 -8 13 -15 1 -28 -28 -33 -8
-1 -17 -6 -20 -10 -3 -5 -27 -21 -53 -36 -33 -19 -48 -23 -51 -14 -4 8 -6 7
-6 -3 -1 -15 -207 -128 -223 -122 -4 1 -8 -2 -8 -7 0 -11 -78 -31 -118 -31
-27 0 -217 89 -231 107 -8 11 -41 31 -71 44 -28 12 -261 166 -302 201 -16 13
-48 39 -73 58 -25 19 -45 40 -45 47 0 6 -5 13 -10 15 -6 2 -12 12 -14 23 -2
11 -9 32 -15 48 -6 15 -8 27 -5 27 4 0 2 6 -3 13 -6 6 -36 100 -67 207 -31
107 -62 213 -69 235 -6 22 -13 43 -13 48 -1 4 -3 9 -4 12 -1 3 -3 8 -5 13 -1
4 -4 14 -7 22 -22 56 -26 78 -15 90 9 9 9 11 -2 8 -10 -2 -27 40 -62 152 -26
85 -47 157 -47 160 1 3 -4 18 -11 34 -6 16 -9 31 -6 34 2 3 0 10 -5 17 -5 6
-11 20 -13 31 -2 10 -10 33 -16 49 -7 17 -14 41 -16 55 -2 14 -4 26 -6 28 -1
1 -2 6 -3 11 0 5 -4 13 -8 17 -5 4 -8 18 -8 31 0 14 -5 34 -12 46 -6 12 -13
35 -15 51 -1 16 -10 40 -18 52 -23 35 -18 40 10 10 14 -15 22 -32 19 -38z
m501 -1794 c137 -100 145 -107 122 -100 -11 4 -16 2 -12 -5 4 -6 14 -8 22 -5
15 6 103 -42 103 -55 0 -4 11 -10 25 -13 14 -4 25 -11 25 -16 0 -5 -6 -7 -14
-4 -8 3 -17 1 -20 -5 -4 -6 5 -8 24 -6 19 3 46 -5 75 -22 40 -22 44 -27 33
-42 -12 -14 -11 -15 4 -2 15 11 22 11 45 -4 33 -21 93 -84 93 -97 0 -5 -5 -6
-12 -2 -7 4 -8 3 -4 -4 4 -6 13 -9 20 -6 10 4 18 -13 29 -63 17 -75 22 -349
22 -1198 0 -614 -6 -961 -16 -1006 -5 -21 -35 -67 -74 -112 -36 -42 -126 -152
-202 -244 -75 -92 -142 -167 -149 -167 -7 1 -10 -4 -7 -12 2 -7 -37 -66 -89
-131 -99 -124 -278 -363 -392 -523 -135 -188 -181 -215 -301 -175 -71 23 -197
97 -191 111 3 7 -2 10 -15 7 -10 -3 -19 0 -19 6 0 6 -7 11 -15 11 -7 0 -18 6
-22 13 -4 6 -17 17 -28 24 -11 6 -19 16 -17 23 1 6 -3 8 -9 5 -13 -9 -268 248
-314 316 -16 24 -35 49 -41 54 -6 6 -24 28 -40 50 -49 69 -190 239 -224 270
-18 17 -41 43 -51 59 -17 28 -17 30 -1 42 16 12 16 12 -2 11 -17 -2 -19 5 -19
63 1 60 5 105 18 215 3 22 6 47 6 55 1 8 10 76 20 150 11 74 22 162 25 195 2
33 8 69 11 80 3 11 7 31 8 45 9 105 18 177 26 191 4 9 6 19 3 21 -3 3 0 34 6
69 13 77 20 127 35 264 4 33 20 152 36 265 16 113 31 225 34 250 3 25 8 61 11
80 4 19 8 46 10 60 2 14 5 34 6 45 2 11 10 27 18 36 20 22 76 50 84 42 3 -4 6
-1 6 5 0 7 5 12 11 12 6 0 52 20 102 44 231 110 372 177 372 174 0 -1 10 7 23
17 12 11 25 19 28 17 2 -1 17 9 32 23 15 14 30 25 34 25 4 0 35 29 69 65 34
35 65 62 69 60 4 -2 7 2 7 9 0 15 44 76 55 76 4 0 8 7 8 15 0 7 8 18 18 24 9
5 16 12 14 16 -5 10 229 344 259 369 43 37 78 26 194 -60z m-2486 -144 c23
-22 45 -40 50 -40 5 0 18 -11 29 -25 11 -14 24 -25 29 -25 5 0 20 -11 33 -25
29 -31 15 -33 -17 -3 -17 16 -22 18 -18 6 7 -18 29 -30 58 -33 21 -3 58 -35
52 -45 -3 -5 6 -12 19 -17 14 -4 58 -38 98 -75 40 -36 118 -105 173 -153 55
-49 144 -126 198 -173 53 -47 97 -87 97 -88 0 -2 -7 -1 -15 2 -8 4 -15 10 -15
15 0 5 -7 9 -15 9 -8 0 -15 -5 -15 -12 0 -6 3 -8 7 -5 3 4 12 2 19 -3 6 -6 22
-13 34 -15 38 -7 61 -34 53 -64 -6 -25 -6 -25 11 -8 23 23 29 22 21 -4 -4 -12
-9 -47 -11 -78 -3 -31 -7 -72 -9 -91 -2 -19 -5 -42 -6 -50 0 -8 -5 -31 -9 -50
-5 -19 -12 -73 -15 -120 -4 -47 -11 -93 -16 -103 -6 -9 -8 -21 -5 -25 3 -5 0
-37 -5 -73 -6 -35 -10 -71 -11 -79 0 -8 -7 -58 -15 -110 -16 -98 -21 -132 -22
-163 -1 -11 -6 -15 -12 -11 -8 4 -8 1 -1 -13 8 -14 3 -75 -19 -229 -17 -115
-32 -229 -34 -254 -3 -25 -12 -92 -20 -150 -8 -58 -18 -132 -21 -165 -3 -33
-10 -75 -15 -92 -6 -18 -8 -36 -6 -40 3 -5 1 -33 -5 -63 -5 -30 -11 -68 -14
-84 -8 -58 -44 -92 -169 -162 -38 -21 -73 -37 -77 -36 -5 1 -8 -2 -8 -6 0 -8
-51 -36 -59 -32 -2 1 -7 -2 -10 -7 -15 -22 -395 -233 -410 -228 -8 3 -12 3 -9
-1 4 -3 2 -12 -5 -18 -13 -12 -222 -136 -230 -136 -4 0 -16 32 -21 55 -1 6 -5
17 -8 25 -29 69 -46 402 -29 560 18 175 22 205 32 270 6 36 12 90 15 120 2 30
6 61 9 69 13 35 19 197 15 411 -9 467 -4 659 24 855 15 99 27 187 27 195 1 8
7 56 15 105 7 50 25 178 39 285 15 107 28 206 30 220 2 14 7 50 10 80 8 69 40
166 66 202 10 15 19 31 19 36 0 4 5 13 11 19 15 15 57 -7 108 -57z m3756 30
c-4 -6 -2 -16 3 -23 14 -17 31 -108 38 -197 3 -41 8 -97 10 -125 3 -27 6 -68
8 -90 2 -22 6 -56 9 -75 3 -19 11 -82 17 -140 7 -58 14 -121 17 -140 2 -19 6
-48 7 -65 2 -16 7 -37 11 -46 3 -10 5 -23 4 -30 -1 -8 0 -21 3 -29 4 -8 11
-42 17 -74 8 -46 8 -63 -2 -74 -7 -10 -8 -13 -1 -9 17 10 26 -23 12 -41 -10
-12 -10 -14 0 -8 6 4 13 4 13 -1 1 -4 3 -17 5 -28 2 -11 6 -29 8 -40 2 -11 6
-27 9 -35 5 -13 9 -34 23 -115 2 -11 10 -47 18 -80 15 -59 13 -82 -4 -55 -8
13 -10 12 -10 -2 0 -10 7 -18 15 -18 8 0 17 -10 20 -22 33 -145 52 -254 45
-256 -6 -2 -10 -13 -10 -25 0 -16 3 -18 9 -9 13 21 18 -2 32 -125 13 -124 6
-344 -17 -468 -7 -44 -16 -91 -18 -105 -2 -13 -8 -26 -13 -27 -5 -2 -7 -21 -5
-43 2 -22 1 -48 -4 -58 -4 -9 -6 -21 -5 -25 1 -5 -3 -34 -9 -65 -14 -78 -71
-464 -72 -482 0 -27 -29 -215 -35 -230 -3 -8 -7 -22 -8 -30 -4 -31 -18 -86
-28 -110 -5 -14 -11 -32 -13 -40 -2 -9 -10 -31 -18 -50 -12 -27 -15 -30 -16
-13 0 12 -4 23 -9 25 -9 3 -92 163 -90 174 0 4 -4 10 -9 13 -5 3 -37 60 -70
126 -33 66 -108 210 -167 320 -58 110 -107 204 -108 210 -1 5 -8 16 -15 23 -7
8 -10 17 -7 22 3 5 2 10 -3 12 -4 1 -28 39 -52 83 -41 75 -44 85 -43 155 0 41
1 537 2 1101 0 564 4 1029 8 1033 4 4 8 23 10 41 3 46 38 123 71 158 29 31
108 79 247 151 50 25 96 51 103 57 7 6 19 8 27 5 8 -3 14 -2 14 2 -3 16 2 22
17 22 8 0 12 -5 9 -10z m-546 -2986 c47 -93 88 -171 91 -174 7 -6 30 -59 30
-67 0 -3 -8 1 -17 8 -16 13 -17 12 -4 -3 7 -10 17 -16 21 -13 7 5 30 -36 182
-330 48 -93 111 -215 140 -270 29 -55 53 -106 53 -112 0 -20 -131 -149 -217
-213 -137 -104 -372 -224 -498 -255 -3 -1 -16 -6 -30 -12 -14 -6 -41 -14 -60
-19 -43 -10 -42 -9 -60 -17 -24 -10 -98 -28 -107 -26 -4 1 -15 0 -23 -4 -52
-19 -292 -44 -537 -55 l-152 -7 4 43 c2 23 9 59 14 80 5 20 12 60 15 87 8 75
43 181 87 264 65 120 442 637 464 635 8 -1 11 4 8 13 -3 8 2 22 11 31 9 9 44
54 77 100 34 45 65 82 70 82 5 0 9 5 9 11 0 10 136 188 199 259 17 19 49 58
71 87 24 30 47 50 57 49 10 -2 48 -65 102 -172z m-2486 -143 c17 -2 115 -103
120 -122 4 -15 2 -18 -7 -10 -9 8 -13 7 -13 -4 0 -8 3 -13 5 -10 3 3 15 -3 26
-12 20 -17 20 -17 7 0 -7 9 -9 17 -5 17 9 0 164 -193 164 -204 0 -5 24 -33 91
-102 36 -38 44 -54 40 -77 -1 -5 3 -6 8 -2 11 6 161 -139 161 -155 0 -6 7 -10
16 -10 9 0 12 -5 8 -12 -5 -7 -3 -8 5 -4 7 5 24 -3 41 -20 25 -26 26 -30 11
-42 -14 -11 -13 -12 7 -2 19 9 29 6 67 -21 25 -18 45 -36 45 -41 0 -5 4 -7 8
-4 5 3 21 -6 38 -19 16 -13 24 -24 17 -25 -6 0 -15 5 -18 10 -3 6 -11 10 -18
10 -6 0 -1 -7 11 -16 12 -8 27 -12 32 -9 6 4 22 -1 36 -10 20 -13 23 -19 14
-30 -8 -10 -8 -15 1 -21 7 -4 9 -3 6 3 -4 6 0 16 8 23 12 10 14 7 12 -17 -2
-24 2 -28 25 -28 15 -1 24 3 21 7 -2 5 -13 6 -23 3 -14 -4 -18 -1 -15 12 3 20
22 19 46 -3 9 -8 26 -17 39 -19 28 -5 99 -83 101 -110 2 -22 2 -26 -5 -99 -11
-109 -19 -157 -27 -162 -5 -3 -7 -9 -4 -14 11 -18 -16 -99 -34 -99 -9 0 -50
-5 -91 -11 -41 -6 -90 -8 -109 -4 -18 3 -83 7 -145 10 -92 3 -215 24 -361 59
-11 2 -33 8 -50 11 -16 3 -34 9 -40 12 -5 3 -18 7 -30 8 -11 1 -33 8 -50 15
-16 7 -34 11 -38 10 -4 0 -36 9 -70 22 -34 13 -107 41 -162 62 -55 21 -103 42
-106 48 -3 5 -8 8 -10 6 -8 -5 -79 25 -79 34 0 4 5 5 10 2 6 -3 10 -1 10 4 0
14 -17 14 -25 1 -7 -11 -250 109 -284 141 -11 10 -25 19 -30 19 -5 0 -13 5
-17 12 -4 6 -3 8 4 4 6 -3 13 -2 17 3 3 6 -5 8 -18 5 -14 -2 -32 4 -45 16 -12
11 -25 20 -30 20 -14 0 -43 36 -35 44 4 4 1 5 -7 1 -21 -8 -185 158 -177 179
4 9 1 13 -6 10 -7 -2 -20 8 -29 23 -10 16 -31 48 -47 73 -16 25 -30 52 -30 61
-1 13 125 96 234 155 11 6 76 44 145 84 201 118 277 160 289 160 6 0 11 4 11
8 0 4 26 21 58 37 31 17 59 33 62 36 13 15 98 58 103 52 4 -3 7 -1 7 5 0 14
54 21 103 13z"/>
</g>
</svg>
