<?xml version="1.0" standalone="no"?>
<!DOCTYPE svg PUBLIC "-//W3C//DTD SVG 20010904//EN" "http://www.w3.org/TR/2001/REC-SVG-20010904/DTD/svg10.dtd">
<svg xmlns="http://www.w3.org/2000/svg" version="1.0" width="1024.000000pt" height="1024.000000pt" viewBox="0 0 1024.000000 1024.000000" preserveAspectRatio="xMidYMid meet">
<metadata>
Created by potrace 1.16, written by Peter Selinger 2001-2019
<meta name="Producer" content="Online-Convert"/></metadata>
<g transform="translate(0.000000,1024.000000) scale(0.100000,-0.100000)" fill="#000000" stroke="none">
<path d="M3850 8098 c-30 -11 -63 -21 -72 -21 -9 -1 -16 -5 -15 -8 3 -13 -65 -59 -77 -52 -6 3 -8 3 -4 -2 4 -4 -12 -29 -36 -56 -23 -26 -56 -72 -72 -103 -16 -30 -31 -50 -35 -45 -3 6 -6 -2 -6 -18 0 -15 -4 -71 -8 -124 -9 -105 2 -154 54 -254 14 -27 26 -57 26 -65 0 -8 3 -13 7 -10 11 8 78 -62 71 -73 -3 -6 -1 -7 6 -3 15 10 43 -13 34 -27 -3 -6 -1 -7 5 -3 6 4 29 -2 51 -14 22 -11 48 -20 58 -21 10 -1 -27 -7 -82 -15 -127 -17 -225 -53 -315 -115 -40 -27 -77 -46 -82 -43 -7 4 -8 2 -4 -4 3 -6 -14 -34 -38 -61 -25 -28 -50 -60 -56 -71 -6 -11 -16 -17 -22 -14 -7 4 -8 3 -4 -4 4 -6 -1 -26 -10 -44 -9 -17 -28 -64 -42 -102 -25 -70 -25 -78 -30 -426 -2 -195 -8 -346 -13 -335 -7 18 -8 18 -8 2 -1 -17 -27 -18 -487 -17 l-486 2 -29 -28 c-31 -29 -36 -58 -18 -97 17 -38 50 -47 172 -48 72 0 105 -3 92 -9 -17 -7 -18 -9 -2 -9 16 -1 17 -41 17 -723 l0 -723 -134 0 c-74 0 -132 -3 -129 -7 2 -5 0 -8 -6 -8 -6 0 -17 -13 -26 -30 -13 -26 -15 -93 -15 -482 l1 -451 37 -28 37 -28 192 -1 193 0 -1 -576 -1 -576 24 -25 c23 -23 38 -26 105 -21 12 1 21 5 20 8 0 3 4 22 10 43 7 21 11 60 9 87 -1 28 0 50 4 50 8 0 3 367 -6 381 -3 6 -3 14 2 18 11 7 11 41 1 59 -5 6 -5 17 -1 24 10 15 12 126 3 140 -4 6 -2 22 3 34 8 17 8 27 -1 38 -7 8 -10 20 -6 27 10 16 13 209 3 209 -12 0 -10 34 4 48 9 9 9 12 0 12 -7 0 -12 5 -12 10 0 6 73 10 200 10 l200 0 0 -565 c0 -614 0 -614 55 -635 31 -12 92 5 105 30 6 11 10 231 10 594 l1 576 675 -2 676 -3 -1 -560 c-1 -518 0 -563 16 -595 16 -32 23 -35 65 -38 37 -2 51 1 67 17 23 23 22 -18 21 849 l0 332 195 0 195 0 0 -567 c0 -540 1 -570 19 -599 22 -36 68 -50 105 -32 25 11 54 64 47 83 -2 6 -5 258 -5 560 l-1 550 1250 6 c687 4 1258 8 1267 10 9 2 15 5 12 8 -2 2 3 15 12 29 14 21 16 78 15 468 -1 332 -4 450 -13 467 -7 12 -12 25 -13 29 0 3 -3 10 -7 14 -5 4 -207 8 -450 8 l-443 1 -3 733 -2 732 92 2 c51 0 98 1 105 1 7 0 11 4 10 11 -1 6 3 10 8 9 11 -2 18 31 17 77 0 14 -12 34 -27 47 l-26 23 -1146 0 c-976 0 -1144 2 -1134 14 9 10 9 21 -1 42 -10 22 -10 28 0 32 7 2 9 9 5 14 -3 6 -8 111 -9 232 -4 282 -10 356 -34 435 -10 35 -17 68 -14 73 3 4 0 8 -5 8 -6 0 -22 21 -35 48 -78 153 -299 308 -469 328 -31 4 -54 11 -51 15 3 5 -2 6 -10 3 -33 -13 -14 13 25 35 60 34 153 129 181 186 42 83 61 178 53 264 -4 41 -13 91 -21 113 -7 21 -10 38 -6 38 4 0 3 4 -3 8 -16 12 -90 125 -87 134 1 4 -2 7 -7 6 -5 -2 -29 13 -53 33 -51 43 -91 64 -166 90 -79 27 -237 26 -312 -3z m302 -178 c61 -30 134 -100 116 -112 -11 -7 -5 -12 13 -10 3 1 16 -17 29 -39 17 -31 21 -50 16 -77 -3 -25 -2 -32 4 -22 6 9 7 -7 3 -45 -8 -83 -56 -175 -92 -176 -22 0 -23 -2 -7 -8 16 -6 11 -12 -31 -39 -99 -63 -156 -73 -274 -46 -61 14 -77 23 -130 71 -36 34 -58 62 -55 70 3 8 2 12 -3 9 -5 -3 -17 11 -27 32 -28 57 -26 184 4 240 12 23 25 42 28 42 3 0 2 -4 -1 -10 -3 -5 -1 -10 5 -10 7 0 9 8 5 19 -8 26 77 99 142 124 69 25 192 19 255 -13z m137 -909 c37 -9 49 -16 40 -22 -9 -5 -10 -9 -2 -9 6 0 20 -3 30 -6 15 -5 15 -4 3 5 -17 12 -10 14 14 5 9 -3 13 -10 10 -15 -3 -5 2 -6 10 -3 15 6 116 -55 116 -70 0 -5 -7 -3 -15 4 -12 10 -15 10 -15 -3 0 -11 7 -15 22 -12 45 9 127 -99 169 -220 24 -69 24 -73 24 -480 0 -374 -2 -414 -18 -457 -10 -27 -23 -48 -28 -48 -6 0 -8 -4 -5 -8 9 -16 -56 -82 -104 -107 l-47 -24 -1 96 c0 83 -3 99 -21 117 -30 30 -89 28 -121 -4 l-25 -25 0 -705 0 -706 -117 -1 -118 -2 0 542 c0 298 -3 552 -6 564 -5 19 -50 47 -79 48 -20 2 -65 -17 -65 -27 0 -5 -4 -6 -10 -3 -6 4 -10 -195 -10 -551 0 -307 -2 -559 -4 -561 -2 -2 -53 -6 -115 -9 l-111 -6 0 1111 c0 734 -3 1111 -10 1111 -5 0 -10 6 -10 14 0 13 -45 32 -65 27 -5 -2 -16 -4 -23 -5 -7 -1 -18 -8 -24 -14 -7 -7 -17 -12 -23 -12 -5 0 -3 5 5 10 13 9 13 10 0 10 -13 0 -16 -61 -18 -502 -2 -276 -5 -505 -8 -507 -3 -3 -20 3 -39 13 -83 45 -138 133 -156 251 -6 39 -9 209 -7 422 4 341 5 361 27 428 26 78 58 138 71 130 5 -3 12 0 16 6 4 8 3 9 -4 5 -23 -14 -11 10 23 47 19 21 40 35 45 32 6 -4 9 -1 8 6 -4 17 80 73 150 99 31 12 91 26 132 30 114 11 447 5 509 -9z m-1135 -1247 c3 -9 6 -24 6 -34 0 -10 9 -40 21 -67 12 -26 21 -58 21 -70 0 -12 4 -21 8 -20 4 1 31 -27 61 -63 30 -36 61 -66 69 -68 8 -2 21 -9 28 -14 11 -9 11 -13 0 -21 -9 -6 -8 -7 4 -3 23 7 86 -19 67 -27 -8 -4 -2 -4 14 -1 15 4 27 2 27 -4 0 -5 10 -7 23 -5 l22 4 -2 -453 c-2 -249 -3 -487 -3 -530 l0 -76 -479 -2 -479 -1 -3 23 c-2 13 -4 338 -4 722 0 581 2 700 14 704 11 4 11 6 0 13 -8 5 112 9 282 9 262 0 298 -2 303 -16z m2346 -718 l0 -734 -505 -2 -505 -1 0 530 0 529 33 7 c60 13 165 76 214 128 26 29 52 51 56 49 5 -1 6 2 2 7 -3 6 5 32 19 58 13 26 30 74 37 106 l14 57 317 0 318 0 0 -734z m1265 724 l-50 -7 48 -1 47 -2 -2 -162 c-1 -90 -6 -169 -11 -175 -6 -8 -6 -13 0 -13 5 0 9 -223 10 -549 l1 -548 -574 -2 -574 -2 1 153 c0 100 3 148 9 138 8 -12 10 -11 10 7 0 12 -4 25 -10 28 -15 10 -13 88 3 79 10 -6 10 -4 0 7 -7 7 -13 27 -12 44 1 29 1 29 9 5 7 -23 8 -23 9 -3 1 12 -3 24 -8 28 -6 3 -10 73 -9 163 1 89 4 144 8 127 l8 -30 1 33 c0 17 -3 32 -9 32 -6 0 -10 45 -9 118 1 74 4 108 9 92 l8 -25 1 28 c1 15 -3 27 -9 27 -5 0 -9 19 -9 43 l2 42 7 -35 7 -35 2 38 c0 20 -3 37 -9 37 -5 0 -10 8 -10 18 0 14 2 15 10 2 7 -11 10 -7 10 18 0 18 -4 31 -8 28 -4 -2 -9 10 -10 27 -2 24 0 28 8 17 8 -13 10 -12 10 3 0 9 -4 17 -9 17 -4 0 -9 41 -10 90 l-2 90 88 2 88 2 -90 6 c-49 3 171 6 490 7 319 0 558 -3 530 -7z m975 -1970 l0 -350 -2750 0 -2749 0 0 350 -1 350 2750 0 2750 0 0 -350z"/>
<path d="M7950 7990 c24 -8 23 -8 -8 -9 -55 -2 -217 -30 -314 -56 -129 -33 -247 -78 -357 -135 -51 -27 -99 -47 -105 -43 -6 3 -8 3 -4 -2 11 -11 -90 -78 -104 -69 -6 4 -8 3 -5 -3 4 -6 -28 -37 -70 -68 -81 -61 -208 -182 -463 -440 -279 -282 -485 -427 -716 -503 -138 -46 -226 -61 -400 -68 -88 -3 -163 -10 -168 -15 -14 -13 -28 -11 -20 3 4 7 3 8 -4 4 -6 -4 -9 -13 -5 -21 3 -8 0 -15 -6 -15 -6 0 -11 -17 -11 -38 0 -29 7 -45 26 -63 25 -23 30 -24 179 -23 151 1 191 6 349 46 126 32 187 53 274 97 92 46 208 115 229 137 14 14 29 18 48 14 6 -1 7 1 3 5 -10 10 132 126 144 118 6 -3 8 -2 5 4 -8 13 113 124 126 116 6 -3 7 -2 4 4 -9 14 374 398 498 499 186 152 480 294 617 298 25 0 41 4 35 8 -7 4 -7 8 -2 8 6 0 53 7 105 15 52 8 158 18 235 22 127 6 141 8 162 29 27 27 30 70 6 104 -29 43 -39 45 -147 40 -57 -3 -102 -2 -99 3 2 4 -11 7 -29 6 -31 -1 -32 -1 -8 -9z"/>
</g>
</svg>
