<?xml version="1.0" standalone="no"?>
<!DOCTYPE svg PUBLIC "-//W3C//DTD SVG 20010904//EN" "http://www.w3.org/TR/2001/REC-SVG-20010904/DTD/svg10.dtd">
<svg xmlns="http://www.w3.org/2000/svg" version="1.0" width="1024.000000pt" height="1024.000000pt" viewBox="0 0 1024.000000 1024.000000" preserveAspectRatio="xMidYMid meet">
<metadata>
Created by potrace 1.16, written by Peter Selinger 2001-2019
<meta name="Producer" content="Online-Convert"/></metadata>
<g transform="translate(0.000000,1024.000000) scale(0.100000,-0.100000)" fill="#000000" stroke="none">
<path d="M7396 7664 c1 -6 -10 -17 -24 -24 -15 -6 -123 -68 -241 -138 -118 -69 -220 -125 -227 -125 -7 0 -11 -3 -9 -7 2 -4 -6 -12 -18 -17 -12 -6 -137 -79 -277 -163 -140 -84 -261 -153 -267 -153 -7 0 -13 -4 -13 -8 0 -10 -120 -82 -137 -82 -7 0 -11 -3 -8 -6 8 -8 -158 -100 -170 -94 -5 4 -7 2 -2 -2 9 -11 -183 -126 -197 -118 -6 3 -8 3 -4 -2 7 -7 -308 -203 -335 -208 -7 -1 -11 4 -9 11 1 8 -2 11 -7 7 -6 -3 -8 -12 -5 -19 5 -13 -177 -129 -203 -129 -6 0 -11 -3 -9 -6 5 -8 -374 -234 -391 -234 -7 0 -11 -2 -8 -5 2 -2 -35 -28 -83 -56 -48 -29 -161 -97 -252 -151 -91 -54 -171 -98 -177 -98 -7 0 -13 -4 -13 -8 0 -4 -46 -33 -102 -65 -57 -32 -127 -73 -157 -91 -30 -18 -58 -30 -64 -26 -6 3 -8 2 -5 -3 5 -9 -613 -369 -627 -365 -3 1 -12 -5 -20 -13 -9 -8 -156 -95 -328 -192 -171 -98 -350 -199 -396 -225 -46 -27 -89 -46 -95 -42 -6 3 -8 3 -4 -2 7 -7 -215 -135 -234 -135 -5 0 -8 -5 -8 -11 0 -5 -4 -8 -9 -4 -5 3 -13 0 -17 -6 -4 -8 -3 -9 4 -5 7 4 23 -15 41 -51 17 -32 41 -76 55 -98 27 -45 26 -55 -7 -49 -20 4 -20 4 -2 -4 11 -5 25 -7 31 -5 12 4 111 -146 106 -160 -1 -5 2 -6 8 -2 5 3 10 2 10 -3 0 -5 17 -31 37 -57 20 -27 30 -45 22 -41 -8 5 -2 -2 13 -15 42 -38 117 -136 110 -145 -4 -4 -2 -4 4 -1 11 6 61 -52 56 -66 -1 -5 1 -6 6 -3 5 3 26 -14 48 -37 21 -23 28 -33 14 -22 l-25 20 18 -21 c9 -11 14 -24 10 -28 -4 -4 -1 -5 7 -2 15 6 70 -36 70 -52 0 -5 8 -16 17 -23 17 -13 17 -12 4 6 -8 11 12 -5 45 -36 65 -61 215 -180 282 -224 23 -15 42 -32 42 -37 0 -5 4 -7 9 -3 6 3 14 -2 19 -11 5 -9 11 -14 14 -12 8 5 188 -104 188 -115 0 -6 3 -8 6 -4 4 3 54 -18 113 -47 58 -29 156 -73 216 -96 126 -50 124 -49 106 -59 -9 -6 -8 -10 7 -13 15 -4 19 -2 15 8 -7 18 3 18 68 -5 141 -48 520 -121 632 -121 20 0 37 -3 37 -7 0 -14 499 4 604 21 54 9 102 13 107 10 5 -3 9 -1 9 4 0 16 91 24 109 10 14 -12 15 -11 1 6 -14 18 -13 19 12 14 15 -3 26 -2 23 2 -2 3 22 12 53 18 31 7 99 26 150 42 88 29 120 32 106 8 -5 -7 -2 -8 5 -3 9 5 10 10 2 18 -7 7 19 22 87 49 53 21 104 39 112 41 8 1 17 5 20 8 11 14 188 98 194 92 3 -4 6 -1 6 5 0 14 55 44 64 35 3 -4 6 -2 6 4 0 10 148 109 160 107 3 -1 10 4 15 11 13 15 185 147 185 142 0 -2 39 34 87 79 49 45 92 80 97 77 5 -4 6 -2 3 4 -8 13 47 66 58 56 4 -5 5 -3 2 3 -4 6 22 38 56 71 34 33 64 64 66 69 9 21 49 62 56 56 4 -4 5 -2 4 3 -2 6 28 53 67 105 39 52 87 118 106 147 20 29 38 50 40 47 3 -2 5 2 5 8 0 7 14 33 30 58 87 128 237 431 293 593 13 37 26 67 30 67 3 0 6 8 6 18 1 20 66 235 74 242 3 3 6 20 8 39 1 19 7 40 12 46 5 7 7 14 5 17 -3 3 -1 25 4 49 26 115 53 350 58 499 6 181 -7 364 -38 548 -11 62 -17 117 -14 123 4 5 2 9 -3 9 -16 0 -25 70 -11 86 6 8 9 17 5 21 -3 3 -6 1 -6 -5 0 -27 -18 -9 -25 24 -14 79 -127 391 -176 485 -11 22 -17 44 -14 48 3 5 1 11 -4 13 -4 1 -36 59 -71 128 -73 147 -95 180 -120 180 -10 0 -20 3 -23 8 -2 4 -3 2 -1 -4z m-13 -208 c3 -8 -1 -20 -9 -26 -8 -7 -14 -18 -14 -24 0 -6 5 -3 11 7 5 9 14 17 19 17 13 0 61 -96 53 -104 -4 -3 -2 -6 4 -6 11 0 36 -53 36 -76 0 -8 3 -14 7 -14 11 0 31 -50 25 -61 -4 -5 -2 -9 4 -9 9 0 35 -63 36 -85 0 -5 3 -12 6 -15 12 -9 59 -152 53 -161 -3 -5 0 -9 7 -9 6 0 9 -8 6 -20 -3 -11 -1 -20 5 -20 5 0 8 -6 5 -12 -2 -7 -10 -12 -16 -10 -7 1 -9 -2 -6 -8 4 -6 13 -9 20 -6 16 6 31 -47 19 -65 -4 -7 -3 -9 3 -6 13 8 46 -143 37 -168 -5 -11 -4 -16 3 -12 13 8 48 -222 39 -263 -3 -17 -1 -30 4 -30 10 0 15 -322 5 -332 -3 -3 -7 -49 -10 -104 -2 -56 -9 -100 -15 -102 -5 -2 -7 -8 -4 -14 8 -12 -17 -168 -26 -168 -4 0 -5 -11 -2 -25 2 -15 0 -25 -7 -25 -7 0 -9 -5 -6 -11 6 -8 -31 -176 -41 -188 -2 -2 -7 6 -12 19 -7 20 -10 21 -15 7 -4 -10 -2 -17 2 -17 21 0 20 -39 -5 -114 -15 -45 -31 -83 -36 -84 -4 -2 -6 -8 -3 -12 8 -13 -88 -238 -158 -370 -257 -486 -594 -868 -1012 -1145 -136 -91 -340 -199 -356 -189 -7 4 -9 3 -6 -3 8 -13 -50 -36 -66 -26 -5 3 -7 2 -4 -4 7 -11 -130 -66 -144 -58 -5 4 -9 1 -9 -5 0 -7 -7 -10 -15 -6 -8 3 -15 2 -15 -3 0 -4 -48 -22 -107 -39 -195 -56 -495 -110 -562 -100 -17 2 -31 0 -31 -5 0 -14 -430 0 -535 16 -52 9 -79 17 -77 25 1 9 -2 10 -17 1 -14 -10 -43 -7 -138 14 -65 15 -123 27 -127 27 -4 0 -4 5 0 12 4 7 3 8 -4 4 -15 -9 -132 23 -132 36 0 5 -4 7 -9 3 -28 -17 -515 201 -556 248 -6 7 -16 13 -23 15 -27 5 -162 99 -155 107 5 4 3 5 -3 2 -21 -12 -343 250 -337 274 2 5 -3 8 -10 6 -6 -1 -11 4 -10 10 2 7 -1 12 -7 10 -32 -8 -410 468 -393 497 3 6 2 8 -2 4 -9 -9 -56 63 -49 74 3 5 1 8 -5 8 -6 0 -17 13 -25 28 l-14 28 69 37 c58 32 70 36 75 23 3 -9 11 -16 17 -16 7 0 7 4 -1 12 -7 7 -12 15 -12 19 0 7 162 99 173 99 3 0 44 -50 92 -110 48 -61 111 -137 141 -169 29 -32 50 -62 46 -66 -4 -5 -2 -5 4 -2 6 3 25 -12 43 -34 18 -21 88 -87 155 -145 66 -58 138 -120 158 -138 21 -18 38 -31 38 -30 0 2 53 -32 118 -75 64 -43 141 -90 170 -105 28 -14 52 -31 52 -37 0 -5 5 -7 10 -4 5 3 10 1 10 -4 0 -6 3 -10 8 -10 24 4 33 -3 27 -21 -4 -11 -2 -20 4 -20 6 0 10 3 8 8 -2 8 6 12 24 12 6 0 8 -7 5 -16 -5 -13 -3 -14 6 -6 21 17 108 -25 109 -52 1 -17 2 -18 6 -3 3 10 8 17 11 15 4 -2 24 -10 45 -18 37 -14 49 -30 22 -30 -9 0 -12 -6 -9 -15 9 -21 25 -19 31 5 3 11 10 20 15 20 5 0 6 -9 3 -20 -4 -12 -2 -20 5 -20 6 0 9 4 5 9 -7 12 15 26 24 15 3 -5 11 -9 16 -10 37 -1 84 -18 78 -27 -3 -5 -1 -7 4 -4 14 9 74 -3 68 -13 -2 -4 8 -5 23 -3 24 4 25 3 11 -9 -15 -12 -15 -15 -1 -28 14 -13 15 -12 10 2 -4 10 -1 19 8 22 27 10 35 6 29 -14 -4 -11 -2 -20 4 -20 6 0 10 5 8 12 -1 6 7 14 17 16 15 3 17 0 12 -13 -5 -15 -4 -16 8 -6 14 12 116 5 116 -8 0 -19 587 -22 665 -3 28 7 71 14 97 15 27 1 48 6 48 11 0 4 9 6 20 3 11 -3 20 -1 20 5 0 6 9 8 20 5 10 -3 20 -2 22 2 2 4 46 20 98 35 52 16 140 48 194 72 54 24 102 41 107 39 4 -3 9 -1 11 4 3 9 123 72 129 68 2 -1 3 0 2 2 -3 6 161 103 174 104 7 0 11 2 8 5 -2 3 30 29 72 58 253 176 454 389 651 691 44 68 72 101 81 98 10 -4 11 -2 3 8 -8 9 -5 24 14 56 38 68 129 277 160 371 15 47 31 87 34 90 3 3 5 10 5 15 1 25 17 85 23 85 4 0 8 17 9 37 1 20 5 39 10 42 4 3 8 14 9 24 3 72 5 78 16 71 7 -5 9 -2 5 9 -3 8 1 55 9 104 17 97 33 485 22 524 -3 13 -13 78 -22 144 -9 66 -30 174 -47 240 -17 66 -32 129 -33 140 0 11 -5 23 -9 26 -4 3 -9 17 -11 30 -1 13 -8 34 -14 46 -13 24 -82 201 -85 218 -1 6 -5 12 -8 15 -4 3 -23 37 -43 77 l-36 72 132 76 c72 42 136 77 142 78 6 1 14 6 17 10 9 13 63 45 75 46 7 1 14 -5 17 -13z m-466 -366 c23 -46 40 -87 37 -92 -3 -4 -1 -8 4 -8 15 0 24 -32 12 -44 -5 -5 -10 -15 -10 -20 0 -6 5 -4 10 4 9 13 11 13 20 0 5 -8 8 -21 5 -27 -2 -7 -1 -13 4 -13 12 0 74 -188 65 -201 -5 -8 -3 -9 6 -4 10 6 11 2 6 -19 -5 -20 -4 -26 5 -20 9 5 10 1 7 -14 -4 -14 -2 -20 4 -16 7 5 9 -2 6 -19 -3 -15 -2 -24 2 -22 15 9 62 -305 59 -389 -1 -22 2 -61 6 -85 5 -26 4 -42 -1 -38 -5 3 -8 -27 -6 -70 l4 -76 -54 7 c-107 13 -372 36 -410 36 -21 0 -38 3 -38 8 0 4 -42 8 -93 10 -50 2 -93 6 -95 10 -1 4 -22 6 -47 4 -25 -2 -53 -1 -63 3 -9 4 -38 7 -64 6 -27 -2 -48 1 -48 6 0 5 -16 7 -35 5 -19 -2 -43 -1 -52 3 -10 4 -37 7 -60 6 -23 -2 -48 1 -55 5 -6 4 -39 7 -72 6 -46 -1 -56 1 -41 8 16 9 15 9 -9 5 -39 -8 -406 26 -406 37 0 5 -5 6 -11 3 -16 -11 -230 6 -223 16 3 6 -5 7 -19 4 -29 -8 -77 28 -77 57 0 16 62 64 91 70 7 2 21 11 31 21 10 10 23 15 28 12 6 -4 10 -2 10 3 0 9 325 208 349 214 8 2 23 11 33 21 10 10 23 15 28 12 4 -3 10 -1 12 4 5 15 130 91 139 85 5 -3 9 -1 9 5 0 6 33 29 73 52 39 23 155 92 257 154 328 198 444 266 455 268 5 1 12 5 15 8 13 15 136 88 145 86 6 -1 29 -40 52 -87z m-1845 -1060 c29 -28 39 -46 35 -60 -3 -11 -1 -20 4 -20 16 0 9 -84 -10 -127 -23 -50 -78 -88 -140 -98 -26 -4 -41 -4 -38 2 3 5 -8 10 -25 10 -48 0 -98 59 -98 117 0 55 16 100 32 90 6 -4 8 -3 5 3 -4 6 1 17 11 25 32 27 124 81 138 81 8 0 14 4 14 9 0 20 36 5 72 -32z m307 -97 c-13 -15 -12 -15 8 -5 24 13 103 16 103 5 0 -5 26 -7 57 -5 35 2 53 -1 45 -6 -7 -5 13 -6 48 -4 33 2 60 0 60 -4 0 -5 51 -10 113 -12 61 -2 113 -7 115 -11 2 -5 23 -6 47 -3 24 2 52 1 62 -3 10 -5 39 -7 66 -6 26 2 47 -1 47 -6 0 -4 20 -7 45 -5 30 3 45 0 45 -8 0 -7 8 -9 20 -5 23 7 280 -15 280 -24 0 -3 48 -7 106 -8 59 -1 112 -7 119 -13 6 -5 15 -7 18 -4 8 8 287 -18 282 -26 -2 -3 9 -4 26 -2 20 3 29 0 29 -9 0 -11 2 -11 10 1 8 12 10 9 10 -12 0 -16 -4 -28 -10 -28 -5 0 -7 -6 -4 -14 7 -19 -37 -216 -48 -216 -5 0 -7 -4 -3 -9 8 -14 -17 -101 -28 -94 -6 3 -7 1 -3 -5 8 -14 -24 -122 -36 -122 -5 0 -6 -4 -3 -10 11 -18 -155 -379 -194 -420 -9 -9 -17 -23 -19 -30 -6 -25 -128 -194 -186 -257 l-29 -32 -61 56 c-34 31 -115 106 -181 167 -66 61 -119 114 -117 118 1 5 -2 7 -6 5 -13 -3 -251 216 -246 225 3 5 2 7 -3 6 -5 -2 -105 85 -223 194 -118 108 -227 206 -243 218 -15 12 -25 26 -21 31 3 5 2 8 -3 7 -5 -2 -45 29 -88 68 -44 39 -95 85 -114 101 l-34 29 13 52 c8 28 16 49 20 47 3 -2 3 21 0 51 l-6 54 64 0 c59 0 63 -1 51 -17z m-731 -113 c-3 -16 -2 -28 1 -25 7 8 31 -67 24 -78 -3 -6 -1 -7 4 -4 6 4 13 0 17 -8 3 -8 1 -15 -4 -15 -6 0 -9 -3 -8 -7 3 -17 -313 -663 -324 -663 -5 0 -7 -4 -4 -9 8 -13 -4 -42 -15 -35 -5 3 -6 -3 -2 -12 5 -13 3 -15 -7 -9 -8 5 -11 4 -7 -2 6 -10 -56 -151 -72 -163 -3 -3 -7 -11 -9 -18 -1 -7 -32 -76 -69 -153 -43 -91 -72 -139 -82 -140 -10 0 -12 -2 -3 -6 6 -2 12 -9 12 -14 0 -6 -5 -7 -12 -3 -7 4 -8 3 -4 -4 7 -12 -150 -334 -165 -340 -5 -2 -7 -8 -4 -12 3 -5 -6 -32 -20 -59 -30 -59 -26 -60 -155 17 -119 71 -141 87 -133 96 5 4 3 6 -4 4 -32 -8 -298 218 -445 378 -107 117 -249 296 -245 308 4 12 0 10 477 284 206 118 381 215 388 215 6 0 12 4 12 8 0 8 165 103 174 100 3 0 14 6 24 15 22 20 265 162 283 166 8 2 18 8 24 14 16 17 258 157 273 157 6 0 12 4 12 8 0 9 49 38 64 39 4 0 6 -13 4 -30z m546 -226 c28 -26 51 -52 51 -58 0 -6 5 -11 12 -11 17 0 353 -307 347 -317 -3 -5 -1 -7 4 -6 6 2 82 -63 169 -143 469 -432 533 -492 533 -502 0 -6 3 -7 6 -4 4 3 33 -19 65 -49 32 -31 67 -63 79 -71 22 -15 21 -16 -42 -80 -72 -73 -198 -176 -307 -252 -68 -47 -76 -50 -92 -35 -12 10 -19 12 -24 4 -4 -6 -1 -9 7 -8 7 2 13 -3 13 -11 0 -18 -152 -104 -168 -95 -7 4 -9 4 -5 -1 9 -10 -19 -25 -141 -76 -52 -22 -101 -37 -108 -35 -7 3 -13 2 -13 -2 0 -12 -108 -44 -120 -37 -6 3 -10 1 -10 -6 0 -6 -8 -9 -20 -6 -11 3 -20 1 -20 -5 0 -6 -9 -8 -20 -5 -11 3 -20 1 -20 -4 0 -4 -6 -6 -13 -3 -16 6 -52 227 -41 246 4 6 3 8 -3 5 -5 -3 -26 99 -51 251 -23 141 -58 351 -77 466 -20 115 -34 215 -31 223 3 7 2 13 -3 13 -10 0 -35 156 -27 175 4 10 2 14 -5 9 -8 -5 -10 3 -7 25 2 17 2 31 -2 31 -6 0 -40 188 -40 219 0 7 6 9 13 6 6 -4 5 -1 -4 7 -9 7 -19 36 -23 63 -4 28 -9 57 -12 66 -3 12 9 22 43 37 27 11 50 21 52 21 1 1 26 -20 55 -45z m-289 -70 c3 -29 4 -58 1 -63 -4 -5 -2 -11 2 -13 11 -4 55 -275 47 -288 -3 -5 -1 -10 6 -10 7 0 9 -10 7 -25 -3 -14 -2 -25 1 -25 8 0 55 -289 55 -342 1 -20 4 -34 7 -32 3 1 11 -33 19 -78 11 -68 11 -82 -1 -90 -11 -8 -11 -9 2 -5 13 4 18 -9 28 -74 7 -44 9 -84 6 -89 -3 -6 -1 -10 6 -10 7 0 10 -11 7 -29 -2 -17 -1 -28 3 -26 10 6 22 -102 13 -116 -5 -8 -3 -9 6 -4 9 6 12 -1 8 -28 -2 -20 -1 -34 2 -32 9 6 52 -273 44 -286 -5 -8 -3 -9 6 -4 9 6 11 -1 8 -28 -2 -20 -1 -38 3 -39 4 -2 9 -12 11 -23 3 -16 -5 -21 -52 -28 -30 -4 -72 -6 -93 -4 -21 3 -35 1 -31 -4 3 -5 -42 -9 -106 -9 -79 0 -109 3 -104 11 4 8 -3 9 -26 4 -39 -9 -230 14 -230 27 0 5 -5 6 -10 3 -16 -10 -101 6 -93 18 4 6 1 7 -6 3 -14 -9 -191 32 -191 44 0 5 -8 6 -19 3 -10 -2 -24 1 -32 9 -8 7 -20 13 -26 14 -39 3 -44 5 -38 14 3 6 -1 7 -9 4 -9 -3 -16 -1 -16 6 0 6 -4 9 -9 6 -10 -7 -101 29 -101 39 0 4 21 50 47 103 183 381 254 527 261 532 4 3 8 13 10 23 5 27 109 237 115 231 3 -3 4 1 4 8 -1 7 32 84 73 171 54 114 78 156 89 152 11 -4 11 -2 2 9 -9 11 -9 17 1 28 7 7 14 20 16 28 2 8 39 89 82 180 44 91 85 176 92 191 11 25 12 25 54 11 41 -13 42 -15 49 -68z"/>
</g>
</svg>
