<?xml version="1.0" standalone="no"?>
<!DOCTYPE svg PUBLIC "-//W3C//DTD SVG 20010904//EN" "http://www.w3.org/TR/2001/REC-SVG-20010904/DTD/svg10.dtd">
<svg xmlns="http://www.w3.org/2000/svg" version="1.0" width="1024.000000pt" height="1024.000000pt" viewBox="0 0 1024.000000 1024.000000" preserveAspectRatio="xMidYMid meet">
<metadata>
Created by potrace 1.16, written by Peter Selinger 2001-2019
<meta name="Producer" content="Online-Convert"/></metadata>
<g transform="translate(0.000000,1024.000000) scale(0.100000,-0.100000)" fill="#000000" stroke="none">
<path d="M7058 7799 c-33 -9 -64 -23 -69 -30 -16 -25 -9 -60 17 -86 23 -23 31 -25 72 -19 108 15 179 17 217 7 22 -5 56 -14 76 -19 19 -5 45 -18 57 -28 13 -10 26 -19 30 -19 22 -1 168 -148 178 -180 4 -11 11 -23 15 -26 11 -7 46 -104 54 -149 3 -18 8 -37 10 -41 10 -15 13 -136 5 -179 -4 -25 -11 -58 -14 -75 -12 -72 -18 -91 -32 -112 -8 -13 -11 -23 -7 -23 5 0 3 -4 -3 -8 -5 -4 -20 -28 -32 -54 -12 -27 -27 -48 -32 -48 -6 0 -10 -5 -10 -11 0 -7 -8 -18 -17 -26 -12 -9 -13 -12 -3 -8 8 4 -9 -16 -37 -43 -29 -27 -53 -55 -53 -61 0 -6 -3 -10 -7 -9 -5 1 -32 -22 -62 -50 -30 -29 -58 -52 -62 -52 -4 0 -22 -13 -40 -30 -18 -16 -36 -27 -41 -24 -4 3 -8 0 -8 -6 0 -6 -13 -16 -30 -21 -16 -6 -30 -14 -30 -18 0 -8 -40 -29 -51 -27 -3 0 -13 -7 -23 -17 -10 -9 -21 -15 -26 -12 -5 3 -10 2 -12 -2 -3 -9 -131 -74 -150 -77 -7 -1 -23 -7 -34 -14 -12 -6 -24 -8 -28 -5 -3 3 -6 1 -6 -5 0 -7 -3 -11 -7 -10 -5 1 -33 -5 -63 -14 -50 -15 -90 -25 -130 -32 -8 -1 -27 -7 -41 -13 -15 -7 -46 -17 -70 -23 -60 -16 -99 -46 -99 -75 0 -31 25 -55 53 -50 12 2 50 6 85 9 34 4 72 10 85 15 12 5 40 11 62 15 120 18 288 87 465 188 47 27 89 50 95 51 9 2 16 7 50 35 8 7 15 10 15 6 0 -3 9 4 20 17 10 13 19 20 20 15 0 -4 9 2 21 15 11 13 17 17 13 9 -5 -8 10 3 33 25 22 22 67 65 99 96 61 59 123 127 122 136 0 2 9 16 21 29 12 13 21 29 21 34 0 6 5 10 11 10 5 0 7 5 4 10 -3 6 -2 10 3 10 6 0 13 15 16 34 4 19 11 36 16 38 5 2 11 12 13 23 2 11 7 28 12 38 4 10 9 32 10 50 2 18 4 32 5 32 10 0 14 217 5 270 -3 17 -7 44 -9 60 -5 40 -17 88 -26 100 -8 12 -20 57 -17 66 1 4 -7 16 -17 28 -11 12 -16 21 -12 21 4 0 -5 17 -19 37 -14 21 -25 41 -25 46 0 4 -11 20 -25 35 -14 15 -25 31 -25 35 0 11 -15 24 -65 61 -22 17 -42 33 -45 36 -14 16 -124 62 -195 81 -100 27 -216 30 -297 8z"/>
<path d="M6699 7015 c-46 -28 -60 -44 -78 -84 -48 -113 -6 -219 105 -260 67 -26 107 -26 159 -2 45 21 105 79 110 107 2 11 4 21 5 24 1 3 1 15 0 28 -1 12 3 22 9 22 6 0 11 11 11 25 0 14 -4 25 -9 25 -5 0 -11 14 -15 30 -12 62 -104 120 -188 119 -42 0 -65 -8 -109 -34z m166 -120 c32 -31 31 -40 -3 -79 -18 -21 -36 -32 -53 -31 -31 2 -79 33 -79 50 0 74 85 111 135 60z"/>
<path d="M7643 6041 c-18 -5 -43 -16 -55 -24 -36 -26 -85 -70 -68 -62 8 3 7 0 -4 -9 -27 -22 -35 -140 -12 -188 43 -90 148 -168 226 -168 66 0 131 30 188 86 29 30 51 58 47 64 -3 5 -2 10 3 10 12 0 13 128 1 136 -5 3 -7 10 -4 15 4 5 2 9 -2 9 -5 0 -17 16 -27 35 -11 20 -34 45 -53 56 -18 11 -33 24 -33 28 0 9 -2 9 -100 15 -41 3 -90 1 -107 -3z m170 -154 c68 -52 54 -127 -28 -155 -82 -27 -156 30 -155 118 0 8 0 23 1 33 1 45 125 48 182 4z"/>
<path d="M5049 6016 c-2 -2 -35 -6 -74 -9 -62 -6 -98 -12 -185 -32 -14 -4 -30 -7 -37 -9 -7 -1 -16 -5 -19 -9 -4 -4 -15 -7 -25 -7 -10 0 -47 -13 -82 -30 -36 -16 -72 -30 -81 -30 -9 0 -16 -4 -16 -9 0 -5 -10 -12 -22 -16 -13 -4 -25 -8 -28 -10 -3 -1 -14 -6 -25 -10 -11 -5 -33 -18 -50 -29 -49 -34 -68 -46 -103 -61 -18 -9 -42 -27 -54 -40 -12 -14 -28 -25 -35 -25 -7 0 -13 -5 -13 -11 0 -5 -4 -8 -9 -5 -5 3 -12 -1 -15 -9 -3 -9 -17 -20 -31 -25 -14 -5 -25 -14 -25 -20 0 -6 -4 -9 -8 -6 -5 3 -15 -4 -22 -15 -8 -10 -19 -19 -24 -19 -5 0 -26 -17 -46 -37 -71 -72 -117 -113 -126 -113 -5 0 -37 -30 -71 -67 -35 -36 -63 -63 -63 -59 0 4 -23 -16 -52 -46 -28 -29 -47 -46 -43 -38 5 8 -16 -9 -46 -38 -79 -77 -85 -82 -97 -82 -6 0 -20 -13 -32 -30 -12 -16 -27 -30 -33 -30 -7 0 -18 -9 -25 -20 -7 -12 -17 -18 -22 -15 -5 3 -14 -4 -20 -15 -6 -11 -16 -20 -23 -20 -7 0 -18 -9 -25 -20 -7 -11 -19 -20 -27 -20 -8 0 -15 -5 -15 -10 0 -6 -3 -9 -8 -8 -4 2 -18 -7 -32 -19 -13 -13 -30 -23 -37 -23 -7 0 -13 -5 -13 -11 0 -5 -4 -8 -9 -5 -5 3 -12 -1 -15 -10 -3 -8 -10 -13 -15 -10 -4 3 -16 -3 -26 -14 -10 -11 -22 -17 -26 -14 -5 3 -9 1 -9 -4 0 -8 -63 -40 -90 -47 -3 0 -25 -11 -50 -24 -25 -13 -47 -24 -50 -23 -3 0 -11 -4 -17 -10 -7 -6 -13 -7 -13 -2 0 5 -4 3 -8 -3 -5 -7 -22 -15 -40 -17 -17 -2 -39 -9 -47 -16 -8 -7 -15 -10 -15 -6 0 3 -15 0 -34 -8 -19 -8 -58 -19 -88 -25 -29 -6 -66 -13 -83 -17 -16 -3 -97 -8 -180 -11 -145 -6 -286 5 -380 29 -22 6 -49 12 -59 14 -24 4 -108 45 -156 76 -19 12 -42 24 -50 26 -55 14 -69 13 -89 -7 -33 -33 -27 -72 20 -119 22 -23 45 -40 50 -36 5 3 9 1 9 -4 0 -8 28 -20 47 -20 3 0 9 -5 12 -11 4 -5 22 -13 40 -16 19 -3 39 -9 45 -13 12 -7 15 -8 71 -17 22 -3 54 -10 70 -15 129 -38 443 -32 658 13 37 8 67 12 67 10 0 -3 7 0 15 7 8 7 15 10 15 6 0 -4 13 0 29 8 16 9 31 12 35 9 3 -4 6 -2 6 4 0 6 15 14 33 18 17 4 34 9 37 10 60 24 167 76 220 107 19 11 36 20 38 19 10 -5 22 1 18 8 -3 5 5 12 18 15 14 3 31 12 38 19 24 23 180 132 189 132 5 0 21 14 37 31 15 16 45 43 67 59 22 16 49 38 60 48 11 11 34 30 51 43 17 13 59 51 95 84 35 33 70 60 77 60 7 0 10 5 7 10 -3 6 -2 10 2 10 5 0 31 21 59 48 68 65 124 113 124 108 0 -3 21 15 46 39 25 25 52 45 60 45 7 0 21 11 29 24 16 25 118 105 138 109 6 1 19 11 29 22 9 11 17 16 18 11 0 -6 7 -1 16 10 8 10 13 12 9 4 -6 -13 -5 -13 7 0 19 23 78 63 78 53 0 -4 4 -3 8 2 12 17 60 45 77 45 8 0 15 5 15 10 0 6 5 10 11 10 11 0 68 23 102 41 41 22 155 54 251 70 33 5 63 12 67 15 11 6 210 6 239 -1 14 -3 43 -10 65 -15 93 -22 135 -35 135 -42 0 -5 10 -8 23 -8 12 -1 40 -12 62 -25 22 -14 57 -34 77 -45 21 -11 42 -29 48 -40 6 -11 18 -20 27 -20 9 0 14 -3 10 -6 -3 -3 15 -26 41 -50 25 -24 41 -44 36 -44 -5 0 -1 -5 9 -11 9 -5 17 -17 17 -24 0 -8 5 -15 11 -15 5 0 8 -4 4 -9 -3 -5 3 -17 12 -27 10 -10 17 -20 17 -23 -1 -3 2 -16 7 -29 5 -13 9 -33 9 -45 0 -18 -2 -19 -10 -7 -5 8 -10 12 -10 8 0 -3 -28 5 -62 18 -131 51 -304 73 -403 49 -16 -4 -39 -8 -50 -10 -11 -1 -40 -11 -65 -21 -25 -10 -48 -18 -52 -16 -5 1 -8 -3 -8 -9 0 -5 -4 -7 -10 -4 -5 3 -10 1 -10 -4 0 -6 -7 -11 -15 -11 -8 0 -24 -9 -35 -20 -11 -11 -22 -20 -24 -20 -17 0 -133 -137 -129 -152 2 -4 -2 -8 -7 -8 -6 0 -10 -7 -10 -16 0 -8 -5 -25 -12 -37 -13 -24 -14 -29 -24 -97 -8 -54 -10 -227 -3 -255 2 -11 8 -26 12 -32 5 -7 5 -17 2 -23 -3 -5 -1 -10 5 -10 6 0 9 -4 5 -9 -3 -5 -1 -12 5 -16 6 -4 8 -11 5 -16 -4 -5 -1 -9 5 -9 6 0 9 -4 6 -9 -3 -5 1 -14 9 -21 8 -7 15 -21 15 -31 0 -10 9 -23 20 -29 11 -6 20 -17 20 -25 0 -8 12 -27 28 -43 23 -24 24 -25 8 -2 -12 15 -4 10 20 -12 77 -72 84 -78 99 -78 8 0 15 -5 15 -11 0 -5 5 -7 10 -4 6 3 10 1 10 -5 0 -6 5 -8 10 -5 6 3 10 1 10 -6 0 -7 3 -9 6 -6 4 3 16 0 28 -8 11 -8 31 -15 43 -15 13 0 23 -5 23 -11 0 -5 4 -8 9 -5 5 4 22 1 38 -5 79 -30 200 -40 333 -27 150 16 209 26 226 40 7 5 25 10 42 11 16 1 28 5 25 10 -3 6 31 11 40 5 1 -1 13 5 27 13 14 8 30 14 35 15 24 1 55 16 55 26 0 6 3 9 6 5 3 -3 30 7 59 23 29 16 56 26 59 23 3 -4 6 -1 6 5 0 6 17 16 38 22 20 7 44 18 52 25 15 12 45 26 67 31 7 1 19 9 27 17 8 7 29 20 48 27 18 8 46 23 62 34 16 11 26 15 22 8 -4 -6 15 2 42 19 27 17 56 32 63 33 22 5 52 16 82 32 15 8 32 12 37 9 6 -3 10 -1 10 5 0 6 5 8 10 5 6 -4 16 -2 23 3 12 9 47 19 95 28 12 2 34 7 50 10 101 22 359 6 395 -25 8 -6 16 -8 20 -5 8 9 77 -16 77 -27 0 -6 4 -8 9 -4 12 7 81 -25 81 -37 0 -5 5 -6 10 -3 6 3 10 1 10 -4 0 -6 7 -11 15 -11 8 0 24 -10 36 -22 12 -13 18 -16 14 -8 -6 11 -3 10 12 -2 11 -10 25 -18 32 -18 6 0 14 -7 17 -15 4 -8 10 -13 14 -10 4 3 11 -2 14 -11 3 -8 10 -13 14 -10 5 3 30 -10 55 -28 26 -19 61 -39 77 -46 17 -7 30 -17 30 -22 0 -5 5 -6 10 -3 6 3 10 1 10 -4 0 -6 8 -11 19 -11 10 0 30 -10 45 -21 15 -12 38 -21 52 -21 13 0 24 -5 24 -10 0 -5 5 -6 10 -3 6 4 16 2 23 -3 7 -5 19 -10 27 -10 8 -1 42 -6 75 -12 60 -11 212 -14 250 -6 11 3 27 5 35 6 28 2 61 38 65 73 4 32 1 36 -31 52 -25 12 -47 15 -72 10 -36 -7 -190 -8 -224 -2 -10 2 -21 6 -24 10 -4 4 -20 7 -36 7 -15 0 -28 5 -28 11 0 5 -3 8 -8 5 -4 -2 -30 6 -57 20 -28 13 -57 24 -66 24 -9 0 -29 11 -45 25 -15 13 -30 22 -32 20 -3 -2 -18 7 -34 20 -16 14 -36 25 -43 25 -7 0 -20 6 -27 13 -7 6 -29 20 -49 30 -19 10 -48 29 -64 43 -16 13 -39 27 -52 30 -13 4 -23 11 -23 17 0 6 -3 7 -6 4 -4 -4 -28 4 -53 17 -208 107 -428 133 -691 82 -8 -2 -22 -6 -30 -9 -8 -3 -35 -10 -60 -15 -42 -9 -79 -21 -140 -44 -14 -6 -25 -8 -26 -6 0 1 -9 -4 -18 -12 -10 -8 -27 -16 -39 -17 -12 -2 -24 -7 -27 -12 -3 -5 -26 -18 -52 -30 -26 -11 -50 -26 -53 -31 -4 -6 -11 -8 -16 -5 -5 4 -9 1 -9 -5 0 -6 -4 -9 -9 -5 -5 3 -17 -2 -25 -11 -9 -8 -16 -12 -16 -7 0 4 -4 3 -8 -2 -4 -6 -29 -22 -57 -35 -27 -14 -61 -33 -74 -42 -13 -10 -27 -15 -32 -12 -5 3 -9 0 -9 -7 0 -7 -3 -9 -7 -6 -3 4 -13 1 -22 -7 -9 -7 -45 -26 -81 -41 -36 -15 -77 -34 -92 -42 -16 -8 -28 -11 -28 -7 0 5 -5 3 -12 -4 -7 -7 -20 -12 -30 -12 -11 0 -32 -7 -48 -15 -16 -8 -46 -17 -67 -20 -21 -3 -45 -8 -53 -11 -8 -3 -29 -8 -45 -10 -183 -24 -362 6 -466 77 -14 10 -29 16 -32 13 -7 -8 -139 125 -133 135 3 4 -4 18 -16 31 -12 13 -22 30 -23 39 -1 9 -6 26 -13 37 -6 12 -9 24 -5 27 3 4 1 13 -5 20 -13 15 -18 137 -8 177 3 14 9 40 12 58 3 17 10 32 15 32 5 0 6 7 3 15 -4 8 -1 15 6 15 6 0 8 5 5 10 -3 6 -3 10 2 10 4 0 17 12 27 27 12 16 14 23 5 18 -8 -5 -3 4 10 18 14 15 31 27 38 27 8 0 12 4 9 8 -5 8 51 40 109 63 108 44 253 52 358 19 37 -11 67 -25 67 -30 0 -6 3 -9 8 -8 12 2 46 -14 64 -31 9 -9 31 -27 49 -41 18 -14 45 -37 59 -51 26 -27 61 -49 79 -49 6 0 23 12 39 28 25 24 27 31 20 67 -5 22 -12 49 -18 60 -5 11 -12 47 -14 80 -5 66 -15 107 -27 115 -5 3 -10 15 -12 27 -1 12 -9 29 -17 39 -8 9 -13 18 -12 18 7 2 -21 56 -28 56 -4 0 -13 14 -20 30 -7 17 -17 30 -23 30 -6 0 -8 3 -4 6 5 6 -34 52 -99 118 -41 42 -128 111 -136 109 -4 -2 -8 2 -8 9 0 6 -3 8 -6 5 -4 -4 -20 3 -35 14 -16 11 -29 17 -29 13 0 -3 -7 -1 -15 6 -8 7 -15 9 -15 6 0 -4 -10 -1 -22 6 -29 15 -25 14 -138 37 -90 18 -272 36 -281 27z"/>
<path d="M4015 4222 c-33 -1 -87 -9 -120 -17 -66 -16 -104 -24 -149 -32 -16 -3 -40 -12 -54 -19 -14 -7 -30 -10 -35 -7 -5 3 -12 1 -16 -5 -4 -7 -16 -13 -26 -15 -11 -2 -31 -9 -45 -15 -14 -6 -46 -18 -72 -28 -27 -9 -48 -20 -48 -25 0 -8 -40 -24 -52 -21 -5 1 -8 -2 -8 -8 0 -6 -3 -9 -7 -8 -8 2 -64 -23 -73 -32 -13 -13 -70 -40 -70 -33 0 4 -4 3 -8 -3 -4 -5 -29 -20 -57 -33 -27 -13 -58 -30 -67 -39 -10 -8 -18 -12 -18 -8 0 4 -7 0 -16 -8 -8 -9 -19 -14 -24 -11 -4 3 -13 -2 -20 -10 -7 -8 -21 -15 -31 -15 -11 0 -19 -5 -19 -12 0 -6 -3 -8 -7 -5 -3 4 -15 0 -25 -10 -10 -9 -18 -12 -18 -7 0 5 -4 3 -8 -3 -4 -7 -18 -14 -30 -16 -12 -2 -25 -6 -28 -10 -4 -4 -15 -7 -25 -7 -9 0 -19 -4 -21 -10 -1 -5 -14 -11 -28 -14 -14 -2 -26 -5 -27 -7 -2 -1 -7 -3 -13 -4 -5 -1 -11 -3 -12 -5 -2 -1 -10 -3 -18 -5 -12 -2 -65 -17 -115 -31 -90 -27 -165 -36 -315 -39 -137 -4 -243 7 -267 27 -7 6 -13 7 -13 3 0 -4 -6 -3 -12 3 -7 5 -28 13 -45 17 -18 3 -33 11 -33 17 0 6 -3 8 -7 5 -3 -4 -12 -2 -19 4 -17 14 -76 14 -103 0 -19 -11 -26 -34 -21 -71 3 -24 40 -59 77 -72 18 -7 33 -16 33 -21 0 -4 4 -6 8 -3 5 3 21 -1 36 -9 15 -8 30 -14 34 -13 4 1 38 -4 76 -11 112 -20 443 -14 486 9 8 4 33 9 55 11 22 2 51 9 65 16 14 7 34 13 44 13 21 0 81 17 108 31 10 5 26 9 36 9 10 0 22 3 26 8 4 4 11 7 14 7 4 1 22 9 40 18 17 10 32 15 32 11 0 -3 11 1 25 10 13 9 31 16 40 16 8 0 15 5 15 10 0 6 6 10 14 10 7 0 38 14 69 30 31 17 63 30 72 30 8 0 15 4 15 9 0 10 131 77 143 73 4 -1 7 2 7 7 0 10 39 27 53 23 4 -1 7 2 7 8 0 5 9 10 20 10 11 0 20 4 20 9 0 8 19 18 50 26 19 5 47 21 59 33 7 7 20 11 27 8 8 -3 14 -1 14 5 0 6 5 7 10 4 6 -3 10 -1 10 4 0 6 10 11 23 11 13 0 28 5 34 11 6 6 17 12 24 13 69 14 90 19 94 27 3 4 27 11 53 15 26 3 73 12 104 19 67 15 215 17 308 5 36 -5 88 -12 115 -15 28 -3 52 -10 53 -16 2 -5 7 -7 11 -4 4 2 25 -1 47 -7 21 -6 42 -11 47 -10 4 1 7 -3 7 -10 0 -6 3 -9 6 -5 4 3 26 -5 49 -18 24 -13 46 -21 49 -18 3 4 6 1 6 -6 0 -7 5 -9 10 -6 6 3 10 1 10 -5 0 -6 5 -8 10 -5 6 3 10 1 10 -6 0 -7 3 -9 6 -6 4 4 19 -2 34 -13 16 -11 33 -20 39 -20 5 0 15 -8 20 -17 6 -10 11 -13 11 -8 0 6 3 6 8 0 10 -15 66 -50 75 -47 4 1 7 -3 7 -9 0 -5 5 -7 10 -4 6 3 10 2 10 -3 0 -6 11 -13 25 -16 14 -4 25 -11 25 -17 0 -6 4 -8 9 -5 5 3 14 -1 21 -9 7 -8 19 -15 26 -15 8 0 14 -5 14 -11 0 -5 5 -7 12 -3 6 4 17 -1 25 -11 7 -11 13 -15 13 -11 0 4 7 1 15 -8 9 -8 22 -13 29 -10 7 3 21 -2 30 -11 9 -9 16 -14 16 -11 0 4 15 0 34 -8 19 -8 37 -12 40 -8 3 3 6 1 6 -5 0 -6 7 -14 16 -17 10 -4 13 -2 7 7 -4 6 5 4 21 -6 26 -17 97 -30 158 -28 15 1 30 -4 33 -9 5 -8 11 -8 20 0 9 8 15 8 20 0 4 -7 12 -7 26 0 13 7 19 7 19 0 0 -5 5 -10 11 -10 5 0 8 4 5 9 -3 4 25 11 62 15 109 10 142 15 153 22 6 3 25 8 42 11 18 3 52 14 75 25 24 11 46 17 50 14 3 -3 11 -1 19 5 7 6 13 9 13 6 0 -4 29 7 64 23 35 15 67 26 70 23 3 -3 12 2 21 11 9 9 24 16 32 16 9 0 45 14 80 30 35 17 71 32 81 34 9 1 31 9 47 15 17 7 35 14 40 15 6 1 16 5 23 9 6 5 12 6 12 2 0 -3 9 -1 19 5 11 5 37 12 58 15 21 4 53 11 70 16 18 6 37 8 43 4 5 -3 10 -2 10 2 0 11 5 11 170 13 117 1 158 -2 180 -10 3 -1 9 -2 13 -1 8 1 76 -16 107 -27 8 -3 24 -7 34 -9 11 -2 25 -8 33 -14 7 -6 13 -8 13 -4 0 4 7 2 15 -5 8 -7 15 -9 15 -4 0 5 4 3 8 -4 5 -7 17 -14 28 -16 36 -7 104 -38 104 -48 0 -5 4 -7 9 -3 5 3 17 -2 25 -11 9 -8 16 -13 16 -9 0 8 64 -26 72 -39 4 -6 8 -7 8 -2 0 5 6 3 14 -3 12 -10 134 -73 146 -76 3 0 19 -9 37 -18 18 -9 39 -17 48 -17 8 0 15 -4 15 -8 0 -5 6 -9 13 -10 6 0 57 -14 112 -30 55 -16 129 -33 165 -37 186 -22 408 13 446 70 41 63 -23 118 -112 96 -131 -33 -300 -43 -358 -22 -15 6 -45 13 -67 16 -22 3 -48 9 -57 14 -9 5 -21 10 -27 11 -5 2 -14 4 -20 5 -45 10 -131 44 -181 71 -34 18 -64 30 -68 27 -3 -4 -6 -1 -6 5 0 7 -3 11 -7 10 -12 -3 -101 40 -108 52 -4 6 -10 8 -15 5 -4 -2 -23 6 -41 18 -37 25 -99 55 -169 82 -25 9 -56 22 -70 28 -14 5 -31 11 -39 13 -8 1 -48 10 -89 19 -61 14 -109 16 -241 12 -91 -3 -179 -8 -196 -11 -119 -25 -216 -51 -320 -87 -173 -59 -185 -63 -185 -72 0 -5 -4 -6 -10 -2 -5 3 -17 2 -27 -3 -10 -5 -34 -16 -53 -24 -19 -8 -52 -23 -73 -32 -21 -9 -47 -16 -58 -16 -11 0 -32 -6 -47 -14 -15 -7 -56 -19 -92 -25 -36 -6 -78 -14 -95 -18 -16 -3 -82 -6 -145 -5 -118 0 -235 22 -316 58 -22 9 -43 18 -49 18 -5 1 -28 13 -50 26 -22 14 -43 24 -47 22 -5 -1 -8 3 -8 9 0 5 -4 7 -10 4 -5 -3 -10 -1 -10 5 0 6 -4 8 -10 5 -5 -3 -10 -1 -10 5 0 6 -4 8 -10 5 -5 -3 -10 -2 -10 3 0 6 -11 13 -25 16 -14 4 -25 11 -25 17 0 6 -4 8 -9 4 -5 -3 -12 -1 -16 5 -3 5 -25 19 -48 30 -55 27 -86 45 -100 59 -6 6 -19 11 -28 11 -10 0 -31 11 -47 25 -17 14 -35 25 -41 25 -7 0 -31 10 -54 22 -23 12 -44 23 -47 23 -3 1 -32 9 -65 20 -33 10 -69 20 -80 22 -11 2 -43 8 -71 14 -53 10 -221 16 -329 11z"/>
<path d="M6560 3339 c-71 -9 -133 -20 -141 -25 -6 -3 -63 -15 -89 -18 -9 -1 -20 -5 -25 -8 -11 -6 -78 -28 -98 -32 -7 -2 -25 -9 -42 -15 -16 -7 -34 -14 -40 -15 -25 -7 -53 -19 -97 -42 -27 -14 -58 -27 -69 -29 -12 -2 -33 -12 -48 -22 -25 -17 -99 -53 -104 -51 -1 1 -33 -14 -72 -31 -38 -18 -78 -35 -89 -37 -10 -2 -24 -8 -32 -15 -8 -6 -14 -8 -14 -4 0 4 -7 2 -15 -5 -8 -7 -15 -9 -15 -5 0 4 -7 2 -15 -5 -8 -7 -15 -10 -15 -6 0 3 -15 0 -32 -7 -138 -58 -404 -65 -524 -16 -16 7 -31 13 -34 14 -3 1 -12 4 -20 8 -8 3 -32 11 -52 17 -21 6 -38 16 -38 21 0 6 -4 8 -9 4 -5 -3 -15 1 -23 8 -7 7 -17 15 -23 17 -47 14 -65 23 -65 31 0 5 -7 9 -15 9 -8 0 -15 5 -15 11 0 5 -4 8 -9 4 -5 -3 -16 1 -24 9 -8 8 -17 13 -19 10 -3 -2 -11 2 -18 11 -7 8 -19 15 -26 15 -8 0 -14 5 -14 11 0 5 -4 7 -10 4 -5 -3 -10 -1 -10 5 0 6 -4 8 -10 5 -5 -3 -10 -1 -10 6 0 7 -3 9 -6 6 -6 -6 -60 19 -74 33 -7 8 -154 55 -162 52 -5 -1 -8 2 -8 6 0 4 -8 8 -17 9 -10 0 -47 5 -83 9 -79 11 -278 10 -340 0 -25 -5 -54 -9 -65 -10 -11 0 -22 -4 -25 -8 -3 -4 -23 -8 -44 -10 -20 -1 -39 -6 -42 -10 -3 -4 -11 -5 -19 -1 -8 3 -15 -1 -15 -8 0 -7 -3 -10 -6 -6 -3 3 -34 -5 -69 -18 -34 -13 -65 -21 -69 -18 -3 4 -6 1 -6 -6 0 -7 -4 -9 -10 -6 -5 3 -10 2 -10 -2 0 -11 -60 -34 -71 -27 -5 3 -9 1 -9 -5 0 -7 -54 -32 -80 -36 -3 0 -15 -6 -26 -13 -12 -6 -24 -8 -28 -5 -3 3 -6 1 -6 -6 0 -7 -4 -9 -10 -6 -5 3 -10 1 -10 -4 0 -6 -8 -11 -18 -11 -10 0 -22 -3 -26 -7 -4 -5 -11 -8 -14 -8 -9 0 -73 -24 -95 -36 -10 -5 -22 -7 -27 -4 -5 3 -11 1 -15 -5 -3 -5 -16 -10 -29 -10 -12 0 -26 -4 -32 -10 -5 -5 -23 -12 -39 -14 -17 -2 -55 -10 -85 -17 -34 -8 -125 -13 -235 -13 -177 -1 -242 8 -330 45 -11 4 -53 19 -94 34 -68 24 -76 24 -97 10 -13 -8 -27 -27 -30 -41 -6 -22 0 -32 28 -58 43 -39 95 -66 145 -76 21 -5 49 -11 63 -15 54 -14 191 -29 265 -29 114 0 273 9 269 16 -2 3 24 9 59 13 34 4 67 10 72 13 6 4 19 8 30 9 11 2 27 6 35 10 19 8 31 11 50 15 8 2 20 7 27 11 6 4 42 18 80 31 98 35 137 50 143 57 3 3 28 14 55 24 28 9 57 20 65 23 8 3 22 6 32 8 9 2 31 12 50 23 18 10 51 24 73 31 22 6 47 14 55 17 8 3 23 5 33 4 9 -1 17 2 17 8 0 6 6 8 14 5 8 -3 17 0 21 6 4 6 15 8 26 5 10 -4 24 -3 31 1 22 14 81 18 243 19 88 0 169 -4 180 -9 22 -10 50 -17 78 -17 9 0 17 -5 17 -10 0 -6 5 -7 10 -4 6 4 18 1 27 -7 9 -7 17 -11 17 -9 2 8 76 -21 76 -30 0 -5 3 -8 8 -7 14 4 52 -13 52 -23 0 -6 5 -7 10 -4 6 3 13 -1 16 -9 3 -9 10 -13 15 -10 5 3 9 1 9 -4 0 -5 20 -17 45 -26 25 -10 43 -22 39 -27 -3 -5 -2 -9 3 -10 29 -2 47 -9 53 -19 4 -7 10 -10 13 -8 4 1 16 -5 27 -14 11 -10 26 -18 34 -18 7 0 25 -9 40 -21 15 -11 32 -22 39 -24 37 -9 57 -18 57 -26 0 -5 14 -9 30 -9 17 0 30 -5 30 -11 0 -6 6 -9 13 -6 6 2 26 0 42 -5 43 -14 78 -17 182 -18 109 -1 163 5 262 30 41 11 78 17 83 14 4 -3 8 -1 8 4 0 5 6 9 13 10 11 0 80 24 117 39 8 3 18 5 23 5 4 -1 7 3 7 9 0 5 5 7 10 4 6 -3 10 -1 10 4 0 6 3 10 8 9 4 -1 33 10 64 25 31 15 64 27 72 27 9 0 16 5 16 10 0 6 7 10 16 10 9 0 31 9 49 20 17 11 40 21 51 23 11 1 30 10 44 20 13 9 33 17 44 17 11 0 27 7 37 16 9 8 26 16 38 17 11 1 21 6 21 11 0 5 3 6 7 3 3 -4 11 -2 18 3 6 5 22 12 36 14 13 3 24 5 24 6 0 1 8 3 18 5 10 2 26 7 35 11 9 4 28 9 41 11 14 2 32 8 42 14 10 5 46 11 81 15 35 3 90 9 123 13 59 8 165 7 235 -3 19 -3 51 -7 72 -9 20 -3 42 -8 49 -13 7 -4 24 -9 37 -10 13 -2 30 -8 37 -14 8 -7 19 -9 25 -5 5 3 10 1 10 -6 0 -7 3 -9 7 -6 3 4 12 2 20 -4 7 -6 13 -8 13 -4 0 4 11 0 25 -9 14 -9 25 -14 25 -11 0 3 10 0 23 -7 12 -7 25 -11 30 -10 4 1 7 -2 7 -7 0 -5 13 -11 29 -14 16 -3 57 -20 92 -37 35 -17 71 -33 79 -35 34 -9 86 -31 98 -43 8 -7 18 -10 23 -6 6 3 16 0 24 -6 8 -7 15 -9 15 -5 0 4 7 1 17 -6 9 -8 18 -13 20 -11 8 6 54 1 49 -6 -2 -4 13 -9 35 -9 21 -1 45 -5 52 -10 15 -10 287 -12 293 -2 2 4 27 12 54 19 77 18 105 73 55 106 -23 15 -39 16 -153 6 -128 -12 -242 -8 -275 10 -10 5 -21 7 -24 5 -2 -3 -30 4 -61 15 -31 11 -68 22 -82 25 -13 2 -39 13 -57 24 -18 12 -33 18 -33 14 0 -3 -10 0 -22 7 -13 7 -25 13 -28 13 -3 0 -27 11 -55 24 -27 13 -53 23 -57 23 -5 -1 -8 3 -8 9 0 5 -4 8 -8 5 -5 -3 -22 3 -39 13 -16 10 -44 22 -61 26 -18 3 -32 11 -32 17 0 6 -3 9 -6 5 -4 -3 -23 1 -43 9 -30 13 -58 23 -111 39 -3 1 -12 4 -20 8 -8 3 -37 9 -65 13 -27 4 -57 9 -65 11 -28 8 -255 9 -310 2z"/>
</g>
</svg>
