<?xml version="1.0" standalone="no"?>
<!DOCTYPE svg PUBLIC "-//W3C//DTD SVG 20010904//EN"
 "http://www.w3.org/TR/2001/REC-SVG-20010904/DTD/svg10.dtd">
<svg version="1.0" xmlns="http://www.w3.org/2000/svg"
 width="1024.000000pt" height="1024.000000pt" viewBox="0 0 1024.000000 1024.000000"
 preserveAspectRatio="xMidYMid meet">
<metadata>
Created by potrace 1.16, written by Peter Selinger 2001-2019
</metadata>
<g transform="translate(0.000000,1024.000000) scale(0.100000,-0.100000)"
fill="#000000" stroke="none">
<path d="M7330 7508 c-19 -5 -43 -10 -52 -11 -9 -1 -15 -3 -13 -6 3 -2 -4 -11
-15 -18 -28 -20 -59 -84 -60 -124 0 -19 3 -94 6 -167 l6 -134 -228 3 -229 2
-78 -52 c-43 -28 -83 -49 -89 -45 -7 4 -8 3 -4 -4 8 -13 -440 -316 -466 -314
-10 0 -21 -4 -24 -10 -4 -7 -2 -8 4 -4 7 4 12 5 12 2 0 -12 -542 -366 -551
-360 -5 3 -8 1 -7 -5 3 -11 -850 -584 -869 -584 -7 0 -11 -3 -8 -5 9 -9 -606
-413 -617 -406 -6 4 -8 3 -5 -3 9 -14 -220 -166 -235 -157 -6 4 -8 3 -5 -3 5
-8 -266 -196 -491 -340 -50 -33 -52 -33 -47 -11 15 66 13 105 -6 145 -26 54
-64 81 -131 95 -48 10 -58 9 -103 -12 -28 -13 -53 -22 -57 -22 -5 1 -7 -1 -6
-6 1 -4 -7 -25 -19 -47 -16 -31 -21 -56 -20 -112 1 -39 5 -69 9 -66 4 2 8
-322 8 -721 l0 -725 -155 -3 c-132 -3 -157 -6 -172 -21 -15 -15 -18 -39 -20
-164 -2 -97 2 -153 10 -167 6 -11 10 -24 9 -28 -1 -4 1119 -8 2490 -8 1370 0
2494 -2 2496 -5 6 -6 42 40 42 55 0 6 5 8 13 4 9 -6 9 -5 0 8 -10 12 -13 329
-13 1491 l0 1476 -35 7 c-19 3 -45 4 -57 1 l-23 -6 7 697 c3 383 7 714 7 736
0 47 -18 85 -59 119 -26 22 -92 49 -110 46 -3 -1 -21 -5 -40 -11z m90 -971
l-1 -612 -55 0 -54 0 0 602 c0 569 1 602 18 597 16 -5 16 -5 0 9 -10 8 -18 16
-18 18 0 2 25 2 55 1 l56 -4 -1 -611z m-220 358 l0 -45 -191 0 -192 0 -158
-105 c-88 -58 -161 -105 -164 -105 -3 0 -15 -9 -27 -20 -24 -22 -44 -27 -32
-8 4 7 3 8 -5 4 -6 -4 -9 -11 -6 -16 8 -12 -53 -53 -66 -44 -7 4 -9 3 -6 -3 8
-13 -270 -196 -284 -187 -7 4 -9 3 -6 -3 4 -6 -11 -23 -33 -38 -30 -21 -43
-25 -53 -17 -10 9 -19 7 -35 -4 -21 -14 -22 -41 -1 -28 5 3 7 9 4 14 -3 4 2
10 10 14 8 3 17 1 20 -4 8 -13 -341 -244 -356 -234 -7 4 -10 3 -5 -4 8 -14
-80 -75 -96 -66 -6 4 -9 3 -5 -2 7 -12 -100 -87 -113 -79 -6 4 -9 1 -8 -6 2
-6 -3 -14 -11 -17 -9 -3 -11 0 -6 8 5 9 4 11 -4 6 -6 -4 -9 -11 -6 -15 7 -12
-314 -223 -327 -215 -6 4 -8 3 -5 -3 9 -14 -98 -84 -117 -77 -8 3 -17 1 -21
-5 -3 -7 0 -8 9 -5 31 12 15 -5 -36 -37 -29 -19 -59 -33 -66 -31 -8 2 -11 -1
-8 -6 5 -8 -274 -202 -290 -202 -4 0 1 11 10 25 14 21 14 24 1 19 -8 -4 -16
-12 -16 -20 -1 -8 -2 -18 -3 -24 -2 -15 -45 -42 -56 -35 -6 4 -9 1 -8 -6 2 -6
-3 -14 -10 -16 -8 -3 -10 2 -6 14 5 14 4 15 -4 3 -6 -8 -9 -17 -6 -21 6 -11
-316 -220 -328 -213 -6 4 -8 3 -5 -3 8 -13 -130 -106 -145 -97 -6 4 -8 3 -4
-4 6 -10 -62 -59 -76 -54 -5 1 -8 -2 -8 -7 0 -8 -134 -101 -145 -101 -4 0 -3
5 1 12 4 7 3 8 -5 4 -6 -4 -9 -11 -6 -16 5 -9 -65 -57 -77 -52 -5 1 -8 -2 -8
-7 0 -10 -111 -84 -127 -84 -7 0 -10 -3 -8 -7 3 -5 -78 -62 -89 -61 -3 0 -16
-10 -29 -23 -13 -13 -39 -32 -57 -41 l-33 -17 6 24 c4 12 7 40 7 60 0 33 6 42
48 73 48 35 69 44 56 23 -4 -7 -3 -8 5 -4 6 4 9 11 6 16 -7 12 94 72 107 64 6
-4 8 -3 5 4 -9 13 82 74 96 65 6 -3 7 -1 3 5 -6 11 6 16 26 13 5 0 7 3 5 8 -2
10 692 474 710 474 7 0 11 3 8 5 -8 9 34 34 45 27 6 -4 9 -2 8 4 -4 14 141
112 154 105 6 -4 8 -2 5 3 -7 11 237 176 259 176 7 0 11 3 9 6 -5 8 182 134
200 134 8 0 12 3 10 6 -5 9 247 176 262 175 7 -1 11 2 8 6 -7 11 195 141 207
134 7 -4 8 -2 4 4 -7 11 6 17 27 13 5 -1 6 2 3 7 -7 11 210 156 222 149 4 -3
14 -1 22 5 12 8 12 9 -2 4 -10 -3 -18 -4 -18 -1 0 7 205 138 217 138 7 0 10 3
8 6 -4 8 216 154 232 154 7 0 10 4 7 9 -5 7 10 12 29 9 5 -1 6 2 3 7 -6 10
213 158 231 156 7 -1 11 2 10 7 -1 4 59 49 133 98 l135 91 213 0 212 0 0 -45z
m-20 -165 c-23 -7 -23 -8 -3 -9 l21 -1 1 -395 1 -395 -155 0 -155 0 1 405 0
405 157 -1 c94 -1 147 -4 132 -9z m-403 -54 c0 -8 -6 -12 -12 -10 -6 3 -12 -2
-12 -11 0 -9 6 -14 14 -11 11 4 13 -59 13 -357 l0 -362 -53 3 c-40 3 -58 -1
-76 -15 -23 -19 -24 -25 -25 -169 l-1 -149 -102 -1 -103 -2 0 433 0 432 27 14
c15 8 35 19 43 26 13 10 283 193 286 193 0 0 1 -6 1 -14z m-502 -348 l25 -11
0 -363 0 -363 -79 2 c-44 1 -79 0 -79 -3 1 -3 -4 -18 -10 -33 -7 -17 -12 -84
-12 -167 0 -126 -2 -138 -17 -135 -10 2 -55 4 -101 4 l-83 1 1 430 2 431 161
109 c89 59 163 109 164 109 1 1 14 -4 28 -11z m-465 -304 c0 -8 -3 -13 -7 -11
-5 3 -17 1 -28 -4 -17 -7 -17 -8 8 -8 l27 -1 -1 -72 c-1 -59 -3 -66 -9 -38
l-7 35 -2 -43 c0 -27 3 -41 9 -37 6 4 10 -8 10 -30 0 -22 -4 -34 -10 -30 -5 3
-10 -1 -10 -10 0 -9 5 -13 10 -10 6 4 10 -35 10 -110 0 -75 -4 -114 -10 -110
-5 3 -10 1 -10 -4 0 -6 5 -11 10 -11 6 0 10 -5 10 -11 0 -5 -4 -7 -10 -4 -5 3
-10 1 -10 -4 0 -6 5 -11 10 -11 6 0 10 -19 10 -42 0 -32 -3 -39 -10 -28 -7 11
-10 3 -10 -28 0 -26 4 -41 10 -37 6 4 10 -11 10 -37 0 -31 -3 -39 -10 -28 -8
13 -10 12 -10 -2 0 -10 5 -18 12 -18 9 0 9 -3 1 -11 -6 -6 -34 -11 -63 -11
-42 1 -57 -4 -77 -24 -24 -24 -24 -27 -21 -169 3 -135 -1 -168 -16 -130 -3 8
-11 15 -18 15 -10 0 -10 -2 0 -9 23 -14 -15 -22 -100 -20 l-79 2 3 436 3 436
183 123 c101 67 185 122 188 122 2 0 4 -7 4 -16z m1714 -210 c11 -4 13 -11 7
-22 -8 -18 -6 -154 3 -178 3 -7 2 -15 -2 -18 -9 -6 -8 -138 1 -153 3 -5 6
-414 6 -907 0 -704 -2 -895 -12 -890 -8 5 -7 2 2 -9 8 -10 10 -24 5 -34 -13
-30 -13 -63 -1 -63 8 0 8 -3 2 -8 -11 -8 -14 -83 -2 -75 11 6 9 -45 -3 -68 -6
-10 -7 -19 -2 -19 8 0 7 -21 -3 -75 -4 -20 -11 -20 -587 -18 -321 2 -1277 3
-2125 3 l-1543 0 0 103 0 102 238 3 c208 2 239 4 250 19 8 12 12 62 12 165 l0
148 223 0 c185 0 226 3 245 16 21 14 22 21 22 168 l0 153 247 1 c224 1 249 2
260 18 9 12 13 62 14 163 1 89 4 136 9 121 8 -24 8 -24 9 -2 l1 22 223 1 c122
1 226 1 230 0 5 -1 6 3 3 8 -4 5 -2 12 4 16 6 4 10 65 10 156 l0 149 228 0
c207 0 230 2 245 18 13 14 16 45 18 165 l1 147 221 0 c191 0 223 2 239 17 16
14 18 34 18 170 l0 153 33 0 c18 0 42 -7 53 -15 10 -8 26 -14 34 -14 11 0 10
4 -5 15 -19 15 -18 15 15 12 19 -2 43 -11 53 -21 10 -10 23 -15 28 -11 14 9
-11 25 -26 17 -5 -4 -6 -2 -2 3 5 5 72 9 149 9 184 0 178 -6 179 189 1 77 1
144 0 148 -1 9 751 10 773 2z m-2214 -498 l0 -393 -52 5 c-29 2 -62 9 -73 13
-17 8 -18 8 -3 -3 15 -11 14 -13 -8 -31 -23 -18 -24 -23 -24 -155 0 -92 -3
-132 -10 -122 -8 13 -10 13 -10 -2 0 -9 6 -19 13 -21 6 -3 -40 -5 -103 -5 -63
0 -107 2 -98 5 10 3 15 10 11 19 -5 13 -7 13 -14 2 -9 -14 -12 784 -3 817 6
25 101 88 116 79 6 -4 8 -3 5 3 -9 14 99 86 115 77 7 -4 8 -3 4 4 -8 14 98 87
114 77 6 -3 10 -3 9 2 -2 13 1 23 6 23 3 0 5 -177 5 -394z m-498 47 c-4 -10
-7 -186 -7 -390 l1 -373 -46 0 c-59 0 -87 -8 -95 -28 -3 -9 -6 -80 -6 -159 l1
-143 -115 0 -114 0 2 428 c2 348 4 426 15 424 8 -1 11 2 8 6 -8 13 162 124
176 116 6 -4 8 -3 5 3 -9 14 40 46 55 37 6 -4 8 -3 5 3 -4 6 21 29 55 52 69
47 72 47 60 24z m-492 -703 l0 -390 -64 0 c-101 0 -109 -11 -113 -151 -4 -156
-4 -157 -1 -170 2 -9 -23 -13 -92 -13 l-95 -1 -3 432 -2 432 32 25 c32 23 330
225 336 226 1 0 2 -175 2 -390z m-482 -520 l-3 -202 -73 -2 c-106 -3 -106 -3
-112 -190 l-5 -153 -185 1 -185 1 0 379 0 379 220 148 c121 81 226 146 233
144 7 -3 10 0 7 5 -3 5 18 25 47 44 l53 34 3 -194 c1 -106 1 -283 0 -394z
m-688 -180 l0 -678 -50 -4 -49 -3 -1 681 0 682 50 0 50 0 0 -678z m4017 -800
l363 0 -1 -47 c0 -27 2 -60 4 -75 3 -17 -1 -29 -10 -32 -27 -11 -1112 -6
-1118 4 -3 5 -12 10 -18 10 -7 0 -6 -4 3 -10 10 -6 -658 -9 -1830 -10 l-1845
0 2 68 c1 37 2 74 2 82 1 13 234 15 2043 12 1124 -1 2206 -2 2405 -2z"/>
</g>
</svg>
