<?xml version="1.0" standalone="no"?>
<!DOCTYPE svg PUBLIC "-//W3C//DTD SVG 20010904//EN" "http://www.w3.org/TR/2001/REC-SVG-20010904/DTD/svg10.dtd">
<svg xmlns="http://www.w3.org/2000/svg" version="1.0" width="1024.000000pt" height="1024.000000pt" viewBox="0 0 1024.000000 1024.000000" preserveAspectRatio="xMidYMid meet">
<metadata>
Created by potrace 1.16, written by Peter Selinger 2001-2019
<meta name="Producer" content="Online-Convert"/></metadata>
<g transform="translate(0.000000,1024.000000) scale(0.100000,-0.100000)" fill="#000000" stroke="none">
<path d="M5380 8630 c22 -7 20 -8 -15 -9 -46 -1 -185 -25 -230 -39 -118 -38 -179 -53 -196 -49 -10 3 -17 1 -14 -3 3 -5 -12 -14 -32 -20 -21 -7 -43 -17 -49 -22 -7 -5 -25 -10 -42 -11 -16 -1 -28 -5 -26 -8 5 -9 -157 -79 -169 -72 -5 3 -7 2 -4 -4 3 -5 -6 -16 -21 -25 -15 -8 -72 -42 -127 -74 -55 -32 -107 -59 -115 -59 -8 0 -15 -5 -15 -12 0 -17 -84 -75 -97 -67 -6 4 -8 3 -4 -4 8 -13 -81 -78 -103 -74 -11 2 -12 0 -4 -5 9 -6 -3 -22 -38 -52 -40 -34 -53 -40 -64 -31 -12 10 -13 8 -10 -8 3 -15 -18 -42 -78 -99 -108 -103 -225 -232 -306 -338 -17 -22 -40 -51 -51 -65 -11 -14 -20 -28 -20 -32 0 -5 -5 -8 -11 -8 -5 0 -8 4 -5 8 2 4 0 14 -5 22 -7 11 -8 6 -4 -15 3 -22 -4 -42 -32 -82 -20 -29 -40 -50 -46 -46 -6 3 -7 2 -4 -4 9 -14 -31 -75 -45 -67 -6 4 -8 3 -4 -4 9 -14 -33 -84 -47 -75 -5 3 -7 1 -3 -5 8 -13 -33 -84 -44 -77 -5 3 -12 0 -16 -6 -4 -8 -3 -9 4 -5 19 11 14 -2 -24 -70 -20 -35 -40 -62 -44 -59 -5 3 -12 0 -16 -6 -4 -8 -3 -9 4 -5 7 4 12 5 12 3 0 -3 -35 -79 -78 -168 -44 -90 -98 -212 -122 -271 -24 -59 -48 -104 -53 -101 -6 3 -7 1 -3 -6 11 -16 -23 -113 -36 -105 -7 4 -8 2 -4 -4 4 -7 -4 -45 -17 -85 -13 -39 -35 -107 -48 -149 -12 -42 -25 -75 -29 -73 -3 2 -6 -11 -6 -28 -1 -17 -6 -33 -12 -35 -6 -2 -9 -9 -6 -16 3 -7 -9 -69 -26 -137 -33 -131 -38 -155 -39 -179 -1 -13 -2 -13 -11 0 -8 13 -10 12 -10 -2 0 -10 4 -18 9 -18 6 0 6 -12 2 -28 -5 -15 -14 -66 -21 -114 -8 -52 -17 -85 -24 -84 -6 2 -8 1 -3 -1 11 -7 9 -83 -3 -83 -5 0 -7 -6 -4 -14 3 -8 1 -57 -5 -110 -13 -116 -33 -404 -32 -466 1 -25 4 -97 8 -160 5 -63 8 -163 8 -222 0 -58 3 -101 7 -95 4 7 8 -8 8 -33 0 -31 -3 -41 -9 -30 -6 8 -7 18 -4 24 3 5 2 6 -4 3 -7 -4 -7 -18 1 -42 8 -27 12 -31 18 -17 5 13 7 12 7 -8 1 -30 35 -232 51 -308 7 -29 8 -61 4 -70 -10 -23 -11 -72 -1 -72 4 0 7 15 7 33 1 27 2 29 11 14 6 -10 9 -27 6 -38 -3 -10 0 -19 5 -19 6 0 8 -13 5 -32 -3 -18 -3 -27 0 -19 8 19 44 -99 38 -124 -3 -11 -2 -14 1 -7 3 7 23 -35 44 -95 21 -59 41 -117 46 -127 5 -14 4 -17 -4 -12 -7 4 -12 2 -12 -3 0 -6 6 -11 14 -11 17 0 30 -35 20 -52 -4 -7 -4 -10 1 -6 11 11 66 -107 59 -127 -4 -9 -2 -15 4 -13 14 4 103 -172 95 -186 -3 -6 -2 -8 2 -3 12 10 88 -110 79 -126 -4 -6 -4 -9 1 -5 11 10 57 -53 51 -69 -3 -7 4 -19 14 -26 11 -8 17 -17 12 -22 -4 -5 -2 -5 4 -2 14 8 97 -97 86 -108 -4 -4 -2 -5 5 -3 6 2 46 -35 88 -82 43 -47 94 -100 114 -117 24 -22 30 -31 16 -27 -16 5 -17 4 -5 -4 8 -6 17 -9 20 -7 4 2 40 -24 81 -57 41 -33 91 -72 111 -85 23 -15 35 -30 31 -39 -3 -8 0 -14 7 -14 6 0 8 5 5 10 -10 17 1 12 69 -31 36 -23 64 -44 62 -48 -3 -4 0 -13 6 -21 8 -12 9 -12 4 3 -6 20 19 24 31 5 4 -7 15 -14 23 -15 8 -1 56 -20 107 -42 114 -50 244 -84 426 -112 119 -18 167 -20 302 -15 229 9 256 13 482 70 137 35 383 145 540 243 40 24 77 42 83 38 6 -4 9 -2 8 3 -4 15 81 74 94 66 6 -4 8 -3 5 3 -7 12 77 76 87 66 3 -3 6 -1 6 5 0 6 51 54 113 106 106 89 252 230 332 323 21 24 41 40 46 37 5 -3 8 -1 7 4 -2 5 38 60 87 123 83 104 124 158 196 259 62 87 188 301 289 493 19 36 38 63 42 61 4 -3 5 1 3 8 -7 18 90 230 100 220 5 -4 5 -2 1 5 -3 6 5 42 20 80 82 213 188 579 209 726 4 26 12 47 17 47 6 0 8 6 5 14 -3 7 3 73 13 146 21 150 36 336 40 522 2 66 4 76 19 71 10 -3 12 -2 4 4 -17 12 -22 58 -28 261 -3 101 -8 200 -10 220 -3 21 -12 98 -22 172 -9 74 -17 149 -19 165 -1 17 -5 38 -9 48 -4 9 -5 26 -2 37 3 11 1 18 -3 15 -5 -3 -12 11 -16 32 -10 56 -42 191 -47 200 -8 12 -20 84 -21 120 -1 17 -4 29 -7 27 -11 -6 -60 163 -53 183 4 12 3 14 -3 6 -6 -9 -12 -4 -20 17 -9 25 -9 32 4 39 11 6 12 10 4 15 -6 4 -11 2 -11 -5 0 -24 -16 5 -39 68 -13 34 -20 67 -16 73 3 6 1 9 -6 8 -7 -2 -17 11 -22 27 -6 17 -46 104 -91 195 -44 91 -80 168 -78 173 1 4 -2 7 -8 7 -13 0 -42 58 -35 71 4 5 3 8 -2 7 -4 -2 -9 1 -10 6 -1 5 -6 12 -11 15 -6 3 -36 44 -68 91 -31 47 -79 112 -105 144 -26 33 -45 64 -42 69 3 6 1 7 -5 3 -13 -8 -59 50 -54 68 2 6 0 8 -4 3 -10 -9 -85 63 -78 75 3 5 1 7 -4 6 -5 -2 -37 22 -72 52 -34 30 -69 59 -77 64 -13 7 -13 10 -2 18 11 8 10 9 -3 4 -10 -3 -30 5 -47 19 -16 14 -68 49 -115 79 -47 29 -82 57 -78 61 4 5 2 5 -5 2 -6 -4 -19 -4 -28 -1 -13 6 -14 9 -3 16 10 8 9 9 -4 4 -9 -3 -54 11 -100 31 -46 19 -92 39 -103 44 -26 11 -122 37 -160 44 -88 15 -118 24 -127 39 -6 8 -8 7 -8 -1 0 -8 -14 -13 -35 -13 -19 0 -35 3 -35 8 0 11 -294 9 -302 -3 -5 -6 -12 -5 -20 3 -6 6 -21 12 -32 11 -18 -1 -17 -2 4 -9z m402 -177 c26 -3 46 -9 43 -12 -2 -4 10 -5 27 -3 19 3 33 -1 39 -9 6 -10 9 -10 9 -2 0 9 6 10 23 4 12 -5 58 -21 102 -34 108 -34 240 -98 223 -108 -9 -6 -4 -8 12 -7 31 2 151 -70 158 -94 2 -10 8 -15 13 -12 13 8 60 -27 52 -40 -3 -6 -3 -8 2 -4 10 10 67 -31 59 -43 -3 -5 0 -8 7 -7 7 2 13 -3 14 -11 0 -8 7 -15 15 -16 22 -4 92 -73 85 -85 -3 -5 0 -8 7 -6 19 7 75 -63 59 -74 -9 -5 -9 -10 -3 -14 6 -3 12 -1 14 5 2 6 21 -9 41 -35 21 -25 35 -51 32 -56 -4 -6 -1 -9 7 -8 7 2 12 -3 10 -10 -1 -8 2 -11 7 -8 8 5 54 -60 53 -74 0 -3 7 -9 15 -14 15 -8 14 -10 -3 -23 -18 -14 -18 -15 5 -8 20 6 23 4 18 -9 -4 -10 -1 -16 6 -16 17 0 60 -76 52 -90 -4 -6 -1 -9 7 -8 7 2 12 -5 12 -14 -1 -10 2 -16 5 -13 11 6 45 -65 45 -92 0 -12 4 -21 9 -20 15 3 67 -106 61 -128 -4 -14 -3 -16 4 -7 8 11 10 11 15 -2 4 -9 -1 -16 -11 -19 -14 -4 -13 -5 3 -6 15 -1 29 -22 58 -90 39 -94 43 -111 27 -111 -6 0 -5 -8 2 -19 7 -11 15 -18 18 -16 11 7 122 -350 144 -460 3 -16 8 -41 12 -55 4 -20 3 -22 -5 -10 -9 12 -11 12 -11 1 0 -8 7 -19 15 -25 8 -6 17 -29 19 -51 2 -22 6 -47 9 -55 10 -28 39 -224 42 -285 2 -33 6 -67 9 -75 7 -19 24 -303 19 -310 -2 -2 -8 2 -13 10 -7 11 -9 10 -8 -7 1 -12 7 -19 15 -16 10 4 12 -11 9 -71 -3 -42 -8 -81 -12 -88 -4 -7 -3 -8 4 -4 16 10 15 -3 -3 -38 -14 -26 -14 -28 2 -15 15 13 16 11 10 -26 -4 -22 -7 -66 -7 -97 0 -32 -3 -57 -7 -57 -27 4 -35 -1 -23 -16 7 -8 16 -12 21 -9 5 3 9 -2 9 -11 0 -19 -20 -15 -150 32 -178 65 -195 72 -304 123 -84 40 -106 54 -95 62 11 8 11 9 -4 4 -20 -6 -69 13 -61 25 3 5 -1 6 -8 4 -15 -6 -250 140 -298 185 -16 15 -30 26 -30 23 0 -2 -17 9 -37 26 -71 57 -108 93 -105 103 1 5 -1 7 -6 4 -9 -5 -89 71 -84 79 1 3 0 4 -2 3 -11 -6 -76 68 -71 80 2 7 1 11 -4 8 -11 -7 -113 109 -104 118 3 3 1 6 -5 6 -14 0 -135 167 -128 178 2 4 0 14 -6 22 -8 12 -9 12 -4 -2 9 -28 0 -21 -24 17 -12 19 -18 40 -14 46 4 7 3 9 -3 6 -14 -9 -46 40 -37 55 4 6 3 8 -2 5 -13 -8 -217 350 -208 365 4 6 3 8 -3 5 -5 -3 -20 13 -33 36 -12 23 -45 79 -72 124 -30 48 -47 87 -42 94 4 8 3 10 -4 5 -11 -7 -45 46 -37 58 3 3 2 4 -2 1 -10 -8 -95 124 -87 137 4 6 3 8 -3 5 -6 -4 -23 12 -38 36 -115 175 -346 459 -488 600 -59 58 -95 102 -91 109 4 6 3 8 -3 5 -13 -8 -79 51 -75 66 2 7 0 9 -4 5 -10 -11 -35 12 -27 26 3 6 3 8 -2 4 -10 -10 -67 31 -59 43 3 5 0 8 -8 7 -7 -2 -12 3 -10 10 1 8 -2 11 -7 8 -5 -4 -12 -2 -15 3 -3 5 25 25 63 45 74 39 86 43 75 24 -4 -7 -3 -8 5 -4 6 4 9 11 6 16 -6 10 54 32 66 24 5 -3 8 0 7 7 -2 7 13 18 32 25 19 7 78 28 132 47 73 27 99 32 108 23 10 -8 11 -8 6 2 -4 6 -5 12 -2 12 2 0 56 11 118 25 63 13 150 29 194 34 77 10 292 6 386 -6z m-1308 -400 c17 -14 30 -31 28 -37 -2 -6 0 -8 3 -4 10 10 75 -41 72 -55 -1 -7 3 -11 9 -10 6 1 53 -39 105 -88 52 -50 88 -88 82 -84 -7 3 -13 1 -13 -4 0 -6 8 -11 18 -11 10 0 31 -13 45 -30 15 -16 26 -30 24 -30 -2 0 17 -21 43 -48 84 -87 200 -234 193 -245 -3 -5 -2 -7 4 -4 9 6 34 -22 58 -63 8 -13 7 -13 -10 0 -11 8 4 -9 33 -39 32 -32 51 -59 48 -68 -3 -8 -2 -12 3 -9 13 9 34 -21 25 -36 -4 -7 -4 -10 1 -6 11 10 58 -59 50 -72 -4 -6 -3 -9 2 -8 4 2 8 -2 8 -7 0 -5 -3 -9 -7 -8 -5 2 -8 -2 -8 -8 0 -6 8 -9 19 -6 14 3 17 0 14 -14 -3 -11 0 -19 6 -19 7 0 9 5 5 12 -4 7 -3 8 5 4 15 -9 42 -62 36 -70 -3 -3 -2 -4 2 -1 10 8 35 -34 27 -48 -4 -6 -3 -9 1 -5 10 10 68 -89 60 -102 -3 -5 0 -12 6 -16 8 -4 9 -3 5 4 -4 7 -5 12 -2 12 3 0 23 -31 45 -68 27 -46 38 -76 34 -90 -3 -13 -1 -22 6 -22 7 0 9 6 6 13 -4 6 1 3 10 -8 10 -11 31 -49 48 -85 17 -36 33 -67 37 -70 19 -15 50 -81 44 -92 -4 -7 -3 -10 1 -5 13 11 66 -75 59 -98 -4 -16 -3 -17 5 -5 10 13 15 8 12 -12 0 -5 3 -8 9 -8 5 0 6 -7 3 -17 -4 -10 -2 -14 4 -10 13 8 136 -169 128 -183 -3 -5 -1 -11 5 -15 6 -4 8 -10 5 -15 -3 -5 0 -12 6 -16 8 -4 9 -3 5 4 -10 17 9 15 23 -1 6 -8 7 -18 3 -22 -4 -5 -2 -5 4 -2 7 4 20 -5 29 -19 11 -17 12 -23 4 -18 -7 4 8 -13 35 -38 32 -31 45 -51 40 -60 -4 -7 -3 -10 1 -5 11 9 46 -23 39 -35 -3 -4 -2 -7 3 -6 12 4 199 -182 195 -194 -1 -5 2 -7 8 -3 11 7 155 -110 155 -127 0 -6 6 -13 14 -16 9 -3 11 0 7 9 -4 8 -1 5 8 -5 8 -10 13 -23 9 -29 -3 -6 -1 -7 6 -3 6 4 9 12 5 17 -3 6 30 -14 74 -43 51 -34 75 -56 68 -61 -7 -6 -4 -7 7 -3 21 7 61 -17 49 -29 -4 -5 -2 -5 5 -2 14 9 96 -37 86 -48 -5 -4 -3 -5 4 -1 7 4 26 0 43 -9 26 -13 29 -19 19 -31 -7 -9 -8 -14 -1 -14 6 0 12 5 14 10 2 6 19 4 45 -6 23 -9 40 -21 36 -27 -3 -6 -1 -7 5 -3 13 8 63 -14 57 -25 -3 -4 0 -11 6 -15 8 -4 9 -3 5 4 -9 15 -7 15 32 1 18 -6 29 -16 25 -22 -3 -5 -1 -7 4 -4 15 9 236 -77 226 -88 -4 -4 -3 -5 4 -1 17 9 104 -14 110 -30 7 -19 -14 -168 -43 -309 -14 -66 -28 -135 -31 -152 -3 -18 -10 -33 -15 -33 -5 0 -7 -4 -4 -9 19 -31 -193 -649 -217 -634 -6 3 -7 1 -3 -6 10 -16 -3 -53 -16 -45 -6 4 -8 2 -5 -4 10 -15 -62 -164 -75 -156 -6 4 -8 2 -4 -4 3 -6 1 -22 -5 -36 -10 -22 -15 -24 -27 -13 -13 10 -14 9 -4 -10 26 -48 10 -34 -26 22 -68 110 -119 179 -195 266 -42 48 -73 90 -69 94 4 5 2 6 -3 2 -13 -7 -97 68 -87 78 4 4 2 5 -4 3 -14 -4 -84 58 -76 68 4 4 2 5 -3 1 -6 -3 -52 27 -102 66 -50 40 -150 112 -222 161 -71 49 -127 94 -124 99 3 6 1 7 -5 3 -19 -11 -102 51 -96 72 5 13 4 14 -4 3 -6 -8 -15 -10 -23 -5 -18 10 -122 87 -129 94 -3 4 -22 19 -42 34 -21 16 -35 33 -31 39 3 5 1 7 -5 3 -6 -3 -57 34 -114 82 -110 95 -136 121 -137 137 -1 6 -5 10 -11 10 -17 0 -70 56 -63 67 3 6 1 8 -4 5 -14 -9 -96 80 -87 95 4 6 3 8 -3 5 -12 -7 -58 45 -172 192 -58 73 -70 96 -60 103 11 8 10 9 -3 5 -11 -4 -25 7 -43 35 -15 23 -28 47 -29 54 -1 7 -6 17 -11 21 -4 4 -5 2 0 -6 6 -10 4 -12 -4 -7 -7 5 -10 15 -7 23 3 8 2 11 -4 8 -12 -7 -33 32 -24 47 4 6 3 8 -3 5 -14 -9 -37 19 -27 34 5 8 3 9 -6 4 -10 -6 -12 -4 -7 9 4 9 3 15 -2 11 -12 -7 -73 93 -65 107 4 7 3 8 -4 4 -13 -8 -31 23 -24 43 3 9 0 11 -8 6 -10 -6 -12 -4 -7 9 4 9 3 15 -2 12 -5 -4 -24 20 -42 51 -51 91 -65 115 -88 155 -13 21 -19 43 -15 49 4 7 3 9 -3 6 -14 -9 -56 61 -47 76 4 7 4 9 -1 5 -4 -4 -38 42 -76 103 -86 138 -169 256 -235 334 -28 33 -48 67 -46 74 3 8 0 11 -6 7 -12 -7 -78 71 -74 87 2 7 0 9 -4 4 -10 -10 -65 43 -57 56 3 6 1 7 -4 4 -6 -4 -36 16 -68 44 -73 64 -144 116 -217 159 -39 23 -55 38 -51 49 4 12 3 13 -4 3 -11 -15 -46 -5 -36 11 3 5 2 7 -4 4 -6 -4 -40 6 -78 22 -37 16 -61 31 -54 34 8 2 0 4 -18 3 -18 0 -31 4 -30 9 1 6 6 9 10 7 5 -1 6 2 2 7 -6 10 79 140 143 219 30 36 37 40 51 30 14 -12 14 -11 2 4 -11 15 -7 24 34 73 26 30 52 52 58 48 6 -3 7 -1 3 5 -4 6 16 36 43 66 29 32 52 50 55 43 2 -7 5 -4 5 6 1 19 127 144 146 145 5 0 12 7 15 15 3 9 37 40 75 71 39 31 75 60 81 65 61 50 122 91 133 91 7 0 27 -12 45 -27z m-954 -1028 c14 -4 62 -23 107 -42 64 -27 81 -38 76 -51 -3 -12 -2 -13 4 -4 7 10 16 9 41 -4 18 -8 29 -20 26 -25 -3 -6 1 -9 10 -7 18 3 167 -103 159 -114 -2 -5 2 -8 9 -8 19 0 221 -208 213 -220 -3 -5 1 -10 9 -10 16 0 39 -33 30 -43 -3 -3 0 -8 7 -13 8 -4 10 -3 5 4 -4 7 -5 12 -2 12 13 0 126 -171 120 -181 -4 -7 -3 -9 4 -5 16 10 27 -15 11 -26 -11 -8 -11 -9 3 -5 22 8 30 -3 15 -21 -10 -13 -9 -14 1 -8 14 8 44 -23 36 -36 -3 -5 -1 -8 5 -8 15 0 53 -68 45 -81 -4 -8 -3 -9 4 -5 14 8 46 -50 36 -66 -4 -7 -3 -8 4 -4 14 8 36 -30 26 -46 -4 -6 -3 -8 3 -5 13 8 127 -189 118 -203 -4 -6 -2 -9 4 -8 13 4 93 -131 85 -143 -3 -5 -1 -8 5 -7 5 2 31 -30 56 -71 35 -57 43 -76 33 -84 -10 -6 -9 -7 4 -4 16 6 20 1 65 -70 17 -27 17 -27 0 -14 -15 12 -17 12 -11 -3 3 -9 12 -16 19 -16 18 0 118 -138 110 -151 -4 -5 -2 -8 3 -7 15 4 174 -191 166 -204 -4 -6 -3 -8 3 -5 5 3 59 -46 118 -110 60 -64 143 -145 185 -181 41 -35 73 -69 72 -76 -2 -6 0 -8 3 -4 11 10 76 -42 68 -55 -3 -5 -2 -7 4 -4 14 9 55 -22 47 -36 -4 -7 -4 -9 1 -5 11 10 47 -11 40 -23 -4 -5 -2 -8 3 -7 13 4 122 -75 122 -89 0 -6 5 -15 12 -19 7 -4 8 -3 4 4 -4 7 -4 12 -1 12 7 0 96 -59 105 -69 3 -3 17 -12 32 -20 15 -8 24 -19 21 -25 -3 -6 -3 -8 2 -4 7 7 155 -87 155 -98 0 -3 -4 -3 -9 0 -5 4 -7 -3 -4 -13 3 -12 11 -17 19 -14 8 3 11 10 7 16 -4 6 -1 7 6 3 7 -5 10 -15 6 -23 -4 -13 -3 -14 9 -4 11 10 17 7 30 -11 9 -12 16 -19 16 -15 0 12 135 -93 135 -106 1 -7 6 -11 13 -9 22 4 245 -205 235 -221 -3 -6 -2 -7 3 -4 23 14 187 -215 178 -248 -4 -15 -3 -16 4 -6 8 11 15 5 34 -25 45 -70 53 -105 34 -142 -9 -18 -21 -30 -26 -27 -6 4 -7 -1 -3 -11 4 -11 3 -15 -5 -10 -6 3 -14 1 -18 -5 -4 -8 -3 -9 4 -5 19 12 14 -3 -18 -51 -16 -24 -30 -47 -30 -50 0 -16 -53 -73 -62 -67 -7 4 -8 2 -4 -5 9 -14 -12 -43 -24 -36 -5 3 -12 0 -16 -6 -5 -8 -3 -9 6 -4 8 5 11 3 8 -6 -3 -8 -11 -13 -17 -11 -7 1 -10 -2 -6 -7 8 -14 -105 -162 -118 -154 -5 3 -7 1 -3 -5 8 -13 -31 -57 -229 -260 -148 -151 -218 -211 -238 -204 -5 1 -6 -2 -3 -7 8 -13 -21 -34 -35 -25 -7 4 -9 3 -5 -4 6 -9 -54 -66 -62 -58 -1 2 -13 32 -26 67 -13 35 -33 85 -46 111 -12 26 -18 52 -14 59 4 7 3 9 -4 5 -10 -6 -67 84 -63 99 1 4 -5 12 -15 19 -9 7 -14 18 -10 25 4 6 3 10 -2 9 -13 -4 -64 71 -57 82 3 5 0 12 -6 16 -8 4 -9 3 -5 -4 4 -7 5 -12 3 -12 -2 0 -19 21 -37 48 -19 26 -53 69 -77 96 -24 26 -40 53 -36 59 3 5 1 7 -4 4 -11 -7 -73 56 -73 73 0 6 -7 10 -16 10 -10 0 -14 5 -10 16 4 9 2 12 -5 8 -11 -7 -76 64 -71 79 1 5 -2 6 -7 2 -20 -12 -545 490 -536 513 2 7 0 10 -5 7 -13 -8 -81 66 -73 79 3 5 1 6 -4 3 -13 -8 -85 82 -76 96 3 5 1 7 -5 3 -13 -8 -55 48 -44 59 4 5 2 5 -4 2 -13 -8 -57 50 -49 63 4 6 1 9 -5 8 -22 -5 -263 352 -263 388 0 8 -4 14 -8 14 -14 0 -89 144 -83 160 3 8 2 11 -2 7 -10 -10 -36 31 -28 45 4 6 3 8 -3 5 -12 -8 -46 61 -37 75 4 6 2 8 -3 5 -10 -7 -28 20 -25 36 1 4 -2 7 -7 7 -9 0 -35 54 -31 66 1 4 -3 10 -8 13 -9 5 -48 74 -135 231 -16 30 -38 70 -49 87 -11 18 -16 38 -12 44 4 7 3 9 -3 6 -14 -9 -96 121 -87 135 4 6 3 8 -3 5 -6 -4 -39 35 -75 86 -36 50 -86 116 -111 146 -26 30 -44 58 -41 63 3 5 0 7 -7 6 -7 -2 -22 11 -33 28 -12 17 -36 42 -53 55 -18 13 -33 30 -33 37 0 6 -6 12 -13 12 -16 0 -60 44 -52 52 3 2 -1 5 -7 5 -13 0 -148 90 -159 106 -3 5 -8 7 -11 5 -8 -6 -107 45 -102 53 2 4 -1 11 -7 15 -8 4 -9 3 -5 -4 4 -7 1 -12 -9 -12 -9 0 -14 4 -11 9 3 5 -1 12 -10 15 -8 3 -12 2 -9 -4 3 -6 1 -10 -4 -10 -6 0 -11 5 -11 11 0 5 -5 7 -12 3 -20 -12 -2 46 73 244 90 236 187 442 208 443 10 0 11 3 4 5 -7 3 -9 12 -6 20 3 7 10 11 16 7 6 -3 7 -1 3 5 -4 7 13 49 37 94 69 131 81 148 97 144 8 -3 26 -8 40 -11z m-449 -1137 c69 -28 192 -106 185 -117 -3 -5 2 -8 12 -7 9 0 16 -5 14 -12 -1 -8 1 -11 6 -8 5 3 35 -18 66 -46 43 -39 54 -53 44 -60 -10 -8 -9 -9 3 -5 19 6 73 -48 64 -63 -4 -6 -1 -9 6 -8 7 2 13 -2 14 -9 0 -6 4 -15 9 -20 5 -5 6 -3 2 5 -4 6 -5 12 -3 12 7 0 97 -118 158 -208 51 -75 58 -88 44 -98 -17 -13 -20 -30 -5 -39 5 -3 7 0 4 8 -6 18 11 31 27 21 8 -4 7 -9 -2 -15 -11 -7 -9 -10 7 -15 20 -5 92 -117 87 -136 -2 -4 1 -8 7 -8 5 0 21 -21 34 -47 13 -27 38 -74 55 -105 18 -32 29 -58 25 -58 -4 0 2 -10 13 -22 12 -13 41 -61 66 -108 24 -47 61 -116 81 -155 21 -38 32 -63 24 -55 -17 19 -39 24 -36 8 2 -7 16 -18 31 -23 21 -8 39 -31 68 -83 22 -40 37 -77 34 -83 -4 -5 -1 -8 6 -7 6 2 16 -12 21 -30 5 -18 13 -30 18 -27 14 9 12 -8 -2 -25 -11 -12 -10 -12 3 -2 14 10 22 4 53 -43 20 -30 32 -55 26 -55 -5 0 -10 -4 -10 -10 0 -5 6 -7 14 -4 14 6 40 -27 31 -40 -3 -3 -2 -4 2 -1 10 8 55 -64 47 -77 -4 -6 -3 -8 3 -5 6 4 37 -28 69 -70 33 -42 74 -94 92 -116 17 -21 29 -44 25 -49 -3 -6 -1 -8 5 -5 12 8 65 -51 56 -64 -3 -5 1 -9 9 -9 17 0 58 -46 54 -63 -1 -6 3 -11 9 -10 16 3 74 -63 75 -84 0 -12 2 -14 6 -4 4 9 30 -11 79 -60 40 -40 71 -76 68 -81 -3 -4 1 -8 9 -8 20 0 228 -190 220 -202 -3 -7 -1 -8 5 -4 7 4 19 -6 31 -24 10 -17 23 -32 27 -32 20 -1 34 -11 28 -19 -3 -5 0 -9 5 -9 16 0 101 -91 95 -101 -3 -5 1 -9 9 -9 19 0 130 -117 122 -130 -3 -5 -1 -10 5 -10 12 0 28 -15 45 -42 6 -8 38 -56 72 -105 84 -123 163 -282 192 -387 12 -45 5 -58 -42 -83 -25 -12 -31 -13 -39 -1 -7 10 -8 8 -6 -6 2 -14 -13 -28 -61 -54 -61 -34 -64 -35 -77 -17 -8 10 -14 14 -14 9 0 -6 5 -15 10 -20 13 -13 -54 -47 -227 -114 -45 -18 -90 -30 -98 -26 -9 3 -14 2 -11 -3 5 -8 -43 -24 -109 -37 -11 -2 -42 -8 -70 -14 -90 -18 -118 -21 -288 -24 -149 -3 -337 11 -364 27 -4 3 -26 8 -48 11 -55 9 -149 39 -220 71 -33 14 -62 26 -65 27 -3 0 -11 3 -18 6 -11 4 -11 6 0 14 9 7 7 8 -8 3 -25 -6 -156 63 -147 78 3 6 1 7 -4 4 -10 -6 -108 53 -162 98 -72 59 -190 167 -221 201 -83 91 -119 138 -114 146 3 5 1 7 -4 6 -11 -3 -108 127 -143 193 -13 24 -27 46 -30 49 -3 3 -25 39 -48 80 -37 65 -41 78 -30 95 11 17 10 18 -3 7 -13 -10 -21 1 -58 80 -77 166 -176 448 -165 475 2 8 1 12 -3 9 -5 -3 -17 27 -27 66 -13 53 -15 73 -7 76 7 2 12 8 12 13 0 4 -6 6 -14 3 -9 -4 -16 7 -21 33 -5 21 -9 43 -10 48 -5 21 -44 263 -54 335 -16 110 -27 335 -25 495 1 116 13 341 19 380 1 6 3 29 3 53 1 29 6 41 13 36 8 -4 8 -1 1 13 -7 12 -8 34 -2 59 4 21 11 65 15 97 4 37 10 55 17 51 7 -4 8 -2 4 5 -13 21 32 270 86 469 26 93 27 94 109 60z"/>
</g>
</svg>
