<?xml version="1.0" standalone="no"?>
<!DOCTYPE svg PUBLIC "-//W3C//DTD SVG 20010904//EN"
 "http://www.w3.org/TR/2001/REC-SVG-20010904/DTD/svg10.dtd">
<svg version="1.0" xmlns="http://www.w3.org/2000/svg"
 width="1024.000000pt" height="1024.000000pt" viewBox="0 0 1024.000000 1024.000000"
 preserveAspectRatio="xMidYMid meet">
<metadata>
Created by potrace 1.16, written by Peter Selinger 2001-2019
</metadata>
<g transform="translate(0.000000,1024.000000) scale(0.100000,-0.100000)"
fill="#000000" stroke="none">
<path d="M4920 8270 c-269 -38 -512 -122 -729 -253 -51 -31 -98 -54 -104 -50
-5 3 -7 2 -4 -4 8 -13 -50 -56 -65 -47 -6 4 -8 3 -5 -3 8 -12 -65 -73 -88 -73
-9 0 -14 -4 -11 -9 7 -10 -79 -83 -87 -75 -10 10 -45 -6 -52 -23 -5 -15 -4
-15 13 0 33 30 47 19 17 -13 -22 -23 -31 -27 -38 -18 -6 9 -7 8 -4 -4 6 -18
-15 -42 -27 -30 -4 4 -6 2 -4 -3 4 -14 -93 -126 -104 -119 -5 3 -7 0 -6 -8 2
-7 -3 -12 -10 -10 -7 1 -12 -3 -10 -10 4 -19 -134 -198 -152 -198 -10 0 -11
-3 -4 -8 8 -5 -2 -28 -29 -70 -30 -48 -42 -60 -49 -50 -7 9 -8 8 -4 -5 6 -20
-66 -161 -77 -152 -4 3 -5 2 -2 -1 4 -6 -62 -144 -74 -154 -3 -3 -7 -12 -9
-20 -2 -8 -25 -67 -52 -130 -26 -63 -58 -144 -71 -180 -13 -36 -25 -67 -28
-70 -3 -3 -6 -9 -6 -15 0 -5 -16 -63 -35 -127 -22 -78 -37 -114 -43 -105 -5 8
-7 3 -3 -13 6 -29 -69 -373 -76 -350 -3 8 -3 5 -1 -7 2 -12 -3 -66 -11 -120
-8 -54 -21 -155 -27 -225 -7 -71 -16 -128 -20 -128 -5 0 -6 9 -4 20 2 12 -2
20 -10 20 -16 0 -14 -25 3 -42 13 -13 17 -142 5 -135 -5 3 -7 -53 -5 -124 2
-86 0 -129 -7 -129 -7 0 -10 -21 -9 -52 l1 -53 6 50 c5 39 8 16 15 -97 4 -81
5 -151 1 -157 -3 -6 -1 -11 4 -11 7 0 11 -22 10 -52 -1 -42 -3 -48 -9 -28 -4
14 -9 23 -10 20 -9 -26 -5 -40 11 -45 14 -5 19 -16 19 -43 0 -20 9 -99 20
-175 12 -76 18 -142 15 -147 -3 -4 -1 -10 4 -12 5 -1 11 -23 14 -48 5 -32 4
-38 -2 -20 -7 20 -9 21 -9 5 0 -11 4 -31 8 -45 7 -22 8 -22 10 -5 2 15 4 12
10 -10 4 -16 8 -39 8 -50 l1 -20 -9 20 c-7 16 -9 17 -9 3 -1 -9 5 -21 13 -25
17 -10 59 -178 51 -206 -4 -14 -3 -17 2 -10 6 8 22 -31 46 -108 21 -67 36
-124 33 -127 -4 -3 -6 3 -6 13 0 10 -2 16 -5 13 -3 -3 -2 -20 2 -38 5 -27 8
-30 13 -16 5 14 11 6 27 -35 11 -30 30 -79 42 -109 14 -36 16 -48 6 -36 -14
18 -14 17 -12 -12 2 -30 27 -47 27 -20 0 7 16 -21 35 -62 19 -41 41 -88 50
-103 8 -16 12 -34 8 -39 -3 -6 -2 -8 4 -5 12 8 46 -61 37 -75 -5 -7 -2 -8 6
-3 9 6 10 1 5 -16 -4 -17 -4 -20 3 -10 8 11 16 3 36 -35 14 -27 35 -65 48 -83
12 -19 17 -32 11 -28 -6 4 -14 3 -18 -3 -3 -5 3 -10 13 -10 19 0 48 -34 54
-62 2 -7 8 -17 14 -23 5 -5 30 -37 55 -70 24 -33 67 -89 96 -124 29 -35 50
-69 46 -74 -3 -6 -1 -7 4 -4 13 8 46 -27 36 -38 -5 -4 -3 -5 3 -2 16 9 105
-97 93 -112 -6 -7 -5 -8 2 -2 14 12 91 -47 82 -62 -3 -6 -1 -7 5 -3 6 3 14 2
17 -4 4 -6 48 -42 98 -81 51 -39 92 -76 92 -83 0 -6 8 -10 16 -8 9 1 27 -8 40
-20 14 -13 28 -23 31 -23 4 0 15 -7 25 -15 10 -9 21 -16 26 -18 4 -1 43 -20
87 -42 276 -139 556 -205 838 -198 72 2 132 0 132 -4 0 -5 8 -8 18 -8 14 0 15
2 2 10 -11 7 -7 10 17 10 97 0 351 67 480 126 42 19 83 32 90 29 8 -2 11 0 8
5 -3 6 2 13 12 17 55 21 260 151 310 195 12 12 27 17 34 13 7 -5 10 -4 6 2 -9
14 29 47 44 37 7 -4 10 -3 6 4 -9 13 51 64 65 56 6 -4 8 -3 5 3 -3 5 19 34 49
64 30 30 87 91 126 136 39 45 76 80 81 76 6 -3 7 -2 4 4 -4 6 25 52 63 103 39
52 91 126 116 167 26 40 51 70 57 66 5 -3 7 -1 3 5 -3 6 7 33 23 61 17 28 49
86 71 131 23 44 46 78 51 75 5 -4 6 0 3 8 -3 8 7 39 22 68 62 123 173 434 224
624 102 387 144 729 143 1170 0 532 -58 919 -211 1412 -6 17 -7 34 -4 38 4 3
1 9 -5 13 -18 11 -84 197 -77 218 4 13 3 15 -3 6 -7 -9 -19 8 -41 61 -17 41
-33 81 -34 88 -2 8 -6 16 -9 19 -18 15 -78 151 -73 167 5 14 4 15 -4 4 -8 -11
-13 -7 -26 18 -9 17 -14 37 -10 43 4 6 3 8 -3 5 -14 -9 -44 48 -37 70 4 13 3
14 -3 5 -7 -10 -17 -3 -37 28 -15 22 -24 46 -20 52 4 6 3 8 -3 5 -11 -7 -46
39 -46 60 0 7 -3 11 -5 8 -9 -8 -52 57 -45 69 3 6 3 8 -1 4 -5 -4 -48 41 -96
100 -48 59 -115 134 -148 166 -34 33 -58 64 -55 69 3 6 2 7 -4 4 -14 -9 -95
62 -87 75 4 6 2 8 -4 5 -5 -4 -54 26 -109 67 -54 40 -133 93 -175 118 -43 25
-74 49 -70 53 4 5 2 5 -5 1 -15 -9 -104 35 -96 47 3 6 1 7 -6 3 -16 -10 -53 3
-45 16 4 6 2 8 -3 5 -14 -9 -156 43 -166 60 -4 7 -13 13 -20 13 -7 0 -6 -4 3
-10 20 -13 14 -12 -50 5 -188 52 -496 78 -660 55z m381 -220 c155 -18 445
-103 417 -122 -9 -6 -6 -7 9 -3 22 6 155 -54 198 -90 11 -9 14 -13 6 -9 -9 4
-12 3 -7 -4 4 -6 12 -9 19 -6 7 2 21 -2 32 -10 11 -9 14 -16 8 -16 -7 0 -13
-8 -13 -17 0 -15 1 -15 13 2 13 17 16 16 63 -15 84 -57 124 -91 121 -103 -1
-7 4 -11 12 -9 18 4 52 -28 44 -42 -3 -6 -2 -8 2 -3 11 10 56 -33 48 -46 -3
-6 -1 -7 5 -3 15 9 55 -31 46 -47 -4 -7 -3 -9 1 -4 11 9 66 -43 59 -55 -3 -5
0 -7 8 -6 7 2 12 -3 10 -10 -1 -8 2 -11 7 -7 13 7 30 -25 24 -45 -4 -13 -3
-13 6 0 10 14 16 7 12 -13 -1 -5 3 -6 8 -3 14 9 31 -18 26 -42 -3 -16 1 -22
14 -22 32 0 93 -83 68 -94 -6 -3 -3 -4 8 -3 14 1 20 -4 19 -15 -1 -10 2 -16 6
-13 11 7 50 -62 44 -78 -5 -13 22 -44 35 -41 3 1 23 -30 44 -70 23 -41 30 -61
18 -47 -12 13 -21 19 -21 15 1 -15 27 -44 40 -44 7 0 10 -7 6 -16 -3 -8 -2
-12 4 -9 12 8 43 -52 34 -67 -4 -6 -3 -8 3 -5 6 4 13 -2 16 -13 3 -11 1 -18
-4 -14 -5 3 -6 -2 -3 -10 3 -9 10 -14 14 -11 5 3 6 -5 3 -17 -3 -16 -2 -19 5
-10 6 9 18 -9 40 -62 36 -85 37 -90 20 -80 -7 4 -11 5 -8 1 3 -3 10 -6 15 -8
11 -2 41 -70 75 -173 18 -54 19 -70 10 -82 -11 -12 -10 -13 2 -9 18 7 58 -117
51 -160 -2 -16 0 -41 6 -55 10 -22 10 -19 7 20 -3 25 11 -16 30 -90 19 -74 36
-158 37 -187 1 -28 5 -49 10 -46 4 2 7 0 7 -5 0 -5 9 -68 19 -139 61 -397 60
-851 0 -1268 -12 -77 -25 -145 -30 -151 -5 -6 -6 -13 -3 -16 10 -11 -38 -228
-51 -228 -23 0 -38 -27 -25 -47 10 -16 11 -16 7 4 -3 13 1 24 9 27 18 7 18 5
-11 -99 -77 -268 -214 -623 -236 -609 -5 3 -6 -3 -2 -12 5 -13 3 -15 -7 -9 -8
5 -11 3 -8 -6 9 -25 -111 -246 -126 -232 -4 4 -4 1 -1 -8 3 -8 -5 -26 -17 -39
-13 -14 -21 -25 -19 -25 3 0 -8 -20 -24 -45 -16 -25 -30 -39 -33 -32 -6 19
-18 14 -18 -7 0 -11 5 -17 10 -14 5 4 -8 -18 -30 -48 -67 -94 -119 -158 -127
-159 -5 0 -5 5 -1 12 5 7 3 8 -5 4 -7 -5 -10 -14 -7 -21 6 -15 -67 -88 -78
-78 -4 5 -6 1 -4 -7 2 -8 -3 -14 -10 -12 -8 1 -11 -1 -8 -6 5 -9 -44 -63 -61
-65 -4 -1 -7 -5 -6 -8 1 -3 -14 -21 -32 -39 -19 -19 -35 -30 -35 -26 0 4 -12
-7 -26 -24 -15 -17 -29 -28 -32 -25 -3 2 -11 -3 -18 -14 -14 -19 -148 -110
-229 -156 -97 -54 -222 -104 -246 -98 -17 3 -20 2 -11 -5 25 -17 -257 -82
-363 -83 -38 0 -139 0 -215 0 -19 0 -68 3 -108 6 l-73 7 41 46 c22 26 80 100
129 164 49 64 92 114 96 110 5 -4 5 -2 2 4 -3 6 14 42 39 80 93 142 228 433
292 626 59 178 132 444 132 481 0 11 4 15 12 11 7 -4 8 -3 4 4 -4 6 3 75 14
154 23 154 29 477 11 608 l-9 65 84 125 c46 69 108 177 139 241 65 136 145
375 181 544 76 350 128 532 198 689 39 88 123 230 156 266 16 17 29 34 29 38
1 4 23 36 50 72 58 78 65 102 44 149 -9 20 -15 39 -15 44 1 4 -1 6 -5 5 -13
-2 -43 14 -39 21 2 3 -10 7 -27 7 -25 1 -42 -9 -87 -55 -31 -31 -75 -84 -99
-119 -23 -34 -46 -60 -51 -57 -5 3 -8 -3 -8 -12 1 -10 -17 -47 -39 -83 -56
-91 -99 -178 -148 -299 -23 -57 -45 -98 -47 -90 -3 8 -5 1 -5 -16 0 -16 -18
-100 -40 -185 -23 -85 -57 -229 -77 -320 -42 -192 -93 -360 -108 -357 -6 1
-13 -4 -16 -12 -3 -9 0 -11 8 -6 9 6 10 1 5 -16 -9 -32 -102 -227 -122 -258
-16 -25 -16 -24 -33 40 -10 35 -36 116 -59 179 -24 63 -43 122 -44 130 -1 8
-5 17 -9 20 -6 5 -90 196 -134 304 -13 33 -22 69 -18 80 4 15 3 17 -4 8 -7
-10 -22 21 -51 105 -152 425 -202 855 -146 1243 19 130 36 204 81 346 33 105
34 114 21 146 -31 73 -134 88 -181 25 -70 -93 -156 -501 -156 -740 0 -49 -5
-97 -10 -108 -6 -10 -7 -19 -2 -19 5 0 12 -62 15 -137 3 -76 15 -192 27 -257
11 -66 17 -128 14 -139 -4 -13 -2 -17 5 -13 14 9 15 -28 0 -57 -9 -20 -9 -20
4 -5 12 16 15 12 26 -40 7 -31 42 -144 77 -250 36 -106 61 -198 58 -204 -4 -6
-3 -8 3 -5 5 3 48 -83 96 -196 115 -270 139 -335 132 -361 -4 -14 -3 -17 3 -8
14 21 77 -209 76 -278 -1 -31 2 -47 6 -36 4 13 10 -4 18 -53 17 -101 25 -232
13 -206 -8 16 -10 16 -10 4 -1 -9 6 -22 14 -29 12 -10 15 -39 15 -144 0 -148
-28 -425 -41 -404 -5 7 -6 26 -3 41 4 19 2 27 -6 25 -7 -2 -17 11 -22 27 -6
17 -26 64 -44 106 -19 43 -31 84 -28 93 3 9 1 16 -6 16 -6 0 -8 -6 -5 -12 7
-16 3 -10 -107 156 -48 72 -132 185 -187 250 -55 66 -97 124 -94 129 3 6 2 7
-4 4 -13 -8 -156 149 -163 178 -1 6 -6 9 -10 8 -10 -3 -75 77 -75 92 0 5 -5
10 -12 10 -19 0 -147 158 -136 169 4 3 1 6 -4 6 -15 0 -86 97 -79 108 2 4 0
14 -6 22 -8 12 -9 12 -4 -2 8 -28 1 -22 -28 22 -15 23 -24 46 -20 52 4 6 3 8
-3 5 -15 -9 -105 156 -97 179 4 13 3 15 -3 6 -12 -17 -85 130 -77 155 4 13 3
15 -4 5 -7 -10 -16 4 -36 53 -14 36 -23 71 -20 77 4 6 3 8 -3 5 -12 -8 -91
221 -97 283 -1 9 -5 20 -8 26 -4 5 -12 41 -19 80 -6 38 -18 81 -25 96 -50 98
-194 66 -194 -42 0 -55 32 -211 68 -332 16 -53 27 -110 24 -126 -2 -17 1 -33
9 -37 8 -5 10 -4 5 3 -4 7 -2 12 3 12 6 0 11 -4 11 -10 0 -5 20 -55 44 -112
24 -57 40 -105 35 -108 -14 -9 2 -50 20 -50 11 0 28 -22 47 -62 16 -34 39 -77
51 -95 12 -18 19 -33 15 -33 -4 0 -2 -4 3 -8 11 -7 95 -139 95 -148 0 -3 -4
-2 -10 1 -5 3 -10 1 -10 -5 0 -6 8 -10 18 -8 11 2 17 -4 17 -17 1 -11 6 -19
13 -18 11 3 48 -55 44 -69 -1 -5 2 -7 6 -5 5 1 48 -46 96 -105 47 -60 81 -108
76 -108 -6 0 -13 7 -16 15 -4 8 -10 12 -15 9 -15 -9 -180 49 -166 59 8 6 5 7
-7 3 -11 -4 -44 -1 -74 6 -43 9 -51 14 -36 20 13 6 10 7 -12 4 -18 -3 -76 4
-130 15 -55 11 -143 24 -197 30 -85 8 -102 8 -133 -7 -51 -24 -71 -73 -53
-129 7 -22 12 -43 11 -47 -1 -5 1 -7 6 -6 4 1 20 -4 35 -10 16 -7 40 -12 55
-12 54 -1 239 -29 327 -50 213 -51 404 -117 383 -132 -9 -7 -6 -8 11 -4 38 8
292 -129 274 -149 -4 -4 -3 -5 4 -2 9 6 49 -20 122 -79 2 -2 -2 -11 -9 -19
-11 -13 -11 -16 1 -13 8 2 13 -3 11 -10 -1 -8 2 -11 8 -7 8 5 7 11 -1 21 -7 8
-7 14 -1 14 15 0 33 -26 24 -35 -4 -5 -2 -5 4 -2 14 8 107 -98 109 -125 1 -10
8 -24 15 -31 10 -10 10 -8 1 11 -21 41 -2 23 37 -35 22 -32 55 -89 74 -128 42
-83 121 -312 114 -330 -2 -7 0 -17 4 -21 19 -19 33 -238 21 -318 -14 -96 -60
-238 -74 -229 -5 3 -7 1 -4 -5 10 -15 -3 -43 -16 -35 -5 3 -7 1 -4 -4 4 -6 0
-24 -8 -39 -8 -16 -15 -32 -15 -35 0 -14 -97 -179 -166 -284 -62 -93 -148
-206 -130 -168 4 6 1 15 -5 19 -9 5 -10 0 -6 -16 5 -18 -3 -35 -29 -67 -21
-25 -40 -40 -47 -37 -7 4 -9 3 -4 -1 10 -11 -33 -56 -46 -48 -6 4 -7 1 -2 -6
4 -8 -5 -26 -26 -47 -37 -38 -36 -38 -142 9 -49 22 -64 33 -55 40 9 6 8 7 -6
3 -28 -10 -243 114 -231 133 2 5 -3 8 -13 7 -9 0 -16 5 -15 11 2 7 0 12 -5 11
-15 -4 -52 23 -46 34 5 7 2 8 -5 4 -15 -10 -53 23 -44 37 4 6 1 7 -7 2 -29
-18 -423 416 -404 447 4 6 3 8 -3 5 -6 -4 -37 33 -71 86 -76 118 -93 152 -86
171 3 9 1 16 -6 16 -6 0 -8 -4 -5 -10 3 -5 4 -10 1 -10 -6 0 -86 155 -86 165
0 4 5 3 12 -1 7 -4 8 -3 4 5 -4 6 -11 9 -15 6 -12 -7 -73 143 -65 157 4 6 3 8
-3 5 -13 -8 -98 207 -89 228 3 9 2 14 -3 11 -10 -6 -63 156 -65 196 -1 16 -4
28 -8 28 -17 0 -97 415 -124 640 -22 189 -30 613 -15 808 28 368 97 715 205
1043 74 225 236 587 256 574 5 -3 7 0 5 8 -7 17 118 214 218 344 99 128 242
277 258 267 7 -4 9 -3 6 4 -12 19 193 190 213 177 6 -4 9 -1 8 5 -4 18 196
131 314 178 246 97 506 132 769 102z"/>
</g>
</svg>
