<?xml version="1.0" standalone="no"?>
<!DOCTYPE svg PUBLIC "-//W3C//DTD SVG 20010904//EN" "http://www.w3.org/TR/2001/REC-SVG-20010904/DTD/svg10.dtd">
<svg xmlns="http://www.w3.org/2000/svg" version="1.0" width="1024.000000pt" height="1024.000000pt" viewBox="0 0 1024.000000 1024.000000" preserveAspectRatio="xMidYMid meet">
<metadata>
Created by potrace 1.16, written by Peter Selinger 2001-2019
<meta name="Producer" content="Online-Convert"/></metadata>
<g transform="translate(0.000000,1024.000000) scale(0.100000,-0.100000)" fill="#000000" stroke="none">
<path d="M5321 8099 c-103 -41 -187 -151 -198 -264 l-6 -55 -883 0 c-871 0 -884 0 -904 -20 -25 -25 -26 -52 -2 -73 16 -15 46 -17 215 -17 108 0 197 -2 197 -5 0 -2 -22 -42 -49 -87 -26 -46 -95 -166 -151 -268 -57 -102 -151 -270 -211 -375 -123 -217 -145 -269 -159 -366 -25 -174 57 -364 205 -476 130 -99 265 -143 440 -143 128 0 217 19 321 70 198 96 324 281 324 476 0 105 -33 198 -128 361 -70 121 -225 395 -398 704 -30 53 -54 99 -54 102 0 4 339 6 753 5 l752 -3 2 -1180 c2 -927 0 -1181 -10 -1187 -6 -4 -151 -8 -320 -8 -283 0 -311 -2 -345 -19 -78 -40 -112 -97 -112 -187 0 -74 28 -127 87 -165 l47 -29 708 0 c677 0 710 1 746 19 50 26 78 58 97 110 26 74 13 139 -38 198 -62 71 -73 73 -429 73 -208 0 -319 4 -323 10 -7 12 -9 2359 -2 2366 2 2 337 3 745 2 l741 -3 -65 -115 c-36 -63 -81 -144 -101 -180 -19 -36 -106 -189 -191 -340 -86 -151 -169 -309 -185 -350 -76 -195 -31 -385 129 -546 114 -115 250 -170 444 -181 137 -7 245 13 357 68 193 95 322 285 323 476 0 139 -20 182 -427 903 l-150 265 211 3 c228 2 236 4 236 58 0 56 32 54 -926 54 l-881 0 -6 54 c-11 107 -83 212 -176 257 -67 33 -178 36 -250 8z m196 -100 c15 -6 39 -20 52 -32 32 -29 71 -114 71 -154 l0 -33 -205 0 -205 0 0 33 c0 38 39 125 66 148 54 47 154 64 221 38z m-1671 -491 c26 -51 59 -110 284 -503 136 -237 190 -339 190 -359 0 -15 -47 -16 -510 -16 -433 0 -510 2 -510 14 0 19 49 110 231 433 84 148 178 316 211 376 33 59 64 107 69 107 5 0 21 -24 35 -52z m3242 -15 c66 -114 335 -592 406 -721 37 -68 64 -127 61 -132 -7 -11 -1007 -14 -1018 -4 -7 8 19 56 262 489 102 182 198 354 214 383 16 28 30 52 32 52 2 0 22 -30 43 -67z m-2731 -979 c3 -8 0 -41 -6 -72 -45 -224 -277 -392 -541 -391 -262 0 -505 180 -539 399 -5 30 -6 60 -4 67 4 10 115 13 544 13 479 0 540 -2 546 -16z m3229 -35 c-27 -204 -190 -367 -416 -415 -84 -18 -150 -18 -247 1 -223 42 -397 211 -411 397 l-5 68 543 0 543 0 -7 -51z m-1428 -1305 c12 -8 29 -29 38 -45 19 -37 6 -84 -32 -120 l-26 -24 -641 -3 c-353 -2 -666 0 -696 3 -113 14 -151 120 -67 187 19 16 72 18 711 18 610 0 693 -2 713 -16z"/>
<path d="M7803 4879 c-18 -5 -85 -39 -150 -75 -65 -37 -239 -134 -388 -216 -148 -82 -308 -171 -355 -197 -47 -27 -179 -101 -295 -166 -115 -65 -222 -126 -237 -137 -36 -25 -46 -23 -54 10 -24 98 -86 174 -181 222 l-48 25 -535 6 c-378 4 -547 9 -575 18 -93 28 -143 50 -405 176 -283 136 -339 159 -481 196 -73 19 -101 21 -228 16 -162 -6 -235 -22 -366 -79 -79 -34 -125 -61 -398 -231 -188 -116 -237 -137 -877 -363 -178 -63 -330 -120 -338 -127 -16 -17 -1 -64 24 -74 9 -3 44 4 78 16 33 13 142 51 241 86 652 229 752 272 1021 441 307 194 408 229 649 228 140 -1 157 -3 255 -33 63 -20 212 -84 375 -163 287 -138 400 -182 511 -198 38 -5 283 -10 544 -10 441 0 478 -2 515 -19 74 -34 125 -111 125 -188 0 -90 -86 -199 -195 -250 l-60 -28 -808 -5 c-703 -4 -809 -7 -817 -20 -16 -25 -11 -48 12 -64 20 -14 110 -16 778 -16 441 0 780 4 814 10 135 22 281 122 339 232 26 48 37 58 120 104 51 27 189 104 307 170 118 66 312 174 430 239 118 65 310 171 427 236 200 111 281 149 321 149 36 0 93 -22 122 -46 67 -57 62 -149 -13 -232 -36 -39 -202 -183 -303 -262 -17 -14 -139 -113 -270 -219 -739 -603 -878 -710 -1164 -901 -372 -249 -613 -363 -831 -392 -148 -19 -235 -6 -1444 222 -652 123 -736 126 -954 39 -83 -33 -370 -183 -695 -363 -115 -64 -212 -116 -216 -116 -4 0 -15 -9 -24 -19 -25 -28 -17 -64 17 -76 33 -11 -1 -28 397 195 151 84 338 186 415 225 289 148 366 150 1015 25 219 -41 886 -165 1085 -200 66 -12 184 -24 262 -27 124 -5 154 -3 240 17 150 34 319 106 508 218 374 220 657 430 1370 1012 88 72 250 204 360 293 341 277 385 328 385 444 0 109 -67 203 -169 238 -49 16 -138 18 -188 4z"/>
</g>
</svg>
