<?xml version="1.0" standalone="no"?>
<!DOCTYPE svg PUBLIC "-//W3C//DTD SVG 20010904//EN" "http://www.w3.org/TR/2001/REC-SVG-20010904/DTD/svg10.dtd">
<svg xmlns="http://www.w3.org/2000/svg" version="1.0" width="1024.000000pt" height="1024.000000pt" viewBox="0 0 1024.000000 1024.000000" preserveAspectRatio="xMidYMid meet">
<metadata>
Created by potrace 1.16, written by Peter Selinger 2001-2019
<meta name="Producer" content="Online-Convert"/></metadata>
<g transform="translate(0.000000,1024.000000) scale(0.100000,-0.100000)" fill="#000000" stroke="none">
<path d="M5516 9109 c-30 -5 -69 -22 -105 -46 -53 -36 -93 -58 -61 -33 13 10 13 11 0 7 -8 -2 -15 -9 -15 -16 0 -16 -286 -231 -298 -224 -6 3 -7 1 -4 -4 8 -12 -27 -46 -36 -36 -4 3 -7 2 -7 -4 0 -6 -55 -57 -122 -114 -68 -57 -130 -111 -138 -119 -83 -80 -194 -174 -202 -172 -5 1 -7 -2 -4 -7 7 -10 -19 -34 -41 -37 -8 -2 -18 -6 -21 -10 -4 -4 2 -4 13 0 17 6 -22 -38 -135 -153 -9 -9 -60 -65 -114 -126 -54 -60 -104 -110 -110 -110 -6 0 -11 -7 -11 -15 0 -8 -45 -71 -101 -141 -55 -69 -122 -155 -148 -192 -26 -37 -51 -65 -56 -62 -4 3 -7 -3 -6 -13 0 -9 -4 -16 -11 -15 -7 2 -10 -4 -7 -12 4 -8 1 -15 -5 -15 -6 0 -11 -5 -11 -11 0 -13 -108 -180 -127 -196 -8 -6 -14 -14 -14 -17 3 -21 0 -26 -11 -20 -6 4 -8 3 -5 -3 9 -15 -42 -103 -59 -103 -8 0 -14 -5 -14 -11 0 -5 4 -7 10 -4 6 3 7 -1 4 -9 -3 -9 -10 -16 -15 -16 -5 0 -8 -4 -7 -8 4 -13 -54 -132 -63 -127 -3 3 -6 -1 -5 -8 0 -6 -17 -54 -39 -104 -26 -63 -42 -89 -48 -80 -6 8 -7 7 -4 -5 8 -23 -14 -89 -26 -81 -6 3 -7 1 -3 -5 8 -13 -23 -94 -34 -87 -4 2 -5 -7 -2 -20 2 -15 0 -25 -7 -25 -7 0 -10 -3 -7 -8 2 -4 -13 -65 -34 -136 -37 -120 -76 -303 -99 -461 -19 -130 -33 -555 -18 -555 4 0 7 -16 7 -35 0 -48 26 -218 50 -326 11 -50 17 -95 14 -101 -4 -7 -2 -8 4 -4 7 4 12 1 12 -9 0 -10 -5 -14 -12 -10 -7 4 -6 0 4 -7 20 -17 52 -123 42 -139 -4 -7 -3 -9 4 -6 6 4 17 -12 26 -40 19 -55 19 -56 6 -48 -5 3 -10 1 -10 -4 0 -6 6 -11 13 -11 7 0 21 -16 30 -35 19 -40 22 -59 7 -50 -6 3 -7 -1 -3 -10 4 -11 8 -13 13 -6 3 6 32 -42 65 -106 32 -65 73 -142 92 -171 18 -29 30 -58 27 -64 -4 -6 -3 -8 3 -5 19 12 25 -25 7 -38 -14 -9 -14 -14 -4 -20 9 -5 11 -4 6 3 -5 8 0 11 13 9 13 -2 41 -32 72 -78 28 -41 60 -84 71 -96 11 -12 17 -26 14 -32 -4 -5 -1 -13 5 -17 8 -5 9 -3 4 7 -7 12 -6 12 7 1 10 -8 14 -21 11 -30 -3 -9 -2 -14 2 -9 5 4 17 0 27 -9 14 -13 15 -20 7 -31 -9 -10 -9 -12 3 -8 8 3 21 -2 29 -11 12 -15 12 -17 0 -9 -10 5 -12 4 -7 -4 4 -6 11 -9 15 -6 10 5 111 -108 111 -124 0 -6 5 -11 11 -11 5 0 7 -5 3 -12 -4 -6 -3 -8 3 -5 5 3 27 -11 47 -32 24 -24 34 -41 27 -45 -6 -4 -11 -12 -11 -19 0 -6 6 -3 13 5 11 15 22 7 101 -69 68 -65 86 -87 75 -94 -11 -7 -9 -9 7 -9 11 0 30 -10 42 -23 18 -19 19 -26 9 -37 -10 -12 -9 -12 4 -2 14 10 20 6 41 -26 40 -60 80 -151 74 -168 -3 -8 -2 -13 3 -10 11 7 44 -72 36 -85 -4 -5 -2 -9 3 -9 5 0 14 -17 21 -37 7 -21 15 -45 18 -53 4 -11 2 -11 -8 2 -13 15 -15 16 -29 0 -13 -14 -12 -15 2 -10 10 4 19 1 22 -8 3 -9 10 -13 15 -10 5 3 17 -18 28 -47 15 -37 17 -54 9 -59 -8 -5 -7 -11 3 -20 12 -11 13 -10 6 2 -5 10 -5 12 2 5 16 -15 84 -205 78 -216 -4 -5 -1 -9 4 -9 6 0 11 -5 11 -11 0 -5 -4 -8 -9 -4 -5 3 -12 1 -16 -5 -3 -5 -2 -10 4 -10 5 0 12 -8 14 -17 4 -15 5 -15 6 2 1 11 15 -15 32 -59 17 -45 27 -88 24 -100 -5 -17 -4 -18 5 -6 10 12 11 11 7 -8 -3 -12 -2 -20 3 -17 10 6 71 -165 63 -178 -4 -6 -1 -7 7 -2 10 6 12 1 7 -21 -3 -16 -4 -23 0 -15 3 7 43 -80 89 -194 46 -113 81 -211 78 -217 -4 -6 -2 -8 3 -5 11 7 23 -14 23 -41 0 -8 7 -24 17 -34 9 -10 16 -32 16 -49 0 -16 4 -25 8 -18 4 7 9 3 14 -12 12 -41 48 -109 57 -109 5 0 7 -4 4 -8 -11 -18 81 -13 103 5 33 27 29 69 -13 168 -20 47 -34 91 -30 97 4 6 3 8 -3 5 -12 -8 -76 140 -67 154 3 5 1 9 -4 9 -15 0 -83 175 -76 196 4 13 3 15 -4 6 -6 -9 -18 12 -41 75 -18 48 -38 102 -46 119 -7 17 -23 66 -36 110 -32 106 -34 341 -5 447 10 37 22 67 27 67 5 0 6 6 4 13 -7 18 73 180 85 172 6 -4 7 1 3 11 -5 13 -3 15 7 9 8 -5 11 -4 7 2 -11 17 115 184 136 180 6 -1 11 3 12 8 1 19 16 35 27 29 7 -4 8 -2 4 5 -9 14 62 83 76 75 5 -3 7 0 6 8 -2 7 3 12 10 10 8 -1 11 2 8 7 -9 14 161 144 175 135 7 -4 9 -3 6 3 -4 6 44 48 106 94 61 46 118 90 125 97 8 6 18 10 23 6 5 -3 8 -1 7 4 -4 13 164 152 176 145 5 -3 6 -2 3 4 -9 14 59 77 72 68 6 -3 10 -2 9 3 -2 5 25 39 60 76 59 61 82 81 67 56 -3 -5 -1 -10 5 -10 7 0 10 6 7 14 -4 9 16 39 47 74 67 76 148 177 210 265 27 38 52 64 58 60 6 -3 8 -1 5 5 -4 5 25 63 64 128 74 121 134 243 185 374 16 41 32 77 36 78 5 2 6 8 3 12 -3 5 6 49 19 97 30 106 62 279 72 385 3 43 9 76 13 74 3 -2 6 88 6 200 0 112 -3 204 -7 204 -5 0 -8 22 -8 49 0 65 -25 258 -50 392 -12 58 -19 112 -17 120 2 8 2 10 -1 6 -2 -5 -20 51 -38 125 -19 73 -59 207 -89 298 -33 99 -53 175 -50 190 4 18 3 20 -3 7 -6 -15 -10 -12 -20 17 -7 20 -10 41 -6 47 4 7 3 9 -3 6 -6 -4 -16 6 -22 23 -5 17 -7 30 -3 30 4 0 2 4 -4 8 -16 11 -45 92 -38 104 4 6 3 8 -3 5 -5 -3 -18 13 -28 36 -10 23 -38 84 -61 135 -24 50 -39 92 -34 92 5 0 7 7 3 16 -5 13 -8 13 -15 2 -7 -9 -8 -7 -5 10 3 12 2 20 -2 18 -11 -7 -83 143 -75 156 4 6 3 8 -3 5 -12 -8 -76 121 -67 135 4 6 3 8 -3 5 -10 -6 -179 328 -177 350 1 7 -1 11 -5 8 -11 -6 -52 85 -45 97 4 6 3 8 -3 5 -12 -8 -46 61 -37 75 4 6 3 8 -3 5 -12 -8 -46 61 -37 75 4 6 3 8 -3 5 -13 -8 -36 41 -27 55 4 6 3 8 -3 5 -12 -8 -56 81 -47 95 4 6 3 8 -3 5 -12 -8 -85 141 -77 156 4 7 4 9 -1 5 -4 -4 -17 7 -29 24 -11 17 -34 41 -51 53 -26 18 -37 20 -79 14z m27 -214 c9 -19 13 -35 8 -35 -5 0 -12 6 -14 13 -4 9 -6 9 -6 -1 -1 -8 7 -16 17 -19 21 -5 106 -169 96 -185 -5 -7 -3 -8 6 -3 10 6 12 4 7 -9 -4 -9 -3 -15 1 -12 10 6 86 -144 77 -152 -3 -3 -5 0 -5 6 0 7 -6 12 -12 12 -7 -1 -1 -11 13 -23 33 -27 52 -64 43 -79 -4 -6 -3 -8 3 -5 5 3 35 -45 66 -109 61 -122 64 -129 45 -118 -7 4 -8 3 -4 -5 4 -6 11 -9 15 -6 11 6 33 -44 25 -57 -4 -6 -3 -8 3 -5 13 8 36 -41 27 -55 -4 -7 -2 -8 4 -4 8 5 12 -2 12 -21 0 -18 3 -23 8 -15 6 8 16 -6 31 -43 12 -30 23 -58 24 -62 0 -4 7 -14 14 -22 17 -17 8 -28 -10 -13 -10 9 -14 8 -14 -3 0 -8 2 -13 5 -10 3 2 13 0 23 -6 20 -10 85 -129 72 -129 -5 0 -3 -4 2 -8 15 -10 87 -163 80 -170 -3 -3 -5 0 -5 6 0 7 -5 12 -10 12 -6 0 -5 -8 2 -19 7 -11 15 -18 19 -16 7 5 15 -12 75 -155 25 -57 42 -110 39 -118 -2 -7 -1 -11 4 -8 12 8 32 -50 25 -69 -4 -8 -2 -15 4 -15 6 0 22 -30 35 -67 38 -102 40 -112 25 -131 -11 -15 -11 -16 3 -4 15 11 19 5 39 -60 13 -40 23 -85 24 -100 0 -14 4 -24 7 -23 3 2 13 -28 23 -68 10 -41 13 -73 7 -75 -5 -2 -6 -13 -3 -24 5 -21 6 -21 14 -2 7 15 8 14 5 -8 -3 -16 -1 -28 3 -28 9 0 32 -109 25 -120 -3 -5 -1 -11 5 -15 5 -3 10 -21 10 -38 0 -18 -4 -27 -8 -20 -4 6 -7 -5 -7 -27 0 -40 14 -46 16 -7 3 55 28 -145 39 -308 13 -206 7 -374 -21 -559 -10 -71 -19 -132 -19 -135 0 -3 -5 1 -10 9 -7 11 -8 7 -6 -14 5 -50 -50 -260 -65 -250 -5 3 -6 -1 -4 -8 3 -8 -7 -45 -23 -83 -46 -110 -54 -125 -65 -118 -6 3 -7 1 -3 -5 8 -13 -34 -103 -46 -96 -4 3 -5 -2 -2 -10 3 -8 -4 -24 -15 -35 -12 -12 -19 -21 -16 -21 3 0 -9 -23 -26 -50 -17 -28 -35 -47 -41 -43 -7 3 -8 1 -4 -5 8 -14 -71 -135 -84 -127 -5 3 -11 1 -15 -5 -3 -5 -1 -10 5 -10 7 0 -3 -18 -20 -40 -28 -35 -34 -39 -49 -28 -14 11 -14 11 -3 -4 11 -14 4 -26 -53 -92 -40 -46 -71 -74 -78 -70 -7 4 -9 4 -5 -1 12 -13 -25 -56 -137 -159 -94 -88 -107 -97 -123 -85 -15 13 -16 12 -3 -3 11 -15 9 -21 -20 -45 -18 -16 -40 -28 -48 -28 -9 -1 -15 -6 -14 -12 3 -13 -60 -63 -79 -63 -7 0 -20 -5 -28 -11 -12 -9 -11 -10 5 -4 18 5 18 4 5 -8 -45 -42 -193 -146 -201 -141 -5 3 -8 1 -7 -4 5 -17 -89 -82 -109 -76 -15 5 -16 4 -3 -5 14 -10 7 -16 -13 -12 -5 1 -6 -2 -3 -7 3 -5 -6 -20 -19 -32 -14 -13 -25 -21 -25 -18 0 3 -26 -20 -57 -51 -31 -31 -62 -55 -69 -53 -6 1 -11 -6 -10 -15 0 -11 -5 -17 -14 -15 -8 2 -12 1 -8 -3 9 -10 -112 -161 -126 -157 -6 2 -8 0 -4 -3 4 -4 0 -22 -9 -39 -10 -20 -18 -26 -21 -17 -2 7 2 17 9 22 11 7 10 9 -5 9 -15 0 -17 -5 -13 -27 5 -26 -14 -69 -25 -58 -3 3 -11 -3 -19 -12 -13 -17 -13 -17 5 -3 11 8 17 11 15 5 -3 -5 -19 -39 -37 -75 -18 -36 -32 -71 -32 -78 0 -7 -5 -10 -12 -6 -7 4 -8 3 -4 -4 4 -6 -1 -37 -10 -68 -14 -50 -17 -54 -29 -37 -7 10 -24 50 -38 88 -14 39 -29 79 -33 89 -5 14 -4 17 4 12 7 -4 12 -2 12 3 0 6 -7 11 -15 11 -8 0 -18 15 -24 33 -5 17 -28 85 -51 150 -23 64 -39 121 -36 126 4 5 2 11 -3 13 -12 4 -83 288 -77 305 3 8 2 12 -3 8 -17 -10 -222 866 -270 1150 -89 524 -38 958 156 1338 30 59 59 105 64 102 5 -4 6 2 2 11 -5 13 -3 15 7 9 9 -5 11 -4 6 4 -9 14 77 134 153 215 100 104 235 182 368 212 41 9 87 14 103 12 16 -2 27 -1 24 4 -3 4 6 8 20 8 14 0 26 -4 26 -9 0 -5 25 -7 56 -5 89 8 212 -32 319 -102 14 -9 22 -21 18 -27 -3 -6 -1 -7 5 -3 15 9 104 -73 95 -87 -3 -5 -1 -7 5 -4 16 11 104 -133 91 -149 -7 -8 -6 -14 2 -20 8 -4 9 -3 5 4 -4 7 -5 12 -2 12 25 0 66 -174 66 -282 0 -81 -9 -150 -19 -144 -3 2 -6 -8 -7 -23 -2 -47 -51 -139 -105 -196 -66 -70 -163 -120 -217 -111 -29 4 -32 3 -17 -4 14 -7 -1 -9 -55 -6 -84 5 -153 22 -145 36 3 6 0 7 -7 5 -25 -10 -125 91 -158 159 -30 60 -31 68 -28 164 2 55 2 99 0 97 -2 -1 -14 8 -27 21 -46 46 -122 20 -144 -49 -11 -37 -21 -229 -10 -201 7 18 8 18 9 -1 0 -11 14 -51 30 -89 16 -38 27 -74 23 -80 -3 -6 -3 -8 2 -4 9 9 35 -9 35 -24 0 -5 -6 -6 -12 -2 -8 4 -10 3 -5 -2 5 -5 12 -9 17 -9 15 0 95 -90 92 -105 -2 -11 -1 -12 6 -3 6 10 17 7 43 -11 72 -49 160 -78 249 -83 110 -7 186 8 278 54 92 45 202 150 253 241 20 34 38 60 41 56 3 -3 6 5 6 18 0 13 9 54 21 93 11 38 21 85 21 103 0 18 3 31 8 28 20 -12 -20 286 -49 361 -5 13 -6 29 -3 35 4 6 3 8 -3 5 -5 -3 -20 18 -32 47 -12 29 -41 79 -65 112 -23 32 -41 66 -38 74 3 8 1 12 -3 7 -12 -10 -66 43 -58 57 3 6 3 8 -2 4 -4 -4 -31 12 -60 35 -74 59 -142 100 -194 117 -41 13 -43 15 -20 22 20 6 18 7 -10 4 -18 -1 -59 3 -90 11 -101 24 -265 27 -371 8 -52 -10 -105 -18 -117 -19 -11 -1 -19 -5 -15 -10 3 -5 -5 -7 -16 -4 -12 4 -20 2 -17 -2 7 -11 -54 -32 -69 -23 -6 3 -8 3 -4 -2 11 -11 -50 -47 -65 -39 -7 4 -9 4 -5 -1 10 -11 -29 -38 -42 -30 -6 4 -9 1 -8 -7 2 -8 -6 -12 -22 -10 -17 1 -21 -1 -12 -6 10 -7 10 -11 -3 -22 -8 -7 -15 -10 -15 -7 0 6 -110 -106 -150 -153 -12 -14 -27 -24 -32 -22 -5 1 -7 -2 -4 -6 3 -5 -11 -34 -32 -63 -73 -105 -153 -254 -197 -366 -15 -40 -31 -71 -34 -69 -3 2 -7 -10 -7 -27 -1 -17 -6 -33 -13 -35 -6 -2 -9 -7 -7 -10 2 -4 -9 -57 -24 -118 -51 -197 -64 -308 -62 -534 1 -113 5 -238 10 -277 4 -40 5 -73 0 -73 -4 0 -8 -8 -8 -17 0 -16 2 -16 11 -3 7 11 9 6 7 -22 -1 -20 1 -40 5 -44 12 -13 8 -36 -5 -28 -8 5 -7 1 2 -10 19 -24 72 -292 65 -331 -4 -22 -3 -25 3 -10 8 17 9 16 15 -10 8 -41 43 -193 66 -292 11 -48 14 -81 9 -80 -6 1 -13 -4 -16 -12 -3 -10 0 -12 11 -8 18 7 16 13 61 -170 29 -115 30 -116 16 -108 -5 3 -10 1 -10 -4 0 -6 6 -11 13 -11 15 0 50 -141 38 -150 -9 -7 -8 -27 3 -37 5 -4 6 -3 2 4 -3 6 -2 14 4 18 5 3 10 0 10 -9 0 -8 3 -23 7 -33 4 -12 -7 -6 -30 16 -20 19 -34 38 -31 42 3 5 -1 6 -9 3 -16 -6 -178 161 -174 180 1 6 -3 10 -10 9 -18 -4 -72 67 -66 86 3 11 2 12 -4 4 -7 -9 -19 -1 -44 30 -133 162 -320 458 -295 467 12 4 12 7 0 18 -11 10 -14 10 -14 0 -1 -7 -8 -1 -16 15 -8 15 -12 33 -8 39 4 6 3 8 -3 5 -11 -7 -19 8 -69 132 -19 46 -31 87 -28 92 3 5 1 9 -4 9 -13 0 -59 150 -87 287 -96 463 -64 907 101 1401 58 173 125 333 137 325 6 -3 7 -1 3 5 -9 15 54 153 67 145 6 -3 7 -1 3 5 -11 18 209 397 224 387 4 -2 7 2 7 9 0 7 19 41 43 75 31 44 46 58 55 51 8 -7 12 -5 12 5 0 8 -4 12 -9 9 -17 -11 -7 9 34 64 96 130 191 241 201 235 5 -3 7 -1 4 4 -9 15 141 185 155 177 6 -4 8 -3 4 4 -8 14 53 84 67 75 5 -3 7 -2 4 4 -4 6 15 31 41 57 26 25 61 61 78 79 83 88 277 266 284 262 5 -3 12 0 16 6 5 8 2 10 -7 5 -17 -9 18 22 102 92 35 29 75 63 89 75 66 61 102 87 112 81 6 -4 8 -3 5 3 -9 14 60 66 75 57 7 -4 8 -3 4 4 -8 14 72 74 87 65 6 -3 7 -1 3 5 -8 13 72 75 85 66 5 -3 8 -1 7 4 -3 11 60 60 78 61 6 1 18 -15 27 -34z"/>
</g>
</svg>
