<?xml version="1.0" standalone="no"?>
<!DOCTYPE svg PUBLIC "-//W3C//DTD SVG 20010904//EN" "http://www.w3.org/TR/2001/REC-SVG-20010904/DTD/svg10.dtd">
<svg xmlns="http://www.w3.org/2000/svg" version="1.0" width="1024.000000pt" height="1024.000000pt" viewBox="0 0 1024.000000 1024.000000" preserveAspectRatio="xMidYMid meet">
<metadata>
Created by potrace 1.16, written by Peter Selinger 2001-2019
<meta name="Producer" content="Online-Convert"/></metadata>
<g transform="translate(0.000000,1024.000000) scale(0.100000,-0.100000)" fill="#000000" stroke="none">
<path d="M6225 7891 c-32 -14 -53 -43 -57 -81 l-3 -35 -83 -8 c-87 -7 -251 -45 -315 -72 -20 -8 -37 -12 -37 -8 0 5 -4 4 -8 -2 -4 -5 -47 -30 -95 -55 -48 -25 -120 -69 -159 -99 -55 -41 -72 -50 -79 -40 -6 10 -9 11 -9 2 0 -7 -1 -16 -1 -20 -1 -5 -33 -42 -71 -83 -39 -40 -90 -102 -114 -136 -50 -69 -151 -275 -161 -326 -3 -18 -10 -36 -16 -39 -5 -4 -2 -19 7 -38 9 -17 13 -31 9 -31 -5 -1 10 -9 32 -20 38 -18 67 -19 567 -20 l527 0 3 -330 3 -330 -1093 0 c-665 0 -1099 -3 -1110 -9 -25 -14 -47 -44 -46 -61 1 -8 2 -23 3 -33 0 -10 12 -28 25 -40 19 -18 36 -22 85 -22 l61 0 0 -271 c0 -269 0 -272 -21 -277 -12 -3 -145 -6 -295 -7 l-274 -1 0 35 c0 19 5 38 10 41 6 4 8 10 5 14 -2 5 11 111 30 237 42 276 44 335 13 364 -20 19 -34 20 -200 20 l-178 0 0 143 c0 95 3 137 10 127 8 -13 10 -13 10 1 0 12 13 18 43 23 65 10 135 36 196 71 67 39 166 141 206 210 16 28 34 53 40 57 5 4 6 8 2 8 -4 0 -2 10 5 23 6 12 13 29 14 37 1 8 7 39 13 69 13 64 15 168 2 175 -4 3 -11 20 -15 38 -6 28 -8 30 -17 16 -7 -13 -23 -18 -58 -18 -232 0 -440 -150 -532 -384 -16 -39 -28 -65 -29 -57 0 7 -16 36 -35 62 -19 27 -35 51 -35 53 0 5 -66 68 -93 91 -42 34 -188 105 -227 110 -8 1 -37 5 -65 10 -42 7 -114 8 -150 2 -5 -1 -20 -13 -33 -27 -21 -22 -23 -32 -19 -87 3 -41 1 -64 -7 -67 -8 -3 -8 -5 1 -5 10 -1 60 -130 54 -140 -2 -2 1 -7 6 -10 5 -3 22 -28 38 -56 24 -42 168 -200 177 -194 2 1 21 -7 43 -19 33 -18 35 -28 3 -23 -5 0 -8 -6 -8 -15 0 -14 3 -14 15 -4 8 7 15 9 15 4 0 -4 5 -3 12 4 7 7 17 8 29 2 23 -13 156 -43 194 -44 l30 -1 0 -90 0 -90 -182 -5 c-151 -4 -186 -8 -202 -22 -11 -9 -23 -13 -27 -10 -4 4 -4 -1 -1 -10 3 -10 2 -20 -4 -23 -5 -4 -7 -10 -4 -14 9 -15 76 -464 71 -478 -3 -7 -1 -13 3 -13 5 0 11 -24 13 -52 2 -29 6 -60 9 -68 3 -13 -35 -15 -298 -16 -279 -2 -304 -3 -325 -20 -30 -24 -30 -31 -32 -266 0 -109 -3 -198 -6 -198 -3 0 -3 -33 1 -72 3 -46 2 -78 -5 -87 -9 -12 -8 -13 3 -6 11 6 13 4 7 -11 -4 -10 -7 -145 -6 -299 2 -376 2 -580 0 -1028 -1 -208 0 -380 2 -382 2 -2 1 -32 -2 -66 -3 -33 -5 -82 -3 -107 1 -26 4 -100 7 -165 4 -96 9 -124 25 -150 11 -18 21 -29 21 -25 0 4 14 2 32 -3 40 -11 84 6 92 36 3 11 6 620 6 1353 l0 1332 2800 0 2800 0 0 -1335 c0 -896 3 -1342 10 -1354 5 -11 19 -23 31 -26 12 -4 18 -12 15 -21 -3 -8 -1 -14 4 -14 6 0 10 5 10 10 0 6 7 10 16 10 9 0 29 9 45 21 l29 20 0 1408 c0 1354 -1 1409 -18 1425 -16 14 -49 16 -250 17 l-232 1 0 278 0 278 90 -1 c52 0 95 5 103 11 8 7 17 9 20 5 4 -3 7 1 7 10 0 9 4 17 8 17 4 0 6 17 4 38 -5 39 -26 72 -49 72 -7 0 -13 3 -13 8 0 4 -295 6 -655 4 l-655 -2 0 329 0 330 529 0 c537 1 567 3 601 39 40 41 -29 235 -146 413 -24 36 -53 74 -64 84 -11 10 -20 21 -20 26 0 10 -126 130 -190 180 -30 23 -58 47 -62 53 -4 6 -8 7 -8 2 0 -5 -8 -2 -17 6 -10 9 -52 33 -93 54 -41 20 -78 42 -82 48 -4 6 -8 8 -8 4 0 -3 -30 5 -67 18 -38 13 -76 24 -87 24 -12 0 -16 5 -12 15 3 8 1 15 -3 15 -5 0 -11 -4 -13 -10 -2 -6 -32 -4 -83 6 -44 9 -100 16 -125 17 -31 2 -45 6 -47 17 -10 77 -14 88 -37 94 -13 3 -30 8 -38 10 -7 3 -22 1 -33 -3z m148 -281 c50 -6 133 -21 183 -35 92 -24 234 -82 234 -95 0 -4 6 -7 13 -7 18 0 137 -81 137 -94 0 -6 -14 0 -31 12 l-31 22 11 -21 c11 -21 28 -27 59 -23 13 2 110 -80 104 -87 -2 -2 17 -22 41 -45 69 -65 178 -239 158 -252 -5 -3 -12 0 -14 5 -3 6 -4 5 -3 -2 2 -7 10 -12 18 -10 9 1 18 -4 22 -13 5 -13 -103 -15 -983 -15 -544 0 -1001 -2 -1017 -5 -35 -7 -67 10 -46 24 8 4 13 11 13 15 -3 22 1 27 17 21 13 -5 14 -3 5 6 -13 13 -6 42 8 33 5 -3 7 1 4 8 -7 17 99 174 114 170 7 -1 10 2 6 7 -8 14 108 129 185 183 114 79 270 152 349 162 14 2 44 8 66 14 22 6 49 11 60 12 11 0 47 4 80 8 98 12 140 13 238 2z m-2808 -690 c-3 -5 -13 -35 -21 -65 -17 -69 -67 -147 -124 -199 -46 -42 -144 -91 -160 -81 -5 3 -10 1 -10 -4 0 -6 -7 -11 -15 -11 -43 0 55 189 136 265 33 30 65 53 70 50 5 -4 9 -2 9 3 0 13 78 44 91 37 5 -4 9 -1 9 4 0 6 5 11 11 11 5 0 7 -4 4 -10z m-915 -117 c8 -3 23 -7 33 -8 11 -1 23 -8 28 -16 5 -8 9 -11 9 -6 0 8 71 -36 106 -66 14 -12 19 -26 17 -41 -4 -18 0 -23 18 -22 20 1 23 -4 23 -42 1 -43 15 -57 27 -25 5 14 11 7 28 -32 12 -27 19 -55 17 -62 -6 -14 -28 -17 -39 -6 -4 3 -18 8 -33 9 -105 11 -236 139 -283 277 l-20 57 27 -6 c15 -3 34 -8 42 -11z m2550 -853 c0 -5 -19 -10 -42 -10 -47 0 -46 -11 1 -12 l31 -1 0 -246 c0 -163 -4 -241 -10 -231 -6 9 -10 10 -10 3 0 -7 8 -17 18 -22 44 -26 -22 -31 -479 -31 l-467 0 -1 280 -2 280 481 0 c313 0 480 -3 480 -10z m960 -260 c-3 -165 -1 -275 5 -281 5 -5 -141 -9 -397 -9 l-407 0 0 280 0 279 402 1 402 0 -5 -270z m1150 -10 l0 -279 -490 -1 -490 0 0 280 0 280 490 0 490 0 0 -280z m-3905 241 c-2 -14 -7 -54 -10 -89 -9 -73 -29 -99 -24 -29 2 25 0 43 -4 40 -4 -3 -7 -27 -6 -53 2 -27 6 -47 11 -44 4 3 8 3 8 1 0 -5 -34 -234 -46 -304 l-7 -43 -232 0 -232 0 -6 43 c-4 23 -20 132 -37 241 -16 110 -28 201 -26 203 2 3 1 17 -4 32 l-8 28 313 1 313 0 -3 -27z"/>
<path d="M5065 4370 c-423 -6 -408 -3 -415 -85 -2 -27 -4 -279 -5 -558 l0 -509 28 -24 28 -24 388 0 c422 0 404 -2 425 55 12 31 7 1055 -4 1091 -19 58 -34 60 -445 54z m284 -591 c0 -237 3 -435 6 -440 4 -5 -102 -9 -269 -9 l-276 0 0 440 0 440 269 0 269 0 1 -431z"/>
<path d="M2904 4347 l-27 -24 2 -202 c1 -111 -3 -200 -7 -197 -5 3 -5 -16 -1 -42 4 -26 8 -192 9 -369 1 -305 2 -323 20 -333 12 -6 167 -10 413 -10 367 0 395 1 410 18 15 16 17 74 17 578 l1 559 -26 23 c-26 22 -26 22 -405 22 l-379 0 -27 -23z m674 -577 l0 -440 -268 0 -268 0 0 440 0 440 268 0 268 0 0 -440z"/>
</g>
</svg>
