<?xml version="1.0" standalone="no"?>
<!DOCTYPE svg PUBLIC "-//W3C//DTD SVG 20010904//EN"
 "http://www.w3.org/TR/2001/REC-SVG-20010904/DTD/svg10.dtd">
<svg version="1.0" xmlns="http://www.w3.org/2000/svg"
 width="1024.000000pt" height="1024.000000pt" viewBox="0 0 1024.000000 1024.000000"
 preserveAspectRatio="xMidYMid meet">
<metadata>
Created by potrace 1.16, written by Peter Selinger 2001-2019
</metadata>
<g transform="translate(0.000000,1024.000000) scale(0.100000,-0.100000)"
fill="#000000" stroke="none">
<path d="M5870 6663 c-43 -6 -60 -19 -60 -47 0 -41 17 -46 160 -46 415 -1 779
-133 1020 -370 74 -73 178 -208 196 -254 3 -9 -52 9 -142 46 -157 63 -184 66
-197 19 -9 -34 22 -58 120 -95 50 -19 148 -62 218 -95 69 -34 132 -61 140 -61
34 0 42 42 59 322 9 152 13 284 10 292 -7 19 -57 21 -72 3 -6 -6 -16 -95 -22
-197 -6 -102 -12 -189 -14 -194 -1 -5 -14 11 -28 36 -40 66 -147 196 -214 257
-224 205 -477 320 -801 365 -116 16 -316 26 -373 19z"/>
<path d="M4945 6450 c-235 -47 -464 -185 -594 -357 -69 -91 -135 -229 -162
-338 -32 -127 -32 -323 0 -445 60 -226 203 -429 394 -559 79 -53 227 -119 323
-143 112 -28 327 -30 443 -4 285 63 534 258 665 520 74 149 91 223 91 411 0
182 -11 235 -76 373 -115 248 -353 453 -609 525 -141 40 -328 47 -475 17z
m393 -96 c252 -51 482 -234 607 -483 29 -58 75 -225 75 -272 l0 -29 -88 0
c-96 0 -112 -7 -112 -52 0 -38 24 -48 114 -48 l76 0 0 -28 c0 -54 -41 -187
-85 -277 -127 -259 -358 -429 -650 -478 l-80 -13 -5 83 c-5 90 -13 103 -62
103 -38 0 -50 -29 -46 -111 3 -63 1 -69 -16 -69 -55 0 -201 36 -276 67 -260
110 -439 320 -511 600 -32 125 -33 123 59 123 85 0 102 8 102 50 0 42 -17 50
-103 50 l-79 0 7 66 c20 187 102 350 246 492 108 105 235 174 404 218 112 29
304 33 423 8z"/>
<path d="M5100 6300 c-19 -19 -20 -33 -20 -375 l0 -355 -219 0 c-186 0 -222
-2 -235 -16 -21 -21 -20 -40 4 -64 19 -19 33 -20 280 -20 250 0 260 1 270 20
8 14 10 144 8 411 -3 373 -4 391 -22 405 -27 19 -42 18 -66 -6z"/>
<path d="M7248 5528 c-8 -7 -27 -49 -42 -93 -136 -402 -455 -739 -938 -989
-419 -218 -953 -321 -1518 -295 -96 5 -269 16 -385 25 -679 54 -1129 -55
-1521 -367 -82 -65 -91 -91 -39 -119 22 -12 29 -8 92 45 242 206 570 326 971
357 154 11 293 7 727 -23 91 -6 277 -9 430 -6 292 6 466 26 686 82 400 102
765 278 999 484 96 85 103 84 26 -3 -357 -399 -905 -673 -1545 -771 -211 -32
-470 -49 -660 -42 -92 3 -164 1 -174 -5 -24 -13 -22 -64 2 -78 25 -13 396 -13
567 0 592 46 1146 242 1567 553 339 251 646 666 780 1052 49 142 52 162 31
186 -20 22 -34 24 -56 7z"/>
</g>
</svg>
