<?xml version="1.0" standalone="no"?>
<!DOCTYPE svg PUBLIC "-//W3C//DTD SVG 20010904//EN"
 "http://www.w3.org/TR/2001/REC-SVG-20010904/DTD/svg10.dtd">
<svg version="1.0" xmlns="http://www.w3.org/2000/svg"
 width="1024.000000pt" height="1024.000000pt" viewBox="0 0 1024.000000 1024.000000"
 preserveAspectRatio="xMidYMid meet">
<metadata>
Created by potrace 1.16, written by Peter Selinger 2001-2019
</metadata>
<g transform="translate(0.000000,1024.000000) scale(0.100000,-0.100000)"
fill="#000000" stroke="none">
<path d="M4810 8760 c-783 -79 -1532 -451 -2019 -1005 -396 -450 -619 -936
-712 -1550 -31 -201 -35 -486 -37 -2647 -3 -2060 -8 -1910 62 -1923 28 -6 77
12 322 120 159 70 377 165 484 212 107 47 244 108 304 134 60 27 111 49 113
49 2 0 3 -65 3 -145 0 -143 0 -146 26 -172 20 -20 31 -24 57 -19 18 3 40 16
50 27 16 20 17 80 17 943 0 618 4 934 11 959 13 49 68 110 123 136 41 20 58
21 545 21 474 0 502 -1 497 -17 -5 -16 -56 -329 -56 -345 0 -4 -138 -8 -307
-10 -296 -3 -310 -4 -366 -27 -77 -31 -177 -124 -214 -199 -28 -57 -28 -58
-31 -292 -3 -265 1 -286 68 -325 33 -19 54 -20 413 -23 l377 -3 0 -345 0 -346
29 -29 c35 -34 59 -36 95 -8 l26 20 0 355 0 354 568 -2 567 -3 3 -412 2 -411
35 -31 36 -31 658 0 659 0 31 35 31 36 2 152 c0 84 1 158 1 165 -1 8 9 6 31
-7 17 -10 155 -87 306 -171 151 -84 315 -175 364 -202 113 -63 146 -69 180
-35 l26 26 0 2054 c0 1336 -4 2099 -10 2183 -67 829 -452 1575 -1065 2068
-453 363 -966 584 -1560 671 -128 19 -610 29 -745 15z m567 -141 c662 -55
1270 -318 1759 -759 455 -411 758 -974 863 -1605 28 -171 31 -193 41 -418 11
-243 13 -3924 2 -3931 -4 -2 -30 9 -57 27 -49 30 -106 63 -420 237 -82 46
-178 100 -213 120 l-63 35 -2 1170 -2 1170 -24 58 c-34 85 -94 154 -171 196
l-65 36 -990 0 -990 0 -65 -34 c-74 -38 -144 -107 -177 -173 -17 -34 -36 -129
-75 -376 l-52 -331 -530 -3 -531 -3 -65 -31 c-82 -39 -148 -103 -186 -179
l-29 -60 -5 -733 -5 -733 -160 -70 c-88 -39 -272 -119 -410 -179 -137 -60
-317 -138 -400 -174 -82 -36 -153 -66 -157 -66 -14 0 -4 4150 10 4250 53 377
125 641 249 915 132 292 288 518 528 763 336 345 700 578 1139 727 410 139
825 190 1253 154z m1665 -3834 c28 -20 52 -49 71 -84 l27 -55 0 -303 0 -303
-498 0 c-554 0 -562 -1 -659 -66 -60 -41 -118 -120 -138 -189 -9 -29 -15 -90
-15 -152 l0 -103 -545 0 -545 0 5 23 c3 12 30 180 60 372 125 791 121 773 190
834 74 64 9 61 1052 58 l951 -2 44 -30z m98 -1880 l0 -995 -585 0 -585 0 2
913 3 912 22 40 c11 22 34 52 50 67 58 56 65 57 601 57 l492 1 0 -995z m-1312
187 l2 -292 -1001 2 -1001 3 2 204 c1 185 3 207 22 245 11 22 28 49 37 60 17
19 80 54 121 67 14 4 428 7 920 6 l895 -2 3 -293z"/>
</g>
</svg>
