<?xml version="1.0" standalone="no"?>
<!DOCTYPE svg PUBLIC "-//W3C//DTD SVG 20010904//EN"
 "http://www.w3.org/TR/2001/REC-SVG-20010904/DTD/svg10.dtd">
<svg version="1.0" xmlns="http://www.w3.org/2000/svg"
 width="1024.000000pt" height="1024.000000pt" viewBox="0 0 1024.000000 1024.000000"
 preserveAspectRatio="xMidYMid meet">
<metadata>
Created by potrace 1.16, written by Peter Selinger 2001-2019
</metadata>
<g transform="translate(0.000000,1024.000000) scale(0.100000,-0.100000)"
fill="#000000" stroke="none">
<path d="M4945 8363 c-145 -10 -440 -71 -572 -119 -74 -27 -87 -29 -77 -12 5
7 3 8 -5 4 -7 -5 -10 -11 -6 -14 8 -9 -156 -72 -169 -65 -6 3 -8 2 -3 -2 8
-10 -128 -85 -147 -81 -6 2 -7 1 -3 -2 4 -2 -22 -22 -58 -43 -36 -22 -70 -37
-75 -34 -6 4 -9 2 -8 -3 2 -6 -24 -29 -56 -52 -46 -32 -61 -39 -68 -28 -8 10
-9 9 -5 -3 6 -20 -78 -93 -95 -83 -6 4 -8 3 -4 -4 3 -6 -7 -21 -24 -34 -17
-13 -49 -42 -72 -65 -22 -23 -45 -40 -49 -37 -5 3 -9 -1 -9 -8 0 -15 -59 -76
-75 -78 -5 -1 -12 -4 -15 -7 -3 -4 1 -3 8 1 18 10 15 -9 -4 -25 -9 -7 -43 -46
-76 -86 -34 -41 -64 -70 -70 -67 -7 4 -8 2 -4 -5 8 -13 -81 -138 -96 -133 -5
1 -7 -2 -3 -8 3 -5 -10 -34 -29 -62 -19 -29 -65 -105 -103 -169 -47 -80 -73
-114 -83 -112 -11 3 -12 2 -2 -4 9 -7 -9 -54 -76 -194 -49 -101 -102 -216
-117 -256 -15 -40 -31 -70 -36 -68 -4 3 -11 0 -15 -6 -4 -8 -3 -9 4 -5 17 11
15 -4 -12 -70 -81 -198 -189 -560 -241 -799 -59 -277 -105 -620 -105 -789 0
-48 -3 -57 -15 -52 -13 5 -13 2 1 -19 11 -17 14 -36 10 -62 -9 -54 11 -334 35
-493 12 -74 22 -149 24 -166 1 -17 5 -36 9 -42 4 -6 4 -24 1 -39 -3 -15 -2
-22 1 -14 4 8 24 -46 45 -120 21 -74 54 -174 73 -222 20 -49 34 -93 31 -98 -4
-5 -2 -9 2 -9 5 0 25 -33 44 -72 18 -40 53 -105 77 -144 23 -40 41 -78 39 -85
-2 -8 -2 -10 1 -6 2 5 11 -1 19 -12 8 -12 11 -26 8 -31 -4 -6 -2 -9 3 -8 5 2
37 -35 71 -80 34 -46 95 -121 136 -167 41 -45 71 -86 67 -90 -4 -4 -2 -5 3 -3
6 2 42 -25 80 -59 39 -35 114 -96 167 -137 54 -40 94 -77 90 -81 -4 -5 -1 -5
6 -1 8 5 28 -2 50 -17 21 -13 57 -34 80 -46 26 -13 40 -26 36 -33 -4 -7 -3 -8
4 -4 6 4 38 -7 71 -24 148 -74 439 -179 613 -221 53 -13 94 -28 91 -33 -3 -5
-1 -6 5 -2 7 4 80 -4 164 -18 396 -66 741 -70 1115 -15 284 41 531 108 765
206 59 25 113 41 119 37 7 -4 9 -3 6 3 -8 12 141 86 155 77 6 -4 8 -3 5 3 -3
5 39 35 94 67 55 32 134 82 175 112 42 30 80 51 86 48 6 -4 8 -2 5 3 -4 6 26
37 66 69 39 32 128 114 197 183 69 69 128 125 132 123 5 -1 7 2 5 7 -4 15 64
102 75 95 7 -4 8 -2 4 4 -8 13 62 108 76 104 5 -1 7 2 3 7 -3 6 18 47 46 93
152 242 266 558 323 898 63 373 58 695 -16 1110 -17 96 -32 189 -32 207 -1 17
-3 30 -6 28 -3 -2 -18 47 -34 108 -47 188 -202 643 -252 739 -8 16 -13 36 -10
44 3 8 2 13 -2 10 -13 -8 -103 208 -96 230 4 12 3 15 -3 7 -6 -8 -33 37 -83
140 -41 83 -108 209 -148 279 -40 71 -70 133 -66 140 4 6 3 8 -3 5 -11 -7 -96
118 -96 140 0 7 -2 11 -5 8 -9 -8 -63 76 -56 87 4 6 3 8 -4 4 -6 -3 -21 8 -33
26 -46 67 -145 185 -212 255 -42 44 -66 77 -61 84 5 8 3 9 -5 4 -14 -8 -73 43
-65 57 3 5 1 7 -4 6 -15 -5 -143 103 -135 115 3 6 1 7 -5 3 -6 -4 -53 21 -104
56 -51 34 -143 88 -205 119 -61 31 -110 59 -108 61 2 1 -6 4 -18 4 -12 1 -67
18 -123 37 -116 41 -303 81 -452 96 -94 10 -376 12 -497 4z m435 -193 c190
-17 391 -61 538 -117 31 -12 39 -19 30 -25 -9 -6 -7 -8 7 -4 36 10 296 -129
278 -149 -4 -4 -2 -5 4 -1 17 9 126 -71 117 -86 -4 -6 -3 -8 3 -5 14 9 55 -22
47 -35 -4 -7 -2 -8 4 -4 15 9 194 -163 185 -177 -3 -5 -2 -7 4 -4 6 4 29 -16
52 -43 42 -49 51 -67 29 -54 -9 5 -9 3 1 -9 7 -9 17 -15 21 -12 11 7 41 -30
38 -46 -2 -7 3 -13 9 -14 14 0 89 -101 168 -225 38 -61 52 -93 50 -113 -2 -15
1 -25 5 -22 5 3 6 13 3 23 -4 12 -3 14 5 7 34 -33 333 -629 336 -669 0 -13 4
-22 7 -21 8 5 147 -350 204 -519 25 -76 44 -145 41 -153 -3 -8 -2 -12 3 -9 10
7 34 -71 26 -84 -3 -6 -2 -10 4 -10 5 0 9 -8 8 -18 -1 -18 -3 -18 -39 -4 -21
8 -38 18 -38 21 0 4 -9 7 -21 8 -11 1 -41 9 -67 17 -82 27 -227 47 -393 54
-88 4 -163 4 -165 1 -2 -4 -36 -10 -76 -14 -158 -15 -393 -90 -558 -178 -123
-65 -388 -245 -411 -280 -4 -5 -13 -6 -20 -2 -8 5 -11 5 -7 0 12 -13 -11 -34
-30 -28 -11 3 -13 2 -5 -4 8 -6 -15 -32 -75 -85 -48 -42 -166 -157 -263 -255
-245 -248 -383 -376 -519 -485 -44 -35 -53 -38 -68 -27 -15 13 -16 12 -4 -3
11 -14 8 -20 -20 -41 -103 -76 -184 -127 -195 -123 -7 3 -12 1 -10 -5 3 -15
-167 -112 -313 -179 -225 -103 -449 -166 -695 -196 -365 -44 -736 50 -942 239
-57 52 -125 136 -118 147 3 4 -1 10 -9 13 -45 17 -71 236 -63 531 15 585 175
1232 461 1870 257 572 572 979 960 1241 54 36 105 64 112 61 8 -3 13 0 11 7
-1 7 6 11 15 11 10 -1 15 3 11 9 -4 6 0 8 11 4 9 -4 15 -3 12 2 -7 11 232 124
266 125 14 1 24 4 22 8 -3 4 33 19 78 33 294 93 637 132 938 105z m1822 -2706
c21 -4 36 -9 34 -13 -2 -3 17 -6 42 -7 55 -1 165 -32 157 -44 -3 -4 3 -6 12
-4 21 6 168 -64 200 -94 23 -23 48 -120 40 -153 -3 -10 -2 -17 2 -15 8 5 28
-126 36 -239 13 -184 14 -272 5 -415 -10 -160 -54 -458 -70 -474 -5 -5 -39 11
-82 40 -185 122 -396 176 -693 178 -185 1 -298 -14 -455 -62 -47 -14 -95 -26
-107 -26 -11 -1 -19 -4 -16 -8 2 -5 -1 -8 -7 -8 -26 0 -248 -114 -341 -175
-55 -36 -105 -62 -111 -59 -6 4 -8 3 -5 -3 9 -14 -19 -37 -33 -28 -6 4 -9 2
-8 -4 2 -5 -33 -40 -77 -76 -44 -37 -108 -93 -141 -126 -45 -43 -67 -57 -83
-54 -12 2 -19 0 -16 -6 4 -5 11 -6 17 -3 6 4 0 -7 -13 -25 -12 -17 -29 -31
-36 -31 -8 0 -11 -4 -8 -10 6 -9 -8 -14 -28 -11 -5 1 -6 -3 -2 -8 8 -14 -225
-252 -238 -244 -6 4 -7 1 -3 -6 9 -14 -20 -51 -39 -51 -7 0 -16 -7 -19 -16 -3
-8 -11 -12 -17 -8 -7 4 -9 3 -6 -3 4 -6 -3 -19 -13 -29 -11 -10 -35 -34 -52
-52 -17 -17 -33 -30 -36 -27 -7 7 -33 -16 -27 -25 2 -4 -26 -35 -64 -68 -146
-130 -379 -290 -402 -276 -8 4 -9 3 -5 -4 12 -20 -280 -150 -310 -138 -8 3
-13 2 -9 -3 3 -5 -46 -21 -107 -36 -137 -33 -311 -38 -420 -12 -170 41 -361
169 -558 373 -232 241 -395 527 -504 882 l-25 84 22 -15 c12 -9 21 -21 19 -27
-1 -6 2 -9 7 -6 5 3 25 -6 46 -20 61 -41 205 -110 282 -135 40 -12 70 -25 68
-28 -2 -3 11 -6 28 -7 18 0 77 -9 132 -18 117 -21 388 -24 530 -6 278 34 585
137 858 286 65 36 122 62 128 59 5 -4 8 -2 7 3 -4 14 151 114 164 106 6 -4 8
-3 5 4 -4 6 22 31 60 58 184 129 322 253 688 615 365 361 469 448 661 558 246
140 467 199 749 200 83 0 167 -2 187 -5z m-207 -1434 c141 -12 285 -47 387
-94 85 -39 161 -92 153 -107 -4 -5 -1 -8 7 -7 7 2 12 -3 10 -10 -1 -8 2 -11 6
-8 5 3 16 -2 25 -12 15 -16 14 -24 -13 -102 -17 -46 -33 -86 -37 -89 -5 -3 -9
-13 -11 -21 -6 -32 -35 -89 -43 -84 -5 3 -6 -2 -3 -10 3 -8 -4 -24 -15 -35
-12 -12 -19 -21 -16 -21 15 0 -92 -168 -164 -260 -82 -103 -115 -139 -125
-133 -6 3 -8 2 -3 -2 10 -11 -93 -116 -106 -108 -6 3 -7 2 -4 -4 13 -20 -223
-220 -244 -207 -7 4 -9 3 -5 -4 11 -19 -177 -139 -363 -232 -634 -316 -1472
-396 -2226 -211 -179 44 -181 45 -104 60 90 18 258 76 367 128 51 24 98 41
104 37 7 -4 8 -3 4 4 -4 7 10 20 36 33 71 36 216 136 338 234 120 96 210 183
575 553 335 340 467 446 690 556 145 72 212 96 347 127 78 17 129 23 298 37 8
1 69 -3 135 -8z"/>
</g>
</svg>
