<?xml version="1.0" standalone="no"?>
<!DOCTYPE svg PUBLIC "-//W3C//DTD SVG 20010904//EN"
 "http://www.w3.org/TR/2001/REC-SVG-20010904/DTD/svg10.dtd">
<svg version="1.0" xmlns="http://www.w3.org/2000/svg"
 width="1024.000000pt" height="1024.000000pt" viewBox="0 0 1024.000000 1024.000000"
 preserveAspectRatio="xMidYMid meet">
<metadata>
Created by potrace 1.16, written by Peter Selinger 2001-2019
</metadata>
<g transform="translate(0.000000,1024.000000) scale(0.100000,-0.100000)"
fill="#000000" stroke="none">
<path d="M4760 8622 c-35 -6 -86 -25 -114 -41 -28 -15 -57 -27 -64 -25 -7 1
-8 0 -1 -3 6 -3 -3 -20 -24 -42 -20 -20 -78 -106 -129 -191 -173 -286 -253
-408 -262 -403 -5 4 -6 1 -2 -5 10 -17 -92 -170 -112 -167 -9 1 -11 0 -4 -2 6
-3 12 -6 12 -9 0 -4 -96 -160 -135 -220 -11 -17 -65 -103 -120 -192 -65 -106
-102 -157 -108 -149 -5 7 -6 4 -3 -8 3 -11 1 -27 -4 -35 -9 -15 -13 -16 -46
-19 -8 0 -12 -6 -9 -11 5 -8 11 -7 21 1 8 6 14 9 14 5 0 -15 -105 -174 -112
-170 -4 3 -5 -2 -2 -10 3 -8 -4 -24 -15 -35 -12 -12 -21 -24 -20 -28 2 -18
-116 -241 -124 -236 -6 3 -7 1 -3 -5 7 -12 -13 -62 -26 -62 -4 0 -8 -9 -8 -19
0 -10 -23 -70 -51 -132 -28 -63 -78 -179 -111 -259 -33 -80 -64 -147 -69 -148
-5 -2 -7 -8 -4 -13 4 -5 -28 -89 -69 -186 -41 -98 -86 -213 -101 -255 -16 -46
-32 -75 -38 -71 -6 4 -7 1 -2 -6 7 -13 -13 -101 -24 -101 -3 0 -6 -10 -7 -22
0 -13 -13 -81 -27 -151 -15 -71 -30 -160 -33 -198 -4 -38 -10 -69 -13 -69 -3
0 -7 -127 -9 -283 -3 -345 -10 -507 -27 -657 -18 -151 -55 -321 -68 -313 -6 3
-7 1 -3 -6 10 -15 -18 -110 -60 -199 -42 -93 -134 -233 -147 -225 -6 3 -7 1
-4 -5 9 -14 -92 -134 -105 -125 -6 3 -8 2 -5 -4 8 -13 -52 -85 -64 -77 -5 3
-8 2 -7 -3 5 -14 -54 -83 -65 -76 -5 3 -7 2 -4 -4 7 -11 -36 -56 -46 -48 -4 3
-5 2 -2 -2 8 -10 -16 -33 -28 -26 -5 3 -7 1 -4 -4 4 -6 -64 -84 -151 -172 -86
-89 -162 -174 -168 -188 -27 -63 22 -140 96 -150 l43 -6 184 189 c101 104 188
188 193 187 6 -2 9 3 7 10 -1 6 4 11 11 9 8 -1 11 1 8 6 -3 5 38 56 91 113
104 113 219 257 265 332 17 26 34 44 40 40 7 -3 8 -1 4 5 -3 6 16 55 43 109
126 253 165 487 181 1088 6 215 14 391 19 393 4 1 6 14 3 28 -6 32 13 179 39
299 23 110 80 296 88 291 3 -2 7 8 7 22 1 15 46 133 102 262 55 129 128 304
162 387 37 91 67 150 73 146 5 -3 7 -1 4 4 -10 16 13 74 26 66 6 -4 7 -1 2 7
-8 13 43 130 57 130 5 0 6 5 3 10 -7 11 60 140 79 152 6 4 8 8 3 8 -4 0 6 27
23 60 17 34 35 58 40 55 6 -4 7 1 3 11 -5 13 -3 15 7 9 9 -5 11 -4 6 3 -9 15
68 145 79 134 4 -4 5 -2 2 4 -7 12 53 114 65 111 3 -1 10 2 15 7 5 5 3 6 -4 2
-19 -11 -16 -1 16 48 15 25 32 42 36 38 5 -4 5 -2 2 4 -3 6 9 34 27 63 31 47
60 85 42 54 -10 -19 -1 -16 15 4 12 14 12 16 0 8 -23 -14 -11 7 123 220 70
110 132 199 137 197 6 -1 8 2 4 8 -3 5 27 60 67 122 39 62 111 177 159 255 47
78 89 140 93 138 3 -3 4 -2 1 1 -8 12 44 103 82 143 47 48 97 61 158 40 22 -8
39 -20 38 -26 -1 -6 5 -10 15 -9 10 0 16 -6 16 -16 -1 -10 2 -16 6 -13 15 9
31 -23 25 -52 -4 -22 -3 -24 4 -8 7 17 10 15 16 -19 16 -82 -12 -229 -75 -386
-12 -30 -56 -128 -98 -218 -52 -112 -78 -158 -85 -150 -6 9 -7 7 -3 -6 7 -21
-213 -487 -226 -479 -4 2 -5 -2 -2 -10 3 -8 -1 -21 -9 -28 -7 -8 -14 -18 -14
-24 -3 -26 -68 -143 -76 -138 -6 3 -7 1 -3 -5 8 -13 -64 -163 -75 -156 -4 2
-7 -4 -6 -15 2 -25 -43 -122 -54 -115 -4 2 -11 -1 -15 -7 -5 -8 -3 -9 6 -4 16
10 17 15 -43 -158 -25 -70 -47 -124 -49 -120 -3 5 -3 2 -1 -6 2 -7 -5 -50 -16
-95 -26 -113 -29 -132 -45 -296 -12 -119 -22 -164 -52 -249 -30 -82 -39 -100
-46 -85 -7 16 -8 15 -4 -5 3 -14 -10 -74 -28 -135 -27 -89 -116 -458 -116
-481 0 -4 -5 -3 -11 1 -7 4 -9 0 -5 -13 4 -13 -9 -58 -35 -119 -66 -158 -65
-152 -35 -208 14 -27 26 -44 26 -38 0 6 10 8 22 4 21 -5 21 -6 2 -13 -28 -11
-6 -10 46 2 60 14 77 31 121 124 43 91 88 242 149 495 46 192 128 433 143 423
6 -3 7 -1 3 5 -7 11 13 62 24 62 4 0 7 6 7 14 0 22 56 145 64 140 4 -2 11 1
15 7 5 8 3 9 -6 4 -9 -6 -12 -4 -8 6 32 80 41 98 49 93 5 -3 6 3 2 12 -4 12
-3 15 5 10 8 -4 10 -2 6 8 -6 16 59 133 99 179 17 19 30 25 43 21 15 -5 16 -4
4 5 -35 24 113 55 150 31 11 -7 5 -8 -20 -5 -27 4 -30 3 -14 -4 12 -5 24 -16
27 -25 4 -9 14 -15 24 -15 17 1 17 2 0 6 -14 4 -16 8 -6 19 17 20 45 1 71 -49
20 -36 23 -57 23 -142 -1 -104 -21 -262 -36 -271 -4 -2 -6 -10 -3 -17 3 -8
-11 -105 -30 -218 -20 -112 -43 -258 -52 -324 -16 -120 -34 -463 -24 -468 3
-1 19 -81 35 -177 26 -152 30 -200 30 -365 0 -187 -17 -345 -37 -345 -5 0 -6
-5 -3 -11 8 -12 -25 -140 -34 -135 -3 2 -6 -8 -7 -23 -3 -89 -239 -468 -276
-444 -6 3 -8 1 -5 -4 4 -6 -14 -31 -40 -56 -39 -38 -50 -44 -63 -34 -13 10
-13 10 -3 -4 11 -14 5 -22 -39 -60 -29 -24 -56 -43 -61 -41 -4 1 -10 -5 -13
-13 -3 -8 -11 -12 -18 -8 -6 3 -8 3 -4 -2 4 -4 3 -14 -3 -22 -14 -16 -33 -18
-23 -1 4 7 3 8 -5 4 -6 -4 -9 -11 -6 -15 2 -5 -32 -41 -77 -82 -163 -147 -357
-383 -557 -676 -46 -68 -87 -120 -92 -117 -5 3 -17 0 -26 -6 -15 -9 -14 -10 6
-4 17 4 22 3 18 -7 -2 -8 -10 -13 -16 -11 -7 1 -10 -2 -7 -7 4 -5 -21 -51 -54
-101 -45 -69 -60 -101 -60 -128 0 -46 41 -102 76 -102 13 0 24 -6 24 -12 0 -9
3 -10 8 -2 4 6 19 14 34 18 17 4 41 26 66 61 22 30 42 52 46 50 3 -3 4 -2 2 1
-8 10 55 104 67 101 7 -1 11 4 9 11 -2 12 29 61 122 197 16 22 32 39 38 37 5
-1 7 2 4 7 -8 13 178 257 193 253 7 -1 10 2 6 8 -9 15 14 41 29 33 6 -3 8 -3
4 2 -10 11 72 106 84 98 6 -3 8 -2 5 4 -8 13 37 56 48 46 4 -5 5 -3 2 4 -12
19 246 249 265 237 5 -3 7 -1 6 4 -2 5 37 47 85 92 49 46 114 113 144 149 31
36 59 65 63 64 4 -1 7 4 7 10 0 7 16 35 35 62 20 28 54 83 76 123 22 40 43 73
47 72 3 -1 10 2 13 6 4 4 1 4 -7 -1 -16 -9 -19 -19 37 142 21 62 41 111 43
109 2 -2 4 8 5 22 0 15 9 72 19 127 16 81 19 142 19 320 0 198 -3 235 -28 365
-53 275 -47 409 41 930 89 527 94 601 49 731 -8 24 -12 47 -9 53 3 6 3 8 -2 4
-11 -11 -38 29 -29 44 4 6 3 8 -3 5 -5 -3 -19 6 -30 21 -52 71 -188 132 -290
132 -57 0 -144 -31 -210 -75 -29 -19 -53 -33 -53 -30 0 34 269 612 291 626 6
3 10 10 9 15 -3 18 64 143 73 137 6 -3 7 -1 3 5 -8 14 68 175 79 165 4 -5 5
-3 1 4 -8 14 24 84 35 77 4 -2 11 1 15 7 4 8 3 9 -4 5 -16 -10 -15 -3 5 38 9
19 21 32 26 29 6 -3 7 -1 3 5 -3 6 21 70 55 144 34 73 72 162 85 198 17 49 24
60 29 45 4 -11 15 -42 26 -69 16 -41 16 -47 3 -42 -8 3 -13 2 -9 -3 3 -5 1
-11 -5 -13 -6 -2 -1 -9 10 -15 16 -11 18 -10 14 2 -14 36 8 10 32 -37 22 -43
24 -55 14 -71 -7 -13 -8 -23 -2 -29 6 -6 12 -5 17 3 5 8 4 10 -3 5 -7 -4 -12
-3 -12 3 0 5 4 12 8 15 11 6 114 -202 107 -215 -4 -5 -2 -9 4 -9 11 0 33 -38
52 -86 9 -25 8 -26 -8 -14 -10 8 -6 1 9 -13 18 -18 25 -33 21 -45 -3 -9 -2
-14 2 -10 13 12 47 -51 40 -75 -4 -14 -3 -17 2 -10 12 17 85 -130 77 -154 -4
-13 -3 -14 4 -5 7 10 12 6 22 -17 6 -17 11 -33 10 -37 -1 -4 3 -10 8 -13 15
-10 43 -71 37 -81 -9 -14 6 -61 17 -54 6 4 6 10 -1 17 -6 6 -11 18 -11 26 1 9
9 0 20 -19 l18 -35 -26 -6 c-27 -7 -27 -7 3 -8 28 -1 34 -8 69 -80 24 -47 36
-84 31 -91 -5 -8 -4 -11 3 -7 13 9 76 -139 66 -155 -4 -6 -3 -8 3 -5 5 3 15
-10 21 -29 10 -35 10 -35 -8 -19 -11 10 -17 21 -15 25 3 4 -3 7 -12 6 -19 -1
-25 24 -8 37 6 5 4 7 -5 4 -8 -2 -14 -10 -12 -16 3 -15 -3 -14 -46 8 -93 47
-229 52 -312 12 -23 -11 -47 -19 -53 -17 -7 1 -9 1 -5 -1 4 -3 -16 -26 -45
-53 -36 -33 -55 -44 -60 -36 -6 7 -7 5 -3 -6 3 -10 -6 -39 -19 -65 -64 -124
-68 -238 -20 -517 25 -151 30 -202 15 -156 l-9 25 2 -28 c1 -15 7 -27 12 -27
11 1 22 -31 24 -67 1 -14 -5 -23 -13 -23 -20 0 -29 -17 -15 -26 8 -4 9 -3 5 4
-5 8 0 12 13 12 12 0 21 -4 21 -9 0 -5 9 -65 21 -132 12 -71 18 -145 15 -174
-3 -32 -2 -39 2 -20 10 38 32 -161 32 -281 0 -85 -16 -192 -31 -210 -5 -6 -6
-13 -4 -16 3 -3 -2 -47 -11 -99 -15 -89 -35 -521 -24 -514 7 4 34 -167 34
-217 0 -20 3 -35 6 -33 3 2 14 -26 24 -63 10 -37 33 -105 51 -151 27 -69 32
-89 23 -105 -10 -18 -9 -19 4 -8 13 10 17 10 22 -4 9 -24 7 -31 -5 -14 -9 13
-10 13 -6 0 2 -8 9 -15 16 -15 15 0 73 -104 64 -118 -4 -6 -1 -7 7 -2 10 6 12
4 7 -9 -4 -9 -3 -15 2 -12 12 8 34 -21 26 -34 -4 -6 -1 -9 7 -8 8 2 13 -7 12
-25 -1 -15 1 -25 4 -22 3 2 12 -1 21 -7 14 -11 15 -11 1 8 -8 11 0 5 17 -14
18 -19 30 -38 28 -42 -3 -4 3 -14 13 -21 16 -13 16 -13 2 6 -8 11 26 -20 75
-70 50 -49 89 -92 88 -96 -1 -4 3 -6 10 -5 15 1 87 -59 87 -73 0 -5 5 -13 12
-17 7 -5 8 -3 3 7 -8 12 -6 12 8 0 9 -7 14 -17 11 -22 -3 -5 1 -6 8 -4 17 7
190 -153 182 -167 -4 -6 -2 -8 4 -4 12 7 135 -126 138 -151 1 -8 6 -18 10 -21
4 -4 4 2 0 13 -4 12 8 3 28 -20 20 -22 33 -46 31 -53 -3 -7 -1 -10 4 -7 12 7
42 -35 34 -48 -3 -6 -1 -7 5 -3 13 8 55 -48 44 -59 -4 -5 -2 -5 4 -2 14 8 97
-110 88 -126 -4 -6 -4 -9 1 -5 4 4 14 3 22 -3 15 -13 18 -33 4 -24 -5 3 -13 0
-17 -7 -4 -7 -4 -10 1 -6 4 4 15 2 23 -5 13 -9 14 -9 8 1 -14 24 2 12 19 -14
9 -15 12 -23 6 -20 -6 4 -11 2 -11 -3 0 -6 7 -11 15 -11 12 0 135 -168 135
-184 0 -3 -8 -3 -17 0 -15 5 -15 4 -3 -4 8 -6 17 -9 22 -6 13 8 28 -32 16 -44
-13 -13 -2 -32 18 -32 8 0 12 5 9 10 -4 6 -11 7 -17 4 -7 -5 -8 -2 -3 5 5 9
21 -2 52 -38 41 -46 48 -51 87 -51 54 0 92 28 105 77 9 32 7 43 -14 81 -14 24
-22 48 -19 53 3 5 1 8 -4 7 -14 -4 -234 321 -226 333 3 5 1 8 -5 7 -14 -4 -82
92 -74 106 3 6 3 8 -2 4 -4 -4 -30 23 -57 60 -28 37 -59 77 -70 89 -12 12 -17
27 -13 34 5 7 4 10 -2 6 -15 -9 -57 39 -48 54 5 7 4 10 -2 6 -11 -7 -170 161
-166 175 2 4 -1 7 -7 5 -15 -3 -180 144 -173 156 3 5 2 7 -4 4 -12 -8 -179
126 -176 141 1 5 -7 18 -17 27 -11 10 -20 14 -20 10 0 -5 -13 4 -30 20 -16 15
-27 33 -23 38 3 6 1 7 -5 3 -13 -8 -74 68 -64 79 4 5 2 5 -4 2 -15 -9 -98 118
-88 134 4 8 3 9 -4 5 -23 -14 -114 198 -151 356 -59 249 -60 455 -5 748 50
262 42 460 -37 920 -74 432 -81 481 -77 575 4 103 22 145 78 182 39 27 107 30
150 8 17 -9 30 -18 30 -21 0 -2 -8 0 -19 5 -10 6 -21 7 -25 4 -13 -14 -4 -19
28 -17 25 2 39 -3 56 -21 12 -13 20 -27 17 -32 -3 -4 1 -17 9 -28 8 -10 14
-14 14 -9 0 6 -3 14 -7 20 -5 5 2 -1 13 -14 21 -24 85 -145 123 -235 21 -49
18 -79 -11 -90 -7 -3 1 -4 18 -2 29 3 33 -1 55 -47 13 -27 22 -62 21 -76 -1
-16 1 -22 6 -15 5 8 18 -13 35 -58 15 -38 25 -74 22 -80 -4 -5 -2 -9 3 -9 6 0
13 -11 16 -24 3 -13 9 -32 12 -43 5 -15 4 -16 -6 -3 -9 13 -11 12 -7 -5 2 -11
9 -19 16 -17 9 2 11 -3 8 -13 -4 -8 -3 -15 2 -15 11 0 45 -126 37 -139 -3 -5
-3 -11 2 -13 4 -1 27 -82 50 -178 43 -175 102 -339 144 -405 23 -34 48 -47
118 -59 25 -4 31 -3 20 4 -11 7 -11 10 -2 10 7 0 24 11 37 25 29 28 33 77 10
131 -8 19 -12 42 -9 52 4 13 3 14 -4 4 -13 -19 -64 120 -57 156 4 22 4 23 -3
7 -7 -15 -16 8 -36 100 -60 264 -97 397 -154 550 -56 152 -60 167 -72 300 -22
262 -73 462 -178 703 -23 51 -39 101 -36 110 4 12 3 13 -3 5 -6 -9 -33 37 -84
144 -40 86 -73 160 -71 165 1 4 -2 8 -7 8 -13 0 -82 150 -74 163 3 5 2 7 -4 4
-12 -8 -88 147 -79 162 4 6 3 10 -3 9 -18 -5 -265 526 -309 662 -42 131 -54
263 -29 323 48 114 160 147 252 75 33 -26 107 -137 99 -149 -3 -5 0 -9 6 -9 7
0 9 -7 6 -16 -3 -8 -2 -12 4 -9 11 7 71 -95 63 -108 -3 -6 -1 -7 5 -3 15 9 15
1 1 -27 -9 -21 -9 -21 5 -4 14 18 15 18 26 -3 10 -18 9 -21 -2 -15 -7 3 -5 0
4 -8 10 -8 14 -18 10 -22 -4 -5 -2 -5 5 -1 7 4 22 -11 39 -41 15 -27 33 -55
39 -63 19 -24 58 -97 41 -76 -14 17 -15 17 -11 -10 2 -16 4 -31 4 -33 1 -2 7
2 15 8 17 14 32 -2 20 -21 -4 -6 -3 -8 4 -4 5 3 20 -9 31 -28 24 -38 27 -50 9
-40 -9 5 -9 2 1 -9 15 -19 26 -23 15 -5 -4 7 -3 8 5 4 6 -4 9 -11 6 -16 -8
-13 14 -52 25 -45 5 3 14 -4 20 -15 6 -11 9 -20 6 -20 -3 0 6 -12 20 -27 14
-15 22 -33 19 -40 -2 -8 -1 -12 4 -8 5 3 23 -18 41 -46 17 -28 27 -48 21 -45
-5 3 -11 0 -14 -8 -4 -9 0 -12 12 -9 14 3 32 -17 76 -89 32 -51 65 -104 74
-118 15 -24 15 -25 -4 -10 -16 13 -16 10 4 -17 12 -18 26 -33 31 -33 13 0 52
-69 45 -80 -4 -6 -1 -9 7 -8 8 2 12 -4 10 -16 -2 -10 1 -15 6 -12 13 8 54 -62
46 -76 -5 -7 -2 -8 6 -3 9 5 10 2 6 -13 -4 -11 -2 -23 3 -27 7 -4 8 1 4 12
-12 36 16 -2 61 -81 25 -44 43 -83 40 -88 -3 -4 0 -8 5 -8 15 0 73 -119 65
-132 -4 -6 -3 -8 3 -5 14 9 88 -157 78 -174 -5 -8 -4 -10 3 -5 11 6 14 0 11
-20 0 -4 4 -10 10 -13 5 -4 23 -38 39 -76 149 -354 191 -462 187 -473 -3 -7
-1 -11 4 -8 12 8 43 -72 35 -86 -4 -7 -2 -8 4 -4 11 7 16 -7 15 -41 -1 -7 3
-11 7 -8 11 7 32 -54 23 -68 -3 -5 -1 -7 4 -4 12 7 34 -45 29 -66 -1 -7 -1 -8
2 -3 7 15 59 -124 97 -260 38 -138 69 -319 63 -370 -2 -19 0 -34 4 -34 4 0 8
-62 7 -137 -1 -85 -4 -128 -9 -113 l-8 25 -1 -27 c-1 -16 4 -28 9 -28 6 0 10
-30 9 -72 -1 -52 -3 -66 -9 -48 -7 22 -8 20 -9 -15 0 -27 2 -35 8 -26 6 9 11
-16 14 -70 3 -46 11 -158 16 -249 6 -91 18 -210 27 -265 9 -55 17 -133 19
-174 2 -42 8 -78 16 -85 9 -8 11 -7 6 6 -3 9 -8 34 -11 55 -6 36 -5 36 7 -7 8
-25 17 -58 21 -75 7 -29 7 -29 -8 -10 -15 19 -16 19 -7 -5 5 -14 14 -24 19
-23 6 1 17 -17 25 -40 8 -23 18 -51 23 -61 6 -15 4 -18 -7 -12 -8 4 -7 2 2 -6
22 -18 81 -136 74 -148 -3 -5 0 -12 6 -16 8 -5 9 -3 4 6 -6 9 -4 11 4 6 7 -5
10 -14 7 -22 -3 -7 0 -16 6 -20 7 -4 8 -3 4 4 -4 7 -5 12 -2 12 2 0 15 -17 28
-37 12 -21 51 -72 85 -114 36 -45 61 -84 59 -95 -2 -11 -1 -13 1 -6 3 7 9 10
14 6 5 -3 7 -10 3 -15 -3 -5 0 -8 8 -7 7 2 12 -3 10 -10 -1 -8 2 -11 6 -8 14
8 45 -31 36 -45 -4 -7 -3 -10 3 -6 11 7 50 -32 49 -48 -1 -5 -5 -17 -11 -25
-8 -13 -7 -13 8 -1 9 7 14 18 10 25 -3 6 3 3 15 -8 12 -10 19 -23 15 -29 -3
-5 -1 -7 4 -4 14 9 47 -29 37 -44 -4 -8 -3 -10 4 -5 13 8 99 -80 94 -96 -1 -5
1 -7 6 -4 9 6 60 -42 54 -51 -2 -2 0 -8 4 -11 4 -4 4 0 -1 8 -4 8 8 -1 28 -19
21 -19 37 -41 37 -48 0 -7 6 -12 13 -10 6 1 11 -4 10 -10 -2 -7 3 -12 10 -10
6 1 11 -4 9 -11 -1 -8 2 -11 6 -8 15 9 63 -55 52 -69 -7 -8 -3 -11 13 -10 12
1 36 -9 53 -22 46 -35 89 -31 130 13 38 40 46 93 19 130 -8 12 -11 25 -7 29 4
5 2 5 -4 2 -13 -8 -87 66 -77 77 5 4 3 6 -4 4 -7 -2 -45 31 -85 73 -40 42
-126 131 -191 198 -70 73 -115 127 -111 134 4 7 3 9 -1 4 -5 -4 -21 5 -37 20
-31 29 -39 54 -10 32 15 -13 16 -12 3 3 -7 10 -17 15 -22 13 -18 -12 -205 237
-193 257 4 6 3 8 -4 4 -13 -8 -64 97 -57 116 3 8 -2 22 -10 33 -15 19 -16 19
-5 -3 7 -13 9 -26 7 -29 -8 -7 -46 102 -72 204 -55 213 -73 417 -77 868 -1
193 -6 361 -10 375 -3 14 -16 89 -28 168 -12 78 -33 181 -46 229 -14 47 -23
92 -20 100 3 8 2 12 -2 9 -4 -2 -16 19 -26 47 -10 29 -36 96 -57 150 -21 55
-37 103 -34 107 3 5 1 10 -5 12 -5 1 -70 148 -145 326 -169 403 -216 508 -315
701 -44 84 -77 158 -73 164 3 6 1 7 -5 3 -7 -4 -18 6 -27 25 -9 17 -71 119
-136 225 -67 108 -117 199 -113 206 4 6 3 8 -3 5 -11 -7 -216 307 -216 331 0
6 -3 10 -6 7 -8 -9 -102 145 -95 157 4 6 3 8 -3 5 -14 -9 -197 279 -187 294 4
8 3 9 -4 5 -13 -8 -48 51 -43 73 1 7 -2 10 -7 7 -14 -8 -65 81 -56 97 4 6 4 9
-1 5 -11 -10 -47 50 -39 64 4 6 3 8 -3 5 -11 -7 -70 62 -65 76 1 5 -1 6 -6 4
-4 -3 -32 10 -61 28 -30 19 -73 37 -97 41 -24 3 -44 9 -44 13 0 3 -29 6 -64 6
-36 1 -62 -3 -60 -7 3 -4 -4 -8 -15 -8 -11 0 -49 -15 -85 -34 -35 -19 -68 -31
-72 -27 -4 3 -4 1 -1 -5 8 -14 -26 -47 -37 -37 -4 5 -7 4 -6 -2 6 -28 -4 -25
-42 12 -49 47 -107 80 -158 90 -29 5 -31 7 -15 14 32 11 -73 6 -145 -9z"/>
</g>
</svg>
