<?xml version="1.0" standalone="no"?>
<!DOCTYPE svg PUBLIC "-//W3C//DTD SVG 20010904//EN"
 "http://www.w3.org/TR/2001/REC-SVG-20010904/DTD/svg10.dtd">
<svg version="1.0" xmlns="http://www.w3.org/2000/svg"
 width="1024.000000pt" height="1024.000000pt" viewBox="0 0 1024.000000 1024.000000"
 preserveAspectRatio="xMidYMid meet">
<metadata>
Created by potrace 1.16, written by Peter Selinger 2001-2019
</metadata>
<g transform="translate(0.000000,1024.000000) scale(0.100000,-0.100000)"
fill="#000000" stroke="none">
<path d="M4988 8559 c-10 -5 -18 -7 -18 -3 0 4 -14 -11 -31 -32 -17 -22 -36
-39 -42 -39 -7 0 -12 -6 -12 -12 0 -11 -111 -138 -291 -332 -33 -36 -80 -88
-104 -114 -33 -36 -46 -45 -53 -35 -6 9 -7 8 -3 -4 3 -12 -27 -52 -101 -133
-91 -100 -108 -114 -122 -103 -14 11 -14 11 -3 -4 11 -14 5 -25 -49 -85 -36
-40 -69 -67 -78 -65 -12 2 -13 1 -3 -6 9 -6 -12 -35 -75 -103 -170 -185 -227
-244 -234 -242 -4 1 -6 -61 -5 -137 0 -77 4 -140 7 -140 3 0 11 -105 18 -232
7 -128 16 -275 20 -326 4 -52 3 -96 -1 -98 -4 -3 -8 -13 -7 -22 0 -14 2 -13 8
3 7 18 13 -55 26 -305 2 -41 6 -111 9 -155 3 -44 8 -124 12 -178 l6 -97 -178
86 c-99 47 -185 88 -191 91 -7 3 -13 8 -13 12 0 4 -6 8 -14 8 -23 0 -296 136
-290 145 3 4 -1 5 -9 3 -18 -8 -358 156 -350 168 4 6 -1 8 -11 4 -11 -4 -67
17 -155 58 -75 36 -147 65 -159 65 -25 0 -72 -41 -72 -62 0 -9 -3 -9 -11 2 -9
12 -10 12 -5 -3 8 -25 -4 -68 -17 -60 -6 3 -7 1 -3 -6 6 -9 -22 -127 -48 -206
-2 -5 -4 -12 -5 -15 -1 -3 -13 -45 -27 -95 -14 -49 -30 -107 -36 -127 -6 -21
-14 -35 -19 -32 -5 3 -6 -1 -3 -9 3 -8 -12 -72 -33 -143 -30 -103 -39 -123
-45 -103 -6 20 -7 19 -3 -7 4 -31 -6 -75 -66 -282 -20 -69 -36 -107 -41 -100
-22 37 10 -77 38 -134 37 -74 40 -83 22 -72 -7 4 -8 3 -4 -5 4 -6 11 -9 15 -7
11 7 43 -63 35 -76 -4 -6 -3 -8 3 -5 16 10 44 -58 30 -72 -9 -9 -7 -13 9 -17
21 -6 101 -141 90 -152 -3 -2 -10 7 -16 22 -5 15 -14 24 -20 21 -5 -3 -7 0 -4
8 3 8 1 17 -4 21 -15 9 -7 -27 12 -57 10 -15 24 -27 31 -27 7 0 27 -28 45 -62
19 -35 27 -58 19 -53 -8 6 -7 3 2 -6 9 -9 36 -52 58 -97 39 -79 52 -113 30
-82 -9 13 -10 13 -6 0 2 -8 9 -14 15 -13 14 3 225 -415 216 -429 -5 -7 -3 -8
6 -3 9 5 10 2 6 -13 -4 -11 -2 -23 3 -27 7 -3 8 0 5 9 -11 27 5 17 21 -13 8
-17 12 -38 9 -48 -4 -13 -3 -15 4 -5 7 11 10 10 16 -3 3 -9 3 -22 -1 -27 -3
-6 -2 -8 4 -5 13 8 36 -41 27 -55 -5 -7 -2 -8 6 -3 10 6 12 4 7 -9 -4 -9 -3
-15 2 -12 11 7 23 -22 14 -36 -3 -6 -1 -8 4 -5 6 4 14 0 17 -9 9 -22 8 -26 -6
-18 -7 4 -8 3 -4 -5 4 -6 11 -9 16 -6 11 7 22 -24 13 -37 -3 -6 -1 -8 4 -5 6
4 14 0 17 -9 9 -23 8 -26 -6 -18 -8 4 -10 3 -5 -2 5 -5 14 -9 20 -9 7 0 11
-11 10 -23 -2 -15 1 -21 9 -16 7 5 8 3 2 -7 -13 -22 -13 -36 2 -36 7 0 11 4 8
9 -3 4 -1 8 3 8 7 0 103 -182 103 -196 0 -3 -5 -2 -12 2 -7 4 -8 3 -4 -5 4 -6
12 -8 18 -5 8 5 9 1 5 -10 -4 -9 -3 -15 2 -12 4 3 14 -7 22 -22 7 -15 15 -31
18 -36 2 -5 -1 -6 -7 -2 -6 4 -10 -1 -9 -13 1 -16 4 -18 16 -8 12 10 14 9 8
-5 -3 -10 -2 -17 4 -15 5 1 47 -71 92 -161 77 -151 87 -166 129 -190 30 -18
44 -33 42 -45 -1 -9 2 -15 7 -11 5 3 7 10 4 15 -10 15 2 11 95 -36 50 -25 90
-50 90 -56 0 -5 4 -8 9 -4 5 3 55 -18 111 -46 56 -28 119 -53 141 -56 21 -3
36 -9 33 -14 -3 -5 -1 -9 5 -9 5 0 11 6 13 12 4 10 69 14 265 17 l260 3 46
-48 45 -49 119 -19 c65 -10 145 -23 178 -28 33 -4 69 -10 80 -12 23 -5 407
-74 444 -80 44 -7 69 12 142 108 39 53 75 93 80 90 5 -3 6 2 3 10 -7 19 -3 19
47 5 21 -7 36 -15 34 -20 -3 -4 -1 -10 5 -14 5 -3 10 -2 10 3 0 6 9 8 21 5 15
-4 17 -8 8 -14 -8 -5 0 -7 21 -7 21 1 136 -34 280 -85 175 -62 253 -86 272
-81 15 3 31 5 34 4 4 -1 10 3 13 8 9 14 341 185 341 175 0 -4 5 0 11 10 7 12
18 16 32 13 12 -3 16 -3 8 0 -8 4 39 34 115 75 132 70 151 78 138 57 -5 -7 -3
-8 5 -4 7 5 10 10 8 12 -2 2 11 20 29 39 18 19 78 120 134 225 61 113 106 187
112 183 7 -3 8 -1 4 5 -9 15 125 262 138 255 5 -4 6 -1 2 5 -4 6 22 64 57 129
221 411 262 481 270 476 6 -3 7 -1 3 6 -4 6 12 46 35 89 56 104 132 236 139
242 3 3 6 10 7 15 1 6 65 127 142 270 83 153 141 271 141 287 0 15 -45 211
-100 435 -56 225 -116 473 -136 553 -52 217 -53 219 -80 237 -28 18 6 24 -429
-79 -93 -23 -186 -41 -207 -42 -20 0 -34 -4 -32 -7 6 -10 -314 -82 -327 -73
-7 4 -10 3 -6 -3 9 -14 -96 -36 -136 -29 -22 4 -26 3 -12 -2 17 -8 16 -9 -10
-15 -39 -8 -42 -11 -99 -82 -27 -33 -52 -59 -56 -58 -4 1 -7 -4 -7 -12 0 -19
-86 -124 -97 -117 -5 3 -6 1 -3 -5 8 -12 -40 -79 -54 -76 -5 2 -8 0 -7 -5 4
-15 -23 -52 -34 -46 -6 4 -8 3 -5 -3 4 -6 -21 -46 -54 -89 -71 -92 -72 -93
-65 -74 3 8 10 96 16 195 6 99 12 207 15 240 2 33 7 112 10 175 4 63 8 140 10
170 4 46 16 248 50 815 3 50 15 233 25 408 14 229 17 324 9 338 -8 15 -7 25 2
37 11 14 11 15 -1 5 -15 -14 -3 -24 -267 220 -89 83 -160 154 -157 159 3 5 2
7 -3 6 -13 -5 -103 73 -97 83 3 5 1 8 -4 7 -8 -2 -105 80 -192 162 -9 8 -70
65 -135 125 -66 61 -122 112 -125 115 -3 3 -56 52 -118 109 -103 95 -112 106
-96 118 15 11 16 13 2 13 -9 0 -18 -5 -20 -12 -3 -8 -11 -7 -28 5 -28 19 -47
21 -72 6z m21 -284 c5 -22 43 -188 84 -370 44 -191 74 -343 71 -360 -3 -22 -2
-25 4 -11 6 15 13 -1 26 -62 10 -45 15 -86 12 -91 -3 -5 -1 -11 6 -13 10 -4
10 -13 1 -44 -10 -33 -10 -36 1 -21 13 17 15 15 21 -22 4 -22 3 -46 -1 -52 -4
-8 -3 -9 4 -5 7 4 12 5 12 3 0 -2 27 -127 60 -278 33 -150 58 -280 55 -287 -3
-7 0 -10 5 -7 6 3 10 -5 10 -19 0 -14 -5 -26 -11 -26 -5 0 -7 -5 -4 -10 4 -6
10 -8 15 -5 4 3 10 -1 13 -8 4 -10 -2 -13 -16 -11 -12 2 -67 8 -122 14 -141
16 -153 18 -310 40 -77 11 -204 28 -282 39 l-143 20 -54 47 c-31 26 -52 52
-49 57 3 6 2 7 -4 4 -12 -8 -473 409 -473 428 0 20 121 146 133 138 5 -3 7 -2
4 4 -9 14 202 245 216 236 5 -3 7 -1 4 4 -8 13 162 205 174 197 5 -3 8 -1 7 4
-4 14 192 232 205 229 6 -1 11 3 12 10 0 17 168 202 177 196 5 -2 7 -1 6 4 -2
5 22 37 52 72 l55 63 7 -33 c5 -19 12 -52 17 -74z m363 -179 c64 -60 114 -114
111 -119 -3 -6 -2 -7 4 -4 5 3 22 -5 39 -19 16 -14 22 -22 14 -18 -8 4 -12 4
-8 0 3 -4 9 -6 12 -4 3 2 21 -12 40 -31 29 -29 33 -37 23 -49 -10 -13 -8 -14
14 -9 21 5 32 -1 65 -35 21 -22 33 -37 25 -33 -9 5 -12 4 -7 -3 4 -7 16 -12
26 -12 10 0 34 -18 53 -40 19 -22 37 -40 41 -40 16 0 135 -123 129 -133 -3 -6
-1 -7 4 -4 12 7 117 -82 108 -91 -3 -3 -11 1 -18 9 -6 8 -11 12 -10 10 2 -2
-2 -9 -7 -16 -7 -9 -1 -11 23 -10 34 3 71 -21 60 -38 -3 -5 -1 -7 4 -4 6 4 18
-2 27 -11 15 -17 14 -20 -13 -46 -19 -18 -34 -25 -43 -20 -10 6 -11 5 -1 -7
10 -13 7 -21 -20 -47 -18 -18 -36 -30 -40 -27 -4 3 -5 2 -2 -1 6 -9 -9 -28
-89 -118 -59 -65 -71 -74 -85 -64 -14 11 -14 11 -3 -3 10 -14 6 -23 -29 -63
-22 -25 -45 -44 -50 -41 -5 4 -6 0 -4 -7 5 -13 -57 -83 -73 -83 -4 0 -7 -5 -8
-11 -1 -7 -42 -57 -90 -113 -64 -73 -90 -96 -92 -84 -8 40 -207 934 -258 1157
-30 132 -52 246 -49 253 2 8 1 12 -4 9 -5 -3 -14 21 -20 55 -7 33 -20 91 -31
130 l-18 70 66 -63 c37 -35 120 -112 184 -172z m795 -1018 c-15 -260 -57 -947
-61 -998 -3 -30 -8 -102 -11 -160 -3 -58 -12 -213 -20 -345 -8 -132 -17 -280
-20 -330 -3 -49 -10 -155 -16 -235 -5 -80 -12 -197 -15 -260 -3 -63 -8 -122
-11 -130 -3 -8 -5 -27 -4 -41 2 -24 -4 -140 -40 -734 -7 -104 -16 -197 -21
-205 -6 -10 -8 -7 -4 12 5 20 3 26 -7 22 -9 -3 -12 -23 -12 -64 2 -70 15 -94
16 -29 0 24 3 38 6 31 2 -7 0 -97 -7 -200 -20 -324 -18 -312 -52 -362 -168
-242 -241 -339 -250 -334 -7 4 -8 2 -4 -4 8 -13 -91 -158 -106 -154 -5 1 -7
-2 -3 -7 8 -14 -65 -112 -77 -104 -7 3 -8 1 -4 -5 9 -15 -34 -73 -47 -65 -6 3
-7 1 -3 -5 6 -11 -13 -52 -24 -52 -3 0 -5 15 -3 33 1 17 10 199 18 402 16 372
18 411 30 760 4 105 8 196 11 204 2 7 6 90 9 185 2 94 9 275 14 401 6 127 13
316 16 420 3 105 8 224 10 265 2 41 9 221 16 400 6 179 15 329 20 334 4 5 3
18 -2 28 -7 12 -8 55 -3 116 4 53 8 124 8 157 1 33 6 152 11 264 l8 205 35 38
c19 21 38 35 43 32 5 -3 8 0 7 8 -2 7 3 12 10 10 8 -1 11 2 7 7 -3 6 57 79
133 163 76 84 151 167 166 185 16 18 33 30 39 26 6 -3 7 -2 4 4 -8 13 82 115
96 106 6 -3 7 -1 3 5 -6 10 78 112 92 112 3 0 2 -51 -1 -112z m-2187 -75 c19
-20 30 -34 23 -30 -6 4 -14 3 -18 -2 -3 -6 4 -8 15 -6 25 5 103 -61 93 -79 -3
-6 -3 -8 2 -4 11 11 36 -12 28 -25 -3 -5 -1 -7 4 -4 14 9 65 -32 57 -45 -4 -6
-3 -8 3 -5 12 7 179 -141 175 -155 -1 -5 2 -7 7 -4 24 15 33 -29 37 -171 12
-512 13 -890 1 -903 -9 -10 -9 -11 1 -6 9 6 12 -17 12 -101 0 -73 -3 -103 -10
-93 -7 11 -10 8 -10 -16 0 -16 6 -36 12 -42 8 -8 9 -15 3 -20 -14 -10 -19 -44
-7 -51 6 -4 12 -537 16 -1376 4 -753 10 -1380 13 -1392 12 -51 -12 -40 -86 39
-118 126 -171 188 -171 199 0 6 -4 7 -10 4 -12 -8 -23 37 -18 75 3 17 1 30 -4
30 -5 0 -8 43 -6 95 2 52 0 95 -4 95 -5 0 -8 31 -8 70 0 38 -4 136 -10 217 -5
82 -14 229 -20 328 -6 99 -13 214 -15 255 -3 41 -12 192 -20 335 -18 326 -24
415 -35 590 -23 351 -34 579 -34 688 0 65 -3 110 -7 100 -3 -10 -9 45 -13 122
-3 77 -11 210 -16 295 -31 466 -60 962 -60 1012 l0 58 23 -20 c12 -10 38 -36
57 -57z m698 -460 c29 -3 55 -10 59 -16 4 -6 1 -7 -7 -2 -9 5 -11 4 -6 -3 4
-7 14 -12 22 -12 8 0 12 5 9 10 -3 6 -3 10 2 10 19 0 259 -32 273 -37 8 -2 40
-6 70 -8 30 -2 102 -11 160 -19 58 -9 112 -16 120 -16 12 -1 12 -3 -2 -14 -18
-13 -25 -37 -10 -35 30 5 32 -3 32 -117 0 -89 -3 -114 -12 -108 -9 5 -9 3 1
-9 9 -11 11 -31 8 -59 -4 -24 -9 -149 -13 -278 -4 -129 -9 -237 -13 -240 -3
-3 -6 -81 -6 -175 -1 -180 -12 -546 -20 -605 -2 -19 -7 -133 -10 -253 -4 -120
-8 -226 -10 -235 -2 -9 -4 -79 -4 -155 -1 -98 -4 -136 -12 -131 -8 4 -9 -1 -4
-16 10 -31 -5 -431 -16 -425 -4 3 -5 -32 -2 -77 3 -46 0 -184 -6 -308 -11
-236 -21 -457 -26 -575 -7 -201 -17 -401 -20 -411 -2 -8 -16 -9 -47 -3 -24 5
-61 12 -83 15 -22 2 -89 13 -150 23 -60 11 -145 25 -188 32 -53 8 -74 15 -65
21 9 6 6 7 -10 3 -12 -4 -46 -3 -75 0 l-52 7 -1 151 c-1 84 -4 532 -7 997 -7
1012 -15 2100 -22 2674 l-5 419 48 -7 c26 -4 71 -10 100 -13z m-1986 -567 c-3
-5 0 -6 5 -3 10 6 261 -105 273 -121 3 -4 14 -9 25 -10 11 -2 33 -11 48 -19
27 -14 28 -15 10 -29 -17 -14 -17 -14 4 -5 25 13 77 -5 66 -22 -4 -6 0 -8 11
-4 20 8 147 -53 139 -66 -3 -6 -1 -7 5 -3 15 9 103 -34 95 -47 -3 -6 -1 -7 6
-3 17 11 83 -22 75 -36 -5 -8 -1 -9 9 -5 23 9 69 -13 63 -30 -3 -7 -1 -13 4
-13 6 0 10 4 10 10 0 5 7 7 15 4 8 -4 12 -11 8 -17 -3 -6 -1 -7 5 -3 12 7 182
-72 182 -86 0 -4 6 -5 13 -3 6 3 19 1 27 -5 12 -8 11 -13 -11 -37 -14 -15 -70
-77 -124 -138 -53 -60 -102 -109 -109 -107 -6 2 -8 0 -4 -4 8 -7 -10 -31 -114
-146 -57 -62 -74 -76 -94 -72 -13 2 -24 0 -24 -5 0 -6 9 -8 20 -6 23 5 26 -7
5 -25 -19 -16 -30 -8 -61 48 -15 26 -72 120 -126 210 -55 90 -96 167 -92 174
4 6 3 9 -2 5 -12 -7 -145 206 -141 225 2 7 2 9 -1 5 -2 -5 -13 4 -23 19 -10
15 -16 31 -13 36 3 4 0 16 -6 25 -10 16 -11 16 -6 -2 7 -26 7 -26 -104 154
-50 79 -87 148 -83 154 3 5 2 8 -3 5 -5 -3 -17 5 -27 18 l-18 24 34 -17 c19
-10 32 -22 29 -27z m-111 -98 c39 -68 81 -139 92 -158 16 -26 17 -32 5 -22
-11 9 -18 10 -23 2 -4 -6 -3 -10 2 -9 29 7 92 -69 77 -92 -4 -7 -3 -9 3 -6 6
4 20 -8 31 -27 19 -32 19 -33 1 -29 -10 3 -19 0 -19 -6 0 -5 6 -8 14 -5 19 7
59 -33 52 -52 -3 -8 -2 -13 3 -10 9 6 111 -155 111 -173 0 -5 4 -11 8 -13 16
-7 53 -78 46 -89 -4 -7 -3 -9 4 -5 13 8 63 -73 67 -109 1 -14 6 -29 10 -33 5
-4 5 2 1 13 -13 37 14 0 70 -92 42 -69 50 -89 37 -91 -8 -2 -18 0 -22 5 -3 4
-44 9 -91 9 -47 1 -157 8 -245 17 -88 9 -231 21 -317 28 -86 7 -155 16 -152
21 8 13 -10 10 -25 -4 -8 -7 -11 -8 -8 -3 3 6 -17 10 -54 9 -58 -1 -59 -1 -52
25 3 14 10 35 16 46 6 11 11 27 12 36 3 36 110 387 116 383 4 -2 11 1 15 7 4
8 3 9 -4 5 -7 -4 -12 -4 -12 1 0 4 25 97 57 206 38 134 59 194 65 185 6 -9 7
-6 3 9 -5 19 21 143 31 143 2 0 35 -55 75 -122z m4994 -172 c-11 -8 -24 -12
-29 -9 -5 4 -6 1 -2 -5 9 -15 -75 -104 -92 -97 -7 2 -10 0 -7 -5 7 -11 -382
-426 -396 -422 -5 1 -8 -2 -7 -6 3 -9 -161 -192 -171 -192 -8 0 -74 238 -75
272 -1 14 -4 24 -7 22 -6 -3 -69 215 -69 240 0 16 54 31 71 20 7 -4 9 -3 6 2
-7 13 157 49 174 39 7 -5 10 -4 6 2 -6 10 3 13 258 72 94 22 208 48 255 59
107 25 108 25 85 8z m189 -115 c15 -57 24 -113 20 -124 -3 -11 -2 -17 3 -14 5
4 44 -132 87 -305 60 -243 74 -313 64 -320 -10 -6 -9 -8 3 -8 11 0 20 -14 27
-40 5 -23 6 -40 1 -40 -5 0 -9 -5 -9 -11 0 -5 4 -8 9 -5 5 3 11 -3 14 -14 3
-13 -1 -24 -13 -30 -25 -13 -33 -13 -24 2 4 7 3 8 -5 4 -6 -4 -9 -11 -6 -16 7
-11 -49 -41 -67 -37 -7 2 -9 2 -4 -1 9 -5 -132 -91 -150 -92 -15 0 -393 159
-404 170 -3 3 -11 6 -18 8 -21 4 -326 133 -335 142 -11 10 82 112 95 104 5 -3
7 -1 6 4 -5 15 363 402 375 395 5 -3 7 -1 4 4 -6 9 292 337 299 330 1 -1 14
-49 28 -106z m-1163 -209 c-28 -7 -34 -20 -7 -17 14 2 29 -1 32 -6 6 -11 54
-186 54 -197 -1 -18 -24 36 -27 62 -5 45 -12 43 -10 -3 1 -22 4 -41 8 -41 4 0
11 -9 14 -20 4 -11 10 -18 14 -15 12 7 53 -143 46 -168 -4 -15 -3 -18 3 -9 14
20 24 -26 11 -50 -5 -10 -7 -22 -4 -27 3 -5 -1 -11 -7 -14 -7 -2 -9 -8 -5 -13
11 -11 27 15 20 33 -3 7 -1 13 5 13 13 0 24 -47 17 -71 -4 -11 -11 -16 -17
-13 -6 4 -8 2 -5 -3 9 -15 -123 -244 -136 -236 -5 3 -7 1 -4 -5 9 -13 -142
-274 -153 -267 -5 3 -12 0 -16 -6 -4 -8 -3 -9 4 -5 7 4 12 4 12 1 0 -13 -34
-65 -43 -65 -4 0 -6 -3 -3 -8 7 -11 -60 -113 -69 -104 -5 4 -5 2 -1 -5 3 -6
-24 -62 -60 -125 -37 -62 -85 -143 -107 -180 -22 -38 -44 -65 -50 -61 -5 3 -7
2 -4 -4 5 -8 -30 -93 -39 -93 -1 0 1 12 6 28 4 15 11 90 14 167 3 77 14 280
25 450 11 171 23 351 26 400 6 102 7 110 23 147 11 26 29 43 47 43 5 0 10 7
10 16 0 23 156 220 168 212 6 -3 7 -1 3 5 -9 15 43 84 57 75 5 -3 7 -1 4 4 -9
15 82 135 95 127 7 -4 8 -2 4 4 -4 7 6 28 21 47 23 29 29 32 34 17 4 -11 1
-18 -10 -20z m-2716 -278 c12 -186 29 -491 48 -821 1 -24 -1 -43 -5 -43 -5 0
-8 -5 -8 -11 0 -5 4 -8 8 -5 8 4 20 -164 57 -784 8 -135 18 -274 21 -310 5
-61 -3 -45 -111 240 -125 329 -322 853 -362 963 -13 37 -21 73 -17 80 4 6 3 9
-1 4 -10 -8 -74 153 -78 195 -1 14 -5 24 -9 22 -3 -2 -17 29 -31 69 l-25 74
246 281 c136 154 248 280 249 278 2 -1 10 -106 18 -232z m-1495 -291 c8 -2 60
-7 115 -9 55 -3 116 -7 135 -9 19 -2 79 -7 133 -11 69 -5 100 -11 104 -20 3
-8 9 -14 15 -14 5 0 6 5 3 10 -8 13 12 13 165 -1 157 -13 179 -17 159 -30 -10
-6 -8 -9 12 -9 29 0 20 19 185 -428 69 -186 69 -186 55 -178 -5 4 -7 -3 -4
-15 4 -16 8 -17 14 -7 5 7 9 10 9 7 0 -7 40 -118 114 -313 35 -92 54 -157 51
-170 -4 -14 -3 -17 3 -8 13 19 36 -39 27 -70 -4 -14 -3 -18 3 -10 10 15 95
-207 87 -229 -3 -9 -1 -26 5 -40 9 -21 10 -20 5 11 l-5 35 19 -40 c21 -42 27
-70 11 -45 -8 13 -10 12 -10 -2 0 -10 6 -18 14 -18 18 0 59 -110 51 -135 -5
-15 -4 -16 3 -6 7 10 12 5 22 -23 6 -19 8 -41 4 -47 -4 -7 -3 -9 4 -5 13 8 47
-89 36 -105 -4 -7 -3 -9 3 -6 6 4 16 -7 22 -25 14 -39 14 -41 -1 -32 -7 4 -8
3 -4 -5 4 -6 11 -9 15 -6 11 6 41 -75 37 -100 -2 -11 -1 -14 1 -7 6 17 32 -15
33 -40 0 -10 8 -18 18 -18 9 -1 36 -24 60 -53 23 -29 61 -72 84 -97 l42 -45
-105 -6 c-57 -4 -162 -7 -232 -8 l-129 -1 -109 57 c-75 39 -105 59 -97 66 9 5
6 6 -7 3 -28 -8 -221 97 -218 119 0 9 -2 14 -5 11 -7 -8 -26 26 -238 435 -108
208 -183 363 -178 370 4 7 3 9 -4 5 -13 -8 -166 290 -156 306 4 6 3 9 -2 5 -5
-3 -55 83 -111 191 -289 559 -402 786 -396 795 3 6 1 7 -4 4 -6 -4 -13 2 -16
12 -4 18 0 19 67 14 39 -2 78 -7 86 -10z m4580 -95 c55 -23 98 -46 97 -51 -1
-5 4 -12 12 -15 9 -3 11 0 6 8 -10 16 -15 17 117 -41 54 -23 95 -46 92 -50 -3
-5 1 -6 9 -3 14 5 272 -100 294 -120 10 -9 5 -24 -23 -69 -19 -31 -39 -57 -43
-57 -4 0 -8 -6 -8 -12 0 -20 -144 -233 -155 -230 -5 1 -7 -2 -4 -6 7 -11 -241
-398 -253 -395 -5 1 -8 -5 -7 -15 0 -9 -5 -16 -12 -14 -8 1 -11 -2 -7 -7 8
-13 -24 -63 -36 -55 -5 3 -7 -1 -4 -8 7 -17 -198 -331 -210 -321 -4 4 -5 2 -1
-4 7 -13 -17 -57 -26 -48 -2 3 -5 -1 -5 -8 0 -21 -55 -97 -66 -90 -6 3 -7 1
-3 -5 11 -18 -151 -265 -167 -255 -6 3 -7 1 -3 -5 7 -11 -60 -122 -74 -122 -4
0 -7 -6 -7 -14 0 -21 -147 -235 -157 -228 -5 3 -6 0 -2 -6 10 -17 -163 -264
-181 -258 -8 3 -19 6 -24 6 -6 0 -7 5 -3 12 4 7 3 8 -4 4 -10 -6 -505 154
-519 167 -3 3 15 34 39 69 24 35 87 124 139 198 52 74 135 193 183 263 l88
128 10 162 c6 89 13 164 17 167 3 3 7 13 7 22 1 9 70 132 154 273 109 181 156
252 163 243 6 -9 7 -7 3 6 -8 23 122 248 137 239 6 -3 7 -1 3 5 -9 14 168 315
179 305 4 -5 5 -3 2 3 -4 7 25 67 64 133 56 95 74 119 84 111 10 -8 15 -8 21
1 4 7 3 9 -3 6 -6 -4 -13 0 -17 8 -8 21 -7 20 104 -27z m922 -262 c-20 -35
-41 -61 -46 -58 -5 3 -6 0 -3 -5 7 -11 -36 -91 -263 -503 -59 -107 -129 -233
-154 -280 -25 -47 -50 -84 -56 -82 -6 1 -10 -4 -8 -11 4 -18 -33 -98 -43 -92
-4 3 -11 0 -15 -6 -4 -8 -3 -9 4 -5 18 11 15 3 -26 -73 -21 -39 -42 -68 -47
-64 -4 5 -5 3 -2 -4 6 -9 -100 -211 -305 -580 -19 -35 -38 -61 -41 -58 -4 3
-5 2 -2 -1 2 -4 -5 -23 -15 -44 -24 -47 -30 -51 -315 -200 -66 -34 -125 -66
-130 -71 -6 -4 -23 -12 -37 -18 -26 -10 -26 -9 10 43 20 30 40 52 43 50 3 -2
6 3 6 10 0 20 74 127 84 120 5 -3 6 2 3 10 -4 9 1 18 10 22 9 3 14 9 12 13 -6
10 71 121 79 113 5 -4 5 -2 2 4 -6 11 66 127 75 119 2 -3 5 1 5 7 0 23 145
238 156 231 6 -3 7 -1 3 5 -9 15 43 94 57 85 5 -3 7 -1 3 5 -8 13 73 144 84
137 5 -3 12 0 16 6 4 8 3 9 -4 5 -22 -13 -12 5 69 132 195 304 222 342 238
342 11 0 12 3 4 8 -9 5 0 25 29 70 22 34 45 62 50 62 5 0 6 5 3 10 -3 6 -1 10
4 10 6 0 10 3 9 8 -5 14 44 82 54 76 7 -4 8 -2 4 5 -8 12 78 151 93 151 4 0 8
7 8 14 0 19 45 86 54 80 4 -2 6 4 5 14 0 9 5 16 12 14 8 -1 11 2 8 7 -4 6 9
35 29 65 29 46 51 65 128 110 50 31 93 55 94 56 1 0 -15 -29 -35 -64z"/>
</g>
</svg>
