<?xml version="1.0" standalone="no"?>
<!DOCTYPE svg PUBLIC "-//W3C//DTD SVG 20010904//EN"
 "http://www.w3.org/TR/2001/REC-SVG-20010904/DTD/svg10.dtd">
<svg version="1.0" xmlns="http://www.w3.org/2000/svg"
 width="1024.000000pt" height="1024.000000pt" viewBox="0 0 1024.000000 1024.000000"
 preserveAspectRatio="xMidYMid meet">
<metadata>
Created by potrace 1.16, written by Peter Selinger 2001-2019
</metadata>
<g transform="translate(0.000000,1024.000000) scale(0.100000,-0.100000)"
fill="#000000" stroke="none">
<path d="M4144 8012 c-22 -15 -58 -46 -78 -69 -21 -24 -43 -40 -49 -36 -5 3
-7 1 -4 -4 9 -14 -72 -105 -85 -96 -6 3 -8 2 -5 -3 7 -12 -270 -310 -284 -306
-5 1 -8 -1 -7 -6 4 -12 -94 -122 -104 -116 -5 3 -7 1 -6 -4 3 -9 -72 -93 -222
-252 -29 -30 -58 -68 -66 -85 -8 -19 -13 -23 -14 -12 0 36 -20 15 -20 -23 0
-28 4 -40 14 -40 9 0 12 7 9 23 -4 17 -1 16 11 -7 22 -39 45 -55 81 -56 35 0
71 30 166 135 67 75 245 267 398 430 52 55 98 99 103 97 4 -1 7 2 6 6 -5 13
155 182 165 175 6 -3 7 -2 4 4 -8 13 67 86 78 76 4 -5 5 -2 1 4 -4 7 0 23 8
35 31 44 16 97 -35 123 -16 9 -27 20 -24 25 8 14 6 12 -41 -18z"/>
<path d="M6487 7753 c-46 -48 -99 -105 -117 -125 -17 -21 -37 -35 -43 -31 -5
3 -7 2 -4 -4 8 -13 -152 -185 -166 -176 -6 3 -7 1 -3 -5 9 -14 -123 -154 -137
-145 -6 3 -7 1 -3 -6 9 -15 -152 -183 -167 -174 -6 3 -7 1 -3 -5 11 -18 -41
-71 -67 -66 -17 4 -18 3 -4 -4 16 -7 15 -10 -12 -36 -16 -15 -33 -28 -38 -27
-4 1 -9 -3 -9 -9 -1 -5 -2 -13 -3 -16 0 -4 -9 0 -18 7 -16 13 -17 12 -4 -4 13
-16 10 -22 -29 -62 -24 -24 -47 -42 -52 -39 -5 3 -7 2 -6 -3 2 -5 -18 -33 -43
-63 -26 -30 -49 -65 -53 -76 -12 -39 10 -72 65 -99 29 -13 49 -22 46 -19 -3 3
11 20 31 37 20 18 59 57 87 87 166 181 328 350 336 350 5 0 9 5 9 12 0 17 60
77 74 74 6 -2 7 -1 3 2 -5 2 2 15 14 28 12 13 26 21 32 17 6 -4 7 -1 2 6 -9
15 83 113 98 104 6 -3 7 -1 4 4 -4 6 81 105 187 219 107 115 197 219 199 232
2 12 -4 39 -14 60 -18 35 -23 38 -64 41 -44 2 -45 1 -128 -86z"/>
<path d="M5245 7741 c-24 -11 -68 -50 -108 -95 -38 -42 -73 -73 -79 -70 -6 4
-8 3 -5 -3 8 -13 -42 -65 -55 -57 -6 4 -8 3 -5 -3 8 -13 -52 -85 -64 -77 -5 3
-8 1 -7 -4 5 -15 -82 -103 -94 -96 -7 4 -8 3 -4 -5 8 -12 -160 -198 -175 -194
-5 2 -8 -3 -6 -10 1 -7 -6 -11 -18 -10 -11 1 -14 0 -7 -3 10 -5 6 -14 -14 -35
-15 -15 -32 -26 -37 -22 -6 3 -7 1 -4 -4 8 -13 -17 -36 -28 -25 -5 4 -5 1 0
-6 9 -16 -63 -94 -78 -85 -6 3 -7 1 -4 -4 8 -13 -27 -46 -37 -36 -4 5 -6 3 -4
-4 4 -14 -70 -105 -81 -99 -10 6 -8 -110 2 -120 4 -5 5 0 1 11 -7 19 -6 19 17
-1 13 -12 33 -25 44 -29 22 -9 57 -14 51 -8 -7 7 76 78 86 75 5 -1 7 1 4 6 -7
11 130 162 140 154 4 -4 4 -2 1 4 -8 14 26 47 38 37 4 -5 5 -3 2 3 -8 15 212
246 225 237 7 -4 8 -1 3 7 -5 8 -2 17 6 24 8 6 58 59 113 118 54 59 102 105
107 102 5 -3 8 -1 7 4 -4 13 162 193 172 187 4 -2 7 18 6 45 -2 50 -25 90 -53
90 -8 0 -11 5 -8 10 9 14 -3 12 -50 -9z"/>
<path d="M7343 7187 c7 -18 -28 -38 -49 -30 -14 5 -16 3 -11 -11 5 -14 -12
-39 -70 -100 -42 -44 -80 -80 -85 -79 -4 2 -7 -3 -5 -10 1 -6 -4 -11 -10 -10
-7 2 -12 -1 -10 -5 3 -12 -114 -141 -126 -139 -6 1 -11 -3 -12 -9 0 -7 -15
-31 -34 -54 -26 -32 -36 -39 -43 -29 -7 11 -8 11 -6 -2 4 -22 -221 -259 -241
-252 -11 3 -12 2 -4 -4 8 -6 1 -20 -25 -47 -19 -22 -33 -32 -29 -23 4 12 1 17
-9 17 -12 0 -15 -6 -10 -23 4 -17 -1 -30 -17 -46 -13 -11 -27 -18 -31 -14 -4
5 -7 3 -6 -2 6 -29 -1 -56 -12 -49 -7 4 -10 4 -6 -1 4 -4 3 -16 -2 -25 -7 -13
-5 -21 4 -29 11 -9 12 -6 9 16 l-5 28 16 -29 c9 -15 13 -32 10 -37 -3 -5 3 -6
13 -2 16 6 17 5 3 -13 -13 -17 -13 -18 0 -7 10 7 29 9 58 3 23 -4 41 -5 38 -3
-3 3 15 23 40 44 25 21 42 39 38 39 -5 0 9 18 31 40 21 21 43 36 48 33 6 -3 7
-1 4 4 -4 6 77 100 180 209 102 110 222 238 266 286 44 48 84 85 89 82 5 -3 7
-1 6 4 -2 5 22 37 52 72 69 78 70 79 70 111 0 26 -28 62 -66 86 -19 12 -19 12
1 7 16 -5 17 -4 5 4 -10 8 -18 8 -27 0 -9 -7 -13 -7 -13 1 0 6 -5 11 -11 11
-6 0 -9 -6 -6 -13z"/>
<path d="M3530 6464 c-8 -8 -9 -14 -3 -12 24 7 9 -20 -43 -80 -31 -34 -60 -60
-65 -56 -5 3 -8 1 -7 -4 5 -16 -113 -143 -124 -136 -6 4 -8 2 -5 -3 4 -6 1
-16 -7 -22 -8 -7 -16 -8 -18 -4 -3 4 -3 2 -1 -5 4 -16 -114 -142 -129 -139 -6
1 -12 -6 -13 -17 -5 -28 -54 -74 -74 -69 -10 2 -24 -4 -31 -14 -12 -15 -12
-16 0 -5 8 6 20 12 28 12 8 0 -18 -36 -58 -80 -39 -44 -77 -78 -83 -77 -6 1
-11 -3 -12 -10 0 -20 -59 -93 -75 -93 -12 0 -12 -2 -2 -9 7 -4 12 -21 10 -37
-2 -16 2 -29 7 -29 6 0 21 -8 35 -17 57 -37 80 -28 167 62 42 44 80 77 85 74
5 -3 7 -1 6 4 -5 15 42 73 53 67 5 -4 8 -2 7 3 -2 5 53 70 122 145 113 125
141 154 125 128 -3 -5 -1 -12 4 -16 6 -3 8 3 6 13 -4 23 111 155 127 146 6 -4
8 -2 5 3 -9 14 72 105 85 96 6 -3 8 -1 5 4 -4 6 0 17 9 24 8 7 23 29 33 49 18
37 18 38 -24 84 -20 22 -21 25 -7 29 10 3 -5 3 -31 1 -26 -2 -57 -9 -68 -14
-18 -10 -23 -6 -20 13 2 11 -5 8 -19 -9z"/>
<path d="M4234 5968 c-68 -4 -125 -15 -176 -32 -42 -15 -84 -24 -94 -20 -13 4
-15 3 -6 -3 9 -7 6 -13 -13 -21 -15 -7 -31 -9 -37 -6 -7 4 -8 2 -4 -4 4 -7 -9
-19 -33 -32 -56 -28 -146 -102 -208 -169 -47 -51 -51 -54 -49 -29 2 16 -1 25
-6 22 -6 -4 -8 -19 -4 -34 5 -28 -14 -57 -28 -43 -4 4 -5 1 -1 -7 3 -9 -8 -30
-27 -50 -17 -19 -31 -37 -29 -40 4 -12 -84 -148 -93 -143 -5 3 -6 1 -3 -4 4
-6 -20 -66 -52 -134 -32 -68 -73 -163 -91 -211 -18 -48 -37 -85 -41 -82 -5 3
-6 -1 -3 -9 3 -8 -2 -30 -11 -48 -9 -21 -14 -25 -11 -11 2 13 0 20 -6 16 -5
-4 -8 -18 -5 -33 5 -24 -35 -196 -48 -209 -7 -7 -97 -42 -107 -42 -4 0 -5 8
-1 18 3 9 3 14 -1 10 -4 -3 -9 -14 -10 -23 -3 -19 -76 -66 -90 -58 -5 4 -6 1
-3 -4 6 -10 -37 -47 -55 -48 -8 0 -23 -15 -23 -23 0 -17 -48 -71 -57 -66 -6 4
-8 3 -5 -2 8 -14 -56 -112 -70 -107 -7 3 -13 0 -13 -5 0 -6 5 -12 11 -14 6 -2
2 -22 -11 -52 -11 -27 -26 -80 -32 -118 -7 -37 -15 -68 -19 -68 -3 0 -4 -11
-1 -25 2 -15 0 -25 -7 -25 -7 0 -9 5 -5 12 4 6 3 8 -4 5 -5 -4 -8 -16 -5 -27
3 -11 9 -17 14 -14 5 3 9 -16 9 -43 0 -35 -3 -44 -10 -33 -6 9 -10 10 -10 3 0
-6 5 -15 10 -18 6 -3 10 -17 10 -31 0 -13 -4 -24 -10 -24 -5 0 -10 -5 -10 -11
0 -5 5 -7 10 -4 7 4 10 -92 10 -279 0 -222 -3 -286 -12 -286 -7 0 -5 -5 5 -11
10 -6 17 -22 17 -39 0 -16 10 -55 22 -87 12 -32 21 -74 20 -93 -1 -30 0 -32 9
-14 10 20 12 19 48 -15 21 -20 36 -40 33 -45 -3 -5 -1 -6 5 -3 5 3 22 -2 37
-12 19 -13 24 -20 14 -23 -7 -3 1 -5 17 -5 17 0 48 -6 70 -12 22 -7 46 -13 53
-13 20 -2 10 -151 -12 -187 -7 -10 -6 -12 4 -6 10 6 12 0 8 -23 -2 -17 -1 -29
4 -26 4 3 8 -12 8 -33 0 -21 5 -56 12 -78 6 -22 10 -46 9 -54 -1 -7 2 -10 8
-6 6 3 11 2 11 -2 0 -5 21 -33 47 -63 26 -30 41 -49 32 -43 -13 10 -16 10 -16
-1 0 -8 8 -13 17 -11 9 2 43 -10 75 -25 33 -16 62 -27 66 -24 4 2 10 0 14 -6
3 -5 28 -10 56 -10 27 0 49 -3 49 -7 0 -17 206 5 265 27 15 6 32 7 38 3 7 -3
9 -3 5 2 -8 8 91 81 104 77 5 -1 7 1 6 6 -1 4 12 29 30 57 48 74 55 105 59
280 l5 160 1204 0 1204 0 0 -155 c1 -124 4 -165 19 -205 10 -27 21 -59 25 -70
7 -18 6 -18 -4 -2 -6 9 -19 17 -28 16 -14 0 -14 -2 -2 -6 8 -3 18 -11 22 -17
4 -6 11 -11 17 -11 10 0 126 -107 124 -115 -1 -3 1 -7 4 -10 4 -3 2 1 -2 9 -6
11 -4 13 11 6 66 -28 125 -44 164 -45 33 0 41 -3 30 -10 -9 -6 -10 -10 -3 -10
6 0 15 5 18 10 8 13 65 9 65 -5 0 -5 4 -4 9 4 6 9 11 10 15 2 5 -7 15 -7 32
-1 14 6 38 10 55 10 16 0 52 9 80 20 29 10 57 16 62 13 6 -3 7 -1 3 5 -4 7 -3
12 3 12 21 0 121 104 144 150 14 27 26 47 29 45 2 -2 4 6 4 18 0 12 1 92 2
177 l2 156 69 17 c134 35 236 138 266 269 12 55 15 142 15 465 0 219 -5 426
-10 460 -15 94 -46 182 -85 247 -19 32 -35 65 -35 72 0 8 -4 13 -8 12 -11 -4
-128 114 -124 125 1 5 -2 6 -8 2 -6 -4 -18 -1 -26 6 -12 10 -12 14 -2 21 9 5
5 7 -12 7 -14 -1 -52 12 -85 30 -33 17 -67 31 -76 31 -9 0 -21 6 -27 13 -16
21 -43 127 -38 150 3 12 3 16 0 8 -4 -8 -29 45 -59 125 -79 213 -161 392 -244
532 -30 51 -42 84 -20 52 9 -13 10 -13 6 0 -2 8 -9 15 -15 15 -16 0 -74 84
-66 97 4 6 3 8 -3 5 -15 -9 -47 29 -37 45 4 7 4 10 -1 6 -5 -5 -34 16 -65 45
-76 70 -140 126 -146 125 -3 0 -28 12 -56 27 -37 20 -47 30 -37 37 9 5 4 6
-16 2 -24 -4 -27 -3 -15 6 13 10 12 11 -3 6 -21 -7 -111 27 -100 38 4 4 0 4
-10 1 -9 -4 -40 -1 -69 6 -40 9 -257 12 -898 13 -465 1 -890 -2 -946 -6z
m1731 -171 c108 -5 210 -30 199 -49 -4 -7 -3 -8 4 -4 14 9 114 -43 106 -55 -3
-5 1 -7 8 -4 7 3 31 -11 53 -31 22 -20 33 -31 24 -25 -13 9 -19 7 -30 -6 -13
-16 -12 -17 3 -5 11 9 18 10 23 2 3 -6 11 -8 16 -4 14 8 50 -26 42 -40 -11
-17 -12 -37 -2 -30 5 3 6 10 3 16 -4 5 1 8 10 6 10 -1 17 -7 18 -13 0 -5 9
-16 18 -22 25 -18 136 -174 114 -160 -6 3 -11 -9 -11 -26 -2 -31 -2 -31 8 -7
12 30 12 31 80 -104 40 -77 48 -101 37 -107 -10 -7 -9 -9 4 -9 11 0 25 -18 38
-46 24 -56 24 -55 5 -48 -10 4 -15 0 -15 -11 0 -9 5 -13 11 -10 6 4 9 0 7 -10
-2 -10 3 -20 11 -23 8 -3 11 0 7 7 -4 6 -3 11 1 11 14 0 47 -102 45 -137 -2
-18 2 -33 7 -33 5 0 7 10 5 23 -2 12 12 -23 31 -78 19 -54 35 -103 35 -107 0
-12 -3518 -10 -3525 2 -10 16 68 242 78 227 6 -8 7 -7 3 5 -3 10 3 42 13 71
31 90 120 272 132 269 6 -1 8 2 4 8 -6 10 35 93 90 180 23 36 28 40 43 28 15
-12 16 -11 4 4 -17 21 -7 39 16 32 14 -5 15 -4 2 5 -12 9 2 27 80 104 137 134
252 189 426 205 84 7 1550 6 1719 -1z m1065 -1337 c77 -23 195 -95 184 -112
-4 -6 -3 -8 3 -5 15 9 77 -59 68 -74 -5 -8 -4 -10 3 -5 14 9 46 -39 36 -55 -4
-7 -3 -9 4 -5 13 8 47 -78 37 -95 -5 -7 -4 -10 3 -6 6 5 12 -7 16 -30 7 -46 5
-102 -3 -101 -19 2 -23 -4 -9 -14 9 -7 19 -24 23 -38 4 -17 3 -21 -3 -12 -14
20 -22 -20 -9 -44 7 -13 7 -19 -1 -22 -7 -2 -12 -8 -12 -13 0 -6 5 -7 10 -4 6
4 10 -8 10 -30 0 -22 -6 -38 -15 -41 -8 -4 -12 -10 -9 -15 3 -5 10 -7 15 -4 5
4 9 -23 9 -64 0 -50 -4 -70 -12 -68 -6 1 -13 -10 -14 -25 -2 -19 2 -28 12 -28
8 0 14 -7 14 -16 0 -9 -6 -14 -13 -11 -8 3 -13 -5 -15 -22 -1 -23 0 -24 12 -9
11 15 13 13 15 -20 1 -20 3 -57 4 -82 2 -25 -1 -50 -5 -56 -5 -6 -4 -24 2 -40
17 -45 -6 -160 -37 -186 -14 -11 -16 -11 -8 1 5 10 4 12 -4 7 -6 -4 -9 -11 -6
-15 7 -12 -25 -38 -67 -55 -32 -14 -279 -16 -2070 -17 -1118 0 -2060 0 -2093
0 -105 3 -160 15 -149 33 5 7 2 8 -5 3 -16 -9 -57 29 -84 80 -22 39 -22 48
-21 460 0 303 4 435 13 475 48 206 219 370 415 398 27 4 868 6 1870 5 1779 -3
1823 -3 1886 -23z m-3312 -1614 c6 -20 6 -19 13 4 4 14 7 -38 8 -115 1 -143
-4 -189 -20 -179 -5 3 -6 -1 -3 -9 8 -21 -44 -77 -91 -98 -31 -15 -65 -19
-155 -19 -124 0 -190 12 -190 35 0 8 -5 15 -11 15 -5 0 -7 -6 -3 -12 5 -9 3
-9 -9 1 -9 7 -14 18 -10 24 3 6 1 7 -5 3 -18 -11 -45 42 -49 92 -6 86 -5 233
1 239 10 10 7 35 -4 28 -5 -3 -10 -1 -10 4 0 8 83 11 266 9 261 -2 267 -2 272
-22z m3310 13 c-6 -4 -7 -12 -4 -18 4 -6 12 -9 17 -6 13 9 12 -247 -2 -282
-13 -34 -59 -84 -71 -77 -4 3 -8 0 -8 -6 0 -6 -16 -18 -36 -26 -29 -12 -68
-15 -175 -12 -134 3 -138 4 -181 33 -69 48 -80 83 -83 249 l-2 141 36 5 c53 7
521 6 509 -1z"/>
<path d="M3508 4131 c9 -5 -6 -12 -42 -19 -30 -6 -77 -22 -104 -36 -27 -14
-53 -22 -57 -18 -5 4 -5 2 -2 -4 4 -6 -6 -22 -22 -35 -15 -13 -41 -43 -58 -66
-17 -23 -34 -39 -38 -35 -5 4 -5 2 -2 -4 4 -7 0 -29 -7 -50 -8 -22 -15 -35
-15 -31 -2 19 -41 -16 -40 -36 0 -12 3 -16 6 -9 2 6 9 10 14 6 5 -3 10 3 11
13 0 10 4 -25 8 -77 5 -68 13 -107 28 -137 12 -24 21 -48 20 -55 -2 -7 2 -12
7 -13 15 -1 83 -73 76 -81 -3 -3 -1 -4 4 -3 17 4 106 -44 94 -52 -6 -3 2 -6
18 -6 15 -1 63 -5 106 -10 42 -5 77 -6 77 -3 0 3 21 11 46 18 102 27 194 107
242 210 23 49 27 70 27 147 0 78 -4 98 -29 153 -53 115 -167 197 -299 217 -26
4 -50 11 -53 16 -3 5 -11 9 -17 9 -8 0 -8 -3 1 -9z m72 -187 c22 -5 28 -9 18
-15 -9 -6 -5 -8 13 -7 14 1 39 -8 56 -20 38 -27 84 -113 64 -120 -11 -4 -11
-6 0 -13 29 -17 3 -115 -44 -166 -22 -25 -43 -31 -31 -10 4 7 3 9 -2 4 -5 -5
-9 -14 -9 -19 0 -15 -61 -36 -105 -37 -100 -2 -189 66 -209 159 -12 55 1 136
19 125 6 -3 7 0 4 8 -8 21 44 77 91 98 42 20 82 23 135 13z"/>
<path d="M6645 4119 c3 -3 -12 -9 -33 -13 -20 -3 -50 -13 -66 -21 -15 -8 -33
-12 -39 -8 -6 4 -7 1 -2 -7 6 -10 4 -12 -8 -7 -9 3 -16 3 -14 -1 3 -13 -69
-72 -78 -64 -5 4 -5 2 -1 -5 3 -6 -7 -33 -23 -58 -17 -26 -33 -60 -36 -76 -4
-16 -10 -27 -13 -25 -4 2 -6 -33 -6 -77 2 -90 26 -168 69 -227 13 -18 22 -38
18 -44 -3 -6 -3 -8 2 -4 11 10 76 -42 68 -55 -3 -6 -1 -7 5 -3 6 4 35 -6 64
-21 47 -25 63 -28 153 -28 95 0 104 2 170 35 39 19 74 33 78 32 5 -1 6 1 3 6
-6 9 61 79 70 74 3 -2 9 0 12 4 4 4 1 4 -5 0 -18 -10 -16 -3 7 36 10 18 26 62
35 96 32 124 -10 256 -114 355 -32 31 -56 58 -54 61 3 3 -3 5 -13 5 -11 -1
-38 6 -62 15 -45 17 -194 37 -187 25z m156 -196 c50 -26 99 -79 99 -107 0 -7
-4 -6 -8 2 -6 8 -9 2 -9 -18 0 -31 16 -43 18 -12 1 9 5 1 9 -18 9 -37 4 -81
-13 -115 -15 -31 -49 -65 -59 -59 -5 3 -7 0 -6 -7 4 -15 -40 -38 -87 -46 -54
-9 -125 6 -150 31 -13 13 -30 26 -38 29 -25 9 -57 90 -57 142 0 158 156 251
301 178z"/>
<path d="M5191 3667 c-1 -14 -8 -18 -28 -16 -16 2 -34 8 -42 14 -11 7 -13 7
-7 -2 6 -10 -78 -13 -407 -13 -401 0 -414 -1 -435 -20 -28 -26 -37 -62 -22
-89 6 -12 8 -26 5 -31 -4 -6 -3 -9 2 -8 15 4 53 -13 48 -22 -3 -5 0 -12 6 -16
8 -4 9 -3 5 4 -5 9 196 12 816 12 538 0 836 4 860 10 43 12 58 34 58 84 0 47
-29 76 -76 76 -19 0 -33 4 -30 8 3 5 -1 9 -9 9 -8 0 -12 -4 -9 -9 3 -4 -52 -8
-121 -7 -114 0 -126 2 -121 17 5 15 4 15 -8 0 -12 -16 -36 -18 -244 -18 -211
0 -231 1 -235 18 -4 16 -5 16 -6 -1z"/>
</g>
</svg>
