<?xml version="1.0" standalone="no"?>
<!DOCTYPE svg PUBLIC "-//W3C//DTD SVG 20010904//EN" "http://www.w3.org/TR/2001/REC-SVG-20010904/DTD/svg10.dtd">
<svg xmlns="http://www.w3.org/2000/svg" version="1.0" width="1024.000000pt" height="1024.000000pt" viewBox="0 0 1024.000000 1024.000000" preserveAspectRatio="xMidYMid meet">
<metadata>
Created by potrace 1.16, written by Peter Selinger 2001-2019
<meta name="Producer" content="Online-Convert"/></metadata>
<g transform="translate(0.000000,1024.000000) scale(0.100000,-0.100000)" fill="#000000" stroke="none">
<path d="M4905 7644 c-16 -2 -70 -9 -120 -15 -401 -49 -843 -241 -1149 -501 -49 -42 -94 -75 -100 -74 -6 2 -7 1 -2 -2 4 -2 -25 -37 -65 -78 -40 -40 -77 -70 -82 -67 -6 3 -7 1 -3 -5 4 -6 -20 -44 -55 -84 -73 -87 -172 -234 -229 -341 -23 -42 -46 -75 -51 -72 -5 4 -6 0 -4 -7 3 -8 -12 -53 -34 -100 -96 -207 -167 -482 -180 -698 -3 -63 -7 -673 -9 -1355 l-2 -1240 -147 -154 c-82 -84 -154 -164 -161 -178 -9 -16 -11 -35 -6 -51 4 -15 8 -33 9 -41 0 -8 9 -17 20 -20 23 -6 5079 -8 5112 -1 12 2 20 6 18 8 -2 3 2 14 10 26 8 11 15 37 15 58 0 38 -11 52 -217 268 l-53 55 0 1273 c0 823 -4 1307 -11 1370 -55 515 -287 1001 -649 1362 -180 180 -325 289 -527 397 -51 27 -90 53 -85 58 4 4 2 5 -5 2 -6 -4 -43 7 -83 24 -227 96 -403 142 -680 174 -110 13 -391 18 -475 9z m605 -174 c161 -28 418 -113 573 -189 176 -85 450 -273 444 -304 -1 -6 5 -11 14 -9 24 3 205 -190 310 -329 86 -116 109 -157 72 -128 -16 13 -17 12 -5 -3 8 -10 19 -16 25 -15 20 4 160 -290 209 -438 55 -163 71 -223 95 -360 16 -92 17 -202 18 -1322 l0 -1223 -78 78 c-43 43 -75 83 -72 90 3 7 1 11 -4 8 -4 -3 -35 23 -67 57 -81 86 -394 416 -476 502 l-67 70 0 810 c0 887 0 882 -60 1075 -36 113 -103 246 -179 355 -71 101 -244 274 -342 341 -160 110 -371 197 -556 229 -109 19 -400 20 -504 1 -96 -17 -269 -75 -357 -120 -241 -121 -483 -352 -609 -580 -21 -38 -40 -63 -46 -59 -7 3 -8 1 -4 -5 4 -7 -9 -52 -29 -101 -19 -49 -45 -131 -57 -183 -21 -91 -22 -111 -25 -928 l-4 -835 -101 -102 c-56 -56 -106 -99 -111 -96 -6 3 -7 1 -3 -6 9 -14 -132 -163 -147 -154 -6 3 -7 1 -4 -5 4 -5 -64 -86 -150 -178 -87 -93 -177 -189 -200 -214 l-43 -45 0 1173 c0 758 4 1207 11 1270 37 345 169 695 372 990 50 73 76 101 64 68 -4 -10 -3 -15 4 -11 5 4 7 15 4 24 -11 36 232 287 399 413 264 197 579 332 906 387 177 30 171 29 425 26 183 -2 256 -7 355 -25z m-100 -868 c126 -32 283 -98 273 -115 -3 -6 -1 -7 6 -3 16 10 103 -42 95 -56 -4 -7 -2 -8 4 -4 15 9 104 -53 95 -67 -3 -6 -1 -7 5 -3 6 4 42 -23 82 -60 91 -86 204 -226 160 -199 -5 3 -10 1 -10 -5 0 -7 7 -10 15 -6 31 11 140 -204 183 -361 l26 -98 4 -760 3 -760 -236 235 -235 235 -758 3 -757 3 -242 -248 -243 -247 0 715 c0 787 2 811 62 994 55 168 144 310 287 458 193 201 414 320 686 372 131 24 351 14 495 -23z m548 -2314 c79 -79 170 -173 204 -210 l60 -68 -1103 0 -1104 0 210 210 210 210 690 0 689 0 144 -142z m521 -535 c83 -87 109 -119 99 -126 -10 -6 -9 -7 4 -4 11 4 35 -14 74 -56 32 -34 104 -110 161 -169 l102 -108 -1807 0 -1806 0 50 53 c28 28 153 159 278 290 l228 237 1253 0 1253 0 111 -117z m718 -770 c88 -93 183 -194 213 -225 l53 -58 -2358 0 -2359 0 163 164 c90 90 167 169 171 176 3 6 14 8 23 4 10 -3 17 -1 17 6 0 6 -5 8 -12 4 -18 -10 20 36 56 69 l30 27 1922 0 1922 0 159 -167z"/>
</g>
</svg>
