<?xml version="1.0" standalone="no"?>
<!DOCTYPE svg PUBLIC "-//W3C//DTD SVG 20010904//EN"
 "http://www.w3.org/TR/2001/REC-SVG-20010904/DTD/svg10.dtd">
<svg version="1.0" xmlns="http://www.w3.org/2000/svg"
 width="1024.000000pt" height="1024.000000pt" viewBox="0 0 1024.000000 1024.000000"
 preserveAspectRatio="xMidYMid meet">
<metadata>
Created by potrace 1.16, written by Peter Selinger 2001-2019
</metadata>
<g transform="translate(0.000000,1024.000000) scale(0.100000,-0.100000)"
fill="#000000" stroke="none">
<path d="M6482 8440 c-18 -11 -35 -26 -37 -33 -2 -6 -10 -25 -16 -42 -7 -16
-13 -36 -15 -43 -1 -8 -6 -21 -10 -30 -4 -9 -8 -22 -10 -29 -5 -26 -26 -90
-39 -118 -8 -17 -17 -46 -20 -65 -6 -36 -43 -157 -54 -175 -3 -5 -7 -19 -8
-30 -2 -11 -10 -25 -19 -31 -8 -7 -11 -14 -5 -15 5 -2 -8 -57 -30 -124 -22
-66 -43 -143 -48 -172 -7 -49 -6 -54 18 -76 34 -31 57 -39 96 -31 39 7 47 23
100 194 20 63 39 122 42 130 4 8 7 18 8 23 2 4 4 9 5 12 1 3 4 10 5 15 1 6 4
12 5 15 1 3 3 11 4 18 1 6 8 11 16 9 10 -2 11 0 2 11 -7 8 -9 17 -5 21 4 3 8
13 9 21 5 31 77 251 86 263 6 6 8 12 5 12 -5 0 12 58 30 100 9 22 13 41 20 86
4 35 1 44 -24 70 -36 36 -68 40 -111 14z"/>
<path d="M7599 8122 c-35 -37 -109 -117 -164 -177 -180 -197 -209 -227 -213
-216 -2 6 -8 11 -14 11 -6 0 -5 -6 2 -16 11 -13 5 -24 -46 -77 -67 -71 -131
-139 -200 -214 -37 -40 -51 -50 -61 -42 -7 7 -13 19 -14 28 0 11 -2 12 -6 3
-3 -7 3 -22 13 -33 17 -19 16 -21 -34 -72 -93 -94 -161 -176 -168 -202 -9 -36
13 -83 47 -101 29 -15 111 -16 102 -1 -8 13 169 198 184 193 7 -3 12 -2 11 2
-4 19 26 58 136 177 66 72 132 144 147 160 15 17 55 62 90 100 63 71 100 111
161 175 18 19 46 51 61 70 16 19 58 66 94 103 50 52 66 75 66 97 0 55 -48 100
-107 100 -15 0 -44 -23 -87 -68z"/>
<path d="M4488 7200 c-51 -9 -101 -46 -204 -151 -49 -49 -92 -89 -96 -89 -4 0
-39 -33 -78 -72 -67 -70 -71 -72 -85 -54 -11 14 -12 23 -4 33 9 10 8 13 -5 13
-20 0 -21 -19 -1 -47 12 -17 12 -23 1 -32 -7 -6 -16 -9 -19 -6 -4 3 -5 2 -3
-1 7 -9 -20 -37 -179 -186 -82 -78 -187 -176 -232 -219 -65 -61 -87 -76 -105
-72 -19 4 -20 3 -8 -6 16 -12 21 -7 -212 -227 -82 -78 -126 -133 -134 -166 -1
-5 -3 -11 -4 -15 -1 -5 -2 -11 -1 -15 0 -7 -42 -206 -57 -270 -6 -20 -7 -39
-5 -42 3 -3 2 -13 -2 -23 -4 -10 -9 -31 -11 -48 -2 -16 -8 -41 -14 -55 -5 -14
-12 -41 -14 -60 -3 -19 -7 -46 -10 -60 -3 -14 -8 -36 -11 -50 -4 -14 -10 -47
-15 -75 -4 -27 -11 -61 -14 -75 -4 -14 -8 -38 -11 -55 -2 -16 -7 -41 -10 -55
-6 -26 -11 -52 -19 -105 -3 -16 -10 -52 -16 -80 -6 -27 -12 -59 -14 -70 -2
-11 -7 -36 -11 -55 -4 -19 -8 -44 -10 -55 -10 -51 -15 -82 -20 -100 -2 -11 -6
-32 -8 -46 -2 -14 -7 -30 -10 -36 -4 -6 -9 -30 -12 -54 -3 -23 -10 -46 -16
-50 -8 -4 -8 -8 -1 -10 7 -3 6 -28 -4 -79 -9 -41 -18 -91 -21 -110 -3 -19 -12
-66 -20 -105 -8 -38 -14 -86 -13 -106 0 -22 -6 -44 -15 -53 -10 -10 -14 -24
-10 -36 8 -25 25 -26 25 -2 1 9 7 0 14 -21 8 -20 19 -43 25 -51 6 -7 8 -16 4
-19 -3 -4 -1 -7 6 -7 8 0 11 -8 8 -20 -3 -11 0 -23 5 -27 7 -3 8 -1 4 5 -4 7
-2 12 4 12 6 0 13 -8 17 -17 3 -10 13 -25 23 -33 27 -24 170 -208 170 -218 0
-6 7 -13 16 -16 10 -4 14 -12 10 -23 -4 -10 -4 -15 -1 -11 10 10 47 -31 39
-44 -4 -6 -3 -8 4 -4 6 3 20 -6 31 -21 11 -16 25 -33 30 -39 24 -29 184 -232
199 -252 9 -12 25 -31 36 -42 10 -10 15 -23 11 -29 -3 -6 -1 -11 5 -11 6 0 8
-5 4 -12 -5 -7 -3 -8 5 -3 13 7 70 -50 70 -70 0 -5 -8 0 -18 12 -22 27 -28 28
-28 8 0 -8 4 -12 8 -10 3 3 12 -2 19 -10 7 -8 18 -15 26 -15 7 0 18 -9 24 -21
7 -11 19 -28 28 -37 24 -24 92 -108 92 -114 0 -2 -10 -5 -22 -5 -13 -1 -54 -6
-93 -11 -105 -15 -187 -25 -216 -27 -14 -1 -30 -5 -36 -8 -6 -4 -22 -7 -34 -7
-13 0 -40 -2 -59 -6 -19 -3 -46 -7 -60 -9 -14 -1 -44 -8 -67 -14 -23 -6 -45
-11 -50 -10 -4 1 -15 0 -23 -3 -14 -6 -115 -26 -150 -31 -8 -2 -19 -5 -25 -8
-8 -5 -93 -28 -125 -34 -3 -1 -30 -12 -60 -25 -30 -14 -58 -24 -62 -22 -5 1
-8 -3 -8 -9 0 -7 -10 -9 -27 -5 -17 4 -23 3 -15 -2 10 -7 5 -18 -21 -46 -40
-43 -56 -89 -46 -133 7 -36 69 -124 82 -116 4 2 10 -3 13 -11 3 -9 10 -13 15
-10 5 3 9 0 9 -5 0 -6 5 -11 10 -11 6 0 26 -7 46 -15 19 -8 36 -13 38 -12 1 1
10 -4 19 -12 10 -7 17 -10 17 -6 0 4 7 2 15 -5 8 -7 15 -10 15 -7 0 3 19 -1
43 -8 23 -7 42 -17 42 -23 0 -6 4 -14 9 -19 5 -4 6 -3 2 4 -10 18 9 24 41 12
15 -6 46 -13 68 -15 22 -3 67 -12 100 -20 68 -17 103 -24 125 -26 53 -4 225
-39 234 -48 5 -5 15 -10 20 -10 6 0 4 5 -4 10 -13 8 -12 10 5 11 11 1 23 1 26
1 4 -1 16 9 28 22 18 19 22 33 19 76 -3 49 -6 54 -38 72 -19 10 -34 23 -32 29
1 7 -4 7 -17 0 -10 -6 -21 -8 -23 -6 -3 3 -25 7 -49 9 -61 6 -125 16 -179 28
-25 5 -57 10 -72 9 -15 0 -30 4 -33 10 -4 5 -10 7 -15 4 -13 -8 -194 36 -202
49 -4 6 -8 8 -8 4 0 -9 -66 10 -125 37 -40 19 -46 25 -31 31 11 4 22 2 27 -7
8 -11 9 -10 7 4 -2 14 9 23 44 37 49 18 136 41 175 46 12 1 27 5 33 9 6 4 18
1 26 -6 12 -10 15 -10 12 2 -2 8 5 14 17 15 11 0 27 3 35 6 23 10 78 18 155
24 39 4 75 10 80 14 6 4 42 11 80 15 137 14 186 20 280 34 39 5 77 10 85 10 8
0 24 1 35 3 16 2 19 -2 17 -24 -3 -25 0 -28 22 -26 14 1 26 6 26 11 0 5 -7 7
-15 4 -8 -4 -17 -1 -21 5 -5 7 -2 8 6 3 10 -6 12 -3 7 14 -5 22 -5 22 14 5 10
-9 19 -22 19 -28 0 -6 12 -22 25 -35 28 -26 33 -43 10 -35 -10 4 -15 0 -15
-12 0 -11 4 -15 8 -9 14 19 41 16 53 -7 7 -13 18 -27 25 -31 8 -4 14 -13 14
-18 0 -6 -4 -7 -10 -4 -6 4 -7 -1 -3 -11 4 -11 8 -13 11 -6 2 8 19 3 53 -15
30 -17 47 -33 44 -41 -3 -7 -1 -11 3 -8 5 3 53 -6 108 -20 145 -36 266 -46
579 -46 346 -1 428 4 859 49 28 3 67 7 86 9 53 5 146 22 215 38 11 2 32 9 48
15 15 6 27 8 27 5 0 -9 90 56 124 90 18 18 43 55 55 81 22 47 22 47 63 41 22
-4 70 -9 107 -12 83 -6 103 -12 94 -27 -5 -9 -3 -9 8 -1 9 8 31 9 69 3 30 -5
77 -11 103 -14 27 -2 53 -7 58 -10 10 -7 17 -8 94 -20 28 -5 52 -9 55 -10 33
-10 87 -22 143 -30 15 -2 32 -7 38 -11 6 -3 25 -8 42 -11 18 -2 50 -13 72 -23
22 -10 53 -23 69 -29 l29 -12 -32 -20 c-55 -34 -212 -80 -227 -68 -7 6 -19 9
-26 6 -8 -3 -5 -6 6 -6 29 -1 7 -20 -29 -25 -17 -2 -38 -7 -48 -11 -10 -4 -21
-5 -24 -1 -3 3 -11 2 -17 -3 -12 -9 -163 -38 -236 -45 -25 -3 -52 -7 -60 -10
-15 -6 -96 -15 -175 -20 -22 -2 -67 -8 -100 -14 -54 -11 -117 -17 -270 -27
-27 -2 -81 -7 -119 -11 -51 -5 -67 -4 -62 4 5 9 1 9 -16 3 -14 -5 -31 -5 -40
0 -11 6 -19 5 -23 -1 -3 -5 -15 -10 -27 -10 -28 0 -74 -29 -86 -54 -11 -26 -7
-79 8 -84 5 -2 10 -10 10 -17 0 -8 5 -17 12 -21 7 -5 8 -3 3 6 -6 9 -4 11 4 6
7 -5 10 -15 7 -23 -4 -9 -2 -11 7 -6 6 4 48 9 92 10 74 1 137 6 255 18 45 5
215 20 340 31 36 3 76 7 90 9 14 2 41 6 60 9 19 3 51 8 70 11 19 3 51 8 70 11
48 7 57 9 120 23 30 6 69 13 85 16 17 2 45 8 62 14 20 6 35 6 38 0 8 -13 26
-11 22 2 -2 11 83 42 92 34 2 -3 10 0 18 6 7 6 13 8 13 4 0 -4 6 -3 13 3 6 5
42 19 79 30 37 12 89 37 116 56 28 19 53 32 58 28 4 -4 4 -2 1 5 -4 6 -4 13 0
15 5 1 20 17 34 35 23 27 26 38 22 89 -2 32 -10 62 -16 66 -7 4 -8 8 -4 8 5 0
-11 16 -35 35 -23 19 -49 40 -55 45 -7 6 -13 8 -13 5 0 -3 -17 3 -38 14 -21
11 -70 30 -108 42 -38 12 -73 24 -79 27 -5 3 -18 7 -30 9 -11 1 -85 16 -165
33 -80 16 -167 33 -194 36 -28 3 -54 8 -59 11 -6 3 -26 8 -46 10 -36 4 -46 5
-136 18 -27 4 -67 8 -87 9 -46 3 -53 9 -33 29 8 9 15 19 15 23 0 4 22 43 48
88 27 45 66 113 87 151 22 39 42 72 45 75 3 3 12 20 19 38 8 17 17 32 22 32 5
0 9 5 9 11 0 6 15 36 33 67 17 30 44 75 59 101 16 25 33 57 38 71 6 13 35 65
65 115 29 49 59 102 66 118 7 15 16 27 20 27 4 0 10 11 13 25 4 14 11 25 17
25 6 0 7 5 4 10 -3 6 -1 10 5 10 6 0 9 4 6 9 -3 5 1 15 10 22 9 7 23 30 31 51
8 21 19 38 24 38 5 0 8 3 7 8 -3 9 82 165 95 173 5 3 8 8 6 10 -1 2 3 28 10
57 7 36 8 59 1 72 -13 24 -13 73 0 65 13 -8 13 -4 -4 36 -12 28 -36 238 -52
454 -2 28 -6 77 -10 110 -4 33 -6 74 -5 90 1 17 -4 49 -10 73 -9 32 -9 46 0
55 6 6 11 18 10 26 0 11 -3 10 -8 -4 -12 -29 -14 -6 -57 455 -3 36 -8 88 -11
115 -3 28 -7 68 -9 90 -7 84 -52 205 -75 205 -5 0 -9 5 -9 11 0 6 -7 17 -16
26 -8 9 -13 22 -10 29 3 7 0 11 -7 8 -7 -2 -18 6 -26 18 -8 13 -45 64 -82 114
-38 50 -69 96 -69 103 0 6 -4 11 -8 11 -7 0 -111 140 -120 163 -2 4 -17 22
-33 40 -16 17 -29 37 -29 43 0 7 -4 14 -8 16 -4 2 -34 36 -66 76 -57 72 -128
128 -147 117 -5 -4 -9 -3 -8 2 3 19 -2 27 -9 15 -8 -12 -47 -3 -112 25 -8 3
-18 7 -22 8 -5 2 -9 3 -10 5 -2 1 -16 4 -31 6 -15 3 -40 10 -55 16 -15 6 -33
12 -40 14 -8 1 -21 6 -30 10 -9 4 -23 8 -30 10 -8 1 -21 6 -30 10 -9 4 -20 8
-24 9 -5 2 -9 3 -10 4 -2 2 -14 4 -28 6 -14 2 -38 9 -55 16 -16 7 -36 13 -43
15 -8 1 -21 6 -30 10 -9 4 -24 8 -32 9 -33 4 -151 48 -164 61 -8 8 -16 10 -18
5 -2 -5 -14 -4 -28 2 -14 5 -31 11 -38 13 -8 1 -21 6 -30 10 -9 4 -23 8 -30
10 -8 1 -21 6 -30 10 -9 4 -20 8 -24 9 -5 2 -11 4 -15 5 -5 1 -12 3 -18 4 -37
6 -75 19 -75 25 0 4 -6 8 -13 8 -23 0 -232 66 -238 75 -3 6 -9 9 -13 8 -10 -2
-68 11 -86 20 -8 5 -35 13 -59 20 -25 7 -56 17 -70 22 -35 14 -88 17 -133 8z
m186 -216 c13 -2 97 -29 187 -60 90 -30 184 -61 209 -68 25 -8 59 -19 75 -24
17 -6 58 -21 93 -33 43 -15 59 -25 50 -30 -9 -6 -9 -9 -1 -9 6 0 15 5 18 10 4
7 11 8 18 1 7 -5 17 -10 22 -11 6 -1 9 -6 8 -10 -1 -4 7 -5 19 -2 13 3 19 1
15 -5 -4 -7 5 -10 26 -8 17 2 48 -4 67 -12 19 -8 46 -17 60 -19 13 -3 30 -10
37 -16 7 -6 13 -7 13 -3 0 4 7 2 15 -5 8 -7 15 -9 15 -6 0 4 6 4 13 -1 6 -4
15 -8 20 -9 4 -1 8 -2 10 -3 1 -2 12 -4 23 -6 43 -9 74 -25 74 -39 0 -8 5 -18
11 -22 7 -4 9 0 5 14 -7 20 -6 20 51 3 34 -10 58 -23 58 -31 0 -7 6 -14 13
-16 7 -1 8 0 2 3 -5 2 -8 9 -5 13 5 7 83 -14 135 -37 18 -8 16 -7 57 -17 18
-4 36 -12 40 -18 4 -7 0 -9 -10 -5 -24 9 -21 0 4 -14 13 -7 19 -7 15 -1 -3 6
-2 13 2 16 9 5 52 -46 52 -63 0 -5 4 -11 8 -13 4 -1 35 -39 67 -83 119 -162
265 -365 265 -370 0 -3 9 -14 20 -25 28 -28 11 -59 -33 -62 -63 -3 -72 -5 -92
-11 -40 -13 -705 -127 -741 -127 -13 0 -24 5 -24 11 0 5 -4 8 -9 5 -5 -3 -19
2 -32 12 -13 10 -78 49 -144 86 -66 38 -122 72 -125 75 -3 3 -36 22 -73 41
-37 19 -76 42 -86 51 -9 9 -27 20 -39 23 -12 4 -22 12 -22 17 0 6 -4 7 -10 4
-5 -3 -10 -1 -10 4 0 6 -7 11 -15 11 -21 0 -68 47 -60 60 3 6 2 10 -3 10 -8 0
-60 100 -54 107 1 2 -12 28 -29 58 -17 30 -29 55 -26 55 3 0 -22 52 -55 116
-33 63 -57 122 -54 130 3 8 1 14 -4 14 -5 0 -25 35 -45 78 -20 42 -54 112 -76
154 -21 42 -39 84 -39 93 0 8 -4 15 -10 15 -5 0 -10 5 -10 11 0 5 5 7 10 4 6
-4 21 -8 34 -11z m-203 -71 c6 -16 20 -44 29 -63 10 -19 19 -38 19 -43 0 -9
65 -150 87 -189 9 -17 11 -29 4 -33 -13 -8 -13 -25 1 -25 5 0 7 5 4 10 -3 6
-2 10 3 10 5 0 17 -19 27 -42 9 -24 34 -79 55 -123 53 -112 61 -135 54 -147
-4 -7 -2 -8 4 -4 7 4 12 2 12 -4 0 -6 7 -18 15 -27 8 -8 13 -19 10 -24 -4 -5
-2 -9 3 -9 5 0 17 -19 26 -43 18 -49 20 -61 7 -52 -5 3 -12 1 -16 -5 -6 -9 8
-14 28 -11 24 4 13 -39 -29 -119 -36 -68 -52 -89 -63 -85 -12 5 -13 3 -4 -5 8
-9 2 -27 -25 -74 -19 -33 -39 -63 -44 -64 -4 -2 -6 -8 -2 -13 3 -5 1 -9 -5 -9
-5 0 -13 -10 -17 -22 -7 -23 -222 -408 -233 -418 -3 -3 -14 -21 -23 -40 -39
-77 -101 -185 -110 -191 -5 -3 -9 -9 -9 -13 1 -12 -33 -76 -41 -76 -4 0 -8 -4
-8 -9 0 -6 -39 -80 -87 -167 -49 -86 -108 -193 -132 -238 -24 -44 -53 -98 -65
-118 l-22 -37 -42 108 c-23 59 -42 114 -42 122 0 8 -5 20 -11 26 -6 6 -12 17
-13 24 -2 8 -9 30 -17 49 -7 19 -12 38 -11 43 1 4 -3 7 -9 7 -6 0 -9 7 -5 15
3 8 0 15 -6 15 -6 0 -8 3 -5 7 4 3 3 11 -2 17 -9 10 -50 108 -56 131 -3 15
-15 45 -35 90 -15 35 -32 79 -35 95 -1 3 -9 23 -19 45 -9 22 -26 65 -36 95
-10 30 -28 74 -39 97 -12 23 -22 50 -24 60 -2 10 -8 27 -14 38 -6 11 -12 25
-13 30 -5 20 -13 41 -31 82 -10 24 -19 47 -19 51 0 5 -9 26 -19 48 -11 21 -17
42 -14 46 2 5 0 8 -5 8 -7 0 -32 62 -36 90 -1 3 -7 19 -15 37 -13 32 -13 33
42 85 149 145 481 458 673 635 54 50 153 143 219 206 81 77 123 111 128 103 6
-7 7 -5 4 5 -6 19 10 39 30 39 7 0 18 -12 24 -27z m698 -1074 c41 -24 79 -51
84 -60 6 -10 16 -15 22 -12 7 2 19 -2 27 -10 8 -8 24 -18 36 -21 12 -4 22 -12
22 -17 0 -5 7 -9 15 -9 8 0 15 -5 15 -11 0 -5 4 -8 9 -5 5 4 11 3 13 -1 1 -5
24 -19 51 -33 26 -13 47 -28 47 -32 0 -5 3 -7 8 -6 12 3 62 -24 62 -34 0 -4 3
-7 8 -6 4 1 18 -4 31 -11 25 -14 98 -11 186 9 28 6 178 33 335 60 157 28 298
53 314 56 22 5 27 3 21 -7 -5 -8 0 -7 11 3 18 15 93 30 154 30 14 0 31 4 38
10 6 6 12 7 12 2 0 -5 6 -65 12 -134 6 -69 12 -141 13 -160 1 -19 5 -51 9 -70
3 -19 9 -71 12 -115 3 -44 8 -98 10 -120 9 -76 15 -140 19 -192 2 -29 6 -56 9
-61 4 -7 10 -75 22 -242 3 -56 11 -131 23 -240 6 -47 10 -94 10 -105 -1 -11 4
-59 11 -107 12 -89 6 -118 -32 -160 -7 -8 -33 -53 -58 -101 -24 -48 -48 -87
-52 -87 -5 0 -8 -5 -8 -11 0 -14 -212 -383 -222 -387 -4 -2 -8 -9 -8 -14 0 -6
-21 -48 -46 -92 -128 -222 -169 -291 -176 -294 -5 -2 -8 -9 -8 -15 0 -12 -160
-292 -180 -314 -5 -7 -10 -15 -10 -18 0 -11 -84 -150 -92 -153 -5 -2 -8 -10
-8 -18 0 -15 -52 -45 -90 -51 -40 -7 -54 -10 -70 -16 -24 -9 -181 -27 -190
-22 -5 3 -11 1 -14 -4 -3 -4 -47 -12 -98 -16 -114 -8 -148 -12 -263 -25 -126
-14 -168 -13 -159 3 5 7 0 6 -11 -3 -15 -13 -62 -15 -294 -14 -152 1 -303 4
-336 7 -125 11 -168 17 -180 27 -6 5 -14 7 -17 5 -3 -3 -17 0 -32 6 -25 12
-45 53 -33 66 4 3 2 13 -3 23 -5 9 -12 68 -16 131 -9 163 -11 180 -17 214 -4
17 -9 77 -13 135 -4 58 -8 125 -10 150 -2 25 -6 74 -8 110 -2 36 -7 85 -10
110 -6 54 -18 204 -22 280 -1 30 -7 96 -13 145 -5 50 -13 140 -16 200 -4 61
-8 127 -10 148 -3 48 32 120 55 111 11 -4 12 -2 3 6 -8 9 -6 21 10 49 12 20
24 38 27 41 3 3 21 35 40 72 19 38 37 68 40 68 4 0 12 16 19 35 7 19 17 35 23
35 6 0 9 3 5 6 -3 3 4 23 17 43 29 46 167 292 185 331 8 17 22 30 30 30 14 0
14 1 1 10 -10 6 -11 10 -3 10 7 0 12 3 11 8 -3 12 24 62 34 62 4 0 8 6 8 13 0
12 207 387 219 397 3 3 24 40 45 83 25 48 45 76 52 73 8 -3 11 1 8 8 -5 12 49
124 65 136 4 3 15 24 25 48 11 23 23 42 28 42 4 0 7 4 6 8 -2 5 8 23 20 40
l24 30 41 -22 c23 -12 75 -42 116 -67z m-1906 -266 c1 -12 9 -28 16 -37 7 -9
10 -16 5 -16 -5 0 -3 -4 3 -8 7 -4 14 -17 16 -27 1 -11 5 -24 9 -30 3 -5 9
-25 13 -42 3 -18 11 -33 16 -33 5 0 8 -3 7 -7 0 -5 6 -25 15 -45 10 -21 17
-44 17 -51 0 -8 3 -17 8 -21 4 -4 7 -11 8 -14 1 -4 7 -23 15 -42 7 -19 12 -38
11 -42 -1 -5 2 -8 6 -8 7 0 17 -23 37 -90 1 -3 9 -21 18 -40 11 -25 12 -39 5
-48 -8 -9 -7 -11 6 -6 10 4 16 1 17 -10 2 -24 4 -29 17 -53 10 -18 10 -23 0
-23 -6 0 -3 -7 8 -15 19 -14 19 -14 -1 -15 -19 -1 -19 -2 1 -10 13 -5 29 -31
45 -72 13 -34 24 -65 24 -68 0 -3 6 -15 13 -27 7 -13 8 -24 3 -27 -5 -4 -12
-1 -14 4 -3 6 -4 5 -3 -2 2 -7 8 -14 14 -14 23 -3 24 -4 12 -19 -10 -13 -11
-18 -1 -28 10 -9 11 -8 5 7 -5 13 -4 17 4 12 7 -4 12 -16 12 -27 0 -10 4 -19
10 -19 5 0 9 -3 8 -7 0 -5 6 -24 15 -43 11 -25 12 -39 5 -48 -8 -9 -7 -11 6
-6 15 6 22 -10 17 -38 0 -5 4 -8 9 -8 5 0 9 -3 8 -7 -1 -9 6 -27 43 -110 33
-74 39 -99 21 -95 -8 1 -11 -2 -7 -7 3 -6 12 -8 20 -4 9 3 16 -1 17 -8 0 -8 3
-27 5 -44 2 -16 5 -52 8 -80 11 -124 15 -163 21 -207 4 -32 2 -53 -6 -63 -10
-12 -10 -15 1 -16 10 0 11 -2 2 -6 -10 -3 -9 -8 2 -19 9 -10 15 -35 15 -67 0
-29 2 -79 6 -112 3 -33 8 -89 10 -125 2 -36 8 -114 13 -175 9 -99 15 -171 26
-330 2 -27 7 -72 11 -99 6 -41 5 -48 -7 -41 -11 7 -12 6 -2 -6 11 -13 18 -54
27 -154 4 -39 3 -39 -12 -17 -8 13 -70 92 -136 176 -67 84 -128 163 -136 176
-8 13 -24 33 -35 46 -75 87 -104 122 -135 164 -19 26 -63 82 -97 123 -35 42
-63 78 -63 82 0 3 -12 18 -26 33 -14 15 -46 53 -72 86 -26 32 -80 99 -120 150
-41 50 -81 103 -90 119 -9 15 -19 27 -23 27 -12 0 -64 75 -65 95 -1 11 -5 28
-9 38 -4 9 -4 25 0 35 7 15 11 39 16 92 1 8 8 42 16 75 18 77 21 91 28 145 4
25 13 74 21 110 8 36 16 79 19 95 3 17 8 44 11 60 9 38 14 66 15 85 0 8 3 22
6 30 3 8 7 29 9 45 7 51 25 139 34 165 5 14 12 44 14 68 3 23 7 46 10 50 3 5
8 33 11 62 4 30 8 57 11 61 2 4 6 26 9 49 3 24 8 47 11 52 3 5 8 20 10 34 2
13 6 34 8 47 3 12 7 42 11 67 3 25 10 61 15 80 21 81 26 107 28 139 2 28 10
25 15 -6z"/>
<path d="M7983 7015 c1 -5 -2 -10 -8 -10 -5 -1 -39 -15 -75 -32 -36 -17 -99
-44 -140 -61 -41 -17 -158 -66 -260 -108 -102 -42 -191 -77 -197 -77 -7 0 -13
-4 -13 -8 0 -5 -16 -11 -36 -15 -40 -7 -91 -54 -100 -90 -12 -48 53 -117 101
-107 32 6 38 8 70 24 29 15 145 63 155 64 3 1 28 11 55 24 28 12 55 24 60 25
6 1 20 8 33 14 12 7 22 10 22 7 0 -3 11 2 24 11 14 8 27 15 31 15 3 -1 19 6
35 14 17 9 30 13 30 10 0 -3 10 1 23 9 28 18 212 96 227 96 20 0 70 54 78 84
8 30 -12 86 -30 86 -5 0 -8 5 -8 11 0 5 5 7 12 3 7 -5 8 -3 3 5 -5 9 -11 9
-17 3 -11 -11 -41 -5 -34 7 2 3 -6 6 -19 6 -13 0 -23 -4 -22 -10z"/>
</g>
</svg>
