<?xml version="1.0" standalone="no"?>
<!DOCTYPE svg PUBLIC "-//W3C//DTD SVG 20010904//EN"
 "http://www.w3.org/TR/2001/REC-SVG-20010904/DTD/svg10.dtd">
<svg version="1.0" xmlns="http://www.w3.org/2000/svg"
 width="1024.000000pt" height="1024.000000pt" viewBox="0 0 1024.000000 1024.000000"
 preserveAspectRatio="xMidYMid meet">
<metadata>
Created by potrace 1.16, written by Peter Selinger 2001-2019
</metadata>
<g transform="translate(0.000000,1024.000000) scale(0.100000,-0.100000)"
fill="#000000" stroke="none">
<path d="M2605 6776 c-124 -30 -242 -132 -286 -247 l-24 -64 0 -495 0 -495 27
-58 c70 -149 190 -231 371 -252 l57 -6 0 -184 c0 -177 1 -185 22 -205 30 -28
67 -25 116 8 23 15 124 107 226 205 l184 177 526 0 c351 0 543 4 578 11 116
25 212 97 269 201 l34 63 0 525 0 525 -26 55 c-37 77 -100 150 -162 188 -105
63 -84 62 -1017 61 -627 0 -858 -4 -895 -13z m1829 -125 c74 -38 117 -81 149
-150 22 -45 22 -56 22 -526 0 -448 -1 -483 -19 -529 -25 -66 -84 -128 -149
-157 l-52 -24 -545 -2 c-300 -2 -556 -5 -569 -9 -14 -3 -72 -51 -130 -107
-285 -273 -291 -279 -298 -261 -3 9 -3 86 0 171 3 85 2 165 -3 177 -8 21 -16
24 -98 28 -145 9 -256 70 -310 172 l-27 51 0 490 0 490 27 51 c26 50 85 111
130 135 70 38 80 38 954 36 l850 -2 68 -34z"/>
<path d="M2742 6258 c-7 -7 -12 -21 -12 -33 0 -12 5 -26 12 -33 17 -17 1529
-17 1546 0 7 7 12 21 12 33 0 12 -5 26 -12 33 -17 17 -1529 17 -1546 0z"/>
<path d="M2742 5938 c-17 -17 -15 -54 4 -72 14 -14 98 -16 773 -16 575 0 760
3 769 12 19 19 15 66 -7 78 -30 15 -1523 14 -1539 -2z"/>
<path d="M4907 6151 c-58 -8 -82 -30 -73 -65 9 -38 38 -49 89 -34 67 20 361
16 482 -6 272 -49 535 -169 769 -350 95 -73 86 -79 -62 -42 -55 15 -105 26
-111 26 -6 0 -18 -11 -26 -24 -24 -37 -6 -63 58 -80 128 -35 287 -68 348 -73
64 -5 68 -5 84 21 13 19 15 36 10 63 -11 65 -104 375 -116 389 -22 27 -89 6
-89 -27 0 -7 46 -159 76 -248 6 -17 -32 7 -101 64 -67 57 -196 144 -275 188
-160 88 -430 174 -615 196 -97 12 -370 13 -448 2z"/>
<path d="M5705 5306 c-121 -30 -235 -121 -283 -224 -38 -83 -44 -175 -39 -582
5 -425 7 -437 81 -537 51 -69 134 -128 218 -155 55 -17 105 -18 677 -18 l616
0 209 -195 c114 -107 220 -198 234 -202 15 -3 36 0 51 8 l26 15 3 187 2 187
53 0 c161 0 300 90 370 238 l32 67 0 456 0 455 -38 76 c-46 94 -120 164 -216
205 l-66 28 -940 2 c-726 1 -951 -1 -990 -11z m1960 -119 c73 -34 128 -85 163
-152 l27 -50 0 -430 0 -430 -27 -52 c-65 -122 -140 -168 -304 -187 -57 -6
-108 -16 -114 -22 -7 -7 -10 -66 -8 -176 l3 -166 -25 18 c-14 10 -56 51 -95
90 -38 39 -114 112 -167 162 l-98 90 -597 -1 c-403 -1 -617 2 -658 10 -119 22
-201 83 -251 186 l-29 58 -3 392 c-4 442 1 481 62 560 44 57 76 81 145 109
l56 24 930 -3 930 -2 60 -28z"/>
<path d="M5826 4794 c-19 -18 -20 -38 -6 -65 10 -19 31 -19 858 -19 646 0 851
3 860 12 19 19 15 66 -7 78 -13 7 -298 10 -855 10 -745 0 -836 -2 -850 -16z"/>
<path d="M5822 4458 c-17 -17 -15 -42 6 -61 17 -16 91 -17 858 -17 640 0 843
3 852 12 7 7 12 21 12 33 0 12 -5 26 -12 33 -17 17 -1699 17 -1716 0z"/>
<path d="M3702 4934 c-12 -8 -22 -23 -22 -33 0 -29 83 -132 167 -208 173 -155
326 -256 513 -335 151 -65 233 -86 480 -129 75 -12 376 -12 401 1 28 15 24 56
-6 76 -20 13 -40 16 -91 11 -82 -8 -315 8 -419 29 -113 23 -302 87 -406 139
-173 86 -403 260 -501 379 -64 77 -87 91 -116 70z"/>
</g>
</svg>
