<?xml version="1.0" standalone="no"?>
<!DOCTYPE svg PUBLIC "-//W3C//DTD SVG 20010904//EN"
 "http://www.w3.org/TR/2001/REC-SVG-20010904/DTD/svg10.dtd">
<svg version="1.0" xmlns="http://www.w3.org/2000/svg"
 width="1024.000000pt" height="1024.000000pt" viewBox="0 0 1024.000000 1024.000000"
 preserveAspectRatio="xMidYMid meet">
<metadata>
Created by potrace 1.16, written by Peter Selinger 2001-2019
</metadata>
<g transform="translate(0.000000,1024.000000) scale(0.100000,-0.100000)"
fill="#000000" stroke="none">
<path d="M4858 8304 c-15 -8 -52 -15 -82 -17 -31 -1 -56 -5 -56 -8 0 -3 -26
-12 -57 -19 -98 -21 -263 -80 -378 -134 -61 -29 -117 -50 -124 -48 -8 3 -11 0
-7 -6 4 -6 -4 -16 -16 -23 -36 -18 -129 -80 -170 -112 -21 -16 -38 -27 -38
-25 0 3 -21 -15 -46 -39 -26 -23 -51 -40 -57 -36 -5 3 -7 1 -4 -4 8 -13 -70
-86 -83 -78 -6 3 -8 0 -5 -7 2 -7 -27 -46 -65 -86 -38 -40 -68 -74 -67 -75 6
-7 -68 -95 -76 -90 -6 3 -7 1 -3 -5 6 -11 -57 -118 -79 -134 -5 -4 -7 -8 -2
-8 9 0 -62 -142 -75 -151 -5 -3 -8 -8 -6 -10 7 -9 -26 -88 -35 -82 -6 3 -7 1
-4 -4 4 -6 -4 -42 -18 -81 -21 -61 -47 -175 -72 -324 l-8 -47 -57 26 c-32 14
-55 30 -51 36 3 6 1 7 -5 3 -17 -10 -156 55 -140 67 9 6 8 7 -5 3 -25 -8 -522
234 -505 247 9 6 7 7 -6 3 -12 -4 -61 14 -135 49 -108 52 -119 55 -146 44 -17
-7 -34 -11 -38 -10 -5 1 -6 -3 -2 -9 3 -5 2 -10 -3 -10 -5 0 -8 -16 -7 -36 0
-26 8 -42 25 -57 14 -11 24 -23 23 -28 -2 -5 3 -6 10 -3 18 6 480 -220 470
-230 -4 -5 -3 -6 3 -3 13 8 197 -76 188 -85 -3 -3 1 -5 8 -4 22 2 297 -137
291 -147 -3 -6 -1 -7 5 -3 10 6 47 -9 82 -32 3 -2 -3 -8 -13 -13 -9 -6 -15
-15 -11 -21 4 -6 10 -5 15 3 5 8 9 -540 9 -1247 0 -1192 -1 -1262 -17 -1270
-10 -4 -22 -6 -26 -5 -5 1 -6 -3 -3 -7 8 -14 -31 -45 -45 -36 -7 4 -10 3 -5
-4 7 -12 -50 -59 -66 -54 -5 1 -7 -2 -4 -7 8 -13 -53 -63 -66 -55 -6 4 -8 2
-5 -3 8 -13 -17 -36 -28 -25 -5 4 -5 2 -1 -5 3 -6 0 -15 -7 -20 -8 -4 -40 -30
-72 -58 -32 -27 -65 -49 -74 -47 -13 2 -13 1 -2 -6 10 -8 8 -13 -10 -25 -12
-9 -27 -13 -32 -10 -6 3 -7 1 -4 -4 8 -13 -27 -46 -38 -36 -4 5 -5 3 -2 -4 8
-13 -67 -76 -77 -65 -4 4 -6 1 -4 -5 4 -16 -122 -124 -135 -116 -6 3 -7 2 -4
-4 9 -14 -130 -136 -145 -127 -6 4 -8 3 -5 -3 4 -6 1 -16 -7 -22 -8 -7 -16 -8
-18 -4 -3 4 -3 3 -2 -4 4 -18 -44 -53 -64 -46 -13 4 -14 3 -4 -5 10 -7 4 -17
-29 -45 -23 -20 -46 -35 -52 -34 -6 1 -11 -3 -12 -9 0 -6 -8 -18 -17 -28 -10
-10 -20 -27 -22 -39 -5 -27 -3 -68 3 -62 2 3 12 -2 22 -11 13 -12 28 -15 56
-10 21 3 43 7 50 8 7 1 10 5 8 9 -7 11 176 170 188 162 5 -3 7 -1 4 4 -4 6 19
33 51 59 31 27 75 65 97 85 73 67 102 89 109 81 4 -4 6 -2 4 4 -4 16 121 126
134 118 6 -4 8 -3 5 3 -7 12 148 150 164 146 5 -2 8 1 6 7 -3 13 134 131 145
124 5 -3 7 -1 6 4 -3 11 62 70 142 129 106 77 487 274 536 277 12 0 20 4 17 9
-2 4 -3 7 -1 7 2 0 59 23 128 50 68 28 130 48 138 45 7 -2 11 -1 8 4 -8 12
303 113 352 114 22 1 38 5 37 8 -5 7 167 48 225 53 25 2 59 7 75 11 20 4 11
-2 -23 -19 -30 -14 -67 -35 -83 -47 -16 -11 -34 -17 -40 -13 -7 4 -9 3 -5 -4
3 -6 -12 -24 -36 -40 -24 -17 -65 -53 -92 -81 -27 -27 -53 -48 -57 -45 -4 2
-11 -1 -15 -7 -4 -8 -3 -9 4 -5 19 12 14 -1 -17 -44 -15 -21 -34 -53 -41 -69
-7 -18 -17 -28 -24 -24 -6 3 -8 3 -5 -1 4 -4 1 -31 -7 -59 -18 -66 -18 -228 0
-287 7 -25 15 -49 16 -55 1 -5 7 -21 12 -35 16 -40 28 -142 22 -185 -12 -87
-26 -138 -36 -124 -6 10 -7 7 -3 -8 8 -27 -62 -166 -78 -156 -6 3 -7 1 -3 -6
9 -15 -32 -73 -46 -65 -7 4 -8 2 -4 -4 8 -13 -82 -120 -101 -121 -7 -1 -13 -6
-13 -12 0 -14 -55 -69 -69 -69 -6 0 -11 -5 -11 -11 0 -5 -5 -7 -12 -3 -6 4 -8
3 -5 -3 7 -11 -18 -35 -119 -114 -102 -79 -161 -119 -175 -119 -8 0 -21 -5
-29 -11 -12 -9 -11 -10 5 -5 16 5 16 3 -5 -14 -28 -22 -45 -26 -34 -8 4 7 3 8
-5 4 -6 -4 -9 -11 -6 -16 7 -11 -43 -42 -56 -35 -5 4 -8 1 -7 -6 2 -6 -3 -14
-11 -17 -9 -3 -11 0 -6 9 5 8 4 11 -1 6 -5 -5 -9 -13 -9 -18 0 -6 -18 -20 -40
-32 -22 -12 -46 -28 -53 -34 -16 -16 -131 -83 -140 -83 -4 0 0 5 8 11 13 9 13
10 0 6 -8 -2 -14 -9 -13 -15 3 -15 -226 -154 -240 -146 -7 4 -9 3 -4 -1 4 -5
-28 -32 -71 -60 l-78 -51 9 -34 c5 -19 13 -40 18 -46 5 -6 5 -15 1 -20 -4 -5
-3 -6 2 -2 4 3 23 4 42 1 28 -5 47 3 126 54 215 139 409 254 418 248 6 -4 9
-1 8 6 -2 6 3 14 11 17 8 3 11 0 7 -7 -11 -17 0 -13 15 6 12 15 12 16 -1 8
-43 -24 18 20 120 88 63 41 137 91 164 111 27 19 53 33 58 30 5 -3 7 -1 6 5
-4 13 63 62 75 54 6 -3 7 -2 4 4 -8 13 80 86 93 78 6 -4 9 -2 8 2 -2 5 40 52
93 104 212 207 326 417 344 632 5 58 2 91 -19 170 -14 54 -23 106 -20 115 5
13 4 14 -4 4 -11 -17 -18 4 -28 94 -4 45 -2 77 11 120 20 69 81 167 98 157 7
-3 9 -2 4 2 -10 11 53 76 66 68 6 -3 7 -1 4 5 -21 33 431 277 480 258 8 -3 12
-2 8 3 -10 17 90 33 243 38 102 3 157 2 165 -6 10 -8 17 -7 26 2 11 10 11 8 1
-11 -10 -21 -13 -22 -24 -7 -8 12 -22 15 -46 12 l-35 -4 36 -1 c20 -1 39 -8
42 -15 3 -7 -10 -45 -29 -83 -18 -38 -34 -78 -35 -89 0 -17 -1 -18 -7 -3 -4
10 -7 -33 -7 -95 0 -62 3 -114 6 -117 3 -3 9 -22 13 -43 6 -30 4 -37 -5 -31
-8 4 -10 3 -5 -5 4 -6 11 -9 15 -7 4 3 13 -11 20 -31 17 -46 75 -145 118 -202
18 -24 30 -48 26 -54 -3 -5 -2 -7 4 -4 12 7 106 -86 97 -96 -4 -4 -1 -7 6 -7
22 0 40 -33 27 -50 -10 -13 -10 -13 4 -3 21 17 33 5 16 -16 -10 -14 -10 -14 3
-4 22 17 154 -104 145 -132 -6 -16 -5 -17 4 -5 10 14 16 7 12 -13 -1 -5 3 -6
8 -3 13 8 83 -73 75 -86 -4 -7 -3 -8 4 -4 14 8 115 -133 107 -152 -2 -7 0 -10
5 -7 12 7 104 -181 95 -195 -3 -4 0 -10 7 -12 7 -3 13 -22 13 -46 0 -22 2 -36
6 -30 6 10 16 -26 40 -147 31 -158 1 -469 -58 -592 -8 -19 -13 -37 -9 -40 3
-3 6 -1 6 5 0 6 13 -3 29 -19 16 -16 39 -29 51 -29 12 0 18 -4 15 -10 -11 -17
3 -11 28 13 30 27 59 117 82 252 45 266 11 537 -98 785 -23 52 -42 104 -42
115 0 11 -5 20 -12 20 -7 0 -27 23 -44 50 -17 28 -54 78 -81 113 -27 34 -46
67 -43 73 4 5 2 8 -3 7 -10 -3 -135 121 -337 335 -74 78 -103 117 -142 194
l-48 95 0 112 c0 97 3 117 24 156 28 55 71 101 84 93 6 -3 7 -1 4 4 -4 6 9 25
28 42 34 29 40 31 121 31 47 0 83 -4 80 -8 -2 -4 5 -9 17 -9 17 -2 19 0 7 7
-10 6 137 9 400 9 228 -1 399 -5 380 -9 l-35 -7 33 -2 32 -1 0 -235 c0 -187 3
-242 15 -264 8 -16 11 -32 7 -36 -4 -5 -2 -5 4 -2 14 8 116 -82 107 -96 -3 -5
-2 -7 4 -4 5 3 26 -8 47 -24 30 -26 35 -34 25 -46 -10 -11 -10 -14 2 -11 8 2
16 6 19 9 3 4 39 -25 80 -63 41 -38 66 -66 55 -62 -11 4 -17 4 -13 0 3 -4 12
-8 20 -10 23 -3 39 -17 32 -28 -4 -7 -2 -8 4 -4 7 4 33 -12 59 -36 118 -105
198 -184 198 -193 0 -5 5 -10 10 -10 6 0 30 -15 54 -34 32 -26 39 -36 29 -43
-10 -8 -9 -9 3 -5 17 6 74 -44 63 -55 -3 -3 1 -5 8 -5 16 2 88 -58 88 -73 0
-5 6 -9 13 -7 6 1 11 -5 9 -13 -2 -8 0 -12 4 -8 9 10 84 -50 81 -65 -1 -6 3
-11 8 -12 19 -1 35 -16 29 -27 -4 -6 -2 -8 3 -5 6 4 16 1 22 -7 8 -10 9 -16 1
-19 -6 -3 -5 -4 2 -2 7 1 27 -6 45 -17 39 -23 75 -16 103 19 26 34 25 55 -5
91 -13 16 -21 33 -17 37 4 5 2 5 -5 1 -15 -8 -185 142 -176 157 3 6 1 7 -5 3
-14 -9 -94 63 -85 77 3 5 2 7 -4 4 -14 -9 -55 22 -47 35 4 6 3 8 -3 5 -13 -8
-46 27 -36 38 5 4 3 5 -4 2 -6 -4 -61 38 -130 100 -65 60 -164 148 -220 197
-57 49 -100 93 -97 98 3 5 1 7 -5 6 -17 -5 -242 195 -236 210 2 7 1 11 -4 8
-5 -3 -11 11 -14 32 -2 20 -4 585 -3 1254 l1 1218 210 101 c116 56 261 125
323 155 444 210 551 267 560 294 13 36 -8 85 -40 93 -35 9 -62 -1 -250 -92
-106 -52 -173 -79 -185 -75 -12 4 -14 3 -6 -3 16 -11 -292 -159 -322 -155 -14
1 -16 0 -7 -6 16 -11 -143 -86 -160 -76 -6 4 -8 3 -5 -3 8 -13 -20 -26 -35
-16 -6 3 -8 2 -5 -4 3 -5 -13 -19 -37 -30 l-43 -21 -6 71 c-18 231 -106 479
-249 704 -23 36 -37 67 -32 74 4 7 3 9 -3 6 -6 -4 -30 19 -53 51 -24 31 -54
69 -68 84 -15 16 -21 31 -16 40 4 7 4 10 -1 6 -4 -4 -56 38 -114 95 -233 223
-457 358 -750 451 -240 76 -484 103 -751 83 -54 -4 -78 -3 -65 3 12 5 14 8 5
8 -8 0 -27 -7 -42 -14z m526 -159 c120 -16 274 -53 370 -89 92 -35 196 -87
196 -98 0 -5 5 -6 10 -3 6 3 10 1 10 -5 0 -6 4 -9 8 -6 24 14 359 -234 345
-257 -3 -5 -1 -7 5 -3 13 8 178 -170 176 -190 -1 -8 2 -12 6 -9 12 8 33 -23
24 -36 -4 -8 -3 -9 4 -5 15 9 126 -159 116 -176 -4 -6 -3 -8 3 -5 13 8 36 -41
27 -55 -4 -6 -2 -8 3 -5 18 11 130 -271 119 -300 -3 -6 -1 -13 4 -15 5 -2 17
-41 26 -88 16 -77 18 -192 21 -1156 l4 -1070 -833 1 c-458 1 -891 -2 -963 -8
-71 -5 -160 -10 -197 -10 -37 -1 -62 -5 -55 -9 8 -5 3 -8 -12 -8 -63 0 -360
-70 -518 -121 -51 -17 -98 -27 -105 -23 -7 4 -10 3 -5 -1 4 -5 -55 -32 -130
-61 -76 -28 -175 -68 -221 -88 -45 -20 -87 -34 -94 -30 -6 4 -8 3 -5 -3 3 -5
-40 -32 -95 -59 -56 -27 -135 -68 -176 -91 -42 -24 -76 -43 -77 -43 -1 0 0 11
2 24 3 14 13 27 22 29 12 4 11 5 -4 6 -19 1 -20 7 -18 94 1 50 2 157 2 237 -6
2355 -8 2288 45 2488 36 136 128 358 145 348 4 -3 7 5 7 17 -1 13 4 21 12 19
8 -1 11 2 7 8 -16 25 214 328 237 314 6 -4 8 -3 5 3 -9 15 60 86 74 77 7 -4 9
-3 5 4 -17 27 224 202 399 288 132 65 307 129 331 120 7 -3 14 0 16 5 2 6 24
15 48 20 164 38 485 49 674 24z"/>
</g>
</svg>
