<?xml version="1.0" standalone="no"?>
<!DOCTYPE svg PUBLIC "-//W3C//DTD SVG 20010904//EN"
 "http://www.w3.org/TR/2001/REC-SVG-20010904/DTD/svg10.dtd">
<svg version="1.0" xmlns="http://www.w3.org/2000/svg"
 width="1024.000000pt" height="1024.000000pt" viewBox="0 0 1024.000000 1024.000000"
 preserveAspectRatio="xMidYMid meet">
<metadata>
Created by potrace 1.16, written by Peter Selinger 2001-2019
</metadata>
<g transform="translate(0.000000,1024.000000) scale(0.100000,-0.100000)"
fill="#000000" stroke="none">
<path d="M4388 10233 c409 -2 1075 -2 1480 0 405 1 71 2 -743 2 -814 0 -1146
-1 -737 -2z"/>
<path d="M3910 8728 c-19 -5 -46 -10 -59 -10 -14 0 -19 -3 -12 -7 8 -5 3 -11
-13 -19 -39 -17 -105 -81 -131 -126 -13 -23 -53 -122 -90 -221 -36 -99 -69
-182 -73 -185 -4 -3 -8 -12 -8 -20 -2 -13 -198 -546 -225 -610 -11 -25 -177
-471 -219 -587 -13 -35 -27 -63 -32 -63 -5 0 -7 -4 -4 -9 8 -13 -65 -202 -75
-195 -5 3 -6 -1 -3 -9 6 -16 -143 -420 -157 -425 -5 -2 -7 -7 -4 -12 3 -4 -21
-75 -51 -156 -44 -115 -57 -162 -57 -205 0 -69 29 -135 81 -181 20 -17 36 -36
34 -41 -1 -5 1 -6 5 -4 5 3 33 -1 63 -9 45 -12 181 -14 759 -14 387 0 705 -1
706 -2 1 -2 5 -34 8 -73 3 -38 2 -59 -2 -45 -7 25 -7 25 -13 2 -4 -14 -1 -25
9 -31 8 -4 28 -47 43 -94 15 -48 24 -85 20 -82 -4 3 -7 -7 -7 -21 0 -13 2 -22
5 -20 3 3 11 -2 19 -12 13 -15 13 -15 4 5 -22 45 -10 36 19 -14 17 -29 30 -59
30 -68 0 -8 5 -14 11 -12 6 1 14 -4 16 -11 3 -8 -1 -10 -14 -5 -10 3 -15 3
-11 -1 3 -4 12 -8 20 -10 7 -1 51 -38 97 -83 56 -56 77 -81 62 -78 -11 2 -21
0 -21 -4 0 -5 -21 -16 -47 -26 -27 -10 -54 -22 -60 -28 -7 -5 -20 -7 -28 -3
-9 3 -14 2 -11 -3 3 -5 -31 -30 -77 -57 -45 -27 -82 -47 -82 -46 0 2 -22 -17
-48 -43 -28 -27 -53 -43 -60 -39 -7 4 -9 4 -5 -1 4 -4 -26 -43 -67 -87 -174
-185 -290 -403 -345 -646 -32 -144 -51 -377 -33 -405 3 -6 1 -7 -5 -3 -7 4
-12 2 -12 -3 0 -6 5 -11 10 -11 15 0 13 -117 -2 -123 -8 -3 -5 -6 6 -6 15 -1
17 -8 14 -40 -2 -22 -1 -38 3 -35 3 2 9 -21 13 -51 3 -30 15 -94 26 -142 12
-48 18 -93 15 -100 -2 -8 0 -11 5 -8 6 4 10 -5 10 -20 0 -17 -4 -24 -12 -19
-7 4 -8 3 -4 -5 4 -6 12 -8 18 -5 8 5 9 -4 5 -27 -4 -19 -3 -28 1 -21 11 16
55 -137 54 -187 0 -28 1 -32 8 -16 5 11 9 15 9 8 1 -6 4 -19 8 -29 4 -12 3
-15 -5 -10 -7 4 -12 2 -12 -3 0 -6 6 -11 14 -11 7 0 16 -10 20 -22 9 -34 7
-40 -6 -32 -7 4 -10 4 -6 0 3 -4 10 -8 15 -8 14 0 39 -81 37 -118 -2 -40 11
-70 29 -70 12 0 52 -90 52 -115 0 -5 4 -13 8 -16 5 -3 -67 -9 -160 -12 -176
-6 -247 -19 -331 -60 -26 -13 -54 -22 -64 -20 -9 2 -20 -1 -24 -8 -5 -9 -2
-10 12 -5 10 3 3 -6 -16 -21 -82 -63 -176 -185 -200 -259 -7 -20 -16 -31 -22
-28 -7 4 -8 2 -4 -4 4 -6 0 -45 -9 -86 -21 -103 -20 -238 2 -279 9 -18 16 -36
15 -40 -1 -5 2 -6 8 -2 5 3 19 1 31 -6 12 -6 43 -11 68 -11 33 1 42 -1 31 -8
-9 -6 -10 -10 -3 -10 6 0 14 4 17 9 4 5 76 10 162 10 125 2 154 -1 148 -11 -6
-10 -4 -10 7 -2 8 6 46 12 86 12 59 2 74 -1 83 -15 11 -17 11 -17 6 -1 -4 15
1 18 30 18 21 0 37 -6 40 -15 4 -8 10 -12 15 -9 5 3 9 0 9 -5 0 -6 5 -11 10
-11 7 0 7 6 0 20 -10 19 -8 20 57 20 41 0 63 -4 55 -9 -10 -6 -9 -10 7 -14 12
-3 19 -2 16 3 -3 4 8 10 25 12 16 2 27 1 25 -3 -3 -4 2 -10 11 -13 21 -8 24
-8 24 5 0 5 -5 7 -12 3 -7 -4 -8 -3 -4 4 4 7 23 12 41 12 28 0 33 -3 28 -17
-5 -15 -3 -15 11 2 l18 20 -6 -20 c-6 -19 -5 -19 8 -2 15 20 42 23 49 5 4 -10
6 -10 6 0 1 6 5 12 10 12 5 0 7 -10 3 -22 -3 -14 -2 -19 6 -14 7 4 12 13 12
20 0 10 25 13 98 14 109 1 133 -3 126 -22 -3 -7 2 -13 11 -13 10 0 13 6 10 17
-3 11 1 16 14 16 11 0 17 -4 15 -8 -3 -4 -1 -8 5 -8 5 0 13 4 16 10 10 16 105
8 105 -9 0 -11 3 -10 13 3 12 17 14 17 20 2 4 -9 2 -16 -3 -16 -6 0 -10 -5
-10 -11 0 -8 5 -8 15 1 8 7 15 19 15 26 0 8 5 14 11 14 5 0 7 -6 3 -12 -6 -10
-4 -10 7 -2 8 5 39 10 69 9 83 -3 90 -4 84 -18 -3 -8 4 -13 17 -14 16 -2 18 1
9 12 -7 8 -7 15 -1 19 5 4 12 2 15 -3 4 -6 19 -6 39 0 44 13 60 12 51 -3 -6
-10 -4 -10 7 -2 15 12 138 19 170 9 10 -4 16 -11 13 -17 -4 -6 -2 -8 4 -4 5 3
12 3 15 -1 2 -5 3 -3 1 3 -2 8 10 12 31 11 19 -1 31 -5 28 -11 -3 -5 -1 -6 5
-2 7 4 12 1 12 -8 0 -9 5 -16 10 -16 7 0 7 6 0 19 -5 11 -10 22 -10 25 0 3 63
5 140 4 76 -1 137 -5 135 -9 -3 -4 12 -3 32 2 26 5 40 4 45 -4 5 -9 10 -9 20
1 21 21 105 12 91 -11 -3 -6 -1 -7 6 -3 6 4 9 12 6 17 -4 5 6 9 20 9 14 0 24
-4 20 -9 -3 -5 0 -13 6 -17 7 -4 9 -3 6 3 -4 6 0 13 8 16 10 4 12 1 8 -11 -3
-9 -3 -14 2 -10 4 4 14 0 22 -10 12 -16 13 -16 7 0 -5 14 -1 18 15 18 12 0 21
4 21 8 0 5 16 9 35 10 21 1 33 -3 30 -8 -3 -6 -2 -10 4 -10 5 0 13 5 16 10 9
15 65 12 65 -2 0 -10 2 -10 8 -1 11 17 396 18 386 1 -6 -10 -4 -10 8 0 21 17
229 15 240 -2 6 -8 8 -7 8 2 0 6 9 12 19 12 11 0 23 5 26 11 4 6 13 8 21 5 8
-3 13 -2 12 2 -1 4 6 21 15 39 19 36 21 95 7 198 -6 39 -13 94 -17 123 -3 29
-8 50 -11 48 -6 -7 -77 135 -75 151 0 7 -2 12 -6 11 -9 -3 -135 125 -133 135
1 4 -1 6 -5 6 -5 -1 -15 -1 -23 0 -13 1 -13 3 0 12 13 9 13 10 -2 6 -9 -3 -38
5 -65 18 -98 47 -150 57 -331 62 -95 3 -171 9 -170 12 2 4 21 53 43 110 30 79
41 99 47 84 6 -13 7 -11 3 8 -3 15 8 64 26 115 53 155 125 415 150 536 13 64
26 115 29 113 3 -1 6 23 7 54 1 31 6 94 12 141 16 132 10 335 -15 452 l-5 27
63 0 c61 0 137 20 164 42 7 6 19 7 26 3 7 -4 10 -4 6 1 -4 4 10 28 33 52 74
80 82 113 82 315 0 126 3 175 11 171 8 -5 8 -3 0 8 -5 8 -11 52 -12 99 -3 87
-14 138 -39 177 -8 12 -11 28 -7 34 4 7 3 9 -3 6 -9 -6 -56 35 -51 44 2 2 1 3
-1 2 -8 -5 -41 19 -36 26 2 5 -1 9 -8 8 -50 -2 -47 -23 -47 332 l0 330 368 3
c361 3 368 3 414 26 94 46 158 152 145 240 -2 20 -30 104 -61 186 -30 82 -53
152 -51 157 3 4 1 9 -4 11 -15 5 -81 197 -74 215 4 10 2 14 -4 10 -6 -4 -14 1
-18 11 -69 174 -143 386 -138 399 4 10 2 14 -4 10 -7 -4 -25 31 -46 91 -20 53
-72 193 -116 310 -45 118 -79 218 -76 223 4 5 2 9 -3 9 -14 0 -83 195 -76 216
4 13 3 15 -3 6 -12 -16 -167 393 -157 410 4 6 3 9 -2 5 -5 -3 -40 76 -78 176
-37 100 -80 200 -94 222 -14 22 -25 45 -25 52 0 6 -5 11 -11 10 -6 -1 -10 5
-8 13 2 8 1 12 -3 8 -4 -3 -27 9 -52 28 -24 19 -50 34 -56 34 -7 0 -6 5 3 11
13 10 13 10 -1 6 -8 -3 -40 1 -69 9 -45 12 -250 14 -1215 13 -729 -1 -1173 -5
-1195 -11z m474 -210 c-5 -7 -2 -8 6 -3 21 13 163 17 155 5 -5 -7 0 -7 12 1
15 9 37 9 87 2 37 -5 69 -6 71 -2 3 4 56 7 119 6 73 0 113 -4 109 -10 -3 -6
-1 -7 6 -3 21 13 60 16 66 6 5 -8 11 -8 20 0 16 13 145 9 137 -4 -3 -6 3 -6
14 -2 34 14 57 16 69 6 7 -6 24 -6 46 0 44 13 52 13 43 -2 -6 -10 -4 -10 8 0
16 13 44 12 67 -2 8 -5 12 -5 9 0 -4 5 96 10 239 10 140 1 239 -2 232 -7 -11
-7 -10 -9 4 -9 9 0 17 5 17 10 0 6 23 10 51 10 41 0 50 -3 45 -15 -3 -9 0 -15
9 -15 9 0 12 6 9 15 -6 13 9 15 104 14 118 -2 170 -14 207 -49 24 -23 69 -126
60 -140 -3 -5 1 -10 7 -13 10 -3 10 -7 1 -18 -8 -10 -9 -19 -1 -29 8 -12 9
-12 4 3 -3 9 -1 17 4 17 6 0 10 -1 10 -3 0 -2 23 -64 50 -137 28 -73 48 -140
46 -147 -3 -8 -2 -12 3 -9 12 8 90 -207 80 -219 -6 -6 -1 -16 12 -26 15 -11
22 -27 22 -47 0 -17 3 -29 7 -27 5 3 235 -592 257 -665 4 -12 3 -12 -5 -1 -6
8 -12 9 -16 3 -3 -6 3 -14 15 -17 14 -5 19 -13 16 -26 -3 -12 -1 -17 6 -12 7
4 8 0 4 -11 -4 -9 -3 -15 2 -12 11 7 43 -82 35 -95 -3 -5 -1 -9 4 -9 13 0 94
-220 88 -237 -3 -8 -2 -12 3 -9 5 3 12 -2 16 -12 52 -130 127 -342 127 -360 0
-13 3 -20 6 -17 8 8 83 -195 76 -206 -3 -5 -1 -9 3 -9 11 0 43 -87 43 -116 0
-12 -7 -25 -16 -28 -9 -4 -1003 -6 -2209 -6 -1934 1 -2194 3 -2199 16 -8 21
234 665 247 657 6 -3 7 -1 3 6 -4 6 0 34 9 62 10 30 20 46 25 40 3 -7 7 1 7
17 0 27 77 238 519 1417 85 225 162 418 172 428 36 36 85 43 297 45 147 0 204
-2 199 -10z m1295 -2963 c-18 -146 -103 -307 -201 -382 -67 -51 -95 -66 -110
-57 -6 4 -8 3 -4 -4 12 -20 -103 -54 -204 -59 -103 -6 -215 10 -204 29 4 7 2
8 -5 4 -6 -4 -28 -2 -47 4 -28 10 -33 15 -23 22 10 7 8 8 -9 5 -28 -6 -119 52
-114 74 2 8 0 11 -4 6 -10 -10 -55 33 -47 46 3 6 1 7 -5 3 -16 -9 -77 88 -108
172 -14 37 -28 97 -31 134 l-6 68 439 2 c241 2 496 2 565 0 l125 -3 -7 -64z
m722 -32 c1 -54 0 -110 -1 -125 -1 -15 4 -37 10 -49 7 -12 8 -19 3 -16 -11 7
-11 -243 0 -260 5 -7 4 -13 -1 -13 -12 0 -13 -49 -1 -71 6 -13 -2 -21 -43 -40
-28 -13 -64 -41 -81 -61 -16 -21 -33 -35 -38 -32 -4 2 -8 -4 -8 -13 0 -10 -7
-43 -15 -73 -11 -35 -16 -96 -16 -175 0 -77 -4 -115 -9 -105 -6 8 -7 18 -5 22
3 5 1 7 -4 6 -5 -2 -37 29 -71 68 -57 66 -124 128 -193 180 -15 11 -24 24 -20
28 4 4 2 6 -3 4 -16 -5 -125 64 -118 75 3 6 1 7 -4 4 -11 -7 -156 59 -161 74
-2 5 -8 7 -12 4 -5 -3 -21 -3 -36 1 l-26 7 48 41 c27 22 52 40 57 38 5 -1 6 1
3 6 -3 5 8 22 25 38 42 41 113 150 143 223 30 69 51 157 61 249 l7 62 254 0
254 0 1 -97z m-1126 -703 c95 -14 226 -50 219 -61 -3 -5 2 -6 11 -3 8 4 62
-17 122 -46 81 -39 103 -54 92 -62 -11 -8 -10 -8 5 -4 23 8 47 -10 39 -30 -3
-8 0 -14 7 -14 6 0 8 5 5 10 -3 6 -2 10 4 10 10 0 26 -19 26 -32 0 -3 4 -10 9
-15 5 -5 6 -3 2 5 -4 6 -3 12 2 12 13 0 53 -45 47 -53 -3 -4 -2 -5 1 -2 11 8
65 -36 58 -47 -4 -6 -2 -8 4 -4 13 8 55 -48 44 -59 -4 -5 -2 -5 4 -2 6 4 19
-2 29 -13 13 -15 15 -23 7 -33 -9 -10 -8 -14 3 -14 8 0 11 5 8 11 -4 6 1 5 11
-3 9 -8 14 -21 11 -29 -3 -8 3 -16 15 -19 19 -5 24 -14 21 -40 -1 -6 4 -15 10
-19 8 -5 9 -3 4 6 -6 9 -4 11 4 6 7 -5 10 -15 7 -23 -3 -8 -1 -11 4 -8 29 18
148 -324 135 -385 -4 -17 -2 -30 3 -30 14 0 22 -147 15 -258 -5 -70 -9 -90
-15 -72 -5 17 -6 12 -3 -18 6 -48 -17 -206 -46 -327 -38 -155 -82 -304 -89
-300 -3 2 -12 -1 -20 -7 -12 -8 -12 -9 3 -4 19 6 20 2 11 -31 -4 -13 -10 -20
-15 -17 -5 3 -6 -2 -3 -10 5 -13 -38 -147 -99 -306 -41 -106 -49 -122 -58
-108 -5 8 -8 1 -6 -17 l2 -30 -802 -3 -803 -2 -16 37 c-82 196 -205 564 -253
763 -47 195 -62 302 -68 485 -4 141 -1 189 15 283 14 81 25 118 39 128 10 9
12 13 6 9 -7 -3 -13 -4 -13 -2 0 18 47 132 81 198 44 84 158 244 175 244 15 0
35 16 30 24 -12 18 168 166 187 154 7 -3 9 -3 5 2 -10 11 38 40 144 86 195 85
422 117 623 89z m1285 -45 c16 -8 35 -25 41 -38 14 -25 21 -413 8 -481 -9 -52
-47 -86 -95 -86 -46 0 -70 14 -89 50 -21 41 -22 454 -1 504 26 61 78 81 136
51z m-950 -2685 l-105 -6 120 -2 c81 -1 115 1 105 8 -11 7 -3 10 28 10 26 0
41 -4 37 -10 -3 -6 4 -10 17 -10 18 0 20 2 8 10 -10 7 23 9 100 8 l115 -2
-100 -6 -100 -6 120 -1 c78 -1 113 2 100 7 -12 6 72 8 220 7 214 -2 244 -4
277 -21 20 -11 35 -23 33 -27 -3 -3 3 -6 12 -5 10 0 18 -6 18 -14 0 -8 8 -14
17 -12 22 3 81 -70 115 -144 18 -40 28 -79 29 -121 l3 -63 -1660 0 -1661 0 7
63 c10 81 37 149 86 215 36 48 49 57 72 53 5 -1 6 3 2 8 -6 10 57 47 105 62
14 4 466 7 1005 6 539 0 933 -4 875 -7z"/>
<path d="M5185 4530 c13 -6 -8 -9 -65 -9 -56 -1 -110 -8 -155 -22 -39 -11 -84
-21 -102 -22 -18 0 -30 -4 -27 -8 2 -5 12 -6 22 -3 9 3 -1 -5 -23 -17 -22 -12
-71 -54 -110 -93 -38 -38 -74 -69 -78 -68 -5 1 -6 -1 -3 -6 3 -5 -11 -41 -30
-80 -56 -113 -73 -262 -44 -396 5 -21 6 -44 3 -52 -2 -7 0 -21 7 -31 10 -16
10 -15 6 7 -5 21 -4 20 8 -5 10 -22 11 -32 3 -37 -8 -5 -7 -8 3 -8 8 0 25 -17
37 -38 11 -21 42 -61 67 -89 25 -27 43 -53 41 -57 -3 -3 -2 -4 1 -1 4 2 26 -9
51 -26 100 -69 203 -100 328 -100 91 1 172 19 246 56 27 14 55 23 61 19 6 -4
8 -3 5 3 -3 5 16 26 43 47 89 68 163 185 195 307 22 84 16 239 -14 322 -43
123 -128 238 -221 298 -27 17 -47 36 -46 43 2 6 1 8 -1 4 -3 -5 -9 -8 -14 -8
-6 0 -7 4 -4 10 3 5 0 7 -9 4 -8 -3 -28 1 -44 10 -16 8 -48 18 -70 22 -23 3
-43 13 -46 20 -3 8 -13 14 -23 13 -16 0 -16 -1 2 -9z m72 -242 c29 -11 56 -24
59 -30 5 -8 1 -9 -10 -5 -11 4 -15 3 -10 -4 3 -6 14 -9 24 -6 21 5 65 -35 53
-48 -5 -4 -3 -5 4 -1 21 12 103 -121 102 -164 0 -10 -3 -8 -9 5 -7 15 -9 16
-9 4 -1 -9 6 -23 15 -30 36 -30 -10 -276 -47 -253 -8 4 -9 3 -5 -5 9 -14 -41
-84 -55 -76 -5 4 -9 0 -9 -7 0 -26 -111 -82 -143 -73 -15 4 -18 3 -9 -3 10 -6
-1 -11 -35 -16 -61 -8 -145 3 -136 17 4 6 0 8 -10 4 -20 -8 -79 12 -71 24 3 5
-1 6 -9 3 -17 -6 -112 78 -134 120 -9 17 -16 45 -15 61 1 23 -1 26 -7 11 -15
-37 -34 67 -29 157 5 101 34 169 100 236 103 104 249 134 395 79z"/>
<path d="M5665 3250 c4 -6 -7 -10 -25 -10 -41 0 -100 -56 -100 -94 0 -14 -5
-26 -11 -26 -5 0 -7 -5 -4 -10 4 -6 11 -7 17 -4 8 5 9 1 5 -10 -4 -9 -3 -15 2
-11 12 7 72 -69 69 -87 -2 -7 2 -12 9 -11 14 3 66 -64 59 -76 -3 -5 2 -15 12
-22 15 -12 16 -12 7 1 -5 9 -2 7 7 -3 10 -11 15 -24 11 -30 -3 -5 -1 -7 4 -4
13 8 47 -28 39 -41 -6 -11 10 -14 74 -14 58 0 82 3 75 10 -2 3 2 14 10 26 8
11 15 37 15 57 0 32 -14 55 -101 165 -75 95 -97 129 -87 136 10 7 10 8 -2 6
-18 -3 -72 31 -65 42 3 4 -2 11 -11 14 -8 3 -12 2 -9 -4z"/>
<path d="M4533 3216 c-17 -14 -33 -23 -37 -21 -3 3 -4 2 -1 -1 5 -8 -47 -85
-71 -105 -11 -9 -15 -9 -10 -1 4 7 2 12 -4 12 -7 0 -9 -7 -6 -16 7 -19 -52
-96 -68 -87 -6 3 -8 3 -4 -2 11 -11 -11 -47 -24 -39 -6 4 -8 3 -5 -3 4 -6 3
-24 -2 -40 -18 -62 32 -123 100 -123 32 0 43 7 79 48 23 26 47 46 52 44 5 -1
7 2 4 7 -6 8 27 55 111 159 53 65 56 103 16 153 -37 46 -87 51 -130 15z"/>
<path d="M5081 3091 c-13 -3 -34 -19 -45 -34 -20 -27 -21 -41 -21 -242 l0
-214 29 -30 c37 -38 68 -46 111 -26 58 28 65 58 65 273 0 105 -4 202 -10 216
-10 27 -65 67 -90 65 -8 -1 -26 -4 -39 -8z"/>
<path d="M3973 3 c636 -2 1678 -2 2315 0 636 1 115 2 -1158 2 -1273 0 -1794
-1 -1157 -2z"/>
</g>
</svg>
