<?xml version="1.0" standalone="no"?>
<!DOCTYPE svg PUBLIC "-//W3C//DTD SVG 20010904//EN" "http://www.w3.org/TR/2001/REC-SVG-20010904/DTD/svg10.dtd">
<svg xmlns="http://www.w3.org/2000/svg" version="1.0" width="1024.000000pt" height="1024.000000pt" viewBox="0 0 1024.000000 1024.000000" preserveAspectRatio="xMidYMid meet">
<metadata>
Created by potrace 1.16, written by Peter Selinger 2001-2019
<meta name="Producer" content="Online-Convert"/></metadata>
<g transform="translate(0.000000,1024.000000) scale(0.100000,-0.100000)" fill="#000000" stroke="none">
<path d="M2549 8973 c-25 -6 -47 -54 -54 -118 -9 -79 -28 -161 -49 -209 -23 -54 -86 -137 -98 -129 -6 3 -8 1 -5 -4 9 -15 -29 -55 -98 -101 -88 -58 -144 -83 -224 -98 -111 -21 -141 -41 -145 -95 -2 -24 5 -39 27 -61 17 -15 37 -28 46 -29 60 -3 141 -26 141 -39 0 -5 6 -7 14 -4 28 11 202 -108 189 -128 -3 -6 -1 -8 5 -4 14 8 44 -22 36 -36 -4 -6 -3 -8 3 -5 12 8 75 -68 71 -86 -2 -6 7 -22 20 -35 23 -23 31 -59 10 -46 -7 4 -8 3 -4 -5 4 -6 11 -9 16 -6 16 10 52 -126 39 -147 -5 -7 -9 -17 -9 -23 0 -5 4 -4 9 4 7 10 11 1 16 -33 5 -30 15 -52 28 -61 24 -17 97 -20 97 -5 0 6 7 10 15 10 16 0 31 47 40 125 10 90 61 215 80 197 5 -4 5 -1 1 6 -13 22 67 128 87 115 6 -3 7 -1 3 6 -12 18 63 82 88 76 12 -3 15 -2 9 1 -38 17 128 99 227 111 76 9 130 49 130 96 0 57 -52 98 -130 101 -53 3 -167 47 -230 89 -63 43 -145 131 -187 200 -19 32 -36 63 -37 70 -1 7 -4 17 -7 22 -14 24 -26 77 -37 169 -7 57 -13 73 -36 92 -25 22 -58 28 -97 17z m131 -549 c21 -28 63 -73 94 -99 30 -27 53 -52 50 -57 -3 -4 3 -5 12 -1 10 4 15 2 11 -4 -3 -5 -1 -10 6 -10 7 0 31 -9 54 -20 l42 -20 -34 -13 c-19 -8 -35 -17 -35 -22 0 -4 -7 -8 -15 -8 -8 0 -15 -4 -15 -8 0 -4 -13 -16 -30 -25 -67 -40 -194 -192 -215 -258 -4 -10 -9 -19 -13 -19 -4 0 -22 27 -41 60 -34 58 -149 185 -204 225 -16 11 -51 32 -80 47 -29 15 -45 27 -37 28 15 0 110 47 120 59 3 3 23 19 45 35 65 48 150 148 182 214 l17 37 24 -45 c13 -25 41 -68 62 -96z"/>
<path d="M4917 8914 c-1 -1 -29 -5 -62 -8 -70 -6 -139 -18 -250 -41 -44 -10 -84 -18 -90 -19 -5 -1 -14 -4 -20 -8 -5 -3 -26 -9 -45 -13 -19 -4 -41 -11 -50 -16 -8 -5 -49 -22 -90 -38 -85 -33 -198 -87 -250 -119 -20 -13 -43 -19 -55 -16 -14 4 -16 3 -7 -4 10 -6 -5 -20 -55 -50 -37 -22 -77 -49 -88 -59 -11 -10 -36 -30 -55 -43 -19 -14 -42 -32 -51 -40 -10 -8 -39 -33 -65 -55 -26 -22 -54 -48 -62 -57 -9 -9 -20 -14 -26 -11 -6 3 -8 2 -3 -2 9 -11 -144 -166 -156 -158 -6 3 -7 2 -4 -4 9 -14 -22 -55 -35 -47 -6 4 -8 2 -4 -4 3 -6 -14 -35 -38 -64 -25 -29 -84 -110 -131 -181 -48 -70 -91 -125 -96 -121 -5 3 -6 -1 -4 -9 3 -7 -16 -51 -43 -98 -26 -46 -68 -129 -92 -183 -65 -143 -101 -214 -96 -188 2 13 0 19 -6 16 -5 -3 -7 -17 -4 -30 4 -13 -3 -49 -14 -81 -12 -32 -37 -110 -56 -173 -19 -63 -43 -142 -54 -175 -17 -54 -32 -123 -46 -210 -3 -16 -12 -68 -20 -115 -20 -110 -22 -124 -28 -190 -27 -296 -29 -357 -22 -827 1 -28 5 -49 10 -45 9 5 6 -11 -9 -53 -5 -14 -4 -16 3 -6 13 18 21 -38 10 -68 -5 -14 -4 -20 2 -16 11 7 15 -10 30 -120 7 -44 18 -109 26 -145 7 -36 16 -76 18 -90 3 -14 13 -52 22 -85 9 -33 18 -69 20 -80 1 -11 3 -21 4 -22 2 -2 3 -6 5 -10 1 -5 5 -15 8 -23 4 -8 20 -60 37 -115 16 -55 40 -122 51 -150 12 -27 25 -59 29 -70 4 -11 22 -54 39 -95 19 -46 29 -84 26 -95 -5 -14 -4 -16 3 -7 7 11 10 10 16 -3 3 -9 4 -21 1 -25 -3 -5 0 -12 6 -16 8 -5 9 -3 4 7 -6 11 -5 11 5 3 6 -7 13 -23 13 -37 1 -14 4 -23 6 -21 9 9 31 -36 25 -53 -5 -14 -4 -15 4 -4 8 11 17 0 41 -48 18 -34 29 -66 26 -72 -4 -5 -1 -8 6 -7 7 2 17 -6 23 -17 6 -12 29 -47 51 -79 22 -32 45 -66 50 -75 6 -9 25 -36 43 -59 19 -24 30 -47 26 -53 -4 -7 -3 -9 3 -6 13 8 47 -28 39 -41 -3 -5 2 -16 12 -23 16 -13 16 -12 3 6 -8 11 6 -2 32 -30 25 -27 43 -54 40 -59 -3 -5 -2 -6 4 -3 17 11 73 -56 68 -81 -2 -13 0 -20 6 -17 5 4 7 11 4 16 -4 5 -2 9 4 9 16 0 70 -71 65 -85 -3 -7 -1 -16 5 -20 6 -3 11 -1 11 5 0 14 15 5 68 -39 23 -19 38 -39 35 -45 -3 -6 -3 -8 1 -4 7 6 104 -53 116 -71 6 -10 114 -81 168 -111 33 -19 41 -28 37 -44 -3 -12 -2 -15 1 -8 9 19 31 14 97 -22 60 -33 209 -98 254 -111 13 -3 30 -13 38 -21 8 -9 15 -11 15 -6 0 5 48 -3 108 -19 59 -16 127 -32 152 -35 25 -3 63 -10 85 -15 62 -13 437 -10 545 6 116 16 228 40 295 62 28 10 52 17 55 18 8 1 72 26 116 46 22 11 44 19 48 19 16 0 202 98 271 143 124 81 268 195 368 291 26 26 53 44 59 40 6 -4 8 -3 4 4 -3 6 26 47 66 91 71 80 72 80 87 58 9 -12 14 -26 13 -32 -2 -5 0 -7 4 -3 4 4 18 -5 32 -20 13 -15 43 -47 66 -72 84 -92 242 -266 281 -309 22 -25 69 -77 105 -116 101 -109 130 -147 123 -158 -3 -5 -2 -7 4 -4 15 9 67 -49 58 -64 -5 -7 -4 -10 2 -6 13 8 56 -37 46 -47 -5 -4 -1 -6 7 -4 10 2 14 -3 12 -16 -2 -10 1 -15 7 -12 15 10 82 -67 68 -77 -8 -5 -7 -7 3 -5 8 1 42 -23 75 -55 33 -31 75 -64 93 -73 32 -15 46 -31 17 -21 -8 4 -17 2 -20 -3 -3 -5 14 -8 37 -8 24 1 74 -4 112 -10 41 -8 87 -10 115 -5 55 9 50 7 84 21 35 15 47 15 47 1 0 -5 5 -7 11 -3 8 4 7 9 -2 15 -9 5 -5 11 17 21 127 57 235 240 228 388 -3 57 -24 161 -36 177 -6 7 -6 18 -2 25 4 7 4 10 -1 6 -5 -5 -19 9 -33 29 -38 55 -52 70 -124 130 -37 31 -64 61 -61 66 3 6 1 7 -5 3 -6 -4 -30 10 -54 32 -24 21 -55 49 -70 62 -15 13 -24 28 -21 34 3 6 3 8 -2 4 -7 -7 -50 26 -132 99 -17 15 -56 50 -87 77 -31 27 -53 53 -49 60 3 6 3 8 -2 4 -14 -13 -169 124 -156 138 3 4 1 4 -5 1 -15 -9 -66 32 -58 45 4 6 3 8 -3 5 -13 -8 -86 67 -76 78 5 4 3 5 -4 1 -15 -8 -165 122 -156 137 3 6 1 7 -6 3 -7 -4 -34 14 -67 46 l-56 54 52 108 c28 60 65 145 81 190 35 94 99 274 104 296 3 8 14 49 25 90 12 41 23 84 25 95 3 11 8 34 12 50 9 39 8 33 17 88 4 26 10 45 14 43 4 -2 7 10 7 27 1 18 7 73 13 122 26 182 32 296 32 570 0 154 -2 298 -5 320 -2 22 -7 65 -11 95 -3 30 -8 73 -10 95 -5 74 -77 446 -89 466 -3 4 -19 56 -35 114 -17 58 -51 163 -76 233 -26 70 -47 140 -47 155 0 15 -3 23 -7 17 -4 -7 -13 3 -20 22 -15 36 -111 234 -138 283 -10 17 -27 47 -40 68 -12 21 -19 43 -16 49 4 6 2 8 -3 5 -6 -4 -30 24 -53 61 -39 60 -99 143 -132 182 -7 8 -26 32 -42 55 -16 22 -49 62 -75 88 -112 118 -230 234 -263 261 -21 16 -35 34 -31 39 3 6 2 7 -4 4 -13 -8 -155 97 -145 108 4 5 2 5 -4 2 -6 -4 -31 7 -54 24 -42 31 -300 171 -300 163 0 -2 -17 5 -37 16 -21 11 -44 20 -51 20 -7 0 -11 4 -8 8 2 4 -7 9 -22 10 -15 1 -54 11 -87 22 -81 26 -203 56 -265 64 -14 2 -59 8 -100 14 -64 10 -376 23 -383 16z m337 -179 c136 -8 312 -47 300 -66 -3 -5 2 -6 11 -3 17 7 73 -7 140 -35 22 -9 44 -15 49 -13 4 2 6 -5 2 -14 -5 -14 -4 -15 8 -5 9 7 17 8 20 2 3 -5 1 -11 -6 -13 -7 -3 -2 -7 10 -10 12 -4 20 -2 16 3 -9 16 9 9 86 -29 41 -21 74 -43 73 -50 -2 -7 4 -9 14 -5 11 4 14 3 9 -5 -4 -8 -2 -10 7 -6 18 6 190 -102 183 -115 -3 -5 2 -8 12 -7 9 0 16 -5 15 -11 -2 -7 3 -12 10 -10 6 1 11 -3 10 -10 -2 -7 3 -10 10 -8 27 11 346 -302 332 -325 -4 -6 -3 -10 2 -9 23 4 35 -2 29 -17 -3 -8 -2 -13 3 -10 5 3 21 -10 35 -29 22 -28 25 -38 16 -55 -7 -13 -7 -20 0 -20 5 0 10 7 10 16 0 14 3 14 15 4 18 -15 20 -34 3 -24 -8 4 -10 3 -5 -2 5 -5 13 -9 18 -9 17 0 130 -169 125 -187 -2 -10 1 -21 6 -25 7 -3 8 -1 4 5 -4 7 -5 12 -3 12 5 0 60 -87 81 -127 9 -18 12 -33 7 -33 -14 0 3 -43 18 -46 6 -1 7 0 1 3 -5 2 -10 9 -10 14 0 21 23 -5 41 -48 22 -51 24 -67 7 -57 -7 4 -8 3 -4 -5 4 -6 11 -9 16 -6 4 3 22 -25 40 -62 22 -49 30 -77 26 -98 -3 -16 -2 -25 2 -18 5 9 11 6 21 -9 12 -19 11 -20 -6 -14 -16 5 -16 5 -2 -7 19 -14 52 -84 68 -142 14 -53 14 -68 -1 -59 -8 4 -10 3 -5 -2 5 -5 13 -9 18 -9 9 0 10 -11 2 -32 -3 -6 0 -20 6 -30 9 -15 10 -13 6 12 -5 23 -4 26 4 14 6 -9 12 -25 14 -35 2 -11 9 -37 15 -59 31 -113 48 -196 41 -201 -5 -3 -9 -13 -9 -22 0 -13 2 -14 9 -3 6 9 12 -2 19 -35 16 -71 17 -87 8 -103 -6 -10 -5 -12 2 -7 8 5 13 -1 14 -16 1 -28 2 -33 11 -78 4 -19 10 -73 13 -120 3 -47 7 -101 9 -120 22 -200 12 -583 -16 -617 -9 -10 -10 -18 -3 -20 9 -3 -3 -157 -21 -248 -3 -16 -11 -56 -17 -87 -6 -32 -14 -55 -19 -52 -5 3 -6 -1 -3 -9 8 -22 -63 -302 -112 -438 -44 -124 -143 -339 -155 -339 -15 0 -179 171 -180 187 0 10 -3 27 -6 38 -9 33 -5 136 7 185 29 115 71 251 93 303 8 18 28 66 45 107 74 184 114 275 183 412 13 25 19 58 19 102 l0 65 -72 72 c-40 39 -72 76 -70 81 1 5 -2 7 -7 4 -22 -14 -31 26 -30 150 0 137 -11 260 -38 414 -9 52 -17 102 -18 110 -11 81 -62 272 -107 400 -11 30 -24 71 -30 90 -5 19 -14 39 -19 45 -5 5 -9 15 -9 23 0 27 -118 270 -183 376 -37 59 -64 113 -60 120 3 6 3 8 -2 4 -5 -5 -23 13 -42 40 -18 26 -49 67 -67 92 -19 24 -32 48 -29 52 2 5 0 7 -5 6 -5 -2 -38 29 -72 67 -74 81 -74 81 -120 119 -19 16 -35 34 -35 40 -1 6 -6 10 -12 9 -7 -2 -21 9 -32 24 -12 14 -21 22 -21 18 0 -8 -103 66 -108 77 -2 5 -8 8 -14 8 -5 0 -24 11 -41 24 -43 33 -239 129 -307 151 -30 10 -60 22 -66 26 -6 5 -13 6 -16 4 -3 -3 -18 -1 -34 6 -16 6 -40 13 -54 15 -14 3 -47 9 -75 14 -27 6 -72 13 -98 16 -27 3 -60 9 -74 15 -13 5 -22 5 -19 0 5 -8 -93 -5 -137 4 -9 2 -15 0 -12 -4 2 -4 -11 -8 -30 -9 -75 -3 -276 -43 -366 -73 -248 -82 -477 -229 -678 -433 -47 -47 -89 -82 -94 -79 -6 3 -7 1 -4 -4 4 -6 -19 -42 -51 -80 -32 -39 -78 -100 -102 -136 -23 -37 -47 -64 -53 -60 -6 3 -7 1 -3 -5 4 -6 -10 -40 -31 -75 -21 -35 -54 -93 -73 -130 -19 -36 -39 -63 -44 -60 -5 3 -6 1 -3 -4 6 -9 -18 -79 -58 -168 -35 -77 -91 -257 -134 -430 -26 -104 -50 -183 -54 -175 -3 10 -6 7 -6 -8 -1 -14 3 -21 9 -17 7 4 9 -3 5 -22 -19 -86 -17 -71 -36 -253 -13 -125 -18 -596 -7 -673 5 -35 4 -46 -5 -40 -9 5 -8 2 0 -8 11 -14 22 -71 37 -204 3 -22 12 -70 19 -107 13 -59 13 -68 0 -68 -8 0 -11 -5 -8 -10 4 -6 10 -8 15 -5 9 5 16 -16 39 -110 5 -22 18 -68 29 -102 15 -46 17 -64 8 -73 -8 -9 -7 -11 4 -8 8 2 14 -1 15 -7 0 -11 22 -71 34 -95 4 -8 7 -25 6 -37 -1 -13 1 -21 3 -18 5 5 32 -42 32 -56 0 -14 75 -169 125 -261 27 -48 43 -88 40 -99 -3 -9 0 -21 6 -25 9 -5 10 -2 6 12 -5 14 -2 12 13 -6 11 -14 18 -31 15 -37 -2 -7 0 -12 5 -10 4 1 27 -24 49 -56 35 -50 39 -60 29 -77 -16 -25 0 -44 22 -29 13 9 12 10 -2 5 -12 -3 -18 0 -18 9 0 23 16 25 31 3 8 -11 25 -34 37 -49 13 -16 21 -29 17 -29 -4 0 4 -9 19 -21 14 -11 24 -25 20 -30 -3 -5 -2 -8 3 -7 4 2 60 -49 123 -111 63 -63 108 -111 100 -106 -9 5 -12 5 -7 -1 5 -5 12 -8 15 -7 13 2 43 -18 38 -26 -3 -4 0 -8 7 -8 7 0 39 -20 72 -45 33 -25 65 -47 70 -49 36 -15 85 -54 85 -67 0 -12 3 -13 8 -5 6 9 15 8 40 -4 17 -8 29 -20 25 -26 -3 -5 -1 -7 4 -4 6 4 57 -11 113 -34 57 -22 112 -41 124 -44 12 -2 21 -4 21 -5 0 -2 6 -3 140 -30 80 -15 148 -21 251 -22 154 0 172 2 346 38 64 13 125 21 135 18 13 -4 14 -3 5 3 -9 7 8 18 58 37 140 55 350 176 416 240 6 6 28 25 50 41 21 17 65 56 99 87 34 32 65 55 70 50 4 -4 5 -2 2 4 -3 6 23 39 59 75 l64 64 85 -90 c46 -50 82 -96 80 -103 -3 -7 -1 -11 3 -8 5 3 20 -6 35 -18 27 -23 37 -44 15 -30 -6 4 -8 3 -5 -3 8 -12 -60 -89 -75 -85 -5 1 -6 -2 -3 -9 4 -6 -36 -52 -96 -110 -95 -91 -111 -103 -131 -100 -4 0 -5 -5 -3 -12 6 -16 -81 -81 -96 -71 -7 4 -9 3 -6 -3 9 -15 -99 -86 -116 -77 -6 4 -9 4 -5 -1 12 -13 -48 -53 -176 -116 -93 -45 -123 -56 -133 -47 -11 9 -13 8 -11 -2 3 -11 -9 -17 -72 -35 -8 -3 -40 -13 -70 -24 -61 -21 -129 -35 -235 -47 -27 -3 -66 -9 -86 -14 -44 -9 -389 -6 -444 4 -22 4 -51 9 -65 11 -120 21 -160 31 -265 66 -66 23 -156 58 -201 78 -141 66 -331 190 -316 207 4 4 1 4 -6 0 -17 -10 -218 152 -207 167 3 4 2 5 -2 2 -10 -8 -83 66 -77 77 3 5 1 7 -4 6 -18 -6 -132 119 -244 269 -55 73 -80 118 -70 128 4 3 1 5 -6 3 -15 -4 -125 181 -118 199 3 7 1 12 -5 10 -10 -2 -59 87 -104 188 -14 33 -32 74 -39 90 -38 84 -48 109 -86 224 -27 82 -39 132 -35 150 4 17 3 21 -3 13 -7 -11 -12 -6 -20 17 -7 19 -7 33 -1 36 5 4 9 12 9 18 0 9 -3 8 -8 -1 -10 -14 -63 191 -87 333 -15 92 -46 390 -44 435 0 14 0 121 -1 238 0 117 2 222 5 235 6 25 11 73 25 207 20 199 77 451 155 689 27 81 40 109 47 100 6 -10 7 -7 3 9 -5 16 7 54 35 120 69 160 199 414 220 432 3 3 19 28 35 55 16 28 35 56 42 63 7 8 18 22 24 33 5 11 14 17 20 14 5 -4 9 -3 8 2 -3 18 2 31 22 54 12 13 39 47 60 76 60 80 210 234 222 226 5 -3 7 -2 4 4 -6 9 98 109 148 143 13 8 49 36 82 61 130 103 479 274 515 253 7 -4 10 -4 6 1 -18 19 220 79 357 90 44 4 81 7 82 8 4 4 226 -1 337 -8z m8 -531 c21 -4 36 -9 34 -13 -2 -3 12 -6 32 -7 56 -1 96 -11 212 -56 155 -60 349 -175 342 -202 -2 -6 0 -8 4 -4 9 10 64 -30 61 -45 -1 -6 7 -11 18 -12 11 0 19 -6 18 -12 -2 -7 3 -12 10 -10 6 1 11 -5 9 -13 -2 -8 0 -12 4 -7 10 10 45 -23 37 -36 -4 -6 0 -8 8 -5 18 7 63 -37 54 -52 -3 -6 0 -7 9 -4 19 7 21 -7 4 -26 -11 -12 -10 -12 3 -2 13 10 20 7 37 -11 12 -13 19 -27 15 -32 -5 -4 -3 -5 4 -1 11 6 39 -30 35 -44 -1 -3 2 -5 7 -5 19 0 172 -215 154 -215 -4 0 -3 -4 2 -8 21 -15 66 -94 61 -108 -3 -8 0 -13 7 -11 7 1 12 -8 11 -20 0 -12 3 -20 7 -17 12 7 39 -63 33 -84 -5 -13 -4 -14 4 -4 7 11 10 10 16 -3 3 -9 3 -22 -1 -27 -3 -6 -1 -8 4 -5 9 6 25 -25 73 -148 36 -90 63 -177 96 -310 8 -33 19 -73 24 -90 15 -49 58 -313 65 -400 4 -44 8 -98 10 -120 2 -22 1 -32 -1 -22 -3 9 -9 15 -14 12 -4 -2 -47 36 -96 85 -49 49 -101 95 -116 101 -16 7 -25 16 -21 23 4 6 -2 4 -12 -4 -11 -9 -16 -10 -11 -2 4 7 1 12 -9 12 -9 0 -14 -4 -10 -9 3 -6 -2 -14 -12 -20 -10 -5 -63 -55 -118 -110 -55 -56 -105 -101 -112 -101 -7 0 -13 -5 -13 -12 0 -19 -382 -398 -394 -391 -6 3 -8 2 -3 -2 10 -12 -23 -46 -37 -38 -6 3 -8 2 -3 -2 10 -11 -23 -46 -36 -38 -6 3 -7 1 -3 -6 11 -17 -698 -726 -715 -715 -8 5 -9 3 -4 -5 5 -9 -102 -122 -319 -340 -303 -304 -326 -329 -326 -361 1 -30 14 -49 89 -130 49 -52 87 -99 84 -104 -4 -5 -1 -6 4 -3 6 4 45 -28 87 -69 66 -66 75 -78 64 -93 -12 -14 -11 -14 4 -3 15 12 21 10 47 -19 17 -18 28 -36 26 -40 -3 -4 5 -10 18 -13 12 -4 40 -23 62 -43 22 -20 34 -32 26 -28 -9 5 -12 4 -7 -3 4 -6 13 -9 20 -6 8 3 17 0 21 -5 12 -20 76 -41 124 -41 28 0 59 8 79 20 18 11 38 17 44 14 7 -4 8 -2 4 4 -10 17 197 167 216 156 7 -4 8 -3 4 4 -10 16 110 103 132 96 13 -5 14 -4 3 4 -10 7 -2 17 35 43 27 18 63 46 79 61 45 42 220 128 260 128 18 0 35 -3 38 -7 2 -5 2 -2 1 5 -3 9 17 12 72 12 41 0 73 -4 70 -9 -3 -4 5 -6 17 -4 13 3 38 -1 56 -9 l32 -13 -82 -82 c-45 -46 -86 -80 -92 -76 -5 3 -7 1 -4 -4 7 -12 -154 -153 -173 -153 -7 0 -19 -9 -28 -20 -26 -31 -185 -121 -205 -116 -9 2 -15 1 -12 -3 10 -17 -189 -89 -315 -115 -152 -31 -416 -21 -580 23 -187 50 -408 166 -549 288 -89 77 -222 214 -216 224 4 5 3 8 -2 7 -39 -13 -364 493 -367 572 -1 16 -5 28 -10 27 -4 -1 -19 27 -33 63 -13 36 -30 79 -37 95 -19 43 -53 149 -71 225 -8 36 -22 89 -30 119 -8 29 -17 71 -19 92 -3 22 -7 43 -10 48 -3 4 -8 37 -11 72 -4 35 -11 81 -16 101 -5 20 -8 40 -7 45 1 4 -4 67 -11 139 -22 218 -2 630 39 831 6 27 12 60 14 74 3 14 12 55 21 90 18 68 23 89 31 129 3 14 21 70 40 125 18 55 36 107 38 116 17 65 175 396 208 437 6 6 18 26 27 42 42 77 139 202 152 195 5 -4 6 0 4 7 -7 17 74 110 88 101 6 -3 7 -1 3 5 -16 27 296 292 348 296 13 0 24 5 23 10 -2 11 104 67 183 96 30 12 69 27 85 35 27 12 177 46 260 58 40 6 321 -1 367 -9z m1456 -2361 c2 -1 -62 -68 -143 -148 -129 -129 -148 -145 -163 -133 -15 11 -15 11 -5 -2 9 -12 5 -22 -17 -49 -18 -21 -33 -30 -41 -26 -8 5 -10 4 -5 -4 5 -7 -6 -26 -28 -47 -30 -29 -40 -34 -51 -24 -8 7 -15 11 -16 9 -8 -38 -7 -40 7 -28 8 6 14 8 14 5 0 -4 -37 -43 -82 -86 -69 -68 -83 -78 -97 -67 -14 10 -14 10 -3 -5 11 -14 6 -24 -43 -72 -31 -31 -62 -53 -67 -49 -7 4 -8 1 -4 -6 5 -7 0 -18 -10 -26 -16 -12 -21 -12 -31 2 -7 9 -13 12 -13 7 0 -6 5 -15 12 -22 9 -9 -24 -46 -142 -161 -84 -83 -158 -147 -163 -144 -6 3 -7 1 -3 -5 8 -14 -133 -154 -147 -145 -6 3 -7 1 -4 -5 8 -11 -288 -308 -303 -304 -6 1 -9 -4 -8 -10 2 -7 -3 -12 -10 -10 -8 1 -11 -1 -8 -6 6 -10 -356 -372 -372 -372 -14 0 -183 172 -180 182 8 21 191 197 200 192 6 -4 8 -3 5 3 -9 14 291 315 305 307 7 -5 8 -2 3 5 -8 13 62 79 78 73 5 -1 6 2 3 6 -8 13 63 84 76 76 7 -5 8 -2 4 5 -5 8 207 227 623 644 l632 631 97 -95 c53 -52 98 -95 100 -96z m125 -142 c-2 -6 6 -11 16 -11 22 0 53 -38 44 -53 -3 -6 -2 -7 4 -4 5 4 20 -3 31 -14 25 -23 32 0 -67 -219 -80 -176 -75 -163 -109 -250 -16 -41 -33 -84 -37 -95 -4 -11 -9 -24 -11 -30 -15 -52 -55 -150 -61 -148 -5 1 -8 -13 -9 -30 0 -18 -8 -68 -17 -112 -21 -100 -22 -238 -2 -294 13 -38 13 -43 -4 -59 -10 -9 -69 -67 -132 -127 -154 -149 -139 -140 -191 -116 -88 40 -144 54 -236 56 -156 5 -333 -56 -469 -162 -31 -24 -62 -42 -69 -39 -8 3 -11 0 -7 -10 3 -7 1 -14 -4 -14 -5 0 -20 -9 -33 -19 -14 -11 -83 -63 -155 -116 -71 -53 -137 -101 -145 -108 -30 -24 -76 -53 -102 -65 -23 -9 -30 -8 -44 6 -10 9 -19 15 -20 12 -2 -3 -31 19 -64 49 -58 51 -60 54 -44 72 9 10 21 16 26 13 4 -3 7 -1 6 5 -4 15 212 232 224 225 5 -3 7 -1 6 4 -5 17 142 163 155 155 7 -3 9 -2 4 2 -11 13 43 64 62 58 12 -4 13 -3 3 5 -10 7 37 60 193 216 117 117 211 203 217 200 7 -4 8 -2 4 4 -9 15 841 865 856 856 7 -4 8 -3 4 4 -8 14 152 174 168 169 6 -3 10 -10 9 -16z m-90 -1459 c10 -10 14 -22 10 -26 -5 -4 -3 -6 3 -4 15 4 124 -89 121 -104 -1 -6 7 -12 18 -14 11 -1 39 -23 63 -48 23 -25 42 -42 42 -39 0 3 9 -2 20 -12 11 -10 17 -23 13 -29 -3 -6 -3 -8 2 -4 11 11 36 -12 28 -25 -3 -6 -1 -7 6 -3 12 8 214 -172 206 -184 -3 -4 3 -14 12 -21 12 -10 14 -10 9 -1 -14 24 10 12 42 -21 18 -18 29 -37 25 -41 -5 -4 -3 -6 3 -4 18 5 125 -91 118 -105 -4 -7 -4 -9 1 -5 11 10 47 -11 40 -23 -4 -5 -3 -8 2 -7 15 5 83 -54 76 -66 -3 -6 -3 -8 2 -4 4 4 22 -5 40 -20 158 -134 224 -195 219 -203 -3 -5 -1 -8 4 -7 16 5 73 -42 66 -54 -4 -7 -3 -8 4 -4 10 6 48 -25 153 -125 51 -50 79 -106 86 -173 7 -81 -15 -159 -60 -211 -32 -36 -36 -38 -53 -25 -18 14 -18 14 -5 -3 8 -9 12 -19 10 -21 -20 -18 -105 -48 -151 -53 -49 -5 -65 -2 -114 22 -68 33 -160 117 -149 136 5 7 4 10 -2 6 -6 -4 -39 26 -74 66 -74 83 -155 172 -184 202 -12 11 -31 34 -44 50 -12 17 -72 84 -133 150 -155 168 -165 179 -205 227 -31 38 -201 223 -244 267 -59 61 -299 331 -299 338 0 9 241 242 251 243 3 0 13 -8 22 -18z"/>
<path d="M5137 7492 c-26 -11 -1131 -1120 -1159 -1165 -16 -25 -8 -86 12 -100 11 -8 18 -16 15 -18 -12 -12 58 1 79 14 13 9 99 91 192 184 93 92 173 167 177 165 5 -1 6 2 3 7 -4 5 153 169 347 363 437 436 440 439 433 487 -7 55 -50 82 -99 63z"/>
<path d="M4818 6623 c-77 -76 -261 -260 -410 -410 -149 -150 -276 -269 -281 -266 -6 3 -7 1 -3 -5 8 -14 -31 -55 -45 -47 -5 4 -8 2 -7 -3 2 -5 -25 -40 -59 -76 -110 -118 -124 -138 -117 -174 8 -38 46 -72 81 -72 18 0 75 52 231 209 114 115 352 355 530 534 317 321 322 326 322 367 0 35 -4 43 -32 60 -18 11 -42 20 -52 20 -11 0 -77 -57 -158 -137z"/>
<path d="M8318 6039 c-31 -8 -80 -44 -72 -52 10 -10 -15 -181 -33 -227 -33 -83 -84 -159 -141 -209 -31 -28 -61 -51 -65 -51 -5 0 -21 -9 -36 -19 -35 -25 -142 -61 -182 -61 -17 0 -43 -9 -59 -20 -15 -11 -29 -18 -31 -15 -3 2 -4 -16 -4 -40 0 -58 33 -90 101 -101 27 -4 85 -22 129 -41 71 -29 104 -53 160 -115 9 -10 22 -21 28 -25 24 -15 78 -108 73 -126 -2 -9 -1 -15 4 -12 8 5 49 -99 48 -125 0 -8 4 -40 7 -70 4 -30 7 -64 7 -75 0 -11 2 -15 5 -8 3 8 11 8 31 -3 36 -18 58 -18 93 3 34 20 35 23 48 131 15 117 75 250 145 317 94 91 185 138 289 149 26 3 53 8 60 12 14 9 40 42 48 64 13 32 -36 100 -72 100 -9 0 -19 6 -22 13 -3 9 -7 9 -18 1 -41 -34 -310 114 -284 156 5 8 4 11 -3 6 -12 -7 -92 92 -92 115 0 8 -6 23 -14 34 -16 24 -33 97 -41 182 -9 87 -49 129 -107 112z m25 -451 c-3 -6 -1 -8 4 -5 11 7 27 -20 24 -40 -1 -6 4 -15 10 -19 8 -5 10 -2 5 7 -4 8 2 3 13 -10 12 -12 18 -28 14 -34 -3 -5 -2 -7 4 -4 10 6 44 -27 37 -37 -2 -3 -1 -4 3 -1 9 7 44 -26 37 -37 -3 -4 0 -7 8 -6 7 2 12 -3 11 -9 -2 -7 0 -12 5 -12 19 3 33 -2 27 -11 -3 -6 1 -7 10 -4 9 4 23 -2 34 -15 13 -15 20 -18 23 -9 3 8 7 8 11 2 3 -6 -15 -21 -41 -34 -43 -22 -93 -61 -144 -115 -30 -31 -98 -138 -98 -155 0 -14 -17 9 -36 50 -34 71 -157 188 -236 226 l-38 18 49 25 c27 14 66 40 86 56 21 17 43 29 49 27 6 -2 8 0 4 3 -4 4 13 32 37 61 24 29 51 71 62 93 16 34 19 36 26 19 4 -11 4 -25 0 -30z"/>
</g>
</svg>
