<?xml version="1.0" standalone="no"?>
<!DOCTYPE svg PUBLIC "-//W3C//DTD SVG 20010904//EN"
 "http://www.w3.org/TR/2001/REC-SVG-20010904/DTD/svg10.dtd">
<svg version="1.0" xmlns="http://www.w3.org/2000/svg"
 width="1024.000000pt" height="1024.000000pt" viewBox="0 0 1024.000000 1024.000000"
 preserveAspectRatio="xMidYMid meet">
<metadata>
Created by potrace 1.16, written by Peter Selinger 2001-2019
</metadata>
<g transform="translate(0.000000,1024.000000) scale(0.100000,-0.100000)"
fill="#000000" stroke="none">
<path d="M2996 7686 c-19 -8 -36 -31 -59 -81 -17 -38 -39 -76 -47 -83 -11 -10
-11 -12 -1 -6 11 6 13 3 7 -12 -4 -10 -10 -31 -13 -46 -3 -15 -8 -26 -12 -24
-3 2 -6 -6 -7 -17 0 -12 -12 -74 -27 -137 -62 -270 -68 -579 -17 -832 12 -54
18 -104 14 -110 -5 -7 -2 -8 6 -3 10 6 12 1 8 -18 -3 -15 -2 -24 2 -22 4 2 17
-29 29 -69 12 -40 38 -108 56 -151 19 -43 31 -83 28 -88 -3 -6 -2 -7 4 -4 13
8 36 -40 27 -56 -4 -7 -3 -8 1 -4 11 10 76 -92 68 -107 -3 -6 -3 -8 2 -4 11
11 38 -29 29 -44 -4 -6 -3 -8 3 -5 14 9 37 -19 27 -34 -4 -7 -3 -9 3 -6 6 4
24 -10 39 -31 67 -87 170 -196 247 -260 91 -75 205 -159 254 -187 29 -17 30
-20 15 -32 -15 -13 -15 -13 5 -4 17 9 32 5 80 -22 32 -18 81 -43 110 -56 29
-13 51 -28 50 -34 -1 -5 4 -12 12 -15 8 -3 11 0 7 6 -5 8 2 8 24 1 17 -6 27
-16 23 -22 -3 -6 -1 -7 5 -3 6 4 64 -11 129 -33 212 -72 445 -124 718 -162
159 -23 168 -25 178 -49 19 -44 14 -1498 -6 -1827 -9 -150 -17 -287 -17 -303
0 -17 -3 -29 -7 -27 -5 3 -9 -47 -11 -111 -1 -63 -6 -120 -12 -127 -5 -6 -7
-20 -4 -31 3 -11 -2 -84 -10 -162 -17 -146 -15 -165 19 -199 13 -12 107 -14
99 -2 -2 4 3 12 11 19 8 7 15 19 15 27 0 8 5 11 12 7 7 -4 8 -3 4 4 -4 6 2
109 13 229 11 120 23 275 27 345 4 82 11 125 17 121 6 -4 7 -1 2 6 -4 7 -4
101 1 209 6 140 10 181 15 142 l6 -55 1 50 c1 28 -2 55 -6 60 -4 6 -5 105 -1
220 4 116 8 469 9 785 1 316 5 586 9 600 4 14 13 24 19 23 7 -2 11 2 9 9 -3
15 50 31 173 53 167 29 361 76 508 121 79 25 148 41 154 38 6 -4 8 -3 5 3 -4
7 21 22 61 38 179 71 370 179 526 297 44 33 88 62 99 64 11 2 22 6 26 10 3 4
-3 4 -13 0 -16 -5 -17 -4 -6 9 7 8 17 12 23 8 5 -3 7 -2 4 4 -8 13 147 166
158 156 4 -4 5 -2 1 5 -4 7 10 33 37 65 71 84 164 228 221 342 29 58 56 102
60 98 4 -4 5 -1 2 7 -6 15 67 243 75 236 2 -2 5 10 5 27 1 18 9 72 18 120 38
212 28 469 -29 694 -15 57 -23 108 -19 115 4 6 3 8 -4 4 -6 -3 -15 8 -21 27
-12 34 -55 67 -88 67 -21 0 -62 -34 -65 -53 -4 -35 -2 -75 3 -71 10 6 21 -45
13 -58 -5 -7 -2 -8 6 -3 10 6 12 3 8 -13 -4 -12 -2 -20 2 -17 10 6 33 -92 25
-105 -3 -5 -1 -10 4 -12 14 -5 26 -98 12 -98 -6 0 -8 8 -5 18 5 14 4 14 -4 2
-11 -15 3 -44 18 -35 16 10 25 -203 14 -327 -6 -55 -10 -65 -23 -61 -13 4 -13
3 -2 -5 12 -8 12 -20 3 -64 -11 -52 -11 -52 -7 -8 2 29 1 40 -5 29 -5 -8 -8
-44 -8 -80 1 -48 -6 -87 -31 -159 -58 -172 -218 -469 -243 -453 -6 3 -8 1 -5
-5 16 -25 -184 -237 -336 -358 -77 -60 -107 -78 -91 -53 3 6 20 19 38 30 17
10 28 19 25 19 -3 0 23 30 59 68 36 37 69 66 74 64 5 -1 7 2 3 8 -7 12 53 85
69 85 6 0 11 9 11 20 0 13 6 19 17 17 9 -1 19 2 23 8 3 6 0 7 -9 4 -20 -8 -20
0 0 31 9 14 21 22 27 18 5 -3 7 -2 4 3 -3 6 21 64 54 129 155 310 186 610 98
953 -41 161 -100 300 -153 360 -26 29 -85 30 -111 2 -27 -30 -22 -68 20 -138
33 -54 36 -64 24 -79 -12 -15 -12 -16 3 -10 13 5 21 -8 42 -66 56 -157 77
-293 72 -467 -2 -63 -9 -143 -15 -178 -14 -76 -73 -246 -108 -316 -39 -77
-104 -176 -114 -176 -6 0 -8 -4 -5 -8 11 -18 -209 -266 -226 -256 -7 4 -8 2
-4 -4 7 -12 -50 -59 -66 -54 -5 1 -7 -2 -4 -7 8 -12 -74 -77 -92 -73 -8 2 -11
-1 -8 -6 8 -13 -99 -86 -113 -77 -7 3 -10 1 -9 -6 2 -8 -8 -14 -22 -15 -32 -2
-46 6 -29 17 10 6 10 9 2 9 -6 0 -15 -5 -19 -11 -8 -13 16 -31 34 -24 23 9 12
-3 -24 -25 -20 -11 -43 -19 -51 -16 -8 3 -11 2 -8 -4 7 -12 -32 -33 -47 -24
-6 4 -8 3 -5 -3 3 -5 -20 -22 -51 -36 -48 -23 -53 -24 -32 -7 101 85 132 113
191 175 263 275 427 637 469 1040 7 61 15 117 18 125 3 8 4 19 3 23 -1 5 10
22 24 39 73 86 111 227 102 377 -7 120 -19 161 -61 206 -49 52 -115 46 -173
-17 -28 -30 -93 -145 -93 -165 0 -8 -3 -12 -7 -10 -11 7 -13 -15 -17 -183 -3
-84 0 -151 5 -160 7 -11 8 -9 4 10 -5 22 -4 22 11 -5 9 -16 27 -41 39 -55 23
-24 23 -28 14 -120 -12 -114 -40 -256 -74 -373 -30 -104 -110 -287 -133 -305
-9 -7 -16 -18 -14 -23 6 -24 -124 -203 -140 -193 -6 4 -8 2 -5 -3 4 -6 -3 -24
-15 -39 -39 -53 -151 -163 -160 -158 -5 3 -7 2 -6 -3 5 -15 -80 -85 -93 -77
-8 4 -9 3 -5 -4 6 -10 -96 -93 -154 -127 -24 -14 -3 12 94 118 14 15 26 30 26
32 0 3 26 45 59 93 116 173 216 401 272 620 41 166 58 278 69 480 12 193 14
207 32 196 7 -4 10 -4 6 1 -4 4 4 22 17 39 95 125 122 358 55 484 -37 71 -104
95 -175 63 -24 -11 -46 -16 -50 -13 -4 4 -5 0 -3 -8 2 -8 -3 -14 -10 -12 -6 1
-11 -1 -10 -5 4 -14 -49 -83 -57 -75 -5 4 -6 2 -2 -3 3 -6 -3 -29 -13 -52 -30
-68 -43 -146 -38 -232 3 -45 1 -81 -4 -81 -5 0 -6 -5 -3 -10 4 -6 10 -8 15 -5
5 3 12 -4 15 -16 4 -12 25 -41 46 -64 l40 -43 0 -113 c0 -114 -10 -213 -33
-344 -11 -62 -13 -66 -20 -40 -6 25 -7 24 -4 -10 10 -122 -116 -448 -257 -667
-67 -103 -116 -164 -129 -160 -5 1 -7 -1 -4 -6 3 -4 -13 -28 -35 -53 -22 -24
-35 -34 -30 -22 52 107 135 431 164 637 21 145 24 158 48 174 125 83 209 340
159 487 -8 22 -13 47 -11 55 2 8 0 12 -4 8 -4 -4 -19 1 -32 12 -43 34 -85 35
-145 5 -29 -15 -55 -26 -56 -25 -2 1 -7 -2 -10 -6 -4 -4 0 -3 8 1 8 5 -1 -9
-20 -31 -19 -23 -39 -38 -45 -36 -5 3 -7 2 -3 -2 3 -4 -11 -40 -32 -80 -47
-91 -67 -194 -52 -271 6 -29 8 -61 6 -72 -4 -13 0 -22 10 -26 14 -6 15 -3 6
16 -11 21 -11 22 5 2 8 -11 22 -28 31 -39 18 -21 17 -31 -18 -238 -11 -70 -24
-126 -27 -124 -3 2 -6 -10 -7 -27 -1 -50 -35 -167 -47 -160 -6 3 -7 1 -3 -5 8
-14 -14 -92 -26 -92 -5 0 -7 -4 -3 -9 3 -5 -2 -28 -11 -51 -14 -35 -19 -39
-32 -28 -13 11 -14 11 -2 -7 11 -18 6 -33 -38 -120 -39 -77 -51 -94 -51 -72
-1 15 4 27 11 27 8 0 9 3 2 10 -11 11 -6 83 5 76 3 -2 7 40 8 93 1 53 6 107
11 121 5 14 8 169 7 345 -1 284 -4 333 -23 438 -20 107 -21 122 -8 160 17 53
8 125 -28 203 -14 31 -25 58 -25 62 3 19 -2 33 -10 28 -4 -3 -27 18 -50 47
-79 99 -176 146 -256 126 -22 -6 -45 -11 -52 -11 -7 -1 -11 -4 -10 -7 0 -3 -7
-21 -17 -40 -20 -37 -38 -141 -24 -141 4 0 8 -12 8 -27 1 -16 9 -51 19 -80 10
-29 15 -50 11 -48 -4 2 -7 -9 -7 -25 0 -29 21 -42 29 -19 2 6 18 -9 35 -34 18
-24 29 -48 25 -53 -4 -5 -3 -6 2 -1 13 10 66 -42 66 -65 0 -11 5 -16 10 -13 6
4 7 12 3 18 -3 7 3 4 14 -5 11 -10 33 -18 49 -19 28 0 79 -17 59 -18 -5 -1 -4
-5 2 -9 16 -10 36 -193 30 -267 -3 -35 -1 -52 6 -48 6 4 7 -49 3 -153 -4 -88
-6 -172 -6 -189 1 -91 -21 -268 -35 -282 -18 -17 -20 -27 -3 -17 8 5 9 -7 5
-47 -4 -30 -7 -65 -7 -78 0 -34 -16 -15 -25 29 -4 26 -3 31 4 20 6 -8 11 -11
11 -6 0 5 -6 17 -13 25 -19 22 -41 107 -33 126 3 9 2 14 -3 11 -4 -3 -16 29
-25 71 -12 57 -14 78 -5 84 6 4 8 12 4 19 -5 8 -10 9 -14 1 -4 -6 -15 28 -25
74 -9 47 -14 90 -10 97 4 7 3 8 -4 4 -25 -15 -11 18 23 55 19 21 37 50 41 64
3 14 9 23 13 21 10 -6 -5 128 -20 172 -6 20 -22 57 -35 81 -13 24 -21 48 -17
54 3 5 2 7 -4 4 -6 -4 -28 17 -49 47 -39 52 -93 88 -157 102 -38 9 -112 -21
-136 -54 -30 -42 -59 -162 -39 -162 4 0 8 -12 8 -26 0 -14 4 -33 9 -42 16 -33
23 -74 10 -66 -8 4 -9 3 -5 -5 4 -6 11 -9 15 -6 5 2 14 -8 20 -23 7 -15 24
-47 39 -72 15 -25 25 -49 23 -55 -1 -5 1 -7 5 -3 10 11 100 -68 103 -89 1 -10
2 -35 3 -57 0 -27 3 -34 10 -25 6 10 8 -1 4 -31 -3 -31 -2 -39 4 -25 8 19 9
19 9 1 1 -10 -7 -25 -16 -32 -14 -10 -15 -16 -6 -22 7 -4 11 -17 9 -28 -3 -13
1 -21 10 -21 9 0 13 6 10 14 -3 8 -1 11 4 8 15 -9 13 -47 -2 -40 -7 4 -6 1 3
-7 9 -7 18 -26 22 -43 3 -16 19 -92 36 -168 27 -128 28 -137 10 -121 -21 19
-25 29 -7 18 7 -4 8 -3 4 4 -4 7 -13 12 -20 12 -21 0 -91 101 -89 129 2 21 1
23 -5 7 -7 -16 -13 -12 -45 31 -38 51 -46 70 -26 57 8 -4 8 0 0 15 -14 25 -22
28 -15 4 8 -29 -26 21 -84 121 -29 50 -50 97 -47 104 3 7 1 11 -3 8 -19 -12
-102 211 -134 358 -16 77 -21 136 -22 248 0 81 3 150 6 154 4 3 18 7 31 8 14
0 23 4 21 8 -2 3 11 16 30 28 103 63 193 277 166 395 -23 102 -65 145 -142
145 -53 0 -92 -16 -153 -64 -21 -17 -41 -29 -44 -26 -2 3 -5 -3 -7 -13 -3 -25
-24 -48 -37 -40 -5 3 -7 1 -4 -4 4 -6 -6 -35 -22 -64 -16 -30 -33 -76 -39
-104 -12 -54 -23 -159 -15 -137 4 12 44 -56 47 -80 1 -3 5 -10 10 -15 5 -5 6
-2 2 7 -5 10 -3 10 6 -2 11 -13 12 -34 6 -95 -10 -100 6 -313 32 -422 11 -46
18 -93 15 -105 -4 -14 -3 -17 2 -8 6 8 15 -6 27 -45 10 -32 27 -75 38 -96 11
-22 17 -45 14 -53 -3 -8 -2 -13 2 -10 11 7 84 -143 76 -156 -5 -7 -2 -8 6 -3
10 6 12 4 7 -8 -3 -9 -2 -16 3 -14 4 1 37 -43 71 -98 34 -55 65 -102 68 -105
3 -3 17 -19 31 -35 19 -22 14 -19 -20 10 -25 22 -44 45 -44 52 1 6 -5 9 -12 6
-9 -3 -14 1 -14 12 0 9 -4 14 -9 11 -13 -8 -113 103 -105 116 4 6 2 8 -4 4
-14 -8 -125 133 -118 150 3 8 0 13 -6 11 -13 -2 -54 64 -118 193 -74 149 -77
160 -43 211 26 40 28 49 27 148 -1 90 -5 116 -27 170 -15 35 -24 69 -20 75 3
6 3 8 -2 4 -11 -11 -38 29 -29 44 4 6 3 8 -3 5 -12 -8 -36 17 -26 26 3 4 1 7
-6 7 -14 0 -72 45 -66 52 2 2 -19 3 -46 1 -57 -2 -94 -22 -111 -59 -10 -22
-13 -23 -18 -8 -4 9 -7 -36 -8 -102 -3 -134 10 -199 57 -293 17 -32 27 -62 23
-66 -4 -5 -2 -5 4 -2 6 3 20 -4 31 -16 11 -12 28 -27 38 -32 12 -7 18 -24 19
-52 0 -23 3 -37 7 -32 3 6 16 -18 29 -53 12 -35 33 -84 46 -110 14 -27 22 -48
18 -48 -3 0 2 -7 10 -16 9 -8 16 -21 16 -29 0 -7 4 -15 9 -17 5 -1 11 -9 13
-17 2 -8 11 -23 21 -33 12 -12 16 -27 12 -41 -4 -13 -3 -17 2 -10 10 14 127
-131 129 -160 1 -10 5 -21 9 -25 5 -4 5 2 1 13 -5 13 6 7 33 -19 22 -22 38
-43 35 -48 -3 -5 -2 -7 3 -6 4 1 21 -10 37 -25 21 -20 24 -26 10 -21 -30 12
-118 65 -125 76 -3 5 -8 8 -10 6 -7 -5 -89 58 -84 65 3 4 2 5 -1 2 -18 -13
-258 210 -250 232 3 7 0 12 -6 10 -20 -4 -116 133 -168 238 -127 258 -138 534
-34 858 l35 107 37 2 c20 1 45 2 54 1 10 0 16 3 13 5 -3 3 17 18 44 33 173 99
269 401 170 540 -10 14 -15 29 -11 33 4 4 0 6 -8 4 -8 -2 -14 2 -13 9 3 13
-184 16 -192 3 -3 -5 5 -6 17 -3 20 4 19 2 -6 -15 -17 -12 -34 -18 -39 -15 -6
3 -7 2 -4 -3 3 -6 -10 -25 -29 -44 -48 -46 -108 -139 -136 -208 -18 -47 -23
-79 -24 -177 -2 -111 -5 -128 -42 -235 -64 -183 -75 -250 -77 -462 -1 -104 1
-186 4 -183 8 9 41 -129 35 -150 -4 -16 -3 -17 5 -5 9 13 11 13 11 -2 0 -9 16
-54 36 -100 20 -45 37 -94 38 -108 1 -14 6 -25 13 -25 16 0 83 -106 76 -119
-3 -5 -1 -6 5 -2 13 8 35 -28 24 -39 -4 -5 -2 -5 4 -2 7 4 28 -13 49 -39 20
-25 51 -59 69 -76 19 -19 6 -12 -34 18 -95 71 -323 300 -314 316 4 7 4 10 -1
6 -17 -16 -163 211 -149 233 4 7 3 9 -3 6 -25 -16 -123 257 -126 350 -1 29 -5
53 -9 53 -10 0 -10 194 -2 268 5 38 11 52 23 52 13 0 14 2 2 9 -12 8 -12 18 3
73 27 99 90 243 105 240 8 -2 11 3 8 12 -3 8 8 35 24 60 35 56 37 85 6 114
-43 40 -88 23 -137 -51 -19 -29 -39 -55 -45 -59 -5 -4 -7 -8 -3 -8 4 0 -11
-40 -32 -88 -22 -49 -54 -142 -71 -208 -30 -111 -32 -130 -33 -294 0 -107 -5
-178 -11 -182 -6 -5 -3 -8 6 -8 11 0 18 -13 23 -40 5 -34 55 -195 72 -236 2
-6 -3 -11 -11 -11 -10 0 -14 6 -10 16 5 12 3 13 -6 4 -13 -13 -3 -37 12 -28 5
4 9 -1 9 -9 0 -8 4 -18 10 -21 6 -4 7 1 4 12 -3 10 20 -29 51 -87 31 -58 67
-122 81 -142 15 -21 23 -42 18 -49 -4 -7 -3 -10 4 -6 5 4 25 -14 44 -40 44
-61 167 -194 233 -251 80 -70 84 -76 25 -39 -30 20 -54 41 -52 47 1 7 -3 10
-10 7 -12 -4 -71 32 -93 57 -5 7 -27 25 -47 40 -21 16 -35 33 -31 40 3 6 2 7
-3 3 -22 -20 -284 298 -268 325 4 7 3 10 -1 5 -17 -15 -132 203 -118 225 3 6
2 8 -4 5 -10 -7 -60 130 -88 240 -45 181 -59 494 -30 688 19 130 56 285 67
279 4 -3 5 1 2 9 -6 17 45 169 55 163 6 -4 8 11 12 84 3 58 -41 88 -95 66z
m1015 -414 c1 -10 4 -7 8 8 7 23 8 22 12 -12 4 -29 1 -38 -10 -38 -12 0 -12
-3 -3 -12 18 -18 15 -41 -13 -110 -29 -72 -100 -162 -122 -154 -8 3 -11 1 -8
-4 4 -6 -7 -10 -24 -10 -39 0 -48 30 -32 98 17 66 60 154 73 146 7 -4 8 -2 4
4 -10 17 72 102 91 95 12 -5 14 -3 8 7 -5 9 -4 11 3 6 7 -4 12 -15 13 -24z
m2109 -96 c0 -8 3 -22 7 -32 4 -12 3 -15 -5 -10 -7 4 -12 2 -12 -3 0 -6 5 -11
10 -11 11 0 13 -84 4 -142 -4 -21 -10 -35 -15 -32 -5 3 -6 -2 -3 -10 7 -18
-39 -101 -60 -109 -22 -9 -37 16 -43 75 -6 59 13 172 28 163 5 -3 6 1 3 9 -6
17 32 86 47 86 5 0 9 7 9 15 0 8 7 15 15 15 8 0 15 -6 15 -14z m400 -126 c-8
-16 -8 -18 4 -14 22 8 31 -74 17 -158 -12 -73 -47 -168 -62 -168 -11 0 -29 67
-29 110 0 77 53 250 76 250 2 0 0 -9 -6 -20z m-1982 -233 c-3 -35 -15 -85 -27
-113 -24 -53 -69 -107 -83 -98 -5 3 -7 0 -6 -7 2 -7 -8 -18 -22 -26 -22 -11
-27 -10 -37 4 -19 25 -16 85 7 145 27 71 107 158 145 158 l28 0 -5 -63z m461
-109 c54 -56 106 -142 96 -158 -3 -5 -2 -10 3 -10 15 0 23 -59 12 -80 -12 -23
-30 -18 -84 24 -44 36 -91 110 -80 127 4 7 3 9 -4 5 -13 -8 -32 53 -32 107 0
54 28 49 89 -15z m725 -202 c12 -65 -27 -193 -81 -268 -39 -54 -60 -60 -69
-22 -20 78 26 219 94 292 38 41 48 40 56 -2z m-1708 -156 c15 -22 27 -53 28
-69 1 -16 5 -27 10 -23 5 3 7 -5 4 -16 -4 -12 -2 -20 2 -17 5 3 12 -20 16 -51
7 -58 -7 -111 -26 -99 -18 11 -57 98 -69 153 -14 65 -14 162 -1 162 5 0 22
-18 36 -40z m708 -142 c-6 -10 -4 -10 8 0 23 18 81 -31 73 -62 -4 -14 -3 -17
3 -8 7 11 11 11 19 0 20 -26 27 -41 15 -34 -7 4 -12 2 -12 -3 0 -6 6 -11 14
-11 15 0 44 -68 47 -110 4 -53 0 -67 -22 -65 -28 2 -102 73 -95 91 3 8 2 13
-3 10 -12 -8 -35 40 -26 55 5 7 4 10 -2 6 -15 -9 -23 16 -30 86 -3 40 -2 57 7
57 6 0 8 -5 4 -12z"/>
<path d="M5208 7230 c-66 -36 -96 -133 -74 -240 5 -26 4 -31 -3 -20 -7 9 -11
10 -11 3 0 -7 7 -16 16 -21 9 -5 17 -20 17 -35 1 -14 4 -24 6 -21 2 2 19 -22
38 -54 19 -31 45 -69 59 -83 13 -14 21 -29 17 -34 -5 -4 -1 -6 8 -3 8 3 26 -2
40 -13 13 -10 47 -24 76 -30 45 -10 59 -10 98 6 68 25 100 78 100 164 0 55 -6
78 -37 143 -37 79 -113 188 -130 188 -5 0 -6 5 -3 10 4 6 3 9 -2 8 -4 -2 -25
7 -45 20 -52 33 -123 38 -170 12z m83 -124 c13 8 40 -16 32 -29 -3 -5 -2 -8 3
-4 20 12 82 -62 69 -83 -4 -6 -1 -9 5 -8 25 6 74 -120 63 -161 -4 -16 -10 -18
-36 -10 -69 20 -150 134 -163 231 -6 46 3 97 13 70 3 -6 9 -9 14 -6z"/>
</g>
</svg>
