<?xml version="1.0" standalone="no"?>
<!DOCTYPE svg PUBLIC "-//W3C//DTD SVG 20010904//EN" "http://www.w3.org/TR/2001/REC-SVG-20010904/DTD/svg10.dtd">
<svg xmlns="http://www.w3.org/2000/svg" version="1.0" width="1024.000000pt" height="1024.000000pt" viewBox="0 0 1024.000000 1024.000000" preserveAspectRatio="xMidYMid meet">
<metadata>
Created by potrace 1.16, written by Peter Selinger 2001-2019
<meta name="Producer" content="Online-Convert"/></metadata>
<g transform="translate(0.000000,1024.000000) scale(0.100000,-0.100000)" fill="#000000" stroke="none">
<path d="M4865 6392 c-250 -39 -405 -82 -577 -157 -54 -24 -98 -41 -98 -39 0 3 -6 0 -12 -6 -20 -16 -128 -79 -128 -74 0 3 -10 -4 -22 -15 -11 -11 -25 -18 -30 -15 -4 3 -8 1 -8 -4 0 -4 -17 -18 -39 -30 -21 -12 -44 -29 -51 -37 -7 -8 -16 -12 -21 -9 -5 3 -12 -2 -15 -10 -3 -9 -12 -16 -20 -16 -8 0 -14 -4 -14 -8 0 -7 -117 -108 -157 -137 -8 -5 -58 -54 -111 -107 -80 -80 -99 -95 -112 -85 -13 10 -13 10 -3 -3 9 -12 -3 -32 -70 -111 -45 -53 -109 -129 -143 -170 -120 -146 -284 -190 -469 -127 -22 8 -39 19 -38 26 2 6 -4 9 -12 6 -18 -7 -89 33 -133 74 -18 17 -32 28 -32 25 0 -7 -92 67 -102 82 -4 5 -8 7 -8 3 0 -4 -21 5 -47 21 -119 73 -277 81 -398 22 -37 -18 -82 -46 -101 -63 -19 -17 -38 -26 -45 -22 -7 4 -9 3 -6 -4 12 -18 -135 -137 -178 -144 -11 -2 -23 -7 -27 -13 -18 -25 -228 -1 -228 26 0 5 -3 8 -8 7 -13 -5 -52 28 -44 37 4 5 2 6 -3 2 -6 -3 -62 35 -124 84 -173 137 -230 159 -255 98 -7 -18 -11 -39 -9 -48 2 -9 42 -40 89 -69 77 -49 89 -61 85 -85 -1 -5 7 -6 18 -2 11 3 23 0 28 -7 4 -7 25 -26 46 -41 53 -40 77 -68 70 -81 -4 -7 -1 -7 8 1 11 9 20 8 39 -7 14 -11 30 -20 35 -20 6 0 23 -7 38 -15 20 -10 55 -14 125 -12 79 2 107 7 153 28 64 30 137 81 194 134 94 89 200 138 283 131 17 -1 44 -3 58 -4 14 -1 23 -6 20 -11 -4 -5 3 -7 13 -4 24 6 106 -37 152 -80 19 -17 37 -32 41 -32 3 0 23 -15 43 -32 20 -18 41 -33 45 -33 5 0 10 -4 12 -8 5 -11 100 -66 121 -69 10 -2 28 -9 40 -15 12 -7 29 -11 39 -10 9 2 19 -2 22 -7 4 -6 14 -7 23 -4 13 5 15 2 11 -14 -4 -16 -2 -19 13 -16 11 3 19 8 19 12 0 3 28 6 63 5 34 0 82 5 107 12 24 8 45 12 46 11 2 -1 -16 -34 -38 -72 -22 -39 -60 -108 -84 -155 -24 -47 -48 -92 -53 -100 -4 -8 -26 -52 -47 -97 -21 -46 -42 -83 -48 -83 -5 0 -6 -3 -3 -6 3 -4 2 -15 -3 -25 -9 -15 -15 -16 -47 -7 -47 13 -116 57 -179 116 -14 12 -27 22 -30 22 -2 0 -28 18 -56 41 -104 82 -196 113 -315 108 -101 -5 -191 -48 -323 -153 -131 -105 -189 -133 -280 -135 -60 -1 -81 3 -133 28 -34 16 -79 46 -99 65 -20 20 -39 36 -43 36 -3 0 -36 24 -73 54 -84 67 -152 106 -183 106 -36 0 -72 -36 -63 -63 3 -12 7 -26 8 -31 0 -6 23 -21 51 -34 57 -27 87 -51 79 -63 -3 -5 2 -6 11 -3 9 4 24 -1 33 -10 79 -76 218 -168 291 -191 74 -24 210 -17 275 14 25 13 51 19 57 15 7 -4 9 -3 6 3 -4 6 4 18 17 26 13 9 63 48 112 87 49 40 111 83 138 97 85 43 222 38 303 -10 18 -10 33 -21 33 -24 0 -2 -5 -1 -12 3 -7 4 -8 3 -4 -4 4 -6 13 -9 21 -6 8 4 18 -1 21 -10 3 -9 12 -16 20 -16 8 0 19 -9 26 -20 7 -11 18 -20 25 -20 7 0 20 -11 29 -25 9 -14 20 -25 25 -25 5 0 30 -16 56 -37 67 -50 118 -71 190 -76 58 -4 64 -2 88 25 14 15 25 30 25 33 0 3 23 52 51 110 28 57 50 106 49 107 0 2 10 23 24 48 14 25 43 79 64 120 22 41 49 91 60 110 12 19 29 50 38 68 9 17 21 32 26 32 5 0 7 4 3 9 -3 5 -1 13 5 16 11 7 45 56 87 124 12 20 27 35 32 33 6 -1 10 2 9 6 -3 9 31 58 70 100 12 14 22 28 22 31 0 4 27 35 60 70 33 35 60 66 60 70 0 8 182 185 240 234 25 20 52 43 60 51 53 47 142 106 151 100 7 -4 9 -3 6 4 -4 5 14 22 40 38 27 16 62 37 78 47 67 40 197 97 207 91 7 -4 8 -2 4 5 -4 6 0 14 11 17 10 3 44 17 76 30 32 13 64 24 72 24 8 0 26 5 42 12 15 7 33 13 38 13 6 1 30 7 54 14 25 7 54 14 65 15 12 2 37 6 56 10 19 3 53 8 75 11 22 3 60 8 85 12 98 14 395 2 527 -21 66 -12 91 -18 137 -33 29 -9 44 -18 37 -23 -7 -4 7 -7 31 -6 24 0 58 -7 77 -17 19 -9 42 -17 51 -17 9 0 38 -11 64 -24 27 -13 59 -27 73 -31 28 -7 55 -29 47 -38 -3 -3 3 -3 14 -1 10 3 26 -1 34 -10 9 -8 18 -12 22 -9 3 4 6 1 6 -6 0 -7 5 -9 10 -6 6 3 10 1 10 -4 0 -6 5 -11 11 -11 19 0 109 -62 103 -71 -3 -5 1 -7 8 -4 16 6 111 -52 104 -63 -3 -4 0 -14 6 -22 8 -12 9 -11 4 3 -5 16 -2 16 27 -4 17 -12 37 -28 42 -34 6 -7 28 -25 50 -39 66 -45 286 -260 280 -274 -3 -7 -1 -11 3 -8 11 6 30 -11 102 -94 93 -107 140 -167 140 -179 0 -6 4 -11 9 -11 14 0 141 -196 196 -303 28 -56 71 -137 94 -179 23 -43 42 -80 41 -83 0 -3 14 -33 31 -66 18 -36 25 -59 17 -56 -7 2 -12 10 -10 16 1 7 -2 10 -7 7 -5 -4 -4 -16 2 -31 7 -13 14 -20 15 -14 5 12 32 -8 32 -24 0 -5 11 -20 24 -32 20 -19 33 -22 73 -19 72 6 74 7 133 42 77 45 93 55 105 68 21 23 139 117 177 140 21 14 44 22 50 18 6 -4 8 -3 5 3 -8 13 59 30 126 32 49 2 147 -24 147 -38 0 -4 6 -8 13 -8 17 0 67 -33 67 -44 0 -5 7 -9 15 -9 8 0 22 -11 31 -25 9 -14 22 -25 30 -25 8 0 19 -9 26 -20 7 -11 16 -20 21 -20 4 0 30 -15 56 -34 68 -46 157 -69 251 -63 41 2 85 6 97 10 41 11 108 44 133 65 105 89 142 119 194 154 33 21 77 48 98 59 47 24 63 54 49 90 -11 30 -54 43 -84 27 -23 -12 -37 -1 -17 13 12 9 12 10 -3 5 -10 -3 -20 -6 -23 -6 -2 0 -1 -6 1 -12 3 -7 -12 -24 -32 -37 -21 -14 -57 -40 -79 -58 -23 -18 -44 -29 -48 -26 -3 4 -6 1 -6 -6 0 -7 -5 -9 -12 -5 -6 4 -8 3 -4 -4 8 -13 -33 -44 -47 -35 -6 3 -7 1 -3 -5 13 -22 -122 -98 -190 -106 -18 -3 -38 -7 -44 -11 -5 -3 -15 -3 -22 1 -6 4 -24 8 -39 9 -43 4 -108 40 -187 104 -91 75 -202 144 -265 165 -58 20 -165 20 -232 2 -53 -14 -123 -44 -141 -61 -6 -5 -46 -37 -89 -70 -42 -33 -87 -68 -98 -78 -28 -24 -117 -70 -117 -60 0 4 -5 2 -12 -5 -16 -16 -28 -15 -28 3 0 8 -4 15 -10 15 -5 0 -10 5 -10 11 0 15 -133 283 -142 287 -5 2 -8 10 -8 18 0 8 -11 32 -25 52 -14 20 -25 41 -25 46 0 5 -7 17 -15 26 -21 23 -51 97 -33 83 30 -25 115 -24 281 2 43 7 152 61 206 103 20 15 38 27 40 27 2 0 22 17 45 38 23 20 53 43 69 50 15 6 27 15 27 19 0 4 26 20 58 35 75 37 190 39 265 5 75 -33 147 -90 147 -115 0 -18 2 -19 10 -7 7 12 13 11 37 -10 15 -14 30 -27 33 -30 26 -27 119 -83 146 -87 19 -3 34 -9 34 -13 0 -4 46 -7 103 -6 83 2 112 7 157 26 30 13 61 30 68 37 22 21 52 34 62 28 5 -3 8 0 5 7 -6 18 225 198 254 198 17 0 41 38 41 63 0 35 -35 67 -67 61 -15 -3 -50 -22 -80 -42 -30 -20 -61 -41 -69 -47 -9 -5 -36 -29 -62 -52 -26 -24 -49 -43 -52 -43 -4 0 -22 -14 -41 -31 -59 -54 -134 -83 -214 -82 -89 0 -138 21 -246 105 -45 35 -102 78 -128 96 -25 18 -45 37 -43 43 1 6 -2 8 -7 5 -5 -3 -31 3 -58 15 -27 12 -80 23 -123 26 -125 9 -229 -28 -347 -123 -23 -19 -46 -34 -52 -34 -6 0 -11 -4 -11 -9 0 -13 -132 -101 -152 -101 -9 0 -19 -6 -21 -12 -4 -10 -8 -9 -16 2 -9 13 -15 8 -12 -12 0 -6 -13 -10 -89 -26 -66 -15 -175 -5 -239 21 -66 28 -99 55 -166 142 -52 66 -100 120 -209 238 -50 54 -90 102 -88 108 1 6 -2 7 -9 4 -6 -4 -18 1 -28 11 -31 33 -134 122 -201 174 -36 28 -75 59 -87 69 -12 10 -28 21 -35 24 -7 3 -33 20 -58 38 -78 58 -325 185 -437 224 -29 11 -53 23 -53 28 0 4 -4 6 -9 3 -5 -3 -35 3 -67 13 -133 43 -331 81 -427 81 -24 0 -47 3 -50 6 -12 12 -271 9 -352 -4z"/>
</g>
</svg>
