<?xml version="1.0" standalone="no"?>
<!DOCTYPE svg PUBLIC "-//W3C//DTD SVG 20010904//EN" "http://www.w3.org/TR/2001/REC-SVG-20010904/DTD/svg10.dtd">
<svg xmlns="http://www.w3.org/2000/svg" version="1.0" width="1024.000000pt" height="1024.000000pt" viewBox="0 0 1024.000000 1024.000000" preserveAspectRatio="xMidYMid meet">
<metadata>
Created by potrace 1.16, written by Peter Selinger 2001-2019
<meta name="Producer" content="Online-Convert"/></metadata>
<g transform="translate(0.000000,1024.000000) scale(0.100000,-0.100000)" fill="#000000" stroke="none">
<path d="M5082 8324 c-14 -10 -22 -25 -22 -45 0 -21 -4 -28 -12 -23 -10 6 -10 4 0 -7 13 -15 17 -154 4 -145 -5 3 -9 -1 -9 -9 0 -8 4 -12 8 -9 4 2 7 -16 7 -41 0 -25 -3 -43 -7 -41 -4 3 -8 -4 -8 -15 -1 -11 2 -17 8 -14 11 8 11 7 0 -33 -6 -20 -6 -32 0 -32 5 0 9 -5 9 -11 0 -5 -5 -7 -12 -3 -7 5 -8 3 -2 -7 12 -19 13 -119 1 -119 -5 0 -5 -5 2 -13 7 -9 8 -24 2 -45 -5 -18 -6 -34 -1 -37 4 -3 7 -38 6 -79 0 -41 2 -72 5 -70 9 5 30 -21 24 -28 -3 -3 13 -2 35 2 22 4 44 11 48 15 7 7 20 729 14 776 -3 17 -13 31 -28 38 -33 15 -45 14 -72 -5z"/>
<path d="M6568 7828 c-8 -7 -25 -30 -37 -51 -13 -20 -27 -34 -33 -31 -7 4 -8 2 -4 -4 9 -14 -68 -138 -84 -134 -7 2 -10 -3 -7 -12 4 -9 -28 -68 -74 -142 -103 -163 -109 -176 -109 -218 0 -32 3 -36 34 -42 19 -3 42 -2 51 3 9 6 45 57 80 114 35 57 68 103 74 102 6 -2 8 4 4 14 -5 12 -3 14 7 8 8 -5 11 -4 6 3 -3 6 31 70 77 144 89 141 117 191 117 207 0 18 -43 51 -65 51 -12 0 -28 -6 -37 -12z"/>
<path d="M4502 7190 c-213 -32 -439 -103 -622 -195 -50 -25 -96 -43 -102 -39 -7 4 -8 3 -4 -4 4 -7 -10 -20 -36 -33 -24 -12 -44 -21 -45 -21 -2 1 -13 -8 -27 -21 -13 -12 -52 -42 -86 -67 -35 -25 -68 -49 -74 -55 -6 -5 -37 -34 -69 -63 -33 -29 -64 -49 -70 -45 -7 3 -9 3 -5 -2 11 -11 -12 -36 -25 -28 -5 3 -7 2 -4 -4 9 -14 -21 -53 -40 -53 -9 0 -13 -3 -10 -6 4 -4 -15 -32 -42 -63 -26 -31 -71 -87 -100 -126 -29 -38 -57 -69 -63 -67 -5 1 -7 -2 -3 -8 9 -14 -14 -52 -27 -44 -6 4 -8 3 -5 -3 4 -6 -11 -44 -34 -84 -22 -41 -47 -90 -55 -109 -8 -19 -24 -54 -35 -77 -10 -24 -19 -48 -19 -55 0 -9 -4 -8 -11 2 -9 13 -10 13 -6 -2 8 -22 -12 -90 -23 -83 -6 3 -8 0 -5 -7 7 -19 -41 -185 -48 -168 -4 8 -5 6 -2 -6 3 -12 -2 -66 -10 -120 -41 -263 -25 -591 42 -833 5 -19 3 -22 -8 -17 -9 5 -9 3 2 -6 8 -7 30 -56 48 -108 18 -52 50 -133 72 -179 21 -46 36 -88 32 -94 -4 -6 -1 -7 7 -2 10 6 11 1 6 -21 -4 -17 -3 -24 2 -16 10 15 115 -154 105 -170 -3 -6 -1 -8 4 -5 16 10 34 -18 27 -39 -5 -16 -4 -16 5 -4 10 15 13 11 15 -20 1 -8 6 -15 12 -15 6 0 38 -34 71 -75 34 -41 112 -124 174 -185 63 -60 112 -114 111 -118 -1 -5 2 -6 6 -3 9 5 102 -61 102 -72 0 -2 -8 2 -17 9 -16 11 -16 11 -5 -1 7 -8 20 -15 30 -15 9 0 16 -6 14 -13 -1 -8 2 -11 7 -7 13 8 63 -24 55 -36 -3 -5 2 -6 10 -3 8 3 24 -4 35 -15 12 -12 24 -20 27 -20 3 1 42 -19 87 -44 45 -25 92 -48 105 -52 12 -3 22 -13 22 -20 0 -8 5 -17 12 -21 8 -5 9 -2 5 9 -5 14 1 14 46 -4 140 -55 279 -94 417 -116 123 -19 464 -25 610 -11 139 14 316 55 449 105 85 32 322 145 361 173 17 12 35 18 42 14 7 -4 10 -4 6 1 -11 11 60 58 74 49 6 -4 8 -3 5 3 -3 5 7 22 24 37 32 30 36 60 14 90 -16 21 -31 20 -182 -8 -166 -31 -536 -25 -555 9 -5 8 -14 15 -21 15 -7 0 -6 -4 3 -10 21 -13 -22 -13 -75 1 -22 5 -58 15 -80 20 -72 18 -224 83 -218 92 3 6 1 7 -6 3 -31 -20 -306 165 -447 301 -102 98 -177 189 -168 204 4 7 3 10 -4 5 -13 -8 -56 50 -47 64 4 6 1 9 -5 8 -18 -4 -114 171 -160 289 -132 341 -141 734 -25 1080 38 113 133 305 147 297 7 -4 8 -3 4 4 -29 48 399 510 439 475 4 -5 5 -3 2 3 -8 15 70 67 85 58 6 -4 8 -3 5 4 -9 13 162 101 276 141 251 88 598 108 884 51 55 -11 66 -11 88 4 14 9 25 23 25 32 0 8 4 13 9 9 5 -3 3 7 -4 22 -9 17 -42 43 -84 67 -39 22 -67 44 -64 49 3 6 1 7 -5 3 -14 -9 -83 25 -75 37 3 6 1 7 -4 4 -10 -6 -44 6 -139 48 -71 33 -277 95 -381 117 -61 12 -110 25 -108 28 4 6 -19 7 -315 14 -198 4 -254 2 -358 -14z m636 -125 c59 -9 143 -25 187 -36 87 -22 297 -91 291 -96 -1 -2 -50 -5 -107 -8 -57 -3 -129 -8 -159 -11 -64 -7 -238 -41 -251 -50 -5 -3 -9 0 -9 7 0 9 -4 8 -12 -2 -7 -9 -33 -21 -58 -28 -62 -17 -291 -121 -315 -143 -10 -10 -25 -16 -33 -13 -7 2 -10 1 -7 -5 3 -5 -5 -14 -17 -21 -13 -7 -52 -34 -87 -60 -35 -27 -68 -46 -74 -42 -5 3 -7 1 -4 -4 8 -13 -80 -89 -96 -85 -7 2 -9 0 -4 -4 10 -10 -43 -65 -56 -57 -6 4 -8 0 -4 -9 3 -10 -3 -24 -15 -35 -28 -25 -149 -188 -182 -246 -16 -26 -33 -44 -38 -40 -7 3 -8 1 -4 -5 4 -6 -14 -53 -40 -104 -111 -221 -165 -468 -168 -765 0 -99 2 -179 5 -177 9 5 21 -105 13 -119 -4 -7 -3 -8 1 -4 11 9 37 -111 28 -126 -4 -6 -1 -7 7 -2 10 6 12 0 8 -23 -2 -17 -1 -29 3 -26 8 5 32 -67 24 -74 -2 -2 -7 7 -11 22 -3 14 -10 26 -15 26 -11 0 16 -57 29 -62 17 -6 121 -239 116 -256 -5 -13 -4 -14 4 -3 8 11 12 10 21 -8 7 -12 9 -26 6 -31 -4 -6 -2 -9 3 -8 13 4 103 -123 96 -134 -3 -5 -1 -7 4 -6 11 4 62 -55 62 -71 0 -6 4 -11 9 -11 18 0 136 -132 133 -149 -2 -11 0 -12 6 -4 6 10 23 0 63 -35 30 -27 76 -63 102 -81 27 -18 50 -38 53 -45 3 -7 11 -13 18 -13 21 0 87 -44 81 -54 -4 -5 1 -6 9 -3 8 3 23 -3 34 -13 10 -10 25 -19 33 -21 8 -2 33 -12 57 -23 24 -11 61 -27 82 -35 22 -9 40 -20 40 -26 0 -5 4 -7 8 -4 4 2 59 -10 122 -29 144 -41 338 -66 497 -63 110 3 119 2 95 -11 -61 -32 -167 -71 -180 -66 -7 2 -10 1 -7 -5 11 -18 -263 -95 -310 -86 -22 4 -26 3 -15 -4 8 -5 10 -10 4 -10 -6 0 -55 -7 -110 -15 -201 -31 -558 -13 -748 36 -102 26 -235 73 -230 80 3 5 -1 6 -8 4 -36 -14 -438 210 -423 235 3 5 0 7 -7 5 -22 -9 -278 225 -357 326 -11 15 -17 30 -13 34 4 5 2 5 -4 2 -12 -7 -47 38 -47 60 0 7 -4 10 -9 7 -13 -8 -114 155 -178 288 -61 127 -118 286 -146 410 -14 59 -14 72 -3 79 11 7 10 9 -5 9 -15 0 -17 6 -14 35 2 19 -1 36 -7 38 -6 2 -10 86 -9 248 0 225 2 254 27 370 58 273 150 483 309 707 33 45 64 80 69 77 5 -4 6 1 3 9 -7 20 233 261 336 337 106 79 209 141 222 133 6 -4 8 -3 5 3 -7 10 146 86 246 122 41 15 57 17 57 8 1 -7 5 -6 13 4 25 33 242 80 452 99 123 12 372 4 503 -15z"/>
<path d="M7485 6790 c-3 -5 -3 -10 2 -10 4 0 -18 -16 -50 -36 -31 -19 -62 -32 -68 -28 -7 4 -9 3 -6 -3 6 -10 -109 -90 -136 -96 -5 -1 -21 -12 -36 -25 -14 -13 -38 -26 -53 -29 -16 -3 -25 -10 -21 -16 4 -6 0 -8 -11 -4 -9 4 -15 3 -12 -2 6 -9 -66 -61 -83 -61 -6 0 -13 -16 -17 -35 -5 -29 -2 -39 16 -55 13 -11 32 -20 43 -20 11 0 91 45 178 101 94 60 163 98 170 93 7 -4 9 -3 6 4 -4 6 30 34 80 66 49 30 93 64 100 74 26 43 -19 91 -72 78 -17 -4 -24 -3 -20 4 3 5 4 10 1 10 -3 0 -8 -4 -11 -10z"/>
<path d="M7345 5413 c-11 -3 -27 -11 -36 -19 -9 -8 -18 -12 -20 -9 -3 2 -3 -12 -1 -31 8 -65 12 -65 365 -62 173 2 313 0 311 -4 -3 -4 3 -5 12 -1 11 4 13 8 6 11 -8 2 -7 10 4 27 19 29 15 55 -11 75 -17 12 -70 15 -315 17 -162 0 -304 -1 -315 -4z"/>
<path d="M7020 4305 c-7 -8 -16 -13 -20 -10 -3 2 -6 -9 -5 -26 2 -32 33 -70 74 -91 14 -7 61 -35 104 -62 68 -42 76 -50 65 -65 -12 -14 -11 -14 4 -2 15 11 22 11 45 -5 16 -10 40 -25 54 -34 14 -8 60 -37 103 -64 83 -53 112 -55 135 -12 19 35 6 62 -50 100 -27 18 -46 36 -41 41 4 5 2 6 -3 2 -12 -6 -108 46 -100 55 3 2 -1 5 -7 5 -7 0 -79 41 -159 91 -80 51 -155 92 -166 92 -11 0 -26 -7 -33 -15z"/>
<path d="M6215 3418 c-33 -26 -31 -42 9 -108 19 -30 33 -57 30 -61 -2 -4 2 -9 9 -12 7 -3 30 -33 51 -68 38 -62 57 -92 144 -228 31 -48 39 -67 29 -73 -6 -4 -9 -8 -4 -9 4 -1 10 -2 15 -3 10 -2 51 -44 47 -48 -3 -2 12 -2 31 0 44 5 69 39 59 79 -3 15 -10 30 -14 33 -18 12 -61 92 -55 102 4 6 3 8 -3 5 -14 -9 -46 40 -37 56 4 7 4 9 -1 5 -11 -10 -57 53 -50 70 2 7 1 11 -4 8 -4 -3 -30 29 -57 71 -27 42 -66 102 -86 132 -20 31 -32 58 -27 61 5 4 -7 6 -26 7 -21 1 -45 -7 -60 -19z"/>
<path d="M5098 2962 c-31 -4 -36 -18 -41 -147 -2 -44 -8 -89 -12 -99 -6 -13 -5 -17 3 -12 13 8 10 -183 -3 -205 -5 -8 -4 -10 3 -5 7 4 12 2 12 -3 0 -6 -6 -11 -12 -11 -10 0 -10 -2 -1 -8 9 -6 10 -17 4 -39 -5 -17 -7 -33 -5 -36 3 -2 7 -53 10 -113 3 -60 7 -118 9 -130 5 -25 50 -47 77 -38 16 5 19 3 13 -7 -5 -8 -4 -11 1 -6 5 5 9 12 9 15 0 4 4 12 7 18 13 19 10 794 -2 809 -13 16 -37 21 -72 17z"/>
</g>
</svg>
