<?xml version="1.0" standalone="no"?>
<!DOCTYPE svg PUBLIC "-//W3C//DTD SVG 20010904//EN" "http://www.w3.org/TR/2001/REC-SVG-20010904/DTD/svg10.dtd">
<svg xmlns="http://www.w3.org/2000/svg" version="1.0" width="1024.000000pt" height="1024.000000pt" viewBox="0 0 1024.000000 1024.000000" preserveAspectRatio="xMidYMid meet">
<metadata>
Created by potrace 1.16, written by Peter Selinger 2001-2019
<meta name="Producer" content="Online-Convert"/></metadata>
<g transform="translate(0.000000,1024.000000) scale(0.100000,-0.100000)" fill="#000000" stroke="none">
<path d="M4993 8526 c-67 -32 -127 -95 -147 -153 -19 -55 -21 -166 -4 -213 10 -30 9 -35 -13 -52 -13 -11 -83 -77 -154 -146 -72 -70 -184 -179 -250 -242 -66 -63 -193 -186 -282 -272 l-162 -158 -514 0 -514 0 -21 -23 -22 -23 0 -1565 c0 -1400 2 -1567 16 -1587 l15 -22 2175 0 c2164 0 2174 0 2194 20 20 20 20 31 20 1603 0 1246 -3 1584 -13 1587 -6 1 -247 6 -534 9 l-522 6 -43 40 c-23 22 -92 88 -153 146 -60 58 -166 159 -235 224 -69 64 -124 123 -122 129 2 6 0 8 -4 4 -7 -8 -56 35 -226 199 l-96 94 15 37 c20 48 14 173 -11 224 -24 49 -78 103 -129 130 -31 16 -65 23 -127 25 -74 4 -91 1 -137 -21z m199 -166 c35 -27 52 -72 43 -116 -7 -39 -49 -89 -65 -79 -6 3 -10 1 -10 -4 0 -17 -58 -13 -97 6 -22 10 -41 29 -49 49 -23 55 -18 83 25 125 33 34 45 39 83 39 30 0 54 -7 70 -20z m-71 -390 c25 0 66 7 92 16 l46 16 235 -223 c129 -122 232 -227 229 -232 -3 -6 -2 -8 3 -5 5 3 52 -35 104 -84 52 -49 89 -86 81 -82 -9 5 -12 3 -7 -5 4 -6 11 -9 15 -7 4 3 25 -13 46 -34 l39 -40 -884 0 -884 0 180 172 c98 95 264 256 367 358 l189 186 51 -18 c29 -9 73 -17 98 -18z m2039 -2295 l0 -1435 -2035 2 -2035 3 0 1410 c0 776 0 1420 0 1433 l0 22 2035 0 2035 0 0 -1435z"/>
<path d="M3422 6797 l-22 -23 3 -1095 c1 -602 5 -1103 8 -1114 6 -20 16 -20 1697 -23 1683 -2 1692 -2 1712 18 20 20 20 32 20 1118 l0 1099 -23 21 -23 22 -1675 0 -1676 0 -21 -23z m3240 -1122 l-2 -965 -25 0 c-17 0 -75 45 -197 153 -95 83 -195 169 -221 191 -40 33 -45 41 -35 55 11 14 11 14 -3 4 -13 -11 -30 0 -110 70 -214 188 -328 267 -385 267 -8 0 -13 3 -11 8 8 12 -166 -4 -198 -19 -16 -8 -68 -38 -114 -66 -147 -92 -176 -81 -346 142 -329 431 -386 479 -557 478 -119 0 -154 -24 -479 -330 -156 -147 -311 -295 -344 -328 l-60 -60 3 683 2 682 1543 0 1542 0 -3 -965z m-2134 125 c28 -13 41 -24 36 -31 -4 -7 -3 -9 3 -6 18 11 159 -155 362 -426 40 -53 88 -109 105 -124 55 -46 125 -73 192 -73 84 0 142 20 221 76 146 105 196 96 379 -63 56 -48 193 -167 305 -263 l203 -175 -1365 -3 c-750 -1 -1370 0 -1376 3 -10 3 -13 46 -13 166 l0 161 92 87 c51 47 226 213 390 368 163 155 314 291 335 302 48 25 77 26 131 1z"/>
<path d="M5714 6356 c-128 -59 -214 -191 -214 -331 0 -19 -4 -35 -10 -35 -5 0 -10 -4 -10 -10 0 -5 6 -7 13 -4 8 3 17 -10 24 -38 7 -24 26 -65 44 -92 99 -149 299 -191 470 -100 19 10 37 18 42 19 4 0 7 5 7 10 1 6 14 24 30 40 16 17 42 57 57 90 23 50 28 73 28 140 0 67 -4 89 -28 137 -36 73 -119 150 -192 177 -78 30 -192 28 -261 -3z m210 -166 c52 -26 86 -69 92 -117 4 -29 3 -34 -5 -23 -7 9 -11 10 -11 3 0 -6 5 -15 10 -18 33 -20 -25 -116 -88 -147 -104 -50 -242 29 -242 139 0 53 14 90 48 127 54 57 126 71 196 36z"/>
<path d="M2839 3769 c-99 -15 -173 -72 -217 -167 -21 -47 -24 -64 -20 -137 4 -72 8 -89 37 -134 39 -60 75 -93 131 -117 l40 -18 -2 -624 -3 -624 -110 -4 c-95 -4 -117 -8 -165 -32 -79 -40 -115 -94 -116 -178 0 -35 2 -61 5 -59 2 3 13 -3 23 -12 24 -21 89 -23 112 -4 10 8 23 28 30 45 27 64 29 65 276 66 124 1 239 1 257 1 36 -1 67 -28 88 -79 24 -57 90 -68 136 -23 50 50 30 138 -47 208 -58 52 -90 62 -202 64 l-102 2 0 628 0 629 38 19 c42 21 102 83 125 128 17 32 48 185 36 178 -4 -3 -10 13 -14 35 -7 42 -50 111 -93 148 -57 49 -156 74 -243 61z m113 -185 c66 -34 76 -135 19 -186 -55 -49 -107 -49 -162 0 -57 51 -44 158 23 189 33 15 88 13 120 -3z"/>
<path d="M7281 3770 c-93 -19 -192 -105 -214 -187 -6 -23 -13 -40 -17 -38 -11 7 7 -141 23 -177 21 -49 92 -125 139 -149 l38 -19 0 -628 0 -627 -106 -3 c-80 -2 -115 -7 -142 -21 -76 -39 -118 -96 -128 -175 -6 -41 -4 -48 24 -75 46 -47 103 -37 137 22 45 79 40 77 230 79 319 2 337 1 360 -26 23 -27 59 -88 57 -97 -1 -4 22 -5 51 -4 37 2 56 9 68 24 9 11 19 18 22 15 12 -12 -2 104 -16 132 -20 39 -80 92 -123 110 -21 9 -72 14 -139 14 l-105 0 0 630 0 630 39 20 c52 26 105 81 133 139 32 65 32 187 0 248 -66 126 -196 190 -331 163z m145 -204 c30 -30 49 -87 24 -71 -14 8 -13 -8 1 -22 22 -22 -10 -74 -58 -95 -37 -16 -49 -17 -78 -8 -52 17 -85 62 -85 117 0 38 5 50 34 79 29 29 41 34 81 34 40 0 52 -5 81 -34z"/>
<path d="M3259 3141 c-56 -56 -37 -97 86 -183 410 -288 865 -462 1382 -528 437 -56 818 -27 1268 96 254 70 616 238 834 387 25 17 50 30 58 30 7 0 11 3 8 5 -3 3 17 20 45 39 79 53 92 103 41 154 -40 39 -76 38 -140 -6 -52 -36 -67 -43 -56 -25 3 6 1 10 -5 10 -7 0 -10 -7 -7 -15 10 -24 -283 -192 -493 -282 -210 -91 -538 -191 -583 -179 -9 2 -15 1 -12 -4 2 -4 -41 -15 -98 -23 -752 -117 -1516 58 -2158 495 -99 67 -127 72 -170 29z"/>
</g>
</svg>
