<?xml version="1.0" standalone="no"?>
<!DOCTYPE svg PUBLIC "-//W3C//DTD SVG 20010904//EN"
 "http://www.w3.org/TR/2001/REC-SVG-20010904/DTD/svg10.dtd">
<svg version="1.0" xmlns="http://www.w3.org/2000/svg"
 width="1024.000000pt" height="1024.000000pt" viewBox="0 0 1024.000000 1024.000000"
 preserveAspectRatio="xMidYMid meet">
<metadata>
Created by potrace 1.16, written by Peter Selinger 2001-2019
</metadata>
<g transform="translate(0.000000,1024.000000) scale(0.100000,-0.100000)"
fill="#000000" stroke="none">
<path d="M5340 8990 c-65 -11 -165 -46 -242 -85 -36 -18 -69 -31 -72 -29 -3 2
-4 1 -1 -2 6 -10 -98 -83 -109 -76 -5 3 -6 1 -3 -5 3 -5 -12 -27 -35 -49 -22
-21 -60 -69 -85 -106 -24 -38 -48 -68 -52 -68 -5 0 -14 6 -20 14 -6 8 -25 19
-41 26 -16 7 -27 17 -23 23 3 5 1 7 -5 3 -6 -3 -35 5 -66 19 -30 14 -60 25
-65 25 -6 0 -11 4 -11 8 0 4 -8 8 -18 9 -10 1 -45 10 -78 22 -151 50 -307 53
-436 5 -40 -14 -81 -27 -90 -27 -9 -1 -15 -3 -13 -6 3 -2 -16 -19 -43 -36 -36
-26 -50 -30 -62 -22 -12 9 -13 8 -3 -2 9 -11 4 -23 -24 -57 -23 -27 -41 -41
-52 -37 -12 4 -13 3 -3 -5 18 -13 -62 -145 -122 -200 -56 -51 -100 -74 -243
-123 -132 -46 -197 -84 -272 -160 -126 -128 -173 -270 -169 -510 2 -113 0
-128 -22 -171 -13 -26 -27 -45 -31 -42 -4 2 -11 -1 -15 -7 -4 -8 -3 -9 4 -5 7
4 12 3 12 -2 0 -11 -40 -48 -47 -44 -3 2 -8 0 -11 -4 -4 -4 -1 -4 6 0 20 12
14 -1 -24 -54 -20 -28 -51 -84 -69 -125 -18 -41 -34 -73 -37 -70 -2 2 -4 -12
-5 -33 -3 -214 0 -329 10 -338 4 -4 7 -1 7 7 0 13 56 -93 61 -116 1 -5 9 -15
18 -22 9 -6 13 -15 8 -19 -4 -4 -7 -2 -7 4 0 7 -5 12 -11 12 -8 0 -8 -4 1 -15
6 -8 15 -14 18 -13 4 1 43 -34 87 -78 44 -43 71 -72 60 -64 -18 14 -19 14 -7
-2 8 -9 20 -14 27 -12 7 3 23 -4 34 -15 12 -12 21 -18 21 -13 0 4 5 -1 11 -11
6 -10 16 -14 22 -10 7 3 3 -3 -7 -15 -21 -24 -36 -31 -17 -8 8 9 8 16 2 20
-11 7 -25 -29 -17 -42 7 -11 -63 -108 -76 -104 -5 1 -7 -2 -4 -7 3 -5 -7 -38
-24 -72 -45 -98 -61 -172 -59 -277 2 -134 33 -255 77 -305 8 -9 13 -20 9 -23
-3 -3 3 -15 13 -27 11 -11 17 -23 15 -27 -3 -4 2 -13 10 -20 8 -7 15 -9 15 -5
0 4 19 -11 42 -34 23 -23 61 -54 85 -68 24 -14 40 -30 36 -35 -3 -7 -1 -8 5
-4 20 12 154 -65 209 -120 44 -44 55 -62 73 -125 11 -41 29 -101 40 -134 11
-34 17 -73 15 -87 -3 -15 0 -30 7 -34 8 -5 9 -2 5 9 -3 10 -3 17 2 17 12 0 32
-50 25 -62 -4 -6 -2 -8 3 -5 11 7 46 -39 46 -60 0 -7 2 -11 5 -8 3 2 27 -16
55 -41 28 -25 64 -52 79 -60 17 -9 26 -20 22 -26 -5 -7 -2 -9 9 -5 9 3 42 -3
73 -13 32 -11 69 -20 84 -20 14 0 30 -4 36 -9 5 -5 40 -5 82 0 59 8 87 6 140
-7 72 -18 182 -62 182 -73 0 -4 8 -7 18 -8 9 0 52 -9 95 -18 66 -15 90 -15
155 -6 42 6 88 17 102 25 l26 13 -18 -56 c-28 -82 -86 -328 -103 -437 -29
-175 -45 -378 -45 -561 0 -156 -2 -183 -15 -183 -13 0 -20 19 -16 43 1 5 -2 6
-7 3 -12 -7 -75 131 -66 146 4 6 3 8 -3 5 -6 -4 -29 29 -53 76 -62 120 -145
261 -206 348 -29 42 -50 80 -46 84 4 5 2 5 -4 2 -12 -7 -51 41 -46 56 1 5 -1
6 -6 3 -5 -3 -31 17 -58 45 -137 140 -380 301 -527 348 -20 7 -35 17 -32 22 4
5 0 6 -8 3 -8 -3 -41 4 -73 16 -33 11 -126 34 -209 52 -124 26 -174 31 -288
32 l-139 1 -25 -30 c-24 -27 -25 -34 -19 -100 3 -38 19 -107 35 -151 22 -62
27 -84 18 -93 -9 -9 -8 -11 6 -6 11 5 17 2 17 -8 0 -8 12 -35 26 -61 14 -25
22 -51 18 -57 -4 -7 -3 -10 2 -6 5 3 14 -6 21 -19 6 -13 7 -22 2 -18 -5 3 -6
-2 -3 -11 4 -9 9 -13 12 -10 9 8 133 -186 126 -197 -4 -6 -2 -8 3 -5 14 9 37
-19 28 -33 -4 -6 -3 -9 2 -8 5 2 51 -42 103 -96 52 -55 139 -134 192 -176 54
-43 94 -81 90 -85 -4 -5 -2 -5 4 -2 6 4 33 -8 60 -25 207 -131 445 -223 721
-280 63 -12 107 -26 100 -30 -7 -5 -3 -8 11 -8 15 0 21 4 16 12 -4 6 -3 8 3 5
5 -3 40 -7 79 -8 53 -1 74 -6 91 -22 12 -11 20 -24 17 -28 -3 -5 -1 -9 3 -9 5
0 25 -22 46 -48 32 -43 40 -64 62 -178 14 -71 33 -153 41 -182 9 -29 13 -60
10 -68 -4 -10 -2 -12 6 -8 8 5 9 -3 5 -27 -3 -19 -3 -28 0 -20 3 7 25 -43 48
-110 23 -68 57 -158 75 -199 39 -92 48 -126 30 -115 -8 5 -5 -5 5 -23 10 -17
22 -29 25 -27 11 7 53 -92 45 -106 -5 -7 -4 -10 2 -6 6 4 14 0 17 -9 3 -8 2
-12 -3 -9 -5 3 -12 1 -16 -5 -3 -5 2 -10 12 -10 13 0 29 -20 51 -66 18 -36 27
-62 21 -58 -9 5 -10 2 -6 -10 4 -10 7 -20 7 -22 0 -2 6 -4 14 -4 18 0 69 -87
60 -102 -4 -6 -3 -8 3 -5 5 3 27 -24 49 -60 46 -79 50 -88 35 -79 -6 4 -11 2
-11 -4 0 -7 6 -10 13 -7 6 2 25 -7 40 -19 16 -13 37 -24 47 -24 53 0 98 48 87
92 -4 13 -41 82 -83 153 -42 72 -99 175 -125 229 l-49 99 5 136 c3 75 14 191
25 259 20 124 75 365 90 391 4 7 58 26 121 42 149 38 435 135 574 194 61 26
118 48 127 48 9 1 15 3 13 6 -6 6 217 115 232 114 7 0 11 3 8 7 -3 4 2 11 10
14 52 19 289 181 395 268 49 41 186 175 253 248 43 47 83 84 88 82 6 -1 8 2 4
8 -3 5 9 29 28 53 71 87 163 236 228 366 36 74 68 128 71 121 2 -7 4 15 3 48
0 44 -5 65 -19 81 -10 11 -21 20 -25 19 -3 -1 -14 2 -24 7 -29 12 -380 -2
-497 -20 -58 -9 -166 -32 -240 -52 -74 -20 -145 -36 -157 -37 -11 0 -19 -4
-18 -7 2 -3 -33 -20 -78 -38 -115 -46 -256 -123 -363 -196 -71 -49 -97 -62
-118 -58 -22 4 -25 2 -20 -12 5 -13 9 -14 15 -4 4 8 10 11 13 8 9 -9 -167
-164 -184 -162 -8 1 -10 0 -3 -3 7 -3 -22 -45 -74 -107 -47 -56 -101 -126
-121 -154 -19 -29 -39 -50 -45 -46 -6 3 -7 1 -3 -6 4 -6 -3 -25 -15 -43 -12
-17 -48 -75 -79 -129 -31 -54 -61 -95 -65 -91 -5 4 -5 2 -1 -5 8 -14 -64 -164
-76 -157 -4 3 -5 -2 -2 -10 3 -8 -3 -31 -14 -53 -59 -118 -142 -391 -180 -591
-17 -93 -29 -136 -34 -125 -4 10 -6 -2 -3 -27 l5 -45 -15 40 c-18 48 -78 264
-99 356 -56 247 -96 640 -70 703 5 14 4 17 -5 12 -26 -16 -1 360 40 604 38
226 139 587 161 573 6 -3 8 -1 5 5 -4 5 -4 17 -1 26 5 12 14 6 40 -28 18 -24
52 -60 76 -81 24 -20 37 -34 31 -30 -7 3 -13 1 -13 -5 0 -7 7 -9 16 -6 18 7
76 -23 68 -36 -3 -4 1 -5 9 -2 8 3 21 -2 30 -10 8 -8 16 -13 18 -11 2 2 29 -3
59 -11 63 -16 174 -18 251 -4 51 9 91 27 254 114 72 38 99 44 301 66 120 13
188 37 270 96 34 24 65 40 70 36 5 -4 6 -3 2 2 -4 4 12 31 34 60 53 66 93 150
114 241 l17 71 111 1 c133 0 205 21 308 90 87 57 148 127 203 233 53 104 107
167 189 222 187 127 285 312 273 518 -3 66 -15 117 -51 225 -69 207 -68 281 5
453 60 141 72 200 67 317 -8 163 -60 277 -179 397 -92 92 -214 151 -357 175
-95 16 -103 19 -97 38 87 280 68 480 -63 672 -22 32 -49 66 -60 76 -11 11 -19
24 -18 30 2 7 1 9 -1 5 -3 -5 -23 7 -46 25 -57 46 -134 91 -180 106 -20 7 -35
16 -32 20 2 5 -8 6 -23 4 -24 -3 -25 -2 -7 7 17 9 16 10 -7 5 -15 -3 -48 -1
-73 5 -25 6 -92 15 -148 21 -119 12 -210 35 -201 51 4 7 2 8 -5 4 -19 -12 -91
36 -192 129 -52 47 -120 103 -151 124 -32 21 -55 41 -50 46 4 5 2 5 -5 2 -6
-4 -19 -4 -28 -1 -13 6 -14 9 -3 16 9 6 6 7 -8 3 -12 -3 -39 1 -60 9 -86 33
-228 44 -334 26z m318 -205 c45 -20 59 -31 50 -37 -9 -6 -6 -7 8 -3 16 4 41
-12 109 -72 48 -43 112 -98 141 -122 30 -25 54 -52 54 -60 0 -11 3 -12 8 -4 5
9 24 4 67 -17 77 -38 158 -58 259 -66 99 -7 228 -32 221 -44 -3 -4 4 -6 15 -3
15 4 20 0 20 -13 0 -14 3 -15 8 -6 10 14 42 6 42 -11 0 -6 3 -8 6 -4 10 9 85
-46 128 -93 44 -49 101 -164 90 -181 -4 -7 -3 -9 3 -6 15 10 27 -63 13 -77 -8
-8 -9 -6 -4 9 5 16 4 18 -6 8 -10 -9 -9 -16 3 -33 11 -15 16 -18 20 -8 3 7 6
-9 6 -35 1 -27 -2 -46 -6 -44 -5 3 -8 -22 -9 -55 0 -33 -5 -63 -10 -66 -5 -4
-10 -19 -11 -34 -1 -28 -57 -158 -68 -158 -3 0 -3 5 1 12 4 7 3 8 -4 4 -6 -4
-9 -13 -6 -20 8 -20 -100 -131 -116 -121 -8 5 -11 4 -6 -3 3 -6 2 -13 -4 -17
-5 -3 -10 -2 -10 3 0 5 -7 9 -15 9 -18 0 -20 -14 -3 -19 7 -3 -21 -27 -62 -55
-115 -76 -168 -105 -181 -97 -7 4 -9 3 -5 -4 9 -15 -270 -171 -295 -165 -24 7
-25 30 -1 36 13 4 11 5 -5 6 -27 1 -32 -33 -7 -47 12 -7 -2 -18 -66 -51 -45
-24 -84 -41 -87 -38 -2 3 -12 -2 -22 -12 -9 -9 -55 -34 -103 -55 l-86 -38 -34
38 c-52 60 -88 92 -155 138 -35 24 -60 45 -57 48 3 3 0 9 -7 14 -8 4 -10 3 -5
-4 4 -7 2 -12 -3 -12 -6 0 -11 4 -11 8 0 5 -6 9 -12 10 -7 0 -44 11 -83 23
-56 18 -96 22 -196 23 l-126 1 -16 37 c-36 82 -132 437 -162 598 -8 47 -21
112 -28 145 -6 33 -12 128 -11 210 0 135 3 158 27 230 54 162 179 300 339 375
107 50 161 60 288 56 99 -3 124 -7 178 -31z m-1290 -230 c29 -9 50 -21 47 -26
-4 -5 0 -6 8 -3 23 9 266 -114 252 -128 -13 -13 -25 -131 -26 -248 0 -132 16
-261 58 -448 13 -62 22 -120 19 -128 -4 -10 -2 -12 6 -8 7 5 9 -1 6 -19 -3
-15 -2 -24 2 -22 9 6 32 -94 23 -107 -3 -6 -2 -8 4 -5 5 3 21 -34 36 -86 16
-55 23 -93 17 -95 -6 -2 -7 -8 -4 -13 3 -6 0 -17 -7 -25 -10 -12 -9 -13 4 -8
8 3 17 0 20 -8 2 -7 2 1 1 17 -2 17 5 5 17 -30 19 -56 19 -61 2 -72 -23 -18
-38 -16 -23 2 7 8 16 12 21 9 5 -3 9 -1 9 5 0 20 -19 21 -30 1 -6 -11 -16 -18
-22 -14 -6 4 -8 -1 -4 -13 4 -14 -2 -23 -25 -37 -69 -41 -172 -164 -211 -254
-26 -59 -58 -177 -58 -218 0 -31 0 -31 -97 -52 -54 -12 -165 -38 -248 -57
-325 -78 -625 -131 -625 -111 0 6 -4 5 -9 -3 -11 -18 -175 -8 -265 15 -94 24
-187 65 -179 78 3 6 3 8 -2 4 -11 -10 -73 25 -122 69 -103 94 -153 204 -153
337 0 81 25 181 42 170 7 -4 8 -3 4 5 -9 14 22 66 82 141 25 30 61 89 81 130
l36 75 1 165 c2 223 28 306 127 397 57 53 102 75 246 124 117 39 216 96 273
156 14 15 51 66 80 113 97 155 122 179 235 226 53 23 68 24 178 20 75 -2 140
-10 173 -21z m2760 -1161 c98 -20 183 -65 248 -131 57 -57 109 -152 101 -183
-3 -11 -2 -18 3 -15 10 6 20 -46 20 -109 -1 -71 -15 -127 -56 -215 -20 -42
-44 -107 -54 -146 -11 -44 -19 -62 -22 -50 -3 11 -5 -23 -4 -76 1 -54 4 -95 9
-92 4 2 8 -11 9 -29 3 -56 4 -63 10 -73 23 -37 58 -153 53 -175 -4 -17 -3 -20
3 -12 23 34 37 -127 19 -204 -15 -65 -62 -158 -76 -149 -5 2 -8 -3 -7 -12 2
-24 -143 -133 -169 -128 -11 3 -15 2 -8 -1 13 -6 -64 -81 -79 -76 -5 1 -7 -1
-4 -6 3 -5 -5 -24 -18 -43 -13 -19 -43 -71 -66 -117 -49 -94 -115 -176 -137
-168 -8 3 -12 2 -9 -3 9 -14 -16 -29 -79 -51 -66 -23 -158 -26 -236 -8 -65 15
-195 80 -192 96 2 6 -4 9 -13 5 -18 -7 -307 284 -297 300 3 5 1 7 -4 4 -14 -9
-47 29 -37 44 4 7 3 10 -3 6 -6 -4 -32 17 -60 46 -162 172 -261 285 -255 292
4 5 2 5 -5 1 -14 -8 -45 33 -36 47 3 6 2 7 -4 4 -5 -4 -23 7 -38 23 l-28 30
49 52 c157 166 214 361 169 573 -19 88 -19 88 5 82 11 -3 18 -2 16 2 -3 4 52
35 122 70 423 209 765 417 902 548 64 62 66 62 123 63 32 0 93 -7 135 -16z
m-1846 -415 c76 -16 161 -56 152 -70 -4 -8 -3 -9 4 -5 8 4 12 0 12 -11 0 -14
2 -15 9 -4 7 10 18 5 51 -25 50 -45 115 -137 100 -142 -5 -2 -10 -11 -10 -19
0 -13 3 -13 15 -3 18 15 20 0 3 -19 -11 -11 -10 -13 3 -8 19 6 35 -36 45 -123
10 -86 -35 -271 -58 -238 -6 9 -7 7 -3 -8 4 -16 -5 -35 -33 -70 -54 -68 -75
-84 -100 -79 -12 2 -22 -1 -22 -7 0 -5 8 -7 18 -4 9 3 4 -5 -12 -18 -16 -14
-64 -36 -107 -50 -135 -45 -297 -33 -422 31 -54 27 -140 101 -132 113 3 5 0
12 -6 16 -8 4 -9 3 -5 -4 4 -7 5 -12 2 -12 -13 0 -57 80 -50 91 4 7 3 10 -3 6
-21 -13 -52 104 -53 198 0 174 99 341 248 415 109 55 240 73 354 49z m-665
-827 c21 -31 37 -60 35 -65 -1 -5 1 -6 6 -3 5 3 20 -6 33 -20 62 -67 217 -151
323 -175 50 -11 57 -15 52 -33 -5 -19 -4 -20 8 -3 7 9 21 17 31 17 16 0 17 -8
11 -97 -10 -144 -63 -491 -99 -648 -15 -62 -40 -151 -45 -160 -4 -5 -8 -18 -9
-28 -7 -45 -68 -180 -104 -233 -44 -62 -58 -76 -71 -68 -4 3 -6 -1 -3 -8 6
-17 -80 -82 -96 -72 -7 4 -9 3 -5 -4 13 -22 -84 -47 -179 -46 -85 0 -97 3
-198 47 -60 26 -116 47 -124 47 -8 0 -12 4 -8 9 3 5 0 13 -6 17 -7 4 -10 3 -6
-2 3 -5 -57 -8 -146 -5 -84 1 -153 7 -155 11 -2 4 -11 6 -21 3 -42 -11 -203
109 -185 138 4 7 3 9 -3 6 -14 -9 -48 67 -76 174 -31 114 -66 193 -112 247
-19 22 -31 43 -27 47 4 3 2 5 -3 4 -14 -5 -136 87 -127 95 3 4 0 5 -8 2 -21
-8 -156 66 -152 83 2 8 -3 11 -12 8 -22 -9 -87 68 -127 148 -33 67 -34 73 -34
185 1 96 5 125 24 173 24 60 99 178 149 234 l29 32 99 -20 c83 -18 122 -20
244 -16 157 6 203 14 687 126 145 34 267 61 272 61 6 0 8 -9 6 -19 -4 -19 17
-23 32 -6 4 4 2 5 -4 1 -15 -8 -16 -5 -7 19 4 10 17 -12 39 -66 18 -44 50
-106 72 -137z m919 -302 c38 -44 69 -85 69 -90 0 -6 3 -9 6 -7 9 3 39 -24 39
-35 0 -6 -6 -6 -14 1 -10 9 -16 9 -21 1 -4 -6 -4 -14 -1 -17 3 -4 6 -1 6 6 0
7 5 9 10 6 6 -4 7 -12 4 -18 -4 -7 -4 -9 1 -5 4 4 15 2 24 -5 14 -11 15 -10 1
7 -32 41 9 8 58 -47 29 -32 50 -63 46 -69 -4 -6 -3 -8 3 -5 5 3 26 -11 46 -31
26 -27 35 -44 32 -60 -2 -13 0 -20 6 -17 5 4 6 12 3 18 -4 7 18 -12 49 -42 51
-50 55 -56 39 -68 -16 -13 -15 -14 4 -10 17 3 38 -12 88 -62 37 -37 64 -70 61
-74 -3 -4 -2 -5 1 -2 4 2 23 -13 43 -33 21 -20 57 -55 82 -76 24 -22 47 -47
51 -55 4 -11 7 -12 7 -3 1 7 6 10 11 7 6 -4 7 -11 4 -17 -4 -6 -2 -8 4 -4 6 3
31 -6 56 -21 40 -24 44 -30 39 -58 -20 -119 -69 -222 -130 -276 -69 -60 -190
-99 -311 -99 -24 0 -78 -8 -120 -17 -42 -9 -87 -17 -99 -17 -12 -1 -20 -3 -17
-5 8 -9 -204 -121 -250 -132 -106 -25 -252 14 -340 91 -42 37 -96 112 -96 133
0 7 14 39 30 70 85 157 183 594 220 982 19 199 8 177 103 207 45 15 82 27 83
27 0 1 31 -35 70 -79z m-2523 -1621 c65 -8 100 -16 104 -25 3 -8 11 -14 18
-14 7 0 16 -7 19 -16 4 -9 9 -15 11 -12 10 10 -7 38 -23 38 -8 0 -13 2 -10 5
8 8 68 -7 63 -16 -3 -4 0 -11 6 -15 8 -5 9 -3 5 5 -14 21 72 0 207 -51 23 -9
25 -13 15 -26 -12 -13 -11 -14 8 -2 19 12 33 7 127 -43 146 -77 325 -216 310
-240 -3 -6 -1 -7 4 -4 6 4 26 -10 44 -31 65 -73 89 -102 89 -105 0 -2 25 -41
55 -87 54 -82 66 -108 43 -94 -7 4 -8 3 -4 -5 4 -6 11 -9 16 -6 5 3 54 -85
109 -195 108 -215 107 -207 28 -193 -21 3 -34 9 -27 13 6 4 -9 7 -32 7 -59 0
-160 22 -153 34 3 5 -1 6 -9 3 -25 -10 -230 62 -221 77 4 5 -1 6 -9 3 -19 -7
-187 77 -179 89 3 6 1 7 -5 3 -16 -10 -54 12 -46 26 4 7 3 8 -4 4 -15 -9 -123
63 -115 77 3 5 2 7 -4 4 -14 -9 -95 52 -86 65 4 7 1 8 -7 3 -21 -13 -215 194
-294 313 -76 115 -170 306 -162 329 3 7 2 12 -2 9 -5 -3 -16 15 -25 40 -9 25
-12 42 -7 39 6 -3 10 -2 10 3 0 6 8 9 18 7 9 -2 61 -9 115 -16z m4071 -141
c-77 -148 -228 -363 -247 -351 -5 3 -7 1 -4 -4 8 -13 -31 -65 -43 -58 -5 3
-12 0 -16 -6 -5 -8 -2 -10 7 -5 8 4 4 -1 -8 -12 -13 -11 -23 -24 -23 -29 0
-16 -66 -74 -75 -66 -4 5 -5 3 -2 -3 7 -12 -91 -101 -106 -96 -5 1 -6 -2 -3
-7 7 -11 -164 -141 -296 -223 -91 -58 -115 -69 -102 -45 4 7 3 9 -2 4 -5 -5
-9 -14 -9 -20 0 -40 -742 -342 -792 -323 -8 3 -12 2 -9 -3 3 -5 -21 -15 -54
-24 -33 -8 -60 -13 -60 -11 0 15 102 232 151 319 54 98 192 312 209 325 3 3
19 22 34 42 16 21 33 35 39 31 6 -3 7 -1 3 5 -10 17 232 255 251 248 8 -3 12
-2 9 3 -13 20 283 199 305 185 7 -4 9 -3 6 3 -10 16 181 88 336 128 141 36
312 60 455 64 l84 2 -38 -73z"/>
<path d="M5344 7736 c-18 -8 -35 -19 -38 -25 -4 -6 -13 -8 -19 -5 -7 4 -9 4
-5 0 3 -4 0 -23 -8 -41 -8 -19 -14 -60 -14 -91 0 -50 3 -59 34 -90 60 -60 155
-43 195 34 33 65 36 104 10 158 -12 27 -22 51 -21 54 0 3 -7 6 -16 7 -9 1 -33
4 -52 7 -21 4 -47 1 -66 -8z"/>
<path d="M5874 7471 c-62 -38 -101 -114 -91 -178 6 -33 5 -34 -9 -17 -13 16
-12 14 1 -13 8 -18 18 -33 21 -33 3 0 2 5 -1 10 -4 6 10 -1 31 -15 45 -30 82
-32 134 -5 72 37 113 125 90 194 -23 72 -107 99 -176 57z"/>
<path d="M4253 7487 c18 -15 18 -16 0 -29 -22 -16 -43 -61 -43 -92 0 -12 11
-44 25 -71 19 -39 22 -52 13 -64 -10 -13 -9 -14 0 -5 9 8 26 4 61 -13 62 -31
112 -24 159 23 26 26 32 40 32 73 0 23 -7 55 -15 70 -8 16 -12 31 -10 35 3 3
2 4 -1 1 -4 -2 -22 9 -40 25 -37 32 -96 52 -130 44 -12 -3 -33 -1 -46 6 -21
10 -21 10 -5 -3z"/>
<path d="M3959 6963 c-54 -33 -73 -100 -45 -156 8 -15 13 -36 11 -47 -3 -17 1
-20 23 -18 15 1 37 -4 49 -10 30 -17 108 -15 143 3 60 31 76 106 35 166 -13
20 -21 40 -17 44 4 5 2 5 -4 2 -6 -4 -28 3 -50 13 -46 24 -110 25 -145 3z"/>
<path d="M6263 6629 c-5 -5 -25 -10 -45 -11 -20 -2 -35 -5 -32 -7 2 -2 -8 -12
-22 -23 -43 -35 -58 -74 -44 -123 7 -24 20 -46 29 -49 9 -4 30 -14 46 -24 39
-22 124 -22 159 1 15 10 31 15 37 12 5 -4 8 -3 7 2 -1 4 6 22 15 40 9 18 17
44 17 59 0 36 -38 91 -70 102 -72 25 -89 29 -97 21z"/>
<path d="M6014 6095 c-52 -36 -57 -130 -10 -204 15 -24 23 -40 17 -37 -6 4
-11 2 -11 -4 0 -7 7 -10 15 -6 8 3 30 -1 49 -9 45 -19 89 -19 125 0 16 8 32
11 36 7 3 -4 6 -2 4 3 -1 6 3 24 10 40 27 62 -25 167 -100 206 -45 23 -106 25
-135 4z"/>
<path d="M4158 6026 c-26 -14 -54 -26 -63 -26 -8 0 -15 -4 -15 -10 0 -5 6 -8
13 -6 6 1 9 1 4 -2 -13 -7 -37 -73 -37 -103 0 -44 52 -97 103 -104 52 -8 92 6
135 48 69 66 82 135 34 188 -40 45 -108 51 -174 15z"/>
<path d="M4614 5690 c-30 -12 -80 -73 -94 -115 -7 -20 -9 -53 -6 -73 3 -20 7
-42 8 -49 1 -7 4 -11 7 -9 7 3 41 -31 36 -36 -2 -2 18 -4 44 -6 87 -5 161 73
161 171 0 98 -71 152 -156 117z"/>
</g>
</svg>
