<?xml version="1.0" standalone="no"?>
<!DOCTYPE svg PUBLIC "-//W3C//DTD SVG 20010904//EN"
 "http://www.w3.org/TR/2001/REC-SVG-20010904/DTD/svg10.dtd">
<svg version="1.0" xmlns="http://www.w3.org/2000/svg"
 width="1024.000000pt" height="1024.000000pt" viewBox="0 0 1024.000000 1024.000000"
 preserveAspectRatio="xMidYMid meet">
<metadata>
Created by potrace 1.16, written by Peter Selinger 2001-2019
</metadata>
<g transform="translate(0.000000,1024.000000) scale(0.100000,-0.100000)"
fill="#000000" stroke="none">
<path d="M3144 9092 c-18 -11 -35 -25 -39 -31 -3 -6 -10 -9 -15 -6 -4 3 -7 -1
-7 -8 1 -6 -26 -66 -59 -132 -33 -66 -75 -155 -93 -197 -19 -43 -37 -78 -41
-78 -4 0 -7 -6 -7 -12 0 -7 -54 -134 -120 -283 -66 -148 -135 -307 -153 -352
-19 -45 -36 -80 -39 -78 -3 1 -7 -7 -7 -18 -1 -12 -22 -81 -47 -154 -26 -72
-56 -175 -69 -227 -12 -53 -27 -96 -31 -96 -5 0 -6 7 -3 16 3 8 2 12 -3 9 -6
-3 -9 -14 -8 -25 1 -10 5 -16 9 -14 4 3 8 -7 8 -21 0 -14 -3 -24 -7 -22 -10 6
-18 -130 -18 -318 0 -174 7 -315 16 -315 4 0 9 -15 12 -32 3 -18 9 -48 13 -67
5 -25 4 -32 -4 -27 -8 5 -10 2 -6 -9 4 -9 9 -13 12 -10 8 7 52 -116 46 -127
-3 -4 0 -8 6 -8 7 0 10 -7 6 -15 -3 -8 -1 -15 5 -15 6 0 8 -7 5 -16 -3 -8 -2
-13 2 -10 5 3 21 -21 36 -52 39 -81 113 -199 159 -255 31 -37 37 -50 28 -61
-9 -10 -9 -16 -1 -21 6 -4 9 -3 8 2 -2 4 2 8 7 8 6 0 9 -4 7 -8 -1 -5 1 -6 6
-3 12 7 144 -128 135 -138 -4 -5 -1 -7 7 -4 8 3 41 -17 73 -44 152 -126 377
-242 600 -308 54 -16 103 -33 109 -36 11 -7 8 -47 -13 -196 -6 -43 -14 -76
-18 -74 -3 2 -6 -15 -6 -37 l0 -42 -90 -22 c-49 -12 -96 -20 -103 -18 -7 3
-11 1 -8 -3 3 -5 -23 -22 -57 -39 -235 -116 -294 -359 -128 -521 21 -20 61
-49 89 -63 28 -15 48 -30 44 -33 -3 -4 2 -4 12 0 15 6 17 4 11 -6 -5 -9 -4
-11 4 -6 14 9 61 -1 61 -12 0 -9 -67 -37 -90 -37 -8 0 -15 -5 -15 -12 0 -14
-79 -75 -89 -68 -3 3 -4 2 -2 -1 3 -3 -11 -26 -30 -51 -55 -72 -67 -103 -72
-184 -4 -61 -1 -84 16 -122 12 -27 17 -49 11 -52 -5 -4 -9 -11 -9 -18 0 -8 3
-8 12 1 9 9 20 3 49 -23 21 -19 68 -48 104 -64 75 -34 73 -26 48 -183 -14 -87
-19 -105 -32 -101 -13 4 -13 3 -2 -5 17 -12 7 -81 -21 -135 -24 -49 -97 -120
-115 -113 -8 3 -12 2 -8 -3 7 -13 -80 -45 -96 -36 -7 5 -10 4 -5 -3 15 -25
-291 -72 -504 -77 -159 -4 -238 -11 -256 -23 -23 -16 -44 -58 -44 -89 0 -63
35 -85 238 -152 100 -33 198 -63 217 -67 19 -3 35 -10 35 -14 0 -4 6 -7 13 -7
6 1 32 -2 56 -7 32 -6 40 -11 30 -18 -10 -7 -8 -8 8 -3 12 3 46 -1 75 -9 220
-62 789 -160 1065 -182 45 -4 80 -11 77 -15 -3 -5 0 -9 5 -9 6 0 11 3 11 8 0
4 36 7 79 7 94 0 130 20 145 77 12 49 -15 95 -77 129 -26 14 -44 29 -40 34 5
4 3 5 -3 2 -15 -9 -317 136 -453 216 -106 63 -229 177 -215 199 4 6 3 8 -3 5
-13 -8 -31 35 -36 86 -4 39 15 162 27 174 3 4 22 -1 40 -10 46 -21 129 -35
260 -42 60 -3 112 -8 116 -10 4 -3 10 -18 12 -34 2 -17 1 -28 -4 -25 -11 7
-10 -8 2 -26 5 -8 10 -10 10 -5 1 11 29 -35 30 -48 0 -5 -5 -5 -12 -1 -7 5 -8
3 -4 -5 5 -7 10 -10 13 -7 3 3 19 -11 35 -32 43 -54 107 -95 190 -123 40 -13
75 -27 76 -32 2 -4 7 -5 12 -2 4 3 79 1 166 -5 88 -5 261 -11 385 -14 124 -3
235 -9 247 -13 25 -10 245 -240 235 -246 -5 -2 -3 -2 4 -1 6 2 17 -4 25 -13 7
-9 54 -53 103 -97 50 -44 89 -84 87 -89 -1 -5 2 -6 7 -3 5 3 25 -7 45 -23 20
-16 59 -44 86 -61 28 -18 50 -34 50 -37 0 -2 -6 -1 -12 3 -8 4 -9 3 -5 -2 5
-5 14 -9 20 -9 7 0 77 -33 157 -72 80 -39 188 -86 240 -103 106 -35 275 -80
303 -80 9 0 17 -5 17 -11 0 -5 4 -8 9 -4 28 17 601 -101 609 -125 2 -6 8 -7
13 -4 25 15 377 -151 372 -175 -2 -6 5 -7 14 -4 11 4 14 3 9 -5 -5 -8 -1 -10
10 -5 13 5 15 3 9 -7 -5 -9 -4 -11 3 -6 18 11 310 -193 305 -213 -1 -4 8 -8
20 -9 70 -5 83 -2 105 23 45 53 24 96 -87 184 -171 134 -353 248 -504 315 -50
22 -84 43 -80 49 3 6 1 7 -5 3 -18 -11 -125 26 -110 37 9 6 7 7 -5 3 -11 -3
-56 5 -100 19 -45 13 -149 36 -232 50 -82 15 -211 37 -286 51 -75 13 -140 24
-143 24 -4 0 -5 3 -3 8 3 4 -11 8 -32 9 -97 5 -399 132 -558 236 -148 97 -313
246 -478 432 -93 104 -272 297 -288 310 -7 6 -42 37 -77 69 -36 33 -86 75
-113 94 -26 19 -44 39 -40 44 3 7 1 8 -5 4 -6 -4 -37 13 -69 37 -71 54 -241
165 -425 277 -75 46 -134 88 -131 93 3 6 1 7 -5 3 -14 -8 -144 97 -213 172
-73 79 -117 156 -124 217 -6 43 -3 55 17 85 14 19 32 34 41 34 9 -1 15 2 12 6
-7 12 33 20 101 20 54 0 121 -15 179 -40 11 -5 43 -19 72 -30 40 -17 51 -26
48 -41 -2 -11 0 -17 6 -14 5 4 7 11 4 16 -4 5 -2 9 4 9 24 0 540 -254 534
-263 -4 -6 -1 -7 7 -2 16 10 151 -55 143 -68 -3 -6 -1 -7 4 -4 14 9 75 -12 68
-23 -3 -5 0 -12 6 -16 8 -4 9 -3 5 4 -11 18 -7 16 117 -44 91 -44 115 -59 110
-72 -4 -14 -3 -14 5 -3 9 13 16 12 51 -4 22 -10 38 -22 34 -28 -3 -6 -1 -7 5
-3 7 4 47 -9 89 -29 43 -20 95 -44 115 -52 21 -8 35 -19 32 -24 -3 -5 3 -6 12
-2 13 5 15 3 9 -7 -5 -9 -4 -11 4 -6 6 4 64 -13 129 -38 184 -72 248 -89 274
-75 36 18 58 51 58 89 0 29 -9 42 -57 88 -32 30 -57 58 -55 64 1 5 -2 7 -7 4
-5 -3 -31 20 -58 51 -26 32 -64 75 -84 98 -19 22 -84 99 -144 170 -137 163
-243 274 -318 332 -31 24 -55 48 -52 53 3 5 0 12 -6 16 -8 4 -9 3 -5 -4 4 -7
2 -12 -3 -12 -6 0 -11 4 -11 10 0 5 -3 9 -7 8 -5 -2 -24 7 -43 19 -56 34 -180
71 -287 84 -81 9 -142 8 -347 -5 -137 -9 -330 -19 -430 -22 -99 -3 -182 -7
-185 -10 -2 -2 -25 -4 -50 -4 -86 0 -167 -30 -256 -95 -20 -14 -20 -12 5 170
15 102 31 190 36 195 5 5 106 28 224 50 118 22 318 61 443 86 126 25 235 43
243 40 8 -3 13 -2 10 2 -4 7 77 26 493 113 248 52 373 56 490 18 90 -30 227
-112 216 -129 -3 -5 0 -12 6 -16 8 -5 10 -2 5 7 -4 8 0 5 8 -5 9 -11 16 -16
16 -11 0 5 29 -19 65 -55 35 -35 61 -68 58 -73 -3 -6 -1 -7 4 -4 13 8 245
-231 237 -244 -3 -5 0 -8 8 -7 7 2 12 -3 10 -10 -1 -8 2 -11 7 -8 11 7 136
-127 136 -146 0 -7 5 -13 11 -13 6 0 118 -112 249 -250 296 -310 582 -595 691
-687 46 -38 82 -74 81 -80 -1 -6 5 -13 13 -15 13 -4 13 -3 0 6 -8 6 -12 11 -7
11 4 0 54 -35 110 -78 56 -44 133 -98 170 -121 38 -25 64 -47 60 -53 -3 -7 -1
-8 5 -4 17 10 156 -75 140 -86 -9 -6 -7 -8 7 -4 19 5 161 -65 151 -75 -2 -2 5
-4 17 -5 12 -1 90 -33 172 -72 83 -38 180 -80 218 -93 l67 -23 28 21 c35 26
49 64 36 100 -7 22 -29 38 -103 74 -51 26 -87 49 -80 51 8 3 0 5 -16 5 -70 0
-600 283 -578 308 5 4 2 5 -5 1 -7 -4 -27 3 -45 15 -99 68 -225 164 -322 245
-125 105 -531 509 -527 525 1 6 -1 8 -5 6 -9 -6 -36 20 -209 207 -65 71 -118
133 -116 138 1 5 -2 7 -7 4 -5 -4 -13 0 -18 8 -4 7 -83 92 -174 187 -91 96
-187 199 -215 229 -27 30 -62 66 -79 80 -16 14 -63 56 -105 94 -71 65 -241
186 -262 186 -5 0 -6 5 -2 12 4 6 3 8 -3 5 -13 -8 -103 22 -103 35 0 5 -4 6
-10 3 -5 -3 -45 -1 -87 5 -108 16 -264 0 -488 -50 -292 -66 -376 -82 -391 -76
-8 3 -13 2 -10 -2 2 -4 -196 -48 -442 -97 -246 -49 -454 -90 -463 -92 -14 -4
-15 4 -8 59 15 127 29 192 42 205 10 10 48 14 143 15 395 1 774 133 1063 372
30 25 59 42 64 39 6 -3 7 -2 4 4 -3 5 14 30 40 54 117 113 258 306 330 454 15
30 29 52 32 50 3 -2 7 7 7 18 1 12 20 73 42 134 77 210 107 373 118 643 6 140
-6 409 -27 595 -56 505 -121 891 -155 925 -12 13 -61 28 -134 44 -63 14 -224
50 -356 80 -607 137 -1259 232 -1729 251 -139 6 -152 5 -181 -13z m366 -177
c255 -22 696 -81 870 -115 25 -5 102 -19 172 -31 113 -20 126 -24 116 -38 -10
-13 -10 -14 2 -3 8 6 21 12 30 12 32 1 389 -84 385 -91 -3 -4 3 -5 12 -3 15 4
301 -60 308 -68 10 -13 78 -456 105 -683 24 -206 45 -604 36 -700 -7 -75 -14
-85 -62 -85 -17 0 -78 -15 -135 -34 -144 -48 -222 -60 -353 -53 -124 5 -308
43 -285 58 10 7 6 8 -11 4 -28 -7 -71 8 -375 128 -104 41 -216 83 -247 93 -32
9 -54 22 -51 27 3 6 1 7 -5 3 -6 -3 -71 9 -144 28 -197 51 -342 69 -558 69
-212 0 -315 -12 -442 -54 -49 -16 -95 -26 -100 -22 -6 3 -8 1 -4 -5 8 -13 -29
-26 -45 -16 -8 4 -9 3 -5 -4 4 -7 -7 -18 -26 -28 -18 -9 -55 -35 -82 -57 -37
-32 -47 -36 -44 -21 2 10 8 19 15 19 6 0 15 3 19 8 4 4 0 7 -10 7 -15 0 -16 7
-10 48 12 88 72 307 119 437 87 241 313 748 328 738 6 -3 7 -1 3 5 -6 11 61
165 144 332 28 56 43 76 59 77 12 1 19 -2 16 -8 -4 -5 -2 -9 4 -9 5 0 9 9 8
20 -1 23 -8 25 -25 8 -8 -8 -12 -9 -12 -1 0 27 55 28 280 8z m-5 -1669 c161
-19 299 -46 430 -85 177 -53 176 -52 162 -70 -10 -14 -10 -14 5 -3 14 11 23
11 53 1 19 -7 35 -19 35 -26 0 -7 5 -13 11 -13 5 0 7 5 3 12 -5 7 -2 9 7 6 8
-3 88 -36 179 -73 264 -107 408 -143 595 -152 140 -7 264 8 375 43 60 19 84
22 104 14 14 -5 26 -7 26 -5 0 16 -5 20 -24 18 -13 -2 -9 3 13 13 18 8 35 13
38 11 2 -2 -3 -40 -12 -83 -29 -147 -117 -390 -136 -378 -5 3 -6 -2 -3 -10 7
-17 -54 -136 -73 -143 -7 -3 -11 -9 -8 -13 15 -24 -246 -326 -273 -315 -7 2
-11 1 -8 -4 11 -17 -107 -107 -125 -95 -8 4 -9 3 -5 -4 9 -15 -69 -66 -85 -56
-8 4 -9 3 -5 -5 9 -13 -132 -84 -152 -76 -7 3 -10 0 -7 -5 3 -6 4 -10 2 -10
-2 0 -48 -16 -102 -35 -296 -104 -665 -105 -970 -2 -171 58 -393 175 -378 199
3 7 1 8 -5 4 -15 -9 -124 73 -115 87 3 5 1 7 -4 4 -28 -17 -235 217 -308 348
-47 84 -103 216 -107 252 -2 16 -6 30 -10 33 -15 11 -39 157 -40 235 0 98 14
137 79 206 50 53 136 105 155 93 7 -4 8 -3 4 4 -12 20 178 69 309 80 153 14
241 13 370 -2z m100 -2330 c12 -11 11 -32 -2 -132 -17 -134 -31 -186 -53 -191
-12 -4 -12 -3 -2 5 11 7 11 10 -2 15 -10 4 -16 1 -16 -8 0 -8 -7 -15 -16 -15
-8 0 -13 4 -10 9 3 4 -6 6 -19 3 -21 -4 -24 -1 -19 14 5 16 4 16 -5 4 -9 -13
-15 -13 -46 4 -19 11 -44 34 -55 51 -55 88 10 192 147 235 71 23 81 24 98 6z
m1570 -380 c102 -39 189 -103 302 -219 94 -97 216 -239 277 -320 34 -45 41
-47 -145 39 -276 126 -398 187 -392 197 4 6 1 7 -6 3 -16 -10 -282 114 -274
127 3 6 1 7 -4 4 -15 -9 -214 84 -206 96 3 6 1 7 -5 3 -6 -3 -52 14 -104 40
-51 25 -84 44 -73 43 11 -1 27 1 35 4 23 10 147 14 345 12 170 -1 184 -3 250
-29z m-1434 -271 c36 -85 104 -180 180 -248 53 -48 63 -70 20 -43 -9 6 -12 5
-7 -2 4 -7 -14 -13 -51 -17 -32 -3 -91 -10 -131 -15 -112 -15 -105 -19 -97 48
3 31 15 109 26 172 11 63 20 130 21 148 2 41 5 37 39 -43z m-245 -161 c-29
-185 -42 -204 -108 -145 -27 24 -33 36 -32 68 2 60 32 108 109 171 28 23 41
28 43 19 2 -8 -4 -59 -12 -113z m739 -335 c84 -43 305 -184 305 -194 0 -12
-773 -1 -777 11 -2 6 -14 9 -26 7 -12 -2 -42 7 -67 20 -45 24 -45 24 -45 78
l0 54 40 8 c31 6 386 48 475 56 9 0 52 -18 95 -40z m591 -394 c57 -43 174
-148 174 -156 0 -8 -201 -3 -466 11 -221 13 -284 34 -326 113 -25 47 -23 57
15 56 17 0 26 -3 20 -6 -7 -2 -13 -9 -13 -15 0 -6 8 -4 18 5 19 17 123 23 408
22 129 0 131 0 170 -30z m-1391 -262 c3 -10 5 -18 4 -18 -2 0 27 -35 80 -96
44 -51 167 -132 306 -203 71 -36 100 -55 83 -53 -16 1 -28 5 -28 9 0 4 -8 5
-17 2 -15 -5 -16 -4 -3 5 8 6 10 11 4 11 -5 0 -14 -4 -20 -10 -12 -12 -205 15
-471 66 -100 19 -187 34 -193 34 -6 0 -8 4 -5 10 3 6 -1 7 -9 4 -16 -6 -366
74 -366 83 0 3 15 3 34 0 18 -3 38 -1 43 4 5 5 55 10 110 12 55 1 96 5 91 8
-5 3 19 12 54 19 81 15 159 47 228 93 64 42 66 42 75 20z"/>
</g>
</svg>
