<?xml version="1.0" standalone="no"?>
<!DOCTYPE svg PUBLIC "-//W3C//DTD SVG 20010904//EN"
 "http://www.w3.org/TR/2001/REC-SVG-20010904/DTD/svg10.dtd">
<svg version="1.0" xmlns="http://www.w3.org/2000/svg"
 width="1024.000000pt" height="1024.000000pt" viewBox="0 0 1024.000000 1024.000000"
 preserveAspectRatio="xMidYMid meet">
<metadata>
Created by potrace 1.16, written by Peter Selinger 2001-2019
</metadata>
<g transform="translate(0.000000,1024.000000) scale(0.100000,-0.100000)"
fill="#000000" stroke="none">
<path d="M6158 7705 c-1 -2 -25 -4 -53 -6 -91 -5 -182 -52 -258 -134 -16 -16
-33 -29 -38 -28 -4 2 -6 -4 -3 -11 3 -8 -1 -25 -10 -38 -39 -59 -50 -218 -21
-300 18 -52 18 -58 4 -58 -5 0 -7 5 -3 12 4 7 3 8 -5 4 -17 -11 -2 -28 19 -21
13 4 20 0 25 -13 7 -25 121 -143 129 -135 3 3 11 1 18 -4 49 -38 179 -59 256
-43 142 31 283 161 307 285 35 183 -25 332 -170 424 -54 35 -184 78 -197 66z
m17 -115 c4 -6 10 -8 14 -5 12 7 101 -25 101 -36 0 -5 5 -9 11 -9 19 0 81 -72
75 -87 -3 -8 -2 -12 3 -8 5 3 19 -15 31 -40 22 -45 23 -84 6 -158 -14 -59 -71
-141 -92 -133 -8 3 -11 -1 -7 -10 3 -10 -9 -20 -41 -34 -25 -12 -47 -19 -49
-18 -2 2 -11 -3 -20 -10 -15 -13 -35 -12 -129 4 -35 5 -96 40 -129 73 -45 45
-83 139 -82 201 3 84 51 176 115 216 78 49 179 77 193 54z"/>
<path d="M5595 7410 c2 -4 -10 -7 -28 -7 -58 0 -122 -10 -145 -22 -31 -16 -39
-57 -17 -81 16 -18 27 -19 89 -15 129 9 171 22 181 55 10 31 -23 75 -57 76
-15 0 -25 -3 -23 -6z"/>
<path d="M5201 7351 c-7 -5 -47 -15 -88 -22 -42 -7 -82 -21 -93 -31 -24 -22
-26 -61 -5 -78 33 -27 245 13 265 50 15 28 12 38 -15 65 -26 26 -41 30 -64 16z"/>
<path d="M4790 7245 c-14 -8 -31 -14 -38 -15 -8 0 -28 -6 -45 -14 -18 -7 -47
-19 -65 -26 -41 -16 -52 -52 -26 -81 22 -25 57 -22 154 11 106 37 115 42 116
75 2 57 -43 80 -96 50z"/>
<path d="M6651 7214 c-54 -45 -36 -85 58 -127 25 -11 48 -23 51 -27 14 -21 89
-10 91 13 5 50 -10 68 -84 107 -78 40 -87 46 -80 53 18 18 -9 4 -36 -19z"/>
<path d="M4394 7066 c-34 -19 -65 -33 -68 -30 -3 2 -4 1 -1 -3 3 -3 -9 -15
-26 -25 -25 -15 -30 -24 -27 -50 2 -22 11 -37 28 -46 23 -13 30 -11 109 37 46
28 87 51 91 51 4 0 12 11 18 25 10 21 9 30 -4 50 -22 33 -47 31 -120 -9z"/>
<path d="M6950 7011 c-8 -8 -15 -18 -15 -21 0 -3 -4 -10 -8 -17 -11 -17 12
-51 53 -76 42 -26 56 -37 78 -59 32 -34 80 -15 96 38 4 14 0 27 -14 39 -11 10
-17 22 -14 27 3 4 2 7 -3 6 -11 -3 -53 20 -79 43 -33 30 -76 39 -94 20z"/>
<path d="M4125 6890 c-11 -5 -42 -27 -70 -49 -27 -22 -62 -50 -77 -61 -35 -27
-35 -44 -3 -76 19 -19 31 -23 48 -18 20 6 115 76 158 117 24 22 24 59 1 80
-21 19 -28 20 -57 7z"/>
<path d="M7752 6814 c-70 -15 -158 -38 -162 -43 -11 -15 -103 -60 -111 -55 -5
3 -8 0 -7 -8 2 -7 -3 -12 -10 -10 -8 1 -11 -2 -8 -7 4 -5 -4 -18 -16 -28 -84
-69 -153 -211 -177 -363 -4 -25 -10 -50 -14 -57 -4 -6 -1 -14 5 -16 10 -4 10
-6 0 -6 -9 -1 -10 -6 -3 -18 5 -10 12 -42 15 -72 6 -57 29 -130 54 -169 8 -12
12 -25 9 -28 -3 -4 5 -16 19 -29 13 -12 24 -33 24 -46 0 -17 3 -20 9 -10 5 7
10 9 12 5 14 -32 152 -118 205 -128 16 -3 47 -10 69 -15 22 -5 41 -8 44 -5 2
2 -2 4 -10 5 -8 0 -4 4 9 9 12 5 27 21 34 35 11 24 9 29 -20 57 -23 21 -36 27
-45 20 -15 -12 -119 26 -110 41 3 5 2 7 -4 4 -16 -10 -73 38 -113 95 -93 133
-102 306 -25 473 78 166 216 256 395 254 78 -1 147 -19 143 -37 -2 -6 4 -9 11
-6 19 7 51 -10 113 -63 39 -33 63 -65 93 -126 23 -45 44 -98 47 -117 20 -117
-13 -306 -50 -283 -5 3 -7 1 -3 -5 14 -23 -53 -120 -74 -107 -6 3 -7 -1 -4 -9
3 -9 -2 -17 -15 -21 -12 -3 -21 -11 -21 -16 0 -5 -6 -9 -13 -9 -22 0 -49 -37
-45 -62 3 -21 42 -49 118 -85 24 -11 112 -78 145 -110 79 -77 159 -195 153
-226 -2 -13 2 -29 9 -36 11 -10 13 -8 8 16 l-5 28 11 -30 c6 -16 19 -38 28
-49 9 -10 15 -19 13 -20 -4 -1 3 -21 44 -126 27 -70 49 -139 68 -215 1 -5 10
-36 20 -68 9 -32 19 -81 22 -110 2 -29 9 -65 14 -82 12 -39 15 -105 6 -130 -6
-16 -6 -17 3 -5 9 13 11 12 12 -5 1 -11 3 -29 5 -40 11 -65 25 -279 21 -330
-6 -85 -16 -137 -29 -152 -6 -7 -7 -13 -3 -13 12 0 -37 -74 -72 -107 -21 -21
-40 -30 -51 -27 -13 5 -14 4 -3 -4 26 -19 -112 -77 -208 -87 -64 -7 -82 -23
-79 -68 1 -27 6 -33 25 -35 13 -1 33 -7 45 -13 11 -6 18 -7 14 -1 -3 6 14 13
42 17 72 10 157 42 225 83 l62 38 155 -3 c252 -4 317 7 324 53 2 10 -8 27 -21
37 -19 16 -50 19 -197 25 l-174 7 22 45 c29 62 30 72 30 270 0 157 -6 262 -19
324 -2 11 -6 39 -9 61 -3 22 -10 67 -16 100 -6 33 -13 69 -14 80 -2 11 -6 27
-9 35 -3 8 -9 32 -12 53 -5 36 -14 69 -67 242 -12 39 -41 112 -65 163 -23 51
-42 95 -43 97 0 3 -15 30 -35 60 -19 31 -35 59 -35 63 0 4 -10 19 -23 33 -12
15 -35 44 -52 65 -50 63 -144 147 -187 167 -16 6 -28 15 -28 19 0 5 -8 8 -17
9 -15 0 -15 2 2 9 12 4 39 32 62 61 81 107 104 176 108 324 3 94 -1 121 -21
186 -13 42 -35 93 -49 113 -14 20 -25 39 -25 41 0 3 -8 13 -17 23 -10 9 -27
28 -38 42 -19 24 -175 136 -175 126 0 -3 -16 2 -35 10 -45 18 -191 36 -233 28z"/>
<path d="M2280 6797 c-75 -28 -129 -54 -157 -75 -18 -13 -37 -21 -42 -17 -6 3
-9 0 -6 -8 7 -17 -52 -70 -67 -61 -6 4 -8 3 -5 -3 4 -6 -7 -31 -23 -56 -73
-115 -91 -180 -91 -317 1 -130 6 -162 41 -231 18 -37 25 -59 17 -60 -7 0 -4
-3 5 -7 24 -10 79 -83 71 -95 -3 -5 -2 -7 3 -4 6 3 16 2 24 -4 13 -7 12 -9 -2
-9 -10 0 -18 -5 -18 -11 0 -7 -10 -9 -25 -5 -15 4 -25 2 -25 -4 0 -6 6 -8 13
-5 6 4 1 -3 -13 -15 -14 -11 -46 -39 -72 -61 -71 -60 -165 -190 -230 -317 -32
-62 -58 -117 -58 -122 0 -5 -5 -21 -12 -37 -6 -15 -12 -31 -13 -35 -2 -5 -4
-10 -5 -13 -1 -3 -3 -8 -5 -12 -1 -5 -4 -15 -7 -23 -36 -104 -66 -223 -84
-340 -3 -19 -10 -60 -15 -90 -21 -114 -18 -91 -35 -275 -9 -108 -9 -349 0
-409 4 -26 14 -63 22 -81 l14 -33 -186 -4 c-182 -3 -186 -3 -205 -27 -24 -29
-21 -38 15 -65 26 -20 41 -21 249 -21 122 0 224 -3 227 -6 14 -17 100 -63 149
-80 158 -55 251 -53 251 6 0 24 -23 54 -43 56 -7 1 -29 3 -49 5 -48 4 -180 57
-221 89 -51 38 -104 136 -117 217 -13 73 -4 327 15 438 2 14 9 61 15 105 18
128 21 143 44 240 9 33 17 71 20 85 3 14 12 50 21 80 9 30 18 62 20 72 2 9 10
29 18 45 8 15 17 41 21 58 10 40 114 247 140 278 12 14 37 45 56 69 41 53 144
134 218 173 29 15 61 39 72 53 l21 25 -28 29 c-15 15 -30 28 -35 28 -15 0 -68
63 -61 73 3 5 1 7 -4 4 -20 -13 -70 69 -93 153 -25 89 -6 245 40 335 35 68
144 171 212 199 66 28 208 40 215 19 2 -6 13 -9 24 -6 23 6 98 -20 127 -45 11
-9 34 -28 51 -41 16 -14 28 -28 25 -33 -3 -4 2 -5 10 -2 9 3 16 2 16 -3 0 -6
15 -30 33 -54 30 -39 68 -123 84 -184 17 -65 14 -157 -7 -226 -26 -88 -54
-134 -115 -187 -43 -38 -74 -55 -61 -34 3 5 -1 9 -9 9 -11 0 -12 -4 -4 -14 8
-9 8 -14 -2 -17 -8 -2 -23 -7 -34 -11 -11 -4 -33 -9 -50 -12 -45 -7 -72 -28
-77 -61 -3 -25 1 -32 34 -51 21 -12 38 -17 38 -11 0 5 11 10 25 10 14 0 53 11
86 25 33 14 65 23 72 19 7 -4 9 -4 5 1 -4 4 15 25 43 47 138 109 203 291 176
495 -16 124 -75 244 -164 336 -72 75 -139 116 -240 150 -48 16 -244 19 -283 4z"/>
<path d="M3770 6760 c-9 -5 -41 -8 -70 -8 -65 1 -117 -9 -148 -28 -12 -8 -28
-12 -34 -8 -6 4 -8 3 -5 -3 9 -14 -70 -86 -84 -77 -7 4 -9 3 -6 -4 4 -5 -5
-34 -20 -63 -24 -46 -28 -66 -30 -149 -1 -53 -5 -104 -9 -114 -3 -9 -4 -20 0
-23 3 -4 6 1 6 11 0 9 4 15 9 11 6 -3 8 -14 6 -25 -2 -12 2 -20 10 -20 7 0 16
-8 19 -18 8 -24 64 -85 98 -107 15 -9 26 -20 24 -24 -2 -3 6 -7 17 -8 12 -1
45 -6 72 -13 87 -20 107 -20 165 -1 145 48 217 119 246 242 29 118 0 233 -77
318 -36 40 -135 101 -162 101 -10 0 -15 5 -12 10 7 12 5 12 -15 0z m10 -124
c106 -24 182 -166 150 -280 -12 -45 -77 -124 -120 -147 -32 -16 -144 -17 -191
-1 -42 15 -110 76 -127 114 -32 77 -18 182 32 238 68 76 150 100 256 76z"/>
<path d="M4053 6133 c-29 -26 -57 -83 -34 -69 5 4 11 2 13 -3 1 -4 35 -29 74
-54 40 -25 81 -56 93 -68 11 -12 24 -19 28 -16 3 4 0 7 -8 7 -8 0 0 9 17 19
58 35 48 83 -26 121 -21 11 -44 26 -52 33 -13 13 -72 47 -81 47 -2 0 -13 -8
-24 -17z"/>
<path d="M4383 5940 c-12 -5 -24 -18 -28 -29 -3 -11 -14 -22 -23 -24 -16 -4
-16 -5 1 -6 9 0 17 -5 17 -10 0 -7 63 -50 105 -71 6 -3 22 -13 38 -24 53 -36
107 -15 107 40 0 16 -15 32 -52 55 -49 31 -137 80 -141 78 -1 0 -12 -4 -24 -9z"/>
<path d="M5198 5892 c-150 -48 -247 -220 -213 -381 5 -24 3 -36 -7 -42 -10 -7
-8 -9 6 -9 13 0 17 -5 13 -20 -3 -11 -2 -18 2 -16 4 3 14 -5 22 -17 34 -53
147 -148 174 -147 33 1 46 -2 59 -16 9 -8 16 -11 16 -6 0 5 24 8 53 8 62 0 77
3 137 32 67 33 132 98 164 166 23 48 26 202 5 244 -50 104 -116 167 -209 201
-51 19 -167 20 -222 3z m209 -114 c25 -13 56 -36 69 -53 13 -16 29 -36 35 -43
24 -29 33 -128 15 -172 -3 -8 -10 -27 -15 -41 -16 -44 -89 -96 -146 -105 -66
-10 -98 -11 -110 -5 -5 3 -13 6 -16 6 -20 0 -79 42 -74 53 2 7 1 11 -4 7 -21
-12 -73 94 -72 145 1 46 17 108 31 120 3 3 13 17 23 32 45 71 178 99 264 56z"/>
<path d="M4730 5760 c-43 -43 -25 -64 95 -116 50 -22 78 -19 97 10 27 40 -8
77 -102 110 -58 20 -66 20 -90 -4z"/>
<path d="M2450 5640 c-19 -19 -19 -22 -5 -51 9 -16 22 -32 30 -35 22 -9 88
-102 136 -194 46 -86 175 -465 185 -540 9 -72 37 -178 52 -200 9 -14 20 -32
24 -40 5 -12 7 -11 7 4 1 14 4 16 14 8 7 -6 65 -12 134 -13 102 -1 169 -8 218
-22 40 -12 55 -20 50 -26 -2 -5 7 -7 20 -5 14 1 25 -1 25 -6 0 -4 10 -10 23
-14 24 -6 63 -35 112 -82 37 -37 80 -94 69 -94 -3 0 -2 -6 4 -12 14 -18 26
-77 23 -117 -3 -56 -47 -134 -105 -189 -60 -55 -170 -116 -197 -109 -10 3 -17
0 -16 -6 1 -7 -25 -18 -58 -25 -33 -8 -67 -16 -75 -19 -8 -4 -19 -5 -23 -4 -4
0 -16 -3 -25 -8 -10 -5 -46 -12 -81 -15 -71 -6 -111 -26 -111 -56 0 -49 75
-61 214 -35 44 8 92 18 108 20 34 6 103 31 140 51 14 8 33 14 42 14 9 0 16 4
16 9 0 5 10 13 22 17 45 14 141 88 179 140 22 29 51 83 65 121 21 57 24 78 18
128 -8 74 -28 136 -62 195 -15 25 -25 49 -24 53 1 5 -1 6 -6 3 -4 -2 -25 11
-45 29 -46 42 -109 85 -162 109 -22 11 -51 25 -65 32 -14 6 -43 15 -65 19 -22
3 -56 9 -75 13 -19 3 -77 5 -127 5 -62 -1 -93 2 -93 9 0 6 -3 8 -7 4 -7 -7
-38 94 -48 154 -3 14 -14 57 -25 95 -12 39 -23 79 -25 89 -7 32 -47 150 -55
161 -3 6 -17 39 -30 75 -12 36 -29 74 -36 85 -8 11 -14 26 -14 33 0 8 -9 27
-21 43 -11 16 -21 38 -22 48 -1 11 -3 18 -6 15 -7 -7 -41 49 -35 58 3 5 2 7
-3 6 -4 -1 -30 19 -57 45 -55 53 -92 61 -126 27z"/>
<path d="M7685 5648 c-17 -9 -51 -44 -82 -83 -26 -32 -83 -128 -108 -180 -41
-88 -129 -345 -156 -457 -12 -54 -27 -98 -32 -98 -4 0 -5 -5 -2 -10 12 -19
-15 -119 -33 -123 -9 -3 -60 -5 -112 -6 -52 0 -106 -3 -120 -6 -14 -3 -38 -8
-55 -11 -76 -13 -255 -96 -255 -117 0 -5 -7 -6 -16 -3 -8 3 -13 2 -9 -3 3 -5
-10 -21 -27 -36 -32 -26 -55 -59 -97 -136 -24 -44 -45 -153 -35 -188 3 -14 8
-38 9 -53 1 -15 21 -61 43 -102 l41 -76 -127 -1 c-70 -1 -147 -2 -172 -3 -107
-3 -131 -76 -35 -108 27 -8 414 -8 445 1 17 5 39 0 70 -15 49 -24 131 -53 169
-60 14 -3 28 -7 33 -10 9 -6 21 -8 138 -29 121 -21 165 -20 190 7 24 27 25 30
3 57 -15 18 -35 24 -103 31 -89 9 -171 25 -205 39 -11 4 -36 14 -55 21 -82 29
-99 37 -164 75 -188 110 -220 303 -74 456 72 76 196 137 313 156 22 3 82 5
134 4 138 -3 166 3 186 45 15 32 23 57 29 94 2 8 6 26 10 40 3 14 8 39 10 55
3 17 7 39 9 50 3 11 11 43 17 70 21 82 62 219 70 230 4 6 10 24 14 40 4 17 32
80 61 140 39 80 68 126 107 165 72 74 83 96 63 126 -17 26 -56 31 -90 12z"/>
<path d="M5716 5375 c-21 -32 -20 -41 4 -72 11 -14 20 -21 20 -16 0 6 21 0 48
-13 71 -34 119 -40 142 -19 25 22 26 57 3 77 -24 20 -148 68 -177 68 -14 0
-30 -10 -40 -25z"/>
<path d="M6065 5272 c2 -2 -5 -14 -16 -25 -34 -37 -21 -58 66 -104 44 -23 92
-42 107 -42 33 -1 63 38 53 69 -7 21 -70 58 -137 79 -21 7 -38 16 -38 20 0 4
-9 7 -20 7 -10 0 -17 -2 -15 -4z"/>
<path d="M6527 5224 c-2 -3 -14 -7 -27 -9 -73 -14 -169 -105 -202 -192 -32
-85 -31 -212 1 -273 37 -72 76 -114 132 -145 160 -87 338 -55 436 78 58 79 70
111 76 197 7 135 -98 287 -232 335 -34 12 -174 19 -184 9z m163 -120 c22 -9
40 -22 40 -30 0 -7 6 -11 13 -9 6 3 21 -9 32 -27 50 -79 54 -90 50 -152 -4
-76 -14 -102 -57 -147 -43 -47 -62 -55 -157 -66 -45 -5 -53 -4 -46 8 7 11 6
12 -6 2 -11 -9 -21 -8 -45 2 -40 17 -106 85 -99 102 2 8 1 11 -5 8 -8 -5 -15
16 -33 93 -14 63 61 185 131 215 45 19 136 19 182 1z"/>
<path d="M2328 4664 c-16 -8 -28 -20 -29 -27 -3 -36 5 -72 23 -103 11 -18 16
-39 12 -45 -4 -7 -3 -9 3 -6 15 9 47 -29 37 -45 -4 -7 -4 -10 0 -6 10 8 47
-23 40 -34 -3 -4 3 -8 12 -8 19 0 14 -10 -8 -14 -7 -2 -29 -10 -48 -18 -40
-17 -73 -31 -80 -33 -10 -3 -87 -38 -165 -76 -101 -47 -123 -70 -106 -103 26
-47 48 -47 151 1 52 25 104 48 115 53 11 4 34 13 50 20 17 8 35 15 40 16 6 2
50 19 100 40 49 20 98 38 109 40 10 2 34 8 52 14 19 6 39 8 45 4 7 -4 9 -3 6
3 -4 5 40 25 100 45 125 41 145 60 112 102 -20 25 -26 27 -68 22 -25 -3 -82
-17 -126 -32 -44 -14 -87 -28 -95 -30 -8 -2 -24 -6 -35 -9 -35 -9 -134 98
-159 173 -15 42 -37 72 -53 72 -4 -1 -20 -8 -35 -16z"/>
<path d="M7854 4672 c-6 -4 -22 -31 -34 -59 -12 -29 -25 -53 -29 -53 -4 0 -15
-16 -26 -35 -11 -21 -24 -34 -32 -31 -7 3 -12 2 -10 -2 3 -12 -40 -62 -54 -62
-7 0 -44 10 -83 21 -72 22 -93 28 -101 29 -3 1 -20 7 -39 15 -72 30 -142 6
-134 -46 3 -27 28 -40 113 -64 105 -29 147 -47 133 -57 -9 -6 -5 -7 9 -3 14 4
56 -6 110 -25 49 -18 104 -36 123 -42 19 -5 39 -14 45 -19 5 -5 15 -9 22 -9 7
0 57 -20 110 -44 129 -57 191 -78 215 -70 25 7 39 43 26 67 -13 25 -45 56 -52
50 -4 -4 -92 32 -138 57 -10 6 -22 10 -28 10 -6 0 -29 8 -53 19 -23 10 -55 24
-72 30 -16 6 -43 15 -59 21 l-28 10 25 24 c38 35 99 126 118 176 l17 45 -29
27 c-29 29 -45 33 -65 20z"/>
<path d="M6305 4630 c9 -14 -28 -21 -38 -8 -6 9 -7 8 -3 -4 3 -12 -4 -24 -21
-35 -56 -39 -82 -71 -76 -95 8 -28 21 -38 52 -38 23 0 86 36 119 67 7 7 22 19
34 27 22 15 28 60 11 77 -12 12 -85 20 -78 9z"/>
<path d="M6004 4419 c-32 -17 -66 -37 -75 -45 -8 -8 -19 -14 -24 -14 -4 0 -19
-12 -32 -26 -25 -27 -24 -55 4 -82 12 -13 19 -13 51 0 52 21 182 107 189 125
7 19 -5 41 -34 60 -18 12 -27 10 -79 -18z"/>
<path d="M4959 4255 c-2 -2 -29 -6 -60 -8 -91 -8 -186 -62 -246 -139 -20 -26
-63 -128 -64 -151 0 -21 -1 -21 -9 -2 -8 19 -9 19 -9 -2 -1 -12 4 -25 10 -28
21 -13 2 -28 -40 -31 -27 -2 -48 -10 -57 -21 -16 -21 -18 -59 -4 -68 6 -4 8
-10 5 -14 -2 -5 22 -8 54 -7 l59 1 41 -66 c29 -47 57 -77 96 -103 30 -20 60
-36 65 -36 6 0 8 -4 5 -10 -3 -5 0 -7 8 -5 7 3 41 -1 74 -9 34 -7 63 -13 65
-11 2 2 25 6 51 9 107 13 216 92 262 191 29 60 46 151 38 197 -4 29 -1 37 20
51 24 15 43 67 25 67 -5 0 -7 4 -4 8 8 14 -64 36 -77 23 -6 -6 -15 -11 -21
-11 -5 0 -7 2 -4 5 8 8 -83 105 -99 105 -7 0 -13 4 -13 8 0 8 -100 48 -112 44
-4 -1 -18 2 -32 7 -13 6 -26 8 -27 6z m45 -121 c9 -3 14 -9 11 -14 -2 -4 6 -5
18 -3 21 4 44 -10 91 -54 52 -50 79 -138 65 -205 -19 -84 -96 -169 -169 -185
-44 -10 -139 -12 -145 -3 -3 5 -14 10 -24 10 -48 0 -157 126 -137 159 4 6 2
11 -5 11 -17 0 -5 116 17 160 19 39 66 83 116 110 33 17 131 26 162 14z"/>
<path d="M5680 4235 c-14 -8 -32 -14 -41 -15 -9 0 -55 -18 -102 -40 -89 -41
-107 -62 -87 -99 21 -40 44 -43 107 -15 200 90 209 97 191 143 -8 23 -25 41
-38 40 -3 0 -16 -6 -30 -14z"/>
<path d="M3690 3931 c-20 -5 -26 -14 -28 -43 -3 -31 1 -37 30 -51 18 -8 73
-18 121 -22 79 -6 90 -5 102 12 39 50 2 92 -86 97 -30 2 -67 6 -84 9 -16 3
-41 2 -55 -2z"/>
<path d="M4113 3892 c-38 -4 -58 -32 -49 -67 7 -28 22 -33 99 -39 31 -3 66 -8
78 -11 20 -7 78 11 80 24 0 3 2 16 5 28 2 16 -3 27 -19 37 -24 16 -144 33
-194 28z"/>
</g>
</svg>
