<?xml version="1.0" standalone="no"?>
<!DOCTYPE svg PUBLIC "-//W3C//DTD SVG 20010904//EN"
 "http://www.w3.org/TR/2001/REC-SVG-20010904/DTD/svg10.dtd">
<svg version="1.0" xmlns="http://www.w3.org/2000/svg"
 width="1024.000000pt" height="1024.000000pt" viewBox="0 0 1024.000000 1024.000000"
 preserveAspectRatio="xMidYMid meet">
<metadata>
Created by potrace 1.16, written by Peter Selinger 2001-2019
</metadata>
<g transform="translate(0.000000,1024.000000) scale(0.100000,-0.100000)"
fill="#000000" stroke="none">
<path d="M4035 6839 c-63 -20 -105 -79 -105 -151 0 -24 -4 -48 -8 -55 -5 -8
-69 -13 -219 -15 -236 -3 -245 -6 -288 -79 -20 -33 -20 -53 -21 -944 -1 -500
-2 -1018 -3 -1150 -2 -281 4 -354 33 -398 47 -70 -28 -66 1171 -66 594 -1
1090 2 1103 5 16 5 22 14 22 35 0 18 -6 32 -16 36 -8 3 -501 6 -1094 7 -1066
1 -1080 1 -1099 21 -23 23 -36 74 -23 92 6 10 169 13 692 17 696 4 735 7 845
45 73 26 212 114 287 184 53 48 68 59 84 61 11 2 19 7 19 12 0 6 45 54 100
109 55 54 94 91 86 82 -11 -14 -13 -39 -8 -110 8 -124 30 -223 69 -304 17 -38
32 -75 32 -85 1 -9 5 -20 9 -24 4 -5 5 0 2 11 -6 18 -5 18 7 -1 85 -135 235
-251 393 -303 187 -62 415 -51 592 29 187 85 344 258 411 455 43 124 45 301 6
448 -9 34 -17 69 -17 77 -1 8 -4 17 -7 20 -3 3 -24 37 -47 75 -95 162 -273
308 -430 355 -23 7 -41 16 -39 19 6 9 -84 15 -209 15 -129 0 -224 -7 -219 -15
2 -3 -16 -12 -39 -18 -89 -27 -201 -100 -308 -201 -26 -25 -108 -136 -120
-164 -7 -14 -19 -26 -28 -26 -11 0 -12 -3 -5 -8 9 -5 8 -17 -3 -45 -13 -32
-18 -36 -31 -25 -13 11 -14 10 -4 -8 10 -18 0 -31 -92 -123 -56 -56 -106 -98
-111 -94 -4 4 -5 3 -2 -4 10 -16 -307 -282 -320 -269 -2 2 5 19 17 38 31 53
50 174 50 319 0 80 4 136 12 148 9 15 22 18 77 16 58 -2 60 -2 16 4 -30 3 36
8 160 11 210 5 210 5 213 28 8 51 -2 53 -265 51 -135 0 -242 -3 -239 -6 3 -3
-3 -13 -13 -22 -28 -25 -51 -76 -51 -116 0 -26 -3 -34 -12 -29 -9 5 -8 2 1 -9
21 -27 8 -258 -19 -330 -26 -70 -70 -125 -123 -157 l-42 -25 -692 -3 -693 -3
0 901 0 900 1215 0 1215 0 0 -367 c-1 -405 -1 -408 57 -387 l28 9 2 604 c1
332 -1 601 -4 598 -3 -3 -17 8 -30 24 -46 54 -66 59 -255 59 -95 0 -179 -4
-187 -9 -9 -6 -12 -19 -7 -42 l6 -34 170 0 c226 0 214 11 218 -205 l4 -160
-1216 -2 -1216 -3 0 148 c0 155 9 196 48 215 9 4 103 8 207 8 l190 -1 5 -55
c8 -82 33 -120 94 -145 72 -30 147 -13 201 44 l30 32 0 167 c0 160 -1 168 -24
201 -42 58 -122 83 -196 60z m79 -85 c9 -3 14 -10 11 -14 -3 -4 3 -7 12 -6 23
2 30 -39 28 -173 -2 -123 -7 -136 -62 -147 -26 -5 -37 -1 -57 19 -33 33 -37
96 -6 104 38 10 37 83 -1 83 -16 0 -19 7 -19 49 0 42 4 53 26 70 28 22 42 25
68 15z m2409 -1493 c73 -19 191 -71 212 -93 7 -8 6 -9 -4 -3 -9 5 -12 4 -7 -3
4 -6 13 -9 21 -6 25 10 185 -160 228 -242 20 -39 34 -74 30 -78 -3 -3 -2 -6 4
-6 11 0 29 -55 38 -120 3 -25 8 -54 9 -65 2 -11 -1 -23 -6 -26 -7 -4 -7 -13 0
-25 12 -23 -2 -137 -24 -204 -42 -124 -134 -255 -232 -330 -37 -28 -45 -30
-60 -19 -15 13 -16 12 -4 -3 12 -15 7 -20 -46 -47 -32 -16 -99 -39 -148 -51
-75 -19 -107 -21 -204 -17 -114 5 -194 22 -184 38 3 5 -2 6 -10 3 -18 -7 -111
34 -163 72 -173 126 -266 288 -289 504 -10 93 41 350 67 335 5 -4 6 1 3 9 -3
9 8 39 26 68 128 208 334 326 571 327 64 1 121 -6 172 -18z"/>
<path d="M6176 4958 c-13 -19 -14 -78 -12 -368 2 -190 6 -354 8 -365 4 -14 12
-19 28 -17 16 3 20 0 15 -10 -4 -7 3 -2 14 12 11 14 21 30 21 35 1 6 2 167 4
359 2 286 0 351 -12 362 -20 21 -50 17 -66 -8z"/>
<path d="M6470 4965 c-18 -22 -21 -715 -3 -737 7 -8 10 -17 8 -20 -3 -3 6 -3
19 -1 51 10 51 12 52 382 0 275 -2 351 -13 369 -16 25 -45 29 -63 7z"/>
<path d="M5209 6821 c-25 -15 -51 -41 -57 -57 -19 -48 -31 -114 -20 -114 5 0
3 -7 -6 -15 -12 -13 -71 -15 -406 -15 l-390 0 -10 -26 c-7 -17 -7 -31 -1 -38
5 -6 9 -15 9 -21 0 -5 6 -11 14 -13 9 -2 8 0 -2 7 -8 6 -10 11 -5 11 6 0 16
-5 22 -11 8 -8 17 -8 31 0 14 7 141 11 386 11 l366 0 0 -26 c0 -14 -5 -35 -11
-46 -6 -11 -7 -18 -1 -14 5 3 12 -8 16 -25 3 -17 21 -46 40 -65 18 -18 31 -35
29 -38 -2 -2 31 -3 74 -2 65 1 83 5 107 23 16 13 32 21 36 18 3 -2 7 1 8 8 0
7 7 33 15 58 11 34 14 80 11 179 -5 155 -15 183 -84 218 -62 31 -115 29 -171
-7z m146 -88 c16 -22 20 -264 5 -292 -13 -25 -62 -36 -92 -20 -32 16 -38 28
-38 71 0 28 5 40 21 48 29 16 23 74 -8 78 -24 4 -27 17 -17 71 4 17 13 31 20
31 8 0 14 6 14 14 0 31 73 30 95 -1z"/>
</g>
</svg>
