<?xml version="1.0" standalone="no"?>
<!DOCTYPE svg PUBLIC "-//W3C//DTD SVG 20010904//EN" "http://www.w3.org/TR/2001/REC-SVG-20010904/DTD/svg10.dtd">
<svg xmlns="http://www.w3.org/2000/svg" version="1.0" width="1024.000000pt" height="1024.000000pt" viewBox="0 0 1024.000000 1024.000000" preserveAspectRatio="xMidYMid meet">
<metadata>
Created by potrace 1.16, written by Peter Selinger 2001-2019
<meta name="Producer" content="Online-Convert"/></metadata>
<g transform="translate(0.000000,1024.000000) scale(0.100000,-0.100000)" fill="#000000" stroke="none">
<path d="M5195 8230 c-4 -6 -18 -10 -33 -10 -56 -1 -159 -10 -202 -19 -25 -5 -63 -12 -85 -14 -22 -2 -47 -7 -56 -11 -9 -4 -29 -8 -45 -10 -16 -2 -29 -5 -29 -6 0 -1 -10 -3 -22 -6 -12 -2 -51 -17 -88 -34 -36 -16 -70 -30 -76 -30 -10 0 -103 -49 -214 -114 -38 -22 -73 -39 -77 -38 -5 1 -8 -2 -8 -7 0 -9 -84 -67 -87 -60 -1 2 -9 -5 -17 -16 -9 -11 -16 -16 -16 -10 0 5 -7 -1 -16 -13 -8 -12 -19 -22 -24 -22 -5 0 -37 -27 -72 -60 -35 -33 -66 -60 -71 -60 -8 0 -329 -325 -392 -397 -22 -26 -58 -66 -80 -89 -22 -24 -55 -62 -74 -84 -18 -22 -38 -37 -45 -33 -6 3 -8 3 -4 -1 4 -4 -1 -20 -10 -35 -32 -51 -115 -151 -122 -146 -4 2 -7 -2 -7 -9 0 -13 -91 -138 -105 -144 -5 -2 -8 -10 -8 -17 0 -7 -6 -15 -13 -18 -8 -3 -22 -21 -31 -41 -9 -20 -22 -36 -28 -36 -6 0 -8 -3 -5 -7 10 -9 -14 -34 -26 -26 -6 3 -7 1 -3 -6 7 -10 -23 -50 -32 -43 -2 2 -7 0 -10 -4 -4 -4 -1 -4 6 0 6 4 12 4 12 1 0 -13 -34 -65 -42 -65 -4 0 -8 -7 -8 -15 0 -8 -4 -15 -10 -15 -5 0 -10 -5 -10 -11 0 -6 -10 -25 -22 -42 -13 -18 -30 -44 -38 -59 -95 -172 -106 -188 -120 -182 -11 4 -12 2 -4 -6 9 -9 1 -32 -33 -93 -45 -84 -53 -100 -94 -197 -13 -30 -28 -58 -34 -62 -5 -4 -6 -8 -2 -8 4 0 2 -10 -5 -22 -7 -13 -13 -25 -13 -28 -8 -41 -18 -70 -26 -70 -5 0 -9 -7 -9 -16 0 -8 -4 -13 -9 -9 -5 3 -13 0 -17 -6 -4 -8 -3 -9 4 -5 8 5 12 0 12 -13 0 -12 -5 -21 -11 -21 -6 0 -9 -7 -6 -15 4 -8 2 -17 -4 -20 -5 -4 -7 -10 -4 -15 3 -5 1 -11 -5 -15 -6 -4 -8 -10 -5 -15 3 -5 1 -11 -5 -15 -6 -4 -8 -10 -5 -15 3 -5 1 -19 -4 -32 -17 -43 -24 -63 -28 -83 -2 -11 -11 -45 -20 -75 -9 -30 -16 -59 -14 -64 1 -4 -3 -13 -8 -20 -10 -12 -27 -94 -23 -110 2 -4 -2 -14 -9 -22 -6 -7 -8 -18 -4 -24 4 -6 -4 -23 -16 -37 -13 -15 -19 -23 -12 -19 14 8 27 -10 17 -25 -4 -7 -8 -26 -9 -43 -1 -17 -7 -85 -14 -151 -21 -216 -27 -339 -20 -390 4 -27 11 -90 14 -140 8 -117 11 -142 23 -187 5 -20 7 -39 4 -42 -2 -3 0 -11 5 -18 11 -14 11 -47 0 -65 -4 -7 -2 -15 6 -20 19 -12 38 -61 27 -68 -6 -4 -10 -1 -10 6 0 7 -3 10 -6 6 -3 -3 -1 -14 5 -24 6 -11 11 -13 11 -5 0 26 18 1 25 -35 4 -21 6 -40 5 -42 -1 -2 4 -8 12 -12 10 -7 10 -9 1 -9 -7 0 -13 -10 -12 -22 0 -22 1 -22 10 -3 8 17 9 16 6 -7 -3 -17 0 -25 6 -21 6 4 8 0 4 -10 -4 -11 -2 -14 8 -11 17 7 14 -39 -5 -61 -11 -13 -10 -14 4 -9 9 3 16 10 16 15 0 5 4 9 10 9 5 0 9 -3 8 -7 -2 -5 14 -43 35 -86 21 -43 34 -83 31 -90 -4 -7 -4 -9 1 -5 10 9 45 -29 45 -49 0 -7 5 -13 10 -13 6 0 10 -7 10 -15 0 -8 5 -15 10 -15 6 0 10 -7 10 -15 0 -8 5 -15 10 -15 6 0 10 -7 10 -15 0 -8 5 -15 10 -15 6 0 10 -6 10 -14 0 -7 18 -34 40 -59 40 -45 51 -65 28 -51 -7 4 -8 3 -4 -4 4 -6 13 -9 20 -6 7 3 20 -5 28 -18 9 -13 45 -53 81 -89 50 -51 63 -69 54 -78 -9 -9 -8 -11 5 -6 19 7 93 -56 81 -69 -4 -4 0 -4 10 0 10 4 19 0 23 -9 3 -8 24 -28 47 -43 23 -15 49 -33 57 -41 50 -46 75 -64 120 -89 30 -16 49 -33 46 -40 -3 -9 1 -11 11 -7 10 4 14 2 10 -4 -3 -5 0 -10 8 -10 7 0 38 -12 69 -28 37 -19 56 -34 56 -47 0 -10 4 -18 10 -18 5 0 6 8 3 17 -5 13 1 12 27 -7 19 -14 41 -25 49 -27 8 -1 18 -8 22 -15 5 -7 9 -8 9 -3 0 7 3 7 8 0 4 -6 34 -23 67 -39 33 -16 68 -39 78 -50 14 -17 16 -18 11 -3 -6 16 -2 16 42 -5 27 -13 51 -25 54 -28 3 -3 12 -7 20 -9 59 -16 80 -27 75 -40 -4 -11 -3 -12 10 -1 18 15 20 0 3 -20 -7 -8 -4 -7 8 3 20 16 23 16 60 0 21 -9 41 -17 44 -18 3 0 16 -5 29 -9 18 -6 20 -10 10 -17 -8 -5 2 -6 25 -2 32 5 38 3 34 -8 -7 -17 18 -43 27 -29 3 6 1 10 -5 10 -6 0 -8 5 -5 10 4 6 12 7 18 3 7 -4 21 -9 31 -10 11 -2 25 -8 32 -14 7 -6 18 -8 23 -5 5 4 12 2 16 -4 4 -6 10 -8 15 -5 5 3 11 1 15 -5 4 -6 11 -8 16 -5 5 4 9 -2 9 -12 0 -12 3 -14 8 -6 8 12 24 12 53 -1 9 -4 27 -8 40 -10 13 -2 43 -8 67 -15 23 -7 47 -9 52 -6 6 3 10 2 10 -3 0 -5 12 -9 28 -9 15 -1 41 -4 57 -7 60 -14 91 -18 123 -17 19 1 39 -2 45 -6 7 -5 26 -9 42 -10 17 0 66 -4 110 -8 123 -10 181 -13 293 -15 56 -1 100 -5 98 -9 -3 -4 1 -8 9 -8 8 0 12 4 9 9 -3 4 -1 8 5 8 5 0 12 -6 14 -13 3 -6 6 -4 6 7 1 17 7 18 74 13 41 -3 109 -1 153 4 164 20 187 21 196 7 6 -9 8 -7 6 7 -2 12 3 20 12 21 8 0 23 4 32 8 9 4 21 5 26 2 6 -3 36 3 68 13 33 10 73 18 91 17 17 -1 30 1 27 3 -2 3 8 10 23 17 19 8 32 8 41 1 10 -8 12 -7 10 3 -2 9 17 20 57 31 33 10 62 18 65 19 3 1 8 2 13 1 4 0 7 4 7 9 0 5 3 9 8 8 8 -1 30 6 91 34 24 10 51 16 59 13 9 -3 13 -3 9 1 -6 7 37 34 125 81 15 8 33 11 39 7 7 -4 9 -3 6 3 -9 15 19 37 37 30 10 -4 13 -1 10 8 -3 8 4 16 18 20 13 4 42 23 65 41 23 19 46 34 51 34 5 0 12 7 16 15 3 8 12 15 21 15 8 0 15 5 15 11 0 6 7 8 16 5 8 -3 13 -2 10 2 -2 4 18 27 46 52 27 25 73 67 101 94 51 49 52 49 59 25 7 -23 7 -23 5 3 -1 19 10 42 37 75 45 54 58 69 83 98 10 12 34 44 53 73 19 29 38 52 43 52 4 0 7 5 7 10 0 9 35 65 50 80 3 3 18 30 34 60 16 30 33 57 37 60 10 7 74 143 71 153 -1 4 3 7 9 7 5 0 7 5 4 10 -3 6 -2 10 3 10 6 0 13 12 17 27 3 16 12 42 20 58 19 45 28 68 32 90 2 10 8 22 14 26 6 3 10 8 8 10 -1 2 1 15 5 29 5 14 10 34 12 45 2 11 11 40 18 65 8 25 24 90 36 145 29 128 28 127 37 122 5 -3 9 20 10 51 0 32 5 104 9 162 9 120 9 417 -1 535 -4 44 -7 89 -6 100 0 11 -4 34 -10 52 -7 22 -7 38 0 52 8 14 8 20 0 23 -6 2 -13 22 -16 43 -5 48 -11 80 -13 80 -2 0 -6 18 -14 70 -2 11 -6 27 -9 35 -3 8 -5 22 -6 30 0 8 -4 32 -9 52 -5 20 -9 55 -8 78 1 22 -1 35 -5 29 -5 -8 -8 -8 -13 0 -4 6 -4 16 0 22 3 6 2 14 -5 18 -6 4 -12 20 -15 37 -2 16 -6 37 -10 47 -15 42 -16 50 -5 63 10 12 9 13 -5 8 -13 -5 -16 0 -16 28 0 19 -5 39 -12 46 -7 7 -8 12 -4 12 5 0 4 6 -2 13 -9 10 -49 134 -57 177 -2 8 -4 15 -5 15 -1 0 -3 8 -5 18 -2 10 -7 26 -11 35 -4 9 -8 19 -9 22 -1 3 -7 19 -14 35 -27 63 -39 103 -34 109 4 3 1 6 -5 6 -6 0 -13 14 -17 30 -4 17 -14 45 -23 62 -8 18 -16 47 -16 64 -1 18 -4 30 -8 28 -4 -3 -10 8 -14 23 -3 15 -17 47 -31 71 -13 23 -21 42 -18 42 3 0 -3 12 -12 27 -10 15 -13 24 -6 20 6 -4 15 -3 18 3 4 6 3 10 -2 9 -19 -3 -33 2 -33 13 0 14 -18 54 -121 262 -59 119 -76 162 -67 168 10 6 10 8 0 8 -28 0 -65 61 -58 93 3 12 3 16 0 9 -4 -8 -17 2 -39 30 -19 23 -32 45 -29 49 2 4 0 10 -6 14 -16 10 -93 127 -93 142 0 7 -6 13 -13 13 -7 0 -19 10 -25 23 -7 12 -18 26 -25 30 -8 4 -14 13 -14 18 0 6 -15 25 -32 43 -18 17 -73 73 -121 124 -48 50 -97 98 -108 105 -10 8 -37 31 -59 51 -21 20 -44 36 -50 36 -5 0 -10 5 -10 11 0 5 4 8 9 4 5 -3 12 -1 16 4 3 6 -4 8 -16 6 -21 -4 -74 22 -102 49 -6 7 -16 14 -22 17 -5 2 -9 10 -9 17 1 9 -2 10 -10 3 -9 -8 -19 -5 -33 9 -12 10 -36 26 -54 34 -19 8 -45 22 -59 30 -22 13 -137 67 -150 71 -3 1 -17 5 -32 9 -16 5 -28 12 -28 18 0 5 -3 7 -8 4 -4 -2 -23 3 -42 12 -19 8 -39 16 -43 16 -4 1 -12 8 -17 16 -5 8 -10 10 -10 4 0 -8 -14 -6 -44 4 -25 9 -43 20 -40 24 2 4 -6 5 -19 2 -13 -2 -64 5 -113 16 -49 11 -109 22 -134 25 -25 2 -88 9 -140 15 -52 5 -99 10 -105 10 -5 0 -3 5 5 10 9 6 10 10 3 10 -6 0 -15 -5 -18 -10z m205 -182 c14 -2 31 -7 38 -11 7 -5 20 -6 28 -3 9 3 25 0 36 -8 11 -8 27 -12 36 -9 10 4 13 2 8 -5 -4 -7 -2 -12 3 -12 6 0 11 5 11 11 0 7 7 8 18 4 9 -4 26 -8 37 -9 44 -6 135 -39 164 -60 7 -6 26 -9 42 -8 17 2 29 -1 29 -8 0 -6 4 -9 9 -5 5 3 12 1 16 -5 4 -6 11 -8 16 -5 5 4 9 1 9 -6 0 -7 3 -9 7 -6 3 4 25 -4 48 -18 23 -13 45 -21 49 -18 3 3 6 2 6 -4 0 -5 6 -10 13 -10 11 0 29 -10 112 -61 11 -7 35 -19 53 -27 17 -9 32 -20 32 -26 0 -5 5 -7 12 -3 7 5 9 2 5 -8 -4 -11 -1 -14 12 -11 21 5 50 -25 34 -35 -6 -4 -18 -23 -28 -42 -37 -75 -70 -120 -84 -115 -8 3 -11 0 -8 -8 6 -17 -15 -65 -42 -96 -11 -13 -21 -30 -21 -38 0 -7 -4 -13 -9 -13 -5 0 -12 -11 -15 -25 -4 -14 -11 -25 -16 -25 -6 0 -10 -6 -10 -13 0 -7 -15 -35 -32 -62 -18 -28 -42 -67 -53 -88 -11 -20 -22 -37 -26 -37 -4 0 -9 -8 -13 -17 -5 -18 -26 -53 -36 -63 -3 -3 -14 -22 -25 -42 -11 -21 -23 -38 -27 -38 -5 0 -8 -7 -8 -15 0 -8 -4 -15 -10 -15 -5 0 -9 -3 -9 -7 3 -18 -2 -30 -19 -49 -9 -10 -23 -32 -30 -49 -8 -16 -34 -60 -58 -96 -24 -37 -44 -71 -44 -76 0 -17 -38 -45 -52 -38 -7 3 -4 -1 6 -9 11 -9 15 -16 9 -16 -6 0 -14 -8 -17 -17 -13 -33 -31 -63 -38 -63 -5 0 -8 -5 -8 -11 0 -14 -70 -131 -84 -141 -6 -4 -8 -8 -3 -8 7 0 -40 -80 -53 -90 -4 -3 -20 -30 -36 -60 -16 -30 -31 -57 -34 -60 -3 -3 -18 -31 -35 -63 -16 -32 -38 -67 -47 -77 -10 -11 -18 -24 -18 -29 0 -5 -6 -16 -12 -23 -18 -19 -36 -49 -49 -78 -5 -13 -14 -27 -19 -30 -4 -3 -19 -25 -32 -50 -57 -106 -91 -160 -99 -160 -5 0 -8 -3 -7 -7 3 -12 -39 -88 -56 -102 -9 -8 -16 -19 -16 -27 0 -7 -6 -19 -12 -26 -20 -21 -37 -50 -49 -80 -6 -16 -15 -28 -20 -28 -5 0 -9 -7 -9 -15 0 -19 -14 -19 -33 0 -8 8 -17 11 -21 8 -3 -4 -6 -1 -6 5 0 7 -9 12 -20 12 -11 0 -20 5 -20 10 0 6 -9 10 -19 10 -11 0 -26 6 -33 13 -7 6 -20 13 -28 15 -8 2 -17 8 -18 13 -2 5 -8 7 -13 3 -5 -3 -9 0 -9 6 0 6 -4 8 -10 5 -5 -3 -10 -1 -10 5 0 6 -4 8 -10 5 -5 -3 -10 -1 -10 6 0 7 -3 10 -6 6 -8 -7 -106 41 -116 57 -4 6 -8 8 -8 3 0 -4 -23 4 -52 19 -39 20 -48 28 -37 36 10 7 8 8 -8 3 -15 -4 -37 3 -66 19 -24 14 -47 23 -50 19 -4 -3 -7 -2 -7 4 0 11 -57 37 -72 34 -5 0 -8 4 -8 10 0 5 -4 7 -10 4 -5 -3 -10 -3 -10 2 0 7 -124 69 -319 159 -46 22 -94 49 -106 62 -14 13 -26 19 -29 13 -4 -6 -13 -8 -21 -5 -8 4 -12 10 -9 15 3 5 7 37 10 71 2 35 6 81 9 103 3 22 7 67 9 100 2 33 7 85 11 115 3 30 8 73 10 95 3 22 7 60 10 85 3 25 8 72 10 105 1 33 4 62 5 65 1 3 4 21 5 40 2 19 6 60 10 90 9 86 13 128 20 235 3 55 11 132 17 170 5 39 12 88 15 110 5 37 22 58 48 60 6 1 9 6 8 13 -3 12 152 172 227 234 25 21 56 47 70 59 49 41 152 114 161 114 5 0 13 5 17 10 4 6 27 21 52 34 25 13 52 29 60 36 8 6 38 22 65 35 28 13 71 34 96 47 25 12 55 24 65 26 10 1 24 6 31 10 6 4 24 9 40 11 15 2 40 9 56 15 15 6 27 8 27 5 0 -2 10 0 21 7 12 6 36 13 53 15 17 2 49 8 71 13 37 7 359 7 415 -1z m1026 -474 c-3 -8 -2 -13 2 -11 13 4 82 -42 89 -60 4 -10 21 -29 37 -43 54 -44 96 -95 91 -108 -3 -7 -1 -11 4 -8 11 7 44 -30 37 -42 -3 -5 0 -9 7 -8 6 0 13 -3 15 -9 2 -5 12 -20 23 -31 16 -17 17 -23 7 -27 -10 -4 -9 -6 2 -6 9 -1 22 -9 30 -18 37 -44 61 -84 55 -93 -3 -5 1 -10 9 -10 9 0 16 -9 16 -20 0 -11 4 -20 9 -20 5 0 16 -16 26 -36 13 -28 14 -38 5 -50 -10 -11 -9 -14 4 -14 10 0 14 5 11 10 -3 6 -1 10 4 10 6 0 11 -6 11 -14 0 -8 6 -21 14 -28 19 -20 56 -94 56 -114 0 -10 -5 -14 -15 -10 -8 3 -15 1 -15 -4 0 -14 23 -12 39 3 8 7 11 7 8 1 -4 -7 1 -22 11 -35 26 -35 43 -79 36 -91 -4 -6 -2 -8 3 -5 6 4 14 0 17 -9 5 -12 2 -15 -10 -10 -10 4 -14 2 -11 -6 2 -7 11 -12 19 -10 9 1 18 -4 22 -13 3 -8 1 -15 -4 -15 -6 0 -10 -4 -10 -10 0 -5 7 -7 15 -4 8 4 15 1 15 -4 0 -6 4 -21 9 -34 5 -13 9 -26 10 -31 0 -4 8 -22 16 -40 12 -23 12 -27 2 -14 -8 9 -17 17 -21 17 -16 0 1 -35 19 -41 12 -3 20 -13 19 -27 0 -11 2 -19 6 -17 5 3 38 -51 45 -75 1 -3 9 -21 18 -40 15 -35 7 -57 -17 -43 -5 3 -6 1 -2 -5 4 -6 13 -9 21 -5 11 3 20 -7 31 -33 9 -22 17 -43 18 -49 1 -5 5 -15 9 -22 4 -6 1 -14 -5 -16 -8 -4 -7 -6 4 -6 15 -1 36 -52 30 -74 -2 -5 7 -23 18 -42 11 -18 21 -45 22 -61 1 -16 7 -32 13 -36 6 -5 6 -8 -2 -8 -7 0 -13 -5 -13 -10 0 -6 5 -9 11 -8 6 2 13 -6 14 -17 1 -11 10 -36 18 -56 9 -20 13 -39 10 -43 -4 -3 -1 -6 6 -6 7 0 11 -6 8 -14 -3 -7 0 -19 6 -25 6 -6 8 -11 5 -11 -4 0 -1 -12 7 -26 7 -15 11 -32 9 -39 -3 -7 -1 -16 5 -20 8 -4 8 -12 0 -27 -7 -13 -7 -18 -1 -14 6 3 13 2 17 -4 3 -5 1 -10 -5 -10 -7 0 -6 -6 3 -15 15 -15 35 -87 52 -190 2 -11 4 -20 5 -20 3 0 8 -26 15 -75 7 -49 10 -62 19 -83 6 -12 3 -24 -8 -36 -13 -14 -14 -21 -5 -27 7 -4 10 -3 5 4 -3 6 -2 13 4 17 5 3 10 0 11 -7 0 -7 3 -22 5 -33 9 -38 16 -90 18 -125 1 -19 5 -42 8 -50 10 -24 19 -157 12 -174 -3 -9 -11 -13 -18 -10 -6 3 -2 -2 9 -11 18 -14 20 -29 21 -158 1 -78 -3 -180 -8 -227 -27 -247 -35 -304 -53 -365 -7 -27 -17 -63 -21 -80 -10 -39 -11 -45 -14 -47 -1 -2 -3 -12 -4 -23 -7 -59 -66 -197 -66 -155 0 6 -5 8 -10 5 -6 -3 -13 0 -16 8 -3 8 -23 23 -44 33 -22 11 -40 23 -40 27 0 5 -4 6 -9 2 -5 -3 -12 -1 -16 5 -9 14 -122 69 -129 62 -3 -3 -6 0 -6 7 0 7 -4 10 -9 7 -5 -4 -11 -1 -13 4 -2 6 -11 12 -19 13 -9 2 -36 12 -60 24 -42 20 -120 55 -164 74 -11 5 -49 18 -85 30 -36 11 -69 25 -75 29 -5 5 -27 11 -47 15 -21 4 -38 11 -38 16 0 5 -7 6 -15 3 -8 -4 -15 -1 -15 6 0 6 -4 9 -9 6 -8 -5 -160 43 -171 54 -3 3 -9 5 -15 6 -25 1 -65 17 -65 26 0 5 5 6 12 2 7 -4 8 -3 4 4 -10 17 -26 15 -26 -3 0 -17 -16 -20 -25 -5 -3 6 -1 10 6 10 7 0 9 3 6 6 -4 4 -13 1 -22 -6 -10 -9 -15 -9 -15 -1 0 7 -9 9 -25 5 -15 -4 -25 -2 -25 5 0 6 -6 8 -14 5 -8 -3 -17 0 -21 5 -3 6 -11 9 -16 6 -5 -4 -15 -3 -21 2 -14 8 -35 14 -58 15 -8 0 -20 4 -25 9 -6 4 -37 11 -70 14 -33 4 -65 11 -71 16 -6 5 -14 6 -17 3 -3 -4 -14 -3 -24 1 -10 5 -22 9 -28 10 -5 1 -12 3 -15 4 -5 2 -24 6 -90 14 -14 2 -29 5 -35 7 -5 1 -20 1 -32 1 -11 -1 -24 2 -27 8 -4 6 -13 8 -21 4 -8 -3 -23 -2 -32 2 -10 4 -40 9 -66 11 -27 2 -54 10 -60 17 -18 19 -37 50 -43 70 -4 9 -10 17 -14 17 -5 0 -12 10 -16 23 -4 12 -11 25 -16 28 -6 4 -11 18 -11 32 -1 14 -6 25 -11 24 -8 -2 -37 38 -53 73 -3 8 -9 17 -12 20 -13 11 -59 86 -65 108 -4 12 -11 22 -15 22 -4 0 -16 17 -27 37 -10 21 -27 46 -36 57 -10 10 -15 22 -13 26 2 4 -5 17 -16 28 -11 12 -16 22 -12 22 4 0 2 4 -5 9 -7 4 -14 17 -15 29 0 11 -5 18 -9 16 -5 -3 -11 3 -15 13 -3 10 -13 26 -21 35 -8 10 -12 24 -9 32 4 10 1 13 -9 9 -8 -3 -14 1 -14 10 0 8 -4 17 -8 19 -4 2 -27 37 -49 79 l-42 76 20 40 c11 22 28 49 38 60 10 11 31 45 46 75 15 30 44 78 66 107 21 28 39 56 39 61 0 13 80 143 94 152 6 4 7 8 2 8 -5 0 -2 8 6 18 8 9 28 41 44 69 23 43 33 52 49 47 14 -4 16 -2 7 4 -12 8 -7 41 9 52 3 3 15 21 26 40 45 81 66 110 76 103 6 -3 7 -1 3 5 -8 13 42 122 56 122 4 0 8 6 8 13 0 18 89 157 101 157 5 0 8 3 7 8 -4 19 55 118 70 115 5 -1 8 7 5 17 -3 12 0 20 6 20 7 0 9 5 6 10 -3 6 -1 10 4 10 6 0 11 7 11 15 0 8 4 15 8 15 4 0 13 12 19 28 12 26 33 62 43 72 3 3 19 31 35 63 17 32 42 71 56 87 15 16 25 31 22 34 -4 4 23 53 37 66 3 3 13 19 22 35 10 17 22 29 27 28 5 -1 7 7 4 17 -3 12 0 20 6 20 7 0 10 4 7 9 -3 4 3 16 14 26 11 10 17 22 14 26 -3 5 0 9 5 9 6 0 11 7 11 15 0 8 5 15 10 15 6 0 10 6 10 13 0 19 50 88 60 82 5 -3 12 0 16 6 4 8 3 9 -4 5 -21 -13 -13 18 15 59 15 22 38 58 50 80 12 22 27 39 33 37 6 -1 8 2 5 8 -4 6 0 19 8 28 8 9 18 27 21 40 4 12 12 22 17 22 5 0 9 7 9 15 0 8 4 15 9 15 5 0 12 11 15 25 4 14 13 25 22 25 9 0 12 5 8 12 -5 7 -3 8 5 4 7 -5 10 -14 7 -22z m-2784 -441 c-3 -16 -10 -31 -15 -35 -6 -3 -12 -17 -14 -30 -2 -16 0 -19 6 -9 7 11 10 9 16 -8 3 -11 4 -29 1 -39 -4 -10 -9 -47 -12 -83 -3 -35 -7 -84 -10 -109 -3 -25 -6 -65 -8 -90 -1 -25 -4 -47 -5 -50 -4 -8 -11 -100 -10 -148 0 -23 -3 -47 -7 -53 -3 -6 -8 -32 -9 -58 -1 -25 -5 -62 -8 -81 -3 -19 -8 -61 -12 -92 -5 -33 -12 -55 -17 -51 -6 3 -7 -4 -2 -18 4 -13 7 -31 6 -39 -1 -8 -3 -42 -6 -75 -2 -33 -7 -69 -9 -80 -3 -11 -6 -35 -6 -53 -1 -23 -10 -43 -31 -64 -16 -16 -30 -33 -30 -37 0 -5 -21 -29 -47 -54 -27 -25 -68 -69 -93 -98 -60 -70 -100 -109 -112 -109 -5 0 -6 -4 -3 -10 3 -5 1 -10 -4 -10 -6 0 -11 -5 -11 -12 0 -14 -91 -103 -102 -100 -5 1 -8 -3 -8 -9 0 -5 -4 -8 -8 -5 -4 2 -14 1 -22 -4 -12 -7 -12 -12 -2 -22 9 -9 12 -9 12 2 0 7 3 10 7 6 4 -3 -3 -17 -15 -29 -11 -12 -31 -32 -42 -45 -18 -20 -24 -21 -38 -11 -14 11 -15 11 -5 -1 10 -10 7 -20 -15 -47 -49 -61 -137 -147 -147 -144 -5 1 -7 -1 -3 -4 11 -11 -11 -47 -24 -39 -6 4 -8 3 -4 -4 3 -6 -7 -18 -23 -28 -16 -9 -27 -22 -25 -29 3 -6 -17 -32 -43 -58 -26 -25 -70 -72 -98 -103 -27 -31 -64 -71 -81 -90 -18 -19 -34 -41 -38 -49 -8 -21 -28 -19 -22 3 2 9 8 36 11 60 4 24 11 39 17 36 6 -4 5 2 -1 15 -9 15 -9 27 -1 41 6 12 8 30 5 41 -4 11 -1 26 5 34 6 8 9 19 5 24 -3 6 -2 19 4 29 5 10 12 38 16 63 9 63 12 84 14 84 1 0 4 15 7 34 2 19 9 39 14 46 5 7 7 14 4 18 -3 3 -1 14 5 25 5 10 13 31 16 45 3 15 8 39 11 55 3 15 12 40 20 56 8 16 14 37 14 47 0 24 17 33 23 12 4 -16 5 -16 6 -1 0 9 -4 20 -9 23 -7 4 -7 11 -2 18 5 7 17 37 27 67 10 30 20 60 24 65 3 6 6 15 6 20 1 6 6 9 12 8 6 -1 9 6 6 16 -3 11 3 30 12 44 9 14 16 28 16 31 -1 16 43 99 46 89 3 -7 9 -13 15 -13 7 0 6 5 -1 14 -10 11 -9 21 3 44 8 16 12 32 9 36 -4 3 -2 6 4 6 6 0 14 11 17 25 4 14 14 25 24 26 10 0 12 3 4 6 -18 7 -4 23 16 17 11 -4 13 -3 5 3 -12 9 -7 53 6 53 4 0 20 26 35 58 29 58 134 233 145 242 3 3 11 14 18 25 6 11 16 19 22 18 6 -2 8 3 5 11 -3 7 2 20 10 29 9 9 16 18 16 22 0 9 54 86 79 112 12 12 21 27 21 33 0 5 4 10 8 10 5 0 18 17 29 38 12 20 35 53 52 72 49 57 51 59 51 65 0 10 192 240 216 258 13 10 21 24 18 29 -4 7 -2 8 4 4 7 -4 12 -1 12 6 0 11 18 38 26 38 1 0 -1 -12 -4 -27z m37 -1392 c11 -7 21 -14 21 -17 0 -3 -5 -2 -12 2 -7 5 -8 3 -3 -5 4 -8 11 -9 16 -4 6 6 87 -30 204 -89 108 -54 202 -98 210 -98 8 0 15 -5 15 -12 0 -6 3 -9 6 -5 8 7 33 -15 28 -25 -2 -3 6 -4 18 0 16 4 19 2 13 -8 -5 -9 -4 -11 3 -6 15 9 183 -75 175 -87 -3 -6 -1 -7 5 -3 12 7 112 -39 124 -57 4 -6 4 -15 1 -20 -3 -5 2 -5 12 1 22 12 68 -5 58 -21 -3 -6 -1 -7 5 -3 15 9 62 -14 62 -31 0 -12 16 -16 63 -16 11 0 16 -5 13 -13 -3 -9 0 -11 11 -7 12 5 14 3 8 -7 -5 -9 -4 -11 4 -6 6 4 31 -3 56 -15 25 -13 41 -25 35 -29 -6 -4 -4 -13 6 -26 8 -10 13 -13 9 -6 -3 6 -2 12 2 12 5 0 20 -21 33 -46 18 -34 22 -48 13 -51 -14 -5 -18 -39 -5 -47 5 -3 8 4 8 14 -1 11 2 19 7 20 4 0 6 -3 5 -6 -2 -3 5 -10 15 -16 10 -5 22 -19 28 -31 5 -12 15 -30 21 -41 10 -15 10 -19 1 -23 -18 -6 -16 -30 1 -30 8 0 12 6 9 14 -3 7 0 13 6 13 6 0 13 -11 17 -25 3 -14 10 -25 15 -25 5 0 9 -6 9 -14 0 -7 7 -19 15 -26 12 -10 13 -16 4 -26 -10 -13 -6 -18 13 -15 4 0 4 -7 1 -16 -4 -11 -2 -14 5 -9 6 4 16 -3 23 -16 7 -12 18 -29 26 -36 7 -7 13 -20 13 -28 0 -8 5 -14 11 -14 6 0 9 -9 6 -20 -3 -12 -1 -18 5 -14 6 4 14 0 19 -7 12 -19 11 -42 0 -34 -5 3 -13 0 -17 -7 -4 -7 -4 -10 1 -6 4 4 15 2 23 -5 13 -9 14 -9 8 1 -4 6 -2 12 3 12 10 0 15 -16 14 -47 0 -6 6 -9 13 -6 8 3 14 -1 14 -9 0 -8 13 -33 28 -54 38 -53 72 -121 65 -128 -4 -3 1 -6 9 -6 9 0 19 -11 22 -25 4 -14 11 -25 17 -25 6 0 7 -4 4 -10 -3 -5 -1 -10 6 -10 6 0 -6 -12 -27 -26 -21 -15 -40 -30 -42 -35 -2 -5 -10 -9 -18 -9 -8 0 -14 -4 -14 -8 0 -5 -30 -28 -66 -52 -36 -24 -68 -50 -71 -57 -3 -7 -9 -13 -14 -13 -11 0 -31 -16 -56 -42 -9 -9 -20 -15 -24 -12 -5 2 -13 -5 -19 -16 -13 -25 -36 -26 -49 -2 -6 9 -11 12 -11 6 0 -5 5 -15 12 -22 9 -9 9 -15 0 -24 -7 -7 -12 -8 -12 -2 0 5 -3 5 -8 -1 -4 -6 -25 -23 -47 -40 -22 -16 -44 -35 -48 -42 -4 -7 -13 -13 -19 -13 -6 0 -17 -8 -24 -17 -12 -16 -15 -16 -24 -3 -9 13 -10 12 -8 -4 2 -14 -11 -29 -42 -50 -25 -16 -49 -36 -53 -43 -4 -7 -17 -13 -28 -13 -11 0 -18 -4 -15 -9 4 -5 -11 -20 -31 -32 -21 -13 -42 -29 -46 -36 -4 -7 -14 -13 -21 -13 -8 0 -17 -7 -20 -16 -4 -9 -9 -14 -13 -10 -3 3 -12 -3 -20 -14 -8 -11 -21 -20 -29 -20 -8 0 -14 -5 -14 -10 0 -6 -7 -13 -16 -17 -9 -3 -30 -19 -47 -35 -18 -16 -40 -27 -49 -25 -10 3 -15 0 -12 -8 3 -6 -2 -18 -11 -25 -8 -7 -15 -9 -15 -4 0 4 -9 -1 -20 -12 -10 -10 -25 -24 -32 -29 -7 -6 -43 -34 -79 -63 -37 -28 -72 -52 -78 -52 -6 0 -11 -5 -11 -10 0 -6 -8 -14 -17 -17 -18 -7 -29 -15 -58 -40 -7 -7 -18 -13 -24 -13 -5 0 -14 -6 -18 -13 -15 -24 -107 -88 -120 -83 -7 3 -12 2 -12 -2 3 -20 -2 -32 -15 -32 -8 0 -17 -7 -20 -16 -5 -14 -9 -14 -23 -3 -10 9 -14 9 -10 2 8 -13 -91 -101 -144 -128 -16 -9 -29 -20 -29 -25 0 -6 -7 -10 -15 -10 -8 0 -15 -4 -15 -8 0 -10 -96 -82 -110 -82 -5 0 -10 -4 -10 -10 0 -5 -10 -8 -22 -6 -13 3 -26 5 -29 5 -4 1 -28 19 -55 41 -26 21 -51 37 -56 34 -4 -3 -11 2 -14 10 -3 9 -13 16 -20 16 -8 0 -17 7 -20 15 -4 8 -13 15 -21 15 -9 0 -13 6 -10 14 4 9 1 13 -6 10 -12 -4 -32 11 -136 103 -99 89 -133 125 -200 213 -19 25 -38 48 -43 51 -16 11 -38 61 -31 72 3 5 2 7 -4 4 -20 -13 -88 84 -71 101 6 6 6 12 -3 17 -8 6 -10 4 -4 -6 4 -8 -1 -5 -12 6 -22 23 -107 185 -97 185 4 0 -1 12 -11 26 -10 16 -12 23 -4 18 7 -4 3 7 -10 24 -12 18 -20 36 -16 41 3 5 1 12 -4 15 -4 3 -12 20 -16 38 -4 18 -9 39 -11 46 -2 6 -6 20 -8 30 -3 9 -5 17 -6 17 -2 0 -3 5 -15 60 -10 51 -16 79 -19 100 -1 11 -6 32 -10 48 -6 18 -4 33 5 43 10 12 10 15 0 12 -18 -4 -22 19 -24 155 l-2 118 55 54 c80 79 150 153 150 160 0 3 21 28 48 55 26 27 70 74 97 105 28 31 76 83 107 115 31 33 54 60 51 60 -4 0 16 24 44 53 28 28 77 81 109 116 33 36 75 82 94 102 19 20 58 63 85 96 28 32 73 81 100 110 28 29 67 72 88 95 20 24 57 65 82 93 25 27 45 52 45 56 0 9 48 -4 79 -20z m1920 -1598 c31 -2 67 -7 81 -13 23 -8 84 -19 120 -20 12 0 12 -2 2 -9 -11 -7 -11 -9 2 -14 9 -4 15 -1 13 6 -1 7 5 10 13 8 8 -2 37 -5 63 -7 27 -2 54 -7 60 -11 7 -4 19 -9 27 -11 55 -11 67 -13 83 -13 9 0 17 -4 17 -8 0 -4 6 -8 13 -8 33 -3 75 -11 86 -17 14 -9 51 -18 73 -18 10 1 20 -4 23 -9 4 -5 11 -7 16 -4 5 4 15 3 22 -2 14 -9 19 -10 52 -12 14 0 25 -6 25 -11 0 -7 -15 -9 -37 -6 -21 3 -29 3 -18 0 11 -4 25 -10 32 -16 7 -6 14 -5 18 2 9 14 45 13 45 -2 0 -10 3 -9 9 1 6 9 11 10 15 2 4 -6 12 -9 17 -6 5 4 12 -1 15 -10 5 -11 9 -13 14 -6 4 8 44 -2 126 -30 168 -58 187 -66 178 -81 -6 -10 -5 -10 7 -1 14 11 15 11 139 -45 19 -9 41 -17 48 -18 7 -1 24 -9 37 -18 13 -9 29 -16 35 -16 16 0 40 -26 32 -34 -3 -4 1 -4 11 0 25 9 79 -15 73 -33 -3 -8 -1 -11 4 -8 5 3 29 -4 52 -17 24 -12 47 -21 52 -20 5 2 6 -4 2 -13 -3 -9 -2 -13 4 -10 12 7 109 -45 107 -58 -3 -14 -115 -236 -138 -274 -14 -23 -25 -30 -39 -26 -28 7 -34 21 -19 41 11 14 11 15 -1 5 -19 -18 -33 -16 -56 5 -10 10 -38 29 -62 43 -23 14 -40 29 -37 32 3 4 2 5 -1 2 -4 -2 -38 12 -77 32 -56 30 -66 38 -51 44 14 6 9 8 -18 8 -43 1 -130 40 -121 54 3 6 1 7 -6 3 -10 -6 -33 -1 -101 22 -8 3 -22 6 -30 8 -37 7 -106 28 -115 34 -5 4 -18 6 -27 5 -10 -2 -18 0 -18 4 0 5 -11 6 -25 3 -16 -3 -34 2 -47 14 -12 11 -18 13 -14 6 7 -11 -12 -12 -95 -9 -57 3 -122 8 -144 11 -31 4 -34 3 -10 -3 l30 -8 -25 -6 c-14 -4 -38 -8 -55 -11 -47 -6 -59 -10 -68 -21 -4 -6 -14 -2 -24 10 -13 17 -15 17 -10 2 5 -13 0 -20 -16 -26 -12 -5 -25 -7 -29 -4 -5 2 -8 1 -8 -4 0 -9 -61 -39 -72 -35 -5 1 -8 -3 -8 -9 0 -5 -4 -7 -10 -4 -5 3 -10 1 -10 -5 0 -6 -4 -8 -10 -5 -5 3 -10 1 -10 -6 0 -7 -3 -10 -6 -6 -4 3 -13 0 -21 -8 -9 -10 -24 -13 -41 -9 -20 4 -23 3 -12 -5 8 -5 12 -12 10 -14 -29 -23 -70 -47 -70 -40 0 4 -4 3 -8 -4 -8 -13 -79 -63 -90 -63 -4 0 -22 -16 -41 -35 -19 -19 -38 -32 -43 -29 -4 3 -8 1 -8 -5 0 -6 -12 -17 -27 -25 -16 -8 -39 -25 -53 -38 -13 -12 -28 -22 -32 -21 -5 2 -8 -1 -8 -7 0 -5 -19 -22 -42 -37 -24 -16 -47 -33 -53 -39 -15 -15 -83 -64 -90 -64 -3 0 -15 -9 -27 -20 -24 -22 -44 -27 -32 -9 4 7 -14 -9 -39 -34 -26 -25 -57 -49 -69 -53 -13 -4 -25 -10 -28 -14 -7 -11 -130 -71 -130 -64 0 3 -11 -1 -25 -10 -14 -9 -25 -13 -25 -9 0 5 -4 3 -8 -4 -4 -6 -21 -13 -39 -16 -17 -3 -36 -8 -41 -11 -9 -5 -47 -12 -122 -22 -19 -2 -56 -7 -82 -10 -27 -4 -67 -2 -90 5 -24 6 -72 13 -108 15 -81 6 -100 13 -94 34 5 15 4 15 -5 1 -11 -17 -71 -15 -71 2 0 5 -3 8 -7 8 -5 -1 -10 0 -13 1 -3 1 -13 3 -22 5 -9 2 -41 14 -70 28 -29 14 -83 37 -120 52 -66 26 -66 27 -47 46 10 10 23 19 28 19 4 0 20 11 35 25 15 14 31 25 35 25 5 0 19 11 32 25 13 13 29 25 35 25 7 0 14 7 18 15 3 8 12 15 20 15 7 0 16 7 20 15 3 8 12 15 20 15 7 0 17 7 20 16 4 10 14 14 25 11 13 -3 18 0 15 8 -3 7 3 16 14 19 11 4 23 13 26 21 3 8 12 15 21 15 8 0 15 4 15 10 0 5 18 19 40 30 23 12 43 27 47 35 3 8 11 15 18 15 7 0 15 4 17 8 2 5 28 26 58 48 30 21 68 51 83 66 16 16 34 28 42 28 7 0 20 11 29 25 9 14 21 23 27 20 5 -4 12 1 15 9 3 9 12 16 19 16 7 0 15 7 19 15 3 8 13 15 21 15 10 0 13 -5 9 -12 -4 -7 -3 -8 4 -4 6 4 9 13 5 21 -3 8 -1 15 4 15 6 0 23 11 39 25 16 14 34 29 39 33 57 43 107 80 125 92 12 8 34 25 48 38 15 12 51 39 81 59 29 20 61 44 70 54 8 11 21 19 27 19 7 0 14 3 16 8 2 4 22 20 45 35 23 16 44 35 47 43 3 8 12 14 19 14 8 0 27 13 43 30 16 16 33 30 37 30 8 0 21 10 52 38 8 7 19 10 25 7 5 -3 10 0 10 8 0 17 81 68 94 59 5 -3 35 -7 65 -9z m856 -727 c17 -2 32 -5 35 -6 3 -1 8 -2 12 -1 4 0 36 -11 72 -24 36 -14 66 -22 66 -19 0 4 7 1 15 -6 8 -7 15 -9 15 -4 0 5 4 4 8 -2 4 -5 29 -18 56 -28 36 -14 45 -21 35 -28 -10 -7 -7 -7 8 -3 13 4 32 -1 48 -11 14 -9 25 -12 25 -8 0 5 4 4 8 -2 4 -7 23 -19 42 -27 39 -18 112 -59 120 -68 3 -3 29 -22 59 -42 30 -20 56 -44 57 -54 3 -19 0 -22 -73 -97 -26 -27 -41 -45 -33 -41 13 8 13 6 1 -8 -7 -9 -18 -14 -24 -10 -5 3 -7 1 -3 -5 3 -6 -30 -43 -74 -84 -77 -70 -122 -101 -92 -66 10 13 10 18 1 24 -7 4 -9 3 -5 -4 3 -6 2 -13 -3 -17 -6 -3 -8 -12 -4 -20 9 -24 -25 -18 -70 14 -23 16 -46 30 -52 31 -5 1 -20 6 -33 11 -13 5 -28 9 -33 9 -5 0 -9 5 -9 11 0 5 -4 7 -10 4 -5 -3 -10 -1 -10 4 0 6 -13 11 -30 11 -16 0 -30 5 -30 11 0 5 5 7 12 3 7 -4 8 -3 4 5 -6 8 -11 9 -20 1 -13 -10 -67 2 -92 21 -6 5 -14 6 -17 2 -4 -3 -13 0 -22 7 -8 7 -22 9 -31 6 -9 -3 -21 -3 -27 1 -13 8 -181 8 -194 0 -5 -3 -22 -6 -39 -6 -36 0 -61 -5 -70 -13 -3 -4 -12 -4 -20 -1 -8 3 -14 0 -14 -7 0 -6 -4 -9 -8 -6 -5 3 -21 -1 -35 -9 -15 -8 -30 -14 -33 -14 -10 1 -119 -56 -126 -66 -4 -5 -8 -7 -8 -2 0 4 -10 1 -23 -8 -13 -8 -27 -12 -31 -8 -4 5 -6 2 -4 -6 3 -15 -61 -53 -74 -44 -4 2 -5 -2 -2 -10 3 -9 -11 -24 -40 -41 -25 -15 -46 -31 -46 -37 0 -6 -4 -8 -9 -5 -5 3 -16 -6 -26 -20 -9 -14 -19 -23 -22 -20 -3 3 -27 -12 -52 -35 -57 -50 -69 -59 -76 -59 -3 0 -18 -11 -32 -24 -15 -14 -30 -23 -35 -20 -4 3 -8 1 -8 -5 0 -14 -78 -53 -90 -46 -6 4 -7 -1 -3 -11 4 -11 3 -15 -5 -10 -6 3 -14 2 -17 -4 -8 -13 -145 -83 -145 -74 0 4 -7 1 -15 -6 -14 -12 -31 -12 -165 -5 -84 4 -183 15 -205 22 -11 4 -29 8 -40 9 -43 6 -70 12 -70 14 0 1 -10 4 -22 6 -13 2 -33 6 -45 8 -13 2 -23 5 -23 6 0 3 -39 10 -65 12 -8 0 -19 4 -25 8 -10 7 -62 23 -80 25 -5 0 -16 4 -23 9 -7 4 -16 5 -19 2 -3 -3 -11 -1 -18 4 -6 5 -22 12 -36 14 -13 3 -24 5 -24 6 0 1 -10 3 -21 5 -46 9 -75 25 -68 37 6 10 4 10 -8 0 -11 -9 -18 -10 -23 -2 -3 6 -10 8 -14 6 -4 -3 -21 3 -37 13 -16 9 -56 27 -89 40 -54 21 -145 60 -185 80 -20 11 -154 83 -158 86 -7 6 12 35 24 35 7 0 17 6 21 14 4 8 26 27 48 41 l39 27 73 -36 c40 -20 80 -36 88 -36 8 0 15 -5 15 -11 0 -5 5 -7 10 -4 9 5 15 -24 11 -48 -1 -5 3 -6 8 -3 5 3 7 16 5 29 -2 12 -2 16 2 9 3 -6 10 -10 15 -6 5 3 9 0 9 -5 0 -6 3 -10 8 -10 29 5 44 -2 37 -18 -5 -14 -3 -15 5 -7 9 9 19 8 42 -4 17 -8 38 -16 47 -17 37 -5 60 -18 54 -29 -4 -6 -1 -6 9 2 12 10 21 10 47 -1 17 -7 29 -16 26 -19 -4 -3 -1 -9 5 -13 6 -4 9 -1 8 7 -3 13 2 13 77 1 53 -8 299 -8 350 0 44 7 77 14 85 18 3 1 10 3 15 4 6 1 23 7 38 13 16 7 48 17 73 23 24 6 44 16 44 21 0 5 4 7 9 4 5 -4 11 -1 13 5 2 6 15 12 30 12 14 1 24 5 21 10 -2 4 3 7 11 7 9 0 16 5 16 11 0 5 5 7 10 4 6 -3 10 -2 10 4 0 5 16 15 35 21 19 6 35 16 35 21 0 5 7 9 15 9 8 0 15 5 15 10 0 6 7 10 15 10 8 0 23 9 32 20 10 11 22 20 28 20 6 0 24 14 40 30 16 17 34 30 41 30 7 0 14 3 16 8 5 12 85 72 96 72 5 0 12 7 16 15 3 8 11 15 18 15 7 0 23 11 35 23 12 13 41 36 65 53 24 16 45 32 46 37 2 4 10 7 17 7 7 0 15 7 19 15 3 8 12 15 20 15 7 0 17 7 20 16 3 8 10 13 15 9 6 -3 14 2 19 12 6 9 25 26 44 37 19 12 47 29 61 40 15 10 38 19 51 20 13 0 22 4 20 7 -2 3 14 14 36 24 22 10 40 23 40 28 0 6 3 8 6 5 3 -3 33 5 67 19 34 14 78 28 97 30 19 3 42 8 52 12 19 7 221 5 273 -3z m-118 -665 c17 -1 21 -6 17 -18 -5 -16 -4 -16 10 1 15 19 53 15 41 -4 -9 -14 8 -13 23 2 8 8 15 8 25 0 8 -7 17 -9 20 -5 4 3 7 1 7 -6 0 -7 4 -9 10 -6 14 9 70 -26 63 -39 -3 -7 -1 -6 6 0 10 9 24 7 57 -10 48 -23 52 -30 29 -52 -8 -9 -15 -12 -15 -7 0 4 -4 4 -8 -2 -4 -5 -20 -18 -37 -27 -152 -85 -212 -117 -225 -120 -8 -2 -17 -5 -20 -9 -8 -9 -195 -78 -221 -81 -13 -2 -30 -7 -36 -11 -7 -5 -17 -6 -22 -2 -5 3 -12 1 -16 -5 -4 -7 -13 -6 -27 1 -15 8 -19 8 -14 0 8 -12 -7 -20 -45 -25 -13 -2 -31 -6 -39 -9 -8 -3 -31 -8 -51 -10 -20 -3 -41 -7 -46 -10 -5 -3 -35 -8 -66 -11 -31 -3 -68 -8 -82 -12 -15 -4 -32 -1 -42 7 -9 8 -14 9 -10 2 15 -24 -178 -28 -207 -4 -11 9 -15 9 -18 0 -2 -7 -15 -14 -29 -16 -23 -3 -23 -3 6 21 44 36 105 67 117 59 6 -3 8 -2 5 4 -5 8 30 47 43 48 3 0 19 12 35 28 16 15 33 27 36 27 4 0 24 16 45 35 22 19 45 35 52 35 6 0 12 4 12 8 0 5 27 26 60 47 33 21 60 42 60 47 0 4 7 8 15 8 8 0 15 5 15 11 0 5 5 7 10 4 6 -3 10 -2 10 3 0 13 50 33 62 26 6 -4 8 -2 5 3 -6 9 39 35 60 35 4 0 14 4 21 10 6 6 12 7 12 4 0 -4 9 -2 20 4 15 8 20 8 20 -2 0 -8 5 -5 11 5 7 11 17 16 28 12 10 -3 28 -2 39 2 18 7 88 9 169 4z"/>
<path d="M4840 7011 c-15 -14 -30 -33 -35 -41 -12 -20 -24 -100 -14 -100 5 0 11 -16 15 -36 4 -24 9 -32 15 -23 6 11 9 10 14 -2 10 -28 92 -30 132 -4 15 11 33 20 38 20 6 1 9 7 7 14 -1 7 1 18 6 25 13 17 13 59 -1 85 -15 31 -54 71 -61 63 -3 -3 -6 -1 -6 5 0 5 -14 8 -30 5 -17 -2 -36 0 -43 6 -8 7 -19 2 -37 -17z"/>
<path d="M6440 6075 c-8 -2 -32 -6 -53 -10 -30 -5 -41 -13 -57 -45 -34 -67 -22 -129 34 -177 14 -13 26 -21 26 -18 0 3 12 -1 28 -8 24 -13 29 -12 46 4 11 11 25 19 32 19 13 0 47 46 51 69 1 8 4 26 8 39 8 34 -54 130 -76 117 -5 -4 -9 -1 -9 4 0 11 -2 11 -30 6z"/>
<path d="M6317 5234 c-3 -4 -27 -7 -53 -8 -31 -1 -50 -7 -59 -19 -7 -10 -17 -17 -21 -16 -21 4 -26 -2 -14 -16 8 -9 8 -15 2 -15 -7 0 -9 -20 -6 -52 7 -82 8 -86 19 -82 6 3 20 -4 30 -16 36 -39 115 -22 151 33 29 45 19 120 -20 154 -15 13 -24 28 -21 33 7 11 2 13 -8 4z"/>
<path d="M4072 4605 c3 -4 -13 -24 -36 -45 -31 -28 -42 -47 -44 -72 -2 -18 -4 -42 -6 -52 -1 -11 8 -39 20 -62 21 -39 21 -43 6 -47 -11 -3 -8 -5 8 -6 14 0 55 -3 92 -5 66 -5 109 1 106 13 -1 3 9 23 22 44 14 25 23 53 22 78 0 21 -1 40 -2 42 -1 1 -3 9 -5 18 -3 19 -62 78 -79 80 -58 6 -83 10 -96 15 -8 3 -12 2 -8 -1z"/>
<path d="M3593 3947 c1 -7 -6 -11 -15 -9 -10 2 -18 -2 -18 -8 0 -5 -9 -10 -20 -10 -14 0 -18 -5 -13 -16 3 -9 1 -19 -5 -23 -15 -9 -17 -82 -2 -113 7 -15 24 -35 37 -43 12 -9 23 -21 23 -28 0 -8 -4 -7 -10 3 -8 12 -11 13 -22 2 -7 -8 -8 -13 -3 -12 6 2 12 1 15 0 3 -1 19 -3 35 -5 24 -4 26 -3 10 5 -17 7 -15 9 13 9 73 2 119 55 113 131 -4 59 -33 88 -116 120 -18 7 -24 6 -22 -3z"/>
</g>
</svg>
