<?xml version="1.0" standalone="no"?>
<!DOCTYPE svg PUBLIC "-//W3C//DTD SVG 20010904//EN"
 "http://www.w3.org/TR/2001/REC-SVG-20010904/DTD/svg10.dtd">
<svg version="1.0" xmlns="http://www.w3.org/2000/svg"
 width="1024.000000pt" height="1024.000000pt" viewBox="0 0 1024.000000 1024.000000"
 preserveAspectRatio="xMidYMid meet">
<metadata>
Created by potrace 1.16, written by Peter Selinger 2001-2019
</metadata>
<g transform="translate(0.000000,1024.000000) scale(0.100000,-0.100000)"
fill="#000000" stroke="none">
<path d="M5211 9293 c-63 -12 -121 -73 -153 -160 -18 -48 -22 -80 -22 -184
l-1 -125 -58 18 c-67 20 -124 23 -181 7 -27 -8 -41 -8 -49 0 -6 6 -16 11 -21
11 -6 0 -3 -5 7 -11 17 -10 15 -14 -21 -45 -60 -51 -87 -144 -62 -210 8 -21 8
-29 -2 -36 -10 -6 -9 -8 4 -8 20 0 60 -48 51 -63 -3 -5 -1 -7 4 -4 6 4 18 -2
28 -13 28 -31 94 -66 163 -86 34 -10 62 -22 62 -26 0 -4 -3 -7 -7 -6 -10 2
-38 -9 -93 -35 -25 -12 -50 -22 -57 -22 -6 0 -15 -4 -20 -9 -5 -5 -2 -6 7 -1
8 5 2 -5 -15 -21 -16 -16 -33 -29 -36 -27 -3 1 -9 29 -12 62 -10 93 -43 167
-101 227 -75 76 -158 94 -246 52 -25 -12 -48 -20 -52 -20 -5 1 -7 -1 -6 -6 1
-4 -12 -29 -30 -56 -42 -65 -57 -140 -44 -225 5 -36 9 -67 8 -68 -1 -1 -22 4
-46 11 -25 7 -38 15 -30 18 20 7 -122 1 -170 -7 -97 -16 -176 -105 -187 -209
-5 -47 -2 -64 21 -111 16 -31 45 -69 67 -87 21 -17 36 -35 32 -41 -3 -6 -1 -7
4 -4 6 4 36 -5 67 -19 32 -14 62 -27 69 -28 7 -2 30 -6 52 -11 22 -4 43 -9 47
-11 3 -2 -7 -28 -23 -57 -15 -28 -34 -75 -40 -104 -7 -29 -16 -50 -21 -47 -4
3 -6 9 -4 13 3 4 -41 7 -96 7 -56 0 -96 -2 -90 -4 6 -2 -7 -18 -31 -36 -118
-90 -111 -282 16 -448 36 -47 37 -58 7 -58 -10 0 -49 -16 -88 -35 -128 -64
-193 -165 -178 -273 4 -26 8 -55 9 -64 1 -9 4 -16 7 -15 4 1 26 -20 49 -47 24
-27 53 -51 65 -52 11 -2 49 -6 84 -10 35 -4 62 -11 62 -18 0 -7 3 -8 8 -1 4 6
37 18 73 26 l65 15 -11 -68 c-7 -38 -15 -71 -19 -75 -12 -12 -81 -35 -106 -35
-14 0 -19 -3 -13 -5 8 -3 -2 -18 -26 -41 -49 -47 -76 -124 -68 -193 10 -79 53
-157 131 -234 39 -38 70 -73 69 -77 -2 -4 3 -5 10 -2 7 2 21 -2 32 -10 19 -14
19 -15 -10 -25 -106 -39 -199 -134 -230 -236 -5 -16 -13 -9 -44 40 -21 33 -65
93 -99 134 -33 41 -58 79 -55 84 3 6 2 7 -4 4 -11 -7 -86 66 -78 76 3 4 2 5
-1 2 -4 -2 -41 24 -83 59 -42 34 -105 82 -140 106 -70 47 -281 150 -348 170
-24 7 -40 17 -36 23 3 6 1 7 -4 4 -6 -4 -44 1 -84 11 -41 10 -69 21 -64 24 6
2 4 3 -3 2 -7 -2 -49 3 -95 11 -180 30 -249 37 -417 38 -180 1 -313 -14 -363
-39 -15 -8 -32 -12 -38 -9 -5 4 -8 3 -7 -2 4 -12 -38 -64 -46 -56 -3 4 -1 -9
5 -28 6 -19 20 -41 30 -50 10 -9 15 -20 11 -24 -4 -3 -2 -5 3 -3 13 4 56 -27
50 -35 -3 -4 -2 -5 2 -2 15 11 227 -131 217 -146 -3 -5 -2 -9 3 -8 16 4 43
-13 36 -24 -3 -5 -2 -7 4 -4 8 5 83 -65 153 -146 21 -24 22 -30 10 -38 -13 -9
-13 -10 0 -6 8 2 23 -6 32 -19 32 -40 161 -258 161 -271 0 -7 4 -13 8 -13 10
0 92 -131 92 -147 0 -7 2 -11 5 -9 8 9 112 -145 106 -156 -4 -6 -2 -8 4 -4 6
3 37 -25 70 -66 33 -40 87 -100 121 -132 33 -33 57 -64 54 -69 -3 -6 -2 -7 4
-4 5 3 47 -26 94 -65 46 -38 112 -89 146 -112 35 -24 60 -47 55 -52 -4 -5 -3
-6 2 -2 12 10 48 -11 41 -23 -4 -5 -3 -8 2 -7 18 5 53 -14 47 -25 -4 -7 -4 -9
1 -5 4 4 20 1 36 -8 27 -13 34 -25 30 -47 -1 -5 3 -6 9 -2 6 3 8 11 4 17 -3 5
8 2 25 -6 17 -9 31 -19 31 -22 0 -3 -5 -2 -12 2 -7 4 -8 3 -4 -4 4 -6 13 -9
20 -6 19 7 138 -55 130 -68 -4 -7 -2 -8 5 -4 34 22 414 -244 394 -276 -3 -6
-2 -8 4 -5 9 6 48 -30 82 -75 11 -15 11 -21 0 -35 -13 -16 -12 -17 3 -5 15 12
19 10 32 -17 9 -16 16 -36 15 -43 0 -7 -4 -4 -9 7 -8 17 -9 16 -7 -7 2 -15 7
-31 12 -35 4 -4 5 -2 1 5 -4 6 -3 12 3 12 12 0 35 -106 25 -121 -4 -7 -3 -9 3
-6 23 14 43 -248 28 -361 -12 -86 -37 -207 -46 -218 -5 -6 -6 -13 -3 -16 3 -3
-24 -151 -60 -329 -36 -178 -75 -389 -88 -468 -15 -97 -25 -136 -29 -120 -7
24 -7 24 -8 -3 -1 -15 3 -29 8 -32 4 -3 4 -29 0 -58 -10 -57 -25 -267 -33
-436 -3 -56 -8 -107 -11 -112 -3 -6 -3 -10 2 -10 4 0 9 -35 11 -78 5 -164 24
-323 42 -344 23 -29 76 -27 108 5 24 25 24 26 13 106 -28 192 -19 606 19 857
26 175 62 348 69 335 3 -5 7 10 7 32 3 88 164 485 220 544 11 11 20 26 22 34
6 26 67 107 76 101 5 -3 6 0 2 6 -4 7 23 41 66 85 168 168 407 216 843 171 83
-8 238 -17 345 -19 161 -3 217 0 320 17 69 11 144 21 167 22 22 0 39 3 37 6
-3 2 55 23 128 47 98 31 134 39 140 30 5 -8 8 -7 8 4 0 11 34 30 103 59 56 24
137 61 181 82 114 57 248 109 264 103 7 -2 11 -1 8 4 -8 12 218 83 270 85 23
0 40 4 38 7 -4 7 42 14 162 25 88 8 237 -11 329 -41 68 -22 97 -29 122 -26 22
2 53 44 53 72 0 29 -56 119 -120 192 -24 27 -38 52 -34 58 4 7 3 9 -3 6 -11
-7 -86 66 -78 76 3 4 2 5 -2 2 -3 -3 -38 26 -78 64 -39 37 -102 91 -138 118
-37 28 -63 54 -59 57 4 4 3 6 -3 4 -16 -5 -86 43 -79 54 4 6 2 8 -4 5 -12 -8
-44 2 -37 12 2 4 -1 8 -8 8 -7 0 -50 22 -96 48 -270 153 -550 231 -876 242
-237 8 -460 -27 -661 -102 -38 -15 -76 -27 -84 -28 -8 -1 -17 -5 -20 -8 -6 -8
-167 -89 -175 -89 -4 0 -3 5 1 12 5 7 3 8 -5 4 -7 -5 -10 -10 -7 -13 3 -3 -40
-36 -97 -73 -56 -37 -119 -81 -141 -98 -21 -18 -43 -29 -49 -25 -5 3 -7 1 -4
-4 8 -13 -26 -45 -44 -41 -7 2 -13 -1 -14 -7 0 -5 -47 -57 -105 -115 -117
-117 -205 -225 -304 -375 -36 -55 -72 -108 -81 -117 -8 -10 -13 -18 -10 -18 3
0 -4 -18 -15 -40 -13 -25 -25 -38 -32 -34 -7 4 -8 3 -4 -4 10 -17 -79 -193
-142 -281 -101 -139 -146 -205 -180 -266 -18 -33 -31 -51 -27 -40 4 11 9 31
11 44 3 14 7 28 10 33 3 5 7 23 10 41 7 61 28 126 37 120 6 -4 7 -1 2 6 -8 14
54 273 64 267 3 -2 6 10 7 27 1 39 75 307 83 302 3 -1 6 9 7 23 1 34 65 234
116 366 68 176 246 485 270 469 7 -3 8 -1 4 6 -9 15 36 73 143 183 74 77 87
86 100 74 46 -39 149 -47 213 -16 22 11 45 17 50 14 4 -3 7 -2 6 3 -2 5 10 22
25 38 41 44 86 109 108 161 l21 45 27 -43 c16 -24 40 -54 54 -67 15 -13 24
-29 20 -35 -3 -6 -3 -8 2 -4 4 4 27 -4 50 -18 131 -76 285 -11 316 134 14 69
5 141 -28 217 -14 33 -26 68 -26 77 -1 9 -4 16 -7 15 -3 -1 -20 14 -38 34
l-31 36 57 17 c166 52 263 160 271 301 2 37 9 56 28 75 55 55 68 96 68 216 l0
110 27 -10 c15 -6 23 -13 17 -17 -6 -3 2 -6 18 -7 15 0 65 -1 110 -2 73 -3 86
0 127 24 127 74 138 262 24 392 -38 43 -131 100 -190 115 -42 11 -45 14 -29
25 33 23 103 123 125 179 13 30 26 52 29 49 4 -4 4 3 2 15 -2 12 -5 50 -7 85
-2 35 -5 62 -8 61 -3 -2 -15 9 -25 25 -11 16 -30 35 -43 42 -20 10 -21 13 -7
18 9 3 -21 7 -68 8 -55 2 -98 -3 -126 -13 -24 -8 -47 -15 -51 -15 -4 0 -11 23
-14 52 -4 28 -12 60 -17 70 -9 17 -5 18 78 12 48 -4 92 -12 96 -18 6 -7 7 -5
4 5 -4 11 6 18 38 27 58 15 124 68 153 122 30 56 28 144 -5 207 -12 22 -19 44
-15 49 4 4 2 4 -4 1 -6 -4 -20 3 -30 14 -58 64 -160 107 -266 110 -32 2 -58 4
-58 7 0 2 9 17 20 32 52 73 73 141 74 235 1 77 -3 97 -24 140 -13 28 -23 55
-21 60 1 6 -1 7 -4 3 -4 -4 -27 4 -52 18 -34 21 -56 26 -104 25 -34 0 -75 -8
-92 -16 -30 -15 -32 -15 -49 7 -10 13 -16 28 -14 34 2 6 0 17 -6 25 -7 11 -8
9 -4 -6 4 -13 -7 -6 -33 21 -22 23 -43 39 -47 35 -4 -3 8 14 28 39 49 62 78
133 78 191 0 57 -12 92 -48 139 -15 19 -26 39 -24 43 1 5 -2 6 -7 3 -5 -3 -26
1 -47 10 -77 32 -180 8 -304 -71 -25 -16 -47 -28 -49 -27 -2 1 -6 16 -8 34 -7
66 -37 154 -71 211 -33 57 -75 106 -90 107 -4 0 -23 5 -42 10 -36 10 -66 11
-109 3z m72 -157 c-3 -6 -3 -8 2 -4 13 12 47 -12 41 -28 -3 -8 -2 -13 3 -10 5
3 19 -18 31 -47 27 -62 36 -161 23 -265 -8 -57 -6 -77 4 -92 9 -13 10 -20 3
-20 -6 0 -8 -5 -4 -11 5 -8 8 -8 14 0 7 13 40 4 40 -10 0 -5 5 -9 11 -9 5 0 7
5 4 10 -3 6 0 10 8 10 8 0 48 37 89 81 45 48 81 79 87 74 6 -3 10 -1 9 5 -5
21 102 70 153 70 56 0 69 -12 69 -65 0 -47 -31 -98 -93 -152 -51 -45 -88 -62
-144 -69 -104 -11 -113 -14 -127 -42 -19 -38 -6 -64 46 -95 57 -33 135 -117
158 -170 24 -54 38 -133 22 -123 -8 4 -10 2 -6 -7 7 -19 -22 -47 -47 -47 -11
0 -18 4 -15 9 4 5 -2 7 -12 4 -29 -7 -172 124 -172 158 0 20 -2 24 -16 32 -8
4 -14 14 -14 22 0 16 -47 55 -65 55 -34 0 -56 -37 -75 -123 -11 -48 -31 -111
-45 -139 -81 -161 -197 -156 -182 6 7 67 30 121 88 208 44 64 49 98 19 128
-17 17 -33 20 -108 20 -90 0 -218 32 -206 51 3 5 -1 6 -9 3 -17 -6 -87 69 -87
94 0 31 24 53 69 63 51 11 111 2 129 -20 8 -9 11 -10 7 -3 -3 6 -4 12 0 12 9
0 97 -47 130 -69 41 -28 79 -27 103 4 22 28 21 39 -19 155 -30 90 -32 247 -4
305 20 41 57 67 81 58 8 -3 11 -10 7 -17z m-744 -720 c21 -21 30 -39 26 -47
-5 -7 -4 -10 2 -6 21 13 36 -81 30 -189 -7 -131 5 -168 60 -183 33 -9 40 -8
61 12 13 12 31 34 40 50 9 15 22 27 30 27 7 0 11 4 8 8 -7 12 62 76 109 101
l40 21 6 -97 c3 -54 12 -111 20 -127 12 -25 11 -30 -6 -42 -29 -21 -93 -36
-137 -32 -21 2 -39 0 -40 -4 -2 -5 -17 -9 -35 -11 -17 -1 -30 -4 -28 -6 3 -2
-2 -16 -10 -31 -13 -26 -13 -30 10 -54 13 -14 29 -26 35 -26 6 0 8 -4 5 -10
-3 -5 0 -8 7 -5 37 14 205 -81 194 -110 -2 -6 0 -18 6 -26 7 -11 8 -9 3 6 -9
28 8 9 34 -38 45 -80 13 -146 -75 -154 -92 -9 -182 63 -245 193 -16 35 -39 70
-49 77 -11 8 -18 16 -16 18 2 2 -7 5 -20 5 -14 1 -23 0 -20 -3 3 -3 -4 -13
-15 -22 -11 -9 -27 -43 -35 -76 -26 -99 -94 -211 -150 -246 -39 -24 -106 -25
-125 -2 -32 38 -2 218 33 197 6 -4 8 -3 5 3 -8 13 17 47 90 125 56 59 59 68
43 98 -8 16 -8 18 5 14 8 -4 15 -1 15 7 0 7 -3 10 -6 6 -3 -3 -23 1 -45 8 -27
10 -60 12 -104 8 -148 -14 -312 54 -330 137 -13 59 41 100 134 100 42 0 111
-20 111 -32 0 -5 5 -6 11 -3 13 8 120 -55 113 -67 -3 -5 -2 -8 3 -7 4 1 25 -6
47 -15 37 -17 39 -17 60 3 13 12 25 19 27 16 18 -17 -5 67 -36 131 -37 79 -61
204 -48 255 21 85 93 106 152 45z m1636 -76 c-3 -14 1 -18 16 -15 46 9 37
-113 -16 -213 -20 -39 -65 -98 -108 -142 -39 -41 -67 -71 -60 -67 7 5 18 -5
28 -27 l16 -34 122 0 c168 0 268 -25 314 -79 16 -18 21 -33 17 -52 -4 -20 -3
-23 5 -11 9 12 11 11 11 -8 0 -38 -50 -79 -104 -87 -109 -17 -202 12 -284 87
-46 42 -71 44 -103 8 -9 -11 -19 -17 -22 -14 -3 3 -3 -8 -1 -24 3 -17 25 -61
50 -98 54 -84 85 -162 89 -232 6 -91 -20 -141 -74 -142 -30 0 -106 73 -97 95
3 9 2 13 -4 10 -14 -9 -57 141 -65 228 -7 70 -10 79 -34 91 -18 9 -34 11 -50
4 -27 -9 -58 -47 -53 -63 7 -20 -32 -118 -66 -168 -76 -112 -146 -145 -199
-95 -30 28 -32 113 -3 176 22 49 96 130 176 193 30 24 64 62 75 83 10 21 16
36 13 33 -3 -3 -18 9 -33 26 -25 28 -79 48 -64 24 4 -6 0 -8 -8 -5 -42 16 -59
18 -59 9 0 -14 -66 -2 -126 24 -96 42 -133 124 -95 208 12 25 21 51 21 56 0
20 17 11 66 -32 98 -86 190 -117 284 -96 20 5 29 0 42 -22 12 -20 26 -29 43
-29 14 0 25 -4 25 -10 0 -5 11 0 24 11 18 15 26 35 31 77 9 78 24 132 36 132
6 0 8 4 5 8 -16 27 121 199 150 188 8 -3 12 -2 9 3 -6 10 32 19 52 13 6 -2 10
-12 8 -22z m-962 -471 c3 -12 10 -18 16 -15 19 12 0 -115 -26 -173 -19 -42
-20 -46 -22 -66 -2 -30 -19 -13 -64 64 -25 43 -57 88 -71 99 -15 11 -26 26
-26 34 0 26 105 73 171 77 9 1 19 -8 22 -20z m172 -130 c-3 -5 1 -6 9 -3 9 4
18 -1 22 -10 3 -9 10 -13 15 -10 5 3 17 0 26 -5 16 -10 17 -10 1 -11 -9 0 -20
-5 -24 -11 -7 -12 20 -8 59 7 9 3 -3 -13 -25 -37 -22 -23 -53 -64 -70 -90 -16
-27 -32 -49 -34 -49 -12 0 -53 33 -49 39 2 4 7 21 10 37 8 46 31 105 38 98 3
-3 3 3 0 15 -7 26 4 54 17 46 6 -4 8 -11 5 -16z m-598 -404 c25 -12 37 -23 30
-27 -9 -5 -9 -10 0 -19 13 -13 36 -2 27 13 -5 8 1 9 17 5 13 -4 31 -7 40 -7
14 0 14 -5 0 -59 l-15 -59 -53 45 c-29 25 -50 50 -46 56 3 5 1 7 -4 4 -6 -4
-48 16 -94 43 -46 28 -92 50 -101 50 -23 0 -23 -1 8 54 l26 47 62 -63 c33 -35
80 -72 103 -83z m462 99 c29 -21 60 -89 61 -131 0 -46 -41 -148 -86 -217 -96
-143 -107 -173 -78 -214 20 -29 55 -28 140 4 42 15 96 27 139 29 45 3 59 2 40
-3 l-30 -8 33 -5 c17 -3 32 -2 32 3 0 15 53 8 95 -13 71 -35 79 -93 23 -148
-70 -68 -222 -68 -364 0 -74 35 -88 36 -108 7 -24 -34 -21 -49 32 -162 3 -5 0
-6 -7 -2 -6 4 -11 2 -11 -3 0 -6 6 -11 13 -11 17 0 40 -47 31 -62 -4 -6 -2 -8
3 -5 13 8 25 -46 16 -70 -4 -11 -3 -14 6 -9 9 6 11 -14 9 -84 -3 -77 -6 -94
-23 -106 -10 -8 -15 -14 -9 -14 20 -1 -40 -40 -61 -40 -86 0 -160 191 -135
346 6 32 10 71 10 87 0 35 -47 85 -75 79 -23 -5 -65 -47 -65 -66 0 -7 -9 -21
-20 -31 -11 -10 -20 -23 -20 -30 0 -22 -165 -173 -177 -162 -3 3 -12 0 -20 -8
-8 -9 -34 -15 -61 -15 -52 0 -82 23 -82 61 0 35 22 97 42 118 10 11 18 24 18
29 0 24 117 124 178 154 78 38 82 42 82 89 0 44 -16 59 -98 92 -131 53 -244
143 -290 231 -43 81 26 127 141 95 46 -12 163 -92 159 -109 -1 -6 1 -9 6 -6 9
5 71 -52 72 -66 0 -5 3 -8 6 -7 3 0 18 -17 31 -38 32 -48 51 -63 79 -63 47 0
63 28 84 150 24 134 46 193 97 262 34 47 85 88 108 88 6 0 21 -7 34 -16z
m-1192 -75 c32 -12 84 -59 78 -69 -3 -5 1 -10 9 -13 25 -10 85 -131 105 -212
11 -43 25 -81 31 -85 7 -4 28 -4 47 0 29 7 33 6 29 -7 -5 -11 -1 -14 13 -10
12 3 27 -3 38 -15 22 -24 91 -71 144 -98 40 -21 53 -50 22 -50 -9 0 -14 -3
-11 -6 11 -10 -68 -74 -91 -74 -12 0 -30 5 -41 12 -15 10 -22 9 -38 -5 -10 -9
-22 -14 -25 -10 -4 3 -5 -31 -2 -77 4 -70 1 -88 -13 -104 -16 -20 -16 -20 1
-7 16 12 17 9 17 -52 0 -36 -5 -69 -10 -72 -6 -4 -8 -11 -5 -16 8 -12 -17 -79
-27 -73 -4 3 -5 -1 -3 -8 7 -18 -53 -75 -87 -83 -19 -5 -32 -1 -47 14 -38 38
-23 213 30 347 27 68 24 131 -7 138 -25 7 -68 -7 -79 -24 -4 -6 -13 -9 -21 -6
-8 3 -13 0 -11 -6 4 -20 -109 -71 -168 -76 -109 -9 -165 18 -165 82 0 34 20
62 35 48 5 -4 5 -2 2 5 -9 15 52 66 70 59 8 -3 12 -2 9 3 -10 15 45 31 140 41
98 10 138 27 148 64 7 27 -10 63 -38 82 -14 9 -23 20 -20 25 3 5 -1 7 -8 4
-17 -7 -102 71 -93 85 4 6 1 9 -6 8 -16 -4 -68 97 -73 142 -9 88 42 129 121
99z m2368 -149 c-18 -8 -17 -9 8 -9 20 -1 26 3 21 12 -4 6 3 3 15 -8 19 -16
22 -27 18 -58 -7 -48 -59 -133 -78 -129 -8 2 -11 0 -6 -4 4 -4 -7 -23 -25 -41
-26 -27 -34 -31 -47 -20 -14 10 -14 10 -3 -5 11 -14 8 -20 -30 -46 -24 -16
-54 -41 -67 -56 -22 -23 -23 -28 -11 -56 14 -35 37 -50 74 -50 14 0 27 -4 30
-9 3 -4 18 -7 33 -5 74 9 202 -47 253 -109 32 -40 34 -105 5 -137 -17 -19 -28
-21 -80 -18 -63 4 -174 47 -197 76 -11 13 -11 14 1 7 10 -5 12 -4 7 4 -4 6
-11 9 -16 6 -8 -5 -70 59 -70 73 0 4 -13 7 -29 7 -16 1 -28 -3 -25 -7 2 -4 -4
-12 -15 -17 -14 -8 -21 -8 -24 2 -3 6 -4 -18 -4 -55 1 -37 4 -65 8 -62 11 6
22 -34 13 -47 -4 -7 -3 -9 3 -6 6 4 14 0 17 -9 4 -10 2 -13 -7 -9 -6 4 -4 0 6
-8 27 -22 51 -135 43 -201 -10 -73 -30 -98 -83 -100 -82 -2 -107 47 -107 209
0 66 3 146 6 178 4 33 3 55 -2 52 -5 -3 -12 0 -15 5 -11 17 -51 29 -74 23 -12
-3 -31 -22 -41 -43 -55 -108 -239 -181 -301 -119 -21 21 -21 57 -1 96 19 35
134 135 149 129 8 -3 11 -1 8 4 -3 5 18 16 47 25 64 19 98 45 98 77 0 29 -5
35 -61 80 -68 54 -119 106 -119 119 0 7 -3 9 -7 6 -9 -10 -63 43 -63 62 0 14
-1 14 -10 1 -13 -21 -12 -2 3 41 22 64 72 106 89 75 10 -19 44 -21 54 -4 5 8
0 9 -14 6 -12 -4 -22 -2 -22 3 0 14 38 11 69 -6 35 -18 113 -104 105 -116 -3
-5 0 -9 6 -9 6 0 22 -25 36 -55 40 -92 111 -97 144 -9 34 91 147 233 173 217
6 -3 7 -1 3 5 -9 15 61 51 99 51 26 0 27 -2 10 -9z m-957 -664 c30 2 30 1 21
-24 -6 -15 -12 -35 -14 -45 -9 -42 -16 -53 -43 -64 -15 -7 -33 -25 -38 -40 -9
-25 -11 -20 -23 52 -8 44 -16 92 -18 106 -5 26 -4 26 40 19 24 -3 58 -5 75 -4z
m-587 -416 c-7 -69 -16 -129 -21 -134 -5 -5 -6 -15 -3 -22 5 -14 -14 -141 -24
-157 -3 -4 -13 -1 -23 8 -10 9 -24 14 -29 10 -14 -8 -14 8 1 40 l12 26 13 -23
c8 -13 12 -16 10 -8 -2 8 0 23 5 32 6 13 5 16 -6 12 -11 -4 -13 0 -9 15 3 11
10 18 16 14 6 -4 8 2 5 15 -4 12 -3 22 1 22 3 0 5 20 3 45 -3 28 1 52 9 62 8
9 9 14 3 10 -8 -4 -14 7 -18 33 -8 51 -36 111 -59 128 -17 13 -15 16 27 49 25
19 53 47 63 61 l18 27 9 -70 c6 -47 5 -110 -3 -195z m1052 28 l15 -36 -33 -6
c-18 -4 -58 -19 -88 -34 l-54 -28 -2 79 c-1 43 -6 89 -11 102 -6 15 -6 27 1
30 5 4 9 3 8 -2 -4 -22 3 -24 19 -6 9 11 38 28 65 38 26 10 48 23 48 29 1 6 5
-20 9 -59 4 -38 14 -86 23 -107z m-331 113 c21 -21 35 -71 18 -71 -6 0 -8 5
-5 10 3 6 1 10 -4 10 -6 0 -11 -3 -11 -6 0 -9 22 -49 31 -54 10 -7 -8 -191
-19 -199 -4 -4 -7 -25 -7 -48 0 -51 23 -72 77 -73 29 0 45 8 75 35 46 43 103
78 103 64 0 -6 5 -7 10 -4 6 4 8 10 5 15 -10 16 62 35 136 35 83 0 119 -18
119 -57 0 -50 -65 -119 -115 -122 -13 0 -21 -4 -19 -8 10 -16 -182 -50 -234
-41 -12 2 -21 0 -20 -4 1 -5 -4 -19 -11 -31 -16 -30 -8 -58 25 -97 14 -16 23
-23 19 -15 -4 8 13 -5 38 -29 25 -24 43 -49 40 -54 -3 -6 -1 -7 5 -3 14 8 59
-68 78 -132 16 -52 11 -114 -13 -137 -8 -8 -28 -15 -46 -15 -69 0 -144 88
-191 224 -13 37 -31 75 -40 85 -9 10 -13 20 -10 23 3 3 1 9 -5 13 -6 3 -11 1
-11 -4 0 -6 -9 -11 -20 -11 -34 0 -56 -33 -74 -111 -26 -106 -70 -194 -131
-256 -46 -48 -57 -54 -86 -51 -22 2 -33 8 -31 16 1 8 -2 11 -8 7 -15 -10 -32
45 -25 85 14 86 17 93 27 79 7 -10 8 -9 4 6 -8 29 47 120 110 179 29 28 57 62
62 76 13 36 -4 76 -39 91 -26 10 -36 9 -65 -4 -18 -9 -41 -14 -50 -10 -11 4
-15 2 -11 -4 10 -16 -18 -23 -91 -22 -106 1 -179 39 -188 96 -5 29 0 35 43 67
26 20 53 34 60 31 7 -2 15 0 18 5 4 6 14 10 23 9 14 0 13 -2 -3 -9 -16 -7 -11
-9 20 -9 32 0 36 2 20 10 -14 7 -5 8 35 6 34 -2 83 -16 127 -35 94 -42 115
-42 136 4 14 28 15 43 8 72 -31 117 -45 220 -37 272 16 107 90 158 148 101z
m-1556 -77 c-3 -8 -2 -13 3 -10 12 8 53 -52 45 -66 -4 -7 -3 -8 4 -4 7 4 12 2
12 -4 0 -6 4 -9 9 -5 5 3 12 1 15 -4 7 -10 102 -35 128 -33 21 1 73 -82 62
-99 -4 -7 -3 -9 3 -6 6 4 15 -11 22 -38 6 -24 16 -47 22 -51 8 -4 8 -8 0 -13
-5 -4 10 -8 35 -9 61 -2 79 18 88 98 8 67 40 145 56 135 5 -3 7 0 4 8 -3 8 10
27 29 44 43 38 81 35 102 -8 18 -33 19 -43 5 -34 -5 3 -10 1 -10 -4 0 -6 5
-11 10 -11 15 0 12 -65 -4 -105 -8 -18 -36 -66 -64 -107 -61 -92 -63 -97 -41
-129 10 -14 16 -29 13 -31 -2 -3 7 -3 20 -1 15 3 32 -1 41 -10 9 -9 23 -13 32
-10 15 6 14 7 -3 15 -28 12 64 -2 106 -16 109 -37 193 -132 172 -193 -6 -19
-16 -28 -30 -27 -12 0 -19 -3 -17 -7 9 -13 -28 -20 -74 -13 -81 11 -222 98
-205 126 3 5 0 8 -7 7 -8 -1 -26 3 -41 11 -25 12 -29 11 -47 -11 -27 -32 -26
-46 9 -156 51 -159 37 -296 -32 -314 -17 -4 -28 -3 -28 2 0 6 -5 7 -11 4 -17
-11 -57 35 -74 85 -19 59 -22 118 -7 194 17 87 16 152 -4 160 -44 17 -67 6
-127 -60 -37 -40 -65 -63 -74 -60 -8 3 -12 2 -9 -2 7 -12 -59 -42 -109 -49
-53 -7 -119 13 -111 34 3 8 1 11 -4 8 -6 -4 -10 5 -10 20 0 81 101 161 255
202 55 15 72 24 87 48 37 62 27 76 -105 145 -121 62 -218 161 -233 237 -12 62
30 133 79 133 13 0 17 -5 13 -16z m-1738 -62 c2 -6 8 -12 13 -12 6 0 7 5 4 10
-4 6 12 10 42 10 87 -1 326 -37 319 -49 -2 -3 15 -7 38 -7 50 -2 246 -62 246
-75 0 -6 4 -7 10 -4 11 7 70 -22 88 -44 8 -9 11 -10 7 -3 -3 6 -3 12 0 12 10
0 65 -30 65 -36 0 -3 -5 -2 -12 2 -6 4 -8 3 -4 -4 3 -6 14 -10 24 -9 23 1 94
-42 87 -53 -3 -4 3 -7 13 -6 9 0 16 -5 14 -12 -1 -8 2 -11 8 -7 20 12 225
-169 213 -188 -3 -6 -1 -7 5 -4 23 15 211 -241 205 -278 -3 -14 -1 -16 5 -7
11 16 57 -62 46 -80 -4 -6 -3 -8 3 -5 13 8 36 -41 27 -55 -4 -6 -3 -8 3 -5 12
8 40 -49 104 -216 54 -139 129 -351 129 -364 0 -5 -13 15 -30 43 -16 29 -27
61 -25 73 2 12 0 19 -6 16 -5 -4 -6 -11 -3 -17 4 -7 2 -8 -5 -4 -6 4 -9 11 -6
16 3 4 -1 10 -9 13 -20 8 -97 123 -88 132 4 3 2 5 -5 3 -14 -4 -95 101 -87
114 3 5 1 7 -4 6 -13 -4 -212 228 -204 238 4 5 3 6 -2 1 -12 -9 -76 51 -76 72
0 8 -3 11 -7 7 -9 -8 -73 54 -73 71 0 7 -3 12 -8 10 -10 -3 -172 140 -166 147
2 3 1 4 -2 1 -4 -2 -25 9 -48 26 -75 57 -240 166 -284 188 -26 13 -40 26 -36
33 4 6 3 8 -4 4 -12 -7 -63 14 -57 24 2 4 -1 7 -8 7 -7 1 -34 9 -60 19 -43 17
-50 17 -75 3 -15 -8 -32 -30 -39 -49 -7 -19 -12 -27 -12 -17 -1 10 -5 16 -11
12 -13 -8 -1 -35 15 -35 8 0 17 -5 21 -12 5 -7 2 -8 -7 -3 -8 5 -12 6 -9 2 3
-3 8 -6 13 -6 28 -1 278 -145 290 -166 4 -9 12 -13 17 -10 9 6 95 -48 107 -67
3 -7 -9 -2 -28 11 l-34 23 29 -25 c16 -14 34 -23 40 -21 17 6 158 -115 150
-128 -5 -7 -2 -8 6 -3 15 9 202 -173 193 -188 -3 -6 -1 -7 5 -3 14 9 144 -128
266 -282 52 -64 57 -74 45 -90 -13 -15 -12 -16 2 -4 15 11 22 6 53 -37 37 -50
45 -68 24 -55 -7 4 -8 3 -4 -5 4 -6 11 -9 17 -6 12 8 82 -103 73 -117 -4 -6
-3 -8 3 -5 13 8 75 -91 66 -106 -3 -7 -3 -9 2 -5 5 5 16 -5 26 -20 20 -34 119
-223 119 -228 0 -2 -14 8 -30 23 -17 15 -28 33 -26 40 3 7 -1 13 -10 13 -9 0
-12 -5 -8 -11 4 -8 2 -9 -7 -3 -100 64 -118 77 -112 86 3 6 1 8 -5 4 -13 -8
-264 128 -254 139 4 5 1 5 -5 1 -18 -10 -143 62 -143 82 0 13 -2 14 -8 4 -6
-9 -42 11 -131 72 -138 94 -275 212 -265 228 4 6 2 8 -3 5 -17 -11 -147 129
-244 263 -89 122 -109 158 -103 177 4 13 3 14 -4 5 -12 -18 -44 30 -36 55 4
12 3 14 -3 6 -6 -9 -19 5 -42 45 -110 188 -238 373 -286 412 -8 7 -12 17 -8
24 3 6 3 8 -2 4 -4 -4 -37 19 -74 51 -86 75 -138 114 -179 135 -19 10 -32 20
-29 22 23 23 247 29 255 6z m2856 -623 c-4 -7 1 -7 16 1 21 11 21 9 -8 -41
-36 -64 -72 -186 -72 -247 0 -41 -4 -47 -78 -117 -44 -41 -98 -99 -122 -130
-23 -30 -47 -52 -53 -48 -6 4 -7 1 -2 -6 4 -7 -1 -22 -13 -34 -10 -12 -25 -31
-31 -42 l-13 -20 7 20 c4 11 13 40 20 65 7 25 14 41 14 35 2 -12 21 16 21 30
0 6 -5 3 -10 -5 -5 -8 -10 -10 -10 -4 0 24 32 154 39 154 3 0 7 22 8 49 4 81
23 124 58 131 47 10 90 36 119 72 14 18 36 44 49 57 12 13 16 20 8 16 -11 -6
-13 -4 -8 9 4 10 7 26 7 36 0 17 8 21 53 29 5 0 5 -4 1 -10z m-444 -190 c0 -6
7 -17 15 -25 13 -14 15 -13 15 7 0 12 3 20 6 16 4 -3 3 -27 -1 -53 -5 -34 -9
-43 -16 -33 -5 9 -9 10 -9 2 0 -6 4 -14 9 -17 10 -7 -15 -125 -66 -311 -19
-71 -49 -181 -65 -242 -17 -62 -34 -110 -39 -107 -5 3 -6 -1 -3 -9 3 -8 -29
-133 -72 -278 -42 -145 -81 -283 -86 -306 -7 -30 -15 -43 -26 -43 -13 0 -14
-2 -4 -9 11 -6 11 -17 1 -57 -6 -27 -15 -53 -19 -57 -9 -10 -6 25 3 41 6 8 3
10 -7 6 -10 -4 -16 -1 -16 10 0 9 -16 62 -36 118 -20 58 -50 184 -69 288 -53
289 -103 483 -176 676 -15 43 -26 81 -24 85 3 4 1 9 -3 11 -5 1 -23 39 -41 83
-18 44 -43 99 -56 123 -13 23 -22 42 -20 42 1 0 16 -6 31 -12 31 -14 35 -23
19 -48 -7 -12 -6 -13 7 -3 8 7 19 9 23 5 5 -4 6 0 3 8 -5 13 8 15 83 14 48 0
86 3 84 7 -6 9 56 35 74 31 7 -2 10 1 7 7 -4 5 -2 12 2 15 5 3 12 -28 15 -68
6 -84 30 -146 76 -198 32 -37 96 -69 141 -73 40 -2 101 14 131 36 16 11 34 17
40 13 7 -4 9 -3 6 4 -4 5 5 34 20 63 25 48 28 63 28 155 0 56 3 100 8 97 4 -2
7 -9 7 -14z m1928 -624 c106 -8 242 -36 235 -48 -4 -6 0 -8 9 -4 9 3 34 1 56
-5 31 -8 39 -14 35 -27 -4 -13 -3 -14 6 -1 11 16 25 13 159 -42 54 -23 70 -33
60 -40 -9 -7 -6 -8 10 -5 32 7 52 -1 52 -22 0 -14 2 -14 10 -1 9 14 15 7 11
-14 -1 -5 5 -6 14 -3 22 9 218 -110 221 -134 1 -5 2 -15 3 -21 1 -10 4 -9 10
1 7 11 16 8 45 -14 20 -15 33 -32 29 -38 -4 -6 -1 -7 6 -2 15 9 61 -32 61 -54
0 -11 3 -12 8 -5 4 8 26 -7 62 -43 43 -42 49 -51 28 -42 -16 7 -28 16 -28 21
0 5 -4 7 -9 4 -11 -7 -48 21 -39 30 4 4 16 1 25 -7 16 -13 17 -12 4 4 -17 21
-53 23 -45 3 4 -11 -11 -8 -60 11 -36 15 -63 31 -59 36 3 6 1 7 -5 3 -6 -3
-41 5 -79 18 -57 20 -159 52 -198 61 -5 1 -17 5 -25 8 -35 14 -211 46 -287 53
-46 3 -81 9 -79 13 5 8 -340 6 -434 -3 -102 -10 -245 -33 -353 -56 -49 -11
-93 -17 -98 -14 -5 3 -9 0 -9 -5 0 -6 -7 -11 -15 -11 -23 0 -251 -75 -351
-116 -47 -19 -90 -31 -96 -28 -6 4 -8 3 -5 -3 3 -5 -22 -23 -56 -39 -152 -71
-376 -208 -517 -317 -36 -28 -72 -55 -80 -61 -8 -6 1 10 20 37 18 26 41 47 49
47 11 0 12 3 4 8 -8 5 2 26 33 67 73 97 165 196 176 189 7 -5 8 -2 4 5 -18 28
336 333 365 315 7 -4 9 -3 5 4 -8 13 111 85 126 76 7 -5 8 -2 3 6 -6 10 -4 12
9 7 9 -4 15 -3 12 2 -8 13 128 76 250 117 145 49 279 75 424 83 122 8 160 7
288 -4z m397 -474 c188 -33 314 -69 483 -138 61 -25 112 -48 112 -50 0 -2 -9
-2 -19 2 -24 7 -183 -18 -280 -45 -41 -12 -86 -19 -100 -15 -17 3 -21 2 -13
-3 9 -6 -22 -21 -95 -47 -59 -21 -184 -74 -278 -117 -206 -96 -322 -140 -350
-132 -15 4 -17 3 -6 -5 12 -8 10 -11 -11 -16 -15 -4 -32 -4 -39 1 -8 4 -9 3
-5 -4 8 -13 -38 -28 -209 -68 -96 -23 -139 -27 -331 -31 -135 -3 -253 -1 -305
6 -46 6 -141 14 -211 17 -70 4 -125 10 -123 14 3 4 -19 6 -48 4 -39 -3 -48 -1
-37 7 12 9 11 10 -5 4 -35 -12 -89 -21 -185 -30 -30 -3 -64 -8 -75 -11 -26 -6
33 48 135 125 211 160 533 340 584 326 14 -4 17 -3 8 3 -17 11 151 78 169 67
8 -5 10 -4 5 3 -4 7 -3 12 3 12 5 0 18 3 28 6 15 5 15 4 3 -5 -8 -6 -10 -11
-5 -11 14 0 42 19 30 21 -19 1 70 30 173 55 56 14 113 22 125 19 15 -4 18 -3
9 3 -15 10 149 40 293 52 148 13 446 3 570 -19z"/>
<path d="M5300 8643 c-17 -5 -47 -43 -50 -64 -6 -37 2 -62 26 -84 37 -34 78
-33 112 4 44 47 54 61 42 61 -5 0 -10 6 -10 14 0 8 -12 28 -26 45 -25 30 -51
37 -94 24z"/>
<path d="M4519 7954 c-57 -36 -53 -121 7 -155 29 -16 32 -16 67 1 20 10 39 15
42 12 3 -4 3 1 -1 11 -3 10 -1 17 5 17 20 0 13 75 -9 95 -11 10 -18 21 -15 24
9 15 -71 10 -96 -5z"/>
<path d="M5845 7858 c-50 -44 -27 -132 37 -142 40 -5 77 -4 76 4 -2 12 15 40
21 35 4 -2 5 17 1 42 -12 78 -79 108 -135 61z"/>
<path d="M4937 6903 c-21 -5 -47 -53 -47 -86 0 -13 9 -36 20 -50 11 -14 20
-30 20 -36 0 -6 5 -11 11 -11 5 0 7 4 4 10 -4 6 5 7 23 4 34 -7 87 32 94 70
13 69 -49 119 -125 99z"/>
<path d="M4270 6923 c-29 -11 -50 -36 -56 -69 -4 -21 -10 -31 -18 -27 -6 3 8
-12 30 -35 23 -22 39 -44 35 -47 -3 -4 6 -4 22 0 17 5 27 3 27 -3 0 -15 50 36
66 66 24 47 -19 123 -70 121 -11 0 -28 -3 -36 -6z"/>
<path d="M6037 6792 c-34 -21 -43 -53 -30 -104 7 -26 7 -39 -1 -42 -6 -2 -2
-4 9 -5 11 0 35 -3 53 -7 81 -16 133 74 79 137 -28 34 -74 43 -110 21z"/>
<path d="M5535 5788 c-34 -20 -51 -49 -47 -79 12 -83 120 -110 157 -38 22 42
18 67 -14 100 -31 30 -63 36 -96 17z"/>
<path d="M4390 5774 c-14 -10 -28 -23 -32 -28 -9 -13 -10 -69 -2 -91 8 -19 55
-45 84 -45 33 0 80 53 80 89 0 64 -79 110 -130 75z"/>
</g>
</svg>
