<?xml version="1.0" standalone="no"?>
<!DOCTYPE svg PUBLIC "-//W3C//DTD SVG 20010904//EN"
 "http://www.w3.org/TR/2001/REC-SVG-20010904/DTD/svg10.dtd">
<svg version="1.0" xmlns="http://www.w3.org/2000/svg"
 width="1024.000000pt" height="1024.000000pt" viewBox="0 0 1024.000000 1024.000000"
 preserveAspectRatio="xMidYMid meet">
<metadata>
Created by potrace 1.16, written by Peter Selinger 2001-2019
</metadata>
<g transform="translate(0.000000,1024.000000) scale(0.100000,-0.100000)"
fill="#000000" stroke="none">
<path d="M2718 6468 c-2 -5 -39 -14 -83 -19 -79 -9 -214 -42 -247 -60 -10 -5
-23 -9 -30 -9 -17 0 -124 -55 -268 -136 -135 -77 -153 -87 -160 -94 -13 -14
-201 -140 -209 -140 -5 0 -11 -3 -13 -8 -4 -9 -74 -62 -106 -80 -13 -7 -27
-10 -32 -7 -6 3 -7 -1 -4 -9 4 -10 -1 -18 -12 -23 -11 -3 -21 -9 -24 -13 -3
-3 -39 -30 -80 -60 -91 -66 -99 -76 -100 -117 0 -25 8 -38 33 -57 44 -34 76
-33 123 4 22 16 44 33 49 37 6 5 22 16 36 25 14 9 33 23 41 32 8 8 53 40 99
71 106 72 128 88 143 100 29 26 68 45 78 39 7 -4 8 -3 4 4 -4 7 3 17 18 24 14
6 26 15 26 20 0 4 3 7 8 6 4 -2 23 9 43 25 20 15 39 27 42 27 3 0 23 11 43 25
21 14 44 23 51 20 8 -2 11 0 8 5 -3 5 16 19 42 32 26 12 51 26 54 30 3 5 19
10 36 11 17 1 29 5 27 8 -3 5 52 33 86 44 3 1 12 4 20 8 79 30 249 56 345 51
95 -4 190 -24 173 -36 -9 -6 -6 -7 10 -3 43 12 310 -140 411 -235 9 -9 33 -28
54 -44 21 -16 34 -33 30 -40 -3 -6 -3 -8 2 -4 14 13 45 -11 39 -30 -4 -13 -3
-14 4 -4 7 11 12 11 23 -1 8 -7 25 -19 37 -26 14 -7 21 -18 18 -26 -3 -8 0
-12 7 -10 7 3 26 -8 44 -23 17 -15 46 -38 63 -52 78 -61 98 -78 155 -128 33
-29 60 -58 60 -64 0 -6 11 -17 25 -26 l25 -14 -25 21 c-14 11 -21 21 -16 21 5
0 28 -17 51 -37 23 -21 54 -47 70 -58 16 -11 34 -26 41 -33 7 -7 35 -29 61
-49 26 -20 55 -42 63 -49 8 -8 34 -30 57 -50 27 -24 40 -42 36 -53 -4 -13 -3
-13 5 -2 9 12 17 8 50 -21 22 -20 50 -42 62 -48 12 -7 19 -18 16 -26 -3 -7 -2
-13 2 -13 24 4 35 -6 54 -47 26 -59 16 -130 -24 -168 -47 -45 -73 -55 -134
-52 -56 3 -114 21 -114 36 0 4 -11 12 -25 18 -24 11 -158 109 -220 161 -17 15
-44 35 -59 46 -52 37 -131 99 -161 127 -16 15 -33 28 -36 28 -3 0 -15 8 -26
18 -12 9 -48 37 -82 62 -33 25 -60 51 -61 58 0 7 -4 11 -9 8 -8 -5 -64 33 -81
55 -3 4 -36 30 -75 59 -38 29 -78 60 -87 69 -22 21 -35 31 -91 74 -25 19 -61
49 -79 67 -30 28 -37 31 -78 25 -25 -3 -50 -6 -57 -7 -6 -1 -9 -7 -6 -15 3 -7
0 -13 -6 -13 -6 0 -11 -8 -11 -18 0 -10 -6 -24 -12 -31 -7 -8 -8 -11 -3 -8 6
3 16 -6 23 -21 7 -15 33 -43 58 -62 25 -19 51 -40 58 -45 17 -16 190 -157 225
-183 19 -15 28 -29 24 -40 -4 -15 -3 -15 6 -2 10 14 16 7 12 -13 -1 -5 3 -6 9
-2 11 7 92 -54 85 -65 -3 -4 1 -7 8 -6 7 0 43 -26 80 -59 52 -46 66 -64 61
-80 -4 -16 -3 -17 5 -5 15 22 30 -24 26 -78 -8 -100 -97 -204 -202 -236 -18
-6 -23 -3 -23 9 0 9 -15 49 -34 89 -26 55 -54 92 -115 151 -44 44 -77 83 -75
87 3 4 -1 6 -8 3 -7 -3 -29 10 -49 28 -20 17 -51 43 -69 57 -18 14 -58 45 -87
69 -44 36 -62 45 -96 45 -36 1 -44 -3 -64 -33 -39 -57 -29 -80 72 -165 39 -33
69 -64 67 -70 -2 -6 0 -8 4 -4 9 10 57 -24 133 -96 35 -34 77 -73 92 -88 16
-15 29 -32 29 -38 0 -5 5 -10 11 -10 8 0 7 -6 -2 -17 -9 -10 -9 -14 -2 -10 34
21 49 -105 19 -161 -33 -64 -105 -130 -151 -138 -21 -4 -25 0 -25 18 0 13 -7
36 -15 52 -8 15 -15 32 -15 37 0 10 -64 97 -89 119 -9 9 -45 38 -81 65 -36 27
-67 52 -70 55 -3 3 -29 21 -57 40 -29 19 -53 38 -53 43 0 4 -7 7 -15 7 -8 0
-15 4 -15 9 0 5 -13 11 -29 13 -30 4 -55 -5 -78 -28 -15 -15 -17 -100 -3 -109
6 -4 7 -11 4 -17 -4 -7 -2 -8 5 -4 7 4 32 -10 60 -33 27 -23 53 -41 58 -41 15
0 54 -46 46 -54 -5 -4 -3 -7 2 -6 21 5 33 -1 59 -27 20 -20 24 -28 14 -35 -9
-6 -6 -7 8 -4 24 7 63 -30 89 -87 36 -77 -7 -187 -89 -229 -61 -31 -169 -30
-251 4 -39 16 -211 123 -251 157 -59 49 -74 61 -80 61 -8 0 -78 53 -82 63 -2
4 -8 7 -13 7 -17 0 -178 104 -173 112 3 4 -2 5 -11 2 -8 -4 -28 -1 -43 5 -68
27 -88 34 -102 37 -185 35 -293 15 -298 -55 -4 -56 43 -114 83 -102 28 9 188
-4 209 -16 6 -4 16 -8 22 -9 6 -1 24 -9 40 -19 16 -9 21 -14 11 -11 -11 4 -16
2 -12 -5 4 -5 16 -7 27 -3 11 3 23 2 27 -2 3 -5 27 -20 54 -34 26 -13 47 -28
47 -32 0 -5 7 -8 15 -8 8 0 15 -4 15 -10 0 -5 6 -10 14 -10 8 0 16 -4 18 -8 2
-4 32 -28 68 -52 36 -25 67 -48 68 -52 2 -5 9 -8 15 -8 7 0 23 -10 37 -23 14
-12 38 -30 53 -40 16 -11 25 -23 21 -30 -4 -7 -4 -9 1 -5 4 4 44 -12 89 -37
103 -56 147 -67 276 -68 99 -1 109 0 172 31 51 25 80 48 123 98 30 36 55 69
55 74 0 12 30 28 62 34 105 19 250 139 284 234 11 31 25 52 34 53 25 1 43 6
98 28 28 11 52 19 52 16 0 -5 24 16 99 86 52 48 121 162 121 198 0 9 6 23 13
30 10 11 10 13 0 7 -7 -4 -13 -2 -13 3 0 13 17 14 24 2 3 -5 30 -25 58 -44 29
-19 63 -45 75 -56 12 -12 27 -21 32 -21 6 0 14 -6 18 -13 4 -7 23 -23 41 -36
18 -12 30 -26 27 -31 -3 -5 0 -12 6 -16 8 -5 9 -3 4 6 -5 8 -3 11 6 8 8 -3 13
-11 11 -17 -1 -7 2 -10 8 -6 6 4 25 -2 44 -13 80 -47 208 -67 294 -45 35 8
122 60 142 83 8 10 23 28 33 40 16 18 35 57 42 83 2 4 3 8 5 10 6 7 10 50 10
112 2 120 -58 211 -224 343 -36 29 -64 57 -61 62 3 4 -1 7 -8 6 -12 -1 -56 33
-151 114 -23 20 -57 47 -76 62 -19 14 -53 42 -75 61 -22 20 -44 40 -50 44 -55
44 -144 115 -157 128 -10 8 -20 15 -23 15 -3 0 -36 26 -73 57 -37 31 -71 60
-77 65 -5 4 -39 31 -75 60 -58 48 -208 166 -288 227 -18 13 -29 28 -25 34 3 5
1 7 -4 4 -12 -8 -159 68 -156 80 1 5 -11 9 -26 10 -15 1 -40 7 -56 14 -17 7
-33 13 -37 14 -5 2 -9 3 -10 5 -3 2 -12 4 -93 19 -33 7 -82 14 -110 17 -27 3
-64 9 -82 13 -20 6 -33 5 -35 -1z"/>
<path d="M7426 6454 c-141 -18 -222 -39 -296 -75 -36 -18 -71 -32 -77 -32 -7
0 -13 -4 -13 -8 0 -4 -8 -10 -18 -14 -17 -5 -89 -55 -147 -101 -197 -157 -429
-345 -504 -410 -113 -97 -264 -214 -277 -214 -8 0 -14 -6 -14 -12 -1 -11 -56
-59 -173 -150 -12 -10 -29 -24 -37 -31 -8 -8 -42 -35 -75 -59 -122 -93 -184
-174 -223 -296 -23 -71 13 -187 83 -269 53 -63 170 -109 265 -105 114 5 173
34 372 184 115 86 136 100 122 76 -4 -7 -3 -8 4 -4 6 4 9 13 6 20 -3 8 -1 17
5 20 6 4 13 -9 17 -31 4 -21 18 -60 31 -87 20 -40 22 -51 11 -58 -9 -7 -8 -8
6 -4 14 5 17 2 12 -9 -3 -9 -2 -14 3 -11 13 9 44 -31 35 -46 -4 -7 -4 -10 1
-6 4 4 25 -6 45 -22 21 -17 42 -30 48 -30 6 0 12 -5 14 -10 4 -12 138 -59 171
-61 19 -1 18 -2 -4 -8 -26 -6 -26 -6 -7 -26 16 -16 18 -17 13 -2 -4 10 -2 17
4 17 7 0 14 -8 17 -17 3 -10 14 -34 25 -54 10 -20 16 -39 14 -43 -3 -3 -3 -5
0 -3 2 2 28 -18 56 -44 66 -63 146 -102 229 -112 8 -1 24 -19 35 -39 36 -66
100 -126 171 -160 65 -31 75 -33 174 -32 144 0 231 32 375 135 149 106 182
130 240 173 171 127 289 175 421 172 114 -3 163 25 164 92 0 36 -35 77 -67 80
-32 3 -167 1 -193 -3 -132 -18 -291 -98 -465 -234 -33 -26 -117 -86 -187 -133
-146 -98 -218 -125 -314 -115 -77 8 -156 66 -173 129 -7 23 -10 52 -8 63 16
73 24 91 61 128 53 54 101 88 111 79 5 -4 5 -2 1 5 -3 7 7 21 26 34 18 13 38
28 44 34 6 5 37 28 67 50 31 22 60 49 65 60 21 47 -26 115 -79 115 -15 0 -50
-16 -79 -35 -29 -19 -56 -35 -60 -35 -5 0 -10 -4 -12 -9 -1 -5 -42 -38 -89
-73 -111 -81 -191 -178 -205 -247 -10 -51 -15 -61 -32 -57 -53 10 -109 57
-148 123 -31 52 -35 122 -9 176 19 40 99 125 188 199 28 24 69 59 91 78 23 20
58 48 79 64 83 61 105 101 82 146 -17 33 -43 50 -75 50 -19 0 -92 -42 -115
-66 -5 -5 -28 -23 -50 -39 -22 -16 -58 -45 -81 -64 -22 -20 -58 -49 -79 -66
-48 -37 -143 -136 -165 -173 -9 -15 -25 -52 -35 -82 -10 -30 -18 -56 -19 -57
-1 -1 -19 2 -40 8 -52 14 -132 91 -160 153 -19 42 -22 61 -16 109 7 62 25 86
115 152 22 16 83 65 135 108 52 43 102 84 110 90 58 46 116 93 120 98 3 4 34
29 70 57 124 97 146 131 116 176 -12 19 -12 26 -3 30 7 3 6 5 -3 4 -8 -1 -25
3 -37 10 -28 16 -61 2 -126 -50 -26 -22 -56 -40 -66 -41 -10 0 -17 -6 -15 -12
2 -5 -22 -28 -53 -50 -30 -22 -66 -50 -79 -62 -13 -12 -41 -34 -61 -50 -21
-15 -40 -30 -43 -33 -8 -8 -63 -53 -100 -80 -18 -14 -40 -32 -49 -41 -9 -9
-52 -42 -96 -74 -44 -32 -85 -64 -91 -69 -6 -6 -32 -27 -58 -46 -27 -19 -67
-52 -91 -72 -23 -21 -47 -38 -54 -38 -6 0 -11 -4 -11 -9 0 -5 -17 -20 -37 -32
-21 -13 -42 -29 -46 -36 -4 -7 -15 -13 -22 -13 -8 0 -15 -4 -15 -10 0 -5 -5
-10 -11 -10 -7 0 -17 -7 -23 -15 -21 -27 -120 -71 -167 -73 -93 -5 -169 50
-185 134 -8 43 24 112 66 144 18 14 47 37 64 51 83 70 177 146 202 164 15 11
35 27 44 35 17 16 54 47 115 95 21 17 69 56 106 88 40 33 74 55 81 51 6 -4 8
-3 5 3 -8 12 33 50 153 143 52 40 113 89 136 109 79 69 195 156 205 153 6 -1
8 2 5 7 -10 16 144 128 244 177 119 59 194 75 345 75 147 -1 162 -4 315 -53
44 -14 141 -60 202 -96 25 -15 65 -37 88 -50 89 -50 181 -113 175 -121 -3 -5
3 -7 13 -4 10 2 26 -5 36 -16 11 -12 23 -21 28 -21 5 0 14 -5 21 -10 42 -35
108 -80 117 -80 7 0 10 -7 7 -14 -4 -11 -1 -13 10 -9 12 5 14 3 8 -7 -5 -9 -4
-11 3 -6 11 7 100 -48 152 -93 13 -12 39 -31 57 -42 18 -12 31 -24 29 -28 -3
-4 3 -8 12 -9 9 -1 33 -4 52 -8 29 -5 40 -1 63 20 23 21 28 33 25 63 -3 33
-11 43 -69 88 -37 27 -77 57 -89 65 -13 8 -35 24 -49 35 -14 12 -39 29 -54 38
-15 10 -25 22 -22 27 3 6 -1 7 -9 4 -18 -7 -21 6 -6 24 7 9 7 9 -2 2 -18 -15
-38 -12 -38 5 0 9 -6 12 -17 8 -12 -5 -15 -2 -10 10 4 10 2 14 -6 12 -7 -3
-41 14 -76 38 -36 23 -72 47 -80 52 -9 6 -18 12 -21 15 -3 3 -16 11 -30 19
-58 34 -136 81 -145 88 -6 4 -40 23 -75 42 -36 19 -73 41 -84 50 -10 9 -20 15
-22 14 -3 -2 -96 36 -139 58 -11 5 -29 11 -40 13 -11 2 -45 11 -75 19 -67 19
-131 31 -147 28 -6 -1 -29 2 -50 7 -23 5 -76 3 -137 -4z"/>
<path d="M5045 4617 c-80 -27 -157 -99 -171 -159 -24 -106 -16 -190 25 -247
11 -15 17 -32 13 -36 -4 -5 -2 -5 4 -2 6 4 19 -2 29 -12 9 -11 41 -31 71 -45
191 -91 406 63 387 275 -3 30 -6 62 -6 71 -1 9 -5 14 -9 12 -4 -3 -14 8 -22
23 -24 45 -66 84 -114 106 -57 24 -154 31 -207 14z m162 -181 c29 -31 41 -88
17 -79 -14 5 -14 3 -3 -15 26 -42 -48 -101 -109 -87 -13 3 -20 10 -17 14 3 5
-3 7 -12 5 -11 -2 -25 5 -34 18 -19 27 -34 82 -20 74 5 -3 7 2 4 13 -19 73
117 118 174 57z"/>
</g>
</svg>
