<?xml version="1.0" standalone="no"?>
<!DOCTYPE svg PUBLIC "-//W3C//DTD SVG 20010904//EN"
 "http://www.w3.org/TR/2001/REC-SVG-20010904/DTD/svg10.dtd">
<svg version="1.0" xmlns="http://www.w3.org/2000/svg"
 width="1024.000000pt" height="1024.000000pt" viewBox="0 0 1024.000000 1024.000000"
 preserveAspectRatio="xMidYMid meet">
<metadata>
Created by potrace 1.16, written by Peter Selinger 2001-2019
</metadata>
<g transform="translate(0.000000,1024.000000) scale(0.100000,-0.100000)"
fill="#000000" stroke="none">
<path d="M6645 8796 c-121 -28 -203 -69 -295 -145 -30 -25 -58 -45 -63 -43 -5
1 -6 -1 -3 -6 3 -5 -15 -35 -39 -68 -25 -32 -54 -81 -65 -109 l-20 -50 -158 0
c-184 0 -221 -11 -353 -100 -42 -30 -80 -51 -83 -49 -3 2 -4 1 -2 -2 3 -3 -16
-34 -42 -68 -68 -88 -89 -125 -119 -208 -23 -64 -27 -89 -27 -198 -1 -133 10
-190 51 -273 13 -26 21 -53 17 -59 -4 -7 -3 -8 4 -4 16 9 15 -7 0 -22 -9 -9
-9 -15 1 -24 11 -11 13 -10 8 4 -13 36 13 27 42 -16 51 -73 149 -154 239 -198
152 -72 126 -71 1067 -70 l840 0 80 24 c44 13 112 41 150 63 86 48 200 161
240 237 16 31 32 55 35 53 3 -2 6 7 7 18 1 12 11 54 22 92 40 141 22 308 -50
455 -34 68 -59 102 -128 170 -141 140 -261 186 -464 177 -104 -5 -119 -3 -123
11 -14 49 -75 151 -121 202 -29 31 -50 59 -48 62 3 3 -1 5 -8 5 -6 0 -42 21
-80 46 -97 66 -203 98 -342 103 -71 2 -131 -1 -170 -10z m290 -191 c63 -18
161 -77 157 -94 -1 -7 2 -10 8 -6 15 9 83 -62 74 -76 -4 -7 -3 -9 4 -5 13 8
53 -59 79 -133 10 -30 30 -67 46 -84 27 -29 28 -30 95 -21 37 5 117 9 177 9
106 0 114 -2 180 -34 246 -121 335 -415 200 -656 -58 -103 -139 -166 -270
-210 l-75 -25 -847 2 -848 3 -58 23 c-75 31 -171 104 -218 166 -49 65 -89 186
-89 269 0 205 126 381 321 447 56 19 77 21 164 16 55 -4 121 -9 148 -12 69 -9
89 9 148 129 51 105 129 204 151 191 6 -4 8 -3 4 4 -12 20 95 82 187 107 61
18 187 13 262 -10z"/>
<path d="M4178 7800 c-208 -33 -371 -114 -515 -258 -169 -166 -238 -335 -287
-697 -15 -107 -36 -199 -90 -379 -30 -101 -34 -197 -11 -253 32 -77 77 -104
189 -112 l78 -6 19 -75 c44 -174 163 -343 272 -385 l47 -18 -39 -42 c-126
-137 -340 -483 -576 -932 -62 -117 -116 -209 -120 -205 -5 4 -5 1 -1 -6 4 -7
1 -28 -8 -46 -92 -195 -119 -288 -118 -421 0 -93 12 -155 46 -236 6 -14 -6
-17 -83 -22 -141 -10 -263 -60 -381 -156 -24 -20 -49 -36 -55 -36 -5 -1 -9 -7
-7 -14 2 -8 -8 -26 -22 -40 -13 -14 -40 -59 -59 -99 -67 -139 -71 -299 -12
-446 19 -48 22 -63 12 -75 -10 -14 -10 -14 5 -3 15 12 19 9 37 -26 11 -22 17
-43 13 -47 -4 -3 -2 -5 3 -3 6 2 41 -29 77 -68 55 -57 65 -73 55 -84 -10 -12
-9 -12 6 -1 15 12 20 11 37 -4 15 -14 17 -21 9 -32 -8 -8 -8 -13 -1 -13 6 0
12 5 14 11 3 8 19 2 46 -16 23 -15 39 -32 35 -38 -3 -6 -1 -7 5 -3 16 10 54
-12 46 -26 -4 -6 -3 -8 4 -4 14 9 163 -65 155 -77 -4 -6 -1 -7 6 -2 7 4 31 -1
54 -11 66 -28 68 -31 46 -68 -29 -49 -34 -114 -14 -181 13 -46 28 -70 73 -115
49 -48 69 -61 142 -86 81 -28 92 -29 255 -28 182 1 455 33 820 96 133 23 233
21 370 -6 75 -15 380 -65 525 -86 257 -38 327 -44 535 -44 214 -1 221 0 270
23 28 14 56 25 62 24 7 0 11 3 8 7 -2 4 7 18 21 31 31 28 59 81 69 127 11 53
-3 115 -39 175 -19 31 -31 59 -28 62 4 3 -1 3 -11 -1 -9 -3 -17 -2 -17 3 0 5
44 22 98 37 156 44 298 104 386 163 44 31 86 56 93 56 7 0 10 3 8 7 -7 11 31
41 40 33 4 -5 5 -3 2 3 -3 6 12 35 35 65 104 137 147 316 114 474 -35 170
-123 299 -267 391 -42 27 -71 38 -187 72 -21 7 -21 8 -6 30 12 18 19 21 30 11
9 -7 14 -8 14 -1 0 6 -5 12 -11 14 -7 2 -3 18 11 41 12 20 26 34 31 31 5 -3 6
2 3 10 -3 8 4 33 16 57 33 63 60 209 60 323 0 194 -55 464 -159 775 -197 589
-406 869 -768 1032 -38 17 -133 53 -213 80 -151 52 -204 80 -251 132 -68 75
-78 210 -27 395 29 108 31 129 32 282 1 143 -2 176 -22 250 -30 106 -70 202
-117 275 -19 31 -32 61 -29 67 4 6 3 8 -4 4 -13 -8 -43 33 -35 48 3 6 2 8 -2
3 -5 -4 -40 24 -79 62 -168 162 -365 246 -606 256 -58 2 -131 0 -162 -5z m238
-181 c332 -46 583 -304 640 -658 19 -116 14 -178 -29 -361 -64 -271 -34 -451
96 -580 25 -24 44 -47 41 -51 -2 -4 2 -6 9 -6 6 1 42 -13 78 -30 37 -17 109
-45 161 -61 51 -16 134 -46 183 -67 107 -44 259 -140 249 -157 -5 -7 -3 -8 5
-3 27 16 250 -268 236 -303 -3 -8 0 -10 7 -6 8 5 9 2 5 -9 -3 -9 -2 -16 3 -14
24 6 177 -371 243 -599 81 -277 91 -341 92 -549 l0 -190 -37 -87 c-84 -202
-161 -261 -561 -435 -189 -81 -619 -255 -797 -321 -74 -28 -216 -80 -315 -117
-299 -111 -653 -244 -690 -259 -33 -14 -36 -14 -46 6 -20 38 -5 148 30 225 63
134 175 218 481 358 69 31 221 104 339 161 117 57 218 101 224 97 5 -3 7 -2 4
4 -8 13 110 76 125 67 7 -4 8 -2 4 4 -4 7 10 20 36 33 187 94 353 229 398 323
47 98 37 241 -36 540 -51 205 -93 338 -117 364 -26 28 -85 30 -118 3 -32 -26
-30 -69 10 -196 72 -234 130 -530 116 -601 -20 -107 -259 -258 -910 -572 -345
-167 -433 -213 -528 -279 l-49 -32 -71 35 c-213 108 -537 314 -616 394 -121
121 -150 280 -85 461 35 98 169 365 311 622 102 182 118 206 132 195 14 -12
14 -11 3 4 -12 15 -5 31 53 128 36 61 71 108 76 105 5 -3 6 0 4 7 -10 26 178
284 197 272 6 -4 8 -2 5 3 -4 6 16 31 43 57 36 33 96 69 213 125 186 90 234
129 223 185 -7 34 -50 76 -80 76 -10 0 -57 -21 -103 -46 -46 -25 -91 -43 -99
-40 -8 3 -13 2 -10 -3 3 -5 -18 -19 -47 -32 -70 -31 -217 -34 -259 -5 -15 10
-25 23 -21 29 3 5 1 7 -5 4 -30 -19 -110 129 -143 266 -33 134 -71 167 -193
167 -35 0 -71 3 -80 6 -24 9 -20 63 13 157 42 123 69 239 97 425 28 193 45
260 89 357 111 243 365 406 647 414 26 0 81 -4 124 -10z m-1254 -4100 c58 -12
153 -60 284 -145 116 -75 336 -199 399 -225 l52 -21 -28 -52 c-44 -81 -62
-167 -56 -266 3 -47 8 -92 12 -101 5 -14 -26 -27 -187 -78 -106 -34 -231 -76
-277 -93 l-84 -32 -66 24 c-121 43 -279 117 -349 164 -87 58 -195 163 -188
183 3 8 2 12 -3 9 -23 -14 -79 121 -88 210 -18 183 104 354 297 415 64 21 202
25 282 8z m3371 -93 c79 -40 149 -112 189 -193 31 -64 33 -73 33 -178 0 -103
-2 -114 -32 -178 -40 -85 -126 -176 -213 -227 -240 -140 -938 -290 -2255 -485
-649 -96 -874 -100 -966 -15 -59 56 -26 151 71 200 20 10 142 53 271 95 128
42 261 86 294 97 346 115 1199 430 1545 571 274 111 224 90 520 218 296 129
297 129 400 126 72 -2 94 -7 143 -31z m-516 -1192 c27 -17 48 -49 57 -85 7
-33 -24 -76 -70 -95 -44 -18 -217 -18 -399 1 -121 12 -484 61 -509 68 -4 2 27
9 70 16 124 20 446 79 584 107 69 14 135 23 148 21 12 -2 22 0 22 5 0 9 62
-15 97 -38z"/>
<path d="M4175 4693 c-36 -36 -277 -398 -316 -474 -43 -86 -46 -132 -15 -194
19 -37 22 -51 13 -58 -8 -6 -7 -7 5 -4 11 4 36 -17 81 -71 81 -96 253 -264
330 -322 73 -54 108 -57 149 -12 34 39 36 80 5 113 -12 13 -58 52 -100 87 -46
37 -75 67 -71 74 4 7 3 8 -5 4 -13 -9 -137 112 -209 202 -40 51 -54 81 -32 67
5 -3 7 0 4 9 -3 8 25 63 67 128 40 62 85 135 100 163 17 31 30 44 32 35 3 -8
19 -69 37 -135 34 -124 151 -479 171 -518 37 -71 100 -90 138 -40 12 14 24 36
27 47 2 12 -20 90 -50 177 -47 134 -114 353 -196 637 -26 89 -46 112 -99 112
-28 0 -45 -7 -66 -27z"/>
</g>
</svg>
