<?xml version="1.0" encoding="UTF-8"?>
<svg version="1.1" xmlns="http://www.w3.org/2000/svg" width="1024" height="1024">
<path d="M0 0 C11.86248553 7.86804763 24.45052592 14.4857455 37.32641602 20.54663086 C39.72485352 21.85131836 39.72485352 21.85131836 40.91235352 24.22631836 C40.63950776 28.04615895 38.4318518 29.31005466 35.72485352 31.85131836 C18.69127015 25.88563939 3.65266883 16.44841292 -11.46264648 6.72631836 C-43.26628085 -13.72646743 -77.02219875 -28.73488454 -115.52514648 -20.46118164 C-134.32722043 -16.06710805 -151.26825173 -7.17952554 -166.27514648 4.85131836 C-167.16073242 5.54483398 -168.04631836 6.23834961 -168.95874023 6.95288086 C-178.22524485 13.43120741 -178.22524485 13.43120741 -185.27514648 21.85131836 C-185.93514648 21.85131836 -186.59514648 21.85131836 -187.27514648 21.85131836 C-187.4981543 22.40303711 -187.72116211 22.95475586 -187.95092773 23.52319336 C-189.69068745 26.58188596 -191.9327913 28.65869956 -194.46264648 31.10131836 C-198.96623809 35.5131634 -203.20522413 40.03840815 -207.27514648 44.85131836 C-214.7731581 53.67838034 -222.31834791 62.43188376 -230.27514648 70.85131836 C-230.77095215 71.38112305 -231.26675781 71.91092773 -231.77758789 72.45678711 C-251.15619469 93.03929979 -273.77858408 106.22061524 -302.44702148 107.76928711 C-306.06243913 107.8741542 -309.65868929 107.92222928 -313.27514648 107.85131836 C-303.82880731 118.70990094 -279.03985914 122.42791476 -265.36791992 123.44189453 C-232.44021097 125.46654556 -203.4983942 114.53289403 -178.33374023 93.41772461 C-176.27514648 91.85131836 -176.27514648 91.85131836 -173.27514648 90.85131836 C-173.27514648 90.19131836 -173.27514648 89.53131836 -173.27514648 88.85131836 C-172.01733398 87.54663086 -172.01733398 87.54663086 -170.15014648 85.97631836 C-167.45934798 83.70167147 -164.7817205 81.42110278 -162.15405273 79.07397461 C-133.28694572 53.47838949 -100.15411711 40.08593713 -61.27514648 41.85131836 C-39.28570035 43.5282557 -17.12484514 52.32449958 1.55688477 63.77709961 C6.94302447 67.05613868 12.52493812 69.78954066 18.22485352 72.47631836 C19.19293945 72.94038086 20.16102539 73.40444336 21.15844727 73.88256836 C26.63944547 76.48696214 32.06982914 78.79616272 37.84399414 80.67700195 C39.72485352 81.85131836 39.72485352 81.85131836 40.55102539 84.32641602 C40.72485352 86.85131836 40.72485352 86.85131836 39.84985352 89.22631836 C37.31840645 91.16213082 36.73537696 91.01699886 33.66625977 90.69116211 C28.51612292 90.00187092 24.21003176 88.24417442 19.53735352 86.03881836 C18.68222168 85.64573486 17.82708984 85.25265137 16.94604492 84.84765625 C9.38557764 81.30587128 2.10731107 77.29177746 -5.18847656 73.24047852 C-36.59200425 55.9142026 -68.7436467 48.84641749 -104.06030273 57.81225586 C-126.22405218 64.49693751 -144.28244839 77.9673473 -160.82080078 93.74951172 C-185.54819428 117.25450118 -216.6408758 134.3068171 -251.27514648 135.85131836 C-252.58225586 135.9305957 -252.58225586 135.9305957 -253.91577148 136.01147461 C-289.68657244 137.18680093 -320.39168728 120.51761882 -348.27514648 99.85131836 C-348.9106543 99.38322754 -349.54616211 98.91513672 -350.20092773 98.43286133 C-358.21749379 92.5212368 -366.08861015 86.45399718 -373.84790039 80.20898438 C-379.91690942 75.3248923 -386.044152 70.52750258 -392.27514648 65.85131836 C-392.94916504 65.34455566 -393.62318359 64.83779297 -394.31762695 64.31567383 C-410.57213804 50.449665 -410.57213804 50.449665 -429.27514648 42.85131836 C-429.27514648 42.19131836 -429.27514648 41.53131836 -429.27514648 40.85131836 C-430.08081055 40.5922168 -430.88647461 40.33311523 -431.71655273 40.06616211 C-434.33921847 39.17082836 -436.90960636 38.2340604 -439.48999023 37.23022461 C-468.19159552 26.10568937 -498.44903384 24.79882614 -527.12207031 37.07299805 C-529.27514648 37.85131836 -529.27514648 37.85131836 -532.27514648 37.85131836 C-532.60514648 38.51131836 -532.93514648 39.17131836 -533.27514648 39.85131836 C-535.5922836 41.0551435 -537.91182293 42.1828935 -540.27514648 43.28881836 C-548.73329317 47.37841921 -556.4687686 52.3040296 -564.27172852 57.51391602 C-620.30737614 94.92109097 -620.30737614 94.92109097 -649.51342773 91.46850586 C-652.27514648 90.85131836 -652.27514648 90.85131836 -654.21264648 89.60131836 C-655.27514648 87.85131836 -655.27514648 87.85131836 -655.15014648 85.28881836 C-654.27514648 82.85131836 -654.27514648 82.85131836 -651.27514648 80.85131836 C-649.2800293 80.3840332 -649.2800293 80.3840332 -646.97827148 80.06225586 C-619.83784078 75.90937288 -596.63842 65.6589779 -574.15405273 50.14428711 C-539.43005324 26.24897769 -503.09334686 10.6070211 -460.27514648 17.85131836 C-427.66295818 24.13642594 -400.06173486 44.52447883 -374.80639648 64.99975586 C-369.38133886 69.39643717 -363.8497205 73.64658053 -358.27514648 77.85131836 C-357.03571289 78.80651367 -357.03571289 78.80651367 -355.77124023 79.78100586 C-338.14939879 92.84497398 -316.71739694 98.24728247 -294.99291992 95.57006836 C-273.34872207 92.31835788 -256.78392388 80.65515133 -241.27514648 65.85131836 C-240.61514648 65.23256836 -239.95514648 64.61381836 -239.27514648 63.97631836 C-235.0607402 59.9180012 -231.4668781 55.44033782 -227.80249023 50.88647461 C-224.05439003 46.38527854 -220.05464495 42.13307398 -216.06030273 37.85131836 C-213.29738275 34.8879458 -210.62262976 31.85591958 -207.96655273 28.79663086 C-197.87245396 17.18725167 -187.43509573 6.31846547 -175.27514648 -3.14868164 C-173.85588867 -4.2759668 -173.85588867 -4.2759668 -172.40795898 -5.42602539 C-165.06047151 -11.12666223 -157.44134943 -15.75794924 -149.27514648 -20.14868164 C-147.82881836 -20.95112305 -147.82881836 -20.95112305 -146.35327148 -21.76977539 C-95.70383219 -48.70352419 -44.35192241 -29.46419492 0 0 Z " fill="#363635" transform="translate(821.275146484375,448.148681640625)"/>
<path d="M0 0 C1.36705078 1.02867187 1.36705078 1.02867187 2.76171875 2.078125 C5 4 5 4 5.9375 6.5625 C6 9 6 9 4 12 C1.37890625 13.04296875 1.37890625 13.04296875 -2 13 C-4.96095784 11.46086877 -7.46304109 9.39149107 -10.0625 7.3125 C-38.30963032 -14.08125698 -71.1020239 -27.10252091 -106.94433594 -22.23071289 C-116.46411392 -20.72110073 -125.20118045 -17.89506056 -134 -14 C-134.65709961 -13.70996094 -135.31419922 -13.41992188 -135.99121094 -13.12109375 C-150.53543502 -6.56235141 -163.1985157 2.65988074 -175.7421875 12.41796875 C-178 14 -178 14 -180 14 C-180 14.66 -180 15.32 -180 16 C-181.36552315 16.95909185 -182.74028321 17.90678479 -184.14990234 18.79980469 C-186.13656502 20.08859246 -188.02693516 21.467986 -189.92578125 22.8828125 C-214.7714709 41.29354517 -244.87037504 58.53886448 -277 57 C-279.375 55.625 -279.375 55.625 -281 54 C-281 53.34 -281 52.68 -281 52 C-281.66 52 -282.32 52 -283 52 C-283 50 -283 50 -281.140625 47.96484375 C-276.78406816 45.23928642 -272.79505633 45.04726091 -267.75 44.5625 C-253.63914035 42.91831257 -240.70944261 39.49752403 -228 33 C-226.8759375 32.44828125 -225.751875 31.8965625 -224.59375 31.328125 C-210.70572733 24.35265093 -198.46662607 14.99621589 -186.23046875 5.49609375 C-125.47630378 -41.58698338 -63.19875223 -47.74360566 0 0 Z " fill="#373736" transform="translate(448,422)"/>
<path d="M0 0 C10.51019884 7.71252002 18.01681493 18.07893296 20.0625 31.125 C21.04402518 44.91462427 18.83400641 55.64094206 10.19140625 66.71875 C2.82671888 75.04287371 -7.71524004 80.44353552 -18.8125 81.36328125 C-29.900234 81.62661493 -41.21830845 79.42300174 -49.9375 72.125 C-52.44557362 69.58596251 -54.71696506 66.91652964 -56.9375 64.125 C-57.94296875 62.96097656 -57.94296875 62.96097656 -58.96875 61.7734375 C-66.61236102 51.49096076 -67.21168742 39.03386778 -65.4609375 26.79296875 C-64.03539375 19.96581647 -61.63188372 15.23642464 -56.9375 10.125 C-56.36128906 9.44695312 -55.78507812 8.76890625 -55.19140625 8.0703125 C-41.5410451 -6.97062598 -17.37890598 -11.1454802 0 0 Z M-48.47265625 16.15625 C-54.43449489 24.16896114 -56.86609139 32.2268925 -55.52734375 42.171875 C-53.35449193 52.42461291 -48.7369704 59.59404513 -40.203125 65.68359375 C-32.20250228 70.7736451 -24.3394754 71.01656663 -14.9375 70.125 C-6.40926113 68.04252307 1.2208241 61.51223144 6.02734375 54.26171875 C9.76492287 46.54679129 11.25874593 37.46260031 9.0625 29.125 C5.41251489 19.24590806 -0.49374735 11.92412439 -9.82421875 7.03515625 C-23.25781134 1.24952395 -38.87150731 5.45179055 -48.47265625 16.15625 Z " fill="#353534" transform="translate(534.9375,438.875)"/>
<path d="M0 0 C0.33 0 0.66 0 1 0 C2.05043949 21.35893632 2.05043949 21.35893632 -4.63671875 28.828125 C-5.31154297 29.40820312 -5.31154297 29.40820312 -6 30 C-7.6442351 25.06729471 -6.18615592 22.45975807 -4 18 C-3.34 18 -2.68 18 -2 18 C-1.34 12.06 -0.68 6.12 0 0 Z " fill="#3C3C3C" transform="translate(554,470)"/>
<path d="M0 0 C7.95800678 2.292985 14.81917721 5.94899487 22 10 C19 12 19 12 16.5625 11.875 C13.47973732 10.82234933 12.28922285 9.28922285 10 7 C7.14582867 5.47006132 4.28944351 4 1 4 C0.67 2.68 0.34 1.36 0 0 Z " fill="#3F3F3D" transform="translate(402,396)"/>
<path d="M0 0 C2.4375 0.6875 2.4375 0.6875 5 2 C6.125 4.3125 6.125 4.3125 6 7 C3.5625 9.8125 3.5625 9.8125 1 12 C-1.64 11.01 -4.28 10.02 -7 9 C-3.86501708 7.14223235 -1.62528568 6.79859524 2 7 C1.42415568 4.61435923 0.77772405 2.33317216 0 0 Z " fill="#404040" transform="translate(856,468)"/>
<path d="M0 0 C0 0.33 0 0.66 0 1 C-8.58 1 -17.16 1 -26 1 C-26 1.99 -26 2.98 -26 4 C-26.556875 3.855625 -27.11375 3.71125 -27.6875 3.5625 C-30.11384195 2.97230872 -32.54906345 2.476571 -35 2 C-35 1.67 -35 1.34 -35 1 C-23.06436409 -0.6585499 -12.01472314 -1.55028686 0 0 Z " fill="#5A5A59" transform="translate(743,414)"/>
<path d="M0 0 C-2.44664173 2.44664173 -3.41051785 2.347875 -6.7890625 2.6328125 C-7.73007813 2.71660156 -8.67109375 2.80039062 -9.640625 2.88671875 C-10.62546875 2.96535156 -11.6103125 3.04398437 -12.625 3.125 C-13.61757812 3.21136719 -14.61015625 3.29773438 -15.6328125 3.38671875 C-18.08797111 3.5991844 -20.54353974 3.80325544 -23 4 C-22.67 3.01 -22.34 2.02 -22 1 C-14.66236293 -0.17402193 -7.41834582 -0.09377123 0 0 Z " fill="#2F2F2E" transform="translate(192,467)"/>
<path d="M0 0 C0.33 0.66 0.66 1.32 1 2 C0.35272217 3.67429198 -0.31737067 5.33980741 -1 7 C-1.53283523 9.81810634 -1.93918913 12.63697149 -2.33984375 15.4765625 C-3.05516854 18.21088093 -3.83687173 19.24356342 -6 21 C-6.05406122 19.06280622 -6.09282025 17.12518079 -6.125 15.1875 C-6.14820313 14.10855469 -6.17140625 13.02960938 -6.1953125 11.91796875 C-6 9 -6 9 -4 6 C-3.67 5.13375 -3.34 4.2675 -3 3.375 C-2 1 -2 1 0 0 Z " fill="#3C3C3C" transform="translate(482,460)"/>
<path d="M0 0 C-3.60414013 2.40276009 -7.00713045 2.90940836 -11.1875 3.625 C-11.93708984 3.7590625 -12.68667969 3.893125 -13.45898438 4.03125 C-15.30487928 4.36045419 -17.15230309 4.68106498 -19 5 C-18.15234375 3.046875 -18.15234375 3.046875 -17 1 C-11.6011169 -0.6611948 -5.60467157 -0.08975453 0 0 Z " fill="#2E2E2D" transform="translate(187,528)"/>
<path d="M0 0 C0.86044922 0.34804688 0.86044922 0.34804688 1.73828125 0.703125 C1.29097656 1.07824219 0.84367188 1.45335937 0.3828125 1.83984375 C-3.33259086 4.98486536 -6.86373933 8.21075726 -10.26171875 11.703125 C-11.26171875 12.703125 -12.26171875 13.703125 -13.26171875 14.703125 C-13.92171875 14.373125 -14.58171875 14.043125 -15.26171875 13.703125 C-14.62234375 13.105 -13.98296875 12.506875 -13.32421875 11.890625 C-11.05861486 9.79502163 -11.05861486 9.79502163 -10.26171875 6.703125 C-8.5546875 4.84375 -8.5546875 4.84375 -6.44921875 2.953125 C-5.76214844 2.31890625 -5.07507813 1.6846875 -4.3671875 1.03125 C-2.26171875 -0.296875 -2.26171875 -0.296875 0 0 Z " fill="#292A28" transform="translate(645.26171875,447.296875)"/>
<path d="M0 0 C4.36778087 1.67926332 8.58165008 3.63305917 12.8125 5.625 C13.50537109 5.94984375 14.19824219 6.2746875 14.91210938 6.609375 C16.60866023 7.40499885 18.30441165 8.20232699 20 9 C20 9.33 20 9.66 20 10 C12.988 9.68127273 6.88531295 6.73169685 1 3 C0.67 2.01 0.34 1.02 0 0 Z " fill="#2E2E2D" transform="translate(832,466)"/>
<path d="M0 0 C5.445 0.495 5.445 0.495 11 1 C11 1.33 11 1.66 11 2 C0.96788765 3.24844065 -8.86729571 4.35762486 -19 4 C-19 3.67 -19 3.34 -19 3 C-12.73 2.34 -6.46 1.68 0 1 C0 0.67 0 0.34 0 0 Z " fill="#605F5F" transform="translate(577,580)"/>
<path d="M0 0 C0.33 0.99 0.66 1.98 1 3 C-1 6 -1 6 -3.8125 7 C-7 7 -7 7 -9.875 4.5625 C-10.57625 3.716875 -11.2775 2.87125 -12 2 C-10.9171875 2.2165625 -10.9171875 2.2165625 -9.8125 2.4375 C-8.4203125 2.7159375 -8.4203125 2.7159375 -7 3 C-5.33333333 3.33333333 -3.66666667 3.66666667 -2 4 C-1.34 2.68 -0.68 1.36 0 0 Z " fill="#414141" transform="translate(453,428)"/>
<path d="M0 0 C1.40297744 2.80595488 0.33969067 4.52771855 -0.453125 7.42578125 C-1.53971989 12.54053863 -1.69817765 17.78959312 -2 23 C-2.33 23 -2.66 23 -3 23 C-3.02903577 19.89585298 -3.0468107 16.79174091 -3.0625 13.6875 C-3.07087891 12.80642578 -3.07925781 11.92535156 -3.08789062 11.01757812 C-3.09111328 10.17001953 -3.09433594 9.32246094 -3.09765625 8.44921875 C-3.10289307 7.66893311 -3.10812988 6.88864746 -3.11352539 6.0847168 C-3 4 -3 4 -2 1 C-1.34 0.67 -0.68 0.34 0 0 Z " fill="#1B1B1C" transform="translate(473,460)"/>
<path d="M0 0 C3.01170446 -0.2685261 4.59220404 -0.25089574 7.203125 1.35546875 C7.87859375 1.96003906 8.5540625 2.56460937 9.25 3.1875 C10.27867187 4.07501953 10.27867187 4.07501953 11.328125 4.98046875 C13.26901694 7.32495737 13.64900474 9.01137858 14 12 C13.360625 11.29875 12.72125 10.5975 12.0625 9.875 C9.00038078 6.77748056 5.4594712 4.55509759 1.79296875 2.234375 C1.20128906 1.82703125 0.60960937 1.4196875 0 1 C0 0.67 0 0.34 0 0 Z " fill="#434342" transform="translate(525,446)"/>
<path d="M0 0 C2.97 0.495 2.97 0.495 6 1 C6.33 2.32 6.66 3.64 7 5 C0.4 4.34 -6.2 3.68 -13 3 C-13 2.67 -13 2.34 -13 2 C-6.565 1.505 -6.565 1.505 0 1 C0 0.67 0 0.34 0 0 Z " fill="#595958" transform="translate(518,441)"/>
<path d="M0 0 C0 0.33 0 0.66 0 1 C-4.4378561 2.11165232 -8.76956386 2.11527763 -13.3125 2.0625 C-14.05306641 2.05798828 -14.79363281 2.05347656 -15.55664062 2.04882812 C-17.37112899 2.03712175 -19.18557534 2.01918898 -21 2 C-21 1.67 -21 1.34 -21 1 C-14.04359209 -1.81568891 -7.33438993 -0.75276679 0 0 Z " fill="#1E1E1D" transform="translate(581,573)"/>
<path d="M0 0 C0.33 0 0.66 0 1 0 C1.05425226 2.39614126 1.09379027 4.79103853 1.125 7.1875 C1.14175781 7.86103516 1.15851562 8.53457031 1.17578125 9.22851562 C1.21518588 13.26748978 0.92896579 16.41859848 -1 20 C-1.66 20.33 -2.32 20.66 -3 21 C-2.01 14.07 -1.02 7.14 0 0 Z " fill="#424242" transform="translate(554,470)"/>
<path d="M0 0 C1.25425781 0.10183594 2.50851562 0.20367187 3.80078125 0.30859375 C5.22970703 0.43427734 5.22970703 0.43427734 6.6875 0.5625 C6.6875 0.8925 6.6875 1.2225 6.6875 1.5625 C0.0875 2.2225 -6.5125 2.8825 -13.3125 3.5625 C-12.9825 2.5725 -12.6525 1.5825 -12.3125 0.5625 C-8.06698144 -0.53337955 -4.3532161 -0.36615836 0 0 Z " fill="#555555" transform="translate(719.3125,423.4375)"/>
<path d="M0 0 C-3.08137704 3.08137704 -6.07260266 2.97281954 -10.33203125 3.09765625 C-11.48058594 3.08605469 -12.62914062 3.07445312 -13.8125 3.0625 C-14.97394531 3.05347656 -16.13539063 3.04445313 -17.33203125 3.03515625 C-18.21246094 3.02355469 -19.09289062 3.01195312 -20 3 C-20 2.67 -20 2.34 -20 2 C-14.555 1.505 -14.555 1.505 -9 1 C-9 0.67 -9 0.34 -9 0 C-3.375 -1.125 -3.375 -1.125 0 0 Z " fill="#4E4E4D" transform="translate(526,517)"/>
<path d="M0 0 C-2.53645881 3.10011632 -5.15184135 4.0575938 -9 5 C-11.375 4.625 -11.375 4.625 -13 4 C-12.34 4 -11.68 4 -11 4 C-11 3.34 -11 2.68 -11 2 C-7.17679443 0.57741188 -4.08718695 -0.24042276 0 0 Z " fill="#303130" transform="translate(212,520)"/>
<path d="M0 0 C0 0.33 0 0.66 0 1 C-2.26860837 1.5304408 -4.53998489 2.04905434 -6.8125 2.5625 C-8.70935547 2.99755859 -8.70935547 2.99755859 -10.64453125 3.44140625 C-14 4 -14 4 -17 3 C-16.34 3 -15.68 3 -15 3 C-15 2.34 -15 1.68 -15 1 C-9.69276568 -0.42705634 -5.46108889 -1.4002792 0 0 Z " fill="#474746" transform="translate(323,476)"/>
<path d="M0 0 C0 0.33 0 0.66 0 1 C-2.10170656 1.53067341 -4.20647598 2.04922857 -6.3125 2.5625 C-7.48425781 2.85253906 -8.65601563 3.14257812 -9.86328125 3.44140625 C-13 4 -13 4 -16 3 C-15.34 3 -14.68 3 -14 3 C-14 2.34 -14 1.68 -14 1 C-8.83430559 -0.79217969 -5.48946087 -1.12029814 0 0 Z " fill="#484848" transform="translate(340,399)"/>
<path d="M0 0 C0.70189453 0.00451172 1.40378906 0.00902344 2.12695312 0.01367188 C3.85550538 0.02543073 5.58401365 0.04336546 7.3125 0.0625 C7.3125 0.3925 7.3125 0.7225 7.3125 1.0625 C5.12597261 1.40215474 2.93821975 1.73392477 0.75 2.0625 C-1.07724609 2.3409375 -1.07724609 2.3409375 -2.94140625 2.625 C-6.56377848 3.04805077 -10.04462046 3.13751425 -13.6875 3.0625 C-9.06453806 -0.01947463 -5.37263877 -0.0652141 0 0 Z " fill="#4B4B4B" transform="translate(731.6875,500.9375)"/>
<path d="M0 0 C1.32 0.66 2.64 1.32 4 2 C-3.92 2.495 -3.92 2.495 -12 3 C-7.59158964 0.06105976 -5.34048684 -0.27623208 0 0 Z " fill="#292928" transform="translate(738,491)"/>
<path d="M0 0 C0.66 0.99 1.32 1.98 2 3 C-2.625 8.875 -2.625 8.875 -6 10 C-6.33 9.34 -6.66 8.68 -7 8 C-6.401875 7.4225 -5.80375 6.845 -5.1875 6.25 C-3.2517316 4.25892393 -1.61090717 2.25527003 0 0 Z " fill="#3C3C3B" transform="translate(479,448)"/>
<path d="M0 0 C4.50884026 2.31883213 6.93906776 5.06451569 10 9 C9.67 9.66 9.34 10.32 9 11 C6.95880212 9.38405168 4.95927063 7.7143618 3 6 C3 5.34 3 4.68 3 4 C2.01 3.67 1.02 3.34 0 3 C0 2.01 0 1.02 0 0 Z " fill="#3C3C3B" transform="translate(537,441)"/>
<path d="M0 0 C1.32 0.33 2.64 0.66 4 1 C0.7 3.31 -2.6 5.62 -6 8 C-6.66 7.67 -7.32 7.34 -8 7 C-5.42215154 4.35247996 -3.08351902 2.05567935 0 0 Z " fill="#2B2C2A" transform="translate(289,408)"/>
<path d="M0 0 C3.3138009 0.57134498 4.78626651 1.49751866 7 4 C7.556875 4.556875 8.11375 5.11375 8.6875 5.6875 C9.3371875 6.3371875 9.3371875 6.3371875 10 7 C6.61976483 7 4.16531063 6.12544378 1 5 C1 4.34 1 3.68 1 3 C0.34 2.67 -0.32 2.34 -1 2 C-0.67 1.34 -0.34 0.68 0 0 Z " fill="#3E3E3D" transform="translate(391,486)"/>
<path d="M0 0 C0 0.66 0 1.32 0 2 C-3.96 2.99 -7.92 3.98 -12 5 C-11.67 4.01 -11.34 3.02 -11 2 C-7.24092359 0.37676246 -4.07913787 -0.23994929 0 0 Z " fill="#3F3F3E" transform="translate(704,426)"/>
<path d="M0 0 C4.62 0 9.24 0 14 0 C14 0.66 14 1.32 14 2 C8.06 2.495 8.06 2.495 2 3 C1.34 2.01 0.68 1.02 0 0 Z " fill="#474745" transform="translate(552,572)"/>
<path d="M0 0 C0.598125 0.20625 1.19625 0.4125 1.8125 0.625 C-0.59186026 4.23154039 -2.13429607 4.47952932 -6.1875 5.625 C-5.875 3.75 -5.875 3.75 -5.1875 1.625 C-2.1875 -0.375 -2.1875 -0.375 0 0 Z M-9.1875 4.625 C-8.1975 4.955 -7.2075 5.285 -6.1875 5.625 C-7.1775 5.625 -8.1675 5.625 -9.1875 5.625 C-9.1875 5.295 -9.1875 4.965 -9.1875 4.625 Z " fill="#2B2C2B" transform="translate(623.1875,557.375)"/>
<path d="M0 0 C4.62 0.66 9.24 1.32 14 2 C14 2.33 14 2.66 14 3 C5.57142857 4.28571429 5.57142857 4.28571429 1 3 C0.67 2.01 0.34 1.02 0 0 Z " fill="#4B4B4A" transform="translate(492,542)"/>
<path d="M0 0 C0.66 0.33 1.32 0.66 2 1 C-0.97 4.3 -3.94 7.6 -7 11 C-7.66 10.67 -8.32 10.34 -9 10 C-7.8758824 8.70756532 -6.75067408 7.41607925 -5.625 6.125 C-4.99851562 5.40570312 -4.37203125 4.68640625 -3.7265625 3.9453125 C-2.52573166 2.5923402 -1.2791655 1.2791655 0 0 Z " fill="#3E3F3E" transform="translate(658,528)"/>
<path d="M0 0 C-4.455 2.97 -4.455 2.97 -9 6 C-9.66 5.67 -10.32 5.34 -11 5 C-4.92783505 -1.23195876 -4.92783505 -1.23195876 0 0 Z " fill="#2E2E2D" transform="translate(689,509)"/>
<path d="M0 0 C-1 2 -1 2 -2.609375 2.65234375 C-5.89125717 3.12961093 -8.94867643 2.8376103 -12.25 2.5625 C-13.51328125 2.46066406 -14.7765625 2.35882813 -16.078125 2.25390625 C-17.52445312 2.12822266 -17.52445312 2.12822266 -19 2 C-19 1.67 -19 1.34 -19 1 C-16.77100213 0.83109082 -14.54179338 0.66496313 -12.3125 0.5 C-10.45044922 0.36078125 -10.45044922 0.36078125 -8.55078125 0.21875 C-5.68500671 0.04220063 -2.86900043 -0.04388528 0 0 Z " fill="#515150" transform="translate(525,508)"/>
<path d="M0 0 C4.10958767 1.45044271 7.43258745 3.51110752 11 6 C9.375 6.75 9.375 6.75 7 7 C1.288 3.864 1.288 3.864 0 0 Z " fill="#2C2C2C" transform="translate(814,455)"/>
<path d="M0 0 C1.75070517 0.11470137 3.50057536 0.24219028 5.25 0.375 C6.22453125 0.44460938 7.1990625 0.51421875 8.203125 0.5859375 C10.89633189 0.98465249 12.66963279 1.63507063 15 3 C8.99810005 4.20037999 5.15444131 3.4362942 0 0 Z " fill="#565655" transform="translate(371,388)"/>
<path d="M0 0 C3.3 0.33 6.6 0.66 10 1 C10 1.33 10 1.66 10 2 C4.94997778 3.03590199 0.12583611 3.10251672 -5 3 C-5 2.67 -5 2.34 -5 2 C-3.35 1.67 -1.7 1.34 0 1 C0 0.67 0 0.34 0 0 Z " fill="#494949" transform="translate(525,552)"/>
<path d="M0 0 C-3.14573677 2.09715785 -5.01456251 2.52004559 -8.6875 3.125 C-9.68136719 3.29257812 -10.67523438 3.46015625 -11.69921875 3.6328125 C-12.45847656 3.75398437 -13.21773437 3.87515625 -14 4 C-13.34 3.34 -12.68 2.68 -12 2 C-10.68 2 -9.36 2 -8 2 C-8 1.34 -8 0.68 -8 0 C-4.71023192 -1.09658936 -3.28696233 -0.79953138 0 0 Z " fill="#4A4A4A" transform="translate(203,533)"/>
<path d="M0 0 C0.66 0.33 1.32 0.66 2 1 C1.01 1.66 0.02 2.32 -1 3 C-0.67 2.01 -0.34 1.02 0 0 Z M-3.25 2.6875 C-2.13625 2.8421875 -2.13625 2.8421875 -1 3 C-3.19909405 5.19909405 -5.56070254 7.07423885 -8 9 C-8.66 8.67 -9.32 8.34 -10 8 C-6.67692308 3.07692308 -6.67692308 3.07692308 -3.25 2.6875 Z " fill="#2A2A29" transform="translate(579,518)"/>
<path d="M0 0 C0.99 0.66 1.98 1.32 3 2 C1.71349294 2.69710731 0.42059335 3.38242876 -0.875 4.0625 C-1.95394531 4.63677734 -1.95394531 4.63677734 -3.0546875 5.22265625 C-3.69664062 5.47917969 -4.33859375 5.73570312 -5 6 C-5.66 5.67 -6.32 5.34 -7 5 C-4.78414572 1.67621858 -3.77126791 1.01180358 0 0 Z " fill="#414141" transform="translate(313,405)"/>
<path d="M0 0 C0 0.66 0 1.32 0 2 C0.66 2.33 1.32 2.66 2 3 C-2.37934119 2.48041715 -6.68803391 1.94324258 -11 1 C-11 0.67 -11 0.34 -11 0 C-6.98195309 -0.84098656 -3.98196457 -1.05404945 0 0 Z " fill="#545453" transform="translate(386,399)"/>
<path d="M0 0 C1.258125 0.12375 2.51625 0.2475 3.8125 0.375 C4.87404297 0.47941406 4.87404297 0.47941406 5.95703125 0.5859375 C8 1 8 1 11 3 C7.44706507 4.14947895 6.20023331 4.0868937 2.6875 2.5625 C1.800625 2.046875 0.91375 1.53125 0 1 C0 0.67 0 0.34 0 0 Z " fill="#404140" transform="translate(521,565)"/>
<path d="M0 0 C3.79303725 1.00193437 6.71536341 1.81024227 10 4 C10 4.66 10 5.32 10 6 C5.56909529 4.79157144 3.01887244 3.48331435 0 0 Z " fill="#2B2B2A" transform="translate(833,528)"/>
<path d="M0 0 C0.66 0.33 1.32 0.66 2 1 C0.06745228 3.0245738 -1.63158688 4.42105792 -4 6 C-6.1875 5.625 -6.1875 5.625 -8 5 C-6.71475739 4.13619741 -5.42157581 3.28419631 -4.125 2.4375 C-3.04605469 1.72400391 -3.04605469 1.72400391 -1.9453125 0.99609375 C-1.30335938 0.66738281 -0.66140625 0.33867187 0 0 Z " fill="#3F4040" transform="translate(271,483)"/>
<path d="M0 0 C2.97 0 5.94 0 9 0 C8.67 1.32 8.34 2.64 8 4 C5.36 3.01 2.72 2.02 0 1 C0 0.67 0 0.34 0 0 Z " fill="#474746" transform="translate(849,476)"/>
<path d="M0 0 C-0.99 0.495 -0.99 0.495 -2 1 C-2 1.99 -2 2.98 -2 4 C-2.8353125 3.7834375 -2.8353125 3.7834375 -3.6875 3.5625 C-6.11384195 2.97230872 -8.54906345 2.476571 -11 2 C-11 1.67 -11 1.34 -11 1 C-7.27569643 0.30710631 -3.78916254 -0.11144596 0 0 Z " fill="#4D4E4D" transform="translate(719,414)"/>
<path d="M0 0 C6.625 -0.125 6.625 -0.125 10 1 C10.33 1.99 10.66 2.98 11 4 C7.37 3.01 3.74 2.02 0 1 C0 0.67 0 0.34 0 0 Z " fill="#4B4A4A" transform="translate(388,402)"/>
<path d="M0 0 C-0.66 0 -1.32 0 -2 0 C-2 0.99 -2 1.98 -2 3 C-3.8125 3.6875 -3.8125 3.6875 -6 4 C-7.75 2.5625 -7.75 2.5625 -9 1 C-3.375 -1.125 -3.375 -1.125 0 0 Z " fill="#444443" transform="translate(201,524)"/>
<path d="M0 0 C2.97 0.99 5.94 1.98 9 3 C7.02 3.99 7.02 3.99 5 5 C2.25 3.75 2.25 3.75 0 2 C0 1.34 0 0.68 0 0 Z " fill="#3E3E3E" transform="translate(799,501)"/>
<path d="M0 0 C1.27875 -0.061875 2.5575 -0.12375 3.875 -0.1875 C4.95394531 -0.23970703 4.95394531 -0.23970703 6.0546875 -0.29296875 C6.69664062 -0.19628906 7.33859375 -0.09960938 8 0 C8.66 0.99 9.32 1.98 10 3 C2.25 2.25 2.25 2.25 0 0 Z " fill="#262726" transform="translate(774,494)"/>
<path d="M0 0 C6.625 0.75 6.625 0.75 10 3 C8.375 3.6875 8.375 3.6875 6 4 C2.75 2.5625 2.75 2.5625 0 1 C0 0.67 0 0.34 0 0 Z " fill="#313130" transform="translate(376,472)"/>
<path d="M0 0 C0.99 0.33 1.98 0.66 3 1 C3.6875 3.0625 3.6875 3.0625 4 5 C4.66 5 5.32 5 6 5 C5.34 6.32 4.68 7.64 4 9 C2.00902154 6.01353231 1.05875074 3.40312738 0 0 Z " fill="#464645" transform="translate(540,459)"/>
<path d="M0 0 C0.598125 0.20625 1.19625 0.4125 1.8125 0.625 C-2.8125 4.625 -2.8125 4.625 -6.1875 4.625 C-5.03076352 1.15479057 -3.91311293 -0.67081936 0 0 Z " fill="#2E2E2E" transform="translate(241.1875,444.375)"/>
<path d="M0 0 C-6.93 -0.495 -6.93 -0.495 -14 -1 C-14 -1.33 -14 -1.66 -14 -2 C-8.03201996 -3.03291962 -5.04414952 -3.36276635 0 0 Z " fill="#525252" transform="translate(748,426)"/>
<path d="M0 0 C-5.2734375 3.22265625 -5.2734375 3.22265625 -7 4 C-7.66 3.67 -8.32 3.34 -9 3 C-5.83583464 -0.30799106 -4.50236011 -1.35070803 0 0 Z " fill="#41413F" transform="translate(627,567)"/>
<path d="M0 0 C0.66 0.33 1.32 0.66 2 1 C2 1.99 2 2.98 2 4 C0.35 4.66 -1.3 5.32 -3 6 C-3.33 5.01 -3.66 4.02 -4 3 C-2.68 2.01 -1.36 1.02 0 0 Z " fill="#424240" transform="translate(561,530)"/>
<path d="M0 0 C0.99 0.66 1.98 1.32 3 2 C0.1875 3.5625 0.1875 3.5625 -3 5 C-3.99 4.67 -4.98 4.34 -6 4 C-4.03617993 2.49440461 -2.21736634 1.10868317 0 0 Z " fill="#40403F" transform="translate(224,522)"/>
<path d="M0 0 C0.99 0.66 1.98 1.32 3 2 C-2.2734375 5.22265625 -2.2734375 5.22265625 -4 6 C-4.66 5.67 -5.32 5.34 -6 5 C-4.06745228 2.9754262 -2.36841312 1.57894208 0 0 Z " fill="#3F3F3F" transform="translate(693,513)"/>
<path d="M0 0 C0.33 0.99 0.66 1.98 1 3 C-0.9375 6.1875 -0.9375 6.1875 -3 9 C-3.75 7.3125 -3.75 7.3125 -4 5 C-2.0625 2.25 -2.0625 2.25 0 0 Z " fill="#262626" transform="translate(543,489)"/>
<path d="M0 0 C1.32 0.33 2.64 0.66 4 1 C1.03 3.475 1.03 3.475 -2 6 C-2.66 5.67 -3.32 5.34 -4 5 C-2.68 3.35 -1.36 1.7 0 0 Z " fill="#262726" transform="translate(270,421)"/>
<path d="M0 0 C3.41021743 0.78697325 6.68885166 1.87119943 10 3 C10 3.33 10 3.66 10 4 C6.05272412 4.17942163 3.4019487 4.09350689 0 2 C0 1.34 0 0.68 0 0 Z " fill="#2D2D2C" transform="translate(823,523)"/>
<path d="M0 0 C-1.15173355 2.46800047 -2.04783565 4.04783565 -4 6 C-4.99 5.67 -5.98 5.34 -7 5 C-2.25 0 -2.25 0 0 0 Z " fill="#2B2B2B" transform="translate(585,523)"/>
<path d="M0 0 C2.3125 0.1875 2.3125 0.1875 5 1 C6.8125 3.5625 6.8125 3.5625 8 6 C4.63408134 4.55746343 2.48952921 2.66735273 0 0 Z " fill="#444343" transform="translate(434,517)"/>
<path d="M0 0 C2.3125 0.1875 2.3125 0.1875 5 1 C6.8125 3.5625 6.8125 3.5625 8 6 C4.63408134 4.55746343 2.48952921 2.66735273 0 0 Z " fill="#464646" transform="translate(425,510)"/>
<path d="M0 0 C2.875 0.25 2.875 0.25 6 1 C7.375 3.0625 7.375 3.0625 8 5 C4.62496331 3.8141763 2.35277269 2.72426311 0 0 Z " fill="#41403F" transform="translate(403,495)"/>
<path d="M0 0 C2.76223278 2.76223278 2.57856291 5.20706617 3 9 C2.34 9 1.68 9 1 9 C-0.4783226 6.04335481 -0.06032783 3.25770263 0 0 Z " fill="#292929" transform="translate(471,484)"/>
<path d="M0 0 C0.99 0.33 1.98 0.66 3 1 C2.34 2.32 1.68 3.64 1 5 C0.01 5 -0.98 5 -2 5 C-1.125 1.125 -1.125 1.125 0 0 Z " fill="#282928" transform="translate(482,445)"/>
<path d="M0 0 C3.4375 0.8125 3.4375 0.8125 7 2 C7.33 2.99 7.66 3.98 8 5 C2.25 3.375 2.25 3.375 0 0 Z " fill="#2E2F2F" transform="translate(777,434)"/>
<path d="M0 0 C0.99 0.33 1.98 0.66 3 1 C0.03 3.475 0.03 3.475 -3 6 C-3.66 5.67 -4.32 5.34 -5 5 C-3.35 3.35 -1.7 1.7 0 0 Z " fill="#414240" transform="translate(276,428)"/>
<path d="M0 0 C2 1 2 1 2 1 Z " fill="#6A6969" transform="translate(725,490)"/>
<path d="" fill="#6B6868" transform="translate(0,0)"/>
<path d="" fill="#656565" transform="translate(0,0)"/>
<path d="M0 0 C2 1 2 1 2 1 Z " fill="#686968" transform="translate(621,465)"/>
<path d="M0 0 C2 1 2 1 2 1 Z " fill="#666565" transform="translate(818,461)"/>
<path d="" fill="#6A6A6A" transform="translate(0,0)"/>
<path d="M0 0 C2 1 2 1 2 1 Z " fill="#6B6B6A" transform="translate(626,457)"/>
<path d="M0 0 C2 1 2 1 2 1 Z " fill="#6A6969" transform="translate(549,450)"/>
<path d="M0 0 C2 1 2 1 2 1 Z " fill="#696A68" transform="translate(385,403)"/>
<path d="" fill="#5F605F" transform="translate(0,0)"/>
<path d="" fill="#696866" transform="translate(0,0)"/>
<path d="" fill="#6E6C6D" transform="translate(0,0)"/>
<path d="" fill="#696766" transform="translate(0,0)"/>
<path d="" fill="#6A6B6A" transform="translate(0,0)"/>
<path d="" fill="#656362" transform="translate(0,0)"/>
<path d="" fill="#636363" transform="translate(0,0)"/>
<path d="" fill="#6B696A" transform="translate(0,0)"/>
<path d="" fill="#6A6A6A" transform="translate(0,0)"/>
<path d="" fill="#6A6A6A" transform="translate(0,0)"/>
<path d="" fill="#666666" transform="translate(0,0)"/>
<path d="" fill="#656564" transform="translate(0,0)"/>
<path d="" fill="#686966" transform="translate(0,0)"/>
<path d="" fill="#6B696A" transform="translate(0,0)"/>
<path d="" fill="#666664" transform="translate(0,0)"/>
<path d="" fill="#6B6867" transform="translate(0,0)"/>
<path d="" fill="#6A6966" transform="translate(0,0)"/>
<path d="" fill="#6B6B69" transform="translate(0,0)"/>
<path d="" fill="#676564" transform="translate(0,0)"/>
<path d="" fill="#696964" transform="translate(0,0)"/>
<path d="" fill="#676563" transform="translate(0,0)"/>
<path d="" fill="#656163" transform="translate(0,0)"/>
<path d="" fill="#636360" transform="translate(0,0)"/>
<path d="" fill="#676464" transform="translate(0,0)"/>
<path d="" fill="#696868" transform="translate(0,0)"/>
<path d="" fill="#635F60" transform="translate(0,0)"/>
<path d="" fill="#686767" transform="translate(0,0)"/>
<path d="" fill="#676665" transform="translate(0,0)"/>
<path d="" fill="#666464" transform="translate(0,0)"/>
<path d="" fill="#686867" transform="translate(0,0)"/>
<path d="" fill="#616162" transform="translate(0,0)"/>
<path d="" fill="#666464" transform="translate(0,0)"/>
<path d="" fill="#696867" transform="translate(0,0)"/>
<path d="" fill="#666565" transform="translate(0,0)"/>
<path d="" fill="#6E6C6C" transform="translate(0,0)"/>
<path d="" fill="#6B6B6B" transform="translate(0,0)"/>
<path d="" fill="#6A6768" transform="translate(0,0)"/>
<path d="" fill="#676767" transform="translate(0,0)"/>
<path d="" fill="#686867" transform="translate(0,0)"/>
<path d="" fill="#6A6C6A" transform="translate(0,0)"/>
<path d="" fill="#6C6C69" transform="translate(0,0)"/>
<path d="" fill="#636564" transform="translate(0,0)"/>
<path d="" fill="#6B6B68" transform="translate(0,0)"/>
<path d="" fill="#656467" transform="translate(0,0)"/>
<path d="" fill="#686767" transform="translate(0,0)"/>
<path d="" fill="#6B6A6A" transform="translate(0,0)"/>
<path d="" fill="#666563" transform="translate(0,0)"/>
<path d="" fill="#636363" transform="translate(0,0)"/>
<path d="" fill="#6C6C6B" transform="translate(0,0)"/>
<path d="" fill="#6C6D6C" transform="translate(0,0)"/>
<path d="" fill="#6A6866" transform="translate(0,0)"/>
<path d="" fill="#6B6B69" transform="translate(0,0)"/>
<path d="" fill="#676566" transform="translate(0,0)"/>
<path d="" fill="#696969" transform="translate(0,0)"/>
<path d="" fill="#6B6B69" transform="translate(0,0)"/>
<path d="" fill="#686763" transform="translate(0,0)"/>
<path d="" fill="#6C6A6B" transform="translate(0,0)"/>
<path d="" fill="#6B6A68" transform="translate(0,0)"/>
<path d="" fill="#6A6969" transform="translate(0,0)"/>
<path d="" fill="#6D6C6B" transform="translate(0,0)"/>
<path d="" fill="#656465" transform="translate(0,0)"/>
<path d="" fill="#6A6869" transform="translate(0,0)"/>
<path d="" fill="#6C6D6B" transform="translate(0,0)"/>
<path d="" fill="#6C6A68" transform="translate(0,0)"/>
<path d="" fill="#6B6767" transform="translate(0,0)"/>
<path d="" fill="#6A6969" transform="translate(0,0)"/>
<path d="" fill="#6E6C6B" transform="translate(0,0)"/>
<path d="" fill="#6A6968" transform="translate(0,0)"/>
<path d="" fill="#6A6A69" transform="translate(0,0)"/>
<path d="" fill="#686A65" transform="translate(0,0)"/>
<path d="" fill="#6A6766" transform="translate(0,0)"/>
<path d="" fill="#6A6A69" transform="translate(0,0)"/>
<path d="" fill="#6E6C6D" transform="translate(0,0)"/>
<path d="" fill="#706E6C" transform="translate(0,0)"/>
<path d="" fill="#6E6E6D" transform="translate(0,0)"/>
<path d="" fill="#6B6D6C" transform="translate(0,0)"/>
<path d="" fill="#6E6D6D" transform="translate(0,0)"/>
</svg>
