<?xml version="1.0" standalone="no"?>
<!DOCTYPE svg PUBLIC "-//W3C//DTD SVG 20010904//EN" "http://www.w3.org/TR/2001/REC-SVG-20010904/DTD/svg10.dtd">
<svg xmlns="http://www.w3.org/2000/svg" version="1.0" width="1024.000000pt" height="1024.000000pt" viewBox="0 0 1024.000000 1024.000000" preserveAspectRatio="xMidYMid meet">
<metadata>
Created by potrace 1.16, written by Peter Selinger 2001-2019
<meta name="Producer" content="Online-Convert"/></metadata>
<g transform="translate(0.000000,1024.000000) scale(0.100000,-0.100000)" fill="#000000" stroke="none">
<path d="M6990 6564 c-110 -10 -304 -36 -405 -55 -457 -85 -844 -233 -1940 -744 -1010 -471 -1364 -616 -1780 -730 -393 -108 -853 -175 -1195 -175 -126 0 -140 -5 -140 -52 0 -23 6 -29 38 -37 78 -22 416 -6 697 34 385 54 740 145 1135 292 259 97 566 232 1295 570 1057 491 1314 595 1725 698 302 76 521 99 849 92 322 -6 527 -44 763 -138 174 -69 247 -110 384 -215 173 -134 298 -313 339 -488 21 -90 19 -221 -5 -297 -37 -117 -106 -187 -237 -238 l-68 -26 -505 -1 c-305 -1 -557 -6 -635 -13 -399 -37 -843 -147 -1195 -296 -63 -27 -277 -130 -475 -228 -1082 -538 -1453 -694 -1920 -807 -499 -121 -944 -141 -1329 -61 -112 24 -129 19 -124 -33 3 -28 9 -33 57 -49 279 -92 834 -87 1301 14 539 115 877 251 1920 767 528 261 621 304 770 359 313 114 614 187 955 229 116 15 230 18 665 19 l525 0 81 28 c231 78 344 236 344 484 0 308 -212 625 -555 828 -220 130 -460 208 -770 250 -115 15 -471 27 -565 19z"/>
</g>
</svg>
