<svg id="svg" version="1.1" xmlns="http://www.w3.org/2000/svg" xmlns:xlink="http://www.w3.org/1999/xlink" width="400" height="400" viewBox="0, 0, 400,400"><g id="svgg"><path id="path0" d="M221.851 41.530 C 219.326 42.237,217.906 43.381,216.582 45.772 L 215.430 47.852 215.328 150.293 C 215.273 206.636,215.150 252.734,215.055 252.734 C 214.960 252.734,214.059 252.178,213.052 251.498 C 180.312 229.403,123.670 247.018,104.437 285.277 C 93.111 307.806,97.269 331.620,114.803 344.657 C 116.007 345.552,117.081 346.374,117.189 346.482 C 119.017 348.314,128.422 351.897,135.732 353.547 C 155.503 358.007,181.459 350.841,201.197 335.473 C 202.938 334.117,204.818 332.656,205.374 332.227 C 215.660 324.279,227.549 305.800,229.501 294.727 C 230.025 291.755,230.132 291.062,230.252 289.844 C 230.326 289.092,230.404 253.540,230.426 210.840 C 230.454 155.733,230.587 133.203,230.885 133.203 C 231.116 133.203,232.304 133.729,233.524 134.371 C 234.744 135.014,237.324 136.309,239.258 137.249 C 243.774 139.446,249.435 142.416,250.741 143.275 C 251.302 143.644,252.112 144.153,252.541 144.408 C 255.031 145.884,259.344 148.610,260.352 149.343 C 260.996 149.812,262.754 151.068,264.258 152.134 C 272.175 157.745,279.933 165.089,285.084 171.850 C 286.237 173.363,290.270 180.469,289.976 180.469 C 289.854 180.469,290.038 180.902,290.385 181.432 C 290.732 181.961,291.016 182.717,291.016 183.111 C 291.016 183.506,291.162 183.995,291.340 184.199 C 291.759 184.678,292.559 187.431,293.207 190.625 C 293.316 191.162,293.568 192.336,293.768 193.234 C 295.514 201.081,294.296 212.835,290.974 220.193 C 290.567 221.095,290.228 222.062,290.221 222.342 C 290.214 222.622,289.868 223.555,289.453 224.414 C 289.038 225.273,288.692 226.137,288.685 226.332 C 288.678 226.528,287.226 229.956,285.458 233.949 C 280.939 244.159,281.066 246.989,286.170 249.891 C 293.168 253.869,297.204 249.739,303.164 232.498 C 303.810 230.630,304.446 228.838,304.577 228.516 C 304.708 228.193,304.852 227.798,304.898 227.637 C 304.943 227.476,305.024 227.256,305.078 227.148 C 305.132 227.041,305.205 226.821,305.242 226.660 C 305.732 224.483,306.399 221.992,306.570 221.696 C 306.689 221.490,306.832 220.963,306.887 220.524 C 306.942 220.086,307.176 218.848,307.407 217.773 C 308.361 213.338,308.736 201.338,308.066 196.680 C 307.295 191.310,307.296 191.118,308.109 189.975 C 308.543 189.366,309.716 186.758,310.716 184.180 C 311.717 181.602,312.735 179.053,312.978 178.516 C 313.222 177.979,313.455 177.407,313.498 177.246 C 313.540 177.085,313.618 176.865,313.672 176.758 C 313.726 176.650,313.813 176.387,313.867 176.172 C 313.921 175.957,314.000 175.737,314.044 175.684 C 314.087 175.630,314.179 175.290,314.249 174.928 C 314.319 174.566,314.909 172.545,315.560 170.436 C 319.902 156.377,320.748 146.195,318.590 133.984 C 317.961 130.430,313.603 118.177,311.294 113.477 C 306.266 103.237,295.224 92.418,280.507 83.311 C 259.252 70.157,254.402 66.454,240.716 52.930 C 228.828 41.182,227.011 40.084,221.851 41.530 M234.766 69.156 C 238.813 73.006,240.640 74.574,243.174 76.367 C 244.084 77.012,245.773 78.258,246.926 79.136 C 248.080 80.014,249.463 80.964,250.000 81.245 C 250.537 81.527,251.064 81.869,251.172 82.004 C 251.335 82.210,254.080 83.935,257.617 86.055 C 258.047 86.313,258.486 86.611,258.594 86.719 C 258.701 86.826,259.404 87.249,260.156 87.657 C 261.628 88.458,261.987 88.694,271.020 94.791 C 274.310 97.011,277.166 98.828,277.368 98.828 C 277.569 98.828,277.734 98.963,277.734 99.127 C 277.734 99.292,278.628 100.012,279.720 100.727 C 287.200 105.623,295.606 115.045,299.285 122.656 C 304.143 132.704,305.022 136.170,305.299 146.369 C 305.393 149.850,305.289 153.893,305.066 155.353 C 304.843 156.813,304.575 158.603,304.469 159.332 C 304.363 160.060,304.183 160.806,304.069 160.990 C 303.851 161.343,303.607 162.325,303.262 164.238 C 302.424 168.878,301.335 169.786,299.841 167.089 C 298.757 165.133,295.945 160.855,295.117 159.902 C 294.902 159.655,293.848 158.425,292.773 157.168 C 284.445 147.425,271.919 138.139,254.883 129.080 C 250.558 126.780,243.439 122.962,242.383 122.376 C 241.953 122.137,240.107 121.185,238.281 120.259 C 236.455 119.334,233.950 118.056,232.715 117.420 L 230.469 116.264 230.469 90.945 C 230.469 77.019,230.601 65.625,230.762 65.625 C 230.923 65.625,232.725 67.214,234.766 69.156 M187.891 256.775 C 188.428 256.873,189.570 257.076,190.430 257.225 C 196.405 258.266,204.661 262.497,208.659 266.567 C 210.214 268.149,213.665 273.828,213.072 273.828 C 212.962 273.828,213.127 274.224,213.437 274.707 C 213.747 275.190,214.088 276.113,214.194 276.758 C 214.300 277.402,214.575 278.809,214.805 279.883 C 215.235 281.893,215.171 289.656,214.701 292.322 C 214.073 295.886,212.531 299.556,209.219 305.368 C 208.172 307.206,206.042 310.155,205.762 310.155 C 205.601 310.156,205.469 310.351,205.469 310.589 C 205.469 310.828,205.127 311.399,204.710 311.859 C 204.292 312.319,203.216 313.574,202.318 314.648 C 198.663 319.021,188.390 327.240,183.206 329.938 C 182.027 330.552,180.931 331.230,180.771 331.445 C 180.611 331.660,180.478 331.677,180.475 331.482 C 180.471 331.288,180.147 331.420,179.754 331.776 C 178.419 332.984,168.216 337.043,165.039 337.629 C 164.609 337.708,163.950 337.888,163.574 338.027 C 163.198 338.167,162.583 338.397,162.207 338.539 C 161.831 338.680,161.418 338.777,161.290 338.754 C 161.161 338.730,160.106 338.973,158.946 339.294 C 156.073 340.087,145.538 340.446,141.797 339.879 C 140.186 339.635,138.249 339.362,137.494 339.271 C 130.674 338.458,116.016 329.140,116.016 325.618 C 116.016 325.278,115.864 325.000,115.678 325.000 C 115.296 325.000,113.729 321.574,112.641 318.359 C 111.613 315.322,111.692 303.185,112.752 301.471 C 112.858 301.299,113.026 300.678,113.124 300.091 C 113.223 299.504,113.413 298.760,113.547 298.438 C 113.681 298.115,113.834 297.676,113.887 297.461 C 113.941 297.246,114.191 296.543,114.442 295.898 C 114.693 295.254,114.905 294.639,114.913 294.531 C 114.948 294.059,116.578 291.101,117.427 289.967 C 117.940 289.284,118.359 288.630,118.359 288.516 C 118.359 286.429,131.730 272.618,135.579 270.730 C 136.206 270.422,136.719 270.027,136.719 269.851 C 136.719 269.675,136.982 269.531,137.305 269.531 C 137.627 269.531,137.891 269.376,137.891 269.186 C 137.891 268.996,138.198 268.738,138.574 268.612 C 139.347 268.352,140.719 267.515,141.019 267.121 C 142.013 265.815,161.347 257.970,162.818 258.276 C 162.965 258.306,163.525 258.216,164.063 258.076 C 164.600 257.936,165.520 257.743,166.107 257.648 C 166.694 257.554,167.310 257.392,167.476 257.289 C 167.642 257.187,169.359 256.981,171.291 256.831 C 173.224 256.682,174.893 256.470,175.000 256.361 C 175.218 256.139,186.364 256.497,187.891 256.775 " stroke="none" fill="#040404" fill-rule="evenodd"></path><path id="path1" d="M220.801 41.418 C 219.555 41.919,219.707 42.216,220.996 41.799 C 221.587 41.608,222.422 41.374,222.852 41.279 C 223.465 41.143,223.423 41.102,222.656 41.086 C 222.119 41.074,221.284 41.224,220.801 41.418 M234.759 46.973 C 238.562 50.873,239.063 51.349,239.063 51.067 C 239.063 51.010,237.173 49.120,234.863 46.868 L 230.664 42.773 234.759 46.973 M216.558 45.129 C 216.201 45.673,215.981 46.189,216.068 46.276 C 216.155 46.363,216.522 45.918,216.884 45.287 C 217.690 43.883,217.450 43.767,216.558 45.129 M242.578 54.795 C 242.578 54.854,243.940 56.216,245.605 57.822 L 248.633 60.742 245.713 57.715 C 243.001 54.903,242.578 54.509,242.578 54.795 M250.781 62.695 C 251.510 63.447,252.194 64.063,252.302 64.063 C 252.409 64.063,251.901 63.447,251.172 62.695 C 250.443 61.943,249.759 61.328,249.651 61.328 C 249.544 61.328,250.052 61.943,250.781 62.695 M230.469 90.875 C 230.469 117.810,230.423 117.116,232.216 117.175 C 232.425 117.182,232.205 116.914,231.728 116.579 L 230.859 115.971 230.859 90.933 L 230.859 65.895 231.738 66.639 L 232.617 67.383 231.873 66.504 C 231.464 66.021,230.980 65.625,230.799 65.625 C 230.617 65.625,230.469 76.987,230.469 90.875 M257.206 67.935 C 257.500 68.410,260.938 70.832,260.938 70.563 C 260.938 70.466,260.040 69.741,258.944 68.953 C 257.847 68.165,257.065 67.707,257.206 67.935 M235.156 69.653 C 235.156 69.721,235.728 70.292,236.426 70.923 L 237.695 72.070 236.548 70.801 C 235.479 69.617,235.156 69.352,235.156 69.653 M266.771 74.535 C 267.294 74.960,268.261 75.604,268.920 75.967 L 270.117 76.628 269.166 75.856 C 268.644 75.431,267.677 74.786,267.018 74.423 L 265.820 73.763 266.771 74.535 M273.242 78.718 C 273.672 79.068,274.375 79.527,274.805 79.738 L 275.586 80.121 274.805 79.485 C 274.375 79.135,273.672 78.676,273.242 78.465 L 272.461 78.082 273.242 78.718 M300.797 99.038 C 301.970 100.335,303.009 101.339,303.107 101.270 C 303.204 101.200,302.244 100.139,300.974 98.912 L 298.665 96.680 300.797 99.038 M307.422 107.031 C 307.881 107.676,308.344 108.203,308.452 108.203 C 308.559 108.203,308.271 107.676,307.813 107.031 C 307.354 106.387,306.890 105.859,306.783 105.859 C 306.675 105.859,306.963 106.387,307.422 107.031 M314.677 121.484 C 314.821 122.021,315.101 122.725,315.300 123.047 C 315.552 123.454,315.583 123.335,315.401 122.656 C 315.257 122.119,314.977 121.416,314.778 121.094 C 314.526 120.687,314.495 120.806,314.677 121.484 M243.359 122.838 C 243.359 122.946,244.238 123.479,245.313 124.023 C 246.387 124.568,247.266 124.925,247.266 124.818 C 247.266 124.710,246.387 124.177,245.313 123.633 C 244.238 123.088,243.359 122.731,243.359 122.838 M249.219 125.963 C 249.219 126.071,250.098 126.604,251.172 127.148 C 252.246 127.693,253.125 128.050,253.125 127.943 C 253.125 127.835,252.246 127.302,251.172 126.758 C 250.098 126.213,249.219 125.856,249.219 125.963 M230.565 210.254 L 230.662 287.305 230.762 210.423 L 230.861 133.542 231.739 133.789 C 232.427 133.982,232.490 133.947,232.031 133.625 C 231.709 133.400,231.226 133.212,230.957 133.209 C 230.568 133.204,230.488 148.820,230.565 210.254 M319.643 141.602 C 319.646 142.676,319.722 143.069,319.812 142.475 C 319.901 141.881,319.899 141.002,319.806 140.522 C 319.714 140.042,319.640 140.527,319.643 141.602 M284.570 148.828 C 285.409 149.688,286.184 150.391,286.291 150.391 C 286.399 150.391,285.800 149.688,284.961 148.828 C 284.122 147.969,283.347 147.266,283.240 147.266 C 283.132 147.266,283.731 147.969,284.570 148.828 M319.643 150.195 C 319.646 151.270,319.722 151.663,319.812 151.069 C 319.901 150.475,319.899 149.596,319.806 149.116 C 319.714 148.635,319.640 149.121,319.643 150.195 M299.880 167.187 C 301.181 169.504,301.424 169.567,302.168 167.786 C 302.971 165.864,302.817 165.502,301.992 167.372 L 301.307 168.924 300.226 167.079 C 298.782 164.615,298.487 164.707,299.880 167.187 M294.665 201.758 C 294.667 203.477,294.735 204.131,294.818 203.212 C 294.900 202.294,294.899 200.887,294.815 200.087 C 294.731 199.287,294.664 200.039,294.665 201.758 M308.302 200.195 C 308.306 201.055,308.386 201.360,308.479 200.874 C 308.573 200.388,308.569 199.685,308.472 199.312 C 308.374 198.938,308.297 199.336,308.302 200.195 M308.302 211.133 C 308.306 211.992,308.386 212.298,308.479 211.812 C 308.573 211.326,308.569 210.623,308.472 210.249 C 308.374 209.876,308.297 210.273,308.302 211.133 M174.525 241.695 C 175.660 241.774,177.418 241.773,178.431 241.693 C 179.444 241.613,178.516 241.548,176.367 241.549 C 174.219 241.550,173.390 241.616,174.525 241.695 M170.020 242.066 C 170.396 242.164,171.011 242.164,171.387 242.066 C 171.763 241.968,171.455 241.888,170.703 241.888 C 169.951 241.888,169.644 241.968,170.020 242.066 M181.744 242.077 C 182.337 242.167,183.216 242.165,183.697 242.072 C 184.177 241.979,183.691 241.906,182.617 241.909 C 181.543 241.912,181.150 241.987,181.744 242.077 M186.230 242.463 C 186.714 242.556,187.505 242.556,187.988 242.463 C 188.472 242.370,188.076 242.294,187.109 242.294 C 186.143 242.294,185.747 242.370,186.230 242.463 M281.731 243.359 C 281.731 244.111,281.812 244.419,281.910 244.043 C 282.008 243.667,282.008 243.052,281.910 242.676 C 281.812 242.300,281.731 242.607,281.731 243.359 M298.892 243.181 C 298.237 244.617,298.362 244.924,299.070 243.618 C 299.400 243.008,299.597 242.436,299.508 242.347 C 299.419 242.257,299.141 242.633,298.892 243.181 M190.332 242.847 C 190.708 242.946,191.323 242.946,191.699 242.847 C 192.075 242.749,191.768 242.669,191.016 242.669 C 190.264 242.669,189.956 242.749,190.332 242.847 M198.828 244.727 C 200.612 245.413,201.313 245.403,199.805 244.712 C 199.160 244.417,198.369 244.181,198.047 244.188 C 197.725 244.195,198.076 244.437,198.828 244.727 M154.883 244.922 C 154.390 245.133,154.318 245.258,154.688 245.258 C 155.010 245.258,155.625 245.107,156.055 244.922 C 156.547 244.710,156.619 244.586,156.250 244.586 C 155.928 244.586,155.313 244.737,154.883 244.922 M141.699 250.025 C 140.464 250.663,139.453 251.272,139.453 251.379 C 139.453 251.554,144.102 249.341,144.499 248.977 C 145.010 248.509,143.650 249.018,141.699 250.025 M208.984 249.003 C 208.984 249.111,209.512 249.471,210.156 249.805 C 210.801 250.138,211.328 250.323,211.328 250.215 C 211.328 250.108,210.801 249.747,210.156 249.414 C 209.512 249.081,208.984 248.896,208.984 249.003 M137.402 252.177 C 135.888 252.998,136.059 253.282,137.598 252.499 C 139.070 251.751,139.331 251.556,138.835 251.578 C 138.638 251.587,137.993 251.856,137.402 252.177 M131.934 255.302 C 130.473 256.094,130.562 256.424,132.031 255.664 C 132.676 255.331,133.203 254.975,133.203 254.873 C 133.203 254.621,133.161 254.636,131.934 255.302 M126.465 258.988 C 125.015 260.058,123.828 261.020,123.828 261.125 C 123.828 261.230,125.059 260.418,126.563 259.321 C 128.935 257.590,129.601 257.013,129.199 257.037 C 129.146 257.040,127.915 257.918,126.465 258.988 M121.854 262.793 L 120.508 264.258 121.973 262.912 C 123.336 261.659,123.617 261.328,123.319 261.328 C 123.254 261.328,122.594 261.987,121.854 262.793 M114.422 270.215 C 112.604 272.171,111.560 273.438,111.767 273.438 C 111.860 273.438,112.864 272.383,113.999 271.094 C 116.278 268.504,116.564 267.910,114.422 270.215 M104.081 285.196 C 103.313 286.722,102.748 288.034,102.826 288.112 C 102.904 288.190,103.617 286.942,104.410 285.338 C 105.204 283.734,105.769 282.422,105.666 282.422 C 105.563 282.422,104.850 283.670,104.081 285.196 M97.802 308.789 C 97.803 311.152,97.868 312.069,97.945 310.826 C 98.023 309.582,98.022 307.649,97.944 306.529 C 97.865 305.409,97.801 306.426,97.802 308.789 M111.809 307.031 C 111.809 307.783,111.890 308.091,111.988 307.715 C 112.086 307.339,112.086 306.724,111.988 306.348 C 111.890 305.972,111.809 306.279,111.809 307.031 M111.817 313.867 C 111.822 314.727,111.902 315.032,111.995 314.546 C 112.088 314.060,112.085 313.357,111.987 312.984 C 111.889 312.610,111.813 313.008,111.817 313.867 M213.843 323.926 L 212.695 325.195 213.965 324.048 C 214.663 323.417,215.234 322.846,215.234 322.778 C 215.234 322.477,214.912 322.742,213.843 323.926 M204.773 332.715 C 203.838 333.628,203.823 333.673,204.669 333.014 C 206.336 331.715,206.415 331.641,206.139 331.641 C 205.992 331.641,205.377 332.124,204.773 332.715 M129.688 336.914 C 130.225 337.221,130.840 337.472,131.055 337.472 C 131.270 337.472,131.006 337.221,130.469 336.914 C 129.932 336.607,129.316 336.356,129.102 336.356 C 128.887 336.356,129.150 336.607,129.688 336.914 M195.020 339.889 C 193.688 340.741,193.257 341.314,194.434 340.667 C 195.330 340.175,196.734 339.089,196.484 339.082 C 196.377 339.078,195.718 339.442,195.020 339.889 M140.332 339.722 C 140.708 339.821,141.323 339.821,141.699 339.722 C 142.075 339.624,141.768 339.544,141.016 339.544 C 140.264 339.544,139.956 339.624,140.332 339.722 M155.376 339.729 C 155.862 339.823,156.565 339.819,156.938 339.722 C 157.312 339.624,156.914 339.547,156.055 339.552 C 155.195 339.556,154.890 339.636,155.376 339.729 M150.879 340.124 C 151.470 340.213,152.437 340.213,153.027 340.124 C 153.618 340.034,153.135 339.961,151.953 339.961 C 150.771 339.961,150.288 340.034,150.879 340.124 M110.938 341.528 C 110.938 341.596,111.509 342.167,112.207 342.798 L 113.477 343.945 112.329 342.676 C 111.260 341.492,110.938 341.227,110.938 341.528 M117.969 347.050 C 117.969 347.158,118.496 347.518,119.141 347.852 C 119.785 348.185,120.313 348.370,120.313 348.262 C 120.313 348.155,119.785 347.794,119.141 347.461 C 118.496 347.128,117.969 346.943,117.969 347.050 M181.250 347.461 C 180.713 347.768,180.449 348.019,180.664 348.019 C 180.879 348.019,181.494 347.768,182.031 347.461 C 182.568 347.154,182.832 346.903,182.617 346.903 C 182.402 346.903,181.787 347.154,181.250 347.461 M123.828 350.195 C 124.365 350.502,124.980 350.754,125.195 350.754 C 125.410 350.754,125.146 350.502,124.609 350.195 C 124.072 349.888,123.457 349.637,123.242 349.637 C 123.027 349.637,123.291 349.888,123.828 350.195 M157.910 354.176 C 158.286 354.274,158.901 354.274,159.277 354.176 C 159.653 354.077,159.346 353.997,158.594 353.997 C 157.842 353.997,157.534 354.077,157.910 354.176 M140.332 354.566 C 140.708 354.664,141.323 354.664,141.699 354.566 C 142.075 354.468,141.768 354.388,141.016 354.388 C 140.264 354.388,139.956 354.468,140.332 354.566 M152.837 354.577 C 153.431 354.667,154.310 354.665,154.791 354.572 C 155.271 354.479,154.785 354.406,153.711 354.409 C 152.637 354.412,152.244 354.487,152.837 354.577 " stroke="none" fill="#080404" fill-rule="evenodd"></path><path id="path2" d="M220.801 41.418 C 219.555 41.919,219.707 42.216,220.996 41.799 C 221.587 41.608,222.422 41.374,222.852 41.279 C 223.465 41.143,223.423 41.102,222.656 41.086 C 222.119 41.074,221.284 41.224,220.801 41.418 M234.759 46.973 C 238.562 50.873,239.063 51.349,239.063 51.067 C 239.063 51.010,237.173 49.120,234.863 46.868 L 230.664 42.773 234.759 46.973 M216.558 45.129 C 216.201 45.673,215.981 46.189,216.068 46.276 C 216.155 46.363,216.522 45.918,216.884 45.287 C 217.690 43.883,217.450 43.767,216.558 45.129 M242.578 54.795 C 242.578 54.854,243.940 56.216,245.605 57.822 L 248.633 60.742 245.713 57.715 C 243.001 54.903,242.578 54.509,242.578 54.795 M250.781 62.695 C 251.510 63.447,252.194 64.063,252.302 64.063 C 252.409 64.063,251.901 63.447,251.172 62.695 C 250.443 61.943,249.759 61.328,249.651 61.328 C 249.544 61.328,250.052 61.943,250.781 62.695 M230.469 90.875 C 230.469 117.810,230.423 117.116,232.216 117.175 C 232.425 117.182,232.205 116.914,231.728 116.579 L 230.859 115.971 230.859 90.933 L 230.859 65.895 231.738 66.639 L 232.617 67.383 231.873 66.504 C 231.464 66.021,230.980 65.625,230.799 65.625 C 230.617 65.625,230.469 76.987,230.469 90.875 M257.206 67.935 C 257.500 68.410,260.938 70.832,260.938 70.563 C 260.938 70.466,260.040 69.741,258.944 68.953 C 257.847 68.165,257.065 67.707,257.206 67.935 M235.156 69.653 C 235.156 69.721,235.728 70.292,236.426 70.923 L 237.695 72.070 236.548 70.801 C 235.479 69.617,235.156 69.352,235.156 69.653 M266.771 74.535 C 267.294 74.960,268.261 75.604,268.920 75.967 L 270.117 76.628 269.166 75.856 C 268.644 75.431,267.677 74.786,267.018 74.423 L 265.820 73.763 266.771 74.535 M273.242 78.718 C 273.672 79.068,274.375 79.527,274.805 79.738 L 275.586 80.121 274.805 79.485 C 274.375 79.135,273.672 78.676,273.242 78.465 L 272.461 78.082 273.242 78.718 M300.797 99.038 C 301.970 100.335,303.009 101.339,303.107 101.270 C 303.204 101.200,302.244 100.139,300.974 98.912 L 298.665 96.680 300.797 99.038 M307.422 107.031 C 307.881 107.676,308.344 108.203,308.452 108.203 C 308.559 108.203,308.271 107.676,307.813 107.031 C 307.354 106.387,306.890 105.859,306.783 105.859 C 306.675 105.859,306.963 106.387,307.422 107.031 M314.677 121.484 C 314.821 122.021,315.101 122.725,315.300 123.047 C 315.552 123.454,315.583 123.335,315.401 122.656 C 315.257 122.119,314.977 121.416,314.778 121.094 C 314.526 120.687,314.495 120.806,314.677 121.484 M243.359 122.838 C 243.359 122.946,244.238 123.479,245.313 124.023 C 246.387 124.568,247.266 124.925,247.266 124.818 C 247.266 124.710,246.387 124.177,245.313 123.633 C 244.238 123.088,243.359 122.731,243.359 122.838 M249.219 125.963 C 249.219 126.071,250.098 126.604,251.172 127.148 C 252.246 127.693,253.125 128.050,253.125 127.943 C 253.125 127.835,252.246 127.302,251.172 126.758 C 250.098 126.213,249.219 125.856,249.219 125.963 M230.565 210.254 L 230.662 287.305 230.762 210.423 L 230.861 133.542 231.739 133.789 C 232.427 133.982,232.490 133.947,232.031 133.625 C 231.709 133.400,231.226 133.212,230.957 133.209 C 230.568 133.204,230.488 148.820,230.565 210.254 M319.643 141.602 C 319.646 142.676,319.722 143.069,319.812 142.475 C 319.901 141.881,319.899 141.002,319.806 140.522 C 319.714 140.042,319.640 140.527,319.643 141.602 M284.570 148.828 C 285.409 149.688,286.184 150.391,286.291 150.391 C 286.399 150.391,285.800 149.688,284.961 148.828 C 284.122 147.969,283.347 147.266,283.240 147.266 C 283.132 147.266,283.731 147.969,284.570 148.828 M319.643 150.195 C 319.646 151.270,319.722 151.663,319.812 151.069 C 319.901 150.475,319.899 149.596,319.806 149.116 C 319.714 148.635,319.640 149.121,319.643 150.195 M299.880 167.187 C 301.181 169.504,301.424 169.567,302.168 167.786 C 302.971 165.864,302.817 165.502,301.992 167.372 L 301.307 168.924 300.226 167.079 C 298.782 164.615,298.487 164.707,299.880 167.187 M294.665 201.758 C 294.667 203.477,294.735 204.131,294.818 203.212 C 294.900 202.294,294.899 200.887,294.815 200.087 C 294.731 199.287,294.664 200.039,294.665 201.758 M308.302 200.195 C 308.306 201.055,308.386 201.360,308.479 200.874 C 308.573 200.388,308.569 199.685,308.472 199.312 C 308.374 198.938,308.297 199.336,308.302 200.195 M308.302 211.133 C 308.306 211.992,308.386 212.298,308.479 211.812 C 308.573 211.326,308.569 210.623,308.472 210.249 C 308.374 209.876,308.297 210.273,308.302 211.133 M174.525 241.695 C 175.660 241.774,177.418 241.773,178.431 241.693 C 179.444 241.613,178.516 241.548,176.367 241.549 C 174.219 241.550,173.390 241.616,174.525 241.695 M170.020 242.066 C 170.396 242.164,171.011 242.164,171.387 242.066 C 171.763 241.968,171.455 241.888,170.703 241.888 C 169.951 241.888,169.644 241.968,170.020 242.066 M181.744 242.077 C 182.337 242.167,183.216 242.165,183.697 242.072 C 184.177 241.979,183.691 241.906,182.617 241.909 C 181.543 241.912,181.150 241.987,181.744 242.077 M186.230 242.463 C 186.714 242.556,187.505 242.556,187.988 242.463 C 188.472 242.370,188.076 242.294,187.109 242.294 C 186.143 242.294,185.747 242.370,186.230 242.463 M281.731 243.359 C 281.731 244.111,281.812 244.419,281.910 244.043 C 282.008 243.667,282.008 243.052,281.910 242.676 C 281.812 242.300,281.731 242.607,281.731 243.359 M298.892 243.181 C 298.237 244.617,298.362 244.924,299.070 243.618 C 299.400 243.008,299.597 242.436,299.508 242.347 C 299.419 242.257,299.141 242.633,298.892 243.181 M190.332 242.847 C 190.708 242.946,191.323 242.946,191.699 242.847 C 192.075 242.749,191.768 242.669,191.016 242.669 C 190.264 242.669,189.956 242.749,190.332 242.847 M198.828 244.727 C 200.612 245.413,201.313 245.403,199.805 244.712 C 199.160 244.417,198.369 244.181,198.047 244.188 C 197.725 244.195,198.076 244.437,198.828 244.727 M154.883 244.922 C 154.390 245.133,154.318 245.258,154.688 245.258 C 155.010 245.258,155.625 245.107,156.055 244.922 C 156.547 244.710,156.619 244.586,156.250 244.586 C 155.928 244.586,155.313 244.737,154.883 244.922 M141.699 250.025 C 140.464 250.663,139.453 251.272,139.453 251.379 C 139.453 251.554,144.102 249.341,144.499 248.977 C 145.010 248.509,143.650 249.018,141.699 250.025 M208.984 249.003 C 208.984 249.111,209.512 249.471,210.156 249.805 C 210.801 250.138,211.328 250.323,211.328 250.215 C 211.328 250.108,210.801 249.747,210.156 249.414 C 209.512 249.081,208.984 248.896,208.984 249.003 M137.402 252.177 C 135.888 252.998,136.059 253.282,137.598 252.499 C 139.070 251.751,139.331 251.556,138.835 251.578 C 138.638 251.587,137.993 251.856,137.402 252.177 M131.934 255.302 C 130.473 256.094,130.562 256.424,132.031 255.664 C 132.676 255.331,133.203 254.975,133.203 254.873 C 133.203 254.621,133.161 254.636,131.934 255.302 M126.465 258.988 C 125.015 260.058,123.828 261.020,123.828 261.125 C 123.828 261.230,125.059 260.418,126.563 259.321 C 128.935 257.590,129.601 257.013,129.199 257.037 C 129.146 257.040,127.915 257.918,126.465 258.988 M121.854 262.793 L 120.508 264.258 121.973 262.912 C 123.336 261.659,123.617 261.328,123.319 261.328 C 123.254 261.328,122.594 261.987,121.854 262.793 M114.422 270.215 C 112.604 272.171,111.560 273.438,111.767 273.438 C 111.860 273.438,112.864 272.383,113.999 271.094 C 116.278 268.504,116.564 267.910,114.422 270.215 M104.081 285.196 C 103.313 286.722,102.748 288.034,102.826 288.112 C 102.904 288.190,103.617 286.942,104.410 285.338 C 105.204 283.734,105.769 282.422,105.666 282.422 C 105.563 282.422,104.850 283.670,104.081 285.196 M97.802 308.789 C 97.803 311.152,97.868 312.069,97.945 310.826 C 98.023 309.582,98.022 307.649,97.944 306.529 C 97.865 305.409,97.801 306.426,97.802 308.789 M111.809 307.031 C 111.809 307.783,111.890 308.091,111.988 307.715 C 112.086 307.339,112.086 306.724,111.988 306.348 C 111.890 305.972,111.809 306.279,111.809 307.031 M111.817 313.867 C 111.822 314.727,111.902 315.032,111.995 314.546 C 112.088 314.060,112.085 313.357,111.987 312.984 C 111.889 312.610,111.813 313.008,111.817 313.867 M213.843 323.926 L 212.695 325.195 213.965 324.048 C 214.663 323.417,215.234 322.846,215.234 322.778 C 215.234 322.477,214.912 322.742,213.843 323.926 M204.773 332.715 C 203.838 333.628,203.823 333.673,204.669 333.014 C 206.336 331.715,206.415 331.641,206.139 331.641 C 205.992 331.641,205.377 332.124,204.773 332.715 M129.688 336.914 C 130.225 337.221,130.840 337.472,131.055 337.472 C 131.270 337.472,131.006 337.221,130.469 336.914 C 129.932 336.607,129.316 336.356,129.102 336.356 C 128.887 336.356,129.150 336.607,129.688 336.914 M195.020 339.889 C 193.688 340.741,193.257 341.314,194.434 340.667 C 195.330 340.175,196.734 339.089,196.484 339.082 C 196.377 339.078,195.718 339.442,195.020 339.889 M140.332 339.722 C 140.708 339.821,141.323 339.821,141.699 339.722 C 142.075 339.624,141.768 339.544,141.016 339.544 C 140.264 339.544,139.956 339.624,140.332 339.722 M155.376 339.729 C 155.862 339.823,156.565 339.819,156.938 339.722 C 157.312 339.624,156.914 339.547,156.055 339.552 C 155.195 339.556,154.890 339.636,155.376 339.729 M150.879 340.124 C 151.470 340.213,152.437 340.213,153.027 340.124 C 153.618 340.034,153.135 339.961,151.953 339.961 C 150.771 339.961,150.288 340.034,150.879 340.124 M110.938 341.528 C 110.938 341.596,111.509 342.167,112.207 342.798 L 113.477 343.945 112.329 342.676 C 111.260 341.492,110.938 341.227,110.938 341.528 M117.969 347.050 C 117.969 347.158,118.496 347.518,119.141 347.852 C 119.785 348.185,120.313 348.370,120.313 348.262 C 120.313 348.155,119.785 347.794,119.141 347.461 C 118.496 347.128,117.969 346.943,117.969 347.050 M181.250 347.461 C 180.713 347.768,180.449 348.019,180.664 348.019 C 180.879 348.019,181.494 347.768,182.031 347.461 C 182.568 347.154,182.832 346.903,182.617 346.903 C 182.402 346.903,181.787 347.154,181.250 347.461 M123.828 350.195 C 124.365 350.502,124.980 350.754,125.195 350.754 C 125.410 350.754,125.146 350.502,124.609 350.195 C 124.072 349.888,123.457 349.637,123.242 349.637 C 123.027 349.637,123.291 349.888,123.828 350.195 M157.910 354.176 C 158.286 354.274,158.901 354.274,159.277 354.176 C 159.653 354.077,159.346 353.997,158.594 353.997 C 157.842 353.997,157.534 354.077,157.910 354.176 M140.332 354.566 C 140.708 354.664,141.323 354.664,141.699 354.566 C 142.075 354.468,141.768 354.388,141.016 354.388 C 140.264 354.388,139.956 354.468,140.332 354.566 M152.837 354.577 C 153.431 354.667,154.310 354.665,154.791 354.572 C 155.271 354.479,154.785 354.406,153.711 354.409 C 152.637 354.412,152.244 354.487,152.837 354.577 " stroke="none" fill="#080404" fill-rule="evenodd"></path><path id="path3" d="M220.801 41.418 C 219.555 41.919,219.707 42.216,220.996 41.799 C 221.587 41.608,222.422 41.374,222.852 41.279 C 223.465 41.143,223.423 41.102,222.656 41.086 C 222.119 41.074,221.284 41.224,220.801 41.418 M234.759 46.973 C 238.562 50.873,239.063 51.349,239.063 51.067 C 239.063 51.010,237.173 49.120,234.863 46.868 L 230.664 42.773 234.759 46.973 M216.558 45.129 C 216.201 45.673,215.981 46.189,216.068 46.276 C 216.155 46.363,216.522 45.918,216.884 45.287 C 217.690 43.883,217.450 43.767,216.558 45.129 M242.578 54.795 C 242.578 54.854,243.940 56.216,245.605 57.822 L 248.633 60.742 245.713 57.715 C 243.001 54.903,242.578 54.509,242.578 54.795 M250.781 62.695 C 251.510 63.447,252.194 64.063,252.302 64.063 C 252.409 64.063,251.901 63.447,251.172 62.695 C 250.443 61.943,249.759 61.328,249.651 61.328 C 249.544 61.328,250.052 61.943,250.781 62.695 M230.469 90.875 C 230.469 117.810,230.423 117.116,232.216 117.175 C 232.425 117.182,232.205 116.914,231.728 116.579 L 230.859 115.971 230.859 90.933 L 230.859 65.895 231.738 66.639 L 232.617 67.383 231.873 66.504 C 231.464 66.021,230.980 65.625,230.799 65.625 C 230.617 65.625,230.469 76.987,230.469 90.875 M257.206 67.935 C 257.500 68.410,260.938 70.832,260.938 70.563 C 260.938 70.466,260.040 69.741,258.944 68.953 C 257.847 68.165,257.065 67.707,257.206 67.935 M235.156 69.653 C 235.156 69.721,235.728 70.292,236.426 70.923 L 237.695 72.070 236.548 70.801 C 235.479 69.617,235.156 69.352,235.156 69.653 M266.771 74.535 C 267.294 74.960,268.261 75.604,268.920 75.967 L 270.117 76.628 269.166 75.856 C 268.644 75.431,267.677 74.786,267.018 74.423 L 265.820 73.763 266.771 74.535 M273.242 78.718 C 273.672 79.068,274.375 79.527,274.805 79.738 L 275.586 80.121 274.805 79.485 C 274.375 79.135,273.672 78.676,273.242 78.465 L 272.461 78.082 273.242 78.718 M300.797 99.038 C 301.970 100.335,303.009 101.339,303.107 101.270 C 303.204 101.200,302.244 100.139,300.974 98.912 L 298.665 96.680 300.797 99.038 M307.422 107.031 C 307.881 107.676,308.344 108.203,308.452 108.203 C 308.559 108.203,308.271 107.676,307.813 107.031 C 307.354 106.387,306.890 105.859,306.783 105.859 C 306.675 105.859,306.963 106.387,307.422 107.031 M314.677 121.484 C 314.821 122.021,315.101 122.725,315.300 123.047 C 315.552 123.454,315.583 123.335,315.401 122.656 C 315.257 122.119,314.977 121.416,314.778 121.094 C 314.526 120.687,314.495 120.806,314.677 121.484 M243.359 122.838 C 243.359 122.946,244.238 123.479,245.313 124.023 C 246.387 124.568,247.266 124.925,247.266 124.818 C 247.266 124.710,246.387 124.177,245.313 123.633 C 244.238 123.088,243.359 122.731,243.359 122.838 M249.219 125.963 C 249.219 126.071,250.098 126.604,251.172 127.148 C 252.246 127.693,253.125 128.050,253.125 127.943 C 253.125 127.835,252.246 127.302,251.172 126.758 C 250.098 126.213,249.219 125.856,249.219 125.963 M230.565 210.254 L 230.662 287.305 230.762 210.423 L 230.861 133.542 231.739 133.789 C 232.427 133.982,232.490 133.947,232.031 133.625 C 231.709 133.400,231.226 133.212,230.957 133.209 C 230.568 133.204,230.488 148.820,230.565 210.254 M319.643 141.602 C 319.646 142.676,319.722 143.069,319.812 142.475 C 319.901 141.881,319.899 141.002,319.806 140.522 C 319.714 140.042,319.640 140.527,319.643 141.602 M284.570 148.828 C 285.409 149.688,286.184 150.391,286.291 150.391 C 286.399 150.391,285.800 149.688,284.961 148.828 C 284.122 147.969,283.347 147.266,283.240 147.266 C 283.132 147.266,283.731 147.969,284.570 148.828 M319.643 150.195 C 319.646 151.270,319.722 151.663,319.812 151.069 C 319.901 150.475,319.899 149.596,319.806 149.116 C 319.714 148.635,319.640 149.121,319.643 150.195 M299.880 167.187 C 301.181 169.504,301.424 169.567,302.168 167.786 C 302.971 165.864,302.817 165.502,301.992 167.372 L 301.307 168.924 300.226 167.079 C 298.782 164.615,298.487 164.707,299.880 167.187 M294.665 201.758 C 294.667 203.477,294.735 204.131,294.818 203.212 C 294.900 202.294,294.899 200.887,294.815 200.087 C 294.731 199.287,294.664 200.039,294.665 201.758 M308.302 200.195 C 308.306 201.055,308.386 201.360,308.479 200.874 C 308.573 200.388,308.569 199.685,308.472 199.312 C 308.374 198.938,308.297 199.336,308.302 200.195 M308.302 211.133 C 308.306 211.992,308.386 212.298,308.479 211.812 C 308.573 211.326,308.569 210.623,308.472 210.249 C 308.374 209.876,308.297 210.273,308.302 211.133 M174.525 241.695 C 175.660 241.774,177.418 241.773,178.431 241.693 C 179.444 241.613,178.516 241.548,176.367 241.549 C 174.219 241.550,173.390 241.616,174.525 241.695 M170.020 242.066 C 170.396 242.164,171.011 242.164,171.387 242.066 C 171.763 241.968,171.455 241.888,170.703 241.888 C 169.951 241.888,169.644 241.968,170.020 242.066 M181.744 242.077 C 182.337 242.167,183.216 242.165,183.697 242.072 C 184.177 241.979,183.691 241.906,182.617 241.909 C 181.543 241.912,181.150 241.987,181.744 242.077 M186.230 242.463 C 186.714 242.556,187.505 242.556,187.988 242.463 C 188.472 242.370,188.076 242.294,187.109 242.294 C 186.143 242.294,185.747 242.370,186.230 242.463 M281.731 243.359 C 281.731 244.111,281.812 244.419,281.910 244.043 C 282.008 243.667,282.008 243.052,281.910 242.676 C 281.812 242.300,281.731 242.607,281.731 243.359 M298.892 243.181 C 298.237 244.617,298.362 244.924,299.070 243.618 C 299.400 243.008,299.597 242.436,299.508 242.347 C 299.419 242.257,299.141 242.633,298.892 243.181 M190.332 242.847 C 190.708 242.946,191.323 242.946,191.699 242.847 C 192.075 242.749,191.768 242.669,191.016 242.669 C 190.264 242.669,189.956 242.749,190.332 242.847 M198.828 244.727 C 200.612 245.413,201.313 245.403,199.805 244.712 C 199.160 244.417,198.369 244.181,198.047 244.188 C 197.725 244.195,198.076 244.437,198.828 244.727 M154.883 244.922 C 154.390 245.133,154.318 245.258,154.688 245.258 C 155.010 245.258,155.625 245.107,156.055 244.922 C 156.547 244.710,156.619 244.586,156.250 244.586 C 155.928 244.586,155.313 244.737,154.883 244.922 M141.699 250.025 C 140.464 250.663,139.453 251.272,139.453 251.379 C 139.453 251.554,144.102 249.341,144.499 248.977 C 145.010 248.509,143.650 249.018,141.699 250.025 M208.984 249.003 C 208.984 249.111,209.512 249.471,210.156 249.805 C 210.801 250.138,211.328 250.323,211.328 250.215 C 211.328 250.108,210.801 249.747,210.156 249.414 C 209.512 249.081,208.984 248.896,208.984 249.003 M137.402 252.177 C 135.888 252.998,136.059 253.282,137.598 252.499 C 139.070 251.751,139.331 251.556,138.835 251.578 C 138.638 251.587,137.993 251.856,137.402 252.177 M131.934 255.302 C 130.473 256.094,130.562 256.424,132.031 255.664 C 132.676 255.331,133.203 254.975,133.203 254.873 C 133.203 254.621,133.161 254.636,131.934 255.302 M126.465 258.988 C 125.015 260.058,123.828 261.020,123.828 261.125 C 123.828 261.230,125.059 260.418,126.563 259.321 C 128.935 257.590,129.601 257.013,129.199 257.037 C 129.146 257.040,127.915 257.918,126.465 258.988 M121.854 262.793 L 120.508 264.258 121.973 262.912 C 123.336 261.659,123.617 261.328,123.319 261.328 C 123.254 261.328,122.594 261.987,121.854 262.793 M114.422 270.215 C 112.604 272.171,111.560 273.438,111.767 273.438 C 111.860 273.438,112.864 272.383,113.999 271.094 C 116.278 268.504,116.564 267.910,114.422 270.215 M104.081 285.196 C 103.313 286.722,102.748 288.034,102.826 288.112 C 102.904 288.190,103.617 286.942,104.410 285.338 C 105.204 283.734,105.769 282.422,105.666 282.422 C 105.563 282.422,104.850 283.670,104.081 285.196 M97.802 308.789 C 97.803 311.152,97.868 312.069,97.945 310.826 C 98.023 309.582,98.022 307.649,97.944 306.529 C 97.865 305.409,97.801 306.426,97.802 308.789 M111.809 307.031 C 111.809 307.783,111.890 308.091,111.988 307.715 C 112.086 307.339,112.086 306.724,111.988 306.348 C 111.890 305.972,111.809 306.279,111.809 307.031 M111.817 313.867 C 111.822 314.727,111.902 315.032,111.995 314.546 C 112.088 314.060,112.085 313.357,111.987 312.984 C 111.889 312.610,111.813 313.008,111.817 313.867 M213.843 323.926 L 212.695 325.195 213.965 324.048 C 214.663 323.417,215.234 322.846,215.234 322.778 C 215.234 322.477,214.912 322.742,213.843 323.926 M204.773 332.715 C 203.838 333.628,203.823 333.673,204.669 333.014 C 206.336 331.715,206.415 331.641,206.139 331.641 C 205.992 331.641,205.377 332.124,204.773 332.715 M129.688 336.914 C 130.225 337.221,130.840 337.472,131.055 337.472 C 131.270 337.472,131.006 337.221,130.469 336.914 C 129.932 336.607,129.316 336.356,129.102 336.356 C 128.887 336.356,129.150 336.607,129.688 336.914 M195.020 339.889 C 193.688 340.741,193.257 341.314,194.434 340.667 C 195.330 340.175,196.734 339.089,196.484 339.082 C 196.377 339.078,195.718 339.442,195.020 339.889 M140.332 339.722 C 140.708 339.821,141.323 339.821,141.699 339.722 C 142.075 339.624,141.768 339.544,141.016 339.544 C 140.264 339.544,139.956 339.624,140.332 339.722 M155.376 339.729 C 155.862 339.823,156.565 339.819,156.938 339.722 C 157.312 339.624,156.914 339.547,156.055 339.552 C 155.195 339.556,154.890 339.636,155.376 339.729 M150.879 340.124 C 151.470 340.213,152.437 340.213,153.027 340.124 C 153.618 340.034,153.135 339.961,151.953 339.961 C 150.771 339.961,150.288 340.034,150.879 340.124 M110.938 341.528 C 110.938 341.596,111.509 342.167,112.207 342.798 L 113.477 343.945 112.329 342.676 C 111.260 341.492,110.938 341.227,110.938 341.528 M117.969 347.050 C 117.969 347.158,118.496 347.518,119.141 347.852 C 119.785 348.185,120.313 348.370,120.313 348.262 C 120.313 348.155,119.785 347.794,119.141 347.461 C 118.496 347.128,117.969 346.943,117.969 347.050 M181.250 347.461 C 180.713 347.768,180.449 348.019,180.664 348.019 C 180.879 348.019,181.494 347.768,182.031 347.461 C 182.568 347.154,182.832 346.903,182.617 346.903 C 182.402 346.903,181.787 347.154,181.250 347.461 M123.828 350.195 C 124.365 350.502,124.980 350.754,125.195 350.754 C 125.410 350.754,125.146 350.502,124.609 350.195 C 124.072 349.888,123.457 349.637,123.242 349.637 C 123.027 349.637,123.291 349.888,123.828 350.195 M157.910 354.176 C 158.286 354.274,158.901 354.274,159.277 354.176 C 159.653 354.077,159.346 353.997,158.594 353.997 C 157.842 353.997,157.534 354.077,157.910 354.176 M140.332 354.566 C 140.708 354.664,141.323 354.664,141.699 354.566 C 142.075 354.468,141.768 354.388,141.016 354.388 C 140.264 354.388,139.956 354.468,140.332 354.566 M152.837 354.577 C 153.431 354.667,154.310 354.665,154.791 354.572 C 155.271 354.479,154.785 354.406,153.711 354.409 C 152.637 354.412,152.244 354.487,152.837 354.577 " stroke="none" fill="#080404" fill-rule="evenodd"></path><path id="path4" d="M220.801 41.418 C 219.555 41.919,219.707 42.216,220.996 41.799 C 221.587 41.608,222.422 41.374,222.852 41.279 C 223.465 41.143,223.423 41.102,222.656 41.086 C 222.119 41.074,221.284 41.224,220.801 41.418 M234.759 46.973 C 238.562 50.873,239.063 51.349,239.063 51.067 C 239.063 51.010,237.173 49.120,234.863 46.868 L 230.664 42.773 234.759 46.973 M216.558 45.129 C 216.201 45.673,215.981 46.189,216.068 46.276 C 216.155 46.363,216.522 45.918,216.884 45.287 C 217.690 43.883,217.450 43.767,216.558 45.129 M242.578 54.795 C 242.578 54.854,243.940 56.216,245.605 57.822 L 248.633 60.742 245.713 57.715 C 243.001 54.903,242.578 54.509,242.578 54.795 M250.781 62.695 C 251.510 63.447,252.194 64.063,252.302 64.063 C 252.409 64.063,251.901 63.447,251.172 62.695 C 250.443 61.943,249.759 61.328,249.651 61.328 C 249.544 61.328,250.052 61.943,250.781 62.695 M230.469 90.875 C 230.469 117.810,230.423 117.116,232.216 117.175 C 232.425 117.182,232.205 116.914,231.728 116.579 L 230.859 115.971 230.859 90.933 L 230.859 65.895 231.738 66.639 L 232.617 67.383 231.873 66.504 C 231.464 66.021,230.980 65.625,230.799 65.625 C 230.617 65.625,230.469 76.987,230.469 90.875 M257.206 67.935 C 257.500 68.410,260.938 70.832,260.938 70.563 C 260.938 70.466,260.040 69.741,258.944 68.953 C 257.847 68.165,257.065 67.707,257.206 67.935 M235.156 69.653 C 235.156 69.721,235.728 70.292,236.426 70.923 L 237.695 72.070 236.548 70.801 C 235.479 69.617,235.156 69.352,235.156 69.653 M266.771 74.535 C 267.294 74.960,268.261 75.604,268.920 75.967 L 270.117 76.628 269.166 75.856 C 268.644 75.431,267.677 74.786,267.018 74.423 L 265.820 73.763 266.771 74.535 M273.242 78.718 C 273.672 79.068,274.375 79.527,274.805 79.738 L 275.586 80.121 274.805 79.485 C 274.375 79.135,273.672 78.676,273.242 78.465 L 272.461 78.082 273.242 78.718 M300.797 99.038 C 301.970 100.335,303.009 101.339,303.107 101.270 C 303.204 101.200,302.244 100.139,300.974 98.912 L 298.665 96.680 300.797 99.038 M307.422 107.031 C 307.881 107.676,308.344 108.203,308.452 108.203 C 308.559 108.203,308.271 107.676,307.813 107.031 C 307.354 106.387,306.890 105.859,306.783 105.859 C 306.675 105.859,306.963 106.387,307.422 107.031 M314.677 121.484 C 314.821 122.021,315.101 122.725,315.300 123.047 C 315.552 123.454,315.583 123.335,315.401 122.656 C 315.257 122.119,314.977 121.416,314.778 121.094 C 314.526 120.687,314.495 120.806,314.677 121.484 M243.359 122.838 C 243.359 122.946,244.238 123.479,245.313 124.023 C 246.387 124.568,247.266 124.925,247.266 124.818 C 247.266 124.710,246.387 124.177,245.313 123.633 C 244.238 123.088,243.359 122.731,243.359 122.838 M249.219 125.963 C 249.219 126.071,250.098 126.604,251.172 127.148 C 252.246 127.693,253.125 128.050,253.125 127.943 C 253.125 127.835,252.246 127.302,251.172 126.758 C 250.098 126.213,249.219 125.856,249.219 125.963 M230.565 210.254 L 230.662 287.305 230.762 210.423 L 230.861 133.542 231.739 133.789 C 232.427 133.982,232.490 133.947,232.031 133.625 C 231.709 133.400,231.226 133.212,230.957 133.209 C 230.568 133.204,230.488 148.820,230.565 210.254 M319.643 141.602 C 319.646 142.676,319.722 143.069,319.812 142.475 C 319.901 141.881,319.899 141.002,319.806 140.522 C 319.714 140.042,319.640 140.527,319.643 141.602 M284.570 148.828 C 285.409 149.688,286.184 150.391,286.291 150.391 C 286.399 150.391,285.800 149.688,284.961 148.828 C 284.122 147.969,283.347 147.266,283.240 147.266 C 283.132 147.266,283.731 147.969,284.570 148.828 M319.643 150.195 C 319.646 151.270,319.722 151.663,319.812 151.069 C 319.901 150.475,319.899 149.596,319.806 149.116 C 319.714 148.635,319.640 149.121,319.643 150.195 M299.880 167.187 C 301.181 169.504,301.424 169.567,302.168 167.786 C 302.971 165.864,302.817 165.502,301.992 167.372 L 301.307 168.924 300.226 167.079 C 298.782 164.615,298.487 164.707,299.880 167.187 M294.665 201.758 C 294.667 203.477,294.735 204.131,294.818 203.212 C 294.900 202.294,294.899 200.887,294.815 200.087 C 294.731 199.287,294.664 200.039,294.665 201.758 M308.302 200.195 C 308.306 201.055,308.386 201.360,308.479 200.874 C 308.573 200.388,308.569 199.685,308.472 199.312 C 308.374 198.938,308.297 199.336,308.302 200.195 M308.302 211.133 C 308.306 211.992,308.386 212.298,308.479 211.812 C 308.573 211.326,308.569 210.623,308.472 210.249 C 308.374 209.876,308.297 210.273,308.302 211.133 M174.525 241.695 C 175.660 241.774,177.418 241.773,178.431 241.693 C 179.444 241.613,178.516 241.548,176.367 241.549 C 174.219 241.550,173.390 241.616,174.525 241.695 M170.020 242.066 C 170.396 242.164,171.011 242.164,171.387 242.066 C 171.763 241.968,171.455 241.888,170.703 241.888 C 169.951 241.888,169.644 241.968,170.020 242.066 M181.744 242.077 C 182.337 242.167,183.216 242.165,183.697 242.072 C 184.177 241.979,183.691 241.906,182.617 241.909 C 181.543 241.912,181.150 241.987,181.744 242.077 M186.230 242.463 C 186.714 242.556,187.505 242.556,187.988 242.463 C 188.472 242.370,188.076 242.294,187.109 242.294 C 186.143 242.294,185.747 242.370,186.230 242.463 M281.731 243.359 C 281.731 244.111,281.812 244.419,281.910 244.043 C 282.008 243.667,282.008 243.052,281.910 242.676 C 281.812 242.300,281.731 242.607,281.731 243.359 M298.892 243.181 C 298.237 244.617,298.362 244.924,299.070 243.618 C 299.400 243.008,299.597 242.436,299.508 242.347 C 299.419 242.257,299.141 242.633,298.892 243.181 M190.332 242.847 C 190.708 242.946,191.323 242.946,191.699 242.847 C 192.075 242.749,191.768 242.669,191.016 242.669 C 190.264 242.669,189.956 242.749,190.332 242.847 M198.828 244.727 C 200.612 245.413,201.313 245.403,199.805 244.712 C 199.160 244.417,198.369 244.181,198.047 244.188 C 197.725 244.195,198.076 244.437,198.828 244.727 M154.883 244.922 C 154.390 245.133,154.318 245.258,154.688 245.258 C 155.010 245.258,155.625 245.107,156.055 244.922 C 156.547 244.710,156.619 244.586,156.250 244.586 C 155.928 244.586,155.313 244.737,154.883 244.922 M141.699 250.025 C 140.464 250.663,139.453 251.272,139.453 251.379 C 139.453 251.554,144.102 249.341,144.499 248.977 C 145.010 248.509,143.650 249.018,141.699 250.025 M208.984 249.003 C 208.984 249.111,209.512 249.471,210.156 249.805 C 210.801 250.138,211.328 250.323,211.328 250.215 C 211.328 250.108,210.801 249.747,210.156 249.414 C 209.512 249.081,208.984 248.896,208.984 249.003 M137.402 252.177 C 135.888 252.998,136.059 253.282,137.598 252.499 C 139.070 251.751,139.331 251.556,138.835 251.578 C 138.638 251.587,137.993 251.856,137.402 252.177 M131.934 255.302 C 130.473 256.094,130.562 256.424,132.031 255.664 C 132.676 255.331,133.203 254.975,133.203 254.873 C 133.203 254.621,133.161 254.636,131.934 255.302 M126.465 258.988 C 125.015 260.058,123.828 261.020,123.828 261.125 C 123.828 261.230,125.059 260.418,126.563 259.321 C 128.935 257.590,129.601 257.013,129.199 257.037 C 129.146 257.040,127.915 257.918,126.465 258.988 M121.854 262.793 L 120.508 264.258 121.973 262.912 C 123.336 261.659,123.617 261.328,123.319 261.328 C 123.254 261.328,122.594 261.987,121.854 262.793 M114.422 270.215 C 112.604 272.171,111.560 273.438,111.767 273.438 C 111.860 273.438,112.864 272.383,113.999 271.094 C 116.278 268.504,116.564 267.910,114.422 270.215 M104.081 285.196 C 103.313 286.722,102.748 288.034,102.826 288.112 C 102.904 288.190,103.617 286.942,104.410 285.338 C 105.204 283.734,105.769 282.422,105.666 282.422 C 105.563 282.422,104.850 283.670,104.081 285.196 M97.802 308.789 C 97.803 311.152,97.868 312.069,97.945 310.826 C 98.023 309.582,98.022 307.649,97.944 306.529 C 97.865 305.409,97.801 306.426,97.802 308.789 M111.809 307.031 C 111.809 307.783,111.890 308.091,111.988 307.715 C 112.086 307.339,112.086 306.724,111.988 306.348 C 111.890 305.972,111.809 306.279,111.809 307.031 M111.817 313.867 C 111.822 314.727,111.902 315.032,111.995 314.546 C 112.088 314.060,112.085 313.357,111.987 312.984 C 111.889 312.610,111.813 313.008,111.817 313.867 M213.843 323.926 L 212.695 325.195 213.965 324.048 C 214.663 323.417,215.234 322.846,215.234 322.778 C 215.234 322.477,214.912 322.742,213.843 323.926 M204.773 332.715 C 203.838 333.628,203.823 333.673,204.669 333.014 C 206.336 331.715,206.415 331.641,206.139 331.641 C 205.992 331.641,205.377 332.124,204.773 332.715 M129.688 336.914 C 130.225 337.221,130.840 337.472,131.055 337.472 C 131.270 337.472,131.006 337.221,130.469 336.914 C 129.932 336.607,129.316 336.356,129.102 336.356 C 128.887 336.356,129.150 336.607,129.688 336.914 M195.020 339.889 C 193.688 340.741,193.257 341.314,194.434 340.667 C 195.330 340.175,196.734 339.089,196.484 339.082 C 196.377 339.078,195.718 339.442,195.020 339.889 M140.332 339.722 C 140.708 339.821,141.323 339.821,141.699 339.722 C 142.075 339.624,141.768 339.544,141.016 339.544 C 140.264 339.544,139.956 339.624,140.332 339.722 M155.376 339.729 C 155.862 339.823,156.565 339.819,156.938 339.722 C 157.312 339.624,156.914 339.547,156.055 339.552 C 155.195 339.556,154.890 339.636,155.376 339.729 M150.879 340.124 C 151.470 340.213,152.437 340.213,153.027 340.124 C 153.618 340.034,153.135 339.961,151.953 339.961 C 150.771 339.961,150.288 340.034,150.879 340.124 M110.938 341.528 C 110.938 341.596,111.509 342.167,112.207 342.798 L 113.477 343.945 112.329 342.676 C 111.260 341.492,110.938 341.227,110.938 341.528 M117.969 347.050 C 117.969 347.158,118.496 347.518,119.141 347.852 C 119.785 348.185,120.313 348.370,120.313 348.262 C 120.313 348.155,119.785 347.794,119.141 347.461 C 118.496 347.128,117.969 346.943,117.969 347.050 M181.250 347.461 C 180.713 347.768,180.449 348.019,180.664 348.019 C 180.879 348.019,181.494 347.768,182.031 347.461 C 182.568 347.154,182.832 346.903,182.617 346.903 C 182.402 346.903,181.787 347.154,181.250 347.461 M123.828 350.195 C 124.365 350.502,124.980 350.754,125.195 350.754 C 125.410 350.754,125.146 350.502,124.609 350.195 C 124.072 349.888,123.457 349.637,123.242 349.637 C 123.027 349.637,123.291 349.888,123.828 350.195 M157.910 354.176 C 158.286 354.274,158.901 354.274,159.277 354.176 C 159.653 354.077,159.346 353.997,158.594 353.997 C 157.842 353.997,157.534 354.077,157.910 354.176 M140.332 354.566 C 140.708 354.664,141.323 354.664,141.699 354.566 C 142.075 354.468,141.768 354.388,141.016 354.388 C 140.264 354.388,139.956 354.468,140.332 354.566 M152.837 354.577 C 153.431 354.667,154.310 354.665,154.791 354.572 C 155.271 354.479,154.785 354.406,153.711 354.409 C 152.637 354.412,152.244 354.487,152.837 354.577 " stroke="none" fill="#080404" fill-rule="evenodd"></path></g></svg>