<?xml version="1.0" standalone="no"?>
<!DOCTYPE svg PUBLIC "-//W3C//DTD SVG 20010904//EN"
 "http://www.w3.org/TR/2001/REC-SVG-20010904/DTD/svg10.dtd">
<svg version="1.0" xmlns="http://www.w3.org/2000/svg"
 width="1024.000000pt" height="1024.000000pt" viewBox="0 0 1024.000000 1024.000000"
 preserveAspectRatio="xMidYMid meet">
<metadata>
Created by potrace 1.16, written by Peter Selinger 2001-2019
</metadata>
<g transform="translate(0.000000,1024.000000) scale(0.100000,-0.100000)"
fill="#000000" stroke="none">
<path d="M4551 8040 c-123 -22 -302 -77 -407 -125 -42 -19 -81 -32 -88 -28 -6
3 -8 2 -3 -2 4 -5 -28 -29 -70 -53 -112 -65 -214 -143 -324 -249 -53 -51 -99
-90 -104 -85 -5 4 -5 2 -2 -5 4 -6 -11 -34 -33 -62 -152 -192 -253 -412 -313
-681 -21 -94 -21 -106 -24 -1850 -2 -965 -7 -1758 -11 -1762 -8 -8 -520 -192
-564 -203 -34 -9 -76 -49 -80 -78 -9 -53 33 -107 83 -107 19 0 215 65 274 91
25 11 212 80 445 165 96 35 211 77 255 94 44 17 88 29 97 26 9 -2 19 1 21 7 1
5 10 12 18 13 7 2 82 28 164 59 83 31 202 75 265 97 63 22 127 46 142 54 15 8
29 14 31 14 2 0 5 -43 5 -96 2 -104 12 -136 54 -167 27 -20 28 -20 68 -2 23
10 45 26 51 36 5 10 9 78 9 153 0 74 3 141 6 149 6 17 12 16 204 -43 113 -35
198 -60 225 -66 6 -1 37 -9 70 -19 33 -9 114 -31 180 -49 66 -18 147 -41 180
-51 33 -10 69 -20 80 -22 11 -2 63 -17 115 -33 52 -16 140 -41 195 -56 l100
-28 -3 -200 c-2 -142 -6 -196 -13 -186 -9 13 -10 13 -6 0 2 -8 8 -15 13 -15 5
0 19 -10 31 -22 12 -12 33 -25 47 -29 28 -7 81 18 95 44 5 10 11 73 13 140 3
120 3 122 28 131 27 9 597 216 725 262 44 16 88 34 98 39 15 9 17 4 17 -57 1
-43 6 -75 15 -87 8 -10 12 -23 8 -29 -4 -6 -1 -7 6 -2 7 4 23 2 35 -4 15 -9
30 -9 48 -2 60 22 58 -1 58 692 1 417 -3 651 -10 683 -16 74 -53 136 -114 194
-62 59 -129 93 -226 116 -36 8 -155 36 -265 61 -245 57 -234 53 -215 65 10 7
11 10 2 10 -10 0 -12 185 -12 913 0 573 -3 941 -10 988 -13 94 -38 221 -54
279 -8 25 -14 47 -14 50 0 3 -5 18 -11 33 -6 16 -11 33 -11 38 0 5 -4 17 -10
27 -5 9 -29 58 -54 108 -188 390 -543 657 -965 728 -134 23 -422 20 -560 -4z
m550 -175 c135 -27 357 -115 344 -135 -3 -5 0 -8 7 -5 18 7 122 -63 202 -137
227 -209 389 -565 402 -883 8 -194 9 -1805 1 -1805 -11 0 -178 37 -292 65
-228 55 -417 95 -452 95 -89 0 -203 -49 -263 -113 -48 -51 -94 -153 -91 -198
2 -26 -3 -28 -351 -144 -194 -65 -370 -126 -391 -137 -61 -30 -124 -95 -154
-157 l-28 -56 -5 -408 -5 -409 -110 -38 c-60 -21 -141 -50 -180 -64 -38 -14
-139 -49 -222 -79 l-153 -54 0 1688 c0 1842 -2 1749 58 1959 30 106 150 356
169 353 7 -2 10 3 8 10 -6 14 87 141 159 215 100 104 266 227 396 292 158 80
372 143 535 159 124 12 325 5 416 -14z m589 -3060 c151 -36 286 -68 300 -71
14 -3 88 -20 165 -39 77 -19 210 -50 295 -70 85 -19 164 -38 175 -41 11 -3 36
-8 55 -11 19 -2 43 -14 53 -26 10 -12 16 -16 12 -9 -10 19 16 14 55 -9 64 -39
99 -104 107 -198 l6 -67 -34 -11 c-53 -17 -365 -125 -555 -191 l-171 -60 -464
124 c-255 69 -485 129 -510 135 l-46 10 -1 232 c0 180 3 240 15 267 34 83 109
122 211 109 32 -4 181 -37 332 -74z m-745 -291 c-9 -15 -12 -23 -6 -20 8 5 11
-23 13 -93 1 -56 2 -108 2 -117 1 -12 -19 -25 -64 -42 -93 -35 -456 -161 -515
-179 -27 -8 -65 -23 -83 -34 -19 -11 -38 -16 -44 -13 -6 4 -9 3 -6 -2 3 -5 -5
-17 -19 -28 l-25 -19 4 114 c4 129 23 180 80 221 18 12 34 22 35 21 2 -1 8 0
15 2 44 16 585 196 595 198 7 2 16 6 19 10 16 16 15 5 -1 -19z m350 -464 c39
-11 81 -23 95 -26 14 -3 41 -9 60 -15 19 -5 96 -26 170 -45 254 -66 325 -86
335 -95 5 -6 5 -9 -2 -9 -7 0 -28 -33 -48 -72 l-35 -73 -3 -227 c-1 -141 -6
-227 -12 -225 -5 2 -9 23 -9 48 1 41 1 41 -3 6 -4 -38 -5 -39 -41 -33 -36 5
-178 43 -472 127 -80 22 -190 53 -245 69 -55 15 -174 48 -265 74 -91 25 -250
69 -355 97 -104 28 -193 56 -196 61 -3 5 -10 9 -15 8 -19 -3 -13 19 18 66 40
59 92 89 238 138 58 19 150 51 205 71 55 20 105 38 110 39 6 2 17 6 25 9 8 4
58 22 110 41 l95 33 85 -23 c47 -13 117 -33 155 -44z m1615 -290 c0 -300 -1
-320 -17 -321 -17 0 -17 -1 -1 -7 12 -5 -21 -21 -105 -49 -114 -40 -193 -68
-360 -130 -37 -14 -73 -26 -80 -27 -6 -2 -25 -9 -42 -15 -98 -41 -251 -89
-258 -82 -5 5 -7 127 -5 272 3 216 6 270 20 299 17 39 80 110 96 110 6 0 12 4
14 8 3 8 123 51 463 167 50 17 96 34 103 39 6 4 12 2 12 -3 0 -6 5 -11 11 -11
5 0 8 4 5 9 -6 8 103 56 136 60 4 1 7 -143 8 -319z"/>
</g>
</svg>
