<?xml version="1.0" standalone="no"?>
<!DOCTYPE svg PUBLIC "-//W3C//DTD SVG 20010904//EN"
 "http://www.w3.org/TR/2001/REC-SVG-20010904/DTD/svg10.dtd">
<svg version="1.0" xmlns="http://www.w3.org/2000/svg"
 width="1024.000000pt" height="1024.000000pt" viewBox="0 0 1024.000000 1024.000000"
 preserveAspectRatio="xMidYMid meet">
<metadata>
Created by potrace 1.16, written by Peter Selinger 2001-2019
</metadata>
<g transform="translate(0.000000,1024.000000) scale(0.100000,-0.100000)"
fill="#000000" stroke="none">
<path d="M5654 8591 c-23 -10 -45 -24 -48 -30 -4 -6 -12 -9 -17 -5 -5 3 -8 1
-7 -5 2 -6 -15 -28 -37 -49 -42 -41 -105 -112 -105 -120 0 -2 -13 -21 -29 -41
-54 -68 -134 -211 -175 -314 -9 -21 -19 -36 -23 -34 -5 3 -8 -7 -9 -21 -1 -15
-13 -60 -28 -100 -26 -74 -52 -176 -62 -242 -3 -19 -7 -42 -9 -50 -9 -33 -18
-152 -19 -265 -1 -88 -4 -119 -13 -118 -7 2 -10 -4 -6 -13 4 -11 8 -12 13 -4
4 6 12 -31 18 -83 7 -52 21 -124 32 -161 12 -36 18 -71 15 -76 -4 -6 -3 -9 2
-8 14 5 17 -6 9 -50 -4 -28 -10 -41 -18 -36 -7 4 -8 3 -4 -4 4 -6 2 -29 -3
-49 -6 -21 -13 -56 -16 -78 -3 -22 -11 -54 -16 -72 -6 -17 -12 -42 -14 -55
-12 -63 -15 -72 -26 -79 -8 -4 -8 -8 0 -13 7 -4 7 -15 1 -30 -5 -13 -12 -52
-16 -85 -4 -34 -9 -59 -12 -56 -13 13 -75 191 -74 214 0 13 -3 19 -7 13 -4 -7
-23 21 -44 64 -21 41 -35 79 -32 84 3 5 0 12 -6 16 -8 5 -9 3 -4 -7 21 -36 -9
5 -73 101 -123 184 -276 338 -442 445 -60 39 -225 124 -253 129 -7 2 -19 6
-27 9 -24 9 -102 29 -135 33 -16 3 -51 9 -78 15 -36 9 -51 8 -62 -1 -8 -7 -24
-10 -36 -7 -12 3 -18 3 -15 0 3 -3 -1 -14 -8 -25 -25 -36 -12 -98 70 -321 26
-70 102 -212 158 -297 31 -45 56 -89 56 -97 0 -8 5 -11 10 -8 9 6 14 -8 11
-28 -1 -5 2 -6 7 -3 5 3 19 -6 32 -19 20 -21 21 -27 9 -42 -13 -16 -12 -17 4
-4 16 13 22 8 17 -14 -1 -5 2 -7 6 -2 9 9 145 -123 138 -135 -3 -4 2 -5 10 -2
19 7 21 -7 4 -26 -11 -12 -10 -12 4 -1 15 11 23 8 57 -20 32 -28 37 -36 28
-49 -10 -13 -10 -13 4 -2 15 11 26 6 80 -31 35 -25 79 -52 97 -61 19 -10 30
-21 26 -28 -4 -7 -3 -8 4 -4 6 4 33 -4 59 -18 101 -51 259 -106 343 -120 8 -2
16 -11 17 -22 3 -18 2 -18 -6 1 -5 11 -10 16 -11 10 -1 -5 -3 -18 -5 -28 -2
-13 1 -17 11 -13 10 4 14 -2 13 -22 0 -15 -3 -21 -6 -14 -9 22 -23 13 -23 -15
0 -22 2 -25 10 -13 7 11 10 5 10 -23 0 -21 -3 -36 -8 -33 -4 2 -8 -35 -9 -84
-1 -48 -11 -159 -22 -246 -27 -214 -45 -501 -37 -599 7 -92 -3 -124 -23 -70
-7 19 -9 40 -5 46 4 7 3 9 -3 6 -6 -4 -18 14 -28 41 -23 62 -104 230 -150 312
-54 96 -130 199 -218 296 -30 34 -35 44 -24 53 8 6 18 7 22 3 5 -4 5 -1 0 6
-6 12 -10 11 -23 -2 -14 -14 -23 -9 -91 53 -74 66 -198 161 -211 161 -13 0
-159 87 -154 92 2 3 -7 3 -21 1 -17 -4 -27 0 -31 11 -3 9 -10 13 -15 10 -5 -3
-34 4 -65 16 -69 25 -232 50 -260 40 -12 -5 -31 -21 -43 -36 -37 -47 -22 -124
63 -323 22 -50 30 -79 21 -71 -13 11 -14 10 -9 -4 3 -9 12 -16 20 -16 15 0 67
-94 57 -104 -4 -3 -2 -6 4 -6 17 0 63 -78 57 -95 -3 -8 -1 -15 6 -15 6 0 8 5
5 10 -3 6 -4 10 -2 10 3 0 31 -35 63 -77 32 -43 101 -121 153 -173 52 -52 94
-98 93 -102 -1 -5 2 -7 7 -5 11 3 101 -62 101 -74 0 -5 3 -8 8 -7 8 3 184
-101 193 -115 3 -5 10 -8 15 -8 21 2 44 -11 38 -21 -4 -6 -2 -8 4 -4 11 6 36
-1 142 -44 54 -22 193 -62 217 -63 6 0 16 -10 21 -21 19 -42 51 -202 48 -238
-2 -21 1 -35 5 -32 5 3 10 -12 11 -33 3 -65 8 -115 19 -203 5 -47 8 -95 6
-107 -2 -12 -1 -21 2 -18 10 6 42 -310 34 -331 -4 -12 -3 -15 5 -10 8 5 12 -1
12 -18 0 -13 3 -33 7 -43 6 -16 5 -17 -12 -3 -17 14 -18 13 -12 -3 4 -10 7
-21 7 -23 0 -3 5 -2 10 1 6 3 10 4 10 2 0 -3 9 -52 20 -108 10 -57 28 -151 39
-209 11 -58 22 -116 26 -130 4 -14 -7 4 -24 38 -17 35 -28 69 -24 74 3 6 1 8
-5 4 -6 -4 -31 34 -63 96 -132 262 -249 465 -339 590 -25 35 -92 110 -150 168
-57 58 -103 109 -102 113 1 5 -2 6 -7 3 -5 -3 -24 8 -42 24 -19 17 -55 44 -81
61 -27 17 -45 36 -41 42 3 6 1 7 -5 3 -6 -4 -28 4 -49 17 -108 66 -278 139
-356 152 -54 9 -68 16 -61 28 5 9 4 9 -5 1 -13 -12 -114 3 -106 15 2 4 -6 8
-18 8 -17 2 -19 0 -7 -7 11 -7 7 -10 -17 -10 -36 0 -70 -30 -80 -68 -8 -34 7
-124 27 -163 23 -42 30 -82 18 -98 -10 -13 -10 -14 2 -4 11 10 20 2 47 -48 18
-33 30 -66 27 -72 -4 -7 -3 -9 1 -4 11 9 86 -103 78 -116 -3 -6 -1 -7 5 -3 6
3 14 0 19 -7 13 -22 64 -87 105 -132 21 -23 34 -45 30 -49 -4 -4 -2 -6 3 -4 6
1 26 -12 45 -31 57 -55 202 -175 244 -200 28 -18 34 -26 24 -32 -10 -7 -8 -9
7 -10 36 -2 39 -4 93 -33 28 -16 52 -33 52 -38 0 -4 3 -7 8 -7 4 1 14 1 22 0
13 -1 13 -2 0 -11 -12 -8 -10 -10 10 -9 14 1 59 -13 100 -30 41 -18 100 -39
130 -48 67 -20 54 -17 177 -46 34 -8 66 -18 72 -21 20 -12 83 -135 75 -147 -4
-7 -3 -9 4 -5 16 10 51 -55 48 -91 -1 -18 2 -33 7 -33 5 0 7 11 4 25 -2 14 -3
24 -2 23 12 -14 109 -145 134 -181 31 -46 38 -63 22 -53 -4 3 -6 -7 -3 -22 4
-19 7 -22 10 -9 2 9 7 15 12 12 5 -3 7 -12 3 -20 -3 -8 1 -15 8 -15 7 0 9 -3
6 -7 -4 -3 -2 -12 4 -20 6 -7 9 -13 5 -13 -3 0 2 -22 13 -49 10 -27 17 -66 16
-88 -3 -28 -1 -33 5 -18 l9 20 1 -20 c0 -11 7 -31 15 -45 9 -17 10 -29 3 -37
-6 -8 -6 -18 1 -30 6 -10 11 -13 11 -8 1 6 10 -12 20 -39 11 -27 18 -59 16
-70 -2 -12 -1 -14 2 -7 5 16 9 6 79 -194 24 -71 49 -135 54 -141 5 -7 9 -16 7
-20 -1 -5 5 -22 14 -39 20 -39 32 -89 19 -81 -5 4 -12 2 -16 -3 -3 -6 3 -8 15
-6 18 3 46 -26 35 -37 -7 -6 60 -121 77 -131 23 -15 67 1 80 28 9 20 5 41 -27
127 -21 57 -51 129 -67 161 -15 33 -30 69 -32 80 -3 12 -19 60 -36 107 -69
185 -119 330 -113 330 3 0 0 7 -7 15 -7 8 -10 15 -6 15 3 0 -7 36 -23 80 -16
44 -27 80 -24 80 3 0 1 6 -5 13 -5 6 -14 35 -20 62 -6 28 -22 85 -36 128 -30
91 -31 97 -10 97 8 0 12 5 9 10 -3 6 -2 10 4 10 5 0 12 -6 14 -12 4 -9 6 -8 6
2 1 10 21 22 59 32 133 38 369 143 470 211 23 15 47 25 54 21 7 -5 8 -3 3 6
-6 10 -4 12 9 7 9 -4 15 -3 12 2 -3 5 20 28 50 52 105 82 189 158 234 210 25
29 52 60 61 68 9 9 39 48 68 86 28 39 55 75 59 80 17 21 82 137 82 145 0 5 10
16 22 24 12 9 17 16 10 16 -7 0 1 26 22 68 19 37 39 85 46 107 7 22 16 44 21
50 5 5 9 32 9 60 0 40 -5 56 -21 71 -19 17 -19 19 -3 24 31 11 -89 9 -146 -2
-30 -6 -64 -12 -75 -14 -47 -8 -97 -23 -138 -43 -25 -12 -58 -23 -75 -24 -16
-1 -28 -5 -26 -8 2 -4 -35 -26 -81 -50 -47 -24 -109 -61 -138 -83 -28 -22 -61
-40 -72 -41 -11 -1 -20 -6 -20 -11 0 -5 -20 -27 -44 -49 -25 -22 -60 -54 -80
-72 -19 -17 -39 -29 -45 -26 -5 3 -6 1 -2 -5 4 -6 -17 -40 -46 -74 -75 -90
-109 -135 -148 -196 -29 -45 -36 -51 -42 -35 -7 16 -8 15 -5 -3 4 -21 -145
-339 -155 -329 -3 3 -3 -5 -1 -18 3 -14 0 -28 -6 -31 -6 -4 -12 -19 -12 -34
-2 -38 -6 -18 -34 168 -13 91 -27 176 -29 190 -4 24 -16 101 -22 145 -13 95
-44 403 -44 437 0 41 10 74 59 198 47 118 71 159 86 153 16 -5 119 8 260 34
164 30 380 117 531 212 27 17 55 29 62 26 7 -2 10 0 7 5 -3 5 11 20 32 34 21
14 49 34 63 45 13 11 28 17 32 14 5 -2 7 -1 6 4 -1 4 49 60 112 123 128 129
212 240 274 363 58 116 67 140 62 173 -11 88 -45 100 -221 79 -93 -12 -110
-15 -175 -30 -36 -9 -76 -17 -90 -18 -14 -1 -27 -5 -30 -8 -3 -4 -16 -10 -29
-14 -18 -5 -22 -4 -16 5 5 9 4 11 -4 6 -6 -4 -9 -12 -6 -17 5 -8 2 -9 -20 -9
-3 0 -27 -11 -55 -25 -27 -14 -56 -25 -64 -25 -8 0 -16 -3 -18 -7 -6 -16 -97
-55 -109 -47 -7 4 -10 3 -6 -3 4 -6 -21 -28 -56 -49 -34 -21 -67 -43 -73 -49
-6 -5 -21 -17 -33 -25 -116 -79 -291 -267 -396 -425 -60 -91 -196 -351 -209
-400 -2 -11 -4 120 -3 290 2 384 19 586 58 654 4 9 29 68 53 131 64 164 115
272 127 265 5 -4 8 -1 7 6 -2 7 10 13 27 15 17 2 53 5 80 8 28 2 57 6 65 9 8
2 38 7 65 11 28 4 61 12 75 16 14 5 40 12 59 15 19 3 59 14 90 25 31 10 65 20
76 22 11 1 26 9 33 15 7 7 25 16 40 20 15 3 68 29 117 56 50 28 108 60 129 71
21 12 87 60 146 108 60 48 112 84 116 80 4 -4 4 -2 1 4 -8 13 66 87 77 77 4
-5 6 -3 4 4 -1 6 15 33 36 59 71 84 185 265 212 334 31 80 26 113 -25 147 -30
20 -41 22 -143 17 -60 -2 -119 -9 -130 -15 -14 -8 -23 -8 -31 0 -6 6 -18 11
-27 10 -10 0 -9 -3 5 -8 16 -7 11 -10 -25 -16 -38 -6 -127 -32 -180 -52 -27
-11 -45 -15 -67 -17 -11 0 -19 -4 -16 -9 2 -4 -4 -10 -14 -13 -10 -4 -41 -17
-70 -30 -28 -13 -58 -21 -66 -18 -8 3 -18 1 -22 -5 -4 -7 1 -9 12 -5 27 9 -20
-28 -65 -51 -21 -11 -63 -38 -95 -62 -33 -24 -64 -40 -70 -36 -6 3 -7 1 -3 -5
7 -12 -71 -79 -88 -74 -6 2 -8 0 -3 -4 10 -10 -52 -74 -72 -74 -8 0 -11 -3 -8
-7 10 -10 -34 -54 -46 -46 -6 3 -7 1 -3 -6 10 -15 -13 -43 -28 -34 -6 3 -8 3
-4 -2 7 -7 -6 -29 -52 -85 -16 -20 -19 -21 -14 -5 4 11 4 17 0 14 -4 -4 -8
-15 -10 -25 -5 -26 -67 -124 -77 -124 -5 0 -9 -4 -9 -10 0 -5 -13 -31 -29 -57
-16 -27 -53 -96 -83 -156 -30 -59 -58 -104 -63 -100 -4 5 -5 3 -1 -4 3 -7 0
-27 -9 -45 l-15 -33 5 30 c3 17 9 64 15 105 35 275 98 634 146 825 35 140 56
191 75 180 5 -4 9 -3 8 2 -2 4 29 40 68 78 38 39 90 98 115 132 25 34 48 60
50 58 3 -3 5 1 5 8 0 7 16 41 36 74 66 113 134 283 171 428 14 54 33 173 51
315 20 162 15 328 -17 540 -13 89 -40 150 -67 150 -11 0 -25 2 -33 5 -7 2 -32
-4 -54 -14z m41 -211 c5 -9 4 -11 -3 -6 -9 5 -12 -10 -10 -56 l1 -63 6 55 c6
50 7 45 15 -58 13 -172 -4 -412 -40 -569 -24 -110 -35 -137 -46 -122 -7 10 -8
8 -4 -7 6 -19 -22 -113 -59 -198 -13 -31 -19 -36 -27 -25 -7 10 -8 8 -3 -8 7
-24 6 -26 -60 -135 -29 -48 -51 -75 -59 -71 -6 3 -8 2 -3 -2 14 -16 -87 -140
-106 -128 -6 3 -7 1 -4 -4 4 -6 -3 -19 -14 -29 -11 -10 -19 -14 -18 -9 1 6 0
17 -3 25 -32 87 -39 144 -43 325 -4 168 7 265 44 405 49 184 112 341 183 458
16 26 23 31 30 20 7 -10 8 -8 4 5 -7 20 22 70 35 61 5 -3 6 1 3 9 -7 19 114
159 129 150 7 -3 9 -2 4 2 -4 5 1 17 10 28 17 18 18 18 24 -10 3 -17 9 -36 14
-43z m-1730 -1169 c44 -11 104 -32 132 -46 29 -14 58 -25 64 -25 5 0 7 -5 3
-12 -4 -6 -3 -8 3 -5 15 10 105 -42 97 -55 -4 -7 -2 -8 4 -4 16 9 164 -102
155 -116 -3 -6 -2 -8 4 -5 12 8 86 -67 76 -77 -4 -4 0 -4 10 0 16 6 22 -5 18
-29 -1 -5 2 -6 7 -3 9 5 35 -20 94 -92 21 -24 26 -40 22 -58 -4 -14 -2 -25 5
-25 6 -1 16 -2 23 -3 17 -2 89 -128 84 -148 -2 -10 0 -21 5 -24 5 -3 9 1 9 8
0 7 8 0 18 -17 29 -49 51 -113 46 -137 -4 -19 -3 -20 4 -4 7 16 12 10 30 -34
18 -42 19 -56 10 -73 -10 -20 -9 -20 5 -9 13 11 16 10 22 -7 3 -12 3 -26 -1
-32 -4 -7 -3 -10 2 -6 5 3 14 -6 21 -19 6 -13 10 -24 9 -24 -1 0 -149 53 -199
72 -22 8 -26 13 -15 20 9 7 7 8 -9 3 -38 -10 -252 127 -387 248 -197 177 -351
408 -449 673 -27 73 -31 91 -18 88 9 -2 52 -13 96 -23z m2619 -470 c9 -13 -4
-42 -15 -35 -5 3 -8 2 -7 -3 4 -15 -14 -55 -45 -100 -18 -25 -36 -52 -42 -61
-21 -36 -58 -71 -68 -65 -6 3 -7 1 -3 -5 8 -13 -193 -217 -224 -227 -11 -3
-20 -10 -20 -14 0 -23 -272 -172 -405 -222 -68 -25 -277 -78 -328 -84 -23 -2
-52 -6 -65 -9 -16 -3 -20 -1 -16 7 31 52 170 254 196 284 103 116 121 134 130
121 7 -10 8 -10 7 2 -3 32 3 41 57 82 98 76 116 88 125 82 5 -3 8 0 7 7 -2 6
24 26 57 44 33 18 65 37 70 42 20 17 67 33 77 27 6 -4 8 -2 5 3 -4 6 1 13 11
16 9 3 53 19 97 36 160 61 381 101 399 72z m-2842 -903 c10 0 20 -3 23 -9 4
-5 15 -9 26 -9 46 0 294 -121 273 -132 -5 -3 -3 -3 4 -2 19 5 93 -46 85 -59
-3 -6 -1 -7 5 -3 18 11 37 -4 21 -16 -10 -7 -9 -8 5 -4 11 4 22 3 25 -1 3 -4
32 -30 64 -57 53 -44 57 -51 51 -79 -5 -26 -4 -28 9 -16 8 8 12 18 9 23 -3 5
0 6 7 2 6 -4 9 -12 6 -17 -4 -5 0 -9 8 -9 20 0 130 -137 121 -152 -4 -6 -3 -8
3 -5 14 9 46 -40 37 -55 -4 -6 -3 -8 3 -5 6 4 21 -10 35 -31 49 -76 126 -237
87 -182 -8 12 -9 9 -4 -10 3 -14 7 -31 7 -37 1 -7 6 -13 11 -13 5 0 7 9 4 20
-3 11 -3 20 -1 20 7 0 74 -153 69 -158 -3 -3 3 -14 12 -24 29 -32 25 -48 -10
-41 -18 3 -44 12 -59 20 -15 7 -29 13 -30 13 -15 -3 -66 24 -61 33 4 6 1 7 -6
2 -26 -15 -194 77 -336 186 -148 112 -324 296 -309 321 3 5 1 7 -4 6 -35 -11
-216 319 -252 460 -8 33 -8 34 18 26 15 -4 35 -6 44 -6z m2768 -404 c0 -6 -24
-48 -30 -54 -3 -3 -14 -22 -25 -43 -11 -22 -27 -44 -35 -50 -8 -7 -16 -18 -18
-26 -7 -32 -110 -153 -123 -145 -5 3 -6 -1 -4 -8 7 -17 -140 -162 -155 -153
-6 4 -9 1 -8 -7 2 -7 -3 -12 -10 -10 -8 1 -11 -1 -8 -6 14 -23 -221 -173 -364
-231 -119 -49 -298 -96 -437 -115 -38 -5 -42 -4 -35 11 11 28 92 162 119 198
155 206 280 324 465 438 122 75 309 151 347 142 18 -4 22 -3 12 4 -14 9 -4 15
48 26 12 3 30 7 42 10 11 2 28 6 37 9 9 3 44 8 77 12 33 3 61 7 63 9 4 4 42
-6 42 -11z m-2824 -1055 c77 -13 95 -19 90 -27 -2 -4 10 -8 27 -8 17 -1 33 -6
35 -13 2 -6 7 -9 12 -6 13 8 110 -37 103 -48 -3 -6 -1 -7 5 -3 36 22 386 -223
366 -256 -4 -6 -3 -8 4 -4 12 7 89 -71 84 -86 -1 -5 1 -7 6 -4 20 12 125 -124
116 -151 -4 -13 -3 -14 4 -5 7 10 13 7 25 -12 20 -30 21 -40 5 -30 -7 4 -10 4
-6 0 3 -4 9 -6 13 -4 9 5 95 -133 89 -143 -3 -5 0 -9 6 -9 7 0 9 -7 6 -16 -3
-8 -2 -12 4 -9 6 3 10 -1 10 -9 0 -9 4 -16 8 -16 11 0 75 -130 68 -138 -3 -3
-6 0 -6 7 0 7 -5 9 -11 6 -5 -4 -22 -2 -37 3 -15 6 -52 18 -82 27 -81 24 -129
47 -126 59 2 6 1 8 -1 4 -8 -14 -38 -8 -83 18 -25 14 -69 40 -99 56 -84 47
-152 99 -144 110 3 7 1 8 -6 4 -19 -12 -196 139 -184 157 3 6 2 7 -4 4 -13 -8
-100 90 -183 207 -56 77 -159 258 -162 283 0 5 -4 18 -9 31 -10 25 -11 32 -6
32 2 0 30 -5 63 -11z m2727 -251 c-39 -97 -105 -233 -114 -236 -5 -2 -9 -7 -9
-12 0 -12 -65 -107 -128 -185 -76 -95 -201 -217 -214 -208 -6 3 -8 1 -5 -4 7
-11 -41 -49 -55 -45 -5 1 -7 -2 -5 -7 2 -9 -100 -91 -114 -91 -4 0 -14 -6 -21
-14 -19 -19 -288 -155 -318 -160 -17 -3 -107 -40 -114 -47 -23 -21 -21 -5 7
54 119 251 152 313 181 339 10 10 16 18 12 18 -7 0 39 76 58 96 6 7 29 36 51
65 63 84 183 202 196 193 7 -4 9 -3 5 4 -3 6 5 19 20 29 14 10 41 30 59 46 18
15 36 27 40 27 4 0 18 9 32 20 16 13 34 18 47 15 16 -5 17 -4 7 3 -13 10 29
33 174 97 40 18 162 53 200 58 17 2 31 5 32 6 1 0 -10 -27 -24 -61z"/>
</g>
</svg>
