<?xml version="1.0" standalone="no"?>
<!DOCTYPE svg PUBLIC "-//W3C//DTD SVG 20010904//EN"
 "http://www.w3.org/TR/2001/REC-SVG-20010904/DTD/svg10.dtd">
<svg version="1.0" xmlns="http://www.w3.org/2000/svg"
 width="1024.000000pt" height="1024.000000pt" viewBox="0 0 1024.000000 1024.000000"
 preserveAspectRatio="xMidYMid meet">
<metadata>
Created by potrace 1.16, written by Peter Selinger 2001-2019
</metadata>
<g transform="translate(0.000000,1024.000000) scale(0.100000,-0.100000)"
fill="#000000" stroke="none">
<path d="M2823 10233 c346 -2 908 -2 1250 0 342 1 60 2 -628 2 -687 0 -967 -1
-622 -2z"/>
<path d="M5657 8933 l-27 -14 0 -319 0 -320 -351 -701 c-192 -386 -349 -708
-347 -718 3 -13 18 -17 81 -19 l77 -3 -4 -102 c-2 -56 -5 -105 -5 -109 -1 -5
-193 -8 -428 -8 -497 0 -436 14 -589 -132 -281 -266 -591 -549 -649 -594 -22
-17 -78 -54 -125 -82 -47 -28 -96 -61 -110 -72 l-25 -21 83 4 82 3 0 -743 c0
-587 -3 -743 -12 -744 -7 -1 -18 -1 -24 0 -6 1 -46 -10 -89 -24 -86 -28 -209
-104 -294 -181 -109 -98 -210 -259 -247 -393 l-17 -58 -101 -11 c-168 -17
-231 -52 -262 -144 -28 -86 8 -214 66 -233 40 -13 18 -22 -92 -39 -127 -20
-266 -51 -303 -68 -45 -20 -23 -72 26 -63 13 3 69 14 124 24 265 53 664 81
1142 81 l272 0 45 -40 c26 -21 63 -44 84 -50 24 -6 331 -10 890 -10 588 0 852
-3 852 -10 0 -38 -86 -144 -149 -182 l-36 -23 -805 0 -805 0 -59 -26 c-80 -36
-128 -75 -124 -102 5 -33 31 -32 105 5 l68 33 757 3 c417 1 758 -1 758 -6 0
-18 -59 -99 -95 -131 -87 -76 -6 -71 -1087 -71 -603 0 -976 -4 -992 -10 -15
-6 -26 -17 -26 -29 0 -47 -32 -46 1024 -46 l991 0 58 28 c82 41 156 117 192
199 26 60 34 69 66 78 91 25 192 126 230 230 l21 57 65 6 c56 4 74 11 122 44
66 47 115 116 139 194 16 56 17 57 72 74 70 22 153 103 194 192 17 34 37 63
45 65 9 2 134 3 279 1 253 -2 265 -3 305 -25 31 -17 49 -37 70 -77 27 -54 27
-56 27 -257 l0 -203 -42 -12 c-161 -42 -238 -83 -403 -215 -174 -138 -308
-218 -502 -299 -121 -51 -143 -67 -126 -93 13 -21 31 -19 170 18 210 55 343
51 618 -20 222 -57 343 -73 535 -74 245 0 441 40 509 103 l31 29 -16 53 c-36
124 -82 199 -191 307 l-103 103 0 1390 c0 1517 -4 1423 55 1385 20 -13 55 -22
55 -13 0 1 -132 135 -292 297 -161 162 -388 392 -505 511 l-213 215 0 57 0 57
33 0 c35 0 57 15 57 39 0 8 -71 147 -159 310 -87 163 -245 460 -351 661 -106
200 -200 376 -209 389 -12 19 -17 57 -19 158 l-4 133 180 0 c103 0 193 5 209
11 38 14 83 57 99 96 18 42 19 234 2 251 -9 9 -77 12 -244 12 -219 0 -233 1
-239 19 -8 25 -36 31 -68 14z m473 -165 c0 -24 -5 -60 -11 -81 -16 -59 -46
-67 -239 -67 l-160 0 0 88 c0 49 3 92 7 95 3 4 96 7 205 7 l198 0 0 -42z
m-325 -845 c239 -453 355 -674 355 -679 0 -3 -209 -4 -465 -2 -256 1 -465 6
-465 10 0 12 444 898 450 898 3 0 59 -102 125 -227z m416 -793 c5 -8 31 -54
58 -102 l50 -88 -629 0 -630 0 52 105 53 105 519 -2 c449 -3 520 -5 527 -18z
m59 -1152 c0 -804 1 -865 18 -888 31 -46 162 -161 179 -158 32 6 23 27 -41 99
l-66 73 0 313 0 313 405 0 405 0 0 -1375 c0 -756 -2 -1375 -5 -1375 -4 0 -18
6 -33 14 -40 20 -164 46 -222 46 l-51 0 2 213 c1 152 -2 224 -11 252 -31 93
-98 156 -188 175 -27 6 -156 9 -307 8 l-260 -3 -1 480 c0 456 -1 483 -21 541
-54 164 -189 281 -361 314 -216 43 -429 -77 -514 -288 -23 -56 -23 -61 -26
-550 l-3 -492 -397 2 -396 3 -31 60 c-26 49 -45 69 -106 113 -41 29 -103 67
-139 84 -58 29 -75 32 -162 33 l-98 1 -52 50 c-118 112 -221 174 -326 194
l-62 13 0 759 0 759 32 30 32 29 803 0 803 0 1 -32 c0 -18 0 -179 -1 -358 l-1
-325 -76 -78 c-55 -56 -73 -81 -65 -89 20 -20 57 2 150 90 l92 88 0 862 0 862
550 0 550 0 0 -862z m341 365 c354 -359 494 -502 497 -513 2 -6 -136 -10 -372
-10 l-376 0 0 385 c0 212 2 385 3 385 2 0 114 -111 248 -247z m-1540 125 c0
-29 1 -165 1 -303 l0 -250 -748 -3 -749 -2 35 33 c40 38 415 387 540 502 l82
75 419 0 419 0 1 -52z m627 -1538 c122 -23 212 -92 269 -208 l38 -76 3 -480 3
-481 -286 0 -286 0 3 455 3 455 27 51 c15 29 45 67 67 85 47 40 58 82 23 87
-34 5 -108 -43 -142 -93 -66 -96 -65 -84 -65 -582 l0 -453 -48 0 -48 0 3 483
3 482 31 66 c50 104 133 173 246 203 65 18 90 19 156 6z m-2204 -800 c72 -28
159 -85 226 -151 88 -85 91 -87 174 -81 99 6 162 -14 266 -85 73 -50 89 -66
111 -113 49 -102 -45 -93 886 -92 450 0 821 -2 825 -4 25 -15 -86 -155 -138
-174 -15 -6 -321 -10 -777 -10 -733 0 -753 -1 -785 -20 -40 -25 -71 -84 -56
-108 18 -28 47 -25 79 8 l29 30 693 0 c381 0 693 -2 693 -4 0 -2 -9 -25 -20
-50 -24 -56 -94 -134 -137 -152 -26 -11 -169 -14 -749 -14 l-718 0 -26 32
c-25 30 -30 31 -54 20 -14 -6 -26 -18 -26 -25 0 -17 -80 -27 -204 -27 -105 0
-144 12 -194 58 l-42 39 0 106 c0 147 0 147 -163 147 -186 0 -229 -31 -236
-171 l-3 -79 -317 0 c-363 0 -405 6 -458 64 -59 64 -40 151 40 193 22 11 67
18 142 21 61 2 117 8 126 13 8 4 21 33 28 64 17 76 63 184 102 242 47 69 165
189 229 233 172 117 309 144 454 90z m-24 -835 l0 -75 -92 0 c-51 0 -103 -3
-115 -6 -22 -6 -23 -4 -23 55 0 96 6 101 127 101 l103 0 0 -75z m3554 -352
c196 -49 381 -212 446 -394 l19 -54 -37 -17 c-69 -31 -185 -49 -353 -55 -207
-7 -312 5 -544 62 -213 52 -286 65 -377 65 -38 0 -68 3 -68 8 1 4 33 27 72 52
40 24 97 65 127 90 163 133 264 197 361 230 120 41 230 45 354 13z"/>
<path d="M5688 6493 c-37 -6 -84 -54 -92 -94 -3 -17 -6 -100 -6 -183 0 -166 7
-191 50 -184 33 4 38 28 39 189 1 120 3 138 20 153 15 14 24 15 40 7 28 -15
31 -33 34 -195 2 -120 4 -140 20 -150 12 -8 22 -8 35 0 15 10 17 32 19 190 2
128 -1 186 -10 203 -24 48 -85 74 -149 64z"/>
<path d="M3856 5428 c-46 -35 -56 -73 -56 -217 l0 -130 -27 -13 c-33 -16 -40
-40 -18 -62 14 -13 42 -16 169 -16 105 0 156 4 164 12 19 19 15 59 -7 65 -18
5 -20 17 -23 160 l-3 155 -39 34 c-33 28 -47 34 -85 34 -31 -1 -55 -8 -75 -22z
m90 -96 c26 -17 34 -56 34 -156 l0 -106 -50 0 -50 0 0 100 c0 134 23 191 66
162z"/>
<path d="M4502 5430 c-51 -32 -62 -71 -62 -217 0 -126 0 -127 -27 -149 -25
-19 -26 -24 -15 -48 l12 -26 149 0 c123 0 152 3 165 16 22 22 20 55 -3 61 -18
5 -20 17 -23 159 l-3 154 -32 31 c-41 42 -112 50 -161 19z m98 -110 c18 -18
20 -33 20 -135 l0 -115 -45 0 -45 0 0 119 c0 95 3 123 16 135 20 21 30 20 54
-4z"/>
<path d="M6683 5431 c-55 -34 -63 -63 -63 -221 0 -132 -1 -140 -20 -140 -29 0
-42 -32 -24 -58 14 -21 23 -22 164 -22 122 0 151 3 164 16 21 21 20 30 -6 56
-20 20 -21 30 -20 147 2 140 -8 183 -49 214 -40 29 -107 33 -146 8z m104 -124
c4 -12 8 -71 8 -130 l0 -108 -45 3 -45 3 0 113 c0 107 1 115 23 132 27 22 48
17 59 -13z"/>
<path d="M7793 3417 c-13 -16 -30 -62 -43 -117 -18 -71 -111 -364 -119 -373
-4 -4 -19 43 -34 105 -47 196 -79 313 -89 326 -33 40 -61 -13 -42 -78 8 -25
23 -88 35 -140 12 -52 28 -122 35 -155 32 -135 52 -274 53 -370 2 -117 10
-154 34 -169 30 -19 37 11 37 171 l0 153 64 207 c81 262 116 386 116 412 0 26
-34 46 -47 28z"/>
<path d="M8059 3158 c-132 -90 -230 -197 -289 -316 -28 -56 -80 -235 -80 -274
0 -10 -5 -18 -10 -18 -14 0 -1 -51 19 -73 12 -15 24 -17 51 -12 129 23 170 25
265 15 109 -11 166 -26 263 -67 54 -22 65 -24 73 -12 34 53 -81 111 -291 145
-94 16 -213 13 -278 -5 l-28 -9 9 62 c14 92 58 214 102 281 47 72 161 186 230
231 61 39 77 56 69 77 -11 30 -32 25 -105 -25z"/>
</g>
</svg>
