<?xml version="1.0" standalone="no"?>
<!DOCTYPE svg PUBLIC "-//W3C//DTD SVG 20010904//EN"
 "http://www.w3.org/TR/2001/REC-SVG-20010904/DTD/svg10.dtd">
<svg version="1.0" xmlns="http://www.w3.org/2000/svg"
 width="1024.000000pt" height="1024.000000pt" viewBox="0 0 1024.000000 1024.000000"
 preserveAspectRatio="xMidYMid meet">
<metadata>
Created by potrace 1.16, written by Peter Selinger 2001-2019
</metadata>
<g transform="translate(0.000000,1024.000000) scale(0.100000,-0.100000)"
fill="#000000" stroke="none">
<path d="M6265 8259 c-338 -46 -598 -132 -835 -277 -325 -199 -580 -482 -750
-834 -112 -230 -228 -640 -217 -767 3 -46 9 -59 36 -83 42 -37 97 -38 139 -3
26 22 31 35 42 110 7 47 16 83 20 80 5 -3 6 3 3 14 -8 30 82 355 96 347 3 -2
7 7 7 20 2 26 107 249 156 331 18 29 36 49 41 46 6 -3 7 -1 4 4 -20 33 298
398 336 385 5 -1 6 2 3 7 -6 9 57 61 159 129 141 94 453 226 487 206 7 -4 9
-3 5 1 -16 18 279 72 342 63 17 -2 31 -1 31 4 0 4 48 8 107 8 140 0 334 -20
326 -33 -3 -6 -1 -7 5 -3 14 8 104 -3 98 -13 -2 -3 13 -7 33 -7 87 -4 358
-116 503 -209 142 -92 334 -258 321 -278 -3 -6 -1 -7 4 -4 12 8 141 -147 195
-233 94 -151 206 -404 194 -437 -3 -8 -2 -12 2 -9 9 6 47 -144 62 -244 28
-197 21 -407 -21 -626 -10 -56 -19 -106 -19 -110 0 -5 -5 -2 -10 6 -7 11 -8 5
-3 -19 5 -27 3 -32 -7 -26 -9 5 -11 4 -6 -3 17 -27 -88 -296 -175 -446 -27
-48 -100 -159 -162 -247 -166 -236 -254 -365 -301 -446 -24 -40 -46 -70 -49
-67 -3 3 -5 -1 -4 -8 1 -7 -27 -69 -60 -138 -82 -166 -154 -351 -211 -541 -36
-118 -51 -154 -62 -151 -12 3 -13 2 -1 -6 11 -8 4 -47 -39 -218 -96 -382 -174
-581 -309 -784 -69 -105 -232 -271 -327 -333 -93 -61 -212 -120 -246 -121 -14
-1 -24 -4 -22 -7 2 -3 -34 -14 -79 -25 -125 -29 -391 -26 -507 5 -245 65 -459
220 -599 432 -64 98 -126 233 -115 251 4 6 3 8 -3 5 -9 -6 -47 117 -89 287
-13 53 -15 73 -6 87 16 26 15 37 -1 15 -11 -16 -16 -2 -35 106 -12 67 -24 142
-28 166 -13 90 -93 134 -171 95 -51 -25 -59 -56 -45 -172 22 -171 87 -457 143
-626 77 -234 236 -472 402 -605 47 -36 54 -47 45 -60 -10 -12 -10 -13 1 -3 16
13 44 6 34 -10 -3 -5 -2 -7 4 -4 5 3 27 -6 48 -20 21 -14 79 -45 129 -69 226
-106 499 -146 755 -108 376 55 688 267 926 632 119 183 210 414 300 767 94
366 134 498 210 690 62 158 166 366 178 358 6 -3 7 -1 3 5 -8 14 71 142 198
322 297 420 378 566 469 837 19 56 36 101 38 98 2 -2 4 9 5 23 1 15 8 61 17
102 66 312 61 660 -13 948 -11 46 -18 88 -14 94 4 6 3 8 -2 5 -6 -3 -23 33
-39 79 -69 205 -217 453 -378 634 -315 354 -753 575 -1249 629 -111 13 -364
13 -453 0z"/>
<path d="M6376 7440 c-338 -54 -623 -255 -800 -564 -23 -42 -46 -73 -51 -68
-5 4 -5 2 -2 -4 9 -16 -24 -95 -36 -87 -6 3 -7 1 -4 -4 4 -6 1 -28 -6 -49 -13
-35 -15 -36 -25 -19 -6 11 -12 15 -12 10 0 -6 5 -16 10 -21 8 -8 5 -34 -9 -85
-35 -130 -44 -221 -38 -372 7 -209 46 -315 163 -453 24 -28 40 -55 36 -59 -4
-5 -1 -5 6 -1 8 5 22 0 35 -12 25 -22 168 -118 274 -182 39 -24 69 -48 66 -53
-3 -6 -1 -7 5 -4 12 8 108 -68 144 -114 59 -79 73 -118 73 -214 0 -74 -4 -98
-23 -136 -30 -62 -104 -134 -172 -166 -52 -26 -66 -28 -250 -33 -170 -6 -203
-10 -255 -30 -62 -24 -158 -80 -170 -99 -3 -6 -12 -8 -18 -5 -7 4 -9 4 -5 -1
4 -4 -9 -26 -28 -49 -81 -94 -134 -250 -135 -401 -1 -85 15 -117 68 -135 42
-14 108 3 127 33 8 12 20 61 26 108 22 182 72 272 182 328 l66 34 174 2 c114
2 190 8 223 17 134 40 279 143 334 240 15 26 31 45 35 41 4 -4 4 0 1 9 -3 8 0
22 7 29 7 8 14 21 15 29 1 8 6 39 12 69 26 129 7 263 -52 375 -63 118 -168
208 -442 376 -147 91 -214 155 -259 250 -72 149 -70 338 5 571 30 93 100 239
112 232 6 -3 7 -1 3 6 -10 16 72 129 156 211 161 160 357 239 599 240 349 1
631 -180 759 -486 50 -120 70 -229 70 -384 0 -339 -114 -664 -388 -1098 -103
-164 -225 -341 -233 -337 -3 2 -6 -1 -6 -8 0 -7 -25 -50 -55 -97 -174 -270
-287 -537 -261 -616 19 -57 95 -88 157 -64 27 10 36 27 81 145 45 119 87 205
98 198 6 -3 7 -1 3 5 -9 15 102 198 286 472 79 118 170 259 201 312 114 192
244 492 277 640 8 33 17 55 23 51 6 -3 7 -1 3 6 -4 6 0 46 8 89 37 182 39 392
6 561 -11 52 -16 99 -13 104 3 6 1 7 -5 3 -6 -4 -13 7 -17 26 -23 105 -135
288 -245 399 -187 188 -425 286 -715 294 -77 2 -167 0 -199 -5z"/>
<path d="M3160 6275 c-8 -2 -49 -9 -90 -15 -373 -61 -725 -325 -897 -673 -96
-194 -133 -350 -133 -562 1 -204 27 -343 95 -508 145 -346 448 -623 790 -722
289 -84 613 -67 875 44 143 61 319 178 404 269 16 17 34 28 40 25 6 -3 8 -3 4
2 -4 4 12 31 36 59 132 155 207 304 268 529 20 72 22 106 23 282 0 189 -2 206
-28 300 -103 370 -304 636 -614 813 -192 109 -408 163 -644 161 -63 -1 -121
-3 -129 -4z m210 -214 c129 -12 231 -31 224 -42 -3 -5 1 -6 9 -3 18 6 163 -52
237 -96 169 -100 313 -255 405 -438 210 -420 122 -923 -217 -1237 -219 -203
-480 -296 -792 -282 -126 5 -230 23 -221 37 3 4 -5 6 -17 2 -14 -3 -19 -1 -14
6 4 8 2 10 -7 6 -23 -8 -152 51 -244 112 -248 165 -430 452 -465 732 -15 123
-5 319 21 418 28 108 90 256 104 247 5 -3 7 -1 4 5 -19 30 225 323 255 306 7
-4 10 -4 6 1 -10 11 52 56 65 48 6 -3 7 -1 3 5 -8 13 190 113 228 116 13 0 22
4 21 7 -6 8 93 32 104 25 5 -3 11 -2 13 4 1 5 35 14 73 19 94 12 96 12 205 2z"/>
<path d="M2954 5560 c-31 -12 -54 -49 -55 -90 -2 -30 -3 -31 -8 -10 -12 50
-16 -140 -12 -520 3 -212 8 -353 11 -315 l6 70 2 -86 c2 -76 5 -89 26 -112 13
-14 23 -27 21 -29 -2 -2 16 -4 41 -6 48 -3 98 17 114 47 14 28 14 972 -1 1004
-21 47 -91 69 -145 47z"/>
<path d="M3554 5551 c-18 -11 -36 -25 -40 -33 -11 -16 -22 -968 -11 -961 4 2
7 -5 7 -17 0 -12 13 -35 29 -51 24 -23 38 -29 73 -29 24 0 53 7 64 15 12 8 25
11 29 7 3 -4 5 -2 4 3 -1 6 3 29 10 53 18 62 12 947 -7 979 -29 51 -104 67
-158 34z"/>
</g>
</svg>
