<?xml version="1.0" standalone="no"?>
<!DOCTYPE svg PUBLIC "-//W3C//DTD SVG 20010904//EN"
 "http://www.w3.org/TR/2001/REC-SVG-20010904/DTD/svg10.dtd">
<svg version="1.0" xmlns="http://www.w3.org/2000/svg"
 width="1024.000000pt" height="1024.000000pt" viewBox="0 0 1024.000000 1024.000000"
 preserveAspectRatio="xMidYMid meet">
<metadata>
Created by potrace 1.16, written by Peter Selinger 2001-2019
</metadata>
<g transform="translate(0.000000,1024.000000) scale(0.100000,-0.100000)"
fill="#000000" stroke="none">
<path d="M5023 6517 c-56 -16 -83 -45 -90 -95 l-5 -40 -62 -12 c-33 -7 -106
-21 -161 -32 -55 -11 -122 -23 -150 -28 -27 -4 -107 -19 -176 -34 -69 -14
-141 -27 -160 -30 -19 -2 -45 -6 -59 -9 -14 -3 -65 -13 -115 -22 -49 -9 -110
-20 -135 -25 -25 -5 -85 -17 -135 -25 -49 -9 -121 -23 -160 -30 -119 -24 -287
-55 -298 -55 -8 0 -8 3 0 11 15 15 0 54 -30 81 -44 38 -81 48 -165 43 -100 -5
-158 -27 -179 -69 -20 -39 -18 -102 4 -135 17 -24 18 -72 20 -601 3 -571 3
-574 24 -595 15 -14 23 -16 26 -7 3 6 11 12 19 12 17 0 16 -15 14 199 l-1 173
73 -5 c40 -4 73 -7 73 -7 0 0 0 -81 0 -180 0 -142 3 -180 13 -180 7 0 11 -4 8
-9 -10 -15 38 1 56 19 14 15 15 35 11 141 -4 130 1 189 18 189 6 0 7 -6 3 -12
-5 -10 -4 -10 5 -2 9 8 23 8 54 -1 23 -7 89 -25 147 -41 58 -15 111 -34 118
-43 6 -8 12 -10 12 -4 0 10 22 5 148 -31 26 -7 88 -24 137 -37 50 -13 92 -27
93 -32 2 -4 7 -5 12 -2 5 3 21 0 37 -6 15 -6 37 -13 47 -15 11 -2 58 -15 105
-28 47 -14 102 -28 121 -31 19 -4 41 -12 48 -17 6 -6 12 -8 12 -4 0 3 23 -3
50 -14 28 -11 50 -18 50 -16 0 3 15 0 33 -5 17 -5 55 -16 82 -24 28 -8 74 -21
103 -30 138 -40 160 -46 197 -51 22 -3 41 -6 42 -7 1 -2 3 -79 4 -173 1 -118
5 -171 13 -172 6 0 21 -4 33 -7 16 -5 25 -1 37 17 12 18 15 52 13 163 l-2 140
62 -3 61 -4 6 -46 c3 -26 5 -54 4 -62 -4 -47 4 -227 11 -239 5 -7 21 -13 36
-13 15 0 31 6 36 13 5 8 9 99 8 202 0 104 1 190 3 192 2 3 22 7 45 9 23 3 65
14 95 25 49 18 154 49 188 56 8 2 27 8 41 13 15 6 29 8 32 5 3 -3 12 -1 19 3
7 5 15 9 18 9 3 1 23 7 45 14 21 8 46 15 55 15 8 1 52 14 97 29 46 14 95 29
110 32 39 8 58 13 58 15 0 2 13 5 75 20 25 6 62 17 83 25 20 8 37 12 37 10 0
-3 8 -1 18 4 11 6 30 12 43 15 30 7 78 20 149 41 30 9 102 29 160 45 58 16
121 34 140 40 19 6 51 13 70 16 19 3 43 10 52 15 32 17 50 11 48 -18 -1 -16
-2 -94 -1 -175 1 -135 3 -148 20 -158 14 -7 27 -7 45 2 l26 11 0 183 0 183 33
5 c17 3 47 7 65 9 l32 4 0 -179 c0 -105 4 -187 10 -199 13 -24 42 -25 63 -1
15 16 17 77 20 583 l4 564 27 40 c23 33 26 46 20 80 -13 79 -73 112 -200 109
-114 -3 -184 -43 -180 -103 2 -30 1 -30 -40 -26 -23 2 -53 7 -66 9 -22 5 -56
12 -103 21 -48 8 -252 46 -275 51 -14 2 -32 5 -40 6 -8 0 -44 7 -80 15 -36 8
-76 16 -90 18 -14 2 -43 6 -65 10 -22 3 -47 8 -55 11 -8 3 -35 8 -60 11 -25 3
-88 14 -140 25 -52 11 -111 21 -130 24 -19 2 -44 7 -55 11 -11 4 -27 7 -35 9
-36 5 -96 15 -110 19 -13 4 -36 8 -105 20 -45 8 -91 17 -115 22 -14 3 -41 7
-62 10 -33 4 -36 7 -32 31 13 72 -34 110 -147 117 -43 2 -92 -1 -116 -8z m-46
-248 c3 -26 -11 -32 -127 -54 -30 -6 -47 -10 -80 -18 -32 -8 -71 -16 -135 -27
-75 -13 -145 -27 -190 -39 -22 -5 -58 -12 -80 -15 -89 -14 -111 -18 -135 -26
-14 -5 -43 -12 -65 -15 -40 -5 -46 -6 -95 -18 -14 -4 -41 -9 -60 -12 -19 -2
-46 -7 -60 -10 -26 -5 -58 -12 -100 -20 -14 -3 -36 -7 -50 -11 -14 -3 -45 -8
-70 -11 -25 -3 -49 -8 -55 -13 -5 -4 -30 -10 -55 -13 -25 -3 -67 -11 -95 -17
-27 -6 -61 -14 -75 -16 -14 -2 -36 -7 -50 -11 -14 -4 -34 -7 -45 -8 -11 -1
-32 -5 -46 -9 -24 -7 -25 -5 -28 38 -2 49 -4 47 94 61 44 6 186 32 225 41 14
3 36 7 50 9 14 2 41 7 60 11 19 4 39 6 44 5 6 -1 19 2 30 7 12 6 57 15 101 21
44 6 107 18 140 25 68 16 156 34 200 41 17 3 68 12 115 21 47 9 103 18 125 20
22 3 54 9 71 15 30 9 49 13 239 45 50 9 108 19 130 24 57 11 68 8 72 -21z
m180 -153 c-1 -102 -5 -182 -9 -180 -4 3 -8 11 -8 19 0 8 -4 16 -9 19 -5 4 -7
-2 -4 -13 4 -14 -2 -19 -25 -23 -29 -4 -30 -3 -35 45 -4 27 -3 107 0 177 l6
129 41 4 c23 2 42 4 43 5 0 1 1 -81 0 -182z m183 169 c25 -5 52 -9 60 -10 8
-1 26 -5 40 -9 14 -3 39 -8 55 -10 17 -2 77 -13 135 -25 57 -12 127 -24 155
-27 27 -3 57 -8 65 -11 8 -2 26 -7 40 -9 14 -3 50 -9 80 -15 83 -15 162 -29
190 -34 14 -2 50 -9 80 -16 30 -6 62 -12 70 -13 67 -11 109 -19 135 -26 28 -9
81 -18 130 -24 11 -1 45 -7 75 -14 66 -14 88 -18 210 -40 l95 -17 1 -43 c1
-39 -1 -42 -20 -36 -12 4 -32 9 -46 11 -14 2 -36 6 -50 8 -14 3 -34 7 -45 9
-11 2 -20 4 -20 5 0 1 -11 4 -25 6 -14 2 -50 9 -80 15 -30 5 -71 12 -90 15
-19 3 -66 13 -105 22 -38 9 -74 16 -78 15 -4 -1 -16 2 -25 7 -10 5 -38 12 -63
16 -24 3 -53 7 -64 10 -11 2 -36 7 -55 10 -61 11 -74 13 -100 20 -14 4 -35 7
-47 6 -13 0 -23 4 -23 10 0 6 -7 8 -16 5 -8 -3 -24 -2 -34 4 -10 5 -38 12 -62
14 -42 5 -89 13 -118 21 -8 2 -37 7 -65 10 -43 6 -112 19 -203 40 -13 3 -20
10 -17 15 3 5 -1 7 -9 4 -9 -3 -48 0 -88 6 -150 25 -158 28 -158 54 0 28 7 35
28 31 10 -1 37 -6 62 -10z m-371 -152 c-11 -13 -11 -15 -1 -9 11 7 12 0 7 -30
-8 -44 -9 -72 -3 -130 l4 -41 -80 -18 c-45 -10 -85 -20 -91 -21 -5 -2 -23 -6
-40 -9 -16 -3 -48 -12 -70 -20 -22 -8 -53 -17 -70 -19 -16 -3 -50 -10 -75 -16
-59 -15 -80 -20 -110 -26 -14 -3 -43 -10 -65 -16 -22 -7 -47 -13 -55 -13 -8
-1 -25 -5 -37 -9 -12 -4 -38 -4 -58 0 l-35 6 0 119 c0 88 3 119 13 120 44 5
57 7 83 14 16 4 41 8 56 10 22 3 226 44 303 61 11 2 31 6 45 9 52 10 72 14 88
19 9 3 33 7 52 11 19 3 60 11 90 19 62 15 69 14 49 -11z m396 -3 c26 -8 50
-13 115 -24 8 -1 30 -6 48 -10 19 -4 43 -9 55 -11 12 -2 33 -6 47 -10 14 -3
39 -8 55 -11 53 -9 69 -12 120 -23 28 -6 59 -13 70 -14 11 -2 31 -7 45 -11 23
-6 77 -14 108 -15 9 -1 12 -33 12 -126 0 -125 0 -125 -22 -120 -13 3 -71 16
-131 30 -111 26 -116 27 -207 44 -30 6 -93 20 -140 31 -47 11 -105 25 -130 30
-25 5 -71 14 -102 21 l-58 12 0 113 0 113 43 -5 c23 -3 56 -9 72 -14z m-2171
-453 c-1 -166 -2 -326 -3 -355 l-1 -54 -67 4 -68 4 -3 294 c-2 162 0 318 3
347 l6 52 67 4 c37 2 67 4 67 5 0 1 -1 -134 -1 -301z m906 231 c0 -51 -3 -68
-10 -58 -5 8 -10 10 -10 5 0 -6 5 -16 11 -22 5 -5 9 -34 7 -63 l-3 -53 -65
-19 c-77 -23 -173 -47 -214 -53 -16 -3 -47 -10 -70 -17 -22 -6 -47 -12 -54
-14 -27 -5 -119 -27 -167 -40 -60 -15 -106 -27 -120 -29 -40 -5 -86 -19 -91
-26 -3 -5 -12 -9 -20 -9 -11 0 -14 26 -14 148 l0 148 78 18 c42 10 92 22 109
26 19 5 35 4 39 -1 3 -5 17 -8 32 -8 l27 1 -30 8 c-30 8 -28 11 13 15 12 1 25
5 29 8 3 4 15 2 26 -4 11 -7 17 -7 13 -1 -5 9 21 17 89 28 17 3 44 9 60 14 17
6 44 12 60 14 64 9 255 48 273 55 1 1 2 -32 2 -71z m2110 52 c25 -4 79 -13
120 -20 41 -7 82 -15 90 -18 18 -6 37 -11 70 -16 14 -3 36 -7 50 -10 25 -6 45
-10 130 -26 25 -5 59 -11 75 -15 17 -4 41 -9 55 -11 14 -3 32 -6 40 -8 8 -2
38 -7 66 -11 l50 -7 3 -134 c2 -108 0 -133 -11 -129 -7 3 -26 7 -43 10 -101
16 -349 69 -520 110 -41 10 -150 35 -165 38 -8 2 -31 7 -51 11 l-36 8 5 101
c2 56 8 104 13 105 5 2 9 8 9 13 0 6 -4 8 -9 5 -5 -3 -12 1 -15 10 -5 12 -2
15 11 9 10 -4 38 -10 63 -15z m970 -216 l0 -230 -65 -2 -65 -2 0 232 0 233 65
0 65 0 0 -231z m-1965 96 c6 -4 35 -11 65 -15 47 -6 92 -15 205 -42 11 -2 38
-7 60 -10 22 -3 46 -10 53 -16 7 -5 15 -7 18 -4 3 3 27 -1 52 -8 26 -8 63 -17
82 -20 19 -3 60 -12 90 -19 30 -7 82 -19 115 -26 33 -6 78 -16 100 -22 50 -12
104 -24 175 -38 75 -15 73 -15 88 -23 6 -5 16 -6 21 -3 4 3 23 1 42 -5 19 -5
49 -12 68 -15 19 -2 38 -7 44 -11 6 -3 20 -8 31 -10 123 -21 206 -42 225 -57
11 -8 13 -8 7 1 -5 10 -1 11 16 4 13 -4 29 -6 37 -3 10 3 12 0 7 -13 -5 -13
-3 -15 6 -8 7 5 19 8 26 7 6 -1 18 -2 25 -3 20 -3 -16 -20 -54 -25 -19 -2 -61
-12 -94 -21 -33 -9 -85 -22 -115 -30 -30 -7 -68 -18 -85 -24 -16 -6 -41 -12
-55 -14 -14 -2 -37 -9 -51 -15 -14 -5 -39 -13 -55 -15 -16 -3 -44 -10 -61 -16
-18 -5 -33 -7 -33 -4 0 3 -6 1 -12 -4 -7 -5 -20 -9 -28 -8 -8 1 -23 -3 -33 -8
-11 -5 -23 -5 -30 1 -7 5 -32 13 -57 16 -25 4 -67 12 -95 19 -47 11 -48 12
-20 18 23 5 18 7 -20 6 -53 -1 -117 8 -175 23 -95 25 -249 60 -264 60 -20 0
-113 27 -137 40 -10 5 -19 2 -27 -10 -13 -21 8 -34 73 -46 22 -4 43 -8 48 -9
4 -2 13 -3 20 -4 8 -1 7 -4 -3 -11 -9 -6 -10 -10 -3 -10 6 0 14 4 17 9 3 5 43
0 88 -11 153 -36 213 -50 233 -53 95 -16 167 -38 154 -46 -7 -4 5 -5 28 -2 22
3 48 1 57 -4 15 -8 14 -10 -6 -20 -21 -9 -177 -50 -223 -58 -11 -2 -41 -11
-66 -18 -34 -11 -50 -12 -65 -4 -19 11 -25 13 -79 22 -16 3 -39 7 -50 9 -11 3
-24 5 -30 5 -5 1 -3 6 5 11 8 5 10 10 5 10 -6 0 -16 -5 -22 -11 -7 -7 -15 -5
-27 6 -10 10 -16 12 -16 5 0 -8 -7 -9 -17 -5 -10 4 -31 9 -48 12 -16 3 -33 10
-37 16 -6 9 -8 9 -8 0 0 -7 -7 -10 -15 -7 -8 4 -13 10 -10 14 3 5 -7 7 -22 5
-16 -2 -38 -1 -50 2 -22 5 -23 9 -23 124 0 110 2 121 25 155 22 32 24 44 19
93 -10 95 -55 125 -189 126 -49 0 -99 -4 -110 -9 -11 -5 -24 -10 -28 -10 -16
-2 -68 -60 -74 -84 -9 -37 4 -102 24 -125 16 -18 19 -37 19 -99 -1 -81 -2 -83
-26 -74 -27 9 -168 36 -191 36 -15 0 -19 5 -15 15 3 8 1 15 -4 15 -6 0 -10 -4
-10 -10 0 -5 -5 -10 -11 -10 -5 0 -8 4 -5 9 4 5 -2 7 -11 5 -10 -2 -54 5 -98
16 -44 11 -93 23 -110 26 -16 3 -59 12 -95 21 -36 8 -81 19 -100 23 -19 5 -51
13 -70 18 -26 6 -39 5 -47 -4 -13 -13 -1 -22 47 -30 14 -3 99 -23 190 -45 91
-22 176 -42 190 -44 22 -3 130 -29 230 -55 19 -5 56 -14 83 -21 l47 -12 0 -82
0 -82 -39 10 c-22 6 -38 14 -35 18 2 4 -5 5 -15 2 -11 -3 -50 4 -88 15 -37 11
-104 28 -148 37 -44 10 -96 23 -116 31 -20 7 -39 11 -41 9 -2 -3 -38 5 -79 16
-41 11 -85 22 -99 24 -14 2 -70 15 -125 30 -134 35 -197 50 -250 59 -11 2 -40
9 -64 15 -23 7 -50 9 -60 6 -14 -6 -14 -8 3 -20 10 -8 39 -17 65 -21 39 -5 69
-13 166 -41 10 -2 75 -17 124 -27 84 -18 249 -59 266 -66 11 -5 47 -14 79 -20
41 -8 55 -15 45 -21 -9 -6 -10 -9 -2 -9 6 0 14 4 18 10 3 5 12 7 20 4 8 -4 12
-11 8 -17 -3 -6 -1 -7 6 -3 11 7 119 -11 231 -39 29 -8 65 -16 85 -20 17 -4
23 -10 18 -18 -5 -9 -3 -9 9 0 21 18 24 11 20 -40 -3 -35 -7 -44 -20 -42 -10
2 -17 4 -17 5 0 2 -23 8 -118 30 -48 10 -92 22 -97 25 -10 6 -41 14 -75 19
-11 2 -20 4 -20 6 0 1 -13 4 -30 6 -16 3 -77 18 -135 34 -106 29 -199 53 -212
56 -5 1 -9 2 -10 3 -2 2 -14 4 -28 7 -31 5 -87 19 -205 51 -49 14 -97 26 -105
28 -77 17 -105 25 -108 34 -2 5 -10 7 -18 4 -16 -6 -102 14 -120 28 -6 5 -14
6 -17 2 -4 -3 -13 -1 -20 5 -8 7 -17 9 -20 5 -4 -3 -9 1 -12 9 -4 9 -16 13
-39 10 -19 -2 -37 1 -40 7 -4 6 -22 11 -39 12 -18 0 -41 4 -52 9 -18 7 -17 8
10 15 17 4 48 12 70 18 22 6 44 10 48 9 4 -1 16 2 26 7 10 6 33 13 52 16 38 7
92 20 159 40 43 13 159 40 211 50 40 8 120 27 189 45 73 20 113 30 150 36 53
10 290 67 388 93 56 16 105 24 108 20 3 -5 11 -9 17 -8 7 0 5 3 -3 6 -8 4 33
18 90 32 105 26 273 38 295 21z m-32 -159 c49 -12 53 -16 36 -38 -9 -11 -10
-14 -1 -9 6 4 12 3 12 -3 0 -17 -17 -22 -86 -26 -74 -5 -124 13 -124 44 0 35
83 50 163 32z m6 -524 c1 -200 -1 -371 -5 -380 -5 -13 -19 -17 -65 -17 -54 0
-59 2 -59 23 -2 67 -2 271 -1 490 l1 247 64 0 64 0 1 -363z m1991 206 c0 -53
-3 -63 -17 -64 -53 -3 -84 -7 -96 -12 -10 -4 -13 12 -16 68 l-2 72 65 -1 66
-1 0 -62z m-224 -79 c-3 -7 -22 -18 -43 -23 -21 -6 -85 -25 -143 -42 -58 -17
-112 -32 -120 -34 -8 -3 -49 -14 -90 -26 -41 -11 -124 -34 -185 -51 -60 -16
-125 -34 -142 -39 -18 -5 -48 -13 -65 -18 -18 -5 -57 -17 -87 -26 -30 -9 -63
-19 -73 -21 -44 -10 -54 -13 -78 -22 -14 -5 -29 -11 -35 -12 -5 -1 -14 -4 -20
-6 -5 -1 -37 -10 -70 -19 -154 -40 -205 -55 -264 -74 -35 -12 -74 -23 -85 -26
-12 -2 -36 -8 -54 -14 -18 -5 -36 -11 -40 -12 -4 -1 -16 -5 -27 -9 -56 -21
-65 -22 -59 -6 3 9 7 48 7 87 l2 72 45 14 c105 33 180 50 180 39 0 -6 4 -5 9
2 4 7 14 15 22 16 8 2 21 5 29 8 13 5 131 35 170 43 25 6 252 65 305 80 28 7
84 23 125 35 41 12 85 19 97 17 12 -2 20 -1 18 4 -5 7 35 23 85 34 33 6 195
50 290 77 41 12 82 22 90 23 8 1 22 5 30 7 28 10 95 27 130 33 19 3 37 8 40
11 7 8 13 -105 6 -122z m-3341 15 c61 -17 128 -34 150 -39 69 -17 115 -33 115
-41 0 -4 8 -5 19 -2 10 2 38 -1 62 -8 24 -7 47 -12 51 -11 4 1 44 -10 89 -24
46 -14 94 -28 108 -30 28 -5 188 -43 209 -49 7 -3 14 -5 17 -5 3 0 20 -6 39
-14 18 -7 53 -17 77 -21 24 -3 58 -11 74 -15 55 -17 180 -52 190 -55 47 -10
75 -18 108 -27 l37 -11 0 -77 0 -77 -32 5 c-18 2 -37 8 -43 12 -5 5 -26 11
-45 14 -19 3 -66 15 -105 26 -38 12 -81 23 -94 26 -14 3 -50 13 -80 23 -31 10
-74 22 -96 26 -22 4 -44 10 -50 13 -5 4 -14 7 -20 9 -5 1 -40 9 -76 17 -37 8
-75 19 -85 25 -18 9 -78 26 -134 38 -14 2 -32 7 -40 10 -8 3 -22 7 -30 8 -38
4 -118 39 -113 49 4 6 0 5 -8 -1 -15 -12 -54 -5 -101 18 -10 5 -25 9 -34 9 -9
0 -53 11 -98 24 -44 14 -118 34 -163 46 -46 12 -80 26 -77 31 3 5 -2 6 -10 3
-9 -3 -16 -2 -16 2 0 5 -12 9 -28 10 -15 0 -44 4 -65 8 l-37 7 0 54 c0 45 3
55 18 56 16 1 16 2 0 6 -10 2 -18 8 -18 13 0 5 51 -5 113 -22 61 -16 162 -43
222 -59z m1845 -89 c58 -12 112 -24 120 -27 18 -7 33 -9 80 -11 19 -1 30 -6
25 -10 -12 -10 -85 -32 -125 -37 -15 -2 -39 -9 -52 -16 -12 -7 -25 -12 -28
-11 -3 1 -21 -3 -40 -8 -126 -32 -150 -37 -155 -32 -7 7 -6 127 1 146 3 9 12
16 20 16 8 0 14 4 14 9 0 5 8 8 18 6 9 -2 64 -14 122 -25z"/>
<path d="M5353 5686 c4 -10 7 -19 7 -21 0 -2 16 -7 36 -11 20 -4 31 -10 25
-13 -6 -4 6 -7 27 -7 20 0 53 -3 72 -8 19 -4 67 -14 105 -22 39 -8 79 -17 90
-19 11 -2 38 -9 60 -14 63 -16 99 -24 115 -26 8 -2 40 -8 70 -15 30 -6 69 -14
85 -16 17 -2 67 -13 111 -24 45 -12 90 -22 101 -25 12 -2 38 -8 59 -14 22 -6
53 -11 71 -11 17 0 35 -5 38 -10 4 -6 10 -8 14 -6 4 3 29 -1 55 -9 34 -10 53
-12 67 -4 26 13 24 29 -3 28 -38 0 -103 17 -101 27 0 5 -20 10 -45 11 -26 2
-54 4 -62 6 -8 3 -34 8 -57 12 -24 4 -43 10 -43 14 0 3 -17 7 -38 9 -48 4 -55
5 -125 22 -45 10 -57 17 -53 29 5 14 4 14 -6 0 -10 -14 -18 -14 -76 -2 -35 7
-69 16 -75 20 -6 4 -23 8 -37 9 -91 9 -236 48 -232 64 1 6 -2 9 -8 5 -6 -3 -8
-10 -5 -14 2 -5 -16 -3 -40 2 -25 6 -45 13 -45 17 0 4 -14 5 -30 2 -17 -2 -36
0 -43 6 -6 6 -30 13 -51 18 -35 6 -38 5 -33 -10z"/>
<path d="M3975 4632 c-57 -4 -125 -28 -207 -73 -89 -49 -168 -73 -213 -65 -19
4 -87 34 -152 67 -141 73 -203 83 -287 47 -47 -21 -49 -21 -62 -3 -8 10 -14
14 -14 8 0 -7 5 -15 10 -18 7 -4 7 -12 0 -25 -12 -23 -4 -47 20 -55 10 -3 46
4 80 15 42 14 73 19 98 14 36 -6 121 -48 133 -66 3 -4 34 -20 70 -35 50 -21
80 -27 139 -27 80 1 81 1 253 92 66 36 87 42 137 42 53 0 71 -6 187 -67 l128
-68 85 1 c79 0 91 3 170 42 89 43 161 90 166 107 2 6 -8 19 -23 29 -22 17 -29
17 -47 6 -12 -8 -58 -33 -102 -56 -96 -50 -158 -62 -217 -43 -53 16 -180 79
-189 93 -4 6 -8 8 -8 4 0 -3 -26 3 -57 15 -34 13 -75 21 -98 19z"/>
<path d="M5680 4616 c-57 -21 -135 -63 -149 -80 -7 -9 -11 -26 -7 -39 8 -32
49 -33 89 -3 68 51 163 73 224 52 62 -22 173 -88 166 -99 -3 -6 -2 -7 3 -4 5
3 34 -3 64 -13 30 -11 76 -19 102 -20 50 0 141 30 199 66 84 52 142 74 197 74
58 0 97 -14 86 -32 -5 -7 -2 -8 5 -3 7 4 48 -11 97 -36 46 -24 79 -46 73 -50
-13 -8 21 -11 137 -11 75 -1 100 3 137 21 65 31 97 59 90 77 -6 17 -63 49 -63
36 0 -12 -87 -50 -132 -58 -43 -7 -137 18 -188 50 -114 72 -245 103 -327 75
-21 -7 -43 -14 -50 -15 -7 -1 -25 -11 -40 -21 -24 -17 -119 -66 -133 -69 -3 0
-13 -4 -22 -8 -23 -10 -125 -2 -163 14 -16 6 -55 26 -85 43 -113 65 -225 84
-310 53z"/>
<path d="M3930 4211 c-75 -31 -95 -43 -114 -68 -17 -23 -17 -25 0 -44 20 -23
31 -23 64 -5 75 43 116 56 170 56 31 0 60 -3 64 -7 3 -4 16 -8 28 -10 12 -2
43 -16 68 -30 112 -67 164 -85 252 -85 80 0 131 15 214 63 30 17 59 27 65 23
8 -4 9 -3 5 4 -13 22 64 44 141 40 64 -3 83 -9 183 -61 192 -99 279 -99 468
-1 150 79 215 86 315 34 155 -80 183 -92 235 -101 97 -18 243 21 310 83 26 25
27 34 8 54 -21 21 -40 17 -92 -16 -37 -23 -50 -27 -61 -18 -11 9 -13 8 -11 -2
2 -9 -13 -17 -46 -23 -69 -13 -128 3 -256 71 l-105 56 -105 0 -105 1 -109 -58
c-118 -64 -142 -71 -226 -70 -46 1 -75 11 -185 64 l-130 64 -100 0 c-91 0
-105 -3 -160 -30 -33 -16 -66 -35 -72 -42 -45 -42 -198 -67 -260 -42 -59 23
-178 83 -184 92 -3 5 -9 8 -13 8 -3 -1 -7 -1 -8 0 -28 8 -57 12 -123 15 -63 3
-90 0 -125 -15z"/>
</g>
</svg>
