<?xml version="1.0" standalone="no"?>
<!DOCTYPE svg PUBLIC "-//W3C//DTD SVG 20010904//EN"
 "http://www.w3.org/TR/2001/REC-SVG-20010904/DTD/svg10.dtd">
<svg version="1.0" xmlns="http://www.w3.org/2000/svg"
 width="1024.000000pt" height="1024.000000pt" viewBox="0 0 1024.000000 1024.000000"
 preserveAspectRatio="xMidYMid meet">
<metadata>
Created by potrace 1.16, written by Peter Selinger 2001-2019
</metadata>
<g transform="translate(0.000000,1024.000000) scale(0.100000,-0.100000)"
fill="#000000" stroke="none">
<path d="M4351 8405 c-18 -8 -38 -12 -44 -8 -6 4 -7 1 -2 -7 6 -9 1 -10 -16
-5 -16 4 -19 3 -11 -3 10 -7 5 -16 -21 -38 -18 -16 -44 -45 -57 -64 -13 -19
-27 -37 -30 -40 -15 -11 -92 -180 -123 -268 -18 -51 -35 -90 -38 -88 -2 2 -4
-8 -5 -22 0 -15 -10 -74 -23 -132 -12 -58 -25 -142 -28 -187 -5 -73 -8 -82
-22 -70 -13 11 -14 10 0 -10 11 -16 13 -37 9 -82 -3 -32 -3 -58 1 -56 3 3 9
-39 13 -93 3 -53 10 -114 15 -135 9 -37 8 -37 -93 61 -160 153 -352 269 -534
322 -44 13 -79 26 -77 29 1 3 -11 6 -28 6 -18 1 -59 5 -92 10 -33 5 -123 10
-200 9 -158 0 -230 -16 -302 -65 -66 -45 -83 -88 -77 -190 2 -46 5 -94 5 -106
1 -13 4 -21 8 -19 3 2 26 -33 50 -77 24 -45 37 -76 30 -70 -11 9 -14 6 -16
-18 -2 -22 2 -29 15 -28 10 0 12 3 5 6 -18 7 -16 20 3 20 15 0 101 -114 96
-129 -1 -4 1 -7 5 -6 9 3 135 -126 130 -133 -1 -2 0 -3 2 -2 7 4 156 -132 153
-140 -1 -5 2 -6 7 -3 5 3 22 -4 37 -16 38 -28 54 -44 34 -33 -13 8 -13 7 0 -9
8 -10 16 -14 18 -8 1 5 40 -12 85 -39 45 -27 86 -49 90 -49 5 0 5 -5 1 -12 -4
-6 -3 -8 4 -4 6 3 35 -4 64 -17 65 -29 190 -72 201 -69 4 1 7 -2 7 -6 0 -11
-199 -78 -225 -75 -11 1 -14 -1 -6 -4 7 -3 -24 -25 -75 -52 -49 -26 -101 -55
-115 -64 -14 -9 -29 -15 -32 -12 -4 3 -5 2 -2 -1 2 -4 -14 -20 -36 -36 -35
-25 -43 -27 -57 -16 -15 11 -15 11 -4 -3 11 -15 9 -20 -14 -38 -14 -11 -31
-18 -37 -14 -5 3 -7 2 -4 -4 3 -5 -24 -38 -60 -74 -36 -35 -92 -98 -126 -139
-33 -41 -66 -74 -74 -72 -7 2 -13 -2 -13 -8 0 -6 5 -8 10 -5 17 11 11 -2 -31
-67 -22 -35 -45 -62 -49 -61 -5 2 -7 -3 -4 -10 2 -7 -9 -42 -25 -78 -16 -36
-32 -81 -36 -102 -4 -20 -10 -35 -14 -32 -4 2 -4 -17 0 -43 4 -26 8 -52 8 -58
1 -6 15 -31 32 -57 22 -34 46 -54 91 -77 34 -16 70 -30 80 -30 11 0 17 -3 15
-8 -3 -4 68 -8 156 -10 171 -3 276 9 410 49 37 11 72 17 79 13 6 -4 8 -3 5 3
-3 5 33 27 80 48 47 21 121 62 164 90 89 57 272 210 288 240 l11 20 -4 -20
c-3 -11 -10 -67 -17 -125 -22 -194 0 -485 51 -669 21 -76 19 -93 -3 -29 -9 24
-16 35 -16 25 -1 -10 4 -27 10 -38 8 -15 7 -24 -2 -35 -10 -13 -8 -14 13 -10
20 3 27 0 32 -17 3 -11 0 -28 -7 -36 -10 -12 -9 -14 4 -9 12 5 23 -12 49 -75
37 -91 94 -189 149 -256 20 -25 31 -42 24 -38 -6 4 -14 3 -18 -2 -3 -6 4 -8
17 -6 12 3 29 -2 38 -10 28 -26 88 -45 140 -45 122 0 244 117 349 338 19 39
39 68 44 65 6 -3 7 -1 3 5 -10 16 15 93 27 85 6 -3 7 -1 3 5 -4 6 4 51 18 99
13 48 27 106 31 128 12 72 16 71 41 -5 27 -84 28 -94 14 -85 -6 3 -7 -1 -4 -9
3 -9 10 -14 14 -11 11 7 163 -511 155 -525 -3 -5 -1 -10 3 -12 12 -5 85 -326
78 -344 -3 -8 -2 -13 2 -10 11 7 66 -288 58 -309 -3 -9 -2 -14 3 -11 11 7 25
-109 15 -125 -4 -7 -3 -9 3 -6 13 8 29 -126 17 -144 -4 -7 -3 -10 3 -6 11 7
28 -157 43 -413 12 -203 12 -279 1 -261 -5 8 -8 31 -5 50 3 24 1 31 -5 22 -5
-8 -7 -21 -3 -29 3 -10 1 -13 -6 -8 -7 4 -12 11 -12 16 0 4 -18 40 -40 79 -23
40 -38 77 -34 83 5 7 3 8 -6 3 -10 -6 -12 -4 -7 9 4 9 3 15 -1 12 -5 -3 -24
21 -42 52 -470 787 -879 1158 -1515 1371 -231 77 -439 118 -714 141 -174 15
-185 11 -215 -82 -3 -10 -2 -18 2 -18 10 0 46 -62 47 -80 0 -8 6 -15 13 -15
16 0 33 -26 25 -39 -3 -5 -2 -6 3 -3 11 7 210 -230 206 -245 -1 -5 2 -7 7 -4
13 8 63 -53 55 -66 -4 -6 -3 -8 3 -5 14 9 169 -162 166 -182 -2 -11 -1 -12 3
-3 5 10 16 5 40 -19 18 -18 30 -37 27 -43 -3 -6 -3 -8 2 -4 13 12 47 -12 41
-28 -3 -9 -1 -12 5 -9 13 8 41 -14 33 -26 -3 -5 -1 -8 3 -7 5 2 64 -42 130
-97 100 -83 119 -103 109 -115 -9 -13 -9 -13 5 -3 13 10 23 7 57 -18 23 -17
42 -33 42 -36 0 -3 -8 1 -17 8 -16 11 -16 11 -5 -1 7 -8 20 -15 30 -15 9 0 16
-6 14 -13 -1 -8 2 -11 7 -8 4 3 26 -7 47 -22 22 -15 81 -54 131 -86 51 -32 90
-62 87 -67 -3 -5 3 -6 12 -2 11 4 15 2 11 -4 -4 -6 1 -10 11 -9 9 0 16 -4 15
-11 -2 -7 3 -10 10 -7 17 6 129 -55 122 -67 -4 -5 2 -6 11 -2 12 4 15 3 10 -5
-5 -8 -2 -10 8 -6 9 3 16 1 16 -5 0 -6 4 -10 8 -8 16 4 131 -56 125 -66 -3 -6
-1 -7 5 -3 13 8 193 -74 186 -85 -3 -5 2 -6 10 -3 11 4 16 0 16 -10 0 -9 5
-16 11 -16 5 0 7 5 4 10 -9 15 0 13 69 -22 36 -17 63 -35 60 -40 -3 -4 1 -5 9
-2 17 6 279 -124 272 -135 -2 -4 2 -8 9 -8 23 0 122 -72 175 -128 50 -53 91
-127 105 -190 4 -17 -2 -102 -13 -189 -11 -87 -17 -166 -13 -175 8 -22 55 -81
65 -81 5 0 5 5 2 10 -4 6 8 10 30 10 28 0 38 5 47 25 6 13 14 22 19 20 4 -3 5
3 2 14 -11 41 139 776 243 1191 62 250 91 340 117 368 24 26 311 220 411 278
34 19 83 49 109 65 27 16 53 27 58 23 5 -3 8 -1 7 4 -4 15 119 92 136 86 8 -3
17 -1 21 5 4 7 -1 8 -12 4 -28 -10 -16 0 106 86 63 44 119 78 124 74 6 -3 7
-1 3 5 -3 6 10 23 31 39 21 15 89 71 152 123 62 52 118 94 123 92 5 -1 7 1 4
6 -7 12 188 204 199 195 4 -4 5 -3 2 3 -4 6 17 38 46 70 89 100 152 176 200
243 57 77 60 109 16 153 -29 29 -33 31 -92 25 -134 -13 -550 -136 -604 -179
-7 -6 -20 -8 -28 -4 -9 3 -13 2 -10 -3 3 -5 -3 -12 -14 -16 -10 -3 -55 -28
-100 -55 -44 -27 -81 -46 -81 -43 0 4 -6 0 -12 -8 -25 -30 -88 -70 -100 -63
-6 4 -8 3 -5 -3 9 -14 -19 -37 -34 -27 -7 4 -9 3 -6 -3 7 -11 -172 -180 -186
-175 -5 1 -6 -2 -3 -7 3 -5 -13 -31 -37 -57 -57 -65 -159 -192 -181 -226 -11
-17 -23 -25 -34 -21 -13 4 -14 3 -4 -5 11 -8 9 -17 -13 -51 -16 -23 -29 -40
-31 -38 -2 2 8 34 21 72 14 37 25 71 25 74 0 3 5 -1 10 -9 8 -11 9 -9 5 11 -4
17 5 56 29 115 19 49 66 172 105 274 39 102 76 187 81 188 6 2 8 8 5 13 -9 14
168 438 296 709 l50 106 97 0 c112 -1 170 17 285 85 75 45 217 174 262 239 18
26 32 37 43 33 13 -3 14 -2 4 4 -10 8 -4 24 26 74 192 316 310 798 248 1011
-21 72 -73 132 -127 146 -96 24 -246 -35 -411 -161 -21 -16 -38 -27 -38 -25 0
2 -23 -18 -52 -44 -38 -37 -53 -46 -60 -36 -7 10 -8 9 -6 -3 4 -21 -111 -140
-126 -132 -6 3 -8 3 -4 -1 4 -5 -29 -51 -72 -103 -148 -179 -230 -324 -269
-478 -29 -115 -33 -178 -17 -285 11 -72 12 -97 3 -103 -8 -6 -7 -7 3 -4 17 4
44 -49 33 -66 -3 -5 -1 -7 4 -4 16 10 45 -40 38 -64 -4 -10 -11 -16 -17 -13
-7 4 -8 2 -4 -5 4 -6 -3 -31 -16 -54 -13 -24 -55 -110 -93 -192 -38 -83 -72
-152 -75 -155 -3 -3 -6 -13 -8 -23 -3 -15 -43 -113 -89 -217 -9 -19 -17 -39
-19 -45 -1 -5 -35 -91 -74 -190 -104 -258 -206 -551 -330 -945 -71 -224 -161
-533 -175 -600 -7 -31 -9 -32 -16 -15 -7 15 -8 13 -4 -10 2 -16 -11 -91 -29
-165 -30 -117 -35 -130 -40 -100 -3 19 -6 44 -5 55 1 11 -4 71 -10 133 -6 61
-8 124 -5 139 5 16 3 24 -3 20 -7 -4 -13 21 -17 66 -4 39 -11 99 -16 132 -34
225 -43 278 -56 340 -27 139 -45 221 -60 278 -8 32 -12 68 -9 80 4 15 3 18 -3
9 -6 -9 -13 6 -21 45 -8 32 -24 96 -38 143 -13 46 -25 97 -26 112 -1 15 -5 28
-9 28 -3 0 -10 15 -13 33 -4 17 -36 121 -72 230 -35 108 -61 203 -57 209 4 6
3 8 -2 5 -12 -7 -167 450 -160 469 3 8 2 13 -3 10 -5 -3 -13 12 -19 34 l-10
40 44 -42 c24 -23 41 -45 38 -50 -3 -5 -1 -7 4 -6 6 2 30 -13 54 -32 23 -20
71 -55 105 -79 35 -24 60 -48 56 -54 -3 -5 -2 -7 4 -4 13 8 175 -77 166 -88
-5 -4 -3 -5 4 -1 7 4 58 -9 114 -29 137 -47 248 -66 404 -66 216 0 337 49 398
160 59 110 -48 369 -248 604 -75 88 -188 187 -292 257 -39 26 -69 51 -65 55 4
4 3 5 -3 4 -5 -2 -66 24 -135 58 -69 34 -158 72 -199 84 l-73 24 37 7 c50 11
204 73 285 116 121 63 255 158 346 245 50 48 94 84 98 82 3 -3 4 -2 1 2 -3 4
5 18 18 32 13 14 48 58 77 96 29 39 58 70 63 70 6 0 12 7 14 15 4 13 3 13 -6
0 -24 -34 -8 3 25 59 47 79 94 214 94 271 -1 98 -64 172 -180 212 -58 21 -84
23 -240 23 -192 0 -259 -11 -415 -65 -49 -17 -98 -32 -107 -33 -9 -1 -15 -4
-13 -8 5 -7 -75 -45 -87 -42 -5 2 -8 -1 -8 -6 0 -14 -70 -52 -82 -45 -6 4 -8
3 -5 -3 7 -10 -162 -150 -176 -145 -5 1 -6 -2 -3 -6 3 -5 -4 -18 -16 -28 -11
-11 -39 -41 -61 -69 l-39 -50 5 45 c3 25 9 71 13 102 3 32 10 55 15 52 5 -3 9
2 9 10 0 9 -3 16 -7 16 -5 0 -8 53 -9 118 -2 279 -76 561 -206 789 -27 48 -59
98 -70 110 -12 13 -17 27 -12 35 4 7 4 10 -1 6 -4 -4 -26 8 -48 28 -76 70
-177 93 -256 59z m144 -186 c65 -58 206 -327 191 -366 -3 -8 -2 -12 3 -9 12 8
55 -148 55 -201 1 -22 4 -37 7 -31 12 20 22 -72 24 -247 3 -184 -9 -295 -32
-295 -6 0 -15 -5 -19 -12 -5 -8 -2 -9 9 -5 11 4 17 1 17 -7 0 -26 -12 -46 -24
-39 -8 4 -8 3 0 -6 9 -9 8 -24 -2 -59 -28 -91 -66 -182 -75 -177 -5 4 -6 0 -3
-8 3 -8 -13 -48 -36 -88 -64 -115 -60 -111 -114 -99 -32 7 -60 7 -93 -1 -46
-10 -49 -9 -71 17 -13 14 -21 33 -18 41 3 8 2 12 -3 8 -12 -7 -83 120 -85 150
0 13 -4 21 -8 19 -10 -6 -53 134 -80 258 -18 86 -22 135 -22 298 0 221 17 336
79 526 53 161 141 324 168 307 6 -3 7 -1 3 5 -10 17 34 52 66 52 16 0 41 -12
63 -31z m-1350 -865 c149 -26 375 -110 360 -134 -3 -6 0 -11 7 -11 7 -1 18 -2
23 -3 18 -2 86 -48 81 -54 -8 -7 14 -32 27 -32 6 0 2 7 -9 15 -10 8 -14 14 -9
15 18 0 105 -81 99 -92 -5 -7 -2 -8 5 -3 20 12 132 -104 126 -130 -3 -11 -2
-14 1 -7 8 17 27 15 21 -2 -3 -8 1 -20 9 -26 8 -7 14 -9 14 -5 0 5 9 0 20 -10
21 -19 28 -41 8 -29 -7 4 -8 3 -4 -5 4 -6 11 -9 16 -6 11 7 163 -192 156 -203
-3 -4 0 -14 6 -22 8 -12 9 -11 4 5 -6 19 -6 19 9 1 15 -20 11 -41 -7 -30 -7 4
-8 2 -4 -4 4 -6 13 -9 20 -6 9 4 29 -17 55 -55 l42 -61 -21 -40 c-17 -32 -26
-40 -48 -39 -21 0 -23 2 -9 7 10 4 -29 8 -85 9 -125 1 -405 54 -393 73 3 5 -3
6 -14 3 -21 -5 -212 70 -295 117 -32 18 -53 36 -49 42 3 7 1 8 -5 4 -15 -9
-125 61 -117 74 3 5 0 8 -7 5 -17 -7 -190 143 -182 157 4 6 2 8 -4 4 -13 -8
-54 43 -45 57 3 5 1 7 -5 3 -16 -10 -125 137 -172 231 -41 82 -53 144 -32 165
37 37 252 49 407 22z m2987 -7 c47 -20 55 -50 33 -120 -21 -68 -109 -213 -127
-209 -7 2 -10 0 -6 -3 9 -10 -10 -47 -21 -41 -4 3 -8 -1 -8 -8 0 -19 -56 -86
-71 -86 -7 0 -11 -4 -8 -9 3 -5 -36 -45 -86 -90 -70 -61 -98 -80 -113 -75 -14
4 -16 3 -7 -4 10 -7 -7 -22 -65 -59 -103 -66 -167 -98 -280 -139 -168 -61
-435 -117 -542 -113 -25 0 -59 -2 -76 -6 -28 -6 -32 -3 -53 37 -25 48 -28 63
-10 52 7 -4 8 -3 4 4 -9 16 153 234 167 225 6 -3 7 -1 3 5 -4 7 -2 12 3 12 6
0 11 6 11 13 0 34 303 362 323 350 6 -3 7 -2 4 4 -8 12 119 109 206 157 79 44
221 92 328 110 113 20 340 16 391 -7z m1324 -394 c-3 -8 -1 -11 4 -8 6 3 10 0
11 -7 0 -7 3 -26 5 -43 7 -42 -12 -206 -36 -306 -37 -155 -125 -394 -141 -383
-5 3 -7 -1 -4 -8 7 -19 -74 -160 -87 -152 -7 4 -8 3 -4 -4 9 -15 -34 -73 -47
-65 -6 3 -7 1 -3 -6 8 -13 -62 -98 -77 -93 -5 1 -6 -2 -2 -7 6 -10 -33 -37
-47 -33 -5 1 -7 -3 -5 -10 3 -18 -111 -84 -180 -103 -110 -31 -169 -8 -211 83
-24 51 -27 68 -26 157 2 162 61 307 201 494 72 96 213 242 226 234 6 -3 7 -2
4 4 -9 14 59 77 72 68 6 -3 10 -1 9 5 -4 18 161 143 179 136 8 -3 11 -1 8 4
-3 5 16 20 42 34 53 27 118 32 109 9z m-2924 -582 c72 -80 4 -204 -102 -186
-97 16 -126 135 -48 200 44 38 110 31 150 -14z m-378 -153 c-5 -8 -2 -9 9 -5
10 3 17 2 17 -2 0 -5 -5 -11 -12 -13 -6 -2 -9 -12 -5 -21 8 -23 28 -22 21 1
-4 9 3 2 15 -16 12 -18 18 -38 15 -44 -4 -6 -3 -8 4 -4 6 3 13 2 16 -2 5 -8
-50 -92 -60 -92 -3 0 -2 5 1 10 3 6 1 10 -5 10 -7 0 -9 -7 -6 -16 14 -35 -308
-445 -336 -428 -6 4 -8 2 -5 -3 6 -10 -101 -113 -117 -113 -14 0 -5 19 12 23
9 3 5 4 -10 4 -22 -1 -25 -4 -17 -19 7 -13 2 -22 -26 -43 -19 -15 -39 -24 -46
-19 -7 4 -9 3 -5 -4 8 -14 -119 -86 -135 -76 -7 4 -9 3 -5 -4 6 -10 -38 -30
-149 -65 -135 -44 -311 -63 -427 -47 -145 20 -171 47 -139 142 27 81 89 190
103 182 7 -4 8 -2 4 4 -8 14 33 74 45 66 5 -3 6 1 3 9 -3 8 6 23 20 35 14 11
26 24 26 29 0 13 65 74 73 68 4 -3 5 -2 2 2 -8 10 16 33 28 26 5 -3 7 -2 4 4
-8 13 37 56 47 46 4 -5 6 -3 4 4 -4 16 101 95 115 86 6 -3 7 -1 3 5 -7 11 6
17 27 13 5 -1 6 3 3 8 -7 10 98 74 121 74 7 0 13 4 13 8 0 10 95 53 195 88
182 65 583 128 559 89z m782 -3 c60 -8 141 -22 180 -30 99 -23 254 -76 249
-86 -3 -4 0 -11 6 -15 8 -4 9 -3 5 4 -11 18 1 15 75 -19 39 -18 66 -36 62 -42
-3 -6 -1 -7 5 -4 15 10 43 -3 35 -16 -4 -6 -1 -7 6 -3 26 17 330 -212 315
-236 -4 -6 -3 -8 3 -5 10 6 72 -54 116 -113 19 -27 23 -39 16 -53 -7 -11 -7
-17 1 -17 5 0 10 5 10 11 0 5 5 7 10 4 8 -5 7 -12 -1 -22 -11 -12 -10 -14 6
-11 16 2 29 -16 67 -90 49 -95 60 -151 38 -192 -18 -33 -112 -54 -235 -54
-299 2 -563 115 -808 344 -37 34 -64 67 -60 73 3 5 1 7 -4 4 -17 -11 -216 230
-211 254 2 7 -2 13 -9 14 -16 0 -115 143 -108 155 3 5 0 12 -6 16 -8 4 -9 3
-5 -4 14 -22 -2 -12 -17 11 -14 21 -13 25 5 48 11 13 16 18 12 10 -5 -9 -3
-12 5 -7 6 4 9 11 6 16 -2 4 0 22 6 39 10 29 14 31 62 31 29 0 102 -7 163 -15z
m-386 -215 c12 -17 19 -37 16 -45 -3 -8 -1 -14 5 -12 18 4 87 -141 128 -268
45 -141 57 -200 42 -210 -6 -3 -8 -11 -5 -17 4 -7 9 -6 14 3 15 23 25 -102 25
-296 0 -163 -4 -205 -24 -295 -27 -119 -86 -290 -104 -302 -7 -4 -9 -8 -4 -8
11 0 -46 -109 -89 -167 -22 -30 -45 -51 -52 -48 -7 3 -10 0 -7 -5 3 -6 5 -10
3 -11 -73 -11 -84 -10 -110 18 -38 40 -99 145 -94 160 3 7 1 12 -5 10 -16 -3
-70 134 -64 163 4 19 3 21 -5 10 -5 -8 -10 -12 -10 -8 0 4 -11 47 -25 95 -45
154 -58 277 -52 478 8 251 51 436 143 615 37 73 94 160 94 145 0 -5 5 -3 10 5
9 13 10 13 10 0 0 -13 2 -13 9 -1 8 12 12 12 25 2 9 -8 16 -9 16 -4 0 5 14 10
32 11 18 2 34 5 37 7 10 10 21 4 41 -25z m2800 -1245 c-7 -8 -19 -15 -26 -15
-8 0 -13 -6 -11 -12 1 -7 -4 -12 -11 -10 -8 1 -10 -2 -7 -8 9 -14 -225 -251
-238 -243 -6 3 -7 2 -4 -4 10 -15 -152 -159 -166 -148 -4 3 -5 2 -2 -2 6 -8
-24 -43 -37 -43 -5 0 -6 5 -2 12 4 7 3 8 -5 4 -6 -4 -9 -11 -6 -16 7 -12 -36
-41 -48 -33 -6 3 -7 1 -4 -4 9 -14 -29 -47 -44 -37 -7 4 -10 3 -5 -4 8 -13
-194 -164 -212 -157 -7 3 -11 1 -8 -4 4 -5 -37 -37 -90 -71 -76 -48 -99 -59
-106 -48 -8 10 -9 9 -5 -3 4 -12 -9 -26 -45 -48 -27 -17 -54 -28 -60 -25 -7 4
-8 2 -4 -4 8 -13 -30 -36 -44 -27 -6 4 -10 3 -9 -2 3 -20 -2 -27 -11 -13 -9
13 -10 13 -10 -1 0 -8 -19 -28 -42 -43 -27 -18 -37 -21 -27 -10 9 11 52 71 94
134 105 155 125 181 138 173 6 -3 7 -1 3 5 -9 15 64 103 77 95 6 -3 7 -1 4 4
-8 13 140 179 155 175 5 -1 7 2 4 7 -6 10 72 77 86 73 4 -1 7 2 6 7 -6 21 205
167 224 155 7 -4 8 -3 4 4 -16 26 390 193 430 178 8 -3 12 -2 9 3 -5 9 15 16
54 20 11 1 11 -2 1 -14z m-4155 -570 c133 -19 365 -76 358 -89 -4 -5 -1 -6 7
-1 16 10 120 -26 120 -42 0 -7 8 -13 18 -13 15 0 15 2 2 11 -26 18 27 0 143
-48 59 -25 105 -49 102 -53 -3 -5 0 -12 6 -16 8 -4 9 -3 5 4 -11 18 0 15 72
-24 133 -73 387 -264 387 -292 0 -7 4 -12 8 -11 15 2 67 -54 60 -64 -3 -6 -1
-7 4 -4 13 8 131 -116 224 -237 52 -67 66 -92 57 -98 -9 -6 -8 -8 6 -6 10 2
25 -7 35 -22 9 -13 12 -21 6 -18 -6 3 -11 -6 -11 -20 -1 -15 1 -21 3 -14 10
26 31 9 82 -64 39 -55 50 -78 41 -84 -9 -5 -9 -9 -1 -14 6 -4 11 -1 11 6 1 8
6 5 16 -7 8 -11 12 -25 9 -33 -2 -7 -1 -11 4 -7 8 4 131 -185 131 -200 0 -3
-29 9 -64 27 -36 17 -62 36 -59 41 3 4 -1 7 -8 5 -22 -4 -101 31 -94 42 3 5
-1 7 -9 4 -19 -7 -58 14 -50 27 3 6 -6 9 -23 7 -19 -2 -27 1 -25 10 1 8 -2 11
-9 7 -13 -9 -261 104 -254 116 3 4 0 11 -6 15 -8 4 -9 3 -5 -4 4 -7 4 -12 1
-12 -15 0 -185 93 -185 101 0 5 -4 8 -8 7 -14 -5 -112 53 -107 63 3 5 -2 6
-11 2 -13 -5 -15 -3 -9 7 5 9 4 11 -4 6 -16 -10 -244 142 -235 156 4 7 2 8 -4
4 -15 -9 -73 34 -65 48 3 6 2 8 -2 3 -11 -9 -42 11 -138 90 -42 36 -75 68 -72
73 3 4 -3 7 -13 6 -9 0 -16 5 -15 11 2 7 -1 12 -7 10 -15 -4 -231 204 -224
215 4 6 3 8 -3 5 -11 -7 -48 31 -203 204 -101 112 -132 148 -144 167 -10 16
22 15 149 -3z"/>
</g>
</svg>
