<?xml version="1.0" standalone="no"?>
<!DOCTYPE svg PUBLIC "-//W3C//DTD SVG 20010904//EN"
 "http://www.w3.org/TR/2001/REC-SVG-20010904/DTD/svg10.dtd">
<svg version="1.0" xmlns="http://www.w3.org/2000/svg"
 width="1024.000000pt" height="1024.000000pt" viewBox="0 0 1024.000000 1024.000000"
 preserveAspectRatio="xMidYMid meet">
<metadata>
Created by potrace 1.16, written by Peter Selinger 2001-2019
</metadata>
<g transform="translate(0.000000,1024.000000) scale(0.100000,-0.100000)"
fill="#000000" stroke="none">
<path d="M5043 8740 c-23 -5 -51 -14 -63 -20 -11 -6 -26 -8 -32 -4 -6 4 -8 3
-4 -4 3 -5 -9 -20 -28 -32 -78 -47 -177 -215 -231 -389 -22 -70 -31 -88 -37
-74 -6 14 -7 12 -4 -7 7 -38 -58 -316 -73 -312 -7 1 -10 -2 -7 -7 6 -10 -63
-58 -76 -53 -5 1 -7 -1 -6 -6 3 -9 -67 -113 -73 -107 -3 2 -5 -4 -5 -13 -1 -9
-13 -57 -28 -106 -14 -49 -29 -114 -33 -144 -4 -35 -9 -49 -13 -38 -3 10 -6
-107 -5 -258 0 -152 4 -276 8 -276 4 0 3 -9 -3 -19 -11 -22 -14 -121 -2 -121
4 0 6 26 5 57 -1 40 3 23 13 -51 8 -59 13 -110 11 -112 -2 -2 -22 -5 -44 -7
-23 -1 -39 -5 -37 -8 2 -3 -9 -15 -24 -26 -126 -93 -195 -546 -172 -1113 5
-112 8 -207 8 -210 -1 -3 1 -12 5 -20 3 -8 8 -39 11 -67 4 -40 2 -53 -8 -53
-23 0 -67 -49 -92 -104 -28 -61 -53 -222 -55 -351 -1 -49 -4 -70 -8 -55 -9 33
-18 14 -16 -35 3 -63 7 -73 15 -35 6 29 8 22 9 -35 2 -120 21 -345 38 -460 9
-60 16 -132 15 -160 -1 -37 1 -45 8 -30 l9 20 0 -20 c1 -11 4 -31 6 -45 5 -22
4 -23 -4 -5 -8 17 -10 15 -8 -13 1 -19 6 -36 11 -39 5 -3 6 -1 2 5 -3 6 -2 13
3 16 5 3 12 -11 16 -31 15 -81 79 -255 138 -373 34 -69 60 -129 59 -133 -1 -5
2 -6 8 -2 5 3 10 2 10 -3 0 -5 23 -39 50 -76 29 -37 48 -71 44 -78 -4 -6 -3
-8 3 -5 5 3 42 -28 82 -69 91 -94 191 -169 301 -228 47 -25 78 -46 70 -46 -8
-1 0 -7 19 -15 42 -19 54 -19 21 0 -33 19 -24 19 33 -1 46 -16 47 -17 47 -58
0 -128 -60 -611 -95 -764 l-17 -72 -175 0 c-171 0 -174 0 -198 -25 -16 -15
-25 -36 -25 -55 0 -22 -4 -29 -12 -24 -7 3 -1 -5 14 -18 15 -14 25 -28 22 -31
-4 -3 126 -6 287 -7 162 0 409 -1 549 -2 460 -2 505 0 530 20 31 25 32 85 2
115 -21 20 -34 22 -184 27 l-162 5 -18 60 c-10 33 -15 68 -12 79 4 11 2 16 -4
12 -5 -3 -12 4 -15 17 -52 237 -99 544 -96 632 l2 40 7 -35 7 -35 2 36 1 37
78 18 c42 10 83 18 90 17 7 0 11 1 8 4 -3 3 20 19 52 36 85 45 136 82 198 145
31 31 60 56 65 55 5 -2 8 0 7 5 -5 13 43 82 53 76 5 -3 8 -2 7 3 -1 4 28 69
65 143 126 255 218 610 234 907 5 110 4 128 -17 194 -18 56 -34 84 -67 116
-23 24 -50 43 -59 43 -11 0 -14 5 -9 18 40 95 96 335 114 487 37 321 9 703
-66 880 -13 33 -25 65 -25 72 -1 7 -5 10 -9 8 -3 -3 -13 2 -20 11 -16 20 -75
44 -106 44 -22 0 -24 3 -19 28 51 247 56 722 10 950 -8 40 -12 77 -9 82 3 6 2
10 -3 10 -6 0 -13 12 -17 27 -22 89 -104 212 -177 265 -14 10 -21 44 -33 157
-9 79 -14 150 -11 157 3 8 2 14 -2 14 -4 0 -15 53 -25 118 -27 171 -73 377
-112 499 -19 59 -31 112 -28 117 3 6 3 8 -2 4 -4 -4 -23 25 -42 65 -41 86 -91
157 -140 200 -20 18 -41 37 -47 42 -7 6 -18 12 -26 14 -8 2 -37 10 -65 17 -54
15 -79 16 -142 4z m82 -170 c-4 -7 2 -9 17 -5 30 8 93 -33 93 -60 1 -11 6 -19
13 -18 6 2 25 -21 42 -50 43 -75 124 -303 91 -257 -9 13 -11 13 -11 -2 0 -10
6 -18 14 -18 28 0 96 -340 127 -630 29 -267 30 -273 82 -311 23 -17 41 -35 39
-41 -1 -5 2 -7 7 -3 15 9 84 -100 85 -134 1 -16 4 -27 7 -25 10 6 42 -133 36
-156 -3 -10 -1 -20 4 -22 5 -2 12 -62 15 -134 7 -129 1 -201 -15 -176 -4 7 -7
-12 -7 -42 1 -30 5 -58 9 -63 5 -4 7 9 6 29 -2 20 0 40 4 44 21 22 -6 -358
-39 -536 -17 -94 -20 -137 -9 -170 5 -17 4 -20 -5 -15 -9 5 -11 4 -6 -4 4 -6
11 -9 15 -6 5 2 16 -4 26 -15 21 -23 88 -28 105 -7 5 6 19 23 29 37 24 30 43
18 45 -28 1 -17 4 -28 8 -26 7 4 19 -49 39 -161 19 -114 22 -438 5 -585 -19
-156 -62 -334 -112 -464 -20 -50 -37 -112 -38 -138 -1 -26 0 -46 3 -43 2 3 14
-4 25 -14 14 -13 39 -21 70 -23 44 -3 51 -6 67 -38 65 -120 -37 -660 -181
-967 -27 -57 -51 -103 -55 -103 -3 0 -3 5 1 12 4 7 3 8 -5 4 -7 -4 -10 -13 -8
-19 6 -16 -51 -97 -66 -94 -7 1 -11 -4 -9 -12 4 -17 -28 -52 -40 -45 -4 3 -7
0 -6 -6 5 -19 -131 -118 -192 -141 -139 -53 -311 -62 -440 -23 -95 28 -200 75
-193 86 3 7 1 8 -5 4 -23 -14 -228 136 -215 156 3 6 2 8 -4 5 -18 -11 -138
127 -126 146 3 5 1 7 -5 3 -24 -14 -148 210 -207 374 -68 192 -118 480 -135
786 -14 249 3 487 38 541 4 6 28 21 54 32 73 31 82 57 64 184 -28 189 -37 311
-37 508 1 300 33 583 82 714 22 59 30 63 84 44 26 -10 38 -9 67 5 56 27 69 64
57 161 -6 44 -8 90 -6 102 2 12 1 20 -4 18 -13 -9 -24 185 -23 420 1 229 13
345 45 420 6 17 13 36 15 43 9 47 130 162 154 147 6 -4 9 -3 8 2 -1 4 5 22 14
38 8 17 19 53 22 80 17 120 103 428 117 419 5 -3 6 1 3 9 -8 22 53 139 100
191 22 25 55 53 71 61 35 17 90 20 80 5z m38 -5995 c4 -55 6 -110 4 -122 -3
-13 -1 -23 3 -23 4 0 11 -28 14 -62 13 -109 45 -282 76 -405 16 -65 30 -119
30 -120 0 -2 -68 -3 -151 -3 -139 0 -150 1 -145 18 24 77 81 491 91 657 10
159 11 167 43 163 27 -3 27 -4 35 -103z"/>
</g>
</svg>
