<?xml version="1.0" standalone="no"?>
<!DOCTYPE svg PUBLIC "-//W3C//DTD SVG 20010904//EN"
 "http://www.w3.org/TR/2001/REC-SVG-20010904/DTD/svg10.dtd">
<svg version="1.0" xmlns="http://www.w3.org/2000/svg"
 width="1024.000000pt" height="1024.000000pt" viewBox="0 0 1024.000000 1024.000000"
 preserveAspectRatio="xMidYMid meet">
<metadata>
Created by potrace 1.16, written by Peter Selinger 2001-2019
</metadata>
<g transform="translate(0.000000,1024.000000) scale(0.100000,-0.100000)"
fill="#000000" stroke="none">
<path d="M2786 8035 c-32 -34 -32 -33 -2 -136 13 -46 22 -87 20 -91 -3 -5 -1
-8 4 -8 5 0 20 -26 33 -57 13 -32 32 -73 42 -91 16 -28 17 -35 6 -50 -13 -15
-12 -16 3 -4 14 11 18 10 28 -8 6 -11 8 -25 5 -30 -4 -6 -2 -9 3 -8 12 4 93
-98 84 -107 -4 -4 -2 -5 3 -3 12 3 161 -139 158 -151 -1 -5 5 -8 15 -7 9 0 16
-5 14 -12 -1 -6 4 -11 10 -10 7 2 12 -3 10 -10 -1 -8 2 -11 7 -8 12 8 182
-109 173 -119 -4 -5 -1 -5 6 -1 16 9 44 -12 35 -27 -3 -5 -1 -7 4 -4 15 9 95
-51 87 -65 -4 -6 -3 -8 4 -5 15 10 97 -86 148 -173 55 -94 107 -217 100 -236
-4 -10 -2 -12 6 -8 8 5 9 2 5 -9 -3 -10 -2 -17 3 -17 5 0 21 -38 35 -85 22
-70 24 -87 13 -98 -18 -17 -197 -79 -228 -79 -14 0 -19 -2 -12 -5 9 -3 -5 -16
-35 -33 l-48 -28 -7 42 c-3 22 -7 67 -7 99 -1 48 -5 62 -26 82 -29 30 -64 32
-96 6 -25 -20 -28 -51 -19 -252 2 -36 0 -71 -3 -76 -4 -6 -3 -13 2 -15 11 -4
44 -332 36 -361 -4 -15 -3 -18 3 -9 6 9 13 -12 22 -65 7 -43 18 -106 26 -140
7 -34 11 -70 7 -80 -3 -10 -2 -15 2 -10 5 4 25 -39 45 -97 43 -121 92 -213
149 -277 22 -26 37 -50 33 -53 -4 -4 -2 -6 4 -4 14 4 141 -70 147 -87 6 -14
-61 -87 -73 -80 -4 3 -10 -1 -13 -9 -7 -18 -106 -39 -143 -31 -72 16 -97 27
-83 37 10 7 8 8 -7 4 -24 -7 -108 59 -98 76 4 6 3 8 -3 5 -22 -14 -125 150
-179 284 -79 195 -128 373 -195 707 -7 37 -15 52 -24 49 -7 -3 -17 -1 -23 5
-6 6 -23 7 -44 2 -18 -4 -35 -7 -38 -7 -7 2 -13 -39 -13 -79 0 -17 -4 -25 -11
-21 -6 4 -4 -2 5 -13 9 -10 20 -41 23 -69 5 -36 4 -46 -3 -35 -7 9 -11 10 -11
3 0 -7 6 -16 13 -20 17 -10 61 -194 60 -248 0 -29 2 -35 8 -20 6 16 8 16 8 3
1 -9 4 -24 8 -34 4 -12 3 -15 -5 -10 -7 4 -12 2 -12 -3 0 -6 6 -11 13 -11 16
0 59 -132 51 -157 -4 -14 -4 -15 4 -4 8 11 11 10 16 -6 4 -11 4 -29 0 -39 -4
-12 -3 -15 3 -7 6 9 17 -7 35 -50 15 -34 28 -69 30 -77 2 -8 5 -17 8 -20 11
-10 80 -132 80 -140 0 -15 -92 -38 -134 -33 -47 5 -79 20 -71 33 3 6 0 7 -8 4
-19 -7 -87 71 -138 157 -87 146 -189 440 -244 702 -27 128 -43 156 -91 157
-34 0 -74 -37 -74 -70 0 -35 60 -299 89 -390 24 -74 26 -94 9 -84 -7 5 -8 3
-4 -5 5 -7 11 -10 14 -6 3 3 20 -35 38 -84 17 -49 54 -137 82 -195 28 -59 48
-105 44 -102 -4 2 -8 -4 -8 -15 0 -10 4 -19 8 -19 4 0 8 6 8 13 0 8 4 7 10 -3
13 -21 -35 -30 -97 -19 -55 11 -110 46 -163 106 -42 48 -113 177 -103 187 3 3
2 6 -4 6 -13 0 -86 217 -78 230 4 6 2 10 -3 10 -11 0 -79 309 -84 387 -1 7 -4
11 -7 10 -3 -1 -15 4 -26 10 -25 14 -69 6 -89 -16 -14 -16 -29 -104 -16 -96 4
2 12 -33 19 -78 16 -108 65 -300 102 -407 17 -47 31 -95 32 -107 1 -11 5 -19
8 -17 6 3 39 -60 39 -76 0 -4 -20 -8 -45 -8 -102 0 -208 122 -294 341 -17 43
-33 90 -34 105 -2 15 -8 36 -14 47 -6 11 -19 65 -29 120 -15 79 -19 147 -19
320 0 239 11 360 55 645 53 340 50 432 -18 564 -20 39 -36 77 -36 83 1 7 -1
11 -5 9 -4 -3 -28 30 -54 72 -26 42 -83 131 -127 197 -43 66 -77 126 -75 133
3 7 1 11 -4 8 -5 -3 -28 26 -51 65 -25 42 -51 74 -66 79 -35 14 -74 -4 -87
-40 -6 -17 -15 -30 -19 -30 -7 0 55 -115 76 -140 8 -8 11 -21 8 -29 -3 -9 0
-11 8 -6 10 6 12 3 6 -11 -4 -10 -4 -15 0 -11 8 8 34 -11 34 -25 0 -6 -8 -4
-17 3 -16 13 -17 12 -4 -3 7 -10 17 -15 22 -13 11 7 28 -27 21 -44 -2 -8 0
-11 5 -8 14 9 106 -130 97 -145 -5 -7 -2 -8 6 -3 10 6 12 4 7 -9 -4 -10 -3
-15 3 -11 12 7 132 -196 125 -213 -2 -7 -1 -11 4 -7 12 7 31 -81 31 -140 0
-24 -4 -46 -9 -49 -5 -3 -7 -14 -4 -24 2 -11 0 -50 -6 -88 -66 -459 -73 -522
-76 -744 -4 -282 14 -424 80 -629 19 -58 31 -109 28 -115 -3 -6 -3 -8 2 -4 10
10 87 -141 78 -155 -3 -5 -1 -7 5 -3 6 3 20 -11 33 -31 28 -48 114 -138 157
-164 17 -12 30 -24 27 -29 -3 -4 3 -14 13 -21 15 -13 16 -12 3 4 -17 21 -13
21 55 1 53 -15 67 -14 187 12 19 5 27 2 27 -7 1 -8 21 -30 45 -48 24 -19 42
-38 39 -42 -2 -4 2 -6 9 -6 6 1 39 -12 72 -28 53 -26 71 -30 150 -30 68 1 98
5 125 19 22 12 35 15 38 8 6 -18 113 -78 165 -92 63 -17 143 -8 212 24 31 14
63 22 72 19 12 -5 14 -3 8 8 -5 8 1 6 13 -5 12 -10 19 -23 15 -29 -3 -5 -2 -7
4 -4 5 3 29 -7 53 -23 71 -47 169 -73 249 -68 88 7 181 49 237 109 23 24 54
58 70 74 15 17 27 31 26 33 -1 1 -2 7 -2 13 0 15 100 1 118 -17 16 -17 26 -18
16 -3 -4 8 24 10 99 7 58 -1 100 0 94 4 -7 4 2 8 19 8 57 0 207 50 303 100 51
28 98 47 104 43 6 -3 7 -1 3 5 -3 6 2 15 11 21 14 7 25 4 48 -13 113 -87 282
-129 428 -107 38 5 75 7 83 4 14 -5 48 -59 42 -66 -2 -1 16 -20 39 -40 27 -25
47 -55 58 -86 9 -27 31 -73 49 -104 25 -41 31 -58 22 -67 -8 -8 -6 -9 8 -4 14
5 17 4 12 -5 -5 -7 -2 -10 6 -9 7 2 12 -4 10 -12 -2 -8 -1 -12 3 -8 4 3 30
-11 58 -33 29 -21 79 -51 112 -65 54 -24 63 -32 87 -80 14 -30 22 -52 17 -48
-5 3 -9 0 -9 -5 0 -6 6 -11 13 -11 18 0 79 -65 70 -74 -5 -4 -3 -6 2 -5 15 5
86 -47 77 -56 -4 -5 -2 -5 5 -2 6 4 32 -2 57 -12 25 -11 62 -23 83 -27 29 -5
53 -22 98 -68 32 -34 58 -65 57 -69 -1 -5 1 -6 6 -3 5 3 29 -5 53 -18 24 -13
63 -29 87 -36 23 -7 42 -16 42 -19 0 -4 46 -6 103 -4 91 1 108 -1 159 -24 41
-19 55 -30 51 -42 -3 -12 -2 -13 4 -3 7 9 26 8 89 -9 61 -16 96 -19 154 -15
143 11 295 65 402 141 27 20 53 33 59 30 5 -4 8 -3 7 2 -2 4 32 42 76 83 136
129 262 300 446 605 259 427 480 727 770 1044 90 98 97 111 81 150 -16 36 -57
56 -92 43 -14 -6 -67 -58 -118 -116 -52 -60 -97 -103 -103 -100 -6 4 -8 3 -5
-3 3 -5 -11 -29 -31 -54 -20 -24 -45 -53 -54 -64 -9 -11 -29 -35 -43 -53 -15
-17 -31 -29 -37 -26 -5 3 -8 0 -6 -7 3 -16 -51 -91 -61 -84 -4 2 -8 -1 -8 -8
0 -22 -35 -67 -47 -60 -6 3 -8 3 -4 -2 10 -11 -53 -96 -65 -88 -6 3 -7 1 -3
-5 6 -10 -109 -192 -121 -192 -2 0 -1 5 3 12 4 7 3 8 -5 4 -6 -4 -9 -11 -6
-16 3 -5 -29 -64 -70 -132 -42 -68 -80 -130 -85 -138 -124 -203 -154 -249
-163 -243 -5 3 -7 1 -4 -4 12 -20 -167 -258 -185 -247 -7 4 -8 2 -4 -4 9 -15
-54 -84 -71 -78 -8 3 -12 2 -9 -2 7 -11 -2 -22 -64 -73 -76 -63 -106 -80 -127
-73 -14 4 -15 4 -4 -4 10 -7 0 -16 -40 -35 -94 -44 -156 -57 -258 -56 -53 1
-85 4 -72 6 13 3 29 9 35 15 6 5 47 29 91 52 52 28 86 54 98 74 17 29 17 33 2
61 -8 17 -20 31 -26 31 -6 0 -7 5 -3 12 5 7 3 8 -7 2 -8 -4 -21 -9 -29 -11 -8
-1 -63 -27 -121 -56 -136 -69 -225 -92 -349 -91 -99 1 -198 28 -193 52 2 6 -4
9 -12 6 -9 -4 -15 0 -15 9 0 16 55 31 74 20 6 -3 8 -3 4 2 -4 4 29 23 73 41
86 35 154 72 207 111 42 32 45 81 6 112 -35 28 -48 27 -111 -9 -30 -17 -59
-28 -65 -24 -6 4 -8 3 -5 -3 8 -13 -97 -61 -187 -85 -71 -18 -167 -23 -227
-11 -29 5 -30 7 -14 15 15 6 13 7 -8 3 -15 -3 -41 2 -60 11 -43 22 -98 75 -90
87 3 6 1 7 -5 3 -6 -3 -13 -3 -16 2 -3 5 31 14 76 21 99 15 191 47 289 101 94
52 129 85 129 122 0 28 -30 68 -51 68 -5 0 -7 5 -4 10 3 6 -15 -2 -42 -16
-129 -71 -179 -93 -198 -88 -14 4 -16 3 -7 -4 17 -12 -110 -50 -195 -58 -86
-9 -233 31 -216 59 4 6 0 8 -9 5 -18 -7 -94 67 -125 123 l-20 35 81 4 c45 2
93 4 109 4 15 1 27 4 27 7 0 4 16 10 35 13 98 19 314 155 419 264 22 23 43 39
48 36 5 -3 7 -1 6 3 -4 14 59 83 69 75 4 -4 5 -3 1 2 -4 5 -1 18 7 30 34 48 4
109 -55 109 -32 0 -89 -44 -133 -106 -15 -20 -34 -37 -44 -37 -9 0 -13 -3 -10
-6 17 -17 -166 -154 -265 -198 -60 -27 -198 -58 -198 -45 0 5 -15 8 -32 8
l-33 -1 30 -8 c30 -8 30 -8 -8 -9 -23 -1 -36 3 -32 9 3 6 0 10 -9 10 -8 0 -16
-5 -18 -11 -7 -22 -89 12 -109 45 -25 41 -24 43 14 62 58 30 140 86 233 160
51 40 95 70 99 66 4 -4 5 -2 3 4 -4 14 177 185 187 176 5 -4 5 -2 2 4 -8 14
17 37 27 26 4 -4 6 -2 4 5 -7 28 225 216 235 191 4 -9 6 -7 6 3 1 18 135 84
151 74 5 -3 10 -2 10 3 0 18 130 42 311 57 101 8 221 21 265 29 133 24 287 82
367 138 15 11 27 17 27 14 0 -19 163 175 203 242 60 99 139 289 132 313 -10
32 -56 61 -85 54 -26 -7 -82 -60 -72 -69 10 -11 -118 -253 -165 -310 -26 -33
-73 -80 -104 -104 l-57 -44 -48 35 c-27 19 -75 49 -107 67 -32 18 -54 36 -50
42 3 6 1 8 -5 4 -16 -9 -102 35 -102 53 0 12 -2 13 -8 4 -6 -9 -26 -5 -82 18
-41 17 -118 41 -170 53 -52 13 -86 25 -76 27 11 2 -60 5 -156 7 -200 3 -310
-11 -446 -58 -46 -16 -89 -28 -95 -26 -7 1 -8 1 -4 -2 5 -2 -13 -17 -39 -32
l-49 -27 -52 25 c-37 18 -49 29 -40 35 8 6 7 7 -5 4 -9 -3 -40 3 -70 15 -117
44 -200 59 -359 65 -179 6 -270 -7 -404 -60 -44 -18 -86 -31 -93 -30 -7 0 -11
-2 -8 -5 3 -3 -6 -13 -22 -22 -26 -16 -29 -16 -87 16 -142 78 -332 124 -540
131 l-150 6 -48 146 c-49 146 -123 307 -180 390 -17 25 -30 50 -30 57 0 7 -3
12 -6 11 -9 -3 -156 147 -153 156 1 5 -2 6 -7 3 -5 -3 -25 7 -45 23 -20 16
-59 44 -86 61 -30 19 -47 37 -43 44 3 6 3 8 -2 4 -11 -11 -47 11 -39 24 4 7 2
8 -5 4 -23 -14 -217 155 -205 177 4 7 3 9 -1 4 -12 -10 -55 32 -49 48 3 7 0
16 -7 21 -8 5 -10 3 -5 -7 4 -8 -4 0 -18 16 -14 17 -24 36 -21 43 3 7 1 10 -5
7 -12 -8 -43 52 -34 67 4 6 3 8 -3 5 -16 -10 -76 128 -68 155 4 14 3 18 -2 11
-6 -9 -16 9 -31 55 -29 87 -32 92 -75 99 -30 5 -40 1 -61 -22z m1569 -1781
c97 -18 156 -35 151 -43 -2 -3 8 -7 22 -7 15 -1 44 -9 65 -18 l39 -16 -139
-137 c-76 -76 -142 -137 -146 -135 -5 1 -6 -1 -3 -6 3 -4 -17 -33 -44 -63 -27
-30 -82 -93 -122 -141 -40 -48 -79 -87 -86 -87 -6 -1 -11 -5 -10 -10 2 -5 -27
-44 -65 -85 -48 -54 -72 -74 -85 -70 -13 5 -14 4 -3 -4 10 -7 4 -17 -29 -43
-24 -19 -47 -33 -52 -31 -5 1 -7 -2 -4 -7 6 -9 -39 -47 -81 -69 -40 -22 -50
-11 -100 113 -31 77 -75 253 -67 266 3 5 1 15 -4 22 -13 15 -41 200 -49 321
l-5 91 55 33 c109 66 292 123 452 141 88 10 206 4 310 -15z m1108 -20 c84 -15
237 -63 237 -74 0 -10 -91 -82 -108 -85 -9 -2 -19 -4 -22 -5 -3 -1 -9 -2 -13
-1 -5 1 -6 -3 -2 -9 5 -8 12 -8 23 1 10 6 -7 -12 -37 -39 -30 -28 -59 -50 -65
-49 -6 1 -10 -3 -9 -9 2 -12 -134 -150 -144 -146 -4 1 -8 -4 -9 -12 -1 -8 -37
-52 -81 -97 -111 -118 -124 -129 -136 -122 -6 4 -7 1 -2 -7 9 -15 -192 -213
-208 -203 -5 3 -7 1 -3 -5 9 -14 -140 -135 -156 -126 -6 4 -8 3 -4 -4 8 -14
-50 -55 -65 -46 -8 4 -9 3 -5 -4 10 -17 -129 -85 -157 -77 -16 5 -18 4 -8 -3
10 -7 4 -13 -23 -22 -20 -6 -44 -9 -52 -6 -8 3 -13 2 -10 -3 7 -10 -115 -31
-180 -31 -71 0 -224 21 -219 31 3 4 0 11 -6 15 -8 4 -9 3 -5 -4 9 -15 3 -15
-45 -1 -21 7 -36 16 -32 22 3 5 -2 7 -13 3 -11 -3 -31 2 -46 12 l-27 18 61 44
c77 56 253 229 343 337 37 45 72 80 78 76 6 -3 7 -1 4 5 -7 10 106 142 243
286 105 110 286 257 255 206 -10 -16 1 -11 16 7 12 15 12 16 -1 8 -12 -7 -13
-6 -3 6 22 27 187 99 259 113 95 18 279 18 377 0z m1155 -4 c44 -9 59 -16 50
-22 -9 -6 -6 -7 10 -3 30 9 135 -22 126 -37 -5 -8 -1 -9 10 -5 22 9 118 -32
109 -46 -3 -5 -1 -7 5 -4 16 11 41 -3 35 -19 -3 -8 -1 -14 5 -14 6 0 12 5 14
10 2 6 31 -6 66 -27 40 -24 58 -39 50 -44 -25 -14 -167 -30 -205 -24 -28 5
-34 4 -23 -4 11 -8 3 -11 -35 -11 -275 -3 -517 -75 -699 -209 -38 -27 -74 -47
-79 -44 -6 3 -7 2 -4 -4 4 -6 -5 -21 -18 -33 -14 -13 -25 -21 -25 -18 0 3 -37
-32 -82 -78 -45 -45 -86 -80 -92 -77 -6 3 -8 2 -3 -2 9 -11 -53 -76 -65 -69
-5 3 -7 1 -6 -4 6 -20 -225 -208 -242 -197 -6 4 -9 1 -8 -6 5 -21 -200 -120
-255 -124 -27 -2 -51 -6 -54 -9 -4 -3 -29 -6 -57 -6 -38 0 -47 3 -36 10 11 8
8 9 -13 4 -47 -11 -215 55 -191 75 5 4 34 28 65 54 31 25 60 43 64 39 3 -4 5
-2 4 3 -4 14 206 217 215 208 4 -5 6 -3 4 3 -5 18 82 115 95 107 7 -3 9 -2 4
2 -9 11 43 66 55 59 5 -3 7 0 6 8 -2 7 3 12 10 10 8 -1 11 1 8 6 -7 12 68 84
79 75 4 -5 5 -3 2 3 -9 16 59 88 75 78 7 -4 10 -3 5 1 -9 11 63 86 75 79 5 -3
7 -1 6 5 -4 14 153 144 224 186 115 68 242 112 373 128 61 8 282 -1 343 -13z"/>
<path d="M4240 4472 c-75 -80 -220 -417 -220 -513 0 -15 -4 -30 -8 -33 -5 -3
-5 -33 0 -67 4 -33 5 -66 1 -72 -3 -7 -3 -9 2 -5 8 8 47 -65 48 -89 0 -7 3
-11 7 -10 8 3 70 -50 64 -55 -2 -3 2 -5 9 -6 6 0 32 -8 57 -17 69 -26 168 -21
239 11 33 14 69 37 82 50 12 13 26 21 31 18 5 -3 7 -2 6 3 -1 4 10 33 25 64
49 99 37 248 -33 418 -16 40 -27 78 -23 85 3 6 3 8 -2 4 -5 -5 -35 37 -67 92
-76 128 -106 160 -149 160 -24 0 -41 -9 -69 -38z m122 -291 c-3 -9 -1 -12 6
-8 15 10 70 -137 82 -222 18 -128 -27 -191 -137 -191 -69 0 -110 22 -129 67
-32 75 15 276 98 421 l31 55 27 -54 c15 -29 25 -60 22 -68z"/>
<path d="M5103 3913 c-24 -5 -117 -140 -176 -258 -53 -107 -105 -298 -107
-393 0 -7 -4 -10 -10 -7 -5 3 -10 -1 -10 -9 0 -9 5 -15 12 -14 12 3 31 -78 23
-100 -3 -7 0 -10 5 -7 6 3 10 2 10 -3 0 -24 77 -104 121 -125 26 -14 46 -26
44 -28 -2 -2 32 -5 76 -7 91 -4 156 13 217 58 22 16 43 26 47 22 4 -4 5 -2 3
3 -4 14 42 86 52 80 4 -3 6 5 2 17 -3 13 -1 19 5 15 6 -4 8 3 5 18 -2 14 0 25
4 25 16 0 -3 192 -26 276 -42 155 -188 414 -243 434 -17 5 -30 9 -31 9 -1 -1
-11 -4 -23 -6z m34 -233 c-3 -11 -1 -18 4 -15 4 3 16 -9 25 -27 13 -26 14 -31
3 -23 -8 6 -8 3 2 -5 26 -25 40 -57 32 -76 -4 -11 -3 -15 5 -10 18 11 53 -119
59 -220 l6 -90 -33 -37 c-74 -84 -209 -68 -246 29 -31 81 1 234 81 394 37 75
53 100 62 100 3 0 3 -9 0 -20z"/>
<path d="M4362 2994 c-60 -25 -190 -265 -214 -394 -6 -33 -14 -60 -17 -60 -4
0 -4 -35 -1 -78 13 -166 101 -253 261 -256 54 -1 75 4 124 29 180 92 187 310
19 607 -57 101 -97 154 -122 160 -11 3 -33 0 -50 -8z m79 -290 c88 -190 85
-318 -8 -343 -45 -13 -113 2 -113 24 0 8 -5 14 -12 12 -25 -5 -32 68 -15 153
15 80 82 240 99 240 5 0 27 -39 49 -86z"/>
</g>
</svg>
