<?xml version="1.0" standalone="no"?>
<!DOCTYPE svg PUBLIC "-//W3C//DTD SVG 20010904//EN" "http://www.w3.org/TR/2001/REC-SVG-20010904/DTD/svg10.dtd">
<svg xmlns="http://www.w3.org/2000/svg" version="1.0" width="1024.000000pt" height="1024.000000pt" viewBox="0 0 1024.000000 1024.000000" preserveAspectRatio="xMidYMid meet">
<metadata>
Created by potrace 1.16, written by Peter Selinger 2001-2019
<meta name="Producer" content="Online-Convert"/></metadata>
<g transform="translate(0.000000,1024.000000) scale(0.100000,-0.100000)" fill="#000000" stroke="none">
<path d="M7750 8429 c-18 -4 -39 -14 -46 -23 -6 -9 -13 -14 -16 -11 -2 3 -5 -24 -5 -60 0 -36 2 -63 5 -60 3 2 17 -4 31 -13 14 -10 52 -31 84 -46 31 -15 57 -31 57 -35 0 -4 6 -8 13 -8 22 0 99 -56 87 -63 -8 -5 -6 -9 5 -13 9 -4 13 -3 10 3 -10 16 5 12 36 -11 17 -12 26 -26 23 -32 -4 -7 -4 -9 1 -5 4 4 17 2 28 -3 16 -9 17 -13 6 -21 -11 -8 -10 -9 3 -4 12 3 35 -9 67 -37 45 -38 69 -69 39 -51 -7 4 -8 3 -4 -5 4 -6 12 -9 17 -6 10 7 75 -64 71 -78 -1 -4 2 -6 7 -3 12 8 33 -18 23 -29 -4 -5 -2 -5 5 -1 14 7 56 -47 45 -59 -4 -5 -2 -5 5 -1 7 4 39 -35 86 -106 86 -131 99 -153 90 -162 -3 -3 -1 -6 5 -6 13 0 44 -59 37 -70 -3 -5 1 -10 7 -13 11 -3 11 -9 0 -26 -7 -12 -8 -21 -2 -21 5 0 10 5 10 12 0 20 18 -5 26 -36 5 -22 4 -27 -6 -21 -9 5 -11 4 -6 -4 4 -6 11 -9 16 -6 10 6 54 -111 45 -124 -3 -6 -2 -11 3 -11 12 0 47 -134 65 -250 21 -129 31 -280 17 -260 -6 9 -10 10 -10 3 0 -6 5 -15 11 -19 14 -8 4 -277 -11 -305 -6 -10 -7 -24 -4 -33 9 -23 -41 -247 -82 -372 -59 -179 -199 -458 -216 -432 -5 9 -7 4 -6 -12 2 -14 -2 -24 -8 -23 -6 1 -11 -4 -11 -10 0 -21 -35 -67 -46 -60 -6 3 -7 1 -3 -6 8 -12 -7 -32 -112 -147 -36 -40 -70 -71 -74 -68 -5 3 -7 1 -6 -4 2 -5 -22 -31 -52 -57 -30 -27 -65 -58 -78 -69 -20 -18 -24 -18 -33 -6 -9 13 -10 12 -6 -2 6 -18 -88 -84 -220 -155 -57 -30 -77 -46 -92 -77 -19 -36 -19 -40 -3 -65 29 -47 56 -66 88 -64 42 2 174 69 291 149 54 37 103 67 110 67 7 0 10 3 8 7 -2 3 22 30 55 58 57 51 79 64 64 40 -4 -7 -3 -8 5 -4 6 4 9 11 6 16 -3 5 23 40 59 77 77 81 152 174 196 243 18 27 35 50 39 50 4 0 8 6 8 13 0 6 12 31 27 55 38 60 126 242 163 337 63 161 110 371 137 608 3 27 11 56 18 65 10 12 10 14 1 8 -10 -6 -13 20 -13 116 0 381 -76 702 -235 1005 -54 102 -185 306 -205 318 -6 3 -7 12 -4 18 4 7 4 9 0 5 -4 -3 -36 26 -70 65 -35 40 -93 98 -130 130 -36 32 -63 64 -59 69 3 7 1 8 -5 4 -11 -7 -109 61 -105 74 1 4 -4 7 -10 7 -7 0 -40 17 -72 38 -146 94 -244 135 -295 124z"/>
<path d="M6435 8124 c-39 -9 -100 -38 -132 -62 -18 -13 -37 -21 -43 -17 -6 4 -9 1 -8 -6 5 -18 -163 -129 -187 -123 -15 4 -16 3 -6 -4 15 -11 -3 -27 -19 -17 -6 4 -9 2 -8 -4 4 -14 -652 -452 -665 -444 -5 3 -7 1 -4 -4 4 -6 -25 -31 -63 -57 -55 -36 -74 -44 -88 -37 -14 7 -21 5 -32 -12 -12 -20 -12 -21 3 -9 9 8 22 12 29 10 6 -2 -9 -19 -34 -36 -49 -34 -64 -40 -52 -20 5 7 3 8 -5 4 -7 -5 -10 -10 -7 -13 6 -6 -38 -43 -51 -43 -4 0 3 10 17 21 14 11 19 18 12 14 -7 -4 -19 -2 -25 4 -10 8 -13 4 -11 -19 2 -23 -5 -33 -37 -54 -22 -15 -46 -23 -56 -20 -13 4 -14 3 -5 -3 10 -7 3 -16 -27 -36 -35 -23 -40 -24 -44 -9 -4 14 -5 13 -6 -3 -1 -24 -105 -100 -123 -89 -6 4 -8 3 -4 -4 8 -13 -104 -84 -122 -77 -7 3 -10 0 -7 -5 3 -5 -11 -17 -32 -26 -98 -42 -119 -44 -613 -44 -520 0 -558 -4 -676 -59 -34 -16 -66 -26 -70 -23 -4 4 -4 1 0 -6 6 -9 2 -12 -10 -10 -10 2 -19 -1 -19 -7 -1 -5 -30 -39 -66 -75 -68 -69 -126 -166 -153 -258 -23 -78 -30 -215 -16 -292 7 -36 13 -77 14 -92 0 -14 5 -24 10 -20 5 3 7 -2 3 -11 -4 -10 -2 -17 4 -17 6 0 9 -9 6 -20 -3 -11 -1 -18 4 -15 7 5 53 -73 61 -102 1 -5 15 -19 30 -31 16 -13 25 -29 21 -34 -3 -6 -1 -8 4 -5 14 9 37 -19 27 -34 -4 -8 -3 -9 4 -5 13 7 98 -51 95 -65 -2 -4 5 -5 14 -2 12 5 14 3 8 -7 -5 -8 -4 -11 2 -7 5 3 43 -5 84 -18 41 -12 95 -26 120 -30 42 -6 45 -9 41 -32 -2 -13 1 -36 9 -49 11 -21 11 -27 -1 -34 -12 -7 -12 -15 -2 -43 7 -18 11 -44 11 -58 -1 -18 -3 -16 -9 11 -8 33 -8 32 -6 -12 0 -25 4 -44 9 -41 4 2 7 -1 7 -6 0 -6 -4 -11 -9 -11 -5 0 -8 -11 -8 -25 0 -14 3 -28 8 -31 5 -3 9 -10 9 -15 0 -6 -4 -8 -9 -4 -5 3 -12 1 -16 -5 -3 -5 -29 -8 -58 -6 -29 2 -36 1 -17 -2 30 -4 25 -6 -40 -18 -41 -7 -84 -11 -95 -8 -14 4 -16 3 -7 -4 9 -6 -4 -15 -44 -30 -31 -11 -61 -19 -68 -18 -6 2 -7 1 -3 -2 4 -2 -27 -24 -69 -48 -89 -51 -162 -104 -256 -187 -41 -35 -72 -56 -79 -51 -7 4 -9 3 -5 -4 8 -13 -43 -54 -57 -45 -5 3 -7 1 -4 -4 4 -6 -3 -19 -14 -29 -16 -14 -22 -16 -28 -5 -6 9 -11 10 -15 2 -4 -6 -2 -11 4 -11 6 0 8 -5 5 -10 -4 -6 -16 -8 -28 -5 -15 4 -18 3 -9 -3 17 -12 -19 -39 -109 -82 -66 -31 -84 -35 -92 -22 -2 4 -3 2 -1 -4 6 -26 -93 -38 -359 -44 l-269 -5 -24 -28 c-30 -36 -33 -96 -5 -121 41 -37 78 -41 336 -35 268 6 330 16 464 75 29 13 58 21 64 17 5 -3 7 -2 4 4 -3 5 13 20 36 33 56 31 128 82 205 147 35 29 68 50 74 47 6 -4 8 -2 5 3 -12 20 223 200 244 188 8 -5 10 -4 5 3 -8 13 68 54 153 83 57 20 96 24 104 12 2 -5 2 -2 1 5 -3 9 29 12 141 11 102 -1 145 -4 145 -13 0 -8 2 -8 8 0 8 13 121 22 138 12 6 -4 14 -4 18 -1 10 11 99 3 115 -10 12 -9 13 -9 7 1 -9 16 16 16 32 0 8 -8 12 -8 12 -1 0 6 15 11 33 11 17 0 34 1 37 1 3 1 86 2 186 3 150 0 185 -2 212 -16 19 -10 30 -21 26 -28 -4 -7 -3 -8 4 -4 6 4 19 -5 28 -20 15 -22 15 -27 3 -36 -11 -8 -11 -9 2 -5 40 13 29 -101 -13 -140 -22 -21 -36 -22 -373 -27 -362 -6 -395 -7 -390 -17 2 -3 -13 -11 -33 -18 -20 -8 -52 -24 -70 -38 -17 -13 -37 -21 -42 -18 -6 4 -9 1 -8 -7 2 -7 -4 -12 -12 -10 -8 2 -12 1 -8 -3 3 -3 -15 -35 -41 -69 -27 -35 -56 -86 -66 -114 -13 -36 -22 -48 -28 -39 -5 7 -6 4 -2 -10 4 -16 -1 -30 -19 -48 -15 -15 -30 -24 -35 -20 -5 3 -11 1 -13 -5 -4 -12 -114 -33 -139 -27 -11 3 -17 2 -15 -2 3 -4 -11 -16 -31 -27 -21 -11 -60 -51 -92 -94 -67 -92 -78 -103 -91 -95 -5 3 -7 0 -4 -8 10 -27 -121 -109 -211 -131 -79 -19 -230 -27 -246 -12 -9 8 -10 8 -5 -1 4 -7 -3 -26 -15 -42 -31 -42 -29 -86 5 -119 25 -25 33 -27 119 -29 66 -1 113 4 167 19 41 12 85 21 97 22 11 0 19 4 17 7 -2 3 8 11 22 18 31 14 37 14 28 -1 -5 -7 -3 -8 5 -4 7 5 10 11 7 14 -3 3 18 21 47 39 28 19 66 48 83 64 17 16 34 26 39 22 4 -5 5 -2 1 5 -8 14 52 89 67 84 5 -1 6 2 2 8 -11 19 58 78 106 89 24 6 57 15 72 20 23 8 28 7 24 -3 -4 -10 1 -12 14 -9 15 4 17 8 8 19 -8 9 -8 14 -1 14 9 0 14 -9 24 -44 2 -5 -5 -10 -15 -12 -9 -1 -14 2 -11 8 8 13 -67 -55 -116 -104 -20 -21 -50 -64 -66 -95 -27 -54 -29 -66 -29 -168 0 -101 2 -114 27 -162 15 -28 32 -54 38 -58 5 -3 10 -11 10 -16 0 -6 -5 -7 -12 -3 -7 4 -8 3 -4 -5 4 -6 11 -9 16 -6 4 3 13 -1 19 -9 9 -11 4 -20 -22 -43 -40 -35 -71 -85 -88 -140 -6 -23 -15 -41 -18 -39 -10 6 1 -239 11 -250 4 -3 5 5 2 18 l-5 23 11 -23 c5 -13 7 -29 3 -35 -3 -7 -3 -9 2 -5 13 12 49 -43 49 -75 1 -17 7 -32 14 -35 6 -2 12 4 12 15 0 15 -2 16 -10 3 -7 -12 -9 -10 -7 7 l1 23 23 -22 c28 -27 22 -32 -61 -47 -83 -15 -232 -14 -313 3 -107 23 -276 88 -256 98 4 3 3 4 -3 2 -7 -1 -64 20 -128 47 -63 27 -153 57 -198 66 -46 9 -86 21 -90 27 -5 7 -8 7 -8 1 0 -6 -38 -10 -95 -10 -52 0 -95 4 -95 8 0 5 -6 5 -12 0 -7 -4 -76 -9 -153 -9 -77 -1 -150 -2 -163 -3 -13 -1 -34 -12 -48 -27 -26 -25 -27 -28 -12 -121 1 -7 5 -10 9 -7 4 2 12 -2 16 -11 7 -13 53 -15 308 -18 248 -2 310 -6 359 -20 71 -21 237 -97 231 -106 -2 -4 4 -7 13 -8 9 -1 63 -18 120 -40 92 -34 103 -40 99 -60 -2 -12 0 -20 4 -17 5 3 9 12 9 21 0 12 7 14 29 10 15 -3 51 -9 79 -13 29 -3 50 -9 48 -13 -6 -9 232 6 286 18 27 6 51 10 55 9 5 0 21 4 36 10 16 7 32 12 36 12 14 0 6 -45 -9 -52 -13 -6 -13 -7 0 -7 18 -1 46 -103 34 -124 -4 -6 -4 -9 1 -5 5 5 23 -13 40 -40 18 -26 42 -55 53 -66 12 -10 19 -23 16 -28 -3 -4 0 -7 7 -6 7 2 13 -2 14 -9 0 -6 4 -15 9 -20 5 -5 6 -3 2 5 -9 15 -1 15 25 1 11 -5 16 -15 13 -21 -4 -6 -3 -8 3 -5 6 4 38 -3 72 -14 55 -19 80 -21 229 -18 l168 4 76 38 c168 83 241 230 205 413 l-8 42 47 16 c106 36 180 100 230 198 21 41 28 72 32 139 5 94 -5 141 -44 201 -28 45 -29 48 -7 48 24 0 108 56 143 96 65 75 109 212 96 302 -7 57 -40 138 -72 179 -20 26 -24 38 -15 41 7 2 28 17 46 33 17 16 35 25 39 21 4 -4 6 -2 5 3 -2 6 8 30 23 55 98 167 66 375 -78 509 -30 28 -56 51 -59 52 -40 9 -46 12 -33 20 8 6 9 9 1 9 -8 0 -7 14 4 48 31 101 -5 236 -86 325 -22 24 -37 48 -33 52 4 5 1 5 -5 1 -17 -9 -55 12 -47 26 5 7 2 9 -8 5 -16 -6 -102 15 -94 23 2 3 -21 5 -52 5 l-57 0 -2 159 c-1 87 2 166 7 175 5 9 10 11 10 4 0 -7 7 -10 15 -7 23 9 130 -37 113 -48 -9 -7 -7 -8 8 -3 14 3 30 -3 48 -20 15 -14 31 -25 36 -25 5 0 12 -5 16 -12 5 -7 3 -8 -7 -3 -12 8 -12 6 0 -8 15 -18 26 -23 16 -7 -9 15 8 12 33 -6 12 -8 20 -20 17 -25 -3 -5 0 -7 7 -4 15 6 124 -61 121 -74 -1 -5 5 -8 15 -7 9 0 16 -5 14 -12 -1 -8 2 -11 8 -7 13 8 82 -39 72 -50 -4 -5 -1 -5 5 -1 12 7 104 -48 111 -66 2 -4 8 -8 13 -8 5 0 58 -32 118 -72 79 -51 108 -75 104 -87 -4 -13 -3 -13 5 -2 8 11 21 6 68 -24 33 -21 95 -62 139 -90 228 -148 255 -167 255 -183 0 -12 3 -13 8 -5 5 8 31 -3 87 -39 68 -43 128 -87 88 -64 -7 4 -21 2 -30 -4 -16 -10 -16 -11 -1 -6 9 2 33 0 53 -5 32 -9 35 -12 23 -27 -11 -15 -11 -16 4 -4 14 11 26 6 87 -33 39 -26 69 -50 66 -55 -3 -4 2 -11 11 -14 9 -3 12 -2 9 4 -4 6 24 -9 62 -34 37 -24 68 -50 68 -57 0 -7 7 -14 15 -16 13 -4 13 -3 0 6 -23 16 5 14 38 -3 41 -21 123 -29 183 -18 81 15 82 16 103 35 11 10 26 15 33 13 7 -3 12 -2 10 3 -1 4 17 27 40 49 88 86 103 147 103 424 1 148 4 198 13 198 9 0 9 2 0 8 -14 9 -24 162 -11 162 4 0 5 6 3 13 -3 7 -7 584 -8 1282 l-4 1270 -22 57 c-12 32 -22 60 -22 63 2 16 -105 106 -153 130 -56 27 -160 42 -211 29z m112 -205 c66 -25 113 -97 113 -174 0 -23 -3 -27 -10 -15 -7 12 -10 8 -10 -15 0 -23 3 -27 10 -15 8 12 10 9 10 -13 0 -16 -4 -26 -10 -22 -5 3 -10 -1 -10 -9 0 -8 5 -18 10 -21 6 -3 10 -36 9 -73 -1 -49 -3 -60 -9 -42 -7 22 -8 21 -9 -12 -1 -20 3 -39 8 -42 5 -4 9 -36 10 -74 0 -46 -3 -62 -9 -52 -8 12 -10 9 -10 -13 0 -16 4 -26 10 -22 6 4 10 -7 10 -24 0 -17 -4 -31 -10 -31 -5 0 -10 -12 -9 -27 0 -25 1 -26 9 -8 7 16 9 11 9 -21 1 -22 -5 -46 -11 -53 -10 -11 -10 -13 0 -7 9 6 12 -62 12 -326 0 -219 -4 -328 -10 -318 -8 13 -10 12 -10 -2 0 -10 5 -18 10 -18 6 0 10 -25 10 -55 0 -30 -4 -55 -10 -55 -5 0 -10 -10 -9 -22 0 -22 1 -22 9 -3 7 17 9 14 9 -13 1 -20 -3 -31 -9 -27 -5 3 -10 -1 -10 -10 0 -9 5 -13 10 -10 6 4 10 -35 10 -110 0 -75 -4 -114 -10 -110 -14 8 -13 -1 3 -25 10 -17 9 -22 -3 -30 -10 -6 -11 -10 -2 -10 6 0 12 -10 11 -22 0 -22 -1 -22 -9 -3 -7 16 -9 17 -9 3 -1 -9 4 -20 9 -23 6 -3 10 -18 10 -33 0 -22 -2 -24 -11 -12 -9 12 -9 11 -4 -5 16 -44 17 -55 6 -55 -6 0 -11 -14 -11 -31 0 -17 4 -28 10 -24 7 4 10 -63 10 -194 0 -127 -4 -201 -10 -201 -5 0 -10 -8 -10 -17 0 -15 2 -16 10 -3 6 10 9 -35 9 -133 0 -114 -2 -146 -12 -140 -8 5 -8 2 1 -9 10 -13 12 -62 10 -211 -3 -190 -4 -196 -27 -221 -13 -14 -28 -23 -34 -19 -6 3 -7 1 -4 -4 17 -28 -67 -57 -127 -43 -50 11 -101 62 -115 117 -15 57 -15 3052 0 3104 26 86 119 137 196 108z m-390 -211 c2 -18 0 -20 -7 -8 -8 13 -10 12 -10 -2 0 -10 4 -18 10 -18 6 0 10 -499 10 -1456 l0 -1456 -22 14 c-13 9 -47 30 -76 47 -29 19 -49 37 -45 43 3 6 1 8 -5 4 -15 -9 -424 253 -415 267 3 6 1 7 -5 3 -15 -9 -55 18 -44 29 4 5 2 5 -4 2 -13 -8 -150 81 -146 95 1 5 -2 7 -7 3 -14 -8 -92 45 -84 58 3 5 1 7 -5 4 -15 -10 -43 3 -35 16 3 5 2 7 -4 4 -11 -7 -125 67 -118 77 3 3 2 4 -1 1 -9 -6 -84 36 -79 45 2 4 -1 7 -8 7 -17 0 -97 53 -97 64 0 5 -4 8 -9 7 -8 -3 -58 28 -216 131 -79 51 -201 111 -228 111 -10 0 -16 4 -13 9 3 4 -6 6 -19 3 -18 -3 -25 0 -25 12 0 9 -7 16 -15 16 -12 0 -14 58 -15 424 l0 424 52 7 c72 10 171 41 238 75 30 16 174 107 319 204 144 97 268 173 274 169 5 -3 7 -1 4 4 -7 11 69 66 90 66 7 0 11 2 8 5 -8 8 496 343 506 336 5 -3 8 -1 7 5 -2 7 225 171 237 171 0 0 2 -10 2 -22z m-2137 -1028 c0 -5 8 -10 18 -10 14 0 14 2 3 9 -10 6 24 10 92 10 l107 1 0 -435 -1 -435 -34 0 c-21 0 -35 5 -36 13 0 10 -2 10 -6 0 -2 -7 -18 -13 -34 -13 -16 0 -39 6 -50 13 -17 10 -23 10 -26 0 -3 -9 -27 -13 -71 -13 -47 0 -63 3 -52 10 9 6 10 10 3 10 -6 0 -15 -4 -18 -10 -4 -6 -87 -10 -218 -10 -229 0 -268 6 -351 55 -54 31 -119 101 -110 117 4 7 3 8 -5 4 -15 -9 -57 80 -72 154 -19 90 4 292 31 275 4 -3 6 3 4 12 -5 23 39 99 55 95 7 -1 10 2 7 7 -7 11 71 84 113 106 17 9 37 13 44 9 7 -4 8 -3 4 2 -5 5 7 14 30 21 49 15 573 18 573 3z m218 -1227 l-3 -178 -234 -2 c-148 -1 -241 2 -254 9 -14 7 -17 7 -13 -1 4 -6 2 -11 -3 -11 -7 0 -11 33 -11 91 0 69 3 89 13 83 10 -6 10 -4 0 7 -19 20 -17 133 3 150 14 12 14 14 -3 20 -10 4 100 8 245 8 l262 1 -2 -177z m486 -848 c23 -10 34 -20 30 -27 -4 -6 -3 -8 4 -5 5 4 22 -7 36 -24 27 -32 31 -44 19 -52 -5 -2 -3 -2 4 -1 12 3 15 -4 27 -58 13 -56 -38 -189 -65 -172 -5 3 -8 0 -7 -6 2 -7 -15 -22 -37 -34 -37 -20 -56 -21 -292 -23 -178 -2 -253 1 -253 8 0 8 -5 8 -14 0 -18 -15 -145 -13 -165 3 -11 8 -13 8 -7 -2 12 -20 -183 -10 -220 12 -65 39 -89 109 -67 197 22 87 115 180 182 183 17 1 31 4 31 9 0 4 170 7 379 7 317 0 384 -2 415 -15z m-293 -597 c0 -10 2 -10 6 0 3 8 32 12 96 12 85 0 96 -3 140 -31 59 -36 86 -90 87 -167 0 -79 -38 -136 -119 -177 -47 -23 -259 -34 -272 -14 -5 9 -9 10 -9 2 0 -8 -24 -12 -75 -12 -65 0 -73 2 -69 17 5 16 5 15 -6 0 -12 -19 -65 -25 -75 -8 -3 6 -12 10 -18 10 -7 0 -6 -4 3 -10 10 -6 -39 -10 -148 -10 -106 0 -161 3 -157 10 3 6 1 10 -4 10 -6 0 -11 -5 -11 -11 0 -15 -144 -2 -185 16 -100 46 -143 168 -93 265 13 25 29 44 36 42 8 -1 11 2 7 8 -8 13 56 52 78 46 9 -2 17 0 17 5 0 5 162 9 385 9 301 0 385 -3 386 -12z m19 -574 c111 -33 162 -166 106 -274 -13 -25 -29 -44 -35 -43 -6 2 -10 -2 -8 -9 1 -6 -18 -23 -43 -37 l-45 -26 -400 1 c-393 1 -467 6 -450 34 3 5 0 7 -8 4 -29 -11 -84 71 -93 140 -9 62 16 124 66 170 59 53 41 51 500 52 277 1 376 -2 410 -12z m-272 -573 c44 -1 89 -32 76 -53 -4 -7 -3 -8 4 -4 29 18 28 -114 -2 -159 -9 -14 -35 -37 -58 -53 -41 -27 -43 -27 -206 -27 -119 0 -166 3 -169 12 -2 7 -10 9 -18 7 -8 -3 -33 14 -58 39 -37 37 -46 53 -52 95 -7 51 11 112 39 130 10 6 347 20 386 15 8 -1 34 -2 58 -2z"/>
<path d="M7425 7911 c3 -5 -4 -12 -15 -16 -29 -9 -60 -54 -60 -87 0 -35 32 -84 60 -93 11 -4 17 -11 14 -17 -4 -6 -2 -8 3 -5 6 4 26 -1 44 -10 58 -28 159 -94 159 -104 0 -5 6 -9 13 -9 20 0 88 -61 81 -72 -4 -6 -2 -8 3 -5 13 8 46 -27 36 -38 -5 -4 -3 -5 3 -2 14 8 47 -26 37 -37 -5 -4 -2 -6 5 -4 8 1 32 -18 54 -44 36 -42 39 -49 27 -65 -13 -16 -12 -17 3 -5 14 11 18 10 27 -6 6 -11 7 -23 3 -27 -4 -5 -1 -4 7 0 11 6 13 4 8 -9 -4 -10 -3 -15 3 -11 12 7 33 -32 24 -47 -4 -6 -3 -8 3 -5 10 6 45 -49 58 -90 5 -18 2 -23 -11 -23 -22 0 -12 -11 13 -14 13 -2 26 -25 46 -82 15 -43 25 -87 23 -96 -2 -10 0 -18 6 -18 6 0 8 -11 6 -25 -3 -13 -2 -22 2 -20 14 9 34 -159 34 -280 0 -121 -21 -298 -34 -290 -4 2 -5 -7 -2 -20 2 -15 0 -25 -7 -25 -7 0 -10 -4 -7 -8 8 -13 -34 -143 -44 -137 -6 3 -7 -1 -4 -9 7 -17 -76 -187 -88 -180 -4 3 -6 -1 -3 -8 11 -28 -215 -294 -242 -284 -13 5 -36 -17 -27 -26 6 -7 -104 -87 -154 -112 -18 -9 -38 -14 -44 -10 -7 4 -8 3 -4 -4 4 -8 -16 -23 -57 -43 -35 -17 -64 -37 -65 -43 -15 -87 -14 -92 16 -124 21 -22 39 -32 59 -32 72 0 323 157 449 281 44 44 84 76 88 72 4 -4 6 -3 4 4 -4 15 72 114 82 108 5 -3 11 -1 15 5 3 5 2 10 -4 10 -6 0 10 32 35 71 51 79 126 231 145 296 6 24 16 40 22 36 6 -3 7 -1 3 5 -4 6 2 47 13 90 66 257 56 598 -26 852 -14 47 -27 87 -28 90 0 3 -19 44 -42 92 -44 93 -115 208 -170 275 -20 25 -32 47 -27 54 4 7 3 9 -3 6 -13 -8 -36 17 -25 28 4 5 2 5 -4 2 -14 -8 -117 96 -107 108 5 4 3 5 -3 2 -13 -8 -90 50 -86 64 1 5 -2 8 -7 7 -5 -2 -34 12 -64 30 -41 25 -54 38 -50 50 4 13 3 14 -5 3 -7 -10 -14 -11 -31 -2 -12 7 -18 17 -15 23 4 6 3 8 -4 4 -11 -7 -83 23 -78 33 2 3 -12 7 -32 8 -20 1 -38 7 -40 12 -2 6 -8 11 -13 11 -6 0 -8 -4 -4 -9z"/>
<path d="M7176 7429 c5 -9 1 -10 -14 -7 -14 4 -20 2 -15 -5 4 -7 0 -8 -13 -3 -10 4 -15 4 -11 0 4 -4 0 -15 -8 -24 -9 -10 -20 -31 -24 -48 -13 -44 18 -81 108 -130 42 -22 75 -45 74 -51 -2 -6 5 -8 15 -4 15 6 16 5 2 -12 -14 -17 -13 -17 9 -10 18 5 29 1 52 -21 15 -15 26 -32 22 -37 -3 -6 -1 -7 5 -3 6 4 17 -2 24 -14 7 -11 17 -20 23 -20 5 0 19 -12 29 -27 11 -14 14 -23 6 -18 -8 5 -11 3 -8 -6 3 -8 10 -13 17 -12 14 4 72 -98 66 -115 -3 -7 -1 -11 4 -8 5 3 12 -1 15 -10 8 -21 8 -26 -2 -20 -5 3 -9 -1 -9 -8 0 -8 6 -12 13 -9 8 3 17 -18 28 -64 64 -282 -12 -547 -209 -732 -59 -55 -114 -93 -131 -90 -4 0 -10 -3 -13 -8 -13 -19 -81 -54 -92 -47 -8 4 -9 3 -5 -4 4 -7 3 -12 -2 -12 -5 0 -17 -16 -27 -35 -13 -30 -14 -42 -5 -71 15 -43 63 -76 100 -67 32 7 112 48 163 81 32 22 40 23 49 11 8 -12 9 -11 5 2 -4 11 17 35 64 75 74 61 173 184 214 265 32 63 60 138 81 219 17 68 34 318 22 323 -4 1 -9 28 -10 59 -2 32 -6 58 -10 58 -5 0 -8 9 -8 20 0 11 -11 50 -25 86 -14 37 -23 69 -21 71 2 3 -2 12 -10 21 -27 32 -127 187 -127 199 0 7 -3 11 -7 10 -4 -1 -40 29 -81 66 -41 38 -75 67 -76 65 -1 -1 -12 5 -23 15 -11 9 -25 17 -31 17 -5 0 -7 5 -3 12 4 6 3 8 -4 4 -6 -3 -25 3 -44 13 -54 32 -150 72 -142 60z"/>
</g>
</svg>
