<?xml version="1.0" standalone="no"?>
<!DOCTYPE svg PUBLIC "-//W3C//DTD SVG 20010904//EN"
 "http://www.w3.org/TR/2001/REC-SVG-20010904/DTD/svg10.dtd">
<svg version="1.0" xmlns="http://www.w3.org/2000/svg"
 width="1024.000000pt" height="1024.000000pt" viewBox="0 0 1024.000000 1024.000000"
 preserveAspectRatio="xMidYMid meet">
<metadata>
Created by potrace 1.16, written by Peter Selinger 2001-2019
</metadata>
<g transform="translate(0.000000,1024.000000) scale(0.100000,-0.100000)"
fill="#000000" stroke="none">
<path d="M3995 7714 c-49 -9 -104 -17 -122 -17 -17 -1 -29 -6 -25 -11 3 -5 -5
-7 -16 -4 -12 4 -22 3 -22 -1 0 -4 -26 -16 -57 -25 -92 -29 -257 -120 -346
-189 -282 -222 -439 -510 -522 -962 -11 -58 -19 -170 -22 -317 -5 -189 -3
-243 12 -330 10 -56 18 -112 19 -123 1 -11 4 -22 7 -25 3 -3 16 -36 29 -75 23
-70 69 -170 108 -234 l21 -35 -71 -27 c-39 -16 -76 -25 -82 -22 -6 3 -8 3 -4
-2 4 -4 -16 -19 -45 -32 -165 -77 -369 -251 -489 -419 -174 -244 -309 -633
-335 -964 -6 -75 -4 -82 17 -105 30 -32 71 -40 109 -21 39 21 51 44 51 101 0
25 3 44 8 41 4 -2 6 14 4 36 -3 23 0 38 5 35 5 -3 7 10 5 30 -3 22 -1 33 5 30
6 -4 8 3 6 17 -3 12 9 75 26 139 17 65 31 120 31 123 0 3 5 2 12 -2 7 -5 9 -2
5 9 -7 19 38 140 94 249 145 290 376 497 662 597 49 17 92 31 96 31 5 0 36
-26 71 -57 34 -32 86 -75 114 -97 31 -23 50 -45 48 -55 -2 -12 -1 -13 6 -3 8
11 17 9 49 -11 21 -13 68 -39 103 -57 36 -18 66 -36 68 -41 2 -4 10 -5 19 -2
9 4 14 2 10 -3 -3 -5 2 -10 11 -11 9 -1 55 -13 101 -27 47 -15 115 -31 153
-38 37 -6 66 -14 64 -17 -2 -3 69 -6 157 -5 121 1 187 7 261 22 55 12 103 19
108 16 4 -3 8 -1 8 4 0 5 10 12 23 15 12 2 29 8 39 11 13 6 18 -2 28 -51 6
-32 22 -98 35 -147 13 -49 21 -94 18 -99 -4 -6 -1 -7 7 -2 10 6 12 3 8 -13 -4
-12 -3 -20 1 -18 4 3 13 -12 20 -32 7 -20 33 -73 56 -117 24 -44 44 -83 45
-87 0 -4 14 -21 30 -39 17 -17 27 -36 23 -42 -3 -6 -1 -7 5 -3 7 4 12 3 12 -2
0 -6 33 -44 74 -85 136 -138 358 -267 531 -309 50 -12 92 -24 95 -27 3 -3 17
-6 33 -7 113 -2 132 -5 117 -15 -11 -8 -5 -9 25 -4 l40 6 -30 -21 c-76 -53
-211 -107 -240 -96 -8 3 -15 1 -17 -4 -5 -15 -209 -43 -278 -37 -39 3 -55 2
-40 -3 15 -5 -25 -8 -105 -9 -74 0 -124 3 -117 8 8 5 -6 6 -35 4 -85 -9 -440
48 -428 68 3 4 -5 5 -17 1 -16 -4 -19 -2 -13 8 5 9 4 11 -4 6 -34 -21 -541
199 -525 227 4 7 4 9 -1 5 -14 -13 -190 106 -323 219 -48 40 -71 53 -96 53
-62 0 -106 -83 -72 -135 9 -13 43 -46 75 -74 33 -27 57 -52 53 -56 -4 -4 -2
-5 3 -4 15 5 86 -46 77 -55 -4 -4 -2 -6 4 -4 6 2 54 -25 105 -59 52 -33 140
-86 197 -115 56 -30 99 -58 95 -63 -5 -4 -3 -5 3 -2 17 10 75 -13 67 -26 -3
-5 -1 -7 5 -3 5 3 43 -7 84 -23 88 -35 286 -96 346 -106 23 -4 42 -10 42 -13
0 -4 15 -7 33 -8 17 0 98 -8 179 -17 168 -19 344 -22 502 -7 87 9 111 8 118
-2 6 -10 8 -9 8 3 0 12 23 19 96 32 52 10 100 14 106 11 7 -4 8 -2 4 4 -4 7
-1 12 9 12 21 0 305 83 379 110 31 12 61 18 67 14 8 -5 9 -3 4 6 -6 10 -3 12
14 7 13 -3 20 -3 17 1 -15 14 243 90 263 77 6 -3 11 -1 11 5 0 8 14 11 39 8
22 -2 37 0 35 4 -3 5 41 8 98 8 110 0 191 -16 259 -50 49 -26 121 -89 113
-101 -3 -5 -1 -9 4 -9 5 0 18 -19 28 -42 29 -64 25 -158 -10 -233 -34 -75
-103 -168 -118 -159 -6 4 -8 3 -5 -3 18 -30 -344 -286 -375 -267 -6 4 -8 3 -5
-3 7 -11 -178 -97 -321 -149 -227 -82 -616 -173 -757 -177 -40 -1 -71 -5 -69
-8 11 -19 -489 -26 -676 -9 -162 15 -360 42 -355 50 2 3 -10 4 -27 2 -18 -3
-28 -1 -25 5 3 5 -6 8 -24 5 -25 -4 -28 -2 -23 14 5 15 4 16 -4 5 -9 -12 -21
-12 -89 3 -110 24 -275 71 -269 76 2 3 -8 6 -22 6 -45 2 -298 101 -461 180
-84 41 -160 74 -168 74 -30 0 -72 -40 -79 -76 -12 -66 27 -102 188 -176 43
-19 75 -38 70 -43 -4 -5 -2 -5 4 -2 7 4 45 -7 85 -24 41 -17 138 -52 216 -79
78 -26 140 -50 137 -53 -3 -3 4 -3 17 0 17 5 20 3 14 -7 -5 -8 -4 -11 3 -6 5
3 66 -7 133 -24 68 -16 132 -30 142 -30 11 0 15 -4 11 -12 -4 -6 -3 -8 4 -4 6
3 64 -3 129 -14 265 -44 386 -54 723 -54 288 0 343 2 480 22 85 13 185 30 222
38 37 9 72 13 78 9 5 -3 10 -2 10 3 0 4 35 16 78 26 210 49 555 178 738 276
51 27 95 47 98 44 3 -2 4 -1 1 2 -2 4 24 25 58 47 223 144 369 308 418 470 12
40 26 80 31 91 6 12 6 16 0 12 -6 -4 -8 9 -5 34 18 129 -74 310 -198 394 -27
18 -46 36 -41 41 4 5 2 6 -3 2 -6 -3 -49 9 -95 26 -83 31 -89 31 -260 32 -178
0 -219 -5 -347 -47 -35 -11 -68 -16 -74 -12 -7 4 -10 3 -7 -2 3 -5 -32 -21
-79 -35 -46 -15 -83 -24 -81 -19 7 19 101 90 110 84 7 -4 8 -2 4 4 -14 23 369
272 394 257 6 -3 10 -2 10 3 0 13 50 33 62 26 6 -4 8 -3 5 3 -10 16 64 35 82
20 14 -10 14 -10 4 4 -11 13 -2 18 67 38 43 13 93 24 110 26 17 1 33 5 37 9 4
3 23 4 42 1 27 -4 31 -3 16 4 -16 8 -10 10 26 10 59 1 110 -9 103 -20 -3 -5
-1 -9 4 -9 6 0 12 6 15 14 4 10 -3 16 -21 20 -15 2 -7 3 18 0 25 -2 68 -4 95
-3 139 0 321 -79 431 -187 117 -115 171 -212 215 -384 20 -81 37 -316 24 -347
-10 -24 -12 -83 -3 -83 4 0 10 -9 13 -21 8 -24 68 -53 94 -44 68 21 93 154 73
373 -25 272 -116 468 -299 643 -43 41 -99 89 -123 105 -85 58 -315 177 -383
199 -37 12 -65 24 -61 27 3 3 -1 6 -8 5 -56 -2 -89 4 -81 15 4 7 8 20 8 28 2
40 18 89 28 83 5 -3 7 -2 4 4 -4 6 2 56 13 112 11 56 20 118 20 137 0 19 3 33
8 31 4 -3 4 92 1 211 -7 249 -28 389 -87 567 -20 61 -37 115 -37 120 0 6 -3
12 -6 15 -12 12 -98 180 -92 180 5 0 3 4 -3 8 -7 4 -39 43 -71 87 -33 44 -96
115 -140 157 -44 43 -77 80 -74 84 3 3 1 4 -4 2 -6 -1 -40 19 -77 45 -37 26
-96 63 -131 82 -36 18 -62 37 -59 41 4 4 2 4 -4 1 -11 -6 -138 36 -130 44 2 2
-5 5 -17 5 -12 1 -67 11 -122 24 -78 17 -134 23 -250 24 -151 1 -277 -5 -269
-14 4 -4 -128 -39 -152 -40 -14 0 -38 115 -28 132 4 6 3 8 -2 5 -6 -3 -18 27
-28 66 -67 259 -266 537 -496 691 -89 60 -252 142 -312 157 -26 7 -44 17 -41
22 3 6 2 7 -4 4 -12 -7 -124 14 -118 22 2 3 -11 6 -28 7 -18 0 -90 3 -162 7
-97 5 -153 3 -220 -9z m267 -170 c37 -4 65 -10 63 -14 -3 -5 3 -6 13 -3 32 8
183 -37 284 -84 54 -25 96 -49 93 -53 -2 -4 2 -7 9 -7 22 0 148 -95 217 -163
134 -134 216 -286 269 -500 49 -199 53 -176 -48 -240 -48 -30 -115 -78 -148
-107 -34 -28 -65 -49 -70 -45 -4 4 -4 2 -1 -4 3 -6 -7 -24 -23 -39 -17 -16
-49 -53 -72 -82 -24 -29 -50 -53 -58 -53 -30 0 -122 49 -114 61 4 7 3 9 -3 6
-6 -4 -23 10 -39 31 -39 51 -54 61 -91 62 -47 0 -87 -51 -80 -102 7 -53 41
-103 101 -148 28 -22 58 -45 67 -53 8 -7 19 -12 25 -10 5 1 15 -1 22 -6 11 -6
9 -19 -10 -65 -14 -31 -28 -53 -33 -49 -4 5 -6 4 -3 -2 6 -11 -45 -178 -53
-171 -2 2 -5 -17 -6 -42 -1 -25 -6 -48 -10 -51 -4 -3 -9 -51 -11 -106 -2 -55
-5 -122 -7 -150 -3 -46 5 -156 20 -266 l6 -46 -75 -22 c-229 -68 -479 -68
-686 0 -220 73 -426 216 -552 381 -64 85 -80 112 -70 123 4 5 2 5 -4 2 -15 -9
-87 164 -116 276 -13 48 -22 116 -22 164 -1 44 -4 76 -8 70 -18 -29 1 270 26
415 41 231 79 358 152 499 95 183 243 346 402 442 94 57 198 101 218 93 8 -3
13 -2 10 3 -11 17 187 55 314 60 19 0 65 -2 102 -5z m1585 -1061 c-3 -5 36 -8
87 -9 249 -3 538 -145 725 -358 68 -77 133 -175 124 -189 -3 -5 -1 -7 4 -4 11
7 65 -104 106 -218 34 -96 74 -283 82 -380 3 -44 8 -109 11 -145 3 -37 1 -60
-4 -53 -4 8 -6 -26 -4 -78 3 -55 1 -89 -5 -86 -5 3 -7 -9 -5 -29 2 -19 0 -34
-6 -34 -6 0 -8 -8 -5 -18 17 -65 -131 -433 -162 -404 -5 4 -5 2 -1 -5 15 -26
-40 -60 -159 -99 -66 -21 -175 -66 -242 -100 -67 -34 -123 -61 -125 -60 -2 0
-2 -1 -1 -3 1 -2 -30 -24 -70 -50 -40 -26 -115 -79 -168 -118 -104 -78 -149
-93 -273 -93 -70 0 -217 24 -285 46 -84 28 -232 104 -225 116 4 6 3 8 -4 4
-16 -9 -149 102 -212 178 -134 162 -237 413 -243 598 -1 25 -5 44 -8 42 -4 -2
-9 18 -12 44 -3 26 -13 101 -21 167 -18 147 -25 235 -17 230 4 -2 5 30 3 71
-3 41 0 74 5 74 5 0 7 16 5 35 -3 22 0 35 7 35 7 0 9 4 6 10 -10 16 6 81 18
73 6 -3 7 -1 3 6 -10 16 35 142 47 134 6 -3 7 -1 3 5 -9 15 45 113 58 105 5
-3 6 -1 2 5 -9 15 65 123 78 115 5 -4 6 -1 3 4 -4 6 12 32 36 59 186 211 408
330 687 368 124 17 163 19 157 9z"/>
<path d="M3615 6496 c-22 -22 -26 -34 -23 -75 2 -27 6 -47 10 -44 5 2 8 0 8
-5 0 -5 11 -25 24 -45 13 -19 22 -38 20 -41 -2 -3 -1 -4 2 -2 3 3 18 -6 33
-20 14 -14 55 -39 91 -57 56 -28 77 -33 166 -37 56 -3 100 -2 98 1 -6 10 45
21 58 13 6 -4 8 -3 5 3 -3 5 9 15 28 22 51 18 95 74 95 120 0 31 -6 44 -31 65
-40 34 -56 33 -136 -10 -60 -31 -75 -35 -124 -32 -76 5 -125 34 -180 104 -39
50 -51 59 -82 62 -29 3 -42 -3 -62 -22z"/>
<path d="M3837 5620 c-32 -26 -45 -82 -26 -116 17 -33 59 -57 146 -87 40 -13
71 -26 69 -28 -2 -2 8 -5 22 -5 15 -1 71 -9 126 -17 84 -13 104 -13 137 -2 22
8 43 14 47 15 4 0 8 5 8 10 1 6 2 15 3 21 0 5 5 8 9 5 5 -3 6 16 2 41 -11 73
-37 89 -155 97 -72 6 -129 18 -218 47 -67 21 -126 39 -133 39 -6 0 -23 -9 -37
-20z"/>
<path d="M6167 5436 c-99 -106 -112 -117 -161 -131 -70 -21 -122 -18 -191 10
-89 37 -125 31 -154 -24 -29 -54 14 -123 94 -152 19 -7 35 -16 35 -20 0 -4 6
-6 13 -6 6 1 46 -2 88 -7 61 -6 89 -5 135 9 121 35 216 102 253 178 31 63 28
103 -10 138 -38 35 -72 37 -102 5z"/>
<path d="M5355 5280 c-4 -6 -10 -8 -16 -5 -5 3 -31 -17 -57 -44 -95 -98 -177
-114 -287 -56 -49 26 -76 35 -105 33 -21 -2 -38 -5 -38 -8 1 -3 -4 -17 -10
-33 -17 -41 -22 -77 -10 -77 5 0 7 -8 4 -17 -4 -10 -4 -15 -1 -12 3 4 27 -15
52 -40 26 -25 48 -45 50 -43 8 7 33 1 29 -7 -4 -5 4 -7 16 -3 12 3 19 1 15 -5
-4 -6 32 -9 96 -9 94 1 108 4 168 33 78 39 155 113 171 166 9 31 8 44 -5 72
-9 19 -21 35 -26 35 -5 0 -16 7 -25 15 -9 10 -17 11 -21 5z"/>
<path d="M5720 4580 c-41 -10 -104 -18 -140 -18 -137 0 -171 -6 -196 -36 -28
-31 -30 -53 -10 -101 25 -58 82 -71 248 -54 228 22 312 77 277 178 -20 56 -53
61 -179 31z"/>
</g>
</svg>
