<?xml version="1.0" standalone="no"?>
<!DOCTYPE svg PUBLIC "-//W3C//DTD SVG 20010904//EN"
 "http://www.w3.org/TR/2001/REC-SVG-20010904/DTD/svg10.dtd">
<svg version="1.0" xmlns="http://www.w3.org/2000/svg"
 width="1024.000000pt" height="1024.000000pt" viewBox="0 0 1024.000000 1024.000000"
 preserveAspectRatio="xMidYMid meet">
<metadata>
Created by potrace 1.16, written by Peter Selinger 2001-2019
</metadata>
<g transform="translate(0.000000,1024.000000) scale(0.100000,-0.100000)"
fill="#000000" stroke="none">
<path d="M5030 6900 c-36 -10 -213 -57 -395 -105 -181 -47 -395 -104 -475
-124 -80 -21 -329 -87 -555 -145 -480 -126 -512 -135 -531 -153 -12 -12 -14
-179 -14 -1087 0 -820 3 -1075 12 -1084 29 -29 24 -31 1213 383 121 42 249 87
285 100 271 95 536 185 548 185 11 0 648 -217 982 -335 414 -146 1008 -345
1030 -345 15 0 33 6 39 14 8 10 10 302 9 1086 l-3 1073 -25 18 c-30 22 -743
214 -1825 490 -104 27 -199 49 -210 48 -11 0 -49 -9 -85 -19z m50 -129 c0 -33
-3 -62 -8 -65 -7 -4 -303 -89 -572 -164 -300 -84 -666 -187 -1003 -283 -192
-54 -353 -99 -358 -99 -14 0 -11 146 4 157 6 6 109 35 227 66 118 31 366 97
550 146 184 49 398 105 475 125 77 20 259 67 405 105 146 38 268 70 273 70 4
1 7 -26 7 -58z m185 34 c81 -19 854 -219 945 -245 45 -13 437 -117 695 -185
l200 -52 0 -79 c0 -47 -4 -79 -10 -78 -9 1 -175 48 -1100 309 -181 51 -440
124 -575 161 -135 37 -251 72 -258 77 -7 6 -12 27 -11 52 2 37 5 42 23 37 21
-4 21 -4 1 12 l-20 17 20 -5 c11 -3 52 -13 90 -21z m-185 -909 l0 -724 -62
-20 c-35 -11 -398 -133 -808 -272 -792 -267 -871 -293 -873 -288 -1 2 -1 350
1 774 l3 771 427 121 c235 66 524 148 642 181 118 33 310 87 425 120 116 33
218 60 228 60 16 1 17 -40 17 -723z m338 658 c231 -63 478 -133 692 -194 58
-17 251 -71 430 -121 179 -49 335 -94 348 -99 l22 -10 0 -770 c0 -423 -3 -770
-6 -770 -3 0 -202 66 -442 147 -240 81 -633 213 -872 293 l-435 145 -3 710
c-1 391 0 716 3 723 2 6 9 12 15 12 6 0 117 -30 248 -66z m-2158 -1219 l0
-774 -52 -16 c-28 -8 -58 -15 -65 -15 -11 0 -13 137 -11 773 l3 772 50 17 c28
9 56 17 63 18 9 0 12 -161 12 -775z m3785 762 c47 -13 50 -15 57 -53 4 -21 7
-371 7 -776 0 -829 8 -754 -76 -722 l-43 17 0 131 c-4 1020 -4 1416 0 1416 3
0 27 -6 55 -13z m-1965 -1081 l0 -74 -72 -26 c-40 -14 -197 -69 -348 -121
-844 -294 -1310 -455 -1316 -455 -2 0 -4 38 -4 84 l0 85 153 50 c83 28 472
158 862 290 391 132 713 240 718 240 4 1 7 -32 7 -73z m725 -141 c352 -118
744 -250 870 -293 l230 -77 3 -84 c3 -77 1 -83 -15 -77 -38 15 -671 233 -788
271 -22 7 -139 48 -260 90 -121 42 -283 98 -360 125 -77 26 -183 63 -235 82
l-95 33 -3 73 c-2 39 0 72 4 72 5 0 297 -97 649 -215z m-2545 -473 l0 -88 -52
-19 c-29 -10 -59 -20 -65 -23 -10 -3 -13 18 -13 85 l0 89 63 20 c34 12 63 22
65 22 1 1 2 -38 2 -86z m3786 61 c52 -16 53 -17 59 -64 6 -44 -1 -129 -11
-129 -2 0 -28 11 -59 24 l-55 25 0 80 c0 45 3 81 7 81 3 0 30 -7 59 -17z"/>
<path d="M4034 5946 c-92 -107 -172 -194 -178 -193 -6 1 -10 -4 -8 -11 1 -7
-38 -60 -88 -117 -49 -58 -90 -113 -90 -124 0 -18 18 -31 45 -31 12 0 434 480
522 594 35 46 31 76 -12 76 -18 0 -60 -43 -191 -194z"/>
<path d="M3840 6008 c-25 -29 -85 -98 -135 -153 -173 -193 -197 -223 -193
-246 2 -12 11 -27 21 -33 15 -9 23 -6 44 19 14 17 96 108 182 204 180 200 190
214 175 239 -21 33 -48 25 -94 -30z"/>
<path d="M5729 6251 c-13 -10 -30 -17 -37 -15 -7 1 -8 0 -1 -3 19 -9 -60 -81
-84 -77 -19 4 -20 3 -3 -4 16 -7 4 -21 -80 -101 -54 -51 -102 -99 -107 -106
-10 -18 13 -55 34 -55 19 0 349 317 349 335 0 15 -27 45 -39 45 -5 0 -19 -8
-32 -19z"/>
<path d="M5782 6022 c-196 -190 -219 -222 -172 -237 25 -8 36 1 253 208 92 88
167 168 167 177 0 20 -19 40 -39 40 -9 -1 -103 -85 -209 -188z"/>
</g>
</svg>
