<?xml version="1.0" standalone="no"?>
<!DOCTYPE svg PUBLIC "-//W3C//DTD SVG 20010904//EN"
 "http://www.w3.org/TR/2001/REC-SVG-20010904/DTD/svg10.dtd">
<svg version="1.0" xmlns="http://www.w3.org/2000/svg"
 width="1024.000000pt" height="1024.000000pt" viewBox="0 0 1024.000000 1024.000000"
 preserveAspectRatio="xMidYMid meet">
<metadata>
Created by potrace 1.16, written by Peter Selinger 2001-2019
</metadata>
<g transform="translate(0.000000,1024.000000) scale(0.100000,-0.100000)"
fill="#000000" stroke="none">
<path d="M5580 8819 c-107 -12 -232 -43 -323 -80 -39 -15 -75 -25 -80 -22 -6
3 -7 1 -4 -4 8 -13 -20 -26 -35 -16 -7 4 -8 1 -3 -7 6 -10 4 -12 -9 -7 -9 4
-15 3 -12 -2 8 -12 -44 -45 -67 -44 -9 1 -15 -2 -12 -7 7 -11 -35 -41 -47 -34
-5 3 -7 2 -6 -3 4 -14 -53 -63 -65 -56 -5 3 -7 2 -4 -4 4 -5 -8 -23 -25 -39
-17 -16 -58 -63 -91 -104 -33 -41 -63 -74 -67 -73 -4 1 -7 -3 -7 -10 0 -7 -18
-41 -40 -77 -90 -149 -143 -311 -164 -497 -10 -87 -9 -141 6 -326 11 -139 15
-256 11 -312 -7 -90 -37 -250 -46 -241 -3 2 -5 -10 -6 -28 -1 -40 -63 -198
-75 -190 -5 3 -6 -2 -3 -10 5 -13 -30 -96 -42 -96 -3 0 -2 6 2 13 5 8 2 8 -9
-2 -18 -15 -23 -26 -7 -16 16 10 12 -6 -17 -54 -43 -76 -114 -162 -125 -155
-7 4 -8 2 -4 -5 10 -15 -2 -30 -97 -113 -43 -38 -83 -66 -89 -62 -6 4 -8 3 -5
-3 9 -15 -68 -64 -90 -57 -14 4 -15 4 -4 -4 18 -13 -279 -165 -306 -156 -13 4
-14 3 -5 -3 9 -7 -9 -19 -65 -44 -43 -19 -84 -32 -91 -31 -8 2 -11 -1 -8 -7 4
-6 -21 -24 -56 -42 -89 -45 -282 -168 -355 -228 -33 -27 -65 -46 -69 -43 -4 4
-4 2 -1 -4 4 -7 -12 -26 -36 -44 -23 -18 -57 -53 -75 -77 -18 -24 -37 -41 -43
-38 -5 4 -8 2 -7 -3 5 -16 -63 -103 -74 -96 -6 4 -8 2 -5 -3 7 -11 -55 -122
-74 -134 -6 -3 -9 -8 -7 -10 5 -7 -34 -89 -41 -85 -3 2 -7 -6 -8 -17 -1 -12
-22 -82 -47 -155 -44 -127 -90 -330 -116 -512 -6 -47 -14 -92 -17 -100 -3 -8
-6 -31 -8 -51 -7 -82 -39 -304 -44 -309 -3 -3 -6 -23 -7 -45 -2 -85 -17 -184
-27 -178 -7 4 -8 -1 -3 -13 11 -29 -45 -457 -61 -467 -7 -4 -13 -16 -12 -25 0
-14 2 -14 10 3 7 14 8 6 4 -29 -3 -27 -5 -61 -5 -75 0 -21 -2 -23 -11 -11 -8
11 -9 4 -5 -27 3 -22 -5 -128 -19 -235 -14 -106 -30 -236 -36 -288 -6 -52 -13
-102 -16 -110 -4 -8 -5 -19 -4 -24 5 -20 -53 -481 -60 -484 -4 -2 -6 -9 -3
-17 3 -7 -2 -75 -11 -150 -17 -128 -17 -137 -1 -154 17 -18 16 -19 -1 -23 -10
-2 7 -5 37 -5 34 -1 64 4 77 12 24 16 26 25 43 175 123 1082 323 2613 371
2845 44 212 146 504 171 488 7 -3 8 -1 4 6 -20 31 174 268 315 385 58 47 82
59 58 29 -12 -16 -12 -17 2 -6 9 7 20 9 25 5 4 -4 3 1 -4 10 -12 14 -6 21 45
56 97 65 152 94 164 86 8 -4 9 -3 5 4 -9 14 130 86 147 76 7 -4 9 -4 5 1 -8 8
430 231 445 227 5 -1 6 2 3 7 -7 11 22 23 35 15 5 -3 8 0 7 8 -2 7 5 12 14 12
10 -1 16 2 15 6 -1 4 23 26 53 50 30 24 96 84 145 134 50 50 94 89 98 88 5 -1
6 2 2 7 -3 6 15 39 40 73 58 78 166 296 200 402 68 212 86 412 61 684 -20 222
-11 400 26 490 6 15 12 36 13 48 5 34 52 139 63 139 6 0 14 4 19 9 5 5 3 6 -4
2 -7 -4 -13 -3 -13 1 0 14 68 123 112 180 80 105 255 252 280 237 7 -4 8 -3 4
4 -9 15 67 54 91 46 13 -4 15 -3 5 4 -11 7 -10 10 3 16 9 3 22 3 27 -1 6 -3 8
-1 4 5 -6 11 32 25 154 59 52 14 104 18 265 18 176 0 211 -3 293 -24 58 -14
90 -27 86 -33 -4 -6 -2 -8 3 -5 16 10 74 -13 66 -26 -3 -5 -1 -7 5 -3 18 11
81 -25 75 -43 -4 -13 -3 -13 5 -2 10 14 36 6 27 -9 -3 -4 3 -7 12 -6 10 0 18
-5 18 -13 0 -8 7 -16 15 -18 13 -4 13 -3 0 6 -8 6 -11 11 -6 11 26 0 189 -147
179 -163 -3 -5 -2 -7 4 -4 13 8 54 -35 57 -59 2 -11 8 -19 15 -19 19 0 122
-165 104 -165 -5 0 -1 -5 8 -10 9 -5 29 -39 45 -76 23 -55 25 -67 13 -76 -12
-8 -11 -9 2 -5 13 4 21 -10 37 -66 46 -157 54 -307 27 -443 -19 -90 -36 -131
-104 -249 -76 -133 -91 -190 -91 -352 0 -150 -11 -211 -46 -248 -21 -23 -30
-25 -109 -25 -66 0 -84 3 -79 13 4 6 -1 5 -12 -4 -10 -8 -31 -20 -45 -26 -18
-8 -34 -29 -50 -67 -12 -31 -26 -56 -31 -56 -4 0 -5 -6 -3 -13 8 -20 -63 -159
-76 -151 -7 4 -9 3 -5 -4 7 -11 -72 -107 -116 -142 -15 -12 -33 -18 -39 -14
-8 4 -9 3 -5 -5 5 -8 -15 -22 -61 -43 l-68 -30 -53 28 c-115 62 -174 147 -192
276 -11 81 -31 108 -81 108 -27 0 -67 -31 -71 -54 -6 -38 -1 -133 6 -128 5 3
7 -4 4 -16 -3 -12 -1 -23 6 -26 7 -3 6 -8 -4 -15 -13 -9 -13 -11 1 -11 19 0
60 -84 53 -107 -4 -13 -3 -14 3 -5 8 10 12 10 22 -2 7 -8 10 -20 6 -25 -3 -7
0 -8 9 -5 9 3 16 1 16 -4 0 -6 20 -26 45 -45 24 -19 41 -38 37 -42 -4 -5 -2
-5 4 -2 7 4 23 -2 36 -12 13 -11 40 -27 59 -35 18 -9 26 -14 16 -11 -11 3 -16
1 -12 -6 4 -6 13 -8 21 -5 19 7 170 -60 153 -68 -8 -3 -4 -3 7 -1 12 3 28 0
35 -7 8 -7 19 -13 24 -13 27 -1 84 -28 79 -37 -4 -7 -2 -8 5 -4 17 11 255 -85
239 -97 -9 -6 -7 -7 6 -3 22 7 148 -42 141 -54 -3 -4 2 -11 11 -14 8 -3 12 -2
9 4 -9 15 -2 13 79 -26 42 -20 73 -40 71 -45 -3 -4 0 -11 6 -15 8 -4 9 -3 5 4
-10 16 -1 15 37 -4 70 -37 177 -115 171 -126 -5 -7 -2 -8 5 -3 16 9 133 -103
124 -118 -3 -6 -1 -7 4 -4 13 8 86 -70 78 -84 -4 -5 -1 -8 5 -7 16 4 122 -173
116 -195 -2 -9 0 -15 4 -12 12 8 33 -33 26 -51 -3 -8 -2 -13 3 -10 5 3 28 -42
51 -102 23 -59 50 -128 61 -154 22 -53 23 -62 9 -53 -5 3 -10 1 -10 -4 0 -6 6
-11 14 -11 8 0 19 -14 25 -31 14 -41 14 -52 -1 -43 -7 4 -8 3 -4 -5 4 -6 12
-8 18 -5 7 5 9 0 6 -14 -4 -12 -3 -20 2 -17 4 3 25 -43 46 -103 20 -59 43
-122 51 -141 7 -18 10 -37 7 -42 -3 -5 -1 -9 4 -9 12 0 44 -108 36 -122 -4 -6
-3 -8 4 -4 13 8 56 -120 46 -137 -4 -7 -3 -9 1 -4 10 9 78 -171 69 -184 -3 -5
-1 -9 4 -9 5 0 12 -10 15 -22 2 -13 36 -115 75 -228 79 -231 89 -263 73 -240
-12 17 -15 1 -5 -25 4 -11 9 -13 13 -6 6 10 38 -73 77 -197 10 -32 10 -41 1
-35 -9 5 -9 3 0 -9 7 -8 9 -19 5 -23 -4 -5 -2 -5 5 -1 14 8 27 -28 17 -46 -4
-7 -3 -10 1 -5 5 4 19 -23 32 -60 22 -63 31 -110 13 -68 -7 16 -9 17 -9 3 -1
-28 11 -51 19 -38 4 7 21 -27 39 -83 34 -101 53 -127 93 -127 34 0 78 36 78
63 0 13 -36 130 -80 261 -44 131 -77 243 -74 247 3 5 1 9 -5 9 -9 0 -73 186
-75 220 -1 8 -4 17 -7 20 -15 11 -78 220 -72 236 4 11 3 15 -4 11 -11 -7 -77
169 -76 203 0 8 -3 17 -7 20 -3 3 -18 39 -33 80 -14 41 -73 208 -131 370 -57
162 -132 367 -167 455 -34 88 -62 173 -62 188 0 21 -2 25 -9 15 -7 -9 -8 -6
-5 10 3 13 3 21 -1 17 -3 -3 -30 45 -59 106 -41 86 -50 115 -41 122 9 6 8 7
-3 4 -12 -4 -26 8 -46 41 -55 87 -157 205 -230 265 -40 33 -70 64 -67 69 3 4
2 8 -3 7 -21 -4 -34 2 -27 13 4 6 3 8 -3 5 -11 -7 -112 55 -125 76 -4 7 -8 9
-8 4 0 -4 -51 18 -112 49 -62 32 -168 80 -236 109 -67 28 -119 55 -115 60 5 4
2 5 -5 1 -14 -8 -254 81 -260 96 -2 5 -8 6 -13 2 -5 -3 -9 0 -9 5 0 6 4 11 9
11 18 0 148 111 181 154 18 25 38 42 44 39 6 -3 8 -3 4 2 -4 4 10 40 32 79 21
39 48 96 59 126 19 52 23 55 56 58 27 1 34 -1 29 -10 -6 -10 -4 -11 7 0 7 6
30 12 51 12 21 0 60 11 87 25 27 13 52 21 56 17 5 -4 5 -2 2 5 -4 6 5 21 20
33 16 12 27 24 25 26 -1 2 4 17 12 32 24 46 36 140 34 262 -2 111 7 185 20
176 4 -2 7 9 8 25 1 34 63 141 77 132 5 -3 8 0 5 8 -2 7 12 50 33 94 50 109
69 200 69 337 0 196 -36 343 -130 533 -102 208 -209 348 -365 478 -33 28 -59
55 -57 60 1 4 -2 6 -8 2 -13 -8 -52 19 -42 29 4 4 2 7 -3 6 -22 -5 -36 1 -29
12 4 7 3 8 -4 4 -6 -4 -37 6 -69 22 -32 16 -81 37 -110 47 -29 10 -50 21 -48
25 2 4 -10 5 -28 2 -21 -2 -28 0 -19 6 8 6 2 8 -20 8 -18 0 -62 5 -98 12 -95
16 -273 22 -370 11z"/>
<path d="M4043 5423 c-3 -7 -11 -13 -17 -13 -7 0 -33 -13 -58 -29 -25 -16 -50
-26 -54 -23 -4 4 -4 2 -1 -4 8 -14 -26 -47 -38 -37 -4 5 -5 3 -1 -4 3 -6 -4
-19 -16 -28 -13 -8 -23 -19 -22 -23 0 -4 -11 -32 -25 -62 -23 -48 -26 -72 -30
-190 -4 -101 -7 -122 -12 -85 l-6 50 -1 -58 c-1 -37 2 -56 8 -52 6 4 10 -8 10
-30 0 -22 -4 -34 -10 -30 -6 4 -10 -7 -10 -24 0 -17 5 -31 10 -31 6 0 9 -17 9
-37 l-2 -38 -7 35 c-6 31 -7 28 -7 -20 0 -37 2 -48 8 -35 4 12 7 -12 7 -60 -1
-73 -2 -75 -8 -30 l-7 50 -1 -52 c-1 -29 2 -53 7 -53 5 0 12 -57 15 -127 8
-158 9 -172 17 -167 3 2 11 -8 18 -23 11 -23 10 -25 -3 -13 -9 7 -16 8 -16 3
0 -5 12 -15 26 -22 17 -7 24 -17 20 -27 -3 -8 -2 -12 3 -9 5 3 12 1 16 -5 3
-5 -2 -10 -11 -10 -19 0 -13 -10 8 -14 7 -1 28 -12 46 -25 28 -20 31 -25 20
-39 -12 -15 -11 -16 5 -3 18 14 32 9 32 -11 0 -6 7 -13 15 -15 13 -4 13 -3 0
7 -12 10 -12 11 5 5 95 -34 108 -35 550 -35 l442 -1 17 -35 c9 -19 13 -41 10
-47 -4 -7 -3 -9 1 -4 11 9 57 -72 48 -86 -3 -6 -1 -7 5 -3 17 10 15 -19 -4
-55 -18 -36 -46 -171 -33 -163 5 3 9 -8 9 -24 0 -16 13 -55 29 -87 17 -33 27
-63 24 -68 -3 -6 -1 -7 4 -4 6 4 29 -21 53 -56 23 -34 32 -51 21 -38 -12 13
-21 18 -21 12 0 -6 13 -20 30 -32 40 -30 103 -124 68 -103 -7 4 -8 3 -4 -5 4
-6 11 -9 16 -6 5 3 18 -8 29 -23 16 -23 18 -32 8 -42 -10 -10 -9 -12 5 -7 23
8 79 -71 73 -102 -2 -11 1 -21 7 -21 6 0 7 8 3 18 -9 24 3 9 60 -71 34 -50 44
-71 37 -80 -8 -9 -8 -17 0 -27 8 -12 9 -12 4 2 -3 10 -1 20 3 22 12 8 73 -82
65 -96 -4 -6 -3 -8 3 -5 11 7 66 -69 66 -90 0 -7 4 -10 7 -8 9 6 63 -74 63
-92 0 -7 4 -10 8 -8 8 6 45 -46 41 -58 -1 -5 2 -6 7 -2 11 6 58 -52 53 -67 -1
-5 2 -7 7 -4 5 3 29 -10 53 -30 54 -45 55 -46 43 -42 -6 2 -11 0 -12 -5 -6
-16 -2 -19 11 -8 11 9 24 7 57 -11 24 -13 100 -45 169 -73 75 -31 125 -56 125
-65 0 -7 7 -15 15 -17 13 -4 13 -3 0 6 -8 6 -10 11 -5 11 20 -1 106 -71 99
-82 -4 -6 -3 -8 3 -5 13 8 56 -37 46 -47 -5 -4 -1 -6 7 -4 8 2 14 -3 12 -10
-1 -8 1 -11 6 -8 5 3 69 -55 143 -129 74 -74 142 -142 151 -151 13 -12 15 -21
7 -30 -7 -8 -7 -14 1 -19 6 -4 9 -1 8 6 -7 29 21 15 67 -32 28 -29 44 -48 36
-44 -10 5 -12 4 -7 -4 4 -6 11 -9 15 -7 12 8 64 -51 57 -63 -4 -6 -2 -11 3
-11 6 0 11 5 11 10 0 7 7 7 21 0 14 -8 29 -8 49 -2 19 7 32 7 41 -1 10 -10 11
-9 2 3 -8 10 -9 21 -3 30 22 34 11 68 -40 116 -27 26 -46 52 -43 57 4 6 1 7
-6 3 -16 -10 -313 282 -304 298 3 6 2 8 -2 4 -5 -5 -56 38 -114 95 -127 123
-168 152 -286 201 -191 78 -273 125 -343 196 -80 80 -226 285 -216 302 4 6 3
8 -3 5 -10 -6 -128 157 -121 167 1 3 -7 13 -20 22 -13 9 -21 22 -18 30 3 8 1
13 -3 11 -8 -2 -261 345 -261 358 0 3 5 3 12 -1 7 -4 8 -3 4 5 -4 6 -11 9 -16
6 -11 -7 -42 43 -34 57 4 7 3 8 -4 4 -6 -3 -15 2 -21 12 -13 24 -13 134 0 126
6 -3 8 -12 5 -19 -3 -8 3 -19 12 -27 16 -12 16 -11 3 7 -8 11 13 -9 46 -45 34
-36 59 -69 56 -74 -4 -5 -1 -6 4 -3 13 8 155 -147 145 -158 -4 -5 -2 -5 5 -2
6 4 29 -14 53 -43 23 -27 39 -50 35 -50 -4 0 -2 -7 5 -15 7 -8 16 -13 20 -10
4 3 23 -14 43 -38 66 -81 121 -87 156 -18 25 47 23 49 -100 176 -106 109 -164
175 -164 186 0 5 -4 9 -10 10 -18 1 -56 43 -50 57 2 7 0 10 -5 7 -16 -10 -224
220 -214 237 4 6 3 8 -3 5 -13 -8 -47 41 -46 66 1 9 -2 15 -7 12 -5 -3 -16 8
-25 25 -8 16 -12 30 -8 30 5 0 2 4 -5 8 -7 5 16 6 50 4 l63 -5 65 -70 c36 -38
64 -74 62 -79 -1 -5 1 -7 6 -4 12 7 204 -188 195 -199 -4 -4 -3 -5 3 -2 14 8
57 -36 47 -48 -5 -4 -3 -5 3 -2 6 4 71 -55 148 -133 111 -114 142 -140 164
-140 26 0 57 23 76 57 10 19 -18 75 -57 112 -20 19 -33 39 -30 44 3 6 2 7 -4
4 -6 -4 -75 59 -154 139 -79 80 -167 168 -196 196 -29 28 -50 55 -46 61 3 6 2
7 -4 4 -13 -8 -166 147 -156 158 4 4 3 5 -4 1 -14 -8 -63 53 -63 78 0 30 32
74 57 79 24 4 48 -14 35 -28 -4 -5 -2 -5 4 -2 14 8 297 -276 287 -288 -4 -4
-3 -5 3 -2 14 8 107 -86 97 -98 -5 -4 -3 -5 3 -2 6 3 44 -28 84 -68 67 -67 75
-81 47 -76 -5 1 -5 -4 -2 -10 5 -8 10 -8 18 0 8 8 34 -12 93 -69 89 -87 111
-96 158 -59 34 26 34 68 1 107 -13 16 -21 33 -17 37 4 5 2 5 -4 2 -12 -7 -87
65 -79 76 3 4 2 5 -2 2 -10 -8 -163 147 -156 158 3 6 2 7 -4 4 -13 -8 -86 67
-76 78 5 4 3 5 -3 2 -14 -8 -87 66 -77 78 5 4 3 5 -3 2 -16 -9 -119 99 -104
108 7 4 16 2 20 -5 5 -9 9 -9 14 -1 4 6 4 11 -1 12 -4 0 2 4 15 10 28 11 75 1
65 -14 -4 -6 -1 -7 6 -2 17 10 71 -43 64 -64 -3 -12 -2 -13 4 -3 7 9 23 -2 64
-43 30 -31 53 -61 51 -66 -1 -6 2 -8 6 -5 12 7 44 -28 35 -39 -5 -4 -3 -5 3
-2 6 4 20 -3 30 -16 19 -21 19 -21 -1 -7 -18 14 -19 14 -6 -2 7 -10 17 -16 21
-13 11 7 41 -30 33 -39 -5 -4 -1 -6 7 -4 8 1 14 -3 12 -10 -1 -6 4 -11 10 -10
7 2 12 -3 10 -10 -1 -6 2 -11 7 -10 12 4 151 -180 187 -246 15 -27 22 -46 16
-42 -6 3 -13 2 -17 -4 -3 -5 3 -10 14 -10 13 0 26 -12 36 -30 27 -52 87 -67
120 -30 10 11 21 17 25 15 17 -10 -9 66 -41 122 -30 53 -108 167 -148 219 -9
11 3 0 27 -25 23 -25 74 -92 112 -149 52 -77 69 -110 65 -126 -5 -15 -4 -17 3
-7 14 19 26 -5 24 -45 -2 -18 3 -36 9 -40 9 -5 10 1 6 22 -9 40 51 -76 74
-145 11 -30 17 -64 14 -75 -3 -12 -2 -15 1 -8 3 7 24 -40 45 -104 33 -97 37
-119 27 -133 -11 -14 -11 -14 3 -4 16 13 29 8 29 -9 0 -5 -4 -6 -10 -3 -16 10
-11 -1 7 -16 14 -12 16 -12 9 1 -4 8 1 4 12 -10 12 -14 19 -27 16 -29 -2 -2 4
-10 14 -18 9 -8 11 -11 3 -7 -10 5 -12 3 -7 -5 5 -7 10 -10 13 -7 7 6 88 -64
88 -76 0 -5 2 -7 5 -6 11 3 50 -24 45 -31 -2 -5 3 -15 12 -22 12 -10 14 -10 9
-1 -12 21 10 13 38 -13 14 -13 27 -24 29 -23 8 6 96 -56 90 -64 -3 -7 -1 -8 5
-4 15 9 243 -114 235 -127 -3 -6 -1 -7 5 -3 14 9 163 -65 155 -77 -3 -6 -1 -7
5 -4 16 10 42 -3 43 -22 0 -10 2 -11 6 -4 3 10 11 9 33 -2 18 -9 30 -11 32 -4
2 5 13 11 25 12 12 0 21 4 21 7 -2 13 15 39 23 35 10 -7 -10 55 -25 74 -6 8
-46 31 -89 52 -42 20 -74 39 -70 41 5 3 3 3 -4 2 -18 -4 -224 106 -218 117 4
5 0 7 -7 4 -14 -6 -182 88 -173 96 3 3 -1 6 -8 6 -19 0 -95 53 -159 112 -68
62 -103 126 -139 257 -47 167 -158 397 -265 547 -19 26 -32 52 -29 58 4 5 2 8
-3 7 -5 -2 -44 34 -86 80 -42 45 -76 80 -76 76 0 -3 -14 5 -31 17 -37 26 -112
37 -134 19 -19 -15 -15 -19 -179 145 -66 66 -119 123 -118 127 1 4 -6 4 -15 1
-12 -5 -14 -3 -8 7 5 9 4 11 -3 6 -6 -4 -26 1 -44 10 -28 15 -185 37 -172 25
7 -7 -77 -41 -87 -35 -5 3 -8 0 -7 -8 5 -20 -36 -21 -55 -1 -15 17 -16 63 -17
443 -1 285 -5 419 -12 409 -7 -10 -8 -7 -5 14 2 15 2 25 -1 23 -2 -3 -20 20
-39 52 -18 31 -44 67 -58 78 -13 12 -21 25 -17 29 4 4 2 5 -3 4 -14 -5 -75 33
-69 42 2 4 -1 11 -7 15 -8 4 -9 3 -5 -4 9 -16 -1 -15 -55 3 -60 20 -1189 27
-1196 8z m1179 -166 c46 -20 86 -60 108 -109 18 -40 20 -69 20 -405 l0 -361
-35 -12 c-18 -6 -50 -22 -69 -35 -19 -13 -37 -20 -41 -17 -4 4 -5 2 -4 -3 2
-6 -7 -29 -19 -52 -13 -26 -22 -60 -22 -88 l0 -46 -527 3 c-523 3 -528 3 -569
25 -54 29 -112 97 -121 142 -5 20 -8 209 -8 421 0 356 1 388 19 420 25 47 67
91 79 83 6 -3 7 -1 3 5 -10 17 33 35 104 42 36 4 286 5 557 4 397 -2 498 -6
525 -17z"/>
<path d="M4336 5015 c-47 -55 -50 -108 -8 -147 38 -35 58 -40 96 -24 68 28 86
102 37 155 -15 16 -27 32 -26 33 2 2 -16 3 -39 3 -30 0 -48 -6 -60 -20z"/>
<path d="M4875 5031 c3 -2 -7 -17 -20 -33 -15 -17 -25 -43 -26 -61 0 -27 -2
-29 -9 -12 -6 13 -9 15 -9 5 -1 -8 17 -32 39 -52 52 -49 98 -52 141 -9 34 35
38 78 10 131 -18 32 -21 34 -74 35 -31 0 -54 -1 -52 -4z"/>
<path d="M4375 4540 c6 -9 -10 -14 -43 -13 -7 1 -11 -1 -8 -4 3 -3 -1 -15 -9
-27 -21 -29 -19 -89 5 -118 10 -14 17 -28 14 -30 -3 -3 2 -8 11 -12 9 -3 14
-2 11 2 -2 4 14 8 37 9 58 2 77 5 72 13 -2 4 2 16 10 26 17 22 20 90 4 99 -6
4 -8 14 -4 23 3 9 3 14 0 10 -3 -3 -29 3 -56 13 -28 11 -48 15 -44 9z"/>
<path d="M4895 4529 c-35 -10 -64 -45 -66 -79 -1 -23 -2 -23 -9 5 l-8 30 -1
-32 c0 -18 3 -33 7 -33 5 0 15 -12 22 -26 8 -14 23 -30 35 -37 24 -12 96 -27
92 -18 -4 7 50 60 56 55 6 -6 -9 78 -17 98 -6 14 -66 50 -78 47 -1 0 -16 -5
-33 -10z"/>
<path d="M2840 4332 c-34 -16 -35 -19 -34 -72 2 -99 9 -188 14 -185 10 6 72
-450 66 -480 -5 -24 -4 -26 3 -10 9 19 10 18 10 -5 1 -14 4 -43 8 -64 4 -28 3
-37 -5 -32 -16 10 -15 1 1 -16 15 -15 112 -660 103 -683 -4 -10 -2 -14 5 -9 8
4 10 -6 7 -34 -2 -22 -1 -39 2 -36 10 11 83 -581 100 -816 6 -80 9 -175 8
-213 -2 -37 0 -67 3 -67 3 0 5 -16 4 -35 0 -18 1 -32 3 -31 2 2 14 -7 27 -20
51 -51 128 -17 127 56 0 116 -29 454 -63 735 -30 257 -172 1258 -257 1813 -18
117 -24 182 -18 182 6 0 -9 9 -33 20 -51 24 -39 23 -81 2z"/>
</g>
</svg>
