<?xml version="1.0" standalone="no"?>
<!DOCTYPE svg PUBLIC "-//W3C//DTD SVG 20010904//EN"
 "http://www.w3.org/TR/2001/REC-SVG-20010904/DTD/svg10.dtd">
<svg version="1.0" xmlns="http://www.w3.org/2000/svg"
 width="1024.000000pt" height="1024.000000pt" viewBox="0 0 1024.000000 1024.000000"
 preserveAspectRatio="xMidYMid meet">
<metadata>
Created by potrace 1.16, written by Peter Selinger 2001-2019
</metadata>
<g transform="translate(0.000000,1024.000000) scale(0.100000,-0.100000)"
fill="#000000" stroke="none">
<path d="M5015 8354 c-27 -14 -55 -30 -62 -36 -7 -5 -17 -7 -23 -3 -6 4 -9 2
-8 -3 2 -5 -22 -29 -52 -53 -30 -24 -91 -79 -135 -123 -44 -44 -84 -79 -90
-77 -5 1 -7 -1 -3 -5 4 -4 -14 -34 -41 -68 -26 -34 -60 -80 -76 -103 -15 -24
-32 -40 -37 -37 -5 3 -8 0 -6 -7 3 -17 -54 -119 -63 -113 -4 2 -11 -1 -15 -7
-4 -8 -3 -9 4 -5 18 11 15 1 -17 -62 -15 -31 -34 -74 -40 -95 -7 -20 -16 -35
-21 -32 -4 3 -6 -4 -3 -15 5 -19 1 -18 -58 10 -133 62 -206 61 -293 -5 -24
-18 -48 -30 -52 -27 -4 4 -4 2 0 -5 8 -14 -51 -99 -66 -95 -5 1 -7 -2 -4 -7 4
-5 -8 -33 -25 -62 -35 -61 -89 -187 -115 -274 -10 -33 -21 -62 -24 -65 -3 -3
-5 -16 -6 -30 -1 -14 -6 -80 -13 -147 -9 -92 -9 -147 0 -230 6 -59 12 -120 13
-134 2 -14 5 -30 8 -35 3 -5 8 -22 12 -37 6 -25 4 -27 -11 -19 -10 5 -44 15
-75 22 -32 7 -58 16 -58 20 0 4 -49 7 -109 6 -61 0 -109 -2 -107 -3 2 -2 -16
-22 -39 -46 -72 -71 -106 -218 -106 -447 0 -193 29 -364 86 -516 14 -37 23
-74 20 -82 -2 -7 -1 -10 5 -7 12 8 63 -101 54 -116 -4 -7 -3 -9 4 -5 6 3 13 2
17 -4 4 -6 -14 -10 -48 -10 -76 0 -167 -18 -205 -42 -57 -35 -67 -66 -67 -215
0 -73 2 -133 5 -133 9 0 31 -131 24 -142 -4 -6 -3 -8 3 -5 14 9 29 -50 28
-111 -1 -29 1 -48 5 -41 4 6 10 7 12 3 3 -5 3 -3 1 4 -14 55 -11 59 10 12 13
-30 42 -92 65 -136 23 -45 40 -83 39 -85 -1 -2 0 -3 2 -2 9 6 38 -52 29 -58
-5 -3 -1 -12 8 -20 15 -12 17 -12 9 0 -6 10 -4 12 4 7 7 -5 10 -15 7 -23 -3
-8 -2 -12 3 -9 5 3 33 -27 64 -67 78 -104 203 -225 342 -329 66 -50 119 -95
117 -100 -1 -5 2 -7 7 -3 14 8 161 -77 161 -92 0 -7 5 -13 11 -13 5 0 7 5 4
10 -4 6 27 -6 68 -26 49 -25 73 -42 70 -51 -3 -7 -1 -13 5 -13 6 0 19 -3 29
-6 16 -6 16 -5 -2 10 -26 23 -31 25 251 -88 277 -110 380 -162 362 -183 -9
-11 -5 -13 23 -12 41 3 62 -8 55 -27 -3 -8 -1 -14 4 -14 6 0 10 5 10 10 0 6
27 -8 61 -31 l61 -41 -7 -76 c-15 -160 -109 -557 -129 -545 -5 3 -6 1 -2 -6 8
-13 -53 -181 -66 -181 -4 0 -5 7 -2 15 4 8 1 15 -5 15 -6 0 -11 -9 -11 -20 0
-11 4 -20 10 -20 5 0 0 -21 -11 -47 -28 -68 -142 -254 -149 -243 -3 4 -5 -22
-5 -60 0 -38 2 -66 4 -64 2 2 11 -2 19 -9 13 -10 14 -9 7 2 -6 11 -4 13 9 8
66 -26 110 -10 152 53 15 22 31 37 37 33 5 -3 7 -1 3 5 -3 6 18 57 48 114 89
168 175 410 218 610 12 58 26 105 29 102 4 -2 11 1 15 7 5 8 3 9 -6 4 -10 -6
-12 0 -7 31 39 270 36 257 69 286 17 15 36 24 42 21 6 -3 8 -3 4 2 -14 15 154
121 174 109 6 -4 8 -3 5 3 -11 18 303 150 326 137 6 -4 9 -3 4 1 -4 5 50 32
120 60 71 29 159 66 197 83 37 18 73 29 79 25 5 -3 7 -1 4 4 -8 13 20 26 35
16 6 -3 8 -2 5 3 -7 11 170 119 195 119 9 0 20 4 24 8 5 4 1 5 -9 1 -29 -11
-19 1 28 35 25 18 50 29 57 25 6 -4 8 -3 5 3 -8 13 80 86 95 77 6 -4 8 -3 5 3
-8 12 147 166 157 156 4 -4 6 -3 4 4 -2 6 14 32 36 58 143 173 265 414 310
612 16 70 40 255 36 281 -1 6 -2 30 -3 51 -1 22 -4 38 -6 36 -2 -3 -13 10 -25
27 -11 17 -32 39 -46 49 -27 20 -126 39 -200 39 l-46 0 43 88 c23 48 54 126
70 174 15 48 30 85 33 83 3 -2 5 11 6 28 0 18 8 77 17 132 24 143 22 341 -4
468 -26 128 -61 202 -114 238 -37 26 -45 27 -160 26 -66 -1 -106 -3 -90 -5 24
-3 16 -8 -44 -23 -41 -10 -76 -18 -78 -16 -1 2 5 37 14 78 22 104 23 541 1
505 -5 -6 -8 -2 -8 11 0 67 -101 321 -163 412 -17 25 -30 50 -30 58 0 7 -2 11
-5 8 -7 -7 -71 78 -66 87 3 5 2 7 -3 6 -4 -2 -24 7 -43 19 -55 33 -114 38
-192 13 -37 -11 -70 -25 -73 -31 -4 -5 -16 -7 -28 -4 -15 4 -18 3 -9 -3 11 -7
9 -10 -6 -14 -16 -5 -24 6 -47 66 -30 78 -101 217 -146 284 -16 24 -27 48 -23
53 3 5 1 8 -4 7 -5 -2 -46 43 -90 98 -86 108 -178 198 -277 272 -33 24 -59 49
-57 54 1 5 -1 7 -6 4 -5 -3 -30 6 -57 19 -65 34 -133 33 -200 -1z m174 -195
c33 -22 61 -43 61 -45 0 -3 -5 -2 -12 2 -7 4 -8 3 -4 -4 4 -7 15 -12 25 -12
11 0 66 -49 125 -111 81 -85 105 -116 101 -130 -4 -11 -2 -19 5 -19 6 0 8 6 4
13 -4 6 2 3 15 -7 12 -11 19 -26 16 -33 -2 -8 -1 -12 4 -9 9 6 66 -75 95 -134
17 -35 17 -35 -2 -11 -13 16 -19 19 -19 8 0 -9 11 -21 23 -27 23 -13 64 -88
104 -189 21 -54 20 -89 -1 -75 -7 4 -9 3 -6 -3 3 -5 -23 -38 -59 -74 -36 -35
-88 -93 -117 -129 -56 -72 -74 -93 -62 -71 5 10 4 12 -4 7 -6 -4 -9 -11 -6
-16 3 -5 -8 -28 -23 -52 -16 -24 -37 -58 -48 -76 -10 -18 -24 -30 -31 -28 -7
3 -13 1 -13 -4 0 -6 4 -10 10 -10 6 0 5 -10 -2 -25 -6 -13 -15 -22 -19 -19 -5
3 -7 -1 -4 -8 6 -17 -40 -130 -49 -121 -4 4 -4 0 0 -10 3 -9 2 -17 -2 -17 -5
0 -10 -10 -11 -23 -4 -42 -70 -247 -77 -240 -4 4 -4 0 -1 -9 3 -8 -10 -89 -30
-178 -20 -89 -39 -184 -42 -211 -3 -27 -9 -52 -13 -54 -9 -6 -53 212 -45 224
3 5 2 11 -3 13 -4 1 -22 68 -41 148 -58 251 -140 474 -222 602 -17 26 -27 53
-23 59 4 7 3 9 -3 6 -6 -4 -18 4 -27 18 -9 14 -14 25 -12 25 2 0 -8 13 -22 28
-75 79 -167 187 -165 194 2 4 0 7 -5 6 -11 -4 -72 44 -72 58 0 21 42 114 52
114 5 0 7 4 3 10 -8 13 64 152 133 256 75 111 191 246 205 237 5 -3 7 -2 4 4
-11 17 202 191 216 176 4 -3 7 -1 7 5 0 21 27 13 89 -29z m-953 -830 c30 -17
54 -33 54 -35 0 -3 -5 -2 -12 2 -7 4 -8 3 -4 -4 4 -6 13 -9 20 -6 16 6 30 -13
31 -41 1 -11 6 -19 13 -17 7 1 15 -5 18 -13 4 -8 13 -15 21 -15 10 0 6 7 -11
21 -15 12 -25 24 -21 27 7 7 66 -49 60 -58 -3 -4 3 -7 13 -6 9 0 16 -5 15 -11
-2 -7 3 -13 11 -13 20 0 46 -39 39 -59 -4 -14 -3 -14 6 -1 10 14 16 7 12 -13
-1 -5 3 -6 8 -3 13 8 94 -101 85 -115 -4 -7 -3 -9 3 -6 12 7 48 -43 82 -113
19 -39 19 -42 3 -21 -14 18 -21 21 -27 11 -5 -9 -4 -11 3 -6 8 5 12 0 12 -13
0 -14 6 -21 19 -21 15 0 27 -18 50 -79 18 -46 28 -87 24 -97 -4 -10 -2 -15 4
-11 13 8 44 -92 37 -123 -5 -20 -3 -22 5 -10 10 13 11 13 11 0 0 -8 3 -26 5
-40 5 -21 4 -22 -3 -5 -8 18 -9 17 -14 -7 -3 -15 -1 -25 3 -22 5 3 9 -1 9 -8
0 -11 2 -10 9 0 6 10 10 4 15 -19 3 -18 4 -34 1 -37 -3 -3 -5 0 -5 6 0 7 -5
12 -10 12 -7 0 -7 -7 0 -20 6 -11 15 -18 21 -15 5 4 9 4 9 1 0 -3 16 -78 35
-167 20 -90 33 -169 30 -177 -2 -7 -1 -11 4 -8 5 3 12 -13 15 -37 5 -34 33
-147 57 -237 6 -24 68 -62 108 -67 52 -6 96 25 125 88 13 28 26 45 28 38 2 -7
4 5 4 27 1 21 4 53 8 69 4 17 23 107 42 200 72 348 155 652 174 640 6 -3 7 0
4 8 -7 18 54 149 66 142 5 -3 12 0 16 6 4 8 3 9 -4 5 -22 -13 -12 9 38 87 32
49 54 76 62 71 7 -4 8 -3 4 5 -9 14 53 88 68 83 6 -2 8 0 3 4 -10 10 43 65 56
57 6 -3 7 -1 3 5 -7 11 46 57 67 57 7 1 11 6 10 13 -6 26 186 142 234 142 11
0 30 -12 44 -27 13 -14 18 -23 12 -19 -8 4 -13 1 -13 -7 0 -8 7 -18 16 -21 10
-4 13 -2 8 7 -6 8 -3 8 9 -1 26 -22 113 -209 143 -307 15 -49 28 -113 28 -141
1 -29 4 -50 7 -48 10 6 19 -136 13 -211 -7 -86 -29 -214 -49 -281 -13 -44 -20
-52 -60 -72 -24 -12 -50 -20 -57 -18 -7 1 -9 1 -4 -2 4 -2 -22 -22 -60 -44
-37 -22 -81 -49 -97 -60 -30 -21 -42 -17 -50 17 -4 15 -5 13 -6 -7 -1 -16 4
-28 12 -28 6 -1 -1 -12 -17 -25 -17 -13 -34 -21 -38 -19 -5 3 -7 1 -6 -4 2 -5
-17 -26 -42 -45 -36 -29 -47 -34 -60 -24 -13 10 -13 10 -3 -3 10 -13 -2 -30
-74 -100 -47 -47 -83 -80 -79 -73 3 6 2 14 -3 18 -6 3 -8 -4 -6 -17 3 -14 -4
-32 -19 -48 -13 -14 -48 -60 -79 -102 -30 -43 -56 -76 -58 -75 -2 1 -3 0 -2
-2 1 -2 -5 -17 -13 -33 -9 -17 -20 -26 -27 -22 -7 4 -9 4 -5 0 4 -5 -28 -78
-71 -164 -43 -87 -84 -172 -91 -189 -7 -18 -17 -30 -23 -26 -6 3 -7 1 -3 -5 4
-7 -12 -62 -36 -123 -32 -83 -44 -106 -50 -92 -6 13 -7 11 -3 -7 4 -21 -20
-105 -82 -290 -4 -12 -100 256 -115 320 -1 8 -5 17 -8 20 -14 12 -49 123 -43
133 3 7 3 9 -2 5 -4 -4 -32 45 -60 110 -29 64 -65 140 -81 167 -62 114 -130
223 -171 278 -24 31 -41 62 -38 67 4 6 2 9 -3 8 -6 -2 -41 31 -78 72 -37 41
-89 94 -116 119 -26 24 -45 48 -41 54 3 5 1 7 -5 4 -12 -8 -98 61 -94 75 1 5
-1 7 -6 4 -5 -3 -31 11 -58 30 -27 19 -81 54 -121 76 -40 23 -69 46 -66 51 4
6 1 7 -6 3 -7 -5 -32 2 -56 15 -43 23 -44 24 -64 114 -36 159 -44 233 -38 370
8 151 32 262 84 385 44 101 83 170 129 227 l34 42 42 -15 c22 -8 65 -28 94
-45z m-694 -1124 c148 -34 322 -100 311 -118 -3 -6 -1 -7 6 -3 12 8 162 -64
156 -74 -2 -4 1 -7 8 -7 12 0 97 -52 97 -60 0 -2 -10 1 -22 7 -21 10 -21 10
-6 -3 10 -8 16 -16 13 -18 -2 -3 4 -5 15 -5 10 0 16 5 13 11 -4 5 3 2 15 -8
12 -11 19 -27 17 -39 -4 -16 -2 -18 10 -8 12 10 18 10 30 0 8 -7 13 -16 10
-20 -3 -5 0 -12 6 -16 8 -4 9 -3 5 4 -4 7 -2 12 3 12 10 0 15 -14 12 -32 0 -4
5 -5 13 -2 7 3 19 -3 27 -12 12 -15 12 -17 0 -9 -10 5 -12 4 -7 -4 4 -6 11 -9
15 -7 8 5 101 -86 101 -99 0 -4 -6 -2 -14 4 -11 9 -16 9 -22 0 -4 -7 -3 -9 4
-5 6 3 13 2 17 -4 4 -6 10 -8 14 -5 18 10 157 -178 145 -197 -4 -7 -3 -8 4 -4
13 8 74 -93 65 -107 -3 -6 -2 -7 4 -4 12 8 46 -61 37 -75 -4 -6 -2 -8 3 -5 12
8 106 -189 98 -204 -4 -5 -2 -9 3 -9 9 0 34 -59 102 -240 70 -187 91 -253 86
-267 -3 -8 -2 -12 3 -9 12 8 44 -81 35 -96 -4 -7 -4 -10 1 -6 9 9 51 -42 47
-57 -2 -5 -1 -7 3 -4 3 4 26 1 50 -6 54 -17 101 -6 139 32 30 30 49 69 96 205
19 53 38 94 44 91 5 -4 6 -1 1 6 -9 15 43 163 55 156 5 -3 6 5 2 17 -4 16 -2
19 8 13 9 -5 11 -4 6 4 -9 14 64 202 75 195 4 -2 11 1 15 7 5 8 3 9 -6 4 -19
-12 -4 27 57 148 33 64 59 104 65 101 7 -4 8 -2 4 4 -10 16 22 74 36 66 7 -4
8 -3 4 4 -8 14 52 112 67 109 7 -1 11 4 9 12 -5 25 183 236 201 224 6 -3 7 -1
4 5 -21 33 378 309 414 286 7 -4 9 -3 6 3 -8 13 20 26 35 16 6 -3 8 -1 5 4
-13 20 305 118 360 111 24 -3 31 -11 46 -57 31 -94 43 -244 29 -383 -6 -68
-17 -145 -23 -173 -10 -42 -13 -47 -21 -30 -6 15 -7 13 -3 -9 8 -37 -24 -132
-92 -276 -42 -89 -56 -111 -64 -100 -8 12 -9 10 -4 -6 8 -29 -10 -40 -83 -54
-35 -6 -92 -20 -128 -31 -35 -11 -76 -17 -91 -14 -20 4 -22 3 -9 -3 14 -6 4
-13 -50 -35 -38 -15 -100 -43 -138 -62 -38 -19 -74 -32 -80 -28 -6 3 -8 2 -3
-2 11 -13 -110 -85 -130 -79 -12 4 -14 3 -6 -3 9 -6 2 -17 -24 -37 -20 -16
-42 -29 -49 -29 -7 0 -11 -3 -9 -7 6 -10 -115 -106 -129 -102 -6 2 -8 0 -4 -3
10 -10 -112 -146 -124 -139 -4 3 -8 2 -7 -3 4 -20 -2 -27 -12 -13 -9 12 -10
12 -5 -4 7 -22 -21 -59 -37 -49 -6 3 -7 1 -3 -5 8 -13 -62 -108 -76 -104 -5 1
-7 -2 -3 -7 7 -13 -24 -63 -35 -56 -5 3 -12 0 -16 -6 -4 -8 -3 -9 4 -5 19 11
15 4 -41 -91 -29 -49 -72 -134 -97 -188 -24 -55 -47 -102 -50 -105 -3 -3 -6
-12 -7 -20 -1 -8 -22 -75 -46 -149 l-44 -134 -13 54 c-33 139 -117 347 -203
502 -26 48 -45 92 -41 99 4 7 3 8 -4 4 -6 -3 -16 3 -22 14 -6 11 -8 20 -5 20
3 0 -4 9 -15 20 -12 12 -18 26 -14 33 4 7 4 9 -1 5 -11 -11 -97 110 -89 124 4
6 3 8 -3 5 -15 -9 -57 39 -47 55 4 7 3 10 -1 5 -12 -10 -86 63 -78 77 3 6 3 8
-1 4 -12 -10 -87 63 -79 76 3 6 2 8 -2 3 -11 -10 -46 23 -38 36 3 6 1 7 -5 3
-14 -8 -94 53 -86 66 3 5 2 7 -3 6 -14 -5 -143 83 -137 93 3 5 -1 7 -8 4 -17
-6 -150 69 -141 80 5 4 3 5 -4 2 -6 -4 -60 13 -120 37 -60 24 -123 47 -141 51
-18 3 -32 11 -32 16 0 6 -4 8 -9 5 -4 -3 -39 1 -77 9 -38 8 -72 15 -76 15 -14
0 -60 89 -52 101 4 7 3 9 -3 6 -6 -4 -13 0 -16 7 -3 8 -1 17 6 20 7 2 5 5 -4
5 -38 2 -127 254 -154 433 -27 177 -11 420 31 486 17 26 32 27 116 7z m-7
-1236 c129 -21 171 -31 150 -39 -17 -6 -16 -7 7 -12 15 -3 25 -1 22 3 -3 5 1
9 8 8 19 -1 55 -17 41 -18 -7 -1 -10 -8 -6 -17 5 -15 7 -15 15 1 11 19 26 17
115 -16 41 -16 52 -24 42 -31 -10 -7 -7 -8 11 -4 28 6 143 -53 258 -134 73
-51 86 -64 55 -54 -15 5 -15 4 -3 -4 8 -6 18 -8 22 -6 5 3 24 -8 44 -25 27
-24 31 -31 17 -32 -11 0 -13 -3 -5 -6 6 -2 10 -9 6 -14 -3 -5 5 -9 18 -9 18 0
20 2 8 10 -8 5 -10 10 -5 10 6 0 28 -17 48 -38 30 -31 35 -40 25 -51 -11 -11
-9 -13 9 -9 22 6 54 -29 160 -172 75 -101 179 -281 153 -265 -6 3 -7 -1 -4 -9
3 -9 11 -13 17 -9 6 4 8 0 4 -11 -4 -9 -3 -15 2 -12 5 3 21 -19 35 -49 31 -66
31 -66 9 -58 -15 6 -16 4 -6 -9 7 -8 9 -19 5 -24 -4 -4 0 -3 9 4 15 11 20 4
43 -59 14 -39 23 -75 20 -81 -4 -7 -2 -8 4 -4 8 5 12 -1 12 -14 0 -13 -4 -19
-12 -14 -7 4 -8 3 -4 -5 4 -6 11 -9 15 -6 13 7 73 -202 66 -228 -4 -15 -3 -18
3 -9 6 9 13 -4 20 -44 7 -32 12 -62 12 -67 0 -11 -50 19 -67 41 -7 9 -13 13
-13 9 0 -4 -14 0 -30 8 -17 9 -28 20 -25 25 4 6 -1 7 -11 3 -11 -4 -15 -2 -11
4 4 6 1 10 -6 9 -17 -2 -147 55 -143 63 2 3 -6 7 -17 7 -20 1 -326 115 -389
144 -16 7 -28 17 -28 22 0 5 -4 7 -9 3 -15 -8 -161 67 -154 79 3 6 3 8 -2 4
-25 -23 -309 173 -436 301 -87 88 -233 271 -186 232 11 -9 17 -10 17 -2 0 6
-10 15 -23 20 -13 5 -41 42 -69 92 -79 140 -127 290 -149 457 -16 128 -11 133
141 125 47 -3 112 -9 145 -14z m3453 -24 c2 -16 0 -64 -4 -105 -6 -59 -9 -70
-15 -50 -6 18 -7 13 -4 -18 10 -80 -79 -306 -181 -464 -24 -38 -48 -68 -54
-68 -6 0 -8 -4 -5 -10 3 -5 -45 -61 -106 -125 -161 -166 -320 -281 -545 -394
-157 -78 -270 -121 -307 -116 -27 4 -28 4 -7 -3 l25 -8 -25 -8 c-120 -38 -368
-149 -452 -202 -21 -14 -44 -22 -50 -18 -6 4 -8 3 -4 -4 7 -11 -11 -28 -21
-19 -8 9 19 117 28 111 5 -3 6 2 3 10 -7 19 65 261 117 391 69 171 236 464
258 451 5 -3 8 2 7 12 0 9 5 16 12 14 8 -1 11 2 8 7 -21 33 324 375 356 355 6
-4 8 -2 5 4 -4 6 22 29 60 55 92 59 111 69 125 61 6 -4 8 -3 5 3 -9 14 157 88
174 78 7 -5 10 -4 6 2 -7 12 98 45 213 68 110 21 124 22 255 21 l120 -1 3 -30z"/>
</g>
</svg>
