<?xml version="1.0" standalone="no"?>
<!DOCTYPE svg PUBLIC "-//W3C//DTD SVG 20010904//EN"
 "http://www.w3.org/TR/2001/REC-SVG-20010904/DTD/svg10.dtd">
<svg version="1.0" xmlns="http://www.w3.org/2000/svg"
 width="1024.000000pt" height="1024.000000pt" viewBox="0 0 1024.000000 1024.000000"
 preserveAspectRatio="xMidYMid meet">
<metadata>
Created by potrace 1.16, written by Peter Selinger 2001-2019
</metadata>
<g transform="translate(0.000000,1024.000000) scale(0.100000,-0.100000)"
fill="#000000" stroke="none">
<path d="M4825 8925 c-648 -68 -1205 -322 -1661 -758 -173 -165 -363 -403
-465 -581 -23 -41 -47 -72 -52 -69 -6 3 -7 1 -4 -4 4 -6 -23 -72 -59 -147 -76
-159 -162 -410 -198 -581 -58 -279 -56 -175 -56 -2771 l0 -2381 23 -21 c34
-32 68 -27 124 15 27 21 157 120 289 221 229 175 381 292 750 578 93 72 218
168 277 212 l109 82 1205 0 c827 0 1211 -3 1224 -11 20 -10 571 -425 814 -613
435 -336 669 -506 695 -506 16 0 36 10 51 26 l24 26 -3 2356 c-2 1464 -7 2395
-13 2457 -35 354 -123 665 -274 965 -51 101 -141 253 -192 322 -19 26 -32 52
-28 58 4 6 2 9 -3 8 -6 -2 -31 24 -57 57 -25 33 -85 103 -133 155 -408 446
-942 746 -1542 864 -242 48 -610 66 -845 41z m608 -155 c392 -44 847 -211
1170 -427 102 -68 120 -85 87 -76 -11 3 -20 1 -20 -4 0 -6 12 -9 27 -7 31 3
57 -15 221 -159 408 -357 707 -899 802 -1452 49 -284 50 -320 50 -2647 0
-1198 -3 -2178 -7 -2178 -5 0 -120 86 -258 192 -137 105 -438 333 -667 505
l-418 314 0 167 c0 154 -2 171 -22 212 -14 26 -41 57 -66 75 -40 28 -52 30
-143 33 l-99 4 0 411 0 411 49 70 c138 201 210 438 211 693 0 149 -15 248 -55
370 -67 201 -151 338 -300 489 -277 281 -650 411 -1033 360 -529 -70 -947
-454 -1052 -967 -19 -91 -21 -126 -17 -284 5 -193 20 -275 73 -405 39 -98 102
-219 145 -280 l39 -56 0 -406 0 -406 -104 -4 c-97 -3 -108 -6 -147 -33 -23
-17 -53 -50 -66 -74 -21 -41 -23 -56 -23 -211 l0 -168 -27 -18 c-15 -9 -76
-55 -135 -101 -62 -49 -113 -81 -120 -77 -6 4 -8 3 -5 -3 4 -6 -9 -23 -29 -38
-30 -23 -38 -25 -46 -14 -8 11 -9 10 -4 -3 4 -13 -44 -55 -207 -180 -240 -184
-509 -391 -636 -490 -47 -37 -94 -72 -104 -78 -17 -10 -17 94 -14 2317 l2
2328 23 127 c80 465 253 860 529 1203 114 143 263 297 280 291 8 -3 11 -2 8 3
-11 19 242 217 385 301 98 58 342 176 440 213 224 83 447 137 655 157 61 5
126 12 145 14 62 6 387 -3 483 -14z m-73 -2809 c331 -86 586 -288 729 -577 88
-179 118 -325 108 -534 -14 -274 -115 -501 -315 -703 -187 -190 -429 -300
-707 -323 -208 -17 -477 58 -665 186 -201 137 -367 366 -434 602 -168 587 184
1197 774 1342 142 34 146 35 300 31 92 -3 159 -10 210 -24z m-1025 -2001 c33
-36 163 -120 257 -165 110 -53 234 -90 355 -106 104 -14 339 -6 430 15 102 22
235 74 339 132 53 29 101 51 107 47 6 -3 7 -1 4 4 -6 9 92 93 108 93 3 0 5
-148 5 -330 l0 -330 -820 0 -820 0 0 330 c0 182 4 330 8 330 5 0 17 -9 27 -20z
m1909 -801 c26 -20 26 -21 26 -160 l0 -139 -1155 0 -1155 0 0 135 c0 131 1
137 25 160 l24 25 1104 0 c1102 0 1104 0 1131 -21z"/>
<path d="M5072 5650 c-24 -22 -25 -54 -22 -427 1 -103 -2 -123 -16 -135 -99
-78 -132 -140 -119 -220 l7 -41 -160 -161 c-183 -184 -195 -205 -144 -256 57
-56 80 -42 259 153 l143 155 37 -14 c50 -18 86 -17 131 2 88 36 140 129 123
220 -10 55 -50 116 -91 140 l-30 18 0 278 c0 275 0 277 -22 292 -31 22 -70 20
-96 -4z"/>
</g>
</svg>
