<?xml version="1.0" standalone="no"?>
<!DOCTYPE svg PUBLIC "-//W3C//DTD SVG 20010904//EN"
 "http://www.w3.org/TR/2001/REC-SVG-20010904/DTD/svg10.dtd">
<svg version="1.0" xmlns="http://www.w3.org/2000/svg"
 width="1024.000000pt" height="1024.000000pt" viewBox="0 0 1024.000000 1024.000000"
 preserveAspectRatio="xMidYMid meet">
<metadata>
Created by potrace 1.16, written by Peter Selinger 2001-2019
</metadata>
<g transform="translate(0.000000,1024.000000) scale(0.100000,-0.100000)"
fill="#000000" stroke="none">
<path d="M5007 8064 c-177 -17 -243 -29 -366 -71 -396 -132 -726 -405 -936
-772 -95 -165 -163 -379 -184 -579 -8 -71 -11 -646 -11 -1847 l0 -1745 -253 0
c-238 0 -255 -1 -271 -19 -12 -13 -15 -27 -11 -42 5 -14 4 -19 -4 -15 -6 4
-11 2 -11 -3 0 -8 664 -11 2188 -11 l2188 0 2 35 c2 25 -3 37 -17 44 -12 7
-126 11 -310 11 l-291 0 0 1784 0 1784 -25 125 c-93 470 -386 870 -820 1121
-197 113 -468 196 -643 196 -35 0 -71 4 -80 8 -9 4 -75 3 -145 -4z m358 -109
c416 -75 829 -367 1060 -751 36 -60 43 -80 23 -68 -7 4 -8 3 -4 -5 4 -6 11 -9
16 -6 21 13 107 -220 139 -382 21 -100 21 -123 21 -1897 l0 -1796 -1505 0
-1506 0 2 778 1 777 26 -34 c15 -18 71 -86 125 -152 54 -65 96 -123 93 -128
-8 -12 4 -41 16 -41 6 0 5 7 -2 15 -7 9 -11 18 -8 20 9 9 79 -85 72 -97 -4 -6
-3 -8 3 -5 6 4 81 -78 172 -188 148 -178 184 -226 148 -196 -10 8 -14 7 -14
-3 0 -8 8 -13 17 -11 12 2 43 -27 93 -88 41 -51 89 -104 105 -120 l29 -28 26
21 c15 12 27 27 27 33 0 7 -66 91 -146 187 -80 96 -162 195 -183 220 -20 24
-61 74 -91 111 -153 186 -205 252 -204 265 1 7 -3 12 -8 11 -6 -1 -75 77 -153
173 l-143 175 -1 349 -1 350 187 -195 c304 -314 325 -337 319 -347 -3 -6 1
-13 10 -16 10 -4 13 -2 8 7 -4 6 12 -6 34 -27 30 -29 38 -42 29 -48 -8 -6 -7
-8 5 -6 18 3 641 -609 633 -623 -3 -4 3 -13 12 -20 12 -10 14 -10 9 -1 -26 43
55 -34 444 -423 l436 -436 26 20 c22 18 48 69 29 57 -9 -6 -1889 1877 -2064
2065 l-117 127 2 297 3 297 27 -22 c15 -11 27 -26 25 -31 -1 -6 9 -18 23 -26
l25 -15 -25 21 c-55 46 1 16 87 -47 51 -37 133 -96 182 -130 52 -36 88 -69 84
-75 -3 -6 -1 -7 5 -3 13 8 558 -380 554 -395 -1 -6 2 -8 7 -5 9 6 54 -26 354
-243 65 -47 128 -93 141 -101 12 -8 63 -45 112 -81 49 -36 178 -130 287 -208
113 -82 194 -147 190 -153 -3 -7 -1 -8 6 -4 11 7 72 -29 70 -42 -3 -19 2 -32
12 -32 8 0 8 5 -1 15 -26 31 6 12 135 -82 74 -53 131 -101 128 -106 -3 -6 -1
-7 5 -3 6 4 56 -26 112 -65 60 -43 96 -75 89 -79 -8 -6 -8 -9 0 -14 6 -4 11
-2 11 4 0 7 7 9 16 6 21 -8 54 20 54 45 0 23 -29 46 -290 232 -216 154 -567
406 -715 515 -263 192 -777 562 -1075 774 -140 100 -342 245 -447 322 l-193
140 0 170 c0 231 27 382 102 566 78 192 186 351 347 510 254 250 540 390 901
440 90 12 297 5 405 -15z"/>
</g>
</svg>
