<?xml version="1.0" standalone="no"?>
<!DOCTYPE svg PUBLIC "-//W3C//DTD SVG 20010904//EN"
 "http://www.w3.org/TR/2001/REC-SVG-20010904/DTD/svg10.dtd">
<svg version="1.0" xmlns="http://www.w3.org/2000/svg"
 width="1024.000000pt" height="1024.000000pt" viewBox="0 0 1024.000000 1024.000000"
 preserveAspectRatio="xMidYMid meet">
<metadata>
Created by potrace 1.16, written by Peter Selinger 2001-2019
</metadata>
<g transform="translate(0.000000,1024.000000) scale(0.100000,-0.100000)"
fill="#000000" stroke="none">
<path d="M5086 8551 c-3 -4 -52 -11 -108 -15 -92 -6 -140 -12 -258 -30 -19 -3
-60 -12 -90 -21 -30 -8 -56 -12 -59 -10 -2 3 -9 1 -15 -4 -6 -5 -28 -11 -48
-15 -33 -6 -37 -5 -32 11 5 15 4 15 -4 3 -6 -8 -9 -17 -6 -21 9 -15 -22 -15
-46 -1 -22 12 -23 12 -7 -1 16 -13 15 -15 -15 -28 -18 -8 -35 -14 -38 -15 -3
0 -18 -6 -33 -12 -16 -7 -31 -12 -34 -12 -2 0 -37 -16 -76 -35 -44 -22 -79
-33 -91 -29 -17 4 -18 3 -6 -5 8 -6 10 -11 4 -11 -7 0 -36 -16 -65 -35 -30
-21 -59 -33 -68 -30 -8 3 -12 3 -9 -1 7 -6 -15 -34 -27 -34 -3 0 -46 -30 -95
-66 -49 -36 -94 -63 -100 -59 -5 3 -7 0 -4 -8 3 -8 -6 -21 -22 -32 -14 -9 -23
-12 -20 -6 23 37 -247 -254 -300 -323 -19 -26 -39 -44 -43 -42 -4 3 -8 -5 -8
-16 -2 -26 -32 -60 -46 -51 -6 3 -7 1 -3 -6 4 -6 -10 -39 -31 -74 -64 -103
-149 -285 -190 -405 -25 -76 -40 -107 -44 -95 -4 11 -7 2 -6 -22 0 -22 -11
-96 -26 -165 -22 -106 -31 -177 -36 -285 -1 -17 -3 -17 -11 -5 -8 13 -10 13
-10 -2 0 -9 4 -19 9 -23 11 -6 10 -2989 0 -3000 -3 -3 -3 -24 1 -48 3 -23 5
-168 4 -322 -6 -575 -6 -874 -1 -882 3 -4 -75 -8 -172 -8 -129 0 -182 -3 -193
-13 -9 -7 -24 -9 -33 -5 -15 5 -17 3 -12 -12 5 -11 -1 -32 -14 -54 -11 -20
-17 -33 -13 -28 4 4 13 -7 18 -25 6 -18 26 -42 44 -55 l34 -22 756 0 c417 0
767 -1 780 -1 14 0 22 -6 22 -17 0 -15 1 -15 13 2 13 17 41 18 549 19 522 1
537 0 559 -19 18 -15 20 -15 10 -2 -12 15 -11 17 5 18 61 3 477 -1 481 -5 3
-3 15 -1 27 3 11 4 235 6 496 5 687 -3 738 -4 715 -14 -18 -8 -18 -9 5 -9 15
-1 31 -6 36 -11 7 -7 11 -6 11 5 0 8 -7 15 -15 15 -9 0 -12 3 -9 6 9 10 147
11 147 2 0 -5 -8 -8 -17 -9 -10 0 -5 -5 12 -10 18 -5 33 -5 39 1 7 7 4 10 -7
10 -9 0 -17 3 -17 8 0 4 94 6 210 5 115 -1 208 2 207 6 -1 5 9 17 22 28 19 16
24 29 24 67 0 26 -5 52 -11 58 -6 6 -8 17 -5 25 3 9 0 14 -8 13 -24 -4 -59 12
-52 23 4 6 1 7 -8 1 -8 -5 -89 -9 -181 -9 l-168 0 0 2185 c0 1202 -2 2196 -5
2210 -5 24 -9 54 -20 135 -3 22 -14 77 -26 122 -11 44 -17 94 -14 110 3 19 3
22 -3 10 -6 -14 -18 10 -47 95 -22 62 -70 173 -107 247 -37 74 -64 139 -61
144 3 6 1 7 -5 3 -10 -6 -45 44 -39 55 1 2 0 3 -2 2 -8 -5 -70 91 -64 100 3 6
1 7 -4 4 -12 -7 -104 105 -107 131 -2 9 -7 16 -12 15 -14 -4 -164 149 -157
160 3 6 2 7 -4 4 -5 -3 -27 10 -48 29 -62 55 -181 144 -193 144 -6 0 -25 17
-43 38 -17 20 -28 31 -25 25 5 -9 2 -11 -8 -7 -9 3 -13 11 -9 17 3 6 1 7 -5 3
-13 -8 -98 39 -95 53 2 6 -3 8 -11 5 -7 -3 -16 2 -20 11 -3 9 -10 13 -16 10
-12 -8 -151 55 -145 66 3 4 -5 5 -17 1 -16 -4 -19 -2 -13 8 5 8 4 11 -2 7 -6
-4 -46 6 -89 22 -51 19 -71 30 -59 33 11 2 -2 4 -28 4 -26 -1 -51 4 -55 9 -4
6 -16 11 -27 12 -38 4 -80 11 -95 16 -8 4 -33 9 -54 12 -21 3 -48 8 -60 10
-21 5 -51 8 -203 21 -45 4 -80 11 -77 15 3 5 -17 9 -45 9 -27 0 -52 -4 -55 -9z
m259 -243 c39 -5 79 -11 90 -13 218 -40 525 -141 508 -168 -3 -6 -1 -7 4 -4
33 20 423 -227 415 -262 -1 -7 2 -9 8 -6 14 9 62 -34 53 -48 -3 -6 -2 -7 4 -4
14 9 95 -72 86 -86 -3 -7 -2 -9 2 -4 11 10 56 -33 48 -46 -3 -6 -1 -7 4 -4 13
8 37 -18 29 -31 -3 -6 2 -16 12 -23 15 -13 16 -12 3 4 -7 9 -11 17 -8 17 3 0
20 -18 38 -41 26 -33 29 -43 18 -50 -12 -7 -12 -9 1 -10 8 -1 18 -1 21 -1 4 1
19 -17 34 -38 24 -35 26 -42 14 -57 -13 -16 -12 -17 3 -5 10 8 19 9 22 3 3 -5
0 -12 -6 -14 -8 -3 -5 -6 6 -6 11 -1 16 -6 13 -14 -3 -8 -1 -20 5 -28 7 -11 8
-9 3 6 -12 38 13 2 59 -87 50 -93 87 -188 62 -155 -13 17 -14 15 -13 -17 1
-20 4 -31 7 -25 4 6 13 -4 20 -21 7 -17 15 -29 17 -26 3 2 -1 14 -7 26 -6 11
-10 26 -7 33 3 11 41 -90 52 -139 2 -10 9 -35 14 -54 15 -48 13 -61 -4 -25
-17 39 -18 21 0 -25 7 -19 14 -28 15 -20 3 27 27 -63 46 -175 15 -83 19 -524
21 -2362 2 -1307 -1 -2004 -7 -2008 -6 -3 -10 -11 -10 -16 0 -6 5 -7 10 -4 6
3 10 0 10 -7 0 -10 -51 -13 -257 -11 -142 2 -646 3 -1121 3 -688 0 -862 3
-856 13 6 9 4 9 -7 -1 -10 -9 -188 -12 -819 -12 l-806 0 1 914 c0 503 3 912 7
909 5 -2 8 -16 8 -31 0 -17 3 -22 8 -15 11 18 82 -69 78 -94 -3 -12 1 -20 10
-20 10 0 11 4 3 16 -6 9 5 -1 25 -23 19 -21 33 -43 29 -49 -3 -6 -1 -7 4 -4
14 9 47 -29 37 -44 -4 -7 -3 -10 4 -5 6 3 38 -27 73 -71 35 -43 106 -130 159
-193 52 -63 100 -122 107 -130 7 -8 62 -75 123 -148 66 -79 108 -138 104 -145
-4 -7 -3 -9 1 -4 14 12 43 -22 37 -45 -4 -16 -2 -20 10 -15 20 7 153 -149 150
-178 -1 -13 1 -16 7 -7 5 9 17 0 40 -28 58 -72 148 -88 191 -32 48 60 39 99
-40 189 -33 37 -58 74 -55 80 2 7 1 12 -3 12 -20 -3 -25 2 -12 12 13 9 13 10
-2 6 -11 -4 -26 6 -45 31 -15 20 -27 40 -25 44 1 5 -2 7 -6 5 -12 -3 -123 130
-120 145 2 6 -2 12 -9 13 -7 0 -51 47 -99 105 -47 58 -134 163 -193 233 -58
71 -105 132 -104 138 2 5 -1 8 -5 6 -15 -4 -64 62 -56 74 4 7 3 9 -3 6 -6 -4
-20 5 -33 18 -18 20 -21 27 -11 39 8 10 9 16 1 21 -5 3 -10 -2 -10 -12 0 -13
-10 -7 -38 23 -60 68 -97 118 -97 134 -1 8 -6 14 -13 13 -6 -2 -34 25 -63 59
-28 34 -57 68 -65 75 -8 8 -12 19 -8 24 3 5 1 8 -4 7 -14 -5 -64 60 -56 73 4
8 3 9 -4 5 -6 -4 -18 4 -26 16 -21 32 -22 740 -1 711 7 -10 11 -22 8 -27 -4
-5 -1 -6 5 -2 7 4 46 -23 94 -66 46 -40 161 -140 256 -222 154 -132 196 -172
160 -150 -7 4 -8 3 -4 -4 4 -6 12 -9 19 -6 7 2 28 -12 47 -33 21 -22 25 -29
10 -18 -15 12 -20 14 -12 4 6 -9 9 -19 6 -22 -4 -4 3 -4 16 -2 15 3 33 -6 58
-29 21 -19 62 -55 92 -81 30 -26 54 -52 52 -58 -2 -7 0 -9 4 -5 10 11 35 -12
27 -25 -3 -5 -1 -7 5 -3 13 8 143 -104 135 -117 -4 -6 -1 -7 6 -2 15 9 63 -33
54 -48 -3 -6 -1 -7 5 -3 7 4 32 -12 59 -39 27 -25 41 -44 33 -43 -9 2 -15 -6
-16 -19 -1 -12 2 -20 7 -17 4 2 6 10 3 17 -7 19 33 18 48 -1 11 -13 11 -15 -2
-7 -9 5 -12 5 -7 -1 5 -5 13 -9 17 -9 16 0 270 -228 264 -237 -3 -5 -1 -7 4
-6 15 5 83 -53 75 -65 -3 -5 -1 -7 5 -3 6 3 16 0 24 -7 7 -7 39 -34 70 -61 32
-26 56 -52 53 -56 -6 -10 30 -42 38 -34 8 8 123 -96 119 -108 -1 -5 1 -7 6 -4
4 2 28 -14 52 -36 25 -22 65 -57 89 -77 91 -73 140 -124 134 -135 -3 -6 -3 -8
2 -4 12 11 66 -31 59 -45 -4 -7 -3 -9 1 -4 11 10 46 -23 38 -36 -3 -6 -1 -7 6
-3 14 9 98 -63 93 -79 -2 -5 0 -7 4 -3 4 4 33 -15 66 -44 32 -28 56 -53 53
-57 -4 -3 -13 3 -21 13 -8 11 -14 15 -14 9 0 -6 -3 -20 -6 -30 -4 -11 -3 -14
3 -7 11 16 59 10 78 -9 8 -9 12 -24 9 -34 -5 -14 -4 -15 4 -3 9 12 14 12 31
-4 11 -10 18 -23 14 -29 -3 -5 -2 -7 4 -4 14 9 55 -22 47 -35 -4 -6 -2 -8 3
-5 6 4 42 -21 79 -56 133 -121 212 -187 223 -187 18 0 13 -18 -6 -22 -17 -4
88 -3 114 0 20 3 63 74 63 105 0 20 -15 43 -57 85 -31 31 -55 61 -54 67 1 5
-1 7 -5 2 -10 -10 -45 23 -37 36 3 6 1 7 -5 3 -6 -4 -25 5 -42 20 -25 22 -28
30 -18 43 10 13 10 14 -1 4 -11 -9 -23 -5 -57 24 -24 19 -41 39 -38 44 3 5 1
8 -4 7 -14 -4 -192 151 -189 165 1 7 -3 11 -9 10 -16 -3 -95 67 -88 78 3 5 1
8 -5 7 -15 -4 -272 222 -265 233 3 5 1 8 -5 7 -15 -4 -161 123 -154 135 3 6 2
7 -4 4 -12 -8 -379 311 -375 326 2 7 0 9 -4 5 -9 -10 -106 71 -98 83 3 5 1 8
-4 7 -8 -3 -182 140 -182 150 0 2 8 -2 18 -9 15 -13 16 -12 3 3 -7 10 -16 16
-20 13 -11 -6 -81 54 -78 67 1 6 -6 12 -16 13 -24 4 -58 35 -51 47 3 4 0 7 -8
6 -7 -2 -12 3 -10 10 1 8 -2 11 -7 7 -12 -7 -287 233 -283 247 1 5 -1 7 -6 4
-4 -3 -24 9 -43 25 -19 17 -53 46 -76 66 -24 19 -40 39 -37 44 3 5 0 8 -8 7
-7 -2 -12 3 -10 10 1 8 -2 11 -7 8 -5 -4 -24 6 -43 21 -77 64 -386 330 -423
364 -22 21 -52 47 -68 59 -15 12 -25 25 -23 29 3 4 -1 8 -9 8 -7 0 -47 29 -88
64 -59 51 -76 71 -81 99 -7 37 -5 670 2 670 7 0 352 -251 352 -256 0 -3 -3 -3
-7 -1 -5 3 -17 1 -28 -4 -15 -6 -10 -8 20 -7 34 1 51 -6 98 -41 31 -24 54 -48
50 -54 -3 -6 -1 -7 5 -3 15 9 94 -43 85 -57 -3 -6 -1 -7 5 -3 14 8 108 -61
104 -76 -1 -5 2 -7 8 -3 14 9 42 -14 33 -28 -3 -6 -1 -7 6 -3 18 12 171 -102
164 -123 -4 -13 -3 -13 5 -2 8 11 15 10 41 -8 17 -13 28 -27 25 -33 -4 -7 -2
-8 4 -4 6 4 34 -10 62 -30 44 -31 49 -38 38 -53 -12 -14 -11 -14 4 -2 16 12
27 6 98 -44 44 -32 77 -62 73 -68 -3 -6 -1 -7 6 -3 17 11 41 -12 34 -32 -3
-12 -2 -13 4 -5 7 9 15 8 36 -6 15 -9 24 -21 20 -25 -5 -4 -3 -7 2 -6 19 4 34
0 47 -13 7 -7 52 -41 101 -76 87 -63 107 -82 65 -60 -18 9 -21 9 -11 -1 6 -7
22 -13 35 -14 15 -1 22 -7 20 -16 -2 -8 0 -12 3 -8 11 11 47 -11 39 -24 -4 -6
-3 -8 3 -5 6 4 64 -32 129 -79 164 -118 163 -117 159 -124 -2 -4 1 -7 8 -7 7
0 45 -24 85 -53 63 -46 71 -55 60 -69 -12 -14 -11 -14 4 -3 9 8 22 11 29 7 8
-6 7 -10 -2 -17 -10 -7 -8 -8 7 -3 24 6 50 -18 38 -36 -5 -9 -2 -10 11 -6 21
9 178 -100 168 -116 -3 -6 -1 -7 5 -3 15 9 64 -23 55 -37 -3 -5 -1 -7 4 -4 6
4 22 -2 34 -14 l24 -20 -25 12 c-23 11 -24 11 -11 -5 8 -9 20 -15 28 -12 17 7
289 -187 285 -204 -1 -6 2 -9 8 -5 14 9 72 -34 64 -47 -4 -6 -2 -8 4 -4 9 5
182 -109 182 -121 0 -2 -4 -2 -8 1 -5 3 -9 -1 -9 -9 0 -11 4 -12 13 -4 9 7 38
-8 111 -61 54 -40 98 -75 98 -80 0 -5 4 -12 9 -17 5 -5 6 -3 2 5 -5 9 5 12 41
12 68 0 103 30 110 92 5 42 2 49 -23 74 -16 14 -28 31 -26 36 1 5 -2 7 -8 3
-14 -8 -81 45 -73 58 4 6 1 7 -6 3 -7 -5 -42 15 -89 50 -96 72 -164 121 -224
164 -26 18 -45 37 -42 42 3 5 0 8 -7 6 -19 -4 -110 63 -102 75 3 6 1 7 -5 3
-14 -8 -108 61 -104 76 1 5 -1 7 -6 4 -5 -3 -25 6 -46 20 -32 22 -35 28 -24
42 12 15 11 16 -4 3 -19 -14 7 -31 -470 315 -70 50 -124 95 -120 100 4 4 3 5
-3 2 -13 -8 -117 67 -107 76 4 4 2 6 -5 4 -6 -2 -38 16 -70 40 -207 151 -248
183 -245 193 1 6 -1 8 -6 5 -12 -7 -84 43 -77 54 3 6 0 8 -7 5 -10 -4 -113 63
-173 113 -6 5 -23 17 -38 26 -15 10 -25 21 -22 25 2 4 -2 8 -9 8 -7 0 -34 15
-60 33 -34 25 -43 36 -34 43 9 6 8 7 -5 3 -22 -7 -120 61 -110 76 3 7 1 8 -5
4 -13 -8 -314 203 -307 215 3 4 0 11 -6 15 -8 4 -9 3 -5 -4 12 -20 -12 -13
-26 7 -7 10 -17 20 -23 22 -5 2 -9 8 -7 12 1 5 -2 6 -8 2 -14 -9 -72 34 -64
47 4 7 2 8 -4 4 -11 -7 -52 15 -80 41 -8 7 -22 18 -33 24 -11 5 -16 15 -13 21
4 6 3 8 -4 4 -6 -3 -67 34 -135 83 -121 85 -207 151 -178 135 9 -5 12 -3 7 5
-4 6 -12 9 -17 6 -5 -3 -30 10 -55 29 -26 20 -51 36 -55 36 -5 0 -9 5 -9 11 0
8 6 7 18 -2 14 -12 14 -10 -2 8 -19 23 -19 17 -1 248 2 28 6 61 9 75 3 14 11
50 17 80 33 166 119 404 190 532 71 124 159 249 171 242 7 -4 8 -3 4 5 -5 7
25 49 74 106 87 101 148 157 162 149 4 -3 6 1 3 8 -7 22 287 233 312 224 8 -3
12 -2 9 3 -9 14 256 143 319 157 11 2 40 10 65 19 25 8 68 21 95 29 43 13 67
18 155 32 8 1 37 5 64 8 27 3 52 9 55 12 9 8 359 2 436 -8z"/>
</g>
</svg>
