<?xml version="1.0" standalone="no"?>
<!DOCTYPE svg PUBLIC "-//W3C//DTD SVG 20010904//EN" "http://www.w3.org/TR/2001/REC-SVG-20010904/DTD/svg10.dtd">
<svg xmlns="http://www.w3.org/2000/svg" version="1.0" width="1024.000000pt" height="1024.000000pt" viewBox="0 0 1024.000000 1024.000000" preserveAspectRatio="xMidYMid meet">
<metadata>
Created by potrace 1.16, written by Peter Selinger 2001-2019
<meta name="Producer" content="Online-Convert"/></metadata>
<g transform="translate(0.000000,1024.000000) scale(0.100000,-0.100000)" fill="#000000" stroke="none">
<path d="M5403 7710 c-12 -5 -29 -22 -37 -39 -25 -47 -20 -86 15 -126 27 -30 37 -35 74 -35 36 0 48 5 69 31 34 41 36 106 3 144 -24 29 -86 42 -124 25z"/>
<path d="M3545 7480 c-54 -36 -62 -105 -16 -151 51 -51 130 -37 157 28 20 46 10 86 -28 118 -35 30 -72 32 -113 5z"/>
<path d="M6684 7181 c-48 -21 -84 -100 -70 -155 10 -39 55 -85 95 -97 32 -10 45 -8 83 9 123 54 95 239 -39 248 -26 2 -58 0 -69 -5z"/>
<path d="M4471 6891 c-52 -52 -46 -126 13 -162 45 -28 73 -24 113 16 32 32 35 40 30 77 -7 54 -34 79 -90 85 -37 4 -49 1 -66 -16z"/>
<path d="M2563 6573 c-12 -2 -36 -20 -54 -40 -28 -33 -31 -41 -26 -86 6 -66 46 -107 110 -114 40 -5 48 -2 82 29 80 73 45 195 -60 211 -16 2 -40 2 -52 0z"/>
<path d="M5809 6301 c-89 -90 38 -228 130 -142 26 24 31 37 31 74 0 38 -5 49 -31 71 -43 36 -91 35 -130 -3z"/>
<path d="M7249 6041 c-23 -23 -29 -38 -29 -71 0 -33 6 -48 29 -71 74 -73 183 -1 152 101 -21 71 -100 92 -152 41z"/>
<path d="M3472 5935 c-58 -49 -49 -135 18 -170 43 -22 65 -19 105 16 46 41 49 93 8 139 -40 44 -90 50 -131 15z"/>
<path d="M4854 5570 c-37 -15 -64 -59 -64 -104 0 -56 18 -88 64 -110 97 -47 188 50 147 157 -20 51 -93 79 -147 57z"/>
<path d="M2700 5086 c-89 -17 -135 -33 -231 -81 -121 -61 -185 -111 -456 -359 -59 -55 -141 -124 -180 -153 -44 -33 -73 -61 -73 -72 0 -29 39 -71 65 -71 29 0 132 80 280 219 158 148 254 233 305 268 63 43 196 108 255 124 80 22 227 18 309 -10 167 -55 274 -133 567 -417 220 -212 291 -274 399 -346 229 -152 405 -206 642 -196 141 6 231 31 385 104 190 91 354 217 629 485 301 292 448 382 650 396 216 15 390 -76 699 -367 300 -283 477 -408 677 -476 144 -49 353 -59 397 -20 23 21 28 68 9 84 -7 5 -74 12 -148 15 -284 11 -441 99 -850 476 -257 238 -392 331 -550 379 -227 69 -470 12 -705 -167 -33 -25 -139 -122 -235 -216 -205 -199 -325 -302 -441 -380 -337 -227 -640 -259 -953 -103 -160 80 -283 176 -516 404 -201 196 -274 262 -365 326 -190 135 -382 187 -565 154z"/>
<path d="M2944 3350 c-31 -12 -54 -49 -54 -88 0 -44 14 -68 51 -88 58 -30 124 8 136 79 5 32 1 41 -30 72 -35 35 -62 42 -103 25z"/>
<path d="M3791 3334 c-60 -50 -33 -149 44 -168 30 -8 77 15 99 46 30 43 14 103 -34 131 -40 24 -74 21 -109 -9z"/>
<path d="M4701 3346 c-60 -33 -67 -102 -16 -153 30 -30 40 -35 68 -29 39 7 87 57 87 91 0 38 -21 75 -51 91 -34 17 -57 17 -88 0z"/>
<path d="M5562 3335 c-38 -32 -46 -65 -28 -110 17 -41 71 -69 111 -59 32 8 75 59 75 89 0 58 -47 105 -104 105 -13 0 -38 -11 -54 -25z"/>
<path d="M6444 3342 c-51 -41 -54 -103 -6 -147 34 -32 66 -38 102 -20 37 19 50 43 50 90 0 74 -91 122 -146 77z"/>
<path d="M7085 3346 c-33 -14 -55 -52 -55 -91 0 -34 48 -84 87 -91 28 -6 38 -1 68 29 44 44 47 84 8 126 -34 37 -68 45 -108 27z"/>
</g>
</svg>
