<?xml version="1.0" standalone="no"?>
<!DOCTYPE svg PUBLIC "-//W3C//DTD SVG 20010904//EN"
 "http://www.w3.org/TR/2001/REC-SVG-20010904/DTD/svg10.dtd">
<svg version="1.0" xmlns="http://www.w3.org/2000/svg"
 width="1024.000000pt" height="1024.000000pt" viewBox="0 0 1024.000000 1024.000000"
 preserveAspectRatio="xMidYMid meet">
<metadata>
Created by potrace 1.16, written by Peter Selinger 2001-2019
</metadata>
<g transform="translate(0.000000,1024.000000) scale(0.100000,-0.100000)"
fill="#000000" stroke="none">
<path d="M5100 8743 c-20 -8 -55 -36 -106 -83 -23 -22 -45 -36 -49 -32 -5 4
-5 2 -2 -4 8 -14 -82 -116 -95 -108 -5 3 -7 1 -6 -4 2 -6 -22 -41 -53 -79 -30
-37 -70 -89 -89 -115 -18 -26 -36 -45 -40 -43 -4 2 -7 -1 -7 -8 0 -7 -32 -59
-71 -117 -39 -58 -98 -153 -130 -213 -32 -59 -62 -104 -66 -100 -4 4 -4 0 0
-10 7 -19 -13 -50 -27 -41 -5 3 -7 10 -3 15 3 5 2 8 -3 7 -4 -2 -20 10 -35 25
-15 15 -36 27 -48 27 -12 0 -20 7 -21 18 0 13 -2 12 -9 -5 -5 -13 -16 -23 -25
-23 -18 0 -62 -59 -94 -128 -13 -28 -29 -48 -34 -45 -6 3 -7 1 -4 -5 10 -15
-63 -193 -76 -185 -6 3 -7 1 -3 -5 4 -6 -9 -62 -28 -124 -36 -115 -96 -391
-96 -441 0 -17 -4 -26 -10 -22 -6 4 -7 12 -4 18 4 7 4 9 0 5 -4 -3 -24 5 -43
18 -57 38 -115 27 -137 -28 -40 -98 -54 -579 -23 -793 8 -55 13 -102 11 -104
-7 -8 -44 32 -45 48 0 10 -2 12 -6 4 -3 -9 -18 -4 -49 17 -127 88 -361 178
-432 166 -20 -3 -42 -7 -49 -8 -7 -1 -11 -4 -11 -7 1 -3 -2 -13 -5 -21 -4 -8
-8 -34 -9 -57 l-3 -42 -65 27 c-36 16 -110 41 -164 57 -82 24 -95 31 -75 37
16 5 11 6 -17 3 -23 -3 -89 4 -148 15 -58 10 -164 22 -235 26 l-130 7 -31 -32
c-27 -27 -31 -37 -28 -71 3 -39 3 -40 -30 -40 -18 0 -31 3 -29 8 3 4 -23 8
-57 9 -33 0 -115 6 -181 11 -135 11 -400 7 -490 -8 -118 -20 -177 -42 -218
-83 l-38 -38 5 -67 c3 -37 13 -101 21 -142 9 -41 13 -81 10 -89 -3 -9 -3 -12
1 -8 9 9 66 -183 59 -201 -3 -7 -1 -11 4 -7 7 4 31 -45 36 -75 0 -3 11 -27 23
-54 13 -28 20 -56 17 -63 -2 -8 -1 -12 3 -9 4 2 30 -41 59 -96 29 -55 46 -96
39 -91 -6 4 -2 -1 9 -12 21 -20 65 -79 65 -87 0 -3 -17 -10 -38 -16 -74 -22
-93 -61 -78 -157 4 -22 7 -46 8 -52 1 -7 6 -13 11 -13 5 0 7 6 4 13 -20 48
-14 43 27 -21 25 -41 43 -79 39 -84 -4 -7 -1 -8 7 -3 10 6 12 4 7 -9 -4 -10
-3 -15 3 -11 11 7 32 -29 22 -40 -4 -5 -2 -5 5 -1 14 7 36 -27 25 -39 -4 -3
-1 -5 7 -3 7 2 16 -3 19 -11 3 -9 0 -11 -9 -6 -8 5 -11 4 -6 -1 5 -5 12 -9 17
-9 13 0 99 -109 93 -119 -4 -5 -2 -6 4 -3 15 9 57 -39 47 -55 -4 -7 -4 -10 1
-6 4 4 47 -29 94 -74 47 -45 107 -98 134 -119 l47 -38 -46 -20 c-25 -12 -51
-18 -57 -14 -5 3 -7 1 -4 -4 4 -6 -2 -18 -13 -28 -24 -22 -26 -62 -4 -93 8
-12 12 -27 9 -32 -4 -6 -2 -9 3 -8 15 5 132 -103 125 -115 -3 -5 -2 -7 4 -4
12 8 159 -102 155 -115 -1 -5 2 -7 8 -3 13 8 62 -30 52 -40 -4 -5 -1 -5 5 -1
7 4 31 -6 55 -22 98 -67 388 -208 479 -232 25 -7 37 -15 33 -22 -4 -7 -3 -8 5
-4 10 6 73 -9 131 -31 8 -4 19 -5 25 -4 5 1 2 -6 -8 -17 -24 -26 -21 -76 6
-106 36 -42 246 -85 523 -106 243 -19 401 -12 644 26 197 31 445 101 597 170
32 14 78 33 102 40 l44 14 39 -41 c21 -22 36 -44 33 -50 -3 -5 0 -7 7 -5 7 3
32 -18 56 -45 l42 -50 0 -795 c0 -583 3 -801 12 -817 33 -64 104 -75 142 -24
21 28 21 34 24 819 l3 791 26 31 c14 17 30 30 35 28 5 -1 7 1 4 6 -3 5 30 44
74 87 l78 78 46 -22 c25 -11 51 -21 56 -21 6 0 8 -5 4 -12 -4 -6 -3 -8 3 -5 6
4 57 -11 114 -32 57 -22 134 -47 171 -57 37 -10 63 -21 58 -24 -6 -4 4 -7 22
-7 18 0 87 -12 153 -26 348 -76 829 -78 1150 -5 105 24 130 37 152 83 15 31
15 36 0 59 -22 33 -22 33 18 40 19 4 80 22 134 40 55 19 102 31 105 28 4 -3 6
-1 6 4 0 6 17 16 38 23 48 18 259 123 311 156 23 14 41 23 41 20 0 -3 8 2 18
11 9 9 47 37 84 63 159 114 322 267 334 316 9 38 -21 83 -66 96 -22 7 -40 18
-40 24 0 7 36 45 80 84 91 83 255 274 319 373 24 37 48 65 54 61 6 -3 7 -1 3
6 -4 6 8 37 27 69 59 98 70 125 68 167 -3 47 -12 60 -65 87 -23 11 -43 22 -45
24 -2 2 14 34 36 71 142 239 248 526 283 766 28 189 7 229 -135 266 -36 10
-63 19 -61 22 5 4 12 4 -269 14 -183 7 -300 2 -485 -21 l-46 -6 -2 38 c-4 48
-25 82 -60 95 -40 16 -236 2 -377 -27 -129 -26 -141 -27 -110 -14 19 8 19 9
-2 9 -13 1 -23 -5 -23 -11 0 -8 -46 -28 -105 -47 -57 -18 -134 -48 -170 -65
l-65 -32 0 49 c0 59 -11 82 -50 102 -22 12 -40 13 -72 6 -24 -5 -58 -7 -75 -6
-18 2 -33 -1 -33 -6 0 -5 12 -7 28 -4 15 3 -4 -8 -43 -24 -77 -32 -139 -65
-204 -105 -23 -15 -47 -24 -53 -20 -6 4 -8 3 -4 -4 3 -6 -8 -21 -26 -33 -18
-12 -45 -34 -60 -47 -15 -14 -30 -23 -33 -20 -3 2 2 49 11 104 25 158 29 461
10 647 -18 175 -24 198 -58 221 -36 25 -79 20 -121 -15 -20 -17 -37 -26 -37
-21 0 22 -42 250 -61 330 -49 205 -165 495 -234 586 -24 31 -33 36 -69 36 -34
0 -51 -7 -87 -37 -24 -21 -38 -30 -30 -20 7 9 10 17 5 18 -5 0 0 4 11 9 18 8
18 9 2 9 -10 1 -20 -6 -24 -15 -4 -10 -23 18 -56 83 -89 173 -227 385 -350
536 -27 33 -44 63 -41 70 4 7 3 9 -1 4 -11 -10 -76 53 -68 66 3 6 2 7 -3 4 -5
-3 -34 20 -64 50 -97 99 -142 124 -190 106z m104 -253 c31 -34 55 -66 53 -73
-1 -7 3 -11 9 -10 22 4 49 -37 53 -79 1 -5 6 -8 12 -8 8 0 8 5 -1 15 -7 8 -10
15 -7 15 12 0 77 -93 71 -101 -3 -5 0 -8 6 -7 16 4 142 -180 134 -195 -4 -6
-3 -9 1 -4 12 10 88 -112 81 -130 -4 -9 -2 -11 6 -7 7 5 9 2 6 -8 -4 -8 -2
-21 4 -29 8 -11 8 -9 4 6 -6 19 -6 19 9 1 8 -10 12 -23 9 -27 -3 -5 -1 -9 4
-9 15 0 65 -117 57 -131 -5 -8 -4 -11 0 -6 5 4 25 -23 44 -60 33 -63 39 -68
72 -71 30 -3 45 4 92 43 31 25 58 41 61 36 14 -21 116 -292 116 -306 0 -8 -4
-15 -10 -15 -5 0 -7 -7 -3 -16 4 -11 8 -12 13 -4 19 30 82 -264 110 -507 12
-110 15 -117 45 -137 43 -28 80 -20 123 24 l39 41 6 -113 c12 -194 9 -331 -6
-325 -7 3 -13 -3 -13 -13 0 -10 4 -16 9 -13 5 3 6 -23 3 -58 -3 -35 -5 -73 -6
-84 0 -34 -20 -157 -37 -230 -16 -71 -31 -94 -46 -72 -6 8 -7 7 -4 -3 2 -8 10
-14 17 -12 8 2 10 -7 5 -30 -38 -180 -160 -519 -180 -500 -5 4 -5 2 -1 -5 14
-25 -165 -330 -228 -388 -6 -5 -19 -22 -29 -37 -32 -51 -199 -218 -211 -211
-6 3 -8 2 -3 -2 10 -12 -63 -86 -77 -78 -6 3 -8 2 -3 -2 10 -11 -63 -86 -76
-78 -6 3 -7 2 -4 -4 7 -12 -101 -159 -115 -155 -5 1 -7 -2 -3 -7 3 -6 -5 -28
-19 -49 -13 -21 -40 -70 -60 -110 -20 -40 -41 -72 -47 -72 -5 0 -8 -4 -5 -9 4
-5 -16 -52 -42 -104 l-49 -96 3 387 c2 213 4 398 4 412 0 20 26 46 116 120 64
52 120 94 125 93 5 -2 8 3 6 10 -1 6 4 11 10 10 7 -2 12 1 10 6 -1 4 45 57
102 117 58 59 101 102 96 94 -5 -9 -5 -12 1 -7 5 5 9 13 9 17 0 5 26 42 58 83
142 181 327 481 327 530 0 55 -89 88 -129 48 -11 -11 -51 -72 -90 -138 -39
-65 -85 -138 -103 -163 -150 -206 -395 -479 -418 -465 -8 5 -11 4 -7 -2 9 -15
-59 -77 -74 -68 -7 5 -10 4 -6 -2 4 -6 -4 -19 -16 -31 l-22 -21 1 329 0 329
130 134 c208 214 392 453 527 687 77 133 117 217 117 246 0 33 -50 84 -83 84
-28 0 -66 -39 -86 -89 -8 -17 -18 -28 -24 -24 -6 3 -7 1 -3 -6 19 -31 -292
-513 -325 -503 -5 1 -9 -5 -9 -13 0 -15 -69 -99 -182 -219 l-64 -70 2 57 c1
30 5 61 9 66 3 6 3 11 -2 11 -4 0 -8 150 -8 333 l0 334 25 30 c144 176 196
245 261 350 42 67 79 120 82 117 3 -3 4 1 4 8 -1 7 22 60 51 119 48 96 51 108
41 137 -8 24 -20 34 -49 43 -51 16 -84 -5 -112 -69 -32 -73 -133 -247 -204
-353 -112 -167 -101 -221 -99 491 1 340 -1 617 -5 615 -3 -2 -14 5 -23 15 -36
42 -108 31 -134 -20 -10 -19 -13 -189 -13 -769 l0 -745 -50 65 c-77 98 -162
237 -154 250 4 7 3 9 -3 6 -11 -7 -98 161 -132 253 -27 77 -75 234 -74 241 1
3 -3 6 -10 7 -7 1 -27 5 -45 8 -43 8 -79 -16 -87 -59 -5 -23 4 -63 30 -140 19
-59 33 -113 29 -120 -4 -7 -3 -9 1 -4 5 4 22 -23 38 -60 44 -104 48 -115 37
-108 -6 3 -10 1 -10 -4 0 -6 7 -11 15 -11 18 0 58 -76 49 -93 -4 -7 -3 -9 1
-5 11 10 88 -119 80 -132 -4 -6 -2 -9 3 -8 15 4 74 -81 66 -95 -4 -7 -4 -9 1
-5 7 7 42 -29 43 -45 1 -4 11 -17 24 -27 13 -11 19 -19 14 -20 -4 0 1 -8 12
-17 11 -10 43 -45 71 -77 l51 -59 0 -375 c0 -373 0 -375 -20 -357 -11 10 -17
22 -14 26 3 5 -4 9 -14 9 -26 0 -305 287 -298 306 3 8 0 13 -5 11 -15 -3 -180
215 -174 230 2 7 0 12 -6 10 -14 -3 -106 148 -170 278 -57 115 -80 139 -123
131 -51 -11 -67 -33 -64 -92 2 -29 6 -50 9 -48 10 6 30 -46 23 -59 -4 -7 -3
-9 1 -4 11 9 96 -144 90 -161 -3 -8 0 -10 7 -6 8 5 9 2 5 -10 -4 -9 -3 -15 2
-12 5 3 29 -28 54 -69 26 -42 42 -77 36 -80 -11 -7 -3 -25 12 -25 6 0 7 5 4
10 -3 6 -4 10 -2 10 2 0 24 -28 48 -62 62 -90 136 -185 191 -246 27 -30 45
-59 41 -65 -3 -7 -2 -9 2 -4 11 10 46 -23 38 -36 -3 -5 -2 -7 4 -4 5 3 24 -9
42 -27 18 -19 29 -36 24 -38 -4 -3 -3 -4 3 -2 16 3 56 -40 47 -50 -5 -4 -3 -6
3 -4 16 4 76 -41 69 -53 -4 -5 -3 -8 2 -7 4 2 36 -17 71 -41 l62 -44 0 -259 0
-259 -56 36 c-117 75 -133 88 -127 98 3 5 2 8 -3 4 -14 -8 -106 62 -98 75 4 6
3 8 -3 5 -20 -13 -300 260 -297 289 1 8 -2 12 -6 9 -4 -2 -21 11 -38 30 -38
44 -73 46 -113 6 -16 -16 -29 -36 -29 -44 0 -9 -3 -24 -7 -34 -3 -10 -2 -15 2
-10 11 9 46 -43 38 -56 -3 -6 -1 -7 5 -3 13 8 55 -48 44 -59 -4 -5 -2 -5 4 -2
13 7 101 -92 96 -108 -2 -5 0 -7 4 -2 10 10 55 -33 47 -46 -3 -6 -2 -7 4 -4 5
3 45 -26 89 -64 100 -89 274 -216 370 -271 l74 -42 0 -368 c0 -202 -2 -368 -5
-368 -10 0 -125 253 -118 262 3 6 2 8 -3 5 -6 -3 -25 22 -44 56 -66 122 -152
235 -303 399 -85 92 -177 195 -204 230 -87 109 -192 278 -263 423 -187 383
-272 765 -271 1224 0 107 4 198 8 202 5 5 24 -6 43 -26 34 -35 59 -42 107 -29
31 8 50 57 58 149 18 206 102 574 127 559 7 -4 8 -2 4 5 -9 14 4 56 61 194 44
105 46 107 64 91 15 -14 17 -19 7 -26 -8 -5 -4 -7 12 -6 14 2 24 -2 23 -8 -1
-6 3 -11 10 -11 7 -1 26 -6 43 -11 55 -17 72 0 154 163 115 230 213 383 359
560 89 108 231 255 247 255 7 0 37 -27 68 -60z m-2708 -2398 c-2 -4 22 -8 54
-8 72 -2 215 -35 335 -79 103 -37 134 -52 216 -102 68 -41 106 -42 128 -1 13
22 13 36 4 80 -6 29 -15 62 -19 72 -6 17 -4 18 22 12 16 -4 31 -11 34 -14 3
-4 11 -7 18 -8 28 -2 33 -4 28 -13 -4 -5 2 -7 12 -5 21 6 198 -100 194 -116
-1 -6 2 -9 8 -5 12 7 133 -88 180 -141 16 -19 37 -60 45 -92 39 -139 59 -203
91 -285 19 -48 31 -93 28 -99 -4 -6 -3 -8 3 -5 6 4 24 -23 42 -62 33 -72 37
-86 21 -76 -6 3 -7 -1 -3 -10 4 -13 8 -14 14 -4 6 10 10 9 15 -6 4 -11 20 -40
36 -64 30 -48 35 -67 16 -55 -10 6 -10 5 -1 -8 7 -8 9 -19 5 -23 -4 -5 -1 -5
6 -1 7 4 10 12 7 17 -4 5 -4 9 -2 9 3 0 23 -30 46 -66 35 -56 40 -69 29 -83
-11 -14 -11 -14 3 -3 15 11 22 6 54 -39 20 -29 38 -59 40 -68 1 -9 7 -16 13
-16 13 0 44 -40 36 -47 -2 -3 4 -11 13 -19 17 -13 17 -12 4 6 -7 11 -1 7 14
-10 15 -16 68 -75 119 -129 50 -55 90 -104 88 -109 -1 -5 1 -6 6 -3 19 11 187
-217 178 -241 -3 -8 -2 -12 3 -8 12 7 74 -101 67 -114 -4 -5 -2 -11 3 -13 15
-6 73 -130 67 -145 -3 -8 -2 -12 3 -9 11 7 23 -22 14 -36 -3 -6 -2 -8 3 -5 12
7 78 -101 77 -125 -1 -10 12 -27 28 -39 22 -15 28 -26 25 -45 -3 -14 -1 -22 5
-19 5 4 7 12 3 18 -3 7 5 -1 20 -18 22 -26 25 -39 25 -100 l0 -70 -54 60 c-29
33 -51 63 -48 68 2 4 0 6 -4 5 -9 -3 -78 52 -173 138 -25 22 -127 107 -227
188 -101 82 -180 152 -177 157 3 5 -1 7 -8 4 -7 -3 -83 49 -168 114 l-156 119
-28 123 c-16 68 -39 156 -52 194 -27 78 -30 100 -12 89 7 -4 8 -3 4 5 -4 6
-11 9 -16 6 -4 -2 -22 37 -41 88 -18 50 -63 157 -101 236 -37 79 -65 148 -61
155 3 6 3 8 -2 4 -4 -4 -36 43 -70 105 -34 61 -74 120 -88 131 -30 22 -67 16
-97 -16 -25 -28 -25 -53 0 -103 20 -39 28 -63 29 -95 1 -11 3 -12 9 -3 5 8 21
-12 47 -59 21 -39 33 -68 27 -64 -7 4 -12 2 -12 -3 0 -6 6 -11 14 -11 20 0
141 -272 132 -297 -3 -8 -2 -12 3 -9 5 3 18 -20 30 -52 19 -54 91 -288 91
-298 0 -3 -9 0 -20 6 -11 6 -17 16 -14 22 4 7 2 8 -5 4 -13 -8 -151 79 -151
95 0 5 -6 9 -12 9 -20 0 -213 139 -210 151 1 6 -2 8 -6 5 -11 -6 -172 106
-184 128 -5 8 -20 54 -34 103 -14 48 -52 156 -84 238 -39 97 -58 159 -55 175
4 18 3 20 -3 7 -7 -16 -10 -13 -25 18 -10 20 -15 41 -12 46 4 5 1 9 -4 9 -15
0 -83 139 -75 152 4 6 3 8 -2 5 -5 -3 -22 19 -38 48 -15 30 -38 65 -51 79 -13
14 -21 27 -18 30 6 6 -39 -7 -70 -19 -40 -16 -48 -72 -17 -122 11 -18 17 -39
14 -47 -3 -8 0 -17 7 -22 8 -5 10 -3 4 6 -5 8 -4 11 3 6 6 -4 8 -14 5 -23 -4
-10 -2 -14 4 -10 13 8 48 -68 48 -103 0 -14 5 -24 12 -23 8 2 10 -4 6 -14 -4
-10 -2 -14 4 -10 6 4 16 -7 23 -23 10 -24 10 -33 -1 -48 -13 -15 -12 -16 3 -3
16 12 19 10 27 -12 6 -14 29 -70 52 -124 23 -54 42 -107 43 -119 0 -12 4 -20
7 -18 3 2 11 -12 16 -31 l11 -33 -92 65 c-90 65 -126 94 -96 78 8 -5 11 -4 7
0 -4 5 -13 10 -20 11 -7 1 -71 39 -142 86 -160 103 -221 142 -402 253 -82 50
-140 92 -136 98 3 6 1 7 -6 3 -15 -10 -193 102 -184 116 3 6 1 8 -4 5 -6 -4
-31 9 -56 28 -78 59 -133 41 -147 -49 -4 -25 -4 -44 0 -43 3 1 24 -13 46 -31
21 -18 67 -52 101 -76 35 -24 59 -47 55 -51 -4 -5 -2 -5 4 -2 7 4 72 -31 145
-77 143 -90 173 -112 165 -125 -3 -4 1 -8 9 -8 12 0 12 3 2 15 -10 13 -9 14
11 3 12 -7 20 -16 17 -21 -4 -6 1 -7 11 -3 13 5 15 3 9 -7 -5 -8 -4 -11 2 -7
14 8 129 -61 125 -74 -1 -6 2 -7 8 -4 13 8 292 -174 285 -185 -21 -34 -562
-51 -689 -22 -76 18 -117 10 -139 -27 -16 -27 -20 -104 -5 -95 3 2 13 -3 22
-11 24 -24 250 -55 406 -55 137 0 306 17 457 46 45 8 87 13 92 10 5 -4 11 0
14 6 3 10 11 10 35 2 45 -17 263 -155 257 -163 -2 -4 1 -8 8 -8 21 0 67 -35
60 -46 -3 -5 -1 -7 4 -4 15 10 136 -71 127 -85 -4 -7 -3 -8 4 -4 14 8 82 -34
82 -52 0 -7 5 -10 10 -7 6 3 10 2 10 -3 0 -13 -157 -55 -176 -48 -8 3 -13 2
-10 -2 6 -9 -71 -25 -224 -48 -112 -16 -357 -18 -450 -4 -152 24 -163 24 -187
-1 -36 -39 -38 -71 -8 -107 15 -18 33 -32 41 -32 8 0 14 -5 14 -11 0 -5 4 -7
10 -4 5 3 38 3 72 -1 43 -5 56 -9 43 -14 -11 -4 90 -5 225 -3 307 5 350 7 339
14 -5 3 32 13 81 22 50 10 96 15 102 11 6 -4 8 -3 5 3 -4 7 8 14 29 17 19 4
89 25 154 46 l119 40 36 -21 c28 -17 33 -24 24 -35 -8 -10 -8 -14 0 -14 6 0
11 5 11 11 0 15 22 6 96 -43 34 -23 60 -46 57 -51 -3 -6 -1 -7 5 -3 12 7 220
-141 212 -151 -3 -3 4 -7 14 -9 10 -1 26 -10 35 -19 21 -21 11 -27 -109 -65
-150 -47 -312 -71 -490 -72 -161 0 -290 9 -290 22 0 15 -94 -8 -106 -26 -7
-11 -17 -24 -21 -29 -13 -17 -14 -35 -2 -35 7 0 9 -9 6 -21 -3 -12 -3 -18 0
-15 4 3 16 -3 27 -13 27 -25 175 -50 323 -53 62 -2 113 -7 113 -11 0 -4 9 -3
19 3 11 5 40 10 65 10 112 0 378 63 559 132 76 29 79 29 93 11 9 -10 12 -12 8
-4 -4 7 7 3 24 -9 17 -13 28 -28 25 -33 -3 -6 -1 -7 5 -3 15 9 103 -64 95 -77
-3 -6 -1 -7 5 -3 12 7 109 -73 104 -87 -1 -4 2 -6 6 -3 13 8 40 -26 37 -47 -2
-9 1 -15 6 -11 5 3 7 10 4 15 -11 17 4 9 31 -16 15 -14 25 -27 23 -30 -24 -23
-408 -150 -489 -161 -19 -3 -51 -9 -70 -14 -91 -23 -469 -54 -570 -46 -47 4
-114 9 -150 12 -36 3 -110 12 -164 20 -55 7 -104 14 -110 14 -8 0 -7 3 0 8 6
4 19 22 28 40 26 51 6 83 -64 101 -30 8 -57 17 -60 20 -3 3 -18 7 -35 9 -97 9
-512 172 -498 195 3 6 1 7 -6 3 -24 -15 -331 173 -430 264 -24 22 -42 41 -40
43 2 1 34 17 71 34 44 22 69 40 74 55 4 13 14 29 23 36 9 8 11 11 5 8 -7 -3
-14 0 -17 8 -3 8 -59 56 -124 108 -127 102 -288 261 -378 373 -75 94 -156 216
-152 229 2 6 30 17 62 25 45 11 61 20 74 42 9 16 19 29 24 29 9 0 -9 32 -50
88 -18 25 -30 49 -26 55 3 5 1 7 -4 4 -14 -9 -46 40 -37 55 4 6 3 8 -3 5 -8
-5 -113 169 -113 187 0 2 -14 34 -30 70 -64 139 -139 403 -140 493 0 31 4 43
18 47 86 28 425 34 622 12 154 -18 311 -46 305 -56 -7 -11 27 -5 66 12 52 23
69 74 41 123 l-21 34 22 3 c35 5 137 -3 133 -10z m5427 12 c3 -4 0 -16 -8 -28
-24 -34 -19 -82 14 -118 l28 -32 149 27 c258 47 628 54 780 16 42 -11 44 -13
44 -48 0 -88 -100 -449 -121 -436 -5 4 -6 -1 -3 -9 9 -24 -104 -248 -188 -372
-41 -61 -77 -118 -81 -127 -3 -8 2 -26 12 -39 10 -13 19 -27 19 -31 0 -5 4
-12 8 -15 4 -4 4 -1 -1 7 -5 10 -3 12 11 8 11 -3 38 -11 61 -17 23 -6 44 -14
47 -18 6 -10 -85 -162 -94 -157 -4 2 -7 -2 -7 -9 0 -21 -124 -176 -136 -169
-5 3 -7 1 -4 -4 9 -14 -32 -65 -45 -57 -6 4 -8 3 -5 -3 3 -5 -30 -45 -74 -88
-43 -44 -79 -76 -79 -71 0 5 -9 -3 -21 -18 -11 -14 -25 -23 -31 -20 -6 4 -8 2
-5 -3 4 -6 -19 -30 -51 -54 -31 -24 -64 -50 -72 -59 -15 -15 -23 -63 -9 -55 7
5 23 -24 21 -38 -1 -4 1 -6 5 -5 12 4 123 -45 123 -53 0 -13 -194 -161 -289
-220 -56 -35 -101 -57 -110 -54 -9 3 -12 3 -8 -1 10 -10 -94 -66 -111 -59 -7
2 -11 1 -8 -4 3 -5 -42 -29 -102 -54 -131 -54 -174 -69 -322 -106 -148 -37
-169 -46 -179 -73 -10 -28 -4 -51 20 -77 19 -20 19 -21 -3 -26 -45 -9 -295
-34 -373 -37 -134 -4 -286 2 -281 10 3 5 -9 6 -26 4 -35 -5 -211 14 -273 30
-22 6 -53 12 -70 15 -62 9 -268 64 -333 89 -37 14 -70 31 -75 39 -4 8 -13 15
-20 15 -7 0 -6 -4 3 -11 19 -13 -16 -4 -68 18 -34 14 -34 14 -16 35 30 33 373
318 383 318 5 0 58 -18 118 -39 137 -49 286 -86 433 -107 91 -13 157 -15 315
-11 350 11 477 57 434 159 -8 18 -13 36 -12 39 1 3 -21 7 -49 8 -29 1 -56 5
-61 8 -6 3 -7 1 -3 -5 4 -7 4 -12 -1 -12 -4 0 -48 -7 -98 -15 -116 -19 -320
-31 -312 -19 3 6 -4 11 -16 11 -17 2 -19 0 -7 -7 11 -7 7 -9 -15 -5 -16 2 -64
6 -106 9 -104 7 -222 32 -359 73 l-115 36 35 29 c76 63 384 291 459 339 93 59
75 59 280 0 309 -91 563 -120 845 -96 73 6 87 5 81 -7 -3 -7 0 -6 7 3 7 9 27
19 45 23 36 8 59 30 68 67 5 21 0 34 -22 59 -33 37 -36 37 -198 20 -131 -14
-376 -2 -525 26 -124 23 -259 57 -255 64 3 4 -7 5 -20 2 -35 -6 -31 12 8 36
55 33 233 159 308 217 39 30 75 53 79 50 5 -3 12 0 16 6 5 8 3 9 -6 4 -8 -5
-11 -4 -7 2 4 6 28 18 54 28 42 16 58 17 167 7 237 -23 283 -24 451 -11 94 7
189 13 212 13 23 0 37 4 31 7 -6 4 9 10 34 14 98 15 141 67 111 133 -9 20 -16
39 -15 42 1 12 -98 2 -188 -17 -96 -21 -210 -32 -355 -34 -124 -2 -211 2 -195
8 8 4 20 12 27 18 13 13 223 144 403 250 177 104 486 312 509 341 29 37 26 70
-9 105 -38 38 -63 32 -148 -33 -74 -56 -97 -70 -106 -61 -3 3 -6 2 -6 -4 0
-16 -79 -65 -92 -57 -6 4 -8 3 -5 -4 9 -14 -77 -64 -97 -56 -9 3 -16 1 -16 -6
0 -6 6 -8 13 -5 6 4 1 -3 -13 -14 -14 -11 -32 -18 -40 -15 -8 3 -11 2 -7 -2
10 -10 -52 -46 -65 -38 -6 4 -8 3 -5 -3 8 -13 -139 -106 -154 -97 -7 4 -10 3
-6 -2 3 -5 -27 -29 -66 -54 -130 -80 -362 -233 -384 -253 -13 -11 -23 -17 -23
-13 0 30 174 436 251 587 27 52 49 108 49 123 0 36 -29 66 -75 76 -20 5 -34 6
-32 4 3 -3 -6 -17 -18 -30 -67 -72 -234 -446 -340 -759 l-47 -140 -59 -43
c-33 -23 -65 -40 -71 -36 -7 4 -8 3 -4 -4 11 -18 -346 -248 -367 -236 -7 4 -9
4 -5 -1 7 -8 -220 -171 -228 -163 -2 2 14 62 36 134 60 197 63 204 71 198 5
-3 6 1 3 9 -8 21 46 156 141 352 72 149 139 268 254 452 27 41 32 57 26 83 -4
17 -13 34 -21 37 -8 3 -12 8 -10 12 3 4 -16 7 -40 7 -42 1 -47 -2 -76 -42 -17
-24 -35 -41 -41 -37 -6 3 -7 1 -3 -5 6 -10 -117 -219 -139 -234 -5 -4 -7 -8
-2 -8 4 0 -2 -18 -13 -40 -13 -25 -25 -38 -32 -34 -6 4 -8 3 -5 -4 4 -5 -18
-63 -49 -129 -64 -136 -141 -326 -175 -430 -12 -40 -26 -70 -31 -67 -4 3 -6
-1 -3 -8 6 -20 -81 -345 -88 -328 -4 8 -4 5 -1 -7 3 -12 0 -32 -6 -43 -6 -11
-77 -75 -157 -142 -117 -97 -152 -122 -174 -120 -15 1 -30 -2 -33 -6 -3 -5 7
-7 22 -4 24 5 26 4 13 -11 -7 -10 -20 -17 -27 -17 -8 0 -14 -4 -14 -9 0 -5
-60 -59 -132 -119 -73 -61 -169 -142 -213 -180 -44 -39 -84 -68 -90 -65 -5 4
-7 2 -2 -2 9 -11 -53 -76 -65 -69 -5 3 -7 2 -6 -3 2 -5 -18 -33 -44 -63 l-48
-55 0 90 c0 82 3 95 30 143 19 32 35 50 42 46 6 -4 8 -3 5 4 -4 5 9 34 28 64
20 29 72 125 117 212 140 278 161 307 398 551 178 184 267 290 352 417 36 54
68 95 73 90 4 -4 5 -2 2 4 -4 7 15 54 43 105 62 120 128 288 177 454 33 113
43 135 76 168 21 21 43 35 49 31 6 -4 8 -3 5 4 -15 23 299 240 329 228 8 -3
13 -2 10 3 -7 11 25 25 33 14 3 -4 16 -9 28 -9 15 -1 20 3 16 13 -4 11 -8 12
-13 3 -5 -9 -9 -9 -14 -1 -7 10 34 34 43 25 2 -2 -2 -32 -9 -68 -7 -36 -8 -74
-4 -88 4 -12 7 -25 7 -28 -2 -7 30 -12 69 -13 15 0 50 15 78 33 29 19 60 34
70 35 10 1 25 9 35 19 10 9 24 15 32 12 8 -3 12 -2 9 3 -6 10 26 25 119 57
129 45 271 73 440 87 22 2 43 4 46 5 3 1 9 -1 12 -4z"/>
</g>
</svg>
