<?xml version="1.0" standalone="no"?>
<!DOCTYPE svg PUBLIC "-//W3C//DTD SVG 20010904//EN" "http://www.w3.org/TR/2001/REC-SVG-20010904/DTD/svg10.dtd">
<svg xmlns="http://www.w3.org/2000/svg" version="1.0" width="1024.000000pt" height="1024.000000pt" viewBox="0 0 1024.000000 1024.000000" preserveAspectRatio="xMidYMid meet">
<metadata>
Created by potrace 1.16, written by Peter Selinger 2001-2019
<meta name="Producer" content="Online-Convert"/></metadata>
<g transform="translate(0.000000,1024.000000) scale(0.100000,-0.100000)" fill="#000000" stroke="none">
<path d="M4890 8646 c-80 -8 -166 -13 -192 -12 -26 1 -43 -1 -37 -5 7 -4 -8 -10 -32 -14 -81 -12 -253 -57 -364 -93 -60 -20 -112 -36 -115 -37 -6 -1 -43 -18 -143 -64 -37 -18 -73 -29 -79 -25 -6 4 -8 3 -5 -3 4 -6 -31 -29 -76 -53 -45 -23 -116 -65 -157 -93 -106 -73 -224 -159 -231 -169 -3 -5 -14 -6 -25 -2 -15 4 -16 4 -5 -4 12 -8 9 -15 -15 -36 -16 -14 -35 -23 -41 -21 -7 2 -12 1 -10 -4 3 -10 -304 -327 -314 -324 -5 2 -6 -3 -4 -10 3 -6 -15 -37 -40 -67 -44 -53 -73 -94 -145 -207 -18 -29 -37 -50 -43 -46 -6 3 -7 1 -3 -5 4 -6 -24 -73 -61 -149 -38 -76 -79 -164 -92 -195 -13 -32 -27 -55 -31 -53 -4 2 -5 -7 -2 -20 3 -16 -1 -27 -11 -31 -9 -3 -13 -12 -11 -19 3 -8 -10 -63 -29 -122 -30 -95 -48 -167 -73 -293 -6 -30 -8 -32 -15 -15 -6 16 -8 17 -8 3 -1 -9 4 -20 9 -23 6 -3 10 -11 10 -16 0 -6 -3 -8 -7 -6 -5 3 -8 -14 -9 -36 0 -23 -4 -78 -8 -122 -5 -44 -10 -100 -12 -125 -1 -25 -3 -969 -4 -2099 0 -1496 -3 -2058 -11 -2068 -6 -7 -7 -13 -2 -13 5 0 10 -17 11 -37 4 -51 27 -96 61 -116 27 -16 194 -17 2594 -17 l2565 0 31 26 c17 14 36 22 42 18 7 -4 9 -3 6 3 -4 6 0 27 8 47 13 31 15 280 14 2051 -1 1109 -5 2091 -10 2183 -7 146 -28 337 -43 397 -3 11 -16 65 -30 120 -46 188 -127 416 -182 518 -9 15 -13 36 -9 45 3 9 3 13 -1 9 -10 -10 -105 155 -99 171 3 7 1 11 -4 8 -11 -7 -74 91 -66 104 4 6 1 9 -7 8 -7 -2 -12 5 -12 14 1 10 -2 15 -6 13 -5 -3 -30 25 -56 62 -46 65 -233 284 -268 312 -8 7 -13 18 -9 24 3 6 1 7 -5 3 -7 -4 -26 7 -45 26 -18 18 -53 49 -77 68 -23 19 -59 49 -79 65 -159 134 -492 329 -676 395 -122 44 -271 91 -300 96 -16 3 -43 9 -59 15 -46 15 -313 58 -391 63 -197 13 -324 13 -455 2z m475 -200 c17 -2 57 -7 90 -11 50 -5 264 -47 300 -58 6 -1 38 -11 72 -22 34 -10 60 -22 57 -27 -3 -4 1 -5 9 -2 18 6 123 -28 147 -49 10 -8 20 -13 23 -11 9 10 189 -77 327 -158 116 -69 141 -88 134 -100 -5 -7 -2 -8 5 -3 8 4 23 -3 39 -18 15 -13 32 -26 39 -28 12 -4 101 -80 190 -163 29 -27 49 -54 46 -59 -3 -6 -1 -7 4 -4 11 7 41 -21 42 -38 1 -5 5 -10 10 -10 8 0 49 -41 96 -97 14 -16 22 -35 19 -40 -4 -7 -2 -8 4 -4 20 12 90 -82 74 -99 -4 -5 -2 -5 4 -2 12 7 93 -104 130 -175 15 -28 15 -31 1 -20 -22 18 -28 1 -6 -20 11 -11 19 -13 21 -6 5 14 60 -77 57 -95 -1 -6 -1 -21 0 -32 1 -15 4 -16 10 -7 12 19 84 -143 76 -171 -4 -15 -3 -18 3 -9 6 9 13 2 25 -25 30 -67 67 -206 61 -226 -4 -14 -3 -17 7 -12 9 6 11 2 7 -13 -4 -14 -2 -20 4 -16 7 5 9 -2 6 -20 -3 -14 -2 -26 2 -26 6 0 22 -59 22 -77 0 -2 6 -26 14 -55 16 -63 17 -68 5 -68 -5 0 -12 12 -14 28 -3 22 -4 20 -6 -10 0 -20 4 -40 9 -43 6 -3 10 0 11 7 0 7 4 3 9 -9 27 -66 42 -552 19 -594 -6 -12 -7 -19 -2 -16 4 3 9 -827 10 -1844 2 -1017 -1 -1849 -5 -1849 -5 0 -8 -10 -8 -22 1 -22 -2 -23 -95 -24 -53 -1 -101 -4 -107 -8 -10 -6 -52 -2 -89 9 -14 4 -23 3 -23 -3 0 -6 -13 -7 -35 -2 -20 4 -33 4 -29 -1 3 -5 -33 -8 -79 -6 -47 1 -83 5 -80 10 2 4 -1 7 -6 7 -6 0 -11 -4 -11 -10 0 -13 -47 -13 -55 0 -5 8 -11 7 -21 -1 -10 -8 -22 -8 -44 0 -18 6 -28 6 -25 1 9 -15 -59 -12 -74 2 -11 10 -13 10 -7 1 9 -16 -379 -19 -389 -3 -3 6 -12 10 -18 10 -7 0 -6 -4 3 -10 10 -6 -10 -9 -60 -9 -42 0 -81 6 -89 12 -12 9 -13 9 -7 0 10 -18 -214 -18 -233 -1 -11 10 -13 10 -7 1 10 -18 -135 -18 -153 -1 -11 10 -13 10 -7 1 6 -10 -26 -13 -146 -13 -109 0 -158 4 -167 13 -11 10 -12 9 -6 -1 6 -11 -7 -13 -66 -10 -41 2 -83 8 -94 12 -16 6 -17 6 -5 -3 13 -9 11 -11 -7 -11 -12 0 -34 5 -49 10 -18 7 -30 7 -39 0 -9 -7 -15 -7 -19 -1 -4 5 -19 7 -34 4 -31 -6 -62 -6 -69 0 -12 12 215 420 229 411 4 -3 5 1 3 9 -8 18 112 208 170 269 29 31 52 47 61 44 9 -3 12 -1 9 4 -10 16 26 25 37 9 8 -11 9 -11 5 2 -4 13 12 24 71 49 147 61 407 198 528 277 11 7 24 10 29 6 4 -5 5 -3 2 3 -4 7 22 33 61 62 37 28 96 75 131 106 35 30 69 53 75 49 6 -3 8 -2 3 2 -9 11 63 86 75 79 5 -3 7 -2 6 3 -4 13 33 63 48 63 7 0 16 5 20 12 5 7 3 8 -7 3 -8 -5 -6 1 5 13 10 12 23 19 29 15 6 -3 7 -1 3 5 -4 6 11 35 32 64 116 157 239 392 267 510 4 16 10 26 14 24 4 -3 7 3 8 12 1 9 4 44 7 78 5 58 4 62 -25 90 -27 26 -37 29 -97 29 -37 0 -89 -6 -117 -14 -123 -33 -298 -94 -345 -120 -8 -4 -46 -25 -85 -46 -38 -21 -84 -48 -102 -61 -17 -13 -34 -24 -37 -24 -4 0 -25 -13 -47 -30 -23 -16 -46 -27 -50 -24 -5 3 -8 1 -7 -5 4 -14 -103 -101 -115 -94 -6 3 -7 2 -4 -4 7 -12 -143 -159 -157 -155 -6 2 -8 0 -3 -4 10 -10 -23 -45 -36 -37 -6 3 -7 1 -3 -6 4 -6 -8 -30 -27 -54 -88 -108 -267 -390 -267 -420 0 -4 -4 -6 -9 -2 -5 3 -13 0 -17 -6 -4 -8 -3 -9 4 -5 18 11 14 -8 -10 -57 -15 -28 -28 -42 -38 -40 -12 4 -12 3 -1 -5 11 -8 4 -30 -37 -113 -27 -57 -60 -128 -72 -157 -19 -45 -27 -53 -44 -48 -20 5 -20 4 -2 -9 18 -13 14 -41 -5 -30 -5 3 -7 0 -4 -7 3 -7 -13 -54 -35 -103 -37 -82 -40 -86 -34 -45 4 25 13 50 21 56 10 9 11 13 2 16 -10 3 -8 30 6 117 12 73 22 106 26 94 7 -16 8 -16 8 4 1 12 -3 24 -9 28 -5 3 -6 15 -1 28 5 12 11 41 14 64 7 46 16 90 24 113 3 8 7 33 9 55 2 22 6 47 7 55 2 8 7 32 11 52 5 21 11 36 15 34 3 -2 6 12 7 32 1 65 78 227 177 372 40 58 158 171 170 163 6 -3 7 -1 3 5 -7 12 155 147 177 147 7 1 11 6 10 12 -4 18 84 86 98 77 8 -4 9 -3 5 5 -9 13 115 151 136 151 4 0 8 5 8 10 0 20 82 120 93 113 6 -3 7 -1 3 5 -9 16 52 104 66 96 6 -4 8 -2 4 4 -3 6 22 68 57 139 62 124 140 331 152 403 3 19 12 60 20 90 22 87 34 177 37 281 2 83 0 98 -17 116 -29 29 -58 36 -107 22 -24 -6 -56 -12 -73 -13 -16 -1 -30 -7 -30 -14 0 -6 -18 -21 -40 -33 -22 -12 -53 -28 -69 -37 -33 -17 -218 -141 -226 -151 -3 -4 -25 -22 -50 -41 -103 -81 -214 -190 -292 -287 -27 -35 -55 -63 -61 -63 -5 0 -8 -3 -4 -6 3 -4 -11 -32 -32 -63 -39 -58 -131 -240 -131 -261 0 -6 -3 -9 -7 -7 -5 3 -8 -5 -9 -16 -1 -25 -8 -55 -17 -77 -4 -8 -11 -33 -16 -55 -5 -22 -9 -32 -10 -22 -1 10 -5 16 -9 13 -12 -7 -14 -86 -3 -86 7 0 7 -8 1 -24 -5 -13 -9 -33 -8 -43 1 -20 -7 -84 -22 -193 -6 -41 -13 -98 -16 -126 -6 -45 -9 -51 -27 -46 -14 4 -18 1 -15 -9 3 -8 11 -13 17 -12 6 2 10 -10 10 -30 -1 -23 -3 -26 -6 -9 -6 32 -23 17 -23 -21 0 -25 3 -29 11 -17 8 11 9 0 5 -43 -2 -32 -11 -66 -18 -75 -9 -11 -9 -13 -1 -9 10 6 10 0 0 -25 l-11 -33 -7 50 c-4 28 -12 102 -19 165 -6 63 -16 140 -21 170 -5 30 -12 80 -15 110 -3 30 -9 89 -15 130 -5 41 -12 89 -14 105 -2 17 -10 71 -17 120 -19 134 -16 442 6 535 9 41 19 86 22 100 3 14 9 29 15 35 5 5 9 17 9 26 0 10 6 24 13 31 6 7 25 33 42 57 37 55 117 119 320 257 88 59 165 112 170 116 6 5 34 27 63 48 30 22 74 58 99 80 25 22 50 37 54 34 5 -3 8 -1 7 3 -2 5 25 38 60 74 35 35 84 92 109 127 25 35 49 59 55 55 7 -3 8 -1 4 5 -3 6 10 37 31 69 47 73 117 215 133 270 7 24 17 40 23 36 6 -3 7 -1 3 5 -4 6 5 55 18 109 26 103 42 198 37 223 -2 8 -12 27 -22 42 -27 37 -73 44 -158 23 -38 -9 -80 -14 -93 -10 -14 4 -18 3 -10 -2 8 -7 -6 -16 -45 -32 -32 -12 -73 -29 -91 -37 -18 -8 -38 -11 -44 -8 -6 4 -8 2 -4 -4 3 -6 -6 -17 -21 -25 -96 -50 -160 -95 -249 -173 -39 -35 -75 -60 -79 -56 -5 4 -5 2 -2 -4 8 -14 -46 -67 -58 -57 -4 5 -5 2 -1 -4 9 -16 -72 -125 -87 -116 -6 3 -7 1 -3 -5 3 -6 -2 -25 -13 -42 -13 -22 -21 -27 -25 -18 -3 7 -4 4 -1 -7 2 -11 -14 -53 -36 -95 -22 -41 -38 -65 -35 -52 2 12 0 19 -6 16 -5 -3 -6 -19 -3 -34 4 -18 -1 -44 -13 -72 -11 -24 -25 -63 -32 -88 -17 -62 -21 -66 -37 -39 -10 17 -12 18 -7 4 15 -43 16 -66 4 -80 -6 -8 -9 -19 -6 -24 4 -5 2 -12 -3 -15 -4 -3 -11 -23 -15 -45 -4 -26 -12 -40 -25 -44 -14 -3 -17 0 -14 14 3 10 8 17 12 15 3 -2 7 20 7 50 2 64 34 195 46 188 5 -3 6 -9 4 -13 -3 -4 0 -13 5 -21 7 -12 8 -10 6 7 -2 11 -8 27 -14 35 -8 9 -8 24 1 53 7 22 18 58 23 80 6 22 21 74 33 115 12 41 23 82 26 90 17 70 33 147 44 210 7 41 17 83 23 94 6 13 6 16 -2 12 -10 -6 -7 62 4 100 5 16 -15 196 -25 229 -5 17 -12 45 -15 64 -3 19 -24 78 -45 130 -21 52 -36 99 -33 105 3 6 3 8 -2 4 -11 -10 -47 60 -39 74 4 6 3 8 -4 4 -6 -3 -20 11 -33 31 -13 21 -39 58 -58 83 -20 24 -43 53 -51 64 -22 30 -99 105 -154 151 -139 115 -238 144 -301 85 -12 -11 -24 -17 -28 -14 -3 3 -5 -2 -5 -12 1 -11 -7 -44 -16 -75 -22 -73 -24 -85 -38 -211 -11 -103 -3 -273 19 -378 4 -19 7 -49 8 -67 0 -17 2 -29 4 -27 8 8 31 -71 25 -86 -3 -8 -2 -11 2 -7 10 10 46 -101 38 -115 -4 -6 -3 -8 3 -5 9 6 55 -72 52 -90 -3 -19 2 -34 10 -29 11 7 65 -74 64 -96 -1 -10 3 -21 9 -24 7 -5 8 -2 3 6 -5 8 -4 11 3 6 6 -4 8 -14 5 -23 -4 -10 -2 -14 4 -10 16 10 47 -44 46 -78 -1 -24 3 -31 17 -31 10 0 16 5 13 11 -2 5 9 -6 25 -25 17 -19 28 -39 25 -44 -4 -5 -1 -6 4 -3 14 9 105 -102 99 -119 -3 -7 0 -11 7 -8 8 3 17 -12 25 -39 11 -37 11 -61 -3 -153 -23 -162 -29 -187 -40 -185 -5 1 -11 -18 -11 -41 l-2 -43 8 40 c11 60 11 2 0 -75 -23 -163 -31 -231 -51 -460 -6 -74 -15 -155 -20 -180 l-8 -45 2 43 c1 23 -1 42 -4 42 -12 0 -14 -17 -10 -87 4 -59 6 -63 12 -33 6 31 7 29 6 -17 -1 -112 -17 -82 -53 97 -49 244 -200 556 -342 705 -59 63 -179 163 -221 185 -19 10 -21 14 -10 22 12 8 11 9 -1 5 -20 -6 -72 21 -65 33 3 6 0 7 -8 4 -8 -3 -37 8 -64 24 -28 16 -60 33 -72 37 -12 3 -19 11 -16 16 3 5 -2 6 -11 2 -13 -5 -15 -3 -9 7 5 9 4 11 -4 6 -12 -8 -81 11 -81 22 0 4 -12 8 -26 9 -15 0 -36 6 -48 11 -27 14 -137 39 -203 48 -29 4 -50 10 -48 14 5 8 -42 -5 -81 -23 -40 -17 -48 -71 -25 -173 11 -50 25 -103 30 -118 7 -17 7 -26 1 -26 -6 0 -10 5 -10 12 0 6 -3 9 -6 5 -3 -3 -3 -15 1 -28 5 -15 9 -18 15 -9 5 8 12 -1 20 -26 7 -22 33 -81 57 -133 24 -51 42 -96 39 -99 -3 -3 -6 -1 -6 4 0 6 -6 18 -13 29 -11 14 -16 15 -22 5 -6 -9 -4 -11 5 -5 8 5 11 3 8 -6 -6 -17 15 -39 36 -39 9 0 16 -4 16 -10 0 -12 61 -109 107 -169 18 -24 30 -48 26 -54 -3 -5 -2 -7 4 -4 14 9 56 -38 50 -55 -4 -9 -6 -7 -6 5 -1 21 -18 23 -18 2 0 -16 1 -16 35 -20 12 -1 36 -18 53 -36 16 -19 33 -37 37 -42 4 -4 20 -17 35 -28 23 -18 26 -24 15 -38 -10 -13 -10 -14 2 -3 19 16 30 15 30 -2 0 -8 5 -18 12 -22 7 -5 8 -3 3 7 -8 12 -6 12 8 0 9 -7 14 -18 10 -24 -4 -6 -1 -7 6 -2 15 9 63 -33 54 -48 -3 -6 -1 -7 5 -4 11 7 72 -23 72 -35 0 -5 5 -8 11 -8 15 0 174 -111 172 -120 -1 -4 9 -7 23 -7 15 0 36 -14 56 -34 17 -19 25 -26 18 -16 -12 17 -12 17 13 6 15 -7 24 -15 22 -20 -3 -4 0 -11 6 -15 8 -4 9 -3 5 4 -11 18 -5 15 70 -26 114 -63 155 -92 148 -104 -4 -6 -3 -8 4 -4 15 9 74 -44 68 -61 -3 -8 -2 -12 2 -9 4 3 14 -4 21 -16 7 -11 8 -17 2 -13 -6 3 -11 1 -11 -4 0 -6 6 -11 13 -11 8 0 18 -19 24 -45 6 -25 6 -42 1 -39 -5 3 -8 -31 -7 -80 1 -47 6 -86 10 -86 5 0 10 12 10 28 1 22 3 19 10 -13 4 -22 11 -62 14 -88 2 -26 7 -60 9 -75 3 -15 10 -63 16 -108 6 -44 13 -91 16 -105 9 -46 14 -144 6 -125 -8 18 -9 18 -15 3 -3 -9 -2 -17 3 -17 5 0 8 -6 6 -12 -1 -7 -1 -10 1 -5 13 21 21 -3 33 -100 8 -60 15 -117 15 -128 1 -11 5 -49 10 -85 4 -36 8 -132 9 -214 1 -146 1 -148 -15 -111 -9 21 -16 50 -15 66 1 15 -2 25 -7 22 -6 -3 -8 5 -5 20 3 15 1 25 -5 24 -6 -1 -12 7 -14 18 -2 11 -8 29 -13 40 -5 11 -20 53 -34 93 -14 40 -33 86 -42 103 -8 17 -13 37 -10 45 3 9 1 12 -4 9 -6 -3 -10 -1 -10 6 0 13 -8 30 -100 224 -82 172 -176 318 -268 417 -19 20 -31 41 -27 47 3 6 2 10 -3 9 -12 -4 -188 163 -184 174 1 5 -2 7 -7 4 -5 -3 -30 14 -56 39 -26 26 -44 42 -41 37 6 -10 -148 88 -173 109 -51 44 -358 170 -475 195 -242 51 -331 44 -356 -30 -12 -39 -10 -58 18 -140 11 -33 18 -67 15 -75 -4 -13 -3 -13 5 -3 7 11 11 8 16 -13 4 -14 31 -75 61 -135 29 -60 50 -112 44 -115 -5 -4 -9 -11 -9 -17 0 -7 5 -6 14 1 15 13 18 10 42 -35 8 -14 8 -26 2 -35 -8 -11 -9 -10 -4 3 3 10 1 20 -4 23 -6 4 -10 -5 -10 -19 0 -20 5 -26 21 -26 13 0 18 5 14 13 -7 13 -7 13 106 -131 43 -54 84 -104 92 -111 9 -7 15 -18 13 -24 -1 -7 -1 -8 2 -4 2 4 10 3 18 -4 8 -6 11 -15 8 -20 -3 -5 -2 -8 3 -7 14 5 104 -76 99 -89 -3 -7 0 -15 6 -19 7 -4 8 -3 4 4 -14 23 7 11 64 -35 31 -27 92 -73 134 -103 68 -48 97 -74 64 -54 -8 4 -9 3 -5 -2 5 -5 14 -9 20 -9 22 0 167 -86 162 -96 -4 -5 1 -6 9 -3 17 7 158 -64 151 -76 -3 -5 0 -12 6 -16 8 -4 9 -3 5 4 -12 19 4 14 101 -34 56 -27 91 -50 87 -56 -4 -6 -2 -8 3 -5 6 4 28 0 49 -9 29 -12 34 -18 23 -26 -11 -8 -10 -9 4 -4 21 7 49 -3 42 -15 -3 -4 4 -13 16 -19 16 -9 20 -9 14 0 -6 9 -3 9 13 1 16 -8 20 -19 18 -47 -3 -33 -2 -34 13 -19 14 14 14 17 1 25 -9 6 -10 10 -3 10 39 0 132 -224 174 -420 19 -92 21 -121 15 -245 -4 -77 -9 -151 -10 -165 -2 -14 -4 -33 -5 -42 0 -10 -6 -18 -12 -18 -7 0 -8 7 -4 17 3 10 9 35 12 57 4 28 2 37 -7 34 -15 -5 -23 -118 -9 -118 5 0 9 -15 9 -32 0 -26 -3 -30 -10 -18 -8 11 -9 9 -5 -10 7 -29 -19 -150 -41 -192 -16 -31 -46 -42 -104 -36 -22 2 -41 -1 -43 -6 -2 -5 -12 -4 -24 2 -26 14 -125 12 -135 -3 -5 -7 -14 -6 -29 3 -15 10 -19 10 -14 1 6 -8 4 -10 -6 -3 -19 11 -88 13 -117 2 -15 -5 -21 -4 -17 2 3 6 -3 10 -14 10 -11 0 -23 -4 -26 -10 -3 -5 -23 -10 -43 -10 -28 0 -33 3 -22 10 12 8 10 10 -8 10 -13 0 -20 -4 -17 -10 4 -6 -8 -10 -29 -10 -20 0 -36 5 -36 10 0 6 -25 9 -57 9 -56 -2 -56 -2 -18 -9 22 -4 -132 -8 -343 -9 -253 -1 -381 2 -377 9 4 6 -7 10 -27 10 -25 0 -29 -3 -18 -10 10 -6 -39 -10 -147 -10 -123 0 -163 3 -164 13 0 9 -2 9 -5 0 -4 -8 -61 -12 -202 -12 -122 0 -189 3 -177 9 14 6 16 9 4 9 -8 1 -20 -4 -27 -11 -6 -6 -14 -10 -16 -7 -3 3 -6 934 -6 2069 -1 1905 3 2274 24 2309 3 3 7 27 11 51 9 63 60 273 86 350 12 36 22 70 24 75 1 6 5 19 9 30 5 11 13 34 18 50 19 52 119 257 155 318 20 33 39 54 45 51 7 -4 8 -2 4 4 -11 19 54 117 69 104 5 -4 5 -1 1 5 -7 13 68 123 84 123 6 0 10 5 10 11 0 11 42 66 99 131 13 15 28 25 33 22 5 -3 7 -1 6 4 -5 15 62 83 74 76 7 -4 8 -3 4 4 -7 12 -1 19 84 92 29 25 60 52 69 60 56 53 263 200 282 200 6 0 7 -6 3 -12 -4 -8 -3 -10 2 -5 5 5 9 14 9 20 0 20 295 160 442 209 150 51 386 103 530 117 85 9 466 6 528 -3z m-539 -968 c10 -12 14 -19 8 -15 -6 3 -11 0 -11 -8 0 -11 4 -12 13 -4 16 13 56 -10 49 -28 -2 -7 1 -12 7 -10 7 1 12 -4 13 -10 0 -7 4 -13 9 -12 15 2 96 -85 140 -151 40 -59 116 -201 116 -215 0 -4 -4 -3 -10 0 -6 3 -7 -1 -4 -9 3 -9 10 -14 15 -13 12 3 48 -99 49 -135 0 -16 -4 -28 -10 -28 -5 0 -10 -9 -10 -20 0 -25 20 -27 21 -2 0 13 2 13 9 -5 5 -11 9 -56 10 -100 2 -118 1 -145 -7 -140 -5 3 -9 -23 -9 -56 -1 -34 -6 -63 -12 -65 -5 -1 -7 -13 -5 -26 3 -13 -2 -42 -10 -66 -13 -40 -15 -42 -26 -23 -6 12 -19 29 -28 39 -40 40 -72 87 -66 97 3 5 1 7 -5 4 -14 -10 -106 118 -165 228 -50 94 -76 165 -97 262 -11 53 -23 100 -26 104 -15 24 -3 393 13 422 6 10 8 9 29 -15z m1416 -885 c-5 -10 -12 -34 -16 -54 -9 -52 -52 -155 -58 -138 -3 8 -5 1 -5 -16 0 -50 -52 -147 -159 -295 -65 -89 -135 -161 -237 -242 -51 -41 -62 -46 -76 -36 -14 11 -14 11 -3 -3 11 -15 1 -25 -75 -81 -49 -36 -108 -78 -133 -94 -25 -16 -49 -33 -53 -39 -16 -21 29 130 87 293 51 142 142 292 245 404 18 21 37 36 40 33 4 -2 13 1 21 7 12 8 11 9 -4 4 -17 -6 -17 -4 -5 10 7 9 47 42 89 73 111 83 151 108 134 79 -4 -7 -3 -8 5 -4 6 4 9 12 6 17 -3 5 25 24 64 43 64 31 70 32 87 17 17 -15 17 -15 5 1 -10 14 -9 18 6 27 29 17 45 14 35 -6z m-2297 -706 c7 -7 5 -8 -6 -4 -9 3 -16 0 -16 -7 0 -6 8 -12 18 -12 10 0 15 4 13 8 -6 10 8 10 30 2 9 -3 13 -10 10 -15 -3 -5 1 -6 9 -4 7 3 30 -1 50 -10 27 -11 35 -19 31 -33 -5 -14 -4 -14 4 -3 9 12 17 11 56 -9 30 -17 41 -27 33 -33 -8 -5 -5 -7 8 -4 30 8 140 -72 139 -100 -1 -15 3 -20 13 -16 12 5 12 7 1 14 -7 5 -8 9 -2 9 11 0 66 -54 62 -61 -2 -2 -1 -3 1 -1 12 7 59 -52 54 -66 -5 -10 -2 -13 6 -8 17 11 42 -24 35 -49 -4 -15 -3 -16 4 -6 7 10 16 3 39 -30 30 -44 73 -123 73 -134 0 -3 -4 -4 -9 -1 -5 4 -7 -3 -4 -14 3 -11 11 -20 18 -20 7 0 22 -21 33 -47 29 -71 114 -334 109 -340 -9 -8 -108 47 -102 57 3 5 0 7 -8 4 -19 -7 -119 55 -110 68 3 7 1 8 -6 4 -32 -20 -393 267 -374 297 3 5 1 7 -4 4 -17 -11 -182 181 -175 204 1 5 -2 9 -7 9 -8 0 -91 129 -91 143 0 3 -11 30 -25 59 -14 29 -36 85 -49 124 l-24 71 77 -20 c42 -10 81 -24 86 -30z m2429 -619 c-18 -134 -91 -399 -116 -423 -7 -7 -9 -3 -5 13 3 12 1 22 -4 22 -12 0 -11 -48 1 -52 14 -4 -94 -215 -157 -308 -66 -97 -143 -185 -160 -184 -7 1 -10 -3 -7 -8 10 -16 -181 -193 -198 -182 -5 3 -7 2 -6 -3 2 -5 -37 -44 -87 -87 -49 -43 -92 -83 -93 -87 -2 -5 -12 -13 -21 -19 -16 -8 -17 -5 -9 33 4 23 19 107 32 187 13 80 27 154 29 165 41 161 86 281 99 263 7 -10 8 -8 4 5 -3 9 6 38 21 65 41 74 125 182 136 175 6 -3 7 -1 3 5 -12 19 179 216 201 207 7 -2 12 1 10 8 -1 7 4 11 11 9 8 -1 11 2 8 7 -8 13 63 68 194 149 63 39 116 72 117 72 1 0 -1 -15 -3 -32z m-2861 -672 c-5 -8 -2 -7 8 0 8 7 22 8 34 3 17 -6 17 -8 3 -8 -25 -1 -23 -21 2 -21 11 0 20 5 20 10 0 15 37 12 53 -5 8 -8 17 -12 19 -9 8 7 115 -36 208 -84 90 -46 118 -65 81 -55 -16 4 -21 1 -21 -13 0 -13 3 -15 8 -7 5 8 13 9 22 3 20 -13 33 -12 24 1 -5 8 -1 8 14 0 11 -6 19 -19 18 -28 -2 -10 -1 -12 1 -5 3 6 8 12 12 12 18 0 186 -128 183 -139 -1 -7 1 -10 6 -7 13 8 83 -54 76 -66 -4 -6 -3 -8 3 -5 5 3 25 -10 44 -31 19 -20 24 -28 12 -18 -26 22 -28 18 -11 -18 9 -21 14 -24 25 -14 12 9 20 5 44 -20 19 -20 27 -37 23 -49 -5 -15 -4 -16 5 -3 10 13 15 8 12 -12 0 -5 5 -8 12 -8 17 -1 119 -158 111 -172 -5 -7 -2 -8 6 -3 10 6 12 4 7 -8 -3 -9 -1 -19 5 -23 7 -5 8 -2 3 6 -5 8 -4 11 3 6 21 -12 83 -152 76 -172 -4 -13 -3 -15 3 -6 10 13 28 -18 69 -120 19 -49 20 -57 6 -49 -9 5 -19 9 -22 9 -7 -1 -192 89 -210 102 -12 8 -9 9 13 6 15 -3 27 -1 27 5 0 5 -17 7 -37 4 -28 -3 -50 3 -94 27 -32 18 -56 35 -53 39 2 4 -1 11 -7 15 -8 4 -9 3 -5 -4 11 -18 -3 -14 -53 15 -124 71 -323 221 -314 236 3 6 1 7 -5 3 -16 -10 -245 221 -300 303 -24 35 -39 60 -33 56 7 -4 10 2 8 16 -2 13 -10 25 -18 27 -12 3 -12 2 0 -6 7 -5 9 -12 4 -15 -15 -9 -54 49 -47 70 4 12 3 14 -3 6 -11 -16 -57 72 -47 89 4 7 2 8 -5 4 -13 -9 -55 80 -47 101 3 8 2 12 -2 9 -4 -2 -15 8 -24 23 l-16 28 34 -10 c20 -6 31 -15 27 -21z m3293 -559 c-50 -134 -177 -354 -197 -342 -5 4 -6 0 -4 -7 7 -17 -102 -151 -115 -143 -6 3 -8 0 -5 -7 3 -7 -23 -40 -57 -73 -76 -74 -272 -233 -304 -247 -13 -6 -24 -14 -24 -17 0 -13 -61 -43 -75 -37 -8 3 -14 0 -12 -6 3 -14 -61 -50 -75 -42 -6 4 -8 2 -5 -3 9 -15 -128 -84 -151 -77 -12 4 -13 3 -4 -3 9 -7 -1 -16 -35 -31 -56 -25 -72 -28 -95 -18 -14 6 -15 12 -6 32 6 13 14 21 19 19 4 -3 11 0 15 6 4 8 3 9 -4 5 -18 -11 -15 -2 30 90 30 62 44 82 50 72 7 -9 8 -8 4 5 -9 27 24 87 48 87 16 0 18 3 7 9 -10 7 -2 25 38 83 69 100 170 218 184 215 6 -1 11 4 12 11 0 20 56 73 68 65 6 -3 7 -1 4 5 -4 5 12 25 34 44 23 18 60 48 82 66 50 41 72 53 82 44 3 -4 5 0 3 8 -2 9 4 14 14 14 10 -1 16 3 15 8 -3 15 225 139 246 134 11 -3 16 -2 13 1 -10 11 150 74 196 77 3 1 10 4 14 9 15 15 13 6 -10 -56z"/>
</g>
</svg>
