<?xml version="1.0" standalone="no"?>
<!DOCTYPE svg PUBLIC "-//W3C//DTD SVG 20010904//EN"
 "http://www.w3.org/TR/2001/REC-SVG-20010904/DTD/svg10.dtd">
<svg version="1.0" xmlns="http://www.w3.org/2000/svg"
 width="1024.000000pt" height="1024.000000pt" viewBox="0 0 1024.000000 1024.000000"
 preserveAspectRatio="xMidYMid meet">
<metadata>
Created by potrace 1.16, written by Peter Selinger 2001-2019
</metadata>
<g transform="translate(0.000000,1024.000000) scale(0.100000,-0.100000)"
fill="#000000" stroke="none">
<path d="M5585 8950 c19 -8 19 -9 1 -9 -11 -1 -57 -21 -103 -46 -45 -25 -86
-45 -90 -45 -5 0 -2 4 5 9 11 7 11 9 -1 14 -9 3 -14 -1 -13 -12 1 -21 -190
-155 -206 -145 -6 4 -8 2 -5 -3 9 -14 -80 -86 -94 -77 -7 4 -9 3 -6 -3 4 -6
-14 -29 -39 -53 -36 -34 -48 -40 -59 -30 -12 10 -13 8 -10 -10 5 -25 -61 -104
-78 -93 -5 3 -7 2 -4 -3 3 -6 -10 -30 -30 -54 -57 -73 -112 -157 -157 -241
-24 -44 -44 -77 -47 -75 -2 2 -5 -5 -5 -17 -2 -30 -66 -211 -76 -215 -4 -2 -6
-8 -2 -13 3 -5 -1 -40 -10 -77 -27 -120 -46 -313 -46 -474 0 -99 -4 -158 -10
-158 -5 0 -10 -5 -10 -11 0 -5 4 -7 10 -4 13 8 20 -27 23 -126 1 -48 5 -85 8
-83 4 2 9 -18 13 -44 6 -49 49 -233 62 -266 6 -15 4 -18 -7 -12 -10 5 -10 4 1
-6 22 -18 50 -96 43 -116 -3 -9 -2 -14 2 -10 8 7 34 -41 50 -92 5 -17 4 -21
-5 -15 -9 6 -11 4 -6 -4 5 -7 11 -10 14 -6 3 3 18 -20 32 -52 18 -39 23 -60
16 -65 -7 -5 -6 -8 4 -8 21 0 127 -196 141 -258 6 -28 8 -98 5 -163 -11 -228
-12 -249 -4 -249 5 0 4 -9 -2 -20 -8 -14 -7 -25 2 -41 10 -17 10 -23 1 -26 -7
-3 -13 -17 -12 -31 0 -24 1 -25 9 -7 7 17 9 15 9 -12 1 -18 -4 -33 -10 -33 -8
0 -8 -4 -2 -12 6 -7 16 -96 22 -198 11 -182 32 -384 51 -508 6 -34 8 -73 6
-87 -3 -14 -1 -23 3 -21 4 3 13 -34 20 -82 6 -48 14 -98 17 -112 4 -20 3 -22
-5 -10 -6 8 -11 27 -11 43 0 15 -6 27 -13 27 -13 0 -84 136 -80 152 2 4 -1 8
-7 8 -14 0 -82 139 -74 152 4 6 3 8 -3 5 -12 -8 -166 300 -157 315 4 6 3 8 -4
4 -13 -8 -24 25 -16 50 5 16 4 16 -5 4 -17 -23 -14 28 8 155 49 280 31 493
-67 790 -26 77 -46 146 -45 153 0 7 -1 11 -4 8 -9 -9 -93 186 -86 198 3 6 2 8
-2 3 -11 -10 -78 110 -69 125 4 6 3 8 -4 4 -13 -8 -56 60 -46 75 4 7 3 9 -3 6
-14 -8 -86 100 -77 115 4 6 3 8 -4 4 -6 -4 -36 26 -70 71 -33 43 -110 130
-173 193 -62 63 -112 119 -111 123 2 5 -2 6 -7 3 -5 -4 -29 12 -52 34 -23 22
-44 40 -46 40 -2 0 -26 17 -53 37 -36 27 -46 40 -37 46 8 6 7 7 -5 3 -19 -6
-125 61 -120 76 1 5 -2 7 -8 3 -13 -8 -52 19 -42 30 4 5 2 5 -5 1 -7 -4 -34 5
-60 19 -26 14 -40 24 -30 21 11 -4 16 -2 12 5 -4 6 -14 8 -22 5 -8 -3 -48 6
-89 20 -84 30 -154 30 -201 -2 -15 -10 -32 -17 -36 -16 -5 1 -6 -2 -3 -7 3 -5
-1 -26 -10 -47 -14 -34 -16 -64 -9 -219 4 -99 8 -199 9 -222 0 -22 4 -39 7
-37 6 4 19 -58 18 -86 0 -10 -3 -8 -9 5 -7 16 -9 17 -9 3 -1 -9 5 -21 12 -25
8 -4 26 -57 41 -117 16 -61 30 -117 33 -125 4 -12 3 -13 -4 -3 -8 10 -12 10
-23 -3 -12 -14 -12 -16 1 -15 28 4 38 0 44 -22 12 -41 76 -201 96 -239 10 -21
16 -45 13 -53 -3 -8 -1 -23 5 -33 8 -14 10 -14 11 -3 0 8 27 -34 61 -94 33
-60 76 -133 95 -163 19 -30 32 -58 29 -63 -3 -5 0 -12 6 -16 8 -5 9 -3 4 7
-15 26 11 -4 72 -86 33 -44 77 -100 97 -124 31 -37 35 -46 24 -60 -12 -14 -11
-14 5 -2 16 12 22 9 18 -12 -1 -5 3 -6 8 -3 12 8 102 -95 94 -107 -3 -6 -1 -7
6 -3 13 9 203 -163 194 -177 -3 -4 1 -7 8 -5 8 1 53 -26 101 -62 74 -54 85
-66 75 -79 -11 -14 -10 -14 6 -2 15 12 24 9 75 -26 31 -22 80 -52 107 -68 28
-15 61 -37 74 -49 35 -31 73 -95 65 -109 -4 -7 -3 -9 1 -4 10 9 28 -22 176
-309 74 -144 117 -238 113 -248 -3 -9 -1 -16 6 -16 6 0 8 6 4 13 -5 8 -4 9 4
2 19 -18 101 -204 87 -199 -7 3 -16 0 -21 -7 -4 -8 -3 -10 4 -5 46 28 122
-209 167 -519 9 -60 30 -195 47 -299 25 -156 28 -190 17 -197 -12 -8 -6 -13
12 -11 4 1 9 -10 12 -24 4 -24 3 -24 -24 8 -30 35 -37 54 -16 42 7 -4 9 -3 4
2 -5 5 -14 9 -20 9 -7 0 -11 8 -11 18 1 9 -2 15 -6 12 -15 -9 -195 259 -185
276 4 5 1 8 -5 7 -11 -3 -30 39 -94 212 -26 70 -32 97 -23 103 8 6 6 7 -5 3
-11 -3 -18 0 -18 7 0 7 -25 57 -57 112 -31 55 -56 105 -56 112 0 7 -3 10 -6 8
-4 -2 -29 29 -56 68 -166 236 -392 473 -580 608 -24 18 -42 37 -38 43 3 6 3 8
-2 4 -11 -11 -47 11 -39 24 4 7 3 8 -4 4 -14 -9 -55 18 -44 28 4 4 3 7 -3 6
-22 -5 -36 1 -29 12 4 6 3 8 -3 5 -11 -7 -115 55 -115 69 0 5 -2 11 -5 14 -4
3 -3 -1 1 -7 11 -20 -2 -16 -53 15 -25 15 -61 34 -79 42 -22 8 -29 16 -21 21
7 4 3 7 -12 7 -13 0 -83 25 -155 55 -72 31 -143 59 -158 63 -14 3 -23 11 -19
17 3 6 1 7 -5 3 -6 -4 -23 -4 -37 0 -21 5 -24 9 -13 16 10 7 9 8 -5 4 -19 -6
-180 34 -185 46 -2 5 -7 6 -12 3 -4 -2 -54 4 -111 15 -141 27 -335 44 -414 35
-122 -13 -157 -73 -111 -186 24 -59 25 -65 9 -76 -9 -7 -12 -13 -6 -13 7 0 15
5 19 12 4 6 20 -15 40 -53 36 -69 40 -84 22 -73 -7 4 -8 3 -4 -5 4 -6 11 -9
16 -6 9 6 72 -99 68 -114 -2 -5 6 -17 17 -26 11 -9 13 -13 5 -10 -8 4 -3 -3
11 -16 39 -35 140 -189 133 -201 -4 -6 -3 -8 3 -5 5 3 50 -44 99 -106 49 -61
149 -173 221 -248 73 -75 129 -140 125 -144 -4 -5 -1 -5 6 -1 15 9 119 -81
114 -98 -2 -6 0 -8 3 -4 4 4 51 -26 104 -66 53 -40 108 -81 123 -91 15 -9 25
-22 21 -28 -3 -6 -1 -7 5 -3 11 6 85 -36 79 -45 -1 -2 0 -3 2 -2 11 6 61 -29
55 -39 -4 -7 -3 -8 4 -4 16 10 74 -22 66 -36 -4 -6 -3 -8 4 -4 13 8 83 -24 76
-35 -2 -4 1 -11 7 -15 8 -4 9 -3 5 4 -4 7 -5 12 -3 12 11 0 171 -79 162 -80
-13 0 16 -20 30 -20 6 0 3 5 -5 11 -18 12 16 4 64 -16 25 -11 27 -13 10 -17
-10 -3 -3 -5 16 -5 19 0 89 -14 155 -32 134 -36 314 -50 440 -34 79 9 118 6
109 -8 -3 -6 2 -9 12 -7 21 4 158 -168 147 -185 -3 -5 -1 -7 5 -3 13 8 55 -48
44 -59 -4 -5 -2 -5 5 -1 12 7 40 -31 35 -47 -1 -5 2 -6 7 -3 11 7 32 -17 35
-41 2 -10 9 -18 16 -18 7 0 29 -20 49 -44 20 -25 29 -41 21 -37 -8 4 -6 0 5
-9 11 -9 19 -21 18 -26 -2 -5 3 -8 10 -6 6 1 11 -4 10 -10 -2 -7 2 -12 9 -10
16 3 80 -93 74 -110 -3 -8 -2 -12 3 -9 12 8 34 -50 28 -74 -3 -11 -2 -18 2
-15 9 5 35 -125 26 -133 -3 -3 -5 4 -5 16 0 12 -4 22 -9 22 -5 0 -4 -15 2 -35
6 -20 13 -31 17 -25 10 16 61 -191 54 -220 -4 -16 -3 -21 3 -12 6 8 22 -32 47
-120 21 -73 41 -139 43 -147 4 -8 1 -11 -6 -7 -6 4 -11 2 -11 -3 0 -6 7 -11
15 -11 8 0 15 -8 15 -17 0 -14 -2 -15 -9 -4 -5 8 -11 9 -15 3 -3 -6 3 -14 15
-17 11 -4 18 -9 15 -12 -3 -4 -2 -11 3 -17 17 -22 51 -143 45 -162 -4 -14 -3
-16 4 -5 9 13 11 10 27 -59 1 -3 9 -23 19 -45 10 -22 18 -55 18 -74 0 -20 3
-29 8 -21 5 8 16 -9 31 -48 31 -81 65 -121 112 -131 20 -5 35 -5 32 -1 -4 7
22 24 35 22 3 0 6 17 8 38 2 26 -9 66 -32 122 -19 46 -36 92 -38 103 -1 11 -6
22 -9 25 -21 17 -230 702 -232 761 -1 21 -5 35 -8 33 -10 -6 -39 151 -43 237
-7 130 31 313 110 540 69 198 89 220 225 250 52 11 118 27 146 35 29 9 58 12
64 8 7 -4 9 -3 5 4 -3 6 7 13 26 17 45 10 229 85 316 129 40 20 78 34 85 30 7
-4 9 -3 4 1 -10 11 121 87 136 78 7 -3 9 -3 5 2 -10 11 221 167 235 158 5 -3
7 -1 4 4 -9 14 29 47 43 38 6 -3 9 -2 8 2 -2 5 24 32 57 60 111 93 272 252
375 372 57 66 108 117 113 114 6 -3 7 -1 3 5 -7 11 110 177 124 177 5 0 12 4
17 9 5 5 3 6 -4 2 -21 -12 -16 -1 56 109 125 193 272 506 315 673 28 108 -8
174 -101 189 -21 3 -41 11 -45 17 -5 8 -8 7 -8 -1 0 -8 -15 -13 -39 -13 -22 0
-106 -11 -187 -25 -81 -14 -157 -23 -169 -20 -11 3 -14 2 -6 -2 14 -6 -192
-73 -234 -77 -11 0 -22 -4 -25 -7 -3 -4 -36 -19 -75 -34 -38 -15 -114 -50
-168 -77 -54 -27 -103 -46 -109 -42 -6 4 -8 3 -5 -3 10 -16 -23 -25 -39 -12
-9 7 -14 8 -14 1 0 -6 6 -12 13 -15 12 -4 -61 -46 -75 -43 -4 0 -13 -6 -20
-15 -23 -28 -139 -100 -150 -93 -6 4 -8 3 -5 -3 4 -6 -9 -23 -28 -37 -19 -15
-35 -24 -35 -20 0 4 -10 -5 -21 -20 -12 -15 -23 -25 -26 -22 -3 2 -21 -13 -40
-35 -33 -37 -63 -54 -47 -26 4 6 -2 4 -14 -7 -12 -10 -20 -22 -17 -26 5 -8
-123 -136 -133 -133 -4 2 -7 -3 -7 -10 0 -19 -86 -117 -97 -111 -5 3 -8 0 -6
-7 1 -8 -13 -35 -31 -61 -35 -49 -48 -60 -37 -32 3 8 2 12 -3 9 -6 -3 -9 -13
-9 -23 1 -9 -20 -51 -47 -92 -27 -41 -77 -130 -111 -197 -34 -67 -64 -119 -67
-117 -3 3 -4 -1 -3 -8 2 -22 -76 -218 -85 -212 -5 3 -6 -1 -3 -9 2 -7 -8 -61
-24 -118 -16 -57 -32 -125 -36 -152 -4 -26 -10 -45 -14 -43 -4 2 -7 -15 -8
-37 0 -57 -24 -158 -34 -152 -5 3 -12 0 -16 -6 -4 -8 -3 -9 4 -5 7 4 12 1 12
-6 -1 -24 -87 -283 -91 -272 -2 5 -13 1 -23 -10 -19 -19 -19 -19 3 -13 20 5
22 3 17 -16 -4 -12 -14 -58 -24 -102 -9 -44 -20 -82 -24 -83 -5 -2 -6 -8 -3
-13 4 -5 1 -17 -4 -26 -6 -10 -11 -12 -11 -6 0 7 -20 133 -45 280 -48 283 -51
312 -35 331 7 9 7 9 -2 2 -14 -12 -14 -9 -58 325 -47 354 -16 595 121 940 90
229 120 270 199 270 21 0 35 2 29 5 -5 4 17 14 48 24 88 27 329 124 406 163
37 18 73 31 79 27 7 -4 8 -3 4 4 -4 7 -3 12 1 12 5 0 62 32 128 72 66 39 125
71 132 71 7 0 10 4 7 9 -5 8 11 12 31 8 5 -1 7 1 3 5 -3 4 38 40 92 81 171
129 385 357 480 512 25 41 35 50 42 40 7 -10 8 -9 4 5 -3 10 8 39 25 69 193
328 339 780 394 1223 19 152 14 213 -20 245 -14 13 -23 26 -20 29 5 9 -76 6
-134 -4 -24 -4 -88 -22 -143 -41 -54 -18 -107 -31 -116 -28 -12 4 -13 3 -4 -3
8 -7 -13 -20 -70 -44 -46 -19 -89 -33 -95 -33 -7 1 -11 -1 -9 -5 3 -4 -23 -22
-57 -41 -34 -19 -86 -49 -115 -67 -29 -19 -58 -31 -65 -27 -6 4 -9 4 -5 -1 11
-12 -121 -104 -141 -98 -11 3 -12 2 -4 -4 15 -11 -93 -97 -109 -87 -6 4 -8 3
-5 -4 4 -5 -8 -22 -25 -37 -18 -15 -64 -56 -101 -91 -38 -35 -73 -61 -79 -58
-6 4 -8 3 -5 -3 9 -14 -92 -125 -106 -116 -7 3 -9 3 -5 -2 9 -10 -42 -76 -53
-69 -5 3 -8 1 -7 -4 2 -6 -30 -54 -71 -107 -55 -71 -77 -93 -84 -83 -6 9 -7 8
-3 -5 6 -20 -67 -140 -79 -129 -5 4 -5 2 -2 -4 4 -6 -9 -35 -27 -64 -18 -29
-35 -49 -38 -44 -3 5 -3 4 -2 -3 3 -12 -72 -164 -78 -158 -2 2 -4 -4 -5 -13
-2 -29 -76 -201 -85 -196 -4 3 -6 -1 -3 -8 7 -19 -60 -230 -70 -221 -4 5 -5 2
-1 -5 4 -6 -2 -58 -13 -115 -20 -101 -44 -265 -56 -384 -4 -35 -11 -63 -17
-63 -5 0 -6 -5 -3 -10 8 -13 -18 -94 -62 -190 -19 -41 -51 -118 -70 -170 -39
-104 -53 -128 -53 -90 0 14 -7 90 -16 170 -19 183 -30 851 -16 1008 11 127 1
105 163 337 35 50 92 137 127 195 35 57 69 108 75 112 7 4 9 8 5 8 -4 0 24 60
62 133 121 230 195 426 249 657 93 394 107 906 35 1288 -40 212 -84 292 -166
297 -3 0 -10 3 -14 8 -4 4 -14 7 -23 6 -12 0 -11 -3 4 -9z m29 -327 c40 -212
50 -364 42 -632 -6 -224 -24 -410 -37 -396 -4 3 -4 -5 -2 -18 3 -13 -5 -68
-16 -123 -12 -54 -21 -102 -21 -107 0 -4 -3 -6 -7 -4 -5 3 -9 -11 -10 -32 -3
-74 -135 -427 -156 -414 -6 3 -7 1 -3 -5 10 -16 -63 -164 -76 -156 -7 4 -8 2
-4 -5 7 -11 -98 -211 -111 -211 -3 0 -2 7 1 16 3 9 2 12 -5 9 -6 -4 -8 -13 -5
-21 7 -18 -67 -137 -79 -127 -4 5 -5 3 -2 -3 4 -6 -9 -33 -29 -60 l-35 -49 6
85 c4 47 9 92 11 100 3 8 7 48 9 90 8 171 150 962 168 943 5 -4 5 0 2 9 -6 16
24 167 80 401 27 112 23 137 -25 162 -25 13 -37 14 -70 4 -21 -7 -39 -15 -38
-18 1 -3 -2 -13 -5 -21 -23 -54 -188 -882 -226 -1135 -11 -72 -34 -259 -46
-375 -4 -36 -9 -74 -12 -85 -2 -11 -4 -38 -4 -60 0 -22 -3 -56 -7 -75 l-8 -35
-37 88 c-56 133 -124 354 -147 475 -25 135 -44 405 -29 411 8 2 8 5 0 10 -16
10 3 278 29 411 37 195 108 378 199 515 56 85 111 146 123 139 7 -5 8 -2 3 6
-16 26 349 331 376 314 7 -4 10 -3 5 4 -8 14 30 36 46 26 7 -5 8 -3 3 6 -6 10
-4 12 8 7 9 -3 16 -2 14 3 -2 8 79 67 94 69 4 1 18 -61 33 -136z m1636 -1155
c0 -20 -1 -20 -12 -5 -10 13 -17 14 -28 6 -12 -9 -12 -10 4 -5 13 5 17 2 12
-9 -3 -9 0 -15 10 -15 18 0 14 -35 -23 -240 -31 -176 -64 -304 -119 -470 -51
-154 -175 -426 -192 -423 -7 2 -9 -4 -5 -14 5 -12 3 -14 -7 -8 -9 5 -11 4 -6
-3 9 -15 -18 -55 -29 -44 -5 4 -5 1 -1 -6 10 -16 -32 -84 -46 -76 -7 4 -8 2
-4 -4 9 -15 -23 -64 -37 -55 -5 3 -7 2 -4 -4 9 -14 -22 -55 -35 -47 -7 4 -8 2
-4 -5 9 -15 -52 -93 -66 -85 -6 4 -8 3 -5 -3 9 -14 -89 -119 -192 -207 -70
-60 -92 -73 -112 -69 -19 3 -26 0 -26 -11 0 -12 3 -13 14 -4 7 6 16 8 19 5 6
-5 -132 -101 -218 -151 -26 -15 -53 -24 -59 -20 -7 4 -9 3 -5 -4 9 -15 -28
-33 -51 -26 -12 4 -14 3 -6 -3 17 -12 -199 -119 -217 -108 -8 5 -11 4 -6 -3 4
-6 -26 -23 -76 -42 -79 -31 -188 -70 -194 -70 -6 0 92 160 169 275 157 235
438 581 461 568 6 -3 8 -2 3 2 -10 11 43 66 56 58 6 -4 7 -1 2 6 -9 16 83 113
99 104 6 -3 7 -2 3 2 -10 12 183 206 197 198 6 -3 8 -2 3 2 -10 11 53 76 66
68 6 -3 7 -1 3 5 -7 12 112 119 128 114 6 -2 8 -1 4 3 -4 4 -2 18 3 32 7 18 5
34 -7 59 -9 19 -17 34 -19 34 -1 0 -19 7 -40 16 -20 8 -34 10 -30 5 3 -6 2
-11 -4 -11 -5 0 -30 -15 -54 -34 -25 -19 -49 -31 -53 -28 -4 4 -4 2 -1 -5 7
-11 -78 -95 -92 -90 -3 1 -7 -2 -9 -8 -6 -21 -76 -84 -86 -78 -6 3 -8 2 -3 -2
10 -11 -63 -86 -76 -78 -6 4 -7 1 -2 -6 9 -16 -63 -93 -79 -84 -6 3 -8 2 -3
-2 10 -11 -33 -56 -46 -48 -6 3 -7 1 -3 -5 7 -13 -50 -83 -66 -79 -6 1 -12 -6
-13 -15 -2 -10 -29 -47 -60 -82 -40 -46 -62 -64 -76 -61 -11 2 -17 0 -14 -6 4
-5 11 -7 16 -4 17 11 9 -7 -18 -39 -14 -17 -30 -30 -35 -28 -4 1 -7 -2 -6 -6
2 -5 -28 -50 -66 -100 -49 -65 -73 -89 -81 -82 -8 7 -12 5 -12 -5 0 -8 4 -12
9 -9 14 9 9 -6 -14 -36 -11 -16 -26 -26 -31 -23 -6 3 -7 1 -3 -5 9 -14 -15
-52 -32 -52 -8 0 -12 -6 -9 -13 3 -7 -7 -31 -22 -53 -15 -22 -45 -70 -65 -107
-36 -63 -50 -83 -41 -54 2 6 13 61 25 121 37 185 130 466 144 435 3 -8 3 -4 1
7 -6 25 14 76 26 68 5 -3 7 1 4 8 -8 20 63 161 76 152 8 -4 9 -3 5 4 -7 12 19
72 33 72 4 0 8 6 8 13 0 23 103 168 115 161 7 -4 8 -3 4 5 -9 15 32 73 46 65
7 -4 8 -2 4 5 -14 21 185 244 339 380 149 132 215 182 227 174 6 -3 8 -1 5 4
-9 14 99 86 115 77 6 -4 8 -3 5 3 -8 13 42 47 168 114 53 28 100 47 106 43 7
-4 9 -3 6 3 -7 12 49 38 188 89 109 40 125 41 125 12z m-3903 -203 c130 -61
199 -105 181 -117 -9 -6 -7 -8 7 -6 35 5 262 -173 248 -195 -4 -6 -1 -7 7 -2
13 8 162 -137 157 -154 -1 -5 3 -10 8 -11 24 -3 55 -44 49 -64 -3 -14 -2 -17
4 -8 11 17 47 -21 36 -39 -4 -7 -3 -10 4 -5 5 3 24 -11 41 -33 33 -41 39 -57
19 -45 -9 5 -9 3 1 -9 7 -9 17 -15 21 -12 11 7 52 -64 44 -77 -4 -7 -2 -8 4
-4 13 8 36 -30 27 -44 -4 -6 -1 -9 7 -8 7 2 12 -5 12 -14 -1 -10 2 -16 6 -13
11 7 22 -24 13 -37 -4 -7 -1 -8 7 -3 9 6 12 4 8 -7 -4 -8 -2 -21 4 -29 8 -11
9 -10 4 4 -11 35 5 15 33 -42 19 -37 28 -67 25 -82 -4 -17 -3 -20 4 -11 14 21
108 -208 97 -237 -3 -9 -3 -12 1 -8 9 9 35 -73 28 -85 -3 -4 -1 -8 4 -8 19 0
61 -278 44 -289 -10 -6 -16 -36 -12 -61 2 -8 6 1 10 20 5 26 8 11 9 -55 1
-147 -14 -147 -68 -2 -18 49 -69 165 -112 258 -44 94 -77 175 -73 182 4 7 3 9
-1 4 -5 -4 -34 39 -65 95 -31 57 -71 128 -88 159 -18 31 -30 59 -27 62 3 4 2
5 -2 2 -7 -6 -76 104 -76 123 0 6 -3 10 -5 7 -9 -8 -53 65 -47 75 4 6 2 9 -3
8 -5 -2 -30 26 -54 62 -47 68 -78 87 -121 76 -32 -8 -67 -43 -67 -67 0 -10 24
-53 54 -96 69 -99 176 -271 175 -281 -3 -19 2 -33 10 -27 9 5 65 -86 62 -100
-1 -3 5 -13 14 -21 8 -9 13 -19 10 -24 -3 -4 2 -10 10 -14 8 -3 15 -10 15 -16
0 -6 -5 -8 -12 -4 -7 4 -8 3 -4 -5 4 -6 11 -9 15 -6 11 6 47 -75 43 -95 -2 -8
0 -12 4 -7 11 10 76 -121 68 -136 -4 -7 -4 -9 1 -5 11 11 165 -339 159 -360
-5 -13 -4 -14 4 -4 7 11 12 6 21 -19 6 -18 9 -35 6 -37 -3 -3 -5 0 -5 7 0 7
-6 11 -14 8 -18 -7 -69 31 -60 44 3 6 0 9 -7 8 -21 -3 -50 12 -43 22 3 5 1 8
-4 7 -16 -5 -73 42 -66 54 4 6 3 8 -4 5 -14 -9 -124 81 -116 95 4 6 3 8 -3 5
-6 -4 -58 42 -116 101 -139 141 -170 179 -161 193 4 7 3 9 -4 5 -12 -7 -79 81
-74 98 2 6 0 8 -3 4 -24 -24 -272 421 -260 465 4 15 3 18 -3 9 -6 -9 -13 -1
-25 29 -9 23 -14 46 -11 50 3 5 1 9 -4 9 -12 0 -73 189 -101 310 -21 89 -46
258 -56 373 -7 83 3 147 21 147 8 0 58 -20 111 -45z m4383 -1899 c-17 -53 -36
-94 -41 -91 -5 4 -6 0 -4 -7 8 -21 -143 -320 -158 -312 -7 4 -9 4 -5 -1 9 -10
-12 -50 -85 -159 -87 -131 -178 -246 -189 -240 -5 3 -7 0 -6 -7 2 -7 -6 -13
-16 -14 -11 0 -21 -7 -23 -15 -4 -13 -3 -13 6 0 5 8 13 11 17 7 23 -23 -449
-483 -487 -475 -7 2 -13 -2 -14 -9 0 -17 -53 -55 -66 -47 -8 4 -9 3 -5 -4 11
-19 -217 -164 -243 -155 -8 4 -11 1 -7 -5 9 -15 -127 -84 -151 -76 -13 4 -15
3 -5 -4 23 -16 -209 -107 -406 -161 l-73 -20 23 32 c83 119 254 318 271 314 7
-1 11 6 9 15 -4 23 536 561 555 554 8 -3 12 -2 9 2 -3 5 13 26 34 47 22 22 40
35 40 30 0 -5 7 0 15 12 8 12 62 60 120 108 58 47 106 94 106 103 4 62 -34
107 -85 100 -50 -7 -59 -12 -82 -38 -32 -37 -110 -90 -119 -82 -5 4 -5 2 -2
-5 8 -12 -40 -56 -53 -48 -4 3 -14 -3 -21 -13 -13 -16 -12 -16 6 -3 11 7 -7
-12 -40 -43 -42 -40 -62 -52 -68 -43 -6 8 -7 6 -3 -5 6 -20 -50 -72 -66 -62
-6 4 -8 3 -5 -3 7 -12 -46 -66 -69 -69 -9 -1 -19 -6 -22 -10 -4 -4 2 -4 13 0
13 4 4 -10 -24 -38 -24 -25 -49 -42 -55 -39 -6 3 -8 3 -4 -2 9 -10 -153 -181
-167 -177 -5 2 -7 0 -2 -4 9 -10 -33 -55 -45 -48 -5 3 -7 1 -6 -4 5 -16 -62
-93 -74 -86 -7 4 -8 2 -4 -4 4 -6 -34 -61 -87 -126 -52 -63 -109 -135 -127
-160 -19 -25 -35 -45 -36 -43 -6 5 8 47 16 47 4 0 5 12 2 26 -3 19 -1 25 6 20
8 -4 10 -2 6 8 -18 48 227 589 259 569 6 -3 7 -1 4 4 -14 23 205 308 227 296
6 -3 8 -2 3 2 -10 11 83 106 96 98 6 -3 7 -2 4 4 -11 17 157 168 175 157 6 -4
8 -3 5 4 -9 14 89 86 104 76 7 -4 9 -3 5 4 -11 19 234 169 255 156 7 -4 9 -3
6 3 -9 14 191 106 332 153 144 48 362 94 415 87 25 -4 35 -2 26 3 -10 6 6 10
45 12 33 2 62 2 64 1 1 -1 -11 -45 -29 -97z m-5000 -332 c120 -18 390 -84 390
-95 0 -5 7 -5 17 -2 12 5 14 3 8 -7 -5 -9 -4 -11 4 -6 11 7 58 -5 116 -29 17
-7 51 -21 78 -30 26 -10 47 -22 47 -26 0 -5 3 -8 8 -7 16 4 52 -14 46 -23 -3
-6 1 -9 9 -7 22 5 157 -64 150 -76 -3 -6 -3 -8 2 -4 11 10 87 -31 80 -42 -4
-6 1 -7 11 -3 13 5 15 3 9 -7 -5 -9 -4 -11 3 -6 16 9 104 -52 96 -66 -4 -7 -2
-8 5 -4 14 9 124 -71 116 -84 -3 -6 0 -8 7 -5 7 3 33 -13 58 -36 25 -23 36
-35 25 -28 -18 13 -19 13 -6 -3 7 -10 17 -16 21 -13 13 8 61 -36 53 -48 -3 -7
-2 -9 2 -4 12 10 56 -33 48 -47 -3 -6 -2 -8 2 -3 11 10 86 -63 78 -76 -3 -6
-1 -7 5 -4 13 9 64 -51 56 -65 -4 -6 -3 -8 3 -5 13 8 57 -39 48 -52 -3 -6 1
-18 9 -27 9 -8 16 -12 16 -7 0 5 -5 14 -12 21 -7 7 -9 12 -5 12 13 0 76 -93
70 -103 -3 -5 -1 -7 4 -4 12 8 86 -100 78 -113 -3 -5 0 -12 6 -16 8 -4 9 -3 5
4 -4 7 -5 12 -2 12 3 0 23 -30 45 -67 27 -45 37 -71 31 -78 -6 -7 -7 -15 -3
-18 3 -4 2 -7 -4 -7 -16 0 -44 36 -36 45 5 4 3 5 -3 2 -14 -8 -66 31 -58 44 3
5 1 8 -4 7 -16 -5 -103 72 -96 84 4 6 2 8 -3 5 -13 -8 -169 120 -165 134 1 6
-2 8 -7 5 -5 -3 -53 27 -108 67 -54 41 -135 99 -180 130 -45 30 -80 57 -77 59
2 3 -2 5 -9 5 -7 0 -37 15 -67 35 -30 19 -85 51 -123 72 -39 22 -64 42 -60 48
3 6 1 8 -5 4 -11 -7 -103 34 -97 43 1 3 -8 7 -21 7 -13 1 -37 5 -52 8 -20 5
-23 4 -12 -4 13 -8 13 -10 -2 -10 -24 0 -48 -40 -51 -84 -2 -19 -2 -34 1 -32
2 3 20 -7 39 -20 20 -13 40 -24 45 -24 5 0 6 -5 2 -12 -4 -7 -3 -8 4 -4 14 8
182 -81 182 -96 0 -6 3 -8 6 -5 13 13 187 -100 177 -115 -3 -7 -1 -8 5 -4 13
8 157 -87 171 -111 4 -8 10 -13 13 -11 11 6 98 -64 92 -74 -4 -6 -2 -8 4 -4
13 8 178 -127 174 -143 -1 -7 2 -10 7 -7 10 7 82 -51 78 -62 -1 -4 1 -7 4 -7
14 0 75 -60 80 -79 3 -11 11 -20 18 -18 18 4 84 -65 75 -79 -4 -7 -3 -9 4 -5
10 6 37 -16 71 -57 13 -16 7 -17 -85 -13 -99 5 -211 23 -314 52 -87 23 -290
106 -285 115 3 4 0 11 -6 15 -8 4 -9 3 -5 -4 10 -17 1 -15 -45 8 -24 13 -37
25 -33 32 4 7 3 8 -5 4 -14 -9 -123 52 -116 65 4 5 0 7 -7 4 -15 -6 -131 68
-123 78 3 4 2 5 -1 2 -11 -8 -124 77 -117 88 3 5 1 7 -4 4 -23 -14 -370 294
-356 316 3 6 1 7 -5 3 -7 -4 -50 38 -105 103 -137 161 -180 218 -171 232 4 7
3 9 -4 5 -11 -7 -75 78 -75 101 0 7 -2 11 -5 8 -12 -11 -125 172 -116 187 4 6
3 8 -3 5 -9 -6 -103 157 -103 178 0 8 111 -1 240 -21z"/>
</g>
</svg>
