<?xml version="1.0" standalone="no"?>
<!DOCTYPE svg PUBLIC "-//W3C//DTD SVG 20010904//EN"
 "http://www.w3.org/TR/2001/REC-SVG-20010904/DTD/svg10.dtd">
<svg version="1.0" xmlns="http://www.w3.org/2000/svg"
 width="1024.000000pt" height="1024.000000pt" viewBox="0 0 1024.000000 1024.000000"
 preserveAspectRatio="xMidYMid meet">
<metadata>
Created by potrace 1.16, written by Peter Selinger 2001-2019
</metadata>
<g transform="translate(0.000000,1024.000000) scale(0.100000,-0.100000)"
fill="#000000" stroke="none">
<path d="M6975 8571 c-26 -11 -88 -69 -177 -162 -500 -528 -878 -1078 -1102
-1603 -48 -111 -156 -397 -207 -544 l-28 -83 27 -10 c32 -12 106 -3 120 14 5
7 28 68 51 137 199 581 470 1072 860 1560 196 245 497 570 528 570 54 0 182
-71 183 -101 0 -28 -97 -152 -285 -363 -307 -344 -405 -466 -543 -671 -159
-238 -287 -488 -429 -840 l-65 -159 22 -18 c14 -12 39 -18 70 -18 39 0 48 4
57 23 5 12 39 94 74 182 185 468 436 870 778 1252 438 489 499 581 447 682
-31 60 -127 123 -235 155 -69 20 -96 20 -146 -3z"/>
<path d="M4730 6653 c-413 -22 -721 -61 -968 -123 -138 -35 -209 -68 -251
-116 -26 -29 -31 -43 -31 -85 0 -62 18 -98 69 -138 36 -29 40 -36 46 -95 9
-79 -9 -224 -42 -336 -47 -164 -146 -336 -275 -477 -130 -144 -272 -382 -336
-563 -37 -106 -69 -261 -83 -405 -37 -383 99 -852 348 -1202 200 -281 416
-463 743 -627 479 -239 1063 -321 1605 -226 711 125 1290 541 1575 1131 155
323 213 620 181 932 -37 356 -168 646 -437 967 -122 147 -165 209 -220 323
-64 134 -85 225 -91 393 l-5 140 33 48 c30 42 34 55 34 111 0 56 -4 68 -31
102 -18 23 -58 52 -101 74 -76 38 -299 97 -313 83 -5 -5 -18 -32 -29 -61 l-20
-52 77 -17 c96 -21 244 -79 267 -104 25 -27 8 -45 -80 -86 -263 -122 -970
-197 -1555 -165 -463 26 -781 72 -1037 151 -96 30 -183 78 -183 101 0 27 212
89 420 124 402 66 1035 92 1446 59 l81 -7 22 63 c11 35 20 64 18 65 -1 2 -85
8 -187 14 -165 10 -541 12 -690 4z m-845 -582 c423 -105 1078 -154 1600 -121
325 21 678 75 865 133 l75 23 1 -115 c2 -192 54 -373 155 -542 27 -47 102
-148 166 -224 228 -274 329 -471 399 -771 24 -105 27 -139 27 -294 1 -202 -16
-299 -84 -496 -243 -708 -856 -1178 -1681 -1290 -150 -21 -418 -23 -578 -5
-327 37 -680 147 -924 288 -453 261 -788 730 -882 1238 -26 138 -26 442 -1
569 56 277 162 484 392 766 143 175 199 268 253 422 41 116 64 242 66 360 1
82 3 97 16 93 8 -2 69 -18 135 -34z"/>
</g>
</svg>
