<?xml version="1.0" standalone="no"?>
<!DOCTYPE svg PUBLIC "-//W3C//DTD SVG 20010904//EN"
 "http://www.w3.org/TR/2001/REC-SVG-20010904/DTD/svg10.dtd">
<svg version="1.0" xmlns="http://www.w3.org/2000/svg"
 width="1024.000000pt" height="1024.000000pt" viewBox="0 0 1024.000000 1024.000000"
 preserveAspectRatio="xMidYMid meet">
<metadata>
Created by potrace 1.16, written by Peter Selinger 2001-2019
</metadata>
<g transform="translate(0.000000,1024.000000) scale(0.100000,-0.100000)"
fill="#000000" stroke="none">
<path d="M7266 8710 c-16 -5 -34 -6 -39 -3 -6 3 -7 1 -3 -5 3 -6 -3 -13 -14
-17 -11 -3 -48 -37 -82 -75 -33 -38 -66 -68 -72 -67 -6 1 -10 -4 -8 -11 3 -15
-227 -278 -240 -274 -5 1 -7 -2 -4 -7 4 -5 -14 -31 -38 -58 -25 -26 -69 -77
-98 -113 -29 -35 -66 -78 -82 -95 -15 -16 -53 -63 -84 -103 -33 -44 -58 -69
-62 -62 -5 8 -9 6 -13 -5 -4 -9 -3 -13 3 -10 17 11 11 0 -63 -111 -40 -60 -93
-145 -117 -189 -53 -99 -67 -119 -72 -108 -3 4 -3 2 -1 -5 1 -7 -34 -90 -78
-185 -74 -157 -104 -214 -85 -162 4 11 4 16 -1 12 -4 -5 -8 -24 -10 -43 -1
-20 -7 -41 -13 -48 -13 -16 -170 -338 -189 -388 -15 -38 -22 -44 -34 -31 -13
12 -831 20 -1037 10 -257 -14 -345 -19 -352 -23 -4 -3 -33 -6 -65 -9 -136 -9
-338 -41 -453 -70 -30 -7 -86 -21 -125 -30 -65 -15 -114 -33 -159 -57 -14 -7
-21 -6 -27 4 -7 11 -9 11 -9 0 0 -15 -24 -42 -37 -42 -15 0 -68 -63 -86 -103
-22 -50 -21 -98 4 -204 25 -103 34 -291 18 -376 -14 -77 -49 -168 -62 -160 -6
3 -7 1 -3 -6 13 -20 -87 -167 -266 -391 -77 -96 -183 -258 -218 -332 -13 -27
-27 -45 -33 -41 -5 3 -7 1 -3 -5 9 -15 -30 -108 -44 -104 -6 1 -9 -2 -5 -8 3
-5 -7 -52 -24 -103 -88 -274 -100 -577 -36 -887 4 -20 3 -22 -5 -10 -8 12 -9
8 -6 -14 6 -35 16 -47 17 -20 0 10 7 -5 15 -34 8 -30 11 -58 8 -63 -3 -5 0 -8
6 -7 7 2 14 -8 16 -21 3 -14 9 -30 15 -38 6 -7 9 -13 6 -13 -6 0 41 -117 67
-165 17 -32 21 -59 8 -51 -4 2 -8 -4 -8 -15 0 -18 2 -19 12 -4 14 18 30 3 18
-17 -4 -6 -3 -8 2 -5 6 3 31 -30 56 -74 26 -44 43 -77 39 -74 -5 3 -11 -2 -14
-9 -4 -10 0 -14 13 -11 22 4 45 -19 35 -35 -4 -6 -1 -9 7 -8 7 2 12 -5 12 -14
-1 -10 2 -16 6 -13 12 8 33 -23 24 -36 -4 -7 -3 -9 3 -6 6 4 33 -22 61 -56 27
-34 90 -102 139 -151 48 -49 87 -93 85 -98 -1 -4 2 -7 8 -6 12 4 170 -120 170
-133 0 -6 4 -8 8 -5 13 8 53 -24 46 -36 -4 -6 -2 -8 3 -5 10 6 27 -2 136 -67
20 -12 34 -26 30 -31 -5 -4 -3 -5 3 -2 5 3 46 -12 90 -35 86 -43 101 -54 67
-45 -13 3 -23 1 -23 -5 0 -6 12 -8 26 -5 17 3 54 -7 98 -25 86 -36 301 -108
322 -108 9 0 12 -5 8 -12 -4 -7 -3 -8 4 -4 7 4 40 0 74 -8 57 -14 155 -32 233
-42 16 -2 37 -6 45 -9 26 -8 241 -20 355 -20 192 0 343 16 570 59 44 8 154 38
227 62 43 14 83 22 89 18 8 -4 9 -3 5 4 -4 7 -3 12 2 12 5 0 27 8 48 17 22 9
42 17 45 17 7 1 47 20 174 82 55 27 109 48 120 46 16 -2 17 0 5 7 -12 8 -10
12 10 21 78 34 302 198 424 311 157 146 347 398 436 579 67 136 119 276 151
405 16 66 29 131 30 145 l1 25 7 -25 c4 -14 6 92 6 235 -1 226 -4 273 -23 360
-32 147 -74 270 -137 395 -31 61 -53 116 -49 123 4 7 4 9 -1 5 -11 -10 -78 89
-70 102 4 6 2 9 -3 8 -12 -4 -123 149 -119 164 1 7 -3 12 -10 13 -18 0 -85 94
-77 107 4 7 3 8 -4 4 -14 -9 -74 72 -65 88 3 6 2 8 -2 3 -11 -9 -66 74 -60 91
3 7 0 10 -5 7 -17 -10 -76 136 -96 235 -13 65 -9 196 8 287 10 54 21 134 24
178 5 76 4 82 -24 126 -16 25 -50 59 -75 75 -26 16 -46 34 -47 40 0 16 -27 25
-53 19 -12 -3 -30 0 -40 7 -17 12 -15 18 22 103 21 50 69 153 105 230 37 77
67 142 68 145 1 9 96 199 124 248 71 125 117 191 127 185 6 -3 7 -1 3 5 -9 15
43 94 57 85 6 -3 7 -1 3 5 -7 11 66 115 163 232 137 164 324 369 334 363 6 -3
7 -1 3 5 -5 9 39 68 84 112 3 3 33 37 67 77 33 39 64 70 67 67 3 -2 4 -1 1 2
-2 4 4 23 14 43 36 71 15 160 -49 214 -31 27 -161 102 -265 154 -68 35 -127
46 -169 33z m124 -249 c36 -19 70 -38 75 -44 7 -7 6 -8 -2 -3 -7 4 -13 2 -13
-4 0 -7 7 -9 15 -6 18 7 55 -13 55 -30 0 -11 -68 -102 -105 -140 -25 -26 -172
-194 -195 -223 -12 -15 -43 -35 -36 -23 4 7 2 12 -4 12 -7 0 -9 -8 -5 -19 4
-13 -3 -26 -25 -44 -16 -14 -30 -28 -30 -32 0 -3 -33 -45 -74 -93 -40 -48
-106 -130 -146 -182 -40 -52 -77 -94 -82 -92 -5 1 -7 -2 -3 -8 9 -14 -74 -132
-87 -124 -7 4 -8 2 -4 -4 8 -13 -107 -225 -117 -217 -4 3 -5 2 -3 -1 3 -5 -43
-107 -219 -481 -27 -58 -52 -100 -58 -96 -6 3 -7 1 -3 -6 6 -9 -201 -469 -253
-561 -12 -22 -311 -69 -311 -50 0 8 104 236 160 352 18 37 36 65 41 62 5 -3 6
1 3 9 -2 7 49 123 114 258 66 134 158 327 206 429 106 227 171 346 186 342 6
-1 9 2 5 7 -8 14 69 134 79 124 4 -5 6 -3 4 3 -5 16 62 115 73 108 5 -3 8 -2
7 3 -4 15 23 55 100 147 141 170 194 225 211 219 13 -4 14 -3 2 5 -12 9 -12
13 -2 26 7 9 17 13 22 10 5 -3 8 -2 7 3 -5 14 45 72 56 66 6 -3 8 -3 4 2 -10
11 62 96 76 88 6 -3 8 -3 4 2 -9 10 42 76 53 69 5 -3 8 -2 7 3 -5 14 54 83 65
76 5 -3 7 -1 4 4 -8 13 17 36 28 25 5 -4 5 -1 1 5 -8 14 35 78 43 65 3 -4 35
-23 71 -41z m-1820 -2116 l116 -8 -34 -66 c-38 -73 -48 -87 -39 -53 3 13 1 20
-5 16 -5 -3 -7 -15 -5 -26 8 -29 -59 -182 -75 -172 -4 3 -5 -2 -2 -11 4 -8 1
-22 -6 -30 -6 -8 -10 -18 -7 -22 6 -10 4 -10 -438 -11 -198 -1 -414 3 -480 8
-66 5 -135 10 -153 10 -18 0 -31 3 -29 8 3 4 -14 7 -36 7 -72 0 -177 13 -317
40 -74 14 -142 27 -150 28 -8 2 -57 16 -107 31 -82 26 -91 31 -75 43 16 12 16
13 -1 7 -9 -3 -25 0 -35 7 -15 13 -16 12 -4 -3 11 -14 11 -16 -7 -11 -12 3
-18 9 -15 14 3 5 -2 6 -10 3 -9 -3 -16 -1 -16 5 0 21 175 82 241 85 20 0 35 4
32 9 -2 4 0 7 5 7 6 0 61 9 124 19 231 40 638 73 638 52 0 -6 4 -11 10 -11 5
0 7 7 4 15 -5 12 14 15 118 18 192 4 631 0 758 -8z m925 -463 c-9 -35 -12
-162 -4 -162 3 0 9 -26 12 -57 4 -32 10 -69 13 -83 4 -20 3 -22 -5 -10 -9 12
-11 12 -11 1 0 -8 7 -19 15 -25 8 -6 26 -41 39 -79 13 -37 41 -97 60 -133 20
-36 33 -70 30 -76 -4 -6 -3 -9 2 -5 13 7 136 -171 128 -185 -4 -6 -3 -8 4 -4
13 8 55 -48 44 -59 -4 -5 -2 -5 4 -2 14 8 77 -79 68 -95 -4 -6 -3 -8 4 -4 16
9 119 -148 191 -292 60 -120 152 -447 133 -476 -4 -6 -10 9 -13 34 -6 43 -6
43 -7 -17 -1 -38 3 -65 10 -69 8 -5 9 -2 5 9 -3 9 -2 19 3 22 9 6 12 -28 12
-160 1 -88 -30 -265 -69 -395 -37 -127 -103 -281 -117 -273 -6 3 -8 2 -4 -2
19 -21 -171 -313 -194 -299 -7 4 -8 3 -4 -4 7 -12 -13 -52 -27 -52 -4 0 -5 5
-1 12 4 7 3 8 -5 4 -6 -4 -8 -12 -5 -18 8 -13 -116 -139 -129 -131 -6 3 -7 2
-4 -4 8 -13 -76 -95 -94 -91 -8 2 -13 -2 -12 -9 3 -16 -69 -75 -84 -69 -7 3
-15 0 -19 -6 -4 -7 -3 -8 4 -4 7 4 12 3 12 -3 0 -10 -38 -27 -52 -23 -5 1 -7
-3 -5 -10 4 -22 -276 -184 -315 -181 -10 1 -16 -2 -14 -6 8 -12 -161 -84 -179
-77 -9 3 -13 2 -10 -3 3 -5 -5 -12 -17 -16 -13 -4 -65 -20 -117 -36 -51 -17
-112 -31 -136 -32 -24 -1 -41 -5 -38 -9 2 -5 2 -8 -1 -8 -2 0 -64 -9 -138 -20
-73 -12 -194 -23 -269 -27 -136 -5 -406 9 -502 28 -28 5 -67 11 -87 14 -19 3
-77 16 -128 30 -51 14 -96 25 -98 25 -3 0 -2 4 1 10 3 6 -1 7 -9 4 -32 -12
-327 102 -304 118 9 7 7 8 -8 4 -12 -4 -45 6 -84 25 -50 24 -60 33 -49 41 11
8 10 9 -4 4 -27 -9 -164 73 -146 86 11 8 10 8 -4 4 -22 -7 -45 8 -169 107 -50
40 -85 75 -81 81 3 6 2 8 -2 3 -12 -10 -46 23 -38 37 3 6 2 8 -2 3 -11 -10
-86 63 -78 76 3 6 2 7 -3 4 -11 -6 -61 49 -146 162 -40 53 -56 82 -52 96 4 15
3 16 -4 6 -12 -17 -27 3 -16 22 4 6 4 9 -1 5 -5 -5 -14 1 -21 11 -29 40 -116
224 -118 246 0 13 -4 21 -7 19 -7 -4 -70 192 -69 217 0 8 -4 19 -9 25 -22 25
-39 330 -26 494 8 110 66 302 134 445 56 116 187 319 201 310 5 -3 7 0 5 8 -3
7 6 26 20 43 15 16 33 39 42 51 8 13 20 20 26 16 5 -3 7 -1 4 4 -4 6 25 52 64
103 38 50 75 102 81 116 6 13 14 24 18 24 12 0 99 194 114 255 13 53 21 111
31 220 1 17 -1 58 -4 92 -6 54 -5 62 9 58 102 -30 195 -55 209 -55 14 0 14 -2
1 -11 -12 -8 -10 -9 9 -4 13 4 49 1 81 -6 45 -10 57 -16 53 -28 -4 -13 -2 -13
6 1 9 13 18 15 44 8 60 -16 476 -62 488 -54 5 2 48 0 96 -6 97 -12 758 -14
863 -2 36 4 109 7 162 7 54 0 98 2 98 5 0 3 48 12 108 18 59 7 154 22 212 33
58 10 118 21 134 24 46 8 180 46 191 55 6 4 20 10 32 12 17 5 23 1 26 -16 3
-16 5 -14 6 9 2 17 5 24 8 17 3 -7 2 -25 -2 -40z"/>
</g>
</svg>
