<?xml version="1.0" standalone="no"?>
<!DOCTYPE svg PUBLIC "-//W3C//DTD SVG 20010904//EN"
 "http://www.w3.org/TR/2001/REC-SVG-20010904/DTD/svg10.dtd">
<svg version="1.0" xmlns="http://www.w3.org/2000/svg"
 width="1024.000000pt" height="1024.000000pt" viewBox="0 0 1024.000000 1024.000000"
 preserveAspectRatio="xMidYMid meet">
<metadata>
Created by potrace 1.16, written by Peter Selinger 2001-2019
</metadata>
<g transform="translate(0.000000,1024.000000) scale(0.100000,-0.100000)"
fill="#000000" stroke="none">
<path d="M2406 7188 c-25 -27 -14 -45 50 -80 27 -15 48 -33 46 -39 -1 -6 2 -8
8 -4 6 4 54 -18 108 -48 53 -30 115 -64 137 -77 131 -73 339 -190 540 -305
127 -72 290 -164 363 -205 76 -42 128 -76 122 -80 -8 -5 -6 -9 5 -13 9 -4 13
-3 10 3 -3 6 -4 10 0 10 9 0 120 -63 126 -73 3 -5 9 -8 13 -8 3 1 11 1 16 1
14 0 14 -1789 0 -1810 -8 -13 -10 -13 -10 -1 0 12 -2 12 -13 -1 -10 -14 -138
-53 -304 -93 l-53 -12 0 896 c0 493 -4 902 -9 909 -4 8 -11 13 -15 13 -18 -3
-219 93 -795 381 -462 231 -471 234 -471 169 0 -25 8 -34 63 -64 97 -54 645
-327 657 -327 5 0 10 -4 10 -10 0 -5 7 -10 15 -10 8 0 55 -20 104 -45 50 -25
92 -45 93 -44 2 0 44 -19 93 -44 50 -25 101 -48 113 -52 17 -5 22 -12 19 -26
-3 -12 0 -19 10 -19 8 0 11 5 7 11 -4 7 -1 10 7 7 12 -4 14 -144 17 -883 2
-907 2 -904 -35 -890 -7 2 -13 1 -13 -4 0 -15 -59 -19 -65 -4 -2 8 -5 383 -5
835 0 451 -3 819 -6 816 -2 -3 -62 17 -132 45 -70 27 -151 58 -181 68 -30 10
-61 25 -69 31 -8 7 -18 12 -21 11 -13 -5 -81 21 -81 30 0 6 -3 8 -6 4 -6 -5
-67 16 -202 69 -56 22 -67 24 -93 12 l-29 -13 0 -1082 0 -1081 -32 -8 c-18 -4
-37 -9 -43 -10 -5 -1 -41 -11 -79 -23 -38 -12 -71 -19 -74 -16 -3 3 -11 0 -18
-6 -15 -12 -48 -4 -40 9 3 5 8 46 11 93 3 46 10 104 14 129 13 64 12 93 -2
102 -7 4 -56 8 -110 8 -76 0 -96 3 -90 13 4 6 8 17 8 22 0 6 9 10 20 10 29 1
44 13 41 33 -2 9 -6 16 -9 15 -4 -2 -10 -3 -13 -3 -4 0 -1 -6 5 -13 14 -17 5
-26 -19 -20 -18 5 -18 7 -3 30 9 13 22 22 29 19 8 -3 26 1 41 8 16 7 50 24 76
37 68 32 140 115 156 180 14 53 17 126 6 138 -8 7 -89 7 -152 0 -23 -3 -56
-15 -72 -27 -17 -12 -43 -27 -57 -32 -15 -6 -24 -13 -21 -17 3 -3 -5 -20 -18
-37 -13 -17 -32 -65 -43 -106 l-20 -75 0 82 c-1 55 3 82 10 80 6 -1 13 4 15
11 3 8 -2 10 -14 6 -12 -3 -10 -1 5 8 12 8 20 17 16 21 -4 3 3 4 16 2 18 -3
20 -2 10 10 -7 8 -8 15 -3 15 5 0 20 10 33 22 19 18 22 19 17 5 -4 -11 -3 -16
3 -12 6 3 10 11 10 17 0 15 62 108 69 104 3 -2 7 8 8 22 0 15 4 44 8 65 11 54
-11 133 -54 198 -29 43 -42 55 -66 57 -43 4 -93 -42 -133 -121 l-33 -66 -57
36 c-31 20 -65 36 -74 36 -10 -1 -18 2 -18 7 0 22 -67 -7 -74 -33 -26 -99 26
-248 110 -312 19 -15 32 -31 29 -36 -4 -5 -1 -10 4 -10 6 -1 17 -2 24 -3 6 -1
11 -7 10 -14 -2 -6 3 -9 11 -6 20 8 37 -45 27 -86 -5 -19 -9 -27 -10 -17 -1
24 -36 73 -93 128 -32 32 -61 50 -95 59 -26 7 -52 15 -57 18 -14 8 -77 10
-103 5 -26 -6 -38 -34 -34 -83 8 -99 93 -223 173 -253 52 -19 147 -39 157 -33
4 3 19 -17 33 -44 l26 -48 -21 -6 c-12 -3 -64 -6 -114 -7 -51 -1 -90 -5 -88
-10 3 -4 1 -11 -5 -14 -10 -6 -9 -41 3 -75 3 -8 8 -50 12 -93 3 -42 12 -125
20 -184 7 -59 11 -111 9 -115 -3 -4 -1 -16 5 -25 8 -15 4 -21 -22 -33 -30 -14
-32 -19 -35 -73 l-3 -57 -118 0 c-79 0 -122 -4 -133 -12 -21 -17 -32 -54 -18
-63 6 -3 8 -11 5 -16 -4 -5 1413 -9 3654 -9 3649 0 3661 0 3681 20 53 53 9 80
-132 80 l-108 0 0 53 c0 54 -6 71 -28 78 -10 3 -13 106 -12 511 0 390 -2 508
-12 514 -7 4 -26 7 -44 6 -17 -1 -43 2 -57 7 -18 7 -27 7 -31 -2 -2 -7 -5 -2
-5 11 -1 14 13 34 35 55 60 52 64 72 64 306 0 115 -4 220 -9 233 -5 13 -21 35
-35 49 -13 15 -22 29 -20 32 16 16 -145 19 -438 7 -15 0 -30 -5 -33 -9 -3 -5
5 -7 17 -3 21 5 20 2 -9 -32 l-33 -37 0 -235 c0 -224 1 -238 22 -275 12 -22
26 -39 30 -39 5 0 6 -4 3 -10 -3 -5 0 -7 8 -4 14 5 47 -30 47 -49 0 -5 -21 -8
-47 -7 -27 2 -65 2 -85 1 l-38 -1 0 -395 c0 -217 -3 -395 -6 -395 -3 0 -35 8
-70 17 l-64 17 0 1071 c0 588 -3 1080 -6 1093 -6 20 -12 23 -43 21 -20 -2 -40
-6 -46 -9 -11 -8 -272 -111 -289 -115 -6 -1 -24 -7 -41 -14 -119 -48 -311
-122 -324 -125 -9 -1 -28 -9 -43 -16 l-28 -13 0 -828 0 -829 -24 10 c-13 5
-26 7 -28 4 -3 -2 -19 1 -36 7 l-32 11 0 872 0 873 23 21 c13 12 26 22 30 22
4 0 84 37 179 83 95 46 225 107 288 137 118 55 609 303 667 336 18 11 35 25
38 33 6 16 -20 61 -35 61 -6 0 -74 -32 -151 -71 -78 -38 -148 -68 -156 -65 -8
3 -11 1 -8 -4 3 -6 -103 -63 -237 -129 -343 -169 -359 -176 -365 -173 -3 2 -9
0 -12 -5 -3 -5 -81 -44 -173 -87 -93 -44 -168 -84 -168 -90 0 -6 0 -410 0
-898 0 -643 -3 -888 -11 -888 -13 0 -154 35 -219 54 -25 8 -73 22 -107 31
l-63 18 0 898 0 898 33 19 c17 11 52 31 77 44 58 32 433 243 575 323 61 34
234 131 385 215 151 84 295 164 320 178 25 13 73 40 107 59 80 44 89 56 74 89
-17 38 -42 30 -218 -70 l-151 -86 -2344 0 -2345 0 -49 26 c-75 40 -184 99
-234 128 -53 31 -69 31 -94 4z m2671 -328 l-2 -89 -148 1 c-83 0 -153 -4 -158
-9 -5 -5 -8 -56 -7 -114 l3 -104 355 0 355 0 0 117 c0 83 -4 121 -13 130 -11
11 -12 10 -7 -2 4 -13 -15 -15 -143 -15 l-148 0 -3 88 -2 87 1082 0 1083 0
-34 -20 c-19 -11 -64 -35 -100 -53 -36 -17 -67 -34 -70 -38 -3 -3 -32 -21 -65
-40 l-60 -34 -700 -5 -700 -5 -3 -29 c-2 -16 2 -32 10 -37 7 -5 288 -9 623
-10 336 0 603 -3 595 -6 -8 -3 -23 -12 -32 -21 -10 -8 -18 -11 -18 -6 0 5 -4
4 -8 -1 -9 -14 -143 -91 -427 -245 -155 -84 -149 -79 -145 -132 l1 -28 -1070
0 -1071 0 -1 38 c-1 20 -1 40 0 45 0 4 -3 7 -7 7 -23 0 -587 310 -602 331 -3
4 -14 9 -25 12 -11 2 260 5 603 6 l623 1 8 23 c21 55 63 52 -695 57 l-699 5
-147 80 c-80 44 -144 83 -142 87 2 3 -6 9 -18 11 -13 2 461 5 1054 6 l1076 1
-1 -90z m321 -205 l-2 -35 -276 0 -277 0 0 35 0 35 279 0 279 0 -3 -35z m764
-537 l1 -43 4 43 c2 23 8 42 14 42 6 0 9 -331 9 -905 l-1 -905 -1052 0 c-829
0 -1056 3 -1066 13 -11 10 -13 10 -7 0 4 -7 2 -13 -3 -13 -8 0 -11 275 -11
905 l0 905 1055 0 1055 0 2 -42z m-3435 -11 c3 -4 0 -7 -8 -7 -11 0 -11 -2 1
-10 19 -12 33 -13 26 -1 -3 5 15 3 42 -5 58 -18 345 -125 352 -132 3 -2 -1 -7
-7 -9 -18 -6 -16 -20 1 -20 8 0 14 4 13 8 -4 13 8 13 43 -1 19 -7 37 -14 40
-14 3 -1 17 -5 33 -9 l27 -7 0 -869 c-1 -769 -3 -871 -16 -882 -14 -12 -14
-14 2 -26 23 -17 9 -32 -39 -40 l-37 -6 0 881 0 881 -55 20 c-30 11 -67 23
-82 27 -15 4 -37 12 -48 18 -11 5 -23 11 -27 12 -5 1 -9 2 -10 3 -2 2 -13 4
-24 6 -12 3 -34 10 -50 16 -16 7 -31 13 -34 13 -3 1 -26 8 -52 15 -86 24 -78
125 -78 -1013 l0 -1014 -31 -11 c-18 -6 -40 -11 -50 -11 -18 0 -19 37 -19
1115 l0 1114 40 -18 c22 -10 43 -21 47 -24z m4869 -2184 c-2 -3 -24 -1 -48 4
l-43 9 -3 1019 c-1 560 -6 1023 -10 1027 -7 7 -416 -126 -437 -142 -7 -6 -9
-312 -8 -889 1 -652 -2 -879 -10 -874 -6 4 -22 8 -35 9 -14 2 -31 5 -38 8 -12
4 -14 137 -14 784 0 805 5 1021 24 1028 54 18 524 198 566 217 l55 24 3 -1110
c1 -611 0 -1112 -2 -1114z m-4602 1891 c95 -31 114 -40 95 -45 -23 -7 -24 -7
-1 -8 l22 -1 0 -390 0 -390 -23 9 c-27 10 -40 5 -54 -24 -14 -26 -3 -53 27
-68 21 -11 27 -10 37 2 10 13 12 -74 10 -419 l-2 -435 -110 -33 c-60 -18 -122
-35 -137 -37 l-28 -3 0 949 0 949 22 -9 c13 -4 77 -25 142 -47z m4426 -895 c0
-899 -1 -950 -18 -945 -9 3 -37 10 -62 16 -25 6 -82 23 -127 36 l-83 25 1 439
c0 436 0 439 20 419 15 -15 24 -17 39 -9 23 12 33 13 25 1 -3 -5 -2 -12 3 -14
11 -8 9 65 -3 84 -5 9 -22 18 -37 21 -15 3 -25 2 -23 -2 3 -4 -1 -13 -9 -19
-12 -10 -14 48 -15 386 -1 219 2 403 7 410 7 11 243 101 269 102 10 1 13 -204
13 -950z m920 511 c11 -7 10 -12 -5 -26 -14 -14 -15 -19 -4 -23 7 -2 15 1 17
8 5 14 22 4 22 -13 0 -9 -47 -13 -200 -15 -189 -2 -200 -1 -200 16 0 10 7 29
16 41 15 22 20 23 178 22 89 -1 169 -5 176 -10z m30 -215 l0 -55 -60 0 c-47 0
-64 -4 -80 -20 -25 -25 -25 -35 1 -61 17 -17 30 -20 78 -17 56 4 56 4 58 -25
0 -17 -8 -40 -20 -53 -20 -23 -25 -24 -177 -24 -143 0 -158 2 -178 20 -14 13
-22 33 -22 53 l0 32 68 3 c48 2 71 8 80 19 33 44 0 73 -84 73 l-64 0 0 55 0
55 200 0 200 0 0 -55z m-6226 -135 c19 -48 20 -94 5 -141 -16 -47 -36 -68 -60
-62 -10 3 -19 0 -19 -6 0 -5 7 -8 16 -4 13 5 14 3 6 -13 -6 -10 -20 -27 -31
-36 -21 -18 -21 -17 -21 27 0 24 -5 47 -10 50 -18 11 -2 96 31 163 37 75 59
81 83 22z m-284 -71 c0 -5 11 -14 24 -19 25 -9 50 -50 61 -100 5 -24 3 -30
-10 -30 -9 0 -14 -4 -10 -10 3 -5 12 -7 20 -4 10 4 13 -3 13 -24 -1 -30 -2
-30 -25 -15 -12 8 -23 22 -23 30 0 8 -4 12 -8 9 -12 -7 -57 43 -70 79 -6 17
-14 46 -17 66 -7 35 -6 36 19 32 14 -3 26 -9 26 -14z m6171 -281 c0 -10 2 -10
6 0 6 14 43 16 43 2 0 -5 15 -10 34 -10 19 0 38 5 41 10 3 6 24 10 46 10 21 0
39 -4 39 -10 0 -11 63 -14 74 -3 10 10 46 11 46 1 0 -4 8 -8 18 -8 14 0 15 2
2 10 -12 8 -11 10 7 10 l22 0 -1 -214 -1 -214 -246 1 -246 2 -1 205 -1 205 49
-3 c30 -3 48 0 48 7 0 15 20 14 21 -1z m-6331 -10 c0 -6 3 -9 6 -5 19 19 118
-62 148 -121 15 -30 21 -62 11 -62 -22 0 -135 47 -153 64 -29 26 -57 73 -65
106 -6 23 -3 26 23 28 18 1 30 -3 30 -10z m644 -12 c-13 -47 -61 -112 -94
-128 -102 -50 -132 -59 -110 -32 8 8 15 29 17 45 4 41 19 66 51 86 15 10 29
20 32 23 12 13 57 28 83 27 23 0 26 -3 21 -21z m1612 -413 c-4 -8 -13 -13 -21
-9 -8 3 -15 2 -15 -2 0 -6 -77 -31 -150 -48 -3 0 -12 -3 -20 -7 -34 -13 -234
-69 -347 -97 l-32 -8 3 46 2 46 50 13 c27 7 64 15 83 17 18 3 36 7 39 10 3 3
12 0 20 -7 13 -10 14 -9 8 1 -8 13 1 18 44 26 14 3 95 25 180 49 l155 44 3
-29 c2 -17 1 -37 -2 -45z m2401 56 c43 -12 83 -24 88 -27 6 -4 19 -7 30 -8 11
-1 47 -9 80 -18 33 -9 69 -19 80 -21 11 -3 67 -18 125 -33 l105 -29 3 -42 3
-43 -33 7 c-41 9 -562 157 -567 161 -2 2 4 14 15 26 15 18 16 20 2 9 -16 -12
-18 -11 -18 13 0 14 2 26 5 26 3 0 40 -10 82 -21z m-197 -88 c0 -5 -10 -11
-22 -13 -19 -3 -17 -5 8 -9 26 -4 31 -2 27 10 -3 11 0 10 11 -3 9 -11 16 -22
16 -26 0 -3 10 -7 23 -8 18 -2 146 -37 462 -127 160 -46 203 -58 330 -94 77
-21 212 -60 300 -85 88 -26 194 -56 235 -67 41 -11 109 -30 150 -43 41 -13 87
-26 103 -30 25 -6 27 -10 27 -61 l0 -55 -2745 0 -2745 0 0 44 0 43 63 18 c196
54 463 129 536 151 46 14 90 23 99 19 9 -3 13 -3 9 2 -8 7 32 20 188 62 39 11
156 44 260 74 271 79 432 126 492 143 42 11 54 20 59 39 l6 25 1054 0 c644 0
1054 -4 1054 -9z m-4256 -14 c-4 -8 -2 -7 7 1 7 7 40 12 77 12 48 0 61 -3 56
-12 -6 -10 -5 -10 7 -1 11 9 25 10 47 4 17 -5 33 -7 36 -4 8 9 66 11 71 3 2
-4 0 -47 -5 -96 -5 -49 -11 -109 -14 -134 -5 -59 -15 -146 -22 -191 l-5 -36
-147 4 c-81 2 -148 6 -150 8 -2 1 -6 20 -8 41 -3 22 -8 53 -10 69 -2 17 -6 48
-9 70 -3 22 -7 54 -9 70 -3 17 -7 67 -11 112 -7 90 -8 89 62 90 22 1 31 -3 27
-10z m6506 -27 c0 -5 -7 -10 -16 -10 -14 0 -14 -2 -1 -15 12 -12 15 -50 14
-210 l0 -195 -243 2 -242 2 -1 218 -2 218 246 0 c157 0 245 -4 245 -10z
m-5860 -287 l0 -48 -138 -39 c-75 -21 -143 -40 -149 -42 -9 -2 -11 9 -6 44 3
26 7 49 9 51 2 2 66 21 141 42 76 20 139 38 141 38 1 1 2 -20 2 -46z m-310
-233 c0 -5 -6 -10 -12 -11 -10 0 -10 -2 0 -6 43 -17 -12 -23 -218 -23 -126 0
-230 4 -230 8 0 5 28 9 61 10 84 2 89 12 6 12 -37 0 -67 4 -67 9 0 5 101 10
230 10 153 1 230 -2 230 -9z m6238 -15 l-2 -25 -286 0 c-263 1 -283 2 -265 17
16 13 17 15 3 10 -18 -6 -24 3 -11 16 3 4 132 7 285 7 l278 0 -2 -25z"/>
<path d="M5924 6012 c5 -8 -225 -11 -834 -11 -462 0 -844 -3 -850 -6 -7 -4
-10 -271 -10 -776 l0 -769 879 0 c792 0 879 2 885 16 3 9 6 359 6 779 l0 764
-29 -1 c-15 -1 -34 3 -41 7 -8 5 -11 4 -6 -3z m-844 -787 l0 -695 -380 0 -379
0 -1 695 0 695 380 0 380 0 0 -695z m830 0 l0 -695 -375 0 -374 0 -1 695 0
694 375 1 375 0 0 -695z"/>
<path d="M8004 4627 c-3 -8 -3 -56 -2 -108 l3 -94 63 -3 c71 -3 64 -15 66 113
2 98 -3 105 -70 105 -36 0 -56 -4 -60 -13z"/>
<path d="M8213 4633 c-9 -3 -13 -31 -13 -89 0 -46 -4 -84 -9 -84 -5 0 -12 -7
-15 -16 -5 -12 -1 -14 15 -9 15 5 19 4 15 -4 -12 -19 109 -14 125 5 21 25 22
164 2 186 -16 17 -89 24 -120 11z"/>
</g>
</svg>
