<?xml version="1.0" standalone="no"?>
<!DOCTYPE svg PUBLIC "-//W3C//DTD SVG 20010904//EN"
 "http://www.w3.org/TR/2001/REC-SVG-20010904/DTD/svg10.dtd">
<svg version="1.0" xmlns="http://www.w3.org/2000/svg"
 width="1024.000000pt" height="1024.000000pt" viewBox="0 0 1024.000000 1024.000000"
 preserveAspectRatio="xMidYMid meet">
<metadata>
Created by potrace 1.16, written by Peter Selinger 2001-2019
</metadata>
<g transform="translate(0.000000,1024.000000) scale(0.100000,-0.100000)"
fill="#000000" stroke="none">
<path d="M4905 9154 c-121 -16 -190 -29 -259 -46 -43 -10 -85 -17 -93 -14 -8
3 -12 2 -9 -3 3 -5 -6 -12 -22 -16 -15 -3 -54 -17 -87 -30 -33 -13 -67 -25
-75 -27 -8 -2 -21 -9 -29 -16 -7 -7 -21 -10 -29 -7 -9 3 -13 3 -9 -1 3 -4 -15
-17 -41 -29 -69 -32 -258 -146 -330 -199 -34 -25 -66 -46 -71 -46 -5 0 -12 -7
-15 -16 -3 -8 -11 -12 -16 -9 -6 4 -9 1 -8 -6 2 -7 -1 -14 -7 -14 -5 -1 -45
-35 -89 -75 -43 -41 -84 -74 -92 -72 -7 1 -15 -2 -19 -8 -4 -6 1 -7 12 -3 10
3 2 -11 -21 -35 -21 -22 -44 -39 -50 -38 -6 2 -7 1 -3 -2 15 -8 -44 -61 -62
-55 -12 4 -13 3 -3 -5 11 -7 7 -17 -18 -46 -18 -20 -37 -33 -43 -29 -5 3 -7 1
-4 -4 9 -14 -32 -65 -45 -57 -7 4 -8 2 -4 -5 10 -15 -13 -43 -27 -34 -6 3 -7
1 -3 -5 4 -6 -15 -40 -42 -74 -27 -35 -70 -94 -97 -133 -47 -68 -77 -106 -60
-76 5 10 4 12 -4 7 -6 -4 -9 -12 -6 -17 6 -9 -23 -58 -29 -49 -3 3 -8 1 -13
-4 -5 -5 -3 -6 5 -2 22 13 13 -10 -14 -35 l-26 -24 6 25 6 25 -12 -23 c-8 -15
-8 -26 -2 -30 6 -4 -24 -66 -72 -150 -45 -78 -84 -139 -86 -135 -3 5 -3 3 -2
-4 4 -18 -121 -254 -131 -246 -4 5 -5 2 -1 -5 5 -7 2 -27 -5 -43 -9 -23 -14
-27 -21 -17 -8 10 -9 9 -5 -3 7 -21 -87 -242 -98 -231 -4 4 -5 1 -1 -6 9 -14
-12 -74 -23 -68 -4 3 -13 1 -21 -5 -13 -7 -12 -9 2 -9 15 0 16 -4 6 -32 -6
-18 -16 -36 -22 -40 -6 -4 -8 -8 -4 -8 4 0 0 -20 -9 -45 -9 -27 -19 -42 -25
-38 -7 3 -8 1 -4 -5 3 -6 -20 -89 -53 -184 -32 -95 -71 -214 -86 -265 -17 -54
-32 -90 -38 -86 -6 4 -7 1 -2 -7 8 -13 -35 -181 -45 -175 -3 2 -5 -9 -6 -23 0
-15 -22 -107 -47 -206 -26 -98 -47 -185 -47 -193 0 -9 -8 -22 -17 -30 -10 -8
-12 -11 -5 -8 10 6 12 -1 6 -32 -4 -21 -11 -40 -15 -41 -5 -2 -7 -8 -4 -12 3
-5 -6 -64 -19 -132 -13 -68 -30 -158 -37 -201 -9 -55 -16 -73 -21 -60 -5 11
-6 6 -2 -14 3 -18 -1 -81 -10 -140 -18 -128 -32 -270 -46 -448 -15 -186 -12
-739 4 -786 3 -8 10 -57 16 -109 9 -77 48 -288 75 -410 5 -22 4 -21 -10 5 -8
17 -13 21 -9 10 3 -11 8 -35 11 -53 7 -39 22 -53 16 -14 -2 15 10 -16 26 -68
21 -68 27 -98 19 -107 -8 -10 -6 -13 4 -13 10 0 30 -40 58 -112 24 -62 56
-140 71 -173 15 -33 29 -67 31 -75 2 -8 6 -17 9 -20 3 -3 25 -41 49 -85 24
-44 59 -104 77 -133 19 -29 31 -58 27 -64 -4 -7 -3 -8 4 -4 13 8 64 -63 55
-78 -3 -6 -3 -8 2 -4 10 10 48 -39 40 -52 -4 -6 -11 -7 -17 -4 -7 4 -8 2 -4
-5 6 -9 11 -9 21 -1 10 8 21 1 49 -31 19 -23 33 -46 30 -51 -3 -5 -1 -7 4 -6
16 5 62 -58 52 -70 -7 -9 -7 -9 2 -2 15 12 79 -46 72 -65 -3 -7 -1 -16 5 -20
7 -4 8 1 4 12 -6 16 -5 16 10 4 9 -7 14 -18 10 -24 -3 -5 -2 -7 4 -4 12 8 138
-97 138 -115 1 -7 7 -12 14 -10 15 3 53 -27 46 -38 -2 -4 2 -7 8 -7 7 0 50
-23 95 -52 77 -50 102 -71 66 -57 -9 3 -12 2 -9 -5 4 -6 13 -8 21 -5 13 5 141
-57 154 -74 3 -4 19 -12 35 -17 17 -6 29 -16 27 -22 -1 -7 3 -9 9 -6 6 4 28
-1 49 -10 35 -16 38 -20 29 -39 -10 -20 -9 -20 5 -2 14 18 17 17 85 -9 40 -16
68 -32 64 -38 -3 -6 -1 -7 5 -3 7 4 18 4 24 -1 7 -4 18 -8 23 -8 34 -2 74 -18
69 -27 -4 -7 -2 -8 5 -4 6 4 26 3 44 -3 17 -5 52 -15 76 -21 34 -9 41 -14 30
-21 -10 -7 -5 -8 16 -4 18 3 74 -5 135 -19 224 -54 640 -106 850 -106 79 0
123 -5 142 -14 24 -13 26 -12 21 2 -4 9 -2 13 4 9 27 -17 483 18 758 59 30 4
36 3 25 -5 -9 -7 -11 -11 -3 -11 7 0 16 7 21 16 7 12 19 15 40 12 17 -2 29 -1
26 4 -3 4 5 8 18 8 13 0 79 14 148 30 68 17 130 28 137 25 8 -2 12 -1 9 4 -3
4 22 16 56 25 87 24 304 104 362 132 27 14 56 22 65 19 8 -3 12 -3 8 1 -3 4
42 34 101 66 118 66 246 148 306 196 21 18 43 29 49 25 5 -3 7 -2 4 4 -4 6 22
33 56 61 34 27 73 62 86 76 13 14 29 23 35 19 6 -3 8 -3 4 2 -4 4 23 42 60 84
83 93 136 158 189 233 22 32 42 55 45 53 3 -3 5 1 5 7 0 14 82 148 90 148 2 0
1 -5 -3 -12 -4 -7 -3 -8 5 -4 6 4 9 11 6 16 -8 13 37 100 48 93 6 -3 7 -1 3 5
-3 6 -1 22 6 37 8 19 14 22 21 13 6 -9 7 -8 3 4 -5 18 56 162 66 153 3 -3 8 1
12 10 4 11 2 14 -6 9 -8 -5 -9 -2 -4 12 18 43 105 313 117 361 7 29 16 50 21
47 4 -3 5 1 3 9 -3 7 5 67 19 133 14 65 28 140 32 167 3 26 11 47 16 47 5 0 6
4 3 10 -7 12 6 161 14 156 3 -2 6 26 6 62 0 107 17 476 22 485 2 4 -1 7 -6 7
-7 0 -11 28 -11 73 0 103 -26 386 -50 562 -12 82 -19 157 -17 167 3 10 1 16
-4 12 -5 -3 -9 5 -9 18 0 40 -67 385 -110 571 -23 97 -38 182 -34 189 4 6 3 8
-3 5 -12 -7 -36 90 -26 105 3 6 2 8 -4 5 -6 -4 -15 18 -23 51 -61 274 -282
867 -476 1277 -26 55 -47 106 -47 113 0 6 -3 12 -7 12 -15 0 -60 103 -55 124
5 15 3 17 -3 8 -7 -10 -14 -5 -31 23 -12 20 -18 42 -15 48 4 7 4 9 -1 5 -10
-10 -98 139 -90 153 4 5 1 8 -7 7 -7 -2 -12 5 -12 14 1 10 -2 16 -6 13 -11 -7
-82 113 -74 127 4 7 3 8 -4 4 -15 -9 -66 69 -56 85 4 7 3 10 -4 5 -6 -3 -33
25 -63 66 -99 137 -263 329 -395 463 -34 35 -60 66 -56 71 4 4 2 4 -4 1 -6 -4
-20 3 -30 15 -19 20 -19 21 6 14 21 -6 22 -5 7 4 -9 6 -21 9 -26 6 -11 -7
-187 132 -183 145 1 6 -2 8 -7 5 -11 -7 -87 42 -84 54 1 4 -5 7 -15 6 -9 0
-17 4 -17 11 0 6 -4 15 -9 20 -5 5 -6 3 -2 -4 10 -19 7 -17 -77 31 -42 24 -73
47 -69 51 4 5 2 5 -4 2 -15 -9 -176 67 -167 78 5 4 1 6 -8 2 -9 -3 -46 5 -82
18 -79 29 -202 61 -312 82 -76 14 -479 27 -550 17z m470 -189 c186 -28 216
-37 227 -64 5 -14 7 -33 5 -43 -3 -9 -1 -18 3 -20 9 -3 21 -73 24 -130 0 -20
4 -34 7 -32 11 6 41 -214 43 -303 0 -46 4 -83 9 -83 4 0 7 -12 7 -27 0 -22 -2
-25 -10 -13 -6 9 -10 10 -10 3 0 -6 5 -15 11 -18 14 -9 10 -350 -7 -517 -7
-73 -23 -178 -34 -233 -12 -55 -23 -111 -26 -125 -21 -115 -37 -168 -49 -164
-7 3 -16 1 -20 -5 -3 -7 0 -8 9 -5 22 9 21 -4 -19 -135 -43 -145 -67 -208 -80
-209 -5 0 -11 -6 -14 -13 -2 -7 1 -9 8 -5 13 8 14 4 5 -18 -3 -9 -11 -13 -17
-9 -6 3 -7 1 -3 -6 11 -18 -54 -176 -66 -159 -6 8 -7 4 -3 -12 4 -19 -26 -89
-125 -288 -72 -144 -135 -260 -140 -257 -5 3 -12 0 -16 -6 -5 -8 -3 -9 6 -4
17 11 14 4 -60 -123 -42 -73 -67 -107 -72 -99 -5 7 -7 2 -6 -13 2 -16 -2 -24
-10 -22 -8 1 -11 -2 -8 -7 9 -13 -29 -73 -39 -63 -5 4 -5 2 -1 -5 8 -14 -52
-115 -64 -108 -5 3 -12 0 -16 -6 -4 -8 -3 -9 4 -5 19 11 14 -2 -20 -60 -25
-41 -38 -54 -51 -50 -14 3 -16 2 -7 -9 9 -11 7 -23 -11 -54 -12 -22 -25 -38
-29 -36 -4 3 -7 -3 -6 -13 0 -9 -5 -16 -12 -14 -8 1 -11 -2 -7 -7 3 -6 -26
-66 -66 -133 -39 -68 -94 -162 -121 -210 -31 -54 -57 -88 -67 -88 -14 0 -14
-2 -1 -10 10 -6 11 -10 3 -10 -7 0 -12 -3 -12 -7 3 -21 -2 -33 -13 -27 -7 4
-8 3 -4 -5 9 -14 -55 -132 -68 -124 -5 3 -6 1 -2 -5 7 -12 -130 -294 -145
-300 -5 -2 -7 -8 -4 -12 3 -5 -6 -32 -20 -60 -71 -140 -275 -687 -275 -737 0
-8 -5 -11 -12 -7 -6 4 -8 3 -5 -3 4 -6 -9 -76 -28 -154 -18 -79 -42 -183 -51
-231 -9 -48 -20 -85 -24 -83 -4 2 -5 -6 -3 -19 3 -12 -2 -64 -11 -114 -9 -51
-16 -103 -16 -117 0 -14 -3 -25 -7 -25 -5 0 -9 -33 -10 -73 -3 -128 -13 -199
-27 -188 -10 8 -11 3 -8 -22 4 -25 6 -28 12 -13 3 10 7 -94 7 -233 1 -138 -3
-251 -7 -251 -7 0 -7 -17 0 -40 1 -3 5 4 9 15 5 12 10 -15 14 -76 4 -52 16
-150 27 -218 11 -68 18 -133 15 -145 -5 -17 -4 -18 5 -6 9 12 11 9 8 -17 -3
-18 0 -29 5 -26 5 3 7 -3 6 -13 -2 -11 -1 -23 2 -29 13 -22 19 -65 9 -65 -5 0
-10 4 -10 9 0 5 -10 7 -22 3 -14 -3 -19 -1 -14 6 4 7 2 10 -7 6 -32 -12 -415
169 -410 194 2 6 -4 9 -12 6 -9 -4 -15 0 -15 10 0 8 -10 20 -22 26 -21 10 -21
10 -5 -3 9 -8 17 -17 17 -21 0 -8 -145 88 -177 117 -12 11 -20 24 -16 30 3 6
1 7 -4 4 -13 -8 -55 27 -45 38 4 5 1 5 -6 1 -15 -9 -184 152 -176 166 3 5 0 7
-8 6 -7 -2 -12 3 -10 10 1 8 -2 11 -6 8 -17 -10 -208 237 -197 254 4 6 1 9 -7
8 -7 -2 -12 5 -12 14 1 10 -2 16 -6 13 -5 -3 -11 -1 -15 5 -3 5 -1 10 5 10 6
0 8 5 5 10 -4 6 -10 8 -15 5 -24 -15 -226 408 -215 449 4 14 3 17 -3 8 -10
-15 -87 211 -77 228 3 5 2 10 -4 10 -11 0 -52 170 -81 335 -37 216 -52 426
-47 663 3 119 5 238 6 264 0 62 27 318 52 503 86 637 321 1485 571 2060 74
171 192 404 201 398 6 -3 7 -1 3 6 -9 14 55 132 68 124 5 -3 6 -1 3 4 -4 6 11
42 32 81 50 92 66 113 76 104 5 -4 5 -2 1 5 -10 19 197 328 214 318 4 -3 7 3
6 13 0 9 5 16 12 14 8 -1 11 2 7 8 -7 11 68 109 163 212 85 93 181 188 190
188 4 0 13 9 20 20 7 12 18 18 24 14 6 -4 8 -3 5 3 -7 10 78 84 196 173 48 36
60 41 69 29 8 -11 9 -11 4 3 -6 20 61 62 223 143 98 49 105 51 96 33 -4 -7 0
-5 8 5 26 31 239 95 404 121 123 19 414 20 538 1z m483 -136 c40 -18 69 -36
65 -42 -3 -6 -1 -7 5 -3 13 8 63 -14 57 -25 -3 -4 0 -11 6 -15 8 -4 9 -3 5 4
-9 15 -1 15 25 1 11 -5 17 -14 14 -19 -3 -6 0 -8 7 -5 17 6 100 -49 91 -60 -5
-4 -3 -5 3 -2 16 9 137 -81 128 -95 -4 -6 -3 -8 3 -5 6 4 24 -3 39 -15 16 -12
31 -23 33 -25 2 -1 -2 -9 -8 -17 -9 -10 -9 -16 -1 -21 6 -4 14 -4 17 -1 4 3 1
6 -6 6 -7 0 -9 5 -5 11 10 17 20 0 42 -76 57 -192 117 -484 107 -522 -3 -14
-2 -22 3 -19 10 6 26 -121 42 -319 12 -143 13 -445 3 -445 -5 0 -8 -39 -9 -88
-2 -172 -81 -604 -160 -875 -3 -9 -10 -15 -15 -12 -5 3 -6 -1 -3 -10 4 -9 -15
-82 -42 -162 -36 -111 -50 -141 -56 -127 -6 14 -7 12 -3 -8 3 -15 1 -37 -4
-50 -5 -13 -19 -49 -32 -81 -16 -42 -24 -55 -31 -45 -7 9 -8 7 -4 -8 6 -18
-65 -201 -82 -214 -4 -3 -8 -13 -10 -22 -6 -38 -44 -110 -52 -99 -5 9 -9 8
-13 -4 -4 -9 -3 -13 3 -10 6 3 10 2 10 -4 0 -17 -123 -281 -129 -277 -3 2 -7
-6 -7 -17 -2 -27 -73 -179 -88 -189 -6 -4 -8 -8 -3 -8 10 0 -21 -72 -34 -81
-6 -3 -9 -8 -7 -11 7 -11 -66 -167 -75 -161 -6 3 -7 1 -4 -5 11 -17 -64 -196
-75 -180 -7 9 -8 7 -3 -7 5 -17 -57 -189 -75 -205 -3 -3 -5 -9 -5 -15 -1 -21
-28 -94 -34 -91 -3 2 -7 -6 -8 -17 -1 -12 -25 -89 -54 -170 -37 -106 -55 -145
-61 -135 -7 9 -8 7 -3 -7 8 -26 -25 -146 -38 -138 -6 3 -7 1 -3 -5 7 -11 -21
-132 -33 -142 -3 -3 -7 -14 -7 -25 -2 -35 -68 -304 -74 -300 -3 2 -6 -16 -6
-38 -1 -23 -13 -105 -26 -182 -22 -125 -27 -140 -44 -138 -18 1 -18 1 -1 -12
16 -12 18 -22 12 -82 -7 -66 -12 -98 -15 -98 -2 0 -6 -111 -8 -208 -1 -43 -5
-76 -9 -74 -14 9 8 -559 29 -733 8 -70 8 -95 -1 -98 -7 -2 -5 -9 5 -19 10 -11
15 -29 12 -54 -2 -20 0 -35 5 -32 5 3 7 -10 5 -28 l-3 -34 -65 -1 c-173 -1
-523 23 -515 36 3 5 -4 6 -15 3 -26 -7 -190 17 -190 27 0 5 -9 7 -21 5 -43 -8
-337 59 -355 81 -6 8 -13 11 -16 8 -8 -8 -44 152 -74 324 -40 236 -57 477 -50
707 7 221 15 336 25 331 3 -2 7 28 8 67 1 38 5 73 10 76 4 3 9 31 10 61 6 133
132 678 154 664 5 -3 6 2 3 11 -8 20 67 236 79 228 6 -3 7 -1 3 5 -9 14 33
134 45 127 4 -3 11 0 15 6 4 8 3 9 -4 5 -20 -12 -14 10 42 136 97 221 177 379
188 372 6 -4 8 -1 5 7 -11 30 325 635 346 622 5 -3 7 -1 4 5 -9 13 33 93 45
86 5 -3 8 -2 7 3 -4 21 2 34 13 27 6 -4 8 -3 4 4 -3 6 55 114 130 239 75 125
184 311 242 413 57 102 107 187 111 190 3 3 7 10 8 16 1 7 28 65 61 130 59
122 71 148 152 344 62 149 143 389 174 515 55 217 106 537 106 657 0 26 3 49
8 51 14 10 -5 478 -27 642 -25 184 -48 323 -57 336 -9 15 11 10 84 -22z m799
-620 c14 -15 23 -32 19 -38 -4 -6 -1 -11 7 -11 23 0 88 -85 81 -107 -4 -13 -3
-14 3 -5 8 10 16 4 37 -23 15 -19 24 -40 20 -47 -5 -7 -3 -8 5 -4 8 5 14 0 18
-13 3 -12 9 -21 13 -21 9 0 65 -83 62 -92 -1 -5 2 -8 7 -8 5 0 37 -43 71 -95
53 -83 60 -98 49 -113 -11 -14 -11 -15 1 -5 11 11 20 3 50 -45 20 -31 61 -107
92 -167 52 -101 55 -112 40 -123 -9 -7 -11 -10 -4 -7 6 3 12 1 12 -5 0 -6 4
-9 10 -5 5 3 15 -7 23 -22 18 -36 40 -140 33 -152 -4 -5 -2 -11 3 -13 11 -3
49 -240 56 -348 2 -40 7 -80 10 -90 3 -10 1 -21 -5 -25 -5 -3 -10 -14 -9 -23
0 -14 2 -13 9 3 7 17 9 16 10 -10 0 -16 3 -93 7 -169 4 -90 3 -137 -4 -133 -5
3 -10 0 -10 -8 0 -8 5 -11 10 -8 7 4 8 -41 4 -132 -4 -77 -11 -141 -16 -144
-5 -3 -7 -22 -5 -41 2 -19 -4 -92 -12 -162 -14 -105 -20 -128 -33 -128 -13 0
-13 -2 -2 -9 8 -5 11 -19 8 -37 -4 -16 -11 -55 -17 -87 -6 -31 -15 -55 -19
-52 -5 2 -6 -6 -4 -18 7 -38 -62 -297 -140 -522 -59 -169 -57 -165 -74 -165
-12 0 -14 -7 -9 -30 4 -22 2 -29 -6 -24 -6 4 -8 3 -4 -4 8 -14 -43 -144 -55
-136 -5 3 -6 -2 -3 -10 3 -9 1 -16 -5 -16 -6 0 -8 -7 -4 -17 5 -12 3 -14 -7
-8 -8 5 -11 4 -7 -2 9 -15 -44 -143 -56 -136 -6 3 -7 1 -3 -6 10 -16 -3 -53
-16 -45 -7 5 -8 2 -4 -5 8 -13 -73 -223 -83 -217 -3 2 -6 -8 -7 -22 -1 -15
-10 -47 -22 -72 -11 -25 -26 -62 -33 -82 -9 -27 -16 -34 -22 -25 -6 8 -7 6 -3
-6 3 -10 -14 -73 -38 -140 -24 -67 -58 -167 -76 -222 -18 -55 -35 -104 -39
-110 -3 -5 -6 -17 -8 -25 -6 -50 -49 -178 -57 -173 -5 3 -6 1 -2 -5 4 -7 -4
-58 -18 -114 -14 -57 -35 -152 -47 -213 -13 -60 -25 -112 -28 -115 -4 -3 -6
-21 -6 -40 -1 -19 -9 -96 -18 -170 -9 -74 -21 -189 -26 -255 -6 -77 -14 -121
-21 -123 -7 -3 -8 -7 -3 -11 6 -3 13 -113 17 -251 4 -135 12 -296 19 -357 13
-111 12 -113 -8 -114 -19 0 -19 -1 -1 -8 15 -6 5 -11 -42 -25 -34 -9 -67 -14
-74 -10 -6 4 -8 3 -5 -3 9 -14 -273 -77 -346 -77 -31 -1 -49 -3 -40 -7 9 -3
-39 -13 -107 -22 -165 -22 -395 -41 -413 -34 -16 6 -45 247 -32 267 5 8 4 11
-2 7 -33 -20 -40 804 -9 1068 10 88 22 161 26 163 5 2 7 9 4 17 -3 7 11 99 31
203 32 163 39 190 53 185 14 -4 14 -3 3 5 -17 12 -10 45 70 312 113 381 261
758 522 1330 114 250 119 260 130 253 6 -3 7 -1 3 6 -4 6 35 108 88 229 270
615 393 1057 457 1642 15 138 15 532 0 690 -16 171 -57 427 -96 605 -3 16 2
13 21 -10 13 -16 36 -42 51 -56z m971 -1789 c70 -208 90 -276 74 -252 -7 11
-11 10 -16 -4 -4 -10 -4 -15 0 -11 9 8 34 -11 34 -27 0 -6 -5 -4 -11 4 -9 12
-10 12 -5 -3 3 -10 6 -24 6 -30 0 -8 3 -8 8 1 6 8 19 -21 36 -80 39 -130 39
-128 27 -128 -6 0 -11 -5 -11 -11 0 -5 4 -8 9 -5 11 7 16 -6 47 -122 14 -51
22 -97 19 -102 -4 -6 -2 -10 3 -10 14 0 25 -71 13 -83 -5 -5 -7 -16 -3 -25 5
-13 6 -13 12 3 7 20 51 -164 53 -225 1 -19 5 -37 8 -40 13 -10 99 -570 99
-637 0 -22 -2 -25 -10 -13 -8 13 -10 12 -10 -2 0 -10 6 -18 13 -18 30 0 49
-610 26 -845 -18 -186 -76 -515 -90 -515 -5 0 -6 -7 -3 -15 13 -32 -113 -407
-193 -573 -66 -138 -143 -263 -155 -256 -7 5 -9 2 -6 -8 8 -18 -153 -234 -171
-230 -7 1 -9 -2 -6 -9 9 -13 -181 -202 -289 -288 -147 -117 -422 -281 -446
-266 -5 3 -10 2 -10 -3 0 -5 -31 -23 -70 -40 l-69 -30 -6 41 c-28 215 -36 627
-15 837 28 285 82 566 159 840 84 294 256 774 275 763 5 -3 6 -1 2 5 -7 11 35
120 179 467 37 88 80 197 97 243 22 59 34 79 40 70 7 -9 8 -7 4 6 -8 23 53
208 65 200 5 -3 6 1 3 9 -3 8 11 68 30 133 98 335 175 771 176 995 0 30 6 61
13 68 6 8 7 11 2 8 -7 -4 -11 44 -12 141 -1 81 -5 183 -8 227 -4 52 -3 75 4
65 5 -8 40 -107 79 -220z"/>
<path d="M5 1380 c0 -536 1 -756 2 -487 2 268 2 706 0 975 -1 268 -2 48 -2
-488z"/>
<path d="M2853 3 c1281 -2 3373 -2 4650 0 1277 1 230 2 -2328 2 -2557 0 -3602
-1 -2322 -2z"/>
</g>
</svg>
