<?xml version="1.0" standalone="no"?>
<!DOCTYPE svg PUBLIC "-//W3C//DTD SVG 20010904//EN"
 "http://www.w3.org/TR/2001/REC-SVG-20010904/DTD/svg10.dtd">
<svg version="1.0" xmlns="http://www.w3.org/2000/svg"
 width="1024.000000pt" height="1024.000000pt" viewBox="0 0 1024.000000 1024.000000"
 preserveAspectRatio="xMidYMid meet">
<metadata>
Created by potrace 1.16, written by Peter Selinger 2001-2019
</metadata>
<g transform="translate(0.000000,1024.000000) scale(0.100000,-0.100000)"
fill="#000000" stroke="none">
<path d="M7075 8390 c3 -5 -5 -16 -17 -24 -23 -16 -23 -19 -26 -284 -3 -256
-2 -269 17 -294 28 -35 53 -39 100 -16 l40 19 1 260 c1 309 -2 320 -86 339
-19 4 -32 4 -29 0z"/>
<path d="M3470 8079 c-41 -5 -82 -7 -90 -4 -8 4 -11 3 -7 -1 4 -5 -36 -18 -90
-30 -193 -43 -465 -154 -637 -258 -32 -20 -63 -33 -69 -29 -5 3 -7 1 -4 -4 9
-14 -40 -46 -55 -37 -6 4 -8 3 -4 -4 8 -13 -33 -43 -48 -35 -6 3 -8 3 -4 -1 4
-5 -28 -35 -70 -68 -42 -34 -138 -122 -212 -197 -74 -74 -139 -134 -143 -133
-5 1 -6 -2 -3 -7 3 -5 -11 -31 -32 -58 -69 -86 -159 -226 -216 -335 -58 -109
-149 -337 -162 -404 -6 -33 -8 -36 -16 -19 -7 16 -7 15 -3 -6 2 -14 -4 -68
-15 -122 -60 -296 -46 -671 36 -957 45 -157 175 -494 230 -593 9 -15 13 -35
10 -43 -3 -8 -1 -12 4 -9 12 7 62 -103 53 -118 -3 -6 -1 -7 5 -3 7 4 12 3 12
-3 0 -5 -5 -11 -10 -13 -7 -2 -5 -11 5 -23 12 -16 14 -17 9 -2 -13 36 7 15 32
-35 15 -29 27 -66 26 -83 0 -18 2 -24 7 -16 10 15 94 -170 95 -210 1 -15 3
-25 5 -23 15 15 83 -241 100 -376 31 -240 15 -470 -50 -748 -25 -106 -118
-377 -170 -495 -62 -140 -202 -409 -216 -414 -7 -3 -11 -9 -8 -13 2 -4 -13
-33 -35 -64 -33 -47 -40 -65 -38 -96 2 -21 5 -38 8 -38 11 2 40 -15 36 -21 -5
-8 44 -7 70 2 14 5 46 54 94 145 40 75 90 169 110 207 53 98 125 260 175 394
23 62 45 110 47 105 3 -5 3 -3 1 5 -2 7 10 57 26 110 36 115 63 229 87 371 28
160 26 496 -3 648 -39 199 -104 389 -211 612 -33 69 -86 181 -119 250 -232
483 -314 786 -314 1147 0 499 203 985 571 1367 103 107 235 221 329 285 63 43
77 49 65 29 -4 -8 -3 -10 2 -5 5 5 9 14 9 20 0 7 8 11 18 11 9 -1 14 2 12 6
-18 29 468 243 511 226 8 -3 12 -2 9 4 -3 6 -5 10 -3 10 2 0 45 9 95 20 131
29 154 32 288 39 310 16 622 -41 887 -162 50 -23 85 -44 81 -50 -3 -6 -1 -7 5
-3 24 14 249 -135 236 -156 -5 -7 -2 -8 5 -4 13 9 54 -22 46 -34 -3 -4 3 -7
13 -6 9 0 16 -5 14 -12 -1 -8 2 -11 7 -7 11 6 77 -63 73 -77 -1 -5 1 -7 6 -4
10 6 58 -43 113 -114 50 -64 53 -71 38 -82 -11 -7 -9 -8 5 -6 15 2 29 -13 57
-61 32 -54 36 -68 27 -85 -10 -18 -9 -19 4 -9 13 11 19 3 45 -55 53 -117 115
-334 99 -349 -3 -3 -2 -11 3 -17 5 -6 11 -51 14 -101 3 -49 2 -70 -1 -45 -7
46 -22 46 -17 0 2 -14 4 -41 5 -60 2 -32 3 -33 10 -10 5 17 8 -5 9 -65 1 -119
19 -255 40 -318 10 -29 17 -67 15 -85 -1 -17 3 -35 8 -39 7 -4 9 4 4 23 -4 16
17 -15 46 -69 59 -108 187 -295 291 -424 37 -46 65 -89 61 -95 -5 -7 -2 -8 6
-3 10 6 12 4 7 -9 -4 -9 -3 -15 2 -12 22 14 28 -67 9 -109 -7 -16 -52 -53
-112 -92 -201 -130 -220 -167 -201 -367 6 -59 5 -77 -3 -72 -8 5 -10 2 -6 -8
8 -21 -47 -53 -116 -67 -120 -25 -157 -39 -170 -64 -12 -22 -11 -30 3 -60 22
-47 52 -52 142 -26 90 26 107 26 122 2 22 -35 12 -102 -28 -198 -21 -51 -39
-106 -39 -122 0 -23 -4 -29 -15 -25 -8 4 -15 1 -15 -5 0 -7 6 -14 14 -17 8 -3
14 -13 14 -22 0 -9 3 -54 7 -99 10 -107 -7 -155 -76 -217 -104 -94 -241 -121
-554 -111 -180 5 -234 4 -295 -9 -143 -30 -255 -106 -335 -228 -21 -32 -41
-58 -44 -58 -4 0 -7 -8 -8 -17 0 -10 -17 -60 -36 -110 -20 -51 -43 -120 -53
-153 -10 -35 -21 -57 -27 -53 -6 4 -7 1 -2 -7 7 -11 -22 -128 -35 -140 -3 -3
-6 -12 -6 -20 -1 -8 -20 -89 -43 -179 -56 -226 -78 -422 -63 -557 24 -214 83
-288 171 -213 23 19 24 23 12 62 -35 122 -41 151 -45 223 -2 44 3 124 11 179
26 182 88 439 104 429 5 -3 6 1 3 9 -7 20 79 300 125 408 21 48 55 110 75 138
41 55 89 95 101 83 5 -4 5 -2 2 4 -9 16 50 40 139 59 68 14 99 15 229 5 395
-31 665 64 766 267 22 45 24 60 25 223 l1 175 38 90 c40 95 48 169 26 228 -6
15 -8 33 -5 41 3 8 1 17 -5 21 -7 4 -9 -1 -5 -12 5 -15 4 -15 -5 -3 -7 11 -5
20 8 35 47 51 54 81 46 207 -6 101 -4 123 9 143 18 27 93 78 113 78 7 0 11 2
9 5 -3 2 21 22 53 43 127 85 174 208 122 321 -10 24 -20 46 -20 50 -1 4 -14
20 -29 36 -35 37 -43 46 -154 198 -247 337 -277 412 -278 680 0 244 -26 423
-86 606 -14 43 -22 83 -18 90 4 7 3 10 -1 5 -5 -4 -30 35 -55 87 -96 193 -234
373 -390 508 -85 74 -235 179 -327 228 -34 19 -60 37 -57 42 3 4 -1 5 -8 3 -8
-3 -43 8 -78 24 -106 47 -307 108 -435 132 -136 25 -480 35 -615 18z"/>
<path d="M5975 7990 c3 -4 -2 -10 -10 -13 -22 -9 -47 -65 -39 -89 6 -19 338
-379 388 -420 31 -26 64 -22 97 11 49 49 41 73 -56 174 -50 52 -82 93 -79 100
4 7 3 9 -1 4 -11 -10 -86 63 -78 76 3 6 2 7 -4 4 -5 -4 -43 27 -83 68 -40 41
-73 75 -74 75 -1 0 -16 4 -34 9 -18 6 -30 6 -27 1z"/>
<path d="M8234 7991 c4 -6 2 -11 -3 -11 -6 0 -28 -16 -49 -35 -22 -19 -43 -31
-47 -27 -5 4 -5 2 -2 -5 9 -15 -141 -175 -157 -166 -6 3 -8 2 -3 -2 10 -11
-53 -76 -66 -68 -6 4 -7 1 -2 -7 4 -7 4 -15 -1 -19 -5 -3 -33 -32 -62 -64 -46
-49 -53 -62 -47 -85 10 -40 44 -72 77 -72 33 0 37 4 287 262 182 189 192 206
153 254 -18 23 -89 64 -78 45z"/>
<path d="M7033 7609 c-40 -4 -95 -12 -122 -19 -28 -6 -56 -8 -63 -4 -7 4 -10
4 -6 -1 10 -10 -142 -76 -155 -68 -6 3 -7 1 -4 -4 4 -6 -17 -26 -46 -46 -57
-39 -112 -88 -172 -157 -22 -25 -43 -44 -48 -42 -5 1 -6 -2 -3 -7 4 -5 -7 -31
-24 -57 -62 -99 -120 -301 -120 -422 0 -20 -4 -31 -10 -27 -5 3 -10 1 -10 -4
0 -6 5 -11 11 -11 6 0 8 -17 5 -47 -3 -33 -3 -38 2 -18 7 26 9 22 15 -34 4
-34 4 -68 0 -75 -3 -6 -2 -8 2 -3 5 4 19 -25 31 -64 12 -39 41 -102 63 -141
29 -51 38 -74 31 -83 -8 -9 -5 -12 8 -11 23 1 96 -79 86 -95 -4 -8 -3 -9 4 -5
13 8 74 -43 66 -56 -3 -5 -2 -8 3 -7 22 4 34 -2 27 -13 -4 -7 -4 -10 0 -6 4 3
33 -10 64 -30 32 -20 85 -48 119 -62 35 -15 61 -29 59 -31 -2 -2 10 -5 27 -5
17 -1 33 -6 35 -13 2 -6 8 -9 12 -6 5 3 50 0 100 -6 230 -30 479 47 659 203
24 21 49 35 55 31 6 -3 8 -3 4 2 -4 4 10 29 31 54 21 25 56 74 78 109 22 34
43 59 47 55 4 -4 4 0 1 9 -4 9 2 33 13 55 41 80 56 170 57 328 0 130 -3 160
-23 225 -31 99 -91 212 -151 287 -27 34 -48 64 -45 67 2 3 1 4 -3 1 -3 -3 -27
14 -52 38 -59 55 -157 122 -218 148 -99 43 -179 60 -338 73 -16 1 -63 -1 -102
-5z m289 -179 c37 -11 74 -27 81 -35 8 -8 17 -12 19 -10 8 9 127 -70 174 -115
92 -88 153 -178 189 -282 20 -57 20 -78 0 -52 -14 18 -15 18 -7 -4 4 -13 12
-23 17 -22 16 2 23 -39 24 -136 2 -200 -88 -400 -234 -519 -38 -32 -48 -36
-56 -24 -8 11 -9 10 -7 -5 4 -26 -79 -76 -184 -110 -98 -33 -239 -44 -330 -27
-98 19 -169 42 -163 52 3 5 0 6 -7 4 -16 -6 -109 48 -174 101 -90 74 -202 250
-189 297 5 16 4 18 -3 8 -16 -23 -44 122 -43 229 1 202 77 373 223 504 76 68
215 139 313 160 96 21 267 15 357 -14z"/>
<path d="M4908 6843 c-87 -99 -162 -172 -171 -166 -6 3 -7 1 -3 -5 8 -14 -114
-113 -244 -197 -162 -106 -425 -246 -446 -239 -13 4 -15 3 -6 -3 8 -6 -43 -38
-165 -103 -273 -143 -284 -152 -261 -207 6 -15 10 -32 9 -38 -2 -5 1 -7 4 -3
4 4 20 1 35 -7 22 -11 31 -12 51 -1 13 7 80 43 149 81 274 149 310 166 321
159 7 -4 9 -3 5 4 -7 11 219 138 241 136 7 -1 11 2 8 6 -2 4 33 30 78 58 45
27 118 76 162 107 44 32 85 58 92 58 7 0 10 3 8 7 -3 4 23 29 57 56 33 27 96
87 139 134 90 96 99 127 53 174 -39 38 -76 35 -116 -11z"/>
<path d="M5633 6853 c-36 -5 -73 -47 -73 -83 0 -12 13 -35 29 -51 l29 -29 226
0 c146 0 234 4 250 11 49 23 57 97 14 136 -18 16 -42 18 -232 19 -116 1 -226
-1 -243 -3z"/>
<path d="M8174 6830 c-29 -12 -54 -49 -54 -80 0 -28 37 -70 61 -70 8 0 21 -6
28 -12 9 -8 12 -9 7 -1 -10 18 252 18 273 0 21 -18 54 -30 46 -17 -3 6 -13 10
-21 10 -8 0 -14 4 -14 10 0 6 40 8 103 5 119 -4 147 5 160 52 13 44 3 75 -32
96 -26 15 -59 17 -283 16 -139 0 -263 -4 -274 -9z"/>
<path d="M4955 6141 c-36 -16 -115 -78 -260 -204 -22 -19 -44 -33 -50 -29 -5
3 -7 2 -3 -3 4 -4 -6 -23 -22 -42 -36 -41 -39 -81 -7 -111 46 -43 66 -38 143
32 39 36 75 62 79 58 5 -4 5 -2 2 4 -4 7 14 31 41 55 40 38 47 41 49 24 1 -11
5 -56 8 -99 6 -64 11 -83 31 -102 31 -32 69 -31 100 3 23 24 25 34 20 78 -3
27 -8 104 -12 169 -7 138 -14 163 -49 176 -31 12 -22 13 -70 -9z"/>
<path d="M7875 6090 c-25 -10 -41 -28 -54 -62 -8 -21 -5 -32 14 -61 13 -19 22
-37 20 -41 -3 -3 -2 -4 2 -1 10 8 83 -66 77 -77 -3 -5 -1 -7 4 -6 5 2 72 -61
148 -140 77 -78 137 -142 134 -142 -3 0 2 -5 10 -10 8 -5 20 -10 25 -10 6 0 3
4 -4 9 -12 8 -9 11 12 16 36 9 67 50 67 87 0 25 -25 56 -147 181 -82 84 -173
178 -204 209 -56 58 -67 64 -104 48z"/>
<path d="M6302 6065 c-16 -13 -32 -22 -36 -20 -3 3 -4 2 -1 -2 7 -9 -36 -53
-47 -47 -5 3 -7 0 -6 -8 2 -7 -3 -12 -9 -10 -7 1 -12 -2 -10 -7 1 -5 -56 -70
-128 -146 -71 -75 -134 -148 -140 -162 -7 -19 -5 -32 8 -55 9 -16 15 -33 13
-36 -2 -4 15 -8 39 -10 l43 -3 139 143 c194 199 273 285 273 298 0 19 -21 54
-44 72 -29 24 -60 22 -94 -7z"/>
<path d="M3038 5979 c-65 -10 -164 -56 -225 -106 -28 -23 -55 -39 -60 -35 -4
4 -5 3 -1 -2 4 -5 -5 -25 -21 -45 -15 -20 -36 -50 -46 -68 -10 -18 -22 -30
-27 -27 -4 3 -5 -2 -2 -11 4 -8 2 -21 -4 -28 -25 -31 -44 -156 -40 -259 5
-117 31 -204 95 -317 21 -36 36 -69 35 -73 -1 -5 2 -8 7 -8 12 0 77 -90 74
-101 -2 -5 0 -8 5 -7 4 1 39 -30 77 -68 39 -38 99 -90 134 -114 36 -25 66 -54
67 -65 4 -25 -12 -105 -34 -170 -23 -70 -78 -171 -92 -167 -6 1 -8 -2 -5 -8 9
-15 -45 -91 -58 -83 -5 3 -7 1 -4 -4 8 -12 -31 -66 -42 -59 -4 3 -13 0 -21 -6
-12 -8 -12 -9 3 -4 9 3 17 2 17 -2 0 -15 -56 -62 -65 -55 -4 5 -5 3 -2 -3 14
-24 -190 -195 -284 -238 -73 -34 -94 -57 -85 -93 4 -15 8 -35 9 -44 1 -9 6
-16 12 -17 5 -1 25 -5 43 -8 26 -5 44 1 103 37 39 23 96 62 127 86 30 23 59
40 65 36 6 -3 7 -1 4 4 -4 6 19 33 51 61 67 58 180 189 239 277 80 119 134
245 157 365 12 63 13 65 42 64 96 -5 142 61 91 130 -10 14 -30 20 -71 24 -43
3 -56 8 -56 21 0 13 -2 14 -9 2 -17 -26 -134 42 -229 133 -163 155 -255 337
-255 501 0 85 18 170 33 160 6 -3 7 0 5 7 -8 20 65 128 108 161 106 81 215 99
329 55 15 -6 25 -15 21 -21 -3 -5 -1 -7 4 -4 15 9 83 -48 137 -115 25 -31 51
-58 58 -61 24 -8 69 15 83 44 14 25 14 33 1 64 -43 101 -191 221 -313 254 -55
15 -127 19 -185 10z"/>
<path d="M7075 5739 c-4 -6 -13 -8 -19 -6 -7 3 -14 0 -16 -6 -1 -7 -4 -134 -7
-283 l-4 -272 24 -27 c29 -35 80 -37 111 -5 20 20 21 32 24 286 l3 265 -30 29
c-30 30 -74 40 -86 19z"/>
</g>
</svg>
