<?xml version="1.0" standalone="no"?>
<!DOCTYPE svg PUBLIC "-//W3C//DTD SVG 20010904//EN"
 "http://www.w3.org/TR/2001/REC-SVG-20010904/DTD/svg10.dtd">
<svg version="1.0" xmlns="http://www.w3.org/2000/svg"
 width="1024.000000pt" height="1024.000000pt" viewBox="0 0 1024.000000 1024.000000"
 preserveAspectRatio="xMidYMid meet">
<metadata>
Created by potrace 1.16, written by Peter Selinger 2001-2019
</metadata>
<g transform="translate(0.000000,1024.000000) scale(0.100000,-0.100000)"
fill="#000000" stroke="none">
<path d="M1363 8635 c-20 -22 -16 -41 11 -59 14 -8 35 -26 48 -38 32 -31 72
-64 90 -74 22 -13 98 -76 123 -101 12 -13 26 -23 31 -23 5 0 30 -19 56 -43 26
-23 60 -53 77 -66 16 -14 28 -28 25 -33 -3 -4 1 -6 8 -3 7 3 33 -14 58 -37 25
-24 48 -43 52 -43 4 0 15 -8 25 -17 10 -9 34 -31 53 -49 19 -17 34 -36 32 -41
-1 -5 2 -7 8 -3 6 3 23 -4 39 -17 15 -13 94 -76 175 -141 80 -65 144 -123 141
-128 -4 -5 0 -6 7 -4 8 3 35 -15 61 -40 26 -25 50 -45 53 -45 5 0 54 -39 145
-115 20 -16 61 -50 92 -74 32 -24 57 -50 57 -58 0 -8 4 -12 9 -8 9 5 153 -108
159 -126 2 -5 8 -9 14 -9 17 0 108 -82 101 -93 -3 -6 -1 -7 5 -3 14 8 225
-162 217 -175 -4 -5 0 -6 8 -3 8 3 21 -3 28 -13 8 -11 21 -22 29 -26 8 -3 53
-37 100 -76 130 -109 142 -118 193 -156 27 -21 44 -41 41 -47 -4 -7 -2 -8 4
-4 7 4 23 -4 37 -18 14 -15 29 -26 33 -26 4 0 29 -21 56 -45 27 -25 52 -45 55
-45 4 0 28 -20 54 -45 27 -25 51 -45 54 -45 15 0 82 -63 77 -72 -4 -6 -2 -8 3
-5 16 10 96 -52 89 -68 -3 -9 0 -12 10 -8 8 3 23 -2 32 -10 9 -9 31 -27 47
-41 104 -86 130 -111 127 -120 -2 -6 0 -8 4 -3 4 4 16 0 26 -10 17 -15 18 -48
18 -628 l0 -612 -27 -25 c-16 -14 -55 -56 -88 -94 -33 -37 -86 -95 -117 -128
l-58 -61 0 748 c0 496 -3 746 -10 742 -5 -3 -10 -2 -10 2 0 5 -8 9 -17 10 -17
1 -54 18 -277 122 -49 23 -96 41 -105 39 -11 -2 -17 -17 -19 -51 -2 -26 -7
-45 -11 -43 -4 3 -8 -1 -8 -9 0 -8 4 -12 9 -9 13 8 10 -160 -4 -174 -9 -9 -9
-12 0 -12 9 0 12 -113 14 -462 2 -265 7 -462 12 -460 5 2 13 -2 17 -10 7 -10
9 -10 9 0 0 7 4 11 10 7 6 -4 9 158 10 441 0 246 3 451 6 455 3 5 10 7 15 3 5
-3 15 -1 22 4 17 14 49 18 65 9 8 -5 11 -4 10 4 -2 7 31 22 88 39 50 15 96 30
102 34 7 4 12 3 12 -2 0 -6 -8 -13 -17 -17 -17 -6 -17 -7 -1 -19 20 -15 38
-176 19 -176 -6 0 -11 5 -11 12 0 6 -3 9 -6 6 -7 -8 -7 -328 0 -336 3 -3 6 64
7 149 1 118 3 145 10 115 11 -45 7 -1221 -3 -1232 -14 -14 -100 -17 -108 -4
-6 9 -10 7 -15 -9 -3 -11 -14 -21 -22 -21 -14 0 -14 -2 2 -17 14 -14 36 -18
92 -18 71 0 75 1 106 35 18 19 42 48 55 64 12 15 66 76 121 135 55 58 116 127
136 154 l36 47 139 0 c76 0 145 3 153 6 11 4 14 15 10 39 l-5 32 73 7 c41 4
185 6 322 5 l247 -3 -5 -43 -5 -43 140 0 c96 0 140 -4 140 -11 0 -6 12 -20 26
-31 14 -12 23 -27 20 -35 -3 -8 -2 -12 3 -8 5 3 62 -54 125 -127 64 -73 142
-160 174 -194 134 -143 451 -470 512 -528 16 -16 30 -33 30 -37 0 -4 9 -7 20
-6 10 1 17 3 15 6 -3 2 0 10 7 18 6 7 9 16 7 18 -2 2 -43 44 -90 92 l-86 88
-7 190 c-6 160 -2 1820 4 1850 5 21 -1 61 -10 75 -7 12 -28 5 -122 -39 -62
-29 -129 -62 -149 -72 -20 -10 -39 -16 -43 -12 -3 3 -6 2 -6 -4 0 -10 -39 -26
-66 -28 -6 0 -19 -6 -28 -14 -14 -12 -16 -78 -17 -715 -1 -385 -4 -712 -8
-725 -6 -23 -17 -13 -134 120 l-127 144 1 610 0 610 107 86 c59 47 111 88 116
90 5 2 23 16 40 31 35 30 358 290 446 358 31 25 112 90 180 145 67 55 160 129
205 165 45 36 107 85 137 110 30 25 108 88 174 141 65 53 175 143 244 199 69
56 166 135 215 175 50 41 104 85 120 99 17 14 33 25 36 26 3 0 23 16 45 35 31
28 211 176 259 213 6 5 58 47 117 95 59 48 112 87 118 87 5 0 10 3 10 8 0 4
25 27 56 52 30 25 66 54 78 65 13 11 38 31 56 45 18 14 40 32 49 41 23 22 168
139 216 174 69 50 120 99 121 116 1 11 -4 15 -12 12 -8 -3 -14 0 -14 6 0 17
-21 9 -55 -21 -16 -16 -33 -28 -36 -28 -3 0 -21 -14 -40 -31 -19 -17 -50 -43
-69 -57 -19 -14 -39 -31 -45 -36 -36 -38 -88 -75 -97 -70 -6 4 -8 3 -5 -4 4
-5 -16 -27 -45 -49 -29 -21 -60 -45 -68 -54 -8 -9 -35 -31 -60 -49 -25 -19
-49 -39 -55 -45 -14 -16 -483 -397 -524 -426 -19 -13 -44 -34 -55 -45 -12 -12
-73 -63 -136 -112 -63 -50 -139 -112 -168 -137 -29 -25 -57 -43 -63 -40 -5 4
-8 2 -7 -4 3 -9 -61 -65 -177 -156 -40 -31 -93 -73 -159 -128 -22 -18 -45 -31
-52 -31 -7 1 -12 -3 -11 -9 2 -9 -233 -210 -262 -224 -7 -3 -32 -23 -55 -44
-22 -22 -44 -39 -48 -39 -5 0 -17 -9 -27 -19 -52 -52 -312 -251 -321 -246 -5
3 -10 0 -10 -8 0 -8 -10 -21 -22 -30 -13 -8 -32 -23 -43 -34 -11 -10 -67 -56
-125 -101 -58 -45 -112 -88 -120 -96 -8 -7 -31 -24 -50 -37 -20 -13 -49 -37
-65 -52 -17 -15 -36 -25 -43 -22 -7 3 -11 1 -7 -4 3 -5 -7 -20 -22 -33 l-28
-23 3 -607 2 -608 -94 0 c-52 0 -101 3 -110 6 -12 5 -16 21 -16 66 0 37 4 57
10 53 6 -3 10 -1 10 4 0 6 -4 11 -10 11 -6 0 -10 50 -9 128 0 70 -5 176 -10
237 -7 77 -6 114 2 123 8 10 7 12 -4 10 -8 -2 -14 4 -15 12 0 8 -6 26 -11 40
-6 14 -17 41 -26 61 -23 55 -70 102 -134 135 -50 25 -72 30 -153 33 -57 2 -98
8 -102 15 -6 8 -8 8 -8 -1 0 -6 -17 -17 -37 -24 -65 -21 -173 -108 -173 -139
0 -5 -4 -10 -10 -10 -5 0 -9 -3 -8 -7 1 -5 -6 -33 -16 -63 -10 -30 -19 -82
-22 -115 -3 -33 -7 -69 -9 -81 -2 -11 -5 -127 -5 -257 l-1 -237 -125 0 -124 0
0 617 c1 550 -1 618 -15 626 -9 4 -28 20 -44 35 -16 15 -41 36 -56 47 -30 21
-240 191 -313 253 -24 20 -54 43 -65 51 -25 17 -316 251 -344 276 -10 9 -59
49 -109 88 -49 40 -146 118 -215 174 -68 56 -164 134 -214 173 -49 39 -110 89
-135 111 -25 21 -76 64 -115 95 -38 31 -92 74 -120 96 -27 22 -51 44 -53 49
-2 5 -8 9 -14 9 -5 0 -53 37 -106 83 -53 45 -108 91 -121 102 -13 11 -32 28
-43 38 -10 9 -21 17 -24 17 -6 0 -26 17 -121 101 -18 15 -33 26 -33 22 0 -3
-7 0 -15 7 -13 11 -13 15 -3 23 10 6 9 8 -4 4 -15 -5 -54 25 -298 225 -25 20
-60 50 -78 67 -18 17 -36 31 -39 31 -5 0 -109 85 -123 100 -3 3 -41 34 -85 70
-44 35 -89 71 -100 81 -44 39 -63 55 -81 66 -10 6 -18 16 -16 22 3 16 -31 13
-45 -4z m2621 -2597 c3 3 6 0 6 -6 0 -7 8 -12 18 -12 9 0 23 -4 30 -9 8 -5
-28 -19 -100 -40 -62 -18 -121 -34 -130 -37 -16 -5 -18 4 -18 95 l0 100 94
-49 c52 -26 97 -45 100 -42z m2436 -14 c0 -87 -2 -96 -17 -89 -10 3 -52 16
-93 28 -41 12 -76 25 -78 29 -2 4 -9 5 -17 2 -8 -3 -20 -2 -29 3 -10 6 20 24
107 65 67 32 123 57 125 58 1 0 2 -43 2 -96z m-249 -80 c30 -8 61 -18 69 -21
8 -3 20 -7 25 -7 6 -1 43 -10 83 -21 l72 -19 0 -871 0 -870 -57 60 c-31 33
-88 93 -127 133 l-71 73 51 -2 c61 -3 91 16 66 41 -11 11 -33 14 -76 13 -60
-3 -110 12 -100 29 3 4 0 8 -5 8 -8 0 -11 224 -11 735 0 602 2 735 13 735 7 0
38 -7 68 -16z m-952 -206 c19 -3 37 -10 39 -16 2 -7 7 -10 12 -7 11 7 98 -72
115 -105 11 -21 11 -30 2 -39 -9 -10 -8 -11 4 -6 12 5 19 -4 27 -37 6 -24 11
-50 11 -58 0 -8 3 -46 6 -85 4 -38 7 -148 8 -243 l2 -172 -318 0 -318 0 4 203
c2 111 7 220 10 242 4 22 9 55 12 74 8 56 26 102 37 95 7 -4 8 -2 4 4 -13 22
52 112 81 112 7 0 13 4 13 9 0 4 21 15 46 23 43 14 119 16 203 6z"/>
<path d="M5107 8083 c-4 -3 -7 -132 -7 -285 l0 -278 -33 0 c-37 0 -36 4 -37
-101 l0 -67 -54 -6 c-30 -4 -81 -15 -115 -26 -34 -10 -61 -15 -61 -12 0 4 -4
2 -8 -4 -4 -6 -36 -26 -72 -44 -79 -41 -163 -126 -197 -197 -13 -29 -29 -55
-34 -58 -5 -4 -9 -17 -9 -31 l0 -24 155 0 c134 0 155 -2 155 -16 0 -8 4 -13 9
-9 5 3 12 1 16 -5 3 -5 1 -10 -4 -10 -6 0 -11 -7 -11 -15 0 -8 7 -15 16 -15 8
0 13 4 9 9 -6 11 57 -19 65 -30 8 -12 61 -30 100 -35 19 -3 44 -7 54 -11 27
-8 137 -5 150 5 6 4 38 19 71 32 33 13 66 32 73 42 7 10 20 18 28 18 8 0 14 6
14 14 0 23 24 26 211 26 144 0 179 3 179 14 0 24 -80 160 -118 200 -42 43 -93
79 -167 115 -27 13 -52 25 -55 26 -52 15 -145 47 -160 55 -14 8 -20 8 -20 0 0
-6 -5 -8 -11 -4 -8 4 -9 30 -4 80 6 71 6 74 -17 83 -12 5 -32 7 -43 5 -20 -3
-20 2 -19 267 1 224 -1 273 -13 285 -16 15 -26 18 -36 7z m118 -789 c134 -10
266 -65 362 -149 43 -38 45 -42 33 -65 -12 -23 -12 -24 3 -12 9 8 21 11 28 7
8 -6 7 -10 -2 -16 -11 -7 -11 -9 1 -9 16 0 46 -39 33 -41 -14 -3 -1123 -6
-1123 -3 0 15 54 96 85 128 100 103 326 183 480 169 33 -3 78 -7 100 -9z m65
-364 c-14 -12 -41 -28 -60 -36 -41 -19 -200 -32 -200 -17 0 6 -12 8 -26 5 -19
-3 -25 -1 -20 6 4 8 2 10 -8 6 -20 -7 -58 14 -50 28 4 7 3 8 -4 4 -7 -4 -12
-2 -12 4 0 6 -3 9 -7 7 -5 -3 -17 -1 -28 4 -11 4 83 8 210 8 l230 1 -25 -20z"/>
<path d="M1798 5063 c3 -1798 -1 -2398 -16 -2253 -7 66 -18 50 -15 -22 3 -76
12 -105 14 -47 1 31 2 30 9 -11 4 -25 6 -144 4 -264 l-3 -220 -33 -29 c-18
-16 -72 -66 -119 -110 -47 -45 -120 -114 -163 -154 l-77 -72 21 -21 c12 -12
23 -20 25 -18 2 2 39 37 82 78 148 141 265 245 274 243 5 -2 9 3 9 10 0 21
147 160 161 151 7 -4 10 -3 6 4 -9 14 153 164 171 157 7 -2 10 0 7 5 -6 10 41
60 208 215 59 55 112 99 118 97 6 -1 8 2 5 6 -3 5 34 46 82 92 366 346 452
430 451 443 0 7 -4 20 -8 30 -6 16 -21 6 -100 -70 -51 -48 -96 -89 -100 -91
-4 -1 -5 762 -4 1695 2 934 0 1713 -2 1730 -3 18 -9 32 -13 31 -16 -4 -52 14
-46 23 3 6 -1 9 -9 7 -16 -3 -317 140 -329 157 -4 6 -8 7 -8 3 0 -6 -33 10
-406 193 -99 49 -184 89 -190 89 -5 0 -8 -789 -6 -2077z m201 1920 c75 -37
138 -67 141 -68 17 -2 126 -60 132 -69 4 -6 8 -8 8 -4 0 9 163 -73 168 -85 2
-4 8 -5 13 -1 5 3 9 0 9 -7 0 -7 3 -9 6 -6 6 6 120 -48 134 -63 3 -3 11 -6 19
-8 8 -2 26 -9 40 -17 29 -15 31 -14 -64 -41 -99 -27 -178 -46 -210 -49 -16 -2
-56 -11 -88 -20 -47 -15 -65 -16 -95 -7 -20 6 -47 14 -59 17 -13 4 -23 10 -23
15 0 5 -6 7 -13 4 -7 -2 -39 5 -72 17 -33 11 -70 22 -82 25 -12 2 -35 9 -50
16 -31 13 -38 15 -53 17 -11 1 -14 401 -3 401 4 0 68 -30 142 -67z m-119 -401
c0 -4 10 -8 22 -9 30 -3 192 -56 196 -65 2 -4 10 -4 18 -1 9 3 14 -1 14 -13 0
-13 3 -15 8 -7 5 8 17 10 37 4 l30 -7 3 -1661 2 -1660 -107 -90 c-126 -104
-157 -126 -167 -116 -4 5 -7 4 -6 -2 4 -20 0 -35 -11 -35 -6 0 -20 -11 -31
-25 -11 -14 -24 -25 -29 -25 -6 0 -9 716 -9 1860 0 1641 2 1860 15 1860 8 0
15 -4 15 -8z m850 -2 c0 13 1 13 10 0 6 -10 10 -616 9 -1711 l0 -1697 -239 -1
-240 -1 0 1650 0 1649 21 11 c11 7 27 9 34 6 8 -3 17 -1 20 4 4 6 14 10 23 10
15 0 15 -2 2 -11 -12 -9 -12 -10 3 -5 10 3 23 6 28 6 6 0 7 5 4 10 -3 6 3 10
14 10 11 0 46 7 78 16 55 15 112 30 123 32 3 0 18 5 33 11 16 6 32 9 37 6 5
-3 12 0 16 6 4 8 9 7 15 -2 7 -11 9 -11 9 1z m-100 -3542 c-223 -214 -296
-278 -306 -270 -4 4 -4 2 -1 -4 4 -7 -23 -39 -64 -75 -39 -35 -99 -91 -133
-124 -131 -128 -257 -245 -265 -245 -5 0 -9 105 -10 234 l-2 234 31 22 c17 12
42 32 54 44 12 11 42 37 65 56 24 19 50 41 57 48 8 7 19 10 25 6 7 -4 9 -3 6
4 -4 5 8 22 25 37 28 23 90 76 123 105 6 5 116 9 245 9 l235 1 -85 -82z"/>
<path d="M8426 7132 c-10 -2 -51 -21 -90 -42 -113 -61 -156 -76 -168 -59 -7
11 -8 9 -4 -6 4 -17 -10 -27 -91 -65 -53 -25 -100 -44 -105 -42 -4 1 -8 -2 -8
-7 0 -5 -9 -13 -21 -16 -44 -14 -486 -234 -497 -247 -9 -12 -12 -393 -12
-1716 0 -935 3 -1707 6 -1716 9 -24 -4 -20 -37 11 -20 20 -25 30 -16 36 7 5 4
6 -8 3 -16 -5 -32 6 -65 39 -39 40 -42 47 -32 67 35 70 41 114 41 331 l0 217
-22 1 c-12 1 -26 1 -32 0 -5 -1 -3 5 6 12 10 7 26 29 37 48 18 32 18 39 6 68
-7 18 -18 30 -22 27 -5 -3 -31 8 -57 25 -80 51 -80 51 -27 96 69 59 106 139
106 228 0 83 -3 95 -28 118 -21 18 -41 23 -31 7 3 -5 -2 -11 -12 -12 -10 0
-30 -2 -45 -3 -53 -4 -152 -61 -184 -107 -26 -37 -44 -69 -48 -88 -1 -3 -7
-15 -14 -28 -10 -18 -16 -20 -32 -12 -18 10 -18 13 13 73 37 71 40 120 12 201
-14 41 -83 126 -104 126 -3 0 -24 16 -45 35 -22 18 -44 33 -50 32 -6 -1 -10 4
-8 11 1 8 -2 11 -8 7 -5 -3 -18 -2 -27 3 -42 22 -60 -20 -67 -160 -4 -73 -1
-94 19 -143 27 -68 78 -143 103 -152 31 -11 92 -58 92 -70 0 -7 9 -13 20 -13
30 0 15 -21 -41 -60 -29 -19 -63 -45 -78 -57 -14 -13 -29 -23 -33 -23 -4 0 -9
-8 -12 -17 -2 -10 -8 -29 -11 -43 -4 -14 -4 -22 0 -18 3 3 16 -2 28 -13 41
-36 53 -45 90 -68 20 -12 37 -24 37 -26 0 -1 -32 -3 -72 -4 -39 0 -73 -2 -75
-4 -8 -9 -5 -380 5 -433 18 -104 87 -193 171 -222 19 -7 80 -12 136 -12 92 0
108 3 157 28 l55 27 31 -30 c18 -16 32 -35 32 -42 0 -6 5 -15 12 -19 7 -5 8
-2 3 7 -4 8 5 3 21 -11 99 -87 129 -116 126 -123 -1 -5 1 -6 6 -3 8 5 74 -52
206 -177 23 -22 40 -46 38 -55 -2 -13 -1 -14 6 -4 6 9 18 3 44 -25 19 -21 52
-53 73 -72 29 -26 34 -36 24 -43 -10 -7 -8 -8 7 -4 15 5 30 -4 56 -31 19 -21
82 -81 139 -133 207 -189 220 -203 207 -212 -10 -7 -9 -8 2 -6 26 5 70 -37 65
-61 -2 -12 0 -19 6 -16 5 4 6 12 2 18 -7 12 10 -1 81 -63 149 -130 271 -248
271 -263 1 -7 6 -11 12 -10 7 2 28 -15 48 -36 41 -42 58 -46 80 -14 15 21 13
24 -214 228 -31 27 -77 71 -103 97 l-48 47 1 275 c0 165 4 274 10 270 5 -3 9
0 9 5 0 6 -4 11 -10 11 -5 0 -9 17 -9 38 1 37 1 37 9 7 l8 -30 1 27 c0 15 -4
30 -9 33 -14 8 -10 108 4 117 8 5 7 8 -1 8 -10 0 -13 38 -13 154 0 114 3 156
13 159 10 4 10 6 0 6 -7 1 -13 6 -13 12 0 5 5 7 10 4 6 -3 10 -1 10 4 0 6 -4
11 -10 11 -5 0 -10 12 -10 26 0 14 4 23 8 20 4 -2 9 5 9 17 2 16 0 18 -7 8 -5
-9 -9 55 -9 158 0 133 2 170 12 165 9 -5 9 -4 0 7 -15 16 -17 43 -3 34 6 -3
10 1 10 9 0 9 -3 16 -7 16 -5 0 -9 14 -10 30 -1 18 2 28 7 25 6 -4 10 -1 10 4
0 6 -4 11 -10 11 -5 0 -10 5 -10 11 0 5 5 7 10 4 6 -3 10 -1 10 4 0 6 -4 11
-10 11 -5 0 -10 12 -10 26 0 17 4 23 13 18 10 -6 10 -4 0 7 -16 16 -17 33 -2
23 8 -5 8 -1 0 13 -7 14 -7 23 2 32 9 9 9 14 -2 20 -11 7 -11 9 0 14 10 4 10
6 2 6 -8 1 -13 15 -12 39 0 30 2 33 9 17 8 -19 9 -19 9 3 1 12 -3 22 -9 22 -5
0 -10 10 -10 23 0 18 2 19 10 7 8 -13 10 -13 10 2 0 9 -4 19 -8 22 -5 3 -9 19
-10 36 0 17 4 28 9 25 5 -4 9 5 9 19 0 14 -4 26 -10 26 -6 0 -10 28 -10 65 0
37 4 65 10 65 6 0 10 5 10 11 0 5 -4 8 -8 5 -5 -3 -9 45 -10 107 -1 73 2 105
8 92 7 -17 9 -14 9 16 1 19 -5 41 -11 48 -10 11 -10 14 -1 18 9 3 10 10 4 21
-4 9 -9 49 -9 87 0 50 2 63 8 45 7 -21 8 -19 9 18 1 26 -3 41 -9 37 -6 -4 -10
6 -10 22 0 22 2 25 10 13 8 -13 10 -12 10 3 0 9 -4 17 -9 17 -5 0 -9 50 -9
110 0 61 4 110 9 110 5 0 9 7 9 15 0 8 -4 15 -10 15 -5 0 -10 14 -10 30 0 17
4 30 8 30 5 0 9 7 9 15 0 8 -4 12 -9 9 -4 -3 -8 10 -8 28 0 25 3 29 10 18 7
-12 10 -8 10 15 0 23 -3 27 -10 15 -7 -11 -10 -4 -10 25 0 29 3 36 10 25 7
-11 10 -7 10 18 0 17 -4 32 -10 32 -5 0 -10 10 -9 23 0 21 1 21 9 2 8 -18 9
-17 9 8 1 15 -3 27 -7 27 -12 0 -10 44 2 52 7 5 6 18 -2 41 -15 41 -15 60 -2
52 6 -3 10 -1 10 4 0 6 -4 11 -8 11 -5 0 -10 33 -11 73 -1 51 2 68 9 57 8 -12
10 -11 10 8 0 13 -4 20 -10 17 -6 -4 -10 10 -10 35 0 30 3 39 13 34 9 -6 9 -5
0 7 -8 9 -9 20 -3 29 6 8 10 20 10 25 0 6 -5 3 -10 -5 -8 -12 -10 -10 -10 8 0
16 4 21 13 16 10 -6 10 -4 0 7 -16 16 -18 73 -2 63 7 -4 7 1 -1 15 -9 18 -9
26 2 39 9 11 10 14 1 8 -9 -5 -13 -1 -13 13 0 10 6 22 13 24 10 4 10 6 0 6 -7
1 -13 12 -13 25 0 13 6 26 13 29 8 3 9 8 2 18 -15 20 -20 73 -6 65 6 -4 11 -2
11 3 0 6 -4 11 -8 11 -5 0 -9 16 -10 35 -1 21 3 33 8 30 6 -3 10 -2 10 4 0 5
-4 13 -10 16 -5 3 -10 22 -10 41 0 26 3 33 13 28 9 -6 9 -4 -1 8 -9 12 -13 74
-13 244 0 221 -4 354 -11 358 -2 1 -12 0 -22 -2z m-33 -279 l-2 -197 -47 -18
c-25 -10 -53 -20 -62 -21 -10 -1 -21 -5 -27 -9 -13 -8 -91 -29 -130 -35 -16
-3 -32 -8 -35 -12 -13 -18 -81 -28 -127 -19 -26 5 -64 11 -83 13 -19 2 -60 11
-90 20 -30 9 -66 18 -80 20 -61 10 -159 40 -152 47 8 8 242 124 437 217 61 29
119 58 130 64 42 23 115 57 127 59 7 2 15 6 18 10 5 7 111 58 120 58 3 0 4
-89 3 -197z m-698 -314 c88 -21 167 -42 175 -46 8 -3 28 -7 44 -8 16 -2 32 -9
37 -16 12 -19 9 -979 -2 -979 -6 0 -9 6 -8 13 4 31 -2 100 -8 93 -9 -9 -10
-296 0 -296 4 0 7 41 7 91 0 59 4 88 10 84 7 -4 9 -379 7 -1153 l-3 -1147
-232 0 -232 0 0 1709 0 1708 23 -6 c12 -4 94 -25 182 -47z m697 -3659 c-2 -2
-7 2 -12 10 -6 8 -10 11 -10 6 0 -5 -24 11 -52 36 -29 24 -77 61 -105 83 -29
21 -53 42 -53 46 0 4 -8 10 -17 13 -10 4 -44 30 -75 59 l-58 52 0 1647 0 1646
43 10 c23 5 107 30 187 54 l145 44 5 -1850 c3 -1018 4 -1853 2 -1856z m-1595
1783 c34 -24 65 -53 68 -64 4 -10 10 -19 14 -19 14 0 32 -54 27 -80 -2 -14 -5
-37 -5 -51 -1 -16 -14 -39 -33 -58 -30 -30 -32 -30 -51 -13 -10 9 -21 16 -24
14 -9 -6 -55 44 -75 83 -22 42 -36 170 -24 219 8 31 19 28 103 -31z m399 -209
c-3 -8 -1 -14 4 -14 6 0 10 6 10 14 0 14 34 28 44 18 16 -15 4 -106 -19 -151
-23 -46 -102 -127 -113 -116 -8 7 -52 -36 -52 -50 0 -6 43 -40 95 -74 l96 -62
-22 -30 c-17 -24 -24 -28 -31 -17 -8 10 -9 9 -5 -4 12 -35 -24 -48 -130 -48
-56 0 -108 3 -116 6 -14 5 -14 23 0 64 3 8 5 65 5 125 -1 130 3 152 25 133 12
-10 17 -9 25 5 5 10 13 15 19 12 5 -4 9 1 9 10 0 9 -4 13 -10 10 -14 -9 -13 4
6 58 18 52 93 125 115 111 7 -4 9 -3 5 4 -3 6 2 12 11 14 24 6 35 -1 29 -18z
m-293 -314 c-3 -11 -10 -17 -16 -13 -6 3 -3 -4 6 -18 19 -27 22 -43 6 -33 -8
5 -8 1 0 -14 13 -25 14 -62 2 -62 -5 0 -11 -7 -13 -15 -2 -11 -19 -4 -65 28
-35 23 -63 45 -63 49 0 3 15 15 33 27 18 11 43 31 56 45 30 32 62 35 54 6z
m359 -290 c9 -21 10 -330 1 -330 -5 0 -9 -18 -9 -39 -3 -58 -49 -123 -111
-155 -59 -30 -215 -34 -197 -5 4 8 1 8 -12 1 -14 -7 -29 -6 -51 3 -34 15 -93
71 -93 90 0 7 -6 25 -14 41 -15 28 -18 99 -17 319 l1 90 248 0 c210 0 248 -2
254 -15z m928 -888 l195 -158 5 -247 5 -246 -25 16 c-14 9 -43 35 -66 57 -22
23 -85 82 -139 131 -177 161 -254 238 -249 247 3 4 -2 8 -11 8 -9 0 -60 42
-113 93 -187 180 -252 244 -252 251 0 3 102 6 228 6 l227 -1 195 -157z"/>
<path d="M5086 6577 c-26 -26 -61 -127 -53 -156 4 -16 -3 -21 -37 -30 -22 -5
-63 -24 -89 -41 -26 -16 -51 -30 -55 -30 -4 -1 -22 -21 -40 -46 -18 -24 -36
-43 -40 -40 -4 2 -8 -14 -9 -35 l-3 -39 118 -1 c64 -1 126 -2 137 -1 14 0 20
-6 21 -21 0 -12 4 -38 9 -57 4 -19 8 -43 9 -52 0 -9 4 -14 8 -12 5 3 11 -2 14
-10 3 -9 10 -13 15 -10 5 3 9 1 9 -5 0 -10 31 -8 49 3 19 12 41 76 41 120 l0
46 139 0 c165 0 181 7 137 65 -15 19 -25 35 -22 35 3 0 -16 20 -43 45 -50 47
-127 87 -174 91 -15 1 -30 3 -32 6 -2 2 -5 30 -7 62 -2 32 -6 60 -11 63 -4 2
-5 9 -2 14 4 5 1 9 -5 9 -6 0 -9 4 -6 9 5 8 -35 41 -49 41 -3 0 -16 -10 -29
-23z m54 -227 c-13 -9 -13 -10 0 -11 8 -1 23 0 33 1 10 1 26 -4 35 -12 13 -11
14 -11 8 1 -7 10 -3 12 15 6 49 -13 79 -28 79 -37 0 -5 4 -7 9 -4 5 3 23 -9
39 -28 17 -19 33 -32 36 -29 3 4 6 1 6 -4 0 -8 -85 -11 -277 -12 -153 0 -272
3 -265 5 6 3 12 12 12 20 0 13 12 18 33 15 4 0 6 4 5 10 -5 18 49 52 81 52 17
0 28 3 26 7 -2 4 8 8 23 8 15 1 41 6 57 11 17 5 37 10 45 10 13 1 13 0 0 -9z"/>
<path d="M7220 5082 c-28 -3 -122 -34 -130 -42 -3 -3 -22 -18 -43 -34 -21 -15
-46 -43 -54 -62 -9 -19 -19 -34 -22 -34 -3 0 -7 -22 -9 -49 -2 -28 -5 -59 -7
-70 -2 -12 0 -21 6 -21 5 0 9 -7 9 -16 0 -8 9 -37 21 -64 24 -55 48 -65 101
-42 18 8 36 14 41 14 4 -1 7 2 7 8 0 6 3 9 8 8 17 -5 92 78 112 125 23 53 36
192 20 212 -5 6 -9 15 -10 20 -6 30 -27 50 -50 47z m1 -89 c10 -27 10 -108 0
-147 -4 -20 -4 -20 -13 0 -6 15 -7 12 -4 -10 7 -55 -124 -160 -158 -126 -6 6
-11 28 -11 50 0 21 -3 34 -6 28 -12 -19 -21 31 -14 73 8 48 67 111 130 140 54
25 64 24 76 -8z"/>
<path d="M3085 4993 c-110 -20 -123 -24 -118 -41 2 -9 34 -44 70 -77 36 -33
93 -86 126 -117 l61 -57 -45 -20 c-53 -24 -149 -115 -149 -142 0 -11 -4 -19
-8 -19 -9 0 -10 -1 -16 -70 -2 -25 -14 -63 -27 -84 -18 -30 -23 -55 -23 -106
-1 -57 3 -72 27 -107 15 -22 40 -46 55 -53 31 -15 182 -29 182 -18 0 5 8 8 18
8 9 0 29 7 45 14 29 16 39 2 15 -23 -11 -10 -9 -11 6 -5 16 6 17 3 11 -25 -4
-18 -8 -52 -10 -74 -2 -23 -4 -45 -4 -49 -1 -4 -48 -6 -106 -5 l-105 2 -11
-33 c-7 -21 -10 -102 -9 -210 3 -210 3 -205 -12 -196 -8 4 -10 3 -5 -2 5 -5
14 -9 20 -9 6 0 14 -13 17 -30 9 -43 28 -75 69 -118 56 -59 110 -78 216 -78
131 1 190 23 254 96 52 59 61 113 61 351 0 117 -4 215 -8 218 -5 3 -39 6 -76
7 -71 2 -73 4 -80 54 -2 17 -9 43 -15 58 -14 36 -14 84 -1 92 8 5 7 11 -1 21
-14 17 -3 144 12 144 6 0 7 4 4 10 -3 5 3 29 14 53 21 46 34 100 23 93 -8 -5
-33 20 -26 26 2 3 -6 4 -19 3 -33 -3 -49 13 -36 36 6 13 6 19 -1 19 -5 0 -10
9 -10 20 0 11 -4 20 -10 20 -5 0 -10 6 -10 14 0 20 -86 106 -106 106 -8 0 -12
5 -9 10 4 6 9 9 13 7 6 -3 53 41 59 54 30 72 30 95 -2 142 -38 54 -94 79 -190
84 -44 2 -87 5 -95 6 -8 2 -24 1 -35 0z m188 -69 c10 -3 14 -10 10 -17 -4 -7
-1 -7 9 1 14 11 21 9 47 -16 31 -29 40 -65 21 -77 -6 -4 -8 -10 -5 -14 7 -13
-32 -44 -46 -35 -7 4 -10 3 -6 -3 4 -6 -4 -13 -18 -15 -19 -4 -33 4 -59 31
-18 20 -59 58 -90 85 -31 27 -56 53 -56 56 0 8 167 11 193 4z m47 -293 c14 -5
34 -21 45 -35 11 -14 28 -36 38 -47 25 -32 22 -50 -5 -41 -13 5 -43 6 -68 4
-25 -2 -63 -5 -85 -6 -22 -2 -57 -10 -79 -19 -21 -9 -42 -14 -48 -11 -5 3 -18
-2 -29 -12 -18 -16 -19 -16 -19 7 0 48 56 116 129 155 43 22 75 24 121 5z m71
-186 c9 6 91 -25 100 -37 9 -13 -24 -108 -41 -118 -11 -7 -11 -10 -2 -10 9 0
11 -12 8 -42 -13 -115 -3 -248 24 -297 9 -18 5 -19 -51 -17 l-61 1 2 178 c0
123 -3 177 -10 177 -6 0 -9 4 -6 9 4 5 -2 7 -13 4 -17 -4 -37 -52 -32 -76 3
-16 -49 28 -55 46 -3 10 -7 42 -9 70 -5 86 41 135 109 116 16 -5 32 -6 37 -4z
m-188 -11 c4 -4 3 -12 0 -18 -19 -30 -24 -109 -10 -150 5 -17 23 -46 39 -64
15 -18 28 -37 28 -41 0 -14 -37 -20 -50 -7 -9 8 -11 8 -8 -3 4 -16 -60 -21
-108 -9 -37 10 -87 56 -80 74 3 8 1 16 -4 19 -26 16 21 139 54 142 5 1 12 6
15 12 7 10 88 49 107 50 6 1 14 -2 17 -5z m430 -766 c-2 -185 -3 -201 -25
-245 -24 -47 -100 -111 -136 -113 -9 0 -48 -3 -86 -6 -43 -4 -72 -2 -79 5 -6
6 -21 11 -34 11 -39 0 -136 103 -116 124 4 3 2 6 -4 6 -9 0 -16 117 -17 317
l-1 92 75 3 c41 2 154 3 250 3 l175 0 -2 -197z"/>
<path d="M3641 4899 c-23 -4 -63 -20 -86 -34 -89 -52 -125 -201 -65 -268 36
-42 111 -76 157 -72 50 5 126 27 135 40 4 5 8 6 8 2 0 -5 10 -1 22 7 25 18 73
22 63 6 -3 -5 -1 -10 4 -10 6 0 11 4 11 9 0 5 9 7 20 4 14 -4 20 0 20 11 0 10
5 14 10 11 6 -3 10 3 10 14 0 12 -4 21 -8 21 -5 0 -14 22 -20 50 -6 27 -23 67
-36 88 -21 33 -37 50 -101 100 -6 5 -24 11 -40 15 -17 3 -37 8 -45 10 -8 3
-35 1 -59 -4z m104 -68 c39 -18 104 -80 110 -104 1 -7 7 -23 12 -37 11 -26 7
-50 -8 -50 -5 0 -9 7 -9 17 0 9 -3 14 -6 10 -3 -3 -22 11 -41 31 -20 20 -41
37 -47 37 -6 0 -30 7 -53 14 -28 9 -56 11 -90 5 -26 -4 -52 -8 -58 -9 -5 0
-16 -4 -22 -8 -30 -19 -9 20 31 59 60 57 112 67 181 35z m-25 -143 c24 -13 42
-27 41 -33 -1 -5 5 -12 15 -15 27 -10 -44 -39 -113 -46 -72 -8 -133 13 -133
46 0 13 -4 19 -12 14 -7 -4 -8 -3 -4 5 10 16 65 43 76 36 5 -3 11 -1 15 5 11
17 69 11 115 -12z"/>
<path d="M3675 4374 c-51 -28 -75 -56 -81 -96 -5 -31 -9 -36 -20 -27 -9 7 -14
8 -14 1 0 -5 7 -13 16 -16 9 -3 14 -12 11 -19 -5 -14 28 -95 48 -117 7 -8 14
-19 14 -23 0 -5 11 -17 25 -28 15 -11 26 -27 26 -34 0 -9 6 -12 15 -9 8 4 26
-1 38 -9 34 -22 132 -17 182 9 56 29 89 93 80 157 -6 52 -16 75 -54 122 -62
78 -218 126 -286 89z m158 -60 c18 -9 36 -23 40 -30 4 -8 14 -14 22 -14 7 0
17 -9 20 -20 3 -11 10 -20 14 -20 26 0 36 -94 16 -143 -13 -31 -110 -65 -132
-47 -2 2 -6 3 -10 4 -22 4 -73 30 -73 37 0 4 -9 11 -20 14 -11 3 -20 13 -20
21 0 8 -5 14 -11 14 -14 0 -39 63 -39 97 0 22 2 25 10 13 6 -9 10 -10 10 -3 0
6 -5 15 -11 19 -8 4 -8 9 0 17 8 8 28 -6 71 -51 59 -60 90 -78 127 -70 15 4 9
13 -32 54 -57 57 -86 92 -67 80 6 -4 12 -3 12 2 0 6 -11 13 -25 16 -14 4 -25
11 -25 16 0 16 88 11 123 -6z"/>
</g>
</svg>
