<?xml version="1.0" standalone="no"?>
<!DOCTYPE svg PUBLIC "-//W3C//DTD SVG 20010904//EN"
 "http://www.w3.org/TR/2001/REC-SVG-20010904/DTD/svg10.dtd">
<svg version="1.0" xmlns="http://www.w3.org/2000/svg"
 width="1024.000000pt" height="1024.000000pt" viewBox="0 0 1024.000000 1024.000000"
 preserveAspectRatio="xMidYMid meet">
<metadata>
Created by potrace 1.16, written by Peter Selinger 2001-2019
</metadata>
<g transform="translate(0.000000,1024.000000) scale(0.100000,-0.100000)"
fill="#000000" stroke="none">
<path d="M5020 8576 c-56 -12 -122 -42 -175 -80 -16 -11 -39 -20 -50 -19 -16
2 -17 1 -4 -5 14 -6 11 -14 -21 -50 -21 -23 -40 -39 -42 -35 -3 5 -3 2 -1 -6
2 -7 0 -19 -5 -25 -16 -21 -42 -101 -48 -148 -4 -27 -12 -48 -19 -48 -7 0 -12
-15 -12 -35 0 -25 4 -34 13 -31 7 3 15 -2 18 -10 9 -22 8 -24 -10 -24 -9 0
-12 5 -8 13 6 9 4 9 -7 1 -8 -6 -40 -14 -73 -18 -81 -9 -160 -50 -226 -115
-72 -73 -102 -124 -116 -195 -12 -58 -4 -214 12 -252 8 -20 13 -43 10 -51 -3
-8 -2 -12 3 -9 5 3 12 -1 15 -10 5 -13 1 -15 -23 -12 -17 2 -28 1 -25 -4 3 -4
-2 -8 -11 -8 -23 0 -122 -57 -163 -94 -19 -17 -39 -30 -44 -28 -5 1 -7 -1 -4
-6 3 -5 -8 -28 -25 -53 -53 -80 -62 -137 -56 -343 0 -22 3 -34 5 -27 4 11 40
-56 45 -83 1 -5 10 -18 20 -28 10 -10 15 -23 12 -28 -3 -5 0 -8 7 -5 7 3 19
-4 26 -16 11 -18 11 -23 1 -30 -7 -4 -17 -5 -23 -2 -5 4 -1 10 10 15 18 8 18
8 -1 5 -11 -2 -19 -8 -18 -14 2 -7 -16 -27 -39 -45 -131 -104 -178 -194 -184
-353 -5 -135 32 -221 136 -323 79 -78 179 -120 291 -125 45 -2 46 -3 37 -26
-27 -72 -28 -215 -3 -292 13 -37 14 -53 5 -69 -13 -25 -6 -40 19 -35 23 4 57
-41 55 -72 -1 -14 4 -23 13 -23 8 0 11 -4 8 -10 -3 -6 4 -10 17 -10 19 0 20 2
8 11 -12 9 -12 10 3 5 10 -3 21 -6 23 -6 2 0 4 -9 4 -19 0 -11 4 -23 10 -26 6
-4 7 1 3 11 -5 14 -3 15 16 5 12 -7 18 -17 15 -23 -4 -7 -3 -8 4 -4 6 3 38 -3
71 -14 107 -36 247 -25 356 29 34 17 42 18 54 6 12 -12 12 -16 0 -32 -12 -16
-12 -17 2 -6 13 11 18 9 28 -13 6 -14 8 -30 5 -36 -5 -7 -2 -8 6 -3 10 6 12 4
7 -9 -4 -9 -3 -15 2 -12 11 7 38 -88 50 -180 9 -62 15 -911 11 -1449 l-2 -180
-20 65 c-11 36 -34 110 -51 165 -16 55 -48 145 -69 200 -21 54 -36 108 -33
120 3 11 2 13 -2 6 -4 -10 -14 3 -29 38 -13 29 -21 58 -17 65 3 6 3 8 -2 4
-11 -10 -87 140 -79 154 4 6 3 8 -3 5 -11 -7 -100 139 -95 157 2 6 0 8 -3 4
-8 -8 -161 192 -157 204 1 5 -1 7 -6 6 -10 -3 -188 174 -184 185 1 4 -2 6 -7
3 -5 -3 -26 8 -47 25 -44 35 -55 46 -35 34 10 -5 12 -4 7 4 -4 6 -11 9 -15 7
-11 -7 -62 29 -54 39 5 4 3 6 -2 3 -6 -4 -35 9 -65 27 -90 55 -221 121 -290
146 -57 21 -62 24 -40 31 15 4 8 5 -18 2 -23 -3 -48 -2 -55 3 -32 24 -276 67
-309 54 -28 -10 -46 -65 -28 -86 6 -8 5 -16 -3 -25 -9 -10 -9 -11 0 -6 14 8
47 -60 38 -81 -2 -8 2 -16 10 -19 17 -7 39 -69 29 -85 -4 -7 -3 -9 3 -6 5 3
19 -16 30 -44 12 -27 17 -49 11 -49 -5 0 -3 -7 5 -15 21 -20 40 -82 31 -96 -4
-7 -3 -9 3 -6 13 8 57 -94 45 -102 -5 -3 -9 -21 -9 -38 0 -25 5 -33 19 -33 19
0 24 15 8 25 -5 3 -10 14 -10 23 0 9 16 -12 35 -48 26 -48 34 -72 29 -92 -3
-17 -1 -28 5 -28 6 0 8 8 4 18 -4 11 0 10 11 -6 10 -12 14 -28 10 -35 -4 -6
-3 -9 1 -5 5 5 21 -15 37 -43 24 -41 27 -53 17 -65 -8 -10 -9 -18 -2 -25 8 -8
13 -7 18 2 6 8 4 10 -5 4 -8 -5 -11 -3 -9 4 3 7 7 13 11 14 10 3 137 -190 130
-199 -4 -4 -1 -4 6 0 6 4 12 4 12 -1 0 -4 23 -34 50 -66 28 -32 47 -63 44 -68
-3 -5 -2 -8 3 -7 16 5 65 -41 57 -53 -4 -7 -3 -9 3 -6 14 9 135 -102 127 -115
-4 -6 -2 -8 4 -4 6 3 23 -5 39 -19 22 -20 24 -24 8 -19 -15 4 -17 4 -6 -4 8
-6 19 -8 25 -6 6 2 25 -8 41 -22 17 -15 22 -24 13 -20 -10 3 -18 0 -18 -5 0
-7 9 -9 22 -6 14 4 28 -1 43 -16 12 -12 27 -23 34 -25 24 -5 81 -49 73 -56 -4
-4 -2 -7 3 -6 19 4 30 0 55 -21 14 -11 19 -18 13 -14 -9 4 -11 1 -7 -9 3 -9
13 -16 21 -16 8 0 11 5 7 12 -8 13 -8 13 89 -50 40 -25 65 -48 61 -54 -4 -6
-3 -8 3 -5 14 9 85 -42 77 -55 -5 -7 -2 -8 5 -4 8 5 40 -21 90 -72 58 -59 88
-101 119 -164 43 -85 49 -104 33 -94 -5 3 -12 -1 -15 -10 -10 -25 -7 -34 9
-34 18 0 20 16 3 23 -8 4 -7 6 4 6 11 1 19 -13 28 -49 6 -27 9 -53 6 -59 -3
-5 0 -11 6 -13 10 -4 14 -114 16 -504 2 -500 4 -576 11 -568 6 5 61 -36 61
-46 0 -5 -7 -7 -15 -4 -8 4 -15 2 -15 -4 0 -6 8 -9 18 -8 9 2 17 9 17 17 0 8
8 17 17 21 42 17 48 45 53 279 3 123 8 239 10 257 3 17 7 44 9 60 3 15 19 72
36 127 17 55 32 105 33 111 8 34 140 284 147 279 6 -3 8 0 5 7 -3 7 13 42 36
76 31 48 44 60 51 50 7 -9 8 -7 4 7 -4 15 16 48 76 125 45 58 102 128 129 155
26 28 59 65 74 83 15 17 32 29 37 25 6 -3 8 -2 5 4 -3 5 31 50 76 99 45 49
104 115 131 147 27 31 53 54 59 50 5 -3 7 -1 4 4 -4 6 10 32 30 59 21 27 41
54 45 59 4 6 22 28 40 50 53 63 88 113 88 124 0 6 5 11 10 11 6 0 10 6 10 13
0 18 35 49 44 40 4 -4 4 0 1 8 -3 9 13 46 39 88 48 78 63 98 52 66 -4 -11 -3
-16 1 -11 4 4 8 15 8 24 0 10 37 91 82 182 45 91 96 201 113 245 18 44 35 85
40 90 4 6 11 26 15 45 4 19 11 40 15 45 10 14 101 315 114 380 3 11 14 61 26
110 29 119 31 154 7 178 -31 31 -74 16 -218 -79 -124 -82 -277 -192 -307 -221
-7 -7 -20 -10 -30 -7 -12 4 -13 3 -4 -3 10 -7 4 -17 -24 -41 -20 -17 -41 -29
-47 -25 -5 3 -7 1 -3 -5 3 -6 -2 -17 -13 -24 -45 -32 -219 -200 -293 -283
-128 -144 -149 -165 -157 -161 -11 7 -36 -12 -28 -21 5 -4 13 -1 18 7 6 8 9
11 7 5 -8 -27 -64 -94 -75 -90 -7 2 -10 -2 -7 -10 3 -7 -4 -23 -15 -34 -12
-12 -21 -24 -21 -27 0 -3 -12 -21 -27 -40 -20 -27 -28 -32 -36 -22 -6 10 -7 8
-3 -4 8 -27 -49 -123 -67 -111 -5 3 -7 1 -4 -4 4 -6 -9 -40 -29 -75 -20 -34
-65 -120 -99 -190 -34 -70 -65 -125 -68 -122 -3 3 -5 -1 -4 -8 1 -34 -4 -49
-15 -42 -6 4 -8 3 -5 -3 8 -12 -11 -73 -22 -73 -4 0 -8 -6 -8 -12 0 -25 -57
-187 -64 -182 -4 2 -5 -4 -2 -15 3 -10 0 -22 -6 -25 -5 -4 -8 -13 -5 -20 3 -8
1 -17 -5 -21 -15 -9 -15 1375 0 1500 5 50 19 123 30 163 19 72 70 185 88 196
5 3 31 -5 58 -18 64 -33 123 -45 208 -46 117 0 209 38 297 122 94 91 131 179
131 308 -1 81 -14 150 -33 175 -5 6 14 11 54 12 34 1 84 9 109 18 26 9 51 13
56 10 14 -8 41 6 41 21 0 8 4 14 9 14 5 0 31 20 59 45 27 24 53 41 56 37 4 -4
7 -2 5 3 -3 15 12 46 21 40 4 -3 7 1 7 8 -1 6 9 34 22 61 57 120 51 275 -15
394 -29 53 -33 67 -22 81 10 13 10 14 -1 4 -11 -9 -24 -3 -62 29 -27 22 -46
45 -42 51 3 6 1 7 -4 4 -6 -4 -29 1 -52 11 l-41 19 23 21 c76 71 125 200 116
307 -1 22 -3 59 -3 82 -1 22 -4 40 -7 38 -3 -2 -11 13 -19 33 -25 72 -85 150
-146 190 -41 26 -128 64 -161 69 -19 3 -30 9 -25 12 20 13 49 138 51 217 2 68
-3 94 -26 155 -50 129 -189 249 -306 264 -29 3 -62 11 -74 17 -16 8 -26 8 -35
0 -10 -8 -13 6 -11 75 1 59 -4 101 -17 137 -20 58 -76 150 -111 183 -48 43
-142 92 -209 107 -80 19 -124 19 -200 2z m167 -132 c14 -4 20 -11 16 -22 -4
-10 -2 -13 5 -8 7 4 12 2 12 -5 0 -9 3 -9 14 0 21 18 56 -3 51 -29 -2 -12 0
-18 6 -15 5 4 7 11 4 16 -14 21 14 6 43 -24 23 -24 31 -39 26 -53 -5 -15 -4
-16 5 -4 8 12 15 5 33 -35 32 -70 32 -191 0 -253 -13 -23 -27 -40 -32 -37 -5
3 -7 0 -5 -7 7 -18 -49 -70 -105 -100 -38 -19 -60 -23 -140 -23 -79 0 -102 4
-137 23 -54 28 -115 81 -107 93 3 5 1 9 -5 9 -20 0 -53 83 -60 154 -8 73 -2
100 36 171 34 63 113 130 145 122 7 -2 9 -1 3 1 -5 3 6 11 25 18 37 13 130 18
167 8z m-466 -547 c1 -18 2 -19 6 -4 4 15 8 14 26 -10 12 -15 21 -31 20 -35
-2 -5 2 -8 8 -8 6 0 26 -15 46 -33 23 -22 30 -34 19 -34 -8 0 -13 3 -11 7 2 3
-5 11 -16 18 -17 11 -19 9 -19 -12 0 -23 3 -25 38 -21 29 3 49 -3 83 -25 38
-23 47 -35 52 -67 4 -21 3 -39 -2 -41 -5 -2 -6 -22 -4 -46 4 -29 1 -47 -9 -57
-8 -8 -13 -19 -11 -25 7 -20 -53 -89 -112 -129 -57 -40 -58 -40 -154 -40 -115
0 -167 21 -242 97 -57 58 -81 121 -81 216 -1 163 127 282 295 274 61 -3 67 -6
68 -25z m939 18 c67 -14 146 -67 133 -88 -3 -6 -1 -7 5 -3 21 13 70 -81 79
-152 6 -49 -15 -164 -28 -156 -5 3 -7 -1 -4 -8 3 -7 -9 -30 -26 -51 -27 -32
-33 -36 -48 -25 -14 11 -14 11 -4 -2 16 -22 7 -33 -57 -66 -49 -26 -65 -29
-145 -29 -104 0 -149 18 -215 86 -54 56 -75 116 -75 214 0 71 2 80 18 79 10
-1 16 1 13 4 -3 3 16 20 42 38 26 17 74 60 106 95 32 35 67 67 79 70 27 7 80
5 127 -6z m-455 -605 c18 -8 18 -9 2 -9 -10 -1 -15 -6 -12 -11 4 -6 24 -10 46
-8 23 1 44 -4 52 -12 9 -10 9 -11 0 -6 -9 5 -11 2 -6 -9 4 -13 7 -14 14 -4 6
11 15 7 37 -14 70 -67 109 -192 89 -285 -11 -55 -45 -114 -60 -105 -6 3 -7 1
-3 -6 10 -15 -60 -85 -75 -75 -7 4 -9 3 -6 -3 3 -5 -13 -19 -36 -30 -67 -31
-194 -26 -270 12 -62 31 -122 89 -111 107 4 7 2 8 -5 4 -7 -5 -19 9 -33 41
-30 67 -29 169 2 241 27 63 111 144 172 165 47 17 171 21 203 7z m754 -34 c66
-15 158 -77 144 -99 -4 -6 -1 -7 7 -2 17 11 31 -15 19 -37 -6 -11 -6 -18 0
-18 5 0 11 5 13 12 8 22 38 -61 44 -119 19 -177 -112 -324 -291 -327 -79 -1
-129 9 -119 25 3 6 0 10 -7 8 -35 -4 -52 4 -97 50 -73 73 -87 109 -87 216 0
77 3 96 24 130 46 77 116 135 143 119 6 -4 8 -3 5 3 -7 11 20 24 83 42 33 10
64 9 119 -3z m-1514 -17 c67 -23 119 -58 155 -103 13 -17 17 -25 7 -17 -11 9
-17 10 -17 2 0 -6 11 -16 24 -21 25 -9 40 -47 30 -77 -5 -15 -4 -15 5 -3 8 11
11 -3 11 -57 0 -86 -24 -150 -78 -206 -77 -80 -181 -111 -293 -87 -65 14 -144
63 -133 82 4 6 3 8 -3 5 -15 -9 -49 31 -75 88 -32 69 -31 191 1 253 71 138
217 194 366 141z m399 -601 c-3 -4 3 -5 12 -1 12 4 15 3 10 -5 -5 -8 -2 -10 8
-6 9 3 16 1 16 -5 0 -6 -5 -11 -11 -11 -19 0 -90 -64 -124 -112 -69 -95 -99
-246 -72 -354 9 -32 19 -67 22 -77 6 -15 2 -17 -29 -15 -20 1 -36 6 -36 11 0
5 -7 4 -16 -3 -11 -10 -10 -1 7 41 16 41 21 75 21 141 0 48 4 85 9 82 11 -6
10 14 -1 41 -8 18 -9 18 -10 -5 -1 -18 -7 -10 -21 30 -19 55 -77 150 -91 150
-18 0 -6 29 15 36 25 8 124 82 149 112 9 11 22 30 28 42 12 22 13 21 66 -31
29 -29 51 -56 48 -61z m691 69 c16 -23 28 -46 27 -50 -1 -5 1 -6 6 -3 12 7 53
-40 44 -50 -4 -4 -2 -4 5 0 15 8 76 -28 65 -39 -4 -5 -2 -5 5 -2 6 4 19 4 28
1 14 -6 13 -8 -5 -21 -46 -33 -120 -174 -120 -231 0 -23 -2 -24 -14 -12 -20
21 -34 76 -16 65 9 -6 11 -4 6 4 -5 7 -10 10 -13 7 -3 -3 -18 20 -33 52 -24
51 -135 189 -149 186 -3 -1 -12 1 -19 3 -7 3 5 17 30 33 24 15 59 44 77 64 19
20 37 36 40 36 4 -1 19 -20 36 -43z m-1217 -182 c20 -7 36 -18 35 -24 -2 -6 1
-11 7 -11 5 0 7 -7 4 -15 -4 -10 0 -15 15 -15 12 0 21 4 21 10 0 5 -6 7 -13 4
-8 -3 -14 2 -14 11 0 23 9 19 55 -27 31 -31 41 -47 36 -62 -4 -17 -3 -18 5 -6
8 12 13 7 26 -23 20 -48 32 -167 17 -167 -6 0 -12 6 -15 13 -2 6 -4 -1 -4 -17
0 -19 2 -24 8 -15 20 31 8 -28 -15 -78 -19 -40 -29 -51 -44 -48 -11 2 -19 -2
-19 -11 0 -10 4 -11 14 -3 9 8 13 8 13 0 0 -14 -80 -72 -90 -66 -4 3 -10 -1
-13 -9 -3 -8 -31 -20 -62 -26 -136 -28 -271 34 -332 155 -42 81 -47 208 -12
277 27 54 106 131 125 124 8 -3 13 -2 10 3 -6 9 25 26 74 40 41 11 116 5 168
-14z m886 6 c7 -6 16 -8 19 -5 3 4 25 -5 49 -19 158 -93 203 -287 101 -439
-46 -69 -95 -104 -174 -124 -149 -38 -280 14 -354 140 -46 79 -51 195 -12 280
15 31 31 55 37 51 5 -3 7 0 4 9 -7 19 93 99 115 91 8 -3 12 -2 7 2 -27 27 176
41 208 14z m915 -7 c30 -8 64 -26 77 -39 12 -12 25 -21 27 -19 2 2 12 -5 22
-16 15 -17 16 -22 4 -37 -13 -15 -12 -16 9 -11 24 7 36 -8 54 -66 18 -58 20
-98 8 -161 -14 -75 -43 -127 -65 -119 -8 4 -15 1 -15 -6 0 -6 5 -8 10 -5 24
15 7 -12 -23 -36 -47 -38 -105 -66 -155 -74 -53 -9 -145 3 -135 17 3 7 1 8 -6
4 -16 -10 -53 3 -45 16 4 7 2 8 -5 4 -20 -13 -98 60 -127 120 -36 74 -44 183
-19 252 18 49 82 125 97 116 5 -3 7 0 6 8 -2 7 5 12 14 12 10 -1 15 2 12 7 -6
10 33 28 86 39 59 13 114 11 169 -6z m-417 -627 c20 -9 57 -34 82 -57 58 -54
109 -155 74 -147 -6 1 -14 -6 -16 -15 -2 -13 3 -18 17 -18 18 0 21 -6 21 -49
0 -53 -16 -111 -32 -111 -5 0 -6 -4 -3 -10 11 -18 -53 -97 -104 -128 -27 -17
-73 -35 -103 -40 -65 -11 -157 -4 -137 10 10 7 7 7 -9 3 -15 -4 -37 2 -65 18
-127 75 -182 228 -134 372 19 57 73 129 89 119 6 -4 8 -2 4 4 -10 16 60 54
123 67 62 12 137 5 193 -18z m-941 8 c42 -15 45 -17 41 -48 -3 -30 -2 -33 25
-31 41 1 45 3 38 14 -5 8 -11 7 -21 -1 -8 -6 -14 -10 -15 -8 0 2 -2 15 -3 28
-3 23 -2 23 11 5 8 -10 17 -18 21 -18 23 4 34 -11 28 -40 -6 -27 -5 -29 7 -12
13 17 14 17 20 2 4 -9 3 -15 -2 -12 -5 4 -7 -3 -4 -14 3 -11 10 -23 16 -27 7
-4 8 1 3 13 -6 17 -6 18 9 3 9 -8 21 -45 27 -80 8 -53 7 -76 -6 -129 -21 -81
-51 -130 -79 -130 -15 0 -18 -3 -9 -8 17 -12 -20 -45 -83 -74 -39 -17 -67 -22
-127 -21 -163 1 -272 96 -298 258 -10 64 3 144 26 158 7 4 11 14 8 21 -7 18
45 78 59 69 6 -3 7 -2 4 4 -9 14 30 48 83 72 56 24 158 27 221 6z m333 -133
c-5 -14 -4 -15 5 -2 9 13 12 12 26 -5 14 -17 16 -18 11 -2 -3 10 -2 15 3 12 6
-3 15 3 21 12 8 14 9 9 4 -22 -4 -22 -11 -50 -15 -63 -5 -13 -10 -51 -11 -85
l-2 -62 -3 53 c-2 28 -8 52 -12 52 -13 0 0 -154 14 -168 4 -4 6 0 5 8 -7 46 3
48 15 3 8 -29 24 -71 35 -93 11 -21 20 -46 20 -54 0 -8 -18 -52 -40 -97 -22
-46 -40 -90 -41 -98 0 -9 -11 9 -25 39 -14 30 -36 78 -51 106 l-26 51 33 79
c32 74 34 86 34 194 0 87 -4 123 -16 147 -16 32 -16 32 2 23 12 -7 17 -17 14
-28z m1633 -624 c-26 -110 -44 -172 -83 -295 -49 -156 -69 -202 -77 -181 -3 7
-4 0 -2 -16 2 -26 -15 -73 -70 -191 -128 -275 -343 -627 -377 -617 -5 1 -7 -2
-3 -8 8 -13 -55 -91 -68 -83 -6 3 -7 1 -3 -6 6 -9 -47 -85 -84 -121 -3 -3 -34
-39 -70 -80 -36 -41 -76 -87 -90 -101 -14 -15 -42 -45 -64 -68 -21 -22 -45
-41 -53 -41 -8 0 -11 -5 -8 -10 3 -6 -24 -45 -60 -88 -124 -143 -135 -157
-181 -222 -26 -36 -53 -71 -62 -77 -9 -7 -13 -13 -9 -13 4 0 0 -11 -9 -25 -9
-14 -21 -22 -27 -18 -6 3 -7 1 -3 -5 9 -14 -12 -55 -24 -47 -5 3 -11 1 -15 -5
-3 -5 -2 -10 4 -10 7 0 7 -8 -1 -25 -6 -13 -15 -22 -20 -19 -5 3 -7 1 -6 -3 3
-9 -73 -177 -76 -171 -1 2 0 44 2 93 4 61 8 82 13 65 6 -23 7 -23 8 -3 1 12
-3 24 -8 28 -6 3 -8 13 -7 23 2 9 7 44 11 76 24 203 207 738 342 1001 64 125
114 206 123 200 6 -3 7 0 5 7 -8 21 132 214 153 210 13 -2 14 -1 3 6 -11 8 -7
19 22 57 55 72 129 150 139 147 5 -1 6 2 3 8 -8 13 26 41 39 33 5 -4 6 -1 1 6
-9 15 43 73 58 64 6 -3 7 -2 4 4 -8 13 176 194 301 296 19 15 39 24 44 21 7
-4 8 -2 4 4 -6 10 258 222 278 222 4 0 6 -10 3 -22z m-3002 -295 c73 -29 135
-61 128 -65 -5 -3 -2 -3 5 -1 16 3 72 -24 71 -35 -3 -21 3 -32 18 -32 15 0 14
2 -3 15 -35 26 -2 16 50 -16 50 -31 206 -148 206 -155 0 -2 -7 -1 -15 2 -10 4
-13 2 -10 -8 4 -9 16 -14 29 -13 18 2 43 -17 102 -78 44 -44 72 -75 63 -69 -9
7 -19 9 -22 6 -10 -11 3 -24 23 -24 28 0 132 -138 124 -164 -3 -14 -2 -17 4
-8 6 10 15 3 34 -25 35 -53 52 -86 40 -79 -6 4 -8 -2 -5 -14 3 -11 9 -23 14
-26 5 -3 6 3 2 13 -12 34 14 -1 45 -61 24 -45 29 -64 21 -78 -7 -13 -6 -18 3
-18 10 0 10 -2 0 -9 -11 -6 -9 -9 6 -13 16 -4 19 -2 16 11 -3 9 6 -4 18 -29
13 -25 26 -47 29 -50 4 -3 5 -18 4 -35 -2 -16 -1 -24 2 -16 4 9 13 -2 24 -30
20 -50 24 -73 9 -64 -6 4 -7 -1 -3 -11 4 -11 8 -13 11 -6 2 7 8 9 13 6 6 -3 5
-12 -3 -22 -8 -9 -8 -13 -1 -9 7 5 17 -10 27 -40 19 -56 19 -56 4 -47 -8 5 -9
2 -5 -10 4 -10 7 -25 8 -34 1 -10 4 -7 8 7 5 20 12 7 38 -70 18 -52 37 -115
42 -140 6 -25 14 -54 18 -65 4 -12 -11 -3 -43 24 -27 24 -49 49 -49 55 0 5 -7
11 -16 12 -28 4 -189 117 -182 128 3 6 1 7 -5 3 -16 -10 -54 12 -46 26 5 7 2
8 -5 3 -16 -9 -231 133 -231 153 0 7 -4 11 -9 7 -37 -22 -457 421 -435 457 4
6 2 8 -4 4 -31 -19 -234 393 -328 668 -25 74 -25 87 3 65 9 -8 14 -9 10 -3 -9
16 19 25 50 18 19 -5 24 -4 18 6 -9 14 14 9 80 -17z"/>
</g>
</svg>
