<?xml version="1.0" standalone="no"?>
<!DOCTYPE svg PUBLIC "-//W3C//DTD SVG 20010904//EN"
 "http://www.w3.org/TR/2001/REC-SVG-20010904/DTD/svg10.dtd">
<svg version="1.0" xmlns="http://www.w3.org/2000/svg"
 width="1024.000000pt" height="1024.000000pt" viewBox="0 0 1024.000000 1024.000000"
 preserveAspectRatio="xMidYMid meet">
<metadata>
Created by potrace 1.16, written by Peter Selinger 2001-2019
</metadata>
<g transform="translate(0.000000,1024.000000) scale(0.100000,-0.100000)"
fill="#000000" stroke="none">
<path d="M8510 7844 c-14 -9 -56 -61 -94 -115 -37 -54 -72 -97 -76 -94 -3 2
-7 -1 -7 -8 0 -21 -74 -117 -85 -110 -6 3 -8 2 -5 -4 8 -13 -60 -109 -74 -105
-6 1 -8 -1 -5 -6 8 -13 -54 -93 -66 -85 -7 3 -8 1 -4 -5 9 -14 -114 -183 -127
-175 -6 3 -7 1 -4 -5 4 -5 -48 -84 -114 -174 -67 -89 -164 -220 -216 -291 -55
-73 -99 -124 -105 -121 -7 4 -8 2 -4 -4 7 -12 -90 -149 -103 -145 -4 1 -8 -4
-8 -11 0 -20 -103 -167 -113 -161 -6 4 -7 -1 -3 -11 5 -13 3 -15 -7 -9 -9 5
-11 4 -6 -3 9 -15 -18 -55 -29 -44 -5 4 -5 2 -1 -5 9 -15 -33 -85 -47 -76 -5
3 -7 1 -4 -4 7 -12 -116 -285 -193 -431 -66 -123 -100 -173 -113 -165 -6 3 -7
1 -3 -6 9 -14 -71 -117 -88 -113 -6 2 -7 0 -3 -4 12 -12 -143 -163 -161 -156
-10 3 -13 1 -9 -6 8 -11 -75 -85 -89 -80 -5 1 -21 -9 -36 -23 -34 -32 -192
-115 -313 -164 -49 -20 -99 -40 -110 -45 -71 -33 -468 -169 -477 -164 -6 4 -8
3 -5 -3 3 -5 -42 -26 -101 -47 -133 -48 -339 -135 -505 -215 -197 -95 -211
-93 -204 29 4 57 11 80 34 118 17 26 35 46 42 44 7 -1 10 2 7 7 -17 26 246
192 276 175 7 -4 10 -3 5 1 -9 11 292 167 306 158 5 -3 7 -1 4 4 -4 6 19 28
51 48 114 76 225 207 322 380 28 52 59 137 43 121 -3 -3 -14 5 -24 18 -27 34
-59 38 -125 16 -57 -20 -130 -38 -329 -80 -121 -26 -267 -72 -353 -110 -34
-16 -70 -27 -80 -24 -12 4 -13 3 -4 -3 9 -7 2 -14 -23 -26 -42 -20 -49 -21
-39 -5 4 7 3 8 -5 4 -6 -4 -9 -11 -7 -15 7 -11 -134 -92 -146 -85 -7 4 -8 2
-4 -4 8 -13 -28 -35 -39 -24 -5 4 -4 1 0 -7 6 -11 4 -13 -9 -8 -9 4 -15 3 -12
-2 7 -11 -162 -123 -175 -116 -5 4 -8 2 -7 -3 2 -6 -59 -53 -135 -106 -122
-84 -141 -94 -163 -86 -17 7 -23 7 -19 0 3 -6 13 -10 22 -10 14 0 14 -3 -2
-20 -22 -25 -43 -27 -24 -2 13 15 12 16 -3 3 -10 -7 -16 -17 -13 -21 8 -13
-52 -63 -67 -54 -7 4 -10 3 -5 -1 10 -11 -73 -96 -86 -88 -6 4 -7 1 -2 -6 8
-15 -93 -123 -107 -115 -5 3 -7 1 -6 -4 5 -15 -112 -133 -124 -126 -7 5 -8 2
-3 -5 9 -15 -357 -383 -376 -379 -7 2 -13 -2 -14 -9 0 -16 -67 -67 -122 -94
-50 -24 -126 -35 -168 -25 -31 8 -49 48 -41 91 7 34 191 242 209 237 7 -2 9 0
5 4 -8 7 7 27 107 139 35 39 127 144 206 235 142 164 245 267 261 263 4 -2 7
1 5 6 -1 4 23 28 53 53 82 67 389 298 395 298 4 0 3 -5 -1 -12 -4 -7 -3 -8 5
-4 6 4 9 11 6 16 -3 4 71 65 164 134 93 69 176 135 185 148 22 31 20 60 -5 92
-29 37 -70 34 -130 -9 -54 -39 -68 -44 -48 -17 13 15 12 16 -3 3 -10 -7 -16
-17 -13 -21 7 -11 -84 -76 -99 -72 -6 2 -8 0 -4 -4 4 -3 -12 -22 -35 -40 -43
-34 -64 -44 -51 -22 4 7 3 8 -5 4 -6 -4 -9 -11 -6 -16 6 -10 -70 -72 -79 -63
-3 3 -6 1 -6 -6 0 -7 -5 -9 -10 -6 -6 4 -9 2 -8 -3 3 -9 -204 -172 -218 -172
-3 0 -3 8 0 18 5 15 4 14 -9 -2 -8 -10 -12 -22 -10 -27 7 -11 -50 -50 -60 -41
-5 4 -5 2 -2 -4 8 -14 -42 -50 -62 -46 -7 2 -10 -1 -7 -6 7 -11 -107 -114
-118 -107 -3 3 -4 2 -1 -2 3 -3 -2 -15 -11 -25 -14 -15 -20 -16 -33 -5 -14 10
-14 10 -4 -4 11 -13 8 -20 -15 -42 -16 -15 -31 -25 -34 -21 -4 3 -15 1 -25 -6
-16 -10 -16 -10 5 -5 12 4 22 2 22 -2 0 -16 -56 -64 -65 -56 -4 5 -5 2 -1 -4
4 -7 -6 -26 -23 -45 -17 -18 -42 -48 -56 -65 -15 -18 -31 -32 -37 -30 -6 1
-12 -6 -13 -15 -4 -25 -107 -138 -118 -131 -6 3 -7 1 -4 -4 9 -14 -72 -105
-85 -96 -6 3 -8 1 -5 -4 8 -13 -72 -105 -84 -97 -5 3 -8 1 -7 -4 4 -14 -61
-92 -74 -89 -7 1 -12 -3 -13 -10 0 -21 -76 -104 -87 -97 -6 4 -8 3 -5 -3 8
-13 -17 -36 -28 -25 -5 4 -5 1 -1 -6 5 -8 -5 -24 -26 -44 -120 -112 -228 -110
-228 5 0 55 16 80 157 239 60 66 121 136 136 154 16 19 33 31 39 28 6 -4 8 -2
5 3 -6 10 77 111 351 425 87 99 115 124 135 119 5 -1 6 3 3 8 -7 11 82 88 179
156 39 26 80 57 92 68 12 11 27 16 34 12 7 -5 10 -4 6 2 -6 9 131 115 401 311
58 43 108 86 113 100 12 31 3 62 -25 85 -17 16 -18 18 -3 13 11 -3 16 -2 12 4
-7 12 -65 6 -94 -10 -12 -6 -27 -8 -33 -4 -6 4 -8 3 -4 -4 9 -14 -54 -62 -72
-54 -10 3 -13 1 -8 -6 3 -6 1 -14 -5 -18 -7 -4 -9 -3 -5 4 3 6 2 13 -4 17 -6
3 -10 -4 -10 -17 0 -23 -50 -66 -71 -61 -5 2 -8 -1 -6 -6 1 -4 -21 -27 -50
-50 -52 -41 -70 -50 -58 -31 3 6 1 10 -5 10 -7 0 -10 -6 -7 -14 6 -16 -180
-152 -202 -148 -7 2 -10 -1 -7 -7 7 -11 -90 -88 -105 -84 -5 2 -9 -1 -9 -6 0
-5 -26 -28 -57 -51 -32 -24 -110 -95 -173 -159 -63 -64 -119 -114 -123 -113
-5 1 -6 -2 -3 -7 8 -12 -33 -63 -45 -55 -5 3 -8 0 -7 -8 2 -7 -3 -12 -10 -10
-8 1 -11 -1 -8 -6 8 -13 -54 -83 -66 -76 -6 4 -8 2 -4 -4 8 -14 -43 -74 -56
-65 -7 3 -8 1 -4 -5 8 -14 -53 -84 -67 -75 -5 3 -7 1 -3 -5 8 -14 -43 -74 -56
-65 -7 3 -8 1 -4 -5 8 -13 -52 -84 -65 -76 -5 3 -6 -1 -4 -8 3 -8 -31 -52 -78
-101 -45 -49 -81 -90 -79 -91 5 -6 -69 -64 -88 -69 -9 -2 -31 2 -49 9 -53 22
-44 58 43 161 89 105 150 173 141 156 -4 -9 -1 -11 10 -7 11 5 13 10 6 17 -12
12 67 110 82 100 6 -3 7 -1 4 4 -6 9 43 71 167 213 11 14 55 65 95 114 153
183 327 346 353 330 6 -4 8 -2 4 4 -9 14 60 66 75 56 7 -4 9 -3 5 4 -8 13 82
84 97 75 5 -3 7 -2 4 3 -6 11 320 257 340 257 6 0 11 4 10 8 -3 12 95 79 106
72 6 -3 7 -1 4 5 -7 10 178 141 283 199 86 48 171 75 536 168 186 48 409 104
494 126 218 56 327 93 465 158 221 105 411 251 594 455 174 193 181 201 181
209 0 5 5 5 10 2 6 -4 9 -3 8 2 -4 11 74 103 82 98 4 -2 7 2 7 9 0 21 384 477
395 470 6 -4 8 -2 5 3 -4 6 0 24 9 41 19 38 10 76 -24 103 -50 39 -73 22 -214
-153 -39 -48 -75 -85 -81 -81 -6 3 -7 1 -3 -5 3 -6 -29 -52 -71 -103 -43 -51
-93 -111 -112 -133 -18 -23 -38 -40 -43 -38 -5 1 -7 -1 -4 -6 7 -12 -152 -198
-167 -194 -6 2 -9 0 -5 -4 9 -8 -20 -44 -127 -154 -122 -127 -160 -161 -181
-164 -11 -2 -19 -9 -19 -17 0 -19 -196 -150 -215 -143 -8 3 -11 2 -7 -2 18
-18 -169 -100 -353 -154 -114 -34 -502 -135 -730 -191 -91 -22 -202 -51 -248
-65 -45 -14 -88 -22 -94 -18 -7 4 -8 3 -4 -4 4 -7 1 -12 -6 -12 -26 0 -172
-77 -258 -135 -47 -32 -90 -58 -97 -58 -7 0 -10 -4 -7 -9 5 -7 -10 -12 -28 -9
-5 0 -7 -3 -5 -8 1 -5 -17 -23 -40 -40 -46 -33 -58 -38 -47 -18 4 7 3 9 -2 4
-5 -5 -9 -12 -9 -17 0 -9 -129 -110 -140 -110 -3 0 -3 5 1 12 4 7 3 8 -5 4 -6
-4 -9 -11 -6 -16 8 -13 -35 -39 -54 -33 -12 4 -13 3 -2 -5 16 -12 -3 -27 -21
-16 -6 4 -8 3 -4 -4 7 -12 -63 -64 -76 -56 -5 3 -7 1 -6 -4 4 -14 -103 -93
-115 -85 -6 3 -7 2 -4 -4 8 -13 -281 -229 -302 -225 -11 2 -12 0 -4 -5 9 -6
-2 -21 -34 -48 -26 -22 -52 -39 -58 -37 -5 2 -7 0 -3 -4 10 -9 -112 -150 -126
-146 -6 2 -8 1 -4 -3 10 -11 -102 -146 -115 -138 -5 3 -7 2 -4 -4 3 -5 -1 -20
-10 -32 -12 -19 -17 -20 -25 -10 -8 11 -9 10 -5 -3 4 -11 -32 -61 -110 -152
-63 -75 -119 -136 -124 -136 -5 0 -9 -5 -9 -10 0 -6 -45 -63 -100 -128 -138
-161 -165 -235 -119 -330 24 -48 71 -84 136 -103 37 -10 43 -16 43 -39 0 -25
17 -90 35 -133 7 -16 -23 -17 -584 -16 -550 1 -593 0 -611 -16 -29 -26 -33
-51 -15 -88 13 -29 23 -35 56 -40 21 -3 1640 -6 3597 -6 1956 -1 3563 -1 3570
-1 7 0 11 -4 8 -9 -8 -13 4 -42 15 -35 5 3 9 -76 9 -185 0 -116 -4 -192 -10
-196 -5 -3 -10 -14 -10 -23 0 -15 2 -15 10 -2 7 10 10 -8 10 -60 0 -52 -3 -70
-10 -60 -8 12 -10 11 -10 -7 0 -13 5 -23 10 -23 6 0 9 -15 9 -32 l-1 -33 -8
30 c-7 27 -8 26 -9 -15 0 -32 2 -41 9 -30 7 12 10 8 10 -15 0 -23 -3 -27 -10
-15 -5 8 -10 10 -10 5 0 -6 6 -17 13 -24 10 -11 10 -13 0 -7 -7 4 -13 2 -13
-3 0 -6 5 -11 10 -11 14 0 13 -67 -1 -76 -8 -4 -7 -9 2 -15 8 -5 -1579 -9
-3597 -9 l-3611 0 -23 -24 c-30 -33 -29 -72 4 -104 l26 -26 3267 -3 c1798 -1
3273 -2 3278 -3 6 0 3 -5 -5 -10 -8 -5 -10 -10 -4 -10 5 0 15 5 22 12 9 9 12
-17 14 -117 1 -72 1 -139 0 -150 -1 -11 -1 -112 -2 -225 0 -184 2 -208 19
-230 25 -35 89 -40 117 -9 18 20 19 36 16 374 -1 217 1 356 7 359 9 6 285 10
429 7 l52 -1 0 -226 c0 -161 -3 -223 -11 -218 -8 5 -8 1 0 -14 6 -12 11 -73
11 -141 0 -117 1 -120 26 -140 34 -27 79 -27 102 -1 16 19 17 83 22 888 l5
867 110 2 c61 1 118 2 128 3 47 1 73 73 42 116 -8 12 -13 23 -10 25 2 2 -1215
3 -2703 2 -1489 0 -2726 2 -2750 5 l-43 7 48 37 c27 20 204 193 393 384 309
312 418 414 517 483 27 18 37 20 55 11 21 -10 22 -10 5 4 -17 13 -6 22 139
122 334 228 505 316 729 374 182 47 296 69 292 56 -3 -6 -9 -10 -15 -9 -6 2
-9 -3 -6 -11 8 -20 -95 -126 -178 -183 -40 -28 -156 -92 -258 -143 -102 -51
-205 -105 -230 -119 -24 -14 -55 -24 -67 -23 -13 2 -23 -1 -23 -7 0 -6 7 -8
15 -5 27 11 16 -2 -32 -37 -27 -19 -52 -32 -58 -31 -5 2 -7 1 -3 -3 4 -4 -15
-36 -41 -70 -94 -122 -122 -275 -74 -400 5 -14 3 -16 -7 -10 -9 6 -11 4 -6 -4
5 -7 10 -10 13 -7 3 3 26 -12 50 -34 48 -42 93 -56 146 -46 17 3 91 33 162 67
302 141 458 204 476 193 7 -4 9 -3 6 3 -8 13 258 108 274 98 7 -5 10 -4 5 3
-3 6 9 15 31 22 42 14 231 84 368 137 281 108 517 255 679 421 44 44 84 78 89
75 6 -3 7 -1 4 4 -9 14 32 65 45 57 7 -4 8 -2 4 5 -4 6 5 28 21 49 60 77 120
184 244 437 136 276 203 390 221 379 7 -4 8 -3 4 4 -4 6 19 48 51 92 32 45 65
92 73 104 51 76 93 125 102 119 7 -3 8 -1 4 5 -4 7 78 126 196 284 112 150
225 303 252 340 27 37 54 64 59 61 6 -3 7 -1 3 5 -4 7 -2 12 3 12 6 0 10 4 9
8 -2 5 40 67 93 138 52 71 104 141 113 156 10 15 23 25 29 21 5 -3 7 -2 4 3
-3 5 30 59 74 119 43 61 79 117 80 125 3 32 -3 46 -27 68 -29 26 -59 28 -94 6z"/>
</g>
</svg>
