<?xml version="1.0" standalone="no"?>
<!DOCTYPE svg PUBLIC "-//W3C//DTD SVG 20010904//EN"
 "http://www.w3.org/TR/2001/REC-SVG-20010904/DTD/svg10.dtd">
<svg version="1.0" xmlns="http://www.w3.org/2000/svg"
 width="1024.000000pt" height="1024.000000pt" viewBox="0 0 1024.000000 1024.000000"
 preserveAspectRatio="xMidYMid meet">
<metadata>
Created by potrace 1.16, written by Peter Selinger 2001-2019
</metadata>
<g transform="translate(0.000000,1024.000000) scale(0.100000,-0.100000)"
fill="#000000" stroke="none">
<path d="M5210 8596 c-73 -28 -90 -42 -115 -93 -25 -49 -27 -59 -26 -198 1
-98 -2 -144 -9 -140 -7 4 -7 -2 0 -20 13 -34 13 -38 -2 -29 -7 5 -8 3 -2 -7
13 -21 14 -73 0 -81 -6 -4 -6 -8 -1 -8 6 0 11 -49 13 -118 l3 -119 -28 -18
c-67 -44 -166 -94 -176 -88 -5 3 -7 2 -4 -4 3 -5 -69 -51 -161 -103 -92 -51
-226 -126 -299 -167 -77 -44 -137 -72 -144 -67 -8 4 -9 3 -5 -4 8 -14 -90 -66
-106 -56 -6 4 -8 3 -5 -3 9 -14 -699 -406 -715 -397 -7 5 -8 3 -3 -6 6 -10 4
-12 -8 -7 -9 3 -16 2 -14 -4 1 -5 -25 -24 -58 -42 -33 -18 -90 -49 -127 -70
-37 -21 -73 -35 -79 -31 -7 4 -9 3 -6 -3 9 -14 -300 -186 -316 -177 -7 4 -9 3
-4 -1 9 -11 -92 -67 -106 -58 -5 3 -7 2 -4 -4 7 -11 -121 -85 -134 -77 -5 3
-9 1 -9 -5 0 -6 -31 -28 -70 -51 -38 -22 -72 -45 -75 -50 -3 -6 -8 -33 -9 -60
-2 -38 0 -48 9 -40 8 7 21 7 36 1 18 -7 19 -10 7 -10 -27 -1 -21 -21 6 -21 24
0 36 -16 36 -49 0 -9 14 -39 32 -67 18 -27 31 -53 30 -57 -1 -5 1 -6 6 -3 11
7 64 -29 55 -38 -4 -4 1 -4 11 0 13 5 17 4 12 -4 -5 -8 -2 -10 8 -6 25 10 46
-21 46 -68 0 -24 7 -70 14 -102 8 -33 12 -66 9 -75 -4 -14 -3 -14 6 -1 8 12
11 12 17 -3 12 -33 93 -86 141 -93 l46 -7 -6 -63 c-4 -35 -2 -66 2 -69 5 -3 7
5 5 17 -3 13 1 9 10 -11 9 -18 16 -40 16 -48 0 -8 4 -12 9 -9 5 3 11 -1 15 -9
3 -8 26 -28 50 -44 25 -15 42 -32 38 -36 -4 -5 1 -5 11 -2 16 6 17 -42 17
-917 0 -835 -2 -924 -16 -930 -9 -3 -20 -4 -24 -1 -5 3 -12 0 -16 -6 -5 -8 -3
-9 7 -4 8 5 -7 -10 -32 -33 -52 -46 -84 -111 -95 -190 -6 -51 -30 -81 -49 -64
-5 4 -5 1 -1 -5 4 -7 3 -13 -3 -13 -6 0 -26 -21 -45 -47 -20 -27 -39 -52 -43
-58 -5 -5 -10 -44 -12 -85 -4 -80 -12 -93 -51 -85 -19 4 -21 3 -10 -5 10 -6
11 -10 3 -10 -35 0 -123 -111 -123 -155 0 -9 -3 -14 -7 -12 -5 3 -8 -43 -7
-101 l1 -107 -7 85 -6 85 -2 -82 -2 -83 -40 0 -40 0 -1 55 c-2 70 -4 86 -14
108 -5 13 1 31 23 61 42 58 93 163 130 266 69 194 90 318 73 441 -12 93 -14
115 -5 106 9 -9 59 53 88 110 34 69 35 142 2 217 -13 30 -21 57 -18 61 4 4 2
5 -3 3 -6 -2 -23 9 -39 24 -16 14 -46 34 -67 44 -22 9 -39 20 -39 23 0 4 -18
5 -40 3 -26 -3 -45 1 -54 11 -13 13 -12 16 9 27 41 22 61 96 39 150 -29 72
-32 73 -438 74 -330 1 -364 -1 -389 -17 -86 -56 -79 -184 12 -220 22 -9 42
-21 46 -27 4 -7 12 -6 24 2 21 15 195 12 186 -3 -4 -5 -1 -9 4 -9 6 0 11 5 11
10 0 6 50 10 130 10 97 0 130 -3 130 -12 0 -9 3 -9 9 1 8 13 39 15 136 8 6 0
23 3 38 7 16 4 27 2 27 -4 0 -5 -11 -10 -24 -10 -13 0 -27 -6 -30 -12 -5 -10
-7 -10 -12 0 -8 17 -24 15 -24 -3 0 -8 -4 -15 -8 -15 -4 0 -24 -16 -44 -36
-48 -46 -60 -108 -32 -163 10 -20 19 -41 19 -48 0 -6 4 -15 9 -20 5 -4 6 -3 2
5 -11 18 -1 15 54 -19 28 -17 47 -35 43 -41 -3 -6 -2 -8 4 -5 13 8 56 -37 46
-48 -5 -4 -3 -5 4 -2 14 9 57 -58 47 -74 -4 -7 -3 -9 3 -6 14 9 26 -38 18 -66
-4 -15 -3 -18 3 -9 16 23 23 -92 11 -171 -12 -74 -59 -245 -86 -307 -42 -100
-64 -140 -73 -135 -5 3 -7 0 -5 -7 7 -17 -63 -100 -76 -92 -5 3 -8 0 -7 -8 2
-7 -22 -25 -55 -41 -48 -23 -76 -29 -160 -34 -107 -6 -229 12 -285 41 -109 57
-222 308 -238 528 -16 235 61 395 234 486 35 19 66 40 69 48 3 8 9 11 14 8 5
-3 9 -2 8 3 -1 4 1 25 6 46 12 59 -8 112 -55 146 -22 16 -36 31 -32 35 3 4 -1
4 -11 0 -9 -3 -24 0 -33 7 -9 7 -32 12 -51 11 -26 -2 -33 0 -27 10 6 10 5 10
-7 2 -12 -10 -61 -18 -156 -27 -11 -1 -19 -5 -17 -8 2 -4 -10 -12 -26 -19 -38
-16 -97 -80 -119 -131 -10 -21 -20 -37 -22 -35 -2 2 -2 -33 1 -78 4 -61 12
-91 28 -117 30 -47 64 -84 85 -92 21 -8 21 -10 2 -117 -10 -57 -13 -109 -9
-158 5 -58 4 -76 -7 -83 -11 -7 -11 -9 2 -9 12 0 19 -13 24 -47 19 -126 120
-364 183 -429 30 -31 33 -38 27 -74 -4 -22 -10 -38 -15 -35 -4 3 -6 -13 -3
-35 l6 -40 -215 0 c-195 0 -216 -2 -231 -18 -21 -23 -22 -65 -3 -81 21 -17
2952 -20 2984 -3 27 15 30 63 5 83 -13 12 -122 14 -607 15 -325 1 -669 2 -763
2 l-173 2 0 59 c0 103 11 149 42 183 19 21 34 29 48 25 11 -3 20 -1 20 4 0 5
934 9 2325 9 2114 0 2328 -2 2358 -16 51 -24 64 -56 70 -166 l5 -97 -121 -4
c-67 -2 -764 -4 -1549 -4 -784 0 -1431 -4 -1437 -7 -5 -4 -8 -13 -5 -20 3 -8
1 -17 -5 -21 -7 -4 -1 -16 14 -33 l25 -27 1754 0 c965 0 1753 -2 1751 -5 -2
-3 7 -5 20 -5 13 0 21 3 19 6 -2 3 224 6 503 7 460 1 507 3 524 18 24 22 24
35 -2 68 l-20 26 -195 0 -194 0 2 238 c2 183 6 236 15 235 7 -2 12 3 10 10 -1
6 4 11 10 10 7 -2 12 0 11 5 -1 4 6 21 15 39 41 77 -2 172 -92 202 -19 6 -95
11 -171 11 l-138 0 -1 59 0 58 97 6 c162 10 266 53 353 144 60 63 84 104 104
183 38 144 -6 290 -112 376 -28 23 -48 46 -45 50 4 4 2 4 -4 1 -9 -5 -90 13
-134 30 -8 4 -19 5 -23 4 -17 -3 -67 30 -61 41 4 6 3 8 -3 5 -14 -9 -38 28
-51 76 l-11 37 52 26 c78 40 162 130 201 216 45 99 60 166 59 278 0 146 -48
278 -137 377 -25 27 -43 53 -41 57 3 3 2 4 -1 1 -11 -7 -74 47 -67 58 3 6 1 7
-5 3 -6 -4 -33 5 -59 18 -54 28 -120 45 -187 48 -25 0 -43 5 -40 10 4 5 -2 5
-12 -1 -11 -5 -40 -13 -65 -16 -46 -6 -168 -59 -219 -95 -15 -11 -31 -16 -35
-12 -5 4 -5 2 -2 -4 7 -12 -36 -58 -45 -49 -2 3 -5 -1 -5 -7 0 -7 -19 -40 -41
-73 -82 -122 -117 -300 -88 -449 9 -43 13 -83 10 -87 -3 -5 -1 -9 4 -9 8 0 36
-56 52 -105 2 -5 14 -18 27 -28 24 -19 33 -44 11 -31 -9 5 -9 3 1 -9 7 -9 16
-15 20 -13 4 3 31 -17 61 -43 l55 -48 -13 -49 c-19 -70 -86 -133 -126 -118 -9
3 -16 2 -16 -4 0 -5 -17 -13 -37 -17 -89 -17 -178 -90 -222 -185 -21 -47 -25
-68 -24 -150 1 -145 5 -200 13 -200 5 0 6 10 4 23 -4 15 1 11 15 -13 10 -19
18 -47 16 -61 -2 -16 2 -26 10 -26 11 0 11 5 4 21 -6 12 8 1 29 -24 24 -26 39
-52 36 -63 -2 -15 0 -16 11 -7 10 9 20 7 39 -5 14 -10 23 -22 19 -28 -3 -5 -2
-7 4 -4 5 3 34 -3 64 -14 78 -30 141 -38 305 -40 l144 -1 0 -61 c0 -44 -3 -58
-10 -47 -6 9 -10 10 -10 3 0 -8 -60 -13 -222 -15 -192 -3 -228 -6 -258 -21
-53 -28 -74 -63 -75 -123 0 -32 -4 -50 -10 -47 -9 5 -1 -4 48 -55 9 -11 35
-25 56 -32 l38 -12 2 -230 2 -229 -45 2 -46 3 1 105 c1 91 -2 113 -21 154 -13
27 -38 60 -56 75 -24 19 -30 29 -21 35 7 5 2 6 -12 2 -17 -5 -22 -4 -16 5 5 8
4 11 -2 7 -5 -3 -23 -3 -39 2 -27 7 -29 11 -36 74 -7 74 -46 157 -85 182 -13
9 -21 21 -17 27 4 6 3 8 -3 5 -6 -4 -24 -2 -40 3 -26 10 -30 16 -32 56 -2 54
-33 130 -68 166 -14 14 -25 30 -24 35 1 4 -2 8 -6 8 -5 1 -26 10 -48 22 l-40
21 4 923 c2 508 7 913 11 899 l8 -25 1 27 c1 20 10 30 40 45 52 25 103 111
116 196 6 40 11 47 30 47 12 0 41 6 63 14 22 8 43 13 46 10 3 -2 4 -1 2 2 -3
3 11 19 29 35 50 45 74 102 81 200 l7 86 36 13 c20 7 48 21 63 31 14 11 31 19
37 19 6 0 10 3 9 8 -3 15 15 42 25 35 5 -3 7 -2 4 3 -3 6 4 39 16 74 20 57 26
65 55 72 18 5 35 15 39 23 3 8 9 13 13 10 5 -3 5 9 -1 27 -5 18 -9 34 -9 35 0
1 -29 19 -64 40 -36 20 -63 40 -60 45 3 4 -3 5 -12 1 -13 -5 -15 -3 -9 7 6 9
4 12 -6 8 -19 -7 -132 55 -122 67 5 4 3 5 -4 2 -6 -4 -17 -2 -25 5 -7 7 -19
14 -26 16 -29 6 -251 140 -244 147 4 5 2 5 -5 1 -16 -9 -285 143 -276 157 3 6
1 7 -5 3 -6 -4 -35 5 -63 20 -34 17 -48 29 -40 34 10 5 9 9 -4 13 -10 5 -14 3
-9 -4 10 -17 0 -12 -149 71 -74 41 -133 78 -130 83 2 4 1 6 -4 5 -17 -4 -53
14 -47 24 4 7 2 8 -4 4 -15 -9 -203 95 -195 108 3 5 1 6 -4 3 -15 -10 -354
183 -346 196 3 6 1 7 -6 3 -7 -4 -106 45 -234 117 -317 179 -358 203 -349 212
4 5 2 5 -4 2 -14 -8 -146 62 -139 74 3 5 0 6 -7 4 -8 -3 -21 0 -31 7 -15 11
-18 35 -20 186 -1 94 0 172 3 172 3 0 12 -6 19 -12 8 -8 11 -8 8 -2 -4 7 4 19
18 28 14 9 25 13 25 9 0 -5 7 5 15 21 31 58 11 92 -49 81 l-35 -7 -3 48 c-5
75 6 153 24 170 9 9 36 19 61 21 38 5 54 0 101 -27 31 -17 54 -36 50 -41 -3
-5 -2 -8 3 -7 4 1 19 -4 32 -11 19 -11 21 -15 10 -23 -11 -8 -10 -9 4 -4 21 7
111 -56 99 -69 -4 -5 -2 -6 3 -3 6 4 26 -2 45 -12 35 -18 35 -18 10 -24 -14
-3 -63 -14 -110 -25 -47 -11 -103 -23 -125 -26 -22 -4 -57 -13 -77 -22 -30
-13 -39 -23 -44 -50 -4 -21 -1 -45 7 -61 7 -15 13 -30 13 -34 1 -3 5 -10 10
-15 6 -5 6 -2 1 6 -6 11 -4 13 9 8 10 -4 21 -7 24 -7 4 0 1 -4 -5 -8 -8 -5 0
-8 20 -9 40 -2 209 -38 203 -44 -2 -2 17 -5 42 -5 26 -1 129 -4 230 -7 113 -4
180 -2 177 4 -4 5 -1 9 5 9 7 0 24 9 40 20 15 11 30 16 34 12 4 -4 7 -2 5 3
-1 6 5 27 14 47 32 72 15 133 -54 191 -35 30 -41 39 -29 46 8 5 18 7 24 4 5
-3 6 -1 3 4 -4 6 9 22 27 37 41 31 63 85 46 115 -13 25 -57 38 -73 22 -6 -6
-16 -11 -21 -11 -6 0 -4 5 4 11 13 9 13 10 0 6 -8 -2 -15 -8 -16 -13 -2 -24
-18 -45 -31 -40 -8 3 -12 2 -9 -3 7 -11 -20 -34 -69 -59 -57 -28 -98 -35 -142
-23 -46 13 -188 105 -188 123 0 7 -7 13 -15 13 -18 0 -110 64 -110 77 0 4 -3
7 -7 6 -5 0 -28 8 -53 19 -62 28 -127 35 -170 19z m700 -412 c22 -9 37 -20 34
-25 -3 -5 2 -9 10 -9 9 0 15 -3 14 -7 0 -5 2 -16 7 -26 14 -33 -10 -42 -118
-42 -204 1 -337 18 -315 40 7 8 191 53 202 51 6 -2 7 0 1 2 -14 7 54 30 92 31
18 1 51 -6 73 -15z m-679 -580 c54 -31 97 -60 94 -64 -3 -4 1 -7 8 -6 17 2
197 -96 191 -105 -2 -4 2 -6 9 -5 20 2 236 -127 230 -137 -3 -6 -1 -7 5 -3 15
9 95 -38 85 -49 -5 -4 -2 -5 4 -1 17 9 55 -12 47 -26 -4 -7 -3 -8 5 -4 9 6
115 -45 131 -63 3 -3 10 -7 16 -8 6 -1 38 -18 70 -37 72 -42 120 -68 351 -197
108 -60 180 -105 176 -112 -3 -6 -1 -7 5 -3 15 9 73 -24 65 -37 -3 -6 -1 -7 5
-3 12 7 142 -60 142 -73 0 -4 6 -8 13 -8 22 0 147 -75 141 -84 -3 -5 3 -6 12
-2 12 4 15 3 10 -6 -5 -8 -3 -12 5 -10 24 3 35 -1 55 -18 11 -10 26 -19 34
-21 33 -8 229 -126 223 -135 -3 -6 -1 -7 6 -3 6 4 37 -8 69 -26 l57 -33 -103
-3 c-96 -3 -106 -1 -152 24 -28 15 -50 33 -50 41 0 7 -5 13 -11 13 -5 0 -7 -5
-3 -11 8 -14 -107 46 -133 69 -10 10 -25 18 -33 20 -37 8 -250 135 -244 144 4
7 2 8 -5 4 -14 -9 -312 155 -304 168 3 5 1 6 -5 2 -9 -5 -119 53 -526 279 -32
18 -54 35 -50 37 5 3 3 3 -3 2 -18 -5 -254 132 -245 141 4 5 2 5 -4 2 -6 -3
-53 18 -105 47 -52 30 -117 66 -146 82 -29 15 -49 32 -46 37 3 6 1 7 -5 3 -7
-4 -50 16 -98 44 -56 33 -92 49 -105 45 -10 -3 -114 -60 -231 -125 -145 -82
-219 -118 -233 -114 -13 3 -16 2 -8 -3 8 -6 -26 -30 -105 -73 -64 -36 -123
-64 -129 -64 -7 1 -11 -2 -8 -6 6 -10 -24 -22 -36 -14 -5 3 -8 1 -7 -5 2 -6
-69 -50 -157 -99 -88 -49 -181 -101 -208 -116 -26 -15 -53 -24 -59 -20 -6 4
-9 3 -5 -2 6 -10 -533 -314 -557 -314 -7 0 -16 -6 -19 -13 -2 -7 -26 -23 -53
-36 -27 -14 -90 -48 -141 -78 -58 -33 -99 -50 -110 -47 -13 4 -14 3 -5 -3 9
-7 -1 -17 -37 -36 -45 -25 -57 -27 -172 -27 l-124 0 75 45 c41 25 81 43 88 40
7 -3 11 -1 8 3 -7 12 432 254 446 246 6 -4 8 -3 4 4 -8 13 102 74 117 65 5 -3
7 -2 4 3 -3 6 22 25 56 43 34 19 106 58 159 88 56 31 102 52 109 47 7 -4 9 -3
6 4 -9 13 160 105 176 96 7 -4 9 -3 5 1 -5 5 9 19 30 31 41 26 57 30 46 12 -4
-7 -3 -8 5 -4 6 4 9 11 7 15 -6 9 382 225 405 225 10 0 16 3 13 7 -7 11 125
81 138 73 6 -4 8 -3 5 3 -8 13 140 96 155 87 6 -4 8 -3 5 3 -3 5 49 40 116 78
67 38 142 81 166 97 25 15 51 28 59 28 8 0 59 -25 113 -56z m214 -399 c138
-76 255 -142 260 -148 6 -5 0 -4 -12 2 -19 9 -22 9 -17 -3 3 -8 14 -13 26 -11
22 5 230 -104 222 -116 -2 -4 1 -11 7 -15 8 -4 9 -3 5 4 -11 18 -5 16 88 -36
47 -27 83 -52 79 -56 -4 -4 1 -4 11 0 13 5 17 4 13 -3 -4 -6 -1 -10 6 -9 21 2
437 -236 430 -247 -3 -6 -1 -7 5 -3 15 9 203 -95 195 -108 -3 -5 -1 -6 5 -2
15 9 93 -34 85 -47 -3 -6 -1 -7 5 -3 11 6 137 -57 147 -75 4 -5 -770 -9 -1892
-9 l-1898 0 78 46 c42 25 83 42 89 38 6 -4 8 -3 5 3 -9 14 129 87 145 77 6 -4
8 -3 5 4 -10 15 406 244 430 236 12 -4 14 -3 5 3 -16 12 262 168 279 157 8 -4
9 -3 5 4 -8 14 50 46 66 36 7 -4 8 -3 4 4 -8 14 50 46 66 36 6 -4 8 -3 5 3 -8
13 50 46 65 37 6 -4 8 -3 5 3 -7 11 355 215 375 210 7 -2 9 -2 4 1 -5 3 17 20
50 38 32 18 63 30 68 27 6 -4 8 -2 3 2 -10 12 128 86 147 79 9 -4 16 -1 16 6
0 8 11 5 33 -7 17 -11 145 -82 282 -158z m-1576 -1033 c7 -11 9 -10 14 2 9 22
117 23 117 1 0 -8 5 -15 11 -15 5 0 8 4 5 9 -10 16 69 18 560 17 410 -1 484
-3 500 -16 10 -9 15 -10 10 -2 -9 15 -26 14 281 17 147 2 255 0 258 -6 4 -5
12 -9 18 -9 7 0 6 4 -3 10 -9 5 103 9 300 9 230 0 318 -3 329 -12 11 -9 13 -9
8 0 -6 9 60 12 278 11 157 0 283 -3 280 -8 -3 -4 2 -10 10 -13 9 -4 12 -1 9 8
-5 12 49 13 343 12 191 -1 354 -6 361 -10 7 -5 12 -4 12 2 0 6 8 11 19 11 15
0 18 -6 14 -37 -4 -41 -39 -87 -59 -79 -7 3 -14 0 -17 -7 -6 -18 -2207 -23
-2219 -5 -6 10 -8 10 -8 0 0 -18 -1060 -17 -1061 1 0 9 -2 9 -6 0 -3 -10 -45
-13 -159 -13 -121 0 -154 3 -148 13 6 10 4 10 -7 0 -10 -10 -105 -13 -404 -13
-299 0 -394 3 -404 13 -11 10 -12 9 -7 -1 6 -11 -32 -12 -203 -8 -176 4 -215
7 -240 22 -31 18 -51 52 -51 84 0 25 -7 25 678 25 465 0 574 -3 581 -13z
m-940 -326 c2 -64 -2 -91 -11 -97 -10 -7 -10 -9 0 -9 6 0 12 -9 12 -20 0 -19
-2 -19 -32 -6 -18 7 -32 19 -30 25 1 7 -2 10 -7 7 -21 -13 -41 38 -41 106 l0
68 41 0 c22 0 38 4 34 9 -3 6 3 9 14 8 16 -1 19 -11 20 -91z m191 84 c0 -5 7
-10 16 -10 8 0 12 5 9 10 -3 6 -1 10 4 10 6 0 11 -4 11 -10 0 -5 10 -10 23 -9
21 0 21 1 2 9 -13 6 19 9 90 9 74 1 105 -2 95 -9 -11 -7 -4 -9 25 -9 35 1 37
2 15 9 -14 4 140 8 343 9 238 1 367 -2 367 -9 0 -5 5 -10 11 -10 5 0 7 5 4 10
-9 14 18 12 34 -2 11 -10 13 -10 7 0 -4 7 -1 12 8 12 9 0 16 -4 16 -10 0 -5
12 -10 28 -9 l27 1 -25 8 c-17 6 -2 8 53 9 45 1 77 -3 77 -9 0 -5 5 -10 11
-10 5 0 7 5 4 10 -4 6 22 10 70 10 48 0 74 -4 70 -10 -4 -6 6 -10 22 -9 25 0
26 1 8 9 -16 7 -13 9 15 9 20 1 42 -5 49 -11 11 -10 12 -10 7 -1 -5 10 129 13
629 13 503 0 635 -2 636 -12 0 -10 2 -10 6 0 4 9 109 12 478 12 369 0 475 -3
479 -12 5 -10 7 -10 12 0 8 16 279 17 290 1 4 -8 9 -7 15 2 5 8 9 -36 9 -108
l0 -123 -2064 0 -2063 0 -5 43 c-3 23 -4 62 -3 87 5 122 1 110 45 110 22 0 40
-4 40 -10z m4270 -2 c0 -9 4 -8 10 2 7 10 10 -7 10 -57 0 -41 -4 -73 -10 -73
-5 0 -7 -6 -4 -14 8 -22 -53 -76 -87 -76 l-29 0 0 115 0 115 55 0 c37 0 55 -4
55 -12z m-3725 -375 c-9 -47 -23 -75 -35 -68 -6 3 -7 -1 -4 -9 7 -19 -50 -49
-83 -43 -13 2 -26 1 -28 -4 -3 -4 -22 -5 -43 -3 -79 9 -88 9 -110 2 -15 -5
-21 -4 -17 2 3 6 1 10 -4 10 -6 0 -11 -5 -11 -11 0 -12 -52 -9 -61 4 -3 4 -18
3 -32 -2 -15 -6 -29 -6 -32 -1 -3 5 -20 6 -39 3 -35 -5 -91 21 -80 38 3 5 0 8
-7 7 -17 -4 -39 40 -39 80 l0 32 316 0 316 0 -7 -37z m424 25 c-4 -22 13 -102
27 -130 8 -16 12 -28 8 -28 -4 0 5 -9 20 -21 14 -11 23 -26 19 -32 -3 -7 -3
-9 2 -5 4 4 20 0 34 -10 14 -9 35 -22 46 -28 20 -11 20 -23 22 -937 l2 -925
-32 -13 c-18 -8 -35 -13 -40 -11 -4 1 -6 -3 -5 -10 2 -7 -3 -12 -9 -13 -7 0
-13 -4 -14 -10 -1 -5 -10 -22 -20 -37 -25 -34 -49 -103 -49 -138 l0 -28 -128
-1 -127 -2 -14 63 c-7 35 -13 71 -14 80 -1 9 -4 15 -7 14 -3 -2 -21 15 -40 38
-32 38 -114 86 -147 86 -10 0 -13 193 -13 921 0 900 1 920 19 914 11 -3 22 -1
26 4 4 7 -1 9 -12 5 -15 -4 -15 -3 2 8 11 7 39 31 62 54 24 23 45 39 48 38 3
-2 3 -1 1 2 -2 3 2 29 10 57 8 29 14 64 14 80 l0 27 155 0 c119 0 155 -3 154
-12z m741 -4 c0 -8 -7 -17 -16 -21 -11 -4 -12 -8 -4 -13 18 -11 1 -58 -32 -85
-19 -16 -43 -25 -66 -26 -20 -1 -63 -3 -94 -5 -37 -2 -58 1 -58 8 0 6 -7 7
-17 3 -31 -12 -47 -13 -67 -3 -14 7 -16 7 -11 -2 6 -9 3 -9 -13 -1 -14 8 -29
8 -47 1 -17 -7 -24 -7 -20 0 4 7 -3 6 -20 0 -15 -6 -31 -8 -36 -5 -5 4 -19 8
-30 10 -35 7 -71 35 -65 51 3 8 2 12 -3 9 -10 -5 -15 6 -26 63 l-7 33 316 -1
c272 -1 316 -3 316 -16z m129 -16 l1 33 114 -2 113 -1 6 -50 c4 -27 18 -70 32
-95 13 -25 22 -50 18 -57 -3 -6 -3 -8 2 -4 4 4 22 -4 39 -17 17 -13 43 -28 59
-34 15 -6 27 -16 27 -23 0 -9 -3 -8 -10 2 -5 8 -10 11 -10 5 0 -16 16 -37 26
-33 13 4 12 38 14 -936 l3 -879 -34 -18 c-19 -9 -38 -15 -44 -11 -5 3 -7 2 -3
-3 4 -4 -6 -24 -24 -43 -41 -48 -67 -108 -68 -157 0 -30 -3 -36 -10 -25 -6 10
-10 11 -10 3 0 -10 -26 -13 -94 -13 l-94 0 -4 54 c-3 37 -13 68 -32 96 -15 22
-24 45 -21 50 3 5 0 12 -6 16 -8 4 -9 3 -5 -4 12 -19 -3 -14 -40 14 -19 15
-51 32 -71 39 -22 8 -38 20 -39 31 -2 11 -4 424 -5 919 l-1 900 38 27 c21 14
42 24 47 21 4 -2 6 -1 5 4 -1 4 10 29 26 55 19 33 30 68 34 110 6 57 7 60 13
28 l6 -35 2 33z m1026 0 c-18 -87 -64 -132 -128 -127 -18 1 -44 -2 -60 -6 -18
-5 -33 -3 -44 6 -12 10 -15 10 -9 2 5 -10 -3 -13 -28 -13 -20 0 -36 5 -36 10
0 6 -5 10 -11 10 -5 0 -7 -4 -4 -10 9 -15 -88 -12 -104 3 -11 10 -13 10 -7 0
8 -14 -25 -19 -38 -6 -10 11 -40 10 -47 -1 -4 -5 -13 -5 -20 -1 -7 5 -25 9
-41 10 -50 4 -98 67 -98 130 l0 25 341 0 341 0 -7 -32z m368 -11 c3 -24 9 -51
13 -62 5 -13 4 -16 -4 -11 -7 4 -12 1 -12 -8 0 -8 5 -18 10 -21 6 -3 10 -1 10
6 0 7 14 -7 30 -29 17 -23 30 -45 30 -49 0 -5 -4 -2 -9 5 -7 11 -9 11 -14 -1
-4 -12 0 -15 15 -12 23 5 62 -18 50 -29 -4 -4 -2 -7 3 -5 18 4 65 -13 59 -22
-3 -5 -1 -9 5 -9 7 0 11 -289 11 -913 l0 -913 -36 -13 c-84 -30 -164 -141
-164 -226 l0 -40 -111 5 -112 5 -4 35 c-5 56 -22 98 -58 145 -19 24 -31 46
-27 48 4 2 1 2 -6 1 -7 -2 -29 5 -50 16 -20 11 -42 20 -49 20 -10 0 -13 186
-13 924 0 993 -2 946 48 930 13 -5 14 -4 3 4 -11 8 -10 11 7 16 36 12 100 93
107 137 4 21 10 37 14 35 3 -2 5 13 3 35 l-4 39 125 0 124 0 6 -43z m807 27
c0 -8 -4 -13 -9 -9 -5 3 -13 0 -17 -6 -4 -8 -3 -9 4 -5 17 10 15 -20 -4 -59
-8 -18 -29 -40 -47 -48 -38 -19 -115 -29 -123 -16 -3 5 -10 9 -15 9 -6 0 -8
-3 -5 -8 6 -9 -58 -7 -75 3 -8 5 -10 4 -5 -3 5 -9 0 -9 -18 -2 -18 6 -26 6
-26 -1 0 -7 -6 -7 -17 0 -11 6 -24 6 -36 0 -10 -6 -28 -7 -40 -3 -29 9 -78 11
-83 2 -6 -10 -74 2 -107 19 -36 18 -67 69 -67 111 l0 32 345 0 c306 0 345 -2
345 -16z m-3800 -274 c30 1 75 2 100 3 l45 0 3 -911 2 -912 -150 0 -150 0 0
914 0 915 48 -5 c26 -3 72 -5 102 -4z m1268 1 c17 7 22 5 23 -9 0 -14 2 -14 9
3 5 11 9 -376 9 -897 l1 -918 -147 0 -148 0 3 910 2 910 65 0 c36 0 65 -4 65
-8 0 -4 10 -8 23 -9 12 0 16 1 9 4 -25 10 -1 21 31 13 18 -4 43 -3 55 1z
m1151 -12 c-10 -6 -11 -9 -1 -9 7 0 13 -15 13 -37 l2 -38 7 40 c4 23 7 -39 8
-145 0 -106 -3 -174 -8 -160 -7 22 -8 20 -9 -15 0 -29 2 -36 9 -25 6 10 10
-169 10 -515 0 -346 -4 -525 -10 -515 -8 12 -10 10 -10 -8 0 -13 4 -20 10 -17
7 4 10 -58 10 -179 l0 -186 -150 0 -150 0 0 900 c0 632 3 900 10 900 6 0 9 4
6 8 -8 13 104 14 119 2 8 -7 20 -10 27 -7 8 3 5 6 -7 7 -14 2 -11 4 9 9 42 9
122 1 105 -10z m942 11 c24 0 38 -4 34 -10 -4 -6 9 -10 32 -9 37 1 37 1 8 9
-21 5 -6 7 50 8 43 0 85 -4 91 -9 14 -11 36 -8 46 6 4 6 8 -401 8 -902 l0
-913 -164 0 -164 0 -5 38 c-3 20 -4 253 -2 517 3 264 4 485 4 490 0 6 -2 185
-4 398 -3 340 -1 388 12 383 8 -3 33 -6 54 -6z m1574 -35 c69 -18 135 -58 186
-112 57 -60 89 -116 57 -97 -8 4 -10 3 -5 -2 5 -5 14 -9 20 -9 22 0 49 -98 54
-195 6 -112 -13 -200 -57 -270 -35 -55 -89 -112 -100 -105 -5 3 -12 0 -16 -6
-5 -8 -2 -10 7 -5 8 4 5 0 -6 -9 -11 -10 -45 -29 -75 -44 -50 -24 -66 -26
-176 -26 -114 0 -123 2 -179 30 -32 17 -67 42 -78 57 l-20 27 49 75 c27 41 53
72 58 69 5 -4 6 -1 2 5 -4 6 11 42 32 79 21 37 41 76 45 86 4 11 12 15 18 11
7 -4 9 -3 6 3 -4 6 9 52 28 102 43 112 47 173 10 197 -13 8 -33 13 -43 10 -18
-6 -42 -45 -42 -68 0 -6 -8 -20 -17 -31 -11 -12 -12 -17 -4 -12 22 13 6 -36
-49 -153 -38 -80 -141 -254 -167 -282 -7 -8 -22 22 -38 77 -32 109 -15 264 41
379 32 65 129 165 151 157 11 -4 14 -3 9 6 -11 17 97 64 134 59 16 -2 27 -1
24 4 -9 13 78 9 141 -7z m-146 -992 c53 -3 98 -10 101 -14 3 -5 16 -6 29 -2
17 4 19 8 9 14 -10 7 -9 9 3 9 11 0 19 -12 24 -37 4 -20 15 -53 25 -73 22 -43
96 -115 128 -125 12 -3 20 -11 17 -16 -4 -5 -3 -9 2 -9 4 0 19 -3 33 -5 22 -5
23 -4 5 5 -16 8 -10 9 24 5 64 -8 148 -55 135 -77 -3 -4 0 -7 8 -6 7 2 12 -3
10 -9 -1 -7 2 -13 8 -13 36 0 57 -152 30 -215 -7 -16 -14 -36 -16 -43 -5 -25
-55 -82 -99 -112 -94 -65 -92 -64 -422 -68 -222 -3 -303 0 -303 8 0 6 -5 8
-11 5 -13 -9 -101 4 -95 13 2 4 -6 8 -19 8 -23 2 -119 63 -111 71 2 2 -7 15
-21 29 -13 13 -21 29 -18 34 3 6 2 10 -3 10 -36 0 -44 180 -11 247 24 51 86
106 112 99 10 -2 14 0 10 6 -4 8 4 9 26 5 20 -4 30 -3 26 3 -3 6 2 10 12 10
36 0 126 55 158 97 18 23 35 40 38 37 3 -3 4 1 4 8 -1 7 5 37 13 66 10 39 18
51 29 47 8 -3 58 -9 110 -12z m-5869 -103 c0 -5 10 -10 23 -9 21 0 21 1 2 9
-13 6 9 9 67 9 80 1 87 -1 93 -20 4 -12 3 -25 -2 -30 -5 -5 -151 -8 -344 -7
l-334 3 -3 28 -3 27 250 0 c161 0 251 -4 251 -10z m-521 -276 c28 -6 30 -8 14
-19 -10 -8 -14 -17 -10 -21 4 -5 12 -2 17 6 8 13 10 12 10 -2 0 -10 5 -18 11
-18 6 0 8 7 4 18 -4 12 -3 14 5 6 19 -19 0 -42 -58 -70 -55 -27 -152 -113
-184 -164 l-16 -25 -28 21 c-41 30 -60 94 -44 149 14 49 71 112 91 100 7 -5
10 -4 5 3 -3 6 3 12 16 15 37 7 133 7 167 1z m736 -5 c-13 22 99 9 133 -16 79
-59 86 -193 11 -234 -15 -7 -21 -4 -33 18 -23 44 -88 108 -136 135 -37 20 -46
30 -48 58 -3 27 -1 32 13 26 9 -3 13 -2 10 3 -8 14 28 19 44 7 12 -9 13 -8 6
3z m1164 -552 c43 -28 72 -84 52 -97 -10 -5 -9 -9 3 -13 9 -4 16 -11 16 -17 0
-7 -115 -10 -345 -10 l-345 0 0 30 c0 39 27 93 42 84 7 -4 8 -3 4 4 -9 15 30
35 84 42 25 4 136 6 248 4 198 -2 204 -3 241 -27z m1155 -1 c12 -12 15 -14 6
-3 -14 19 -14 19 7 8 31 -16 60 -60 68 -104 l7 -37 -341 0 -341 0 0 24 c0 32
24 88 47 108 32 29 78 33 304 30 214 -3 222 -4 243 -26z m1118 7 c41 -24 65
-60 71 -106 l6 -37 -339 0 -339 1 6 37 c3 20 11 40 17 44 6 4 7 8 2 8 -5 0 -3
7 4 15 7 8 17 12 23 8 5 -3 7 -1 4 4 -8 13 30 39 64 45 13 3 120 3 237 2 184
-3 218 -6 244 -21z m1158 2 c38 -20 72 -72 67 -102 -2 -13 0 -23 4 -23 5 0 9
-4 9 -10 0 -6 -123 -10 -350 -10 l-350 0 0 33 c0 39 35 101 52 91 7 -4 8 -3 4
4 -10 17 23 29 89 31 33 2 62 4 63 6 2 2 89 2 192 0 148 -3 195 -7 220 -20z
m795 -215 c3 -5 14 -10 23 -9 14 0 13 2 -3 9 -16 7 -12 9 18 9 23 1 36 -3 32
-9 -4 -6 9 -10 32 -9 38 1 38 1 8 9 -22 6 -9 8 48 9 55 1 77 -3 78 -11 0 -10
2 -10 6 0 6 14 43 16 43 2 0 -5 5 -10 11 -10 5 0 7 6 3 13 -6 10 -4 10 7 0 16
-15 49 -17 49 -3 0 6 27 10 60 10 33 0 60 -4 60 -10 0 -5 8 -10 18 -10 15 0
15 2 2 11 -15 10 90 7 155 -5 28 -5 28 -5 5 4 l-25 9 25 -2 c18 -1 25 -7 23
-22 -1 -19 -1 -19 11 -2 18 24 26 21 26 -9 0 -17 -4 -23 -12 -18 -8 5 -9 2 -5
-11 6 -14 3 -16 -13 -12 -11 3 -17 1 -14 -4 6 -11 -766 -10 -806 0 -20 5 -25
13 -25 36 0 30 0 30 58 29 31 -1 57 3 57 7 0 12 37 11 45 -1z m-849 -49 c-4
-5 10 -5 32 0 46 11 54 11 49 2 -3 -5 23 -7 56 -5 107 5 162 -42 169 -143 l3
-50 -2230 0 -2230 0 1 53 c2 79 44 128 122 142 56 10 4034 11 4028 1z m1504
-324 c0 -149 -3 -207 -12 -216 -10 -11 -10 -13 0 -7 8 5 12 -1 11 -21 -1 -16
-3 -21 -6 -11 -3 10 -10 15 -19 11 -13 -5 -13 -7 -2 -14 7 -5 -136 -9 -324 -9
l-336 0 0 235 0 234 344 1 344 0 0 -203z m-6643 -205 c96 -16 286 -15 348 1
68 19 121 11 129 -16 13 -49 23 -47 -284 -47 l-290 0 0 23 c0 33 12 70 19 60
3 -6 38 -15 78 -21z"/>
<path d="M5031 7179 c-41 -11 -89 -30 -106 -44 -18 -13 -35 -22 -38 -19 -3 3
-5 -1 -4 -8 1 -7 -9 -35 -22 -61 -21 -46 -23 -59 -19 -200 3 -133 6 -157 25
-193 12 -23 19 -45 15 -50 -4 -5 -3 -6 2 -2 5 4 23 -4 41 -17 17 -14 46 -28
64 -31 17 -4 33 -9 35 -13 3 -3 52 -3 109 0 130 8 176 30 222 103 l30 49 0
166 c0 151 -2 170 -22 206 -38 72 -105 115 -177 115 -19 0 -45 4 -58 9 -15 5
-48 2 -97 -10z m129 -117 c0 -5 13 -7 28 -4 23 3 34 -3 55 -28 29 -34 34 -71
28 -235 -2 -70 -5 -83 -27 -105 -22 -23 -34 -25 -120 -29 -63 -2 -94 0 -90 7
3 6 -2 8 -13 5 -12 -3 -26 5 -40 23 -19 24 -21 39 -21 168 0 114 3 146 16 164
9 14 22 21 31 18 8 -3 11 -2 8 3 -5 10 31 16 108 19 20 1 37 -2 37 -6z"/>
<path d="M3347 8103 c-2 -4 -12 -33 -20 -63 -18 -62 -56 -105 -102 -116 -16
-4 -36 -12 -44 -18 -12 -9 -13 -8 -6 3 5 10 4 12 -3 7 -24 -15 -2 -66 29 -66
34 0 101 -40 95 -56 -3 -8 -2 -13 3 -10 9 6 26 -29 37 -76 5 -21 12 -28 30
-28 13 0 24 5 24 11 0 5 5 7 12 3 7 -4 8 -3 4 5 -12 18 3 69 30 101 16 18 44
34 78 44 36 11 56 23 63 39 9 19 8 23 -6 24 -52 4 -137 56 -124 76 3 5 2 7 -4
4 -11 -7 -27 20 -45 78 -12 37 -40 57 -51 38z"/>
<path d="M7442 8011 c-13 -10 -25 -38 -32 -75 -14 -71 -30 -107 -41 -100 -5 3
-6 -2 -3 -11 5 -11 -10 -33 -48 -69 -43 -42 -66 -56 -109 -66 -30 -7 -59 -13
-66 -13 -6 0 -20 -16 -30 -34 l-18 -34 27 -23 c15 -14 47 -26 75 -31 26 -3 67
-17 90 -31 43 -25 87 -76 76 -88 -3 -3 -1 -6 5 -6 14 0 45 -82 40 -106 -4 -18
42 -74 60 -74 24 0 51 34 57 72 10 57 43 131 55 123 5 -3 7 0 4 8 -7 18 84 90
103 82 8 -2 11 -1 8 4 -3 5 20 13 51 17 66 8 100 34 89 67 -3 12 -7 27 -7 34
-1 6 -7 9 -15 6 -7 -3 -13 -1 -13 3 0 5 -14 10 -31 11 -96 7 -206 114 -231
226 -22 102 -28 115 -52 119 -13 3 -33 -2 -44 -11z m52 -293 c-4 -6 -3 -8 3
-5 14 9 47 -29 37 -44 -5 -8 -3 -10 5 -4 7 4 22 -2 36 -15 l24 -23 -57 -55
c-31 -30 -61 -54 -66 -53 -5 1 -6 -6 -2 -16 4 -11 -1 -9 -14 7 -20 25 -24 37
-20 55 1 6 -2 7 -6 3 -4 -4 -22 6 -41 22 -18 17 -39 30 -45 30 -16 0 5 21 23
23 8 2 15 6 16 11 0 4 12 20 26 34 13 15 32 40 42 55 17 27 18 27 32 7 8 -11
11 -25 7 -32z"/>
<path d="M2448 7699 c-10 -5 -18 -19 -18 -29 0 -12 -7 -20 -17 -21 -11 0 -13
-3 -5 -6 14 -6 16 -33 2 -33 -5 0 -7 -7 -4 -15 9 -24 -35 -104 -87 -156 -38
-39 -61 -52 -119 -69 -54 -16 -74 -27 -82 -45 -18 -41 8 -68 81 -83 40 -9 59
-17 55 -24 -4 -6 -3 -8 3 -5 15 9 75 -22 67 -35 -4 -6 -3 -8 3 -5 23 14 83
-82 86 -138 1 -18 5 -31 10 -28 4 2 7 -4 7 -15 0 -29 35 -55 64 -48 19 5 28
16 36 49 40 160 110 235 235 252 57 8 85 28 85 60 0 31 -28 52 -84 65 -27 6
-63 20 -80 32 -48 33 -97 90 -92 105 3 8 1 11 -4 8 -11 -7 -24 21 -51 114 -23
80 -46 97 -91 70z m57 -271 c11 -18 20 -36 20 -40 0 -8 15 -23 23 -23 4 -1 17
-6 29 -13 16 -9 20 -17 15 -31 -11 -29 -99 -121 -115 -121 -14 0 -32 26 -29
43 1 4 -4 6 -10 5 -7 -2 -12 3 -10 10 1 6 -1 11 -5 10 -5 -1 -25 8 -45 21
l-38 23 50 39 c28 22 50 44 50 50 0 5 10 14 23 19 12 5 17 9 10 9 -13 1 -7 31
6 31 4 0 15 -15 26 -32z"/>
<path d="M8357 6937 c-9 -12 -17 -32 -17 -45 0 -34 -40 -102 -70 -117 -14 -7
-40 -16 -58 -20 -65 -14 -56 -74 11 -75 59 0 117 -54 117 -108 0 -11 8 -30 19
-43 24 -30 43 -17 60 41 7 25 16 38 23 34 7 -4 8 -2 4 5 -9 14 12 43 25 35 5
-3 8 0 7 8 -2 7 5 12 14 12 10 -1 15 2 12 7 -3 5 5 9 18 10 59 2 82 17 70 48
-8 23 -23 31 -56 31 -41 0 -111 72 -120 125 -4 22 -16 47 -25 56 -16 15 -19
15 -34 -4z"/>
<path d="M2053 5198 c-6 -7 -14 -28 -18 -46 -3 -18 -11 -30 -16 -27 -5 4 -6 0
-3 -8 3 -8 -9 -31 -27 -51 -23 -27 -37 -35 -52 -30 -13 4 -17 2 -13 -5 4 -6 0
-11 -11 -11 -10 0 -28 -7 -40 -15 -21 -15 -21 -17 -5 -35 9 -11 22 -20 29 -20
7 0 13 -6 13 -12 0 -10 2 -10 8 -1 10 16 71 -13 86 -42 6 -11 14 -22 17 -25 3
-3 9 -18 13 -35 4 -16 15 -38 23 -48 15 -16 17 -16 28 0 7 10 15 32 19 48 10
46 65 104 106 110 61 10 73 33 41 73 -20 23 -41 29 -41 11 0 -16 -59 23 -77
51 -9 14 -22 48 -28 75 -12 51 -32 68 -52 43z"/>
<path d="M4075 2160 c-4 -6 -10 -8 -14 -6 -4 3 -8 -14 -10 -38 -2 -47 10 -63
49 -66 14 -1 460 -2 992 -1 1063 1 998 -3 998 61 0 64 68 60 -1020 60 -659 0
-991 -3 -995 -10z"/>
</g>
</svg>
