<?xml version="1.0" standalone="no"?>
<!DOCTYPE svg PUBLIC "-//W3C//DTD SVG 20010904//EN"
 "http://www.w3.org/TR/2001/REC-SVG-20010904/DTD/svg10.dtd">
<svg version="1.0" xmlns="http://www.w3.org/2000/svg"
 width="1024.000000pt" height="1024.000000pt" viewBox="0 0 1024.000000 1024.000000"
 preserveAspectRatio="xMidYMid meet">
<metadata>
Created by potrace 1.16, written by Peter Selinger 2001-2019
</metadata>
<g transform="translate(0.000000,1024.000000) scale(0.100000,-0.100000)"
fill="#000000" stroke="none">
<path d="M5077 8349 c-10 -6 -40 -57 -66 -114 -237 -506 -530 -826 -800 -875
-67 -12 -80 -11 -211 22 -96 24 -131 20 -148 -16 -13 -29 -5 -64 36 -166 101
-253 165 -530 193 -832 25 -276 -22 -403 -143 -383 -56 10 -212 92 -303 160
-80 59 -259 232 -366 354 -53 60 -59 63 -90 57 -19 -3 -39 -7 -46 -8 -7 -1
-10 -5 -8 -9 8 -12 -104 -108 -154 -134 -94 -47 -155 -58 -286 -52 -66 3 -145
13 -175 21 -79 22 -240 86 -349 140 -52 25 -100 46 -107 46 -26 0 -65 -45 -66
-75 0 -17 28 -88 65 -165 181 -377 260 -677 236 -896 -15 -138 -64 -216 -174
-277 -41 -22 -63 -41 -70 -61 -17 -48 8 -73 122 -121 347 -145 623 -388 664
-584 26 -126 -18 -230 -155 -366 -50 -49 -124 -110 -165 -135 -137 -84 -156
-101 -159 -146 -4 -60 13 -70 174 -99 281 -52 493 -143 676 -292 121 -98 198
-249 185 -361 -6 -58 9 -101 40 -113 38 -14 47 -12 114 34 140 96 391 230 599
320 279 121 592 208 833 232 77 8 72 16 57 -102 -29 -216 -94 -441 -176 -608
-150 -308 -340 -507 -686 -720 -63 -39 -40 -135 31 -135 29 0 167 80 267 154
37 27 109 90 162 140 309 295 496 693 545 1161 l12 110 75 -3 c318 -12 906
-223 1305 -468 61 -37 136 -81 167 -98 l57 -31 28 21 c26 20 28 27 34 115 11
157 73 265 221 385 150 120 384 214 659 264 112 20 153 38 162 69 8 31 -20 79
-60 104 -21 13 -69 44 -108 68 -38 24 -111 84 -160 134 -180 179 -207 318 -97
500 90 150 338 335 602 450 76 33 106 57 115 92 8 35 -16 68 -73 97 -96 49
-147 131 -161 261 -25 220 50 523 214 865 47 98 85 190 85 204 0 14 -9 35 -20
46 -35 35 -53 32 -203 -40 -215 -103 -358 -141 -525 -141 -165 1 -244 32 -358
142 -92 90 -109 91 -179 12 -27 -32 -113 -121 -190 -198 -155 -156 -268 -238
-400 -292 -93 -38 -123 -40 -158 -13 -125 98 -54 726 137 1219 41 107 44 133
16 161 -24 24 -71 26 -131 5 -113 -40 -196 -39 -312 5 -68 26 -183 101 -180
118 2 6 -3 9 -10 6 -27 -10 -203 192 -298 341 -74 115 -84 133 -170 305 -44
91 -88 173 -97 183 -17 19 -67 22 -95 6z m103 -341 c151 -305 376 -576 580
-699 115 -68 198 -92 326 -93 l110 -1 -37 -113 c-86 -256 -135 -518 -145 -772
-10 -236 19 -364 97 -436 49 -45 89 -58 162 -51 173 14 384 139 617 363 69 67
131 119 138 116 7 -2 22 4 32 13 18 17 21 16 57 -13 106 -83 219 -116 393
-115 168 1 313 34 454 104 33 16 61 29 62 29 2 0 -4 -16 -13 -35 -9 -19 -20
-32 -24 -29 -4 2 -11 -1 -15 -7 -5 -8 -3 -9 6 -4 15 9 10 -7 -40 -135 -181
-459 -186 -817 -14 -1018 l33 -39 -82 -41 c-112 -55 -225 -130 -327 -217 -200
-169 -290 -327 -290 -504 1 -139 55 -245 200 -391 52 -53 114 -107 138 -120
47 -26 53 -40 20 -40 -52 0 -254 -62 -360 -111 -62 -28 -124 -52 -137 -51 -14
0 -19 -3 -12 -7 7 -5 -13 -23 -56 -51 -37 -24 -108 -84 -158 -134 -90 -91
-133 -160 -165 -261 -25 -80 -18 -78 -100 -29 -81 49 -364 192 -470 238 -297
130 -636 224 -883 244 l-82 7 -2 125 -2 125 132 110 c488 409 906 755 1102
915 77 63 202 165 277 228 83 68 142 111 149 106 7 -4 9 -3 6 3 -4 6 70 75
165 154 94 78 180 151 190 161 24 24 23 73 -2 98 -41 41 -68 28 -217 -97 -115
-97 -478 -396 -738 -608 -152 -123 -397 -325 -473 -387 -47 -40 -87 -66 -94
-62 -6 4 -8 3 -4 -4 4 -6 -55 -63 -141 -135 -82 -69 -193 -163 -248 -210
l-100 -85 -5 1475 c-5 1445 -5 1475 -24 1489 -28 20 -80 18 -101 -6 -16 -18
-17 -97 -16 -1485 0 -806 -2 -1465 -5 -1465 -3 0 -139 111 -302 248 -163 136
-356 295 -427 354 -72 58 -187 153 -256 210 -69 56 -210 173 -314 258 -104 85
-288 237 -410 338 -121 100 -231 186 -244 189 -14 3 -36 0 -50 -8 -20 -12 -27
-24 -29 -56 -3 -41 -2 -43 85 -116 48 -41 178 -148 288 -237 250 -203 279
-226 334 -273 24 -21 76 -64 115 -95 39 -31 76 -61 82 -67 6 -5 80 -66 164
-135 114 -93 937 -776 958 -795 2 -2 5 -60 6 -129 l3 -125 -36 -5 c-20 -3 -61
-8 -91 -11 -369 -41 -859 -219 -1279 -464 -58 -33 -107 -59 -109 -57 -2 2 -10
30 -18 63 -65 252 -386 496 -787 597 l-128 32 73 56 c182 140 280 274 308 425
49 256 -195 567 -612 783 l-88 46 42 49 c22 28 53 77 68 110 45 99 53 153 47
309 -4 117 -11 164 -40 276 -37 142 -90 292 -151 424 -20 43 -36 83 -36 87 0
5 17 1 38 -10 56 -28 208 -80 287 -98 98 -22 291 -21 375 1 85 23 174 68 231
116 40 33 49 37 59 25 6 -8 8 -20 4 -27 -4 -7 -3 -10 1 -5 5 4 63 -46 129
-111 289 -282 549 -417 716 -372 63 17 121 79 149 161 66 189 15 674 -110
1059 -17 52 -35 108 -39 123 l-9 28 73 -7 c125 -11 282 37 413 127 171 118
365 360 518 647 39 72 72 131 75 131 3 0 30 -50 60 -111z"/>
</g>
</svg>
