<?xml version="1.0" standalone="no"?>
<!DOCTYPE svg PUBLIC "-//W3C//DTD SVG 20010904//EN" "http://www.w3.org/TR/2001/REC-SVG-20010904/DTD/svg10.dtd">
<svg xmlns="http://www.w3.org/2000/svg" version="1.0" width="1024.000000pt" height="1024.000000pt" viewBox="0 0 1024.000000 1024.000000" preserveAspectRatio="xMidYMid meet">
<metadata>
Created by potrace 1.16, written by Peter Selinger 2001-2019
<meta name="Producer" content="Online-Convert"/></metadata>
<g transform="translate(0.000000,1024.000000) scale(0.100000,-0.100000)" fill="#000000" stroke="none">
<path d="M7195 8160 c-80 -21 -181 -72 -230 -116 -68 -59 -236 -228 -314 -313 -40 -44 -78 -78 -84 -74 -5 3 -7 2 -4 -4 6 -9 -10 -30 -86 -113 -22 -25 -75 -83 -117 -130 -41 -46 -84 -93 -95 -105 -11 -12 -42 -45 -69 -73 -36 -40 -51 -50 -61 -42 -9 8 -14 7 -18 -4 -4 -10 -1 -13 9 -9 22 8 17 -11 -9 -35 -13 -12 -27 -19 -32 -15 -4 5 -5 3 -1 -4 4 -7 -11 -29 -34 -53 -22 -22 -40 -43 -40 -45 0 -2 -17 -21 -37 -43 -21 -21 -51 -55 -68 -74 -16 -19 -68 -77 -115 -129 -47 -52 -99 -108 -114 -126 -16 -18 -33 -30 -39 -26 -6 3 -7 1 -3 -6 9 -14 -193 -232 -208 -224 -6 3 -8 3 -4 -2 10 -11 -51 -87 -64 -79 -7 4 -8 2 -4 -4 8 -14 -53 -84 -67 -75 -5 3 -7 2 -4 -4 7 -11 -40 -73 -55 -73 -5 0 -6 5 -2 12 4 7 3 8 -5 4 -6 -4 -9 -12 -5 -17 8 -13 -25 -50 -38 -43 -4 3 -7 0 -6 -8 2 -7 -4 -12 -12 -10 -8 2 -12 0 -8 -4 8 -7 -14 -35 -106 -136 -33 -36 -90 -99 -126 -139 -36 -41 -99 -110 -141 -154 -42 -44 -89 -96 -105 -115 -35 -43 -45 -50 -59 -43 -5 4 -7 3 -3 -2 10 -11 -112 -146 -125 -138 -6 3 -7 1 -3 -5 4 -6 -8 -28 -26 -47 -29 -32 -33 -34 -40 -18 -7 15 -8 14 -4 -4 4 -24 -35 -68 -49 -56 -4 5 -5 3 -2 -3 6 -11 -41 -64 -48 -54 -2 3 -7 1 -12 -4 -5 -5 -3 -6 5 -2 25 15 11 -7 -39 -60 -29 -29 -56 -51 -62 -47 -6 3 -7 2 -4 -3 8 -15 -90 -117 -104 -108 -8 5 -9 3 -4 -6 9 -15 -652 -673 -668 -663 -5 3 -7 2 -4 -4 4 -6 -25 -41 -64 -79 -216 -210 -282 -281 -318 -343 -22 -36 -42 -81 -46 -99 -5 -25 -11 -32 -22 -27 -12 4 -13 2 -5 -7 6 -8 11 -47 10 -88 0 -115 41 -210 127 -295 16 -16 29 -33 27 -38 -1 -5 2 -6 7 -3 5 4 11 1 13 -5 2 -6 13 -12 23 -14 11 -1 36 -9 56 -18 56 -25 176 -31 233 -12 26 9 54 14 62 11 7 -3 16 0 20 6 9 13 35 -33 27 -47 -4 -5 -3 -7 2 -3 11 10 38 -29 30 -42 -3 -6 -1 -10 5 -10 15 0 62 -108 54 -122 -4 -6 -2 -8 3 -5 13 8 26 -20 16 -35 -3 -6 -1 -8 4 -5 6 4 16 -6 21 -23 6 -16 25 -50 41 -74 17 -25 31 -50 31 -56 0 -6 5 -8 10 -5 6 3 10 1 10 -6 0 -7 3 -10 6 -6 4 3 25 -3 48 -15 61 -32 192 -36 269 -9 31 11 57 16 57 10 0 -5 4 -9 10 -9 5 0 7 6 5 13 -3 7 11 21 32 32 21 10 66 41 101 67 36 29 68 46 75 42 7 -4 9 -3 5 1 -5 5 44 60 107 124 63 64 127 133 142 154 15 21 32 36 39 33 7 -3 11 0 8 7 -2 7 15 33 38 58 24 25 56 62 72 82 17 19 35 33 40 30 6 -4 8 -3 4 2 -9 9 209 251 315 351 44 40 84 71 90 67 6 -3 7 -2 4 4 -4 5 7 23 23 38 17 16 30 25 30 21 0 -5 10 4 22 20 12 16 27 32 34 36 48 30 133 140 162 209 21 49 21 83 1 149 -17 59 -104 144 -196 190 -159 80 -252 148 -237 172 4 6 2 8 -4 4 -14 -8 -42 32 -42 61 0 13 -4 23 -9 23 -15 0 -2 116 19 170 11 29 34 72 51 97 33 47 149 167 235 243 94 84 208 185 224 200 44 42 83 70 91 64 5 -3 9 3 10 13 0 19 226 220 241 215 4 -1 7 1 6 6 -4 9 70 81 183 181 46 41 158 144 249 231 243 230 266 251 275 242 5 -4 5 -2 2 4 -7 12 101 121 115 117 4 -2 7 1 5 5 -3 13 109 112 118 104 5 -4 5 -2 2 4 -7 13 220 231 235 226 5 -1 7 1 4 6 -7 12 271 285 283 278 5 -3 8 0 7 7 0 7 50 67 111 133 62 65 120 129 129 142 8 12 20 19 26 16 6 -4 8 -2 5 3 -4 6 7 37 23 69 16 33 30 67 30 77 0 9 4 17 8 17 4 0 7 42 7 93 -1 77 -6 102 -29 151 -14 33 -38 74 -51 92 -13 17 -21 35 -17 40 4 5 3 6 -2 2 -4 -4 -30 10 -56 31 -26 21 -62 43 -79 51 -24 9 -29 15 -19 22 8 5 4 6 -13 3 -17 -4 -32 -1 -43 10 -9 9 -16 12 -16 7 0 -6 -18 -6 -47 0 -61 11 -103 8 -178 -12z m227 -193 c92 -44 141 -117 140 -208 -1 -70 -25 -121 -96 -204 -84 -98 -329 -335 -339 -328 -6 3 -7 2 -4 -4 3 -5 -9 -25 -28 -43 -31 -30 -40 -32 -36 -7 1 5 -3 6 -9 2 -8 -5 -8 -11 -1 -19 8 -9 6 -18 -7 -30 -10 -9 -22 -13 -26 -9 -4 5 -6 1 -4 -7 2 -8 -3 -14 -9 -13 -7 2 -12 -1 -10 -6 3 -12 -140 -151 -149 -143 -4 4 -4 2 -1 -4 3 -6 -19 -33 -50 -60 -32 -27 -54 -43 -50 -37 4 6 3 14 -2 18 -6 3 -8 -3 -6 -13 4 -23 -121 -152 -151 -156 -10 -2 -19 -8 -19 -15 0 -19 -56 -71 -68 -64 -6 3 -7 2 -4 -4 4 -6 -74 -85 -173 -177 -197 -184 -224 -208 -234 -201 -3 3 -4 2 -1 -2 8 -10 -26 -43 -38 -36 -5 3 -7 1 -4 -4 8 -13 -19 -37 -32 -29 -5 4 -13 1 -17 -5 -4 -8 -3 -9 4 -5 7 4 12 3 12 -2 0 -16 -199 -184 -210 -177 -5 3 -7 0 -4 -8 5 -14 -43 -54 -59 -49 -5 1 -6 -2 -3 -6 7 -12 -28 -44 -39 -35 -4 5 -5 3 -2 -3 7 -12 -58 -68 -78 -69 -5 -1 -9 -6 -8 -12 2 -7 -10 -22 -25 -33 -15 -12 -60 -52 -101 -88 -41 -37 -84 -76 -96 -87 -13 -11 -39 -35 -59 -52 -37 -34 -52 -42 -40 -20 4 7 3 9 -2 4 -5 -5 -9 -12 -9 -15 0 -4 -59 -66 -131 -137 -72 -72 -151 -160 -176 -197 -25 -38 -48 -65 -52 -61 -4 4 -4 -1 0 -11 4 -11 3 -17 -2 -14 -5 4 -10 -6 -11 -20 -1 -15 -8 -51 -17 -80 -8 -29 -16 -86 -17 -128 l-2 -75 -81 -92 c-75 -85 -254 -267 -263 -267 -2 0 -1 5 3 12 4 7 3 8 -5 4 -6 -4 -9 -11 -6 -15 6 -11 -85 -101 -102 -101 -7 0 -13 -5 -13 -12 0 -17 -152 -158 -163 -151 -6 3 -7 1 -4 -5 9 -13 -152 -164 -166 -155 -6 3 -7 1 -3 -5 4 -7 2 -12 -4 -12 -6 0 -9 -4 -6 -9 7 -11 -119 -123 -128 -113 -4 4 -6 2 -4 -5 4 -17 -182 -194 -195 -186 -5 3 -7 2 -4 -4 3 -5 -19 -34 -49 -64 -46 -45 -56 -52 -65 -39 -9 13 -10 12 -5 -2 7 -22 -72 -90 -136 -117 -29 -12 -46 -15 -42 -8 5 9 3 9 -7 -1 -7 -6 -29 -12 -49 -12 -27 0 -32 3 -20 11 12 8 9 9 -12 5 -29 -7 -81 12 -72 25 3 5 -1 6 -9 3 -18 -7 -64 51 -83 103 -21 61 -15 184 8 151 7 -9 8 -8 4 5 -3 10 -1 28 5 40 18 35 202 217 212 210 6 -3 7 -2 4 4 -9 15 108 127 124 118 8 -5 10 -4 5 3 -8 14 40 62 61 62 8 0 11 5 8 10 -8 12 44 57 60 52 5 -2 6 0 2 4 -10 11 274 295 287 287 6 -3 8 -2 3 2 -10 11 93 116 106 108 6 -3 7 -2 4 4 -6 10 131 152 148 153 6 0 10 6 10 13 1 6 6 11 13 10 7 -2 11 1 9 6 -1 4 75 91 169 192 94 101 215 232 269 291 54 59 103 104 109 101 6 -3 8 -3 4 2 -11 11 12 36 25 28 6 -4 7 -1 3 6 -5 7 0 21 10 32 14 16 20 17 33 6 14 -10 14 -10 4 4 -10 13 -6 22 25 55 20 22 66 71 101 110 35 38 83 89 105 114 23 25 120 131 215 235 96 105 194 213 219 240 25 28 50 49 55 47 5 -1 6 2 3 7 -8 12 64 92 76 85 5 -3 7 -1 6 4 -5 15 269 319 284 314 4 -1 7 4 6 10 -2 7 4 11 12 10 8 -2 12 0 8 4 -11 10 72 105 85 97 7 -3 9 -3 5 2 -6 7 47 75 117 150 11 12 35 38 53 58 19 20 38 37 43 37 5 0 9 6 9 13 0 7 17 31 38 53 63 68 176 190 207 226 123 139 180 196 188 191 6 -3 7 -1 3 5 -3 6 39 59 95 119 56 59 120 127 142 150 21 24 44 40 50 36 5 -3 7 -2 4 4 -16 26 153 136 223 145 64 8 120 0 172 -25z m-2423 -3423 c24 -25 77 -65 118 -89 41 -23 70 -45 66 -47 -4 -3 -2 -3 5 -1 36 9 182 -92 182 -126 0 -39 -75 -131 -102 -123 -4 1 -5 -4 -3 -11 3 -6 -9 -23 -26 -37 -17 -14 -65 -54 -106 -90 -42 -36 -80 -63 -87 -62 -6 2 -8 0 -3 -4 9 -10 -53 -75 -65 -68 -5 3 -7 1 -6 -4 5 -14 -134 -162 -145 -155 -5 3 -7 1 -4 -4 8 -13 -82 -115 -95 -107 -5 3 -7 1 -6 -4 3 -9 -33 -61 -63 -91 -8 -9 -55 -62 -103 -118 -49 -56 -93 -100 -99 -96 -6 3 -7 1 -3 -5 4 -7 -16 -35 -49 -69 -46 -45 -59 -53 -67 -42 -8 11 -9 11 -5 -3 6 -16 -3 -26 -101 -110 -18 -16 -35 -28 -39 -28 -5 0 -21 -11 -37 -25 -35 -30 -113 -55 -171 -55 -32 0 -47 6 -67 28 -36 36 -81 130 -81 165 0 15 -4 23 -8 16 -4 -7 -15 7 -28 36 -11 26 -37 74 -58 108 l-36 60 34 30 c19 17 92 86 162 154 74 72 132 121 139 117 6 -4 8 -3 5 3 -3 5 81 92 186 194 254 244 559 543 611 598 22 25 55 60 71 78 17 18 32 33 35 33 3 0 25 -21 49 -46z"/>
<path d="M3380 7001 c0 -5 -17 -12 -37 -17 -21 -4 -40 -8 -43 -9 -29 -9 -78 -32 -142 -66 -43 -22 -83 -37 -89 -33 -7 4 -9 3 -6 -3 15 -23 -117 -54 -198 -47 -58 5 -137 33 -129 45 3 5 -1 6 -9 3 -18 -7 -180 70 -170 80 5 4 4 6 -2 5 -18 -5 -86 12 -81 20 3 4 -6 6 -21 3 -14 -3 -23 -1 -20 4 3 5 -35 8 -87 7 -117 -2 -222 -36 -313 -101 -16 -12 -33 -19 -37 -15 -3 3 -6 1 -6 -5 0 -12 -35 -52 -45 -52 -3 0 -10 10 -15 23 -8 21 -9 21 -9 -6 -1 -17 3 -26 9 -22 7 4 9 -3 5 -22 -16 -73 -16 -73 2 -73 9 0 27 -9 39 -21 27 -25 65 -20 119 17 20 13 33 19 30 12 -4 -7 2 -3 12 9 36 43 109 67 208 67 82 0 97 -3 163 -34 39 -18 72 -37 72 -42 0 -4 3 -7 8 -6 8 3 165 -61 172 -71 3 -3 51 -7 108 -9 89 -3 113 0 183 23 44 14 85 22 92 19 7 -4 9 -3 4 1 -8 10 111 77 193 108 39 16 77 22 130 21 85 0 126 -14 288 -93 56 -28 108 -51 115 -51 9 0 9 -2 -1 -9 -11 -7 -11 -9 2 -14 9 -4 16 -2 16 4 0 5 12 7 28 3 47 -12 218 -13 258 -3 98 25 245 110 287 165 12 16 14 30 7 60 -18 77 -81 91 -164 36 -40 -27 -51 -32 -131 -68 -60 -27 -184 -28 -249 -3 -28 11 -53 25 -54 30 -2 5 -8 7 -12 4 -5 -3 -40 10 -77 28 -37 19 -90 42 -117 51 -26 9 -57 21 -67 27 -11 5 -58 12 -107 15 -48 3 -93 7 -99 9 -7 3 -13 1 -13 -4z"/>
<path d="M6305 5293 c-113 -27 -266 -108 -299 -158 -9 -14 -21 -23 -26 -20 -9 5 -5 -17 12 -73 7 -25 20 -38 45 -48 38 -17 39 -16 139 50 75 51 123 67 196 67 76 1 215 -42 202 -62 -3 -5 2 -6 11 -3 9 4 28 -2 43 -13 15 -10 58 -32 97 -49 64 -26 80 -29 186 -29 l116 0 144 72 c140 71 239 103 239 79 0 -6 4 -5 9 3 6 10 20 12 47 8 67 -11 115 -28 109 -37 -3 -6 0 -7 8 -5 19 8 109 -34 101 -47 -4 -7 -2 -8 4 -4 6 4 30 -3 54 -15 178 -91 349 -89 523 7 124 68 162 110 150 164 -7 32 -58 76 -75 65 -6 -4 -9 -1 -8 6 2 6 -3 14 -10 16 -8 3 -10 -1 -6 -11 3 -9 2 -16 -4 -16 -6 0 -50 -24 -99 -52 l-88 -53 -105 0 c-92 0 -113 3 -173 28 -81 33 -129 61 -121 70 4 3 -2 6 -12 5 -11 0 -55 12 -99 27 -62 22 -99 28 -165 29 -124 1 -167 -10 -295 -79 -48 -25 -94 -44 -102 -41 -8 3 -12 2 -8 -3 12 -20 -83 -44 -152 -39 -75 6 -168 42 -156 62 5 7 2 7 -8 -1 -12 -10 -20 -8 -42 6 -15 10 -24 21 -20 26 5 4 2 5 -4 1 -7 -4 -45 7 -84 24 -91 41 -208 59 -274 43z"/>
<path d="M6685 3429 c-11 -4 -38 -8 -60 -8 -47 -1 -112 -22 -175 -56 -121 -64 -214 -97 -280 -98 -76 -1 -110 4 -110 16 0 4 -4 6 -9 3 -5 -3 -67 22 -137 55 -136 64 -247 92 -329 83 -67 -8 -172 -45 -227 -79 -29 -19 -56 -31 -60 -28 -5 2 -7 1 -6 -4 2 -4 -12 -23 -30 -41 -23 -24 -32 -42 -32 -67 0 -43 19 -85 35 -79 7 3 16 1 20 -5 12 -20 50 -11 86 18 50 41 108 73 121 65 6 -4 8 -3 5 3 -15 23 106 43 189 31 51 -8 167 -62 156 -73 -4 -5 -2 -5 5 -1 7 4 29 -2 50 -12 37 -19 134 -53 163 -58 137 -24 218 -9 371 66 57 28 109 48 116 45 8 -2 11 0 8 5 -3 6 6 15 20 20 32 12 168 13 161 1 -3 -4 6 -6 19 -3 28 5 218 -86 209 -100 -3 -5 5 -6 19 -3 14 4 28 2 31 -4 4 -5 41 -17 83 -27 141 -31 276 -7 397 71 78 50 106 81 106 117 0 28 -29 78 -47 80 -4 0 -18 4 -29 9 -17 6 -39 -3 -97 -40 -91 -57 -163 -76 -255 -66 -36 4 -73 11 -81 15 -9 4 -43 21 -76 36 -33 16 -62 31 -65 34 -3 3 -14 7 -25 8 -11 2 -31 10 -45 18 -26 14 -84 31 -135 41 -16 3 -32 8 -35 13 -3 4 -14 4 -25 -1z"/>
</g>
</svg>
