<?xml version="1.0" standalone="no"?>
<!DOCTYPE svg PUBLIC "-//W3C//DTD SVG 20010904//EN"
 "http://www.w3.org/TR/2001/REC-SVG-20010904/DTD/svg10.dtd">
<svg version="1.0" xmlns="http://www.w3.org/2000/svg"
 width="1024.000000pt" height="1024.000000pt" viewBox="0 0 1024.000000 1024.000000"
 preserveAspectRatio="xMidYMid meet">
<metadata>
Created by potrace 1.16, written by Peter Selinger 2001-2019
</metadata>
<g transform="translate(0.000000,1024.000000) scale(0.100000,-0.100000)"
fill="#000000" stroke="none">
<path d="M3630 8639 c-173 -10 -315 -46 -459 -114 -62 -30 -135 -71 -162 -91
-27 -20 -49 -33 -49 -30 0 4 -53 -46 -118 -111 -166 -165 -256 -307 -321 -503
-67 -205 -80 -451 -35 -657 14 -65 26 -125 27 -133 1 -8 5 -17 9 -20 4 -3 9
-17 10 -30 2 -14 6 -29 10 -35 4 -5 26 -46 49 -90 23 -44 55 -100 72 -125 16
-25 30 -50 30 -57 0 -7 3 -11 7 -10 4 1 29 -25 57 -59 88 -105 264 -243 361
-283 18 -7 29 -18 25 -24 -3 -5 -2 -7 4 -4 5 3 45 -7 89 -23 43 -17 94 -33
111 -36 18 -3 31 -10 28 -14 -2 -4 7 -5 20 -2 14 2 25 0 25 -6 0 -6 -10 -13
-22 -15 -13 -2 -9 -2 7 0 45 7 188 3 200 -6 5 -5 30 -6 55 -4 25 2 78 6 118 8
41 2 76 6 79 9 4 3 19 6 35 6 15 0 69 13 120 30 50 16 95 27 100 24 4 -3 8 -1
8 4 0 16 32 23 46 11 12 -10 13 -8 7 7 -6 17 -5 17 10 5 15 -12 17 -12 12 0
-3 9 23 30 79 63 97 55 217 161 236 205 16 40 6 79 -25 93 -13 6 -22 15 -19
19 3 5 -2 6 -10 3 -9 -3 -16 -2 -16 2 0 5 -21 8 -47 6 -27 -2 -88 2 -138 7
-49 6 -97 11 -105 12 -8 0 -55 10 -103 21 -62 14 -85 24 -75 30 9 7 7 8 -8 4
-23 -7 -191 71 -223 103 -12 12 -21 19 -21 16 0 -3 -19 7 -42 23 -52 36 -128
116 -186 195 -49 66 -125 216 -118 234 3 6 0 13 -5 15 -17 6 -49 190 -49 283
0 120 23 256 60 350 39 103 106 215 128 215 14 0 14 2 3 9 -11 7 -1 23 47 70
33 34 56 58 49 55 -16 -9 17 22 83 78 30 25 83 62 117 82 70 41 87 64 78 106
-8 36 -31 56 -75 65 -19 4 -39 10 -45 14 -5 4 -66 3 -135 0z m-190 -249 c-29
-33 -56 -60 -61 -60 -5 0 -8 -3 -7 -7 2 -5 -17 -37 -41 -72 -24 -35 -63 -105
-87 -155 -41 -88 -94 -264 -94 -315 0 -13 -8 -33 -17 -44 -10 -11 -12 -17 -5
-13 9 6 12 -20 12 -117 0 -131 17 -245 50 -342 11 -32 18 -61 15 -65 -3 -5 -1
-10 4 -12 4 -1 21 -28 36 -58 116 -232 294 -411 515 -519 52 -25 97 -48 100
-51 3 -3 10 -5 15 -5 27 0 145 -41 149 -52 3 -7 -1 -10 -10 -6 -7 3 -14 1 -14
-4 0 -12 46 -11 57 1 4 5 2 6 -4 2 -7 -4 -13 -2 -13 3 0 6 7 11 15 11 8 0 15
-4 15 -9 0 -4 11 -6 25 -4 15 3 34 -3 51 -16 l27 -21 -67 -30 c-83 -38 -250
-83 -282 -77 -13 2 -24 0 -24 -6 0 -13 -278 -3 -352 13 -58 13 -73 25 -40 33
9 3 5 4 -10 4 -15 -1 -24 -5 -22 -9 6 -9 -3 -10 -33 -2 -13 4 -20 11 -16 17 3
5 1 7 -5 3 -16 -10 -129 42 -221 103 -47 31 -119 90 -161 132 -81 81 -184 225
-175 247 3 7 1 11 -3 8 -11 -7 -44 62 -37 75 4 5 2 9 -4 9 -13 0 -46 112 -65
220 -17 99 -15 382 3 388 6 2 9 8 6 12 -14 22 63 252 91 276 8 6 11 14 8 17
-9 9 97 166 157 231 121 132 397 307 434 276 13 -11 14 -10 9 4 -7 19 16 22
35 4 12 -11 13 -10 7 6 -5 14 -2 17 9 12 8 -3 15 -1 15 5 0 6 4 7 10 4 5 -3
18 -1 27 4 10 6 20 11 21 11 2 0 -19 -27 -48 -60z"/>
<path d="M6369 8272 c-26 -23 -33 -37 -33 -65 0 -41 35 -87 66 -87 10 0 18 -4
18 -9 0 -9 344 -6 360 4 36 22 -5 -34 -249 -340 -206 -257 -221 -284 -184
-333 37 -50 48 -52 356 -52 307 0 343 5 367 50 19 36 8 90 -23 114 -26 19 -44
21 -228 24 l-200 4 42 51 c23 29 46 51 51 49 5 -1 7 1 4 6 -2 4 74 107 171
228 96 120 180 229 185 241 13 26 3 87 -17 103 -8 7 -13 16 -10 19 7 12 -7 13
-332 18 l-311 4 -33 -29z"/>
<path d="M5369 7385 c-14 -8 -32 -28 -39 -45 -21 -50 5 -123 39 -112 8 3 11 0
7 -6 -4 -7 52 -10 183 -9 167 2 188 0 178 -13 -7 -8 -66 -80 -133 -160 -212
-255 -264 -321 -270 -346 -6 -25 -18 -31 -29 -14 -10 16 -25 12 -19 -5 4 -8
10 -12 15 -9 5 3 9 -2 9 -10 0 -9 4 -16 9 -16 5 0 12 -11 15 -25 13 -51 40
-55 348 -55 263 0 285 1 315 20 53 32 55 122 3 150 -13 7 -86 10 -213 8 l-193
-3 76 91 c41 50 78 89 83 87 4 -3 6 0 5 5 -2 6 38 59 87 118 180 216 185 224
185 263 0 48 -22 78 -68 91 -21 6 -149 10 -302 10 -209 -1 -270 -4 -291 -15z"/>
<path d="M3240 5696 c-80 -4 -160 -8 -177 -9 -18 0 -31 -3 -28 -6 3 -2 -27
-13 -66 -23 -112 -29 -230 -81 -323 -141 -46 -31 -88 -52 -92 -49 -4 4 -4 1 0
-5 4 -7 2 -13 -3 -13 -17 0 -155 -135 -202 -198 -24 -31 -48 -61 -54 -67 -7
-5 -13 -14 -15 -20 -1 -5 -12 -28 -25 -50 -13 -22 -38 -71 -57 -110 -18 -38
-36 -72 -41 -73 -4 -2 -5 -7 -3 -11 3 -4 -6 -41 -19 -83 -13 -42 -27 -99 -31
-127 -3 -28 -9 -49 -13 -47 -3 2 -7 -78 -9 -177 -2 -135 1 -207 13 -277 9 -52
18 -105 18 -117 1 -13 5 -23 10 -23 4 0 7 -7 7 -16 0 -9 -5 -12 -12 -8 -7 4
-3 -3 10 -16 13 -12 21 -28 18 -36 -3 -8 -1 -14 5 -14 6 0 9 -6 6 -14 -3 -8
-2 -16 2 -18 5 -2 25 -34 44 -73 20 -38 48 -89 62 -112 24 -39 24 -42 8 -52
-16 -9 -15 -10 6 -8 21 2 30 -9 68 -78 24 -44 55 -117 69 -163 24 -75 26 -94
21 -185 -3 -59 -10 -103 -16 -105 -6 -2 -8 -8 -5 -14 11 -18 -57 -138 -111
-197 -48 -51 -271 -219 -279 -210 -2 2 -8 13 -14 24 -8 15 -11 16 -12 4 0 -8
5 -20 10 -25 7 -7 -11 -25 -57 -56 -296 -198 -505 -466 -617 -787 -41 -118
-44 -158 -16 -194 40 -51 63 -48 430 49 52 13 101 22 109 19 9 -3 12 -3 8 1
-9 9 213 66 231 59 6 -2 12 -1 12 4 0 16 74 22 86 7 7 -10 15 -12 25 -5 11 7
11 9 -3 9 -10 0 -18 3 -18 8 0 4 70 22 157 39 117 25 159 30 170 22 10 -9 13
-8 13 3 0 9 13 18 33 21 176 32 270 47 280 46 7 -1 19 1 27 4 30 12 303 48
321 42 10 -4 19 -2 19 3 0 10 269 44 357 45 32 0 69 -3 83 -7 25 -8 25 -8 5 8
-19 17 -17 17 52 12 46 -3 75 -1 79 6 4 6 27 8 58 5 29 -3 59 -1 68 4 9 5 88
12 175 15 87 3 212 9 278 12 158 9 1123 8 1340 -1 94 -4 215 -11 270 -17 55
-5 140 -12 190 -14 106 -6 145 -14 145 -28 0 -7 5 -6 14 1 11 9 39 9 120 0 58
-6 106 -15 106 -18 0 -3 19 -6 43 -6 60 -1 317 -37 317 -45 0 -4 14 -5 30 -2
18 2 30 0 30 -7 0 -6 6 -8 14 -5 23 9 509 -84 514 -98 2 -4 7 -6 12 -3 4 2 48
-3 99 -12 78 -15 91 -20 92 -38 1 -17 2 -18 6 -2 5 20 -2 21 178 -20 130 -30
636 -155 715 -177 201 -56 228 -56 260 -3 27 43 26 109 -5 233 -36 152 -88
271 -175 403 -89 134 -225 271 -359 363 -44 30 -77 58 -73 62 4 4 2 6 -3 5 -6
-2 -41 15 -80 37 -38 23 -94 55 -122 71 -29 16 -50 33 -45 38 4 4 1 5 -6 1
-14 -8 -119 50 -205 112 -49 35 -100 99 -91 114 3 4 0 8 -5 8 -6 0 -10 3 -9 8
1 4 -4 18 -12 32 -25 43 -20 220 9 305 35 104 72 189 85 197 6 4 8 8 4 8 -4 0
2 24 13 53 12 28 26 69 32 90 5 20 14 37 19 37 5 0 7 4 3 9 -7 12 16 101 27
101 4 0 5 6 2 13 -2 7 2 46 11 86 8 40 15 90 15 112 0 28 4 38 11 33 8 -5 10
0 6 17 -3 13 -7 112 -9 219 -1 107 -5 197 -8 200 -3 3 -14 41 -24 85 -39 170
-129 370 -225 498 -20 27 -35 53 -33 59 1 5 -1 7 -6 4 -10 -6 -79 74 -74 87 1
5 -1 6 -6 3 -5 -3 -22 8 -38 25 -16 17 -59 54 -96 81 -38 28 -68 55 -68 59 0
5 -3 8 -7 7 -11 -4 -153 69 -147 75 3 3 -1 4 -8 4 -7 -1 -50 11 -96 26 -46 15
-92 27 -103 27 -10 0 -19 4 -19 8 0 5 -13 7 -30 4 -16 -2 -30 0 -30 5 0 5 -18
7 -40 5 -23 -2 -40 0 -40 6 0 6 -8 8 -17 6 -10 -2 -79 -5 -153 -8 -74 -2 -142
-6 -150 -9 -8 -3 -44 -10 -80 -17 -88 -16 -224 -62 -310 -105 -38 -19 -70 -33
-70 -29 0 3 -7 -2 -16 -10 -8 -9 -41 -32 -72 -53 -126 -83 -274 -256 -352
-413 -18 -36 -35 -67 -39 -70 -3 -3 -8 -12 -9 -20 -2 -8 -19 -69 -38 -135 -19
-66 -42 -167 -52 -225 -9 -58 -20 -106 -24 -108 -4 -2 -5 -9 -2 -16 3 -7 0
-42 -6 -77 -17 -106 -40 -291 -40 -332 0 -23 -4 -36 -10 -32 -6 4 -10 -7 -10
-25 0 -18 4 -29 10 -25 6 4 10 -5 10 -21 0 -66 75 -159 149 -185 18 -6 28 -16
24 -22 -4 -6 0 -8 10 -4 10 3 17 2 17 -4 0 -6 5 -7 11 -3 8 5 10 -1 7 -20 -3
-14 -2 -29 2 -31 5 -3 7 -25 7 -50 -1 -25 1 -45 6 -45 12 0 8 -45 -5 -59 -11
-10 -9 -11 5 -5 16 6 18 3 15 -17 -2 -13 -9 -23 -15 -22 -9 2 -10 -4 -3 -21 5
-13 6 -27 3 -30 -4 -3 -1 -6 6 -6 8 0 11 8 8 20 -3 11 -2 22 3 25 4 3 13 -17
20 -43 6 -26 25 -75 41 -109 16 -35 29 -65 27 -68 -2 -2 7 -12 20 -20 22 -16
22 -42 0 -29 -7 4 -8 2 -4 -5 4 -6 12 -9 17 -5 6 3 36 -18 67 -48 64 -61 127
-100 190 -119 23 -7 42 -15 42 -18 0 -3 19 -7 43 -8 23 -2 43 -7 45 -12 2 -6
10 -7 17 -5 8 3 20 2 27 -2 14 -9 19 -10 60 -12 15 -1 33 -9 42 -17 8 -9 17
-15 18 -13 2 1 10 -2 19 -8 25 -14 39 -48 39 -93 0 -39 -2 -41 -41 -51 -23 -7
-51 -9 -61 -6 -11 2 -17 2 -14 -2 4 -3 -33 -14 -80 -23 -242 -49 -415 -137
-582 -294 -44 -42 -85 -76 -89 -76 -4 1 -8 -2 -8 -6 -1 -5 -6 -18 -13 -31 -12
-21 -19 -22 -117 -22 -58 0 -105 4 -105 9 0 5 -7 12 -16 15 -8 3 -12 2 -9 -4
4 -6 -80 -10 -232 -10 -131 0 -294 -2 -362 -6 -114 -6 -125 -5 -135 12 -6 11
-11 22 -11 27 0 4 -4 7 -9 6 -4 -1 -27 17 -50 38 -22 22 -55 51 -73 65 -18 14
-30 29 -27 32 2 3 1 4 -2 2 -3 -3 -42 19 -87 49 -165 106 -337 174 -550 217
-90 18 -116 26 -112 37 4 11 2 11 -8 3 -8 -7 -17 -9 -20 -5 -10 9 -8 63 2 63
4 0 6 11 4 24 -7 35 49 90 114 111 29 10 59 15 67 12 7 -3 17 -2 22 3 5 5 37
10 71 12 35 2 63 7 63 12 0 4 12 5 26 2 15 -4 23 -3 20 2 -5 8 34 21 59 22 3
0 11 4 18 10 29 24 117 78 117 72 0 -4 6 2 13 14 6 11 28 45 48 75 20 30 45
81 57 115 26 75 52 222 52 292 0 28 3 52 8 52 4 0 6 18 4 39 -3 33 0 40 17 46
11 3 25 3 31 0 5 -3 10 -3 10 2 0 4 20 16 44 26 48 20 100 66 123 110 16 32
34 177 21 177 -4 0 -8 7 -8 15 0 9 -18 91 -41 183 -22 92 -41 183 -42 202 -1
19 -4 37 -7 40 -10 9 -31 130 -25 140 3 6 1 10 -4 10 -6 0 -11 9 -11 19 0 36
-92 285 -137 369 -102 194 -262 359 -450 462 -24 13 -43 28 -43 32 0 5 -5 6
-10 3 -6 -4 -16 -2 -23 3 -7 5 -43 20 -82 33 -38 13 -72 26 -75 29 -3 3 -18 6
-34 7 -16 1 -37 5 -45 9 -9 4 -41 9 -71 11 -30 3 -57 8 -60 11 -3 4 -70 3
-150 -2z m270 -201 c86 -21 130 -37 130 -48 0 -4 4 -6 10 -2 23 14 196 -92
286 -175 59 -55 145 -161 138 -172 -3 -4 -1 -8 5 -8 6 0 17 -13 26 -30 9 -16
13 -30 10 -30 -3 0 4 -9 16 -21 11 -11 18 -27 15 -35 -3 -8 -1 -14 5 -14 6 0
7 -4 4 -10 -3 -5 -2 -10 3 -10 11 0 54 -109 47 -120 -3 -5 1 -10 7 -13 10 -3
10 -7 -1 -21 -12 -14 -12 -16 0 -11 11 4 19 -12 32 -60 10 -36 15 -70 12 -75
-3 -4 -2 -10 3 -12 10 -4 44 -177 37 -188 -3 -5 -1 -10 3 -12 12 -5 85 -305
77 -317 -3 -6 -1 -11 4 -11 6 0 11 -13 11 -29 0 -35 -37 -84 -57 -77 -8 3 -11
2 -8 -4 7 -11 -50 -23 -96 -18 -29 2 -38 -2 -61 -31 -24 -29 -28 -42 -28 -102
0 -37 -5 -80 -10 -94 -9 -24 -15 -27 -45 -23 -19 2 -35 0 -35 -4 0 -11 -194
-10 -206 2 -14 14 -93 -25 -103 -52 -14 -39 -23 -83 -15 -76 4 5 12 -2 18 -15
7 -12 23 -27 37 -34 25 -12 232 -20 259 -10 15 5 80 15 80 12 0 -1 -9 -31 -21
-66 -27 -83 -54 -134 -79 -152 -11 -7 -18 -16 -15 -19 3 -3 -21 -19 -53 -36
-44 -23 -81 -34 -150 -42 -50 -6 -96 -9 -101 -6 -5 4 -11 1 -13 -5 -2 -6 -22
-11 -45 -12 -23 -1 -39 -4 -38 -6 2 -2 -19 -15 -48 -29 -106 -53 -184 -167
-195 -284 -3 -38 -8 -55 -13 -46 -6 9 -9 4 -9 -14 0 -16 4 -28 9 -28 5 0 11
-12 13 -27 9 -49 13 -58 36 -74 12 -8 19 -19 15 -23 -5 -4 -3 -6 2 -5 6 1 42
-7 80 -19 39 -11 118 -31 178 -43 59 -12 107 -26 107 -31 0 -5 4 -7 9 -4 13 8
143 -33 136 -44 -3 -4 3 -6 12 -4 21 5 175 -77 181 -96 3 -8 0 -10 -9 -5 -12
7 -12 5 -1 -6 10 -11 15 -11 20 -1 6 8 25 -1 69 -32 83 -61 86 -68 26 -64 -42
3 -48 6 -45 23 3 17 0 16 -22 -8 -25 -26 -32 -28 -86 -25 -33 1 -60 0 -60 -3
0 -3 -53 -9 -118 -13 -205 -11 -600 -52 -887 -92 -192 -26 -313 -47 -547 -95
-81 -16 -151 -29 -155 -28 -4 1 -15 0 -23 -4 -34 -13 -162 -37 -171 -32 -5 4
-9 1 -9 -4 0 -6 -7 -11 -16 -11 -8 0 -115 -25 -236 -55 -121 -30 -224 -52
-229 -49 -5 3 -9 1 -9 -3 0 -9 -82 -35 -88 -28 -5 5 101 218 117 235 9 9 17
22 19 30 6 28 111 156 125 152 5 -1 6 2 3 7 -7 11 140 147 231 212 48 35 70
46 79 38 8 -7 14 -6 19 1 4 6 14 9 24 5 12 -5 13 -4 4 6 -10 10 -15 9 -28 -1
-8 -7 -15 -8 -15 -2 0 5 30 29 67 53 37 24 95 65 129 91 34 26 64 45 67 42 3
-3 8 0 13 7 5 8 3 10 -7 4 -12 -8 -12 -6 0 8 8 10 16 15 19 13 2 -3 18 11 34
32 17 20 35 36 40 34 5 -1 7 2 4 7 -4 5 5 18 19 30 15 11 25 21 23 23 -1 2 12
28 29 58 55 97 76 173 82 307 3 66 4 120 1 118 -3 -2 -11 25 -18 59 -17 93
-60 190 -146 330 -134 219 -177 334 -198 532 -12 117 2 336 21 342 6 2 8 9 5
17 -7 18 26 135 38 135 5 0 7 4 4 9 -6 9 20 81 33 91 3 3 6 12 6 20 0 8 8 14
18 14 9 -1 17 2 17 7 0 5 -5 9 -11 9 -13 0 36 92 67 125 12 13 20 26 17 28
-11 11 168 183 241 231 91 61 172 100 186 91 6 -3 10 -2 10 4 0 12 54 30 160
53 104 22 338 18 440 -7z m3404 0 c302 -63 531 -243 678 -534 32 -64 35 -75
22 -88 -7 -8 -14 -20 -14 -26 0 -7 5 -4 11 6 5 9 15 17 20 17 6 0 8 -4 5 -9
-4 -5 -1 -11 6 -13 13 -5 2 -28 -13 -28 -6 0 -7 4 -4 10 3 6 -1 7 -10 4 -14
-6 -14 -8 2 -19 10 -8 20 -9 21 -4 8 22 21 4 40 -58 27 -86 54 -212 50 -238
-1 -11 0 -24 4 -30 6 -10 12 -135 9 -184 l-1 -25 -30 29 c-16 15 -27 33 -23
38 3 6 2 7 -4 4 -5 -3 -23 6 -40 21 -16 15 -38 29 -49 30 -10 2 -21 7 -24 10
-10 13 -108 13 -151 1 -24 -7 -48 -13 -54 -14 -11 0 -37 -19 -72 -52 -27 -26
-31 -87 -7 -121 19 -28 65 -29 108 -3 17 11 36 20 41 22 6 1 16 4 22 6 27 10
97 -22 119 -55 23 -34 42 -130 28 -141 -5 -3 -10 -23 -11 -43 -5 -76 -75 -183
-144 -218 -26 -14 -58 -20 -104 -20 -57 0 -69 -3 -90 -25 -34 -33 -35 -102 -2
-133 48 -45 185 -34 284 24 37 21 42 22 36 7 -3 -10 -10 -24 -16 -30 -5 -7 -7
-13 -4 -13 4 0 -3 -21 -14 -47 -41 -95 -52 -154 -54 -288 -1 -71 2 -137 6
-145 4 -8 22 -46 40 -85 23 -50 52 -90 103 -140 68 -68 124 -104 361 -235 116
-64 215 -132 208 -143 -3 -6 -1 -7 5 -3 14 8 108 -61 104 -76 -1 -5 2 -7 6 -4
14 8 182 -170 220 -231 17 -29 28 -53 24 -53 -4 0 -2 -4 4 -8 19 -12 86 -153
80 -169 -3 -8 -2 -12 2 -9 9 5 38 -69 46 -117 4 -23 2 -27 -12 -23 -36 12
-179 49 -224 58 -33 7 -48 16 -48 27 0 12 -2 13 -8 3 -7 -10 -70 2 -288 52
-153 35 -349 79 -434 97 -85 18 -157 36 -160 39 -3 3 -16 5 -30 6 -28 0 -547
93 -570 102 -8 3 -19 4 -24 3 -16 -4 -196 22 -196 28 0 3 -37 7 -82 8 -45 2
-84 6 -87 10 -3 5 -40 9 -81 11 -41 2 -102 8 -135 12 -56 9 -91 12 -240 23
-33 2 -98 7 -145 10 -47 4 -123 7 -168 6 l-84 0 44 44 c44 45 197 151 206 143
2 -3 11 1 19 9 18 18 200 76 248 78 19 1 35 5 35 8 0 7 92 24 123 23 9 0 17 3
17 6 0 4 12 10 28 13 42 9 94 49 120 92 19 35 22 52 20 127 -2 47 -5 84 -7 82
-2 -2 -14 18 -26 44 -12 26 -34 58 -48 71 -15 13 -24 28 -21 33 3 5 2 7 -3 6
-4 -1 -33 10 -63 24 -33 16 -103 35 -173 48 -65 12 -131 26 -145 33 -55 23
-103 58 -96 69 4 6 3 8 -3 5 -22 -14 -114 120 -125 178 -1 11 -6 23 -10 26 -5
3 49 5 120 4 106 -1 134 2 172 19 25 10 48 19 51 18 4 -1 12 18 18 41 14 47 3
93 -24 103 -8 3 -13 9 -11 13 3 4 -30 3 -72 -1 -42 -4 -85 -5 -96 -2 -12 4
-16 2 -12 -5 5 -8 -16 -11 -69 -11 -42 0 -74 4 -71 9 3 4 -5 6 -18 4 -31 -6
-39 9 -42 79 -2 55 -36 149 -52 146 -21 -4 -84 17 -95 32 -6 9 -16 17 -22 17
-23 0 -49 54 -48 101 1 64 35 292 43 292 4 0 5 14 2 30 -3 19 0 30 7 30 7 0 9
5 6 10 -8 13 16 160 26 160 4 0 5 8 2 19 -6 25 38 197 76 297 17 43 51 113 75
155 47 81 188 239 213 239 8 0 12 4 9 8 -5 9 54 48 67 44 4 -1 7 2 7 8 0 25
191 109 332 146 142 37 350 40 502 9z"/>
<path d="M3951 4669 c-13 -5 -26 -8 -28 -5 -2 2 -25 -18 -50 -45 -27 -29 -73
-62 -110 -81 -86 -42 -195 -46 -290 -9 -40 15 -60 28 -56 35 3 6 3 8 -2 4 -4
-4 -21 0 -38 8 -18 10 -41 14 -61 10 -17 -4 -36 -7 -43 -8 -7 -1 -12 -4 -11
-7 0 -3 -3 -16 -7 -28 -8 -25 -21 -30 -28 -10 -4 9 -6 9 -6 -1 -1 -7 -5 -10
-11 -7 -6 3 -7 -1 -3 -10 4 -12 8 -13 13 -5 4 7 14 -3 24 -27 9 -21 21 -46 27
-55 7 -14 5 -18 -8 -18 -9 0 -14 -3 -10 -6 3 -4 14 -4 23 0 14 5 14 9 3 22 -7
9 7 3 31 -14 87 -58 161 -77 298 -77 67 0 122 -3 122 -6 0 -3 7 -6 15 -6 12 0
12 3 2 15 -10 13 -9 15 11 10 12 -4 20 -3 18 1 -3 4 16 15 42 24 26 10 70 35
99 56 28 22 54 36 58 33 4 -4 5 0 3 8 -2 9 3 14 12 12 8 -2 12 0 8 4 -4 4 4
20 17 36 14 16 25 42 25 57 0 28 -39 81 -60 81 -6 0 -8 5 -5 10 7 12 7 12 -24
-1z"/>
<path d="M5790 4662 c-43 -21 -65 -59 -56 -96 4 -15 30 -50 59 -79 56 -55 107
-99 107 -91 0 2 14 -3 31 -11 27 -15 157 -48 184 -47 47 1 151 25 198 46 156
69 186 148 86 227 -26 21 -41 27 -37 17 5 -13 -10 -25 -75 -57 -86 -42 -88
-43 -178 -44 -77 -1 -152 37 -208 103 -46 55 -59 59 -111 32z"/>
</g>
</svg>
