<?xml version="1.0" standalone="no"?>
<!DOCTYPE svg PUBLIC "-//W3C//DTD SVG 20010904//EN"
 "http://www.w3.org/TR/2001/REC-SVG-20010904/DTD/svg10.dtd">
<svg version="1.0" xmlns="http://www.w3.org/2000/svg"
 width="1024.000000pt" height="1024.000000pt" viewBox="0 0 1024.000000 1024.000000"
 preserveAspectRatio="xMidYMid meet">
<metadata>
Created by potrace 1.16, written by Peter Selinger 2001-2019
</metadata>
<g transform="translate(0.000000,1024.000000) scale(0.100000,-0.100000)"
fill="#000000" stroke="none">
<path d="M6099 8475 c-30 -16 -26 -6 -165 -377 -99 -264 -274 -776 -289 -846
-4 -19 -11 -30 -17 -26 -7 4 -8 2 -4 -4 4 -6 3 -24 -1 -39 l-7 -28 -8 25 c-7
22 -7 22 -3 -5 5 -31 -62 -287 -77 -293 -4 -2 -6 -7 -3 -12 3 -4 -8 -50 -24
-101 -19 -63 -30 -87 -34 -74 -19 64 -57 259 -59 301 -2 27 -6 51 -9 54 -5 5
-26 130 -35 220 -3 25 -11 102 -19 171 -8 70 -19 232 -26 360 -6 129 -13 244
-15 257 -3 14 -17 28 -35 36 -16 7 -26 15 -22 19 3 4 1 7 -5 7 -7 0 -12 -4
-12 -10 0 -5 -6 -10 -13 -10 -7 0 -24 -10 -36 -21 -23 -22 -23 -24 -20 -224 2
-112 7 -201 12 -198 4 2 7 -17 8 -44 1 -67 7 -153 20 -255 6 -48 8 -92 4 -98
-4 -6 -2 -16 3 -23 16 -20 26 -138 12 -135 -7 2 -15 -4 -17 -12 -4 -13 -3 -13
7 0 10 12 11 11 7 -7 -3 -13 -1 -26 4 -29 5 -3 9 5 10 18 1 13 14 -40 29 -117
16 -78 26 -154 23 -172 -4 -24 -1 -34 10 -39 9 -3 19 -20 23 -37 3 -18 19 -73
34 -123 22 -71 27 -100 20 -128 -8 -35 4 -53 13 -18 3 11 5 7 6 -10 0 -15 -4
-39 -10 -55 -6 -15 -12 -40 -14 -54 -2 -14 -17 -78 -34 -141 -17 -64 -31 -120
-32 -125 0 -4 -5 1 -10 12 -7 16 -8 12 -4 -14 3 -21 -6 -77 -25 -148 -16 -62
-30 -117 -30 -121 -1 -4 -31 74 -69 173 -37 99 -84 217 -104 262 -20 46 -35
88 -33 95 1 7 1 9 -2 5 -7 -14 -71 133 -66 151 4 11 3 13 -3 5 -11 -15 -117
193 -107 209 4 6 3 8 -3 5 -13 -8 -54 78 -47 100 4 12 3 14 -3 6 -6 -9 -20 9
-47 57 -20 39 -34 70 -29 70 4 0 3 4 -4 8 -11 7 -113 186 -113 198 0 3 5 2 12
-2 7 -4 8 -3 4 5 -4 6 -11 9 -15 6 -11 -6 -33 44 -25 58 4 7 3 9 -1 4 -5 -4
-22 13 -37 38 -35 56 -68 71 -110 50 -17 -8 -33 -13 -37 -11 -13 8 -9 -69 5
-96 8 -16 12 -34 8 -40 -4 -6 -3 -8 3 -5 6 4 14 0 17 -9 9 -24 7 -31 -5 -14
-9 13 -10 13 -6 0 2 -8 10 -15 18 -15 8 0 13 -8 13 -18 -1 -9 2 -17 8 -17 5 0
6 -5 2 -12 -4 -6 -3 -8 4 -4 14 8 105 -162 104 -194 -1 -17 1 -21 7 -12 6 11
10 10 15 -3 9 -24 8 -27 -6 -19 -7 4 -8 3 -4 -5 4 -6 11 -9 16 -6 5 3 23 -22
40 -56 17 -33 26 -58 21 -54 -16 9 -13 -8 5 -31 13 -16 15 -16 10 -1 -11 35 4
16 33 -42 17 -33 28 -67 25 -78 -3 -12 -1 -24 4 -27 6 -4 8 3 6 16 -3 15 3 9
16 -15 11 -21 18 -43 14 -49 -4 -6 -3 -8 3 -5 5 3 21 -19 36 -49 30 -60 32
-68 17 -59 -5 3 -10 1 -10 -4 0 -6 7 -11 16 -11 18 0 68 -106 58 -122 -5 -7
-2 -8 6 -3 10 6 12 3 8 -13 -4 -12 -3 -20 2 -17 10 6 104 -215 95 -223 -3 -3
-8 4 -12 16 -7 28 -18 29 -20 2 -1 -11 2 -18 8 -15 8 6 13 -9 10 -29 -1 -5 4
-4 12 2 11 9 18 1 35 -40 12 -28 19 -55 16 -59 -3 -5 0 -9 5 -9 6 0 11 -5 11
-11 0 -5 -4 -7 -10 -4 -5 3 -10 1 -10 -4 0 -6 6 -11 13 -11 8 0 29 -44 50
-104 44 -124 54 -166 39 -166 -6 0 -9 6 -6 14 3 8 1 23 -5 33 -9 14 -10 8 -7
-30 4 -47 16 -79 16 -42 0 10 2 16 5 13 9 -9 -88 -457 -98 -451 -4 2 -5 -8 -2
-24 3 -15 -16 33 -43 107 -26 74 -62 166 -80 204 -17 37 -30 72 -27 76 3 4 -2
11 -11 14 -8 3 -13 10 -10 15 4 5 2 11 -2 13 -15 6 -62 109 -55 121 3 7 3 9
-2 5 -11 -10 -107 151 -99 164 4 7 2 8 -4 4 -14 -8 -36 30 -26 46 4 6 3 8 -3
5 -13 -8 -56 50 -47 65 4 6 3 8 -3 5 -6 -4 -19 6 -29 21 -22 35 -201 260 -231
291 -12 13 -20 28 -16 34 3 5 2 7 -4 4 -6 -4 -21 5 -33 18 -13 14 -29 25 -37
25 -7 0 -13 5 -13 10 0 6 -5 10 -11 10 -5 0 -7 -5 -3 -12 5 -8 0 -9 -14 -6
-12 4 -21 3 -19 0 1 -4 -11 -20 -27 -37 -16 -16 -26 -23 -21 -15 7 12 6 13 -6
2 -9 -8 -10 -15 -4 -20 6 -4 18 -19 27 -33 9 -14 46 -58 83 -98 58 -63 65 -75
53 -89 -11 -15 -11 -15 3 -4 13 10 19 10 29 -2 6 -9 8 -21 4 -27 -4 -7 -3 -9
4 -6 11 8 115 -119 115 -140 0 -7 3 -11 5 -8 3 3 25 -24 48 -59 28 -42 41 -70
38 -84 -3 -11 -1 -23 4 -26 6 -4 8 3 5 16 -4 16 -2 20 5 13 6 -5 12 -16 14
-24 2 -8 10 -22 19 -31 27 -29 110 -191 103 -202 -4 -6 -3 -8 3 -5 20 13 167
-359 157 -398 -3 -13 -1 -32 5 -42 9 -14 10 -11 6 17 -5 34 -5 33 11 -9 14
-36 14 -45 3 -52 -13 -8 -5 -13 15 -10 5 1 6 -5 3 -14 -4 -8 -3 -15 2 -15 14
0 41 -162 37 -220 -3 -30 -17 -131 -31 -225 -14 -93 -28 -195 -31 -225 -3 -30
-8 -62 -11 -70 -2 -8 -6 -37 -8 -65 -2 -27 -8 -97 -14 -155 -6 -58 -14 -145
-17 -195 -3 -49 -8 -97 -10 -104 -3 -9 -21 11 -45 52 -22 37 -37 72 -33 79 4
6 3 8 -3 5 -10 -6 -140 191 -136 205 2 5 -1 8 -5 8 -15 0 -113 150 -106 162 4
6 3 8 -3 5 -13 -8 -46 40 -38 54 4 5 1 8 -5 7 -16 -4 -40 65 -43 123 -1 26 -5
45 -8 43 -9 -5 -31 135 -23 148 4 6 3 8 -3 5 -16 -10 -94 470 -118 723 -3 36
-10 132 -14 213 -10 161 -19 187 -68 187 -14 0 -21 4 -18 10 11 17 -2 11 -34
-17 -17 -15 -31 -33 -31 -41 0 -7 -7 -15 -15 -18 -8 -4 -15 -14 -15 -23 0 -14
2 -14 10 -1 7 11 9 2 9 -30 -1 -41 -2 -43 -9 -15 -8 29 -8 29 -7 -7 1 -20 4
-35 8 -32 9 5 16 -34 24 -141 8 -103 31 -299 45 -393 7 -41 9 -86 6 -100 -4
-16 -3 -22 2 -14 5 8 13 -17 21 -69 7 -44 15 -88 18 -97 4 -9 2 -13 -4 -9 -5
3 -10 0 -10 -8 0 -8 5 -11 10 -8 6 4 8 -2 5 -15 -3 -12 -1 -23 6 -26 6 -2 5
-5 -4 -5 -18 -1 -33 22 -129 192 -89 157 -190 367 -282 587 -72 171 -77 186
-57 174 7 -5 8 -3 4 5 -5 7 -11 10 -14 6 -8 -8 -32 53 -103 260 -32 93 -67
181 -77 195 -25 33 -70 37 -105 10 -31 -25 -34 -49 -12 -111 9 -24 13 -49 11
-56 -3 -7 -1 -13 4 -13 6 0 10 -5 10 -11 0 -5 -5 -7 -12 -3 -8 5 -9 2 -5 -10
4 -10 7 -21 7 -24 0 -4 4 -2 8 5 5 7 29 -46 61 -132 29 -79 49 -150 45 -156
-4 -7 -3 -9 3 -6 6 4 19 -16 31 -46 11 -28 29 -76 41 -105 12 -29 17 -51 11
-47 -5 3 -10 1 -10 -4 0 -6 6 -11 13 -11 17 0 40 -47 31 -62 -4 -7 -2 -8 4 -4
7 4 12 2 12 -4 0 -7 18 -51 40 -98 22 -47 38 -92 35 -100 -2 -7 -1 -11 4 -8
13 8 72 -110 65 -129 -4 -9 -2 -15 5 -13 6 2 25 -21 41 -50 l31 -53 -28 16
c-15 8 -50 28 -78 44 -27 15 -50 34 -50 42 0 8 -9 13 -20 12 -29 -2 -212 128
-379 270 -92 79 -109 86 -143 61 -40 -30 -47 -70 -20 -108 12 -17 21 -33 19
-36 -1 -3 2 -5 6 -5 4 0 28 -17 52 -38 25 -21 36 -35 25 -31 -16 5 -17 4 -5
-4 8 -6 17 -9 20 -7 10 6 105 -76 102 -87 -1 -5 1 -7 6 -4 5 3 36 -14 68 -37
32 -24 76 -53 97 -66 20 -12 35 -27 32 -32 -4 -5 2 -6 11 -2 13 5 15 3 9 -7
-5 -8 -4 -11 2 -7 6 4 45 -13 87 -37 42 -24 73 -46 69 -48 -4 -3 -2 -3 5 -2
19 5 43 -7 35 -19 -3 -6 -1 -7 5 -3 14 9 81 -19 99 -42 8 -9 12 -11 8 -4 -3 6
-1 12 4 12 6 0 11 -7 11 -15 0 -8 5 -15 11 -15 5 0 8 4 5 9 -4 5 5 4 19 -2 14
-7 25 -16 25 -20 0 -5 -5 -5 -12 -1 -7 5 -8 3 -4 -5 5 -7 11 -10 14 -7 3 3 11
1 18 -5 10 -8 11 -16 3 -30 -6 -13 -6 -19 1 -19 5 0 10 6 10 13 0 6 11 -1 25
-18 25 -30 33 -51 16 -40 -5 3 -12 1 -16 -4 -3 -6 3 -8 14 -6 22 4 76 -68 65
-87 -4 -6 -3 -8 3 -5 11 7 46 -39 46 -60 0 -7 5 -9 10 -6 6 4 8 -1 4 -11 -4
-9 -3 -15 2 -11 13 7 49 -47 43 -64 -3 -8 0 -11 6 -7 13 8 56 -50 47 -63 -3
-5 0 -13 6 -17 8 -5 10 -2 4 7 -4 8 4 1 18 -16 14 -16 24 -31 22 -33 -2 -2
-56 12 -122 31 -65 20 -137 40 -161 47 -23 6 -40 15 -37 20 3 6 -1 7 -9 4 -17
-7 -208 54 -202 64 2 4 -8 7 -22 8 -15 1 -130 43 -257 93 -248 99 -267 103
-289 50 -28 -67 -6 -92 136 -150 42 -18 76 -35 74 -38 -2 -3 6 -7 17 -7 12 -1
114 -36 227 -79 202 -75 519 -171 674 -204 70 -14 82 -20 109 -53 25 -31 28
-40 17 -53 -8 -10 -9 -15 -1 -15 6 0 11 5 11 11 0 8 5 7 15 -1 9 -7 14 -19 11
-27 -3 -8 -2 -12 3 -9 12 8 43 -42 35 -56 -4 -6 -3 -8 3 -5 13 8 117 -160 115
-186 0 -9 3 -15 7 -13 11 7 33 -43 25 -56 -4 -6 -2 -8 3 -5 13 8 26 -20 16
-35 -3 -6 -2 -8 4 -5 5 3 17 -6 25 -21 13 -22 19 -84 28 -316 6 -159 8 -291 5
-294 -3 -3 -5 2 -5 11 0 10 -4 17 -10 17 -17 0 -11 -31 9 -48 14 -14 22 -49
36 -182 10 -91 19 -181 19 -202 1 -20 4 -34 9 -31 4 2 7 -6 7 -19 0 -13 8 -55
18 -93 l18 -70 -38 3 c-21 2 -38 7 -38 11 0 3 -103 6 -229 6 -126 0 -224 -3
-218 -7 7 -4 -8 -8 -33 -8 -41 -1 -203 -24 -337 -49 -148 -27 -431 -123 -469
-158 -31 -28 -30 -58 1 -98 22 -30 27 -32 62 -25 21 4 60 17 86 30 27 12 55
19 63 16 8 -3 13 -2 9 3 -9 16 154 63 345 100 247 47 496 60 723 36 87 -9 166
-18 177 -20 10 -2 39 -7 64 -10 25 -4 45 -10 44 -14 -2 -18 3 -24 11 -13 6 9
19 11 44 7 20 -4 35 -10 33 -14 -3 -4 10 -7 27 -7 46 0 207 -47 200 -58 -4 -5
1 -7 10 -3 22 8 240 -47 230 -58 -4 -5 -1 -4 8 3 9 6 18 10 21 7 2 -3 52 -12
109 -21 207 -31 529 -15 719 36 51 14 75 65 52 107 -21 38 -41 43 -127 27
-162 -29 -217 -34 -377 -34 -159 -1 -237 6 -385 36 -40 8 -76 14 -80 14 -4 0
-1 5 7 11 12 8 10 9 -8 4 -30 -9 -306 66 -289 78 8 6 5 7 -7 3 -27 -9 -87 4
-79 17 3 6 1 7 -5 3 -6 -3 -49 1 -95 10 l-85 17 -16 88 c-26 142 -55 340 -57
395 -2 41 3 61 25 98 16 27 32 44 38 40 7 -5 8 -2 4 5 -11 17 101 184 116 175
7 -4 8 -3 4 5 -5 7 12 38 41 76 37 49 62 70 110 94 35 17 70 28 80 25 13 -4
15 -3 5 4 -11 7 -10 10 3 16 9 3 22 3 27 -1 6 -3 8 -2 5 4 -6 10 31 30 186
100 54 24 102 41 108 38 5 -4 9 -2 9 4 0 9 182 84 350 143 124 44 154 82 114
143 -23 36 -39 37 -120 10 -42 -14 -80 -22 -86 -19 -7 5 -8 2 -3 -6 6 -10 3
-12 -13 -8 -12 4 -20 3 -17 -1 6 -11 -265 -117 -290 -113 -14 1 -16 -1 -7 -6
8 -6 -9 -17 -50 -34 -35 -15 -80 -34 -101 -43 -24 -10 -36 -12 -32 -4 5 7 3
10 -6 7 -8 -3 -13 -10 -12 -15 1 -6 -9 -15 -23 -22 -19 -8 -5 18 66 122 125
183 195 272 209 269 7 -1 10 2 6 7 -7 12 69 53 80 43 5 -4 5 -2 2 4 -3 6 12
21 36 35 23 13 60 34 82 46 100 57 157 83 167 77 6 -4 8 -3 5 3 -8 13 138 84
160 77 13 -4 14 -3 5 3 -17 13 190 109 209 98 7 -5 10 -4 6 2 -4 6 11 18 33
28 49 22 68 61 48 101 -18 38 -39 48 -81 40 -19 -4 -151 -64 -292 -135 -190
-95 -250 -122 -233 -102 13 14 26 27 31 29 4 2 7 8 7 14 0 6 33 56 73 112 41
55 102 143 136 194 34 51 66 90 71 87 5 -3 12 0 16 6 4 8 3 9 -4 5 -18 -11
-14 1 14 44 15 22 31 37 37 33 6 -3 7 -1 3 5 -9 14 18 55 28 44 4 -4 6 -2 5 3
-5 15 21 56 30 50 5 -2 8 3 7 13 0 9 5 16 12 14 8 -1 11 2 8 7 -3 5 0 24 8 42
14 33 13 35 -19 66 -66 64 -84 48 -262 -218 -82 -123 -150 -216 -156 -212 -6
4 -7 1 -3 -6 10 -15 -43 -93 -57 -84 -6 3 -7 1 -3 -5 9 -16 -88 -159 -108
-159 -9 0 -16 4 -16 8 0 8 59 284 91 421 12 53 26 95 30 93 10 -7 -7 63 -20
79 -6 7 -9 15 -7 17 2 2 -15 5 -39 7 -28 2 -48 -3 -58 -13 -16 -15 -44 -102
-54 -163 -4 -21 -9 -29 -14 -21 -4 7 -7 -5 -6 -27 2 -46 -63 -386 -75 -395 -5
-3 -6 -12 -3 -20 3 -8 -5 -73 -18 -145 -21 -119 -27 -135 -61 -180 -21 -27
-42 -48 -48 -46 -5 1 -7 -1 -4 -6 8 -14 -83 -137 -99 -134 -7 1 -17 -3 -21 -9
-5 -9 -2 -10 9 -6 24 9 22 4 -25 -66 -55 -83 -55 -82 -50 -41 3 27 8 34 21 30
14 -5 14 -5 -1 7 -19 15 -19 13 38 444 35 257 36 273 20 297 -21 33 -62 43
-95 25 -29 -16 -49 -75 -50 -147 -1 -30 -5 -41 -12 -36 -8 5 -10 -2 -6 -22 6
-34 -14 -215 -23 -209 -4 3 -5 -6 -3 -18 2 -12 -3 -83 -11 -157 -9 -74 -18
-183 -22 -243 -4 -59 -10 -107 -14 -107 -4 0 -6 -26 -3 -57 l5 -58 -86 -120
c-48 -66 -92 -127 -99 -135 -7 -8 -19 -28 -27 -44 -11 -22 -16 -25 -18 -12 -2
9 1 23 8 31 8 10 8 14 -2 17 -17 6 -17 420 0 628 20 238 33 364 39 380 3 8 5
24 4 35 -2 27 46 381 59 425 27 96 292 374 550 577 106 83 373 254 387 248 8
-2 12 -1 9 4 -7 11 71 54 84 46 6 -4 9 -1 8 5 -4 15 272 161 295 156 9 -2 15
-1 13 3 -3 4 48 33 114 64 125 60 137 72 125 127 -9 39 -51 63 -91 51 -16 -5
-78 -32 -139 -60 -60 -29 -118 -53 -127 -54 -9 -1 -15 -4 -13 -7 3 -5 -157
-90 -171 -90 -3 0 -2 5 2 12 4 7 3 8 -5 4 -6 -4 -9 -11 -6 -16 5 -9 -89 -64
-110 -65 -5 0 -20 -10 -34 -23 -14 -13 -31 -20 -40 -17 -8 3 -12 3 -8 -1 10
-10 -172 -126 -185 -118 -6 4 -9 3 -5 -2 7 -12 -100 -87 -113 -79 -6 4 -9 1
-8 -7 2 -7 -5 -12 -14 -12 -10 1 -16 -2 -13 -6 6 -10 -123 -113 -141 -113 -7
0 -12 -5 -11 -11 1 -6 -4 -10 -10 -9 -7 2 -12 -1 -10 -5 3 -11 -162 -158 -174
-155 -5 2 -8 -1 -6 -5 1 -4 -22 -35 -51 -67 l-54 -60 7 45 c10 63 117 528 158
685 22 86 38 129 46 127 7 -1 9 2 6 9 -9 13 64 90 78 82 6 -3 7 -1 3 5 -9 14
43 74 57 65 6 -3 7 -1 4 5 -4 5 15 29 42 51 27 23 51 38 53 34 3 -5 3 -3 2 4
-4 15 71 75 80 65 4 -4 6 -2 4 4 -2 7 21 31 50 54 46 37 55 40 70 29 15 -13
16 -12 4 3 -12 14 -7 21 40 56 122 89 141 101 151 95 6 -3 7 -1 3 5 -7 11 7
17 29 12 6 -1 7 2 3 5 -9 10 14 27 145 109 59 37 113 64 119 60 6 -4 8 -3 5 3
-4 6 50 44 126 88 72 43 164 97 202 120 l70 42 -2 44 c-3 59 -5 69 -14 63 -4
-2 -10 0 -14 6 -8 13 -62 13 -70 -1 -4 -6 -13 -8 -21 -5 -8 3 -14 1 -14 -4 0
-19 -39 -31 -62 -20 -21 10 -21 10 -6 -3 16 -12 4 -22 -115 -93 -72 -43 -165
-100 -205 -127 -40 -26 -79 -44 -85 -41 -7 4 -9 4 -5 -1 10 -10 -26 -36 -44
-32 -7 2 -10 2 -5 -1 4 -2 -31 -31 -78 -63 -47 -33 -91 -57 -97 -53 -6 4 -8 3
-4 -4 4 -6 -14 -25 -41 -43 -52 -35 -250 -188 -297 -229 -16 -14 -33 -24 -38
-22 -5 1 -7 -2 -4 -7 3 -5 -10 -21 -30 -36 -30 -23 -35 -25 -30 -9 7 24 108
394 136 500 18 70 31 93 96 177 44 58 79 95 86 91 7 -4 8 -3 4 4 -10 17 86
124 97 109 6 -8 7 -6 3 5 -5 18 120 162 134 153 4 -3 7 3 6 13 0 9 5 16 12 14
8 -1 11 1 8 6 -6 11 38 54 47 47 4 -3 5 -2 2 2 -7 9 16 34 26 27 5 -3 6 1 4 8
-3 8 14 31 37 53 23 22 36 31 28 20 -14 -18 -14 -19 2 -6 10 7 15 17 13 22 -3
4 99 115 227 245 128 129 234 240 236 245 1 5 3 12 4 17 6 24 -16 71 -38 81
-43 19 -64 12 -118 -39 -29 -27 -56 -47 -61 -42 -5 4 -5 2 -2 -4 8 -14 -66
-87 -78 -77 -4 5 -5 3 -2 -3 8 -14 -66 -87 -78 -77 -4 5 -5 2 -1 -4 4 -8 -26
-47 -81 -105 -49 -51 -118 -123 -153 -160 -35 -38 -70 -68 -79 -69 -10 0 -11
-2 -4 -6 8 -3 -13 -33 -55 -81 -37 -42 -77 -89 -88 -104 -12 -15 -32 -29 -45
-31 -13 -2 -25 -10 -27 -18 -2 -8 0 -10 5 -4 4 6 14 11 21 13 7 1 1 -13 -15
-32 -15 -19 -29 -33 -31 -31 -6 6 66 239 173 560 121 364 195 566 206 559 5
-3 6 1 3 9 -3 8 27 95 66 194 38 99 70 194 70 211 0 26 -7 36 -32 52 -39 23
-45 24 -79 5z"/>
</g>
</svg>
