<?xml version="1.0" standalone="no"?>
<!DOCTYPE svg PUBLIC "-//W3C//DTD SVG 20010904//EN" "http://www.w3.org/TR/2001/REC-SVG-20010904/DTD/svg10.dtd">
<svg xmlns="http://www.w3.org/2000/svg" version="1.0" width="1024.000000pt" height="1024.000000pt" viewBox="0 0 1024.000000 1024.000000" preserveAspectRatio="xMidYMid meet">
<metadata>
Created by potrace 1.16, written by Peter Selinger 2001-2019
<meta name="Producer" content="Online-Convert"/></metadata>
<g transform="translate(0.000000,1024.000000) scale(0.100000,-0.100000)" fill="#000000" stroke="none">
<path d="M7550 8492 c-14 -9 -58 -52 -99 -94 -41 -43 -77 -76 -80 -73 -4 2 -13 -1 -21 -7 -12 -8 -11 -9 4 -4 19 7 19 6 2 -13 -10 -11 -23 -18 -29 -14 -5 3 -7 1 -4 -4 6 -10 -29 -49 -42 -46 -3 0 -5 -2 -4 -7 2 -8 -66 -76 -73 -72 -2 1 -3 0 -1 -2 5 -10 -67 -75 -76 -69 -6 3 -7 2 -4 -4 8 -12 -127 -146 -137 -136 -4 4 -6 1 -4 -7 2 -8 -3 -14 -10 -12 -8 1 -11 -2 -7 -8 4 -6 1 -18 -7 -27 -10 -12 -14 -74 -18 -239 l-5 -223 -39 -40 c-22 -22 -44 -37 -50 -34 -6 3 -8 2 -3 -2 4 -5 -16 -33 -45 -62 -43 -43 -54 -50 -67 -41 -13 10 -14 10 -3 -2 10 -12 -1 -27 -65 -92 -43 -43 -81 -78 -86 -78 -4 0 -6 4 -2 9 3 5 0 13 -6 17 -9 5 -10 -1 -5 -19 11 -45 -14 -42 -56 7 -22 25 -73 75 -113 110 -40 35 -72 67 -69 70 2 3 1 4 -3 1 -3 -3 -13 1 -22 9 -9 8 -50 37 -91 65 -41 29 -81 62 -88 74 -7 12 -11 14 -8 5 3 -12 1 -15 -9 -11 -8 3 -13 9 -10 13 3 4 -1 7 -8 7 -17 -2 -159 70 -150 75 4 3 2 3 -4 2 -21 -5 -123 38 -116 49 3 6 1 7 -6 3 -17 -11 -114 15 -99 27 9 5 6 6 -7 3 -11 -3 -56 1 -100 10 -114 22 -219 34 -305 34 -93 -1 -300 -25 -377 -45 -66 -17 -84 -19 -63 -5 12 7 10 9 -7 8 -11 -1 -19 -7 -17 -13 4 -10 -180 -81 -204 -79 -7 1 -11 -1 -7 -4 9 -9 -125 -73 -139 -65 -6 3 -8 2 -3 -2 8 -9 -132 -107 -144 -99 -4 2 -11 -1 -15 -7 -5 -8 -3 -10 7 -4 22 13 -7 -14 -96 -87 -44 -36 -111 -102 -149 -147 -38 -44 -71 -81 -72 -81 -2 0 -1 8 3 18 3 9 3 14 -2 10 -4 -4 -8 -15 -9 -25 -2 -27 -57 -104 -69 -96 -6 3 -7 1 -3 -5 3 -6 -12 -41 -35 -79 -23 -37 -59 -105 -79 -150 -20 -46 -40 -80 -45 -75 -4 4 -5 2 -1 -5 3 -6 -4 -44 -18 -85 -66 -202 -87 -363 -78 -583 3 -77 6 -156 6 -177 1 -20 5 -34 10 -31 5 3 7 -8 4 -26 -2 -17 0 -31 5 -31 5 0 6 -16 3 -37 -4 -24 -3 -33 2 -25 6 9 14 -7 26 -54 10 -37 37 -118 62 -178 25 -61 46 -117 46 -123 1 -7 6 -13 11 -13 5 0 6 -7 3 -16 -3 -8 -2 -12 4 -9 5 3 16 -8 24 -24 12 -23 13 -31 3 -34 -7 -3 -5 -6 5 -6 19 -1 51 -54 40 -66 -4 -5 -1 -4 7 0 11 6 13 4 8 -8 -3 -9 -2 -16 2 -14 13 3 73 -82 66 -94 -4 -5 -1 -8 6 -7 7 2 13 -2 14 -9 0 -6 4 -15 9 -20 5 -5 6 -2 2 7 -4 8 6 -1 22 -20 17 -19 28 -39 25 -45 -4 -5 -2 -7 2 -2 5 4 35 -18 66 -49 50 -49 57 -60 48 -78 -8 -18 -8 -18 3 -4 11 15 15 14 45 -9 18 -14 30 -30 26 -36 -3 -5 -1 -7 4 -4 6 4 30 -8 54 -26 24 -18 61 -43 82 -56 38 -23 52 -40 17 -21 -16 8 -21 6 -30 -12 -11 -22 -10 -22 4 -4 9 11 16 15 16 8 0 -6 10 -9 21 -7 28 6 82 -22 73 -37 -4 -6 -3 -8 4 -4 13 8 63 -14 56 -25 -3 -5 3 -6 12 -2 12 4 15 3 10 -5 -5 -8 -1 -10 10 -5 12 4 15 3 10 -5 -5 -8 -1 -10 10 -5 13 5 15 3 9 -7 -5 -9 -4 -11 3 -6 7 4 34 -1 61 -10 35 -13 48 -22 44 -33 -4 -12 -3 -13 4 -3 8 10 28 8 99 -13 49 -14 110 -29 137 -32 26 -3 47 -9 47 -12 0 -3 17 -6 38 -7 211 -5 352 -4 427 6 220 26 481 120 665 238 30 19 60 35 67 35 7 0 10 4 8 8 -3 4 2 9 9 12 8 3 17 3 19 -1 2 -4 2 -2 1 5 -2 6 22 30 52 53 115 87 274 268 362 412 127 208 210 449 234 679 7 59 14 106 17 104 11 -6 -9 227 -29 349 -11 65 -18 122 -15 126 3 5 0 10 -7 12 -7 3 -12 21 -11 44 0 21 -2 33 -5 25 -3 -8 -18 21 -33 65 -16 43 -26 86 -23 94 3 8 2 11 -2 7 -10 -9 -112 186 -110 210 0 10 -4 17 -11 16 -15 -3 -36 34 -28 47 4 6 12 7 18 4 7 -4 8 -3 4 1 -4 5 70 87 165 182 l173 173 248 0 c190 0 255 3 280 14 18 8 83 66 146 129 63 64 119 113 124 110 6 -3 7 -2 4 4 -3 5 60 74 140 154 80 79 158 162 174 183 29 39 38 89 18 101 -6 4 -8 14 -4 23 3 9 3 13 -1 10 -3 -4 -20 0 -36 8 -32 17 -123 19 -280 8 -53 -3 -109 -3 -123 0 l-27 7 2 192 c2 258 4 244 -26 272 -32 30 -78 32 -114 7z m-32 -429 c2 -115 6 -152 20 -175 9 -15 20 -28 25 -28 4 0 6 -4 3 -8 -4 -8 97 -14 247 -15 l58 -1 -42 -42 c-23 -24 -45 -42 -50 -41 -4 1 -8 -2 -9 -8 -3 -19 -22 -35 -33 -28 -5 3 -7 2 -4 -4 6 -9 -104 -127 -114 -121 -2 2 -3 1 -1 -1 5 -9 -71 -79 -82 -77 -6 2 -7 1 -3 -2 5 -2 -4 -17 -19 -33 l-28 -29 -183 0 -183 0 0 178 0 177 180 180 c98 99 185 179 192 177 7 -2 10 0 6 3 -6 6 7 45 15 45 1 0 3 -66 5 -147z m-1947 -634 c103 -20 158 -37 127 -38 -10 -1 -18 -9 -18 -18 0 -15 2 -16 10 -3 5 8 10 11 10 6 0 -5 6 -4 13 2 15 12 57 5 57 -10 0 -5 4 -7 9 -4 5 3 22 1 39 -5 23 -8 29 -15 25 -27 -3 -9 -3 -14 2 -10 4 4 17 3 29 -3 20 -10 20 -10 2 5 -11 9 -16 16 -10 16 15 -1 80 -39 67 -40 -18 0 -16 -20 2 -20 8 0 15 5 15 10 0 6 12 4 29 -4 16 -9 28 -21 27 -28 0 -7 4 -14 9 -14 6 -1 9 2 7 7 -1 6 7 5 18 -1 11 -6 18 -15 15 -20 -3 -6 0 -7 7 -5 8 3 40 -13 71 -35 57 -41 70 -54 42 -44 -11 5 -13 2 -9 -10 5 -12 10 -13 25 -6 15 9 35 -6 126 -95 l108 -105 -85 -79 c-52 -49 -91 -78 -100 -75 -8 3 -11 2 -7 -2 4 -4 -5 -20 -20 -36 -20 -21 -29 -25 -40 -16 -7 6 -16 8 -20 4 -3 -3 -1 -6 5 -6 7 0 12 -5 12 -12 0 -7 -20 8 -45 32 -33 32 -41 46 -32 53 8 6 7 7 -5 4 -9 -3 -22 1 -30 10 -7 9 -49 43 -93 76 -44 33 -79 64 -77 69 1 5 -2 7 -7 4 -13 -9 -73 29 -63 39 4 5 2 5 -5 1 -14 -8 -84 24 -77 36 3 4 -1 5 -8 3 -7 -3 -46 6 -85 19 -40 14 -107 30 -150 36 -43 7 -85 15 -93 19 -22 11 -160 3 -270 -15 -52 -8 -140 -31 -195 -50 -55 -20 -108 -37 -117 -37 -9 -1 -15 -4 -13 -7 4 -7 -52 -37 -69 -38 -5 0 -12 -5 -15 -10 -13 -22 -145 -111 -155 -105 -6 3 -8 3 -4 -2 4 -4 -19 -37 -52 -72 -110 -117 -205 -269 -252 -403 -26 -71 -58 -199 -58 -228 0 -21 -1 -22 -16 -8 -19 20 -21 20 -21 1 0 -8 4 -12 8 -10 9 6 19 -21 18 -48 0 -12 -3 -16 -6 -9 -8 20 -20 14 -18 -10 4 -40 6 -43 15 -23 6 14 9 -1 9 -48 1 -43 -3 -66 -9 -62 -5 3 -10 2 -10 -3 0 -6 6 -12 13 -15 9 -3 16 -29 20 -64 5 -48 34 -162 62 -248 6 -16 5 -17 -4 -5 -6 8 -11 11 -11 5 0 -14 20 -43 20 -30 0 6 5 2 11 -8 5 -9 7 -22 3 -29 -4 -6 -3 -9 2 -5 5 3 24 -22 43 -55 18 -33 28 -57 22 -54 -13 8 -14 4 -5 -18 3 -9 12 -16 19 -16 8 0 24 -14 36 -32 13 -17 17 -28 10 -24 -10 7 -11 4 -2 -12 6 -12 17 -24 24 -28 8 -6 8 -2 -2 12 -7 10 5 -1 28 -25 22 -24 38 -47 35 -52 -3 -5 -2 -8 3 -7 13 5 103 -75 96 -85 -3 -6 -2 -7 4 -4 16 10 52 -21 48 -42 -3 -15 2 -19 23 -16 30 3 151 -62 152 -81 0 -7 9 -14 20 -17 13 -3 18 -1 13 6 -4 7 0 8 13 2 10 -4 56 -20 101 -35 46 -15 81 -29 78 -32 -3 -2 10 -5 28 -5 17 -1 97 -4 177 -8 170 -8 278 6 411 56 46 17 94 32 106 33 12 0 19 3 17 5 -2 3 15 16 38 29 52 30 134 85 167 111 23 17 27 18 50 4 l26 -15 -23 19 -23 19 47 44 c266 254 395 647 324 990 -12 57 -36 144 -54 192 -21 57 -29 89 -22 92 6 2 4 5 -5 5 -19 1 -32 27 -22 43 3 6 1 8 -4 5 -6 -4 -14 0 -17 9 -8 20 -4 24 21 29 10 1 17 7 16 13 -3 11 158 148 170 144 5 -1 6 1 3 6 -3 5 7 18 23 29 27 20 28 20 39 2 15 -24 15 -32 0 -23 -7 4 -8 3 -4 -5 4 -6 11 -9 15 -7 4 3 16 -9 26 -26 10 -17 13 -28 6 -24 -6 4 -11 5 -11 2 0 -2 -2 -11 -5 -19 -4 -8 0 -14 9 -14 8 0 13 4 10 9 -3 4 -1 8 4 8 20 0 98 -202 86 -221 -5 -8 -3 -9 6 -4 10 6 12 3 8 -13 -4 -12 -3 -20 2 -17 9 6 34 -90 51 -200 22 -145 13 -487 -12 -430 -6 14 -8 5 -5 -27 4 -41 -10 -111 -51 -250 -3 -10 -11 -15 -21 -11 -12 3 -13 2 -4 -4 9 -7 7 -22 -12 -69 -38 -95 -59 -134 -69 -127 -6 3 -7 1 -4 -4 8 -12 -90 -167 -142 -226 -18 -20 -37 -34 -42 -31 -5 3 -6 -1 -3 -9 5 -15 -129 -144 -146 -139 -6 1 -9 -4 -8 -10 2 -8 -9 -13 -29 -12 -17 0 -29 -4 -26 -9 3 -4 12 -6 22 -3 9 4 0 -7 -19 -24 -19 -16 -41 -27 -48 -25 -7 3 -11 1 -7 -4 7 -12 -93 -73 -107 -65 -7 5 -8 2 -3 -6 6 -10 4 -12 -9 -7 -11 5 -15 3 -10 -5 5 -8 2 -9 -10 -5 -9 4 -15 3 -12 -2 11 -17 -210 -103 -348 -135 -223 -52 -521 -42 -741 25 -82 25 -84 27 -65 40 11 8 5 9 -22 5 -77 -10 -328 141 -483 290 -42 40 -73 78 -70 84 4 6 1 9 -6 8 -16 -4 -81 81 -73 94 4 7 2 8 -4 4 -13 -8 -64 63 -55 78 3 6 3 8 -2 4 -11 -11 -26 13 -84 129 -56 114 -104 241 -97 259 3 7 1 14 -4 16 -5 2 -20 48 -32 103 -19 86 -22 129 -22 300 0 170 3 214 22 295 12 52 26 96 32 98 5 2 7 9 4 16 -19 48 204 491 236 471 6 -3 7 1 4 9 -10 26 217 243 339 323 111 74 317 169 343 159 8 -3 13 -2 10 3 -5 8 62 29 169 52 152 32 389 32 556 -2z m-86 -515 c39 -8 74 -14 78 -14 5 0 5 -5 1 -12 -4 -7 -3 -8 5 -4 12 8 94 -20 162 -55 43 -22 139 -88 139 -96 0 -2 -5 -1 -12 3 -7 4 -8 3 -4 -5 4 -6 11 -9 16 -6 11 7 117 -91 135 -125 13 -25 12 -28 -18 -51 -117 -93 -211 -158 -220 -152 -6 3 -7 1 -3 -5 3 -6 -2 -16 -12 -21 -15 -8 -23 -5 -39 12 -30 34 -99 92 -113 95 -21 5 -100 49 -96 53 3 2 -5 5 -17 5 -12 1 -60 10 -106 20 -70 15 -94 16 -150 7 -36 -7 -79 -10 -96 -7 -23 3 -25 2 -10 -4 18 -8 17 -9 -7 -15 -15 -4 -32 -5 -40 -4 -7 2 -9 2 -4 -1 4 -2 -15 -17 -44 -33 -29 -16 -57 -26 -63 -22 -5 3 -7 1 -4 -4 9 -14 -61 -75 -75 -67 -7 4 -8 2 -4 -5 7 -11 -49 -86 -65 -86 -4 0 -11 -4 -16 -9 -5 -5 -3 -6 5 -2 16 10 15 -5 -3 -30 -26 -38 -64 -169 -67 -232 -2 -34 -7 -62 -12 -62 -5 0 -4 -6 1 -12 6 -7 13 -36 17 -65 4 -29 13 -70 21 -93 15 -42 11 -57 -5 -17 l-9 22 0 -23 c-1 -15 6 -26 17 -29 18 -5 89 -119 84 -135 -1 -5 1 -7 6 -4 5 3 26 -13 48 -36 21 -22 65 -57 96 -78 31 -21 54 -41 50 -45 -4 -5 -1 -5 6 -1 14 8 54 -2 48 -12 -2 -4 6 -7 17 -8 12 -1 56 -7 97 -13 59 -10 91 -10 150 -1 41 7 87 12 102 13 15 0 25 3 23 7 -2 4 23 20 56 35 33 16 65 35 71 42 6 7 16 13 22 13 6 0 4 -5 -4 -11 -10 -7 -11 -9 -2 -7 8 2 13 7 12 11 -1 5 20 32 47 60 27 29 57 64 67 79 10 15 23 25 29 21 5 -3 7 -1 4 4 -4 6 5 37 19 69 53 120 61 276 18 396 -15 43 -15 43 13 66 15 12 34 20 41 17 7 -3 11 -1 8 4 -8 12 143 123 156 115 6 -4 8 -2 4 4 -3 6 8 21 26 33 17 13 28 18 24 11 -4 -7 -1 -12 9 -12 10 0 14 5 10 13 -4 6 1 3 9 -7 56 -69 114 -336 101 -466 -9 -97 -26 -180 -37 -180 -5 0 -6 -5 -3 -10 9 -14 -14 -81 -26 -75 -5 4 -6 -1 -3 -9 6 -15 -51 -137 -87 -188 -11 -16 -25 -25 -31 -22 -7 4 -8 2 -4 -5 11 -17 -13 -44 -29 -31 -8 7 -12 5 -12 -5 0 -8 4 -12 9 -9 4 3 8 1 8 -5 0 -11 -160 -161 -172 -161 -5 0 -6 5 -2 12 4 7 3 8 -5 4 -6 -4 -9 -11 -6 -15 2 -5 -13 -20 -35 -35 -43 -28 -55 -32 -44 -14 4 7 3 8 -5 4 -6 -4 -9 -11 -6 -15 12 -20 -248 -108 -287 -98 -10 3 -18 2 -18 -3 0 -10 -157 -23 -172 -14 -7 5 -26 7 -43 6 -41 -4 -189 26 -193 38 -2 6 -7 8 -12 5 -12 -7 -101 26 -94 36 3 5 -1 6 -9 3 -34 -12 -297 172 -281 197 3 5 1 8 -4 7 -16 -4 -117 128 -156 201 -45 88 -88 211 -83 238 2 12 1 20 -4 18 -26 -17 -30 249 -5 365 20 95 75 232 89 223 6 -3 7 -1 3 6 -14 22 125 228 146 215 6 -4 8 -3 5 4 -11 17 124 134 214 185 96 55 249 106 347 116 89 9 211 3 297 -15z m-122 -544 c9 -11 27 -20 40 -20 13 0 29 -6 37 -12 12 -11 12 -10 2 3 -7 9 -27 19 -44 23 -17 3 -29 9 -26 11 8 8 97 -23 136 -47 17 -11 32 -27 32 -35 0 -9 3 -13 7 -10 7 8 33 -11 33 -25 0 -6 -7 -7 -16 -4 -8 3 -13 2 -9 -3 5 -10 -41 -47 -65 -53 -7 -2 -24 -13 -38 -26 -14 -12 -32 -20 -39 -18 -7 3 -12 0 -10 -7 1 -7 -8 -11 -23 -9 -17 1 -21 -1 -12 -7 10 -6 3 -14 -25 -31 -21 -13 -43 -23 -50 -23 -7 0 -10 -4 -8 -8 3 -4 -2 -10 -10 -13 -9 -3 -24 -26 -35 -52 -23 -53 -16 -75 30 -94 16 -7 30 -17 30 -22 0 -5 -4 -6 -10 -3 -6 3 -7 -1 -3 -10 4 -12 8 -13 13 -5 10 16 107 60 116 52 4 -4 4 -2 0 5 -8 15 30 37 46 27 6 -4 8 -3 5 3 -4 6 13 24 37 42 45 32 62 39 51 21 -3 -6 1 -7 10 -3 11 4 13 8 5 13 -6 4 12 22 46 44 31 21 59 35 62 31 4 -3 7 -52 7 -108 0 -94 -3 -107 -32 -169 -20 -43 -38 -68 -48 -68 -9 0 -13 -5 -10 -10 9 -15 -58 -76 -114 -104 -66 -34 -152 -49 -227 -41 -53 5 -62 9 -57 23 4 14 3 14 -5 3 -16 -22 -91 11 -152 66 -61 54 -125 175 -118 222 2 16 1 28 -4 25 -14 -9 -9 99 7 161 18 67 71 158 88 148 5 -3 7 -1 3 5 -15 25 114 105 195 121 81 16 133 13 152 -9z"/>
<path d="M4665 8291 c21 -5 -4 -9 -77 -14 -187 -12 -339 -39 -521 -93 -65 -19 -123 -31 -129 -28 -7 4 -8 2 -4 -4 4 -7 2 -12 -3 -12 -24 0 -269 -112 -364 -167 -56 -32 -111 -57 -122 -55 -14 1 -16 0 -7 -6 9 -6 2 -16 -28 -36 -22 -14 -40 -23 -40 -19 0 4 -6 0 -12 -9 -7 -9 -33 -30 -58 -47 -59 -42 -240 -202 -240 -213 0 -4 -5 -8 -11 -8 -5 0 -7 5 -3 12 4 7 3 8 -5 4 -6 -4 -9 -11 -6 -15 4 -7 -131 -171 -141 -171 -2 0 -1 8 3 18 3 9 2 14 -2 9 -5 -4 -9 -15 -10 -25 -1 -25 -46 -82 -58 -75 -6 3 -7 1 -3 -6 9 -14 -28 -63 -39 -53 -5 4 -5 2 -2 -4 8 -15 -98 -186 -108 -176 -5 4 -5 2 -1 -5 9 -16 -14 -64 -27 -56 -6 3 -7 1 -4 -4 4 -6 -9 -45 -28 -87 -39 -83 -114 -299 -116 -331 -1 -17 -2 -16 -10 5 -7 21 -8 20 -4 -9 3 -18 -5 -88 -16 -155 -18 -102 -21 -154 -19 -331 5 -420 5 -417 -14 -475 -26 -80 -97 -221 -107 -214 -5 3 -7 -1 -4 -8 3 -7 -28 -67 -69 -133 -41 -66 -93 -150 -116 -187 -22 -38 -45 -68 -51 -68 -6 0 -8 -4 -5 -8 2 -4 -10 -31 -28 -60 -26 -43 -34 -50 -46 -40 -12 11 -12 10 -1 -4 15 -20 -3 -63 -21 -52 -7 4 -8 3 -4 -5 4 -6 2 -35 -4 -64 -10 -44 -9 -59 5 -97 9 -25 17 -51 17 -58 1 -6 4 -10 6 -7 3 3 12 -4 19 -15 27 -39 122 -74 226 -84 173 -17 163 -15 165 -42 1 -17 -2 -23 -10 -18 -6 4 -8 3 -4 -4 3 -6 -1 -36 -9 -68 -25 -97 -20 -163 18 -236 18 -35 31 -71 29 -81 -2 -10 3 -17 13 -17 9 0 13 5 10 10 -3 6 -2 10 2 10 16 0 33 -24 32 -45 0 -19 -1 -19 -8 0 -4 10 -6 -30 -4 -90 4 -147 6 -164 18 -162 6 1 10 -8 9 -20 0 -12 3 -20 6 -18 10 6 47 -66 54 -107 4 -24 -1 -65 -15 -120 -13 -50 -21 -114 -22 -163 0 -68 4 -88 28 -135 15 -30 36 -67 46 -81 10 -14 15 -30 11 -34 -4 -5 -2 -5 4 -2 7 4 18 -1 25 -10 10 -12 10 -14 2 -9 -8 4 -13 2 -13 -4 0 -7 7 -10 15 -6 8 3 31 -6 51 -19 20 -13 51 -30 70 -37 19 -7 33 -17 30 -23 -2 -7 2 -12 10 -12 7 0 11 5 7 10 -3 5 3 7 13 5 11 -2 18 -9 17 -14 -1 -6 4 -11 12 -11 8 0 11 5 8 10 -4 6 5 8 23 4 16 -4 198 -7 404 -7 228 0 381 -4 390 -10 8 -5 11 -10 5 -10 -5 -1 1 -6 14 -11 15 -6 21 -14 17 -25 -3 -8 -2 -13 3 -10 15 10 41 -107 66 -297 31 -235 58 -574 51 -644 -3 -29 -1 -53 4 -53 5 0 12 -9 15 -20 4 -11 20 -27 36 -36 16 -8 27 -19 24 -24 -4 -6 -1 -10 4 -10 6 0 11 5 11 10 0 6 19 10 43 10 26 0 37 -3 29 -9 -8 -5 1 -8 25 -8 33 -1 35 0 13 7 -16 5 19 8 92 9 68 1 119 -3 123 -9 3 -5 27 -9 53 -8 l47 1 -45 7 c-41 6 -39 7 25 8 49 0 62 -2 45 -8 -21 -7 -17 -8 20 -8 34 -1 40 2 25 8 -15 7 -9 9 25 9 29 0 40 -2 31 -8 -9 -6 -5 -9 14 -9 19 0 23 3 14 9 -9 6 0 9 26 9 29 0 36 -3 25 -10 -12 -8 -9 -10 13 -10 15 0 27 5 27 10 0 6 5 10 11 10 5 0 8 -4 5 -9 -3 -5 46 -9 112 -10 81 -1 112 2 102 9 -11 7 -7 10 20 9 29 0 31 -2 15 -9 -19 -8 -19 -9 3 -9 12 -1 22 4 22 9 0 6 47 10 123 10 72 0 116 -4 108 -9 -18 -12 4 -19 38 -13 23 5 24 6 6 13 -11 4 140 8 335 8 233 1 350 -3 340 -9 -13 -9 -13 -10 0 -10 8 0 25 -3 38 -6 12 -4 22 -2 22 4 0 6 -8 13 -17 15 -10 3 14 4 52 4 50 0 57 -2 23 -4 -27 -2 -48 -8 -48 -12 0 -12 94 -2 98 9 2 6 101 10 245 10 160 0 237 -4 227 -10 -10 -7 11 -10 70 -11 158 -2 172 -2 179 8 3 6 23 13 43 17 39 7 74 41 84 82 4 15 -25 94 -89 246 -83 194 -187 472 -187 500 0 5 6 6 13 3 6 -4 3 1 -7 9 -12 10 -20 29 -20 50 -1 19 -4 32 -8 29 -7 -4 -10 8 -12 55 -1 9 -4 19 -8 22 -7 5 -25 99 -50 250 -18 109 -14 401 6 515 36 203 88 357 180 530 75 142 176 296 189 288 6 -3 7 -1 3 5 -4 6 5 30 19 52 51 81 144 277 179 377 46 133 87 328 76 358 -12 31 -58 65 -89 66 -23 0 -24 1 -6 9 11 5 14 9 7 9 -21 1 -71 -51 -81 -84 -5 -16 -14 -61 -21 -100 -30 -191 -133 -421 -306 -685 -60 -91 -124 -198 -143 -237 -19 -40 -38 -70 -42 -67 -4 2 -11 -1 -15 -7 -4 -8 -3 -9 4 -5 18 11 15 -6 -12 -66 -14 -30 -37 -95 -52 -144 -15 -49 -30 -91 -33 -94 -3 -3 -6 -13 -7 -22 -2 -49 -5 -58 -19 -58 -10 0 -15 -9 -14 -27 l1 -28 9 25 c9 26 8 16 -12 -140 -13 -101 -12 -323 1 -444 6 -54 9 -101 6 -104 -3 -3 -2 -10 3 -16 9 -12 25 -104 17 -95 -3 3 -10 23 -15 45 l-10 39 3 -50 c2 -34 7 -50 16 -50 9 0 21 -33 35 -95 12 -52 27 -112 34 -132 8 -24 9 -43 3 -54 -10 -18 -5 -54 8 -54 4 0 6 12 3 28 -3 27 -3 27 7 3 6 -14 8 -31 6 -38 -3 -7 -1 -13 3 -13 15 0 51 -123 45 -147 -4 -14 -2 -23 5 -23 5 0 8 8 5 18 -5 14 -4 14 4 2 5 -8 13 -26 16 -40 7 -24 6 -24 -8 -6 -20 25 -20 17 -2 -19 9 -16 16 -22 18 -13 3 7 14 -12 25 -42 12 -30 35 -86 53 -125 46 -101 51 -113 40 -120 -6 -4 -10 1 -10 10 0 9 -4 14 -9 10 -5 -3 -13 0 -16 5 -5 7 -12 5 -21 -7 -11 -13 -14 -14 -12 -3 2 12 -9 15 -54 16 -32 0 -58 -4 -58 -8 0 -5 -4 -7 -10 -3 -5 3 -40 8 -78 10 -56 4 -69 2 -69 -10 0 -8 1 -15 1 -15 1 0 16 4 33 9 20 6 35 6 38 0 4 -5 3 -9 -2 -10 -4 0 -30 -2 -58 -4 -27 -2 -44 -2 -37 1 6 3 10 10 6 15 -8 13 -24 11 -24 -4 0 -8 -14 -13 -35 -14 -19 0 -35 4 -35 9 0 5 6 6 13 2 9 -5 9 -4 1 5 -14 15 -74 21 -74 8 0 -5 -7 -7 -15 -4 -8 4 -17 2 -20 -3 -9 -14 59 -12 73 2 9 9 12 9 12 1 0 -7 -9 -14 -19 -18 -26 -8 -91 -3 -85 7 3 4 -2 8 -11 8 -9 0 -13 -5 -10 -10 3 -6 -2 -10 -11 -10 -10 0 -14 3 -11 7 8 7 -11 33 -25 33 -5 0 -6 -6 -2 -12 5 -8 0 -7 -11 2 -15 12 -17 12 -10 1 6 -11 3 -13 -13 -9 -16 5 -19 2 -15 -11 5 -13 3 -14 -7 -4 -10 9 -17 9 -26 2 -10 -8 -11 -5 -6 13 5 19 3 21 -9 11 -17 -14 -59 -13 -59 1 0 6 -5 5 -12 -2 -16 -16 -72 -16 -62 0 5 7 3 8 -5 4 -7 -5 -10 -14 -7 -22 4 -9 -2 -14 -17 -14 -18 0 -19 2 -7 10 13 8 12 10 -2 10 -10 0 -18 -4 -18 -10 0 -5 -4 -10 -10 -10 -5 0 -6 7 -3 17 5 12 3 14 -8 7 -8 -4 -24 -7 -36 -5 -13 1 -23 -3 -23 -10 0 -7 -6 -5 -14 6 -13 18 -13 18 -25 -1 -10 -15 -11 -15 -7 -2 3 10 0 20 -6 24 -7 4 -8 3 -4 -4 4 -8 0 -12 -12 -12 -10 0 -22 -3 -26 -7 -3 -4 -16 -8 -28 -10 -17 -3 -19 -1 -9 11 9 11 9 16 0 22 -7 4 -9 3 -6 -3 12 -19 -19 -36 -42 -24 -26 14 -34 14 -25 -1 5 -8 0 -7 -11 2 -11 9 -16 10 -11 3 4 -8 1 -13 -8 -13 -9 0 -16 6 -16 13 0 7 -3 8 -8 2 -12 -16 -32 -16 -26 0 5 11 2 13 -10 9 -9 -3 -13 -11 -9 -18 4 -6 -2 -4 -12 4 -11 9 -16 10 -11 3 5 -10 -2 -13 -26 -13 -25 0 -29 3 -18 10 12 8 10 10 -8 10 -13 0 -21 -4 -17 -10 3 -5 -7 -8 -23 -7 -22 1 -28 6 -24 20 3 12 -2 17 -16 17 -12 0 -24 -4 -27 -10 -3 -6 1 -7 9 -4 9 3 16 1 16 -5 0 -13 3 -12 -72 -16 -33 -2 -55 1 -52 6 3 5 -7 9 -21 9 -17 0 -24 4 -19 12 5 8 2 9 -9 5 -10 -4 -24 -10 -32 -13 -8 -3 -15 -1 -15 5 0 6 -5 11 -11 11 -5 0 -7 -5 -3 -11 5 -9 -1 -10 -21 -5 -23 6 -27 5 -19 -6 5 -8 0 -5 -10 7 -14 14 -20 16 -23 7 -4 -10 -8 -10 -19 -1 -11 9 -18 9 -26 1 -7 -7 -17 -12 -22 -12 -6 0 -4 5 4 10 12 7 10 9 -7 7 -16 -1 -19 -5 -13 -17 7 -12 3 -16 -16 -18 -17 -1 -23 2 -18 10 5 8 2 9 -9 5 -40 -16 -52 -19 -39 -9 11 7 8 10 -11 14 -16 3 -24 1 -21 -7 3 -6 -6 -11 -20 -11 -15 0 -22 5 -19 12 3 9 -6 12 -29 12 -18 -1 -27 -3 -20 -5 6 -3 12 -9 12 -14 0 -6 -8 -5 -20 1 -12 6 -31 8 -43 4 -29 -10 -48 -6 -65 14 -7 10 -11 11 -7 4 4 -8 -3 -12 -25 -12 -17 0 -29 -4 -26 -8 3 -5 -10 -9 -28 -9 -24 0 -33 4 -29 14 6 16 -9 17 -25 1 -9 -9 -12 -9 -12 0 0 9 -5 10 -19 2 -25 -13 -34 -13 -26 0 3 6 1 10 -4 10 -6 0 -11 -4 -11 -10 0 -5 -4 -10 -10 -10 -5 0 -10 7 -10 15 0 8 -5 15 -11 15 -5 0 -8 -4 -4 -9 3 -5 1 -12 -5 -16 -5 -3 -10 1 -10 9 0 18 -16 21 -25 6 -3 -5 -25 -8 -48 -5 -30 3 -36 1 -22 -5 21 -9 21 -9 -11 -16 -15 -2 -23 2 -27 15 -6 25 -37 23 -38 -3 -2 -48 -17 53 -23 158 -4 61 -14 176 -22 255 -8 79 -13 150 -10 158 3 8 2 12 -3 9 -5 -3 -12 22 -15 57 -12 100 -43 248 -65 307 -27 72 -67 120 -127 150 -42 21 -66 25 -174 28 -77 3 -128 9 -132 16 -6 8 -8 7 -8 -1 0 -7 -5 -13 -11 -13 -5 0 -7 6 -3 13 4 6 -2 3 -14 -7 -12 -11 -25 -16 -29 -13 -3 4 0 7 8 7 11 0 11 2 -1 10 -22 14 -53 13 -44 -2 5 -9 3 -9 -9 1 -14 11 -18 11 -23 -3 -8 -20 -24 -21 -24 -1 0 9 -9 15 -25 15 -14 0 -25 -6 -25 -12 0 -10 -2 -10 -9 0 -9 15 -64 9 -69 -8 -2 -5 -13 -10 -23 -10 -13 0 -18 4 -13 12 5 7 3 8 -7 3 -18 -12 -59 -15 -59 -5 0 13 -32 21 -44 11 -6 -5 -47 -8 -92 -7 -71 2 -87 6 -130 33 -27 17 -48 36 -46 43 1 6 -2 9 -8 5 -16 -10 -50 74 -50 123 0 24 10 75 21 114 33 107 24 191 -31 306 -50 105 -53 145 -19 217 14 31 22 65 21 88 -2 27 1 36 9 31 8 -5 9 -3 5 5 -5 7 -10 10 -13 7 -6 -6 -114 63 -130 83 -18 24 -15 98 7 179 26 93 26 167 0 210 -22 35 -74 72 -103 72 -10 0 -16 3 -13 8 2 4 -10 7 -27 6 -56 -2 -236 16 -262 26 -15 6 -25 17 -25 30 0 29 280 481 293 473 6 -3 7 -1 3 5 -6 10 64 148 82 162 4 3 7 12 7 20 0 8 5 14 12 13 7 -2 10 3 7 10 -6 18 31 99 41 89 5 -4 5 -2 2 4 -4 7 2 47 13 89 23 91 26 173 15 418 -15 337 41 610 185 897 72 143 177 303 193 294 7 -4 9 -4 5 1 -11 12 11 47 25 39 7 -4 9 -4 5 1 -22 24 316 365 345 349 7 -4 9 -4 5 1 -10 11 50 58 63 49 8 -4 9 -3 5 4 -8 13 28 35 39 24 5 -4 4 -1 0 7 -6 11 -4 13 9 8 9 -4 15 -3 12 2 -13 20 204 138 386 210 144 57 304 105 325 97 8 -3 12 -2 9 2 -6 9 122 36 249 52 87 12 397 14 485 5 30 -4 94 -13 143 -21 48 -8 93 -14 100 -14 8 0 7 -4 -3 -11 -12 -8 -10 -10 10 -5 31 7 162 -23 155 -35 -4 -5 1 -6 9 -3 19 7 136 -26 136 -39 0 -6 3 -8 6 -4 4 3 41 -7 83 -22 110 -41 263 -113 252 -120 -5 -3 -3 -11 4 -18 11 -10 14 -10 17 1 2 10 20 4 66 -22 38 -22 60 -42 58 -49 -3 -7 2 -13 10 -13 8 0 12 5 8 11 -3 6 5 3 20 -6 14 -9 24 -21 21 -25 -3 -5 0 -12 6 -16 8 -4 9 -3 5 4 -15 25 12 9 115 -70 62 -46 106 -86 102 -92 -3 -6 -3 -8 1 -4 5 4 26 -7 49 -23 22 -16 46 -29 54 -29 8 0 11 -5 7 -12 -3 -7 14 9 40 35 48 51 53 65 35 100 -14 26 -69 91 -69 81 0 -4 -9 1 -20 11 -11 10 -17 21 -15 25 3 4 -1 7 -8 6 -6 0 -65 37 -129 84 -94 68 -114 86 -100 93 12 5 11 6 -7 3 -28 -6 -200 89 -179 98 7 3 4 4 -7 1 -11 -2 -45 10 -75 26 -30 17 -47 28 -37 25 11 -4 16 -2 12 5 -4 5 -15 7 -25 4 -10 -3 -24 0 -31 7 -8 7 -18 13 -24 13 -5 0 -38 11 -72 24 -42 15 -63 29 -63 40 0 11 -3 12 -8 4 -4 -7 -17 -10 -31 -6 -17 4 -20 8 -9 15 10 7 9 8 -5 4 -24 -8 -210 46 -194 56 6 4 -3 5 -21 2 -18 -4 -32 -3 -31 2 3 20 -2 28 -10 15 -8 -13 -20 -12 -88 2 -116 24 -314 47 -428 48 -67 1 -90 4 -70 9 23 6 14 8 -35 8 -46 0 -56 -2 -35 -7z"/>
</g>
</svg>
