<?xml version="1.0" standalone="no"?>
<!DOCTYPE svg PUBLIC "-//W3C//DTD SVG 20010904//EN"
 "http://www.w3.org/TR/2001/REC-SVG-20010904/DTD/svg10.dtd">
<svg version="1.0" xmlns="http://www.w3.org/2000/svg"
 width="1024.000000pt" height="1024.000000pt" viewBox="0 0 1024.000000 1024.000000"
 preserveAspectRatio="xMidYMid meet">
<metadata>
Created by potrace 1.16, written by Peter Selinger 2001-2019
</metadata>
<g transform="translate(0.000000,1024.000000) scale(0.100000,-0.100000)"
fill="#000000" stroke="none">
<path d="M2940 8362 c0 -5 -19 -12 -41 -16 -23 -4 -51 -12 -63 -18 -11 -7 -25
-11 -29 -10 -5 1 -6 -1 -3 -6 3 -5 -5 -15 -18 -22 -13 -7 -29 -23 -36 -36 -7
-13 -16 -22 -19 -19 -4 2 -7 -4 -8 -13 -1 -9 -6 -33 -11 -53 -16 -63 3 -149
58 -259 28 -56 48 -106 44 -112 -5 -7 -2 -8 6 -3 10 6 12 4 7 -9 -4 -10 -3
-15 3 -11 12 7 43 -64 35 -82 -2 -8 -1 -12 4 -9 4 3 18 -24 30 -59 23 -70 27
-100 11 -75 -8 13 -10 12 -10 -2 0 -10 6 -18 14 -18 9 0 18 -21 25 -62 25
-148 32 -268 29 -511 -2 -142 1 -257 6 -257 5 0 3 -6 -3 -14 -8 -10 -9 -16 -1
-21 5 -3 10 -12 10 -18 0 -7 -4 -6 -10 3 -8 12 -10 11 -10 -7 0 -13 5 -23 10
-23 6 0 10 -13 10 -30 0 -16 -4 -30 -10 -30 -5 0 -10 -18 -10 -40 0 -22 5 -40
10 -40 6 0 10 -47 10 -122 0 -69 -4 -117 -9 -110 -5 9 -8 2 -8 -20 -1 -27 1
-29 7 -13 8 19 9 19 9 -2 1 -12 -3 -25 -9 -28 -5 -3 -10 -12 -10 -18 0 -7 4
-6 10 3 7 10 10 -29 10 -120 0 -91 -3 -130 -10 -120 -7 11 -9 4 -9 -25 1 -35
2 -37 9 -15 6 17 8 2 9 -52 1 -42 -3 -80 -9 -83 -5 -3 -10 -16 -9 -28 0 -21 1
-21 9 -2 5 11 9 -390 9 -927 1 -752 -2 -948 -11 -948 -9 0 -10 -3 -2 -8 14 -9
13 -184 -1 -194 -7 -5 -6 -8 0 -8 13 0 19 -356 7 -364 -5 -3 -6 -41 -4 -85 5
-98 -21 -273 -54 -360 -35 -92 -96 -201 -108 -194 -6 3 -8 3 -4 -2 11 -12 -31
-87 -44 -79 -6 4 -8 3 -4 -4 9 -14 -14 -63 -27 -55 -6 3 -7 1 -3 -5 9 -14 -45
-123 -57 -115 -6 3 -7 1 -3 -5 10 -16 -4 -63 -17 -55 -5 3 -7 2 -4 -4 3 -5 0
-34 -8 -64 -17 -63 -34 -200 -25 -194 7 4 35 -65 32 -78 -1 -5 2 -6 7 -3 5 4
21 -8 36 -26 15 -18 24 -27 20 -20 -3 6 -1 12 4 12 6 0 11 -5 11 -10 0 -7 381
-10 1162 -10 639 1 1157 5 1150 9 -8 4 7 12 38 19 28 7 78 25 111 42 34 16 65
27 70 24 5 -3 8 -2 7 3 -2 5 24 35 58 66 138 128 181 324 107 490 l-27 60 24
41 c48 85 84 135 93 129 6 -3 7 -1 3 5 -9 14 64 133 77 125 6 -3 7 -1 3 5 -4
7 13 42 37 79 24 38 72 114 107 170 36 56 68 100 71 97 4 -2 6 4 5 14 0 9 4
16 11 15 7 -2 10 3 8 10 -8 19 67 125 85 120 12 -4 12 -2 2 5 -13 9 27 78 183
319 22 34 69 107 104 162 35 56 67 98 72 95 5 -3 6 3 2 12 -5 13 -3 15 7 9 9
-6 11 -4 5 5 -5 8 -1 18 10 27 11 7 16 13 12 13 -6 0 101 176 133 217 10 12
21 19 25 15 5 -4 5 -2 1 5 -6 10 138 253 150 253 2 0 1 -8 -2 -17 -5 -15 -4
-15 4 -3 6 8 8 18 6 22 -9 13 107 189 118 181 7 -3 8 -1 4 6 -9 14 82 163 95
155 5 -3 6 2 3 10 -3 9 0 18 8 21 8 3 15 11 15 18 0 7 74 129 165 272 91 143
170 270 177 283 7 12 17 20 23 16 6 -4 8 -3 5 4 -10 14 152 274 165 265 6 -3
8 -1 5 5 -4 5 -4 18 -1 27 6 13 9 14 16 3 7 -10 8 -8 4 5 -3 10 7 37 24 66 48
77 107 211 119 269 13 65 14 192 1 249 -6 23 -22 68 -37 100 -15 32 -27 63
-26 70 0 7 -2 11 -6 10 -4 -1 -23 16 -42 38 -18 22 -37 42 -42 43 -4 2 -4 9 0
15 3 7 3 9 -2 5 -4 -4 -28 8 -53 27 -25 19 -49 35 -54 35 -5 0 -6 5 -2 12 4 6
3 8 -4 4 -13 -8 -63 14 -57 25 3 4 0 11 -6 15 -8 5 -9 3 -4 -6 6 -10 4 -12
-11 -6 -93 37 -175 49 -336 51 -92 0 -163 -2 -157 -6 6 -3 -10 -10 -37 -14
-26 -4 -84 -20 -128 -35 -44 -16 -84 -26 -88 -24 -4 3 -8 1 -8 -3 0 -13 -138
-85 -150 -78 -5 3 -10 2 -10 -4 0 -14 -104 -60 -190 -83 -94 -25 -230 -27
-325 -4 -38 9 -110 36 -160 61 -98 48 -220 139 -209 157 4 6 3 8 -3 5 -33 -21
-349 389 -327 424 4 7 3 9 -4 6 -6 -4 -36 39 -73 105 -34 62 -85 151 -114 198
-28 47 -50 91 -47 99 3 8 0 11 -5 8 -6 -4 -40 31 -76 77 -69 87 -147 164 -254
249 -34 27 -60 54 -57 59 3 5 0 8 -8 6 -21 -5 -109 55 -95 65 8 6 6 7 -5 3
-16 -5 -88 29 -88 41 0 2 5 1 12 -3 7 -4 8 -3 4 4 -4 6 -12 9 -19 6 -7 -2 -56
15 -108 40 -51 24 -117 50 -146 57 -29 7 -50 15 -48 18 1 3 -9 6 -23 7 -15 1
-74 9 -132 18 -82 13 -183 18 -480 19 -206 2 -381 6 -388 11 -6 4 -12 3 -12
-2z m560 -757 l0 -605 -188 0 -189 1 -6 167 c-3 92 -14 212 -23 267 -9 55 -17
112 -18 127 -1 14 -3 25 -5 22 -8 -7 -71 197 -65 208 4 6 3 8 -3 5 -11 -7
-130 231 -143 287 -9 42 3 91 20 81 6 -4 9 -1 8 7 -2 7 5 12 14 12 10 -1 15 2
13 6 -8 13 41 16 323 18 l262 2 0 -605z m303 584 c74 -11 179 -38 254 -66 31
-11 40 -19 36 -32 -4 -13 -3 -14 5 -2 9 12 21 9 77 -19 47 -24 62 -36 53 -43
-9 -6 -8 -7 5 -3 12 4 44 -10 90 -40 40 -26 74 -49 77 -53 3 -4 24 -21 48 -40
24 -19 39 -38 35 -44 -3 -7 -3 -9 2 -5 11 10 87 -51 79 -64 -4 -6 -2 -8 4 -4
12 7 79 -70 74 -86 -1 -5 2 -7 7 -4 12 8 34 -21 26 -34 -4 -6 -1 -9 7 -8 7 2
12 -3 11 -9 -2 -7 1 -12 6 -10 14 3 73 -82 65 -95 -5 -7 -2 -8 6 -3 10 6 12 4
7 -8 -4 -10 -2 -16 4 -14 13 2 110 -163 103 -175 -3 -4 -1 -8 3 -8 11 0 84
-135 78 -143 -3 -4 -2 -5 2 -2 3 3 28 -28 54 -67 47 -71 59 -95 40 -83 -5 3
-12 1 -16 -4 -3 -6 3 -8 13 -6 19 3 77 -58 68 -73 -2 -4 0 -14 6 -22 8 -12 9
-11 4 4 -6 16 -4 17 9 6 8 -7 14 -20 13 -29 -2 -9 2 -15 8 -14 13 2 119 -115
119 -132 0 -5 5 -10 10 -10 18 0 95 -68 88 -78 -3 -6 -1 -7 4 -4 14 9 65 -32
56 -46 -4 -6 0 -8 10 -4 16 6 34 -8 20 -16 -5 -2 -2 -2 5 0 16 4 57 -23 45
-29 -4 -3 -3 -3 4 -2 7 2 45 -12 85 -30 135 -62 178 -71 343 -71 127 1 161 4
223 23 40 13 77 20 84 16 6 -4 8 -3 5 3 -4 6 14 18 41 28 26 10 52 22 59 27 7
5 18 6 24 2 7 -4 9 -3 6 3 -8 12 141 86 155 77 6 -4 8 -3 5 3 -7 10 63 40 148
63 22 6 90 13 150 17 135 7 260 -14 355 -59 81 -39 205 -157 197 -188 -3 -11
-1 -18 3 -15 11 7 27 -46 35 -110 11 -82 -47 -297 -75 -280 -6 3 -7 0 -4 -9 7
-18 -124 -238 -136 -231 -11 7 -21 -10 -25 -38 -3 -30 -70 -129 -80 -119 -5 4
-5 2 -2 -4 8 -15 -57 -117 -68 -107 -4 4 -5 3 -2 -4 8 -14 -120 -219 -135
-215 -5 1 -7 -2 -3 -8 4 -6 -9 -34 -27 -63 -19 -29 -60 -94 -92 -145 -34 -53
-62 -89 -68 -85 -7 3 -8 1 -4 -6 10 -15 -103 -193 -117 -184 -6 3 -7 1 -3 -6
9 -13 -122 -223 -134 -216 -5 3 -12 0 -16 -6 -4 -8 -3 -9 4 -5 20 12 13 -5
-27 -68 -209 -328 -259 -405 -263 -401 -3 3 -5 -1 -5 -8 0 -21 -204 -337 -214
-331 -5 3 -7 -1 -4 -8 6 -17 -139 -241 -150 -231 -4 5 -5 2 -1 -4 8 -14 -17
-56 -27 -48 -4 3 -5 2 -2 -1 8 -12 -26 -65 -37 -58 -6 4 -8 3 -4 -4 8 -14 -54
-113 -67 -105 -6 3 -7 1 -3 -6 4 -6 -2 -27 -14 -46 -22 -36 -37 -47 -26 -19 3
9 2 12 -5 9 -5 -4 -9 -14 -7 -23 3 -24 -52 -113 -64 -105 -7 3 -8 1 -4 -5 10
-17 -16 -49 -37 -46 -9 1 -15 -2 -11 -7 3 -5 10 -7 15 -4 16 11 10 -3 -37 -77
-143 -224 -168 -258 -176 -246 -6 9 -8 7 -4 -7 4 -13 -3 -31 -19 -50 -15 -19
-24 -25 -25 -15 0 13 -1 13 -10 0 -8 -13 -76 -15 -500 -16 -269 -1 -490 2
-490 5 0 11 221 261 231 261 5 0 9 5 9 11 0 19 123 158 134 152 6 -3 8 -3 4 2
-10 11 62 96 75 88 5 -3 7 -1 4 4 -8 12 229 289 244 285 6 -1 8 1 5 6 -7 12
62 92 77 89 7 -1 11 4 9 11 -2 10 114 156 176 221 7 7 56 64 109 127 53 62
100 111 106 107 6 -3 7 -2 4 4 -8 12 61 95 73 88 5 -3 12 0 16 6 4 8 3 9 -4 5
-26 -16 -9 11 50 78 80 92 94 106 83 86 -5 -9 -4 -12 1 -7 5 5 9 14 9 20 1 7
7 11 14 9 7 -1 10 2 6 8 -9 15 138 182 148 167 5 -8 7 -7 5 4 -4 22 60 101 74
93 7 -4 8 -2 4 5 -9 14 203 263 217 254 6 -3 7 -2 4 4 -8 12 92 135 104 127 5
-3 8 -2 7 3 -4 15 23 54 34 47 6 -4 8 -3 5 4 -4 5 5 21 21 34 15 12 29 28 32
33 10 25 123 154 134 152 6 -1 10 4 8 11 -3 17 48 73 61 65 6 -3 7 -1 3 6 -10
16 321 404 337 394 6 -3 7 -2 4 4 -8 13 52 85 65 77 6 -4 8 -3 5 3 -8 13 78
125 88 115 5 -4 5 -2 2 4 -4 6 4 31 16 55 18 35 22 61 22 129 0 75 -3 91 -29
138 -32 57 -74 96 -146 132 -39 20 -58 23 -145 21 -124 -2 -165 -5 -159 -10 7
-8 -99 -41 -110 -34 -6 3 -8 2 -3 -2 10 -12 -131 -85 -152 -78 -12 4 -13 2 -3
-4 9 -7 -10 -20 -68 -46 -45 -21 -86 -35 -91 -31 -5 3 -9 1 -9 -4 0 -13 -139
-49 -225 -58 -149 -16 -338 -3 -469 33 -47 13 -55 18 -40 25 13 6 10 7 -13 4
-41 -7 -177 60 -278 136 -98 73 -268 244 -259 260 4 7 3 10 -1 5 -11 -10 -86
63 -78 76 3 6 2 7 -4 4 -10 -7 -80 72 -75 86 1 4 -2 6 -6 5 -4 -2 -94 85 -199
192 -106 107 -223 222 -262 255 -38 33 -67 64 -64 69 4 5 2 6 -4 3 -6 -4 -19
1 -29 9 -10 9 -13 12 -5 8 9 -5 12 -3 7 5 -4 6 -12 9 -17 6 -5 -4 -21 3 -37
13 -97 69 -231 119 -364 135 l-98 11 0 343 0 343 46 0 c25 0 78 -5 117 -11z
m12 -850 c66 -16 95 -31 95 -46 0 -10 7 -14 19 -10 11 2 34 -4 53 -15 44 -27
43 -25 28 -43 -7 -9 -10 -18 -6 -22 3 -3 6 -1 6 6 0 7 5 9 10 6 7 -4 10 -617
10 -1806 0 -1587 -2 -1800 -15 -1805 -8 -4 -12 -11 -9 -16 4 -6 10 -5 15 3 5
8 9 -191 9 -443 l0 -457 -185 1 c-108 0 -185 4 -185 10 0 5 5 6 10 3 6 -3 10
-2 10 4 0 5 -5 11 -11 13 -9 3 -13 520 -15 1973 -2 1084 -6 2126 -8 2317 l-4
347 67 -5 c36 -3 84 -10 106 -15z m376 -236 c12 -14 12 -16 0 -8 -10 5 -12 4
-7 -4 4 -6 11 -9 15 -6 12 7 83 -64 75 -76 -3 -5 0 -8 8 -7 7 2 12 -4 10 -12
-2 -8 0 -12 4 -7 4 4 34 -18 66 -50 48 -48 55 -59 45 -72 -11 -14 -10 -14 6
-2 16 12 22 9 18 -12 -1 -5 2 -6 7 -3 5 3 34 -21 65 -52 l57 -57 0 -1712 0
-1711 -26 -29 c-14 -15 -31 -28 -37 -28 -7 -1 -11 -6 -10 -11 3 -18 -225 -291
-240 -286 -4 1 -6 -2 -3 -7 3 -5 -1 -14 -8 -20 -11 -10 -17 -8 -25 6 -6 10
-11 13 -11 8 0 -6 4 -15 10 -21 6 -6 1 -20 -15 -39 l-24 -30 -1 2133 c0 1172
2 2132 4 2132 2 0 10 -8 17 -17z m-690 -635 c1 -216 2 -676 4 -1023 2 -405 -1
-637 -7 -649 -6 -12 -7 -16 0 -12 6 4 10 -206 10 -604 l0 -610 -110 0 c-60 0
-119 5 -130 11 -14 8 -18 8 -14 0 5 -7 -16 -10 -64 -9 l-70 1 0 1644 0 1643
190 0 190 0 1 -392z m1263 36 c2 -10 6 -17 9 -14 9 7 117 -102 111 -112 -3 -5
0 -7 8 -6 7 2 12 -3 10 -10 -1 -8 1 -11 6 -8 5 3 36 -18 71 -46 46 -38 59 -54
49 -60 -9 -6 -6 -7 9 -3 16 4 23 1 28 -16 4 -13 7 -540 7 -1172 0 -937 -3
-1152 -14 -1167 -54 -75 -243 -288 -251 -283 -6 3 -7 2 -4 -4 5 -8 -43 -75
-84 -117 -5 -6 -9 146 -9 370 -1 208 -3 407 -5 442 -3 44 -1 61 7 56 7 -5 8
-2 3 7 -11 17 -18 482 -7 475 4 -2 9 7 10 22 1 21 0 24 -8 12 -6 -10 -10 94
-9 305 0 188 4 312 9 300 7 -16 9 -17 9 -3 1 9 -3 20 -9 23 -13 8 -13 625 0
625 5 0 5 13 -1 32 -6 22 -6 34 1 36 6 2 6 10 1 20 -5 9 -7 33 -6 52 2 19 4
98 4 175 l1 140 25 -26 c15 -14 28 -34 29 -45z m2083 -226 c15 -8 27 -19 26
-26 -2 -6 4 -9 12 -6 18 7 20 -7 3 -26 -11 -12 -10 -12 4 -1 15 12 19 10 28
-14 17 -46 11 -97 -18 -147 -38 -66 -283 -348 -295 -341 -6 3 -7 1 -3 -5 10
-16 -106 -145 -117 -130 -6 9 -7 8 -3 -4 6 -19 -95 -143 -116 -143 -6 0 -12
-7 -14 -17 -2 -20 -105 -149 -113 -143 -4 2 -6 25 -4 52 1 26 2 210 3 408 l1
360 168 83 c111 54 175 80 187 76 14 -4 15 -3 6 4 -13 9 3 15 93 36 33 8 122
-2 152 -16z m-1556 -164 c75 -31 224 -74 256 -74 l23 0 1 -352 c0 -194 3 -453
5 -575 3 -145 1 -229 -6 -242 -7 -14 -7 -22 1 -27 8 -5 10 -57 6 -182 -5 -144
-9 -178 -23 -193 -9 -10 -21 -16 -27 -12 -6 3 -7 1 -3 -6 9 -14 -102 -143
-117 -134 -6 3 -7 1 -3 -5 6 -10 -163 -223 -182 -229 -4 -2 -7 461 -8 1027 -1
567 2 1030 6 1030 3 0 35 -12 71 -26z m809 -106 c0 -32 -3 -39 -10 -28 -8 12
-10 10 -10 -8 0 -13 4 -20 10 -17 14 8 13 -28 -1 -42 -8 -8 -8 -17 0 -31 14
-26 15 -54 2 -33 -5 8 -9 -24 -9 -80 -1 -62 2 -87 8 -74 6 14 8 2 8 -40 -1
-52 -2 -54 -7 -20 -4 31 -7 19 -11 -50 -7 -118 0 -289 10 -255 7 21 8 19 9
-15 0 -25 -2 -35 -8 -27 -5 9 -8 2 -8 -20 -1 -27 1 -29 7 -13 6 13 9 -8 9 -60
1 -59 -2 -76 -10 -65 -8 12 -9 10 -5 -10 4 -21 -9 -42 -71 -115 -41 -50 -118
-141 -170 -203 -52 -62 -99 -110 -104 -107 -5 3 -6 0 -3 -8 3 -8 1 -18 -5 -22
-8 -4 -11 191 -11 664 l0 671 63 2 62 1 -65 7 c-55 6 -49 7 43 6 59 0 107 2
107 5 0 5 54 14 158 27 8 1 12 -12 12 -40z m-2590 -2951 l0 -363 -245 1 c-135
0 -245 0 -245 1 0 0 11 28 25 61 46 114 66 241 72 460 l6 202 193 1 194 0 0
-363z m1749 -519 c11 -11 13 -10 7 2 -5 10 -3 9 7 -2 34 -43 48 -218 16 -218
-6 0 -7 -5 -4 -10 17 -27 -85 -149 -154 -184 -89 -46 -81 -46 -1236 -47 -599
0 -1098 0 -1107 1 -26 0 -31 51 -12 122 18 68 94 237 137 306 l27 42 1153 0
c909 0 1156 -3 1166 -12z"/>
</g>
</svg>
