<?xml version="1.0" standalone="no"?>
<!DOCTYPE svg PUBLIC "-//W3C//DTD SVG 20010904//EN" "http://www.w3.org/TR/2001/REC-SVG-20010904/DTD/svg10.dtd">
<svg xmlns="http://www.w3.org/2000/svg" version="1.0" width="1024.000000pt" height="1024.000000pt" viewBox="0 0 1024.000000 1024.000000" preserveAspectRatio="xMidYMid meet">
<metadata>
Created by potrace 1.16, written by Peter Selinger 2001-2019
<meta name="Producer" content="Online-Convert"/></metadata>
<g transform="translate(0.000000,1024.000000) scale(0.100000,-0.100000)" fill="#000000" stroke="none">
<path d="M5068 8402 c-42 -22 -210 -182 -298 -285 -21 -25 -36 -34 -40 -27 -5 8 -9 6 -13 -5 -4 -9 -3 -13 3 -10 17 11 11 -11 -8 -28 -10 -10 -22 -14 -27 -10 -4 5 -5 3 -1 -4 3 -6 -6 -27 -22 -45 -16 -18 -77 -95 -136 -170 -59 -76 -111 -138 -117 -138 -5 0 -8 -4 -6 -8 1 -5 -34 -60 -78 -122 -44 -63 -82 -119 -84 -124 -2 -6 -32 -53 -66 -106 -108 -168 -210 -356 -287 -533 -19 -42 -38 -74 -43 -70 -4 5 -5 3 -2 -3 7 -12 -13 -85 -22 -80 -3 2 -7 -6 -7 -17 -1 -12 -13 -67 -28 -121 -51 -194 -55 -430 -9 -590 3 -10 1 -16 -3 -13 -5 3 -9 -6 -9 -19 0 -23 1 -23 14 -7 12 16 13 15 9 -9 -3 -15 -2 -25 3 -23 4 3 11 -5 14 -17 4 -13 16 -42 27 -66 10 -23 16 -48 12 -54 -5 -7 -3 -8 6 -3 10 6 12 4 7 -9 -4 -9 -3 -15 2 -12 5 3 12 -1 15 -10 10 -25 7 -27 -11 -13 -16 13 -17 12 -4 -3 7 -10 17 -15 22 -12 5 3 17 -12 26 -33 10 -21 20 -40 23 -43 30 -28 88 -115 83 -123 -3 -5 -2 -7 4 -4 5 3 32 -17 59 -46 28 -29 77 -75 110 -102 81 -69 84 -72 76 -80 -4 -5 -2 -5 5 -2 6 4 49 -15 95 -42 120 -71 182 -95 215 -86 16 5 35 8 43 7 9 -1 10 1 3 4 -8 4 -8 14 3 40 20 48 3 81 -60 115 -32 17 -44 29 -35 33 8 3 5 4 -6 1 -25 -6 -131 57 -127 75 2 7 -3 10 -12 7 -17 -7 -116 74 -207 169 -120 126 -199 270 -244 444 -23 88 -27 266 -9 375 40 244 206 602 447 967 49 76 95 134 100 131 6 -3 7 -2 4 4 -9 14 42 85 55 77 7 -4 8 -2 4 5 -8 13 149 226 166 226 6 0 12 7 14 17 3 26 46 78 58 71 6 -3 8 -3 4 2 -11 12 52 86 65 78 7 -3 9 -3 5 2 -10 11 11 47 23 40 5 -4 8 -2 7 4 -5 16 142 172 154 165 6 -4 8 -3 5 3 -3 5 14 29 38 53 31 30 45 39 45 28 0 -9 5 -20 12 -24 7 -5 8 -2 3 7 -4 8 20 -13 53 -45 34 -33 58 -64 55 -69 -3 -6 -1 -7 4 -4 13 8 46 -27 36 -38 -5 -4 -3 -5 4 -1 7 4 18 -5 27 -23 9 -16 20 -31 24 -33 18 -6 121 -132 116 -140 -3 -5 -2 -7 3 -6 19 6 187 -207 177 -224 -4 -6 -3 -8 4 -4 6 3 20 -7 32 -24 12 -16 18 -30 14 -30 -4 0 -1 -6 8 -12 30 -24 88 -110 82 -120 -4 -6 -2 -8 3 -5 14 9 63 -66 63 -95 0 -15 3 -19 8 -10 6 8 15 0 30 -26 12 -22 18 -43 14 -47 -4 -5 -2 -5 4 -2 11 6 157 -225 157 -249 0 -8 4 -14 9 -14 5 0 7 -4 4 -9 -4 -5 -1 -11 4 -13 6 -2 12 -13 13 -25 0 -12 4 -20 9 -17 11 7 30 -35 22 -48 -4 -6 -3 -8 3 -5 6 4 14 0 17 -9 4 -10 2 -13 -7 -9 -6 4 -4 0 5 -7 25 -21 141 -291 136 -316 -1 -4 4 -19 10 -34 30 -72 47 -196 46 -333 -1 -134 -2 -145 -38 -250 -20 -60 -53 -139 -72 -174 -42 -76 -101 -156 -116 -156 -6 0 -12 -9 -14 -19 -4 -25 -104 -127 -117 -119 -6 3 -7 1 -4 -4 7 -11 -20 -28 -36 -24 -5 1 -6 -3 -3 -8 8 -12 -49 -53 -59 -43 -5 4 -5 2 -2 -4 8 -14 -100 -87 -115 -78 -6 4 -8 3 -5 -3 3 -5 -9 -17 -27 -27 -37 -20 -66 -63 -66 -98 0 -25 37 -68 59 -68 7 0 10 -4 7 -9 -3 -5 13 -2 36 6 48 16 156 85 246 155 34 27 68 46 74 42 6 -4 8 -3 5 3 -7 11 36 56 46 48 4 -3 5 -2 2 1 -8 12 98 119 114 116 11 -2 12 0 4 6 -9 6 0 24 32 67 25 33 72 113 104 177 32 64 60 115 62 113 2 -2 4 6 5 18 1 12 11 58 23 102 53 194 30 481 -60 720 -11 30 -17 60 -13 66 4 7 3 9 -3 6 -6 -4 -18 14 -28 41 -29 77 -141 292 -225 433 -44 72 -77 136 -73 142 3 6 2 7 -4 4 -9 -6 -105 131 -101 143 1 3 -13 20 -30 39 -17 19 -29 37 -27 39 3 3 -1 10 -9 16 -15 12 -126 163 -126 171 0 3 -9 14 -20 25 -12 12 -18 25 -15 31 4 5 2 8 -4 7 -13 -4 -152 172 -145 184 3 5 1 7 -4 6 -14 -4 -144 141 -136 153 3 5 0 8 -8 7 -7 -2 -12 3 -10 10 1 8 -2 11 -7 8 -12 -8 -92 85 -84 97 3 6 1 7 -5 3 -6 -4 -19 5 -28 19 -9 14 -21 25 -26 25 -6 0 -28 16 -49 35 -21 19 -55 42 -76 53 -38 18 -39 18 -85 -6z"/>
<path d="M5055 7195 l-25 -24 0 -422 0 -421 -79 109 c-44 61 -105 134 -135 164 -30 29 -52 58 -49 64 4 5 3 7 -2 3 -4 -4 -31 12 -59 36 -28 24 -61 48 -73 54 -20 11 -102 12 -101 2 1 -3 -6 -22 -15 -42 -9 -20 -14 -43 -12 -50 3 -8 48 -53 100 -102 52 -49 92 -93 88 -99 -3 -6 -2 -7 4 -4 20 12 114 -104 108 -134 -2 -11 0 -17 6 -14 5 4 7 11 4 16 -4 5 -4 9 -1 9 10 0 83 -115 120 -188 25 -49 35 -81 31 -95 -5 -16 -4 -18 3 -8 8 11 16 -5 34 -60 23 -74 23 -75 23 -619 0 -578 -8 -776 -51 -1225 -35 -366 -38 -426 -21 -448 21 -26 70 -37 97 -23 51 25 58 50 79 266 28 278 48 530 66 806 9 152 20 247 31 280 23 70 65 145 77 137 6 -3 7 -1 3 5 -9 15 94 163 107 155 6 -3 7 -1 4 4 -10 16 169 238 309 383 35 36 70 81 78 101 14 35 14 37 -12 67 -32 35 -68 46 -100 28 -28 -15 -120 -103 -133 -128 -5 -10 -17 -18 -26 -18 -9 0 -14 -3 -10 -6 8 -8 -133 -170 -145 -166 -5 1 -7 -2 -3 -8 3 -5 1 -10 -6 -10 -7 0 -9 -3 -6 -6 4 -4 -11 -28 -32 -53 -21 -25 -46 -58 -56 -73 -9 -15 -22 -25 -28 -21 -6 4 -7 1 -2 -7 6 -10 4 -12 -10 -6 -14 5 -16 4 -7 -7 12 -14 -1 -37 -20 -37 -4 0 -9 410 -10 911 l-3 910 -25 19 c-36 28 -85 26 -115 -5z"/>
<path d="M4355 4663 c-223 -20 -600 -90 -799 -150 -13 -4 -17 -1 -12 8 4 8 2 7 -6 -2 -17 -20 -114 -53 -134 -45 -8 3 -12 1 -9 -4 3 -5 -7 -13 -22 -16 -66 -17 -292 -118 -392 -177 -25 -14 -50 -23 -55 -20 -6 4 -8 3 -4 -2 4 -4 -4 -16 -18 -27 -21 -17 -27 -18 -42 -7 -14 11 -15 11 -5 -1 10 -11 1 -22 -49 -59 -34 -25 -67 -45 -73 -43 -5 2 -7 0 -3 -4 4 -4 -19 -36 -52 -71 -33 -35 -79 -97 -103 -138 -24 -41 -48 -71 -52 -67 -5 4 -5 1 -1 -6 4 -7 2 -28 -4 -47 -17 -53 -39 -199 -30 -205 4 -3 10 -29 14 -57 4 -29 16 -74 26 -99 23 -53 24 -58 8 -48 -7 4 -8 3 -4 -5 4 -6 11 -9 16 -6 10 6 22 -23 15 -35 -3 -5 3 -13 12 -19 25 -13 84 -97 75 -106 -4 -5 -2 -5 4 -2 6 4 38 -22 71 -56 33 -34 64 -64 69 -67 5 -3 8 -9 6 -13 -1 -5 1 -6 6 -3 10 6 95 -48 87 -56 -3 -2 1 -5 8 -5 12 0 156 -79 167 -92 3 -3 10 -7 15 -8 6 -1 78 -32 160 -67 83 -36 159 -68 170 -72 11 -3 22 -7 25 -8 138 -47 367 -104 583 -145 109 -20 195 -40 192 -43 -3 -3 6 -3 20 -1 14 3 60 0 102 -6 127 -18 439 -40 661 -47 356 -12 880 30 1237 97 382 72 654 158 913 290 77 39 140 66 150 63 12 -4 13 -3 5 3 -9 6 14 28 75 73 148 109 233 200 300 320 31 56 62 157 62 204 0 14 5 26 11 26 5 0 8 3 5 8 -2 4 -7 26 -10 48 -17 111 -46 195 -95 269 -22 33 -37 64 -34 70 4 5 3 7 -1 3 -9 -8 -72 61 -68 75 1 4 -1 6 -6 3 -5 -3 -23 10 -41 28 -22 22 -28 35 -20 38 9 3 8 6 -5 11 -10 4 -15 3 -11 -3 11 -18 -6 -10 -45 21 -22 18 -37 36 -33 42 3 6 1 7 -4 4 -6 -4 -34 8 -62 27 -72 49 -291 158 -393 196 -49 19 -85 38 -81 43 3 6 1 7 -5 3 -6 -4 -39 2 -74 14 -176 58 -539 134 -738 155 -36 4 -73 9 -83 11 -49 9 -218 16 -242 10 -33 -8 -59 -64 -46 -98 19 -51 40 -58 200 -74 83 -7 196 -21 251 -29 55 -8 105 -15 111 -15 5 0 8 -3 6 -7 -3 -5 16 -9 42 -9 106 -3 480 -108 675 -190 77 -32 85 -38 74 -53 -12 -14 -11 -14 4 -2 15 11 26 8 80 -22 35 -19 62 -40 61 -46 -2 -5 4 -8 12 -5 18 7 47 -14 38 -28 -3 -6 0 -8 8 -6 34 12 279 -207 262 -235 -3 -5 -1 -7 5 -4 12 8 64 -91 55 -106 -3 -5 1 -13 8 -18 10 -6 15 -35 18 -95 2 -57 0 -84 -7 -80 -6 4 -8 -2 -5 -14 9 -32 -53 -143 -120 -215 -32 -36 -64 -62 -69 -58 -6 3 -8 1 -5 -4 6 -10 -129 -123 -146 -123 -4 0 -32 -16 -64 -36 -51 -33 -174 -94 -188 -94 -4 0 -3 5 1 12 4 7 3 8 -5 4 -6 -4 -9 -11 -6 -15 7 -12 -131 -65 -146 -56 -7 5 -10 4 -6 -2 13 -22 -491 -159 -548 -148 -20 3 -25 2 -16 -4 18 -11 -91 -27 -110 -16 -7 5 -10 4 -6 -2 4 -7 -24 -15 -76 -23 -45 -6 -104 -16 -132 -21 -27 -5 -89 -10 -136 -12 -48 -1 -85 -5 -82 -9 2 -5 -19 -8 -46 -8 -28 0 -51 5 -51 10 0 6 -12 10 -27 9 l-28 -1 25 -7 25 -7 -25 -8 c-69 -22 -1089 -9 -1028 13 10 3 -20 6 -65 6 -93 1 -319 34 -311 47 3 4 -2 5 -10 2 -9 -3 -48 -1 -88 6 -108 17 -408 92 -402 101 2 4 -4 5 -14 3 -20 -6 -241 71 -226 78 5 3 2 3 -6 1 -24 -7 -193 69 -178 79 9 6 7 8 -7 5 -53 -10 -296 142 -405 253 -163 167 -205 335 -126 502 28 59 120 169 139 165 7 -1 11 3 10 10 -4 17 84 86 98 77 7 -4 9 -3 6 3 -4 6 15 25 43 43 44 28 52 30 68 19 15 -13 16 -12 4 3 -12 15 -4 22 77 62 185 93 427 181 471 171 17 -4 20 -3 12 3 -29 19 354 100 628 132 96 12 195 23 219 26 81 10 120 89 71 142 -18 19 -30 22 -88 20 -37 -1 -85 -3 -107 -5z"/>
</g>
</svg>
