<?xml version="1.0" standalone="no"?>
<!DOCTYPE svg PUBLIC "-//W3C//DTD SVG 20010904//EN" "http://www.w3.org/TR/2001/REC-SVG-20010904/DTD/svg10.dtd">
<svg xmlns="http://www.w3.org/2000/svg" version="1.0" width="1024.000000pt" height="1024.000000pt" viewBox="0 0 1024.000000 1024.000000" preserveAspectRatio="xMidYMid meet">
<metadata>
Created by potrace 1.16, written by Peter Selinger 2001-2019
<meta name="Producer" content="Online-Convert"/></metadata>
<g transform="translate(0.000000,1024.000000) scale(0.100000,-0.100000)" fill="#000000" stroke="none">
<path d="M4980 8574 c-14 -2 -65 -9 -115 -15 -345 -42 -713 -207 -979 -438 -38 -33 -73 -58 -79 -54 -6 3 -7 2 -4 -4 3 -5 -9 -25 -28 -43 -19 -19 -35 -30 -35 -25 0 4 -9 0 -20 -10 -11 -10 -17 -21 -15 -25 7 -12 -74 -105 -88 -102 -7 2 -9 0 -5 -3 4 -4 -6 -27 -23 -51 -21 -31 -34 -42 -47 -38 -12 4 -13 3 -4 -3 10 -8 1 -29 -39 -94 -110 -176 -194 -385 -237 -589 -46 -216 -47 -234 -47 -1582 0 -845 -3 -1278 -10 -1278 -5 0 -3 -5 5 -10 10 -7 -24 -10 -105 -10 -185 0 -527 -18 -770 -41 -121 -11 -258 -24 -305 -28 -93 -9 -129 -22 -132 -49 -3 -43 -3 -80 2 -79 3 1 16 -5 29 -12 15 -9 40 -11 70 -7 146 19 461 47 696 62 288 18 693 15 930 -6 216 -19 491 -69 755 -135 313 -78 536 -108 825 -108 185 -1 240 3 345 21 139 25 263 58 389 104 68 25 85 28 93 17 8 -11 9 -11 5 2 -4 11 9 22 45 37 28 12 55 19 61 15 6 -3 7 -2 4 4 -7 11 347 187 496 247 125 50 278 98 294 92 8 -3 11 -1 8 4 -3 6 -4 10 -1 10 3 0 54 13 113 29 356 96 658 131 1149 131 293 0 312 1 328 19 25 27 17 79 -15 103 -24 18 -46 20 -335 21 -480 2 -811 -36 -1167 -135 -60 -16 -115 -27 -123 -24 -8 3 -13 2 -10 -3 3 -4 -14 -14 -37 -20 -86 -26 -286 -104 -415 -162 -73 -33 -137 -57 -144 -53 -7 4 -8 3 -4 -4 9 -15 -298 -167 -320 -158 -8 3 -13 2 -10 -3 10 -16 -147 -68 -321 -106 -359 -79 -766 -52 -1312 84 -237 60 -571 109 -806 119 l-150 7 0 1325 c0 1323 0 1325 22 1446 33 180 123 451 145 438 7 -4 8 -2 4 4 -17 28 183 357 217 357 6 0 11 8 13 19 1 10 17 34 35 52 27 28 35 32 48 21 14 -10 14 -10 4 4 -10 13 -5 22 30 57 24 24 47 39 52 35 4 -5 5 -3 1 4 -12 21 233 211 255 197 7 -4 9 -3 6 3 -17 27 352 197 384 177 7 -4 9 -3 6 3 -11 17 179 62 357 84 108 13 339 7 441 -11 147 -26 245 -52 239 -62 -4 -7 -2 -8 5 -4 19 12 225 -60 215 -75 -3 -5 3 -6 12 -2 12 4 15 3 10 -5 -4 -8 -2 -10 7 -6 8 3 56 -18 107 -46 110 -61 151 -90 144 -101 -3 -5 1 -6 8 -4 17 7 194 -138 190 -154 -1 -7 1 -10 6 -7 5 3 40 -27 78 -67 116 -120 117 -122 104 -149 -10 -21 -10 -21 3 -5 13 16 16 15 38 -15 74 -100 151 -237 145 -255 -4 -9 -1 -11 6 -7 8 5 9 2 5 -10 -4 -9 -3 -15 2 -12 11 7 33 -53 24 -67 -3 -5 -1 -7 5 -3 13 8 26 -29 16 -45 -4 -7 -3 -9 4 -5 13 8 56 -118 48 -140 -3 -8 -2 -13 3 -9 9 5 28 -66 51 -190 21 -119 30 -484 30 -1280 0 -445 0 -820 0 -832 0 -55 80 -83 120 -43 20 20 20 33 20 1003 0 1080 -1 1095 -61 1336 -25 101 -28 126 -17 133 10 8 10 9 -2 5 -11 -2 -24 19 -46 78 -17 44 -48 113 -68 153 -20 40 -34 78 -30 84 4 6 3 8 -3 5 -13 -8 -86 111 -77 125 4 6 3 8 -3 5 -13 -8 -76 79 -68 93 4 6 2 9 -4 8 -14 -4 -92 92 -85 103 3 5 0 8 -8 7 -7 -2 -12 4 -10 12 2 8 0 12 -4 8 -4 -4 -44 27 -88 70 -100 96 -165 148 -281 225 -299 197 -641 303 -1010 312 -88 2 -171 2 -185 -1z"/>
<path d="M7950 4118 c-207 -17 -467 -68 -660 -130 -241 -77 -468 -207 -760 -433 -346 -268 -499 -373 -522 -359 -7 4 -8 3 -4 -4 10 -17 -200 -115 -358 -167 -317 -105 -679 -153 -1071 -142 -116 3 -320 20 -525 43 -314 35 -355 37 -655 38 -414 1 -606 -22 -960 -114 -280 -73 -519 -163 -533 -201 -21 -57 17 -104 83 -104 24 0 42 2 39 6 -9 14 222 98 406 147 385 103 775 145 1147 123 104 -6 202 -11 218 -11 17 0 25 -4 18 -8 -6 -4 17 -7 50 -7 34 0 91 -4 127 -8 351 -43 793 -59 1020 -36 74 7 154 14 177 14 22 0 39 3 37 6 -2 3 29 11 69 18 184 32 397 92 550 155 49 20 93 33 99 30 7 -5 8 -2 3 6 -6 10 -4 12 9 7 9 -4 15 -3 12 2 -7 11 43 33 56 25 6 -4 8 -2 5 3 -8 13 20 26 35 16 7 -3 8 -1 4 5 -4 7 12 21 41 36 26 13 99 58 162 100 62 42 118 73 124 69 5 -3 7 -1 4 4 -9 14 80 86 94 77 7 -4 9 -3 6 4 -8 12 120 117 143 117 8 0 15 5 15 11 0 18 63 66 76 58 7 -4 9 -3 6 3 -8 12 50 56 63 48 6 -4 9 -1 8 7 -2 7 5 12 14 12 10 -1 16 3 15 9 -6 31 359 215 538 270 270 84 593 127 954 127 169 0 190 2 204 18 23 25 21 78 -3 102 -19 19 -32 20 -247 19 -126 -1 -275 -6 -333 -11z"/>
<path d="M2825 3594 c-134 -12 -300 -30 -755 -80 -124 -13 -137 -16 -158 -41 -18 -19 -22 -33 -17 -52 3 -14 7 -34 8 -43 1 -9 3 -15 5 -13 3 2 13 0 24 -6 14 -7 53 -6 136 5 957 128 1267 135 1927 41 387 -55 443 -59 730 -59 234 0 286 3 390 22 206 38 229 50 230 122 0 21 -2 38 -5 37 -3 -1 -15 4 -27 11 -18 10 -44 8 -145 -12 -321 -65 -581 -59 -1153 24 -115 17 -286 37 -380 45 -208 18 -605 17 -810 -1z"/>
<path d="M8091 3579 c-102 -8 -251 -32 -345 -55 -32 -9 -65 -13 -73 -10 -8 3 -12 2 -9 -2 3 -5 -27 -19 -67 -31 -40 -13 -124 -48 -187 -79 -63 -31 -121 -56 -127 -55 -7 0 -11 -3 -8 -7 3 -4 -10 -17 -28 -28 -60 -35 -190 -135 -277 -212 -160 -142 -259 -222 -270 -215 -6 4 -9 1 -8 -6 4 -18 -236 -178 -372 -248 -188 -97 -404 -170 -646 -220 -228 -47 -414 -64 -894 -81 -737 -26 -1098 -77 -1465 -203 -161 -56 -181 -64 -328 -138 -65 -33 -124 -56 -130 -53 -7 4 -9 4 -5 -1 11 -11 -141 -107 -155 -99 -7 4 -9 4 -5 -1 10 -11 -39 -48 -53 -39 -7 4 -9 3 -6 -3 3 -5 -8 -20 -25 -33 -25 -18 -32 -20 -40 -9 -8 11 -9 11 -5 -1 2 -8 -11 -32 -29 -52 -29 -33 -32 -41 -24 -64 6 -14 7 -31 3 -37 -3 -7 -3 -9 1 -5 4 3 22 0 40 -7 28 -12 37 -12 60 1 16 7 33 11 39 7 5 -3 7 -2 4 4 -12 20 315 238 341 228 7 -3 10 0 7 5 -10 16 227 125 252 115 8 -2 12 -1 8 4 -7 12 151 65 166 55 7 -4 9 -3 6 3 -13 22 292 90 543 122 208 27 373 38 835 56 215 9 453 22 530 30 298 32 545 87 773 171 51 19 98 32 105 28 6 -4 9 -4 5 1 -4 4 59 40 140 81 81 40 198 106 261 148 63 41 119 72 124 69 6 -3 7 -2 4 4 -7 11 46 53 71 58 10 1 16 7 15 13 -3 15 107 103 120 95 6 -3 7 -1 3 5 -7 11 67 77 88 77 6 1 10 6 9 12 -3 16 56 65 69 57 6 -4 8 -2 5 4 -13 20 223 190 245 176 7 -4 8 -3 4 4 -16 26 346 172 395 159 10 -3 17 -2 14 3 -7 12 207 49 325 56 58 3 173 7 255 9 83 2 155 5 160 6 6 1 11 24 13 50 3 41 -1 50 -24 68 -25 19 -38 21 -183 20 -86 -1 -198 -5 -250 -10z"/>
</g>
</svg>
