<?xml version="1.0" standalone="no"?>
<!DOCTYPE svg PUBLIC "-//W3C//DTD SVG 20010904//EN" "http://www.w3.org/TR/2001/REC-SVG-20010904/DTD/svg10.dtd">
<svg xmlns="http://www.w3.org/2000/svg" version="1.0" width="1024.000000pt" height="1024.000000pt" viewBox="0 0 1024.000000 1024.000000" preserveAspectRatio="xMidYMid meet">
<metadata>
Created by potrace 1.16, written by Peter Selinger 2001-2019
<meta name="Producer" content="Online-Convert"/></metadata>
<g transform="translate(0.000000,1024.000000) scale(0.100000,-0.100000)" fill="#000000" stroke="none">
<path d="M4935 8273 c-365 -44 -712 -179 -978 -380 -32 -24 -63 -41 -69 -37 -7 4 -8 3 -4 -4 7 -12 -50 -59 -66 -54 -5 1 -7 -1 -4 -6 3 -5 -36 -49 -85 -98 -289 -285 -472 -645 -546 -1074 -15 -83 -17 -223 -20 -1097 l-4 -1003 -152 0 c-236 0 -689 -27 -1011 -60 -103 -11 -133 -29 -122 -74 12 -48 38 -52 249 -33 497 45 989 63 1272 48 380 -21 578 -52 1000 -156 441 -109 617 -139 895 -151 172 -8 359 14 565 66 180 45 277 82 535 205 262 124 324 148 530 210 345 103 706 145 1253 145 264 0 278 1 297 20 25 25 25 41 1 71 l-19 24 -369 -1 c-399 -1 -578 -14 -833 -60 -321 -59 -640 -164 -914 -301 -250 -125 -435 -189 -681 -235 -46 -8 -156 -13 -315 -13 -316 0 -455 21 -914 136 -405 102 -659 142 -989 156 l-158 6 4 1011 c4 1097 1 1026 61 1266 43 169 191 501 216 485 6 -3 8 0 5 7 -2 7 21 48 51 92 43 60 59 75 66 65 8 -11 9 -10 4 3 -9 30 171 215 316 325 145 111 421 262 455 249 8 -3 12 -2 8 3 -6 11 114 52 251 85 310 74 691 57 989 -46 470 -161 850 -477 1069 -888 59 -112 108 -231 101 -248 -2 -7 -1 -11 4 -8 18 11 84 -258 100 -406 7 -59 11 -377 11 -803 0 -692 0 -705 20 -725 24 -24 63 -26 85 -4 15 15 16 85 12 783 -4 734 -5 771 -25 879 -66 347 -179 603 -381 867 -64 84 -190 213 -285 294 -288 243 -693 417 -1071 461 -84 9 -342 12 -410 3z"/>
<path d="M7915 4313 c-452 -54 -710 -135 -1005 -313 -128 -78 -208 -136 -415 -303 -402 -325 -667 -444 -1165 -522 -72 -12 -198 -19 -398 -22 -339 -6 -535 7 -907 63 -579 88 -872 99 -1285 49 -172 -21 -483 -86 -673 -140 -195 -55 -217 -66 -217 -104 0 -16 7 -34 15 -41 8 -7 13 -16 10 -20 -6 -10 37 -2 130 26 44 13 154 41 245 63 657 158 1016 168 1745 51 273 -43 611 -70 895 -70 279 0 515 27 746 86 74 19 141 31 147 28 7 -4 9 -3 4 1 -4 5 39 25 95 45 57 21 146 59 198 85 190 95 249 136 586 408 307 248 624 403 964 471 198 40 268 47 550 53 146 3 273 10 283 15 25 13 23 74 -2 88 -18 9 -471 12 -546 3z"/>
<path d="M2685 3889 c-162 -12 -512 -46 -660 -65 -133 -17 -160 -30 -151 -75 3 -14 1 -30 -4 -35 -18 -18 109 -14 335 10 834 90 1187 87 1800 -14 335 -55 491 -71 695 -69 196 1 329 17 467 54 124 34 178 58 199 89 15 24 15 28 0 51 -21 32 -51 32 -147 0 -186 -64 -401 -88 -644 -74 -156 9 -248 20 -581 73 -325 52 -409 58 -809 61 -209 2 -434 -1 -500 -6z"/>
<path d="M8075 3793 c-147 -18 -261 -38 -340 -58 -206 -54 -416 -157 -583 -287 -34 -27 -67 -46 -73 -43 -5 4 -8 2 -7 -4 4 -13 -279 -261 -382 -336 -325 -233 -686 -366 -1145 -420 -179 -21 -571 -35 -1006 -35 -578 0 -833 -33 -1204 -157 -223 -75 -493 -221 -677 -368 -62 -48 -73 -79 -40 -107 37 -32 53 -30 111 15 282 220 614 366 998 441 259 50 375 57 1053 66 473 7 667 13 760 24 581 73 982 237 1364 557 38 32 73 56 79 52 6 -3 7 -1 3 5 -8 13 73 84 87 75 6 -3 7 -1 3 5 -8 13 111 117 217 190 102 70 256 148 364 182 205 66 510 107 693 94 86 -6 90 -5 115 20 19 19 24 32 20 49 -13 44 -29 47 -209 46 -94 -1 -184 -4 -201 -6z"/>
</g>
</svg>
