<?xml version="1.0" standalone="no"?>
<!DOCTYPE svg PUBLIC "-//W3C//DTD SVG 20010904//EN" "http://www.w3.org/TR/2001/REC-SVG-20010904/DTD/svg10.dtd">
<svg xmlns="http://www.w3.org/2000/svg" version="1.0" width="1024.000000pt" height="1024.000000pt" viewBox="0 0 1024.000000 1024.000000" preserveAspectRatio="xMidYMid meet">
<metadata>
Created by potrace 1.16, written by Peter Selinger 2001-2019
<meta name="Producer" content="Online-Convert"/></metadata>
<g transform="translate(0.000000,1024.000000) scale(0.100000,-0.100000)" fill="#000000" stroke="none">
<path d="M8445 8560 c-69 -5 -103 -12 -145 -33 -30 -14 -59 -27 -65 -27 -5 -1 -237 -229 -515 -506 -278 -277 -515 -511 -526 -518 -19 -14 -29 -7 -158 123 -76 76 -134 141 -130 143 5 3 4 4 -2 2 -11 -2 -87 68 -82 77 2 2 1 3 -1 2 -2 -2 -19 9 -38 23 -57 43 -99 56 -179 53 -40 -2 -71 -5 -69 -7 2 -3 -16 -18 -40 -34 -69 -46 -90 -88 -89 -178 0 -52 6 -86 18 -110 10 -19 93 -110 184 -202 142 -143 164 -169 153 -182 -7 -9 -17 -13 -22 -10 -5 3 -8 1 -7 -4 5 -15 -204 -232 -216 -225 -6 3 -8 2 -3 -2 7 -9 -30 -55 -45 -55 -12 0 -98 67 -92 72 2 3 -2 5 -9 5 -19 1 -120 60 -111 65 5 3 3 3 -4 1 -8 -1 -51 10 -97 26 -135 48 -233 64 -407 65 -91 1 -154 -2 -151 -7 3 -5 -10 -8 -31 -5 -20 2 -36 0 -36 -4 0 -4 -8 -8 -18 -8 -10 0 -56 -12 -103 -26 -46 -14 -92 -26 -101 -27 -10 -1 -18 -5 -18 -10 0 -5 -7 -6 -16 -3 -8 3 -12 2 -9 -4 3 -6 2 -10 -3 -10 -5 0 -51 -25 -103 -56 -178 -107 -332 -247 -454 -414 -26 -36 -51 -68 -57 -71 -5 -3 -10 -10 -11 -15 -1 -5 -6 -8 -10 -6 -5 1 -6 -2 -2 -8 3 -5 0 -19 -8 -31 -15 -20 -16 -19 -58 43 -23 34 -55 80 -71 101 -17 20 -27 37 -23 37 17 0 -238 240 -302 285 -49 34 -71 55 -67 65 4 11 2 12 -6 4 -7 -7 -42 5 -119 43 -189 93 -327 124 -563 127 -92 1 -165 -1 -162 -3 2 -3 -33 -12 -78 -22 -99 -20 -217 -65 -312 -120 -54 -30 -72 -37 -79 -27 -6 10 -7 8 -4 -4 4 -11 -10 -26 -46 -51 -223 -148 -422 -422 -506 -692 -53 -173 -65 -260 -66 -477 0 -108 3 -194 7 -192 5 3 8 -10 8 -28 0 -18 6 -67 14 -108 8 -41 12 -78 10 -82 -3 -4 -1 -8 5 -8 9 0 27 -71 24 -97 0 -7 3 -11 7 -8 4 2 13 -14 20 -37 32 -109 166 -383 247 -506 19 -28 31 -57 27 -64 -5 -7 -3 -8 5 -4 8 5 14 0 18 -13 3 -11 8 -19 12 -16 7 4 41 -46 43 -62 0 -5 9 -14 20 -21 10 -7 16 -18 13 -23 -4 -5 -2 -9 3 -9 5 0 35 -31 66 -70 31 -38 54 -70 51 -70 -3 0 10 -14 30 -31 21 -19 34 -38 31 -46 -3 -8 -2 -12 2 -9 5 3 32 -19 62 -49 38 -39 51 -58 46 -71 -5 -13 -9 -15 -18 -6 -15 15 -28 15 -28 0 0 -6 3 -8 7 -5 3 4 12 2 18 -3 9 -7 -38 -60 -172 -193 -193 -190 -262 -272 -296 -347 -11 -25 -22 -39 -25 -32 -2 7 1 19 7 26 8 9 7 18 -4 32 -13 17 -14 13 -10 -38 2 -32 1 -58 -3 -58 -4 0 -8 -8 -9 -17 -1 -10 -22 -74 -48 -143 -76 -205 -79 -211 -94 -205 -10 4 -11 2 -3 -8 8 -10 -2 -49 -44 -158 -30 -79 -59 -153 -64 -164 -5 -11 -12 -30 -15 -43 -4 -12 -11 -19 -17 -16 -7 4 -8 2 -4 -4 8 -14 -23 -114 -34 -107 -4 3 -8 -1 -7 -8 1 -32 -4 -48 -13 -42 -5 3 -7 0 -4 -9 3 -8 -4 -38 -16 -68 -12 -29 -28 -69 -36 -88 -16 -40 -27 -163 -14 -155 4 3 6 15 3 28 -6 21 -5 20 15 -4 17 -21 33 -28 67 -31 25 -2 46 0 47 3 3 6 275 97 306 102 10 1 22 6 29 10 28 18 737 246 746 240 6 -3 7 -1 3 5 -4 7 -1 12 8 12 30 0 175 62 220 94 26 18 150 136 276 261 l230 227 37 -33 c21 -18 37 -41 37 -51 -1 -10 1 -17 4 -14 8 9 43 -14 37 -25 -4 -5 -1 -8 7 -7 7 2 12 -2 11 -9 -2 -7 3 -10 10 -7 7 2 111 -95 232 -217 243 -244 282 -278 317 -281 30 -3 83 30 129 79 50 53 298 293 336 325 17 15 35 23 39 20 4 -4 4 -2 1 4 -8 14 123 140 443 424 59 52 181 164 273 247 91 84 168 153 170 153 5 0 377 373 377 378 0 2 26 34 59 70 235 266 449 625 541 907 13 39 26 72 29 75 3 3 6 12 6 20 1 34 18 110 24 106 3 -2 6 6 7 17 0 12 8 71 18 131 9 59 19 150 23 202 3 51 9 91 13 89 9 -6 9 28 -1 40 -11 14 6 39 20 31 7 -5 10 -2 9 6 -2 7 3 12 10 10 8 -1 11 2 7 9 -7 10 415 442 424 434 2 -2 11 5 20 16 16 20 17 19 51 -18 19 -20 26 -31 15 -23 -18 14 -19 14 -6 -2 7 -10 17 -16 21 -13 10 6 70 -61 62 -71 -4 -4 -2 -4 4 -1 13 8 86 -68 76 -78 -4 -4 -2 -5 3 -3 6 1 21 -5 35 -15 l24 -17 -24 -1 -25 -1 25 -7 c14 -4 26 -4 28 -1 1 4 26 1 55 -7 59 -15 92 -10 157 22 52 26 80 54 108 107 10 21 21 36 23 34 11 -11 -8 142 -20 164 -8 14 -63 75 -123 136 -59 61 -105 114 -100 119 4 4 2 5 -4 2 -14 -8 -107 86 -97 98 5 4 3 5 -3 2 -6 -3 -23 6 -38 22 l-27 28 443 441 c298 297 445 437 451 429 6 -8 7 -7 4 3 -2 9 22 43 58 81 89 95 134 185 150 300 16 108 -41 255 -134 347 -52 53 -161 122 -192 122 -8 0 -25 6 -39 13 -17 8 -53 10 -115 7z m141 -218 c60 -31 144 -128 129 -151 -3 -5 0 -11 7 -13 7 -3 12 -29 12 -69 1 -84 -34 -155 -120 -240 l-64 -63 -34 33 c-20 19 -32 39 -29 44 3 6 2 7 -4 4 -5 -3 -77 61 -159 144 l-149 150 80 77 c59 57 93 82 130 95 63 21 147 17 201 -11z m-524 -311 c-1 -7 1 -10 6 -7 5 3 87 -74 182 -169 l175 -175 -80 -80 c-44 -44 -85 -78 -92 -76 -7 3 -10 -1 -7 -8 6 -16 -235 -248 -249 -239 -6 3 -7 1 -3 -5 7 -12 -130 -149 -146 -144 -5 1 -7 -1 -4 -6 3 -5 -32 -45 -78 -91 l-82 -82 -135 136 c-74 75 -133 142 -131 148 2 7 0 9 -4 4 -10 -10 -45 23 -37 36 3 5 2 7 -4 4 -6 -4 -22 7 -36 23 l-26 29 36 30 c27 23 39 27 45 18 6 -8 8 -6 6 6 -2 13 98 120 322 343 179 178 330 322 335 320 6 -2 9 -9 7 -15z m-1427 -329 c-2 -11 3 -19 12 -19 9 0 13 7 10 19 -3 10 -2 18 3 18 13 0 30 -26 22 -35 -4 -5 -2 -6 4 -2 5 3 152 -136 325 -310 173 -174 307 -312 299 -308 -8 5 -12 5 -8 1 3 -4 10 -7 15 -7 13 0 82 -71 79 -83 -2 -6 -1 -7 2 -2 2 4 40 -27 83 -70 43 -43 75 -82 72 -87 -3 -6 -2 -7 4 -4 5 3 47 -31 92 -77 47 -48 78 -86 72 -89 -7 -3 -6 -4 1 -2 20 4 157 -135 151 -154 -3 -12 -2 -13 4 -3 7 9 31 -10 91 -72 87 -88 96 -112 62 -146 -16 -16 -24 -17 -47 -9 -35 12 -217 195 -208 209 3 5 0 8 -7 5 -7 -3 -66 48 -136 119 -67 69 -119 120 -116 114 4 -7 2 -8 -5 -4 -8 6 -9 12 -2 20 12 15 4 27 -13 20 -16 -6 -129 113 -120 128 4 6 3 8 -3 5 -6 -4 -25 6 -42 22 -16 15 -33 26 -36 23 -3 -3 -5 6 -5 19 0 20 -2 21 -11 9 -9 -12 -10 -11 -6 6 3 15 0 21 -12 20 -9 0 -20 9 -26 22 -5 12 -15 22 -21 22 -11 0 -47 35 -200 192 -45 45 -113 113 -150 149 -38 37 -104 103 -146 147 -43 44 -78 77 -78 75 0 -3 -10 7 -22 23 -13 16 -22 32 -20 36 1 5 -2 8 -8 8 -15 0 -12 22 6 48 19 27 44 29 39 4z m301 -674 c16 -18 56 -57 87 -86 49 -44 56 -55 47 -71 -5 -11 -10 -26 -10 -33 1 -7 6 0 13 16 12 27 14 28 30 12 9 -10 17 -20 17 -24 0 -9 27 19 -739 -746 -543 -542 -559 -556 -599 -524 -12 10 -14 10 -8 1 5 -10 -13 -13 -78 -13 -47 0 -86 2 -86 5 0 2 11 28 24 57 14 29 42 97 64 151 21 53 42 94 47 90 4 -5 5 -2 1 4 -12 21 12 54 107 150 65 66 94 89 100 80 6 -8 7 -7 4 4 -8 23 144 173 161 159 9 -7 9 -7 2 2 -8 9 91 114 382 405 216 216 396 393 399 393 3 0 19 -15 35 -32z m-3251 -113 c169 -48 362 -144 359 -180 -1 -11 2 -13 10 -6 18 15 87 -44 79 -67 -6 -14 -4 -15 8 -5 13 10 27 1 84 -57 54 -55 65 -70 50 -71 -20 -1 -20 -1 0 -6 25 -6 55 -32 55 -48 0 -7 7 -16 16 -19 9 -4 15 -9 12 -12 -3 -2 7 -18 23 -35 40 -43 112 -176 103 -191 -4 -7 -4 -10 1 -6 4 4 20 -13 36 -37 28 -44 61 -62 104 -56 24 3 63 37 71 63 3 10 10 15 16 12 6 -4 9 -1 6 7 -10 29 108 223 184 303 25 25 42 46 39 46 -11 0 96 104 159 154 166 134 334 207 549 237 151 21 338 -4 485 -65 93 -38 199 -97 199 -110 -1 -11 -424 -436 -435 -436 -5 0 -6 -4 -3 -10 3 -5 -1 -10 -9 -10 -8 0 -18 -5 -22 -12 -5 -7 -2 -8 7 -3 8 4 -10 -17 -40 -48 -30 -31 -58 -54 -63 -51 -5 3 -7 2 -6 -3 3 -10 -52 -73 -64 -73 -4 0 -24 25 -44 56 -50 79 -68 94 -109 94 -26 0 -43 -7 -60 -26 -30 -32 -31 -46 -4 -103 15 -35 17 -46 7 -54 -10 -6 -9 -7 4 -4 11 4 26 -11 52 -53 20 -32 36 -60 36 -63 0 -18 -103 -267 -111 -267 -5 0 -8 5 -7 11 2 6 -2 13 -9 16 -15 5 -10 -26 6 -36 9 -6 3 -30 -24 -95 -39 -95 -40 -124 -4 -171 14 -16 30 -25 50 -25 16 0 29 -5 29 -11 0 -5 5 -7 11 -4 16 10 250 -6 243 -16 -3 -5 -1 -9 4 -9 5 0 11 -49 14 -109 5 -121 14 -145 71 -178 24 -15 39 -18 51 -11 9 5 24 8 34 6 9 -1 22 1 28 4 6 4 71 17 143 29 114 19 134 20 142 8 8 -13 13 -5 10 15 -3 13 49 -22 123 -84 37 -29 66 -61 67 -69 0 -9 3 -11 5 -6 2 6 20 9 39 7 47 -6 85 32 85 84 0 29 -8 46 -40 80 -22 24 -42 44 -45 44 -3 0 -13 5 -23 11 -18 11 -17 14 14 46 20 20 39 31 45 27 8 -5 9 -3 4 5 -5 8 59 79 186 207 106 106 194 192 196 190 2 -2 1 -27 -3 -55 -7 -52 -24 -71 -24 -26 0 14 -4 25 -8 25 -5 0 -7 -13 -4 -30 2 -16 8 -30 13 -30 14 0 11 -24 -17 -139 -38 -159 -55 -212 -65 -206 -5 3 -6 -1 -3 -9 13 -35 -130 -329 -239 -491 -218 -325 -450 -572 -977 -1040 -412 -366 -509 -456 -786 -721 l-179 -171 -120 114 c-66 64 -229 219 -362 346 -133 127 -239 235 -236 240 4 6 1 7 -6 2 -9 -5 -33 12 -69 47 -32 30 -104 97 -162 148 -58 52 -104 99 -102 105 2 5 0 7 -4 3 -8 -8 -34 14 -237 205 -79 74 -136 136 -135 144 2 9 -5 17 -17 19 -23 3 -156 138 -265 268 -89 106 -241 309 -235 314 2 2 -5 12 -15 22 -19 19 -90 135 -93 154 -1 6 -5 13 -9 16 -11 9 -73 141 -111 235 -103 257 -142 567 -102 801 47 270 155 483 339 669 166 166 331 257 556 306 123 27 321 20 445 -16z m3606 -232 c13 -14 19 -23 12 -19 -6 3 -14 2 -17 -3 -4 -5 2 -8 11 -6 24 4 93 -63 86 -84 -3 -11 -2 -12 4 -4 7 9 20 1 51 -30 l42 -42 -598 -598 -597 -597 -67 -2 c-37 -2 -68 -6 -68 -9 0 -6 -147 -29 -182 -29 -16 0 -18 10 -18 75 l0 76 88 87 c103 102 144 137 155 134 5 -1 6 2 3 7 -3 5 9 23 28 39 19 17 33 32 30 35 -2 2 3 10 13 18 9 8 14 9 10 2 -4 -6 88 85 205 202 116 118 216 211 221 208 6 -3 7 -2 4 4 -5 8 541 563 555 563 2 0 15 -12 29 -27z m-4190 -2746 c14 -12 24 -27 22 -33 -2 -6 3 -17 12 -24 12 -10 15 -9 15 6 0 13 14 4 54 -35 30 -30 52 -59 49 -66 -2 -7 0 -16 6 -20 7 -4 8 0 4 11 -5 14 -3 15 16 5 12 -7 19 -16 16 -22 -4 -5 -2 -8 3 -7 5 2 21 -9 35 -24 19 -20 22 -28 11 -28 -8 0 -13 -4 -10 -8 3 -5 -130 -143 -294 -307 -165 -165 -304 -312 -309 -326 -7 -21 -5 -37 11 -68 36 -73 91 -68 178 14 31 30 60 52 65 47 5 -4 5 -2 2 4 -3 6 111 127 254 269 l259 259 65 -64 c47 -46 61 -67 52 -73 -8 -6 -6 -7 7 -3 14 5 35 -10 84 -58 35 -36 69 -67 74 -68 5 -2 -96 -111 -225 -242 -160 -164 -237 -237 -246 -231 -11 6 -11 9 0 17 11 8 11 9 -1 5 -8 -2 -14 -11 -12 -20 3 -20 -5 -23 -583 -217 -258 -87 -479 -162 -489 -166 -16 -6 -18 -4 -11 12 4 10 27 69 50 129 55 144 125 326 216 560 40 105 77 193 82 196 5 3 7 9 6 13 -2 4 8 37 21 74 23 64 35 78 244 290 121 122 225 222 231 222 5 0 22 -10 36 -23z"/>
</g>
</svg>
