<?xml version="1.0" standalone="no"?>
<!DOCTYPE svg PUBLIC "-//W3C//DTD SVG 20010904//EN"
 "http://www.w3.org/TR/2001/REC-SVG-20010904/DTD/svg10.dtd">
<svg version="1.0" xmlns="http://www.w3.org/2000/svg"
 width="1024.000000pt" height="1024.000000pt" viewBox="0 0 1024.000000 1024.000000"
 preserveAspectRatio="xMidYMid meet">
<metadata>
Created by potrace 1.16, written by Peter Selinger 2001-2019
</metadata>
<g transform="translate(0.000000,1024.000000) scale(0.100000,-0.100000)"
fill="#000000" stroke="none">
<path d="M5107 6719 c-9 -6 -21 -8 -26 -5 -5 3 -9 -82 -10 -194 -2 -188 -1
-200 19 -220 25 -25 45 -25 70 0 19 19 20 33 20 203 0 100 -4 187 -8 193 -14
21 -47 33 -65 23z"/>
<path d="M4213 6420 c-13 -5 -23 -14 -23 -20 0 -6 -4 -9 -9 -6 -5 3 -11 -3
-14 -14 -3 -11 -2 -20 2 -20 4 0 29 -26 56 -57 28 -31 44 -54 38 -50 -6 4 -14
3 -18 -2 -3 -6 3 -8 15 -6 22 4 83 -61 73 -79 -3 -6 -3 -8 2 -4 11 11 36 -12
28 -26 -3 -6 -2 -8 2 -3 5 4 21 -5 36 -19 33 -32 75 -27 89 10 5 13 15 26 22
29 8 4 7 6 -4 6 -10 1 -18 5 -18 10 0 5 -26 37 -58 72 -113 123 -132 146 -127
153 3 3 2 4 -1 1 -4 -2 -18 5 -32 15 -28 22 -28 22 -59 10z"/>
<path d="M5962 6402 c-15 -15 -62 -67 -105 -115 -43 -48 -82 -85 -86 -83 -8 5
-12 -9 -12 -49 0 -54 4 -77 11 -65 4 7 13 9 19 6 23 -15 51 8 156 124 59 66
110 118 114 116 3 -2 6 10 6 27 0 23 -7 37 -25 49 -34 24 -47 23 -78 -10z"/>
<path d="M5012 6130 c-29 -6 -78 -19 -110 -31 -31 -11 -68 -21 -82 -21 -14 0
-19 -3 -12 -5 7 -3 -8 -18 -35 -35 -107 -67 -200 -179 -249 -300 -17 -44 -33
-75 -35 -69 -2 6 -5 -46 -7 -117 -2 -105 1 -140 18 -202 12 -41 22 -85 23 -97
1 -12 4 -19 6 -17 2 2 20 -22 39 -54 19 -31 50 -77 71 -102 20 -24 36 -51 36
-60 1 -8 6 -14 13 -13 13 3 56 -67 82 -135 10 -27 23 -92 29 -145 6 -54 17
-107 24 -118 21 -35 70 -40 325 -37 l244 3 23 27 c18 21 25 44 30 105 11 123
46 240 68 226 6 -4 7 -1 2 6 -9 16 63 123 78 114 5 -3 8 -2 4 3 -3 5 15 36 40
69 188 246 170 568 -45 805 -29 33 -80 77 -113 98 -37 25 -55 42 -47 45 7 3 4
5 -7 4 -11 -1 -58 11 -104 26 -94 31 -223 42 -309 27z m283 -131 c73 -22 159
-75 149 -91 -4 -7 -3 -8 5 -4 15 10 43 -13 34 -27 -3 -5 -1 -7 4 -4 13 8 43
-24 48 -50 1 -10 8 -17 13 -16 6 2 24 -18 38 -44 65 -110 89 -259 60 -373 -21
-84 -70 -184 -103 -210 -14 -11 -23 -20 -19 -20 4 0 -17 -30 -45 -67 -29 -38
-56 -67 -61 -65 -5 1 -7 -2 -3 -7 3 -6 -3 -27 -13 -48 -32 -64 -54 -141 -61
-216 l-6 -72 -211 -3 -212 -2 -7 62 c-14 132 -66 259 -150 361 -25 31 -44 61
-41 65 2 4 0 14 -6 22 -8 12 -9 11 -4 -5 5 -17 3 -16 -15 5 -36 41 -79 143
-96 226 -21 104 -7 209 41 311 36 76 111 167 129 156 6 -3 7 -1 3 5 -3 6 9 22
27 36 36 28 53 33 41 14 -4 -7 -3 -8 5 -4 6 4 9 11 6 16 -8 13 86 53 127 54
20 1 34 4 32 8 -15 23 204 14 291 -13z"/>
<path d="M4915 4523 c-32 -8 -45 -23 -45 -52 0 -49 10 -51 220 -52 113 -1 185
-4 170 -9 -23 -7 -23 -8 -3 -9 12 -1 25 4 28 9 4 6 12 9 18 8 7 -1 24 1 38 5
33 8 44 43 23 74 -14 23 -18 23 -208 23 -107 0 -200 2 -208 4 -7 2 -22 1 -33
-1z"/>
<path d="M4976 4361 c-10 -4 -24 -18 -31 -31 -12 -22 -11 -27 11 -47 24 -22
33 -23 169 -23 135 0 145 1 165 22 24 26 25 38 6 63 -12 17 -30 19 -157 21
-79 2 -152 -1 -163 -5z"/>
<path d="M3985 4133 c-11 -3 -26 -10 -32 -15 -18 -14 -16 -63 2 -78 12 -10
223 -12 962 -12 686 -1 952 -4 962 -12 12 -9 13 -8 7 2 -6 10 -1 13 20 12 16
-1 106 -2 201 -1 185 1 203 6 203 55 0 53 54 51 -1169 52 -625 1 -1145 -1
-1156 -3z"/>
<path d="M4422 3869 c-35 -13 -46 -37 -32 -67 8 -15 13 -29 13 -32 -1 -3 318
-4 708 -4 546 1 713 5 724 14 19 15 20 64 2 79 -15 12 -1383 21 -1415 10z"/>
</g>
</svg>
