<?xml version="1.0" standalone="no"?>
<!DOCTYPE svg PUBLIC "-//W3C//DTD SVG 20010904//EN" "http://www.w3.org/TR/2001/REC-SVG-20010904/DTD/svg10.dtd">
<svg xmlns="http://www.w3.org/2000/svg" version="1.0" width="1024.000000pt" height="1024.000000pt" viewBox="0 0 1024.000000 1024.000000" preserveAspectRatio="xMidYMid meet">
<metadata>
Created by potrace 1.16, written by Peter Selinger 2001-2019
<meta name="Producer" content="Online-Convert"/></metadata>
<g transform="translate(0.000000,1024.000000) scale(0.100000,-0.100000)" fill="#000000" stroke="none">
<path d="M5120 8800 c-8 -5 -23 -7 -34 -4 -11 4 -16 2 -12 -4 3 -6 -15 -23 -41 -38 -27 -15 -82 -49 -123 -76 -48 -31 -81 -46 -95 -43 -11 3 -14 2 -8 -1 14 -6 9 -12 -30 -43 -15 -12 -20 -11 -40 5 l-22 19 19 -22 c18 -22 18 -23 0 -29 -11 -4 -31 -16 -46 -26 -16 -11 -33 -16 -39 -12 -7 4 -9 3 -6 -3 3 -5 -6 -19 -21 -30 -99 -72 -164 -113 -172 -108 -5 3 -12 0 -16 -6 -5 -8 -3 -9 6 -4 9 5 11 4 6 -4 -4 -6 -15 -10 -24 -9 -9 2 -17 -3 -17 -10 0 -21 -33 -40 -58 -35 -15 3 -18 2 -9 -5 10 -7 10 -11 -2 -21 -8 -7 -21 -9 -27 -5 -7 4 -9 3 -5 -4 9 -15 -48 -53 -71 -46 -13 4 -14 3 -5 -4 10 -7 8 -12 -11 -25 -13 -8 -31 -22 -39 -29 -65 -60 -67 -61 -83 -48 -13 11 -14 10 -9 -4 8 -20 -24 -59 -43 -52 -7 3 -12 2 -10 -2 5 -16 -176 -165 -188 -154 -5 4 -5 2 -2 -5 4 -6 -7 -23 -25 -38 -31 -25 -88 -75 -151 -132 -24 -21 -30 -23 -45 -11 -15 11 -15 11 -5 -2 10 -13 1 -26 -54 -75 -36 -33 -70 -59 -74 -57 -5 1 -9 -3 -9 -10 0 -18 -152 -153 -169 -150 -12 2 -13 1 -3 -6 10 -7 8 -12 -7 -26 -11 -10 -28 -19 -38 -20 -10 -2 -18 -9 -18 -17 0 -8 -8 -13 -18 -13 -11 1 -16 -4 -15 -15 2 -10 -3 -15 -12 -13 -8 2 -12 0 -8 -4 11 -10 -12 -35 -26 -27 -6 3 -8 3 -4 -2 11 -11 -12 -36 -25 -28 -5 3 -7 1 -4 -5 8 -11 -110 -129 -125 -124 -5 1 -7 -1 -4 -6 8 -13 -24 -53 -36 -46 -6 4 -8 3 -5 -3 4 -5 -8 -23 -25 -39 -17 -16 -64 -67 -105 -114 -42 -47 -80 -85 -86 -85 -5 0 -11 -8 -13 -18 -3 -25 -24 -48 -37 -40 -6 3 -7 1 -3 -6 4 -6 -1 -23 -12 -39 -26 -35 -45 -96 -67 -210 -11 -50 -22 -87 -26 -81 -3 6 -8 2 -12 -10 -3 -12 0 -19 7 -18 6 1 9 -5 7 -13 -2 -8 -5 -32 -8 -52 -3 -21 -9 -36 -13 -33 -4 2 -5 -6 -3 -18 3 -13 -4 -88 -15 -168 -22 -154 -42 -334 -67 -599 -9 -91 -18 -183 -21 -205 -27 -236 -37 -497 -40 -1054 -1 -333 1 -599 5 -593 5 9 11 4 19 -13 7 -15 8 -24 2 -20 -5 3 -10 1 -10 -4 0 -6 6 -11 13 -11 17 0 39 -38 31 -53 -4 -7 -4 -9 1 -5 11 11 38 -29 29 -44 -4 -6 -3 -8 4 -4 6 4 24 -13 42 -39 24 -35 27 -43 13 -39 -15 5 -15 4 -3 -4 8 -6 17 -9 21 -7 8 6 105 -115 101 -127 -1 -5 2 -7 6 -4 13 8 108 -104 104 -123 -2 -13 -1 -13 6 -3 7 11 14 8 30 -13 12 -15 19 -32 15 -38 -3 -5 -2 -7 4 -4 11 7 86 -66 78 -76 -3 -4 -2 -5 2 -2 11 8 33 -16 33 -37 0 -10 4 -17 9 -14 4 3 17 -4 27 -16 11 -12 13 -18 7 -14 -7 4 -13 5 -13 1 0 -3 12 -10 26 -15 15 -6 22 -14 18 -22 -4 -6 -3 -8 3 -5 13 8 36 -17 25 -27 -4 -4 0 -6 8 -4 8 2 14 -3 12 -10 -1 -8 1 -11 6 -8 12 7 54 -38 45 -48 -5 -4 -1 -6 7 -4 8 2 14 -4 15 -12 0 -8 5 -15 11 -15 6 0 30 -19 53 -43 22 -23 41 -40 41 -38 0 2 25 -20 56 -49 37 -35 54 -57 49 -66 -6 -9 -3 -11 8 -6 9 3 21 -1 29 -11 11 -13 11 -15 -2 -7 -8 4 -12 4 -7 0 4 -5 14 -10 21 -11 20 -3 106 -86 100 -96 -3 -5 -1 -7 4 -6 15 5 113 -82 106 -94 -4 -7 -2 -8 4 -4 14 9 94 -63 85 -77 -3 -5 -1 -7 5 -3 9 6 55 -26 92 -64 8 -9 34 -30 58 -49 29 -22 42 -40 42 -57 0 -13 5 -24 11 -24 6 0 8 7 5 16 -6 15 -4 15 16 1 13 -8 22 -20 20 -26 -1 -6 1 -10 5 -9 13 4 53 -22 53 -33 0 -6 -4 -8 -9 -4 -5 3 -12 1 -16 -5 -4 -6 4 -9 19 -8 14 1 22 7 19 13 -6 10 38 -25 67 -55 9 -8 25 -20 35 -27 11 -6 19 -16 17 -23 -1 -6 1 -9 6 -6 11 6 92 -52 92 -65 0 -6 4 -8 9 -4 6 3 14 -3 20 -12 6 -10 11 -14 11 -9 0 5 7 3 15 -4 8 -7 12 -17 8 -23 -3 -6 -1 -7 5 -3 11 7 150 -75 163 -96 3 -5 10 -10 15 -10 5 0 41 -15 81 -34 40 -19 77 -34 83 -34 6 0 15 -10 20 -22 7 -19 9 -19 9 -5 1 12 5 16 13 10 46 -28 631 -84 828 -79 133 4 156 8 218 41 25 13 50 21 56 18 6 -3 8 -3 4 2 -4 4 12 21 35 38 51 36 168 129 220 175 21 18 43 30 49 26 6 -4 8 -3 5 3 -4 6 12 28 36 48 23 21 67 61 97 89 145 134 244 221 254 221 6 1 10 6 9 12 -1 6 28 38 66 71 55 49 71 59 82 49 11 -10 11 -9 1 4 -9 13 3 30 78 102 49 48 95 85 102 83 7 -1 9 -1 5 2 -5 2 -1 13 9 23 9 10 21 16 26 13 4 -3 7 0 6 8 -2 7 4 12 12 10 8 -2 12 0 8 4 -11 10 12 35 25 27 5 -3 7 -2 4 4 -8 13 57 76 68 66 4 -5 5 -3 2 3 -3 6 16 32 43 59 41 40 49 45 53 29 2 -11 3 -9 2 5 -2 17 15 42 62 92 36 38 70 66 76 62 6 -3 7 -1 3 5 -3 6 18 37 47 69 76 82 234 267 286 336 24 31 48 57 54 57 6 0 8 3 4 6 -3 4 11 29 32 58 44 60 121 186 121 198 0 5 3 7 8 5 4 -3 8 11 10 31 1 21 7 39 12 40 6 2 8 7 6 11 -3 4 -5 48 -5 97 0 49 -1 96 -1 104 -1 8 -3 161 -4 340 -2 179 -7 393 -11 475 -7 155 -9 211 -20 455 -3 80 -11 213 -16 295 -6 83 -12 175 -14 206 -4 92 -16 229 -25 299 -5 36 -12 92 -15 125 -3 33 -20 170 -37 305 -17 135 -31 258 -31 273 0 20 -2 24 -8 15 -5 -7 -9 -8 -9 -2 0 6 -13 31 -29 55 -16 24 -27 47 -24 53 3 5 2 6 -4 3 -12 -8 -153 166 -154 190 0 10 -3 13 -5 6 -3 -7 -24 10 -51 40 -103 117 -173 194 -263 291 -107 114 -460 465 -460 457 0 -2 -13 8 -30 24 -16 15 -27 32 -24 37 3 5 0 7 -8 6 -7 -2 -12 3 -10 10 1 8 -2 11 -8 7 -5 -3 -31 13 -56 37 -25 24 -52 47 -60 51 -8 5 -12 13 -8 18 3 5 0 8 -8 7 -7 -2 -12 3 -10 10 1 8 -2 11 -7 8 -11 -7 -107 71 -104 84 2 6 0 9 -5 9 -17 -3 -29 3 -57 27 -46 41 -202 155 -298 219 -48 32 -84 62 -80 68 4 6 0 8 -9 5 -16 -7 -171 85 -161 95 3 4 -1 7 -11 7 -23 0 -136 58 -136 70 0 6 -3 9 -7 8 -16 -5 -72 25 -66 35 3 5 1 7 -5 4 -15 -10 -43 3 -35 16 3 5 1 7 -5 4 -15 -10 -43 3 -35 16 4 6 0 8 -10 4 -21 -8 -182 64 -166 74 7 4 2 7 -12 6 -13 0 -37 2 -54 6 -16 4 -37 3 -45 -3z m54 -132 c-4 -6 -3 -8 3 -5 10 6 47 -6 120 -39 17 -8 36 -14 42 -14 6 0 11 -4 11 -9 0 -12 -25 -32 -33 -26 -4 3 -5 2 -2 -2 8 -10 36 -13 30 -3 -8 12 24 21 43 11 9 -5 44 -23 77 -39 33 -17 60 -37 60 -44 1 -7 7 -12 15 -10 21 5 90 -29 90 -44 0 -7 8 -12 18 -12 25 2 143 -72 135 -85 -4 -6 -1 -7 6 -2 19 11 275 -166 259 -178 -9 -6 -7 -7 6 -3 21 7 80 -40 70 -55 -3 -5 2 -6 10 -3 9 4 27 -5 44 -23 16 -15 33 -30 38 -33 5 -3 8 -9 6 -15 -2 -5 0 -7 4 -3 9 9 106 -71 99 -82 -3 -4 3 -14 13 -21 15 -13 16 -12 3 4 -23 29 2 18 42 -19 l37 -35 -31 -39 c-20 -25 -37 -37 -48 -33 -13 4 -13 3 -2 -5 16 -11 5 -36 -11 -26 -6 4 -8 2 -4 -4 3 -6 0 -16 -7 -24 -7 -7 -20 -26 -30 -41 -10 -15 -23 -25 -29 -21 -7 5 -8 3 -4 -5 5 -7 1 -20 -7 -29 -20 -23 -137 -192 -137 -198 0 -15 -54 -83 -63 -77 -6 3 -7 1 -3 -6 4 -6 3 -17 -2 -24 -6 -7 -42 -69 -80 -139 -38 -70 -73 -124 -77 -120 -5 4 -5 2 -1 -5 4 -7 0 -29 -9 -50 -13 -30 -18 -35 -25 -23 -7 11 -8 6 -4 -15 4 -22 0 -36 -15 -51 -11 -12 -18 -24 -15 -26 2 -3 -8 -31 -22 -64 -15 -32 -40 -93 -55 -134 -15 -41 -39 -106 -54 -145 -15 -38 -29 -78 -32 -87 -3 -10 -9 -16 -13 -13 -4 3 -8 -1 -7 -8 1 -32 -4 -48 -13 -42 -6 3 -7 -1 -4 -9 3 -9 2 -16 -3 -16 -5 0 -10 -7 -10 -16 0 -21 -65 -154 -73 -149 -3 2 -6 -4 -7 -13 -2 -24 -106 -191 -116 -185 -4 2 -6 0 -5 -5 5 -16 -63 -103 -74 -96 -7 4 -8 2 -4 -5 10 -15 -72 -113 -86 -104 -6 3 -8 1 -5 -4 4 -6 -8 -27 -27 -46 l-33 -35 -31 41 c-16 23 -48 66 -71 95 -22 30 -38 58 -35 63 3 5 1 8 -4 7 -14 -4 -82 84 -75 96 3 5 2 6 -4 3 -5 -3 -16 3 -24 15 -8 11 -35 48 -61 81 -25 34 -44 65 -41 69 2 5 0 7 -5 6 -8 -3 -69 71 -207 251 -48 63 -282 357 -379 475 -26 32 -43 62 -40 68 4 6 3 8 -3 5 -14 -9 -76 70 -67 85 4 7 3 8 -4 4 -21 -12 -29 27 -16 74 6 25 12 39 13 31 1 -8 4 -11 7 -8 4 4 2 13 -4 20 -7 8 -10 16 -7 19 4 4 52 228 60 278 1 8 5 26 8 40 4 14 9 43 12 65 3 22 10 56 15 75 5 19 21 94 35 165 46 235 53 259 86 281 17 10 35 18 40 16 6 -1 8 2 4 7 -6 10 34 37 48 33 5 -1 6 1 3 6 -2 4 12 19 32 32 20 14 59 42 86 62 28 20 53 35 58 32 4 -3 8 0 8 6 0 16 228 162 241 154 7 -4 9 -3 6 3 -11 17 216 158 235 147 6 -4 8 -2 4 4 -9 14 22 31 57 32 19 0 26 -4 21 -12z m-1017 -673 c-4 -8 -14 -57 -24 -110 -13 -71 -21 -95 -33 -95 -11 0 -12 -2 -2 -8 14 -10 6 -92 -9 -92 -5 0 -6 -6 -4 -12 7 -19 -71 -405 -77 -388 -4 8 -5 -3 -3 -25 4 -59 -25 -125 -90 -202 -31 -37 -73 -88 -93 -112 -66 -80 -84 -96 -101 -93 -9 2 -13 1 -9 -3 10 -10 -11 -47 -22 -40 -5 3 -11 -3 -14 -13 -7 -22 -176 -178 -189 -174 -4 1 -6 -2 -3 -7 8 -12 -72 -77 -88 -73 -6 2 -8 0 -4 -4 11 -10 -12 -35 -25 -27 -5 3 -7 2 -4 -4 8 -12 -31 -46 -44 -38 -5 4 -8 2 -7 -3 4 -16 -332 -323 -344 -316 -6 4 -8 3 -4 -4 10 -16 -66 -84 -77 -69 -6 8 -7 6 -3 -6 6 -19 -58 -84 -78 -79 -6 2 -8 0 -4 -4 4 -4 -6 -24 -23 -46 -17 -21 -34 -37 -37 -34 -8 9 -33 -15 -26 -25 5 -9 -62 -100 -78 -107 -5 -2 -8 -12 -8 -22 0 -10 -5 -22 -11 -26 -7 -4 -9 0 -6 12 3 11 16 100 27 199 44 370 95 657 130 724 11 22 38 59 60 82 22 23 40 44 40 46 0 6 61 73 180 197 200 208 209 216 222 213 7 -2 9 -2 4 1 -4 2 29 42 75 88 45 46 87 80 92 77 6 -3 7 -2 4 4 -7 12 73 80 88 75 5 -2 7 0 2 4 -9 10 53 75 65 68 5 -3 7 -1 6 4 -5 16 175 173 190 167 8 -3 12 0 9 7 -5 16 54 69 68 61 5 -4 7 -3 3 2 -8 9 -7 10 140 133 57 48 108 86 113 85 5 -2 9 4 9 12 0 8 5 15 11 15 6 0 9 -7 6 -15z m2386 -230 c14 -6 21 -18 20 -30 -1 -11 0 -14 3 -7 5 10 12 8 30 -9 13 -12 21 -26 17 -32 -3 -6 -1 -7 6 -3 11 7 53 -29 79 -69 7 -11 9 -13 5 -5 -6 13 -4 13 10 1 9 -7 14 -18 10 -24 -3 -5 -2 -7 4 -4 11 7 66 -46 58 -56 -3 -4 -2 -5 2 -2 9 7 32 -15 29 -28 -1 -7 -1 -8 2 -4 2 5 15 -2 28 -14 13 -12 21 -26 18 -31 -3 -5 -2 -7 3 -6 10 3 73 -47 73 -57 0 -3 -5 -3 -12 1 -7 4 -8 3 -4 -5 4 -6 11 -9 16 -6 11 7 32 -20 22 -30 -4 -5 -2 -5 4 -2 6 3 31 -16 55 -43 62 -68 69 -78 69 -91 0 -7 3 -9 7 -6 8 9 34 -13 28 -23 -3 -5 0 -12 6 -16 8 -5 9 -3 4 7 -5 8 1 5 14 -5 13 -12 19 -26 16 -35 -3 -8 -3 -12 1 -8 8 8 54 -31 54 -46 0 -6 18 -27 41 -48 26 -23 38 -42 33 -50 -4 -7 -3 -10 4 -5 12 7 84 -73 76 -86 -3 -5 -1 -7 5 -6 11 3 135 -141 157 -183 17 -34 18 -110 2 -128 -10 -11 -10 -13 0 -7 15 9 15 -3 1 -80 -18 -99 -79 -290 -88 -276 -3 5 -7 -9 -7 -31 -2 -66 -140 -430 -154 -407 -4 6 -7 -3 -7 -20 0 -30 -81 -207 -111 -242 -8 -10 -12 -18 -8 -18 3 0 -1 -14 -9 -30 -9 -17 -19 -28 -24 -26 -4 3 -8 0 -8 -7 0 -14 -61 -139 -71 -147 -4 -3 -13 -17 -21 -32 -8 -15 -19 -25 -24 -21 -6 3 -7 1 -3 -6 9 -13 -172 -309 -214 -351 -13 -14 -25 -27 -25 -30 -2 -15 -27 -50 -34 -46 -4 3 -8 -1 -8 -8 0 -21 -113 -177 -124 -171 -5 4 -6 0 -4 -7 3 -7 -29 -56 -71 -108 -42 -52 -92 -116 -111 -143 -19 -26 -38 -45 -43 -42 -4 3 -7 -3 -6 -13 0 -10 -6 -17 -16 -17 -9 0 -20 -4 -25 -9 -4 -5 -3 -6 5 -2 24 14 11 -10 -37 -66 -27 -31 -52 -54 -56 -50 -5 4 -5 2 -2 -4 8 -14 -52 -86 -65 -78 -6 4 -8 2 -5 -3 4 -6 -5 -24 -21 -41 -15 -16 -67 -78 -117 -137 -49 -59 -105 -123 -123 -143 -18 -21 -53 -63 -79 -94 -25 -32 -50 -55 -54 -52 -5 3 -9 0 -9 -6 0 -20 -61 -90 -72 -84 -7 5 -8 2 -3 -5 10 -18 -62 -91 -84 -84 -13 4 -13 3 -2 -5 11 -8 7 -18 -19 -51 -18 -22 -37 -38 -43 -34 -6 3 -7 1 -4 -4 8 -13 -30 -63 -46 -60 -6 1 -11 -4 -12 -11 0 -23 -129 -181 -143 -177 -7 3 -11 1 -8 -3 9 -16 -24 -51 -42 -46 -12 4 -13 3 -5 -3 10 -7 8 -16 -10 -39 -51 -69 -101 -123 -109 -118 -4 3 -5 -2 -2 -10 3 -9 2 -16 -3 -16 -5 0 -24 -20 -42 -45 -18 -25 -37 -42 -43 -39 -6 4 -8 3 -5 -3 8 -13 -43 -74 -56 -66 -6 3 -7 1 -3 -6 9 -14 -63 -98 -79 -93 -5 2 -7 0 -3 -4 9 -8 -39 -70 -270 -347 -31 -38 -58 -73 -60 -78 -2 -5 -10 -9 -18 -9 -8 0 -13 -6 -11 -12 1 -7 -4 -12 -11 -10 -8 1 -11 -2 -8 -7 4 -5 0 -15 -7 -23 -7 -7 -25 -30 -41 -50 -16 -21 -33 -35 -39 -31 -5 3 -7 1 -4 -4 5 -8 -30 -63 -59 -92 -10 -10 -161 107 -156 122 1 5 -2 6 -8 2 -19 -12 -639 513 -633 536 2 5 -1 8 -6 6 -15 -4 -131 104 -124 117 3 6 2 8 -2 3 -11 -10 -76 53 -68 66 3 6 1 7 -4 4 -14 -9 -95 62 -86 76 3 5 2 7 -4 4 -9 -6 -136 119 -326 322 -38 40 -65 77 -61 83 4 6 3 8 -3 5 -6 -4 -44 30 -84 75 -41 45 -81 89 -89 98 -34 37 -132 169 -166 224 l-37 58 -1 466 c-1 547 11 858 45 1167 12 102 20 130 48 153 9 8 10 11 4 7 -18 -9 -16 -3 12 51 39 74 137 204 148 197 6 -3 7 -1 3 5 -3 5 18 36 46 68 81 90 242 254 245 250 2 -1 31 25 66 58 34 34 100 95 147 136 47 41 89 80 95 86 5 7 35 33 65 60 30 26 117 106 193 178 76 72 143 130 149 128 5 -1 7 2 4 7 -4 5 18 36 47 68 29 32 76 86 106 121 29 34 61 62 70 62 25 0 236 -261 223 -276 -4 -4 -2 -5 4 -1 5 3 19 -6 30 -20 10 -15 34 -44 52 -66 17 -21 30 -42 27 -47 -3 -4 3 -14 13 -21 15 -13 16 -12 3 4 -7 9 -11 17 -8 17 13 0 76 -93 70 -103 -3 -6 -1 -7 5 -3 13 8 66 -59 57 -74 -4 -6 -2 -9 3 -8 12 4 79 -73 178 -204 60 -78 70 -97 56 -101 -13 -4 -12 -5 5 -6 15 -1 46 -33 104 -108 45 -59 82 -112 82 -119 0 -7 3 -11 7 -9 3 2 39 -42 80 -97 56 -75 74 -107 72 -127 -5 -45 -75 -260 -83 -256 -4 3 -5 -4 -2 -15 7 -28 -29 -127 -38 -103 -4 11 -6 2 -6 -22 1 -37 -22 -115 -143 -495 -22 -69 -60 -190 -84 -270 -24 -80 -70 -235 -103 -345 -34 -110 -63 -211 -66 -225 -3 -14 -13 -50 -22 -80 -20 -67 -23 -81 -24 -97 -1 -7 -8 -10 -18 -7 -14 5 -15 4 -4 -4 12 -8 12 -17 3 -44 -10 -29 -11 -30 -8 -5 2 15 1 25 -3 22 -3 -4 -7 -37 -8 -73 0 -37 -4 -87 -7 -111 -4 -31 -1 -52 9 -68 9 -13 12 -23 8 -23 -5 0 -1 -5 7 -10 8 -5 22 -9 30 -9 10 0 8 3 -5 8 -18 7 -16 10 16 24 32 13 38 21 44 59 14 96 38 208 62 288 13 47 27 96 29 110 3 14 13 50 24 80 10 30 23 71 28 90 21 74 64 217 166 547 58 189 106 345 106 349 0 3 4 2 10 -1 5 -3 7 0 4 9 -3 8 15 82 40 163 25 81 56 180 67 218 12 39 39 121 60 184 36 109 40 116 111 190 41 42 99 108 130 146 61 77 168 239 168 255 0 5 4 10 8 10 5 0 17 18 27 40 10 22 21 37 26 35 4 -3 11 0 15 6 4 8 3 9 -4 5 -18 -11 -15 5 10 49 11 22 32 67 46 100 48 119 84 211 93 243 6 18 13 31 17 28 4 -2 8 6 8 17 1 12 10 40 19 62 10 22 17 43 17 48 -1 4 3 7 9 7 5 0 8 4 4 9 -7 12 69 183 146 329 59 112 196 342 209 352 4 3 12 15 19 27 6 13 17 22 24 20 7 -1 11 4 9 11 -4 19 89 143 101 135 6 -3 7 -1 3 6 -4 6 11 33 37 64 24 28 50 63 57 77 13 24 13 24 22 4 5 -11 19 -24 31 -29z m1086 -1781 c12 -126 22 -279 24 -340 1 -62 5 -110 8 -108 8 5 22 -230 23 -388 1 -69 5 -124 9 -121 4 3 7 -78 5 -180 -2 -102 0 -183 5 -180 4 2 7 -10 7 -26 0 -21 -5 -31 -16 -31 -8 0 -12 -5 -9 -10 4 -6 10 -8 15 -5 5 3 9 -178 10 -430 l0 -435 -26 -52 c-42 -83 -56 -101 -65 -86 -6 9 -8 6 -7 -8 3 -28 -142 -224 -160 -218 -8 2 -12 -2 -10 -8 5 -13 -37 -70 -101 -141 -29 -31 -37 -35 -50 -24 -14 10 -14 10 -3 -4 11 -14 8 -22 -14 -48 -14 -17 -31 -28 -36 -24 -6 3 -8 2 -5 -4 4 -6 -16 -34 -43 -63 -45 -48 -56 -54 -51 -27 1 5 -3 6 -8 3 -5 -3 -7 -14 -5 -24 6 -22 -60 -97 -77 -86 -8 4 -10 3 -5 -4 8 -14 -124 -153 -137 -145 -6 3 -7 2 -4 -4 7 -11 -128 -147 -156 -156 -9 -4 -16 -10 -15 -14 4 -10 -43 -58 -176 -182 -60 -55 -112 -99 -114 -96 -7 7 -33 -16 -27 -25 4 -6 -191 -195 -265 -256 -19 -16 -38 -33 -41 -38 -4 -5 -12 -5 -18 -2 -7 5 -10 2 -9 -6 2 -7 -4 -12 -12 -10 -8 2 -12 0 -7 -4 7 -8 -30 -54 -44 -54 -4 0 -20 -12 -36 -28 -58 -55 -83 -71 -100 -66 -14 4 -15 3 -5 -4 11 -7 -5 -23 -65 -67 -130 -95 -140 -98 -335 -96 -92 1 -179 6 -193 11 -17 7 -24 7 -20 0 4 -6 -5 -9 -19 -8 -15 1 -26 5 -26 8 0 3 -45 7 -101 8 -55 2 -146 12 -202 23 -56 10 -111 20 -122 22 -71 13 -229 82 -220 97 3 5 -1 7 -9 4 -18 -7 -65 25 -66 44 0 7 5 10 12 6 7 -4 8 -3 4 5 -5 7 8 31 31 58 21 25 89 109 151 187 63 78 118 140 123 138 6 -1 8 1 5 6 -3 5 40 64 96 131 76 93 103 120 110 109 7 -10 8 -8 4 5 -5 17 48 90 164 223 19 22 42 49 50 60 20 26 102 126 115 140 36 40 63 73 84 102 18 26 26 31 33 20 8 -10 9 -9 4 4 -6 21 141 201 157 191 6 -4 7 -1 2 6 -4 8 4 25 23 44 16 18 69 79 116 137 133 161 178 210 186 205 4 -3 7 1 6 8 -1 16 79 107 94 107 6 0 9 3 8 8 -5 14 124 162 135 155 5 -3 7 -2 4 4 -7 11 169 220 180 213 21 -14 17 -193 -7 -285 -23 -90 -87 -228 -123 -267 -14 -15 -23 -29 -21 -31 2 -2 -18 -41 -46 -86 -61 -102 -89 -175 -97 -253 -4 -37 -9 -54 -14 -46 -6 8 -8 0 -8 -22 0 -27 2 -30 8 -15 6 14 9 7 14 -30 9 -64 11 -78 18 -90 3 -5 5 -17 4 -25 0 -8 2 -17 6 -20 3 -3 24 -41 46 -85 28 -56 45 -80 59 -82 17 -1 18 0 2 10 -15 10 -13 13 18 27 l35 17 -32 59 c-73 138 -87 220 -60 344 13 64 83 196 100 192 7 -1 10 2 7 7 -4 5 13 40 37 78 24 37 59 103 77 145 19 42 38 74 42 72 4 -3 5 1 2 9 -3 8 3 39 12 68 15 44 18 91 18 246 l1 192 53 71 c29 39 57 68 61 65 5 -2 8 3 7 13 0 9 5 16 12 14 8 -1 11 2 8 6 -3 5 36 68 87 139 50 71 103 145 117 165 13 20 28 34 32 32 5 -3 7 -1 6 4 -5 16 145 242 155 235 6 -3 7 -1 3 5 -3 6 9 35 27 64 19 29 53 88 76 131 24 42 47 75 52 72 5 -4 6 1 3 9 -3 8 3 28 13 43 10 15 25 40 33 56 7 15 17 27 22 27 4 0 8 7 8 15 0 20 69 158 84 167 6 4 8 8 4 8 -4 0 9 37 28 83 20 45 43 102 51 126 23 65 39 92 48 83 5 -4 5 -1 1 6 -4 7 1 36 10 65 10 28 19 54 19 57 1 3 7 18 14 35 17 42 57 182 61 215 5 34 20 -80 39 -296z"/>
</g>
</svg>
