<?xml version="1.0" standalone="no"?>
<!DOCTYPE svg PUBLIC "-//W3C//DTD SVG 20010904//EN"
 "http://www.w3.org/TR/2001/REC-SVG-20010904/DTD/svg10.dtd">
<svg version="1.0" xmlns="http://www.w3.org/2000/svg"
 width="1024.000000pt" height="1024.000000pt" viewBox="0 0 1024.000000 1024.000000"
 preserveAspectRatio="xMidYMid meet">
<metadata>
Created by potrace 1.16, written by Peter Selinger 2001-2019
</metadata>
<g transform="translate(0.000000,1024.000000) scale(0.100000,-0.100000)"
fill="#000000" stroke="none">
<path d="M1885 8475 c-107 -14 -185 -39 -185 -60 0 -22 37 -46 116 -74 124
-44 249 -102 364 -171 58 -34 298 -134 350 -145 58 -13 28 -20 -93 -23 -150
-3 -421 -20 -442 -28 -20 -8 -19 -30 0 -38 9 -3 71 -1 138 5 337 28 479 30
493 7 9 -14 -25 -35 -76 -49 -39 -10 -124 -50 -155 -71 -27 -20 -144 -76 -149
-72 -3 2 -4 1 -1 -2 2 -4 -37 -28 -88 -54 -144 -74 -433 -227 -529 -281 -48
-27 -93 -46 -101 -43 -22 8 71 187 133 257 69 77 160 140 243 167 57 18 205
36 350 41 35 1 18 27 -18 27 -19 0 -66 3 -104 7 -69 7 -197 -12 -248 -37 -11
-6 -27 -7 -34 -3 -7 5 -10 4 -6 -2 4 -6 -8 -17 -26 -24 -46 -18 -148 -101
-193 -156 -21 -26 -41 -50 -44 -53 -16 -13 -90 -172 -104 -223 -25 -88 -8 -97
84 -46 211 119 477 259 685 362 55 27 125 64 155 82 30 19 62 35 70 37 8 2 39
17 70 35 55 31 83 36 42 7 -12 -8 -22 -21 -22 -28 0 -7 -16 -31 -35 -53 -19
-23 -35 -44 -35 -48 0 -6 -47 -72 -60 -85 -3 -3 -9 -12 -15 -21 -5 -9 -24 -36
-41 -60 -33 -46 -47 -70 -106 -179 -20 -36 -49 -90 -66 -120 -54 -98 -184
-419 -221 -550 -12 -41 -33 -113 -46 -160 -23 -80 -98 -400 -109 -464 -3 -16
-8 -50 -11 -75 -4 -25 -15 -104 -25 -176 -20 -135 -28 -208 -35 -335 -5 -91
-23 -316 -31 -385 -3 -27 -7 -70 -9 -95 -6 -66 -26 -574 -29 -720 -3 -120 17
-477 28 -505 5 -14 -11 -85 -20 -85 -12 0 -35 31 -29 39 3 5 1 12 -5 16 -5 3
-10 15 -10 26 0 11 -7 19 -16 19 -11 0 -15 6 -11 20 6 24 -19 79 -40 87 -8 3
-25 0 -38 -7 -13 -7 -35 -10 -49 -6 -49 12 -100 -31 -91 -76 2 -16 0 -28 -5
-28 -6 0 -10 -8 -10 -17 0 -13 9 -18 30 -19 19 -1 30 4 30 12 0 8 5 13 10 11
6 -1 17 13 25 31 8 17 10 32 5 32 -6 0 -10 -5 -10 -11 0 -5 -4 -8 -9 -4 -6 3
-14 -2 -19 -11 -5 -9 -14 -14 -21 -10 -21 14 23 43 75 50 42 5 54 3 68 -12 19
-22 15 -28 -53 -62 -31 -16 -40 -25 -32 -33 7 -7 18 -7 36 1 15 7 31 10 36 6
5 -3 8 0 7 7 -2 6 2 13 7 15 10 4 45 -64 45 -86 0 -25 51 -30 140 -14 19 3 42
6 51 6 9 0 27 10 40 24 12 13 33 24 45 24 30 0 66 38 58 62 -3 10 0 18 7 18 6
0 39 14 73 31 50 26 69 30 106 26 25 -3 58 -12 74 -20 36 -19 129 -11 171 15
38 23 58 23 104 -1 48 -25 73 -35 89 -32 16 3 15 -9 -3 -23 -8 -6 -18 -26 -21
-43 -6 -29 -4 -33 15 -33 11 0 33 12 48 28 16 15 36 28 46 30 15 3 17 -8 17
-118 0 -72 -4 -121 -10 -121 -5 -1 -16 -2 -22 -3 -35 -3 -23 -66 13 -66 18 0
19 -6 17 -60 -2 -63 7 -85 31 -70 15 8 17 88 5 135 -4 16 -3 17 5 5 7 -10 11
-11 11 -2 0 17 46 15 73 -3 12 -8 31 -14 42 -15 11 0 34 -1 51 -2 64 -1 101
68 88 168 -3 30 -10 57 -15 60 -5 3 -9 13 -9 22 0 28 -79 112 -104 112 -13 0
-36 4 -52 9 -16 5 -41 12 -57 15 l-27 6 2 388 3 387 395 5 396 5 57 35 c31 19
57 39 57 45 0 7 3 7 8 0 4 -6 26 -19 50 -29 l42 -19 19 22 c11 13 17 29 14 37
-7 18 -22 18 -29 -1 -5 -12 -9 -12 -29 1 -12 8 -30 11 -39 8 -13 -5 -17 -2
-14 11 6 32 -18 27 -73 -17 -52 -41 -55 -42 -154 -49 -55 -4 -236 -8 -402 -8
l-303 -1 0 534 0 535 46 7 c35 5 56 16 85 45 43 43 52 88 32 151 -6 20 -9 38
-7 41 9 9 10 77 1 80 -5 1 -3 14 3 29 15 31 5 118 -13 118 -8 0 -8 3 1 12 14
14 16 94 2 103 -5 3 -10 11 -10 16 0 6 4 8 9 5 5 -3 8 26 7 65 -1 64 -4 73
-29 95 -17 14 -46 26 -77 30 l-50 7 0 582 c0 320 -3 604 -7 631 -6 46 -2 41
63 -85 38 -73 84 -151 103 -173 28 -33 32 -43 23 -57 -39 -58 -97 -160 -121
-216 -15 -36 -29 -63 -32 -61 -10 11 -9 -89 3 -122 28 -82 70 -116 158 -128
54 -7 100 11 126 51 21 32 34 142 23 196 -5 24 -13 67 -18 94 -5 28 -16 75
-25 105 -8 30 -14 56 -12 58 5 4 110 -60 114 -70 2 -4 10 -8 17 -8 17 0 143
-129 151 -155 7 -21 43 -65 54 -65 12 0 30 50 30 80 0 17 5 30 10 30 6 0 10
17 10 38 0 31 -4 38 -20 38 -11 0 -20 -4 -20 -8 0 -16 -47 -7 -65 12 -10 11
-27 23 -39 26 -11 4 -34 17 -51 29 -16 13 -52 34 -80 48 -27 13 -75 37 -105
53 -30 15 -62 30 -70 34 -15 6 -150 221 -144 229 1 2 -2 8 -7 15 -28 33 -79
132 -77 149 3 17 9 16 73 -18 116 -61 138 -72 198 -100 31 -15 57 -31 57 -35
0 -5 10 -12 23 -16 12 -4 24 -10 27 -14 9 -13 125 -70 143 -70 9 0 17 -4 17
-10 0 -5 3 -9 8 -8 17 4 98 -15 104 -26 6 -8 8 -7 8 2 0 14 66 17 75 3 3 -5
18 -9 34 -9 l28 1 -14 45 c-12 42 -26 61 -45 62 -14 0 -8 -20 12 -40 11 -11
16 -20 11 -20 -6 0 -13 5 -16 11 -4 6 -14 8 -22 5 -8 -3 -20 -3 -26 1 -7 5
-32 8 -57 9 -31 0 -73 14 -135 43 -49 24 -92 46 -95 50 -4 7 -36 22 -50 25 -3
1 -61 30 -130 65 -69 35 -145 74 -169 86 l-44 22 109 6 c119 7 258 2 374 -12
118 -15 342 -24 393 -17 57 9 59 22 16 77 -17 21 -28 39 -24 39 14 0 -165 115
-251 161 -177 95 -289 117 -403 77 -53 -19 -80 -37 -139 -93 -40 -39 -74 -70
-76 -68 -1 2 -3 -3 -3 -11 0 -19 -46 -75 -58 -72 -5 1 -24 30 -41 63 -66 131
-162 226 -291 292 -121 60 -274 80 -448 56z m318 -50 c57 -17 158 -67 207
-103 63 -46 166 -174 155 -192 -3 -4 2 -10 10 -13 16 -7 50 -67 36 -67 -4 0
-25 7 -45 15 -20 9 -41 13 -46 10 -5 -3 -11 -1 -15 5 -3 5 -13 10 -22 10 -8 0
-29 7 -46 15 -18 8 -54 23 -82 34 -69 27 -106 47 -99 54 4 3 -2 5 -12 5 -11
-1 -42 12 -70 29 -27 17 -95 52 -150 78 -54 26 -106 51 -114 55 -8 4 -39 13
-67 20 -30 8 -53 19 -53 27 0 7 6 13 13 14 6 0 30 2 52 4 217 24 264 24 348 0z
m956 -164 c95 -32 134 -51 261 -129 98 -60 168 -117 157 -128 -13 -13 -89 -12
-247 3 -158 16 -390 21 -537 12 -72 -5 -83 -3 -83 11 0 35 147 188 214 222 90
46 121 47 235 9z m-481 -1068 l3 -633 -23 0 c-47 -1 -106 -37 -127 -79 -23
-43 -28 -125 -10 -137 17 -10 2 -66 -24 -87 -12 -10 -16 -16 -9 -12 8 4 12 -2
12 -19 0 -14 4 -27 9 -30 28 -18 11 -108 -18 -98 -8 3 -5 -5 7 -18 21 -22 92
-36 92 -18 0 12 38 10 63 -4 21 -10 21 -10 7 7 -13 16 -13 18 0 13 8 -2 16
-17 18 -31 3 -22 -1 -27 -18 -27 -62 0 -160 -78 -160 -128 0 -28 39 -87 72
-106 14 -9 39 -16 56 -16 48 0 53 -15 50 -160 l-3 -133 -200 2 c-162 1 -204
-1 -220 -13 -31 -23 -11 -25 215 -28 l205 -3 0 -370 0 -370 -275 -5 c-250 -5
-275 -7 -278 -22 -3 -16 17 -18 275 -20 l278 -3 3 -391 2 -392 -27 -5 c-35 -7
-71 11 -88 42 -8 14 -14 20 -15 14 0 -21 -18 -15 -48 17 -29 30 -92 52 -92 32
0 -5 -12 -13 -26 -16 -14 -4 -35 -16 -47 -26 -27 -26 -81 -26 -99 -2 -22 31
-49 41 -75 29 -13 -5 -23 -14 -23 -19 0 -11 -21 -10 -39 1 -23 15 -44 154 -64
431 -8 107 -15 204 -16 215 0 11 -4 88 -9 170 -14 241 6 865 29 923 5 13 7 27
4 32 -5 8 10 143 21 190 3 14 7 41 8 60 11 139 90 545 166 850 103 412 208
757 238 780 4 3 18 28 32 55 13 28 52 91 85 142 55 83 61 89 70 70 6 -14 11
-269 13 -654z m-329 162 c-35 -105 -105 -355 -115 -410 -4 -22 -10 -44 -14
-50 -4 -5 -11 -28 -14 -50 -4 -22 -11 -47 -16 -55 -9 -13 -11 -13 -20 0 -7 11
-12 12 -18 3 -6 -9 -18 -9 -50 -1 -23 6 -42 13 -42 17 0 10 45 130 83 223 39
93 115 241 153 298 13 19 24 39 24 43 0 13 40 67 49 67 5 0 -4 -38 -20 -85z
m606 45 c9 -16 12 -30 8 -30 -5 0 -3 -4 3 -8 14 -9 64 -211 64 -259 0 -41 -35
-123 -53 -124 -7 0 -26 -2 -43 -4 -38 -5 -88 25 -119 71 -34 50 -31 102 11
191 35 77 102 193 109 193 3 0 11 -13 20 -30z m-795 -666 c8 -1 16 -3 18 -3 2
-1 0 -6 -4 -13 -4 -7 -9 -22 -10 -34 -1 -12 -16 -82 -32 -155 -32 -143 -72
-372 -72 -416 l0 -26 -67 6 c-38 4 -78 7 -90 7 -29 0 -30 23 -4 128 10 42 31
131 47 197 28 123 51 206 80 283 l16 44 52 -7 c28 -4 58 -9 66 -11z m-119
-690 c5 -3 -3 -69 -30 -247 -6 -37 -11 -79 -11 -92 0 -21 -4 -25 -22 -21 -40
8 -143 20 -156 17 -9 -1 -12 4 -9 16 3 10 10 56 17 103 19 144 32 225 37 233
5 8 159 0 174 -9z m-53 -399 c1 -1 -1 -77 -4 -168 l-7 -166 -26 4 c-14 1 -59
3 -99 4 l-73 1 6 68 c3 37 11 113 17 169 l12 103 85 -6 c47 -4 87 -8 89 -9z
m-23 -527 l0 -156 -35 -6 c-19 -3 -66 -6 -104 -6 l-69 0 7 157 c4 86 9 159 11
163 2 3 46 6 97 5 l93 0 0 -157z m-12 -225 c-3 -7 -1 -13 4 -13 5 0 9 -15 9
-32 0 -18 3 -74 7 -124 9 -107 5 -115 -68 -109 -27 2 -54 0 -60 -4 -5 -5 -34
-11 -63 -14 l-54 -6 6 47 c3 26 8 98 12 160 l6 114 103 -3 c78 -3 101 -7 98
-16z m32 -427 c4 -58 4 -110 0 -116 -4 -6 -26 -10 -48 -9 -39 3 -113 -5 -179
-17 l-28 -6 0 116 c0 103 2 115 18 115 9 -1 46 4 82 9 36 5 84 10 106 11 l42
1 7 -104z m8 -163 c3 -5 8 -47 12 -95 l7 -88 -98 0 c-55 0 -116 -4 -136 -9
-45 -11 -48 -5 -48 95 0 70 1 74 23 75 12 0 65 6 117 13 121 18 118 17 123 9z
m33 -260 c1 -6 7 -35 14 -65 10 -47 9 -54 -6 -63 -9 -5 -29 -20 -44 -32 -14
-12 -38 -25 -53 -28 -15 -4 -27 -11 -27 -15 0 -4 -15 -13 -32 -19 -18 -7 -50
-23 -71 -37 -42 -27 -54 -26 -55 8 0 13 -5 72 -10 132 -6 60 -8 115 -5 122 6
16 37 22 168 32 103 7 115 4 121 -35z m777 -238 c70 -11 143 -109 149 -195 2
-37 -2 -46 -27 -66 -22 -17 -33 -20 -47 -13 -11 6 -50 13 -89 16 l-69 6 0 127
c0 70 3 130 7 133 4 4 14 5 22 3 9 -2 33 -7 54 -11z"/>
<path d="M6414 8156 c-73 -22 -107 -43 -165 -103 -53 -54 -66 -63 -88 -58 -36
8 -138 -21 -186 -52 -22 -14 -62 -49 -89 -77 -26 -28 -45 -46 -42 -39 5 8 -2
7 -21 -2 -15 -8 -33 -15 -39 -15 -41 0 -169 -87 -205 -138 -37 -54 -7 -80 142
-120 210 -58 461 -70 729 -37 106 13 183 16 288 12 78 -3 144 -1 147 3 10 17
-8 40 -29 38 -11 -1 -66 1 -121 6 -72 5 -134 3 -220 -8 -265 -33 -355 -38
-479 -26 -127 11 -253 36 -274 53 -7 5 -15 7 -18 4 -6 -6 -97 19 -127 35 -15
8 -11 14 31 48 66 52 149 93 178 87 13 -2 21 0 18 5 -3 5 0 8 8 6 8 -2 41 24
74 58 77 78 135 106 234 112 73 4 77 6 89 34 15 33 98 99 154 123 59 25 121
19 185 -16 71 -38 114 -79 144 -135 12 -24 29 -45 38 -47 8 -1 47 3 85 11 55
10 84 10 135 2 82 -14 120 -29 120 -45 0 -9 20 -16 58 -20 88 -10 156 -38 216
-90 47 -40 126 -140 126 -159 0 -3 -21 -6 -47 -6 -85 0 -176 -20 -242 -52 -71
-34 -159 -116 -186 -171 -24 -51 -9 -63 100 -78 83 -11 195 -9 545 6 l125 6
-45 -22 c-25 -12 -56 -29 -70 -39 -44 -31 -268 -120 -385 -154 -112 -33 -185
-90 -185 -145 0 -14 -11 -48 -25 -75 -37 -73 -35 -144 5 -190 26 -29 40 -36
85 -41 30 -4 66 -4 80 -1 38 10 83 56 97 101 13 40 16 42 110 83 44 20 162
110 201 155 10 11 21 16 25 12 4 -4 1 -10 -5 -12 -7 -3 -13 -11 -13 -19 0 -8
-7 -17 -15 -20 -8 -4 -12 -10 -10 -15 3 -4 -4 -28 -16 -51 -61 -120 -91 -273
-69 -353 11 -39 17 -45 46 -51 52 -10 79 2 133 56 56 56 120 177 145 277 19
73 36 271 31 366 -2 38 -1 67 1 65 7 -8 127 -255 146 -303 102 -254 173 -519
222 -830 9 -55 18 -127 21 -160 3 -33 7 -76 10 -95 21 -151 32 -548 21 -770
-18 -349 -28 -475 -39 -482 -7 -4 -40 -8 -74 -9 -80 -2 -73 0 -108 -26 l-30
-22 30 4 c17 2 54 6 83 10 30 5 52 4 52 -2 0 -15 -84 -34 -125 -28 l-40 7 3
215 c3 209 -1 243 -29 243 -4 0 -6 -33 -5 -72 3 -66 -3 -145 -19 -236 -5 -25
-3 -32 5 -27 9 5 10 1 4 -16 -4 -13 -8 -43 -9 -67 0 -44 -7 -52 -52 -66 l-23
-7 -2 182 c-3 171 -4 182 -23 189 -19 7 -20 4 -17 -89 3 -121 -7 -268 -18
-251 -6 10 -17 11 -55 1 -26 -7 -50 -10 -53 -7 -3 3 -10 -1 -16 -10 -7 -9 -18
-12 -29 -8 -15 5 -17 21 -18 113 0 121 -13 169 -50 190 -40 22 -71 8 -90 -41
-19 -49 -39 -145 -42 -203 -2 -35 -6 -41 -32 -49 -16 -5 -48 -10 -70 -11 -22
-1 -51 -7 -65 -12 -14 -6 -28 -9 -32 -7 -16 10 6 -37 28 -57 l24 -23 53 23
c73 33 100 36 157 17 45 -15 53 -15 79 -2 16 9 31 12 35 9 3 -4 6 0 6 8 0 11
2 11 10 -1 9 -13 10 -13 10 0 0 8 12 -3 25 -25 14 -22 39 -48 57 -57 33 -18
88 -24 88 -10 0 4 16 14 35 21 19 7 35 19 35 27 0 8 5 14 12 14 6 0 9 3 6 6
-4 3 -17 -1 -30 -9 -12 -8 -41 -14 -63 -13 -22 1 -47 -1 -56 -6 -11 -5 -19 -1
-27 16 -11 25 -5 76 10 76 5 0 6 -4 3 -10 -7 -11 39 -25 54 -15 7 4 11 -4 11
-19 0 -33 29 -35 77 -5 19 12 37 19 40 16 3 -4 18 0 33 8 18 9 45 12 81 9 53
-6 67 -2 139 35 l34 18 116 -40 c112 -40 119 -41 285 -47 176 -7 196 -10 232
-42 21 -20 21 -20 28 1 8 27 1 37 -38 58 -25 13 -69 19 -189 23 -87 3 -160 9
-164 12 -3 4 -1 22 4 40 10 32 16 84 32 308 26 354 -5 884 -71 1215 -29 145
-86 367 -113 438 -102 269 -237 496 -400 672 -30 33 -51 62 -45 64 6 2 32 -9
59 -23 26 -14 65 -32 87 -40 95 -34 556 -274 638 -333 35 -24 103 -63 112 -63
12 0 -9 105 -37 182 -33 91 -73 158 -122 205 -31 30 -143 89 -184 97 -11 3
-32 9 -49 16 -87 34 -320 77 -424 79 l-44 1 49 27 c27 14 65 34 84 44 19 10
82 48 140 83 157 96 246 141 348 176 75 25 98 29 126 22 20 -6 39 -6 47 -1 38
25 -100 85 -231 100 -290 35 -543 -89 -660 -321 -36 -71 -60 -99 -60 -70 0 19
-64 69 -145 112 -43 24 -83 42 -88 40 -4 -1 -18 4 -30 13 -12 8 -29 15 -38 15
-11 0 -22 13 -29 35 -6 19 -16 35 -21 35 -5 0 -9 5 -9 11 0 6 -20 34 -45 63
-25 29 -43 56 -40 59 3 4 2 5 -2 2 -3 -3 -20 4 -37 14 -59 37 -134 71 -155 71
-11 0 -26 6 -33 13 -6 8 -23 11 -36 9 -14 -3 -35 4 -52 17 -48 35 -150 54
-228 42 -37 -6 -76 -13 -87 -16 -15 -5 -23 1 -33 24 -23 52 -91 119 -150 147
-62 31 -160 45 -208 30z m2203 -392 c71 -6 89 -19 40 -28 -46 -9 -210 -85
-287 -134 -110 -70 -198 -120 -222 -127 -13 -4 -47 -23 -76 -42 -28 -19 -57
-31 -64 -27 -6 4 -8 3 -5 -3 8 -12 -34 -43 -57 -43 -13 0 -12 9 5 57 27 79 71
144 141 207 92 83 252 152 323 138 14 -2 25 0 25 6 0 10 15 10 177 -4z m-1100
-211 c-3 -5 9 -8 26 -9 18 0 43 -3 57 -6 41 -10 143 -57 161 -76 10 -9 33 -28
53 -42 35 -25 48 -56 24 -57 -7 -1 -74 -4 -148 -8 -74 -3 -148 -8 -165 -11
-79 -10 -364 -14 -370 -4 -3 5 -17 7 -30 4 -17 -4 -26 0 -34 14 -9 17 -3 27
41 71 74 74 137 101 266 116 59 7 111 13 115 14 5 0 6 -2 4 -6z m699 -251
c121 -15 273 -52 329 -81 17 -8 32 -16 35 -16 34 -6 82 -34 142 -81 31 -24 91
-133 83 -152 -2 -7 -1 -10 5 -7 5 3 14 -13 20 -35 6 -23 14 -48 17 -56 5 -15
-122 48 -180 89 -58 40 -443 236 -497 252 -14 4 -38 15 -55 23 -30 16 -36 18
-56 21 -5 0 -7 5 -4 11 4 6 -1 7 -11 3 -12 -4 -15 -3 -10 5 4 8 2 10 -8 6 -9
-3 -19 3 -26 16 -12 22 -12 22 62 17 40 -3 109 -10 154 -15z m-336 -18 c0 -17
-23 -44 -32 -38 -6 4 -8 3 -5 -3 4 -6 -12 -30 -36 -54 -23 -24 -58 -62 -78
-84 -107 -121 -259 -243 -319 -258 l-25 -6 -1 90 c-1 52 -6 95 -13 102 -24 24
-7 37 97 72 59 20 170 69 247 109 132 70 165 84 165 70z m10 -86 c-1 -91 -21
-323 -30 -359 -37 -143 -116 -281 -182 -315 -32 -16 -32 -16 -54 11 -12 16
-22 38 -22 49 1 52 20 152 31 165 7 8 11 17 9 20 -1 3 5 23 14 44 13 28 22 36
35 32 13 -4 22 3 34 24 8 17 20 31 25 31 5 0 8 9 7 19 0 11 -6 17 -14 14 -35
-14 1 74 92 222 43 69 55 79 55 43z m220 -168 c20 0 205 -310 240 -400 7 -19
19 -48 26 -65 32 -73 55 -139 75 -217 39 -154 57 -238 50 -241 -3 -2 -25 -5
-49 -6 -23 -1 -57 -7 -74 -12 -17 -5 -33 -7 -35 -5 -3 2 -11 46 -19 97 -22
134 -69 347 -105 469 -26 88 -53 160 -147 400 -4 11 -1 11 12 -2 9 -10 21 -18
26 -18z m-764 -93 c1 -77 -2 -122 -13 -153 -47 -138 -223 -133 -223 7 0 16 4
29 10 29 5 0 7 7 4 15 -4 8 -1 15 5 15 6 0 11 8 11 18 0 12 3 13 8 4 6 -9 16
-10 40 -1 30 10 44 29 21 29 -5 0 -8 4 -5 9 3 5 -2 12 -11 15 -10 4 -20 1 -25
-9 -5 -8 -14 -15 -20 -15 -9 0 -9 3 0 12 7 7 12 20 12 30 0 31 55 82 102 95
81 22 80 22 84 -100z m1173 -900 c10 -29 28 -144 46 -284 l7 -53 -84 0 c-47 0
-89 -5 -95 -11 -8 -8 -13 13 -18 73 -3 45 -10 119 -16 163 -15 128 -18 120 54
131 34 5 70 10 79 11 11 1 21 -10 27 -30z m50 -391 c12 -15 33 -317 23 -328
-4 -3 -41 -3 -82 2 -44 5 -82 4 -92 -1 -14 -8 -18 -3 -23 33 -3 24 -5 99 -3
168 l3 125 45 6 c80 11 117 9 129 -5z m9 -373 l24 -6 -4 -158 c-1 -86 -6 -161
-10 -165 -11 -11 -181 14 -190 28 -9 15 -11 269 -2 292 5 13 22 16 83 16 42 0
87 -3 99 -7z m9 -379 c5 -15 -14 -222 -29 -311 -9 -59 -12 -63 -37 -63 -39 1
-166 55 -166 71 1 29 16 226 21 272 l6 48 100 -2 c68 -2 102 -7 105 -15z
m-917 -143 c0 -5 7 -17 16 -26 20 -19 29 -123 17 -180 -9 -40 -9 -40 -56 -39
-55 0 -62 5 -48 32 7 13 7 22 -1 30 -8 8 -9 12 -1 12 6 0 12 27 15 64 2 37 11
74 21 90 17 26 37 35 37 17z"/>
<path d="M3258 7554 c-35 -18 -39 -50 -5 -38 42 15 130 8 172 -13 33 -17 48
-35 77 -95 20 -40 42 -98 49 -128 17 -78 65 -180 84 -180 18 0 32 29 19 39
-13 8 -41 76 -54 131 -32 127 -71 212 -112 244 -73 55 -171 72 -230 40z"/>
<path d="M4194 7244 c-23 -8 -60 -31 -83 -50 -32 -28 -46 -34 -63 -28 -82 26
-271 -5 -300 -50 -4 -6 -8 -8 -8 -4 0 8 -66 -57 -112 -112 -63 -74 -41 -106
23 -34 118 132 166 158 294 159 50 0 102 -4 117 -8 23 -8 31 -5 51 17 40 43
135 86 190 86 29 0 46 -4 42 -10 -3 -5 0 -7 9 -4 24 9 103 -32 137 -71 47 -53
57 -56 124 -33 46 15 86 20 168 20 102 0 112 -2 175 -32 68 -34 152 -108 152
-135 0 -11 11 -15 39 -15 34 0 47 -8 122 -81 l84 -80 -275 4 c-288 6 -450 17
-572 41 -189 37 -226 39 -426 30 -226 -10 -515 -12 -585 -3 -40 4 -50 2 -58
-13 -8 -14 -5 -19 18 -25 31 -9 363 -10 653 -4 102 3 201 2 220 -2 211 -38
374 -58 520 -65 208 -10 467 -9 494 3 15 6 17 5 11 -5 -5 -8 -4 -11 2 -7 6 4
28 9 49 13 74 11 72 24 -8 89 -63 50 -111 91 -132 111 -6 6 -34 18 -62 28 -29
9 -63 30 -80 49 -45 49 -104 97 -119 97 -8 0 -16 4 -19 9 -5 7 -27 15 -116 38
-36 10 -179 2 -238 -13 -37 -9 -67 -12 -71 -7 -13 19 -135 93 -169 103 -52 14
-149 11 -198 -6z"/>
<path d="M6052 6670 c-50 -31 -92 -127 -92 -210 0 -65 15 -125 38 -152 6 -8
10 -18 7 -21 -3 -4 -2 -5 2 -2 3 3 11 1 17 -4 27 -22 81 -22 120 1 113 65 130
285 30 376 -42 37 -75 41 -122 12z m112 -62 c42 -95 44 -164 5 -240 -24 -47
-51 -62 -96 -53 -29 5 -38 13 -53 48 -27 65 -26 133 6 192 37 70 52 85 90 85
28 0 35 -5 48 -32z"/>
<path d="M4929 6126 c-80 -28 -80 -28 -150 -88 -82 -71 -152 -180 -173 -270
-5 -21 -2 -30 13 -38 18 -9 21 -4 36 47 26 88 51 130 117 194 63 62 152 111
223 124 96 18 188 14 270 -12 96 -31 124 -47 188 -110 55 -53 102 -127 118
-188 12 -46 27 -67 40 -59 15 9 10 46 -17 118 -32 82 -92 159 -159 204 -28 17
-57 38 -67 46 -9 8 -19 12 -22 9 -3 -4 -6 -1 -6 6 0 6 -6 11 -12 10 -7 -1 -20
1 -28 4 -87 34 -277 36 -371 3z"/>
<path d="M5506 5682 c-1778 -1 -2453 -5 -2462 -13 -8 -6 -11 -15 -8 -20 3 -5
1085 -9 2557 -8 2195 0 2555 2 2571 15 11 7 17 16 14 19 -9 10 -135 10 -2672
7z"/>
<path d="M2866 5461 c-5 -7 -6 -14 -4 -17 11 -11 894 -16 2986 -18 1245 -1
2266 2 2269 7 3 5 3 10 1 12 -2 2 -883 6 -1958 9 -1075 3 -2255 8 -2621 12
-522 6 -667 5 -673 -5z"/>
<path d="M6360 5145 c-64 -34 -77 -37 -98 -26 -26 14 -35 14 -27 1 4 -7 -2 -9
-19 -4 -28 7 -38 -12 -12 -22 8 -3 17 -16 20 -29 7 -26 36 -37 51 -19 19 23
114 73 120 63 4 -5 11 -7 16 -4 5 4 9 2 9 -3 0 -34 111 -95 140 -77 13 8 -10
45 -28 45 -7 0 -29 18 -50 39 -41 44 -84 56 -122 36z"/>
<path d="M3218 5107 c-41 -24 -64 -58 -53 -77 4 -7 15 -3 32 15 14 14 29 25
34 25 4 0 14 7 23 15 13 13 17 12 36 -12 12 -15 24 -40 27 -54 3 -15 13 -29
22 -31 26 -6 51 2 51 17 0 17 75 69 110 78 21 5 34 -2 73 -38 26 -25 53 -46
59 -47 67 -7 108 -5 108 8 0 8 8 14 18 15 49 2 74 10 99 33 15 14 33 27 40 27
33 3 83 27 83 39 0 25 -94 0 -152 -42 -16 -10 -32 -17 -37 -14 -5 4 -11 2 -13
-3 -1 -6 -16 -12 -33 -15 -16 -2 -30 -5 -30 -6 0 -1 -13 -4 -28 -6 -18 -2 -35
4 -48 17 -11 11 -24 17 -29 14 -6 -4 -10 -1 -10 5 0 6 -12 22 -26 35 -28 26
-87 34 -99 14 -4 -6 -14 -8 -22 -5 -8 3 -11 1 -8 -4 3 -5 -10 -16 -28 -24 -19
-8 -38 -19 -41 -25 -4 -6 -12 -9 -17 -6 -5 4 -9 0 -9 -7 -1 -7 -10 4 -21 24
-18 34 -46 59 -66 58 -4 -1 -25 -11 -45 -23z"/>
<path d="M4506 5097 c-33 -31 -89 -138 -77 -150 12 -12 51 14 51 34 0 19 46
64 53 52 2 -4 5 -80 6 -168 l1 -160 -85 -95 c-47 -52 -90 -96 -95 -98 -6 -2
-10 61 -10 166 0 184 -4 198 -48 158 -20 -17 -24 -18 -32 -6 -5 8 -10 34 -11
58 -1 23 -3 47 -4 52 -1 6 -3 14 -4 20 0 5 -10 14 -21 20 -24 13 -54 0 -70
-31 -12 -22 -40 -194 -40 -246 0 -33 -1 -34 -35 -27 -36 6 -95 -10 -95 -27 0
-5 16 -9 35 -9 19 0 35 -4 35 -8 0 -5 7 -9 15 -9 8 0 12 5 8 10 -3 5 3 7 13 5
14 -2 20 -13 22 -43 l3 -40 -48 -1 c-26 -1 -49 -7 -51 -13 -2 -6 -10 -11 -18
-11 -8 0 -23 -9 -34 -20 -11 -11 -33 -20 -50 -20 -28 0 -30 2 -30 38 0 21 -7
59 -16 85 -14 41 -19 47 -44 47 -22 0 -31 -7 -43 -32 -22 -48 -27 -81 -29
-203 -1 -60 -3 -113 -5 -117 -2 -4 -16 -2 -31 4 -47 19 -132 8 -132 -17 0 -19
32 -27 96 -26 30 0 54 -4 54 -9 0 -6 -4 -10 -9 -10 -5 0 -7 -8 -4 -18 5 -22
-58 -108 -77 -104 -7 2 -10 -3 -7 -12 4 -9 -4 -21 -19 -30 -13 -9 -24 -25 -24
-36 0 -10 -10 -26 -22 -34 -21 -15 -23 -14 -36 17 l-14 32 -18 -35 c-11 -19
-19 -45 -20 -57 0 -18 -6 -21 -43 -21 -25 1 -54 -6 -69 -16 -25 -16 -26 -16
-31 6 -4 13 -7 86 -8 163 -1 155 -15 216 -55 253 -27 24 -73 29 -106 11 -24
-13 -61 -93 -78 -169 -15 -68 -27 -703 -20 -1058 l5 -254 -30 -46 c-16 -26
-61 -87 -100 -137 -39 -49 -104 -135 -145 -190 -41 -55 -114 -149 -162 -210
-108 -135 -98 -122 -133 -170 -17 -22 -34 -44 -38 -50 -129 -164 -188 -255
-165 -255 10 0 10 -2 -1 -9 -10 -6 -10 -10 -1 -16 7 -4 14 1 17 15 3 13 11 19
20 16 8 -3 11 -1 8 4 -3 5 5 22 19 37 15 15 26 31 26 35 0 5 365 8 810 8 713
0 810 2 810 15 0 13 -51 15 -397 16 -843 2 -1193 4 -1193 7 0 2 26 36 58 75
75 93 214 274 227 297 6 10 28 36 48 59 l37 41 2326 0 2327 -1 27 -29 c16 -17
88 -110 161 -208 73 -97 144 -189 158 -205 l25 -27 -70 -1 c-38 -1 -535 -3
-1104 -5 -569 -2 -1038 -3 -1042 -4 -5 0 -8 -7 -8 -15 0 -13 128 -15 1088 -17
598 0 1099 0 1114 1 38 3 54 -8 91 -64 31 -48 54 -58 50 -22 -3 21 -142 226
-218 322 -30 37 -52 72 -48 78 3 6 2 8 -3 5 -9 -6 -87 94 -416 535 -90 121
-87 105 -70 302 6 68 9 297 8 530 -5 548 -21 685 -89 748 -38 34 -76 35 -115
2 -59 -49 -74 -193 -76 -702 -1 -221 -5 -405 -8 -408 -3 -3 -32 29 -64 72
-146 193 -279 362 -341 433 -28 31 -32 43 -28 76 3 21 8 154 11 296 6 213 9
255 21 251 29 -11 41 -58 44 -177 3 -109 5 -120 28 -144 16 -17 26 -22 29 -14
2 6 8 12 13 12 6 0 8 -4 5 -8 -9 -15 53 -89 89 -106 19 -9 35 -21 35 -25 0
-11 75 -30 88 -22 15 10 22 45 13 60 -5 8 -18 12 -30 8 -12 -3 -21 -1 -21 5 0
5 -8 8 -17 6 -10 -2 -26 6 -35 17 -13 15 -20 17 -26 8 -18 -28 -73 91 -55 121
4 5 -6 7 -23 3 -17 -3 -35 -3 -41 1 -6 4 -14 53 -17 113 -5 87 -3 109 9 119 8
7 53 14 101 16 89 4 135 21 97 35 -10 4 -30 8 -45 8 -14 1 -28 6 -30 12 -2 7
-24 8 -71 1 l-67 -9 0 77 c0 103 -18 188 -42 201 -49 26 -78 -19 -78 -121 0
-39 -2 -70 -4 -70 -14 0 -122 46 -128 55 -5 7 -8 6 -8 -2 0 -16 -50 8 -50 24
0 6 -9 11 -19 10 -11 0 -19 -5 -18 -10 1 -5 -3 -11 -9 -14 -8 -2 -13 34 -16
116 -4 89 -9 127 -22 146 -9 14 -21 23 -26 20 -6 -4 -10 1 -10 9 0 22 -55 -28
-75 -67 -17 -35 -12 -47 19 -47 16 0 28 10 38 31 l15 31 8 -29 c10 -35 15
-603 5 -603 -12 0 -240 280 -240 295 0 3 -8 13 -17 23 -10 11 -46 53 -81 95
l-63 76 -2 211 -2 212 -25 20 -24 20 -22 -27 c-33 -42 -47 -102 -46 -197 l1
-88 -487 -2 c-268 -1 -496 -1 -507 0 -35 1 -48 -6 -34 -20 9 -10 117 -12 501
-10 l489 3 30 -32 c16 -17 29 -35 29 -39 0 -17 -137 -21 -605 -18 -412 3 -480
5 -477 17 2 8 3 85 3 170 -1 215 -20 269 -75 218z m1209 -47 c-3 -5 -2 -10 4
-10 6 0 10 -65 10 -171 l1 -172 -21 27 c-12 15 -24 42 -27 59 -13 82 7 277 29
277 6 0 7 -4 4 -10z m-1488 -420 l3 -289 -26 -30 c-14 -17 -54 -67 -87 -110
-83 -106 -253 -308 -293 -349 l-33 -33 -3 195 c-2 108 0 196 5 196 4 0 7 8 7
18 0 26 10 33 31 21 15 -7 19 -7 17 3 -2 7 3 12 10 10 6 -1 11 1 10 5 -2 11
25 67 36 75 5 3 10 23 12 45 1 21 2 41 3 45 1 4 20 12 44 19 23 6 51 18 62 28
50 41 88 64 82 48 -7 -18 -3 -22 34 -30 l25 -6 0 82 c-1 138 6 269 16 306 16
64 17 66 31 52 9 -9 13 -90 14 -301z m93 139 c0 -13 -4 -18 -12 -13 -8 5 -9 2
-5 -9 3 -9 7 -79 8 -156 1 -128 -1 -143 -20 -167 -17 -22 -22 -24 -27 -10 -8
21 -1 347 8 361 4 6 16 11 27 12 15 1 21 -4 21 -18z m1413 -146 c12 -15 39
-46 61 -70 l39 -43 -708 0 c-802 0 -725 -11 -631 88 l50 52 583 0 583 0 23
-27z m-1885 -94 c2 -35 7 -78 13 -95 17 -56 -13 -134 -53 -134 -20 0 -21 3
-14 98 8 113 26 204 41 199 5 -2 11 -33 13 -68z m2428 -31 c7 -5 26 -11 44
-13 56 -7 130 -38 130 -54 4 -116 -3 -545 -8 -565 -7 -27 -8 -27 -28 -9 -15
14 -93 107 -157 188 -4 6 -16 21 -27 34 -19 22 -20 39 -20 233 l0 208 28 -6
c15 -4 32 -11 38 -16z m-480 -26 c61 -7 62 -7 119 -77 l57 -70 -53 -5 c-46 -4
-1369 -6 -1578 -1 l-73 1 17 28 c10 15 38 50 62 78 l43 51 673 1 c369 1 700
-2 733 -6z m1283 -142 c22 -11 37 -48 47 -115 4 -27 9 -57 11 -65 2 -8 6 -81
10 -162 l6 -148 -29 0 c-16 1 -51 7 -79 14 -27 7 -51 10 -53 5 -2 -5 -10 -9
-18 -9 -15 0 -16 13 -14 155 2 192 20 284 63 317 26 20 32 21 56 8z m-3824 -8
c15 -11 36 -62 30 -73 -4 -5 -1 -9 4 -9 8 0 11 -67 11 -204 l0 -204 -25 -4
c-14 -3 -25 -1 -25 4 0 4 -10 2 -23 -7 -13 -8 -26 -12 -29 -9 -4 3 -9 -4 -13
-15 -4 -13 -1 -27 9 -36 19 -20 28 -19 60 6 14 11 30 17 36 14 12 -7 14 -296
3 -293 -19 4 -61 -22 -66 -41 -3 -12 -11 -21 -17 -21 -7 0 -10 7 -6 15 9 25
-1 17 -23 -19 -12 -18 -31 -36 -42 -39 l-21 -6 5 377 c4 338 7 385 25 450 11
40 27 84 36 97 16 24 50 33 71 17z m2790 -96 c50 -55 75 -88 75 -98 0 -4 -447
-8 -994 -8 -547 0 -1003 -3 -1013 -7 -20 -8 11 38 81 117 l39 45 886 -2 886
-2 40 -45z m-2281 -425 c5 -8 5 -16 0 -20 -5 -3 -25 -26 -44 -51 -81 -105
-225 -286 -236 -295 -7 -5 -23 -26 -36 -45 -13 -19 -41 -59 -63 -88 l-40 -53
-3 283 c-1 156 0 293 3 305 4 15 17 25 44 33 21 5 49 19 62 31 14 12 31 18 43
15 11 -3 26 0 33 6 7 6 13 7 13 3 0 -5 8 1 18 12 9 11 30 28 45 38 15 10 26
20 23 22 -4 4 12 23 65 78 10 12 19 28 19 36 0 8 8 25 18 37 16 20 17 15 22
-156 3 -97 9 -183 14 -191z m2416 272 c4 -5 55 -68 114 -142 81 -100 105 -136
94 -142 -14 -9 -2558 -13 -2558 -4 0 4 33 43 73 88 39 45 95 111 124 147 l52
65 1048 -2 c576 -2 1050 -6 1053 -10z m880 -265 c107 -17 100 0 100 -228 l0
-198 -30 14 c-16 9 -30 20 -30 25 0 5 -5 9 -11 9 -6 0 -37 21 -70 46 -66 53
-61 33 -61 224 0 137 0 133 20 125 9 -4 46 -11 82 -17z m-579 -101 c103 -121
199 -246 199 -259 0 -4 -705 -8 -1566 -8 -1249 0 -1564 2 -1558 12 10 16 178
233 210 271 l23 27 1298 1 c714 0 1307 4 1318 9 11 5 21 9 21 9 1 1 26 -27 55
-62z m499 -261 c0 -19 111 -88 133 -82 10 2 17 -2 17 -10 0 -17 16 -18 24 -1
7 15 -4 -370 -11 -390 -8 -20 -19 -13 -50 34 -16 23 -53 72 -84 110 l-56 69
-1 142 c0 115 3 142 14 142 8 0 14 -6 14 -14z m-3680 -124 c0 -129 -7 -150
-77 -242 -19 -25 -50 -67 -69 -95 l-34 -50 0 209 c0 187 2 208 16 202 16 -6
111 54 127 80 4 8 15 14 22 14 12 0 15 -22 15 -118z m3499 -15 c39 -52 71 -99
71 -106 0 -6 5 -11 10 -11 6 0 10 -6 10 -14 0 -11 -123 -14 -742 -15 -409 -1
-749 -1 -755 -1 -24 0 -13 -30 13 -36 14 -4 362 -4 773 -1 l748 6 40 -47 c50
-59 139 -176 153 -202 6 -11 6 -21 1 -25 -5 -3 -92 -8 -193 -11 -101 -2 -205
-9 -233 -14 -27 -6 -84 -10 -125 -9 -41 1 -156 -4 -255 -10 -246 -14 -356 -20
-665 -31 -146 -5 -344 -14 -440 -19 -339 -20 -459 -21 -790 -6 -184 7 -418 17
-520 20 -102 3 -246 8 -320 11 -74 2 -210 5 -302 7 -93 1 -168 6 -168 11 0 5
-7 3 -15 -4 -27 -22 -17 8 15 48 16 20 67 91 112 157 l84 120 674 1 c371 1
681 2 688 2 8 1 10 7 5 16 -7 13 -106 15 -666 18 -362 1 -661 6 -663 10 -5 8
100 149 156 208 16 17 34 28 40 25 18 -11 3145 -6 3148 5 7 20 41 -12 111
-103z m374 -504 c-2 -7 1 -13 6 -13 11 0 118 -137 193 -245 l48 -70 -2292 -2
c-2172 -3 -2294 -4 -2307 -20 -7 -10 -12 -13 -10 -7 2 7 56 79 119 160 l115
149 290 -6 c398 -9 705 -18 930 -29 244 -12 762 -12 975 0 91 5 248 12 350 15
102 3 271 10 375 16 105 5 280 14 390 19 110 5 292 16 405 22 113 7 244 13
292 13 47 0 81 3 75 8 -7 4 1 7 18 5 18 -2 29 -8 28 -15z"/>
<path d="M6320 3861 c0 -5 -514 -9 -1202 -10 -661 0 -1210 -3 -1220 -7 -10 -3
-16 -10 -12 -15 3 -6 470 -9 1246 -9 l1240 1 -23 25 c-25 26 -29 29 -29 15z"/>
<path d="M7731 5091 c-18 -17 -37 -29 -41 -26 -4 3 -11 -2 -14 -10 -4 -13 -10
-14 -26 -5 -15 8 -27 7 -47 -4 -51 -28 -62 -41 -56 -64 4 -17 1 -22 -13 -23
-11 -1 -28 -3 -39 -5 -11 -1 -91 -8 -178 -15 -136 -11 -160 -10 -168 2 -5 8
-9 9 -9 4 0 -7 -26 -9 -71 -7 -52 3 -74 1 -80 -9 -4 -7 -11 -10 -15 -6 -4 3
-2 13 5 21 19 23 -21 26 -108 6 -44 -10 -82 -15 -85 -13 -3 3 -11 1 -18 -3 -7
-5 -68 -8 -135 -9 -120 0 -147 -5 -126 -26 10 -10 43 -11 551 -6 140 1 256 -1
258 -5 3 -4 10 -5 17 -2 7 2 46 6 87 8 98 4 147 26 166 72 12 28 20 35 35 31
10 -3 22 -1 25 5 3 5 19 6 35 3 21 -5 29 -3 29 7 0 24 59 60 103 62 42 3 86
-10 99 -29 4 -5 8 -7 8 -3 0 4 11 -4 25 -17 27 -28 38 -30 57 -12 7 7 15 14
18 14 16 1 50 15 50 22 0 7 27 12 78 12 26 0 32 4 28 15 -3 9 -6 19 -6 22 0 4
-22 7 -49 7 -27 0 -47 -3 -45 -6 2 -4 -13 -9 -32 -12 -20 -4 -44 -13 -54 -22
-17 -15 -19 -15 -37 3 -29 31 -59 42 -126 48 -59 5 -64 4 -96 -25z"/>
<path d="M5915 5046 c-32 -37 -68 -135 -79 -214 -6 -41 -5 -43 16 -40 19 2 24
11 31 57 4 29 16 74 27 99 l21 46 15 -29 c12 -23 15 -69 13 -238 -1 -146 2
-212 10 -220 14 -14 31 6 31 36 0 21 42 24 62 3 8 -7 24 -17 36 -20 18 -6 22
-4 22 17 0 31 -36 63 -82 71 -21 4 -39 12 -39 19 -1 7 -3 84 -4 172 -1 110 -6
172 -16 199 -15 41 -47 62 -64 42z"/>
<path d="M8325 4060 c-47 -22 -75 -43 -75 -56 0 -5 -9 -15 -20 -22 -11 -7 -20
-21 -20 -32 0 -33 -43 -53 -92 -44 -24 4 -55 6 -70 5 -14 -1 -49 9 -77 23 -77
40 -103 35 -196 -34 -44 -33 -85 -60 -91 -60 -15 0 -26 -28 -14 -35 18 -11 66
9 120 49 30 23 57 44 60 48 3 3 17 9 31 13 19 5 40 -2 79 -25 47 -28 66 -33
146 -37 83 -5 91 -8 87 -24 -5 -19 -10 -20 -77 -23 -19 0 -33 -3 -30 -5 2 -2
-3 -9 -11 -15 -12 -10 -12 -14 0 -30 13 -17 20 -18 48 -9 67 20 137 -4 137
-47 0 -9 6 -17 13 -18 6 -1 29 -5 50 -8 42 -7 94 10 118 39 13 17 18 18 40 6
33 -18 51 -20 68 -6 11 10 13 8 7 -11 -7 -20 -5 -21 18 -12 14 5 62 8 106 7
85 -3 124 6 118 25 -2 6 8 25 24 41 33 37 42 71 28 116 -7 26 -7 37 3 44 8 6
7 7 -5 3 -11 -3 -21 2 -28 13 -22 42 -160 78 -212 56 -11 -4 -32 4 -64 27 -25
18 -56 39 -68 45 -31 19 -105 15 -151 -7z m142 -33 c12 -6 42 -29 66 -50 l45
-38 57 16 56 17 49 -34 c55 -37 73 -65 58 -91 -5 -10 -6 -22 -3 -28 8 -12 -23
-49 -41 -49 -7 0 -14 -4 -16 -10 -4 -12 -37 -14 -95 -7 -24 3 -43 2 -43 -2 0
-17 -50 -2 -83 25 -32 25 -84 43 -72 24 5 -8 -31 -40 -45 -40 -6 0 -9 -6 -7
-12 1 -9 -11 -12 -41 -11 -44 2 -76 18 -67 34 3 4 -5 13 -17 20 -13 7 -28 19
-34 27 -6 9 -16 12 -24 7 -18 -11 -1 37 18 51 8 6 17 22 19 35 5 30 44 89 61
89 6 0 12 5 12 10 0 27 108 40 147 17z"/>
<path d="M7550 3492 l-45 -41 38 4 c23 2 49 13 63 26 24 22 27 22 87 10 34 -7
64 -16 67 -20 3 -5 12 -8 20 -9 85 -3 188 -12 201 -17 10 -3 20 -2 23 4 4 5
31 17 61 26 55 15 56 15 98 -9 52 -31 127 -45 127 -25 0 8 -4 19 -8 24 -8 12
-71 35 -95 35 -9 0 -17 4 -17 9 0 15 -149 8 -155 -7 -3 -7 -9 -11 -14 -8 -5 3
-51 8 -102 11 -52 3 -107 8 -124 11 -16 3 -64 8 -105 11 l-75 5 -45 -40z"/>
<path d="M2047 3383 c-62 -7 -107 -82 -126 -208 -5 -33 -9 -49 -10 -35 -2 37
-50 37 -121 -1 -68 -36 -94 -74 -66 -94 17 -13 50 -10 42 4 -6 9 15 34 45 53
18 11 30 13 42 6 10 -5 21 -7 26 -3 5 3 12 1 16 -5 4 -6 11 -8 16 -5 5 4 9
-31 9 -85 0 -61 -3 -89 -10 -85 -6 4 -16 2 -23 -3 -7 -6 -32 -12 -57 -14 -44
-4 -168 -59 -182 -82 -6 -8 -8 -8 -8 2 0 19 -24 14 -47 -10 -12 -13 -33 -33
-48 -45 -34 -29 -25 -43 27 -43 48 0 106 25 133 58 16 19 26 22 48 17 15 -4
27 -13 27 -20 0 -24 28 -24 44 0 19 28 21 49 4 39 -7 -4 -8 -3 -4 5 4 6 11 9
16 6 5 -3 11 -1 15 5 8 12 122 13 129 1 3 -5 15 -7 26 -4 11 3 20 0 20 -6 0
-5 -7 -8 -16 -4 -12 4 -15 2 -12 -8 7 -21 72 -19 76 3 5 25 -29 60 -45 46 -15
-12 -28 -5 -19 10 9 16 94 25 206 23 79 -1 101 1 90 10 -13 9 -12 10 3 5 10
-3 20 -6 23 -6 2 0 0 -7 -3 -17 -5 -12 -3 -14 8 -7 17 10 89 12 89 2 0 -5 -5
-8 -11 -8 -6 0 -40 -19 -75 -42 -48 -31 -64 -48 -62 -62 5 -30 21 -29 58 4 18
16 37 30 40 30 4 0 19 11 34 23 23 20 37 24 87 22 38 -1 65 -8 77 -18 19 -17
92 -51 98 -45 8 8 -39 88 -52 89 -31 3 -87 27 -96 42 -6 9 -8 8 -8 -2 0 -11
-3 -11 -16 0 -9 7 -25 14 -37 16 -32 6 -79 11 -101 12 -17 1 -18 8 -14 104 6
116 12 137 40 137 10 0 17 -4 13 -9 -3 -5 0 -13 6 -17 8 -4 9 -3 5 4 -10 16
17 15 32 0 7 -7 12 -22 12 -35 0 -19 3 -21 23 -14 33 13 26 57 -15 93 -27 23
-40 27 -68 23 -19 -2 -46 -13 -60 -23 -23 -18 -25 -26 -30 -130 -3 -61 -8
-114 -12 -118 -4 -3 -32 -7 -62 -8 l-55 -1 -5 188 c-5 178 -6 188 -28 211 -27
28 -48 34 -101 29z m69 -60 c14 -23 19 -55 22 -165 3 -75 2 -152 -2 -171 -6
-33 -8 -34 -64 -40 -31 -4 -69 -10 -84 -13 l-28 -6 0 115 c0 151 27 260 72
291 34 24 63 20 84 -11z"/>
<path d="M8149 3138 c-20 -27 -23 -49 -30 -177 -4 -80 -3 -153 1 -161 6 -11
-1 -17 -33 -25 -23 -6 -52 -15 -64 -19 -22 -7 -23 -5 -23 40 0 75 -28 161 -62
189 -36 30 -51 31 -77 4 -26 -28 -32 -62 -40 -219 l-6 -134 -49 -19 c-67 -24
-111 -56 -97 -70 8 -8 30 -3 76 16 36 15 78 27 93 27 31 -1 70 -20 71 -35 0
-5 28 -12 62 -13 45 -3 65 0 78 12 10 9 21 13 24 9 4 -3 7 1 7 11 0 9 5 14 10
11 6 -3 10 -2 10 3 0 12 -24 22 -50 22 -10 0 -27 8 -39 18 -17 14 -20 23 -15
50 5 22 12 32 25 32 11 0 19 5 19 10 0 7 33 10 92 8 l92 -3 11 -43 c10 -45 53
-92 81 -92 9 0 31 16 50 35 l34 35 51 -37 c40 -28 63 -37 103 -40 32 -2 57 1
67 9 18 15 38 105 21 94 -6 -3 -13 -2 -17 4 -4 7 -13 6 -27 -1 -17 -9 -40 -9
-115 3 -7 1 -9 6 -6 11 3 5 5 55 5 110 -1 88 -4 104 -28 144 -42 72 -66 43
-85 -106 l-12 -93 -30 6 c-16 3 -34 6 -39 6 -6 0 -7 8 -3 18 3 9 8 77 11 149
4 120 2 138 -17 183 -21 49 -22 50 -65 50 -36 0 -46 -5 -65 -32z m91 -47 c10
-20 14 -278 5 -303 -4 -9 -18 -12 -45 -10 l-40 4 3 148 c2 154 9 180 48 180
10 0 23 -9 29 -19z m-322 -154 c14 -17 42 -132 42 -174 0 -24 -5 -33 -16 -33
-9 0 -24 -10 -34 -22 -28 -35 -40 -13 -45 83 -6 125 17 189 53 146z"/>
<path d="M1985 2501 c-29 -12 -94 -86 -111 -126 -22 -53 -18 -120 8 -145 30
-28 110 -28 138 0 11 11 25 20 30 20 6 0 10 4 10 9 0 15 37 4 66 -18 14 -11
41 -25 60 -31 37 -13 40 -20 22 -50 -16 -25 -5 -35 21 -20 14 7 21 21 21 40 0
28 3 30 36 30 72 0 124 55 124 130 0 46 -25 109 -47 117 -7 3 -10 10 -6 16 4
6 0 8 -10 4 -10 -3 -17 -2 -17 3 0 6 -9 10 -21 10 -11 0 -17 4 -14 10 8 12
-52 6 -122 -13 -29 -8 -56 -11 -60 -7 -7 6 -96 31 -105 29 -2 0 -12 -4 -23 -8z
m121 -61 c12 -11 48 -7 110 11 36 11 46 10 80 -8 47 -24 80 -78 71 -115 -13
-50 -41 -72 -93 -74 -27 0 -59 6 -71 13 -12 8 -28 16 -35 17 -7 1 -27 9 -44
18 -35 19 -75 10 -131 -29 -36 -26 -56 -29 -72 -9 -13 15 -12 78 1 70 4 -3 9
3 9 13 1 15 2 15 6 2 3 -13 9 -11 33 13 17 16 30 31 30 33 0 2 -15 -1 -32 -6
-18 -5 -34 -9 -36 -9 -9 0 42 55 61 66 24 14 93 10 113 -6z"/>
<path d="M4598 1952 c-16 -2 -28 -9 -28 -18 0 -9 10 -14 28 -14 75 0 499 -1
510 0 10 0 9 5 -3 17 -15 15 -45 17 -249 17 -127 1 -243 0 -258 -2z"/>
</g>
</svg>
