<?xml version="1.0" standalone="no"?>
<!DOCTYPE svg PUBLIC "-//W3C//DTD SVG 20010904//EN" "http://www.w3.org/TR/2001/REC-SVG-20010904/DTD/svg10.dtd">
<svg xmlns="http://www.w3.org/2000/svg" version="1.0" width="1024.000000pt" height="1024.000000pt" viewBox="0 0 1024.000000 1024.000000" preserveAspectRatio="xMidYMid meet">
<metadata>
Created by potrace 1.16, written by Peter Selinger 2001-2019
<meta name="Producer" content="Online-Convert"/></metadata>
<g transform="translate(0.000000,1024.000000) scale(0.100000,-0.100000)" fill="#000000" stroke="none">
<path d="M4995 8904 c-175 -18 -405 -74 -558 -137 -59 -25 -107 -42 -107 -38 0 3 -4 1 -8 -5 -4 -5 -52 -34 -107 -64 -217 -115 -417 -272 -639 -498 -49 -50 -94 -88 -99 -85 -6 3 -7 1 -3 -5 6 -10 -18 -41 -159 -205 -19 -21 -34 -41 -35 -45 -1 -4 -24 -38 -53 -77 -79 -107 -226 -328 -317 -476 -46 -74 -90 -145 -99 -159 -9 -14 -22 -36 -29 -50 -7 -14 -18 -34 -25 -45 -44 -72 -246 -464 -271 -524 -7 -20 -29 -70 -48 -111 -70 -150 -98 -218 -161 -390 -35 -96 -71 -195 -79 -220 -10 -28 -21 -44 -29 -42 -10 3 -11 0 -3 -8 11 -11 -4 -73 -47 -205 -6 -16 -13 -43 -15 -60 -3 -16 -10 -48 -16 -70 -6 -22 -13 -46 -14 -54 -1 -8 -9 -46 -18 -85 -8 -39 -18 -89 -22 -111 -4 -22 -8 -44 -9 -50 -1 -5 -3 -18 -3 -28 -1 -12 -6 -15 -14 -11 -10 6 -10 5 -1 -7 10 -12 10 -35 2 -100 -14 -105 -19 -510 -9 -604 17 -144 20 -167 24 -174 3 -4 7 -25 10 -46 13 -93 77 -300 130 -419 14 -32 24 -62 21 -66 -3 -5 -1 -10 4 -12 16 -6 72 -130 66 -146 -3 -9 -3 -13 1 -10 13 14 108 -147 97 -166 -3 -6 -3 -8 2 -4 12 11 68 -69 59 -84 -4 -7 -4 -10 1 -6 11 10 87 -93 81 -109 -3 -7 1 -10 10 -6 7 3 14 1 14 -4 0 -9 59 -81 121 -149 22 -25 25 -39 6 -28 -7 4 -9 3 -4 -2 5 -5 12 -9 17 -9 5 0 56 -45 114 -100 58 -55 128 -118 156 -140 107 -84 119 -96 115 -115 -3 -17 -1 -18 16 -7 14 9 22 9 27 1 4 -6 12 -13 17 -15 6 -2 55 -34 110 -70 55 -36 127 -81 160 -99 33 -19 62 -37 63 -42 2 -4 11 -8 19 -8 13 0 14 -2 2 -17 -12 -16 -12 -17 2 -6 13 11 34 3 125 -41 60 -30 127 -62 149 -71 22 -10 63 -27 90 -40 69 -31 168 -69 245 -95 36 -12 72 -24 80 -27 8 -3 20 -7 25 -8 18 -5 199 -55 240 -67 22 -6 47 -12 55 -13 8 -2 92 -16 185 -33 201 -36 336 -47 540 -45 156 1 207 4 420 28 35 4 78 12 103 19 9 2 39 7 66 11 27 3 56 10 65 14 9 5 43 14 75 21 33 7 113 30 178 52 66 22 125 37 133 34 8 -3 14 -1 12 5 -1 6 34 25 78 43 198 81 476 235 600 334 202 159 251 204 413 377 120 128 270 330 324 435 7 14 15 27 19 30 6 5 143 285 159 325 27 67 105 331 115 390 2 11 13 79 25 150 24 136 40 381 34 500 -1 39 -6 138 -10 220 -10 198 -10 195 -17 235 -4 19 -18 106 -32 192 -14 87 -36 206 -50 265 -14 60 -35 146 -46 193 -36 150 -199 694 -229 765 -5 11 -48 137 -96 280 -48 143 -95 278 -105 300 -14 31 -15 43 -6 54 9 11 9 13 0 8 -8 -5 -22 19 -42 73 -17 43 -31 82 -31 85 0 3 -9 25 -19 48 -11 23 -33 76 -49 117 -31 77 -114 259 -135 295 -6 11 -21 38 -32 60 -55 104 -189 296 -268 382 -23 25 -36 47 -31 54 4 7 3 9 -3 6 -13 -8 -86 67 -76 78 5 4 2 5 -4 1 -8 -4 -32 10 -60 36 -74 67 -154 132 -200 163 -24 15 -41 31 -38 35 3 4 -1 7 -8 6 -14 -1 -189 93 -199 108 -4 6 -8 8 -8 4 0 -4 -46 15 -103 41 -56 26 -119 54 -140 60 -20 7 -37 17 -37 22 0 6 -5 7 -10 4 -6 -3 -47 5 -93 18 -213 63 -373 87 -612 92 -104 1 -208 1 -230 -1z m535 -133 c63 -12 116 -21 117 -21 1 0 -3 -15 -8 -32 -6 -18 -12 -44 -15 -58 -32 -173 -201 -816 -284 -1080 -162 -516 -165 -531 -165 -780 1 -198 2 -208 29 -290 15 -47 29 -95 29 -107 1 -11 5 -19 8 -17 3 2 18 -19 33 -46 22 -41 25 -53 16 -72 -10 -21 -10 -21 3 -5 14 16 16 15 40 -25 41 -72 69 -130 58 -124 -5 4 -12 2 -15 -3 -3 -5 2 -11 12 -13 47 -13 89 -298 63 -428 -6 -30 -13 -69 -16 -86 -7 -46 -55 -207 -65 -219 -5 -6 -11 -23 -14 -38 -5 -27 -62 -182 -74 -202 -4 -5 -8 -19 -9 -29 -6 -34 -3 -36 -86 36 -47 40 -175 115 -237 139 -30 12 -111 39 -180 61 -69 21 -152 51 -185 66 -170 74 -284 183 -365 346 -27 55 -51 110 -53 121 -1 11 -5 25 -8 30 -8 13 -47 143 -52 175 -3 14 -15 53 -27 88 -12 34 -19 70 -16 78 3 8 2 12 -4 9 -5 -3 -24 28 -43 68 -19 41 -46 91 -60 112 -14 21 -24 42 -21 47 3 5 2 8 -3 7 -4 -2 -35 24 -68 57 -63 62 -137 115 -220 155 -162 80 -194 98 -249 138 -80 57 -137 112 -129 124 3 6 1 7 -5 4 -22 -14 -222 245 -222 287 0 43 207 364 230 358 6 -1 8 3 4 9 -3 6 -3 14 2 18 5 3 31 38 58 78 26 39 64 88 82 109 19 20 34 39 34 43 0 9 109 132 200 226 196 204 487 433 533 420 16 -5 18 -4 8 3 -10 7 15 25 95 68 173 93 419 178 579 200 28 3 70 10 95 15 85 15 445 2 570 -20z m333 -76 c43 -13 84 -28 90 -33 7 -5 26 -12 42 -16 17 -4 86 -35 155 -68 105 -50 122 -62 105 -69 -18 -8 -17 -9 4 -5 18 4 48 -11 110 -51 112 -73 162 -113 156 -124 -4 -5 0 -6 8 -3 21 8 39 -21 34 -55 -3 -17 -1 -31 4 -31 8 0 13 15 10 33 -2 13 16 7 30 -10 12 -15 12 -16 -1 -8 -9 5 -12 4 -7 -1 5 -5 16 -9 24 -9 9 0 50 -38 91 -85 41 -47 87 -98 101 -115 62 -70 168 -235 242 -381 66 -128 79 -161 75 -187 -4 -18 -3 -25 2 -15 6 15 9 12 21 -15 7 -17 24 -55 37 -84 13 -28 24 -56 24 -61 0 -5 7 -23 16 -41 9 -17 17 -37 18 -44 1 -7 9 -28 18 -48 9 -20 19 -47 23 -60 6 -21 30 -87 55 -154 58 -150 151 -425 266 -784 69 -217 91 -298 83 -307 -6 -8 -9 -19 -6 -26 3 -8 6 -6 6 5 3 60 37 -49 95 -308 22 -96 28 -126 40 -195 2 -8 8 -40 14 -70 6 -30 14 -73 17 -95 3 -22 12 -83 21 -135 21 -137 30 -565 14 -731 -11 -125 -43 -330 -54 -348 -3 -4 -8 -23 -11 -42 -29 -167 -196 -581 -227 -563 -7 4 -10 4 -6 -1 12 -12 -16 -68 -95 -187 -86 -131 -205 -284 -218 -281 -5 2 -9 -3 -9 -11 0 -8 -50 -65 -112 -128 -110 -111 -112 -112 -115 -83 -15 127 -76 322 -143 457 -118 235 -234 356 -432 447 -92 43 -156 60 -360 96 -75 13 -163 31 -195 40 -70 20 -211 87 -241 115 -11 11 -25 20 -31 20 -14 0 -131 131 -131 146 0 8 -4 14 -9 14 -4 0 -19 24 -32 53 -22 50 -23 63 -25 337 -1 222 -5 297 -17 337 -12 39 -12 54 -4 63 9 9 9 11 -2 8 -8 -2 -17 10 -23 27 -5 17 -21 55 -35 87 -16 35 -23 63 -19 75 4 10 7 18 6 18 -1 0 4 14 10 30 7 17 13 37 15 45 2 8 11 35 20 60 134 363 150 434 150 655 -1 177 -10 233 -57 350 -20 51 -26 62 -59 122 -11 19 -16 39 -13 45 4 6 2 8 -4 4 -16 -10 -79 104 -115 209 -29 86 -31 97 -31 255 -1 102 4 188 12 225 28 126 55 231 67 260 7 17 22 66 34 110 12 44 44 150 70 235 27 85 67 223 90 305 50 182 191 750 191 768 0 16 20 37 35 37 5 0 45 -11 88 -25z m-2810 -1704 c-4 -12 -2 -13 4 -3 7 9 20 0 51 -37 42 -49 52 -69 30 -55 -7 4 -8 3 -4 -4 4 -6 12 -9 20 -6 7 3 33 -17 59 -45 25 -27 68 -64 94 -82 26 -19 50 -36 53 -39 8 -8 46 -28 163 -87 146 -72 202 -107 259 -162 51 -48 59 -64 31 -54 -10 3 -15 3 -11 -1 3 -4 14 -9 25 -10 25 -4 95 -120 126 -209 43 -124 77 -238 77 -256 0 -9 4 -21 9 -26 5 -6 19 -41 31 -80 12 -38 44 -114 70 -167 27 -53 45 -100 42 -104 -4 -4 -2 -4 4 -1 11 7 29 -19 25 -36 -1 -5 2 -6 7 -3 9 5 42 -26 57 -54 5 -9 -1 -7 -15 5 l-23 20 12 -22 c6 -13 20 -23 30 -23 10 0 47 -22 82 -48 67 -50 195 -119 236 -126 59 -11 334 -111 393 -143 173 -95 277 -214 331 -380 20 -61 22 -94 26 -325 3 -173 1 -258 -6 -263 -6 -3 -11 -12 -11 -18 0 -7 4 -6 10 3 8 12 10 11 10 -7 0 -13 -6 -23 -12 -24 -10 0 -10 -2 -1 -5 20 -9 -210 -127 -467 -241 -181 -81 -382 -124 -486 -106 -128 23 -176 41 -292 107 -202 114 -282 146 -431 172 -102 17 -208 10 -320 -23 -29 -8 -59 -16 -65 -18 -14 -2 -35 -12 -156 -65 -215 -95 -352 -130 -506 -130 -123 0 -217 22 -331 75 -99 48 -102 50 -107 92 -2 15 -10 48 -18 73 -9 25 -26 104 -39 175 -20 113 -23 162 -23 375 0 214 4 267 27 415 63 406 185 807 393 1285 68 157 356 712 405 782 11 14 19 30 19 35 0 5 5 14 12 21 9 9 23 -5 59 -60 27 -40 45 -78 42 -87z m2332 -3033 c8 -18 14 -27 15 -20 0 7 5 10 11 7 6 -4 8 -9 6 -11 -4 -4 12 -23 90 -106 15 -16 22 -32 17 -39 -4 -8 -3 -10 4 -5 6 4 34 -10 62 -30 50 -36 63 -51 34 -40 -9 3 -12 2 -9 -5 4 -5 14 -7 24 -4 10 3 32 -6 51 -20 18 -13 48 -29 67 -36 19 -6 30 -15 27 -21 -4 -7 -2 -8 4 -4 6 4 51 -5 99 -18 48 -14 161 -39 251 -56 204 -39 248 -52 347 -103 169 -86 310 -274 395 -522 26 -76 30 -107 10 -75 -8 12 -10 11 -10 -5 0 -11 5 -27 11 -35 9 -12 10 -12 5 3 -4 12 -2 17 6 15 11 -4 15 -15 23 -65 1 -11 6 -29 9 -40 3 -10 8 -47 11 -82 3 -35 8 -67 10 -71 5 -9 -143 -122 -255 -195 -208 -135 -565 -286 -805 -341 -33 -7 -91 -20 -130 -29 -191 -43 -272 -50 -590 -50 -250 0 -331 3 -420 18 -196 32 -400 78 -411 93 -7 9 -13 11 -15 5 -4 -11 -345 99 -384 123 -11 7 -33 16 -50 20 -44 10 -487 232 -515 258 -14 13 -25 21 -26 18 -2 -9 -224 139 -224 150 0 5 -5 10 -11 10 -12 0 -112 78 -192 149 -100 89 -235 233 -318 341 -78 101 -179 252 -179 267 0 6 -4 13 -8 15 -12 5 -105 181 -146 277 -30 68 -33 82 -19 76 171 -68 362 -92 513 -65 67 12 204 53 255 75 309 138 381 159 525 159 66 -1 129 -7 170 -18 80 -21 276 -117 273 -133 -2 -7 4 -10 12 -7 9 4 21 1 29 -5 31 -26 165 -84 235 -102 48 -12 111 -19 169 -19 103 0 273 30 337 59 22 11 92 40 155 66 63 25 185 82 270 125 85 43 159 79 163 79 4 1 14 -14 22 -31z"/>
</g>
</svg>
