<?xml version="1.0" standalone="no"?>
<!DOCTYPE svg PUBLIC "-//W3C//DTD SVG 20010904//EN"
 "http://www.w3.org/TR/2001/REC-SVG-20010904/DTD/svg10.dtd">
<svg version="1.0" xmlns="http://www.w3.org/2000/svg"
 width="1024.000000pt" height="1024.000000pt" viewBox="0 0 1024.000000 1024.000000"
 preserveAspectRatio="xMidYMid meet">
<metadata>
Created by potrace 1.16, written by Peter Selinger 2001-2019
</metadata>
<g transform="translate(0.000000,1024.000000) scale(0.100000,-0.100000)"
fill="#000000" stroke="none">
<path d="M5170 6297 c0 -5 -13 -7 -30 -3 -16 3 -30 2 -30 -3 0 -4 -15 -8 -33
-9 -30 -1 -90 -10 -271 -41 -32 -6 -103 -22 -158 -36 -306 -79 -445 -192 -383
-311 11 -22 12 -31 2 -43 -10 -14 -10 -14 4 -3 14 10 22 8 49 -18 38 -35 223
-128 275 -137 11 -2 67 -27 125 -56 73 -36 110 -60 120 -79 14 -26 14 -29 -11
-52 -40 -37 -147 -84 -229 -100 -8 -2 -22 -6 -30 -9 -21 -8 -266 -68 -293 -71
-12 -1 -29 -6 -37 -9 -8 -4 -28 -9 -45 -11 -16 -2 -43 -9 -59 -15 -16 -7 -35
-10 -43 -7 -7 3 -13 1 -13 -5 0 -5 -6 -9 -12 -7 -7 1 -29 -3 -48 -10 -19 -6
-46 -13 -60 -16 -14 -2 -47 -11 -75 -20 -27 -8 -95 -29 -150 -47 -254 -79
-553 -217 -633 -291 -22 -21 -22 -21 -37 -2 -8 10 -15 22 -15 27 0 10 -110
117 -146 142 -29 20 -63 34 -144 60 -93 30 -232 11 -323 -45 -27 -17 -53 -30
-58 -30 -5 0 -9 -3 -9 -7 0 -5 -18 -27 -39 -50 -21 -22 -44 -55 -51 -72 -7
-17 -17 -31 -22 -31 -6 0 -8 -7 -4 -15 6 -16 6 -16 -41 -18 -17 -1 -35 -5 -39
-9 -4 -5 -18 -8 -31 -8 -27 0 -110 -43 -133 -69 -33 -36 -42 -51 -60 -101 -17
-46 -17 -55 -4 -99 8 -27 20 -53 27 -59 42 -33 207 -44 432 -28 111 8 152 27
178 80 13 29 16 30 84 31 l71 2 -20 -36 c-11 -20 -30 -49 -42 -66 -31 -43
-146 -248 -146 -260 0 -26 26 -40 67 -36 13 1 73 83 73 100 0 6 26 54 59 108
32 54 70 118 83 142 l25 44 85 -2 c53 -1 89 2 93 9 3 5 10 8 15 5 5 -3 24 10
42 28 30 29 33 39 30 75 -5 53 4 92 22 92 8 0 16 3 18 8 15 33 262 161 441
227 55 21 104 38 110 40 7 1 19 5 27 8 21 9 138 47 180 59 19 5 51 14 70 19
19 6 44 12 55 14 11 2 72 18 135 34 63 17 116 28 119 26 2 -2 12 0 22 5 10 6
73 23 141 39 182 43 292 78 372 117 92 45 110 57 114 74 2 8 7 17 10 20 14 10
13 79 -1 107 -15 27 -76 88 -90 88 -3 0 -15 7 -25 15 -10 8 -23 16 -28 17 -5
1 -69 27 -143 57 -157 65 -256 120 -285 159 -19 26 -19 30 -6 54 8 14 18 25
23 24 4 -1 18 9 32 23 25 25 163 83 212 90 16 2 41 8 56 15 32 13 63 14 70 4
2 -5 3 -3 1 4 -2 10 77 29 201 47 248 38 239 37 251 21 10 -14 13 -13 25 2 8
9 9 14 2 10 -6 -4 -14 -3 -17 2 -4 5 5 8 18 7 20 -3 27 3 35 25 7 20 6 31 -2
37 -16 13 -97 20 -97 9z m-2385 -1281 c28 -12 36 -19 26 -25 -8 -5 -9 -11 -3
-15 6 -3 12 -1 14 6 3 9 11 8 29 -4 40 -27 94 -79 92 -89 -2 -5 3 -9 10 -9 21
0 38 -45 24 -60 -9 -10 -9 -11 1 -6 17 10 43 -53 39 -96 -2 -25 -7 -32 -20
-30 -9 2 -17 -2 -17 -7 0 -7 -70 -9 -194 -8 -107 1 -192 -1 -189 -5 2 -5 -1
-8 -7 -8 -6 0 -14 8 -17 17 -12 32 -63 80 -103 98 -22 10 -40 21 -40 24 0 4
-10 8 -22 8 -13 1 -24 7 -26 13 -2 5 -7 8 -11 6 -4 -3 -13 -1 -20 4 -21 12 31
98 84 138 73 56 127 72 225 68 50 -2 102 -10 125 -20z m-466 -280 c7 -6 23
-10 35 -11 70 -1 160 -90 136 -135 -11 -20 -38 -31 -75 -29 -11 0 -90 0 -175
0 -85 0 -164 1 -175 3 -11 3 -23 5 -27 5 -15 2 -8 67 10 101 11 19 35 43 56
53 64 33 180 41 215 13z"/>
<path d="M5600 6240 c-333 -45 -546 -115 -584 -193 -12 -27 -12 -33 6 -63 19
-33 70 -69 118 -85 14 -4 50 -17 80 -28 30 -12 65 -21 77 -21 12 0 24 -4 27
-8 2 -4 22 -9 42 -10 21 -2 41 -6 44 -10 3 -4 19 -9 35 -10 17 -1 46 -7 65
-14 19 -6 42 -13 50 -14 8 -1 37 -5 65 -9 27 -4 55 -11 61 -16 6 -5 14 -6 17
-2 4 3 13 1 20 -5 8 -7 16 -9 20 -6 3 3 32 -2 64 -11 76 -23 121 -35 158 -41
59 -11 200 -57 207 -68 4 -6 8 -8 8 -4 0 17 197 -72 212 -96 4 -6 8 -7 8 -3 0
13 108 -82 132 -116 12 -17 17 -27 10 -23 -8 5 -10 2 -6 -8 3 -9 11 -13 17 -9
7 4 8 -2 3 -18 -4 -13 -8 -31 -9 -39 -5 -29 -36 -77 -67 -101 -18 -13 -38 -30
-45 -36 -8 -7 -18 -13 -24 -13 -6 0 -11 -4 -11 -9 0 -13 -339 -183 -351 -176
-5 4 -9 2 -9 -3 0 -5 -26 -21 -57 -36 -32 -15 -76 -38 -98 -51 -21 -13 -43
-21 -49 -18 -5 3 -6 1 -2 -5 4 -6 -6 -19 -21 -29 -67 -43 -125 -135 -133 -209
-3 -29 -2 -50 2 -48 4 3 8 -3 8 -13 0 -10 7 -29 16 -41 8 -12 12 -22 9 -22 -6
0 52 -57 101 -100 67 -58 470 -230 539 -230 8 0 15 -4 15 -8 0 -15 55 -7 72
11 13 14 14 24 7 46 -5 15 -15 28 -22 28 -25 1 -255 83 -332 118 -44 20 -90
46 -102 58 -13 11 -23 17 -23 13 0 -6 -40 18 -78 49 -132 104 -118 202 41 303
51 32 154 88 171 94 3 0 53 25 113 54 86 42 111 50 122 41 12 -10 14 -9 9 4
-5 12 10 24 58 50 35 18 64 36 64 39 0 3 15 14 33 25 53 31 113 100 142 165
29 62 19 151 -22 207 -32 45 -95 103 -112 103 -6 0 -11 5 -11 10 0 6 -6 10
-14 10 -8 0 -16 3 -18 8 -4 10 -224 111 -256 118 -18 4 -224 65 -242 71 -8 4
-18 6 -22 5 -3 -1 -28 5 -55 13 -26 7 -86 21 -133 30 -47 9 -92 19 -100 22 -8
3 -31 7 -50 10 -19 2 -42 6 -50 10 -8 3 -31 7 -50 10 -19 2 -53 11 -75 19 -22
9 -41 15 -43 14 -8 -5 -82 13 -82 21 0 5 -3 8 -7 7 -36 -10 -156 34 -182 66
-12 14 -7 19 40 40 57 25 142 51 196 61 18 3 61 12 95 19 35 8 83 17 108 20
150 19 252 36 270 46 45 24 10 61 -57 59 -21 0 -99 -9 -173 -19z"/>
<path d="M6444 6032 c5 -9 -3 -11 -33 -9 -23 2 -41 0 -41 -5 0 -4 -8 -8 -17
-8 -34 0 -118 -48 -154 -86 -48 -52 -54 -80 -24 -109 12 -13 21 -25 19 -27 -1
-2 5 -4 14 -5 9 -1 64 -9 122 -18 67 -10 123 -13 155 -9 28 4 64 8 80 10 17 1
41 5 54 9 19 7 22 5 16 -6 -5 -8 -4 -11 1 -6 5 5 9 12 9 15 1 4 7 18 15 32 17
29 22 78 9 86 -5 3 -7 10 -4 15 4 5 2 9 -4 9 -6 0 -8 7 -4 15 3 9 2 15 -3 13
-5 -2 -25 9 -45 24 -39 31 -107 57 -127 51 -7 -3 -20 1 -29 9 -12 9 -15 9 -9
0z m56 -95 c14 -6 27 -11 30 -11 18 -4 51 -36 45 -45 -3 -7 -3 -10 2 -9 4 2 9
-1 11 -7 1 -5 -1 -10 -5 -11 -5 0 -15 -4 -23 -7 -15 -7 -239 -3 -275 5 -36 8
-30 37 12 54 21 9 48 17 60 18 13 0 25 6 27 13 6 14 81 15 116 0z"/>
<path d="M7275 5927 c-26 -27 -51 -60 -57 -73 -6 -13 -15 -24 -20 -24 -5 0 -7
-3 -5 -8 3 -4 -3 -24 -13 -44 -9 -20 -20 -52 -24 -72 -10 -50 -19 -51 -45 -2
-29 53 -117 116 -161 116 -18 0 -29 -4 -25 -10 3 -5 2 -10 -4 -10 -12 0 -5
-41 9 -50 5 -3 12 -17 14 -30 2 -14 5 -26 7 -27 1 -2 2 -6 3 -10 2 -5 8 -27
15 -51 7 -24 14 -56 16 -72 2 -16 7 -35 11 -42 4 -7 -2 -4 -14 6 -12 11 -22
16 -22 11 0 -4 -12 0 -26 10 -26 17 -80 14 -69 -4 3 -5 -1 -11 -7 -14 -16 -6
10 -28 65 -57 20 -11 37 -25 37 -31 0 -6 7 -9 15 -6 8 4 17 2 20 -4 4 -5 19
-8 33 -6 20 3 26 9 24 23 -3 15 -1 17 9 7 21 -21 31 -15 15 10 -8 12 -17 47
-20 77 -4 30 -9 73 -13 95 -5 36 -4 38 11 26 9 -7 13 -17 10 -22 -3 -5 -1 -9
3 -9 12 0 34 -61 26 -73 -3 -6 -1 -7 5 -3 8 5 12 -3 12 -25 0 -49 29 -107 51
-102 16 4 35 46 30 67 -1 4 4 15 11 24 11 13 11 14 -1 7 -11 -6 -13 -4 -6 11
5 10 9 33 10 49 1 17 3 33 5 38 1 4 3 12 4 17 0 6 7 15 15 19 9 6 10 10 2 16
-9 5 -9 10 0 21 6 8 9 14 5 14 -3 0 3 17 14 37 11 21 20 43 20 49 0 6 7 17 16
25 13 11 14 9 8 -17 -4 -16 -11 -34 -15 -40 -5 -6 -11 -74 -13 -152 -4 -150
-4 -152 45 -170 23 -9 27 -7 45 26 10 21 21 39 24 42 3 3 27 33 54 68 26 34
49 62 51 62 3 0 -9 -25 -24 -55 -16 -31 -32 -67 -35 -81 -4 -14 -11 -22 -15
-19 -5 3 -4 -6 2 -20 15 -31 41 -39 131 -39 46 -1 71 3 74 12 2 6 11 12 19 12
10 0 13 6 9 16 -3 9 -6 19 -6 23 0 9 -6 10 -82 12 -47 2 -55 5 -50 18 9 24 63
124 75 140 17 20 19 57 5 68 -18 14 -68 25 -68 15 0 -5 -17 -18 -37 -29 -21
-12 -62 -44 -90 -72 -29 -28 -55 -51 -57 -51 -3 0 -3 10 0 23 3 12 7 43 9 70
2 26 6 51 9 56 4 5 9 36 12 68 4 32 10 63 14 68 4 6 7 28 6 50 -1 36 -4 40
-32 46 -29 5 -37 1 -79 -44z"/>
<path d="M3663 5926 c-60 -29 -102 -83 -110 -146 -4 -30 -1 -45 12 -60 9 -10
15 -22 12 -27 -7 -11 56 -17 183 -16 138 0 200 4 200 15 0 4 6 8 13 8 18 0 59
82 47 94 -6 6 -10 16 -10 23 0 19 -64 74 -124 105 -68 37 -149 38 -223 4z
m158 -67 c21 -7 36 -16 32 -22 -4 -6 2 -8 15 -5 25 7 47 -15 38 -38 -6 -15 -4
-15 10 -3 16 13 16 12 5 -9 -7 -14 -18 -21 -27 -18 -8 3 -14 2 -14 -3 0 -8
-49 -14 -102 -13 -99 2 -139 6 -144 14 -9 14 16 68 31 68 8 0 15 5 17 12 2 6
24 14 49 18 24 4 46 8 48 9 2 0 21 -4 42 -10z"/>
<path d="M2737 5859 c-9 -6 -15 -14 -13 -18 7 -10 45 -228 52 -293 3 -29 7
-62 10 -73 4 -13 -2 -9 -14 10 -16 26 -48 56 -135 130 -30 26 -102 41 -132 27
-24 -11 -25 -15 -14 -29 8 -9 13 -19 13 -22 -1 -3 9 -24 21 -46 13 -22 31 -57
39 -77 9 -21 23 -54 31 -73 20 -47 19 -61 -1 -44 -11 9 -20 10 -32 2 -10 -5
-44 -9 -77 -8 -50 1 -63 -2 -82 -21 -23 -23 -32 -51 -13 -39 6 4 16 2 23 -3 7
-6 39 -11 72 -11 33 -1 81 -3 107 -5 26 -3 60 -1 75 3 24 6 28 13 28 42 0 19
4 40 9 48 6 10 6 12 -2 7 -7 -4 -17 6 -25 26 -12 28 -12 35 0 50 10 11 11 18
3 23 -6 3 -9 1 -8 -6 2 -6 -1 -13 -7 -15 -5 -2 -22 22 -37 54 -18 38 -20 50
-8 35 9 -12 20 -19 24 -16 3 3 9 -3 13 -13 3 -10 15 -25 25 -32 10 -7 18 -20
18 -28 0 -8 5 -14 12 -14 6 0 9 -3 5 -6 -3 -3 4 -15 15 -26 16 -16 18 -22 7
-29 -11 -7 -11 -9 2 -9 22 0 33 -29 18 -46 -10 -12 -8 -13 6 -8 12 5 16 4 11
-4 -3 -6 -2 -14 4 -17 8 -5 7 -12 -2 -23 -7 -10 -9 -14 -4 -10 4 4 19 2 33 -3
21 -8 29 -5 44 12 11 12 19 29 20 38 0 9 2 28 4 44 2 16 0 25 -6 21 -5 -3 -9
7 -8 23 1 31 -9 169 -16 217 -3 17 -7 50 -9 74 -2 23 -10 49 -17 58 -6 8 -9
17 -6 20 7 7 75 -128 83 -165 14 -66 16 -79 20 -116 3 -22 6 -80 8 -128 3 -74
6 -90 23 -102 17 -12 22 -11 38 8 10 11 20 35 22 51 5 46 13 67 24 61 5 -3 6
0 4 8 -10 24 32 134 76 200 24 36 46 64 48 62 2 -3 -1 -10 -6 -17 -10 -13 -35
-90 -38 -118 -1 -8 -5 -33 -8 -55 -4 -22 -9 -71 -13 -108 -5 -64 -3 -70 20
-92 23 -22 26 -22 31 -5 3 10 13 21 21 24 8 3 13 10 10 14 -3 5 6 19 19 32 13
13 22 27 19 31 -3 5 2 6 10 3 10 -4 16 -1 16 10 0 18 59 87 60 69 0 -6 -7 -19
-15 -27 -20 -19 -48 -113 -41 -132 4 -11 30 -14 114 -14 110 0 133 7 145 42 8
23 -11 28 -103 28 l-78 0 34 68 c45 90 49 111 23 142 -11 14 -18 19 -14 13 4
-8 -1 -13 -12 -13 -10 0 -28 -7 -39 -15 -12 -8 -24 -11 -28 -8 -3 3 -6 1 -6
-5 0 -7 -7 -12 -15 -12 -8 0 -15 -4 -15 -9 0 -6 -13 -18 -29 -27 -16 -10 -34
-27 -40 -38 -8 -17 -9 -13 -4 19 3 22 8 45 12 50 3 6 12 35 18 65 7 30 15 64
19 75 21 74 1 117 -50 108 -37 -7 -135 -108 -169 -174 -20 -38 -28 -46 -26
-29 5 50 -42 182 -87 245 -11 17 -24 37 -27 46 -6 18 -66 49 -94 49 -10 0 -26
-5 -36 -11z"/>
<path d="M4144 5710 c-25 -10 -54 -48 -54 -70 0 -21 42 -58 59 -52 8 3 11 0 8
-5 -10 -15 88 1 117 20 18 12 26 26 26 46 0 53 -90 88 -156 61z"/>
<path d="M5875 5470 c-64 -9 -92 -26 -105 -65 -14 -39 10 -73 65 -92 63 -22
155 11 162 58 5 30 -34 89 -58 89 -11 0 -17 5 -14 10 3 6 5 9 3 9 -2 -1 -26
-5 -53 -9z"/>
<path d="M7503 5198 c-2 -5 -16 -8 -31 -8 -38 0 -142 -52 -173 -87 -15 -16
-40 -50 -57 -76 l-30 -48 -16 23 c-9 12 -16 27 -16 33 0 5 -25 27 -55 48 -133
92 -343 62 -469 -67 -18 -18 -55 -84 -62 -108 -1 -5 -3 -11 -4 -15 -10 -35 14
-123 35 -123 7 0 17 -6 23 -13 8 -9 44 -12 124 -12 l114 0 -3 -34 c-3 -36 11
-69 36 -87 14 -11 150 -24 263 -26 28 0 45 -5 42 -10 -4 -6 1 -6 13 0 10 6 51
11 89 11 39 0 81 4 95 9 28 9 59 8 86 -3 10 -5 21 -9 26 -10 4 -2 8 -4 10 -5
4 -4 82 -12 132 -12 131 -2 174 15 196 75 9 25 22 37 57 52 25 10 51 18 58 18
7 0 10 6 7 13 -3 7 -1 19 3 26 12 19 13 58 2 127 -12 71 -18 81 -100 163 -58
57 -177 123 -242 134 -17 3 -38 8 -46 11 -24 8 -102 9 -107 1z m121 -94 c97
-25 246 -120 229 -147 -3 -5 -1 -7 4 -4 11 7 46 -39 46 -60 0 -7 4 -13 9 -13
13 0 9 -65 -6 -85 -15 -21 -70 -27 -101 -11 -11 5 -31 12 -44 14 -14 2 -32 7
-40 12 -14 7 -37 7 -98 -2 -7 -1 -13 -6 -13 -11 0 -5 -7 -7 -15 -3 -8 3 -15 1
-15 -5 0 -6 -4 -8 -9 -5 -5 3 -14 -1 -21 -9 -15 -18 -31 -10 -23 10 3 8 0 15
-6 15 -6 0 -11 6 -11 13 0 38 -134 147 -182 147 -27 0 -22 16 19 61 53 59 115
88 202 98 7 0 41 -6 75 -15z m-568 -78 c21 -13 38 -28 37 -34 -2 -7 2 -11 8
-9 6 1 13 -3 16 -10 2 -7 -12 -19 -32 -27 -20 -9 -49 -25 -66 -36 -16 -12 -29
-18 -29 -15 0 4 -14 -10 -32 -32 l-32 -39 -91 -1 c-49 0 -94 2 -100 5 -5 4
-14 7 -20 8 -5 0 -16 2 -23 2 -8 2 -10 12 -7 33 11 64 57 119 130 157 59 30
186 29 241 -2z m244 -147 c0 -4 6 -6 13 -4 15 6 96 -69 118 -110 19 -34 11
-70 -18 -79 -10 -3 -108 -3 -217 -1 -226 4 -239 8 -216 65 17 42 92 105 143
122 47 15 177 21 177 7z"/>
<path d="M4120 4789 c-44 -18 -60 -40 -60 -81 0 -33 5 -41 33 -58 56 -34 170
-23 204 20 20 24 15 47 -17 83 -16 19 -28 36 -26 38 9 9 -111 7 -134 -2z"/>
<path d="M8090 4773 c-33 -22 -39 -32 -32 -55 6 -26 40 -46 82 -49 62 -3 90
16 90 63 0 50 -89 76 -140 41z"/>
<path d="M6647 4528 c-10 -5 -17 -5 -17 -1 0 4 -9 -5 -20 -22 -27 -41 -25 -59
8 -75 47 -24 94 -24 120 0 12 11 22 27 22 35 0 8 6 15 13 15 13 0 -27 23 -79
45 -20 8 -36 9 -47 3z"/>
<path d="M5055 4451 c-59 -36 -96 -101 -74 -127 6 -8 8 -14 4 -14 -5 0 0 -9
10 -20 9 -10 20 -19 24 -18 3 1 19 -4 34 -10 73 -30 242 -1 269 46 16 30 16
34 -1 79 -11 27 -61 75 -61 58 0 -3 -13 1 -30 10 -41 21 -137 20 -175 -4z"/>
<path d="M3365 4451 c-32 -8 -76 -31 -86 -44 -3 -5 -6 -27 -5 -49 1 -52 33
-78 102 -83 90 -8 166 33 162 87 -1 15 -6 28 -11 28 -4 0 -6 4 -3 8 9 15 -49
50 -90 55 -22 3 -52 2 -69 -2z"/>
<path d="M7538 4360 c-30 -9 -65 -31 -67 -42 0 -5 -1 -11 -1 -15 0 -5 -5 -1
-10 7 -8 12 -10 11 -10 -7 0 -13 5 -23 10 -23 6 0 10 -6 10 -13 0 -21 62 -45
106 -41 83 8 110 25 110 68 -1 24 -9 33 -45 53 -47 24 -60 26 -103 13z"/>
</g>
</svg>
