<?xml version="1.0" standalone="no"?>
<!DOCTYPE svg PUBLIC "-//W3C//DTD SVG 20010904//EN"
 "http://www.w3.org/TR/2001/REC-SVG-20010904/DTD/svg10.dtd">
<svg version="1.0" xmlns="http://www.w3.org/2000/svg"
 width="1024.000000pt" height="1024.000000pt" viewBox="0 0 1024.000000 1024.000000"
 preserveAspectRatio="xMidYMid meet">
<metadata>
Created by potrace 1.16, written by Peter Selinger 2001-2019
</metadata>
<g transform="translate(0.000000,1024.000000) scale(0.100000,-0.100000)"
fill="#000000" stroke="none">
<path d="M2862 7258 c-8 -8 -12 -50 -12 -123 0 -106 -21 -222 -38 -211 -4 2
-7 -8 -8 -23 0 -14 -16 -67 -34 -116 -29 -77 -34 -103 -34 -180 0 -79 4 -97
27 -143 30 -58 99 -129 134 -138 l22 -6 1 -1410 c0 -776 3 -1414 6 -1419 3 -5
941 -9 2183 -9 1804 0 2180 2 2190 13 8 10 11 406 11 1415 l1 1402 37 19 c47
25 94 74 123 131 32 64 33 177 0 280 -13 41 -24 80 -26 85 -1 6 -8 24 -15 40
-45 108 -53 143 -57 265 -4 77 -10 128 -17 132 -6 4 -1017 8 -2246 8 -1726 0
-2239 -3 -2248 -12z m4438 -125 c-1 -55 -2 -57 -16 -38 -16 20 -16 20 -9 -2
l6 -23 -2175 0 -2176 0 0 60 0 60 2185 0 2185 0 0 -57z m11 -160 c7 -19 7 -29
0 -31 -6 -2 -11 -11 -11 -20 0 -14 2 -15 9 -3 10 16 23 -9 55 -109 10 -30 24
-69 31 -86 22 -51 29 -140 15 -189 -28 -100 -129 -171 -230 -162 -57 6 -71 9
-105 22 -29 11 -75 56 -69 67 3 4 -1 11 -10 14 -8 3 -18 20 -21 37 -9 46 -34
97 -50 103 -22 9 -54 -15 -61 -44 -15 -68 -28 -93 -73 -140 -32 -33 -59 -52
-82 -56 -19 -4 -46 -12 -61 -18 -31 -12 -82 -3 -73 12 4 6 11 8 16 5 5 -4 9
-1 9 4 0 15 -6 14 -33 -4 -21 -13 -27 -13 -62 5 -74 38 -118 92 -130 161 -7
39 -23 69 -36 69 -6 0 -7 5 -3 11 3 6 -8 3 -25 -5 -19 -10 -33 -27 -37 -44
-10 -39 -15 -46 -25 -31 -5 9 -7 3 -5 -15 4 -37 -51 -119 -73 -111 -9 3 -12 3
-9 -1 4 -3 2 -12 -5 -18 -39 -38 -204 -44 -267 -10 -20 11 -46 30 -58 42 -27
27 -62 91 -62 112 0 9 -6 28 -12 43 -10 21 -20 27 -46 27 -22 0 -34 -6 -38
-17 -3 -10 -8 -25 -12 -33 -3 -8 -6 -17 -7 -20 -23 -67 -75 -131 -123 -151
-57 -25 -173 -25 -223 -1 -47 22 -125 114 -133 157 -10 51 -36 78 -68 70 -21
-5 -30 -19 -48 -68 -32 -89 -63 -125 -134 -157 -51 -23 -72 -27 -126 -24 -36
2 -83 11 -105 21 -38 16 -105 69 -105 84 0 3 -8 24 -17 45 -9 22 -17 41 -18
44 -6 30 -19 50 -35 55 -29 9 -55 -10 -58 -41 -3 -36 -39 -111 -70 -146 -37
-41 -123 -74 -187 -70 -78 3 -146 38 -191 98 -31 40 -51 97 -36 102 6 2 -6 19
-26 37 l-37 35 -27 -32 c-16 -18 -28 -37 -28 -44 0 -6 -9 -31 -19 -55 -37 -82
-108 -130 -206 -135 -43 -2 -53 -1 -35 5 23 8 24 9 3 10 -12 1 -24 -3 -28 -9
-6 -10 -18 -7 -81 21 -47 21 -69 43 -58 60 4 7 3 9 -3 6 -12 -8 -42 34 -49 66
-6 35 -33 84 -48 90 -26 10 -54 -5 -62 -31 -4 -15 -8 -31 -10 -37 -2 -5 -5
-20 -8 -32 -9 -40 -56 -91 -109 -117 -39 -20 -53 -23 -59 -13 -6 9 -8 9 -8 0
0 -7 -10 -13 -22 -12 -22 0 -22 1 -3 9 14 6 15 9 5 9 -9 1 -21 -4 -27 -10 -7
-7 -23 -9 -39 -5 -22 6 -25 9 -13 17 11 8 10 10 -6 8 -41 -3 -53 2 -87 34 -49
44 -80 132 -73 200 6 51 60 222 96 301 9 22 15 45 12 52 -4 10 407 13 2186 13
l2192 1 10 -27z m-2181 -528 c0 -19 117 -135 136 -135 8 0 13 -4 10 -8 -3 -4
8 -7 23 -6 35 2 65 -16 68 -41 1 -11 5 -38 8 -61 l6 -41 -250 -1 c-227 0 -251
1 -253 16 -4 46 -7 69 -13 93 -5 18 -3 26 7 26 39 2 96 21 131 45 34 24 96 89
102 109 7 22 25 26 25 4z m-1192 -30 c34 -59 106 -107 192 -130 86 -22 223 5
291 58 8 6 32 33 51 59 l36 47 27 -35 c14 -19 38 -46 53 -61 28 -28 132 -73
169 -73 20 0 23 -5 23 -42 0 -24 3 -52 6 -63 5 -19 0 -20 -93 -20 -112 0 -102
9 -102 -98 -1 -32 -5 -67 -11 -77 -7 -12 -7 -21 0 -25 6 -4 10 -123 9 -320 0
-232 3 -318 12 -327 9 -10 65 -13 238 -12 124 1 236 -3 249 -7 15 -6 21 -5 17
1 -4 6 5 10 20 10 14 0 24 -4 20 -9 -3 -6 4 -8 17 -5 38 9 438 11 438 2 0 -4
7 -8 15 -8 8 0 15 6 15 14 0 8 5 16 12 18 8 3 11 35 9 106 -2 77 1 102 10 102
10 0 10 3 1 12 -14 14 -16 42 -3 33 5 -3 13 -1 16 5 4 6 1 9 -7 8 -19 -4 -25
502 -6 514 10 6 10 8 1 8 -7 0 -13 11 -13 25 0 28 2 28 -115 29 l-80 1 1 65
c1 46 4 64 13 62 30 -6 133 43 176 84 25 25 45 49 45 55 0 21 33 2 95 -58 36
-35 69 -62 73 -61 4 1 32 -5 62 -14 143 -41 309 17 377 132 l17 29 16 -27 c36
-59 136 -132 182 -132 9 0 19 -3 22 -8 9 -14 141 -2 208 19 67 21 121 62 133
100 16 48 24 10 21 -93 -5 -154 -12 -188 -41 -188 -33 0 -48 -22 -35 -54 9
-26 16 -29 55 -27 14 0 16 -1 5 -6 -8 -3 -27 -14 -41 -24 -14 -10 -29 -15 -33
-11 -4 4 -6 3 -5 -3 2 -5 -10 -37 -26 -70 -26 -51 -30 -72 -30 -138 0 -71 2
-81 25 -101 34 -29 54 -84 38 -105 -10 -13 -10 -14 1 -4 11 9 20 7 42 -10 28
-20 41 -45 17 -31 -7 4 -10 4 -6 -1 10 -10 75 -10 108 0 33 10 98 81 105 117
4 15 12 31 19 35 32 19 47 127 27 192 -6 19 -8 39 -4 45 3 6 3 8 -2 4 -4 -4
-22 11 -38 33 -17 23 -49 50 -71 60 l-41 19 32 0 c17 0 33 -6 35 -12 3 -7 8 6
12 30 8 54 3 62 -40 62 l-35 0 2 127 1 128 20 -25 c11 -14 23 -25 27 -26 3 0
20 -6 36 -13 17 -6 42 -16 57 -22 15 -6 48 -9 73 -7 25 2 45 0 45 -4 0 -5 -12
-8 -27 -8 -16 0 -23 -4 -17 -8 6 -4 16 -16 22 -27 11 -19 11 -19 12 5 0 20 2
22 10 10 6 -9 10 -514 10 -1358 l0 -1343 -400 1 -399 2 -6 26 c-3 15 -8 45
-10 67 -3 22 -8 56 -11 75 -4 19 -6 46 -6 60 1 14 -1 32 -5 40 -8 22 -16 88
-17 147 -1 28 -4 49 -8 47 -4 -2 -10 17 -13 43 -10 69 -14 81 -38 105 -12 11
-17 18 -10 14 7 -4 9 1 6 13 -4 17 4 20 69 30 40 7 83 16 96 22 13 5 28 6 34
3 6 -4 8 -2 5 3 -7 11 16 37 24 28 3 -2 4 11 4 30 -2 53 -61 105 -119 105 -58
0 -57 -4 -26 140 23 103 26 125 24 169 -1 23 -7 48 -14 55 -6 6 -37 11 -68 10
-63 -1 -103 -6 -97 -12 2 -3 0 -13 -6 -24 -6 -11 -13 -32 -15 -46 -5 -25 -10
-45 -33 -117 -9 -28 -9 -28 -10 -6 -1 14 -11 35 -23 48 -20 22 -28 23 -159 23
-171 0 -181 -5 -184 -98 -1 -34 2 -62 6 -62 5 0 6 -6 3 -14 -3 -7 2 -16 10
-19 9 -4 16 -12 16 -19 0 -9 -3 -8 -10 2 -9 13 -10 13 -10 -1 0 -13 -17 -16
-107 -17 -94 -1 -133 -4 -208 -18 -53 -10 -91 -66 -74 -111 18 -50 158 -83
418 -99 50 -3 81 -10 93 -21 36 -32 22 -38 -94 -39 -146 -2 -157 -4 -179 -34
-22 -31 -28 -68 -29 -190 -1 -52 -6 -138 -12 -190 -6 -52 -12 -112 -12 -132
l-1 -38 -17 23 c-17 22 -17 22 -12 0 6 -20 3 -21 -29 -13 -19 4 -41 4 -48 -1
-8 -5 -136 -9 -285 -9 l-270 0 -30 31 c-28 30 -84 65 -84 54 0 -4 -6 -3 -12 2
-15 9 -10 8 -65 18 l-42 7 0 263 -1 262 97 7 c54 3 116 9 138 11 182 25 232
36 262 63 65 56 17 130 -97 146 -64 9 -181 19 -207 19 l-21 -1 23 46 c13 26
20 49 15 52 -5 3 -11 17 -15 31 -7 28 -49 78 -68 80 -44 5 -258 7 -285 2 -18
-3 -37 -14 -43 -25 -14 -26 -18 -95 -7 -132 5 -21 4 -32 -5 -38 -8 -5 -4 -8
11 -8 12 0 22 -3 22 -8 0 -4 -51 -8 -112 -9 -117 -2 -258 -21 -258 -35 0 -4
-7 -8 -15 -8 -8 0 -17 -14 -21 -35 -4 -22 -10 -32 -17 -28 -7 4 -2 -6 11 -21
12 -16 20 -31 18 -35 -3 -4 7 -8 21 -9 14 -1 32 -7 39 -13 8 -6 14 -8 14 -5 0
4 6 4 13 -1 6 -4 21 -8 32 -10 11 -1 63 -7 115 -13 52 -6 128 -13 168 -16 41
-2 78 -6 83 -10 5 -3 9 -119 9 -265 0 -240 -1 -259 -17 -260 -26 -2 -36 -4
-56 -13 -10 -5 -20 -7 -22 -4 -2 2 -5 86 -5 186 -1 101 -5 196 -10 212 -4 15
-4 33 1 39 5 6 6 9 3 6 -4 -3 -14 4 -23 14 -27 31 -87 40 -254 38 -146 -2
-158 -1 -153 16 2 9 0 15 -5 11 -5 -3 -9 7 -10 23 -2 72 -10 131 -22 166 -8
20 -13 53 -12 72 0 19 -2 35 -5 35 -8 0 -10 10 -13 70 -1 25 -4 47 -7 50 -3 3
-11 30 -18 60 -13 61 -14 63 -30 102 -8 20 -20 28 -49 33 -21 4 -56 10 -79 14
-38 7 -41 6 -53 -21 -8 -18 -11 -45 -7 -69 4 -24 2 -39 -4 -39 -5 0 -10 -5
-10 -10 0 -6 5 -9 12 -8 12 3 63 -251 53 -261 -3 -2 -5 1 -5 8 0 7 -4 10 -9 7
-13 -9 0 -56 16 -56 8 0 11 -5 8 -10 -4 -6 -11 -7 -17 -4 -7 4 -8 2 -4 -5 4
-6 12 -9 17 -6 5 4 10 3 10 -2 1 -4 3 -17 5 -28 2 -11 6 -36 8 -55 3 -19 5
-35 6 -35 12 0 17 -175 7 -230 -3 -16 -11 -68 -17 -115 -20 -154 -32 -210 -42
-204 -6 4 -5 -2 1 -14 7 -13 7 -23 2 -27 -5 -3 -8 -17 -5 -30 l4 -25 -430 0
-430 0 0 1368 0 1368 43 -1 c75 0 171 28 208 61 13 12 15 1 15 -106 -1 -66 -4
-120 -8 -120 -5 0 -8 10 -9 23 -1 21 -1 21 -9 -3 -6 -19 -8 -21 -9 -6 -1 17
-15 15 -16 -2 -1 -4 -6 -17 -13 -29 -7 -13 -10 -34 -6 -47 5 -21 9 -23 36 -16
21 7 28 6 25 -3 -3 -7 -9 -11 -15 -10 -6 1 -29 -16 -51 -38 -58 -56 -76 -104
-74 -194 3 -83 5 -94 20 -99 8 -3 11 -10 8 -16 -3 -5 3 -10 14 -10 13 0 23
-10 30 -33 24 -72 125 -131 166 -97 8 7 15 10 15 6 0 -18 53 44 72 83 11 25
28 54 36 63 38 44 20 218 -27 269 -11 12 -18 27 -14 32 3 6 2 7 -4 4 -5 -4
-19 3 -31 13 -12 11 -31 21 -44 21 -13 1 -5 5 17 8 38 6 40 8 40 41 0 29 -4
36 -22 38 -13 2 -23 8 -23 14 0 7 -4 7 -12 0 -10 -8 -13 23 -14 149 -1 139 1
156 13 139 8 -11 11 -25 7 -32 -4 -7 -3 -8 4 -4 6 3 16 -2 22 -14 11 -20 129
-83 165 -87 62 -8 143 -5 163 6 12 6 22 10 22 7 0 -2 15 3 34 12 38 19 126 98
126 113 0 6 4 7 10 4 6 -4 7 1 3 11 -10 28 17 12 35 -21z m1048 -351 c-6 -7
-13 -10 -16 -9 -3 2 -7 -18 -8 -45 -1 -27 2 -51 7 -54 5 -4 8 -17 7 -31 -2
-13 1 -22 6 -19 5 3 12 -3 15 -15 3 -11 9 -19 13 -16 4 2 15 -2 26 -9 16 -12
16 -16 5 -30 -12 -14 -11 -16 5 -10 16 4 16 4 3 -5 -8 -5 -44 -11 -79 -12 -83
-3 -96 -16 -94 -94 1 -33 6 -71 12 -85 5 -14 7 -30 5 -37 -2 -6 5 -17 17 -23
11 -6 18 -15 15 -20 -3 -5 5 -11 17 -13 13 -2 -12 -5 -54 -6 -82 -1 -113 -16
-101 -49 13 -37 33 -42 176 -42 108 0 137 -3 131 -12 -6 -10 -5 -10 7 -1 11 9
57 12 151 12 142 -1 189 9 196 42 7 35 -27 51 -99 47 -69 -3 -84 9 -17 14 20
2 35 5 33 8 -2 3 12 16 31 30 38 28 44 39 50 94 7 52 -26 99 -81 118 -22 7
-83 13 -138 13 l-98 0 3 25 c2 15 9 24 17 22 45 -9 77 31 57 70 -8 14 -11 37
-9 51 4 19 0 27 -16 32 -12 3 -21 12 -21 20 0 7 -3 20 -6 28 -5 14 21 16 194
17 154 0 201 -2 205 -12 3 -8 6 -5 7 7 2 17 3 16 10 -5 4 -14 8 -172 9 -352
l1 -328 -445 0 c-417 0 -445 1 -446 18 -1 16 -2 16 -6 0 -14 -54 -18 17 -19
331 l-1 348 166 -1 c125 -1 164 -4 157 -12z m-1701 -123 c-11 -18 16 -23 29
-5 14 18 41 11 30 -8 -4 -6 -3 -8 2 -5 6 3 16 2 23 -2 15 -10 39 -94 37 -131
-1 -25 -2 -25 -96 -26 -131 -2 -127 -4 -120 59 7 60 21 89 52 111 25 17 53 22
43 7z m3681 -6 c-4 -10 1 -15 14 -15 11 0 20 -5 20 -11 0 -5 4 -8 9 -4 18 11
44 -107 28 -131 -4 -7 -145 -9 -217 -4 -3 0 2 5 10 10 10 7 11 10 2 10 -14 0
-10 29 15 98 16 47 37 60 92 61 25 1 32 -2 27 -14z m-1711 -223 c0 -1 -1 -20
-3 -41 -5 -48 -58 -109 -103 -118 -16 -3 -32 -10 -35 -14 -11 -18 -42 -8 -83
27 -25 22 -40 42 -37 51 3 8 2 11 -3 8 -13 -8 -24 13 -31 60 l-6 40 150 -6
c83 -3 151 -6 151 -7z m1102 -1039 c-7 -46 -22 -127 -32 -168 -4 -16 -8 -39
-10 -50 -1 -11 -3 -22 -4 -25 -2 -9 -61 -11 -61 -2 0 4 7 17 15 29 11 16 12
22 2 26 -9 3 -9 9 1 26 6 11 12 31 12 43 0 13 6 43 14 68 14 48 16 55 16 69 0
5 10 12 23 14 12 2 24 5 26 6 2 0 1 -16 -2 -36z m-2416 12 c2 -24 4 -29 13
-44 9 -14 -11 -34 -26 -25 -4 3 -8 1 -8 -4 0 -15 30 -23 31 -9 2 15 20 -62 20
-85 0 -10 4 -18 10 -18 5 0 9 -10 9 -22 -1 -35 9 -121 16 -138 6 -16 16 -82
18 -112 0 -10 4 -18 9 -18 5 0 7 -6 4 -12 -2 -7 0 -25 4 -41 7 -25 6 -27 -18
-22 -35 6 -40 13 -46 65 -5 49 -9 69 -27 148 -9 39 -9 56 -1 66 9 10 8 15 -3
19 -8 3 -16 25 -19 54 -7 60 -26 172 -33 196 -4 13 0 17 20 17 16 0 26 -6 27
-15z m829 -157 c0 -33 -12 -52 -32 -53 -3 0 -10 -4 -15 -9 -5 -5 -2 -6 7 -2 8
4 4 -2 -9 -13 -25 -22 -51 -28 -51 -11 0 6 -3 9 -7 9 -25 -4 -35 3 -30 21 3
11 1 18 -4 14 -10 -6 -29 37 -29 65 0 16 9 18 85 17 l85 -1 0 -37z m1230 32
c0 -4 16 -4 37 -2 32 4 35 3 28 -14 -4 -11 -8 -26 -8 -34 0 -23 -54 -70 -81
-70 -33 0 -76 53 -76 93 0 32 1 32 50 32 28 0 50 -2 50 -5z m-1362 -215 c119
-2 219 -4 222 -5 3 -1 -4 -5 -15 -10 -18 -8 -17 -9 8 -9 16 -1 26 3 23 8 -3 5
1 12 10 15 28 11 188 6 239 -7 47 -13 49 -14 27 -26 -25 -13 -55 -18 -152 -26
-36 -3 -94 -8 -130 -12 -82 -9 -214 -9 -305 0 -38 4 -101 9 -140 12 -62 5
-183 29 -192 39 -5 4 45 14 112 22 27 3 52 7 54 10 2 2 8 1 13 -2 5 -3 106 -7
226 -9z m1232 -12 c0 -14 2 -15 9 -4 7 11 56 14 242 15 328 3 422 -16 249 -49
-57 -11 -253 -28 -330 -29 -40 0 -259 12 -335 19 -59 5 -160 26 -169 35 -5 5
8 11 30 15 22 4 44 8 49 10 6 2 65 4 133 4 110 1 122 -1 122 -16z m-1785 -283
c4 -6 12 -10 18 -10 7 0 6 4 -3 10 -10 7 23 10 102 10 67 0 119 -4 123 -10 3
-5 11 -10 16 -10 6 0 7 5 4 11 -5 7 5 9 26 7 26 -2 34 -8 34 -23 0 -19 -7 -20
-192 -20 -106 1 -195 4 -199 8 -4 3 -4 12 -1 19 5 15 64 21 72 8z m-87 -153
c1 -39 12 -48 12 -10 0 18 6 33 15 37 12 4 13 2 6 -13 -6 -10 -10 -31 -10 -47
0 -34 -8 -110 -15 -140 -3 -11 -8 -45 -12 -75 -4 -30 -8 -61 -10 -69 -1 -8 -3
-18 -3 -22 -2 -13 -31 -9 -32 5 0 10 -2 10 -6 0 -2 -7 -8 -13 -13 -13 -11 0
-4 69 10 85 8 9 8 15 0 20 -6 3 -8 10 -5 15 2 4 8 25 11 46 3 22 8 46 9 54 2
8 6 47 10 86 5 46 11 71 20 71 7 0 12 -13 13 -30z m1971 -233 c-12 -15 -34
-20 -25 -6 3 5 -1 9 -9 9 -8 0 -13 -3 -10 -6 3 -2 -25 -19 -62 -36 -38 -17
-75 -39 -84 -48 -9 -9 -29 -19 -44 -23 -26 -6 -27 -5 -21 22 3 16 8 72 11 124
3 52 8 123 11 158 l6 63 110 -2 c60 -1 112 2 116 6 13 12 14 -246 1 -261z
m205 228 c7 -15 12 -34 11 -43 -2 -9 2 -38 7 -65 6 -27 11 -65 13 -85 2 -20 6
-46 9 -57 6 -19 5 -20 -18 -9 -16 8 -21 14 -13 19 9 6 9 8 0 8 -6 0 -15 -5
-18 -10 -4 -7 -12 -7 -25 0 -10 5 -35 10 -55 10 -30 0 -36 3 -31 16 3 9 6 68
6 132 l0 117 50 -3 c43 -3 53 -8 64 -30z m135 16 c5 -13 11 -60 15 -105 3 -45
9 -89 12 -98 4 -10 1 -21 -7 -26 -11 -7 -11 -9 4 -9 14 0 17 -9 17 -44 0 -25
5 -48 10 -51 19 -12 10 -22 -20 -21 -16 1 -30 3 -31 6 0 3 -3 14 -5 25 -3 11
-6 29 -8 40 -2 11 -5 20 -6 20 -2 0 -4 18 -5 40 -2 22 -6 51 -10 65 -13 53
-15 133 -2 149 11 14 10 14 -5 2 -16 -12 -18 -11 -18 2 0 13 13 21 43 26 4 0
11 -9 16 -21z m-1831 -159 c-3 -154 -5 -172 -22 -184 -13 -10 -24 -11 -37 -4
-13 7 -19 6 -19 -1 0 -7 -56 -10 -173 -10 l-173 2 12 76 c6 42 14 84 17 92 3
8 9 44 12 80 6 67 11 113 14 118 0 1 85 2 187 2 l185 0 -3 -171z"/>
<path d="M3581 5435 c0 -396 -1 -917 -1 -1158 l0 -438 -217 2 c-120 0 -222 5
-228 9 -6 5 -11 -5 -12 -26 -3 -28 1 -34 20 -38 41 -9 702 -16 714 -8 7 5 14
21 16 38 l4 29 -108 -3 -109 -4 0 1120 0 1120 392 -3 c216 -2 407 -1 424 2 39
6 58 34 40 58 -12 16 -49 18 -473 19 l-461 1 -1 -720z"/>
<path d="M5782 6150 c-33 -4 -45 -11 -56 -32 -14 -26 -13 -27 17 -37 19 -5
202 -8 435 -7 l402 2 0 -36 c0 -20 -6 -42 -12 -49 -10 -11 -10 -12 -1 -7 10 5
12 -224 13 -1063 l0 -1070 -21 -6 c-12 -4 -45 -4 -74 0 -48 6 -53 4 -58 -16
-9 -33 10 -72 31 -64 9 4 152 8 317 9 317 1 311 0 327 47 4 10 0 15 -11 15 -9
0 -112 1 -229 2 l-212 2 0 1151 c1 633 -2 1154 -5 1158 -8 7 -800 8 -863 1z"/>
<path d="M6375 5864 c-17 -8 -50 -38 -73 -65 -24 -27 -48 -46 -54 -43 -6 4 -9
3 -5 -2 3 -5 -33 -49 -79 -98 -79 -84 -101 -124 -71 -128 41 -5 66 -4 62 2 -2
4 37 48 88 98 109 108 197 202 197 212 0 4 -8 14 -18 23 -16 15 -21 15 -47 1z"/>
<path d="M6372 5605 c-23 -19 -32 -22 -42 -12 -12 10 -12 9 -2 -4 11 -15 -4
-33 -105 -135 -144 -145 -155 -160 -140 -185 7 -11 19 -19 27 -19 19 0 308
287 328 325 10 21 11 30 1 41 -16 20 -33 18 -67 -11z"/>
<path d="M3280 5416 c0 -8 -9 -18 -20 -21 -16 -5 -20 -15 -20 -53 0 -44 -2
-48 -27 -50 -15 -1 -37 -9 -50 -17 -13 -9 -28 -13 -33 -10 -6 3 -10 -1 -10 -9
0 -9 6 -13 14 -10 8 3 16 -3 19 -15 5 -19 34 -28 70 -22 4 0 7 -2 8 -6 0 -5 3
-19 5 -33 2 -14 5 -30 6 -37 5 -37 65 -17 74 25 10 49 12 51 43 47 23 -3 31 0
31 12 0 9 6 13 14 10 12 -5 12 0 5 26 -5 18 -9 33 -9 34 0 2 -3 2 -7 2 -5 -1
-23 -1 -40 0 -31 1 -33 3 -33 36 0 21 5 35 13 35 6 0 4 5 -5 11 -10 5 -18 15
-18 20 0 6 -7 17 -15 25 -13 14 -15 14 -15 0z"/>
<path d="M6926 5388 c-9 -12 -16 -33 -16 -45 0 -13 -4 -23 -8 -23 -5 0 -28
-17 -51 -39 -33 -31 -38 -40 -26 -45 9 -3 13 -11 10 -16 -4 -6 -3 -9 2 -8 17
5 73 -12 73 -22 0 -6 -4 -9 -9 -6 -11 7 -8 -50 3 -61 4 -4 5 6 1 22 l-6 30 15
-32 c8 -18 21 -33 29 -33 20 0 55 41 59 70 2 19 10 26 32 28 74 9 68 81 -6 82
-26 0 -28 3 -28 38 0 60 -10 82 -36 82 -12 0 -30 -10 -38 -22z"/>
<path d="M4847 3830 c-11 -13 -9 -18 12 -37 25 -22 29 -22 349 -23 178 0 327
-2 331 -5 15 -8 43 21 46 48 2 20 -1 27 -13 27 -534 7 -713 4 -725 -10z"/>
</g>
</svg>
