<?xml version="1.0" standalone="no"?>
<!DOCTYPE svg PUBLIC "-//W3C//DTD SVG 20010904//EN"
 "http://www.w3.org/TR/2001/REC-SVG-20010904/DTD/svg10.dtd">
<svg version="1.0" xmlns="http://www.w3.org/2000/svg"
 width="1024.000000pt" height="1024.000000pt" viewBox="0 0 1024.000000 1024.000000"
 preserveAspectRatio="xMidYMid meet">
<metadata>
Created by potrace 1.16, written by Peter Selinger 2001-2019
</metadata>
<g transform="translate(0.000000,1024.000000) scale(0.100000,-0.100000)"
fill="#000000" stroke="none">
<path d="M2412 6539 c-39 -38 -52 -84 -48 -167 3 -57 25 -114 44 -111 4 1 30
1 57 0 36 -1 46 -4 35 -11 -8 -5 -10 -10 -4 -10 7 0 11 -42 11 -130 0 -89 4
-134 13 -145 9 -11 32 -15 81 -15 39 0 71 -5 75 -11 4 -8 9 -7 15 2 5 8 9
-417 9 -947 l0 -961 -26 5 c-16 3 -21 7 -14 12 8 5 7 9 -4 13 -10 4 -16 1 -16
-8 0 -9 -10 -15 -25 -15 -13 0 -36 -5 -50 -12 -25 -11 -25 -12 -27 -142 -1
-72 -2 -155 -1 -183 l0 -53 -177 0 -176 0 -13 37 c-27 74 -134 162 -199 163
l-22 0 2 633 c3 596 4 632 21 629 9 -2 17 1 17 5 0 5 12 10 26 11 47 4 157 64
213 116 108 102 152 204 154 355 1 94 -25 196 -64 254 -45 66 -141 147 -217
184 -65 31 -88 37 -167 41 -66 3 -106 0 -146 -11 -198 -58 -337 -217 -359
-411 -18 -153 25 -281 131 -392 61 -63 177 -134 220 -134 10 0 20 -4 23 -9 4
-5 16 -8 29 -7 l22 3 2 -634 c1 -624 1 -633 -18 -633 -24 0 -72 -23 -115 -56
-17 -13 -35 -20 -39 -16 -5 4 -5 1 -1 -6 4 -7 -2 -23 -13 -38 -11 -14 -23 -38
-26 -54 l-7 -30 -89 0 c-83 0 -89 -1 -105 -25 -12 -19 -14 -28 -5 -38 6 -8 8
-17 4 -20 -3 -4 1642 -7 3657 -7 2699 0 3666 3 3676 11 20 17 17 57 -5 69 -13
6 -204 10 -551 10 l-531 0 2 175 c4 212 4 211 -96 208 l-65 -3 0 961 0 960 75
-2 c55 -1 81 2 100 15 29 19 28 12 25 174 l-2 122 46 0 c74 0 86 19 86 139 0
84 -3 102 -21 125 -11 14 -17 27 -12 27 89 13 -497 17 -2718 18 l-2665 1 -32
-31z m5339 -74 c5 -4 9 -28 9 -56 l0 -49 -2644 0 -2645 0 4 38 c4 32 12 77 14
77 2092 0 5255 -6 5262 -10z m-3587 -207 c-3 -4 -22 -7 -42 -7 -105 4 -324 -2
-318 -8 4 -4 87 -7 184 -7 97 1 155 0 127 -2 -273 -19 -521 -39 -592 -49 -21
-3 -74 -10 -118 -16 -44 -6 -122 -17 -173 -26 -51 -8 -109 -17 -130 -19 -20
-2 -66 -10 -102 -18 -36 -8 -81 -18 -100 -21 -19 -3 -50 -8 -68 -11 l-33 -6 2
93 2 94 81 5 c140 9 1285 7 1280 -2z m3118 3 l146 -1 -1 -92 -2 -93 -30 2
c-29 1 -45 4 -135 23 -44 9 -110 21 -140 25 -8 1 -44 8 -80 14 -36 7 -87 14
-115 17 -27 3 -129 14 -225 25 -96 11 -202 22 -235 25 -33 2 -82 6 -110 9 -27
3 -88 8 -135 11 -47 3 -94 8 -105 12 -29 10 27 9 -980 11 -511 1 -922 5 -913
9 14 6 2543 8 3060 3z m348 -106 l0 -115 -50 0 -50 0 0 109 0 110 43 4 c23 2
45 4 50 5 4 1 7 -50 7 -113z m-4930 0 l0 -105 -45 0 -45 0 0 93 0 93 27 2 c14
1 29 5 32 8 3 4 -6 4 -22 2 -15 -3 -30 -1 -33 3 -3 5 15 9 40 9 l46 0 0 -105z
m2185 -3 c-25 -2 -207 -32 -225 -37 -3 -1 -16 -6 -30 -12 -14 -6 -51 -20 -82
-31 -95 -36 -250 -135 -326 -209 l-23 -23 2 140 c1 77 6 140 11 140 5 0 6 -6
2 -12 -5 -9 -2 -9 9 1 18 14 22 22 10 20 -17 -3 -33 1 -33 9 0 4 48 9 108 11
59 1 109 4 110 6 2 2 115 3 250 2 136 -1 234 -3 217 -5z m1040 -6 c22 -1 55
-3 73 -4 l32 -2 0 -142 c0 -79 -4 -138 -8 -133 -11 16 -127 102 -162 120 -18
9 -28 21 -24 27 4 7 3 8 -4 4 -6 -4 -38 7 -72 24 -52 26 -154 69 -185 77 -12
3 -170 31 -205 36 -25 3 480 -2 555 -7z m-1825 -162 c0 -121 -3 -154 -12 -148
-7 4 -25 15 -39 25 -46 32 -182 96 -249 117 -124 39 -349 58 -455 38 -22 -4
-51 -9 -65 -11 -141 -24 -383 -143 -457 -225 l-23 -25 1 108 c1 102 2 107 22
108 28 1 48 5 89 17 18 6 83 18 143 27 61 9 130 21 155 27 25 5 99 16 165 24
66 7 140 16 165 19 25 3 55 8 67 10 12 3 25 1 28 -5 3 -5 12 -10 18 -10 7 0 6
4 -3 10 -12 8 -10 10 8 10 13 0 21 -4 18 -8 -3 -5 1 -9 8 -9 8 0 12 7 8 15 -3
10 -1 13 6 8 7 -4 36 -2 65 4 45 9 203 24 305 29 l32 1 0 -156z m2150 141
c125 -9 161 -13 315 -30 77 -9 165 -18 195 -21 97 -9 121 -14 114 -26 -5 -7
-2 -8 7 -3 24 16 164 2 154 -15 -3 -5 -1 -12 5 -15 6 -4 9 -2 8 3 -2 6 0 11 5
12 16 3 117 -13 113 -19 -2 -3 6 -6 17 -7 29 -1 97 -10 178 -25 l66 -11 1 -64
c1 -42 -3 -64 -11 -64 -8 0 -8 -3 1 -12 7 -7 12 -23 12 -36 0 -20 -2 -21 -14
-10 -33 31 -71 57 -131 89 -22 12 -42 25 -45 29 -8 10 -191 86 -232 96 -5 1
-15 2 -23 3 -8 0 -15 6 -15 12 0 5 4 8 9 4 5 -3 12 -2 15 3 2 4 -4 9 -15 9
-10 1 -19 -3 -19 -9 0 -7 -26 -8 -80 -4 -112 10 -254 8 -325 -5 -33 -5 -73
-12 -90 -15 -35 -6 -213 -81 -235 -99 -8 -7 -34 -25 -58 -39 l-43 -27 2 156
c2 135 5 155 18 151 9 -3 54 -8 101 -11z m-930 -56 c80 -12 180 -36 240 -56
93 -32 149 -57 144 -64 -2 -4 0 -10 6 -14 5 -3 10 -1 10 4 0 13 54 -17 140
-77 79 -55 141 -112 134 -124 -3 -4 1 -8 9 -8 8 0 18 -7 21 -16 10 -26 7 -146
-4 -139 -5 3 -7 13 -4 23 5 13 4 14 -4 3 -12 -17 -8 -47 7 -44 8 2 11 -126 11
-467 l0 -470 -915 0 -916 0 1 400 c1 301 4 400 13 401 9 0 8 2 0 6 -10 3 -13
41 -13 141 l0 136 78 74 c91 88 137 120 242 173 148 74 353 124 526 128 49 1
90 4 92 6 5 5 102 -4 182 -16z m-3260 -121 c89 -43 121 -69 167 -136 44 -64
67 -133 66 -202 -2 -105 -22 -166 -83 -247 -80 -105 -193 -157 -325 -150 -107
6 -181 40 -255 116 -84 88 -104 135 -108 258 -3 85 -1 108 17 148 48 109 132
188 241 228 94 34 190 29 280 -15z m1570 -32 c100 -16 188 -44 275 -88 73 -37
87 -47 78 -61 -3 -6 -1 -7 5 -3 16 10 54 -12 46 -26 -4 -6 -3 -9 2 -5 5 3 17
-1 27 -8 16 -12 16 -14 2 -29 -15 -14 -15 -16 -1 -16 9 0 16 6 16 13 0 8 4 7
10 -3 11 -17 11 -120 0 -120 -4 0 -7 -7 -7 -15 0 -8 4 -12 8 -9 4 2 7 -206 7
-463 0 -258 -3 -457 -8 -443 -8 24 -8 24 -9 3 l-1 -23 -224 0 -225 0 -20 -26
c-19 -24 -21 -40 -21 -155 0 -76 4 -130 10 -134 6 -4 8 -10 5 -15 -6 -9 50
-30 75 -28 8 1 48 0 88 0 66 -2 72 -4 72 -23 0 -18 2 -19 15 -9 12 10 15 9 15
-4 0 -10 4 -15 8 -12 5 3 9 -1 9 -9 0 -8 -4 -12 -9 -9 -4 3 -8 1 -8 -5 0 -5 6
-12 13 -14 6 -3 -70 -6 -170 -6 -101 -1 -185 0 -188 2 -2 1 -11 -8 -20 -20
-21 -29 -30 -157 -16 -210 13 -48 3 -45 144 -45 l78 0 -3 -122 -3 -121 -376
-3 -376 -2 1 174 c1 206 2 203 -92 208 l-62 3 0 797 0 797 39 30 c21 17 41 27
45 24 4 -4 4 0 1 9 -5 12 11 28 58 62 36 25 67 46 70 46 4 0 22 11 41 23 55
38 211 85 306 93 47 3 87 9 90 11 5 5 125 -3 180 -11z m3215 4 c90 -10 122
-18 203 -47 31 -12 39 -19 30 -25 -9 -6 -6 -7 9 -3 16 4 47 -6 100 -35 82 -42
146 -86 108 -74 -11 4 -17 4 -13 -1 4 -4 16 -8 27 -9 11 0 43 -23 70 -49 l51
-48 0 -801 c0 -777 0 -801 -18 -785 -23 21 -39 21 -58 2 -9 -8 -26 -15 -38
-15 -13 0 -27 -9 -34 -22 -15 -29 -21 -346 -7 -352 6 -3 -159 -5 -365 -5
l-375 -1 0 125 0 125 98 0 c128 0 130 2 128 141 -2 83 -5 105 -19 116 -12 9
-67 12 -203 13 l-186 0 -1 31 c0 22 5 33 21 40 l22 10 -22 -5 c-13 -2 -23 1
-23 7 0 9 37 12 126 12 l127 0 18 35 c16 28 19 57 19 155 0 175 16 165 -263
166 -122 1 -227 1 -234 0 -10 -1 -12 120 -13 537 l0 540 34 28 c69 57 92 72
165 108 82 40 89 42 71 21 -11 -13 -10 -14 4 -9 9 3 16 12 16 18 0 14 45 29
135 45 120 22 175 24 290 11z m-305 -1475 l0 -85 -1425 0 -1425 0 0 85 0 85
1425 0 1425 -1 0 -84z m-290 -186 c0 -5 -17 -10 -37 -11 l-38 -1 38 -4 c35 -4
37 -6 37 -39 l0 -34 -1129 0 -1129 0 1 49 1 49 1128 0 c635 0 1128 -4 1128 -9z
m420 -232 l0 -37 -140 1 c-85 0 -140 4 -140 10 0 6 -5 7 -12 2 -7 -4 -97 -8
-200 -8 -104 0 -188 4 -188 8 0 5 -5 5 -11 2 -6 -4 -41 -6 -77 -5 -37 1 -74 1
-82 1 -69 -4 -1823 -1 -1827 3 -3 2 -10 3 -17 0 -23 -9 -201 -11 -218 -2 -9 4
-19 4 -22 0 -3 -5 -37 -10 -76 -11 l-70 -2 0 45 0 46 1524 0 1525 0 4 -42 4
-43 1 50 c3 59 22 44 22 -18z m-3820 -94 c3 -3 5 -67 5 -144 l0 -139 -107 0
-108 0 1 143 1 142 41 6 c42 6 158 0 167 -8z m4740 -139 l0 -144 -110 0 -110
0 0 148 0 147 110 -3 110 -3 0 -145z m-3701 -20 l0 -124 -40 0 -39 0 0 124 0
124 40 0 40 1 -1 -125z m2360 1 l0 -125 -1129 0 -1128 0 0 107 c1 61 6 116 12
125 10 17 72 18 1128 18 l1117 0 0 -125z m191 0 l0 -125 -45 0 -46 0 2 125 1
125 44 0 44 0 0 -125z m-4446 -36 c46 -21 69 -42 79 -72 6 -17 -4 -18 -168
-17 -131 1 -173 5 -169 13 15 26 37 46 46 41 4 -3 7 0 6 6 -2 7 13 20 32 31
46 25 118 25 174 -2z"/>
<path d="M1699 5815 c-26 -30 -26 -32 -28 -207 l-2 -177 34 -37 c32 -35 50
-41 100 -31 10 2 22 8 25 14 4 6 42 14 84 17 71 7 78 6 90 -13 20 -32 70 -28
107 10 30 30 33 37 35 111 1 20 4 39 8 43 3 4 2 21 -3 38 -5 18 -7 64 -3 103
7 82 -10 128 -53 145 -15 5 -104 11 -198 12 l-170 2 -26 -30z m364 -54 c4 -1
7 -12 7 -26 l0 -25 -154 4 c-85 2 -160 7 -165 11 -7 4 -8 12 -2 24 9 16 25 18
158 15 81 -1 151 -3 156 -3z m-48 -122 c28 -6 28 -7 5 -9 -14 -1 -19 -4 -11
-7 11 -5 11 -7 0 -14 -10 -6 -5 -8 16 -8 17 0 24 3 18 6 -10 3 -10 8 1 19 20
20 24 18 18 -11 -3 -20 -10 -25 -32 -25 -16 0 -36 -3 -46 -7 -12 -4 -15 -3
-10 5 4 7 1 12 -8 12 -9 0 -16 -4 -16 -10 0 -5 -7 -10 -15 -10 -8 0 -15 -7
-15 -16 0 -29 21 -54 45 -54 22 0 29 -8 27 -30 0 -3 9 -7 21 -7 20 -2 20 -1 5
8 -25 14 -22 26 6 31 31 6 42 -1 41 -27 0 -19 -9 -20 -130 -26 -152 -7 -182
-3 -190 22 -9 26 3 41 26 34 25 -8 56 2 63 20 10 27 -6 45 -45 51 -32 5 -39
11 -39 30 0 13 7 25 18 27 26 8 212 5 247 -4z"/>
</g>
</svg>
