<?xml version="1.0" standalone="no"?>
<!DOCTYPE svg PUBLIC "-//W3C//DTD SVG 20010904//EN"
 "http://www.w3.org/TR/2001/REC-SVG-20010904/DTD/svg10.dtd">
<svg version="1.0" xmlns="http://www.w3.org/2000/svg"
 width="1024.000000pt" height="1024.000000pt" viewBox="0 0 1024.000000 1024.000000"
 preserveAspectRatio="xMidYMid meet">
<metadata>
Created by potrace 1.16, written by Peter Selinger 2001-2019
</metadata>
<g transform="translate(0.000000,1024.000000) scale(0.100000,-0.100000)"
fill="#000000" stroke="none">
<path d="M7041 9249 c-100 -12 -254 -61 -329 -105 -72 -41 -180 -127 -239
-190 -33 -36 -61 -66 -60 -67 1 -1 -13 -22 -30 -47 -91 -133 -141 -281 -150
-443 -5 -86 -7 -96 -21 -85 -13 11 -15 10 -9 -4 4 -11 2 -18 -6 -18 -22 0
-158 -75 -194 -106 -13 -12 -38 -32 -56 -44 -66 -46 -200 -235 -235 -332 -11
-31 -19 -43 -24 -35 -5 7 -6 0 -2 -15 4 -18 2 -28 -6 -28 -6 0 -9 -3 -6 -8 2
-4 -2 -34 -10 -67 -17 -72 -19 -264 -4 -358 6 -37 21 -96 34 -131 13 -37 20
-70 15 -78 -4 -8 -4 -20 1 -28 8 -12 10 -9 10 10 1 22 2 23 11 7 5 -9 7 -22 3
-29 -4 -6 -3 -8 4 -4 6 3 13 -3 17 -14 10 -32 74 -121 133 -185 60 -64 100
-97 172 -141 25 -15 47 -30 50 -34 7 -10 148 -66 198 -80 23 -6 40 -14 38 -19
-3 -4 1 -8 9 -8 8 0 12 5 8 10 -3 5 4 6 18 1 13 -4 91 -8 172 -8 l149 -1 24
-30 c27 -33 32 -54 9 -35 -10 9 -15 9 -15 1 0 -10 14 -15 24 -8 2 1 35 -28 73
-64 37 -36 91 -80 118 -99 28 -19 52 -36 55 -39 13 -15 115 -57 208 -87 99
-31 111 -33 255 -32 84 0 157 4 162 8 6 4 27 10 48 14 69 13 190 65 264 113
189 126 326 311 377 512 14 56 27 87 36 88 38 4 167 46 211 69 27 13 54 22 60
19 5 -4 8 -2 7 3 -2 5 33 38 77 72 70 53 116 100 200 201 11 13 26 35 33 49 7
14 24 45 37 70 43 81 84 222 94 331 13 125 3 231 -32 342 -14 42 -23 77 -22
77 2 0 -20 44 -50 97 -83 154 -200 283 -335 369 -25 16 -47 31 -50 35 -8 9
-181 76 -215 83 -81 17 -188 24 -264 17 l-84 -7 -18 31 c-11 16 -17 36 -14 43
3 7 1 11 -4 8 -5 -3 -27 21 -49 52 -97 138 -268 266 -444 332 -128 47 -299 67
-437 49z m251 -173 c40 -8 87 -20 103 -27 17 -7 32 -13 35 -13 3 -1 26 -10 50
-21 81 -35 177 -104 248 -179 65 -69 83 -97 155 -253 17 -37 61 -49 115 -30
63 22 167 34 158 18 -5 -8 -1 -8 17 0 34 15 172 -12 253 -50 309 -145 505
-478 466 -793 -23 -185 -100 -336 -235 -465 -127 -121 -262 -185 -410 -195
-51 -3 -74 -36 -87 -126 -17 -119 -71 -249 -132 -314 -15 -17 -28 -33 -28 -37
0 -30 -236 -202 -253 -184 -4 3 -7 2 -7 -4 0 -6 -43 -23 -96 -37 -75 -22 -116
-28 -193 -27 -53 0 -109 4 -123 10 -14 5 -28 8 -30 6 -9 -9 -83 25 -80 36 2
10 0 10 -12 0 -12 -10 -23 -8 -58 10 -126 64 -233 154 -299 251 -22 31 -39 61
-39 66 0 5 -16 17 -35 27 -28 12 -43 14 -68 7 -18 -6 -39 -11 -47 -11 -8 -1
-46 -4 -85 -7 -38 -3 -97 -1 -130 5 -33 6 -73 13 -90 16 -40 6 -125 37 -125
45 0 4 -6 7 -13 7 -20 0 -124 70 -177 119 -92 86 -180 239 -205 354 -2 14 -9
45 -14 70 -19 87 -11 207 13 193 7 -5 7 -2 -1 8 -37 45 98 369 153 369 8 0 13
4 10 9 -16 25 107 127 221 185 40 20 75 36 78 36 3 0 22 7 44 16 32 13 41 22
50 57 7 23 11 60 10 82 -3 80 9 175 32 242 26 80 87 203 100 203 5 0 9 7 9 15
0 24 118 142 193 192 79 53 249 122 255 104 5 -15 23 -14 20 1 -2 6 10 13 26
14 15 2 31 5 34 8 11 11 151 6 224 -8z"/>
<path d="M4310 8079 c-96 -4 -229 -14 -295 -24 -66 -9 -129 -18 -140 -19 -11
-2 -38 -8 -60 -13 -49 -12 -133 -32 -160 -37 -34 -7 -256 -87 -321 -117 -34
-15 -65 -25 -68 -22 -3 4 -6 2 -6 -3 0 -6 -33 -26 -72 -45 -40 -19 -79 -40
-86 -46 -7 -7 -19 -13 -27 -13 -7 0 -15 -4 -17 -8 -1 -5 -32 -28 -68 -52 -161
-108 -315 -248 -446 -405 -32 -38 -61 -72 -64 -75 -3 -3 -16 -22 -30 -42 -14
-21 -28 -38 -32 -38 -5 0 -8 -6 -8 -13 0 -8 -12 -32 -28 -53 -80 -114 -183
-352 -232 -539 -18 -66 -34 -127 -37 -135 -7 -20 -10 -36 -17 -90 -3 -25 -8
-62 -12 -83 -11 -72 -13 -93 -20 -233 -4 -94 -2 -184 7 -265 15 -135 17 -227
6 -274 -14 -60 -345 -699 -371 -717 -6 -4 -8 -8 -4 -8 4 0 -8 -28 -26 -62 -48
-88 -68 -154 -68 -219 0 -65 17 -104 67 -147 53 -47 86 -61 172 -73 152 -21
168 -25 165 -39 -2 -10 0 -11 11 -2 11 10 20 7 43 -10 16 -12 30 -23 32 -23 8
-6 16 -81 18 -168 1 -54 7 -112 13 -128 12 -36 56 -91 65 -82 3 4 6 1 6 -6 0
-7 5 -9 10 -6 6 3 10 1 10 -5 0 -6 5 -8 12 -4 8 5 9 2 3 -12 -47 -111 -47
-141 -6 -264 21 -64 35 -130 42 -200 15 -172 27 -246 49 -302 23 -62 25 -72 8
-62 -8 4 -10 3 -5 -2 5 -5 12 -9 16 -9 4 0 32 -27 62 -59 57 -63 154 -117 234
-131 22 -4 54 -16 70 -28 17 -11 25 -14 18 -6 -10 13 0 13 75 7 48 -4 159 -5
247 -2 195 7 215 9 355 31 69 11 99 7 125 -17 14 -13 25 -29 25 -37 0 -7 5
-13 10 -13 6 0 10 -7 10 -15 0 -8 4 -15 8 -15 8 0 26 -35 53 -105 19 -47 20
-68 7 -76 -8 -5 -3 -11 16 -19 16 -6 26 -13 22 -17 -3 -3 -2 -11 3 -17 14 -19
30 -76 21 -76 -4 0 -11 6 -13 13 -4 8 -5 7 -6 -3 0 -26 15 -55 29 -55 13 0 48
-96 54 -150 2 -16 6 -37 9 -45 12 -34 17 -90 8 -90 -5 0 -12 10 -14 23 -2 12
-5 3 -6 -20 0 -23 4 -45 9 -48 6 -3 10 2 10 11 0 14 3 15 12 6 10 -10 10 -17
0 -32 -6 -11 -11 -30 -11 -42 1 -19 3 -17 8 7 7 27 8 25 15 -26 7 -53 5 -141
-7 -219 -9 -63 -46 -134 -97 -184 -52 -52 -64 -92 -37 -127 26 -34 97 -53 112
-29 4 6 11 8 16 4 5 -3 8 -2 7 3 -1 4 17 28 40 53 24 25 50 59 59 75 8 17 22
38 31 48 8 9 12 17 8 17 -4 0 -1 10 5 23 7 12 14 31 15 42 10 79 27 161 36
173 9 10 9 15 0 21 -6 3 -14 38 -17 76 -13 150 -20 188 -59 356 -41 173 -131
423 -178 491 -10 14 -18 30 -18 35 0 6 -9 18 -20 28 -11 10 -20 21 -20 25 0 4
25 18 55 30 30 12 60 29 67 37 16 20 11 79 -10 116 -15 26 -21 28 -57 24 -51
-6 -69 -10 -75 -19 -8 -10 -167 -55 -236 -67 -131 -23 -231 -30 -444 -35 -237
-5 -371 23 -443 92 -28 26 -63 82 -52 82 3 0 -1 13 -9 29 -9 17 -22 95 -31
183 -8 85 -21 177 -29 204 -48 175 -51 187 -39 191 7 2 10 10 7 17 -3 7 3 20
14 29 16 15 23 15 77 1 33 -9 75 -24 93 -35 29 -17 39 -18 72 -8 28 8 42 20
51 41 15 36 5 99 -18 112 -25 15 -123 54 -123 50 0 -2 -12 1 -27 7 -16 6 -37
12 -48 14 -76 10 -153 29 -171 40 -20 13 -22 25 -26 137 -4 98 -9 132 -25 168
-27 57 -77 110 -127 134 -36 17 -149 39 -266 52 -50 5 -80 27 -80 58 0 26 92
215 194 401 108 196 240 467 266 549 25 75 24 134 -1 336 -23 193 15 579 76
758 3 7 4 13 4 15 0 6 63 183 69 192 4 5 7 16 8 23 2 12 51 113 91 187 34 63
144 225 153 225 6 0 10 6 10 14 0 20 250 272 325 328 121 90 215 149 226 142
8 -4 9 -3 5 4 -4 7 3 14 19 18 14 3 25 10 25 14 0 10 230 114 290 131 25 7 50
16 55 20 8 5 37 14 85 24 3 1 30 8 60 17 77 23 246 54 370 68 65 7 198 10 350
7 206 -4 267 -9 382 -30 141 -27 300 -66 353 -88 17 -7 40 -14 52 -16 42 -7
158 -59 156 -70 -1 -6 4 -14 12 -17 10 -3 12 0 8 11 -5 13 -3 14 18 2 34 -19
58 -21 95 -9 37 13 61 63 48 102 -4 13 -7 26 -6 31 1 4 -4 7 -12 7 -7 0 -24 8
-37 19 -13 10 -27 19 -32 19 -7 1 -102 34 -137 49 -8 3 -19 7 -25 8 -46 11
-163 50 -172 58 -7 5 -13 7 -13 4 0 -3 -15 -1 -32 4 -18 6 -42 12 -53 14 -11
1 -20 3 -20 5 0 1 -9 3 -20 4 -11 2 -76 13 -145 25 -201 34 -376 47 -570 40z"/>
<path d="M6471 6403 c-7 -7 -16 -11 -21 -8 -16 10 -32 -36 -27 -72 4 -25 3
-33 -6 -30 -7 3 -13 -3 -13 -14 0 -11 4 -19 8 -19 4 0 8 5 8 12 0 8 3 9 10 2
22 -22 42 -202 44 -394 1 -192 -16 -394 -35 -406 -5 -3 -7 -9 -4 -14 6 -9 -22
-146 -33 -165 -3 -5 -7 -16 -7 -25 -2 -24 -33 -123 -52 -166 -9 -21 -18 -45
-19 -52 -8 -40 -224 -497 -243 -512 -3 -3 -11 -16 -17 -30 -6 -14 -22 -50 -36
-80 -14 -30 -26 -58 -26 -63 -1 -4 -9 -22 -19 -40 -9 -17 -17 -34 -18 -37 0
-3 -18 -50 -40 -105 -22 -55 -40 -103 -41 -107 -1 -5 -3 -10 -4 -13 -1 -3 -4
-9 -5 -15 -1 -5 -4 -12 -5 -15 -3 -7 -4 -9 -19 -80 -7 -33 -17 -65 -22 -71 -5
-6 -7 -13 -5 -15 3 -2 -2 -31 -10 -64 -16 -63 -18 -77 -29 -192 -4 -40 -10
-73 -14 -73 -9 0 -1 -398 10 -505 7 -70 6 -92 -4 -100 -9 -6 -11 -19 -6 -35 7
-25 7 -24 8 4 1 31 9 31 15 0 38 -203 49 -257 62 -298 7 -27 12 -52 9 -54 -3
-3 0 -11 6 -19 6 -7 9 -13 6 -13 -3 0 1 -17 10 -37 8 -21 15 -40 15 -43 1 -8
5 -21 25 -75 10 -27 18 -52 19 -55 7 -34 133 -290 184 -373 66 -108 80 -123
119 -129 27 -4 39 1 68 28 28 27 34 39 31 61 -8 46 -12 53 -41 86 -16 17 -36
45 -45 63 -10 17 -30 56 -46 85 -86 161 -205 498 -220 624 -2 17 -6 37 -9 45
-15 37 -37 220 -47 387 -15 246 10 541 48 571 11 8 12 12 3 12 -17 0 -9 35 41
190 61 189 112 309 271 631 80 162 162 339 182 394 42 116 46 128 47 135 0 3
5 16 10 30 6 14 12 34 14 45 2 11 16 83 33 160 16 77 35 185 42 240 15 121 15
443 0 540 -6 44 -7 71 -1 73 6 2 4 9 -3 17 -7 7 -21 49 -31 94 -9 44 -20 81
-24 81 -4 1 -25 4 -47 9 -30 5 -44 4 -54 -6z"/>
<path d="M7719 5956 c-147 -60 -239 -184 -242 -326 -2 -82 6 -159 16 -153 12
7 8 -12 -5 -26 -11 -10 -10 -11 5 -6 9 4 17 3 17 -2 0 -5 14 -31 31 -57 41
-62 147 -139 209 -152 144 -32 264 2 368 104 36 36 83 109 88 138 6 36 17 54
27 47 9 -5 9 -3 1 8 -7 8 -12 44 -13 81 -2 125 -58 229 -166 304 -97 68 -230
84 -336 40z m216 -165 c74 -33 125 -113 125 -197 0 -17 -12 -55 -27 -85 -54
-105 -166 -141 -276 -89 -27 13 -54 34 -60 47 -5 12 -14 23 -20 23 -5 0 -6 7
-3 16 3 8 2 13 -3 10 -10 -7 -31 61 -31 100 1 67 61 148 135 180 43 19 113 17
160 -5z"/>
<path d="M3264 5417 c-169 -116 -331 -129 -525 -42 -90 41 -121 39 -150 -9
-39 -64 -14 -104 97 -155 142 -67 333 -82 469 -38 78 26 183 81 217 115 9 9
24 33 32 53 14 35 14 37 -12 67 -41 47 -69 49 -128 9z"/>
<path d="M7169 5166 c-70 -25 -128 -78 -155 -141 -33 -78 -16 -213 32 -267 9
-9 13 -22 8 -29 -5 -8 -3 -10 5 -4 7 4 22 -1 34 -13 64 -58 192 -77 270 -39
70 33 104 65 134 125 26 52 28 64 23 132 -4 59 -12 87 -34 124 -59 101 -205
152 -317 112z m141 -163 c39 -27 49 -45 50 -86 0 -30 -7 -45 -30 -69 -30 -29
-57 -33 -52 -7 1 9 -3 8 -11 -3 -20 -26 -44 -22 -78 11 -48 49 -35 137 25 161
34 14 70 11 96 -7z"/>
</g>
</svg>
