<?xml version="1.0" standalone="no"?>
<!DOCTYPE svg PUBLIC "-//W3C//DTD SVG 20010904//EN"
 "http://www.w3.org/TR/2001/REC-SVG-20010904/DTD/svg10.dtd">
<svg version="1.0" xmlns="http://www.w3.org/2000/svg"
 width="1024.000000pt" height="1024.000000pt" viewBox="0 0 1024.000000 1024.000000"
 preserveAspectRatio="xMidYMid meet">
<metadata>
Created by potrace 1.16, written by Peter Selinger 2001-2019
</metadata>
<g transform="translate(0.000000,1024.000000) scale(0.100000,-0.100000)"
fill="#000000" stroke="none">
<path d="M7151 6579 c-77 -25 -149 -91 -170 -156 -8 -24 -18 -43 -23 -43 -5 0
-24 11 -41 24 -101 76 -238 71 -307 -12 -49 -59 -50 -60 -50 -78 0 -12 -4 -14
-17 -8 -10 5 -43 9 -74 8 -70 0 -101 -21 -135 -94 -14 -30 -33 -68 -41 -83 -8
-15 -20 -39 -27 -52 l-12 -24 -14 37 c-8 20 -13 40 -12 45 1 4 -4 7 -11 7 -7
0 -28 13 -47 29 -76 62 -134 72 -127 23 2 -15 7 -34 10 -42 16 -40 37 -113 34
-116 -2 -3 -16 5 -30 16 -35 27 -90 50 -123 50 -24 0 -25 -2 -18 -27 4 -16 8
-38 8 -50 1 -11 4 -19 7 -17 6 3 32 -46 27 -51 -2 -1 -37 2 -78 6 -165 19
-467 27 -895 24 -400 -3 -520 -8 -764 -30 -62 -6 -64 -5 -49 12 9 10 19 28 22
41 4 12 12 22 17 22 6 0 7 5 4 10 -11 18 -95 11 -126 -11 -26 -18 -28 -19 -22
-2 3 10 9 23 13 28 8 12 30 97 30 118 0 22 -39 28 -66 11 -13 -9 -28 -13 -34
-9 -6 4 -9 2 -8 -3 2 -5 -18 -32 -43 -59 -26 -27 -50 -59 -54 -72 -7 -24 -9
-21 -65 116 -7 16 -24 27 -55 35 -25 7 -44 17 -42 23 6 26 -37 93 -76 119 -38
25 -48 27 -115 23 -52 -3 -78 -9 -94 -23 -12 -10 -18 -14 -14 -7 4 7 3 20 -3
30 -5 10 -17 35 -27 57 -20 41 -98 116 -121 116 -8 0 -12 3 -10 8 11 17 -161
20 -203 3 -78 -32 -110 -62 -145 -135 -31 -64 -41 -71 -36 -26 2 12 0 13 -7 1
-8 -11 -17 -8 -48 13 -21 14 -49 26 -61 26 -13 0 -23 4 -23 8 0 15 -125 -5
-167 -27 -48 -24 -86 -75 -102 -137 -10 -38 -15 -43 -49 -49 -77 -14 -109 -59
-114 -160 -2 -37 -7 -55 -16 -55 -7 0 -10 -6 -7 -12 4 -7 -11 5 -32 27 -54 56
-91 78 -140 85 -51 8 -54 -3 -24 -71 11 -24 17 -47 14 -52 -3 -4 3 -17 13 -28
17 -19 17 -19 -2 -15 -42 8 -84 31 -84 46 0 11 -2 12 -8 2 -5 -7 -16 -10 -25
-6 -24 9 -67 -4 -67 -21 0 -7 13 -35 30 -62 16 -26 32 -61 36 -78 l5 -30 -103
-18 c-57 -11 -116 -19 -131 -19 -20 -1 -24 -3 -15 -9 10 -7 10 -9 1 -9 -19 0
-16 -24 5 -36 13 -9 37 -8 93 2 40 7 97 13 124 14 58 0 101 19 99 43 -1 9 2
14 7 11 5 -3 9 0 9 5 0 6 -5 11 -11 11 -6 0 -8 9 -4 20 3 11 3 20 -2 20 -5 0
-9 9 -9 20 0 18 3 17 31 -8 16 -15 32 -29 35 -31 3 -2 -4 -1 -15 3 -11 4 -3
-7 18 -25 21 -17 36 -37 33 -44 -4 -11 8 -13 47 -6 4 0 7 7 6 14 -3 26 1 38
13 31 7 -5 8 -3 3 6 -4 7 -14 42 -21 79 -7 36 -16 77 -20 91 l-6 25 17 -24
c30 -40 65 -111 55 -111 -6 0 -10 -5 -10 -11 0 -5 5 -7 10 -4 9 6 12 2 14 -27
1 -7 8 -19 16 -26 13 -12 12 -13 -9 -8 -14 3 -20 1 -15 -4 5 -5 25 -11 45 -15
43 -8 47 -2 56 87 3 32 10 58 14 58 5 0 9 8 9 18 0 9 4 23 9 30 5 9 9 -8 10
-45 0 -32 3 -68 6 -80 3 -13 7 -33 10 -44 6 -30 12 -34 30 -19 8 7 15 9 15 5
0 -10 70 61 70 72 1 4 17 26 36 48 31 35 34 36 25 13 -14 -37 -3 -131 15 -124
8 3 14 0 14 -6 0 -17 30 12 31 31 0 10 2 12 6 3 2 -6 9 -9 14 -6 6 3 18 -1 27
-9 9 -8 42 -18 72 -22 30 -4 63 -12 74 -17 13 -7 16 -7 12 1 -4 6 -3 11 3 11
5 0 13 -5 17 -11 5 -8 8 -8 14 0 5 9 14 9 36 0 108 -43 230 -37 298 15 39 29
42 37 26 67 -8 14 -7 19 2 20 7 1 29 2 48 4 19 1 42 5 50 8 8 3 29 8 45 10 60
9 75 17 75 42 0 6 -5 3 -11 -5 -8 -12 -10 -12 -7 -1 5 18 45 25 54 9 5 -7 2
-9 -7 -4 -8 4 -6 1 3 -7 10 -8 14 -18 10 -22 -4 -5 -1 -5 6 -1 8 5 23 0 37
-14 16 -15 30 -20 45 -15 18 6 20 12 14 38 -3 18 -12 39 -20 48 -16 18 -19 33
-4 24 16 -10 11 1 -7 16 -11 10 -14 10 -9 2 10 -17 -9 -17 -26 0 -29 29 -64
47 -89 47 -24 0 -27 -4 -27 -35 0 -19 3 -33 8 -30 4 2 15 -1 24 -8 14 -10 11
-12 -21 -12 -35 0 -204 -11 -333 -21 -30 -2 -61 -6 -69 -9 -7 -3 -22 6 -33 20
-23 29 -64 51 -93 49 -11 0 -34 -2 -51 -3 -18 0 -54 -16 -82 -35 -27 -19 -53
-32 -58 -28 -4 4 -4 2 -1 -4 4 -6 -8 -24 -25 -39 l-31 -28 7 59 c4 32 10 61
14 64 4 3 8 19 10 37 4 38 -19 47 -62 24 -35 -19 -146 -126 -146 -141 0 -5 -4
-10 -10 -10 -5 0 -10 21 -10 48 -1 47 -8 117 -15 138 -5 17 -65 24 -65 7 0 -7
-4 -13 -9 -13 -5 0 -8 8 -6 18 2 9 4 27 4 40 1 25 47 53 59 36 4 -5 14 -9 22
-9 8 0 16 -9 18 -20 5 -26 21 -43 19 -20 -1 10 4 20 11 22 7 3 10 -1 6 -11 -3
-9 -1 -16 5 -16 13 0 13 2 15 100 1 91 24 130 89 155 35 13 51 14 92 5 55 -12
78 -27 68 -43 -3 -5 -1 -7 4 -4 6 4 33 -16 59 -43 28 -28 60 -51 74 -52 24 -3
25 0 31 63 8 77 37 139 79 169 35 25 59 31 123 31 57 -1 94 -18 135 -65 35
-40 46 -82 39 -149 -4 -36 -1 -47 12 -53 19 -9 70 -12 69 -4 -5 30 78 90 125
90 66 0 126 -64 107 -115 -14 -37 -12 -70 4 -84 11 -10 16 -8 21 9 4 12 9 19
12 16 3 -3 13 -1 23 4 27 14 58 -15 74 -70 15 -52 16 -67 2 -89 -7 -10 -5 -12
3 -6 9 5 11 -1 8 -24 -3 -17 -1 -33 4 -37 5 -3 6 -10 3 -16 -5 -7 -1 -9 9 -5
9 3 23 0 30 -8 12 -12 16 -10 28 13 7 15 25 45 38 67 14 22 25 42 26 45 0 11
47 71 52 67 2 -3 -2 -18 -11 -35 -8 -16 -12 -32 -9 -36 3 -3 -2 -15 -12 -26
-10 -11 -14 -20 -10 -20 5 0 4 -5 -3 -12 -15 -15 -16 -58 -2 -58 6 0 10 -10
10 -22 0 -21 1 -21 13 -3 8 10 19 15 26 11 6 -4 10 -3 9 2 -3 12 73 122 85
122 4 0 -2 -19 -14 -41 -34 -68 -33 -75 14 -74 23 1 65 7 92 13 80 19 238 31
573 44 339 13 830 1 1101 -27 132 -13 161 -12 161 7 0 6 7 8 15 4 8 -3 15 -1
15 4 0 17 14 11 47 -20 25 -24 32 -26 37 -14 3 8 10 13 15 9 11 -6 18 52 12
107 -2 23 -7 35 -14 31 -6 -4 -8 1 -5 14 3 11 1 28 -4 37 -5 9 -7 16 -4 16 19
0 53 -113 60 -196 1 -14 7 -20 21 -18 11 1 25 3 31 3 6 1 17 19 24 41 7 21 16
38 19 36 3 -2 6 8 7 24 1 15 7 36 15 48 13 18 14 13 11 -50 -3 -43 0 -79 8
-92 l12 -23 46 25 c44 22 54 23 167 18 66 -3 148 -8 182 -12 61 -6 61 -7 50
-31 -6 -13 -16 -22 -23 -19 -8 3 -16 1 -19 -4 -4 -6 7 -10 24 -10 16 0 34 -6
38 -14 19 -31 138 -68 199 -61 190 21 242 29 262 41 25 16 71 7 182 -35 36
-14 58 -17 64 -11 6 6 10 47 9 91 -1 75 0 79 14 60 8 -12 12 -29 9 -37 -4 -10
-2 -13 6 -8 7 5 9 2 6 -8 -4 -8 0 -15 7 -15 11 0 11 5 4 21 -18 36 29 -24 52
-67 11 -21 26 -40 34 -44 8 -3 12 -10 9 -15 -4 -6 5 -2 20 7 14 10 26 21 26
26 0 19 56 128 96 189 55 81 99 133 89 105 -26 -78 -35 -267 -14 -306 16 -31
56 -35 79 -9 11 13 20 26 20 30 0 13 62 85 71 83 5 -2 8 1 6 5 -1 5 14 22 33
38 l35 29 -21 -30 c-11 -16 -29 -50 -38 -75 -10 -25 -22 -48 -28 -51 -7 -4 -7
-13 1 -26 9 -18 24 -21 138 -26 70 -3 144 -10 163 -16 19 -5 56 -11 82 -14 40
-4 47 -2 52 16 5 19 -9 41 -29 43 -6 1 -41 9 -80 17 -38 9 -107 19 -151 23
l-82 6 13 27 c64 128 75 154 75 171 0 12 -7 23 -15 26 -38 15 -159 -56 -237
-139 l-37 -39 6 38 c9 56 49 212 66 259 25 67 -16 87 -85 40 -42 -28 -48 -30
-48 -13 0 7 -8 32 -17 55 -26 62 -105 108 -187 108 -42 0 -74 -7 -102 -21
l-41 -20 -1 20 c0 33 -21 116 -36 145 -58 109 -212 163 -345 120z m161 -73
c32 -7 90 -54 82 -67 -3 -5 0 -8 8 -7 7 2 12 -5 12 -14 -1 -10 2 -16 6 -13 11
7 23 -52 23 -116 -1 -40 -8 -69 -26 -104 -27 -51 -27 -64 1 -66 11 0 12 -3 5
-6 -7 -2 -13 -12 -13 -20 0 -14 2 -14 18 0 10 10 23 17 28 17 13 0 48 40 57
64 4 10 12 14 18 10 7 -4 9 -3 5 4 -17 28 109 77 170 66 96 -17 125 -120 62
-219 -18 -27 -44 -72 -59 -100 -30 -55 -45 -66 -57 -38 -20 50 -70 102 -123
127 -30 14 -61 26 -67 26 -23 0 -33 -48 -18 -88 12 -32 29 -113 23 -112 -1 1
-27 9 -57 20 -39 13 -55 24 -56 37 -1 35 -17 68 -47 101 -27 28 -38 32 -81 32
-58 0 -138 -33 -152 -64 -8 -17 -19 -19 -109 -17 -55 1 -145 8 -200 16 -55 7
-159 13 -231 12 l-132 -2 5 40 c3 22 5 49 4 59 0 11 4 28 10 38 8 15 5 20 -13
28 -13 5 -17 9 -9 9 7 1 11 7 8 15 -3 8 3 26 13 39 25 31 93 32 119 2 9 -11
23 -21 31 -23 8 -2 24 -11 35 -20 19 -16 19 -16 6 1 -11 14 -11 17 2 17 19 0
29 25 22 53 -7 28 16 86 45 112 17 15 36 20 81 20 76 -1 133 -38 169 -111 24
-48 27 -50 65 -50 l40 0 0 73 c-1 56 4 84 20 116 36 71 143 128 181 96 8 -7
14 -8 13 -3 -4 24 -4 24 63 10z"/>
<path d="M7914 5478 c3 -11 0 -18 -7 -18 -34 0 -118 -185 -120 -264 l-1 -33
-34 35 c-43 43 -105 71 -155 72 -47 0 -56 -18 -29 -62 11 -18 29 -55 39 -83
l19 -50 -95 0 c-58 -1 -105 -6 -118 -13 -29 -16 -31 -52 -3 -52 11 -1 57 -1
101 -1 45 -1 93 -5 108 -9 14 -5 40 -11 57 -14 31 -5 32 -5 29 32 -6 71 -18
132 -25 132 -4 0 -11 7 -14 15 -9 24 15 7 53 -37 20 -23 30 -42 25 -50 -4 -7
-4 -10 1 -6 4 4 17 -10 27 -32 19 -38 40 -49 64 -32 6 4 12 44 12 96 2 80 25
200 41 210 3 2 7 -30 9 -72 4 -93 28 -212 46 -231 20 -19 55 -4 62 27 10 41
34 83 43 77 5 -3 7 4 4 14 -3 14 8 33 36 63 l40 43 -15 -55 c-9 -30 -20 -62
-24 -70 -12 -26 -11 -107 2 -118 9 -7 34 -3 86 14 66 22 87 25 190 22 65 -2
143 -10 175 -17 54 -13 59 -13 72 5 8 10 14 24 14 29 0 6 -3 4 -6 -3 -3 -8
-10 -6 -21 8 -34 41 -295 63 -413 35 -24 -6 -25 -5 -21 29 2 20 8 34 12 31 4
-2 5 7 2 22 -4 19 -2 24 8 18 8 -5 11 -4 7 3 -4 5 3 35 14 66 12 30 19 62 15
71 -8 22 -60 11 -111 -23 -22 -14 -43 -25 -47 -24 -5 1 -7 -2 -5 -6 1 -5 -17
-30 -40 -55 l-43 -47 0 49 c0 26 -3 90 -6 142 -6 87 -5 93 9 74 9 -11 17 -15
17 -9 0 12 -19 31 -32 33 -19 3 -44 15 -51 25 -6 7 -7 4 -3 -6z"/>
<path d="M1975 5360 c-9 -14 -9 -130 0 -206 4 -41 3 -54 -4 -44 -5 8 -7 18 -4
24 3 5 1 6 -6 2 -18 -12 -42 14 -36 38 4 14 3 17 -3 8 -7 -10 -18 -7 -53 12
-57 32 -121 43 -137 24 -9 -11 -4 -26 24 -72 19 -32 36 -66 37 -76 2 -10 9
-26 17 -36 14 -16 13 -17 -5 -10 -11 4 -57 10 -101 13 -98 7 -146 -8 -141 -44
3 -22 8 -23 103 -27 54 -2 120 -9 145 -16 35 -9 52 -9 68 -1 24 13 23 26 -6
113 -19 54 -19 56 -1 47 10 -5 43 -45 74 -89 53 -76 56 -79 82 -69 15 6 28 9
29 7 1 -2 5 1 10 6 5 5 3 6 -5 2 -10 -6 -13 5 -11 51 1 32 -1 103 -5 158 -3
55 -3 93 0 85 4 -8 17 -37 29 -65 13 -27 31 -84 40 -125 25 -108 30 -118 56
-116 19 1 27 12 41 51 16 43 58 135 63 135 0 0 -1 -29 -3 -65 -4 -64 10 -125
30 -125 5 0 7 4 3 10 -8 12 83 39 180 52 67 9 92 8 155 -7 41 -9 89 -18 105
-19 26 -1 30 3 31 26 1 22 -4 28 -28 33 -16 4 -25 11 -22 17 4 6 3 8 -3 5 -6
-4 -25 -2 -44 3 -61 18 -165 20 -244 5 -42 -8 -82 -18 -88 -22 -7 -4 -8 4 -4
24 3 16 9 64 13 106 l7 77 -34 0 c-40 -1 -84 -36 -121 -99 l-25 -42 -17 53
c-20 59 -54 122 -85 155 -23 25 -28 38 -8 27 6 -4 9 -3 4 1 -12 14 -94 18
-102 5z"/>
<path d="M3014 4836 c-3 -7 2 -38 10 -67 21 -76 57 -271 51 -277 -3 -3 -5 -1
-5 4 0 38 -167 160 -226 165 -81 6 -92 -9 -51 -71 13 -19 35 -55 49 -80 l26
-45 -82 0 c-87 -1 -156 -18 -156 -40 0 -28 27 -36 106 -30 64 5 90 3 135 -13
31 -11 62 -16 69 -12 17 10 5 91 -21 142 -10 20 -19 42 -19 48 0 21 127 -111
149 -154 43 -87 92 -60 92 50 1 71 -17 230 -28 261 -6 16 -4 16 16 -1 12 -11
19 -26 17 -33 -3 -7 0 -12 6 -10 6 1 21 -18 34 -43 21 -40 29 -62 52 -145 3
-11 5 -34 5 -52 0 -20 5 -30 11 -26 6 3 8 3 4 -2 -11 -12 11 -45 31 -45 20 0
36 30 47 86 4 20 16 62 28 92 17 43 27 56 44 57 12 1 22 -4 22 -12 0 -7 -7
-13 -16 -13 -8 0 -12 -5 -9 -10 4 -6 9 -8 13 -6 4 2 6 -34 4 -81 -3 -75 -1
-88 17 -107 12 -12 20 -25 19 -27 -2 -3 13 11 33 31 19 19 34 38 33 41 -2 3
24 32 58 64 33 32 59 54 56 49 -38 -80 -58 -127 -58 -140 0 -9 -5 -12 -12 -8
-6 4 -8 3 -5 -3 14 -22 57 -24 95 -4 65 33 153 54 252 60 87 6 95 8 98 27 3
18 -4 23 -33 28 -81 16 -236 2 -287 -25 -12 -6 -18 -6 -18 1 0 5 7 10 15 10 8
0 12 6 9 13 -2 7 7 39 21 71 14 31 23 62 20 67 -19 30 -125 -25 -214 -113 -24
-24 -42 -38 -38 -33 3 6 8 31 11 55 9 64 17 103 24 115 3 5 7 16 7 25 3 35 30
126 40 132 11 8 11 8 -39 12 -64 4 -149 -82 -211 -216 -17 -37 -25 -46 -25
-30 0 30 -51 133 -90 182 -58 73 -171 125 -186 86z"/>
<path d="M7148 4817 c-47 -24 -109 -99 -133 -162 -10 -24 -22 -42 -27 -39 -5
3 -6 -7 -3 -23 l6 -28 -13 27 c-18 39 -102 123 -142 142 -43 20 -102 21 -109
2 -3 -8 2 -32 12 -53 10 -21 24 -60 31 -88 7 -27 17 -56 23 -62 7 -10 2 -10
-24 -2 -19 6 -42 15 -53 20 -10 6 -16 7 -13 2 3 -4 -46 -7 -109 -6 -128 3
-164 -7 -164 -44 0 -23 1 -23 111 -23 121 0 305 -35 274 -53 -8 -4 -15 -12
-15 -17 0 -13 80 29 81 43 2 20 -1 41 -11 62 -4 11 -18 49 -29 84 l-21 64 36
-39 c34 -38 77 -116 77 -141 0 -7 4 -10 8 -8 8 6 30 -50 23 -59 -2 -3 -1 -4 3
-1 3 3 12 0 18 -5 25 -21 43 0 50 58 4 31 14 77 22 102 17 51 84 170 96 170 5
0 5 -6 0 -12 -4 -7 -8 -20 -9 -28 -1 -8 -5 -37 -9 -65 -10 -66 -9 -143 0 -179
6 -23 5 -27 -6 -21 -8 5 0 -5 16 -22 23 -23 34 -28 47 -21 10 5 17 12 16 16
-5 15 74 120 117 155 24 21 42 31 39 22 -3 -8 -11 -15 -17 -15 -6 0 -8 -3 -4
-6 3 -4 -3 -29 -13 -58 -29 -75 -27 -104 8 -108 15 -2 43 2 62 9 42 15 146 17
186 4 16 -5 42 -12 57 -16 26 -5 28 -4 25 22 -5 47 -62 68 -180 67 -110 0
-105 -11 -48 110 37 80 39 105 8 102 -52 -6 -102 -31 -164 -82 -37 -30 -70
-54 -75 -54 -14 0 -10 58 10 150 28 125 12 148 -71 107z"/>
</g>
</svg>
