<?xml version="1.0" standalone="no"?>
<!DOCTYPE svg PUBLIC "-//W3C//DTD SVG 20010904//EN"
 "http://www.w3.org/TR/2001/REC-SVG-20010904/DTD/svg10.dtd">
<svg version="1.0" xmlns="http://www.w3.org/2000/svg"
 width="1024.000000pt" height="1024.000000pt" viewBox="0 0 1024.000000 1024.000000"
 preserveAspectRatio="xMidYMid meet">
<metadata>
Created by potrace 1.16, written by Peter Selinger 2001-2019
</metadata>
<g transform="translate(0.000000,1024.000000) scale(0.100000,-0.100000)"
fill="#000000" stroke="none">
<path d="M1966 8154 c-3 -9 -6 -83 -6 -165 l0 -149 48 -1 c26 -1 51 -1 55 0
14 2 1 -28 -113 -263 -84 -174 -113 -224 -125 -220 -8 4 -15 1 -15 -6 0 -6 4
-9 9 -5 17 10 20 -11 12 -83 -4 -40 -4 -75 0 -79 3 -5 11 -23 17 -41 48 -142
184 -219 372 -210 65 3 98 10 140 31 35 17 57 22 61 16 5 -8 9 -8 13 0 4 6 1
11 -6 11 -8 1 -5 7 8 18 11 10 37 38 56 64 l35 46 50 -57 c31 -35 75 -70 114
-91 62 -34 67 -35 179 -35 103 0 121 3 170 26 52 24 170 124 169 142 -2 20 8
13 34 -26 39 -56 101 -103 173 -128 50 -17 75 -20 165 -16 92 4 114 8 155 31
60 33 103 71 137 121 l25 37 15 -28 c8 -16 29 -42 46 -58 17 -16 28 -34 24
-39 -3 -6 -1 -7 5 -3 6 3 25 -2 44 -13 115 -66 285 -70 404 -8 34 18 113 91
136 127 16 25 16 25 32 5 8 -11 13 -27 10 -35 -3 -8 -2 -11 2 -7 11 10 35 -13
27 -27 -3 -6 -3 -8 2 -4 4 4 22 -4 39 -17 18 -13 59 -37 91 -52 54 -25 71 -28
170 -28 100 0 115 2 167 28 52 26 148 115 148 138 0 23 30 5 54 -31 33 -50 92
-93 165 -121 83 -31 223 -25 306 14 64 30 123 81 157 135 15 25 23 30 29 20 5
-7 6 -20 3 -30 -2 -9 0 -19 5 -23 7 -4 8 1 5 12 -4 11 6 5 25 -15 18 -18 29
-38 25 -44 -4 -6 -3 -8 3 -5 5 3 27 -6 48 -20 59 -40 146 -63 236 -63 124 0
222 46 289 135 19 25 38 45 42 45 5 0 6 -5 2 -12 -10 -15 -12 -58 -3 -58 13 0
17 28 6 39 -6 6 -9 11 -6 11 8 0 124 -114 122 -120 -1 -3 6 -6 15 -7 9 -1 42
-8 72 -17 75 -21 201 -20 268 3 71 25 144 76 173 123 13 21 26 38 29 38 6 0
60 -67 60 -74 0 -3 -7 -3 -15 0 -23 9 -18 -4 6 -17 15 -8 19 -8 15 0 -4 6 -4
11 -1 11 11 0 64 -47 59 -52 -2 -3 2 -5 9 -6 6 0 37 -10 67 -21 71 -26 205
-28 270 -3 76 29 124 63 163 115 20 28 37 45 37 38 0 -6 11 -28 25 -48 13 -20
22 -40 19 -45 -3 -5 -2 -7 3 -6 4 1 34 -10 67 -26 47 -22 67 -27 100 -22 22 4
55 8 73 9 17 1 29 5 26 10 -3 5 10 25 30 45 56 59 70 97 75 197 l4 90 -67 135
c-62 125 -185 388 -185 396 0 2 15 4 33 3 27 0 29 -2 12 -9 -18 -8 -18 -9 -2
-9 10 -1 31 6 47 14 l30 16 0 143 c0 80 -3 151 -6 160 -6 15 -293 16 -3159 16
-2866 0 -3153 -1 -3159 -16z m6253 -141 c1 -53 4 -100 7 -105 3 -4 -1392 -8
-3100 -8 l-3106 0 0 98 c0 54 3 102 7 105 3 4 1398 7 3098 7 l3093 0 1 -97z
m-5529 -184 c0 -6 -32 -99 -71 -207 -40 -108 -76 -212 -81 -229 -5 -21 -15
-33 -26 -33 -35 -1 -518 2 -547 3 -39 2 -38 8 34 159 32 68 79 167 104 221
l47 97 270 0 c186 0 270 -3 270 -11z m620 0 c0 -5 -20 -85 -44 -177 -24 -92
-50 -193 -57 -225 -7 -32 -17 -61 -23 -64 -6 -4 -90 -6 -186 -5 -96 1 -226 2
-287 3 -62 1 -113 2 -113 4 0 6 126 361 161 453 l9 22 270 0 c183 0 270 -3
270 -11z m604 -171 c-17 -101 -35 -209 -38 -240 -4 -33 -13 -59 -19 -59 -7 -1
-141 -2 -299 -3 -269 -1 -288 0 -288 17 0 9 22 106 49 215 27 108 52 209 55
225 l6 27 283 0 283 0 -32 -182z m680 150 c-4 -29 -11 -113 -31 -370 l-6 -78
-311 0 -312 0 22 138 c13 75 30 183 40 240 l17 102 293 0 293 0 -5 -32z m649
19 c3 -8 4 -116 4 -241 l-2 -228 -310 1 c-170 1 -310 3 -311 4 -1 1 8 109 19
240 l21 237 287 0 c229 0 288 -3 292 -13z m656 -174 c6 -104 15 -212 18 -240
l6 -53 -307 0 -306 0 0 240 0 240 288 0 289 0 12 -187z m631 177 c0 -6 16
-102 34 -213 19 -111 36 -215 38 -230 l3 -29 -305 1 -305 1 -6 32 c-4 18 -12
105 -18 193 -6 88 -14 181 -17 208 l-5 47 291 0 c192 0 290 -3 290 -10z m688
-213 c34 -122 62 -231 62 -242 0 -20 -6 -20 -297 -17 -164 2 -301 6 -304 10
-3 4 -16 68 -28 142 -23 144 -49 284 -57 313 -5 16 13 17 278 17 l283 0 63
-223z m582 208 c0 -8 34 -114 75 -236 41 -123 75 -224 75 -225 0 -1 -129 -3
-287 -4 -157 0 -290 -3 -294 -6 -5 -2 -15 19 -23 48 -41 142 -116 420 -116
429 0 5 113 9 285 9 243 0 285 -2 285 -15z m339 -83 c24 -53 44 -105 44 -114
1 -9 3 -15 6 -13 7 8 111 -227 104 -238 -4 -6 -1 -7 7 -2 8 5 11 3 9 -4 -3 -7
-8 -12 -12 -12 -4 1 -67 1 -141 1 l-134 0 -36 106 c-20 58 -34 109 -31 114 3
4 1 10 -3 12 -5 1 -27 58 -50 126 l-41 122 117 0 117 -1 44 -97z m-5634 -484
c-10 -66 -41 -122 -96 -173 -89 -84 -196 -112 -305 -80 -117 33 -186 106 -200
211 -11 90 -34 84 307 84 l301 0 -7 -42z m681 5 c-13 -83 -29 -117 -77 -169
-109 -114 -274 -134 -409 -49 -84 53 -146 168 -125 234 6 21 11 21 312 21
l306 0 -7 -37z m654 26 c0 -5 5 -7 12 -3 18 11 3 -88 -21 -134 -32 -63 -68
-99 -128 -128 -77 -38 -203 -41 -278 -6 -55 25 -107 70 -99 84 3 5 0 7 -7 6
-17 -4 -57 69 -65 119 -11 77 -29 73 296 73 197 0 290 -3 290 -11z m709 -44
c-39 -287 -459 -346 -592 -83 -17 33 -27 69 -27 96 l0 42 313 0 314 0 -8 -55z
m693 38 c12 -55 -56 -204 -84 -187 -6 4 -8 3 -5 -3 8 -13 -27 -45 -83 -74 -33
-17 -62 -23 -110 -23 -67 -1 -160 20 -160 35 0 5 -8 9 -19 9 -30 0 -106 75
-129 127 -21 49 -25 71 -23 111 l1 22 304 0 c282 0 305 -1 308 -17z m686 -14
c2 -90 -76 -198 -178 -247 -68 -33 -167 -36 -249 -8 -98 34 -179 136 -189 239
l-5 47 310 0 310 0 1 -31z m684 4 c7 -54 -40 -172 -62 -158 -6 3 -7 0 -4 -8 7
-18 -47 -64 -105 -90 -31 -14 -69 -20 -125 -21 -69 -1 -90 3 -141 27 -47 22
-56 30 -45 38 12 8 10 9 -6 4 -41 -11 -123 121 -124 198 l0 37 304 0 305 0 3
-27z m681 -30 c-4 -93 -69 -180 -168 -225 -69 -31 -199 -32 -266 -2 -100 46
-157 124 -166 225 l-6 58 304 -2 304 -2 -2 -52z m662 47 c-3 -5 -1 -10 4 -10
17 0 12 -61 -9 -107 -25 -56 -99 -129 -158 -155 -72 -33 -180 -31 -254 5 -97
48 -168 151 -168 244 l0 33 296 0 c194 0 293 -3 289 -10z m392 -2 c4 -7 7 -38
7 -69 -1 -42 -8 -68 -26 -100 -39 -66 -61 -82 -118 -85 -94 -4 -153 68 -166
199 l-7 67 151 0 c110 0 153 -3 159 -12z"/>
<path d="M2289 6898 c-2 -7 -3 -403 -1 -880 l2 -867 23 -4 22 -4 -22 -2 c-25
-1 -32 -21 -8 -21 8 0 21 11 30 23 13 21 15 124 13 875 -2 561 0 854 7 857 6
2 -7 2 -27 -1 -33 -5 -36 -4 -31 15 6 22 -2 30 -8 9z"/>
<path d="M2055 6880 c-4 -6 -11 -8 -16 -5 -5 4 -8 -335 -6 -859 2 -764 0 -866
-13 -867 -8 0 -4 -5 10 -10 24 -10 24 -11 6 -25 -17 -12 -18 -14 -3 -14 9 0
17 5 17 10 0 6 8 10 18 11 10 0 12 3 5 6 -10 3 -9 8 2 20 22 22 23 1707 1
1729 -10 9 -17 10 -21 4z"/>
<path d="M6208 6883 c-17 -4 -18 -68 -18 -1083 0 -989 1 -1078 16 -1084 45
-17 44 -46 44 1078 0 1114 1 1099 -42 1089z"/>
<path d="M7913 6877 l-23 -10 0 -869 c0 -693 3 -868 13 -861 6 4 20 6 29 5 17
-3 18 47 20 867 2 574 0 872 -7 875 -5 2 -20 -1 -32 -7z"/>
<path d="M3985 6874 c7 -3 8 -363 5 -1066 -3 -585 -3 -1069 -1 -1076 2 -8 15
-12 30 -10 l26 3 3 1058 c2 837 -1 1062 -10 1075 -7 9 -24 18 -38 19 -14 1
-20 0 -15 -3z"/>
<path d="M8138 6035 c-2 -463 -2 -849 0 -858 4 -20 52 -24 53 -4 0 6 1 392 2
857 l2 845 -27 1 -28 1 -2 -842z"/>
<path d="M5940 6859 c0 -5 5 -7 10 -4 6 3 10 1 10 -4 0 -6 -21 -11 -47 -11
-27 0 -66 -5 -88 -11 -22 -6 -45 -11 -51 -11 -14 -2 -17 -67 -3 -84 8 -10 8
-14 0 -14 -6 0 -11 -5 -11 -11 0 -8 4 -8 14 0 11 9 20 9 35 2 26 -15 149 -14
192 1 35 11 50 27 59 63 6 21 -8 33 -62 56 -16 6 -26 15 -23 19 3 4 -2 11 -11
14 -21 8 -24 8 -24 -5z"/>
<path d="M5108 6843 c-9 -10 -19 -28 -23 -41 -8 -28 -109 -97 -126 -86 -7 4
-10 3 -6 -3 8 -13 -180 -126 -194 -118 -5 4 -8 1 -7 -7 2 -7 -5 -12 -14 -12
-10 1 -16 -3 -15 -10 1 -8 -77 -12 -283 -14 -192 -1 -286 -6 -291 -13 -4 -6
-4 -20 -2 -30 5 -17 16 -19 92 -21 47 -1 139 -1 204 0 90 2 117 0 117 -10 0
-9 3 -9 10 2 16 26 20 4 5 -28 -14 -26 -16 -68 -13 -257 3 -211 4 -228 22
-241 17 -12 106 -14 536 -14 450 0 518 2 538 16 22 15 22 18 22 269 l0 254
-22 4 c-13 2 25 5 85 6 79 1 107 -2 107 -11 0 -10 3 -10 9 0 6 11 35 13 124
11 64 -2 119 0 123 4 4 4 14 1 22 -6 13 -10 14 -9 8 2 -5 8 -3 17 5 23 11 7 9
9 -7 5 -17 -4 -20 -1 -17 14 3 12 0 19 -8 19 -8 0 -141 0 -295 0 l-282 -1 -63
37 c-35 21 -66 40 -69 43 -3 3 -21 15 -40 25 -19 11 -69 41 -111 68 -73 46
-76 50 -73 83 1 19 -1 33 -6 30 -4 -3 -10 2 -14 10 -7 20 -29 19 -48 -2z m21
-135 c-11 -7 -9 -8 5 -4 12 4 57 -19 142 -75 68 -45 124 -82 124 -83 0 0 -128
-1 -284 -1 -157 0 -282 3 -278 7 9 9 230 148 261 164 27 14 51 7 30 -8z m501
-492 l0 -214 -27 -6 c-35 -8 -789 -6 -900 1 l-83 6 0 213 0 214 505 0 505 0 0
-214z"/>
<path d="M4790 6313 c-73 -29 -92 -132 -35 -189 19 -19 35 -24 74 -24 43 0 53
4 75 31 35 41 37 116 3 154 -22 26 -84 41 -117 28z"/>
<path d="M4970 6208 l0 -108 25 0 c23 0 25 4 25 40 0 39 1 40 35 40 43 0 75
29 75 68 0 42 -26 59 -97 64 l-63 4 0 -108z"/>
<path d="M5223 6313 l-63 -4 0 -104 0 -105 70 0 c63 0 70 2 70 20 0 17 -7 20
-44 20 -39 0 -44 3 -48 25 -5 24 -3 25 38 25 37 0 44 3 44 20 0 17 -7 20 -40
20 -36 0 -40 3 -40 25 0 23 4 25 45 25 38 0 45 3 45 20 0 11 -3 19 -7 18 -5
-1 -36 -3 -70 -5z"/>
<path d="M5488 6237 l-3 -82 -44 78 c-39 67 -48 77 -73 77 l-28 0 0 -105 c0
-98 1 -105 20 -105 17 0 19 8 22 78 l3 77 43 -77 c35 -65 47 -78 67 -78 25 0
25 0 25 100 0 55 1 103 3 107 1 3 -6 7 -15 9 -15 2 -18 -9 -20 -79z"/>
<path d="M4255 6828 c-30 -16 -54 -50 -47 -67 10 -28 26 -38 81 -51 88 -21
192 6 207 53 9 27 -20 63 -57 71 -50 10 -162 6 -184 -6z"/>
<path d="M6785 6825 c-22 -8 -41 -15 -41 -15 -1 0 -7 -14 -14 -30 -14 -35 -5
-52 41 -76 40 -20 165 -19 209 4 30 14 35 22 35 51 0 28 -6 38 -30 52 -43 26
-150 33 -200 14z"/>
<path d="M3253 6816 c-32 -15 -53 -42 -53 -70 0 -9 19 -25 41 -37 36 -18 56
-20 134 -17 74 2 97 7 114 22 24 22 27 58 6 79 -8 8 -12 17 -10 19 7 6 -8 8
-110 14 -65 3 -99 0 -122 -10z"/>
<path d="M3171 6550 c-656 -5 -684 -6 -695 -24 -8 -14 -8 -20 2 -23 6 -3 10
-8 8 -12 -4 -6 1 -8 44 -13 8 0 312 0 675 0 l661 2 2 30 c1 17 -3 30 -8 30 -6
0 -8 5 -5 10 3 6 5 9 3 8 -2 -2 -311 -5 -687 -8z"/>
<path d="M6377 6546 c3 -4 -5 -5 -18 -2 -13 3 -18 3 -11 0 21 -10 13 -22 -10
-18 -13 2 -17 2 -10 -2 6 -3 9 -11 6 -16 -4 -6 -3 -8 3 -5 6 4 19 0 29 -8 16
-12 126 -14 701 -14 604 -1 684 1 697 15 18 18 20 30 6 39 -6 4 -8 9 -6 13 2
4 -310 7 -694 7 -385 0 -696 -4 -693 -9z"/>
<path d="M2528 6369 c-17 -9 -18 -52 -18 -669 0 -419 -4 -660 -10 -660 -11 0
-2 -27 22 -59 14 -20 20 -22 33 -11 13 11 15 90 15 681 l0 669 595 0 595 0 1
-672 c1 -370 1 -676 0 -680 0 -4 13 -6 29 -5 l29 2 1 694 c0 506 -3 697 -11
707 -10 12 -118 14 -638 14 -406 -1 -632 -4 -643 -11z"/>
<path d="M6441 6366 c-8 -10 -11 -200 -9 -705 2 -454 0 -692 -7 -695 -5 -2 4
-2 20 -1 17 2 33 4 38 4 4 1 7 305 7 676 l0 675 585 0 585 0 0 -677 c-1 -620
1 -678 16 -681 9 -2 20 0 26 6 6 6 13 1148 8 1405 0 4 -283 7 -629 7 -520 0
-631 -2 -640 -14z"/>
<path d="M4160 5210 l0 -1050 -179 0 c-152 0 -181 -2 -192 -16 -11 -14 -10
-18 6 -30 16 -12 227 -14 1337 -14 l1318 0 0 30 0 30 -190 0 -190 0 2 1045 c3
863 1 1046 -10 1050 -8 3 -86 5 -174 5 -142 0 -159 -2 -154 -16 3 -9 6 -22 6
-30 0 -11 25 -14 134 -14 l134 0 6 -31 c10 -52 7 -1636 -4 -1619 -7 12 -9 10
-7 -7 0 -12 4 -20 8 -17 4 2 8 -61 8 -141 1 -112 -1 -145 -11 -145 -8 0 -9 -3
-3 -8 6 -4 12 -22 13 -39 3 -33 3 -33 -42 -33 l-46 0 0 988 0 987 -109 -5
c-112 -5 -127 -9 -118 -33 5 -13 65 -22 135 -19 l32 1 0 -860 0 -859 -360 0
-360 0 -2 753 -3 752 -23 3 c-12 2 -24 -3 -27 -10 -3 -7 -6 -346 -7 -753 l-3
-740 -360 0 -360 0 -3 851 -2 852 96 7 c90 7 95 8 92 28 -3 21 -9 22 -125 25
l-123 3 0 -986 0 -985 -40 0 -40 0 2 1018 3 1017 137 3 c125 2 139 4 148 22 6
11 18 20 28 20 14 0 14 2 3 9 -8 5 -97 10 -198 11 l-183 1 0 -1051z m1710
-975 l0 -75 -755 0 -755 0 0 75 0 75 755 0 755 0 0 -75z"/>
<path d="M3094 5721 c-37 -23 -73 -78 -81 -124 -5 -34 -6 -34 -65 -40 -33 -3
-65 -10 -71 -16 -12 -12 -46 -315 -39 -343 2 -9 19 -24 37 -32 27 -13 77 -16
288 -16 140 0 269 3 286 6 63 13 63 18 35 310 -8 81 -21 90 -130 93 -15 1 -24
11 -32 39 -37 120 -140 176 -228 123z m130 -52 c24 -19 56 -77 56 -100 0 -5
-52 -9 -115 -9 -73 0 -115 4 -115 10 0 21 40 89 62 104 31 22 80 20 112 -5z
m-224 -193 c0 -88 41 -117 167 -115 115 2 135 8 155 49 10 19 18 50 18 68 0
33 0 33 43 30 l42 -3 6 -60 c4 -33 9 -100 10 -150 l4 -90 -267 0 c-175 0 -271
4 -278 11 -7 7 -7 49 1 140 6 71 13 135 15 142 2 7 20 12 44 12 39 0 40 -1 40
-34z m290 -4 c-11 -61 -12 -62 -119 -62 -109 0 -115 3 -126 63 l-7 37 130 0
129 0 -7 -38z"/>
<path d="M6942 5529 c-13 -11 -34 -38 -47 -60 -16 -25 -43 -48 -75 -64 -76
-39 -132 -92 -128 -124 6 -49 26 -51 375 -49 292 3 324 5 340 21 15 15 16 21
4 50 -7 17 -24 72 -39 121 -21 75 -30 91 -56 107 -62 38 -152 10 -172 -54 -15
-50 -26 -50 -56 3 -40 71 -101 91 -146 49z m92 -51 c30 -43 20 -78 -40 -140
l-56 -58 -81 0 c-45 0 -88 4 -95 8 -15 10 20 37 93 75 58 29 77 48 98 100 13
29 22 37 41 37 14 0 31 -9 40 -22z m247 12 c27 -15 24 -37 -8 -65 -25 -20 -28
-30 -28 -82 l0 -58 -117 -3 c-67 -1 -118 1 -118 7 0 19 79 79 114 85 38 7 43
13 77 104 9 24 46 30 80 12z"/>
<path d="M5253 5433 c-25 -3 -33 -9 -33 -24 0 -14 7 -19 25 -19 l25 0 0 -130
c0 -71 1 -133 3 -137 1 -5 -13 -9 -30 -11 -40 -4 -44 -27 -8 -44 17 -7 35 -8
57 -2 l33 10 3 168 c2 167 -3 199 -32 194 -6 0 -26 -3 -43 -5z"/>
<path d="M6607 5187 c-15 -11 -17 -29 -15 -147 l3 -135 28 -3 27 -3 0 115 0
116 410 0 c320 0 411 -3 414 -12 2 -7 16 -76 31 -153 15 -77 31 -157 35 -177
7 -36 -2 -53 -13 -25 -3 6 -6 0 -6 -15 -1 -25 1 -26 40 -22 22 2 45 6 50 9 12
8 11 42 -1 50 -6 4 -8 15 -5 26 4 10 2 19 -3 19 -5 0 -12 12 -15 28 -2 15 -16
85 -31 156 -14 72 -26 140 -26 152 0 16 -8 23 -31 28 -17 3 -221 6 -453 6
-324 0 -426 -3 -439 -13z"/>
<path d="M2702 5115 c-1 -5 -17 -82 -37 -170 -20 -88 -38 -169 -40 -179 -3
-11 4 -27 17 -38 27 -24 46 -9 50 40 4 36 4 37 15 12 7 -15 12 -19 12 -9 1 8
-4 20 -10 26 -8 8 -6 40 10 120 12 59 24 116 27 126 5 16 34 17 430 17 l424 0
0 -67 c0 -38 3 -78 6 -90 6 -23 5 -23 -90 -23 -89 0 -97 -2 -111 -24 -11 -16
-14 -38 -11 -73 7 -69 13 -81 47 -88 21 -5 29 -12 29 -28 0 -33 -14 -49 -36
-41 -14 4 -16 3 -5 -4 10 -7 0 -19 -45 -49 -33 -22 -204 -137 -382 -257 -185
-124 -327 -214 -334 -210 -6 4 -8 3 -4 -4 3 -6 -8 -20 -25 -33 -23 -16 -33
-19 -39 -9 -5 9 -9 9 -14 1 -4 -6 -12 -8 -18 -5 -7 4 -8 2 -4 -4 4 -6 14 -8
23 -5 15 6 15 5 0 -17 -20 -29 -23 -130 -5 -148 7 -7 20 -12 30 -12 17 0 18
-19 18 -325 l0 -325 -35 0 c-39 0 -60 -26 -52 -66 l4 -24 -489 0 c-434 0 -489
-2 -495 -16 -8 -23 17 -66 32 -54 7 6 192 11 475 12 l464 3 7 25 c5 17 7 5 8
-37 l1 -63 -34 0 c-18 0 -39 -7 -46 -15 -7 -8 -16 -12 -21 -9 -5 3 -9 2 -9 -3
0 -27 62 -33 341 -33 243 0 288 2 292 15 4 8 2 17 -3 20 -5 3 -8 11 -6 18 1 7
1 9 -1 5 -6 -10 -56 7 -61 20 -6 18 4194 17 4201 0 4 -10 6 -10 6 0 1 17 18
15 18 -2 0 -10 -10 -12 -35 -9 -23 3 -32 1 -28 -6 4 -6 2 -11 -4 -11 -6 0 -10
-10 -8 -22 l3 -23 311 -2 c299 -2 312 -1 317 17 3 11 -1 21 -10 24 -8 3 -12 9
-9 14 2 4 -14 6 -36 4 l-39 -4 7 96 c8 107 1 126 -47 126 l-29 0 0 319 c0 314
0 320 21 326 11 4 24 18 30 32 13 35 11 106 -3 125 -7 8 -130 93 -273 188
-143 95 -287 193 -320 217 -33 24 -85 59 -115 79 -30 20 -61 43 -67 52 -7 9
-13 12 -13 8 0 -4 -20 7 -45 24 -25 17 -45 35 -45 40 0 6 -6 9 -12 7 -7 -1
-14 10 -16 24 -3 22 2 26 35 35 l38 9 3 71 c4 93 -6 104 -96 105 -37 1 -87 2
-112 2 -25 1 -80 0 -122 -1 -71 -2 -79 -4 -94 -27 -13 -20 -15 -38 -9 -90 6
-58 9 -66 31 -71 18 -5 24 -13 24 -33 0 -19 -3 -22 -9 -12 -8 12 -14 12 -39 2
-19 -8 -71 -11 -150 -9 -106 3 -122 1 -131 -14 -16 -25 -14 -35 2 -13 13 17
14 17 20 -4 5 -20 10 -21 156 -21 l151 0 0 -353 0 -353 -30 -11 -30 -11 0 -91
0 -91 -1275 0 -1274 0 -3 93 -3 92 -37 3 -38 3 0 360 0 359 144 0 c158 0 176
3 176 31 0 18 -10 19 -160 19 l-160 0 0 24 c0 17 7 26 25 30 15 4 30 18 36 34
11 29 3 120 -13 140 -7 8 -39 12 -94 12 -78 0 -113 11 -78 24 12 5 15 24 13
113 l-2 108 -477 0 c-310 0 -477 -3 -478 -10z m1078 -325 l0 -40 -159 0 -159
0 -5 33 c-2 17 -3 35 0 40 2 4 76 7 164 7 l159 0 0 -40z m3010 0 l0 -40 -165
0 -165 0 0 40 0 40 165 0 165 0 0 -40z m-3182 -507 l-3 -418 -35 0 -35 0 -3
418 -2 417 40 0 40 0 -2 -417z m110 1 l-3 -417 -32 -3 -33 -4 0 420 0 420 35
0 35 0 -2 -416z m2872 -2 l0 -418 -35 -1 -35 -1 0 419 0 419 35 0 35 0 0 -418z
m110 -3 l0 -420 -32 3 -33 3 -3 418 -3 417 35 0 36 0 0 -421z m185 191 c-3 -5
0 -12 6 -16 8 -4 9 -3 5 4 -14 22 8 12 91 -44 45 -31 80 -61 76 -67 -3 -6 -1
-7 5 -3 10 6 262 -157 262 -170 0 -3 -5 -2 -12 2 -7 4 -8 3 -4 -4 4 -6 12 -9
19 -6 14 5 127 -69 140 -92 5 -8 12 -12 16 -9 5 2 15 -3 22 -11 12 -15 8 -16
-47 -12 -59 4 -68 9 -250 131 -245 164 -432 291 -441 300 -3 4 -7 27 -8 51
l-2 43 64 -44 c35 -25 61 -48 58 -53z m-3417 2 c-6 -7 -13 -10 -16 -7 -3 2
-10 -2 -16 -11 -10 -13 -192 -140 -426 -297 -52 -35 -101 -71 -109 -80 -7 -9
-18 -14 -24 -10 -6 3 -7 1 -3 -6 11 -17 -14 -22 -90 -19 l-69 3 77 53 c76 51
95 61 84 43 -3 -5 2 -15 12 -22 9 -7 14 -10 10 -5 -4 5 -3 18 3 29 8 14 8 18
0 13 -6 -4 -11 -3 -11 2 0 5 52 43 115 85 l115 76 0 -34 c0 -26 4 -33 15 -29
8 3 13 11 12 17 -1 7 4 11 11 9 10 -2 10 2 2 18 -13 25 -21 26 -14 3 5 -15 4
-16 -5 -3 -6 8 -11 17 -11 21 0 13 120 88 133 83 8 -3 18 -1 22 5 4 7 -1 8
-12 4 -28 -10 -13 2 93 75 l99 68 6 -35 c4 -20 2 -42 -3 -49z m7 -316 l-7
-246 -133 0 -133 0 -1 153 -2 154 63 41 c35 22 97 65 138 95 41 30 77 53 79
51 2 -2 0 -113 -4 -248z m3359 207 c34 -27 94 -70 134 -97 l72 -49 0 -154 0
-153 -117 0 c-65 0 -128 -3 -140 -6 l-23 -6 0 256 c0 141 3 256 6 256 4 0 34
-21 68 -47z m-3694 -495 l0 -303 -82 -65 c-45 -36 -94 -73 -110 -83 l-28 -19
0 235 c0 200 2 236 16 248 12 9 15 30 13 85 l-2 73 69 47 c38 26 76 53 85 60
9 8 19 11 22 7 4 -3 7 -1 7 5 0 7 2 12 5 12 3 0 5 -136 5 -302z m4010 276 c22
-15 40 -31 40 -35 0 -5 5 -9 12 -9 6 0 34 -16 62 -35 l51 -35 -5 -58 -5 -57
-102 -3 -103 -3 0 131 c0 71 2 130 5 130 3 0 23 -12 45 -26z m468 -187 l-3
-32 -117 -3 -118 -3 0 38 0 38 121 -3 120 -3 -3 -32z m-4728 -2 l0 -35 -130 0
-130 0 0 35 0 35 130 0 130 0 0 -35z m582 -115 c-2 -17 -9 -29 -14 -28 -6 2
-23 -8 -37 -22 -26 -24 -183 -149 -205 -162 -8 -4 -11 25 -10 100 0 59 1 115
2 124 2 15 17 18 130 20 70 2 130 2 133 1 3 -1 4 -16 1 -33z m-722 -295 l0
-325 -35 0 -35 0 0 325 0 325 35 0 35 0 0 -325z m110 0 l0 -325 -30 0 -30 0 0
325 0 325 30 0 30 0 0 -325z m4180 199 l0 -125 -46 33 c-26 18 -65 49 -88 68
-22 20 -59 48 -81 64 -46 33 -65 54 -65 73 0 10 31 13 140 13 l140 0 0 -126z
m280 -105 c0 -181 -3 -229 -12 -223 -54 32 -117 87 -112 96 5 7 2 9 -8 5 -9
-3 -23 2 -33 13 -10 11 -26 22 -36 25 -17 6 -19 19 -19 161 l0 154 110 0 110
0 0 -231z m130 -94 l0 -325 -35 0 -35 0 0 325 0 325 35 0 35 0 0 -325z m110 0
l0 -325 -35 0 -35 0 0 325 0 325 35 0 35 0 0 -325z m-3770 210 c0 -36 1 -68 3
-72 1 -5 -22 -9 -50 -11 l-53 -3 0 55 0 56 -80 0 c-73 0 -80 2 -80 20 0 19 7
20 130 20 l130 0 0 -65z m2918 43 c3 -16 -6 -18 -72 -18 l-76 0 0 -56 0 -56
-52 4 -53 3 -3 73 -3 73 128 -3 c112 -3 128 -5 131 -20z m-3058 -91 l0 -33
-96 3 c-53 1 -105 5 -116 9 -37 11 -48 -13 -48 -102 l0 -84 -94 0 c-114 0
-136 14 -82 51 19 13 69 51 112 83 145 110 136 106 235 106 l89 0 0 -33z
m3234 -79 c0 -18 5 -28 13 -28 9 0 11 5 6 13 -11 17 -13 37 -3 37 11 0 31 -26
24 -32 -3 -3 0 -9 7 -14 8 -4 10 -3 5 4 -4 7 -4 12 0 12 9 0 88 -71 93 -84 2
-6 -6 -2 -18 8 -21 19 -21 19 -21 -1 0 -14 6 -19 23 -18 12 1 25 -3 29 -9 5
-8 8 -7 8 2 0 9 4 10 13 2 62 -51 103 -83 120 -92 16 -8 17 -12 6 -20 -11 -7
-9 -8 5 -4 20 7 59 -21 50 -35 -3 -5 2 -6 10 -3 9 3 16 1 16 -5 0 -6 7 -11 15
-11 21 0 35 -33 35 -84 0 -45 -1 -46 -31 -46 -30 0 -31 2 -26 30 6 27 4 30
-27 35 -18 4 -66 5 -105 3 l-71 -3 0 78 c0 44 4 77 10 77 6 0 10 5 10 11 0 5
-4 7 -10 4 -5 -3 -10 1 -10 10 0 9 4 13 10 10 6 -3 7 1 4 9 -3 9 -9 15 -12 14
-4 0 -53 0 -109 1 l-103 1 0 84 c0 78 -2 85 -25 100 -14 9 -25 24 -25 32 0 11
13 5 43 -22 31 -28 42 -46 41 -66z m-94 -68 l0 -60 -1670 0 -1670 0 0 60 0 60
1670 0 1670 0 0 -60z m-3618 -72 c2 -7 5 -58 7 -112 l3 -99 -85 5 c-117 8
-137 3 -137 -33 0 -22 -5 -29 -20 -29 -18 0 -20 7 -20 55 0 49 3 56 28 69 15
8 67 46 116 85 49 39 92 71 96 71 4 0 10 -6 12 -12z m3828 -128 l0 -80 -1880
0 -1880 0 0 80 0 80 1880 0 1880 0 0 -80z m228 -207 l3 -73 -2116 0 -2115 0 0
75 0 75 2113 -3 2112 -2 3 -72z m-4278 -73 l0 -80 -175 0 -175 0 0 80 0 80
175 0 175 0 0 -80z m4690 0 l0 -80 -175 0 -175 0 0 80 0 80 175 0 175 0 0 -80z"/>
<path d="M8109 5107 c9 -9 -41 -86 -62 -95 -4 -2 -5 -7 -2 -12 3 -4 -2 -23
-10 -41 -14 -33 -14 -33 -12 -6 1 15 5 27 10 27 5 0 7 6 4 13 -2 6 2 20 11 30
14 15 13 17 -7 17 -17 0 -21 -5 -17 -25 3 -14 0 -25 -5 -25 -5 0 -9 12 -9 28
0 20 -3 23 -10 12 -8 -12 -10 -12 -15 2 -4 10 -4 21 -1 26 3 6 -1 13 -10 16
-10 4 -13 2 -8 -6 5 -8 2 -9 -10 -5 -10 4 -22 7 -28 7 -6 0 -4 7 3 17 11 13 8
13 -16 -3 -47 -29 -56 -45 -52 -92 5 -51 -10 -43 -16 8 -2 19 -4 9 -3 -22 0
-45 4 -58 16 -58 13 0 13 1 0 10 -12 8 -11 10 8 10 12 0 22 -4 22 -8 0 -5 16
-26 35 -47 19 -22 32 -41 29 -44 -2 -2 -11 4 -19 15 -15 19 -15 19 -10 -1 3
-11 -1 -6 -10 12 -10 22 -20 31 -30 27 -8 -4 -15 -8 -15 -11 0 -3 7 -3 15 1 9
3 15 0 15 -8 0 -9 -8 -12 -25 -8 -14 2 -25 8 -25 12 0 17 -86 -2 -108 -23 -19
-17 -23 -29 -18 -54 4 -30 2 -33 -22 -34 -24 -2 -24 -2 -4 -6 13 -3 20 -9 16
-16 -3 -7 1 -4 9 6 14 17 16 17 31 -4 8 -12 45 -39 81 -59 36 -20 62 -39 58
-43 -9 -9 -25 -9 -20 1 3 4 -24 8 -60 9 -68 2 -113 -15 -113 -44 0 -8 -4 -11
-10 -8 -5 3 -10 2 -10 -2 0 -5 9 -13 19 -18 11 -6 35 -23 55 -39 20 -15 53
-35 73 -42 36 -14 37 -14 8 -12 -16 1 -40 -3 -51 -10 -12 -6 -24 -8 -28 -5 -3
3 -6 -2 -6 -13 0 -16 -2 -17 -10 -4 -8 12 -10 11 -10 -7 0 -12 -3 -29 -7 -38
-5 -15 -1 -16 28 -10 28 6 32 5 22 -6 -9 -12 3 -14 75 -15 103 0 162 -6 162
-16 0 -10 -38 -20 -49 -13 -17 10 -144 -16 -178 -36 -40 -25 -40 -33 -14 -190
11 -63 21 -134 23 -159 l3 -45 -47 1 c-26 0 -45 -3 -43 -7 3 -4 -1 -10 -7 -13
-26 -10 25 -36 73 -36 25 0 66 -8 90 -19 80 -34 358 -26 406 11 12 10 59 3
198 -29 39 -9 79 -21 90 -26 19 -10 18 -11 -8 -18 -16 -4 -211 -8 -433 -8
-416 0 -451 -3 -423 -37 9 -12 91 -14 446 -14 l434 0 -3 -262 -3 -263 40 -1
c22 -1 36 0 30 2 -6 3 -9 117 -7 323 l3 320 -33 9 c-19 5 -92 22 -163 37 -72
16 -132 30 -134 31 -2 2 6 60 19 129 12 69 22 153 23 187 1 35 7 67 12 71 6 5
0 5 -12 2 -21 -6 -27 1 -25 26 1 3 -5 6 -13 6 -7 0 -11 -7 -8 -15 5 -12 2 -12
-15 -3 -12 6 -62 14 -111 18 -69 4 -91 9 -91 20 0 8 4 12 9 9 5 -4 11 -2 13 3
1 6 46 11 98 12 52 1 101 4 108 6 18 7 15 33 -5 33 -15 0 -14 2 3 15 22 16 16
19 -18 6 -13 -4 -54 -5 -93 0 l-70 7 71 -2 c61 -1 79 3 130 29 67 34 71 50 26
98 -19 20 -36 27 -66 28 -23 1 -33 3 -23 6 9 2 17 10 17 16 0 7 4 6 10 -3 8
-12 17 -7 49 30 52 59 56 106 11 123 -35 13 -38 23 -10 32 11 4 27 18 35 33 8
15 14 21 15 13 0 -8 3 -12 6 -9 3 3 1 14 -4 25 -6 10 -15 30 -21 46 -9 24 -15
27 -59 27 -27 0 -71 -7 -97 -15 -27 -8 -50 -13 -52 -11 -4 4 27 65 36 70 13 8
4 66 -13 85 -9 10 -13 20 -10 24 3 3 -9 3 -26 1 -18 -3 -30 -2 -27 4 4 5 -1 9
-9 9 -9 0 -11 -4 -5 -10z m-69 -882 c69 0 153 3 188 7 l62 8 -6 -43 c-16 -108
-44 -270 -49 -277 -17 -28 -265 -41 -335 -17 l-35 12 -21 115 c-11 63 -24 136
-27 162 l-6 47 52 -7 c28 -4 108 -7 177 -7z"/>
<path d="M2271 5073 c-24 -14 -51 -26 -59 -27 -9 -2 -18 -9 -20 -17 -3 -12 -2
-12 6 0 19 27 20 -5 1 -39 -19 -33 -20 -33 -16 -7 2 15 0 27 -5 27 -6 0 -8 7
-5 14 4 9 1 13 -6 10 -7 -2 -23 9 -36 26 -18 25 -28 31 -54 28 -24 -2 -33 -8
-35 -25 -2 -15 -10 -23 -23 -23 -32 0 -22 -51 13 -69 15 -7 25 -17 22 -22 -3
-5 0 -9 6 -9 6 0 8 -5 5 -10 -5 -8 -12 -7 -22 2 -9 7 -18 12 -20 10 -2 -2 -18
0 -36 3 -69 11 -106 12 -100 2 4 -6 0 -8 -10 -4 -11 4 -14 2 -10 -9 3 -8 -2
-26 -12 -40 -9 -14 -14 -28 -11 -32 3 -3 6 1 6 8 0 12 2 12 13 1 9 -10 9 -15
0 -18 -7 -2 -9 -11 -6 -20 4 -9 2 -14 -3 -10 -6 3 -11 -4 -11 -16 -2 -18 1
-17 17 8 11 17 20 24 20 16 0 -7 6 -11 14 -8 8 3 21 -2 30 -12 16 -17 15 -19
-16 -34 -18 -9 -35 -14 -38 -12 -3 2 -6 -4 -6 -13 0 -9 -4 -28 -8 -42 -4 -15
-4 -20 1 -12 7 9 15 5 33 -15 14 -16 24 -31 22 -35 -1 -4 4 -5 12 -2 7 3 19
-2 26 -10 7 -9 16 -14 20 -11 5 3 11 2 14 -3 2 -4 -6 -9 -20 -10 -15 -1 -24 3
-24 13 0 9 -6 12 -15 9 -8 -3 -13 -9 -12 -13 4 -13 -49 -67 -61 -63 -7 2 -12
-1 -12 -7 0 -6 4 -11 10 -11 5 0 14 -9 20 -20 7 -14 7 -20 0 -20 -5 0 -10 7
-10 15 0 23 -16 18 -17 -5 -1 -11 4 -20 10 -21 49 -5 76 -9 102 -17 28 -8 28
-9 7 -14 -12 -3 -22 -2 -22 3 0 5 -4 9 -10 9 -5 0 -10 -18 -10 -39 0 -22 5
-43 10 -46 6 -3 10 -1 10 6 0 6 9 1 20 -12 10 -13 19 -18 20 -11 0 6 -6 12
-12 12 -9 0 -8 3 2 10 9 6 17 5 22 -3 6 -9 8 -9 8 1 0 7 4 11 8 8 4 -2 40 -6
80 -7 48 -2 73 -8 77 -17 6 -17 -5 -20 -105 -25 -47 -3 -96 -8 -109 -12 -19
-6 -22 -5 -16 5 6 9 4 11 -4 6 -7 -5 -10 -11 -7 -14 3 -3 -2 -14 -11 -24 -16
-18 -15 -29 5 -191 12 -95 22 -177 22 -183 0 -7 -17 -15 -37 -18 -96 -17 -269
-60 -280 -70 -9 -8 -13 -98 -15 -324 l-3 -313 23 -6 c13 -3 26 -2 30 2 4 3 9
122 12 263 l5 257 442 5 c243 3 444 7 446 10 3 3 0 13 -7 22 -12 16 -48 18
-444 18 -239 1 -434 5 -437 10 -3 5 2 13 12 18 28 14 132 34 142 28 5 -4 11
-3 13 2 1 4 28 15 58 23 44 12 60 12 80 3 61 -29 100 -34 230 -31 99 3 145 8
174 20 21 9 62 17 91 17 39 0 54 4 59 16 9 24 1 31 -45 37 -22 3 -42 7 -43 9
-2 1 7 75 20 163 34 232 36 219 -34 239 -32 9 -74 16 -93 16 -58 0 -109 12
-109 25 0 9 26 13 91 14 102 2 183 29 177 60 -2 9 -7 14 -10 11 -4 -3 -14 5
-22 16 -11 16 -23 20 -43 17 -21 -4 -16 1 22 22 28 15 60 36 71 47 17 15 23
16 27 6 3 -7 3 5 0 27 -4 32 -2 37 7 25 10 -13 11 -13 7 0 -2 8 -10 15 -18 15
-8 0 -25 6 -38 13 -25 15 -84 12 -139 -6 -18 -6 -30 -7 -27 -1 4 5 1 9 -5 9
-6 0 -13 -7 -16 -15 -4 -8 -10 -13 -14 -10 -5 3 -11 1 -15 -5 -3 -5 -1 -10 6
-10 8 0 8 -4 -1 -15 -7 -8 -18 -15 -24 -14 -7 0 -6 2 2 6 6 2 12 9 12 14 0 6
-4 7 -10 4 -23 -14 -8 13 18 31 37 28 62 36 62 21 0 -8 3 -8 9 2 5 7 14 10 20
7 6 -4 11 0 11 8 0 9 7 16 16 16 9 0 12 -5 8 -12 -5 -7 -3 -8 5 -4 7 5 10 10
7 14 -3 3 2 11 12 18 13 9 20 10 31 1 12 -9 13 -9 7 1 -5 8 0 20 11 30 11 9
27 29 36 43 17 25 17 26 -22 62 -21 20 -41 34 -43 32 -2 -2 -31 -5 -65 -7 -34
-1 -59 -6 -57 -10 3 -5 1 -8 -4 -8 -5 0 -24 -15 -43 -32 -19 -18 -31 -29 -27
-23 12 15 9 27 -4 18 -7 -4 2 12 20 35 20 24 39 39 45 35 7 -3 9 -3 5 2 -4 4
1 20 12 35 14 19 20 44 20 80 0 36 3 49 12 44 7 -4 8 -3 4 5 -4 6 -11 9 -14 7
-4 -2 -19 5 -32 16 -14 11 -19 16 -11 12 9 -5 12 -3 7 4 -4 7 -8 12 -9 11 -1
0 -22 -12 -46 -26z m155 -880 c-4 -32 -16 -109 -27 -170 l-21 -113 -37 -10
c-49 -14 -258 -12 -301 3 l-35 12 -24 158 c-13 87 -22 160 -19 163 3 2 39 -1
79 -7 81 -13 320 -6 360 10 13 5 26 10 28 10 2 1 1 -25 -3 -56z"/>
<path d="M2594 4627 c-3 -9 -10 -15 -15 -12 -5 4 -9 -1 -9 -9 0 -9 9 -16 20
-16 11 0 20 -6 20 -12 0 -8 3 -9 8 -3 10 15 3 14 372 15 188 1 340 4 336 7 -3
3 0 13 7 21 10 13 9 15 -5 9 -11 -4 -15 -2 -12 6 3 9 -80 12 -356 12 -335 0
-361 -1 -366 -18z"/>
<path d="M6885 4622 c4 -39 -26 -36 401 -34 317 2 332 3 354 22 23 20 23 21 5
26 -11 2 -187 6 -391 7 l-372 2 3 -23z"/>
<path d="M7717 3123 c-12 -12 -7 -41 7 -46 16 -6 899 -10 929 -4 25 5 38 28
25 44 -8 10 -110 13 -483 13 -259 0 -475 -3 -478 -7z"/>
</g>
</svg>
