<?xml version="1.0" standalone="no"?>
<!DOCTYPE svg PUBLIC "-//W3C//DTD SVG 20010904//EN"
 "http://www.w3.org/TR/2001/REC-SVG-20010904/DTD/svg10.dtd">
<svg version="1.0" xmlns="http://www.w3.org/2000/svg"
 width="1024.000000pt" height="1024.000000pt" viewBox="0 0 1024.000000 1024.000000"
 preserveAspectRatio="xMidYMid meet">
<metadata>
Created by potrace 1.16, written by Peter Selinger 2001-2019
</metadata>
<g transform="translate(0.000000,1024.000000) scale(0.100000,-0.100000)"
fill="#000000" stroke="none">
<path d="M5470 7204 c-83 -23 -236 -90 -1075 -474 -82 -37 -289 -131 -460
-208 -985 -445 -951 -427 -999 -524 -26 -51 -26 -54 -26 -289 l0 -236 -252
-116 c-436 -199 -672 -309 -711 -334 -79 -50 -123 -144 -114 -244 10 -119 58
-164 283 -274 l172 -84 5 -98 c6 -119 16 -154 64 -218 33 -43 55 -59 158 -110
66 -34 161 -79 210 -102 50 -23 140 -65 200 -93 61 -29 261 -123 445 -210 184
-87 429 -203 544 -259 114 -56 210 -101 212 -101 2 0 59 -27 126 -61 307 -152
414 -185 554 -175 129 9 141 15 709 291 284 138 957 462 1041 500 39 18 273
130 520 248 247 118 510 244 585 279 154 74 206 115 246 196 23 48 28 72 31
159 l4 102 174 85 c197 97 240 132 273 220 34 90 26 150 -30 232 -45 67 -80
84 -729 377 -80 36 -185 83 -235 105 l-90 41 -5 288 c-5 276 -6 290 -29 340
-26 59 -97 130 -160 163 -23 11 -97 45 -164 74 -125 55 -645 287 -932 416 -88
39 -193 80 -234 91 -89 23 -231 24 -311 3z m295 -138 c28 -9 327 -139 665
-289 541 -241 621 -279 662 -318 74 -70 73 -66 73 -609 -1 -469 -1 -476 -23
-517 -27 -53 -74 -84 -232 -158 -69 -32 -262 -123 -430 -203 -168 -79 -426
-202 -575 -272 -279 -132 -414 -196 -670 -320 -287 -139 -437 -210 -441 -210
-2 0 -4 231 -4 513 l0 513 203 94 c111 51 243 112 292 136 299 140 576 268
835 387 439 201 867 402 895 421 49 32 23 116 -36 116 -15 0 -143 -54 -285
-121 -143 -66 -437 -203 -654 -304 -370 -171 -1039 -483 -1229 -573 -62 -29
-90 -38 -105 -32 -12 4 -75 34 -141 65 -66 31 -223 103 -350 160 -198 89 -809
367 -988 450 -32 15 -55 31 -50 35 4 4 71 35 148 70 596 265 1390 623 1830
825 240 110 254 116 335 142 85 26 185 26 275 -1z m-2459 -1252 c137 -63 263
-121 279 -129 17 -7 140 -64 275 -125 135 -62 364 -166 510 -232 146 -66 268
-123 273 -127 4 -4 6 -242 5 -529 l-3 -522 -165 76 c-91 42 -241 111 -335 154
-186 85 -416 193 -773 363 -252 119 -286 144 -310 226 -8 27 -12 178 -12 500
0 253 2 461 4 461 2 0 115 -52 252 -116z m4236 -237 c123 -57 315 -146 428
-197 113 -52 219 -104 236 -117 65 -48 70 -130 12 -190 -33 -34 -79 -58 -468
-243 -274 -130 -400 -191 -615 -295 -169 -82 -325 -157 -1190 -570 -192 -92
-494 -236 -671 -320 -176 -84 -349 -161 -385 -170 -86 -23 -232 -16 -308 14
-54 22 -400 185 -891 421 -151 73 -340 163 -420 200 -80 37 -188 88 -240 113
-52 25 -223 104 -380 177 -532 247 -622 293 -657 334 -67 76 -30 148 112 218
106 53 790 368 798 368 4 0 7 -72 7 -160 0 -87 5 -181 11 -208 14 -69 66 -150
119 -190 50 -37 1282 -619 1525 -720 75 -31 188 -35 249 -8 48 22 359 169 561
266 83 40 168 80 190 90 58 25 541 254 738 349 93 45 170 81 171 81 2 0 68 31
147 69 79 38 226 108 327 155 244 113 293 151 333 256 16 42 19 77 19 215 0
95 4 165 9 165 5 0 110 -47 233 -103z m243 -992 c-28 -74 -41 -83 -390 -250
-71 -34 -254 -122 -405 -195 -286 -138 -302 -145 -813 -389 -172 -82 -397
-190 -502 -241 -104 -51 -226 -109 -270 -130 -44 -21 -164 -79 -267 -128 -103
-50 -213 -99 -244 -108 -71 -20 -198 -20 -271 1 -31 9 -214 93 -407 187 -406
197 -960 462 -1126 538 -233 107 -496 233 -545 260 -66 37 -101 76 -114 125
-13 49 -14 105 -2 105 5 0 80 -34 168 -76 87 -42 300 -143 473 -224 173 -81
538 -254 810 -385 758 -363 725 -351 915 -342 155 7 154 6 670 257 105 51 226
109 270 130 81 38 850 406 1180 565 99 47 241 115 315 151 74 35 232 111 350
168 l215 103 3 -41 c2 -22 -4 -58 -13 -81z"/>
</g>
</svg>
