<?xml version="1.0" standalone="no"?>
<!DOCTYPE svg PUBLIC "-//W3C//DTD SVG 20010904//EN"
 "http://www.w3.org/TR/2001/REC-SVG-20010904/DTD/svg10.dtd">
<svg version="1.0" xmlns="http://www.w3.org/2000/svg"
 width="1024.000000pt" height="1024.000000pt" viewBox="0 0 1024.000000 1024.000000"
 preserveAspectRatio="xMidYMid meet">
<metadata>
Created by potrace 1.16, written by Peter Selinger 2001-2019
</metadata>
<g transform="translate(0.000000,1024.000000) scale(0.100000,-0.100000)"
fill="#000000" stroke="none">
<path d="M5492 8578 c-38 -19 -172 -217 -246 -365 -14 -29 -31 -53 -37 -53 -5
0 -8 -4 -5 -9 3 -5 -10 -44 -30 -87 -46 -100 -131 -316 -145 -366 -6 -24 -14
-36 -21 -32 -7 4 -8 3 -4 -5 8 -13 -25 -152 -35 -146 -3 3 -6 -8 -6 -23 1 -15
-9 -79 -21 -142 -12 -63 -25 -168 -29 -232 -3 -69 -10 -115 -15 -112 -6 4 -8
15 -5 25 3 11 1 16 -4 13 -11 -7 -8 -46 4 -55 4 -3 12 -77 17 -165 5 -87 11
-179 14 -204 4 -33 3 -38 -3 -20 -6 16 -9 19 -10 8 -1 -23 10 -49 18 -43 4 2
13 -25 19 -60 7 -35 23 -100 35 -144 13 -44 20 -78 15 -75 -4 3 -8 -2 -8 -11
0 -10 5 -13 12 -9 8 5 9 2 5 -10 -4 -9 -3 -14 2 -11 11 6 46 -100 43 -128 -1
-10 2 -16 6 -13 12 7 54 -83 46 -96 -4 -7 -2 -8 4 -4 10 6 18 -8 10 -17 -2 -1
7 -15 20 -31 12 -16 22 -40 22 -54 0 -39 -22 -102 -33 -95 -6 3 -7 1 -3 -6 9
-13 -62 -231 -75 -231 -5 0 -6 -6 -4 -12 5 -15 -58 -241 -65 -234 -3 2 -5 -10
-6 -27 -2 -55 -66 -271 -76 -254 -4 9 -7 30 -7 49 1 18 -3 105 -9 193 -6 88
-11 167 -11 175 -1 8 -6 53 -11 100 -6 47 -9 93 -6 103 2 9 1 15 -4 12 -4 -2
-10 21 -14 53 -11 95 -45 246 -82 368 -19 64 -36 121 -37 128 -1 6 -4 13 -7
16 -3 3 -21 40 -39 83 -19 43 -54 112 -77 154 -24 42 -41 80 -37 86 3 5 1 7
-4 4 -11 -7 -46 39 -46 60 0 7 -2 11 -5 8 -8 -8 -121 148 -115 158 3 6 2 7 -4
4 -13 -8 -86 67 -76 78 5 4 3 5 -3 2 -14 -8 -107 86 -97 98 5 4 3 5 -3 2 -13
-7 -149 90 -149 106 0 7 -9 12 -20 12 -11 0 -19 6 -17 13 1 8 -2 11 -7 7 -13
-7 -123 54 -116 65 3 5 -3 8 -13 7 -11 0 -48 12 -83 27 -104 47 -184 48 -215
1 -40 -61 -37 -338 6 -587 11 -64 17 -124 13 -135 -3 -10 -2 -14 2 -10 9 7 44
-100 44 -133 1 -13 0 -13 -9 0 -6 9 -10 10 -10 3 0 -7 6 -16 14 -20 11 -6 39
-78 47 -123 1 -3 6 -16 11 -29 5 -13 7 -29 4 -35 -3 -7 -5 -6 -5 2 -2 29 -17
9 -18 -24 0 -20 2 -33 6 -28 3 5 13 10 22 10 19 1 94 -179 83 -198 -4 -6 -3
-8 3 -5 16 10 46 -68 47 -118 0 -51 3 -55 15 -23 8 21 10 20 30 -20 12 -23 19
-48 15 -54 -4 -6 -3 -8 3 -5 13 8 26 -20 16 -35 -3 -7 -1 -8 5 -4 13 8 46 -50
37 -65 -4 -5 -2 -8 4 -7 6 2 21 -12 32 -29 12 -18 17 -33 12 -33 -5 0 -9 -9
-9 -20 0 -11 5 -18 11 -16 5 2 9 9 7 15 -4 18 5 13 24 -16 17 -27 17 -28 -2
-13 -10 8 -2 -3 18 -23 43 -43 71 -91 60 -102 -4 -5 -2 -5 4 -2 14 8 50 -42
46 -62 -2 -7 1 -10 7 -7 12 8 53 -48 43 -58 -4 -4 0 -6 8 -4 9 2 14 -4 14 -14
-1 -10 2 -16 7 -15 13 3 90 -94 82 -106 -3 -5 -2 -7 4 -4 10 7 80 -72 75 -85
-1 -5 1 -7 6 -6 9 3 227 -214 227 -226 0 -5 8 -10 17 -12 10 -1 38 -19 63 -39
44 -37 57 -52 33 -40 -7 4 -5 0 5 -8 16 -14 16 -19 -12 -93 -16 -44 -38 -108
-49 -144 -34 -110 -122 -354 -130 -360 -4 -3 -8 -15 -9 -26 -2 -20 -73 -208
-107 -286 -8 -18 -29 -67 -47 -108 -17 -41 -56 -128 -86 -192 -50 -106 -57
-116 -70 -100 -13 15 -13 15 -3 -6 10 -20 1 -41 -66 -165 -135 -250 -320 -540
-338 -530 -5 3 -6 1 -3 -4 11 -18 -219 -316 -236 -306 -6 3 -7 2 -4 -4 7 -11
-61 -96 -72 -89 -4 3 -12 -8 -19 -23 -7 -15 -56 -71 -111 -124 -75 -74 -103
-96 -117 -91 -16 5 -16 4 -4 -5 14 -10 7 -16 -13 -12 -5 1 -6 -3 -3 -8 7 -11
-129 -123 -138 -114 -3 4 -6 1 -6 -5 0 -18 -122 -103 -140 -97 -12 4 -15 -3
-15 -34 0 -22 1 -38 4 -36 2 3 17 -7 33 -20 16 -14 36 -25 44 -25 17 0 112 59
163 101 19 15 38 26 43 23 5 -3 7 -2 6 3 -2 5 16 25 38 46 29 26 47 35 60 31
13 -4 15 -3 6 3 -9 7 11 31 76 91 49 45 91 80 93 79 2 -1 3 0 2 2 -6 9 130
150 140 144 5 -3 7 -2 4 4 -3 5 22 43 55 84 34 41 86 107 116 146 30 40 59 70
65 66 6 -3 7 -1 3 5 -4 6 16 43 43 81 57 79 158 234 215 329 21 34 43 68 49
75 7 7 13 18 15 25 3 16 121 221 139 243 9 11 38 19 86 23 186 19 418 61 576
107 57 17 110 28 118 25 8 -3 12 -2 9 2 -2 4 41 25 97 47 56 21 133 54 171 72
38 18 72 30 76 28 5 -3 10 -1 12 3 1 5 57 42 123 82 134 80 229 149 337 243
40 35 76 65 81 66 4 0 8 4 8 9 3 19 62 81 71 76 6 -4 9 -3 5 2 -3 5 15 34 39
63 109 131 233 344 270 463 21 68 12 97 -37 127 -65 40 -240 36 -438 -10 -46
-11 -94 -17 -105 -14 -13 4 -17 3 -9 -2 8 -6 -17 -19 -75 -37 -48 -16 -140
-55 -205 -87 -65 -33 -124 -56 -129 -53 -6 4 -8 2 -5 -3 8 -13 -60 -57 -85
-55 -10 0 -17 -3 -15 -8 3 -14 -94 -80 -107 -73 -6 3 -8 3 -4 -2 10 -11 -101
-97 -115 -88 -5 3 -7 1 -4 -4 8 -12 -120 -120 -135 -115 -5 1 -7 -2 -4 -7 7
-11 -84 -92 -96 -85 -5 3 -7 0 -6 -7 2 -7 -4 -14 -12 -14 -8 0 -14 -5 -13 -10
1 -6 -56 -70 -126 -143 -70 -73 -125 -134 -124 -136 2 -1 -6 -11 -18 -22 l-21
-19 17 40 c10 22 40 99 68 172 29 76 54 130 60 126 6 -3 7 -1 3 6 -7 11 59
218 73 231 3 3 7 12 7 20 1 8 38 125 83 259 75 226 132 361 152 361 4 0 19 11
32 24 30 30 142 88 151 78 4 -3 10 -1 14 5 11 16 110 56 339 134 301 102 533
202 708 305 25 14 49 23 55 19 6 -4 9 -1 8 6 -2 6 3 14 11 17 8 3 11 0 7 -7
-5 -7 -1 -9 9 -4 12 4 13 8 5 13 -7 4 7 18 37 35 55 32 260 184 315 233 22 20
42 31 49 26 7 -4 9 -3 6 3 -8 13 67 86 78 76 4 -5 5 -3 1 4 -3 6 2 18 11 25
10 7 50 47 88 88 39 41 74 73 78 72 5 -1 6 2 3 7 -4 5 6 25 22 43 15 18 50 63
77 100 26 37 53 64 58 61 6 -3 7 -1 3 5 -8 14 58 124 69 114 5 -4 5 -2 2 4 -4
6 7 36 23 66 118 218 203 495 179 583 -5 17 -20 42 -34 55 -22 21 -31 22 -97
17 -40 -3 -117 -17 -170 -31 -53 -14 -105 -23 -114 -19 -11 4 -15 2 -11 -4 4
-7 -30 -24 -86 -44 -50 -18 -139 -52 -196 -76 -57 -23 -108 -40 -114 -36 -5 3
-7 2 -4 -4 3 -5 -20 -22 -51 -37 -76 -38 -258 -143 -305 -177 -21 -15 -44 -26
-52 -23 -7 3 -16 1 -20 -5 -4 -7 1 -9 12 -5 12 3 10 -1 -7 -13 -13 -10 -72
-55 -130 -100 -57 -45 -109 -79 -114 -76 -5 4 -6 1 -3 -4 7 -11 -112 -120
-126 -115 -5 1 -6 -1 -3 -6 7 -12 -51 -67 -72 -67 -9 0 -16 -6 -14 -14 4 -18
-18 -42 -31 -34 -5 3 -7 1 -4 -4 8 -13 -27 -46 -37 -36 -4 5 -6 3 -4 -3 3 -12
-141 -190 -152 -187 -4 1 -7 -4 -7 -11 0 -17 -83 -127 -92 -122 -4 3 -13 0
-21 -6 -12 -8 -12 -9 3 -4 22 7 22 1 -5 -34 -11 -16 -26 -26 -31 -23 -6 3 -7
1 -4 -4 4 -6 -19 -53 -52 -105 -32 -51 -93 -156 -136 -233 -42 -77 -75 -132
-72 -123 3 9 11 35 17 58 7 26 15 38 22 34 8 -5 9 -1 5 11 -10 25 23 140 35
123 6 -9 7 -6 3 8 -6 25 62 224 77 224 6 0 8 7 4 15 -5 14 135 373 151 384 4
3 9 15 11 26 5 30 114 265 121 261 3 -2 6 6 7 17 1 12 29 83 63 157 113 244
186 502 212 737 19 182 7 499 -24 653 -40 190 -72 294 -132 416 -73 150 -120
187 -193 152z m98 -280 c31 -79 37 -105 20 -78 -9 13 -10 13 -10 0 0 -8 5 -22
10 -30 9 -13 10 -13 11 0 1 27 28 -59 50 -161 11 -55 19 -109 16 -119 -3 -11
-1 -18 3 -15 11 7 25 -188 23 -332 -2 -135 -24 -314 -53 -438 -28 -115 -31
-125 -40 -120 -5 3 -6 -3 -4 -13 3 -9 -9 -58 -26 -107 -18 -50 -34 -98 -37
-107 -3 -10 -10 -15 -16 -11 -5 3 -7 1 -3 -5 9 -15 -74 -203 -87 -195 -5 3 -7
1 -4 -4 8 -12 -66 -176 -75 -167 -3 3 -5 -1 -5 -8 1 -7 -27 -85 -62 -172 l-65
-159 -11 34 c-7 19 -10 39 -8 45 2 6 -3 14 -11 17 -30 12 -136 388 -139 497
-1 30 -6 58 -11 62 -14 10 -12 391 3 498 16 123 53 287 92 414 43 140 110 307
120 300 5 -3 6 1 4 9 -11 27 140 321 158 310 6 -3 7 -1 3 6 -8 12 17 59 68
128 30 40 31 41 43 20 7 -12 26 -57 43 -99z m-1863 -1214 c13 -4 20 -11 16
-17 -3 -6 -1 -7 6 -3 15 10 124 -41 116 -54 -4 -6 1 -7 11 -3 11 4 15 3 10 -5
-3 -6 -1 -14 5 -18 8 -4 9 -3 5 4 -14 23 11 12 73 -32 61 -43 91 -68 62 -51
-10 5 -12 4 -7 -4 4 -6 12 -9 17 -5 14 8 50 -26 42 -39 -3 -5 -2 -8 3 -4 14 8
47 -20 41 -36 -3 -7 1 -14 9 -14 7 0 10 5 7 11 -3 6 10 -4 30 -23 22 -21 33
-40 30 -50 -3 -11 -2 -12 4 -4 14 20 86 -57 77 -83 -4 -13 -3 -15 3 -6 7 9 14
7 29 -10 35 -40 50 -62 37 -54 -7 4 -13 3 -13 -3 0 -5 12 -16 26 -23 14 -7 35
-29 47 -47 12 -19 16 -32 10 -28 -6 4 -13 0 -17 -8 -3 -8 -1 -17 4 -20 6 -4
10 -1 10 4 0 18 19 12 30 -10 9 -17 8 -23 -6 -33 -15 -11 -15 -13 0 -13 9 0
16 5 16 11 0 6 7 3 15 -7 7 -11 11 -26 8 -35 -4 -9 -2 -13 4 -9 14 9 54 -88
47 -111 -4 -12 -3 -14 3 -4 17 22 47 -71 33 -100 -10 -20 -9 -21 3 -6 12 15
15 12 30 -30 53 -153 89 -322 116 -542 30 -239 37 -345 22 -336 -16 10 -14 -4
3 -23 11 -12 16 -57 20 -164 3 -82 9 -154 13 -159 4 -7 1 -8 -8 -3 -11 6 -12
5 -1 -6 14 -15 16 -49 3 -49 -12 0 -32 25 -26 33 3 4 2 5 -2 2 -11 -8 -93 77
-86 89 3 6 2 8 -2 3 -11 -10 -86 63 -78 76 3 6 1 7 -4 4 -14 -9 -145 141 -137
155 4 6 2 8 -4 4 -13 -8 -54 43 -45 57 3 5 1 7 -5 3 -11 -7 -79 80 -74 95 1 5
-2 8 -7 7 -14 -4 -113 141 -105 154 4 6 3 8 -3 5 -12 -7 -47 39 -39 51 3 4 0
14 -6 22 -8 12 -9 12 -4 -2 31 -97 -157 241 -229 412 -66 154 -173 516 -161
545 3 8 1 15 -4 17 -22 8 -74 528 -53 528 4 0 18 -3 30 -6z m3588 -213 c-10
-39 -22 -71 -27 -71 -5 0 -7 -4 -4 -9 13 -20 -53 -181 -73 -182 -10 0 -11 -2
-4 -5 19 -8 -6 -54 -26 -47 -12 4 -13 2 -3 -4 17 -13 8 -34 -61 -148 -31 -49
-60 -89 -67 -87 -6 1 -9 -2 -5 -8 8 -13 -115 -181 -127 -174 -5 3 -8 2 -7 -3
4 -21 -2 -24 -18 -12 -16 13 -17 12 -5 -3 12 -15 3 -28 -78 -112 -51 -53 -97
-93 -103 -89 -5 3 -7 1 -4 -4 13 -22 -274 -246 -301 -235 -10 3 -13 1 -8 -6 8
-14 -50 -53 -229 -150 -152 -84 -354 -174 -373 -167 -7 3 -11 1 -8 -3 7 -12
-61 -35 -75 -26 -7 4 -9 3 -6 -3 8 -13 -114 -55 -139 -47 -13 4 -15 3 -6 -3 8
-6 -6 -15 -45 -27 -84 -26 -241 -85 -294 -110 l-45 -22 73 148 c41 82 82 157
91 167 9 10 18 24 20 32 8 33 64 119 74 113 7 -4 8 -2 4 5 -14 21 217 337 237
324 6 -3 7 -1 3 5 -9 15 143 184 158 175 6 -3 8 -2 3 2 -10 12 63 86 77 78 6
-3 8 -2 3 2 -9 11 63 86 75 79 5 -3 7 -2 6 3 -3 8 51 60 135 131 21 18 43 29
49 26 7 -5 8 -2 3 6 -6 10 -4 12 9 7 9 -4 15 -3 12 2 -7 11 25 39 117 100 42
29 83 49 89 45 6 -4 8 -3 5 3 -13 20 259 167 290 157 13 -4 14 -3 5 3 -9 7 12
20 71 47 46 20 90 35 98 33 8 -2 10 -2 5 1 -13 7 205 84 220 78 7 -3 14 -1 16
4 3 9 199 60 206 54 2 -1 -4 -34 -13 -73z m-1007 -2353 c-2 -13 -9 -22 -15
-21 -7 2 -10 -4 -7 -11 10 -27 -150 -281 -169 -269 -6 3 -7 1 -3 -6 10 -15
-92 -133 -107 -124 -6 4 -8 0 -4 -9 6 -18 -65 -93 -77 -81 -4 5 -6 2 -4 -6 4
-19 -115 -119 -254 -211 -137 -91 -320 -183 -363 -182 -16 0 -24 -2 -17 -5 25
-9 -143 -72 -328 -122 -163 -45 -394 -83 -410 -67 -7 7 -10 7 -10 -1 0 -6 -11
-13 -25 -15 -24 -5 -24 -5 -7 16 58 69 116 125 126 119 6 -3 8 -3 4 2 -10 10
50 85 65 82 6 -1 11 4 12 11 0 21 126 153 138 145 7 -3 9 -2 4 2 -10 11 63 86
76 78 6 -3 7 -1 4 4 -12 19 354 338 386 338 7 0 11 -6 9 -13 -1 -8 2 -11 8 -7
8 5 8 11 0 21 -10 11 5 24 74 69 48 32 91 53 98 49 6 -4 8 -3 5 3 -8 13 89 66
105 57 6 -4 8 -3 5 3 -4 6 20 22 54 38 171 76 400 133 542 134 86 1 88 0 85
-21z"/>
</g>
</svg>
