<?xml version="1.0" standalone="no"?>
<!DOCTYPE svg PUBLIC "-//W3C//DTD SVG 20010904//EN"
 "http://www.w3.org/TR/2001/REC-SVG-20010904/DTD/svg10.dtd">
<svg version="1.0" xmlns="http://www.w3.org/2000/svg"
 width="1024.000000pt" height="1024.000000pt" viewBox="0 0 1024.000000 1024.000000"
 preserveAspectRatio="xMidYMid meet">
<metadata>
Created by potrace 1.16, written by Peter Selinger 2001-2019
</metadata>
<g transform="translate(0.000000,1024.000000) scale(0.100000,-0.100000)"
fill="#000000" stroke="none">
<path d="M2605 6630 c-5 -8 -21 -10 -44 -6 -21 3 -30 2 -23 -3 10 -6 8 -10
-10 -14 -14 -4 -41 -18 -62 -32 -21 -14 -43 -22 -49 -19 -7 4 -9 4 -5 0 8 -10
-58 -99 -81 -108 -9 -4 -10 -7 -4 -7 8 -1 0 -25 -22 -63 -59 -108 -155 -291
-182 -346 -19 -39 -28 -50 -35 -40 -7 10 -8 8 -4 -5 3 -11 -28 -86 -83 -195
-48 -97 -96 -201 -105 -230 -10 -28 -21 -50 -26 -47 -11 7 -23 -31 -15 -45 4
-6 2 -34 -4 -63 -24 -115 -31 -220 -30 -485 0 -152 2 -304 4 -337 1 -33 6
-154 10 -270 9 -319 28 -443 86 -572 15 -35 24 -63 19 -63 -6 0 -10 -4 -10
-10 0 -5 6 -7 13 -5 6 3 18 -4 25 -16 8 -12 9 -18 3 -14 -6 3 -11 1 -11 -4 0
-6 7 -11 15 -11 17 0 37 -34 27 -45 -4 -5 -1 -5 6 -1 9 6 12 2 10 -10 -2 -10
2 -19 9 -19 6 0 50 -45 98 -100 49 -55 104 -117 124 -138 20 -21 35 -42 33
-48 -1 -6 2 -8 7 -5 5 3 58 -47 117 -112 60 -64 149 -160 199 -212 97 -103
187 -209 168 -197 -6 4 -14 3 -18 -2 -3 -6 3 -8 13 -6 13 2 34 -11 58 -36 27
-28 33 -38 19 -34 -16 5 -17 5 -5 -3 8 -6 17 -9 20 -7 4 2 39 -32 79 -75 40
-44 70 -80 67 -80 -2 0 -12 8 -22 17 -13 13 -16 14 -12 3 2 -8 14 -20 26 -26
34 -17 62 -46 55 -57 -3 -5 -2 -7 4 -4 18 12 178 -196 166 -216 -3 -6 -1 -7 5
-3 14 8 72 -111 101 -207 39 -130 66 -322 84 -611 3 -50 8 -63 31 -83 35 -30
61 -29 93 3 l26 26 -6 131 c-21 433 -95 696 -256 910 -66 88 -275 328 -398
458 -102 107 -124 134 -115 144 4 5 2 5 -4 2 -13 -7 -361 359 -357 374 2 5 -1
8 -5 6 -12 -3 -214 213 -278 299 -62 81 -108 178 -129 268 -37 158 -62 1125
-35 1346 24 193 58 275 313 765 69 132 130 239 137 237 6 -1 9 2 5 8 -8 13 46
108 82 142 33 31 72 48 115 48 22 0 29 -4 25 -15 -4 -8 -2 -17 3 -20 6 -4 10
1 10 9 0 9 4 16 9 16 16 0 61 -42 55 -51 -3 -5 0 -8 7 -7 8 2 22 -13 32 -32
14 -28 17 -50 14 -105 -6 -88 -47 -226 -59 -199 -6 15 -7 13 -4 -6 6 -32 -3
-72 -15 -64 -5 3 -6 -1 -4 -8 3 -8 -6 -40 -20 -73 -14 -33 -24 -50 -21 -37 2
13 0 20 -6 16 -5 -3 -7 -15 -5 -26 6 -20 -76 -282 -85 -273 -2 3 -5 -10 -5
-28 0 -17 -6 -71 -14 -119 -13 -84 -15 -88 -39 -88 -14 0 -50 -7 -80 -16 -30
-9 -67 -16 -82 -15 -16 0 -28 -4 -28 -9 0 -5 8 -7 18 -3 9 3 -4 -13 -30 -36
-70 -62 -109 -148 -109 -238 0 -75 10 -126 41 -198 14 -32 16 -45 7 -49 -8 -3
-6 -5 3 -6 8 0 47 -54 87 -118 40 -64 82 -133 95 -151 12 -19 17 -32 10 -27
-6 4 -12 2 -12 -3 0 -6 7 -11 15 -11 17 0 69 -85 61 -99 -4 -5 -1 -13 5 -17 8
-4 9 -3 5 4 -4 7 -5 12 -2 12 6 0 156 -263 156 -274 0 -4 -4 -5 -8 -2 -5 3 -9
-1 -9 -9 0 -11 4 -12 13 -4 9 7 20 -5 45 -48 37 -66 144 -230 166 -255 8 -9
12 -22 8 -28 -3 -6 -2 -9 4 -8 14 4 92 -92 84 -105 -3 -5 -1 -7 5 -3 11 7 85
-77 88 -101 2 -8 6 -18 10 -21 4 -4 4 2 0 13 -5 14 3 11 28 -14 19 -19 32 -39
29 -45 -3 -6 -3 -8 2 -4 4 4 19 -2 33 -12 47 -38 106 -15 118 46 6 29 -1 39
-77 120 -120 129 -189 216 -182 227 3 6 2 7 -4 4 -11 -7 -122 150 -191 270
-26 45 -40 78 -36 90 4 12 3 14 -3 6 -6 -9 -29 23 -74 104 -35 65 -100 174
-143 243 -209 330 -231 379 -224 478 5 71 34 117 92 143 63 29 201 21 201 -11
0 -7 7 -15 15 -17 13 -4 13 -3 0 6 -8 6 -10 11 -5 11 43 0 236 -169 230 -202
-2 -10 0 -16 6 -13 5 4 7 11 4 16 -4 5 -4 9 -1 9 3 0 48 -53 101 -117 80 -98
93 -119 82 -132 -10 -14 -10 -14 4 -3 14 10 19 8 35 -15 10 -16 17 -32 16 -36
-1 -5 2 -6 7 -3 10 7 61 -56 61 -75 0 -7 2 -10 5 -7 3 3 34 -24 68 -61 34 -36
68 -70 75 -76 7 -6 14 -17 15 -25 4 -24 18 -41 28 -34 12 7 100 -72 91 -81 -4
-4 -2 -5 4 -3 18 5 76 -41 68 -54 -4 -6 -3 -8 4 -5 11 7 139 -72 140 -86 0 -5
4 -12 8 -15 4 -4 4 -1 0 6 -11 18 4 14 47 -12 26 -16 34 -26 25 -30 -7 -3 -4
-5 7 -3 29 3 216 -83 208 -96 -3 -6 -1 -7 5 -3 11 6 112 -38 112 -50 0 -3 -5
-2 -12 2 -7 4 -8 3 -4 -5 4 -6 11 -9 16 -6 5 3 24 -3 42 -13 71 -41 108 -64
108 -69 0 -2 -5 -1 -12 3 -7 4 -8 3 -4 -5 4 -6 12 -9 17 -6 17 11 313 -232
314 -259 1 -6 6 -10 12 -9 36 7 323 -378 308 -415 -2 -7 -1 -11 4 -8 13 8 76
-138 114 -265 42 -137 61 -266 56 -376 -2 -45 -1 -76 3 -70 4 7 7 -119 5 -280
-1 -160 -5 -286 -9 -280 -5 7 -8 3 -8 -11 0 -13 4 -21 9 -17 6 3 10 -100 11
-271 0 -193 4 -283 12 -298 7 -11 12 -23 11 -26 -1 -3 11 -6 25 -7 36 -3 80
15 92 38 6 11 10 263 9 661 0 426 3 667 10 713 17 108 38 193 70 292 47 145
172 380 194 366 6 -3 7 -1 4 4 -14 22 215 289 235 277 6 -4 8 -2 4 4 -8 14
182 175 196 166 6 -4 8 -3 5 3 -8 13 110 96 125 87 7 -4 8 -3 4 4 -8 14 30 36
46 26 6 -4 8 -3 4 4 -4 6 55 42 153 91 88 45 163 81 166 81 3 0 3 -6 -1 -12
-4 -7 3 -3 16 10 12 13 29 21 37 18 8 -3 12 -2 9 3 -3 4 18 21 47 36 82 44
215 138 301 212 44 37 83 67 88 66 4 -2 7 1 5 5 -3 12 205 248 216 244 5 -1 6
1 3 6 -3 5 13 31 36 58 22 27 72 88 111 136 38 48 74 85 80 81 5 -3 7 -1 4 4
-9 15 101 125 115 117 6 -4 8 -3 5 4 -9 13 75 75 138 103 65 29 173 28 221 -2
19 -11 32 -25 28 -30 -3 -5 0 -8 7 -7 21 5 49 -62 49 -114 0 -74 -31 -141
-175 -371 -73 -118 -141 -229 -150 -246 -9 -19 -20 -29 -27 -25 -7 4 -8 3 -4
-4 6 -11 -29 -92 -40 -92 -3 0 -2 6 1 13 4 6 -3 1 -14 -13 -13 -16 -21 -20
-21 -11 0 8 -3 12 -6 9 -3 -4 -1 -16 6 -27 9 -18 6 -30 -16 -71 -15 -27 -31
-47 -37 -43 -6 3 -7 1 -3 -5 14 -23 -237 -390 -264 -384 -6 1 -9 -2 -5 -7 8
-14 -65 -92 -78 -84 -5 3 -7 2 -4 -4 7 -11 -66 -86 -76 -78 -4 3 -5 2 -2 -2 3
-3 -3 -15 -12 -26 -16 -17 -27 -107 -13 -105 3 1 17 -4 32 -12 43 -20 69 -6
161 87 195 200 278 319 502 718 61 110 153 264 203 342 146 227 192 335 192
450 0 165 -117 296 -278 310 l-59 6 -7 61 c-9 89 -49 228 -112 394 -141 368
-165 484 -118 562 12 19 27 34 33 32 7 -1 10 2 6 8 -9 15 56 50 94 50 36 0
121 -35 121 -50 0 -5 -6 -11 -12 -14 -7 -3 -4 -4 6 -3 13 1 30 -13 50 -41 26
-36 28 -45 16 -53 -13 -9 -13 -10 0 -6 10 2 25 -14 43 -47 39 -71 68 -138 57
-131 -6 4 -10 1 -10 -4 0 -6 8 -11 18 -11 13 0 14 -2 3 -9 -9 -6 -10 -11 -2
-15 6 -4 11 -4 11 1 0 12 37 -51 55 -92 9 -22 10 -33 3 -29 -8 5 -9 1 -5 -10
4 -10 7 -21 7 -24 0 -4 4 -1 9 6 11 17 72 -98 69 -130 -2 -15 2 -22 10 -20 20
4 135 -242 127 -271 -5 -17 -4 -19 4 -7 6 9 11 10 11 3 0 -6 3 -20 6 -30 5
-15 4 -15 -5 -3 -9 13 -11 11 -11 -7 0 -23 20 -43 21 -21 0 7 7 -5 15 -27 8
-22 13 -50 11 -62 -2 -12 -1 -20 4 -18 18 12 24 -133 22 -520 -1 -479 -16
-814 -38 -900 -29 -113 -164 -346 -196 -337 -6 1 -8 -1 -5 -6 3 -5 -27 -44
-65 -86 -62 -66 -73 -75 -88 -64 -14 12 -14 11 -3 -4 12 -16 3 -30 -89 -127
-56 -61 -106 -108 -111 -105 -5 3 -7 0 -6 -7 2 -7 -4 -13 -12 -14 -8 0 -15 -5
-15 -11 0 -19 -146 -174 -158 -167 -5 3 -7 1 -4 -4 8 -13 -27 -46 -38 -36 -4
5 -5 3 -2 -3 8 -15 -132 -166 -146 -157 -5 3 -7 2 -4 -3 3 -6 -19 -37 -49 -69
-30 -33 -78 -86 -106 -117 -28 -32 -56 -55 -62 -51 -6 3 -8 3 -4 -2 10 -11
-51 -87 -64 -79 -6 4 -8 3 -5 -2 3 -5 -17 -39 -45 -74 -28 -36 -64 -89 -80
-118 -17 -28 -33 -50 -37 -48 -4 3 -7 -3 -8 -12 -2 -32 -56 -150 -67 -148 -6
2 -8 1 -3 -1 4 -3 7 -11 7 -19 0 -9 -5 -12 -12 -8 -7 4 -8 3 -4 -5 4 -6 -2
-57 -13 -114 -21 -104 -44 -299 -57 -465 -5 -74 -3 -101 10 -136 15 -39 20
-43 52 -44 25 -1 42 5 58 21 20 20 24 37 30 130 9 140 33 367 46 437 39 210
129 378 295 556 5 6 64 70 129 142 66 73 124 128 130 125 6 -3 8 -3 4 2 -9 9
11 31 251 285 301 316 393 416 475 512 26 32 52 56 56 53 4 -3 14 3 21 13 13
15 12 16 -3 3 -22 -17 -23 -8 -2 24 9 14 21 22 27 18 6 -3 7 -1 3 5 -4 6 5 30
20 52 15 22 41 78 59 125 17 47 35 82 39 78 4 -4 4 -1 1 8 -3 8 1 58 10 110 8
52 15 123 16 159 0 46 3 59 9 45 8 -19 9 -19 9 2 1 12 -3 24 -8 27 -4 3 -7 34
-5 68 2 35 6 248 10 473 9 521 -3 634 -86 842 -49 123 -418 838 -465 902 -33
45 -58 66 -106 90 -34 17 -77 31 -96 31 -24 0 -32 4 -27 13 6 10 4 10 -7 0 -7
-7 -29 -13 -49 -13 -46 0 -128 -39 -179 -85 -39 -35 -91 -127 -91 -160 0 -12
-4 -14 -19 -5 -11 5 -29 10 -40 10 -10 0 -22 6 -24 13 -4 9 -6 9 -6 -1 -1 -7
-5 -11 -10 -8 -5 3 -33 1 -62 -5 -30 -6 -62 -12 -71 -12 -9 -1 -15 -3 -13 -5
2 -2 -15 -18 -38 -36 -57 -44 -112 -150 -121 -237 l-7 -64 -82 0 c-48 0 -94
-6 -112 -14 -16 -8 -36 -13 -44 -12 -7 1 -10 -2 -7 -7 7 -12 -58 -74 -69 -65
-4 5 -5 3 -1 -4 4 -7 0 -23 -8 -35 -38 -59 -63 -186 -67 -346 -2 -53 -5 -72
-14 -68 -7 2 -31 10 -54 17 -22 7 -38 16 -34 22 3 6 1 7 -5 3 -5 -3 -62 7
-126 24 -64 16 -155 34 -203 40 -49 5 -92 11 -98 11 -16 3 -172 -11 -258 -22
-42 -5 -83 -7 -90 -3 -6 4 -8 3 -4 -1 9 -10 -91 -36 -252 -65 -124 -22 -313
-27 -416 -10 -104 16 -314 63 -310 69 2 3 -13 6 -33 7 -71 1 -211 17 -208 23
5 8 -220 -6 -314 -19 -84 -13 -218 -47 -329 -85 -41 -14 -76 -23 -78 -22 -2 2
-8 64 -13 138 -19 244 -68 347 -196 406 -45 21 -66 24 -112 21 -32 -3 -64 -8
-72 -12 -12 -5 -15 5 -17 52 -3 89 -37 168 -97 227 -61 60 -87 80 -103 81 -7
1 -25 2 -39 3 -16 0 -23 5 -18 13 5 8 2 9 -12 4 -17 -7 -128 -26 -130 -22 0 0
-8 22 -18 48 -34 91 -130 172 -233 197 -21 5 -45 12 -54 16 -10 3 -20 1 -24
-5z m503 -420 c22 -14 32 -26 28 -36 -3 -9 -2 -12 4 -9 18 11 40 -62 40 -129
0 -82 -25 -204 -48 -230 -9 -11 -11 -16 -4 -12 15 9 15 1 2 -44 -17 -60 -60
-356 -60 -415 0 -3 -4 -4 -9 0 -15 8 -21 -9 -9 -25 8 -12 8 -11 3 5 -4 13 -3
17 4 10 5 -5 11 -41 13 -80 l3 -70 -27 0 c-14 1 -24 -3 -22 -7 3 -4 -11 -10
-30 -14 -32 -5 -41 -1 -103 52 -37 32 -67 62 -65 67 1 4 -1 6 -6 3 -10 -6
-104 48 -96 57 3 3 -5 3 -18 0 -19 -5 -21 -3 -10 8 14 16 16 33 2 24 -15 -9
-12 21 9 126 27 128 70 261 84 252 6 -3 7 -1 3 6 -4 6 11 57 32 114 22 56 55
149 73 207 39 128 66 160 131 160 26 0 56 -8 76 -20z m4222 5 c25 -13 34 -30
59 -108 16 -50 41 -123 55 -161 15 -39 24 -76 21 -84 -2 -7 -1 -11 4 -7 20 12
132 -323 135 -402 0 -24 5 -43 10 -43 4 0 6 -9 3 -19 -2 -10 -1 -25 4 -32 6
-10 -11 -24 -63 -51 -39 -20 -75 -35 -80 -32 -5 3 -7 0 -6 -8 2 -7 -5 -12 -14
-12 -10 1 -16 -2 -13 -6 3 -5 -19 -29 -50 -53 -40 -33 -61 -44 -77 -40 -13 3
-40 9 -60 14 l-37 10 0 117 c0 171 -17 296 -63 482 -62 252 -55 364 28 429 32
25 101 28 144 6z m-3830 -364 c17 -13 24 -26 22 -42 -2 -18 -1 -21 7 -10 18
27 43 -93 50 -244 3 -78 5 -148 3 -156 -3 -15 -194 -115 -296 -156 -33 -13
-60 -23 -61 -23 -3 0 4 169 10 240 9 97 50 302 69 337 19 39 52 66 67 57 7 -4
10 -3 5 4 -16 27 84 21 124 -7z m3450 0 c14 -10 25 -26 25 -35 0 -9 6 -20 12
-24 26 -16 73 -213 59 -247 -3 -8 -1 -15 3 -15 5 0 12 -40 16 -90 6 -75 5 -92
-9 -105 -9 -9 -16 -22 -16 -28 0 -7 7 -4 14 5 17 24 26 13 26 -34 0 -26 -4
-38 -14 -38 -21 0 -80 27 -70 32 5 3 3 3 -4 2 -17 -5 -142 58 -136 68 3 4 -2
5 -10 2 -10 -4 -16 -1 -16 7 0 7 -3 10 -6 6 -7 -6 -78 27 -98 45 -16 15 -2
281 18 351 17 60 48 100 87 116 31 13 88 5 119 -18z m-2460 -421 c53 -5 185
-27 295 -49 249 -49 275 -53 410 -52 131 0 206 10 414 55 285 63 413 68 620
25 128 -27 313 -88 304 -102 -3 -6 -1 -7 5 -3 16 10 133 -44 125 -57 -3 -6 -1
-7 5 -3 14 9 163 -65 155 -77 -3 -6 -2 -7 4 -4 13 8 216 -77 206 -87 -4 -4 -1
-5 7 -2 8 3 58 -8 110 -24 78 -24 109 -38 67 -31 -5 1 -6 -2 -3 -7 5 -9 -14
-34 -148 -195 -48 -59 -93 -104 -99 -100 -6 3 -7 1 -3 -5 7 -11 -50 -83 -62
-79 -4 1 -8 -2 -9 -6 -2 -16 -56 -67 -70 -67 -7 0 -12 -3 -11 -7 8 -23 -153
-166 -176 -157 -8 3 -17 1 -21 -5 -4 -7 0 -8 11 -4 35 13 3 -16 -56 -52 -33
-20 -65 -33 -71 -29 -8 5 -9 3 -4 -6 6 -10 4 -12 -9 -7 -10 4 -15 3 -11 -3 6
-9 -63 -44 -222 -116 -29 -12 -53 -20 -53 -16 0 4 -4 2 -8 -5 -12 -19 -133
-83 -145 -76 -5 3 -7 1 -4 -5 7 -10 -88 -75 -111 -75 -6 0 -10 -2 -8 -5 3 -2
-32 -31 -77 -65 -45 -33 -115 -90 -156 -126 -41 -36 -75 -65 -77 -63 -2 1 -4
-1 -4 -5 -1 -16 -74 -82 -83 -76 -6 4 -7 1 -2 -6 8 -14 -33 -63 -47 -55 -5 3
-7 1 -6 -4 5 -16 -63 -103 -74 -96 -7 4 -8 2 -4 -5 5 -7 -4 -27 -19 -47 -15
-20 -51 -76 -79 -125 -29 -49 -56 -86 -61 -82 -4 5 -5 3 -2 -3 8 -15 -12 -76
-23 -69 -4 3 -8 -1 -7 -8 1 -34 -4 -48 -15 -41 -7 4 -8 3 -4 -4 8 -14 -13 -92
-26 -92 -4 0 -7 -3 -7 -7 5 -32 -5 -19 -21 27 -11 30 -18 62 -15 70 4 8 3 11
-1 7 -9 -9 -106 192 -98 204 3 5 0 8 -8 7 -7 -2 -12 5 -12 14 1 10 -1 16 -5
13 -4 -2 -16 10 -26 28 -10 18 -38 58 -62 91 -24 32 -40 62 -37 67 3 5 1 8 -4
7 -5 -2 -43 36 -85 83 -41 47 -102 110 -136 139 -33 29 -58 57 -55 62 3 4 1 7
-5 6 -16 -5 -161 113 -154 125 3 6 1 7 -5 3 -6 -4 -33 9 -59 28 -26 18 -79 53
-118 76 -38 23 -72 45 -75 49 -3 3 -10 7 -16 8 -7 1 -91 41 -188 88 -110 54
-174 90 -170 97 4 7 2 8 -4 4 -22 -13 -307 199 -299 222 1 4 -1 7 -5 7 -14 0
-57 48 -51 58 3 6 1 7 -4 4 -18 -11 -371 400 -355 413 4 4 52 19 107 35 101
29 260 92 368 146 32 17 63 27 69 23 6 -4 8 -3 5 3 -8 13 142 83 258 122 137
45 210 62 325 76 133 16 163 17 280 5z"/>
</g>
</svg>
