<?xml version="1.0" standalone="no"?>
<!DOCTYPE svg PUBLIC "-//W3C//DTD SVG 20010904//EN"
 "http://www.w3.org/TR/2001/REC-SVG-20010904/DTD/svg10.dtd">
<svg version="1.0" xmlns="http://www.w3.org/2000/svg"
 width="1024.000000pt" height="1024.000000pt" viewBox="0 0 1024.000000 1024.000000"
 preserveAspectRatio="xMidYMid meet">
<metadata>
Created by potrace 1.16, written by Peter Selinger 2001-2019
</metadata>
<g transform="translate(0.000000,1024.000000) scale(0.100000,-0.100000)"
fill="#000000" stroke="none">
<path d="M2179 8210 c-1019 -5 -1037 -5 -1059 -25 -12 -11 -27 -31 -32 -45 -6
-16 -10 -700 -10 -1820 0 -1028 -4 -1804 -9 -1818 -5 -14 -5 -21 0 -18 5 4 9
-439 9 -1077 -1 -784 2 -1089 10 -1104 7 -12 27 -31 46 -42 l33 -21 2592 0
c2854 0 2632 -5 2665 61 14 29 16 308 16 2937 l0 2904 -34 34 -34 34 -709 0
c-389 0 -1099 1 -1578 3 -478 1 -1336 0 -1906 -3z m601 -213 c0 -5 6 -4 14 2
8 7 30 11 48 9 23 -2 -25 -18 -159 -51 -106 -27 -197 -45 -204 -41 -7 4 -9 3
-6 -2 7 -13 -327 -99 -344 -89 -8 5 -10 4 -5 -3 4 -7 1 -12 -6 -12 -19 0 -384
-97 -433 -115 -77 -28 -74 -5 -76 -609 0 -329 -4 -536 -10 -536 -6 0 -6 -7 -1
-17 13 -25 14 -701 1 -709 -6 -4 -7 -10 0 -17 10 -13 10 -441 -1 -452 -4 -4
-3 -17 2 -29 4 -12 7 -589 6 -1283 0 -693 2 -1259 5 -1257 3 2 11 -7 17 -21 6
-13 8 -25 4 -28 -4 -2 -1 -2 7 0 7 2 19 -1 25 -6 7 -6 147 -46 311 -90 456
-123 467 -126 458 -134 -4 -5 -1 -5 8 -2 8 3 78 -10 154 -28 l139 -35 -722 -1
-722 -1 0 308 c0 169 -1 1421 -3 2783 l-2 2475 748 1 c485 0 747 -3 747 -10z
m3458 -2775 l2 -2782 -392 0 c-296 0 -395 3 -407 13 -11 8 -13 9 -8 0 6 -9
-131 -12 -588 -12 -583 -1 -595 0 -605 19 -6 11 -15 20 -21 20 -6 0 -3 -7 5
-16 9 -8 16 -17 16 -20 0 -2 -158 -4 -352 -3 -261 0 -356 3 -367 12 -12 10
-13 9 -7 -1 7 -11 -13 -13 -110 -10 l-119 3 0 138 0 137 1287 0 1287 0 26 23
c17 14 30 39 36 67 13 68 11 4776 -2 4823 -7 26 -21 44 -42 57 -31 19 -62 20
-1313 20 l-1282 0 0 148 1 147 1476 0 1476 -1 3 -2782z m-3165 2566 c7 -64 5
-1873 -1 -2029 l-3 -86 -73 -1 c-93 -1 -141 -14 -193 -52 -79 -58 -78 -51 -79
-520 -1 -376 1 -420 17 -464 10 -27 15 -54 12 -59 -3 -6 -1 -7 6 -3 7 4 26 -5
46 -23 19 -16 50 -33 70 -37 19 -3 35 -9 35 -13 0 -3 36 -5 80 -3 l80 4 0
-972 c0 -920 -1 -971 -17 -967 -10 3 -60 15 -110 27 -51 12 -91 26 -88 30 2 4
-7 5 -22 2 -18 -3 -24 -1 -19 6 4 8 2 10 -8 6 -16 -6 -249 56 -254 68 -2 5 -8
6 -12 3 -11 -7 -204 46 -208 57 -2 4 -7 6 -11 4 -4 -3 -102 20 -217 50 -115
30 -227 59 -249 65 l-40 10 0 2099 c0 1154 3 2096 7 2094 4 -2 10 1 14 7 4 8
3 9 -4 5 -14 -8 -13 -23 -17 231 l-3 193 51 15 c164 46 280 73 298 70 11 -2
17 0 14 4 -6 11 283 84 297 75 6 -4 8 -3 5 2 -8 13 272 85 303 78 16 -4 21 -3
12 3 -8 6 33 21 125 45 76 20 141 37 144 37 3 1 9 -27 12 -61z m2647 -2567 l0
-2289 -24 -6 c-13 -3 -562 -6 -1219 -6 l-1196 1 1 2294 1 2295 1218 0 1219 0
0 -2289z m-2645 197 c3 -13 4 -177 3 -365 -2 -275 -6 -343 -16 -343 -8 0 -10
5 -6 13 6 8 3 8 -9 -2 -10 -8 -34 -12 -62 -9 -25 2 -45 -1 -45 -5 0 -5 -4 -5
-10 -2 -6 4 -10 138 -10 371 l0 364 75 0 c69 0 75 -2 80 -22z"/>
<path d="M8869 5932 c-18 -2 -44 -23 -79 -63 -28 -33 -56 -56 -62 -53 -6 4 -8
3 -5 -3 7 -10 -34 -52 -94 -95 -67 -49 -165 -83 -286 -98 -75 -10 -217 -4
-209 9 2 3 -12 6 -32 5 -53 -2 -337 100 -327 116 2 4 -6 6 -18 5 -12 -1 -27 2
-33 6 -23 18 -175 58 -265 69 -74 10 -112 10 -179 0 -47 -7 -101 -13 -122 -14
-20 0 -34 -4 -31 -8 2 -5 -1 -8 -8 -8 -21 0 -153 -68 -192 -99 -21 -16 -44
-29 -50 -27 -7 1 -9 1 -5 -1 4 -3 -11 -28 -33 -56 -35 -43 -40 -55 -34 -81 4
-17 8 -39 8 -48 1 -9 4 -16 7 -15 3 1 19 -7 37 -16 52 -28 80 -22 137 29 119
108 208 144 361 144 85 0 176 -10 170 -19 -2 -4 8 -6 23 -6 33 2 136 -38 125
-49 -4 -4 0 -4 8 -1 14 5 175 -57 189 -72 3 -3 -4 -3 -15 1 -11 4 -16 3 -11
-1 4 -4 20 -8 34 -9 15 0 54 -9 87 -18 33 -10 71 -19 84 -22 14 -3 27 -7 30
-9 3 -1 60 -6 126 -10 131 -8 248 8 351 46 29 11 59 17 65 13 8 -5 9 -3 4 6
-6 10 -4 12 9 7 9 -4 15 -3 12 2 -3 4 7 14 22 20 53 24 183 125 219 170 21 25
40 48 43 51 17 14 50 70 55 93 5 20 1 37 -16 62 -26 37 -58 53 -100 47z"/>
<path d="M8834 5068 c-17 -13 -45 -38 -63 -56 -18 -17 -37 -29 -43 -26 -6 4
-8 2 -4 -4 8 -14 -50 -55 -65 -46 -7 4 -9 3 -6 -3 16 -26 -113 -75 -249 -94
-81 -11 -199 -6 -289 13 -27 6 -50 10 -50 9 0 0 -54 20 -120 45 -375 144 -485
168 -662 144 -54 -7 -108 -13 -120 -14 -11 -1 -19 -4 -16 -8 2 -5 -4 -8 -14
-8 -25 0 -133 -52 -191 -92 -26 -18 -51 -32 -55 -30 -5 1 -6 -2 -2 -8 3 -5 1
-10 -4 -10 -6 0 -24 -18 -40 -40 -15 -21 -31 -37 -33 -34 -3 2 -4 -14 -3 -38
2 -34 9 -48 39 -75 56 -52 94 -45 177 32 55 52 121 87 146 79 13 -4 14 -3 5 4
-16 11 69 38 93 29 8 -4 15 -2 15 4 0 8 39 10 123 7 106 -4 135 -9 221 -38 77
-26 95 -35 80 -42 -13 -5 -9 -6 12 -3 22 4 40 -1 66 -19 20 -13 38 -22 40 -20
3 2 45 -10 94 -27 200 -68 387 -87 564 -55 200 36 418 171 490 303 20 37 22
45 10 73 -28 67 -92 88 -146 48z"/>
</g>
</svg>
