<?xml version="1.0" standalone="no"?>
<!DOCTYPE svg PUBLIC "-//W3C//DTD SVG 20010904//EN" "http://www.w3.org/TR/2001/REC-SVG-20010904/DTD/svg10.dtd">
<svg xmlns="http://www.w3.org/2000/svg" version="1.0" width="1024.000000pt" height="1024.000000pt" viewBox="0 0 1024.000000 1024.000000" preserveAspectRatio="xMidYMid meet">
<metadata>
Created by potrace 1.16, written by Peter Selinger 2001-2019
<meta name="Producer" content="Online-Convert"/></metadata>
<g transform="translate(0.000000,1024.000000) scale(0.100000,-0.100000)" fill="#000000" stroke="none">
<path d="M2581 7595 c-160 -35 -294 -101 -409 -202 -82 -72 -142 -153 -196 -263 -22 -47 -43 -87 -46 -90 -3 -3 -5 -9 -5 -15 -1 -5 -9 -46 -20 -90 -26 -108 -26 -292 -1 -395 40 -160 138 -334 248 -435 72 -66 122 -101 213 -149 58 -30 65 -36 42 -36 -51 0 -229 -61 -343 -116 -105 -51 -200 -115 -313 -212 -35 -30 -51 -39 -51 -28 0 9 -5 16 -10 16 -7 0 -7 -6 0 -20 9 -17 3 -30 -43 -88 -71 -89 -107 -149 -156 -255 -198 -431 -149 -1058 124 -1614 l75 -151 0 -276 0 -276 -165 0 c-163 0 -166 0 -190 -25 -31 -31 -31 -49 0 -80 l24 -25 1318 0 c6066 0 6191 0 6219 13 41 17 45 67 8 96 -24 19 -40 21 -140 21 l-114 0 0 364 0 364 25 56 c70 159 143 397 169 556 46 274 41 530 -15 749 -15 63 -26 119 -22 125 3 6 3 8 -2 4 -4 -4 -23 26 -41 68 -143 331 -422 582 -770 695 -135 43 -172 58 -151 58 27 1 125 59 200 119 127 101 248 286 292 447 26 94 31 304 10 406 -71 354 -365 633 -726 690 -91 14 -272 6 -354 -17 -319 -86 -569 -353 -630 -673 -22 -111 -19 -278 5 -381 27 -110 104 -268 173 -351 70 -84 167 -161 272 -215 82 -42 83 -43 52 -50 -61 -13 -212 -66 -272 -96 -104 -52 -221 -136 -299 -214 -196 -195 -337 -499 -422 -908 -11 -52 -19 -74 -25 -65 -5 8 -9 11 -9 7 0 -4 -55 20 -122 52 -196 92 -231 100 -458 100 -176 0 -198 -2 -237 -21 -147 -71 -148 -293 -2 -398 22 -16 90 -51 152 -78 184 -79 318 -148 382 -195 33 -25 148 -123 255 -218 107 -95 268 -234 357 -309 l162 -136 1 -270 0 -270 -817 2 c-450 2 -1010 3 -1245 3 l-428 0 0 463 0 463 123 110 c207 186 229 200 597 372 58 27 122 63 142 81 110 96 118 270 18 354 -52 44 -89 49 -305 45 -219 -5 -255 -13 -404 -87 -35 -17 -68 -28 -74 -24 -5 3 -7 1 -4 -4 6 -10 -27 -28 -63 -35 -8 -2 -18 -6 -21 -11 -3 -4 -15 40 -28 98 -37 178 -120 424 -191 565 -150 300 -426 531 -725 606 -38 10 -74 22 -80 27 -6 6 -2 8 13 4 12 -3 20 -1 17 3 -3 5 4 11 14 15 35 11 171 104 223 153 28 26 71 73 95 105 80 103 163 312 163 407 0 17 3 29 8 27 13 -9 -5 238 -24 303 -48 175 -121 300 -249 425 -122 120 -273 200 -433 231 -92 17 -257 17 -341 -1z m404 -139 c114 -39 208 -98 296 -185 91 -91 147 -183 190 -311 29 -87 32 -106 32 -220 1 -99 -4 -141 -22 -204 -60 -215 -201 -387 -396 -480 -120 -58 -175 -70 -325 -71 -122 0 -143 3 -220 28 -351 117 -563 433 -530 792 31 338 268 605 601 675 24 5 100 8 169 6 104 -3 138 -8 205 -30z m4711 6 c240 -77 426 -255 506 -487 105 -307 -2 -646 -267 -845 -68 -50 -142 -87 -239 -118 -70 -22 -99 -25 -216 -25 -124 0 -142 2 -222 30 -111 38 -217 105 -297 186 -73 74 -90 98 -135 187 -66 129 -81 191 -81 335 0 133 17 246 41 270 7 7 11 15 8 18 -10 9 65 142 114 203 61 76 146 144 241 193 96 50 160 68 172 49 7 -10 9 -9 9 4 0 23 32 27 180 23 88 -2 143 -9 186 -23z m-4731 -1638 c135 -23 317 -88 420 -149 105 -61 216 -158 292 -253 106 -132 241 -461 292 -709 31 -150 32 -146 -41 -186 -149 -82 -1365 -688 -1399 -697 -62 -17 -104 7 -134 73 -28 63 -77 236 -70 248 3 4 1 9 -4 11 -5 1 -11 19 -13 38 -1 19 -7 38 -11 41 -5 4 -10 24 -10 47 -1 22 -5 38 -8 36 -3 -2 -21 65 -39 149 -18 84 -38 166 -46 184 -14 36 -50 51 -82 34 -31 -16 -35 -43 -18 -113 8 -35 24 -108 36 -163 51 -236 133 -522 170 -596 24 -46 78 -94 125 -109 87 -29 96 -25 775 316 349 176 641 318 647 318 7 -1 11 1 8 5 -5 9 530 273 600 297 53 18 368 33 419 20 72 -18 89 -101 32 -163 -38 -43 -190 -128 -207 -117 -8 4 -9 3 -5 -4 4 -7 3 -12 -3 -12 -24 0 -286 -135 -343 -177 -54 -39 -252 -209 -518 -442 -104 -92 -397 -330 -500 -408 -223 -167 -434 -289 -580 -334 -63 -20 -96 -24 -205 -23 -115 0 -139 3 -202 26 -245 89 -505 379 -664 740 -92 210 -177 520 -164 598 4 22 2 30 -3 22 -13 -19 -22 84 -22 242 0 457 190 818 545 1037 126 78 343 155 504 178 99 15 329 12 426 -5z m4771 1 c115 -20 310 -85 399 -134 94 -51 206 -132 198 -144 -3 -6 -1 -7 5 -3 17 10 158 -137 217 -228 68 -106 119 -223 158 -366 30 -113 31 -119 31 -353 1 -148 -3 -240 -9 -245 -5 -4 -11 -32 -12 -62 -4 -121 -88 -393 -185 -601 -56 -118 -148 -266 -226 -362 -104 -127 -268 -267 -294 -251 -6 4 -8 3 -5 -3 7 -11 -80 -53 -153 -74 -25 -7 -100 -13 -170 -13 -149 -1 -213 16 -373 97 -274 139 -532 338 -1194 919 -147 128 -250 211 -306 243 -59 35 -83 54 -80 65 4 12 3 12 -5 2 -7 -11 -42 1 -168 59 -88 39 -178 85 -200 100 -67 45 -85 129 -39 175 l26 26 197 -4 c158 -4 208 -8 252 -23 30 -10 244 -115 475 -232 802 -407 1320 -666 1383 -689 98 -37 174 -28 238 28 67 59 106 161 188 493 70 287 98 446 76 443 -3 -1 -17 2 -32 6 -56 16 -75 -13 -99 -153 -6 -35 -14 -59 -18 -53 -3 6 -7 -9 -7 -31 -1 -45 -15 -103 -75 -322 -79 -291 -112 -334 -228 -299 -49 14 -881 425 -950 468 l-41 26 0 154 c0 89 4 156 10 158 5 2 1 14 -9 27 -13 17 -28 24 -51 24 -53 0 -60 -19 -60 -171 0 -102 -3 -133 -12 -130 -7 2 -86 40 -175 86 -117 59 -163 87 -163 100 0 31 39 220 60 294 78 266 186 476 323 626 144 156 386 281 637 326 106 19 357 20 466 1z m-3748 -2921 c-2 -1 -275 -4 -607 -6 -333 -1 -596 -2 -585 0 43 7 211 86 306 143 195 118 478 332 757 573 52 44 99 80 105 78 6 -2 8 0 4 4 -4 4 -2 14 5 22 10 12 13 -67 15 -398 1 -227 1 -414 0 -416z m4540 1 c-2 -2 -133 -5 -293 -7 l-290 -4 85 42 c101 49 227 142 301 222 66 70 164 199 181 238 11 24 13 -11 16 -231 1 -142 1 -259 0 -260z m-1773 406 c19 -16 31 -33 27 -37 -4 -4 -2 -4 4 -1 11 6 167 -107 159 -115 -3 -3 1 -5 8 -5 6 0 48 -24 92 -53 44 -30 115 -72 158 -95 42 -23 74 -45 70 -50 -5 -4 -3 -5 3 -2 5 3 48 -10 95 -29 l84 -35 -110 5 c-60 3 -228 6 -372 6 l-263 0 0 220 c0 121 3 220 6 220 4 0 21 -13 39 -29z m-4840 -140 c74 -80 131 -132 191 -172 29 -20 50 -40 46 -44 -4 -5 -2 -6 3 -2 6 3 40 -9 76 -26 l66 -32 -241 3 c-133 2 -242 5 -243 6 -1 1 -3 90 -5 198 l-3 197 30 -37 c16 -20 52 -61 80 -91z"/>
<path d="M4656 6708 c3 -4 -12 -8 -33 -8 -85 -1 -217 -66 -292 -144 -19 -19 -39 -32 -45 -29 -6 3 -8 3 -5 -1 4 -4 -9 -33 -27 -64 -52 -86 -74 -168 -74 -276 1 -112 11 -161 56 -251 41 -85 97 -160 189 -257 38 -40 68 -77 66 -83 -1 -5 1 -7 5 -3 10 11 35 -12 27 -26 -3 -6 -3 -8 2 -4 4 4 44 -26 89 -65 199 -177 460 -384 495 -394 33 -8 49 2 231 147 389 311 596 524 676 695 58 125 69 291 28 410 -62 179 -238 326 -409 342 -36 3 -61 9 -54 14 7 4 2 6 -14 6 -14 -1 -23 -5 -21 -8 2 -4 -25 -9 -59 -11 -34 -3 -92 -17 -127 -32 -36 -15 -69 -28 -74 -29 -4 -1 -40 -31 -78 -67 -39 -36 -73 -66 -77 -68 -3 -1 -32 22 -63 51 -85 80 -199 134 -320 150 -53 7 -95 10 -92 5z m122 -133 c113 -27 180 -72 284 -192 26 -31 44 -43 64 -43 19 0 37 12 63 43 71 83 137 140 188 163 262 117 555 -56 571 -337 9 -156 -56 -282 -241 -470 -174 -176 -569 -505 -590 -492 -100 58 -493 397 -629 542 -94 101 -143 176 -175 270 -21 62 -32 178 -15 168 4 -3 8 14 8 37 2 58 46 140 113 206 103 103 221 137 359 105z"/>
</g>
</svg>
