<?xml version="1.0" standalone="no"?>
<!DOCTYPE svg PUBLIC "-//W3C//DTD SVG 20010904//EN"
 "http://www.w3.org/TR/2001/REC-SVG-20010904/DTD/svg10.dtd">
<svg version="1.0" xmlns="http://www.w3.org/2000/svg"
 width="1024.000000pt" height="1024.000000pt" viewBox="0 0 1024.000000 1024.000000"
 preserveAspectRatio="xMidYMid meet">
<metadata>
Created by potrace 1.16, written by Peter Selinger 2001-2019
</metadata>
<g transform="translate(0.000000,1024.000000) scale(0.100000,-0.100000)"
fill="#000000" stroke="none">
<path d="M5100 7873 c-14 -9 -59 -48 -101 -87 -42 -39 -110 -102 -152 -141
-43 -38 -110 -101 -150 -140 -119 -114 -310 -291 -347 -322 -19 -16 -72 -65
-117 -109 -92 -91 -92 -90 -81 -234 4 -52 9 -122 12 -155 2 -33 9 -116 14
-185 5 -69 10 -134 10 -145 0 -11 3 -49 6 -85 3 -36 8 -96 11 -135 3 -38 10
-108 15 -155 5 -47 9 -103 9 -124 1 -37 0 -38 -17 -23 -10 10 -23 17 -29 17
-20 0 -83 36 -76 44 4 4 0 4 -8 1 -9 -3 -52 12 -97 35 -44 22 -83 40 -86 40
-14 0 -115 53 -112 59 2 3 -6 7 -17 7 -12 1 -45 12 -72 24 -82 37 -128 57
-165 70 -19 8 -56 24 -82 37 -27 13 -50 23 -53 24 -2 0 -18 4 -35 9 -53 15
-81 -11 -139 -129 -28 -58 -70 -142 -94 -186 -24 -44 -74 -138 -111 -210 -38
-71 -87 -161 -109 -200 -51 -85 -85 -159 -91 -191 -3 -13 -8 -29 -12 -36 -5
-8 0 -7 11 2 17 14 18 13 12 -2 -3 -9 -3 -18 2 -20 6 -2 64 -131 67 -148 0 -3
10 -25 21 -50 10 -25 32 -76 48 -115 15 -38 36 -90 47 -114 11 -24 28 -67 39
-95 11 -28 31 -73 45 -100 16 -34 21 -53 14 -60 -5 -5 -10 -15 -10 -21 0 -5 4
-4 9 4 7 11 13 7 25 -17 9 -18 16 -33 15 -34 0 -2 13 -33 30 -70 16 -37 31
-76 33 -85 2 -10 5 -20 8 -23 16 -15 62 -143 57 -160 -3 -11 -2 -18 3 -15 6 4
40 -51 45 -75 1 -3 11 -25 22 -50 18 -39 19 -47 7 -61 -17 -19 -18 -42 -1 -36
6 2 11 11 9 21 -9 52 41 -35 54 -94 0 -3 11 -27 23 -55 40 -88 50 -115 44
-115 -3 0 -1 -6 5 -12 5 -7 17 -30 26 -52 12 -29 13 -37 3 -33 -8 3 -14 -2
-14 -10 0 -9 7 -13 19 -10 10 3 16 1 12 -4 -3 -5 0 -9 7 -9 13 0 3 -14 -12
-16 -5 -1 -10 -2 -11 -4 -2 -1 -64 -12 -138 -25 -154 -27 -149 -26 -285 -64
-95 -27 -162 -49 -212 -72 -24 -10 -47 -19 -53 -19 -6 0 -22 -7 -35 -16 -14
-9 -25 -12 -25 -8 0 5 -4 5 -8 -1 -4 -5 -54 -33 -112 -62 -58 -29 -135 -73
-173 -98 -37 -25 -70 -45 -72 -45 -8 0 -102 -100 -96 -101 3 -1 9 -1 14 0 4 0
7 -5 7 -13 0 -8 8 -17 18 -22 24 -10 72 -13 72 -3 0 13 176 127 253 165 38 18
75 37 81 42 24 19 348 142 373 142 3 0 3 -7 -1 -15 -4 -10 1 -15 16 -15 17 0
19 3 10 12 -15 15 -15 24 1 26 20 1 71 12 87 18 8 4 24 8 35 10 11 2 38 8 60
13 38 9 92 17 180 26 22 2 58 7 80 10 140 22 464 30 597 15 251 -28 319 -37
363 -50 17 -5 64 -14 105 -20 119 -17 390 -91 418 -112 6 -6 12 -7 12 -3 0 4
7 1 17 -6 9 -8 18 -13 20 -11 7 7 68 -11 104 -29 20 -10 38 -16 41 -14 2 3 40
-9 84 -26 43 -17 86 -32 94 -34 8 -2 15 -4 15 -5 0 -1 7 -3 15 -5 8 -2 31 -10
51 -19 20 -8 48 -17 63 -20 43 -8 100 -27 115 -40 8 -6 16 -10 18 -8 1 1 4 2
6 1 1 0 10 -2 20 -5 9 -2 23 -6 30 -8 6 -2 28 -7 47 -12 34 -7 34 -8 10 -15
-23 -6 -23 -7 -3 -8 12 -1 24 3 27 8 3 4 46 0 96 -11 104 -21 190 -35 275 -43
103 -10 488 -14 525 -5 19 5 71 11 115 14 44 3 118 13 165 21 47 8 103 18 125
21 55 7 68 10 85 18 8 3 31 8 50 10 19 3 35 5 35 6 0 1 11 4 25 6 14 3 48 13
75 23 28 10 70 17 95 16 25 -1 37 0 27 3 -16 3 -15 6 9 18 15 8 37 16 48 19
12 2 23 4 26 5 3 2 8 2 13 1 4 0 7 3 7 7 0 5 19 14 43 21 44 14 77 37 77 55 0
20 -50 66 -71 66 -11 0 -32 -6 -47 -14 -15 -7 -65 -26 -112 -40 -47 -15 -105
-33 -130 -41 -25 -8 -56 -17 -70 -19 -14 -3 -45 -11 -70 -17 -25 -6 -54 -13
-65 -14 -11 -2 -38 -6 -60 -10 -22 -3 -51 -8 -65 -10 -14 -2 -50 -7 -80 -11
-30 -3 -70 -10 -89 -14 -19 -5 -37 -7 -41 -5 -4 2 -21 0 -39 -5 -17 -5 -118
-11 -224 -14 -153 -5 -189 -3 -177 7 8 6 15 21 16 32 1 11 16 51 34 90 18 38
33 74 35 80 1 5 6 19 10 30 25 61 57 140 90 215 21 47 57 135 82 195 25 61 49
116 55 123 6 6 8 12 5 12 -4 0 9 31 28 69 19 38 35 74 35 79 0 6 6 23 14 39
30 62 47 101 71 165 13 37 34 84 45 105 11 21 20 41 20 45 0 3 10 28 22 55 11
26 22 53 24 58 1 6 14 36 28 68 14 31 26 59 26 62 0 3 15 33 32 67 18 35 33
65 34 68 5 22 117 285 126 295 4 5 8 14 8 21 0 7 13 41 28 76 16 34 30 66 30
71 1 4 9 21 17 37 8 16 15 31 14 32 -2 2 4 14 11 28 8 14 13 30 12 36 -1 6 5
17 13 24 17 14 21 35 5 25 -5 -3 -10 0 -10 7 0 7 -15 45 -34 83 -79 161 -136
285 -136 295 0 6 -11 30 -24 53 -13 23 -27 53 -31 67 -4 14 -34 78 -66 143
-32 64 -59 119 -59 122 1 11 -52 111 -68 131 -25 30 -84 39 -122 19 -16 -8
-30 -13 -30 -9 0 4 -6 2 -12 -3 -18 -14 -181 -78 -190 -75 -5 1 -8 -2 -8 -7 0
-5 -15 -13 -32 -17 -18 -3 -43 -13 -55 -21 -12 -8 -23 -14 -25 -13 -7 3 -87
-29 -148 -61 -19 -9 -39 -18 -45 -19 -5 -1 -26 -9 -45 -17 -19 -8 -39 -16 -45
-17 -5 -1 -20 -8 -32 -14 -13 -7 -23 -10 -23 -6 0 3 -7 1 -15 -6 -8 -7 -15 -9
-15 -5 0 4 -6 2 -14 -4 -20 -17 -117 -51 -127 -46 -8 5 -6 52 5 115 4 19 9 62
12 95 3 33 7 80 10 105 3 25 5 58 4 73 0 16 3 34 7 40 7 11 10 42 12 127 1 13
5 38 10 55 5 16 13 75 16 130 4 55 9 120 11 145 12 137 10 171 -14 206 -12 19
-27 34 -32 34 -5 0 -116 106 -247 236 -131 129 -309 303 -396 386 -100 96
-156 156 -153 165 3 8 2 12 -3 9 -4 -3 -17 2 -27 12 -52 45 -93 53 -134 25z
m118 -188 c12 -14 19 -25 15 -25 -3 0 13 -14 37 -31 24 -17 107 -95 184 -173
78 -77 210 -206 293 -285 84 -79 150 -147 148 -152 -3 -4 4 -11 16 -14 19 -6
17 -9 -17 -25 -22 -10 -82 -38 -134 -63 -148 -71 -194 -91 -207 -90 -7 0 -13
-4 -13 -9 0 -9 -108 46 -120 61 -6 8 -35 26 -85 52 -22 12 -42 25 -45 28 -3 3
-22 15 -43 26 -22 11 -45 29 -53 40 -8 11 -17 19 -19 18 -24 -13 -27 5 -20
150 14 317 23 426 38 457 14 27 14 32 1 37 -7 3 -14 9 -14 14 0 16 16 9 38
-16z m-153 -102 c-4 -54 -9 -125 -10 -158 -2 -33 -8 -120 -14 -194 -11 -141
-23 -174 -64 -191 -12 -5 -15 -9 -7 -9 8 -1 -8 -23 -37 -53 -29 -29 -79 -86
-113 -125 -34 -40 -68 -73 -75 -73 -17 0 -37 25 -27 35 4 5 1 5 -5 1 -13 -7
-302 127 -314 146 -3 5 -8 9 -10 8 -9 -4 -59 20 -59 29 0 15 29 33 41 25 7 -4
9 -3 6 3 -4 6 32 46 79 89 90 83 143 133 266 249 40 39 124 117 187 175 62 58
120 113 129 123 30 32 35 19 27 -80z m61 -669 c21 -15 53 -33 69 -41 36 -16
64 -33 83 -50 7 -7 20 -13 28 -13 8 0 14 -4 14 -10 0 -5 4 -10 10 -10 5 0 40
-19 77 -42 l68 -42 -1 -65 c-1 -36 -4 -111 -8 -166 -3 -55 -8 -167 -11 -250
-3 -82 -7 -188 -10 -235 -4 -47 -8 -132 -9 -190 -5 -135 -6 -141 -16 -135 -5
3 -12 0 -16 -6 -4 -7 -3 -9 4 -5 14 8 24 -25 18 -56 -3 -12 -8 -90 -11 -173
-3 -82 -8 -197 -11 -255 -4 -58 -6 -118 -5 -135 3 -57 -11 -195 -19 -190 -5 3
-4 -11 2 -31 5 -21 7 -56 4 -78 -4 -23 -8 -129 -11 -236 -8 -326 -13 -403 -27
-412 -10 -6 -10 -8 1 -8 11 0 13 -15 6 -82 -4 -46 -9 -128 -11 -183 -6 -169
-15 -229 -53 -352 -5 -17 -7 -34 -4 -37 3 -2 1 -11 -3 -18 -5 -7 -9 -15 -10
-18 -6 -32 -19 -66 -28 -72 -5 -4 -25 0 -43 7 -18 8 -33 11 -33 7 0 -3 -5 -1
-12 6 -7 7 -22 12 -34 12 -13 0 -25 4 -29 10 -3 5 -12 7 -20 3 -8 -3 -15 -1
-15 5 0 5 -14 12 -30 15 -35 7 -65 15 -65 17 0 1 -9 3 -20 5 -11 2 -40 9 -65
15 l-45 11 -3 62 c-2 34 -5 233 -7 442 -4 434 -12 1294 -21 2138 l-6 579 27
28 c16 16 32 27 37 24 5 -3 7 -1 6 4 -4 15 72 103 83 96 5 -3 8 -2 7 3 -5 13
53 83 63 77 5 -3 8 -1 7 4 -5 16 25 52 43 52 9 0 34 -12 55 -26z m868 -56
c-16 -199 -58 -561 -64 -555 -3 3 -6 -27 -7 -66 -3 -119 -5 -139 -19 -227 -8
-47 -16 -103 -19 -125 -2 -22 -8 -53 -12 -70 -4 -16 -7 -34 -8 -40 0 -5 -4
-23 -7 -40 -9 -39 -20 -105 -22 -130 -1 -11 -4 -25 -8 -31 -4 -6 -10 -37 -13
-70 -4 -32 -11 -64 -16 -70 -5 -6 -6 -14 -3 -17 4 -3 3 -14 -1 -24 -9 -21 -11
-26 -20 -73 -4 -19 -7 -43 -7 -52 0 -10 -3 -20 -8 -23 -5 -3 -7 -12 -4 -19 3
-8 0 -17 -5 -21 -6 -3 -9 -10 -7 -14 3 -4 0 -25 -6 -47 -6 -21 -11 -43 -9 -48
1 -4 -3 -14 -9 -20 -5 -7 -8 -15 -5 -17 2 -3 -3 -29 -11 -59 -8 -30 -18 -71
-21 -90 -3 -19 -9 -40 -14 -46 -5 -6 -6 -13 -4 -16 3 -3 0 -18 -6 -34 -7 -16
-13 -33 -14 -39 -1 -5 -3 -12 -4 -15 -3 -6 -9 -29 -14 -55 -3 -11 -9 -19 -13
-18 -5 1 -10 -15 -10 -35 -2 -36 -7 -63 -20 -104 -5 -16 -8 -18 -15 -7 -5 8
-9 10 -9 4 0 -5 4 -16 9 -24 6 -9 5 -25 -1 -40 -5 -14 -12 -39 -15 -56 -3 -16
-9 -35 -14 -41 -5 -6 -6 -13 -3 -16 3 -4 -1 -19 -10 -36 -8 -16 -13 -31 -11
-34 3 -2 0 -20 -6 -39 -6 -19 -17 -59 -25 -89 l-14 -55 6 90 c3 52 10 93 17
97 9 6 9 10 -1 16 -9 6 -10 52 -2 218 14 284 18 370 23 499 6 143 16 341 22
430 4 66 8 134 20 425 3 69 8 177 12 240 3 63 7 129 8 145 5 116 5 120 15 105
6 -9 10 -10 10 -3 0 6 -4 14 -10 18 -9 6 -7 106 5 238 l8 78 56 25 c31 14 86
41 122 59 36 19 69 32 72 28 4 -3 7 0 7 7 0 7 3 10 7 7 3 -4 26 4 50 18 23 14
43 23 43 20 0 -4 7 1 16 9 21 22 22 21 18 -26z m-1615 -39 c-5 -3 3 -6 18 -6
15 0 67 -21 115 -47 48 -26 90 -47 94 -46 4 1 10 -3 13 -8 3 -5 20 -17 38 -26
18 -9 31 -23 31 -33 -1 -10 2 -219 7 -465 5 -328 4 -448 -4 -448 -6 0 -11 -5
-11 -11 0 -5 5 -7 10 -4 13 8 13 -31 -1 -57 -7 -13 -7 -18 -1 -14 7 4 11 -18
11 -64 0 -38 -4 -72 -9 -75 -6 -4 -10 -16 -9 -28 1 -20 2 -20 9 3 10 30 13
-155 15 -802 1 -257 -2 -465 -7 -462 -4 3 -8 1 -8 -5 0 -5 4 -12 9 -15 5 -4
10 -117 11 -254 1 -136 4 -302 5 -369 l2 -123 -23 6 c-13 3 -36 8 -51 10 -77
9 -118 16 -120 18 -4 4 -13 116 -18 231 -3 61 -10 133 -15 160 -5 28 -9 66 -8
85 0 19 -2 69 -6 110 -4 41 -9 98 -10 125 -2 28 -6 79 -10 115 -6 69 -17 208
-22 300 -4 63 -9 128 -22 290 -5 63 -10 126 -10 140 -1 14 -4 52 -7 85 -15
166 -16 180 -6 165 8 -11 10 -2 10 35 -2 46 -2 47 -8 15 l-7 -35 -7 31 c-5 17
-8 49 -8 70 0 21 -2 66 -4 99 -3 33 -7 107 -9 165 -3 58 -8 141 -12 185 -14
171 -20 243 -29 365 -3 41 -7 102 -10 135 -5 58 -12 142 -19 255 -2 30 -7 104
-11 164 l-8 108 61 -33 c33 -19 56 -36 51 -40z m2467 -722 c-13 -19 -42 -90
-50 -122 -2 -5 -8 -23 -15 -40 -22 -52 -52 -139 -61 -170 -4 -16 -19 -59 -33
-94 -22 -59 -28 -66 -63 -76 -22 -7 -78 -31 -126 -53 -49 -23 -88 -38 -88 -35
0 3 -6 0 -13 -6 -11 -9 -27 3 -73 55 -32 37 -63 74 -68 83 -5 9 -19 25 -30 37
-25 24 -43 47 -76 94 -13 19 -29 38 -35 42 -7 5 -6 8 1 8 6 0 29 8 50 17 22 9
44 18 49 19 6 1 18 5 28 9 9 4 17 3 17 -2 0 -5 7 -10 16 -10 15 0 15 2 -1 13
-16 12 -14 14 20 29 21 8 59 22 84 31 25 8 66 24 91 36 96 45 130 57 130 48 0
-6 9 -1 20 10 11 11 29 20 39 20 11 0 22 4 26 10 3 5 31 17 63 27 31 9 66 23
77 30 29 19 37 16 21 -10z m-3361 -78 c-3 -4 3 -5 13 -2 10 2 56 -14 103 -36
46 -22 87 -40 92 -40 4 -1 28 -12 55 -26 26 -14 53 -25 59 -25 7 0 13 -5 13
-12 0 -6 3 -8 7 -5 3 4 11 3 17 -2 6 -5 37 -19 69 -31 31 -12 57 -26 57 -31 0
-5 3 -8 8 -7 12 3 62 -24 62 -34 0 -4 3 -7 8 -6 16 3 62 -15 57 -22 -3 -5 0
-12 6 -16 8 -4 9 -3 5 4 -11 18 8 14 53 -10 22 -12 38 -26 34 -31 -3 -5 3 -6
16 -2 19 6 21 3 21 -34 0 -30 -4 -41 -15 -41 -8 0 -15 -3 -15 -8 0 -9 -67 -33
-102 -35 -14 -1 -24 -5 -21 -9 2 -5 -2 -8 -9 -8 -7 0 -26 -7 -43 -16 -67 -35
-154 -61 -166 -50 -9 8 -10 8 -5 -2 4 -7 0 -14 -11 -18 -10 -3 -31 -12 -46
-21 -16 -8 -39 -13 -53 -10 -16 3 -24 0 -24 -9 0 -26 -25 -14 -39 19 -7 17
-25 57 -39 87 -14 30 -25 61 -25 68 0 6 -4 12 -8 12 -7 0 -23 51 -24 75 0 6
-5 15 -12 20 -6 6 -21 34 -32 63 -12 28 -30 75 -41 102 -12 28 -18 56 -14 62
4 6 3 8 -3 5 -10 -6 -17 2 -23 28 -1 6 -7 19 -13 30 -6 11 -10 23 -9 28 1 4
-2 7 -7 7 -5 0 -11 7 -14 15 -5 12 -1 12 28 -2 19 -9 32 -20 30 -24z m3496 19
c1 -7 1 -16 0 -20 0 -5 3 -8 8 -8 8 0 18 -24 27 -65 3 -10 8 -22 13 -25 8 -5
51 -94 55 -115 1 -5 19 -45 39 -87 20 -43 37 -82 37 -87 0 -6 16 -39 35 -74
19 -35 32 -67 28 -70 -3 -4 -1 -7 5 -7 7 0 12 -7 12 -17 0 -9 12 -37 26 -62
15 -25 23 -43 19 -39 -5 4 -14 3 -22 -3 -7 -6 -13 -8 -13 -3 0 5 -4 3 -9 -4
-4 -7 -14 -15 -22 -16 -8 -2 -36 -13 -62 -24 -27 -12 -53 -22 -58 -22 -4 0
-24 -9 -44 -20 -19 -11 -35 -18 -35 -15 0 2 -11 0 -25 -5 -20 -7 -25 -6 -25 5
0 8 -3 15 -8 15 -7 0 -13 9 -42 66 -8 16 -18 34 -23 39 -25 32 -67 102 -67
111 0 6 -9 21 -20 34 -11 12 -17 27 -14 31 3 5 0 9 -6 9 -14 0 -8 31 21 110
20 52 66 176 74 200 1 3 5 13 8 23 9 22 16 45 18 55 0 4 4 12 9 17 4 6 13 27
19 48 12 35 40 52 42 25z m-3636 -78 c2 -12 9 -28 15 -35 6 -7 8 -21 4 -31 -5
-15 -4 -16 4 -5 9 12 12 9 18 -15 4 -16 11 -35 17 -41 5 -7 6 -13 2 -13 -4 0
-2 -6 4 -14 8 -10 9 -16 1 -21 -5 -3 -10 -11 -10 -17 0 -6 7 -5 18 3 9 7 14 9
10 5 -4 -5 -1 -21 7 -35 8 -14 21 -44 30 -66 10 -22 32 -71 50 -110 18 -38 36
-81 40 -95 4 -14 16 -44 27 -68 20 -42 20 -44 2 -63 -13 -14 -26 -18 -44 -14
-17 4 -21 3 -11 -4 16 -10 -3 -34 -58 -75 -30 -23 -35 -23 -81 -11 -26 7 -52
15 -57 18 -4 3 -24 8 -44 11 -20 3 -49 11 -65 17 -30 13 -36 14 -69 23 -11 3
-40 12 -65 20 -25 9 -58 18 -73 21 l-28 6 19 27 c10 15 42 74 71 132 30 58 58
110 63 117 5 7 30 51 55 99 54 107 67 126 78 116 5 -4 5 -1 1 5 -6 11 14 62
49 125 11 20 14 18 20 -12z m2662 -211 c-3 -11 -2 -17 3 -14 11 7 82 -76 76
-91 -3 -8 0 -11 10 -7 7 3 14 0 14 -6 0 -6 -5 -11 -11 -11 -5 0 -7 -5 -3 -11
5 -8 8 -8 13 0 5 7 15 3 28 -13 30 -34 44 -62 35 -71 -4 -5 -2 -5 5 -1 12 7
32 -10 68 -58 11 -15 28 -35 38 -44 19 -18 23 -42 7 -42 -5 0 -10 -4 -10 -10
0 -6 6 -9 13 -8 14 3 12 -10 -10 -74 -9 -26 -19 -45 -23 -43 -3 2 -5 -12 -5
-31 1 -19 -4 -47 -12 -61 -7 -14 -11 -28 -9 -30 2 -3 -5 -30 -16 -61 -11 -32
-22 -68 -24 -81 -7 -33 -13 -43 -26 -35 -6 4 -6 -1 1 -14 7 -14 8 -23 1 -27
-5 -3 -10 -16 -10 -27 0 -12 -8 -46 -19 -77 -41 -125 -51 -160 -51 -179 0 -12
-4 -24 -10 -27 -5 -3 -10 -19 -10 -34 0 -15 -3 -31 -7 -35 -5 -4 -8 -11 -9
-14 0 -4 -3 -14 -7 -22 -3 -8 -8 -32 -12 -54 -3 -21 -11 -50 -17 -65 -6 -14
-12 -30 -13 -36 -1 -5 -3 -12 -4 -15 -2 -3 -4 -13 -6 -22 -3 -19 -23 -85 -32
-108 -9 -22 -10 -28 -12 -51 -1 -15 -6 -19 -16 -15 -12 4 -14 2 -7 -10 8 -14
-21 -139 -45 -194 -3 -8 -8 -24 -10 -35 -2 -11 -6 -27 -10 -35 -3 -8 -7 -20
-8 -26 -9 -41 -37 -126 -50 -150 -8 -16 -15 -36 -15 -44 0 -8 -7 -35 -15 -60
-8 -25 -26 -83 -40 -130 -14 -47 -29 -92 -32 -100 -3 -8 -5 -19 -4 -24 1 -4
-5 -19 -14 -32 -9 -14 -14 -28 -11 -32 3 -5 -1 -19 -8 -33 -7 -13 -11 -30 -8
-37 5 -16 -36 -8 -93 19 -54 25 -125 49 -125 43 0 -3 -6 -2 -12 3 -7 4 -19 8
-26 9 -32 5 -44 14 -35 27 5 6 14 30 20 52 13 47 35 126 39 140 2 6 6 26 10
45 3 19 10 42 15 51 4 9 11 31 14 50 7 41 24 109 32 129 3 8 8 23 9 33 2 9 13
43 23 75 11 31 21 71 24 87 3 17 14 58 25 93 12 34 26 91 33 125 7 34 16 67
20 72 4 6 10 26 12 45 6 47 28 133 37 145 5 6 11 28 14 50 6 34 15 75 32 133
2 7 4 14 4 17 1 3 6 19 11 37 6 18 12 44 15 58 3 14 8 34 11 45 4 11 7 23 8
27 0 3 3 10 8 14 4 4 7 19 7 33 0 14 9 60 21 101 27 103 29 112 34 140 3 14
11 52 20 85 8 33 17 69 19 81 1 11 6 25 9 31 3 5 9 32 13 59 3 27 8 53 11 57
3 5 6 18 8 30 4 28 23 123 41 212 13 62 17 85 22 133 1 7 7 10 13 6 6 -3 9
-15 6 -25z m734 -348 c-2 -2 2 -7 8 -10 5 -4 28 -42 51 -85 34 -65 39 -81 28
-94 -10 -14 -10 -15 1 -5 19 16 41 -7 48 -52 5 -34 -7 -75 -62 -200 -12 -27
-35 -84 -50 -125 -16 -41 -47 -115 -70 -165 -24 -49 -45 -103 -49 -118 -4 -15
-23 -62 -42 -104 -20 -43 -37 -82 -38 -88 -1 -5 -5 -15 -9 -22 -4 -7 -14 -31
-22 -54 -31 -88 -97 -229 -105 -224 -5 3 -12 1 -15 -5 -4 -6 -3 -10 2 -9 4 1
11 1 14 0 8 -1 -84 -221 -107 -256 -9 -14 -14 -25 -10 -25 3 0 -3 -17 -14 -37
-11 -21 -20 -41 -20 -45 0 -5 -8 -27 -19 -51 -40 -91 -44 -102 -47 -112 -2
-12 -69 -174 -96 -235 -12 -25 -21 -47 -20 -50 0 -3 -5 -14 -11 -25 -6 -11
-11 -22 -12 -25 0 -3 -11 -29 -25 -58 -19 -39 -30 -52 -47 -52 -12 0 -25 5
-28 11 -4 6 -14 8 -22 5 -8 -3 -20 -3 -26 1 -7 4 -22 9 -35 11 -12 1 -35 8
-50 14 -15 6 -31 10 -36 9 -4 -1 -14 3 -20 9 -7 5 -16 7 -19 3 -4 -3 -7 -1 -7
5 0 7 4 12 9 12 9 0 22 32 25 67 2 12 10 41 18 65 16 41 27 83 35 121 1 10 10
31 18 48 9 16 13 29 11 29 -3 0 -1 12 5 28 6 15 12 34 14 42 6 31 38 135 44
145 3 6 6 12 7 15 4 24 19 74 34 120 37 113 60 186 64 210 2 14 5 26 7 28 1 1
2 5 3 10 1 4 4 12 7 17 6 9 16 47 24 85 4 21 34 116 55 175 10 28 20 64 23 80
7 40 47 187 54 198 3 4 7 23 10 40 3 18 10 38 15 45 6 6 8 12 5 12 -3 0 1 19
8 43 8 26 18 41 26 39 11 -3 11 -1 2 8 -9 9 -8 22 4 54 15 41 19 58 28 99 4
20 30 109 43 147 3 8 4 20 3 27 -1 6 3 14 9 18 5 3 10 16 10 29 0 12 4 26 9
32 6 5 12 23 15 39 2 17 5 31 6 33 2 1 4 7 5 12 1 6 4 12 5 15 1 3 4 10 5 15
1 6 4 13 5 18 1 4 2 10 2 14 -2 10 24 28 44 32 11 2 44 17 74 33 48 25 87 42
112 47 3 0 10 4 14 9 7 7 70 -83 65 -92z m-2492 39 c-2 -21 0 -42 4 -46 4 -4
7 -30 7 -58 0 -28 4 -78 10 -111 5 -33 12 -100 15 -150 3 -49 8 -119 11 -155
3 -36 7 -101 9 -145 3 -44 7 -102 9 -130 2 -27 7 -97 11 -155 4 -58 9 -108 11
-112 3 -4 0 -16 -5 -27 -7 -11 -7 -21 -2 -23 6 -2 11 -30 12 -63 1 -33 6 -83
10 -110 5 -28 11 -93 14 -145 2 -52 10 -165 18 -250 8 -85 13 -173 12 -195 -1
-22 2 -44 9 -48 6 -5 -7 -6 -29 -2 -43 7 -124 13 -191 14 l-41 0 -18 63 c-10
35 -22 68 -26 73 -4 6 -8 13 -8 17 -2 13 -12 42 -23 68 -6 14 -12 31 -14 38
-1 7 -12 31 -23 53 -12 22 -19 45 -16 50 4 5 1 9 -6 9 -7 0 -9 3 -6 7 4 3 3
11 -2 17 -15 20 -22 66 -10 66 13 0 9 8 -4 9 -10 0 -55 87 -61 116 -5 26 -47
133 -80 208 -14 31 -23 57 -21 57 3 0 -2 11 -11 25 -9 14 -13 25 -9 25 4 0 2
7 -5 15 -7 8 -9 15 -5 15 4 0 3 6 -2 13 -6 6 -16 29 -23 50 -7 22 -18 51 -26
65 -8 15 -14 31 -14 35 0 5 -6 23 -14 40 -12 28 -26 62 -31 77 -1 3 -7 18 -13
33 -7 16 -12 31 -12 34 0 3 -6 19 -14 36 -8 18 -27 66 -42 107 -15 41 -31 80
-34 85 -4 6 -13 32 -20 58 l-13 48 64 60 c73 68 106 87 204 119 39 12 90 31
114 42 24 11 52 21 63 23 11 3 25 8 32 13 17 12 150 62 182 68 16 3 31 7 33
10 14 14 22 -1 20 -36z m-1185 -230 c8 0 27 -5 43 -11 15 -7 38 -13 51 -15 13
-1 29 -7 35 -12 13 -10 64 -24 70 -20 2 2 11 -3 20 -11 10 -7 17 -11 17 -7 0
3 16 0 35 -8 19 -8 35 -12 35 -8 0 3 5 1 12 -6 7 -7 19 -12 28 -12 13 0 26
-25 45 -90 2 -8 22 -58 43 -110 45 -109 58 -155 42 -145 -5 3 -10 1 -10 -4 0
-6 7 -11 16 -11 10 0 14 -6 10 -15 -3 -8 0 -14 6 -12 6 1 15 -11 20 -28 5 -16
16 -44 24 -62 8 -17 14 -33 14 -36 0 -3 5 -18 12 -34 6 -15 12 -34 14 -41 1
-6 12 -32 24 -57 12 -25 20 -55 17 -65 -3 -11 -1 -18 3 -15 5 3 11 1 15 -5 3
-5 0 -10 -7 -10 -8 -1 -7 -6 5 -14 10 -8 20 -20 21 -28 1 -7 7 -23 14 -34 6
-12 9 -23 7 -26 -3 -2 6 -28 20 -56 27 -57 32 -87 13 -76 -7 4 -10 4 -6 0 3
-4 10 -8 15 -9 9 -2 47 -80 58 -119 2 -5 3 -9 5 -10 1 -2 3 -10 5 -18 2 -8 11
-32 20 -54 9 -21 14 -45 11 -53 -3 -8 -2 -12 3 -9 7 5 17 -8 26 -34 1 -3 5
-12 8 -20 22 -53 25 -68 14 -80 -9 -9 -9 -11 -1 -7 11 6 18 -3 23 -25 1 -4 17
-41 35 -82 l34 -74 -141 -1 c-78 -1 -158 -4 -177 -7 -33 -5 -34 -4 -16 10 20
16 20 16 0 16 -12 0 -21 6 -21 13 0 6 -8 30 -18 52 -10 22 -19 42 -20 45 -1 3
-14 32 -29 65 -15 33 -29 65 -30 70 -2 6 -13 32 -26 59 -12 27 -23 54 -24 60
-3 11 -11 30 -53 125 -14 29 -26 62 -28 73 -3 11 -9 25 -14 32 -5 6 -9 13 -10
16 0 9 -12 44 -25 75 -7 17 -18 41 -23 55 -6 14 -15 36 -21 50 -6 14 -17 41
-25 60 -8 19 -20 49 -27 65 -7 17 -14 35 -16 41 -2 10 -31 75 -81 182 -14 29
-26 58 -27 65 -5 19 -16 50 -32 82 -8 17 -15 33 -15 37 0 4 -14 35 -31 70 -16
34 -31 66 -32 72 -2 6 -8 22 -14 36 -21 49 -72 179 -72 184 0 3 16 -2 35 -10
19 -7 41 -14 49 -14z m4180 -25 c-13 -25 -22 -45 -18 -45 4 0 2 -6 -4 -13 -6
-6 -17 -30 -25 -52 -14 -38 -86 -202 -127 -290 -57 -123 -102 -232 -97 -238 1
-1 -9 -20 -23 -42 -14 -22 -23 -40 -22 -40 2 0 -1 -11 -6 -25 -33 -85 -55
-137 -67 -160 -14 -26 -26 -57 -30 -76 -2 -6 -15 -37 -30 -70 -50 -111 -71
-161 -73 -177 -1 -4 -8 -20 -15 -35 -8 -15 -20 -40 -26 -55 -6 -15 -16 -25
-21 -22 -5 3 -7 0 -4 -9 3 -8 -9 -49 -27 -93 -32 -78 -49 -108 -49 -85 0 7 -4
12 -9 12 -10 0 -9 -25 1 -36 7 -7 -1 -30 -46 -126 -17 -38 -34 -68 -38 -68 -4
0 -5 -7 -2 -15 3 -8 2 -20 -2 -27 -5 -7 -9 -15 -10 -18 -6 -32 -18 -60 -26
-60 -5 0 -7 -4 -4 -8 3 -5 -3 -21 -13 -36 -13 -20 -20 -24 -24 -14 -4 7 -4 1
-1 -13 7 -31 -36 -129 -69 -160 -18 -16 -18 -19 -4 -13 15 6 16 3 7 -18 -10
-21 -17 -23 -63 -21 -29 1 -63 3 -77 3 -49 2 -51 6 -30 52 11 24 36 86 56 138
19 52 40 99 45 104 5 6 9 16 9 24 0 7 11 39 26 70 58 130 77 175 80 189 1 7
13 36 27 65 13 29 32 73 43 98 10 25 33 78 51 118 18 41 33 78 33 83 0 5 4 17
8 27 38 78 67 146 105 247 8 22 25 63 38 90 12 28 23 55 24 60 4 15 68 149 74
155 3 3 7 14 9 25 2 11 12 39 23 62 10 24 19 47 19 53 0 6 7 22 16 35 9 14 14
25 10 25 -3 0 3 17 13 38 10 20 31 69 46 107 45 116 87 208 101 223 8 7 23 14
34 15 11 1 20 5 20 10 0 4 5 5 10 2 6 -3 10 -1 10 4 0 6 3 10 8 9 4 -1 26 8
50 20 23 12 42 20 42 17 0 -4 10 1 22 9 41 29 49 19 22 -29z"/>
</g>
</svg>
