<?xml version="1.0" standalone="no"?>
<!DOCTYPE svg PUBLIC "-//W3C//DTD SVG 20010904//EN"
 "http://www.w3.org/TR/2001/REC-SVG-20010904/DTD/svg10.dtd">
<svg version="1.0" xmlns="http://www.w3.org/2000/svg"
 width="1024.000000pt" height="1024.000000pt" viewBox="0 0 1024.000000 1024.000000"
 preserveAspectRatio="xMidYMid meet">
<metadata>
Created by potrace 1.16, written by Peter Selinger 2001-2019
</metadata>
<g transform="translate(0.000000,1024.000000) scale(0.100000,-0.100000)"
fill="#000000" stroke="none">
<path d="M5085 8459 c-39 -14 -73 -42 -158 -129 -99 -101 -130 -128 -111 -98
4 7 3 8 -4 4 -6 -4 -9 -12 -6 -19 4 -11 -141 -165 -151 -159 -3 1 -4 0 -2 -3
5 -9 -77 -84 -86 -78 -6 3 -7 2 -4 -4 6 -9 -59 -81 -69 -75 -2 1 -3 0 -1 -3 5
-10 -157 -164 -166 -158 -6 3 -7 2 -4 -4 8 -13 -227 -246 -238 -236 -4 4 -5 3
-2 -3 3 -6 -12 -28 -35 -50 -22 -21 -38 -34 -34 -27 3 6 2 14 -3 17 -5 4 -8
-2 -6 -11 1 -10 -18 -39 -42 -66 -49 -53 -73 -101 -73 -147 0 -22 -4 -29 -12
-24 -10 6 -10 5 -1 -7 8 -10 14 -119 19 -353 6 -289 5 -338 -7 -331 -10 6 -9
2 2 -11 14 -16 18 -64 23 -321 5 -187 4 -303 -2 -303 -5 0 -34 11 -63 25 -49
23 -46 28 6 10 11 -3 7 1 -8 10 -16 9 -35 14 -43 11 -19 -7 -195 65 -187 77 3
6 1 7 -6 3 -6 -4 -82 22 -169 57 -317 131 -355 127 -427 -40 -21 -49 -40 -90
-44 -93 -3 -3 -7 -12 -9 -20 -7 -40 -66 -159 -75 -153 -6 3 -7 1 -3 -6 10 -15
-115 -312 -128 -304 -5 4 -6 1 -2 -6 9 -14 -12 -71 -26 -71 -5 0 -7 -4 -4 -8
3 -5 -17 -65 -44 -133 -27 -68 -50 -137 -50 -154 0 -31 24 -111 84 -283 39
-111 43 -131 21 -92 l-15 25 6 -30 c9 -40 15 -49 24 -35 10 15 82 -183 74
-203 -3 -9 -1 -24 5 -34 9 -15 10 -13 5 12 -12 54 3 22 44 -96 22 -64 38 -126
35 -137 -2 -11 0 -23 6 -26 7 -4 8 -1 5 8 -3 9 -4 16 -1 16 5 0 9 -10 85 -220
54 -146 73 -208 47 -155 l-14 30 2 -32 c1 -23 7 -33 18 -33 15 0 28 -28 87
-189 3 -9 1 -12 -6 -7 -8 5 -11 0 -9 -13 4 -28 17 -39 18 -15 0 10 13 -15 30
-56 16 -41 27 -81 24 -88 -3 -7 -1 -11 3 -8 5 3 17 -18 27 -47 10 -29 28 -78
41 -109 26 -62 30 -83 14 -73 -6 3 -7 -1 -4 -9 3 -9 10 -14 14 -11 8 5 36 -53
29 -59 -2 -2 -49 -11 -104 -20 -130 -22 -313 -68 -394 -101 -36 -14 -74 -23
-85 -19 -15 4 -17 3 -8 -4 10 -7 -1 -15 -40 -31 -30 -12 -80 -37 -112 -56 -31
-20 -63 -32 -69 -29 -7 4 -9 4 -5 -1 10 -11 -70 -67 -84 -59 -6 4 -8 3 -5 -4
8 -12 -51 -65 -64 -56 -5 3 -9 2 -8 -3 3 -18 -1 -34 -9 -29 -4 2 -8 -3 -9 -12
-1 -9 -4 -38 -7 -64 -2 -27 -1 -48 5 -48 5 0 9 5 9 12 0 6 10 2 23 -10 41 -39
77 -30 170 43 158 126 426 235 709 289 139 27 418 48 418 33 0 -5 5 -5 12 -1
13 9 140 8 233 -1 204 -20 498 -71 490 -86 -3 -4 0 -11 6 -15 8 -4 9 -3 5 4
-11 19 22 14 140 -19 60 -17 113 -37 117 -45 4 -8 13 -14 20 -14 7 0 6 4 -3
10 -49 34 211 -57 508 -176 137 -56 216 -92 208 -97 -7 -6 -4 -7 7 -3 10 3 49
-4 88 -16 54 -17 66 -24 52 -30 -13 -6 -11 -7 8 -3 14 2 43 0 64 -6 29 -8 35
-13 24 -21 -10 -7 -8 -8 8 -3 12 3 64 -5 115 -19 268 -72 521 -101 813 -93
324 8 639 60 924 152 74 24 139 41 144 38 6 -3 7 -1 3 5 -4 7 -2 12 4 12 13 0
49 59 45 74 -2 6 -6 24 -10 39 -4 20 -16 33 -42 43 -32 14 -41 14 -104 -6 -39
-11 -75 -18 -82 -14 -7 4 -8 3 -4 -1 28 -32 -665 -165 -857 -165 l-34 0 15 40
c9 22 20 37 26 33 6 -3 7 -1 3 6 -10 16 3 53 16 45 7 -5 8 -2 4 5 -11 17 156
433 167 418 6 -8 7 -6 3 6 -3 10 59 179 148 405 85 213 210 529 279 702 69
173 196 493 282 710 87 217 161 410 166 429 4 21 3 49 -6 75 -15 49 -357 791
-445 966 -22 43 -37 80 -35 84 3 3 2 4 -1 2 -3 -2 -17 7 -31 20 -40 37 -114
37 -198 -1 -30 -13 -64 -21 -77 -18 -18 4 -20 2 -8 -6 11 -8 0 -17 -55 -42
-39 -18 -81 -32 -95 -31 -16 2 -20 0 -13 -6 17 -11 -130 -84 -154 -76 -13 4
-14 3 -5 -4 10 -7 6 -12 -17 -21 -16 -7 -35 -10 -42 -5 -7 4 -10 3 -5 -4 8
-13 -81 -55 -97 -45 -5 3 -7 2 -4 -4 8 -13 -41 -36 -55 -27 -6 4 -8 2 -5 -3 6
-9 -12 -23 -29 -23 -3 0 -3 19 1 43 9 73 55 896 55 1002 0 94 -2 104 -29 146
-16 24 -79 93 -139 153 -61 60 -109 113 -106 118 3 5 0 7 -8 6 -7 -2 -12 4
-10 12 2 8 0 11 -4 7 -10 -10 -145 124 -137 136 3 6 2 7 -4 4 -13 -8 -86 67
-76 78 5 4 3 5 -3 2 -14 -8 -87 66 -77 78 5 4 3 5 -3 2 -13 -8 -87 66 -77 77
5 4 2 6 -5 4 -7 -1 -122 108 -255 245 -187 190 -248 247 -267 247 -20 0 -22 2
-10 10 22 14 1 10 -55 -11z m152 -339 c-1 -4 1 -7 5 -6 12 2 157 -147 152
-156 -3 -5 0 -7 8 -6 8 2 12 -5 10 -17 -2 -14 0 -16 6 -7 11 17 47 -21 36 -39
-4 -7 -3 -10 3 -6 13 8 119 -100 115 -116 -2 -7 0 -9 4 -4 10 10 45 -23 37
-36 -3 -5 -1 -7 4 -4 12 7 46 -26 38 -36 -3 -4 -2 -5 2 -2 11 8 43 -27 36 -39
-3 -6 -2 -8 2 -3 11 10 46 -23 38 -36 -3 -5 -1 -7 4 -4 11 7 35 -15 32 -29 -4
-21 2 -35 11 -29 6 4 7 12 4 18 -4 7 12 -6 34 -27 23 -22 38 -44 35 -50 -3 -6
-2 -8 2 -3 12 10 46 -23 38 -37 -3 -6 -3 -8 2 -4 11 11 36 -12 28 -26 -3 -6
-2 -8 2 -3 11 9 46 -23 39 -35 -3 -4 -2 -7 3 -6 10 3 143 -112 143 -123 0 -8
-84 -69 -95 -69 -3 0 -3 5 1 12 4 7 3 8 -5 4 -6 -4 -9 -11 -6 -15 7 -12 -83
-73 -97 -65 -6 4 -8 3 -4 -4 3 -6 -36 -39 -94 -78 -83 -56 -104 -66 -118 -57
-9 6 -16 16 -14 23 1 6 -2 9 -8 5 -14 -9 -42 14 -33 28 3 5 2 7 -4 4 -9 -6
-83 38 -83 49 0 3 5 2 12 -2 7 -4 8 -3 4 5 -4 6 -12 9 -17 6 -15 -10 -118 76
-112 94 4 13 3 13 -5 2 -8 -11 -21 -5 -66 29 -31 23 -53 47 -49 53 3 6 1 7 -5
3 -15 -9 -84 43 -75 57 3 6 1 7 -6 3 -6 -4 -32 9 -59 30 -82 65 -80 62 -66
146 7 40 29 195 49 343 20 149 39 278 42 288 5 17 6 17 24 2 10 -10 17 -21 16
-25z m-233 -43 c-4 -31 -9 -55 -13 -53 -3 2 -7 -19 -8 -48 -1 -28 -17 -165
-37 -303 -36 -253 -60 -344 -88 -327 -7 4 -8 3 -4 -5 10 -15 -163 -323 -177
-314 -6 3 -7 1 -3 -5 7 -12 -43 -112 -55 -112 -3 0 -17 10 -31 23 -14 12 -38
29 -54 38 -16 9 -28 21 -26 28 1 7 -2 9 -9 6 -13 -9 -151 84 -143 96 3 5 -3 9
-12 9 -28 0 -93 50 -87 66 3 8 0 14 -7 14 -6 0 -8 -5 -4 -11 4 -7 1 -10 -7 -7
-8 3 -13 11 -11 17 1 7 -2 10 -7 6 -11 -6 -91 42 -91 55 0 11 36 41 43 35 4
-3 5 -2 2 2 -8 10 87 103 98 96 6 -3 7 -2 4 4 -8 12 187 206 197 196 4 -4 6
-3 4 3 -4 15 313 345 324 338 5 -3 7 0 6 8 -2 7 3 12 10 11 6 -2 11 3 10 10
-2 6 3 11 10 10 6 -2 11 3 10 10 -2 6 4 11 12 9 8 -2 11 0 7 4 -4 4 25 41 65
81 39 40 73 71 75 69 2 -2 1 -28 -3 -59z m83 -873 c29 -20 50 -41 46 -47 -3
-5 -2 -7 4 -4 12 8 129 -81 125 -95 -1 -5 2 -7 8 -3 14 9 42 -14 33 -28 -3 -6
-1 -7 6 -3 12 8 73 -37 65 -48 -2 -3 -1 -4 2 -1 7 5 89 -50 100 -67 4 -7 3 -8
-4 -4 -7 4 -12 5 -12 2 0 -3 10 -10 21 -17 17 -8 20 -8 14 1 -4 7 6 2 23 -10
17 -13 28 -28 25 -33 -3 -6 -2 -7 4 -4 5 3 22 -4 37 -16 l28 -23 -16 -454 c-9
-250 -18 -511 -21 -580 -26 -622 -47 -1101 -55 -1281 -5 -119 -10 -241 -11
-270 -1 -44 -3 -49 -10 -29 l-9 25 4 -25 c2 -14 5 -29 7 -35 1 -5 -1 -90 -5
-188 -7 -159 -10 -178 -25 -172 -13 5 -14 4 -3 -6 19 -21 16 -129 -5 -146 -10
-8 -12 -11 -4 -7 12 6 13 -9 8 -92 -4 -54 -11 -100 -17 -102 -5 -2 -8 -8 -4
-13 3 -5 -6 -62 -21 -126 -24 -109 -35 -144 -35 -115 0 7 -6 12 -13 12 -12 0
-14 -12 -7 -55 1 -5 6 -1 11 10 7 15 8 10 4 -20 -2 -22 -9 -41 -14 -43 -6 -2
-7 -10 -4 -18 5 -13 -50 -286 -65 -326 -6 -14 -14 -13 -67 13 -33 16 -52 27
-42 24 9 -2 17 1 17 6 0 7 -11 9 -26 6 -30 -5 -127 31 -118 44 3 5 -1 6 -9 3
-8 -3 -47 8 -88 24 -41 16 -104 39 -141 52 -60 21 -68 27 -69 49 0 14 -2 35
-5 46 -2 11 -4 861 -4 1889 l0 1870 24 35 c13 20 54 88 91 151 37 63 85 144
106 180 21 36 41 73 45 83 8 23 11 22 71 -19z m-900 -214 c50 -36 89 -69 86
-74 -4 -5 -1 -6 4 -3 11 7 138 -73 160 -100 6 -8 14 -14 18 -13 3 1 28 -13 55
-32 l49 -33 1 -235 c4 -2078 10 -3452 16 -3476 7 -27 6 -28 -11 -14 -12 10
-16 10 -11 2 6 -9 2 -11 -16 -7 -12 3 -70 16 -128 30 -58 14 -113 25 -122 25
-10 0 -17 3 -16 8 1 4 -2 18 -5 32 -10 37 -40 506 -35 540 2 16 1 27 -4 24 -4
-3 -8 21 -9 53 0 32 -4 109 -7 171 -5 72 -3 112 3 112 6 0 5 3 -1 8 -6 4 -14
58 -17 127 -4 66 -15 280 -27 475 -11 195 -18 369 -17 385 2 17 0 35 -3 40 -4
6 -10 91 -14 190 -4 99 -11 293 -16 430 -5 138 -12 333 -15 435 -3 102 -10
325 -16 495 -11 330 -10 478 0 473 4 -2 48 -32 98 -68z m1972 -40 c-4 -58 -12
-190 -18 -295 -25 -424 -46 -641 -73 -757 -16 -71 -27 -98 -38 -98 -11 0 -12
-2 -2 -8 9 -7 10 -20 1 -65 -7 -34 -16 -54 -22 -50 -6 3 -7 1 -3 -5 10 -16
-66 -322 -77 -315 -6 4 -7 1 -2 -6 9 -16 -25 -172 -37 -165 -4 3 -5 -1 -3 -9
5 -13 -6 -63 -120 -532 -29 -121 -55 -229 -57 -240 -3 -11 -4 8 -4 42 0 36 4
57 9 50 5 -7 6 3 3 23 -5 26 -4 30 3 15 9 -18 10 -17 10 8 1 19 -3 26 -11 21
-12 -8 -10 87 12 481 19 359 39 849 55 1405 3 96 8 216 11 265 l6 90 119 83
c68 47 124 80 131 76 6 -4 8 -3 4 4 -3 6 19 28 51 51 31 22 58 39 58 38 1 -1
-2 -49 -6 -107z m787 -895 c-25 -92 -48 -170 -52 -174 -4 -3 -4 7 0 22 5 20 3
27 -5 22 -7 -5 -9 -22 -6 -44 4 -23 -4 -74 -22 -141 -27 -103 -28 -105 -67
-124 -21 -10 -52 -19 -67 -19 -15 0 -23 -3 -16 -7 6 -5 -2 -12 -21 -19 -18 -6
-37 -8 -43 -4 -5 3 -7 1 -4 -4 6 -10 -13 -23 -34 -23 -15 0 -99 121 -92 133 3
5 1 7 -4 4 -12 -7 -136 148 -136 169 0 7 -3 11 -7 9 -4 -2 -17 9 -28 25 -22
29 -22 29 -2 40 11 6 26 8 33 4 6 -4 9 -4 5 1 -9 9 287 156 319 159 12 0 19 3
16 6 -3 3 57 35 134 72 76 36 139 65 141 63 2 -1 -17 -78 -42 -170z m209 -31
c8 -20 12 -41 8 -47 -3 -5 -2 -7 4 -4 12 8 95 -171 86 -186 -4 -6 -1 -7 7 -2
10 6 12 4 7 -9 -4 -9 -3 -15 2 -12 11 7 23 -22 15 -35 -3 -5 -1 -9 4 -9 15 0
83 -155 76 -176 -4 -13 -3 -15 3 -6 7 9 12 6 21 -13 15 -32 15 -38 2 -30 -15
9 -12 -9 5 -31 15 -19 15 -19 9 1 -3 11 7 -2 21 -28 14 -26 23 -52 20 -57 -3
-6 -1 -10 6 -10 26 0 -8 -19 -110 -60 l-103 -42 -24 28 c-13 16 -22 34 -20 40
2 6 0 17 -6 25 -7 11 -8 9 -3 -6 8 -27 -3 -14 -54 59 -22 32 -38 63 -35 68 3
4 0 7 -8 6 -7 -2 -12 5 -12 14 1 10 -2 16 -6 13 -4 -3 -20 13 -35 35 l-27 39
64 235 c34 130 64 236 65 236 2 0 10 -16 18 -36z m-3832 -114 c36 -14 54 -36
20 -23 -15 5 -16 3 -6 -7 9 -10 16 -10 25 -2 10 8 54 -7 170 -56 86 -37 154
-70 152 -74 -3 -4 3 -5 12 -1 13 5 15 3 9 -7 -5 -8 -4 -11 3 -6 17 10 92 -24
92 -43 0 -12 2 -13 9 -3 6 10 20 8 64 -12 l57 -25 -1 -54 c-1 -30 2 -60 5 -66
4 -6 1 -11 -6 -12 -10 0 -10 -2 0 -6 6 -2 12 -9 12 -14 0 -6 -5 -7 -11 -3 -8
5 -8 1 0 -14 14 -27 15 -94 1 -72 -7 12 -10 8 -10 -15 0 -23 3 -27 10 -15 8
13 10 13 10 -2 0 -12 -18 -23 -66 -38 -79 -24 -84 -24 -84 -6 0 8 -4 17 -9 20
-4 3 -6 -5 -4 -18 5 -22 -2 -25 -114 -55 -65 -18 -123 -34 -130 -36 -7 -2 -19
18 -29 48 -9 29 -43 124 -75 211 -33 88 -57 161 -55 164 3 2 -2 11 -10 19 -10
10 -13 26 -10 47 4 19 3 24 -2 13 -6 -14 -11 -8 -26 32 -10 28 -14 56 -10 62
4 7 3 9 -2 6 -5 -3 -17 15 -26 39 -9 25 -13 44 -9 42 3 -2 23 -10 44 -18z
m-202 -142 c-7 -18 -6 -25 4 -25 7 0 11 7 9 16 -2 9 3 0 12 -19 9 -19 17 -47
18 -62 0 -14 4 -24 7 -22 5 3 57 -130 76 -196 4 -13 4 -13 -6 0 -7 9 -11 11
-11 3 0 -7 6 -16 14 -20 16 -9 116 -270 116 -303 0 -12 -23 -66 -51 -121 l-51
-100 -31 19 c-18 11 -55 32 -84 47 -29 15 -50 32 -47 36 3 5 -3 6 -12 2 -13
-5 -15 -3 -9 7 5 8 4 11 -2 7 -15 -9 -144 64 -136 76 3 6 1 7 -5 3 -11 -7 -82
23 -82 35 0 4 3 15 6 24 6 13 9 14 16 3 7 -9 8 -8 4 5 -3 11 7 48 23 85 16 37
65 155 109 262 115 278 113 273 118 267 2 -2 0 -15 -5 -29z m3133 -80 c-3 -4
-1 -8 4 -8 6 0 53 -58 106 -129 107 -142 108 -145 77 -251 -13 -46 -20 -59
-24 -45 -3 11 -3 3 0 -17 3 -26 1 -38 -6 -38 -7 0 -10 -4 -6 -10 7 -12 -138
-577 -152 -590 -3 -3 -3 9 1 25 5 22 4 26 -4 15 -5 -8 -7 -27 -4 -42 8 -38
-67 -318 -78 -292 -6 14 -7 10 -4 -12 3 -19 -11 -93 -36 -185 -22 -85 -43
-164 -45 -176 -3 -13 -10 -20 -16 -16 -6 4 -7 1 -2 -6 8 -14 -44 -231 -56
-231 -5 0 -6 -6 -4 -13 3 -7 -14 -84 -39 -172 -24 -88 -76 -285 -117 -438 -45
-173 -76 -272 -81 -265 -5 8 -6 2 -3 -13 4 -16 -3 -57 -16 -100 -12 -41 -22
-77 -21 -81 3 -13 -8 -10 -136 34 -94 32 -121 46 -118 58 3 8 37 155 76 325
40 171 135 560 212 865 144 572 316 1261 410 1642 51 211 54 217 70 196 9 -12
14 -26 12 -30z m637 -255 c9 -11 10 -14 2 -9 -9 5 -12 0 -11 -18 3 -28 15 -35
20 -11 5 23 62 -54 63 -84 0 -13 7 -27 15 -29 13 -5 13 -3 0 14 -14 18 -14 18
8 0 12 -11 20 -26 17 -33 -2 -8 -1 -12 4 -9 10 6 91 -106 91 -126 0 -28 -74
-207 -83 -201 -6 4 -7 1 -3 -6 12 -18 -34 -136 -46 -119 -8 10 -9 9 -5 -4 7
-22 -12 -90 -23 -83 -5 3 -12 0 -16 -6 -4 -8 -3 -9 4 -5 7 4 12 3 12 -2 0 -18
-203 -537 -211 -540 -5 -2 -7 -7 -4 -12 5 -8 -299 -808 -311 -819 -4 -3 -4 2
-1 12 4 9 2 17 -4 17 -7 0 -9 -11 -6 -27 5 -26 -54 -199 -72 -213 -3 -3 -6
-12 -7 -20 -2 -31 -147 -389 -155 -384 -5 3 -6 -1 -4 -8 6 -16 -56 -195 -67
-197 -29 -5 -68 1 -68 10 0 6 7 8 16 5 8 -3 12 -2 9 4 -8 13 -32 13 -37 0 -5
-17 -108 8 -108 27 0 31 44 182 52 177 4 -3 5 2 2 10 -3 8 8 63 25 123 62 222
279 1035 349 1308 8 33 19 61 23 63 4 2 6 9 4 15 -7 19 40 179 50 170 4 -4 5
-2 1 5 -4 6 23 129 60 273 48 184 70 256 76 242 6 -12 7 -10 3 10 -7 35 66
326 76 300 3 -10 6 5 6 34 -1 62 16 87 52 78 15 -3 21 -2 14 3 -8 5 16 20 70
44 97 42 100 43 118 21z m-2941 -274 c0 -11 -4 -17 -10 -14 -5 3 -10 2 -10 -4
0 -5 5 -13 10 -16 6 -4 8 -16 4 -27 -3 -12 -2 -18 3 -15 5 3 14 -93 21 -231 7
-130 18 -320 24 -422 6 -102 12 -237 12 -302 1 -64 4 -114 7 -112 10 6 23
-272 14 -287 -5 -8 -4 -10 3 -5 9 5 12 -11 12 -56 1 -35 9 -178 19 -318 11
-140 19 -255 18 -256 -1 -1 -30 1 -64 4 l-62 4 -46 140 c-26 77 -44 147 -41
155 3 8 2 11 -3 8 -9 -5 -461 1340 -461 1371 0 22 93 203 102 198 4 -3 5 2 2
10 -9 24 24 75 54 82 53 12 376 105 381 109 8 9 11 5 11 -16z m3473 -37 c-3
-12 -10 -19 -16 -15 -6 3 -7 1 -3 -5 6 -10 -98 -290 -113 -302 -3 -3 -6 -9 -6
-15 0 -5 -6 -27 -14 -49 -10 -29 -16 -35 -23 -25 -7 10 -8 8 -3 -7 7 -27 -23
-106 -38 -97 -6 3 -7 1 -3 -6 4 -6 -27 -100 -70 -208 -61 -155 -79 -193 -86
-178 -6 16 -7 14 -3 -7 6 -32 -33 -140 -48 -131 -6 3 -7 1 -3 -6 10 -16 -144
-402 -157 -394 -6 3 -7 1 -3 -6 4 -6 2 -27 -5 -46 -7 -19 -16 -30 -19 -25 -4
6 -7 -2 -7 -17 -1 -32 -142 -395 -152 -389 -3 2 -7 -6 -7 -17 -3 -39 -146
-387 -157 -380 -6 4 -7 1 -3 -6 7 -11 -94 -279 -115 -307 -11 -14 -81 -5 -76
10 45 127 61 165 68 160 5 -3 6 1 3 9 -6 16 172 480 187 485 5 2 7 7 4 12 -3
4 30 100 73 212 43 111 96 249 117 306 27 71 41 99 48 90 6 -9 7 -7 3 6 -8 22
43 158 55 150 5 -3 6 1 4 9 -3 7 24 92 61 188 36 96 75 198 86 227 12 32 24
50 30 45 8 -4 9 0 5 11 -4 10 26 102 74 229 44 117 99 262 121 322 23 61 47
116 54 124 12 13 136 72 141 67 1 -1 0 -12 -4 -24z m-4528 -205 c19 -13 32
-27 27 -32 -4 -5 -2 -5 5 -1 17 9 95 -32 87 -46 -4 -7 -3 -8 4 -4 16 9 133
-54 125 -67 -3 -6 -1 -7 5 -3 15 9 60 -21 68 -46 4 -12 1 -24 -7 -30 -11 -8
-11 -9 2 -5 12 4 19 -5 28 -34 7 -22 9 -45 5 -51 -4 -6 -3 -8 3 -5 11 7 68
-151 59 -161 -4 -3 -6 1 -6 9 -1 10 -4 9 -11 -4 -8 -13 -7 -22 2 -33 12 -14
14 -14 19 1 4 11 17 -18 37 -77 40 -120 48 -148 34 -128 -9 13 -11 13 -11 -2
0 -10 6 -18 14 -18 16 0 81 -184 72 -206 -3 -8 -2 -13 3 -9 5 3 25 -43 45
-102 38 -115 43 -138 24 -127 -7 5 -8 3 -4 -5 5 -7 11 -10 14 -6 3 3 23 -41
43 -98 37 -102 44 -164 24 -197 -8 -13 -6 -13 8 -1 11 9 15 22 11 40 -4 22 -3
21 10 -7 30 -65 77 -227 67 -230 -5 -2 -7 -10 -4 -18 4 -11 8 -12 13 -4 6 10
40 -66 40 -90 0 -3 -52 -6 -115 -7 -105 -2 -115 0 -120 18 -4 10 -3 24 1 30 4
7 3 9 -2 6 -6 -3 -18 18 -28 46 -10 29 -74 203 -143 387 -273 733 -432 1174
-427 1182 3 4 1 8 -4 8 -6 0 -19 26 -30 58 -11 31 -23 65 -27 75 -10 23 -1 22
40 -6z"/>
</g>
</svg>
