<?xml version="1.0" standalone="no"?>
<!DOCTYPE svg PUBLIC "-//W3C//DTD SVG 20010904//EN" "http://www.w3.org/TR/2001/REC-SVG-20010904/DTD/svg10.dtd">
<svg xmlns="http://www.w3.org/2000/svg" version="1.0" width="1024.000000pt" height="1024.000000pt" viewBox="0 0 1024.000000 1024.000000" preserveAspectRatio="xMidYMid meet">
<metadata>
Created by potrace 1.16, written by Peter Selinger 2001-2019
<meta name="Producer" content="Online-Convert"/></metadata>
<g transform="translate(0.000000,1024.000000) scale(0.100000,-0.100000)" fill="#000000" stroke="none">
<path d="M4965 7914 c-278 -20 -535 -82 -771 -186 -125 -55 -369 -196 -441 -256 -24 -19 -43 -32 -43 -29 0 3 -16 -11 -35 -30 -19 -19 -39 -32 -45 -28 -6 4 -9 3 -8 -2 2 -5 -49 -61 -113 -124 -63 -64 -150 -162 -193 -220 -81 -108 -209 -315 -227 -368 -6 -17 -16 -31 -22 -31 -6 0 -8 -2 -5 -6 3 -3 -9 -40 -27 -82 -41 -98 -91 -259 -116 -376 -45 -202 -50 -313 -56 -1106 -4 -543 -8 -759 -17 -769 -8 -11 -8 -13 1 -8 13 8 12 62 15 -695 l3 -568 -473 -2 c-307 -2 -472 0 -472 7 0 5 -11 -12 -25 -38 -24 -44 -25 -49 -10 -77 8 -16 24 -34 35 -40 18 -9 1055 -9 1101 1 9 2 15 8 12 15 -4 12 16 38 227 292 78 95 139 161 147 158 7 -3 15 0 19 6 4 7 3 8 -4 4 -28 -17 -8 23 33 68 25 26 45 50 45 52 0 2 71 90 158 195 86 105 168 206 182 223 13 17 90 110 170 207 80 97 214 260 299 362 84 103 158 184 164 180 6 -3 7 -1 3 5 -9 15 122 174 136 165 6 -3 8 -2 5 4 -4 5 7 29 24 51 31 42 49 53 49 30 0 -9 2 -10 8 -2 9 14 102 17 102 4 0 -5 11 -9 24 -8 14 1 22 6 20 10 -3 4 13 7 35 5 23 -1 41 -5 41 -9 0 -5 5 -8 11 -8 5 0 8 4 5 8 -2 4 74 8 170 9 104 1 174 -2 174 -8 0 -5 12 -9 28 -9 21 0 24 2 12 10 -11 7 5 10 52 10 44 0 68 -4 71 -12 4 -10 6 -10 6 0 1 6 6 12 12 12 5 0 7 -4 4 -10 -3 -5 1 -10 10 -10 9 0 13 5 10 10 -4 6 5 10 20 10 15 0 24 -4 20 -10 -6 -9 16 -15 39 -11 13 3 46 -31 40 -40 -3 -5 -1 -9 4 -9 11 0 202 -226 202 -240 0 -5 4 -10 9 -10 5 0 47 -46 93 -103 45 -57 146 -179 223 -271 77 -93 140 -174 140 -180 1 -17 16 -37 24 -31 8 4 210 -235 220 -259 2 -6 12 -17 22 -26 9 -8 69 -80 133 -160 64 -80 125 -154 135 -165 22 -24 168 -202 310 -378 57 -70 112 -132 122 -137 11 -6 222 -10 541 -10 514 0 525 0 546 20 12 12 23 25 23 30 1 6 2 16 3 23 4 24 -18 59 -45 73 -23 11 -109 14 -483 14 l-455 0 -4 1448 c-3 1608 1 1502 -72 1788 -79 308 -230 604 -430 844 -76 91 -257 268 -340 331 -347 266 -702 410 -1130 460 -92 10 -356 19 -430 13z m415 -174 c281 -35 586 -139 815 -278 169 -102 341 -235 329 -254 -5 -7 -2 -8 6 -3 17 11 164 -143 264 -275 213 -283 335 -582 396 -973 12 -75 21 -174 21 -220 0 -45 2 -165 5 -266 4 -126 3 -186 -5 -194 -6 -6 -11 -18 -10 -26 0 -11 3 -10 9 4 5 11 9 -376 9 -897 1 -840 0 -918 -15 -926 -9 -5 -14 -15 -10 -21 4 -6 12 -9 17 -6 5 4 9 -3 9 -14 0 -12 -6 -21 -12 -21 -10 0 -10 -2 0 -9 10 -6 13 -32 11 -101 l-3 -92 -40 43 c-23 25 -88 102 -146 173 -58 71 -141 172 -185 226 -44 53 -138 168 -210 255 -71 86 -146 176 -165 199 -20 23 -114 138 -211 256 -97 118 -225 274 -285 346 -60 73 -145 176 -189 230 -44 54 -95 115 -114 136 l-33 38 -519 0 c-356 0 -520 -3 -524 -11 -4 -6 -13 -8 -21 -5 -7 3 -11 0 -8 -7 2 -7 -14 -32 -37 -57 -22 -25 -38 -37 -35 -27 4 11 2 16 -5 12 -6 -4 -8 -13 -5 -21 7 -18 -212 -287 -226 -278 -7 4 -6 9 2 14 9 5 8 9 -2 13 -16 6 -21 -24 -5 -34 8 -6 -209 -275 -598 -745 -55 -66 -217 -263 -360 -437 -168 -206 -262 -312 -267 -304 -10 16 -10 2191 0 2201 4 4 7 105 7 224 0 296 17 434 76 642 67 236 146 409 276 602 81 123 105 151 232 282 277 286 643 486 1041 571 69 14 159 30 200 34 112 12 424 12 520 1z"/>
</g>
</svg>
