<?xml version="1.0" standalone="no"?>
<!DOCTYPE svg PUBLIC "-//W3C//DTD SVG 20010904//EN" "http://www.w3.org/TR/2001/REC-SVG-20010904/DTD/svg10.dtd">
<svg xmlns="http://www.w3.org/2000/svg" version="1.0" width="1024.000000pt" height="1024.000000pt" viewBox="0 0 1024.000000 1024.000000" preserveAspectRatio="xMidYMid meet">
<metadata>
Created by potrace 1.16, written by Peter Selinger 2001-2019
<meta name="Producer" content="Online-Convert"/></metadata>
<g transform="translate(0.000000,1024.000000) scale(0.100000,-0.100000)" fill="#000000" stroke="none">
<path d="M0 5120 l0 -5120 5120 0 5120 0 0 5120 0 5120 -5120 0 -5120 0 0 -5120z m10224 5092 c6 -21 6 -10160 -1 -10185 -4 -16 -256 -17 -5109 -17 l-5104 0 0 5110 0 5110 5104 0 c4840 0 5105 -1 5110 -18z"/>
<path d="M4905 8430 c-131 -37 -281 -128 -347 -211 -30 -37 -52 -49 -60 -31 -6 14 -118 101 -139 107 -17 6 -19 9 -8 17 11 7 9 8 -6 6 -11 -1 -46 8 -78 20 -32 12 -67 22 -78 22 -11 0 -18 3 -16 8 3 4 -39 7 -93 7 -55 0 -96 -4 -93 -9 3 -5 -6 -7 -20 -4 -15 3 -24 1 -21 -3 3 -5 -2 -9 -10 -9 -8 0 -45 -14 -83 -32 -37 -17 -73 -31 -80 -31 -7 0 -11 -3 -10 -7 1 -3 -16 -22 -37 -41 -22 -18 -37 -29 -33 -22 4 6 3 14 -2 17 -5 4 -8 -1 -7 -11 2 -9 -19 -44 -45 -79 -57 -75 -89 -156 -97 -244 -6 -58 -7 -61 -13 -30 l-6 35 -2 -31 c0 -17 -7 -31 -13 -32 -43 -4 -75 -11 -91 -17 -9 -4 -27 -5 -38 -2 -12 3 -19 3 -16 0 3 -3 -26 -21 -65 -41 -84 -42 -170 -124 -212 -202 -16 -30 -32 -57 -35 -60 -22 -19 -19 -316 3 -302 5 3 7 -2 3 -11 -3 -10 -2 -17 2 -17 5 0 14 -14 20 -31 6 -17 27 -54 47 -82 20 -27 37 -56 38 -63 2 -16 14 -29 26 -29 8 0 106 -70 120 -85 12 -13 129 -69 168 -81 23 -7 42 -17 42 -23 0 -6 -28 -27 -62 -46 -60 -34 -141 -110 -193 -179 -47 -65 -70 -155 -68 -266 1 -58 8 -118 17 -142 11 -31 12 -43 3 -47 -7 -2 -4 -5 6 -5 15 -1 21 -14 20 -48 -1 -7 3 -10 8 -8 4 3 15 -8 24 -25 8 -16 12 -30 9 -30 -4 0 3 -9 15 -19 14 -12 20 -25 15 -32 -4 -7 -3 -9 3 -6 17 10 65 -47 57 -69 -5 -16 -4 -16 5 -4 9 12 11 11 11 -10 0 -17 3 -21 8 -12 7 10 15 8 36 -9 22 -17 25 -24 14 -31 -10 -8 -10 -9 2 -5 8 2 33 -10 55 -28 64 -51 153 -105 247 -150 49 -23 85 -44 82 -48 -3 -3 4 -3 17 0 17 5 20 3 14 -7 -5 -9 -4 -11 3 -6 6 4 37 0 69 -9 93 -25 266 -31 342 -11 174 45 305 153 385 318 25 51 53 123 62 161 9 37 21 67 26 67 5 0 6 5 3 10 -3 6 0 10 7 10 10 0 10 2 0 8 -9 6 -10 19 -4 48 8 38 8 37 26 -51 10 -49 20 -99 22 -110 2 -11 8 -39 14 -63 6 -23 8 -54 6 -67 -3 -14 0 -25 6 -25 7 0 8 -14 5 -37 -5 -26 -3 -33 3 -23 5 8 10 11 10 5 0 -5 9 -77 21 -159 11 -82 19 -162 17 -177 -3 -15 -1 -26 2 -24 8 5 20 -128 20 -212 0 -29 -4 -53 -10 -53 -5 0 -10 -5 -10 -11 0 -5 4 -8 9 -5 13 9 20 -41 7 -55 -8 -8 -8 -13 2 -16 10 -4 10 -8 0 -21 -9 -10 -9 -13 -1 -9 8 5 12 -4 11 -33 0 -22 -4 -43 -9 -46 -5 -3 -7 -10 -3 -15 3 -5 0 -16 -6 -24 -7 -8 -8 -15 -3 -15 25 0 4 -285 -42 -556 -14 -80 -25 -149 -25 -152 0 -4 -5 0 -10 8 -6 10 -8 2 -4 -25 3 -22 2 -35 -3 -28 -5 6 -8 -6 -9 -30 -1 -44 -44 -231 -65 -282 -6 -16 -13 -39 -14 -50 -4 -41 -28 -115 -35 -110 -4 2 -5 -7 -2 -22 3 -17 1 -24 -6 -19 -6 3 -14 1 -18 -5 -4 -8 -3 -9 4 -5 13 8 15 -7 6 -41 -4 -13 -11 -20 -19 -16 -10 3 -13 -2 -9 -21 4 -25 -24 -100 -114 -301 -19 -44 -55 -127 -79 -185 -23 -58 -47 -104 -52 -103 -5 2 -8 -9 -5 -23 3 -16 1 -23 -6 -19 -5 3 -7 0 -5 -8 3 -7 -1 -28 -8 -46 -13 -31 -14 -29 -21 71 -8 133 -14 174 -37 282 -10 49 -16 93 -12 99 3 5 2 7 -4 4 -5 -3 -17 23 -26 58 -13 49 -15 70 -6 92 38 102 52 339 29 503 -23 162 -72 335 -133 471 -14 31 -23 60 -19 65 4 4 2 4 -5 0 -7 -3 -14 2 -18 14 -9 27 -109 162 -173 232 -35 37 -48 58 -40 62 9 4 8 5 -2 5 -31 -2 -39 2 -45 22 -4 11 -9 18 -12 16 -2 -3 -39 20 -81 50 -60 43 -255 152 -282 158 -62 13 -72 18 -59 27 10 7 9 8 -6 4 -11 -3 -45 1 -75 10 -69 19 -222 44 -273 44 -21 0 -36 3 -34 8 9 14 -240 -6 -272 -22 -38 -20 -44 -30 -47 -85 -2 -31 0 -38 5 -22 6 24 7 24 43 -20 44 -54 111 -189 112 -229 1 -15 5 -26 10 -22 5 3 7 -5 4 -16 -4 -12 -2 -20 3 -16 5 3 9 -1 9 -8 0 -7 3 -24 7 -37 5 -19 3 -22 -8 -17 -8 4 -6 1 3 -6 21 -18 37 -95 17 -83 -12 8 -12 6 0 -8 7 -9 10 -17 5 -17 -5 0 -4 -4 3 -8 14 -9 57 -197 48 -211 -3 -5 -2 -11 3 -13 4 -1 24 -51 43 -110 20 -59 32 -105 27 -102 -4 3 -8 1 -8 -4 0 -6 6 -12 14 -15 8 -3 32 -40 54 -82 22 -41 33 -70 26 -64 -11 9 -14 9 -14 0 0 -6 12 -16 26 -21 18 -7 24 -15 20 -26 -3 -8 -2 -13 3 -10 9 6 56 -53 56 -71 0 -7 4 -12 8 -12 5 0 43 -33 85 -73 72 -70 183 -151 244 -179 15 -6 26 -15 24 -18 -2 -3 7 -7 21 -8 14 0 28 -5 32 -10 3 -4 11 -8 16 -8 24 -1 95 -29 95 -37 0 -5 4 -7 9 -3 17 10 101 -16 101 -31 0 -16 11 -18 26 -5 5 4 59 1 122 -8 87 -12 116 -20 123 -34 6 -9 8 -21 4 -26 -3 -5 0 -11 7 -13 7 -3 13 -22 13 -46 0 -22 2 -36 6 -31 3 6 9 -4 13 -21 3 -18 3 -36 0 -41 -3 -5 -1 -9 5 -9 11 0 35 -135 27 -156 -3 -8 -2 -13 3 -10 5 4 12 -36 16 -88 13 -166 -14 -365 -53 -396 -10 -9 -24 -26 -31 -38 -7 -13 -17 -19 -23 -16 -6 4 -8 3 -4 -4 3 -6 -52 -78 -124 -161 -73 -84 -130 -158 -130 -170 0 -11 11 -28 25 -39 14 -11 25 -25 25 -31 0 -6 5 -11 11 -11 5 0 8 4 4 9 -3 5 3 12 13 15 19 6 157 157 307 336 91 108 95 112 114 105 11 -4 11 -2 3 8 -9 11 -2 25 31 64 23 28 64 78 90 112 27 34 54 58 60 54 6 -3 7 -1 3 5 -15 25 442 560 467 545 5 -3 7 -1 4 4 -4 6 38 50 93 98 121 107 137 118 152 109 6 -4 8 -3 5 3 -8 13 42 49 62 45 7 -2 10 1 7 6 -17 27 224 119 337 128 39 3 84 7 100 9 15 2 27 0 27 -5 0 -4 9 -6 21 -3 29 8 133 -18 117 -29 -8 -5 -3 -6 14 -2 29 6 152 -42 142 -57 -3 -5 3 -6 12 -2 13 5 15 3 9 -7 -5 -8 -4 -11 2 -7 18 12 137 -89 126 -106 -3 -6 -1 -7 5 -4 20 13 100 -102 86 -125 -4 -6 -3 -8 3 -5 5 4 16 -5 23 -19 15 -27 50 -40 77 -28 10 4 21 6 25 6 5 -1 7 1 6 6 0 4 2 15 6 25 5 10 2 33 -7 56 -9 21 -13 42 -9 46 4 5 1 5 -5 1 -7 -4 -13 -3 -13 2 0 21 -105 145 -163 194 -34 28 -61 55 -60 59 1 3 -5 6 -15 5 -9 0 -16 5 -14 12 1 8 -2 11 -8 7 -14 -9 -52 14 -44 27 4 6 3 8 -3 5 -5 -3 -26 -1 -47 5 -26 8 -33 14 -24 21 10 6 9 8 -3 4 -9 -3 -47 4 -85 16 -56 17 -96 21 -214 21 -164 0 -228 -15 -379 -85 -46 -21 -87 -36 -92 -33 -5 3 -8 1 -7 -4 2 -5 -35 -35 -82 -66 -47 -32 -102 -74 -122 -94 -21 -20 -38 -33 -38 -28 0 4 -12 -6 -26 -23 -14 -17 -31 -28 -36 -24 -6 3 -8 2 -5 -4 8 -13 -87 -106 -99 -96 -5 5 -6 4 -1 -1 10 -13 -23 -47 -37 -39 -6 3 -8 3 -4 -1 8 -10 -172 -222 -185 -218 -5 1 -6 -1 -3 -6 3 -5 -10 -25 -29 -45 -18 -19 -31 -37 -29 -40 2 -2 -2 -10 -11 -17 -11 -9 -9 4 9 51 37 97 48 119 59 112 6 -3 7 -1 4 4 -8 13 31 114 50 130 8 6 14 15 14 20 -2 20 11 43 21 37 7 -4 8 -2 4 5 -10 15 103 193 117 184 5 -3 7 -1 3 5 -3 6 62 111 144 234 243 358 317 461 330 453 5 -3 12 0 16 6 4 8 3 9 -4 5 -23 -14 -11 10 27 54 l38 44 41 -13 c34 -12 39 -16 27 -25 -13 -9 -11 -11 9 -11 13 0 22 4 19 9 -3 4 3 6 13 3 11 -3 34 -8 52 -12 17 -4 32 -10 32 -14 0 -4 17 -7 38 -8 20 0 91 -4 157 -9 210 -16 387 8 533 72 29 13 60 20 70 17 9 -3 14 -3 10 2 -9 9 152 111 167 106 5 -1 7 0 3 4 -4 4 14 24 40 45 117 94 240 229 339 372 33 48 64 84 68 80 5 -4 5 -1 1 6 -4 6 2 25 13 41 66 92 281 562 281 613 0 34 -42 68 -85 68 -17 0 -35 3 -39 7 -4 4 -35 8 -69 9 -34 1 -170 5 -302 9 -400 13 -665 -33 -906 -156 -22 -11 -45 -17 -51 -13 -7 4 -8 3 -4 -4 4 -7 3 -12 -2 -12 -5 0 -30 -16 -56 -35 -25 -20 -46 -34 -46 -32 0 9 -78 -61 -156 -139 -126 -126 -212 -265 -263 -424 -30 -93 -52 -218 -51 -292 1 -20 -4 -39 -9 -43 -6 -3 -8 -11 -6 -18 11 -39 14 -77 4 -71 -7 4 -6 -2 1 -17 16 -30 25 -39 18 -18 -4 9 -3 21 2 28 5 9 9 7 12 -7 7 -25 -14 -68 -31 -64 -7 1 -10 -2 -7 -7 4 -5 -13 -34 -37 -63 -23 -29 -58 -74 -76 -101 -18 -26 -36 -45 -40 -43 -4 3 -8 0 -8 -7 0 -7 -27 -51 -61 -99 -33 -48 -66 -96 -72 -108 -6 -11 -15 -18 -19 -16 -4 3 -8 0 -8 -7 0 -21 -35 -67 -46 -60 -6 3 -7 1 -3 -6 4 -6 -6 -30 -24 -54 -18 -23 -29 -33 -26 -22 67 236 126 528 152 760 3 33 8 63 10 67 16 27 18 499 3 676 -6 73 -9 142 -6 153 3 10 2 17 -2 14 -4 -2 -12 32 -17 75 -5 44 -6 80 -2 80 5 0 8 5 8 11 0 5 -4 8 -9 5 -12 -8 -25 89 -15 106 4 7 3 9 -1 5 -5 -4 -19 46 -31 112 -32 174 -79 373 -134 561 l-49 165 41 -45 c23 -25 42 -43 43 -40 2 3 30 -17 64 -44 43 -35 58 -52 51 -61 -7 -8 -5 -12 5 -12 8 0 12 4 9 9 -9 13 13 9 25 -5 6 -8 7 -18 3 -22 -4 -5 -2 -5 4 -2 18 10 64 -31 58 -51 -5 -13 -4 -14 4 -3 8 11 14 10 36 -4 14 -9 23 -22 19 -28 -3 -5 -2 -7 4 -4 5 3 28 -6 51 -21 23 -16 69 -41 104 -57 35 -17 66 -34 70 -39 3 -5 17 -10 30 -11 12 -2 50 -8 83 -15 82 -17 180 -7 257 25 35 15 71 28 80 28 9 1 15 4 13 8 -3 3 16 21 41 39 123 88 252 296 294 473 47 199 26 359 -68 517 -14 25 -25 49 -24 53 1 5 -1 6 -6 3 -5 -3 -22 8 -38 25 -58 62 -149 104 -247 115 -38 4 -54 10 -45 15 7 5 9 9 3 9 -6 0 -5 3 1 8 20 13 64 141 73 209 15 125 -14 259 -81 371 -18 30 -32 58 -30 63 1 5 -1 8 -5 7 -5 -2 -37 27 -73 63 -61 62 -144 123 -203 150 -15 7 -24 16 -20 22 3 6 1 7 -5 3 -6 -3 -28 0 -49 8 -127 49 -315 60 -438 26z m349 -149 c38 -10 72 -25 77 -33 5 -7 9 -10 9 -5 0 4 18 -2 40 -13 23 -12 38 -25 35 -30 -3 -5 0 -7 8 -4 17 6 147 -112 177 -161 12 -19 18 -40 14 -46 -4 -8 -3 -9 4 -5 7 4 13 2 13 -3 2 -16 4 -23 18 -56 33 -80 32 -185 -3 -283 -20 -56 -47 -94 -114 -164 -40 -41 -59 -55 -68 -47 -8 7 -11 5 -10 -7 1 -19 -133 -116 -152 -109 -7 3 -11 1 -8 -4 12 -18 -464 -278 -485 -265 -7 4 -10 3 -6 -2 3 -5 -12 -19 -34 -31 -22 -12 -36 -16 -32 -10 21 36 119 173 128 179 6 5 6 8 -2 8 -7 0 -13 6 -13 13 0 14 -39 42 -57 40 -7 0 -20 -1 -28 -2 -8 0 -38 -33 -67 -71 -28 -39 -53 -69 -55 -66 -6 6 -39 150 -63 274 -29 153 -40 265 -26 274 8 5 7 8 -1 8 -9 0 -13 22 -13 76 0 44 4 73 9 69 6 -3 8 8 4 28 -6 42 18 130 58 210 34 66 113 152 131 141 6 -4 8 -3 4 4 -8 14 79 66 95 56 7 -4 9 -3 5 4 -8 13 29 26 45 16 7 -4 9 -3 5 4 -6 10 39 22 129 36 52 7 157 -3 229 -23z m-1032 -82 c74 -26 151 -75 142 -91 -4 -7 -2 -8 4 -4 7 4 25 -7 43 -26 24 -27 29 -39 24 -63 -34 -177 -39 -250 -27 -391 12 -146 16 -167 58 -363 14 -62 22 -121 19 -129 -3 -9 -3 -13 1 -9 7 7 44 -93 38 -101 -2 -4 -52 30 -169 117 -131 98 -165 128 -157 137 4 4 2 4 -4 1 -13 -7 -80 40 -77 54 2 5 -3 8 -10 6 -6 -1 -11 5 -9 13 2 8 0 12 -3 8 -11 -11 -47 11 -39 24 4 6 3 8 -4 4 -21 -13 -260 204 -247 224 5 8 4 11 -3 6 -13 -8 -44 33 -35 47 3 6 1 7 -4 4 -21 -13 -68 91 -79 175 -14 100 56 237 159 310 95 68 259 88 379 47z m-688 -511 c-3 -5 5 -6 18 -3 19 5 26 0 43 -32 11 -20 35 -57 53 -80 17 -24 32 -51 32 -60 0 -9 3 -13 7 -10 9 9 44 -23 37 -35 -3 -4 0 -7 8 -6 7 2 12 -3 10 -10 -1 -8 1 -11 6 -8 12 7 53 -40 44 -50 -4 -4 -2 -4 4 -1 13 8 90 -51 86 -65 -1 -5 1 -7 5 -5 5 3 24 -8 43 -24 19 -17 62 -51 95 -76 33 -25 60 -50 60 -56 0 -5 8 -11 17 -13 10 -1 31 -12 49 -24 23 -17 28 -25 18 -31 -10 -6 -8 -8 6 -7 16 1 230 -142 222 -148 -1 -1 -40 3 -86 8 -105 11 -314 -3 -466 -33 -97 -19 -119 -20 -180 -10 -91 15 -146 32 -139 42 3 5 -2 6 -10 3 -34 -13 -257 140 -241 165 3 6 1 10 -5 9 -17 -4 -73 88 -74 122 -1 15 -4 26 -7 24 -20 -12 -18 132 2 204 16 58 128 178 156 168 10 -4 14 -4 10 0 -11 11 50 35 108 43 67 9 75 9 69 -1z m2166 -350 c0 -10 2 -10 8 -2 5 9 24 9 66 3 64 -11 79 -16 72 -28 -3 -4 5 -7 17 -7 13 1 21 -4 19 -12 -1 -8 2 -10 8 -7 14 8 52 -24 44 -37 -3 -4 0 -7 8 -6 7 2 12 -3 11 -9 -2 -7 2 -12 8 -10 13 3 61 -84 54 -101 -3 -7 0 -10 5 -7 6 3 10 -3 10 -14 0 -10 -3 -21 -7 -24 -5 -2 -3 -2 4 -1 17 4 27 -92 18 -184 -11 -127 -67 -271 -145 -377 -48 -65 -129 -137 -147 -131 -7 3 -12 0 -10 -6 1 -7 -23 -22 -53 -35 -47 -20 -67 -23 -140 -19 -56 3 -107 13 -150 29 -79 30 -133 61 -122 72 4 5 2 5 -5 1 -7 -4 -21 2 -33 14 -11 11 -20 17 -20 14 0 -7 -49 27 -147 104 -45 36 -80 69 -76 75 3 6 1 7 -5 3 -14 -8 -138 97 -134 114 1 6 -2 9 -7 6 -5 -4 -34 15 -63 40 -63 55 -67 59 -50 50 6 -4 12 -3 12 2 0 9 91 55 100 50 3 -1 15 6 26 16 31 26 241 135 248 128 3 -3 6 -1 6 5 0 12 48 35 60 28 5 -3 12 0 16 6 5 8 3 9 -7 4 -9 -5 -11 -5 -4 2 6 6 37 25 70 43 82 44 219 126 282 168 45 30 89 46 141 51 6 0 12 -5 12 -11z m-1347 -525 c4 -3 30 -6 57 -6 49 1 50 0 34 -18 -9 -10 -19 -17 -23 -16 -3 1 -7 -2 -9 -8 -5 -16 -75 -85 -82 -80 -4 2 -7 -4 -8 -13 -5 -43 -1 -67 15 -85 31 -34 70 -17 163 71 47 45 88 78 91 74 12 -13 39 -117 48 -182 22 -160 -11 -499 -47 -485 -12 4 -13 3 -3 -9 10 -12 9 -27 -9 -73 -33 -91 -67 -143 -88 -137 -14 5 -14 4 -3 -4 12 -8 6 -18 -28 -51 -24 -23 -48 -38 -53 -35 -7 4 -8 2 -4 -4 10 -16 -84 -61 -161 -77 -82 -17 -195 -11 -293 17 -104 29 -264 104 -254 119 4 8 3 9 -5 5 -16 -10 -137 81 -208 158 -70 76 -122 160 -140 229 -19 71 -18 173 2 227 22 61 63 122 77 114 6 -4 8 -3 4 4 -7 11 61 72 122 110 124 75 283 129 462 156 45 6 336 6 343 -1z m2654 -1179 c14 -4 20 -11 16 -18 -4 -6 1 -5 11 3 14 12 21 13 38 2 13 -8 18 -9 13 -1 -5 8 6 10 41 4 27 -3 50 -8 52 -9 2 -2 -16 -48 -48 -120 -10 -22 -21 -50 -25 -63 -3 -12 -10 -20 -15 -17 -5 3 -12 0 -16 -6 -4 -8 -3 -9 4 -5 15 9 15 3 1 -28 -7 -14 -15 -23 -20 -21 -4 3 -11 0 -15 -6 -4 -8 -3 -9 4 -5 17 10 15 1 -9 -47 -54 -106 -122 -216 -132 -210 -6 3 -7 1 -3 -5 9 -15 -61 -122 -79 -122 -8 0 -17 -5 -21 -12 -4 -7 -3 -8 4 -4 19 12 14 -3 -14 -40 -14 -18 -31 -31 -37 -27 -6 3 -7 1 -3 -5 8 -14 -72 -104 -85 -96 -5 3 -8 0 -7 -8 2 -7 -4 -12 -12 -10 -8 2 -12 0 -7 -4 4 -4 -3 -18 -15 -31 -23 -24 -44 -32 -32 -10 4 6 -2 4 -14 -7 -12 -10 -20 -23 -19 -29 3 -15 -88 -82 -178 -131 -97 -53 -203 -89 -266 -90 -26 -1 -45 -4 -43 -8 9 -14 -157 -21 -271 -11 -125 11 -285 48 -285 67 0 6 44 54 98 106 104 101 192 175 178 150 -4 -8 2 -3 15 11 57 63 306 208 331 193 6 -4 8 -3 5 3 -8 13 22 26 163 75 63 21 121 46 128 55 18 25 15 57 -8 78 -16 15 -28 16 -67 10 -27 -4 -60 -8 -75 -8 -15 0 -25 -3 -23 -7 2 -4 -28 -20 -68 -35 -89 -35 -230 -104 -315 -156 -35 -21 -69 -36 -75 -32 -5 3 -7 2 -4 -4 4 -6 -13 -24 -37 -41 -79 -57 -190 -153 -263 -229 l-73 -74 0 71 c0 170 87 411 187 517 17 19 32 37 31 39 0 11 80 93 138 140 78 64 131 97 144 89 6 -4 9 -1 8 7 -2 7 5 12 14 12 10 -1 16 2 13 6 -7 11 152 76 254 104 88 24 130 32 229 42 32 4 59 8 61 10 7 7 474 4 498 -2z m-3846 -600 c130 -21 244 -55 227 -66 -9 -7 -4 -8 14 -4 31 7 80 -12 71 -27 -3 -6 -1 -7 6 -3 6 4 20 4 32 1 15 -5 18 -12 13 -28 -6 -22 -6 -22 10 -2 8 11 16 15 16 8 0 -7 10 -17 21 -24 17 -9 20 -8 13 2 -22 35 190 -117 251 -181 22 -23 50 -51 63 -63 12 -11 22 -26 22 -33 0 -7 4 -14 9 -16 27 -9 126 -182 115 -200 -4 -6 -3 -8 3 -5 26 16 99 -211 127 -394 14 -99 22 -342 10 -360 -6 -10 -134 232 -136 259 -1 6 -5 12 -9 12 -10 0 -75 112 -71 123 1 5 -1 6 -6 4 -4 -3 -25 22 -47 56 -22 34 -42 64 -45 67 -3 3 -21 25 -40 50 -19 25 -72 90 -120 145 -47 55 -84 104 -82 110 2 5 0 7 -4 3 -4 -4 -22 6 -41 22 -41 36 -52 37 -87 5 -33 -30 -33 -45 1 -86 15 -17 28 -38 29 -46 2 -8 6 -18 10 -21 4 -4 4 2 0 13 -8 24 41 -26 131 -134 34 -41 60 -78 57 -83 -3 -5 -1 -7 5 -6 14 4 61 -61 55 -77 -3 -7 0 -16 7 -21 8 -5 10 -3 4 7 -11 19 6 2 33 -35 12 -15 19 -32 16 -37 -3 -5 -1 -9 5 -9 15 0 83 -118 75 -131 -4 -8 -3 -9 4 -5 7 4 12 3 12 -3 0 -5 -5 -11 -12 -13 -6 -2 5 -21 26 -44 43 -45 125 -210 100 -200 -9 3 -22 6 -30 6 -8 0 -15 8 -15 18 -1 16 -2 16 -6 -1 -4 -14 -12 -16 -46 -10 -23 3 -44 10 -45 15 -2 4 -8 6 -13 3 -24 -15 -234 62 -329 121 -89 55 -171 124 -163 137 3 6 1 7 -5 3 -20 -12 -180 202 -167 224 3 5 -1 10 -9 13 -36 14 -154 400 -144 469 3 15 2 25 -2 23 -3 -2 -21 56 -39 128 -21 83 -51 170 -81 235 l-49 102 78 0 c43 0 120 -7 172 -16z"/>
</g>
</svg>
