<?xml version="1.0" standalone="no"?>
<!DOCTYPE svg PUBLIC "-//W3C//DTD SVG 20010904//EN" "http://www.w3.org/TR/2001/REC-SVG-20010904/DTD/svg10.dtd">
<svg xmlns="http://www.w3.org/2000/svg" version="1.0" width="1024.000000pt" height="1024.000000pt" viewBox="0 0 1024.000000 1024.000000" preserveAspectRatio="xMidYMid meet">
<metadata>
Created by potrace 1.16, written by Peter Selinger 2001-2019
<meta name="Producer" content="Online-Convert"/></metadata>
<g transform="translate(0.000000,1024.000000) scale(0.100000,-0.100000)" fill="#000000" stroke="none">
<path d="M4945 8595 c-155 -34 -275 -106 -383 -229 l-33 -38 -57 54 c-107 99 -233 148 -382 148 -265 0 -500 -187 -542 -432 l-12 -65 -69 -13 c-93 -16 -214 -78 -281 -143 -31 -31 -66 -79 -86 -121 -29 -58 -35 -82 -38 -156 -5 -100 11 -170 60 -262 63 -119 219 -254 340 -293 29 -10 57 -20 61 -22 5 -3 -15 -19 -45 -36 -68 -39 -186 -157 -220 -223 -79 -148 -76 -324 9 -488 44 -85 183 -229 283 -294 95 -63 233 -129 330 -158 124 -38 310 -45 407 -16 146 45 272 160 348 317 41 84 85 227 85 274 0 31 17 26 23 -6 2 -16 23 -118 46 -228 153 -749 111 -1343 -155 -2208 -47 -153 -91 -261 -238 -580 -47 -103 -86 -193 -86 -199 0 -6 -2 -9 -5 -6 -3 3 -10 61 -16 129 -10 128 -38 300 -64 384 -13 44 -12 55 5 116 78 285 30 651 -128 965 -193 383 -515 610 -954 675 -82 12 -265 14 -336 3 -106 -15 -109 -33 -33 -176 72 -137 112 -249 141 -394 45 -233 64 -311 90 -389 147 -434 507 -701 1012 -751 75 -7 75 -7 103 -119 36 -149 48 -246 52 -451 l5 -211 -108 -134 c-59 -74 -134 -165 -166 -204 -47 -56 -58 -76 -56 -100 3 -33 37 -56 69 -48 10 3 130 143 266 312 626 775 819 983 1066 1149 296 198 579 216 837 54 78 -49 184 -155 238 -237 25 -38 51 -73 57 -77 37 -27 92 13 81 58 -9 34 -62 116 -114 176 -291 337 -717 397 -1111 156 -107 -66 -201 -140 -325 -259 -111 -107 -341 -355 -368 -398 -25 -41 -28 -20 -4 28 14 27 45 94 70 150 60 134 435 694 680 1012 l89 116 86 -28 c141 -45 227 -60 388 -66 167 -6 252 3 393 44 407 117 730 486 1025 1170 59 137 64 162 38 185 -58 50 -744 71 -973 30 -388 -70 -697 -260 -881 -541 -130 -199 -192 -437 -168 -649 l8 -74 -63 -76 c-71 -87 -173 -225 -331 -452 -59 -85 -104 -144 -101 -130 158 552 221 1054 186 1496 -26 327 -115 792 -224 1164 -14 46 -23 86 -20 89 2 2 14 -5 27 -16 43 -40 315 -242 406 -303 192 -128 327 -163 476 -125 176 46 339 204 433 420 44 103 62 178 69 290 9 172 -38 307 -146 412 -63 63 -176 121 -250 130 -28 3 -51 7 -51 8 0 2 11 27 25 56 55 122 69 245 40 367 -54 230 -250 419 -499 482 -92 23 -238 26 -331 5z m251 -106 c299 -53 514 -312 473 -569 -28 -177 -110 -262 -459 -470 -129 -77 -496 -270 -514 -270 -3 0 24 44 59 99 66 101 76 129 51 150 -33 27 -68 9 -124 -64 -30 -38 -57 -70 -60 -70 -9 0 -56 202 -82 350 -28 164 -30 334 -7 424 59 220 248 386 479 420 89 12 116 12 184 0z m-962 -99 c66 -22 116 -54 180 -112 l50 -45 -22 -65 c-63 -194 -54 -386 42 -810 18 -82 31 -148 29 -148 -8 0 -517 384 -600 453 -103 86 -180 174 -220 250 -38 72 -40 189 -4 260 54 111 186 211 311 237 60 12 168 3 234 -20z m-679 -486 c12 -4 32 -30 49 -66 51 -108 172 -220 505 -469 165 -123 299 -224 298 -225 -1 0 -45 3 -97 8 -160 16 -375 1 -546 -39 -67 -15 -75 -15 -144 2 -180 44 -341 166 -410 310 -78 161 -28 323 128 424 68 44 169 69 217 55z m2177 -335 c122 -26 217 -99 270 -207 29 -59 33 -77 36 -168 5 -135 -15 -226 -79 -355 -38 -76 -67 -116 -122 -173 -179 -184 -360 -187 -612 -11 -41 28 -173 130 -294 225 l-219 175 176 90 c232 119 587 326 696 406 44 32 68 35 148 18z m-1294 -544 c21 -7 17 -13 -58 -82 -60 -56 -80 -81 -80 -101 0 -31 26 -62 53 -62 11 0 64 41 118 91 55 51 102 90 104 87 13 -12 46 -171 51 -243 8 -97 -10 -290 -37 -393 -40 -157 -138 -304 -242 -365 -180 -105 -455 -62 -719 113 -125 82 -224 184 -270 277 -27 55 -33 80 -36 153 -5 107 12 174 65 250 97 138 312 248 548 279 77 11 467 7 503 -4z m2565 -1081 c100 -9 183 -17 185 -19 2 -2 -18 -52 -43 -112 -214 -491 -461 -816 -737 -967 -195 -108 -441 -149 -668 -112 -106 17 -248 55 -256 68 -8 13 173 189 279 272 202 157 436 273 612 302 77 12 106 52 72 99 -45 60 -415 -73 -643 -230 -106 -73 -263 -205 -338 -285 l-66 -70 0 54 c0 239 126 514 313 682 298 267 708 369 1290 318z m-3773 -633 c227 -52 443 -169 576 -312 213 -229 346 -581 345 -915 0 -198 -1 -199 -90 -22 -118 237 -276 464 -460 661 -58 61 -79 77 -101 77 -29 0 -60 -30 -60 -57 0 -7 38 -55 86 -107 183 -202 307 -379 420 -601 94 -183 94 -185 52 -185 -54 0 -240 46 -319 79 -237 99 -423 273 -521 488 -44 99 -75 207 -108 388 -42 224 -76 338 -140 465 -16 33 -30 62 -30 66 0 13 266 -6 350 -25z"/>
</g>
</svg>
