<?xml version="1.0" standalone="no"?>
<!DOCTYPE svg PUBLIC "-//W3C//DTD SVG 20010904//EN"
 "http://www.w3.org/TR/2001/REC-SVG-20010904/DTD/svg10.dtd">
<svg version="1.0" xmlns="http://www.w3.org/2000/svg"
 width="1024.000000pt" height="1024.000000pt" viewBox="0 0 1024.000000 1024.000000"
 preserveAspectRatio="xMidYMid meet">
<metadata>
Created by potrace 1.16, written by Peter Selinger 2001-2019
</metadata>
<g transform="translate(0.000000,1024.000000) scale(0.100000,-0.100000)"
fill="#000000" stroke="none">
<path d="M4545 7515 c-515 -73 -964 -290 -1324 -639 -299 -291 -496 -637 -606
-1066 -74 -285 -85 -683 -29 -1000 44 -246 146 -523 274 -746 33 -58 58 -109
55 -115 -4 -5 -2 -8 3 -7 5 2 38 -35 72 -82 76 -103 160 -198 268 -304 45 -44
79 -83 76 -87 -2 -4 1 -11 7 -15 8 -4 9 -3 5 4 -14 23 6 11 72 -42 227 -182
537 -336 822 -407 214 -54 387 -72 625 -66 221 5 334 21 522 72 177 47 404
142 561 234 40 23 77 39 84 35 6 -4 8 -3 5 3 -4 6 19 28 51 49 31 21 99 74
150 117 52 43 98 75 104 71 6 -4 8 -3 5 3 -3 5 14 30 39 54 59 57 207 235 265
319 189 271 340 645 389 960 6 41 14 85 16 97 l4 22 554 3 c599 3 586 2 586
58 0 62 18 60 -583 60 l-547 0 0 153 c0 83 -4 187 -10 231 -72 556 -333 1070
-734 1442 -52 48 -92 92 -89 97 3 6 1 7 -6 3 -6 -4 -30 8 -54 27 -93 76 -250
172 -392 242 -217 107 -414 171 -644 211 -124 22 -470 27 -596 9z m615 -134
c347 -60 714 -230 985 -455 90 -75 219 -202 289 -286 239 -285 429 -703 490
-1080 18 -108 32 -394 22 -434 l-6 -26 -1317 0 c-1211 0 -1318 -1 -1335 -17
-24 -22 -23 -56 3 -79 20 -18 59 -19 1330 -22 1254 -2 1309 -3 1309 -20 0 -68
-72 -361 -121 -490 -87 -233 -174 -392 -316 -580 -346 -458 -875 -757 -1452
-823 -157 -17 -478 -7 -616 21 -229 45 -360 88 -540 176 -149 72 -253 138
-387 245 -133 106 -283 253 -273 269 5 8 4 11 -2 7 -9 -6 -38 21 -87 80 -16
20 -17 25 -5 40 12 16 12 17 -2 6 -20 -16 -26 -10 -109 117 -133 203 -252 495
-304 745 -38 189 -49 324 -43 538 6 203 20 308 68 494 224 877 981 1514 1899
1597 109 10 408 -3 520 -23z"/>
</g>
</svg>
