<?xml version="1.0" standalone="no"?>
<!DOCTYPE svg PUBLIC "-//W3C//DTD SVG 20010904//EN"
 "http://www.w3.org/TR/2001/REC-SVG-20010904/DTD/svg10.dtd">
<svg version="1.0" xmlns="http://www.w3.org/2000/svg"
 width="1024.000000pt" height="1024.000000pt" viewBox="0 0 1024.000000 1024.000000"
 preserveAspectRatio="xMidYMid meet">
<metadata>
Created by potrace 1.16, written by Peter Selinger 2001-2019
</metadata>
<g transform="translate(0.000000,1024.000000) scale(0.100000,-0.100000)"
fill="#000000" stroke="none">
<path d="M5190 8550 c-8 -4 -27 -13 -43 -19 -15 -6 -36 -25 -47 -43 -35 -57
-79 -174 -96 -250 -17 -82 -44 -429 -32 -422 5 3 8 -21 9 -53 0 -32 6 -101 13
-153 7 -52 10 -98 7 -101 -3 -3 -44 -14 -91 -24 -304 -63 -675 -210 -840 -330
-32 -24 -61 -42 -64 -39 -3 2 -4 1 -2 -2 3 -3 -10 -25 -29 -49 -18 -24 -41
-62 -51 -84 -20 -42 -62 -69 -86 -55 -7 4 -10 3 -5 -1 10 -11 -70 -58 -85 -49
-7 4 -8 3 -4 -4 4 -6 -5 -17 -22 -26 -16 -8 -65 -42 -110 -75 -45 -34 -85 -60
-90 -58 -4 1 -8 -2 -10 -8 -7 -24 -65 -73 -81 -68 -12 4 -13 3 -3 -4 10 -8 3
-19 -28 -46 -22 -20 -40 -39 -40 -41 0 -9 -134 -181 -141 -181 -4 0 -11 -4
-16 -9 -5 -5 -3 -6 5 -2 18 11 16 3 -32 -92 -44 -87 -96 -236 -96 -273 0 -11
-3 -18 -7 -16 -5 3 -8 -47 -8 -111 1 -132 11 -168 67 -224 19 -19 51 -42 71
-51 l35 -17 -48 -80 c-77 -130 -147 -327 -169 -475 -14 -95 -15 -248 -2 -315
23 -116 93 -213 191 -266 25 -14 34 -22 20 -18 -14 4 -21 3 -17 -2 4 -5 22 -9
40 -10 33 -3 100 -14 104 -18 2 -1 -4 -38 -12 -82 -17 -87 -34 -295 -24 -288
3 2 9 -21 12 -50 3 -30 15 -93 28 -141 12 -48 18 -90 13 -94 -5 -3 -10 -12
-12 -20 -3 -12 0 -12 12 -2 16 14 32 -2 20 -21 -5 -7 -3 -8 6 -3 10 6 12 4 6
-11 -4 -10 -4 -15 0 -11 4 3 20 -14 36 -39 23 -37 26 -49 17 -61 -10 -11 -10
-14 2 -11 9 2 13 -4 11 -15 -2 -9 2 -17 8 -17 14 0 13 23 -2 40 -7 8 1 2 19
-14 18 -16 29 -34 26 -40 -3 -6 -3 -8 2 -4 4 4 16 3 27 -3 14 -8 16 -14 9 -23
-15 -18 7 -38 29 -26 11 6 34 4 65 -5 26 -8 61 -15 76 -15 24 0 28 -5 33 -38
2 -20 5 -44 5 -52 1 -8 4 -32 7 -52 4 -26 2 -38 -5 -38 -9 0 -9 -5 -1 -20 6
-11 16 -18 22 -14 7 5 9 -2 6 -19 -3 -15 -2 -24 2 -22 4 2 13 -15 19 -38 7
-23 35 -88 62 -145 38 -79 64 -117 113 -168 36 -36 59 -67 53 -69 -38 -11 -41
-13 -20 -14 12 -1 25 4 28 9 3 6 11 10 16 10 6 0 7 -4 4 -10 -3 -5 0 -7 8 -4
8 3 21 -1 28 -8 17 -16 35 -19 125 -21 l71 -1 16 -41 c20 -47 23 -79 6 -55 -9
13 -10 13 -6 0 2 -8 9 -14 15 -13 13 3 95 -145 94 -170 0 -9 3 -15 8 -12 5 3
11 1 14 -4 4 -5 -2 -12 -11 -14 -15 -4 -14 -5 3 -6 11 0 30 -14 42 -31 25 -33
28 -45 10 -34 -8 4 -10 3 -5 -2 5 -5 13 -9 17 -9 5 0 33 -28 62 -62 29 -34 80
-86 113 -114 33 -29 59 -56 58 -59 -1 -4 4 -7 10 -7 21 0 67 -35 60 -46 -3 -6
-1 -7 5 -3 15 9 55 -18 44 -29 -4 -5 -2 -5 5 -1 7 4 31 -3 54 -14 106 -55 244
-67 335 -31 158 63 307 184 448 365 71 91 163 249 195 334 l22 57 77 3 c116 5
130 6 126 13 -2 3 9 12 23 18 80 37 168 140 234 276 37 78 90 260 104 356 6
45 7 47 45 52 56 7 141 49 188 92 42 37 113 141 126 183 4 12 12 19 18 16 6
-4 8 -3 5 3 -4 6 6 57 20 114 41 160 38 382 -8 538 -3 9 6 15 26 17 123 17
243 110 284 220 39 106 45 224 21 393 -16 110 -74 290 -131 403 -27 54 -47 98
-44 98 3 0 -4 9 -15 20 -28 28 -26 35 24 64 56 33 99 83 120 137 18 49 37 161
26 154 -4 -3 -11 23 -14 56 -9 80 -57 224 -109 329 -23 47 -40 89 -39 95 2 5
1 7 -3 3 -4 -4 -24 19 -45 50 -60 90 -164 206 -248 278 -42 36 -76 71 -74 76
1 5 -2 7 -7 4 -5 -3 -40 15 -77 40 -38 26 -107 66 -154 89 -75 38 -87 47 -99
81 -25 69 -139 172 -259 233 -26 13 -40 26 -36 33 4 7 3 8 -4 4 -7 -4 -51 11
-99 32 -98 44 -276 112 -293 112 -6 0 -8 5 -4 12 4 7 3 8 -4 4 -7 -4 -60 6
-119 23 -60 16 -139 35 -176 42 -49 9 -66 16 -63 26 4 8 -3 13 -17 13 -18 0
-19 -2 -7 -10 13 -8 13 -10 -1 -10 -24 0 -28 16 -45 179 -11 102 -14 196 -11
311 7 214 26 289 104 424 17 28 16 57 -2 82 -8 12 -11 25 -7 29 4 3 3 6 -3 4
-19 -4 -75 14 -69 22 6 11 4 11 -16 -1z m10 -1244 c49 -12 52 -14 25 -18 -16
-2 2 -4 40 -5 70 0 97 -6 301 -69 85 -26 114 -39 123 -56 6 -13 9 -15 7 -5 -6
21 -10 21 49 0 42 -14 46 -18 30 -25 -15 -6 -14 -7 7 -3 20 4 49 -6 100 -31
40 -20 75 -39 78 -43 3 -3 12 -7 20 -9 8 -2 39 -20 68 -40 58 -39 84 -73 62
-80 -10 -4 -10 -6 1 -12 9 -6 2 -22 -30 -63 -57 -75 -139 -150 -153 -141 -6 4
-8 3 -5 -3 12 -20 -155 -159 -176 -146 -5 3 -7 1 -3 -5 3 -6 -23 -30 -63 -56
-172 -115 -366 -192 -511 -203 -93 -7 -220 4 -199 18 10 7 6 8 -11 4 -35 -8
-208 54 -188 67 10 8 9 8 -5 4 -23 -7 -68 14 -60 28 3 6 2 8 -2 4 -16 -15
-220 116 -209 134 4 6 3 8 -4 4 -19 -11 -196 139 -185 157 3 6 1 7 -5 3 -12
-7 -148 137 -175 186 l-18 33 48 43 c110 97 406 217 748 303 164 41 212 45
295 25z m-1122 -648 c30 -31 51 -62 47 -68 -3 -5 -11 -7 -17 -4 -7 4 -8 2 -4
-5 6 -9 11 -9 22 0 11 9 26 0 74 -45 34 -31 79 -70 100 -87 22 -18 37 -36 33
-42 -3 -6 -2 -7 4 -4 11 7 79 -40 76 -53 -1 -4 5 -7 15 -6 9 0 16 -5 14 -12
-1 -8 2 -11 8 -7 13 8 112 -59 102 -70 -4 -5 -2 -5 5 -1 12 6 113 -38 113 -50
0 -3 -4 -2 -10 1 -5 3 -10 1 -10 -4 0 -6 6 -11 13 -11 7 0 5 -5 -5 -11 -9 -5
-15 -15 -12 -22 5 -14 -142 -178 -156 -174 -4 1 -8 -2 -8 -6 0 -17 -56 -67
-69 -63 -7 3 -12 0 -10 -6 3 -18 -123 -99 -210 -137 -143 -61 -232 -76 -463
-75 -302 1 -438 35 -460 112 -12 45 -12 76 0 47 6 -13 7 -5 3 25 -12 104 71
313 185 466 70 94 228 248 244 238 6 -4 8 -3 5 3 -4 6 30 35 76 66 90 60 127
81 127 72 0 -3 10 3 22 15 14 13 29 18 41 14 14 -5 18 -3 13 7 -4 8 3 1 15
-16 13 -16 48 -56 77 -87z m2284 60 c32 -17 55 -35 51 -41 -4 -6 -1 -7 6 -3
30 19 352 -268 334 -297 -3 -5 -1 -7 4 -4 6 4 28 -19 50 -51 76 -109 114 -186
81 -166 -7 4 -8 3 -4 -5 4 -6 11 -9 16 -6 4 3 20 -28 34 -68 70 -195 58 -338
-28 -323 -20 4 -25 3 -12 -2 15 -7 12 -10 -20 -20 -22 -6 -86 -18 -144 -28
-130 -20 -396 -15 -508 10 -129 29 -288 98 -275 119 3 6 2 7 -4 4 -23 -14
-171 105 -273 220 -64 72 -116 141 -109 147 2 1 47 26 99 55 52 28 132 79 178
112 46 32 88 57 93 53 5 -3 8 -1 7 4 -4 13 143 142 154 136 5 -3 7 -2 6 3 -2
5 35 50 82 101 95 102 87 100 182 50z m-1465 -633 c12 0 25 4 29 8 4 4 -5 7
-19 7 -15 0 -27 4 -27 9 0 5 16 5 38 -1 43 -11 332 -26 326 -17 -2 4 20 10 49
15 73 11 72 11 69 -8 -3 -20 9 -23 25 -7 8 8 15 5 24 -12 7 -13 23 -38 37 -55
14 -17 24 -35 23 -38 -1 -4 12 -18 29 -33 20 -17 29 -31 25 -42 -3 -8 -3 -12
1 -9 4 4 43 -27 88 -69 44 -41 98 -87 118 -100 21 -14 35 -30 32 -34 -3 -5 -2
-8 3 -7 14 5 113 -52 113 -64 0 -6 3 -8 6 -5 9 9 84 -34 84 -47 0 -17 -129
-148 -139 -141 -5 3 -13 0 -17 -6 -5 -8 -3 -9 7 -4 8 4 1 -6 -15 -23 -16 -17
-33 -29 -38 -26 -4 3 -8 0 -8 -5 0 -31 -237 -174 -349 -210 -75 -25 -207 -50
-271 -52 -130 -5 -324 37 -441 96 -87 44 -189 112 -189 125 0 6 -4 9 -9 8 -16
-5 -102 73 -95 84 4 6 3 8 -3 5 -9 -6 -80 63 -139 134 l-21 26 31 11 c17 7 66
32 110 57 43 24 83 42 89 38 5 -3 7 -1 4 4 -7 11 54 64 79 67 8 1 20 8 27 16
10 12 9 12 -8 1 -11 -8 9 13 45 46 36 33 87 88 114 121 27 34 53 59 59 55 6
-3 7 -2 4 4 -9 14 42 85 55 77 7 -4 8 -2 4 4 -4 7 -4 18 0 24 6 9 10 7 14 -7
3 -12 13 -20 27 -20z m-801 -639 c-2 -6 -1 -8 2 -3 2 4 25 -16 50 -45 26 -29
70 -74 99 -102 29 -27 50 -53 46 -59 -3 -6 -1 -7 5 -3 6 4 36 -13 65 -37 30
-24 80 -61 111 -81 31 -21 56 -41 56 -45 0 -9 -40 -47 -46 -43 -2 1 -4 -1 -4
-5 -1 -16 -74 -82 -83 -76 -6 3 -7 1 -3 -5 8 -13 -70 -76 -84 -67 -5 3 -8 0
-5 -7 6 -16 -124 -101 -143 -93 -7 2 -11 1 -7 -4 12 -21 -180 -105 -320 -141
-118 -29 -216 -41 -341 -41 -139 0 -208 20 -240 69 -58 86 -53 325 11 518 42
125 138 309 156 298 5 -3 6 1 3 9 -3 8 -1 18 5 21 5 3 76 1 157 -6 115 -9 176
-9 286 1 77 7 149 16 161 20 18 7 26 2 43 -27 12 -20 21 -41 20 -46z m2247 53
c101 -10 373 -7 385 5 3 4 20 6 38 6 27 0 36 -7 63 -48 53 -83 131 -259 158
-360 23 -83 27 -117 28 -237 0 -128 -2 -144 -23 -183 -35 -66 -86 -85 -238
-90 -149 -5 -281 14 -434 63 -116 38 -294 121 -286 134 3 4 -1 8 -8 8 -20 0
-107 63 -101 74 3 5 0 6 -7 4 -8 -3 -60 38 -122 97 l-108 103 108 76 c139 98
228 180 311 286 62 80 68 84 97 79 17 -3 80 -10 139 -17z m-1458 -558 c194
-42 389 -33 554 26 59 21 75 23 81 12 5 -7 6 -17 4 -21 -3 -5 0 -7 8 -6 7 2
12 -3 10 -10 -1 -8 2 -11 7 -8 11 7 83 -79 73 -89 -4 -3 -2 -6 3 -5 22 5 27
-1 14 -17 -13 -16 -12 -17 2 -5 15 11 25 6 75 -39 33 -28 96 -76 141 -106 61
-41 80 -59 75 -72 -5 -14 -4 -15 14 -1 12 10 9 1 -10 -25 -45 -62 -78 -95 -89
-88 -6 3 -7 1 -3 -6 9 -15 -92 -113 -197 -192 -251 -188 -498 -241 -757 -163
-44 13 -51 18 -35 24 15 6 11 7 -15 7 -94 -2 -409 240 -528 407 l-33 46 31 18
c79 43 243 173 330 262 l94 97 51 -18 c27 -9 73 -22 100 -28z m-745 -468 c48
-68 191 -214 282 -288 42 -34 75 -65 72 -68 -3 -3 0 -8 7 -13 8 -4 10 -3 5 4
-12 19 3 14 43 -15 l37 -26 -50 -46 c-27 -25 -53 -45 -58 -43 -5 1 -7 -1 -4
-6 8 -14 -70 -85 -85 -77 -7 5 -10 4 -6 -2 14 -23 -179 -153 -205 -137 -6 4
-8 3 -5 -3 9 -15 -139 -80 -235 -103 -166 -40 -260 -20 -317 67 -42 63 -73
149 -75 204 0 26 -4 45 -8 42 -18 -11 -13 218 7 306 27 119 24 115 123 129 93
13 248 49 351 83 48 16 65 19 71 9 5 -9 9 -9 14 -1 4 6 4 16 1 21 -3 6 -4 10
-2 10 2 0 19 -21 37 -47z m2173 -16 c81 -24 145 -46 141 -49 -3 -4 3 -4 15 -1
11 3 51 0 88 -6 114 -20 113 -20 106 -38 -4 -10 -2 -14 5 -9 7 4 17 -21 28
-71 23 -101 23 -282 0 -377 -21 -87 -52 -159 -66 -151 -5 3 -7 0 -4 -8 8 -21
-44 -77 -91 -98 -81 -37 -231 -16 -395 55 -44 19 -101 49 -127 67 -27 18 -67
46 -91 62 -67 45 -163 138 -155 150 3 5 2 7 -4 4 -13 -8 -94 75 -85 89 4 6 34
29 67 51 100 67 235 193 314 292 52 64 80 91 90 87 9 -3 83 -25 164 -49z
m-1483 -512 c179 -61 341 -68 506 -23 44 11 89 21 101 22 11 1 19 4 17 8 -3 4
7 10 20 14 21 5 31 0 53 -27 15 -19 42 -48 60 -65 21 -21 31 -39 28 -53 -2
-12 1 -21 7 -21 5 0 8 7 4 15 -3 8 43 -24 102 -72 95 -77 133 -123 94 -115 -8
1 -11 -2 -7 -8 15 -24 -234 -278 -257 -264 -6 4 -8 2 -4 -4 10 -16 -153 -113
-179 -106 -14 4 -16 3 -6 -4 9 -7 -4 -16 -50 -32 -49 -17 -94 -23 -189 -26
-77 -3 -117 -1 -105 5 14 6 7 8 -28 6 -49 -3 -181 40 -171 56 2 4 -1 11 -7 15
-8 4 -9 3 -5 -4 10 -16 1 -15 -37 4 -56 29 -117 77 -110 87 3 6 2 7 -4 4 -13
-8 -85 52 -77 65 4 6 2 8 -3 5 -6 -4 -39 25 -74 63 -73 81 -80 91 -72 104 3 5
1 6 -5 2 -6 -4 -17 5 -26 22 l-15 28 82 59 c45 33 114 90 153 127 47 45 74 64
78 56 4 -9 5 -8 3 2 -1 12 38 80 47 80 1 0 36 -11 76 -25z m1346 -460 c44 -16
82 -33 85 -38 3 -5 10 -9 15 -8 11 0 9 -36 -7 -111 -6 -32 -15 -55 -20 -52 -5
3 -6 -2 -3 -10 9 -24 -52 -190 -67 -180 -5 3 -7 -1 -4 -8 6 -17 -68 -114 -84
-110 -7 1 -10 -2 -6 -7 19 -32 -125 -54 -196 -29 -51 17 -159 80 -153 90 3 4
-1 6 -8 3 -11 -4 -129 86 -135 104 -1 3 22 23 52 44 95 65 188 152 264 245 41
50 79 88 84 85 6 -3 7 -1 3 5 -4 6 -1 20 5 30 12 19 13 19 54 -3 23 -12 78
-35 121 -50z m-1933 36 c9 -15 14 -31 12 -35 -3 -3 -2 -4 1 -2 3 3 32 -28 64
-67 31 -40 69 -83 83 -96 15 -13 24 -28 20 -34 -3 -6 -2 -7 4 -4 14 9 61 -45
58 -66 -2 -9 1 -15 6 -11 5 3 6 10 3 16 -4 6 25 -11 64 -38 l70 -49 -25 -27
c-14 -15 -31 -25 -36 -21 -6 3 -7 2 -4 -4 8 -12 -50 -56 -63 -48 -6 4 -9 1 -8
-6 4 -16 -102 -81 -120 -74 -7 2 -11 1 -8 -4 9 -14 -51 -31 -106 -31 -75 0
-124 34 -178 124 -19 32 -21 40 -9 48 11 8 11 9 -3 5 -12 -4 -21 6 -36 41 -26
61 -43 123 -36 134 3 4 1 8 -4 8 -10 0 -32 97 -32 140 0 25 6 29 68 50 37 12
94 35 127 50 33 16 62 29 65 29 3 1 13 -12 23 -28z m657 -511 c147 -42 317
-37 459 12 l54 18 77 -75 c43 -41 76 -77 74 -80 -2 -3 -1 -3 2 0 11 8 43 -15
40 -28 -1 -6 -1 -9 1 -5 4 6 41 -12 122 -61 20 -12 -45 -153 -126 -273 -108
-162 -245 -294 -370 -357 -65 -33 -151 -29 -233 10 -76 36 -173 106 -165 119
4 6 -1 7 -11 3 -14 -5 -16 -3 -11 11 4 11 3 15 -4 10 -7 -4 -37 20 -70 56 -93
100 -199 264 -240 369 l-17 45 87 57 c47 31 118 88 156 127 39 38 77 68 85 66
8 -1 49 -12 90 -24z"/>
</g>
</svg>
