<?xml version="1.0" standalone="no"?>
<!DOCTYPE svg PUBLIC "-//W3C//DTD SVG 20010904//EN"
 "http://www.w3.org/TR/2001/REC-SVG-20010904/DTD/svg10.dtd">
<svg version="1.0" xmlns="http://www.w3.org/2000/svg"
 width="1024.000000pt" height="1024.000000pt" viewBox="0 0 1024.000000 1024.000000"
 preserveAspectRatio="xMidYMid meet">
<metadata>
Created by potrace 1.16, written by Peter Selinger 2001-2019
</metadata>
<g transform="translate(0.000000,1024.000000) scale(0.100000,-0.100000)"
fill="#000000" stroke="none">
<path d="M5040 6689 c-266 -21 -513 -158 -674 -371 -16 -21 -33 -35 -39 -31
-6 3 -7 1 -3 -5 9 -15 -24 -73 -37 -65 -6 3 -7 1 -3 -6 4 -7 -2 -33 -14 -59
-75 -157 -96 -384 -55 -577 17 -79 59 -190 91 -238 14 -21 26 -47 27 -58 1
-10 7 -19 14 -19 7 0 13 -4 13 -9 0 -4 39 -50 88 -101 48 -52 76 -88 64 -81
-13 7 -26 10 -30 7 -9 -10 3 -16 34 -18 32 -2 56 -16 49 -28 -3 -5 0 -12 6
-16 8 -4 9 -3 5 4 -11 18 8 14 35 -6 13 -10 43 -29 67 -42 23 -13 42 -30 42
-37 0 -7 8 -13 18 -13 15 0 15 2 2 11 -12 9 -12 10 3 5 10 -3 21 -6 23 -6 3 0
2 -4 -1 -10 -3 -6 1 -7 9 -4 8 3 37 -1 63 -10 85 -28 155 -37 288 -37 147 0
235 15 355 61 160 62 325 198 428 352 29 42 52 79 52 82 0 3 11 29 24 58 41
93 44 103 62 222 15 99 16 131 6 222 -26 232 -104 396 -269 561 -192 192 -456
285 -743 262z m220 -119 c92 -14 141 -29 223 -70 89 -45 130 -74 119 -85 -4
-5 -1 -5 6 0 19 10 82 -52 77 -76 -2 -11 1 -19 7 -19 5 0 8 7 4 15 -9 25 4 17
40 -22 20 -23 31 -45 28 -55 -3 -9 1 -20 7 -24 9 -5 10 -2 5 12 -7 18 -6 18
10 2 15 -15 15 -19 3 -35 -13 -16 -12 -17 2 -5 15 11 20 7 42 -30 56 -96 98
-225 94 -284 -2 -24 0 -41 5 -38 15 10 8 -161 -11 -251 -20 -96 -68 -204 -129
-290 -51 -72 -93 -115 -106 -108 -6 3 -8 2 -3 -2 10 -11 -42 -65 -62 -65 -9 0
-22 -9 -29 -21 -8 -12 -19 -18 -28 -15 -8 3 -13 2 -10 -3 15 -24 -235 -115
-336 -122 -110 -7 -178 -2 -288 20 -77 16 -91 21 -85 32 3 5 -1 6 -9 3 -23 -9
-133 47 -217 110 -182 137 -293 349 -305 581 -8 170 14 285 81 417 112 221
324 381 560 423 81 15 225 17 305 5z"/>
<path d="M4839 6222 c-11 -7 -23 -10 -29 -7 -6 4 -9 -147 -9 -433 l1 -440 30
-6 c63 -13 135 -7 159 13 l24 19 0 409 c0 388 -1 409 -19 433 -17 23 -27 26
-79 25 -33 0 -68 -6 -78 -13z"/>
<path d="M5323 6230 c-98 -8 -100 -14 -104 -245 0 -71 -4 -101 -9 -85 l-8 25
-1 -27 c-1 -16 4 -28 9 -28 6 0 10 -30 10 -71 0 -44 -4 -68 -10 -64 -6 4 -10
-7 -10 -27 0 -25 3 -29 10 -18 7 10 10 -22 9 -100 0 -73 -4 -108 -9 -95 -7 17
-9 15 -9 -12 -1 -18 3 -33 8 -33 4 0 11 -18 14 -41 8 -64 28 -79 107 -79 119
0 111 -35 108 454 -3 407 -4 419 -23 430 -11 6 -22 13 -25 16 -3 3 -33 3 -67
0z"/>
<path d="M3155 5951 c-74 -21 -127 -49 -190 -97 -26 -20 -54 -37 -61 -38 -7
-1 -17 -6 -21 -11 -4 -4 -2 -5 5 -1 21 12 13 -4 -22 -47 -49 -61 -95 -159
-111 -238 -11 -50 -5 -207 9 -260 8 -31 24 -75 35 -98 12 -23 19 -46 16 -51
-3 -6 0 -10 7 -10 17 0 41 -38 32 -52 -4 -6 -3 -8 3 -5 5 3 24 -9 42 -27 18
-19 29 -36 24 -38 -4 -3 -3 -4 3 -2 6 1 34 -13 62 -32 28 -19 57 -34 64 -35 7
0 -27 -13 -77 -28 -105 -32 -176 -67 -261 -127 -34 -24 -64 -41 -68 -39 -3 3
-4 2 -2 -1 3 -3 -26 -42 -64 -86 -71 -81 -103 -132 -146 -228 -15 -34 -23 -45
-21 -28 2 16 0 25 -5 22 -6 -4 -7 -21 -4 -38 7 -38 -53 -203 -73 -198 -7 1
-10 -2 -7 -7 7 -11 -13 -71 -24 -71 -4 0 -17 -16 -28 -34 -12 -19 -39 -47 -62
-61 -54 -34 -70 -68 -45 -95 28 -31 77 -26 122 13 90 78 144 164 203 326 73
201 127 291 241 394 134 123 319 195 549 213 75 5 197 -12 293 -43 97 -30 143
-53 226 -111 48 -34 60 -47 50 -54 -11 -8 -10 -9 4 -4 11 4 26 -5 45 -25 15
-17 27 -34 27 -37 0 -14 17 -32 25 -27 4 3 13 -2 19 -9 10 -11 8 -15 -6 -19
-14 -4 -13 -5 4 -6 27 -1 70 -70 109 -176 24 -63 97 -249 111 -284 5 -10 2
-12 -7 -6 -9 5 -11 4 -6 -4 4 -6 11 -9 16 -6 4 3 18 -10 30 -30 11 -19 43 -54
71 -79 30 -27 44 -46 37 -49 -7 -3 10 -3 37 0 78 8 103 62 45 97 -17 9 -27 22
-24 28 4 6 2 8 -4 4 -23 -14 -114 114 -146 206 -25 71 -62 170 -80 212 -18 43
-21 69 -5 46 9 -13 10 -13 6 0 -2 8 -9 15 -15 15 -16 0 -54 63 -46 76 3 5 1 8
-5 7 -13 -4 -62 62 -55 74 3 5 1 7 -4 6 -10 -3 -148 123 -145 133 1 3 -3 6
-10 6 -18 0 -159 79 -157 88 1 3 -2 10 -6 13 -4 4 -4 1 0 -5 4 -7 2 -13 -3
-13 -6 0 -11 5 -11 11 0 5 -4 8 -10 4 -5 -3 -26 1 -46 10 -20 8 -48 15 -63 15
-23 0 -22 2 14 21 22 12 52 32 67 46 16 16 31 22 40 17 7 -4 10 -4 6 1 -4 4
13 31 38 59 142 162 176 410 82 601 -37 75 -95 151 -148 194 -22 18 -37 37
-34 43 4 6 3 8 -3 5 -6 -4 -44 9 -85 28 -40 19 -97 39 -127 45 -80 15 -208 11
-276 -9z m265 -98 c14 -3 33 -8 43 -10 39 -7 120 -58 180 -112 30 -27 38 -52
10 -30 -16 13 -17 12 -4 -3 7 -10 17 -16 21 -13 4 3 22 -16 38 -43 99 -155 76
-390 -53 -540 -44 -50 -158 -120 -229 -138 -49 -13 -163 -13 -232 -1 -52 9
-143 58 -192 102 -49 44 -109 134 -118 176 -19 94 -24 129 -24 183 0 81 19
148 63 222 63 107 182 193 287 209 25 4 46 8 48 9 4 5 135 -4 162 -11z"/>
<path d="M6785 5957 c-133 -35 -289 -150 -344 -255 -7 -12 -16 -20 -21 -17 -5
3 -12 0 -16 -6 -5 -8 -3 -9 6 -4 8 5 11 3 7 -6 -21 -50 -48 -154 -56 -209 -12
-87 9 -202 56 -300 42 -87 150 -202 223 -237 l45 -21 -45 -11 c-85 -22 -165
-55 -224 -93 -32 -21 -63 -35 -69 -31 -5 3 -7 1 -3 -5 3 -6 -8 -20 -25 -32
-89 -64 -203 -225 -261 -368 -21 -52 -38 -100 -38 -105 0 -9 -16 -49 -50 -122
-22 -47 -106 -155 -121 -155 -5 0 -8 4 -5 8 2 4 -7 8 -22 9 l-27 2 24 -10 24
-9 -20 -23 c-33 -37 -36 -47 -17 -68 19 -21 64 -25 95 -8 80 42 177 192 229
354 12 39 27 76 33 83 5 6 7 12 3 12 -19 0 95 186 156 255 28 33 58 49 42 23
-4 -7 -3 -8 5 -4 6 4 9 11 6 16 -18 29 167 136 310 181 17 5 77 16 135 25 117
18 214 13 335 -17 22 -5 51 -12 65 -15 72 -14 275 -128 263 -148 -3 -6 -3 -8
2 -4 12 11 87 -52 81 -69 -3 -8 -2 -12 3 -9 4 3 18 -6 31 -19 18 -19 20 -27
11 -39 -9 -11 -8 -15 3 -19 11 -4 13 -1 9 11 -6 14 -4 15 9 4 33 -26 99 -174
102 -229 0 -11 4 -20 7 -18 3 2 14 -19 24 -48 47 -134 139 -271 214 -318 49
-31 74 -31 103 2 22 26 12 55 -26 78 -72 45 -139 141 -181 258 -15 43 -33 92
-41 110 -8 17 -14 36 -14 43 0 7 -16 43 -37 82 -20 38 -36 76 -36 83 0 8 -3
13 -7 12 -4 -1 -29 25 -57 58 -62 75 -109 117 -193 170 -90 58 -244 121 -285
116 -14 -1 -11 3 10 14 91 49 179 138 233 235 55 100 72 313 33 424 -48 137
-151 265 -258 321 -21 11 -40 22 -43 25 -3 3 -32 14 -65 24 -76 24 -259 31
-330 13z m243 -103 c79 -16 189 -71 185 -92 -2 -6 3 -9 11 -6 30 11 156 -176
142 -211 -3 -8 0 -15 7 -18 8 -2 12 -38 12 -118 0 -95 -4 -124 -23 -174 -44
-116 -137 -211 -249 -257 -50 -20 -75 -23 -183 -23 -114 1 -130 3 -183 28 -75
34 -119 66 -111 79 4 6 3 8 -3 5 -16 -10 -81 67 -115 136 -44 88 -58 216 -35
313 44 177 193 318 362 343 89 13 99 12 183 -5z"/>
</g>
</svg>
