<?xml version="1.0" standalone="no"?>
<!DOCTYPE svg PUBLIC "-//W3C//DTD SVG 20010904//EN" "http://www.w3.org/TR/2001/REC-SVG-20010904/DTD/svg10.dtd">
<svg xmlns="http://www.w3.org/2000/svg" version="1.0" width="1024.000000pt" height="1024.000000pt" viewBox="0 0 1024.000000 1024.000000" preserveAspectRatio="xMidYMid meet">
<metadata>
Created by potrace 1.16, written by Peter Selinger 2001-2019
<meta name="Producer" content="Online-Convert"/></metadata>
<g transform="translate(0.000000,1024.000000) scale(0.100000,-0.100000)" fill="#000000" stroke="none">
<path d="M4835 8533 c-102 -9 -343 -47 -465 -74 -584 -128 -1193 -447 -1613 -846 -45 -42 -82 -71 -89 -67 -7 4 -8 3 -4 -4 9 -14 -143 -174 -157 -165 -6 3 -7 1 -3 -5 4 -6 -20 -44 -55 -84 -183 -217 -377 -537 -497 -818 -175 -411 -265 -831 -279 -1300 -13 -458 66 -890 249 -1370 166 -432 522 -926 921 -1277 59 -53 104 -100 100 -105 -3 -7 -1 -8 5 -4 6 4 49 -22 94 -56 425 -325 950 -559 1463 -652 252 -47 308 -51 630 -51 326 1 431 10 705 66 543 110 1101 380 1512 732 36 30 62 46 70 41 7 -4 10 -3 5 1 -4 5 64 81 151 169 279 283 462 538 637 886 174 344 295 747 351 1165 22 159 25 574 5 740 -56 487 -226 1004 -453 1382 -27 46 -46 88 -43 93 4 6 2 9 -3 8 -6 -2 -47 51 -93 117 -244 356 -554 660 -919 902 -483 321 -1000 505 -1595 568 -126 13 -513 18 -630 8z m595 -117 c490 -48 921 -178 1320 -399 178 -99 323 -195 314 -209 -5 -7 -3 -8 5 -4 11 7 131 -77 244 -171 247 -207 469 -466 658 -765 76 -121 226 -414 217 -424 -3 -3 -52 18 -107 46 -443 222 -852 384 -1126 445 -183 41 -293 55 -490 62 -285 9 -533 -25 -795 -109 -314 -101 -509 -205 -1075 -570 -132 -85 -289 -182 -350 -215 -373 -205 -738 -289 -1100 -254 -327 32 -617 135 -978 347 -89 52 -163 97 -165 98 -2 2 18 53 44 113 141 325 309 598 518 842 112 132 266 291 279 291 6 0 0 -12 -14 -27 l-24 -28 27 24 c15 13 25 27 23 31 -11 17 205 196 371 308 476 318 1053 524 1604 571 155 13 444 12 600 -3z m1190 -1536 c424 -51 687 -141 1385 -473 272 -130 244 -109 283 -212 48 -130 99 -312 127 -450 24 -121 59 -379 53 -394 -2 -4 -234 95 -516 220 -664 296 -840 362 -1132 424 -454 96 -921 37 -1398 -177 -73 -32 -137 -56 -144 -52 -6 4 -8 3 -5 -3 4 -6 -21 -25 -56 -43 -113 -59 -279 -161 -537 -330 -337 -220 -484 -308 -665 -396 -509 -247 -863 -272 -1385 -98 -185 62 -448 185 -687 322 -177 101 -163 72 -137 280 19 162 47 306 85 452 28 106 67 231 74 238 1 2 56 -29 121 -68 332 -198 581 -298 899 -362 163 -33 472 -32 635 0 334 67 596 183 983 434 533 345 733 457 992 554 131 48 382 110 520 128 133 17 389 20 505 6z m113 -979 c289 -51 548 -143 1077 -383 146 -66 304 -138 353 -159 48 -21 126 -57 175 -78 48 -22 99 -45 115 -50 l27 -11 0 -128 c0 -139 -21 -380 -45 -514 -8 -46 -18 -100 -21 -120 -4 -22 -12 -38 -20 -38 -15 0 -218 88 -579 250 -481 216 -673 287 -930 345 -348 78 -719 71 -1073 -21 -344 -89 -629 -235 -1212 -618 -421 -277 -631 -390 -874 -471 -173 -58 -292 -78 -456 -78 -230 -1 -383 33 -668 145 -256 101 -683 324 -731 382 -33 39 -80 379 -88 635 l-6 203 24 -12 c13 -8 53 -31 89 -53 113 -70 467 -244 598 -295 310 -120 568 -167 837 -151 371 22 747 179 1310 549 275 180 439 284 545 344 310 176 635 293 945 341 134 21 455 13 608 -14z m12 -970 c290 -49 562 -144 1039 -365 176 -82 401 -182 548 -245 l47 -20 -10 -38 c-19 -70 -80 -255 -121 -367 -35 -96 -130 -312 -143 -324 -4 -4 -210 87 -455 201 -378 175 -762 294 -1052 326 -382 42 -829 -45 -1239 -241 -203 -98 -338 -179 -714 -428 -489 -325 -663 -424 -880 -502 -253 -91 -497 -103 -761 -38 -212 53 -564 230 -626 314 -204 279 -359 597 -461 944 -9 28 -12 52 -7 52 5 0 11 -4 14 -9 8 -12 187 -112 266 -149 36 -16 113 -52 171 -80 241 -116 465 -192 664 -227 121 -21 349 -24 455 -6 334 57 671 215 1175 551 343 228 552 354 721 435 252 119 545 207 784 235 124 14 449 4 585 -19z m-25 -960 c327 -60 634 -172 1223 -450 l109 -51 -33 -58 c-113 -201 -451 -635 -480 -617 -5 4 -6 0 -3 -8 6 -16 -213 -220 -341 -319 -456 -353 -949 -569 -1515 -662 -938 -154 -1882 89 -2612 672 -38 30 -65 59 -61 65 3 6 1 7 -6 3 -7 -5 -35 12 -69 41 -78 66 -320 302 -344 335 -18 26 -14 25 94 -23 218 -99 313 -127 492 -150 273 -34 552 24 856 176 178 89 265 142 582 351 580 384 695 450 980 565 175 70 390 125 578 148 117 15 427 5 550 -18z"/>
</g>
</svg>
