<?xml version="1.0" standalone="no"?>
<!DOCTYPE svg PUBLIC "-//W3C//DTD SVG 20010904//EN" "http://www.w3.org/TR/2001/REC-SVG-20010904/DTD/svg10.dtd">
<svg xmlns="http://www.w3.org/2000/svg" version="1.0" width="1024.000000pt" height="1024.000000pt" viewBox="0 0 1024.000000 1024.000000" preserveAspectRatio="xMidYMid meet">
<metadata>
Created by potrace 1.16, written by Peter Selinger 2001-2019
<meta name="Producer" content="Online-Convert"/></metadata>
<g transform="translate(0.000000,1024.000000) scale(0.100000,-0.100000)" fill="#000000" stroke="none">
<path d="M7440 7559 c-208 -18 -382 -101 -541 -259 -103 -103 -192 -250 -229 -378 -26 -90 -39 -249 -29 -338 5 -48 7 -94 4 -101 -2 -8 0 -11 5 -8 6 3 10 0 10 -8 0 -46 76 -223 129 -301 11 -17 18 -34 15 -38 -3 -5 -2 -7 3 -6 10 4 157 -143 158 -157 1 -5 7 -9 13 -7 7 1 27 -9 45 -22 103 -77 314 -143 477 -147 160 -5 413 70 502 148 9 8 22 12 30 7 7 -4 10 -4 6 0 -4 5 20 30 52 57 65 54 140 137 170 190 42 70 88 176 105 236 10 35 20 61 24 59 3 -2 7 62 8 142 3 156 -8 225 -57 357 -12 33 -23 68 -23 77 -1 9 -6 14 -11 11 -5 -4 -7 1 -3 11 4 9 3 15 -2 12 -10 -7 -67 84 -62 99 1 6 -1 7 -5 3 -10 -10 -65 62 -57 75 3 5 1 7 -4 4 -13 -8 -36 17 -25 28 4 5 2 5 -4 2 -7 -4 -34 13 -60 36 -119 105 -225 159 -389 197 -105 24 -153 27 -255 19z m275 -156 c96 -30 177 -72 168 -86 -3 -6 -1 -7 6 -3 7 5 34 -9 66 -33 40 -30 53 -46 50 -61 -2 -12 0 -18 6 -15 5 4 6 12 2 18 -4 7 11 -4 33 -23 57 -50 127 -147 120 -166 -3 -8 -2 -12 4 -9 16 10 82 -145 78 -182 -2 -18 -1 -30 2 -27 3 3 10 -23 15 -58 12 -75 3 -220 -19 -296 -24 -85 -64 -165 -77 -156 -8 4 -9 3 -5 -4 17 -28 -98 -165 -200 -238 -132 -94 -272 -140 -434 -143 -172 -3 -306 34 -435 120 -106 71 -237 221 -219 251 5 7 3 8 -6 3 -10 -6 -12 -4 -7 9 4 9 3 15 -3 11 -28 -17 -100 241 -100 362 0 110 58 322 83 306 6 -4 7 -1 2 6 -9 15 14 63 26 55 5 -3 6 1 4 9 -6 15 73 123 131 179 104 99 256 175 399 198 82 14 221 1 310 -27z"/>
<path d="M2510 7535 c-92 -24 -232 -90 -292 -137 -21 -16 -42 -27 -48 -23 -6 4 -9 2 -8 -3 2 -5 -33 -47 -77 -94 -44 -46 -90 -102 -103 -124 -32 -54 -86 -171 -102 -219 -7 -22 -19 -44 -26 -48 -8 -4 -14 -18 -13 -30 1 -21 1 -21 10 3 7 20 7 17 4 -15 -17 -150 -14 -310 6 -385 2 -9 -2 -14 -9 -12 -8 1 -11 -2 -7 -8 4 -6 10 -9 13 -6 3 3 14 -18 24 -47 10 -28 36 -86 58 -128 22 -42 36 -80 32 -84 -4 -5 -2 -5 4 -2 7 4 19 -4 28 -18 9 -14 14 -25 10 -25 -3 0 2 -8 13 -17 10 -10 12 -13 3 -8 -13 9 -13 8 -1 -7 7 -10 17 -16 21 -13 11 7 41 -30 33 -39 -5 -4 -1 -6 7 -4 8 2 14 -3 13 -9 -2 -7 3 -12 10 -10 6 1 11 -5 9 -13 -2 -8 0 -12 3 -8 11 10 76 -42 68 -55 -3 -6 -1 -7 6 -3 6 4 17 3 24 -2 48 -39 214 -111 295 -127 20 -4 30 -11 26 -18 -5 -9 -4 -9 5 -1 8 8 25 9 49 3 90 -21 259 -6 407 34 65 18 174 71 218 106 9 8 17 12 17 8 0 -7 60 45 117 103 125 125 218 309 243 478 41 282 -50 564 -245 759 -34 34 -60 64 -56 66 3 2 1 3 -6 1 -14 -3 -45 30 -36 40 4 4 1 4 -8 1 -9 -3 -34 8 -58 26 -24 17 -70 44 -102 59 -32 15 -55 30 -52 34 4 3 -2 5 -13 4 -10 -2 -61 8 -112 20 -124 30 -280 29 -402 -3z m304 -106 c42 -6 74 -15 71 -19 -2 -4 6 -5 18 -3 26 5 115 -32 95 -40 -7 -3 1 -4 17 -4 20 1 29 -2 27 -11 -1 -8 2 -11 7 -7 26 15 198 -105 184 -129 -3 -6 -2 -8 2 -3 10 9 57 -32 50 -44 -3 -4 0 -11 6 -15 8 -5 9 -3 4 7 -8 12 -6 12 9 0 27 -22 99 -149 93 -164 -3 -8 -1 -20 5 -28 8 -11 9 -10 4 4 -9 28 2 20 20 -15 25 -49 54 -204 54 -295 0 -46 -4 -83 -8 -83 -5 0 -7 15 -5 33 2 17 0 26 -3 19 -3 -6 -9 -10 -14 -7 -10 6 0 -36 13 -53 22 -28 -27 -190 -92 -299 -46 -78 -88 -126 -101 -118 -6 3 -7 -1 -4 -9 10 -27 -191 -166 -217 -150 -7 4 -9 3 -6 -3 8 -12 -21 -25 -113 -50 -49 -13 -102 -18 -215 -17 -143 0 -154 1 -243 32 -125 44 -206 97 -301 198 -133 143 -203 309 -204 489 -3 274 127 521 348 666 33 21 66 44 73 49 6 6 12 8 12 4 0 -3 6 -2 13 3 6 6 21 13 32 16 11 3 45 13 75 23 52 16 132 29 192 33 15 0 61 -4 102 -10z"/>
<path d="M4537 6640 c-16 -5 -36 -6 -45 -3 -15 4 -15 3 -2 -6 13 -9 13 -11 0 -11 -8 0 -40 -15 -72 -34 -31 -19 -59 -31 -63 -28 -4 4 -6 2 -5 -3 5 -22 -1 -29 -11 -15 -9 13 -10 13 -7 0 3 -8 -10 -34 -28 -57 -18 -23 -43 -68 -56 -100 l-23 -58 -3 -802 c-2 -571 -6 -803 -14 -803 -7 0 -7 -4 0 -12 5 -7 10 -35 10 -63 l0 -50 -13 50 c-7 28 -25 83 -39 123 -15 40 -24 78 -20 84 4 6 3 8 -3 5 -12 -8 -56 81 -47 96 4 7 3 9 -1 4 -5 -4 -26 23 -48 60 -40 70 -93 146 -137 197 -76 90 -104 116 -192 187 -53 42 -94 80 -90 85 4 4 2 4 -4 1 -14 -8 -166 77 -156 88 4 5 2 5 -4 2 -6 -4 -49 9 -95 28 -46 18 -95 36 -109 39 -14 3 -43 10 -65 16 -186 48 -505 72 -675 50 -150 -19 -287 -48 -396 -85 -57 -19 -110 -32 -122 -28 -13 3 -22 1 -22 -6 0 -5 7 -8 15 -5 8 4 15 3 15 0 0 -11 -141 -77 -151 -71 -5 4 -8 1 -7 -6 2 -6 -3 -14 -11 -17 -9 -3 -11 0 -6 8 5 9 4 11 -4 6 -6 -4 -9 -11 -7 -15 3 -3 -12 -18 -32 -31 -20 -14 -46 -33 -57 -43 -10 -10 -25 -15 -32 -13 -7 3 -12 2 -10 -2 1 -4 -33 -41 -76 -82 -42 -41 -89 -91 -103 -112 -15 -21 -30 -36 -34 -33 -3 2 -7 -1 -7 -8 0 -7 -21 -43 -47 -82 -25 -38 -46 -74 -46 -78 0 -5 -5 -5 -12 -1 -6 4 -8 3 -5 -3 4 -6 -6 -37 -21 -69 -88 -184 -143 -424 -157 -689 -7 -119 -11 -172 -15 -185 -2 -10 1 -227 4 -256 2 -16 7 -85 10 -154 15 -308 18 -365 21 -370 2 -3 6 -50 10 -105 3 -55 8 -111 10 -125 3 -14 7 -45 10 -70 30 -257 39 -291 85 -303 19 -5 73 29 77 48 1 6 -5 56 -12 110 -8 55 -17 132 -20 170 -4 39 -15 149 -25 245 -16 154 -22 248 -34 550 -2 41 1 83 6 93 6 11 5 17 -2 17 -18 0 -2 362 22 510 37 232 73 357 140 486 23 44 36 61 47 57 13 -4 14 -3 2 5 -12 9 -8 20 25 67 78 114 165 204 267 279 196 142 360 210 612 255 33 6 78 14 100 18 22 4 117 7 210 6 176 0 290 -16 448 -62 136 -40 262 -94 262 -113 0 -7 9 -12 20 -11 26 2 157 -85 149 -99 -4 -7 -2 -8 4 -4 6 3 15 -2 21 -11 5 -10 11 -16 13 -13 6 10 87 -63 81 -73 -3 -6 -1 -7 4 -4 12 8 49 -30 40 -40 -9 -8 13 -34 23 -28 5 3 21 -10 36 -30 23 -31 25 -37 13 -53 -13 -15 -12 -16 3 -4 18 14 34 0 22 -20 -4 -6 -3 -8 3 -5 14 9 44 -38 49 -77 2 -17 5 -36 6 -43 1 -7 5 -10 10 -7 4 3 3 14 -3 25 -6 12 -9 23 -6 25 5 6 80 -147 91 -186 5 -19 5 -21 -3 -10 -8 12 -10 11 -9 -7 1 -11 7 -19 14 -16 20 7 81 -191 133 -429 13 -62 16 -88 8 -88 -8 0 -8 -3 1 -8 8 -5 14 -39 16 -93 2 -46 2 -72 -1 -56 -5 32 -21 37 -17 5 1 -13 3 -29 3 -36 1 -6 7 -11 14 -10 9 2 12 -36 13 -162 2 -233 -30 -383 -112 -523 -76 -131 -174 -244 -264 -305 -30 -20 -57 -39 -60 -42 -10 -10 -105 -61 -160 -86 -30 -14 -62 -29 -71 -33 -19 -11 -221 -67 -269 -75 -245 -41 -511 -53 -787 -36 -177 11 -338 31 -328 41 3 3 -9 6 -27 5 -59 -1 -136 15 -152 33 -13 14 -15 104 -18 708 -3 650 -4 692 -21 711 -39 43 -106 23 -108 -31 0 -12 -2 -157 -3 -322 -1 -165 -5 -310 -8 -323 -4 -12 -3 -22 1 -22 12 0 10 -373 -1 -387 -7 -9 -7 -13 0 -13 7 0 10 -54 10 -155 0 -107 -3 -155 -11 -155 -8 0 -7 -4 1 -12 7 -7 12 -20 12 -30 0 -31 29 -77 58 -92 49 -25 180 -44 557 -82 33 -3 166 -6 295 -6 265 0 314 4 520 42 159 30 243 50 257 62 7 6 13 8 13 5 0 -9 164 62 246 106 39 21 99 60 133 88 34 27 66 47 71 44 6 -4 10 -1 10 5 0 7 27 42 61 78 88 96 162 214 209 329 22 55 40 107 40 114 1 9 8 5 20 -10 11 -12 17 -28 13 -35 -3 -6 -3 -8 2 -4 4 4 30 -12 57 -37 27 -24 68 -51 93 -60 32 -13 42 -21 38 -34 -3 -12 -2 -13 4 -3 5 7 20 10 34 8 13 -3 30 -5 37 -5 7 -1 10 -6 6 -13 -4 -7 -3 -8 4 -4 7 4 234 7 505 6 526 -1 563 2 655 49 23 12 47 19 53 16 5 -4 8 -2 7 3 -2 5 23 32 55 61 31 29 57 60 58 70 0 9 11 -15 25 -54 13 -38 33 -89 44 -113 11 -24 17 -48 13 -55 -13 -20 -10 -55 4 -50 16 6 17 20 1 25 -6 2 -8 10 -4 17 6 9 12 7 23 -9 8 -12 16 -27 17 -34 1 -6 12 -23 24 -36 14 -16 20 -31 16 -44 -4 -15 -3 -17 4 -8 7 11 17 3 43 -33 19 -27 33 -53 31 -59 -2 -6 0 -8 3 -4 4 4 42 -23 84 -61 42 -38 95 -80 119 -95 25 -16 40 -31 36 -38 -4 -6 -3 -8 4 -4 14 9 63 -14 55 -27 -3 -6 -2 -7 3 -4 5 3 30 -5 55 -17 45 -23 203 -84 236 -91 10 -2 53 -13 96 -24 257 -67 819 -85 1165 -37 51 7 95 9 98 4 3 -4 13 -8 22 -7 14 0 14 2 -2 8 -13 5 13 13 79 25 106 19 139 31 170 66 20 22 20 36 20 750 0 787 1 773 -53 787 -14 3 -32 1 -41 -4 -38 -24 -41 -67 -41 -604 -1 -326 -4 -517 -10 -514 -6 4 -6 -4 0 -20 5 -14 10 -67 9 -118 0 -51 0 -97 1 -102 8 -39 -2 -85 -21 -95 -29 -16 -324 -58 -481 -69 -286 -20 -822 8 -801 42 3 6 2 7 -4 4 -10 -6 -146 18 -178 33 -11 5 -38 14 -60 21 -77 23 -207 89 -288 145 -150 105 -243 216 -320 384 -31 68 -42 101 -76 235 -43 174 -8 574 79 901 30 115 86 274 98 284 4 3 7 10 7 15 0 21 68 154 76 149 5 -3 7 1 4 8 -5 14 116 178 175 238 92 93 221 187 241 174 7 -4 9 -3 6 3 -9 14 16 29 130 81 100 46 222 81 378 108 126 21 410 25 510 6 140 -27 206 -45 193 -53 -7 -5 1 -8 22 -7 33 1 56 -3 100 -17 12 -4 17 -13 15 -26 -2 -11 0 -17 6 -14 5 4 7 11 4 16 -8 12 9 11 39 -2 14 -7 23 -16 20 -20 -3 -5 2 -6 10 -3 23 9 95 -35 89 -55 -4 -13 -3 -13 5 -2 9 12 21 8 72 -23 85 -50 211 -156 203 -170 -3 -6 -2 -8 2 -3 10 8 75 -51 75 -68 0 -5 9 -16 20 -23 12 -7 18 -18 14 -24 -4 -6 -3 -8 4 -5 13 9 105 -130 98 -149 -3 -7 0 -13 6 -11 15 3 60 -83 53 -101 -3 -7 0 -10 5 -7 6 3 10 -2 10 -12 0 -11 4 -23 9 -29 7 -8 38 -98 46 -134 28 -128 36 -169 48 -250 8 -52 16 -102 17 -110 1 -8 3 -139 4 -290 3 -249 -4 -467 -18 -560 -3 -19 -11 -90 -17 -158 -7 -73 -16 -118 -21 -110 -4 7 -5 -1 -2 -20 4 -19 -4 -119 -16 -223 -27 -216 -25 -233 33 -237 56 -4 67 21 87 188 5 47 15 119 21 160 12 83 21 174 43 420 21 233 21 888 -1 950 -2 8 -7 40 -9 70 -3 30 -9 66 -14 80 -5 14 -16 59 -25 100 -27 125 -86 265 -161 382 -25 38 -41 74 -38 80 4 6 3 8 -3 5 -6 -4 -18 5 -28 19 -37 56 -160 187 -223 237 -93 73 -194 139 -277 180 -113 56 -307 121 -390 131 -22 3 -71 11 -110 18 -79 13 -398 17 -490 5 -67 -8 -160 -23 -190 -31 -11 -3 -40 -10 -65 -16 -72 -17 -203 -66 -281 -106 -273 -137 -478 -348 -613 -631 -22 -45 -43 -80 -48 -77 -4 3 -5 -2 -2 -11 6 -14 -21 -91 -36 -105 -3 -3 -6 -14 -7 -25 -1 -11 -8 -45 -16 -75 -13 -49 -15 39 -16 814 l-1 869 -30 70 c-16 38 -27 74 -24 79 3 5 1 7 -3 6 -5 -2 -28 19 -51 45 -23 27 -42 45 -42 41 0 -4 -8 0 -17 8 -32 27 -92 57 -144 72 -43 13 -135 16 -593 15 -297 -1 -554 -5 -569 -9z m425 -126 c6 -4 5 -10 -3 -15 -10 -6 -5 -9 16 -10 17 0 38 -2 48 -4 9 -2 17 1 17 6 0 6 -6 9 -12 8 -7 -1 -22 0 -33 1 -14 2 -12 4 10 9 39 9 620 6 663 -3 19 -5 30 -12 26 -18 -4 -7 -2 -8 5 -4 33 21 152 -98 170 -169 17 -67 16 -1489 -1 -1479 -10 6 -10 4 0 -7 8 -9 12 -59 12 -173 0 -108 -4 -156 -10 -146 -8 13 -10 12 -10 -2 0 -10 5 -18 10 -18 14 0 13 -763 -1 -814 -8 -30 -13 -36 -20 -25 -7 10 -8 6 -4 -12 5 -20 -2 -36 -28 -70 -19 -24 -39 -43 -46 -41 -6 1 -11 -4 -11 -12 0 -20 -54 -51 -122 -71 -50 -14 -115 -16 -550 -12 -366 3 -501 7 -525 16 -18 7 -30 17 -27 22 3 5 -1 6 -9 4 -19 -8 -87 49 -120 101 -48 78 -57 136 -57 376 0 148 4 219 11 224 8 4 7 9 -2 15 -12 7 -12 12 -1 30 8 11 9 18 3 14 -6 -3 -11 1 -11 10 0 9 5 13 10 10 6 -3 10 -1 10 4 0 6 -4 11 -10 11 -7 0 -10 339 -10 998 0 872 2 1005 15 1050 9 29 20 50 25 47 6 -3 8 0 5 7 -7 18 58 84 108 110 23 11 64 24 92 27 71 9 355 12 367 5z"/>
</g>
</svg>
