<?xml version="1.0" standalone="no"?>
<!DOCTYPE svg PUBLIC "-//W3C//DTD SVG 20010904//EN" "http://www.w3.org/TR/2001/REC-SVG-20010904/DTD/svg10.dtd">
<svg xmlns="http://www.w3.org/2000/svg" version="1.0" width="1024.000000pt" height="1024.000000pt" viewBox="0 0 1024.000000 1024.000000" preserveAspectRatio="xMidYMid meet">
<metadata>
Created by potrace 1.16, written by Peter Selinger 2001-2019
<meta name="Producer" content="Online-Convert"/></metadata>
<g transform="translate(0.000000,1024.000000) scale(0.100000,-0.100000)" fill="#000000" stroke="none">
<path d="M5015 8764 c-161 -23 -169 -24 -177 -37 -4 -6 -8 -9 -8 -4 0 4 -11 0 -24 -8 -13 -9 -37 -17 -54 -18 -16 -1 -28 -5 -26 -8 2 -3 -24 -23 -56 -45 -33 -21 -60 -43 -60 -47 0 -5 -5 -5 -10 -2 -6 4 -9 2 -8 -3 2 -5 -21 -31 -50 -57 -55 -50 -135 -154 -146 -192 -4 -13 -11 -23 -16 -23 -4 0 -15 -18 -24 -40 -9 -22 -20 -40 -25 -40 -5 0 -8 -6 -8 -12 1 -7 -11 -51 -25 -98 -35 -111 -43 -161 -43 -301 l0 -116 -22 15 c-13 8 -23 18 -23 23 0 5 -3 8 -8 6 -12 -3 -92 35 -92 45 0 4 -7 8 -15 8 -9 0 -35 9 -57 20 -23 11 -49 20 -58 20 -9 0 -21 5 -28 12 -7 7 -12 9 -12 5 0 -4 -8 -3 -17 2 -45 24 -261 45 -315 31 -18 -5 -54 -10 -79 -13 -25 -2 -76 -18 -114 -35 -37 -18 -72 -29 -78 -25 -5 3 -7 1 -3 -5 3 -6 -8 -20 -26 -33 -32 -21 -131 -119 -121 -119 3 0 -4 -16 -16 -35 -36 -61 -59 -142 -66 -235 -2 -25 -4 -49 -5 -55 -2 -18 20 -177 26 -186 3 -5 8 -22 10 -36 3 -15 12 -42 21 -60 8 -17 11 -37 7 -44 -5 -8 -3 -9 6 -4 10 6 12 4 6 -11 -4 -10 -4 -15 0 -12 9 9 44 -35 44 -55 0 -9 -4 -19 -10 -22 -5 -3 -10 -12 -9 -18 0 -8 2 -8 6 1 4 10 8 10 21 0 8 -7 16 -11 18 -8 1 3 32 -29 67 -71 52 -61 63 -79 54 -90 -10 -11 -9 -11 4 -1 14 10 20 10 30 -1 8 -7 40 -32 71 -56 32 -24 55 -47 52 -52 -3 -5 -1 -8 4 -7 15 5 182 -96 182 -109 0 -7 5 -13 11 -13 5 0 7 4 4 10 -3 6 1 7 9 4 9 -3 13 -11 9 -17 -4 -6 -1 -7 6 -2 10 6 93 -23 120 -42 9 -6 -43 -52 -52 -46 -6 3 -7 1 -4 -4 7 -12 -26 -46 -36 -38 -4 3 -5 2 -2 -1 7 -10 -46 -75 -56 -68 -5 3 -6 -2 -3 -10 3 -9 2 -16 -4 -16 -15 0 -99 -123 -142 -208 -20 -39 -40 -69 -45 -65 -4 5 -5 3 -2 -3 3 -6 -2 -42 -12 -82 -10 -39 -17 -73 -14 -75 2 -3 -1 -31 -8 -63 -9 -44 -9 -72 -1 -109 7 -35 7 -53 0 -63 -6 -7 -8 -15 -4 -19 3 -3 6 0 7 8 0 8 9 -15 19 -50 11 -35 17 -69 13 -74 -3 -6 -1 -7 4 -4 6 4 16 -7 23 -23 7 -17 16 -30 21 -30 5 0 6 -6 4 -12 -3 -7 25 -42 61 -78 36 -35 61 -66 55 -68 -14 -5 -14 -29 -1 -37 5 -3 7 0 4 8 -7 18 9 29 30 21 22 -8 20 -25 -1 -18 -14 5 -15 4 -4 -4 8 -6 20 -8 28 -5 7 3 13 -2 13 -10 0 -9 5 -19 12 -23 7 -4 8 -3 4 4 -4 7 -3 12 3 12 5 0 13 -5 16 -10 4 -6 11 -8 16 -5 5 4 9 0 9 -8 0 -7 6 -14 13 -14 6 0 44 -12 82 -27 39 -15 72 -27 75 -27 24 1 79 -13 75 -20 -3 -4 0 -11 6 -15 7 -4 9 -3 5 4 -4 7 30 10 111 10 65 -1 129 2 143 5 14 4 41 9 60 11 19 3 50 10 68 15 18 5 36 10 40 10 39 4 222 92 243 117 6 8 16 14 21 14 6 0 27 13 48 30 20 16 40 26 44 22 4 -4 6 -2 4 4 -2 5 15 26 37 45 22 18 44 40 48 46 4 7 18 13 30 13 15 0 18 3 10 8 -10 6 -10 12 2 28 14 17 15 12 9 -56 -3 -41 -10 -113 -15 -160 -5 -47 -11 -121 -14 -165 -7 -92 -12 -140 -19 -164 -3 -9 -7 -55 -11 -103 -3 -48 -10 -99 -15 -113 -6 -15 -10 -45 -10 -68 0 -28 -3 -37 -9 -28 -5 8 -7 -4 -4 -33 3 -25 1 -65 -6 -88 -6 -24 -13 -70 -16 -103 -3 -33 -11 -91 -17 -130 -6 -38 -11 -75 -12 -82 -1 -7 -5 -16 -9 -19 -4 -4 -7 -23 -7 -43 0 -27 -3 -32 -10 -21 -13 20 -13 4 0 -20 7 -14 6 -23 -5 -34 -10 -9 -12 -17 -5 -21 6 -4 9 -14 6 -23 -3 -10 -7 -28 -10 -42 -2 -14 -9 -45 -15 -70 -6 -25 -13 -58 -15 -75 -2 -16 -9 -29 -15 -28 -6 2 -11 -1 -11 -6 0 -5 -3 -18 -6 -28 -6 -16 -5 -16 10 2 17 19 17 19 11 -10 -4 -16 -9 -37 -10 -45 -2 -8 -4 -15 -5 -15 -1 0 -4 -13 -6 -30 -3 -16 -21 -101 -40 -188 -18 -87 -34 -161 -34 -163 0 -3 -4 -3 -9 0 -10 6 -25 -24 -16 -32 3 -3 5 0 5 6 0 7 4 12 9 12 6 0 7 -11 1 -28 -5 -15 -16 -62 -25 -105 -9 -42 -19 -75 -23 -73 -4 2 -13 -3 -21 -11 -12 -13 -11 -14 8 -8 21 6 30 -8 11 -20 -6 -4 -10 -12 -8 -18 1 -7 -1 -21 -5 -32 -3 -11 -8 -31 -11 -45 -3 -14 -12 -44 -21 -68 -8 -24 -16 -51 -18 -60 -1 -9 -5 -21 -8 -27 -4 -5 -10 -23 -14 -40 -10 -37 -9 -34 -23 -68 -7 -16 -12 -34 -12 -42 0 -8 -4 -17 -10 -20 -5 -3 -10 -13 -10 -22 0 -9 -12 -41 -26 -72 -14 -31 -33 -72 -41 -91 -27 -64 -158 -325 -169 -337 -7 -7 -15 -9 -18 -5 -4 3 -4 -1 -1 -10 4 -9 -1 -28 -11 -42 -15 -23 -18 -24 -28 -11 -10 14 -12 14 -12 -4 0 -11 4 -17 9 -14 12 7 -2 -37 -17 -53 -6 -7 -22 -31 -35 -53 -14 -22 -29 -37 -34 -34 -6 3 -7 2 -4 -4 4 -5 -9 -34 -28 -64 -24 -39 -31 -57 -23 -66 6 -7 7 -13 2 -13 -5 -1 8 -10 29 -21 21 -11 46 -17 56 -14 18 6 51 48 93 123 11 20 29 51 39 67 10 17 41 72 70 123 28 50 56 92 62 92 5 0 8 3 5 6 -6 5 25 76 107 249 31 63 56 122 60 135 0 3 10 26 22 51 11 25 26 62 32 82 7 20 17 37 23 37 6 0 9 3 5 6 -15 15 109 207 127 197 6 -3 8 -3 4 2 -11 11 12 36 25 28 6 -3 7 -1 3 6 -9 14 112 134 129 127 7 -2 18 0 26 6 11 8 9 8 -6 4 -15 -4 -12 1 10 19 17 14 35 25 42 25 6 0 13 4 15 8 2 4 30 24 63 44 117 70 283 136 306 122 7 -4 9 -3 6 3 -6 9 74 48 119 58 10 2 34 8 52 14 17 5 32 7 32 4 0 -3 6 -1 13 5 7 6 28 13 47 15 19 2 48 9 63 16 16 6 34 11 41 11 7 0 16 3 20 7 3 4 14 8 24 10 18 2 115 34 252 81 76 26 151 57 203 84 13 6 24 5 35 -4 12 -10 14 -10 8 -1 -4 8 2 17 18 25 14 6 26 16 26 21 0 6 3 8 6 4 6 -6 124 49 134 63 3 3 20 13 38 21 17 8 32 17 32 21 0 5 3 7 8 6 10 -4 92 44 92 54 0 4 4 8 10 8 5 0 35 17 66 38 31 20 71 45 88 55 91 55 346 289 466 427 36 41 72 80 80 87 8 7 12 13 8 13 -4 0 7 15 23 33 72 78 273 401 320 514 l21 52 -19 33 c-11 18 -25 32 -32 31 -6 -2 -11 0 -11 5 0 11 -145 0 -295 -23 -16 -3 -50 -7 -75 -10 -81 -9 -125 -15 -140 -20 -8 -2 -31 -7 -50 -10 -37 -6 -79 -16 -145 -35 -22 -6 -56 -15 -75 -19 -19 -5 -55 -16 -80 -25 -25 -9 -85 -31 -135 -47 -129 -44 -371 -158 -387 -183 -4 -6 -8 -7 -8 -3 0 5 -13 -1 -29 -12 -16 -12 -33 -21 -39 -21 -5 0 -15 -7 -22 -15 -7 -8 -16 -12 -21 -9 -5 3 -9 1 -9 -5 0 -5 -9 -13 -20 -16 -11 -3 -26 -12 -32 -19 -19 -18 -105 -76 -114 -76 -4 0 -16 -7 -26 -16 -15 -14 -20 -15 -35 -3 -16 12 -17 12 -6 -1 10 -13 7 -21 -15 -41 -33 -32 -69 -51 -75 -41 -2 4 -3 2 -1 -4 3 -13 -71 -84 -88 -84 -6 0 -3 7 8 16 18 14 18 15 -4 4 -12 -6 -20 -15 -17 -21 4 -5 -7 -22 -23 -37 -59 -56 -238 -232 -261 -256 -12 -14 -27 -23 -32 -20 -5 3 -8 2 -7 -3 6 -17 -109 -156 -122 -148 -4 2 -7 -1 -7 -8 0 -20 -175 -237 -186 -230 -6 3 -7 1 -3 -5 7 -12 -101 -168 -115 -165 -4 2 -6 -3 -3 -11 3 -7 -2 -19 -11 -26 -8 -7 -15 -17 -15 -23 0 -19 -32 -46 -48 -40 -13 4 -14 3 -4 -5 10 -7 2 -26 -36 -85 -27 -43 -52 -74 -57 -69 -5 4 -5 1 -1 -5 8 -15 -17 -57 -27 -46 -4 3 -7 -2 -7 -13 -1 -25 -29 -76 -30 -52 0 9 4 20 10 23 6 3 10 19 10 35 0 16 5 41 11 57 7 15 13 35 14 43 1 8 5 33 10 55 4 22 9 45 10 50 0 6 4 21 8 35 8 31 13 54 42 210 13 69 26 136 29 150 3 14 10 45 16 70 6 25 12 59 15 75 2 17 8 55 14 85 5 30 16 96 25 145 9 50 18 104 20 120 3 17 12 75 20 130 9 55 18 118 21 140 2 22 7 58 10 80 8 55 14 99 19 142 3 20 7 52 10 72 8 50 16 115 22 191 3 36 7 74 8 85 7 51 17 157 21 225 3 41 8 91 11 110 3 19 5 51 5 70 -1 33 0 34 14 15 9 -11 13 -25 10 -33 -2 -7 -1 -11 4 -8 9 6 26 -22 22 -37 -1 -5 3 -6 8 -3 12 8 34 -21 26 -34 -4 -6 -3 -10 2 -9 21 4 32 -3 38 -22 4 -11 9 -18 12 -15 8 8 49 -46 45 -59 -2 -5 0 -7 4 -3 4 5 22 -3 40 -17 18 -14 37 -25 43 -25 5 0 14 -6 18 -14 8 -15 213 -128 213 -118 0 3 6 -2 13 -13 8 -10 19 -15 25 -11 5 3 39 -1 75 -9 120 -28 291 -21 390 17 29 11 57 21 62 22 25 6 89 37 116 56 16 12 34 18 40 14 7 -4 9 -3 6 3 -7 11 91 100 105 95 5 -1 7 1 4 6 -8 14 24 53 37 46 7 -4 9 -4 5 0 -3 4 11 42 31 84 34 69 52 117 56 147 1 6 5 39 10 75 5 36 8 72 8 80 -10 106 -17 157 -26 168 -5 6 -7 12 -4 12 8 0 -26 97 -53 150 -12 25 -48 83 -78 130 -31 47 -55 89 -54 93 1 5 -2 6 -7 3 -5 -4 -30 20 -56 51 -25 32 -54 67 -65 79 -20 22 -11 44 18 44 8 0 59 23 114 51 55 27 107 48 115 45 8 -3 12 -2 9 3 -3 5 18 24 47 42 28 18 83 58 120 89 38 30 73 54 78 52 5 -1 8 4 7 10 -2 7 3 12 10 10 8 -1 11 2 8 7 -4 5 -2 12 4 16 30 19 168 211 162 228 -1 4 2 7 6 7 9 0 33 50 50 105 6 17 15 29 23 27 11 -3 11 -1 2 9 -7 7 -9 18 -4 28 27 51 34 332 9 347 -4 3 -6 9 -3 14 3 5 -3 28 -15 52 -23 47 -25 62 -8 52 7 -5 8 -3 4 5 -5 7 -10 10 -13 7 -3 -3 -27 25 -53 63 -27 37 -60 75 -74 85 -15 9 -24 21 -21 25 2 5 -3 8 -13 7 -12 -1 -16 5 -14 19 2 13 0 16 -6 8 -6 -10 -17 -8 -47 8 -21 11 -45 22 -54 24 -9 3 -36 11 -61 20 -24 9 -69 18 -99 21 -30 2 -63 7 -74 10 -17 5 -67 -2 -202 -28 -27 -5 -61 -12 -75 -14 -14 -2 -34 -8 -45 -13 -11 -5 -42 -19 -69 -31 -26 -12 -55 -19 -63 -16 -8 3 -11 1 -8 -4 3 -6 0 -10 -7 -10 -7 0 -36 -15 -63 -33 l-50 -33 2 101 c2 125 -18 250 -57 356 -16 45 -27 86 -23 92 4 6 1 7 -7 2 -10 -6 -12 -4 -7 9 4 10 3 15 -3 11 -6 -3 -10 -2 -10 3 0 14 -103 165 -142 207 -18 21 -31 43 -30 49 2 6 0 8 -4 4 -4 -4 -28 10 -53 31 -25 21 -69 53 -98 70 -38 23 -50 37 -47 49 4 12 3 13 -3 5 -7 -10 -21 -8 -64 8 -29 12 -63 22 -74 24 -11 2 -20 4 -20 5 0 1 -9 3 -20 5 -29 4 -97 15 -120 19 -11 2 -60 -2 -110 -10z m200 -143 c77 -18 85 -21 85 -36 0 -7 7 -16 16 -19 15 -6 15 -4 3 11 -12 15 -12 16 3 10 10 -3 43 -22 73 -41 42 -28 53 -39 48 -53 -6 -15 -4 -16 8 -6 12 10 23 5 61 -28 26 -21 67 -67 92 -102 25 -34 50 -66 54 -72 36 -46 41 -59 29 -74 -8 -10 -8 -12 -1 -8 11 6 38 -45 50 -93 2 -8 8 -33 14 -55 6 -22 13 -49 16 -60 8 -33 14 -196 6 -191 -4 2 -7 -24 -7 -57 0 -34 -4 -89 -9 -122 -7 -52 -5 -63 10 -83 18 -21 37 -25 90 -20 12 1 21 8 20 14 -2 18 98 87 194 134 47 23 92 46 101 50 10 5 22 4 30 -3 8 -7 10 -8 6 -3 -15 20 62 43 170 52 31 2 58 6 62 8 10 7 160 -12 197 -24 19 -7 34 -16 34 -22 0 -6 -7 -8 -15 -4 -9 3 -15 0 -15 -9 0 -19 5 -19 35 1 23 15 25 15 31 0 3 -9 14 -16 23 -16 9 0 33 -16 54 -36 32 -31 35 -39 25 -53 -11 -14 -11 -14 2 -4 9 6 21 9 26 5 18 -12 77 -122 65 -122 -6 0 -11 5 -11 12 0 6 -2 9 -5 7 -2 -3 -2 -15 2 -28 4 -17 8 -20 15 -9 7 9 8 5 5 -14 -2 -15 -1 -25 3 -23 12 8 17 -27 16 -100 -1 -47 -6 -70 -15 -73 -8 -3 -9 -7 -3 -11 14 -8 -1 -77 -16 -74 -6 2 -9 -8 -6 -22 5 -31 -34 -127 -49 -118 -6 3 -7 1 -3 -5 7 -12 -33 -89 -69 -131 -79 -93 -232 -231 -282 -253 -10 -5 -36 -19 -58 -32 -39 -24 -79 -44 -140 -71 -39 -17 -175 -58 -199 -60 -11 -1 -26 -11 -35 -21 -9 -11 -24 -23 -34 -27 -10 -4 -15 -12 -11 -18 4 -8 9 -7 15 2 7 11 9 10 9 -4 0 -10 32 -48 70 -85 39 -36 70 -73 70 -81 0 -8 3 -11 7 -8 9 10 34 -14 26 -26 -3 -5 -1 -7 5 -3 6 3 30 -18 54 -46 53 -63 92 -118 83 -118 -3 0 3 -10 15 -22 29 -31 63 -105 54 -119 -4 -8 -3 -9 4 -5 8 5 10 -2 6 -24 -5 -23 -3 -30 10 -30 9 0 16 -5 16 -11 0 -5 -4 -8 -9 -5 -5 4 -7 -3 -4 -14 3 -11 9 -18 13 -15 16 10 30 -174 17 -225 -2 -8 -7 -28 -11 -45 -4 -16 -10 -37 -13 -45 -4 -8 -7 -17 -7 -20 -4 -16 -19 -29 -28 -24 -7 4 -8 2 -4 -4 8 -13 -8 -47 -37 -79 -17 -19 -23 -21 -36 -10 -14 10 -14 10 -3 -4 11 -14 7 -22 -23 -53 -33 -34 -65 -50 -49 -24 4 7 3 8 -5 4 -6 -4 -9 -11 -6 -16 3 -4 -10 -18 -29 -29 -41 -26 -53 -27 -35 -3 11 15 11 15 -1 4 -8 -7 -15 -17 -15 -23 0 -5 -4 -9 -10 -10 -5 -1 -19 -6 -29 -11 -28 -15 -176 -44 -211 -41 -82 5 -144 13 -180 22 -125 30 -304 132 -378 215 -68 76 -107 129 -100 138 3 7 1 8 -5 4 -15 -9 -64 96 -56 120 4 14 3 16 -4 5 -11 -15 -15 -10 -32 44 -16 52 -37 75 -67 75 -29 0 -63 -17 -63 -31 0 -18 -51 -90 -59 -84 -5 3 -8 -3 -7 -12 2 -10 -2 -23 -8 -30 -6 -6 -29 -34 -51 -62 -22 -27 -46 -50 -53 -51 -7 0 -11 -4 -8 -9 7 -11 -72 -84 -83 -76 -5 2 -15 -3 -22 -13 -13 -16 -12 -16 6 -3 11 8 2 -3 -20 -23 -55 -50 -235 -138 -253 -124 -10 9 -12 8 -10 -1 2 -8 -4 -15 -12 -17 -8 -1 -26 -6 -40 -10 -53 -14 -227 -22 -290 -14 -36 5 -69 10 -73 10 -5 0 -6 3 -4 8 3 4 -9 7 -26 8 -42 1 -68 9 -109 30 -18 10 -36 18 -40 19 -4 0 -17 8 -28 18 -11 9 -23 17 -26 17 -4 0 -30 24 -59 54 -62 63 -110 140 -101 162 3 8 2 13 -2 10 -5 -3 -17 22 -26 54 -21 69 -16 214 9 274 9 20 15 38 15 41 1 15 13 34 20 30 5 -3 6 3 4 13 -5 18 72 154 121 212 52 62 228 230 242 230 7 0 13 5 13 11 0 8 6 7 18 -2 15 -13 16 -12 4 3 -8 9 -11 22 -7 28 4 6 4 26 1 44 -5 25 -14 35 -39 44 -19 7 -39 12 -46 12 -7 0 -36 11 -64 24 -29 13 -63 27 -76 31 -46 14 -196 98 -227 126 -11 10 -26 19 -32 19 -7 0 -12 5 -12 11 0 5 5 7 12 3 7 -4 8 -3 4 5 -4 6 -12 9 -17 5 -13 -8 -40 16 -32 29 3 6 1 7 -5 3 -13 -8 -112 83 -112 103 0 6 -4 10 -9 7 -5 -3 -14 1 -21 9 -7 8 -10 15 -6 15 3 0 -10 21 -30 47 -32 41 -73 112 -81 138 -30 101 -45 171 -45 220 -1 91 17 189 33 179 5 -3 6 1 4 8 -7 18 68 124 84 120 7 -1 10 2 7 7 -8 13 51 54 65 45 8 -4 9 -3 5 4 -17 28 134 74 244 73 134 0 299 -39 301 -69 0 -9 3 -12 5 -6 7 18 93 -17 101 -41 4 -11 6 -23 5 -27 -1 -5 6 -8 15 -8 13 0 14 3 5 12 -37 37 34 11 79 -28 8 -8 19 -14 23 -14 4 0 21 -14 39 -30 56 -53 122 -55 148 -4 13 28 14 45 3 133 -26 219 8 403 108 578 28 48 72 109 98 136 26 26 45 47 42 47 -15 0 130 103 178 126 72 35 103 44 175 50 33 4 62 8 64 10 6 6 106 -4 156 -15z m2330 -3756 c-13 -22 -31 -56 -42 -75 -32 -60 -170 -264 -197 -292 -14 -15 -26 -30 -26 -33 0 -17 -263 -293 -373 -392 -44 -40 -59 -48 -80 -44 -5 1 -5 -3 -2 -9 4 -7 -2 -14 -14 -17 -11 -3 -18 -9 -16 -14 3 -4 -9 -16 -27 -25 -18 -9 -38 -24 -45 -33 -7 -9 -13 -12 -13 -8 0 4 -25 -11 -55 -33 -30 -22 -59 -40 -65 -40 -5 0 -10 -4 -10 -10 0 -5 -7 -10 -15 -10 -8 0 -15 -4 -15 -9 0 -15 -33 -22 -42 -9 -6 10 -8 10 -8 -2 0 -8 -10 -22 -22 -29 -58 -37 -112 -62 -125 -57 -8 3 -12 2 -9 -3 5 -8 -52 -38 -197 -105 -31 -14 -62 -26 -67 -26 -6 0 -50 -16 -99 -35 -49 -19 -99 -36 -112 -39 -13 -3 -49 -12 -79 -22 -63 -20 -63 -20 -110 -33 -92 -25 -251 -72 -304 -90 -32 -12 -63 -18 -69 -14 -6 3 -7 1 -3 -5 4 -7 1 -12 -6 -12 -7 0 -25 -6 -40 -14 -20 -11 -28 -11 -32 -3 -2 7 -5 3 -5 -7 -1 -11 -4 -17 -7 -13 -4 3 -24 -3 -46 -14 -21 -11 -44 -17 -51 -13 -7 4 -9 4 -5 -1 4 -4 -4 -14 -19 -22 -21 -11 -28 -11 -35 -1 -6 10 -8 9 -8 -3 0 -9 -19 -29 -42 -44 l-42 -28 35 49 c20 27 58 81 84 119 61 87 186 256 201 272 6 7 14 10 18 8 3 -3 4 -2 1 2 -5 6 33 61 62 91 7 8 26 30 41 50 15 20 38 49 52 63 14 15 63 67 109 117 47 50 88 89 93 86 5 -3 7 -1 6 4 -2 5 18 29 44 53 68 64 163 150 200 181 18 15 44 37 57 48 14 11 31 18 38 16 7 -3 12 0 10 6 -1 7 48 45 108 85 61 40 115 77 121 82 7 5 15 7 18 4 3 -4 6 -1 6 5 0 7 7 12 15 12 8 0 15 5 15 11 0 5 5 7 10 4 6 -3 10 -1 10 6 0 7 3 9 6 6 4 -4 19 2 33 12 39 27 163 83 188 85 11 0 19 4 17 8 -4 6 47 38 61 38 3 1 10 3 17 5 129 45 223 73 229 69 4 -2 9 0 11 6 1 5 49 21 105 35 114 28 116 28 109 17 -3 -5 1 -9 9 -9 8 0 13 5 12 11 -3 17 167 50 318 62 44 3 81 7 82 8 1 0 12 1 26 1 l24 0 -22 -40z"/>
<path d="M5021 7589 c-45 -18 -79 -50 -100 -92 -33 -70 -41 -96 -31 -102 15 -9 12 -38 -2 -29 -7 4 -5 -2 5 -13 9 -11 17 -25 17 -31 0 -6 19 -29 43 -52 23 -23 36 -39 28 -35 -10 6 -12 4 -7 -4 4 -6 16 -9 27 -6 12 4 19 2 19 -7 5 -143 -3 -375 -13 -387 -9 -12 -9 -13 1 -7 9 5 12 -9 12 -63 0 -46 -4 -71 -12 -74 -10 -4 -10 -6 0 -6 6 -1 12 -10 12 -22 0 -11 -5 -17 -10 -14 -6 4 -7 11 -4 17 4 6 3 8 -3 5 -13 -8 -86 67 -76 78 5 4 3 6 -2 2 -6 -3 -42 23 -80 58 l-69 64 17 36 c24 51 22 128 -5 177 -29 52 -72 77 -144 84 -54 5 -63 3 -106 -25 -87 -55 -114 -161 -63 -246 13 -23 21 -46 17 -50 -4 -3 0 -5 8 -3 8 2 14 -2 13 -9 -2 -7 4 -10 12 -7 11 5 14 1 9 -12 -4 -12 -3 -15 3 -7 7 9 18 9 48 -2 22 -8 52 -14 66 -15 28 0 64 -31 52 -45 -5 -4 -3 -5 3 -2 14 8 77 -56 67 -68 -5 -4 -3 -5 3 -2 6 3 36 -20 67 -52 51 -53 55 -60 42 -77 -7 -10 -19 -19 -27 -19 -7 0 -13 -4 -13 -10 0 -5 -8 -22 -18 -36 -41 -61 -48 -153 -17 -214 16 -31 17 -41 7 -54 -11 -14 -10 -15 7 -1 18 14 19 13 13 -3 -4 -10 -3 -16 2 -13 5 3 25 -7 44 -23 20 -15 50 -34 67 -41 20 -8 27 -16 20 -20 -8 -5 -7 -9 4 -13 8 -3 18 -2 21 3 4 6 11 10 16 10 6 0 8 -3 6 -7 -6 -10 130 -7 158 2 33 11 119 54 138 68 9 8 17 19 17 25 0 6 6 15 13 19 6 4 22 27 34 49 34 62 26 138 -21 210 -20 30 -40 54 -44 54 -4 0 -16 7 -26 15 -19 15 -19 16 14 50 18 19 38 31 44 28 6 -3 8 -3 4 2 -4 4 26 43 68 86 67 68 81 78 122 84 26 4 65 16 87 28 22 12 44 20 48 19 5 -1 6 2 2 8 -3 5 3 22 15 38 31 41 36 134 10 187 -11 22 -29 47 -42 55 -12 8 -35 29 -52 45 -16 17 -24 23 -18 14 16 -22 4 -30 -35 -23 -52 10 -95 -3 -143 -44 -30 -24 -47 -47 -50 -67 -9 -55 -3 -120 13 -152 17 -31 16 -33 -9 -58 -14 -14 -31 -22 -37 -19 -7 4 -9 3 -4 -1 10 -11 -33 -56 -46 -48 -6 3 -7 2 -4 -4 3 -5 -21 -38 -53 -73 l-60 -62 -2 58 c-4 141 -3 404 2 404 3 0 4 26 2 58 l-4 57 45 31 c45 32 87 101 87 143 0 15 4 20 13 15 10 -6 10 -4 0 7 -7 7 -13 20 -13 29 0 8 -7 28 -15 44 -18 34 -19 39 -3 30 7 -4 8 -3 4 5 -4 6 -11 9 -15 6 -5 -2 -19 7 -32 21 -45 49 -144 69 -208 43z m165 -1134 c23 -9 33 -19 28 -26 -4 -7 -3 -9 4 -5 16 10 48 -45 44 -77 -2 -16 -8 -25 -14 -21 -7 5 -8 2 -4 -5 9 -15 -18 -47 -55 -67 -54 -27 -201 -21 -183 8 5 7 2 8 -5 4 -14 -9 -53 22 -45 36 3 4 0 7 -7 6 -6 -2 -16 9 -21 24 -12 35 18 104 44 102 10 -1 16 3 15 10 -1 6 8 11 20 10 12 0 20 3 17 8 -9 14 125 9 162 -7z"/>
</g>
</svg>
