<?xml version="1.0" standalone="no"?>
<!DOCTYPE svg PUBLIC "-//W3C//DTD SVG 20010904//EN" "http://www.w3.org/TR/2001/REC-SVG-20010904/DTD/svg10.dtd">
<svg xmlns="http://www.w3.org/2000/svg" version="1.0" width="1024.000000pt" height="1024.000000pt" viewBox="0 0 1024.000000 1024.000000" preserveAspectRatio="xMidYMid meet">
<metadata>
Created by potrace 1.16, written by Peter Selinger 2001-2019
<meta name="Producer" content="Online-Convert"/></metadata>
<g transform="translate(0.000000,1024.000000) scale(0.100000,-0.100000)" fill="#000000" stroke="none">
<path d="M7595 7730 c-550 -59 -953 -355 -1149 -845 -48 -120 -78 -249 -96 -405 -34 -306 -95 -459 -281 -706 -110 -146 -148 -213 -156 -272 -7 -53 1 -84 33 -122 35 -41 73 -56 185 -70 104 -14 160 -37 186 -77 16 -24 18 -50 15 -216 l-3 -188 32 -30 32 -30 -9 -97 c-16 -174 -12 -301 13 -353 43 -95 127 -162 248 -196 31 -9 126 -18 250 -22 179 -6 204 -9 242 -29 91 -48 142 -185 150 -402 8 -221 -35 -343 -171 -484 -84 -87 -159 -143 -317 -237 -131 -78 -148 -93 -132 -117 5 -10 16 -18 24 -20 23 -4 255 134 360 214 110 85 163 139 215 219 113 177 133 443 52 695 -24 74 -39 101 -82 148 -63 68 -90 75 -306 83 -272 10 -367 40 -440 140 -42 59 -54 129 -41 250 6 55 11 133 11 174 0 70 -2 76 -29 101 l-30 26 6 148 c7 193 1 231 -45 282 -48 53 -95 73 -217 92 -113 18 -138 28 -153 61 -23 51 0 96 171 329 101 137 189 307 217 420 11 43 27 140 35 215 22 193 42 290 87 416 148 420 463 694 918 801 159 38 425 44 570 15 263 -54 419 -126 602 -278 380 -315 561 -808 493 -1340 -35 -267 -102 -467 -300 -883 -138 -291 -172 -409 -182 -630 -10 -223 17 -378 102 -597 40 -102 120 -271 173 -365 104 -184 292 -442 467 -641 65 -74 82 -88 104 -85 50 6 38 38 -55 144 -481 548 -748 1116 -721 1532 15 217 61 366 209 672 210 432 288 722 290 1070 1 427 -151 810 -433 1091 -171 170 -337 270 -565 342 -171 54 -398 77 -579 57z"/>
<path d="M2360 7724 c-313 -39 -605 -172 -822 -372 -389 -361 -548 -926 -422 -1500 40 -179 107 -358 229 -612 199 -414 219 -485 220 -770 0 -182 -2 -202 -29 -310 -41 -165 -95 -303 -185 -475 -131 -251 -248 -416 -508 -717 -51 -60 -93 -114 -93 -122 0 -23 28 -40 49 -30 17 8 82 77 146 155 11 13 43 51 71 84 242 285 453 644 547 932 63 194 82 305 81 488 -2 267 -43 413 -215 763 -151 307 -215 483 -255 697 -28 150 -26 471 4 612 28 128 73 268 117 358 85 175 254 378 407 488 355 253 839 329 1248 195 230 -75 458 -238 601 -428 108 -144 198 -347 232 -525 15 -75 18 -100 32 -235 7 -69 38 -191 69 -272 51 -136 108 -233 242 -408 116 -152 151 -230 124 -280 -16 -31 -41 -39 -165 -55 -218 -29 -257 -73 -270 -306 l-7 -117 -57 -11 c-79 -16 -145 -50 -149 -79 -5 -34 22 -38 97 -14 36 12 77 24 91 27 l25 6 -6 -209 c-11 -333 -26 -386 -128 -450 -69 -43 -127 -54 -331 -62 -112 -5 -212 -14 -234 -21 -54 -19 -127 -88 -158 -151 -44 -91 -62 -195 -61 -358 1 -170 21 -263 79 -369 51 -91 177 -213 316 -304 104 -68 263 -157 282 -157 4 0 15 7 23 16 25 24 10 39 -107 106 -259 149 -410 285 -471 422 -48 109 -62 301 -35 466 23 136 64 214 134 249 31 15 70 19 227 24 190 6 284 21 347 53 45 23 117 93 138 134 37 73 41 102 56 469 l6 154 104 -7 c57 -4 167 -20 244 -36 287 -61 370 -38 675 184 44 33 112 73 150 91 167 77 273 50 488 -124 145 -116 199 -148 285 -167 95 -21 180 -11 273 34 70 34 139 86 139 106 0 7 -10 18 -23 25 -20 11 -29 8 -75 -23 -109 -73 -213 -92 -322 -60 -53 16 -152 76 -179 108 -17 20 -197 149 -236 169 -47 24 -147 47 -202 47 -54 0 -174 -37 -231 -71 -20 -13 -82 -55 -137 -94 -138 -98 -190 -128 -263 -153 -69 -24 -185 -29 -262 -11 -92 21 -218 39 -324 46 l-108 6 4 123 c4 114 6 125 28 150 39 41 71 53 172 64 51 6 110 15 130 21 81 21 132 113 108 194 -19 63 -44 107 -127 217 -108 146 -114 155 -164 238 -90 149 -135 295 -159 510 -24 214 -55 326 -132 483 -68 138 -121 218 -217 325 -175 194 -416 334 -691 399 -85 20 -137 25 -275 28 -93 2 -186 1 -205 -1z"/>
</g>
</svg>
