<?xml version="1.0" standalone="no"?>
<!DOCTYPE svg PUBLIC "-//W3C//DTD SVG 20010904//EN" "http://www.w3.org/TR/2001/REC-SVG-20010904/DTD/svg10.dtd">
<svg xmlns="http://www.w3.org/2000/svg" version="1.0" width="1024.000000pt" height="1024.000000pt" viewBox="0 0 1024.000000 1024.000000" preserveAspectRatio="xMidYMid meet">
<metadata>
Created by potrace 1.16, written by Peter Selinger 2001-2019
<meta name="Producer" content="Online-Convert"/></metadata>
<g transform="translate(0.000000,1024.000000) scale(0.100000,-0.100000)" fill="#000000" stroke="none">
<path d="M5760 8029 c-98 -13 -223 -55 -334 -112 -78 -41 -120 -72 -197 -145 -150 -143 -233 -285 -328 -564 -67 -195 -171 -465 -243 -628 -77 -173 -233 -494 -250 -511 -7 -8 -20 -27 -28 -43 -29 -57 -35 -66 -42 -66 -5 0 -8 -4 -8 -10 0 -11 -86 -157 -108 -183 -8 -9 -20 -26 -26 -37 -20 -37 -150 -221 -173 -246 -13 -14 -23 -27 -23 -30 0 -2 -49 -64 -108 -137 -138 -167 -278 -315 -396 -415 -184 -158 -573 -450 -801 -602 -192 -128 -206 -136 -380 -231 -173 -94 -205 -122 -189 -166 5 -15 21 -34 35 -42 26 -14 35 -11 235 91 404 205 562 257 1119 364 270 51 430 88 575 132 94 28 280 96 318 116 17 9 34 16 37 15 6 -1 56 22 175 79 97 47 253 137 307 176 23 17 58 42 78 56 75 52 274 227 380 334 70 71 135 149 178 214 37 56 67 104 67 106 0 2 23 42 50 90 28 48 50 89 50 91 0 2 11 29 25 58 26 58 60 177 69 242 3 22 12 81 20 130 40 240 -50 522 -207 647 -126 100 -280 129 -486 93 -46 -8 -117 -17 -158 -20 -70 -6 -73 -5 -64 12 11 19 57 144 118 318 49 138 141 328 195 400 46 62 146 155 167 155 6 0 11 4 11 8 0 15 146 82 226 103 108 29 312 32 399 5 130 -39 339 -161 460 -267 73 -64 97 -74 205 -89 47 -6 100 -13 118 -16 l33 -5 -63 -46 c-35 -25 -108 -92 -164 -148 -171 -172 -184 -217 -204 -735 -6 -157 -13 -298 -15 -315 -2 -16 -6 -70 -10 -120 -18 -267 -93 -547 -215 -810 -39 -84 -145 -256 -162 -263 -5 -2 -8 -9 -8 -16 0 -37 -271 -282 -410 -370 -25 -16 -58 -38 -73 -48 -40 -28 -231 -136 -297 -169 -69 -34 -274 -97 -450 -139 -526 -124 -826 -272 -1230 -607 -126 -105 -435 -435 -549 -588 -29 -38 -58 -77 -64 -85 -7 -8 -18 -28 -26 -42 -8 -15 -22 -37 -33 -47 -10 -11 -18 -23 -18 -26 0 -4 -15 -27 -32 -53 -70 -100 -118 -199 -118 -241 0 -48 57 -82 95 -57 21 14 38 40 120 191 102 184 451 618 635 788 349 324 691 503 1155 607 55 12 147 33 205 48 58 14 125 26 150 26 l45 1 3 -65 c2 -35 -2 -118 -7 -184 -12 -143 -36 -201 -110 -267 -69 -62 -66 -60 -170 -113 -114 -58 -248 -146 -406 -266 -278 -210 -350 -266 -371 -285 -12 -11 -88 -81 -170 -155 -209 -188 -478 -464 -534 -545 -43 -63 -40 -104 10 -123 40 -15 74 6 137 84 151 184 278 317 457 474 66 58 154 136 195 173 74 68 100 87 352 273 239 177 505 326 689 389 73 25 80 25 245 19 120 -4 177 -10 193 -21 18 -11 103 -128 167 -231 44 -69 182 -204 275 -267 198 -136 403 -204 686 -230 89 -8 258 14 457 61 172 40 194 48 225 76 37 35 26 74 -55 195 -107 160 -272 336 -398 425 -192 137 -539 241 -745 224 -88 -7 -314 -48 -450 -81 -78 -19 -109 -22 -175 -16 l-80 7 75 36 c144 68 188 87 341 141 168 60 412 120 554 137 50 6 117 15 150 20 106 18 436 40 585 40 146 0 259 -7 582 -37 195 -17 208 -15 208 37 0 51 -26 69 -125 85 -49 7 -135 17 -190 21 -55 3 -116 8 -135 9 -19 2 -174 7 -345 11 -170 4 -312 9 -315 11 -19 17 37 42 200 90 302 88 451 173 640 363 141 142 180 194 259 342 40 74 100 241 120 333 48 222 39 561 -18 672 -22 44 -36 53 -85 53 -97 0 -470 -191 -641 -329 -172 -139 -338 -350 -429 -546 -47 -99 -58 -136 -96 -300 -39 -170 -47 -233 -55 -395 -8 -168 -18 -206 -62 -247 -39 -37 -79 -51 -282 -93 -279 -59 -579 -144 -698 -200 -24 -11 -46 -20 -49 -20 -4 0 -72 -30 -153 -66 -118 -54 -303 -124 -327 -124 -3 0 -2 5 1 10 8 13 7 315 -1 350 -9 41 -6 81 8 100 7 10 72 49 143 85 72 37 137 73 146 81 8 8 18 14 22 14 3 0 42 25 86 55 44 30 84 55 88 55 4 0 23 14 42 30 18 17 37 30 40 30 18 0 298 294 344 360 17 25 34 47 37 50 17 13 115 191 145 264 78 190 118 327 151 516 32 185 41 283 59 630 8 157 17 301 19 320 40 300 58 344 190 475 60 59 121 107 176 139 103 61 209 152 210 182 0 42 -22 47 -228 55 -108 4 -214 13 -234 19 -35 10 -105 57 -152 102 -48 45 -183 141 -237 168 -111 56 -212 91 -308 105 -105 16 -143 17 -241 4z m-305 -1280 c112 -36 215 -140 252 -254 38 -118 26 -333 -29 -520 -22 -77 -125 -297 -168 -360 -15 -22 -42 -65 -61 -95 -84 -135 -236 -301 -390 -427 -94 -75 -203 -153 -217 -153 -6 0 -12 -4 -14 -8 -5 -14 -237 -143 -367 -204 -205 -97 -318 -131 -731 -218 -74 -16 -178 -38 -230 -50 -52 -11 -117 -25 -145 -31 -93 -18 -270 -61 -287 -71 -10 -5 -18 -6 -18 -3 0 8 56 56 189 163 128 102 136 109 242 202 110 97 367 340 387 365 9 13 56 68 105 123 138 159 339 422 387 506 11 20 30 53 41 73 12 21 34 56 49 78 50 74 239 437 323 623 21 45 53 100 72 121 61 67 198 126 360 156 93 16 165 12 250 -16z m2569 -776 c31 -80 2 -431 -49 -603 -28 -95 -123 -310 -136 -310 -5 0 -9 -5 -9 -12 0 -27 -176 -226 -264 -297 -76 -62 -219 -149 -267 -163 -55 -17 -266 -72 -306 -81 -23 -5 -23 -4 -23 108 0 158 32 317 104 519 90 253 277 483 528 652 88 59 367 203 394 204 12 0 25 -8 28 -17z m-1504 -2268 c127 -24 258 -79 380 -160 97 -65 237 -206 306 -309 19 -28 41 -60 49 -71 9 -11 14 -29 13 -40 -3 -17 -17 -23 -98 -37 -169 -29 -382 -50 -445 -43 -101 11 -127 16 -230 44 -170 48 -321 128 -428 230 -27 25 -55 49 -62 54 -21 12 -133 164 -161 219 -14 28 -22 54 -17 58 22 20 253 64 378 73 80 6 234 -3 315 -18z"/>
</g>
</svg>
