<?xml version="1.0" standalone="no"?>
<!DOCTYPE svg PUBLIC "-//W3C//DTD SVG 20010904//EN"
 "http://www.w3.org/TR/2001/REC-SVG-20010904/DTD/svg10.dtd">
<svg version="1.0" xmlns="http://www.w3.org/2000/svg"
 width="1024.000000pt" height="1024.000000pt" viewBox="0 0 1024.000000 1024.000000"
 preserveAspectRatio="xMidYMid meet">
<metadata>
Created by potrace 1.16, written by Peter Selinger 2001-2019
</metadata>
<g transform="translate(0.000000,1024.000000) scale(0.100000,-0.100000)"
fill="#000000" stroke="none">
<path d="M3940 7639 c-85 -10 -211 -25 -280 -33 -69 -9 -226 -27 -350 -41
-124 -14 -279 -32 -345 -40 -66 -8 -219 -26 -340 -40 -121 -14 -249 -30 -285
-35 -36 -6 -141 -19 -235 -30 -249 -29 -245 -29 -245 -51 0 -29 23 -33 124
-20 50 6 147 18 216 27 69 8 167 21 217 29 51 8 109 15 128 15 35 0 35 0 20
-24 -13 -19 -16 -45 -13 -118 l3 -93 -100 -5 -100 -5 -3 -439 c-1 -307 1 -443
9 -452 9 -11 146 -13 730 -13 692 0 719 1 729 19 11 20 15 847 4 874 -5 13
-26 16 -130 16 l-124 0 0 161 0 160 -27 -3 -27 -3 -1 -155 0 -155 -454 0 -454
0 2 102 c1 56 -2 111 -8 121 -9 18 -6 20 42 25 29 3 129 15 222 26 94 12 274
32 400 46 127 14 349 39 495 56 146 16 291 32 323 36 32 3 60 10 64 16 6 10
-32 48 -46 46 -3 -1 -76 -10 -161 -20z m-172 -911 l2 -398 -680 0 -680 0 -1
28 c-3 95 -3 764 0 768 3 2 309 3 680 2 l676 -3 3 -397z"/>
<path d="M3005 6964 c-136 -34 -146 -37 -170 -66 -46 -55 -29 -95 45 -105 36
-5 40 -9 40 -33 0 -16 -20 -77 -43 -137 -57 -141 -61 -158 -41 -177 13 -14 50
-16 249 -16 l235 0 15 24 c15 23 14 29 -21 113 -62 149 -75 194 -63 210 6 7
18 13 27 13 8 0 33 8 54 17 30 14 38 22 38 44 0 34 -23 49 -126 84 -159 53
-147 51 -239 29z m191 -172 c1 -65 16 -120 72 -259 l22 -53 -206 0 -205 0 6
23 c4 12 21 51 38 87 33 73 60 207 43 214 -6 2 30 2 81 -1 l91 -6 29 30 c15
17 28 31 28 32 0 0 0 -29 1 -67z"/>
<path d="M6122 7651 c-8 -5 -12 -17 -10 -27 3 -20 80 -30 758 -103 221 -24
673 -79 915 -111 83 -11 206 -27 275 -34 69 -8 167 -20 218 -27 71 -9 96 -9
105 0 20 20 -6 46 -49 49 -21 2 -181 21 -354 43 -369 47 -510 63 -1035 124
-214 25 -484 56 -600 70 -115 14 -210 25 -210 25 0 0 -6 -4 -13 -9z"/>
<path d="M6677 7504 c-4 -4 -7 -78 -7 -165 l0 -158 -122 -3 -123 -3 0 -450 0
-450 730 0 730 0 0 450 0 450 -117 3 -118 3 0 104 c0 94 -2 105 -20 115 -28
15 -33 -2 -34 -119 l-1 -96 -437 -3 -438 -2 -2 162 c-3 138 -5 163 -18 166 -9
1 -19 0 -23 -4z m1155 -774 l3 -400 -677 -2 c-557 -3 -679 -1 -683 10 -7 19
-6 757 1 776 6 15 73 16 680 16 l674 0 2 -400z"/>
<path d="M7062 7060 c-35 -21 -53 -56 -55 -107 -2 -33 -2 -33 -53 -33 -29 0
-56 -5 -62 -12 -5 -7 -12 -51 -16 -98 -4 -47 -12 -137 -18 -202 -12 -129 -8
-164 22 -173 11 -4 149 -7 307 -7 269 -1 287 1 301 18 14 20 13 72 -9 285 -5
54 -10 114 -11 134 -2 44 -22 55 -99 55 -44 0 -49 2 -49 22 0 33 -47 106 -80
123 -43 22 -138 19 -178 -5z m160 -42 c19 -9 48 -58 48 -81 0 -16 -66 -27
-157 -27 l-53 0 0 34 c0 77 82 115 162 74z m16 -143 c29 -5 32 -9 32 -39 0
-38 19 -59 44 -50 13 5 17 17 14 48 -2 28 1 41 10 40 6 -1 27 -2 45 -2 l33 -2
13 -152 c6 -84 13 -166 15 -183 6 -57 16 -55 -274 -55 l-269 0 6 108 c3 59 11
145 17 192 l11 85 37 3 37 3 -6 -36 c-4 -26 -1 -41 12 -55 17 -19 19 -19 31
-2 7 9 14 33 14 53 0 20 2 38 4 40 8 7 138 10 174 4z"/>
<path d="M4545 7258 c-104 -37 -74 -105 50 -116 69 -6 131 13 152 45 16 25 16
26 -6 44 -44 36 -134 49 -196 27z"/>
<path d="M5580 7260 c-80 -15 -107 -62 -56 -95 39 -26 163 -31 206 -8 47 24
54 66 13 86 -35 18 -116 26 -163 17z"/>
<path d="M4250 6868 c-286 -11 -344 -18 -348 -42 -4 -18 3 -19 174 -13 884 30
1554 32 1989 6 251 -15 245 -16 245 10 0 26 -24 29 -300 41 -270 12 -1455 10
-1760 -2z"/>
<path d="M1347 6223 c-12 -11 -8 -53 6 -54 6 -1 78 -1 160 0 l147 2 0 -241 c0
-214 -2 -240 -16 -240 -9 0 -52 25 -95 55 -83 59 -94 63 -102 41 -6 -16 50
-76 110 -117 24 -17 43 -34 43 -39 0 -6 -54 -10 -130 -10 l-130 0 0 -25 0 -25
125 0 125 0 0 -65 0 -66 -79 3 c-44 1 -83 0 -86 -4 -4 -4 -4 -16 0 -27 6 -20
13 -21 176 -21 150 0 170 -2 176 -17 6 -15 7 -15 14 3 5 12 8 1 8 -33 l1 -52
-77 -3 c-71 -3 -77 -5 -78 -25 -2 -23 0 -23 134 -24 75 0 156 -1 181 -2 l45
-2 3 -57 4 -58 -60 0 c-50 0 -61 -3 -64 -17 -7 -35 11 -38 183 -35 l169 3 0
-55 0 -56 -59 0 c-50 0 -59 -3 -64 -19 -3 -11 -2 -22 1 -25 3 -3 86 -6 184 -6
l178 0 0 -55 0 -55 -89 0 c-80 0 -89 -2 -94 -20 -7 -29 12 -31 213 -28 167 3
175 4 175 23 0 18 -8 20 -77 23 l-77 3 0 69 c0 38 -2 74 -6 80 -4 6 -52 10
-116 10 l-109 0 0 64 c0 100 5 96 -126 96 l-113 0 -3 83 -3 82 -102 3 -103 3
0 79 0 79 -95 -6 c-103 -6 -124 1 -120 40 1 12 3 43 4 69 l1 47 38 -16 c20 -8
45 -22 55 -31 9 -8 25 -20 36 -26 44 -26 439 -301 571 -397 30 -22 95 -68 143
-102 48 -34 105 -74 125 -89 20 -15 63 -44 95 -64 87 -54 87 -55 87 202 0 118
3 214 6 214 14 0 53 -38 46 -46 -4 -5 -3 -6 2 -2 5 4 24 -4 42 -19 l34 -25 0
-125 c0 -104 3 -125 16 -130 27 -10 34 17 34 135 l0 112 105 0 105 0 0 30 0
30 -106 0 c-59 0 -115 5 -127 11 -19 10 -151 117 -199 161 -7 7 -21 18 -30 23
-22 14 -141 112 -353 290 -97 83 -205 172 -239 198 -33 27 -84 70 -112 95 -28
26 -69 61 -90 77 -21 17 -57 46 -79 66 -22 20 -50 41 -62 48 -24 12 -424 16
-436 4z m519 -145 c60 -51 122 -106 139 -123 l30 -30 -3 -253 -3 -252 -22 11
c-12 7 -56 37 -97 68 -41 31 -91 67 -110 79 -19 11 -47 32 -62 45 l-28 24 0
255 c0 140 3 258 7 261 18 18 50 -1 149 -85z m323 -272 c46 -39 97 -82 114
-96 17 -14 47 -41 67 -60 l38 -35 4 -230 c3 -127 4 -231 3 -232 0 -1 -32 19
-70 45 -188 129 -241 166 -255 178 -13 11 -15 50 -12 264 2 194 5 249 15 243
7 -4 50 -39 96 -77z m314 -268 c18 -12 39 -29 49 -38 9 -10 37 -34 62 -55 40
-32 44 -40 34 -54 -12 -14 -11 -15 5 -2 16 13 22 11 52 -19 l35 -34 0 -203 c0
-133 -4 -203 -10 -203 -6 0 -13 7 -16 15 -4 8 -13 15 -20 15 -24 0 -175 111
-168 122 4 6 3 8 -3 5 -5 -4 -23 4 -39 16 l-29 22 3 218 c1 119 5 217 8 217 3
0 20 -10 37 -22z"/>
<path d="M8343 6150 c-54 -44 -129 -106 -168 -137 -38 -31 -149 -122 -245
-202 -96 -79 -197 -163 -225 -185 -27 -22 -68 -56 -90 -76 -22 -19 -63 -54
-90 -77 -28 -23 -81 -68 -120 -100 -154 -129 -138 -122 -261 -125 -97 -3 -109
-5 -112 -22 -6 -30 17 -36 126 -32 l102 4 0 -113 c0 -90 3 -114 15 -118 24
-10 30 14 26 123 -3 123 -6 117 109 210 l75 60 3 -197 c2 -202 9 -237 38 -199
11 16 14 64 14 232 l0 212 108 90 107 91 8 -57 c4 -31 6 -135 4 -230 -4 -152
-6 -175 -23 -193 -20 -22 -174 -133 -222 -159 -54 -30 -92 -64 -92 -82 0 -24
23 -32 50 -18 21 11 303 206 439 302 36 26 111 78 166 115 55 37 133 92 174
121 41 29 81 50 88 48 7 -3 12 -2 10 3 -1 4 12 19 28 33 32 27 201 138 210
138 3 0 5 -37 3 -82 l-3 -83 -85 -1 c-131 -1 -120 7 -120 -79 l0 -75 -108 0
c-71 0 -112 -4 -120 -12 -7 -7 -12 -42 -12 -86 l0 -74 -87 2 c-49 1 -94 2
-100 1 -9 -1 -13 -25 -13 -82 l0 -81 -112 3 -113 4 -3 -83 -3 -82 -77 0 c-83
0 -108 -9 -99 -34 6 -14 31 -16 197 -16 l190 0 0 25 c0 25 -1 25 -80 25 l-80
0 0 55 0 55 184 0 c129 0 187 4 192 12 13 20 -28 38 -88 38 l-58 0 0 56 0 55
180 -2 c184 -3 209 2 197 35 -5 13 -23 16 -87 16 l-80 0 0 54 c0 52 2 55 28
61 16 3 95 4 176 1 144 -5 147 -4 155 17 11 28 -5 35 -76 36 l-53 1 0 50 0 50
168 0 c92 0 172 4 178 8 8 4 8 15 3 30 -9 22 -12 23 -74 17 l-65 -7 0 66 0 66
131 0 c130 0 130 0 127 23 -3 22 -5 22 -149 22 -111 0 -145 3 -142 12 3 7 43
38 89 69 82 55 109 89 83 104 -12 8 -53 -16 -177 -102 l-42 -29 2 248 3 248
80 2 c44 1 124 2 178 2 96 1 97 1 97 25 0 13 -7 27 -16 30 -9 3 -118 6 -244 6
l-228 0 -99 -80z m177 -222 c0 -134 3 -252 6 -264 5 -17 -10 -31 -88 -83 -51
-34 -126 -85 -166 -113 -46 -31 -77 -47 -83 -41 -5 5 -8 117 -7 264 2 204 6
253 16 251 8 -1 11 2 7 7 -3 6 54 57 126 116 99 79 138 105 160 105 l29 0 0
-242z m-388 -288 l-3 -269 -62 -44 c-119 -84 -230 -159 -241 -163 -8 -3 -11
63 -11 237 l0 242 39 31 c33 26 281 234 281 236 0 0 -1 -121 -3 -270z"/>
<path d="M5018 6079 c-8 -5 -13 -31 -14 -74 -1 -65 -17 -105 -29 -73 -4 10
-14 14 -25 11 -11 -3 -28 -2 -37 2 -24 11 -46 15 -39 8 3 -4 -4 -11 -16 -17
-12 -6 -25 -22 -29 -36 -7 -24 -7 -24 -8 -2 -1 12 -5 22 -11 22 -5 0 -9 -17
-7 -38 2 -34 5 -38 26 -36 16 2 25 -4 28 -17 3 -10 10 -19 15 -19 5 0 7 -4 3
-10 -8 -13 29 -47 57 -53 13 -2 1 -5 -25 -6 -89 -2 -157 -52 -123 -90 13 -14
13 -20 3 -32 -10 -12 -10 -12 3 -1 27 23 160 7 160 -20 0 -5 5 -6 10 -3 6 3
10 2 10 -4 0 -5 7 -16 15 -25 9 -9 11 -17 5 -21 -5 -3 -10 -1 -10 6 0 7 -9 9
-22 6 -23 -6 -23 -6 -3 10 16 13 17 15 3 10 -22 -8 -50 2 -42 14 3 5 -1 9 -9
9 -8 0 -17 -6 -20 -14 -3 -7 -21 -16 -40 -20 -32 -6 -61 -36 -35 -36 6 0 5 -6
-3 -17 -12 -14 -12 -15 1 -11 8 3 22 -1 31 -9 9 -7 34 -16 55 -19 71 -9 144
-27 144 -36 0 -4 3 -7 8 -6 10 3 52 -25 52 -36 0 -4 -6 -4 -12 2 -19 15 -145
3 -160 -15 -20 -24 13 -40 89 -42 37 -1 70 -4 75 -7 4 -3 8 -32 8 -65 l0 -59
-113 0 c-75 0 -117 -4 -125 -12 -16 -16 -14 -81 6 -273 l18 -160 -273 3 -273
3 0 189 c0 105 3 190 8 191 21 2 56 10 60 14 9 9 -10 24 -39 30 -29 7 -30 9
-27 53 3 43 5 47 33 53 17 4 130 7 251 8 l222 1 4 25 5 25 -251 -4 -251 -3
-240 -62 c-289 -75 -393 -101 -406 -101 -6 0 -9 7 -7 16 2 12 40 25 143 51 77
18 183 45 235 59 234 62 247 64 503 67 l242 2 3 23 4 23 -269 -3 -268 -4 -255
-66 c-140 -36 -272 -69 -292 -72 l-38 -7 0 59 c0 36 -5 64 -12 70 -7 6 -79 12
-161 13 -180 4 -177 6 -177 -114 0 -46 4 -76 9 -72 16 9 21 -11 8 -27 -7 -8
-57 -49 -112 -90 -55 -41 -119 -90 -142 -109 -123 -101 -163 -130 -173 -124
-6 4 -9 2 -8 -4 2 -6 -40 -43 -94 -83 -53 -40 -167 -127 -253 -193 -86 -66
-183 -138 -214 -160 -31 -22 -85 -62 -119 -90 l-62 -50 0 -67 c0 -41 4 -68 11
-68 5 0 7 -4 4 -10 -3 -6 1 -7 9 -4 14 5 16 -14 16 -160 l0 -166 -39 0 c-22 0
-43 4 -46 10 -6 10 -40 8 -51 -3 -20 -20 -26 7 -17 82 l5 43 69 -6 69 -7 0 26
0 26 -92 -3 -93 -3 -9 -81 -9 -81 -55 -1 c-30 -1 -58 1 -62 3 -5 3 0 38 11 77
26 102 40 231 26 245 -3 3 -42 10 -86 16 -67 9 -81 14 -81 28 0 28 16 32 126
30 65 -1 105 2 106 9 5 37 3 38 -82 47 -25 3 -47 9 -50 13 -3 5 -23 2 -45 -5
-46 -17 -60 -11 -19 7 16 7 54 31 85 55 31 23 60 39 64 35 5 -4 5 -1 0 7 -4 8
-2 16 5 21 7 5 10 15 6 25 -5 13 -12 15 -29 10 -12 -4 -34 -8 -49 -8 -16 0
-28 -4 -28 -9 0 -5 5 -6 11 -2 7 4 10 -1 7 -11 -1 -10 -9 -20 -17 -23 -8 -3
-11 0 -7 7 4 6 2 11 -3 11 -18 0 -12 29 7 38 9 5 24 7 32 5 12 -4 12 -3 2 5
-11 7 -8 15 13 38 42 44 58 72 51 89 -10 27 -34 16 -91 -40 -31 -30 -61 -55
-66 -55 -6 0 -7 -4 -4 -10 3 -6 -1 -7 -9 -4 -12 5 -16 0 -16 -17 0 -22 0 -22
-15 -3 -14 18 -21 44 -9 31 3 -3 14 3 25 14 11 11 25 17 31 13 7 -4 8 -3 4 5
-4 6 -12 8 -18 5 -7 -4 -8 -2 -4 4 4 7 9 20 11 29 7 32 30 88 38 94 5 3 1 14
-9 24 -17 17 -19 16 -48 -20 -17 -21 -36 -52 -42 -69 -11 -31 -12 -31 -24 32
-14 67 -41 99 -73 86 -16 -6 -18 -36 -4 -50 10 -10 9 -26 -1 -20 -4 2 -8 -4
-8 -14 0 -10 5 -18 10 -17 11 2 38 -102 31 -120 -2 -7 -9 -13 -14 -13 -6 0 -8
8 -4 18 3 9 3 14 -1 10 -11 -9 -46 23 -39 36 3 6 3 8 -2 4 -4 -4 -21 4 -38 18
-30 25 -67 29 -74 8 -2 -6 7 -25 21 -41 14 -17 22 -33 18 -37 -4 -4 -2 -6 4
-4 10 3 64 -48 64 -61 0 -3 15 -13 33 -21 23 -10 27 -15 15 -18 -10 -2 -25 4
-34 13 -49 48 -177 73 -161 30 3 -7 0 -18 -6 -24 -8 -8 -3 -11 20 -11 34 0 52
-14 31 -24 -7 -4 -3 -4 10 -2 12 2 22 -1 22 -7 0 -6 3 -8 6 -4 8 7 64 -20 64
-31 0 -12 -35 -30 -71 -37 -19 -3 -45 -15 -59 -25 -25 -19 -25 -19 -5 -34 11
-8 27 -13 35 -11 15 4 88 14 143 20 30 3 57 -25 57 -60 0 -15 -2 -17 -9 -6 -6
9 -10 10 -16 2 -4 -8 -35 -10 -95 -6 -74 4 -91 2 -108 -13 -20 -16 -20 -20 -7
-107 8 -49 21 -117 29 -150 8 -33 15 -63 16 -67 0 -5 -40 -8 -89 -8 -74 0 -90
-3 -95 -17 -4 -9 -3 -20 2 -25 10 -10 877 -12 893 -2 11 6 12 -160 3 -294 -7
-88 -8 -91 -34 -101 -29 -10 -32 -17 -45 -111 -9 -65 -26 -98 -53 -105 -17 -4
-22 -12 -20 -28 3 -22 3 -22 256 -25 231 -2 256 -1 295 17 23 10 87 29 142 41
138 30 307 67 390 86 39 9 93 20 120 25 28 5 97 20 155 34 58 13 229 52 381
85 l276 60 891 0 c840 0 899 -1 1028 -20 75 -11 146 -22 158 -25 11 -3 179
-30 371 -61 630 -99 882 -141 1022 -170 41 -8 53 -21 53 -55 0 -5 4 -8 9 -4 5
3 12 1 16 -5 4 -6 95 -10 249 -10 200 0 246 3 262 15 19 15 19 15 0 30 -11 8
-26 15 -33 15 -14 0 -19 17 -32 113 -10 72 -20 92 -52 102 -18 6 -19 20 -19
286 l0 279 70 0 70 0 0 -65 0 -65 -56 0 c-54 0 -55 -1 -52 -26 l3 -27 400 -1
c220 -1 408 0 418 3 10 2 17 13 17 27 0 24 -2 24 -90 24 -49 0 -90 1 -90 3 0
2 7 23 14 48 21 62 48 236 41 258 -6 20 -44 31 -109 31 -22 0 -59 6 -80 14
l-39 13 25 17 c20 13 47 16 116 15 55 -1 97 3 108 11 16 10 16 11 2 6 -16 -5
-22 6 -20 34 0 5 -12 7 -105 12 -43 2 -63 7 -63 15 0 7 -8 13 -17 13 -16 1
-16 2 2 12 11 6 55 26 99 44 43 18 82 38 86 45 20 32 -19 51 -61 29 -21 -12
-99 -21 -98 -11 1 11 61 54 75 54 8 0 12 2 9 5 -2 2 6 19 19 36 13 17 26 39
29 49 6 16 4 16 -28 3 -19 -8 -50 -26 -68 -40 -19 -14 -37 -23 -42 -18 -5 4
-5 2 -2 -5 4 -6 -4 -20 -18 -31 -14 -11 -25 -25 -25 -32 0 -6 -4 -8 -10 -5 -6
3 -7 -1 -4 -9 3 -9 1 -16 -5 -16 -6 0 -11 11 -11 25 0 14 4 25 8 25 5 0 8 10
8 22 -1 14 5 23 15 23 8 0 24 8 34 19 19 18 19 18 -3 12 -26 -9 -28 7 -11 63
6 20 14 47 18 61 5 17 3 30 -6 38 -22 21 -48 -2 -68 -62 -11 -31 -22 -56 -25
-56 -7 0 -34 61 -33 77 0 7 -3 11 -7 8 -4 -3 -13 2 -20 10 -7 8 -21 15 -31 15
-16 0 -19 -7 -17 -47 2 -56 12 -79 56 -123 25 -25 30 -35 22 -45 -11 -13 -40
-10 -38 3 2 18 -3 32 -10 29 -8 -2 -11 0 -77 58 -49 43 -65 44 -65 6 0 -35 65
-116 114 -143 17 -9 27 -17 22 -18 -5 0 -3 -7 4 -15 7 -8 16 -12 21 -9 5 3 9
0 9 -5 0 -14 -13 -14 -28 1 -8 8 -12 8 -12 1 0 -13 28 -25 41 -18 11 7 49 -12
49 -25 0 -13 -27 -8 -73 14 -26 13 -36 23 -32 34 4 12 3 13 -10 2 -8 -7 -15
-8 -15 -2 0 5 -11 13 -25 16 -14 4 -23 11 -20 16 3 6 -3 10 -14 10 -12 0 -21
5 -21 10 0 6 -6 10 -13 10 -9 0 -12 -11 -9 -36 3 -28 13 -42 46 -65 22 -16 48
-35 56 -42 9 -7 24 -14 35 -16 25 -4 58 -21 52 -27 -2 -2 -14 -1 -26 4 -22 8
-142 -1 -182 -13 -13 -4 -18 -12 -15 -21 3 -9 1 -12 -4 -9 -6 3 -10 -1 -10 -9
0 -8 5 -18 10 -21 6 -3 10 -1 10 4 0 6 5 11 11 11 5 0 8 -4 5 -9 -3 -5 1 -11
9 -14 10 -4 12 -1 8 10 -5 14 5 15 86 11 66 -3 95 -8 102 -19 20 -31 9 -35
-101 -38 -19 -1 -41 -5 -49 -10 -22 -14 -14 -138 17 -258 l18 -73 -68 0 -68 0
0 84 0 85 -52 6 c-29 4 -72 2 -95 -3 l-43 -10 0 83 c0 67 3 85 18 99 12 10 19
32 21 62 0 26 4 51 8 58 3 6 3 8 -1 5 -3 -3 -23 10 -44 30 -21 20 -49 44 -62
53 -44 30 -320 235 -480 357 -85 64 -177 133 -205 151 -27 19 -73 52 -102 75
-106 83 -189 145 -233 174 -97 66 -92 56 -93 172 l-2 104 -150 3 c-173 3 -175
2 -175 -85 0 -29 -5 -53 -10 -53 -6 0 -43 9 -83 19 -39 11 -178 43 -307 72
l-235 52 -228 6 c-214 6 -228 5 -223 -11 2 -10 -1 -18 -7 -18 -7 0 -7 -3 -1
-9 5 -5 113 -11 239 -13 l230 -4 245 -57 c135 -31 278 -64 318 -73 40 -10 80
-23 90 -30 16 -12 16 -13 0 -19 -16 -6 -101 12 -363 75 -307 75 -353 82 -563
87 l-204 6 4 -24 3 -24 200 -5 c110 -3 208 -9 218 -14 13 -6 17 -21 17 -63 0
-46 -3 -54 -17 -52 -37 3 -53 -1 -53 -16 0 -10 11 -15 35 -15 l35 0 0 -190 0
-189 -229 -3 -228 -3 3 35 c2 19 11 97 19 172 8 75 15 157 15 182 0 55 1 55
-165 59 l-120 2 -2 52 c-2 72 11 81 120 84 48 1 87 6 87 10 0 5 -5 9 -11 9 -5
0 -7 5 -4 10 4 6 11 7 17 4 7 -4 8 -2 4 5 -4 6 -11 9 -16 6 -5 -3 -11 3 -15
14 -4 14 -12 17 -27 13 -21 -5 -21 -6 -2 -13 17 -7 16 -8 -6 -8 -14 -1 -43 -4
-65 -7 -38 -6 -39 -6 -23 11 16 17 79 45 106 47 6 1 12 5 12 9 0 5 6 6 13 3 8
-3 20 2 27 10 7 9 16 13 21 10 5 -3 9 -1 9 4 0 5 11 21 25 36 28 30 33 66 10
66 -9 0 -29 -7 -45 -15 -48 -25 -34 2 19 37 54 34 86 78 63 85 -6 3 -10 9 -6
14 5 9 -32 -3 -66 -21 -16 -9 -18 -8 -13 7 9 24 40 52 49 45 3 -4 5 0 2 8 -3
8 1 21 8 28 7 7 11 19 8 27 -4 8 -1 15 5 15 29 0 -8 83 -39 87 -8 1 -26 5 -40
8 -25 6 -25 6 -5 -11 20 -16 20 -16 -2 -11 -25 6 -103 -39 -123 -70 -10 -16
-11 -16 -7 5 3 13 1 20 -5 16 -6 -4 -9 -1 -6 7 3 8 15 13 28 13 20 -2 22 0 9
10 -18 13 -14 40 4 29 9 -5 9 -3 0 8 -9 11 -7 22 6 49 9 19 15 43 13 54 -3 11
0 16 7 12 6 -4 11 -2 11 3 0 6 -4 11 -8 11 -5 0 -14 11 -20 24 -13 29 -27 28
-69 -2 -23 -16 -36 -37 -48 -77 -8 -30 -17 -55 -20 -55 -2 0 -4 15 -4 33 0 52
-4 66 -14 60 -6 -4 -8 1 -4 11 4 9 3 14 -2 11 -5 -3 -16 3 -23 13 -15 21 -60
33 -80 21z m-1363 -715 c6 -3 9 -23 7 -45 l-4 -41 -42 6 c-22 3 -76 5 -118 5
l-78 1 0 41 0 40 112 -2 c62 -1 118 -3 123 -5z m3143 -36 l-3 -41 -110 1 -110
1 -3 26 c-6 48 10 55 125 54 l104 0 -3 -41z m-2510 -308 l-3 -254 -104 -32
c-58 -18 -115 -35 -127 -38 l-22 -6 -1 173 c-1 94 2 177 6 183 5 6 23 15 41
19 32 7 46 35 16 35 -8 0 -13 4 -10 8 2 4 -8 8 -22 7 -25 0 -27 3 -30 50 l-3
51 123 35 c68 20 126 33 131 29 4 -3 6 -120 5 -260z m1807 222 c53 -15 96 -30
96 -34 -1 -5 -1 -28 -1 -53 0 -36 -3 -45 -17 -45 -10 0 -25 -5 -33 -10 -13 -9
-12 -13 9 -30 12 -11 27 -17 32 -14 5 3 9 -73 9 -180 l0 -184 -112 30 c-62 17
-124 34 -138 38 l-25 6 -3 210 c-1 115 0 231 4 257 l6 48 39 -6 c21 -4 81 -19
134 -33z m-2585 -362 l0 -360 -30 0 -30 0 0 348 c0 362 1 372 42 372 17 0 18
-20 18 -360z m3160 0 c0 -353 0 -360 -20 -360 -20 0 -20 7 -20 360 0 353 0
360 20 360 20 0 20 -7 20 -360z m118 -7 c1 -200 1 -363 -1 -363 -2 0 -18 5
-36 11 l-31 11 0 355 0 354 33 -3 32 -3 3 -362z m-3168 2 l0 -355 -31 0 -31 0
3 348 c1 191 4 350 6 355 2 4 15 7 29 7 l24 0 0 -355z m360 281 c0 -41 -2 -45
-31 -51 -38 -9 -36 -39 4 -43 l27 -3 0 -193 0 -193 -137 -37 c-76 -20 -146
-39 -155 -42 -17 -5 -18 12 -18 265 0 238 2 271 16 271 8 0 56 12 107 26 89
26 148 40 175 43 8 1 12 -14 12 -43z m2413 14 c67 -17 137 -35 155 -41 l32
-11 0 -263 0 -264 -30 4 c-16 2 -60 13 -97 23 -37 11 -99 28 -136 38 -37 9
-70 21 -73 26 -3 5 -2 92 2 193 5 137 10 185 19 185 24 0 56 34 46 49 -8 12
-15 13 -34 4 -30 -14 -37 -3 -37 53 0 24 5 34 15 34 9 0 70 -14 138 -30z
m-1009 -92 c-3 -46 -14 -142 -25 -215 -10 -72 -19 -134 -19 -137 0 -3 -90 -6
-199 -6 l-199 0 -6 48 c-3 26 -10 90 -16 142 -7 52 -15 126 -20 164 -5 39 -7
73 -4 78 3 4 115 8 250 8 l244 0 -6 -82z m-2021 -16 c-21 -19 -58 -51 -83 -71
-25 -19 -64 -53 -88 -74 -23 -21 -48 -35 -54 -31 -6 4 -8 3 -4 -4 3 -6 -21
-31 -56 -58 -35 -27 -109 -86 -166 -131 -142 -115 -183 -144 -195 -136 -5 3
-7 1 -3 -5 3 -6 -11 -21 -31 -33 -21 -13 -55 -39 -75 -57 -22 -20 -42 -31 -49
-26 -7 4 -9 3 -6 -4 4 -5 -14 -26 -40 -45 -41 -29 -56 -35 -101 -35 l-53 0 29
18 c16 10 31 23 33 28 4 8 74 61 399 304 124 93 306 235 395 308 33 27 66 47
73 45 7 -3 10 -1 7 4 -3 6 6 18 20 28 14 10 38 28 53 41 l27 22 3 -27 c3 -21
-5 -35 -35 -61z m3552 33 c22 -16 47 -36 55 -45 24 -26 148 -120 158 -120 16
0 34 -28 23 -34 -5 -3 -11 0 -14 6 -2 7 -8 10 -12 6 -4 -4 -5 -15 -1 -24 6
-15 8 -15 26 1 19 17 22 17 82 -31 35 -27 69 -54 76 -61 8 -7 35 -27 60 -45
94 -64 457 -341 474 -362 23 -27 22 -33 -2 -41 -16 -5 -56 19 -170 100 -137
98 -149 109 -139 129 9 19 9 20 -4 3 -14 -17 -24 -11 -143 85 -71 57 -157 123
-192 148 -34 25 -106 78 -160 119 -53 40 -116 87 -139 105 -38 28 -42 35 -43
75 0 37 2 42 13 30 6 -8 30 -28 52 -44z m-3520 -531 c-4 -23 -22 -43 -73 -82
-37 -28 -80 -65 -96 -81 -17 -17 -33 -31 -38 -31 -4 0 -8 105 -8 233 l0 234
28 24 c62 55 161 129 171 129 6 0 12 6 13 13 2 6 4 -82 6 -198 1 -115 0 -224
-3 -241z m3475 410 c0 -8 6 -14 13 -14 14 0 118 -77 150 -110 15 -17 17 -44
17 -251 0 -204 -2 -230 -15 -219 -8 7 -12 17 -8 23 3 6 1 7 -5 3 -8 -5 -58 29
-92 64 -3 3 -22 16 -42 30 l-38 25 0 238 c0 156 3 236 10 232 6 -3 10 -13 10
-21z m312 -231 c34 -27 74 -58 88 -71 14 -13 40 -32 58 -43 l32 -21 0 -246 0
-246 -20 22 c-12 12 -25 22 -31 22 -8 0 -150 113 -196 157 -16 15 -19 473 -3
473 5 0 38 -21 72 -47z m-4052 -190 l0 -226 -38 -36 c-102 -97 -174 -154 -186
-146 -3 3 -4 2 -1 -1 4 -7 -19 -34 -29 -34 -3 0 -6 105 -6 234 0 208 2 236 18
254 32 37 164 132 175 125 5 -3 7 -1 3 5 -6 10 38 52 55 52 5 0 9 -102 9 -227z
m1755 158 c-3 -5 5 -17 17 -25 19 -13 59 -16 243 -16 121 0 225 4 231 8 6 4
13 15 17 25 6 16 27 17 249 17 269 0 228 6 578 -90 271 -74 324 -90 333 -99 6
-6 1 -20 -12 -37 -22 -28 -30 -107 -12 -118 5 -3 47 -6 93 -7 126 -1 118 6
118 -114 0 -87 3 -104 16 -107 9 -2 65 -1 125 2 l109 5 0 -96 c0 -79 3 -98 16
-103 9 -3 58 -6 110 -6 l94 0 0 -90 0 -90 125 0 125 0 0 -109 c0 -96 2 -110
18 -114 9 -2 72 -4 140 -3 l122 1 0 -77 c0 -75 0 -76 -29 -86 -26 -9 -30 -17
-42 -82 -11 -65 -14 -71 -33 -65 -61 17 -414 77 -986 166 -113 18 -317 51
-455 73 l-250 41 -3 273 -2 272 350 0 c335 0 350 1 360 19 6 12 6 22 1 25 -6
4 -2491 9 -3069 6 -8 0 -12 -9 -10 -22 l3 -23 255 -5 255 -5 0 -265 0 -264
-35 -12 c-19 -7 -84 -22 -145 -34 -60 -12 -135 -28 -165 -36 -30 -7 -143 -32
-250 -54 -194 -41 -276 -58 -400 -86 -36 -8 -85 -19 -110 -25 -25 -5 -121 -27
-215 -48 -93 -22 -171 -38 -172 -37 -2 1 -8 38 -14 82 -12 79 -29 114 -57 114
-11 0 -13 8 -8 38 3 20 6 56 6 80 l0 42 115 0 c138 0 135 -3 135 133 l0 95
112 1 c61 1 115 4 120 7 4 3 8 41 8 84 l0 79 113 3 112 3 5 95 5 95 115 2 c63
1 120 2 127 3 9 0 13 32 15 108 l3 107 55 2 c30 1 83 2 117 2 l62 1 7 35 c4
25 0 46 -15 78 -12 24 -21 48 -21 53 0 7 249 83 563 171 52 14 621 18 612 4z
m2545 -167 c0 -8 5 -12 11 -8 6 3 23 -5 37 -18 15 -13 69 -55 120 -93 69 -52
92 -74 92 -92 0 -16 4 -21 15 -17 12 5 15 -3 15 -35 0 -23 -3 -41 -7 -41 -5 0
-9 -12 -10 -26 0 -15 -7 -31 -15 -36 -10 -8 -9 -9 5 -4 44 14 47 4 47 -180 0
-154 -2 -173 -16 -167 -13 5 -13 8 -2 15 9 7 7 8 -8 4 -21 -6 -68 23 -104 64
-11 13 -20 20 -20 17 0 -4 -13 7 -30 23 -16 16 -30 35 -30 41 0 7 -3 10 -6 6
-7 -7 -71 37 -96 67 -16 19 -18 49 -18 264 0 160 3 241 10 237 6 -3 10 -13 10
-21z m-4610 -243 l0 -239 -118 -104 c-147 -128 -171 -148 -177 -148 -3 0 -5
114 -4 254 l0 253 27 25 c48 45 250 187 256 181 3 -4 6 -1 6 5 0 7 2 12 5 12
3 0 5 -108 5 -239z m863 150 c3 -11 0 -22 -7 -24 -6 -2 -65 -3 -130 -1 l-119
4 -68 -61 c-38 -33 -69 -58 -69 -56 0 3 -15 -9 -33 -26 -69 -67 -172 -152
-180 -149 -5 1 -6 -2 -3 -7 6 -9 -64 -68 -77 -63 -4 1 -6 -3 -5 -9 2 -6 -6
-16 -17 -22 -11 -7 -56 -43 -100 -82 -44 -38 -103 -88 -130 -110 -27 -22 -69
-58 -95 -80 -107 -93 -113 -97 -123 -79 -13 22 9 68 28 60 9 -3 15 0 15 9 0
17 40 46 52 39 5 -3 7 -1 6 4 -3 11 88 101 164 162 26 21 73 61 105 88 32 28
62 51 67 50 5 0 13 7 18 16 5 9 14 14 19 10 5 -3 8 -1 7 4 -3 10 90 102 103
102 3 0 19 12 35 26 16 14 54 46 84 72 30 26 61 55 69 65 7 10 20 16 28 13 8
-3 11 -2 8 4 -3 5 11 20 32 34 36 25 44 26 174 26 127 0 137 -1 142 -19z
m3205 -18 c37 -38 129 -116 190 -162 17 -13 29 -28 25 -34 -4 -6 -1 -7 6 -2 8
4 27 -6 49 -27 21 -19 58 -51 85 -72 26 -20 47 -44 47 -52 0 -8 3 -13 8 -12
13 4 53 -23 47 -32 -3 -6 0 -7 7 -5 16 6 81 -53 73 -65 -3 -5 0 -12 6 -16 8
-4 9 -3 5 4 -15 24 10 11 48 -26 22 -20 41 -36 43 -35 1 1 21 -15 45 -35 99
-86 137 -125 133 -132 -3 -4 3 -7 13 -6 12 1 18 -8 20 -31 2 -18 0 -33 -5 -33
-7 0 -127 93 -158 123 -7 6 -39 35 -71 62 -31 28 -65 58 -73 69 -27 32 -57 63
-41 43 14 -19 14 -19 -5 -9 -11 6 -40 29 -65 51 -25 23 -48 41 -52 41 -5 0 -8
7 -8 16 0 8 -4 12 -10 9 -5 -3 -21 5 -35 19 -14 15 -30 26 -35 26 -5 0 -17 11
-28 25 -11 14 -23 25 -28 25 -4 0 -14 7 -23 15 -68 62 -97 85 -107 85 -6 0
-18 8 -25 17 -12 14 -12 16 1 9 9 -4 8 -2 -2 7 -10 8 -14 17 -10 21 4 5 0 6
-8 5 -16 -4 -123 75 -114 84 15 15 -51 24 -188 26 -60 1 -78 4 -78 15 0 22 15
24 153 25 l128 1 37 -37z m-3438 -153 c0 -57 -4 -80 -12 -82 -7 0 -52 -2 -100
-2 -101 -1 -101 -4 11 87 42 33 78 64 79 69 2 4 8 8 13 8 5 0 9 -36 9 -80z
m3374 39 c-3 -5 2 -9 10 -9 16 0 126 -99 126 -113 0 -5 -37 -7 -82 -5 l-83 3
-3 59 c-4 69 2 88 23 80 8 -3 12 -10 9 -15z m-4474 -536 l0 -383 -35 0 -35 0
0 378 c0 208 3 381 6 385 3 3 19 5 35 5 l29 -1 0 -384z m114 326 c3 -34 6
-207 6 -384 0 -299 -1 -323 -17 -327 -10 -2 -26 -2 -35 0 -17 3 -18 30 -18
381 0 208 3 381 7 384 3 4 16 7 28 7 20 0 23 -7 29 -61z m5394 -326 c2 -373 2
-383 -17 -383 -11 0 -26 -3 -35 -6 -14 -6 -16 32 -16 378 0 212 3 388 7 392 4
4 19 6 33 4 l25 -3 3 -382z m110 -6 l2 -387 -30 0 -30 0 0 384 c0 398 0 398
40 393 13 -2 15 -54 18 -390z m-6073 285 c-8 -73 -33 -190 -46 -214 -9 -16
-23 -18 -138 -18 -141 0 -131 -4 -152 65 -12 38 -39 175 -39 197 0 24 16 26
208 26 l173 0 -6 -56z m6815 22 c0 -37 -24 -168 -41 -221 l-11 -33 -132 0
-132 0 -22 108 c-22 105 -27 163 -17 174 3 3 84 6 180 6 l175 2 0 -36z m-3920
-274 l0 -250 25 0 c17 0 25 6 26 18 0 9 2 53 4 97 2 44 4 149 5 233 l0 152
345 0 345 0 2 -247 3 -248 23 -3 c16 -2 22 2 22 15 1 10 0 115 0 234 0 119 2
223 6 232 5 15 25 17 150 17 l144 0 0 -270 0 -270 -869 0 c-479 0 -871 3 -873
8 -2 4 -2 125 0 270 l3 262 319 0 320 0 0 -250z m-2303 -471 c28 -9 31 -15 37
-67 4 -31 9 -66 12 -79 l6 -23 -171 0 -171 0 6 78 c3 42 9 80 13 84 3 4 49 9
101 11 52 1 104 4 116 5 12 1 35 -3 51 -9z m5544 -25 c5 -15 12 -53 16 -85 l6
-59 -177 0 -176 0 4 23 c3 12 8 39 11 61 15 90 7 86 165 86 l140 0 11 -26z"/>
<path d="M3787 4346 c-3 -8 0 -19 7 -25 9 -7 425 -10 1357 -8 l1344 2 3 23 3
22 -1354 0 c-1164 0 -1356 -2 -1360 -14z"/>
<path d="M1417 5303 c-4 -3 -7 -12 -7 -19 0 -13 172 -158 395 -334 145 -114
283 -227 347 -281 145 -125 198 -155 198 -109 0 23 -56 72 -357 312 -133 106
-291 234 -353 283 -185 149 -192 155 -205 155 -6 0 -15 -3 -18 -7z"/>
<path d="M8728 5247 c-150 -122 -465 -378 -583 -473 -66 -54 -147 -117 -180
-142 -63 -46 -79 -69 -63 -89 7 -9 15 -10 30 -2 33 18 231 171 392 304 192
159 244 202 367 301 140 114 154 128 145 149 -9 25 -28 17 -108 -48z"/>
<path d="M1810 3685 c-8 -9 -11 -40 -8 -87 l3 -73 -100 -2 c-55 -1 -103 -2
-107 -2 -5 -1 -8 -37 -8 -81 l0 -80 -90 0 c-89 0 -90 0 -90 -25 0 -23 4 -25
43 -26 23 0 188 -1 367 -1 l325 -1 0 24 0 24 -257 3 -258 2 0 55 0 55 289 0
c302 0 301 0 301 41 0 5 -77 9 -180 9 l-180 0 -2 40 c-4 89 -5 85 27 87 17 0
99 2 183 2 l152 1 0 23 0 24 -199 1 c-163 1 -201 -1 -211 -13z"/>
<path d="M8235 3692 c-106 -1 -194 -7 -199 -12 -7 -7 -6 -10 2 -10 7 0 12 -8
12 -17 0 -16 15 -18 172 -18 l173 0 3 -57 3 -58 -179 0 c-135 0 -181 -3 -184
-12 -14 -36 -2 -38 282 -38 l278 0 4 -55 3 -55 -256 0 -256 0 4 -27 5 -28 311
2 c172 2 343 3 380 3 65 0 68 1 65 23 -3 21 -8 22 -105 25 l-102 3 -3 77 -3
77 -96 3 -96 3 -5 80 c-3 44 -9 83 -14 87 -5 4 -94 6 -199 4z"/>
</g>
</svg>
