<?xml version="1.0" standalone="no"?>
<!DOCTYPE svg PUBLIC "-//W3C//DTD SVG 20010904//EN"
 "http://www.w3.org/TR/2001/REC-SVG-20010904/DTD/svg10.dtd">
<svg version="1.0" xmlns="http://www.w3.org/2000/svg"
 width="1024.000000pt" height="1024.000000pt" viewBox="0 0 1024.000000 1024.000000"
 preserveAspectRatio="xMidYMid meet">
<metadata>
Created by potrace 1.16, written by Peter Selinger 2001-2019
</metadata>
<g transform="translate(0.000000,1024.000000) scale(0.100000,-0.100000)"
fill="#000000" stroke="none">
<path d="M1914 7748 c-50 -4 -99 -15 -128 -28 -54 -26 -135 -95 -155 -134 -11
-20 -17 -23 -24 -14 -6 10 -8 9 -4 -3 3 -9 -3 -40 -14 -70 -16 -48 -18 -88
-19 -367 0 -247 -3 -312 -12 -307 -7 4 -6 1 2 -7 18 -16 51 -114 44 -133 -3
-7 0 -16 7 -21 9 -5 11 -2 6 12 -5 13 -1 11 11 -6 9 -14 30 -38 45 -54 15 -17
25 -36 22 -44 -4 -11 -2 -12 7 -5 15 11 93 -28 81 -41 -4 -4 1 -4 11 0 11 4
17 3 14 -2 -9 -14 11 -15 452 -20 289 -4 410 -8 400 -15 -12 -9 -11 -10 6 -6
17 3 38 -11 88 -62 37 -37 63 -71 59 -75 -4 -4 -3 -6 3 -4 16 4 96 -61 88 -73
-3 -5 0 -8 8 -7 7 2 12 -4 10 -12 -2 -8 0 -12 4 -7 4 4 21 -6 38 -21 44 -41
73 -46 102 -17 26 26 27 33 27 203 l0 92 76 0 c151 0 266 52 333 151 66 96 69
125 66 496 l-3 328 -26 56 c-15 31 -43 74 -63 96 -19 22 -35 42 -33 44 1 2 0
3 -2 2 -2 -1 -21 9 -43 23 -79 50 -56 49 -748 54 -360 3 -691 2 -736 -2z m501
-119 c128 0 164 -2 159 -12 -5 -9 -4 -9 7 1 7 6 29 12 49 11 19 0 29 -3 21 -6
-10 -4 -11 -7 -1 -13 7 -5 20 -6 27 -3 12 5 12 7 1 14 -7 5 119 8 299 7 l311
-3 44 -31 c23 -17 42 -36 41 -43 -2 -6 3 -10 10 -8 6 1 11 -4 9 -11 -1 -8 2
-11 7 -8 15 10 43 -44 45 -85 0 -21 4 -39 9 -39 13 0 8 -118 -5 -124 -10 -5
-10 -7 0 -12 17 -8 17 -391 -1 -460 -14 -55 -63 -127 -80 -117 -6 3 -7 1 -3
-5 4 -7 -10 -20 -36 -34 -37 -19 -62 -23 -178 -26 -175 -5 -170 -1 -171 -146
-1 -61 -3 -103 -6 -93 -2 9 -8 17 -11 17 -18 1 -73 60 -66 71 4 8 3 9 -4 5 -7
-4 -45 25 -91 69 l-79 76 -429 2 c-396 2 -431 3 -463 21 -44 23 -101 76 -94
88 3 4 0 8 -6 8 -6 0 -18 17 -27 38 -14 32 -17 82 -17 347 -1 300 0 312 21
358 13 27 27 46 32 43 5 -3 8 2 7 11 -1 22 92 86 116 80 10 -3 16 -1 13 4 -5
7 349 19 367 11 4 -1 82 -3 173 -3z"/>
<path d="M2165 7218 c-30 -16 -45 -39 -45 -69 0 -71 89 -101 136 -45 32 36 30
61 -5 97 -31 31 -53 35 -86 17z"/>
<path d="M2518 7200 c-24 -25 -29 -36 -23 -58 10 -44 40 -67 85 -66 27 1 38
-2 33 -10 -3 -6 0 -6 7 1 14 13 18 25 27 80 4 25 0 37 -21 57 -34 35 -70 33
-108 -4z"/>
<path d="M2933 7220 c-68 -28 -52 -132 23 -146 26 -5 38 0 64 23 30 26 32 33
26 66 -10 53 -60 78 -113 57z"/>
<path d="M2325 6199 c-33 -5 -91 -18 -128 -29 -37 -12 -73 -18 -79 -14 -6 4
-8 3 -5 -3 3 -5 -11 -18 -31 -27 -20 -10 -57 -30 -82 -44 -25 -15 -52 -27 -60
-27 -8 -1 -14 -6 -13 -12 3 -11 -54 -58 -69 -58 -5 0 -8 -4 -9 -10 -2 -15 -72
-90 -81 -87 -5 1 -7 -1 -6 -5 4 -17 -33 -73 -44 -67 -6 4 -8 3 -4 -4 7 -12
-13 -64 -23 -57 -4 2 -7 -4 -8 -13 -2 -34 -61 -183 -65 -165 -3 10 -5 -2 -5
-27 0 -25 -1 -97 -3 -160 -1 -63 3 -143 9 -178 7 -34 9 -68 5 -75 -4 -6 -3 -9
1 -4 5 4 23 -33 41 -83 18 -49 50 -123 72 -164 29 -53 37 -77 29 -85 -6 -6 -7
-14 -3 -18 4 -4 10 -2 14 5 8 12 119 -125 114 -141 -1 -5 2 -6 6 -3 9 5 31
-15 47 -43 5 -9 4 -12 -3 -7 -6 3 -14 1 -18 -5 -5 -9 1 -10 19 -5 23 5 28 2
33 -19 3 -13 1 -63 -6 -110 -14 -98 0 -85 -176 -161 -141 -60 -249 -115 -346
-175 -43 -26 -78 -47 -78 -45 0 1 -21 -17 -46 -41 -26 -23 -51 -40 -57 -36 -5
3 -7 2 -4 -4 6 -10 -69 -91 -79 -85 -3 2 -9 0 -12 -4 -4 -4 -1 -4 6 0 19 11
15 3 -34 -70 -56 -83 -94 -166 -119 -256 -10 -37 -21 -66 -24 -64 -3 2 -6 -8
-7 -22 0 -15 -13 -92 -27 -172 -31 -176 -72 -559 -58 -545 2 3 12 -2 23 -9 25
-17 66 -9 82 18 7 11 21 95 30 186 28 274 49 398 95 568 7 23 15 41 19 38 4
-2 7 9 8 26 3 70 155 300 187 281 7 -3 9 -2 4 2 -11 13 23 44 41 38 10 -4 13
-2 8 5 -8 14 83 84 101 77 7 -2 12 1 10 8 -1 7 6 12 15 12 9 0 20 4 25 9 4 5
3 6 -4 2 -7 -4 -13 -5 -13 -2 0 11 101 57 111 51 5 -4 8 -2 7 4 -3 13 127 73
262 121 126 45 144 64 158 163 7 43 12 86 12 96 0 14 6 17 26 13 17 -3 33 3
50 18 39 37 31 64 -31 110 -197 145 -341 368 -390 602 -19 90 -19 245 1 328
19 81 73 202 87 193 6 -3 7 -1 3 6 -10 15 62 113 76 104 6 -3 8 -2 5 4 -12 20
134 140 154 127 7 -4 9 -3 6 3 -8 13 52 46 132 72 142 46 317 46 456 1 64 -22
110 -46 65 -35 -21 5 -22 4 -7 -5 10 -6 23 -9 30 -7 38 13 250 -152 239 -186
-1 -5 2 -6 7 -3 13 8 54 -51 45 -65 -4 -8 -3 -9 4 -5 16 10 15 -6 0 -24 -11
-12 -10 -12 4 -1 15 11 20 6 48 -49 20 -40 29 -69 25 -83 -4 -15 -3 -18 3 -9
11 16 47 -101 38 -123 -3 -8 0 -15 6 -17 20 -7 22 -250 4 -355 -36 -205 -104
-359 -204 -459 -94 -93 -149 -116 -311 -132 -72 -8 -98 -14 -108 -28 -19 -26
-16 -51 8 -75 19 -19 30 -21 100 -17 l79 5 0 -31 c0 -92 26 -142 81 -153 16
-3 26 -9 23 -14 -3 -5 2 -6 10 -3 24 9 262 -71 357 -119 116 -60 169 -95 165
-109 -1 -7 -1 -10 1 -6 2 4 11 4 19 1 7 -3 11 -10 7 -16 -3 -6 -1 -7 5 -3 7 4
28 -9 50 -31 21 -21 29 -30 17 -20 -12 9 -25 17 -29 17 -5 0 4 -10 20 -22 16
-13 32 -22 36 -21 12 4 58 -58 51 -70 -3 -7 -2 -9 2 -4 5 4 21 -12 36 -35 21
-32 25 -45 17 -55 -6 -8 -8 -17 -4 -20 4 -4 11 -2 15 6 7 10 9 10 14 -3 3 -8
1 -17 -6 -20 -7 -2 -5 -5 4 -5 20 -1 61 -91 62 -137 1 -18 4 -31 8 -29 23 15
109 -487 109 -637 0 -65 57 -99 106 -64 16 12 19 25 17 83 -6 140 -46 415 -84
566 -11 43 -17 83 -13 89 4 6 3 8 -3 5 -6 -4 -15 11 -22 37 -16 65 -103 233
-159 306 -27 36 -71 85 -98 109 -27 24 -49 49 -49 55 0 6 -7 11 -15 11 -8 0
-42 19 -75 41 -114 78 -306 164 -470 209 -68 19 -85 35 -85 81 0 28 5 34 53
58 112 54 241 202 296 340 13 31 27 54 31 51 5 -3 6 5 2 17 -4 16 -2 19 8 13
8 -5 11 -4 6 3 -4 6 2 46 13 89 31 122 41 203 42 330 0 216 -58 413 -167 566
-19 26 -32 53 -28 59 4 6 3 8 -3 5 -5 -3 -34 19 -64 49 -92 95 -230 183 -336
214 -23 7 -41 16 -39 19 2 3 -8 6 -22 7 -15 0 -65 6 -112 12 -94 13 -128 13
-215 1z"/>
<path d="M7695 6200 c-88 -10 -181 -34 -252 -65 -30 -14 -60 -22 -67 -18 -6 3
-8 2 -3 -2 9 -10 -71 -57 -84 -49 -5 3 -8 2 -7 -3 2 -5 -14 -24 -34 -42 -21
-18 -38 -30 -38 -25 0 4 -14 -11 -32 -34 -18 -23 -38 -42 -45 -42 -7 0 -12 -3
-11 -7 3 -8 -60 -103 -67 -103 -2 0 -2 8 2 18 3 9 3 14 -2 10 -4 -4 -9 -18
-10 -30 -2 -13 -19 -57 -39 -99 -75 -161 -105 -343 -87 -526 6 -61 9 -119 5
-129 -4 -13 -3 -15 3 -7 6 9 13 -8 22 -50 17 -84 57 -198 97 -278 18 -37 30
-70 26 -74 -4 -4 -2 -5 5 -3 15 4 64 -62 56 -75 -3 -6 -2 -7 4 -4 5 3 30 -14
54 -39 24 -25 61 -55 81 -66 20 -12 34 -26 31 -32 -3 -6 -3 -8 2 -4 8 7 85
-28 85 -38 0 -3 -6 -4 -12 -1 -8 3 -14 -5 -14 -19 -1 -13 2 -21 7 -18 5 3 9
-2 9 -11 0 -9 -4 -13 -10 -10 -5 3 -10 0 -10 -9 0 -8 -14 -17 -32 -22 -83 -18
-301 -95 -378 -134 -92 -46 -189 -108 -232 -147 -16 -15 -31 -22 -39 -18 -7 5
-10 4 -6 -2 7 -12 -16 -36 -26 -28 -4 3 -5 2 -2 -1 8 -12 -58 -79 -74 -76 -12
2 -13 0 -4 -6 10 -6 9 -13 -3 -30 -8 -12 -19 -20 -24 -17 -4 3 -7 -1 -6 -8 0
-6 -18 -49 -42 -95 -56 -108 -95 -227 -126 -382 -33 -162 -72 -484 -67 -547 2
-22 32 -43 61 -43 46 0 58 29 70 175 21 250 70 499 129 649 86 224 209 352
453 474 50 25 103 45 118 46 16 1 26 4 24 7 -4 8 -9 6 146 48 150 40 177 55
190 100 5 20 10 48 10 63 0 37 10 59 23 51 15 -9 85 -5 125 8 40 13 55 39 43
72 -11 28 -29 37 -75 37 -51 0 -126 12 -122 19 3 4 -12 6 -32 7 -85 0 -202 88
-277 208 -132 212 -184 547 -121 788 59 230 188 393 391 493 107 53 202 75
329 75 97 0 209 -17 201 -30 -3 -5 3 -6 13 -4 21 6 105 -30 95 -40 -4 -4 -1
-4 7 -1 18 6 126 -57 123 -72 -1 -6 5 -10 15 -9 9 0 16 -5 14 -12 -1 -6 4 -11
10 -10 7 2 12 -2 11 -9 -2 -7 3 -10 11 -7 17 6 79 -63 70 -79 -4 -7 -4 -9 1
-5 9 9 35 -9 35 -24 0 -6 -8 -4 -17 3 -16 13 -17 12 -4 -3 7 -10 17 -15 22
-13 13 8 92 -162 93 -199 1 -19 4 -32 7 -30 11 6 28 -147 23 -210 -9 -121 -56
-302 -76 -290 -7 4 -8 3 -4 -4 15 -25 -124 -249 -146 -236 -7 4 -8 2 -4 -4 8
-13 -62 -94 -75 -86 -5 3 -8 0 -7 -7 2 -7 -28 -36 -67 -66 -85 -64 -99 -92
-64 -129 18 -19 31 -24 50 -20 29 6 26 15 45 -133 8 -69 32 -93 117 -120 82
-25 219 -80 232 -94 7 -7 4 -8 -8 -4 -11 4 -16 3 -12 -4 4 -5 15 -7 26 -4 21
7 142 -52 134 -65 -3 -4 3 -7 13 -6 9 0 16 -4 15 -11 -2 -7 3 -10 10 -7 12 4
157 -91 157 -104 0 -3 -5 -1 -12 6 -7 7 -17 12 -23 12 -13 -1 25 -23 44 -26
16 -3 71 -54 71 -66 0 -5 -5 -6 -12 -2 -7 4 -8 3 -4 -5 4 -6 11 -9 15 -6 13 8
54 -42 46 -56 -5 -8 -4 -10 3 -5 22 13 94 -138 136 -284 29 -100 77 -421 92
-610 3 -47 13 -95 20 -107 18 -29 64 -30 89 -3 16 18 17 30 9 117 -5 54 -9
124 -9 156 0 31 -3 57 -6 57 -3 0 -11 48 -18 108 -44 360 -135 585 -305 751
-30 30 -53 58 -51 62 3 4 -3 13 -12 20 -12 10 -14 10 -9 2 4 -7 3 -13 -3 -13
-5 0 -13 5 -17 11 -14 23 -184 125 -319 191 -77 39 -129 67 -116 63 17 -5 21
-4 16 5 -4 7 -19 10 -33 7 -27 -5 -72 10 -72 25 0 5 -4 7 -9 3 -7 -4 -48 8
-69 21 -2 1 -9 46 -17 100 l-13 97 75 86 c179 204 268 393 294 629 17 155 -15
332 -86 471 -13 27 -22 51 -20 55 3 3 2 4 -1 1 -8 -5 -70 86 -66 98 1 5 -2 6
-7 2 -6 -3 -20 9 -33 26 -36 49 -171 146 -272 193 -136 66 -300 93 -451 76z"/>
<path d="M5017 5270 c10 -11 5 -20 -26 -46 -21 -18 -44 -47 -51 -63 -10 -25
-15 -29 -30 -21 -25 14 -126 13 -153 -1 -33 -17 -77 -60 -95 -94 -15 -26 -17
-81 -20 -455 l-3 -425 -33 61 c-73 137 -141 204 -228 223 -23 6 -44 15 -46 20
-2 6 -8 11 -13 11 -4 0 -6 -7 -3 -15 4 -10 0 -15 -15 -15 -32 0 -75 -25 -106
-62 -25 -29 -28 -30 -22 -10 3 13 3 21 -1 18 -16 -16 -11 -134 9 -200 11 -37
18 -75 15 -83 -3 -8 -2 -11 4 -8 11 7 93 -242 84 -257 -4 -6 -3 -8 4 -4 6 3
13 -6 17 -24 13 -59 114 -359 134 -399 24 -46 26 -55 9 -45 -7 4 -8 3 -4 -5 4
-6 11 -9 16 -6 11 7 42 -50 32 -60 -4 -3 -2 -5 4 -3 15 4 85 -83 77 -96 -3 -5
-1 -6 5 -2 12 7 73 -41 69 -56 -1 -6 5 -12 15 -13 25 -5 78 -47 71 -58 -3 -6
-1 -7 4 -4 6 4 46 -11 89 -32 44 -22 100 -45 126 -51 26 -7 46 -15 44 -19 -2
-3 10 -7 27 -7 18 -1 82 -5 143 -9 89 -6 126 -4 190 9 232 51 417 216 478 427
35 120 37 163 36 744 0 569 -1 580 -22 623 -11 24 -39 57 -62 74 -36 26 -48
29 -96 26 -30 -2 -62 -7 -70 -11 -12 -6 -16 4 -18 60 -4 83 -24 134 -68 172
-18 16 -28 31 -22 33 6 2 -7 5 -28 7 -75 7 -133 4 -147 -7 -10 -8 -13 -6 -14
9 -3 29 -41 86 -76 113 -47 36 -106 49 -162 36 -36 -8 -51 -8 -64 2 -13 10
-14 10 -4 -2z m173 -138 c20 -24 20 -40 20 -474 -1 -284 3 -455 9 -467 15 -28
39 -33 72 -16 l29 16 1 337 c1 185 2 346 3 357 1 11 3 34 4 51 3 46 36 76 80
72 31 -2 37 -6 34 -24 -2 -13 3 -21 12 -21 8 0 12 7 10 16 -2 9 3 1 11 -17 13
-28 15 -88 13 -416 -2 -249 0 -383 7 -384 74 -13 82 -13 92 0 8 9 13 101 15
273 2 182 7 266 15 280 7 11 13 16 13 12 0 -5 7 -1 16 7 23 23 57 19 85 -10
l24 -26 3 -526 c3 -516 -1 -626 -30 -724 -6 -21 -14 -35 -19 -33 -4 3 -5 -3
-2 -13 2 -11 -2 -26 -11 -34 -8 -9 -13 -18 -10 -20 9 -10 -62 -103 -77 -100
-8 2 -11 0 -6 -4 9 -10 -33 -55 -45 -48 -5 3 -7 0 -6 -8 2 -7 -5 -12 -14 -12
-10 1 -16 -3 -15 -9 3 -15 -98 -64 -173 -83 -50 -13 -90 -15 -175 -11 -123 7
-205 24 -183 39 9 7 5 8 -12 4 -36 -8 -172 61 -244 123 -77 68 -157 163 -151
179 3 7 1 11 -3 8 -12 -7 -44 52 -36 66 4 6 3 8 -3 5 -10 -6 -223 621 -254
746 -17 69 -3 97 49 97 30 0 45 -7 71 -34 21 -21 30 -39 26 -47 -5 -8 -4 -10
3 -5 14 8 54 -53 47 -72 -3 -7 -1 -10 5 -7 11 7 32 -29 23 -39 -3 -3 -2 -6 3
-6 12 0 59 -80 47 -80 -4 0 -3 -4 4 -8 16 -10 98 -135 95 -145 -1 -5 1 -6 5
-4 12 8 84 -38 75 -48 -4 -4 -2 -5 5 -1 15 9 154 -65 146 -77 -3 -6 -1 -7 5
-3 16 9 86 -56 117 -110 28 -48 53 -63 92 -56 30 6 40 45 24 86 -7 17 -14 40
-15 51 -2 11 -7 20 -12 20 -16 0 -74 71 -66 80 4 5 2 5 -4 2 -7 -4 -22 2 -35
12 -13 10 -66 42 -116 70 -51 29 -99 62 -108 74 -13 18 -15 89 -15 510 l0 488
25 24 c42 43 123 22 126 -32 1 -10 3 -120 5 -245 2 -173 0 -228 -9 -228 -8 0
-8 -3 -2 -8 6 -4 11 -64 11 -142 1 -139 4 -179 14 -178 19 2 30 -3 25 -11 -7
-13 58 20 67 33 4 6 8 208 8 448 0 323 3 444 12 464 25 54 111 63 148 16z"/>
<path d="M1556 3308 c-9 -12 -16 -33 -16 -46 0 -13 -3 -21 -7 -19 -5 3 -8 -50
-8 -116 0 -67 -1 -169 -3 -227 -3 -130 -2 -136 17 -137 9 -1 21 -2 26 -3 65
-13 71 10 85 292 14 275 13 278 -46 278 -23 0 -38 -7 -48 -22z"/>
<path d="M8589 3314 c-7 -9 -13 -32 -13 -52 -1 -97 26 -468 35 -484 12 -23 71
-24 93 -2 19 19 20 69 5 324 -12 209 -19 230 -73 230 -19 0 -39 -7 -47 -16z"/>
</g>
</svg>
