<?xml version="1.0" standalone="no"?>
<!DOCTYPE svg PUBLIC "-//W3C//DTD SVG 20010904//EN"
 "http://www.w3.org/TR/2001/REC-SVG-20010904/DTD/svg10.dtd">
<svg version="1.0" xmlns="http://www.w3.org/2000/svg"
 width="1024.000000pt" height="1024.000000pt" viewBox="0 0 1024.000000 1024.000000"
 preserveAspectRatio="xMidYMid meet">
<metadata>
Created by potrace 1.16, written by Peter Selinger 2001-2019
</metadata>
<g transform="translate(0.000000,1024.000000) scale(0.100000,-0.100000)"
fill="#000000" stroke="none">
<path d="M7075 8131 c-102 -5 -127 -10 -170 -32 -28 -14 -57 -24 -65 -22 -11
3 -12 2 -2 -4 9 -7 -2 -21 -39 -51 -28 -23 -56 -39 -62 -35 -5 3 -7 1 -4 -5 9
-14 -310 -295 -325 -286 -6 4 -8 3 -5 -3 4 -6 -19 -34 -51 -61 -48 -42 -61
-49 -77 -40 -18 8 -19 8 -3 -5 16 -12 9 -21 -75 -93 -51 -43 -94 -81 -97 -84
-38 -39 -93 -79 -102 -74 -6 4 -8 3 -4 -4 3 -6 -36 -47 -93 -96 -55 -48 -103
-91 -106 -96 -9 -15 -27 -12 -19 3 4 7 3 9 -2 4 -5 -5 -9 -14 -9 -20 0 -7 -6
-12 -12 -12 -7 0 -13 -4 -14 -10 -1 -18 -33 -46 -46 -40 -8 2 -12 1 -9 -3 10
-16 -303 -281 -323 -275 -13 4 -13 3 -3 -5 10 -7 4 -16 -26 -40 -21 -17 -43
-28 -47 -24 -5 4 -5 2 -1 -5 7 -13 -138 -140 -155 -135 -5 1 -8 -2 -7 -6 5
-15 -132 -133 -144 -126 -6 4 -8 3 -5 -3 9 -14 -39 -57 -53 -48 -6 4 -9 1 -8
-7 2 -7 -3 -12 -10 -10 -8 1 -11 -2 -8 -7 8 -12 -64 -72 -77 -64 -6 3 -7 1 -3
-5 8 -13 -73 -84 -87 -75 -6 3 -7 1 -3 -5 8 -13 -64 -73 -77 -65 -6 3 -7 1 -3
-5 7 -12 -70 -79 -86 -74 -5 1 -7 -1 -4 -6 8 -14 -51 -65 -65 -57 -7 5 -10 4
-5 -3 3 -6 -24 -37 -65 -72 -61 -53 -73 -59 -87 -48 -15 11 -15 11 -4 -4 11
-14 4 -24 -54 -75 -36 -32 -70 -57 -75 -56 -5 2 -9 -1 -9 -6 0 -9 -244 -231
-253 -231 -3 0 -20 -15 -39 -32 -95 -91 -151 -137 -161 -131 -5 3 -7 2 -4 -4
4 -5 -6 -20 -21 -33 -15 -13 -60 -52 -100 -87 -40 -35 -78 -60 -84 -57 -6 4
-8 3 -5 -3 4 -6 -24 -37 -61 -69 -37 -33 -76 -67 -86 -76 -10 -10 -24 -15 -29
-11 -6 3 -7 1 -3 -5 7 -12 -50 -59 -66 -54 -5 1 -7 -1 -4 -6 8 -13 -50 -65
-63 -58 -6 4 -11 1 -11 -8 0 -19 -90 -97 -103 -89 -5 3 -7 1 -4 -4 9 -14 -19
-37 -34 -27 -8 4 -9 3 -5 -5 4 -6 -6 -22 -26 -39 -18 -15 -96 -83 -173 -152
-202 -180 -251 -220 -260 -212 -5 4 -5 2 -2 -4 8 -14 -17 -37 -27 -26 -4 4 -6
2 -4 -4 4 -12 -66 -76 -76 -69 -3 3 -4 2 -2 -1 3 -3 -45 -50 -106 -104 -73
-65 -116 -97 -127 -93 -11 3 -12 2 -4 -4 14 -10 -224 -220 -244 -215 -7 2 -12
-3 -11 -10 2 -7 -3 -12 -10 -10 -8 1 -11 -1 -8 -6 7 -12 -48 -64 -65 -60 -8 2
-13 -2 -12 -8 1 -7 -35 -45 -80 -85 -144 -130 -155 -144 -177 -238 -8 -36 -10
-75 -5 -120 4 -36 8 -81 8 -99 0 -18 3 -28 7 -22 8 13 35 -67 31 -94 -1 -10 2
-16 7 -12 5 3 22 -13 37 -36 15 -22 40 -53 55 -68 16 -16 26 -31 22 -36 -4 -4
-2 -5 4 -1 5 3 23 -5 40 -19 21 -18 24 -22 9 -18 -16 5 -17 4 -5 -4 8 -6 17
-9 22 -6 4 3 15 -2 25 -10 49 -40 67 -57 54 -50 -10 5 -12 3 -7 -5 5 -7 14
-10 21 -7 7 2 26 -8 42 -22 16 -15 24 -24 19 -19 -14 10 -26 9 -26 -3 0 -5 7
-10 15 -10 8 0 15 -6 15 -12 0 -9 3 -8 10 2 7 12 13 11 34 -9 14 -13 23 -27
21 -32 -3 -4 0 -11 6 -15 8 -4 9 -3 5 4 -11 18 2 14 34 -10 25 -18 28 -24 17
-37 -10 -14 -10 -14 5 -3 16 13 57 -17 221 -164 36 -33 49 -53 25 -38 -7 4 -8
3 -4 -4 4 -6 14 -8 23 -5 12 5 15 2 10 -10 -3 -9 -3 -16 1 -15 16 5 53 -24 48
-37 -2 -7 3 -19 12 -27 16 -12 16 -11 2 7 -14 20 -14 20 7 1 13 -10 20 -23 16
-29 -3 -5 -1 -7 5 -3 13 8 51 -44 45 -64 -3 -11 -2 -12 4 -3 6 9 25 -9 62 -57
108 -142 230 -225 377 -255 40 -8 79 -18 88 -21 9 -3 16 -2 16 4 0 5 17 12 38
15 20 3 46 8 56 13 15 6 17 4 11 -6 -5 -9 -4 -11 4 -6 6 4 9 12 6 17 -4 5 -2
9 3 9 5 0 80 63 167 140 86 77 162 137 168 133 5 -3 7 -1 3 5 -7 11 159 159
174 155 6 -2 9 1 7 6 -3 14 164 162 176 154 5 -3 7 -1 4 4 -4 6 68 78 161 159
92 82 169 152 170 156 2 5 10 8 18 8 8 0 14 4 14 9 0 16 161 151 172 145 6 -4
8 -2 5 3 -9 14 262 255 276 246 5 -3 7 -1 4 4 -9 14 241 236 255 227 6 -4 8
-3 5 3 -4 6 10 26 31 43 20 18 71 63 112 100 352 316 484 429 493 423 5 -3 7
-1 3 5 -8 13 243 234 257 225 6 -3 7 -2 4 4 -7 11 165 168 185 168 7 1 12 6
11 11 -2 9 319 304 330 304 2 0 28 24 58 53 116 112 323 286 332 280 6 -3 7
-1 4 4 -9 15 61 75 76 67 7 -4 9 -4 5 1 -11 11 12 36 25 28 6 -3 7 -1 3 5 -7
12 50 59 66 54 5 -1 7 2 4 7 -6 10 136 141 153 141 6 0 11 4 11 9 0 9 35 42
259 240 41 36 80 72 87 79 8 7 18 10 24 7 6 -4 9 -1 8 7 -2 7 3 12 10 10 8 -1
11 2 8 7 -8 13 63 73 76 65 6 -4 8 -3 4 4 -7 11 130 139 145 134 5 -1 8 2 7 7
-4 13 155 151 166 144 5 -3 6 -1 3 4 -8 13 162 165 175 157 4 -3 7 -1 6 4 -2
5 54 61 123 125 162 149 174 172 173 337 -1 101 -5 127 -32 209 -17 51 -28
101 -25 110 4 12 2 13 -4 3 -7 -9 -14 -1 -26 29 -9 23 -14 46 -10 52 3 6 2 7
-4 4 -11 -7 -66 86 -58 97 3 3 2 4 -1 1 -4 -2 -29 28 -57 68 -65 95 -115 157
-192 239 -34 37 -61 69 -59 73 2 3 1 3 -2 1 -3 -3 -47 32 -97 76 -51 44 -144
115 -209 158 -64 43 -115 79 -113 82 2 2 -4 4 -13 5 -21 1 -173 69 -167 74 2
3 -4 5 -13 6 -36 2 -183 49 -176 56 4 4 5 6 3 5 -2 -1 -58 -4 -124 -7z m100
-170 c94 -20 131 -34 260 -97 70 -34 101 -64 88 -86 -2 -4 4 -5 13 -1 11 4 13
8 6 11 -7 2 -12 8 -12 13 0 6 9 5 21 -1 17 -10 18 -14 7 -28 -12 -15 -11 -16
4 -4 14 11 21 11 42 -3 14 -10 24 -20 21 -24 -2 -4 2 -8 9 -8 19 0 127 -84
120 -94 -3 -5 -2 -9 3 -8 21 4 24 -2 12 -18 -13 -16 -12 -17 3 -4 16 12 26 5
93 -59 41 -40 72 -77 68 -83 -3 -6 -1 -7 4 -4 11 7 70 -62 65 -76 -1 -5 2 -6
7 -3 12 8 42 -34 34 -47 -3 -6 -2 -7 4 -4 5 3 20 -7 32 -24 19 -26 21 -33 9
-47 -12 -16 -11 -16 6 -2 18 14 19 13 13 -3 -4 -11 -3 -16 3 -12 13 8 72 -85
65 -103 -2 -7 0 -10 5 -7 21 13 97 -183 109 -286 5 -38 5 -88 0 -115 -10 -52
-40 -101 -59 -96 -6 1 -9 -2 -6 -7 7 -11 -160 -157 -175 -153 -6 1 -8 -2 -5
-7 6 -9 -64 -71 -81 -71 -11 0 -58 139 -55 163 1 10 -2 16 -7 13 -12 -8 -23
22 -14 37 3 7 2 9 -2 5 -5 -5 -28 29 -53 75 -115 213 -318 464 -499 614 -24
19 -41 39 -38 43 3 4 -3 7 -13 6 -9 0 -16 5 -14 12 1 8 -1 11 -5 9 -12 -7 -84
49 -75 57 4 4 2 6 -3 4 -16 -5 -116 63 -109 74 3 5 0 9 -7 7 -27 -3 -40 1 -34
11 3 5 0 8 -7 5 -15 -6 -114 50 -102 57 5 3 3 3 -5 1 -13 -3 -191 64 -201 76
-3 3 -11 6 -17 7 -49 4 -49 4 -18 32 99 89 159 137 167 134 5 -1 7 2 3 7 -6
10 34 37 48 33 5 -1 6 2 3 6 -8 13 30 45 44 37 6 -3 9 -1 8 7 -2 7 5 12 14 12
10 -1 16 2 13 6 -6 10 41 28 75 29 14 0 66 -8 115 -18z m-605 -432 c0 -5 6 -6
14 -3 22 9 206 -56 206 -73 0 -9 7 -13 18 -10 23 5 202 -88 247 -128 19 -18
35 -30 35 -28 0 3 17 -7 38 -23 42 -32 104 -90 85 -80 -20 11 -15 1 9 -20 19
-15 20 -16 9 -1 -7 9 -9 17 -4 17 13 0 54 -45 48 -53 -3 -4 -2 -5 2 -2 9 7 44
-26 37 -37 -3 -4 0 -7 8 -6 7 2 12 -3 10 -10 -1 -8 2 -11 7 -7 11 6 16 1 105
-98 84 -94 166 -210 161 -225 -3 -8 0 -10 7 -6 8 5 9 1 4 -12 -4 -10 -4 -15 0
-11 15 15 143 -224 147 -273 1 -15 5 -26 8 -24 6 3 49 -121 49 -142 0 -16 -35
-45 -44 -37 -4 5 -6 1 -4 -7 2 -8 -3 -14 -10 -12 -8 1 -11 -2 -8 -7 8 -12 -53
-63 -65 -55 -5 3 -8 0 -7 -6 2 -7 -26 -37 -61 -68 l-65 -55 -19 54 c-11 30
-40 99 -64 154 -51 114 -63 152 -43 140 9 -5 11 -4 6 4 -4 6 -2 18 4 26 16 19
4 68 -21 91 -11 10 -33 17 -54 16 -37 -1 -56 15 -34 30 11 8 11 9 -3 5 -11 -4
-24 7 -42 34 -15 22 -24 44 -21 49 3 5 0 12 -6 16 -8 4 -9 3 -5 -4 4 -7 5 -12
3 -12 -3 0 -14 14 -25 32 l-20 31 20 28 c39 53 -6 125 -74 116 -20 -3 -41 0
-48 7 -6 6 -11 7 -10 1 5 -25 -2 -27 -25 -5 -13 12 -22 28 -18 34 3 6 2 8 -2
3 -10 -9 -87 62 -79 74 2 4 -5 10 -16 14 -16 5 -18 10 -10 25 17 32 11 59 -22
95 l-33 35 -47 -25 c-44 -22 -52 -23 -50 -4 1 4 -6 6 -16 5 -9 0 -16 5 -14 12
1 6 -2 11 -7 10 -5 -2 -32 11 -60 27 -39 23 -51 36 -51 55 0 14 -7 35 -15 47
-12 16 -12 22 -2 26 6 3 3 5 -8 5 -11 1 -32 4 -47 8 -19 4 -36 0 -57 -16 -21
-14 -38 -19 -52 -15 -17 6 -19 9 -8 17 11 8 10 9 -3 4 -15 -4 -173 45 -186 59
-6 6 18 35 30 35 5 0 6 -5 2 -12 -4 -7 -3 -8 5 -4 6 4 9 11 6 15 -7 12 163
163 175 156 6 -4 10 -3 9 2 -1 4 -1 10 0 13 2 10 71 -1 71 -11z m-328 -360
c60 -23 108 -45 108 -48 -1 -3 -23 -24 -50 -46 -28 -22 -71 -59 -96 -82 -26
-23 -51 -40 -57 -36 -6 3 -7 1 -4 -4 4 -6 -3 -19 -14 -29 -20 -18 -21 -18 -35
1 -8 10 -14 14 -14 9 0 -6 5 -15 11 -21 14 -14 -115 -128 -132 -117 -7 4 -9 3
-5 -4 6 -10 -234 -223 -266 -235 -10 -3 -18 -11 -18 -17 0 -6 -5 -8 -12 -4 -6
4 -8 3 -5 -4 9 -13 -51 -64 -65 -56 -6 4 -8 2 -5 -3 9 -15 -109 -117 -124
-107 -7 4 -9 3 -6 -4 9 -13 -151 -155 -165 -146 -6 4 -8 3 -5 -4 8 -12 -50
-65 -63 -57 -4 3 -14 -3 -21 -13 -13 -16 -12 -16 6 -3 11 7 3 -3 -17 -23 -24
-23 -48 -36 -65 -37 -22 0 -24 -2 -10 -8 16 -6 9 -16 -47 -65 -39 -34 -70 -54
-77 -50 -7 4 -9 3 -6 -3 8 -12 -158 -159 -174 -155 -6 1 -8 -1 -5 -6 6 -10
-54 -58 -67 -54 -5 1 -6 -2 -3 -7 7 -11 -59 -62 -69 -53 -5 4 -5 2 -2 -5 9
-14 -71 -79 -93 -75 -11 2 -12 1 -3 -6 9 -6 0 -19 -32 -45 -25 -21 -45 -33
-45 -27 0 6 -5 8 -10 5 -6 -4 -8 -11 -4 -16 7 -11 -35 -46 -49 -41 -5 1 -6 -2
-3 -7 8 -13 -21 -34 -35 -25 -7 4 -9 3 -6 -4 4 -5 -23 -37 -60 -70 -38 -32
-106 -92 -152 -133 -128 -113 -162 -139 -174 -132 -5 3 -7 2 -4 -4 9 -15 -49
-67 -65 -57 -7 4 -10 3 -5 -1 8 -9 -50 -75 -66 -75 -5 0 -18 -11 -29 -25 -11
-14 -25 -22 -31 -18 -7 3 -9 3 -5 -2 10 -10 -11 -37 -23 -29 -5 3 -9 0 -9 -6
0 -6 -5 -8 -12 -4 -6 4 -8 3 -4 -4 6 -11 -254 -242 -273 -242 -6 0 -11 -4 -11
-9 0 -9 -225 -213 -242 -220 -7 -2 -8 2 -3 9 5 9 4 11 -4 6 -6 -4 -9 -11 -6
-16 7 -11 -64 -72 -76 -64 -5 3 -8 0 -7 -8 2 -7 -3 -12 -10 -10 -8 1 -11 -2
-8 -6 3 -5 -22 -33 -56 -63 -37 -32 -63 -49 -66 -41 -2 7 -8 12 -14 12 -7 0
-6 -5 1 -14 9 -11 4 -20 -24 -45 -20 -17 -41 -28 -47 -25 -6 4 -8 3 -5 -4 8
-12 -229 -218 -246 -214 -7 2 -9 0 -4 -4 10 -11 -23 -44 -44 -44 -28 0 -89 32
-82 43 3 6 1 7 -4 4 -6 -4 -32 2 -57 14 -41 18 -45 22 -36 40 6 10 15 20 20
20 6 1 16 2 23 3 6 0 12 6 12 13 0 6 101 100 225 208 124 108 258 226 299 263
41 37 80 66 87 66 7 -1 12 3 11 10 -1 6 5 10 13 8 8 -2 12 0 8 4 -11 10 12 35
25 27 6 -3 7 -1 3 5 -8 13 28 35 39 24 5 -4 5 -2 2 5 -9 14 152 155 166 146 6
-3 7 -1 4 4 -5 8 192 193 205 193 2 0 41 36 88 80 47 44 91 78 98 75 7 -3 11
-1 8 4 -3 5 61 67 142 138 197 174 208 184 216 175 4 -4 6 -2 4 4 -4 16 260
246 274 238 6 -4 8 -3 5 3 -3 5 28 41 71 79 177 159 364 319 378 322 8 2 14 8
14 13 0 6 5 7 12 3 6 -4 8 -3 4 4 -8 13 94 103 107 95 6 -3 7 -1 4 4 -9 14 29
47 44 37 7 -4 10 -3 5 4 -7 12 73 84 86 76 5 -3 7 0 6 8 -2 7 3 12 10 10 8 -1
11 2 8 7 -3 5 14 25 38 44 34 29 46 33 57 24 11 -10 11 -9 1 4 -10 14 -6 22
32 52 24 20 47 33 51 29 5 -4 5 -2 2 4 -7 12 81 91 95 87 5 -2 7 1 5 5 -3 12
140 132 148 124 4 -4 5 -2 3 4 -5 15 297 281 314 276 5 -1 7 2 4 7 -8 12 34
42 47 34 6 -3 7 -1 4 4 -9 14 80 96 95 87 6 -4 8 -3 5 3 -8 12 56 73 76 73 6
0 60 -19 119 -41z m368 -167 c30 -20 57 -37 60 -40 8 -6 -95 -90 -104 -84 -5
3 -6 1 -3 -5 4 -6 -30 -41 -74 -79 -44 -38 -111 -95 -147 -126 -36 -31 -71
-54 -76 -51 -5 3 -6 1 -2 -5 7 -12 -50 -59 -66 -54 -5 1 -7 -2 -4 -7 3 -5 -20
-31 -52 -57 -31 -27 -59 -51 -62 -54 -40 -41 -149 -128 -155 -122 -5 4 -5 2
-2 -4 8 -15 -80 -87 -96 -78 -6 4 -9 3 -4 -1 10 -11 -43 -66 -56 -58 -6 3 -7
1 -3 -5 8 -13 -33 -44 -47 -35 -6 3 -7 1 -4 -5 9 -13 -51 -64 -65 -56 -6 4 -8
2 -5 -3 7 -12 -158 -159 -173 -156 -6 2 -9 -1 -7 -6 2 -9 -96 -101 -108 -101
-4 0 -2 6 4 13 8 10 7 14 -3 14 -8 0 -13 -7 -11 -16 3 -19 -33 -61 -52 -61 -7
0 -13 -5 -13 -10 0 -19 -64 -69 -72 -57 -5 8 -8 6 -8 -6 0 -11 -4 -15 -12 -11
-6 4 -8 3 -4 -4 7 -12 -80 -89 -96 -84 -5 1 -7 -1 -4 -6 7 -12 -47 -63 -70
-66 -11 -2 -19 -8 -19 -14 0 -17 -217 -202 -228 -195 -6 3 -7 2 -4 -4 7 -11
-187 -184 -211 -187 -9 -2 -17 -8 -17 -14 0 -6 -5 -16 -12 -23 -10 -10 -16 -9
-28 1 -12 10 -15 10 -15 -4 0 -10 5 -14 10 -11 6 3 10 3 9 -2 -1 -14 -117
-108 -129 -105 -6 1 -9 -1 -6 -6 6 -10 -74 -79 -87 -74 -4 1 -6 -2 -5 -7 4
-14 -102 -102 -114 -95 -6 4 -8 2 -5 -4 8 -12 -50 -65 -63 -57 -4 3 -13 -2
-20 -10 -7 -8 -9 -15 -4 -15 4 0 -3 -11 -16 -25 -13 -14 -26 -25 -30 -25 -4 0
-28 -20 -54 -45 -26 -25 -52 -43 -58 -39 -6 4 -8 3 -4 -4 8 -13 -72 -82 -89
-76 -7 3 -16 1 -20 -5 -4 -7 1 -8 12 -4 17 5 17 5 1 -12 -14 -15 -20 -16 -32
-5 -11 8 -16 9 -16 1 0 -6 5 -11 12 -11 6 0 1 -11 -12 -25 -12 -13 -27 -22
-32 -19 -5 3 -7 1 -6 -4 3 -9 -94 -102 -106 -102 -3 0 -3 8 1 18 3 9 3 14 -1
10 -4 -3 -9 -14 -10 -25 -2 -16 -90 -98 -326 -303 -81 -71 -96 -81 -105 -72
-5 4 -5 2 -2 -4 8 -14 -97 -107 -108 -96 -5 4 -5 2 -2 -4 6 -11 -52 -61 -66
-56 -5 1 -6 -2 -3 -7 4 -5 -14 -26 -39 -45 l-46 -35 -77 50 c-42 28 -78 52
-79 53 -4 4 160 144 169 145 4 1 27 22 50 47 23 24 47 43 55 40 7 -3 12 0 10
6 -1 7 5 12 13 13 8 0 15 5 15 12 0 10 154 149 478 431 66 57 123 100 129 96
6 -4 8 -3 5 3 -8 13 70 86 82 78 5 -2 15 3 22 13 13 16 12 16 -6 3 -11 -7 0 5
24 27 25 23 49 38 54 35 6 -3 7 -2 4 4 -6 10 245 236 269 241 8 2 14 7 14 12
0 16 162 150 173 143 5 -3 7 -1 4 4 -6 10 58 69 279 260 39 34 75 59 79 55 5
-4 5 -2 2 4 -9 15 19 38 34 28 7 -4 9 -3 6 3 -8 13 227 215 238 205 5 -4 5 -2
2 4 -4 7 14 28 41 50 26 20 63 53 83 71 20 19 42 35 50 36 22 4 40 18 34 27
-3 5 5 17 18 27 13 10 52 43 88 74 206 181 229 200 240 193 7 -4 9 -3 6 3 -4
6 10 25 31 43 20 18 59 52 86 76 27 24 53 41 58 38 5 -3 7 -2 6 3 -4 12 78 84
86 75 4 -4 6 -2 4 4 -4 14 170 166 183 159 5 -4 9 0 9 7 1 16 159 154 172 150
5 -1 7 2 3 7 -6 10 34 37 48 33 5 -1 6 2 3 7 -7 11 59 62 69 53 5 -4 5 -2 2 5
-9 15 138 139 161 136 11 -2 12 0 3 4 -9 4 0 17 30 44 51 44 58 43 139 -9z
m264 -203 c31 -28 53 -56 49 -62 -3 -5 -1 -7 4 -4 6 4 18 -2 27 -12 16 -18 11
-24 -109 -127 -69 -60 -136 -111 -147 -112 -12 -2 -17 -7 -11 -10 13 -8 -262
-248 -278 -244 -6 1 -8 -2 -5 -7 8 -13 -63 -73 -76 -65 -6 4 -8 3 -5 -3 4 -6
-8 -24 -27 -39 -90 -77 -120 -99 -128 -96 -5 1 -7 -2 -4 -7 4 -5 -6 -19 -21
-31 -16 -12 -45 -37 -66 -56 -21 -20 -42 -32 -49 -28 -6 4 -8 3 -5 -3 9 -14
-71 -86 -85 -77 -6 4 -8 3 -5 -3 4 -6 -21 -35 -56 -64 -34 -29 -88 -78 -119
-107 -31 -30 -61 -51 -66 -48 -5 3 -16 -2 -23 -12 -13 -16 -12 -16 6 -2 11 8
4 -3 -14 -23 -19 -20 -44 -37 -55 -37 -10 0 -16 -3 -13 -7 10 -9 -24 -44 -36
-36 -6 3 -7 1 -3 -6 4 -6 1 -14 -7 -17 -8 -3 -37 -27 -66 -55 -28 -27 -57 -48
-63 -47 -7 2 -12 -2 -11 -9 3 -15 -72 -75 -81 -65 -4 4 -6 2 -4 -4 2 -6 -22
-33 -52 -60 -131 -118 -200 -176 -212 -178 -21 -3 -39 -17 -33 -25 7 -12 -42
-54 -54 -46 -6 3 -11 0 -11 -9 0 -19 -80 -87 -93 -79 -6 3 -7 1 -3 -5 8 -13
-73 -84 -87 -75 -6 3 -7 1 -4 -4 4 -6 -21 -34 -56 -64 -34 -29 -73 -63 -86
-76 -13 -12 -27 -20 -32 -17 -5 3 -8 1 -7 -5 4 -14 -163 -161 -175 -154 -6 3
-7 1 -4 -4 8 -13 -77 -85 -88 -75 -5 4 -5 2 -2 -5 9 -15 -61 -73 -88 -73 -15
0 -16 -3 -7 -9 10 -6 6 -15 -18 -35 -17 -14 -37 -23 -42 -20 -6 4 -8 2 -4 -4
8 -13 -94 -103 -107 -95 -6 3 -7 2 -4 -4 4 -6 -55 -63 -131 -129 -75 -65 -174
-151 -219 -192 -45 -41 -84 -73 -87 -73 -3 0 -25 -20 -48 -45 -24 -26 -47 -43
-55 -40 -8 3 -12 2 -9 -3 3 -4 -8 -21 -24 -36 -17 -16 -30 -25 -30 -22 0 4
-14 -8 -31 -28 -17 -19 -35 -32 -40 -29 -5 3 -8 1 -7 -4 4 -12 -164 -162 -174
-156 -4 3 -8 15 -8 26 0 12 -3 18 -7 15 -9 -10 -44 24 -36 36 3 5 2 7 -4 4 -5
-3 -31 15 -57 42 l-47 48 72 61 c40 34 77 58 82 55 6 -3 7 -2 4 4 -7 11 340
318 360 318 7 0 13 5 13 10 1 18 64 76 77 71 7 -3 13 1 13 8 0 17 157 152 171
148 6 -1 8 2 5 6 -8 14 31 45 45 36 7 -4 10 -3 6 3 -9 15 165 171 185 165 5
-1 7 1 4 6 -2 4 24 34 59 65 36 32 67 53 70 47 4 -6 11 -7 17 -4 7 4 6 9 -2
14 -7 4 18 33 70 79 45 39 86 68 92 65 6 -4 8 -3 4 4 -8 13 73 84 87 75 6 -3
7 -1 3 5 -8 13 73 84 87 75 6 -3 7 -1 4 4 -4 6 15 28 41 49 26 21 68 58 94 82
29 27 52 41 59 36 7 -4 9 -3 6 3 -9 14 71 86 85 77 6 -4 8 -3 4 4 -3 6 19 32
51 59 31 26 67 58 81 70 13 12 31 19 40 16 13 -4 14 -3 4 5 -10 7 -7 13 15 28
15 10 33 17 38 15 6 -1 7 1 3 5 -11 10 12 35 25 27 5 -3 7 -1 3 5 -3 6 3 17
14 25 11 8 40 32 63 53 72 67 120 103 129 98 5 -3 7 0 6 8 -2 7 3 12 10 10 8
-1 11 2 8 7 -8 12 64 72 77 64 6 -3 7 -1 4 4 -8 13 132 135 145 127 4 -3 8 2
8 10 0 21 69 75 89 69 12 -4 13 -3 2 5 -10 7 -4 17 29 43 24 19 47 33 52 31 5
-1 7 2 4 7 -8 12 34 42 47 34 6 -3 7 -1 4 4 -4 6 10 26 31 44 84 75 146 124
154 122 4 -2 7 1 5 7 -3 12 202 190 216 187 6 -1 11 3 12 9 0 12 7 19 96 96
37 32 69 54 73 51 3 -3 6 0 6 8 0 16 138 135 151 132 5 -2 8 1 6 5 -3 13 110
113 124 110 7 -2 13 3 14 10 0 15 95 101 112 102 6 0 36 -23 67 -51z m270
-303 c31 -47 56 -89 56 -95 0 -16 -92 -91 -103 -84 -5 3 -7 1 -4 -4 4 -6 -37
-49 -91 -96 -53 -46 -153 -134 -222 -195 -68 -61 -128 -108 -134 -105 -5 3 -6
2 -3 -4 4 -6 -17 -30 -46 -54 -28 -24 -107 -95 -176 -156 -68 -62 -128 -110
-133 -107 -4 3 -7 1 -6 -5 4 -14 -264 -251 -275 -244 -6 3 -7 1 -3 -5 7 -12
-63 -74 -76 -66 -5 3 -7 0 -6 -8 2 -7 -3 -12 -10 -10 -8 1 -11 -2 -8 -7 8 -12
-143 -143 -156 -135 -6 4 -8 3 -5 -3 8 -13 -181 -185 -195 -177 -6 4 -8 3 -5
-3 4 -6 -11 -27 -34 -48 -35 -31 -43 -34 -57 -23 -15 11 -15 11 -5 -3 11 -13
1 -26 -67 -88 -48 -43 -85 -69 -91 -65 -7 4 -9 3 -5 -4 7 -12 -141 -149 -156
-144 -5 1 -7 -2 -4 -7 6 -9 -43 -47 -57 -43 -4 1 -6 -4 -5 -10 2 -7 -3 -12
-10 -10 -8 1 -11 -2 -8 -7 7 -10 -191 -187 -205 -183 -6 1 -8 -1 -5 -6 6 -10
-74 -79 -87 -74 -5 1 -6 -1 -3 -6 8 -13 -53 -64 -66 -56 -6 4 -8 3 -4 -4 8
-14 -181 -185 -196 -176 -6 4 -8 3 -5 -3 9 -15 -69 -87 -85 -78 -7 5 -10 4 -5
0 11 -13 -43 -64 -62 -58 -12 4 -13 3 -3 -5 11 -7 7 -14 -16 -30 -16 -12 -32
-18 -36 -14 -4 4 -6 0 -4 -8 2 -8 -3 -14 -10 -12 -8 1 -11 -2 -8 -7 8 -13 -53
-63 -66 -55 -6 4 -8 2 -4 -4 8 -13 -113 -124 -127 -115 -6 3 -7 1 -4 -4 7 -12
-91 -100 -105 -95 -5 1 -7 -1 -4 -6 7 -12 -47 -63 -70 -67 -11 -1 -18 -7 -17
-13 1 -5 -17 -27 -40 -48 -23 -21 -73 -66 -111 -101 -37 -35 -73 -60 -79 -56
-5 3 -7 1 -3 -5 8 -13 -73 -83 -88 -75 -6 3 -8 2 -3 -2 7 -8 -30 -55 -44 -55
-14 0 -133 175 -131 195 1 14 -1 16 -7 6 -7 -10 -10 -10 -16 -1 -9 14 14 32
29 23 5 -3 6 -1 3 5 -4 5 36 49 90 96 81 72 99 84 112 73 14 -10 14 -10 3 4
-10 14 -6 22 29 53 23 19 46 33 52 29 5 -3 7 -1 4 4 -4 6 25 39 64 73 222 198
261 229 277 224 13 -5 14 -4 3 4 -10 7 -4 17 29 43 24 19 47 33 52 31 5 -1 7
2 4 7 -7 11 99 103 109 93 3 -4 5 -2 3 4 -2 6 62 69 142 140 80 71 156 139
169 151 14 12 29 19 34 16 6 -3 7 -1 3 5 -9 15 63 72 83 65 12 -4 13 -2 3 4
-9 7 4 24 50 63 35 30 74 64 87 77 13 12 28 20 34 16 5 -3 7 -2 4 4 -7 11 157
154 182 157 9 2 16 8 16 14 0 14 14 27 28 27 7 0 12 6 12 12 0 17 204 195 216
188 5 -4 9 0 9 8 0 8 26 36 58 63 31 27 68 59 81 71 14 12 29 19 34 16 6 -3 7
-1 4 4 -4 6 37 48 90 94 54 46 121 106 150 132 32 30 57 46 64 41 7 -4 9 -3 6
3 -9 14 312 295 326 286 5 -3 7 -2 4 4 -6 9 25 39 154 151 20 17 40 28 44 24
5 -4 5 -2 2 4 -6 11 52 61 66 56 5 -1 6 2 3 6 -8 14 31 45 45 36 7 -4 10 -3 6
3 -7 11 26 46 35 37 3 -3 9 0 14 7 5 8 3 10 -7 4 -20 -11 -10 -2 134 124 75
66 132 109 139 105 6 -4 8 -3 5 3 -9 15 139 146 154 137 7 -4 9 -3 5 4 -6 10
188 191 205 192 4 0 32 -38 63 -84z m167 -293 c41 -92 99 -245 98 -261 0 -14
-2 -13 -9 3 -8 19 -9 19 -9 -2 -1 -14 5 -23 14 -23 8 0 15 -4 15 -8 0 -21
-279 -264 -293 -255 -5 3 -7 2 -4 -4 9 -14 -140 -146 -154 -137 -7 4 -9 3 -6
-3 4 -6 -29 -43 -72 -82 -50 -45 -81 -66 -84 -59 -3 8 -6 5 -6 -5 -1 -12 -6
-16 -13 -11 -7 4 -10 3 -5 -1 9 -11 -33 -56 -45 -49 -5 3 -7 1 -6 -4 2 -5 -19
-29 -47 -54 -410 -369 -727 -648 -737 -646 -7 2 -12 -2 -11 -9 2 -6 -46 -54
-105 -106 -59 -52 -161 -142 -227 -200 -65 -58 -124 -103 -129 -100 -5 3 -6 1
-3 -4 8 -13 -17 -36 -28 -25 -5 4 -5 2 -2 -4 8 -14 -57 -66 -68 -56 -5 4 -5 2
-2 -4 6 -11 -629 -581 -644 -577 -5 2 -9 -3 -9 -10 0 -7 -12 -24 -27 -37 -90
-77 -187 -161 -248 -216 -259 -233 -308 -273 -317 -268 -6 4 -8 3 -5 -3 4 -6
-5 -20 -18 -33 -21 -20 -27 -21 -42 -9 -16 12 -17 12 -5 -2 10 -13 10 -18 -1
-28 -8 -6 -17 -9 -20 -6 -4 3 -5 2 -2 -2 7 -9 -36 -53 -47 -47 -5 3 -7 1 -6
-4 2 -5 -21 -30 -49 -56 -29 -27 -53 -46 -53 -44 0 2 -29 -25 -65 -59 -45 -43
-71 -61 -83 -57 -12 4 -13 3 -4 -3 10 -8 10 -12 -2 -22 -18 -15 -40 -5 -32 16
3 8 2 12 -3 9 -11 -7 -23 37 -15 57 3 9 -4 25 -15 36 -26 26 -82 136 -74 145
4 3 2 6 -4 6 -27 0 -21 33 10 58 17 15 55 48 83 74 28 26 54 45 59 40 5 -4 5
-2 2 4 -8 13 62 70 80 66 6 -1 14 2 18 8 4 6 -1 7 -12 3 -16 -5 -16 -4 2 14
67 68 159 142 168 136 7 -3 9 -3 5 2 -11 11 12 36 25 28 6 -3 7 -1 3 5 -4 6 6
19 21 29 15 10 36 28 46 41 10 12 23 19 29 16 6 -4 8 -3 5 3 -7 11 132 140
146 135 5 -1 6 2 3 7 -6 9 64 68 76 63 5 -1 7 2 5 7 -3 14 164 162 176 154 5
-3 7 -2 4 4 -8 13 58 77 72 69 6 -4 11 -1 11 8 0 19 110 117 123 109 6 -3 7
-1 4 4 -8 13 117 125 127 115 4 -4 6 -2 4 4 -1 5 67 73 152 149 85 76 183 165
218 197 35 32 68 55 74 52 6 -4 8 -3 5 3 -9 14 70 86 85 77 6 -4 8 -3 5 4 -8
12 81 94 94 86 5 -3 8 -1 7 5 -4 15 173 172 185 164 6 -3 7 -1 4 5 -8 12 87
95 97 84 4 -4 6 -2 4 4 -1 6 56 65 127 130 209 191 272 244 280 236 5 -4 5 -2
1 5 -7 12 31 40 47 35 5 -1 6 2 3 7 -7 11 112 117 126 113 5 -1 7 2 4 6 -8 14
31 45 45 36 7 -4 10 -3 5 4 -10 16 391 372 412 365 13 -4 14 -3 4 5 -11 7 -5
16 24 40 21 17 42 28 47 25 6 -3 7 -2 4 4 -4 5 6 20 21 33 15 13 54 47 86 76
32 30 63 51 69 47 6 -3 7 -1 4 4 -8 13 57 65 68 55 3 -4 5 -1 3 6 -2 9 85 99
99 102 1 0 12 -21 24 -47z m-4980 -2394 c27 -12 46 -26 42 -32 -3 -5 -1 -7 5
-3 6 3 27 -1 46 -11 29 -13 36 -22 36 -45 0 -17 -4 -27 -10 -23 -6 3 -1 -9 10
-28 29 -49 60 -61 110 -41 22 9 40 20 40 25 0 5 7 6 15 3 8 -4 15 -12 15 -20
0 -8 6 -11 17 -7 12 5 14 3 8 -7 -5 -8 -4 -11 3 -6 6 3 27 -3 46 -15 37 -22
48 -36 20 -25 -14 5 -15 4 -5 -8 9 -11 9 -15 -1 -20 -7 -3 -1 -3 14 -1 20 2
25 0 21 -11 -3 -8 -8 -12 -12 -10 -4 3 -6 -8 -5 -23 2 -35 31 -81 51 -81 8 0
12 -4 9 -9 -3 -5 3 -11 14 -14 11 -3 18 0 17 5 -1 6 17 17 40 26 41 16 43 15
67 -7 14 -13 23 -29 19 -35 -3 -6 -2 -8 2 -3 12 11 105 -83 98 -99 -3 -8 -9
-11 -14 -8 -5 3 -6 -1 -3 -9 3 -8 1 -18 -5 -22 -25 -15 -3 -91 33 -117 15 -11
95 -5 93 6 -1 6 5 11 14 13 20 5 93 -82 83 -98 -4 -7 -3 -9 3 -6 6 4 27 -18
46 -47 35 -52 35 -55 17 -71 -27 -24 -34 -63 -15 -91 8 -13 12 -24 8 -24 -5 0
5 -7 21 -15 15 -8 37 -15 47 -15 11 0 19 -5 19 -11 0 -5 5 -7 10 -4 6 4 7 11
4 17 -4 6 -1 8 7 6 8 -3 13 -11 12 -17 -2 -6 1 -11 6 -11 5 0 14 -14 20 -31
14 -40 14 -42 -1 -33 -7 4 -8 3 -4 -5 4 -6 11 -9 15 -7 14 9 64 -117 63 -159
0 -28 2 -34 7 -20 7 17 8 16 13 -8 4 -21 0 -32 -21 -48 -14 -11 -63 -55 -110
-97 -127 -116 -133 -121 -150 -115 -12 4 -13 3 -3 -4 10 -8 10 -12 -2 -22 -8
-7 -21 -9 -27 -5 -8 4 -9 3 -5 -4 4 -7 3 -12 -1 -12 -12 0 -48 100 -46 125 1
11 -1 14 -4 7 -2 -7 -22 24 -44 69 -21 44 -36 86 -32 92 3 7 3 9 -2 5 -11 -11
-47 50 -39 65 4 7 4 9 -1 5 -4 -4 -31 30 -59 75 -28 45 -72 109 -96 142 -25
33 -45 67 -45 75 0 8 -5 15 -12 15 -17 0 -84 81 -75 90 4 5 2 5 -4 2 -12 -7
-81 62 -76 76 1 5 -2 6 -7 3 -5 -4 -11 -3 -13 1 -1 5 -32 35 -68 67 -36 33
-65 64 -65 70 -1 6 -6 10 -13 9 -6 -2 -44 22 -83 52 -39 30 -75 55 -81 55 -5
0 -7 4 -4 8 3 5 0 9 -7 9 -7 0 -25 8 -40 18 -22 14 -25 20 -15 27 10 7 8 8 -4
4 -11 -3 -49 13 -95 41 -43 25 -106 59 -141 75 -36 18 -59 34 -55 40 3 7 1 8
-5 4 -6 -4 -26 1 -44 10 l-33 17 49 43 c27 24 54 42 60 41 6 -1 10 3 9 10 -3
12 203 193 219 193 5 0 31 -10 59 -21z m-491 -443 c0 23 42 22 93 -3 121 -60
247 -136 240 -146 -3 -6 -1 -7 5 -3 15 9 62 -22 63 -43 0 -11 2 -12 6 -3 4 10
8 10 18 2 8 -6 12 -17 9 -25 -3 -7 -1 -16 5 -20 7 -3 8 0 5 9 -3 9 -2 16 3 16
11 0 133 -88 133 -96 0 -3 -4 -3 -9 1 -5 3 -12 1 -16 -4 -3 -6 5 -8 19 -5 19
3 45 -17 142 -111 99 -95 116 -117 104 -126 -13 -9 -13 -10 2 -5 20 6 82 -59
72 -76 -4 -6 -3 -8 4 -4 13 8 44 -33 35 -47 -3 -6 -1 -7 5 -3 12 7 58 -62 54
-81 -1 -7 7 -18 18 -25 12 -7 43 -49 69 -93 51 -87 67 -120 51 -110 -6 3 -10
-1 -10 -10 0 -11 5 -15 14 -12 9 4 20 -7 31 -30 14 -30 15 -37 4 -45 -11 -8
-10 -9 4 -4 9 3 17 4 17 3 0 -1 9 -27 20 -57 14 -38 16 -49 6 -36 -14 18 -15
18 -13 -3 1 -13 8 -21 19 -21 10 0 18 -4 18 -9 0 -5 3 -18 6 -28 3 -11 -1 -8
-11 7 -14 22 -16 22 -12 4 4 -19 2 -20 -39 -11 -24 6 -41 15 -37 20 3 6 1 7
-5 4 -5 -4 -18 -4 -27 -1 -13 6 -14 9 -3 16 9 7 7 8 -8 3 -23 -6 -78 30 -69
46 4 5 0 6 -8 3 -18 -7 -87 82 -80 104 3 11 2 13 -4 5 -6 -8 -32 17 -85 80
-42 51 -93 107 -112 126 -19 19 -32 39 -29 44 3 6 2 7 -4 4 -6 -4 -21 5 -34
19 -13 15 -70 65 -127 112 -75 62 -99 88 -90 95 9 6 7 7 -6 3 -13 -4 -28 2
-45 17 -14 13 -78 61 -141 107 -63 46 -141 106 -174 134 -61 52 -111 120 -101
136 4 6 2 10 -4 10 -24 0 -42 139 -25 192 7 23 7 22 20 -7 7 -16 13 -25 14
-19z"/>
</g>
</svg>
