<?xml version="1.0" standalone="no"?>
<!DOCTYPE svg PUBLIC "-//W3C//DTD SVG 20010904//EN"
 "http://www.w3.org/TR/2001/REC-SVG-20010904/DTD/svg10.dtd">
<svg version="1.0" xmlns="http://www.w3.org/2000/svg"
 width="1024.000000pt" height="1024.000000pt" viewBox="0 0 1024.000000 1024.000000"
 preserveAspectRatio="xMidYMid meet">
<metadata>
Created by potrace 1.16, written by Peter Selinger 2001-2019
</metadata>
<g transform="translate(0.000000,1024.000000) scale(0.100000,-0.100000)"
fill="#000000" stroke="none">
<path d="M3165 7478 c-81 -8 -208 -44 -280 -81 -124 -62 -249 -168 -329 -277
-24 -33 -46 -57 -50 -55 -3 3 -4 2 -1 -1 2 -4 -11 -36 -29 -73 -45 -89 -64
-140 -82 -225 -18 -87 -20 -270 -3 -357 7 -35 12 -81 11 -101 -2 -20 2 -39 6
-42 5 -3 8 7 6 22 -2 16 2 9 11 -17 8 -24 12 -49 8 -55 -3 -6 -2 -8 2 -3 11 9
77 -112 68 -126 -4 -6 -1 -7 7 -2 10 6 12 4 7 -9 -4 -9 -3 -15 2 -12 12 8 82
-84 74 -97 -3 -5 -2 -7 4 -4 5 3 27 -12 49 -34 21 -23 74 -65 116 -93 43 -29
75 -56 71 -60 -4 -4 1 -4 11 0 15 6 17 4 11 -6 -5 -9 -4 -11 3 -6 6 4 30 -3
53 -15 23 -11 85 -32 137 -45 197 -50 446 -24 620 65 24 12 48 19 54 15 6 -4
8 -3 5 3 -7 11 57 56 80 56 7 0 11 3 10 6 -4 11 160 161 168 153 5 -4 5 -2 2
4 -4 7 14 43 39 80 117 174 164 365 143 582 -10 113 -50 251 -95 331 -27 49
-29 55 -12 45 7 -5 8 -3 4 5 -5 7 -10 10 -13 7 -3 -3 -14 5 -24 18 -21 27 -25
41 -7 30 7 -4 8 -3 4 5 -4 6 -11 9 -16 6 -9 -5 -66 66 -62 78 1 4 -1 6 -5 5
-12 -4 -78 63 -75 76 2 6 1 8 -3 5 -3 -4 -49 21 -100 56 -179 120 -368 165
-600 143z m250 -177 c98 -20 225 -72 225 -92 0 -7 3 -9 6 -6 10 10 44 -12 44
-28 0 -9 9 -15 21 -15 32 0 147 -124 196 -211 23 -41 54 -114 69 -164 45 -154
32 -364 -31 -503 -37 -82 -85 -153 -98 -145 -6 3 -7 1 -3 -6 10 -16 -119 -143
-142 -139 -9 2 -17 -4 -17 -12 0 -20 -152 -95 -237 -116 -107 -26 -371 -22
-353 5 2 5 -6 6 -19 4 -32 -6 -177 65 -249 122 -51 41 -57 48 -45 63 12 15 11
16 -4 3 -17 -12 -23 -9 -19 12 1 5 -2 6 -7 3 -14 -8 -55 41 -47 55 5 8 4 10
-3 5 -11 -7 -58 54 -64 84 -2 8 -8 20 -15 27 -42 46 -88 274 -78 382 14 133
64 299 88 284 6 -3 7 -1 3 6 -9 15 37 95 66 116 13 8 18 15 13 15 -5 0 6 16
25 35 18 18 38 33 44 32 6 -1 10 3 9 10 -3 13 64 64 137 105 71 40 176 71 218
64 25 -4 31 -3 17 3 -17 7 -13 10 20 13 86 10 144 7 230 -11z"/>
<path d="M6861 7478 c-46 -4 -120 -19 -163 -33 -43 -14 -83 -23 -90 -19 -6 4
-8 3 -5 -3 4 -6 -12 -19 -35 -29 -22 -10 -73 -40 -112 -68 -39 -27 -76 -49
-83 -49 -7 0 -10 -3 -8 -7 2 -4 -9 -20 -26 -36 -17 -16 -49 -53 -71 -81 -22
-29 -45 -50 -51 -46 -5 3 -7 1 -4 -4 4 -6 -9 -37 -28 -69 -141 -233 -160 -557
-48 -809 19 -44 35 -88 35 -98 -1 -9 3 -15 9 -12 9 6 14 -9 9 -30 -1 -5 1 -7
5 -3 11 11 87 -91 79 -105 -4 -6 -4 -9 1 -5 9 9 131 -101 127 -115 -1 -5 1 -6
6 -3 7 4 43 -16 108 -62 18 -12 18 -13 -1 -7 -11 3 -16 2 -11 -2 4 -4 17 -9
29 -10 12 0 63 -17 113 -37 49 -19 119 -40 155 -45 92 -15 255 -13 344 4 43 8
83 12 89 8 6 -3 8 -3 4 2 -4 4 28 23 72 41 284 116 496 376 550 674 32 175
-10 441 -90 577 -11 19 -17 39 -14 45 4 7 2 8 -4 4 -6 -4 -18 6 -27 24 -9 17
-42 61 -75 99 -32 38 -56 73 -52 77 4 5 3 6 -2 2 -10 -9 -142 90 -138 104 1 5
-1 7 -6 4 -13 -8 -163 70 -154 79 4 5 2 6 -3 2 -6 -3 -42 3 -80 14 -85 25
-241 36 -354 27z m247 -174 c18 -4 30 -9 28 -13 -2 -3 10 -6 27 -7 18 0 57
-12 87 -27 30 -15 47 -25 38 -23 -11 3 -15 0 -12 -9 3 -7 14 -13 24 -12 10 1
16 5 13 11 -3 5 8 1 25 -9 17 -10 28 -23 25 -29 -3 -6 -3 -8 2 -4 11 11 47
-11 39 -24 -4 -6 -3 -8 4 -4 14 8 84 -53 75 -67 -3 -5 -1 -7 4 -4 13 8 76 -61
67 -74 -3 -5 0 -8 7 -7 6 2 14 -3 17 -11 3 -10 0 -12 -12 -8 -11 4 -15 3 -11
-4 4 -6 13 -8 21 -5 16 6 38 -29 28 -46 -4 -6 -3 -8 3 -5 14 9 37 -48 27 -64
-4 -8 -3 -10 4 -5 7 4 19 -19 34 -66 31 -98 33 -320 4 -413 -22 -73 -64 -158
-107 -222 -46 -67 -149 -165 -166 -159 -8 3 -11 1 -8 -4 13 -22 -124 -91 -243
-123 -201 -53 -404 -22 -577 88 -77 50 -187 155 -180 172 2 8 1 12 -4 8 -22
-13 -103 141 -133 254 -24 89 -29 287 -9 361 35 130 138 319 170 312 7 -1 10
1 7 6 -6 10 72 87 121 121 18 12 38 19 44 15 7 -4 9 -3 5 4 -14 23 163 88 289
106 36 5 179 -1 223 -10z"/>
<path d="M2955 5550 c-27 -5 -72 -12 -100 -15 -27 -4 -76 -13 -108 -21 -32 -8
-63 -12 -69 -8 -6 4 -8 3 -4 -4 3 -6 -7 -13 -26 -17 -18 -4 -63 -20 -101 -36
-38 -15 -74 -26 -80 -25 -7 2 -8 1 -3 -2 15 -8 -112 -69 -139 -67 -14 2 -23
-1 -19 -6 3 -5 0 -9 -7 -9 -7 0 -9 -3 -6 -6 4 -4 13 -1 22 6 9 7 18 11 20 8
10 -9 -105 -77 -122 -72 -13 4 -14 3 -5 -3 9 -7 -3 -22 -47 -57 -106 -85 -228
-231 -300 -360 -26 -47 -52 -82 -56 -78 -5 4 -5 2 -2 -4 4 -6 -1 -30 -10 -53
-12 -30 -19 -38 -26 -29 -6 9 -7 8 -3 -5 3 -11 -5 -56 -19 -100 -59 -194 -63
-248 -60 -882 2 -483 5 -590 18 -639 8 -33 13 -66 9 -74 -4 -11 -2 -13 8 -7
10 6 12 4 7 -9 -4 -9 -3 -15 1 -12 5 3 18 -15 31 -41 16 -34 19 -48 10 -59 -8
-10 -7 -12 9 -9 14 2 29 -9 51 -39 16 -24 28 -46 26 -50 -3 -3 -2 -4 1 -1 4 2
28 -13 53 -34 25 -21 81 -61 124 -89 47 -29 73 -52 65 -55 -10 -4 -10 -6 0 -6
7 -1 10 -5 7 -11 -3 -6 1 -7 9 -4 9 3 13 10 10 15 -3 5 2 6 10 3 9 -3 13 -10
10 -15 -3 -5 1 -6 9 -4 15 6 99 -28 97 -39 -1 -4 2 -11 6 -14 4 -4 4 -1 0 6
-9 15 -15 16 76 -12 43 -14 109 -30 147 -37 38 -7 68 -16 66 -19 -2 -3 11 -5
28 -6 18 0 93 -6 167 -12 144 -13 445 -21 429 -11 -6 3 34 11 88 18 159 19
343 79 438 144 21 15 42 24 47 21 5 -3 7 -1 6 4 -4 13 74 87 87 83 6 -1 7 0 3
4 -4 4 6 31 23 60 54 95 59 146 59 613 l0 423 49 -43 c42 -35 48 -45 38 -58
-10 -13 -10 -13 3 -3 12 9 28 0 85 -48 39 -33 70 -65 70 -71 0 -6 8 -12 19
-14 24 -3 77 -54 69 -67 -3 -6 -2 -7 4 -4 13 8 55 -22 47 -34 -3 -5 -2 -9 3
-8 15 4 43 -13 37 -22 -3 -5 -1 -8 3 -7 12 4 233 -171 233 -184 0 -5 4 -7 9
-4 5 3 20 -3 34 -14 14 -11 49 -32 79 -46 29 -14 43 -24 30 -21 -12 3 -20 2
-17 -3 3 -4 16 -10 30 -12 15 -3 22 -1 18 5 -4 6 4 7 20 3 61 -15 171 -18 246
-6 65 10 90 10 133 -1 29 -7 94 -13 143 -13 141 2 251 44 388 148 18 14 37 23
41 18 4 -4 6 0 4 8 -2 9 4 14 14 14 10 -1 15 2 13 7 -6 9 53 55 66 52 5 -2 8
1 6 5 -3 13 281 252 296 248 6 -1 8 -1 4 2 -9 5 52 72 65 72 4 0 21 14 36 30
16 17 34 30 41 30 6 0 11 6 11 14 0 8 3 17 8 19 4 3 6 -176 4 -396 -2 -243 2
-430 8 -472 19 -128 87 -236 199 -319 17 -13 28 -25 25 -28 -3 -4 3 -5 13 -4
10 0 17 -5 15 -12 -1 -8 2 -11 7 -8 4 3 35 -5 67 -19 33 -13 53 -24 46 -25 -7
0 -23 5 -35 11 -22 10 -22 10 -2 -6 11 -9 29 -14 40 -11 12 3 43 -1 70 -10
231 -70 667 -83 945 -28 41 8 86 17 100 20 14 3 49 11 78 20 29 8 58 12 64 8
6 -4 8 -3 5 3 -7 11 136 69 161 67 7 -1 11 1 8 4 -10 9 104 73 117 66 7 -4 9
-4 5 0 -4 5 21 30 55 57 59 48 137 131 158 171 6 10 15 15 21 12 6 -4 8 -3 4
4 -3 6 4 35 17 64 24 53 40 113 53 198 8 53 12 1180 3 1175 -3 -2 -10 35 -16
83 -15 114 -54 247 -103 350 -22 46 -37 89 -33 95 4 6 1 7 -7 2 -10 -6 -12 -4
-7 9 4 9 3 15 -2 12 -11 -7 -53 62 -45 75 3 5 2 8 -3 7 -4 -2 -8 -1 -9 2 0 3
-12 18 -27 34 -15 16 -24 33 -20 39 3 5 1 7 -5 3 -16 -9 -64 56 -49 67 8 6 8
7 -3 4 -8 -2 -39 18 -70 47 -95 87 -141 126 -151 126 -6 0 -8 4 -5 8 3 5 0 9
-7 9 -20 0 -67 34 -61 44 3 5 -3 6 -12 2 -11 -4 -15 -2 -11 4 4 6 1 10 -6 10
-6 -1 -59 22 -117 50 -121 58 -257 104 -385 129 -123 24 -413 24 -544 0 -168
-31 -327 -91 -469 -177 -35 -22 -69 -36 -75 -32 -5 3 -7 1 -4 -4 6 -9 -29 -40
-50 -45 -5 -1 -16 -12 -27 -25 -10 -13 -20 -22 -22 -20 -2 2 -34 -25 -71 -59
-37 -35 -71 -60 -77 -57 -5 3 -6 1 -3 -4 8 -13 -17 -36 -28 -25 -5 4 -5 2 -1
-5 12 -21 -503 -552 -528 -545 -6 2 -8 0 -3 -4 9 -9 -71 -94 -89 -94 -7 0 -15
-7 -18 -16 -3 -8 -11 -12 -17 -8 -7 4 -9 3 -5 -4 4 -6 -44 -55 -114 -116 -66
-58 -122 -106 -124 -106 -2 0 -10 8 -17 17 -8 10 -9 14 -2 10 6 -4 14 -3 18 2
3 6 -3 8 -13 6 -27 -5 -98 55 -80 67 9 7 8 8 -5 4 -13 -4 -34 8 -70 40 -29 26
-51 51 -49 55 1 5 -2 8 -7 7 -11 -4 -81 59 -81 73 0 6 -4 8 -8 5 -12 -7 -84
68 -75 78 5 4 1 6 -7 4 -8 -2 -14 3 -12 10 1 8 -1 11 -6 8 -12 -7 -224 208
-215 219 4 4 3 5 -3 2 -10 -6 -100 86 -262 264 -23 25 -38 49 -34 53 4 4 2 6
-4 4 -16 -4 -96 61 -88 73 3 5 1 8 -4 7 -13 -4 -74 41 -68 51 3 4 0 8 -7 8 -7
0 -50 26 -97 58 -47 32 -129 79 -182 105 -54 26 -94 51 -90 55 4 5 1 5 -5 1
-17 -10 -124 25 -116 37 3 6 1 7 -5 3 -6 -4 -56 3 -112 14 -114 23 -384 35
-465 20z m192 -175 c8 -9 18 -13 21 -10 4 3 0 11 -8 16 -11 7 14 9 80 5 108
-7 99 -6 203 -31 42 -10 77 -23 77 -27 0 -5 4 -7 9 -4 13 8 92 -29 83 -39 -4
-5 -1 -5 5 -1 7 4 30 -1 50 -10 69 -33 203 -116 198 -124 -3 -4 3 -7 13 -6 9
0 16 -5 14 -12 -1 -8 2 -11 7 -8 5 3 20 -3 32 -15 13 -11 18 -17 10 -13 -9 5
-12 3 -7 -5 4 -6 11 -9 16 -6 9 6 131 -102 127 -113 -1 -4 3 -8 8 -10 21 -6
114 -106 108 -116 -3 -6 -3 -8 2 -4 11 10 57 -41 49 -54 -4 -6 -2 -8 3 -5 6 4
43 -28 83 -71 128 -135 301 -311 294 -299 -4 7 7 -1 24 -17 17 -16 29 -33 26
-38 -3 -5 -1 -7 4 -6 6 2 45 -29 89 -68 43 -39 113 -101 156 -138 l77 -68 -63
-71 c-35 -40 -70 -82 -76 -95 -7 -12 -17 -20 -23 -16 -6 4 -8 3 -5 -3 4 -6 -4
-35 -17 -64 -44 -102 -52 -278 -17 -371 5 -14 7 -29 4 -32 -4 -3 -1 -6 5 -6
16 0 15 -27 0 -33 -7 -3 -4 -6 8 -6 11 -1 26 -11 32 -23 7 -13 20 -34 29 -47
l17 -24 -39 7 c-21 4 -66 20 -100 35 -73 34 -248 168 -239 183 4 6 2 8 -3 5
-6 -4 -35 15 -66 41 -30 26 -87 73 -125 105 -38 32 -78 65 -88 75 -269 240
-356 324 -344 332 17 11 -64 10 -91 -1 -52 -20 -51 -18 -54 -606 -1 -431 -5
-557 -16 -592 -15 -50 -102 -147 -121 -135 -7 4 -8 3 -4 -4 12 -20 -198 -110
-230 -98 -8 3 -14 1 -14 -3 0 -5 -30 -14 -67 -20 -282 -46 -611 -30 -873 42
-57 16 -210 76 -258 101 -47 25 -137 96 -137 109 0 7 -6 12 -13 12 -27 0 -112
126 -135 199 -22 70 -22 79 -22 636 0 590 3 651 46 805 31 114 80 229 91 213
7 -10 8 -9 4 4 -7 22 32 90 47 81 6 -4 7 -1 3 6 -5 7 14 40 47 84 57 74 117
137 117 123 0 -5 7 -3 15 4 8 7 13 16 10 20 -4 7 52 58 125 111 50 37 174 103
255 137 94 39 231 75 255 67 11 -4 20 -2 20 4 0 12 44 17 158 19 64 2 87 -2
99 -13z m4171 5 c46 -5 98 -14 115 -19 180 -54 351 -127 340 -145 -3 -6 -3 -8
2 -4 11 10 59 -16 143 -80 55 -41 70 -57 60 -64 -10 -8 -9 -9 3 -5 16 5 66
-36 62 -51 0 -4 3 -6 7 -5 20 6 156 -170 145 -186 -3 -5 0 -13 6 -17 8 -5 10
-2 5 7 -4 8 0 5 9 -6 46 -56 115 -242 109 -295 -3 -29 -2 -30 4 -10 8 24 8 24
15 -8 4 -19 5 -46 2 -60 -4 -22 -4 -23 3 -7 7 15 12 -1 21 -65 9 -60 11 -254
9 -670 -3 -544 -5 -588 -22 -635 -24 -63 -95 -167 -109 -158 -5 3 -7 1 -4 -5
8 -12 -51 -65 -64 -56 -5 3 -6 10 -3 16 4 7 2 8 -5 4 -9 -6 -9 -11 -1 -21 18
-22 -111 -99 -250 -150 -292 -105 -757 -131 -1062 -59 -42 10 -65 20 -61 27 4
6 1 7 -6 3 -32 -20 -231 91 -223 125 2 8 1 11 -3 7 -10 -9 -39 20 -61 62 -18
33 -19 72 -24 602 l-5 566 -24 26 c-30 32 -67 33 -108 4 -17 -13 -97 -85 -178
-160 -81 -76 -152 -135 -158 -131 -5 3 -7 1 -3 -5 8 -13 -43 -54 -58 -45 -6 3
-8 3 -4 -2 11 -11 -12 -36 -25 -28 -5 3 -7 1 -4 -4 10 -17 -103 -106 -118 -93
-9 7 -16 6 -24 -4 -8 -10 -9 -16 -1 -21 6 -4 9 -3 8 2 -2 4 0 9 5 11 4 1 8 -1
9 -5 1 -4 -57 -54 -128 -110 -94 -75 -134 -101 -149 -97 -14 4 -16 3 -7 -4 23
-16 -103 -65 -181 -70 -167 -11 -275 47 -347 188 -28 53 -38 193 -20 261 15
55 58 122 72 113 7 -5 8 -3 3 5 -9 15 53 83 68 74 6 -3 7 -2 4 4 -9 15 69 87
84 78 7 -5 10 -4 6 2 -4 6 10 25 31 42 20 18 53 47 72 65 148 142 354 324 362
320 5 -3 7 -1 6 4 -2 6 49 64 112 129 63 65 153 159 199 208 207 220 285 295
294 283 6 -9 7 -8 3 4 -5 18 19 41 128 117 59 41 84 51 70 29 -4 -7 -3 -8 5
-4 6 4 9 11 6 16 -3 5 8 16 24 25 36 18 45 19 35 3 -4 -7 -3 -8 5 -4 6 4 9 11
6 16 -7 11 93 52 107 44 6 -4 8 -3 5 3 -10 16 132 54 283 77 53 7 289 5 368
-4z"/>
</g>
</svg>
