<?xml version="1.0" standalone="no"?>
<!DOCTYPE svg PUBLIC "-//W3C//DTD SVG 20010904//EN"
 "http://www.w3.org/TR/2001/REC-SVG-20010904/DTD/svg10.dtd">
<svg version="1.0" xmlns="http://www.w3.org/2000/svg"
 width="1024.000000pt" height="1024.000000pt" viewBox="0 0 1024.000000 1024.000000"
 preserveAspectRatio="xMidYMid meet">
<metadata>
Created by potrace 1.16, written by Peter Selinger 2001-2019
</metadata>
<g transform="translate(0.000000,1024.000000) scale(0.100000,-0.100000)"
fill="#000000" stroke="none">
<path d="M4718 8950 c-27 -18 -56 -44 -67 -58 -65 -92 -127 -281 -171 -527
-12 -66 -35 -185 -50 -265 -16 -80 -38 -202 -51 -272 -13 -70 -25 -126 -28
-126 -19 2 -24 -3 -12 -11 11 -7 8 -30 -17 -131 -34 -133 -68 -213 -93 -218
-27 -5 -107 196 -96 239 3 11 2 17 -3 14 -4 -2 -15 24 -25 60 -39 144 -117
259 -203 297 -32 15 -60 19 -112 16 -37 -2 -67 -5 -65 -7 2 -2 -17 -17 -43
-35 -44 -29 -94 -86 -146 -166 -37 -55 -75 -92 -88 -84 -6 4 -8 3 -5 -3 15
-24 -57 -32 -310 -35 l-262 -3 -32 -30 c-18 -16 -29 -24 -25 -17 4 6 3 12 -2
12 -13 0 -8 -111 6 -138 29 -52 37 -53 354 -50 l293 3 55 27 c67 33 110 76
192 192 35 49 71 94 81 100 21 13 53 -4 51 -28 -1 -9 2 -14 6 -11 11 7 28 -37
61 -159 16 -61 32 -119 35 -130 5 -13 2 -17 -7 -12 -8 4 -7 1 2 -6 22 -18 51
-87 42 -101 -3 -5 -1 -7 4 -4 13 8 26 -20 16 -35 -3 -7 -1 -8 5 -4 7 4 12 3
12 -3 0 -5 -4 -13 -10 -16 -5 -3 -10 -12 -10 -18 0 -8 3 -8 8 -2 4 6 12 11 18
10 12 0 61 -55 62 -68 0 -5 4 -12 8 -15 4 -4 4 -1 0 6 -10 17 -3 15 37 -8 97
-57 214 -25 287 78 22 31 43 62 47 67 5 6 8 15 9 20 1 6 15 55 32 110 37 124
58 218 113 512 23 127 46 230 50 227 4 -2 5 4 2 14 -6 26 53 326 89 447 36
121 53 152 74 134 10 -8 13 -22 9 -38 -4 -17 -3 -21 3 -13 13 20 56 -157 48
-200 -5 -26 -4 -29 4 -13 8 16 9 11 5 -20 -3 -28 -2 -35 5 -25 6 10 10 11 10
3 0 -7 16 -131 36 -275 19 -145 33 -273 31 -285 -2 -12 -1 -20 3 -18 4 3 10
-26 14 -63 23 -232 100 -804 120 -892 13 -58 20 -106 15 -108 -5 -2 -9 -8 -9
-13 0 -4 8 -5 17 -2 12 5 15 2 10 -10 -4 -10 -2 -17 4 -17 6 0 8 -8 5 -17 -4
-10 -4 -14 0 -10 10 10 46 -52 38 -65 -4 -6 -3 -8 3 -5 5 4 23 -7 38 -23 43
-45 90 -56 205 -47 10 1 17 3 15 5 -2 2 15 20 37 40 60 54 117 184 150 343 9
43 14 55 19 42 7 -16 8 -16 8 -1 1 9 -4 20 -9 23 -6 4 -8 10 -5 15 2 4 8 25
11 46 3 22 7 44 9 49 5 26 18 99 60 345 58 333 102 509 125 495 6 -3 7 1 4 10
-5 11 -2 14 10 9 10 -4 15 -13 12 -21 -3 -8 -2 -12 3 -8 11 6 41 -70 76 -197
15 -51 38 -132 51 -180 14 -48 22 -93 18 -99 -5 -8 -3 -9 6 -4 10 6 12 3 8
-13 -4 -12 -2 -20 2 -17 8 5 26 -35 21 -44 -2 -2 1 -7 6 -10 5 -3 24 -32 43
-64 32 -54 79 -101 125 -124 66 -34 171 -20 240 32 24 18 46 30 50 27 4 -4 5
-2 3 3 -5 18 96 143 134 165 36 20 47 21 320 18 278 -3 284 -3 314 19 17 12
36 38 43 61 11 33 11 43 -3 70 -8 16 -28 40 -42 51 -26 20 -37 21 -343 21
-314 0 -316 0 -366 -25 -61 -29 -84 -50 -158 -142 -76 -96 -90 -103 -127 -63
-29 31 -90 206 -145 415 -14 54 -44 138 -67 185 -23 47 -40 90 -39 95 2 6 0 7
-4 3 -4 -4 -18 5 -30 20 -36 43 -104 72 -167 72 -46 0 -62 -5 -99 -32 -24 -17
-50 -39 -57 -47 -22 -27 -69 -124 -83 -170 -10 -34 -14 -39 -20 -25 -5 13 -7
8 -6 -16 0 -19 -12 -98 -27 -175 -15 -77 -30 -160 -33 -185 -5 -36 -8 -41 -15
-25 -6 14 -6 11 -2 -11 9 -54 -96 -615 -134 -707 l-15 -39 -12 29 c-27 64 -56
237 -100 593 -25 206 -59 485 -76 619 -17 134 -28 250 -25 258 3 8 1 11 -4 8
-6 -3 -10 4 -10 17 -1 64 -50 318 -77 403 -26 81 -63 146 -107 190 -41 40 -44
41 -122 43 -74 3 -82 1 -126 -28z"/>
<path d="M2929 6548 c-48 -3 -122 -16 -165 -28 -83 -22 -224 -84 -274 -120
-16 -12 -35 -18 -40 -15 -6 4 -9 2 -8 -2 2 -5 -24 -32 -57 -60 -119 -100 -209
-214 -274 -346 -38 -79 -91 -239 -91 -278 0 -11 -3 -19 -7 -19 -16 0 -14 -235
3 -345 9 -60 17 -119 18 -130 0 -11 4 -22 7 -25 4 -3 9 -16 13 -30 6 -19 5
-21 -3 -10 -9 13 -11 13 -11 -2 0 -10 6 -18 13 -18 17 0 70 -127 61 -143 -4
-7 -3 -9 1 -4 5 4 22 -14 38 -39 23 -38 26 -49 15 -56 -10 -8 -9 -9 3 -5 11 4
29 -11 55 -46 21 -28 38 -55 36 -59 -1 -4 4 -7 10 -6 7 2 12 -3 10 -9 -1 -7 4
-13 11 -13 8 0 22 -9 32 -20 11 -12 13 -20 6 -20 -7 0 -9 -5 -6 -11 4 -5 12
-8 18 -6 7 2 43 -20 82 -50 121 -92 277 -157 438 -183 96 -16 307 -8 391 15
148 39 296 116 415 215 32 27 61 47 65 45 3 -3 4 -2 2 1 -3 3 27 45 65 92 80
99 168 267 199 382 33 122 46 291 32 417 -7 60 -19 130 -27 157 -8 26 -12 52
-9 57 3 5 0 9 -5 9 -6 0 -11 6 -11 13 0 30 -101 216 -157 292 -139 187 -346
327 -558 376 -50 12 -97 23 -105 26 -24 8 -137 9 -231 1z m169 -218 c51 -5
122 -19 158 -31 60 -19 64 -22 47 -36 -17 -13 -16 -13 4 -3 18 8 32 6 73 -15
28 -14 48 -30 45 -34 -2 -5 3 -8 13 -7 9 0 16 -4 15 -10 -1 -7 5 -11 15 -10 9
0 16 -5 14 -12 -1 -8 2 -11 7 -8 12 8 81 -52 78 -67 -1 -7 3 -11 10 -10 17 4
98 -104 144 -193 22 -41 51 -114 66 -162 24 -78 27 -102 26 -242 0 -148 -1
-159 -32 -250 -37 -109 -84 -199 -146 -279 -55 -72 -81 -95 -96 -85 -7 4 -10
3 -5 -4 8 -13 -59 -68 -142 -117 -201 -117 -510 -125 -721 -18 -90 45 -164
100 -155 115 5 7 2 8 -5 3 -27 -16 -172 173 -220 288 -16 40 -39 118 -50 174
-21 102 -28 263 -12 263 4 0 6 11 4 25 -13 66 89 357 118 339 8 -4 9 -3 5 5
-10 16 22 64 36 55 7 -4 8 -3 4 5 -10 16 74 112 148 167 113 85 248 140 379
154 40 4 74 8 77 8 3 1 47 -3 98 -8z"/>
<path d="M6880 6549 c-41 -4 -106 -14 -145 -23 -77 -19 -252 -95 -301 -132
-33 -26 -50 -31 -38 -12 4 7 3 8 -5 4 -6 -4 -9 -11 -6 -16 3 -4 -14 -23 -37
-41 -41 -30 -189 -179 -179 -179 2 0 -3 -8 -11 -17 -30 -35 -97 -159 -128
-235 -90 -226 -96 -529 -15 -759 8 -22 11 -47 8 -57 -3 -9 -2 -14 2 -9 8 7 57
-73 71 -115 4 -15 3 -18 -6 -13 -9 5 -11 4 -6 -4 4 -6 11 -9 16 -6 12 8 33
-33 24 -47 -4 -6 -3 -8 4 -4 6 3 21 -8 33 -26 13 -18 40 -54 61 -79 20 -25 35
-49 33 -53 -3 -3 -2 -4 1 -2 3 3 35 -19 69 -49 35 -29 73 -59 85 -65 11 -6 17
-16 14 -22 -4 -7 -3 -8 5 -4 6 4 23 -1 39 -12 50 -35 126 -70 207 -96 93 -30
331 -66 344 -53 5 5 34 7 65 5 31 -1 56 0 56 3 0 4 21 10 48 14 127 19 287 88
417 181 75 53 190 171 240 246 21 32 42 55 48 51 5 -3 7 -1 4 5 -10 15 3 43
16 35 5 -3 7 -1 4 4 -4 6 6 40 23 74 43 94 76 220 90 345 11 96 11 126 -4 228
-20 142 -54 253 -111 367 -24 48 -42 90 -39 93 2 3 1 4 -3 1 -9 -7 -43 47 -36
58 3 6 1 7 -4 4 -6 -4 -23 11 -38 34 -37 52 -140 148 -215 199 -88 60 -233
127 -325 150 -94 24 -270 38 -375 29z m203 -219 c45 -6 98 -16 117 -21 75 -23
119 -42 114 -50 -3 -5 1 -6 9 -3 19 7 139 -64 131 -78 -4 -6 -3 -8 3 -5 23 15
172 -121 158 -144 -5 -7 -4 -10 2 -6 15 9 53 -44 103 -143 127 -252 129 -541
5 -786 -46 -91 -104 -166 -191 -245 -79 -72 -201 -143 -231 -133 -13 4 -14 3
-5 -3 9 -7 -9 -16 -60 -31 -134 -38 -200 -44 -337 -30 -121 12 -300 75 -285
100 4 7 3 8 -5 4 -28 -18 -176 103 -253 206 -64 84 -91 134 -83 149 4 5 1 8
-5 7 -14 -3 -52 99 -76 202 -20 85 -20 258 1 360 18 86 52 178 93 250 62 108
190 249 213 235 7 -5 10 -4 6 2 -12 20 132 111 153 98 6 -3 10 -2 10 4 0 13
123 51 193 60 92 12 136 12 220 1z"/>
<path d="M2296 4224 c-123 -20 -210 -50 -356 -122 -74 -36 -141 -65 -148 -64
-7 2 -11 -3 -10 -10 2 -7 -3 -12 -9 -10 -7 1 -13 -2 -13 -6 0 -5 -21 -24 -47
-42 -121 -85 -271 -240 -345 -356 -44 -69 -90 -165 -123 -261 -18 -51 -34 -90
-36 -88 -2 2 -4 -9 -5 -23 0 -15 -7 -67 -14 -117 -15 -103 -16 -919 -1 -958 5
-13 16 -29 25 -37 12 -9 13 -15 6 -20 -8 -5 -6 -9 5 -13 9 -4 14 -3 10 3 -4 7
8 8 33 4 45 -7 93 14 111 50 8 14 12 168 14 456 4 472 10 532 64 683 109 306
357 541 703 670 174 64 258 67 387 14 173 -72 333 -107 490 -107 76 0 102 -3
97 -12 -4 -7 -3 -8 5 -4 6 4 9 12 6 17 -4 5 7 9 23 9 49 0 210 45 335 94 66
25 133 46 149 46 45 0 186 -36 277 -71 66 -25 79 -33 76 -50 -2 -11 0 -17 6
-14 5 4 7 11 4 16 -10 15 2 11 75 -26 39 -19 70 -40 70 -47 0 -6 3 -8 6 -5 11
10 45 -13 38 -25 -4 -6 -3 -8 4 -5 31 20 289 -244 274 -282 -4 -10 -1 -12 8
-6 10 6 12 4 7 -9 -4 -10 -3 -15 3 -11 12 8 83 -133 76 -152 -4 -9 -2 -11 6
-7 7 5 9 0 6 -14 -4 -12 -2 -20 2 -17 19 12 63 -202 58 -285 -1 -32 0 -56 5
-53 4 2 7 -25 7 -61 0 -37 -4 -66 -10 -66 -5 0 -10 -8 -10 -17 0 -15 2 -16 10
-3 6 9 9 -33 9 -120 0 -90 -3 -130 -9 -120 -7 11 -10 5 -10 -22 0 -21 5 -38
10 -38 6 0 10 -32 9 -77 0 -57 -3 -73 -10 -58 -8 17 -8 16 -3 -5 3 -14 8 -63
11 -110 3 -47 11 -97 19 -111 29 -57 117 -62 170 -11 l29 27 0 467 c0 256 -3
464 -6 462 -3 -2 -11 34 -18 79 -7 45 -23 119 -37 165 -14 45 -22 88 -18 94 4
6 3 8 -3 5 -5 -3 -24 24 -42 61 -133 272 -322 454 -616 597 -183 88 -361 138
-490 137 -58 0 -96 -10 -227 -56 -213 -75 -293 -90 -432 -83 -119 7 -222 30
-340 76 -158 63 -229 74 -350 55z"/>
<path d="M6309 4229 c-119 -13 -334 -80 -501 -157 -48 -22 -90 -37 -95 -34 -4
4 -5 3 -1 -2 5 -5 -18 -25 -49 -44 -73 -44 -197 -144 -247 -199 -21 -23 -43
-40 -49 -36 -5 3 -7 2 -4 -4 3 -5 -13 -34 -36 -64 -22 -30 -57 -82 -77 -116
-21 -35 -39 -61 -41 -58 -3 2 -5 -4 -6 -13 -2 -29 -71 -185 -76 -171 -2 8 -2
4 0 -9 2 -12 -3 -48 -11 -80 -8 -31 -18 -79 -22 -107 -9 -66 -17 -900 -9 -944
19 -102 148 -123 196 -31 17 32 19 64 17 450 0 228 2 424 5 435 3 11 8 46 12
78 11 101 96 334 118 320 6 -3 7 -1 3 5 -9 16 63 124 77 115 6 -3 7 -1 3 5
-10 16 83 113 172 180 125 92 383 215 413 196 7 -4 9 -3 6 3 -7 11 -3 13 113
43 119 31 127 29 190 -41 29 -34 81 -82 114 -107 34 -24 60 -49 58 -54 -1 -5
2 -7 7 -3 6 3 34 -8 63 -24 106 -59 186 -76 353 -76 124 1 164 5 228 23 142
40 274 121 383 234 l68 71 62 -12 c126 -23 410 -133 397 -154 -3 -6 -1 -7 6
-3 15 10 142 -64 134 -78 -3 -6 -3 -8 2 -4 11 11 47 -11 39 -24 -4 -6 -3 -8 3
-5 13 8 85 -52 77 -65 -4 -6 -3 -8 3 -5 11 7 51 -31 52 -48 1 -5 7 -10 14 -10
6 -1 11 -7 9 -14 -1 -7 2 -10 7 -6 12 7 33 -29 23 -40 -4 -5 -2 -5 5 -2 26 16
118 -159 158 -302 36 -127 43 -187 44 -391 5 -680 4 -676 27 -707 12 -16 36
-32 59 -38 51 -12 105 16 121 63 7 22 10 183 9 475 -2 366 -5 459 -19 541 -39
228 -138 425 -298 594 -26 27 -46 51 -45 53 1 2 0 3 -2 2 -2 -1 -33 22 -70 51
-189 150 -441 267 -716 331 -149 35 -219 17 -290 -76 -81 -106 -230 -202 -353
-228 -78 -16 -229 -14 -293 5 -125 37 -202 92 -352 251 -57 60 -93 72 -188 62z"/>
</g>
</svg>
