<?xml version="1.0" standalone="no"?>
<!DOCTYPE svg PUBLIC "-//W3C//DTD SVG 20010904//EN"
 "http://www.w3.org/TR/2001/REC-SVG-20010904/DTD/svg10.dtd">
<svg version="1.0" xmlns="http://www.w3.org/2000/svg"
 width="1024.000000pt" height="1024.000000pt" viewBox="0 0 1024.000000 1024.000000"
 preserveAspectRatio="xMidYMid meet">
<metadata>
Created by potrace 1.16, written by Peter Selinger 2001-2019
</metadata>
<g transform="translate(0.000000,1024.000000) scale(0.100000,-0.100000)"
fill="#000000" stroke="none">
<path d="M3230 6294 c-19 -8 -48 -26 -66 -39 -17 -13 -35 -21 -39 -17 -5 4 -5
2 -1 -5 3 -6 -5 -28 -19 -49 -14 -20 -30 -54 -35 -75 -7 -25 -10 -321 -8 -866
l3 -828 29 -53 c30 -53 64 -85 125 -116 31 -16 122 -17 1379 -16 1258 1 1346
2 1358 18 17 22 17 34 1 56 -12 17 -78 18 -1338 20 -1318 1 -1324 1 -1364 22
-56 29 -82 72 -90 147 -9 92 -1 1579 9 1600 11 23 20 22 69 -14 127 -93 452
-317 944 -652 89 -60 160 -114 157 -118 -3 -5 3 -6 13 -2 16 6 16 5 4 -11 -8
-9 -20 -15 -28 -12 -8 3 -12 2 -9 -3 3 -5 -72 -62 -167 -127 -94 -65 -218
-151 -275 -191 -57 -41 -107 -71 -113 -68 -5 4 -8 2 -7 -3 3 -10 -60 -56 -302
-225 -94 -66 -172 -125 -182 -139 -6 -8 48 -58 62 -58 9 0 63 33 121 73 57 40
222 156 367 257 144 102 302 212 350 245 48 33 131 91 185 129 l98 68 57 -38
c31 -21 83 -58 115 -81 154 -112 321 -149 468 -103 66 20 154 71 279 160 40
28 77 53 84 56 6 2 90 -52 186 -121 96 -68 185 -125 197 -125 30 0 61 45 46
69 -5 9 -72 60 -149 113 -76 54 -149 105 -161 114 -22 16 -20 18 140 129 89
61 290 201 447 310 452 314 579 399 587 391 5 -4 10 -143 13 -309 l5 -301 26
-15 c24 -13 29 -13 54 3 l26 17 -3 302 -3 302 -27 51 c-30 58 -73 98 -133 125
-38 18 -116 19 -1745 18 -1493 0 -1709 -2 -1740 -15z m3399 -85 c17 -6 31 -14
31 -17 0 -4 -90 -69 -199 -145 -142 -98 -204 -135 -217 -131 -14 4 -15 3 -6
-4 10 -7 -68 -66 -295 -222 -169 -117 -313 -213 -320 -213 -7 0 -10 -3 -8 -7
2 -3 -40 -36 -93 -73 -428 -293 -424 -291 -552 -292 -132 0 -153 11 -580 305
-151 104 -353 242 -448 307 -399 272 -666 459 -669 470 -2 6 9 16 24 21 41 15
3289 16 3332 1z"/>
<path d="M6540 5385 c-36 -8 -108 -36 -160 -61 -80 -40 -110 -62 -186 -138
-70 -70 -99 -108 -127 -166 -96 -196 -103 -417 -18 -604 33 -73 96 -170 135
-205 14 -13 23 -29 19 -35 -3 -6 -3 -8 1 -4 5 4 31 -11 59 -33 59 -47 134 -86
227 -119 55 -20 86 -24 195 -24 190 -1 296 32 436 136 131 96 219 231 260 398
42 166 13 367 -75 517 -90 154 -257 282 -428 329 -79 22 -260 27 -338 9z m310
-112 c89 -25 227 -104 215 -123 -3 -5 0 -12 6 -16 8 -4 9 -3 5 4 -18 29 15 8
55 -35 104 -112 158 -239 166 -392 4 -54 2 -92 -3 -89 -5 3 -10 -13 -10 -36
-2 -49 -56 -192 -72 -189 -6 2 -9 -3 -6 -10 6 -18 -82 -124 -141 -169 -109
-84 -226 -121 -375 -120 -286 0 -527 200 -584 484 -20 96 -20 126 -1 225 23
122 73 214 169 308 106 105 172 139 341 179 34 8 177 -5 235 -21z"/>
<path d="M6940 4915 c-24 -24 -48 -41 -53 -38 -6 3 -7 1 -3 -6 4 -6 -24 -44
-71 -94 -43 -45 -98 -106 -122 -134 -24 -29 -48 -53 -53 -53 -9 0 -182 141
-203 165 -17 20 -74 -2 -86 -32 -5 -15 -8 -32 -5 -39 8 -20 238 -214 271 -229
25 -11 34 -11 55 2 45 28 395 412 398 437 3 26 -38 66 -67 66 -9 0 -37 -20
-61 -45z"/>
</g>
</svg>
