<?xml version="1.0" standalone="no"?>
<!DOCTYPE svg PUBLIC "-//W3C//DTD SVG 20010904//EN" "http://www.w3.org/TR/2001/REC-SVG-20010904/DTD/svg10.dtd">
<svg xmlns="http://www.w3.org/2000/svg" version="1.0" width="1024.000000pt" height="1024.000000pt" viewBox="0 0 1024.000000 1024.000000" preserveAspectRatio="xMidYMid meet">
<metadata>
Created by potrace 1.16, written by Peter Selinger 2001-2019
<meta name="Producer" content="Online-Convert"/></metadata>
<g transform="translate(0.000000,1024.000000) scale(0.100000,-0.100000)" fill="#000000" stroke="none">
<path d="M6955 8398 c-11 -6 -24 -18 -30 -27 -10 -16 -24 -291 -15 -291 3 0 10 -10 15 -22 15 -34 99 -38 138 -8 15 12 27 30 27 40 0 10 5 22 10 25 6 3 10 48 10 99 0 71 -5 102 -19 132 -28 57 -87 80 -136 52z"/>
<path d="M3040 8326 c0 -4 -9 -6 -20 -3 -10 3 -20 2 -22 -2 -2 -3 -30 -17 -63 -30 -118 -47 -221 -138 -270 -237 -37 -74 -35 -70 -43 -59 -9 12 -122 16 -122 4 0 -5 -12 -9 -27 -9 -36 0 -142 -50 -193 -91 -22 -18 -57 -57 -77 -88 -21 -31 -42 -59 -46 -62 -5 -3 -8 -9 -7 -13 1 -3 -4 -30 -11 -60 -6 -30 -10 -95 -7 -152 5 -126 34 -191 127 -283 44 -44 64 -71 64 -88 0 -16 2 -21 7 -12 5 6 6 18 3 26 -4 11 -1 12 21 2 17 -8 25 -18 21 -27 -4 -11 -2 -12 7 -4 15 12 98 -6 98 -21 0 -4 4 -6 9 -3 4 3 299 6 654 6 355 1 647 4 649 8 2 4 30 20 63 37 96 48 176 144 200 240 9 39 22 176 16 169 -3 -2 -11 19 -18 48 -17 67 -72 150 -123 187 -22 15 -36 32 -32 36 4 3 2 5 -3 4 -6 -2 -30 4 -55 13 -83 30 -128 41 -143 35 -11 -4 -16 4 -20 29 -17 101 -120 241 -230 313 -34 23 -69 47 -77 53 -8 7 -15 11 -15 9 0 -3 -28 2 -62 9 -34 8 -60 16 -58 19 2 3 -42 6 -96 6 -54 0 -99 -4 -99 -9z m166 -185 c-3 -4 6 -6 21 -3 18 3 24 1 19 -6 -5 -8 -2 -10 8 -6 9 3 16 1 16 -5 0 -6 6 -8 14 -5 8 3 24 -4 35 -15 12 -12 21 -18 21 -13 1 4 9 -4 20 -16 15 -18 17 -28 10 -42 -6 -10 -10 -22 -10 -27 1 -4 8 5 16 20 8 15 19 25 25 21 6 -4 6 -11 -2 -20 -6 -8 -9 -17 -5 -21 3 -3 6 -1 6 6 0 9 5 9 20 1 25 -13 73 -107 66 -127 -3 -8 -1 -11 4 -8 7 4 10 -6 10 -27 -2 -50 17 -111 39 -129 11 -9 17 -20 13 -23 -3 -4 2 -4 12 0 12 5 17 4 13 -3 -8 -13 65 -12 76 2 6 6 10 6 14 -2 6 -15 63 -18 63 -3 0 6 7 10 15 10 8 0 15 -4 15 -9 0 -5 8 -8 17 -7 10 0 18 -6 18 -14 0 -8 8 -14 17 -12 19 3 73 -80 65 -100 -2 -7 0 -21 5 -30 5 -10 5 -18 0 -18 -5 0 -7 -12 -5 -27 5 -40 -35 -103 -89 -139 l-46 -31 -304 2 c-166 1 -313 -2 -326 -7 -15 -5 -21 -4 -17 2 9 14 -9 12 -23 -2 -9 -9 -12 -8 -12 5 0 9 -5 17 -11 17 -5 0 -7 -4 -4 -10 13 -21 -91 -26 -108 -5 -6 6 -10 5 -14 -3 -4 -10 -8 -10 -21 0 -12 10 -16 10 -19 1 -3 -8 -22 -13 -46 -13 -31 0 -38 3 -27 10 10 7 -6 9 -56 8 -39 -1 -76 2 -82 6 -7 4 -12 3 -12 -1 0 -13 -139 -14 -177 -2 -18 6 -33 15 -33 20 0 6 -5 7 -11 4 -17 -11 -103 86 -117 131 -21 72 -9 194 20 194 5 0 7 4 3 10 -7 12 64 84 107 107 35 18 148 23 218 9 87 -17 85 -17 69 -27 -10 -8 -10 -9 -1 -7 8 2 14 8 14 13 0 6 5 17 11 25 11 13 10 13 -8 0 -20 -15 -20 -15 -1 8 11 13 26 20 34 17 11 -4 12 -2 4 8 -12 15 -5 57 10 57 5 0 6 4 3 10 -7 12 32 90 46 90 6 0 8 4 5 9 -6 10 94 105 102 97 2 -3 11 2 19 10 8 8 19 12 24 9 5 -4 9 -2 9 4 0 5 19 14 43 19 54 13 160 15 153 3z"/>
<path d="M6325 8169 c3 -4 -9 -12 -25 -18 -17 -5 -30 -13 -30 -16 0 -3 6 -3 13 1 10 6 10 4 0 -7 -7 -7 -13 -31 -13 -54 0 -36 6 -47 55 -95 30 -29 52 -57 49 -62 -3 -4 5 -12 18 -17 13 -5 32 -18 42 -30 26 -29 74 -52 82 -40 3 6 12 8 20 5 8 -3 14 -1 14 5 0 6 4 8 8 5 5 -3 15 6 22 19 7 14 16 25 19 25 4 0 5 19 3 43 -4 38 -14 52 -98 138 -52 53 -94 95 -94 94 0 -1 -20 1 -45 5 -24 4 -42 3 -40 -1z"/>
<path d="M7521 8094 c-100 -94 -125 -133 -117 -178 7 -37 50 -80 84 -83 37 -4 72 20 160 110 60 62 82 92 82 110 0 21 4 25 18 21 15 -5 16 -4 1 8 -9 7 -19 22 -23 33 -8 27 -56 55 -94 55 -24 0 -47 -16 -111 -76z"/>
<path d="M6933 7927 c-3 -4 -12 -7 -21 -6 -10 1 -30 -3 -47 -10 -16 -6 -43 -17 -60 -23 -16 -6 -48 -24 -71 -39 -27 -19 -45 -25 -53 -18 -7 6 -8 6 -2 -2 7 -8 -6 -27 -38 -60 -26 -26 -60 -72 -76 -101 -16 -29 -31 -55 -34 -58 -3 -3 -6 -11 -7 -17 -1 -7 -2 -22 -2 -34 -1 -11 -5 -18 -9 -16 -5 3 -6 -15 -4 -40 2 -26 -1 -48 -8 -52 -6 -4 -13 -27 -16 -52 -3 -24 -2 -37 1 -29 3 8 8 22 12 30 3 8 8 -7 12 -35 4 -27 3 -51 -2 -53 -4 -2 -8 -8 -8 -13 0 -4 7 -6 15 -3 9 4 15 0 15 -8 0 -8 11 -35 24 -60 18 -34 21 -49 13 -57 -8 -8 -7 -14 2 -23 11 -11 13 -10 8 5 -10 28 1 20 63 -46 32 -35 83 -76 112 -92 29 -16 55 -31 58 -34 3 -3 18 -7 35 -9 16 -2 32 -7 35 -10 12 -16 167 -13 240 4 41 10 81 18 87 17 7 0 11 2 9 6 -3 4 11 16 31 27 20 10 37 17 39 14 1 -3 11 6 23 20 11 14 20 21 21 17 0 -18 91 101 117 153 15 30 30 57 33 60 6 6 8 21 18 140 5 52 5 97 1 100 -6 5 -23 64 -24 85 0 6 -3 12 -6 15 -3 3 -19 29 -34 58 -38 70 -132 156 -214 195 -36 18 -67 35 -69 38 -2 4 -12 5 -22 2 -11 -3 -20 -1 -20 4 0 5 -15 8 -32 6 -19 -3 -28 -1 -21 4 6 4 -17 8 -54 8 -36 0 -67 -4 -70 -8z m103 -186 c-3 -4 6 -6 19 -3 15 2 25 0 25 -7 0 -7 4 -9 10 -6 14 9 87 -32 135 -76 23 -22 52 -62 64 -90 26 -60 39 -149 22 -149 -6 0 -11 3 -12 8 0 4 -2 15 -4 25 -2 9 1 17 6 17 14 0 11 17 -4 23 -10 4 -14 -6 -13 -41 1 -35 5 -46 15 -44 21 5 8 -58 -25 -114 -44 -75 -178 -156 -235 -141 -11 3 -17 1 -13 -5 5 -7 -12 -8 -51 -3 -174 21 -284 139 -284 303 0 41 5 72 10 72 6 0 8 4 4 9 -7 12 15 61 27 61 5 0 6 5 3 11 -10 16 83 101 139 128 27 12 60 21 72 18 13 -2 21 0 18 4 -3 5 13 9 36 9 23 0 39 -4 36 -9z"/>
<path d="M6187 7540 c-126 -5 -129 -6 -153 -33 -26 -31 -32 -83 -13 -119 10 -18 9 -20 -5 -15 -9 4 -16 2 -16 -3 0 -5 10 -10 23 -11 262 -12 299 -10 332 12 18 13 31 29 28 36 -3 7 -1 13 4 13 5 0 9 8 8 18 -3 37 -17 61 -48 84 -31 22 -38 23 -160 18z"/>
<path d="M7665 7529 c-34 -20 -50 -43 -48 -69 0 -14 1 -33 2 -43 1 -10 12 -29 26 -42 23 -24 29 -25 160 -25 131 0 137 1 160 25 29 29 35 104 10 125 -8 7 -13 16 -10 19 6 11 -8 13 -150 17 -86 3 -137 0 -150 -7z"/>
<path d="M5110 7189 c-55 -7 -80 -36 -80 -94 0 -39 -2 -42 -27 -43 -16 0 -66 -7 -112 -16 -47 -8 -88 -13 -93 -10 -4 3 -8 1 -8 -4 0 -6 -17 -13 -37 -17 -21 -4 -78 -22 -127 -40 -50 -19 -94 -31 -100 -28 -5 4 -6 1 -1 -7 6 -10 4 -12 -9 -7 -10 4 -15 3 -11 -3 6 -9 2 -12 -27 -14 -7 -1 -20 -7 -28 -14 -8 -8 -49 -35 -90 -60 -147 -91 -293 -224 -384 -349 -21 -29 -43 -53 -49 -53 -5 0 -8 -3 -4 -6 3 -3 -12 -34 -33 -68 -52 -82 -113 -221 -143 -324 -13 -45 -26 -80 -28 -77 -3 3 -6 -10 -6 -28 0 -17 -4 -60 -8 -95 -7 -56 -5 -66 14 -93 12 -16 19 -35 15 -42 -5 -6 1 -5 11 3 14 11 19 12 22 2 3 -6 9 -9 14 -6 5 3 32 0 60 -7 39 -10 54 -10 69 -1 14 9 109 12 347 12 216 0 323 -4 313 -10 -11 -7 -7 -10 18 -10 17 0 32 4 32 10 0 11 28 9 49 -4 10 -6 12 -5 7 2 -4 7 -1 12 9 12 9 0 14 -3 12 -7 -3 -5 38 -8 92 -9 69 0 83 1 51 6 l-45 7 48 1 c26 1 47 -2 47 -8 0 -5 7 -10 15 -10 8 0 15 4 15 9 0 5 18 9 40 8 22 -1 40 -5 40 -9 0 -5 5 -8 11 -8 5 0 7 5 4 10 -3 6 -1 10 5 10 7 0 9 -138 8 -457 l-3 -458 -451 -3 -451 -2 -24 -26 c-24 -25 -24 -30 -27 -230 -3 -195 -2 -206 19 -244 12 -21 25 -39 28 -38 3 0 210 0 459 -1 l452 -1 0 -549 0 -550 -152 -3 c-84 -2 -160 -6 -168 -8 -32 -11 -109 -99 -116 -135 l-6 -35 -158 0 -157 0 -8 53 c-4 28 -8 64 -10 78 -1 14 -5 30 -8 36 -7 11 -8 28 -8 98 1 31 -1 37 -10 25 -8 -12 -10 -8 -6 18 2 17 -1 32 -5 32 -5 0 -8 10 -7 23 1 12 -1 30 -6 40 -4 9 -5 26 -2 37 3 10 2 20 -3 22 -4 2 -10 22 -13 46 -5 39 -4 42 11 30 11 -9 14 -9 9 -1 -6 9 2 12 27 11 41 -1 82 23 98 58 6 13 14 24 17 24 3 0 3 46 0 102 -6 110 -21 158 -67 217 -15 20 -26 39 -24 43 1 5 -1 7 -6 6 -9 -3 -72 34 -72 42 0 3 -10 7 -22 7 -13 1 -24 6 -25 10 -2 4 -161 7 -354 5 -317 -2 -351 -1 -339 13 11 13 10 14 -4 9 -16 -6 -20 10 -19 79 0 9 -3 17 -7 17 -7 0 -36 161 -34 193 0 9 -4 17 -9 17 -5 0 -7 11 -5 25 3 14 1 25 -5 25 -5 0 -7 13 -4 29 4 16 3 31 -1 33 -11 4 -44 157 -37 169 4 5 1 9 -6 9 -7 0 -9 10 -7 25 3 13 1 22 -3 19 -5 -3 -10 6 -10 20 -3 46 -4 51 -9 56 -3 3 -16 29 -28 59 -66 162 -194 269 -333 279 -58 4 -68 2 -93 -20 -25 -21 -28 -31 -30 -85 0 -34 2 -59 5 -57 13 8 20 -97 8 -112 -6 -8 -9 -17 -5 -21 3 -3 6 -1 6 5 0 7 5 12 10 12 6 0 10 -11 10 -24 0 -14 -4 -28 -10 -31 -5 -3 -10 -1 -10 6 0 7 -2 10 -5 7 -8 -8 6 -38 17 -38 5 0 6 5 3 10 -3 6 -1 10 6 10 7 0 10 -11 7 -30 -3 -16 -1 -30 3 -30 6 0 20 -76 25 -140 1 -14 5 -33 9 -42 4 -10 5 -25 2 -33 -4 -8 -1 -17 4 -21 6 -3 9 -17 6 -30 -2 -13 1 -25 7 -27 8 -3 7 -15 -2 -41 -8 -21 -11 -40 -8 -43 3 -4 6 1 6 10 0 10 5 17 10 17 15 0 12 -48 -3 -57 -9 -5 -11 -16 -6 -33 l7 -25 1 28 c1 15 6 27 12 27 7 0 9 -10 7 -25 -3 -14 -2 -25 1 -25 9 0 32 -160 26 -170 -3 -5 -2 -10 2 -12 5 -1 18 -64 31 -138 24 -145 29 -256 12 -245 -8 5 -9 -10 -4 -44 4 -34 3 -56 -6 -65 -6 -9 -9 -20 -5 -26 9 -15 -5 -181 -15 -175 -4 3 -5 -16 -2 -40 3 -28 1 -45 -6 -45 -6 0 -9 -15 -6 -36 2 -19 2 -39 -1 -45 -3 -5 -8 -44 -10 -86 -3 -43 -8 -79 -13 -81 -4 -1 -6 -18 -4 -37 l4 -34 -146 0 -146 0 0 710 0 710 -27 25 -27 25 -270 -4 c-285 -5 -298 -5 -290 -19 3 -4 0 -8 -5 -8 -7 0 -11 -348 -11 -1112 0 -611 -2 -1113 -4 -1116 -7 -6 25 -37 51 -51 16 -8 300 -11 1042 -11 l1021 0 0 -149 c0 -141 1 -151 23 -176 l22 -25 2022 -3 c1113 -1 2023 2 2023 6 0 5 6 5 13 1 6 -4 9 -4 5 1 -4 4 2 19 12 33 19 24 20 43 20 564 l0 540 -29 29 -29 29 -166 0 -166 0 0 535 0 535 168 2 c92 0 175 1 185 0 9 -1 17 3 17 9 0 5 -6 7 -12 3 -7 -4 -5 2 6 14 29 33 36 93 15 116 -10 10 -17 22 -14 25 8 13 -46 15 -388 16 l-349 0 -19 -24 c-15 -18 -19 -37 -18 -78 1 -29 5 -51 7 -48 3 2 16 -5 30 -15 20 -16 40 -20 108 -20 78 0 113 -13 62 -23 l-23 -4 23 -2 c20 -1 33 -21 13 -21 -5 0 -7 -17 -4 -37 3 -21 7 -250 9 -510 l5 -472 -176 0 c-96 1 -177 4 -180 9 -3 4 -6 35 -7 69 -2 33 -7 61 -11 61 -5 0 -7 17 -6 38 2 21 0 42 -4 48 -4 6 -9 50 -11 98 -3 47 -8 91 -11 96 -4 6 -6 25 -4 43 1 17 -2 40 -6 50 -4 9 -5 33 -3 52 2 19 1 36 -4 37 -11 4 -22 243 -13 265 5 10 9 29 10 43 1 14 2 42 3 63 1 22 6 36 12 32 5 -3 7 0 4 8 -5 14 21 188 33 217 3 8 5 27 4 43 -2 15 2 27 7 27 4 0 7 14 4 30 -3 19 0 30 7 30 7 0 9 4 6 10 -8 12 6 111 14 105 4 -2 5 9 3 26 -2 16 0 29 5 29 5 0 9 10 9 23 0 12 1 40 2 62 2 37 4 39 17 21 17 -23 20 -14 5 15 -8 14 -5 53 11 147 12 70 24 129 28 132 3 3 8 38 9 77 4 70 3 74 -28 104 -30 30 -34 31 -93 27 -128 -11 -242 -100 -316 -248 -22 -45 -41 -89 -41 -96 0 -8 -5 -14 -11 -14 -5 0 -8 -4 -5 -9 4 -5 1 -32 -6 -60 -9 -39 -15 -50 -26 -46 -12 4 -12 3 -3 -9 7 -9 9 -29 5 -55 -7 -45 -20 -54 -27 -18 -4 19 -4 19 -6 -5 0 -15 4 -30 9 -33 6 -3 10 -15 10 -26 0 -11 -4 -18 -9 -15 -4 3 -8 -7 -7 -22 0 -32 -46 -285 -54 -292 -3 -3 -6 -27 -8 -55 -1 -27 -4 -56 -7 -62 -3 -10 -83 -13 -350 -13 -279 0 -352 -3 -380 -14 -19 -8 -35 -13 -35 -11 0 2 -23 -17 -51 -43 -77 -70 -101 -126 -107 -244 -5 -114 -2 -134 35 -173 25 -27 33 -30 82 -27 l54 3 -7 -53 c-4 -29 -11 -54 -15 -56 -4 -1 -5 -16 -3 -32 2 -17 0 -30 -5 -30 -6 0 -8 -12 -5 -26 3 -18 0 -30 -12 -36 -9 -5 -16 -14 -16 -21 0 -7 4 -6 11 3 8 11 9 1 4 -35 -4 -27 -9 -54 -12 -58 -3 -5 -7 -34 -9 -65 -2 -31 -8 -58 -13 -60 -5 -2 -7 -11 -4 -20 2 -10 0 -29 -5 -42 l-10 -25 -148 5 c-82 3 -151 2 -152 -3 -7 -15 -22 5 -22 31 0 15 -7 37 -15 48 -8 12 -12 24 -10 28 3 3 2 4 -1 1 -4 -2 -22 9 -41 25 -18 16 -45 33 -58 36 -14 3 -25 9 -25 13 0 3 -63 5 -140 3 l-140 -3 0 550 0 551 455 0 c250 0 457 -1 460 -2 3 -2 14 11 25 27 21 33 43 118 29 109 -14 -8 -10 18 5 35 12 14 12 24 0 66 -7 28 -13 59 -12 70 0 13 3 9 8 -10 5 -19 6 -1 4 45 -8 130 -14 156 -37 178 -23 21 -29 22 -470 22 -297 1 -447 4 -447 11 0 6 -4 7 -10 4 -7 -4 -10 149 -10 451 0 363 3 455 13 447 6 -5 35 -8 62 -5 119 10 407 13 402 4 -4 -5 13 -9 38 -8 24 0 42 4 39 8 -8 13 379 8 395 -5 12 -9 13 -9 7 1 -6 9 28 12 154 12 158 0 161 1 185 25 14 13 25 29 25 36 0 6 6 9 13 6 9 -3 12 5 8 32 -3 28 -5 32 -11 16 -6 -17 -20 72 -24 153 -1 12 -4 22 -7 22 -5 0 -33 95 -34 115 0 6 -4 13 -8 16 -4 3 -9 16 -10 27 -1 12 -4 22 -8 22 -3 0 -19 28 -34 63 -16 34 -39 80 -53 102 -14 22 -25 46 -25 52 0 7 -4 13 -8 13 -5 0 -22 20 -39 45 -17 25 -29 45 -27 45 3 0 -28 34 -67 76 -39 43 -70 81 -68 86 1 5 -2 7 -7 4 -5 -3 -25 12 -45 34 -20 22 -36 38 -36 35 0 -3 -35 21 -78 53 -43 32 -116 77 -162 101 -47 24 -88 49 -92 55 -4 6 -8 8 -8 4 0 -3 -42 9 -92 27 -51 18 -129 40 -173 50 -44 9 -87 19 -95 22 -8 3 -40 6 -70 7 l-55 1 -6 51 c-9 72 -40 101 -99 93z m-295 -367 c-11 -9 -28 -29 -38 -44 -9 -16 -22 -28 -28 -28 -8 0 -7 5 1 15 9 10 9 15 1 15 -6 0 -11 -5 -11 -11 0 -5 -4 -8 -8 -5 -5 3 -9 -1 -9 -9 0 -8 3 -13 6 -12 15 5 6 -21 -44 -125 -30 -62 -55 -119 -55 -125 0 -7 -4 -13 -9 -13 -5 0 -8 -6 -7 -12 3 -28 -29 -108 -41 -104 -10 4 -10 1 0 -15 8 -13 9 -22 2 -27 -5 -4 -10 -14 -10 -22 0 -31 -28 -160 -35 -160 -4 0 -5 -13 -2 -30 2 -16 0 -30 -5 -30 -5 0 -7 -16 -5 -35 2 -19 0 -35 -4 -35 -5 0 -7 -29 -6 -65 l4 -65 -306 0 -306 0 6 28 c4 15 10 29 13 32 3 3 7 18 9 35 8 69 138 334 157 318 4 -5 5 -3 2 4 -10 16 117 181 135 175 4 -1 7 1 6 6 -7 20 218 205 249 205 7 0 11 3 8 5 -8 9 129 82 143 77 6 -2 12 -1 12 3 0 11 90 43 101 36 5 -3 9 0 9 6 0 7 7 10 15 6 8 -3 15 -1 15 4 0 5 8 11 18 13 33 9 37 6 17 -11z m387 -20 c66 -60 177 -229 161 -246 -4 -3 -2 -6 4 -6 14 0 35 -49 27 -62 -4 -7 -2 -8 4 -4 11 7 16 -7 15 -41 -1 -7 3 -13 7 -13 4 0 20 -37 34 -82 20 -62 24 -84 15 -92 -9 -8 -10 -6 -7 9 3 11 -1 26 -8 33 -12 11 -13 7 -10 -20 2 -24 8 -33 21 -33 20 0 39 -40 31 -67 -2 -10 0 -18 6 -18 6 0 8 -11 6 -25 -3 -14 -1 -25 4 -25 6 0 7 -11 4 -24 -3 -14 -2 -27 3 -31 5 -3 12 -31 16 -63 3 -31 8 -69 10 -84 l5 -28 -435 0 c-356 0 -435 2 -435 13 0 8 3 17 7 21 4 4 6 25 4 46 -1 22 2 40 7 40 4 0 7 14 4 30 -3 19 0 30 7 30 7 0 9 5 6 10 -8 13 36 200 46 200 4 0 5 9 2 20 -3 11 -1 20 3 20 5 0 10 12 11 27 0 15 6 29 12 31 6 2 9 7 6 11 -12 21 74 203 149 310 101 148 181 182 258 113z m276 17 c23 -6 42 -14 42 -18 0 -3 11 -7 24 -7 32 -2 207 -89 240 -119 14 -13 26 -22 26 -19 0 10 93 -62 117 -91 14 -16 22 -23 18 -15 -5 8 11 -3 34 -25 83 -79 226 -269 215 -286 -3 -5 0 -9 6 -9 9 0 80 -139 80 -157 0 -3 -7 -3 -15 1 -8 3 -15 1 -15 -4 0 -6 9 -10 20 -10 23 0 26 -10 8 -29 -11 -10 -10 -11 3 -6 13 5 20 -6 33 -53 28 -101 57 -92 -284 -92 l-300 0 -2 53 c-1 28 -2 64 -2 80 -1 15 -5 27 -9 27 -5 0 -7 15 -6 33 2 18 0 37 -3 42 -3 6 -9 26 -13 46 -5 27 -2 40 10 52 9 10 13 17 8 17 -5 0 -14 -5 -21 -12 -9 -9 -12 -5 -14 18 0 16 -1 36 0 44 0 8 -3 17 -6 20 -8 5 -90 242 -95 270 -1 8 -5 17 -8 20 -3 3 -25 43 -50 89 -24 46 -60 101 -79 124 -19 22 -28 37 -20 34 8 -3 34 -11 58 -18z m-2397 -2065 c25 -55 52 -162 44 -174 -3 -6 -1 -10 4 -10 6 0 11 -9 11 -21 0 -13 -4 -18 -12 -13 -7 4 -8 3 -4 -5 4 -6 12 -9 17 -6 8 6 10 -5 13 -72 1 -10 5 -21 9 -24 5 -3 9 -31 10 -62 1 -30 5 -53 8 -51 10 6 21 -79 13 -102 -5 -16 -4 -17 6 -4 9 12 11 9 8 -17 -3 -19 0 -29 5 -26 6 3 8 -7 5 -25 -2 -18 0 -28 5 -25 5 3 8 -11 5 -35 -2 -22 0 -38 4 -36 5 3 8 -4 8 -15 0 -18 -6 -21 -44 -21 -52 0 -55 4 -60 62 -2 24 -7 51 -11 61 -4 9 -5 26 -2 37 3 11 1 20 -5 20 -5 0 -8 10 -7 23 1 12 -1 30 -6 40 -4 9 -5 24 -1 32 3 8 1 15 -5 15 -7 0 -10 14 -7 34 2 19 1 33 -2 31 -10 -6 -32 149 -24 168 3 10 2 17 -4 17 -11 0 -36 145 -27 160 3 5 1 10 -6 10 -7 0 -9 10 -7 25 3 14 1 25 -5 25 -5 0 -7 14 -5 30 3 17 1 30 -4 30 -4 0 -8 10 -8 21 0 18 5 16 31 -17 18 -22 40 -57 50 -80z m4143 30 c-9 -32 -16 -67 -16 -76 1 -10 -3 -18 -8 -18 -4 0 -6 -9 -3 -20 3 -11 2 -28 -2 -37 -4 -10 -9 -33 -11 -52 -4 -42 -32 -217 -45 -286 -5 -27 -10 -57 -10 -65 0 -8 -3 -22 -6 -30 -3 -8 -7 -37 -9 -65 -2 -27 -8 -66 -12 -85 -7 -32 -11 -35 -49 -38 -28 -2 -42 1 -46 11 -8 21 4 98 14 91 5 -3 6 9 2 27 -5 25 -3 30 7 24 9 -5 11 -4 6 4 -9 13 13 161 24 161 4 0 5 11 2 25 -2 15 0 25 7 25 7 0 9 5 6 10 -9 14 5 101 16 95 4 -3 5 10 2 30 -3 19 -2 35 3 35 5 0 10 19 11 42 1 23 6 44 12 46 5 2 8 9 5 16 -12 31 82 198 97 174 6 -9 9 -3 10 17 1 17 3 23 6 14 2 -8 -4 -42 -13 -75z m-1238 -274 l0 -90 -863 0 -863 0 0 90 0 90 863 0 862 0 1 -90z m-3585 -294 c0 -12 1 -83 2 -158 2 -75 6 -140 10 -144 4 -4 7 13 8 37 1 24 2 98 4 164 1 66 4 122 6 125 2 3 6 -315 9 -706 5 -668 6 -713 23 -732 10 -11 32 -22 49 -26 16 -3 1272 -6 2789 -6 l2759 0 0 -415 0 -415 -1887 0 c-1458 0 -1884 3 -1875 12 8 8 12 50 12 122 0 76 -3 106 -10 96 -7 -11 -10 -4 -10 27 0 30 -7 50 -24 70 l-24 28 -1031 3 -1031 2 0 969 0 969 110 0 c105 -1 110 -2 111 -22z m1679 -388 c0 -5 4 -7 9 -4 14 9 63 -55 58 -76 -3 -10 -1 -18 4 -18 5 0 9 -9 9 -20 0 -20 -7 -20 -490 -20 l-490 0 0 68 c0 38 3 72 7 76 11 11 893 6 893 -6z m2990 -64 l0 -74 -497 2 c-437 3 -498 5 -495 18 2 8 6 23 8 33 8 44 18 60 47 77 28 18 58 19 484 18 l453 0 0 -74z m-3075 -289 c0 -16 3 -32 6 -35 5 -5 39 -195 39 -220 0 -6 -4 -8 -10 -5 -5 3 -10 15 -10 25 0 10 -4 21 -9 25 -5 3 -9 -10 -8 -29 1 -19 4 -34 7 -34 32 2 36 -6 53 -99 9 -54 20 -108 23 -121 l7 -23 -502 1 c-435 1 -501 4 -501 16 0 9 4 13 9 10 5 -4 7 12 4 36 -4 34 -2 40 7 28 9 -12 10 -9 5 14 -6 29 15 216 25 216 3 0 6 39 8 88 1 48 7 89 12 90 6 2 7 8 4 13 -3 6 -3 17 0 25 5 12 63 14 418 12 l413 -3 0 -30z m3046 28 c5 -63 19 -98 19 -50 0 15 5 27 11 27 7 0 10 -15 7 -40 -2 -22 -1 -40 3 -40 5 0 17 -95 24 -191 1 -14 5 -31 9 -37 4 -7 7 -22 6 -35 -1 -12 -1 -24 0 -27 9 -22 25 -152 18 -156 -4 -3 -8 -2 -8 3 0 4 -222 7 -493 7 -270 -1 -486 0 -479 3 6 3 10 8 7 12 -6 11 47 315 56 319 4 2 5 10 2 18 -3 8 -2 22 2 32 4 9 7 29 6 45 -2 15 2 27 7 27 6 0 8 8 5 18 -2 10 0 30 6 44 l10 27 391 1 c214 0 390 -3 391 -7z"/>
<path d="M6455 7032 c-3 -7 -8 -12 -12 -10 -5 2 -44 -34 -89 -79 -44 -46 -80 -83 -78 -83 1 0 -2 -16 -6 -34 -5 -23 -3 -43 5 -59 10 -19 10 -24 -1 -24 -8 0 -14 6 -14 13 0 7 -3 15 -7 17 -5 3 -8 -5 -8 -18 0 -13 3 -21 8 -18 4 2 7 0 7 -5 0 -5 10 -9 23 -9 12 0 39 -3 59 -7 29 -6 44 -4 70 12 54 34 176 166 183 198 3 16 11 37 16 48 7 12 7 16 0 12 -5 -4 -25 8 -43 26 -25 26 -42 33 -70 33 -22 0 -40 -6 -43 -13z"/>
<path d="M7445 7008 c-22 -26 -26 -39 -23 -77 3 -43 9 -51 90 -129 70 -69 93 -85 125 -89 52 -7 89 23 101 80 l8 42 -100 103 c-91 93 -103 102 -137 102 -29 0 -43 -7 -64 -32z"/>
<path d="M6934 6818 c-11 -15 -21 -28 -24 -28 -3 0 -3 -65 0 -145 5 -130 7 -147 26 -166 44 -43 134 -19 156 41 5 16 10 75 12 132 1 57 5 114 9 128 l8 25 -12 -25 -12 -25 -6 24 c-9 34 -52 63 -98 65 -34 2 -43 -2 -59 -26z"/>
</g>
</svg>
