<?xml version="1.0" standalone="no"?>
<!DOCTYPE svg PUBLIC "-//W3C//DTD SVG 20010904//EN" "http://www.w3.org/TR/2001/REC-SVG-20010904/DTD/svg10.dtd">
<svg xmlns="http://www.w3.org/2000/svg" version="1.0" width="1024.000000pt" height="1024.000000pt" viewBox="0 0 1024.000000 1024.000000" preserveAspectRatio="xMidYMid meet">
<metadata>
Created by potrace 1.16, written by Peter Selinger 2001-2019
<meta name="Producer" content="Online-Convert"/></metadata>
<g transform="translate(0.000000,1024.000000) scale(0.100000,-0.100000)" fill="#000000" stroke="none">
<path d="M6626 8456 c-19 -29 -45 -126 -47 -171 l-1 -30 -9 30 c-6 23 -7 19 -3 -17 5 -49 -15 -212 -67 -528 -17 -102 -32 -199 -34 -217 -2 -18 -6 -40 -9 -50 -3 -10 -8 -34 -10 -53 -3 -19 -29 -161 -60 -315 -50 -254 -64 -330 -70 -375 -2 -8 -5 -24 -9 -35 -4 -11 -9 -34 -11 -50 -3 -17 -18 -88 -35 -160 -16 -71 -42 -197 -57 -280 -16 -82 -32 -152 -37 -153 -4 -2 -3 -10 4 -18 9 -11 9 -14 0 -14 -7 0 -10 -4 -6 -9 5 -9 -9 -86 -23 -121 -3 -8 -6 -17 -6 -20 -5 -19 -40 -59 -49 -53 -5 3 -7 1 -4 -4 9 -14 -32 -65 -45 -57 -6 4 -8 2 -5 -4 8 -11 -61 -98 -74 -94 -5 1 -8 -2 -7 -7 2 -5 -9 -22 -23 -38 -14 -16 -38 -47 -53 -68 -16 -22 -26 -33 -23 -24 9 29 65 264 72 302 3 20 8 54 11 75 2 20 6 44 9 52 4 15 15 146 20 230 1 25 6 90 10 145 4 59 2 162 -5 250 -6 83 -12 183 -13 222 -1 40 -5 73 -8 73 -6 0 -13 33 -25 125 -5 36 -36 181 -50 230 -3 11 -8 31 -11 45 -2 14 -7 32 -10 40 -7 18 -5 11 -22 80 -8 30 -18 61 -24 68 -5 6 -7 12 -4 12 3 0 -5 30 -17 68 -36 106 -87 222 -97 222 -5 0 -9 6 -9 13 0 20 -32 46 -70 57 -18 5 -30 7 -27 4 3 -3 -4 -15 -15 -26 -17 -17 -19 -28 -13 -67 3 -25 8 -59 10 -76 2 -16 6 -50 9 -75 3 -25 8 -70 11 -100 3 -30 8 -77 12 -105 4 -27 7 -107 7 -177 1 -70 4 -120 8 -110 5 12 7 8 7 -13 1 -16 4 -104 8 -195 7 -162 6 -446 -1 -485 -3 -11 -5 -54 -6 -95 -1 -53 -4 -68 -10 -50 -5 15 -7 -16 -7 -80 1 -133 -12 -282 -24 -274 -5 3 -4 -7 1 -21 6 -15 7 -31 4 -37 -4 -6 -8 -27 -10 -47 -2 -20 -10 -76 -19 -126 -8 -49 -24 -148 -36 -220 -23 -140 -23 -138 -32 -175 -4 -14 -9 -36 -11 -50 -12 -64 -59 -220 -82 -270 -26 -57 -81 -123 -95 -114 -5 3 -6 -2 -3 -10 6 -16 3 -17 -191 -21 -16 0 -36 -4 -43 -8 -7 -5 -51 -10 -98 -12 -47 -1 -88 -6 -92 -10 -4 -3 7 -4 23 -1 29 6 30 6 5 -5 -14 -7 -28 -13 -32 -14 -5 -2 -9 -3 -10 -5 -2 -1 -12 -3 -22 -5 -11 -2 -50 -20 -87 -39 l-67 -35 47 48 c26 27 54 63 61 80 7 17 16 31 19 31 4 0 25 35 46 78 54 109 54 107 65 149 5 21 19 72 30 113 16 60 21 105 21 223 0 144 -15 272 -32 282 -4 3 -6 12 -3 19 3 8 1 17 -5 21 -6 3 -11 15 -11 26 0 25 -97 243 -110 247 -6 2 -10 9 -10 15 0 7 -9 23 -20 37 -22 29 -26 45 -7 34 7 -4 9 -3 4 2 -5 5 -12 9 -16 9 -5 0 -37 32 -71 70 -35 39 -73 78 -84 88 -56 49 -74 64 -111 92 -52 39 -265 146 -276 139 -5 -3 -9 0 -9 6 0 7 -8 9 -20 5 -12 -4 -20 -2 -20 5 0 6 -4 8 -10 5 -5 -3 -16 -3 -22 2 -15 9 -18 9 -76 22 -24 5 -52 6 -63 4 -10 -3 -19 -1 -19 4 0 5 -44 7 -100 5 -55 -3 -112 0 -130 6 -16 6 -30 7 -30 2 0 -9 -31 -17 -97 -25 -23 -3 -55 -10 -70 -16 -15 -6 -39 -13 -52 -15 -14 -3 -29 -8 -35 -12 -12 -7 -31 -12 -63 -15 -12 -1 -20 -4 -17 -6 4 -4 -94 -66 -153 -96 -18 -10 -33 -21 -33 -26 0 -5 -7 -9 -15 -9 -9 0 -66 -51 -128 -113 -91 -91 -124 -134 -178 -225 -36 -61 -68 -110 -70 -108 -2 3 -5 -5 -5 -17 -2 -21 -10 -59 -14 -64 -2 -2 -4 -7 -5 -13 -1 -5 -4 -12 -5 -15 -1 -3 -3 -11 -4 -17 -1 -7 -10 -12 -21 -10 -18 2 -18 1 -3 -8 9 -6 15 -16 13 -23 -2 -6 -6 -25 -9 -40 -4 -15 -11 -25 -16 -22 -6 4 -7 11 -4 17 4 7 2 8 -4 4 -9 -5 -9 -13 -2 -26 12 -22 13 -53 2 -46 -4 2 -8 -6 -8 -19 0 -13 4 -21 8 -19 5 3 5 -7 1 -23 -14 -51 -6 -231 16 -333 6 -28 6 -49 0 -54 -5 -6 -9 -17 -8 -25 0 -11 3 -10 9 4 6 16 9 17 13 5 20 -58 26 -83 21 -91 -3 -5 0 -9 5 -9 6 0 11 -7 11 -16 0 -8 10 -38 22 -66 18 -42 19 -51 7 -60 -12 -8 -11 -9 2 -5 9 3 21 -4 29 -16 30 -45 40 -69 33 -80 -3 -5 -1 -7 4 -4 6 4 13 0 16 -7 3 -8 1 -17 -6 -20 -7 -3 -5 -4 4 -3 19 2 112 -107 101 -118 -4 -5 -2 -5 4 -2 6 4 27 -10 47 -31 20 -20 52 -48 71 -62 20 -14 50 -36 66 -49 40 -32 58 -42 159 -91 46 -22 82 -42 80 -44 -2 -3 -36 -7 -74 -9 -73 -5 -116 -13 -150 -26 -76 -30 -120 -38 -109 -19 4 7 3 8 -5 4 -6 -4 -9 -11 -6 -15 2 -5 -12 -16 -33 -25 -38 -17 -58 -28 -147 -80 -62 -37 -219 -187 -247 -238 -12 -21 -25 -38 -29 -38 -4 0 -17 -19 -28 -42 -12 -24 -32 -61 -45 -83 -29 -52 -66 -156 -70 -203 -3 -21 -5 -37 -6 -37 -15 0 -19 -289 -5 -375 4 -25 8 -61 9 -82 0 -20 5 -34 10 -30 5 3 7 -5 4 -16 -4 -12 -2 -20 3 -16 5 3 9 0 9 -7 0 -7 11 -36 25 -66 14 -29 23 -59 19 -65 -4 -6 -3 -8 3 -5 5 3 17 -10 27 -29 14 -30 14 -39 4 -53 -11 -14 -11 -14 3 -4 13 11 19 8 38 -17 12 -17 19 -36 15 -42 -4 -6 -3 -8 3 -5 15 9 73 -58 74 -85 0 -13 3 -17 6 -10 4 10 9 8 21 -5 10 -10 29 -26 45 -36 15 -10 27 -22 27 -28 0 -6 -4 -8 -9 -4 -5 3 -13 0 -17 -6 -5 -9 0 -10 16 -6 17 4 32 -2 54 -20 17 -14 30 -29 29 -33 -1 -4 5 -7 15 -6 9 0 16 -5 14 -12 -1 -8 2 -11 7 -7 13 7 113 -49 104 -59 -4 -4 1 -4 11 0 11 4 17 3 14 -2 -3 -5 8 -10 26 -11 17 -1 45 -8 61 -17 17 -9 36 -16 43 -16 7 0 15 -7 19 -16 3 -9 8 -11 12 -6 4 7 34 5 86 -4 76 -13 248 -14 322 -1 39 7 113 26 133 34 8 3 22 7 30 9 20 4 162 76 182 92 11 9 27 12 44 8 24 -6 26 -5 15 8 -10 12 -9 16 7 25 11 6 23 7 27 3 3 -4 5 -2 4 3 -2 6 27 39 65 75 38 36 89 92 114 125 25 33 49 62 52 65 3 3 22 40 41 82 18 43 39 78 46 78 6 0 15 4 18 10 4 6 -1 7 -12 4 -14 -4 -15 -4 -4 4 11 8 11 10 0 15 -8 3 -9 6 -3 6 15 1 107 -93 94 -97 -5 -2 -10 -8 -10 -14 0 -5 9 -7 20 -3 12 4 30 -2 49 -16 26 -19 29 -25 18 -38 -10 -14 -10 -14 4 -4 13 10 19 10 35 -3 10 -8 13 -12 5 -8 -9 5 -12 3 -7 -5 4 -6 11 -9 16 -6 10 6 103 -48 96 -56 -3 -3 3 -5 12 -6 9 -1 56 -16 103 -35 61 -24 84 -38 82 -48 -3 -11 -2 -12 4 -3 7 10 35 8 123 -8 113 -20 184 -21 369 -4 63 6 192 45 248 75 21 11 42 20 48 20 5 0 36 16 68 35 32 19 63 32 69 29 6 -4 8 -2 5 4 -4 5 16 27 45 48 29 21 64 47 76 59 43 37 180 206 198 243 9 20 20 39 23 42 15 12 80 160 96 217 10 35 20 61 24 59 3 -2 7 10 7 27 1 18 5 100 9 182 6 117 4 164 -7 212 -11 45 -12 65 -4 74 8 9 8 10 -1 5 -8 -4 -15 11 -22 46 -14 65 -107 259 -150 312 -17 21 -31 42 -31 46 0 13 -143 156 -200 200 -30 24 -54 46 -53 50 1 4 -4 7 -11 7 -7 0 -40 16 -72 36 -69 41 -200 96 -252 104 l-35 6 54 15 c30 8 64 15 76 16 11 1 19 4 17 7 -3 5 250 84 306 95 14 3 45 11 70 19 71 22 151 36 162 29 6 -4 8 -3 5 3 -5 8 182 59 261 70 13 2 71 15 130 29 122 29 130 30 192 39 25 3 52 9 60 12 8 3 31 7 50 10 19 2 100 15 180 30 80 14 154 27 165 29 11 1 38 6 60 10 22 4 72 8 112 8 39 1 70 3 68 7 -2 3 73 15 166 28 178 23 229 40 229 76 0 26 -56 64 -112 77 -44 10 -71 16 -98 23 -8 2 -19 4 -23 4 -5 1 -5 7 -1 14 5 9 4 9 -6 0 -8 -7 -22 -8 -42 -2 -17 4 -35 6 -39 3 -5 -3 -15 -2 -21 3 -7 4 -22 9 -33 9 -11 1 -47 7 -80 13 -65 12 -263 25 -365 25 -212 -1 -481 -29 -531 -55 -10 -5 -21 -3 -29 4 -7 7 -10 7 -7 1 4 -7 -20 -17 -66 -28 -40 -10 -98 -26 -130 -37 -32 -11 -63 -16 -69 -13 -6 4 -8 3 -5 -3 8 -12 -69 -37 -85 -27 -6 4 -8 3 -5 -3 8 -13 -89 -57 -104 -47 -8 5 -9 3 -5 -5 5 -8 0 -14 -15 -18 -13 -4 -70 -30 -127 -59 -114 -59 -116 -56 -29 48 99 120 208 214 231 201 6 -3 8 -2 3 2 -9 11 104 86 121 80 7 -3 11 -1 8 4 -3 4 14 18 37 31 23 13 44 26 47 29 15 17 92 51 102 45 7 -4 8 -3 4 4 -8 13 67 55 79 44 5 -4 5 -2 2 4 -8 14 120 87 136 78 7 -4 9 -4 5 1 -11 11 140 97 155 89 7 -4 9 -4 5 1 -9 10 12 25 84 64 29 15 94 51 143 78 381 215 449 252 457 247 4 -3 8 1 9 8 0 7 28 27 62 43 65 32 517 277 577 313 19 12 51 29 70 37 50 23 90 64 90 93 0 59 -71 76 -200 48 -36 -8 -110 -25 -165 -37 -55 -12 -105 -25 -111 -30 -7 -6 -16 -8 -20 -7 -15 4 -269 -74 -369 -114 -27 -11 -59 -22 -70 -25 -11 -3 -85 -37 -164 -74 -79 -38 -148 -66 -154 -62 -5 3 -8 2 -4 -3 3 -5 -22 -26 -56 -47 -33 -21 -54 -30 -46 -20 29 37 93 93 105 93 7 0 16 4 19 10 4 6 -1 7 -12 3 -10 -3 20 34 67 83 47 49 88 88 93 86 4 -1 6 2 5 6 -2 5 47 67 108 138 61 71 139 165 175 209 35 44 68 85 74 91 5 6 45 59 88 118 47 64 82 104 89 100 7 -4 8 -3 4 5 -4 6 13 40 41 79 26 37 53 74 58 83 6 8 49 74 98 146 48 72 87 135 87 141 0 6 4 12 8 14 9 3 99 162 120 212 11 24 10 32 -3 52 -8 13 -24 24 -34 24 -21 0 -97 -55 -167 -120 -37 -34 -48 -40 -56 -29 -8 11 -9 11 -5 -3 4 -11 -20 -40 -81 -95 -149 -136 -164 -148 -174 -145 -5 1 -7 -2 -4 -7 8 -13 -53 -73 -66 -65 -6 4 -8 3 -5 -3 8 -13 -67 -86 -78 -76 -4 5 -5 3 -2 -3 8 -14 -26 -47 -38 -37 -4 5 -5 3 -2 -3 8 -14 -26 -47 -38 -37 -4 5 -5 3 -1 -4 8 -15 -63 -85 -77 -76 -5 3 -7 2 -4 -3 10 -17 -139 -177 -156 -167 -6 3 -7 1 -3 -5 4 -7 -11 -30 -34 -54 -23 -24 -39 -38 -36 -31 4 6 2 14 -3 17 -5 4 -8 -2 -6 -11 3 -22 -13 -54 -35 -70 -9 -6 -36 -38 -61 -70 -45 -59 -88 -110 -125 -149 -12 -13 -20 -24 -19 -26 2 -2 -14 -23 -36 -48 -36 -42 -39 -44 -45 -23 -7 24 -24 22 -24 -3 0 -8 4 -13 9 -9 5 3 12 1 16 -5 5 -9 -44 -85 -50 -78 -2 2 6 41 16 88 10 47 21 101 25 120 3 19 9 49 14 65 9 32 20 91 26 140 2 17 8 59 13 94 6 36 8 68 5 72 -2 4 0 18 5 32 34 88 34 678 0 900 -6 40 -12 83 -14 97 -8 86 -19 141 -26 146 -5 3 -7 9 -4 14 3 5 -1 25 -9 44 -8 19 -13 36 -10 38 2 2 -14 5 -35 6 -31 2 -41 -2 -55 -22z m53 -608 c1 -37 -12 -51 -22 -25 -3 7 -6 5 -6 -5 -1 -10 5 -18 12 -18 8 0 7 -4 -3 -10 -13 -8 -13 -10 1 -10 30 0 38 -130 19 -331 -5 -57 -11 -139 -14 -183 -2 -43 -8 -81 -12 -85 -5 -3 -9 -26 -10 -51 0 -53 -9 -129 -17 -150 -4 -8 -8 -28 -11 -45 -6 -40 -35 -166 -43 -185 -3 -8 -7 -25 -9 -37 -6 -45 -67 -233 -76 -233 -5 0 -7 -4 -3 -9 7 -12 -74 -193 -126 -283 -22 -37 -44 -77 -49 -90 -9 -20 -10 -19 -4 7 4 17 7 37 7 45 0 8 4 20 9 26 4 6 11 33 13 59 3 26 7 50 10 55 2 4 7 22 9 41 3 19 12 62 21 97 8 35 13 67 10 72 -3 5 -1 11 4 15 5 3 10 13 10 23 0 9 3 28 6 42 2 14 17 84 32 157 14 73 31 130 36 126 5 -3 4 4 -2 14 -6 11 -8 22 -6 24 2 3 6 16 9 29 52 260 97 497 110 580 9 58 21 125 26 150 10 47 19 100 26 160 2 19 8 36 13 38 6 2 7 10 4 18 -3 8 -2 26 3 42 l7 27 7 -30 c4 -16 8 -47 9 -67z m993 -349 c-49 -68 -94 -123 -101 -121 -7 1 -10 -2 -6 -8 3 -5 -15 -40 -42 -77 -65 -92 -94 -124 -106 -116 -6 3 -7 1 -3 -6 5 -7 -29 -57 -85 -126 -86 -106 -111 -134 -93 -102 4 6 4 9 0 5 -4 -3 -6 -8 -4 -10 10 -13 -169 -216 -185 -210 -5 1 -6 -2 -3 -7 6 -10 -68 -86 -84 -86 -4 0 -12 -4 -17 -9 -5 -5 -3 -6 5 -2 24 14 12 -10 -21 -42 -18 -18 -37 -29 -41 -25 -4 4 -4 0 -1 -8 4 -11 -7 -26 -32 -45 -21 -16 -42 -28 -46 -26 -5 1 -6 -2 -3 -7 9 -14 -167 -203 -183 -198 -3 1 -8 -2 -10 -8 -4 -14 -79 -95 -115 -125 -25 -21 -22 -14 18 45 140 201 202 285 345 465 42 52 92 116 111 141 32 43 63 80 238 276 30 35 60 60 66 56 6 -3 8 -3 4 2 -10 10 29 54 210 237 79 81 149 145 154 142 4 -3 7 -1 6 4 -3 9 104 121 110 116 2 -1 -37 -58 -86 -125z m-1899 -365 c11 -11 8 -24 -6 -24 -8 0 -14 -14 -15 -36 -2 -23 1 -33 8 -29 6 4 10 12 9 18 -1 7 0 19 1 27 2 14 10 -13 24 -85 4 -16 9 -41 12 -55 7 -27 8 -37 18 -115 27 -226 30 -267 29 -480 0 -237 -21 -419 -68 -605 -9 -36 -18 -74 -19 -85 -6 -44 -30 -141 -37 -150 -4 -6 -10 -22 -13 -35 -3 -14 -15 -50 -26 -80 -12 -30 -21 -55 -20 -55 2 0 -9 -27 -54 -135 -35 -82 -51 -99 -22 -23 15 38 21 71 32 153 4 38 25 172 49 320 26 160 54 435 60 603 3 61 9 105 17 115 7 9 8 13 2 9 -7 -4 -11 2 -11 18 0 14 4 25 9 25 6 0 6 6 -1 14 -7 8 -9 25 -7 38 13 54 14 192 4 316 -8 95 -8 139 0 156 7 15 7 27 1 33 -5 5 -12 70 -14 144 l-4 134 17 -62 c9 -34 20 -65 25 -69z m2027 -542 c-41 -21 -92 -48 -112 -60 -21 -13 -43 -20 -50 -16 -7 4 -10 4 -6 -1 7 -8 -51 -44 -212 -132 -61 -34 -146 -81 -545 -306 -88 -50 -185 -104 -215 -121 -30 -16 -61 -36 -68 -43 -7 -7 -17 -13 -22 -13 -5 0 -52 -25 -105 -55 -53 -31 -101 -53 -107 -49 -6 4 -8 3 -5 -3 3 -5 -29 -29 -71 -53 -42 -24 -85 -50 -94 -58 -10 -8 -18 -10 -18 -5 0 6 12 19 28 29 15 10 47 37 72 61 24 24 50 41 57 39 7 -3 15 0 19 6 4 7 3 8 -4 4 -33 -20 -4 8 61 60 39 32 77 63 82 69 6 6 42 33 80 60 39 26 84 59 102 72 18 14 37 21 44 17 7 -4 9 -3 6 3 -6 9 37 40 150 109 98 60 266 149 368 195 50 23 94 45 99 50 6 5 16 3 25 -4 10 -8 12 -8 8 -1 -6 11 9 22 38 30 6 1 53 19 105 39 52 20 102 38 110 40 60 13 200 54 216 63 10 6 24 11 29 11 6 0 -24 -17 -65 -37z m-3951 -168 c17 -4 28 -10 25 -15 -3 -5 7 -9 23 -8 25 0 26 1 8 10 -20 9 97 5 140 -5 96 -23 153 -42 234 -81 85 -41 92 -47 80 -63 -13 -15 -12 -16 3 -3 21 16 28 12 130 -73 81 -67 171 -173 162 -189 -4 -7 -3 -9 1 -4 11 9 35 -27 86 -125 41 -81 48 -104 27 -92 -8 4 -10 3 -5 -2 5 -5 13 -9 18 -9 5 0 9 -3 9 -7 1 -4 8 -27 16 -50 9 -24 17 -52 20 -63 2 -11 9 -43 15 -70 7 -30 10 -107 7 -185 -4 -135 -12 -176 -29 -149 -7 11 -9 10 -9 -3 0 -9 4 -18 9 -20 5 -1 7 -15 4 -30 -3 -15 -10 -25 -15 -22 -6 4 -8 -1 -4 -13 11 -34 -57 -208 -77 -196 -6 3 -7 1 -3 -5 4 -7 -13 -42 -39 -79 -99 -147 -115 -165 -143 -156 -14 4 -14 3 -3 -5 12 -9 10 -14 -10 -31 -70 -59 -90 -72 -100 -65 -7 4 -9 3 -6 -4 8 -11 -148 -112 -173 -112 -9 0 -21 -5 -27 -11 -12 -12 -176 -56 -248 -66 -97 -14 -235 -5 -353 22 -40 9 -70 21 -66 26 3 5 0 9 -5 9 -6 0 -11 -5 -11 -11 0 -8 -6 -7 -17 2 -9 8 -17 13 -17 11 -4 -13 -161 66 -236 117 -100 70 -245 230 -303 336 -31 57 -68 145 -73 172 -3 14 -7 30 -10 35 -3 4 -7 16 -9 25 -28 148 -34 197 -31 234 3 24 6 73 7 109 2 69 7 92 18 86 3 -2 7 19 8 48 3 70 65 221 135 326 57 87 160 197 179 192 6 -1 8 2 4 7 -7 12 98 93 116 89 8 -2 13 3 11 10 -1 7 9 17 22 22 13 5 27 14 31 20 3 5 11 8 16 5 5 -4 9 -1 9 4 0 6 7 11 15 11 8 0 37 11 64 24 51 24 89 36 166 51 11 2 29 6 40 8 11 3 26 -1 34 -7 11 -8 13 -8 8 1 -7 11 6 15 74 21 9 1 30 -1 48 -4z m3531 -1078 c54 -12 59 -15 28 -15 -43 -1 -506 -69 -528 -78 -16 -6 -47 -11 -95 -17 -66 -8 -121 -19 -138 -28 -10 -5 -21 -7 -24 -4 -3 3 -14 1 -23 -4 -10 -5 -37 -12 -60 -15 -23 -3 -46 -8 -51 -11 -5 -3 -28 -7 -51 -10 -53 -7 -231 -50 -279 -69 -20 -8 -39 -11 -43 -8 -3 3 -12 1 -19 -5 -8 -7 -16 -9 -19 -6 -3 3 -32 -4 -64 -16 -33 -11 -73 -23 -91 -26 -18 -3 -73 -18 -123 -35 -106 -34 -119 -36 -68 -8 21 10 40 18 42 17 2 -2 12 4 22 14 11 9 65 39 121 68 88 44 106 49 125 40 21 -10 21 -10 6 3 -16 13 -16 15 5 24 87 40 135 55 149 47 7 -4 10 -4 6 1 -9 10 29 31 74 40 18 4 38 10 43 14 6 3 12 6 15 7 3 0 25 6 50 13 44 13 64 18 105 26 174 36 261 48 365 51 69 3 129 6 134 7 28 9 331 -5 386 -17z m-2090 -650 c14 -2 48 -7 75 -11 110 -15 268 -70 358 -126 26 -16 51 -29 56 -29 6 0 13 -9 16 -20 4 -11 10 -18 15 -15 11 7 140 -113 192 -179 32 -41 36 -51 26 -64 -11 -13 -11 -14 0 -8 20 12 40 -11 73 -80 31 -68 37 -89 16 -60 -12 16 -14 17 -14 2 0 -9 11 -19 23 -22 13 -3 23 -9 22 -13 -1 -3 3 -15 9 -26 14 -26 37 -154 29 -162 -3 -4 -6 1 -6 11 0 10 -5 14 -11 10 -8 -4 -8 -9 0 -17 6 -6 12 -31 13 -56 l1 -46 7 45 c9 56 11 41 15 -85 3 -84 -1 -120 -27 -225 -16 -68 -45 -157 -63 -197 -42 -91 -143 -236 -157 -227 -6 4 -8 3 -5 -3 13 -21 -201 -203 -265 -225 -16 -6 -28 -14 -28 -19 0 -5 -3 -8 -7 -7 -5 2 -39 -10 -78 -26 -105 -43 -167 -57 -184 -43 -11 9 -13 9 -8 0 9 -15 -158 -28 -234 -18 -92 11 -169 27 -165 34 3 4 -8 6 -22 5 -15 -1 -31 1 -37 5 -5 3 -14 6 -20 7 -25 6 -83 42 -77 49 4 5 2 5 -5 1 -7 -4 -26 0 -43 9 -16 8 -31 14 -33 13 -2 -2 -10 4 -19 12 -8 8 -41 33 -73 55 -72 50 -166 146 -160 163 3 7 1 11 -3 8 -13 -8 -26 6 -70 74 -23 36 -40 71 -37 78 3 7 1 11 -3 8 -7 -4 -49 66 -57 94 -1 3 -4 12 -8 20 -11 30 -47 140 -47 146 0 4 8 0 17 -7 11 -9 9 -3 -5 16 -20 27 -23 45 -25 140 -2 107 3 158 27 270 22 103 158 374 185 367 6 -1 10 3 9 9 -2 5 20 36 47 68 83 96 267 223 298 204 5 -3 7 -1 4 4 -6 9 92 53 130 59 6 1 35 7 65 14 29 7 80 14 113 17 33 3 62 7 64 9 3 3 19 2 35 -1 17 -2 42 -7 56 -9z m-907 -278 c-43 -45 -119 -163 -144 -225 -16 -37 -26 -50 -38 -46 -13 3 -12 2 1 -7 16 -10 17 -14 3 -40 -8 -16 -15 -37 -16 -47 0 -16 -1 -16 -10 2 -19 37 -177 154 -231 172 -10 3 -18 8 -18 12 0 6 -65 34 -82 36 -3 0 -9 3 -13 7 -4 4 12 6 36 6 33 0 39 -3 24 -9 -19 -7 -19 -8 3 -8 12 -1 22 3 22 8 0 6 21 13 48 16 26 4 85 15 132 25 47 10 90 15 95 12 6 -3 7 -2 3 3 -4 4 26 22 66 40 41 18 89 41 108 53 45 28 47 27 11 -10z m-748 -199 c95 -21 148 -42 138 -54 -5 -4 -2 -5 5 -1 13 8 112 -28 122 -44 3 -4 19 -16 37 -27 56 -33 190 -148 202 -172 8 -16 -3 -172 -14 -201 -5 -13 -7 -13 -16 0 -9 13 -10 13 -6 0 2 -8 9 -14 15 -13 6 2 13 -12 16 -30 24 -168 32 -209 48 -256 11 -30 17 -65 14 -77 -5 -17 -3 -22 7 -18 8 3 14 -2 14 -11 0 -8 -6 -15 -14 -15 -7 0 -13 -5 -13 -11 0 -6 9 -9 19 -6 21 5 47 -36 35 -55 -4 -6 -3 -9 2 -5 5 3 22 -20 37 -51 18 -34 22 -50 12 -42 -13 11 -15 10 -9 -4 3 -9 10 -16 14 -16 5 0 -3 -34 -17 -75 -13 -41 -30 -75 -36 -75 -5 0 -8 -3 -4 -6 7 -8 -24 -70 -54 -104 -11 -14 -18 -20 -15 -13 4 6 1 15 -5 19 -9 5 -10 0 -6 -16 8 -31 -74 -132 -101 -124 -12 4 -13 3 -4 -3 9 -7 5 -15 -15 -34 -56 -50 -263 -180 -263 -165 0 3 -19 -2 -42 -10 -24 -9 -50 -17 -58 -19 -8 -2 -15 -4 -15 -6 0 -5 -61 -12 -152 -16 -67 -3 -103 -1 -103 6 0 6 -8 7 -22 2 -20 -7 -70 4 -218 48 -44 13 -144 63 -148 73 -2 4 -11 8 -19 8 -10 0 -13 6 -9 16 3 8 2 12 -4 9 -39 -24 -263 219 -310 339 -4 11 -16 39 -26 61 -10 22 -19 43 -20 48 -1 4 -2 8 -4 10 -1 1 -3 9 -5 17 -2 8 -7 26 -10 40 -23 88 -26 331 -6 405 70 258 213 453 421 573 69 41 179 89 220 97 14 3 36 7 49 10 13 2 26 7 29 10 13 13 230 2 307 -16z"/>
<path d="M3687 5844 c-18 -20 -44 -50 -59 -66 -14 -15 -24 -28 -22 -28 3 0 0 -9 -6 -20 -6 -11 -15 -18 -20 -15 -4 3 -10 1 -12 -5 -1 -5 -37 24 -78 65 -56 55 -82 75 -102 75 -55 0 -76 -59 -38 -107 11 -14 20 -35 21 -47 0 -11 3 -16 5 -10 6 15 74 -54 74 -75 0 -13 2 -13 9 -2 5 8 11 9 15 3 3 -5 -13 -22 -37 -37 -69 -47 -128 -99 -138 -122 -5 -15 -4 -33 3 -50 6 -16 11 -31 10 -34 0 -3 14 -3 31 -1 18 2 63 28 102 56 39 29 75 55 80 58 6 4 10 -33 10 -102 0 -59 3 -106 6 -104 3 2 12 -7 19 -20 7 -13 23 -29 37 -35 15 -7 22 -7 18 -1 -3 5 1 10 9 10 27 0 44 43 49 125 4 50 3 69 -2 50 -7 -25 -9 -21 -9 25 0 30 2 47 5 38 5 -18 43 -26 43 -9 0 5 30 -1 67 -14 74 -26 97 -22 113 21 19 49 -12 77 -130 120 -41 14 -77 28 -79 30 -1 1 24 42 58 91 65 94 72 119 42 145 -40 34 -60 32 -94 -8z"/>
<path d="M5421 4033 c-22 -27 -21 -43 5 -94 7 -15 22 -57 32 -95 l18 -69 -60 0 c-88 -1 -167 -14 -193 -31 -13 -8 -23 -11 -24 -7 0 5 -5 -5 -9 -21 -9 -30 8 -80 31 -88 6 -2 50 2 98 8 113 16 118 16 124 0 3 -8 -19 -54 -49 -102 -59 -97 -62 -108 -38 -142 19 -27 67 -29 92 -4 25 25 73 97 102 155 14 26 28 47 31 47 3 0 14 -9 24 -20 10 -11 13 -20 7 -20 -7 0 -12 -5 -12 -11 0 -8 4 -8 14 0 12 10 25 2 69 -43 32 -33 64 -56 76 -56 24 0 61 33 61 55 0 30 -39 90 -89 140 -28 27 -51 53 -51 57 0 4 24 23 53 41 82 53 127 96 127 122 0 32 -10 56 -21 49 -5 -3 -9 0 -9 5 0 18 -50 12 -79 -8 -17 -12 -37 -18 -52 -15 -19 3 -20 3 -5 -4 16 -7 11 -13 -35 -42 -30 -19 -57 -39 -61 -44 -3 -5 -5 16 -4 47 1 32 -1 51 -6 45 -5 -9 -8 -8 -8 4 0 10 -11 42 -24 71 -42 95 -95 122 -135 70z"/>
<path d="M3287 3208 c-8 -13 -20 -56 -27 -96 l-12 -72 -26 19 c-15 10 -47 39 -72 64 -29 29 -58 47 -80 51 -23 4 -28 3 -15 -3 19 -8 19 -8 -2 -15 -18 -6 -23 -15 -23 -39 0 -36 16 -64 68 -119 21 -22 31 -41 27 -49 -5 -8 -4 -10 3 -5 7 4 20 2 29 -4 17 -11 17 -11 1 -6 -13 4 -18 0 -18 -15 0 -13 4 -18 13 -13 8 5 7 2 -2 -10 -11 -13 -16 -14 -23 -4 -7 9 -8 7 -5 -8 2 -12 -2 -32 -9 -45 -20 -35 -17 -66 8 -89 34 -31 62 -25 103 23 21 23 42 52 48 65 13 28 24 28 120 -3 97 -31 155 -32 185 -5 25 24 26 30 10 64 -11 26 -17 29 -78 41 -19 4 -39 10 -45 13 -11 7 -17 8 -52 10 -12 1 -28 9 -36 17 -13 12 -13 21 -2 58 7 25 16 69 20 100 6 48 4 58 -14 76 -28 28 -76 28 -94 -1z"/>
</g>
</svg>
