<?xml version="1.0" standalone="no"?>
<!DOCTYPE svg PUBLIC "-//W3C//DTD SVG 20010904//EN"
 "http://www.w3.org/TR/2001/REC-SVG-20010904/DTD/svg10.dtd">
<svg version="1.0" xmlns="http://www.w3.org/2000/svg"
 width="1024.000000pt" height="1024.000000pt" viewBox="0 0 1024.000000 1024.000000"
 preserveAspectRatio="xMidYMid meet">
<metadata>
Created by potrace 1.16, written by Peter Selinger 2001-2019
</metadata>
<g transform="translate(0.000000,1024.000000) scale(0.100000,-0.100000)"
fill="#000000" stroke="none">
<path d="M6949 6839 c-8 -4 -57 -25 -109 -47 -52 -22 -192 -86 -310 -142 -118
-56 -246 -117 -285 -135 -38 -18 -133 -63 -210 -100 -242 -116 -395 -184 -408
-181 -7 1 -8 1 -3 -2 10 -5 -30 -26 -168 -89 -63 -28 -80 -33 -88 -22 -7 11
-8 10 -6 -3 2 -13 -26 -31 -110 -73 -63 -30 -118 -53 -123 -50 -5 4 -9 2 -9
-3 0 -13 -70 -43 -82 -36 -7 4 -8 2 -4 -4 7 -11 -7 -16 -41 -15 -7 1 -11 -3
-8 -6 6 -11 -65 -42 -78 -35 -7 4 -8 3 -4 -1 4 -5 -18 -22 -50 -37 -31 -15
-60 -24 -63 -21 -3 3 1 8 8 10 6 3 12 17 12 32 0 26 -9 32 -117 83 -65 31
-175 81 -245 113 -101 45 -126 60 -121 73 4 14 3 14 -5 3 -9 -13 -23 -9 -89
21 -43 20 -120 55 -170 78 -53 25 -90 47 -86 53 4 6 1 7 -6 3 -12 -8 -178 65
-580 252 -79 37 -149 75 -155 84 -14 23 3 70 27 74 22 3 125 -41 111 -48 -5
-3 -3 -3 4 -1 7 1 43 -11 80 -28 37 -18 110 -52 162 -76 52 -25 129 -61 170
-80 41 -20 125 -59 185 -88 61 -28 138 -64 172 -80 36 -15 60 -32 56 -38 -3
-6 -1 -7 5 -3 14 9 134 -43 127 -55 -3 -4 0 -11 6 -15 8 -4 9 -3 5 4 -9 15 -3
15 28 1 14 -7 24 -15 22 -18 -2 -3 6 -7 17 -8 12 0 132 -53 267 -116 135 -63
256 -117 269 -120 16 -4 30 1 46 17 12 12 28 20 36 18 9 -2 10 -1 3 5 -6 4
-14 18 -18 30 -4 12 -16 25 -27 28 -10 4 -17 11 -14 16 3 5 0 6 -8 4 -7 -3
-93 33 -190 80 -98 47 -179 85 -181 85 -4 0 -555 256 -736 342 -63 30 -148 70
-187 88 -40 18 -70 36 -68 41 3 4 0 11 -6 15 -8 4 -9 3 -5 -4 4 -7 5 -12 1
-12 -14 0 -274 124 -270 129 7 12 -101 4 -125 -9 -52 -27 -90 -92 -90 -152 0
-41 36 -115 66 -135 13 -8 21 -20 17 -26 -3 -6 -1 -7 6 -3 17 11 365 -145 349
-157 -9 -6 -8 -7 5 -3 23 7 309 -123 300 -137 -3 -6 -1 -7 6 -3 16 10 162 -54
154 -67 -3 -6 -1 -7 5 -3 14 8 142 -49 142 -64 0 -6 4 -9 9 -5 15 9 142 -46
134 -58 -3 -5 -1 -7 5 -3 6 3 38 -6 72 -20 44 -20 58 -30 48 -36 -10 -7 -9 -8
4 -4 9 3 78 -22 153 -55 74 -32 150 -59 168 -60 l32 -1 -35 -16 c-42 -19 -32
-16 -105 -26 -111 -14 -200 -43 -276 -92 -20 -12 -40 -20 -45 -16 -4 4 -4 2
-1 -4 4 -7 1 -14 -7 -17 -7 -3 -30 -26 -51 -52 -33 -40 -39 -54 -44 -115 -4
-38 -5 -67 -2 -64 2 2 14 -12 25 -33 26 -46 94 -82 167 -89 110 -11 291 71
371 169 24 28 52 50 75 58 21 7 87 34 147 61 110 49 171 64 130 33 -18 -14
-17 -15 8 -5 22 7 40 3 100 -24 40 -18 96 -41 123 -51 35 -13 68 -37 109 -79
33 -34 58 -65 57 -69 -1 -5 2 -6 7 -3 5 3 38 -10 73 -29 94 -50 195 -72 266
-57 136 28 200 153 137 266 -34 61 -80 97 -189 150 -87 42 -146 57 -277 71
-64 7 -72 15 -30 32 30 12 308 140 552 253 85 39 230 105 323 146 650 288 636
282 675 311 37 28 72 90 72 128 0 14 -7 41 -14 60 -8 19 -12 35 -9 35 4 0 -11
13 -33 29 -47 35 -115 60 -135 50z m29 -125 c15 -4 21 -12 18 -21 -3 -8 -1
-11 4 -8 18 11 11 -41 -8 -58 -28 -26 -151 -77 -170 -71 -11 4 -13 3 -5 -3 15
-11 -201 -108 -218 -97 -8 4 -9 3 -5 -4 4 -7 6 -12 4 -12 -2 0 -89 -39 -193
-86 -396 -179 -455 -203 -472 -198 -12 4 -14 3 -6 -3 11 -8 -50 -38 -462 -229
-111 -51 -195 -89 -424 -190 -222 -99 -237 -102 -228 -47 3 15 0 20 -12 17 -9
-3 54 30 139 72 85 41 165 77 177 77 11 1 19 5 17 8 -6 10 326 160 338 153 6
-4 8 -3 5 3 -6 10 93 59 503 251 322 150 330 153 342 146 6 -4 8 -3 5 3 -3 5
50 36 121 69 70 32 210 98 312 146 102 48 187 87 190 87 3 1 15 -2 28 -5z
m-2284 -1066 c41 -58 -2 -126 -112 -180 -54 -27 -80 -33 -139 -35 -44 -1 -75
2 -79 9 -5 7 -2 8 6 3 8 -5 11 -4 6 3 -4 6 -13 9 -21 5 -12 -4 -15 4 -15 34 0
30 7 45 28 65 42 40 112 80 128 74 8 -3 13 -2 10 3 -3 4 14 14 37 21 23 7 47
14 52 15 6 2 27 4 47 4 27 1 41 -5 52 -21z m981 11 c25 -6 42 -15 39 -20 -3
-5 1 -6 9 -3 19 7 106 -37 151 -76 42 -37 53 -73 31 -106 -15 -23 -20 -24 -93
-21 -166 8 -319 130 -272 218 12 22 65 26 135 8z"/>
<path d="M4100 6010 c-25 -4 -67 -10 -95 -14 -134 -19 -285 -50 -399 -82 -70
-19 -131 -32 -138 -28 -6 4 -8 3 -5 -3 4 -6 -12 -16 -36 -23 -87 -25 -258
-103 -321 -145 -38 -26 -72 -42 -81 -39 -8 4 -15 1 -15 -6 0 -6 6 -8 13 -4 6
4 -6 -12 -27 -34 -22 -23 -43 -39 -47 -36 -4 2 -11 -1 -15 -7 -4 -8 -3 -9 4
-5 17 10 15 5 -17 -54 -25 -46 -30 -50 -33 -29 -2 13 -2 -77 -1 -201 l2 -224
33 -66 33 -65 3 -400 c3 -439 5 -461 63 -548 17 -26 28 -54 25 -62 -3 -8 -1
-15 4 -15 6 0 10 5 10 12 0 7 17 -4 38 -23 20 -20 51 -47 69 -61 18 -14 29
-29 25 -32 -3 -4 1 -4 11 0 9 3 17 3 17 -2 0 -15 -82 -134 -93 -134 -6 0 -8
-3 -4 -6 3 -4 -7 -26 -24 -50 -17 -24 -37 -61 -45 -81 -16 -38 -12 -83 9 -83
8 0 7 -4 -3 -11 -13 -9 -13 -10 2 -6 9 3 38 -1 65 -9 26 -8 76 -15 110 -15 96
0 142 25 249 138 l91 96 74 -22 c41 -13 85 -27 99 -32 43 -16 270 -67 390 -88
309 -55 607 -76 1050 -75 428 1 654 22 993 90 70 14 137 22 150 19 16 -4 18
-4 8 3 -10 7 -1 13 35 20 27 6 102 27 168 47 111 34 120 35 137 19 10 -9 16
-21 12 -27 -3 -6 -1 -7 5 -3 12 7 59 -50 54 -66 -1 -5 1 -7 6 -4 14 8 70 -57
67 -77 -2 -9 1 -15 6 -11 5 3 7 9 4 14 -3 4 14 -2 37 -13 57 -29 235 -32 285
-5 67 37 57 83 -53 236 -46 64 -84 122 -84 127 0 6 27 30 60 54 78 57 132 116
167 183 l28 53 5 435 5 435 35 60 35 60 1 214 c1 118 -1 209 -5 202 -5 -7 -14
3 -24 24 -22 46 -98 128 -156 167 -162 109 -484 228 -743 274 -53 10 -95 20
-93 23 1 3 -13 6 -33 6 -21 1 -93 6 -162 14 -131 13 -174 7 -186 -24 -5 -13
-9 -13 -21 -3 -9 7 -3 -5 11 -27 32 -47 45 -53 111 -54 74 -1 218 -23 205 -31
-7 -5 -4 -9 9 -13 13 -3 19 -1 15 5 -17 28 269 -36 481 -107 76 -25 169 -62
209 -81 90 -44 182 -108 178 -124 -1 -6 2 -9 7 -6 13 8 59 -54 71 -95 16 -53
-3 -101 -60 -152 -241 -217 -912 -401 -1630 -448 -172 -11 -839 -8 -913 5 -15
2 -69 7 -120 11 -106 7 -100 6 -272 34 -264 43 -329 56 -499 101 -148 39 -261
78 -390 134 -123 54 -209 104 -201 117 4 5 -1 6 -9 3 -9 -4 -36 15 -72 49
l-57 56 5 60 c3 49 10 68 35 98 68 86 201 161 406 232 144 50 362 105 388 98
10 -3 17 -2 14 3 -2 4 12 10 33 14 51 8 62 8 62 -4 0 -5 -8 -7 -17 -4 -15 5
-15 4 -3 -4 17 -13 30 -6 30 14 0 8 4 14 9 14 5 0 45 5 88 10 43 6 96 12 118
15 26 3 48 13 63 30 27 32 27 36 3 63 -20 23 -53 26 -141 12z m-1038 -850 c5
0 6 -5 2 -12 -4 -7 -3 -8 4 -4 7 4 23 -3 36 -16 13 -13 28 -24 35 -25 6 -2 46
-19 88 -39 43 -20 95 -43 115 -51 22 -9 35 -20 31 -26 -3 -6 -1 -7 6 -3 6 4
56 -9 111 -28 83 -29 162 -52 280 -82 359 -88 754 -138 1195 -150 774 -21
1560 107 2027 329 62 30 133 68 158 85 24 17 48 28 54 25 5 -3 6 -1 2 5 -3 6
3 16 14 22 18 10 20 8 20 -28 0 -82 -75 -181 -187 -248 l-43 -25 0 42 c0 43
-21 79 -46 79 -24 0 -64 -23 -64 -37 0 -8 -3 -12 -7 -10 -5 3 -8 -26 -8 -65
l0 -70 -80 -29 c-165 -59 -447 -136 -572 -156 l-33 -5 0 50 c0 82 -42 118 -97
82 -20 -13 -23 -23 -23 -82 0 -78 10 -71 -130 -88 -47 -6 -121 -15 -165 -21
-103 -12 -152 -16 -310 -24 -71 -3 -165 -8 -207 -10 l-78 -4 -2 37 c0 20 -2
42 -3 47 -2 6 -3 20 -4 31 -1 27 -45 57 -71 49 -35 -11 -50 -35 -50 -78 0 -31
-3 -38 -10 -27 -8 13 -10 12 -10 -2 0 -10 5 -18 10 -18 6 0 10 -9 10 -20 0
-18 -6 -19 -87 -15 -49 2 -149 7 -223 10 -116 5 -569 52 -578 61 -2 1 -5 33
-7 71 -4 91 -3 88 -50 91 -53 3 -63 -9 -66 -81 -1 -33 -7 -57 -13 -57 -58 0
-514 126 -629 173 l-53 22 -2 70 c-2 57 -6 73 -23 88 -49 40 -103 3 -97 -68
l3 -42 -57 36 c-74 48 -130 99 -122 113 4 7 3 8 -4 4 -17 -10 -42 47 -51 119
l-7 64 30 -30 c16 -16 34 -29 38 -29z m109 -365 c35 -19 59 -35 53 -35 -14 0
-26 -40 -13 -40 5 0 9 8 10 18 0 14 2 14 8 -3 5 -11 8 -90 7 -175 -1 -147 -2
-156 -24 -178 -32 -32 -42 -64 -42 -134 0 -52 -2 -59 -15 -48 -8 7 -12 16 -9
21 3 5 2 9 -3 8 -20 -4 -30 3 -48 34 -18 29 -20 54 -23 316 -2 278 -2 284 17
267 10 -9 47 -32 82 -51z m3992 -22 c-3 -49 -5 -92 -5 -98 1 -5 4 -76 8 -157
6 -151 0 -243 -17 -233 -5 3 -6 -1 -3 -10 4 -10 -9 -30 -37 -58 -23 -23 -37
-34 -30 -24 8 9 10 17 5 17 -5 0 0 7 10 15 16 12 17 15 4 15 -11 0 -17 14 -22
49 -3 27 -15 60 -26 74 -11 13 -16 28 -12 31 4 4 0 6 -8 4 -13 -3 -15 23 -18
179 l-2 182 55 36 c57 36 81 44 69 23 -4 -8 -3 -10 2 -5 5 5 9 12 9 15 0 9 15
32 20 32 2 0 1 -39 -2 -87z m-3483 -168 c30 -7 32 -9 15 -16 -18 -7 -18 -8 -2
-8 10 -1 16 -5 13 -9 -2 -4 4 -8 15 -8 22 0 25 11 7 20 -17 8 8 3 179 -36
l143 -33 0 -177 0 -177 -29 -23 c-50 -40 -62 -69 -63 -152 0 -42 -2 -76 -4
-76 -2 0 -63 16 -136 35 -169 46 -349 104 -365 119 -8 7 -14 54 -16 126 -5
131 -13 156 -56 193 l-31 26 0 135 c0 74 3 141 6 149 4 12 31 6 147 -33 78
-26 158 -51 177 -55z m3208 -48 l3 -152 -31 -30 c-39 -37 -50 -79 -50 -192 0
-50 -3 -98 -6 -107 -4 -10 -55 -32 -136 -57 -172 -54 -378 -109 -379 -101 0 4
0 26 1 48 2 65 -18 124 -56 162 l-34 34 0 177 0 178 51 11 c28 7 55 10 60 6 5
-3 9 -1 9 3 0 5 39 17 88 27 103 23 312 85 402 120 36 13 67 25 70 25 4 1 7
-68 8 -152z m-2553 -81 c66 -8 163 -18 215 -21 52 -4 106 -9 120 -11 14 -2
107 -7 208 -11 l182 -6 0 -163 0 -163 -29 -20 c-39 -28 -54 -78 -55 -186 l-1
-90 -150 1 c-144 2 -415 25 -519 45 -27 5 -50 9 -52 9 -2 0 -4 43 -4 95 0 104
-11 139 -54 172 -24 19 -24 22 -26 189 -1 93 -2 172 -1 177 0 4 11 5 24 3 12
-3 76 -12 142 -20z m1744 -118 c1 -79 4 -153 8 -166 4 -17 -5 -32 -38 -66 -49
-49 -47 -44 -54 -176 l-5 -95 -133 -16 c-171 -22 -225 -27 -377 -34 -69 -3
-144 -8 -167 -10 l-43 -4 0 88 c0 104 -11 143 -54 191 l-32 35 2 128 c1 71 5
131 7 134 3 3 2 15 -3 28 -10 25 -3 38 14 28 16 -11 37 -13 31 -4 -4 8 275 25
410 26 33 0 62 3 65 6 6 7 238 33 298 34 23 0 42 3 42 8 0 4 6 7 14 7 11 0 14
-28 15 -142z m-2927 -305 c-15 -13 -15 -13 4 -4 16 8 34 3 85 -24 236 -123
741 -258 1134 -304 510 -59 1077 -57 1525 5 511 71 1032 228 1213 367 l47 37
-15 -37 c-22 -52 -106 -136 -190 -188 -112 -70 -351 -165 -376 -149 -7 4 -9 3
-6 -3 12 -19 -272 -93 -515 -133 -247 -41 -426 -59 -698 -69 -784 -30 -1567
94 -2010 319 -120 61 -251 174 -234 201 4 8 3 9 -4 5 -10 -6 -32 29 -32 49 0
3 20 -10 45 -27 40 -29 43 -33 27 -45z m202 -309 c9 -3 13 -11 9 -17 -4 -6 -1
-7 6 -2 7 4 30 -1 52 -10 37 -17 38 -19 23 -36 -9 -10 -21 -16 -27 -12 -5 3
-7 1 -4 -4 9 -14 -80 -102 -121 -119 -36 -16 -102 -16 -102 0 0 5 23 43 51 85
91 133 84 126 113 115z m3635 -102 l71 -103 -63 3 c-42 2 -61 7 -60 15 2 7 -3
10 -11 7 -7 -3 -40 24 -76 62 l-62 67 33 18 c42 22 63 24 56 4 -4 -8 -1 -17 5
-21 7 -4 8 -3 4 4 -5 8 1 12 16 13 18 1 19 2 5 6 -14 4 -16 8 -6 19 6 8 13 13
14 12 2 -2 35 -49 74 -106z"/>
<path d="M4110 5793 c-273 -30 -642 -134 -830 -235 -90 -48 -176 -112 -182
-136 -18 -68 62 -89 123 -32 40 36 187 109 300 148 141 50 315 93 488 122 139
23 168 31 183 50 21 26 22 40 6 62 -16 20 -42 26 -88 21z"/>
<path d="M6040 5771 c-28 -54 0 -86 85 -96 94 -11 222 -33 315 -56 130 -31
290 -81 290 -91 0 -5 4 -6 10 -3 12 8 95 -30 120 -55 11 -11 26 -17 34 -14 18
7 99 -39 89 -51 -5 -4 -3 -5 3 -2 6 3 27 -5 47 -18 63 -43 108 -31 107 28 -1
21 -41 77 -55 77 -4 0 -20 9 -35 20 -40 29 -173 93 -247 120 -36 13 -60 27
-56 33 3 6 1 7 -5 3 -6 -3 -57 7 -114 24 -132 39 -197 54 -345 80 -158 26
-229 27 -243 1z"/>
</g>
</svg>
