<?xml version="1.0" standalone="no"?>
<!DOCTYPE svg PUBLIC "-//W3C//DTD SVG 20010904//EN"
 "http://www.w3.org/TR/2001/REC-SVG-20010904/DTD/svg10.dtd">
<svg version="1.0" xmlns="http://www.w3.org/2000/svg"
 width="1024.000000pt" height="1024.000000pt" viewBox="0 0 1024.000000 1024.000000"
 preserveAspectRatio="xMidYMid meet">
<metadata>
Created by potrace 1.16, written by Peter Selinger 2001-2019
</metadata>
<g transform="translate(0.000000,1024.000000) scale(0.100000,-0.100000)"
fill="#000000" stroke="none">
<path d="M5064 6791 c-5 -5 -81 -12 -169 -15 -88 -4 -176 -9 -195 -11 -19 -3
-78 -10 -130 -15 -52 -6 -120 -15 -150 -20 -30 -5 -75 -11 -100 -15 -38 -4
-314 -60 -345 -69 -5 -1 -30 -8 -55 -14 -121 -32 -167 -45 -190 -53 -14 -5
-34 -11 -45 -13 -31 -7 -199 -62 -236 -79 -111 -49 -82 -47 -699 -47 -562 0
-580 -1 -590 -19 -5 -11 -10 -86 -10 -173 0 -124 3 -158 16 -176 9 -13 13 -31
10 -40 -5 -15 -5 -15 6 -1 7 9 32 18 54 21 l41 6 1 -1124 2 -1124 -90 0 c-76
0 -91 -3 -99 -18 -10 -19 -15 -104 -12 -223 1 -63 3 -67 29 -77 19 -8 238 -11
720 -9 l694 2 19 24 c17 21 20 39 18 142 -2 161 0 159 -137 159 -73 0 -102 3
-92 10 10 6 11 10 3 10 -10 0 -13 104 -13 485 0 441 1 485 16 485 14 0 15 2 3
17 -13 15 -11 16 14 11 15 -3 27 -2 27 2 0 6 121 29 274 51 38 6 81 8 95 4 16
-3 21 -2 13 3 -7 5 23 13 80 21 51 7 104 14 118 16 14 2 54 6 90 10 36 3 88
10 115 15 28 5 57 8 65 8 8 0 103 5 210 11 107 7 224 11 260 11 36 -1 67 -1
70 1 25 10 540 13 730 4 212 -10 493 -25 520 -29 14 -1 38 -4 53 -4 20 -2 26
-6 21 -14 -6 -10 -4 -10 7 -2 17 13 92 6 83 -8 -4 -6 2 -6 13 1 11 6 22 9 24
6 3 -2 38 -7 79 -11 41 -3 78 -8 81 -10 4 -2 179 -27 289 -40 33 -4 83 -14
178 -35 23 -5 51 -9 62 -9 18 0 19 -13 19 -510 l-1 -510 -104 0 c-91 0 -107
-3 -124 -20 -14 -14 -18 -28 -14 -45 3 -14 1 -38 -5 -55 -5 -17 -6 -28 -1 -25
4 3 8 -29 8 -70 -1 -59 3 -80 16 -93 15 -16 71 -17 664 -20 667 -3 762 0 786
24 11 10 13 44 11 146 -1 73 -3 136 -4 140 -3 14 -49 21 -126 19 -57 -1 -76 1
-65 8 10 7 11 11 3 11 -10 0 -13 229 -13 1110 0 1103 0 1110 20 1110 11 0 20
-4 20 -10 0 -5 8 -10 18 -10 14 0 15 2 2 10 -12 8 -11 10 6 10 11 0 29 6 39
14 17 12 18 28 16 182 -1 100 -7 174 -13 181 -8 10 -131 13 -579 13 l-569 0
-123 44 c-67 25 -170 59 -229 78 -58 18 -105 35 -103 38 2 3 -13 6 -32 7 -19
1 -58 8 -86 17 -29 8 -88 22 -132 32 -96 22 -91 21 -135 28 -19 4 -66 13 -105
21 -38 8 -92 17 -120 20 -27 3 -77 10 -110 15 -52 8 -135 15 -290 25 -22 1
-101 6 -175 11 -74 5 -148 8 -165 8 -16 0 -33 3 -36 8 -3 4 -9 4 -15 -1z m246
-129 c0 -4 21 -5 47 -3 38 3 230 -10 353 -24 112 -13 200 -29 200 -37 0 -5 5
-6 10 -3 11 7 182 -19 235 -35 17 -5 48 -12 69 -15 30 -5 36 -9 25 -16 -10 -7
-4 -8 18 -4 34 7 76 -1 69 -13 -2 -4 10 -7 27 -8 18 -1 43 -4 57 -8 14 -4 30
-8 35 -9 6 -2 15 -5 20 -9 6 -3 27 -9 48 -13 20 -4 37 -10 37 -14 0 -4 9 -7
19 -8 11 -1 77 -23 148 -50 l128 -48 560 -5 560 -5 0 -90 c0 -86 -1 -90 -23
-93 -13 -2 -29 2 -37 8 -9 7 -15 8 -20 1 -4 -7 -157 -10 -463 -10 l-457 2 -75
37 c-190 95 -473 188 -755 249 -246 53 -472 84 -787 106 -255 19 -606 3 -888
-40 -58 -9 -119 -18 -136 -20 -76 -10 -387 -76 -404 -85 -11 -6 -20 -8 -20 -6
0 3 -12 1 -27 -5 -16 -6 -39 -13 -53 -15 -14 -3 -85 -25 -157 -50 -73 -25
-138 -42 -144 -38 -7 4 -9 3 -6 -3 6 -9 -140 -80 -245 -119 -30 -11 -127 -14
-475 -14 -241 0 -464 3 -496 7 l-57 6 2 88 3 89 562 -2 c308 -2 559 0 557 3
-7 12 268 107 461 159 375 102 963 189 1010 150 13 -11 16 -11 13 1 -2 11 20
15 121 17 83 2 128 -1 137 -9 8 -7 17 -9 21 -5 3 3 1 6 -5 6 -7 0 -12 3 -12 8
0 4 43 6 95 4 52 -2 95 -6 95 -10z m87 -227 c98 -8 203 -18 233 -21 30 -3 62
-6 70 -7 13 -1 15 -22 12 -134 l-3 -133 -67 53 c-76 61 -165 115 -234 143 -25
10 -45 21 -43 24 2 3 -9 5 -23 6 -15 1 -54 9 -87 18 -121 35 -344 -1 -468 -74
-19 -11 -41 -19 -48 -17 -8 2 -11 2 -6 -1 4 -2 -11 -17 -33 -33 -23 -16 -45
-27 -51 -24 -5 4 -8 1 -7 -7 2 -7 -5 -12 -14 -12 -10 1 -16 -2 -13 -6 7 -11
-70 -71 -80 -62 -5 4 -5 2 -1 -5 3 -6 2 -14 -4 -18 -7 -4 -10 43 -10 139 l0
146 38 1 c20 0 44 2 52 3 8 2 60 7 115 11 55 4 136 11 180 15 137 12 307 11
492 -5z m-978 -180 l-1 -134 -72 38 c-97 54 -163 71 -286 78 -122 6 -212 -10
-321 -58 -37 -16 -71 -29 -76 -29 -5 0 -44 -20 -87 -45 -43 -24 -83 -42 -89
-38 -5 3 -7 1 -4 -4 7 -12 -111 -99 -120 -89 -4 3 -1 6 6 6 7 0 9 5 5 11 -8
14 -24 -9 -18 -26 3 -6 -4 -20 -16 -30 -20 -18 -20 -18 -20 58 l0 76 83 38
c45 22 120 54 167 72 47 19 94 38 105 43 12 5 27 10 35 11 8 2 20 5 25 8 22
13 115 30 126 23 7 -4 9 -3 6 3 -8 13 284 80 513 116 14 2 29 5 33 6 4 0 7
-60 6 -134z m1524 114 c64 -10 77 -15 77 -30 0 -13 5 -16 16 -12 13 5 13 7 2
14 -21 14 2 11 105 -11 255 -56 452 -113 442 -130 -3 -4 3 -6 13 -4 22 6 194
-65 186 -77 -3 -5 2 -6 10 -3 17 6 88 -28 116 -56 16 -16 20 -34 20 -80 0 -58
0 -59 -19 -43 -11 9 -17 21 -14 26 3 6 2 7 -4 4 -10 -7 -128 73 -151 102 -7 9
-14 14 -15 12 -4 -7 -77 31 -77 40 0 5 -3 8 -7 7 -14 -5 -73 24 -73 35 0 6 -3
8 -6 4 -3 -3 -34 5 -69 18 -35 14 -74 27 -87 30 -128 28 -186 32 -283 20 -33
-5 -72 -9 -87 -9 -14 -1 -24 -4 -21 -8 2 -5 0 -8 -6 -8 -5 0 -12 6 -14 13 -4
7 -6 6 -6 -4 -1 -10 -18 -23 -39 -32 -21 -9 -62 -29 -90 -46 l-52 -30 0 140 0
141 28 -6 c15 -3 62 -10 105 -17z m-627 -109 c49 -17 63 -25 53 -32 -11 -8
-10 -9 3 -4 10 3 33 -1 52 -9 38 -16 165 -111 239 -178 l47 -44 0 -251 0 -252
-167 8 c-93 4 -295 7 -450 7 -182 0 -283 4 -283 10 0 6 -4 5 -8 -1 -4 -7 -59
-13 -145 -16 l-138 -5 2 244 1 243 70 65 c39 36 75 62 81 58 5 -3 7 -1 4 4 -9
14 69 67 84 57 7 -4 10 -3 5 4 -8 14 30 36 46 26 7 -4 8 -3 4 5 -8 13 69 51
145 71 113 31 241 27 355 -10z m-1161 -133 c84 -22 172 -67 230 -119 l35 -30
-1 -249 c0 -137 -4 -247 -8 -245 -27 17 -690 -61 -1006 -119 -44 -8 -81 -15
-82 -15 -2 0 -3 98 -3 217 l0 217 58 54 c105 99 298 222 323 206 7 -4 9 -3 6
3 -10 16 131 67 233 87 30 5 187 0 215 -7z m2216 -11 c111 -33 219 -82 219
-101 0 -8 5 -15 11 -15 5 0 7 5 4 10 -8 14 7 12 26 -3 9 -7 14 -19 12 -27 -4
-13 -3 -13 5 -1 12 17 27 9 148 -85 131 -102 133 -104 133 -234 -1 -63 -5
-110 -10 -110 -6 0 -6 -7 -1 -17 6 -10 10 -55 11 -101 l0 -82 -37 5 c-128 18
-421 72 -416 78 3 3 -4 3 -15 0 -12 -3 -63 0 -114 6 -102 12 -268 28 -367 36
-36 3 -88 8 -116 11 l-52 6 -1 246 -1 246 78 51 c66 43 165 84 237 99 62 12
168 4 246 -18z m-3163 -90 c2 -16 0 -37 -3 -47 -6 -18 -24 -19 -406 -19 l-399
0 0 45 0 45 203 2 c111 2 292 3 403 3 l200 0 2 -29z m4619 22 c27 -2 30 -5 22
-20 -6 -10 -6 -18 -1 -18 5 0 7 -11 4 -25 l-4 -25 -407 0 -407 0 1 43 0 42
365 5 c201 3 372 4 380 3 8 -1 29 -4 47 -5z m-4889 -199 l272 -2 0 -196 c1
-108 2 -566 3 -1018 l2 -823 -73 0 -72 0 -1 318 c0 174 -1 324 -1 333 -1 14
-29 16 -247 16 -184 0 -249 -4 -258 -13 -10 -10 -13 -90 -13 -333 l0 -321 -77
0 -78 0 1 998 c0 548 1 1006 2 1018 2 19 9 21 79 23 43 1 78 3 79 4 1 1 26 1
56 0 29 -1 176 -3 326 -4z m4230 -4 c6 -2 12 -1 12 3 0 4 26 6 57 5 176 -6
351 -5 361 1 7 4 12 4 12 -1 0 -4 56 -7 125 -7 l125 2 0 -826 c-1 -522 -4
-821 -10 -812 -5 8 -10 10 -10 4 0 -5 5 -15 10 -20 6 -6 7 -27 1 -57 -4 -26
-5 -45 -1 -42 4 2 7 -61 7 -140 l0 -145 -83 0 -82 0 3 303 c2 173 0 315 -6
333 l-9 30 -250 2 c-233 1 -250 0 -260 -17 -5 -11 -10 -150 -11 -335 l-1 -316
-58 0 c-56 0 -59 1 -63 28 -7 34 -8 2002 -2 2012 5 8 109 4 133 -5z m-1668
-449 c80 -4 160 -9 178 -12 32 -5 32 -5 32 -64 l0 -60 -142 8 c-281 14 -1010
4 -1040 -14 -4 -3 -8 0 -8 5 0 6 6 11 13 12 10 0 10 2 0 6 -15 6 -18 83 -3 83
6 0 10 6 10 14 0 12 19 14 99 13 55 -1 97 1 95 5 -9 15 474 17 766 4z m-1100
-42 c0 -14 3 -23 8 -21 4 3 7 -14 8 -37 l1 -42 -81 -3 c-44 -1 -83 -4 -86 -6
-3 -2 -45 -6 -95 -10 -86 -6 -233 -22 -285 -32 -14 -2 -65 -8 -115 -13 -49 -6
-114 -15 -142 -21 -29 -5 -61 -9 -70 -8 -10 1 -25 0 -33 -3 -29 -11 -135 -32
-162 -32 -28 -1 -28 0 -28 62 0 35 4 62 10 62 6 0 99 14 208 31 108 17 211 28
227 25 22 -4 26 -3 15 4 -12 8 -10 10 10 11 14 0 33 2 43 4 9 2 50 7 90 10 39
4 151 15 247 25 244 25 230 25 230 -6z m1640 10 c19 -2 64 -6 100 -9 36 -3 74
-8 85 -10 11 -2 35 -4 53 -4 19 -1 31 -5 27 -11 -3 -6 1 -7 10 -4 9 4 59 1
113 -6 53 -6 111 -13 127 -15 144 -18 375 -61 372 -69 -2 -6 -11 -10 -20 -8
-8 1 -18 -2 -22 -8 -4 -7 3 -9 19 -6 25 5 26 3 26 -50 0 -30 -4 -53 -9 -50 -5
3 -26 8 -46 12 -21 3 -47 8 -59 10 -11 3 -38 8 -58 11 -24 4 -35 10 -31 17 4
6 1 6 -9 -1 -8 -7 -17 -11 -19 -9 -2 2 -24 7 -49 10 -25 3 -70 10 -100 16 -49
8 -101 15 -195 24 -16 2 -82 9 -145 16 -63 6 -175 17 -248 25 -73 7 -136 16
-140 19 -4 4 -7 32 -8 62 l-1 56 96 -7 c53 -4 112 -9 131 -11z m-372 -204
c176 -10 479 -33 572 -45 19 -2 55 -6 80 -9 25 -3 79 -9 120 -15 41 -6 95 -13
120 -16 25 -3 86 -12 135 -21 98 -16 117 -19 186 -29 l46 -7 2 -50 c1 -29 -3
-47 -8 -44 -10 7 -177 38 -201 38 -40 0 -110 21 -104 30 5 7 1 7 -11 0 -10 -5
-30 -6 -44 -2 -14 4 -79 13 -144 20 -65 7 -114 16 -108 19 5 3 -16 6 -47 6
-32 1 -112 6 -179 13 -311 31 -400 34 -888 36 -552 1 -787 -6 -970 -29 -136
-17 -253 -26 -279 -21 -19 4 -26 3 -17 -3 9 -6 3 -10 -22 -13 -42 -5 -59 0
-51 14 4 7 2 8 -5 4 -6 -4 -9 -11 -6 -16 3 -5 -16 -12 -42 -15 -27 -3 -88 -13
-138 -21 -49 -9 -136 -22 -192 -29 -56 -8 -113 -17 -127 -21 -25 -6 -26 -5
-26 40 0 30 4 46 13 47 6 0 19 2 27 4 92 19 625 92 725 100 33 3 116 9 185 14
69 6 188 13 265 17 77 4 142 8 144 10 10 9 807 3 989 -6z m-2964 -793 c-5 -8
-3 -8 7 1 9 8 51 12 134 12 l120 0 -1 -263 c-1 -144 -2 -272 -3 -284 -1 -23
-2 -23 -155 -23 l-155 0 -1 283 0 284 30 1 c21 0 28 -3 24 -11z m4881 -273 l0
-284 -160 0 -160 0 3 284 3 284 157 0 157 0 0 -284z m-4140 -451 l0 -61 -632
1 -632 0 3 45 c2 24 10 48 17 53 11 7 10 9 -3 9 -10 0 -18 3 -18 8 0 4 285 7
632 7 l633 0 0 -62z m4615 55 c0 -5 -10 -9 -22 -9 l-23 -2 23 -4 c19 -4 22
-11 22 -53 l0 -49 -631 1 -630 2 2 56 3 55 280 5 c419 7 976 6 976 -2z"/>
</g>
</svg>
