<?xml version="1.0" standalone="no"?>
<!DOCTYPE svg PUBLIC "-//W3C//DTD SVG 20010904//EN" "http://www.w3.org/TR/2001/REC-SVG-20010904/DTD/svg10.dtd">
<svg xmlns="http://www.w3.org/2000/svg" version="1.0" width="1024.000000pt" height="1024.000000pt" viewBox="0 0 1024.000000 1024.000000" preserveAspectRatio="xMidYMid meet">
<metadata>
Created by potrace 1.16, written by Peter Selinger 2001-2019
<meta name="Producer" content="Online-Convert"/></metadata>
<g transform="translate(0.000000,1024.000000) scale(0.100000,-0.100000)" fill="#000000" stroke="none">
<path d="M4938 7870 c-621 -44 -1218 -321 -1673 -775 -71 -71 -134 -128 -138 -127 -5 1 -6 -1 -3 -6 2 -4 -22 -41 -55 -82 -232 -288 -400 -627 -490 -991 -78 -311 -73 -187 -76 -1892 -3 -1033 0 -1533 7 -1546 8 -16 6 -20 -13 -24 -12 -2 4 -3 36 -2 35 1 63 7 71 16 8 8 24 48 36 89 90 306 313 583 652 811 110 75 351 198 498 256 272 108 641 192 981 224 200 18 717 7 894 -20 399 -62 685 -147 980 -291 266 -130 465 -267 629 -435 183 -186 276 -340 335 -555 28 -102 59 -123 107 -75 l25 25 -4 1522 c-3 1500 -3 1525 -24 1653 -41 248 -96 434 -198 672 -214 495 -573 899 -1065 1195 -224 136 -536 257 -793 308 -223 45 -509 64 -719 50z m387 -130 c598 -49 1179 -330 1607 -778 317 -332 544 -777 637 -1247 45 -225 44 -207 48 -1570 l4 -1310 -23 42 c-73 133 -276 354 -441 477 -412 307 -940 506 -1547 581 -173 22 -597 30 -795 16 -779 -57 -1501 -346 -1917 -768 -125 -127 -199 -221 -257 -328 l-22 -40 4 1315 c3 1302 4 1316 26 1453 57 357 158 645 327 927 288 483 722 856 1232 1059 363 145 735 202 1117 171z"/>
<path d="M5030 5729 c-230 -45 -381 -296 -315 -525 55 -192 228 -313 429 -302 113 7 179 38 266 127 93 94 114 149 115 291 0 97 -2 110 -31 170 -88 184 -268 277 -464 239z m190 -150 c55 -25 115 -81 142 -132 23 -47 33 -152 18 -206 -19 -71 -70 -133 -141 -169 -58 -31 -70 -34 -135 -30 -59 3 -79 9 -128 38 -92 55 -136 134 -136 242 0 120 70 221 185 265 49 19 144 15 195 -8z"/>
</g>
</svg>
