<?xml version="1.0" standalone="no"?>
<!DOCTYPE svg PUBLIC "-//W3C//DTD SVG 20010904//EN"
 "http://www.w3.org/TR/2001/REC-SVG-20010904/DTD/svg10.dtd">
<svg version="1.0" xmlns="http://www.w3.org/2000/svg"
 width="1024.000000pt" height="1024.000000pt" viewBox="0 0 1024.000000 1024.000000"
 preserveAspectRatio="xMidYMid meet">
<metadata>
Created by potrace 1.16, written by Peter Selinger 2001-2019
</metadata>
<g transform="translate(0.000000,1024.000000) scale(0.100000,-0.100000)"
fill="#000000" stroke="none">
<path d="M2692 6703 c-12 -32 -11 -281 1 -300 5 -8 33 -13 75 -13 l67 0 0
-360 c0 -198 -4 -360 -8 -360 -5 0 -5 -5 -2 -10 4 -6 6 -48 5 -93 -1 -45 -1
-89 -1 -97 4 -128 1 -352 -5 -361 -4 -7 -3 -10 2 -6 6 3 9 -48 9 -124 0 -71
-3 -129 -7 -129 -4 0 -3 -14 2 -32 6 -21 6 -36 -1 -44 -6 -7 -8 -18 -4 -25 8
-12 14 -754 7 -776 -2 -7 -9 -10 -16 -6 -6 4 -5 -1 3 -10 17 -22 16 -134 -2
-156 -9 -12 -9 -13 1 -7 9 5 12 -8 13 -56 0 -35 2 -76 4 -91 l4 -28 -190 1
c-186 2 -189 2 -178 22 6 11 8 26 5 33 -2 7 -1 28 4 47 4 18 11 83 15 143 6
105 5 111 -15 123 -16 10 -20 10 -15 1 5 -8 4 -10 -4 -5 -7 4 -50 8 -97 8 -81
1 -84 2 -78 22 12 43 41 71 70 69 16 0 23 1 16 4 -8 3 15 15 50 27 112 37 189
118 220 231 14 49 10 126 -6 142 -4 5 -32 7 -63 7 -76 -2 -165 -40 -224 -95
-27 -25 -52 -43 -55 -40 -3 3 -5 1 -3 -4 1 -6 -3 -23 -10 -40 -7 -16 -24 -86
-37 -154 -13 -69 -27 -127 -30 -130 -5 -6 4 93 11 117 3 6 1 12 -3 12 -4 0 -6
45 -4 101 3 89 5 100 20 94 9 -3 13 -3 9 1 -10 11 59 55 76 48 8 -3 18 -1 22
5 4 7 0 8 -12 4 -11 -4 -3 10 20 40 52 62 77 132 77 211 0 70 -9 104 -43 153
-17 25 -29 33 -53 33 -44 0 -117 -51 -157 -109 -32 -49 -34 -50 -53 -33 -61
56 -197 106 -208 76 -3 -8 -10 -14 -16 -14 -6 0 -8 6 -4 13 4 7 3 9 -2 4 -5
-5 -9 -12 -10 -15 0 -4 -5 -16 -10 -27 -5 -11 -9 -41 -8 -67 0 -26 -3 -45 -7
-42 -4 2 -11 0 -14 -6 -4 -6 -1 -9 5 -8 7 2 30 -30 51 -71 30 -57 36 -76 27
-83 -10 -6 -9 -8 3 -8 9 0 46 -19 81 -42 36 -24 79 -51 96 -60 l32 -17 -2 -88
c-1 -61 -3 -77 -8 -53 -7 39 -34 95 -58 123 -8 9 -12 17 -9 17 3 0 -8 14 -25
30 -16 17 -34 30 -39 30 -5 0 -9 5 -9 11 0 5 -3 8 -7 6 -5 -3 -19 0 -33 5 -17
6 -21 11 -12 17 8 4 0 8 -20 8 -18 0 -58 4 -89 8 -60 8 -119 -12 -119 -40 0
-8 -5 -14 -11 -13 -6 2 -14 -3 -17 -11 -3 -9 0 -11 8 -6 10 6 11 1 6 -19 -4
-16 -3 -25 2 -22 5 3 14 -12 20 -34 7 -28 6 -40 -2 -44 -7 -3 -6 -5 2 -5 8 -1
10 -6 6 -13 -6 -10 -5 -10 7 -1 13 10 18 7 34 -20 11 -18 18 -34 16 -37 -2 -3
16 -15 40 -28 55 -29 70 -43 38 -35 -13 3 -21 3 -18 -1 4 -4 20 -9 35 -10 16
-2 34 -4 39 -5 6 -1 3 -6 -5 -12 -12 -8 -9 -9 12 -5 15 3 29 2 32 -3 3 -5 17
-8 30 -8 55 -1 141 -16 148 -27 4 -6 8 -23 8 -38 l0 -28 -102 -1 c-109 0 -157
-4 -166 -13 -5 -6 -4 -109 3 -161 17 -140 17 -159 3 -150 -8 6 -5 2 6 -8 17
-16 18 -21 7 -39 -7 -11 -8 -17 -2 -14 14 9 21 -7 36 -76 11 -57 11 -60 -9
-68 -12 -4 -24 -6 -29 -3 -4 2 -7 1 -6 -4 1 -4 1 -29 0 -55 l-1 -48 -60 0
c-50 0 -61 -3 -70 -21 -7 -11 -9 -32 -6 -45 6 -22 11 -24 74 -25 37 0 1549 -1
3360 -1 2525 1 3297 4 3308 13 16 13 19 65 5 73 -5 4 -255 7 -555 8 l-546 2 0
77 c0 43 3 85 6 93 6 15 35 17 248 16 132 0 251 -1 263 0 15 0 28 11 39 31 8
17 11 28 6 25 -6 -3 -12 1 -16 9 -5 13 -45 15 -275 15 l-270 0 -1 1385 0 1385
64 0 c97 0 99 3 94 174 -1 78 -7 147 -11 154 -7 9 -502 12 -2421 12 l-2414 0
-10 -27z m4610 -72 c21 -5 36 -6 34 -2 -3 4 20 7 50 8 l55 1 -3 -74 -3 -74
-355 0 c-2425 -2 -4273 1 -4281 5 -14 9 -11 132 4 138 22 9 4461 7 4499 -2z
m-4212 -276 c0 -21 -5 -35 -12 -35 -10 0 -10 -2 -1 -8 12 -7 14 -52 3 -52 -3
0 -6 -9 -6 -19 0 -11 4 -17 8 -15 12 8 10 -34 -3 -58 -8 -15 -8 -19 1 -13 9 5
10 -9 5 -56 -3 -35 -5 -68 -5 -74 10 -78 10 -166 1 -161 -6 4 -11 3 -11 -3 0
-5 5 -13 10 -16 6 -4 9 -19 8 -35 -2 -23 -5 -27 -15 -18 -11 8 -12 7 -6 -8 3
-10 11 -22 17 -26 7 -5 7 -8 -1 -8 -7 0 -13 -5 -13 -11 0 -5 4 -8 8 -5 5 3 9
-47 9 -110 1 -63 -3 -114 -8 -114 -5 0 -9 -5 -9 -11 0 -5 5 -7 10 -4 6 4 10
-5 10 -19 0 -14 -4 -26 -10 -26 -5 0 -10 -7 -10 -15 0 -8 5 -15 10 -15 6 0 10
-16 10 -36 0 -21 -4 -33 -10 -29 -5 3 -10 1 -10 -4 0 -6 5 -11 10 -11 13 0 11
-191 -2 -207 -7 -9 -7 -13 1 -13 8 0 10 -19 7 -62 -7 -76 -7 -70 0 -137 5 -41
3 -52 -6 -46 -9 5 -11 4 -6 -4 4 -6 9 -23 12 -37 3 -19 1 -24 -8 -18 -10 6
-11 5 -1 -7 15 -19 14 -110 -2 -101 -5 3 -5 -1 2 -9 6 -8 11 -45 11 -82 0 -58
-3 -67 -17 -63 -14 5 -14 5 -1 -6 17 -15 27 -53 11 -43 -6 3 -11 2 -11 -4 0
-5 4 -12 9 -15 12 -8 13 -96 1 -96 -6 0 -10 -5 -10 -11 0 -5 4 -8 9 -4 6 3 9
-24 8 -69 -1 -41 -5 -72 -9 -69 -5 2 -8 0 -8 -6 0 -5 4 -13 10 -16 12 -7 9
-57 -3 -66 -5 -4 -4 -15 2 -27 8 -15 8 -22 -2 -25 -9 -4 -8 -8 3 -16 12 -9 10
-11 -10 -11 -19 0 -22 -2 -10 -9 8 -6 17 -8 21 -6 8 5 2 -52 -7 -67 -4 -6 -2
-8 4 -4 7 4 10 -16 11 -59 0 -49 -3 -64 -12 -58 -9 5 -9 4 0 -8 17 -21 15
-319 -3 -312 -14 5 -8 -33 7 -43 13 -8 11 -68 -3 -83 -10 -11 -10 -13 0 -7 8
5 12 -2 12 -23 0 -27 -4 -31 -27 -33 -71 -4 -111 -2 -106 5 2 4 -1 7 -6 7 -13
0 -13 258 0 266 5 3 9 11 9 17 0 7 -4 6 -10 -3 -6 -10 -9 259 -9 748 0 595 2
761 12 755 9 -5 9 -3 -1 9 -15 19 -18 1183 -2 1193 6 3 10 12 10 18 0 7 -4 6
-10 -3 -8 -13 -10 -12 -10 3 0 15 10 17 75 17 l75 0 0 -35z m257 -12 c57 -20
100 -39 98 -43 -6 -9 25 -23 33 -15 3 3 -1 5 -8 5 -7 0 -11 2 -8 5 3 3 23 -1
44 -9 22 -8 85 -31 141 -51 56 -20 104 -42 106 -50 4 -8 16 -11 33 -7 15 3 24
1 21 -4 -3 -5 6 -10 19 -11 55 -5 54 -4 55 -62 4 -291 3 -431 -4 -431 -5 0 -5
-9 -2 -21 4 -11 6 -91 5 -177 -1 -87 -1 -164 0 -172 4 -63 4 -477 0 -475 -3 2
-3 -22 0 -53 3 -31 2 -73 -1 -92 -3 -19 -1 -43 3 -52 5 -11 4 -26 -2 -37 -5
-11 -6 -22 -2 -25 8 -4 6 -253 -2 -346 -1 -19 1 -43 6 -52 4 -9 4 -19 0 -22
-5 -3 -8 -20 -6 -38 4 -49 6 -196 4 -346 -1 -98 -5 -130 -13 -125 -8 4 -8 1 1
-9 11 -13 6 -17 -34 -27 -25 -7 -56 -9 -67 -6 -14 4 -18 3 -9 -2 8 -6 -28 -19
-103 -37 -63 -16 -117 -28 -119 -28 -10 0 -301 -76 -318 -83 -17 -7 -18 70
-20 1469 l-3 1475 25 -5 c14 -3 71 -22 127 -41z m3243 38 c0 -5 -6 -11 -12
-14 -7 -3 -3 -4 8 -4 13 1 20 6 17 13 -3 8 18 12 74 11 43 0 65 -2 48 -4 -16
-3 -34 -8 -40 -13 -9 -6 -101 -39 -130 -46 -5 -2 -48 -17 -95 -34 -154 -56
-172 -61 -188 -55 -9 3 -13 3 -9 -1 4 -4 2 -12 -3 -19 -6 -8 -10 -396 -10
-1081 l0 -1069 -90 0 -90 0 2 205 c3 205 3 205 26 208 27 4 55 43 46 66 -9 24
-34 27 -181 24 l-132 -3 -5 27 c-7 36 -31 40 -243 36 -94 -2 -169 0 -166 5 2
4 -1 7 -6 7 -10 0 -15 -25 -12 -60 1 -12 -13 -15 -70 -15 -39 0 -74 -2 -78 -5
-14 -9 -40 -70 -30 -70 5 0 9 -89 9 -212 l0 -213 -95 1 c-52 1 -98 4 -102 7
-3 4 -11 3 -17 -2 -8 -7 -10 58 -8 231 2 169 0 244 -9 254 -8 9 -31 13 -80 11
-69 -2 -69 -2 -69 24 0 15 -7 30 -16 33 -20 8 -352 8 -382 0 -12 -4 -25 -17
-28 -30 -5 -20 -13 -24 -48 -25 -187 -3 -268 -7 -276 -15 -5 -5 -10 -22 -12
-39 -3 -28 -2 -29 35 -26 l37 3 0 -211 0 -211 -84 0 -84 0 0 1067 c1 971 -1
1067 -16 1078 -8 7 -14 14 -11 17 3 2 -5 4 -18 3 -12 -1 -26 1 -32 5 -11 8
-210 80 -236 85 -8 2 -42 14 -75 28 -32 14 -68 27 -79 30 -11 2 674 5 1523 6
952 1 1542 -2 1542 -8z m452 -3 c0 -7 3 -26 6 -43 3 -16 7 -672 9 -1457 4
-1424 4 -1428 -16 -1428 -11 0 -40 6 -63 14 -24 7 -69 19 -101 26 -32 8 -53
16 -48 19 5 3 -10 7 -32 7 -23 1 -107 17 -187 37 -80 19 -171 41 -202 48 l-57
13 -1 1267 0 1266 102 38 c57 20 159 57 228 81 69 24 172 61 230 83 117 44
129 47 132 29z m258 2 c0 -5 -4 -10 -10 -10 -6 0 -6 -10 1 -27 6 -16 7 -61 4
-107 -7 -94 -7 -73 -6 -211 1 -60 1 -123 0 -140 0 -16 0 -88 1 -158 0 -71 -2
-133 -5 -138 -4 -5 -1 -9 5 -9 10 0 9 -13 -5 -70 -4 -15 -3 -20 2 -13 5 7 9
-7 9 -37 0 -28 -3 -50 -6 -50 -6 0 -6 -50 1 -60 7 -12 3 -260 -5 -260 -5 0 -4
-6 1 -12 6 -7 11 -29 11 -48 1 -24 -2 -30 -8 -20 -6 9 -10 10 -10 3 0 -6 4
-14 9 -18 10 -5 9 -43 -1 -60 -3 -6 -3 -23 -1 -40 3 -16 4 -79 3 -140 0 -60
-1 -121 0 -135 5 -206 6 -437 2 -445 -10 -16 -11 -36 -1 -30 8 5 4 -39 -7 -73
-2 -7 1 -10 6 -7 6 3 10 1 10 -4 0 -6 -4 -11 -9 -11 -6 0 -6 -12 -1 -32 12
-38 10 -223 -2 -206 -5 9 -8 10 -8 1 0 -6 4 -15 10 -18 5 -3 7 -30 4 -63 -3
-31 -5 -66 -5 -77 0 -11 3 -84 6 -163 l5 -143 -75 3 -75 3 0 1518 0 1517 75 0
c43 0 75 -4 75 -10z m-4977 -1642 c-4 -19 -3 -20 6 -8 8 12 11 8 12 -20 3 -67
-3 -105 -23 -145 -25 -50 -68 -96 -81 -88 -6 3 -7 1 -4 -4 4 -6 0 -16 -8 -23
-12 -10 -13 1 -10 78 5 107 24 161 71 202 41 36 44 36 37 8z m-312 -53 c17 -9
27 -21 23 -27 -4 -6 -3 -8 3 -5 13 8 57 -39 49 -52 -4 -6 -2 -19 4 -28 9 -15
10 -14 4 6 -4 14 -2 21 4 18 13 -9 36 -93 28 -106 -4 -5 -2 -12 4 -16 11 -7
14 -45 4 -45 -3 0 -27 17 -54 38 -51 39 -99 105 -118 161 -24 70 -10 86 49 56z
m2768 -205 l0 -70 -142 0 -142 0 0 70 0 70 142 0 142 0 0 -70z m978 0 l-2 -70
-145 0 -145 0 0 70 0 70 147 0 147 0 -2 -70z m-3197 -92 c0 -85 -118 -208
-186 -195 -13 2 -26 -1 -29 -7 -3 -6 -2 7 1 29 12 83 44 123 138 171 50 26 76
26 76 2z m-628 -56 c18 -10 32 -25 30 -31 -1 -7 1 -10 6 -7 14 8 55 -41 47
-55 -5 -8 -4 -10 3 -5 7 4 15 -6 20 -26 8 -30 6 -33 -16 -36 -63 -9 -214 94
-198 134 4 10 2 12 -6 8 -8 -5 -9 -2 -5 10 4 9 3 15 -2 12 -5 -3 -12 2 -15 11
-4 9 -1 20 5 24 15 9 88 -12 131 -39z m2469 -34 l2 -33 7 35 c5 22 8 -14 9
-100 l1 -135 -90 -3 -91 -3 2 136 1 135 79 0 79 0 1 -32z m529 -98 c0 -112 -2
-132 -16 -137 -10 -4 -22 0 -28 9 -6 8 -17 13 -23 11 -10 -4 -13 15 -13 70 0
51 4 77 13 80 9 3 9 8 1 18 -27 36 -3 79 44 79 22 0 22 -2 22 -130z m460 -5
l0 -135 -40 2 -40 1 0 131 0 131 40 3 40 2 0 -135z m368 104 l3 -26 -145 1
-146 1 0 28 0 28 143 -3 142 -3 3 -26z m242 -104 l0 -136 -72 2 c-40 1 -79 4
-86 7 -9 3 -12 37 -11 126 1 66 3 124 5 127 2 4 40 7 84 8 l80 1 0 -135z
m-1222 -62 l-3 -68 -104 -3 c-57 -1 -108 2 -115 7 -7 6 -17 6 -26 1 -31 -20
-37 -10 -37 60 l0 70 144 0 144 0 -3 -67z m982 -2 l0 -69 -117 0 c-77 0 -121
4 -125 12 -5 7 -8 8 -8 0 0 -6 -10 -10 -22 -9 -13 1 -22 5 -20 8 1 4 2 30 2
57 0 29 5 50 11 50 5 0 8 -4 5 -8 -3 -5 1 -9 8 -9 19 0 8 25 -12 30 -10 3 49
5 131 6 l147 1 0 -69z m496 -149 c-3 -5 -6 -102 -7 -216 -1 -196 0 -209 19
-226 11 -10 22 -17 25 -14 2 3 69 -12 148 -31 79 -20 164 -40 189 -45 92 -18
299 -74 295 -80 -2 -4 9 -5 24 -2 16 2 32 -1 35 -7 5 -7 -529 -10 -1809 -10
-1318 1 -1815 4 -1815 12 0 7 -4 7 -12 -1 -7 -7 -35 -12 -62 -11 -62 1 -45 10
64 34 41 9 185 44 320 77 135 33 259 60 277 61 18 0 30 3 28 6 -3 2 0 10 5 16
6 8 12 93 13 209 2 162 5 199 17 207 13 10 13 10 -1 6 -9 -3 -16 1 -16 9 0 12
167 14 1134 14 624 0 1132 -4 1129 -8z m-3909 -81 l52 -1 -3 -92 c-3 -100 -15
-188 -25 -188 -3 0 -6 -15 -7 -34 -1 -47 -24 -98 -41 -92 -8 3 -11 1 -8 -4 3
-6 3 -10 -2 -11 -4 0 -18 -2 -31 -5 -13 -2 -21 0 -18 4 3 5 -1 9 -9 9 -8 0
-12 -4 -9 -9 6 -9 -129 -11 -175 -2 -18 4 -39 16 -46 28 -18 28 -52 199 -61
308 l-7 87 149 3 c82 2 158 2 169 1 11 -1 43 -2 72 -2z m453 -371 c-13 -8 -12
-10 3 -10 9 0 17 6 18 13 0 6 4 3 8 -8 10 -22 -5 -48 -22 -38 -6 3 -7 1 -3 -6
4 -6 12 -9 17 -6 5 4 9 -21 9 -59 l0 -66 -132 0 c-145 1 -168 8 -168 53 0 30
-24 57 -50 57 -38 0 -49 10 -40 35 5 13 6 26 3 29 -4 3 2 6 12 6 14 0 15 -3 5
-15 -10 -12 -10 -15 0 -15 6 0 14 9 17 20 5 19 14 20 172 20 111 0 161 -4 151
-10z"/>
<path d="M3318 6210 c-10 -9 -18 -23 -18 -31 0 -8 -5 -20 -12 -27 -9 -9 -9
-12 0 -12 9 0 12 -200 12 -830 0 -456 -3 -830 -8 -830 -4 0 -8 -18 -8 -41 -1
-23 2 -36 6 -29 6 10 9 9 12 0 3 -10 55 -13 234 -11 251 2 258 4 252 62 -1 15
4 35 12 45 8 10 10 15 4 11 -8 -4 -14 5 -17 26 -2 17 -5 365 -6 772 0 407 0
745 -1 750 0 6 -8 11 -19 12 -10 1 -72 20 -137 43 -66 23 -155 53 -198 66 -44
13 -82 28 -85 33 -3 4 -14 0 -23 -9z m224 -167 c73 -25 135 -47 136 -49 2 -1
4 -255 4 -563 0 -458 -2 -564 -13 -578 -10 -12 -10 -15 -1 -9 12 7 14 -28 16
-284 l1 -75 -145 0 -145 -1 0 676 c0 708 2 930 9 930 2 0 64 -21 138 -47z"/>
<path d="M3720 4252 c0 -5 -90 -9 -200 -9 -119 1 -204 -3 -210 -9 -12 -12 -17
-581 -5 -592 5 -4 5 -2 2 4 -4 8 9 12 41 12 55 2 172 17 235 32 23 5 56 10 72
10 32 0 92 15 112 28 10 6 13 68 14 243 1 128 1 240 0 246 -1 14 -61 48 -61
35z m-33 -269 c2 -194 6 -184 -77 -198 -25 -4 -54 -9 -65 -12 -11 -2 -45 -6
-75 -9 -30 -3 -58 -7 -63 -8 -4 0 -8 89 -10 199 l-2 200 145 0 145 0 2 -172z"/>
<path d="M5024 6266 c-64 -29 -122 -88 -130 -132 -3 -19 -10 -37 -15 -40 -26
-16 3 -150 45 -209 11 -16 20 -32 19 -35 -1 -3 1 -7 4 -10 4 -3 3 1 -1 8 -11
19 2 14 37 -12 79 -61 222 -51 305 19 96 80 117 218 51 319 -25 37 -87 89
-109 91 -3 1 -14 4 -25 7 -11 4 -45 9 -75 12 -44 4 -65 1 -106 -18z m92 -64
c-3 -5 9 -6 25 -4 34 5 82 -16 72 -31 -4 -6 0 -8 10 -4 12 4 24 -5 42 -31 51
-75 23 -187 -57 -232 -32 -18 -51 -21 -100 -18 -41 3 -65 10 -73 21 -7 9 -15
14 -18 11 -3 -3 -17 11 -31 33 -45 67 -35 165 22 216 29 26 120 59 108 39z"/>
<path d="M5086 6125 c-10 -10 -16 -33 -16 -61 0 -36 5 -50 26 -69 15 -14 30
-22 35 -19 5 3 9 0 9 -5 0 -14 19 -10 42 9 23 19 23 33 -1 55 -12 10 -21 33
-23 59 -3 36 -6 41 -29 44 -15 2 -34 -4 -43 -13z"/>
<path d="M4288 5672 c-14 -2 -29 -10 -32 -18 -3 -8 -6 -195 -6 -415 -1 -378
-2 -401 -20 -419 -38 -38 -7 -70 67 -70 23 0 31 -4 27 -13 -3 -10 6 -12 33
-11 21 1 56 4 78 5 l40 2 -50 7 c-35 5 -9 7 88 8 90 1 136 -1 132 -8 -3 -5 -1
-10 4 -10 6 0 11 5 11 10 0 6 30 10 70 10 40 0 70 -4 70 -10 0 -5 7 -10 15
-10 8 0 15 5 15 10 0 7 164 10 471 10 311 0 468 -3 464 -10 -3 -5 1 -10 9 -10
9 0 16 5 16 10 0 6 30 10 73 9 49 -1 62 -3 42 -8 -22 -5 -26 -8 -14 -13 9 -4
29 0 44 8 34 17 79 19 69 2 -5 -7 -3 -8 5 -4 7 5 10 10 7 13 -3 3 1 12 9 20
25 24 18 54 -14 66 l-29 11 1 378 c1 208 4 378 8 378 3 0 1 16 -5 35 l-11 35
-80 1 c-327 2 -1585 3 -1607 1z m1610 -459 c-1 -300 -4 -382 -13 -370 -9 13
-14 14 -25 4 -7 -7 -10 -7 -7 -2 3 6 2 17 -2 23 -6 10 -11 9 -22 -4 -9 -12
-10 -15 -1 -10 6 4 12 2 12 -3 0 -13 56 -12 -527 -16 -319 -2 -493 0 -493 6 0
6 -5 7 -10 4 -18 -11 -209 -15 -215 -5 -4 6 -12 7 -18 3 -7 -4 -64 -7 -127 -8
l-115 0 0 382 0 383 782 0 783 0 -2 -387z"/>
<path d="M6848 6197 c-96 -38 -372 -126 -379 -122 -5 4 -9 -355 -9 -835 l0
-840 82 -1 c46 -1 94 -1 108 -1 14 0 90 1 170 2 80 2 140 5 133 7 -8 3 -9 12
-1 34 7 20 7 33 -1 42 -13 17 -14 760 -1 752 6 -4 10 4 10 17 0 17 -3 19 -9 9
-5 -8 -9 17 -10 65 0 46 3 74 7 66 6 -9 9 -2 9 20 1 27 -1 29 -7 13 -6 -14 -9
-3 -9 38 -1 44 2 56 12 51 10 -6 10 -4 0 7 -15 16 -18 123 -3 114 6 -3 10 -2
10 4 0 5 -6 12 -12 14 -10 4 -9 8 2 16 10 7 11 11 3 11 -7 0 -13 9 -13 21 0
13 4 18 13 13 10 -6 10 -4 0 7 -7 7 -13 29 -13 48 0 27 3 32 10 21 7 -12 10
-8 10 15 0 23 -3 27 -10 15 -7 -11 -9 1 -9 40 1 46 3 50 9 25 l8 -30 1 27 c0
15 -3 30 -9 33 -6 3 -10 50 -10 106 0 59 4 99 10 99 15 0 12 27 -5 61 -17 31
-46 36 -97 16z m-8 -450 c0 -218 -4 -327 -10 -317 -6 9 -10 10 -10 3 0 -6 5
-15 10 -18 6 -4 9 -171 8 -473 0 -257 -4 -447 -8 -422 -7 44 -7 44 -8 9 -1
-20 -8 -39 -14 -41 -7 -3 -66 -6 -130 -6 l-118 -2 0 760 0 760 23 2 c12 0 31
0 42 0 13 -2 16 1 8 6 -13 8 185 83 200 75 4 -2 7 -154 7 -336z"/>
<path d="M6835 4250 c-11 -4 -81 -5 -155 -3 -74 2 -154 1 -177 -2 l-43 -6 0
-259 0 -258 43 -7 c23 -4 51 -9 62 -11 70 -14 148 -26 195 -31 30 -2 71 -8 90
-12 19 -4 46 -4 60 1 27 9 51 49 49 82 -1 18 -2 17 -9 -4 -5 -14 -8 73 -9 203
-1 180 2 227 12 221 9 -6 9 -5 0 7 -6 8 -13 25 -15 38 -2 18 -13 27 -43 36
-23 6 -50 9 -60 5z m-27 -118 c9 -9 14 -13 10 -8 -12 15 -10 23 7 30 12 4 15
-4 15 -47 0 -37 -3 -48 -10 -37 -8 13 -10 12 -10 -2 0 -10 -6 -18 -12 -18 -9
0 -8 -3 2 -10 9 -6 17 -5 22 3 4 7 8 -57 8 -141 0 -84 -4 -151 -8 -148 -5 3
-33 8 -63 10 -30 3 -85 12 -124 21 -38 8 -73 15 -77 15 -5 0 -8 78 -8 174 l0
175 38 3 c20 2 72 2 115 1 60 -2 82 -7 95 -21z"/>
<path d="M2115 6203 c-29 -7 -66 -45 -60 -61 3 -9 -37 -57 -109 -129 -124
-124 -133 -129 -246 -132 -30 -1 -56 -4 -58 -5 -2 -3 -4 -776 -2 -914 0 -10
107 -12 518 -10 l517 3 5 450 c3 248 3 456 1 463 -2 8 -32 12 -106 12 -119 0
-105 -8 -262 144 -57 54 -103 107 -103 116 0 40 -51 73 -95 63z m58 -186 c-3
-6 -2 -7 4 -4 12 8 76 -56 67 -66 -4 -4 -2 -7 5 -7 18 0 84 -47 74 -53 -12 -8
-373 -4 -373 4 0 4 42 46 92 93 l93 85 22 -21 c12 -12 20 -25 16 -31z m427
-219 c0 -5 -10 -8 -22 -8 -18 0 -20 -2 -8 -9 8 -6 18 -7 22 -5 4 3 8 -43 8
-101 0 -82 -3 -104 -12 -99 -10 6 -10 4 -2 -7 6 -8 12 -70 13 -144 1 -91 -1
-126 -8 -115 -7 9 -11 10 -11 3 0 -6 5 -15 10 -18 6 -4 10 -60 10 -135 l0
-129 -422 4 c-233 1 -431 3 -441 4 -17 1 -18 21 -16 384 l1 382 439 0 c242 0
439 -3 439 -7z"/>
<path d="M1843 5673 c-23 -4 -23 -7 -23 -158 0 -130 2 -154 16 -159 20 -8 222
-8 252 0 16 5 22 14 22 34 0 16 6 31 13 33 9 4 9 7 -1 15 -9 6 -12 39 -11 117
1 68 -3 110 -10 114 -12 8 -224 11 -258 4z m157 -87 c0 -6 5 -5 12 2 7 7 14
12 18 12 3 0 5 -37 5 -83 l0 -83 -60 2 c-33 1 -66 3 -72 3 -9 1 -13 24 -13 80
l0 80 55 -1 c30 -1 55 -6 55 -12z"/>
<path d="M2258 5672 c-16 -2 -28 -8 -28 -13 -3 -76 0 -232 5 -237 3 -4 62 -7
131 -8 97 -1 129 2 140 13 10 11 14 41 13 116 0 56 -3 109 -7 118 -6 13 -26
16 -117 15 -60 0 -122 -2 -137 -4z m184 -133 c3 -49 1 -55 -14 -51 -10 2 -19
12 -19 21 -1 14 -2 13 -6 -1 -4 -14 -15 -18 -56 -18 l-52 0 3 56 4 55 68 -3
68 -3 4 -56z"/>
<path d="M2034 5270 c-46 -18 -40 -65 9 -74 55 -9 339 -6 359 5 20 11 24 49 6
67 -14 14 -340 16 -374 2z"/>
<path d="M8075 6203 c-30 -8 -45 -23 -45 -47 0 -14 -44 -63 -132 -148 l-133
-128 -75 0 c-41 0 -89 4 -106 9 -21 6 -32 5 -34 -3 -1 -6 -4 -101 -7 -211 -2
-130 -7 -195 -13 -185 -8 13 -10 12 -10 -2 0 -10 5 -18 10 -18 6 0 10 -88 10
-244 0 -134 3 -251 6 -260 5 -14 60 -16 513 -16 381 0 510 3 519 12 9 9 12
126 12 465 l0 453 -67 1 c-38 1 -78 2 -91 2 -14 1 -21 6 -18 13 3 7 0 11 -7 8
-7 -2 -62 46 -122 107 -79 79 -111 118 -112 137 -4 46 -43 68 -98 55z m60
-188 c0 -5 5 -10 11 -10 11 0 142 -105 143 -115 1 -3 -70 -6 -157 -8 -108 -2
-152 1 -142 8 8 5 10 10 5 10 -6 0 -15 -4 -21 -10 -5 -5 -22 -6 -37 -2 -27 7
-27 8 57 91 47 47 89 81 95 77 7 -5 9 -1 4 11 -3 10 5 5 18 -12 13 -16 24 -34
24 -40z m375 -595 l0 -389 -442 1 -443 0 0 384 0 384 400 0 c262 0 395 -4 385
-10 -12 -8 -10 -10 8 -10 13 0 21 4 17 9 -5 8 12 13 63 20 9 1 12 -83 12 -389z"/>
<path d="M7719 5666 c-7 -47 -4 -285 3 -298 8 -16 25 -18 133 -18 68 0 130 3
139 6 14 5 16 29 16 160 0 85 -3 154 -7 155 -73 7 -283 3 -284 -5z m213 -140
c-2 -39 -5 -76 -7 -82 -2 -7 -30 -11 -69 -11 l-66 0 0 81 0 82 73 0 72 1 -3
-71z"/>
<path d="M8180 5672 c-19 -2 -41 -8 -47 -14 -16 -13 -18 -219 -2 -235 6 -6 29
-8 53 -6 24 3 51 1 61 -4 10 -6 32 -7 51 -3 18 4 36 4 41 -1 5 -5 24 -1 43 9
l35 17 3 112 c2 104 1 113 -18 123 -18 10 -135 11 -220 2z m154 -83 c2 -2 6
-28 8 -56 4 -52 4 -53 -16 -35 -10 9 -16 11 -12 5 5 -9 -2 -13 -26 -14 -18 0
-48 -1 -66 -2 l-32 -2 0 51 c0 28 2 53 5 55 5 6 134 4 139 -2z"/>
<path d="M7858 5269 c-21 -12 -24 -52 -5 -67 8 -7 84 -10 209 -9 170 2 200 4
214 19 21 21 12 45 -21 58 -35 13 -375 12 -397 -1z"/>
</g>
</svg>
