<?xml version="1.0" standalone="no"?>
<!DOCTYPE svg PUBLIC "-//W3C//DTD SVG 20010904//EN" "http://www.w3.org/TR/2001/REC-SVG-20010904/DTD/svg10.dtd">
<svg xmlns="http://www.w3.org/2000/svg" version="1.0" width="1024.000000pt" height="1024.000000pt" viewBox="0 0 1024.000000 1024.000000" preserveAspectRatio="xMidYMid meet">
<metadata>
Created by potrace 1.16, written by Peter Selinger 2001-2019
<meta name="Producer" content="Online-Convert"/></metadata>
<g transform="translate(0.000000,1024.000000) scale(0.100000,-0.100000)" fill="#000000" stroke="none">
<path d="M5260 8583 c-8 -3 -26 -10 -40 -16 -14 -6 -27 -10 -30 -9 -3 0 -6 -16 -7 -35 -1 -25 9 -52 37 -98 21 -35 36 -66 33 -69 -4 -3 -2 -6 4 -6 15 0 75 -118 67 -132 -4 -6 -3 -8 3 -5 12 8 57 -79 48 -93 -3 -5 -1 -10 5 -10 7 0 9 -7 6 -16 -3 -8 -2 -13 3 -10 5 3 24 -45 42 -107 32 -106 34 -120 34 -262 0 -96 -5 -168 -14 -200 -17 -65 -114 -264 -143 -297 -13 -14 -24 -31 -26 -39 -2 -8 -7 -16 -11 -19 -6 -4 -56 -70 -212 -277 -25 -34 -48 -60 -51 -58 -3 3 -5 -1 -5 -8 0 -7 -18 -42 -41 -78 -175 -277 -203 -597 -75 -852 18 -37 31 -73 27 -79 -4 -6 -3 -8 3 -5 6 4 29 -17 51 -47 32 -42 38 -56 29 -67 -10 -10 -9 -11 3 -3 8 5 29 11 45 13 17 2 38 7 47 12 23 12 32 63 17 91 -7 13 -12 27 -11 31 1 5 -2 6 -7 3 -11 -7 -62 70 -90 137 -24 55 -26 71 -9 61 7 -4 8 -3 4 5 -4 6 -11 9 -15 6 -25 -15 -41 242 -21 335 18 80 61 190 73 183 6 -3 7 -1 3 6 -13 20 128 246 146 234 6 -3 8 -1 5 4 -4 6 29 57 74 114 44 57 99 129 121 161 23 32 43 58 45 58 2 0 1 -5 -3 -12 -4 -7 -3 -8 5 -4 6 4 9 12 5 17 -8 14 36 80 48 73 6 -4 8 -2 4 4 -9 14 14 63 27 55 6 -3 7 -1 4 4 -4 6 6 39 22 74 66 147 82 262 66 469 -12 142 -62 293 -164 495 -80 157 -133 243 -157 252 -8 3 -11 9 -8 14 6 10 6 10 -16 2z"/>
<path d="M4461 8143 c-1 -6 -14 -15 -29 -21 -41 -14 -59 -60 -38 -100 8 -16 12 -33 8 -37 -4 -5 -2 -5 5 -1 14 8 46 -47 35 -59 -4 -5 -2 -5 4 -2 14 8 62 -96 81 -173 39 -164 -10 -326 -172 -580 -55 -86 -130 -236 -140 -280 -4 -19 -13 -30 -23 -30 -13 0 -14 -2 -4 -8 10 -7 10 -23 1 -81 -10 -57 -9 -93 1 -174 7 -56 14 -112 14 -124 1 -11 4 -19 7 -17 10 6 41 -84 33 -97 -4 -7 -3 -9 4 -5 6 4 26 -21 48 -61 21 -38 45 -73 54 -80 8 -6 15 -17 15 -25 0 -7 7 -13 15 -14 8 0 23 -4 33 -8 22 -11 65 17 77 50 8 19 6 33 -7 57 -9 18 -16 36 -15 40 1 5 -2 6 -8 2 -13 -8 -83 103 -106 171 -16 48 -17 56 -4 64 13 8 13 10 -1 10 -34 0 -39 139 -9 254 19 74 89 224 120 257 8 8 16 20 17 26 1 5 25 47 52 93 28 45 60 104 72 131 12 26 27 45 32 42 6 -3 7 -1 3 5 -3 6 3 39 16 74 19 53 22 84 22 193 -1 146 -12 193 -80 326 -21 41 -38 77 -39 81 0 3 -19 25 -42 47 -23 22 -44 47 -46 53 -4 9 -6 9 -6 1z"/>
<path d="M7047 5913 c-4 -3 -24 -8 -45 -10 -62 -6 -270 -43 -294 -52 -13 -5 -25 -8 -28 -8 -27 2 -208 -51 -315 -92 -91 -35 -89 -35 -79 -19 5 7 3 8 -5 4 -7 -5 -10 -10 -8 -13 3 -2 -45 -30 -106 -60 -62 -31 -131 -69 -154 -84 -25 -18 -49 -27 -60 -23 -14 5 -15 4 -4 -4 11 -8 9 -12 -10 -23 -13 -7 -32 -12 -41 -10 -10 1 -18 -3 -18 -9 0 -6 5 -8 10 -5 6 3 10 4 10 2 0 -3 -21 -21 -47 -39 -27 -19 -81 -65 -121 -102 -41 -37 -78 -64 -84 -60 -6 4 -8 3 -5 -3 3 -5 -13 -31 -36 -58 -95 -108 -159 -195 -213 -287 -32 -53 -62 -94 -67 -91 -6 3 -7 1 -4 -4 4 -6 -14 -57 -38 -114 -52 -118 -106 -282 -125 -381 -8 -38 -18 -68 -22 -68 -5 0 -6 6 -2 13 6 9 4 9 -8 -1 -12 -10 -33 -10 -89 -4 -41 5 -77 8 -81 6 -4 -3 -53 -11 -110 -19 -57 -8 -148 -22 -203 -31 -120 -20 -374 -23 -460 -5 -181 36 -205 43 -199 53 4 7 2 8 -5 4 -16 -10 -102 24 -94 37 3 6 1 7 -5 3 -19 -12 -130 54 -187 111 -68 68 -98 130 -99 208 -1 68 28 159 47 148 7 -3 9 -3 5 2 -11 11 11 47 24 39 6 -4 8 -3 5 3 -8 12 38 54 49 45 4 -4 4 -2 0 5 -9 16 56 63 151 109 211 101 545 128 838 68 106 -22 233 -63 298 -96 74 -37 116 -35 136 6 23 49 6 76 -74 116 -77 38 -220 90 -248 90 -10 0 -16 3 -14 8 3 4 -7 7 -21 8 -15 0 -43 3 -62 7 -19 4 -81 13 -137 19 -69 7 -100 14 -96 22 4 8 3 8 -5 1 -7 -7 -36 -8 -74 -4 -35 3 -67 3 -73 -1 -5 -3 -26 -7 -45 -9 -59 -4 -194 -20 -215 -25 -11 -3 -47 -12 -80 -20 -69 -17 -181 -62 -249 -100 -26 -14 -52 -23 -58 -20 -6 4 -8 3 -5 -3 4 -6 -14 -24 -38 -42 -24 -17 -61 -52 -81 -76 -20 -25 -41 -42 -47 -38 -5 3 -7 2 -4 -4 3 -5 -7 -34 -22 -64 -15 -30 -31 -66 -35 -80 -8 -26 -14 -210 -7 -203 4 4 41 -83 41 -95 0 -3 -7 4 -15 15 -8 10 -15 16 -15 12 0 -3 18 -25 39 -48 24 -26 37 -49 34 -59 -4 -12 -3 -13 5 -3 7 10 13 7 26 -13 9 -14 45 -46 79 -72 34 -25 61 -50 59 -55 -1 -5 2 -7 7 -4 16 10 163 -67 148 -77 -7 -5 -4 -6 9 -3 11 4 41 -1 65 -9 158 -56 440 -80 657 -55 51 6 98 7 104 4 6 -4 8 -3 5 2 -8 14 213 46 303 44 88 -3 174 -17 178 -30 2 -5 9 -7 17 -4 7 3 26 -1 42 -10 15 -8 21 -15 13 -16 -13 0 -13 -1 0 -10 9 -5 17 -5 20 0 8 12 147 -68 249 -143 61 -45 79 -63 76 -79 -4 -16 -2 -18 10 -8 12 10 18 10 30 0 8 -7 12 -16 9 -21 -3 -5 -1 -8 4 -7 15 5 124 -100 117 -112 -3 -6 -3 -9 2 -8 21 7 158 -136 147 -154 -4 -6 -3 -8 3 -5 6 4 22 -7 36 -23 15 -16 38 -32 52 -36 32 -8 70 17 79 51 9 34 -31 87 -181 240 -59 61 -107 113 -105 118 1 4 -2 6 -7 5 -12 -4 -137 103 -133 114 1 5 -2 7 -8 3 -13 -8 -121 75 -113 88 3 6 1 7 -6 3 -6 -4 -28 3 -49 16 l-37 23 75 12 c148 26 297 67 415 115 121 50 182 64 177 39 -1 -7 1 -10 6 -7 5 3 24 -11 43 -32 21 -23 25 -29 9 -17 l-25 20 19 -23 c11 -12 24 -21 30 -20 12 3 147 -120 143 -131 -1 -3 1 -6 5 -6 15 0 87 -79 81 -89 -3 -6 -2 -8 2 -3 11 9 85 -62 85 -81 0 -7 3 -11 8 -8 4 2 25 -13 47 -35 21 -21 33 -39 26 -39 -7 0 -9 -5 -6 -10 4 -6 10 -8 14 -6 11 7 53 -33 46 -44 -4 -6 2 -7 11 -3 14 5 16 3 11 -11 -4 -10 -3 -15 4 -11 14 9 63 -41 53 -56 -4 -7 -3 -9 4 -6 5 4 30 -12 54 -35 206 -199 279 -265 376 -347 86 -73 109 -97 98 -103 -29 -16 -224 -77 -327 -102 -284 -70 -594 -80 -853 -29 -21 4 -25 7 -15 14 9 6 3 7 -17 3 -53 -10 -318 96 -376 150 -13 12 -24 20 -26 18 -6 -6 -99 66 -165 127 -46 43 -64 67 -61 79 5 13 4 14 -4 4 -7 -11 -31 11 -98 90 -48 56 -120 134 -158 171 -71 69 -187 147 -220 147 -10 0 -14 4 -10 12 4 6 3 8 -4 4 -6 -3 -33 -1 -62 5 -41 9 -83 7 -228 -11 -147 -19 -205 -22 -346 -17 -93 4 -172 10 -175 14 -3 4 -22 8 -41 9 -151 2 -416 96 -595 211 -70 46 -195 158 -195 176 0 5 7 4 15 -3 10 -9 15 -9 15 -1 0 10 -13 15 -32 12 -11 -1 -47 55 -77 121 -41 90 -55 168 -48 268 18 247 173 447 457 590 90 45 190 82 207 76 8 -3 12 -2 9 3 -6 9 144 45 255 61 109 16 439 9 562 -11 203 -34 441 -106 581 -176 71 -35 142 -50 143 -29 1 6 7 25 14 42 11 28 10 36 -4 58 -10 14 -25 26 -35 26 -15 0 -15 2 -2 11 13 9 13 10 -2 6 -21 -7 -191 67 -180 78 4 5 2 5 -4 2 -12 -7 -207 56 -202 65 2 4 -1 10 -6 15 -5 5 -6 3 -2 -4 9 -16 -7 -16 -54 -3 -95 28 -227 51 -349 61 -75 6 -154 15 -176 19 -21 5 -44 5 -50 1 -5 -5 -41 -9 -80 -10 -124 -3 -290 -27 -394 -57 -29 -8 -60 -13 -68 -10 -8 3 -12 2 -9 -3 3 -4 -14 -14 -37 -21 -23 -6 -94 -37 -157 -68 -63 -31 -120 -56 -127 -55 -7 0 -11 -3 -10 -7 1 -4 -29 -30 -68 -59 -38 -29 -97 -80 -129 -114 -63 -66 -153 -195 -162 -234 -5 -20 -9 -22 -23 -11 -14 11 -14 11 -4 -3 10 -12 8 -28 -7 -76 -31 -99 -41 -239 -40 -570 0 -181 -4 -313 -9 -313 -5 0 -8 -8 -6 -17 2 -10 4 -20 4 -23 1 -3 6 2 11 10 7 11 10 1 10 -35 1 -98 52 -263 105 -341 48 -71 112 -139 170 -182 33 -24 60 -48 60 -52 0 -5 4 -12 9 -17 5 -5 6 -3 2 5 -11 18 -3 15 66 -23 73 -40 198 -92 248 -104 19 -5 87 -22 150 -39 63 -16 138 -33 165 -37 174 -23 387 -68 490 -104 151 -52 259 -68 357 -52 76 12 222 70 261 102 12 10 43 35 68 57 25 21 70 65 99 97 30 33 57 59 61 58 4 -1 6 5 5 15 0 9 4 16 11 15 7 -2 10 4 7 12 -10 24 10 17 37 -12 18 -20 19 -24 4 -13 -19 14 -19 14 -6 -3 8 -9 16 -15 19 -13 8 8 83 -55 77 -64 -3 -5 0 -12 6 -16 8 -4 9 -3 5 4 -12 19 2 14 47 -19 23 -17 41 -35 39 -41 -1 -5 2 -7 7 -3 6 3 27 -5 48 -18 49 -31 182 -94 217 -103 14 -3 26 -12 26 -20 0 -8 5 -14 11 -14 5 0 7 5 3 12 -5 8 -2 9 10 5 10 -4 24 -7 32 -7 9 0 13 -3 11 -7 -3 -5 7 -8 21 -9 15 0 61 -8 102 -17 41 -9 108 -19 147 -23 40 -4 71 -9 69 -13 -2 -3 80 -3 182 0 179 6 295 17 409 40 29 6 63 12 75 13 13 2 30 6 38 9 63 24 193 57 202 51 7 -4 8 -3 4 4 -6 11 5 15 30 11 4 0 10 3 13 8 3 5 47 26 96 47 104 44 145 77 145 118 0 22 -11 36 -55 69 -30 23 -52 46 -48 52 3 6 1 7 -5 3 -22 -13 -246 181 -539 468 -89 87 -160 163 -157 168 3 5 2 7 -3 6 -9 -3 -448 431 -442 436 2 2 33 22 68 46 85 57 183 139 255 214 32 33 63 60 68 59 4 -2 7 1 5 6 -3 10 108 152 115 146 3 -3 5 1 5 8 0 8 13 34 29 58 16 24 34 53 40 64 6 11 16 20 22 20 6 0 14 4 19 9 5 5 3 6 -4 2 -19 -10 -18 -8 38 105 79 160 135 321 185 526 28 119 30 151 9 179 -8 12 -11 24 -7 28 3 4 -2 4 -12 0 -14 -5 -17 -4 -12 4 8 13 3 16 -7 5z m-117 -233 c-29 -117 -31 -124 -42 -108 -6 9 -7 6 -3 -9 4 -14 -5 -54 -20 -100 -33 -94 -112 -274 -127 -288 -8 -7 -9 -5 -5 8 4 11 3 16 -4 12 -5 -4 -7 -14 -4 -24 6 -20 -83 -166 -160 -262 -77 -95 -195 -210 -207 -203 -6 4 -8 3 -5 -3 12 -20 -184 -163 -312 -228 -128 -64 -345 -138 -436 -149 -11 -2 -37 -6 -59 -11 -28 -6 -40 -4 -47 6 -7 11 -9 10 -9 -3 0 -12 -7 -18 -22 -17 -13 0 -18 3 -11 5 6 3 40 32 75 64 34 33 69 58 76 55 7 -3 11 -1 8 4 -3 4 6 19 19 31 14 13 25 21 25 19 0 -3 25 19 55 48 32 31 60 51 67 47 6 -4 8 -3 5 4 -9 14 84 90 103 85 11 -3 12 -2 2 4 -9 7 -5 15 15 33 86 72 262 229 286 253 16 16 32 25 40 21 6 -4 9 -3 4 1 -10 11 63 86 76 78 6 -3 7 -2 4 4 -4 6 15 32 41 59 130 136 140 156 101 203 -25 30 -76 33 -96 5 -7 -10 -41 -47 -75 -82 -46 -47 -64 -60 -71 -50 -6 9 -7 8 -3 -4 7 -22 -59 -92 -77 -82 -7 4 -9 3 -4 -1 10 -11 -53 -76 -66 -68 -6 3 -7 1 -3 -5 8 -13 -174 -173 -187 -165 -6 3 -7 1 -4 -4 7 -12 -380 -356 -400 -356 -6 0 -10 -4 -8 -8 3 -4 -10 -19 -27 -34 -18 -15 -51 -44 -73 -64 -60 -53 -91 -78 -78 -61 6 8 15 33 19 55 7 40 68 217 98 288 9 20 21 37 27 37 5 0 7 5 4 10 -19 31 249 431 278 413 5 -3 7 -1 4 4 -8 12 138 154 217 212 108 80 160 112 173 107 7 -3 12 0 10 6 -3 16 209 120 338 166 118 42 335 97 431 110 32 5 60 8 61 7 1 0 -7 -34 -17 -75z m-3591 -1614 c23 -16 38 -33 34 -40 -3 -6 -3 -8 2 -4 12 11 85 -33 78 -46 -3 -6 -3 -8 1 -4 5 4 43 -11 86 -33 99 -49 238 -103 312 -120 31 -7 55 -16 53 -19 -2 -3 9 -5 23 -6 15 0 41 -3 57 -7 98 -20 220 -28 389 -26 279 3 284 3 280 10 -2 4 14 9 37 11 22 2 42 1 45 -3 4 -8 44 -19 44 -13 0 3 -10 9 -22 15 -17 7 -4 8 49 5 42 -3 92 -13 118 -25 60 -26 127 -80 119 -93 -4 -7 -2 -8 4 -4 15 9 85 -61 76 -76 -4 -6 -3 -8 4 -4 10 6 92 -80 121 -129 14 -21 11 -27 -36 -87 -68 -84 -150 -161 -165 -152 -6 4 -8 3 -4 -4 3 -6 -18 -25 -51 -45 -136 -82 -262 -87 -468 -17 -66 22 -129 42 -140 44 -11 2 -38 8 -60 14 -22 6 -93 18 -157 28 -64 10 -115 21 -113 24 2 3 -12 4 -32 2 -25 -3 -34 -1 -29 7 5 7 1 9 -8 5 -9 -3 -37 -1 -63 5 -27 6 -57 13 -68 16 -175 36 -468 165 -448 197 3 6 2 8 -4 5 -15 -10 -88 49 -126 101 -108 148 -137 291 -128 621 l1 34 74 -79 c41 -44 92 -93 115 -108z"/>
<path d="M4280 4905 c-30 -7 -70 -17 -87 -23 -18 -6 -33 -8 -33 -6 0 3 -6 0 -12 -5 -52 -43 -107 -78 -113 -73 -4 4 -5 3 -4 -3 2 -5 -3 -27 -10 -47 -18 -54 -4 -198 18 -184 3 2 20 -7 36 -21 17 -14 23 -22 15 -17 -13 7 -13 5 -1 -9 15 -19 26 -23 15 -6 -4 7 -1 10 7 7 8 -3 13 -10 12 -16 -1 -5 3 -9 10 -9 7 1 44 -9 82 -23 60 -20 90 -24 212 -25 78 0 140 2 137 6 -4 8 92 35 114 32 7 0 11 1 8 4 -3 3 14 18 37 34 23 15 53 44 66 64 29 43 39 126 20 170 -7 17 -11 34 -10 38 1 5 -3 6 -8 2 -6 -3 -14 3 -20 13 -14 27 -118 79 -192 97 -77 18 -223 18 -299 0z m315 -145 c56 -26 85 -51 85 -74 0 -102 -314 -147 -470 -67 -50 26 -55 31 -55 62 0 27 6 36 34 53 19 11 55 26 80 33 60 16 285 11 326 -7z"/>
</g>
</svg>
