<?xml version="1.0" standalone="no"?>
<!DOCTYPE svg PUBLIC "-//W3C//DTD SVG 20010904//EN"
 "http://www.w3.org/TR/2001/REC-SVG-20010904/DTD/svg10.dtd">
<svg version="1.0" xmlns="http://www.w3.org/2000/svg"
 width="1024.000000pt" height="1024.000000pt" viewBox="0 0 1024.000000 1024.000000"
 preserveAspectRatio="xMidYMid meet">
<metadata>
Created by potrace 1.16, written by Peter Selinger 2001-2019
</metadata>
<g transform="translate(0.000000,1024.000000) scale(0.100000,-0.100000)"
fill="#000000" stroke="none">
<path d="M5115 8120 c-68 -8 -95 -20 -211 -97 -45 -29 -88 -52 -96 -51 -7 2
-12 -2 -11 -9 3 -16 -95 -85 -109 -77 -6 4 -8 3 -5 -3 8 -13 -24 -42 -53 -48
-12 -2 -25 -7 -29 -11 -3 -4 3 -4 13 0 16 5 17 4 6 -9 -7 -8 -19 -14 -26 -13
-7 2 -12 0 -11 -3 4 -14 -37 -50 -50 -44 -8 2 -12 1 -8 -4 6 -10 -72 -82 -85
-78 -5 1 -9 -2 -9 -8 -3 -17 -64 -75 -73 -69 -4 3 -8 -2 -8 -11 0 -9 -4 -14
-9 -11 -5 3 -16 -4 -24 -17 -30 -45 -59 -68 -76 -62 -12 4 -13 3 -5 -5 8 -8
-9 -33 -64 -90 -41 -44 -79 -77 -85 -73 -5 3 -7 1 -3 -5 7 -12 -112 -155 -124
-147 -4 3 -14 -3 -21 -13 -13 -16 -13 -16 5 -2 28 22 17 1 -34 -62 -25 -31
-51 -57 -58 -57 -7 -1 -11 -5 -8 -9 3 -5 -32 -58 -77 -118 -108 -146 -111
-150 -217 -305 -50 -74 -96 -133 -101 -131 -6 1 -8 -2 -4 -8 9 -14 -135 -241
-148 -233 -6 3 -7 1 -3 -5 8 -13 -114 -223 -126 -216 -4 3 -5 -3 -1 -12 4 -10
2 -15 -4 -11 -5 3 -10 0 -10 -7 0 -27 -148 -285 -157 -276 -6 6 -14 10 -20 10
-5 0 -2 -6 8 -13 15 -11 9 -28 -76 -205 -52 -107 -97 -190 -102 -185 -5 4 -6
3 -3 -3 8 -13 -66 -197 -75 -188 -3 3 -5 -1 -5 -8 3 -17 -65 -178 -72 -174 -3
2 -7 -6 -7 -18 -2 -27 -55 -165 -63 -164 -17 2 -25 -3 -14 -10 8 -5 -7 -59
-53 -192 -81 -230 -129 -391 -203 -682 -32 -125 -61 -224 -65 -220 -4 3 -4 -1
-1 -9 3 -9 -5 -82 -19 -162 -14 -80 -31 -204 -37 -276 -7 -71 -16 -128 -21
-125 -4 3 -8 -7 -7 -23 0 -25 1 -26 10 -8 7 15 8 10 6 -22 -1 -23 1 -39 5 -37
5 3 8 -3 8 -12 0 -45 50 -103 133 -152 45 -27 90 -52 100 -55 11 -4 15 -12 11
-18 -4 -7 -3 -9 3 -6 12 8 155 -52 148 -62 -2 -4 1 -13 7 -21 8 -12 9 -12 4 3
-7 21 -3 21 37 2 18 -8 81 -34 141 -58 62 -26 103 -47 95 -51 -8 -3 -4 -3 7
-1 24 6 74 -13 74 -27 0 -5 5 -6 10 -3 6 3 16 3 23 -2 6 -4 17 -8 24 -9 38 -6
82 -27 77 -36 -4 -7 -2 -8 4 -4 16 10 132 -26 125 -38 -3 -5 -1 -6 5 -2 15 9
63 -4 56 -15 -3 -5 1 -6 8 -4 16 6 201 -49 193 -57 -3 -3 1 -8 10 -12 9 -3 13
-2 10 4 -8 13 -4 12 51 -1 24 -6 44 -16 44 -21 0 -5 4 -7 9 -3 6 3 70 -8 144
-25 74 -17 214 -46 311 -64 97 -17 174 -35 170 -39 -4 -4 -2 -7 4 -7 7 0 12 4
12 8 0 4 53 0 118 -9 277 -39 453 -52 737 -53 347 -1 485 7 815 50 187 24 438
72 639 120 79 19 150 33 158 30 8 -3 12 -2 9 3 -3 4 47 23 112 41 347 98 791
273 1041 412 57 32 108 55 113 52 4 -3 7 -2 6 3 -2 4 10 24 25 44 37 49 47 88
47 186 0 199 -71 573 -194 1028 -48 176 -131 424 -224 672 -29 76 -48 141 -45
153 4 13 1 20 -10 20 -17 0 -30 27 -20 42 3 6 2 8 -4 5 -5 -3 -24 31 -43 76
-18 45 -57 133 -86 196 -56 117 -62 137 -42 125 7 -4 8 -3 4 5 -4 6 -11 9 -15
7 -11 -7 -43 63 -35 76 4 6 3 8 -3 5 -5 -3 -23 22 -39 56 -16 34 -60 119 -97
189 -37 71 -65 133 -61 140 4 6 3 8 -3 5 -5 -3 -32 33 -58 81 -27 48 -68 119
-92 159 -24 39 -43 81 -43 93 0 12 -4 19 -9 16 -5 -4 -20 11 -32 31 -13 21
-81 127 -151 236 -71 109 -125 203 -122 209 4 6 2 8 -3 5 -13 -8 -66 59 -58
73 4 6 1 9 -7 8 -7 -2 -12 5 -12 14 1 10 -2 16 -7 15 -13 -3 -110 134 -102
146 3 5 1 7 -5 3 -11 -7 -55 47 -47 58 3 3 2 4 -1 1 -9 -6 -84 87 -78 97 3 5
2 7 -3 6 -5 -2 -24 15 -43 37 -19 22 -72 81 -117 131 -46 50 -79 94 -75 98 4
4 3 6 -3 5 -5 -2 -37 23 -70 56 -113 111 -220 210 -315 289 -52 44 -94 83 -92
88 1 4 -2 7 -7 6 -5 -2 -61 34 -124 79 -63 45 -156 106 -205 136 -50 30 -88
57 -85 61 4 3 4 5 2 5 -2 -1 -31 -5 -64 -9z m154 -251 c67 -44 125 -87 128
-95 3 -7 8 -12 12 -10 9 6 146 -104 146 -117 0 -6 8 -11 17 -13 24 -3 129 -94
122 -105 -3 -5 -2 -8 3 -7 15 5 92 -65 86 -76 -3 -6 -3 -8 2 -4 11 11 36 -12
28 -26 -3 -6 -2 -8 2 -3 11 10 56 -33 48 -46 -3 -6 -2 -7 4 -4 15 9 156 -140
147 -154 -4 -7 -3 -9 3 -6 10 7 28 -8 35 -28 1 -5 6 -9 10 -8 4 2 34 -31 68
-72 36 -44 54 -72 43 -69 -10 3 -3 -4 14 -16 18 -12 30 -26 27 -31 -3 -5 -1
-8 4 -7 14 5 64 -60 56 -73 -4 -7 -3 -9 3 -6 6 4 16 0 23 -8 10 -12 7 -29 -15
-90 -16 -45 -31 -72 -38 -68 -6 3 -7 1 -3 -6 9 -14 -63 -203 -75 -195 -5 3 -6
-1 -3 -9 2 -7 -24 -88 -59 -178 -36 -90 -89 -228 -118 -306 -29 -79 -56 -143
-59 -143 -16 0 -89 63 -83 72 3 7 1 8 -5 4 -14 -9 -102 52 -102 70 0 8 -6 11
-12 9 -17 -6 -170 100 -160 110 4 5 2 5 -4 2 -13 -7 -94 47 -94 63 0 6 -5 10
-11 10 -5 0 -7 -5 -3 -12 8 -13 6 -12 -76 41 -30 20 -72 44 -92 54 -21 11 -35
24 -31 30 3 5 1 7 -5 3 -15 -9 -83 25 -75 38 4 6 0 5 -9 -2 -13 -10 -17 -10
-22 3 -6 16 -41 21 -50 6 -3 -4 7 -7 22 -5 20 3 18 1 -8 -7 -19 -6 -63 -24
-98 -40 -35 -16 -68 -26 -74 -23 -6 4 -8 3 -5 -3 3 -5 -13 -20 -36 -33 -23
-13 -85 -52 -139 -87 -53 -35 -98 -63 -101 -63 -3 0 -8 8 -11 18 -3 11 -4 10
-3 -5 3 -29 -55 -73 -86 -66 -16 3 -18 2 -9 -5 10 -7 1 -18 -38 -46 -28 -20
-55 -34 -61 -31 -5 4 -8 2 -7 -4 4 -14 -122 -101 -137 -94 -11 4 -59 121 -67
163 -2 8 -6 17 -9 20 -3 3 -25 57 -48 120 -24 63 -69 180 -101 260 -88 220
-150 386 -150 400 0 39 421 517 443 503 6 -3 7 -2 4 4 -8 13 67 86 78 76 4 -5
5 -3 2 3 -9 15 181 186 196 177 5 -3 7 -2 4 4 -8 12 190 169 209 167 8 -1 12
2 9 6 -3 5 23 27 57 49 35 22 83 54 108 70 71 46 90 42 229 -50z m1181 -1190
c0 -4 11 -20 25 -35 13 -14 22 -30 20 -34 -3 -4 2 -11 11 -14 14 -5 14 -9 3
-23 -12 -15 -12 -16 3 -11 12 5 26 -8 52 -48 20 -30 34 -60 30 -66 -4 -7 -3
-8 4 -4 7 4 22 -10 37 -34 33 -52 42 -76 27 -66 -8 4 -10 2 -6 -8 3 -8 11 -13
19 -10 14 6 28 -23 18 -38 -3 -7 -1 -8 5 -4 13 8 68 -82 64 -103 -2 -7 1 -10
6 -7 12 7 202 -313 205 -343 0 -11 5 -18 9 -15 12 7 38 -53 32 -73 -4 -13 -3
-14 3 -5 7 9 17 -1 36 -37 30 -53 33 -66 15 -55 -7 4 -8 3 -4 -5 4 -6 11 -9
15 -7 10 6 153 -283 146 -295 -4 -5 -2 -9 3 -9 13 0 83 -160 76 -173 -4 -7 -3
-9 1 -4 11 9 96 -183 90 -201 -3 -7 0 -10 5 -7 6 3 10 -3 10 -14 0 -10 4 -21
8 -23 15 -6 63 -140 57 -158 -4 -11 0 -22 9 -27 20 -11 67 -132 143 -368 86
-264 96 -302 89 -320 -4 -11 -2 -14 6 -9 7 5 9 2 5 -9 -3 -9 -2 -17 3 -19 14
-5 140 -532 140 -586 0 -3 -17 10 -37 29 -21 20 -67 60 -103 89 -36 30 -64 57
-62 62 1 4 -2 7 -6 6 -10 -3 -178 118 -190 136 -4 6 -25 21 -47 33 -22 12 -39
27 -37 33 1 6 -1 9 -6 6 -11 -7 -138 82 -135 94 2 5 -5 6 -14 3 -10 -4 -14 -2
-10 4 3 5 1 10 -6 10 -10 0 -192 116 -494 316 -34 23 -60 44 -57 48 2 4 -4 6
-14 5 -11 -1 -16 5 -14 17 2 9 -1 17 -7 17 -13 0 -81 208 -74 227 4 9 2 14 -3
10 -13 -8 -49 97 -39 113 5 8 4 11 -3 6 -14 -8 -45 84 -36 110 4 13 3 15 -3 6
-6 -8 -25 28 -58 115 -26 71 -48 134 -48 141 0 6 -4 12 -9 12 -4 0 -8 5 -8 11
0 6 -34 92 -76 192 -42 100 -88 208 -101 240 -13 31 -21 62 -17 69 4 6 3 8 -3
5 -9 -6 -93 165 -93 189 0 11 66 186 192 509 112 288 162 410 170 413 4 2 5 9
1 15 -4 7 1 6 10 -2 9 -7 17 -17 17 -22z m-2626 4 c4 -9 1 -20 -6 -25 -10 -6
-9 -8 3 -8 13 0 55 -80 63 -122 2 -7 13 -35 26 -63 12 -27 23 -62 24 -77 0
-14 4 -24 7 -22 11 6 32 -54 25 -71 -4 -11 -2 -14 6 -9 8 5 9 1 4 -12 -4 -10
-4 -15 0 -11 10 10 56 -103 49 -121 -3 -8 0 -10 7 -6 8 5 9 2 5 -9 -3 -10 -2
-17 3 -17 6 0 10 -5 10 -11 0 -5 -4 -7 -10 -4 -6 3 -7 -1 -4 -9 3 -9 10 -14
14 -11 9 5 44 -75 36 -82 -3 -3 1 -12 9 -20 18 -18 20 -37 3 -28 -7 4 -5 0 4
-7 20 -17 70 -146 62 -159 -3 -5 0 -9 5 -9 6 0 11 -5 11 -11 0 -5 -4 -8 -8 -5
-4 2 -8 -3 -9 -12 -2 -34 -138 -330 -146 -318 -6 7 -7 4 -3 -7 3 -11 -20 -79
-55 -165 -66 -161 -177 -451 -230 -604 -18 -53 -37 -94 -41 -92 -3 2 -10 -1
-14 -7 -4 -8 -3 -9 5 -5 15 9 9 -17 -30 -133 -16 -46 -37 -90 -46 -98 -10 -8
-12 -12 -5 -8 6 3 12 2 12 -3 0 -5 -57 -46 -127 -90 -71 -44 -195 -126 -278
-181 -82 -54 -154 -97 -160 -94 -5 4 -7 3 -3 -2 10 -10 -89 -78 -102 -70 -5 3
-12 0 -16 -6 -5 -8 -2 -10 7 -5 8 4 5 1 -5 -8 -10 -8 -23 -13 -29 -9 -6 3 -7
2 -4 -4 7 -12 -77 -76 -87 -66 -3 3 -6 2 -6 -4 0 -13 -220 -178 -237 -178 -7
0 -13 -5 -14 -10 -1 -19 -33 -46 -46 -40 -8 2 -11 1 -8 -4 6 -11 -73 -77 -86
-74 -5 2 -8 -3 -6 -10 1 -6 -4 -11 -11 -9 -8 1 -11 -2 -8 -7 4 -5 2 -12 -4
-16 -14 -9 -13 -4 14 137 43 220 145 606 155 589 4 -5 7 7 8 27 3 93 331 971
356 955 6 -3 7 -1 3 5 -7 12 10 52 99 239 44 94 61 120 74 116 13 -4 13 -3 2
5 -11 8 1 37 59 148 71 134 211 381 301 531 24 39 47 69 53 66 5 -3 6 -2 3 3
-6 11 59 119 72 119 5 0 13 4 18 9 5 5 2 6 -6 1 -17 -10 -14 -3 27 63 19 29
38 49 44 45 7 -3 8 -1 4 5 -8 13 77 147 102 162 10 5 14 10 9 10 -10 0 23 50
33 50 4 0 11 -8 14 -17z m1423 -527 c29 -16 50 -33 46 -39 -3 -6 -1 -7 5 -3
14 8 173 -94 165 -107 -3 -6 -1 -7 6 -3 15 9 73 -32 65 -46 -4 -7 -2 -8 4 -4
14 8 105 -51 97 -64 -3 -5 0 -12 6 -16 8 -5 9 -3 4 6 -13 22 19 5 80 -41 30
-23 53 -45 50 -49 -3 -4 3 -7 13 -6 9 0 16 -5 14 -12 -1 -8 1 -11 6 -8 16 10
82 -44 82 -67 0 -17 2 -19 9 -8 7 11 12 7 25 -16 20 -39 127 -285 130 -298 1
-5 12 -28 23 -50 12 -22 23 -51 24 -65 2 -14 8 -28 13 -31 15 -12 155 -374
145 -378 -6 -1 -3 -8 6 -15 9 -7 18 -24 18 -38 1 -14 5 -24 8 -22 4 2 9 -4 12
-14 3 -9 34 -101 70 -204 41 -118 63 -196 60 -212 -4 -20 -1 -26 12 -26 13 0
16 -7 13 -29 -2 -17 -1 -28 4 -25 13 8 12 6 -66 -223 -118 -351 -128 -378
-137 -387 -4 -5 -55 -20 -111 -33 -57 -13 -152 -35 -213 -49 -106 -24 -377
-76 -460 -88 -22 -3 -111 -15 -199 -27 l-158 -20 -213 30 c-117 17 -216 31
-219 31 -4 0 -4 5 0 11 5 9 -1 10 -22 5 -37 -10 -274 35 -247 46 12 6 8 6 -11
3 -33 -7 -278 44 -271 56 3 4 -3 5 -12 3 -10 -2 -47 4 -83 13 -53 15 -67 24
-79 47 -29 60 -131 379 -124 390 3 6 2 7 -3 3 -9 -8 -63 143 -64 178 -1 34
103 324 113 318 6 -3 7 -1 3 6 -9 13 6 61 81 261 98 263 176 449 186 443 6 -3
7 -1 3 5 -8 14 105 283 116 276 4 -3 6 1 3 8 -2 7 8 38 23 68 23 47 43 67 131
132 57 43 109 75 115 71 6 -3 8 -3 4 2 -11 11 110 97 124 89 6 -4 8 -3 5 4 -9
13 222 165 377 248 60 32 61 32 101 15 22 -9 63 -29 92 -45z m1446 -2089 c15
-10 25 -23 22 -28 -4 -5 0 -6 7 -4 8 3 23 -2 34 -12 11 -10 26 -19 34 -21 23
-6 40 -23 33 -35 -3 -6 -1 -7 5 -3 15 9 154 -83 145 -97 -3 -6 -1 -7 5 -3 6 4
30 -5 52 -20 31 -20 38 -30 28 -37 -9 -6 -8 -7 5 -3 21 7 188 -103 179 -118
-3 -5 0 -6 6 -2 12 7 62 -35 62 -53 0 -7 -5 -9 -12 -5 -7 4 -8 3 -4 -4 4 -6
13 -9 21 -6 8 4 12 11 8 18 -5 8 -3 8 8 0 8 -6 74 -55 146 -109 73 -54 130
-102 126 -108 -3 -6 -1 -7 5 -3 7 4 12 3 12 -1 0 -5 10 -13 23 -18 12 -6 21
-16 20 -23 -2 -7 3 -11 10 -9 6 1 11 -4 9 -11 -1 -8 2 -11 9 -7 14 9 131 -104
122 -118 -3 -6 -2 -7 4 -4 23 14 83 -84 83 -135 0 -40 -22 -84 -39 -80 -7 1
-10 -2 -6 -7 10 -16 -35 -34 -74 -28 -51 7 -261 90 -261 103 0 6 -7 17 -15 24
-10 9 -15 9 -15 1 0 -6 5 -11 10 -11 6 0 10 -4 10 -9 0 -5 -18 -2 -40 6 -22 9
-37 20 -33 26 3 6 1 7 -5 3 -13 -8 -92 22 -92 35 0 5 -9 9 -21 9 -13 0 -18 4
-13 12 5 7 3 8 -6 3 -16 -10 -151 55 -143 68 3 6 1 7 -5 3 -13 -8 -198 81
-195 94 2 5 -5 6 -14 3 -12 -5 -14 -3 -8 7 5 8 4 11 -3 6 -14 -9 -163 65 -155
77 3 6 1 7 -5 3 -14 -9 -95 32 -87 44 3 5 0 12 -6 16 -8 4 -9 3 -5 -4 9 -15 3
-15 -28 -1 -14 7 -23 16 -19 22 3 6 1 7 -6 3 -14 -9 -132 55 -124 68 3 5 1 6
-5 3 -15 -10 -73 26 -67 41 2 7 12 37 21 67 9 34 20 53 26 49 7 -4 8 -2 4 4
-10 17 23 124 36 116 7 -5 8 -2 4 5 -5 7 11 68 35 136 l43 124 36 -21 c19 -12
47 -30 63 -41z m-3012 -63 c21 -60 36 -120 33 -134 -2 -14 -1 -19 2 -11 13 27
65 -122 57 -162 -3 -14 0 -27 5 -31 6 -4 8 3 6 16 -3 17 -1 15 10 -7 9 -16 15
-37 16 -46 0 -17 -73 -63 -84 -52 -3 3 -6 1 -6 -5 0 -19 -141 -85 -153 -73
-12 12 -37 -4 -37 -23 0 -6 7 -3 14 7 8 11 17 14 20 8 9 -14 -248 -142 -271
-135 -13 4 -14 3 -5 -3 16 -12 -132 -88 -149 -77 -7 4 -9 3 -6 -3 8 -12 -141
-85 -156 -77 -7 4 -9 4 -5 -1 10 -11 -209 -108 -224 -99 -6 4 -8 3 -5 -3 7
-11 -81 -54 -201 -99 -87 -33 -126 -31 -162 5 -83 82 -36 179 176 362 98 85
319 259 330 259 2 0 14 9 26 20 24 22 43 27 32 8 -4 -8 -3 -10 2 -5 5 5 9 13
9 18 0 11 177 135 384 269 89 58 190 124 224 147 34 23 66 40 72 39 5 -1 26
-52 46 -112z m346 -529 c40 -10 70 -21 67 -26 -3 -5 1 -7 8 -4 7 3 33 1 58 -4
315 -66 522 -105 652 -123 86 -12 154 -26 152 -30 -3 -4 2 -5 11 -2 8 3 26 3
40 0 l25 -6 0 -485 0 -484 -157 4 c-347 8 -799 77 -1245 187 -92 23 -165 44
-163 47 1 3 -11 7 -29 8 -48 2 -428 132 -444 151 -7 9 -10 11 -6 3 4 -7 3 -12
-2 -10 -5 2 -33 13 -62 23 -29 11 -52 24 -52 29 0 4 -4 5 -10 2 -5 -3 -10 -1
-10 5 0 6 -4 9 -9 6 -12 -8 -73 19 -64 28 4 4 0 4 -8 1 -9 -3 -46 9 -84 26
-59 29 -65 34 -45 41 12 4 27 5 32 1 6 -3 8 -2 5 4 -5 8 48 36 136 72 6 2 7
-1 3 -8 -5 -7 -1 -9 8 -5 9 3 14 10 11 14 -7 11 93 52 107 44 6 -4 8 -3 5 3
-8 12 111 65 126 56 5 -3 7 -2 4 4 -6 10 183 106 209 106 8 0 12 3 9 5 -3 3
66 42 152 87 87 44 203 105 258 135 198 107 219 118 230 115 5 -2 43 -11 82
-20z m2398 -42 c55 -31 120 -68 145 -82 25 -15 80 -44 122 -65 42 -22 74 -44
71 -49 -4 -6 0 -8 10 -4 9 3 18 0 21 -9 3 -9 10 -13 15 -9 14 8 101 -37 94
-48 -3 -6 -1 -7 4 -4 6 4 78 -26 160 -66 115 -55 149 -76 147 -90 -1 -9 2 -15
7 -11 5 3 7 10 4 15 -10 15 -1 12 122 -45 65 -29 139 -62 165 -72 27 -11 48
-26 49 -34 0 -9 2 -11 5 -3 5 12 34 7 34 -6 0 -7 -44 -31 -55 -31 -2 0 -2 7 2
16 4 12 2 15 -8 12 -8 -3 -13 -12 -11 -20 3 -18 -51 -43 -69 -32 -7 4 -10 3
-6 -3 8 -13 -178 -87 -194 -77 -7 4 -9 3 -6 -3 6 -10 -35 -26 -278 -108 -194
-65 -480 -139 -502 -130 -8 2 -12 1 -9 -4 3 -5 -9 -11 -27 -14 -17 -3 -84 -17
-147 -30 -63 -14 -164 -33 -225 -42 -60 -9 -121 -18 -135 -21 -116 -21 -398
-46 -547 -49 l-183 -3 0 488 0 488 63 7 c243 26 620 96 882 164 83 21 157 37
165 34 8 -2 60 -29 115 -60z"/>
</g>
</svg>
