<?xml version="1.0" standalone="no"?>
<!DOCTYPE svg PUBLIC "-//W3C//DTD SVG 20010904//EN"
 "http://www.w3.org/TR/2001/REC-SVG-20010904/DTD/svg10.dtd">
<svg version="1.0" xmlns="http://www.w3.org/2000/svg"
 width="1024.000000pt" height="1024.000000pt" viewBox="0 0 1024.000000 1024.000000"
 preserveAspectRatio="xMidYMid meet">
<metadata>
Created by potrace 1.16, written by Peter Selinger 2001-2019
</metadata>
<g transform="translate(0.000000,1024.000000) scale(0.100000,-0.100000)"
fill="#000000" stroke="none">
<path d="M4650 7925 c-372 -47 -643 -128 -955 -285 -286 -144 -486 -290 -720
-524 -226 -226 -374 -426 -506 -680 -183 -353 -280 -703 -310 -1116 -10 -143
-7 -358 5 -440 2 -14 7 -59 11 -100 13 -151 55 -350 112 -535 91 -300 277
-649 481 -904 99 -124 343 -368 454 -454 503 -390 1041 -579 1685 -594 253 -6
375 3 589 42 440 82 884 284 1219 555 121 97 307 282 414 410 285 340 518 832
601 1270 39 207 45 269 45 525 0 264 -13 412 -40 465 -29 56 -124 68 -176 22
-37 -33 -38 -47 -20 -217 69 -673 -138 -1369 -567 -1905 -293 -367 -723 -668
-1166 -815 -315 -104 -573 -142 -906 -132 -255 8 -458 40 -675 107 -319 98
-587 235 -848 432 -109 82 -332 307 -443 445 -266 334 -442 733 -521 1183 -25
145 -27 174 -27 450 0 277 2 304 27 441 85 464 285 894 570 1224 392 456 826
724 1387 859 211 50 420 70 670 63 337 -9 578 -58 883 -178 367 -146 752 -418
1001 -709 88 -103 202 -258 195 -264 -2 -1 -105 15 -229 36 -124 21 -255 41
-292 45 -65 5 -68 5 -99 -26 -29 -29 -31 -36 -27 -81 10 -99 13 -100 273 -144
88 -15 258 -45 378 -67 244 -44 263 -45 313 -24 53 22 60 52 68 275 3 107 11
300 16 428 10 217 10 236 -7 270 -32 66 -125 81 -178 28 -28 -28 -34 -82 -37
-359 -1 -114 -5 -206 -9 -205 -4 2 -31 35 -60 74 -117 155 -236 283 -389 418
-184 163 -287 235 -500 353 -325 181 -606 273 -994 329 -157 23 -547 27 -696
9z"/>
<path d="M4450 5943 c-24 -12 -39 -29 -47 -53 -16 -48 -18 -1502 -2 -1549 28
-80 167 -83 208 -4 16 31 16 1522 -1 1557 -24 55 -101 78 -158 49z"/>
<path d="M5378 5944 c-72 -30 -69 8 -66 -844 l3 -762 33 -29 c27 -24 41 -29
83 -29 43 0 55 5 80 29 l29 29 0 774 c0 858 4 805 -66 834 -41 17 -49 17 -96
-2z"/>
</g>
</svg>
