<?xml version="1.0" standalone="no"?>
<!DOCTYPE svg PUBLIC "-//W3C//DTD SVG 20010904//EN" "http://www.w3.org/TR/2001/REC-SVG-20010904/DTD/svg10.dtd">
<svg xmlns="http://www.w3.org/2000/svg" version="1.0" width="1024.000000pt" height="1024.000000pt" viewBox="0 0 1024.000000 1024.000000" preserveAspectRatio="xMidYMid meet">
<metadata>
Created by potrace 1.16, written by Peter Selinger 2001-2019
<meta name="Producer" content="Online-Convert"/></metadata>
<g transform="translate(0.000000,1024.000000) scale(0.100000,-0.100000)" fill="#000000" stroke="none">
<path d="M2600 8716 c-14 -8 -27 -13 -31 -11 -3 2 -6 -1 -7 -8 -21 -223 -66 -359 -154 -463 -42 -51 -95 -91 -111 -86 -5 1 -6 -1 -3 -6 10 -17 -115 -74 -203 -92 -102 -21 -127 -32 -136 -60 -4 -11 -10 -18 -15 -15 -5 3 -5 -9 1 -27 12 -43 11 -51 -3 -42 -8 4 -10 3 -5 -2 5 -5 12 -9 15 -9 4 0 19 -8 33 -18 14 -9 47 -21 75 -26 96 -19 186 -60 253 -117 27 -22 30 -29 19 -43 -11 -14 -11 -14 3 -4 13 11 21 7 47 -20 22 -22 30 -40 27 -55 -2 -13 0 -20 6 -17 5 4 7 12 3 18 -3 7 2 3 11 -8 50 -59 106 -225 120 -358 6 -58 12 -71 37 -92 39 -33 73 -32 107 3 22 22 29 40 35 92 14 127 48 223 113 322 14 21 30 35 36 31 5 -3 7 -2 4 4 -8 12 93 110 161 156 60 41 131 69 216 87 80 16 110 47 103 103 -8 59 -29 71 -170 98 -31 6 -55 14 -52 19 3 4 -3 6 -12 4 -58 -15 -312 198 -286 239 3 5 1 7 -4 4 -14 -9 -66 109 -67 150 -1 17 -4 29 -8 26 -5 -2 -8 -3 -8 -1 0 35 -24 177 -33 192 -6 12 -10 24 -9 28 1 4 -4 5 -12 2 -8 -3 -17 -1 -21 5 -9 15 -45 13 -75 -3z m55 -454 c-3 -9 -3 -13 1 -10 7 7 108 -139 109 -157 0 -5 5 -10 10 -10 18 0 95 -68 88 -78 -3 -6 -1 -7 4 -4 6 4 37 -9 69 -28 32 -19 63 -35 68 -35 6 0 -9 -11 -33 -25 -24 -14 -61 -39 -82 -56 -22 -17 -44 -27 -50 -23 -7 4 -9 3 -6 -3 4 -6 -1 -17 -10 -24 -9 -8 -39 -41 -66 -74 -28 -33 -55 -59 -60 -57 -4 1 -6 -2 -3 -7 3 -5 -8 -34 -26 -65 l-32 -56 -18 46 c-36 92 -124 204 -208 264 -32 24 -57 47 -54 52 3 5 2 8 -3 7 -13 -3 -63 12 -63 20 0 8 131 77 141 74 5 -2 8 0 7 5 -4 10 111 120 118 113 3 -3 4 -1 2 4 -4 13 54 105 63 99 4 -2 11 1 15 7 4 8 3 9 -4 5 -15 -9 -15 -1 -1 25 12 23 33 15 24 -9z"/>
<path d="M4615 7973 c-22 -2 -87 -13 -145 -24 -527 -99 -1023 -435 -1333 -903 -44 -67 -84 -120 -89 -118 -5 1 -7 -2 -3 -7 3 -6 -15 -52 -41 -102 -64 -128 -117 -269 -145 -382 -12 -53 -26 -94 -31 -91 -5 3 -5 10 -2 16 4 7 2 8 -5 4 -9 -6 -9 -11 -1 -22 9 -10 9 -30 1 -81 -29 -176 -29 -436 0 -598 12 -66 23 -132 23 -147 1 -14 3 -24 5 -22 8 7 60 -159 54 -170 -3 -5 -1 -6 5 -2 7 4 12 2 12 -3 0 -6 -4 -11 -10 -11 -5 0 -10 -5 -10 -11 0 -6 6 -9 13 -6 14 5 79 -121 70 -137 -3 -6 -3 -8 2 -4 10 9 77 -101 69 -113 -3 -5 0 -8 8 -7 7 2 12 -5 12 -14 -1 -10 2 -16 6 -13 4 3 15 -6 24 -20 9 -13 36 -48 60 -78 25 -30 42 -58 38 -62 -4 -4 -2 -6 3 -4 11 2 160 -137 160 -151 0 -4 4 -12 9 -17 5 -5 6 -3 2 5 -4 6 -4 12 -1 12 11 0 70 -52 68 -60 -1 -4 3 -7 10 -7 7 0 41 -20 77 -45 77 -54 213 -125 328 -172 46 -19 80 -36 75 -38 -4 -3 -2 -3 6 -1 7 2 43 -6 80 -17 206 -64 410 -91 696 -92 233 0 335 11 554 58 81 17 117 21 126 14 8 -7 15 -7 19 -1 3 5 1 11 -4 13 -6 2 42 21 107 42 65 21 172 63 237 92 65 29 123 51 129 47 6 -3 7 -1 4 4 -4 6 38 36 96 69 186 105 439 302 463 360 15 36 6 71 -24 94 -42 33 -66 25 -152 -51 -47 -41 -85 -67 -92 -63 -7 4 -8 3 -4 -4 12 -21 -296 -227 -324 -216 -8 3 -11 2 -7 -2 10 -10 -116 -76 -248 -129 -282 -113 -564 -165 -897 -166 -165 0 -240 6 -406 32 -50 8 -69 15 -60 21 9 6 6 7 -9 3 -50 -14 -293 69 -463 158 -117 61 -241 147 -233 160 3 6 1 7 -5 3 -13 -8 -94 62 -86 75 3 5 1 8 -4 7 -12 -4 -77 56 -133 122 -261 308 -382 745 -325 1170 25 186 117 494 141 473 4 -4 5 -2 1 4 -10 18 61 166 75 157 8 -4 9 -3 5 4 -10 16 34 93 48 85 6 -3 8 -3 4 2 -10 11 5 36 82 140 84 113 209 250 226 249 7 -1 12 3 11 8 -3 17 152 147 263 220 297 194 623 298 937 298 141 0 304 -17 284 -29 -5 -4 7 -7 27 -7 55 -1 122 -22 122 -39 0 -8 8 -15 18 -15 14 0 15 2 2 10 -28 18 6 10 71 -16 101 -41 199 -95 192 -107 -3 -6 -1 -7 5 -3 15 9 64 -23 55 -37 -3 -6 -1 -7 6 -3 11 7 142 -90 138 -103 -1 -3 3 -8 8 -9 20 -7 35 -25 28 -35 -3 -5 -1 -7 4 -4 14 9 96 -80 87 -95 -4 -6 -3 -8 4 -4 13 8 51 -44 44 -63 -3 -8 0 -11 6 -7 8 5 54 -59 89 -126 2 -4 -2 -5 -10 -2 -8 3 -18 0 -22 -6 -4 -6 -1 -11 6 -9 31 4 38 -4 69 -80 26 -66 30 -83 20 -103 -10 -21 -10 -21 4 -5 13 17 15 16 21 -12 3 -17 3 -36 -1 -42 -4 -7 -3 -9 3 -6 14 9 45 -152 39 -203 -3 -24 -1 -40 6 -40 10 0 8 -94 -5 -238 -8 -80 -39 -210 -70 -293 -38 -100 -78 -179 -88 -173 -5 3 -6 -1 -3 -9 6 -18 -138 -233 -155 -229 -7 1 -9 -2 -6 -8 8 -13 -168 -191 -245 -247 -93 -67 -210 -131 -318 -174 -328 -128 -703 -115 -963 34 -81 46 -171 115 -165 126 2 3 0 15 -5 26 -6 17 -8 17 -8 3 -1 -28 -13 -21 -63 40 -63 76 -134 213 -160 308 -30 113 -30 297 0 413 26 100 95 243 157 326 62 83 197 216 213 210 7 -3 10 0 7 5 -10 16 115 91 139 84 14 -3 17 -2 8 4 -9 6 4 16 45 34 157 70 342 100 496 80 97 -12 160 -29 152 -41 -2 -4 10 -8 26 -8 17 0 34 -5 38 -12 5 -7 10 -11 13 -9 2 1 32 -14 65 -34 66 -41 137 -113 128 -129 -4 -5 -1 -8 6 -7 17 4 81 -122 83 -160 1 -17 4 -28 7 -26 23 14 26 -206 4 -291 -22 -85 -82 -208 -96 -199 -7 4 -9 3 -6 -3 13 -21 -80 -125 -170 -189 -156 -113 -357 -140 -499 -68 -104 53 -156 140 -158 264 -1 62 4 85 26 132 46 100 135 166 248 188 68 13 90 32 90 80 0 26 -7 43 -25 60 -22 20 -31 22 -91 17 -143 -11 -299 -126 -369 -271 -19 -40 -35 -81 -35 -90 0 -10 -3 -15 -7 -13 -5 3 -7 -25 -6 -61 2 -37 4 -99 5 -139 2 -39 6 -74 10 -78 4 -4 4 4 2 17 -3 15 0 11 10 -11 9 -18 13 -38 9 -45 -3 -6 -3 -8 2 -4 11 11 58 -60 49 -74 -4 -6 -3 -8 3 -5 12 7 46 -26 38 -36 -3 -4 -2 -5 1 -2 11 7 74 -47 67 -58 -3 -5 -1 -7 5 -4 5 4 38 -6 72 -22 204 -97 461 -52 685 120 35 26 66 46 69 43 3 -2 4 -1 2 2 -3 3 17 33 44 65 179 215 248 485 185 722 -8 32 -32 93 -52 135 -20 43 -37 82 -36 89 0 7 -3 11 -6 10 -4 -1 -27 20 -50 47 -50 57 -123 120 -166 143 -17 9 -25 18 -17 20 6 3 9 9 6 15 -4 7 -9 6 -13 -1 -5 -7 -31 -1 -80 20 -89 37 -156 55 -241 65 -36 3 -69 10 -75 14 -8 7 -60 7 -60 1 0 -1 -25 -4 -55 -7 -85 -7 -211 -32 -275 -54 -32 -11 -68 -18 -79 -14 -15 4 -17 3 -8 -4 10 -7 6 -12 -17 -21 -16 -7 -35 -10 -42 -5 -7 4 -10 3 -6 -3 3 -5 -29 -29 -71 -53 -93 -52 -169 -109 -250 -188 -58 -58 -157 -183 -181 -230 -7 -12 -16 -20 -21 -17 -5 3 -12 0 -16 -6 -4 -8 -3 -9 4 -5 17 10 16 8 -27 -85 -21 -46 -46 -106 -55 -132 -25 -76 -46 -212 -46 -304 0 -62 -3 -82 -12 -77 -6 4 -4 -3 5 -17 9 -13 17 -35 17 -49 0 -15 10 -62 22 -106 12 -43 21 -92 20 -109 -1 -18 2 -25 6 -18 5 9 20 -12 43 -58 19 -40 51 -94 71 -122 21 -27 35 -54 32 -59 -3 -5 -2 -8 3 -7 4 1 39 -27 76 -64 37 -36 94 -82 125 -103 70 -47 83 -57 58 -48 -14 5 -17 4 -12 -5 5 -7 15 -10 23 -7 8 4 40 -7 71 -24 58 -30 184 -74 246 -85 19 -4 37 -13 40 -21 3 -8 11 -14 18 -14 9 0 9 3 -2 11 -11 8 -5 9 25 5 22 -3 103 -8 180 -12 119 -5 160 -3 269 16 461 78 857 368 1102 807 28 51 55 89 59 85 5 -4 5 -2 1 5 -4 7 5 39 19 72 34 82 71 214 90 320 16 92 25 391 13 391 -5 0 -8 12 -8 28 0 26 -36 186 -60 265 -6 21 -27 74 -46 119 -19 44 -31 85 -27 90 3 6 1 8 -5 5 -6 -4 -24 18 -42 50 -18 32 -39 66 -47 75 -8 9 -12 22 -7 29 4 7 3 10 -4 5 -10 -6 -59 62 -54 76 1 5 -1 7 -6 6 -4 -1 -45 36 -92 83 -47 47 -103 101 -125 119 -22 18 -34 29 -26 25 10 -6 12 -4 7 4 -5 7 -10 10 -13 7 -8 -8 -138 85 -135 96 1 5 -1 7 -6 4 -5 -3 -54 17 -110 44 -56 28 -106 50 -112 50 -6 0 -8 5 -4 12 4 7 3 8 -4 4 -6 -4 -45 5 -87 19 -187 63 -419 88 -630 68z"/>
<path d="M7221 6981 c-12 -12 -23 -46 -30 -92 -17 -104 -28 -150 -50 -200 -26 -60 -78 -129 -97 -129 -8 0 -13 -4 -9 -9 3 -5 -8 -19 -25 -31 -28 -20 -36 -17 -31 13 1 5 -3 6 -8 3 -5 -3 -7 -14 -4 -25 7 -26 -62 -57 -178 -81 -96 -19 -114 -30 -126 -79 -6 -25 25 -96 42 -96 6 0 46 -9 90 -19 83 -19 158 -53 149 -67 -3 -5 1 -6 9 -3 20 7 141 -111 133 -131 -3 -9 -2 -14 3 -10 22 13 82 -132 97 -232 9 -66 28 -99 64 -112 68 -23 102 14 129 142 21 103 82 234 103 221 6 -4 8 -3 5 3 -9 15 89 107 104 98 7 -5 10 -4 6 3 -14 22 92 70 207 92 99 20 136 84 83 145 -18 21 -41 30 -116 46 -111 23 -178 56 -247 125 -64 62 -145 197 -101 168 7 -5 5 -2 -4 7 -21 19 -26 36 -44 139 -18 101 -39 130 -97 130 -24 0 -45 -7 -57 -19z m97 -432 c15 -24 18 -39 12 -47 -7 -8 -7 -9 1 -3 8 7 28 -8 63 -46 28 -31 50 -61 48 -66 -1 -4 2 -5 8 -2 6 4 19 0 28 -8 9 -8 30 -21 46 -29 l29 -15 -36 -27 c-21 -16 -41 -25 -48 -20 -7 4 -9 3 -6 -3 7 -11 -41 -49 -55 -45 -5 1 -7 -4 -5 -10 1 -7 -4 -12 -10 -10 -7 1 -12 -1 -11 -5 4 -12 -33 -63 -41 -58 -4 2 -8 -1 -8 -8 0 -7 -12 -34 -27 -60 l-28 -47 -24 46 c-13 25 -21 50 -18 56 4 6 3 8 -3 5 -12 -7 -80 73 -75 88 2 5 0 7 -3 3 -11 -10 -76 42 -68 55 3 5 1 7 -5 4 -5 -4 -23 0 -40 10 l-29 17 58 38 c66 44 147 129 185 195 28 47 29 47 62 -8z"/>
<path d="M8445 6041 c-57 -15 -101 -44 -184 -127 -46 -46 -88 -81 -94 -77 -5 3 -7 2 -4 -4 8 -13 -35 -58 -691 -718 -306 -308 -660 -665 -786 -792 -126 -128 -234 -229 -239 -226 -6 3 -7 1 -4 -4 8 -13 -27 -46 -37 -36 -4 5 -6 3 -4 -3 4 -14 -303 -330 -317 -326 -5 2 -7 0 -2 -4 4 -4 0 -15 -8 -24 -9 -10 -33 -56 -54 -103 -21 -48 -42 -83 -46 -79 -5 4 -5 2 -1 -5 5 -9 -86 -256 -144 -388 -5 -11 -30 -72 -56 -135 -42 -100 -55 -123 -108 -176 -69 -68 -142 -108 -186 -102 -16 3 -31 0 -33 -5 -5 -17 -68 4 -103 36 -40 35 -78 102 -70 123 3 8 2 13 -3 10 -12 -8 -23 40 -16 67 2 12 2 16 -1 9 -4 -8 -15 6 -29 35 -12 27 -37 61 -56 77 -30 25 -39 28 -90 24 -72 -5 -119 -35 -190 -120 -29 -35 -57 -62 -62 -60 -4 1 -6 -2 -2 -8 8 -13 -86 -153 -144 -213 -77 -81 -141 -100 -179 -52 -49 61 -30 189 58 406 87 213 105 282 105 394 0 109 -15 154 -69 204 -14 13 -23 28 -19 34 3 6 2 7 -4 4 -5 -3 -29 1 -54 9 -88 31 -206 -4 -299 -90 -130 -118 -228 -269 -402 -617 -88 -174 -113 -217 -126 -212 -13 4 -14 3 -3 -5 11 -8 10 -14 -4 -36 -9 -14 -22 -23 -28 -19 -5 3 -7 1 -3 -5 8 -14 -43 -74 -56 -65 -6 3 -8 2 -5 -4 15 -24 -65 -73 -117 -73 -101 0 -110 125 -25 331 38 93 272 558 279 554 3 -2 6 7 6 18 1 12 14 56 30 97 24 64 29 90 29 175 0 85 -3 107 -24 148 -13 28 -40 61 -62 77 -21 15 -37 29 -34 31 2 2 -6 5 -18 6 -12 0 -50 4 -84 8 -210 25 -532 -209 -710 -516 -25 -44 -50 -76 -56 -72 -5 3 -7 1 -4 -4 4 -6 0 -30 -8 -53 -21 -60 -19 -87 10 -116 14 -14 25 -29 25 -34 0 -6 5 -10 11 -10 5 0 7 5 4 10 -3 6 4 10 18 10 30 0 59 33 81 91 69 189 304 437 490 520 59 26 136 35 165 19 26 -13 51 -66 51 -108 0 -83 -102 -358 -123 -330 -6 9 -7 8 -3 -5 3 -11 -32 -92 -93 -215 -152 -302 -185 -397 -186 -527 0 -66 4 -88 25 -125 13 -25 23 -49 22 -53 -1 -5 2 -6 7 -3 5 3 12 -1 15 -10 3 -8 31 -26 61 -40 122 -56 244 -18 355 111 64 74 96 128 214 363 59 116 112 210 116 207 5 -3 12 0 16 6 4 8 3 9 -4 5 -19 -12 -14 3 24 65 19 33 40 57 45 54 5 -4 6 0 4 7 -9 24 129 203 148 191 6 -3 7 -1 3 5 -9 15 75 81 119 93 46 13 72 4 90 -31 16 -32 21 -120 6 -120 -5 0 -7 -9 -4 -19 6 -22 -3 -52 -54 -193 -20 -54 -39 -96 -42 -94 -3 2 -7 -6 -7 -17 -2 -38 -72 -222 -76 -201 -2 10 -3 -49 -3 -133 0 -84 4 -156 9 -160 4 -4 5 6 1 22 -6 27 -5 26 14 -9 11 -21 18 -44 14 -50 -3 -6 -2 -8 2 -3 5 4 21 -5 36 -19 34 -33 121 -63 163 -57 132 19 209 85 361 308 108 160 175 218 162 143 -3 -18 -3 -26 0 -19 3 9 16 -17 30 -59 14 -44 20 -76 14 -78 -5 -2 -7 -10 -4 -18 4 -12 8 -12 13 -4 5 8 18 -3 38 -32 64 -92 131 -136 225 -145 102 -9 218 29 338 112 48 32 233 110 409 170 52 18 155 56 229 84 74 29 141 49 148 46 8 -2 12 -1 9 3 -3 5 28 24 70 42 41 18 93 46 117 64 23 17 47 31 52 31 6 0 10 6 10 12 0 15 49 67 369 393 139 140 427 435 641 655 645 662 718 735 727 729 5 -3 7 0 6 8 -2 7 3 12 9 11 7 -2 12 1 10 6 -2 10 54 71 268 291 200 206 225 260 171 376 -24 53 -139 195 -225 278 -27 27 -47 54 -44 60 3 6 3 8 -2 4 -4 -4 -30 13 -58 38 -28 25 -62 51 -76 59 -35 17 -99 25 -136 16z m80 -171 c4 -6 -1 -7 -12 -4 -15 5 -15 4 -3 -4 8 -6 18 -8 23 -5 9 6 77 -55 77 -70 0 -4 -4 -5 -10 -2 -5 3 -10 4 -10 1 0 -3 10 -10 21 -17 17 -9 20 -8 14 3 -4 7 13 -7 38 -31 25 -24 43 -49 40 -54 -3 -6 -1 -7 5 -3 9 5 57 -49 57 -66 0 -3 4 -10 9 -15 5 -5 6 -2 2 7 -13 26 44 -43 60 -73 26 -48 11 -73 -118 -204 l-80 -83 -101 87 c-56 47 -101 90 -99 95 1 5 -2 7 -7 4 -5 -3 -30 14 -55 39 -26 25 -50 45 -54 45 -4 0 -33 24 -65 53 l-58 52 104 108 c57 60 117 117 133 128 31 20 79 25 89 9z m-315 -461 c66 -56 117 -106 113 -112 -3 -6 -1 -7 5 -3 11 6 192 -138 192 -153 -1 -17 -782 -811 -792 -805 -5 3 -7 1 -6 -4 4 -15 -182 -213 -193 -206 -5 3 -8 1 -7 -4 2 -6 -73 -88 -167 -184 -307 -315 -638 -648 -643 -648 -6 0 -81 61 -221 180 -111 94 -121 105 -105 117 10 7 13 13 7 13 -7 0 -15 -5 -18 -10 -8 -13 -66 26 -62 43 1 6 -3 11 -10 12 -7 0 -18 6 -24 12 -14 14 10 40 505 540 159 161 294 289 299 286 6 -3 7 -1 3 6 -5 8 114 134 336 356 188 190 413 417 498 505 85 88 159 160 163 160 4 0 62 -46 127 -101z m-2036 -1880 c-3 -5 -1 -8 4 -7 5 2 26 -10 46 -26 31 -24 35 -31 24 -45 -11 -14 -11 -14 4 -3 15 12 22 9 55 -23 25 -24 34 -38 25 -42 -6 -2 -9 -9 -6 -14 3 -6 11 -5 20 2 12 10 19 7 39 -11 13 -13 23 -26 20 -29 -2 -4 1 -13 7 -21 8 -12 9 -12 4 3 -8 24 7 21 30 -5 19 -22 19 -23 -1 -8 -19 14 -19 14 -6 -3 8 -9 16 -15 19 -12 3 2 27 -15 54 -38 28 -23 60 -50 72 -60 14 -11 15 -15 5 -11 -10 3 -20 0 -25 -7 -5 -8 -3 -10 7 -4 10 5 11 5 4 -3 -5 -6 -75 -35 -155 -66 -80 -30 -162 -62 -182 -70 -44 -19 -62 -20 -52 -4 4 7 3 8 -5 4 -6 -4 -9 -10 -7 -14 2 -4 -58 -30 -134 -58 -103 -37 -137 -46 -133 -35 3 9 11 21 17 26 6 6 12 19 13 30 0 11 49 137 108 280 58 143 109 268 112 277 3 10 9 15 14 12 5 -3 7 -10 3 -15z"/>
</g>
</svg>
