<?xml version="1.0" standalone="no"?>
<!DOCTYPE svg PUBLIC "-//W3C//DTD SVG 20010904//EN" "http://www.w3.org/TR/2001/REC-SVG-20010904/DTD/svg10.dtd">
<svg xmlns="http://www.w3.org/2000/svg" version="1.0" width="1024.000000pt" height="1024.000000pt" viewBox="0 0 1024.000000 1024.000000" preserveAspectRatio="xMidYMid meet">
<metadata>
Created by potrace 1.16, written by Peter Selinger 2001-2019
<meta name="Producer" content="Online-Convert"/></metadata>
<g transform="translate(0.000000,1024.000000) scale(0.100000,-0.100000)" fill="#000000" stroke="none">
<path d="M4870 7670 c-139 -9 -271 -29 -434 -65 -126 -29 -119 -28 -111 -15 3 6 -1 10 -9 10 -8 0 -18 -5 -22 -12 -4 -7 -3 -8 4 -4 7 4 12 3 12 -1 0 -14 -203 -73 -231 -67 -19 3 -20 3 -5 -4 14 -6 3 -14 -55 -37 -81 -31 -275 -126 -355 -172 -27 -16 -55 -28 -63 -25 -8 3 -11 0 -8 -5 8 -13 -100 -86 -114 -78 -5 4 -8 1 -7 -7 2 -7 -5 -12 -14 -12 -10 1 -16 -2 -15 -6 2 -9 -242 -215 -255 -215 -4 0 -8 -4 -8 -10 -1 -17 -73 -85 -83 -78 -6 3 -7 1 -4 -4 9 -14 -32 -65 -45 -57 -6 4 -8 3 -5 -3 3 -5 -17 -38 -45 -72 -28 -35 -80 -107 -115 -160 -36 -53 -69 -95 -75 -93 -5 1 -7 -2 -4 -7 8 -12 -25 -82 -35 -75 -4 2 -11 -1 -15 -7 -4 -8 -3 -9 4 -5 16 10 15 1 -3 -35 -9 -16 -20 -27 -25 -24 -5 3 -8 -3 -8 -12 1 -10 -17 -63 -40 -119 -118 -289 -168 -609 -143 -926 11 -141 27 -259 46 -332 6 -23 5 -28 -6 -22 -9 5 -8 2 2 -6 8 -7 28 -53 43 -103 15 -49 44 -128 64 -175 20 -47 35 -93 35 -103 -1 -10 3 -15 9 -11 7 5 8 2 2 -7 -4 -8 -9 -21 -11 -29 -1 -12 1 -11 11 2 12 16 14 16 25 -8 6 -14 8 -30 5 -36 -4 -6 -2 -8 4 -5 6 4 26 -21 48 -60 20 -38 48 -82 62 -100 13 -18 20 -37 16 -44 -4 -7 -3 -9 4 -6 12 8 85 -90 77 -104 -4 -5 -1 -8 7 -7 7 2 12 -3 10 -10 -1 -8 2 -11 7 -8 5 3 19 -10 32 -29 13 -19 28 -35 33 -35 4 0 5 -7 2 -16 -3 -8 -2 -13 3 -10 5 3 43 -31 85 -77 l77 -82 -6 -45 c-10 -65 -65 -231 -75 -225 -4 3 -6 -3 -3 -13 2 -11 -2 -26 -11 -34 -8 -9 -13 -18 -10 -20 3 -3 -11 -40 -30 -82 -24 -52 -39 -75 -47 -70 -8 4 -9 3 -5 -5 8 -12 -28 -80 -97 -189 -24 -38 -43 -59 -47 -52 -5 8 -9 6 -13 -5 -4 -9 -3 -13 3 -10 20 12 9 -7 -45 -79 -63 -83 -70 -118 -31 -163 21 -24 31 -28 78 -27 107 2 399 80 655 175 76 29 148 52 160 53 11 0 19 4 17 7 -5 9 299 144 321 141 13 -1 16 1 8 6 -8 5 11 21 58 46 80 43 72 44 239 -9 63 -20 159 -44 213 -53 73 -12 97 -20 97 -32 0 -12 2 -12 8 -2 7 10 26 10 103 0 124 -17 574 -16 699 0 281 38 504 94 723 181 43 17 83 28 89 25 6 -4 8 -2 5 3 -8 13 91 56 106 46 5 -3 7 -2 4 4 -8 13 41 36 55 27 6 -4 8 -2 5 4 -4 6 21 26 60 48 134 73 324 210 436 312 28 26 52 40 60 36 6 -4 9 -4 5 1 -4 4 32 51 80 104 48 53 103 114 122 136 19 22 37 39 40 38 4 -1 7 4 7 10 0 21 74 117 85 110 6 -3 8 -1 4 5 -3 6 18 50 48 99 244 401 345 851 290 1298 -8 72 -17 141 -19 155 -1 14 -5 32 -8 40 -16 42 -27 103 -23 123 3 12 3 16 0 8 -4 -8 -27 44 -54 120 -26 74 -72 184 -102 244 -30 61 -53 119 -51 130 3 14 1 16 -5 7 -6 -9 -22 10 -57 65 -113 184 -318 408 -515 563 -58 45 -104 87 -102 92 1 5 -2 7 -7 3 -6 -3 -29 6 -51 21 -31 20 -38 30 -28 37 9 6 8 7 -4 3 -10 -3 -23 1 -30 8 -7 7 -16 13 -21 14 -22 5 -65 33 -71 47 -3 9 -10 14 -15 11 -14 -9 -42 5 -34 17 3 5 2 7 -4 4 -13 -8 -156 67 -146 77 4 4 1 5 -7 1 -8 -3 -51 10 -95 28 -44 18 -119 46 -167 62 -48 16 -85 32 -82 37 3 4 -2 5 -10 2 -8 -3 -31 -1 -53 5 -71 21 -308 70 -365 77 -32 3 -56 9 -54 13 2 3 -23 4 -56 3 -33 -2 -58 0 -55 5 7 11 -373 13 -533 3z m530 -170 c201 -18 484 -74 458 -92 -8 -5 -3 -6 15 -2 21 5 37 1 59 -16 17 -13 28 -18 24 -11 -9 14 -7 14 35 0 105 -34 198 -73 193 -80 -3 -5 1 -6 9 -3 29 11 383 -179 370 -199 -3 -6 -1 -7 6 -3 14 9 171 -101 168 -117 -1 -6 5 -11 13 -12 21 0 80 -46 74 -57 -3 -5 0 -7 8 -6 7 2 12 -3 10 -10 -1 -8 2 -11 7 -8 5 4 34 -17 64 -44 49 -45 55 -54 52 -83 l-4 -32 15 25 c14 22 15 23 11 4 -3 -16 0 -21 11 -20 22 4 56 -29 47 -45 -5 -7 -4 -10 2 -6 17 11 170 -187 165 -211 -2 -8 1 -12 5 -9 5 3 18 -8 28 -25 10 -17 13 -28 6 -24 -6 4 -11 2 -11 -3 0 -6 7 -11 15 -11 18 0 59 -76 49 -92 -4 -7 -3 -8 4 -4 19 11 36 -32 20 -52 -11 -15 -11 -15 3 -5 14 11 19 5 43 -50 28 -66 31 -82 17 -73 -5 4 -7 -3 -4 -14 3 -11 9 -23 14 -26 5 -3 6 3 2 13 -4 12 -3 15 5 8 12 -12 67 -173 76 -225 5 -32 5 -33 -5 -10 -6 14 -13 36 -15 50 -8 37 -17 40 -11 3 3 -18 1 -33 -4 -33 -5 0 -9 -4 -9 -10 0 -5 7 -7 15 -4 9 4 15 0 15 -9 0 -9 6 -20 14 -24 17 -9 49 -180 42 -224 -2 -16 0 -31 5 -35 5 -3 8 -42 7 -87 l-2 -82 -6 85 -6 85 -2 -97 c-1 -60 2 -98 8 -98 15 0 12 -128 -6 -249 -35 -239 -120 -473 -256 -698 -27 -46 -52 -83 -54 -83 -3 0 -2 5 2 12 4 7 3 8 -5 4 -6 -4 -9 -12 -5 -17 7 -12 -96 -150 -108 -143 -4 3 -6 -1 -3 -8 7 -17 -183 -220 -197 -212 -6 4 -8 2 -5 -3 12 -19 -216 -209 -234 -197 -7 4 -9 3 -6 -3 9 -14 -70 -66 -85 -57 -6 4 -8 3 -5 -3 9 -14 -70 -66 -85 -57 -6 4 -8 3 -5 -3 9 -14 -170 -110 -318 -171 -368 -153 -799 -222 -1204 -193 -196 14 -335 33 -324 44 4 5 0 5 -8 2 -25 -10 -242 42 -234 55 3 5 -3 6 -13 3 -10 -2 -49 7 -86 21 -38 14 -81 26 -97 26 -16 0 -92 -33 -173 -75 -80 -41 -147 -75 -150 -75 -3 0 -5 5 -3 11 1 6 -5 14 -13 16 -12 4 -12 3 -2 -5 23 -15 -7 -35 -138 -91 -81 -35 -128 -50 -143 -46 -16 5 -18 4 -8 -3 10 -7 -1 -15 -41 -30 -106 -40 -295 -101 -385 -126 l-92 -24 26 39 c22 33 28 37 42 27 14 -12 14 -11 2 4 -11 15 -10 23 9 55 100 167 161 295 215 453 41 120 70 267 61 303 -3 15 -51 74 -105 131 -123 130 -183 205 -174 218 3 6 2 8 -4 5 -24 -15 -197 269 -267 436 -94 222 -135 413 -143 662 -10 288 31 537 126 776 51 127 154 315 171 311 6 -1 9 2 5 8 -9 14 14 52 27 44 6 -4 8 -3 5 3 -21 34 317 417 356 405 5 -1 6 2 2 7 -7 13 164 146 285 220 146 91 236 136 381 195 424 170 849 229 1339 186z"/>
<path d="M4211 6025 c-66 -15 -191 -69 -241 -105 -31 -22 -45 -26 -34 -8 4 7 3 8 -5 4 -6 -4 -9 -11 -6 -16 6 -10 -66 -66 -80 -62 -5 2 -7 0 -2 -4 10 -11 -64 -85 -77 -77 -6 3 -8 3 -4 -2 9 -10 -49 -85 -64 -82 -6 1 -12 -6 -13 -15 -4 -24 -56 -89 -65 -83 -5 3 -12 0 -16 -6 -4 -8 -3 -9 4 -5 19 12 14 -3 -14 -40 -14 -18 -30 -32 -34 -29 -4 3 -14 -3 -21 -13 -13 -15 -12 -16 4 -3 30 24 19 2 -35 -64 -28 -35 -55 -62 -60 -59 -5 3 -7 2 -6 -3 6 -18 -141 -160 -153 -148 -9 8 0 -75 10 -94 6 -10 24 -23 40 -29 38 -14 88 11 156 75 27 27 53 47 58 45 5 -1 6 2 3 7 -7 10 18 33 27 26 4 -3 5 -2 2 1 -2 4 17 34 43 67 26 33 83 109 128 167 44 59 104 134 134 168 83 94 235 202 262 186 7 -4 8 -3 4 4 -13 22 156 55 239 47 73 -7 187 -41 212 -63 10 -10 25 -18 33 -20 25 -6 110 -73 104 -83 -3 -5 0 -8 8 -7 7 2 12 -3 10 -10 -1 -8 2 -11 7 -8 13 8 132 -124 129 -143 -2 -9 2 -15 8 -14 11 2 179 -212 179 -229 0 -4 3 -7 6 -5 11 4 49 -35 43 -45 -3 -4 -1 -7 4 -6 6 2 33 -15 62 -36 28 -22 83 -56 121 -76 38 -20 66 -40 62 -44 -4 -4 0 -4 9 -1 10 4 32 2 50 -4 123 -40 299 -32 442 20 43 16 83 26 89 22 5 -3 7 -2 4 4 -4 6 17 25 46 43 74 48 195 168 274 271 36 49 71 85 76 82 6 -3 7 -1 3 5 -3 5 10 32 30 59 83 109 148 174 228 227 68 45 85 61 91 87 5 24 2 38 -14 59 -19 26 -19 29 -3 33 9 2 -15 3 -55 3 -40 -1 -75 -5 -80 -9 -4 -5 1 -5 12 -1 11 4 -5 -10 -35 -31 -30 -21 -60 -38 -67 -38 -7 0 -10 -3 -8 -7 4 -7 -125 -136 -135 -133 -4 1 -7 -3 -7 -10 0 -24 -190 -265 -283 -357 -102 -103 -173 -148 -276 -175 -117 -30 -270 -17 -369 32 -69 35 -117 72 -109 85 5 7 2 8 -5 3 -8 -4 -31 12 -64 46 -62 64 -240 299 -240 316 0 7 -3 11 -6 10 -10 -3 -156 146 -153 156 1 5 -2 6 -7 3 -5 -4 -37 11 -69 32 -33 21 -74 45 -91 52 -17 7 -29 15 -27 19 2 3 -6 7 -17 8 -12 0 -47 9 -77 18 -76 23 -248 29 -329 10z"/>
</g>
</svg>
