<?xml version="1.0" standalone="no"?>
<!DOCTYPE svg PUBLIC "-//W3C//DTD SVG 20010904//EN"
 "http://www.w3.org/TR/2001/REC-SVG-20010904/DTD/svg10.dtd">
<svg version="1.0" xmlns="http://www.w3.org/2000/svg"
 width="1024.000000pt" height="1024.000000pt" viewBox="0 0 1024.000000 1024.000000"
 preserveAspectRatio="xMidYMid meet">
<metadata>
Created by potrace 1.16, written by Peter Selinger 2001-2019
</metadata>
<g transform="translate(0.000000,1024.000000) scale(0.100000,-0.100000)"
fill="#000000" stroke="none">
<path d="M6350 8810 c-47 -5 -117 -16 -156 -25 -39 -9 -79 -13 -90 -9 -14 4
-15 3 -6 -4 10 -7 -1 -14 -39 -26 -29 -10 -79 -31 -111 -47 -32 -16 -64 -27
-70 -23 -7 4 -8 3 -4 -4 7 -11 -6 -17 -27 -13 -5 1 -6 -3 -2 -9 3 -5 2 -10 -3
-10 -12 0 -180 -129 -206 -159 -15 -17 -22 -19 -29 -9 -6 9 -7 8 -4 -4 4 -10
-8 -33 -32 -60 -135 -155 -253 -392 -315 -631 l-23 -91 -13 40 c-7 21 -28 70
-46 109 -18 38 -30 73 -27 79 3 5 2 6 -4 3 -13 -8 -36 41 -27 55 4 6 3 8 -3 5
-5 -3 -37 34 -72 83 -34 49 -104 128 -154 177 -51 48 -91 92 -89 96 1 5 -2 6
-7 3 -5 -3 -21 4 -37 16 -140 111 -213 127 -249 57 -32 -61 -15 -95 85 -163
38 -26 68 -52 67 -58 -1 -6 7 -12 17 -14 11 -1 36 -20 55 -40 20 -21 29 -32
19 -25 -13 9 -18 9 -24 -1 -4 -7 -4 -10 1 -6 4 4 14 3 22 -3 7 -6 13 -8 13 -3
0 4 11 -3 25 -16 13 -12 22 -26 20 -30 -3 -4 3 -14 13 -21 15 -13 16 -12 3 4
-7 9 -11 17 -7 17 8 0 109 -137 140 -191 16 -28 24 -54 20 -65 -4 -14 -3 -15
3 -6 17 23 111 -212 99 -244 -3 -8 -2 -13 3 -10 4 3 16 -31 26 -77 21 -96 35
-251 23 -255 -4 -2 -8 -8 -8 -13 0 -6 5 -7 11 -3 8 4 9 -3 3 -27 -4 -19 -7
-50 -5 -69 4 -57 -20 -186 -40 -220 -13 -21 -25 -30 -35 -26 -8 3 -12 2 -9 -4
3 -5 -14 -14 -37 -20 -24 -6 -55 -16 -70 -21 -15 -6 -32 -8 -39 -3 -8 4 -10 3
-5 -4 4 -7 3 -12 -2 -12 -6 0 -41 -14 -79 -32 -37 -18 -77 -31 -88 -31 -11 1
-14 -1 -7 -4 8 -3 -19 -27 -66 -59 -44 -30 -102 -79 -130 -108 l-51 -54 -18
27 c-9 14 -16 30 -15 34 1 5 -2 6 -6 3 -5 -3 -37 17 -71 44 -128 103 -281 174
-427 200 -100 18 -297 8 -392 -19 -121 -35 -278 -122 -360 -199 -19 -17 -38
-30 -44 -29 -6 1 -12 -6 -13 -15 -2 -10 -23 -41 -48 -70 -24 -29 -56 -74 -71
-100 -16 -27 -31 -48 -35 -48 -4 0 -8 -6 -8 -12 -1 -7 -17 -56 -36 -109 -82
-222 -66 -519 39 -722 12 -22 13 -31 4 -37 -8 -5 -7 -9 5 -13 11 -5 14 -3 10
6 -4 6 1 3 9 -8 9 -11 14 -25 12 -32 -3 -7 -2 -12 3 -10 4 1 31 -26 59 -60 28
-34 56 -64 62 -68 6 -3 8 -11 4 -16 -3 -5 -1 -8 4 -7 15 5 93 -62 86 -73 -3
-6 0 -9 7 -8 18 4 171 -86 162 -95 -4 -4 -1 -4 8 -1 15 5 133 -37 125 -46 -2
-2 14 -5 36 -6 22 0 42 -4 45 -7 3 -3 -8 -38 -25 -78 -17 -40 -34 -85 -38
-100 -3 -16 -9 -26 -13 -24 -3 2 -7 -10 -8 -27 0 -18 -4 -93 -8 -167 -6 -115
-4 -151 14 -238 23 -116 91 -272 154 -355 42 -54 44 -59 20 -50 -11 3 -7 -2 7
-13 14 -10 26 -16 26 -14 1 3 11 -3 23 -14 11 -10 18 -24 14 -30 -3 -6 -3 -8
2 -4 9 8 77 -41 70 -51 -2 -4 1 -8 8 -8 14 0 138 -82 149 -98 4 -5 8 -7 8 -2
0 4 17 0 38 -9 61 -27 152 -52 232 -64 41 -6 75 -12 77 -13 1 -2 -9 -26 -22
-55 -74 -160 -102 -325 -83 -490 6 -59 11 -125 11 -146 -1 -22 2 -34 6 -27 5
7 13 -5 20 -31 7 -24 22 -60 33 -81 11 -22 17 -45 15 -51 -3 -7 -1 -19 5 -27
8 -11 8 -9 4 6 -6 20 -6 20 9 0 9 -11 13 -25 11 -32 -3 -7 -1 -12 3 -10 14 3
83 -92 75 -105 -4 -6 -3 -8 3 -5 5 3 34 -19 63 -49 132 -136 308 -233 483
-265 100 -18 255 -13 354 11 100 25 242 92 323 153 201 152 350 397 376 620 2
23 7 60 9 82 9 71 -14 245 -46 338 -16 49 -26 93 -23 99 4 6 3 9 -2 5 -5 -3
-19 12 -31 34 l-21 39 39 0 c112 0 292 59 417 137 290 180 453 518 414 857 -7
57 -11 109 -9 117 2 8 2 10 -1 5 -3 -5 -17 26 -32 70 -15 43 -37 98 -49 122
-16 31 -18 43 -9 46 7 2 45 11 83 20 39 10 108 36 155 59 47 23 91 41 97 41 7
-1 11 2 8 6 -3 5 16 24 42 43 106 78 228 225 277 335 11 25 22 38 26 32 4 -7
7 1 7 17 0 15 12 73 28 128 26 94 27 109 22 240 -5 153 -24 243 -76 358 -41
90 -120 205 -189 273 -31 32 -55 62 -54 68 2 6 1 8 -3 4 -4 -4 -36 14 -72 38
-74 51 -140 85 -195 103 -21 7 -38 16 -38 19 0 4 -12 8 -27 9 -16 1 -59 8 -98
17 -218 48 -504 -17 -694 -158 -19 -14 -39 -23 -44 -19 -6 3 -7 2 -4 -4 5 -9
-81 -92 -105 -101 -4 -2 -40 24 -80 58 -39 34 -89 73 -110 87 -21 14 -35 29
-33 34 3 4 -3 8 -12 7 -10 0 -59 18 -109 40 -49 22 -109 45 -132 51 -66 18
-76 34 -68 113 9 102 73 257 99 241 6 -3 7 -1 3 5 -4 7 7 18 26 28 28 14 53
16 188 10 182 -8 371 10 520 49 197 53 402 177 557 339 48 50 93 89 98 88 6
-2 7 -1 3 3 -3 4 13 37 37 74 102 157 177 342 214 526 23 113 46 375 36 414
-11 44 -44 70 -96 77 -28 4 -46 11 -43 16 4 6 -2 8 -14 4 -11 -4 -67 -2 -124
3 -160 16 -364 20 -458 11z m400 -191 c152 -13 150 -13 149 -57 0 -30 -2 -33
-9 -17 -5 12 -6 -1 -3 -35 8 -83 -55 -398 -77 -385 -5 3 -6 -3 -4 -12 3 -10
-17 -63 -45 -118 -58 -116 -86 -160 -103 -160 -7 -1 -12 -7 -10 -14 4 -18 -18
-42 -31 -34 -5 3 -7 1 -4 -4 9 -14 -32 -65 -44 -57 -5 3 -8 0 -7 -7 2 -6 -31
-40 -72 -75 -72 -61 -99 -78 -84 -51 4 7 3 9 -2 4 -5 -5 -9 -14 -9 -20 0 -14
-138 -89 -225 -121 -116 -44 -260 -67 -435 -69 -104 -1 -110 0 -107 19 2 18 2
18 -11 2 -8 -10 -18 -18 -22 -18 -5 0 2 11 15 25 12 13 27 22 33 18 6 -3 7 -2
4 4 -8 13 77 96 88 86 4 -5 5 -3 2 3 -4 6 81 97 194 209 110 108 204 208 210
222 12 32 3 66 -26 93 -20 19 -32 22 -69 18 -30 -4 -43 -2 -39 5 3 6 1 7 -6 3
-6 -4 -9 -11 -6 -15 6 -11 -39 -52 -61 -56 -11 -1 -18 -7 -17 -13 3 -15 -215
-224 -227 -217 -6 4 -9 1 -8 -7 2 -7 -3 -12 -9 -11 -7 2 -12 0 -10 -5 4 -15
-42 -64 -54 -56 -7 4 -9 3 -6 -3 8 -13 -97 -116 -108 -106 -4 5 -5 3 -2 -3 8
-14 -82 -116 -95 -108 -6 4 -8 3 -5 -2 3 -5 -3 -21 -14 -34 l-19 -25 10 34 c5
19 12 53 15 75 16 111 96 373 153 498 56 124 192 315 214 301 6 -3 8 -1 5 4
-9 14 100 116 115 107 7 -4 8 -3 4 4 -8 14 93 74 112 67 7 -3 10 0 7 5 -8 13
79 53 116 54 15 1 25 4 23 7 -6 11 145 48 236 58 88 10 183 7 380 -10z m-73
-1988 c28 -6 84 -23 125 -38 60 -24 74 -33 77 -53 3 -21 5 -22 10 -7 6 16 15
12 77 -31 38 -28 94 -80 125 -118 70 -87 74 -94 54 -94 -10 0 -13 5 -9 12 5 7
3 8 -6 3 -10 -6 -9 -11 5 -21 10 -7 21 -11 26 -9 11 8 62 -102 53 -116 -5 -8
-3 -9 6 -4 10 6 12 3 8 -13 -4 -12 -2 -20 3 -16 5 3 9 -1 9 -8 0 -7 3 -24 7
-37 5 -19 3 -22 -8 -17 -8 4 -6 1 4 -7 14 -12 19 -35 24 -105 9 -133 -16 -254
-75 -373 -28 -56 -52 -93 -60 -91 -8 1 -11 -2 -7 -8 9 -14 -43 -82 -56 -74 -5
3 -8 0 -7 -7 4 -17 -103 -102 -181 -143 -135 -71 -308 -98 -347 -55 -56 62
-255 184 -341 210 -24 7 -43 15 -43 18 0 4 -8 7 -17 8 -10 0 -52 6 -94 13
l-76 13 31 68 c17 37 33 66 36 64 3 -2 5 9 6 23 0 15 9 61 19 102 17 73 28
320 14 320 -4 0 -9 19 -13 41 -4 23 -20 80 -36 126 -16 47 -26 92 -23 101 3
12 2 13 -4 4 -7 -9 -14 -2 -27 24 -16 34 -16 38 0 55 9 10 21 16 26 13 4 -3 7
-1 6 3 -3 10 110 113 124 113 5 0 6 -5 2 -12 -4 -7 -3 -8 5 -4 6 4 9 11 6 16
-7 11 107 70 180 94 102 33 241 39 362 17z m-2720 -22 c83 -21 146 -48 223
-96 60 -38 180 -150 180 -169 0 -6 -16 -46 -36 -88 -19 -43 -43 -109 -53 -147
-10 -38 -19 -67 -22 -65 -7 8 -6 -117 2 -229 9 -107 31 -197 77 -312 l22 -53
-25 0 c-46 0 -195 -40 -260 -69 -36 -17 -71 -29 -78 -27 -7 1 -8 1 -4 -2 5 -2
-11 -16 -35 -30 -23 -14 -81 -54 -127 -90 l-83 -65 -62 6 c-146 14 -299 90
-412 206 -68 69 -137 169 -137 197 0 8 -3 14 -7 14 -13 0 -49 132 -61 217 -19
145 17 317 96 458 42 77 182 228 202 221 8 -3 11 -2 8 4 -8 13 119 84 198 110
129 42 253 45 394 9z m1398 -4 c99 -29 188 -71 180 -85 -4 -6 1 -7 11 -3 13 5
15 3 9 -7 -5 -8 -4 -11 2 -7 13 8 55 -22 48 -34 -3 -5 0 -6 8 -3 9 3 38 -21
76 -64 61 -67 120 -149 91 -125 -12 9 -15 7 -15 -13 0 -13 6 -24 13 -24 7 0
10 5 7 10 -3 6 -2 10 3 10 13 0 58 -104 79 -181 24 -89 24 -282 -1 -364 -26
-88 -85 -207 -98 -199 -6 4 -8 3 -5 -3 13 -21 -88 -133 -180 -199 -129 -93
-268 -137 -433 -137 -215 1 -384 75 -533 232 -51 54 -66 77 -62 92 4 11 2 19
-5 19 -6 0 -8 -4 -5 -10 3 -5 3 -10 0 -10 -12 0 -76 145 -71 163 2 9 0 15 -5
12 -4 -3 -11 4 -14 17 -21 93 -25 122 -25 190 0 42 7 112 15 155 19 101 96
257 167 339 58 66 131 127 153 127 8 0 12 4 10 7 -3 4 22 22 54 39 174 92 339
110 526 56z m681 -1336 c77 -14 222 -83 303 -144 72 -55 174 -173 166 -193 -2
-7 0 -10 5 -7 12 7 68 -106 72 -145 2 -14 6 -27 10 -31 32 -23 39 -383 8 -364
-5 3 -6 -3 -4 -12 7 -26 -31 -129 -75 -203 -42 -71 -164 -195 -181 -185 -6 4
-9 1 -8 -5 4 -17 -110 -83 -186 -108 -239 -79 -485 -38 -684 113 -75 57 -160
158 -201 241 -92 185 -96 455 -10 626 36 71 97 141 116 134 8 -4 11 -1 8 5 -4
5 8 15 27 22 127 46 341 176 402 245 16 19 30 22 96 22 42 0 103 -5 136 -11z
m-1513 -37 c70 -63 119 -99 195 -140 40 -21 69 -42 65 -47 -5 -4 -3 -5 3 -2
15 9 141 -40 182 -70 52 -39 56 -59 41 -229 -10 -124 -10 -175 1 -280 24 -233
24 -228 0 -275 -32 -61 -80 -120 -92 -113 -6 4 -8 2 -4 -4 15 -25 -216 -191
-249 -178 -9 3 -14 2 -11 -3 3 -5 -13 -15 -37 -24 -78 -29 -155 -38 -269 -34
-123 5 -197 26 -307 89 -71 40 -172 136 -223 211 -51 75 -92 163 -84 183 3 8
2 13 -3 10 -15 -9 -33 83 -39 190 -10 209 51 376 192 528 28 30 49 45 57 40 7
-4 10 -3 6 3 -9 14 60 66 75 57 7 -4 8 -3 4 4 -7 12 53 46 146 83 73 29 119
37 221 38 l87 1 43 -38z m753 -1339 c118 -87 138 -101 212 -140 39 -22 69 -43
65 -47 -4 -4 -1 -5 7 -1 36 13 169 -62 154 -87 -4 -6 -3 -8 3 -5 34 21 156
-262 140 -323 -3 -13 -1 -18 5 -13 15 9 3 -228 -15 -292 -8 -27 -24 -74 -37
-103 -20 -46 -25 -51 -39 -40 -14 12 -14 11 -3 -4 12 -15 9 -24 -19 -65 -75
-109 -210 -229 -245 -217 -15 4 -16 4 -5 -4 17 -12 -14 -30 -117 -69 -90 -33
-152 -44 -252 -44 -317 2 -609 246 -683 572 -22 93 -27 286 -8 275 5 -4 7 3 4
13 -13 48 66 234 135 320 19 24 51 50 71 58 117 47 234 113 328 185 150 114
182 117 299 31z"/>
</g>
</svg>
