<?xml version="1.0" standalone="no"?>
<!DOCTYPE svg PUBLIC "-//W3C//DTD SVG 20010904//EN"
 "http://www.w3.org/TR/2001/REC-SVG-20010904/DTD/svg10.dtd">
<svg version="1.0" xmlns="http://www.w3.org/2000/svg"
 width="1024.000000pt" height="1024.000000pt" viewBox="0 0 1024.000000 1024.000000"
 preserveAspectRatio="xMidYMid meet">
<metadata>
Created by potrace 1.16, written by Peter Selinger 2001-2019
</metadata>
<g transform="translate(0.000000,1024.000000) scale(0.100000,-0.100000)"
fill="#000000" stroke="none">
<path d="M5911 8523 c-1 -10 -400 -13 -1961 -13 -1795 0 -1962 -1 -1994 -16
-19 -9 -39 -28 -45 -41 -8 -17 -11 -950 -11 -3324 0 -3630 -5 -3340 60 -3374
44 -23 172 -28 400 -16 321 16 609 71 767 147 43 21 84 38 90 37 7 0 11 3 8 7
-2 4 5 16 17 26 39 35 48 76 48 219 l0 135 1829 -1 1829 0 4 -148 c3 -144 4
-148 31 -185 72 -94 384 -191 728 -225 57 -6 201 -12 319 -12 181 -2 220 0
246 14 17 9 35 13 39 9 3 -4 5 -2 4 3 -2 6 3 21 11 35 13 21 15 163 18 979 2
737 5 958 15 970 9 12 9 13 0 7 -10 -6 -13 148 -13 756 0 2898 -5 3913 -19
3940 -31 61 32 58 -1244 58 -923 0 -1166 3 -1170 13 -4 10 -6 10 -6 0z m-1637
-300 c-7 -54 -17 -138 -23 -188 -42 -333 -136 -744 -249 -1090 -79 -242 -141
-397 -154 -389 -7 5 -8 2 -3 -5 8 -14 -62 -181 -77 -181 -5 0 -7 -4 -3 -9 9
-16 -68 -163 -78 -148 -5 8 -6 5 -3 -9 4 -14 -17 -60 -69 -150 -42 -71 -80
-130 -85 -132 -6 -2 -10 -8 -10 -14 0 -16 -112 -178 -120 -173 -4 2 -7 -2 -7
-9 0 -22 -95 -136 -107 -129 -6 3 -8 3 -4 -2 8 -9 -3 -24 -82 -113 -30 -34
-59 -62 -63 -62 -5 0 -5 5 -1 12 4 7 3 8 -5 4 -6 -4 -9 -11 -6 -16 8 -14 -46
-72 -62 -66 -8 3 -12 2 -9 -2 10 -17 -159 -166 -176 -156 -6 4 -8 3 -4 -4 8
-13 -119 -106 -134 -97 -6 4 -9 1 -8 -6 2 -6 -33 -34 -77 -61 -99 -61 -122
-71 -160 -70 -23 1 -26 -1 -11 -7 16 -6 10 -11 -32 -29 -90 -39 -234 -84 -253
-79 -11 3 -17 2 -14 -3 4 -7 -50 -20 -86 -20 -14 0 -16 161 -17 1722 0 948 2
1735 5 1750 l6 28 1096 0 1097 0 -12 -97z m766 -2818 l0 -2915 -880 0 -880 0
-6 25 c-3 13 -4 44 -3 69 2 24 1 42 -3 39 -5 -2 -8 12 -8 31 0 80 -60 439
-110 663 -22 95 -36 181 -33 190 4 10 2 14 -4 10 -7 -5 -15 11 -22 40 -19 91
-111 382 -165 524 -30 78 -52 147 -49 152 3 6 1 7 -5 3 -11 -7 -16 7 -15 41 1
7 -3 11 -7 8 -4 -3 -13 10 -20 28 -20 50 -134 276 -169 335 -17 29 -28 58 -25
64 4 6 3 8 -3 5 -9 -5 -49 50 -41 58 1 1 46 26 98 55 104 58 222 135 287 188
25 20 47 31 54 26 7 -4 9 -3 6 3 -4 6 24 38 61 71 116 105 177 165 253 247 40
44 76 79 81 77 4 -1 7 2 6 7 -2 4 40 66 93 137 53 71 104 141 114 156 9 15 22
25 28 21 5 -3 7 -1 3 5 -3 6 19 52 50 103 127 209 264 496 368 772 29 75 56
134 60 130 4 -4 5 -1 2 7 -7 17 69 258 76 244 3 -5 3 -3 1 4 -1 7 19 95 46
195 26 100 61 246 77 324 16 78 32 139 36 137 4 -3 5 2 2 10 -3 8 4 72 15 143
19 121 61 441 61 470 0 10 57 13 285 13 l285 0 0 -2915z m725 2905 c7 -11 35
-232 34 -265 0 -20 0 -20 -9 0 -7 16 -9 17 -9 3 -1 -9 5 -21 12 -25 13 -8 70
-331 72 -400 0 -17 2 -29 4 -27 3 2 19 -61 37 -141 18 -79 43 -177 54 -216 12
-39 19 -77 16 -85 -3 -8 -2 -13 3 -10 11 7 30 -67 25 -97 -2 -12 -1 -16 2 -8
8 17 46 -98 39 -117 -3 -7 -1 -11 3 -8 4 2 19 -28 32 -67 33 -98 132 -359 165
-431 14 -32 24 -65 21 -72 -3 -8 -1 -13 3 -11 5 1 44 -67 86 -152 42 -85 107
-207 146 -272 45 -77 67 -124 63 -136 -4 -13 -3 -14 4 -5 7 10 13 7 26 -13 9
-14 14 -31 10 -37 -4 -6 -3 -8 3 -5 5 3 20 -7 31 -23 24 -32 28 -45 10 -34 -7
4 -8 3 -4 -5 4 -6 11 -9 16 -6 12 7 32 -30 22 -40 -4 -5 -2 -5 5 -1 14 8 38
-29 38 -58 0 -11 7 -21 15 -24 13 -5 13 -3 0 14 -14 19 -14 19 8 0 12 -11 21
-26 20 -35 -2 -9 3 -16 10 -16 18 0 63 -56 55 -68 -3 -6 -1 -7 4 -4 6 4 37
-24 69 -61 69 -79 240 -239 336 -314 56 -44 65 -55 55 -68 -10 -13 -10 -13 3
-3 13 10 25 6 63 -19 34 -22 45 -34 37 -42 -5 -5 -10 -14 -10 -20 0 -5 6 -2
13 8 13 17 16 16 68 -17 30 -19 82 -48 117 -66 34 -17 62 -34 62 -37 0 -18
-33 -64 -42 -58 -6 4 -8 3 -5 -3 4 -6 -24 -69 -63 -139 -38 -70 -91 -176 -117
-235 -26 -59 -52 -105 -57 -102 -5 3 -6 1 -3 -4 4 -6 -12 -60 -34 -119 -52
-139 -112 -323 -158 -492 -21 -73 -41 -129 -45 -125 -4 4 -4 0 -1 -9 6 -14
-55 -311 -72 -358 -3 -8 -7 -30 -10 -47 -2 -18 -15 -104 -28 -190 -14 -87 -31
-213 -37 -281 l-12 -122 -873 0 -873 0 0 2473 c-1 1359 -1 2643 -2 2852 0 209
0 408 1 443 l1 62 269 0 c165 0 272 -4 276 -10z m2403 -600 c0 -453 -3 -608
-12 -603 -7 5 -7 2 1 -8 14 -18 16 -789 1 -789 -5 0 -5 -7 0 -17 6 -11 9 -328
9 -745 0 -581 -3 -728 -13 -728 -86 0 -429 113 -402 133 9 6 8 7 -5 3 -17 -5
-137 47 -137 60 0 3 5 2 12 -2 7 -4 8 -3 4 5 -4 6 -11 9 -16 6 -13 -8 -102 50
-93 60 5 4 3 5 -3 2 -24 -14 -250 165 -237 186 4 6 0 8 -9 5 -18 -7 -163 133
-151 147 4 4 3 5 -4 2 -15 -9 -165 153 -158 171 3 7 1 11 -4 7 -13 -7 -63 54
-55 67 4 6 3 8 -3 5 -15 -9 -104 119 -97 140 5 14 4 15 -4 4 -7 -10 -11 -10
-17 -1 -4 7 -1 17 6 22 11 8 10 9 -3 4 -13 -4 -32 19 -79 96 -35 56 -62 110
-62 120 1 10 -2 16 -7 13 -12 -8 -77 125 -72 148 2 10 -2 17 -11 17 -19 0 -78
124 -71 147 4 13 3 14 -3 5 -7 -9 -14 -1 -26 29 -9 23 -14 46 -10 52 3 6 1 7
-5 3 -7 -4 -16 10 -24 36 -6 24 -15 45 -19 48 -24 18 -229 622 -232 686 -1 18
-5 30 -8 28 -8 -4 -69 239 -72 286 -1 19 -5 37 -8 40 -11 9 -71 354 -73 417 0
35 -4 63 -7 63 -6 0 -29 169 -29 214 l0 26 1104 0 1104 0 0 -610z m-5707
-3080 c23 -39 43 -83 45 -97 1 -14 8 -31 15 -37 9 -8 10 -8 5 2 -4 6 -5 12 -2
12 3 0 28 -44 55 -98 106 -211 246 -571 235 -604 -4 -15 -3 -18 7 -13 9 6 11
2 7 -13 -4 -12 -2 -20 2 -17 5 3 11 -3 14 -12 2 -10 14 -50 25 -89 12 -40 18
-80 14 -90 -5 -13 -3 -15 7 -9 10 6 12 1 7 -26 -4 -21 -4 -29 2 -20 10 16 76
-242 67 -265 -4 -10 -2 -12 6 -8 7 5 9 -1 6 -20 -3 -14 -2 -26 2 -26 12 0 63
-278 64 -347 1 -33 4 -56 8 -51 8 14 22 -137 14 -157 -3 -9 -2 -14 3 -10 11 6
26 -159 16 -176 -5 -7 -4 -10 2 -6 7 5 13 -51 18 -169 7 -173 7 -175 -15 -199
-28 -30 -154 -76 -280 -103 -173 -38 -328 -54 -530 -55 l-195 -2 -2 1348 c-1
1035 1 1349 10 1351 7 2 40 9 74 15 33 6 96 22 140 35 43 13 86 24 95 25 11 1
32 -24 59 -69z m5399 59 c0 -5 4 -7 10 -4 5 3 40 -3 77 -14 38 -11 98 -25 136
-32 37 -7 67 -16 67 -21 0 -5 4 -7 9 -3 12 7 9 -934 -2 -952 -4 -6 -4 -14 1
-17 5 -3 7 -51 5 -108 -4 -130 -4 -111 1 -193 2 -44 -1 -73 -8 -77 -7 -5 -7
-8 -1 -8 8 0 11 -208 10 -667 l0 -668 -200 1 c-187 1 -280 10 -492 46 -40 6
-61 14 -56 21 4 6 0 8 -11 4 -20 -8 -137 22 -131 34 3 4 -3 5 -12 3 -10 -3
-43 8 -73 23 l-55 28 3 145 c3 219 39 580 53 544 5 -11 6 -3 3 21 -7 52 52
370 117 635 79 319 256 829 283 813 5 -4 6 -1 2 5 -10 17 66 175 77 160 6 -9
7 -8 3 5 -7 22 66 161 79 150 4 -5 5 -3 2 3 -8 14 51 116 63 109 6 -3 7 1 4 9
-4 11 0 16 15 16 12 0 21 -5 21 -11z"/>
</g>
</svg>
