<?xml version="1.0" standalone="no"?>
<!DOCTYPE svg PUBLIC "-//W3C//DTD SVG 20010904//EN"
 "http://www.w3.org/TR/2001/REC-SVG-20010904/DTD/svg10.dtd">
<svg version="1.0" xmlns="http://www.w3.org/2000/svg"
 width="1024.000000pt" height="1024.000000pt" viewBox="0 0 1024.000000 1024.000000"
 preserveAspectRatio="xMidYMid meet">
<metadata>
Created by potrace 1.16, written by Peter Selinger 2001-2019
</metadata>
<g transform="translate(0.000000,1024.000000) scale(0.100000,-0.100000)"
fill="#000000" stroke="none">
<path d="M4817 7065 c-209 -36 -415 -111 -582 -210 -55 -33 -106 -59 -112 -59
-7 1 -11 -2 -8 -6 6 -9 -71 -71 -93 -75 -9 -1 -16 -7 -15 -13 3 -12 -68 -68
-80 -64 -5 1 -6 -1 -3 -6 7 -12 -68 -84 -79 -75 -4 5 -5 2 -1 -5 4 -7 -10 -33
-37 -65 -52 -61 -135 -184 -166 -244 -20 -41 -40 -60 -27 -28 3 8 1 15 -5 15
-7 0 -9 -10 -5 -25 4 -14 -1 -38 -10 -59 l-17 -34 -52 43 c-119 96 -267 176
-393 211 -40 11 -58 20 -50 26 8 4 -3 7 -27 6 -22 0 -91 4 -153 10 -247 23
-481 -26 -686 -143 -43 -24 -83 -42 -89 -38 -5 3 -7 1 -4 -4 4 -6 -20 -29 -53
-52 -32 -23 -94 -76 -136 -119 -43 -42 -82 -76 -87 -74 -4 1 -6 -2 -3 -7 3 -5
-8 -26 -25 -47 -35 -44 -46 -55 -34 -35 6 10 4 12 -5 6 -10 -6 -12 -4 -6 11 6
15 5 16 -5 7 -10 -10 -9 -15 0 -27 11 -13 7 -25 -22 -73 -52 -85 -71 -138 -61
-170 4 -16 6 -32 5 -38 -2 -5 0 -7 4 -3 4 3 21 0 39 -7 28 -12 42 -11 126 12
86 22 108 24 230 20 125 -5 184 -14 235 -37 11 -5 42 -16 69 -26 59 -21 174
-96 236 -154 25 -23 40 -39 33 -36 -6 4 -14 2 -17 -3 -4 -5 2 -8 11 -6 10 1
33 -11 50 -28 27 -25 31 -33 20 -46 -10 -14 -10 -14 4 -4 13 11 19 10 33 -5 9
-10 13 -22 9 -27 -5 -4 -3 -5 3 -2 11 6 72 -65 161 -186 45 -59 52 -73 31 -61
-9 5 -9 2 1 -9 16 -20 25 -23 15 -4 -17 31 18 -15 76 -96 58 -83 70 -114 33
-91 -17 11 -186 -6 -278 -27 -171 -40 -364 -149 -489 -277 -33 -34 -55 -49
-68 -47 -16 3 -17 1 -8 -9 8 -11 2 -27 -30 -72 -23 -33 -46 -58 -52 -56 -5 1
-7 -1 -4 -6 3 -5 -13 -44 -35 -88 -46 -92 -93 -232 -110 -329 -18 -105 -16
-470 2 -459 4 2 10 -13 14 -34 10 -56 61 -180 101 -244 19 -32 33 -62 29 -67
-3 -5 0 -13 6 -17 8 -4 9 -3 5 4 -4 7 -5 12 -3 12 7 0 72 -95 69 -102 -1 -5 2
-8 7 -8 6 0 32 -21 58 -46 26 -25 65 -57 85 -71 21 -14 35 -30 31 -37 -3 -6
-3 -8 2 -4 12 11 67 -21 59 -34 -4 -6 -3 -8 3 -5 6 4 50 -11 97 -33 145 -67
181 -53 241 90 81 192 257 462 288 443 6 -3 7 -2 4 4 -12 19 165 189 185 177
6 -4 8 -3 4 4 -8 13 80 76 93 67 5 -3 13 0 17 6 5 8 3 9 -7 4 -10 -5 -11 -5
-4 3 21 23 165 93 176 86 7 -4 9 -3 6 3 -14 22 330 134 419 137 23 0 40 5 37
10 -3 5 8 7 26 4 17 -2 31 -1 31 2 0 4 17 10 38 13 423 62 647 87 859 94 150
5 175 4 197 -11 17 -11 23 -22 19 -34 -4 -12 -3 -14 6 -6 8 7 36 -2 99 -33
138 -68 218 -85 407 -86 125 -1 203 5 355 27 161 23 216 27 315 23 66 -3 129
-8 140 -11 167 -42 265 -81 265 -107 0 -11 7 -19 16 -19 14 0 14 3 4 15 -7 8
-10 15 -8 15 10 0 108 -51 108 -56 0 -3 -7 -4 -15 0 -8 3 -15 0 -15 -5 0 -7 9
-9 22 -6 28 8 59 -9 52 -28 -4 -8 -1 -15 5 -15 6 0 11 5 11 11 0 5 4 8 9 5 4
-3 7 -16 6 -28 -1 -13 0 -15 2 -5 6 22 8 21 43 -5 16 -11 26 -26 23 -31 -3 -6
-1 -7 6 -3 13 9 83 -48 73 -59 -4 -4 -2 -5 3 -3 15 5 86 -53 78 -65 -3 -5 -2
-7 4 -4 5 3 30 -15 54 -41 24 -26 37 -41 30 -34 -8 6 -20 12 -25 12 -13 -1 15
-18 27 -18 16 0 66 -55 60 -66 -3 -6 -3 -8 1 -4 10 8 67 -56 70 -79 2 -10 8
-18 14 -18 22 0 166 -230 158 -252 -3 -8 -2 -12 2 -9 8 5 67 -103 64 -116 -1
-5 1 -7 6 -6 4 0 15 -2 25 -7 9 -4 30 -4 45 0 15 3 35 7 44 8 9 1 16 5 15 8
-3 12 65 59 75 53 5 -3 7 -2 6 3 -1 4 30 40 69 79 159 161 260 354 304 584 17
94 15 336 -5 450 -57 321 -217 609 -436 783 -70 56 -220 137 -282 152 -16 4
-28 10 -28 14 0 10 -70 15 -217 15 -123 1 -131 2 -122 19 6 9 36 59 68 110 32
50 88 151 126 222 128 245 158 300 203 370 60 91 88 125 97 117 5 -4 5 -1 1 6
-10 17 128 157 145 147 8 -5 10 -4 5 3 -10 17 77 69 158 94 54 16 84 19 140
15 86 -7 144 -25 124 -39 -9 -7 -7 -8 8 -3 16 4 34 -5 69 -35 65 -56 122 -53
143 9 8 22 6 50 -8 113 -38 168 -105 301 -219 438 -25 30 -45 58 -43 63 1 5
-2 6 -7 3 -5 -3 -38 14 -73 38 -87 57 -200 103 -289 117 -41 6 -89 14 -106 19
-18 4 -35 5 -38 1 -2 -5 -34 -9 -69 -10 -125 -3 -323 -72 -448 -155 -70 -46
-195 -158 -240 -213 -18 -23 -36 -42 -39 -42 -3 -1 -11 11 -18 27 -20 44 -115
183 -161 235 -23 26 -43 54 -44 62 -1 9 -5 15 -9 15 -4 0 -40 27 -80 61 -111
95 -203 156 -309 208 -54 27 -94 52 -90 56 4 5 1 5 -6 1 -6 -4 -45 4 -85 18
-39 13 -101 30 -137 36 -36 7 -72 14 -80 17 -34 11 -270 2 -353 -14 -82 -15
-90 -15 -122 0 -20 9 -70 26 -113 38 -100 27 -349 35 -465 14z m381 -157 l73
-11 -27 -28 c-15 -16 -32 -26 -37 -22 -6 3 -7 1 -3 -5 4 -7 -6 -29 -23 -49
-16 -21 -39 -57 -51 -80 -12 -24 -24 -43 -27 -43 -14 0 -43 22 -38 30 3 5 0
12 -6 16 -8 4 -9 3 -5 -4 4 -7 2 -12 -3 -12 -6 0 -11 4 -11 8 0 4 -34 25 -75
46 -99 49 -246 86 -343 86 -41 0 -73 2 -71 4 14 14 208 57 237 53 18 -3 30 -2
27 3 -3 5 23 11 57 14 35 3 77 7 93 9 43 5 149 -2 233 -15z m725 -49 c56 -11
143 -37 193 -58 118 -49 256 -129 247 -144 -3 -7 -3 -9 2 -5 11 10 47 -11 40
-23 -4 -5 -1 -8 7 -7 7 2 12 -3 10 -10 -1 -8 2 -11 7 -8 13 9 72 -44 64 -56
-3 -6 -1 -8 4 -5 14 9 106 -90 97 -105 -4 -7 -3 -8 4 -4 20 12 151 -181 135
-198 -4 -3 -1 -6 6 -6 8 0 11 -6 7 -16 -3 -8 -2 -13 3 -10 12 8 74 -133 75
-171 1 -17 5 -31 10 -30 12 3 57 -172 53 -205 -2 -15 0 -29 5 -30 13 -5 22
-252 13 -363 -7 -82 -10 -94 -16 -65 -6 25 -7 17 -4 -27 3 -45 -3 -90 -21
-165 -32 -128 -92 -280 -107 -271 -5 3 -7 1 -4 -5 4 -5 4 -17 1 -26 -5 -14 -9
-14 -23 -4 -14 11 -14 11 -3 -3 11 -14 8 -25 -14 -65 -45 -83 -120 -176 -194
-242 -68 -61 -95 -72 -45 -18 13 14 25 29 25 31 0 3 0 12 0 21 0 8 4 13 8 10
4 -2 8 3 9 12 0 9 17 61 37 115 63 170 87 313 93 542 4 169 2 220 -16 331 -52
333 -212 664 -426 880 -122 123 -241 204 -347 236 -28 8 -35 14 -26 21 9 6 8
7 -4 3 -10 -3 -50 2 -90 10 -106 23 -289 14 -385 -18 l-72 -24 37 40 c68 76
132 117 222 142 74 20 267 17 383 -7z m-1133 -199 c75 -21 82 -24 60 -33 -89
-35 -190 -87 -242 -124 -34 -23 -65 -40 -71 -36 -6 3 -7 2 -4 -4 7 -11 -102
-110 -116 -105 -5 1 -6 -1 -3 -6 3 -5 -20 -37 -51 -73 -31 -35 -83 -104 -116
-154 -40 -61 -64 -89 -76 -87 -12 2 -13 1 -3 -6 10 -7 3 -30 -32 -102 -25 -51
-62 -145 -83 -209 -21 -64 -40 -118 -43 -121 -3 -3 -6 -16 -7 -30 0 -14 -8
-72 -18 -130 -24 -146 -24 -384 0 -510 11 -52 19 -112 19 -132 0 -21 3 -33 6
-27 7 11 41 -95 36 -114 -1 -7 -1 -8 2 -4 2 5 18 -25 36 -65 42 -97 89 -177
147 -255 27 -35 45 -63 41 -63 -14 0 -142 79 -200 124 -78 59 -212 204 -267
286 -87 132 -184 363 -172 410 3 11 1 18 -3 15 -12 -7 -27 70 -41 211 -19 191
8 415 73 614 46 144 172 366 256 455 72 76 143 136 154 129 6 -4 8 -3 4 4 -13
22 176 126 231 126 18 0 27 3 21 7 -12 8 -2 12 82 29 82 17 286 6 380 -20z
m839 -87 c6 -10 11 -12 11 -5 0 7 14 12 34 12 38 0 166 -37 166 -48 0 -4 10
-18 21 -32 11 -14 18 -19 14 -13 -10 21 49 9 86 -17 69 -48 149 -122 142 -133
-3 -5 -1 -7 5 -3 13 8 105 -102 96 -115 -3 -5 0 -8 6 -7 15 4 122 -172 115
-190 -2 -7 -1 -11 4 -8 12 8 45 -70 36 -85 -5 -7 -4 -10 3 -5 17 10 89 -201
78 -230 -3 -9 -1 -12 4 -9 6 3 10 4 10 2 0 -3 7 -40 15 -83 19 -105 18 -89 18
-334 0 -182 -3 -231 -21 -317 -36 -166 -101 -335 -176 -452 -22 -34 -30 -41
-38 -30 -7 10 -8 9 -4 -6 5 -16 -10 -37 -59 -89 -40 -42 -69 -65 -76 -60 -7 4
-9 3 -6 -3 8 -12 -68 -66 -158 -111 -122 -62 -381 -132 -489 -132 l-45 0 60
118 c102 202 165 469 190 812 26 368 -23 824 -122 1125 -36 110 -107 254 -159
322 -21 28 -35 55 -32 59 4 4 2 4 -4 1 -6 -3 -18 3 -27 14 -16 18 -16 20 5 28
20 7 59 16 153 35 11 2 46 4 77 5 45 1 59 -3 67 -16z m2248 -47 c29 -9 58 -23
66 -31 8 -8 17 -11 21 -8 10 11 118 -71 176 -135 53 -57 117 -163 135 -219 5
-18 3 -22 -9 -17 -9 3 -13 11 -9 17 3 6 1 7 -6 3 -6 -4 -36 -4 -67 0 -37 4
-51 9 -43 15 10 6 4 9 -18 9 -17 0 -35 -4 -38 -10 -3 -5 -25 -10 -48 -10 -52
0 -161 -38 -235 -82 -53 -30 -283 -248 -282 -265 0 -5 -14 -28 -33 -53 -18
-25 -50 -73 -71 -107 -39 -63 -51 -77 -39 -46 4 11 3 14 -6 9 -6 -4 -11 -15
-10 -24 2 -10 -30 -84 -71 -165 -53 -108 -75 -145 -82 -135 -7 10 -8 8 -4 -5
7 -22 -61 -160 -74 -152 -5 3 -7 0 -4 -8 6 -17 -138 -233 -154 -229 -7 1 -11
-4 -10 -10 2 -7 -3 -12 -9 -10 -7 1 -13 -4 -13 -11 0 -8 -11 -24 -25 -37 -18
-17 -25 -19 -25 -9 0 8 4 19 9 25 17 19 80 182 106 272 38 139 55 270 55 430
0 172 -20 314 -66 473 -19 65 -34 123 -34 129 0 18 113 150 167 195 117 99
278 191 316 181 9 -2 15 0 12 4 -3 5 21 14 52 20 32 6 63 13 68 15 25 11 254
-4 302 -19z m-2770 -46 c54 -24 85 -49 77 -61 -3 -5 1 -6 9 -3 9 3 30 -13 55
-42 31 -36 40 -54 37 -76 -2 -16 0 -26 5 -23 5 3 7 13 4 23 -5 14 -3 14 10 -2
17 -21 22 -41 7 -32 -5 3 -15 -2 -22 -11 -12 -15 -12 -16 1 -8 40 24 55 4 103
-135 145 -428 175 -958 81 -1462 -9 -49 -20 -88 -24 -88 -5 0 -6 -8 -4 -17 7
-28 -59 -223 -99 -295 -46 -82 -105 -144 -165 -170 -60 -27 -215 -29 -312 -4
-96 25 -180 57 -174 67 3 5 -3 6 -12 2 -13 -5 -15 -3 -9 7 5 8 4 11 -3 6 -14
-9 -63 14 -55 27 3 6 2 7 -4 4 -14 -9 -62 24 -138 94 -159 149 -274 358 -329
599 -42 182 -38 457 10 665 28 123 101 318 115 310 5 -4 7 0 4 7 -7 18 90 184
105 180 6 -1 9 2 5 8 -9 14 74 122 87 114 7 -4 8 -3 4 5 -9 14 65 93 154 166
169 137 362 196 477 145z m-2124 -236 c49 -8 126 -29 172 -45 123 -45 285
-146 277 -173 -2 -6 0 -8 4 -3 4 4 22 -7 40 -24 36 -35 36 -34 3 -158 -10 -41
-19 -85 -19 -98 0 -14 -3 -22 -7 -20 -9 6 -10 -34 -11 -273 0 -200 1 -253 9
-260 3 -3 11 -36 17 -73 7 -38 24 -104 38 -148 14 -44 22 -84 18 -91 -4 -7 -3
-8 4 -4 7 4 12 2 12 -4 0 -7 18 -48 40 -92 45 -90 45 -92 28 -82 -8 4 -10 3
-5 -2 5 -5 13 -9 17 -9 5 0 23 -21 39 -48 l31 -47 -36 15 c-20 8 -39 15 -43
15 -3 0 1 5 9 11 13 9 12 10 -3 5 -53 -17 -365 207 -342 245 5 7 4 10 -2 6
-14 -9 -34 15 -178 213 -70 96 -141 189 -157 207 -19 20 -27 36 -23 45 5 7 5
10 0 6 -5 -5 -54 36 -109 90 -56 54 -126 116 -156 138 -66 49 -190 117 -243
134 -20 6 -35 15 -32 19 2 5 -7 6 -22 3 -19 -4 -24 -2 -18 8 5 8 4 11 -3 6 -5
-3 -43 1 -84 9 -81 18 -225 22 -307 11 l-54 -8 47 61 c26 34 52 59 57 56 5 -3
6 0 4 7 -5 13 84 99 169 164 136 102 316 176 481 197 78 10 258 5 338 -9z
m4447 -1518 c92 -17 175 -49 175 -67 0 -8 11 -14 27 -14 32 -1 110 -53 101
-69 -3 -6 -3 -8 2 -4 11 11 67 -31 59 -44 -4 -6 -3 -8 3 -5 14 9 57 -39 48
-53 -4 -6 -1 -9 7 -8 7 2 12 -3 10 -10 -1 -6 3 -11 10 -10 7 2 13 -3 14 -9 1
-7 2 -18 3 -24 0 -5 5 -8 10 -5 13 8 34 -21 25 -35 -5 -8 -3 -9 6 -4 9 6 10 1
5 -16 -4 -17 -3 -20 3 -10 8 11 12 10 21 -8 7 -12 9 -27 5 -33 -4 -7 -3 -8 5
-4 7 5 20 -11 36 -46 14 -29 20 -54 15 -56 -5 -2 -6 -10 -3 -18 4 -11 8 -12
13 -5 9 16 56 -124 81 -244 25 -120 30 -322 10 -435 -23 -129 -95 -311 -116
-292 -5 4 -5 2 -1 -5 8 -15 -10 -46 -82 -136 -30 -39 -58 -65 -64 -61 -6 4 -8
3 -5 -3 4 -6 -13 -27 -37 -47 l-44 -36 -42 78 c-173 320 -501 642 -815 799
-266 133 -504 169 -815 125 -226 -33 -354 -43 -438 -36 -116 10 -262 46 -176
44 87 -2 378 75 539 144 170 73 381 197 534 312 24 19 48 31 54 27 5 -3 7 -1
3 5 -7 12 81 79 98 74 6 -2 8 0 3 4 -12 12 130 110 238 164 106 53 209 85 256
78 15 -3 26 -1 23 4 -8 13 113 9 196 -6z m-4173 -96 c23 -7 41 -16 39 -19 -2
-3 6 -7 18 -7 19 -1 202 -97 216 -113 3 -3 12 -7 20 -9 34 -6 139 -55 135 -62
-3 -5 5 -6 17 -2 14 3 19 1 14 -6 -4 -8 -2 -10 7 -6 8 3 21 -1 28 -8 8 -7 19
-13 24 -13 18 -1 117 -56 195 -109 42 -29 95 -63 118 -76 23 -13 38 -28 35
-33 -3 -6 -1 -7 4 -4 6 4 55 -14 109 -40 55 -26 144 -61 199 -79 55 -18 96
-33 90 -33 -26 -2 -370 -52 -445 -65 -232 -41 -464 -112 -605 -186 -143 -76
-182 -101 -294 -190 -24 -19 -48 -34 -52 -33 -5 2 -9 -1 -9 -5 0 -5 -32 -42
-71 -83 -40 -41 -90 -98 -112 -126 -21 -29 -44 -50 -50 -46 -5 3 -7 1 -4 -4 4
-6 -5 -28 -20 -49 -14 -22 -49 -81 -78 -131 -29 -51 -56 -89 -60 -85 -5 4 -5
2 -1 -5 5 -9 -34 -116 -48 -130 -4 -5 -107 47 -161 81 -91 59 -242 224 -231
253 3 8 1 11 -4 8 -12 -8 -62 92 -88 176 -42 136 -51 358 -21 499 20 96 52
189 62 183 6 -3 7 -1 4 5 -10 14 31 105 43 97 5 -3 7 0 5 7 -11 29 145 235
167 221 6 -3 8 -1 5 4 -12 20 153 140 174 127 7 -4 9 -3 5 4 -10 17 121 71
239 97 76 17 323 14 382 -5z"/>
</g>
</svg>
