<?xml version="1.0" standalone="no"?>
<!DOCTYPE svg PUBLIC "-//W3C//DTD SVG 20010904//EN" "http://www.w3.org/TR/2001/REC-SVG-20010904/DTD/svg10.dtd">
<svg xmlns="http://www.w3.org/2000/svg" version="1.0" width="1024.000000pt" height="1024.000000pt" viewBox="0 0 1024.000000 1024.000000" preserveAspectRatio="xMidYMid meet">
<metadata>
Created by potrace 1.16, written by Peter Selinger 2001-2019
<meta name="Producer" content="Online-Convert"/></metadata>
<g transform="translate(0.000000,1024.000000) scale(0.100000,-0.100000)" fill="#000000" stroke="none">
<path d="M5062 7748 c-11 -13 -56 -86 -99 -163 -106 -188 -211 -361 -229 -380 -9 -8 -13 -15 -10 -15 6 0 -47 -88 -143 -237 -30 -46 -58 -80 -64 -76 -6 3 -7 1 -3 -6 10 -15 -33 -83 -46 -75 -7 5 -8 2 -3 -5 4 -8 -7 -33 -28 -64 -76 -115 -136 -207 -197 -309 -35 -58 -69 -104 -74 -101 -5 3 -6 1 -2 -5 9 -14 -47 -105 -59 -95 -4 5 -5 3 -1 -4 3 -7 -16 -54 -43 -105 -88 -165 -176 -407 -196 -535 -4 -24 -10 -43 -13 -43 -4 0 -6 -73 -6 -162 2 -182 15 -264 69 -420 18 -54 29 -98 24 -98 -6 0 -7 -5 -4 -10 4 -6 10 -8 14 -6 4 3 15 -11 25 -31 9 -19 40 -70 68 -112 28 -42 51 -86 51 -98 1 -12 5 -19 9 -17 5 3 5 11 2 17 -4 7 14 -10 39 -38 26 -27 44 -56 42 -63 -3 -8 0 -10 6 -6 6 4 14 3 18 -2 3 -5 33 -33 66 -63 33 -30 60 -59 60 -65 0 -6 9 -11 20 -11 11 0 19 -5 18 -11 -1 -7 5 -11 15 -10 9 0 16 -4 15 -10 -1 -6 3 -11 10 -11 19 0 198 -99 191 -105 -3 -3 1 -6 8 -5 34 1 49 -4 42 -15 -4 -6 -3 -8 2 -5 6 3 49 -7 96 -23 89 -30 277 -59 383 -60 192 0 432 68 610 174 75 45 224 159 274 210 24 25 49 42 54 39 6 -4 7 -1 2 6 -4 8 3 23 18 39 42 46 133 184 168 254 18 37 36 65 40 62 4 -2 11 1 15 7 4 8 3 9 -4 5 -17 -10 -16 -5 18 91 86 243 80 517 -16 808 -39 115 -181 405 -276 562 -31 51 -53 94 -50 97 3 3 1 6 -5 6 -16 0 -67 91 -65 115 1 14 -1 16 -7 7 -10 -17 -83 102 -75 122 3 8 0 17 -7 22 -9 5 -10 2 -6 -9 14 -37 -5 -11 -79 106 -43 67 -85 133 -95 147 -60 88 -138 224 -132 233 3 5 2 7 -4 4 -13 -8 -46 50 -37 65 4 6 3 8 -4 5 -12 -8 -66 79 -57 92 3 5 0 13 -6 17 -8 5 -10 2 -5 -7 4 -8 0 -5 -8 6 -9 11 -14 25 -11 33 2 7 1 11 -4 8 -11 -7 -54 72 -45 86 4 6 3 8 -4 4 -6 -4 -33 35 -67 99 -76 141 -97 165 -144 165 -26 0 -44 -7 -59 -22z m123 -265 c32 -60 74 -133 92 -163 24 -40 29 -56 20 -62 -8 -5 -7 -8 4 -8 10 0 38 -36 70 -87 29 -49 97 -157 151 -241 54 -85 95 -159 91 -164 -4 -7 -1 -8 7 -3 10 6 12 4 7 -9 -4 -9 -3 -15 2 -12 5 3 25 -19 45 -49 40 -61 45 -74 19 -54 -16 12 -17 12 -6 -2 7 -9 9 -20 5 -25 -4 -4 0 -3 9 4 14 11 20 7 39 -25 13 -21 23 -43 23 -50 0 -7 4 -10 8 -8 4 3 9 -2 13 -10 3 -8 1 -15 -5 -15 -6 0 -7 -5 -4 -10 4 -6 10 -8 15 -5 9 6 73 -90 73 -111 0 -7 3 -11 7 -9 18 11 239 -400 300 -556 51 -132 113 -407 80 -359 -7 11 -10 7 -9 -20 0 -29 2 -31 9 -15 6 13 9 -17 9 -85 2 -315 -173 -653 -448 -864 -182 -140 -353 -210 -579 -238 -79 -10 -95 -9 -103 3 -7 11 -9 12 -9 0 0 -11 -15 -12 -77 -6 -265 23 -516 135 -704 312 -38 36 -69 71 -69 79 0 7 -5 16 -12 20 -7 5 -9 2 -4 -7 13 -23 -32 32 -85 106 -65 90 -102 163 -140 276 -42 125 -78 412 -50 394 5 -3 13 0 17 6 4 8 3 9 -4 5 -34 -20 10 216 68 369 51 135 98 233 193 400 100 174 122 207 132 197 5 -4 5 -2 2 4 -4 6 75 139 174 295 100 156 192 303 206 327 14 23 28 40 33 37 4 -3 7 1 6 8 -2 19 228 396 238 389 5 -3 6 0 2 6 -6 11 60 142 73 142 3 0 33 -48 66 -107z"/>
<path d="M5835 5556 c-13 -13 -25 -22 -27 -21 -2 2 -1 -24 1 -58 3 -56 -13 -189 -27 -226 -4 -12 -7 -11 -14 5 -6 13 -7 9 -3 -14 5 -37 -38 -147 -55 -137 -5 3 -7 0 -4 -8 3 -8 -14 -43 -38 -78 -32 -47 -48 -63 -63 -61 -17 2 -18 1 -5 -8 24 -17 -106 -132 -240 -211 -36 -22 -107 -47 -167 -59 -59 -13 -90 -35 -95 -70 -4 -29 34 -70 65 -70 81 0 299 95 384 167 32 27 58 41 65 37 7 -4 10 -3 5 1 -10 12 43 66 57 58 6 -3 8 -3 4 1 -4 4 22 44 57 88 132 168 203 360 206 566 2 78 0 87 -21 104 -30 24 -56 23 -85 -6z"/>
<path d="M4032 3784 c-142 -23 -286 -70 -472 -152 -69 -30 -133 -55 -142 -55 -9 -1 -15 -4 -13 -8 6 -9 -222 -96 -314 -121 -53 -14 -123 -21 -231 -25 -169 -6 -190 -13 -190 -63 0 -53 29 -65 166 -67 68 -1 129 -5 135 -9 7 -4 9 -3 6 3 -4 6 12 13 41 17 77 10 210 46 285 77 39 15 74 26 79 23 4 -3 8 -2 8 3 0 4 15 15 33 22 17 8 74 34 125 58 52 24 99 40 105 36 7 -3 9 -2 4 2 -17 19 253 110 398 134 210 35 412 18 655 -56 47 -14 88 -30 92 -37 4 -6 8 -8 8 -4 0 6 57 -18 315 -134 66 -30 139 -60 162 -68 23 -7 40 -17 37 -21 -3 -5 2 -6 10 -3 8 3 37 -1 63 -10 26 -8 62 -18 78 -20 17 -3 62 -10 100 -16 102 -16 354 -14 460 5 132 23 220 50 410 124 198 78 317 115 350 108 14 -2 22 -1 20 3 -16 26 303 29 423 4 98 -20 204 -53 198 -62 -2 -4 16 -8 41 -10 54 -4 83 17 83 59 0 41 -29 62 -133 98 -167 57 -372 81 -530 61 -166 -21 -261 -49 -572 -168 -423 -162 -766 -144 -1217 65 -58 27 -75 39 -71 52 4 12 3 13 -4 3 -8 -10 -36 -2 -133 37 -205 85 -316 114 -504 131 -140 14 -209 11 -364 -16z"/>
<path d="M4476 3248 c3 -4 -31 -8 -76 -8 -164 0 -374 -50 -611 -145 -63 -25 -122 -50 -131 -55 -10 -5 -25 -7 -35 -3 -10 3 -15 3 -11 -2 7 -7 -174 -96 -199 -98 -7 0 -11 -3 -10 -6 0 -3 -3 -16 -7 -29 -10 -30 15 -68 49 -75 19 -3 94 24 264 95 392 165 596 212 828 188 146 -15 402 -88 388 -111 -4 -5 0 -6 8 -3 15 6 177 -64 177 -76 0 -4 6 -7 13 -7 26 -1 177 -70 170 -78 -5 -4 -3 -5 3 -2 6 4 37 -3 69 -14 32 -11 108 -32 169 -47 97 -23 133 -26 281 -26 155 0 179 2 270 27 149 41 189 73 161 128 -18 36 -57 46 -100 25 -104 -49 -337 -69 -506 -42 -122 19 -218 47 -350 104 -103 43 -278 123 -323 147 -16 8 -37 15 -46 15 -10 0 -21 3 -25 8 -4 4 -11 7 -14 8 -27 3 -61 18 -57 24 3 4 -5 8 -18 7 -12 0 -71 9 -130 21 -59 12 -126 22 -148 22 -22 0 -38 4 -35 8 3 5 -1 9 -9 9 -8 0 -12 -4 -9 -9z"/>
</g>
</svg>
