<?xml version="1.0" standalone="no"?>
<!DOCTYPE svg PUBLIC "-//W3C//DTD SVG 20010904//EN"
 "http://www.w3.org/TR/2001/REC-SVG-20010904/DTD/svg10.dtd">
<svg version="1.0" xmlns="http://www.w3.org/2000/svg"
 width="1024.000000pt" height="1024.000000pt" viewBox="0 0 1024.000000 1024.000000"
 preserveAspectRatio="xMidYMid meet">
<metadata>
Created by potrace 1.16, written by Peter Selinger 2001-2019
</metadata>
<g transform="translate(0.000000,1024.000000) scale(0.100000,-0.100000)"
fill="#000000" stroke="none">
<path d="M5064 8881 c-18 -10 -44 -35 -59 -55 -15 -20 -32 -33 -39 -29 -6 3
-8 3 -4 -2 9 -10 -62 -96 -73 -89 -5 3 -8 1 -7 -4 5 -16 -42 -73 -54 -66 -6 4
-8 3 -5 -4 8 -12 -150 -198 -165 -194 -5 1 -7 -1 -4 -6 6 -11 -93 -124 -103
-118 -4 3 -13 0 -21 -6 -12 -8 -12 -9 3 -4 9 3 17 3 17 0 0 -16 -253 -293
-262 -288 -7 4 -8 2 -4 -4 9 -15 -293 -354 -307 -345 -5 3 -7 1 -3 -5 8 -13
-112 -154 -125 -146 -5 3 -8 1 -7 -4 5 -16 -72 -103 -84 -96 -6 4 -8 2 -4 -4
3 -5 -6 -24 -20 -41 -22 -27 -29 -30 -43 -19 -14 11 -14 11 -4 -2 10 -13 7
-22 -13 -48 -14 -18 -30 -29 -36 -26 -6 4 -8 2 -5 -3 8 -13 -17 -36 -28 -25
-5 4 -5 2 -2 -5 9 -15 -41 -75 -55 -66 -6 3 -8 2 -5 -4 8 -13 -50 -83 -66 -79
-7 1 -9 1 -4 -2 9 -5 -43 -68 -55 -64 -4 1 -7 -2 -6 -7 2 -4 -17 -32 -40 -60
-38 -45 -46 -50 -60 -39 -15 11 -15 11 -5 -3 10 -12 0 -29 -58 -97 -41 -48
-75 -80 -81 -76 -6 4 -8 3 -5 -3 4 -5 -5 -25 -18 -43 l-25 -34 0 -1629 c0
-1168 3 -1634 11 -1649 8 -16 8 -23 -2 -30 -11 -8 -10 -9 3 -5 19 7 54 -38 38
-48 -13 -8 -13 -25 1 -25 5 0 7 5 4 10 -14 23 14 8 30 -16 9 -15 12 -23 5 -19
-9 6 -9 3 -1 -14 7 -11 14 -21 17 -21 3 0 2 6 -2 13 -25 43 24 -23 79 -109 49
-77 64 -108 62 -132 -2 -22 1 -29 11 -25 11 4 11 10 3 26 -19 37 6 5 60 -76
30 -44 49 -83 45 -90 -4 -6 -3 -9 1 -5 7 7 132 -170 128 -182 -1 -3 -5 -14 -9
-25 -6 -19 -6 -19 8 -1 14 17 15 17 21 2 5 -12 3 -15 -6 -11 -6 4 -1 -3 13
-15 14 -12 20 -19 13 -16 -6 4 -15 2 -18 -4 -4 -6 -3 -10 2 -9 4 1 13 1 19 0
15 -1 66 -79 59 -91 -3 -5 0 -12 6 -16 8 -4 9 -3 5 4 -4 7 -5 12 -3 12 2 0 20
-24 40 -54 36 -54 36 -54 14 -65 -15 -8 -16 -10 -3 -6 13 4 17 1 13 -9 -4 -10
-1 -13 8 -9 8 3 12 10 8 17 -4 7 -3 8 4 1 27 -26 141 -215 130 -216 -6 0 -1
-5 12 -10 15 -6 21 -15 17 -24 -3 -8 -1 -14 4 -12 12 3 152 -212 145 -223 -3
-5 0 -12 6 -16 8 -4 9 -3 5 4 -4 7 -5 12 -3 12 7 0 147 -218 147 -227 0 -4 -5
-1 -11 7 -9 13 -10 13 -6 0 2 -8 9 -15 15 -15 18 0 61 -65 57 -86 -2 -10 1
-19 7 -19 5 0 8 6 5 13 -4 10 6 8 33 -5 20 -10 179 -50 351 -89 352 -79 336
-78 509 -24 47 14 123 37 169 51 157 46 177 60 260 184 40 60 77 107 82 105 4
-3 11 0 15 6 4 8 3 9 -4 5 -22 -13 -12 6 49 95 34 48 66 86 70 83 5 -3 6 1 3
9 -3 8 0 18 7 23 8 5 10 3 4 -7 -5 -8 -4 -11 1 -6 5 5 9 16 9 25 0 9 5 16 11
15 7 -1 11 3 10 10 -2 19 148 235 159 229 6 -3 7 -2 3 3 -7 8 124 212 150 232
9 7 12 13 8 13 -4 0 7 20 24 45 18 26 36 43 42 39 7 -4 8 -2 4 4 -10 16 130
222 152 222 11 0 13 3 5 8 -8 5 23 59 97 167 60 88 135 200 167 250 56 87 58
92 63 173 3 46 1 87 -4 93 -6 6 -6 9 0 9 9 0 9 42 1 258 -2 62 0 112 5 112 5
0 5 7 0 17 -5 9 -6 29 -2 44 5 15 5 30 2 34 -3 3 -5 24 -4 45 7 117 7 228 0
247 -4 13 -3 25 2 28 6 4 10 11 10 16 0 6 -4 8 -8 5 -4 -2 -8 4 -8 15 0 10 4
19 8 19 4 0 8 5 8 11 0 5 -4 7 -10 4 -5 -3 -10 -2 -10 4 0 5 3 12 8 15 9 5 6
90 -4 125 -4 14 -3 22 2 18 5 -3 10 3 10 13 0 10 -5 16 -10 13 -5 -4 -6 -1 -2
6 14 21 17 91 4 91 -10 0 -7 68 8 130 5 20 4 22 -6 10 -9 -13 -10 -12 -6 5 12
46 14 75 5 75 -6 0 -6 8 1 20 8 15 8 20 -2 20 -10 0 -10 2 -1 8 14 9 14 120 1
128 -5 3 -5 11 -1 17 12 20 15 59 3 52 -5 -3 -10 -2 -10 4 0 5 5 13 10 16 8 5
7 12 -2 23 -10 12 -10 14 0 8 7 -4 12 -1 12 9 0 9 -4 14 -8 11 -5 -3 -6 14 -3
37 8 51 7 105 -2 114 -10 9 -9 25 1 19 4 -2 6 12 5 32 -4 51 -4 49 1 121 2 38
0 58 -5 50 -6 -10 -9 -3 -9 21 0 26 3 31 10 20 6 -9 10 -10 10 -3 0 6 -5 15
-10 18 -8 5 -7 12 2 23 10 12 10 14 1 8 -9 -5 -13 0 -13 14 0 14 4 19 13 14 8
-5 8 -2 -2 9 -10 13 -11 20 -2 30 6 8 8 16 5 20 -10 10 -12 107 -2 100 6 -3 5
4 -1 15 -8 14 -8 23 -1 27 8 5 8 11 1 19 -6 7 -8 15 -6 18 9 8 11 167 3 161
-5 -2 -8 7 -8 21 0 14 5 26 10 26 12 0 9 22 -5 32 -6 5 -5 8 3 8 9 0 10 4 0
19 -9 15 -9 23 1 35 9 10 10 20 2 34 -6 11 -8 22 -4 25 7 8 7 101 -1 147 -5
26 -4 30 3 15 9 -18 10 -18 10 7 1 15 -3 38 -9 53 -5 14 -6 24 -1 21 9 -6 8
82 -3 149 -4 29 -4 34 3 20 9 -18 10 -17 10 8 1 18 -3 26 -10 21 -8 -4 -9 1
-4 17 11 35 12 61 3 87 -5 15 -4 21 2 17 6 -4 10 7 10 24 0 17 -4 31 -10 31
-5 0 -10 9 -10 21 0 11 4 18 8 15 4 -2 8 4 8 14 0 10 -4 16 -8 14 -13 -8 -9
31 4 44 8 8 8 15 -3 28 -12 16 -12 17 1 9 12 -6 13 -5 3 6 -15 16 -17 53 -3
44 6 -3 10 1 10 9 0 9 -4 16 -10 16 -5 0 -11 94 -13 238 -5 245 -6 264 -17
257 -4 -2 -23 10 -44 27 -25 20 -34 33 -26 38 8 5 7 9 -5 13 -9 4 -13 3 -10
-3 13 -20 -8 -9 -55 31 -27 23 -47 46 -43 52 3 6 1 7 -5 3 -13 -8 -259 192
-255 206 2 4 -1 7 -6 5 -5 -1 -31 16 -57 38 -27 22 -89 73 -139 114 -49 40
-89 77 -88 82 2 5 -3 8 -10 6 -6 -1 -11 4 -9 11 1 8 -2 11 -7 7 -11 -6 -307
234 -303 247 1 4 -2 7 -7 6 -13 -4 -72 42 -67 51 3 4 -1 8 -8 8 -17 0 -276
212 -276 226 0 6 -3 7 -6 4 -4 -4 -43 23 -86 59 -92 76 -132 88 -184 55z m60
-415 c25 -70 43 -132 40 -137 -3 -5 -1 -9 4 -9 14 0 42 -88 35 -107 -4 -10 -2
-14 4 -10 12 8 57 -118 47 -134 -4 -7 -3 -9 4 -6 6 4 17 -12 26 -40 19 -55 19
-56 6 -48 -14 9 -12 -6 6 -35 14 -23 14 -23 9 -2 -12 44 3 21 20 -30 9 -29 28
-82 41 -116 14 -35 23 -70 20 -78 -3 -8 -2 -13 3 -10 4 3 13 -9 18 -27 6 -18
50 -139 97 -271 47 -131 86 -245 86 -252 0 -24 -80 -125 -92 -118 -7 4 -8 3
-4 -5 7 -11 -27 -65 -36 -56 -3 3 -5 -1 -5 -8 0 -21 -475 -647 -486 -640 -5 3
-7 1 -3 -5 3 -6 -4 -22 -16 -36 l-23 -25 -82 21 c-46 12 -78 25 -73 28 6 4 -4
7 -22 7 -45 0 -168 34 -162 44 3 5 -1 6 -8 4 -12 -5 -166 33 -332 82 -46 13
-54 19 -40 25 14 6 11 7 -10 4 -36 -5 -300 67 -289 79 4 4 2 5 -5 1 -19 -11
-216 45 -200 57 9 6 7 7 -6 3 -22 -7 -88 3 -82 13 2 3 -7 7 -21 7 -13 1 -69
14 -124 30 l-100 28 43 45 c24 25 48 50 54 56 6 5 60 66 120 135 60 69 111
127 114 130 3 3 30 33 59 67 30 35 58 60 63 57 4 -3 7 -1 6 4 -5 16 72 103 84
96 6 -4 8 -3 5 3 -8 13 52 85 64 77 5 -3 8 -1 7 5 -4 15 464 550 481 550 8 1
12 4 8 7 -10 10 64 95 76 87 5 -3 7 -1 3 5 -3 6 18 37 47 69 29 32 92 104 141
161 66 77 92 100 98 90 8 -10 9 -9 5 4 -7 19 168 225 187 220 6 -2 8 0 3 4 -4
4 1 16 10 26 9 10 20 15 24 11 5 -5 28 -66 53 -137z m246 27 c0 -2 -5 -1 -12
3 -7 4 -8 3 -4 -5 4 -6 12 -9 17 -6 13 8 99 -66 92 -79 -3 -6 -3 -8 2 -4 10 9
75 -40 75 -57 0 -7 7 -16 16 -19 10 -4 13 -2 7 7 -4 6 7 1 24 -13 29 -23 46
-50 23 -35 -5 3 -10 -1 -10 -10 0 -12 4 -14 19 -6 14 8 22 7 32 -6 8 -10 9
-14 2 -10 -6 4 -14 3 -18 -2 -3 -6 4 -8 16 -6 26 5 52 -12 42 -28 -3 -6 -1 -7
5 -3 6 4 28 -8 49 -27 21 -18 87 -73 148 -122 60 -50 118 -98 130 -108 20 -17
20 -17 0 -11 -16 5 -17 4 -5 -4 8 -6 18 -8 23 -5 13 8 56 -37 51 -52 -3 -7 -1
-16 5 -20 7 -4 8 0 4 11 -9 24 3 16 130 -89 62 -51 104 -93 100 -100 -4 -6 0
-8 9 -5 10 4 33 -10 63 -38 27 -24 51 -44 54 -44 3 0 28 -20 55 -43 l49 -43
-57 -89 c-31 -49 -63 -90 -72 -91 -9 -1 -19 -6 -22 -10 -4 -4 1 -4 11 -1 9 4
17 4 17 1 0 -12 -47 -73 -52 -68 -3 3 -5 -3 -5 -13 2 -17 -16 -18 -310 -21
-293 -2 -313 -1 -314 15 -1 10 -1 22 0 27 1 5 -2 12 -8 15 -17 11 -82 203 -76
225 5 15 4 17 -3 7 -7 -10 -13 -5 -22 23 -6 19 -8 41 -4 47 4 7 3 9 -3 6 -14
-9 -78 167 -67 184 4 7 3 10 -2 6 -9 -5 -139 339 -139 367 0 6 -3 13 -6 16
-15 13 -79 210 -73 226 4 13 3 15 -3 7 -6 -9 -17 12 -35 65 -15 42 -30 86 -34
97 -6 14 5 9 39 -19 26 -21 47 -40 47 -43z m1230 -1281 c-9 -3 -10 -6 0 -12
14 -9 18 -159 5 -180 -5 -7 -4 -11 1 -7 5 3 8 -231 6 -576 -1 -320 -2 -662 -2
-760 0 -139 -3 -176 -13 -171 -9 6 -9 5 0 -7 7 -9 12 -76 13 -203 0 -104 3
-192 5 -196 3 -4 1 -44 -3 -89 -5 -45 -5 -84 -1 -86 5 -4 6 -25 0 -58 0 -5 -7
-5 -13 -1 -10 6 -10 4 -2 -7 15 -19 24 -68 13 -74 -4 -3 -6 -15 -3 -28 5 -21
6 -112 5 -407 0 -207 -1 -225 -12 -228 -5 -2 -9 -11 -9 -20 0 -14 2 -14 9 -3
15 23 19 -69 18 -374 -2 -226 -5 -289 -14 -288 -7 2 -13 -2 -13 -8 0 -6 -7 -9
-15 -6 -8 4 -17 2 -20 -3 -4 -6 -13 -10 -21 -10 -12 0 -14 245 -14 1846 0
1842 1 1916 32 1873 8 -11 9 -10 4 4 -6 17 13 66 37 96 9 11 12 11 16 0 2 -7
-2 -15 -9 -17z m-260 -692 c0 -340 -3 -520 -10 -520 -5 0 -9 -17 -9 -37 l2
-38 7 35 c4 19 8 -64 8 -185 0 -124 -3 -209 -8 -195 -7 22 -8 20 -9 -15 0 -29
2 -36 9 -25 7 11 10 6 9 -20 0 -29 -2 -31 -9 -15 -5 12 -8 -25 -7 -100 l1
-120 6 100 6 100 1 -120 c1 -75 -2 -112 -7 -100 -5 12 -8 -25 -7 -100 1 -111
1 -114 7 -45 4 41 6 -76 7 -260 0 -184 -3 -310 -7 -280 -5 42 -7 27 -7 -60 0
-92 2 -103 7 -55 4 33 7 -120 7 -340 0 -220 -3 -373 -7 -340 -4 39 -7 5 -6
-100 0 -143 1 -149 6 -60 5 83 6 71 6 -75 0 -122 -2 -152 -6 -100 l-6 75 -2
-77 c-1 -50 2 -78 9 -78 5 0 7 -5 4 -11 -4 -6 -14 -8 -22 -5 -8 3 -12 2 -9 -3
8 -12 -122 -83 -136 -75 -6 4 -8 3 -5 -3 9 -14 -127 -84 -149 -77 -14 4 -16 3
-5 -4 16 -12 -3 -27 -21 -16 -7 4 -10 3 -5 -1 12 -14 -267 -170 -285 -159 -6
4 -8 3 -5 -3 8 -13 -89 -66 -105 -57 -7 4 -8 3 -4 -4 8 -14 -50 -45 -67 -36
-7 4 -9 4 -5 -1 9 -10 -9 -21 -166 -105 l-119 -63 -56 17 c-31 10 -68 22 -83
28 l-28 10 0 1662 0 1661 26 30 c14 17 23 24 19 18 -3 -7 -1 -13 5 -13 7 0 9
7 6 16 -4 10 45 83 141 212 131 176 188 250 169 215 -3 -6 -2 -14 3 -18 6 -3
8 4 6 16 -3 16 38 78 152 230 l156 209 299 0 298 0 0 -520z m-3003 4 c13 -4
20 -10 17 -15 -3 -5 2 -6 10 -3 9 3 53 -6 98 -20 46 -14 164 -48 263 -75 316
-88 376 -107 370 -113 -4 -3 -1 -9 6 -14 8 -4 10 -3 5 4 -10 16 -12 16 116
-19 62 -17 131 -36 153 -42 42 -11 58 -24 48 -41 -3 -5 -1 -6 6 -2 6 4 8 12 5
18 -4 6 1 8 12 5 11 -3 39 -11 64 -17 25 -7 86 -24 135 -40 50 -15 111 -33
137 -40 26 -7 45 -16 43 -21 -3 -4 7 -7 22 -6 l28 2 3 -757 2 -758 -27 0 c-40
1 -139 45 -135 60 2 7 -3 10 -11 7 -19 -7 -120 61 -111 75 5 7 2 8 -6 3 -16
-10 -224 200 -214 217 4 6 3 8 -3 5 -6 -4 -37 23 -69 60 -76 86 -166 178 -229
233 -27 24 -43 40 -35 35 8 -5 12 -4 7 0 -4 5 -14 10 -21 11 -7 1 -44 20 -81
42 -57 35 -126 67 -230 107 -11 4 -31 9 -45 11 -14 2 -54 8 -90 13 -36 5 -113
8 -173 8 l-107 -2 0 528 c0 350 3 526 10 522 6 -3 10 -2 10 4 0 5 -6 12 -12
14 -18 8 3 8 29 1z m308 -1269 c72 -19 228 -92 220 -104 -2 -5 3 -8 13 -7 9 0
16 -4 15 -11 -2 -7 3 -10 10 -7 7 2 22 -6 33 -18 19 -23 19 -23 -1 -8 -18 14
-19 14 -6 -2 7 -10 18 -15 23 -12 16 10 137 -116 131 -135 -3 -11 -2 -12 4 -4
7 10 17 5 39 -20 60 -65 129 -151 127 -159 -2 -4 2 -7 8 -5 6 1 14 -4 17 -12
3 -9 0 -11 -8 -6 -9 5 -11 4 -6 -4 4 -6 11 -9 16 -6 10 6 64 -44 56 -53 -8 -7
15 -33 24 -27 12 7 101 -76 93 -87 -3 -7 -1 -8 5 -4 14 8 53 -24 45 -37 -3 -6
-1 -7 5 -3 10 6 120 -57 133 -76 3 -6 9 -9 13 -8 4 1 36 -10 72 -24 36 -15 86
-29 110 -33 l44 -6 0 -339 0 -338 -22 4 c-13 3 -41 8 -63 11 -22 3 -58 11 -79
18 -38 11 -39 12 -15 19 18 6 15 7 -13 4 -26 -3 -54 4 -98 25 -56 26 -61 31
-49 47 11 14 11 15 -1 5 -18 -16 -34 -17 -24 -1 4 7 3 8 -5 4 -20 -13 -176
117 -164 137 3 5 1 7 -4 4 -19 -12 -211 212 -195 228 4 3 2 5 -4 3 -17 -5 -97
89 -88 104 4 7 3 10 -1 5 -12 -10 -66 43 -58 57 3 6 3 8 -2 4 -8 -7 -171 121
-168 133 1 4 -5 6 -15 5 -12 -1 -16 5 -14 19 2 14 0 16 -6 7 -6 -9 -26 -4 -86
24 -43 19 -103 41 -134 47 -32 6 -59 14 -62 17 -3 3 -21 5 -40 6 -19 0 -65 2
-102 4 l-68 3 0 313 0 313 33 4 c59 9 251 -3 312 -18z m-206 -812 c14 -9 21
-11 17 -5 -5 8 1 12 17 12 36 0 127 -29 127 -41 0 -6 4 -7 10 -4 19 12 150
-67 150 -91 0 -7 4 -16 10 -19 6 -4 7 1 3 12 -9 22 82 -53 105 -87 9 -14 15
-29 13 -35 -1 -5 1 -7 5 -2 4 4 18 -3 31 -15 21 -20 22 -23 8 -44 -13 -20 -13
-21 5 -17 11 3 17 10 14 17 -3 6 15 -11 40 -39 26 -27 44 -56 41 -63 -3 -7 -1
-11 4 -7 11 6 147 -156 143 -170 -2 -5 0 -7 4 -2 13 13 62 -43 58 -66 -4 -18
-3 -18 3 -4 7 15 15 12 68 -28 33 -25 59 -50 57 -56 -1 -6 2 -8 7 -5 13 8 102
-49 93 -59 -4 -5 -2 -5 5 -1 13 7 83 -23 83 -36 0 -5 4 -7 9 -4 4 3 32 -3 62
-14 30 -10 98 -27 152 -36 l97 -17 0 -319 c0 -233 -3 -318 -11 -318 -7 0 -50
14 -96 32 -58 22 -80 34 -71 41 9 6 7 7 -5 3 -22 -7 -208 64 -201 76 3 4 -2 5
-11 2 -8 -4 -39 5 -68 18 -28 14 -69 31 -89 37 -39 13 -53 27 -18 18 12 -3 18
-1 14 5 -3 5 -17 7 -30 4 -27 -7 -96 23 -87 37 3 6 1 7 -6 3 -13 -8 -53 2 -47
12 2 4 -8 7 -22 8 -15 1 -47 10 -72 21 -25 11 -56 24 -70 28 -24 8 -24 8 -5
17 16 7 15 7 -6 3 -27 -5 -99 18 -83 27 5 3 4 3 -3 2 -16 -4 -187 65 -191 77
-2 5 -8 7 -12 4 -7 -5 -170 55 -235 85 -11 5 -49 20 -85 33 l-65 24 -3 482 -2
481 58 0 c38 0 66 -6 81 -17z m18 -1195 c4 -7 14 -13 21 -14 38 -3 41 -5 36
-21 -4 -13 -3 -14 3 -5 8 10 26 7 89 -18 98 -39 97 -39 83 -56 -9 -11 -8 -14
4 -14 8 0 17 5 19 12 3 8 56 -9 161 -52 87 -35 153 -68 150 -73 -3 -6 -1 -7 6
-3 6 4 66 -14 132 -40 71 -27 116 -50 109 -54 -8 -5 -5 -9 9 -13 14 -3 19 -1
14 6 -8 13 -23 18 234 -85 119 -47 200 -85 196 -91 -3 -6 -1 -7 6 -3 17 11 81
-13 81 -30 0 -8 5 -14 11 -14 5 0 7 5 4 10 -3 6 -1 10 5 10 6 0 13 -6 16 -14
3 -8 11 -13 19 -10 7 3 52 -10 101 -29 49 -19 106 -40 128 -47 l38 -12 -7 -57
c-7 -61 -71 -526 -110 -795 -22 -154 -35 -211 -35 -160 0 13 -3 15 -8 6 -9
-14 -72 -6 -72 10 0 5 -5 6 -10 3 -9 -6 -187 25 -255 45 -16 4 -48 11 -70 15
-34 6 -37 9 -20 16 15 7 12 7 -12 3 -17 -3 -41 -1 -51 5 -27 14 -94 109 -87
122 4 5 2 8 -3 7 -6 -2 -36 34 -66 79 -56 82 -65 100 -47 88 5 -3 12 -1 15 4
4 5 -2 8 -11 7 -20 -3 -55 42 -46 58 3 6 3 8 -2 4 -11 -11 -38 29 -29 44 4 6
3 8 -3 5 -6 -4 -27 18 -47 48 -40 61 -45 74 -18 54 15 -13 16 -12 3 3 -7 10
-17 16 -21 13 -12 -7 -172 244 -164 257 4 6 3 8 -3 5 -14 -9 -44 38 -37 56 3
8 1 18 -5 22 -7 4 -8 -1 -4 -12 12 -35 -15 4 -196 279 -101 152 -180 282 -176
288 4 6 2 9 -4 8 -5 -2 -32 30 -60 70 -31 44 -45 72 -36 72 8 0 18 -6 22 -12z
m3068 -8 c-9 -10 -22 -18 -29 -17 -6 1 -10 -6 -8 -16 2 -9 -11 -38 -29 -63
-24 -36 -34 -43 -41 -33 -7 10 -8 9 -4 -5 4 -12 -3 -34 -20 -59 -23 -34 -28
-38 -36 -23 -11 19 -28 12 -27 -12 0 -14 2 -14 8 2 7 18 8 18 14 2 8 -20 -15
-60 -28 -48 -5 4 -5 2 -2 -4 7 -13 -111 -190 -125 -186 -5 1 -7 -2 -4 -7 6 -9
-297 -462 -311 -462 -15 -1 -45 -21 -39 -26 3 -3 13 0 22 8 25 21 17 5 -64
-114 -44 -65 -77 -105 -84 -101 -7 4 -8 3 -4 -4 9 -16 -92 -164 -106 -156 -7
4 -8 3 -4 -4 9 -14 -133 -224 -145 -216 -5 3 -6 -3 -2 -12 4 -12 3 -15 -5 -10
-7 4 -12 3 -12 -2 0 -5 -26 -17 -57 -26 -32 -9 -92 -27 -134 -40 l-75 -23 43
306 c24 168 47 313 50 321 3 8 5 19 4 23 -5 25 50 352 61 359 73 48 250 138
260 132 7 -4 10 -4 6 1 -11 11 50 47 65 39 7 -4 9 -3 5 1 -5 5 14 21 42 37 54
31 65 34 54 16 -4 -7 -3 -8 5 -4 6 4 9 11 6 16 -7 12 92 63 106 55 5 -4 8 -2
7 4 -4 17 295 182 304 168 7 -11 12 -3 9 15 0 4 39 28 87 54 48 26 102 56 120
66 18 10 39 15 45 12 7 -4 8 -3 4 2 -4 4 11 18 35 30 55 28 54 28 33 4z"/>
</g>
</svg>
