<?xml version="1.0" standalone="no"?>
<!DOCTYPE svg PUBLIC "-//W3C//DTD SVG 20010904//EN"
 "http://www.w3.org/TR/2001/REC-SVG-20010904/DTD/svg10.dtd">
<svg version="1.0" xmlns="http://www.w3.org/2000/svg"
 width="1024.000000pt" height="1024.000000pt" viewBox="0 0 1024.000000 1024.000000"
 preserveAspectRatio="xMidYMid meet">
<metadata>
Created by potrace 1.16, written by Peter Selinger 2001-2019
</metadata>
<g transform="translate(0.000000,1024.000000) scale(0.100000,-0.100000)"
fill="#000000" stroke="none">
<path d="M2204 7978 c-14 -24 -31 -48 -38 -53 -6 -6 -18 -22 -26 -37 -8 -14
-57 -81 -107 -148 -84 -109 -93 -125 -93 -164 0 -23 3 -46 7 -50 4 -4 9 -19
11 -33 2 -15 7 -34 11 -42 5 -9 7 -26 6 -38 -1 -13 2 -23 7 -23 5 0 8 -6 7
-12 -1 -7 1 -20 4 -28 4 -8 11 -33 16 -55 5 -22 21 -78 36 -125 15 -47 30 -97
32 -112 8 -41 43 -68 100 -74 47 -6 49 -8 49 -36 0 -25 -3 -29 -25 -26 -14 1
-32 -1 -39 -5 -6 -5 -17 -5 -22 -2 -6 4 -10 -5 -8 -24 2 -30 4 -31 50 -31 l48
0 0 -1440 c0 -1222 -2 -1438 -14 -1434 -8 3 -17 1 -21 -5 -11 -18 -35 -13 -29
7 5 14 4 14 -4 2 -6 -8 -8 -18 -6 -22 3 -4 0 -8 -5 -8 -6 0 -10 -3 -9 -7 1 -5
-4 -26 -10 -48 -6 -22 -11 -49 -10 -60 1 -22 -20 -204 -28 -248 -6 -27 -9 -29
-50 -25 -24 2 -44 -1 -44 -5 0 -5 -22 -7 -49 -5 -27 1 -47 0 -45 -3 2 -4 -7
-6 -20 -6 -33 -1 -132 -47 -170 -81 -26 -23 -32 -36 -34 -79 -4 -57 11 -95 52
-130 24 -22 26 -22 26 -4 0 11 5 21 11 23 6 2 2 14 -10 30 -12 14 -24 40 -27
56 -13 63 81 121 229 140 40 6 85 9 100 8 28 -1 28 -2 21 -46 -4 -25 -8 -70
-8 -100 -1 -36 -5 -55 -13 -56 -7 -1 -16 -3 -20 -4 -5 -1 -18 -1 -30 0 -13 1
-23 -3 -23 -9 0 -5 -14 -18 -31 -28 -69 -40 -91 -148 -41 -203 37 -41 117 -51
169 -20 37 22 104 26 163 11 19 -5 74 -12 122 -14 76 -4 93 -2 137 18 27 13
54 32 60 44 19 35 13 90 -13 116 -13 13 -21 27 -17 31 3 4 1 4 -6 0 -7 -4 -26
0 -43 9 -16 8 -30 12 -30 8 0 -4 -5 -2 -11 4 -6 6 -17 9 -24 7 -13 -5 -25 232
-25 487 0 122 -1 129 -25 158 -14 16 -41 35 -60 41 l-35 12 0 1439 0 1439 36
0 c49 0 73 15 67 40 -5 20 -20 24 -75 20 -19 -1 -28 3 -28 13 0 9 -3 23 -7 32
-5 15 0 17 40 14 25 -2 43 -1 41 2 -2 4 8 10 22 13 36 9 50 26 59 67 4 19 25
93 47 164 52 175 98 352 98 380 0 13 -15 39 -32 59 -80 85 -119 137 -112 148
4 7 3 8 -5 4 -6 -4 -14 -1 -17 8 -3 8 -15 18 -26 22 -11 3 -17 12 -14 20 3 7
1 13 -3 11 -17 -4 -107 109 -98 124 1 2 0 3 -2 2 -2 -1 -12 2 -22 8 -16 8 -23
3 -45 -33z m169 -207 c15 -16 27 -34 27 -40 0 -7 7 -14 16 -18 8 -3 13 -12 10
-19 -3 -8 0 -11 10 -7 8 3 14 -1 14 -11 0 -9 5 -16 11 -16 5 0 7 -4 4 -10 -3
-5 3 -10 13 -10 11 0 22 -7 26 -15 5 -14 -23 -15 -236 -13 -150 2 -243 7 -245
13 -1 6 10 24 25 42 15 18 45 54 67 82 l40 50 95 1 c92 0 96 -1 123 -29z
m-144 -474 l0 -254 -32 -1 c-18 -1 -38 2 -44 6 -14 9 -79 205 -78 237 0 11 -4
23 -10 27 -6 5 -5 8 3 8 6 0 12 7 12 16 0 8 -4 13 -9 10 -5 -3 -12 2 -16 12
-10 26 -37 124 -40 149 -2 12 -6 27 -10 32 -4 8 31 11 109 11 l115 0 0 -253z
m281 221 c-10 -43 -119 -405 -132 -440 -6 -15 -14 -25 -19 -22 -5 3 -9 0 -9
-6 0 -7 -15 -10 -37 -8 l-38 3 -3 253 -2 252 124 0 124 0 -8 -32z m-191 -3620
c28 -17 29 -30 35 -342 l5 -268 -22 6 c-12 4 -61 9 -109 13 -47 3 -91 9 -96
12 -5 4 -6 38 0 86 10 95 24 234 38 365 12 122 15 136 29 133 6 -2 11 1 11 6
0 13 84 5 109 -11z m-64 -649 c33 -6 77 -12 98 -14 70 -7 101 -16 86 -27 -10
-7 -6 -8 14 -4 21 5 27 3 28 -11 0 -11 3 -13 6 -6 7 18 43 -3 43 -25 0 -24
-19 -42 -38 -35 -10 4 -13 2 -8 -5 4 -7 -3 -14 -20 -18 -34 -9 -214 4 -229 16
-12 10 -144 8 -160 -2 -6 -3 -28 -9 -50 -13 -31 -5 -37 -4 -25 5 12 9 9 11
-17 6 -34 -6 -55 10 -32 25 10 6 11 9 2 9 -40 0 24 73 82 94 48 18 139 20 220
5z"/>
<path d="M3625 7683 c-34 -9 -95 -64 -115 -103 -49 -96 -34 -195 40 -272 27
-28 48 -52 48 -55 0 -2 4 -8 8 -11 4 -4 4 -1 0 6 -9 15 7 15 52 3 69 -20 170
28 216 103 29 47 27 157 -3 219 -22 46 -76 97 -110 105 -33 7 -117 11 -136 5z
m135 -68 c48 -25 73 -70 76 -138 6 -107 -47 -171 -141 -172 -89 0 -154 71
-151 165 3 78 31 122 96 152 27 12 90 8 120 -7z"/>
<path d="M7890 7410 c-41 -7 -113 -46 -146 -77 -17 -17 -35 -23 -69 -23 -28 0
-44 4 -40 10 8 13 0 13 -23 1 -14 -8 -65 -18 -119 -23 -5 0 -34 -18 -66 -40
-65 -44 -160 -153 -187 -214 -25 -57 -55 -87 -126 -122 -72 -36 -113 -81 -139
-154 -22 -63 -24 -190 -2 -248 19 -51 27 -130 24 -232 -1 -64 1 -114 5 -112 4
3 8 0 8 -7 0 -24 50 -78 82 -88 18 -5 60 -12 93 -13 47 -3 59 -7 56 -18 -12
-40 -9 -144 5 -157 8 -8 12 -18 9 -23 -3 -5 -1 -10 3 -12 11 -4 63 -81 58 -85
-2 -2 -48 -6 -102 -9 -55 -2 -125 -6 -156 -9 -32 -3 -60 0 -63 5 -4 7 -14 6
-27 -1 -11 -6 -31 -9 -44 -6 -13 2 -22 1 -19 -2 2 -4 -61 -14 -141 -22 -135
-13 -143 -13 -138 3 3 10 -4 26 -17 39 l-23 23 -10 -44 c-12 -50 -4 -46 -176
-75 -52 -8 -111 -18 -130 -21 -19 -3 -32 -3 -28 1 4 4 2 17 -4 29 -7 11 -12
23 -11 26 4 13 -39 7 -44 -6 -3 -7 -9 -11 -14 -8 -13 8 -11 -10 4 -25 9 -11 9
-13 0 -7 -7 4 -13 2 -13 -3 0 -6 5 -11 10 -11 6 0 10 -5 10 -12 0 -6 -3 -8 -7
-5 -3 4 -11 2 -18 -3 -7 -5 -25 -12 -41 -14 -16 -2 -36 -6 -44 -9 -8 -3 -51
-15 -95 -27 -44 -12 -88 -24 -97 -26 -14 -4 -18 1 -18 24 0 32 -19 55 -37 44
-6 -4 -13 -28 -15 -52 -3 -40 -5 -45 -26 -43 -13 2 -21 -1 -18 -5 3 -5 -21
-19 -52 -32 -31 -12 -86 -38 -121 -56 -36 -19 -65 -33 -66 -31 -1 1 -10 56
-19 122 -10 65 -27 143 -38 172 -10 29 -18 54 -17 55 2 2 -8 16 -21 31 -30 35
-71 57 -104 57 -28 0 -129 -51 -162 -81 -23 -22 -54 -25 -54 -6 0 9 -2 9 -9
-1 -10 -16 -83 -14 -126 4 -42 17 -626 19 -770 3 -61 -7 -123 -12 -138 -12
-16 0 -23 -3 -17 -7 7 -4 -5 -10 -27 -14 -105 -17 -183 -84 -168 -143 6 -25
101 -133 116 -133 5 0 64 -31 132 -70 138 -78 203 -136 191 -173 -20 -65 -116
-141 -265 -210 -107 -50 -324 -121 -339 -112 -5 3 -10 1 -10 -4 0 -6 -11 -11
-24 -11 -12 0 -36 -4 -52 -10 -16 -5 -40 -11 -54 -13 -14 -2 -38 -9 -53 -15
-16 -7 -36 -12 -45 -12 -9 0 -34 -5 -54 -11 -27 -7 -38 -15 -38 -29 0 -11 6
-20 13 -21 6 0 22 -2 35 -3 12 -2 22 1 22 5 0 4 17 9 38 12 20 3 60 11 87 17
28 6 57 13 65 14 25 4 99 25 197 58 50 16 97 27 104 22 7 -4 10 -3 5 4 -3 6 8
15 29 22 53 17 184 83 246 123 107 69 156 146 142 220 -7 35 -75 96 -163 147
-41 24 -77 46 -80 49 -3 4 -29 17 -58 30 -65 30 -132 91 -132 119 0 23 44 62
69 62 10 0 21 4 26 8 27 24 276 49 499 51 128 2 157 -1 153 -12 -3 -9 5 -13
27 -14 20 0 23 1 9 4 -28 5 -30 23 -4 23 28 0 52 -11 45 -21 -3 -5 -1 -9 5 -9
5 0 11 4 13 9 2 6 32 12 68 14 61 4 63 4 35 -9 -16 -7 -37 -13 -46 -14 -29 0
-158 -69 -168 -89 -20 -37 -13 -75 23 -114 18 -20 30 -40 27 -43 -3 -4 -1 -4
6 -1 6 4 31 -8 55 -26 23 -18 74 -52 113 -76 38 -25 76 -50 83 -58 11 -10 17
-11 28 -2 33 28 6 56 -148 153 -141 89 -168 130 -107 160 17 9 35 13 40 10 5
-3 9 0 9 7 0 7 3 9 7 6 3 -4 12 -2 19 3 6 6 20 13 30 15 11 2 46 14 79 26 73
26 210 33 224 10 7 -11 13 -10 32 8 26 24 35 26 42 9 3 -7 6 -3 6 9 1 34 92
95 107 72 4 -7 10 -6 18 1 28 22 79 -58 102 -161 15 -66 30 -226 23 -244 -4
-11 -8 -14 -8 -6 -1 9 -7 7 -18 -7 -22 -25 -178 -132 -192 -132 -6 0 -11 -4
-11 -10 0 -5 -4 -10 -9 -10 -4 0 -8 18 -8 41 0 28 3 37 10 30 6 -6 18 -11 26
-11 10 1 4 7 -11 16 -16 8 -28 18 -28 23 0 4 -12 6 -26 3 -26 -5 -26 -6 -22
-73 4 -56 2 -71 -12 -84 -9 -8 -22 -15 -28 -15 -6 0 -18 -10 -26 -21 -8 -12
-40 -38 -71 -59 -31 -21 -56 -41 -55 -46 1 -5 -4 -10 -11 -13 -8 -2 -10 3 -6
18 3 11 1 19 -4 15 -5 -3 -9 0 -9 5 0 13 -20 14 -37 3 -8 -5 -15 -46 -19 -113
-8 -131 -8 -120 0 -146 8 -26 15 -22 -144 -80 -177 -65 -358 -121 -410 -127
-9 -1 -20 -5 -25 -8 -15 -9 -306 -80 -340 -83 -16 -1 -37 -5 -45 -8 -8 -3 -49
-11 -90 -17 -41 -6 -86 -14 -100 -16 -140 -27 -187 -34 -198 -29 -7 2 -11 1
-8 -4 3 -5 -25 -12 -62 -16 -37 -4 -96 -12 -132 -19 -36 -7 -74 -13 -85 -14
-11 0 -65 -8 -120 -17 -55 -9 -116 -18 -135 -20 -19 -2 -93 -13 -164 -25 -70
-11 -133 -17 -139 -13 -6 3 -7 1 -3 -5 5 -8 -1 -12 -16 -12 -26 0 -194 -34
-220 -45 -22 -9 -23 -38 -3 -55 10 -8 19 -9 28 -3 29 24 312 79 527 104 47 5
96 11 110 14 49 10 265 44 330 51 36 4 65 9 110 18 14 3 90 16 170 30 80 13
152 27 160 30 8 3 31 8 50 11 19 2 49 7 65 10 27 5 33 1 63 -45 50 -77 141
-122 177 -87 24 24 18 34 -25 41 -45 7 -120 67 -120 96 0 13 11 19 42 24 47 8
55 2 86 -56 10 -21 21 -36 23 -34 2 2 15 -10 28 -27 45 -59 158 -118 225 -116
43 1 87 19 124 51 28 23 32 33 32 75 0 58 -18 87 -91 153 -30 27 -51 51 -47
55 3 4 21 11 40 15 46 12 188 60 215 72 11 6 27 7 34 3 8 -6 10 -4 4 5 -6 10
-3 12 13 8 12 -4 20 -2 16 3 -5 9 42 36 50 28 3 -2 1 -32 -3 -65 -8 -68 3
-104 30 -104 22 0 30 36 32 131 1 49 5 69 14 70 30 3 34 5 41 15 9 13 188 111
179 98 -5 -9 7 -93 17 -121 3 -6 13 -9 24 -7 16 5 18 14 15 84 l-4 79 43 31
c128 92 184 130 192 130 5 0 15 8 23 18 12 15 13 10 11 -40 -2 -31 1 -56 6
-55 4 1 9 -9 11 -23 2 -21 -10 -34 -91 -90 -52 -36 -108 -75 -125 -87 -18 -13
-36 -20 -42 -16 -5 3 -7 2 -4 -4 4 -6 -39 -46 -94 -89 -56 -43 -120 -96 -143
-116 -22 -21 -44 -38 -48 -38 -5 0 -52 -36 -105 -80 -54 -44 -116 -95 -137
-113 -89 -72 -139 -106 -149 -100 -6 3 -7 1 -3 -5 3 -5 -13 -25 -36 -44 -24
-18 -50 -38 -58 -45 -110 -88 -144 -112 -153 -106 -5 3 -7 2 -4 -4 3 -5 -46
-53 -111 -106 -64 -53 -146 -123 -182 -156 -36 -33 -68 -61 -72 -61 -4 0 -98
-91 -210 -202 -306 -305 -482 -523 -771 -953 -45 -66 -83 -122 -87 -125 -3 -3
-11 -17 -17 -32 -7 -16 -17 -28 -23 -28 -6 0 -9 -4 -6 -8 3 -5 -8 -28 -25 -53
-32 -48 -37 -80 -15 -99 12 -9 19 -4 40 29 14 22 26 44 26 48 0 17 52 83 60
78 6 -3 7 0 5 7 -6 14 23 59 180 288 73 106 153 218 165 230 3 3 38 49 78 102
41 53 77 98 80 100 4 2 27 30 52 63 123 165 790 788 822 769 6 -4 8 -2 4 4 -5
9 237 210 424 351 25 19 47 37 50 40 3 4 34 29 70 56 36 28 114 91 175 140
227 186 596 454 658 477 15 5 27 15 27 21 0 7 5 5 10 -3 9 -13 10 -13 10 0 0
9 32 33 78 57 42 22 91 48 107 57 67 35 118 55 128 49 6 -3 7 -1 3 5 -9 15 6
16 21 1 8 -8 13 -7 18 2 5 8 4 10 -3 5 -7 -4 -12 -3 -12 1 0 12 250 107 250
95 0 -4 4 -2 8 4 8 12 214 79 307 100 33 7 110 27 170 44 236 65 279 74 283
62 2 -7 8 -12 13 -12 4 0 6 6 3 14 -4 9 5 15 28 18 18 3 94 17 168 31 74 15
151 29 171 32 32 5 36 9 32 28 -4 18 -3 19 6 7 9 -13 11 -12 11 5 0 15 -7 20
-30 21 -17 1 -30 -2 -30 -6 0 -4 -28 -10 -62 -14 -35 -4 -116 -18 -180 -32
-65 -14 -122 -22 -128 -19 -5 3 -10 1 -10 -6 0 -7 -3 -10 -6 -7 -3 4 -19 2
-35 -2 -28 -8 -29 -7 -29 25 0 39 6 42 95 50 52 5 138 15 170 20 6 1 22 3 37
3 26 2 58 25 58 43 0 13 -74 11 -197 -6 -59 -8 -121 -17 -138 -19 -29 -4 -30
-2 -29 33 l1 36 59 8 c32 4 189 11 348 15 280 7 289 8 296 28 10 25 24 23
-191 23 l-166 0 4 23 c3 14 -4 33 -16 47 -11 13 -18 29 -14 35 3 6 2 8 -2 3
-15 -13 -45 47 -45 90 0 49 27 124 44 122 11 -2 30 4 81 26 168 74 170 74 274
-20 18 -16 36 -30 39 -29 12 1 82 -69 102 -100 28 -47 40 -186 41 -476 l0
-261 29 -32 28 -31 73 54 c102 75 112 81 146 71 68 -20 217 -123 210 -145 -6
-16 84 -57 98 -46 7 6 15 7 19 3 4 -4 4 0 0 10 -6 17 -7 17 -21 0 -14 -17 -14
-17 -9 -1 17 56 -226 239 -316 238 -34 -1 -106 -36 -154 -75 l-42 -35 -7 30
c-4 16 -4 42 -1 58 13 59 5 490 -10 513 -3 5 -3 23 1 39 l6 30 32 -23 c18 -12
34 -24 37 -27 3 -3 10 -6 15 -7 6 -2 54 -18 108 -37 171 -58 310 -46 394 33
23 22 45 36 49 33 4 -4 4 -2 1 4 -3 5 3 23 14 40 10 16 19 43 20 59 0 17 4 38
8 48 4 11 2 56 -4 102 l-12 84 43 40 c64 60 87 118 88 221 0 47 -3 98 -7 113
-6 22 -5 27 5 22 7 -4 6 -1 -3 7 -9 7 -23 27 -32 45 -24 46 -110 136 -152 158
-19 11 -35 23 -35 27 0 4 -6 5 -12 3 -15 -6 -83 33 -74 42 3 3 2 11 -4 17 -5
7 -11 40 -14 75 -5 66 -40 129 -76 138 -38 10 -104 49 -114 68 -20 36 -83 130
-102 151 -22 24 -79 56 -109 61 -11 2 -29 5 -40 7 -11 2 -36 0 -55 -4z m160
-105 c23 -22 60 -73 83 -112 37 -63 48 -75 92 -94 43 -19 47 -23 30 -30 -18
-7 -18 -8 -2 -8 10 -1 16 -5 13 -10 -3 -4 6 -7 19 -6 32 4 55 -40 55 -104 0
-70 27 -104 110 -143 46 -21 69 -37 65 -46 -3 -7 0 -10 5 -7 13 8 60 -24 60
-40 0 -7 4 -15 8 -17 4 -1 18 -18 31 -36 38 -55 61 -252 29 -252 -6 0 -7 -7
-4 -17 5 -11 -13 -35 -59 -80 -36 -36 -65 -69 -65 -74 0 -6 -4 -8 -8 -5 -5 3
-9 -1 -9 -9 0 -8 5 -13 10 -12 29 5 42 -174 17 -237 -14 -38 -64 -86 -114
-110 -43 -21 -61 -23 -133 -20 -48 2 -97 11 -113 19 -17 9 -33 15 -37 15 -20
0 -54 16 -134 63 -68 39 -85 54 -81 69 2 10 8 18 12 18 4 0 18 10 32 23 14 12
42 36 64 52 21 17 64 51 96 78 31 26 62 47 68 47 6 0 9 4 6 9 -4 5 10 19 30
32 20 12 46 31 58 41 11 11 42 38 68 61 44 39 46 43 33 61 -13 18 -16 18 -32
4 -23 -19 -54 -32 -73 -29 -12 1 -12 0 -2 -7 9 -6 -3 -20 -43 -50 -39 -29 -52
-36 -45 -21 12 22 9 76 -10 179 -15 76 -24 90 -57 90 -21 0 -24 -4 -20 -29 3
-17 8 -35 12 -40 12 -20 17 -56 20 -153 3 -84 1 -99 -16 -119 -10 -12 -19 -18
-19 -13 0 5 -5 1 -11 -8 -10 -19 -158 -132 -172 -133 -4 0 -12 -6 -16 -14 -6
-9 -11 -1 -16 28 -4 22 -7 44 -7 48 0 5 -4 15 -9 24 -5 10 -4 21 4 28 9 10 8
11 -5 6 -15 -6 -18 -2 -18 25 0 20 -4 29 -11 25 -7 -5 -9 4 -7 27 3 35 50 102
62 90 4 -3 4 1 1 10 -4 10 2 25 14 37 12 12 20 22 20 24 -5 8 14 47 23 47 6 0
8 3 5 7 -4 3 -2 12 4 20 36 43 11 376 -31 415 -11 10 -20 15 -21 11 0 -4 -2
-17 -5 -28 -2 -11 2 -74 8 -140 6 -66 11 -140 10 -164 -2 -42 -29 -116 -51
-143 -6 -7 -24 -30 -40 -51 -30 -38 -42 -37 -48 7 -2 10 -12 46 -24 80 -11 33
-22 77 -25 96 -2 19 -9 69 -15 110 -23 171 -29 205 -39 208 -5 2 -8 7 -6 10 2
4 -7 7 -20 7 -23 0 -32 -19 -24 -50 1 -5 4 -19 6 -30 1 -11 10 -60 19 -109 9
-49 14 -95 11 -103 -3 -8 -2 -12 2 -9 5 3 9 -13 10 -35 1 -22 7 -49 13 -60 6
-11 11 -42 12 -69 1 -26 5 -46 8 -44 8 5 29 -67 23 -78 -3 -4 0 -8 5 -8 6 0
11 -5 11 -12 0 -6 -3 -9 -6 -6 -3 3 -16 -5 -30 -19 -14 -14 -31 -22 -39 -19
-8 3 -14 0 -12 -6 4 -19 -60 -33 -79 -18 -31 27 -111 211 -99 230 3 5 1 11 -4
14 -5 4 -10 19 -11 34 -2 71 -6 87 -20 90 -18 3 -57 -67 -43 -77 4 -3 9 -13
10 -21 1 -8 7 -35 14 -60 6 -25 12 -52 13 -60 1 -8 7 -25 14 -36 6 -12 8 -24
5 -28 -3 -3 -1 -6 5 -6 7 0 12 -6 12 -13 0 -18 24 -67 33 -67 4 0 7 -11 7 -23
0 -25 -3 -26 -127 -78 -24 -9 -43 -15 -43 -14 0 2 -22 -3 -49 -11 -48 -14
-189 -13 -212 2 -27 16 -39 76 -39 191 1 65 -4 133 -9 152 -6 19 -8 37 -6 42
3 4 0 9 -6 11 -17 6 -23 129 -10 185 7 27 23 61 36 75 13 14 22 28 19 31 -6 6
33 30 76 47 50 19 100 58 113 89 6 14 14 28 17 31 3 3 13 22 24 42 29 58 103
135 166 173 69 42 141 55 199 35 33 -10 43 -10 72 5 19 10 36 21 39 24 3 4 25
21 50 40 42 30 49 32 112 29 63 -3 70 -6 108 -43z m-1094 -1622 c-3 -3 0 -17
5 -31 13 -34 3 -42 -62 -48 -30 -2 -83 -11 -118 -19 -36 -7 -81 -15 -100 -17
-20 -2 -39 -7 -43 -13 -4 -5 -8 14 -8 43 0 60 7 66 77 67 22 0 39 3 37 7 -3 4
11 7 31 6 19 -1 37 1 40 4 3 2 36 5 75 5 39 0 69 -2 66 -4z m-376 -82 c0 -48
-1 -49 -42 -67 -24 -9 -54 -18 -68 -18 -14 -1 -29 -4 -35 -7 -9 -6 -65 -20
-80 -21 -2 0 -25 -6 -50 -13 -41 -13 -45 -13 -46 3 0 9 -2 38 -5 65 -5 48 -2
52 39 48 9 -1 17 2 17 6 0 5 10 10 23 10 34 2 85 11 162 27 39 8 73 15 78 15
4 1 7 -21 7 -48z m-386 -53 c3 -13 7 -41 9 -64 l4 -40 -139 -47 c-76 -27 -143
-45 -149 -42 -5 4 -8 1 -7 -6 2 -6 -2 -13 -9 -16 -6 -2 -12 4 -12 14 1 10 -4
45 -10 78 -6 33 -11 63 -11 66 0 11 126 40 153 35 15 -3 25 -1 22 3 -6 10 80
40 117 40 21 1 29 -5 32 -21z m769 -18 c-3 -11 0 -20 6 -20 8 0 8 -4 -1 -14
-7 -8 -16 -12 -20 -10 -4 2 -10 -1 -13 -7 -4 -5 -13 -8 -21 -5 -8 3 -22 1 -32
-4 -25 -14 -134 -40 -144 -34 -4 3 -8 0 -8 -6 0 -7 -7 -10 -15 -7 -8 4 -17 2
-20 -2 -6 -11 -55 -20 -55 -10 0 4 6 10 13 13 9 3 8 7 -4 15 -9 6 -15 20 -14
33 1 19 11 25 51 35 27 7 70 15 96 17 26 2 51 7 57 10 5 4 12 2 16 -4 9 -14
26 -13 23 2 -2 8 13 15 37 18 49 7 54 5 48 -20z m-373 -65 c0 -6 -5 -16 -12
-23 -9 -9 -9 -12 0 -12 25 0 -19 -49 -51 -56 -40 -10 -39 -9 -57 -17 -39 -16
-170 -57 -184 -57 -10 0 -13 6 -10 15 4 10 14 14 28 10 19 -6 20 -5 4 8 -14
11 -15 17 -5 28 7 7 2 6 -9 -4 -21 -17 -22 -17 -27 10 -6 31 0 41 28 46 11 2
27 7 35 10 30 13 112 27 121 22 5 -4 9 -2 9 3 0 11 61 28 103 28 15 1 27 -4
27 -11z m-766 -40 c3 -22 8 -57 12 -77 l6 -38 -74 -34 c-40 -18 -104 -52 -143
-75 -38 -22 -73 -41 -76 -41 -8 0 -20 72 -21 127 0 52 8 68 28 52 12 -10 13
-9 8 6 -5 13 -4 16 4 11 7 -4 12 -2 12 3 0 10 20 20 150 76 53 23 83 34 87 31
1 -1 4 -19 7 -41z m388 -48 c-7 -8 -7 -18 -2 -27 5 -8 6 -19 2 -25 -10 -16
-11 -35 -2 -35 5 0 11 6 13 13 3 7 6 4 6 -6 1 -11 -8 -21 -19 -24 -11 -3 -20
-9 -20 -13 0 -4 -19 -13 -42 -20 -24 -8 -84 -33 -135 -56 -102 -47 -98 -48
-109 35 -6 44 -4 51 17 64 35 23 84 34 74 17 -5 -9 -4 -11 4 -6 6 4 9 11 6 15
-4 8 74 38 88 33 4 -1 7 3 7 9 0 6 9 8 21 4 15 -5 19 -4 15 4 -5 7 2 11 16 11
13 0 30 5 38 10 22 14 34 12 22 -3z m-729 -166 c9 -79 4 -107 -14 -95 -7 4 -9
3 -5 -4 3 -6 -27 -33 -71 -64 -121 -84 -137 -93 -131 -76 4 8 1 15 -6 15 -7 0
-12 -9 -12 -20 1 -11 -4 -22 -11 -24 -15 -5 -17 184 -2 193 5 3 9 -1 9 -8 0
-7 6 -2 13 11 15 29 186 151 207 148 11 -2 17 -22 23 -76z m372 -13 c3 -29 8
-60 11 -68 2 -10 -15 -25 -54 -44 -31 -17 -89 -49 -129 -73 -39 -24 -76 -43
-82 -43 -6 0 -11 -4 -11 -10 0 -5 -6 -10 -14 -10 -16 0 -34 128 -19 139 4 3
43 30 87 59 73 48 95 58 121 52 6 -1 6 2 2 6 -8 8 48 43 70 44 6 0 14 -23 18
-52z m-689 -161 c1 -29 -4 -55 -10 -59 -8 -6 -7 -8 2 -8 7 0 12 -14 12 -34 0
-27 -6 -38 -27 -49 -60 -31 -123 -67 -146 -82 -31 -20 -42 -7 -50 56 l-6 46
80 68 c62 52 86 66 104 62 14 -2 22 0 19 4 -4 7 12 49 19 49 1 0 3 -24 3 -53z
m-705 -519 c1 -13 1 -27 0 -31 -1 -5 3 -6 7 -3 5 3 21 -5 36 -19 15 -14 35
-29 46 -35 43 -23 65 -110 27 -110 -10 0 -16 -4 -13 -9 17 -28 -63 -42 -129
-22 -77 22 -185 125 -189 180 -1 20 82 45 101 30 10 -9 13 -8 13 4 0 24 32 31
48 10 13 -17 14 -16 7 5 -5 19 -3 22 19 22 20 0 26 -5 27 -22z"/>
<path d="M4265 6907 c-40 -19 -233 -141 -350 -220 -11 -8 -37 -20 -57 -28 -21
-7 -38 -16 -38 -19 0 -4 -11 -12 -24 -18 -19 -9 -37 -4 -102 25 -44 19 -94 39
-112 44 -18 6 -30 14 -27 19 3 6 0 7 -8 5 -7 -3 -45 8 -83 25 -156 71 -353
143 -415 153 -65 10 -66 10 -145 -30 -44 -22 -129 -69 -189 -105 -198 -117
-267 -151 -275 -138 -4 7 -8 1 -8 -16 0 -16 5 -34 10 -41 5 -7 6 -18 2 -25 -4
-7 1 -6 12 3 19 16 97 63 184 112 25 13 72 41 105 60 33 20 101 57 152 83 83
42 97 46 145 42 48 -4 286 -90 298 -108 3 -4 18 -10 33 -14 16 -4 56 -20 90
-35 34 -16 114 -50 177 -76 63 -27 122 -51 130 -55 8 -4 39 -18 68 -31 28 -12
52 -25 52 -29 0 -3 8 -6 18 -7 22 -1 261 -106 257 -113 -2 -3 7 -6 18 -6 22
-2 193 -69 212 -84 6 -4 31 -15 57 -25 26 -10 45 -21 42 -26 -3 -5 1 -6 9 -4
7 3 47 -8 88 -25 41 -18 82 -34 92 -37 9 -3 17 -10 17 -15 0 -5 4 -7 9 -4 4 3
39 -10 77 -29 38 -19 75 -33 82 -30 6 2 12 -3 13 -13 0 -9 3 -12 5 -5 4 8 19
7 57 -6 86 -30 236 -41 534 -38 223 2 279 -1 271 -10 -6 -7 -15 -10 -20 -7 -6
4 -5 -3 2 -15 15 -29 50 -41 121 -41 32 0 59 -4 59 -9 0 -5 9 -7 19 -4 24 6
618 -24 632 -32 3 -2 68 -7 145 -10 79 -4 150 -12 166 -20 17 -8 30 -9 36 -3
6 6 30 5 67 -3 53 -12 59 -11 71 6 33 45 18 53 -117 60 -52 3 -121 8 -154 11
-65 7 -94 9 -260 18 -60 3 -135 9 -165 12 -82 10 -101 11 -280 20 -91 5 -172
8 -180 6 -29 -4 -81 9 -74 19 3 6 12 8 20 5 8 -3 13 0 11 7 -1 7 4 11 11 9 6
-1 12 2 12 7 0 5 21 17 48 26 26 10 54 20 62 23 53 19 110 26 110 14 0 -21
148 -1 190 27 91 59 161 70 200 31 11 -11 23 -20 28 -20 4 0 25 -15 47 -34 23
-18 60 -43 83 -55 26 -13 40 -26 36 -33 -5 -7 -2 -9 9 -5 9 3 19 2 22 -3 4 -6
15 -10 26 -10 10 0 19 -4 19 -10 0 -5 9 -10 20 -10 14 0 20 7 20 24 0 13 3 32
6 40 4 11 2 15 -8 11 -7 -3 -27 8 -43 25 -16 16 -36 30 -44 30 -14 0 -14 -1
-1 -10 9 -6 10 -10 3 -10 -16 0 -110 55 -147 87 -56 47 -103 64 -166 61 -33
-1 -56 -7 -53 -12 4 -5 -1 -7 -11 -3 -9 4 -15 3 -12 -1 2 -4 -18 -20 -45 -36
-58 -32 -131 -42 -206 -28 -29 5 -53 5 -53 1 0 -5 -8 -9 -17 -9 -19 0 -106
-31 -163 -58 -31 -15 -81 -17 -415 -17 l-380 0 -115 42 c-110 39 -287 111
-377 153 -24 11 -48 20 -53 20 -6 0 -9 4 -6 8 2 4 -6 9 -19 10 -13 1 -106 37
-207 81 -101 43 -212 91 -248 107 -36 15 -77 36 -92 47 -16 10 -28 15 -28 11
0 -4 -9 1 -20 11 l-21 19 23 13 c13 7 31 12 41 13 9 0 17 5 17 10 0 6 6 10 14
10 8 0 17 6 19 13 4 10 6 10 6 0 1 -18 21 -16 21 2 0 18 87 78 100 70 6 -4 9
-2 8 4 -4 14 104 83 119 77 7 -3 12 0 10 6 -4 21 81 60 142 65 43 4 75 0 123
-15 94 -31 298 -141 298 -161 0 -5 8 -8 18 -7 12 1 16 -5 14 -19 -2 -15 -1
-17 6 -6 11 15 5 18 117 -53 44 -28 97 -60 117 -71 20 -10 34 -23 31 -28 -3
-6 -2 -7 4 -4 13 8 84 -14 77 -24 -5 -9 250 -4 264 5 14 9 194 -11 261 -29 56
-15 227 -70 311 -100 25 -9 48 -22 52 -28 4 -7 8 -9 8 -5 0 8 67 -16 148 -53
24 -11 50 -18 57 -15 19 7 8 42 -19 59 -31 20 -355 141 -461 171 -49 15 -106
32 -125 39 -24 8 -109 12 -265 13 l-230 0 -55 30 c-63 35 -176 104 -235 144
-67 44 -283 161 -338 182 -32 12 -87 22 -142 24 -80 5 -95 3 -140 -19z"/>
<path d="M2743 6348 c-21 -18 -42 -39 -46 -46 -5 -7 -13 -9 -19 -6 -7 4 -8 2
-4 -4 7 -11 -11 -51 -28 -64 -5 -3 -27 0 -49 8 -60 21 -82 17 -121 -21 -20
-19 -36 -37 -36 -40 0 -3 10 -16 21 -28 12 -12 19 -16 15 -9 -4 7 -1 12 8 12
9 0 16 4 16 10 0 15 40 32 58 24 9 -4 19 -8 22 -9 10 -4 46 -17 66 -25 30 -12
61 17 70 65 5 27 19 51 45 76 37 35 39 36 90 28 29 -5 56 -14 61 -21 4 -7 8
-9 8 -4 0 6 27 -17 59 -50 33 -32 76 -68 96 -80 35 -19 41 -19 92 -6 59 15
128 9 117 -10 -5 -7 -2 -8 5 -3 8 4 27 -5 49 -23 83 -66 111 -73 240 -66 136
7 181 17 231 49 47 31 114 42 149 24 41 -20 62 -40 55 -52 -4 -6 -1 -7 6 -3 7
5 20 1 29 -7 20 -17 121 -36 213 -39 37 -2 65 -6 62 -10 -7 -12 6 -9 21 4 17
16 8 58 -13 60 -20 2 -67 5 -144 8 -44 2 -57 6 -53 16 3 8 -1 14 -10 14 -8 0
-12 -4 -9 -10 11 -17 -4 -11 -60 26 -30 20 -53 40 -51 43 5 8 -14 10 -95 12
-41 1 -68 -5 -100 -22 -24 -13 -47 -22 -51 -21 -5 1 -8 -3 -8 -9 0 -6 -9 -9
-20 -6 -11 3 -18 1 -14 -4 3 -5 -10 -9 -28 -10 -18 0 -76 -2 -128 -4 -103 -4
-120 2 -225 77 -37 27 -44 29 -136 27 -105 -2 -118 3 -166 54 -18 19 -57 51
-87 71 -46 30 -63 36 -110 36 -48 0 -60 -4 -93 -32z"/>
<path d="M4340 5928 c0 -3 -57 -6 -128 -6 -70 -1 -134 -3 -142 -6 -32 -11
-349 -12 -342 -2 3 7 0 6 -9 0 -14 -12 -105 -20 -313 -29 -59 -3 -111 -7 -115
-9 -5 -4 -168 -18 -366 -32 -27 -2 -102 -10 -165 -18 -301 -40 -351 -51 -349
-79 0 -8 2 -8 6 1 4 10 8 10 17 -3 10 -14 26 -13 166 5 138 18 364 39 725 70
130 10 272 19 430 25 55 2 186 9 290 14 105 6 413 10 686 11 529 0 529 0 494
47 -8 10 -15 14 -15 10 0 -4 -9 -3 -21 3 -14 8 -24 8 -32 1 -7 -5 -37 -7 -67
-4 -80 7 -750 9 -750 1z"/>
<path d="M8095 5693 c-11 -3 -41 -20 -66 -39 -36 -26 -50 -45 -63 -83 -9 -28
-16 -52 -16 -55 0 -16 83 40 91 61 5 15 14 21 21 17 6 -4 8 -3 4 4 -11 19 36
42 84 41 34 0 40 -2 25 -9 -19 -8 -19 -9 3 -9 12 -1 22 3 22 8 0 5 8 8 18 6 9
-1 16 -8 14 -16 -2 -10 0 -10 12 0 11 10 22 9 53 -5 21 -9 41 -18 46 -19 4 -2
9 -4 12 -5 3 -1 9 -3 13 -4 4 0 38 -16 75 -35 68 -34 153 -113 142 -131 -3 -6
-1 -10 5 -10 7 0 10 -6 8 -12 -6 -17 13 -35 35 -35 17 0 21 13 17 51 -3 30
-45 90 -87 125 -48 41 -245 136 -298 145 -61 10 -148 15 -170 9z"/>
<path d="M3280 5546 c-99 -23 -252 -36 -415 -36 -164 0 -291 -16 -359 -44 -37
-15 -39 -16 -55 -16 -5 0 -11 -9 -14 -21 -4 -14 -10 -18 -19 -14 -8 5 -9 5 -3
-2 16 -14 65 -34 65 -25 0 11 114 49 165 56 22 3 123 8 225 11 249 7 315 14
434 41 62 14 82 30 64 51 -12 15 -16 15 -88 -1z"/>
<path d="M7665 5463 c-22 -8 -48 -16 -58 -18 -22 -5 -111 -47 -152 -72 -31
-19 -82 -68 -152 -145 -24 -26 -51 -49 -60 -52 -10 -2 -52 -14 -93 -26 -41
-12 -79 -26 -84 -31 -14 -13 -28 -11 -21 4 4 6 0 4 -8 -5 -16 -21 -49 -24 -41
-5 2 7 -9 20 -25 30 -32 19 -45 22 -36 8 3 -5 1 -12 -4 -16 -7 -4 -6 -14 0
-29 8 -17 17 -22 33 -18 11 2 -10 -16 -47 -41 -196 -134 -363 -326 -441 -510
-15 -37 -32 -64 -37 -61 -5 3 -6 -2 -3 -10 3 -9 -5 -48 -19 -88 -76 -215 -69
-601 14 -874 29 -96 120 -296 192 -419 31 -54 152 -238 198 -301 21 -29 35
-54 32 -58 -4 -3 -2 -6 3 -6 6 0 44 -42 84 -92 41 -51 83 -102 92 -112 10 -11
18 -23 18 -27 0 -4 15 -22 33 -41 17 -19 48 -54 67 -78 19 -23 47 -57 62 -74
15 -17 30 -39 34 -48 3 -10 9 -18 13 -18 5 0 21 -19 37 -42 43 -64 60 -72 81
-39 12 19 7 29 -59 107 -16 17 -28 34 -28 37 0 2 -11 17 -25 33 -106 123 -190
223 -204 244 -9 13 -27 36 -40 50 -80 85 -376 512 -371 536 1 4 -2 10 -7 13
-30 22 -164 332 -166 387 -1 18 -5 30 -9 27 -5 -2 -8 0 -8 5 0 4 -9 51 -20
103 -47 214 -25 554 46 724 8 19 12 35 10 35 -8 0 56 125 97 190 109 171 269
326 412 398 36 18 182 67 224 76 43 8 91 39 117 73 16 21 54 62 84 90 71 68
208 143 184 101 -4 -7 -4 -10 1 -6 4 4 15 2 24 -5 14 -11 14 -10 2 6 -18 23
-11 28 42 34 35 4 47 11 56 30 9 20 8 25 -7 30 -9 3 -19 7 -22 8 -3 2 -23 -4
-45 -12z"/>
<path d="M3625 5324 c-51 -42 -106 -52 -240 -45 -66 3 -192 6 -280 5 -182 -1
-241 -13 -239 -52 0 -12 -4 -22 -9 -22 -6 0 -8 -2 -6 -5 3 -2 28 2 57 10 29 7
56 13 60 13 4 1 44 4 89 7 48 4 147 2 235 -6 84 -7 172 -12 196 -11 84 4 212
72 212 113 0 27 -38 24 -75 -7z"/>
<path d="M7414 5076 c-56 -26 -120 -101 -130 -155 -6 -30 -9 -32 -48 -30 -22
1 -54 -4 -70 -10 -16 -6 -31 -10 -33 -7 -4 4 -21 -9 -95 -73 -21 -19 -61 -68
-89 -110 l-49 -75 25 -14 c14 -7 23 -17 20 -22 -4 -6 -1 -10 5 -10 7 0 9 8 5
21 -5 16 -4 19 5 14 9 -5 11 -4 6 3 -9 15 38 83 95 140 49 48 131 92 168 91
l26 -1 -28 -10 c-34 -12 -26 -28 15 -28 24 0 29 3 24 18 -4 11 0 8 12 -7 14
-18 24 -22 41 -16 19 6 22 12 17 37 -3 18 -2 27 4 23 6 -3 10 -1 10 4 0 6 -4
11 -9 11 -12 0 3 66 21 88 50 64 82 82 144 82 39 0 136 -28 145 -43 3 -5 10
-9 15 -10 5 -1 8 -5 7 -9 -2 -4 4 -5 12 -2 9 4 22 1 30 -6 8 -7 15 -10 15 -7
0 3 20 0 44 -7 42 -13 45 -12 50 7 3 11 3 24 0 29 -6 10 -47 27 -78 34 -11 2
-59 19 -107 39 -102 41 -152 44 -225 11z"/>
<path d="M2935 5039 c-22 -5 -93 -8 -158 -7 -81 1 -122 -3 -130 -11 -21 -22
20 -41 92 -43 170 -5 278 11 307 44 11 12 14 18 7 15 -6 -4 -14 -3 -18 3 -7
12 -43 11 -100 -1z"/>
<path d="M8035 4790 c-42 -25 -80 -36 -70 -19 6 9 3 11 -8 6 -10 -4 -20 0 -26
11 -6 9 -11 12 -11 6 0 -7 -25 -13 -63 -16 -108 -7 -168 -45 -303 -191 -31
-34 -77 -62 -197 -122 -90 -44 -164 -75 -173 -71 -8 3 -13 2 -10 -3 3 -5 -1
-14 -9 -21 -18 -15 -19 -39 -2 -46 14 -5 287 123 349 163 30 20 40 23 57 13
12 -6 21 -8 21 -5 0 3 10 1 21 -6 13 -6 19 -7 15 -1 -3 6 0 13 6 16 7 2 0 4
-17 4 -57 -2 -60 0 -40 22 18 20 41 18 29 -3 -5 -9 -4 -9 6 0 10 9 18 5 36
-17 13 -15 24 -32 24 -36 1 -18 51 -45 70 -39 27 9 25 36 -5 59 -14 10 -25 25
-25 32 0 8 -4 14 -9 14 -5 0 -12 9 -16 19 -3 10 -15 21 -25 24 -11 3 -20 10
-20 15 0 15 98 91 139 108 44 18 129 18 175 -1 36 -15 38 -15 81 15 45 31 71
39 59 18 -4 -7 -4 -10 1 -6 4 4 14 3 21 -3 7 -6 18 -7 25 -3 8 4 4 11 -12 21
l-24 14 25 -7 c67 -18 130 -46 124 -56 -5 -7 -2 -8 5 -3 8 4 45 -15 98 -51
121 -84 124 -86 139 -67 9 13 8 21 -7 36 -10 11 -16 25 -12 30 3 6 1 7 -5 3
-7 -4 -12 -3 -12 2 0 5 -8 12 -17 16 -10 3 -31 14 -48 25 -186 117 -287 145
-360 101z"/>
<path d="M7656 4243 c-33 -33 -65 -177 -73 -327 -3 -66 -9 -114 -11 -106 -3 8
-13 21 -24 28 -10 7 -18 20 -18 28 0 8 -4 14 -8 14 -15 0 -93 103 -88 116 3 8
0 11 -8 8 -8 -3 -19 7 -27 25 -14 32 -26 40 -71 48 -17 2 -28 0 -28 -7 0 -6 4
-9 9 -6 5 3 11 -5 13 -18 4 -20 1 -23 -18 -21 -13 1 -21 -2 -18 -7 3 -5 13 -7
21 -4 16 6 84 -60 143 -139 21 -27 49 -63 63 -80 17 -19 22 -32 15 -36 -6 -4
-2 -9 11 -14 20 -6 25 -16 22 -44 -2 -8 3 -10 11 -6 10 6 10 5 2 -4 -9 -10
-24 -10 -65 -2 -124 24 -217 32 -337 30 -127 -3 -173 -15 -179 -46 -3 -16 55
-35 60 -20 6 20 272 15 408 -7 64 -10 127 -16 141 -13 24 6 24 9 25 110 3 208
36 437 56 385 3 -8 1 -21 -3 -29 -5 -8 -5 -16 0 -19 11 -7 35 -129 45 -228 4
-38 2 -82 -5 -112 -9 -39 -9 -54 0 -65 16 -19 44 -4 64 33 9 15 31 45 51 67
20 22 30 30 23 18 -7 -12 -9 -25 -6 -29 12 -11 28 7 29 34 2 42 18 -43 18 -99
1 -26 7 -59 15 -73 l14 -27 18 31 c11 18 42 45 69 61 73 42 205 106 205 100
-1 -11 -25 -38 -45 -49 -13 -7 -15 -11 -6 -12 11 0 10 -4 -5 -16 -10 -8 -13
-12 -6 -9 10 6 11 3 3 -11 -12 -24 -25 -56 -26 -69 0 -5 -3 -14 -6 -20 -6 -10
16 -73 23 -67 1 2 17 -2 33 -8 26 -10 81 -26 160 -47 11 -3 48 -11 83 -18 61
-12 62 -12 62 9 0 25 -16 53 -25 44 -4 -3 -21 -2 -38 4 -18 5 -54 15 -82 23
-27 7 -63 19 -80 26 -34 14 -40 16 -56 18 -25 3 0 80 50 156 50 77 63 119 39
128 -15 5 -103 -27 -211 -77 -42 -20 -86 -36 -97 -36 -11 0 -20 -7 -20 -16 0
-8 -5 -12 -10 -9 -6 3 -7 17 -4 31 5 21 -20 114 -31 114 -2 0 -15 -4 -29 -10
-17 -6 -26 -6 -26 0 0 6 9 10 20 10 14 0 20 6 18 16 -2 10 26 40 70 77 60 50
75 58 84 46 8 -11 9 -11 4 4 -3 11 2 22 14 29 11 7 20 16 20 21 0 4 -4 5 -10
2 -9 -6 -14 8 -11 28 2 15 -18 5 -85 -42 -85 -60 -173 -149 -196 -199 l-18
-37 2 30 c1 24 -23 175 -47 295 -15 77 -52 120 -79 93z"/>
<path d="M3487 4154 c-16 -5 -15 -8 8 -30 14 -13 44 -27 66 -30 22 -4 42 -11
45 -15 3 -5 9 -7 14 -4 24 15 143 -70 180 -129 21 -34 28 -82 10 -71 -6 3 -7
-1 -4 -9 4 -10 -1 -18 -12 -23 -11 -3 -21 -9 -24 -13 -14 -18 -80 -39 -111
-35 -24 3 -30 2 -19 -5 10 -6 11 -10 3 -10 -7 0 -12 -11 -11 -24 1 -14 6 -22
10 -20 4 3 8 1 8 -5 0 -7 8 -7 25 -1 14 5 37 12 52 14 14 3 30 10 33 17 4 6
20 9 36 7 16 -3 23 -3 17 -1 -20 7 -15 18 11 33 56 29 60 132 8 197 -45 57
-80 85 -157 122 -68 33 -144 47 -188 35z"/>
<path d="M3261 4002 c-30 -9 -128 -92 -134 -114 -3 -11 -20 -20 -45 -24 -33
-5 -44 -13 -56 -38 -14 -30 -14 -31 7 -37 12 -3 28 1 35 8 7 7 19 13 27 13 7
0 22 3 32 6 15 5 15 4 3 -5 -13 -9 -13 -11 3 -11 9 0 17 5 17 11 0 5 13 2 30
-7 21 -13 26 -20 17 -26 -18 -11 1 -10 24 2 27 15 24 45 -7 68 -26 18 -26 20
-10 43 25 39 87 69 141 69 43 0 46 -2 34 -17 -13 -15 -12 -15 9 -4 24 13 62 0
62 -21 0 -6 3 -8 7 -5 8 9 63 -42 63 -59 0 -6 7 -17 15 -24 19 -16 15 -51 -7
-74 -45 -44 -78 -47 -636 -61 -123 -4 -230 -9 -238 -12 -18 -7 -18 -32 1 -39
8 -4 13 -9 10 -13 -2 -4 2 -8 10 -8 8 0 15 3 15 7 0 4 6 7 13 7 6 0 149 4 317
8 168 5 339 9 382 9 42 1 74 4 72 7 -2 4 11 9 28 13 41 8 98 46 98 66 1 8 7
31 14 52 11 32 11 36 -2 30 -10 -3 -13 -1 -8 6 4 7 2 12 -3 12 -6 0 -11 5 -11
11 0 31 -112 134 -160 148 -29 7 -145 10 -169 3z"/>
<path d="M7566 3569 c-5 -11 -25 -19 -57 -23 -27 -4 -74 -16 -104 -28 -49 -18
-55 -24 -53 -47 l2 -27 80 24 c45 13 97 25 117 26 20 2 41 6 45 9 21 12 188
16 284 7 108 -10 117 -12 160 -23 14 -3 50 -9 81 -11 46 -4 60 -2 73 13 16 17
15 19 -11 29 -15 5 -37 14 -48 18 -11 4 -24 6 -28 5 -4 -1 -67 6 -140 15 -92
11 -170 14 -259 10 -95 -4 -128 -2 -131 7 -3 8 -7 7 -11 -4z"/>
<path d="M4643 3248 c-26 -43 9 -51 201 -46 l130 3 7 28 7 27 -168 0 c-124 0
-171 -3 -177 -12z"/>
<path d="M7685 3025 c-48 -26 -92 -74 -114 -124 -17 -41 -25 -48 -71 -64 -93
-33 -157 -117 -143 -187 5 -29 65 -78 103 -86 14 -3 32 -8 40 -13 8 -4 35 -4
60 0 24 3 59 5 76 5 18 -1 30 3 26 8 -3 5 4 7 16 4 12 -3 22 -3 24 1 3 7 82
59 96 63 12 4 162 -64 162 -74 0 -9 41 -11 64 -2 25 10 19 31 -13 50 -17 10
-27 22 -24 28 4 6 0 5 -9 -2 -13 -10 -18 -10 -29 0 -8 7 -34 23 -59 36 -35 19
-39 22 -15 16 27 -6 75 -6 130 -1 28 3 85 61 86 89 3 68 -15 100 -78 139 -18
12 -33 28 -34 37 0 12 -2 13 -6 4 -4 -10 -10 -9 -27 6 -11 10 -37 28 -56 38
-19 10 -37 22 -40 26 -3 4 -35 10 -70 13 -50 5 -72 2 -95 -10z m105 -50 c18
-3 45 -12 60 -20 30 -16 131 -93 142 -109 5 -7 8 -7 8 -1 0 6 9 -5 20 -23 25
-40 14 -67 -30 -77 -65 -14 -188 11 -182 37 3 10 1 10 -9 1 -9 -9 -16 -9 -25
-2 -6 5 -22 12 -34 14 -44 8 -60 17 -54 27 4 7 2 8 -4 4 -6 -4 -25 0 -41 9
-28 14 -29 17 -20 44 18 51 102 119 130 105 3 -2 20 -6 39 -9z m-260 -197 c0
6 9 12 21 12 11 0 18 -4 15 -9 -4 -5 4 -7 16 -3 16 4 19 2 13 -9 -7 -12 -6
-12 7 -1 16 12 40 7 78 -18 27 -18 95 -43 110 -41 8 1 4 -5 -10 -13 -14 -8
-28 -12 -33 -9 -4 2 -6 -1 -5 -9 4 -16 -78 -57 -109 -53 -12 1 -20 -1 -18 -5
3 -4 -29 -8 -69 -8 -67 -1 -77 1 -104 26 -17 15 -29 36 -28 47 5 42 92 117
108 92 6 -9 8 -9 8 1z"/>
<path d="M2400 2873 c0 -11 -51 -38 -65 -34 -5 2 -7 -1 -3 -4 4 -4 -2 -25 -12
-46 -11 -21 -20 -47 -20 -57 0 -15 -5 -18 -27 -14 -16 2 -33 8 -39 13 -6 5
-24 5 -42 0 -17 -5 -33 -7 -36 -4 -3 3 -11 1 -19 -5 -7 -6 -22 -10 -33 -8 -10
2 -13 1 -7 -1 8 -3 3 -13 -14 -27 -39 -34 -45 -90 -14 -148 14 -26 28 -45 31
-43 4 2 29 -3 56 -11 101 -30 200 -7 272 66 24 24 39 30 71 30 50 0 57 -2 53
-15 -1 -5 6 -1 15 10 10 11 30 26 45 34 53 27 63 131 18 188 -43 55 -87 77
-161 81 -40 3 -69 0 -69 -5z m103 -52 c5 0 5 -5 2 -11 -3 -5 0 -7 9 -4 25 10
57 -16 77 -62 18 -40 19 -45 4 -68 -20 -30 -95 -44 -140 -25 -17 6 -38 13 -47
14 -27 3 -32 13 -18 30 7 9 10 18 6 22 -3 3 -6 1 -6 -6 0 -7 -5 -9 -12 -5 -7
4 -8 3 -4 -4 4 -7 2 -12 -3 -12 -6 0 -12 5 -12 10 -1 6 -2 16 -3 23 -5 27 28
71 69 94 17 10 32 11 78 4z m-234 -164 c17 -7 28 -16 24 -20 -3 -4 5 -7 20 -7
37 0 57 -10 57 -29 0 -14 2 -14 10 -1 5 8 12 11 16 7 9 -9 -15 -37 -31 -37 -8
0 -16 6 -19 13 -3 6 -3 2 -1 -9 7 -28 -31 -44 -105 -43 -55 1 -95 15 -124 44
-22 23 -20 42 9 70 28 29 92 34 144 12z"/>
<path d="M5206 2627 c-3 -12 -1 -24 4 -25 6 -2 8 -7 6 -10 -2 -4 11 -7 30 -8
19 0 34 3 34 8 0 4 78 8 173 8 135 1 176 4 191 15 11 8 16 18 12 22 -4 5 -106
9 -226 10 l-218 3 -6 -23z"/>
</g>
</svg>
