<?xml version="1.0" standalone="no"?>
<!DOCTYPE svg PUBLIC "-//W3C//DTD SVG 20010904//EN" "http://www.w3.org/TR/2001/REC-SVG-20010904/DTD/svg10.dtd">
<svg xmlns="http://www.w3.org/2000/svg" version="1.0" width="1024.000000pt" height="1024.000000pt" viewBox="0 0 1024.000000 1024.000000" preserveAspectRatio="xMidYMid meet">
<metadata>
Created by potrace 1.16, written by Peter Selinger 2001-2019
<meta name="Producer" content="Online-Convert"/></metadata>
<g transform="translate(0.000000,1024.000000) scale(0.100000,-0.100000)" fill="#000000" stroke="none">
<path d="M4865 8064 c-644 -49 -1162 -219 -1648 -540 -420 -279 -679 -569 -747 -838 -20 -77 -20 -112 -20 -1483 l0 -1405 29 -29 c35 -34 68 -37 105 -8 l26 20 0 1195 0 1194 60 -48 c108 -88 244 -142 402 -163 247 -32 506 56 674 228 l57 58 76 -75 c123 -121 276 -190 473 -211 257 -28 535 58 695 215 l73 72 48 -49 c95 -98 243 -180 402 -223 97 -26 307 -24 423 4 157 39 312 125 404 224 l41 45 79 -76 c94 -90 163 -133 275 -172 112 -38 214 -53 323 -46 175 12 334 70 453 166 l62 51 0 -1190 0 -1191 25 -24 c33 -33 70 -32 106 4 l29 29 0 1409 c0 1554 3 1462 -64 1609 -114 246 -406 529 -791 765 -421 259 -868 407 -1400 464 -135 15 -567 27 -670 19z m401 -164 c647 -38 1170 -194 1637 -491 324 -206 595 -473 679 -669 29 -68 32 -85 32 -175 0 -82 -4 -111 -23 -160 -48 -119 -194 -229 -361 -271 -89 -22 -279 -15 -371 15 -127 41 -242 133 -325 261 -47 73 -71 88 -119 76 -16 -4 -36 -24 -53 -52 -94 -159 -237 -259 -425 -298 -310 -64 -612 62 -749 313 -9 17 -28 33 -42 37 -49 12 -74 -3 -125 -79 -64 -95 -144 -168 -234 -212 -100 -48 -174 -66 -307 -72 -133 -6 -238 14 -348 68 -75 37 -175 127 -228 207 -44 65 -71 91 -96 92 -37 0 -70 -26 -95 -74 -37 -73 -144 -174 -230 -219 -239 -125 -542 -97 -729 67 -109 96 -158 261 -119 406 45 168 194 352 455 560 496 395 1118 625 1804 669 180 12 180 12 372 1z"/>
<path d="M4990 5654 c-71 -19 -132 -56 -198 -118 -102 -96 -144 -201 -144 -361 0 -177 51 -313 156 -421 l63 -63 -51 -17 c-91 -29 -226 -107 -292 -167 -73 -67 -163 -196 -195 -281 l-23 -59 -18 24 c-88 113 -176 187 -272 230 l-47 21 46 49 c87 93 133 238 122 390 -14 215 -196 389 -407 389 -168 0 -310 -92 -383 -248 -27 -57 -32 -81 -35 -163 -6 -150 37 -282 123 -374 l40 -44 -75 -38 c-100 -50 -234 -181 -280 -273 -49 -97 -68 -159 -81 -269 -14 -113 -5 -150 37 -170 39 -17 69 -13 96 14 22 22 26 37 31 117 8 116 36 201 93 278 98 133 269 220 434 220 164 0 330 -88 418 -219 57 -86 82 -159 97 -285 13 -120 28 -146 85 -146 72 0 90 33 90 167 1 338 167 586 455 680 117 38 316 44 435 14 134 -33 223 -82 311 -170 137 -138 188 -263 198 -491 4 -80 10 -151 14 -158 16 -24 67 -43 98 -37 43 10 56 38 68 156 18 184 88 308 221 398 158 105 356 115 536 26 85 -41 184 -140 227 -226 32 -63 57 -171 57 -247 0 -84 53 -123 124 -90 40 18 50 66 35 173 -23 158 -78 279 -176 385 -62 66 -165 144 -228 171 -16 7 -32 14 -34 16 -2 1 14 22 36 46 59 64 91 124 114 217 58 228 -31 436 -227 531 -65 32 -75 34 -174 34 -96 0 -110 -3 -165 -29 -122 -60 -220 -192 -246 -331 -25 -136 28 -318 123 -421 23 -24 39 -45 37 -47 -2 -1 -35 -17 -74 -36 -52 -26 -93 -58 -161 -126 l-91 -91 -32 67 c-96 201 -289 372 -471 419 -76 19 -75 18 -33 49 81 58 150 182 178 316 70 342 -146 638 -465 634 -36 0 -90 -7 -120 -15z m255 -181 c60 -30 79 -45 115 -98 38 -55 60 -135 60 -214 -1 -195 -102 -341 -262 -381 -97 -25 -224 44 -284 155 -104 189 -73 416 70 514 92 64 203 73 301 24z m-1408 -391 c47 -24 99 -81 121 -131 24 -54 20 -182 -7 -252 -45 -117 -156 -198 -250 -183 -94 15 -184 97 -211 192 -51 180 11 334 157 388 50 19 138 12 190 -14z m2752 13 c60 -21 99 -51 132 -103 42 -66 55 -138 40 -219 -24 -131 -93 -219 -196 -248 -50 -15 -60 -15 -107 -1 -73 21 -121 64 -160 144 -30 61 -33 74 -33 162 0 72 4 103 18 127 67 124 191 179 306 138z"/>
<path d="M2555 3418 c-52 -30 -55 -79 -14 -198 96 -282 328 -544 624 -705 186 -102 452 -182 681 -206 124 -12 427 -7 514 10 79 16 108 91 54 142 -24 23 -31 24 -112 19 -152 -9 -444 -4 -522 9 -209 35 -424 106 -565 187 -264 153 -438 359 -520 614 -38 118 -84 160 -140 128z"/>
<path d="M3220 3417 c-32 -16 -52 -55 -44 -87 7 -31 90 -143 141 -191 122 -114 263 -186 446 -225 86 -19 311 -27 358 -14 65 19 89 82 49 132 -19 25 -23 26 -182 31 -304 9 -476 86 -625 276 -44 58 -85 91 -111 91 -4 0 -18 -6 -32 -13z"/>
<path d="M6962 3423 c-14 -3 -36 -24 -55 -51 -53 -79 -157 -174 -232 -213 -140 -73 -259 -99 -451 -99 -113 0 -122 -1 -142 -23 -30 -32 -29 -81 3 -112 26 -27 44 -29 225 -26 249 4 476 96 631 258 72 74 129 160 129 194 0 44 -56 81 -108 72z"/>
<path d="M7620 3423 c-33 -12 -50 -39 -75 -117 -60 -185 -149 -323 -301 -465 -191 -178 -391 -279 -657 -330 -205 -40 -447 -52 -626 -31 -117 13 -151 -5 -151 -84 0 -57 31 -75 151 -86 398 -36 765 22 1051 165 339 170 593 458 693 786 25 83 26 88 10 118 -20 40 -58 57 -95 44z"/>
</g>
</svg>
