<?xml version="1.0" standalone="no"?>
<!DOCTYPE svg PUBLIC "-//W3C//DTD SVG 20010904//EN" "http://www.w3.org/TR/2001/REC-SVG-20010904/DTD/svg10.dtd">
<svg xmlns="http://www.w3.org/2000/svg" version="1.0" width="1024.000000pt" height="1024.000000pt" viewBox="0 0 1024.000000 1024.000000" preserveAspectRatio="xMidYMid meet">
<metadata>
Created by potrace 1.16, written by Peter Selinger 2001-2019
<meta name="Producer" content="Online-Convert"/></metadata>
<g transform="translate(0.000000,1024.000000) scale(0.100000,-0.100000)" fill="#000000" stroke="none">
<path d="M4705 8190 c-113 -12 -340 -53 -466 -85 -91 -23 -292 -86 -334 -105 -110 -49 -117 -51 -131 -33 -10 13 -13 13 -9 3 7 -23 -3 -32 -99 -78 -48 -24 -133 -70 -187 -103 -54 -32 -101 -59 -104 -59 -3 0 -13 -8 -23 -17 -17 -16 -169 -131 -209 -158 -8 -5 -47 -40 -86 -77 -40 -37 -78 -68 -86 -68 -8 0 -12 -3 -9 -6 4 -3 -12 -22 -35 -42 -23 -20 -53 -50 -66 -67 -14 -16 -49 -55 -79 -85 -30 -30 -54 -56 -53 -57 0 -2 -40 -58 -90 -125 -146 -197 -260 -400 -352 -623 -46 -114 -125 -341 -133 -385 -3 -14 -16 -74 -30 -135 -14 -60 -27 -128 -29 -150 -3 -22 -10 -71 -17 -110 -17 -96 -17 -610 0 -735 16 -116 71 -399 82 -420 9 -17 35 -131 32 -142 -1 -5 2 -8 7 -8 16 0 17 -44 1 -58 -13 -11 -13 -11 1 -6 17 5 49 -47 52 -86 1 -11 4 -20 8 -20 4 0 10 -12 14 -27 4 -16 6 -28 6 -28 0 0 15 -31 33 -69 29 -60 32 -72 20 -83 -19 -19 -18 -29 1 -13 9 7 16 11 18 9 30 -53 34 -64 15 -53 -7 5 -8 3 -4 -5 5 -7 11 -10 14 -7 11 12 33 -35 27 -57 -5 -16 -4 -18 3 -8 8 11 15 4 32 -30 13 -24 40 -70 61 -101 22 -31 39 -61 39 -66 0 -5 7 -15 15 -22 8 -7 12 -17 8 -24 -3 -6 -3 -8 2 -4 5 5 19 -8 32 -27 26 -38 29 -50 11 -39 -8 4 -10 3 -5 -2 5 -5 13 -9 18 -9 16 0 129 -147 122 -158 -3 -6 -1 -7 5 -3 10 6 35 -25 29 -35 -1 -2 0 -3 2 -2 7 5 140 -130 136 -138 -7 -10 20 -30 29 -22 8 8 117 -97 111 -108 -3 -4 3 -13 13 -20 15 -13 16 -12 3 4 -25 32 7 17 38 -18 17 -19 33 -35 37 -35 4 0 36 -22 73 -48 211 -155 432 -278 641 -358 41 -16 77 -32 78 -36 2 -5 8 -6 12 -3 5 3 17 1 27 -4 10 -5 52 -19 93 -30 285 -78 412 -99 795 -129 95 -7 301 0 475 18 246 26 593 110 767 186 17 8 33 14 36 14 17 0 204 96 212 109 22 35 25 65 7 85 -9 11 -11 16 -4 12 6 -4 12 -2 12 3 0 6 -8 12 -17 12 -63 5 -96 2 -102 -8 -12 -21 -120 -64 -149 -58 -20 4 -22 3 -8 -3 16 -7 10 -12 -34 -30 -29 -12 -56 -20 -60 -17 -5 3 -10 2 -12 -2 -15 -35 -567 -163 -641 -149 -15 2 -28 -1 -30 -7 -6 -20 -584 -15 -734 6 -257 37 -444 85 -658 169 -156 61 -235 100 -228 111 3 6 1 7 -5 3 -15 -9 -102 35 -102 52 0 7 -4 10 -10 7 -12 -8 -33 4 -159 87 -118 79 -285 211 -323 257 -14 16 -28 28 -30 26 -5 -6 -218 216 -218 227 0 3 -16 23 -36 44 -42 46 -184 242 -184 256 0 5 -9 18 -20 30 -10 12 -17 25 -14 30 3 4 1 8 -5 8 -5 0 -29 39 -53 88 -23 48 -46 89 -49 92 -10 9 -106 241 -132 320 -30 89 -76 257 -82 297 -2 15 -11 57 -19 93 -38 172 -60 447 -52 645 14 353 84 672 221 1004 65 158 207 414 303 544 24 34 38 45 45 38 6 -6 15 -11 21 -11 5 0 1 6 -9 14 -17 12 -15 17 40 86 87 109 186 211 198 203 5 -3 7 -2 4 4 -7 10 39 60 51 56 4 -2 7 3 7 10 1 6 7 10 15 9 8 -2 12 0 8 4 -20 19 270 245 447 349 208 121 479 243 512 231 8 -3 12 -2 9 2 -6 11 96 43 259 81 182 42 305 61 423 64 56 1 102 5 102 10 0 4 5 7 11 7 5 0 7 -6 3 -12 -5 -9 -2 -8 9 1 25 20 336 8 532 -20 242 -35 499 -104 695 -185 156 -66 413 -205 391 -212 -6 -2 -11 -8 -11 -14 0 -7 5 -6 14 1 12 10 23 7 55 -15 22 -14 38 -30 35 -35 -3 -5 1 -7 8 -4 18 7 250 -173 242 -187 -4 -7 -2 -8 4 -4 7 4 38 -19 74 -55 35 -34 56 -59 48 -54 -11 6 -12 5 -4 -4 6 -7 18 -13 27 -15 20 -3 68 -61 59 -71 -4 -5 -2 -5 5 -2 14 9 83 -70 77 -87 -3 -7 3 -19 13 -26 15 -12 16 -12 6 0 -15 16 -17 34 -4 25 18 -10 144 -179 207 -275 73 -113 166 -288 222 -420 52 -123 115 -317 107 -330 -3 -5 -1 -10 6 -10 6 0 9 -8 6 -20 -3 -10 -1 -20 4 -22 12 -4 56 -215 75 -364 20 -157 23 -477 5 -624 -25 -210 -114 -596 -135 -583 -5 3 -6 1 -3 -5 6 -9 -43 -167 -82 -266 -11 -28 -12 -28 -26 -10 -14 18 -15 17 -5 -6 8 -19 8 -33 -1 -55 -7 -17 -11 -34 -10 -40 0 -5 -6 -1 -14 10 -11 13 -12 21 -4 24 6 2 1 8 -12 15 -12 6 -25 18 -27 26 -5 13 -3 13 11 1 11 -9 17 -10 17 -2 0 10 -13 15 -32 12 -12 -2 -39 59 -32 71 4 6 3 8 -4 4 -6 -3 -20 11 -33 31 -12 21 -33 55 -46 75 -15 22 -22 42 -17 50 4 7 4 10 -1 6 -4 -4 -15 3 -24 15 -23 30 -171 267 -171 273 0 3 -7 12 -15 21 -8 8 -13 19 -9 24 3 5 2 8 -3 7 -4 -1 -18 4 -31 11 -20 10 -27 10 -50 -5 -58 -38 -59 -64 -1 -157 18 -29 37 -61 43 -72 6 -11 44 -73 84 -138 41 -65 71 -124 68 -132 -3 -10 0 -12 11 -8 11 4 14 2 11 -8 -3 -8 2 -20 11 -27 9 -8 11 -11 4 -8 -6 4 -14 2 -17 -3 -4 -5 3 -11 15 -13 12 -2 27 -12 33 -23 6 -11 14 -22 17 -25 20 -17 89 -151 83 -161 -4 -7 -3 -9 3 -6 15 9 77 -89 67 -105 -4 -7 -4 -10 0 -6 5 4 17 -2 29 -13 11 -10 30 -19 42 -19 11 0 27 -6 34 -12 10 -9 12 -9 7 -1 -7 12 20 30 150 100 39 21 121 66 183 100 118 67 127 70 115 51 -5 -9 -2 -9 9 1 20 16 23 25 5 15 -9 -5 -10 -4 -3 3 8 8 196 116 441 254 66 37 73 50 54 105 -19 55 -40 58 -122 15 -61 -31 -437 -241 -488 -271 -93 -56 -165 -95 -171 -93 -4 1 -13 -4 -19 -12 -7 -8 -17 -15 -23 -15 -6 0 -19 -8 -30 -17 -18 -17 -18 -17 -6 12 8 17 16 32 19 35 3 3 20 50 38 105 18 55 38 109 43 120 33 72 121 430 149 605 5 36 12 76 15 90 15 69 16 481 2 620 -21 204 -70 435 -126 603 -17 48 -25 87 -20 87 6 0 3 7 -6 16 -21 22 -47 85 -40 101 2 8 1 12 -4 9 -5 -3 -16 16 -26 42 -9 26 -39 91 -67 145 -27 53 -46 102 -42 109 4 6 3 8 -4 4 -6 -3 -17 6 -25 21 -33 64 -72 130 -95 160 -13 18 -21 37 -17 43 4 6 2 9 -4 8 -14 -4 -132 154 -127 169 3 7 0 10 -7 8 -7 -2 -34 23 -62 56 -27 33 -82 92 -122 131 -39 40 -69 76 -67 80 3 5 1 7 -4 6 -5 -2 -38 22 -73 53 -255 222 -509 383 -799 507 -238 102 -473 165 -765 207 -132 19 -588 28 -720 15z"/>
</g>
</svg>
