<?xml version="1.0" standalone="no"?>
<!DOCTYPE svg PUBLIC "-//W3C//DTD SVG 20010904//EN"
 "http://www.w3.org/TR/2001/REC-SVG-20010904/DTD/svg10.dtd">
<svg version="1.0" xmlns="http://www.w3.org/2000/svg"
 width="1024.000000pt" height="1024.000000pt" viewBox="0 0 1024.000000 1024.000000"
 preserveAspectRatio="xMidYMid meet">
<metadata>
Created by potrace 1.16, written by Peter Selinger 2001-2019
</metadata>
<g transform="translate(0.000000,1024.000000) scale(0.100000,-0.100000)"
fill="#000000" stroke="none">
<path d="M1112 10233 c335 -2 881 -2 1215 0 335 1 61 2 -607 2 -668 0 -942 -1
-608 -2z"/>
<path d="M10230 4980 l0 -4970 -5017 -3 -5018 -2 5023 -3 5022 -2 0 4975 c0
2736 -2 4975 -5 4975 -3 0 -5 -2236 -5 -4970z"/>
<path d="M5 6520 c0 -1493 1 -2104 2 -1357 2 746 2 1968 0 2715 -1 746 -2 135
-2 -1358z"/>
<path d="M3706 8904 c-4 -9 -3 -21 2 -26 5 -5 92 -31 193 -58 217 -57 1007
-269 1129 -303 l85 -23 5 -370 5 -369 -30 -15 c-50 -26 -63 -62 -67 -189 l-3
-115 -72 -12 c-166 -28 -286 -87 -393 -194 -83 -83 -172 -227 -168 -270 l3
-25 261 -3 262 -2 6 -30 c8 -42 94 -126 142 -139 131 -36 259 17 300 125 l17
44 234 0 c263 0 258 -2 228 73 -46 115 -135 228 -241 303 -85 61 -160 93 -262
113 l-87 17 -5 125 c-6 135 -10 150 -46 174 l-24 15 0 366 c0 343 1 365 18
360 28 -9 261 -73 497 -136 121 -33 234 -63 250 -68 l30 -8 -3 -1295 c-3
-1375 -4 -1343 42 -1326 15 6 16 112 18 1314 l3 1308 80 19 c84 19 633 148
815 191 104 25 521 122 820 191 85 20 245 57 355 84 110 26 271 65 358 85 148
35 157 39 157 61 0 18 -6 24 -21 24 -12 0 -132 -27 -268 -59 -368 -89 -551
-132 -931 -220 -618 -143 -941 -219 -1157 -270 -117 -28 -223 -51 -237 -51
-22 0 -190 43 -506 130 -58 16 -168 45 -245 65 -77 20 -203 54 -280 75 -77 22
-336 91 -575 155 -239 64 -478 128 -530 142 -133 36 -156 39 -164 17z m1476
-1244 c13 -26 18 -59 18 -127 l0 -93 -61 0 -61 0 4 103 c2 78 7 110 21 131 25
37 57 32 79 -14z m200 -308 c180 -55 330 -181 396 -334 l12 -28 -665 0 c-366
0 -665 2 -665 4 0 15 74 128 110 169 50 57 148 128 216 157 105 46 197 60 369
56 124 -3 175 -8 227 -24z m-52 -431 c0 -4 -10 -23 -23 -41 -65 -98 -226 -105
-307 -14 -55 63 -51 64 150 64 99 0 180 -4 180 -9z"/>
<path d="M8035 7699 c-143 -16 -485 -51 -759 -79 -275 -28 -505 -55 -513 -61
-18 -16 -20 -1548 -1 -1567 9 -9 203 -12 810 -12 778 0 798 0 808 19 14 27 14
1685 0 1712 -13 24 -19 24 -345 -12z m295 -849 l0 -820 -757 2 -758 3 -3 741
-2 741 47 6 c27 4 125 14 218 22 286 26 1013 100 1125 114 36 5 80 9 98 10
l32 1 0 -820z"/>
<path d="M7990 7474 c-8 -2 -109 -10 -225 -19 -477 -35 -751 -59 -772 -66
l-23 -9 0 -578 c0 -436 3 -581 12 -590 17 -17 1129 -17 1146 0 16 16 17 1219
2 1249 -9 16 -21 19 -68 18 -31 -1 -64 -3 -72 -5z m90 -447 l0 -393 -227 -1
c-186 -1 -229 -4 -237 -16 -6 -7 -14 -15 -18 -15 -5 -1 -9 -5 -10 -9 -2 -5
108 -9 245 -11 l247 -2 0 -165 0 -165 -525 0 -525 0 0 169 0 169 53 23 c43 20
69 24 147 24 89 0 98 -2 154 -33 43 -25 67 -32 87 -28 60 12 224 129 303 217
l45 50 15 -36 c18 -41 41 -54 62 -33 14 13 12 19 -10 53 -20 29 -26 50 -26 91
0 50 2 54 34 69 49 23 77 58 83 102 14 107 -108 181 -198 120 -71 -47 -73
-145 -4 -206 19 -17 35 -37 35 -46 0 -22 -27 -73 -62 -117 -48 -61 -252 -208
-289 -208 -6 0 -39 13 -73 29 -104 49 -217 50 -316 2 l-40 -19 0 354 0 354 47
0 c43 0 571 39 803 59 52 5 119 9 148 10 l52 1 0 -393z m-185 128 c41 -40 32
-99 -18 -120 -38 -16 -70 -4 -86 32 -16 35 -14 57 10 87 26 33 62 34 94 1z"/>
<path d="M3464 6356 c-54 -17 -106 -57 -129 -99 -16 -30 -21 -33 -65 -33 -89
0 -171 -80 -207 -204 -29 -101 -11 -300 36 -387 8 -16 2 -44 -30 -134 -27 -80
-41 -139 -46 -196 -5 -72 -9 -83 -24 -83 -50 0 -115 -28 -159 -67 -87 -78
-140 -215 -140 -361 l0 -79 -42 21 c-27 13 -69 22 -113 25 -59 3 -75 8 -102
31 -82 72 -277 84 -380 24 -54 -31 -92 -83 -128 -171 -15 -38 -31 -75 -36 -83
-45 -73 -62 -128 -63 -200 0 -83 19 -133 71 -182 60 -57 159 -74 259 -43 27 8
65 15 84 15 52 0 111 19 148 47 18 13 59 63 91 111 69 102 147 180 219 216 45
23 112 35 112 21 0 -3 -13 -23 -29 -45 -16 -22 -42 -70 -57 -108 -28 -65 -29
-71 -29 -248 l0 -182 -70 -7 c-146 -14 -260 -53 -284 -97 -19 -36 -9 -761 12
-849 49 -211 175 -301 437 -312 264 -11 411 37 506 166 45 61 50 73 36 95 -12
19 -38 5 -52 -27 -14 -36 -84 -103 -134 -131 -60 -33 -158 -50 -292 -50 -149
0 -210 11 -294 53 -152 75 -180 180 -180 674 l0 271 48 -18 c91 -34 189 -45
417 -44 290 0 416 23 475 86 62 66 -16 130 -200 164 -52 10 -96 18 -98 19 -1
1 7 40 18 86 13 53 23 136 27 222 6 134 6 137 27 130 46 -17 159 -9 207 15
225 111 338 437 246 710 -43 126 -80 148 -241 139 -96 -5 -189 -27 -202 -49
-15 -23 15 -27 96 -13 101 18 193 19 223 4 36 -19 67 -51 67 -70 0 -12 -16
-23 -50 -34 -43 -14 -61 -15 -114 -6 -85 15 -128 14 -152 -4 -10 -8 -22 -15
-25 -15 -3 0 -22 34 -43 75 -55 110 -57 153 -11 295 21 63 39 117 41 118 1 2
34 -4 73 -13 53 -13 99 -16 193 -13 111 4 129 7 191 36 37 17 94 51 126 76 77
58 86 62 151 71 81 11 144 41 192 94 92 101 110 124 136 174 23 45 27 64 27
142 0 99 -11 129 -65 183 -16 17 -51 38 -76 48 -45 17 -51 17 -153 0 -88 -15
-115 -16 -151 -6 -66 18 -277 22 -326 6z m104 -74 c-46 -51 -89 -115 -126
-187 -16 -33 -46 -78 -66 -100 l-35 -40 0 70 c-1 83 20 177 46 214 28 38 118
81 171 81 l44 0 -34 -38z m267 14 c39 0 108 4 155 8 80 8 87 7 120 -16 54 -36
82 -100 77 -174 -4 -61 -30 -130 -65 -173 -16 -20 -22 -22 -40 -12 -11 6 -65
11 -120 11 -66 0 -123 6 -173 20 -81 21 -179 26 -209 10 -11 -6 -25 -20 -31
-32 -11 -20 -10 -21 32 -13 60 11 90 9 194 -16 58 -13 124 -21 187 -21 54 0
98 -4 98 -8 0 -12 -75 -77 -108 -94 -16 -8 -57 -20 -91 -25 -70 -11 -83 -17
-182 -89 -94 -68 -171 -92 -291 -92 -105 0 -218 18 -225 36 -3 7 8 30 24 51
16 21 55 73 86 115 31 42 86 109 121 148 40 44 79 102 103 153 67 137 177 237
243 219 14 -4 57 -7 95 -6z m-542 -261 l-2 -136 -38 -51 c-21 -28 -55 -76 -77
-106 -44 -63 -49 -60 -67 39 -18 99 -8 206 25 273 33 67 88 116 131 116 l30 0
-2 -135z m-249 -882 c8 -16 39 -68 70 -116 64 -103 107 -209 131 -322 16 -80
15 -118 -7 -222 -10 -46 -14 -52 -42 -57 -48 -8 -107 7 -172 45 -32 18 -72 40
-89 49 l-30 15 -3 122 c-2 90 1 131 12 158 20 47 53 47 99 0 30 -31 42 -56 62
-132 8 -28 41 -31 50 -4 8 25 -30 124 -62 162 -32 37 -73 59 -113 59 -78 0
-101 -47 -104 -215 -2 -136 -9 -145 -60 -82 -31 39 -31 40 -31 155 0 132 23
218 75 290 43 59 129 113 192 121 4 1 14 -11 22 -26z m481 -135 c15 -107 8
-219 -18 -290 -40 -111 -85 -175 -157 -229 -74 -55 -88 -60 -64 -23 26 38 30
165 10 257 -17 74 -61 198 -91 258 -13 25 -14 33 -3 46 10 12 23 14 68 7 95
-14 184 -10 211 8 13 9 27 17 31 17 3 1 9 -23 13 -51z m-1145 -253 l55 -28
-35 -14 c-42 -17 -100 -71 -100 -92 0 -26 -46 -114 -74 -143 -14 -14 -51 -38
-83 -52 -113 -51 -128 -61 -131 -83 -2 -14 2 -23 10 -23 31 1 196 81 235 114
38 33 54 59 98 163 15 35 26 45 75 67 101 46 202 34 273 -32 35 -33 34 -48 -3
-60 -81 -29 -189 -129 -250 -232 -64 -109 -122 -150 -214 -150 -23 0 -63 -7
-90 -15 -148 -45 -242 14 -253 159 -11 138 62 239 184 255 62 9 102 0 142 -31
18 -14 27 -15 37 -7 32 26 7 56 -69 84 -42 16 -56 17 -117 6 -39 -7 -72 -17
-76 -22 -3 -5 -9 -9 -15 -9 -12 0 34 75 70 114 47 51 95 67 191 63 69 -3 95
-9 140 -32z m466 -652 c-1 -208 -6 -377 -9 -375 -4 1 -14 2 -22 2 -8 0 -15 7
-15 16 0 9 -10 55 -22 103 -19 73 -22 114 -23 271 0 175 1 188 25 240 25 58
60 120 65 120 2 0 3 -170 1 -377z m94 355 c15 -13 42 -31 59 -40 l31 -17 0
-88 c0 -101 -12 -191 -40 -313 -61 -261 -64 -270 -79 -270 -14 0 -16 40 -13
375 1 206 5 375 8 375 3 0 19 -10 34 -22z m-206 -625 c9 -38 19 -76 22 -85 5
-16 -3 -18 -63 -18 -82 0 -245 32 -279 55 -14 9 -24 22 -22 28 7 23 95 57 184
71 148 23 139 26 158 -51z m406 36 c82 -13 150 -43 150 -64 0 -31 -158 -74
-274 -75 -41 0 -47 3 -42 17 4 9 14 45 23 80 18 72 -1 66 143 42z"/>
<path d="M3990 6208 c-32 -14 -78 -23 -160 -28 -125 -9 -207 -29 -234 -59 -15
-17 -16 -19 -1 -25 9 -3 42 0 73 8 32 8 100 17 152 21 118 7 145 13 193 36 23
12 37 26 37 39 0 29 -12 31 -60 8z"/>
<path d="M2351 6129 c-47 -14 -115 -62 -145 -102 -32 -44 -66 -112 -66 -135 0
-14 -12 -23 -46 -32 -60 -17 -140 -90 -170 -155 -26 -55 -33 -161 -14 -211 10
-25 11 -26 29 -10 16 15 18 27 14 69 -14 141 78 245 255 287 67 16 189 8 260
-16 47 -15 55 -16 68 -2 19 19 8 28 -66 55 -70 26 -171 36 -232 25 -27 -5 -48
-6 -48 -3 0 15 63 104 91 131 17 15 56 36 86 45 138 44 306 -27 373 -156 l19
-36 -55 -7 c-106 -12 -216 -88 -250 -171 -20 -48 -34 -58 -34 -25 0 16 -7 20
-38 20 -115 0 -281 -80 -389 -186 -130 -127 -155 -252 -77 -375 56 -89 183
-119 289 -69 96 46 204 182 234 295 6 22 17 87 25 145 25 169 48 227 89 214
127 -37 191 -97 221 -205 24 -88 38 -113 64 -117 12 -2 22 -7 22 -10 0 -22
-97 -114 -144 -137 -63 -31 -169 -42 -258 -27 -50 8 -60 7 -74 -9 -29 -32 14
-44 161 -44 117 0 135 2 178 24 99 49 234 201 262 294 40 136 -9 272 -124 346
-28 18 -51 40 -51 50 0 28 -56 115 -99 154 -73 66 -134 90 -236 93 -49 2 -105
-1 -124 -7z m432 -310 c52 -14 130 -92 152 -151 43 -116 -38 -288 -90 -188 -8
16 -15 35 -15 42 0 28 -59 135 -91 165 -19 18 -63 45 -98 61 l-65 29 34 18
c69 36 111 42 173 24z m-357 -192 c-3 -13 -12 -71 -21 -128 -20 -139 -29 -167
-76 -238 -94 -141 -210 -195 -312 -146 -41 19 -69 58 -88 123 -11 37 -10 51 6
100 42 134 299 309 459 311 35 1 38 -1 32 -22z"/>
<path d="M2200 5439 c-114 -85 -147 -115 -166 -151 -22 -43 5 -40 61 7 28 23
81 63 119 90 38 27 78 57 88 67 21 21 24 58 5 58 -7 0 -55 -32 -107 -71z"/>
<path d="M4350 5485 c-99 -32 -182 -139 -318 -410 -94 -187 -120 -249 -136
-329 l-12 -59 -54 -14 c-110 -28 -259 -129 -311 -211 -56 -88 -25 -85 77 8 80
72 224 153 294 165 49 8 192 -51 242 -99 60 -57 71 -90 157 -456 68 -287 130
-515 197 -728 49 -154 139 -384 165 -422 32 -48 54 17 24 70 -20 34 -18 43 4
30 30 -16 96 -12 156 9 30 11 55 16 55 11 0 -5 -5 -10 -11 -12 -9 -3 -8 -14 2
-41 14 -40 21 -44 38 -23 9 11 8 23 -4 52 -8 21 -12 40 -8 43 5 4 20 17 35 30
l27 24 17 -42 c19 -48 51 -72 61 -45 3 9 -4 36 -15 60 l-22 44 50 62 c28 34
50 66 50 70 0 4 4 8 9 8 5 0 12 -15 15 -34 8 -40 26 -59 46 -46 12 8 12 15 1
52 -25 86 -25 88 33 207 31 63 56 119 56 125 0 8 110 10 387 8 213 -2 388 -4
389 -5 1 -1 5 -171 8 -377 4 -206 10 -385 13 -397 l5 -23 -1021 0 c-562 0
-1021 2 -1021 4 0 2 8 23 17 47 15 38 18 96 21 412 l4 367 119 0 c119 0 120 0
117 23 -3 21 -7 22 -120 25 l-118 3 0 229 c0 288 -15 365 -88 442 -77 83 -355
103 -477 35 -49 -27 -99 -100 -122 -176 -15 -50 -17 -114 -14 -610 3 -671 6
-700 87 -790 25 -27 53 -53 64 -56 14 -4 21 -19 26 -53 15 -109 73 -190 151
-211 131 -37 229 37 264 199 l11 50 1064 2 1065 3 21 -22 c11 -12 33 -27 49
-33 20 -9 29 -20 29 -35 0 -33 25 -100 51 -134 26 -36 104 -71 156 -71 21 0
59 10 83 23 36 17 51 34 72 77 16 30 31 78 34 105 5 37 15 58 40 84 18 18 40
53 48 76 l17 42 82 6 c108 7 171 30 223 82 67 68 69 79 69 442 0 233 3 323 11
323 6 0 26 -3 43 -6 l31 -6 0 -344 c0 -247 -4 -374 -15 -451 -8 -62 -13 -167
-12 -247 2 -121 4 -140 20 -150 29 -18 37 9 37 128 0 99 1 108 18 101 79 -31
298 -65 421 -65 l83 0 -3 -102 -4 -103 25 0 c25 0 25 1 28 100 l3 101 97 11
c53 7 133 22 177 34 44 11 86 22 93 22 11 2 15 -24 19 -108 5 -114 11 -132 37
-122 14 5 16 30 16 167 0 88 2 160 5 160 9 0 463 -99 570 -124 55 -12 106 -21
113 -18 20 7 14 42 -10 51 -13 5 -165 39 -338 76 -173 37 -320 69 -326 70 -11
3 -24 380 -24 681 l0 133 38 6 c20 4 74 17 119 31 63 19 92 34 123 63 38 36
40 41 40 97 0 76 -22 114 -85 143 -72 34 -172 51 -342 58 l-153 6 0 -31 c0
-36 23 -48 65 -32 34 13 244 -3 328 -25 108 -28 137 -53 137 -118 0 -87 -151
-137 -493 -166 -383 -32 -913 12 -1040 87 -26 16 -46 56 -34 68 3 3 43 -3 89
-15 126 -30 231 -41 478 -48 323 -9 493 14 562 76 25 22 30 33 24 54 -8 33
-43 57 -94 64 -29 4 -40 1 -45 -10 -4 -12 5 -19 36 -30 30 -10 42 -19 42 -33
0 -51 -312 -83 -623 -65 -203 12 -349 32 -412 57 -34 14 -38 19 -30 35 18 32
197 69 334 69 43 0 53 -4 75 -31 23 -26 36 -32 101 -41 96 -13 362 -5 415 13
23 8 45 24 52 39 18 35 19 620 1 638 -8 8 -55 12 -145 12 l-133 0 0 35 c0 32
3 35 28 35 35 0 68 23 87 60 34 65 7 145 -62 185 -59 35 -93 96 -93 168 0 61
-13 79 -38 53 -28 -28 -21 -112 13 -170 l29 -49 -25 -20 c-38 -31 -59 -69 -59
-110 0 -44 22 -92 49 -106 12 -7 18 -21 17 -43 l-1 -33 -113 -2 c-71 -1 -118
-6 -127 -13 -13 -10 -15 -59 -15 -291 l0 -279 -95 -1 c-52 -1 -101 -2 -107 -3
-9 -1 -15 20 -19 59 -9 81 -43 215 -69 265 -31 60 -103 128 -166 156 -30 13
-61 24 -69 24 -18 0 -19 9 -5 46 6 15 16 76 21 136 12 129 3 161 -48 166 -23
2 -40 -5 -66 -27 l-34 -31 -7 60 c-10 85 -61 260 -102 349 -43 93 -101 155
-169 180 -59 22 -257 27 -1345 36 -538 4 -642 3 -680 -10z m1530 -54 c500 -7
480 -5 548 -72 80 -79 155 -304 177 -536 6 -56 4 -76 -10 -102 l-17 -33 -146
8 c-81 5 -253 9 -382 9 -385 0 -378 7 -525 -558 -19 -71 -31 -135 -28 -143 6
-16 -11 -17 -136 -15 -92 2 -148 14 -214 47 -185 94 -350 253 -502 480 -115
174 -177 212 -365 221 -114 6 -194 -6 -256 -37 -42 -22 -71 -19 -77 8 -14 66
210 530 312 644 48 54 88 78 141 88 39 6 791 2 1480 -9z m1778 -517 c71 -49
25 -161 -55 -134 -54 19 -69 85 -28 125 28 29 51 31 83 9z m-898 -53 c0 -30
-23 -176 -36 -233 -19 -82 -15 -98 26 -98 86 0 202 -94 240 -196 28 -77 61
-264 46 -269 -6 -2 -31 -9 -56 -15 -25 -6 -62 -23 -83 -37 -30 -21 -37 -32
-35 -52 2 -15 -5 -34 -14 -43 -24 -24 -23 -73 3 -109 23 -33 66 -57 149 -85
32 -10 48 -20 38 -22 -17 -3 -18 -27 -18 -320 0 -287 -2 -321 -19 -358 -10
-22 -31 -50 -46 -62 -38 -30 -117 -52 -184 -52 l-56 0 3 607 c3 631 1 676 -38
753 -43 84 -112 120 -250 129 l-95 6 55 41 c30 23 85 58 121 79 71 40 98 70
80 88 -7 7 -26 2 -63 -18 -94 -50 -214 -133 -251 -174 -20 -22 -49 -47 -65
-55 -48 -25 -111 -104 -127 -160 -21 -74 -35 -179 -35 -273 0 -97 9 -93 -130
-63 -51 11 -114 20 -139 20 -40 0 -51 5 -81 36 -19 20 -59 55 -89 76 -49 37
-53 43 -47 72 11 57 97 380 112 423 39 108 94 147 226 157 78 6 496 -7 638
-20 l65 -6 24 36 c13 20 34 68 47 107 13 39 28 77 35 85 13 16 49 19 49 5z
m-2352 -197 c68 -19 114 -61 193 -177 166 -244 344 -413 532 -503 107 -51 199
-60 456 -44 15 1 35 -10 54 -29 l31 -30 -37 -16 c-30 -12 -92 -15 -364 -15
-324 0 -329 0 -379 24 -65 30 -129 96 -209 216 -61 92 -179 312 -202 377 -9
25 -15 31 -32 26 -35 -9 -26 -43 53 -198 90 -176 165 -290 250 -379 79 -82
143 -114 241 -119 l69 -4 27 -48 c30 -55 82 -111 110 -120 10 -4 19 -12 19
-19 0 -23 -132 -279 -171 -331 -88 -119 -221 -205 -317 -205 -52 0 -96 33
-119 88 -81 193 -199 605 -297 1042 -38 165 -61 242 -94 305 -32 63 -119 135
-162 135 -40 0 -19 19 33 29 101 21 227 19 315 -5z m3452 -338 c0 -244 -2
-285 -16 -296 -41 -35 -453 -34 -475 1 -5 8 -9 141 -9 297 l0 282 250 0 250 0
0 -284z m-3955 8 c50 -26 90 -94 104 -180 15 -85 15 -1146 0 -1233 -24 -140
-45 -154 -229 -159 -247 -7 -313 34 -346 217 -19 109 -20 1134 0 1206 39 148
86 176 296 172 114 -2 141 -5 175 -23z m2655 -17 c37 -18 50 -33 75 -82 l30
-60 0 -630 c0 -582 -1 -634 -18 -689 -22 -71 -66 -119 -122 -135 -22 -6 -95
-11 -162 -11 -182 0 -217 19 -242 132 -15 67 -16 1206 -1 1289 14 81 59 163
101 184 79 41 259 42 339 2z m-616 -508 l106 -22 0 -74 0 -74 -387 3 -388 3
-47 28 c-46 27 -98 88 -98 114 0 10 29 12 121 11 116 -1 122 -2 156 -30 45
-35 70 -42 134 -36 42 4 58 12 92 45 23 22 51 46 62 52 26 15 115 8 249 -20z
m1549 -150 l177 -13 0 -208 0 -208 -77 0 c-99 -1 -224 -23 -266 -47 -60 -36
-63 -107 -4 -135 70 -34 148 -43 352 -43 268 1 365 27 365 96 0 66 -76 103
-251 124 l-56 6 -6 97 c-4 53 -7 147 -7 207 l0 111 168 12 c92 7 186 15 209
18 l42 7 3 -434 c2 -239 2 -439 0 -445 -3 -11 -88 -41 -182 -64 -25 -7 -137
-14 -250 -17 -175 -4 -221 -2 -315 15 -60 11 -131 29 -157 41 -45 19 -48 23
-48 58 0 60 9 67 61 50 103 -35 165 -42 374 -42 277 0 405 24 405 76 0 18 -4
20 -27 15 -159 -34 -219 -40 -373 -40 -178 1 -333 21 -383 52 l-28 17 -2 359
-2 358 50 -6 c28 -3 130 -11 228 -17z m377 -500 c113 -18 148 -48 87 -74 -120
-50 -559 -38 -614 17 -14 15 -13 18 12 34 15 9 43 21 63 25 58 11 380 10 452
-2z m-4114 -450 c61 0 123 3 137 6 l26 7 -15 -48 c-23 -77 -47 -116 -84 -136
-75 -39 -154 -9 -193 74 -14 29 -28 66 -32 82 -6 27 -5 28 21 22 15 -4 78 -7
140 -7z m2783 -88 c-14 -65 -49 -107 -100 -121 -80 -22 -155 24 -179 108 -5
20 -10 40 -10 44 0 3 42 4 93 2 59 -3 112 0 147 9 30 7 56 13 58 12 1 -1 -3
-25 -9 -54z"/>
<path d="M7930 4537 c0 -17 11 -28 45 -45 58 -28 79 -68 73 -138 -5 -60 -40
-114 -89 -139 -21 -11 -29 -23 -29 -41 0 -23 3 -25 27 -19 67 16 133 99 148
186 14 78 -34 166 -110 200 -53 24 -65 24 -65 -4z"/>
<path d="M5 1900 c0 -1026 1 -1445 2 -932 2 512 2 1352 0 1865 -1 512 -2 93
-2 -933z"/>
<path d="M2210 2954 c-8 -1 -125 -19 -260 -39 -555 -83 -581 -89 -545 -124 12
-13 28 -12 117 1 57 9 207 32 333 52 127 19 271 41 320 49 85 12 90 14 90 37
0 25 -19 33 -55 24z"/>
</g>
</svg>
