<?xml version="1.0" standalone="no"?>
<!DOCTYPE svg PUBLIC "-//W3C//DTD SVG 20010904//EN"
 "http://www.w3.org/TR/2001/REC-SVG-20010904/DTD/svg10.dtd">
<svg version="1.0" xmlns="http://www.w3.org/2000/svg"
 width="1024.000000pt" height="1024.000000pt" viewBox="0 0 1024.000000 1024.000000"
 preserveAspectRatio="xMidYMid meet">
<metadata>
Created by potrace 1.16, written by Peter Selinger 2001-2019
</metadata>
<g transform="translate(0.000000,1024.000000) scale(0.100000,-0.100000)"
fill="#000000" stroke="none">
<path d="M4467 7334 c-1 -1 -31 -5 -67 -8 -116 -10 -264 -41 -309 -65 -13 -7
-22 -8 -26 -1 -3 5 -12 10 -18 10 -8 0 -7 -3 2 -9 11 -7 8 -11 -10 -16 -40
-13 -168 -74 -209 -100 -22 -14 -44 -26 -50 -27 -29 -7 -201 -167 -255 -238
-55 -72 -110 -167 -132 -229 -9 -27 -20 -48 -23 -46 -3 2 -5 -9 -6 -23 0 -15
-4 -45 -7 -67 -21 -124 -18 -201 9 -320 4 -16 8 -40 8 -52 1 -12 3 -20 5 -18
2 3 22 -30 43 -73 22 -42 55 -97 74 -121 19 -24 34 -51 34 -60 0 -24 -106
-202 -115 -193 -5 4 -5 2 -1 -5 4 -7 0 -26 -9 -43 -23 -44 -16 -89 17 -113 23
-17 42 -21 105 -20 81 1 233 30 327 63 45 15 57 16 72 6 9 -7 14 -18 10 -24
-5 -8 1 -12 16 -12 18 0 20 2 8 10 -24 16 -9 12 68 -18 40 -15 70 -30 67 -34
-3 -3 5 -3 18 -1 23 5 62 -21 53 -35 -2 -4 9 -7 24 -7 16 0 28 5 27 10 -1 6 3
9 9 8 87 -16 160 -23 264 -23 179 1 250 4 250 13 0 4 7 7 17 7 9 0 40 8 69 17
30 9 57 13 61 8 5 -4 3 -10 -4 -12 -13 -5 -6 -33 9 -33 5 0 6 5 3 10 -15 24
14 7 50 -31 51 -51 189 -146 280 -191 157 -79 327 -117 553 -125 215 -8 398
19 567 82 35 14 66 20 71 15 5 -5 52 -21 104 -35 124 -35 281 -45 328 -21 67
35 66 73 -9 185 -27 40 -46 78 -42 84 3 6 1 7 -5 3 -6 -4 -17 5 -24 19 -13 24
-11 28 33 74 58 61 110 154 140 251 20 63 23 94 22 200 -3 157 -6 199 -15 193
-5 -2 -8 2 -8 9 0 27 -72 164 -120 229 -51 67 -106 123 -198 195 -28 23 -48
45 -44 49 4 5 1 5 -6 1 -7 -5 -33 5 -62 24 -166 107 -419 164 -670 153 -88 -4
-109 -8 -127 -26 -17 -15 -21 -27 -17 -46 11 -48 29 -54 146 -47 117 6 240 -2
232 -15 -3 -5 2 -6 11 -3 18 7 137 -15 131 -25 -2 -3 10 -6 27 -7 42 -1 213
-82 295 -141 81 -58 125 -105 109 -116 -8 -6 -6 -7 4 -4 10 3 26 -5 41 -21 47
-53 50 -59 38 -84 -10 -21 -10 -21 3 -5 14 16 16 15 40 -25 13 -24 33 -68 42
-98 10 -30 23 -65 28 -77 6 -13 8 -25 5 -28 -3 -4 -2 -22 2 -42 10 -43 -12
-181 -41 -259 -26 -70 -79 -147 -102 -150 -11 -1 -22 -6 -25 -10 -4 -4 2 -4
13 0 13 5 5 -8 -22 -36 -23 -24 -43 -50 -44 -58 -4 -20 11 -81 23 -94 12 -15
78 -117 78 -122 0 -2 -6 -1 -14 2 -8 3 -17 1 -20 -4 -3 -5 5 -8 19 -7 13 2 29
-2 34 -9 8 -10 -4 -11 -57 -4 -83 10 -240 57 -224 67 30 18 -76 7 -140 -15
-84 -30 -201 -59 -273 -69 -27 -4 -59 -9 -70 -12 -40 -8 -272 -4 -345 7 -232
32 -430 116 -582 246 -55 48 -68 64 -49 64 24 0 182 82 255 132 22 15 43 25
48 22 5 -3 7 -1 6 3 -2 5 38 50 89 101 50 50 94 100 98 111 3 12 10 21 15 21
12 0 73 112 104 190 38 98 58 228 54 347 -2 57 -6 103 -9 103 -4 0 -10 16 -14
36 -6 37 -70 189 -87 211 -5 7 -7 17 -3 23 4 6 2 9 -3 8 -5 -2 -36 31 -69 72
-60 76 -171 180 -192 180 -6 0 -11 4 -11 8 0 13 -154 96 -251 135 -98 40 -179
63 -259 73 -30 3 -68 8 -85 10 -31 5 -225 11 -228 8z m273 -135 c124 -18 162
-28 155 -39 -3 -5 -1 -12 5 -15 6 -4 9 -2 8 3 -5 18 6 16 92 -17 100 -39 223
-108 215 -121 -3 -6 1 -7 10 -4 20 8 200 -170 189 -188 -4 -6 -3 -8 3 -5 13 8
56 -60 47 -74 -3 -5 0 -8 6 -7 16 4 66 -122 81 -202 16 -84 16 -117 0 -220
-33 -218 -176 -429 -384 -565 -48 -31 -112 -67 -144 -81 -32 -13 -67 -29 -78
-34 -32 -15 -164 -48 -241 -60 -84 -13 -295 -17 -374 -6 -99 14 -262 62 -350
105 -54 26 -84 26 -163 1 -63 -20 -287 -69 -287 -63 0 7 48 98 94 178 25 44
46 87 46 96 0 9 -14 34 -31 55 -90 113 -153 237 -170 337 -15 89 -6 218 21
300 34 104 131 263 153 250 6 -3 7 -1 3 5 -9 14 87 108 172 169 246 177 588
252 922 202z"/>
<path d="M3970 6410 c-12 -12 -20 -33 -20 -54 0 -28 8 -42 48 -76 26 -23 64
-51 85 -62 22 -11 36 -22 33 -25 -3 -3 -12 0 -21 7 -9 7 -18 10 -22 6 -3 -3
-1 -6 5 -6 7 0 11 -3 11 -7 -3 -19 2 -23 19 -14 13 7 36 3 83 -14 36 -13 94
-29 129 -36 36 -7 68 -17 72 -23 6 -8 8 -8 8 1 0 7 29 11 93 11 95 0 173 14
266 50 30 12 59 18 65 15 6 -3 8 -3 4 2 -5 5 14 23 40 41 58 38 112 98 112
122 0 24 -20 49 -46 56 -15 5 -32 -4 -65 -34 -72 -65 -213 -127 -307 -135 -18
-2 -43 -6 -56 -9 -21 -5 -124 5 -186 18 -91 20 -194 77 -256 144 -46 47 -65
51 -94 22z"/>
<path d="M1958 6820 c-114 -20 -203 -59 -298 -133 -135 -105 -225 -243 -270
-412 -29 -109 -30 -316 -1 -425 19 -75 65 -195 83 -217 5 -7 6 -18 2 -25 -4
-7 -4 -10 1 -6 4 4 32 -24 62 -63 30 -38 84 -91 119 -118 73 -56 75 -51 -39
-98 -44 -18 -85 -37 -92 -43 -8 -7 -20 -8 -26 -4 -8 4 -9 3 -5 -4 4 -7 3 -12
-2 -12 -6 0 -34 -16 -63 -35 -29 -20 -58 -34 -66 -31 -7 3 -12 1 -10 -3 1 -5
-27 -34 -62 -65 -59 -51 -65 -54 -78 -38 -13 16 -13 15 -4 -3 8 -17 0 -31 -47
-86 -61 -69 -132 -171 -132 -188 0 -6 -4 -11 -8 -11 -5 0 -17 -18 -27 -40 -10
-22 -21 -40 -25 -40 -4 0 -7 -6 -6 -12 2 -19 -56 -188 -63 -184 -3 2 -7 -12
-7 -32 -1 -21 -6 -64 -12 -97 -15 -87 -24 -218 -16 -238 9 -24 56 -47 82 -40
26 6 30 18 37 103 23 266 83 450 203 620 123 174 284 295 531 399 80 34 107
51 122 75 33 54 26 84 -33 135 -130 114 -203 196 -240 271 -136 276 -92 617
106 816 121 121 245 175 406 175 131 0 176 -10 288 -62 41 -19 61 -33 56 -41
-4 -7 -3 -8 5 -4 21 13 156 -97 144 -117 -3 -6 -2 -7 4 -4 26 17 157 -225 151
-280 -2 -17 -1 -30 3 -27 14 8 19 -29 7 -44 -8 -10 -8 -13 -2 -9 14 8 24 -46
12 -65 -6 -10 -8 -10 -8 0 0 6 -4 12 -9 12 -11 0 -8 -117 3 -128 4 -3 6 15 5
41 -2 25 0 50 4 53 4 4 7 -23 7 -60 0 -39 -4 -65 -9 -61 -5 3 -13 0 -17 -6 -5
-8 -3 -9 6 -4 9 6 11 -1 7 -31 -15 -122 -75 -239 -175 -346 -68 -72 -114 -104
-134 -92 -6 4 -8 3 -5 -3 4 -5 -5 -16 -19 -24 -39 -20 -74 -67 -74 -98 0 -45
27 -69 138 -124 59 -29 132 -69 162 -88 82 -53 181 -139 173 -151 -3 -6 -1 -8
4 -5 20 12 119 -96 106 -116 -3 -6 -1 -7 5 -3 14 9 66 -60 56 -75 -5 -8 -3 -9
6 -4 10 6 12 4 7 -9 -4 -9 -3 -15 2 -11 13 7 43 -44 86 -145 52 -120 78 -229
90 -362 5 -70 13 -85 45 -96 24 -9 34 -7 53 8 22 17 24 26 22 87 -5 160 -56
343 -136 491 -21 41 -36 79 -33 84 4 7 2 8 -4 4 -7 -4 -21 9 -35 31 -14 21
-39 55 -56 77 -17 21 -28 42 -25 47 3 5 1 8 -4 7 -6 -2 -45 31 -89 73 -72 70
-243 197 -286 212 -10 4 -16 11 -13 16 3 5 0 8 -7 7 -14 -1 -107 37 -107 44 0
3 36 32 81 65 116 85 182 169 241 309 36 85 68 251 68 356 0 182 -101 433
-219 544 -17 17 -31 36 -31 43 0 8 -4 12 -9 8 -5 -3 -13 0 -17 6 -13 21 -152
106 -210 128 -33 13 -68 27 -79 31 -68 27 -256 37 -357 20z"/>
<path d="M8003 6819 c-11 -4 -36 -10 -55 -13 -20 -3 -48 -10 -63 -16 -16 -6
-35 -8 -42 -6 -8 3 -12 2 -9 -3 3 -4 -13 -17 -37 -27 -70 -32 -149 -88 -206
-147 -30 -31 -59 -53 -65 -50 -6 3 -8 3 -4 -2 4 -4 -10 -33 -30 -64 -111 -166
-157 -348 -141 -553 12 -155 67 -311 145 -414 20 -26 31 -50 28 -61 -4 -13 0
-20 10 -20 13 0 13 3 3 16 -6 8 16 -8 51 -37 35 -29 77 -59 93 -67 16 -9 27
-20 24 -25 -3 -6 0 -7 7 -5 8 3 22 -1 33 -9 15 -12 16 -15 5 -16 -8 0 -44 -14
-78 -30 -35 -17 -69 -27 -74 -23 -7 3 -8 1 -4 -5 4 -6 -5 -17 -21 -26 -37 -19
-145 -99 -217 -161 -32 -27 -62 -49 -68 -47 -5 1 -7 -2 -4 -7 7 -11 -43 -73
-53 -66 -4 2 -8 -1 -8 -8 0 -17 -84 -127 -96 -127 -6 0 -8 -3 -4 -6 3 -3 -14
-43 -37 -87 -85 -160 -123 -294 -143 -492 -6 -62 17 -95 65 -95 42 0 58 27 61
101 3 93 55 282 106 387 107 223 264 392 486 523 58 35 73 40 81 28 8 -11 9
-11 5 2 -4 13 9 22 55 40 62 25 102 57 111 88 8 33 -21 80 -67 109 -25 16 -42
32 -39 36 4 4 0 4 -8 1 -31 -12 -199 131 -184 156 5 8 4 10 -3 5 -21 -13 -120
179 -108 210 3 7 1 14 -4 16 -17 6 -33 151 -26 238 15 195 74 329 201 455 103
103 142 129 251 166 77 26 103 30 194 30 58 0 114 -2 125 -4 96 -24 129 -35
190 -68 39 -21 69 -43 67 -49 -1 -5 4 -9 10 -8 7 2 12 -2 11 -9 -2 -7 3 -10
11 -7 8 3 31 -16 58 -48 75 -91 74 -88 57 -100 -11 -8 -11 -9 3 -4 20 6 43
-27 32 -46 -4 -6 -3 -8 4 -4 15 9 49 -88 64 -186 17 -106 1 -307 -22 -293 -6
3 -7 -1 -4 -10 7 -17 -49 -163 -74 -194 -10 -11 -28 -36 -42 -56 -14 -19 -30
-33 -37 -30 -7 2 -10 -2 -7 -9 6 -16 -94 -98 -109 -89 -5 3 -7 2 -4 -4 3 -5
-7 -20 -23 -32 -42 -30 -63 -76 -56 -117 7 -35 35 -60 94 -84 25 -10 30 -15
20 -22 -9 -6 -6 -7 9 -3 24 7 166 -62 157 -76 -3 -5 1 -6 8 -4 8 3 22 -2 33
-11 11 -8 14 -12 6 -8 -9 4 -12 3 -7 -4 4 -6 12 -9 19 -7 16 7 153 -98 149
-114 -1 -7 2 -9 9 -5 17 10 30 -18 16 -36 -10 -13 -10 -13 3 -3 13 10 22 6 52
-23 25 -23 35 -40 32 -52 -4 -12 -3 -13 3 -4 10 14 30 -5 76 -73 20 -29 23
-41 14 -47 -8 -5 -7 -8 5 -8 24 0 101 -153 93 -183 -4 -14 -3 -17 2 -10 18 26
70 -176 82 -320 9 -105 19 -127 61 -127 52 0 62 26 56 143 -20 364 -207 699
-518 924 -43 31 -75 61 -71 66 3 6 1 7 -5 4 -15 -10 -43 3 -35 16 3 5 2 7 -4
4 -5 -3 -41 9 -79 28 -38 19 -73 35 -79 35 -5 0 -21 9 -34 19 l-23 18 51 37
c148 109 272 311 301 489 18 112 14 273 -8 363 -65 266 -286 492 -527 540 -5
1 -30 7 -53 13 -47 13 -245 13 -279 0z"/>
<path d="M5777 6079 c-25 -15 -47 -63 -47 -103 0 -37 32 -79 68 -90 44 -14 98
30 102 84 4 49 0 62 -29 91 -30 30 -63 36 -94 18z"/>
<path d="M6055 6057 c-26 -26 -35 -44 -35 -68 0 -27 -3 -31 -11 -19 -9 12 -10
12 -5 -3 3 -10 6 -21 6 -23 0 -3 5 -2 10 1 6 3 10 2 10 -4 0 -5 -3 -11 -7 -14
-5 -2 -3 -3 3 -1 6 1 18 -6 27 -17 11 -13 30 -19 56 -19 72 0 113 79 76 149
-8 16 -12 31 -10 33 3 3 -1 5 -7 6 -7 1 -28 4 -45 8 -28 5 -38 1 -68 -29z"/>
<path d="M6355 6068 c-24 -18 -31 -32 -34 -65 -7 -111 100 -163 152 -74 55 93
-38 200 -118 139z"/>
</g>
</svg>
