<?xml version="1.0" standalone="no"?>
<!DOCTYPE svg PUBLIC "-//W3C//DTD SVG 20010904//EN"
 "http://www.w3.org/TR/2001/REC-SVG-20010904/DTD/svg10.dtd">
<svg version="1.0" xmlns="http://www.w3.org/2000/svg"
 width="1024.000000pt" height="1024.000000pt" viewBox="0 0 1024.000000 1024.000000"
 preserveAspectRatio="xMidYMid meet">
<metadata>
Created by potrace 1.16, written by Peter Selinger 2001-2019
</metadata>
<g transform="translate(0.000000,1024.000000) scale(0.100000,-0.100000)"
fill="#000000" stroke="none">
<path d="M3110 8715 c0 -8 -230 -12 -722 -13 l-723 -3 -30 -30 -30 -29 0
-2778 c0 -1527 2 -2787 5 -2799 2 -12 7 -21 10 -20 3 1 16 -5 30 -13 22 -13
285 -15 1975 -18 1073 -1 1993 -3 2047 -5 53 -1 94 1 91 6 -2 4 2 7 10 7 24 0
47 35 47 72 0 54 -32 78 -113 82 -37 2 -73 9 -82 16 -12 10 -16 9 -21 -4 -3
-9 -13 -16 -21 -16 -8 0 -12 4 -9 9 3 4 -6 6 -19 3 -14 -2 -31 1 -39 7 -11 9
-16 9 -22 0 -5 -8 -3 -9 6 -4 9 5 11 4 6 -4 -9 -14 -109 -7 -114 8 -2 6 -10
11 -18 11 -10 0 -12 -5 -8 -12 5 -8 0 -7 -11 2 -11 9 -16 10 -11 2 5 -8 0 -12
-13 -12 -12 0 -21 5 -21 10 0 15 -26 12 -40 -5 -12 -14 -35 -11 -26 3 2 4 -11
8 -29 8 -19 0 -33 -4 -32 -10 1 -6 -5 -9 -13 -7 -19 4 -24 4 -83 -3 -38 -4
-48 -2 -44 8 4 10 -6 13 -38 12 -24 0 -41 -5 -38 -9 3 -5 18 -7 34 -5 16 3 29
1 29 -3 0 -4 -34 -8 -76 -8 -62 0 -75 3 -70 15 3 8 -1 14 -10 14 -8 0 -12 -4
-9 -10 3 -5 -3 -11 -14 -11 -12 -1 -27 -2 -33 -3 -7 -1 -19 5 -26 14 -11 13
-12 13 -10 0 2 -12 -8 -15 -50 -15 -31 0 -58 5 -64 13 -6 6 -16 12 -22 12 -6
0 -4 -5 4 -10 18 -11 2 -14 -102 -14 -48 -1 -68 3 -68 12 0 6 -4 12 -10 12 -5
0 -10 -6 -10 -12 0 -20 -251 -18 -276 2 -10 9 -15 10 -10 3 7 -12 -22 -20 -49
-13 -5 2 -18 2 -28 2 -9 0 -15 3 -12 9 4 5 1 9 -4 9 -6 0 -11 -4 -11 -10 0 -5
-13 -10 -30 -10 -16 0 -30 4 -30 8 0 5 -6 9 -14 9 -8 0 -12 -6 -9 -14 3 -9 -3
-13 -22 -13 -14 0 -24 4 -20 9 3 5 0 13 -6 17 -8 4 -9 3 -5 -4 10 -16 -7 -15
-23 1 -8 7 -11 7 -8 1 4 -7 -2 -14 -12 -17 -12 -3 -22 1 -25 9 -3 8 -11 14
-18 14 -9 0 -8 -3 2 -10 11 -7 6 -10 -22 -10 -20 0 -40 5 -43 10 -3 6 -12 10
-18 10 -8 0 -7 -3 2 -9 11 -7 10 -10 -5 -13 -10 -2 -30 -2 -42 0 -18 4 -20 7
-10 13 8 6 1 9 -21 9 -33 0 -34 -1 -15 -15 18 -14 18 -14 -6 -15 -14 0 -36 3
-48 7 -18 4 -21 8 -10 15 9 7 8 8 -7 5 -11 -2 -19 -9 -17 -16 3 -16 -30 -10
-45 9 -6 8 -15 12 -19 7 -4 -4 -1 -7 7 -7 11 0 11 -2 -1 -10 -23 -15 -60 -12
-60 5 0 10 -9 14 -24 13 -14 -1 -22 -6 -20 -10 3 -4 -4 -8 -15 -8 -11 0 -23 5
-26 10 -3 6 -12 10 -18 10 -7 0 -6 -4 3 -10 8 -5 13 -10 10 -11 -42 -9 -70 -8
-70 2 0 7 -4 8 -12 2 -7 -5 -28 -10 -47 -12 -24 -2 -31 1 -26 10 5 8 4 10 -4
5 -6 -4 -18 -3 -25 3 -11 9 -18 8 -29 -4 -19 -18 -31 -20 -21 -2 5 7 0 6 -11
-3 -17 -14 -18 -13 -12 3 4 11 1 17 -9 17 -8 0 -13 -4 -9 -9 10 -17 -13 -22
-28 -6 -17 17 -31 20 -22 6 7 -12 -21 -21 -62 -19 -33 1 -44 12 -20 21 6 3 2
6 -11 6 -13 1 -20 -3 -17 -9 4 -6 -11 -10 -37 -11 -24 -1 -58 -2 -75 -3 -21
-1 -33 3 -33 11 0 7 -4 13 -10 13 -5 0 -7 -7 -4 -15 7 -16 -11 -21 -21 -5 -3
5 -12 7 -20 3 -8 -3 -15 0 -15 6 0 6 -8 11 -17 11 -14 0 -15 -2 -4 -9 10 -7
10 -10 1 -16 -7 -4 -16 -1 -21 6 -5 9 -9 10 -9 2 0 -7 -9 -9 -22 -5 -21 5 -21
6 -2 13 16 6 15 7 -7 6 -15 -1 -25 -6 -23 -12 3 -7 -8 -10 -31 -7 -22 3 -33 8
-29 16 3 6 -1 3 -8 -6 -12 -14 -28 -16 -109 -11 -52 3 -95 10 -97 14 -5 13
-30 11 -34 -2 -2 -6 -34 -13 -71 -14 -40 -2 -65 0 -62 6 3 5 -1 6 -9 3 -9 -3
-16 -1 -16 5 0 6 -5 11 -11 11 -5 0 -7 -4 -4 -10 4 -6 -6 -10 -22 -10 -15 0
-45 -3 -66 -6 -28 -5 -37 -3 -35 6 2 7 -3 14 -10 16 -7 1 -8 0 -2 -3 5 -2 8
-9 4 -14 -7 -13 -64 -11 -64 2 0 6 -8 8 -19 4 -11 -3 -51 -8 -90 -10 l-70 -3
-3 106 c-2 59 -3 1266 -3 2682 l0 2575 1192 1 c852 0 1190 -2 1186 -10 -4 -6
0 -6 8 1 19 15 455 18 493 3 14 -5 28 -6 30 -1 3 5 244 9 536 10 l530 1 0
-970 0 -971 27 -25 c34 -31 77 -27 110 12 l23 25 -3 1014 -2 1015 -31 30 -31
31 -831 1 c-458 1 -832 4 -832 7 0 4 -9 7 -20 8 -11 1 -18 -2 -15 -7 8 -13
-127 -11 -144 3 -10 8 -13 8 -8 1 8 -14 -180 -18 -249 -5 -24 5 -47 5 -50 0
-2 -4 -59 -8 -124 -8 -66 1 -118 5 -115 9 3 4 -12 4 -33 -1 -52 -11 -285 -7
-294 6 -5 7 -8 7 -8 0z"/>
<path d="M2760 8273 c0 -8 -81 -11 -307 -12 -170 0 -318 0 -330 -1 -12 0 -28
-7 -36 -15 -8 -8 -17 -12 -19 -10 -7 8 -9 -11 -15 -145 -3 -72 -10 -131 -16
-139 -9 -12 -9 -13 1 -7 9 6 12 -82 12 -426 0 -333 -3 -437 -12 -447 -10 -11
-10 -13 0 -7 18 10 18 -774 0 -793 -10 -11 -10 -13 0 -7 9 6 12 -43 12 -228 0
-151 -4 -236 -10 -236 -5 0 -10 -5 -10 -11 0 -5 5 -7 10 -4 16 10 13 -377 -2
-394 -10 -11 -10 -13 0 -7 9 6 12 -130 12 -666 0 -525 -3 -677 -12 -687 -10
-11 -10 -13 0 -7 9 6 12 -45 12 -239 0 -265 6 -300 52 -327 19 -11 304 -13
1589 -13 861 0 1598 2 1637 5 118 9 129 33 124 263 l-3 129 -30 16 c-16 9 -29
23 -29 30 0 6 -6 12 -12 12 -16 0 -47 -19 -33 -20 6 -1 -2 -8 -17 -16 -16 -8
-28 -19 -28 -25 0 -6 -3 -8 -7 -6 -5 3 -7 -49 -6 -114 l2 -119 -1260 1 c-693
0 -1259 2 -1257 4 13 13 260 84 274 79 16 -5 17 -4 4 6 -13 10 -11 11 7 7 12
-3 23 -1 25 3 2 4 125 47 273 95 149 48 293 96 322 106 92 35 83 -164 83 1974
0 1075 -4 1884 -9 1881 -5 -3 -11 1 -15 9 -7 18 -25 27 -138 61 -48 14 -86 30
-83 34 3 5 -3 6 -12 4 -15 -4 -756 236 -768 247 -2 2 218 2 488 -1 271 -2 437
-6 369 -8 -67 -1 -121 -6 -118 -10 2 -4 80 -5 173 -3 115 3 152 7 118 11 -27
4 160 8 418 8 341 2 466 -1 465 -9 -2 -8 32 -12 107 -14 136 -3 192 8 85 16
-41 3 44 6 190 6 156 1 257 -2 245 -7 -13 -6 -15 -9 -5 -9 13 -1 15 -107 13
-903 -1 -553 2 -896 7 -888 8 13 10 12 11 -2 1 -10 2 -23 3 -30 3 -25 98 -28
126 -3 20 18 20 23 20 980 0 734 -3 964 -12 973 -7 7 -8 12 -2 12 5 1 -6 7
-24 15 -28 12 -116 15 -499 15 -304 1 -473 5 -486 12 -11 5 -17 6 -14 0 4 -5
-176 -9 -480 -10 -371 -1 -489 2 -495 11 -6 9 -8 9 -8 0 0 -8 -14 -13 -35 -13
-21 0 -35 5 -35 13 0 7 -3 8 -8 2 -12 -16 -110 -19 -129 -3 -12 9 -15 9 -9 0
10 -17 -435 -16 -446 1 -6 9 -8 9 -8 0z m-448 -189 c45 -15 89 -34 96 -43 7
-9 10 -10 6 -2 -5 10 -3 13 7 9 8 -3 87 -29 177 -59 116 -38 157 -56 145 -62
-13 -5 -11 -6 7 -2 25 4 130 -23 130 -35 0 -3 9 -6 20 -7 11 -1 119 -35 240
-75 157 -52 220 -77 220 -88 0 -9 3 -11 8 -4 10 15 72 -3 72 -21 0 -8 8 -15
18 -15 15 0 15 2 2 10 -11 8 -7 9 13 4 52 -12 118 -40 111 -47 -4 -4 -2 -7 4
-7 9 0 12 -424 10 -1797 l-3 -1798 -215 -72 c-130 -43 -225 -70 -240 -67 -16
3 -20 1 -12 -4 15 -10 -283 -106 -300 -96 -6 4 -8 3 -5 -3 8 -12 -408 -147
-424 -137 -7 4 -9 3 -5 -4 8 -13 -48 -27 -65 -16 -8 4 -9 3 -5 -4 6 -10 -77
-42 -109 -42 -8 0 -11 619 -13 2236 -2 2130 -2 2237 15 2251 10 8 13 12 6 9
-6 -4 -14 -2 -18 4 -10 16 18 12 107 -16z"/>
<path d="M6868 7303 c-9 -10 -24 -44 -34 -76 -14 -46 -20 -55 -26 -40 -6 12
-7 9 -3 -10 6 -29 -63 -289 -78 -295 -4 -2 -5 -7 -2 -12 3 -4 -9 -52 -25 -105
-17 -54 -30 -104 -30 -111 0 -8 -7 -14 -15 -14 -21 0 -16 -71 5 -78 13 -5 13
-3 1 11 -22 28 -5 19 27 -13 36 -36 62 -38 96 -7 21 18 38 66 91 252 36 127
70 231 75 233 5 2 7 9 4 16 -3 7 7 48 20 92 32 98 32 116 2 148 -28 31 -85 35
-108 9z"/>
<path d="M7830 6911 c0 -6 -8 -11 -19 -11 -10 0 -60 -42 -111 -94 -51 -52 -98
-93 -104 -92 -6 2 -7 1 -3 -2 5 -2 -6 -19 -24 -38 -18 -18 -37 -30 -43 -27 -6
3 -8 2 -3 -2 10 -11 -83 -106 -96 -98 -6 3 -7 2 -4 -4 8 -13 -67 -86 -78 -76
-4 5 -5 3 -2 -3 3 -6 -7 -24 -23 -39 -17 -16 -30 -25 -30 -19 0 5 -12 -13 -26
-40 -16 -30 -24 -59 -22 -77 3 -16 0 -25 -5 -22 -6 3 -7 1 -3 -6 12 -19 79
-42 107 -36 16 4 68 49 134 116 59 60 112 106 117 102 7 -3 8 -1 4 6 -5 7 49
70 148 170 85 87 158 169 161 183 7 27 -18 88 -35 88 -5 0 -16 7 -24 16 -9 8
-16 11 -16 5z"/>
<path d="M5737 6240 c-16 -5 -36 -6 -45 -3 -10 4 -14 3 -10 -2 4 -4 -11 -21
-33 -37 -49 -35 -97 -109 -106 -160 -5 -33 -9 -38 -32 -38 -20 0 -23 -2 -11
-10 11 -7 7 -10 -19 -10 -123 0 -231 -105 -248 -240 -7 -60 11 -146 53 -248
19 -45 34 -86 34 -90 0 -4 -25 -15 -55 -24 -65 -21 -105 -60 -142 -138 -23
-47 -26 -67 -25 -145 0 -49 8 -112 16 -140 8 -27 13 -59 10 -71 -3 -12 -1 -25
4 -28 6 -4 8 3 6 16 -3 13 12 -17 32 -67 25 -61 37 -109 39 -150 4 -76 3 -73
21 -50 16 20 16 19 9 -4 -4 -14 -3 -21 3 -17 14 9 46 -82 47 -133 0 -27 5 -46
13 -49 9 -3 10 3 2 24 -6 15 -9 29 -7 31 5 4 87 -228 86 -242 0 -5 -4 -1 -9
10 -6 13 -9 15 -9 5 0 -8 6 -28 14 -45 13 -27 14 -27 10 -5 -4 19 -1 17 11 -9
8 -18 13 -40 10 -48 -3 -8 -2 -12 3 -9 5 3 12 -1 15 -10 5 -12 2 -15 -11 -10
-11 4 -9 -1 6 -13 17 -13 24 -29 24 -50 0 -20 3 -27 9 -19 5 9 8 9 8 1 0 -6 3
-20 6 -30 5 -15 4 -15 -5 -3 -9 13 -11 13 -11 -2 0 -10 6 -18 14 -18 17 0 30
-35 20 -51 -4 -7 -3 -9 3 -6 14 9 44 -72 38 -103 -5 -21 -4 -22 3 -5 9 19 9
19 16 -2 4 -13 4 -28 0 -34 -4 -7 -3 -9 3 -6 13 8 67 -118 57 -134 -4 -7 -3
-9 3 -6 5 3 20 -15 32 -40 17 -35 18 -43 7 -33 -14 11 -16 10 -10 -4 3 -9 11
-16 18 -16 7 0 24 -26 39 -57 22 -47 24 -53 7 -33 -11 14 -19 18 -18 10 2 -8
7 -18 12 -22 6 -4 4 -14 -5 -24 -12 -16 -12 -17 1 -9 8 5 21 10 28 11 18 3 52
-69 45 -95 -3 -12 -1 -21 6 -21 5 0 8 7 5 15 -13 32 7 13 41 -41 19 -30 33
-59 29 -65 -3 -5 -1 -8 4 -7 13 4 104 -121 97 -133 -4 -5 -2 -8 3 -7 13 4 92
-94 85 -105 -3 -6 -2 -7 4 -4 5 3 41 -26 79 -65 74 -75 182 -167 251 -213 24
-15 40 -31 38 -36 -3 -4 0 -11 6 -15 8 -4 9 -3 5 4 -12 19 3 14 51 -19 70 -48
114 -90 106 -102 -3 -6 -1 -7 5 -3 15 9 85 -61 76 -76 -4 -7 -3 -8 4 -4 14 9
74 -53 65 -67 -3 -6 -1 -7 4 -4 13 8 46 -27 36 -37 -5 -4 -3 -6 3 -4 17 5 146
-150 138 -165 -4 -6 -4 -9 1 -5 11 10 37 -11 29 -23 -3 -5 -1 -8 4 -7 15 4
203 -232 195 -244 -3 -6 -1 -8 4 -5 6 4 32 -19 57 -50 36 -43 44 -59 34 -66
-10 -6 -9 -7 4 -4 20 7 43 -17 32 -34 -4 -7 -3 -9 4 -5 10 6 60 -53 54 -64 -1
-3 2 -5 8 -5 5 0 21 -15 34 -34 21 -28 23 -37 14 -50 -10 -13 -10 -14 2 -4 15
14 34 18 27 6 -3 -5 17 -8 43 -8 27 0 47 2 44 4 -2 2 6 15 16 29 24 30 25 60
4 90 -8 12 -12 22 -9 22 3 0 -10 14 -30 31 -19 17 -35 40 -35 50 0 10 -5 18
-10 16 -14 -3 -241 274 -233 286 3 6 1 7 -5 3 -11 -7 -79 80 -74 96 1 5 -2 7
-7 4 -5 -3 -22 11 -37 32 -16 20 -68 83 -116 139 -63 73 -86 107 -82 120 4 13
3 14 -4 5 -7 -10 -19 -2 -51 35 -60 68 -195 188 -268 238 -35 23 -60 45 -55
49 4 4 2 7 -3 6 -22 -5 -36 1 -29 12 4 7 3 8 -4 4 -18 -11 -116 66 -241 190
-76 75 -111 116 -106 124 5 8 4 11 -2 7 -13 -8 -126 140 -118 154 4 5 1 8 -5
7 -15 -4 -142 212 -135 230 3 7 0 10 -5 7 -12 -8 -82 135 -75 153 3 7 1 11 -4
8 -13 -9 -102 208 -95 230 4 13 3 15 -3 7 -12 -17 -86 186 -78 212 6 16 5 17
-4 5 -6 -8 -11 -12 -11 -9 0 4 -34 100 -75 214 -41 115 -72 212 -70 216 3 4 1
9 -4 11 -5 1 -43 96 -85 209 -59 158 -75 214 -71 240 4 27 3 30 -5 14 -7 -15
-9 4 -7 68 2 84 4 90 31 113 22 20 37 24 69 22 37 -3 44 -8 64 -43 15 -25 21
-49 18 -65 -4 -18 -3 -21 4 -11 6 10 9 4 8 -22 -1 -22 -5 -33 -11 -30 -6 4 -7
2 -3 -2 10 -11 37 -15 37 -6 0 4 -5 12 -12 19 -7 7 -8 12 -2 12 10 0 57 -102
54 -116 -1 -4 3 -10 8 -13 15 -9 83 -162 76 -172 -2 -5 2 -21 11 -36 9 -16 14
-20 11 -10 -16 49 -13 46 20 -23 20 -41 38 -90 40 -109 1 -18 8 -39 15 -45 9
-8 10 -7 5 7 -18 50 -13 45 24 -26 22 -43 38 -82 35 -87 -3 -4 -1 -10 4 -12
11 -4 82 -144 75 -150 -2 -3 3 -11 13 -19 11 -9 14 -10 9 -2 -5 9 1 11 22 7
38 -8 88 18 96 50 4 17 -6 51 -34 110 -21 48 -37 93 -34 100 3 8 1 17 -5 21
-7 4 -9 -1 -5 -12 3 -10 -4 -1 -16 20 -11 21 -18 43 -14 49 4 6 3 8 -3 5 -13
-8 -38 49 -35 80 1 13 -4 23 -11 23 -16 0 -78 125 -71 144 3 8 1 17 -5 21 -7
4 -9 -1 -6 -12 3 -10 -4 0 -15 22 -11 22 -17 46 -15 53 3 7 1 11 -4 8 -5 -3
-32 47 -61 112 -29 64 -73 160 -97 212 -24 52 -41 100 -38 108 2 7 1 11 -4 8
-14 -9 -82 152 -76 182 4 20 3 22 -3 8 -7 -15 -10 -11 -22 23 -39 118 4 221
93 221 29 0 80 -37 71 -52 -4 -7 -2 -8 4 -4 15 9 31 -23 28 -60 -1 -18 3 -31
10 -31 7 0 10 6 7 14 -13 33 6 8 32 -42 18 -36 28 -72 28 -100 0 -31 3 -42 13
-38 7 2 10 12 7 21 -9 25 2 11 22 -27 9 -18 12 -30 6 -27 -6 4 -11 2 -11 -3 0
-6 6 -11 13 -11 20 0 35 -40 29 -81 -2 -23 1 -40 9 -44 8 -5 10 -4 5 3 -4 7
-1 12 9 12 11 0 15 -5 11 -16 -3 -8 -2 -13 3 -10 11 7 102 -193 94 -207 -3 -5
-2 -7 4 -4 6 4 38 -52 74 -130 65 -139 83 -180 54 -130 -25 43 -28 27 -5 -21
20 -40 36 -59 24 -27 -4 8 -3 15 0 15 3 0 17 -23 31 -52 19 -40 22 -54 13 -60
-10 -6 -9 -8 3 -8 9 0 20 -7 23 -16 3 -8 2 -13 -3 -10 -5 4 -7 -3 -4 -15 4
-12 9 -16 12 -10 7 10 57 -76 53 -91 -1 -3 12 -12 28 -19 15 -7 26 -17 23 -22
-2 -4 12 -1 34 8 21 9 43 19 49 21 28 12 6 91 -65 233 -39 80 -69 151 -66 158
2 8 1 12 -3 9 -11 -7 -84 143 -76 156 4 6 3 8 -3 5 -6 -4 -26 28 -46 71 -20
42 -59 125 -86 184 -28 59 -48 113 -45 121 3 8 1 18 -5 22 -7 4 -9 -1 -6 -12
3 -10 -19 31 -50 92 -31 60 -53 115 -50 123 2 7 1 11 -3 8 -13 -8 -52 81 -46
101 4 12 3 14 -3 6 -15 -21 -53 70 -53 128 0 85 42 133 110 125 14 -2 30 -4
37 -5 20 -2 74 -52 99 -92 27 -43 30 -54 12 -43 -7 4 -8 3 -4 -5 4 -6 11 -9
15 -6 5 2 22 -21 39 -53 38 -72 55 -115 42 -107 -6 3 -10 12 -10 18 0 7 -7 20
-14 30 -12 16 -14 16 -20 2 -3 -9 -2 -14 2 -11 4 2 14 -9 21 -25 7 -16 18 -29
25 -29 16 0 39 -48 30 -62 -4 -6 -2 -8 3 -5 6 4 14 0 17 -9 3 -8 2 -12 -3 -9
-5 3 -12 1 -16 -5 -3 -5 2 -10 12 -10 12 0 29 -22 51 -66 19 -37 29 -63 23
-59 -16 9 -13 -6 10 -45 11 -19 18 -27 15 -17 -3 9 -9 25 -12 35 -3 9 4 1 14
-18 15 -25 17 -37 9 -42 -8 -5 -7 -8 4 -8 21 0 37 -37 34 -77 -1 -18 2 -33 7
-33 5 0 6 -5 2 -12 -4 -7 -3 -8 4 -4 7 4 12 1 12 -8 0 -8 4 -17 9 -20 5 -4 7
4 5 16 -3 13 14 -12 36 -56 23 -43 39 -85 36 -93 -3 -8 -1 -11 4 -8 13 8 51
-70 44 -92 -4 -13 -3 -15 4 -5 7 11 12 6 20 -17 7 -18 7 -29 2 -26 -15 9 -12
-9 5 -31 13 -16 14 -16 9 -1 -14 39 6 13 30 -39 22 -47 24 -60 14 -73 -11 -14
-11 -14 3 -4 13 10 20 2 49 -55 19 -37 33 -70 32 -73 -1 -6 16 -10 56 -11 43
-1 69 5 70 17 1 5 5 26 8 46 5 28 -1 49 -25 98 -18 34 -29 67 -25 73 4 7 3 8
-4 4 -14 -8 -35 30 -28 50 3 8 2 12 -4 9 -12 -7 -53 82 -44 97 4 7 3 8 -4 4
-14 -8 -46 50 -38 70 3 8 1 12 -4 9 -12 -8 -73 112 -64 127 4 6 3 8 -3 5 -13
-8 -137 249 -127 264 4 7 3 9 -3 6 -13 -8 -37 38 -28 54 5 7 4 10 -2 6 -12 -8
-146 263 -142 288 2 11 15 25 29 33 32 17 116 10 138 -12 10 -10 12 -16 4 -16
-7 0 -12 -7 -12 -15 0 -10 10 -15 33 -15 22 -1 37 -8 50 -25 10 -14 13 -25 7
-25 -5 0 -10 -7 -10 -16 0 -13 3 -14 14 -5 11 10 21 1 50 -47 38 -64 43 -77
24 -66 -8 4 -10 3 -5 -2 5 -5 13 -9 19 -9 15 0 180 -294 172 -308 -4 -7 -4 -9
1 -5 11 11 38 -29 29 -44 -4 -6 -3 -8 3 -5 14 9 22 -12 19 -51 -1 -21 3 -32
11 -32 7 0 10 6 7 15 -4 8 -4 15 -1 15 8 0 80 -124 80 -137 0 -7 4 -13 8 -13
15 0 99 -157 93 -174 -3 -9 -1 -16 6 -16 6 0 8 5 5 10 -3 6 -4 10 -1 10 13 0
29 -48 27 -77 -1 -24 3 -33 14 -33 10 0 14 5 10 13 -4 6 1 3 10 -8 9 -11 14
-28 11 -38 -2 -9 0 -15 4 -12 9 6 42 -97 60 -190 24 -119 9 -348 -22 -328 -7
4 -9 0 -5 -10 7 -18 -62 -239 -72 -232 -3 2 -6 -9 -7 -23 0 -15 -9 -61 -18
-102 -26 -110 -24 -300 4 -405 12 -44 22 -85 23 -92 0 -7 4 -10 9 -7 4 3 8 1
8 -5 0 -15 37 -23 70 -16 40 9 54 37 55 114 1 35 -1 56 -5 46 -9 -25 -30 107
-30 187 0 90 20 171 91 380 61 179 63 185 67 308 3 103 0 144 -19 230 -12 58
-22 128 -22 155 1 34 -2 43 -7 30 -13 -34 -25 48 -25 175 0 108 2 119 30 175
29 57 32 60 65 58 31 -2 32 -1 10 6 -16 6 -19 9 -8 10 31 2 49 -11 68 -50 34
-65 73 -200 49 -169 -9 13 -10 12 -5 -3 3 -10 6 -24 6 -30 0 -8 3 -7 9 1 9 15
58 -159 54 -191 -2 -10 1 -16 6 -13 11 7 36 -99 26 -114 -6 -9 -4 -11 5 -5 10
6 12 3 8 -13 -4 -14 -2 -20 5 -15 6 4 8 -2 4 -16 -3 -13 -3 -20 1 -16 3 3 14
-22 24 -57 19 -66 23 -97 8 -63 -7 15 -9 9 -7 -22 2 -46 13 -58 19 -20 3 24
57 -179 62 -235 2 -19 5 -39 8 -44 3 -5 9 -45 12 -89 3 -52 2 -71 -3 -55 -9
24 -9 23 -8 -7 1 -17 6 -31 12 -30 10 2 13 -183 6 -368 -4 -96 -10 -121 -22
-89 -6 16 -8 16 -8 2 -1 -9 4 -20 9 -23 6 -3 9 -27 9 -53 -2 -46 -2 -46 -9
-12 -6 30 -7 26 -6 -22 0 -31 4 -54 8 -52 4 3 5 12 2 22 -5 14 -4 15 5 2 6 -8
11 -33 11 -55 1 -94 49 -226 119 -329 32 -46 38 -62 21 -51 -5 3 -10 1 -10 -5
0 -6 6 -10 14 -8 20 4 86 -78 81 -102 -2 -12 0 -18 6 -15 5 4 6 12 3 18 -4 7
5 1 21 -13 15 -14 34 -40 42 -58 7 -18 18 -30 24 -27 11 7 52 -40 55 -63 2 -8
6 -17 10 -20 4 -4 4 2 0 12 -6 17 -5 17 11 5 10 -8 27 -23 38 -34 11 -11 48
-46 82 -77 33 -31 59 -59 55 -62 -3 -3 0 -6 7 -6 14 0 151 -129 148 -139 -1
-3 1 -6 5 -6 14 0 127 -118 122 -127 -3 -5 0 -7 8 -6 7 2 12 -2 11 -9 -1 -6 5
-17 14 -25 9 -7 14 -8 11 -2 -4 6 7 10 29 10 26 0 42 7 59 28 42 48 33 73 -60
174 -28 30 -50 60 -48 66 2 6 0 8 -4 4 -9 -10 -35 12 -28 23 3 5 -3 9 -13 9
-23 0 -86 63 -76 75 5 4 3 5 -3 2 -14 -8 -87 66 -77 78 5 4 3 5 -4 1 -7 -4
-21 1 -31 11 -82 77 -302 299 -303 305 -1 4 -2 14 -3 21 0 6 -7 12 -13 12 -17
0 -44 40 -35 50 4 5 2 5 -4 2 -11 -7 -41 28 -46 54 -2 7 -11 21 -21 32 -13 13
-17 27 -13 45 5 19 4 23 -3 13 -7 -11 -14 1 -28 45 -19 64 -21 128 -12 559 4
233 -6 335 -52 519 -11 44 -18 88 -16 98 3 10 2 16 -2 14 -6 -4 -121 399 -124
439 -1 11 -5 22 -8 25 -9 8 -81 271 -83 302 0 14 -4 24 -7 22 -3 -2 -12 9 -20
24 -7 15 -21 38 -30 52 -9 14 -15 33 -14 43 2 9 -1 15 -6 11 -5 -3 -6 -11 -2
-17 3 -7 -3 -3 -15 7 -26 22 -28 30 -7 23 8 -4 17 -2 20 3 3 4 -7 7 -22 5 -16
-1 -40 3 -55 11 -15 8 -54 14 -86 14 -89 0 -155 -50 -209 -160 -15 -30 -30
-56 -33 -58 -3 -1 -4 -19 -2 -39 3 -26 1 -34 -7 -28 -7 4 -10 14 -7 22 3 8 2
12 -2 9 -5 -3 -22 18 -39 47 -16 29 -54 93 -82 142 -121 207 -152 266 -145
277 4 6 3 8 -3 5 -6 -4 -51 62 -104 148 -105 175 -181 263 -258 299 -28 12
-49 25 -47 27 3 2 -30 2 -72 -2 -55 -4 -92 -13 -128 -32 l-51 -26 -57 55 c-31
31 -71 62 -89 70 -22 11 -25 14 -9 10 13 -2 21 -2 17 2 -4 4 -21 8 -38 8 -18
1 -54 4 -82 7 -27 4 -63 2 -78 -3z"/>
<path d="M8035 5940 c-71 -16 -148 -27 -170 -25 -32 2 -34 1 -10 -4 l30 -7
-35 -6 c-19 -4 -89 -19 -155 -33 -66 -15 -131 -27 -144 -27 -15 0 -20 -3 -12
-8 10 -5 9 -9 -2 -13 -21 -8 -27 -57 -11 -95 7 -18 9 -30 4 -27 -6 3 -10 1
-10 -4 0 -6 11 -11 25 -11 14 0 36 0 50 0 22 0 321 62 553 115 45 10 80 25 92
38 24 25 26 74 5 103 -8 12 -13 23 -11 25 14 14 -89 3 -199 -21z"/>
</g>
</svg>
