<?xml version="1.0" standalone="no"?>
<!DOCTYPE svg PUBLIC "-//W3C//DTD SVG 20010904//EN" "http://www.w3.org/TR/2001/REC-SVG-20010904/DTD/svg10.dtd">
<svg xmlns="http://www.w3.org/2000/svg" version="1.0" width="1024.000000pt" height="1024.000000pt" viewBox="0 0 1024.000000 1024.000000" preserveAspectRatio="xMidYMid meet">
<metadata>
Created by potrace 1.16, written by Peter Selinger 2001-2019
<meta name="Producer" content="Online-Convert"/></metadata>
<g transform="translate(0.000000,1024.000000) scale(0.100000,-0.100000)" fill="#000000" stroke="none">
<path d="M5083 8629 c-6 -6 -75 -15 -154 -20 -79 -5 -200 -19 -269 -31 -69 -12 -136 -22 -150 -22 -14 -1 -27 -4 -30 -7 -3 -3 -51 -17 -107 -32 -56 -14 -162 -49 -235 -78 -73 -28 -143 -52 -155 -53 -11 0 -19 -4 -17 -7 2 -4 -27 -20 -64 -38 -37 -17 -99 -48 -137 -69 -39 -21 -76 -37 -84 -34 -8 3 -11 0 -7 -6 8 -14 -30 -35 -46 -26 -7 4 -8 3 -4 -4 4 -7 -10 -22 -33 -37 -39 -24 -71 -36 -41 -14 13 9 13 10 0 6 -8 -2 -15 -9 -15 -15 0 -19 -77 -70 -99 -65 -15 3 -17 2 -8 -4 10 -7 8 -13 -7 -27 -18 -17 -20 -17 -30 1 -10 17 -11 16 -8 -3 1 -16 -26 -45 -110 -118 -61 -53 -146 -134 -189 -181 -42 -46 -82 -83 -88 -82 -6 1 -10 -4 -8 -12 1 -7 -18 -37 -43 -66 -24 -29 -80 -103 -124 -163 -63 -88 -81 -108 -92 -99 -11 10 -11 9 -1 -4 10 -13 5 -29 -30 -88 -30 -52 -44 -68 -50 -59 -6 9 -7 6 -4 -8 4 -12 -7 -48 -30 -94 -56 -116 -108 -246 -143 -360 -41 -132 -39 -128 -40 -107 -1 10 -5 15 -11 12 -5 -3 -10 -1 -10 6 0 7 -3 9 -6 6 -4 -4 -2 -13 5 -21 9 -11 9 -15 -1 -19 -8 -3 -6 -6 6 -6 14 -1 17 -6 12 -23 -3 -13 -6 -30 -7 -38 0 -8 -5 -4 -10 10 -8 22 -8 21 -4 -8 2 -18 -4 -83 -14 -145 -29 -169 -41 -341 -43 -625 -1 -141 -4 -220 -5 -174 -2 45 -7 82 -11 82 -4 0 -7 -43 -8 -95 0 -72 3 -95 13 -95 10 0 13 -38 14 -172 1 -95 2 -195 3 -221 1 -27 -2 -51 -6 -53 -4 -3 -8 1 -9 8 0 7 -4 4 -9 -7 -5 -14 -3 -24 7 -31 17 -14 28 -170 14 -206 l-10 -23 -1 25 -2 25 -7 -25 c-9 -29 -4 -50 11 -47 7 1 11 -49 12 -150 1 -84 -2 -153 -6 -153 -5 0 -8 12 -9 28 l-1 27 -7 -25 c-8 -28 -3 -53 9 -45 14 8 20 -45 16 -120 -3 -38 -5 -78 -5 -87 -1 -11 -6 -15 -16 -12 -11 5 -13 2 -9 -10 3 -8 11 -14 16 -13 6 1 13 -13 15 -30 2 -19 0 -33 -6 -33 -6 0 -11 7 -11 15 0 8 -5 15 -11 15 -7 0 -9 -9 -5 -22 3 -13 6 -27 6 -33 0 -5 4 -3 10 5 14 22 25 3 12 -22 -6 -13 -11 -17 -11 -10 -1 6 -5 12 -9 12 -4 0 -7 -12 -6 -27 3 -54 5 -59 14 -38 11 26 16 -66 11 -225 -1 -36 -4 -50 -10 -41 -7 11 -10 10 -13 -5 -2 -10 -2 -30 1 -44 4 -23 5 -23 12 -5 7 18 8 18 8 2 1 -10 -6 -25 -14 -34 -16 -15 -11 -38 6 -28 5 4 9 0 9 -9 0 -8 -6 -17 -12 -19 -8 -4 -7 -6 4 -6 14 -1 16 -12 8 -41 -1 -3 -5 4 -10 15 -8 19 -9 19 -9 -2 -1 -12 4 -23 9 -25 13 -4 20 -172 9 -208 -5 -19 -7 -12 -8 29 -1 30 -4 51 -7 48 -8 -8 -12 -240 -5 -282 5 -30 5 -30 12 -5 7 24 7 23 9 -7 3 -38 3 -65 1 -90 -1 -14 -3 -15 -10 -4 -5 7 -10 9 -13 5 -4 -8 -4 -17 1 -41 1 -5 6 -1 11 7 7 11 10 -4 11 -50 1 -36 3 -84 4 -107 1 -24 -2 -43 -7 -43 -4 0 -8 16 -8 35 0 19 -3 35 -7 35 -10 0 -9 -358 1 -367 3 -3 6 36 6 87 0 146 10 99 15 -66 3 -145 0 -179 -15 -154 -11 18 -18 -2 -9 -30 5 -17 7 -19 8 -7 1 10 5 16 11 12 5 -3 7 -27 5 -53 -2 -26 -4 -58 -5 -72 -1 -14 -4 -19 -7 -12 -2 6 -9 10 -13 7 -5 -3 -7 -12 -4 -20 4 -8 9 -13 14 -10 11 7 21 -154 13 -211 -3 -27 -11 -52 -17 -56 -7 -5 -6 -8 4 -8 13 0 13 -1 0 -10 -13 -8 -12 -10 3 -10 10 0 17 -8 17 -18 0 -24 48 -69 83 -77 15 -4 30 -11 33 -16 3 -5 17 -8 32 -8 l27 1 -30 8 c-16 4 119 7 300 7 182 0 303 -3 270 -7 -89 -10 9 -16 140 -9 34 2 31 3 -20 9 -37 4 22 7 150 8 125 0 202 -3 190 -8 -18 -8 -17 -9 8 -9 16 -1 26 3 22 9 -4 7 204 9 617 8 343 -1 562 -5 488 -8 -74 -3 -117 -7 -95 -8 51 -4 256 -4 315 -1 l45 2 -50 7 c-49 7 -49 7 20 8 47 0 63 -2 50 -8 -22 -10 -19 -11 48 -13 51 -2 65 9 20 16 -16 2 134 4 332 5 198 0 351 -3 340 -7 -18 -7 -17 -8 6 -13 14 -2 34 -1 45 2 17 7 16 8 -6 12 -18 4 -13 6 15 6 26 1 35 -1 27 -7 -11 -6 -8 -10 10 -14 12 -3 32 -4 43 -2 11 2 34 5 50 6 17 1 5 5 -30 9 l-60 7 80 1 c53 0 73 -2 60 -8 -11 -5 -17 -9 -12 -10 11 -2 79 -2 150 1 l62 2 -50 7 c-35 5 -14 7 70 6 91 0 103 -1 50 -5 l-70 -5 80 -6 c44 -3 145 -3 225 0 130 4 137 5 70 10 -53 5 -29 6 85 6 127 0 143 -1 75 -6 -99 -7 -75 -12 60 -11 121 0 137 2 75 11 -27 4 58 7 190 7 132 -1 214 -2 182 -4 -101 -7 -53 -18 55 -14 88 4 96 6 53 11 -27 4 77 8 233 8 308 2 321 4 358 59 19 27 19 82 19 2133 0 1968 -1 2113 -18 2230 -24 171 -51 296 -92 438 -19 67 -32 129 -29 139 5 15 4 16 -6 3 -10 -13 -11 -11 -7 8 3 12 2 20 -3 17 -4 -2 -18 23 -30 58 -13 34 -40 100 -61 146 -21 46 -36 88 -32 94 3 5 2 7 -4 4 -13 -8 -36 40 -27 56 4 7 4 9 -1 5 -4 -4 -36 40 -71 98 -70 115 -156 241 -221 321 -23 28 -39 54 -35 59 4 4 2 4 -4 1 -15 -8 -59 53 -56 78 1 18 1 18 -6 2 -7 -16 -12 -12 -42 25 -19 24 -34 47 -32 51 1 5 -2 6 -7 2 -6 -3 -39 21 -74 54 -35 33 -95 85 -133 116 -38 30 -68 60 -66 66 1 6 -2 8 -7 4 -6 -3 -30 9 -53 27 -24 18 -55 41 -68 51 -15 11 -18 16 -7 13 9 -3 17 0 17 5 0 7 -9 9 -21 6 -24 -6 -144 64 -132 78 5 4 3 5 -4 1 -16 -9 -144 64 -136 77 3 5 0 7 -8 5 -8 -3 -39 6 -69 20 -195 87 -468 183 -561 198 -22 4 -39 9 -39 13 0 3 -12 7 -28 7 -15 1 -85 11 -157 22 -71 12 -204 26 -295 33 -91 6 -168 15 -171 20 -3 5 -10 4 -16 -2z m282 -239 c200 -18 520 -84 494 -101 -10 -7 -6 -8 11 -4 28 6 223 -58 228 -75 2 -5 8 -8 13 -5 9 6 69 -21 69 -31 0 -3 -4 -2 -10 1 -5 3 -10 1 -10 -5 0 -8 9 -10 24 -6 34 8 228 -87 220 -109 -3 -8 -1 -15 6 -15 6 0 8 5 5 10 -14 22 14 8 127 -63 26 -17 45 -34 41 -40 -3 -6 -1 -7 5 -3 18 11 38 -4 21 -15 -10 -6 -6 -8 11 -7 16 2 24 -2 22 -10 -1 -6 4 -11 10 -10 7 2 12 -2 11 -9 -2 -7 3 -10 10 -8 30 12 397 -331 381 -356 -4 -7 -3 -9 3 -6 13 8 36 -17 25 -27 -4 -4 -2 -6 4 -4 11 3 104 -103 104 -119 0 -4 -5 -1 -10 7 -7 11 -10 11 -10 2 0 -7 -5 -10 -12 -6 -6 4 -8 3 -4 -4 3 -6 15 -9 26 -7 26 5 46 -20 31 -39 -9 -10 -7 -17 6 -27 16 -13 17 -12 5 3 -8 10 -9 18 -3 22 12 8 33 -28 23 -39 -4 -5 -2 -5 5 -1 15 8 47 -49 37 -66 -4 -7 -3 -8 4 -4 16 9 55 -55 42 -68 -16 -16 -12 -30 4 -17 12 10 17 8 26 -9 6 -11 8 -26 4 -33 -4 -6 -4 -9 1 -5 11 10 47 -50 39 -64 -4 -6 -3 -8 3 -5 14 9 45 -61 38 -87 -4 -14 -3 -17 3 -8 12 17 58 -91 46 -109 -4 -7 -3 -9 3 -6 14 9 34 -48 26 -70 -4 -10 -2 -14 4 -10 15 9 102 -277 89 -291 -3 -3 -6 1 -6 8 0 7 -3 10 -7 7 -3 -4 1 -15 10 -24 20 -23 54 -196 67 -348 11 -126 10 -1845 -1 -1845 -3 0 -32 9 -65 20 -57 20 -345 93 -489 124 -38 9 -53 15 -33 13 20 -2 34 1 31 6 -3 5 -28 7 -57 5 l-51 -3 -3 338 c-2 266 0 337 10 337 10 0 10 2 0 9 -9 5 7 16 50 32 35 13 69 23 76 22 7 0 11 1 8 4 -8 8 84 74 95 68 5 -4 8 -3 7 2 -5 14 64 103 75 96 6 -3 7 -1 4 5 -4 5 4 32 17 59 37 74 49 130 49 223 -1 62 -7 101 -23 145 -12 33 -23 68 -23 77 -1 9 -3 15 -5 13 -2 -2 -24 22 -47 53 -24 31 -62 72 -85 91 -50 40 -147 91 -175 91 -16 0 -17 2 -6 9 9 6 -43 9 -134 8 -81 -1 -142 -3 -135 -5 6 -2 -14 -15 -46 -28 -32 -13 -72 -33 -88 -45 -16 -13 -35 -22 -42 -22 -7 0 -12 -3 -11 -6 1 -3 -11 -21 -27 -39 -22 -24 -32 -29 -39 -20 -6 10 -8 9 -4 -3 6 -17 -27 -74 -42 -74 -5 0 -13 -4 -18 -9 -5 -5 -3 -6 5 -2 16 10 16 9 -14 -65 -56 -136 -41 -321 36 -442 17 -27 27 -53 24 -59 -4 -6 -3 -8 3 -5 13 8 36 -17 25 -28 -4 -5 -2 -5 5 -1 6 3 15 0 20 -7 15 -25 106 -80 177 -108 l71 -28 2 -330 2 -331 -22 5 c-46 11 -305 44 -382 49 -44 2 -162 8 -262 12 l-183 7 0 166 c0 111 4 161 10 151 9 -13 10 -13 10 0 1 8 24 26 53 39 99 46 212 187 248 308 6 24 16 40 22 36 6 -3 7 -1 3 5 -3 6 -1 42 5 79 9 58 10 140 5 425 -1 25 -4 44 -7 42 -3 -2 -12 36 -19 84 -25 176 -89 391 -164 556 -20 43 -33 83 -29 89 3 5 1 7 -5 4 -5 -4 -22 12 -36 35 -32 53 -84 109 -119 127 -32 17 -131 18 -150 2 -8 -6 -21 -10 -28 -8 -8 2 -11 2 -7 0 11 -6 -54 -59 -67 -55 -5 2 -7 1 -3 -3 9 -9 -61 -111 -74 -107 -5 1 -7 -2 -4 -7 3 -5 -10 -43 -29 -85 -82 -175 -143 -411 -167 -637 -7 -65 -15 -116 -18 -114 -3 2 -2 -70 1 -158 6 -155 20 -242 53 -335 9 -24 11 -40 6 -37 -6 3 -10 -3 -10 -14 0 -12 5 -21 10 -21 6 0 10 6 10 12 0 7 18 -15 41 -50 22 -34 54 -75 70 -91 33 -33 115 -91 129 -91 5 0 20 -5 33 -11 24 -11 24 -12 26 -175 l2 -164 -108 -1 c-59 0 -124 -2 -143 -4 -19 -2 -115 -5 -212 -7 -98 -2 -178 -6 -178 -9 0 -4 -39 -10 -87 -14 -49 -4 -135 -12 -193 -19 l-105 -12 3 736 c1 404 0 746 -3 760 -4 14 -34 52 -68 85 -34 32 -53 53 -42 45 18 -14 19 -14 6 2 -7 10 -17 16 -21 13 -11 -7 -60 34 -57 48 1 7 -6 11 -15 9 -10 -1 -23 6 -30 18 -7 11 -17 20 -23 20 -5 0 -18 9 -30 20 -11 11 -80 68 -152 126 -73 59 -130 111 -126 117 3 5 1 7 -4 4 -14 -9 -65 32 -57 44 3 6 0 9 -8 7 -19 -4 -100 61 -92 74 4 7 2 8 -4 4 -6 -3 -46 22 -89 57 -107 87 -120 94 -183 99 -30 3 -49 3 -42 1 7 -3 -3 -15 -25 -30 -21 -14 -93 -70 -160 -124 -87 -71 -127 -97 -140 -93 -13 4 -15 3 -4 -4 10 -7 -7 -25 -70 -76 -46 -36 -96 -78 -110 -92 -17 -17 -31 -24 -39 -19 -8 5 -11 4 -6 -3 8 -13 -33 -44 -47 -35 -6 3 -7 1 -3 -5 8 -13 -204 -188 -213 -175 -8 11 -27 11 -38 -1 -4 -5 -3 -7 2 -3 6 3 17 2 24 -2 10 -6 3 -16 -24 -36 -68 -53 -65 -11 -68 -782 -1 -384 -7 -704 -11 -712 -6 -9 -5 -12 2 -7 13 7 12 -191 -1 -211 -4 -6 -3 -14 2 -17 9 -6 10 -181 1 -189 -3 -2 -43 -14 -90 -26 -47 -12 -93 -25 -102 -27 -17 -5 -18 46 -18 968 0 557 4 1022 10 1088 20 233 61 428 135 640 48 137 145 341 158 333 6 -3 7 -1 4 4 -10 15 42 105 55 97 7 -4 8 -2 4 4 -7 12 59 122 74 122 6 0 9 4 8 9 -5 13 62 101 75 98 6 -1 11 7 12 18 0 11 6 19 13 17 8 -1 11 1 8 6 -10 17 201 245 217 235 6 -3 7 -1 4 4 -8 13 80 96 93 88 6 -4 9 -1 8 6 -4 16 193 171 210 164 7 -3 10 -1 7 4 -20 33 564 325 612 307 8 -3 12 -2 9 3 -6 9 164 61 284 87 232 49 552 66 805 44z m-1603 -1919 c-1 -7 1 -10 6 -7 8 5 109 -75 425 -336 53 -45 97 -83 97 -86 0 -2 -8 2 -17 9 -16 13 -17 12 -4 -3 7 -10 17 -15 22 -12 7 4 139 -93 139 -102 0 -2 -8 -1 -17 3 -10 3 -15 3 -11 -1 3 -4 13 -9 22 -10 26 -4 77 -46 70 -58 -4 -6 -3 -8 3 -5 6 4 18 -1 26 -11 15 -16 17 -89 16 -736 -1 -534 -4 -718 -12 -720 -13 -4 -418 -56 -429 -56 -4 0 -8 128 -10 283 -2 219 -6 288 -16 300 -8 9 -10 22 -6 28 4 7 3 9 -3 6 -5 -3 -22 3 -39 14 -26 17 -48 19 -252 19 -186 0 -229 -3 -260 -17 -20 -9 -40 -15 -44 -15 -5 1 -7 -1 -6 -6 1 -4 -3 -17 -10 -29 -9 -16 -12 -111 -12 -359 -1 -297 -2 -335 -16 -330 -8 3 -13 2 -10 -2 6 -11 -401 -85 -415 -76 -8 4 -9 3 -5 -4 4 -7 2 -12 -3 -12 -8 0 -11 261 -11 858 l0 858 136 114 c76 62 143 113 150 113 7 0 12 4 11 8 -3 11 211 190 225 187 6 -2 12 2 13 9 0 23 192 176 208 167 7 -4 9 -4 5 1 -10 11 12 37 26 32 6 -3 10 -10 8 -16z m2101 -58 c-4 -10 -2 -14 4 -10 15 10 66 -80 66 -116 0 -15 3 -23 7 -17 4 6 12 0 18 -15 7 -15 9 -31 6 -37 -4 -6 -3 -8 3 -5 12 8 47 -99 37 -115 -4 -6 -3 -8 3 -5 21 13 76 -243 94 -437 32 -346 -19 -548 -155 -618 -55 -28 -136 -22 -193 16 -48 32 -98 99 -87 117 4 7 3 10 -4 5 -7 -4 -19 18 -32 61 -40 127 -38 392 6 621 34 179 92 368 117 384 7 4 9 8 5 8 -11 0 8 45 53 121 22 38 44 67 49 64 5 -3 6 -13 3 -22z m1097 -558 c0 -9 9 -15 23 -15 18 0 19 2 7 11 -26 18 31 -1 65 -22 39 -23 87 -77 80 -89 -3 -5 0 -12 6 -16 8 -4 9 -3 5 4 -4 7 -4 12 -1 12 10 0 43 -82 50 -127 13 -84 -37 -207 -108 -263 -82 -65 -201 -81 -292 -41 -55 24 -87 49 -79 62 3 5 -1 7 -8 4 -19 -7 -75 82 -88 140 -12 56 -5 129 17 184 28 68 135 160 169 147 8 -3 12 -2 9 3 -7 13 19 18 88 20 44 1 57 -2 57 -14z m-3107 -1072 c5 -3 3 -9 -4 -14 -10 -6 -11 -9 -1 -9 8 0 13 -19 14 -57 l2 -58 6 70 c4 43 7 -22 8 -172 1 -134 -1 -243 -5 -243 -12 0 -195 -29 -220 -35 -19 -5 -22 -1 -21 20 3 29 14 33 21 8 4 -16 5 -16 6 -1 0 9 -3 20 -9 23 -6 4 -10 90 -10 227 0 215 0 220 20 215 11 -3 20 -1 20 4 0 5 -9 9 -20 9 -11 0 -20 3 -20 8 0 8 200 13 213 5z m1565 -504 c-10 -5 -31 -11 -47 -12 -16 -1 -27 -5 -24 -9 2 -5 -2 -8 -9 -8 -7 0 -64 -22 -127 -50 -63 -27 -119 -46 -125 -43 -6 3 -8 3 -4 -2 8 -8 -65 -47 -90 -48 -6 0 -10 -3 -7 -5 8 -8 -187 -112 -199 -105 -6 3 -8 2 -3 -2 10 -11 -110 -88 -124 -80 -5 4 -8 1 -7 -6 2 -6 -3 -14 -10 -16 -8 -3 -10 2 -6 14 5 14 4 15 -4 3 -6 -8 -9 -17 -7 -21 4 -6 -77 -69 -90 -69 -3 0 -3 6 1 13 4 7 3 9 -2 4 -5 -5 -9 -13 -9 -17 0 -14 -273 -229 -281 -222 -4 4 -4 2 -1 -4 8 -14 -127 -136 -138 -126 -5 4 -5 2 -2 -4 8 -14 -17 -37 -28 -26 -5 4 -6 2 -2 -3 3 -6 -33 -53 -80 -105 -47 -52 -97 -110 -110 -127 -14 -18 -30 -30 -36 -26 -5 3 -7 1 -4 -4 5 -8 -58 -103 -69 -103 -1 0 -1 11 2 25 2 14 0 25 -6 25 -7 0 -9 -12 -6 -30 4 -26 -5 -45 -51 -108 -31 -42 -60 -76 -65 -74 -5 1 -7 -2 -3 -8 10 -16 -97 -187 -115 -183 -12 4 -12 3 -2 -5 11 -7 7 -23 -20 -78 -19 -38 -47 -99 -63 -136 -15 -37 -32 -65 -36 -62 -5 3 -7 -1 -4 -8 7 -18 -29 -110 -40 -101 -4 5 -5 2 -1 -4 4 -7 -9 -63 -28 -125 -20 -62 -39 -131 -44 -153 l-8 -40 -362 -3 -362 -2 0 920 0 920 28 2 c35 1 43 3 66 13 11 5 34 9 52 9 18 1 30 4 28 7 -2 4 11 9 29 12 17 3 84 17 147 31 497 107 1305 247 1442 250 37 0 60 4 51 7 -15 5 431 63 577 75 49 4 326 30 445 42 6 1 2 -3 -7 -9z m1097 -19 l30 -1 -30 -13 c-16 -7 -34 -11 -40 -8 -5 3 -7 2 -3 -3 9 -10 -140 -97 -152 -90 -5 3 -12 0 -16 -6 -5 -8 -2 -10 7 -5 8 4 3 -2 -11 -13 -14 -11 -30 -19 -37 -16 -7 2 -15 -1 -19 -7 -5 -7 -2 -8 7 -3 8 4 1 -4 -16 -19 -16 -14 -36 -23 -43 -21 -7 3 -11 1 -8 -4 3 -5 -18 -27 -48 -50 -83 -64 -258 -249 -311 -329 -26 -39 -51 -72 -55 -72 -4 0 -7 -6 -7 -12 -1 -24 -70 -157 -78 -150 -5 4 -6 2 -3 -3 4 -6 -5 -51 -19 -100 -20 -71 -26 -121 -30 -242 -3 -84 -8 -153 -12 -153 -3 0 -6 25 -5 55 0 30 -3 55 -7 55 -11 0 -6 -144 5 -152 6 -4 4 -13 -3 -22 -11 -13 -11 -16 3 -16 9 0 15 3 15 8 -1 4 0 21 1 37 1 22 5 12 15 -34 19 -85 52 -185 82 -244 13 -26 21 -53 17 -59 -4 -6 -3 -8 3 -5 6 4 15 -5 22 -19 6 -15 7 -23 1 -19 -6 4 -10 -5 -10 -19 0 -16 6 -26 15 -26 8 0 15 5 15 11 0 5 -5 7 -12 3 -7 -5 -8 -3 -3 6 6 10 12 7 26 -11 10 -13 17 -30 14 -36 -2 -7 0 -12 5 -10 12 3 91 -104 84 -115 -3 -5 0 -7 8 -6 7 2 12 -3 10 -10 -1 -8 2 -11 7 -8 11 7 32 -17 36 -41 1 -10 7 -17 12 -16 6 1 25 -14 44 -34 19 -20 27 -32 19 -28 -9 5 -12 5 -7 -1 5 -5 12 -9 15 -9 14 -1 53 -27 48 -32 -3 -3 16 -20 42 -37 26 -18 46 -37 45 -42 -1 -6 4 -11 10 -11 13 0 97 -52 97 -60 0 -2 -4 -2 -9 2 -5 3 -631 5 -1390 5 -1327 0 -1381 1 -1381 18 0 10 6 41 14 68 8 27 22 75 30 107 9 32 21 55 25 52 5 -3 7 3 4 13 -5 21 71 212 89 224 7 4 9 8 5 8 -28 0 262 475 290 475 6 0 15 3 19 8 4 4 2 7 -5 7 -7 0 -9 5 -6 10 4 6 11 7 17 4 6 -4 8 -2 5 3 -8 13 31 65 43 58 5 -3 11 -1 15 5 4 6 11 7 17 4 7 -4 8 -2 4 5 -4 6 -12 8 -18 5 -6 -4 -8 -1 -6 7 3 8 11 13 17 11 6 -1 10 2 9 7 -5 15 83 112 94 105 6 -4 8 -2 5 3 -8 13 139 159 154 155 6 -1 8 2 5 7 -7 11 155 155 291 257 95 72 122 87 107 62 -5 -9 -3 -9 9 1 9 7 14 18 10 24 -4 6 0 8 11 4 9 -4 15 -3 12 2 -3 5 12 20 34 35 43 28 55 32 44 14 -4 -7 -3 -8 5 -4 6 4 9 11 6 16 -7 11 50 42 59 33 3 -4 6 -1 6 5 0 20 53 41 78 31 12 -5 22 -5 22 1 0 5 -8 10 -17 12 -24 6 238 137 396 199 127 50 146 56 137 40 -3 -5 0 -11 8 -14 9 -4 12 0 9 12 -4 14 11 23 82 45 47 15 93 25 101 22 8 -3 14 -2 14 3 0 14 271 75 337 76 33 0 57 3 51 6 -12 7 42 19 86 19 24 0 27 -3 16 -10 -12 -7 -8 -10 15 -10 21 0 26 3 16 9 -22 14 10 17 113 9 50 -3 105 -7 121 -8z m485 -70 c217 -37 656 -161 644 -182 -4 -6 1 -8 14 -4 16 6 20 1 24 -25 10 -64 5 -1514 -4 -1533 -7 -12 -7 -16 0 -12 6 4 10 -70 10 -204 0 -115 3 -214 7 -220 4 -7 -158 -9 -502 -8 l-508 3 -57 29 c-31 16 -55 33 -52 38 3 4 -5 8 -17 8 -27 0 -91 39 -84 51 4 5 0 6 -8 3 -8 -3 -18 0 -23 7 -5 8 -3 10 6 4 9 -6 11 -4 6 4 -5 7 -14 10 -21 7 -16 -6 -81 41 -77 55 1 6 -2 8 -8 4 -23 -14 -280 228 -272 257 1 5 -1 7 -6 4 -15 -9 -109 129 -159 234 -64 132 -78 200 -77 360 0 136 2 151 32 237 40 118 99 223 121 216 13 -4 13 -3 2 5 -11 8 -2 25 43 85 63 84 163 180 177 171 5 -3 8 0 7 8 -2 7 3 12 10 10 8 -1 11 2 7 7 -6 10 34 37 48 33 5 -1 6 2 3 7 -9 14 121 104 135 95 7 -4 9 -3 6 3 -8 13 41 46 186 123 66 35 122 58 128 54 7 -4 9 -3 6 3 -8 12 151 83 173 78 8 -2 44 -9 80 -15z"/>
<path d="M3307 5760 c-16 -5 -35 -6 -43 -3 -8 3 -14 0 -14 -7 0 -6 6 -8 13 -4 6 4 1 -5 -13 -20 -25 -27 -25 -30 -28 -237 l-3 -210 34 -34 c19 -19 32 -36 30 -39 -3 -3 70 -4 161 -4 92 0 165 2 163 5 -6 5 46 60 54 56 3 -1 7 91 8 205 l2 207 -27 41 c-14 22 -31 42 -38 43 -37 8 -276 9 -299 1z"/>
<path d="M3942 5760 c-12 -5 -29 -7 -37 -4 -8 4 -15 1 -15 -6 0 -6 5 -8 11 -4 7 4 1 -8 -12 -25 -23 -31 -24 -40 -27 -237 -2 -119 -7 -204 -13 -204 -5 0 -9 -5 -9 -11 0 -8 4 -8 14 0 12 10 17 8 26 -9 26 -48 66 -60 200 -60 99 0 132 4 160 18 63 31 68 53 72 274 2 108 0 194 -4 191 -5 -2 -8 1 -8 7 0 16 -42 64 -61 70 -27 9 -274 9 -297 0z"/>
<path d="M6794 5671 c4 -5 -7 -11 -25 -13 -66 -6 -98 -106 -48 -149 12 -11 33 -22 46 -25 12 -4 20 -10 17 -15 -3 -5 0 -9 5 -9 6 0 11 5 11 10 0 6 49 10 126 10 125 0 126 0 155 29 38 39 40 88 3 124 -27 27 -89 43 -125 32 -16 -6 -20 -4 -13 6 7 12 5 12 -9 1 -9 -8 -20 -11 -25 -8 -18 11 -124 18 -118 7z"/>
</g>
</svg>
