<?xml version="1.0" standalone="no"?>
<!DOCTYPE svg PUBLIC "-//W3C//DTD SVG 20010904//EN"
 "http://www.w3.org/TR/2001/REC-SVG-20010904/DTD/svg10.dtd">
<svg version="1.0" xmlns="http://www.w3.org/2000/svg"
 width="1024.000000pt" height="1024.000000pt" viewBox="0 0 1024.000000 1024.000000"
 preserveAspectRatio="xMidYMid meet">
<metadata>
Created by potrace 1.16, written by Peter Selinger 2001-2019
</metadata>
<g transform="translate(0.000000,1024.000000) scale(0.100000,-0.100000)"
fill="#000000" stroke="none">
<path d="M5097 8932 c8 -5 3 -12 -16 -20 -21 -9 -35 -29 -56 -80 -56 -134
-233 -400 -257 -386 -6 4 -8 3 -5 -3 9 -14 -22 -55 -35 -47 -6 4 -8 2 -4 -4
11 -19 -321 -332 -336 -317 -3 3 -5 -1 -6 -7 -1 -7 -5 -29 -8 -48 -8 -48 21
-87 126 -173 112 -90 171 -148 163 -160 -3 -6 -1 -7 5 -4 11 7 111 -96 180
-185 102 -133 192 -302 192 -362 0 -18 -8 -25 -42 -35 -51 -16 -104 -49 -142
-90 -16 -16 -33 -28 -37 -25 -5 3 -6 -2 -3 -10 3 -9 2 -16 -3 -16 -5 0 -20
-32 -32 -70 -46 -139 -17 -261 85 -367 31 -33 44 -53 35 -53 -24 0 -158 -35
-229 -59 -35 -12 -68 -18 -75 -15 -7 4 -9 4 -5 -1 4 -4 -37 -30 -90 -57 -53
-27 -126 -70 -161 -96 -35 -25 -70 -45 -77 -45 -7 0 -12 -3 -11 -7 1 -4 -29
-36 -68 -70 -92 -84 -174 -182 -255 -307 -37 -57 -71 -99 -75 -95 -5 4 -5 2
-1 -5 3 -6 -12 -53 -35 -105 -58 -132 -105 -303 -140 -512 -63 -372 -141 -628
-274 -900 -85 -174 -153 -288 -167 -280 -6 4 -8 3 -5 -4 8 -12 -2 -44 -12 -37
-4 2 -8 -1 -8 -8 0 -21 -74 -117 -85 -110 -7 4 -8 1 -4 -6 9 -13 -40 -79 -167
-228 -43 -51 -83 -92 -90 -90 -6 1 -11 -3 -12 -8 0 -6 -33 -50 -74 -98 -41
-48 -87 -106 -103 -129 -15 -24 -28 -38 -28 -33 0 6 5 16 12 23 8 8 8 12 1 12
-13 0 -25 -28 -18 -40 3 -4 -5 -29 -16 -55 -44 -100 -23 -201 58 -281 21 -20
37 -41 35 -46 -1 -5 1 -7 5 -5 5 3 48 -14 96 -38 49 -24 83 -45 75 -48 -7 -2
-4 -3 6 -1 11 2 65 -10 120 -25 56 -16 142 -37 193 -47 50 -10 90 -21 87 -25
-2 -4 3 -10 12 -13 24 -9 31 -7 14 4 -22 14 -3 13 96 -4 44 -8 127 -19 185
-26 156 -16 175 -20 158 -31 -11 -7 -11 -9 4 -9 9 0 17 5 17 10 0 6 12 10 28
10 21 0 24 -2 12 -10 -9 -6 -10 -10 -3 -10 6 0 14 3 17 8 2 4 62 2 133 -4 70
-6 243 -17 383 -24 140 -6 264 -12 276 -13 20 -1 20 -2 6 -47 -9 -28 -15 -85
-15 -150 0 -86 4 -116 22 -162 12 -32 19 -63 15 -69 -4 -7 -3 -10 2 -6 5 3 27
-20 49 -51 21 -30 34 -53 28 -49 -5 3 -10 0 -10 -7 0 -8 7 -12 14 -9 17 7 65
-36 56 -50 -3 -6 -1 -7 5 -3 6 3 33 -7 59 -23 26 -16 65 -35 85 -42 33 -11 35
-14 20 -26 -15 -13 -15 -13 3 -5 11 6 59 8 111 5 58 -4 111 -1 145 7 198 47
356 210 390 404 13 79 6 190 -16 243 -9 20 -14 37 -13 39 2 1 80 5 173 8 151
6 475 27 640 41 368 32 771 109 949 180 36 14 71 23 77 19 7 -4 9 -3 6 3 -3 5
8 18 26 28 18 10 51 33 73 51 23 18 44 31 48 29 3 -3 4 -2 2 1 -3 3 9 31 26
60 27 48 30 62 26 117 -2 36 -13 81 -25 106 -12 24 -19 49 -17 56 3 7 1 16 -5
20 -7 3 -8 0 -5 -9 11 -27 -2 -17 -28 22 -14 20 -66 80 -116 133 -50 53 -88
100 -84 104 4 5 2 5 -4 2 -30 -17 -413 488 -399 526 4 8 2 18 -4 22 -7 3 -8 0
-5 -9 12 -31 -5 -15 -31 29 -14 25 -23 50 -19 57 4 6 3 8 -3 5 -19 -12 -191
372 -177 395 4 6 3 8 -3 5 -17 -11 -112 331 -133 483 -56 400 -96 552 -202
763 -27 54 -45 103 -42 109 4 6 3 8 -3 5 -6 -4 -26 17 -45 46 -20 29 -61 82
-91 119 -31 36 -53 69 -49 73 4 5 2 5 -5 1 -6 -3 -14 -2 -18 4 -3 6 -39 38
-78 72 -40 34 -71 66 -69 71 1 5 -2 6 -7 3 -5 -3 -37 13 -72 37 -35 23 -101
61 -146 83 -45 23 -79 45 -75 49 4 5 2 5 -5 2 -6 -4 -51 6 -100 22 -48 16
-123 35 -165 42 -43 7 -78 17 -78 21 0 4 4 8 10 8 22 0 84 68 113 124 29 55
32 69 32 151 0 82 -3 96 -33 158 -40 80 -117 148 -198 173 l-51 17 7 38 c8 41
46 125 94 204 90 150 255 333 441 490 158 133 169 166 83 249 -29 28 -52 55
-50 59 1 5 -2 6 -7 3 -12 -8 -163 126 -236 210 -100 114 -115 135 -109 146 4
7 2 8 -4 4 -17 -10 -115 135 -182 270 -55 113 -62 123 -100 138 -43 17 -63 21
-43 8z m38 -322 c-4 -6 -2 -9 3 -8 6 2 34 -33 62 -77 29 -44 73 -107 99 -140
25 -33 37 -54 28 -46 -15 12 -17 12 -11 -3 3 -9 12 -16 19 -16 17 0 67 -59 59
-71 -3 -5 1 -9 8 -9 22 0 147 -131 141 -149 -4 -12 -3 -13 4 -3 8 10 22 2 61
-33 29 -26 52 -50 52 -54 0 -14 -190 -176 -203 -173 -6 2 -9 0 -5 -3 4 -4 -32
-51 -80 -104 -91 -99 -155 -185 -212 -283 -19 -31 -38 -54 -43 -51 -4 3 -6 12
-2 21 3 9 3 13 -1 9 -4 -4 -19 12 -32 35 -34 57 -125 181 -178 242 -24 27 -40
54 -37 60 3 6 2 8 -2 3 -12 -10 -86 63 -78 77 3 6 3 8 -2 4 -4 -4 -42 22 -84
59 -94 82 -120 108 -101 98 11 -6 12 -5 4 4 -9 10 4 27 55 74 98 92 243 252
307 339 31 43 61 75 67 71 6 -3 7 -1 3 5 -9 15 67 135 79 125 4 -5 5 -2 1 5
-4 6 -4 17 0 23 5 8 10 6 16 -5 5 -9 6 -21 3 -26z m-53 -1697 c17 -15 23 -15
51 -4 51 21 91 26 82 11 -5 -9 -4 -11 4 -6 16 11 58 -19 81 -57 22 -36 27
-125 9 -160 -17 -33 -60 -77 -93 -94 -60 -31 -232 -7 -210 29 4 6 3 8 -3 5
-11 -7 -44 25 -62 60 -12 23 -15 111 -5 138 6 13 9 14 16 3 7 -9 8 -8 4 6 -7
21 11 49 27 39 5 -3 7 -1 3 5 -8 13 31 42 58 42 11 0 28 -8 38 -17z m255 -609
c24 -4 40 -10 38 -15 -3 -4 -1 -10 5 -14 5 -3 10 -1 10 6 0 8 12 9 38 4 68
-12 111 -28 105 -38 -4 -6 0 -8 11 -4 25 10 192 -63 174 -75 -9 -7 -8 -8 5 -4
29 9 215 -123 202 -145 -3 -4 2 -10 11 -13 10 -4 13 -2 8 7 -4 6 14 -8 40 -33
40 -39 44 -46 29 -52 -15 -7 -14 -8 4 -4 55 10 215 -244 286 -454 31 -91 70
-267 92 -410 8 -58 25 -151 36 -208 11 -57 18 -110 15 -118 -3 -8 -2 -13 3
-10 10 6 55 -157 54 -197 0 -16 3 -24 7 -17 4 6 12 -8 19 -32 38 -125 160
-398 240 -536 23 -40 39 -77 35 -84 -4 -6 -3 -8 3 -5 14 9 56 -61 47 -75 -4
-6 -2 -8 3 -5 6 4 19 -5 28 -19 14 -22 15 -28 4 -36 -11 -8 -11 -9 2 -5 23 8
97 -92 78 -105 -11 -7 -11 -8 2 -6 10 2 38 -23 70 -62 29 -36 58 -68 63 -71 5
-4 5 -12 1 -19 -5 -8 -4 -11 3 -6 13 8 54 -43 45 -58 -3 -6 -2 -8 2 -3 11 10
56 -33 48 -46 -3 -6 -2 -7 4 -4 5 3 27 -12 49 -35 26 -27 32 -38 19 -33 -37
13 -239 63 -287 70 -26 4 -46 11 -43 15 3 5 -3 6 -14 3 -10 -2 -72 5 -138 16
-114 20 -292 45 -398 55 -422 44 -591 55 -940 62 -223 5 -285 9 -304 21 -13 8
-20 10 -17 4 4 -6 1 -11 -6 -11 -545 -11 -986 -35 -1303 -71 -314 -36 -703
-108 -835 -154 -56 -20 -58 -19 -30 10 12 13 28 22 34 18 6 -3 8 -3 4 2 -4 4
31 50 78 103 136 152 285 358 376 517 152 267 257 531 332 837 18 71 35 126
38 122 4 -3 4 3 1 14 -6 24 51 337 82 452 46 163 100 285 183 408 54 79 131
168 144 164 5 -1 7 1 4 6 -8 14 80 95 95 87 7 -5 10 -4 5 3 -7 12 79 81 178
140 118 71 295 130 451 151 71 10 295 7 372 -5z m-297 -3238 l0 -263 -31 -7
c-17 -3 -36 -3 -43 0 -6 3 -2 -2 8 -10 14 -12 16 -16 5 -16 -8 0 -42 -13 -76
-29 -34 -16 -65 -26 -69 -23 -4 4 -3 1 1 -7 6 -11 4 -13 -9 -8 -9 4 -15 3 -12
-2 3 -4 -6 -19 -20 -32 -25 -23 -29 -24 -187 -21 -343 5 -870 47 -1139 89 -59
9 -105 20 -103 23 3 4 -6 5 -18 3 -37 -7 -312 61 -303 75 2 4 -10 7 -28 8 -42
1 -168 59 -201 94 -36 37 -29 59 27 97 85 56 288 114 570 163 193 33 212 35
202 18 -4 -7 -3 -8 5 -4 6 4 9 12 6 17 -4 5 2 9 13 9 10 0 47 3 82 7 53 5 62
4 55 -8 -6 -9 -2 -8 11 3 36 32 650 79 1117 86 l137 2 0 -264z m735 243 c116
-6 217 -13 225 -16 8 -3 25 -5 38 -4 13 2 98 -5 189 -14 152 -16 205 -30 186
-48 -3 -4 5 -4 17 -2 12 2 25 7 29 11 3 4 -2 4 -11 1 -10 -4 -18 -2 -18 3 0 6
12 10 26 10 14 0 23 -4 20 -9 -3 -4 5 -6 18 -4 44 9 607 -84 587 -96 -5 -4 7
-7 27 -8 47 -1 222 -57 282 -89 93 -50 88 -92 -19 -147 -113 -59 -294 -113
-340 -102 -16 3 -21 2 -13 -3 21 -14 -297 -66 -593 -96 -192 -20 -574 -44
-780 -49 -146 -4 -162 -3 -188 15 -15 11 -25 24 -21 29 3 5 2 8 -3 7 -4 -1
-42 15 -84 35 -42 20 -83 37 -92 37 -25 0 -47 11 -41 21 3 5 0 9 -5 9 -8 0
-11 86 -11 266 l0 267 183 -7 c100 -4 277 -11 392 -17z m-571 -701 c-4 -7 -3
-8 4 -4 20 12 100 -31 148 -81 52 -53 99 -143 91 -174 -3 -10 -1 -17 4 -13 17
10 9 -102 -11 -162 -11 -32 -32 -72 -46 -89 -14 -16 -22 -24 -18 -16 5 9 3 12
-5 7 -6 -4 -9 -11 -6 -16 8 -14 -66 -69 -120 -89 -169 -63 -339 3 -423 164
-23 44 -26 62 -27 150 0 84 4 107 22 145 39 79 153 180 188 166 9 -3 13 -2 10
3 -8 13 19 18 113 19 59 1 81 -2 76 -10z"/>
<path d="M2848 7276 c-37 -12 -58 -46 -58 -94 0 -134 -52 -273 -126 -342 -65
-60 -119 -80 -231 -89 -91 -6 -97 -8 -124 -39 -31 -35 -35 -57 -17 -96 19 -43
56 -59 153 -67 89 -7 149 -24 139 -40 -3 -5 1 -6 9 -3 8 3 27 -6 43 -20 27
-23 28 -27 15 -48 -14 -23 -14 -23 8 -4 19 17 26 15 22 -7 -1 -5 3 -6 8 -3 13
8 59 -71 77 -130 7 -25 16 -75 19 -112 7 -69 18 -101 43 -116 12 -7 12 -10 1
-17 -9 -6 -4 -7 15 -3 20 5 27 3 22 -4 -3 -6 -1 -14 5 -18 8 -5 9 -3 4 6 -6
10 -3 12 13 8 12 -4 20 -3 17 1 -2 5 6 14 20 21 29 16 42 48 50 125 8 77 33
165 46 165 6 0 7 5 4 10 -8 13 57 102 90 124 14 9 31 14 37 10 6 -4 8 -3 5 3
-11 18 67 44 155 52 91 8 127 26 148 70 14 31 -3 84 -35 110 -14 10 -23 20
-21 22 2 2 -38 4 -89 5 -80 1 -101 5 -148 28 -61 29 -115 83 -147 147 -26 49
-50 156 -50 221 0 26 -7 65 -16 87 -17 44 -49 55 -106 37z m42 -435 c8 -15 8
-21 1 -17 -6 4 -11 0 -11 -9 0 -9 6 -15 13 -14 18 3 152 -133 148 -151 -2 -12
0 -13 10 -2 7 6 17 12 22 12 5 0 -19 -22 -54 -49 -40 -31 -79 -73 -103 -111
l-39 -61 -31 53 c-16 29 -29 57 -28 61 1 5 -2 6 -6 3 -5 -3 -17 3 -27 14 -10
11 -40 34 -67 51 l-48 31 42 27 c50 32 123 111 146 158 9 18 16 32 17 30 1 -1
8 -13 15 -26z"/>
<path d="M7657 5509 c-54 -9 -67 -26 -78 -105 -17 -121 -42 -186 -92 -241 -17
-19 -23 -21 -36 -10 -14 11 -14 10 -2 -5 12 -16 8 -20 -40 -43 -35 -16 -72
-25 -105 -25 -28 0 -65 -5 -82 -11 -64 -22 -82 -97 -34 -149 24 -27 36 -31
109 -39 87 -9 181 -51 167 -73 -4 -6 -3 -8 4 -4 13 8 55 -45 76 -96 20 -46 36
-147 25 -154 -5 -3 -9 -11 -9 -17 0 -7 4 -6 10 3 8 12 10 10 10 -11 0 -14 6
-34 14 -44 8 -11 12 -26 9 -35 -3 -10 -2 -11 4 -3 6 8 14 9 23 3 25 -16 58
-11 85 13 23 19 28 34 36 103 10 92 28 151 61 197 33 47 47 59 58 52 6 -4 9
-1 8 7 -5 24 81 58 148 58 105 0 162 58 130 134 -18 43 -66 66 -140 66 -112 0
-223 90 -250 203 -4 15 -11 62 -16 103 -13 100 -38 132 -93 123z m33 -400 c14
-22 44 -56 68 -75 23 -20 39 -40 35 -46 -4 -8 0 -9 13 -5 10 4 -5 -14 -35 -40
-30 -26 -67 -67 -82 -91 l-27 -43 -23 33 c-33 48 -94 112 -110 116 -8 2 -20 8
-27 14 -10 9 -6 15 15 28 48 29 146 134 135 145 -3 3 -1 5 4 5 5 0 20 -18 34
-41z"/>
<path d="M3586 1969 c2 -4 -3 -12 -11 -19 -15 -12 -22 -37 -45 -143 -6 -31
-16 -55 -21 -52 -5 3 -6 -1 -3 -10 9 -21 -75 -101 -113 -108 -15 -3 -52 -9
-81 -12 -28 -4 -62 -15 -73 -24 -21 -17 -44 -101 -28 -101 5 0 9 -5 9 -11 0
-5 -6 -7 -12 -3 -8 4 -10 3 -5 -2 5 -5 12 -9 15 -10 4 0 20 -6 35 -12 16 -7
43 -12 61 -12 45 0 115 -26 144 -53 34 -31 75 -105 68 -122 -3 -8 -1 -17 4
-20 6 -4 10 -23 10 -45 0 -53 48 -105 88 -96 15 4 32 7 39 8 7 1 11 4 11 7 -1
3 4 19 10 34 7 16 12 45 12 65 1 77 71 182 134 201 17 5 53 12 81 16 86 12
115 35 115 91 0 57 -50 94 -127 94 -110 1 -195 96 -209 233 -4 42 -13 73 -25
85 -10 11 -16 21 -14 23 2 2 -14 4 -35 4 -21 0 -36 -3 -34 -6z m48 -343 c-1
-10 0 -15 3 -12 8 8 79 -56 75 -67 -1 -5 1 -6 5 -4 5 2 17 1 28 -4 17 -6 17
-8 3 -8 -24 -1 -98 -69 -109 -100 l-10 -25 -31 38 c-17 21 -49 51 -71 67 -22
16 -35 29 -29 29 6 0 27 14 45 30 19 17 42 30 51 30 9 0 16 5 16 11 0 5 -5 7
-11 4 -6 -4 -5 2 3 14 15 24 34 22 32 -3z"/>
</g>
</svg>
