<?xml version="1.0" standalone="no"?>
<!DOCTYPE svg PUBLIC "-//W3C//DTD SVG 20010904//EN"
 "http://www.w3.org/TR/2001/REC-SVG-20010904/DTD/svg10.dtd">
<svg version="1.0" xmlns="http://www.w3.org/2000/svg"
 width="1024.000000pt" height="1024.000000pt" viewBox="0 0 1024.000000 1024.000000"
 preserveAspectRatio="xMidYMid meet">
<metadata>
Created by potrace 1.16, written by Peter Selinger 2001-2019
</metadata>
<g transform="translate(0.000000,1024.000000) scale(0.100000,-0.100000)"
fill="#000000" stroke="none">
<path d="M5440 8603 c-8 -3 -44 -30 -79 -59 -35 -29 -69 -50 -74 -47 -6 3 -7
2 -4 -4 7 -11 -120 -120 -135 -115 -5 1 -7 -2 -4 -7 7 -11 -59 -63 -69 -53 -3
4 -5 1 -3 -7 2 -7 -3 -16 -10 -18 -8 -3 -10 1 -6 11 3 9 2 16 -4 16 -6 0 -9
-8 -7 -17 1 -10 -11 -33 -28 -50 -31 -33 -55 -45 -41 -20 5 7 1 7 -12 -3 -30
-22 -30 -24 -9 -16 14 5 10 -3 -14 -28 -19 -20 -42 -35 -50 -33 -9 1 -15 -3
-14 -10 3 -15 -56 -65 -68 -57 -5 3 -9 -1 -9 -9 0 -16 -32 -48 -52 -50 -7 -2
-13 -5 -13 -9 0 -10 -47 -58 -57 -58 -5 0 -7 4 -4 8 2 4 -4 8 -15 8 -10 0 -19
-4 -19 -8 0 -4 8 -8 17 -8 14 0 12 -4 -7 -25 -13 -14 -30 -23 -38 -20 -7 2
-11 1 -8 -4 3 -5 0 -14 -8 -20 -8 -7 -16 -8 -18 -4 -3 4 -3 3 -2 -4 4 -16
-134 -129 -154 -125 -13 2 -14 1 -3 -6 10 -8 8 -13 -10 -25 -12 -9 -27 -13
-32 -10 -6 3 -7 1 -4 -5 9 -14 -51 -64 -66 -55 -7 3 -9 2 -4 -2 10 -11 -32
-55 -53 -55 -9 0 -25 -7 -36 -16 -18 -14 -18 -14 6 -3 25 12 25 12 6 -9 -10
-12 -23 -19 -28 -16 -4 3 -7 2 -6 -3 4 -13 -138 -133 -147 -125 -5 4 -5 2 -2
-4 4 -7 -1 -18 -10 -25 -9 -8 -35 -40 -59 -71 -23 -31 -45 -54 -49 -50 -4 4
-5 0 -3 -9 4 -22 -202 -350 -215 -342 -6 3 -7 1 -3 -5 8 -14 -87 -165 -99
-155 -4 5 -5 3 -1 -4 7 -13 -61 -123 -76 -123 -5 0 -7 -4 -4 -9 4 -5 2 -20 -3
-33 -13 -34 -20 -398 -27 -1343 -4 -462 -8 -856 -9 -875 -3 -35 -4 -1066 -2
-1107 1 -12 3 -20 6 -18 13 13 38 -56 36 -96 -2 -24 -1 -38 2 -32 3 9 10 10
22 3 10 -5 21 -7 24 -4 8 8 38 -41 35 -57 -2 -7 2 -13 9 -14 16 0 75 -84 68
-96 -4 -5 -1 -8 6 -7 6 2 13 -7 14 -20 1 -12 8 -28 15 -35 10 -10 10 -7 1 13
-10 20 -6 17 17 -10 17 -19 28 -39 26 -45 -3 -6 3 -19 11 -30 16 -19 16 -19 5
3 -17 36 -4 25 34 -27 25 -36 34 -57 30 -76 -3 -18 -1 -24 6 -20 6 4 9 14 6
24 -4 9 2 7 14 -8 11 -12 17 -27 14 -32 -3 -5 0 -8 8 -7 7 2 12 -5 12 -14 -1
-10 2 -16 6 -13 4 3 13 -1 19 -9 9 -11 9 -15 0 -18 -7 -2 -5 -9 7 -18 16 -13
17 -13 10 0 -4 8 2 4 13 -9 12 -12 18 -27 15 -32 -3 -5 0 -8 7 -7 14 3 30 -47
22 -68 -3 -8 0 -14 7 -14 6 0 8 5 5 10 -3 6 0 10 8 10 14 0 117 -121 117 -137
0 -5 -5 -1 -11 7 -9 13 -10 13 -6 0 2 -8 9 -14 15 -13 15 4 113 -118 105 -130
-3 -6 -2 -7 4 -4 16 10 85 -80 81 -108 -2 -13 2 -24 7 -24 6 0 9 7 9 15 -2 11
1 12 12 3 8 -6 11 -15 8 -20 -3 -5 -2 -8 3 -7 5 2 41 -33 80 -77 39 -44 82
-91 96 -104 15 -13 24 -31 22 -42 -2 -11 0 -17 6 -14 5 4 6 12 2 18 -4 7 19
-10 50 -37 31 -27 57 -52 57 -57 0 -5 3 -8 8 -7 6 2 99 -57 112 -71 3 -3 10
-7 15 -8 6 -1 37 -14 70 -28 33 -13 77 -28 98 -31 21 -4 34 -10 29 -13 -12 -7
107 -5 191 4 108 11 272 77 405 162 29 18 58 30 64 27 6 -4 8 -3 5 3 -3 5 7
19 23 31 20 15 30 18 33 9 3 -7 6 -5 6 5 1 22 77 81 92 72 7 -4 9 -3 6 3 -9
14 29 47 43 38 6 -3 9 -2 8 3 -2 5 57 67 130 137 73 71 168 167 210 214 42 47
80 85 84 84 4 -2 7 1 5 6 -1 5 21 37 49 72 117 147 163 207 203 268 33 49 46
60 53 50 8 -11 8 -10 4 4 -7 23 11 60 26 51 7 -4 8 -2 4 5 -10 15 13 43 27 34
6 -3 7 -1 3 5 -10 16 12 54 26 46 6 -4 8 -3 5 3 -4 6 5 37 19 68 l27 58 -2
1391 c-1 880 -6 1418 -12 1464 -12 88 -58 246 -93 321 -13 29 -22 60 -19 69 4
9 2 13 -4 9 -9 -6 -76 119 -73 137 1 5 -3 12 -8 15 -17 11 -103 192 -96 203 4
6 3 8 -3 5 -13 -8 -67 98 -57 114 4 7 3 9 -3 6 -15 -9 -85 126 -77 150 4 12 3
14 -3 6 -12 -17 -165 290 -157 314 4 13 3 14 -3 5 -6 -8 -57 85 -161 295 -156
318 -193 401 -339 758 -48 116 -93 220 -101 232 -8 13 -30 27 -51 33 -40 11
-40 11 -61 3z m20 -269 c21 -49 26 -70 9 -41 -5 9 -15 17 -20 17 -6 0 -3 -7 5
-16 9 -8 16 -23 17 -32 0 -12 2 -13 6 -4 3 8 15 -8 28 -36 31 -68 40 -96 26
-88 -15 10 -13 -4 5 -34 l15 -25 -6 25 c-11 44 11 3 51 -98 36 -87 37 -95 21
-106 -9 -7 -15 -15 -12 -17 2 -3 -13 -33 -34 -68 -21 -34 -41 -59 -43 -54 -3
4 -3 2 -1 -5 4 -19 -27 -63 -40 -55 -6 3 -7 1 -3 -5 11 -19 -12 -52 -32 -46
-13 5 -14 4 -3 -4 10 -7 11 -14 2 -31 -7 -12 -15 -19 -19 -17 -5 3 -14 0 -22
-6 -12 -8 -12 -9 3 -4 9 3 17 2 17 -2 0 -15 -137 -231 -144 -227 -3 3 -4 2 -1
-1 8 -11 -37 -84 -48 -77 -6 3 -7 1 -3 -6 9 -14 -32 -83 -44 -76 -5 3 -12 0
-16 -6 -4 -8 -3 -9 4 -5 16 10 15 1 -3 -34 -9 -18 -24 -30 -35 -30 -12 0 -20
-7 -20 -17 0 -15 2 -16 10 -3 5 8 11 12 14 10 7 -7 -69 -129 -89 -144 -10 -7
-15 -17 -12 -23 9 -14 -59 -77 -72 -68 -6 3 -11 3 -10 -2 4 -20 -2 -24 -18
-12 -15 11 -16 11 -6 -1 10 -11 9 -17 -4 -32 -18 -20 -38 -25 -27 -6 4 7 3 8
-5 4 -6 -4 -9 -11 -6 -16 7 -12 -76 -81 -88 -73 -6 3 -7 2 -4 -4 7 -12 -281
-259 -299 -257 -7 1 -12 -3 -11 -10 1 -6 -4 -10 -11 -8 -8 1 -11 -2 -7 -7 6
-11 -46 -54 -71 -57 -9 -1 -19 -6 -22 -10 -4 -4 1 -4 11 -1 26 10 21 3 -29
-36 -26 -20 -52 -34 -58 -30 -6 3 -8 3 -4 -2 4 -4 3 -14 -3 -21 -13 -16 -53 1
-43 18 4 6 1 9 -7 6 -18 -7 -71 20 -64 32 4 6 -1 7 -11 3 -11 -4 -15 -2 -11 4
4 6 -1 10 -10 9 -10 0 -18 5 -18 13 0 8 -6 16 -14 19 -10 3 -11 0 -5 -9 6 -11
2 -10 -16 2 -14 8 -78 46 -142 84 -77 46 -113 73 -105 78 8 6 5 7 -6 3 -21 -7
-61 17 -49 29 4 5 1 5 -6 1 -7 -4 -24 0 -38 9 -23 15 -24 19 -12 33 13 15 56
83 204 322 17 27 33 48 36 45 2 -3 5 1 5 8 0 18 107 185 153 239 23 26 46 47
52 45 7 -1 12 3 13 9 0 19 174 166 187 158 6 -4 8 -3 5 3 -9 15 59 77 74 68 7
-5 10 -4 6 2 -4 6 10 25 31 42 20 17 45 39 55 49 11 9 23 16 29 14 5 -1 7 2 3
7 -6 11 52 58 67 53 5 -1 7 2 4 7 -8 13 21 34 35 25 8 -5 9 -3 5 5 -9 14 24
42 38 34 5 -4 6 -1 3 4 -8 12 16 35 31 31 5 -2 9 0 9 3 -3 12 35 49 45 43 4
-3 7 -2 6 3 -4 11 76 83 91 83 6 0 11 4 11 9 0 14 162 151 172 145 4 -3 7 -1
6 5 -2 7 307 289 320 291 1 0 12 -21 22 -46z m318 -724 c13 -31 13 -33 -3 -20
-14 12 -15 10 -11 -15 5 -28 21 -45 42 -45 5 0 21 -19 33 -42 35 -66 41 -85
26 -85 -7 0 -10 8 -7 19 2 10 0 18 -5 18 -4 0 -9 -19 -10 -42 0 -24 2 -36 6
-28 8 21 41 23 34 2 -4 -9 -2 -13 4 -9 14 9 126 -209 117 -225 -4 -6 -3 -8 2
-5 13 7 167 -301 158 -315 -4 -6 -3 -8 3 -5 6 4 15 -6 22 -21 10 -24 10 -25
-2 -9 -17 20 -27 22 -27 4 0 -8 11 -19 25 -25 16 -7 37 -37 60 -84 20 -40 28
-63 18 -50 -18 21 -19 22 -19 3 0 -11 3 -18 7 -15 4 2 11 -5 14 -17 5 -13 10
-17 14 -11 4 6 26 -27 49 -74 24 -47 38 -83 32 -79 -13 8 -13 -5 0 -25 9 -13
10 -13 10 0 1 8 16 -14 34 -49 31 -60 32 -66 17 -80 -9 -9 -11 -12 -4 -7 9 5
13 4 13 -5 0 -12 2 -12 9 -1 7 11 9 11 14 -2 3 -8 1 -17 -6 -20 -7 -2 -6 -5 4
-5 16 -1 44 -49 35 -58 -3 -3 2 -12 10 -21 9 -8 13 -23 11 -34 -3 -10 -1 -16
4 -12 5 3 9 2 9 -3 0 -4 3 -19 7 -32 5 -18 3 -22 -7 -16 -9 5 -11 4 -6 -4 4
-6 12 -8 18 -5 7 5 9 0 6 -14 -4 -12 -2 -20 3 -16 5 3 9 2 9 -3 0 -4 7 -46 14
-93 12 -72 24 -480 15 -515 -1 -5 -5 10 -9 35 -7 44 -7 43 -8 -19 -2 -59 -1
-63 13 -45 13 17 14 -111 12 -1126 l-2 -1145 -29 -55 c-46 -89 -138 -220 -149
-213 -5 3 -7 2 -4 -4 8 -12 -29 -68 -45 -68 -7 -1 -12 -7 -10 -14 4 -18 -28
-52 -41 -44 -6 3 -7 1 -3 -5 9 -15 -43 -84 -57 -75 -6 4 -7 1 -3 -6 10 -15
-23 -53 -37 -44 -5 3 -7 2 -4 -4 8 -13 -22 -55 -34 -47 -5 3 -8 1 -7 -4 5 -16
-62 -93 -74 -86 -6 4 -8 2 -4 -4 10 -17 -102 -132 -121 -125 -11 5 -14 3 -9
-6 10 -15 -52 -83 -67 -74 -6 3 -7 1 -4 -4 7 -11 -56 -73 -73 -73 -7 0 -9 727
-8 2034 2 1119 0 2032 -5 2029 -4 -2 -10 3 -13 11 -13 34 -96 42 -133 13 -7
-6 -20 -12 -28 -13 -8 -2 -18 -6 -21 -10 -4 -4 1 -4 12 0 14 5 17 3 12 -10 -3
-8 -7 -88 -8 -177 -2 -124 -3 -143 -8 -82 -3 44 -7 -833 -10 -1949 -4 -1793
-7 -2030 -20 -2033 -12 -4 -12 -3 -1 5 9 7 10 12 2 16 -10 6 -15 -6 -12 -27 2
-12 -92 -68 -107 -62 -7 2 -10 0 -7 -5 7 -12 -111 -72 -184 -94 -68 -20 -80
-20 -55 -1 16 13 16 14 2 9 -17 -6 -18 118 -18 2508 l0 2514 68 115 c37 63
103 174 146 246 45 76 83 130 89 126 6 -3 7 -1 3 5 -8 13 70 152 85 152 6 0 8
4 5 8 -3 5 12 37 33 71 22 34 41 59 43 54 3 -4 3 -2 2 5 -2 6 9 32 24 57 l27
45 19 -38 c10 -20 26 -53 34 -72z m-758 -3386 c0 -1577 -4 -2415 -10 -2419
-10 -6 -105 33 -148 61 -20 13 -21 18 -10 32 12 15 11 16 -4 3 -16 -12 -23 -8
-65 27 -114 95 -358 366 -347 384 4 6 3 8 -3 5 -13 -8 -169 178 -167 199 1 7
-2 12 -6 9 -12 -7 -41 36 -33 48 3 6 1 7 -4 4 -16 -10 -34 18 -27 39 5 16 4
16 -5 4 -10 -13 -15 -8 -12 12 0 5 -3 7 -8 5 -14 -3 -62 64 -54 76 3 6 1 7 -5
3 -11 -6 -38 31 -34 46 1 5 -2 7 -7 5 -8 -2 -131 156 -131 169 0 3 6 2 13 -2
8 -6 8 -3 -1 9 -8 9 -18 15 -23 14 -13 -3 -129 164 -122 176 3 5 1 7 -4 4 -14
-9 -136 172 -129 190 3 8 1 11 -4 8 -7 -4 -10 118 -10 350 0 235 3 354 10 350
6 -3 10 1 10 10 0 9 -4 14 -9 10 -6 -3 -9 41 -9 109 1 63 5 113 10 110 9 -6 5
32 -5 42 -9 10 -9 46 1 41 4 -3 9 397 11 888 2 491 6 958 10 1038 l6 146 123
-76 c76 -47 122 -81 122 -91 0 -12 3 -13 8 -5 5 8 23 1 62 -23 30 -19 54 -39
53 -44 -2 -5 5 -6 14 -3 10 4 14 2 9 -5 -3 -6 -1 -14 5 -18 8 -4 9 -3 5 4 -12
20 7 13 54 -19 25 -17 37 -29 28 -25 -14 4 -18 0 -18 -19 0 -27 16 -42 23 -23
3 7 6 -524 6 -1180 1 -1310 -3 -1236 61 -1262 39 -16 75 -5 102 30 16 23 18
49 21 283 2 209 4 254 15 240 6 -9 12 -12 12 -7 0 6 -6 16 -12 22 -10 10 -13
215 -13 925 0 502 1 932 4 956 4 40 10 48 73 100 38 31 74 55 80 53 5 -1 7 2
3 7 -6 10 34 37 48 33 5 -1 6 2 3 7 -8 12 34 42 47 34 6 -3 7 -1 4 4 -9 14
102 105 116 96 5 -3 7 -1 4 5 -9 13 51 64 65 56 6 -4 8 -2 4 4 -8 13 73 84 87
75 6 -3 7 -1 3 5 -8 13 43 54 58 45 6 -3 8 -3 4 2 -11 12 11 35 28 28 12 -4
14 -342 14 -2419z"/>
<path d="M6160 5269 c0 -5 8 -5 18 -2 10 4 5 -4 -11 -18 l-27 -24 -1 -215 c-1
-146 -5 -220 -13 -229 -8 -11 -8 -13 1 -8 10 6 13 -74 13 -360 1 -396 2 -412
10 -410 3 1 20 -7 38 -17 37 -19 82 -15 102 10 7 7 16 12 19 9 10 -6 10 -40
10 619 1 506 -1 593 -14 613 -18 27 -19 37 -2 27 6 -4 8 -3 4 2 -10 11 -147
14 -147 3z"/>
</g>
</svg>
